<?xml version="1.0" encoding="utf-8" standalone="no"?>
<!DOCTYPE svg PUBLIC "-//W3C//DTD SVG 1.1//EN"
  "http://www.w3.org/Graphics/SVG/1.1/DTD/svg11.dtd">
<!-- Created with matplotlib (https://matplotlib.org/) -->
<svg height="499.474062pt" version="1.1" viewBox="0 0 662.2375 499.474062" width="662.2375pt" xmlns="http://www.w3.org/2000/svg" xmlns:xlink="http://www.w3.org/1999/xlink">
 <metadata>
  <rdf:RDF xmlns:cc="http://creativecommons.org/ns#" xmlns:dc="http://purl.org/dc/elements/1.1/" xmlns:rdf="http://www.w3.org/1999/02/22-rdf-syntax-ns#">
   <cc:Work>
    <dc:type rdf:resource="http://purl.org/dc/dcmitype/StillImage"/>
    <dc:date>2021-01-04T21:33:32.531702</dc:date>
    <dc:format>image/svg+xml</dc:format>
    <dc:creator>
     <cc:Agent>
      <dc:title>Matplotlib v3.3.3, https://matplotlib.org/</dc:title>
     </cc:Agent>
    </dc:creator>
   </cc:Work>
  </rdf:RDF>
 </metadata>
 <defs>
  <style type="text/css">*{stroke-linecap:butt;stroke-linejoin:round;}</style>
 </defs>
 <g id="figure_1">
  <g id="patch_1">
   <path d="M 0 499.474062 
L 662.2375 499.474062 
L 662.2375 0 
L 0 0 
z
" style="fill:#ffffff;"/>
  </g>
  <g id="axes_1">
   <g id="patch_2">
    <path d="M 152.8375 450.72 
L 655.0375 450.72 
L 655.0375 7.2 
L 152.8375 7.2 
z
" style="fill:#ffffff;"/>
   </g>
   <g id="patch_3">
    <path clip-path="url(#pfd6cefd831)" d="M 152.8375 8.03683 
L 631.123214 8.03683 
L 631.123214 14.731472 
L 152.8375 14.731472 
z
" style="fill:#ffffff;stroke:#cccccc;stroke-linejoin:miter;"/>
   </g>
   <g id="patch_4">
    <path clip-path="url(#pfd6cefd831)" d="M 152.8375 16.405132 
L 615.461722 16.405132 
L 615.461722 23.099774 
L 152.8375 23.099774 
z
" style="fill:#ffffff;stroke:#cccccc;stroke-linejoin:miter;"/>
   </g>
   <g id="patch_5">
    <path clip-path="url(#pfd6cefd831)" d="M 152.8375 24.773434 
L 499.017507 24.773434 
L 499.017507 31.468075 
L 152.8375 31.468075 
z
" style="fill:#d3d3d3;stroke:#cccccc;stroke-linejoin:miter;"/>
   </g>
   <g id="patch_6">
    <path clip-path="url(#pfd6cefd831)" d="M 152.8375 33.141736 
L 480.50847 33.141736 
L 480.50847 39.836377 
L 152.8375 39.836377 
z
" style="fill:#ffffff;stroke:#cccccc;stroke-linejoin:miter;"/>
   </g>
   <g id="patch_7">
    <path clip-path="url(#pfd6cefd831)" d="M 152.8375 41.510038 
L 414.811559 41.510038 
L 414.811559 48.204679 
L 152.8375 48.204679 
z
" style="fill:#d3d3d3;stroke:#cccccc;stroke-linejoin:miter;"/>
   </g>
   <g id="patch_8">
    <path clip-path="url(#pfd6cefd831)" d="M 152.8375 49.87834 
L 404.540061 49.87834 
L 404.540061 56.572981 
L 152.8375 56.572981 
z
" style="fill:#ffffff;stroke:#cccccc;stroke-linejoin:miter;"/>
   </g>
   <g id="patch_9">
    <path clip-path="url(#pfd6cefd831)" d="M 152.8375 58.246642 
L 363.759161 58.246642 
L 363.759161 64.941283 
L 152.8375 64.941283 
z
" style="fill:#ffffff;stroke:#cccccc;stroke-linejoin:miter;"/>
   </g>
   <g id="patch_10">
    <path clip-path="url(#pfd6cefd831)" d="M 152.8375 66.614943 
L 359.487845 66.614943 
L 359.487845 73.309585 
L 152.8375 73.309585 
z
" style="fill:#ffffff;stroke:#cccccc;stroke-linejoin:miter;"/>
   </g>
   <g id="patch_11">
    <path clip-path="url(#pfd6cefd831)" d="M 152.8375 74.983245 
L 310.469407 74.983245 
L 310.469407 81.677887 
L 152.8375 81.677887 
z
" style="fill:#ffffff;stroke:#cccccc;stroke-linejoin:miter;"/>
   </g>
   <g id="patch_12">
    <path clip-path="url(#pfd6cefd831)" d="M 152.8375 83.351547 
L 280.773589 83.351547 
L 280.773589 90.046189 
L 152.8375 90.046189 
z
" style="fill:#ffffff;stroke:#cccccc;stroke-linejoin:miter;"/>
   </g>
   <g id="patch_13">
    <path clip-path="url(#pfd6cefd831)" d="M 152.8375 91.719849 
L 271.925863 91.719849 
L 271.925863 98.414491 
L 152.8375 98.414491 
z
" style="fill:#ffffff;stroke:#cccccc;stroke-linejoin:miter;"/>
   </g>
   <g id="patch_14">
    <path clip-path="url(#pfd6cefd831)" d="M 152.8375 100.088151 
L 250.365886 100.088151 
L 250.365886 106.782792 
L 152.8375 106.782792 
z
" style="fill:#ffffff;stroke:#cccccc;stroke-linejoin:miter;"/>
   </g>
   <g id="patch_15">
    <path clip-path="url(#pfd6cefd831)" d="M 152.8375 108.456453 
L 242.128348 108.456453 
L 242.128348 115.151094 
L 152.8375 115.151094 
z
" style="fill:#d3d3d3;stroke:#cccccc;stroke-linejoin:miter;"/>
   </g>
   <g id="patch_16">
    <path clip-path="url(#pfd6cefd831)" d="M 152.8375 116.824755 
L 240.297784 116.824755 
L 240.297784 123.519396 
L 152.8375 123.519396 
z
" style="fill:#ffffff;stroke:#cccccc;stroke-linejoin:miter;"/>
   </g>
   <g id="patch_17">
    <path clip-path="url(#pfd6cefd831)" d="M 152.8375 125.193057 
L 239.890992 125.193057 
L 239.890992 131.887698 
L 152.8375 131.887698 
z
" style="fill:#ffffff;stroke:#cccccc;stroke-linejoin:miter;"/>
   </g>
   <g id="patch_18">
    <path clip-path="url(#pfd6cefd831)" d="M 152.8375 133.561358 
L 220.059881 133.561358 
L 220.059881 140.256 
L 152.8375 140.256 
z
" style="fill:#ffffff;stroke:#cccccc;stroke-linejoin:miter;"/>
   </g>
   <g id="patch_19">
    <path clip-path="url(#pfd6cefd831)" d="M 152.8375 141.92966 
L 219.144599 141.92966 
L 219.144599 148.624302 
L 152.8375 148.624302 
z
" style="fill:#ffffff;stroke:#cccccc;stroke-linejoin:miter;"/>
   </g>
   <g id="patch_20">
    <path clip-path="url(#pfd6cefd831)" d="M 152.8375 150.297962 
L 218.737807 150.297962 
L 218.737807 156.992604 
L 152.8375 156.992604 
z
" style="fill:#ffffff;stroke:#cccccc;stroke-linejoin:miter;"/>
   </g>
   <g id="patch_21">
    <path clip-path="url(#pfd6cefd831)" d="M 152.8375 158.666264 
L 215.178377 158.666264 
L 215.178377 165.360906 
L 152.8375 165.360906 
z
" style="fill:#ffffff;stroke:#cccccc;stroke-linejoin:miter;"/>
   </g>
   <g id="patch_22">
    <path clip-path="url(#pfd6cefd831)" d="M 152.8375 167.034566 
L 213.144417 167.034566 
L 213.144417 173.729208 
L 152.8375 173.729208 
z
" style="fill:#ffffff;stroke:#cccccc;stroke-linejoin:miter;"/>
   </g>
   <g id="patch_23">
    <path clip-path="url(#pfd6cefd831)" d="M 152.8375 175.402868 
L 211.618946 175.402868 
L 211.618946 182.097509 
L 152.8375 182.097509 
z
" style="fill:#ffffff;stroke:#cccccc;stroke-linejoin:miter;"/>
   </g>
   <g id="patch_24">
    <path clip-path="url(#pfd6cefd831)" d="M 152.8375 183.77117 
L 209.38159 183.77117 
L 209.38159 190.465811 
L 152.8375 190.465811 
z
" style="fill:#ffffff;stroke:#cccccc;stroke-linejoin:miter;"/>
   </g>
   <g id="patch_25">
    <path clip-path="url(#pfd6cefd831)" d="M 152.8375 192.139472 
L 207.85612 192.139472 
L 207.85612 198.834113 
L 152.8375 198.834113 
z
" style="fill:#ffffff;stroke:#cccccc;stroke-linejoin:miter;"/>
   </g>
   <g id="patch_26">
    <path clip-path="url(#pfd6cefd831)" d="M 152.8375 200.507774 
L 200.432166 200.507774 
L 200.432166 207.202415 
L 152.8375 207.202415 
z
" style="fill:#ffffff;stroke:#cccccc;stroke-linejoin:miter;"/>
   </g>
   <g id="patch_27">
    <path clip-path="url(#pfd6cefd831)" d="M 152.8375 208.876075 
L 198.19481 208.876075 
L 198.19481 215.570717 
L 152.8375 215.570717 
z
" style="fill:#c2929d;stroke:#cccccc;stroke-linejoin:miter;"/>
   </g>
   <g id="patch_28">
    <path clip-path="url(#pfd6cefd831)" d="M 152.8375 217.244377 
L 197.381226 217.244377 
L 197.381226 223.939019 
L 152.8375 223.939019 
z
" style="fill:#ffffff;stroke:#cccccc;stroke-linejoin:miter;"/>
   </g>
   <g id="patch_29">
    <path clip-path="url(#pfd6cefd831)" d="M 152.8375 225.612679 
L 195.65236 225.612679 
L 195.65236 232.307321 
L 152.8375 232.307321 
z
" style="fill:#ffffff;stroke:#cccccc;stroke-linejoin:miter;"/>
   </g>
   <g id="patch_30">
    <path clip-path="url(#pfd6cefd831)" d="M 152.8375 233.980981 
L 189.347084 233.980981 
L 189.347084 240.675623 
L 152.8375 240.675623 
z
" style="fill:#ffffff;stroke:#cccccc;stroke-linejoin:miter;"/>
   </g>
   <g id="patch_31">
    <path clip-path="url(#pfd6cefd831)" d="M 152.8375 242.349283 
L 187.516519 242.349283 
L 187.516519 249.043925 
L 152.8375 249.043925 
z
" style="fill:#ffffff;stroke:#cccccc;stroke-linejoin:miter;"/>
   </g>
   <g id="patch_32">
    <path clip-path="url(#pfd6cefd831)" d="M 152.8375 250.717585 
L 186.906331 250.717585 
L 186.906331 257.412226 
L 152.8375 257.412226 
z
" style="fill:#ffffff;stroke:#cccccc;stroke-linejoin:miter;"/>
   </g>
   <g id="patch_33">
    <path clip-path="url(#pfd6cefd831)" d="M 152.8375 259.085887 
L 186.092747 259.085887 
L 186.092747 265.780528 
L 152.8375 265.780528 
z
" style="fill:#ffffff;stroke:#cccccc;stroke-linejoin:miter;"/>
   </g>
   <g id="patch_34">
    <path clip-path="url(#pfd6cefd831)" d="M 152.8375 267.454189 
L 181.312941 267.454189 
L 181.312941 274.14883 
L 152.8375 274.14883 
z
" style="fill:#ffffff;stroke:#cccccc;stroke-linejoin:miter;"/>
   </g>
   <g id="patch_35">
    <path clip-path="url(#pfd6cefd831)" d="M 152.8375 275.822491 
L 181.109545 275.822491 
L 181.109545 282.517132 
L 152.8375 282.517132 
z
" style="fill:#ffffff;stroke:#cccccc;stroke-linejoin:miter;"/>
   </g>
   <g id="patch_36">
    <path clip-path="url(#pfd6cefd831)" d="M 152.8375 284.190792 
L 180.295961 284.190792 
L 180.295961 290.885434 
L 152.8375 290.885434 
z
" style="fill:#ffffff;stroke:#cccccc;stroke-linejoin:miter;"/>
   </g>
   <g id="patch_37">
    <path clip-path="url(#pfd6cefd831)" d="M 152.8375 292.559094 
L 179.685773 292.559094 
L 179.685773 299.253736 
L 152.8375 299.253736 
z
" style="fill:#ffffff;stroke:#cccccc;stroke-linejoin:miter;"/>
   </g>
   <g id="patch_38">
    <path clip-path="url(#pfd6cefd831)" d="M 152.8375 300.927396 
L 177.550115 300.927396 
L 177.550115 307.622038 
L 152.8375 307.622038 
z
" style="fill:#ffffff;stroke:#cccccc;stroke-linejoin:miter;"/>
   </g>
   <g id="patch_39">
    <path clip-path="url(#pfd6cefd831)" d="M 152.8375 309.295698 
L 175.719551 309.295698 
L 175.719551 315.99034 
L 152.8375 315.99034 
z
" style="fill:#ffffff;stroke:#cccccc;stroke-linejoin:miter;"/>
   </g>
   <g id="patch_40">
    <path clip-path="url(#pfd6cefd831)" d="M 152.8375 317.664 
L 175.617853 317.664 
L 175.617853 324.358642 
L 152.8375 324.358642 
z
" style="fill:#ffffff;stroke:#cccccc;stroke-linejoin:miter;"/>
   </g>
   <g id="patch_41">
    <path clip-path="url(#pfd6cefd831)" d="M 152.8375 326.032302 
L 173.990685 326.032302 
L 173.990685 332.726943 
L 152.8375 332.726943 
z
" style="fill:#ffffff;stroke:#cccccc;stroke-linejoin:miter;"/>
   </g>
   <g id="patch_42">
    <path clip-path="url(#pfd6cefd831)" d="M 152.8375 334.400604 
L 173.583893 334.400604 
L 173.583893 341.095245 
L 152.8375 341.095245 
z
" style="fill:#ffffff;stroke:#cccccc;stroke-linejoin:miter;"/>
   </g>
   <g id="patch_43">
    <path clip-path="url(#pfd6cefd831)" d="M 152.8375 342.768906 
L 172.058423 342.768906 
L 172.058423 349.463547 
L 152.8375 349.463547 
z
" style="fill:#ffffff;stroke:#cccccc;stroke-linejoin:miter;"/>
   </g>
   <g id="patch_44">
    <path clip-path="url(#pfd6cefd831)" d="M 152.8375 351.137208 
L 171.855027 351.137208 
L 171.855027 357.831849 
L 152.8375 357.831849 
z
" style="fill:#ffffff;stroke:#cccccc;stroke-linejoin:miter;"/>
   </g>
   <g id="patch_45">
    <path clip-path="url(#pfd6cefd831)" d="M 152.8375 359.505509 
L 171.346537 359.505509 
L 171.346537 366.200151 
L 152.8375 366.200151 
z
" style="fill:#ffffff;stroke:#cccccc;stroke-linejoin:miter;"/>
   </g>
   <g id="patch_46">
    <path clip-path="url(#pfd6cefd831)" d="M 152.8375 367.873811 
L 171.143141 367.873811 
L 171.143141 374.568453 
L 152.8375 374.568453 
z
" style="fill:#ffffff;stroke:#cccccc;stroke-linejoin:miter;"/>
   </g>
   <g id="patch_47">
    <path clip-path="url(#pfd6cefd831)" d="M 152.8375 376.242113 
L 170.838047 376.242113 
L 170.838047 382.936755 
L 152.8375 382.936755 
z
" style="fill:#ffffff;stroke:#cccccc;stroke-linejoin:miter;"/>
   </g>
   <g id="patch_48">
    <path clip-path="url(#pfd6cefd831)" d="M 152.8375 384.610415 
L 170.431255 384.610415 
L 170.431255 391.305057 
L 152.8375 391.305057 
z
" style="fill:#ffffff;stroke:#cccccc;stroke-linejoin:miter;"/>
   </g>
   <g id="patch_49">
    <path clip-path="url(#pfd6cefd831)" d="M 152.8375 392.978717 
L 170.024463 392.978717 
L 170.024463 399.673358 
L 152.8375 399.673358 
z
" style="fill:#ffffff;stroke:#cccccc;stroke-linejoin:miter;"/>
   </g>
   <g id="patch_50">
    <path clip-path="url(#pfd6cefd831)" d="M 152.8375 401.347019 
L 168.600691 401.347019 
L 168.600691 408.04166 
L 152.8375 408.04166 
z
" style="fill:#ffffff;stroke:#cccccc;stroke-linejoin:miter;"/>
   </g>
   <g id="patch_51">
    <path clip-path="url(#pfd6cefd831)" d="M 152.8375 409.715321 
L 168.397295 409.715321 
L 168.397295 416.409962 
L 152.8375 416.409962 
z
" style="fill:#ffffff;stroke:#cccccc;stroke-linejoin:miter;"/>
   </g>
   <g id="patch_52">
    <path clip-path="url(#pfd6cefd831)" d="M 152.8375 418.083623 
L 166.261637 418.083623 
L 166.261637 424.778264 
L 152.8375 424.778264 
z
" style="fill:#d3d3d3;stroke:#cccccc;stroke-linejoin:miter;"/>
   </g>
   <g id="patch_53">
    <path clip-path="url(#pfd6cefd831)" d="M 152.8375 426.451925 
L 165.651449 426.451925 
L 165.651449 433.146566 
L 152.8375 433.146566 
z
" style="fill:#ffffff;stroke:#cccccc;stroke-linejoin:miter;"/>
   </g>
   <g id="patch_54">
    <path clip-path="url(#pfd6cefd831)" d="M 152.8375 434.820226 
L 163.617488 434.820226 
L 163.617488 441.514868 
L 152.8375 441.514868 
z
" style="fill:#ffffff;stroke:#cccccc;stroke-linejoin:miter;"/>
   </g>
   <g id="patch_55">
    <path clip-path="url(#pfd6cefd831)" d="M 152.8375 443.188528 
L 163.414092 443.188528 
L 163.414092 449.88317 
L 152.8375 449.88317 
z
" style="fill:#ffffff;stroke:#cccccc;stroke-linejoin:miter;"/>
   </g>
   <g id="matplotlib.axis_1">
    <g id="xtick_1">
     <g id="line2d_1">
      <defs>
       <path d="M 0 0 
L 0 3.5 
" id="md7daad1f2d" style="stroke:#000000;stroke-width:0.8;"/>
      </defs>
      <g>
       <use style="stroke:#000000;stroke-width:0.8;" x="152.8375" xlink:href="#md7daad1f2d" y="450.72"/>
      </g>
     </g>
     <g id="text_1">
      <!-- 0 -->
      <g transform="translate(149.65625 465.318437)scale(0.1 -0.1)">
       <defs>
        <path d="M 31.78125 66.40625 
Q 24.171875 66.40625 20.328125 58.90625 
Q 16.5 51.421875 16.5 36.375 
Q 16.5 21.390625 20.328125 13.890625 
Q 24.171875 6.390625 31.78125 6.390625 
Q 39.453125 6.390625 43.28125 13.890625 
Q 47.125 21.390625 47.125 36.375 
Q 47.125 51.421875 43.28125 58.90625 
Q 39.453125 66.40625 31.78125 66.40625 
z
M 31.78125 74.21875 
Q 44.046875 74.21875 50.515625 64.515625 
Q 56.984375 54.828125 56.984375 36.375 
Q 56.984375 17.96875 50.515625 8.265625 
Q 44.046875 -1.421875 31.78125 -1.421875 
Q 19.53125 -1.421875 13.0625 8.265625 
Q 6.59375 17.96875 6.59375 36.375 
Q 6.59375 54.828125 13.0625 64.515625 
Q 19.53125 74.21875 31.78125 74.21875 
z
" id="DejaVuSans-48"/>
       </defs>
       <use xlink:href="#DejaVuSans-48"/>
      </g>
     </g>
    </g>
    <g id="xtick_2">
     <g id="line2d_2">
      <g>
       <use style="stroke:#000000;stroke-width:0.8;" x="254.535504" xlink:href="#md7daad1f2d" y="450.72"/>
      </g>
     </g>
     <g id="text_2">
      <!-- 1000 -->
      <g transform="translate(241.810504 465.318437)scale(0.1 -0.1)">
       <defs>
        <path d="M 12.40625 8.296875 
L 28.515625 8.296875 
L 28.515625 63.921875 
L 10.984375 60.40625 
L 10.984375 69.390625 
L 28.421875 72.90625 
L 38.28125 72.90625 
L 38.28125 8.296875 
L 54.390625 8.296875 
L 54.390625 0 
L 12.40625 0 
z
" id="DejaVuSans-49"/>
       </defs>
       <use xlink:href="#DejaVuSans-49"/>
       <use x="63.623047" xlink:href="#DejaVuSans-48"/>
       <use x="127.246094" xlink:href="#DejaVuSans-48"/>
       <use x="190.869141" xlink:href="#DejaVuSans-48"/>
      </g>
     </g>
    </g>
    <g id="xtick_3">
     <g id="line2d_3">
      <g>
       <use style="stroke:#000000;stroke-width:0.8;" x="356.233509" xlink:href="#md7daad1f2d" y="450.72"/>
      </g>
     </g>
     <g id="text_3">
      <!-- 2000 -->
      <g transform="translate(343.508509 465.318437)scale(0.1 -0.1)">
       <defs>
        <path d="M 19.1875 8.296875 
L 53.609375 8.296875 
L 53.609375 0 
L 7.328125 0 
L 7.328125 8.296875 
Q 12.9375 14.109375 22.625 23.890625 
Q 32.328125 33.6875 34.8125 36.53125 
Q 39.546875 41.84375 41.421875 45.53125 
Q 43.3125 49.21875 43.3125 52.78125 
Q 43.3125 58.59375 39.234375 62.25 
Q 35.15625 65.921875 28.609375 65.921875 
Q 23.96875 65.921875 18.8125 64.3125 
Q 13.671875 62.703125 7.8125 59.421875 
L 7.8125 69.390625 
Q 13.765625 71.78125 18.9375 73 
Q 24.125 74.21875 28.421875 74.21875 
Q 39.75 74.21875 46.484375 68.546875 
Q 53.21875 62.890625 53.21875 53.421875 
Q 53.21875 48.921875 51.53125 44.890625 
Q 49.859375 40.875 45.40625 35.40625 
Q 44.1875 33.984375 37.640625 27.21875 
Q 31.109375 20.453125 19.1875 8.296875 
z
" id="DejaVuSans-50"/>
       </defs>
       <use xlink:href="#DejaVuSans-50"/>
       <use x="63.623047" xlink:href="#DejaVuSans-48"/>
       <use x="127.246094" xlink:href="#DejaVuSans-48"/>
       <use x="190.869141" xlink:href="#DejaVuSans-48"/>
      </g>
     </g>
    </g>
    <g id="xtick_4">
     <g id="line2d_4">
      <g>
       <use style="stroke:#000000;stroke-width:0.8;" x="457.931513" xlink:href="#md7daad1f2d" y="450.72"/>
      </g>
     </g>
     <g id="text_4">
      <!-- 3000 -->
      <g transform="translate(445.206513 465.318437)scale(0.1 -0.1)">
       <defs>
        <path d="M 40.578125 39.3125 
Q 47.65625 37.796875 51.625 33 
Q 55.609375 28.21875 55.609375 21.1875 
Q 55.609375 10.40625 48.1875 4.484375 
Q 40.765625 -1.421875 27.09375 -1.421875 
Q 22.515625 -1.421875 17.65625 -0.515625 
Q 12.796875 0.390625 7.625 2.203125 
L 7.625 11.71875 
Q 11.71875 9.328125 16.59375 8.109375 
Q 21.484375 6.890625 26.8125 6.890625 
Q 36.078125 6.890625 40.9375 10.546875 
Q 45.796875 14.203125 45.796875 21.1875 
Q 45.796875 27.640625 41.28125 31.265625 
Q 36.765625 34.90625 28.71875 34.90625 
L 20.21875 34.90625 
L 20.21875 43.015625 
L 29.109375 43.015625 
Q 36.375 43.015625 40.234375 45.921875 
Q 44.09375 48.828125 44.09375 54.296875 
Q 44.09375 59.90625 40.109375 62.90625 
Q 36.140625 65.921875 28.71875 65.921875 
Q 24.65625 65.921875 20.015625 65.03125 
Q 15.375 64.15625 9.8125 62.3125 
L 9.8125 71.09375 
Q 15.4375 72.65625 20.34375 73.4375 
Q 25.25 74.21875 29.59375 74.21875 
Q 40.828125 74.21875 47.359375 69.109375 
Q 53.90625 64.015625 53.90625 55.328125 
Q 53.90625 49.265625 50.4375 45.09375 
Q 46.96875 40.921875 40.578125 39.3125 
z
" id="DejaVuSans-51"/>
       </defs>
       <use xlink:href="#DejaVuSans-51"/>
       <use x="63.623047" xlink:href="#DejaVuSans-48"/>
       <use x="127.246094" xlink:href="#DejaVuSans-48"/>
       <use x="190.869141" xlink:href="#DejaVuSans-48"/>
      </g>
     </g>
    </g>
    <g id="xtick_5">
     <g id="line2d_5">
      <g>
       <use style="stroke:#000000;stroke-width:0.8;" x="559.629517" xlink:href="#md7daad1f2d" y="450.72"/>
      </g>
     </g>
     <g id="text_5">
      <!-- 4000 -->
      <g transform="translate(546.904517 465.318437)scale(0.1 -0.1)">
       <defs>
        <path d="M 37.796875 64.3125 
L 12.890625 25.390625 
L 37.796875 25.390625 
z
M 35.203125 72.90625 
L 47.609375 72.90625 
L 47.609375 25.390625 
L 58.015625 25.390625 
L 58.015625 17.1875 
L 47.609375 17.1875 
L 47.609375 0 
L 37.796875 0 
L 37.796875 17.1875 
L 4.890625 17.1875 
L 4.890625 26.703125 
z
" id="DejaVuSans-52"/>
       </defs>
       <use xlink:href="#DejaVuSans-52"/>
       <use x="63.623047" xlink:href="#DejaVuSans-48"/>
       <use x="127.246094" xlink:href="#DejaVuSans-48"/>
       <use x="190.869141" xlink:href="#DejaVuSans-48"/>
      </g>
     </g>
    </g>
    <g id="text_6">
     <!-- Total Number of Passengers from London -->
     <g transform="translate(301.228906 478.996562)scale(0.1 -0.1)">
      <defs>
       <path d="M -0.296875 72.90625 
L 61.375 72.90625 
L 61.375 64.59375 
L 35.5 64.59375 
L 35.5 0 
L 25.59375 0 
L 25.59375 64.59375 
L -0.296875 64.59375 
z
" id="DejaVuSans-84"/>
       <path d="M 30.609375 48.390625 
Q 23.390625 48.390625 19.1875 42.75 
Q 14.984375 37.109375 14.984375 27.296875 
Q 14.984375 17.484375 19.15625 11.84375 
Q 23.34375 6.203125 30.609375 6.203125 
Q 37.796875 6.203125 41.984375 11.859375 
Q 46.1875 17.53125 46.1875 27.296875 
Q 46.1875 37.015625 41.984375 42.703125 
Q 37.796875 48.390625 30.609375 48.390625 
z
M 30.609375 56 
Q 42.328125 56 49.015625 48.375 
Q 55.71875 40.765625 55.71875 27.296875 
Q 55.71875 13.875 49.015625 6.21875 
Q 42.328125 -1.421875 30.609375 -1.421875 
Q 18.84375 -1.421875 12.171875 6.21875 
Q 5.515625 13.875 5.515625 27.296875 
Q 5.515625 40.765625 12.171875 48.375 
Q 18.84375 56 30.609375 56 
z
" id="DejaVuSans-111"/>
       <path d="M 18.3125 70.21875 
L 18.3125 54.6875 
L 36.8125 54.6875 
L 36.8125 47.703125 
L 18.3125 47.703125 
L 18.3125 18.015625 
Q 18.3125 11.328125 20.140625 9.421875 
Q 21.96875 7.515625 27.59375 7.515625 
L 36.8125 7.515625 
L 36.8125 0 
L 27.59375 0 
Q 17.1875 0 13.234375 3.875 
Q 9.28125 7.765625 9.28125 18.015625 
L 9.28125 47.703125 
L 2.6875 47.703125 
L 2.6875 54.6875 
L 9.28125 54.6875 
L 9.28125 70.21875 
z
" id="DejaVuSans-116"/>
       <path d="M 34.28125 27.484375 
Q 23.390625 27.484375 19.1875 25 
Q 14.984375 22.515625 14.984375 16.5 
Q 14.984375 11.71875 18.140625 8.90625 
Q 21.296875 6.109375 26.703125 6.109375 
Q 34.1875 6.109375 38.703125 11.40625 
Q 43.21875 16.703125 43.21875 25.484375 
L 43.21875 27.484375 
z
M 52.203125 31.203125 
L 52.203125 0 
L 43.21875 0 
L 43.21875 8.296875 
Q 40.140625 3.328125 35.546875 0.953125 
Q 30.953125 -1.421875 24.3125 -1.421875 
Q 15.921875 -1.421875 10.953125 3.296875 
Q 6 8.015625 6 15.921875 
Q 6 25.140625 12.171875 29.828125 
Q 18.359375 34.515625 30.609375 34.515625 
L 43.21875 34.515625 
L 43.21875 35.40625 
Q 43.21875 41.609375 39.140625 45 
Q 35.0625 48.390625 27.6875 48.390625 
Q 23 48.390625 18.546875 47.265625 
Q 14.109375 46.140625 10.015625 43.890625 
L 10.015625 52.203125 
Q 14.9375 54.109375 19.578125 55.046875 
Q 24.21875 56 28.609375 56 
Q 40.484375 56 46.34375 49.84375 
Q 52.203125 43.703125 52.203125 31.203125 
z
" id="DejaVuSans-97"/>
       <path d="M 9.421875 75.984375 
L 18.40625 75.984375 
L 18.40625 0 
L 9.421875 0 
z
" id="DejaVuSans-108"/>
       <path id="DejaVuSans-32"/>
       <path d="M 9.8125 72.90625 
L 23.09375 72.90625 
L 55.421875 11.921875 
L 55.421875 72.90625 
L 64.984375 72.90625 
L 64.984375 0 
L 51.703125 0 
L 19.390625 60.984375 
L 19.390625 0 
L 9.8125 0 
z
" id="DejaVuSans-78"/>
       <path d="M 8.5 21.578125 
L 8.5 54.6875 
L 17.484375 54.6875 
L 17.484375 21.921875 
Q 17.484375 14.15625 20.5 10.265625 
Q 23.53125 6.390625 29.59375 6.390625 
Q 36.859375 6.390625 41.078125 11.03125 
Q 45.3125 15.671875 45.3125 23.6875 
L 45.3125 54.6875 
L 54.296875 54.6875 
L 54.296875 0 
L 45.3125 0 
L 45.3125 8.40625 
Q 42.046875 3.421875 37.71875 1 
Q 33.40625 -1.421875 27.6875 -1.421875 
Q 18.265625 -1.421875 13.375 4.4375 
Q 8.5 10.296875 8.5 21.578125 
z
M 31.109375 56 
z
" id="DejaVuSans-117"/>
       <path d="M 52 44.1875 
Q 55.375 50.25 60.0625 53.125 
Q 64.75 56 71.09375 56 
Q 79.640625 56 84.28125 50.015625 
Q 88.921875 44.046875 88.921875 33.015625 
L 88.921875 0 
L 79.890625 0 
L 79.890625 32.71875 
Q 79.890625 40.578125 77.09375 44.375 
Q 74.3125 48.1875 68.609375 48.1875 
Q 61.625 48.1875 57.5625 43.546875 
Q 53.515625 38.921875 53.515625 30.90625 
L 53.515625 0 
L 44.484375 0 
L 44.484375 32.71875 
Q 44.484375 40.625 41.703125 44.40625 
Q 38.921875 48.1875 33.109375 48.1875 
Q 26.21875 48.1875 22.15625 43.53125 
Q 18.109375 38.875 18.109375 30.90625 
L 18.109375 0 
L 9.078125 0 
L 9.078125 54.6875 
L 18.109375 54.6875 
L 18.109375 46.1875 
Q 21.1875 51.21875 25.484375 53.609375 
Q 29.78125 56 35.6875 56 
Q 41.65625 56 45.828125 52.96875 
Q 50 49.953125 52 44.1875 
z
" id="DejaVuSans-109"/>
       <path d="M 48.6875 27.296875 
Q 48.6875 37.203125 44.609375 42.84375 
Q 40.53125 48.484375 33.40625 48.484375 
Q 26.265625 48.484375 22.1875 42.84375 
Q 18.109375 37.203125 18.109375 27.296875 
Q 18.109375 17.390625 22.1875 11.75 
Q 26.265625 6.109375 33.40625 6.109375 
Q 40.53125 6.109375 44.609375 11.75 
Q 48.6875 17.390625 48.6875 27.296875 
z
M 18.109375 46.390625 
Q 20.953125 51.265625 25.265625 53.625 
Q 29.59375 56 35.59375 56 
Q 45.5625 56 51.78125 48.09375 
Q 58.015625 40.1875 58.015625 27.296875 
Q 58.015625 14.40625 51.78125 6.484375 
Q 45.5625 -1.421875 35.59375 -1.421875 
Q 29.59375 -1.421875 25.265625 0.953125 
Q 20.953125 3.328125 18.109375 8.203125 
L 18.109375 0 
L 9.078125 0 
L 9.078125 75.984375 
L 18.109375 75.984375 
z
" id="DejaVuSans-98"/>
       <path d="M 56.203125 29.59375 
L 56.203125 25.203125 
L 14.890625 25.203125 
Q 15.484375 15.921875 20.484375 11.0625 
Q 25.484375 6.203125 34.421875 6.203125 
Q 39.59375 6.203125 44.453125 7.46875 
Q 49.3125 8.734375 54.109375 11.28125 
L 54.109375 2.78125 
Q 49.265625 0.734375 44.1875 -0.34375 
Q 39.109375 -1.421875 33.890625 -1.421875 
Q 20.796875 -1.421875 13.15625 6.1875 
Q 5.515625 13.8125 5.515625 26.8125 
Q 5.515625 40.234375 12.765625 48.109375 
Q 20.015625 56 32.328125 56 
Q 43.359375 56 49.78125 48.890625 
Q 56.203125 41.796875 56.203125 29.59375 
z
M 47.21875 32.234375 
Q 47.125 39.59375 43.09375 43.984375 
Q 39.0625 48.390625 32.421875 48.390625 
Q 24.90625 48.390625 20.390625 44.140625 
Q 15.875 39.890625 15.1875 32.171875 
z
" id="DejaVuSans-101"/>
       <path d="M 41.109375 46.296875 
Q 39.59375 47.171875 37.8125 47.578125 
Q 36.03125 48 33.890625 48 
Q 26.265625 48 22.1875 43.046875 
Q 18.109375 38.09375 18.109375 28.8125 
L 18.109375 0 
L 9.078125 0 
L 9.078125 54.6875 
L 18.109375 54.6875 
L 18.109375 46.1875 
Q 20.953125 51.171875 25.484375 53.578125 
Q 30.03125 56 36.53125 56 
Q 37.453125 56 38.578125 55.875 
Q 39.703125 55.765625 41.0625 55.515625 
z
" id="DejaVuSans-114"/>
       <path d="M 37.109375 75.984375 
L 37.109375 68.5 
L 28.515625 68.5 
Q 23.6875 68.5 21.796875 66.546875 
Q 19.921875 64.59375 19.921875 59.515625 
L 19.921875 54.6875 
L 34.71875 54.6875 
L 34.71875 47.703125 
L 19.921875 47.703125 
L 19.921875 0 
L 10.890625 0 
L 10.890625 47.703125 
L 2.296875 47.703125 
L 2.296875 54.6875 
L 10.890625 54.6875 
L 10.890625 58.5 
Q 10.890625 67.625 15.140625 71.796875 
Q 19.390625 75.984375 28.609375 75.984375 
z
" id="DejaVuSans-102"/>
       <path d="M 19.671875 64.796875 
L 19.671875 37.40625 
L 32.078125 37.40625 
Q 38.96875 37.40625 42.71875 40.96875 
Q 46.484375 44.53125 46.484375 51.125 
Q 46.484375 57.671875 42.71875 61.234375 
Q 38.96875 64.796875 32.078125 64.796875 
z
M 9.8125 72.90625 
L 32.078125 72.90625 
Q 44.34375 72.90625 50.609375 67.359375 
Q 56.890625 61.8125 56.890625 51.125 
Q 56.890625 40.328125 50.609375 34.8125 
Q 44.34375 29.296875 32.078125 29.296875 
L 19.671875 29.296875 
L 19.671875 0 
L 9.8125 0 
z
" id="DejaVuSans-80"/>
       <path d="M 44.28125 53.078125 
L 44.28125 44.578125 
Q 40.484375 46.53125 36.375 47.5 
Q 32.28125 48.484375 27.875 48.484375 
Q 21.1875 48.484375 17.84375 46.4375 
Q 14.5 44.390625 14.5 40.28125 
Q 14.5 37.15625 16.890625 35.375 
Q 19.28125 33.59375 26.515625 31.984375 
L 29.59375 31.296875 
Q 39.15625 29.25 43.1875 25.515625 
Q 47.21875 21.78125 47.21875 15.09375 
Q 47.21875 7.46875 41.1875 3.015625 
Q 35.15625 -1.421875 24.609375 -1.421875 
Q 20.21875 -1.421875 15.453125 -0.5625 
Q 10.6875 0.296875 5.421875 2 
L 5.421875 11.28125 
Q 10.40625 8.6875 15.234375 7.390625 
Q 20.0625 6.109375 24.8125 6.109375 
Q 31.15625 6.109375 34.5625 8.28125 
Q 37.984375 10.453125 37.984375 14.40625 
Q 37.984375 18.0625 35.515625 20.015625 
Q 33.0625 21.96875 24.703125 23.78125 
L 21.578125 24.515625 
Q 13.234375 26.265625 9.515625 29.90625 
Q 5.8125 33.546875 5.8125 39.890625 
Q 5.8125 47.609375 11.28125 51.796875 
Q 16.75 56 26.8125 56 
Q 31.78125 56 36.171875 55.265625 
Q 40.578125 54.546875 44.28125 53.078125 
z
" id="DejaVuSans-115"/>
       <path d="M 54.890625 33.015625 
L 54.890625 0 
L 45.90625 0 
L 45.90625 32.71875 
Q 45.90625 40.484375 42.875 44.328125 
Q 39.84375 48.1875 33.796875 48.1875 
Q 26.515625 48.1875 22.3125 43.546875 
Q 18.109375 38.921875 18.109375 30.90625 
L 18.109375 0 
L 9.078125 0 
L 9.078125 54.6875 
L 18.109375 54.6875 
L 18.109375 46.1875 
Q 21.34375 51.125 25.703125 53.5625 
Q 30.078125 56 35.796875 56 
Q 45.21875 56 50.046875 50.171875 
Q 54.890625 44.34375 54.890625 33.015625 
z
" id="DejaVuSans-110"/>
       <path d="M 45.40625 27.984375 
Q 45.40625 37.75 41.375 43.109375 
Q 37.359375 48.484375 30.078125 48.484375 
Q 22.859375 48.484375 18.828125 43.109375 
Q 14.796875 37.75 14.796875 27.984375 
Q 14.796875 18.265625 18.828125 12.890625 
Q 22.859375 7.515625 30.078125 7.515625 
Q 37.359375 7.515625 41.375 12.890625 
Q 45.40625 18.265625 45.40625 27.984375 
z
M 54.390625 6.78125 
Q 54.390625 -7.171875 48.1875 -13.984375 
Q 42 -20.796875 29.203125 -20.796875 
Q 24.46875 -20.796875 20.265625 -20.09375 
Q 16.0625 -19.390625 12.109375 -17.921875 
L 12.109375 -9.1875 
Q 16.0625 -11.328125 19.921875 -12.34375 
Q 23.78125 -13.375 27.78125 -13.375 
Q 36.625 -13.375 41.015625 -8.765625 
Q 45.40625 -4.15625 45.40625 5.171875 
L 45.40625 9.625 
Q 42.625 4.78125 38.28125 2.390625 
Q 33.9375 0 27.875 0 
Q 17.828125 0 11.671875 7.65625 
Q 5.515625 15.328125 5.515625 27.984375 
Q 5.515625 40.671875 11.671875 48.328125 
Q 17.828125 56 27.875 56 
Q 33.9375 56 38.28125 53.609375 
Q 42.625 51.21875 45.40625 46.390625 
L 45.40625 54.6875 
L 54.390625 54.6875 
z
" id="DejaVuSans-103"/>
       <path d="M 9.8125 72.90625 
L 19.671875 72.90625 
L 19.671875 8.296875 
L 55.171875 8.296875 
L 55.171875 0 
L 9.8125 0 
z
" id="DejaVuSans-76"/>
       <path d="M 45.40625 46.390625 
L 45.40625 75.984375 
L 54.390625 75.984375 
L 54.390625 0 
L 45.40625 0 
L 45.40625 8.203125 
Q 42.578125 3.328125 38.25 0.953125 
Q 33.9375 -1.421875 27.875 -1.421875 
Q 17.96875 -1.421875 11.734375 6.484375 
Q 5.515625 14.40625 5.515625 27.296875 
Q 5.515625 40.1875 11.734375 48.09375 
Q 17.96875 56 27.875 56 
Q 33.9375 56 38.25 53.625 
Q 42.578125 51.265625 45.40625 46.390625 
z
M 14.796875 27.296875 
Q 14.796875 17.390625 18.875 11.75 
Q 22.953125 6.109375 30.078125 6.109375 
Q 37.203125 6.109375 41.296875 11.75 
Q 45.40625 17.390625 45.40625 27.296875 
Q 45.40625 37.203125 41.296875 42.84375 
Q 37.203125 48.484375 30.078125 48.484375 
Q 22.953125 48.484375 18.875 42.84375 
Q 14.796875 37.203125 14.796875 27.296875 
z
" id="DejaVuSans-100"/>
      </defs>
      <use xlink:href="#DejaVuSans-84"/>
      <use x="44.083984" xlink:href="#DejaVuSans-111"/>
      <use x="105.265625" xlink:href="#DejaVuSans-116"/>
      <use x="144.474609" xlink:href="#DejaVuSans-97"/>
      <use x="205.753906" xlink:href="#DejaVuSans-108"/>
      <use x="233.537109" xlink:href="#DejaVuSans-32"/>
      <use x="265.324219" xlink:href="#DejaVuSans-78"/>
      <use x="340.128906" xlink:href="#DejaVuSans-117"/>
      <use x="403.507812" xlink:href="#DejaVuSans-109"/>
      <use x="500.919922" xlink:href="#DejaVuSans-98"/>
      <use x="564.396484" xlink:href="#DejaVuSans-101"/>
      <use x="625.919922" xlink:href="#DejaVuSans-114"/>
      <use x="667.033203" xlink:href="#DejaVuSans-32"/>
      <use x="698.820312" xlink:href="#DejaVuSans-111"/>
      <use x="760.001953" xlink:href="#DejaVuSans-102"/>
      <use x="795.207031" xlink:href="#DejaVuSans-32"/>
      <use x="826.994141" xlink:href="#DejaVuSans-80"/>
      <use x="882.796875" xlink:href="#DejaVuSans-97"/>
      <use x="944.076172" xlink:href="#DejaVuSans-115"/>
      <use x="996.175781" xlink:href="#DejaVuSans-115"/>
      <use x="1048.275391" xlink:href="#DejaVuSans-101"/>
      <use x="1109.798828" xlink:href="#DejaVuSans-110"/>
      <use x="1173.177734" xlink:href="#DejaVuSans-103"/>
      <use x="1236.654297" xlink:href="#DejaVuSans-101"/>
      <use x="1298.177734" xlink:href="#DejaVuSans-114"/>
      <use x="1339.291016" xlink:href="#DejaVuSans-115"/>
      <use x="1391.390625" xlink:href="#DejaVuSans-32"/>
      <use x="1423.177734" xlink:href="#DejaVuSans-102"/>
      <use x="1458.382812" xlink:href="#DejaVuSans-114"/>
      <use x="1497.246094" xlink:href="#DejaVuSans-111"/>
      <use x="1558.427734" xlink:href="#DejaVuSans-109"/>
      <use x="1655.839844" xlink:href="#DejaVuSans-32"/>
      <use x="1687.626953" xlink:href="#DejaVuSans-76"/>
      <use x="1741.589844" xlink:href="#DejaVuSans-111"/>
      <use x="1802.771484" xlink:href="#DejaVuSans-110"/>
      <use x="1866.150391" xlink:href="#DejaVuSans-100"/>
      <use x="1929.626953" xlink:href="#DejaVuSans-111"/>
      <use x="1990.808594" xlink:href="#DejaVuSans-110"/>
     </g>
     <!-- October -->
     <g transform="translate(383.926562 490.194375)scale(0.1 -0.1)">
      <defs>
       <path d="M 39.40625 66.21875 
Q 28.65625 66.21875 22.328125 58.203125 
Q 16.015625 50.203125 16.015625 36.375 
Q 16.015625 22.609375 22.328125 14.59375 
Q 28.65625 6.59375 39.40625 6.59375 
Q 50.140625 6.59375 56.421875 14.59375 
Q 62.703125 22.609375 62.703125 36.375 
Q 62.703125 50.203125 56.421875 58.203125 
Q 50.140625 66.21875 39.40625 66.21875 
z
M 39.40625 74.21875 
Q 54.734375 74.21875 63.90625 63.9375 
Q 73.09375 53.65625 73.09375 36.375 
Q 73.09375 19.140625 63.90625 8.859375 
Q 54.734375 -1.421875 39.40625 -1.421875 
Q 24.03125 -1.421875 14.8125 8.828125 
Q 5.609375 19.09375 5.609375 36.375 
Q 5.609375 53.65625 14.8125 63.9375 
Q 24.03125 74.21875 39.40625 74.21875 
z
" id="DejaVuSans-79"/>
       <path d="M 48.78125 52.59375 
L 48.78125 44.1875 
Q 44.96875 46.296875 41.140625 47.34375 
Q 37.3125 48.390625 33.40625 48.390625 
Q 24.65625 48.390625 19.8125 42.84375 
Q 14.984375 37.3125 14.984375 27.296875 
Q 14.984375 17.28125 19.8125 11.734375 
Q 24.65625 6.203125 33.40625 6.203125 
Q 37.3125 6.203125 41.140625 7.25 
Q 44.96875 8.296875 48.78125 10.40625 
L 48.78125 2.09375 
Q 45.015625 0.34375 40.984375 -0.53125 
Q 36.96875 -1.421875 32.421875 -1.421875 
Q 20.0625 -1.421875 12.78125 6.34375 
Q 5.515625 14.109375 5.515625 27.296875 
Q 5.515625 40.671875 12.859375 48.328125 
Q 20.21875 56 33.015625 56 
Q 37.15625 56 41.109375 55.140625 
Q 45.0625 54.296875 48.78125 52.59375 
z
" id="DejaVuSans-99"/>
      </defs>
      <use xlink:href="#DejaVuSans-79"/>
      <use x="78.710938" xlink:href="#DejaVuSans-99"/>
      <use x="133.691406" xlink:href="#DejaVuSans-116"/>
      <use x="172.900391" xlink:href="#DejaVuSans-111"/>
      <use x="234.082031" xlink:href="#DejaVuSans-98"/>
      <use x="297.558594" xlink:href="#DejaVuSans-101"/>
      <use x="359.082031" xlink:href="#DejaVuSans-114"/>
     </g>
    </g>
   </g>
   <g id="matplotlib.axis_2">
    <g id="ytick_1">
     <g id="line2d_6">
      <defs>
       <path d="M 0 0 
L -3.5 0 
" id="mf0a75bfd7b" style="stroke:#000000;stroke-width:0.8;"/>
      </defs>
      <g>
       <use style="stroke:#000000;stroke-width:0.8;" x="152.8375" xlink:href="#mf0a75bfd7b" y="11.384151"/>
      </g>
     </g>
     <g id="text_7">
      <!-- Ethiopia -->
      <g transform="translate(105.109375 15.18337)scale(0.1 -0.1)">
       <defs>
        <path d="M 9.8125 72.90625 
L 55.90625 72.90625 
L 55.90625 64.59375 
L 19.671875 64.59375 
L 19.671875 43.015625 
L 54.390625 43.015625 
L 54.390625 34.71875 
L 19.671875 34.71875 
L 19.671875 8.296875 
L 56.78125 8.296875 
L 56.78125 0 
L 9.8125 0 
z
" id="DejaVuSans-69"/>
        <path d="M 54.890625 33.015625 
L 54.890625 0 
L 45.90625 0 
L 45.90625 32.71875 
Q 45.90625 40.484375 42.875 44.328125 
Q 39.84375 48.1875 33.796875 48.1875 
Q 26.515625 48.1875 22.3125 43.546875 
Q 18.109375 38.921875 18.109375 30.90625 
L 18.109375 0 
L 9.078125 0 
L 9.078125 75.984375 
L 18.109375 75.984375 
L 18.109375 46.1875 
Q 21.34375 51.125 25.703125 53.5625 
Q 30.078125 56 35.796875 56 
Q 45.21875 56 50.046875 50.171875 
Q 54.890625 44.34375 54.890625 33.015625 
z
" id="DejaVuSans-104"/>
        <path d="M 9.421875 54.6875 
L 18.40625 54.6875 
L 18.40625 0 
L 9.421875 0 
z
M 9.421875 75.984375 
L 18.40625 75.984375 
L 18.40625 64.59375 
L 9.421875 64.59375 
z
" id="DejaVuSans-105"/>
        <path d="M 18.109375 8.203125 
L 18.109375 -20.796875 
L 9.078125 -20.796875 
L 9.078125 54.6875 
L 18.109375 54.6875 
L 18.109375 46.390625 
Q 20.953125 51.265625 25.265625 53.625 
Q 29.59375 56 35.59375 56 
Q 45.5625 56 51.78125 48.09375 
Q 58.015625 40.1875 58.015625 27.296875 
Q 58.015625 14.40625 51.78125 6.484375 
Q 45.5625 -1.421875 35.59375 -1.421875 
Q 29.59375 -1.421875 25.265625 0.953125 
Q 20.953125 3.328125 18.109375 8.203125 
z
M 48.6875 27.296875 
Q 48.6875 37.203125 44.609375 42.84375 
Q 40.53125 48.484375 33.40625 48.484375 
Q 26.265625 48.484375 22.1875 42.84375 
Q 18.109375 37.203125 18.109375 27.296875 
Q 18.109375 17.390625 22.1875 11.75 
Q 26.265625 6.109375 33.40625 6.109375 
Q 40.53125 6.109375 44.609375 11.75 
Q 48.6875 17.390625 48.6875 27.296875 
z
" id="DejaVuSans-112"/>
       </defs>
       <use xlink:href="#DejaVuSans-69"/>
       <use x="63.183594" xlink:href="#DejaVuSans-116"/>
       <use x="102.392578" xlink:href="#DejaVuSans-104"/>
       <use x="165.771484" xlink:href="#DejaVuSans-105"/>
       <use x="193.554688" xlink:href="#DejaVuSans-111"/>
       <use x="254.736328" xlink:href="#DejaVuSans-112"/>
       <use x="318.212891" xlink:href="#DejaVuSans-105"/>
       <use x="345.996094" xlink:href="#DejaVuSans-97"/>
      </g>
     </g>
    </g>
    <g id="ytick_2">
     <g id="line2d_7">
      <g>
       <use style="stroke:#000000;stroke-width:0.8;" x="152.8375" xlink:href="#mf0a75bfd7b" y="19.752453"/>
      </g>
     </g>
     <g id="text_8">
      <!-- United Arab Emirates -->
      <g transform="translate(38.8375 23.551672)scale(0.1 -0.1)">
       <defs>
        <path d="M 8.6875 72.90625 
L 18.609375 72.90625 
L 18.609375 28.609375 
Q 18.609375 16.890625 22.84375 11.734375 
Q 27.09375 6.59375 36.625 6.59375 
Q 46.09375 6.59375 50.34375 11.734375 
Q 54.59375 16.890625 54.59375 28.609375 
L 54.59375 72.90625 
L 64.5 72.90625 
L 64.5 27.390625 
Q 64.5 13.140625 57.4375 5.859375 
Q 50.390625 -1.421875 36.625 -1.421875 
Q 22.796875 -1.421875 15.734375 5.859375 
Q 8.6875 13.140625 8.6875 27.390625 
z
" id="DejaVuSans-85"/>
        <path d="M 34.1875 63.1875 
L 20.796875 26.90625 
L 47.609375 26.90625 
z
M 28.609375 72.90625 
L 39.796875 72.90625 
L 67.578125 0 
L 57.328125 0 
L 50.6875 18.703125 
L 17.828125 18.703125 
L 11.1875 0 
L 0.78125 0 
z
" id="DejaVuSans-65"/>
       </defs>
       <use xlink:href="#DejaVuSans-85"/>
       <use x="73.193359" xlink:href="#DejaVuSans-110"/>
       <use x="136.572266" xlink:href="#DejaVuSans-105"/>
       <use x="164.355469" xlink:href="#DejaVuSans-116"/>
       <use x="203.564453" xlink:href="#DejaVuSans-101"/>
       <use x="265.087891" xlink:href="#DejaVuSans-100"/>
       <use x="328.564453" xlink:href="#DejaVuSans-32"/>
       <use x="360.351562" xlink:href="#DejaVuSans-65"/>
       <use x="428.759766" xlink:href="#DejaVuSans-114"/>
       <use x="469.873047" xlink:href="#DejaVuSans-97"/>
       <use x="531.152344" xlink:href="#DejaVuSans-98"/>
       <use x="594.628906" xlink:href="#DejaVuSans-32"/>
       <use x="626.416016" xlink:href="#DejaVuSans-69"/>
       <use x="689.599609" xlink:href="#DejaVuSans-109"/>
       <use x="787.011719" xlink:href="#DejaVuSans-105"/>
       <use x="814.794922" xlink:href="#DejaVuSans-114"/>
       <use x="855.908203" xlink:href="#DejaVuSans-97"/>
       <use x="917.1875" xlink:href="#DejaVuSans-116"/>
       <use x="956.396484" xlink:href="#DejaVuSans-101"/>
       <use x="1017.919922" xlink:href="#DejaVuSans-115"/>
      </g>
     </g>
    </g>
    <g id="ytick_3">
     <g id="line2d_8">
      <g>
       <use style="stroke:#000000;stroke-width:0.8;" x="152.8375" xlink:href="#mf0a75bfd7b" y="28.120755"/>
      </g>
     </g>
     <g id="text_9">
      <!-- United Kingdom -->
      <g transform="translate(65.573438 31.919973)scale(0.1 -0.1)">
       <defs>
        <path d="M 9.8125 72.90625 
L 19.671875 72.90625 
L 19.671875 42.09375 
L 52.390625 72.90625 
L 65.09375 72.90625 
L 28.90625 38.921875 
L 67.671875 0 
L 54.6875 0 
L 19.671875 35.109375 
L 19.671875 0 
L 9.8125 0 
z
" id="DejaVuSans-75"/>
       </defs>
       <use xlink:href="#DejaVuSans-85"/>
       <use x="73.193359" xlink:href="#DejaVuSans-110"/>
       <use x="136.572266" xlink:href="#DejaVuSans-105"/>
       <use x="164.355469" xlink:href="#DejaVuSans-116"/>
       <use x="203.564453" xlink:href="#DejaVuSans-101"/>
       <use x="265.087891" xlink:href="#DejaVuSans-100"/>
       <use x="328.564453" xlink:href="#DejaVuSans-32"/>
       <use x="360.351562" xlink:href="#DejaVuSans-75"/>
       <use x="425.927734" xlink:href="#DejaVuSans-105"/>
       <use x="453.710938" xlink:href="#DejaVuSans-110"/>
       <use x="517.089844" xlink:href="#DejaVuSans-103"/>
       <use x="580.566406" xlink:href="#DejaVuSans-100"/>
       <use x="644.042969" xlink:href="#DejaVuSans-111"/>
       <use x="705.224609" xlink:href="#DejaVuSans-109"/>
      </g>
     </g>
    </g>
    <g id="ytick_4">
     <g id="line2d_9">
      <g>
       <use style="stroke:#000000;stroke-width:0.8;" x="152.8375" xlink:href="#mf0a75bfd7b" y="36.489057"/>
      </g>
     </g>
     <g id="text_10">
      <!-- Zimbabwe -->
      <g transform="translate(93.3125 40.288275)scale(0.1 -0.1)">
       <defs>
        <path d="M 5.609375 72.90625 
L 62.890625 72.90625 
L 62.890625 65.375 
L 16.796875 8.296875 
L 64.015625 8.296875 
L 64.015625 0 
L 4.5 0 
L 4.5 7.515625 
L 50.59375 64.59375 
L 5.609375 64.59375 
z
" id="DejaVuSans-90"/>
        <path d="M 4.203125 54.6875 
L 13.1875 54.6875 
L 24.421875 12.015625 
L 35.59375 54.6875 
L 46.1875 54.6875 
L 57.421875 12.015625 
L 68.609375 54.6875 
L 77.59375 54.6875 
L 63.28125 0 
L 52.6875 0 
L 40.921875 44.828125 
L 29.109375 0 
L 18.5 0 
z
" id="DejaVuSans-119"/>
       </defs>
       <use xlink:href="#DejaVuSans-90"/>
       <use x="68.505859" xlink:href="#DejaVuSans-105"/>
       <use x="96.289062" xlink:href="#DejaVuSans-109"/>
       <use x="193.701172" xlink:href="#DejaVuSans-98"/>
       <use x="257.177734" xlink:href="#DejaVuSans-97"/>
       <use x="318.457031" xlink:href="#DejaVuSans-98"/>
       <use x="381.933594" xlink:href="#DejaVuSans-119"/>
       <use x="463.720703" xlink:href="#DejaVuSans-101"/>
      </g>
     </g>
    </g>
    <g id="ytick_5">
     <g id="line2d_10">
      <g>
       <use style="stroke:#000000;stroke-width:0.8;" x="152.8375" xlink:href="#mf0a75bfd7b" y="44.857358"/>
      </g>
     </g>
     <g id="text_11">
      <!-- Zambia -->
      <g transform="translate(107.864063 48.656577)scale(0.1 -0.1)">
       <use xlink:href="#DejaVuSans-90"/>
       <use x="68.505859" xlink:href="#DejaVuSans-97"/>
       <use x="129.785156" xlink:href="#DejaVuSans-109"/>
       <use x="227.197266" xlink:href="#DejaVuSans-98"/>
       <use x="290.673828" xlink:href="#DejaVuSans-105"/>
       <use x="318.457031" xlink:href="#DejaVuSans-97"/>
      </g>
     </g>
    </g>
    <g id="ytick_6">
     <g id="line2d_11">
      <g>
       <use style="stroke:#000000;stroke-width:0.8;" x="152.8375" xlink:href="#mf0a75bfd7b" y="53.22566"/>
      </g>
     </g>
     <g id="text_12">
      <!-- United States of America -->
      <g transform="translate(20.878125 57.024879)scale(0.1 -0.1)">
       <defs>
        <path d="M 53.515625 70.515625 
L 53.515625 60.890625 
Q 47.90625 63.578125 42.921875 64.890625 
Q 37.9375 66.21875 33.296875 66.21875 
Q 25.25 66.21875 20.875 63.09375 
Q 16.5 59.96875 16.5 54.203125 
Q 16.5 49.359375 19.40625 46.890625 
Q 22.3125 44.4375 30.421875 42.921875 
L 36.375 41.703125 
Q 47.40625 39.59375 52.65625 34.296875 
Q 57.90625 29 57.90625 20.125 
Q 57.90625 9.515625 50.796875 4.046875 
Q 43.703125 -1.421875 29.984375 -1.421875 
Q 24.8125 -1.421875 18.96875 -0.25 
Q 13.140625 0.921875 6.890625 3.21875 
L 6.890625 13.375 
Q 12.890625 10.015625 18.65625 8.296875 
Q 24.421875 6.59375 29.984375 6.59375 
Q 38.421875 6.59375 43.015625 9.90625 
Q 47.609375 13.234375 47.609375 19.390625 
Q 47.609375 24.75 44.3125 27.78125 
Q 41.015625 30.8125 33.5 32.328125 
L 27.484375 33.5 
Q 16.453125 35.6875 11.515625 40.375 
Q 6.59375 45.0625 6.59375 53.421875 
Q 6.59375 63.09375 13.40625 68.65625 
Q 20.21875 74.21875 32.171875 74.21875 
Q 37.3125 74.21875 42.625 73.28125 
Q 47.953125 72.359375 53.515625 70.515625 
z
" id="DejaVuSans-83"/>
       </defs>
       <use xlink:href="#DejaVuSans-85"/>
       <use x="73.193359" xlink:href="#DejaVuSans-110"/>
       <use x="136.572266" xlink:href="#DejaVuSans-105"/>
       <use x="164.355469" xlink:href="#DejaVuSans-116"/>
       <use x="203.564453" xlink:href="#DejaVuSans-101"/>
       <use x="265.087891" xlink:href="#DejaVuSans-100"/>
       <use x="328.564453" xlink:href="#DejaVuSans-32"/>
       <use x="360.351562" xlink:href="#DejaVuSans-83"/>
       <use x="423.828125" xlink:href="#DejaVuSans-116"/>
       <use x="463.037109" xlink:href="#DejaVuSans-97"/>
       <use x="524.316406" xlink:href="#DejaVuSans-116"/>
       <use x="563.525391" xlink:href="#DejaVuSans-101"/>
       <use x="625.048828" xlink:href="#DejaVuSans-115"/>
       <use x="677.148438" xlink:href="#DejaVuSans-32"/>
       <use x="708.935547" xlink:href="#DejaVuSans-111"/>
       <use x="770.117188" xlink:href="#DejaVuSans-102"/>
       <use x="805.322266" xlink:href="#DejaVuSans-32"/>
       <use x="837.109375" xlink:href="#DejaVuSans-65"/>
       <use x="905.517578" xlink:href="#DejaVuSans-109"/>
       <use x="1002.929688" xlink:href="#DejaVuSans-101"/>
       <use x="1064.453125" xlink:href="#DejaVuSans-114"/>
       <use x="1105.566406" xlink:href="#DejaVuSans-105"/>
       <use x="1133.349609" xlink:href="#DejaVuSans-99"/>
       <use x="1188.330078" xlink:href="#DejaVuSans-97"/>
      </g>
     </g>
    </g>
    <g id="ytick_7">
     <g id="line2d_12">
      <g>
       <use style="stroke:#000000;stroke-width:0.8;" x="152.8375" xlink:href="#mf0a75bfd7b" y="61.593962"/>
      </g>
     </g>
     <g id="text_13">
      <!-- Kenya -->
      <g transform="translate(115.242188 65.393181)scale(0.1 -0.1)">
       <defs>
        <path d="M 32.171875 -5.078125 
Q 28.375 -14.84375 24.75 -17.8125 
Q 21.140625 -20.796875 15.09375 -20.796875 
L 7.90625 -20.796875 
L 7.90625 -13.28125 
L 13.1875 -13.28125 
Q 16.890625 -13.28125 18.9375 -11.515625 
Q 21 -9.765625 23.484375 -3.21875 
L 25.09375 0.875 
L 2.984375 54.6875 
L 12.5 54.6875 
L 29.59375 11.921875 
L 46.6875 54.6875 
L 56.203125 54.6875 
z
" id="DejaVuSans-121"/>
       </defs>
       <use xlink:href="#DejaVuSans-75"/>
       <use x="60.576172" xlink:href="#DejaVuSans-101"/>
       <use x="122.099609" xlink:href="#DejaVuSans-110"/>
       <use x="185.478516" xlink:href="#DejaVuSans-121"/>
       <use x="244.658203" xlink:href="#DejaVuSans-97"/>
      </g>
     </g>
    </g>
    <g id="ytick_8">
     <g id="line2d_13">
      <g>
       <use style="stroke:#000000;stroke-width:0.8;" x="152.8375" xlink:href="#mf0a75bfd7b" y="69.962264"/>
      </g>
     </g>
     <g id="text_14">
      <!-- Germany -->
      <g transform="translate(99.875 73.761483)scale(0.1 -0.1)">
       <defs>
        <path d="M 59.515625 10.40625 
L 59.515625 29.984375 
L 43.40625 29.984375 
L 43.40625 38.09375 
L 69.28125 38.09375 
L 69.28125 6.78125 
Q 63.578125 2.734375 56.6875 0.65625 
Q 49.8125 -1.421875 42 -1.421875 
Q 24.90625 -1.421875 15.25 8.5625 
Q 5.609375 18.5625 5.609375 36.375 
Q 5.609375 54.25 15.25 64.234375 
Q 24.90625 74.21875 42 74.21875 
Q 49.125 74.21875 55.546875 72.453125 
Q 61.96875 70.703125 67.390625 67.28125 
L 67.390625 56.78125 
Q 61.921875 61.421875 55.765625 63.765625 
Q 49.609375 66.109375 42.828125 66.109375 
Q 29.4375 66.109375 22.71875 58.640625 
Q 16.015625 51.171875 16.015625 36.375 
Q 16.015625 21.625 22.71875 14.15625 
Q 29.4375 6.6875 42.828125 6.6875 
Q 48.046875 6.6875 52.140625 7.59375 
Q 56.25 8.5 59.515625 10.40625 
z
" id="DejaVuSans-71"/>
       </defs>
       <use xlink:href="#DejaVuSans-71"/>
       <use x="77.490234" xlink:href="#DejaVuSans-101"/>
       <use x="139.013672" xlink:href="#DejaVuSans-114"/>
       <use x="178.376953" xlink:href="#DejaVuSans-109"/>
       <use x="275.789062" xlink:href="#DejaVuSans-97"/>
       <use x="337.068359" xlink:href="#DejaVuSans-110"/>
       <use x="400.447266" xlink:href="#DejaVuSans-121"/>
      </g>
     </g>
    </g>
    <g id="ytick_9">
     <g id="line2d_14">
      <g>
       <use style="stroke:#000000;stroke-width:0.8;" x="152.8375" xlink:href="#mf0a75bfd7b" y="78.330566"/>
      </g>
     </g>
     <g id="text_15">
      <!-- Mozambique -->
      <g transform="translate(82.007813 82.129785)scale(0.1 -0.1)">
       <defs>
        <path d="M 9.8125 72.90625 
L 24.515625 72.90625 
L 43.109375 23.296875 
L 61.8125 72.90625 
L 76.515625 72.90625 
L 76.515625 0 
L 66.890625 0 
L 66.890625 64.015625 
L 48.09375 14.015625 
L 38.1875 14.015625 
L 19.390625 64.015625 
L 19.390625 0 
L 9.8125 0 
z
" id="DejaVuSans-77"/>
        <path d="M 5.515625 54.6875 
L 48.1875 54.6875 
L 48.1875 46.484375 
L 14.40625 7.171875 
L 48.1875 7.171875 
L 48.1875 0 
L 4.296875 0 
L 4.296875 8.203125 
L 38.09375 47.515625 
L 5.515625 47.515625 
z
" id="DejaVuSans-122"/>
        <path d="M 14.796875 27.296875 
Q 14.796875 17.390625 18.875 11.75 
Q 22.953125 6.109375 30.078125 6.109375 
Q 37.203125 6.109375 41.296875 11.75 
Q 45.40625 17.390625 45.40625 27.296875 
Q 45.40625 37.203125 41.296875 42.84375 
Q 37.203125 48.484375 30.078125 48.484375 
Q 22.953125 48.484375 18.875 42.84375 
Q 14.796875 37.203125 14.796875 27.296875 
z
M 45.40625 8.203125 
Q 42.578125 3.328125 38.25 0.953125 
Q 33.9375 -1.421875 27.875 -1.421875 
Q 17.96875 -1.421875 11.734375 6.484375 
Q 5.515625 14.40625 5.515625 27.296875 
Q 5.515625 40.1875 11.734375 48.09375 
Q 17.96875 56 27.875 56 
Q 33.9375 56 38.25 53.625 
Q 42.578125 51.265625 45.40625 46.390625 
L 45.40625 54.6875 
L 54.390625 54.6875 
L 54.390625 -20.796875 
L 45.40625 -20.796875 
z
" id="DejaVuSans-113"/>
       </defs>
       <use xlink:href="#DejaVuSans-77"/>
       <use x="86.279297" xlink:href="#DejaVuSans-111"/>
       <use x="147.460938" xlink:href="#DejaVuSans-122"/>
       <use x="199.951172" xlink:href="#DejaVuSans-97"/>
       <use x="261.230469" xlink:href="#DejaVuSans-109"/>
       <use x="358.642578" xlink:href="#DejaVuSans-98"/>
       <use x="422.119141" xlink:href="#DejaVuSans-105"/>
       <use x="449.902344" xlink:href="#DejaVuSans-113"/>
       <use x="513.378906" xlink:href="#DejaVuSans-117"/>
       <use x="576.757812" xlink:href="#DejaVuSans-101"/>
      </g>
     </g>
    </g>
    <g id="ytick_10">
     <g id="line2d_15">
      <g>
       <use style="stroke:#000000;stroke-width:0.8;" x="152.8375" xlink:href="#mf0a75bfd7b" y="86.698868"/>
      </g>
     </g>
     <g id="text_16">
      <!-- China -->
      <g transform="translate(117.273438 90.498087)scale(0.1 -0.1)">
       <defs>
        <path d="M 64.40625 67.28125 
L 64.40625 56.890625 
Q 59.421875 61.53125 53.78125 63.8125 
Q 48.140625 66.109375 41.796875 66.109375 
Q 29.296875 66.109375 22.65625 58.46875 
Q 16.015625 50.828125 16.015625 36.375 
Q 16.015625 21.96875 22.65625 14.328125 
Q 29.296875 6.6875 41.796875 6.6875 
Q 48.140625 6.6875 53.78125 8.984375 
Q 59.421875 11.28125 64.40625 15.921875 
L 64.40625 5.609375 
Q 59.234375 2.09375 53.4375 0.328125 
Q 47.65625 -1.421875 41.21875 -1.421875 
Q 24.65625 -1.421875 15.125 8.703125 
Q 5.609375 18.84375 5.609375 36.375 
Q 5.609375 53.953125 15.125 64.078125 
Q 24.65625 74.21875 41.21875 74.21875 
Q 47.75 74.21875 53.53125 72.484375 
Q 59.328125 70.75 64.40625 67.28125 
z
" id="DejaVuSans-67"/>
       </defs>
       <use xlink:href="#DejaVuSans-67"/>
       <use x="69.824219" xlink:href="#DejaVuSans-104"/>
       <use x="133.203125" xlink:href="#DejaVuSans-105"/>
       <use x="160.986328" xlink:href="#DejaVuSans-110"/>
       <use x="224.365234" xlink:href="#DejaVuSans-97"/>
      </g>
     </g>
    </g>
    <g id="ytick_11">
     <g id="line2d_16">
      <g>
       <use style="stroke:#000000;stroke-width:0.8;" x="152.8375" xlink:href="#mf0a75bfd7b" y="95.06717"/>
      </g>
     </g>
     <g id="text_17">
      <!-- Netherlands -->
      <g transform="translate(84.879688 98.866389)scale(0.1 -0.1)">
       <use xlink:href="#DejaVuSans-78"/>
       <use x="74.804688" xlink:href="#DejaVuSans-101"/>
       <use x="136.328125" xlink:href="#DejaVuSans-116"/>
       <use x="175.537109" xlink:href="#DejaVuSans-104"/>
       <use x="238.916016" xlink:href="#DejaVuSans-101"/>
       <use x="300.439453" xlink:href="#DejaVuSans-114"/>
       <use x="341.552734" xlink:href="#DejaVuSans-108"/>
       <use x="369.335938" xlink:href="#DejaVuSans-97"/>
       <use x="430.615234" xlink:href="#DejaVuSans-110"/>
       <use x="493.994141" xlink:href="#DejaVuSans-100"/>
       <use x="557.470703" xlink:href="#DejaVuSans-115"/>
      </g>
     </g>
    </g>
    <g id="ytick_12">
     <g id="line2d_17">
      <g>
       <use style="stroke:#000000;stroke-width:0.8;" x="152.8375" xlink:href="#mf0a75bfd7b" y="103.435472"/>
      </g>
     </g>
     <g id="text_18">
      <!-- Philippines -->
      <g transform="translate(91.960938 107.23469)scale(0.1 -0.1)">
       <use xlink:href="#DejaVuSans-80"/>
       <use x="60.302734" xlink:href="#DejaVuSans-104"/>
       <use x="123.681641" xlink:href="#DejaVuSans-105"/>
       <use x="151.464844" xlink:href="#DejaVuSans-108"/>
       <use x="179.248047" xlink:href="#DejaVuSans-105"/>
       <use x="207.03125" xlink:href="#DejaVuSans-112"/>
       <use x="270.507812" xlink:href="#DejaVuSans-112"/>
       <use x="333.984375" xlink:href="#DejaVuSans-105"/>
       <use x="361.767578" xlink:href="#DejaVuSans-110"/>
       <use x="425.146484" xlink:href="#DejaVuSans-101"/>
       <use x="486.669922" xlink:href="#DejaVuSans-115"/>
      </g>
     </g>
    </g>
    <g id="ytick_13">
     <g id="line2d_18">
      <g>
       <use style="stroke:#000000;stroke-width:0.8;" x="152.8375" xlink:href="#mf0a75bfd7b" y="111.803774"/>
      </g>
     </g>
     <g id="text_19">
      <!-- France -->
      <g transform="translate(112.582813 115.602992)scale(0.1 -0.1)">
       <defs>
        <path d="M 9.8125 72.90625 
L 51.703125 72.90625 
L 51.703125 64.59375 
L 19.671875 64.59375 
L 19.671875 43.109375 
L 48.578125 43.109375 
L 48.578125 34.8125 
L 19.671875 34.8125 
L 19.671875 0 
L 9.8125 0 
z
" id="DejaVuSans-70"/>
       </defs>
       <use xlink:href="#DejaVuSans-70"/>
       <use x="50.269531" xlink:href="#DejaVuSans-114"/>
       <use x="91.382812" xlink:href="#DejaVuSans-97"/>
       <use x="152.662109" xlink:href="#DejaVuSans-110"/>
       <use x="216.041016" xlink:href="#DejaVuSans-99"/>
       <use x="271.021484" xlink:href="#DejaVuSans-101"/>
      </g>
     </g>
    </g>
    <g id="ytick_14">
     <g id="line2d_19">
      <g>
       <use style="stroke:#000000;stroke-width:0.8;" x="152.8375" xlink:href="#mf0a75bfd7b" y="120.172075"/>
      </g>
     </g>
     <g id="text_20">
      <!-- Turkey -->
      <g transform="translate(113.29375 123.971294)scale(0.1 -0.1)">
       <defs>
        <path d="M 9.078125 75.984375 
L 18.109375 75.984375 
L 18.109375 31.109375 
L 44.921875 54.6875 
L 56.390625 54.6875 
L 27.390625 29.109375 
L 57.625 0 
L 45.90625 0 
L 18.109375 26.703125 
L 18.109375 0 
L 9.078125 0 
z
" id="DejaVuSans-107"/>
       </defs>
       <use xlink:href="#DejaVuSans-84"/>
       <use x="45.958984" xlink:href="#DejaVuSans-117"/>
       <use x="109.337891" xlink:href="#DejaVuSans-114"/>
       <use x="150.451172" xlink:href="#DejaVuSans-107"/>
       <use x="204.736328" xlink:href="#DejaVuSans-101"/>
       <use x="266.259766" xlink:href="#DejaVuSans-121"/>
      </g>
     </g>
    </g>
    <g id="ytick_15">
     <g id="line2d_20">
      <g>
       <use style="stroke:#000000;stroke-width:0.8;" x="152.8375" xlink:href="#mf0a75bfd7b" y="128.540377"/>
      </g>
     </g>
     <g id="text_21">
      <!-- Qatar -->
      <g transform="translate(117.678125 132.339596)scale(0.1 -0.1)">
       <defs>
        <path d="M 39.40625 66.21875 
Q 28.65625 66.21875 22.328125 58.203125 
Q 16.015625 50.203125 16.015625 36.375 
Q 16.015625 22.609375 22.328125 14.59375 
Q 28.65625 6.59375 39.40625 6.59375 
Q 50.140625 6.59375 56.421875 14.59375 
Q 62.703125 22.609375 62.703125 36.375 
Q 62.703125 50.203125 56.421875 58.203125 
Q 50.140625 66.21875 39.40625 66.21875 
z
M 53.21875 1.3125 
L 66.21875 -12.890625 
L 54.296875 -12.890625 
L 43.5 -1.21875 
Q 41.890625 -1.3125 41.03125 -1.359375 
Q 40.1875 -1.421875 39.40625 -1.421875 
Q 24.03125 -1.421875 14.8125 8.859375 
Q 5.609375 19.140625 5.609375 36.375 
Q 5.609375 53.65625 14.8125 63.9375 
Q 24.03125 74.21875 39.40625 74.21875 
Q 54.734375 74.21875 63.90625 63.9375 
Q 73.09375 53.65625 73.09375 36.375 
Q 73.09375 23.6875 67.984375 14.640625 
Q 62.890625 5.609375 53.21875 1.3125 
z
" id="DejaVuSans-81"/>
       </defs>
       <use xlink:href="#DejaVuSans-81"/>
       <use x="78.710938" xlink:href="#DejaVuSans-97"/>
       <use x="139.990234" xlink:href="#DejaVuSans-116"/>
       <use x="179.199219" xlink:href="#DejaVuSans-97"/>
       <use x="240.478516" xlink:href="#DejaVuSans-114"/>
      </g>
     </g>
    </g>
    <g id="ytick_16">
     <g id="line2d_21">
      <g>
       <use style="stroke:#000000;stroke-width:0.8;" x="152.8375" xlink:href="#mf0a75bfd7b" y="136.908679"/>
      </g>
     </g>
     <g id="text_22">
      <!-- Pakistan -->
      <g transform="translate(103.965625 140.707898)scale(0.1 -0.1)">
       <use xlink:href="#DejaVuSans-80"/>
       <use x="55.802734" xlink:href="#DejaVuSans-97"/>
       <use x="117.082031" xlink:href="#DejaVuSans-107"/>
       <use x="174.992188" xlink:href="#DejaVuSans-105"/>
       <use x="202.775391" xlink:href="#DejaVuSans-115"/>
       <use x="254.875" xlink:href="#DejaVuSans-116"/>
       <use x="294.083984" xlink:href="#DejaVuSans-97"/>
       <use x="355.363281" xlink:href="#DejaVuSans-110"/>
      </g>
     </g>
    </g>
    <g id="ytick_17">
     <g id="line2d_22">
      <g>
       <use style="stroke:#000000;stroke-width:0.8;" x="152.8375" xlink:href="#mf0a75bfd7b" y="145.276981"/>
      </g>
     </g>
     <g id="text_23">
      <!-- Tanzania -->
      <g transform="translate(102.29375 149.0762)scale(0.1 -0.1)">
       <use xlink:href="#DejaVuSans-84"/>
       <use x="44.583984" xlink:href="#DejaVuSans-97"/>
       <use x="105.863281" xlink:href="#DejaVuSans-110"/>
       <use x="169.242188" xlink:href="#DejaVuSans-122"/>
       <use x="221.732422" xlink:href="#DejaVuSans-97"/>
       <use x="283.011719" xlink:href="#DejaVuSans-110"/>
       <use x="346.390625" xlink:href="#DejaVuSans-105"/>
       <use x="374.173828" xlink:href="#DejaVuSans-97"/>
      </g>
     </g>
    </g>
    <g id="ytick_18">
     <g id="line2d_23">
      <g>
       <use style="stroke:#000000;stroke-width:0.8;" x="152.8375" xlink:href="#mf0a75bfd7b" y="153.645283"/>
      </g>
     </g>
     <g id="text_24">
      <!-- Canada -->
      <g transform="translate(107.784375 157.444502)scale(0.1 -0.1)">
       <use xlink:href="#DejaVuSans-67"/>
       <use x="69.824219" xlink:href="#DejaVuSans-97"/>
       <use x="131.103516" xlink:href="#DejaVuSans-110"/>
       <use x="194.482422" xlink:href="#DejaVuSans-97"/>
       <use x="255.761719" xlink:href="#DejaVuSans-100"/>
       <use x="319.238281" xlink:href="#DejaVuSans-97"/>
      </g>
     </g>
    </g>
    <g id="ytick_19">
     <g id="line2d_24">
      <g>
       <use style="stroke:#000000;stroke-width:0.8;" x="152.8375" xlink:href="#mf0a75bfd7b" y="162.013585"/>
      </g>
     </g>
     <g id="text_25">
      <!-- Belgium -->
      <g transform="translate(104.840625 165.812804)scale(0.1 -0.1)">
       <defs>
        <path d="M 19.671875 34.8125 
L 19.671875 8.109375 
L 35.5 8.109375 
Q 43.453125 8.109375 47.28125 11.40625 
Q 51.125 14.703125 51.125 21.484375 
Q 51.125 28.328125 47.28125 31.5625 
Q 43.453125 34.8125 35.5 34.8125 
z
M 19.671875 64.796875 
L 19.671875 42.828125 
L 34.28125 42.828125 
Q 41.5 42.828125 45.03125 45.53125 
Q 48.578125 48.25 48.578125 53.8125 
Q 48.578125 59.328125 45.03125 62.0625 
Q 41.5 64.796875 34.28125 64.796875 
z
M 9.8125 72.90625 
L 35.015625 72.90625 
Q 46.296875 72.90625 52.390625 68.21875 
Q 58.5 63.53125 58.5 54.890625 
Q 58.5 48.1875 55.375 44.234375 
Q 52.25 40.28125 46.1875 39.3125 
Q 53.46875 37.75 57.5 32.78125 
Q 61.53125 27.828125 61.53125 20.40625 
Q 61.53125 10.640625 54.890625 5.3125 
Q 48.25 0 35.984375 0 
L 9.8125 0 
z
" id="DejaVuSans-66"/>
       </defs>
       <use xlink:href="#DejaVuSans-66"/>
       <use x="68.603516" xlink:href="#DejaVuSans-101"/>
       <use x="130.126953" xlink:href="#DejaVuSans-108"/>
       <use x="157.910156" xlink:href="#DejaVuSans-103"/>
       <use x="221.386719" xlink:href="#DejaVuSans-105"/>
       <use x="249.169922" xlink:href="#DejaVuSans-117"/>
       <use x="312.548828" xlink:href="#DejaVuSans-109"/>
      </g>
     </g>
    </g>
    <g id="ytick_20">
     <g id="line2d_25">
      <g>
       <use style="stroke:#000000;stroke-width:0.8;" x="152.8375" xlink:href="#mf0a75bfd7b" y="170.381887"/>
      </g>
     </g>
     <g id="text_26">
      <!-- Egypt -->
      <g transform="translate(116.982813 174.181106)scale(0.1 -0.1)">
       <use xlink:href="#DejaVuSans-69"/>
       <use x="63.183594" xlink:href="#DejaVuSans-103"/>
       <use x="126.660156" xlink:href="#DejaVuSans-121"/>
       <use x="185.839844" xlink:href="#DejaVuSans-112"/>
       <use x="249.316406" xlink:href="#DejaVuSans-116"/>
      </g>
     </g>
    </g>
    <g id="ytick_21">
     <g id="line2d_26">
      <g>
       <use style="stroke:#000000;stroke-width:0.8;" x="152.8375" xlink:href="#mf0a75bfd7b" y="178.750189"/>
      </g>
     </g>
     <g id="text_27">
      <!-- Namibia -->
      <g transform="translate(104.454688 182.549407)scale(0.1 -0.1)">
       <use xlink:href="#DejaVuSans-78"/>
       <use x="74.804688" xlink:href="#DejaVuSans-97"/>
       <use x="136.083984" xlink:href="#DejaVuSans-109"/>
       <use x="233.496094" xlink:href="#DejaVuSans-105"/>
       <use x="261.279297" xlink:href="#DejaVuSans-98"/>
       <use x="324.755859" xlink:href="#DejaVuSans-105"/>
       <use x="352.539062" xlink:href="#DejaVuSans-97"/>
      </g>
     </g>
    </g>
    <g id="ytick_22">
     <g id="line2d_27">
      <g>
       <use style="stroke:#000000;stroke-width:0.8;" x="152.8375" xlink:href="#mf0a75bfd7b" y="187.118491"/>
      </g>
     </g>
     <g id="text_28">
      <!-- Israel -->
      <g transform="translate(118.507813 190.917709)scale(0.1 -0.1)">
       <defs>
        <path d="M 9.8125 72.90625 
L 19.671875 72.90625 
L 19.671875 0 
L 9.8125 0 
z
" id="DejaVuSans-73"/>
       </defs>
       <use xlink:href="#DejaVuSans-73"/>
       <use x="29.492188" xlink:href="#DejaVuSans-115"/>
       <use x="81.591797" xlink:href="#DejaVuSans-114"/>
       <use x="122.705078" xlink:href="#DejaVuSans-97"/>
       <use x="183.984375" xlink:href="#DejaVuSans-101"/>
       <use x="245.507812" xlink:href="#DejaVuSans-108"/>
      </g>
     </g>
    </g>
    <g id="ytick_23">
     <g id="line2d_28">
      <g>
       <use style="stroke:#000000;stroke-width:0.8;" x="152.8375" xlink:href="#mf0a75bfd7b" y="195.486792"/>
      </g>
     </g>
     <g id="text_29">
      <!-- Botswana -->
      <g transform="translate(96.95625 199.286011)scale(0.1 -0.1)">
       <use xlink:href="#DejaVuSans-66"/>
       <use x="68.603516" xlink:href="#DejaVuSans-111"/>
       <use x="129.785156" xlink:href="#DejaVuSans-116"/>
       <use x="168.994141" xlink:href="#DejaVuSans-115"/>
       <use x="221.09375" xlink:href="#DejaVuSans-119"/>
       <use x="302.880859" xlink:href="#DejaVuSans-97"/>
       <use x="364.160156" xlink:href="#DejaVuSans-110"/>
       <use x="427.539062" xlink:href="#DejaVuSans-97"/>
      </g>
     </g>
    </g>
    <g id="ytick_24">
     <g id="line2d_29">
      <g>
       <use style="stroke:#000000;stroke-width:0.8;" x="152.8375" xlink:href="#mf0a75bfd7b" y="203.855094"/>
      </g>
     </g>
     <g id="text_30">
      <!-- Malawi -->
      <g transform="translate(111.21875 207.654313)scale(0.1 -0.1)">
       <use xlink:href="#DejaVuSans-77"/>
       <use x="86.279297" xlink:href="#DejaVuSans-97"/>
       <use x="147.558594" xlink:href="#DejaVuSans-108"/>
       <use x="175.341797" xlink:href="#DejaVuSans-97"/>
       <use x="236.621094" xlink:href="#DejaVuSans-119"/>
       <use x="318.408203" xlink:href="#DejaVuSans-105"/>
      </g>
     </g>
    </g>
    <g id="ytick_25">
     <g id="line2d_30">
      <g>
       <use style="stroke:#000000;stroke-width:0.8;" x="152.8375" xlink:href="#mf0a75bfd7b" y="212.223396"/>
      </g>
     </g>
     <g id="text_31">
      <!-- Switzerland -->
      <g transform="translate(87.507813 216.022615)scale(0.1 -0.1)">
       <use xlink:href="#DejaVuSans-83"/>
       <use x="63.476562" xlink:href="#DejaVuSans-119"/>
       <use x="145.263672" xlink:href="#DejaVuSans-105"/>
       <use x="173.046875" xlink:href="#DejaVuSans-116"/>
       <use x="212.255859" xlink:href="#DejaVuSans-122"/>
       <use x="264.746094" xlink:href="#DejaVuSans-101"/>
       <use x="326.269531" xlink:href="#DejaVuSans-114"/>
       <use x="367.382812" xlink:href="#DejaVuSans-108"/>
       <use x="395.166016" xlink:href="#DejaVuSans-97"/>
       <use x="456.445312" xlink:href="#DejaVuSans-110"/>
       <use x="519.824219" xlink:href="#DejaVuSans-100"/>
      </g>
     </g>
    </g>
    <g id="ytick_26">
     <g id="line2d_31">
      <g>
       <use style="stroke:#000000;stroke-width:0.8;" x="152.8375" xlink:href="#mf0a75bfd7b" y="220.591698"/>
      </g>
     </g>
     <g id="text_32">
      <!-- Italy -->
      <g transform="translate(124.142188 224.390917)scale(0.1 -0.1)">
       <use xlink:href="#DejaVuSans-73"/>
       <use x="29.492188" xlink:href="#DejaVuSans-116"/>
       <use x="68.701172" xlink:href="#DejaVuSans-97"/>
       <use x="129.980469" xlink:href="#DejaVuSans-108"/>
       <use x="157.763672" xlink:href="#DejaVuSans-121"/>
      </g>
     </g>
    </g>
    <g id="ytick_27">
     <g id="line2d_32">
      <g>
       <use style="stroke:#000000;stroke-width:0.8;" x="152.8375" xlink:href="#mf0a75bfd7b" y="228.96"/>
      </g>
     </g>
     <g id="text_33">
      <!-- India -->
      <g transform="translate(121.295313 232.759219)scale(0.1 -0.1)">
       <use xlink:href="#DejaVuSans-73"/>
       <use x="29.492188" xlink:href="#DejaVuSans-110"/>
       <use x="92.871094" xlink:href="#DejaVuSans-100"/>
       <use x="156.347656" xlink:href="#DejaVuSans-105"/>
       <use x="184.130859" xlink:href="#DejaVuSans-97"/>
      </g>
     </g>
    </g>
    <g id="ytick_28">
     <g id="line2d_33">
      <g>
       <use style="stroke:#000000;stroke-width:0.8;" x="152.8375" xlink:href="#mf0a75bfd7b" y="237.328302"/>
      </g>
     </g>
     <g id="text_34">
      <!-- Portugal -->
      <g transform="translate(104.428125 241.127521)scale(0.1 -0.1)">
       <use xlink:href="#DejaVuSans-80"/>
       <use x="56.677734" xlink:href="#DejaVuSans-111"/>
       <use x="117.859375" xlink:href="#DejaVuSans-114"/>
       <use x="158.972656" xlink:href="#DejaVuSans-116"/>
       <use x="198.181641" xlink:href="#DejaVuSans-117"/>
       <use x="261.560547" xlink:href="#DejaVuSans-103"/>
       <use x="325.037109" xlink:href="#DejaVuSans-97"/>
       <use x="386.316406" xlink:href="#DejaVuSans-108"/>
      </g>
     </g>
    </g>
    <g id="ytick_29">
     <g id="line2d_34">
      <g>
       <use style="stroke:#000000;stroke-width:0.8;" x="152.8375" xlink:href="#mf0a75bfd7b" y="245.696604"/>
      </g>
     </g>
     <g id="text_35">
      <!-- Ireland -->
      <g transform="translate(111.25625 249.495823)scale(0.1 -0.1)">
       <use xlink:href="#DejaVuSans-73"/>
       <use x="29.492188" xlink:href="#DejaVuSans-114"/>
       <use x="68.355469" xlink:href="#DejaVuSans-101"/>
       <use x="129.878906" xlink:href="#DejaVuSans-108"/>
       <use x="157.662109" xlink:href="#DejaVuSans-97"/>
       <use x="218.941406" xlink:href="#DejaVuSans-110"/>
       <use x="282.320312" xlink:href="#DejaVuSans-100"/>
      </g>
     </g>
    </g>
    <g id="ytick_30">
     <g id="line2d_35">
      <g>
       <use style="stroke:#000000;stroke-width:0.8;" x="152.8375" xlink:href="#mf0a75bfd7b" y="254.064906"/>
      </g>
     </g>
     <g id="text_36">
      <!-- Saudi Arabia -->
      <g transform="translate(82.384375 257.864124)scale(0.1 -0.1)">
       <use xlink:href="#DejaVuSans-83"/>
       <use x="63.476562" xlink:href="#DejaVuSans-97"/>
       <use x="124.755859" xlink:href="#DejaVuSans-117"/>
       <use x="188.134766" xlink:href="#DejaVuSans-100"/>
       <use x="251.611328" xlink:href="#DejaVuSans-105"/>
       <use x="279.394531" xlink:href="#DejaVuSans-32"/>
       <use x="311.181641" xlink:href="#DejaVuSans-65"/>
       <use x="379.589844" xlink:href="#DejaVuSans-114"/>
       <use x="420.703125" xlink:href="#DejaVuSans-97"/>
       <use x="481.982422" xlink:href="#DejaVuSans-98"/>
       <use x="545.458984" xlink:href="#DejaVuSans-105"/>
       <use x="573.242188" xlink:href="#DejaVuSans-97"/>
      </g>
     </g>
    </g>
    <g id="ytick_31">
     <g id="line2d_36">
      <g>
       <use style="stroke:#000000;stroke-width:0.8;" x="152.8375" xlink:href="#mf0a75bfd7b" y="262.433208"/>
      </g>
     </g>
     <g id="text_37">
      <!-- Malaysia -->
      <g transform="translate(102.140625 266.232426)scale(0.1 -0.1)">
       <use xlink:href="#DejaVuSans-77"/>
       <use x="86.279297" xlink:href="#DejaVuSans-97"/>
       <use x="147.558594" xlink:href="#DejaVuSans-108"/>
       <use x="175.341797" xlink:href="#DejaVuSans-97"/>
       <use x="236.621094" xlink:href="#DejaVuSans-121"/>
       <use x="295.800781" xlink:href="#DejaVuSans-115"/>
       <use x="347.900391" xlink:href="#DejaVuSans-105"/>
       <use x="375.683594" xlink:href="#DejaVuSans-97"/>
      </g>
     </g>
    </g>
    <g id="ytick_32">
     <g id="line2d_37">
      <g>
       <use style="stroke:#000000;stroke-width:0.8;" x="152.8375" xlink:href="#mf0a75bfd7b" y="270.801509"/>
      </g>
     </g>
     <g id="text_38">
      <!-- Greece -->
      <g transform="translate(110.245313 274.600728)scale(0.1 -0.1)">
       <use xlink:href="#DejaVuSans-71"/>
       <use x="77.490234" xlink:href="#DejaVuSans-114"/>
       <use x="116.353516" xlink:href="#DejaVuSans-101"/>
       <use x="177.876953" xlink:href="#DejaVuSans-101"/>
       <use x="239.400391" xlink:href="#DejaVuSans-99"/>
       <use x="294.380859" xlink:href="#DejaVuSans-101"/>
      </g>
     </g>
    </g>
    <g id="ytick_33">
     <g id="line2d_38">
      <g>
       <use style="stroke:#000000;stroke-width:0.8;" x="152.8375" xlink:href="#mf0a75bfd7b" y="279.169811"/>
      </g>
     </g>
     <g id="text_39">
      <!-- Swaziland -->
      <g transform="translate(95.564063 282.96903)scale(0.1 -0.1)">
       <use xlink:href="#DejaVuSans-83"/>
       <use x="63.476562" xlink:href="#DejaVuSans-119"/>
       <use x="145.263672" xlink:href="#DejaVuSans-97"/>
       <use x="206.542969" xlink:href="#DejaVuSans-122"/>
       <use x="259.033203" xlink:href="#DejaVuSans-105"/>
       <use x="286.816406" xlink:href="#DejaVuSans-108"/>
       <use x="314.599609" xlink:href="#DejaVuSans-97"/>
       <use x="375.878906" xlink:href="#DejaVuSans-110"/>
       <use x="439.257812" xlink:href="#DejaVuSans-100"/>
      </g>
     </g>
    </g>
    <g id="ytick_34">
     <g id="line2d_39">
      <g>
       <use style="stroke:#000000;stroke-width:0.8;" x="152.8375" xlink:href="#mf0a75bfd7b" y="287.538113"/>
      </g>
     </g>
     <g id="text_40">
      <!-- Austria -->
      <g transform="translate(110.5125 291.337332)scale(0.1 -0.1)">
       <use xlink:href="#DejaVuSans-65"/>
       <use x="68.408203" xlink:href="#DejaVuSans-117"/>
       <use x="131.787109" xlink:href="#DejaVuSans-115"/>
       <use x="183.886719" xlink:href="#DejaVuSans-116"/>
       <use x="223.095703" xlink:href="#DejaVuSans-114"/>
       <use x="264.208984" xlink:href="#DejaVuSans-105"/>
       <use x="291.992188" xlink:href="#DejaVuSans-97"/>
      </g>
     </g>
    </g>
    <g id="ytick_35">
     <g id="line2d_40">
      <g>
       <use style="stroke:#000000;stroke-width:0.8;" x="152.8375" xlink:href="#mf0a75bfd7b" y="295.906415"/>
      </g>
     </g>
     <g id="text_41">
      <!-- Bangladesh -->
      <g transform="translate(87.207813 299.705634)scale(0.1 -0.1)">
       <use xlink:href="#DejaVuSans-66"/>
       <use x="68.603516" xlink:href="#DejaVuSans-97"/>
       <use x="129.882812" xlink:href="#DejaVuSans-110"/>
       <use x="193.261719" xlink:href="#DejaVuSans-103"/>
       <use x="256.738281" xlink:href="#DejaVuSans-108"/>
       <use x="284.521484" xlink:href="#DejaVuSans-97"/>
       <use x="345.800781" xlink:href="#DejaVuSans-100"/>
       <use x="409.277344" xlink:href="#DejaVuSans-101"/>
       <use x="470.800781" xlink:href="#DejaVuSans-115"/>
       <use x="522.900391" xlink:href="#DejaVuSans-104"/>
      </g>
     </g>
    </g>
    <g id="ytick_36">
     <g id="line2d_41">
      <g>
       <use style="stroke:#000000;stroke-width:0.8;" x="152.8375" xlink:href="#mf0a75bfd7b" y="304.274717"/>
      </g>
     </g>
     <g id="text_42">
      <!-- Ghana -->
      <g transform="translate(113.157813 308.073936)scale(0.1 -0.1)">
       <use xlink:href="#DejaVuSans-71"/>
       <use x="77.490234" xlink:href="#DejaVuSans-104"/>
       <use x="140.869141" xlink:href="#DejaVuSans-97"/>
       <use x="202.148438" xlink:href="#DejaVuSans-110"/>
       <use x="265.527344" xlink:href="#DejaVuSans-97"/>
      </g>
     </g>
    </g>
    <g id="ytick_37">
     <g id="line2d_42">
      <g>
       <use style="stroke:#000000;stroke-width:0.8;" x="152.8375" xlink:href="#mf0a75bfd7b" y="312.643019"/>
      </g>
     </g>
     <g id="text_43">
      <!-- Indonesia -->
      <g transform="translate(97.476563 316.442238)scale(0.1 -0.1)">
       <use xlink:href="#DejaVuSans-73"/>
       <use x="29.492188" xlink:href="#DejaVuSans-110"/>
       <use x="92.871094" xlink:href="#DejaVuSans-100"/>
       <use x="156.347656" xlink:href="#DejaVuSans-111"/>
       <use x="217.529297" xlink:href="#DejaVuSans-110"/>
       <use x="280.908203" xlink:href="#DejaVuSans-101"/>
       <use x="342.431641" xlink:href="#DejaVuSans-115"/>
       <use x="394.53125" xlink:href="#DejaVuSans-105"/>
       <use x="422.314453" xlink:href="#DejaVuSans-97"/>
      </g>
     </g>
    </g>
    <g id="ytick_38">
     <g id="line2d_43">
      <g>
       <use style="stroke:#000000;stroke-width:0.8;" x="152.8375" xlink:href="#mf0a75bfd7b" y="321.011321"/>
      </g>
     </g>
     <g id="text_44">
      <!-- Ukraine -->
      <g transform="translate(107.220313 324.81054)scale(0.1 -0.1)">
       <use xlink:href="#DejaVuSans-85"/>
       <use x="73.193359" xlink:href="#DejaVuSans-107"/>
       <use x="131.103516" xlink:href="#DejaVuSans-114"/>
       <use x="172.216797" xlink:href="#DejaVuSans-97"/>
       <use x="233.496094" xlink:href="#DejaVuSans-105"/>
       <use x="261.279297" xlink:href="#DejaVuSans-110"/>
       <use x="324.658203" xlink:href="#DejaVuSans-101"/>
      </g>
     </g>
    </g>
    <g id="ytick_39">
     <g id="line2d_44">
      <g>
       <use style="stroke:#000000;stroke-width:0.8;" x="152.8375" xlink:href="#mf0a75bfd7b" y="329.379623"/>
      </g>
     </g>
     <g id="text_45">
      <!-- Nigeria -->
      <g transform="translate(110.059375 333.178841)scale(0.1 -0.1)">
       <use xlink:href="#DejaVuSans-78"/>
       <use x="74.804688" xlink:href="#DejaVuSans-105"/>
       <use x="102.587891" xlink:href="#DejaVuSans-103"/>
       <use x="166.064453" xlink:href="#DejaVuSans-101"/>
       <use x="227.587891" xlink:href="#DejaVuSans-114"/>
       <use x="268.701172" xlink:href="#DejaVuSans-105"/>
       <use x="296.484375" xlink:href="#DejaVuSans-97"/>
      </g>
     </g>
    </g>
    <g id="ytick_40">
     <g id="line2d_45">
      <g>
       <use style="stroke:#000000;stroke-width:0.8;" x="152.8375" xlink:href="#mf0a75bfd7b" y="337.747925"/>
      </g>
     </g>
     <g id="text_46">
      <!-- Spain -->
      <g transform="translate(117.896875 341.547143)scale(0.1 -0.1)">
       <use xlink:href="#DejaVuSans-83"/>
       <use x="63.476562" xlink:href="#DejaVuSans-112"/>
       <use x="126.953125" xlink:href="#DejaVuSans-97"/>
       <use x="188.232422" xlink:href="#DejaVuSans-105"/>
       <use x="216.015625" xlink:href="#DejaVuSans-110"/>
      </g>
     </g>
    </g>
    <g id="ytick_41">
     <g id="line2d_46">
      <g>
       <use style="stroke:#000000;stroke-width:0.8;" x="152.8375" xlink:href="#mf0a75bfd7b" y="346.116226"/>
      </g>
     </g>
     <g id="text_47">
      <!-- Denmark -->
      <g transform="translate(99.876563 349.915445)scale(0.1 -0.1)">
       <defs>
        <path d="M 19.671875 64.796875 
L 19.671875 8.109375 
L 31.59375 8.109375 
Q 46.6875 8.109375 53.6875 14.9375 
Q 60.6875 21.78125 60.6875 36.53125 
Q 60.6875 51.171875 53.6875 57.984375 
Q 46.6875 64.796875 31.59375 64.796875 
z
M 9.8125 72.90625 
L 30.078125 72.90625 
Q 51.265625 72.90625 61.171875 64.09375 
Q 71.09375 55.28125 71.09375 36.53125 
Q 71.09375 17.671875 61.125 8.828125 
Q 51.171875 0 30.078125 0 
L 9.8125 0 
z
" id="DejaVuSans-68"/>
       </defs>
       <use xlink:href="#DejaVuSans-68"/>
       <use x="77.001953" xlink:href="#DejaVuSans-101"/>
       <use x="138.525391" xlink:href="#DejaVuSans-110"/>
       <use x="201.904297" xlink:href="#DejaVuSans-109"/>
       <use x="299.316406" xlink:href="#DejaVuSans-97"/>
       <use x="360.595703" xlink:href="#DejaVuSans-114"/>
       <use x="401.708984" xlink:href="#DejaVuSans-107"/>
      </g>
     </g>
    </g>
    <g id="ytick_42">
     <g id="line2d_47">
      <g>
       <use style="stroke:#000000;stroke-width:0.8;" x="152.8375" xlink:href="#mf0a75bfd7b" y="354.484528"/>
      </g>
     </g>
     <g id="text_48">
      <!-- Russia -->
      <g transform="translate(113.676563 358.283747)scale(0.1 -0.1)">
       <defs>
        <path d="M 44.390625 34.1875 
Q 47.5625 33.109375 50.5625 29.59375 
Q 53.5625 26.078125 56.59375 19.921875 
L 66.609375 0 
L 56 0 
L 46.6875 18.703125 
Q 43.0625 26.03125 39.671875 28.421875 
Q 36.28125 30.8125 30.421875 30.8125 
L 19.671875 30.8125 
L 19.671875 0 
L 9.8125 0 
L 9.8125 72.90625 
L 32.078125 72.90625 
Q 44.578125 72.90625 50.734375 67.671875 
Q 56.890625 62.453125 56.890625 51.90625 
Q 56.890625 45.015625 53.6875 40.46875 
Q 50.484375 35.9375 44.390625 34.1875 
z
M 19.671875 64.796875 
L 19.671875 38.921875 
L 32.078125 38.921875 
Q 39.203125 38.921875 42.84375 42.21875 
Q 46.484375 45.515625 46.484375 51.90625 
Q 46.484375 58.296875 42.84375 61.546875 
Q 39.203125 64.796875 32.078125 64.796875 
z
" id="DejaVuSans-82"/>
       </defs>
       <use xlink:href="#DejaVuSans-82"/>
       <use x="64.982422" xlink:href="#DejaVuSans-117"/>
       <use x="128.361328" xlink:href="#DejaVuSans-115"/>
       <use x="180.460938" xlink:href="#DejaVuSans-115"/>
       <use x="232.560547" xlink:href="#DejaVuSans-105"/>
       <use x="260.34375" xlink:href="#DejaVuSans-97"/>
      </g>
     </g>
    </g>
    <g id="ytick_43">
     <g id="line2d_48">
      <g>
       <use style="stroke:#000000;stroke-width:0.8;" x="152.8375" xlink:href="#mf0a75bfd7b" y="362.85283"/>
      </g>
     </g>
     <g id="text_49">
      <!-- Singapore -->
      <g transform="translate(95.390625 366.652049)scale(0.1 -0.1)">
       <use xlink:href="#DejaVuSans-83"/>
       <use x="63.476562" xlink:href="#DejaVuSans-105"/>
       <use x="91.259766" xlink:href="#DejaVuSans-110"/>
       <use x="154.638672" xlink:href="#DejaVuSans-103"/>
       <use x="218.115234" xlink:href="#DejaVuSans-97"/>
       <use x="279.394531" xlink:href="#DejaVuSans-112"/>
       <use x="342.871094" xlink:href="#DejaVuSans-111"/>
       <use x="404.052734" xlink:href="#DejaVuSans-114"/>
       <use x="442.916016" xlink:href="#DejaVuSans-101"/>
      </g>
     </g>
    </g>
    <g id="ytick_44">
     <g id="line2d_49">
      <g>
       <use style="stroke:#000000;stroke-width:0.8;" x="152.8375" xlink:href="#mf0a75bfd7b" y="371.221132"/>
      </g>
     </g>
     <g id="text_50">
      <!-- Angola -->
      <g transform="translate(111.285938 375.020351)scale(0.1 -0.1)">
       <use xlink:href="#DejaVuSans-65"/>
       <use x="68.408203" xlink:href="#DejaVuSans-110"/>
       <use x="131.787109" xlink:href="#DejaVuSans-103"/>
       <use x="195.263672" xlink:href="#DejaVuSans-111"/>
       <use x="256.445312" xlink:href="#DejaVuSans-108"/>
       <use x="284.228516" xlink:href="#DejaVuSans-97"/>
      </g>
     </g>
    </g>
    <g id="ytick_45">
     <g id="line2d_50">
      <g>
       <use style="stroke:#000000;stroke-width:0.8;" x="152.8375" xlink:href="#mf0a75bfd7b" y="379.589434"/>
      </g>
     </g>
     <g id="text_51">
      <!-- Brazil -->
      <g transform="translate(117.932813 383.388653)scale(0.1 -0.1)">
       <use xlink:href="#DejaVuSans-66"/>
       <use x="68.603516" xlink:href="#DejaVuSans-114"/>
       <use x="109.716797" xlink:href="#DejaVuSans-97"/>
       <use x="170.996094" xlink:href="#DejaVuSans-122"/>
       <use x="223.486328" xlink:href="#DejaVuSans-105"/>
       <use x="251.269531" xlink:href="#DejaVuSans-108"/>
      </g>
     </g>
    </g>
    <g id="ytick_46">
     <g id="line2d_51">
      <g>
       <use style="stroke:#000000;stroke-width:0.8;" x="152.8375" xlink:href="#mf0a75bfd7b" y="387.957736"/>
      </g>
     </g>
     <g id="text_52">
      <!-- Uganda -->
      <g transform="translate(107.228125 391.756955)scale(0.1 -0.1)">
       <use xlink:href="#DejaVuSans-85"/>
       <use x="73.193359" xlink:href="#DejaVuSans-103"/>
       <use x="136.669922" xlink:href="#DejaVuSans-97"/>
       <use x="197.949219" xlink:href="#DejaVuSans-110"/>
       <use x="261.328125" xlink:href="#DejaVuSans-100"/>
       <use x="324.804688" xlink:href="#DejaVuSans-97"/>
      </g>
     </g>
    </g>
    <g id="ytick_47">
     <g id="line2d_52">
      <g>
       <use style="stroke:#000000;stroke-width:0.8;" x="152.8375" xlink:href="#mf0a75bfd7b" y="396.326038"/>
      </g>
     </g>
     <g id="text_53">
      <!-- South Korea -->
      <g transform="translate(85.253125 400.125256)scale(0.1 -0.1)">
       <use xlink:href="#DejaVuSans-83"/>
       <use x="63.476562" xlink:href="#DejaVuSans-111"/>
       <use x="124.658203" xlink:href="#DejaVuSans-117"/>
       <use x="188.037109" xlink:href="#DejaVuSans-116"/>
       <use x="227.246094" xlink:href="#DejaVuSans-104"/>
       <use x="290.625" xlink:href="#DejaVuSans-32"/>
       <use x="322.412109" xlink:href="#DejaVuSans-75"/>
       <use x="382.988281" xlink:href="#DejaVuSans-111"/>
       <use x="444.169922" xlink:href="#DejaVuSans-114"/>
       <use x="483.033203" xlink:href="#DejaVuSans-101"/>
       <use x="544.556641" xlink:href="#DejaVuSans-97"/>
      </g>
     </g>
    </g>
    <g id="ytick_48">
     <g id="line2d_53">
      <g>
       <use style="stroke:#000000;stroke-width:0.8;" x="152.8375" xlink:href="#mf0a75bfd7b" y="404.69434"/>
      </g>
     </g>
     <g id="text_54">
      <!-- New Zealand -->
      <g transform="translate(80.123438 408.493558)scale(0.1 -0.1)">
       <use xlink:href="#DejaVuSans-78"/>
       <use x="74.804688" xlink:href="#DejaVuSans-101"/>
       <use x="136.328125" xlink:href="#DejaVuSans-119"/>
       <use x="218.115234" xlink:href="#DejaVuSans-32"/>
       <use x="249.902344" xlink:href="#DejaVuSans-90"/>
       <use x="318.408203" xlink:href="#DejaVuSans-101"/>
       <use x="379.931641" xlink:href="#DejaVuSans-97"/>
       <use x="441.210938" xlink:href="#DejaVuSans-108"/>
       <use x="468.994141" xlink:href="#DejaVuSans-97"/>
       <use x="530.273438" xlink:href="#DejaVuSans-110"/>
       <use x="593.652344" xlink:href="#DejaVuSans-100"/>
      </g>
     </g>
    </g>
    <g id="ytick_49">
     <g id="line2d_54">
      <g>
       <use style="stroke:#000000;stroke-width:0.8;" x="152.8375" xlink:href="#mf0a75bfd7b" y="413.062642"/>
      </g>
     </g>
     <g id="text_55">
      <!-- Congo -->
      <g transform="translate(113.93125 416.86186)scale(0.1 -0.1)">
       <use xlink:href="#DejaVuSans-67"/>
       <use x="69.824219" xlink:href="#DejaVuSans-111"/>
       <use x="131.005859" xlink:href="#DejaVuSans-110"/>
       <use x="194.384766" xlink:href="#DejaVuSans-103"/>
       <use x="257.861328" xlink:href="#DejaVuSans-111"/>
      </g>
     </g>
    </g>
    <g id="ytick_50">
     <g id="line2d_55">
      <g>
       <use style="stroke:#000000;stroke-width:0.8;" x="152.8375" xlink:href="#mf0a75bfd7b" y="421.430943"/>
      </g>
     </g>
     <g id="text_56">
      <!-- Japan -->
      <g transform="translate(117.945313 425.230162)scale(0.1 -0.1)">
       <defs>
        <path d="M 9.8125 72.90625 
L 19.671875 72.90625 
L 19.671875 5.078125 
Q 19.671875 -8.109375 14.671875 -14.0625 
Q 9.671875 -20.015625 -1.421875 -20.015625 
L -5.171875 -20.015625 
L -5.171875 -11.71875 
L -2.09375 -11.71875 
Q 4.4375 -11.71875 7.125 -8.046875 
Q 9.8125 -4.390625 9.8125 5.078125 
z
" id="DejaVuSans-74"/>
       </defs>
       <use xlink:href="#DejaVuSans-74"/>
       <use x="29.492188" xlink:href="#DejaVuSans-97"/>
       <use x="90.771484" xlink:href="#DejaVuSans-112"/>
       <use x="154.248047" xlink:href="#DejaVuSans-97"/>
       <use x="215.527344" xlink:href="#DejaVuSans-110"/>
      </g>
     </g>
    </g>
    <g id="ytick_51">
     <g id="line2d_56">
      <g>
       <use style="stroke:#000000;stroke-width:0.8;" x="152.8375" xlink:href="#mf0a75bfd7b" y="429.799245"/>
      </g>
     </g>
     <g id="text_57">
      <!-- Iraq -->
      <g transform="translate(126.3 433.598464)scale(0.1 -0.1)">
       <use xlink:href="#DejaVuSans-73"/>
       <use x="29.492188" xlink:href="#DejaVuSans-114"/>
       <use x="70.605469" xlink:href="#DejaVuSans-97"/>
       <use x="131.884766" xlink:href="#DejaVuSans-113"/>
      </g>
     </g>
    </g>
    <g id="ytick_52">
     <g id="line2d_57">
      <g>
       <use style="stroke:#000000;stroke-width:0.8;" x="152.8375" xlink:href="#mf0a75bfd7b" y="438.167547"/>
      </g>
     </g>
     <g id="text_58">
      <!-- Cyprus -->
      <g transform="translate(110.929688 441.966766)scale(0.1 -0.1)">
       <use xlink:href="#DejaVuSans-67"/>
       <use x="69.824219" xlink:href="#DejaVuSans-121"/>
       <use x="129.003906" xlink:href="#DejaVuSans-112"/>
       <use x="192.480469" xlink:href="#DejaVuSans-114"/>
       <use x="233.59375" xlink:href="#DejaVuSans-117"/>
       <use x="296.972656" xlink:href="#DejaVuSans-115"/>
      </g>
     </g>
    </g>
    <g id="ytick_53">
     <g id="line2d_58">
      <g>
       <use style="stroke:#000000;stroke-width:0.8;" x="152.8375" xlink:href="#mf0a75bfd7b" y="446.535849"/>
      </g>
     </g>
     <g id="text_59">
      <!-- Poland -->
      <g transform="translate(112.459375 450.335068)scale(0.1 -0.1)">
       <use xlink:href="#DejaVuSans-80"/>
       <use x="56.677734" xlink:href="#DejaVuSans-111"/>
       <use x="117.859375" xlink:href="#DejaVuSans-108"/>
       <use x="145.642578" xlink:href="#DejaVuSans-97"/>
       <use x="206.921875" xlink:href="#DejaVuSans-110"/>
       <use x="270.300781" xlink:href="#DejaVuSans-100"/>
      </g>
     </g>
    </g>
    <g id="text_60">
     <!-- Country -->
     <g transform="translate(14.798438 248.823281)rotate(-90)scale(0.1 -0.1)">
      <use xlink:href="#DejaVuSans-67"/>
      <use x="69.824219" xlink:href="#DejaVuSans-111"/>
      <use x="131.005859" xlink:href="#DejaVuSans-117"/>
      <use x="194.384766" xlink:href="#DejaVuSans-110"/>
      <use x="257.763672" xlink:href="#DejaVuSans-116"/>
      <use x="296.972656" xlink:href="#DejaVuSans-114"/>
      <use x="338.085938" xlink:href="#DejaVuSans-121"/>
     </g>
    </g>
   </g>
   <g id="line2d_59">
    <path clip-path="url(#pfd6cefd831)" d="M 0 0 
" style="fill:none;stroke:#424242;stroke-linecap:square;stroke-width:2.7;"/>
   </g>
   <g id="line2d_60">
    <path clip-path="url(#pfd6cefd831)" d="M 0 0 
" style="fill:none;stroke:#424242;stroke-linecap:square;stroke-width:2.7;"/>
   </g>
   <g id="line2d_61">
    <path clip-path="url(#pfd6cefd831)" d="M 0 0 
" style="fill:none;stroke:#424242;stroke-linecap:square;stroke-width:2.7;"/>
   </g>
   <g id="line2d_62">
    <path clip-path="url(#pfd6cefd831)" d="M 0 0 
" style="fill:none;stroke:#424242;stroke-linecap:square;stroke-width:2.7;"/>
   </g>
   <g id="line2d_63">
    <path clip-path="url(#pfd6cefd831)" d="M 0 0 
" style="fill:none;stroke:#424242;stroke-linecap:square;stroke-width:2.7;"/>
   </g>
   <g id="line2d_64">
    <path clip-path="url(#pfd6cefd831)" d="M 0 0 
" style="fill:none;stroke:#424242;stroke-linecap:square;stroke-width:2.7;"/>
   </g>
   <g id="line2d_65">
    <path clip-path="url(#pfd6cefd831)" d="M 0 0 
" style="fill:none;stroke:#424242;stroke-linecap:square;stroke-width:2.7;"/>
   </g>
   <g id="line2d_66">
    <path clip-path="url(#pfd6cefd831)" d="M 0 0 
" style="fill:none;stroke:#424242;stroke-linecap:square;stroke-width:2.7;"/>
   </g>
   <g id="line2d_67">
    <path clip-path="url(#pfd6cefd831)" d="M 0 0 
" style="fill:none;stroke:#424242;stroke-linecap:square;stroke-width:2.7;"/>
   </g>
   <g id="line2d_68">
    <path clip-path="url(#pfd6cefd831)" d="M 0 0 
" style="fill:none;stroke:#424242;stroke-linecap:square;stroke-width:2.7;"/>
   </g>
   <g id="line2d_69">
    <path clip-path="url(#pfd6cefd831)" d="M 0 0 
" style="fill:none;stroke:#424242;stroke-linecap:square;stroke-width:2.7;"/>
   </g>
   <g id="line2d_70">
    <path clip-path="url(#pfd6cefd831)" d="M 0 0 
" style="fill:none;stroke:#424242;stroke-linecap:square;stroke-width:2.7;"/>
   </g>
   <g id="line2d_71">
    <path clip-path="url(#pfd6cefd831)" d="M 0 0 
" style="fill:none;stroke:#424242;stroke-linecap:square;stroke-width:2.7;"/>
   </g>
   <g id="line2d_72">
    <path clip-path="url(#pfd6cefd831)" d="M 0 0 
" style="fill:none;stroke:#424242;stroke-linecap:square;stroke-width:2.7;"/>
   </g>
   <g id="line2d_73">
    <path clip-path="url(#pfd6cefd831)" d="M 0 0 
" style="fill:none;stroke:#424242;stroke-linecap:square;stroke-width:2.7;"/>
   </g>
   <g id="line2d_74">
    <path clip-path="url(#pfd6cefd831)" d="M 0 0 
" style="fill:none;stroke:#424242;stroke-linecap:square;stroke-width:2.7;"/>
   </g>
   <g id="line2d_75">
    <path clip-path="url(#pfd6cefd831)" d="M 0 0 
" style="fill:none;stroke:#424242;stroke-linecap:square;stroke-width:2.7;"/>
   </g>
   <g id="line2d_76">
    <path clip-path="url(#pfd6cefd831)" d="M 0 0 
" style="fill:none;stroke:#424242;stroke-linecap:square;stroke-width:2.7;"/>
   </g>
   <g id="line2d_77">
    <path clip-path="url(#pfd6cefd831)" d="M 0 0 
" style="fill:none;stroke:#424242;stroke-linecap:square;stroke-width:2.7;"/>
   </g>
   <g id="line2d_78">
    <path clip-path="url(#pfd6cefd831)" d="M 0 0 
" style="fill:none;stroke:#424242;stroke-linecap:square;stroke-width:2.7;"/>
   </g>
   <g id="line2d_79">
    <path clip-path="url(#pfd6cefd831)" d="M 0 0 
" style="fill:none;stroke:#424242;stroke-linecap:square;stroke-width:2.7;"/>
   </g>
   <g id="line2d_80">
    <path clip-path="url(#pfd6cefd831)" d="M 0 0 
" style="fill:none;stroke:#424242;stroke-linecap:square;stroke-width:2.7;"/>
   </g>
   <g id="line2d_81">
    <path clip-path="url(#pfd6cefd831)" d="M 0 0 
" style="fill:none;stroke:#424242;stroke-linecap:square;stroke-width:2.7;"/>
   </g>
   <g id="line2d_82">
    <path clip-path="url(#pfd6cefd831)" d="M 0 0 
" style="fill:none;stroke:#424242;stroke-linecap:square;stroke-width:2.7;"/>
   </g>
   <g id="line2d_83">
    <path clip-path="url(#pfd6cefd831)" d="M 0 0 
" style="fill:none;stroke:#424242;stroke-linecap:square;stroke-width:2.7;"/>
   </g>
   <g id="line2d_84">
    <path clip-path="url(#pfd6cefd831)" d="M 0 0 
" style="fill:none;stroke:#424242;stroke-linecap:square;stroke-width:2.7;"/>
   </g>
   <g id="line2d_85">
    <path clip-path="url(#pfd6cefd831)" d="M 0 0 
" style="fill:none;stroke:#424242;stroke-linecap:square;stroke-width:2.7;"/>
   </g>
   <g id="line2d_86">
    <path clip-path="url(#pfd6cefd831)" d="M 0 0 
" style="fill:none;stroke:#424242;stroke-linecap:square;stroke-width:2.7;"/>
   </g>
   <g id="line2d_87">
    <path clip-path="url(#pfd6cefd831)" d="M 0 0 
" style="fill:none;stroke:#424242;stroke-linecap:square;stroke-width:2.7;"/>
   </g>
   <g id="line2d_88">
    <path clip-path="url(#pfd6cefd831)" d="M 0 0 
" style="fill:none;stroke:#424242;stroke-linecap:square;stroke-width:2.7;"/>
   </g>
   <g id="line2d_89">
    <path clip-path="url(#pfd6cefd831)" d="M 0 0 
" style="fill:none;stroke:#424242;stroke-linecap:square;stroke-width:2.7;"/>
   </g>
   <g id="line2d_90">
    <path clip-path="url(#pfd6cefd831)" d="M 0 0 
" style="fill:none;stroke:#424242;stroke-linecap:square;stroke-width:2.7;"/>
   </g>
   <g id="line2d_91">
    <path clip-path="url(#pfd6cefd831)" d="M 0 0 
" style="fill:none;stroke:#424242;stroke-linecap:square;stroke-width:2.7;"/>
   </g>
   <g id="line2d_92">
    <path clip-path="url(#pfd6cefd831)" d="M 0 0 
" style="fill:none;stroke:#424242;stroke-linecap:square;stroke-width:2.7;"/>
   </g>
   <g id="line2d_93">
    <path clip-path="url(#pfd6cefd831)" d="M 0 0 
" style="fill:none;stroke:#424242;stroke-linecap:square;stroke-width:2.7;"/>
   </g>
   <g id="line2d_94">
    <path clip-path="url(#pfd6cefd831)" d="M 0 0 
" style="fill:none;stroke:#424242;stroke-linecap:square;stroke-width:2.7;"/>
   </g>
   <g id="line2d_95">
    <path clip-path="url(#pfd6cefd831)" d="M 0 0 
" style="fill:none;stroke:#424242;stroke-linecap:square;stroke-width:2.7;"/>
   </g>
   <g id="line2d_96">
    <path clip-path="url(#pfd6cefd831)" d="M 0 0 
" style="fill:none;stroke:#424242;stroke-linecap:square;stroke-width:2.7;"/>
   </g>
   <g id="line2d_97">
    <path clip-path="url(#pfd6cefd831)" d="M 0 0 
" style="fill:none;stroke:#424242;stroke-linecap:square;stroke-width:2.7;"/>
   </g>
   <g id="line2d_98">
    <path clip-path="url(#pfd6cefd831)" d="M 0 0 
" style="fill:none;stroke:#424242;stroke-linecap:square;stroke-width:2.7;"/>
   </g>
   <g id="line2d_99">
    <path clip-path="url(#pfd6cefd831)" d="M 0 0 
" style="fill:none;stroke:#424242;stroke-linecap:square;stroke-width:2.7;"/>
   </g>
   <g id="line2d_100">
    <path clip-path="url(#pfd6cefd831)" d="M 0 0 
" style="fill:none;stroke:#424242;stroke-linecap:square;stroke-width:2.7;"/>
   </g>
   <g id="line2d_101">
    <path clip-path="url(#pfd6cefd831)" d="M 0 0 
" style="fill:none;stroke:#424242;stroke-linecap:square;stroke-width:2.7;"/>
   </g>
   <g id="line2d_102">
    <path clip-path="url(#pfd6cefd831)" d="M 0 0 
" style="fill:none;stroke:#424242;stroke-linecap:square;stroke-width:2.7;"/>
   </g>
   <g id="line2d_103">
    <path clip-path="url(#pfd6cefd831)" d="M 0 0 
" style="fill:none;stroke:#424242;stroke-linecap:square;stroke-width:2.7;"/>
   </g>
   <g id="line2d_104">
    <path clip-path="url(#pfd6cefd831)" d="M 0 0 
" style="fill:none;stroke:#424242;stroke-linecap:square;stroke-width:2.7;"/>
   </g>
   <g id="line2d_105">
    <path clip-path="url(#pfd6cefd831)" d="M 0 0 
" style="fill:none;stroke:#424242;stroke-linecap:square;stroke-width:2.7;"/>
   </g>
   <g id="line2d_106">
    <path clip-path="url(#pfd6cefd831)" d="M 0 0 
" style="fill:none;stroke:#424242;stroke-linecap:square;stroke-width:2.7;"/>
   </g>
   <g id="line2d_107">
    <path clip-path="url(#pfd6cefd831)" d="M 0 0 
" style="fill:none;stroke:#424242;stroke-linecap:square;stroke-width:2.7;"/>
   </g>
   <g id="line2d_108">
    <path clip-path="url(#pfd6cefd831)" d="M 0 0 
" style="fill:none;stroke:#424242;stroke-linecap:square;stroke-width:2.7;"/>
   </g>
   <g id="line2d_109">
    <path clip-path="url(#pfd6cefd831)" d="M 0 0 
" style="fill:none;stroke:#424242;stroke-linecap:square;stroke-width:2.7;"/>
   </g>
   <g id="line2d_110">
    <path clip-path="url(#pfd6cefd831)" d="M 0 0 
" style="fill:none;stroke:#424242;stroke-linecap:square;stroke-width:2.7;"/>
   </g>
   <g id="line2d_111">
    <path clip-path="url(#pfd6cefd831)" d="M 0 0 
" style="fill:none;stroke:#424242;stroke-linecap:square;stroke-width:2.7;"/>
   </g>
   <g id="patch_56">
    <path d="M 152.8375 450.72 
L 152.8375 7.2 
" style="fill:none;stroke:#000000;stroke-linecap:square;stroke-linejoin:miter;stroke-width:0.8;"/>
   </g>
   <g id="patch_57">
    <path d="M 152.8375 450.72 
L 655.0375 450.72 
" style="fill:none;stroke:#000000;stroke-linecap:square;stroke-linejoin:miter;stroke-width:0.8;"/>
   </g>
   <g id="legend_1">
    <g id="patch_58">
     <path d="M 588.91625 394.88625 
L 604.91625 394.88625 
L 604.91625 389.28625 
L 588.91625 389.28625 
z
" style="fill:#ffffff;stroke:#ffffff;stroke-linejoin:miter;"/>
    </g>
    <g id="text_61">
     <!-- 0 -->
     <g transform="translate(611.31625 394.88625)scale(0.08 -0.08)">
      <use xlink:href="#DejaVuSans-48"/>
     </g>
    </g>
    <g id="patch_59">
     <path d="M 588.91625 406.62875 
L 604.91625 406.62875 
L 604.91625 401.02875 
L 588.91625 401.02875 
z
" style="fill:#eac9c2;stroke:#eac9c2;stroke-linejoin:miter;"/>
    </g>
    <g id="text_62">
     <!-- 1 -->
     <g transform="translate(611.31625 406.62875)scale(0.08 -0.08)">
      <use xlink:href="#DejaVuSans-49"/>
     </g>
    </g>
    <g id="patch_60">
     <path d="M 588.91625 418.37125 
L 604.91625 418.37125 
L 604.91625 412.77125 
L 588.91625 412.77125 
z
" style="fill:#ca8a99;stroke:#ca8a99;stroke-linejoin:miter;"/>
    </g>
    <g id="text_63">
     <!-- 2 -->
     <g transform="translate(611.31625 418.37125)scale(0.08 -0.08)">
      <use xlink:href="#DejaVuSans-50"/>
     </g>
    </g>
    <g id="patch_61">
     <path d="M 588.91625 430.11375 
L 604.91625 430.11375 
L 604.91625 424.51375 
L 588.91625 424.51375 
z
" style="fill:#99587f;stroke:#99587f;stroke-linejoin:miter;"/>
    </g>
    <g id="text_64">
     <!-- 349 -->
     <g transform="translate(611.31625 430.11375)scale(0.08 -0.08)">
      <defs>
       <path d="M 10.984375 1.515625 
L 10.984375 10.5 
Q 14.703125 8.734375 18.5 7.8125 
Q 22.3125 6.890625 25.984375 6.890625 
Q 35.75 6.890625 40.890625 13.453125 
Q 46.046875 20.015625 46.78125 33.40625 
Q 43.953125 29.203125 39.59375 26.953125 
Q 35.25 24.703125 29.984375 24.703125 
Q 19.046875 24.703125 12.671875 31.3125 
Q 6.296875 37.9375 6.296875 49.421875 
Q 6.296875 60.640625 12.9375 67.421875 
Q 19.578125 74.21875 30.609375 74.21875 
Q 43.265625 74.21875 49.921875 64.515625 
Q 56.59375 54.828125 56.59375 36.375 
Q 56.59375 19.140625 48.40625 8.859375 
Q 40.234375 -1.421875 26.421875 -1.421875 
Q 22.703125 -1.421875 18.890625 -0.6875 
Q 15.09375 0.046875 10.984375 1.515625 
z
M 30.609375 32.421875 
Q 37.25 32.421875 41.125 36.953125 
Q 45.015625 41.5 45.015625 49.421875 
Q 45.015625 57.28125 41.125 61.84375 
Q 37.25 66.40625 30.609375 66.40625 
Q 23.96875 66.40625 20.09375 61.84375 
Q 16.21875 57.28125 16.21875 49.421875 
Q 16.21875 41.5 20.09375 36.953125 
Q 23.96875 32.421875 30.609375 32.421875 
z
" id="DejaVuSans-57"/>
      </defs>
      <use xlink:href="#DejaVuSans-51"/>
      <use x="63.623047" xlink:href="#DejaVuSans-52"/>
      <use x="127.246094" xlink:href="#DejaVuSans-57"/>
     </g>
    </g>
    <g id="patch_62">
     <path d="M 588.91625 441.85625 
L 604.91625 441.85625 
L 604.91625 436.25625 
L 588.91625 436.25625 
z
" style="fill:#d3d3d3;stroke:#d3d3d3;stroke-linejoin:miter;"/>
    </g>
    <g id="text_65">
     <!-- Reported -->
     <g transform="translate(611.31625 441.85625)scale(0.08 -0.08)">
      <use xlink:href="#DejaVuSans-82"/>
      <use x="64.982422" xlink:href="#DejaVuSans-101"/>
      <use x="126.505859" xlink:href="#DejaVuSans-112"/>
      <use x="189.982422" xlink:href="#DejaVuSans-111"/>
      <use x="251.164062" xlink:href="#DejaVuSans-114"/>
      <use x="292.277344" xlink:href="#DejaVuSans-116"/>
      <use x="331.486328" xlink:href="#DejaVuSans-101"/>
      <use x="393.009766" xlink:href="#DejaVuSans-100"/>
     </g>
    </g>
   </g>
  </g>
 </g>
 <defs>
  <clipPath id="pfd6cefd831">
   <rect height="443.52" width="502.2" x="152.8375" y="7.2"/>
  </clipPath>
 </defs>
</svg>
