<?xml version="1.0" encoding="utf-8" standalone="no"?>
<!DOCTYPE svg PUBLIC "-//W3C//DTD SVG 1.1//EN"
  "http://www.w3.org/Graphics/SVG/1.1/DTD/svg11.dtd">
<svg height="298.620937pt" version="1.1" viewBox="0 0 1176.528125 298.620937" width="1176.528125pt" xmlns="http://www.w3.org/2000/svg" xmlns:xlink="http://www.w3.org/1999/xlink">
 <metadata>
  <rdf:RDF xmlns:cc="http://creativecommons.org/ns#" xmlns:dc="http://purl.org/dc/elements/1.1/" xmlns:rdf="http://www.w3.org/1999/02/22-rdf-syntax-ns#">
   <cc:Work>
    <dc:type rdf:resource="http://purl.org/dc/dcmitype/StillImage"/>
    <dc:date>2021-07-19T08:16:09.559346</dc:date>
    <dc:format>image/svg+xml</dc:format>
    <dc:creator>
     <cc:Agent>
      <dc:title>Matplotlib v3.4.2, https://matplotlib.org/</dc:title>
     </cc:Agent>
    </dc:creator>
   </cc:Work>
  </rdf:RDF>
 </metadata>
 <defs>
  <style type="text/css">*{stroke-linecap:butt;stroke-linejoin:round;}</style>
 </defs>
 <g id="figure_1">
  <g id="patch_1">
   <path d="M 0 298.620937 
L 1176.528125 298.620937 
L 1176.528125 0 
L 0 0 
z
" style="fill:#ffffff;"/>
  </g>
  <g id="axes_1">
   <g id="patch_2">
    <path d="M 53.328125 228.96 
L 1169.328125 228.96 
L 1169.328125 7.2 
L 53.328125 7.2 
z
" style="fill:#ffffff;"/>
   </g>
   <g id="matplotlib.axis_1">
    <g id="xtick_1">
     <g id="line2d_1">
      <defs>
       <path d="M 0 0 
L 0 3.5 
" id="m10ea1f68b5" style="stroke:#000000;stroke-width:0.8;"/>
      </defs>
      <g>
       <use style="stroke:#000000;stroke-width:0.8;" x="141.505062" xlink:href="#m10ea1f68b5" y="228.96"/>
      </g>
     </g>
     <g id="text_1">
      <!-- 2020-10 -->
      <g transform="translate(144.264437 277.742812)rotate(-90)scale(0.1 -0.1)">
       <defs>
        <path d="M 1228 531 
L 3431 531 
L 3431 0 
L 469 0 
L 469 531 
Q 828 903 1448 1529 
Q 2069 2156 2228 2338 
Q 2531 2678 2651 2914 
Q 2772 3150 2772 3378 
Q 2772 3750 2511 3984 
Q 2250 4219 1831 4219 
Q 1534 4219 1204 4116 
Q 875 4013 500 3803 
L 500 4441 
Q 881 4594 1212 4672 
Q 1544 4750 1819 4750 
Q 2544 4750 2975 4387 
Q 3406 4025 3406 3419 
Q 3406 3131 3298 2873 
Q 3191 2616 2906 2266 
Q 2828 2175 2409 1742 
Q 1991 1309 1228 531 
z
" id="DejaVuSans-32" transform="scale(0.015625)"/>
        <path d="M 2034 4250 
Q 1547 4250 1301 3770 
Q 1056 3291 1056 2328 
Q 1056 1369 1301 889 
Q 1547 409 2034 409 
Q 2525 409 2770 889 
Q 3016 1369 3016 2328 
Q 3016 3291 2770 3770 
Q 2525 4250 2034 4250 
z
M 2034 4750 
Q 2819 4750 3233 4129 
Q 3647 3509 3647 2328 
Q 3647 1150 3233 529 
Q 2819 -91 2034 -91 
Q 1250 -91 836 529 
Q 422 1150 422 2328 
Q 422 3509 836 4129 
Q 1250 4750 2034 4750 
z
" id="DejaVuSans-30" transform="scale(0.015625)"/>
        <path d="M 313 2009 
L 1997 2009 
L 1997 1497 
L 313 1497 
L 313 2009 
z
" id="DejaVuSans-2d" transform="scale(0.015625)"/>
        <path d="M 794 531 
L 1825 531 
L 1825 4091 
L 703 3866 
L 703 4441 
L 1819 4666 
L 2450 4666 
L 2450 531 
L 3481 531 
L 3481 0 
L 794 0 
L 794 531 
z
" id="DejaVuSans-31" transform="scale(0.015625)"/>
       </defs>
       <use xlink:href="#DejaVuSans-32"/>
       <use x="63.623047" xlink:href="#DejaVuSans-30"/>
       <use x="127.246094" xlink:href="#DejaVuSans-32"/>
       <use x="190.869141" xlink:href="#DejaVuSans-30"/>
       <use x="254.492188" xlink:href="#DejaVuSans-2d"/>
       <use x="290.576172" xlink:href="#DejaVuSans-31"/>
       <use x="354.199219" xlink:href="#DejaVuSans-30"/>
      </g>
     </g>
    </g>
    <g id="xtick_2">
     <g id="line2d_2">
      <g>
       <use style="stroke:#000000;stroke-width:0.8;" x="247.045026" xlink:href="#m10ea1f68b5" y="228.96"/>
      </g>
     </g>
     <g id="text_2">
      <!-- 2020-11 -->
      <g transform="translate(249.804401 277.742812)rotate(-90)scale(0.1 -0.1)">
       <use xlink:href="#DejaVuSans-32"/>
       <use x="63.623047" xlink:href="#DejaVuSans-30"/>
       <use x="127.246094" xlink:href="#DejaVuSans-32"/>
       <use x="190.869141" xlink:href="#DejaVuSans-30"/>
       <use x="254.492188" xlink:href="#DejaVuSans-2d"/>
       <use x="290.576172" xlink:href="#DejaVuSans-31"/>
       <use x="354.199219" xlink:href="#DejaVuSans-31"/>
      </g>
     </g>
    </g>
    <g id="xtick_3">
     <g id="line2d_3">
      <g>
       <use style="stroke:#000000;stroke-width:0.8;" x="349.180474" xlink:href="#m10ea1f68b5" y="228.96"/>
      </g>
     </g>
     <g id="text_3">
      <!-- 2020-12 -->
      <g transform="translate(351.939849 277.742812)rotate(-90)scale(0.1 -0.1)">
       <use xlink:href="#DejaVuSans-32"/>
       <use x="63.623047" xlink:href="#DejaVuSans-30"/>
       <use x="127.246094" xlink:href="#DejaVuSans-32"/>
       <use x="190.869141" xlink:href="#DejaVuSans-30"/>
       <use x="254.492188" xlink:href="#DejaVuSans-2d"/>
       <use x="290.576172" xlink:href="#DejaVuSans-31"/>
       <use x="354.199219" xlink:href="#DejaVuSans-32"/>
      </g>
     </g>
    </g>
    <g id="xtick_4">
     <g id="line2d_4">
      <g>
       <use style="stroke:#000000;stroke-width:0.8;" x="454.720437" xlink:href="#m10ea1f68b5" y="228.96"/>
      </g>
     </g>
     <g id="text_4">
      <!-- 2021-01 -->
      <g transform="translate(457.479812 277.742812)rotate(-90)scale(0.1 -0.1)">
       <use xlink:href="#DejaVuSans-32"/>
       <use x="63.623047" xlink:href="#DejaVuSans-30"/>
       <use x="127.246094" xlink:href="#DejaVuSans-32"/>
       <use x="190.869141" xlink:href="#DejaVuSans-31"/>
       <use x="254.492188" xlink:href="#DejaVuSans-2d"/>
       <use x="290.576172" xlink:href="#DejaVuSans-30"/>
       <use x="354.199219" xlink:href="#DejaVuSans-31"/>
      </g>
     </g>
    </g>
    <g id="xtick_5">
     <g id="line2d_5">
      <g>
       <use style="stroke:#000000;stroke-width:0.8;" x="560.260401" xlink:href="#m10ea1f68b5" y="228.96"/>
      </g>
     </g>
     <g id="text_5">
      <!-- 2021-02 -->
      <g transform="translate(563.019776 277.742812)rotate(-90)scale(0.1 -0.1)">
       <use xlink:href="#DejaVuSans-32"/>
       <use x="63.623047" xlink:href="#DejaVuSans-30"/>
       <use x="127.246094" xlink:href="#DejaVuSans-32"/>
       <use x="190.869141" xlink:href="#DejaVuSans-31"/>
       <use x="254.492188" xlink:href="#DejaVuSans-2d"/>
       <use x="290.576172" xlink:href="#DejaVuSans-30"/>
       <use x="354.199219" xlink:href="#DejaVuSans-32"/>
      </g>
     </g>
    </g>
    <g id="xtick_6">
     <g id="line2d_6">
      <g>
       <use style="stroke:#000000;stroke-width:0.8;" x="655.586819" xlink:href="#m10ea1f68b5" y="228.96"/>
      </g>
     </g>
     <g id="text_6">
      <!-- 2021-03 -->
      <g transform="translate(658.346194 277.742812)rotate(-90)scale(0.1 -0.1)">
       <defs>
        <path d="M 2597 2516 
Q 3050 2419 3304 2112 
Q 3559 1806 3559 1356 
Q 3559 666 3084 287 
Q 2609 -91 1734 -91 
Q 1441 -91 1130 -33 
Q 819 25 488 141 
L 488 750 
Q 750 597 1062 519 
Q 1375 441 1716 441 
Q 2309 441 2620 675 
Q 2931 909 2931 1356 
Q 2931 1769 2642 2001 
Q 2353 2234 1838 2234 
L 1294 2234 
L 1294 2753 
L 1863 2753 
Q 2328 2753 2575 2939 
Q 2822 3125 2822 3475 
Q 2822 3834 2567 4026 
Q 2313 4219 1838 4219 
Q 1578 4219 1281 4162 
Q 984 4106 628 3988 
L 628 4550 
Q 988 4650 1302 4700 
Q 1616 4750 1894 4750 
Q 2613 4750 3031 4423 
Q 3450 4097 3450 3541 
Q 3450 3153 3228 2886 
Q 3006 2619 2597 2516 
z
" id="DejaVuSans-33" transform="scale(0.015625)"/>
       </defs>
       <use xlink:href="#DejaVuSans-32"/>
       <use x="63.623047" xlink:href="#DejaVuSans-30"/>
       <use x="127.246094" xlink:href="#DejaVuSans-32"/>
       <use x="190.869141" xlink:href="#DejaVuSans-31"/>
       <use x="254.492188" xlink:href="#DejaVuSans-2d"/>
       <use x="290.576172" xlink:href="#DejaVuSans-30"/>
       <use x="354.199219" xlink:href="#DejaVuSans-33"/>
      </g>
     </g>
    </g>
    <g id="xtick_7">
     <g id="line2d_7">
      <g>
       <use style="stroke:#000000;stroke-width:0.8;" x="761.126783" xlink:href="#m10ea1f68b5" y="228.96"/>
      </g>
     </g>
     <g id="text_7">
      <!-- 2021-04 -->
      <g transform="translate(763.886158 277.742812)rotate(-90)scale(0.1 -0.1)">
       <defs>
        <path d="M 2419 4116 
L 825 1625 
L 2419 1625 
L 2419 4116 
z
M 2253 4666 
L 3047 4666 
L 3047 1625 
L 3713 1625 
L 3713 1100 
L 3047 1100 
L 3047 0 
L 2419 0 
L 2419 1100 
L 313 1100 
L 313 1709 
L 2253 4666 
z
" id="DejaVuSans-34" transform="scale(0.015625)"/>
       </defs>
       <use xlink:href="#DejaVuSans-32"/>
       <use x="63.623047" xlink:href="#DejaVuSans-30"/>
       <use x="127.246094" xlink:href="#DejaVuSans-32"/>
       <use x="190.869141" xlink:href="#DejaVuSans-31"/>
       <use x="254.492188" xlink:href="#DejaVuSans-2d"/>
       <use x="290.576172" xlink:href="#DejaVuSans-30"/>
       <use x="354.199219" xlink:href="#DejaVuSans-34"/>
      </g>
     </g>
    </g>
    <g id="xtick_8">
     <g id="line2d_8">
      <g>
       <use style="stroke:#000000;stroke-width:0.8;" x="863.262231" xlink:href="#m10ea1f68b5" y="228.96"/>
      </g>
     </g>
     <g id="text_8">
      <!-- 2021-05 -->
      <g transform="translate(866.021606 277.742812)rotate(-90)scale(0.1 -0.1)">
       <defs>
        <path d="M 691 4666 
L 3169 4666 
L 3169 4134 
L 1269 4134 
L 1269 2991 
Q 1406 3038 1543 3061 
Q 1681 3084 1819 3084 
Q 2600 3084 3056 2656 
Q 3513 2228 3513 1497 
Q 3513 744 3044 326 
Q 2575 -91 1722 -91 
Q 1428 -91 1123 -41 
Q 819 9 494 109 
L 494 744 
Q 775 591 1075 516 
Q 1375 441 1709 441 
Q 2250 441 2565 725 
Q 2881 1009 2881 1497 
Q 2881 1984 2565 2268 
Q 2250 2553 1709 2553 
Q 1456 2553 1204 2497 
Q 953 2441 691 2322 
L 691 4666 
z
" id="DejaVuSans-35" transform="scale(0.015625)"/>
       </defs>
       <use xlink:href="#DejaVuSans-32"/>
       <use x="63.623047" xlink:href="#DejaVuSans-30"/>
       <use x="127.246094" xlink:href="#DejaVuSans-32"/>
       <use x="190.869141" xlink:href="#DejaVuSans-31"/>
       <use x="254.492188" xlink:href="#DejaVuSans-2d"/>
       <use x="290.576172" xlink:href="#DejaVuSans-30"/>
       <use x="354.199219" xlink:href="#DejaVuSans-35"/>
      </g>
     </g>
    </g>
    <g id="xtick_9">
     <g id="line2d_9">
      <g>
       <use style="stroke:#000000;stroke-width:0.8;" x="968.802195" xlink:href="#m10ea1f68b5" y="228.96"/>
      </g>
     </g>
     <g id="text_9">
      <!-- 2021-06 -->
      <g transform="translate(971.56157 277.742812)rotate(-90)scale(0.1 -0.1)">
       <defs>
        <path d="M 2113 2584 
Q 1688 2584 1439 2293 
Q 1191 2003 1191 1497 
Q 1191 994 1439 701 
Q 1688 409 2113 409 
Q 2538 409 2786 701 
Q 3034 994 3034 1497 
Q 3034 2003 2786 2293 
Q 2538 2584 2113 2584 
z
M 3366 4563 
L 3366 3988 
Q 3128 4100 2886 4159 
Q 2644 4219 2406 4219 
Q 1781 4219 1451 3797 
Q 1122 3375 1075 2522 
Q 1259 2794 1537 2939 
Q 1816 3084 2150 3084 
Q 2853 3084 3261 2657 
Q 3669 2231 3669 1497 
Q 3669 778 3244 343 
Q 2819 -91 2113 -91 
Q 1303 -91 875 529 
Q 447 1150 447 2328 
Q 447 3434 972 4092 
Q 1497 4750 2381 4750 
Q 2619 4750 2861 4703 
Q 3103 4656 3366 4563 
z
" id="DejaVuSans-36" transform="scale(0.015625)"/>
       </defs>
       <use xlink:href="#DejaVuSans-32"/>
       <use x="63.623047" xlink:href="#DejaVuSans-30"/>
       <use x="127.246094" xlink:href="#DejaVuSans-32"/>
       <use x="190.869141" xlink:href="#DejaVuSans-31"/>
       <use x="254.492188" xlink:href="#DejaVuSans-2d"/>
       <use x="290.576172" xlink:href="#DejaVuSans-30"/>
       <use x="354.199219" xlink:href="#DejaVuSans-36"/>
      </g>
     </g>
    </g>
    <g id="xtick_10">
     <g id="line2d_10">
      <g>
       <use style="stroke:#000000;stroke-width:0.8;" x="1070.937643" xlink:href="#m10ea1f68b5" y="228.96"/>
      </g>
     </g>
     <g id="text_10">
      <!-- 2021-07 -->
      <g transform="translate(1073.697018 277.742812)rotate(-90)scale(0.1 -0.1)">
       <defs>
        <path d="M 525 4666 
L 3525 4666 
L 3525 4397 
L 1831 0 
L 1172 0 
L 2766 4134 
L 525 4134 
L 525 4666 
z
" id="DejaVuSans-37" transform="scale(0.015625)"/>
       </defs>
       <use xlink:href="#DejaVuSans-32"/>
       <use x="63.623047" xlink:href="#DejaVuSans-30"/>
       <use x="127.246094" xlink:href="#DejaVuSans-32"/>
       <use x="190.869141" xlink:href="#DejaVuSans-31"/>
       <use x="254.492188" xlink:href="#DejaVuSans-2d"/>
       <use x="290.576172" xlink:href="#DejaVuSans-30"/>
       <use x="354.199219" xlink:href="#DejaVuSans-37"/>
      </g>
     </g>
    </g>
    <g id="text_11">
     <!-- Date -->
     <g transform="translate(599.377344 289.34125)scale(0.1 -0.1)">
      <defs>
       <path d="M 1259 4147 
L 1259 519 
L 2022 519 
Q 2988 519 3436 956 
Q 3884 1394 3884 2338 
Q 3884 3275 3436 3711 
Q 2988 4147 2022 4147 
L 1259 4147 
z
M 628 4666 
L 1925 4666 
Q 3281 4666 3915 4102 
Q 4550 3538 4550 2338 
Q 4550 1131 3912 565 
Q 3275 0 1925 0 
L 628 0 
L 628 4666 
z
" id="DejaVuSans-44" transform="scale(0.015625)"/>
       <path d="M 2194 1759 
Q 1497 1759 1228 1600 
Q 959 1441 959 1056 
Q 959 750 1161 570 
Q 1363 391 1709 391 
Q 2188 391 2477 730 
Q 2766 1069 2766 1631 
L 2766 1759 
L 2194 1759 
z
M 3341 1997 
L 3341 0 
L 2766 0 
L 2766 531 
Q 2569 213 2275 61 
Q 1981 -91 1556 -91 
Q 1019 -91 701 211 
Q 384 513 384 1019 
Q 384 1609 779 1909 
Q 1175 2209 1959 2209 
L 2766 2209 
L 2766 2266 
Q 2766 2663 2505 2880 
Q 2244 3097 1772 3097 
Q 1472 3097 1187 3025 
Q 903 2953 641 2809 
L 641 3341 
Q 956 3463 1253 3523 
Q 1550 3584 1831 3584 
Q 2591 3584 2966 3190 
Q 3341 2797 3341 1997 
z
" id="DejaVuSans-61" transform="scale(0.015625)"/>
       <path d="M 1172 4494 
L 1172 3500 
L 2356 3500 
L 2356 3053 
L 1172 3053 
L 1172 1153 
Q 1172 725 1289 603 
Q 1406 481 1766 481 
L 2356 481 
L 2356 0 
L 1766 0 
Q 1100 0 847 248 
Q 594 497 594 1153 
L 594 3053 
L 172 3053 
L 172 3500 
L 594 3500 
L 594 4494 
L 1172 4494 
z
" id="DejaVuSans-74" transform="scale(0.015625)"/>
       <path d="M 3597 1894 
L 3597 1613 
L 953 1613 
Q 991 1019 1311 708 
Q 1631 397 2203 397 
Q 2534 397 2845 478 
Q 3156 559 3463 722 
L 3463 178 
Q 3153 47 2828 -22 
Q 2503 -91 2169 -91 
Q 1331 -91 842 396 
Q 353 884 353 1716 
Q 353 2575 817 3079 
Q 1281 3584 2069 3584 
Q 2775 3584 3186 3129 
Q 3597 2675 3597 1894 
z
M 3022 2063 
Q 3016 2534 2758 2815 
Q 2500 3097 2075 3097 
Q 1594 3097 1305 2825 
Q 1016 2553 972 2059 
L 3022 2063 
z
" id="DejaVuSans-65" transform="scale(0.015625)"/>
      </defs>
      <use xlink:href="#DejaVuSans-44"/>
      <use x="77.001953" xlink:href="#DejaVuSans-61"/>
      <use x="138.28125" xlink:href="#DejaVuSans-74"/>
      <use x="177.490234" xlink:href="#DejaVuSans-65"/>
     </g>
    </g>
   </g>
   <g id="matplotlib.axis_2">
    <g id="ytick_1">
     <g id="line2d_11">
      <defs>
       <path d="M 0 0 
L -3.5 0 
" id="m1e7daa8bc3" style="stroke:#000000;stroke-width:0.8;"/>
      </defs>
      <g>
       <use style="stroke:#000000;stroke-width:0.8;" x="53.328125" xlink:href="#m1e7daa8bc3" y="228.96"/>
      </g>
     </g>
     <g id="text_12">
      <!-- 1 -->
      <g transform="translate(39.965625 232.759219)scale(0.1 -0.1)">
       <use xlink:href="#DejaVuSans-31"/>
      </g>
     </g>
    </g>
    <g id="ytick_2">
     <g id="line2d_12">
      <g>
       <use style="stroke:#000000;stroke-width:0.8;" x="53.328125" xlink:href="#m1e7daa8bc3" y="200.20518"/>
      </g>
     </g>
     <g id="text_13">
      <!-- 3 -->
      <g transform="translate(39.965625 204.004398)scale(0.1 -0.1)">
       <use xlink:href="#DejaVuSans-33"/>
      </g>
     </g>
    </g>
    <g id="ytick_3">
     <g id="line2d_13">
      <g>
       <use style="stroke:#000000;stroke-width:0.8;" x="53.328125" xlink:href="#m1e7daa8bc3" y="171.450359"/>
      </g>
     </g>
     <g id="text_14">
      <!-- 10 -->
      <g transform="translate(33.603125 175.249578)scale(0.1 -0.1)">
       <use xlink:href="#DejaVuSans-31"/>
       <use x="63.623047" xlink:href="#DejaVuSans-30"/>
      </g>
     </g>
    </g>
    <g id="ytick_4">
     <g id="line2d_14">
      <g>
       <use style="stroke:#000000;stroke-width:0.8;" x="53.328125" xlink:href="#m1e7daa8bc3" y="142.695539"/>
      </g>
     </g>
     <g id="text_15">
      <!-- 31 -->
      <g transform="translate(33.603125 146.494758)scale(0.1 -0.1)">
       <use xlink:href="#DejaVuSans-33"/>
       <use x="63.623047" xlink:href="#DejaVuSans-31"/>
      </g>
     </g>
    </g>
    <g id="ytick_5">
     <g id="line2d_15">
      <g>
       <use style="stroke:#000000;stroke-width:0.8;" x="53.328125" xlink:href="#m1e7daa8bc3" y="113.940719"/>
      </g>
     </g>
     <g id="text_16">
      <!-- 100 -->
      <g transform="translate(27.240625 117.739937)scale(0.1 -0.1)">
       <use xlink:href="#DejaVuSans-31"/>
       <use x="63.623047" xlink:href="#DejaVuSans-30"/>
       <use x="127.246094" xlink:href="#DejaVuSans-30"/>
      </g>
     </g>
    </g>
    <g id="ytick_6">
     <g id="line2d_16">
      <g>
       <use style="stroke:#000000;stroke-width:0.8;" x="53.328125" xlink:href="#m1e7daa8bc3" y="85.185898"/>
      </g>
     </g>
     <g id="text_17">
      <!-- 316 -->
      <g transform="translate(27.240625 88.985117)scale(0.1 -0.1)">
       <use xlink:href="#DejaVuSans-33"/>
       <use x="63.623047" xlink:href="#DejaVuSans-31"/>
       <use x="127.246094" xlink:href="#DejaVuSans-36"/>
      </g>
     </g>
    </g>
    <g id="ytick_7">
     <g id="line2d_17">
      <g>
       <use style="stroke:#000000;stroke-width:0.8;" x="53.328125" xlink:href="#m1e7daa8bc3" y="56.431078"/>
      </g>
     </g>
     <g id="text_18">
      <!-- 1000 -->
      <g transform="translate(20.878125 60.230297)scale(0.1 -0.1)">
       <use xlink:href="#DejaVuSans-31"/>
       <use x="63.623047" xlink:href="#DejaVuSans-30"/>
       <use x="127.246094" xlink:href="#DejaVuSans-30"/>
       <use x="190.869141" xlink:href="#DejaVuSans-30"/>
      </g>
     </g>
    </g>
    <g id="ytick_8">
     <g id="line2d_18">
      <g>
       <use style="stroke:#000000;stroke-width:0.8;" x="53.328125" xlink:href="#m1e7daa8bc3" y="27.676258"/>
      </g>
     </g>
     <g id="text_19">
      <!-- 3162 -->
      <g transform="translate(20.878125 31.475476)scale(0.1 -0.1)">
       <use xlink:href="#DejaVuSans-33"/>
       <use x="63.623047" xlink:href="#DejaVuSans-31"/>
       <use x="127.246094" xlink:href="#DejaVuSans-36"/>
       <use x="190.869141" xlink:href="#DejaVuSans-32"/>
      </g>
     </g>
    </g>
    <g id="text_20">
     <!-- Count (7 day rolling average) -->
     <g transform="translate(14.798437 191.547969)rotate(-90)scale(0.1 -0.1)">
      <defs>
       <path d="M 4122 4306 
L 4122 3641 
Q 3803 3938 3442 4084 
Q 3081 4231 2675 4231 
Q 1875 4231 1450 3742 
Q 1025 3253 1025 2328 
Q 1025 1406 1450 917 
Q 1875 428 2675 428 
Q 3081 428 3442 575 
Q 3803 722 4122 1019 
L 4122 359 
Q 3791 134 3420 21 
Q 3050 -91 2638 -91 
Q 1578 -91 968 557 
Q 359 1206 359 2328 
Q 359 3453 968 4101 
Q 1578 4750 2638 4750 
Q 3056 4750 3426 4639 
Q 3797 4528 4122 4306 
z
" id="DejaVuSans-43" transform="scale(0.015625)"/>
       <path d="M 1959 3097 
Q 1497 3097 1228 2736 
Q 959 2375 959 1747 
Q 959 1119 1226 758 
Q 1494 397 1959 397 
Q 2419 397 2687 759 
Q 2956 1122 2956 1747 
Q 2956 2369 2687 2733 
Q 2419 3097 1959 3097 
z
M 1959 3584 
Q 2709 3584 3137 3096 
Q 3566 2609 3566 1747 
Q 3566 888 3137 398 
Q 2709 -91 1959 -91 
Q 1206 -91 779 398 
Q 353 888 353 1747 
Q 353 2609 779 3096 
Q 1206 3584 1959 3584 
z
" id="DejaVuSans-6f" transform="scale(0.015625)"/>
       <path d="M 544 1381 
L 544 3500 
L 1119 3500 
L 1119 1403 
Q 1119 906 1312 657 
Q 1506 409 1894 409 
Q 2359 409 2629 706 
Q 2900 1003 2900 1516 
L 2900 3500 
L 3475 3500 
L 3475 0 
L 2900 0 
L 2900 538 
Q 2691 219 2414 64 
Q 2138 -91 1772 -91 
Q 1169 -91 856 284 
Q 544 659 544 1381 
z
M 1991 3584 
L 1991 3584 
z
" id="DejaVuSans-75" transform="scale(0.015625)"/>
       <path d="M 3513 2113 
L 3513 0 
L 2938 0 
L 2938 2094 
Q 2938 2591 2744 2837 
Q 2550 3084 2163 3084 
Q 1697 3084 1428 2787 
Q 1159 2491 1159 1978 
L 1159 0 
L 581 0 
L 581 3500 
L 1159 3500 
L 1159 2956 
Q 1366 3272 1645 3428 
Q 1925 3584 2291 3584 
Q 2894 3584 3203 3211 
Q 3513 2838 3513 2113 
z
" id="DejaVuSans-6e" transform="scale(0.015625)"/>
       <path id="DejaVuSans-20" transform="scale(0.015625)"/>
       <path d="M 1984 4856 
Q 1566 4138 1362 3434 
Q 1159 2731 1159 2009 
Q 1159 1288 1364 580 
Q 1569 -128 1984 -844 
L 1484 -844 
Q 1016 -109 783 600 
Q 550 1309 550 2009 
Q 550 2706 781 3412 
Q 1013 4119 1484 4856 
L 1984 4856 
z
" id="DejaVuSans-28" transform="scale(0.015625)"/>
       <path d="M 2906 2969 
L 2906 4863 
L 3481 4863 
L 3481 0 
L 2906 0 
L 2906 525 
Q 2725 213 2448 61 
Q 2172 -91 1784 -91 
Q 1150 -91 751 415 
Q 353 922 353 1747 
Q 353 2572 751 3078 
Q 1150 3584 1784 3584 
Q 2172 3584 2448 3432 
Q 2725 3281 2906 2969 
z
M 947 1747 
Q 947 1113 1208 752 
Q 1469 391 1925 391 
Q 2381 391 2643 752 
Q 2906 1113 2906 1747 
Q 2906 2381 2643 2742 
Q 2381 3103 1925 3103 
Q 1469 3103 1208 2742 
Q 947 2381 947 1747 
z
" id="DejaVuSans-64" transform="scale(0.015625)"/>
       <path d="M 2059 -325 
Q 1816 -950 1584 -1140 
Q 1353 -1331 966 -1331 
L 506 -1331 
L 506 -850 
L 844 -850 
Q 1081 -850 1212 -737 
Q 1344 -625 1503 -206 
L 1606 56 
L 191 3500 
L 800 3500 
L 1894 763 
L 2988 3500 
L 3597 3500 
L 2059 -325 
z
" id="DejaVuSans-79" transform="scale(0.015625)"/>
       <path d="M 2631 2963 
Q 2534 3019 2420 3045 
Q 2306 3072 2169 3072 
Q 1681 3072 1420 2755 
Q 1159 2438 1159 1844 
L 1159 0 
L 581 0 
L 581 3500 
L 1159 3500 
L 1159 2956 
Q 1341 3275 1631 3429 
Q 1922 3584 2338 3584 
Q 2397 3584 2469 3576 
Q 2541 3569 2628 3553 
L 2631 2963 
z
" id="DejaVuSans-72" transform="scale(0.015625)"/>
       <path d="M 603 4863 
L 1178 4863 
L 1178 0 
L 603 0 
L 603 4863 
z
" id="DejaVuSans-6c" transform="scale(0.015625)"/>
       <path d="M 603 3500 
L 1178 3500 
L 1178 0 
L 603 0 
L 603 3500 
z
M 603 4863 
L 1178 4863 
L 1178 4134 
L 603 4134 
L 603 4863 
z
" id="DejaVuSans-69" transform="scale(0.015625)"/>
       <path d="M 2906 1791 
Q 2906 2416 2648 2759 
Q 2391 3103 1925 3103 
Q 1463 3103 1205 2759 
Q 947 2416 947 1791 
Q 947 1169 1205 825 
Q 1463 481 1925 481 
Q 2391 481 2648 825 
Q 2906 1169 2906 1791 
z
M 3481 434 
Q 3481 -459 3084 -895 
Q 2688 -1331 1869 -1331 
Q 1566 -1331 1297 -1286 
Q 1028 -1241 775 -1147 
L 775 -588 
Q 1028 -725 1275 -790 
Q 1522 -856 1778 -856 
Q 2344 -856 2625 -561 
Q 2906 -266 2906 331 
L 2906 616 
Q 2728 306 2450 153 
Q 2172 0 1784 0 
Q 1141 0 747 490 
Q 353 981 353 1791 
Q 353 2603 747 3093 
Q 1141 3584 1784 3584 
Q 2172 3584 2450 3431 
Q 2728 3278 2906 2969 
L 2906 3500 
L 3481 3500 
L 3481 434 
z
" id="DejaVuSans-67" transform="scale(0.015625)"/>
       <path d="M 191 3500 
L 800 3500 
L 1894 563 
L 2988 3500 
L 3597 3500 
L 2284 0 
L 1503 0 
L 191 3500 
z
" id="DejaVuSans-76" transform="scale(0.015625)"/>
       <path d="M 513 4856 
L 1013 4856 
Q 1481 4119 1714 3412 
Q 1947 2706 1947 2009 
Q 1947 1309 1714 600 
Q 1481 -109 1013 -844 
L 513 -844 
Q 928 -128 1133 580 
Q 1338 1288 1338 2009 
Q 1338 2731 1133 3434 
Q 928 4138 513 4856 
z
" id="DejaVuSans-29" transform="scale(0.015625)"/>
      </defs>
      <use xlink:href="#DejaVuSans-43"/>
      <use x="69.824219" xlink:href="#DejaVuSans-6f"/>
      <use x="131.005859" xlink:href="#DejaVuSans-75"/>
      <use x="194.384766" xlink:href="#DejaVuSans-6e"/>
      <use x="257.763672" xlink:href="#DejaVuSans-74"/>
      <use x="296.972656" xlink:href="#DejaVuSans-20"/>
      <use x="328.759766" xlink:href="#DejaVuSans-28"/>
      <use x="367.773438" xlink:href="#DejaVuSans-37"/>
      <use x="431.396484" xlink:href="#DejaVuSans-20"/>
      <use x="463.183594" xlink:href="#DejaVuSans-64"/>
      <use x="526.660156" xlink:href="#DejaVuSans-61"/>
      <use x="587.939453" xlink:href="#DejaVuSans-79"/>
      <use x="647.119141" xlink:href="#DejaVuSans-20"/>
      <use x="678.90625" xlink:href="#DejaVuSans-72"/>
      <use x="717.769531" xlink:href="#DejaVuSans-6f"/>
      <use x="778.951172" xlink:href="#DejaVuSans-6c"/>
      <use x="806.734375" xlink:href="#DejaVuSans-6c"/>
      <use x="834.517578" xlink:href="#DejaVuSans-69"/>
      <use x="862.300781" xlink:href="#DejaVuSans-6e"/>
      <use x="925.679688" xlink:href="#DejaVuSans-67"/>
      <use x="989.15625" xlink:href="#DejaVuSans-20"/>
      <use x="1020.943359" xlink:href="#DejaVuSans-61"/>
      <use x="1082.222656" xlink:href="#DejaVuSans-76"/>
      <use x="1141.402344" xlink:href="#DejaVuSans-65"/>
      <use x="1202.925781" xlink:href="#DejaVuSans-72"/>
      <use x="1244.039062" xlink:href="#DejaVuSans-61"/>
      <use x="1305.318359" xlink:href="#DejaVuSans-67"/>
      <use x="1368.794922" xlink:href="#DejaVuSans-65"/>
      <use x="1430.318359" xlink:href="#DejaVuSans-29"/>
     </g>
    </g>
   </g>
   <g id="line2d_19">
    <path clip-path="url(#p6215c3f85a)" d="M 124.482487 220.051644 
L 127.887002 222.683141 
L 131.291517 225.624904 
L 134.696032 225.624904 
L 138.100547 222.683141 
L 141.505062 220.051644 
L 158.527637 220.051644 
L 161.932152 225.624904 
L 172.145697 225.624904 
L 175.550212 217.671165 
L 185.763756 217.671165 
L 189.168271 213.498803 
L 195.977301 213.498803 
L 199.381816 220.051644 
L 206.190846 220.051644 
L 209.595361 198.185832 
L 212.999876 194.335746 
L 216.404391 189.486482 
L 219.808906 186.059731 
L 223.213421 185.42739 
L 226.617936 184.208801 
L 230.022451 184.208801 
L 233.426966 194.335746 
L 236.831481 186.059731 
L 240.235996 184.810665 
L 243.640511 185.42739 
L 247.045026 168.429432 
L 250.44954 156.968743 
L 253.854055 155.60784 
L 257.25857 154.862229 
L 260.663085 144.735284 
L 264.0676 142.511116 
L 267.472115 142.849398 
L 270.87663 136.826106 
L 274.281145 137.367126 
L 277.68566 136.471828 
L 281.090175 133.103775 
L 284.49469 128.872367 
L 287.899205 120.329968 
L 291.30372 114.997488 
L 294.708235 115.372512 
L 298.11275 116.414138 
L 301.517265 113.237119 
L 304.92178 111.46312 
L 308.326295 114.047989 
L 311.73081 119.873353 
L 315.135325 120.283929 
L 318.539839 113.376263 
L 321.944354 112.620394 
L 325.348869 115.146823 
L 328.753384 118.337902 
L 332.157899 116.891403 
L 335.562414 114.775147 
L 338.966929 116.453564 
L 342.371444 126.11146 
L 349.180474 125.367557 
L 352.584989 122.595508 
L 355.989504 124.975986 
L 359.394019 120.654639 
L 362.798534 119.469418 
L 366.203049 119.247801 
L 369.607564 109.566075 
L 373.012079 104.124932 
L 376.416594 100.983263 
L 379.821109 86.194317 
L 383.225623 83.470184 
L 386.630138 81.311905 
L 390.034653 76.863111 
L 393.439168 73.864813 
L 400.248198 67.10269 
L 403.652713 67.162932 
L 407.057228 63.980461 
L 410.461743 62.797297 
L 413.866258 63.065761 
L 417.270773 63.07507 
L 420.675288 64.448229 
L 424.079803 66.210782 
L 427.484318 69.374551 
L 430.888833 74.496602 
L 434.293348 72.180391 
L 437.697863 71.040449 
L 441.102378 71.980101 
L 444.506893 66.36963 
L 447.911407 64.115991 
L 451.315922 61.702883 
L 454.720437 60.343682 
L 458.124952 57.243381 
L 461.529467 55.016172 
L 464.933982 52.101395 
L 468.338497 52.342567 
L 471.743012 52.813482 
L 475.147527 52.54941 
L 478.552042 50.385623 
L 481.956557 50.276624 
L 485.361072 50.427672 
L 488.765587 49.605271 
L 492.170102 47.380762 
L 498.979132 44.210739 
L 502.383647 42.838255 
L 505.788162 43.435423 
L 509.192677 42.611535 
L 512.597192 42.2429 
L 516.001706 42.708155 
L 519.406221 42.043549 
L 522.810736 42.392956 
L 529.619766 41.748466 
L 533.024281 42.417374 
L 536.428796 39.471087 
L 539.833311 38.072559 
L 543.237826 36.344253 
L 546.642341 35.006218 
L 553.451371 32.209127 
L 556.855886 31.95474 
L 560.260401 34.428865 
L 567.069431 38.812209 
L 570.473946 40.142243 
L 573.878461 43.446028 
L 577.282976 46.048548 
L 580.68749 46.105119 
L 587.49652 43.699768 
L 590.901035 42.265149 
L 594.30555 41.59631 
L 597.710065 40.233482 
L 601.11458 39.711069 
L 604.519095 38.509188 
L 607.92361 37.051821 
L 611.328125 36.023838 
L 614.73264 36.443428 
L 621.54167 36.862037 
L 628.3507 36.017535 
L 631.755215 37.025558 
L 635.15973 37.734407 
L 638.564245 37.529339 
L 641.96876 35.123003 
L 645.373274 35.139732 
L 648.777789 35.639102 
L 652.182304 36.659129 
L 655.586819 36.805056 
L 662.395849 36.135991 
L 665.800364 39.024577 
L 669.204879 39.088641 
L 672.609394 39.337554 
L 676.013909 40.577208 
L 679.418424 40.807107 
L 682.822939 40.616956 
L 686.227454 39.1136 
L 689.631969 36.774178 
L 693.036484 36.061693 
L 696.440999 34.876424 
L 703.250029 32.048656 
L 706.654544 31.511428 
L 713.463573 34.605439 
L 716.868088 35.846373 
L 720.272603 35.737069 
L 727.081633 35.280082 
L 730.486148 35.543063 
L 733.890663 35.266317 
L 737.295178 34.491043 
L 740.699693 33.527144 
L 744.104208 34.155353 
L 747.508723 34.918609 
L 750.913238 36.744961 
L 754.317753 37.549435 
L 757.722268 38.057166 
L 764.531298 41.228663 
L 767.935813 42.144032 
L 771.340328 43.264244 
L 774.744843 45.226396 
L 778.149357 46.697315 
L 781.553872 47.933187 
L 784.958387 49.670511 
L 788.362902 50.743902 
L 791.767417 52.721046 
L 795.171932 53.702719 
L 798.576447 54.295066 
L 801.980962 55.290768 
L 805.385477 55.706674 
L 808.789992 55.644363 
L 812.194507 56.112003 
L 815.599022 55.803911 
L 819.003537 56.423943 
L 822.408052 56.310059 
L 825.812567 57.03416 
L 829.217082 57.191831 
L 832.621597 56.779596 
L 836.026112 56.961162 
L 842.835141 58.544672 
L 846.239656 58.735673 
L 849.644171 58.700482 
L 853.048686 59.684752 
L 856.453201 60.502766 
L 863.262231 60.743309 
L 866.666746 61.127893 
L 870.071261 63.337141 
L 880.284806 63.845663 
L 883.689321 64.60117 
L 887.093836 64.859837 
L 890.498351 64.769995 
L 893.902866 64.198637 
L 897.307381 65.18192 
L 900.711896 66.348392 
L 904.116411 67.942629 
L 907.520925 69.059034 
L 910.92544 69.889042 
L 914.329955 70.345746 
L 917.73447 71.610469 
L 921.138985 73.686182 
L 924.5435 74.211408 
L 927.948015 74.904415 
L 931.35253 75.856799 
L 934.757045 76.153673 
L 938.16156 76.653767 
L 941.566075 77.576645 
L 944.97059 78.030006 
L 948.375105 78.708443 
L 951.77962 78.752009 
L 955.184135 77.886392 
L 958.58865 78.114872 
L 961.993165 78.208559 
L 965.39768 79.639669 
L 968.802195 79.28081 
L 975.611224 81.780038 
L 979.015739 82.774193 
L 982.420254 82.519385 
L 985.824769 83.010936 
L 989.229284 82.876849 
L 992.633799 85.533504 
L 996.038314 87.434649 
L 999.442829 90.913017 
L 1002.847344 95.78662 
L 1006.251859 101.498253 
L 1009.656374 106.871767 
L 1013.060889 115.830103 
L 1016.465404 120.468596 
L 1019.869919 126.169612 
L 1023.274434 129.26467 
L 1026.678949 127.118937 
L 1030.083464 127.855387 
L 1033.487979 127.607483 
L 1036.892494 127.669229 
L 1040.297008 129.067748 
L 1043.701523 133.027043 
L 1047.106038 133.884342 
L 1050.510553 137.550102 
L 1053.915068 135.778003 
L 1057.319583 135.438186 
L 1060.724098 136.122506 
L 1064.128613 138.390499 
L 1067.533128 139.06427 
L 1070.937643 139.958143 
L 1074.342158 141.847994 
L 1077.746673 146.379875 
L 1081.151188 146.379875 
L 1084.555703 149.142481 
L 1091.364733 156.376396 
L 1094.769248 161.323414 
L 1094.769248 161.323414 
" style="fill:none;stroke:#947383;stroke-linecap:square;stroke-width:2;"/>
   </g>
   <g id="line2d_20">
    <path clip-path="url(#p6215c3f85a)" d="M 104.055398 225.624904 
L 107.459913 228.96 
L 127.887002 228.96 
L 131.291517 225.624904 
L 151.718607 225.624904 
L 155.123122 228.96 
L 161.932152 228.96 
L 165.336667 225.624904 
L 168.741182 222.683141 
L 182.359242 222.683141 
L 185.763756 220.051644 
L 189.168271 222.683141 
L 192.572786 225.624904 
L 195.977301 222.683141 
L 199.381816 222.683141 
L 202.786331 220.051644 
L 206.190846 220.051644 
L 209.595361 222.683141 
L 212.999876 220.051644 
L 223.213421 220.051644 
L 226.617936 222.683141 
L 230.022451 220.051644 
L 233.426966 217.671165 
L 236.831481 220.051644 
L 240.235996 220.051644 
L 243.640511 222.683141 
L 247.045026 222.683141 
L 250.44954 220.051644 
L 253.854055 215.497959 
L 260.663085 215.497959 
L 264.0676 209.924699 
L 267.472115 209.924699 
L 270.87663 202.739517 
L 274.281145 188.058887 
L 277.68566 190.232094 
L 281.090175 191.00065 
L 284.49469 188.762486 
L 287.899205 189.486482 
L 291.30372 189.486482 
L 294.708235 193.459301 
L 298.11275 211.647873 
L 304.92178 208.312777 
L 311.73081 211.647873 
L 318.539839 211.647873 
L 321.944354 206.798609 
L 325.348869 205.371014 
L 328.753384 202.739517 
L 332.157899 205.371014 
L 335.562414 205.371014 
L 342.371444 202.739517 
L 345.775959 191.793609 
L 349.180474 192.612572 
L 355.989504 192.612572 
L 359.394019 191.793609 
L 362.798534 191.793609 
L 366.203049 192.612572 
L 369.607564 188.762486 
L 373.012079 188.762486 
L 376.416594 189.486482 
L 379.821109 184.208801 
L 383.225623 183.621101 
L 386.630138 181.399538 
L 390.034653 177.931942 
L 393.439168 168.747604 
L 396.843683 165.1735 
L 400.248198 160.389619 
L 403.652713 159.051292 
L 407.057228 155.232252 
L 410.461743 152.919643 
L 413.866258 149.288969 
L 417.270773 137.827104 
L 420.675288 132.798253 
L 424.079803 130.068261 
L 427.484318 128.742957 
L 430.888833 128.807578 
L 434.293348 127.058535 
L 437.697863 126.69916 
L 441.102378 122.696626 
L 444.506893 119.828148 
L 447.911407 117.174079 
L 451.315922 115.259412 
L 454.720437 114.336317 
L 458.124952 113.586441 
L 461.529467 112.117839 
L 464.933982 108.654544 
L 468.338497 107.006555 
L 471.743012 106.287193 
L 478.552042 98.192985 
L 481.956557 97.078624 
L 485.361072 95.66617 
L 488.765587 90.984073 
L 492.170102 90.268617 
L 495.574617 88.661882 
L 498.979132 88.05971 
L 502.383647 86.752665 
L 505.788162 85.763383 
L 509.192677 85.533504 
L 512.597192 82.117022 
L 519.406221 79.129843 
L 522.810736 78.328308 
L 526.215251 77.685038 
L 529.619766 77.460439 
L 533.024281 77.000944 
L 539.833311 72.970324 
L 543.237826 71.220412 
L 546.642341 69.724464 
L 550.046856 67.846643 
L 553.451371 67.195853 
L 556.855886 67.113632 
L 560.260401 63.559237 
L 567.069431 57.991673 
L 570.473946 56.069766 
L 573.878461 55.114138 
L 577.282976 54.50889 
L 580.68749 53.699521 
L 584.092005 50.181985 
L 587.49652 49.137308 
L 590.901035 48.861736 
L 594.30555 48.350511 
L 597.710065 46.930375 
L 601.11458 46.468803 
L 604.519095 46.495156 
L 607.92361 44.215115 
L 611.328125 43.180142 
L 614.73264 42.317815 
L 618.137155 40.9891 
L 621.54167 40.580991 
L 624.946185 40.520534 
L 628.3507 40.199927 
L 631.755215 38.309774 
L 635.15973 37.79355 
L 638.564245 36.056958 
L 641.96876 35.521428 
L 645.373274 34.717369 
L 648.777789 34.338834 
L 652.182304 33.762134 
L 655.586819 32.58121 
L 658.991334 30.706262 
L 662.395849 30.092239 
L 665.800364 29.591433 
L 672.609394 28.071963 
L 676.013909 27.780214 
L 679.418424 25.884813 
L 682.822939 25.519918 
L 686.227454 24.847013 
L 689.631969 23.834169 
L 693.036484 23.321884 
L 699.845514 22.815252 
L 706.654544 20.816095 
L 710.059058 20.560216 
L 713.463573 19.609471 
L 716.868088 19.527102 
L 720.272603 19.638896 
L 723.677118 19.53606 
L 727.081633 19.252605 
L 730.486148 19.950798 
L 737.295178 20.595032 
L 740.699693 19.924312 
L 744.104208 19.867297 
L 750.913238 20.150342 
L 754.317753 19.332456 
L 757.722268 19.508382 
L 761.126783 19.958252 
L 764.531298 21.324478 
L 771.340328 21.25807 
L 774.744843 24.235964 
L 778.149357 25.117466 
L 784.958387 23.961225 
L 788.362902 22.720698 
L 791.767417 21.896184 
L 795.171932 21.813069 
L 798.576447 18.923009 
L 801.980962 17.807076 
L 805.385477 17.769105 
L 808.789992 18.102944 
L 812.194507 17.76 
L 815.599022 18.003932 
L 819.003537 18.013892 
L 822.408052 18.860304 
L 825.812567 19.258243 
L 829.217082 19.204334 
L 832.621597 18.948454 
L 836.026112 19.036117 
L 842.835141 18.986669 
L 846.239656 18.527205 
L 849.644171 18.542072 
L 853.048686 19.156157 
L 856.453201 19.245359 
L 859.857716 19.486425 
L 863.262231 20.121976 
L 866.666746 20.095308 
L 870.071261 19.462051 
L 873.475776 20.399505 
L 876.880291 20.202987 
L 880.284806 20.635003 
L 883.689321 20.725385 
L 887.093836 20.4265 
L 890.498351 20.538163 
L 893.902866 21.163135 
L 897.307381 21.416516 
L 900.711896 22.149011 
L 904.116411 23.64911 
L 907.520925 24.540615 
L 924.5435 25.473387 
L 927.948015 25.190901 
L 934.757045 26.554289 
L 938.16156 27.059909 
L 941.566075 30.100941 
L 944.97059 31.042257 
L 948.375105 31.303123 
L 951.77962 31.854507 
L 955.184135 32.529085 
L 958.58865 32.77281 
L 961.993165 32.874026 
L 965.39768 34.296147 
L 968.802195 36.174016 
L 972.20671 37.847747 
L 975.611224 39.015692 
L 979.015739 39.848457 
L 985.824769 41.004487 
L 989.229284 44.397367 
L 992.633799 44.532164 
L 996.038314 45.269719 
L 1002.847344 46.147631 
L 1006.251859 47.084511 
L 1009.656374 47.567719 
L 1013.060889 51.676019 
L 1016.465404 54.741227 
L 1019.869919 57.247067 
L 1023.274434 59.102251 
L 1026.678949 61.509745 
L 1030.083464 62.084748 
L 1033.487979 62.291423 
L 1036.892494 66.830675 
L 1040.297008 66.917398 
L 1043.701523 67.516348 
L 1047.106038 69.32667 
L 1050.510553 70.868134 
L 1053.915068 72.100082 
L 1057.319583 72.859871 
L 1060.724098 75.540398 
L 1064.128613 80.03128 
L 1067.533128 82.887138 
L 1070.937643 82.702585 
L 1074.342158 85.763383 
L 1077.746673 87.632972 
L 1081.151188 89.106728 
L 1084.555703 93.909831 
L 1087.960218 100.045376 
L 1091.364733 104.907793 
L 1094.769248 116.453564 
L 1098.173763 120.514977 
L 1101.578278 122.344489 
L 1104.982792 123.836813 
L 1108.387307 129.067748 
L 1111.791822 137.642095 
L 1115.196337 143.423587 
L 1118.600852 156.769729 
L 1118.600852 156.769729 
" style="fill:none;stroke:#96c6ad;stroke-linecap:square;stroke-width:2;"/>
   </g>
   <g id="line2d_21">
    <path clip-path="url(#p6215c3f85a)" d="M 141.505062 225.624904 
L 144.909577 228.96 
L 250.44954 228.96 
L 253.854055 225.624904 
L 257.25857 222.683141 
L 260.663085 222.683141 
L 264.0676 220.051644 
L 267.472115 220.051644 
L 270.87663 215.497959 
L 274.281145 215.497959 
L 277.68566 217.671165 
L 284.49469 217.671165 
L 287.899205 220.051644 
L 291.30372 220.051644 
L 294.708235 225.624904 
L 301.517265 225.624904 
L 304.92178 228.96 
L 308.326295 225.624904 
L 311.73081 222.683141 
L 315.135325 220.051644 
L 318.539839 220.051644 
L 321.944354 215.497959 
L 325.348869 213.498803 
L 328.753384 213.498803 
L 332.157899 215.497959 
L 335.562414 217.671165 
L 338.966929 220.051644 
L 342.371444 220.051644 
L 345.775959 225.624904 
L 349.180474 220.051644 
L 352.584989 217.671165 
L 366.203049 217.671165 
L 369.607564 213.498803 
L 373.012079 220.051644 
L 376.416594 222.683141 
L 379.821109 220.051644 
L 386.630138 220.051644 
L 390.034653 217.671165 
L 393.439168 217.671165 
L 396.843683 211.647873 
L 400.248198 211.647873 
L 403.652713 206.798609 
L 407.057228 204.020625 
L 410.461743 201.520928 
L 413.866258 198.185832 
L 417.270773 198.185832 
L 420.675288 200.359039 
L 424.079803 196.186676 
L 427.484318 197.166257 
L 430.888833 199.248806 
L 434.293348 186.708498 
L 437.697863 184.810665 
L 444.506893 168.115263 
L 447.911407 164.087411 
L 451.315922 158.408095 
L 454.720437 157.371593 
L 458.124952 157.988318 
L 461.529467 155.046555 
L 464.933982 153.434633 
L 468.338497 150.647521 
L 471.743012 149.288969 
L 475.147527 147.585391 
L 478.552042 145.229876 
L 481.956557 144.858017 
L 485.361072 145.862217 
L 488.765587 143.307688 
L 492.170102 143.892636 
L 495.574617 143.540026 
L 498.979132 141.847994 
L 502.383647 141.095968 
L 505.788162 137.734428 
L 509.192677 136.559928 
L 512.597192 135.949661 
L 516.001706 134.283969 
L 519.406221 130.341974 
L 522.810736 129.529671 
L 526.215251 128.295229 
L 529.619766 128.486131 
L 533.024281 128.105776 
L 536.428796 127.118937 
L 539.833311 125.255052 
L 546.642341 121.221229 
L 550.046856 119.247801 
L 553.451371 118.723807 
L 556.855886 117.418945 
L 560.260401 114.336317 
L 563.664916 113.167837 
L 567.069431 112.620394 
L 573.878461 109.746408 
L 577.282976 108.741317 
L 580.68749 107.470352 
L 584.092005 105.664703 
L 587.49652 102.024085 
L 590.901035 99.023346 
L 594.30555 97.834696 
L 597.710065 96.0467 
L 601.11458 94.508963 
L 607.92361 92.7225 
L 611.328125 91.530807 
L 614.73264 91.472689 
L 618.137155 90.856318 
L 621.54167 90.034615 
L 624.946185 89.58654 
L 628.3507 88.275845 
L 631.755215 85.659675 
L 635.15973 83.49126 
L 638.564245 81.090663 
L 641.96876 79.112142 
L 645.373274 77.336528 
L 648.777789 75.779258 
L 652.182304 74.986782 
L 655.586819 73.728937 
L 658.991334 73.213656 
L 665.800364 69.416523 
L 669.204879 67.734189 
L 672.609394 67.146488 
L 676.013909 65.766123 
L 679.418424 62.912661 
L 682.822939 61.391964 
L 686.227454 60.318656 
L 689.631969 59.417928 
L 693.036484 57.776116 
L 696.440999 56.349148 
L 703.250029 54.548566 
L 706.654544 52.22772 
L 710.059058 50.7951 
L 713.463573 48.706743 
L 716.868088 47.445416 
L 720.272603 46.354135 
L 723.677118 45.572798 
L 727.081633 44.121215 
L 730.486148 43.05243 
L 733.890663 40.837666 
L 737.295178 39.771427 
L 747.508723 37.802011 
L 750.913238 36.647815 
L 757.722268 35.107805 
L 761.126783 33.515738 
L 764.531298 32.579837 
L 767.935813 32.382893 
L 771.340328 32.335259 
L 778.149357 30.450263 
L 781.553872 30.037611 
L 784.958387 29.991767 
L 788.362902 28.970607 
L 791.767417 28.0949 
L 795.171932 27.523214 
L 801.980962 26.707942 
L 805.385477 26.413372 
L 808.789992 26.371572 
L 815.599022 27.191249 
L 819.003537 27.74059 
L 822.408052 28.039886 
L 825.812567 28.470609 
L 839.430627 30.662989 
L 846.239656 30.500748 
L 853.048686 30.464136 
L 856.453201 30.175653 
L 859.857716 29.687859 
L 863.262231 29.56708 
L 866.666746 29.673188 
L 870.071261 29.490524 
L 873.475776 29.949713 
L 876.880291 30.269358 
L 880.284806 31.24188 
L 883.689321 32.392431 
L 887.093836 33.208305 
L 890.498351 33.884804 
L 893.902866 35.705926 
L 897.307381 36.604222 
L 900.711896 38.069138 
L 904.116411 39.1029 
L 907.520925 40.613168 
L 910.92544 41.220899 
L 914.329955 42.067628 
L 917.73447 43.552327 
L 921.138985 45.361174 
L 927.948015 48.250024 
L 938.16156 50.963655 
L 941.566075 53.174154 
L 944.97059 54.741227 
L 951.77962 58.297382 
L 955.184135 59.884709 
L 958.58865 60.849545 
L 961.993165 61.431163 
L 965.39768 66.26362 
L 968.802195 67.477449 
L 972.20671 69.237139 
L 975.611224 71.155991 
L 979.015739 72.26096 
L 982.420254 73.067372 
L 985.824769 73.255609 
L 989.229284 71.002054 
L 992.633799 74.298814 
L 996.038314 76.621716 
L 999.442829 77.24605 
L 1002.847344 77.419067 
L 1006.251859 78.234172 
L 1009.656374 78.526293 
L 1013.060889 79.766497 
L 1016.465404 80.12324 
L 1019.869919 80.114028 
L 1026.678949 82.509246 
L 1030.083464 82.825469 
L 1033.487979 83.323141 
L 1036.892494 82.907728 
L 1040.297008 83.218639 
L 1043.701523 82.794691 
L 1047.106038 84.50249 
L 1050.510553 86.812805 
L 1057.319583 88.314181 
L 1060.724098 92.343952 
L 1064.128613 96.717952 
L 1067.533128 104.882954 
L 1070.937643 110.019374 
L 1074.342158 115.372512 
L 1077.746673 119.291967 
L 1081.151188 124.372802 
L 1084.555703 135.607517 
L 1087.960218 144.491612 
L 1091.364733 148.996847 
L 1098.173763 161.323414 
L 1101.578278 164.354538 
L 1104.982792 165.734785 
L 1104.982792 165.734785 
" style="fill:none;stroke:#525886;stroke-linecap:square;stroke-width:2;"/>
   </g>
   <g id="line2d_22">
    <path clip-path="url(#p6215c3f85a)" d="M 437.697863 215.497959 
L 441.102378 220.051644 
L 444.506893 222.683141 
L 447.911407 213.498803 
L 451.315922 208.312777 
L 454.720437 208.312777 
L 458.124952 206.798609 
L 461.529467 206.798609 
L 464.933982 201.520928 
L 468.338497 200.359039 
L 471.743012 198.185832 
L 475.147527 198.185832 
L 478.552042 191.793609 
L 481.956557 191.00065 
L 488.765587 192.612572 
L 492.170102 188.058887 
L 495.574617 191.793609 
L 498.979132 191.793609 
L 502.383647 195.244069 
L 505.788162 197.166257 
L 509.192677 196.186676 
L 512.597192 198.185832 
L 516.001706 202.739517 
L 519.406221 201.520928 
L 522.810736 199.248806 
L 529.619766 197.166257 
L 533.024281 198.185832 
L 536.428796 197.166257 
L 539.833311 200.359039 
L 543.237826 200.359039 
L 546.642341 201.520928 
L 550.046856 205.371014 
L 553.451371 206.798609 
L 556.855886 205.371014 
L 560.260401 201.520928 
L 563.664916 201.520928 
L 567.069431 199.248806 
L 570.473946 200.359039 
L 573.878461 199.248806 
L 577.282976 199.248806 
L 580.68749 200.359039 
L 584.092005 198.185832 
L 587.49652 196.186676 
L 590.901035 196.186676 
L 594.30555 198.185832 
L 597.710065 196.186676 
L 601.11458 196.186676 
L 604.519095 195.244069 
L 607.92361 198.185832 
L 611.328125 194.335746 
L 614.73264 192.612572 
L 618.137155 182.485627 
L 621.54167 171.450359 
L 624.946185 170.74676 
L 628.3507 168.429432 
L 631.755215 167.498538 
L 635.15973 167.195793 
L 638.564245 167.498538 
L 641.96876 167.195793 
L 645.373274 172.919967 
L 648.777789 168.429432 
L 652.182304 168.429432 
L 655.586819 164.624552 
L 658.991334 164.087411 
L 662.395849 162.04741 
L 665.800364 164.354538 
L 669.204879 161.086672 
L 672.609394 163.302756 
L 676.013909 162.542003 
L 679.418424 159.935495 
L 682.822939 159.051292 
L 686.227454 156.182029 
L 689.631969 156.376396 
L 693.036484 160.619815 
L 696.440999 161.086672 
L 699.845514 162.04741 
L 703.250029 165.1735 
L 706.654544 163.561578 
L 710.059058 166.308974 
L 713.463573 164.624552 
L 716.868088 164.624552 
L 720.272603 163.046588 
L 723.677118 158.620659 
L 727.081633 153.09013 
L 730.486148 153.261787 
L 733.890663 154.138232 
L 737.295178 152.919643 
L 740.699693 152.582123 
L 744.104208 152.582123 
L 747.508723 156.769729 
L 750.913238 156.572289 
L 754.317753 151.757754 
L 757.722268 151.435477 
L 761.126783 152.919643 
L 764.531298 152.582123 
L 767.935813 152.084244 
L 771.340328 150.03458 
L 774.744843 151.275885 
L 778.149357 151.920465 
L 781.553872 152.084244 
L 784.958387 151.275885 
L 788.362902 149.436321 
L 791.767417 146.642784 
L 795.171932 146.379875 
L 798.576447 147.448535 
L 801.980962 147.448535 
L 805.385477 145.862217 
L 808.789992 145.229876 
L 812.194507 145.734462 
L 815.599022 148.708102 
L 819.003537 148.28115 
L 822.408052 149.288969 
L 829.217082 150.49287 
L 832.621597 150.49287 
L 836.026112 149.883666 
L 839.430627 149.883666 
L 842.835141 151.596096 
L 846.239656 151.596096 
L 849.644171 155.41934 
L 856.453201 159.711492 
L 859.857716 161.086672 
L 863.262231 162.293483 
L 866.666746 163.302756 
L 870.071261 163.046588 
L 873.475776 165.1735 
L 876.880291 164.087411 
L 880.284806 162.542003 
L 883.689321 162.04741 
L 887.093836 162.04741 
L 890.498351 160.852153 
L 893.902866 163.302756 
L 897.307381 161.803739 
L 900.711896 159.711492 
L 904.116411 161.803739 
L 907.520925 165.452566 
L 910.92544 165.452566 
L 914.329955 164.354538 
L 917.73447 163.046588 
L 921.138985 162.04741 
L 924.5435 162.542003 
L 927.948015 160.852153 
L 931.35253 160.161525 
L 934.757045 160.852153 
L 938.16156 163.823111 
L 941.566075 167.498538 
L 944.97059 164.087411 
L 948.375105 168.429432 
L 951.77962 170.402256 
L 955.184135 170.06244 
L 958.58865 170.74676 
L 961.993165 170.74676 
L 965.39768 172.544379 
L 968.802195 184.810665 
L 972.20671 186.708498 
L 975.611224 192.612572 
L 979.015739 196.186676 
L 985.824769 196.186676 
L 989.229284 194.335746 
L 992.633799 193.459301 
L 996.038314 189.486482 
L 999.442829 188.762486 
L 1002.847344 190.232094 
L 1006.251859 189.486482 
L 1009.656374 189.486482 
L 1013.060889 192.612572 
L 1016.465404 193.459301 
L 1019.869919 197.166257 
L 1023.274434 197.166257 
L 1026.678949 196.186676 
L 1030.083464 196.186676 
L 1033.487979 198.185832 
L 1036.892494 196.186676 
L 1040.297008 199.248806 
L 1043.701523 202.739517 
L 1047.106038 202.739517 
L 1050.510553 205.371014 
L 1053.915068 208.312777 
L 1057.319583 209.924699 
L 1060.724098 213.498803 
L 1060.724098 213.498803 
" style="fill:none;stroke:#937252;stroke-linecap:square;stroke-width:2;"/>
   </g>
   <g id="line2d_23">
    <path clip-path="url(#p6215c3f85a)" d="M 366.203049 225.624904 
L 369.607564 228.96 
L 373.012079 228.96 
L 376.416594 222.683141 
L 379.821109 222.683141 
L 383.225623 215.497959 
L 396.843683 215.497959 
L 400.248198 217.671165 
L 403.652713 217.671165 
L 407.057228 225.624904 
L 410.461743 217.671165 
L 413.866258 213.498803 
L 420.675288 213.498803 
L 424.079803 211.647873 
L 427.484318 211.647873 
L 430.888833 209.924699 
L 434.293348 209.924699 
L 437.697863 211.647873 
L 441.102378 209.924699 
L 444.506893 209.924699 
L 447.911407 211.647873 
L 451.315922 208.312777 
L 454.720437 198.185832 
L 458.124952 197.166257 
L 464.933982 199.248806 
L 468.338497 198.185832 
L 471.743012 193.459301 
L 478.552042 195.244069 
L 481.956557 195.244069 
L 485.361072 193.459301 
L 488.765587 191.00065 
L 492.170102 191.00065 
L 495.574617 193.459301 
L 498.979132 191.00065 
L 502.383647 194.335746 
L 505.788162 193.459301 
L 509.192677 194.335746 
L 512.597192 192.612572 
L 516.001706 192.612572 
L 519.406221 191.793609 
L 522.810736 191.793609 
L 526.215251 190.232094 
L 529.619766 190.232094 
L 533.024281 189.486482 
L 536.428796 192.612572 
L 539.833311 192.612572 
L 543.237826 193.459301 
L 546.642341 195.244069 
L 550.046856 199.248806 
L 553.451371 201.520928 
L 556.855886 202.739517 
L 560.260401 202.739517 
L 563.664916 201.520928 
L 567.069431 197.166257 
L 570.473946 199.248806 
L 573.878461 199.248806 
L 577.282976 202.739517 
L 580.68749 202.739517 
L 584.092005 200.359039 
L 587.49652 198.185832 
L 590.901035 206.798609 
L 594.30555 199.248806 
L 597.710065 196.186676 
L 601.11458 193.459301 
L 607.92361 193.459301 
L 611.328125 194.335746 
L 614.73264 193.459301 
L 618.137155 196.186676 
L 621.54167 198.185832 
L 624.946185 200.359039 
L 628.3507 195.244069 
L 631.755215 197.166257 
L 638.564245 195.244069 
L 645.373274 197.166257 
L 648.777789 193.459301 
L 652.182304 198.185832 
L 655.586819 197.166257 
L 658.991334 198.185832 
L 662.395849 193.459301 
L 665.800364 191.00065 
L 672.609394 192.612572 
L 676.013909 191.00065 
L 679.418424 188.762486 
L 682.822939 187.374567 
L 686.227454 191.00065 
L 689.631969 192.612572 
L 693.036484 187.374567 
L 696.440999 183.046912 
L 699.845514 181.936679 
L 703.250029 183.046912 
L 706.654544 184.810665 
L 710.059058 185.42739 
L 713.463573 183.046912 
L 716.868088 186.059731 
L 720.272603 191.793609 
L 723.677118 193.459301 
L 727.081633 190.232094 
L 730.486148 190.232094 
L 733.890663 187.374567 
L 737.295178 190.232094 
L 740.699693 191.793609 
L 744.104208 186.059731 
L 747.508723 186.059731 
L 750.913238 181.936679 
L 754.317753 180.873705 
L 757.722268 179.359537 
L 761.126783 178.398799 
L 764.531298 175.720222 
L 767.935813 177.023619 
L 771.340328 177.473652 
L 774.744843 180.358715 
L 778.149357 179.85413 
L 781.553872 182.485627 
L 784.958387 183.621101 
L 788.362902 186.708498 
L 791.767417 187.374567 
L 795.171932 184.208801 
L 798.576447 185.42739 
L 801.980962 181.936679 
L 805.385477 181.399538 
L 808.789992 180.358715 
L 812.194507 177.023619 
L 815.599022 174.481483 
L 822.408052 177.931942 
L 825.812567 175.300445 
L 832.621597 174.481483 
L 836.026112 176.581553 
L 839.430627 178.398799 
L 842.835141 176.147174 
L 846.239656 172.919967 
L 849.644171 177.023619 
L 853.048686 178.874549 
L 856.453201 179.85413 
L 859.857716 178.398799 
L 863.262231 181.399538 
L 866.666746 183.621101 
L 870.071261 186.059731 
L 873.475776 185.42739 
L 876.880291 183.046912 
L 880.284806 183.046912 
L 883.689321 185.42739 
L 887.093836 186.708498 
L 890.498351 189.486482 
L 893.902866 191.00065 
L 897.307381 191.793609 
L 900.711896 196.186676 
L 904.116411 197.166257 
L 907.520925 196.186676 
L 914.329955 196.186676 
L 917.73447 200.359039 
L 921.138985 208.312777 
L 924.5435 208.312777 
L 927.948015 213.498803 
L 931.35253 220.051644 
L 934.757045 220.051644 
L 938.16156 217.671165 
L 941.566075 217.671165 
L 944.97059 220.051644 
L 948.375105 215.497959 
L 958.58865 215.497959 
L 961.993165 217.671165 
L 965.39768 215.497959 
L 968.802195 211.647873 
L 972.20671 211.647873 
L 975.611224 208.312777 
L 979.015739 206.798609 
L 982.420254 202.739517 
L 985.824769 201.520928 
L 989.229284 199.248806 
L 992.633799 201.520928 
L 996.038314 204.020625 
L 999.442829 206.798609 
L 1002.847344 205.371014 
L 1006.251859 209.924699 
L 1009.656374 211.647873 
L 1013.060889 215.497959 
L 1016.465404 213.498803 
L 1019.869919 211.647873 
L 1023.274434 211.647873 
L 1026.678949 215.497959 
L 1030.083464 215.497959 
L 1033.487979 211.647873 
L 1036.892494 213.498803 
L 1040.297008 213.498803 
L 1043.701523 211.647873 
L 1050.510553 208.312777 
L 1053.915068 206.798609 
L 1057.319583 208.312777 
L 1060.724098 205.371014 
L 1064.128613 204.020625 
L 1067.533128 206.798609 
L 1070.937643 202.739517 
L 1074.342158 202.739517 
L 1077.746673 200.359039 
L 1081.151188 195.244069 
L 1087.960218 197.166257 
L 1091.364733 195.244069 
L 1094.769248 199.248806 
L 1098.173763 201.520928 
L 1101.578278 206.798609 
L 1104.982792 215.497959 
L 1108.387307 215.497959 
L 1108.387307 215.497959 
" style="fill:none;stroke:#d18cad;stroke-linecap:square;stroke-width:2;"/>
   </g>
   <g id="line2d_24">
    <path clip-path="url(#p6215c3f85a)" d="M 250.44954 225.624904 
L 253.854055 228.96 
L 294.708235 228.96 
L 298.11275 225.624904 
L 301.517265 222.683141 
L 308.326295 222.683141 
L 311.73081 220.051644 
L 318.539839 220.051644 
L 321.944354 222.683141 
L 332.157899 222.683141 
L 335.562414 217.671165 
L 338.966929 211.647873 
L 355.989504 211.647873 
L 359.394019 215.497959 
L 362.798534 222.683141 
L 366.203049 220.051644 
L 369.607564 217.671165 
L 373.012079 215.497959 
L 376.416594 215.497959 
L 379.821109 211.647873 
L 383.225623 213.498803 
L 386.630138 213.498803 
L 390.034653 211.647873 
L 393.439168 209.924699 
L 396.843683 209.924699 
L 400.248198 208.312777 
L 403.652713 205.371014 
L 407.057228 202.739517 
L 410.461743 196.186676 
L 413.866258 191.793609 
L 417.270773 185.42739 
L 420.675288 177.931942 
L 424.079803 175.300445 
L 427.484318 154.679253 
L 430.888833 152.582123 
L 434.293348 149.883666 
L 437.697863 144.981356 
L 441.102378 142.177354 
L 444.506893 140.468919 
L 447.911407 140.161202 
L 451.315922 146.119705 
L 454.720437 145.229876 
L 458.124952 141.957299 
L 461.529467 135.607517 
L 464.933982 128.55009 
L 468.338497 125.651058 
L 471.743012 124.318682 
L 475.147527 120.748183 
L 478.552042 120.192105 
L 481.956557 122.145475 
L 485.361072 127.54589 
L 488.765587 130.410874 
L 492.170102 131.324308 
L 495.574617 131.61222 
L 498.979132 135.863684 
L 502.383647 135.607517 
L 505.788162 133.413081 
L 509.192677 131.039677 
L 512.597192 133.726265 
L 516.001706 131.324308 
L 519.406221 127.423157 
L 522.810736 122.04656 
L 526.215251 120.936327 
L 533.024281 122.747339 
L 536.428796 122.696626 
L 539.833311 116.93159 
L 543.237826 113.271833 
L 546.642341 111.046574 
L 550.046856 109.716262 
L 553.451371 109.626041 
L 556.855886 105.870481 
L 560.260401 103.837572 
L 563.664916 99.399232 
L 567.069431 101.891585 
L 570.473946 105.333889 
L 573.878461 107.305674 
L 577.282976 107.142074 
L 580.68749 104.660503 
L 584.092005 103.980839 
L 587.49652 114.408922 
L 590.901035 114.518227 
L 594.30555 110.295356 
L 597.710065 109.003459 
L 601.11458 108.683434 
L 604.519095 114.554768 
L 607.92361 117.874197 
L 611.328125 116.178883 
L 614.73264 116.335473 
L 618.137155 121.221229 
L 621.54167 121.849897 
L 624.946185 119.071912 
L 628.3507 117.337056 
L 631.755215 112.15103 
L 635.15973 110.080441 
L 638.564245 107.775112 
L 641.96876 106.392467 
L 645.373274 106.156222 
L 648.777789 106.104025 
L 652.182304 101.781703 
L 655.586819 102.046237 
L 662.395849 100.645743 
L 665.800364 100.312723 
L 669.204879 98.383644 
L 672.609394 98.173999 
L 676.013909 101.00451 
L 679.418424 102.336012 
L 682.822939 102.538614 
L 689.631969 103.932992 
L 693.036484 102.834192 
L 696.440999 103.671459 
L 699.845514 102.157291 
L 703.250029 101.606892 
L 706.654544 99.200692 
L 710.059058 98.653034 
L 713.463573 97.279237 
L 716.868088 97.909699 
L 720.272603 96.861596 
L 727.081633 94.296816 
L 730.486148 96.807633 
L 733.890663 95.173261 
L 737.295178 94.888772 
L 740.699693 93.782157 
L 744.104208 91.823442 
L 747.508723 94.215698 
L 750.913238 93.607665 
L 754.317753 91.574485 
L 757.722268 90.21336 
L 761.126783 88.25032 
L 764.531298 86.537352 
L 767.935813 86.241353 
L 771.340328 79.450625 
L 774.744843 78.217094 
L 778.149357 78.44002 
L 781.553872 78.431409 
L 784.958387 78.234172 
L 788.362902 79.076777 
L 791.767417 79.450625 
L 795.171932 85.671177 
L 798.576447 84.867435 
L 801.980962 83.522909 
L 808.789992 83.798891 
L 812.194507 82.671958 
L 815.599022 82.297284 
L 822.408052 81.061949 
L 825.812567 80.513209 
L 829.217082 79.405825 
L 832.621597 78.962188 
L 836.026112 78.030006 
L 842.835141 77.493585 
L 846.239656 77.205032 
L 849.644171 77.410801 
L 853.048686 77.009075 
L 856.453201 77.810694 
L 859.857716 77.593291 
L 863.262231 76.726034 
L 866.666746 76.216624 
L 870.071261 77.693395 
L 873.475776 78.638896 
L 876.880291 79.839261 
L 880.284806 77.295361 
L 883.689321 76.83079 
L 887.093836 75.624893 
L 890.498351 75.563413 
L 893.902866 73.283617 
L 897.307381 72.040019 
L 900.711896 71.460226 
L 904.116411 71.940235 
L 907.520925 72.633593 
L 910.92544 74.19687 
L 914.329955 74.87453 
L 921.138985 77.743599 
L 924.5435 78.50038 
L 927.948015 79.957956 
L 931.35253 81.205849 
L 938.16156 83.981004 
L 941.566075 86.644777 
L 944.97059 87.042667 
L 948.375105 88.791899 
L 951.77962 90.785624 
L 955.184135 93.168926 
L 958.58865 93.845913 
L 961.993165 94.150993 
L 965.39768 95.752147 
L 968.802195 98.022628 
L 975.611224 100.962034 
L 979.015739 101.433295 
L 982.420254 103.319181 
L 985.824769 105.818877 
L 989.229284 111.366375 
L 992.633799 116.611892 
L 996.038314 123.678234 
L 999.442829 131.61222 
L 1002.847344 145.862217 
L 1006.251859 154.862229 
L 1009.656374 156.968743 
L 1013.060889 157.371593 
L 1016.465404 158.408095 
L 1019.869919 155.046555 
L 1023.274434 155.41934 
L 1026.678949 152.919643 
L 1030.083464 152.582123 
L 1033.487979 150.03458 
L 1036.892494 147.042411 
L 1040.297008 146.249451 
L 1043.701523 145.862217 
L 1047.106038 146.379875 
L 1050.510553 149.142481 
L 1053.915068 149.883666 
L 1057.319583 152.750313 
L 1060.724098 157.781046 
L 1064.128613 163.046588 
L 1067.533128 171.809734 
L 1070.937643 174.081856 
L 1074.342158 176.147174 
L 1077.746673 178.398799 
L 1081.151188 180.873705 
L 1084.555703 184.810665 
L 1087.960218 184.208801 
L 1091.364733 186.059731 
L 1094.769248 189.486482 
L 1098.173763 191.793609 
L 1101.578278 197.166257 
L 1104.982792 195.244069 
L 1108.387307 195.244069 
L 1111.791822 200.359039 
L 1115.196337 201.520928 
L 1118.600852 205.371014 
L 1118.600852 205.371014 
" style="fill:none;stroke:#a4a86f;stroke-linecap:square;stroke-width:2;"/>
   </g>
   <g id="line2d_25">
    <path clip-path="url(#p6215c3f85a)" d="M 349.180474 225.624904 
L 352.584989 228.96 
L 376.416594 228.96 
L 379.821109 225.624904 
L 400.248198 225.624904 
L 403.652713 228.96 
L 413.866258 228.96 
L 417.270773 222.683141 
L 420.675288 222.683141 
L 424.079803 220.051644 
L 434.293348 220.051644 
L 437.697863 217.671165 
L 441.102378 217.671165 
L 444.506893 211.647873 
L 451.315922 211.647873 
L 454.720437 205.371014 
L 458.124952 201.520928 
L 461.529467 197.166257 
L 464.933982 195.244069 
L 468.338497 193.459301 
L 471.743012 175.720222 
L 475.147527 164.897518 
L 478.552042 159.051292 
L 485.361072 156.572289 
L 488.765587 153.261787 
L 492.170102 152.084244 
L 495.574617 153.783955 
L 498.979132 158.620659 
L 502.383647 158.835047 
L 505.788162 159.489481 
L 509.192677 162.04741 
L 512.597192 164.897518 
L 516.001706 166.896674 
L 519.406221 173.301289 
L 522.810736 176.147174 
L 526.215251 186.708498 
L 529.619766 189.486482 
L 533.024281 188.058887 
L 536.428796 194.335746 
L 539.833311 194.335746 
L 543.237826 189.486482 
L 546.642341 181.399538 
L 550.046856 182.485627 
L 553.451371 182.485627 
L 556.855886 179.359537 
L 560.260401 175.720222 
L 563.664916 174.481483 
L 567.069431 173.688523 
L 570.473946 173.301289 
L 573.878461 170.06244 
L 577.282976 170.402256 
L 580.68749 173.301289 
L 584.092005 174.081856 
L 587.49652 168.429432 
L 590.901035 169.069881 
L 594.30555 171.450359 
L 597.710065 171.096082 
L 604.519095 171.096082 
L 607.92361 164.624552 
L 611.328125 171.096082 
L 614.73264 170.402256 
L 618.137155 171.450359 
L 621.54167 169.727185 
L 624.946185 169.396371 
L 628.3507 168.747604 
L 631.755215 178.874549 
L 635.15973 179.359537 
L 638.564245 178.398799 
L 641.96876 176.147174 
L 645.373274 175.720222 
L 648.777789 174.081856 
L 652.182304 171.809734 
L 655.586819 166.601095 
L 658.991334 159.711492 
L 662.395849 159.935495 
L 665.800364 158.408095 
L 669.204879 159.051292 
L 672.609394 158.197325 
L 676.013909 158.408095 
L 679.418424 159.711492 
L 682.822939 162.793022 
L 686.227454 161.323414 
L 689.631969 161.803739 
L 693.036484 162.542003 
L 696.440999 164.087411 
L 699.845514 163.823111 
L 703.250029 161.803739 
L 706.654544 161.562422 
L 710.059058 159.489481 
L 713.463573 158.835047 
L 716.868088 159.051292 
L 720.272603 157.57548 
L 723.677118 158.835047 
L 727.081633 160.852153 
L 730.486148 160.389619 
L 733.890663 163.046588 
L 737.295178 162.293483 
L 740.699693 163.046588 
L 744.104208 162.293483 
L 747.508723 160.161525 
L 750.913238 161.323414 
L 754.317753 162.793022 
L 757.722268 164.087411 
L 761.126783 164.354538 
L 764.531298 165.734785 
L 767.935813 167.498538 
L 771.340328 168.747604 
L 774.744843 170.74676 
L 778.149357 168.429432 
L 781.553872 168.429432 
L 784.958387 171.096082 
L 788.362902 167.195793 
L 791.767417 169.069881 
L 795.171932 168.115263 
L 798.576447 164.897518 
L 801.980962 168.115263 
L 805.385477 167.498538 
L 808.789992 165.734785 
L 812.194507 168.115263 
L 815.599022 167.195793 
L 822.408052 172.174355 
L 825.812567 171.096082 
L 829.217082 173.301289 
L 832.621597 177.931942 
L 836.026112 180.873705 
L 839.430627 179.359537 
L 842.835141 180.358715 
L 846.239656 178.398799 
L 849.644171 180.873705 
L 853.048686 178.874549 
L 856.453201 179.359537 
L 859.857716 178.398799 
L 863.262231 181.936679 
L 866.666746 178.874549 
L 870.071261 181.399538 
L 873.475776 179.85413 
L 876.880291 181.399538 
L 880.284806 179.359537 
L 883.689321 181.399538 
L 887.093836 178.874549 
L 890.498351 176.581553 
L 893.902866 173.688523 
L 897.307381 174.481483 
L 900.711896 174.481483 
L 904.116411 175.300445 
L 907.520925 174.081856 
L 910.92544 176.147174 
L 914.329955 181.399538 
L 917.73447 184.208801 
L 921.138985 182.485627 
L 924.5435 183.621101 
L 927.948015 185.42739 
L 931.35253 184.208801 
L 938.16156 184.208801 
L 941.566075 185.42739 
L 944.97059 190.232094 
L 948.375105 189.486482 
L 951.77962 185.42739 
L 955.184135 189.486482 
L 958.58865 189.486482 
L 961.993165 188.762486 
L 968.802195 190.232094 
L 972.20671 187.374567 
L 975.611224 188.058887 
L 979.015739 182.485627 
L 982.420254 181.399538 
L 985.824769 181.936679 
L 992.633799 181.936679 
L 996.038314 186.708498 
L 999.442829 193.459301 
L 1002.847344 201.520928 
L 1006.251859 204.020625 
L 1009.656374 204.020625 
L 1013.060889 202.739517 
L 1016.465404 199.248806 
L 1019.869919 200.359039 
L 1023.274434 198.185832 
L 1030.083464 200.359039 
L 1033.487979 200.359039 
L 1036.892494 206.798609 
L 1040.297008 215.497959 
L 1043.701523 217.671165 
L 1047.106038 220.051644 
L 1050.510553 220.051644 
L 1053.915068 213.498803 
L 1057.319583 211.647873 
L 1060.724098 211.647873 
L 1064.128613 208.312777 
L 1064.128613 208.312777 
" style="fill:none;stroke:#d3d3d3;stroke-linecap:square;stroke-width:2;"/>
   </g>
   <g id="patch_3">
    <path d="M 53.328125 228.96 
L 53.328125 7.2 
" style="fill:none;stroke:#000000;stroke-linecap:square;stroke-linejoin:miter;stroke-width:0.8;"/>
   </g>
   <g id="patch_4">
    <path d="M 53.328125 228.96 
L 1169.328125 228.96 
" style="fill:none;stroke:#000000;stroke-linecap:square;stroke-linejoin:miter;stroke-width:0.8;"/>
   </g>
   <g id="legend_1">
    <g id="line2d_26">
     <path d="M 60.528125 17.67875 
L 76.528125 17.67875 
" style="fill:none;stroke:#947383;stroke-linecap:square;stroke-width:2;"/>
    </g>
    <g id="line2d_27"/>
    <g id="text_21">
     <!-- United Kingdom -->
     <g transform="translate(82.928125 20.47875)scale(0.08 -0.08)">
      <defs>
       <path d="M 556 4666 
L 1191 4666 
L 1191 1831 
Q 1191 1081 1462 751 
Q 1734 422 2344 422 
Q 2950 422 3222 751 
Q 3494 1081 3494 1831 
L 3494 4666 
L 4128 4666 
L 4128 1753 
Q 4128 841 3676 375 
Q 3225 -91 2344 -91 
Q 1459 -91 1007 375 
Q 556 841 556 1753 
L 556 4666 
z
" id="DejaVuSans-55" transform="scale(0.015625)"/>
       <path d="M 628 4666 
L 1259 4666 
L 1259 2694 
L 3353 4666 
L 4166 4666 
L 1850 2491 
L 4331 0 
L 3500 0 
L 1259 2247 
L 1259 0 
L 628 0 
L 628 4666 
z
" id="DejaVuSans-4b" transform="scale(0.015625)"/>
       <path d="M 3328 2828 
Q 3544 3216 3844 3400 
Q 4144 3584 4550 3584 
Q 5097 3584 5394 3201 
Q 5691 2819 5691 2113 
L 5691 0 
L 5113 0 
L 5113 2094 
Q 5113 2597 4934 2840 
Q 4756 3084 4391 3084 
Q 3944 3084 3684 2787 
Q 3425 2491 3425 1978 
L 3425 0 
L 2847 0 
L 2847 2094 
Q 2847 2600 2669 2842 
Q 2491 3084 2119 3084 
Q 1678 3084 1418 2786 
Q 1159 2488 1159 1978 
L 1159 0 
L 581 0 
L 581 3500 
L 1159 3500 
L 1159 2956 
Q 1356 3278 1631 3431 
Q 1906 3584 2284 3584 
Q 2666 3584 2933 3390 
Q 3200 3197 3328 2828 
z
" id="DejaVuSans-6d" transform="scale(0.015625)"/>
      </defs>
      <use xlink:href="#DejaVuSans-55"/>
      <use x="73.193359" xlink:href="#DejaVuSans-6e"/>
      <use x="136.572266" xlink:href="#DejaVuSans-69"/>
      <use x="164.355469" xlink:href="#DejaVuSans-74"/>
      <use x="203.564453" xlink:href="#DejaVuSans-65"/>
      <use x="265.087891" xlink:href="#DejaVuSans-64"/>
      <use x="328.564453" xlink:href="#DejaVuSans-20"/>
      <use x="360.351562" xlink:href="#DejaVuSans-4b"/>
      <use x="425.927734" xlink:href="#DejaVuSans-69"/>
      <use x="453.710938" xlink:href="#DejaVuSans-6e"/>
      <use x="517.089844" xlink:href="#DejaVuSans-67"/>
      <use x="580.566406" xlink:href="#DejaVuSans-64"/>
      <use x="644.042969" xlink:href="#DejaVuSans-6f"/>
      <use x="705.224609" xlink:href="#DejaVuSans-6d"/>
     </g>
    </g>
    <g id="line2d_28">
     <path d="M 60.528125 29.42125 
L 76.528125 29.42125 
" style="fill:none;stroke:#96c6ad;stroke-linecap:square;stroke-width:2;"/>
    </g>
    <g id="line2d_29"/>
    <g id="text_22">
     <!-- Europe -->
     <g transform="translate(82.928125 32.22125)scale(0.08 -0.08)">
      <defs>
       <path d="M 628 4666 
L 3578 4666 
L 3578 4134 
L 1259 4134 
L 1259 2753 
L 3481 2753 
L 3481 2222 
L 1259 2222 
L 1259 531 
L 3634 531 
L 3634 0 
L 628 0 
L 628 4666 
z
" id="DejaVuSans-45" transform="scale(0.015625)"/>
       <path d="M 1159 525 
L 1159 -1331 
L 581 -1331 
L 581 3500 
L 1159 3500 
L 1159 2969 
Q 1341 3281 1617 3432 
Q 1894 3584 2278 3584 
Q 2916 3584 3314 3078 
Q 3713 2572 3713 1747 
Q 3713 922 3314 415 
Q 2916 -91 2278 -91 
Q 1894 -91 1617 61 
Q 1341 213 1159 525 
z
M 3116 1747 
Q 3116 2381 2855 2742 
Q 2594 3103 2138 3103 
Q 1681 3103 1420 2742 
Q 1159 2381 1159 1747 
Q 1159 1113 1420 752 
Q 1681 391 2138 391 
Q 2594 391 2855 752 
Q 3116 1113 3116 1747 
z
" id="DejaVuSans-70" transform="scale(0.015625)"/>
      </defs>
      <use xlink:href="#DejaVuSans-45"/>
      <use x="63.183594" xlink:href="#DejaVuSans-75"/>
      <use x="126.5625" xlink:href="#DejaVuSans-72"/>
      <use x="165.425781" xlink:href="#DejaVuSans-6f"/>
      <use x="226.607422" xlink:href="#DejaVuSans-70"/>
      <use x="290.083984" xlink:href="#DejaVuSans-65"/>
     </g>
    </g>
    <g id="line2d_30">
     <path d="M 60.528125 41.16375 
L 76.528125 41.16375 
" style="fill:none;stroke:#525886;stroke-linecap:square;stroke-width:2;"/>
    </g>
    <g id="line2d_31"/>
    <g id="text_23">
     <!-- North America -->
     <g transform="translate(82.928125 43.96375)scale(0.08 -0.08)">
      <defs>
       <path d="M 628 4666 
L 1478 4666 
L 3547 763 
L 3547 4666 
L 4159 4666 
L 4159 0 
L 3309 0 
L 1241 3903 
L 1241 0 
L 628 0 
L 628 4666 
z
" id="DejaVuSans-4e" transform="scale(0.015625)"/>
       <path d="M 3513 2113 
L 3513 0 
L 2938 0 
L 2938 2094 
Q 2938 2591 2744 2837 
Q 2550 3084 2163 3084 
Q 1697 3084 1428 2787 
Q 1159 2491 1159 1978 
L 1159 0 
L 581 0 
L 581 4863 
L 1159 4863 
L 1159 2956 
Q 1366 3272 1645 3428 
Q 1925 3584 2291 3584 
Q 2894 3584 3203 3211 
Q 3513 2838 3513 2113 
z
" id="DejaVuSans-68" transform="scale(0.015625)"/>
       <path d="M 2188 4044 
L 1331 1722 
L 3047 1722 
L 2188 4044 
z
M 1831 4666 
L 2547 4666 
L 4325 0 
L 3669 0 
L 3244 1197 
L 1141 1197 
L 716 0 
L 50 0 
L 1831 4666 
z
" id="DejaVuSans-41" transform="scale(0.015625)"/>
       <path d="M 3122 3366 
L 3122 2828 
Q 2878 2963 2633 3030 
Q 2388 3097 2138 3097 
Q 1578 3097 1268 2742 
Q 959 2388 959 1747 
Q 959 1106 1268 751 
Q 1578 397 2138 397 
Q 2388 397 2633 464 
Q 2878 531 3122 666 
L 3122 134 
Q 2881 22 2623 -34 
Q 2366 -91 2075 -91 
Q 1284 -91 818 406 
Q 353 903 353 1747 
Q 353 2603 823 3093 
Q 1294 3584 2113 3584 
Q 2378 3584 2631 3529 
Q 2884 3475 3122 3366 
z
" id="DejaVuSans-63" transform="scale(0.015625)"/>
      </defs>
      <use xlink:href="#DejaVuSans-4e"/>
      <use x="74.804688" xlink:href="#DejaVuSans-6f"/>
      <use x="135.986328" xlink:href="#DejaVuSans-72"/>
      <use x="177.099609" xlink:href="#DejaVuSans-74"/>
      <use x="216.308594" xlink:href="#DejaVuSans-68"/>
      <use x="279.6875" xlink:href="#DejaVuSans-20"/>
      <use x="311.474609" xlink:href="#DejaVuSans-41"/>
      <use x="379.882812" xlink:href="#DejaVuSans-6d"/>
      <use x="477.294922" xlink:href="#DejaVuSans-65"/>
      <use x="538.818359" xlink:href="#DejaVuSans-72"/>
      <use x="579.931641" xlink:href="#DejaVuSans-69"/>
      <use x="607.714844" xlink:href="#DejaVuSans-63"/>
      <use x="662.695312" xlink:href="#DejaVuSans-61"/>
     </g>
    </g>
    <g id="line2d_32">
     <path d="M 60.528125 52.90625 
L 76.528125 52.90625 
" style="fill:none;stroke:#937252;stroke-linecap:square;stroke-width:2;"/>
    </g>
    <g id="line2d_33"/>
    <g id="text_24">
     <!-- South America -->
     <g transform="translate(82.928125 55.70625)scale(0.08 -0.08)">
      <defs>
       <path d="M 3425 4513 
L 3425 3897 
Q 3066 4069 2747 4153 
Q 2428 4238 2131 4238 
Q 1616 4238 1336 4038 
Q 1056 3838 1056 3469 
Q 1056 3159 1242 3001 
Q 1428 2844 1947 2747 
L 2328 2669 
Q 3034 2534 3370 2195 
Q 3706 1856 3706 1288 
Q 3706 609 3251 259 
Q 2797 -91 1919 -91 
Q 1588 -91 1214 -16 
Q 841 59 441 206 
L 441 856 
Q 825 641 1194 531 
Q 1563 422 1919 422 
Q 2459 422 2753 634 
Q 3047 847 3047 1241 
Q 3047 1584 2836 1778 
Q 2625 1972 2144 2069 
L 1759 2144 
Q 1053 2284 737 2584 
Q 422 2884 422 3419 
Q 422 4038 858 4394 
Q 1294 4750 2059 4750 
Q 2388 4750 2728 4690 
Q 3069 4631 3425 4513 
z
" id="DejaVuSans-53" transform="scale(0.015625)"/>
      </defs>
      <use xlink:href="#DejaVuSans-53"/>
      <use x="63.476562" xlink:href="#DejaVuSans-6f"/>
      <use x="124.658203" xlink:href="#DejaVuSans-75"/>
      <use x="188.037109" xlink:href="#DejaVuSans-74"/>
      <use x="227.246094" xlink:href="#DejaVuSans-68"/>
      <use x="290.625" xlink:href="#DejaVuSans-20"/>
      <use x="322.412109" xlink:href="#DejaVuSans-41"/>
      <use x="390.820312" xlink:href="#DejaVuSans-6d"/>
      <use x="488.232422" xlink:href="#DejaVuSans-65"/>
      <use x="549.755859" xlink:href="#DejaVuSans-72"/>
      <use x="590.869141" xlink:href="#DejaVuSans-69"/>
      <use x="618.652344" xlink:href="#DejaVuSans-63"/>
      <use x="673.632812" xlink:href="#DejaVuSans-61"/>
     </g>
    </g>
    <g id="line2d_34">
     <path d="M 60.528125 64.64875 
L 76.528125 64.64875 
" style="fill:none;stroke:#d18cad;stroke-linecap:square;stroke-width:2;"/>
    </g>
    <g id="line2d_35"/>
    <g id="text_25">
     <!-- Oceania -->
     <g transform="translate(82.928125 67.44875)scale(0.08 -0.08)">
      <defs>
       <path d="M 2522 4238 
Q 1834 4238 1429 3725 
Q 1025 3213 1025 2328 
Q 1025 1447 1429 934 
Q 1834 422 2522 422 
Q 3209 422 3611 934 
Q 4013 1447 4013 2328 
Q 4013 3213 3611 3725 
Q 3209 4238 2522 4238 
z
M 2522 4750 
Q 3503 4750 4090 4092 
Q 4678 3434 4678 2328 
Q 4678 1225 4090 567 
Q 3503 -91 2522 -91 
Q 1538 -91 948 565 
Q 359 1222 359 2328 
Q 359 3434 948 4092 
Q 1538 4750 2522 4750 
z
" id="DejaVuSans-4f" transform="scale(0.015625)"/>
      </defs>
      <use xlink:href="#DejaVuSans-4f"/>
      <use x="78.710938" xlink:href="#DejaVuSans-63"/>
      <use x="133.691406" xlink:href="#DejaVuSans-65"/>
      <use x="195.214844" xlink:href="#DejaVuSans-61"/>
      <use x="256.494141" xlink:href="#DejaVuSans-6e"/>
      <use x="319.873047" xlink:href="#DejaVuSans-69"/>
      <use x="347.65625" xlink:href="#DejaVuSans-61"/>
     </g>
    </g>
    <g id="line2d_36">
     <path d="M 60.528125 76.39125 
L 76.528125 76.39125 
" style="fill:none;stroke:#a4a86f;stroke-linecap:square;stroke-width:2;"/>
    </g>
    <g id="line2d_37"/>
    <g id="text_26">
     <!-- Asia -->
     <g transform="translate(82.928125 79.19125)scale(0.08 -0.08)">
      <defs>
       <path d="M 2834 3397 
L 2834 2853 
Q 2591 2978 2328 3040 
Q 2066 3103 1784 3103 
Q 1356 3103 1142 2972 
Q 928 2841 928 2578 
Q 928 2378 1081 2264 
Q 1234 2150 1697 2047 
L 1894 2003 
Q 2506 1872 2764 1633 
Q 3022 1394 3022 966 
Q 3022 478 2636 193 
Q 2250 -91 1575 -91 
Q 1294 -91 989 -36 
Q 684 19 347 128 
L 347 722 
Q 666 556 975 473 
Q 1284 391 1588 391 
Q 1994 391 2212 530 
Q 2431 669 2431 922 
Q 2431 1156 2273 1281 
Q 2116 1406 1581 1522 
L 1381 1569 
Q 847 1681 609 1914 
Q 372 2147 372 2553 
Q 372 3047 722 3315 
Q 1072 3584 1716 3584 
Q 2034 3584 2315 3537 
Q 2597 3491 2834 3397 
z
" id="DejaVuSans-73" transform="scale(0.015625)"/>
      </defs>
      <use xlink:href="#DejaVuSans-41"/>
      <use x="68.408203" xlink:href="#DejaVuSans-73"/>
      <use x="120.507812" xlink:href="#DejaVuSans-69"/>
      <use x="148.291016" xlink:href="#DejaVuSans-61"/>
     </g>
    </g>
    <g id="line2d_38">
     <path d="M 60.528125 88.13375 
L 76.528125 88.13375 
" style="fill:none;stroke:#d3d3d3;stroke-linecap:square;stroke-width:2;"/>
    </g>
    <g id="line2d_39"/>
    <g id="text_27">
     <!-- Africa -->
     <g transform="translate(82.928125 90.93375)scale(0.08 -0.08)">
      <defs>
       <path d="M 2375 4863 
L 2375 4384 
L 1825 4384 
Q 1516 4384 1395 4259 
Q 1275 4134 1275 3809 
L 1275 3500 
L 2222 3500 
L 2222 3053 
L 1275 3053 
L 1275 0 
L 697 0 
L 697 3053 
L 147 3053 
L 147 3500 
L 697 3500 
L 697 3744 
Q 697 4328 969 4595 
Q 1241 4863 1831 4863 
L 2375 4863 
z
" id="DejaVuSans-66" transform="scale(0.015625)"/>
      </defs>
      <use xlink:href="#DejaVuSans-41"/>
      <use x="64.783203" xlink:href="#DejaVuSans-66"/>
      <use x="99.988281" xlink:href="#DejaVuSans-72"/>
      <use x="141.101562" xlink:href="#DejaVuSans-69"/>
      <use x="168.884766" xlink:href="#DejaVuSans-63"/>
      <use x="223.865234" xlink:href="#DejaVuSans-61"/>
     </g>
    </g>
   </g>
  </g>
 </g>
 <defs>
  <clipPath id="p6215c3f85a">
   <rect height="221.76" width="1116" x="53.328125" y="7.2"/>
  </clipPath>
 </defs>
</svg>
