<?xml version="1.0" encoding="utf-8" standalone="no"?>
<!DOCTYPE svg PUBLIC "-//W3C//DTD SVG 1.1//EN"
  "http://www.w3.org/Graphics/SVG/1.1/DTD/svg11.dtd">
<svg height="298.620937pt" version="1.1" viewBox="0 0 1176.528125 298.620937" width="1176.528125pt" xmlns="http://www.w3.org/2000/svg" xmlns:xlink="http://www.w3.org/1999/xlink">
 <metadata>
  <rdf:RDF xmlns:cc="http://creativecommons.org/ns#" xmlns:dc="http://purl.org/dc/elements/1.1/" xmlns:rdf="http://www.w3.org/1999/02/22-rdf-syntax-ns#">
   <cc:Work>
    <dc:type rdf:resource="http://purl.org/dc/dcmitype/StillImage"/>
    <dc:date>2021-10-23T13:47:34.172750</dc:date>
    <dc:format>image/svg+xml</dc:format>
    <dc:creator>
     <cc:Agent>
      <dc:title>Matplotlib v3.4.2, https://matplotlib.org/</dc:title>
     </cc:Agent>
    </dc:creator>
   </cc:Work>
  </rdf:RDF>
 </metadata>
 <defs>
  <style type="text/css">*{stroke-linecap:butt;stroke-linejoin:round;}</style>
 </defs>
 <g id="figure_1">
  <g id="patch_1">
   <path d="M 0 298.620937 
L 1176.528125 298.620937 
L 1176.528125 0 
L 0 0 
z
" style="fill:#ffffff;"/>
  </g>
  <g id="axes_1">
   <g id="patch_2">
    <path d="M 53.328125 228.96 
L 1169.328125 228.96 
L 1169.328125 7.2 
L 53.328125 7.2 
z
" style="fill:#ffffff;"/>
   </g>
   <g id="matplotlib.axis_1">
    <g id="xtick_1">
     <g id="line2d_1">
      <defs>
       <path d="M 0 0 
L 0 3.5 
" id="mcdf9d5f963" style="stroke:#000000;stroke-width:0.8;"/>
      </defs>
      <g>
       <use style="stroke:#000000;stroke-width:0.8;" x="73.770459" xlink:href="#mcdf9d5f963" y="228.96"/>
      </g>
     </g>
     <g id="text_1">
      <!-- 2020-09 -->
      <g transform="translate(76.529834 277.742812)rotate(-90)scale(0.1 -0.1)">
       <defs>
        <path d="M 1228 531 
L 3431 531 
L 3431 0 
L 469 0 
L 469 531 
Q 828 903 1448 1529 
Q 2069 2156 2228 2338 
Q 2531 2678 2651 2914 
Q 2772 3150 2772 3378 
Q 2772 3750 2511 3984 
Q 2250 4219 1831 4219 
Q 1534 4219 1204 4116 
Q 875 4013 500 3803 
L 500 4441 
Q 881 4594 1212 4672 
Q 1544 4750 1819 4750 
Q 2544 4750 2975 4387 
Q 3406 4025 3406 3419 
Q 3406 3131 3298 2873 
Q 3191 2616 2906 2266 
Q 2828 2175 2409 1742 
Q 1991 1309 1228 531 
z
" id="DejaVuSans-32" transform="scale(0.015625)"/>
        <path d="M 2034 4250 
Q 1547 4250 1301 3770 
Q 1056 3291 1056 2328 
Q 1056 1369 1301 889 
Q 1547 409 2034 409 
Q 2525 409 2770 889 
Q 3016 1369 3016 2328 
Q 3016 3291 2770 3770 
Q 2525 4250 2034 4250 
z
M 2034 4750 
Q 2819 4750 3233 4129 
Q 3647 3509 3647 2328 
Q 3647 1150 3233 529 
Q 2819 -91 2034 -91 
Q 1250 -91 836 529 
Q 422 1150 422 2328 
Q 422 3509 836 4129 
Q 1250 4750 2034 4750 
z
" id="DejaVuSans-30" transform="scale(0.015625)"/>
        <path d="M 313 2009 
L 1997 2009 
L 1997 1497 
L 313 1497 
L 313 2009 
z
" id="DejaVuSans-2d" transform="scale(0.015625)"/>
        <path d="M 703 97 
L 703 672 
Q 941 559 1184 500 
Q 1428 441 1663 441 
Q 2288 441 2617 861 
Q 2947 1281 2994 2138 
Q 2813 1869 2534 1725 
Q 2256 1581 1919 1581 
Q 1219 1581 811 2004 
Q 403 2428 403 3163 
Q 403 3881 828 4315 
Q 1253 4750 1959 4750 
Q 2769 4750 3195 4129 
Q 3622 3509 3622 2328 
Q 3622 1225 3098 567 
Q 2575 -91 1691 -91 
Q 1453 -91 1209 -44 
Q 966 3 703 97 
z
M 1959 2075 
Q 2384 2075 2632 2365 
Q 2881 2656 2881 3163 
Q 2881 3666 2632 3958 
Q 2384 4250 1959 4250 
Q 1534 4250 1286 3958 
Q 1038 3666 1038 3163 
Q 1038 2656 1286 2365 
Q 1534 2075 1959 2075 
z
" id="DejaVuSans-39" transform="scale(0.015625)"/>
       </defs>
       <use xlink:href="#DejaVuSans-32"/>
       <use x="63.623047" xlink:href="#DejaVuSans-30"/>
       <use x="127.246094" xlink:href="#DejaVuSans-32"/>
       <use x="190.869141" xlink:href="#DejaVuSans-30"/>
       <use x="254.492188" xlink:href="#DejaVuSans-2d"/>
       <use x="290.576172" xlink:href="#DejaVuSans-30"/>
       <use x="354.199219" xlink:href="#DejaVuSans-39"/>
      </g>
     </g>
    </g>
    <g id="xtick_2">
     <g id="line2d_2">
      <g>
       <use style="stroke:#000000;stroke-width:0.8;" x="227.718898" xlink:href="#mcdf9d5f963" y="228.96"/>
      </g>
     </g>
     <g id="text_2">
      <!-- 2020-11 -->
      <g transform="translate(230.478273 277.742812)rotate(-90)scale(0.1 -0.1)">
       <defs>
        <path d="M 794 531 
L 1825 531 
L 1825 4091 
L 703 3866 
L 703 4441 
L 1819 4666 
L 2450 4666 
L 2450 531 
L 3481 531 
L 3481 0 
L 794 0 
L 794 531 
z
" id="DejaVuSans-31" transform="scale(0.015625)"/>
       </defs>
       <use xlink:href="#DejaVuSans-32"/>
       <use x="63.623047" xlink:href="#DejaVuSans-30"/>
       <use x="127.246094" xlink:href="#DejaVuSans-32"/>
       <use x="190.869141" xlink:href="#DejaVuSans-30"/>
       <use x="254.492188" xlink:href="#DejaVuSans-2d"/>
       <use x="290.576172" xlink:href="#DejaVuSans-31"/>
       <use x="354.199219" xlink:href="#DejaVuSans-31"/>
      </g>
     </g>
    </g>
    <g id="xtick_3">
     <g id="line2d_3">
      <g>
       <use style="stroke:#000000;stroke-width:0.8;" x="381.667338" xlink:href="#mcdf9d5f963" y="228.96"/>
      </g>
     </g>
     <g id="text_3">
      <!-- 2021-01 -->
      <g transform="translate(384.426713 277.742812)rotate(-90)scale(0.1 -0.1)">
       <use xlink:href="#DejaVuSans-32"/>
       <use x="63.623047" xlink:href="#DejaVuSans-30"/>
       <use x="127.246094" xlink:href="#DejaVuSans-32"/>
       <use x="190.869141" xlink:href="#DejaVuSans-31"/>
       <use x="254.492188" xlink:href="#DejaVuSans-2d"/>
       <use x="290.576172" xlink:href="#DejaVuSans-30"/>
       <use x="354.199219" xlink:href="#DejaVuSans-31"/>
      </g>
     </g>
    </g>
    <g id="xtick_4">
     <g id="line2d_4">
      <g>
       <use style="stroke:#000000;stroke-width:0.8;" x="530.568288" xlink:href="#mcdf9d5f963" y="228.96"/>
      </g>
     </g>
     <g id="text_4">
      <!-- 2021-03 -->
      <g transform="translate(533.327663 277.742812)rotate(-90)scale(0.1 -0.1)">
       <defs>
        <path d="M 2597 2516 
Q 3050 2419 3304 2112 
Q 3559 1806 3559 1356 
Q 3559 666 3084 287 
Q 2609 -91 1734 -91 
Q 1441 -91 1130 -33 
Q 819 25 488 141 
L 488 750 
Q 750 597 1062 519 
Q 1375 441 1716 441 
Q 2309 441 2620 675 
Q 2931 909 2931 1356 
Q 2931 1769 2642 2001 
Q 2353 2234 1838 2234 
L 1294 2234 
L 1294 2753 
L 1863 2753 
Q 2328 2753 2575 2939 
Q 2822 3125 2822 3475 
Q 2822 3834 2567 4026 
Q 2313 4219 1838 4219 
Q 1578 4219 1281 4162 
Q 984 4106 628 3988 
L 628 4550 
Q 988 4650 1302 4700 
Q 1616 4750 1894 4750 
Q 2613 4750 3031 4423 
Q 3450 4097 3450 3541 
Q 3450 3153 3228 2886 
Q 3006 2619 2597 2516 
z
" id="DejaVuSans-33" transform="scale(0.015625)"/>
       </defs>
       <use xlink:href="#DejaVuSans-32"/>
       <use x="63.623047" xlink:href="#DejaVuSans-30"/>
       <use x="127.246094" xlink:href="#DejaVuSans-32"/>
       <use x="190.869141" xlink:href="#DejaVuSans-31"/>
       <use x="254.492188" xlink:href="#DejaVuSans-2d"/>
       <use x="290.576172" xlink:href="#DejaVuSans-30"/>
       <use x="354.199219" xlink:href="#DejaVuSans-33"/>
      </g>
     </g>
    </g>
    <g id="xtick_5">
     <g id="line2d_5">
      <g>
       <use style="stroke:#000000;stroke-width:0.8;" x="684.516727" xlink:href="#mcdf9d5f963" y="228.96"/>
      </g>
     </g>
     <g id="text_5">
      <!-- 2021-05 -->
      <g transform="translate(687.276102 277.742812)rotate(-90)scale(0.1 -0.1)">
       <defs>
        <path d="M 691 4666 
L 3169 4666 
L 3169 4134 
L 1269 4134 
L 1269 2991 
Q 1406 3038 1543 3061 
Q 1681 3084 1819 3084 
Q 2600 3084 3056 2656 
Q 3513 2228 3513 1497 
Q 3513 744 3044 326 
Q 2575 -91 1722 -91 
Q 1428 -91 1123 -41 
Q 819 9 494 109 
L 494 744 
Q 775 591 1075 516 
Q 1375 441 1709 441 
Q 2250 441 2565 725 
Q 2881 1009 2881 1497 
Q 2881 1984 2565 2268 
Q 2250 2553 1709 2553 
Q 1456 2553 1204 2497 
Q 953 2441 691 2322 
L 691 4666 
z
" id="DejaVuSans-35" transform="scale(0.015625)"/>
       </defs>
       <use xlink:href="#DejaVuSans-32"/>
       <use x="63.623047" xlink:href="#DejaVuSans-30"/>
       <use x="127.246094" xlink:href="#DejaVuSans-32"/>
       <use x="190.869141" xlink:href="#DejaVuSans-31"/>
       <use x="254.492188" xlink:href="#DejaVuSans-2d"/>
       <use x="290.576172" xlink:href="#DejaVuSans-30"/>
       <use x="354.199219" xlink:href="#DejaVuSans-35"/>
      </g>
     </g>
    </g>
    <g id="xtick_6">
     <g id="line2d_6">
      <g>
       <use style="stroke:#000000;stroke-width:0.8;" x="838.465167" xlink:href="#mcdf9d5f963" y="228.96"/>
      </g>
     </g>
     <g id="text_6">
      <!-- 2021-07 -->
      <g transform="translate(841.224542 277.742812)rotate(-90)scale(0.1 -0.1)">
       <defs>
        <path d="M 525 4666 
L 3525 4666 
L 3525 4397 
L 1831 0 
L 1172 0 
L 2766 4134 
L 525 4134 
L 525 4666 
z
" id="DejaVuSans-37" transform="scale(0.015625)"/>
       </defs>
       <use xlink:href="#DejaVuSans-32"/>
       <use x="63.623047" xlink:href="#DejaVuSans-30"/>
       <use x="127.246094" xlink:href="#DejaVuSans-32"/>
       <use x="190.869141" xlink:href="#DejaVuSans-31"/>
       <use x="254.492188" xlink:href="#DejaVuSans-2d"/>
       <use x="290.576172" xlink:href="#DejaVuSans-30"/>
       <use x="354.199219" xlink:href="#DejaVuSans-37"/>
      </g>
     </g>
    </g>
    <g id="xtick_7">
     <g id="line2d_7">
      <g>
       <use style="stroke:#000000;stroke-width:0.8;" x="994.937352" xlink:href="#mcdf9d5f963" y="228.96"/>
      </g>
     </g>
     <g id="text_7">
      <!-- 2021-09 -->
      <g transform="translate(997.696727 277.742812)rotate(-90)scale(0.1 -0.1)">
       <use xlink:href="#DejaVuSans-32"/>
       <use x="63.623047" xlink:href="#DejaVuSans-30"/>
       <use x="127.246094" xlink:href="#DejaVuSans-32"/>
       <use x="190.869141" xlink:href="#DejaVuSans-31"/>
       <use x="254.492188" xlink:href="#DejaVuSans-2d"/>
       <use x="290.576172" xlink:href="#DejaVuSans-30"/>
       <use x="354.199219" xlink:href="#DejaVuSans-39"/>
      </g>
     </g>
    </g>
    <g id="xtick_8">
     <g id="line2d_8">
      <g>
       <use style="stroke:#000000;stroke-width:0.8;" x="1148.885791" xlink:href="#mcdf9d5f963" y="228.96"/>
      </g>
     </g>
     <g id="text_8">
      <!-- 2021-11 -->
      <g transform="translate(1151.645166 277.742812)rotate(-90)scale(0.1 -0.1)">
       <use xlink:href="#DejaVuSans-32"/>
       <use x="63.623047" xlink:href="#DejaVuSans-30"/>
       <use x="127.246094" xlink:href="#DejaVuSans-32"/>
       <use x="190.869141" xlink:href="#DejaVuSans-31"/>
       <use x="254.492188" xlink:href="#DejaVuSans-2d"/>
       <use x="290.576172" xlink:href="#DejaVuSans-31"/>
       <use x="354.199219" xlink:href="#DejaVuSans-31"/>
      </g>
     </g>
    </g>
    <g id="text_9">
     <!-- Date -->
     <g transform="translate(599.377344 289.34125)scale(0.1 -0.1)">
      <defs>
       <path d="M 1259 4147 
L 1259 519 
L 2022 519 
Q 2988 519 3436 956 
Q 3884 1394 3884 2338 
Q 3884 3275 3436 3711 
Q 2988 4147 2022 4147 
L 1259 4147 
z
M 628 4666 
L 1925 4666 
Q 3281 4666 3915 4102 
Q 4550 3538 4550 2338 
Q 4550 1131 3912 565 
Q 3275 0 1925 0 
L 628 0 
L 628 4666 
z
" id="DejaVuSans-44" transform="scale(0.015625)"/>
       <path d="M 2194 1759 
Q 1497 1759 1228 1600 
Q 959 1441 959 1056 
Q 959 750 1161 570 
Q 1363 391 1709 391 
Q 2188 391 2477 730 
Q 2766 1069 2766 1631 
L 2766 1759 
L 2194 1759 
z
M 3341 1997 
L 3341 0 
L 2766 0 
L 2766 531 
Q 2569 213 2275 61 
Q 1981 -91 1556 -91 
Q 1019 -91 701 211 
Q 384 513 384 1019 
Q 384 1609 779 1909 
Q 1175 2209 1959 2209 
L 2766 2209 
L 2766 2266 
Q 2766 2663 2505 2880 
Q 2244 3097 1772 3097 
Q 1472 3097 1187 3025 
Q 903 2953 641 2809 
L 641 3341 
Q 956 3463 1253 3523 
Q 1550 3584 1831 3584 
Q 2591 3584 2966 3190 
Q 3341 2797 3341 1997 
z
" id="DejaVuSans-61" transform="scale(0.015625)"/>
       <path d="M 1172 4494 
L 1172 3500 
L 2356 3500 
L 2356 3053 
L 1172 3053 
L 1172 1153 
Q 1172 725 1289 603 
Q 1406 481 1766 481 
L 2356 481 
L 2356 0 
L 1766 0 
Q 1100 0 847 248 
Q 594 497 594 1153 
L 594 3053 
L 172 3053 
L 172 3500 
L 594 3500 
L 594 4494 
L 1172 4494 
z
" id="DejaVuSans-74" transform="scale(0.015625)"/>
       <path d="M 3597 1894 
L 3597 1613 
L 953 1613 
Q 991 1019 1311 708 
Q 1631 397 2203 397 
Q 2534 397 2845 478 
Q 3156 559 3463 722 
L 3463 178 
Q 3153 47 2828 -22 
Q 2503 -91 2169 -91 
Q 1331 -91 842 396 
Q 353 884 353 1716 
Q 353 2575 817 3079 
Q 1281 3584 2069 3584 
Q 2775 3584 3186 3129 
Q 3597 2675 3597 1894 
z
M 3022 2063 
Q 3016 2534 2758 2815 
Q 2500 3097 2075 3097 
Q 1594 3097 1305 2825 
Q 1016 2553 972 2059 
L 3022 2063 
z
" id="DejaVuSans-65" transform="scale(0.015625)"/>
      </defs>
      <use xlink:href="#DejaVuSans-44"/>
      <use x="77.001953" xlink:href="#DejaVuSans-61"/>
      <use x="138.28125" xlink:href="#DejaVuSans-74"/>
      <use x="177.490234" xlink:href="#DejaVuSans-65"/>
     </g>
    </g>
   </g>
   <g id="matplotlib.axis_2">
    <g id="ytick_1">
     <g id="line2d_9">
      <defs>
       <path d="M 0 0 
L -3.5 0 
" id="m5a933b4ca9" style="stroke:#000000;stroke-width:0.8;"/>
      </defs>
      <g>
       <use style="stroke:#000000;stroke-width:0.8;" x="53.328125" xlink:href="#m5a933b4ca9" y="228.96"/>
      </g>
     </g>
     <g id="text_10">
      <!-- 1 -->
      <g transform="translate(39.965625 232.759219)scale(0.1 -0.1)">
       <use xlink:href="#DejaVuSans-31"/>
      </g>
     </g>
    </g>
    <g id="ytick_2">
     <g id="line2d_10">
      <g>
       <use style="stroke:#000000;stroke-width:0.8;" x="53.328125" xlink:href="#m5a933b4ca9" y="200.815209"/>
      </g>
     </g>
     <g id="text_11">
      <!-- 3 -->
      <g transform="translate(39.965625 204.614428)scale(0.1 -0.1)">
       <use xlink:href="#DejaVuSans-33"/>
      </g>
     </g>
    </g>
    <g id="ytick_3">
     <g id="line2d_11">
      <g>
       <use style="stroke:#000000;stroke-width:0.8;" x="53.328125" xlink:href="#m5a933b4ca9" y="172.670419"/>
      </g>
     </g>
     <g id="text_12">
      <!-- 10 -->
      <g transform="translate(33.603125 176.469637)scale(0.1 -0.1)">
       <use xlink:href="#DejaVuSans-31"/>
       <use x="63.623047" xlink:href="#DejaVuSans-30"/>
      </g>
     </g>
    </g>
    <g id="ytick_4">
     <g id="line2d_12">
      <g>
       <use style="stroke:#000000;stroke-width:0.8;" x="53.328125" xlink:href="#m5a933b4ca9" y="144.525628"/>
      </g>
     </g>
     <g id="text_13">
      <!-- 31 -->
      <g transform="translate(33.603125 148.324847)scale(0.1 -0.1)">
       <use xlink:href="#DejaVuSans-33"/>
       <use x="63.623047" xlink:href="#DejaVuSans-31"/>
      </g>
     </g>
    </g>
    <g id="ytick_5">
     <g id="line2d_13">
      <g>
       <use style="stroke:#000000;stroke-width:0.8;" x="53.328125" xlink:href="#m5a933b4ca9" y="116.380837"/>
      </g>
     </g>
     <g id="text_14">
      <!-- 100 -->
      <g transform="translate(27.240625 120.180056)scale(0.1 -0.1)">
       <use xlink:href="#DejaVuSans-31"/>
       <use x="63.623047" xlink:href="#DejaVuSans-30"/>
       <use x="127.246094" xlink:href="#DejaVuSans-30"/>
      </g>
     </g>
    </g>
    <g id="ytick_6">
     <g id="line2d_14">
      <g>
       <use style="stroke:#000000;stroke-width:0.8;" x="53.328125" xlink:href="#m5a933b4ca9" y="88.236047"/>
      </g>
     </g>
     <g id="text_15">
      <!-- 316 -->
      <g transform="translate(27.240625 92.035265)scale(0.1 -0.1)">
       <defs>
        <path d="M 2113 2584 
Q 1688 2584 1439 2293 
Q 1191 2003 1191 1497 
Q 1191 994 1439 701 
Q 1688 409 2113 409 
Q 2538 409 2786 701 
Q 3034 994 3034 1497 
Q 3034 2003 2786 2293 
Q 2538 2584 2113 2584 
z
M 3366 4563 
L 3366 3988 
Q 3128 4100 2886 4159 
Q 2644 4219 2406 4219 
Q 1781 4219 1451 3797 
Q 1122 3375 1075 2522 
Q 1259 2794 1537 2939 
Q 1816 3084 2150 3084 
Q 2853 3084 3261 2657 
Q 3669 2231 3669 1497 
Q 3669 778 3244 343 
Q 2819 -91 2113 -91 
Q 1303 -91 875 529 
Q 447 1150 447 2328 
Q 447 3434 972 4092 
Q 1497 4750 2381 4750 
Q 2619 4750 2861 4703 
Q 3103 4656 3366 4563 
z
" id="DejaVuSans-36" transform="scale(0.015625)"/>
       </defs>
       <use xlink:href="#DejaVuSans-33"/>
       <use x="63.623047" xlink:href="#DejaVuSans-31"/>
       <use x="127.246094" xlink:href="#DejaVuSans-36"/>
      </g>
     </g>
    </g>
    <g id="ytick_7">
     <g id="line2d_15">
      <g>
       <use style="stroke:#000000;stroke-width:0.8;" x="53.328125" xlink:href="#m5a933b4ca9" y="60.091256"/>
      </g>
     </g>
     <g id="text_16">
      <!-- 1000 -->
      <g transform="translate(20.878125 63.890475)scale(0.1 -0.1)">
       <use xlink:href="#DejaVuSans-31"/>
       <use x="63.623047" xlink:href="#DejaVuSans-30"/>
       <use x="127.246094" xlink:href="#DejaVuSans-30"/>
       <use x="190.869141" xlink:href="#DejaVuSans-30"/>
      </g>
     </g>
    </g>
    <g id="ytick_8">
     <g id="line2d_16">
      <g>
       <use style="stroke:#000000;stroke-width:0.8;" x="53.328125" xlink:href="#m5a933b4ca9" y="31.946465"/>
      </g>
     </g>
     <g id="text_17">
      <!-- 3162 -->
      <g transform="translate(20.878125 35.745684)scale(0.1 -0.1)">
       <use xlink:href="#DejaVuSans-33"/>
       <use x="63.623047" xlink:href="#DejaVuSans-31"/>
       <use x="127.246094" xlink:href="#DejaVuSans-36"/>
       <use x="190.869141" xlink:href="#DejaVuSans-32"/>
      </g>
     </g>
    </g>
    <g id="text_18">
     <!-- Count (7 day rolling average) -->
     <g transform="translate(14.798437 191.547969)rotate(-90)scale(0.1 -0.1)">
      <defs>
       <path d="M 4122 4306 
L 4122 3641 
Q 3803 3938 3442 4084 
Q 3081 4231 2675 4231 
Q 1875 4231 1450 3742 
Q 1025 3253 1025 2328 
Q 1025 1406 1450 917 
Q 1875 428 2675 428 
Q 3081 428 3442 575 
Q 3803 722 4122 1019 
L 4122 359 
Q 3791 134 3420 21 
Q 3050 -91 2638 -91 
Q 1578 -91 968 557 
Q 359 1206 359 2328 
Q 359 3453 968 4101 
Q 1578 4750 2638 4750 
Q 3056 4750 3426 4639 
Q 3797 4528 4122 4306 
z
" id="DejaVuSans-43" transform="scale(0.015625)"/>
       <path d="M 1959 3097 
Q 1497 3097 1228 2736 
Q 959 2375 959 1747 
Q 959 1119 1226 758 
Q 1494 397 1959 397 
Q 2419 397 2687 759 
Q 2956 1122 2956 1747 
Q 2956 2369 2687 2733 
Q 2419 3097 1959 3097 
z
M 1959 3584 
Q 2709 3584 3137 3096 
Q 3566 2609 3566 1747 
Q 3566 888 3137 398 
Q 2709 -91 1959 -91 
Q 1206 -91 779 398 
Q 353 888 353 1747 
Q 353 2609 779 3096 
Q 1206 3584 1959 3584 
z
" id="DejaVuSans-6f" transform="scale(0.015625)"/>
       <path d="M 544 1381 
L 544 3500 
L 1119 3500 
L 1119 1403 
Q 1119 906 1312 657 
Q 1506 409 1894 409 
Q 2359 409 2629 706 
Q 2900 1003 2900 1516 
L 2900 3500 
L 3475 3500 
L 3475 0 
L 2900 0 
L 2900 538 
Q 2691 219 2414 64 
Q 2138 -91 1772 -91 
Q 1169 -91 856 284 
Q 544 659 544 1381 
z
M 1991 3584 
L 1991 3584 
z
" id="DejaVuSans-75" transform="scale(0.015625)"/>
       <path d="M 3513 2113 
L 3513 0 
L 2938 0 
L 2938 2094 
Q 2938 2591 2744 2837 
Q 2550 3084 2163 3084 
Q 1697 3084 1428 2787 
Q 1159 2491 1159 1978 
L 1159 0 
L 581 0 
L 581 3500 
L 1159 3500 
L 1159 2956 
Q 1366 3272 1645 3428 
Q 1925 3584 2291 3584 
Q 2894 3584 3203 3211 
Q 3513 2838 3513 2113 
z
" id="DejaVuSans-6e" transform="scale(0.015625)"/>
       <path id="DejaVuSans-20" transform="scale(0.015625)"/>
       <path d="M 1984 4856 
Q 1566 4138 1362 3434 
Q 1159 2731 1159 2009 
Q 1159 1288 1364 580 
Q 1569 -128 1984 -844 
L 1484 -844 
Q 1016 -109 783 600 
Q 550 1309 550 2009 
Q 550 2706 781 3412 
Q 1013 4119 1484 4856 
L 1984 4856 
z
" id="DejaVuSans-28" transform="scale(0.015625)"/>
       <path d="M 2906 2969 
L 2906 4863 
L 3481 4863 
L 3481 0 
L 2906 0 
L 2906 525 
Q 2725 213 2448 61 
Q 2172 -91 1784 -91 
Q 1150 -91 751 415 
Q 353 922 353 1747 
Q 353 2572 751 3078 
Q 1150 3584 1784 3584 
Q 2172 3584 2448 3432 
Q 2725 3281 2906 2969 
z
M 947 1747 
Q 947 1113 1208 752 
Q 1469 391 1925 391 
Q 2381 391 2643 752 
Q 2906 1113 2906 1747 
Q 2906 2381 2643 2742 
Q 2381 3103 1925 3103 
Q 1469 3103 1208 2742 
Q 947 2381 947 1747 
z
" id="DejaVuSans-64" transform="scale(0.015625)"/>
       <path d="M 2059 -325 
Q 1816 -950 1584 -1140 
Q 1353 -1331 966 -1331 
L 506 -1331 
L 506 -850 
L 844 -850 
Q 1081 -850 1212 -737 
Q 1344 -625 1503 -206 
L 1606 56 
L 191 3500 
L 800 3500 
L 1894 763 
L 2988 3500 
L 3597 3500 
L 2059 -325 
z
" id="DejaVuSans-79" transform="scale(0.015625)"/>
       <path d="M 2631 2963 
Q 2534 3019 2420 3045 
Q 2306 3072 2169 3072 
Q 1681 3072 1420 2755 
Q 1159 2438 1159 1844 
L 1159 0 
L 581 0 
L 581 3500 
L 1159 3500 
L 1159 2956 
Q 1341 3275 1631 3429 
Q 1922 3584 2338 3584 
Q 2397 3584 2469 3576 
Q 2541 3569 2628 3553 
L 2631 2963 
z
" id="DejaVuSans-72" transform="scale(0.015625)"/>
       <path d="M 603 4863 
L 1178 4863 
L 1178 0 
L 603 0 
L 603 4863 
z
" id="DejaVuSans-6c" transform="scale(0.015625)"/>
       <path d="M 603 3500 
L 1178 3500 
L 1178 0 
L 603 0 
L 603 3500 
z
M 603 4863 
L 1178 4863 
L 1178 4134 
L 603 4134 
L 603 4863 
z
" id="DejaVuSans-69" transform="scale(0.015625)"/>
       <path d="M 2906 1791 
Q 2906 2416 2648 2759 
Q 2391 3103 1925 3103 
Q 1463 3103 1205 2759 
Q 947 2416 947 1791 
Q 947 1169 1205 825 
Q 1463 481 1925 481 
Q 2391 481 2648 825 
Q 2906 1169 2906 1791 
z
M 3481 434 
Q 3481 -459 3084 -895 
Q 2688 -1331 1869 -1331 
Q 1566 -1331 1297 -1286 
Q 1028 -1241 775 -1147 
L 775 -588 
Q 1028 -725 1275 -790 
Q 1522 -856 1778 -856 
Q 2344 -856 2625 -561 
Q 2906 -266 2906 331 
L 2906 616 
Q 2728 306 2450 153 
Q 2172 0 1784 0 
Q 1141 0 747 490 
Q 353 981 353 1791 
Q 353 2603 747 3093 
Q 1141 3584 1784 3584 
Q 2172 3584 2450 3431 
Q 2728 3278 2906 2969 
L 2906 3500 
L 3481 3500 
L 3481 434 
z
" id="DejaVuSans-67" transform="scale(0.015625)"/>
       <path d="M 191 3500 
L 800 3500 
L 1894 563 
L 2988 3500 
L 3597 3500 
L 2284 0 
L 1503 0 
L 191 3500 
z
" id="DejaVuSans-76" transform="scale(0.015625)"/>
       <path d="M 513 4856 
L 1013 4856 
Q 1481 4119 1714 3412 
Q 1947 2706 1947 2009 
Q 1947 1309 1714 600 
Q 1481 -109 1013 -844 
L 513 -844 
Q 928 -128 1133 580 
Q 1338 1288 1338 2009 
Q 1338 2731 1133 3434 
Q 928 4138 513 4856 
z
" id="DejaVuSans-29" transform="scale(0.015625)"/>
      </defs>
      <use xlink:href="#DejaVuSans-43"/>
      <use x="69.824219" xlink:href="#DejaVuSans-6f"/>
      <use x="131.005859" xlink:href="#DejaVuSans-75"/>
      <use x="194.384766" xlink:href="#DejaVuSans-6e"/>
      <use x="257.763672" xlink:href="#DejaVuSans-74"/>
      <use x="296.972656" xlink:href="#DejaVuSans-20"/>
      <use x="328.759766" xlink:href="#DejaVuSans-28"/>
      <use x="367.773438" xlink:href="#DejaVuSans-37"/>
      <use x="431.396484" xlink:href="#DejaVuSans-20"/>
      <use x="463.183594" xlink:href="#DejaVuSans-64"/>
      <use x="526.660156" xlink:href="#DejaVuSans-61"/>
      <use x="587.939453" xlink:href="#DejaVuSans-79"/>
      <use x="647.119141" xlink:href="#DejaVuSans-20"/>
      <use x="678.90625" xlink:href="#DejaVuSans-72"/>
      <use x="717.769531" xlink:href="#DejaVuSans-6f"/>
      <use x="778.951172" xlink:href="#DejaVuSans-6c"/>
      <use x="806.734375" xlink:href="#DejaVuSans-6c"/>
      <use x="834.517578" xlink:href="#DejaVuSans-69"/>
      <use x="862.300781" xlink:href="#DejaVuSans-6e"/>
      <use x="925.679688" xlink:href="#DejaVuSans-67"/>
      <use x="989.15625" xlink:href="#DejaVuSans-20"/>
      <use x="1020.943359" xlink:href="#DejaVuSans-61"/>
      <use x="1082.222656" xlink:href="#DejaVuSans-76"/>
      <use x="1141.402344" xlink:href="#DejaVuSans-65"/>
      <use x="1202.925781" xlink:href="#DejaVuSans-72"/>
      <use x="1244.039062" xlink:href="#DejaVuSans-61"/>
      <use x="1305.318359" xlink:href="#DejaVuSans-67"/>
      <use x="1368.794922" xlink:href="#DejaVuSans-65"/>
      <use x="1430.318359" xlink:href="#DejaVuSans-29"/>
     </g>
    </g>
   </g>
   <g id="line2d_17">
    <path clip-path="url(#pfc5772a553)" d="M 247.908858 225.695658 
L 250.432603 228.96 
L 255.480092 228.96 
L 258.003837 225.695658 
L 270.622562 225.695658 
L 273.146307 222.816304 
L 275.670052 225.695658 
L 288.288776 225.695658 
L 290.812521 228.96 
L 394.286063 228.96 
L 396.809807 215.783554 
L 399.333552 213.82681 
L 401.857297 188.926599 
L 411.952277 188.926599 
L 414.476022 192.582089 
L 416.999767 193.383678 
L 419.523512 225.695658 
L 434.665981 225.695658 
L 437.189726 228.96 
L 439.713471 225.695658 
L 447.284706 225.695658 
L 449.808451 222.816304 
L 452.332196 220.240634 
L 454.85594 220.240634 
L 457.379685 222.816304 
L 464.95092 222.816304 
L 467.474665 225.695658 
L 469.99841 228.96 
L 472.522155 228.96 
L 475.0459 222.816304 
L 477.569645 222.816304 
L 480.09339 185.158192 
L 482.617134 160.747902 
L 485.140879 160.322739 
L 487.664624 160.112899 
L 490.188369 160.112899 
L 492.712114 160.534396 
L 495.235859 160.534396 
L 497.759604 168.802434 
L 500.283349 220.240634 
L 502.807094 225.695658 
L 505.330839 228.96 
L 522.997053 228.96 
L 525.520798 225.695658 
L 540.663267 225.695658 
L 543.187012 228.96 
L 545.710757 213.82681 
L 548.234502 213.82681 
L 550.758247 186.969854 
L 560.853227 186.969854 
L 563.376972 191.053701 
L 565.900717 191.053701 
L 568.424461 157.3499 
L 570.948206 157.3499 
L 573.471951 157.163996 
L 583.566931 157.163996 
L 586.090676 222.816304 
L 588.614421 217.910657 
L 591.138166 220.240634 
L 596.185656 220.240634 
L 598.7094 217.910657 
L 601.233145 196.881958 
L 603.75689 196.881958 
L 606.280635 198.838702 
L 608.80438 195.959348 
L 611.328125 187.604858 
L 616.375615 187.604858 
L 618.89936 193.383678 
L 621.423105 190.323908 
L 623.94685 185.158192 
L 626.470594 184.582959 
L 628.994339 177.692754 
L 631.518084 177.267591 
L 634.041829 176.438825 
L 636.565574 174.482081 
L 639.089319 174.108849 
L 641.613064 173.379055 
L 644.136809 173.022169 
L 646.660554 181.893849 
L 649.184299 177.267591 
L 651.708044 175.637237 
L 654.231789 167.355488 
L 659.279278 159.291098 
L 661.803023 152.614492 
L 664.326768 148.518822 
L 666.850513 145.581743 
L 669.374258 144.018436 
L 671.898003 141.453586 
L 674.421748 139.310256 
L 676.945493 136.057069 
L 679.469238 135.364058 
L 687.040472 132.84159 
L 689.564217 128.868611 
L 692.087962 126.751211 
L 697.135452 124.852016 
L 699.659197 123.181867 
L 702.182942 123.228035 
L 704.706687 123.460195 
L 707.230432 124.655265 
L 709.754177 125.604268 
L 712.277921 126.015139 
L 717.325411 125.911772 
L 719.849156 125.451955 
L 722.372901 123.883721 
L 724.896646 121.835861 
L 727.420391 119.268924 
L 729.944136 118.154919 
L 732.467881 115.760166 
L 734.991626 114.11444 
L 737.515371 113.641577 
L 740.039116 114.629117 
L 742.56286 114.499428 
L 745.086605 113.055456 
L 747.61035 111.206808 
L 750.134095 110.020801 
L 752.65784 109.435552 
L 755.181585 109.018549 
L 757.70533 107.418223 
L 760.229075 104.847394 
L 762.75282 103.677493 
L 765.276565 103.224772 
L 767.80031 102.324071 
L 770.324054 100.090755 
L 772.847799 99.314058 
L 775.371544 98.410117 
L 777.895289 95.867958 
L 780.419034 92.914941 
L 782.942779 89.154177 
L 785.466524 86.784621 
L 787.990269 84.61506 
L 790.514014 81.591169 
L 793.037759 80.853457 
L 795.561504 79.120071 
L 798.085248 77.896205 
L 800.608993 77.932406 
L 803.132738 76.966362 
L 805.656483 77.246551 
L 808.180228 77.809542 
L 813.227718 77.106055 
L 815.751463 75.664423 
L 818.275208 74.598425 
L 820.798953 74.434609 
L 823.322698 73.191986 
L 825.846443 72.730834 
L 828.370187 72.146341 
L 830.893932 69.462831 
L 835.941422 65.380955 
L 838.465167 63.689135 
L 840.988912 62.327817 
L 843.512657 61.216858 
L 846.036402 60.581573 
L 848.560147 58.541922 
L 851.083892 55.396692 
L 853.607637 53.677432 
L 858.655126 49.855357 
L 863.702616 47.481556 
L 866.226361 45.565422 
L 868.750106 43.253152 
L 871.273851 42.522327 
L 873.797596 40.977284 
L 876.321341 39.779906 
L 881.368831 39.055842 
L 883.892575 37.563199 
L 886.41632 34.6962 
L 888.940065 34.152344 
L 891.46381 34.210428 
L 893.987555 34.555718 
L 896.5113 34.172899 
L 899.035045 34.104045 
L 901.55879 34.295382 
L 904.082535 35.777655 
L 906.60628 35.436444 
L 909.130025 35.398259 
L 911.65377 35.08109 
L 914.177514 35.409708 
L 916.701259 35.171651 
L 919.225004 35.80997 
L 921.748749 35.933158 
L 924.272494 35.934458 
L 926.796239 35.607737 
L 929.319984 35.566722 
L 931.843729 35.239792 
L 934.367474 35.145203 
L 939.414964 32.993357 
L 941.938708 32.588673 
L 946.986198 31.566161 
L 949.509943 31.423054 
L 952.033688 31.412246 
L 954.557433 31.077434 
L 957.081178 31.219598 
L 959.604923 30.856747 
L 962.128668 30.9817 
L 964.652413 30.548174 
L 967.176158 30.246537 
L 972.223647 30.117077 
L 974.747392 29.505838 
L 977.271137 29.548852 
L 979.794882 29.478869 
L 984.842372 30.373579 
L 987.366117 30.341498 
L 989.889862 30.993381 
L 992.413607 32.350611 
L 994.937352 32.818773 
L 997.461097 32.842819 
L 1002.508586 32.6477 
L 1005.032331 33.128595 
L 1007.556076 33.030271 
L 1010.079821 33.149468 
L 1012.603566 32.817629 
L 1015.127311 33.155269 
L 1020.174801 34.085958 
L 1025.222291 34.910942 
L 1027.746035 35.813851 
L 1030.26978 37.097961 
L 1035.31727 38.055888 
L 1037.841015 38.364092 
L 1040.36476 38.479235 
L 1042.888505 38.782631 
L 1045.41225 39.840843 
L 1047.935995 40.209688 
L 1050.45974 41.006063 
L 1055.507229 40.919827 
L 1058.030974 41.239139 
L 1060.554719 42.741179 
L 1063.078464 42.512117 
L 1065.602209 43.457444 
L 1068.125954 44.060821 
L 1070.649699 45.5423 
L 1073.173444 46.428713 
L 1075.697189 46.776673 
L 1078.220934 48.51645 
L 1080.744679 51.560854 
L 1083.268424 53.466123 
L 1088.315913 58.414419 
L 1090.839658 59.365264 
L 1093.363403 60.007584 
L 1095.887148 63.279883 
L 1098.410893 70.328552 
L 1100.934638 73.156202 
L 1103.458383 77.008186 
L 1105.982128 80.625897 
L 1108.505873 85.665837 
L 1111.029618 89.970294 
L 1113.553362 99.123679 
L 1116.077107 106.237014 
L 1118.600852 115.35497 
L 1118.600852 115.35497 
" style="fill:none;stroke:#947383;stroke-linecap:square;stroke-width:2;"/>
   </g>
   <g id="line2d_18">
    <path clip-path="url(#pfc5772a553)" d="M 141.911571 225.695658 
L 144.435316 228.96 
L 338.763675 228.96 
L 341.287419 225.695658 
L 356.429889 225.695658 
L 358.953634 228.96 
L 386.714828 228.96 
L 389.238573 222.816304 
L 391.762318 220.240634 
L 394.286063 220.240634 
L 396.809807 215.783554 
L 404.381042 215.783554 
L 406.904787 220.240634 
L 409.428532 222.816304 
L 411.952277 222.816304 
L 414.476022 225.695658 
L 429.618491 225.695658 
L 432.142236 228.96 
L 437.189726 228.96 
L 439.713471 225.695658 
L 442.237216 225.695658 
L 444.760961 222.816304 
L 454.85594 222.816304 
L 457.379685 225.695658 
L 459.90343 225.695658 
L 462.427175 228.96 
L 464.95092 225.695658 
L 467.474665 222.816304 
L 472.522155 222.816304 
L 475.0459 220.240634 
L 477.569645 220.240634 
L 480.09339 217.910657 
L 482.617134 217.910657 
L 485.140879 220.240634 
L 490.188369 220.240634 
L 492.712114 222.816304 
L 495.235859 222.816304 
L 497.759604 225.695658 
L 500.283349 228.96 
L 512.902073 228.96 
L 515.425818 225.695658 
L 517.949563 222.816304 
L 530.568288 222.816304 
L 533.092033 225.695658 
L 535.615778 228.96 
L 543.187012 228.96 
L 545.710757 225.695658 
L 548.234502 225.695658 
L 550.758247 222.816304 
L 560.853227 222.816304 
L 563.376972 225.695658 
L 565.900717 225.695658 
L 568.424461 220.240634 
L 573.471951 220.240634 
L 575.995696 217.910657 
L 578.519441 217.910657 
L 581.043186 215.783554 
L 583.566931 215.783554 
L 586.090676 222.816304 
L 588.614421 220.240634 
L 591.138166 215.783554 
L 593.661911 217.910657 
L 596.185656 217.910657 
L 598.7094 215.783554 
L 601.233145 212.015148 
L 603.75689 207.26876 
L 606.280635 204.54971 
L 608.80438 196.881958 
L 611.328125 195.959348 
L 613.85187 191.053701 
L 616.375615 191.053701 
L 618.89936 185.747287 
L 621.423105 183.471575 
L 623.94685 179.937105 
L 626.470594 181.389785 
L 628.994339 176.849697 
L 631.518084 174.8611 
L 634.041829 168.802434 
L 636.565574 165.204981 
L 639.089319 162.297052 
L 641.613064 160.322739 
L 644.136809 155.378805 
L 646.660554 152.768728 
L 649.184299 150.693255 
L 651.708044 150.693255 
L 654.231789 147.750813 
L 656.755533 144.126846 
L 659.279278 141.067076 
L 661.803023 139.942912 
L 664.326768 137.422239 
L 666.850513 137.094097 
L 669.374258 134.987375 
L 671.898003 133.395636 
L 674.421748 131.509039 
L 676.945493 130.061347 
L 679.469238 128.810474 
L 681.992983 128.521849 
L 684.516727 127.455139 
L 687.040472 127.345514 
L 689.564217 125.860252 
L 692.087962 125.300584 
L 697.135452 122.589477 
L 699.659197 121.705249 
L 702.182942 121.020195 
L 704.706687 121.4891 
L 707.230432 121.062453 
L 709.754177 120.312765 
L 712.277921 118.68638 
L 714.801666 118.533352 
L 719.849156 118.07993 
L 724.896646 116.450784 
L 727.420391 116.276292 
L 729.944136 116.732588 
L 732.467881 116.345939 
L 734.991626 115.658235 
L 740.039116 115.188101 
L 742.56286 114.564186 
L 745.086605 113.672818 
L 747.61035 113.085956 
L 750.134095 111.836606 
L 752.65784 111.519679 
L 755.181585 111.63445 
L 757.70533 111.605707 
L 760.229075 114.082629 
L 762.75282 111.605707 
L 765.276565 109.967014 
L 767.80031 109.356821 
L 772.847799 106.726189 
L 775.371544 105.71225 
L 777.895289 101.512342 
L 780.419034 100.216628 
L 782.942779 99.140925 
L 787.990269 95.582911 
L 790.514014 94.432116 
L 793.037759 92.981898 
L 795.561504 90.839156 
L 798.085248 89.64057 
L 800.608993 88.121399 
L 803.132738 86.433316 
L 805.656483 85.193241 
L 808.180228 84.349852 
L 810.703973 84.331018 
L 813.227718 82.084191 
L 815.751463 80.537075 
L 818.275208 79.341651 
L 820.798953 77.637131 
L 823.322698 76.422247 
L 825.846443 75.677634 
L 828.370187 74.478605 
L 830.893932 72.579029 
L 833.417677 70.371058 
L 835.941422 68.582198 
L 840.988912 65.844944 
L 843.512657 65.268479 
L 846.036402 66.000103 
L 848.560147 66.089209 
L 853.607637 59.848008 
L 856.131381 57.894987 
L 858.655126 55.587657 
L 861.178871 53.605007 
L 863.702616 51.296223 
L 866.226361 47.982884 
L 868.750106 47.094743 
L 871.273851 46.329063 
L 873.797596 45.054159 
L 876.321341 43.905423 
L 881.368831 42.033622 
L 883.892575 40.215882 
L 886.41632 38.142534 
L 893.987555 32.513959 
L 896.5113 31.374458 
L 899.035045 30.790296 
L 901.55879 28.738448 
L 904.082535 27.196768 
L 906.60628 25.944476 
L 909.130025 24.404361 
L 911.65377 23.023687 
L 919.225004 20.715116 
L 921.748749 19.601066 
L 924.272494 18.648778 
L 929.319984 17.82933 
L 931.843729 17.76 
L 934.367474 18.163873 
L 936.891219 18.211682 
L 941.938708 19.541155 
L 944.462453 20.245998 
L 946.986198 21.558921 
L 949.509943 22.444871 
L 952.033688 22.638807 
L 954.557433 23.01219 
L 959.604923 23.162076 
L 962.128668 23.615756 
L 964.652413 23.373472 
L 967.176158 23.479468 
L 969.699902 23.718078 
L 972.223647 24.518194 
L 974.747392 24.792749 
L 977.271137 24.59247 
L 979.794882 23.819245 
L 987.366117 24.33308 
L 989.889862 24.02684 
L 992.413607 23.399149 
L 997.461097 24.02045 
L 999.984841 24.142133 
L 1002.508586 24.110854 
L 1005.032331 23.884277 
L 1007.556076 26.876956 
L 1010.079821 26.292521 
L 1015.127311 25.714883 
L 1017.651056 25.017963 
L 1022.698546 24.199181 
L 1025.222291 21.682707 
L 1027.746035 23.371916 
L 1030.26978 24.588383 
L 1032.793525 26.191076 
L 1035.31727 27.339041 
L 1040.36476 28.332146 
L 1045.41225 30.644316 
L 1047.935995 32.207317 
L 1050.45974 33.51765 
L 1052.983485 35.215795 
L 1055.507229 36.220841 
L 1058.030974 37.540975 
L 1060.554719 39.900403 
L 1063.078464 41.389807 
L 1065.602209 41.796189 
L 1068.125954 42.730877 
L 1073.173444 44.798745 
L 1075.697189 45.725954 
L 1078.220934 47.834364 
L 1080.744679 50.799272 
L 1083.268424 54.402667 
L 1085.792168 57.100402 
L 1088.315913 60.624368 
L 1093.363403 64.701077 
L 1095.887148 70.0593 
L 1098.410893 74.390692 
L 1100.934638 80.29646 
L 1103.458383 88.220528 
L 1108.505873 107.710412 
L 1111.029618 111.663227 
L 1113.553362 125.553391 
L 1116.077107 171.311944 
L 1116.077107 171.311944 
" style="fill:none;stroke:#96c6ad;stroke-linecap:square;stroke-width:2;"/>
   </g>
   <g id="line2d_19">
    <path clip-path="url(#pfc5772a553)" d="M 104.055398 225.695658 
L 106.579143 228.96 
L 220.147664 228.96 
L 222.671409 225.695658 
L 225.195153 222.816304 
L 237.813878 222.816304 
L 240.337623 225.695658 
L 242.861368 228.96 
L 275.670052 228.96 
L 278.193797 225.695658 
L 285.765031 225.695658 
L 288.288776 222.816304 
L 303.431246 222.816304 
L 305.954991 225.695658 
L 323.621205 225.695658 
L 326.14495 222.816304 
L 328.668695 222.816304 
L 331.19244 225.695658 
L 341.287419 225.695658 
L 343.811164 228.96 
L 381.667338 228.96 
L 384.191083 225.695658 
L 389.238573 225.695658 
L 391.762318 220.240634 
L 394.286063 212.015148 
L 396.809807 210.32853 
L 399.333552 205.871451 
L 401.857297 182.408526 
L 406.904787 182.408526 
L 409.428532 182.934273 
L 411.952277 185.158192 
L 416.999767 186.350929 
L 419.523512 217.910657 
L 422.047257 217.910657 
L 424.571002 215.783554 
L 427.094746 217.910657 
L 432.142236 217.910657 
L 434.665981 222.816304 
L 437.189726 225.695658 
L 439.713471 225.695658 
L 442.237216 228.96 
L 447.284706 228.96 
L 449.808451 225.695658 
L 452.332196 222.816304 
L 454.85594 220.240634 
L 457.379685 220.240634 
L 459.90343 203.295781 
L 462.427175 202.103044 
L 464.95092 202.103044 
L 467.474665 196.881958 
L 469.99841 193.383678 
L 472.522155 191.053701 
L 475.0459 191.053701 
L 477.569645 195.070295 
L 480.09339 168.802434 
L 482.617134 168.802434 
L 487.664624 171.981746 
L 490.188369 172.670419 
L 492.712114 172.670419 
L 495.235859 174.482081 
L 497.759604 217.910657 
L 500.283349 215.783554 
L 502.807094 217.910657 
L 505.330839 215.783554 
L 507.854584 220.240634 
L 510.378329 217.910657 
L 515.425818 217.910657 
L 517.949563 220.240634 
L 520.473308 220.240634 
L 522.997053 222.816304 
L 525.520798 217.910657 
L 528.044543 217.910657 
L 530.568288 205.871451 
L 533.092033 207.26876 
L 535.615778 207.26876 
L 538.139523 187.604858 
L 540.663267 177.692754 
L 543.187012 173.741229 
L 545.710757 172.323657 
L 548.234502 169.71358 
L 550.758247 133.117043 
L 553.281992 132.84159 
L 555.805737 133.395636 
L 558.329482 134.469583 
L 560.853227 134.91273 
L 563.376972 135.062248 
L 565.900717 134.178553 
L 568.424461 170.025002 
L 570.948206 164.948997 
L 573.471951 161.84433 
L 575.995696 160.534396 
L 578.519441 157.726004 
L 581.043186 153.395589 
L 583.566931 152.768728 
L 586.090676 151.123405 
L 588.614421 149.992741 
L 591.138166 149.58187 
L 593.661911 147.128738 
L 596.185656 145.813463 
L 598.7094 145.011875 
L 601.233145 144.454988 
L 606.280635 134.469583 
L 608.80438 130.183885 
L 613.85187 124.026543 
L 616.375615 122.365404 
L 618.89936 116.661832 
L 621.423105 113.147072 
L 623.94685 110.648012 
L 626.470594 108.710399 
L 628.994339 106.260088 
L 631.518084 102.501576 
L 634.041829 101.22885 
L 636.565574 101.023025 
L 639.089319 99.175454 
L 641.613064 97.603128 
L 644.136809 96.448222 
L 646.660554 95.792623 
L 649.184299 96.340291 
L 651.708044 94.646495 
L 654.231789 93.925147 
L 656.755533 94.935291 
L 659.279278 95.389777 
L 661.803023 94.935291 
L 664.326768 92.333489 
L 666.850513 92.22924 
L 669.374258 93.869461 
L 671.898003 92.941702 
L 674.421748 92.7019 
L 679.469238 90.041531 
L 681.992983 89.934753 
L 684.516727 89.500611 
L 687.040472 87.427842 
L 689.564217 88.066501 
L 692.087962 87.67483 
L 694.611707 87.880763 
L 697.135452 89.488983 
L 699.659197 91.524319 
L 702.182942 91.436043 
L 704.706687 92.794877 
L 707.230432 91.701834 
L 709.754177 91.701834 
L 712.277921 92.728429 
L 714.801666 92.398871 
L 717.325411 91.5496 
L 722.372901 90.328575 
L 724.896646 90.340608 
L 727.420391 89.617188 
L 729.944136 87.696426 
L 732.467881 87.815544 
L 734.991626 88.66603 
L 737.515371 90.053424 
L 740.039116 91.110921 
L 742.56286 91.803853 
L 745.086605 93.210936 
L 747.61035 96.727966 
L 750.134095 97.425571 
L 752.65784 98.276531 
L 755.181585 98.798295 
L 757.70533 99.664046 
L 760.229075 100.162603 
L 762.75282 98.849385 
L 765.276565 97.169587 
L 767.80031 96.463679 
L 770.324054 96.806244 
L 772.847799 96.125849 
L 775.371544 96.019329 
L 777.895289 97.249295 
L 780.419034 98.662577 
L 785.466524 102.206447 
L 787.990269 101.992261 
L 790.514014 102.050489 
L 793.037759 102.2848 
L 795.561504 102.324071 
L 798.085248 101.953519 
L 800.608993 98.460401 
L 803.132738 97.473868 
L 805.656483 96.916256 
L 808.180228 97.733076 
L 810.703973 96.979343 
L 813.227718 94.92077 
L 818.275208 94.375264 
L 820.798953 94.703982 
L 823.322698 93.647976 
L 825.846443 92.861506 
L 828.370187 92.728429 
L 830.893932 93.238024 
L 833.417677 92.715161 
L 835.941422 89.746069 
L 838.465167 89.039782 
L 840.988912 87.225674 
L 846.036402 86.392316 
L 848.560147 84.912079 
L 851.083892 85.418553 
L 853.607637 73.741227 
L 856.131381 71.811261 
L 858.655126 69.56038 
L 861.178871 69.876221 
L 863.702616 70.520414 
L 866.226361 71.704324 
L 868.750106 71.625827 
L 871.273851 85.359575 
L 873.797596 89.005567 
L 876.321341 97.425571 
L 878.845086 97.733076 
L 881.368831 95.777584 
L 883.892575 94.80491 
L 886.41632 94.964359 
L 888.940065 95.508448 
L 891.46381 91.638288 
L 893.987555 91.436043 
L 896.5113 90.316547 
L 899.035045 91.272942 
L 901.55879 87.848132 
L 904.082535 87.913438 
L 906.60628 83.735873 
L 909.130025 84.720041 
L 911.65377 81.836437 
L 914.177514 82.230602 
L 916.701259 80.018704 
L 919.225004 78.975979 
L 921.748749 78.12882 
L 924.272494 72.405034 
L 926.796239 68.493392 
L 929.319984 69.447464 
L 931.843729 69.498725 
L 934.367474 70.616913 
L 936.891219 72.602322 
L 939.414964 67.996163 
L 941.938708 75.141768 
L 944.462453 77.373692 
L 946.986198 71.116165 
L 949.509943 58.935133 
L 952.033688 50.825555 
L 954.557433 46.038421 
L 957.081178 42.291924 
L 959.604923 33.08459 
L 962.128668 28.45534 
L 964.652413 27.403151 
L 967.176158 29.528836 
L 969.699902 32.696619 
L 972.223647 35.479793 
L 974.747392 39.507555 
L 977.271137 52.197284 
L 979.794882 69.622191 
L 982.318627 84.672267 
L 984.842372 93.346674 
L 987.366117 92.438184 
L 989.889862 92.968492 
L 992.413607 93.66176 
L 994.937352 92.741704 
L 997.461097 93.537982 
L 999.984841 86.371842 
L 1002.508586 85.67578 
L 1005.032331 85.685728 
L 1007.556076 83.598457 
L 1010.079821 83.552823 
L 1012.603566 81.24026 
L 1015.127311 77.932406 
L 1017.651056 78.983542 
L 1020.174801 78.817702 
L 1022.698546 78.953305 
L 1025.222291 77.932406 
L 1027.746035 79.83005 
L 1030.26978 84.729607 
L 1032.793525 91.123346 
L 1035.31727 103.041957 
L 1037.841015 106.773291 
L 1040.36476 109.383036 
L 1042.888505 117.893459 
L 1045.41225 116.068532 
L 1047.935995 116.732588 
L 1050.45974 117.967877 
L 1052.983485 103.865141 
L 1055.507229 104.351335 
L 1058.030974 103.306464 
L 1060.554719 98.510788 
L 1063.078464 96.618796 
L 1065.602209 97.297244 
L 1068.125954 97.37737 
L 1070.649699 108.105512 
L 1073.173444 108.155351 
L 1075.697189 110.731021 
L 1078.220934 133.536132 
L 1080.744679 158.890331 
L 1083.268424 160.322739 
L 1085.792168 169.102392 
L 1088.315913 175.637237 
L 1090.839658 182.934273 
L 1093.363403 185.158192 
L 1095.887148 191.053701 
L 1098.410893 198.838702 
L 1100.934638 203.295781 
L 1103.458383 205.871451 
L 1105.982128 210.32853 
L 1105.982128 210.32853 
" style="fill:none;stroke:#525886;stroke-linecap:square;stroke-width:2;"/>
   </g>
   <g id="line2d_20">
    <path clip-path="url(#pfc5772a553)" d="M 419.523512 222.816304 
L 422.047257 228.96 
L 427.094746 228.96 
L 429.618491 225.695658 
L 444.760961 225.695658 
L 447.284706 228.96 
L 480.09339 228.96 
L 482.617134 222.816304 
L 497.759604 222.816304 
L 500.283349 228.96 
L 644.136809 228.96 
L 646.660554 225.695658 
L 651.708044 225.695658 
L 654.231789 222.816304 
L 659.279278 222.816304 
L 661.803023 220.240634 
L 664.326768 222.816304 
L 666.850513 220.240634 
L 669.374258 220.240634 
L 671.898003 217.910657 
L 681.992983 217.910657 
L 684.516727 220.240634 
L 687.040472 220.240634 
L 689.564217 225.695658 
L 694.611707 225.695658 
L 697.135452 228.96 
L 717.325411 228.96 
L 719.849156 220.240634 
L 734.991626 220.240634 
L 737.515371 222.816304 
L 740.039116 222.816304 
L 742.56286 220.240634 
L 752.65784 220.240634 
L 755.181585 225.695658 
L 760.229075 225.695658 
L 762.75282 222.816304 
L 765.276565 222.816304 
L 767.80031 220.240634 
L 770.324054 217.910657 
L 772.847799 217.910657 
L 775.371544 215.783554 
L 777.895289 213.82681 
L 780.419034 213.82681 
L 782.942779 212.015148 
L 785.466524 208.750805 
L 790.514014 208.750805 
L 793.037759 205.871451 
L 795.561504 205.871451 
L 798.085248 204.54971 
L 800.608993 200.965804 
L 803.132738 197.840757 
L 805.656483 198.838702 
L 808.180228 197.840757 
L 810.703973 200.965804 
L 813.227718 197.840757 
L 815.751463 195.959348 
L 818.275208 195.070295 
L 820.798953 195.959348 
L 823.322698 188.256796 
L 825.846443 182.408526 
L 828.370187 179.937105 
L 830.893932 167.924031 
L 833.417677 163.466952 
L 835.941422 160.963289 
L 838.465167 159.291098 
L 840.988912 158.107984 
L 843.512657 157.3499 
L 846.036402 157.726004 
L 848.560147 159.089893 
L 851.083892 156.614619 
L 853.607637 152.461224 
L 856.131381 149.17779 
L 858.655126 148.004145 
L 861.178871 147.375672 
L 863.702616 145.813463 
L 866.226361 143.589544 
L 868.750106 139.851524 
L 871.273851 137.504968 
L 873.797596 136.292508 
L 876.321341 135.592886 
L 878.845086 135.66964 
L 881.368831 135.592886 
L 883.892575 134.616408 
L 886.41632 135.90136 
L 888.940065 137.587977 
L 891.46381 137.094097 
L 893.987555 135.823876 
L 896.5113 134.987375 
L 899.035045 133.677441 
L 901.55879 128.407347 
L 904.082535 125.963401 
L 906.60628 125.553391 
L 909.130025 125.401394 
L 911.65377 123.788968 
L 914.177514 122.770227 
L 916.701259 123.460195 
L 919.225004 124.314714 
L 921.748749 123.043882 
L 926.796239 118.381275 
L 931.843729 116.206842 
L 934.367474 114.338279 
L 936.891219 109.833061 
L 939.414964 106.986383 
L 941.938708 105.375982 
L 944.462453 103.306464 
L 946.986198 103.102744 
L 949.509943 103.781564 
L 952.033688 103.491275 
L 959.604923 106.655704 
L 962.128668 109.993893 
L 964.652413 109.859793 
L 967.176158 108.659416 
L 969.699902 108.481809 
L 972.223647 104.652083 
L 974.747392 103.082465 
L 977.271137 103.102744 
L 979.794882 101.934171 
L 982.318627 101.247647 
L 984.842372 101.060319 
L 987.366117 100.306936 
L 989.889862 98.110568 
L 992.413607 97.026766 
L 994.937352 95.777584 
L 997.461097 96.171643 
L 999.984841 96.837625 
L 1005.032331 96.556631 
L 1007.556076 99.020458 
L 1010.079821 100.270773 
L 1012.603566 98.32654 
L 1015.127311 96.681119 
L 1017.651056 95.958668 
L 1020.174801 96.217522 
L 1022.698546 96.202219 
L 1025.222291 94.574826 
L 1027.746035 94.474841 
L 1030.26978 96.37108 
L 1032.793525 97.522261 
L 1037.841015 98.343233 
L 1040.36476 99.383656 
L 1042.888505 101.953519 
L 1045.41225 103.949005 
L 1047.935995 105.088246 
L 1050.45974 106.962615 
L 1052.983485 109.174093 
L 1055.507229 110.925813 
L 1058.030974 113.055456 
L 1060.554719 125.808841 
L 1063.078464 135.137352 
L 1065.602209 142.447473 
L 1068.125954 147.625125 
L 1070.649699 153.876515 
L 1073.173444 153.715153 
L 1075.697189 155.551571 
L 1078.220934 157.537229 
L 1080.744679 160.747902 
L 1083.268424 167.924031 
L 1085.792168 172.323657 
L 1088.315913 172.670419 
L 1090.839658 176.849697 
L 1093.363403 177.692754 
L 1095.887148 179.937105 
L 1098.410893 179.471448 
L 1098.410893 179.471448 
" style="fill:none;stroke:#937252;stroke-linecap:square;stroke-width:2;"/>
   </g>
   <g id="line2d_21">
    <path clip-path="url(#pfc5772a553)" d="M 111.626632 225.695658 
L 114.150377 228.96 
L 351.382399 228.96 
L 353.906144 225.695658 
L 369.048613 225.695658 
L 371.572358 228.96 
L 391.762318 228.96 
L 394.286063 225.695658 
L 409.428532 225.695658 
L 411.952277 228.96 
L 444.760961 228.96 
L 447.284706 225.695658 
L 449.808451 225.695658 
L 452.332196 222.816304 
L 462.427175 222.816304 
L 464.95092 225.695658 
L 467.474665 225.695658 
L 469.99841 228.96 
L 515.425818 228.96 
L 517.949563 225.695658 
L 533.092033 225.695658 
L 535.615778 228.96 
L 568.424461 228.96 
L 570.948206 225.695658 
L 573.471951 220.240634 
L 581.043186 220.240634 
L 583.566931 217.910657 
L 586.090676 217.910657 
L 588.614421 220.240634 
L 591.138166 225.695658 
L 598.7094 225.695658 
L 601.233145 228.96 
L 618.89936 228.96 
L 621.423105 225.695658 
L 628.994339 225.695658 
L 631.518084 222.816304 
L 634.041829 222.816304 
L 636.565574 220.240634 
L 639.089319 222.816304 
L 646.660554 222.816304 
L 649.184299 225.695658 
L 651.708044 220.240634 
L 654.231789 222.816304 
L 656.755533 212.015148 
L 659.279278 210.32853 
L 661.803023 207.26876 
L 664.326768 207.26876 
L 666.850513 205.871451 
L 669.374258 207.26876 
L 671.898003 203.295781 
L 674.421748 208.750805 
L 676.945493 205.871451 
L 679.469238 197.840757 
L 681.992983 196.881958 
L 684.516727 196.881958 
L 687.040472 195.959348 
L 689.564217 195.959348 
L 692.087962 193.383678 
L 694.611707 191.053701 
L 697.135452 193.383678 
L 702.182942 193.383678 
L 704.706687 195.070295 
L 707.230432 193.383678 
L 709.754177 195.959348 
L 712.277921 197.840757 
L 714.801666 198.838702 
L 717.325411 198.838702 
L 719.849156 199.879125 
L 722.372901 199.879125 
L 724.896646 193.383678 
L 727.420391 188.926599 
L 729.944136 187.604858 
L 732.467881 184.020952 
L 734.991626 181.893849 
L 737.515371 181.893849 
L 740.039116 179.937105 
L 742.56286 178.125443 
L 745.086605 173.379055 
L 747.61035 171.644551 
L 750.134095 154.699699 
L 752.65784 152.15754 
L 755.181585 150.551537 
L 757.70533 149.58187 
L 760.229075 146.762951 
L 762.75282 144.899478 
L 765.276565 144.235738 
L 767.80031 144.676223 
L 770.324054 142.045056 
L 772.847799 140.126719 
L 775.371544 138.780714 
L 777.895289 138.262399 
L 780.419034 134.76412 
L 782.942779 133.677441 
L 785.466524 137.012745 
L 787.990269 138.177072 
L 790.514014 139.132465 
L 793.037759 140.781151 
L 795.561504 137.587977 
L 798.085248 137.754846 
L 800.608993 136.690017 
L 803.132738 132.978929 
L 805.656483 130.61767 
L 808.180228 130.12254 
L 810.703973 128.236592 
L 813.227718 130.245385 
L 815.751463 129.818099 
L 818.275208 124.950989 
L 820.798953 123.274291 
L 823.322698 123.788968 
L 825.846443 122.63454 
L 828.370187 120.76817 
L 830.893932 118.005171 
L 833.417677 118.419205 
L 835.941422 117.561354 
L 838.465167 117.7453 
L 840.988912 116.068532 
L 843.512657 115.455641 
L 846.036402 115.522986 
L 851.083892 112.692386 
L 853.607637 112.692386 
L 856.131381 112.994568 
L 858.655126 112.157695 
L 861.178871 111.63445 
L 866.226361 111.12217 
L 868.750106 112.275509 
L 871.273851 113.641577 
L 873.797596 113.300533 
L 876.321341 114.59663 
L 881.368831 118.419205 
L 883.892575 118.571519 
L 886.41632 117.856335 
L 888.940065 119.946369 
L 891.46381 121.61856 
L 893.987555 121.879554 
L 896.5113 121.748709 
L 901.55879 122.770227 
L 904.082535 120.893858 
L 906.60628 116.103036 
L 909.130025 113.704099 
L 911.65377 111.982033 
L 914.177514 111.923758 
L 916.701259 112.334629 
L 919.225004 113.892632 
L 921.748749 115.658235 
L 924.272494 120.560115 
L 926.796239 124.266449 
L 929.319984 127.236379 
L 931.843729 127.786993 
L 934.367474 127.400265 
L 936.891219 131.059292 
L 939.414964 129.939421 
L 941.938708 128.636891 
L 944.462453 128.579302 
L 952.033688 130.000308 
L 954.557433 128.464531 
L 957.081178 132.099715 
L 959.604923 132.637017 
L 962.128668 133.047888 
L 964.652413 134.91273 
L 967.176158 134.91273 
L 969.699902 134.542885 
L 972.223647 133.890946 
L 974.747392 129.818099 
L 977.271137 128.123415 
L 979.794882 125.655251 
L 982.318627 126.275485 
L 987.366117 127.019559 
L 989.889862 126.911866 
L 992.413607 127.73137 
L 994.937352 130.000308 
L 997.461097 133.186394 
L 1002.508586 132.033375 
L 1005.032331 131.70435 
L 1007.556076 132.910163 
L 1010.079821 136.057069 
L 1012.603566 136.609996 
L 1015.127311 136.609996 
L 1017.651056 137.422239 
L 1020.174801 138.693561 
L 1022.698546 139.579392 
L 1025.222291 142.856625 
L 1027.746035 144.345117 
L 1030.26978 145.697329 
L 1032.793525 148.389133 
L 1035.31727 149.855015 
L 1037.841015 149.855015 
L 1040.36476 148.780281 
L 1045.41225 152.768728 
L 1047.935995 158.496028 
L 1050.45974 165.463674 
L 1052.983485 170.983801 
L 1055.507229 171.311944 
L 1058.030974 174.8611 
L 1060.554719 175.637237 
L 1063.078464 181.389785 
L 1065.602209 182.408526 
L 1068.125954 185.158192 
L 1070.649699 188.256796 
L 1073.173444 191.053701 
L 1075.697189 192.582089 
L 1078.220934 192.582089 
L 1080.744679 203.295781 
L 1083.268424 205.871451 
L 1085.792168 204.54971 
L 1088.315913 204.54971 
L 1088.315913 204.54971 
" style="fill:none;stroke:#d18cad;stroke-linecap:square;stroke-width:2;"/>
   </g>
   <g id="line2d_22">
    <path clip-path="url(#pfc5772a553)" d="M 416.999767 225.695658 
L 419.523512 228.96 
L 444.760961 228.96 
L 447.284706 225.695658 
L 449.808451 225.695658 
L 452.332196 222.816304 
L 462.427175 222.816304 
L 464.95092 225.695658 
L 467.474665 225.695658 
L 469.99841 228.96 
L 472.522155 225.695658 
L 477.569645 225.695658 
L 480.09339 222.816304 
L 487.664624 222.816304 
L 490.188369 225.695658 
L 495.235859 225.695658 
L 497.759604 228.96 
L 500.283349 225.695658 
L 502.807094 225.695658 
L 505.330839 222.816304 
L 507.854584 220.240634 
L 515.425818 220.240634 
L 517.949563 222.816304 
L 520.473308 222.816304 
L 522.997053 225.695658 
L 525.520798 228.96 
L 548.234502 228.96 
L 550.758247 225.695658 
L 565.900717 225.695658 
L 568.424461 228.96 
L 570.948206 228.96 
L 573.471951 222.816304 
L 583.566931 222.816304 
L 586.090676 220.240634 
L 588.614421 220.240634 
L 591.138166 225.695658 
L 596.185656 225.695658 
L 598.7094 222.816304 
L 601.233145 222.816304 
L 603.75689 215.783554 
L 606.280635 212.015148 
L 608.80438 208.750805 
L 611.328125 205.871451 
L 613.85187 198.838702 
L 616.375615 196.881958 
L 618.89936 191.805953 
L 621.423105 182.934273 
L 623.94685 177.692754 
L 626.470594 174.482081 
L 628.994339 174.108849 
L 631.518084 174.108849 
L 634.041829 171.644551 
L 636.565574 170.025002 
L 639.089319 171.644551 
L 641.613064 168.802434 
L 646.660554 158.496028 
L 649.184299 152.461224 
L 651.708044 151.708972 
L 654.231789 145.930152 
L 656.755533 142.045056 
L 659.279278 139.760476 
L 661.803023 138.007306 
L 664.326768 137.257617 
L 666.850513 137.83871 
L 669.374258 135.440096 
L 671.898003 136.057069 
L 674.421748 136.292508 
L 676.945493 135.212687 
L 679.469238 134.838312 
L 681.992983 132.978929 
L 684.516727 132.705018 
L 689.564217 130.995713 
L 692.087962 129.577247 
L 694.611707 128.810474 
L 697.135452 127.620503 
L 699.659197 127.565257 
L 702.182942 126.751211 
L 704.706687 127.019559 
L 707.230432 124.950989 
L 709.754177 123.367067 
L 712.277921 120.76817 
L 714.801666 120.353816 
L 717.325411 119.545602 
L 719.849156 118.956507 
L 722.372901 118.995342 
L 724.896646 117.197564 
L 727.420391 115.862523 
L 729.944136 115.254712 
L 732.467881 113.672818 
L 734.991626 112.453301 
L 737.515371 111.433952 
L 740.039116 109.646753 
L 742.56286 108.96692 
L 745.086605 107.442439 
L 747.61035 105.71225 
L 750.134095 104.436886 
L 755.181585 98.578134 
L 757.70533 96.727966 
L 760.229075 95.330656 
L 762.75282 92.255261 
L 765.276565 89.373014 
L 767.80031 86.732641 
L 770.324054 84.960325 
L 772.847799 83.635026 
L 775.371544 82.517339 
L 777.895289 80.121502 
L 780.419034 79.83005 
L 782.942779 80.440544 
L 785.466524 81.878974 
L 787.990269 84.106137 
L 793.037759 89.55883 
L 795.561504 94.022905 
L 798.085248 95.597831 
L 800.608993 96.171643 
L 803.132738 96.248157 
L 805.656483 91.765546 
L 808.180228 90.8146 
L 810.703973 89.051197 
L 813.227718 86.107226 
L 815.751463 84.941015 
L 818.275208 84.265214 
L 820.798953 82.798637 
L 823.322698 83.416429 
L 825.846443 80.232694 
L 828.370187 78.855294 
L 830.893932 78.012236 
L 833.417677 76.613715 
L 835.941422 76.117638 
L 838.465167 74.08546 
L 840.988912 73.589103 
L 843.512657 74.390692 
L 846.036402 73.07291 
L 848.560147 71.896016 
L 851.083892 72.28397 
L 853.607637 71.143593 
L 856.131381 72.730834 
L 858.655126 72.515087 
L 861.178871 72.901273 
L 866.226361 74.955032 
L 868.750106 75.421306 
L 871.273851 75.723927 
L 873.797596 75.414768 
L 876.321341 74.788817 
L 878.845086 73.931185 
L 883.892575 72.01517 
L 886.41632 69.792982 
L 888.940065 68.547624 
L 891.46381 66.924594 
L 893.987555 66.435333 
L 896.5113 65.079305 
L 899.035045 64.36186 
L 901.55879 64.332765 
L 904.082535 65.130753 
L 906.60628 66.259411 
L 911.65377 67.221986 
L 914.177514 68.542688 
L 919.225004 70.91959 
L 921.748749 70.903279 
L 924.272494 70.10134 
L 926.796239 70.1066 
L 929.319984 69.575818 
L 934.367474 68.970795 
L 936.891219 68.930653 
L 939.414964 69.380985 
L 941.938708 70.649164 
L 944.462453 71.215049 
L 946.986198 72.754272 
L 949.509943 73.269697 
L 952.033688 72.730834 
L 957.081178 70.038307 
L 959.604923 67.899842 
L 962.128668 67.59414 
L 967.176158 66.21002 
L 969.699902 66.245931 
L 972.223647 65.642508 
L 974.747392 65.507023 
L 977.271137 66.089209 
L 979.794882 65.42001 
L 982.318627 63.535867 
L 984.842372 62.323991 
L 989.889862 62.057606 
L 992.413607 60.77474 
L 997.461097 58.45358 
L 999.984841 58.832089 
L 1002.508586 59.641418 
L 1005.032331 59.886073 
L 1007.556076 59.531947 
L 1010.079821 60.987553 
L 1012.603566 61.637338 
L 1015.127311 61.831564 
L 1017.651056 61.704396 
L 1020.174801 60.936887 
L 1022.698546 60.354593 
L 1027.746035 59.84455 
L 1032.793525 59.723845 
L 1035.31727 59.910326 
L 1037.841015 60.710182 
L 1040.36476 60.372251 
L 1042.888505 60.645793 
L 1045.41225 60.011064 
L 1047.935995 60.517522 
L 1050.45974 60.574448 
L 1052.983485 59.969329 
L 1055.507229 60.425298 
L 1058.030974 60.329895 
L 1060.554719 59.504656 
L 1063.078464 60.453638 
L 1065.602209 59.372045 
L 1068.125954 60.021509 
L 1070.649699 61.418818 
L 1073.173444 61.147476 
L 1075.697189 61.711858 
L 1078.220934 62.604919 
L 1080.744679 62.304867 
L 1083.268424 63.224242 
L 1085.792168 62.508347 
L 1088.315913 62.408315 
L 1090.839658 62.477524 
L 1093.363403 63.054132 
L 1095.887148 64.993799 
L 1098.410893 66.084746 
L 1100.934638 68.745851 
L 1103.458383 73.625527 
L 1105.982128 78.795174 
L 1105.982128 78.795174 
" style="fill:none;stroke:#a4a86f;stroke-linecap:square;stroke-width:2;"/>
   </g>
   <g id="line2d_23">
    <path clip-path="url(#pfc5772a553)" d="M 588.614421 225.695658 
L 591.138166 228.96 
L 601.233145 228.96 
L 603.75689 225.695658 
L 611.328125 225.695658 
L 613.85187 222.816304 
L 616.375615 217.910657 
L 618.89936 217.910657 
L 621.423105 220.240634 
L 623.94685 217.910657 
L 626.470594 217.910657 
L 628.994339 213.82681 
L 631.518084 215.783554 
L 634.041829 220.240634 
L 636.565574 215.783554 
L 639.089319 207.26876 
L 641.613064 207.26876 
L 644.136809 202.103044 
L 646.660554 199.879125 
L 649.184299 195.070295 
L 651.708044 189.615271 
L 654.231789 191.053701 
L 656.755533 185.747287 
L 659.279278 182.408526 
L 661.803023 183.471575 
L 664.326768 183.471575 
L 666.850513 182.934273 
L 671.898003 174.108849 
L 674.421748 174.8611 
L 676.945493 176.034746 
L 679.469238 176.438825 
L 681.992983 177.267591 
L 684.516727 179.014495 
L 687.040472 185.747287 
L 689.564217 188.256796 
L 692.087962 190.323908 
L 694.611707 190.323908 
L 697.135452 185.158192 
L 699.659197 181.893849 
L 702.182942 180.411805 
L 704.706687 179.471448 
L 707.230432 179.471448 
L 709.754177 182.408526 
L 712.277921 184.582959 
L 714.801666 190.323908 
L 717.325411 195.070295 
L 719.849156 197.840757 
L 722.372901 202.103044 
L 724.896646 202.103044 
L 727.420391 203.295781 
L 729.944136 199.879125 
L 732.467881 195.959348 
L 734.991626 196.881958 
L 737.515371 191.053701 
L 740.039116 187.604858 
L 742.56286 191.805953 
L 747.61035 190.323908 
L 750.134095 193.383678 
L 752.65784 191.805953 
L 755.181585 199.879125 
L 757.70533 207.26876 
L 760.229075 203.295781 
L 762.75282 202.103044 
L 765.276565 204.54971 
L 767.80031 202.103044 
L 770.324054 196.881958 
L 772.847799 192.582089 
L 775.371544 189.615271 
L 777.895289 182.408526 
L 780.419034 180.895905 
L 782.942779 175.637237 
L 785.466524 175.637237 
L 787.990269 172.670419 
L 790.514014 171.311944 
L 793.037759 170.340442 
L 795.561504 173.022169 
L 798.085248 173.379055 
L 800.608993 160.112899 
L 803.132738 155.207252 
L 805.656483 148.649202 
L 808.180228 145.466702 
L 810.703973 145.352199 
L 813.227718 144.565355 
L 815.751463 144.899478 
L 818.275208 153.080149 
L 820.798953 157.916248 
L 823.322698 169.406076 
L 825.846443 178.565928 
L 828.370187 174.8611 
L 830.893932 179.471448 
L 833.417677 179.937105 
L 835.941422 178.125443 
L 838.465167 174.8611 
L 843.512657 180.411805 
L 846.036402 182.408526 
L 848.560147 163.951052 
L 851.083892 159.089893 
L 853.607637 156.255109 
L 856.131381 156.614619 
L 858.655126 155.725566 
L 861.178871 156.077317 
L 863.702616 158.107984 
L 866.226361 172.323657 
L 868.750106 179.937105 
L 871.273851 188.926599 
L 873.797596 188.926599 
L 876.321341 195.959348 
L 878.845086 194.212444 
L 881.368831 191.053701 
L 883.892575 191.053701 
L 886.41632 190.323908 
L 888.940065 191.053701 
L 891.46381 194.212444 
L 893.987555 193.383678 
L 896.5113 193.383678 
L 899.035045 197.840757 
L 901.55879 195.959348 
L 904.082535 185.158192 
L 906.60628 184.582959 
L 909.130025 184.582959 
L 911.65377 184.020952 
L 914.177514 184.582959 
L 916.701259 182.934273 
L 919.225004 184.020952 
L 921.748749 195.959348 
L 924.272494 189.615271 
L 926.796239 188.926599 
L 929.319984 186.969854 
L 931.843729 184.020952 
L 934.367474 185.158192 
L 936.891219 185.747287 
L 939.414964 184.582959 
L 941.938708 191.805953 
L 944.462453 193.383678 
L 946.986198 198.838702 
L 949.509943 203.295781 
L 952.033688 204.54971 
L 954.557433 198.838702 
L 957.081178 198.838702 
L 959.604923 195.070295 
L 962.128668 194.212444 
L 964.652413 191.805953 
L 967.176158 194.212444 
L 969.699902 193.383678 
L 972.223647 197.840757 
L 974.747392 199.879125 
L 977.271137 204.54971 
L 979.794882 205.871451 
L 982.318627 208.750805 
L 984.842372 210.32853 
L 987.366117 213.82681 
L 989.889862 212.015148 
L 992.413607 215.783554 
L 997.461097 215.783554 
L 999.984841 210.32853 
L 1002.508586 204.54971 
L 1005.032331 200.965804 
L 1007.556076 202.103044 
L 1010.079821 191.053701 
L 1012.603566 191.053701 
L 1015.127311 190.323908 
L 1017.651056 190.323908 
L 1020.174801 191.805953 
L 1022.698546 194.212444 
L 1025.222291 193.383678 
L 1027.746035 203.295781 
L 1030.26978 198.838702 
L 1032.793525 199.879125 
L 1035.31727 204.54971 
L 1037.841015 205.871451 
L 1040.36476 205.871451 
L 1042.888505 207.26876 
L 1045.41225 210.32853 
L 1047.935995 217.910657 
L 1050.45974 217.910657 
L 1052.983485 212.015148 
L 1063.078464 212.015148 
L 1065.602209 213.82681 
L 1068.125954 213.82681 
L 1070.649699 220.240634 
L 1073.173444 207.26876 
L 1075.697189 204.54971 
L 1078.220934 203.295781 
L 1080.744679 204.54971 
L 1083.268424 203.295781 
L 1085.792168 204.54971 
L 1088.315913 203.295781 
L 1090.839658 213.82681 
L 1093.363403 215.783554 
L 1095.887148 217.910657 
L 1098.410893 215.783554 
L 1100.934638 217.910657 
L 1103.458383 213.82681 
L 1105.982128 215.783554 
L 1108.505873 215.783554 
L 1108.505873 215.783554 
" style="fill:none;stroke:#d3d3d3;stroke-linecap:square;stroke-width:2;"/>
   </g>
   <g id="patch_3">
    <path d="M 53.328125 228.96 
L 53.328125 7.2 
" style="fill:none;stroke:#000000;stroke-linecap:square;stroke-linejoin:miter;stroke-width:0.8;"/>
   </g>
   <g id="patch_4">
    <path d="M 53.328125 228.96 
L 1169.328125 228.96 
" style="fill:none;stroke:#000000;stroke-linecap:square;stroke-linejoin:miter;stroke-width:0.8;"/>
   </g>
   <g id="legend_1">
    <g id="line2d_24">
     <path d="M 60.528125 17.67875 
L 76.528125 17.67875 
" style="fill:none;stroke:#947383;stroke-linecap:square;stroke-width:2;"/>
    </g>
    <g id="line2d_25"/>
    <g id="text_19">
     <!-- Europe -->
     <g transform="translate(82.928125 20.47875)scale(0.08 -0.08)">
      <defs>
       <path d="M 628 4666 
L 3578 4666 
L 3578 4134 
L 1259 4134 
L 1259 2753 
L 3481 2753 
L 3481 2222 
L 1259 2222 
L 1259 531 
L 3634 531 
L 3634 0 
L 628 0 
L 628 4666 
z
" id="DejaVuSans-45" transform="scale(0.015625)"/>
       <path d="M 1159 525 
L 1159 -1331 
L 581 -1331 
L 581 3500 
L 1159 3500 
L 1159 2969 
Q 1341 3281 1617 3432 
Q 1894 3584 2278 3584 
Q 2916 3584 3314 3078 
Q 3713 2572 3713 1747 
Q 3713 922 3314 415 
Q 2916 -91 2278 -91 
Q 1894 -91 1617 61 
Q 1341 213 1159 525 
z
M 3116 1747 
Q 3116 2381 2855 2742 
Q 2594 3103 2138 3103 
Q 1681 3103 1420 2742 
Q 1159 2381 1159 1747 
Q 1159 1113 1420 752 
Q 1681 391 2138 391 
Q 2594 391 2855 752 
Q 3116 1113 3116 1747 
z
" id="DejaVuSans-70" transform="scale(0.015625)"/>
      </defs>
      <use xlink:href="#DejaVuSans-45"/>
      <use x="63.183594" xlink:href="#DejaVuSans-75"/>
      <use x="126.5625" xlink:href="#DejaVuSans-72"/>
      <use x="165.425781" xlink:href="#DejaVuSans-6f"/>
      <use x="226.607422" xlink:href="#DejaVuSans-70"/>
      <use x="290.083984" xlink:href="#DejaVuSans-65"/>
     </g>
    </g>
    <g id="line2d_26">
     <path d="M 60.528125 29.42125 
L 76.528125 29.42125 
" style="fill:none;stroke:#96c6ad;stroke-linecap:square;stroke-width:2;"/>
    </g>
    <g id="line2d_27"/>
    <g id="text_20">
     <!-- North America -->
     <g transform="translate(82.928125 32.22125)scale(0.08 -0.08)">
      <defs>
       <path d="M 628 4666 
L 1478 4666 
L 3547 763 
L 3547 4666 
L 4159 4666 
L 4159 0 
L 3309 0 
L 1241 3903 
L 1241 0 
L 628 0 
L 628 4666 
z
" id="DejaVuSans-4e" transform="scale(0.015625)"/>
       <path d="M 3513 2113 
L 3513 0 
L 2938 0 
L 2938 2094 
Q 2938 2591 2744 2837 
Q 2550 3084 2163 3084 
Q 1697 3084 1428 2787 
Q 1159 2491 1159 1978 
L 1159 0 
L 581 0 
L 581 4863 
L 1159 4863 
L 1159 2956 
Q 1366 3272 1645 3428 
Q 1925 3584 2291 3584 
Q 2894 3584 3203 3211 
Q 3513 2838 3513 2113 
z
" id="DejaVuSans-68" transform="scale(0.015625)"/>
       <path d="M 2188 4044 
L 1331 1722 
L 3047 1722 
L 2188 4044 
z
M 1831 4666 
L 2547 4666 
L 4325 0 
L 3669 0 
L 3244 1197 
L 1141 1197 
L 716 0 
L 50 0 
L 1831 4666 
z
" id="DejaVuSans-41" transform="scale(0.015625)"/>
       <path d="M 3328 2828 
Q 3544 3216 3844 3400 
Q 4144 3584 4550 3584 
Q 5097 3584 5394 3201 
Q 5691 2819 5691 2113 
L 5691 0 
L 5113 0 
L 5113 2094 
Q 5113 2597 4934 2840 
Q 4756 3084 4391 3084 
Q 3944 3084 3684 2787 
Q 3425 2491 3425 1978 
L 3425 0 
L 2847 0 
L 2847 2094 
Q 2847 2600 2669 2842 
Q 2491 3084 2119 3084 
Q 1678 3084 1418 2786 
Q 1159 2488 1159 1978 
L 1159 0 
L 581 0 
L 581 3500 
L 1159 3500 
L 1159 2956 
Q 1356 3278 1631 3431 
Q 1906 3584 2284 3584 
Q 2666 3584 2933 3390 
Q 3200 3197 3328 2828 
z
" id="DejaVuSans-6d" transform="scale(0.015625)"/>
       <path d="M 3122 3366 
L 3122 2828 
Q 2878 2963 2633 3030 
Q 2388 3097 2138 3097 
Q 1578 3097 1268 2742 
Q 959 2388 959 1747 
Q 959 1106 1268 751 
Q 1578 397 2138 397 
Q 2388 397 2633 464 
Q 2878 531 3122 666 
L 3122 134 
Q 2881 22 2623 -34 
Q 2366 -91 2075 -91 
Q 1284 -91 818 406 
Q 353 903 353 1747 
Q 353 2603 823 3093 
Q 1294 3584 2113 3584 
Q 2378 3584 2631 3529 
Q 2884 3475 3122 3366 
z
" id="DejaVuSans-63" transform="scale(0.015625)"/>
      </defs>
      <use xlink:href="#DejaVuSans-4e"/>
      <use x="74.804688" xlink:href="#DejaVuSans-6f"/>
      <use x="135.986328" xlink:href="#DejaVuSans-72"/>
      <use x="177.099609" xlink:href="#DejaVuSans-74"/>
      <use x="216.308594" xlink:href="#DejaVuSans-68"/>
      <use x="279.6875" xlink:href="#DejaVuSans-20"/>
      <use x="311.474609" xlink:href="#DejaVuSans-41"/>
      <use x="379.882812" xlink:href="#DejaVuSans-6d"/>
      <use x="477.294922" xlink:href="#DejaVuSans-65"/>
      <use x="538.818359" xlink:href="#DejaVuSans-72"/>
      <use x="579.931641" xlink:href="#DejaVuSans-69"/>
      <use x="607.714844" xlink:href="#DejaVuSans-63"/>
      <use x="662.695312" xlink:href="#DejaVuSans-61"/>
     </g>
    </g>
    <g id="line2d_28">
     <path d="M 60.528125 41.16375 
L 76.528125 41.16375 
" style="fill:none;stroke:#525886;stroke-linecap:square;stroke-width:2;"/>
    </g>
    <g id="line2d_29"/>
    <g id="text_21">
     <!-- Asia -->
     <g transform="translate(82.928125 43.96375)scale(0.08 -0.08)">
      <defs>
       <path d="M 2834 3397 
L 2834 2853 
Q 2591 2978 2328 3040 
Q 2066 3103 1784 3103 
Q 1356 3103 1142 2972 
Q 928 2841 928 2578 
Q 928 2378 1081 2264 
Q 1234 2150 1697 2047 
L 1894 2003 
Q 2506 1872 2764 1633 
Q 3022 1394 3022 966 
Q 3022 478 2636 193 
Q 2250 -91 1575 -91 
Q 1294 -91 989 -36 
Q 684 19 347 128 
L 347 722 
Q 666 556 975 473 
Q 1284 391 1588 391 
Q 1994 391 2212 530 
Q 2431 669 2431 922 
Q 2431 1156 2273 1281 
Q 2116 1406 1581 1522 
L 1381 1569 
Q 847 1681 609 1914 
Q 372 2147 372 2553 
Q 372 3047 722 3315 
Q 1072 3584 1716 3584 
Q 2034 3584 2315 3537 
Q 2597 3491 2834 3397 
z
" id="DejaVuSans-73" transform="scale(0.015625)"/>
      </defs>
      <use xlink:href="#DejaVuSans-41"/>
      <use x="68.408203" xlink:href="#DejaVuSans-73"/>
      <use x="120.507812" xlink:href="#DejaVuSans-69"/>
      <use x="148.291016" xlink:href="#DejaVuSans-61"/>
     </g>
    </g>
    <g id="line2d_30">
     <path d="M 60.528125 52.90625 
L 76.528125 52.90625 
" style="fill:none;stroke:#937252;stroke-linecap:square;stroke-width:2;"/>
    </g>
    <g id="line2d_31"/>
    <g id="text_22">
     <!-- South America -->
     <g transform="translate(82.928125 55.70625)scale(0.08 -0.08)">
      <defs>
       <path d="M 3425 4513 
L 3425 3897 
Q 3066 4069 2747 4153 
Q 2428 4238 2131 4238 
Q 1616 4238 1336 4038 
Q 1056 3838 1056 3469 
Q 1056 3159 1242 3001 
Q 1428 2844 1947 2747 
L 2328 2669 
Q 3034 2534 3370 2195 
Q 3706 1856 3706 1288 
Q 3706 609 3251 259 
Q 2797 -91 1919 -91 
Q 1588 -91 1214 -16 
Q 841 59 441 206 
L 441 856 
Q 825 641 1194 531 
Q 1563 422 1919 422 
Q 2459 422 2753 634 
Q 3047 847 3047 1241 
Q 3047 1584 2836 1778 
Q 2625 1972 2144 2069 
L 1759 2144 
Q 1053 2284 737 2584 
Q 422 2884 422 3419 
Q 422 4038 858 4394 
Q 1294 4750 2059 4750 
Q 2388 4750 2728 4690 
Q 3069 4631 3425 4513 
z
" id="DejaVuSans-53" transform="scale(0.015625)"/>
      </defs>
      <use xlink:href="#DejaVuSans-53"/>
      <use x="63.476562" xlink:href="#DejaVuSans-6f"/>
      <use x="124.658203" xlink:href="#DejaVuSans-75"/>
      <use x="188.037109" xlink:href="#DejaVuSans-74"/>
      <use x="227.246094" xlink:href="#DejaVuSans-68"/>
      <use x="290.625" xlink:href="#DejaVuSans-20"/>
      <use x="322.412109" xlink:href="#DejaVuSans-41"/>
      <use x="390.820312" xlink:href="#DejaVuSans-6d"/>
      <use x="488.232422" xlink:href="#DejaVuSans-65"/>
      <use x="549.755859" xlink:href="#DejaVuSans-72"/>
      <use x="590.869141" xlink:href="#DejaVuSans-69"/>
      <use x="618.652344" xlink:href="#DejaVuSans-63"/>
      <use x="673.632812" xlink:href="#DejaVuSans-61"/>
     </g>
    </g>
    <g id="line2d_32">
     <path d="M 60.528125 64.64875 
L 76.528125 64.64875 
" style="fill:none;stroke:#d18cad;stroke-linecap:square;stroke-width:2;"/>
    </g>
    <g id="line2d_33"/>
    <g id="text_23">
     <!-- Africa -->
     <g transform="translate(82.928125 67.44875)scale(0.08 -0.08)">
      <defs>
       <path d="M 2375 4863 
L 2375 4384 
L 1825 4384 
Q 1516 4384 1395 4259 
Q 1275 4134 1275 3809 
L 1275 3500 
L 2222 3500 
L 2222 3053 
L 1275 3053 
L 1275 0 
L 697 0 
L 697 3053 
L 147 3053 
L 147 3500 
L 697 3500 
L 697 3744 
Q 697 4328 969 4595 
Q 1241 4863 1831 4863 
L 2375 4863 
z
" id="DejaVuSans-66" transform="scale(0.015625)"/>
      </defs>
      <use xlink:href="#DejaVuSans-41"/>
      <use x="64.783203" xlink:href="#DejaVuSans-66"/>
      <use x="99.988281" xlink:href="#DejaVuSans-72"/>
      <use x="141.101562" xlink:href="#DejaVuSans-69"/>
      <use x="168.884766" xlink:href="#DejaVuSans-63"/>
      <use x="223.865234" xlink:href="#DejaVuSans-61"/>
     </g>
    </g>
    <g id="line2d_34">
     <path d="M 60.528125 76.39125 
L 76.528125 76.39125 
" style="fill:none;stroke:#a4a86f;stroke-linecap:square;stroke-width:2;"/>
    </g>
    <g id="line2d_35"/>
    <g id="text_24">
     <!-- United Kingdom -->
     <g transform="translate(82.928125 79.19125)scale(0.08 -0.08)">
      <defs>
       <path d="M 556 4666 
L 1191 4666 
L 1191 1831 
Q 1191 1081 1462 751 
Q 1734 422 2344 422 
Q 2950 422 3222 751 
Q 3494 1081 3494 1831 
L 3494 4666 
L 4128 4666 
L 4128 1753 
Q 4128 841 3676 375 
Q 3225 -91 2344 -91 
Q 1459 -91 1007 375 
Q 556 841 556 1753 
L 556 4666 
z
" id="DejaVuSans-55" transform="scale(0.015625)"/>
       <path d="M 628 4666 
L 1259 4666 
L 1259 2694 
L 3353 4666 
L 4166 4666 
L 1850 2491 
L 4331 0 
L 3500 0 
L 1259 2247 
L 1259 0 
L 628 0 
L 628 4666 
z
" id="DejaVuSans-4b" transform="scale(0.015625)"/>
      </defs>
      <use xlink:href="#DejaVuSans-55"/>
      <use x="73.193359" xlink:href="#DejaVuSans-6e"/>
      <use x="136.572266" xlink:href="#DejaVuSans-69"/>
      <use x="164.355469" xlink:href="#DejaVuSans-74"/>
      <use x="203.564453" xlink:href="#DejaVuSans-65"/>
      <use x="265.087891" xlink:href="#DejaVuSans-64"/>
      <use x="328.564453" xlink:href="#DejaVuSans-20"/>
      <use x="360.351562" xlink:href="#DejaVuSans-4b"/>
      <use x="425.927734" xlink:href="#DejaVuSans-69"/>
      <use x="453.710938" xlink:href="#DejaVuSans-6e"/>
      <use x="517.089844" xlink:href="#DejaVuSans-67"/>
      <use x="580.566406" xlink:href="#DejaVuSans-64"/>
      <use x="644.042969" xlink:href="#DejaVuSans-6f"/>
      <use x="705.224609" xlink:href="#DejaVuSans-6d"/>
     </g>
    </g>
    <g id="line2d_36">
     <path d="M 60.528125 88.13375 
L 76.528125 88.13375 
" style="fill:none;stroke:#d3d3d3;stroke-linecap:square;stroke-width:2;"/>
    </g>
    <g id="line2d_37"/>
    <g id="text_25">
     <!-- Oceania -->
     <g transform="translate(82.928125 90.93375)scale(0.08 -0.08)">
      <defs>
       <path d="M 2522 4238 
Q 1834 4238 1429 3725 
Q 1025 3213 1025 2328 
Q 1025 1447 1429 934 
Q 1834 422 2522 422 
Q 3209 422 3611 934 
Q 4013 1447 4013 2328 
Q 4013 3213 3611 3725 
Q 3209 4238 2522 4238 
z
M 2522 4750 
Q 3503 4750 4090 4092 
Q 4678 3434 4678 2328 
Q 4678 1225 4090 567 
Q 3503 -91 2522 -91 
Q 1538 -91 948 565 
Q 359 1222 359 2328 
Q 359 3434 948 4092 
Q 1538 4750 2522 4750 
z
" id="DejaVuSans-4f" transform="scale(0.015625)"/>
      </defs>
      <use xlink:href="#DejaVuSans-4f"/>
      <use x="78.710938" xlink:href="#DejaVuSans-63"/>
      <use x="133.691406" xlink:href="#DejaVuSans-65"/>
      <use x="195.214844" xlink:href="#DejaVuSans-61"/>
      <use x="256.494141" xlink:href="#DejaVuSans-6e"/>
      <use x="319.873047" xlink:href="#DejaVuSans-69"/>
      <use x="347.65625" xlink:href="#DejaVuSans-61"/>
     </g>
    </g>
   </g>
  </g>
 </g>
 <defs>
  <clipPath id="pfc5772a553">
   <rect height="221.76" width="1116" x="53.328125" y="7.2"/>
  </clipPath>
 </defs>
</svg>
