<?xml version="1.0" encoding="utf-8" standalone="no"?>
<!DOCTYPE svg PUBLIC "-//W3C//DTD SVG 1.1//EN"
  "http://www.w3.org/Graphics/SVG/1.1/DTD/svg11.dtd">
<svg xmlns:xlink="http://www.w3.org/1999/xlink" width="1182.890625pt" height="298.620937pt" viewBox="0 0 1182.890625 298.620937" xmlns="http://www.w3.org/2000/svg" version="1.1">
 <metadata>
  <rdf:RDF xmlns:dc="http://purl.org/dc/elements/1.1/" xmlns:cc="http://creativecommons.org/ns#" xmlns:rdf="http://www.w3.org/1999/02/22-rdf-syntax-ns#">
   <cc:Work>
    <dc:type rdf:resource="http://purl.org/dc/dcmitype/StillImage"/>
    <dc:date>2022-03-07T14:45:48.232242</dc:date>
    <dc:format>image/svg+xml</dc:format>
    <dc:creator>
     <cc:Agent>
      <dc:title>Matplotlib v3.5.1, https://matplotlib.org/</dc:title>
     </cc:Agent>
    </dc:creator>
   </cc:Work>
  </rdf:RDF>
 </metadata>
 <defs>
  <style type="text/css">*{stroke-linejoin: round; stroke-linecap: butt}</style>
 </defs>
 <g id="figure_1">
  <g id="patch_1">
   <path d="M 0 298.620937 
L 1182.890625 298.620937 
L 1182.890625 0 
L 0 0 
z
" style="fill: #ffffff"/>
  </g>
  <g id="axes_1">
   <g id="patch_2">
    <path d="M 59.690625 228.96 
L 1175.690625 228.96 
L 1175.690625 7.2 
L 59.690625 7.2 
z
" style="fill: #ffffff"/>
   </g>
   <g id="matplotlib.axis_1">
    <g id="xtick_1">
     <g id="line2d_1">
      <defs>
       <path id="m4bb9ab2bf8" d="M 0 0 
L 0 3.5 
" style="stroke: #000000; stroke-width: 0.8"/>
      </defs>
      <g>
       <use xlink:href="#m4bb9ab2bf8" x="93.414343" y="228.96" style="stroke: #000000; stroke-width: 0.8"/>
      </g>
     </g>
     <g id="text_1">
      <!-- 2021-03 -->
      <g transform="translate(96.173718 277.742812)rotate(-90)scale(0.1 -0.1)">
       <defs>
        <path id="DejaVuSans-32" d="M 1228 531 
L 3431 531 
L 3431 0 
L 469 0 
L 469 531 
Q 828 903 1448 1529 
Q 2069 2156 2228 2338 
Q 2531 2678 2651 2914 
Q 2772 3150 2772 3378 
Q 2772 3750 2511 3984 
Q 2250 4219 1831 4219 
Q 1534 4219 1204 4116 
Q 875 4013 500 3803 
L 500 4441 
Q 881 4594 1212 4672 
Q 1544 4750 1819 4750 
Q 2544 4750 2975 4387 
Q 3406 4025 3406 3419 
Q 3406 3131 3298 2873 
Q 3191 2616 2906 2266 
Q 2828 2175 2409 1742 
Q 1991 1309 1228 531 
z
" transform="scale(0.015625)"/>
        <path id="DejaVuSans-30" d="M 2034 4250 
Q 1547 4250 1301 3770 
Q 1056 3291 1056 2328 
Q 1056 1369 1301 889 
Q 1547 409 2034 409 
Q 2525 409 2770 889 
Q 3016 1369 3016 2328 
Q 3016 3291 2770 3770 
Q 2525 4250 2034 4250 
z
M 2034 4750 
Q 2819 4750 3233 4129 
Q 3647 3509 3647 2328 
Q 3647 1150 3233 529 
Q 2819 -91 2034 -91 
Q 1250 -91 836 529 
Q 422 1150 422 2328 
Q 422 3509 836 4129 
Q 1250 4750 2034 4750 
z
" transform="scale(0.015625)"/>
        <path id="DejaVuSans-31" d="M 794 531 
L 1825 531 
L 1825 4091 
L 703 3866 
L 703 4441 
L 1819 4666 
L 2450 4666 
L 2450 531 
L 3481 531 
L 3481 0 
L 794 0 
L 794 531 
z
" transform="scale(0.015625)"/>
        <path id="DejaVuSans-2d" d="M 313 2009 
L 1997 2009 
L 1997 1497 
L 313 1497 
L 313 2009 
z
" transform="scale(0.015625)"/>
        <path id="DejaVuSans-33" d="M 2597 2516 
Q 3050 2419 3304 2112 
Q 3559 1806 3559 1356 
Q 3559 666 3084 287 
Q 2609 -91 1734 -91 
Q 1441 -91 1130 -33 
Q 819 25 488 141 
L 488 750 
Q 750 597 1062 519 
Q 1375 441 1716 441 
Q 2309 441 2620 675 
Q 2931 909 2931 1356 
Q 2931 1769 2642 2001 
Q 2353 2234 1838 2234 
L 1294 2234 
L 1294 2753 
L 1863 2753 
Q 2328 2753 2575 2939 
Q 2822 3125 2822 3475 
Q 2822 3834 2567 4026 
Q 2313 4219 1838 4219 
Q 1578 4219 1281 4162 
Q 984 4106 628 3988 
L 628 4550 
Q 988 4650 1302 4700 
Q 1616 4750 1894 4750 
Q 2613 4750 3031 4423 
Q 3450 4097 3450 3541 
Q 3450 3153 3228 2886 
Q 3006 2619 2597 2516 
z
" transform="scale(0.015625)"/>
       </defs>
       <use xlink:href="#DejaVuSans-32"/>
       <use xlink:href="#DejaVuSans-30" x="63.623047"/>
       <use xlink:href="#DejaVuSans-32" x="127.246094"/>
       <use xlink:href="#DejaVuSans-31" x="190.869141"/>
       <use xlink:href="#DejaVuSans-2d" x="254.492188"/>
       <use xlink:href="#DejaVuSans-30" x="290.576172"/>
       <use xlink:href="#DejaVuSans-33" x="354.199219"/>
      </g>
     </g>
    </g>
    <g id="xtick_2">
     <g id="line2d_2">
      <g>
       <use xlink:href="#m4bb9ab2bf8" x="266.28382" y="228.96" style="stroke: #000000; stroke-width: 0.8"/>
      </g>
     </g>
     <g id="text_2">
      <!-- 2021-05 -->
      <g transform="translate(269.043195 277.742812)rotate(-90)scale(0.1 -0.1)">
       <defs>
        <path id="DejaVuSans-35" d="M 691 4666 
L 3169 4666 
L 3169 4134 
L 1269 4134 
L 1269 2991 
Q 1406 3038 1543 3061 
Q 1681 3084 1819 3084 
Q 2600 3084 3056 2656 
Q 3513 2228 3513 1497 
Q 3513 744 3044 326 
Q 2575 -91 1722 -91 
Q 1428 -91 1123 -41 
Q 819 9 494 109 
L 494 744 
Q 775 591 1075 516 
Q 1375 441 1709 441 
Q 2250 441 2565 725 
Q 2881 1009 2881 1497 
Q 2881 1984 2565 2268 
Q 2250 2553 1709 2553 
Q 1456 2553 1204 2497 
Q 953 2441 691 2322 
L 691 4666 
z
" transform="scale(0.015625)"/>
       </defs>
       <use xlink:href="#DejaVuSans-32"/>
       <use xlink:href="#DejaVuSans-30" x="63.623047"/>
       <use xlink:href="#DejaVuSans-32" x="127.246094"/>
       <use xlink:href="#DejaVuSans-31" x="190.869141"/>
       <use xlink:href="#DejaVuSans-2d" x="254.492188"/>
       <use xlink:href="#DejaVuSans-30" x="290.576172"/>
       <use xlink:href="#DejaVuSans-35" x="354.199219"/>
      </g>
     </g>
    </g>
    <g id="xtick_3">
     <g id="line2d_3">
      <g>
       <use xlink:href="#m4bb9ab2bf8" x="439.153296" y="228.96" style="stroke: #000000; stroke-width: 0.8"/>
      </g>
     </g>
     <g id="text_3">
      <!-- 2021-07 -->
      <g transform="translate(441.912671 277.742812)rotate(-90)scale(0.1 -0.1)">
       <defs>
        <path id="DejaVuSans-37" d="M 525 4666 
L 3525 4666 
L 3525 4397 
L 1831 0 
L 1172 0 
L 2766 4134 
L 525 4134 
L 525 4666 
z
" transform="scale(0.015625)"/>
       </defs>
       <use xlink:href="#DejaVuSans-32"/>
       <use xlink:href="#DejaVuSans-30" x="63.623047"/>
       <use xlink:href="#DejaVuSans-32" x="127.246094"/>
       <use xlink:href="#DejaVuSans-31" x="190.869141"/>
       <use xlink:href="#DejaVuSans-2d" x="254.492188"/>
       <use xlink:href="#DejaVuSans-30" x="290.576172"/>
       <use xlink:href="#DejaVuSans-37" x="354.199219"/>
      </g>
     </g>
    </g>
    <g id="xtick_4">
     <g id="line2d_4">
      <g>
       <use xlink:href="#m4bb9ab2bf8" x="614.856699" y="228.96" style="stroke: #000000; stroke-width: 0.8"/>
      </g>
     </g>
     <g id="text_4">
      <!-- 2021-09 -->
      <g transform="translate(617.616074 277.742812)rotate(-90)scale(0.1 -0.1)">
       <defs>
        <path id="DejaVuSans-39" d="M 703 97 
L 703 672 
Q 941 559 1184 500 
Q 1428 441 1663 441 
Q 2288 441 2617 861 
Q 2947 1281 2994 2138 
Q 2813 1869 2534 1725 
Q 2256 1581 1919 1581 
Q 1219 1581 811 2004 
Q 403 2428 403 3163 
Q 403 3881 828 4315 
Q 1253 4750 1959 4750 
Q 2769 4750 3195 4129 
Q 3622 3509 3622 2328 
Q 3622 1225 3098 567 
Q 2575 -91 1691 -91 
Q 1453 -91 1209 -44 
Q 966 3 703 97 
z
M 1959 2075 
Q 2384 2075 2632 2365 
Q 2881 2656 2881 3163 
Q 2881 3666 2632 3958 
Q 2384 4250 1959 4250 
Q 1534 4250 1286 3958 
Q 1038 3666 1038 3163 
Q 1038 2656 1286 2365 
Q 1534 2075 1959 2075 
z
" transform="scale(0.015625)"/>
       </defs>
       <use xlink:href="#DejaVuSans-32"/>
       <use xlink:href="#DejaVuSans-30" x="63.623047"/>
       <use xlink:href="#DejaVuSans-32" x="127.246094"/>
       <use xlink:href="#DejaVuSans-31" x="190.869141"/>
       <use xlink:href="#DejaVuSans-2d" x="254.492188"/>
       <use xlink:href="#DejaVuSans-30" x="290.576172"/>
       <use xlink:href="#DejaVuSans-39" x="354.199219"/>
      </g>
     </g>
    </g>
    <g id="xtick_5">
     <g id="line2d_5">
      <g>
       <use xlink:href="#m4bb9ab2bf8" x="787.726176" y="228.96" style="stroke: #000000; stroke-width: 0.8"/>
      </g>
     </g>
     <g id="text_5">
      <!-- 2021-11 -->
      <g transform="translate(790.485551 277.742812)rotate(-90)scale(0.1 -0.1)">
       <use xlink:href="#DejaVuSans-32"/>
       <use xlink:href="#DejaVuSans-30" x="63.623047"/>
       <use xlink:href="#DejaVuSans-32" x="127.246094"/>
       <use xlink:href="#DejaVuSans-31" x="190.869141"/>
       <use xlink:href="#DejaVuSans-2d" x="254.492188"/>
       <use xlink:href="#DejaVuSans-31" x="290.576172"/>
       <use xlink:href="#DejaVuSans-31" x="354.199219"/>
      </g>
     </g>
    </g>
    <g id="xtick_6">
     <g id="line2d_6">
      <g>
       <use xlink:href="#m4bb9ab2bf8" x="960.595653" y="228.96" style="stroke: #000000; stroke-width: 0.8"/>
      </g>
     </g>
     <g id="text_6">
      <!-- 2022-01 -->
      <g transform="translate(963.355028 277.742812)rotate(-90)scale(0.1 -0.1)">
       <use xlink:href="#DejaVuSans-32"/>
       <use xlink:href="#DejaVuSans-30" x="63.623047"/>
       <use xlink:href="#DejaVuSans-32" x="127.246094"/>
       <use xlink:href="#DejaVuSans-32" x="190.869141"/>
       <use xlink:href="#DejaVuSans-2d" x="254.492188"/>
       <use xlink:href="#DejaVuSans-30" x="290.576172"/>
       <use xlink:href="#DejaVuSans-31" x="354.199219"/>
      </g>
     </g>
    </g>
    <g id="xtick_7">
     <g id="line2d_7">
      <g>
       <use xlink:href="#m4bb9ab2bf8" x="1127.797278" y="228.96" style="stroke: #000000; stroke-width: 0.8"/>
      </g>
     </g>
     <g id="text_7">
      <!-- 2022-03 -->
      <g transform="translate(1130.556653 277.742812)rotate(-90)scale(0.1 -0.1)">
       <use xlink:href="#DejaVuSans-32"/>
       <use xlink:href="#DejaVuSans-30" x="63.623047"/>
       <use xlink:href="#DejaVuSans-32" x="127.246094"/>
       <use xlink:href="#DejaVuSans-32" x="190.869141"/>
       <use xlink:href="#DejaVuSans-2d" x="254.492188"/>
       <use xlink:href="#DejaVuSans-30" x="290.576172"/>
       <use xlink:href="#DejaVuSans-33" x="354.199219"/>
      </g>
     </g>
    </g>
    <g id="text_8">
     <!-- Date -->
     <g transform="translate(605.739844 289.34125)scale(0.1 -0.1)">
      <defs>
       <path id="DejaVuSans-44" d="M 1259 4147 
L 1259 519 
L 2022 519 
Q 2988 519 3436 956 
Q 3884 1394 3884 2338 
Q 3884 3275 3436 3711 
Q 2988 4147 2022 4147 
L 1259 4147 
z
M 628 4666 
L 1925 4666 
Q 3281 4666 3915 4102 
Q 4550 3538 4550 2338 
Q 4550 1131 3912 565 
Q 3275 0 1925 0 
L 628 0 
L 628 4666 
z
" transform="scale(0.015625)"/>
       <path id="DejaVuSans-61" d="M 2194 1759 
Q 1497 1759 1228 1600 
Q 959 1441 959 1056 
Q 959 750 1161 570 
Q 1363 391 1709 391 
Q 2188 391 2477 730 
Q 2766 1069 2766 1631 
L 2766 1759 
L 2194 1759 
z
M 3341 1997 
L 3341 0 
L 2766 0 
L 2766 531 
Q 2569 213 2275 61 
Q 1981 -91 1556 -91 
Q 1019 -91 701 211 
Q 384 513 384 1019 
Q 384 1609 779 1909 
Q 1175 2209 1959 2209 
L 2766 2209 
L 2766 2266 
Q 2766 2663 2505 2880 
Q 2244 3097 1772 3097 
Q 1472 3097 1187 3025 
Q 903 2953 641 2809 
L 641 3341 
Q 956 3463 1253 3523 
Q 1550 3584 1831 3584 
Q 2591 3584 2966 3190 
Q 3341 2797 3341 1997 
z
" transform="scale(0.015625)"/>
       <path id="DejaVuSans-74" d="M 1172 4494 
L 1172 3500 
L 2356 3500 
L 2356 3053 
L 1172 3053 
L 1172 1153 
Q 1172 725 1289 603 
Q 1406 481 1766 481 
L 2356 481 
L 2356 0 
L 1766 0 
Q 1100 0 847 248 
Q 594 497 594 1153 
L 594 3053 
L 172 3053 
L 172 3500 
L 594 3500 
L 594 4494 
L 1172 4494 
z
" transform="scale(0.015625)"/>
       <path id="DejaVuSans-65" d="M 3597 1894 
L 3597 1613 
L 953 1613 
Q 991 1019 1311 708 
Q 1631 397 2203 397 
Q 2534 397 2845 478 
Q 3156 559 3463 722 
L 3463 178 
Q 3153 47 2828 -22 
Q 2503 -91 2169 -91 
Q 1331 -91 842 396 
Q 353 884 353 1716 
Q 353 2575 817 3079 
Q 1281 3584 2069 3584 
Q 2775 3584 3186 3129 
Q 3597 2675 3597 1894 
z
M 3022 2063 
Q 3016 2534 2758 2815 
Q 2500 3097 2075 3097 
Q 1594 3097 1305 2825 
Q 1016 2553 972 2059 
L 3022 2063 
z
" transform="scale(0.015625)"/>
      </defs>
      <use xlink:href="#DejaVuSans-44"/>
      <use xlink:href="#DejaVuSans-61" x="77.001953"/>
      <use xlink:href="#DejaVuSans-74" x="138.28125"/>
      <use xlink:href="#DejaVuSans-65" x="177.490234"/>
     </g>
    </g>
   </g>
   <g id="matplotlib.axis_2">
    <g id="ytick_1">
     <g id="line2d_8">
      <defs>
       <path id="m91c018a448" d="M 0 0 
L -3.5 0 
" style="stroke: #000000; stroke-width: 0.8"/>
      </defs>
      <g>
       <use xlink:href="#m91c018a448" x="59.690625" y="228.96" style="stroke: #000000; stroke-width: 0.8"/>
      </g>
     </g>
     <g id="text_9">
      <!-- 1 -->
      <g transform="translate(46.328125 232.759219)scale(0.1 -0.1)">
       <use xlink:href="#DejaVuSans-31"/>
      </g>
     </g>
    </g>
    <g id="ytick_2">
     <g id="line2d_9">
      <g>
       <use xlink:href="#m91c018a448" x="59.690625" y="202.966919" style="stroke: #000000; stroke-width: 0.8"/>
      </g>
     </g>
     <g id="text_10">
      <!-- 3 -->
      <g transform="translate(46.328125 206.766138)scale(0.1 -0.1)">
       <use xlink:href="#DejaVuSans-33"/>
      </g>
     </g>
    </g>
    <g id="ytick_3">
     <g id="line2d_10">
      <g>
       <use xlink:href="#m91c018a448" x="59.690625" y="176.973838" style="stroke: #000000; stroke-width: 0.8"/>
      </g>
     </g>
     <g id="text_11">
      <!-- 10 -->
      <g transform="translate(39.965625 180.773057)scale(0.1 -0.1)">
       <use xlink:href="#DejaVuSans-31"/>
       <use xlink:href="#DejaVuSans-30" x="63.623047"/>
      </g>
     </g>
    </g>
    <g id="ytick_4">
     <g id="line2d_11">
      <g>
       <use xlink:href="#m91c018a448" x="59.690625" y="150.980757" style="stroke: #000000; stroke-width: 0.8"/>
      </g>
     </g>
     <g id="text_12">
      <!-- 31 -->
      <g transform="translate(39.965625 154.779976)scale(0.1 -0.1)">
       <use xlink:href="#DejaVuSans-33"/>
       <use xlink:href="#DejaVuSans-31" x="63.623047"/>
      </g>
     </g>
    </g>
    <g id="ytick_5">
     <g id="line2d_12">
      <g>
       <use xlink:href="#m91c018a448" x="59.690625" y="124.987676" style="stroke: #000000; stroke-width: 0.8"/>
      </g>
     </g>
     <g id="text_13">
      <!-- 100 -->
      <g transform="translate(33.603125 128.786895)scale(0.1 -0.1)">
       <use xlink:href="#DejaVuSans-31"/>
       <use xlink:href="#DejaVuSans-30" x="63.623047"/>
       <use xlink:href="#DejaVuSans-30" x="127.246094"/>
      </g>
     </g>
    </g>
    <g id="ytick_6">
     <g id="line2d_13">
      <g>
       <use xlink:href="#m91c018a448" x="59.690625" y="98.994595" style="stroke: #000000; stroke-width: 0.8"/>
      </g>
     </g>
     <g id="text_14">
      <!-- 316 -->
      <g transform="translate(33.603125 102.793814)scale(0.1 -0.1)">
       <defs>
        <path id="DejaVuSans-36" d="M 2113 2584 
Q 1688 2584 1439 2293 
Q 1191 2003 1191 1497 
Q 1191 994 1439 701 
Q 1688 409 2113 409 
Q 2538 409 2786 701 
Q 3034 994 3034 1497 
Q 3034 2003 2786 2293 
Q 2538 2584 2113 2584 
z
M 3366 4563 
L 3366 3988 
Q 3128 4100 2886 4159 
Q 2644 4219 2406 4219 
Q 1781 4219 1451 3797 
Q 1122 3375 1075 2522 
Q 1259 2794 1537 2939 
Q 1816 3084 2150 3084 
Q 2853 3084 3261 2657 
Q 3669 2231 3669 1497 
Q 3669 778 3244 343 
Q 2819 -91 2113 -91 
Q 1303 -91 875 529 
Q 447 1150 447 2328 
Q 447 3434 972 4092 
Q 1497 4750 2381 4750 
Q 2619 4750 2861 4703 
Q 3103 4656 3366 4563 
z
" transform="scale(0.015625)"/>
       </defs>
       <use xlink:href="#DejaVuSans-33"/>
       <use xlink:href="#DejaVuSans-31" x="63.623047"/>
       <use xlink:href="#DejaVuSans-36" x="127.246094"/>
      </g>
     </g>
    </g>
    <g id="ytick_7">
     <g id="line2d_14">
      <g>
       <use xlink:href="#m91c018a448" x="59.690625" y="73.001514" style="stroke: #000000; stroke-width: 0.8"/>
      </g>
     </g>
     <g id="text_15">
      <!-- 1000 -->
      <g transform="translate(27.240625 76.800733)scale(0.1 -0.1)">
       <use xlink:href="#DejaVuSans-31"/>
       <use xlink:href="#DejaVuSans-30" x="63.623047"/>
       <use xlink:href="#DejaVuSans-30" x="127.246094"/>
       <use xlink:href="#DejaVuSans-30" x="190.869141"/>
      </g>
     </g>
    </g>
    <g id="ytick_8">
     <g id="line2d_15">
      <g>
       <use xlink:href="#m91c018a448" x="59.690625" y="47.008433" style="stroke: #000000; stroke-width: 0.8"/>
      </g>
     </g>
     <g id="text_16">
      <!-- 3162 -->
      <g transform="translate(27.240625 50.807652)scale(0.1 -0.1)">
       <use xlink:href="#DejaVuSans-33"/>
       <use xlink:href="#DejaVuSans-31" x="63.623047"/>
       <use xlink:href="#DejaVuSans-36" x="127.246094"/>
       <use xlink:href="#DejaVuSans-32" x="190.869141"/>
      </g>
     </g>
    </g>
    <g id="ytick_9">
     <g id="line2d_16">
      <g>
       <use xlink:href="#m91c018a448" x="59.690625" y="21.015352" style="stroke: #000000; stroke-width: 0.8"/>
      </g>
     </g>
     <g id="text_17">
      <!-- 10000 -->
      <g transform="translate(20.878125 24.814571)scale(0.1 -0.1)">
       <use xlink:href="#DejaVuSans-31"/>
       <use xlink:href="#DejaVuSans-30" x="63.623047"/>
       <use xlink:href="#DejaVuSans-30" x="127.246094"/>
       <use xlink:href="#DejaVuSans-30" x="190.869141"/>
       <use xlink:href="#DejaVuSans-30" x="254.492188"/>
      </g>
     </g>
    </g>
    <g id="text_18">
     <!-- Count (7 day rolling average) -->
     <g transform="translate(14.798438 191.547969)rotate(-90)scale(0.1 -0.1)">
      <defs>
       <path id="DejaVuSans-43" d="M 4122 4306 
L 4122 3641 
Q 3803 3938 3442 4084 
Q 3081 4231 2675 4231 
Q 1875 4231 1450 3742 
Q 1025 3253 1025 2328 
Q 1025 1406 1450 917 
Q 1875 428 2675 428 
Q 3081 428 3442 575 
Q 3803 722 4122 1019 
L 4122 359 
Q 3791 134 3420 21 
Q 3050 -91 2638 -91 
Q 1578 -91 968 557 
Q 359 1206 359 2328 
Q 359 3453 968 4101 
Q 1578 4750 2638 4750 
Q 3056 4750 3426 4639 
Q 3797 4528 4122 4306 
z
" transform="scale(0.015625)"/>
       <path id="DejaVuSans-6f" d="M 1959 3097 
Q 1497 3097 1228 2736 
Q 959 2375 959 1747 
Q 959 1119 1226 758 
Q 1494 397 1959 397 
Q 2419 397 2687 759 
Q 2956 1122 2956 1747 
Q 2956 2369 2687 2733 
Q 2419 3097 1959 3097 
z
M 1959 3584 
Q 2709 3584 3137 3096 
Q 3566 2609 3566 1747 
Q 3566 888 3137 398 
Q 2709 -91 1959 -91 
Q 1206 -91 779 398 
Q 353 888 353 1747 
Q 353 2609 779 3096 
Q 1206 3584 1959 3584 
z
" transform="scale(0.015625)"/>
       <path id="DejaVuSans-75" d="M 544 1381 
L 544 3500 
L 1119 3500 
L 1119 1403 
Q 1119 906 1312 657 
Q 1506 409 1894 409 
Q 2359 409 2629 706 
Q 2900 1003 2900 1516 
L 2900 3500 
L 3475 3500 
L 3475 0 
L 2900 0 
L 2900 538 
Q 2691 219 2414 64 
Q 2138 -91 1772 -91 
Q 1169 -91 856 284 
Q 544 659 544 1381 
z
M 1991 3584 
L 1991 3584 
z
" transform="scale(0.015625)"/>
       <path id="DejaVuSans-6e" d="M 3513 2113 
L 3513 0 
L 2938 0 
L 2938 2094 
Q 2938 2591 2744 2837 
Q 2550 3084 2163 3084 
Q 1697 3084 1428 2787 
Q 1159 2491 1159 1978 
L 1159 0 
L 581 0 
L 581 3500 
L 1159 3500 
L 1159 2956 
Q 1366 3272 1645 3428 
Q 1925 3584 2291 3584 
Q 2894 3584 3203 3211 
Q 3513 2838 3513 2113 
z
" transform="scale(0.015625)"/>
       <path id="DejaVuSans-20" transform="scale(0.015625)"/>
       <path id="DejaVuSans-28" d="M 1984 4856 
Q 1566 4138 1362 3434 
Q 1159 2731 1159 2009 
Q 1159 1288 1364 580 
Q 1569 -128 1984 -844 
L 1484 -844 
Q 1016 -109 783 600 
Q 550 1309 550 2009 
Q 550 2706 781 3412 
Q 1013 4119 1484 4856 
L 1984 4856 
z
" transform="scale(0.015625)"/>
       <path id="DejaVuSans-64" d="M 2906 2969 
L 2906 4863 
L 3481 4863 
L 3481 0 
L 2906 0 
L 2906 525 
Q 2725 213 2448 61 
Q 2172 -91 1784 -91 
Q 1150 -91 751 415 
Q 353 922 353 1747 
Q 353 2572 751 3078 
Q 1150 3584 1784 3584 
Q 2172 3584 2448 3432 
Q 2725 3281 2906 2969 
z
M 947 1747 
Q 947 1113 1208 752 
Q 1469 391 1925 391 
Q 2381 391 2643 752 
Q 2906 1113 2906 1747 
Q 2906 2381 2643 2742 
Q 2381 3103 1925 3103 
Q 1469 3103 1208 2742 
Q 947 2381 947 1747 
z
" transform="scale(0.015625)"/>
       <path id="DejaVuSans-79" d="M 2059 -325 
Q 1816 -950 1584 -1140 
Q 1353 -1331 966 -1331 
L 506 -1331 
L 506 -850 
L 844 -850 
Q 1081 -850 1212 -737 
Q 1344 -625 1503 -206 
L 1606 56 
L 191 3500 
L 800 3500 
L 1894 763 
L 2988 3500 
L 3597 3500 
L 2059 -325 
z
" transform="scale(0.015625)"/>
       <path id="DejaVuSans-72" d="M 2631 2963 
Q 2534 3019 2420 3045 
Q 2306 3072 2169 3072 
Q 1681 3072 1420 2755 
Q 1159 2438 1159 1844 
L 1159 0 
L 581 0 
L 581 3500 
L 1159 3500 
L 1159 2956 
Q 1341 3275 1631 3429 
Q 1922 3584 2338 3584 
Q 2397 3584 2469 3576 
Q 2541 3569 2628 3553 
L 2631 2963 
z
" transform="scale(0.015625)"/>
       <path id="DejaVuSans-6c" d="M 603 4863 
L 1178 4863 
L 1178 0 
L 603 0 
L 603 4863 
z
" transform="scale(0.015625)"/>
       <path id="DejaVuSans-69" d="M 603 3500 
L 1178 3500 
L 1178 0 
L 603 0 
L 603 3500 
z
M 603 4863 
L 1178 4863 
L 1178 4134 
L 603 4134 
L 603 4863 
z
" transform="scale(0.015625)"/>
       <path id="DejaVuSans-67" d="M 2906 1791 
Q 2906 2416 2648 2759 
Q 2391 3103 1925 3103 
Q 1463 3103 1205 2759 
Q 947 2416 947 1791 
Q 947 1169 1205 825 
Q 1463 481 1925 481 
Q 2391 481 2648 825 
Q 2906 1169 2906 1791 
z
M 3481 434 
Q 3481 -459 3084 -895 
Q 2688 -1331 1869 -1331 
Q 1566 -1331 1297 -1286 
Q 1028 -1241 775 -1147 
L 775 -588 
Q 1028 -725 1275 -790 
Q 1522 -856 1778 -856 
Q 2344 -856 2625 -561 
Q 2906 -266 2906 331 
L 2906 616 
Q 2728 306 2450 153 
Q 2172 0 1784 0 
Q 1141 0 747 490 
Q 353 981 353 1791 
Q 353 2603 747 3093 
Q 1141 3584 1784 3584 
Q 2172 3584 2450 3431 
Q 2728 3278 2906 2969 
L 2906 3500 
L 3481 3500 
L 3481 434 
z
" transform="scale(0.015625)"/>
       <path id="DejaVuSans-76" d="M 191 3500 
L 800 3500 
L 1894 563 
L 2988 3500 
L 3597 3500 
L 2284 0 
L 1503 0 
L 191 3500 
z
" transform="scale(0.015625)"/>
       <path id="DejaVuSans-29" d="M 513 4856 
L 1013 4856 
Q 1481 4119 1714 3412 
Q 1947 2706 1947 2009 
Q 1947 1309 1714 600 
Q 1481 -109 1013 -844 
L 513 -844 
Q 928 -128 1133 580 
Q 1338 1288 1338 2009 
Q 1338 2731 1133 3434 
Q 928 4138 513 4856 
z
" transform="scale(0.015625)"/>
      </defs>
      <use xlink:href="#DejaVuSans-43"/>
      <use xlink:href="#DejaVuSans-6f" x="69.824219"/>
      <use xlink:href="#DejaVuSans-75" x="131.005859"/>
      <use xlink:href="#DejaVuSans-6e" x="194.384766"/>
      <use xlink:href="#DejaVuSans-74" x="257.763672"/>
      <use xlink:href="#DejaVuSans-20" x="296.972656"/>
      <use xlink:href="#DejaVuSans-28" x="328.759766"/>
      <use xlink:href="#DejaVuSans-37" x="367.773438"/>
      <use xlink:href="#DejaVuSans-20" x="431.396484"/>
      <use xlink:href="#DejaVuSans-64" x="463.183594"/>
      <use xlink:href="#DejaVuSans-61" x="526.660156"/>
      <use xlink:href="#DejaVuSans-79" x="587.939453"/>
      <use xlink:href="#DejaVuSans-20" x="647.119141"/>
      <use xlink:href="#DejaVuSans-72" x="678.90625"/>
      <use xlink:href="#DejaVuSans-6f" x="717.769531"/>
      <use xlink:href="#DejaVuSans-6c" x="778.951172"/>
      <use xlink:href="#DejaVuSans-6c" x="806.734375"/>
      <use xlink:href="#DejaVuSans-69" x="834.517578"/>
      <use xlink:href="#DejaVuSans-6e" x="862.300781"/>
      <use xlink:href="#DejaVuSans-67" x="925.679688"/>
      <use xlink:href="#DejaVuSans-20" x="989.15625"/>
      <use xlink:href="#DejaVuSans-61" x="1020.943359"/>
      <use xlink:href="#DejaVuSans-76" x="1082.222656"/>
      <use xlink:href="#DejaVuSans-65" x="1141.402344"/>
      <use xlink:href="#DejaVuSans-72" x="1202.925781"/>
      <use xlink:href="#DejaVuSans-61" x="1244.039062"/>
      <use xlink:href="#DejaVuSans-67" x="1305.318359"/>
      <use xlink:href="#DejaVuSans-65" x="1368.794922"/>
      <use xlink:href="#DejaVuSans-29" x="1430.318359"/>
     </g>
    </g>
   </g>
   <g id="line2d_17">
    <path d="M 110.417898 208.927087 
L 113.251824 211.752933 
L 116.085749 185.026596 
L 118.919675 185.492124 
L 121.753601 182.418627 
L 124.587527 180.080958 
L 127.421453 180.080958 
L 130.255379 182.832901 
L 133.089305 182.832901 
L 135.92323 153.843293 
L 138.757156 153.843293 
L 141.591082 154.548891 
L 144.425008 155.031847 
L 150.09286 155.031847 
L 152.926785 154.910136 
L 155.760711 214.983764 
L 158.594637 211.752933 
L 161.428563 210.295827 
L 164.262489 204.156297 
L 167.096415 203.106001 
L 169.930341 201.141518 
L 172.764266 190.766518 
L 175.598192 190.766518 
L 178.432118 191.368615 
L 184.09997 189.050961 
L 186.933896 186.94923 
L 189.767822 186.453006 
L 192.601747 190.766518 
L 195.435673 188.506903 
L 198.269599 184.570474 
L 201.103525 184.570474 
L 203.937451 176.973838 
L 206.771377 178.302298 
L 209.605303 175.117123 
L 212.439228 170.803611 
L 220.941006 170.079144 
L 223.774932 176.653587 
L 226.608858 173.401567 
L 229.442783 174.821991 
L 232.276709 170.318059 
L 235.110635 166.161735 
L 237.944561 162.652904 
L 240.778487 156.545976 
L 243.612413 153.15908 
L 246.446339 150.512341 
L 249.280264 148.597864 
L 252.11419 145.999909 
L 254.948116 144.19276 
L 257.782042 140.961929 
L 260.615968 140.316819 
L 263.449894 139.321515 
L 269.117745 138.193899 
L 271.951671 134.813052 
L 274.785597 133.040434 
L 277.619523 132.270422 
L 283.287375 129.626047 
L 286.1213 129.35047 
L 288.955226 129.507531 
L 291.789152 130.597263 
L 294.623078 131.014601 
L 297.457004 130.680116 
L 300.29093 130.680116 
L 303.124856 130.146931 
L 305.958781 129.785043 
L 308.792707 128.467983 
L 314.460559 124.445922 
L 317.294485 123.855429 
L 320.128411 121.525807 
L 322.962337 119.846721 
L 325.796262 119.464693 
L 328.630188 120.209208 
L 331.464114 119.769796 
L 334.29804 118.355928 
L 337.131966 116.621027 
L 339.965892 115.640672 
L 342.799817 115.030722 
L 345.633743 114.599099 
L 348.467669 113.045498 
L 351.301595 110.615488 
L 354.135521 109.354414 
L 356.969447 108.639632 
L 359.803373 107.437051 
L 362.637298 105.397337 
L 368.30515 103.315781 
L 371.139076 100.739047 
L 373.973002 97.98331 
L 376.806928 94.804553 
L 379.640854 92.602701 
L 382.474779 90.589602 
L 385.308705 88.146972 
L 388.142631 87.512527 
L 390.976557 85.692643 
L 393.810483 84.556091 
L 396.644409 84.518458 
L 399.478334 83.80468 
L 402.31226 84.076951 
L 405.146186 84.464805 
L 410.814038 83.612928 
L 413.647964 81.884914 
L 416.48189 80.499027 
L 419.315815 79.917644 
L 422.149741 78.315325 
L 427.817593 76.455496 
L 430.651519 73.7558 
L 439.153296 66.969134 
L 441.987222 65.58065 
L 444.821148 64.446397 
L 447.655074 63.727113 
L 450.489 61.74428 
L 453.322926 59.07918 
L 461.824703 53.974797 
L 464.658629 52.841464 
L 467.492555 51.388981 
L 470.326481 49.142992 
L 473.160407 46.674281 
L 475.994332 45.75464 
L 478.828258 44.340088 
L 481.662184 43.141777 
L 484.49611 42.533846 
L 487.330036 42.269372 
L 490.163962 41.080034 
L 492.997888 38.848675 
L 495.831813 38.192489 
L 498.665739 38.006893 
L 501.499665 38.204917 
L 504.333591 37.974057 
L 507.167517 37.911937 
L 510.001443 38.078201 
L 512.835369 39.242917 
L 515.669294 39.039919 
L 518.50322 39.14047 
L 521.337146 38.64988 
L 524.171072 38.960513 
L 527.004998 38.531858 
L 529.838924 38.955515 
L 535.506775 38.829498 
L 538.340701 38.403996 
L 541.174627 38.446536 
L 544.008553 38.011686 
L 546.842479 38.205607 
L 549.676405 37.397699 
L 552.51033 36.341951 
L 555.344256 36.200587 
L 561.012108 35.44677 
L 563.846034 35.530659 
L 566.67996 35.420504 
L 569.513886 34.991173 
L 572.347811 35.123937 
L 575.181737 34.788433 
L 578.015663 34.921201 
L 583.683515 34.263875 
L 589.351366 34.317878 
L 592.185292 33.639246 
L 597.853144 33.604294 
L 603.520996 34.211157 
L 606.354922 34.18918 
L 609.188847 34.484768 
L 612.022773 35.206028 
L 614.856699 35.318784 
L 623.358477 35.131168 
L 626.192403 35.474902 
L 629.026328 35.47429 
L 631.860254 35.899899 
L 634.69418 35.616092 
L 646.029884 36.863004 
L 651.697735 37.605219 
L 654.531661 38.577448 
L 660.199513 39.195243 
L 665.867364 39.51938 
L 668.70129 39.536956 
L 671.535216 40.242344 
L 674.369142 40.532932 
L 677.203068 40.997041 
L 682.87092 41.025193 
L 685.704845 41.094158 
L 688.538771 41.621433 
L 691.372697 41.236671 
L 694.206623 41.282529 
L 697.040549 40.766114 
L 699.874475 41.191694 
L 702.708401 41.455731 
L 705.542326 41.438989 
L 708.376252 41.568468 
L 711.210178 41.93045 
L 714.044104 42.09066 
L 716.87803 42.007961 
L 722.545881 41.34038 
L 725.379807 41.323723 
L 733.881585 40.344612 
L 736.715511 40.397823 
L 739.549437 40.33095 
L 742.383362 40.446583 
L 745.217288 39.960674 
L 750.88514 38.562007 
L 753.719066 37.557521 
L 756.552992 36.906647 
L 759.386918 35.577945 
L 762.220843 34.497071 
L 765.054769 34.147597 
L 767.888695 33.067708 
L 773.556547 31.703789 
L 776.390473 30.641257 
L 779.224398 30.504829 
L 782.058324 30.900615 
L 784.89225 30.712507 
L 787.726176 32.450258 
L 790.560102 32.426186 
L 793.394028 31.452499 
L 796.227954 31.292274 
L 799.061879 30.495992 
L 801.895805 29.848615 
L 804.729731 29.523763 
L 807.563657 26.828888 
L 810.397583 26.628661 
L 813.231509 26.927995 
L 816.065435 27.666652 
L 818.89936 28.83388 
L 824.567212 29.543047 
L 827.401138 29.396709 
L 830.235064 29.582609 
L 833.06899 29.977285 
L 835.902916 29.203055 
L 838.736841 28.707919 
L 847.238619 27.680947 
L 855.740396 28.922977 
L 858.574322 28.996805 
L 861.408248 29.255494 
L 864.242174 29.218356 
L 869.910026 27.639388 
L 872.743952 27.310495 
L 878.411803 26.382281 
L 881.245729 25.371495 
L 884.079655 24.574062 
L 886.913581 23.474886 
L 889.747507 24.086598 
L 898.249284 25.129101 
L 901.08321 26.105804 
L 903.917136 27.421593 
L 906.751062 30.300504 
L 909.584988 30.504829 
L 912.418913 31.026897 
L 915.252839 31.912917 
L 918.086765 33.297702 
L 920.920691 34.020436 
L 923.754617 34.59868 
L 926.588543 36.047546 
L 929.422469 38.053492 
L 935.09032 40.434383 
L 940.758172 43.563357 
L 943.592098 43.795706 
L 946.426024 46.538019 
L 949.25995 48.319626 
L 954.927801 49.951 
L 957.761727 51.019286 
L 963.429579 51.877171 
L 966.263505 54.074999 
L 969.09743 55.214938 
L 971.931356 57.313449 
L 974.765282 60.004893 
L 977.599208 59.995826 
L 980.433134 60.390871 
L 983.26706 62.297561 
L 986.100986 66.745558 
L 988.934911 69.385232 
L 991.768837 71.537354 
L 994.602763 73.082291 
L 997.436689 76.234826 
L 1000.270615 77.82682 
L 1003.104541 78.706408 
L 1005.938467 82.961859 
L 1008.772392 85.473034 
L 1011.606318 88.394345 
L 1017.27417 95.933654 
L 1020.108096 97.112821 
L 1022.942022 98.120262 
L 1025.775947 103.427213 
L 1028.609873 110.22636 
L 1031.443799 113.448161 
L 1034.277725 116.333415 
L 1037.111651 117.669203 
L 1039.945577 120.157067 
L 1042.779503 122.953419 
L 1045.613428 127.259176 
L 1048.447354 129.626047 
L 1051.28128 132.449253 
L 1056.949132 137.341824 
L 1059.783058 138.661839 
L 1062.616984 139.751572 
L 1065.450909 143.450019 
L 1068.284835 149.726964 
L 1071.118761 153.384855 
L 1073.952687 154.910136 
L 1076.786613 158.59366 
L 1079.620539 160.688421 
L 1082.454465 161.486289 
L 1085.28839 167.605525 
L 1088.122316 171.05036 
L 1090.956242 173.678592 
L 1093.790168 178.646996 
L 1096.624094 181.21955 
L 1099.45802 182.011818 
L 1102.291945 183.254919 
L 1105.125871 196.868944 
L 1107.959797 198.482295 
L 1113.627649 207.636604 
L 1116.461575 208.927087 
L 1119.295501 208.927087 
L 1122.129426 211.752933 
L 1124.963352 213.310606 
L 1124.963352 213.310606 
" clip-path="url(#p2a399f315c)" style="fill: none; stroke: #947383; stroke-width: 2; stroke-linecap: square"/>
   </g>
   <g id="line2d_18">
    <path d="M 116.085749 218.755395 
L 118.919675 218.755395 
L 121.753601 204.156297 
L 124.587527 203.106001 
L 130.255379 205.257847 
L 133.089305 205.257847 
L 135.92323 203.106001 
L 138.757156 204.156297 
L 141.591082 218.755395 
L 144.425008 218.755395 
L 147.258934 216.790913 
L 150.09286 214.983764 
L 152.926785 214.983764 
L 155.760711 220.907242 
L 158.594637 218.755395 
L 161.428563 214.983764 
L 164.262489 216.790913 
L 167.096415 214.983764 
L 169.930341 213.310606 
L 172.764266 208.927087 
L 175.598192 200.219868 
L 178.432118 196.868944 
L 181.266044 191.98721 
L 184.09997 190.766518 
L 186.933896 187.975648 
L 189.767822 187.975648 
L 192.601747 183.684976 
L 195.435673 183.254919 
L 198.269599 181.21955 
L 201.103525 180.833604 
L 203.937451 176.973838 
L 206.771377 174.530667 
L 209.605303 167.819529 
L 212.439228 164.617386 
L 215.273154 162.652904 
L 218.10708 160.845755 
L 220.941006 156.67686 
L 223.774932 153.612911 
L 226.608858 151.956131 
L 229.442783 152.170135 
L 232.276709 149.155356 
L 235.110635 145.117557 
L 237.944561 142.171717 
L 240.778487 141.027465 
L 243.612413 139.260742 
L 246.446339 138.72102 
L 252.11419 135.780435 
L 254.948116 133.981291 
L 257.782042 132.720184 
L 260.615968 131.099002 
L 263.449894 130.555951 
L 266.28382 129.11691 
L 269.117745 128.694892 
L 271.951671 127.223537 
L 274.785597 126.695595 
L 277.619523 124.891123 
L 280.453449 123.733059 
L 283.287375 122.718848 
L 286.1213 122.486689 
L 288.955226 122.748036 
L 291.789152 122.199807 
L 294.623078 120.952124 
L 297.457004 119.949696 
L 300.29093 119.975514 
L 303.124856 119.744213 
L 305.958781 119.263558 
L 308.792707 118.47647 
L 311.626633 117.39104 
L 314.460559 117.576101 
L 317.294485 117.139033 
L 322.962337 115.155574 
L 325.796262 114.639852 
L 328.630188 114.315867 
L 331.464114 113.740239 
L 334.29804 112.612573 
L 337.131966 111.93309 
L 339.965892 110.821205 
L 342.799817 110.109249 
L 345.633743 110.209593 
L 348.467669 110.025969 
L 351.301595 111.842817 
L 354.135521 108.749344 
L 356.969447 106.394168 
L 362.637298 103.489358 
L 368.30515 101.376014 
L 371.139076 97.178603 
L 376.806928 94.770691 
L 382.474779 91.383627 
L 385.308705 90.178651 
L 388.142631 88.773804 
L 390.976557 86.628444 
L 393.810483 85.647421 
L 399.478334 83.027134 
L 402.31226 81.784751 
L 405.146186 80.861577 
L 407.980112 80.670513 
L 413.647964 76.54588 
L 419.315815 73.027331 
L 422.149741 71.740795 
L 424.983667 70.967257 
L 427.817593 69.902229 
L 433.485445 65.861001 
L 441.987222 61.990491 
L 444.821148 61.225283 
L 447.655074 61.640692 
L 450.489 61.734487 
L 456.156852 56.083777 
L 458.990777 53.944269 
L 461.824703 51.948145 
L 464.658629 50.215133 
L 467.492555 48.3099 
L 470.326481 45.269745 
L 475.994332 43.446331 
L 478.828258 42.17284 
L 481.662184 40.776947 
L 487.330036 39.016998 
L 490.163962 37.220481 
L 495.831813 33.136019 
L 498.665739 31.477092 
L 501.499665 29.991201 
L 504.333591 28.957797 
L 507.167517 28.324386 
L 510.001443 26.758482 
L 515.669294 24.715727 
L 518.50322 23.385509 
L 521.337146 22.354761 
L 527.004998 21.078657 
L 529.838924 20.331716 
L 532.672849 19.258376 
L 535.506775 18.64408 
L 541.174627 17.834957 
L 544.008553 17.76 
L 546.842479 18.007347 
L 549.676405 18.04238 
L 555.344256 18.805231 
L 558.178182 19.335491 
L 561.012108 20.224642 
L 563.846034 20.817221 
L 569.513886 21.161285 
L 572.347811 21.317645 
L 575.181737 21.291836 
L 578.015663 21.489583 
L 580.849589 21.126577 
L 583.683515 21.188245 
L 586.517441 21.369351 
L 589.351366 21.704369 
L 595.019218 21.308821 
L 597.853144 20.675077 
L 603.520996 20.911413 
L 606.354922 20.91912 
L 609.188847 20.611307 
L 612.022773 20.022187 
L 614.856699 19.89323 
L 617.690625 19.917795 
L 623.358477 19.626889 
L 626.192403 19.343576 
L 629.026328 21.846472 
L 631.860254 21.237049 
L 637.528106 20.874202 
L 640.362032 20.398152 
L 646.029884 20.076575 
L 648.863809 17.812555 
L 651.697735 19.487802 
L 657.365587 21.415266 
L 660.199513 21.938346 
L 665.867364 22.458013 
L 668.70129 22.870905 
L 671.535216 22.924192 
L 680.036994 24.688765 
L 685.704845 25.445941 
L 688.538771 25.927492 
L 691.372697 26.176228 
L 694.206623 25.399677 
L 702.708401 25.274303 
L 705.542326 24.969066 
L 708.376252 24.831536 
L 711.210178 24.503186 
L 714.044104 24.637967 
L 716.87803 24.372198 
L 719.711956 24.350129 
L 722.545881 24.182139 
L 725.379807 24.178058 
L 728.213733 24.686488 
L 731.047659 25.452614 
L 733.881585 26.06543 
L 739.549437 26.451932 
L 745.217288 27.295581 
L 748.051214 26.920034 
L 750.88514 26.826385 
L 753.719066 26.85519 
L 756.552992 27.04691 
L 759.386918 26.987584 
L 762.220843 26.633211 
L 770.722621 26.310397 
L 773.556547 25.979271 
L 776.390473 25.876232 
L 779.224398 26.120356 
L 784.89225 26.118739 
L 787.726176 26.477799 
L 790.560102 25.933507 
L 793.394028 25.261453 
L 796.227954 24.758705 
L 799.061879 24.467454 
L 801.895805 24.290016 
L 804.729731 23.93633 
L 810.397583 23.598224 
L 813.231509 23.432127 
L 816.065435 23.900019 
L 821.733286 23.27865 
L 824.567212 23.562812 
L 830.235064 23.586293 
L 833.06899 24.060008 
L 835.902916 23.949549 
L 841.570767 25.261064 
L 844.404693 25.08464 
L 847.238619 25.462823 
L 852.906471 26.785952 
L 855.740396 30.024344 
L 858.574322 30.502374 
L 861.408248 29.765774 
L 864.242174 29.348606 
L 867.0761 27.652367 
L 869.910026 26.795116 
L 872.743952 25.571091 
L 875.577877 22.605647 
L 878.411803 21.886328 
L 881.245729 21.797669 
L 884.079655 22.24108 
L 886.913581 22.850255 
L 898.249284 24.402906 
L 901.08321 24.980213 
L 903.917136 25.273524 
L 906.751062 26.456857 
L 909.584988 27.085282 
L 912.418913 28.418205 
L 915.252839 29.620351 
L 918.086765 30.576634 
L 920.920691 31.688778 
L 923.754617 32.599542 
L 926.588543 34.856208 
L 929.422469 37.603201 
L 932.256394 40.148063 
L 935.09032 43.135762 
L 937.924246 48.055272 
L 940.758172 51.320975 
L 943.592098 52.534535 
L 946.426024 55.529594 
L 952.093875 63.565145 
L 954.927801 66.261827 
L 957.761727 67.24488 
L 960.595653 67.390314 
L 963.429579 69.47058 
L 966.263505 73.636062 
L 969.09743 76.914917 
L 971.931356 80.706782 
L 974.765282 84.804969 
L 977.599208 85.305546 
L 980.433134 85.937278 
L 983.26706 88.159592 
L 986.100986 91.92147 
L 988.934911 96.565859 
L 991.768837 99.736883 
L 994.602763 102.218936 
L 997.436689 104.32612 
L 1000.270615 105.779781 
L 1003.104541 107.810732 
L 1005.938467 112.40842 
L 1008.772392 115.17645 
L 1011.606318 118.259957 
L 1017.27417 124.794981 
L 1020.108096 126.281954 
L 1022.942022 126.835177 
L 1025.775947 129.11691 
L 1028.609873 133.179088 
L 1031.443799 135.832517 
L 1034.277725 137.906286 
L 1037.111651 140.316819 
L 1039.945577 142.03405 
L 1048.447354 149.823655 
L 1051.28128 152.062879 
L 1054.115206 157.208115 
L 1056.949132 160.069826 
L 1059.783058 161.004193 
L 1062.616984 162.313389 
L 1065.450909 165.962815 
L 1071.118761 174.821991 
L 1073.952687 176.973838 
L 1076.786613 178.646996 
L 1079.620539 182.011818 
L 1082.454465 182.418627 
L 1085.28839 185.026596 
L 1088.122316 189.608453 
L 1090.956242 192.623232 
L 1093.790168 194.646433 
L 1096.624094 196.868944 
L 1099.45802 198.482295 
L 1102.291945 202.1024 
L 1105.125871 203.106001 
L 1107.959797 206.415912 
L 1107.959797 206.415912 
" clip-path="url(#p2a399f315c)" style="fill: none; stroke: #96c6ad; stroke-width: 2; stroke-linecap: square"/>
   </g>
   <g id="line2d_19">
    <path d="M 118.919675 225.945221 
L 121.753601 228.96 
L 152.926785 228.96 
L 155.760711 225.945221 
L 172.764266 225.945221 
L 175.598192 228.96 
L 201.103525 228.96 
L 203.937451 225.945221 
L 206.771377 204.156297 
L 209.605303 204.156297 
L 215.273154 202.1024 
L 223.774932 202.1024 
L 226.608858 220.907242 
L 232.276709 220.907242 
L 235.110635 223.285998 
L 237.944561 223.285998 
L 240.778487 220.907242 
L 243.612413 223.285998 
L 246.446339 220.907242 
L 249.280264 220.907242 
L 252.11419 218.755395 
L 254.948116 216.790913 
L 257.782042 213.310606 
L 263.449894 213.310606 
L 266.28382 214.983764 
L 269.117745 214.983764 
L 271.951671 218.755395 
L 274.785597 220.907242 
L 277.619523 225.945221 
L 280.453449 228.96 
L 288.955226 228.96 
L 291.789152 207.636604 
L 303.124856 207.636604 
L 305.958781 204.156297 
L 308.792707 196.868944 
L 311.626633 207.636604 
L 325.796262 207.636604 
L 328.630188 220.907242 
L 331.464114 218.755395 
L 342.799817 218.755395 
L 345.633743 225.945221 
L 351.301595 225.945221 
L 354.135521 220.907242 
L 356.969447 220.907242 
L 359.803373 218.755395 
L 362.637298 216.790913 
L 365.471224 216.790913 
L 368.30515 214.983764 
L 371.139076 213.310606 
L 373.973002 213.310606 
L 376.806928 211.752933 
L 379.640854 204.156297 
L 385.308705 204.156297 
L 388.142631 202.1024 
L 390.976557 201.141518 
L 393.810483 201.141518 
L 396.644409 198.482295 
L 402.31226 200.219868 
L 405.146186 199.33437 
L 407.980112 202.1024 
L 410.814038 198.482295 
L 413.647964 196.103539 
L 416.48189 195.363233 
L 419.315815 195.363233 
L 422.149741 187.456607 
L 424.983667 181.612209 
L 427.817593 179.713839 
L 430.651519 170.318059 
L 433.485445 165.570156 
L 436.319371 162.824595 
L 439.153296 161.163751 
L 441.987222 159.766771 
L 444.821148 159.172597 
L 450.489 158.59366 
L 453.322926 156.545976 
L 456.156852 152.935541 
L 458.990777 150.018288 
L 461.824703 148.874889 
L 464.658629 147.435211 
L 467.492555 145.514356 
L 470.326481 143.087614 
L 473.160407 139.751572 
L 475.994332 137.286147 
L 478.828258 135.573303 
L 481.662184 134.271368 
L 484.49611 134.271368 
L 487.330036 134.56522 
L 490.163962 133.981291 
L 495.831813 135.215331 
L 498.665739 134.614569 
L 501.499665 134.368894 
L 504.333591 133.789957 
L 507.167517 132.539202 
L 510.001443 128.656915 
L 512.835369 126.179717 
L 515.669294 125.942949 
L 518.50322 124.987676 
L 521.337146 123.101274 
L 524.171072 122.057721 
L 527.004998 121.832228 
L 529.838924 119.338774 
L 532.672849 116.465704 
L 535.506775 113.274711 
L 538.340701 111.01144 
L 544.008553 108.236731 
L 546.842479 106.895111 
L 549.676405 104.58593 
L 552.51033 102.71856 
L 555.344256 102.019809 
L 558.178182 100.302546 
L 561.012108 99.789646 
L 563.846034 100.033957 
L 566.67996 100.108841 
L 569.513886 100.827369 
L 572.347811 101.799315 
L 575.181737 102.348725 
L 578.015663 104.300302 
L 580.849589 103.764847 
L 583.683515 102.923974 
L 586.517441 102.360561 
L 589.351366 99.010862 
L 592.185292 97.529529 
L 597.853144 96.639252 
L 600.68707 96.556702 
L 603.520996 96.722104 
L 606.354922 96.492705 
L 609.188847 95.232166 
L 612.022773 94.493253 
L 614.856699 92.480082 
L 617.690625 91.115837 
L 623.358477 89.285456 
L 626.192403 88.760836 
L 629.026328 88.670268 
L 631.860254 89.113614 
L 634.69418 87.86487 
L 637.528106 87.123358 
L 640.362032 86.82392 
L 646.029884 87.123358 
L 648.863809 86.069226 
L 651.697735 85.305546 
L 654.531661 86.699331 
L 657.365587 87.86487 
L 660.199513 88.586493 
L 665.867364 89.159751 
L 668.70129 90.123501 
L 671.535216 90.37971 
L 674.369142 90.477417 
L 677.203068 90.289359 
L 680.036994 89.612911 
L 682.87092 89.345246 
L 685.704845 88.767319 
L 691.372697 85.874444 
L 694.206623 84.974252 
L 699.874475 83.716376 
L 702.708401 83.330869 
L 705.542326 83.453516 
L 708.376252 83.315584 
L 711.210178 83.763082 
L 714.044104 83.305401 
L 716.87803 82.971889 
L 719.711956 83.484282 
L 722.545881 83.830718 
L 725.379807 83.992825 
L 728.213733 86.699331 
L 731.047659 88.362479 
L 733.881585 88.203818 
L 736.715511 88.37522 
L 739.549437 88.21647 
L 742.383362 88.592927 
L 745.217288 88.709039 
L 750.88514 86.628444 
L 753.719066 87.933503 
L 756.552992 88.612237 
L 759.386918 89.17295 
L 765.054769 89.592726 
L 767.888695 90.0891 
L 770.722621 90.26856 
L 773.556547 90.688224 
L 779.224398 91.238482 
L 784.89225 90.879648 
L 787.726176 91.691504 
L 790.560102 92.183957 
L 793.394028 90.054751 
L 796.227954 88.884334 
L 799.061879 87.390189 
L 801.895805 86.598974 
L 804.729731 86.17881 
L 807.563657 84.251457 
L 810.397583 83.60261 
L 813.231509 84.615356 
L 818.89936 85.737956 
L 824.567212 86.66386 
L 827.401138 89.904235 
L 830.235064 89.586001 
L 833.06899 89.43189 
L 835.902916 89.687079 
L 838.736841 90.498409 
L 844.404693 90.96525 
L 847.238619 89.958852 
L 850.072545 91.173469 
L 852.906471 91.928928 
L 858.574322 92.648856 
L 861.408248 93.281358 
L 864.242174 93.608398 
L 867.0761 94.186187 
L 869.910026 95.197658 
L 872.743952 95.676839 
L 878.411803 96.963178 
L 884.079655 97.131597 
L 886.913581 97.856881 
L 889.747507 98.366903 
L 892.581433 99.863722 
L 895.415358 100.259356 
L 898.249284 99.863722 
L 901.08321 99.267484 
L 903.917136 99.339863 
L 906.751062 98.396681 
L 909.584988 98.356985 
L 912.418913 98.198894 
L 915.252839 98.787423 
L 918.086765 99.736883 
L 920.920691 100.827369 
L 923.754617 100.927146 
L 926.588543 103.551674 
L 932.256394 106.822863 
L 935.09032 108.037946 
L 937.924246 110.598429 
L 940.758172 112.060082 
L 943.592098 113.33238 
L 946.426024 116.755018 
L 949.25995 119.565937 
L 954.927801 127.116957 
L 957.761727 128.924105 
L 960.595653 129.311375 
L 963.429579 130.309651 
L 966.263505 131.742273 
L 969.09743 134.763268 
L 971.931356 135.419191 
L 974.765282 134.963068 
L 977.599208 134.174261 
L 980.433134 134.813052 
L 983.26706 135.832517 
L 986.100986 141.96553 
L 988.934911 145.918255 
L 991.768837 147.348208 
L 994.602763 151.849884 
L 997.436689 157.342905 
L 1000.270615 157.89026 
L 1003.104541 160.377005 
L 1005.938467 162.145527 
L 1008.772392 167.183507 
L 1011.606318 178.646996 
L 1014.440244 183.254919 
L 1017.27417 182.832901 
L 1020.108096 188.506903 
L 1022.942022 189.050961 
L 1025.775947 195.363233 
L 1028.609873 199.33437 
L 1031.443799 201.141518 
L 1034.277725 203.106001 
L 1037.111651 211.752933 
L 1039.945577 213.310606 
L 1042.779503 211.752933 
L 1045.613428 211.752933 
L 1048.447354 213.310606 
L 1051.28128 213.310606 
L 1054.115206 214.983764 
L 1056.949132 216.790913 
L 1059.783058 211.752933 
L 1065.450909 214.983764 
L 1068.284835 216.790913 
L 1071.118761 218.755395 
L 1073.952687 218.755395 
L 1073.952687 218.755395 
" clip-path="url(#p2a399f315c)" style="fill: none; stroke: #525886; stroke-width: 2; stroke-linecap: square"/>
   </g>
   <g id="line2d_20">
    <path d="M 133.089305 220.907242 
L 135.92323 225.945221 
L 138.757156 225.945221 
L 141.591082 220.907242 
L 144.425008 223.285998 
L 147.258934 220.907242 
L 152.926785 220.907242 
L 155.760711 216.790913 
L 158.594637 216.790913 
L 161.428563 220.907242 
L 164.262489 220.907242 
L 167.096415 218.755395 
L 169.930341 216.790913 
L 172.764266 216.790913 
L 175.598192 213.310606 
L 178.432118 206.415912 
L 181.266044 204.156297 
L 184.09997 201.141518 
L 186.933896 196.868944 
L 189.767822 194.646433 
L 192.601747 190.180061 
L 195.435673 183.254919 
L 198.269599 179.352594 
L 201.103525 176.653587 
L 203.937451 176.0264 
L 206.771377 176.0264 
L 209.605303 173.959059 
L 212.439228 172.857509 
L 215.273154 173.959059 
L 218.10708 171.552099 
L 220.941006 165.765632 
L 223.774932 160.688421 
L 226.608858 155.902705 
L 229.442783 154.668665 
L 232.276709 148.506272 
L 235.110635 144.573499 
L 237.944561 142.03405 
L 240.778487 139.813683 
L 243.612413 138.251864 
L 246.446339 136.8456 
L 249.280264 134.417816 
L 254.948116 131.525807 
L 257.782042 129.233388 
L 260.615968 127.654964 
L 263.449894 124.667425 
L 269.117745 120.952124 
L 271.951671 119.540583 
L 274.785597 116.799858 
L 277.619523 113.467516 
L 280.453449 110.37783 
L 283.287375 107.901343 
L 288.955226 104.313207 
L 291.789152 99.991278 
L 294.623078 97.282364 
L 297.457004 95.223534 
L 300.29093 94.829983 
L 303.124856 94.054685 
L 305.958781 92.772398 
L 308.792707 91.847032 
L 311.626633 89.518867 
L 314.460559 87.027105 
L 317.294485 84.31525 
L 320.128411 81.43998 
L 325.796262 78.274549 
L 328.630188 76.436711 
L 331.464114 74.275307 
L 334.29804 72.280985 
L 337.131966 70.526526 
L 339.965892 69.212771 
L 342.799817 66.689399 
L 345.633743 64.371448 
L 348.467669 62.440551 
L 351.301595 61.377035 
L 354.135521 58.909217 
L 356.969447 56.796201 
L 359.803373 54.319004 
L 362.637298 52.666501 
L 368.30515 49.970761 
L 371.139076 47.71807 
L 373.973002 47.314381 
L 376.806928 47.792922 
L 379.640854 49.528551 
L 382.474779 51.729602 
L 385.308705 54.658519 
L 388.142631 57.775355 
L 390.976557 62.0222 
L 393.810483 62.30961 
L 396.644409 60.875741 
L 399.478334 59.166392 
L 402.31226 55.294296 
L 405.146186 53.785356 
L 407.980112 52.057577 
L 410.814038 50.124793 
L 413.647964 48.691264 
L 416.48189 48.27751 
L 419.315815 46.978817 
L 422.149741 47.626687 
L 424.983667 45.069491 
L 427.817593 43.864815 
L 430.651519 42.883718 
L 433.485445 41.359432 
L 439.153296 39.549413 
L 441.987222 38.889215 
L 444.821148 39.994289 
L 447.655074 38.916282 
L 450.489 37.977476 
L 453.322926 39.939037 
L 456.156852 40.10445 
L 458.990777 40.905788 
L 464.658629 41.509231 
L 467.492555 43.115151 
L 470.326481 45.479415 
L 473.160407 45.884301 
L 475.994332 45.884301 
L 478.828258 46.889357 
L 481.662184 45.722823 
L 484.49611 45.644915 
L 487.330036 45.749816 
L 492.997888 43.017506 
L 495.831813 42.954348 
L 498.665739 41.104363 
L 501.499665 40.800952 
L 504.333591 39.491581 
L 507.167517 37.495197 
L 510.001443 37.458419 
L 512.835369 37.564233 
L 515.669294 37.415698 
L 518.50322 37.056454 
L 521.337146 37.447731 
L 524.171072 37.648974 
L 527.004998 39.13975 
L 529.838924 39.606658 
L 535.506775 38.726785 
L 538.340701 39.514989 
L 541.174627 39.502551 
L 544.008553 39.351643 
L 546.842479 39.004831 
L 552.51033 39.450676 
L 555.344256 40.769209 
L 558.178182 40.798628 
L 561.012108 41.72935 
L 563.846034 41.701113 
L 566.67996 40.682724 
L 572.347811 39.07219 
L 575.181737 37.256211 
L 578.015663 37.17029 
L 583.683515 36.458624 
L 586.517441 36.679587 
L 589.351366 36.170906 
L 592.185292 36.380138 
L 595.019218 37.105734 
L 597.853144 36.807757 
L 600.68707 34.926576 
L 603.520996 34.148751 
L 606.354922 34.567502 
L 609.188847 34.227365 
L 612.022773 33.083115 
L 614.856699 32.751448 
L 617.690625 32.205388 
L 623.358477 33.759166 
L 626.192403 34.081913 
L 629.026328 33.582337 
L 631.860254 34.839543 
L 634.69418 34.783685 
L 637.528106 34.887787 
L 640.362032 34.711394 
L 643.195958 34.976204 
L 646.029884 34.233735 
L 648.863809 34.668248 
L 651.697735 34.549874 
L 654.531661 34.650541 
L 660.199513 34.37784 
L 663.033439 34.331254 
L 665.867364 34.138943 
L 668.70129 34.289409 
L 671.535216 33.776755 
L 674.369142 34.487111 
L 677.203068 34.564563 
L 680.036994 34.118188 
L 682.87092 34.758179 
L 685.704845 35.015745 
L 688.538771 34.397085 
L 691.372697 35.115503 
L 694.206623 33.485752 
L 697.040549 33.773918 
L 699.874475 35.340065 
L 702.708401 35.098646 
L 705.542326 35.018743 
L 708.376252 35.252638 
L 711.210178 35.109481 
L 714.044104 36.223981 
L 719.711956 34.705479 
L 722.545881 33.796062 
L 725.379807 33.490235 
L 728.213733 34.000936 
L 731.047659 33.057809 
L 733.881585 33.190153 
L 736.715511 34.276058 
L 739.549437 34.493555 
L 742.383362 34.936134 
L 745.217288 35.617323 
L 748.051214 34.936732 
L 750.88514 34.978598 
L 753.719066 34.508795 
L 756.552992 34.191492 
L 759.386918 34.109546 
L 762.220843 33.247744 
L 765.054769 32.630273 
L 767.888695 32.908205 
L 770.722621 33.380652 
L 773.556547 33.058909 
L 779.224398 32.707014 
L 782.058324 32.586077 
L 784.89225 31.63709 
L 787.726176 31.050024 
L 790.560102 31.213599 
L 796.227954 30.818311 
L 799.061879 30.033479 
L 804.729731 31.177147 
L 807.563657 30.085957 
L 810.397583 29.397644 
L 813.231509 28.988539 
L 816.065435 28.265168 
L 818.89936 28.114045 
L 821.733286 27.464899 
L 824.567212 27.538407 
L 827.401138 28.279847 
L 830.235064 27.945945 
L 833.06899 27.788663 
L 838.736841 28.406568 
L 844.404693 27.2322 
L 847.238619 26.234676 
L 852.906471 26.056154 
L 855.740396 25.841058 
L 858.574322 24.657287 
L 861.408248 25.571091 
L 864.242174 25.23772 
L 869.910026 23.403786 
L 875.577877 23.071031 
L 878.411803 23.915783 
L 881.245729 23.612693 
L 884.079655 23.714241 
L 886.913581 24.4513 
L 889.747507 24.260578 
L 892.581433 24.256109 
L 895.415358 24.724468 
L 901.08321 26.035196 
L 903.917136 27.093724 
L 906.751062 29.293624 
L 909.584988 32.483466 
L 912.418913 34.908068 
L 918.086765 38.835889 
L 920.920691 40.314262 
L 923.754617 42.985905 
L 926.588543 46.134099 
L 929.422469 49.961459 
L 932.256394 54.352868 
L 935.09032 58.079743 
L 937.924246 62.167444 
L 940.758172 67.597539 
L 943.592098 71.573657 
L 946.426024 77.130748 
L 949.25995 80.436175 
L 952.093875 82.72743 
L 954.927801 87.147486 
L 957.761727 88.381593 
L 960.595653 89.378531 
L 963.429579 91.33272 
L 966.263505 94.501611 
L 969.09743 96.611702 
L 971.931356 100.882746 
L 974.765282 103.390008 
L 977.599208 104.756425 
L 980.433134 105.807348 
L 983.26706 108.236731 
L 986.100986 111.028814 
L 988.934911 115.534326 
L 991.768837 119.163658 
L 994.602763 123.160688 
L 997.436689 126.870208 
L 1000.270615 129.03959 
L 1003.104541 131.439798 
L 1005.938467 135.676631 
L 1008.772392 137.175201 
L 1011.606318 139.079397 
L 1014.440244 142.944266 
L 1017.27417 145.755827 
L 1020.108096 147.698251 
L 1022.942022 149.06148 
L 1025.775947 151.744136 
L 1028.609873 153.727808 
L 1031.443799 157.752172 
L 1034.277725 159.766771 
L 1037.111651 161.978904 
L 1042.779503 167.183507 
L 1045.613428 170.318059 
L 1048.447354 177.628298 
L 1051.28128 174.821991 
L 1054.115206 175.719221 
L 1056.949132 180.454145 
L 1059.783058 182.011818 
L 1065.450909 183.684976 
L 1068.284835 182.832901 
L 1071.118761 190.180061 
L 1073.952687 191.98721 
L 1076.786613 193.951692 
L 1079.620539 196.103539 
L 1082.454465 196.103539 
L 1085.28839 198.482295 
L 1088.122316 205.257847 
L 1090.956242 206.415912 
L 1093.790168 206.415912 
L 1096.624094 207.636604 
L 1099.45802 205.257847 
L 1102.291945 207.636604 
L 1105.125871 206.415912 
L 1107.959797 206.415912 
L 1107.959797 206.415912 
" clip-path="url(#p2a399f315c)" style="fill: none; stroke: #937252; stroke-width: 2; stroke-linecap: square"/>
   </g>
   <g id="line2d_21">
    <path d="M 110.417898 173.678592 
L 113.251824 170.318059 
L 116.085749 135.164652 
L 118.919675 134.466844 
L 121.753601 134.271368 
L 124.587527 134.963068 
L 127.421453 135.521815 
L 130.255379 135.676631 
L 133.089305 135.215331 
L 135.92323 166.769233 
L 138.757156 164.993683 
L 141.591082 163.8831 
L 144.425008 162.997602 
L 147.258934 160.532176 
L 150.09286 156.67686 
L 152.926785 154.42975 
L 155.760711 152.494994 
L 158.594637 151.63888 
L 161.428563 151.63888 
L 164.262489 148.506272 
L 167.096415 146.412668 
L 169.930341 145.196361 
L 172.764266 142.730935 
L 175.598192 139.504823 
L 178.432118 135.317031 
L 181.266044 131.873157 
L 186.933896 126.522323 
L 189.767822 125.149521 
L 192.601747 121.332955 
L 195.435673 118.164391 
L 198.269599 115.534326 
L 201.103525 113.390196 
L 203.937451 110.735262 
L 206.771377 107.466719 
L 209.605303 106.309397 
L 212.439228 105.862583 
L 215.273154 104.287405 
L 218.10708 103.057892 
L 220.941006 101.296815 
L 223.774932 100.098128 
L 226.608858 100.227018 
L 229.442783 99.021071 
L 232.276709 98.267923 
L 235.110635 98.797532 
L 237.944561 98.817762 
L 240.778487 99.143941 
L 243.612413 97.954072 
L 246.446339 97.760107 
L 249.280264 98.807645 
L 252.11419 98.317358 
L 254.948116 98.110452 
L 257.782042 96.944543 
L 260.615968 94.787616 
L 266.28382 92.116168 
L 269.117745 90.185555 
L 271.951671 90.061617 
L 274.785597 89.646594 
L 277.619523 89.391859 
L 280.453449 90.865413 
L 283.287375 93.305128 
L 286.1213 93.842613 
L 288.955226 95.249441 
L 291.789152 94.719994 
L 294.623078 94.021928 
L 297.457004 95.353364 
L 300.29093 95.085867 
L 303.124856 94.169707 
L 305.958781 94.252227 
L 308.792707 93.907654 
L 314.460559 93.584307 
L 317.294485 92.011122 
L 320.128411 92.297392 
L 322.962337 93.076395 
L 325.796262 94.235699 
L 331.464114 95.765066 
L 334.29804 97.094062 
L 337.131966 99.329509 
L 339.965892 99.516615 
L 342.799817 100.151743 
L 345.633743 100.270146 
L 348.467669 100.71702 
L 351.301595 100.728031 
L 354.135521 99.277809 
L 356.969447 98.496229 
L 359.803373 98.228452 
L 362.637298 98.100646 
L 365.471224 97.510419 
L 368.30515 97.329686 
L 371.139076 98.002824 
L 373.973002 98.919188 
L 376.806928 99.164485 
L 379.640854 100.02328 
L 382.474779 99.464485 
L 385.308705 99.226228 
L 388.142631 99.236535 
L 393.810483 98.081048 
L 396.644409 95.791602 
L 399.478334 94.787616 
L 402.31226 94.021928 
L 405.146186 93.907654 
L 407.980112 92.818901 
L 410.814038 91.094263 
L 413.647964 89.938355 
L 416.48189 89.054434 
L 419.315815 88.663813 
L 422.149741 87.573945 
L 424.983667 86.925284 
L 427.817593 86.499061 
L 430.651519 84.957814 
L 433.485445 84.076951 
L 436.319371 82.324166 
L 439.153296 81.42124 
L 441.987222 80.257557 
L 444.821148 79.904503 
L 447.655074 79.70397 
L 450.489 79.712652 
L 453.322926 80.279807 
L 456.156852 74.288961 
L 461.824703 71.774372 
L 464.658629 71.961482 
L 467.492555 72.503887 
L 470.326481 72.914598 
L 473.160407 72.268492 
L 475.994332 78.906615 
L 478.828258 79.852018 
L 481.662184 81.323108 
L 487.330036 79.024227 
L 490.163962 77.286186 
L 492.997888 76.264621 
L 495.831813 73.906372 
L 498.665739 71.832486 
L 501.499665 71.311774 
L 504.333591 69.063278 
L 507.167517 68.338183 
L 510.001443 66.669898 
L 512.835369 65.743765 
L 515.669294 63.450765 
L 521.337146 59.373557 
L 524.171072 59.37003 
L 527.004998 58.695978 
L 529.838924 57.744156 
L 532.672849 57.26681 
L 535.506775 56.094452 
L 541.174627 55.525132 
L 544.008553 54.674269 
L 546.842479 54.333108 
L 549.676405 55.203205 
L 552.51033 52.830901 
L 555.344256 53.73309 
L 558.178182 52.50459 
L 561.012108 50.25985 
L 563.846034 47.140332 
L 566.67996 44.53669 
L 569.513886 40.953318 
L 572.347811 38.550784 
L 575.181737 33.665212 
L 578.015663 31.207013 
L 580.849589 30.530377 
L 583.683515 31.453523 
L 586.517441 33.001797 
L 589.351366 33.99635 
L 592.185292 35.817737 
L 595.019218 40.598872 
L 597.853144 44.936968 
L 600.68707 47.356809 
L 603.520996 48.588206 
L 606.354922 48.188137 
L 609.188847 49.062418 
L 612.022773 50.166985 
L 614.856699 50.797444 
L 617.690625 51.720804 
L 623.358477 52.416291 
L 626.192403 53.382752 
L 631.860254 56.073108 
L 634.69418 57.185023 
L 637.528106 57.08918 
L 640.362032 57.541594 
L 643.195958 58.314123 
L 646.029884 58.215052 
L 648.863809 58.642982 
L 651.697735 59.527524 
L 654.531661 60.947487 
L 657.365587 63.714284 
L 660.199513 67.212411 
L 663.033439 68.461823 
L 665.867364 69.327598 
L 668.70129 72.985393 
L 671.535216 73.405039 
L 674.369142 75.148523 
L 677.203068 76.193922 
L 680.036994 75.088303 
L 682.87092 75.752442 
L 685.704845 76.212506 
L 688.538771 74.312876 
L 691.372697 74.901582 
L 694.206623 73.742465 
L 697.040549 72.327894 
L 699.874475 72.904961 
L 702.708401 72.381176 
L 705.542326 72.168799 
L 708.376252 73.108201 
L 711.210178 73.832634 
L 714.044104 74.17656 
L 716.87803 74.391632 
L 719.711956 75.290855 
L 722.545881 75.865666 
L 725.379807 76.079043 
L 728.213733 77.290086 
L 731.047659 76.257169 
L 733.881585 76.972527 
L 739.549437 77.846798 
L 745.217288 77.80287 
L 748.051214 78.602833 
L 750.88514 80.08034 
L 753.719066 81.003645 
L 756.552992 80.616219 
L 762.220843 80.431693 
L 765.054769 79.804014 
L 767.888695 80.364558 
L 770.722621 80.589121 
L 773.556547 80.953132 
L 776.390473 82.25603 
L 782.058324 83.731934 
L 784.89225 85.067626 
L 787.726176 84.230233 
L 790.560102 82.747287 
L 793.394028 81.128115 
L 796.227954 78.806289 
L 801.895805 77.446629 
L 804.729731 77.053428 
L 813.231509 78.549161 
L 816.065435 80.093583 
L 818.89936 78.93596 
L 821.733286 79.235785 
L 824.567212 78.881491 
L 827.401138 77.21222 
L 830.235064 77.78293 
L 833.06899 77.73117 
L 835.902916 78.286774 
L 838.736841 78.49973 
L 850.072545 78.839682 
L 852.906471 79.240036 
L 855.740396 78.376626 
L 858.574322 79.561198 
L 861.408248 79.036865 
L 864.242174 78.902425 
L 867.0761 79.852018 
L 869.910026 77.987143 
L 872.743952 77.616132 
L 875.577877 74.765162 
L 878.411803 73.378787 
L 886.913581 74.122263 
L 889.747507 74.9086 
L 892.581433 74.169766 
L 895.415358 77.707321 
L 898.249284 78.479166 
L 901.08321 79.020016 
L 906.751062 79.743065 
L 909.584988 78.856396 
L 912.418913 79.320966 
L 915.252839 79.13399 
L 918.086765 80.08034 
L 920.920691 80.306536 
L 923.754617 80.693174 
L 926.588543 78.611101 
L 929.422469 80.186503 
L 932.256394 80.857009 
L 935.09032 80.557547 
L 937.924246 81.295149 
L 940.758172 81.017441 
L 943.592098 80.976078 
L 946.426024 83.659421 
L 949.25995 83.690469 
L 952.093875 85.377972 
L 954.927801 84.870347 
L 957.761727 83.58714 
L 960.595653 84.604569 
L 963.429579 84.892182 
L 966.263505 85.954445 
L 969.09743 87.34144 
L 971.931356 87.98355 
L 974.765282 91.92147 
L 977.599208 95.008797 
L 980.433134 95.440334 
L 983.26706 96.547549 
L 986.100986 98.337163 
L 988.934911 99.895544 
L 991.768837 102.372403 
L 994.602763 104.442665 
L 997.436689 107.720483 
L 1000.270615 109.43525 
L 1003.104541 111.609782 
L 1005.938467 113.428823 
L 1008.772392 118.549104 
L 1011.606318 121.944693 
L 1014.440244 128.885741 
L 1017.27417 130.146931 
L 1020.108096 134.029379 
L 1022.942022 134.912952 
L 1025.775947 138.136083 
L 1028.609873 139.566258 
L 1031.443799 142.589827 
L 1034.277725 145.117557 
L 1037.111651 153.959372 
L 1039.945577 159.172597 
L 1042.779503 161.004193 
L 1045.613428 166.362423 
L 1048.447354 169.147989 
L 1051.28128 169.147989 
L 1054.115206 169.377202 
L 1056.949132 170.079144 
L 1059.783058 169.84273 
L 1065.450909 168.92108 
L 1068.284835 168.035582 
L 1071.118761 170.318059 
L 1073.952687 171.552099 
L 1076.786613 175.416165 
L 1079.620539 178.646996 
L 1082.454465 182.418627 
L 1085.28839 185.492124 
L 1088.122316 196.868944 
L 1090.956242 204.156297 
L 1093.790168 208.927087 
L 1093.790168 208.927087 
" clip-path="url(#p2a399f315c)" style="fill: none; stroke: #d18cad; stroke-width: 2; stroke-linecap: square"/>
   </g>
   <g id="line2d_22">
    <path d="M 150.09286 223.285998 
L 152.926785 225.945221 
L 158.594637 225.945221 
L 161.428563 228.96 
L 172.764266 228.96 
L 175.598192 225.945221 
L 184.09997 225.945221 
L 186.933896 223.285998 
L 189.767822 216.790913 
L 195.435673 216.790913 
L 198.269599 214.983764 
L 201.103525 214.983764 
L 203.937451 211.752933 
L 206.771377 213.310606 
L 209.605303 218.755395 
L 212.439228 214.983764 
L 215.273154 208.927087 
L 218.10708 208.927087 
L 220.941006 204.156297 
L 223.774932 201.141518 
L 226.608858 196.103539 
L 229.442783 189.608453 
L 232.276709 190.766518 
L 235.110635 184.570474 
L 237.944561 181.612209 
L 240.778487 182.418627 
L 243.612413 182.832901 
L 246.446339 182.832901 
L 249.280264 180.454145 
L 252.11419 176.653587 
L 254.948116 178.302298 
L 257.782042 179.713839 
L 260.615968 179.713839 
L 266.28382 181.21955 
L 269.117745 186.94923 
L 271.951671 189.050961 
L 274.785597 190.766518 
L 277.619523 190.180061 
L 280.453449 185.967453 
L 283.287375 183.254919 
L 286.1213 182.832901 
L 288.955226 182.011818 
L 291.789152 182.011818 
L 294.623078 185.026596 
L 297.457004 186.94923 
L 300.29093 192.623232 
L 303.124856 196.868944 
L 305.958781 199.33437 
L 308.792707 203.106001 
L 311.626633 203.106001 
L 314.460559 204.156297 
L 317.294485 202.1024 
L 320.128411 198.482295 
L 322.962337 199.33437 
L 325.796262 193.951692 
L 328.630188 190.766518 
L 331.464114 194.646433 
L 337.131966 193.277693 
L 339.965892 196.103539 
L 342.799817 194.646433 
L 345.633743 202.1024 
L 348.467669 208.927087 
L 351.301595 205.257847 
L 354.135521 204.156297 
L 356.969447 205.257847 
L 359.803373 202.1024 
L 362.637298 197.661212 
L 365.471224 193.951692 
L 368.30515 190.766518 
L 371.139076 183.684976 
L 373.973002 181.21955 
L 376.806928 176.973838 
L 379.640854 177.298697 
L 382.474779 173.959059 
L 388.142631 171.807212 
L 390.976557 173.678592 
L 393.810483 173.401567 
L 396.644409 161.813502 
L 399.478334 157.478505 
L 402.31226 152.170135 
L 405.146186 149.155356 
L 407.980112 148.782169 
L 410.814038 147.786616 
L 413.647964 147.261539 
L 416.48189 152.170135 
L 419.315815 152.824596 
L 422.149741 154.42975 
L 424.983667 154.548891 
L 427.817593 152.062879 
L 430.651519 151.017447 
L 433.485445 149.630686 
L 436.319371 147.786616 
L 439.153296 145.275441 
L 441.987222 146.748396 
L 444.821148 145.67505 
L 447.655074 145.196361 
L 450.489 141.093193 
L 453.322926 138.959305 
L 456.156852 137.849201 
L 458.990777 137.622291 
L 464.658629 131.873157 
L 467.492555 128.694892 
L 470.326481 128.467983 
L 475.994332 125.808759 
L 478.828258 123.39992 
L 481.662184 122.228331 
L 484.49611 122.60247 
L 487.330036 123.160688 
L 490.163962 122.806527 
L 492.997888 121.196206 
L 495.831813 119.949696 
L 498.665739 120.577611 
L 501.499665 121.332955 
L 504.333591 120.001361 
L 507.167517 118.188245 
L 510.001443 117.161827 
L 512.835369 116.399462 
L 515.669294 116.071139 
L 518.50322 114.57875 
L 521.337146 112.371499 
L 524.171072 111.734964 
L 527.004998 111.41446 
L 529.838924 111.379128 
L 535.506775 109.43525 
L 538.340701 108.938673 
L 541.174627 109.976147 
L 546.842479 109.322161 
L 549.676405 108.499351 
L 555.344256 109.467665 
L 558.178182 109.402881 
L 561.012108 108.546014 
L 563.846034 108.938673 
L 566.67996 109.033936 
L 569.513886 107.825809 
L 572.347811 108.282855 
L 575.181737 107.318767 
L 578.015663 106.636095 
L 583.683515 103.639208 
L 586.517441 102.467366 
L 589.351366 102.923974 
L 592.185292 102.289637 
L 595.019218 102.766724 
L 597.853144 102.670497 
L 600.68707 102.694516 
L 603.520996 103.082326 
L 606.354922 103.916543 
L 609.188847 103.439628 
L 612.022773 102.694516 
L 614.856699 101.206641 
L 617.690625 101.274238 
L 620.524551 101.649681 
L 623.358477 101.353357 
L 626.192403 97.808442 
L 631.860254 96.067644 
L 634.69418 96.184416 
L 637.528106 94.821503 
L 640.362032 93.956558 
L 643.195958 93.899513 
L 646.029884 96.130446 
L 648.863809 97.009835 
L 654.531661 99.663221 
L 657.365587 102.658498 
L 663.033439 108.144767 
L 665.867364 111.574143 
L 668.70129 113.877846 
L 671.535216 115.704721 
L 674.369142 115.833367 
L 677.203068 114.824158 
L 680.036994 116.027721 
L 682.87092 116.53214 
L 685.704845 116.399462 
L 688.538771 115.449608 
L 691.372697 114.056011 
L 694.206623 110.890196 
L 697.040549 110.37783 
L 699.874475 108.56159 
L 702.708401 107.511294 
L 705.542326 105.208518 
L 708.376252 105.208518 
L 714.044104 107.333519 
L 716.87803 107.946786 
L 722.545881 107.99232 
L 725.379807 108.499351 
L 728.213733 107.259857 
L 731.047659 105.007948 
L 733.881585 105.370266 
L 736.715511 105.04792 
L 739.549437 105.410885 
L 742.383362 105.181672 
L 745.217288 106.309397 
L 750.88514 107.901343 
L 753.719066 108.26747 
L 756.552992 107.407422 
L 759.386918 108.007518 
L 762.220843 108.468296 
L 765.054769 108.608383 
L 767.888695 109.306052 
L 770.722621 110.530322 
L 773.556547 112.426903 
L 776.390473 115.00998 
L 782.058324 116.755018 
L 784.89225 117.437163 
L 787.726176 117.437163 
L 790.560102 117.692539 
L 793.394028 116.643304 
L 799.061879 115.897966 
L 801.895805 115.768953 
L 804.729731 115.072262 
L 807.563657 113.917317 
L 810.397583 113.390196 
L 813.231509 111.591956 
L 816.065435 111.185783 
L 818.89936 109.712275 
L 821.733286 109.002137 
L 824.567212 109.193607 
L 827.401138 110.159365 
L 830.235064 110.462421 
L 833.06899 112.041897 
L 835.902916 112.631224 
L 838.736841 113.956857 
L 841.570767 114.762555 
L 844.404693 114.968554 
L 847.238619 114.396429 
L 850.072545 112.799782 
L 852.906471 112.631224 
L 855.740396 111.93309 
L 858.574322 111.915007 
L 861.408248 112.334638 
L 864.242174 112.334638 
L 867.0761 111.878883 
L 869.910026 113.140721 
L 872.743952 112.279459 
L 875.577877 111.842817 
L 878.411803 110.310384 
L 881.245729 108.17538 
L 884.079655 106.909588 
L 886.913581 105.061259 
L 889.747507 104.429685 
L 892.581433 104.66446 
L 895.415358 103.340496 
L 898.249284 103.192609 
L 901.08321 103.45205 
L 903.917136 103.082326 
L 906.751062 105.492343 
L 909.584988 105.779781 
L 912.418913 106.380017 
L 915.252839 108.144767 
L 918.086765 109.581487 
L 920.920691 110.581383 
L 923.754617 112.279459 
L 926.588543 112.724712 
L 929.422469 111.699127 
L 932.256394 111.150806 
L 935.09032 111.273462 
L 940.758172 112.169504 
L 946.426024 114.803605 
L 949.25995 119.263558 
L 954.927801 127.764121 
L 957.761727 130.391452 
L 960.595653 133.933306 
L 963.429579 135.780435 
L 966.263505 138.543942 
L 969.09743 141.829111 
L 971.931356 144.042244 
L 974.765282 146.748396 
L 977.599208 150.116238 
L 980.433134 150.214614 
L 983.26706 151.744136 
L 986.100986 153.959372 
L 988.934911 153.612911 
L 991.768837 154.311233 
L 994.602763 155.400966 
L 997.436689 156.67686 
L 1000.270615 158.168996 
L 1003.104541 160.688421 
L 1005.938467 159.766771 
L 1008.772392 162.824595 
L 1011.606318 165.570156 
L 1014.440244 165.962815 
L 1017.27417 168.253722 
L 1020.108096 169.608766 
L 1022.942022 169.608766 
L 1025.775947 174.821991 
L 1028.609873 176.337816 
L 1031.443799 175.416165 
L 1034.277725 178.646996 
L 1037.111651 178.646996 
L 1039.945577 180.080958 
L 1042.779503 182.011818 
L 1048.447354 187.975648 
L 1051.28128 188.506903 
L 1054.115206 190.180061 
L 1056.949132 194.646433 
L 1059.783058 195.363233 
L 1062.616984 196.868944 
L 1068.284835 195.363233 
L 1071.118761 203.106001 
L 1073.952687 203.106001 
L 1076.786613 204.156297 
L 1079.620539 208.927087 
L 1082.454465 208.927087 
L 1085.28839 213.310606 
L 1088.122316 214.983764 
L 1088.122316 214.983764 
" clip-path="url(#p2a399f315c)" style="fill: none; stroke: #a4a86f; stroke-width: 2; stroke-linecap: square"/>
   </g>
   <g id="line2d_23">
    <path d="M 110.417898 180.454145 
L 113.251824 196.103539 
L 116.085749 200.219868 
L 121.753601 200.219868 
L 124.587527 223.285998 
L 130.255379 223.285998 
L 133.089305 220.907242 
L 135.92323 223.285998 
L 138.757156 220.907242 
L 141.591082 213.310606 
L 144.425008 214.983764 
L 152.926785 214.983764 
L 155.760711 213.310606 
L 158.594637 214.983764 
L 161.428563 223.285998 
L 164.262489 220.907242 
L 169.930341 220.907242 
L 172.764266 223.285998 
L 175.598192 225.945221 
L 178.432118 225.945221 
L 181.266044 218.755395 
L 189.767822 218.755395 
L 192.601747 216.790913 
L 195.435673 214.983764 
L 198.269599 210.295827 
L 201.103525 203.106001 
L 203.937451 203.106001 
L 206.771377 201.141518 
L 212.439228 201.141518 
L 215.273154 202.1024 
L 218.10708 205.257847 
L 220.941006 216.790913 
L 223.774932 211.752933 
L 226.608858 213.310606 
L 229.442783 210.295827 
L 232.276709 208.927087 
L 235.110635 200.219868 
L 240.778487 198.482295 
L 243.612413 201.141518 
L 249.280264 201.141518 
L 252.11419 199.33437 
L 254.948116 206.415912 
L 257.782042 204.156297 
L 260.615968 196.103539 
L 263.449894 195.363233 
L 266.28382 193.951692 
L 269.117745 193.951692 
L 271.951671 192.623232 
L 274.785597 188.506903 
L 277.619523 185.026596 
L 280.453449 186.94923 
L 283.287375 186.453006 
L 288.955226 187.456607 
L 291.789152 184.570474 
L 294.623078 186.453006 
L 297.457004 186.453006 
L 300.29093 187.456607 
L 303.124856 187.456607 
L 305.958781 187.975648 
L 308.792707 187.456607 
L 311.626633 184.123384 
L 314.460559 181.21955 
L 317.294485 181.21955 
L 322.962337 171.05036 
L 325.796262 170.079144 
L 328.630188 168.47399 
L 331.464114 165.765632 
L 334.29804 162.652904 
L 337.131966 160.222893 
L 339.965892 150.313421 
L 342.799817 148.874889 
L 345.633743 147.875328 
L 348.467669 147.089192 
L 351.301595 140.766453 
L 354.135521 137.622291 
L 356.969447 136.628509 
L 359.803373 136.954933 
L 362.637298 135.937041 
L 365.471224 134.125864 
L 368.30515 132.674802 
L 371.139076 135.368053 
L 373.973002 133.789957 
L 376.806928 132.994405 
L 379.640854 134.07757 
L 382.474779 134.07757 
L 385.308705 134.763268 
L 388.142631 135.832517 
L 390.976557 131.568934 
L 393.810483 130.555951 
L 396.644409 128.962535 
L 399.478334 123.279987 
L 402.31226 120.683982 
L 405.146186 120.340092 
L 407.980112 119.414241 
L 413.647964 118.646316 
L 416.48189 116.04942 
L 419.315815 116.509973 
L 422.149741 117.230347 
L 424.983667 116.201896 
L 427.817593 114.497536 
L 430.651519 113.68152 
L 433.485445 113.409501 
L 436.319371 112.743456 
L 439.153296 112.64989 
L 441.987222 111.098443 
L 444.821148 110.821205 
L 447.655074 110.838433 
L 450.489 109.663141 
L 453.322926 109.161582 
L 456.156852 108.938673 
L 458.990777 109.581487 
L 464.658629 108.114195 
L 467.492555 108.282855 
L 473.160407 107.916481 
L 475.994332 108.313656 
L 478.828258 107.871099 
L 481.662184 108.546014 
L 484.49611 109.82734 
L 487.330036 110.959399 
L 492.997888 110.142647 
L 495.831813 111.806809 
L 498.665739 112.556711 
L 501.499665 112.931758 
L 504.333591 112.668573 
L 507.167517 112.705983 
L 510.001443 110.56435 
L 512.835369 109.370558 
L 515.669294 106.693398 
L 518.50322 104.677575 
L 521.337146 103.752252 
L 524.171072 103.589147 
L 527.004998 103.891189 
L 529.838924 105.848762 
L 532.672849 105.519561 
L 535.506775 106.507693 
L 538.340701 107.186435 
L 541.174627 107.289293 
L 544.008553 107.098642 
L 546.842479 106.736471 
L 549.676405 106.851735 
L 552.51033 105.034588 
L 555.344256 104.520697 
L 561.012108 104.769593 
L 566.67996 104.809145 
L 569.513886 104.954763 
L 572.347811 107.675493 
L 575.181737 108.29825 
L 578.015663 108.686586 
L 580.849589 109.225677 
L 583.683515 109.565191 
L 589.351366 109.745091 
L 595.019218 108.702259 
L 597.853144 108.780789 
L 600.68707 109.338282 
L 603.520996 109.451451 
L 606.354922 109.712275 
L 609.188847 109.843826 
L 612.022773 109.306052 
L 614.856699 110.394723 
L 617.690625 110.445477 
L 620.524551 109.745091 
L 623.358477 109.354414 
L 629.026328 109.177589 
L 631.860254 111.273462 
L 634.69418 110.666742 
L 637.528106 111.556345 
L 640.362032 112.969608 
L 643.195958 113.799111 
L 646.029884 113.917317 
L 648.863809 115.704721 
L 651.697735 116.621027 
L 654.531661 119.113873 
L 657.365587 120.131041 
L 660.199513 119.718659 
L 663.033439 120.027237 
L 665.867364 119.464693 
L 668.70129 119.923908 
L 671.535216 120.764091 
L 677.203068 121.860292 
L 680.036994 123.369877 
L 682.87092 123.672121 
L 685.704845 124.477433 
L 688.538771 126.453384 
L 691.372697 127.618695 
L 694.206623 129.586472 
L 697.040549 132.137222 
L 699.874475 133.789957 
L 702.708401 134.912952 
L 705.542326 134.963068 
L 708.376252 134.368894 
L 711.210178 135.676631 
L 714.044104 134.763268 
L 716.87803 133.505962 
L 719.711956 132.629511 
L 722.545881 130.930514 
L 725.379807 130.846739 
L 728.213733 131.396916 
L 731.047659 131.354115 
L 736.715511 131.655438 
L 739.549437 132.674802 
L 742.383362 133.885422 
L 745.217288 134.56522 
L 748.051214 134.813052 
L 750.88514 135.317031 
L 753.719066 136.20049 
L 762.220843 135.419191 
L 765.054769 135.728474 
L 767.888695 135.676631 
L 770.722621 135.937041 
L 773.556547 135.676631 
L 776.390473 137.175201 
L 779.224398 138.839848 
L 782.058324 139.813683 
L 784.89225 139.504823 
L 787.726176 143.74419 
L 790.560102 145.514356 
L 793.394028 145.039027 
L 796.227954 141.027465 
L 799.061879 141.093193 
L 801.895805 141.96553 
L 804.729731 141.897217 
L 807.563657 138.543942 
L 810.397583 137.963516 
L 813.231509 139.321515 
L 816.065435 143.892725 
L 818.89936 140.18998 
L 821.733286 138.136083 
L 824.567212 138.368242 
L 827.401138 135.780435 
L 830.235064 136.467049 
L 833.06899 135.470444 
L 835.902916 132.720184 
L 838.736841 131.439798 
L 841.570767 131.829445 
L 844.404693 131.525807 
L 847.238619 133.981291 
L 850.072545 132.584312 
L 852.906471 133.933306 
L 855.740396 134.813052 
L 858.574322 138.485223 
L 861.408248 139.382453 
L 864.242174 139.813683 
L 867.0761 137.39764 
L 869.910026 137.963516 
L 872.743952 136.413485 
L 875.577877 138.602814 
L 878.411803 138.72102 
L 881.245729 137.735461 
L 884.079655 137.792259 
L 886.913581 135.063635 
L 889.747507 136.520741 
L 892.581433 139.443555 
L 895.415358 139.079397 
L 901.08321 140.701669 
L 903.917136 140.508424 
L 906.751062 140.444375 
L 909.584988 139.751572 
L 912.418913 140.126827 
L 915.252839 143.087614 
L 918.086765 141.358032 
L 920.920691 143.231879 
L 923.754617 144.573499 
L 926.588543 160.532176 
L 929.422469 158.029198 
L 932.256394 157.342905 
L 935.09032 153.271685 
L 937.924246 154.076051 
L 940.758172 154.42975 
L 943.592098 153.612911 
L 946.426024 141.358032 
L 949.25995 144.19276 
L 952.093875 145.434437 
L 954.927801 148.415051 
L 957.761727 153.271685 
L 960.595653 153.384855 
L 963.429579 154.42975 
L 966.263505 158.59366 
L 969.09743 159.467729 
L 971.931356 159.172597 
L 974.765282 158.59366 
L 977.599208 158.881273 
L 980.433134 158.737008 
L 983.26706 158.737008 
L 986.100986 179.352594 
L 988.934911 179.352594 
L 991.768837 179.713839 
L 994.602763 181.21955 
L 997.436689 178.646996 
L 1000.270615 178.997039 
L 1003.104541 178.302298 
L 1005.938467 193.277693 
L 1008.772392 193.951692 
L 1011.606318 196.103539 
L 1014.440244 196.868944 
L 1017.27417 204.156297 
L 1020.108096 204.156297 
L 1022.942022 207.636604 
L 1025.775947 207.636604 
L 1028.609873 210.295827 
L 1031.443799 211.752933 
L 1034.277725 211.752933 
L 1037.111651 210.295827 
L 1039.945577 211.752933 
L 1042.779503 211.752933 
L 1045.613428 214.983764 
L 1051.28128 214.983764 
L 1054.115206 216.790913 
L 1054.115206 216.790913 
" clip-path="url(#p2a399f315c)" style="fill: none; stroke: #d3d3d3; stroke-width: 2; stroke-linecap: square"/>
   </g>
   <g id="patch_3">
    <path d="M 59.690625 228.96 
L 59.690625 7.2 
" style="fill: none; stroke: #000000; stroke-width: 0.8; stroke-linejoin: miter; stroke-linecap: square"/>
   </g>
   <g id="patch_4">
    <path d="M 59.690625 228.96 
L 1175.690625 228.96 
" style="fill: none; stroke: #000000; stroke-width: 0.8; stroke-linejoin: miter; stroke-linecap: square"/>
   </g>
   <g id="legend_1">
    <g id="line2d_24">
     <path d="M 1081.879375 17.67875 
L 1089.879375 17.67875 
L 1097.879375 17.67875 
" style="fill: none; stroke: #947383; stroke-width: 2; stroke-linecap: square"/>
    </g>
    <g id="text_19">
     <!-- Europe -->
     <g transform="translate(1104.279375 20.47875)scale(0.08 -0.08)">
      <defs>
       <path id="DejaVuSans-45" d="M 628 4666 
L 3578 4666 
L 3578 4134 
L 1259 4134 
L 1259 2753 
L 3481 2753 
L 3481 2222 
L 1259 2222 
L 1259 531 
L 3634 531 
L 3634 0 
L 628 0 
L 628 4666 
z
" transform="scale(0.015625)"/>
       <path id="DejaVuSans-70" d="M 1159 525 
L 1159 -1331 
L 581 -1331 
L 581 3500 
L 1159 3500 
L 1159 2969 
Q 1341 3281 1617 3432 
Q 1894 3584 2278 3584 
Q 2916 3584 3314 3078 
Q 3713 2572 3713 1747 
Q 3713 922 3314 415 
Q 2916 -91 2278 -91 
Q 1894 -91 1617 61 
Q 1341 213 1159 525 
z
M 3116 1747 
Q 3116 2381 2855 2742 
Q 2594 3103 2138 3103 
Q 1681 3103 1420 2742 
Q 1159 2381 1159 1747 
Q 1159 1113 1420 752 
Q 1681 391 2138 391 
Q 2594 391 2855 752 
Q 3116 1113 3116 1747 
z
" transform="scale(0.015625)"/>
      </defs>
      <use xlink:href="#DejaVuSans-45"/>
      <use xlink:href="#DejaVuSans-75" x="63.183594"/>
      <use xlink:href="#DejaVuSans-72" x="126.5625"/>
      <use xlink:href="#DejaVuSans-6f" x="165.425781"/>
      <use xlink:href="#DejaVuSans-70" x="226.607422"/>
      <use xlink:href="#DejaVuSans-65" x="290.083984"/>
     </g>
    </g>
    <g id="line2d_25">
     <path d="M 1081.879375 29.42125 
L 1089.879375 29.42125 
L 1097.879375 29.42125 
" style="fill: none; stroke: #96c6ad; stroke-width: 2; stroke-linecap: square"/>
    </g>
    <g id="text_20">
     <!-- North America -->
     <g transform="translate(1104.279375 32.22125)scale(0.08 -0.08)">
      <defs>
       <path id="DejaVuSans-4e" d="M 628 4666 
L 1478 4666 
L 3547 763 
L 3547 4666 
L 4159 4666 
L 4159 0 
L 3309 0 
L 1241 3903 
L 1241 0 
L 628 0 
L 628 4666 
z
" transform="scale(0.015625)"/>
       <path id="DejaVuSans-68" d="M 3513 2113 
L 3513 0 
L 2938 0 
L 2938 2094 
Q 2938 2591 2744 2837 
Q 2550 3084 2163 3084 
Q 1697 3084 1428 2787 
Q 1159 2491 1159 1978 
L 1159 0 
L 581 0 
L 581 4863 
L 1159 4863 
L 1159 2956 
Q 1366 3272 1645 3428 
Q 1925 3584 2291 3584 
Q 2894 3584 3203 3211 
Q 3513 2838 3513 2113 
z
" transform="scale(0.015625)"/>
       <path id="DejaVuSans-41" d="M 2188 4044 
L 1331 1722 
L 3047 1722 
L 2188 4044 
z
M 1831 4666 
L 2547 4666 
L 4325 0 
L 3669 0 
L 3244 1197 
L 1141 1197 
L 716 0 
L 50 0 
L 1831 4666 
z
" transform="scale(0.015625)"/>
       <path id="DejaVuSans-6d" d="M 3328 2828 
Q 3544 3216 3844 3400 
Q 4144 3584 4550 3584 
Q 5097 3584 5394 3201 
Q 5691 2819 5691 2113 
L 5691 0 
L 5113 0 
L 5113 2094 
Q 5113 2597 4934 2840 
Q 4756 3084 4391 3084 
Q 3944 3084 3684 2787 
Q 3425 2491 3425 1978 
L 3425 0 
L 2847 0 
L 2847 2094 
Q 2847 2600 2669 2842 
Q 2491 3084 2119 3084 
Q 1678 3084 1418 2786 
Q 1159 2488 1159 1978 
L 1159 0 
L 581 0 
L 581 3500 
L 1159 3500 
L 1159 2956 
Q 1356 3278 1631 3431 
Q 1906 3584 2284 3584 
Q 2666 3584 2933 3390 
Q 3200 3197 3328 2828 
z
" transform="scale(0.015625)"/>
       <path id="DejaVuSans-63" d="M 3122 3366 
L 3122 2828 
Q 2878 2963 2633 3030 
Q 2388 3097 2138 3097 
Q 1578 3097 1268 2742 
Q 959 2388 959 1747 
Q 959 1106 1268 751 
Q 1578 397 2138 397 
Q 2388 397 2633 464 
Q 2878 531 3122 666 
L 3122 134 
Q 2881 22 2623 -34 
Q 2366 -91 2075 -91 
Q 1284 -91 818 406 
Q 353 903 353 1747 
Q 353 2603 823 3093 
Q 1294 3584 2113 3584 
Q 2378 3584 2631 3529 
Q 2884 3475 3122 3366 
z
" transform="scale(0.015625)"/>
      </defs>
      <use xlink:href="#DejaVuSans-4e"/>
      <use xlink:href="#DejaVuSans-6f" x="74.804688"/>
      <use xlink:href="#DejaVuSans-72" x="135.986328"/>
      <use xlink:href="#DejaVuSans-74" x="177.099609"/>
      <use xlink:href="#DejaVuSans-68" x="216.308594"/>
      <use xlink:href="#DejaVuSans-20" x="279.6875"/>
      <use xlink:href="#DejaVuSans-41" x="311.474609"/>
      <use xlink:href="#DejaVuSans-6d" x="379.882812"/>
      <use xlink:href="#DejaVuSans-65" x="477.294922"/>
      <use xlink:href="#DejaVuSans-72" x="538.818359"/>
      <use xlink:href="#DejaVuSans-69" x="579.931641"/>
      <use xlink:href="#DejaVuSans-63" x="607.714844"/>
      <use xlink:href="#DejaVuSans-61" x="662.695312"/>
     </g>
    </g>
    <g id="line2d_26">
     <path d="M 1081.879375 41.16375 
L 1089.879375 41.16375 
L 1097.879375 41.16375 
" style="fill: none; stroke: #525886; stroke-width: 2; stroke-linecap: square"/>
    </g>
    <g id="text_21">
     <!-- South America -->
     <g transform="translate(1104.279375 43.96375)scale(0.08 -0.08)">
      <defs>
       <path id="DejaVuSans-53" d="M 3425 4513 
L 3425 3897 
Q 3066 4069 2747 4153 
Q 2428 4238 2131 4238 
Q 1616 4238 1336 4038 
Q 1056 3838 1056 3469 
Q 1056 3159 1242 3001 
Q 1428 2844 1947 2747 
L 2328 2669 
Q 3034 2534 3370 2195 
Q 3706 1856 3706 1288 
Q 3706 609 3251 259 
Q 2797 -91 1919 -91 
Q 1588 -91 1214 -16 
Q 841 59 441 206 
L 441 856 
Q 825 641 1194 531 
Q 1563 422 1919 422 
Q 2459 422 2753 634 
Q 3047 847 3047 1241 
Q 3047 1584 2836 1778 
Q 2625 1972 2144 2069 
L 1759 2144 
Q 1053 2284 737 2584 
Q 422 2884 422 3419 
Q 422 4038 858 4394 
Q 1294 4750 2059 4750 
Q 2388 4750 2728 4690 
Q 3069 4631 3425 4513 
z
" transform="scale(0.015625)"/>
      </defs>
      <use xlink:href="#DejaVuSans-53"/>
      <use xlink:href="#DejaVuSans-6f" x="63.476562"/>
      <use xlink:href="#DejaVuSans-75" x="124.658203"/>
      <use xlink:href="#DejaVuSans-74" x="188.037109"/>
      <use xlink:href="#DejaVuSans-68" x="227.246094"/>
      <use xlink:href="#DejaVuSans-20" x="290.625"/>
      <use xlink:href="#DejaVuSans-41" x="322.412109"/>
      <use xlink:href="#DejaVuSans-6d" x="390.820312"/>
      <use xlink:href="#DejaVuSans-65" x="488.232422"/>
      <use xlink:href="#DejaVuSans-72" x="549.755859"/>
      <use xlink:href="#DejaVuSans-69" x="590.869141"/>
      <use xlink:href="#DejaVuSans-63" x="618.652344"/>
      <use xlink:href="#DejaVuSans-61" x="673.632812"/>
     </g>
    </g>
    <g id="line2d_27">
     <path d="M 1081.879375 52.90625 
L 1089.879375 52.90625 
L 1097.879375 52.90625 
" style="fill: none; stroke: #937252; stroke-width: 2; stroke-linecap: square"/>
    </g>
    <g id="text_22">
     <!-- United Kingdom -->
     <g transform="translate(1104.279375 55.70625)scale(0.08 -0.08)">
      <defs>
       <path id="DejaVuSans-55" d="M 556 4666 
L 1191 4666 
L 1191 1831 
Q 1191 1081 1462 751 
Q 1734 422 2344 422 
Q 2950 422 3222 751 
Q 3494 1081 3494 1831 
L 3494 4666 
L 4128 4666 
L 4128 1753 
Q 4128 841 3676 375 
Q 3225 -91 2344 -91 
Q 1459 -91 1007 375 
Q 556 841 556 1753 
L 556 4666 
z
" transform="scale(0.015625)"/>
       <path id="DejaVuSans-4b" d="M 628 4666 
L 1259 4666 
L 1259 2694 
L 3353 4666 
L 4166 4666 
L 1850 2491 
L 4331 0 
L 3500 0 
L 1259 2247 
L 1259 0 
L 628 0 
L 628 4666 
z
" transform="scale(0.015625)"/>
      </defs>
      <use xlink:href="#DejaVuSans-55"/>
      <use xlink:href="#DejaVuSans-6e" x="73.193359"/>
      <use xlink:href="#DejaVuSans-69" x="136.572266"/>
      <use xlink:href="#DejaVuSans-74" x="164.355469"/>
      <use xlink:href="#DejaVuSans-65" x="203.564453"/>
      <use xlink:href="#DejaVuSans-64" x="265.087891"/>
      <use xlink:href="#DejaVuSans-20" x="328.564453"/>
      <use xlink:href="#DejaVuSans-4b" x="360.351562"/>
      <use xlink:href="#DejaVuSans-69" x="425.927734"/>
      <use xlink:href="#DejaVuSans-6e" x="453.710938"/>
      <use xlink:href="#DejaVuSans-67" x="517.089844"/>
      <use xlink:href="#DejaVuSans-64" x="580.566406"/>
      <use xlink:href="#DejaVuSans-6f" x="644.042969"/>
      <use xlink:href="#DejaVuSans-6d" x="705.224609"/>
     </g>
    </g>
    <g id="line2d_28">
     <path d="M 1081.879375 64.64875 
L 1089.879375 64.64875 
L 1097.879375 64.64875 
" style="fill: none; stroke: #d18cad; stroke-width: 2; stroke-linecap: square"/>
    </g>
    <g id="text_23">
     <!-- Asia -->
     <g transform="translate(1104.279375 67.44875)scale(0.08 -0.08)">
      <defs>
       <path id="DejaVuSans-73" d="M 2834 3397 
L 2834 2853 
Q 2591 2978 2328 3040 
Q 2066 3103 1784 3103 
Q 1356 3103 1142 2972 
Q 928 2841 928 2578 
Q 928 2378 1081 2264 
Q 1234 2150 1697 2047 
L 1894 2003 
Q 2506 1872 2764 1633 
Q 3022 1394 3022 966 
Q 3022 478 2636 193 
Q 2250 -91 1575 -91 
Q 1294 -91 989 -36 
Q 684 19 347 128 
L 347 722 
Q 666 556 975 473 
Q 1284 391 1588 391 
Q 1994 391 2212 530 
Q 2431 669 2431 922 
Q 2431 1156 2273 1281 
Q 2116 1406 1581 1522 
L 1381 1569 
Q 847 1681 609 1914 
Q 372 2147 372 2553 
Q 372 3047 722 3315 
Q 1072 3584 1716 3584 
Q 2034 3584 2315 3537 
Q 2597 3491 2834 3397 
z
" transform="scale(0.015625)"/>
      </defs>
      <use xlink:href="#DejaVuSans-41"/>
      <use xlink:href="#DejaVuSans-73" x="68.408203"/>
      <use xlink:href="#DejaVuSans-69" x="120.507812"/>
      <use xlink:href="#DejaVuSans-61" x="148.291016"/>
     </g>
    </g>
    <g id="line2d_29">
     <path d="M 1081.879375 76.39125 
L 1089.879375 76.39125 
L 1097.879375 76.39125 
" style="fill: none; stroke: #a4a86f; stroke-width: 2; stroke-linecap: square"/>
    </g>
    <g id="text_24">
     <!-- Oceania -->
     <g transform="translate(1104.279375 79.19125)scale(0.08 -0.08)">
      <defs>
       <path id="DejaVuSans-4f" d="M 2522 4238 
Q 1834 4238 1429 3725 
Q 1025 3213 1025 2328 
Q 1025 1447 1429 934 
Q 1834 422 2522 422 
Q 3209 422 3611 934 
Q 4013 1447 4013 2328 
Q 4013 3213 3611 3725 
Q 3209 4238 2522 4238 
z
M 2522 4750 
Q 3503 4750 4090 4092 
Q 4678 3434 4678 2328 
Q 4678 1225 4090 567 
Q 3503 -91 2522 -91 
Q 1538 -91 948 565 
Q 359 1222 359 2328 
Q 359 3434 948 4092 
Q 1538 4750 2522 4750 
z
" transform="scale(0.015625)"/>
      </defs>
      <use xlink:href="#DejaVuSans-4f"/>
      <use xlink:href="#DejaVuSans-63" x="78.710938"/>
      <use xlink:href="#DejaVuSans-65" x="133.691406"/>
      <use xlink:href="#DejaVuSans-61" x="195.214844"/>
      <use xlink:href="#DejaVuSans-6e" x="256.494141"/>
      <use xlink:href="#DejaVuSans-69" x="319.873047"/>
      <use xlink:href="#DejaVuSans-61" x="347.65625"/>
     </g>
    </g>
    <g id="line2d_30">
     <path d="M 1081.879375 88.13375 
L 1089.879375 88.13375 
L 1097.879375 88.13375 
" style="fill: none; stroke: #d3d3d3; stroke-width: 2; stroke-linecap: square"/>
    </g>
    <g id="text_25">
     <!-- Africa -->
     <g transform="translate(1104.279375 90.93375)scale(0.08 -0.08)">
      <defs>
       <path id="DejaVuSans-66" d="M 2375 4863 
L 2375 4384 
L 1825 4384 
Q 1516 4384 1395 4259 
Q 1275 4134 1275 3809 
L 1275 3500 
L 2222 3500 
L 2222 3053 
L 1275 3053 
L 1275 0 
L 697 0 
L 697 3053 
L 147 3053 
L 147 3500 
L 697 3500 
L 697 3744 
Q 697 4328 969 4595 
Q 1241 4863 1831 4863 
L 2375 4863 
z
" transform="scale(0.015625)"/>
      </defs>
      <use xlink:href="#DejaVuSans-41"/>
      <use xlink:href="#DejaVuSans-66" x="64.783203"/>
      <use xlink:href="#DejaVuSans-72" x="99.988281"/>
      <use xlink:href="#DejaVuSans-69" x="141.101562"/>
      <use xlink:href="#DejaVuSans-63" x="168.884766"/>
      <use xlink:href="#DejaVuSans-61" x="223.865234"/>
     </g>
    </g>
   </g>
  </g>
 </g>
 <defs>
  <clipPath id="p2a399f315c">
   <rect x="59.690625" y="7.2" width="1116" height="221.76"/>
  </clipPath>
 </defs>
</svg>
