<?xml version="1.0" encoding="utf-8" standalone="no"?>
<!DOCTYPE svg PUBLIC "-//W3C//DTD SVG 1.1//EN"
  "http://www.w3.org/Graphics/SVG/1.1/DTD/svg11.dtd">
<svg height="298.620937pt" version="1.1" viewBox="0 0 1176.528125 298.620937" width="1176.528125pt" xmlns="http://www.w3.org/2000/svg" xmlns:xlink="http://www.w3.org/1999/xlink">
 <metadata>
  <rdf:RDF xmlns:cc="http://creativecommons.org/ns#" xmlns:dc="http://purl.org/dc/elements/1.1/" xmlns:rdf="http://www.w3.org/1999/02/22-rdf-syntax-ns#">
   <cc:Work>
    <dc:type rdf:resource="http://purl.org/dc/dcmitype/StillImage"/>
    <dc:date>2021-10-09T12:19:27.255412</dc:date>
    <dc:format>image/svg+xml</dc:format>
    <dc:creator>
     <cc:Agent>
      <dc:title>Matplotlib v3.4.2, https://matplotlib.org/</dc:title>
     </cc:Agent>
    </dc:creator>
   </cc:Work>
  </rdf:RDF>
 </metadata>
 <defs>
  <style type="text/css">*{stroke-linecap:butt;stroke-linejoin:round;}</style>
 </defs>
 <g id="figure_1">
  <g id="patch_1">
   <path d="M 0 298.620937 
L 1176.528125 298.620937 
L 1176.528125 0 
L 0 0 
z
" style="fill:#ffffff;"/>
  </g>
  <g id="axes_1">
   <g id="patch_2">
    <path d="M 53.328125 228.96 
L 1169.328125 228.96 
L 1169.328125 7.2 
L 53.328125 7.2 
z
" style="fill:#ffffff;"/>
   </g>
   <g id="matplotlib.axis_1">
    <g id="xtick_1">
     <g id="line2d_1">
      <defs>
       <path d="M 0 0 
L 0 3.5 
" id="mafa6205a2a" style="stroke:#000000;stroke-width:0.8;"/>
      </defs>
      <g>
       <use style="stroke:#000000;stroke-width:0.8;" x="83.028549" xlink:href="#mafa6205a2a" y="228.96"/>
      </g>
     </g>
     <g id="text_1">
      <!-- 2020-09 -->
      <g transform="translate(85.787924 277.742812)rotate(-90)scale(0.1 -0.1)">
       <defs>
        <path d="M 1228 531 
L 3431 531 
L 3431 0 
L 469 0 
L 469 531 
Q 828 903 1448 1529 
Q 2069 2156 2228 2338 
Q 2531 2678 2651 2914 
Q 2772 3150 2772 3378 
Q 2772 3750 2511 3984 
Q 2250 4219 1831 4219 
Q 1534 4219 1204 4116 
Q 875 4013 500 3803 
L 500 4441 
Q 881 4594 1212 4672 
Q 1544 4750 1819 4750 
Q 2544 4750 2975 4387 
Q 3406 4025 3406 3419 
Q 3406 3131 3298 2873 
Q 3191 2616 2906 2266 
Q 2828 2175 2409 1742 
Q 1991 1309 1228 531 
z
" id="DejaVuSans-32" transform="scale(0.015625)"/>
        <path d="M 2034 4250 
Q 1547 4250 1301 3770 
Q 1056 3291 1056 2328 
Q 1056 1369 1301 889 
Q 1547 409 2034 409 
Q 2525 409 2770 889 
Q 3016 1369 3016 2328 
Q 3016 3291 2770 3770 
Q 2525 4250 2034 4250 
z
M 2034 4750 
Q 2819 4750 3233 4129 
Q 3647 3509 3647 2328 
Q 3647 1150 3233 529 
Q 2819 -91 2034 -91 
Q 1250 -91 836 529 
Q 422 1150 422 2328 
Q 422 3509 836 4129 
Q 1250 4750 2034 4750 
z
" id="DejaVuSans-30" transform="scale(0.015625)"/>
        <path d="M 313 2009 
L 1997 2009 
L 1997 1497 
L 313 1497 
L 313 2009 
z
" id="DejaVuSans-2d" transform="scale(0.015625)"/>
        <path d="M 703 97 
L 703 672 
Q 941 559 1184 500 
Q 1428 441 1663 441 
Q 2288 441 2617 861 
Q 2947 1281 2994 2138 
Q 2813 1869 2534 1725 
Q 2256 1581 1919 1581 
Q 1219 1581 811 2004 
Q 403 2428 403 3163 
Q 403 3881 828 4315 
Q 1253 4750 1959 4750 
Q 2769 4750 3195 4129 
Q 3622 3509 3622 2328 
Q 3622 1225 3098 567 
Q 2575 -91 1691 -91 
Q 1453 -91 1209 -44 
Q 966 3 703 97 
z
M 1959 2075 
Q 2384 2075 2632 2365 
Q 2881 2656 2881 3163 
Q 2881 3666 2632 3958 
Q 2384 4250 1959 4250 
Q 1534 4250 1286 3958 
Q 1038 3666 1038 3163 
Q 1038 2656 1286 2365 
Q 1534 2075 1959 2075 
z
" id="DejaVuSans-39" transform="scale(0.015625)"/>
       </defs>
       <use xlink:href="#DejaVuSans-32"/>
       <use x="63.623047" xlink:href="#DejaVuSans-30"/>
       <use x="127.246094" xlink:href="#DejaVuSans-32"/>
       <use x="190.869141" xlink:href="#DejaVuSans-30"/>
       <use x="254.492188" xlink:href="#DejaVuSans-2d"/>
       <use x="290.576172" xlink:href="#DejaVuSans-30"/>
       <use x="354.199219" xlink:href="#DejaVuSans-39"/>
      </g>
     </g>
    </g>
    <g id="xtick_2">
     <g id="line2d_2">
      <g>
       <use style="stroke:#000000;stroke-width:0.8;" x="243.358271" xlink:href="#mafa6205a2a" y="228.96"/>
      </g>
     </g>
     <g id="text_2">
      <!-- 2020-11 -->
      <g transform="translate(246.117646 277.742812)rotate(-90)scale(0.1 -0.1)">
       <defs>
        <path d="M 794 531 
L 1825 531 
L 1825 4091 
L 703 3866 
L 703 4441 
L 1819 4666 
L 2450 4666 
L 2450 531 
L 3481 531 
L 3481 0 
L 794 0 
L 794 531 
z
" id="DejaVuSans-31" transform="scale(0.015625)"/>
       </defs>
       <use xlink:href="#DejaVuSans-32"/>
       <use x="63.623047" xlink:href="#DejaVuSans-30"/>
       <use x="127.246094" xlink:href="#DejaVuSans-32"/>
       <use x="190.869141" xlink:href="#DejaVuSans-30"/>
       <use x="254.492188" xlink:href="#DejaVuSans-2d"/>
       <use x="290.576172" xlink:href="#DejaVuSans-31"/>
       <use x="354.199219" xlink:href="#DejaVuSans-31"/>
      </g>
     </g>
    </g>
    <g id="xtick_3">
     <g id="line2d_3">
      <g>
       <use style="stroke:#000000;stroke-width:0.8;" x="403.687993" xlink:href="#mafa6205a2a" y="228.96"/>
      </g>
     </g>
     <g id="text_3">
      <!-- 2021-01 -->
      <g transform="translate(406.447368 277.742812)rotate(-90)scale(0.1 -0.1)">
       <use xlink:href="#DejaVuSans-32"/>
       <use x="63.623047" xlink:href="#DejaVuSans-30"/>
       <use x="127.246094" xlink:href="#DejaVuSans-32"/>
       <use x="190.869141" xlink:href="#DejaVuSans-31"/>
       <use x="254.492188" xlink:href="#DejaVuSans-2d"/>
       <use x="290.576172" xlink:href="#DejaVuSans-30"/>
       <use x="354.199219" xlink:href="#DejaVuSans-31"/>
      </g>
     </g>
    </g>
    <g id="xtick_4">
     <g id="line2d_4">
      <g>
       <use style="stroke:#000000;stroke-width:0.8;" x="558.761003" xlink:href="#mafa6205a2a" y="228.96"/>
      </g>
     </g>
     <g id="text_4">
      <!-- 2021-03 -->
      <g transform="translate(561.520378 277.742812)rotate(-90)scale(0.1 -0.1)">
       <defs>
        <path d="M 2597 2516 
Q 3050 2419 3304 2112 
Q 3559 1806 3559 1356 
Q 3559 666 3084 287 
Q 2609 -91 1734 -91 
Q 1441 -91 1130 -33 
Q 819 25 488 141 
L 488 750 
Q 750 597 1062 519 
Q 1375 441 1716 441 
Q 2309 441 2620 675 
Q 2931 909 2931 1356 
Q 2931 1769 2642 2001 
Q 2353 2234 1838 2234 
L 1294 2234 
L 1294 2753 
L 1863 2753 
Q 2328 2753 2575 2939 
Q 2822 3125 2822 3475 
Q 2822 3834 2567 4026 
Q 2313 4219 1838 4219 
Q 1578 4219 1281 4162 
Q 984 4106 628 3988 
L 628 4550 
Q 988 4650 1302 4700 
Q 1616 4750 1894 4750 
Q 2613 4750 3031 4423 
Q 3450 4097 3450 3541 
Q 3450 3153 3228 2886 
Q 3006 2619 2597 2516 
z
" id="DejaVuSans-33" transform="scale(0.015625)"/>
       </defs>
       <use xlink:href="#DejaVuSans-32"/>
       <use x="63.623047" xlink:href="#DejaVuSans-30"/>
       <use x="127.246094" xlink:href="#DejaVuSans-32"/>
       <use x="190.869141" xlink:href="#DejaVuSans-31"/>
       <use x="254.492188" xlink:href="#DejaVuSans-2d"/>
       <use x="290.576172" xlink:href="#DejaVuSans-30"/>
       <use x="354.199219" xlink:href="#DejaVuSans-33"/>
      </g>
     </g>
    </g>
    <g id="xtick_5">
     <g id="line2d_5">
      <g>
       <use style="stroke:#000000;stroke-width:0.8;" x="719.090725" xlink:href="#mafa6205a2a" y="228.96"/>
      </g>
     </g>
     <g id="text_5">
      <!-- 2021-05 -->
      <g transform="translate(721.8501 277.742812)rotate(-90)scale(0.1 -0.1)">
       <defs>
        <path d="M 691 4666 
L 3169 4666 
L 3169 4134 
L 1269 4134 
L 1269 2991 
Q 1406 3038 1543 3061 
Q 1681 3084 1819 3084 
Q 2600 3084 3056 2656 
Q 3513 2228 3513 1497 
Q 3513 744 3044 326 
Q 2575 -91 1722 -91 
Q 1428 -91 1123 -41 
Q 819 9 494 109 
L 494 744 
Q 775 591 1075 516 
Q 1375 441 1709 441 
Q 2250 441 2565 725 
Q 2881 1009 2881 1497 
Q 2881 1984 2565 2268 
Q 2250 2553 1709 2553 
Q 1456 2553 1204 2497 
Q 953 2441 691 2322 
L 691 4666 
z
" id="DejaVuSans-35" transform="scale(0.015625)"/>
       </defs>
       <use xlink:href="#DejaVuSans-32"/>
       <use x="63.623047" xlink:href="#DejaVuSans-30"/>
       <use x="127.246094" xlink:href="#DejaVuSans-32"/>
       <use x="190.869141" xlink:href="#DejaVuSans-31"/>
       <use x="254.492188" xlink:href="#DejaVuSans-2d"/>
       <use x="290.576172" xlink:href="#DejaVuSans-30"/>
       <use x="354.199219" xlink:href="#DejaVuSans-35"/>
      </g>
     </g>
    </g>
    <g id="xtick_6">
     <g id="line2d_6">
      <g>
       <use style="stroke:#000000;stroke-width:0.8;" x="879.420447" xlink:href="#mafa6205a2a" y="228.96"/>
      </g>
     </g>
     <g id="text_6">
      <!-- 2021-07 -->
      <g transform="translate(882.179822 277.742812)rotate(-90)scale(0.1 -0.1)">
       <defs>
        <path d="M 525 4666 
L 3525 4666 
L 3525 4397 
L 1831 0 
L 1172 0 
L 2766 4134 
L 525 4134 
L 525 4666 
z
" id="DejaVuSans-37" transform="scale(0.015625)"/>
       </defs>
       <use xlink:href="#DejaVuSans-32"/>
       <use x="63.623047" xlink:href="#DejaVuSans-30"/>
       <use x="127.246094" xlink:href="#DejaVuSans-32"/>
       <use x="190.869141" xlink:href="#DejaVuSans-31"/>
       <use x="254.492188" xlink:href="#DejaVuSans-2d"/>
       <use x="290.576172" xlink:href="#DejaVuSans-30"/>
       <use x="354.199219" xlink:href="#DejaVuSans-37"/>
      </g>
     </g>
    </g>
    <g id="xtick_7">
     <g id="line2d_7">
      <g>
       <use style="stroke:#000000;stroke-width:0.8;" x="1042.378525" xlink:href="#mafa6205a2a" y="228.96"/>
      </g>
     </g>
     <g id="text_7">
      <!-- 2021-09 -->
      <g transform="translate(1045.1379 277.742812)rotate(-90)scale(0.1 -0.1)">
       <use xlink:href="#DejaVuSans-32"/>
       <use x="63.623047" xlink:href="#DejaVuSans-30"/>
       <use x="127.246094" xlink:href="#DejaVuSans-32"/>
       <use x="190.869141" xlink:href="#DejaVuSans-31"/>
       <use x="254.492188" xlink:href="#DejaVuSans-2d"/>
       <use x="290.576172" xlink:href="#DejaVuSans-30"/>
       <use x="354.199219" xlink:href="#DejaVuSans-39"/>
      </g>
     </g>
    </g>
    <g id="text_8">
     <!-- Date -->
     <g transform="translate(599.377344 289.34125)scale(0.1 -0.1)">
      <defs>
       <path d="M 1259 4147 
L 1259 519 
L 2022 519 
Q 2988 519 3436 956 
Q 3884 1394 3884 2338 
Q 3884 3275 3436 3711 
Q 2988 4147 2022 4147 
L 1259 4147 
z
M 628 4666 
L 1925 4666 
Q 3281 4666 3915 4102 
Q 4550 3538 4550 2338 
Q 4550 1131 3912 565 
Q 3275 0 1925 0 
L 628 0 
L 628 4666 
z
" id="DejaVuSans-44" transform="scale(0.015625)"/>
       <path d="M 2194 1759 
Q 1497 1759 1228 1600 
Q 959 1441 959 1056 
Q 959 750 1161 570 
Q 1363 391 1709 391 
Q 2188 391 2477 730 
Q 2766 1069 2766 1631 
L 2766 1759 
L 2194 1759 
z
M 3341 1997 
L 3341 0 
L 2766 0 
L 2766 531 
Q 2569 213 2275 61 
Q 1981 -91 1556 -91 
Q 1019 -91 701 211 
Q 384 513 384 1019 
Q 384 1609 779 1909 
Q 1175 2209 1959 2209 
L 2766 2209 
L 2766 2266 
Q 2766 2663 2505 2880 
Q 2244 3097 1772 3097 
Q 1472 3097 1187 3025 
Q 903 2953 641 2809 
L 641 3341 
Q 956 3463 1253 3523 
Q 1550 3584 1831 3584 
Q 2591 3584 2966 3190 
Q 3341 2797 3341 1997 
z
" id="DejaVuSans-61" transform="scale(0.015625)"/>
       <path d="M 1172 4494 
L 1172 3500 
L 2356 3500 
L 2356 3053 
L 1172 3053 
L 1172 1153 
Q 1172 725 1289 603 
Q 1406 481 1766 481 
L 2356 481 
L 2356 0 
L 1766 0 
Q 1100 0 847 248 
Q 594 497 594 1153 
L 594 3053 
L 172 3053 
L 172 3500 
L 594 3500 
L 594 4494 
L 1172 4494 
z
" id="DejaVuSans-74" transform="scale(0.015625)"/>
       <path d="M 3597 1894 
L 3597 1613 
L 953 1613 
Q 991 1019 1311 708 
Q 1631 397 2203 397 
Q 2534 397 2845 478 
Q 3156 559 3463 722 
L 3463 178 
Q 3153 47 2828 -22 
Q 2503 -91 2169 -91 
Q 1331 -91 842 396 
Q 353 884 353 1716 
Q 353 2575 817 3079 
Q 1281 3584 2069 3584 
Q 2775 3584 3186 3129 
Q 3597 2675 3597 1894 
z
M 3022 2063 
Q 3016 2534 2758 2815 
Q 2500 3097 2075 3097 
Q 1594 3097 1305 2825 
Q 1016 2553 972 2059 
L 3022 2063 
z
" id="DejaVuSans-65" transform="scale(0.015625)"/>
      </defs>
      <use xlink:href="#DejaVuSans-44"/>
      <use x="77.001953" xlink:href="#DejaVuSans-61"/>
      <use x="138.28125" xlink:href="#DejaVuSans-74"/>
      <use x="177.490234" xlink:href="#DejaVuSans-65"/>
     </g>
    </g>
   </g>
   <g id="matplotlib.axis_2">
    <g id="ytick_1">
     <g id="line2d_8">
      <defs>
       <path d="M 0 0 
L -3.5 0 
" id="m4ad6f56617" style="stroke:#000000;stroke-width:0.8;"/>
      </defs>
      <g>
       <use style="stroke:#000000;stroke-width:0.8;" x="53.328125" xlink:href="#m4ad6f56617" y="228.96"/>
      </g>
     </g>
     <g id="text_9">
      <!-- 1 -->
      <g transform="translate(39.965625 232.759219)scale(0.1 -0.1)">
       <use xlink:href="#DejaVuSans-31"/>
      </g>
     </g>
    </g>
    <g id="ytick_2">
     <g id="line2d_9">
      <g>
       <use style="stroke:#000000;stroke-width:0.8;" x="53.328125" xlink:href="#m4ad6f56617" y="200.254616"/>
      </g>
     </g>
     <g id="text_10">
      <!-- 3 -->
      <g transform="translate(39.965625 204.053835)scale(0.1 -0.1)">
       <use xlink:href="#DejaVuSans-33"/>
      </g>
     </g>
    </g>
    <g id="ytick_3">
     <g id="line2d_10">
      <g>
       <use style="stroke:#000000;stroke-width:0.8;" x="53.328125" xlink:href="#m4ad6f56617" y="171.549233"/>
      </g>
     </g>
     <g id="text_11">
      <!-- 10 -->
      <g transform="translate(33.603125 175.348451)scale(0.1 -0.1)">
       <use xlink:href="#DejaVuSans-31"/>
       <use x="63.623047" xlink:href="#DejaVuSans-30"/>
      </g>
     </g>
    </g>
    <g id="ytick_4">
     <g id="line2d_11">
      <g>
       <use style="stroke:#000000;stroke-width:0.8;" x="53.328125" xlink:href="#m4ad6f56617" y="142.843849"/>
      </g>
     </g>
     <g id="text_12">
      <!-- 31 -->
      <g transform="translate(33.603125 146.643068)scale(0.1 -0.1)">
       <use xlink:href="#DejaVuSans-33"/>
       <use x="63.623047" xlink:href="#DejaVuSans-31"/>
      </g>
     </g>
    </g>
    <g id="ytick_5">
     <g id="line2d_12">
      <g>
       <use style="stroke:#000000;stroke-width:0.8;" x="53.328125" xlink:href="#m4ad6f56617" y="114.138465"/>
      </g>
     </g>
     <g id="text_13">
      <!-- 100 -->
      <g transform="translate(27.240625 117.937684)scale(0.1 -0.1)">
       <use xlink:href="#DejaVuSans-31"/>
       <use x="63.623047" xlink:href="#DejaVuSans-30"/>
       <use x="127.246094" xlink:href="#DejaVuSans-30"/>
      </g>
     </g>
    </g>
    <g id="ytick_6">
     <g id="line2d_13">
      <g>
       <use style="stroke:#000000;stroke-width:0.8;" x="53.328125" xlink:href="#m4ad6f56617" y="85.433082"/>
      </g>
     </g>
     <g id="text_14">
      <!-- 316 -->
      <g transform="translate(27.240625 89.232301)scale(0.1 -0.1)">
       <defs>
        <path d="M 2113 2584 
Q 1688 2584 1439 2293 
Q 1191 2003 1191 1497 
Q 1191 994 1439 701 
Q 1688 409 2113 409 
Q 2538 409 2786 701 
Q 3034 994 3034 1497 
Q 3034 2003 2786 2293 
Q 2538 2584 2113 2584 
z
M 3366 4563 
L 3366 3988 
Q 3128 4100 2886 4159 
Q 2644 4219 2406 4219 
Q 1781 4219 1451 3797 
Q 1122 3375 1075 2522 
Q 1259 2794 1537 2939 
Q 1816 3084 2150 3084 
Q 2853 3084 3261 2657 
Q 3669 2231 3669 1497 
Q 3669 778 3244 343 
Q 2819 -91 2113 -91 
Q 1303 -91 875 529 
Q 447 1150 447 2328 
Q 447 3434 972 4092 
Q 1497 4750 2381 4750 
Q 2619 4750 2861 4703 
Q 3103 4656 3366 4563 
z
" id="DejaVuSans-36" transform="scale(0.015625)"/>
       </defs>
       <use xlink:href="#DejaVuSans-33"/>
       <use x="63.623047" xlink:href="#DejaVuSans-31"/>
       <use x="127.246094" xlink:href="#DejaVuSans-36"/>
      </g>
     </g>
    </g>
    <g id="ytick_7">
     <g id="line2d_14">
      <g>
       <use style="stroke:#000000;stroke-width:0.8;" x="53.328125" xlink:href="#m4ad6f56617" y="56.727698"/>
      </g>
     </g>
     <g id="text_15">
      <!-- 1000 -->
      <g transform="translate(20.878125 60.526917)scale(0.1 -0.1)">
       <use xlink:href="#DejaVuSans-31"/>
       <use x="63.623047" xlink:href="#DejaVuSans-30"/>
       <use x="127.246094" xlink:href="#DejaVuSans-30"/>
       <use x="190.869141" xlink:href="#DejaVuSans-30"/>
      </g>
     </g>
    </g>
    <g id="ytick_8">
     <g id="line2d_15">
      <g>
       <use style="stroke:#000000;stroke-width:0.8;" x="53.328125" xlink:href="#m4ad6f56617" y="28.022315"/>
      </g>
     </g>
     <g id="text_16">
      <!-- 3162 -->
      <g transform="translate(20.878125 31.821533)scale(0.1 -0.1)">
       <use xlink:href="#DejaVuSans-33"/>
       <use x="63.623047" xlink:href="#DejaVuSans-31"/>
       <use x="127.246094" xlink:href="#DejaVuSans-36"/>
       <use x="190.869141" xlink:href="#DejaVuSans-32"/>
      </g>
     </g>
    </g>
    <g id="text_17">
     <!-- Count (7 day rolling average) -->
     <g transform="translate(14.798437 191.547969)rotate(-90)scale(0.1 -0.1)">
      <defs>
       <path d="M 4122 4306 
L 4122 3641 
Q 3803 3938 3442 4084 
Q 3081 4231 2675 4231 
Q 1875 4231 1450 3742 
Q 1025 3253 1025 2328 
Q 1025 1406 1450 917 
Q 1875 428 2675 428 
Q 3081 428 3442 575 
Q 3803 722 4122 1019 
L 4122 359 
Q 3791 134 3420 21 
Q 3050 -91 2638 -91 
Q 1578 -91 968 557 
Q 359 1206 359 2328 
Q 359 3453 968 4101 
Q 1578 4750 2638 4750 
Q 3056 4750 3426 4639 
Q 3797 4528 4122 4306 
z
" id="DejaVuSans-43" transform="scale(0.015625)"/>
       <path d="M 1959 3097 
Q 1497 3097 1228 2736 
Q 959 2375 959 1747 
Q 959 1119 1226 758 
Q 1494 397 1959 397 
Q 2419 397 2687 759 
Q 2956 1122 2956 1747 
Q 2956 2369 2687 2733 
Q 2419 3097 1959 3097 
z
M 1959 3584 
Q 2709 3584 3137 3096 
Q 3566 2609 3566 1747 
Q 3566 888 3137 398 
Q 2709 -91 1959 -91 
Q 1206 -91 779 398 
Q 353 888 353 1747 
Q 353 2609 779 3096 
Q 1206 3584 1959 3584 
z
" id="DejaVuSans-6f" transform="scale(0.015625)"/>
       <path d="M 544 1381 
L 544 3500 
L 1119 3500 
L 1119 1403 
Q 1119 906 1312 657 
Q 1506 409 1894 409 
Q 2359 409 2629 706 
Q 2900 1003 2900 1516 
L 2900 3500 
L 3475 3500 
L 3475 0 
L 2900 0 
L 2900 538 
Q 2691 219 2414 64 
Q 2138 -91 1772 -91 
Q 1169 -91 856 284 
Q 544 659 544 1381 
z
M 1991 3584 
L 1991 3584 
z
" id="DejaVuSans-75" transform="scale(0.015625)"/>
       <path d="M 3513 2113 
L 3513 0 
L 2938 0 
L 2938 2094 
Q 2938 2591 2744 2837 
Q 2550 3084 2163 3084 
Q 1697 3084 1428 2787 
Q 1159 2491 1159 1978 
L 1159 0 
L 581 0 
L 581 3500 
L 1159 3500 
L 1159 2956 
Q 1366 3272 1645 3428 
Q 1925 3584 2291 3584 
Q 2894 3584 3203 3211 
Q 3513 2838 3513 2113 
z
" id="DejaVuSans-6e" transform="scale(0.015625)"/>
       <path id="DejaVuSans-20" transform="scale(0.015625)"/>
       <path d="M 1984 4856 
Q 1566 4138 1362 3434 
Q 1159 2731 1159 2009 
Q 1159 1288 1364 580 
Q 1569 -128 1984 -844 
L 1484 -844 
Q 1016 -109 783 600 
Q 550 1309 550 2009 
Q 550 2706 781 3412 
Q 1013 4119 1484 4856 
L 1984 4856 
z
" id="DejaVuSans-28" transform="scale(0.015625)"/>
       <path d="M 2906 2969 
L 2906 4863 
L 3481 4863 
L 3481 0 
L 2906 0 
L 2906 525 
Q 2725 213 2448 61 
Q 2172 -91 1784 -91 
Q 1150 -91 751 415 
Q 353 922 353 1747 
Q 353 2572 751 3078 
Q 1150 3584 1784 3584 
Q 2172 3584 2448 3432 
Q 2725 3281 2906 2969 
z
M 947 1747 
Q 947 1113 1208 752 
Q 1469 391 1925 391 
Q 2381 391 2643 752 
Q 2906 1113 2906 1747 
Q 2906 2381 2643 2742 
Q 2381 3103 1925 3103 
Q 1469 3103 1208 2742 
Q 947 2381 947 1747 
z
" id="DejaVuSans-64" transform="scale(0.015625)"/>
       <path d="M 2059 -325 
Q 1816 -950 1584 -1140 
Q 1353 -1331 966 -1331 
L 506 -1331 
L 506 -850 
L 844 -850 
Q 1081 -850 1212 -737 
Q 1344 -625 1503 -206 
L 1606 56 
L 191 3500 
L 800 3500 
L 1894 763 
L 2988 3500 
L 3597 3500 
L 2059 -325 
z
" id="DejaVuSans-79" transform="scale(0.015625)"/>
       <path d="M 2631 2963 
Q 2534 3019 2420 3045 
Q 2306 3072 2169 3072 
Q 1681 3072 1420 2755 
Q 1159 2438 1159 1844 
L 1159 0 
L 581 0 
L 581 3500 
L 1159 3500 
L 1159 2956 
Q 1341 3275 1631 3429 
Q 1922 3584 2338 3584 
Q 2397 3584 2469 3576 
Q 2541 3569 2628 3553 
L 2631 2963 
z
" id="DejaVuSans-72" transform="scale(0.015625)"/>
       <path d="M 603 4863 
L 1178 4863 
L 1178 0 
L 603 0 
L 603 4863 
z
" id="DejaVuSans-6c" transform="scale(0.015625)"/>
       <path d="M 603 3500 
L 1178 3500 
L 1178 0 
L 603 0 
L 603 3500 
z
M 603 4863 
L 1178 4863 
L 1178 4134 
L 603 4134 
L 603 4863 
z
" id="DejaVuSans-69" transform="scale(0.015625)"/>
       <path d="M 2906 1791 
Q 2906 2416 2648 2759 
Q 2391 3103 1925 3103 
Q 1463 3103 1205 2759 
Q 947 2416 947 1791 
Q 947 1169 1205 825 
Q 1463 481 1925 481 
Q 2391 481 2648 825 
Q 2906 1169 2906 1791 
z
M 3481 434 
Q 3481 -459 3084 -895 
Q 2688 -1331 1869 -1331 
Q 1566 -1331 1297 -1286 
Q 1028 -1241 775 -1147 
L 775 -588 
Q 1028 -725 1275 -790 
Q 1522 -856 1778 -856 
Q 2344 -856 2625 -561 
Q 2906 -266 2906 331 
L 2906 616 
Q 2728 306 2450 153 
Q 2172 0 1784 0 
Q 1141 0 747 490 
Q 353 981 353 1791 
Q 353 2603 747 3093 
Q 1141 3584 1784 3584 
Q 2172 3584 2450 3431 
Q 2728 3278 2906 2969 
L 2906 3500 
L 3481 3500 
L 3481 434 
z
" id="DejaVuSans-67" transform="scale(0.015625)"/>
       <path d="M 191 3500 
L 800 3500 
L 1894 563 
L 2988 3500 
L 3597 3500 
L 2284 0 
L 1503 0 
L 191 3500 
z
" id="DejaVuSans-76" transform="scale(0.015625)"/>
       <path d="M 513 4856 
L 1013 4856 
Q 1481 4119 1714 3412 
Q 1947 2706 1947 2009 
Q 1947 1309 1714 600 
Q 1481 -109 1013 -844 
L 513 -844 
Q 928 -128 1133 580 
Q 1338 1288 1338 2009 
Q 1338 2731 1133 3434 
Q 928 4138 513 4856 
z
" id="DejaVuSans-29" transform="scale(0.015625)"/>
      </defs>
      <use xlink:href="#DejaVuSans-43"/>
      <use x="69.824219" xlink:href="#DejaVuSans-6f"/>
      <use x="131.005859" xlink:href="#DejaVuSans-75"/>
      <use x="194.384766" xlink:href="#DejaVuSans-6e"/>
      <use x="257.763672" xlink:href="#DejaVuSans-74"/>
      <use x="296.972656" xlink:href="#DejaVuSans-20"/>
      <use x="328.759766" xlink:href="#DejaVuSans-28"/>
      <use x="367.773438" xlink:href="#DejaVuSans-37"/>
      <use x="431.396484" xlink:href="#DejaVuSans-20"/>
      <use x="463.183594" xlink:href="#DejaVuSans-64"/>
      <use x="526.660156" xlink:href="#DejaVuSans-61"/>
      <use x="587.939453" xlink:href="#DejaVuSans-79"/>
      <use x="647.119141" xlink:href="#DejaVuSans-20"/>
      <use x="678.90625" xlink:href="#DejaVuSans-72"/>
      <use x="717.769531" xlink:href="#DejaVuSans-6f"/>
      <use x="778.951172" xlink:href="#DejaVuSans-6c"/>
      <use x="806.734375" xlink:href="#DejaVuSans-6c"/>
      <use x="834.517578" xlink:href="#DejaVuSans-69"/>
      <use x="862.300781" xlink:href="#DejaVuSans-6e"/>
      <use x="925.679688" xlink:href="#DejaVuSans-67"/>
      <use x="989.15625" xlink:href="#DejaVuSans-20"/>
      <use x="1020.943359" xlink:href="#DejaVuSans-61"/>
      <use x="1082.222656" xlink:href="#DejaVuSans-76"/>
      <use x="1141.402344" xlink:href="#DejaVuSans-65"/>
      <use x="1202.925781" xlink:href="#DejaVuSans-72"/>
      <use x="1244.039062" xlink:href="#DejaVuSans-61"/>
      <use x="1305.318359" xlink:href="#DejaVuSans-67"/>
      <use x="1368.794922" xlink:href="#DejaVuSans-65"/>
      <use x="1430.318359" xlink:href="#DejaVuSans-29"/>
     </g>
    </g>
   </g>
   <g id="line2d_16">
    <path clip-path="url(#p45f32ee830)" d="M 104.055398 222.693932 
L 106.683754 228.96 
L 151.365808 228.96 
L 153.994164 225.630638 
L 169.7643 225.630638 
L 172.392656 228.96 
L 177.649369 228.96 
L 180.277725 225.630638 
L 182.906081 222.693932 
L 193.419505 222.693932 
L 196.047861 220.06696 
L 198.676217 222.693932 
L 201.304573 225.630638 
L 206.561286 225.630638 
L 209.189642 222.693932 
L 211.817998 222.693932 
L 214.446354 225.630638 
L 219.703066 225.630638 
L 222.331422 222.693932 
L 224.959778 222.693932 
L 227.588134 225.630638 
L 230.216491 222.693932 
L 238.101559 222.693932 
L 240.729915 225.630638 
L 245.986627 225.630638 
L 248.614983 222.693932 
L 251.243339 220.06696 
L 253.871695 220.06696 
L 256.500052 215.521104 
L 259.128408 215.521104 
L 261.756764 206.83671 
L 264.38512 190.298676 
L 267.013476 191.857508 
L 269.641832 192.675062 
L 272.270188 190.298676 
L 277.5269 190.298676 
L 280.155256 194.395274 
L 282.783613 211.677637 
L 285.411969 209.957425 
L 288.040325 209.957425 
L 290.668681 211.677637 
L 293.297037 215.521104 
L 298.553749 215.521104 
L 301.182105 211.677637 
L 303.810461 209.957425 
L 306.438817 205.411569 
L 309.067174 208.348275 
L 314.323886 208.348275 
L 316.952242 206.83671 
L 319.580598 193.520336 
L 322.208954 194.395274 
L 327.465666 194.395274 
L 332.722378 192.675062 
L 335.350735 193.520336 
L 337.979091 191.857508 
L 340.607447 191.857508 
L 343.235803 192.675062 
L 345.864159 186.781138 
L 348.492515 185.502234 
L 351.120871 182.565528 
L 353.749227 178.960658 
L 356.377583 168.851124 
L 359.005939 165.007657 
L 361.634296 162.906779 
L 364.262652 161.203363 
L 366.891008 156.696741 
L 369.519364 154.26687 
L 372.14772 150.321842 
L 374.776076 138.736541 
L 377.404432 133.345412 
L 380.032788 129.767194 
L 382.661144 128.53166 
L 385.2895 128.72272 
L 387.917857 127.053706 
L 390.546213 126.815678 
L 393.174569 122.778375 
L 398.431281 117.48819 
L 401.059637 115.567797 
L 403.687993 114.605864 
L 406.316349 113.819939 
L 408.944705 111.568548 
L 411.573061 108.122985 
L 414.201418 106.471894 
L 416.829774 105.749143 
L 422.086486 97.670689 
L 424.714842 96.537576 
L 427.343198 95.152518 
L 429.971554 90.617754 
L 432.59991 89.960859 
L 435.228266 88.46678 
L 437.856622 87.975532 
L 440.484979 86.722834 
L 443.113335 85.688885 
L 445.741691 85.745849 
L 448.370047 82.369482 
L 453.626759 79.220071 
L 458.883471 77.687858 
L 461.511827 77.392399 
L 464.140183 76.891619 
L 472.025252 70.72437 
L 477.281964 67.21768 
L 479.91032 66.606778 
L 482.538676 66.380183 
L 485.167032 62.85878 
L 490.423744 57.719562 
L 493.052101 55.876845 
L 495.680457 54.914576 
L 500.937169 53.633187 
L 503.565525 50.23 
L 506.193881 49.210861 
L 508.822237 48.860273 
L 511.450593 48.394411 
L 514.078949 47.090402 
L 516.707305 46.66808 
L 519.335662 46.66808 
L 521.964018 44.39552 
L 524.592374 43.334555 
L 527.22073 42.475269 
L 529.849086 41.18209 
L 532.477442 40.658713 
L 535.105798 40.62508 
L 537.734154 40.31703 
L 540.36251 38.397327 
L 542.990866 37.913665 
L 545.619223 36.297397 
L 548.247579 35.726336 
L 550.875935 34.973796 
L 553.504291 34.580953 
L 556.132647 34.025974 
L 558.761003 32.65431 
L 561.389359 30.828079 
L 564.017715 30.101367 
L 566.646071 29.575596 
L 571.902784 28.072989 
L 574.53114 27.77679 
L 577.159496 26.092815 
L 579.787852 25.701837 
L 582.416208 24.982633 
L 585.044564 23.893999 
L 587.67292 23.395054 
L 592.929632 22.93711 
L 598.186345 20.997414 
L 600.814701 20.848296 
L 603.443057 20.054351 
L 606.071413 19.975921 
L 608.699769 20.081368 
L 611.328125 19.941686 
L 613.956481 19.621989 
L 616.584837 20.199605 
L 621.841549 20.849986 
L 624.469905 20.199605 
L 627.098262 20.146986 
L 632.354974 20.496841 
L 634.98333 19.77121 
L 637.611686 19.927842 
L 640.240042 20.315924 
L 642.868398 21.72954 
L 648.12511 21.712918 
L 650.753466 24.71289 
L 653.381823 25.501495 
L 656.010179 24.897031 
L 658.638535 24.118356 
L 661.266891 22.569654 
L 663.895247 21.691065 
L 666.523603 21.557734 
L 669.151959 18.751155 
L 671.780315 17.76 
L 674.408671 17.809306 
L 677.037027 18.058065 
L 679.665384 17.850469 
L 682.29374 18.112506 
L 684.922096 18.107965 
L 687.550452 18.855436 
L 690.178808 19.411378 
L 692.807164 19.347666 
L 695.43552 19.133041 
L 698.063876 19.272218 
L 700.692232 19.144083 
L 703.320588 19.213605 
L 705.948945 18.726317 
L 708.577301 18.503877 
L 711.205657 18.893678 
L 716.462369 19.170131 
L 719.090725 19.795493 
L 721.719081 19.7316 
L 724.347437 19.23735 
L 726.975793 20.069902 
L 729.604149 19.958798 
L 732.232506 20.442761 
L 734.860862 20.536853 
L 737.489218 20.287 
L 740.117574 20.34985 
L 742.74593 20.926133 
L 745.374286 21.169668 
L 748.002642 21.876116 
L 750.630998 23.386635 
L 753.259354 24.096214 
L 755.88771 24.081784 
L 758.516067 24.225492 
L 761.144423 24.209054 
L 763.772779 24.377817 
L 766.401135 24.66559 
L 769.029491 24.296202 
L 771.657847 24.844422 
L 774.286203 25.55551 
L 776.914559 26.004361 
L 779.542915 28.263328 
L 782.171271 28.868845 
L 784.799628 28.844387 
L 787.427984 29.355993 
L 790.05634 30.281994 
L 792.684696 30.516168 
L 795.313052 30.567259 
L 797.941408 31.856145 
L 803.19812 35.438052 
L 805.826476 36.443809 
L 808.454832 37.267258 
L 811.083189 37.676966 
L 813.711545 38.266184 
L 816.339901 41.740109 
L 818.968257 41.963709 
L 821.596613 42.515523 
L 826.853325 43.22033 
L 829.481681 44.114738 
L 832.110037 44.510906 
L 834.738393 48.517109 
L 837.36675 51.027617 
L 839.995106 53.09476 
L 842.623462 54.357789 
L 845.251818 56.293391 
L 847.880174 56.795466 
L 850.50853 56.899257 
L 853.136886 60.969099 
L 858.393598 61.369196 
L 861.021954 63.110564 
L 863.650311 64.346159 
L 866.278667 65.428125 
L 868.907023 65.6411 
L 871.535379 67.326416 
L 874.163735 69.81694 
L 876.792091 71.783074 
L 882.048803 73.266151 
L 884.677159 72.977426 
L 887.305515 73.586258 
L 889.933872 74.608457 
L 892.562228 75.38664 
L 895.190584 75.590733 
L 897.81894 76.143291 
L 900.447296 76.931633 
L 903.075652 78.129312 
L 905.704008 78.897335 
L 908.332364 81.11649 
L 910.96072 82.639899 
L 913.589076 86.148284 
L 916.217433 88.696816 
L 918.845789 91.449642 
L 921.474145 92.804879 
L 924.102501 93.433416 
L 929.359213 98.266581 
L 931.987569 99.741658 
L 934.615925 102.375297 
L 937.244281 103.934128 
L 939.872637 105.170738 
L 942.500994 106.159575 
L 945.12935 108.976944 
L 947.757706 115.567797 
L 950.386062 117.044024 
L 953.014418 118.358763 
L 955.642774 119.880877 
L 958.27113 120.51673 
L 960.899486 121.742426 
L 963.527842 123.911896 
L 966.156198 126.288282 
L 968.784555 128.342053 
L 971.412911 130.23828 
L 976.669623 134.689204 
L 979.297979 135.431073 
L 981.926335 137.707258 
L 984.554691 142.106878 
L 987.183047 142.771802 
L 989.811403 145.877547 
L 992.439759 148.139706 
L 995.068116 149.425943 
L 997.696472 152.052916 
L 1000.324828 156.893842 
L 1002.953184 158.318983 
L 1005.58154 161.203363 
L 1008.209896 167.003377 
L 1010.838252 164.198943 
L 1013.466608 165.843485 
L 1016.094964 165.561751 
L 1018.72332 167.301981 
L 1021.351677 167.910138 
L 1023.980033 171.90799 
L 1026.608389 170.502932 
L 1029.236745 175.811754 
L 1031.865101 177.112911 
L 1034.493457 176.671604 
L 1037.121813 178.019672 
L 1039.750169 183.69905 
L 1042.378525 183.69905 
L 1045.006881 188.831596 
L 1047.635238 192.675062 
L 1050.263594 192.675062 
L 1052.89195 195.302035 
L 1055.520306 197.220918 
L 1058.148662 199.299887 
L 1060.777018 200.408211 
L 1063.405374 198.238741 
L 1071.290442 198.238741 
L 1073.918799 196.243021 
L 1076.547155 195.302035 
L 1079.175511 198.238741 
L 1084.432223 209.957425 
L 1089.688935 209.957425 
L 1092.317291 217.690574 
L 1094.945647 228.96 
L 1097.574003 225.630638 
L 1108.087428 225.630638 
L 1110.715784 211.677637 
L 1113.34414 211.677637 
L 1115.972496 213.525384 
L 1118.600852 211.677637 
L 1118.600852 211.677637 
" style="fill:none;stroke:#947383;stroke-linecap:square;stroke-width:2;"/>
   </g>
   <g id="line2d_17">
    <path clip-path="url(#p45f32ee830)" d="M 245.986627 225.630638 
L 248.614983 228.96 
L 274.898544 228.96 
L 277.5269 225.630638 
L 280.155256 225.630638 
L 282.783613 222.693932 
L 290.668681 222.693932 
L 293.297037 220.06696 
L 295.925393 222.693932 
L 298.553749 222.693932 
L 301.182105 225.630638 
L 303.810461 222.693932 
L 309.067174 222.693932 
L 311.69553 220.06696 
L 314.323886 217.690574 
L 327.465666 217.690574 
L 330.094022 220.06696 
L 332.722378 222.693932 
L 335.350735 222.693932 
L 337.979091 220.06696 
L 340.607447 217.690574 
L 343.235803 217.690574 
L 345.864159 215.521104 
L 348.492515 217.690574 
L 351.120871 217.690574 
L 353.749227 213.525384 
L 359.005939 213.525384 
L 361.634296 211.677637 
L 364.262652 206.83671 
L 366.891008 204.063502 
L 369.519364 197.220918 
L 372.14772 191.857508 
L 374.776076 186.133487 
L 377.404432 179.444813 
L 380.032788 176.671604 
L 382.661144 155.73395 
L 385.2895 153.913202 
L 387.917857 151.251137 
L 390.546213 146.521851 
L 393.174569 143.111035 
L 395.802925 141.141602 
L 398.431281 140.827973 
L 401.059637 146.784308 
L 403.687993 145.75066 
L 406.316349 142.326555 
L 411.573061 128.979765 
L 414.201418 125.828671 
L 416.829774 124.444677 
L 419.45813 120.840843 
L 422.086486 120.242234 
L 424.714842 122.181144 
L 427.343198 127.536688 
L 429.971554 130.306311 
L 432.59991 131.137494 
L 435.228266 131.492168 
L 437.856622 135.852964 
L 440.484979 135.68335 
L 443.113335 133.57735 
L 445.741691 131.208026 
L 448.370047 133.733183 
L 450.998403 132.217021 
L 453.626759 128.850911 
L 456.255115 123.964665 
L 458.883471 122.778375 
L 464.140183 124.661018 
L 466.76854 124.552613 
L 469.396896 117.981932 
L 472.025252 113.925663 
L 474.653608 111.185934 
L 477.281964 109.891214 
L 479.91032 109.741465 
L 482.538676 106.1079 
L 485.167032 104.028931 
L 487.795388 99.741658 
L 490.423744 102.176096 
L 493.052101 105.672933 
L 495.680457 107.542152 
L 498.308813 107.487534 
L 500.937169 104.849652 
L 503.565525 104.556891 
L 506.193881 114.425057 
L 508.822237 114.209805 
L 511.450593 110.284824 
L 514.078949 108.832571 
L 516.707305 108.461067 
L 519.335662 114.389052 
L 521.964018 117.124195 
L 524.592374 115.49247 
L 527.22073 115.986213 
L 529.849086 120.151402 
L 532.477442 121.122047 
L 535.105798 118.48565 
L 537.734154 116.765438 
L 540.36251 111.568548 
L 542.990866 109.297539 
L 545.619223 106.550589 
L 548.247579 105.12107 
L 553.504291 104.972658 
L 556.132647 100.929177 
L 558.761003 101.437603 
L 566.646071 99.861915 
L 569.274427 97.85538 
L 571.902784 97.597194 
L 574.53114 100.2466 
L 577.159496 101.437603 
L 579.787852 101.587868 
L 585.044564 102.73341 
L 587.67292 101.782406 
L 590.301276 102.665871 
L 592.929632 101.160919 
L 595.557988 100.472056 
L 598.186345 98.153761 
L 600.814701 97.670689 
L 603.443057 96.678641 
L 606.071413 97.034836 
L 611.328125 94.756483 
L 613.956481 93.464485 
L 616.584837 95.946797 
L 619.213193 94.205988 
L 621.841549 93.698748 
L 624.469905 92.804879 
L 627.098262 90.645503 
L 629.726618 92.865507 
L 632.354974 91.694581 
L 634.98333 89.812727 
L 637.611686 88.581533 
L 640.240042 86.794105 
L 642.868398 85.260159 
L 645.496754 85.327364 
L 648.12511 78.862694 
L 650.753466 77.978506 
L 653.381823 78.230359 
L 656.010179 78.323346 
L 658.638535 78.24724 
L 661.266891 79.079997 
L 663.895247 79.29921 
L 666.523603 85.361035 
L 669.151959 84.761811 
L 671.780315 83.406819 
L 674.408671 83.490034 
L 677.037027 83.720317 
L 679.665384 82.210608 
L 682.29374 81.652708 
L 684.922096 80.955965 
L 687.550452 79.86934 
L 690.178808 79.29921 
L 692.807164 77.679604 
L 695.43552 75.424309 
L 698.063876 72.752893 
L 700.692232 71.382376 
L 703.320588 70.562547 
L 705.948945 68.185597 
L 708.577301 66.755443 
L 711.205657 64.948049 
L 713.834013 66.249383 
L 716.462369 64.928245 
L 719.090725 63.272123 
L 721.719081 62.972912 
L 724.347437 64.938145 
L 726.975793 66.192047 
L 729.604149 68.715686 
L 732.232506 66.458995 
L 734.860862 68.338336 
L 737.489218 69.63696 
L 740.117574 70.089371 
L 742.74593 68.509151 
L 748.002642 66.964001 
L 750.630998 67.771712 
L 753.259354 68.332662 
L 755.88771 69.404911 
L 758.516067 69.720789 
L 761.144423 70.444952 
L 763.772779 71.01959 
L 766.401135 71.337538 
L 769.029491 72.813929 
L 774.286203 74.983399 
L 776.914559 76.228799 
L 779.542915 78.230359 
L 782.171271 79.35211 
L 784.799628 80.833905 
L 787.427984 80.908948 
L 790.05634 82.349567 
L 792.684696 83.07671 
L 795.313052 83.417206 
L 797.941408 85.260159 
L 803.19812 86.997155 
L 805.826476 88.581533 
L 808.454832 87.727315 
L 813.711545 88.025473 
L 816.339901 86.159878 
L 818.968257 86.206309 
L 821.596613 85.940506 
L 824.224969 85.004204 
L 826.853325 85.620699 
L 829.481681 85.87163 
L 832.110037 86.463234 
L 834.738393 87.408284 
L 837.36675 88.100573 
L 839.995106 88.517716 
L 842.623462 90.410609 
L 845.251818 90.590035 
L 847.880174 90.49326 
L 850.50853 89.69218 
L 853.136886 90.232465 
L 855.765242 89.20263 
L 858.393598 87.776761 
L 861.021954 86.973181 
L 863.650311 86.913346 
L 866.278667 85.963507 
L 868.907023 86.663596 
L 874.163735 87.347397 
L 876.792091 89.585514 
L 879.420447 89.77248 
L 882.048803 89.479302 
L 884.677159 89.974369 
L 887.305515 89.960859 
L 889.933872 88.594316 
L 892.562228 88.289319 
L 895.190584 86.078832 
L 900.447296 85.338583 
L 903.075652 85.406 
L 905.704008 85.115166 
L 908.332364 85.894568 
L 910.96072 85.170833 
L 913.589076 88.088041 
L 916.217433 89.163355 
L 918.845789 89.866492 
L 924.102501 90.042031 
L 926.730857 89.812727 
L 929.359213 91.956578 
L 931.987569 89.545631 
L 934.615925 90.756812 
L 937.244281 92.714213 
L 939.872637 91.507058 
L 942.500994 91.607857 
L 945.12935 93.417896 
L 947.757706 93.232403 
L 950.386062 94.625857 
L 953.014418 91.709064 
L 955.642774 90.069147 
L 958.27113 91.62229 
L 960.899486 91.651181 
L 963.527842 92.971962 
L 966.156198 95.436899 
L 968.784555 97.560527 
L 974.041267 108.122985 
L 976.669623 111.697402 
L 979.297979 93.017725 
L 981.926335 94.789247 
L 984.554691 93.856155 
L 987.183047 94.398896 
L 989.811403 92.459102 
L 992.439759 87.776761 
L 995.068116 88.075515 
L 997.696472 103.257379 
L 1000.324828 103.651863 
L 1002.953184 107.081667 
L 1005.58154 109.268223 
L 1008.209896 114.102872 
L 1010.838252 133.191976 
L 1013.466608 135.938206 
L 1016.094964 137.799093 
L 1018.72332 140.621058 
L 1021.351677 141.78095 
L 1023.980033 141.78095 
L 1026.608389 146.652734 
L 1029.236745 153.56448 
L 1031.865101 158.110336 
L 1034.493457 158.529391 
L 1037.121813 161.678295 
L 1039.750169 168.219871 
L 1042.378525 171.90799 
L 1045.006881 172.271984 
L 1047.635238 171.90799 
L 1050.263594 175.811754 
L 1052.89195 178.960658 
L 1055.520306 178.960658 
L 1058.148662 179.938555 
L 1060.777018 181.481306 
L 1063.405374 182.017524 
L 1066.03373 186.133487 
L 1068.662086 182.017524 
L 1071.290442 179.444813 
L 1073.918799 179.938555 
L 1079.175511 176.237973 
L 1081.803867 177.56217 
L 1084.432223 179.444813 
L 1087.060579 183.125848 
L 1089.688935 183.69905 
L 1092.317291 182.017524 
L 1094.945647 184.28574 
L 1097.574003 191.065912 
L 1100.20236 190.298676 
L 1102.830716 191.065912 
L 1105.459072 190.298676 
L 1108.087428 192.675062 
L 1110.715784 199.299887 
L 1110.715784 199.299887 
" style="fill:none;stroke:#96c6ad;stroke-linecap:square;stroke-width:2;"/>
   </g>
   <g id="line2d_18">
    <path clip-path="url(#p45f32ee830)" d="M 161.879232 225.630638 
L 164.507588 228.96 
L 248.614983 228.96 
L 251.243339 225.630638 
L 253.871695 225.630638 
L 256.500052 222.693932 
L 259.128408 222.693932 
L 261.756764 217.690574 
L 272.270188 217.690574 
L 274.898544 220.06696 
L 277.5269 220.06696 
L 280.155256 225.630638 
L 285.411969 225.630638 
L 288.040325 228.96 
L 290.668681 225.630638 
L 293.297037 225.630638 
L 295.925393 222.693932 
L 298.553749 222.693932 
L 301.182105 217.690574 
L 303.810461 215.521104 
L 306.438817 213.525384 
L 309.067174 215.521104 
L 311.69553 215.521104 
L 314.323886 217.690574 
L 316.952242 217.690574 
L 319.580598 222.693932 
L 322.208954 222.693932 
L 324.83731 225.630638 
L 337.979091 225.630638 
L 340.607447 228.96 
L 343.235803 228.96 
L 345.864159 225.630638 
L 351.120871 225.630638 
L 353.749227 222.693932 
L 356.377583 217.690574 
L 359.005939 211.677637 
L 361.634296 211.677637 
L 364.262652 205.411569 
L 366.891008 201.568103 
L 369.519364 199.299887 
L 372.14772 196.243021 
L 374.776076 196.243021 
L 377.404432 198.238741 
L 380.032788 194.395274 
L 382.661144 196.243021 
L 385.2895 199.299887 
L 387.917857 186.781138 
L 390.546213 185.502234 
L 395.802925 169.829021 
L 398.431281 165.561751 
L 401.059637 159.608918 
L 403.687993 158.318983 
L 406.316349 159.171483 
L 408.944705 156.114617 
L 411.573061 153.913202 
L 414.201418 151.093829 
L 416.829774 150.019618 
L 419.45813 149.279707 
L 422.086486 147.049557 
L 424.714842 146.521851 
L 427.343198 147.452798 
L 429.971554 145.373829 
L 432.59991 145.624416 
L 435.228266 145.498808 
L 437.856622 142.997444 
L 440.484979 142.437124 
L 443.113335 139.316409 
L 445.741691 138.263412 
L 448.370047 137.343264 
L 450.998403 135.852964 
L 453.626759 131.420828 
L 456.255115 130.927086 
L 458.883471 129.436071 
L 461.511827 129.501945 
L 464.140183 128.979765 
L 466.76854 127.781733 
L 469.396896 125.545658 
L 472.025252 123.649716 
L 477.281964 119.260837 
L 479.91032 118.570601 
L 482.538676 117.285315 
L 485.167032 114.3531 
L 487.795388 113.297942 
L 490.423744 112.585032 
L 493.052101 111.028229 
L 495.680457 109.861192 
L 498.308813 109.005919 
L 500.937169 107.983459 
L 503.565525 106.263247 
L 506.193881 102.643398 
L 508.822237 99.761661 
L 511.450593 98.589038 
L 514.078949 96.767214 
L 516.707305 95.185807 
L 524.592374 92.073911 
L 527.22073 91.86894 
L 529.849086 91.392357 
L 532.477442 90.576187 
L 535.105798 90.205171 
L 537.734154 88.954926 
L 540.36251 86.194693 
L 542.990866 83.678289 
L 548.247579 78.940705 
L 550.875935 76.859653 
L 553.504291 74.953788 
L 556.132647 74.017186 
L 558.761003 72.813929 
L 561.389359 72.476716 
L 564.017715 70.624662 
L 566.646071 68.982106 
L 569.274427 67.589334 
L 571.902784 67.206832 
L 574.53114 65.88675 
L 577.159496 62.872449 
L 579.787852 61.028282 
L 582.416208 59.717443 
L 585.044564 58.829907 
L 587.67292 57.253233 
L 590.301276 55.835571 
L 595.557988 53.968929 
L 598.186345 51.793082 
L 600.814701 50.156002 
L 603.443057 47.784841 
L 606.071413 46.398299 
L 608.699769 45.248359 
L 611.328125 44.360791 
L 616.584837 41.249009 
L 619.213193 39.361771 
L 621.841549 38.573836 
L 627.098262 37.501729 
L 629.726618 36.963933 
L 632.354974 36.056827 
L 634.98333 35.57644 
L 637.611686 34.791373 
L 640.240042 33.16542 
L 642.868398 32.217358 
L 645.496754 31.730359 
L 648.12511 31.649458 
L 650.753466 30.420498 
L 653.381823 29.526495 
L 656.010179 29.08183 
L 658.638535 29.04425 
L 661.266891 27.979486 
L 666.523603 26.665411 
L 669.151959 26.374834 
L 671.780315 25.952475 
L 677.037027 25.542251 
L 679.665384 25.804675 
L 682.29374 26.183677 
L 684.922096 26.681417 
L 687.550452 26.796962 
L 692.807164 27.601188 
L 700.692232 29.143019 
L 703.320588 28.915499 
L 705.948945 29.023137 
L 708.577301 28.998526 
L 711.205657 28.785087 
L 716.462369 27.758951 
L 719.090725 27.579047 
L 721.719081 27.77679 
L 724.347437 27.62889 
L 729.604149 28.498721 
L 737.489218 31.087835 
L 740.117574 31.662489 
L 742.74593 33.027362 
L 745.374286 33.650497 
L 748.002642 34.789896 
L 750.630998 35.777015 
L 753.259354 37.057619 
L 758.516067 38.410991 
L 761.144423 39.661766 
L 763.772779 41.145837 
L 769.029491 43.357462 
L 776.914559 45.936561 
L 779.542915 47.884574 
L 782.171271 49.179263 
L 784.799628 50.807543 
L 787.427984 52.241278 
L 790.05634 53.476374 
L 792.684696 54.393443 
L 795.313052 54.951035 
L 797.941408 59.0596 
L 800.569764 59.923087 
L 805.826476 62.740635 
L 808.454832 63.607803 
L 811.083189 63.967104 
L 813.711545 64.005228 
L 816.339901 61.541417 
L 818.968257 63.815188 
L 821.596613 64.7458 
L 824.224969 64.735976 
L 826.853325 64.554928 
L 832.110037 64.962912 
L 837.36675 66.103696 
L 839.995106 66.766096 
L 842.623462 68.033788 
L 845.251818 69.017067 
L 855.765242 72.196939 
L 858.393598 72.177075 
L 861.021954 73.903433 
L 863.650311 76.228799 
L 866.278667 76.979736 
L 868.907023 77.4414 
L 871.535379 79.743505 
L 874.163735 81.556105 
L 876.792091 85.237797 
L 879.420447 86.229556 
L 882.048803 86.829818 
L 884.677159 87.963062 
L 887.305515 89.492554 
L 889.933872 92.162275 
L 892.562228 93.589151 
L 895.190584 93.951078 
L 897.81894 95.252518 
L 900.447296 96.414796 
L 903.075652 95.758622 
L 908.332364 93.887756 
L 910.96072 95.135891 
L 913.589076 97.070737 
L 916.217433 98.172529 
L 924.102501 101.891142 
L 926.730857 104.387688 
L 929.359213 105.145891 
L 934.615925 107.028048 
L 937.244281 108.461067 
L 939.872637 109.209694 
L 942.500994 110.102385 
L 945.12935 110.840289 
L 947.757706 112.219582 
L 950.386062 113.092165 
L 953.014418 113.784797 
L 958.27113 114.031837 
L 960.899486 114.245552 
L 963.527842 117.981932 
L 966.156198 119.480514 
L 968.784555 120.242234 
L 971.412911 122.181144 
L 974.041267 124.989091 
L 979.297979 127.843373 
L 981.926335 128.850911 
L 984.554691 131.563712 
L 987.183047 135.016202 
L 989.811403 139.121617 
L 992.439759 142.437124 
L 995.068116 143.570645 
L 997.696472 144.276348 
L 1000.324828 147.183247 
L 1002.953184 148.989783 
L 1005.58154 151.409443 
L 1008.209896 153.391932 
L 1010.838252 154.625627 
L 1013.466608 158.110336 
L 1016.094964 160.279807 
L 1018.72332 162.656192 
L 1021.351677 167.003377 
L 1023.980033 170.1637 
L 1026.608389 171.549233 
L 1031.865101 176.671604 
L 1034.493457 176.671604 
L 1037.121813 176.237973 
L 1039.750169 176.671604 
L 1042.378525 178.019672 
L 1045.006881 175.811754 
L 1047.635238 177.56217 
L 1050.263594 175.811754 
L 1052.89195 176.671604 
L 1058.148662 183.125848 
L 1060.777018 183.125848 
L 1063.405374 187.446063 
L 1066.03373 189.554347 
L 1068.662086 193.520336 
L 1071.290442 194.395274 
L 1073.918799 199.299887 
L 1076.547155 202.784597 
L 1079.175511 206.83671 
L 1081.803867 213.525384 
L 1084.432223 187.446063 
L 1087.060579 188.129206 
L 1089.688935 187.446063 
L 1089.688935 187.446063 
" style="fill:none;stroke:#525886;stroke-linecap:square;stroke-width:2;"/>
   </g>
   <g id="line2d_19">
    <path clip-path="url(#p45f32ee830)" d="M 390.546213 215.521104 
L 393.174569 220.06696 
L 395.802925 222.693932 
L 398.431281 213.525384 
L 401.059637 208.348275 
L 403.687993 208.348275 
L 406.316349 206.83671 
L 408.944705 206.83671 
L 411.573061 202.784597 
L 414.201418 201.568103 
L 416.829774 199.299887 
L 419.45813 199.299887 
L 422.086486 192.675062 
L 424.714842 191.857508 
L 427.343198 192.675062 
L 429.971554 192.675062 
L 432.59991 188.129206 
L 435.228266 191.857508 
L 437.856622 191.857508 
L 440.484979 195.302035 
L 443.113335 197.220918 
L 445.741691 196.243021 
L 448.370047 198.238741 
L 450.998403 202.784597 
L 453.626759 201.568103 
L 456.255115 199.299887 
L 461.511827 197.220918 
L 464.140183 198.238741 
L 466.76854 197.220918 
L 469.396896 200.408211 
L 472.025252 199.299887 
L 474.653608 200.408211 
L 477.281964 204.063502 
L 479.91032 205.411569 
L 482.538676 204.063502 
L 485.167032 200.408211 
L 487.795388 200.408211 
L 490.423744 199.299887 
L 493.052101 199.299887 
L 495.680457 198.238741 
L 498.308813 198.238741 
L 500.937169 199.299887 
L 503.565525 194.395274 
L 506.193881 192.675062 
L 508.822237 191.857508 
L 511.450593 194.395274 
L 514.078949 192.675062 
L 516.707305 192.675062 
L 519.335662 191.857508 
L 521.964018 196.243021 
L 524.592374 192.675062 
L 527.22073 192.675062 
L 532.477442 170.502932 
L 535.105798 169.829021 
L 537.734154 167.604205 
L 540.36251 166.416687 
L 542.990866 166.128438 
L 545.619223 166.128438 
L 548.247579 166.416687 
L 550.875935 171.90799 
L 553.504291 167.604205 
L 556.132647 167.604205 
L 558.761003 164.198943 
L 561.389359 163.415637 
L 564.017715 160.969247 
L 566.646071 162.906779 
L 569.274427 159.830548 
L 571.902784 161.678295 
L 574.53114 160.969247 
L 577.159496 158.95561 
L 579.787852 157.903421 
L 582.416208 155.359008 
L 585.044564 154.989621 
L 587.67292 159.171483 
L 590.301276 159.830548 
L 592.929632 160.737309 
L 595.557988 163.15991 
L 598.186345 161.678295 
L 600.814701 164.198943 
L 603.443057 163.415637 
L 606.071413 162.906779 
L 608.699769 161.439698 
L 611.328125 157.292782 
L 613.956481 152.216412 
L 616.584837 152.380988 
L 619.213193 153.220569 
L 621.841549 152.052916 
L 624.469905 151.729104 
L 627.098262 151.568761 
L 629.726618 155.545775 
L 632.354974 155.173631 
L 634.98333 150.627775 
L 637.611686 150.321842 
L 640.240042 151.890484 
L 642.868398 151.890484 
L 645.496754 151.251137 
L 648.12511 149.134324 
L 650.753466 149.721014 
L 653.381823 150.627775 
L 656.010179 150.474339 
L 658.638535 149.573042 
L 661.266891 147.452798 
L 663.895247 145.125736 
L 666.523603 144.880087 
L 669.151959 146.391651 
L 671.780315 146.133274 
L 674.408671 145.002609 
L 677.037027 144.636834 
L 679.665384 145.125736 
L 682.29374 147.862668 
L 684.922096 147.588674 
L 687.550452 148.419857 
L 690.178808 148.989783 
L 692.807164 149.279707 
L 695.43552 148.989783 
L 700.692232 148.989783 
L 703.320588 150.321842 
L 705.948945 150.321842 
L 708.577301 154.26687 
L 711.205657 156.501186 
L 713.834013 158.529391 
L 716.462369 159.830548 
L 719.090725 160.969247 
L 721.719081 162.408099 
L 726.975793 162.408099 
L 729.604149 161.439698 
L 732.232506 160.279807 
L 734.860862 158.74159 
L 737.489218 158.74159 
L 740.117574 157.494671 
L 742.74593 158.318983 
L 745.374286 158.74159 
L 748.002642 154.80696 
L 750.630998 156.114617 
L 753.259354 159.608918 
L 755.88771 159.171483 
L 758.516067 158.110336 
L 761.144423 157.698208 
L 763.772779 156.696741 
L 766.401135 158.74159 
L 769.029491 156.696741 
L 771.657847 155.359008 
L 774.286203 155.923557 
L 776.914559 158.529391 
L 779.542915 161.919197 
L 782.171271 157.494671 
L 784.799628 160.737309 
L 787.427984 162.656192 
L 790.05634 163.15991 
L 792.684696 163.935097 
L 795.313052 163.935097 
L 797.941408 164.735161 
L 800.569764 174.980571 
L 803.19812 176.671604 
L 805.826476 181.481306 
L 808.454832 183.125848 
L 811.083189 182.565528 
L 813.711545 179.938555 
L 816.339901 176.671604 
L 818.968257 177.112911 
L 821.596613 173.783549 
L 824.224969 171.195565 
L 826.853325 171.549233 
L 829.481681 171.549233 
L 832.110037 173.783549 
L 834.738393 175.811754 
L 837.36675 173.783549 
L 839.995106 175.392699 
L 842.623462 175.392699 
L 845.251818 174.980571 
L 853.136886 174.980571 
L 855.765242 177.112911 
L 858.393598 177.56217 
L 861.021954 178.485726 
L 863.650311 180.956377 
L 866.278667 181.481306 
L 868.907023 182.565528 
L 871.535379 184.28574 
L 874.163735 186.781138 
L 876.792091 191.857508 
L 879.420447 192.675062 
L 884.677159 191.065912 
L 887.305515 189.554347 
L 889.933872 190.298676 
L 895.190584 190.298676 
L 897.81894 194.395274 
L 900.447296 195.302035 
L 903.075652 194.395274 
L 905.704008 194.395274 
L 910.96072 191.065912 
L 913.589076 191.065912 
L 916.217433 188.129206 
L 918.845789 184.28574 
L 921.474145 186.781138 
L 924.102501 184.886568 
L 926.730857 184.886568 
L 931.987569 178.019672 
L 934.615925 177.112911 
L 937.244281 178.960658 
L 939.872637 178.485726 
L 942.500994 180.442273 
L 945.12935 183.69905 
L 947.757706 190.298676 
L 953.014418 204.063502 
L 955.642774 205.411569 
L 958.27113 204.063502 
L 960.899486 205.411569 
L 963.527842 205.411569 
L 966.156198 204.063502 
L 968.784555 205.411569 
L 971.412911 204.063502 
L 974.041267 206.83671 
L 976.669623 211.677637 
L 979.297979 213.525384 
L 981.926335 213.525384 
L 984.554691 217.690574 
L 987.183047 215.521104 
L 989.811403 215.521104 
L 992.439759 208.348275 
L 997.696472 208.348275 
L 1000.324828 211.677637 
L 1002.953184 211.677637 
L 1005.58154 213.525384 
L 1008.209896 217.690574 
L 1010.838252 225.630638 
L 1016.094964 225.630638 
L 1018.72332 222.693932 
L 1021.351677 220.06696 
L 1023.980033 220.06696 
L 1026.608389 217.690574 
L 1029.236745 220.06696 
L 1037.121813 220.06696 
L 1037.121813 220.06696 
" style="fill:none;stroke:#937252;stroke-linecap:square;stroke-width:2;"/>
   </g>
   <g id="line2d_20">
    <path clip-path="url(#p45f32ee830)" d="M 148.737451 220.06696 
L 151.365808 222.693932 
L 153.994164 225.630638 
L 156.62252 225.630638 
L 159.250876 222.693932 
L 161.879232 220.06696 
L 175.021012 220.06696 
L 177.649369 225.630638 
L 185.534437 225.630638 
L 188.162793 217.690574 
L 196.047861 217.690574 
L 198.676217 213.525384 
L 203.93293 213.525384 
L 206.561286 220.06696 
L 211.817998 220.06696 
L 214.446354 198.238741 
L 217.07471 194.395274 
L 219.703066 189.554347 
L 222.331422 186.133487 
L 224.959778 185.502234 
L 227.588134 184.28574 
L 230.216491 184.28574 
L 232.844847 194.395274 
L 235.473203 186.133487 
L 238.101559 184.886568 
L 240.729915 185.502234 
L 243.358271 168.5335 
L 245.986627 156.893842 
L 248.614983 155.545775 
L 251.243339 154.80696 
L 253.871695 144.758164 
L 256.500052 142.548185 
L 259.128408 142.884368 
L 261.756764 136.807046 
L 264.38512 137.433765 
L 267.013476 136.5432 
L 269.641832 133.115611 
L 272.270188 128.979765 
L 274.898544 120.47077 
L 277.5269 115.156288 
L 280.155256 115.530105 
L 282.783613 116.529103 
L 285.411969 113.366913 
L 288.040325 111.600699 
L 290.668681 114.067329 
L 293.297037 119.702144 
L 295.925393 120.015773 
L 298.553749 113.263527 
L 301.182105 112.45152 
L 303.810461 114.787992 
L 306.438817 117.48819 
L 309.067174 116.101555 
L 311.69553 114.138465 
L 314.323886 115.681216 
L 316.952242 124.769897 
L 319.580598 124.444677 
L 322.208954 124.283644 
L 324.83731 122.082982 
L 327.465666 124.498587 
L 330.094022 120.287774 
L 332.722378 119.304618 
L 335.350735 119.173505 
L 337.979091 109.533315 
L 340.607447 104.076468 
L 343.235803 101.013198 
L 345.864159 86.322765 
L 348.492515 83.60491 
L 351.120871 81.440674 
L 353.749227 77.027932 
L 356.377583 74.081401 
L 361.634296 67.364586 
L 364.262652 67.430157 
L 366.891008 64.259284 
L 369.519364 63.064595 
L 372.14772 63.28602 
L 374.776076 63.239727 
L 377.404432 64.584198 
L 380.032788 66.270265 
L 382.661144 69.410834 
L 385.2895 74.47746 
L 387.917857 72.203564 
L 390.546213 71.101867 
L 393.174569 72.018726 
L 395.802925 66.353968 
L 398.431281 64.167909 
L 401.059637 61.732244 
L 403.687993 60.372493 
L 406.316349 57.253233 
L 408.944705 55.020788 
L 411.573061 52.095912 
L 414.201418 52.321741 
L 416.829774 52.743174 
L 419.45813 52.333684 
L 422.086486 50.014103 
L 424.714842 49.900079 
L 427.343198 49.978754 
L 429.971554 49.142449 
L 432.59991 46.969695 
L 437.856622 43.915793 
L 440.484979 42.685302 
L 443.113335 43.282569 
L 445.741691 42.519552 
L 448.370047 42.137695 
L 450.998403 42.582084 
L 453.626759 41.95386 
L 456.255115 42.316899 
L 461.511827 41.677703 
L 464.140183 42.354896 
L 466.76854 39.479196 
L 469.396896 38.122213 
L 472.025252 36.350824 
L 479.91032 32.228023 
L 482.538676 31.944311 
L 485.167032 34.317138 
L 490.423744 38.371725 
L 493.052101 39.694123 
L 495.680457 42.90121 
L 498.308813 45.385844 
L 500.937169 45.43788 
L 503.565525 44.375979 
L 506.193881 43.459763 
L 508.822237 42.12381 
L 511.450593 41.414206 
L 514.078949 40.020028 
L 516.707305 39.525607 
L 519.335662 38.288277 
L 521.964018 36.812842 
L 524.592374 35.775477 
L 527.22073 36.158083 
L 532.477442 36.551409 
L 537.734154 35.783164 
L 540.36251 36.872205 
L 542.990866 37.642151 
L 545.619223 37.523154 
L 548.247579 35.214611 
L 550.875935 35.282338 
L 553.504291 35.80624 
L 556.132647 36.856147 
L 558.761003 36.973609 
L 564.017715 36.269158 
L 566.646071 39.070606 
L 569.274427 39.109232 
L 571.902784 39.290873 
L 574.53114 40.502146 
L 577.159496 40.771151 
L 579.787852 40.640022 
L 582.416208 39.163761 
L 585.044564 36.897919 
L 587.67292 36.178384 
L 590.301276 35.042363 
L 595.557988 32.200038 
L 598.186345 31.639038 
L 603.443057 34.64404 
L 606.071413 35.880226 
L 608.699769 35.77394 
L 613.956481 35.285352 
L 616.584837 35.542913 
L 619.213193 35.282338 
L 621.841549 34.531183 
L 624.469905 33.611003 
L 627.098262 34.231743 
L 629.726618 34.984218 
L 632.354974 36.750423 
L 634.98333 37.518208 
L 637.611686 38.029496 
L 642.868398 41.122968 
L 645.496754 42.070329 
L 648.12511 43.232765 
L 650.753466 45.297857 
L 653.381823 46.847173 
L 656.010179 48.067621 
L 658.638535 49.873008 
L 661.266891 50.914516 
L 663.895247 52.858803 
L 666.523603 53.848048 
L 669.151959 54.461651 
L 671.780315 55.460372 
L 674.408671 55.928534 
L 677.037027 55.777215 
L 679.665384 56.258412 
L 682.29374 55.987245 
L 684.922096 56.606887 
L 687.550452 56.514896 
L 690.178808 57.227782 
L 692.807164 57.380881 
L 695.43552 57.050346 
L 698.063876 57.285994 
L 703.320588 58.860928 
L 705.948945 58.997101 
L 708.577301 58.915308 
L 713.834013 60.725395 
L 719.090725 60.956435 
L 721.719081 61.334894 
L 724.347437 63.546859 
L 729.604149 63.905277 
L 732.232506 64.048188 
L 734.860862 64.814677 
L 737.489218 65.097082 
L 740.117574 65.042333 
L 742.74593 64.511087 
L 745.374286 65.559752 
L 748.002642 66.750119 
L 750.630998 68.400833 
L 753.259354 69.505795 
L 755.88771 70.358656 
L 758.516067 70.793152 
L 761.144423 72.058219 
L 763.772779 74.088546 
L 766.401135 74.608457 
L 769.029491 75.349028 
L 771.657847 76.322415 
L 774.286203 76.589587 
L 776.914559 77.084278 
L 779.542915 77.986861 
L 782.171271 78.450708 
L 784.799628 79.149936 
L 787.427984 79.184979 
L 790.05634 78.297951 
L 792.684696 78.553068 
L 795.313052 78.63869 
L 797.941408 80.050213 
L 800.569764 79.654011 
L 808.454832 83.035752 
L 811.083189 82.720589 
L 813.711545 83.220596 
L 816.339901 83.117736 
L 818.968257 85.700267 
L 821.596613 87.665645 
L 824.224969 91.107891 
L 826.853325 95.963975 
L 829.481681 101.652545 
L 832.110037 106.947834 
L 834.738393 115.681216 
L 837.36675 120.562775 
L 839.995106 126.230365 
L 842.623462 129.174303 
L 845.251818 126.815678 
L 847.880174 127.536688 
L 850.50853 127.294027 
L 853.136886 127.415062 
L 855.765242 128.786733 
L 858.393598 132.587506 
L 861.021954 133.422485 
L 863.650311 137.073713 
L 866.278667 135.347544 
L 868.907023 134.852167 
L 871.535379 135.514882 
L 874.163735 137.253089 
L 876.792091 137.799093 
L 879.420447 137.799093 
L 882.048803 139.414378 
L 884.677159 142.884368 
L 887.305515 142.326555 
L 889.933872 144.157335 
L 892.562228 146.262128 
L 895.190584 146.91658 
L 897.81894 150.321842 
L 900.447296 151.409443 
L 903.075652 153.050376 
L 905.704008 160.507508 
L 910.96072 167.301981 
L 913.589076 175.811754 
L 916.217433 182.017524 
L 918.845789 187.446063 
L 921.474145 190.298676 
L 924.102501 187.446063 
L 926.730857 189.554347 
L 929.359213 186.781138 
L 931.987569 179.938555 
L 934.615925 179.444813 
L 937.244281 174.980571 
L 939.872637 174.575145 
L 942.500994 171.90799 
L 945.12935 172.641371 
L 947.757706 166.128438 
L 950.386062 155.545775 
L 953.014418 153.913202 
L 955.642774 155.73395 
L 958.27113 155.923557 
L 960.899486 158.110336 
L 963.527842 158.110336 
L 966.156198 163.935097 
L 968.784555 187.446063 
L 971.412911 195.302035 
L 974.041267 196.243021 
L 976.669623 198.238741 
L 981.926335 198.238741 
L 984.554691 202.784597 
L 989.811403 205.411569 
L 992.439759 209.957425 
L 995.068116 208.348275 
L 997.696472 213.525384 
L 1000.324828 217.690574 
L 1002.953184 211.677637 
L 1005.58154 213.525384 
L 1008.209896 213.525384 
L 1010.838252 211.677637 
L 1013.466608 213.525384 
L 1016.094964 209.957425 
L 1018.72332 204.063502 
L 1021.351677 201.568103 
L 1023.980033 200.408211 
L 1029.236745 202.784597 
L 1031.865101 201.568103 
L 1034.493457 201.568103 
L 1037.121813 205.411569 
L 1039.750169 211.677637 
L 1042.378525 211.677637 
L 1045.006881 209.957425 
L 1047.635238 209.957425 
L 1052.89195 213.525384 
L 1055.520306 213.525384 
L 1058.148662 211.677637 
L 1060.777018 213.525384 
L 1071.290442 213.525384 
L 1073.918799 211.677637 
L 1076.547155 215.521104 
L 1079.175511 211.677637 
L 1081.803867 211.677637 
L 1084.432223 209.957425 
L 1087.060579 209.957425 
L 1089.688935 211.677637 
L 1092.317291 217.690574 
L 1094.945647 215.521104 
L 1097.574003 211.677637 
L 1100.20236 213.525384 
L 1102.830716 211.677637 
L 1102.830716 211.677637 
" style="fill:none;stroke:#d18cad;stroke-linecap:square;stroke-width:2;"/>
   </g>
   <g id="line2d_21">
    <path clip-path="url(#p45f32ee830)" d="M 322.208954 225.630638 
L 324.83731 228.96 
L 343.235803 228.96 
L 345.864159 225.630638 
L 348.492515 222.693932 
L 361.634296 222.693932 
L 364.262652 225.630638 
L 366.891008 228.96 
L 372.14772 228.96 
L 374.776076 222.693932 
L 377.404432 222.693932 
L 380.032788 220.06696 
L 387.917857 220.06696 
L 390.546213 217.690574 
L 393.174569 215.521104 
L 395.802925 209.957425 
L 401.059637 209.957425 
L 403.687993 204.063502 
L 406.316349 200.408211 
L 408.944705 195.302035 
L 411.573061 195.302035 
L 414.201418 194.395274 
L 416.829774 177.56217 
L 419.45813 166.416687 
L 422.086486 160.737309 
L 424.714842 159.389241 
L 427.343198 158.318983 
L 429.971554 154.80696 
L 432.59991 153.220569 
L 435.228266 154.445603 
L 437.856622 159.171483 
L 440.484979 158.95561 
L 443.113335 159.171483 
L 445.741691 161.678295 
L 448.370047 164.735161 
L 450.998403 167.003377 
L 453.626759 173.39698 
L 456.255115 176.237973 
L 458.883471 187.446063 
L 461.511827 191.857508 
L 464.140183 190.298676 
L 466.76854 191.065912 
L 469.396896 184.28574 
L 472.025252 181.481306 
L 474.653608 170.1637 
L 477.281964 169.829021 
L 479.91032 169.172847 
L 482.538676 166.416687 
L 485.167032 165.007657 
L 487.795388 162.656192 
L 490.423744 161.203363 
L 493.052101 164.46561 
L 495.680457 159.608918 
L 498.308813 160.279807 
L 500.937169 162.408099 
L 503.565525 161.439698 
L 506.193881 159.608918 
L 508.822237 160.969247 
L 511.450593 161.919197 
L 514.078949 164.46561 
L 516.707305 164.46561 
L 519.335662 164.198943 
L 521.964018 160.969247 
L 524.592374 167.910138 
L 527.22073 166.128438 
L 529.849086 166.416687 
L 532.477442 165.007657 
L 535.105798 164.735161 
L 537.734154 165.007657 
L 540.36251 171.195565 
L 542.990866 172.641371 
L 548.247579 171.90799 
L 550.875935 170.846843 
L 553.504291 168.5335 
L 556.132647 165.283165 
L 558.761003 161.678295 
L 561.389359 153.391932 
L 564.017715 152.216412 
L 566.646071 150.170272 
L 569.274427 150.937508 
L 571.902784 150.78216 
L 574.53114 151.729104 
L 577.159496 153.050376 
L 579.787852 156.501186 
L 582.416208 155.73395 
L 585.044564 157.292782 
L 587.67292 156.307152 
L 590.301276 156.696741 
L 592.929632 156.501186 
L 595.557988 153.220569 
L 598.186345 152.881337 
L 600.814701 152.052916 
L 603.443057 150.170272 
L 606.071413 147.862668 
L 608.699769 147.588674 
L 611.328125 148.000802 
L 613.956481 150.627775 
L 616.584837 150.937508 
L 619.213193 153.050376 
L 621.841549 153.913202 
L 624.469905 159.171483 
L 627.098262 159.171483 
L 629.726618 157.092514 
L 632.354974 158.318983 
L 634.98333 160.507508 
L 637.611686 159.608918 
L 640.240042 157.092514 
L 642.868398 157.903421 
L 645.496754 157.903421 
L 648.12511 159.608918 
L 650.753466 160.969247 
L 653.381823 159.171483 
L 656.010179 160.507508 
L 658.638535 166.416687 
L 661.266891 163.935097 
L 663.895247 166.128438 
L 666.523603 164.46561 
L 669.151959 160.737309 
L 671.780315 163.15991 
L 674.408671 163.935097 
L 677.037027 161.919197 
L 679.665384 163.674014 
L 682.29374 162.906779 
L 684.922096 165.561751 
L 687.550452 167.301981 
L 690.178808 167.301981 
L 692.807164 168.5335 
L 695.43552 170.846843 
L 698.063876 172.641371 
L 700.692232 170.846843 
L 703.320588 171.549233 
L 705.948945 171.549233 
L 708.577301 172.641371 
L 711.205657 171.195565 
L 713.834013 173.783549 
L 716.462369 173.783549 
L 719.090725 175.811754 
L 721.719081 175.392699 
L 724.347437 177.112911 
L 726.975793 175.392699 
L 729.604149 177.112911 
L 732.232506 174.980571 
L 737.489218 176.671604 
L 740.117574 173.016313 
L 742.74593 172.641371 
L 745.374286 174.575145 
L 748.002642 174.176205 
L 750.630998 174.575145 
L 753.259354 174.176205 
L 755.88771 174.575145 
L 758.516067 179.444813 
L 761.144423 179.938555 
L 763.772779 178.019672 
L 766.401135 178.960658 
L 769.029491 178.960658 
L 771.657847 172.271984 
L 774.286203 171.90799 
L 776.914559 171.90799 
L 779.542915 172.641371 
L 782.171271 172.641371 
L 784.799628 171.195565 
L 787.427984 169.172847 
L 790.05634 171.90799 
L 792.684696 172.641371 
L 797.941408 170.502932 
L 800.569764 172.641371 
L 803.19812 170.846843 
L 805.826476 170.846843 
L 808.454832 172.271984 
L 811.083189 170.846843 
L 813.711545 171.549233 
L 816.339901 170.846843 
L 818.968257 169.172847 
L 824.224969 178.485726 
L 826.853325 179.938555 
L 829.481681 180.442273 
L 832.110037 179.444813 
L 834.738393 180.442273 
L 837.36675 180.442273 
L 839.995106 178.960658 
L 842.623462 175.392699 
L 845.251818 175.392699 
L 847.880174 176.237973 
L 850.50853 174.980571 
L 853.136886 177.56217 
L 855.765242 182.017524 
L 858.393598 182.565528 
L 861.021954 187.446063 
L 863.650311 191.065912 
L 866.278667 187.446063 
L 868.907023 190.298676 
L 871.535379 191.065912 
L 874.163735 186.781138 
L 876.792091 188.129206 
L 879.420447 186.781138 
L 882.048803 186.781138 
L 884.677159 191.857508 
L 887.305515 192.675062 
L 889.933872 195.302035 
L 892.562228 199.299887 
L 895.190584 200.408211 
L 897.81894 206.83671 
L 903.075652 206.83671 
L 905.704008 208.348275 
L 908.332364 205.411569 
L 910.96072 211.677637 
L 913.589076 215.521104 
L 916.217433 217.690574 
L 918.845789 222.693932 
L 921.474145 222.693932 
L 924.102501 220.06696 
L 926.730857 220.06696 
L 929.359213 205.411569 
L 931.987569 202.784597 
L 934.615925 201.568103 
L 939.872637 201.568103 
L 942.500994 202.784597 
L 945.12935 199.299887 
L 947.757706 209.957425 
L 950.386062 211.677637 
L 953.014418 209.957425 
L 958.27113 209.957425 
L 960.899486 208.348275 
L 963.527842 217.690574 
L 966.156198 206.83671 
L 968.784555 208.348275 
L 971.412911 211.677637 
L 976.669623 211.677637 
L 979.297979 213.525384 
L 981.926335 211.677637 
L 984.554691 217.690574 
L 997.696472 217.690574 
L 1000.324828 220.06696 
L 1002.953184 222.693932 
L 1018.72332 222.693932 
L 1021.351677 225.630638 
L 1037.121813 225.630638 
L 1039.750169 222.693932 
L 1039.750169 222.693932 
" style="fill:none;stroke:#a4a86f;stroke-linecap:square;stroke-width:2;"/>
   </g>
   <g id="line2d_22">
    <path clip-path="url(#p45f32ee830)" d="M 335.350735 225.630638 
L 337.979091 228.96 
L 340.607447 228.96 
L 343.235803 222.693932 
L 345.864159 222.693932 
L 348.492515 215.521104 
L 359.005939 215.521104 
L 361.634296 217.690574 
L 364.262652 217.690574 
L 366.891008 225.630638 
L 369.519364 217.690574 
L 372.14772 213.525384 
L 377.404432 213.525384 
L 380.032788 211.677637 
L 382.661144 211.677637 
L 385.2895 209.957425 
L 387.917857 209.957425 
L 390.546213 211.677637 
L 393.174569 208.348275 
L 395.802925 208.348275 
L 398.431281 209.957425 
L 401.059637 206.83671 
L 403.687993 197.220918 
L 406.316349 196.243021 
L 408.944705 197.220918 
L 411.573061 199.299887 
L 414.201418 198.238741 
L 416.829774 193.520336 
L 422.086486 195.302035 
L 424.714842 195.302035 
L 427.343198 193.520336 
L 429.971554 191.065912 
L 432.59991 191.065912 
L 435.228266 193.520336 
L 437.856622 191.065912 
L 440.484979 194.395274 
L 443.113335 193.520336 
L 445.741691 194.395274 
L 448.370047 192.675062 
L 450.998403 192.675062 
L 453.626759 191.857508 
L 456.255115 191.857508 
L 458.883471 190.298676 
L 464.140183 188.831596 
L 466.76854 191.857508 
L 469.396896 191.857508 
L 472.025252 192.675062 
L 474.653608 194.395274 
L 477.281964 198.238741 
L 479.91032 201.568103 
L 482.538676 202.784597 
L 485.167032 202.784597 
L 487.795388 201.568103 
L 490.423744 197.220918 
L 493.052101 199.299887 
L 495.680457 199.299887 
L 498.308813 202.784597 
L 500.937169 202.784597 
L 503.565525 200.408211 
L 506.193881 197.220918 
L 508.822237 205.411569 
L 511.450593 198.238741 
L 514.078949 195.302035 
L 516.707305 192.675062 
L 521.964018 192.675062 
L 524.592374 194.395274 
L 527.22073 192.675062 
L 529.849086 195.302035 
L 532.477442 197.220918 
L 535.105798 199.299887 
L 537.734154 194.395274 
L 540.36251 196.243021 
L 542.990866 195.302035 
L 545.619223 195.302035 
L 550.875935 197.220918 
L 553.504291 193.520336 
L 556.132647 197.220918 
L 558.761003 196.243021 
L 561.389359 197.220918 
L 564.017715 191.065912 
L 566.646071 188.831596 
L 571.902784 190.298676 
L 574.53114 189.554347 
L 577.159496 186.781138 
L 579.787852 184.886568 
L 582.416208 187.446063 
L 585.044564 188.831596 
L 590.301276 179.938555 
L 592.929632 178.960658 
L 595.557988 179.444813 
L 598.186345 181.481306 
L 600.814701 183.125848 
L 603.443057 180.956377 
L 606.071413 183.69905 
L 608.699769 189.554347 
L 611.328125 191.065912 
L 613.956481 188.129206 
L 616.584837 188.129206 
L 619.213193 186.133487 
L 621.841549 188.831596 
L 624.469905 190.298676 
L 627.098262 184.886568 
L 629.726618 184.886568 
L 632.354974 182.017524 
L 634.98333 180.956377 
L 637.611686 179.444813 
L 640.240042 178.485726 
L 642.868398 175.811754 
L 645.496754 177.112911 
L 648.12511 177.56217 
L 650.753466 180.442273 
L 653.381823 180.442273 
L 656.010179 183.125848 
L 658.638535 184.28574 
L 661.266891 186.781138 
L 663.895247 187.446063 
L 666.523603 183.69905 
L 669.151959 184.28574 
L 671.780315 180.442273 
L 674.408671 179.938555 
L 677.037027 178.960658 
L 679.665384 175.811754 
L 682.29374 173.39698 
L 684.922096 175.392699 
L 687.550452 177.112911 
L 690.178808 174.575145 
L 695.43552 173.783549 
L 698.063876 175.811754 
L 700.692232 177.56217 
L 703.320588 175.392699 
L 705.948945 172.641371 
L 708.577301 176.671604 
L 711.205657 178.485726 
L 713.834013 179.444813 
L 716.462369 178.960658 
L 719.090725 182.017524 
L 721.719081 184.28574 
L 724.347437 186.781138 
L 726.975793 186.133487 
L 729.604149 183.69905 
L 732.232506 184.28574 
L 734.860862 186.133487 
L 737.489218 187.446063 
L 740.117574 190.298676 
L 742.74593 192.675062 
L 745.374286 195.302035 
L 748.002642 200.408211 
L 750.630998 196.243021 
L 753.259354 194.395274 
L 755.88771 195.302035 
L 758.516067 195.302035 
L 761.144423 198.238741 
L 763.772779 200.408211 
L 766.401135 199.299887 
L 769.029491 206.83671 
L 771.657847 213.525384 
L 774.286203 211.677637 
L 776.914559 208.348275 
L 779.542915 208.348275 
L 782.171271 213.525384 
L 784.799628 209.957425 
L 787.427984 211.677637 
L 790.05634 209.957425 
L 792.684696 209.957425 
L 795.313052 213.525384 
L 797.941408 211.677637 
L 800.569764 202.784597 
L 803.19812 202.784597 
L 805.826476 200.408211 
L 808.454832 199.299887 
L 811.083189 195.302035 
L 813.711545 194.395274 
L 816.339901 192.675062 
L 818.968257 195.302035 
L 824.224969 197.220918 
L 826.853325 197.220918 
L 829.481681 201.568103 
L 834.738393 204.063502 
L 837.36675 205.411569 
L 839.995106 205.411569 
L 842.623462 206.83671 
L 845.251818 209.957425 
L 847.880174 209.957425 
L 850.50853 206.83671 
L 853.136886 202.784597 
L 855.765242 204.063502 
L 858.393598 204.063502 
L 861.021954 201.568103 
L 863.650311 200.408211 
L 866.278667 197.220918 
L 868.907023 198.238741 
L 871.535379 201.568103 
L 874.163735 200.408211 
L 876.792091 202.784597 
L 879.420447 200.408211 
L 882.048803 198.238741 
L 884.677159 196.243021 
L 887.305515 191.857508 
L 889.933872 192.675062 
L 892.562228 191.857508 
L 895.190584 189.554347 
L 897.81894 192.675062 
L 900.447296 195.302035 
L 903.075652 195.302035 
L 905.704008 200.408211 
L 908.332364 193.520336 
L 910.96072 194.395274 
L 913.589076 197.220918 
L 916.217433 197.220918 
L 918.845789 198.238741 
L 921.474145 205.411569 
L 924.102501 206.83671 
L 926.730857 220.06696 
L 929.359213 225.630638 
L 937.244281 225.630638 
L 939.872637 222.693932 
L 960.899486 222.693932 
L 963.527842 225.630638 
L 966.156198 225.630638 
L 968.784555 222.693932 
L 974.041267 222.693932 
L 976.669623 225.630638 
L 989.811403 225.630638 
L 992.439759 222.693932 
L 997.696472 222.693932 
L 1000.324828 220.06696 
L 1000.324828 220.06696 
" style="fill:none;stroke:#d3d3d3;stroke-linecap:square;stroke-width:2;"/>
   </g>
   <g id="patch_3">
    <path d="M 53.328125 228.96 
L 53.328125 7.2 
" style="fill:none;stroke:#000000;stroke-linecap:square;stroke-linejoin:miter;stroke-width:0.8;"/>
   </g>
   <g id="patch_4">
    <path d="M 53.328125 228.96 
L 1169.328125 228.96 
" style="fill:none;stroke:#000000;stroke-linecap:square;stroke-linejoin:miter;stroke-width:0.8;"/>
   </g>
   <g id="legend_1">
    <g id="line2d_23">
     <path d="M 1075.516875 17.67875 
L 1091.516875 17.67875 
" style="fill:none;stroke:#947383;stroke-linecap:square;stroke-width:2;"/>
    </g>
    <g id="line2d_24"/>
    <g id="text_18">
     <!-- Europe -->
     <g transform="translate(1097.916875 20.47875)scale(0.08 -0.08)">
      <defs>
       <path d="M 628 4666 
L 3578 4666 
L 3578 4134 
L 1259 4134 
L 1259 2753 
L 3481 2753 
L 3481 2222 
L 1259 2222 
L 1259 531 
L 3634 531 
L 3634 0 
L 628 0 
L 628 4666 
z
" id="DejaVuSans-45" transform="scale(0.015625)"/>
       <path d="M 1159 525 
L 1159 -1331 
L 581 -1331 
L 581 3500 
L 1159 3500 
L 1159 2969 
Q 1341 3281 1617 3432 
Q 1894 3584 2278 3584 
Q 2916 3584 3314 3078 
Q 3713 2572 3713 1747 
Q 3713 922 3314 415 
Q 2916 -91 2278 -91 
Q 1894 -91 1617 61 
Q 1341 213 1159 525 
z
M 3116 1747 
Q 3116 2381 2855 2742 
Q 2594 3103 2138 3103 
Q 1681 3103 1420 2742 
Q 1159 2381 1159 1747 
Q 1159 1113 1420 752 
Q 1681 391 2138 391 
Q 2594 391 2855 752 
Q 3116 1113 3116 1747 
z
" id="DejaVuSans-70" transform="scale(0.015625)"/>
      </defs>
      <use xlink:href="#DejaVuSans-45"/>
      <use x="63.183594" xlink:href="#DejaVuSans-75"/>
      <use x="126.5625" xlink:href="#DejaVuSans-72"/>
      <use x="165.425781" xlink:href="#DejaVuSans-6f"/>
      <use x="226.607422" xlink:href="#DejaVuSans-70"/>
      <use x="290.083984" xlink:href="#DejaVuSans-65"/>
     </g>
    </g>
    <g id="line2d_25">
     <path d="M 1075.516875 29.42125 
L 1091.516875 29.42125 
" style="fill:none;stroke:#96c6ad;stroke-linecap:square;stroke-width:2;"/>
    </g>
    <g id="line2d_26"/>
    <g id="text_19">
     <!-- Asia -->
     <g transform="translate(1097.916875 32.22125)scale(0.08 -0.08)">
      <defs>
       <path d="M 2188 4044 
L 1331 1722 
L 3047 1722 
L 2188 4044 
z
M 1831 4666 
L 2547 4666 
L 4325 0 
L 3669 0 
L 3244 1197 
L 1141 1197 
L 716 0 
L 50 0 
L 1831 4666 
z
" id="DejaVuSans-41" transform="scale(0.015625)"/>
       <path d="M 2834 3397 
L 2834 2853 
Q 2591 2978 2328 3040 
Q 2066 3103 1784 3103 
Q 1356 3103 1142 2972 
Q 928 2841 928 2578 
Q 928 2378 1081 2264 
Q 1234 2150 1697 2047 
L 1894 2003 
Q 2506 1872 2764 1633 
Q 3022 1394 3022 966 
Q 3022 478 2636 193 
Q 2250 -91 1575 -91 
Q 1294 -91 989 -36 
Q 684 19 347 128 
L 347 722 
Q 666 556 975 473 
Q 1284 391 1588 391 
Q 1994 391 2212 530 
Q 2431 669 2431 922 
Q 2431 1156 2273 1281 
Q 2116 1406 1581 1522 
L 1381 1569 
Q 847 1681 609 1914 
Q 372 2147 372 2553 
Q 372 3047 722 3315 
Q 1072 3584 1716 3584 
Q 2034 3584 2315 3537 
Q 2597 3491 2834 3397 
z
" id="DejaVuSans-73" transform="scale(0.015625)"/>
      </defs>
      <use xlink:href="#DejaVuSans-41"/>
      <use x="68.408203" xlink:href="#DejaVuSans-73"/>
      <use x="120.507812" xlink:href="#DejaVuSans-69"/>
      <use x="148.291016" xlink:href="#DejaVuSans-61"/>
     </g>
    </g>
    <g id="line2d_27">
     <path d="M 1075.516875 41.16375 
L 1091.516875 41.16375 
" style="fill:none;stroke:#525886;stroke-linecap:square;stroke-width:2;"/>
    </g>
    <g id="line2d_28"/>
    <g id="text_20">
     <!-- North America -->
     <g transform="translate(1097.916875 43.96375)scale(0.08 -0.08)">
      <defs>
       <path d="M 628 4666 
L 1478 4666 
L 3547 763 
L 3547 4666 
L 4159 4666 
L 4159 0 
L 3309 0 
L 1241 3903 
L 1241 0 
L 628 0 
L 628 4666 
z
" id="DejaVuSans-4e" transform="scale(0.015625)"/>
       <path d="M 3513 2113 
L 3513 0 
L 2938 0 
L 2938 2094 
Q 2938 2591 2744 2837 
Q 2550 3084 2163 3084 
Q 1697 3084 1428 2787 
Q 1159 2491 1159 1978 
L 1159 0 
L 581 0 
L 581 4863 
L 1159 4863 
L 1159 2956 
Q 1366 3272 1645 3428 
Q 1925 3584 2291 3584 
Q 2894 3584 3203 3211 
Q 3513 2838 3513 2113 
z
" id="DejaVuSans-68" transform="scale(0.015625)"/>
       <path d="M 3328 2828 
Q 3544 3216 3844 3400 
Q 4144 3584 4550 3584 
Q 5097 3584 5394 3201 
Q 5691 2819 5691 2113 
L 5691 0 
L 5113 0 
L 5113 2094 
Q 5113 2597 4934 2840 
Q 4756 3084 4391 3084 
Q 3944 3084 3684 2787 
Q 3425 2491 3425 1978 
L 3425 0 
L 2847 0 
L 2847 2094 
Q 2847 2600 2669 2842 
Q 2491 3084 2119 3084 
Q 1678 3084 1418 2786 
Q 1159 2488 1159 1978 
L 1159 0 
L 581 0 
L 581 3500 
L 1159 3500 
L 1159 2956 
Q 1356 3278 1631 3431 
Q 1906 3584 2284 3584 
Q 2666 3584 2933 3390 
Q 3200 3197 3328 2828 
z
" id="DejaVuSans-6d" transform="scale(0.015625)"/>
       <path d="M 3122 3366 
L 3122 2828 
Q 2878 2963 2633 3030 
Q 2388 3097 2138 3097 
Q 1578 3097 1268 2742 
Q 959 2388 959 1747 
Q 959 1106 1268 751 
Q 1578 397 2138 397 
Q 2388 397 2633 464 
Q 2878 531 3122 666 
L 3122 134 
Q 2881 22 2623 -34 
Q 2366 -91 2075 -91 
Q 1284 -91 818 406 
Q 353 903 353 1747 
Q 353 2603 823 3093 
Q 1294 3584 2113 3584 
Q 2378 3584 2631 3529 
Q 2884 3475 3122 3366 
z
" id="DejaVuSans-63" transform="scale(0.015625)"/>
      </defs>
      <use xlink:href="#DejaVuSans-4e"/>
      <use x="74.804688" xlink:href="#DejaVuSans-6f"/>
      <use x="135.986328" xlink:href="#DejaVuSans-72"/>
      <use x="177.099609" xlink:href="#DejaVuSans-74"/>
      <use x="216.308594" xlink:href="#DejaVuSans-68"/>
      <use x="279.6875" xlink:href="#DejaVuSans-20"/>
      <use x="311.474609" xlink:href="#DejaVuSans-41"/>
      <use x="379.882812" xlink:href="#DejaVuSans-6d"/>
      <use x="477.294922" xlink:href="#DejaVuSans-65"/>
      <use x="538.818359" xlink:href="#DejaVuSans-72"/>
      <use x="579.931641" xlink:href="#DejaVuSans-69"/>
      <use x="607.714844" xlink:href="#DejaVuSans-63"/>
      <use x="662.695312" xlink:href="#DejaVuSans-61"/>
     </g>
    </g>
    <g id="line2d_29">
     <path d="M 1075.516875 52.90625 
L 1091.516875 52.90625 
" style="fill:none;stroke:#937252;stroke-linecap:square;stroke-width:2;"/>
    </g>
    <g id="line2d_30"/>
    <g id="text_21">
     <!-- South America -->
     <g transform="translate(1097.916875 55.70625)scale(0.08 -0.08)">
      <defs>
       <path d="M 3425 4513 
L 3425 3897 
Q 3066 4069 2747 4153 
Q 2428 4238 2131 4238 
Q 1616 4238 1336 4038 
Q 1056 3838 1056 3469 
Q 1056 3159 1242 3001 
Q 1428 2844 1947 2747 
L 2328 2669 
Q 3034 2534 3370 2195 
Q 3706 1856 3706 1288 
Q 3706 609 3251 259 
Q 2797 -91 1919 -91 
Q 1588 -91 1214 -16 
Q 841 59 441 206 
L 441 856 
Q 825 641 1194 531 
Q 1563 422 1919 422 
Q 2459 422 2753 634 
Q 3047 847 3047 1241 
Q 3047 1584 2836 1778 
Q 2625 1972 2144 2069 
L 1759 2144 
Q 1053 2284 737 2584 
Q 422 2884 422 3419 
Q 422 4038 858 4394 
Q 1294 4750 2059 4750 
Q 2388 4750 2728 4690 
Q 3069 4631 3425 4513 
z
" id="DejaVuSans-53" transform="scale(0.015625)"/>
      </defs>
      <use xlink:href="#DejaVuSans-53"/>
      <use x="63.476562" xlink:href="#DejaVuSans-6f"/>
      <use x="124.658203" xlink:href="#DejaVuSans-75"/>
      <use x="188.037109" xlink:href="#DejaVuSans-74"/>
      <use x="227.246094" xlink:href="#DejaVuSans-68"/>
      <use x="290.625" xlink:href="#DejaVuSans-20"/>
      <use x="322.412109" xlink:href="#DejaVuSans-41"/>
      <use x="390.820312" xlink:href="#DejaVuSans-6d"/>
      <use x="488.232422" xlink:href="#DejaVuSans-65"/>
      <use x="549.755859" xlink:href="#DejaVuSans-72"/>
      <use x="590.869141" xlink:href="#DejaVuSans-69"/>
      <use x="618.652344" xlink:href="#DejaVuSans-63"/>
      <use x="673.632812" xlink:href="#DejaVuSans-61"/>
     </g>
    </g>
    <g id="line2d_31">
     <path d="M 1075.516875 64.64875 
L 1091.516875 64.64875 
" style="fill:none;stroke:#d18cad;stroke-linecap:square;stroke-width:2;"/>
    </g>
    <g id="line2d_32"/>
    <g id="text_22">
     <!-- United Kingdom -->
     <g transform="translate(1097.916875 67.44875)scale(0.08 -0.08)">
      <defs>
       <path d="M 556 4666 
L 1191 4666 
L 1191 1831 
Q 1191 1081 1462 751 
Q 1734 422 2344 422 
Q 2950 422 3222 751 
Q 3494 1081 3494 1831 
L 3494 4666 
L 4128 4666 
L 4128 1753 
Q 4128 841 3676 375 
Q 3225 -91 2344 -91 
Q 1459 -91 1007 375 
Q 556 841 556 1753 
L 556 4666 
z
" id="DejaVuSans-55" transform="scale(0.015625)"/>
       <path d="M 628 4666 
L 1259 4666 
L 1259 2694 
L 3353 4666 
L 4166 4666 
L 1850 2491 
L 4331 0 
L 3500 0 
L 1259 2247 
L 1259 0 
L 628 0 
L 628 4666 
z
" id="DejaVuSans-4b" transform="scale(0.015625)"/>
      </defs>
      <use xlink:href="#DejaVuSans-55"/>
      <use x="73.193359" xlink:href="#DejaVuSans-6e"/>
      <use x="136.572266" xlink:href="#DejaVuSans-69"/>
      <use x="164.355469" xlink:href="#DejaVuSans-74"/>
      <use x="203.564453" xlink:href="#DejaVuSans-65"/>
      <use x="265.087891" xlink:href="#DejaVuSans-64"/>
      <use x="328.564453" xlink:href="#DejaVuSans-20"/>
      <use x="360.351562" xlink:href="#DejaVuSans-4b"/>
      <use x="425.927734" xlink:href="#DejaVuSans-69"/>
      <use x="453.710938" xlink:href="#DejaVuSans-6e"/>
      <use x="517.089844" xlink:href="#DejaVuSans-67"/>
      <use x="580.566406" xlink:href="#DejaVuSans-64"/>
      <use x="644.042969" xlink:href="#DejaVuSans-6f"/>
      <use x="705.224609" xlink:href="#DejaVuSans-6d"/>
     </g>
    </g>
    <g id="line2d_33">
     <path d="M 1075.516875 76.39125 
L 1091.516875 76.39125 
" style="fill:none;stroke:#a4a86f;stroke-linecap:square;stroke-width:2;"/>
    </g>
    <g id="line2d_34"/>
    <g id="text_23">
     <!-- Africa -->
     <g transform="translate(1097.916875 79.19125)scale(0.08 -0.08)">
      <defs>
       <path d="M 2375 4863 
L 2375 4384 
L 1825 4384 
Q 1516 4384 1395 4259 
Q 1275 4134 1275 3809 
L 1275 3500 
L 2222 3500 
L 2222 3053 
L 1275 3053 
L 1275 0 
L 697 0 
L 697 3053 
L 147 3053 
L 147 3500 
L 697 3500 
L 697 3744 
Q 697 4328 969 4595 
Q 1241 4863 1831 4863 
L 2375 4863 
z
" id="DejaVuSans-66" transform="scale(0.015625)"/>
      </defs>
      <use xlink:href="#DejaVuSans-41"/>
      <use x="64.783203" xlink:href="#DejaVuSans-66"/>
      <use x="99.988281" xlink:href="#DejaVuSans-72"/>
      <use x="141.101562" xlink:href="#DejaVuSans-69"/>
      <use x="168.884766" xlink:href="#DejaVuSans-63"/>
      <use x="223.865234" xlink:href="#DejaVuSans-61"/>
     </g>
    </g>
    <g id="line2d_35">
     <path d="M 1075.516875 88.13375 
L 1091.516875 88.13375 
" style="fill:none;stroke:#d3d3d3;stroke-linecap:square;stroke-width:2;"/>
    </g>
    <g id="line2d_36"/>
    <g id="text_24">
     <!-- Oceania -->
     <g transform="translate(1097.916875 90.93375)scale(0.08 -0.08)">
      <defs>
       <path d="M 2522 4238 
Q 1834 4238 1429 3725 
Q 1025 3213 1025 2328 
Q 1025 1447 1429 934 
Q 1834 422 2522 422 
Q 3209 422 3611 934 
Q 4013 1447 4013 2328 
Q 4013 3213 3611 3725 
Q 3209 4238 2522 4238 
z
M 2522 4750 
Q 3503 4750 4090 4092 
Q 4678 3434 4678 2328 
Q 4678 1225 4090 567 
Q 3503 -91 2522 -91 
Q 1538 -91 948 565 
Q 359 1222 359 2328 
Q 359 3434 948 4092 
Q 1538 4750 2522 4750 
z
" id="DejaVuSans-4f" transform="scale(0.015625)"/>
      </defs>
      <use xlink:href="#DejaVuSans-4f"/>
      <use x="78.710938" xlink:href="#DejaVuSans-63"/>
      <use x="133.691406" xlink:href="#DejaVuSans-65"/>
      <use x="195.214844" xlink:href="#DejaVuSans-61"/>
      <use x="256.494141" xlink:href="#DejaVuSans-6e"/>
      <use x="319.873047" xlink:href="#DejaVuSans-69"/>
      <use x="347.65625" xlink:href="#DejaVuSans-61"/>
     </g>
    </g>
   </g>
  </g>
 </g>
 <defs>
  <clipPath id="p45f32ee830">
   <rect height="221.76" width="1116" x="53.328125" y="7.2"/>
  </clipPath>
 </defs>
</svg>
