<?xml version="1.0" encoding="utf-8" standalone="no"?>
<!DOCTYPE svg PUBLIC "-//W3C//DTD SVG 1.1//EN"
  "http://www.w3.org/Graphics/SVG/1.1/DTD/svg11.dtd">
<svg height="298.620937pt" version="1.1" viewBox="0 0 1176.528125 298.620937" width="1176.528125pt" xmlns="http://www.w3.org/2000/svg" xmlns:xlink="http://www.w3.org/1999/xlink">
 <metadata>
  <rdf:RDF xmlns:cc="http://creativecommons.org/ns#" xmlns:dc="http://purl.org/dc/elements/1.1/" xmlns:rdf="http://www.w3.org/1999/02/22-rdf-syntax-ns#">
   <cc:Work>
    <dc:type rdf:resource="http://purl.org/dc/dcmitype/StillImage"/>
    <dc:date>2021-10-09T12:24:43.928609</dc:date>
    <dc:format>image/svg+xml</dc:format>
    <dc:creator>
     <cc:Agent>
      <dc:title>Matplotlib v3.4.2, https://matplotlib.org/</dc:title>
     </cc:Agent>
    </dc:creator>
   </cc:Work>
  </rdf:RDF>
 </metadata>
 <defs>
  <style type="text/css">*{stroke-linecap:butt;stroke-linejoin:round;}</style>
 </defs>
 <g id="figure_1">
  <g id="patch_1">
   <path d="M 0 298.620937 
L 1176.528125 298.620937 
L 1176.528125 0 
L 0 0 
z
" style="fill:#ffffff;"/>
  </g>
  <g id="axes_1">
   <g id="patch_2">
    <path d="M 53.328125 228.96 
L 1169.328125 228.96 
L 1169.328125 7.2 
L 53.328125 7.2 
z
" style="fill:#ffffff;"/>
   </g>
   <g id="matplotlib.axis_1">
    <g id="xtick_1">
     <g id="line2d_1">
      <defs>
       <path d="M 0 0 
L 0 3.5 
" id="m11f80774cc" style="stroke:#000000;stroke-width:0.8;"/>
      </defs>
      <g>
       <use style="stroke:#000000;stroke-width:0.8;" x="64.527653" xlink:href="#m11f80774cc" y="228.96"/>
      </g>
     </g>
     <g id="text_1">
      <!-- 2020-09 -->
      <g transform="translate(67.287028 277.742812)rotate(-90)scale(0.1 -0.1)">
       <defs>
        <path d="M 1228 531 
L 3431 531 
L 3431 0 
L 469 0 
L 469 531 
Q 828 903 1448 1529 
Q 2069 2156 2228 2338 
Q 2531 2678 2651 2914 
Q 2772 3150 2772 3378 
Q 2772 3750 2511 3984 
Q 2250 4219 1831 4219 
Q 1534 4219 1204 4116 
Q 875 4013 500 3803 
L 500 4441 
Q 881 4594 1212 4672 
Q 1544 4750 1819 4750 
Q 2544 4750 2975 4387 
Q 3406 4025 3406 3419 
Q 3406 3131 3298 2873 
Q 3191 2616 2906 2266 
Q 2828 2175 2409 1742 
Q 1991 1309 1228 531 
z
" id="DejaVuSans-32" transform="scale(0.015625)"/>
        <path d="M 2034 4250 
Q 1547 4250 1301 3770 
Q 1056 3291 1056 2328 
Q 1056 1369 1301 889 
Q 1547 409 2034 409 
Q 2525 409 2770 889 
Q 3016 1369 3016 2328 
Q 3016 3291 2770 3770 
Q 2525 4250 2034 4250 
z
M 2034 4750 
Q 2819 4750 3233 4129 
Q 3647 3509 3647 2328 
Q 3647 1150 3233 529 
Q 2819 -91 2034 -91 
Q 1250 -91 836 529 
Q 422 1150 422 2328 
Q 422 3509 836 4129 
Q 1250 4750 2034 4750 
z
" id="DejaVuSans-30" transform="scale(0.015625)"/>
        <path d="M 313 2009 
L 1997 2009 
L 1997 1497 
L 313 1497 
L 313 2009 
z
" id="DejaVuSans-2d" transform="scale(0.015625)"/>
        <path d="M 703 97 
L 703 672 
Q 941 559 1184 500 
Q 1428 441 1663 441 
Q 2288 441 2617 861 
Q 2947 1281 2994 2138 
Q 2813 1869 2534 1725 
Q 2256 1581 1919 1581 
Q 1219 1581 811 2004 
Q 403 2428 403 3163 
Q 403 3881 828 4315 
Q 1253 4750 1959 4750 
Q 2769 4750 3195 4129 
Q 3622 3509 3622 2328 
Q 3622 1225 3098 567 
Q 2575 -91 1691 -91 
Q 1453 -91 1209 -44 
Q 966 3 703 97 
z
M 1959 2075 
Q 2384 2075 2632 2365 
Q 2881 2656 2881 3163 
Q 2881 3666 2632 3958 
Q 2384 4250 1959 4250 
Q 1534 4250 1286 3958 
Q 1038 3666 1038 3163 
Q 1038 2656 1286 2365 
Q 1534 2075 1959 2075 
z
" id="DejaVuSans-39" transform="scale(0.015625)"/>
       </defs>
       <use xlink:href="#DejaVuSans-32"/>
       <use x="63.623047" xlink:href="#DejaVuSans-30"/>
       <use x="127.246094" xlink:href="#DejaVuSans-32"/>
       <use x="190.869141" xlink:href="#DejaVuSans-30"/>
       <use x="254.492188" xlink:href="#DejaVuSans-2d"/>
       <use x="290.576172" xlink:href="#DejaVuSans-30"/>
       <use x="354.199219" xlink:href="#DejaVuSans-39"/>
      </g>
     </g>
    </g>
    <g id="xtick_2">
     <g id="line2d_2">
      <g>
       <use style="stroke:#000000;stroke-width:0.8;" x="225.273816" xlink:href="#m11f80774cc" y="228.96"/>
      </g>
     </g>
     <g id="text_2">
      <!-- 2020-11 -->
      <g transform="translate(228.033191 277.742812)rotate(-90)scale(0.1 -0.1)">
       <defs>
        <path d="M 794 531 
L 1825 531 
L 1825 4091 
L 703 3866 
L 703 4441 
L 1819 4666 
L 2450 4666 
L 2450 531 
L 3481 531 
L 3481 0 
L 794 0 
L 794 531 
z
" id="DejaVuSans-31" transform="scale(0.015625)"/>
       </defs>
       <use xlink:href="#DejaVuSans-32"/>
       <use x="63.623047" xlink:href="#DejaVuSans-30"/>
       <use x="127.246094" xlink:href="#DejaVuSans-32"/>
       <use x="190.869141" xlink:href="#DejaVuSans-30"/>
       <use x="254.492188" xlink:href="#DejaVuSans-2d"/>
       <use x="290.576172" xlink:href="#DejaVuSans-31"/>
       <use x="354.199219" xlink:href="#DejaVuSans-31"/>
      </g>
     </g>
    </g>
    <g id="xtick_3">
     <g id="line2d_3">
      <g>
       <use style="stroke:#000000;stroke-width:0.8;" x="386.019979" xlink:href="#m11f80774cc" y="228.96"/>
      </g>
     </g>
     <g id="text_3">
      <!-- 2021-01 -->
      <g transform="translate(388.779354 277.742812)rotate(-90)scale(0.1 -0.1)">
       <use xlink:href="#DejaVuSans-32"/>
       <use x="63.623047" xlink:href="#DejaVuSans-30"/>
       <use x="127.246094" xlink:href="#DejaVuSans-32"/>
       <use x="190.869141" xlink:href="#DejaVuSans-31"/>
       <use x="254.492188" xlink:href="#DejaVuSans-2d"/>
       <use x="290.576172" xlink:href="#DejaVuSans-30"/>
       <use x="354.199219" xlink:href="#DejaVuSans-31"/>
      </g>
     </g>
    </g>
    <g id="xtick_4">
     <g id="line2d_4">
      <g>
       <use style="stroke:#000000;stroke-width:0.8;" x="541.495776" xlink:href="#m11f80774cc" y="228.96"/>
      </g>
     </g>
     <g id="text_4">
      <!-- 2021-03 -->
      <g transform="translate(544.255151 277.742812)rotate(-90)scale(0.1 -0.1)">
       <defs>
        <path d="M 2597 2516 
Q 3050 2419 3304 2112 
Q 3559 1806 3559 1356 
Q 3559 666 3084 287 
Q 2609 -91 1734 -91 
Q 1441 -91 1130 -33 
Q 819 25 488 141 
L 488 750 
Q 750 597 1062 519 
Q 1375 441 1716 441 
Q 2309 441 2620 675 
Q 2931 909 2931 1356 
Q 2931 1769 2642 2001 
Q 2353 2234 1838 2234 
L 1294 2234 
L 1294 2753 
L 1863 2753 
Q 2328 2753 2575 2939 
Q 2822 3125 2822 3475 
Q 2822 3834 2567 4026 
Q 2313 4219 1838 4219 
Q 1578 4219 1281 4162 
Q 984 4106 628 3988 
L 628 4550 
Q 988 4650 1302 4700 
Q 1616 4750 1894 4750 
Q 2613 4750 3031 4423 
Q 3450 4097 3450 3541 
Q 3450 3153 3228 2886 
Q 3006 2619 2597 2516 
z
" id="DejaVuSans-33" transform="scale(0.015625)"/>
       </defs>
       <use xlink:href="#DejaVuSans-32"/>
       <use x="63.623047" xlink:href="#DejaVuSans-30"/>
       <use x="127.246094" xlink:href="#DejaVuSans-32"/>
       <use x="190.869141" xlink:href="#DejaVuSans-31"/>
       <use x="254.492188" xlink:href="#DejaVuSans-2d"/>
       <use x="290.576172" xlink:href="#DejaVuSans-30"/>
       <use x="354.199219" xlink:href="#DejaVuSans-33"/>
      </g>
     </g>
    </g>
    <g id="xtick_5">
     <g id="line2d_5">
      <g>
       <use style="stroke:#000000;stroke-width:0.8;" x="702.241938" xlink:href="#m11f80774cc" y="228.96"/>
      </g>
     </g>
     <g id="text_5">
      <!-- 2021-05 -->
      <g transform="translate(705.001313 277.742812)rotate(-90)scale(0.1 -0.1)">
       <defs>
        <path d="M 691 4666 
L 3169 4666 
L 3169 4134 
L 1269 4134 
L 1269 2991 
Q 1406 3038 1543 3061 
Q 1681 3084 1819 3084 
Q 2600 3084 3056 2656 
Q 3513 2228 3513 1497 
Q 3513 744 3044 326 
Q 2575 -91 1722 -91 
Q 1428 -91 1123 -41 
Q 819 9 494 109 
L 494 744 
Q 775 591 1075 516 
Q 1375 441 1709 441 
Q 2250 441 2565 725 
Q 2881 1009 2881 1497 
Q 2881 1984 2565 2268 
Q 2250 2553 1709 2553 
Q 1456 2553 1204 2497 
Q 953 2441 691 2322 
L 691 4666 
z
" id="DejaVuSans-35" transform="scale(0.015625)"/>
       </defs>
       <use xlink:href="#DejaVuSans-32"/>
       <use x="63.623047" xlink:href="#DejaVuSans-30"/>
       <use x="127.246094" xlink:href="#DejaVuSans-32"/>
       <use x="190.869141" xlink:href="#DejaVuSans-31"/>
       <use x="254.492188" xlink:href="#DejaVuSans-2d"/>
       <use x="290.576172" xlink:href="#DejaVuSans-30"/>
       <use x="354.199219" xlink:href="#DejaVuSans-35"/>
      </g>
     </g>
    </g>
    <g id="xtick_6">
     <g id="line2d_6">
      <g>
       <use style="stroke:#000000;stroke-width:0.8;" x="862.988101" xlink:href="#m11f80774cc" y="228.96"/>
      </g>
     </g>
     <g id="text_6">
      <!-- 2021-07 -->
      <g transform="translate(865.747476 277.742812)rotate(-90)scale(0.1 -0.1)">
       <defs>
        <path d="M 525 4666 
L 3525 4666 
L 3525 4397 
L 1831 0 
L 1172 0 
L 2766 4134 
L 525 4134 
L 525 4666 
z
" id="DejaVuSans-37" transform="scale(0.015625)"/>
       </defs>
       <use xlink:href="#DejaVuSans-32"/>
       <use x="63.623047" xlink:href="#DejaVuSans-30"/>
       <use x="127.246094" xlink:href="#DejaVuSans-32"/>
       <use x="190.869141" xlink:href="#DejaVuSans-31"/>
       <use x="254.492188" xlink:href="#DejaVuSans-2d"/>
       <use x="290.576172" xlink:href="#DejaVuSans-30"/>
       <use x="354.199219" xlink:href="#DejaVuSans-37"/>
      </g>
     </g>
    </g>
    <g id="xtick_7">
     <g id="line2d_7">
      <g>
       <use style="stroke:#000000;stroke-width:0.8;" x="1026.369447" xlink:href="#m11f80774cc" y="228.96"/>
      </g>
     </g>
     <g id="text_7">
      <!-- 2021-09 -->
      <g transform="translate(1029.128822 277.742812)rotate(-90)scale(0.1 -0.1)">
       <use xlink:href="#DejaVuSans-32"/>
       <use x="63.623047" xlink:href="#DejaVuSans-30"/>
       <use x="127.246094" xlink:href="#DejaVuSans-32"/>
       <use x="190.869141" xlink:href="#DejaVuSans-31"/>
       <use x="254.492188" xlink:href="#DejaVuSans-2d"/>
       <use x="290.576172" xlink:href="#DejaVuSans-30"/>
       <use x="354.199219" xlink:href="#DejaVuSans-39"/>
      </g>
     </g>
    </g>
    <g id="text_8">
     <!-- Date -->
     <g transform="translate(599.377344 289.34125)scale(0.1 -0.1)">
      <defs>
       <path d="M 1259 4147 
L 1259 519 
L 2022 519 
Q 2988 519 3436 956 
Q 3884 1394 3884 2338 
Q 3884 3275 3436 3711 
Q 2988 4147 2022 4147 
L 1259 4147 
z
M 628 4666 
L 1925 4666 
Q 3281 4666 3915 4102 
Q 4550 3538 4550 2338 
Q 4550 1131 3912 565 
Q 3275 0 1925 0 
L 628 0 
L 628 4666 
z
" id="DejaVuSans-44" transform="scale(0.015625)"/>
       <path d="M 2194 1759 
Q 1497 1759 1228 1600 
Q 959 1441 959 1056 
Q 959 750 1161 570 
Q 1363 391 1709 391 
Q 2188 391 2477 730 
Q 2766 1069 2766 1631 
L 2766 1759 
L 2194 1759 
z
M 3341 1997 
L 3341 0 
L 2766 0 
L 2766 531 
Q 2569 213 2275 61 
Q 1981 -91 1556 -91 
Q 1019 -91 701 211 
Q 384 513 384 1019 
Q 384 1609 779 1909 
Q 1175 2209 1959 2209 
L 2766 2209 
L 2766 2266 
Q 2766 2663 2505 2880 
Q 2244 3097 1772 3097 
Q 1472 3097 1187 3025 
Q 903 2953 641 2809 
L 641 3341 
Q 956 3463 1253 3523 
Q 1550 3584 1831 3584 
Q 2591 3584 2966 3190 
Q 3341 2797 3341 1997 
z
" id="DejaVuSans-61" transform="scale(0.015625)"/>
       <path d="M 1172 4494 
L 1172 3500 
L 2356 3500 
L 2356 3053 
L 1172 3053 
L 1172 1153 
Q 1172 725 1289 603 
Q 1406 481 1766 481 
L 2356 481 
L 2356 0 
L 1766 0 
Q 1100 0 847 248 
Q 594 497 594 1153 
L 594 3053 
L 172 3053 
L 172 3500 
L 594 3500 
L 594 4494 
L 1172 4494 
z
" id="DejaVuSans-74" transform="scale(0.015625)"/>
       <path d="M 3597 1894 
L 3597 1613 
L 953 1613 
Q 991 1019 1311 708 
Q 1631 397 2203 397 
Q 2534 397 2845 478 
Q 3156 559 3463 722 
L 3463 178 
Q 3153 47 2828 -22 
Q 2503 -91 2169 -91 
Q 1331 -91 842 396 
Q 353 884 353 1716 
Q 353 2575 817 3079 
Q 1281 3584 2069 3584 
Q 2775 3584 3186 3129 
Q 3597 2675 3597 1894 
z
M 3022 2063 
Q 3016 2534 2758 2815 
Q 2500 3097 2075 3097 
Q 1594 3097 1305 2825 
Q 1016 2553 972 2059 
L 3022 2063 
z
" id="DejaVuSans-65" transform="scale(0.015625)"/>
      </defs>
      <use xlink:href="#DejaVuSans-44"/>
      <use x="77.001953" xlink:href="#DejaVuSans-61"/>
      <use x="138.28125" xlink:href="#DejaVuSans-74"/>
      <use x="177.490234" xlink:href="#DejaVuSans-65"/>
     </g>
    </g>
   </g>
   <g id="matplotlib.axis_2">
    <g id="ytick_1">
     <g id="line2d_8">
      <defs>
       <path d="M 0 0 
L -3.5 0 
" id="m922990b400" style="stroke:#000000;stroke-width:0.8;"/>
      </defs>
      <g>
       <use style="stroke:#000000;stroke-width:0.8;" x="53.328125" xlink:href="#m922990b400" y="228.96"/>
      </g>
     </g>
     <g id="text_9">
      <!-- 1 -->
      <g transform="translate(39.965625 232.759219)scale(0.1 -0.1)">
       <use xlink:href="#DejaVuSans-31"/>
      </g>
     </g>
    </g>
    <g id="ytick_2">
     <g id="line2d_9">
      <g>
       <use style="stroke:#000000;stroke-width:0.8;" x="53.328125" xlink:href="#m922990b400" y="200.040374"/>
      </g>
     </g>
     <g id="text_10">
      <!-- 3 -->
      <g transform="translate(39.965625 203.839593)scale(0.1 -0.1)">
       <use xlink:href="#DejaVuSans-33"/>
      </g>
     </g>
    </g>
    <g id="ytick_3">
     <g id="line2d_10">
      <g>
       <use style="stroke:#000000;stroke-width:0.8;" x="53.328125" xlink:href="#m922990b400" y="171.120749"/>
      </g>
     </g>
     <g id="text_11">
      <!-- 10 -->
      <g transform="translate(33.603125 174.919967)scale(0.1 -0.1)">
       <use xlink:href="#DejaVuSans-31"/>
       <use x="63.623047" xlink:href="#DejaVuSans-30"/>
      </g>
     </g>
    </g>
    <g id="ytick_4">
     <g id="line2d_11">
      <g>
       <use style="stroke:#000000;stroke-width:0.8;" x="53.328125" xlink:href="#m922990b400" y="142.201123"/>
      </g>
     </g>
     <g id="text_12">
      <!-- 31 -->
      <g transform="translate(33.603125 146.000342)scale(0.1 -0.1)">
       <use xlink:href="#DejaVuSans-33"/>
       <use x="63.623047" xlink:href="#DejaVuSans-31"/>
      </g>
     </g>
    </g>
    <g id="ytick_5">
     <g id="line2d_12">
      <g>
       <use style="stroke:#000000;stroke-width:0.8;" x="53.328125" xlink:href="#m922990b400" y="113.281497"/>
      </g>
     </g>
     <g id="text_13">
      <!-- 100 -->
      <g transform="translate(27.240625 117.080716)scale(0.1 -0.1)">
       <use xlink:href="#DejaVuSans-31"/>
       <use x="63.623047" xlink:href="#DejaVuSans-30"/>
       <use x="127.246094" xlink:href="#DejaVuSans-30"/>
      </g>
     </g>
    </g>
    <g id="ytick_6">
     <g id="line2d_13">
      <g>
       <use style="stroke:#000000;stroke-width:0.8;" x="53.328125" xlink:href="#m922990b400" y="84.361871"/>
      </g>
     </g>
     <g id="text_14">
      <!-- 316 -->
      <g transform="translate(27.240625 88.16109)scale(0.1 -0.1)">
       <defs>
        <path d="M 2113 2584 
Q 1688 2584 1439 2293 
Q 1191 2003 1191 1497 
Q 1191 994 1439 701 
Q 1688 409 2113 409 
Q 2538 409 2786 701 
Q 3034 994 3034 1497 
Q 3034 2003 2786 2293 
Q 2538 2584 2113 2584 
z
M 3366 4563 
L 3366 3988 
Q 3128 4100 2886 4159 
Q 2644 4219 2406 4219 
Q 1781 4219 1451 3797 
Q 1122 3375 1075 2522 
Q 1259 2794 1537 2939 
Q 1816 3084 2150 3084 
Q 2853 3084 3261 2657 
Q 3669 2231 3669 1497 
Q 3669 778 3244 343 
Q 2819 -91 2113 -91 
Q 1303 -91 875 529 
Q 447 1150 447 2328 
Q 447 3434 972 4092 
Q 1497 4750 2381 4750 
Q 2619 4750 2861 4703 
Q 3103 4656 3366 4563 
z
" id="DejaVuSans-36" transform="scale(0.015625)"/>
       </defs>
       <use xlink:href="#DejaVuSans-33"/>
       <use x="63.623047" xlink:href="#DejaVuSans-31"/>
       <use x="127.246094" xlink:href="#DejaVuSans-36"/>
      </g>
     </g>
    </g>
    <g id="ytick_7">
     <g id="line2d_14">
      <g>
       <use style="stroke:#000000;stroke-width:0.8;" x="53.328125" xlink:href="#m922990b400" y="55.442246"/>
      </g>
     </g>
     <g id="text_15">
      <!-- 1000 -->
      <g transform="translate(20.878125 59.241464)scale(0.1 -0.1)">
       <use xlink:href="#DejaVuSans-31"/>
       <use x="63.623047" xlink:href="#DejaVuSans-30"/>
       <use x="127.246094" xlink:href="#DejaVuSans-30"/>
       <use x="190.869141" xlink:href="#DejaVuSans-30"/>
      </g>
     </g>
    </g>
    <g id="ytick_8">
     <g id="line2d_15">
      <g>
       <use style="stroke:#000000;stroke-width:0.8;" x="53.328125" xlink:href="#m922990b400" y="26.52262"/>
      </g>
     </g>
     <g id="text_16">
      <!-- 3162 -->
      <g transform="translate(20.878125 30.321839)scale(0.1 -0.1)">
       <use xlink:href="#DejaVuSans-33"/>
       <use x="63.623047" xlink:href="#DejaVuSans-31"/>
       <use x="127.246094" xlink:href="#DejaVuSans-36"/>
       <use x="190.869141" xlink:href="#DejaVuSans-32"/>
      </g>
     </g>
    </g>
    <g id="text_17">
     <!-- Count (7 day rolling average) -->
     <g transform="translate(14.798437 191.547969)rotate(-90)scale(0.1 -0.1)">
      <defs>
       <path d="M 4122 4306 
L 4122 3641 
Q 3803 3938 3442 4084 
Q 3081 4231 2675 4231 
Q 1875 4231 1450 3742 
Q 1025 3253 1025 2328 
Q 1025 1406 1450 917 
Q 1875 428 2675 428 
Q 3081 428 3442 575 
Q 3803 722 4122 1019 
L 4122 359 
Q 3791 134 3420 21 
Q 3050 -91 2638 -91 
Q 1578 -91 968 557 
Q 359 1206 359 2328 
Q 359 3453 968 4101 
Q 1578 4750 2638 4750 
Q 3056 4750 3426 4639 
Q 3797 4528 4122 4306 
z
" id="DejaVuSans-43" transform="scale(0.015625)"/>
       <path d="M 1959 3097 
Q 1497 3097 1228 2736 
Q 959 2375 959 1747 
Q 959 1119 1226 758 
Q 1494 397 1959 397 
Q 2419 397 2687 759 
Q 2956 1122 2956 1747 
Q 2956 2369 2687 2733 
Q 2419 3097 1959 3097 
z
M 1959 3584 
Q 2709 3584 3137 3096 
Q 3566 2609 3566 1747 
Q 3566 888 3137 398 
Q 2709 -91 1959 -91 
Q 1206 -91 779 398 
Q 353 888 353 1747 
Q 353 2609 779 3096 
Q 1206 3584 1959 3584 
z
" id="DejaVuSans-6f" transform="scale(0.015625)"/>
       <path d="M 544 1381 
L 544 3500 
L 1119 3500 
L 1119 1403 
Q 1119 906 1312 657 
Q 1506 409 1894 409 
Q 2359 409 2629 706 
Q 2900 1003 2900 1516 
L 2900 3500 
L 3475 3500 
L 3475 0 
L 2900 0 
L 2900 538 
Q 2691 219 2414 64 
Q 2138 -91 1772 -91 
Q 1169 -91 856 284 
Q 544 659 544 1381 
z
M 1991 3584 
L 1991 3584 
z
" id="DejaVuSans-75" transform="scale(0.015625)"/>
       <path d="M 3513 2113 
L 3513 0 
L 2938 0 
L 2938 2094 
Q 2938 2591 2744 2837 
Q 2550 3084 2163 3084 
Q 1697 3084 1428 2787 
Q 1159 2491 1159 1978 
L 1159 0 
L 581 0 
L 581 3500 
L 1159 3500 
L 1159 2956 
Q 1366 3272 1645 3428 
Q 1925 3584 2291 3584 
Q 2894 3584 3203 3211 
Q 3513 2838 3513 2113 
z
" id="DejaVuSans-6e" transform="scale(0.015625)"/>
       <path id="DejaVuSans-20" transform="scale(0.015625)"/>
       <path d="M 1984 4856 
Q 1566 4138 1362 3434 
Q 1159 2731 1159 2009 
Q 1159 1288 1364 580 
Q 1569 -128 1984 -844 
L 1484 -844 
Q 1016 -109 783 600 
Q 550 1309 550 2009 
Q 550 2706 781 3412 
Q 1013 4119 1484 4856 
L 1984 4856 
z
" id="DejaVuSans-28" transform="scale(0.015625)"/>
       <path d="M 2906 2969 
L 2906 4863 
L 3481 4863 
L 3481 0 
L 2906 0 
L 2906 525 
Q 2725 213 2448 61 
Q 2172 -91 1784 -91 
Q 1150 -91 751 415 
Q 353 922 353 1747 
Q 353 2572 751 3078 
Q 1150 3584 1784 3584 
Q 2172 3584 2448 3432 
Q 2725 3281 2906 2969 
z
M 947 1747 
Q 947 1113 1208 752 
Q 1469 391 1925 391 
Q 2381 391 2643 752 
Q 2906 1113 2906 1747 
Q 2906 2381 2643 2742 
Q 2381 3103 1925 3103 
Q 1469 3103 1208 2742 
Q 947 2381 947 1747 
z
" id="DejaVuSans-64" transform="scale(0.015625)"/>
       <path d="M 2059 -325 
Q 1816 -950 1584 -1140 
Q 1353 -1331 966 -1331 
L 506 -1331 
L 506 -850 
L 844 -850 
Q 1081 -850 1212 -737 
Q 1344 -625 1503 -206 
L 1606 56 
L 191 3500 
L 800 3500 
L 1894 763 
L 2988 3500 
L 3597 3500 
L 2059 -325 
z
" id="DejaVuSans-79" transform="scale(0.015625)"/>
       <path d="M 2631 2963 
Q 2534 3019 2420 3045 
Q 2306 3072 2169 3072 
Q 1681 3072 1420 2755 
Q 1159 2438 1159 1844 
L 1159 0 
L 581 0 
L 581 3500 
L 1159 3500 
L 1159 2956 
Q 1341 3275 1631 3429 
Q 1922 3584 2338 3584 
Q 2397 3584 2469 3576 
Q 2541 3569 2628 3553 
L 2631 2963 
z
" id="DejaVuSans-72" transform="scale(0.015625)"/>
       <path d="M 603 4863 
L 1178 4863 
L 1178 0 
L 603 0 
L 603 4863 
z
" id="DejaVuSans-6c" transform="scale(0.015625)"/>
       <path d="M 603 3500 
L 1178 3500 
L 1178 0 
L 603 0 
L 603 3500 
z
M 603 4863 
L 1178 4863 
L 1178 4134 
L 603 4134 
L 603 4863 
z
" id="DejaVuSans-69" transform="scale(0.015625)"/>
       <path d="M 2906 1791 
Q 2906 2416 2648 2759 
Q 2391 3103 1925 3103 
Q 1463 3103 1205 2759 
Q 947 2416 947 1791 
Q 947 1169 1205 825 
Q 1463 481 1925 481 
Q 2391 481 2648 825 
Q 2906 1169 2906 1791 
z
M 3481 434 
Q 3481 -459 3084 -895 
Q 2688 -1331 1869 -1331 
Q 1566 -1331 1297 -1286 
Q 1028 -1241 775 -1147 
L 775 -588 
Q 1028 -725 1275 -790 
Q 1522 -856 1778 -856 
Q 2344 -856 2625 -561 
Q 2906 -266 2906 331 
L 2906 616 
Q 2728 306 2450 153 
Q 2172 0 1784 0 
Q 1141 0 747 490 
Q 353 981 353 1791 
Q 353 2603 747 3093 
Q 1141 3584 1784 3584 
Q 2172 3584 2450 3431 
Q 2728 3278 2906 2969 
L 2906 3500 
L 3481 3500 
L 3481 434 
z
" id="DejaVuSans-67" transform="scale(0.015625)"/>
       <path d="M 191 3500 
L 800 3500 
L 1894 563 
L 2988 3500 
L 3597 3500 
L 2284 0 
L 1503 0 
L 191 3500 
z
" id="DejaVuSans-76" transform="scale(0.015625)"/>
       <path d="M 513 4856 
L 1013 4856 
Q 1481 4119 1714 3412 
Q 1947 2706 1947 2009 
Q 1947 1309 1714 600 
Q 1481 -109 1013 -844 
L 513 -844 
Q 928 -128 1133 580 
Q 1338 1288 1338 2009 
Q 1338 2731 1133 3434 
Q 928 4138 513 4856 
z
" id="DejaVuSans-29" transform="scale(0.015625)"/>
      </defs>
      <use xlink:href="#DejaVuSans-43"/>
      <use x="69.824219" xlink:href="#DejaVuSans-6f"/>
      <use x="131.005859" xlink:href="#DejaVuSans-75"/>
      <use x="194.384766" xlink:href="#DejaVuSans-6e"/>
      <use x="257.763672" xlink:href="#DejaVuSans-74"/>
      <use x="296.972656" xlink:href="#DejaVuSans-20"/>
      <use x="328.759766" xlink:href="#DejaVuSans-28"/>
      <use x="367.773438" xlink:href="#DejaVuSans-37"/>
      <use x="431.396484" xlink:href="#DejaVuSans-20"/>
      <use x="463.183594" xlink:href="#DejaVuSans-64"/>
      <use x="526.660156" xlink:href="#DejaVuSans-61"/>
      <use x="587.939453" xlink:href="#DejaVuSans-79"/>
      <use x="647.119141" xlink:href="#DejaVuSans-20"/>
      <use x="678.90625" xlink:href="#DejaVuSans-72"/>
      <use x="717.769531" xlink:href="#DejaVuSans-6f"/>
      <use x="778.951172" xlink:href="#DejaVuSans-6c"/>
      <use x="806.734375" xlink:href="#DejaVuSans-6c"/>
      <use x="834.517578" xlink:href="#DejaVuSans-69"/>
      <use x="862.300781" xlink:href="#DejaVuSans-6e"/>
      <use x="925.679688" xlink:href="#DejaVuSans-67"/>
      <use x="989.15625" xlink:href="#DejaVuSans-20"/>
      <use x="1020.943359" xlink:href="#DejaVuSans-61"/>
      <use x="1082.222656" xlink:href="#DejaVuSans-76"/>
      <use x="1141.402344" xlink:href="#DejaVuSans-65"/>
      <use x="1202.925781" xlink:href="#DejaVuSans-72"/>
      <use x="1244.039062" xlink:href="#DejaVuSans-61"/>
      <use x="1305.318359" xlink:href="#DejaVuSans-67"/>
      <use x="1368.794922" xlink:href="#DejaVuSans-65"/>
      <use x="1430.318359" xlink:href="#DejaVuSans-29"/>
     </g>
    </g>
   </g>
   <g id="line2d_16">
    <path clip-path="url(#p8132081b34)" d="M 135.677594 225.605789 
L 138.312777 228.96 
L 341.221868 228.96 
L 343.857051 225.605789 
L 359.668149 225.605789 
L 362.303332 228.96 
L 391.290345 228.96 
L 393.925528 222.647166 
L 396.560711 220.000587 
L 399.195894 220.000587 
L 401.831077 215.420803 
L 409.736626 215.420803 
L 412.371809 220.000587 
L 415.006992 222.647166 
L 417.642175 222.647166 
L 420.277358 228.96 
L 443.994005 228.96 
L 446.629188 225.605789 
L 449.264371 225.605789 
L 451.899554 222.647166 
L 462.440286 222.647166 
L 465.075469 225.605789 
L 467.710652 225.605789 
L 470.345835 228.96 
L 472.981018 225.605789 
L 475.616201 222.647166 
L 480.886567 222.647166 
L 483.52175 220.000587 
L 486.156933 220.000587 
L 488.792116 217.606465 
L 491.427299 217.606465 
L 494.062482 220.000587 
L 499.332848 220.000587 
L 501.968031 222.647166 
L 504.603214 222.647166 
L 507.238397 225.605789 
L 509.87358 228.96 
L 525.684678 228.96 
L 528.319861 225.605789 
L 544.130959 225.605789 
L 546.766142 228.96 
L 554.671691 228.96 
L 557.306874 225.605789 
L 559.942057 225.605789 
L 562.57724 222.647166 
L 573.117972 222.647166 
L 575.753155 225.605789 
L 578.388338 225.605789 
L 581.023521 220.000587 
L 586.293887 220.000587 
L 588.92907 217.606465 
L 591.564253 217.606465 
L 594.199436 215.420803 
L 596.834619 215.420803 
L 599.469802 222.647166 
L 602.104985 220.000587 
L 604.740168 215.420803 
L 607.375351 217.606465 
L 610.010534 217.606465 
L 612.645716 215.420803 
L 615.280899 211.54865 
L 617.916082 206.671593 
L 620.551265 203.877687 
L 623.186448 198.009453 
L 625.821631 196.984034 
L 628.456814 191.580594 
L 631.091997 193.255832 
L 633.72718 187.824466 
L 638.997546 181.12695 
L 641.632729 181.66717 
L 644.267912 177.178563 
L 646.903095 174.992901 
L 649.538278 168.402503 
L 652.173461 165.949896 
L 654.808644 162.926448 
L 657.443827 160.935762 
L 660.07901 156.157406 
L 662.714193 153.530613 
L 665.349376 151.315277 
L 667.984559 150.991153 
L 670.619742 147.818747 
L 673.254925 144.375994 
L 675.890108 141.903252 
L 678.525291 141.458651 
L 681.160474 139.044506 
L 683.795657 139.044506 
L 686.43084 136.934014 
L 689.066023 135.677789 
L 691.701206 133.985616 
L 694.336389 131.868231 
L 696.971572 130.195419 
L 699.606755 129.776755 
L 702.241938 128.429555 
L 704.877121 128.759642 
L 707.512304 127.088691 
L 710.147487 126.29313 
L 712.78267 124.944514 
L 715.417853 123.287698 
L 718.053036 122.343648 
L 720.688219 121.98589 
L 723.323402 122.189699 
L 725.958585 121.1868 
L 728.593768 120.555752 
L 731.228951 119.385024 
L 733.864134 119.568713 
L 736.499317 119.385024 
L 739.1345 118.618996 
L 741.769683 117.575832 
L 744.404866 116.738445 
L 747.040049 116.168454 
L 749.675232 116.168454 
L 752.310415 115.928076 
L 754.945598 115.18171 
L 757.580781 115.729504 
L 762.851147 115.18171 
L 765.48633 114.721497 
L 768.121513 114.009643 
L 770.756696 112.400029 
L 773.391879 111.783994 
L 776.027062 111.548447 
L 778.662245 111.615521 
L 781.297428 114.120708 
L 783.932611 111.548447 
L 786.567794 110.116391 
L 789.202977 109.429859 
L 791.83816 108.374905 
L 794.473343 106.885071 
L 797.108526 105.956645 
L 799.743709 101.520246 
L 802.378892 99.952504 
L 805.014075 98.616604 
L 807.649258 96.858214 
L 810.284441 94.936762 
L 812.919624 93.656093 
L 815.554807 92.095586 
L 818.18999 89.501554 
L 820.825173 88.067324 
L 823.460356 86.437945 
L 826.095539 84.608121 
L 828.730722 83.389097 
L 831.365905 82.69997 
L 834.001088 82.64692 
L 836.636271 80.768732 
L 839.271454 79.20542 
L 841.906637 78.049477 
L 844.54182 76.542212 
L 847.177003 75.183208 
L 849.812186 74.316406 
L 852.447369 72.983113 
L 857.717735 68.793497 
L 860.352918 67.059632 
L 865.623284 64.504396 
L 868.258467 63.929373 
L 870.89365 64.7787 
L 873.528833 64.935305 
L 876.164016 62.063524 
L 878.799199 58.981687 
L 881.434382 57.019426 
L 884.069565 54.77302 
L 886.704748 52.72722 
L 889.339931 50.479633 
L 891.975114 47.149732 
L 894.610297 46.208029 
L 897.24548 45.425281 
L 899.880663 44.157311 
L 902.515846 43.180483 
L 907.786212 41.432314 
L 910.421395 39.518443 
L 913.056578 37.377399 
L 915.691761 35.488779 
L 918.326944 33.403311 
L 920.962127 31.535911 
L 923.59731 30.338788 
L 926.232493 29.761609 
L 928.867676 27.61255 
L 936.773225 23.056677 
L 939.408408 21.649638 
L 947.313957 19.810943 
L 949.94914 18.717095 
L 952.584323 18.000524 
L 960.489872 17.76 
L 965.760238 18.334129 
L 968.395421 19.418763 
L 973.665787 21.284051 
L 976.30097 22.483983 
L 978.936153 23.349996 
L 984.206519 23.921522 
L 989.476885 23.401055 
L 992.112068 23.514555 
L 994.747251 23.487389 
L 1000.017617 23.998376 
L 1002.6528 24.70718 
L 1005.287983 25.173865 
L 1007.923166 25.113712 
L 1010.558349 24.721964 
L 1015.828715 25.325963 
L 1018.463898 25.543297 
L 1021.099081 25.52475 
L 1023.734264 24.796012 
L 1026.369447 25.246024 
L 1029.00463 25.558581 
L 1034.274996 25.628569 
L 1036.910179 25.387712 
L 1039.545362 28.429176 
L 1042.180545 28.517477 
L 1044.815728 29.29351 
L 1047.450911 30.571026 
L 1052.721277 31.911385 
L 1055.35646 32.76966 
L 1057.991643 31.352321 
L 1060.626826 35.256356 
L 1063.262009 37.816505 
L 1068.532375 43.544312 
L 1071.167558 44.834997 
L 1073.802741 45.96079 
L 1076.437924 49.32836 
L 1079.073107 52.343664 
L 1081.70829 55.043519 
L 1084.343473 57.199658 
L 1089.613839 61.029512 
L 1092.249022 62.265173 
L 1094.884205 66.312933 
L 1097.519388 71.187619 
L 1100.154571 77.568669 
L 1102.789754 84.90785 
L 1105.424937 94.559279 
L 1108.06012 99.368309 
L 1108.06012 99.368309 
" style="fill:none;stroke:#947383;stroke-linecap:square;stroke-width:2;"/>
   </g>
   <g id="line2d_17">
    <path clip-path="url(#p8132081b34)" d="M 602.104985 220.000587 
L 604.740168 225.605789 
L 610.010534 225.605789 
L 612.645716 222.647166 
L 615.280899 222.647166 
L 617.916082 215.420803 
L 620.551265 209.8156 
L 623.186448 206.671593 
L 625.821631 203.877687 
L 628.456814 196.984034 
L 631.091997 195.050829 
L 633.72718 190.010128 
L 636.362363 181.12695 
L 638.997546 176.281351 
L 641.632729 173.37174 
L 646.903095 173.37174 
L 649.538278 171.120749 
L 652.173461 169.724875 
L 654.808644 171.482183 
L 657.443827 169.387698 
L 660.07901 163.449785 
L 662.714193 158.003734 
L 665.349376 151.809442 
L 667.984559 150.671158 
L 670.619742 144.50004 
L 673.254925 140.699048 
L 675.890108 138.45111 
L 678.525291 136.568636 
L 681.160474 135.503349 
L 683.795657 136.119264 
L 686.43084 133.741343 
L 689.066023 134.481407 
L 691.701206 134.817456 
L 694.336389 133.499422 
L 696.971572 133.419296 
L 699.606755 132.323578 
L 702.241938 132.323578 
L 704.877121 132.170877 
L 707.512304 132.247111 
L 710.147487 132.019098 
L 712.78267 131.273665 
L 715.417853 130.336539 
L 718.053036 130.62118 
L 720.688219 129.915536 
L 723.323402 130.62118 
L 725.958585 128.364054 
L 731.228951 123.23431 
L 733.864134 123.287698 
L 736.499317 122.189699 
L 739.1345 121.834112 
L 741.769683 121.733433 
L 744.404866 119.385024 
L 747.040049 118.354116 
L 749.675232 117.875639 
L 752.310415 115.808744 
L 754.945598 114.532202 
L 757.580781 113.606553 
L 760.215964 111.315087 
L 762.851147 110.595476 
L 770.756696 106.38928 
L 773.391879 104.146861 
L 776.027062 101.274305 
L 778.662245 100.249777 
L 781.297428 99.471638 
L 783.932611 97.139718 
L 789.202977 93.29724 
L 791.83816 93.216392 
L 794.473343 94.003484 
L 797.108526 93.362106 
L 799.743709 91.545841 
L 802.378892 91.215715 
L 805.014075 91.742975 
L 812.919624 97.272174 
L 815.554807 100.249777 
L 818.18999 104.932298 
L 820.825173 108.821614 
L 823.460356 110.985434 
L 826.095539 111.24881 
L 828.730722 106.526021 
L 831.365905 105.663472 
L 834.001088 104.171818 
L 836.636271 100.637228 
L 839.271454 97.809095 
L 841.906637 97.291153 
L 844.54182 96.014098 
L 847.177003 96.506112 
L 849.812186 92.547355 
L 852.447369 90.787073 
L 855.082552 90.107546 
L 857.717735 89.169577 
L 860.352918 87.482373 
L 862.988101 85.423375 
L 865.623284 84.838364 
L 868.258467 86.723042 
L 870.89365 85.63736 
L 873.528833 84.277974 
L 876.164016 86.623511 
L 878.799199 87.727693 
L 881.434382 89.922793 
L 884.069565 89.697254 
L 886.704748 89.599213 
L 889.339931 91.126428 
L 891.975114 94.644574 
L 894.610297 94.254595 
L 897.24548 91.636634 
L 899.880663 90.816401 
L 902.515846 90.207595 
L 905.151029 89.725335 
L 907.786212 89.032537 
L 910.421395 85.805062 
L 913.056578 82.351891 
L 915.691761 80.808104 
L 918.326944 77.439121 
L 920.962127 76.667204 
L 923.59731 75.628089 
L 926.232493 74.324015 
L 928.867676 75.357044 
L 934.138042 77.803552 
L 936.773225 79.428209 
L 942.043591 78.774768 
L 944.678774 79.474873 
L 947.313957 79.540349 
L 949.94914 78.711255 
L 952.584323 77.698889 
L 955.219506 77.926214 
L 957.854689 77.57733 
L 963.125055 76.269398 
L 965.760238 76.130006 
L 968.395421 77.122398 
L 971.030604 79.325852 
L 973.665787 79.214664 
L 976.30097 80.926591 
L 978.936153 81.315581 
L 981.571336 80.233535 
L 984.206519 78.86578 
L 986.841702 76.944397 
L 989.476885 73.65573 
L 992.112068 73.456457 
L 997.382434 73.493241 
L 1000.017617 73.559587 
L 1002.6528 72.961481 
L 1005.287983 73.004765 
L 1007.923166 74.293595 
L 1010.558349 74.02898 
L 1013.193532 71.580221 
L 1015.828715 70.820908 
L 1018.463898 71.8615 
L 1021.099081 71.41702 
L 1023.734264 69.430401 
L 1029.00463 67.817462 
L 1031.639813 67.829211 
L 1034.274996 68.538354 
L 1036.910179 68.586753 
L 1039.545362 68.854629 
L 1042.180545 71.505289 
L 1044.815728 72.717602 
L 1047.450911 73.715078 
L 1050.086094 74.932483 
L 1052.721277 75.532092 
L 1055.35646 74.815812 
L 1057.991643 74.232865 
L 1060.626826 73.040892 
L 1063.262009 72.349132 
L 1065.897192 71.457721 
L 1068.532375 71.160768 
L 1073.802741 69.637922 
L 1076.437924 70.167574 
L 1079.073107 69.612676 
L 1081.70829 70.283927 
L 1084.343473 70.801058 
L 1086.978656 70.524803 
L 1089.613839 71.944424 
L 1092.249022 72.903884 
L 1094.884205 72.173889 
L 1097.519388 74.69968 
L 1100.154571 73.886491 
L 1102.789754 76.211907 
L 1105.424937 80.621635 
L 1108.06012 82.988393 
L 1110.695303 88.185967 
L 1113.330486 99.081228 
L 1115.965669 106.829497 
L 1115.965669 106.829497 
" style="fill:none;stroke:#96c6ad;stroke-linecap:square;stroke-width:2;"/>
   </g>
   <g id="line2d_18">
    <path clip-path="url(#p8132081b34)" d="M 288.518208 225.605789 
L 291.153391 228.96 
L 399.195894 228.96 
L 401.831077 217.606465 
L 404.46626 217.606465 
L 407.101443 208.19444 
L 417.642175 208.19444 
L 420.277358 215.420803 
L 422.912541 215.420803 
L 425.547724 228.96 
L 443.994005 228.96 
L 446.629188 225.605789 
L 457.16992 225.605789 
L 459.805103 222.647166 
L 462.440286 222.647166 
L 465.075469 225.605789 
L 475.616201 225.605789 
L 478.251384 228.96 
L 480.886567 228.96 
L 483.52175 220.000587 
L 486.156933 220.000587 
L 488.792116 209.8156 
L 491.427299 209.8156 
L 496.697665 206.671593 
L 499.332848 206.671593 
L 501.968031 211.54865 
L 504.603214 211.54865 
L 507.238397 222.647166 
L 509.87358 222.647166 
L 512.508763 225.605789 
L 515.143946 228.96 
L 533.590227 228.96 
L 536.22541 225.605789 
L 552.036508 225.605789 
L 554.671691 228.96 
L 557.306874 213.410188 
L 559.942057 213.410188 
L 562.57724 211.54865 
L 573.117972 211.54865 
L 575.753155 225.605789 
L 578.388338 225.605789 
L 581.023521 161.91139 
L 583.658704 161.91139 
L 586.293887 161.663908 
L 596.834619 161.663908 
L 599.469802 222.647166 
L 602.104985 217.606465 
L 604.740168 220.000587 
L 610.010534 220.000587 
L 612.645716 217.606465 
L 615.280899 198.009453 
L 617.916082 199.078519 
L 620.551265 201.363664 
L 623.186448 199.078519 
L 625.821631 189.260244 
L 628.456814 189.260244 
L 631.091997 190.010128 
L 633.72718 195.050829 
L 636.362363 191.580594 
L 638.997546 185.813852 
L 641.632729 184.557627 
L 644.267912 187.824466 
L 646.903095 187.824466 
L 649.538278 185.813852 
L 654.808644 183.361245 
L 657.443827 182.219264 
L 660.07901 183.361245 
L 662.714193 185.177887 
L 665.349376 179.075257 
L 667.984559 178.109012 
L 670.619742 169.054988 
L 675.890108 162.413792 
L 678.525291 155.570937 
L 681.160474 150.830646 
L 683.795657 147.67723 
L 689.066023 144.50004 
L 691.701206 142.355864 
L 694.336389 138.845146 
L 696.971572 137.967102 
L 699.606755 137.871409 
L 702.241938 137.118715 
L 704.877121 135.941742 
L 707.512304 132.323578 
L 710.147487 130.055088 
L 712.78267 128.233564 
L 715.417853 127.088691 
L 718.053036 125.289406 
L 720.688219 125.347352 
L 723.323402 125.81579 
L 725.958585 125.874964 
L 728.593768 127.275916 
L 731.228951 128.168573 
L 733.864134 128.039092 
L 736.499317 128.039092 
L 739.1345 127.718279 
L 741.769683 125.521994 
L 744.404866 124.047302 
L 747.040049 120.79659 
L 749.675232 120.412349 
L 752.310415 118.797148 
L 754.945598 116.820939 
L 757.580781 116.411154 
L 760.215964 117.83259 
L 765.48633 116.451833 
L 770.756696 112.996048 
L 773.391879 112.960594 
L 776.027062 112.4347 
L 781.297428 108.31594 
L 786.567794 106.498613 
L 789.202977 106.334791 
L 791.83816 104.347215 
L 797.108526 103.457945 
L 799.743709 101.318843 
L 802.378892 98.596597 
L 805.014075 96.57983 
L 807.649258 94.053505 
L 810.284441 92.203892 
L 812.919624 89.599213 
L 815.554807 88.855496 
L 818.18999 86.961023 
L 820.825173 85.399711 
L 823.460356 84.277974 
L 826.095539 83.509469 
L 831.365905 83.258438 
L 834.001088 82.891884 
L 836.636271 82.774429 
L 841.906637 80.641198 
L 844.54182 79.605996 
L 847.177003 78.18222 
L 849.812186 77.664097 
L 852.447369 76.944397 
L 855.082552 73.640915 
L 857.717735 71.532511 
L 860.352918 69.656872 
L 862.988101 68.635246 
L 868.258467 66.940247 
L 870.89365 66.384947 
L 873.528833 64.417043 
L 876.164016 60.895399 
L 878.799199 59.11009 
L 881.434382 57.06532 
L 884.069565 55.399221 
L 886.704748 54.780009 
L 889.339931 53.927844 
L 891.975114 52.6886 
L 894.610297 51.139095 
L 897.24548 51.00942 
L 899.880663 49.917553 
L 902.515846 49.026355 
L 905.151029 48.673062 
L 907.786212 48.160323 
L 910.421395 46.671937 
L 913.056578 44.056761 
L 915.691761 43.42838 
L 920.962127 43.813907 
L 923.59731 43.10571 
L 926.232493 43.085955 
L 928.867676 43.423932 
L 931.502859 44.799735 
L 934.138042 44.127561 
L 936.773225 44.148153 
L 939.408408 43.719219 
L 942.043591 43.995258 
L 944.678774 43.647315 
L 947.313957 44.084143 
L 949.94914 45.147453 
L 952.584323 45.202296 
L 955.219506 45.092729 
L 957.854689 45.166515 
L 960.489872 45.040497 
L 963.125055 45.166515 
L 965.760238 44.452131 
L 968.395421 43.546547 
L 971.030604 43.328485 
L 973.665787 42.425482 
L 976.30097 42.123809 
L 981.571336 41.861218 
L 984.206519 41.311395 
L 986.841702 41.549689 
L 989.476885 41.514625 
L 992.112068 41.711202 
L 994.747251 41.397413 
L 997.382434 41.698741 
L 1000.017617 41.626174 
L 1002.6528 41.87585 
L 1005.287983 41.607548 
L 1007.923166 41.947045 
L 1010.558349 42.683272 
L 1013.193532 43.173877 
L 1015.828715 43.426156 
L 1018.463898 43.535375 
L 1021.099081 44.459082 
L 1023.734264 45.842974 
L 1026.369447 46.168307 
L 1029.00463 45.422873 
L 1034.274996 46.032239 
L 1036.910179 46.826798 
L 1039.545362 47.069894 
L 1042.180545 46.987746 
L 1044.815728 47.364749 
L 1047.450911 48.730684 
L 1055.35646 49.751067 
L 1057.991643 49.816956 
L 1063.262009 51.844308 
L 1065.897192 52.547498 
L 1068.532375 53.944743 
L 1071.167558 54.495034 
L 1073.802741 55.256335 
L 1076.437924 56.886046 
L 1081.70829 59.868911 
L 1084.343473 61.56866 
L 1092.249022 63.470743 
L 1094.884205 68.172343 
L 1100.154571 78.253304 
L 1102.789754 81.487044 
L 1105.424937 88.598969 
L 1108.06012 92.203892 
L 1110.695303 94.003484 
L 1113.330486 101.700636 
L 1115.965669 112.819275 
L 1115.965669 112.819275 
" style="fill:none;stroke:#525886;stroke-linecap:square;stroke-width:2;"/>
   </g>
   <g id="line2d_19">
    <path clip-path="url(#p8132081b34)" d="M 235.814548 225.605789 
L 254.260829 225.605789 
L 256.896012 228.96 
L 312.234855 228.96 
L 314.870038 225.605789 
L 325.41077 225.605789 
L 328.045953 222.647166 
L 330.681136 220.000587 
L 333.316319 222.647166 
L 343.857051 222.647166 
L 346.492234 225.605789 
L 349.127417 228.96 
L 396.560711 228.96 
L 399.195894 217.606465 
L 401.831077 215.420803 
L 404.46626 215.420803 
L 407.101443 196.984034 
L 412.371809 196.984034 
L 415.006992 195.998839 
L 417.642175 200.195115 
L 420.277358 201.363664 
L 422.912541 201.363664 
L 425.547724 225.605789 
L 428.182907 225.605789 
L 430.81809 222.647166 
L 433.453273 225.605789 
L 446.629188 225.605789 
L 449.264371 228.96 
L 457.16992 228.96 
L 459.805103 225.605789 
L 465.075469 225.605789 
L 467.710652 215.420803 
L 470.345835 213.410188 
L 472.981018 213.410188 
L 475.616201 209.8156 
L 478.251384 208.19444 
L 480.886567 203.877687 
L 483.52175 203.877687 
L 486.156933 209.8156 
L 488.792116 183.952314 
L 491.427299 183.952314 
L 496.697665 186.466337 
L 499.332848 188.532098 
L 504.603214 188.532098 
L 507.238397 228.96 
L 509.87358 225.605789 
L 517.779129 225.605789 
L 520.414312 222.647166 
L 525.684678 222.647166 
L 528.319861 225.605789 
L 533.590227 225.605789 
L 536.22541 220.000587 
L 538.860593 220.000587 
L 541.495776 206.671593 
L 546.766142 206.671593 
L 549.401325 194.137301 
L 552.036508 183.952314 
L 554.671691 180.598103 
L 557.306874 179.075257 
L 559.942057 175.844483 
L 562.57724 160.697663 
L 565.212423 159.767213 
L 567.847606 159.767213 
L 570.482789 162.161335 
L 573.117972 163.186754 
L 575.753155 163.449785 
L 578.388338 161.663908 
L 581.023521 171.848894 
L 583.658704 166.841798 
L 586.293887 163.449785 
L 588.92907 163.449785 
L 591.564253 161.91139 
L 594.199436 157.373091 
L 596.834619 157.581551 
L 599.469802 156.757895 
L 602.104985 156.157406 
L 604.740168 155.960391 
L 607.375351 152.313525 
L 610.010534 150.198681 
L 612.645716 148.980539 
L 615.280899 147.396564 
L 617.916082 142.015643 
L 620.551265 135.941742 
L 623.186448 131.420992 
L 625.821631 128.364054 
L 628.456814 124.944514 
L 631.091997 123.287698 
L 633.72718 118.091999 
L 636.362363 115.337007 
L 641.632729 112.090123 
L 644.267912 109.615242 
L 646.903095 106.172031 
L 649.538278 105.663472 
L 652.173461 105.82296 
L 654.808644 103.385241 
L 657.443827 101.430534 
L 660.07901 100.356804 
L 662.714193 99.910322 
L 665.349376 100.164482 
L 667.984559 97.596791 
L 670.619742 97.177491 
L 673.254925 98.496798 
L 675.890108 99.101625 
L 678.525291 98.857944 
L 681.160474 96.213386 
L 683.795657 96.506112 
L 686.43084 98.596597 
L 689.066023 96.80229 
L 691.701206 96.506112 
L 694.336389 94.508241 
L 696.971572 92.9754 
L 699.606755 92.89558 
L 702.241938 92.390653 
L 704.877121 90.524652 
L 707.512304 91.425293 
L 710.147487 91.052264 
L 712.78267 91.682154 
L 715.417853 93.329652 
L 718.053036 95.197428 
L 720.688219 94.936762 
L 723.323402 96.469334 
L 725.958585 95.834288 
L 728.593768 95.978033 
L 731.228951 97.596791 
L 733.864134 97.577579 
L 736.499317 96.359323 
L 739.1345 96.487717 
L 741.769683 95.924032 
L 744.404866 95.942019 
L 747.040049 95.37272 
L 749.675232 93.688971 
L 752.310415 93.639669 
L 754.945598 95.145078 
L 757.580781 96.104487 
L 760.215964 97.196399 
L 762.851147 97.48174 
L 765.48633 98.898394 
L 768.121513 102.180419 
L 770.756696 103.482227 
L 773.391879 104.246839 
L 776.027062 105.243056 
L 778.662245 105.84964 
L 781.297428 106.635952 
L 783.932611 105.531335 
L 786.567794 103.775451 
L 789.202977 102.95338 
L 791.83816 103.555212 
L 794.473343 102.693075 
L 797.108526 102.388879 
L 802.378892 105.426123 
L 807.649258 108.911917 
L 810.284441 108.552637 
L 815.554807 109.491501 
L 818.18999 109.307026 
L 820.825173 108.582381 
L 823.460356 104.447995 
L 826.095539 102.977179 
L 828.730722 101.859548 
L 831.365905 102.180419 
L 834.001088 102.249713 
L 836.636271 100.378264 
L 839.271454 100.702388 
L 841.906637 100.356804 
L 844.54182 101.141164 
L 847.177003 101.074857 
L 849.812186 100.745923 
L 852.447369 100.271146 
L 855.082552 99.471638 
L 857.717735 97.828484 
L 860.352918 93.119718 
L 862.988101 92.831906 
L 865.623284 90.53916 
L 868.258467 90.772422 
L 870.89365 90.394463 
L 873.528833 89.725335 
L 876.164016 90.65552 
L 878.799199 74.893532 
L 881.434382 72.342099 
L 884.069565 69.249439 
L 886.704748 69.243222 
L 889.339931 69.656872 
L 891.975114 70.675709 
L 894.610297 70.629685 
L 897.24548 87.949239 
L 899.880663 92.610311 
L 902.515846 105.269127 
L 905.151029 105.295225 
L 907.786212 102.57564 
L 910.421395 102.157363 
L 913.056578 103.457945 
L 915.691761 103.240461 
L 918.326944 96.672282 
L 920.962127 97.007957 
L 923.59731 96.231582 
L 926.232493 97.77036 
L 928.867676 92.673425 
L 931.502859 92.064727 
L 934.138042 86.180435 
L 936.773225 90.279303 
L 939.408408 84.746013 
L 942.043591 84.711469 
L 944.678774 81.792511 
L 947.313957 79.465533 
L 949.94914 78.702195 
L 952.584323 72.083244 
L 955.219506 67.346189 
L 957.854689 66.832718 
L 960.489872 67.065332 
L 963.125055 68.423777 
L 965.760238 71.8615 
L 968.395421 66.518442 
L 971.030604 74.823573 
L 973.665787 76.170923 
L 976.30097 71.423799 
L 978.936153 56.813935 
L 981.571336 47.634162 
L 984.206519 42.178775 
L 986.841702 38.115367 
L 989.476885 28.37048 
L 992.112068 23.512542 
L 994.747251 22.560432 
L 997.382434 24.877718 
L 1000.017617 28.259578 
L 1002.6528 31.235688 
L 1005.287983 35.788928 
L 1007.923166 49.998323 
L 1013.193532 92.673425 
L 1015.828715 107.733776 
L 1018.463898 107.676294 
L 1021.099081 107.878057 
L 1023.734264 108.198423 
L 1026.369447 107.590319 
L 1029.00463 107.447676 
L 1031.639813 94.850471 
L 1034.274996 94.103627 
L 1036.910179 94.288267 
L 1039.545362 91.803944 
L 1042.180545 92.095586 
L 1044.815728 86.351815 
L 1047.450911 83.829604 
L 1050.086094 89.005219 
L 1055.35646 89.529418 
L 1057.991643 88.305173 
L 1060.626826 89.459816 
L 1063.262009 98.696794 
L 1065.897192 106.746367 
L 1068.532375 115.729504 
L 1071.167558 118.222716 
L 1073.802741 119.385024 
L 1076.437924 144.50004 
L 1079.073107 143.885847 
L 1081.70829 147.257399 
L 1084.343473 151.809442 
L 1086.978656 154.437545 
L 1089.613839 156.757895 
L 1092.249022 160.22813 
L 1094.884205 171.482183 
L 1097.519388 177.63948 
L 1100.154571 182.783765 
L 1102.789754 188.532098 
L 1102.789754 188.532098 
" style="fill:none;stroke:#937252;stroke-linecap:square;stroke-width:2;"/>
   </g>
   <g id="line2d_20">
    <path clip-path="url(#p8132081b34)" d="M 104.055398 225.605789 
L 106.690581 228.96 
L 354.397783 228.96 
L 357.032966 225.605789 
L 372.844064 225.605789 
L 375.479247 228.96 
L 396.560711 228.96 
L 399.195894 225.605789 
L 415.006992 225.605789 
L 417.642175 228.96 
L 451.899554 228.96 
L 454.534737 225.605789 
L 457.16992 225.605789 
L 459.805103 222.647166 
L 470.345835 222.647166 
L 472.981018 217.606465 
L 475.616201 211.54865 
L 478.251384 208.19444 
L 488.792116 208.19444 
L 491.427299 213.410188 
L 494.062482 220.000587 
L 496.697665 228.96 
L 525.684678 228.96 
L 528.319861 225.605789 
L 544.130959 225.605789 
L 546.766142 228.96 
L 581.023521 228.96 
L 583.658704 225.605789 
L 586.293887 220.000587 
L 599.469802 220.000587 
L 602.104985 222.647166 
L 604.740168 228.96 
L 633.72718 228.96 
L 636.362363 225.605789 
L 638.997546 222.647166 
L 644.267912 222.647166 
L 646.903095 220.000587 
L 649.538278 220.000587 
L 652.173461 217.606465 
L 654.808644 220.000587 
L 657.443827 222.647166 
L 662.714193 222.647166 
L 665.349376 225.605789 
L 667.984559 222.647166 
L 670.619742 225.605789 
L 673.254925 215.420803 
L 675.890108 213.410188 
L 678.525291 209.8156 
L 681.160474 209.8156 
L 683.795657 208.19444 
L 686.43084 208.19444 
L 689.066023 205.235816 
L 691.701206 209.8156 
L 694.336389 206.671593 
L 696.971572 202.589237 
L 699.606755 201.363664 
L 702.241938 201.363664 
L 704.877121 200.195115 
L 707.512304 196.984034 
L 710.147487 195.998839 
L 712.78267 196.984034 
L 715.417853 195.998839 
L 720.688219 195.998839 
L 723.323402 198.009453 
L 728.593768 200.195115 
L 731.228951 199.078519 
L 733.864134 203.877687 
L 739.1345 206.671593 
L 741.769683 206.671593 
L 744.404866 209.8156 
L 747.040049 205.235816 
L 749.675232 208.19444 
L 752.310415 206.671593 
L 754.945598 202.589237 
L 757.580781 202.589237 
L 760.215964 201.363664 
L 762.851147 195.050829 
L 765.48633 190.78309 
L 768.121513 187.824466 
L 770.756696 160.22813 
L 776.027062 156.757895 
L 778.662245 155.570937 
L 781.297428 154.25352 
L 783.932611 152.655289 
L 786.567794 151.976348 
L 789.202977 154.25352 
L 791.83816 150.671158 
L 794.473343 148.980539 
L 797.108526 148.104196 
L 799.743709 147.396564 
L 802.378892 144.00749 
L 805.014075 143.644314 
L 807.649258 149.129615 
L 810.284441 152.655289 
L 815.554807 155.764909 
L 818.18999 153.889466 
L 820.825173 154.997849 
L 823.460356 153.889466 
L 826.095539 150.671158 
L 828.730722 146.708322 
L 831.365905 145.644914 
L 834.001088 143.168105 
L 836.636271 145.002443 
L 839.271454 145.257463 
L 841.906637 142.81678 
L 844.54182 142.128538 
L 847.177003 144.252558 
L 849.812186 143.644314 
L 852.447369 142.585265 
L 855.082552 139.65226 
L 857.717735 140.275084 
L 860.352918 137.118715 
L 862.988101 137.586499 
L 865.623284 136.750661 
L 868.258467 136.298049 
L 870.89365 136.750661 
L 873.528833 134.315054 
L 876.164016 132.787332 
L 878.799199 132.943838 
L 881.434382 132.554385 
L 884.069565 130.195419 
L 886.704748 129.364954 
L 889.339931 128.693276 
L 891.975114 130.407397 
L 894.610297 130.125155 
L 897.24548 131.643617 
L 899.880663 130.909083 
L 902.515846 131.494981 
L 905.151029 133.339426 
L 907.786212 135.330112 
L 910.421395 135.503349 
L 913.056578 131.868231 
L 915.691761 133.101327 
L 920.962127 136.659484 
L 923.59731 136.568636 
L 926.232493 137.211578 
L 928.867676 136.298049 
L 931.502859 139.65226 
L 934.138042 133.259808 
L 936.773225 133.022459 
L 939.408408 131.127196 
L 944.678774 131.643617 
L 947.313957 133.339426 
L 949.94914 130.26588 
L 952.584323 137.871409 
L 955.219506 140.699048 
L 957.854689 146.038435 
L 960.489872 147.396564 
L 963.125055 147.818747 
L 965.760238 150.355188 
L 968.395421 146.84447 
L 971.030604 146.572908 
L 973.665787 145.129629 
L 976.30097 143.885847 
L 981.571336 143.885847 
L 984.206519 143.524412 
L 986.841702 150.043143 
L 989.476885 147.961066 
L 992.112068 148.538546 
L 994.747251 148.685014 
L 997.382434 147.961066 
L 1000.017617 147.818747 
L 1002.6528 145.515098 
L 1005.287983 146.708322 
L 1007.923166 143.885847 
L 1010.558349 143.168105 
L 1013.193532 144.00749 
L 1015.828715 145.002443 
L 1018.463898 144.624702 
L 1021.099081 146.981361 
L 1023.734264 149.582227 
L 1026.369447 155.570937 
L 1029.00463 158.433133 
L 1031.639813 160.22813 
L 1034.274996 159.996614 
L 1036.910179 160.22813 
L 1039.545362 162.413792 
L 1042.180545 170.413117 
L 1044.815728 172.982287 
L 1047.450911 174.992901 
L 1050.086094 174.169244 
L 1052.721277 174.577697 
L 1055.35646 175.844483 
L 1057.991643 177.63948 
L 1060.626826 184.557627 
L 1063.262009 185.813852 
L 1065.897192 187.824466 
L 1068.532375 193.255832 
L 1073.802741 195.050829 
L 1076.437924 198.009453 
L 1079.073107 215.420803 
L 1081.70829 222.647166 
L 1084.343473 225.605789 
L 1086.978656 222.647166 
L 1086.978656 222.647166 
" style="fill:none;stroke:#d18cad;stroke-linecap:square;stroke-width:2;"/>
   </g>
   <g id="line2d_21">
    <path clip-path="url(#p8132081b34)" d="M 499.332848 217.606465 
L 501.968031 228.96 
L 583.658704 228.96 
L 586.293887 225.605789 
L 602.104985 225.605789 
L 604.740168 228.96 
L 615.280899 228.96 
L 617.916082 225.605789 
L 625.821631 225.605789 
L 628.456814 222.647166 
L 631.091997 217.606465 
L 633.72718 217.606465 
L 636.362363 220.000587 
L 638.997546 217.606465 
L 641.632729 217.606465 
L 644.267912 213.410188 
L 646.903095 215.420803 
L 649.538278 220.000587 
L 652.173461 215.420803 
L 654.808644 206.671593 
L 657.443827 208.19444 
L 660.07901 203.877687 
L 662.714193 201.363664 
L 665.349376 195.998839 
L 667.984559 191.580594 
L 670.619742 193.255832 
L 673.254925 187.136224 
L 675.890108 185.177887 
L 678.525291 185.813852 
L 683.795657 185.813852 
L 686.43084 183.952314 
L 689.066023 179.572685 
L 691.701206 181.12695 
L 694.336389 180.598103 
L 696.971572 181.66717 
L 702.241938 185.177887 
L 704.877121 188.532098 
L 707.512304 189.260244 
L 710.147487 190.78309 
L 712.78267 190.78309 
L 715.417853 187.824466 
L 718.053036 185.813852 
L 720.688219 187.136224 
L 723.323402 185.813852 
L 725.958585 190.78309 
L 728.593768 198.009453 
L 731.228951 202.589237 
L 733.864134 208.19444 
L 736.499317 215.420803 
L 739.1345 211.54865 
L 741.769683 220.000587 
L 744.404866 215.420803 
L 747.040049 213.410188 
L 749.675232 211.54865 
L 754.945598 211.54865 
L 757.580781 213.410188 
L 760.215964 211.54865 
L 762.851147 213.410188 
L 765.48633 211.54865 
L 770.756696 211.54865 
L 773.391879 208.19444 
L 776.027062 209.8156 
L 778.662245 213.410188 
L 781.297428 211.54865 
L 786.567794 211.54865 
L 789.202977 209.8156 
L 791.83816 203.877687 
L 794.473343 202.589237 
L 797.108526 198.009453 
L 799.743709 187.824466 
L 802.378892 185.813852 
L 805.014075 182.219264 
L 807.649258 181.66717 
L 810.284441 179.075257 
L 812.919624 175.844483 
L 815.554807 174.992901 
L 818.18999 179.572685 
L 820.825173 180.080162 
L 823.460356 167.146277 
L 826.095539 161.41884 
L 828.730722 152.655289 
L 831.365905 150.991153 
L 834.001088 151.478921 
L 836.636271 150.043143 
L 839.271454 149.582227 
L 841.906637 155.378451 
L 844.54182 158.650617 
L 847.177003 168.726627 
L 849.812186 169.054988 
L 852.447369 165.659496 
L 855.082552 166.243692 
L 857.717735 166.243692 
L 860.352918 164.53035 
L 862.988101 163.7156 
L 865.623284 165.372416 
L 868.258467 163.984258 
L 870.89365 166.540965 
L 873.528833 157.373091 
L 876.164016 153.530613 
L 878.799199 152.827931 
L 884.069565 150.043143 
L 886.704748 150.830646 
L 889.339931 148.392927 
L 891.975114 153.709399 
L 894.610297 155.960391 
L 897.24548 155.187429 
L 899.880663 152.144371 
L 902.515846 152.827931 
L 905.151029 153.001767 
L 907.786212 152.655289 
L 910.421395 153.889466 
L 913.056578 153.001767 
L 915.691761 153.176815 
L 918.326944 156.556132 
L 920.962127 155.960391 
L 923.59731 154.997849 
L 926.232493 156.757895 
L 928.867676 154.809689 
L 931.502859 153.530613 
L 934.138042 153.530613 
L 936.773225 152.144371 
L 939.408408 150.355188 
L 942.043591 149.888563 
L 947.313957 147.818747 
L 949.94914 149.888563 
L 952.584323 147.961066 
L 955.219506 148.538546 
L 957.854689 149.279581 
L 960.489872 146.981361 
L 963.125055 146.43822 
L 965.760238 144.375994 
L 968.395421 141.679968 
L 971.030604 141.021784 
L 973.665787 141.791362 
L 976.30097 143.286313 
L 978.936153 145.515098 
L 981.571336 146.572908 
L 984.206519 149.430448 
L 986.841702 149.129615 
L 989.476885 147.119001 
L 992.112068 139.65226 
L 994.747251 134.902175 
L 997.382434 132.943838 
L 1000.017617 129.433121 
L 1002.6528 125.521994 
L 1005.287983 123.074822 
L 1007.923166 121.683245 
L 1010.558349 121.483488 
L 1013.193532 120.555752 
L 1015.828715 119.339311 
L 1018.463898 119.066767 
L 1021.099081 119.111986 
L 1023.734264 118.005231 
L 1026.369447 114.120708 
L 1029.00463 111.381541 
L 1034.274996 105.061314 
L 1036.910179 101.318843 
L 1039.545362 98.898394 
L 1042.180545 96.249791 
L 1044.815728 95.655757 
L 1047.450911 94.288267 
L 1050.086094 93.184126 
L 1052.721277 93.039439 
L 1055.35646 94.627492 
L 1057.991643 97.367215 
L 1063.262009 106.691099 
L 1065.897192 113.679363 
L 1068.532375 123.3412 
L 1073.802741 148.538546 
L 1076.437924 152.483826 
L 1079.073107 153.353091 
L 1081.70829 152.144371 
L 1084.343473 149.734928 
L 1086.978656 150.671158 
L 1089.613839 149.582227 
L 1092.249022 152.483826 
L 1094.884205 155.960391 
L 1097.519388 160.22813 
L 1100.154571 167.146277 
L 1102.789754 179.075257 
L 1105.424937 195.050829 
L 1108.06012 215.420803 
L 1108.06012 215.420803 
" style="fill:none;stroke:#a4a86f;stroke-linecap:square;stroke-width:2;"/>
   </g>
   <g id="line2d_22">
    <path clip-path="url(#p8132081b34)" d="M 420.277358 225.605789 
L 422.912541 228.96 
L 483.52175 228.96 
L 486.156933 222.647166 
L 501.968031 222.647166 
L 504.603214 228.96 
L 557.306874 228.96 
L 559.942057 215.420803 
L 575.753155 215.420803 
L 578.388338 228.96 
L 638.997546 228.96 
L 641.632729 215.420803 
L 657.443827 215.420803 
L 660.07901 228.96 
L 662.714193 225.605789 
L 667.984559 225.605789 
L 670.619742 222.647166 
L 675.890108 222.647166 
L 678.525291 220.000587 
L 681.160474 222.647166 
L 683.795657 220.000587 
L 686.43084 220.000587 
L 689.066023 217.606465 
L 699.606755 217.606465 
L 702.241938 220.000587 
L 704.877121 220.000587 
L 707.512304 225.605789 
L 712.78267 225.605789 
L 715.417853 228.96 
L 718.053036 228.96 
L 720.688219 217.606465 
L 736.499317 217.606465 
L 739.1345 220.000587 
L 754.945598 220.000587 
L 757.580781 222.647166 
L 760.215964 222.647166 
L 762.851147 220.000587 
L 773.391879 220.000587 
L 776.027062 225.605789 
L 778.662245 225.605789 
L 781.297428 228.96 
L 783.932611 225.605789 
L 789.202977 225.605789 
L 791.83816 222.647166 
L 794.473343 222.647166 
L 797.108526 220.000587 
L 799.743709 215.420803 
L 802.378892 209.8156 
L 805.014075 208.19444 
L 807.649258 203.877687 
L 812.919624 203.877687 
L 815.554807 201.363664 
L 818.18999 201.363664 
L 820.825173 203.877687 
L 823.460356 200.195115 
L 826.095539 196.984034 
L 828.730722 198.009453 
L 831.365905 196.984034 
L 834.001088 200.195115 
L 836.636271 198.009453 
L 839.271454 198.009453 
L 841.906637 199.078519 
L 844.54182 202.589237 
L 847.177003 192.40425 
L 849.812186 185.177887 
L 852.447369 182.219264 
L 855.082552 168.402503 
L 857.717735 163.186754 
L 860.352918 159.996614 
L 862.988101 158.433133 
L 868.258467 156.757895 
L 870.89365 157.373091 
L 873.528833 159.314601 
L 876.164016 157.581551 
L 881.434382 148.980539 
L 884.069565 147.818747 
L 886.704748 147.536505 
L 889.339931 145.906575 
L 891.975114 143.76479 
L 894.610297 140.486171 
L 897.24548 138.353559 
L 899.880663 137.492243 
L 902.515846 137.118715 
L 907.786212 137.304785 
L 910.421395 136.659484 
L 913.056578 138.647355 
L 915.691761 141.569066 
L 918.326944 141.239268 
L 920.962127 139.245461 
L 923.59731 138.353559 
L 926.232493 136.478116 
L 928.867676 130.478456 
L 931.502859 127.338636 
L 934.138042 126.902851 
L 936.773225 127.275916 
L 939.408408 126.113063 
L 942.043591 125.347352 
L 944.678774 126.232964 
L 947.313957 127.782115 
L 949.94914 126.053326 
L 952.584323 123.502394 
L 955.219506 120.555752 
L 960.489872 117.23752 
L 963.125055 114.950549 
L 965.760238 109.739595 
L 968.395421 106.553459 
L 971.030604 104.473253 
L 973.665787 101.973675 
L 976.30097 101.79132 
L 978.936153 102.552219 
L 981.571336 102.552219 
L 984.206519 103.948093 
L 986.841702 105.663472 
L 989.476885 106.968663 
L 992.112068 110.822215 
L 994.747251 111.182706 
L 997.382434 110.21148 
L 1000.017617 109.833265 
L 1002.6528 105.769685 
L 1005.287983 103.579588 
L 1007.923166 103.800041 
L 1013.193532 101.655417 
L 1015.828715 101.520246 
L 1018.463898 100.964733 
L 1021.099081 98.797392 
L 1023.734264 98.101522 
L 1026.369447 96.951698 
L 1029.00463 97.69307 
L 1031.639813 98.757104 
L 1036.910179 98.736984 
L 1039.545362 101.723277 
L 1042.180545 103.216412 
L 1044.815728 100.572237 
L 1047.450911 98.576605 
L 1050.086094 98.042764 
L 1052.721277 98.53667 
L 1055.35646 100.058269 
L 1057.991643 105.243056 
L 1060.626826 109.399094 
L 1065.897192 123.992276 
L 1068.532375 130.549717 
L 1071.167558 133.985616 
L 1073.802741 137.118715 
L 1076.437924 140.592384 
L 1079.073107 145.644914 
L 1081.70829 153.176815 
L 1084.343473 157.581551 
L 1086.978656 159.539888 
L 1089.613839 161.91139 
L 1092.249022 162.413792 
L 1094.884205 176.725951 
L 1097.519388 187.824466 
L 1100.154571 195.998839 
L 1105.424937 198.009453 
L 1108.06012 198.009453 
L 1110.695303 199.078519 
L 1115.965669 199.078519 
L 1118.600852 193.255832 
L 1118.600852 193.255832 
" style="fill:none;stroke:#d3d3d3;stroke-linecap:square;stroke-width:2;"/>
   </g>
   <g id="patch_3">
    <path d="M 53.328125 228.96 
L 53.328125 7.2 
" style="fill:none;stroke:#000000;stroke-linecap:square;stroke-linejoin:miter;stroke-width:0.8;"/>
   </g>
   <g id="patch_4">
    <path d="M 53.328125 228.96 
L 1169.328125 228.96 
" style="fill:none;stroke:#000000;stroke-linecap:square;stroke-linejoin:miter;stroke-width:0.8;"/>
   </g>
   <g id="legend_1">
    <g id="line2d_23">
     <path d="M 60.528125 17.67875 
L 76.528125 17.67875 
" style="fill:none;stroke:#947383;stroke-linecap:square;stroke-width:2;"/>
    </g>
    <g id="line2d_24"/>
    <g id="text_18">
     <!-- North America -->
     <g transform="translate(82.928125 20.47875)scale(0.08 -0.08)">
      <defs>
       <path d="M 628 4666 
L 1478 4666 
L 3547 763 
L 3547 4666 
L 4159 4666 
L 4159 0 
L 3309 0 
L 1241 3903 
L 1241 0 
L 628 0 
L 628 4666 
z
" id="DejaVuSans-4e" transform="scale(0.015625)"/>
       <path d="M 3513 2113 
L 3513 0 
L 2938 0 
L 2938 2094 
Q 2938 2591 2744 2837 
Q 2550 3084 2163 3084 
Q 1697 3084 1428 2787 
Q 1159 2491 1159 1978 
L 1159 0 
L 581 0 
L 581 4863 
L 1159 4863 
L 1159 2956 
Q 1366 3272 1645 3428 
Q 1925 3584 2291 3584 
Q 2894 3584 3203 3211 
Q 3513 2838 3513 2113 
z
" id="DejaVuSans-68" transform="scale(0.015625)"/>
       <path d="M 2188 4044 
L 1331 1722 
L 3047 1722 
L 2188 4044 
z
M 1831 4666 
L 2547 4666 
L 4325 0 
L 3669 0 
L 3244 1197 
L 1141 1197 
L 716 0 
L 50 0 
L 1831 4666 
z
" id="DejaVuSans-41" transform="scale(0.015625)"/>
       <path d="M 3328 2828 
Q 3544 3216 3844 3400 
Q 4144 3584 4550 3584 
Q 5097 3584 5394 3201 
Q 5691 2819 5691 2113 
L 5691 0 
L 5113 0 
L 5113 2094 
Q 5113 2597 4934 2840 
Q 4756 3084 4391 3084 
Q 3944 3084 3684 2787 
Q 3425 2491 3425 1978 
L 3425 0 
L 2847 0 
L 2847 2094 
Q 2847 2600 2669 2842 
Q 2491 3084 2119 3084 
Q 1678 3084 1418 2786 
Q 1159 2488 1159 1978 
L 1159 0 
L 581 0 
L 581 3500 
L 1159 3500 
L 1159 2956 
Q 1356 3278 1631 3431 
Q 1906 3584 2284 3584 
Q 2666 3584 2933 3390 
Q 3200 3197 3328 2828 
z
" id="DejaVuSans-6d" transform="scale(0.015625)"/>
       <path d="M 3122 3366 
L 3122 2828 
Q 2878 2963 2633 3030 
Q 2388 3097 2138 3097 
Q 1578 3097 1268 2742 
Q 959 2388 959 1747 
Q 959 1106 1268 751 
Q 1578 397 2138 397 
Q 2388 397 2633 464 
Q 2878 531 3122 666 
L 3122 134 
Q 2881 22 2623 -34 
Q 2366 -91 2075 -91 
Q 1284 -91 818 406 
Q 353 903 353 1747 
Q 353 2603 823 3093 
Q 1294 3584 2113 3584 
Q 2378 3584 2631 3529 
Q 2884 3475 3122 3366 
z
" id="DejaVuSans-63" transform="scale(0.015625)"/>
      </defs>
      <use xlink:href="#DejaVuSans-4e"/>
      <use x="74.804688" xlink:href="#DejaVuSans-6f"/>
      <use x="135.986328" xlink:href="#DejaVuSans-72"/>
      <use x="177.099609" xlink:href="#DejaVuSans-74"/>
      <use x="216.308594" xlink:href="#DejaVuSans-68"/>
      <use x="279.6875" xlink:href="#DejaVuSans-20"/>
      <use x="311.474609" xlink:href="#DejaVuSans-41"/>
      <use x="379.882812" xlink:href="#DejaVuSans-6d"/>
      <use x="477.294922" xlink:href="#DejaVuSans-65"/>
      <use x="538.818359" xlink:href="#DejaVuSans-72"/>
      <use x="579.931641" xlink:href="#DejaVuSans-69"/>
      <use x="607.714844" xlink:href="#DejaVuSans-63"/>
      <use x="662.695312" xlink:href="#DejaVuSans-61"/>
     </g>
    </g>
    <g id="line2d_25">
     <path d="M 60.528125 29.42125 
L 76.528125 29.42125 
" style="fill:none;stroke:#96c6ad;stroke-linecap:square;stroke-width:2;"/>
    </g>
    <g id="line2d_26"/>
    <g id="text_19">
     <!-- United Kingdom -->
     <g transform="translate(82.928125 32.22125)scale(0.08 -0.08)">
      <defs>
       <path d="M 556 4666 
L 1191 4666 
L 1191 1831 
Q 1191 1081 1462 751 
Q 1734 422 2344 422 
Q 2950 422 3222 751 
Q 3494 1081 3494 1831 
L 3494 4666 
L 4128 4666 
L 4128 1753 
Q 4128 841 3676 375 
Q 3225 -91 2344 -91 
Q 1459 -91 1007 375 
Q 556 841 556 1753 
L 556 4666 
z
" id="DejaVuSans-55" transform="scale(0.015625)"/>
       <path d="M 628 4666 
L 1259 4666 
L 1259 2694 
L 3353 4666 
L 4166 4666 
L 1850 2491 
L 4331 0 
L 3500 0 
L 1259 2247 
L 1259 0 
L 628 0 
L 628 4666 
z
" id="DejaVuSans-4b" transform="scale(0.015625)"/>
      </defs>
      <use xlink:href="#DejaVuSans-55"/>
      <use x="73.193359" xlink:href="#DejaVuSans-6e"/>
      <use x="136.572266" xlink:href="#DejaVuSans-69"/>
      <use x="164.355469" xlink:href="#DejaVuSans-74"/>
      <use x="203.564453" xlink:href="#DejaVuSans-65"/>
      <use x="265.087891" xlink:href="#DejaVuSans-64"/>
      <use x="328.564453" xlink:href="#DejaVuSans-20"/>
      <use x="360.351562" xlink:href="#DejaVuSans-4b"/>
      <use x="425.927734" xlink:href="#DejaVuSans-69"/>
      <use x="453.710938" xlink:href="#DejaVuSans-6e"/>
      <use x="517.089844" xlink:href="#DejaVuSans-67"/>
      <use x="580.566406" xlink:href="#DejaVuSans-64"/>
      <use x="644.042969" xlink:href="#DejaVuSans-6f"/>
      <use x="705.224609" xlink:href="#DejaVuSans-6d"/>
     </g>
    </g>
    <g id="line2d_27">
     <path d="M 60.528125 41.16375 
L 76.528125 41.16375 
" style="fill:none;stroke:#525886;stroke-linecap:square;stroke-width:2;"/>
    </g>
    <g id="line2d_28"/>
    <g id="text_20">
     <!-- Europe -->
     <g transform="translate(82.928125 43.96375)scale(0.08 -0.08)">
      <defs>
       <path d="M 628 4666 
L 3578 4666 
L 3578 4134 
L 1259 4134 
L 1259 2753 
L 3481 2753 
L 3481 2222 
L 1259 2222 
L 1259 531 
L 3634 531 
L 3634 0 
L 628 0 
L 628 4666 
z
" id="DejaVuSans-45" transform="scale(0.015625)"/>
       <path d="M 1159 525 
L 1159 -1331 
L 581 -1331 
L 581 3500 
L 1159 3500 
L 1159 2969 
Q 1341 3281 1617 3432 
Q 1894 3584 2278 3584 
Q 2916 3584 3314 3078 
Q 3713 2572 3713 1747 
Q 3713 922 3314 415 
Q 2916 -91 2278 -91 
Q 1894 -91 1617 61 
Q 1341 213 1159 525 
z
M 3116 1747 
Q 3116 2381 2855 2742 
Q 2594 3103 2138 3103 
Q 1681 3103 1420 2742 
Q 1159 2381 1159 1747 
Q 1159 1113 1420 752 
Q 1681 391 2138 391 
Q 2594 391 2855 752 
Q 3116 1113 3116 1747 
z
" id="DejaVuSans-70" transform="scale(0.015625)"/>
      </defs>
      <use xlink:href="#DejaVuSans-45"/>
      <use x="63.183594" xlink:href="#DejaVuSans-75"/>
      <use x="126.5625" xlink:href="#DejaVuSans-72"/>
      <use x="165.425781" xlink:href="#DejaVuSans-6f"/>
      <use x="226.607422" xlink:href="#DejaVuSans-70"/>
      <use x="290.083984" xlink:href="#DejaVuSans-65"/>
     </g>
    </g>
    <g id="line2d_29">
     <path d="M 60.528125 52.90625 
L 76.528125 52.90625 
" style="fill:none;stroke:#937252;stroke-linecap:square;stroke-width:2;"/>
    </g>
    <g id="line2d_30"/>
    <g id="text_21">
     <!-- Asia -->
     <g transform="translate(82.928125 55.70625)scale(0.08 -0.08)">
      <defs>
       <path d="M 2834 3397 
L 2834 2853 
Q 2591 2978 2328 3040 
Q 2066 3103 1784 3103 
Q 1356 3103 1142 2972 
Q 928 2841 928 2578 
Q 928 2378 1081 2264 
Q 1234 2150 1697 2047 
L 1894 2003 
Q 2506 1872 2764 1633 
Q 3022 1394 3022 966 
Q 3022 478 2636 193 
Q 2250 -91 1575 -91 
Q 1294 -91 989 -36 
Q 684 19 347 128 
L 347 722 
Q 666 556 975 473 
Q 1284 391 1588 391 
Q 1994 391 2212 530 
Q 2431 669 2431 922 
Q 2431 1156 2273 1281 
Q 2116 1406 1581 1522 
L 1381 1569 
Q 847 1681 609 1914 
Q 372 2147 372 2553 
Q 372 3047 722 3315 
Q 1072 3584 1716 3584 
Q 2034 3584 2315 3537 
Q 2597 3491 2834 3397 
z
" id="DejaVuSans-73" transform="scale(0.015625)"/>
      </defs>
      <use xlink:href="#DejaVuSans-41"/>
      <use x="68.408203" xlink:href="#DejaVuSans-73"/>
      <use x="120.507812" xlink:href="#DejaVuSans-69"/>
      <use x="148.291016" xlink:href="#DejaVuSans-61"/>
     </g>
    </g>
    <g id="line2d_31">
     <path d="M 60.528125 64.64875 
L 76.528125 64.64875 
" style="fill:none;stroke:#d18cad;stroke-linecap:square;stroke-width:2;"/>
    </g>
    <g id="line2d_32"/>
    <g id="text_22">
     <!-- Africa -->
     <g transform="translate(82.928125 67.44875)scale(0.08 -0.08)">
      <defs>
       <path d="M 2375 4863 
L 2375 4384 
L 1825 4384 
Q 1516 4384 1395 4259 
Q 1275 4134 1275 3809 
L 1275 3500 
L 2222 3500 
L 2222 3053 
L 1275 3053 
L 1275 0 
L 697 0 
L 697 3053 
L 147 3053 
L 147 3500 
L 697 3500 
L 697 3744 
Q 697 4328 969 4595 
Q 1241 4863 1831 4863 
L 2375 4863 
z
" id="DejaVuSans-66" transform="scale(0.015625)"/>
      </defs>
      <use xlink:href="#DejaVuSans-41"/>
      <use x="64.783203" xlink:href="#DejaVuSans-66"/>
      <use x="99.988281" xlink:href="#DejaVuSans-72"/>
      <use x="141.101562" xlink:href="#DejaVuSans-69"/>
      <use x="168.884766" xlink:href="#DejaVuSans-63"/>
      <use x="223.865234" xlink:href="#DejaVuSans-61"/>
     </g>
    </g>
    <g id="line2d_33">
     <path d="M 60.528125 76.39125 
L 76.528125 76.39125 
" style="fill:none;stroke:#a4a86f;stroke-linecap:square;stroke-width:2;"/>
    </g>
    <g id="line2d_34"/>
    <g id="text_23">
     <!-- Oceania -->
     <g transform="translate(82.928125 79.19125)scale(0.08 -0.08)">
      <defs>
       <path d="M 2522 4238 
Q 1834 4238 1429 3725 
Q 1025 3213 1025 2328 
Q 1025 1447 1429 934 
Q 1834 422 2522 422 
Q 3209 422 3611 934 
Q 4013 1447 4013 2328 
Q 4013 3213 3611 3725 
Q 3209 4238 2522 4238 
z
M 2522 4750 
Q 3503 4750 4090 4092 
Q 4678 3434 4678 2328 
Q 4678 1225 4090 567 
Q 3503 -91 2522 -91 
Q 1538 -91 948 565 
Q 359 1222 359 2328 
Q 359 3434 948 4092 
Q 1538 4750 2522 4750 
z
" id="DejaVuSans-4f" transform="scale(0.015625)"/>
      </defs>
      <use xlink:href="#DejaVuSans-4f"/>
      <use x="78.710938" xlink:href="#DejaVuSans-63"/>
      <use x="133.691406" xlink:href="#DejaVuSans-65"/>
      <use x="195.214844" xlink:href="#DejaVuSans-61"/>
      <use x="256.494141" xlink:href="#DejaVuSans-6e"/>
      <use x="319.873047" xlink:href="#DejaVuSans-69"/>
      <use x="347.65625" xlink:href="#DejaVuSans-61"/>
     </g>
    </g>
    <g id="line2d_35">
     <path d="M 60.528125 88.13375 
L 76.528125 88.13375 
" style="fill:none;stroke:#d3d3d3;stroke-linecap:square;stroke-width:2;"/>
    </g>
    <g id="line2d_36"/>
    <g id="text_24">
     <!-- South America -->
     <g transform="translate(82.928125 90.93375)scale(0.08 -0.08)">
      <defs>
       <path d="M 3425 4513 
L 3425 3897 
Q 3066 4069 2747 4153 
Q 2428 4238 2131 4238 
Q 1616 4238 1336 4038 
Q 1056 3838 1056 3469 
Q 1056 3159 1242 3001 
Q 1428 2844 1947 2747 
L 2328 2669 
Q 3034 2534 3370 2195 
Q 3706 1856 3706 1288 
Q 3706 609 3251 259 
Q 2797 -91 1919 -91 
Q 1588 -91 1214 -16 
Q 841 59 441 206 
L 441 856 
Q 825 641 1194 531 
Q 1563 422 1919 422 
Q 2459 422 2753 634 
Q 3047 847 3047 1241 
Q 3047 1584 2836 1778 
Q 2625 1972 2144 2069 
L 1759 2144 
Q 1053 2284 737 2584 
Q 422 2884 422 3419 
Q 422 4038 858 4394 
Q 1294 4750 2059 4750 
Q 2388 4750 2728 4690 
Q 3069 4631 3425 4513 
z
" id="DejaVuSans-53" transform="scale(0.015625)"/>
      </defs>
      <use xlink:href="#DejaVuSans-53"/>
      <use x="63.476562" xlink:href="#DejaVuSans-6f"/>
      <use x="124.658203" xlink:href="#DejaVuSans-75"/>
      <use x="188.037109" xlink:href="#DejaVuSans-74"/>
      <use x="227.246094" xlink:href="#DejaVuSans-68"/>
      <use x="290.625" xlink:href="#DejaVuSans-20"/>
      <use x="322.412109" xlink:href="#DejaVuSans-41"/>
      <use x="390.820312" xlink:href="#DejaVuSans-6d"/>
      <use x="488.232422" xlink:href="#DejaVuSans-65"/>
      <use x="549.755859" xlink:href="#DejaVuSans-72"/>
      <use x="590.869141" xlink:href="#DejaVuSans-69"/>
      <use x="618.652344" xlink:href="#DejaVuSans-63"/>
      <use x="673.632812" xlink:href="#DejaVuSans-61"/>
     </g>
    </g>
   </g>
  </g>
 </g>
 <defs>
  <clipPath id="p8132081b34">
   <rect height="221.76" width="1116" x="53.328125" y="7.2"/>
  </clipPath>
 </defs>
</svg>
