<?xml version="1.0" encoding="utf-8" standalone="no"?>
<!DOCTYPE svg PUBLIC "-//W3C//DTD SVG 1.1//EN"
  "http://www.w3.org/Graphics/SVG/1.1/DTD/svg11.dtd">
<svg height="298.620937pt" version="1.1" viewBox="0 0 1170.165625 298.620937" width="1170.165625pt" xmlns="http://www.w3.org/2000/svg" xmlns:xlink="http://www.w3.org/1999/xlink">
 <metadata>
  <rdf:RDF xmlns:cc="http://creativecommons.org/ns#" xmlns:dc="http://purl.org/dc/elements/1.1/" xmlns:rdf="http://www.w3.org/1999/02/22-rdf-syntax-ns#">
   <cc:Work>
    <dc:type rdf:resource="http://purl.org/dc/dcmitype/StillImage"/>
    <dc:date>2021-12-15T15:36:21.035079</dc:date>
    <dc:format>image/svg+xml</dc:format>
    <dc:creator>
     <cc:Agent>
      <dc:title>Matplotlib v3.4.2, https://matplotlib.org/</dc:title>
     </cc:Agent>
    </dc:creator>
   </cc:Work>
  </rdf:RDF>
 </metadata>
 <defs>
  <style type="text/css">*{stroke-linecap:butt;stroke-linejoin:round;}</style>
 </defs>
 <g id="figure_1">
  <g id="patch_1">
   <path d="M 0 298.620937 
L 1170.165625 298.620937 
L 1170.165625 0 
L 0 0 
z
" style="fill:#ffffff;"/>
  </g>
  <g id="axes_1">
   <g id="patch_2">
    <path d="M 46.965625 228.96 
L 1162.965625 228.96 
L 1162.965625 7.2 
L 46.965625 7.2 
z
" style="fill:#ffffff;"/>
   </g>
   <g id="matplotlib.axis_1">
    <g id="xtick_1">
     <g id="line2d_1">
      <defs>
       <path d="M 0 0 
L 0 3.5 
" id="m4d31a3d0ba" style="stroke:#000000;stroke-width:0.8;"/>
      </defs>
      <g>
       <use style="stroke:#000000;stroke-width:0.8;" x="84.195619" xlink:href="#m4d31a3d0ba" y="228.96"/>
      </g>
     </g>
     <g id="text_1">
      <!-- 2020-09 -->
      <g transform="translate(86.954994 277.742812)rotate(-90)scale(0.1 -0.1)">
       <defs>
        <path d="M 1228 531 
L 3431 531 
L 3431 0 
L 469 0 
L 469 531 
Q 828 903 1448 1529 
Q 2069 2156 2228 2338 
Q 2531 2678 2651 2914 
Q 2772 3150 2772 3378 
Q 2772 3750 2511 3984 
Q 2250 4219 1831 4219 
Q 1534 4219 1204 4116 
Q 875 4013 500 3803 
L 500 4441 
Q 881 4594 1212 4672 
Q 1544 4750 1819 4750 
Q 2544 4750 2975 4387 
Q 3406 4025 3406 3419 
Q 3406 3131 3298 2873 
Q 3191 2616 2906 2266 
Q 2828 2175 2409 1742 
Q 1991 1309 1228 531 
z
" id="DejaVuSans-32" transform="scale(0.015625)"/>
        <path d="M 2034 4250 
Q 1547 4250 1301 3770 
Q 1056 3291 1056 2328 
Q 1056 1369 1301 889 
Q 1547 409 2034 409 
Q 2525 409 2770 889 
Q 3016 1369 3016 2328 
Q 3016 3291 2770 3770 
Q 2525 4250 2034 4250 
z
M 2034 4750 
Q 2819 4750 3233 4129 
Q 3647 3509 3647 2328 
Q 3647 1150 3233 529 
Q 2819 -91 2034 -91 
Q 1250 -91 836 529 
Q 422 1150 422 2328 
Q 422 3509 836 4129 
Q 1250 4750 2034 4750 
z
" id="DejaVuSans-30" transform="scale(0.015625)"/>
        <path d="M 313 2009 
L 1997 2009 
L 1997 1497 
L 313 1497 
L 313 2009 
z
" id="DejaVuSans-2d" transform="scale(0.015625)"/>
        <path d="M 703 97 
L 703 672 
Q 941 559 1184 500 
Q 1428 441 1663 441 
Q 2288 441 2617 861 
Q 2947 1281 2994 2138 
Q 2813 1869 2534 1725 
Q 2256 1581 1919 1581 
Q 1219 1581 811 2004 
Q 403 2428 403 3163 
Q 403 3881 828 4315 
Q 1253 4750 1959 4750 
Q 2769 4750 3195 4129 
Q 3622 3509 3622 2328 
Q 3622 1225 3098 567 
Q 2575 -91 1691 -91 
Q 1453 -91 1209 -44 
Q 966 3 703 97 
z
M 1959 2075 
Q 2384 2075 2632 2365 
Q 2881 2656 2881 3163 
Q 2881 3666 2632 3958 
Q 2384 4250 1959 4250 
Q 1534 4250 1286 3958 
Q 1038 3666 1038 3163 
Q 1038 2656 1286 2365 
Q 1534 2075 1959 2075 
z
" id="DejaVuSans-39" transform="scale(0.015625)"/>
       </defs>
       <use xlink:href="#DejaVuSans-32"/>
       <use x="63.623047" xlink:href="#DejaVuSans-30"/>
       <use x="127.246094" xlink:href="#DejaVuSans-32"/>
       <use x="190.869141" xlink:href="#DejaVuSans-30"/>
       <use x="254.492188" xlink:href="#DejaVuSans-2d"/>
       <use x="290.576172" xlink:href="#DejaVuSans-30"/>
       <use x="354.199219" xlink:href="#DejaVuSans-39"/>
      </g>
     </g>
    </g>
    <g id="xtick_2">
     <g id="line2d_2">
      <g>
       <use style="stroke:#000000;stroke-width:0.8;" x="221.417953" xlink:href="#m4d31a3d0ba" y="228.96"/>
      </g>
     </g>
     <g id="text_2">
      <!-- 2020-11 -->
      <g transform="translate(224.177328 277.742812)rotate(-90)scale(0.1 -0.1)">
       <defs>
        <path d="M 794 531 
L 1825 531 
L 1825 4091 
L 703 3866 
L 703 4441 
L 1819 4666 
L 2450 4666 
L 2450 531 
L 3481 531 
L 3481 0 
L 794 0 
L 794 531 
z
" id="DejaVuSans-31" transform="scale(0.015625)"/>
       </defs>
       <use xlink:href="#DejaVuSans-32"/>
       <use x="63.623047" xlink:href="#DejaVuSans-30"/>
       <use x="127.246094" xlink:href="#DejaVuSans-32"/>
       <use x="190.869141" xlink:href="#DejaVuSans-30"/>
       <use x="254.492188" xlink:href="#DejaVuSans-2d"/>
       <use x="290.576172" xlink:href="#DejaVuSans-31"/>
       <use x="354.199219" xlink:href="#DejaVuSans-31"/>
      </g>
     </g>
    </g>
    <g id="xtick_3">
     <g id="line2d_3">
      <g>
       <use style="stroke:#000000;stroke-width:0.8;" x="358.640287" xlink:href="#m4d31a3d0ba" y="228.96"/>
      </g>
     </g>
     <g id="text_3">
      <!-- 2021-01 -->
      <g transform="translate(361.399662 277.742812)rotate(-90)scale(0.1 -0.1)">
       <use xlink:href="#DejaVuSans-32"/>
       <use x="63.623047" xlink:href="#DejaVuSans-30"/>
       <use x="127.246094" xlink:href="#DejaVuSans-32"/>
       <use x="190.869141" xlink:href="#DejaVuSans-31"/>
       <use x="254.492188" xlink:href="#DejaVuSans-2d"/>
       <use x="290.576172" xlink:href="#DejaVuSans-30"/>
       <use x="354.199219" xlink:href="#DejaVuSans-31"/>
      </g>
     </g>
    </g>
    <g id="xtick_4">
     <g id="line2d_4">
      <g>
       <use style="stroke:#000000;stroke-width:0.8;" x="491.363529" xlink:href="#m4d31a3d0ba" y="228.96"/>
      </g>
     </g>
     <g id="text_4">
      <!-- 2021-03 -->
      <g transform="translate(494.122904 277.742812)rotate(-90)scale(0.1 -0.1)">
       <defs>
        <path d="M 2597 2516 
Q 3050 2419 3304 2112 
Q 3559 1806 3559 1356 
Q 3559 666 3084 287 
Q 2609 -91 1734 -91 
Q 1441 -91 1130 -33 
Q 819 25 488 141 
L 488 750 
Q 750 597 1062 519 
Q 1375 441 1716 441 
Q 2309 441 2620 675 
Q 2931 909 2931 1356 
Q 2931 1769 2642 2001 
Q 2353 2234 1838 2234 
L 1294 2234 
L 1294 2753 
L 1863 2753 
Q 2328 2753 2575 2939 
Q 2822 3125 2822 3475 
Q 2822 3834 2567 4026 
Q 2313 4219 1838 4219 
Q 1578 4219 1281 4162 
Q 984 4106 628 3988 
L 628 4550 
Q 988 4650 1302 4700 
Q 1616 4750 1894 4750 
Q 2613 4750 3031 4423 
Q 3450 4097 3450 3541 
Q 3450 3153 3228 2886 
Q 3006 2619 2597 2516 
z
" id="DejaVuSans-33" transform="scale(0.015625)"/>
       </defs>
       <use xlink:href="#DejaVuSans-32"/>
       <use x="63.623047" xlink:href="#DejaVuSans-30"/>
       <use x="127.246094" xlink:href="#DejaVuSans-32"/>
       <use x="190.869141" xlink:href="#DejaVuSans-31"/>
       <use x="254.492188" xlink:href="#DejaVuSans-2d"/>
       <use x="290.576172" xlink:href="#DejaVuSans-30"/>
       <use x="354.199219" xlink:href="#DejaVuSans-33"/>
      </g>
     </g>
    </g>
    <g id="xtick_5">
     <g id="line2d_5">
      <g>
       <use style="stroke:#000000;stroke-width:0.8;" x="628.585863" xlink:href="#m4d31a3d0ba" y="228.96"/>
      </g>
     </g>
     <g id="text_5">
      <!-- 2021-05 -->
      <g transform="translate(631.345238 277.742812)rotate(-90)scale(0.1 -0.1)">
       <defs>
        <path d="M 691 4666 
L 3169 4666 
L 3169 4134 
L 1269 4134 
L 1269 2991 
Q 1406 3038 1543 3061 
Q 1681 3084 1819 3084 
Q 2600 3084 3056 2656 
Q 3513 2228 3513 1497 
Q 3513 744 3044 326 
Q 2575 -91 1722 -91 
Q 1428 -91 1123 -41 
Q 819 9 494 109 
L 494 744 
Q 775 591 1075 516 
Q 1375 441 1709 441 
Q 2250 441 2565 725 
Q 2881 1009 2881 1497 
Q 2881 1984 2565 2268 
Q 2250 2553 1709 2553 
Q 1456 2553 1204 2497 
Q 953 2441 691 2322 
L 691 4666 
z
" id="DejaVuSans-35" transform="scale(0.015625)"/>
       </defs>
       <use xlink:href="#DejaVuSans-32"/>
       <use x="63.623047" xlink:href="#DejaVuSans-30"/>
       <use x="127.246094" xlink:href="#DejaVuSans-32"/>
       <use x="190.869141" xlink:href="#DejaVuSans-31"/>
       <use x="254.492188" xlink:href="#DejaVuSans-2d"/>
       <use x="290.576172" xlink:href="#DejaVuSans-30"/>
       <use x="354.199219" xlink:href="#DejaVuSans-35"/>
      </g>
     </g>
    </g>
    <g id="xtick_6">
     <g id="line2d_6">
      <g>
       <use style="stroke:#000000;stroke-width:0.8;" x="765.808197" xlink:href="#m4d31a3d0ba" y="228.96"/>
      </g>
     </g>
     <g id="text_6">
      <!-- 2021-07 -->
      <g transform="translate(768.567572 277.742812)rotate(-90)scale(0.1 -0.1)">
       <defs>
        <path d="M 525 4666 
L 3525 4666 
L 3525 4397 
L 1831 0 
L 1172 0 
L 2766 4134 
L 525 4134 
L 525 4666 
z
" id="DejaVuSans-37" transform="scale(0.015625)"/>
       </defs>
       <use xlink:href="#DejaVuSans-32"/>
       <use x="63.623047" xlink:href="#DejaVuSans-30"/>
       <use x="127.246094" xlink:href="#DejaVuSans-32"/>
       <use x="190.869141" xlink:href="#DejaVuSans-31"/>
       <use x="254.492188" xlink:href="#DejaVuSans-2d"/>
       <use x="290.576172" xlink:href="#DejaVuSans-30"/>
       <use x="354.199219" xlink:href="#DejaVuSans-37"/>
      </g>
     </g>
    </g>
    <g id="xtick_7">
     <g id="line2d_7">
      <g>
       <use style="stroke:#000000;stroke-width:0.8;" x="905.280078" xlink:href="#m4d31a3d0ba" y="228.96"/>
      </g>
     </g>
     <g id="text_7">
      <!-- 2021-09 -->
      <g transform="translate(908.039453 277.742812)rotate(-90)scale(0.1 -0.1)">
       <use xlink:href="#DejaVuSans-32"/>
       <use x="63.623047" xlink:href="#DejaVuSans-30"/>
       <use x="127.246094" xlink:href="#DejaVuSans-32"/>
       <use x="190.869141" xlink:href="#DejaVuSans-31"/>
       <use x="254.492188" xlink:href="#DejaVuSans-2d"/>
       <use x="290.576172" xlink:href="#DejaVuSans-30"/>
       <use x="354.199219" xlink:href="#DejaVuSans-39"/>
      </g>
     </g>
    </g>
    <g id="xtick_8">
     <g id="line2d_8">
      <g>
       <use style="stroke:#000000;stroke-width:0.8;" x="1042.502412" xlink:href="#m4d31a3d0ba" y="228.96"/>
      </g>
     </g>
     <g id="text_8">
      <!-- 2021-11 -->
      <g transform="translate(1045.261787 277.742812)rotate(-90)scale(0.1 -0.1)">
       <use xlink:href="#DejaVuSans-32"/>
       <use x="63.623047" xlink:href="#DejaVuSans-30"/>
       <use x="127.246094" xlink:href="#DejaVuSans-32"/>
       <use x="190.869141" xlink:href="#DejaVuSans-31"/>
       <use x="254.492188" xlink:href="#DejaVuSans-2d"/>
       <use x="290.576172" xlink:href="#DejaVuSans-31"/>
       <use x="354.199219" xlink:href="#DejaVuSans-31"/>
      </g>
     </g>
    </g>
    <g id="text_9">
     <!-- Date -->
     <g transform="translate(593.014844 289.34125)scale(0.1 -0.1)">
      <defs>
       <path d="M 1259 4147 
L 1259 519 
L 2022 519 
Q 2988 519 3436 956 
Q 3884 1394 3884 2338 
Q 3884 3275 3436 3711 
Q 2988 4147 2022 4147 
L 1259 4147 
z
M 628 4666 
L 1925 4666 
Q 3281 4666 3915 4102 
Q 4550 3538 4550 2338 
Q 4550 1131 3912 565 
Q 3275 0 1925 0 
L 628 0 
L 628 4666 
z
" id="DejaVuSans-44" transform="scale(0.015625)"/>
       <path d="M 2194 1759 
Q 1497 1759 1228 1600 
Q 959 1441 959 1056 
Q 959 750 1161 570 
Q 1363 391 1709 391 
Q 2188 391 2477 730 
Q 2766 1069 2766 1631 
L 2766 1759 
L 2194 1759 
z
M 3341 1997 
L 3341 0 
L 2766 0 
L 2766 531 
Q 2569 213 2275 61 
Q 1981 -91 1556 -91 
Q 1019 -91 701 211 
Q 384 513 384 1019 
Q 384 1609 779 1909 
Q 1175 2209 1959 2209 
L 2766 2209 
L 2766 2266 
Q 2766 2663 2505 2880 
Q 2244 3097 1772 3097 
Q 1472 3097 1187 3025 
Q 903 2953 641 2809 
L 641 3341 
Q 956 3463 1253 3523 
Q 1550 3584 1831 3584 
Q 2591 3584 2966 3190 
Q 3341 2797 3341 1997 
z
" id="DejaVuSans-61" transform="scale(0.015625)"/>
       <path d="M 1172 4494 
L 1172 3500 
L 2356 3500 
L 2356 3053 
L 1172 3053 
L 1172 1153 
Q 1172 725 1289 603 
Q 1406 481 1766 481 
L 2356 481 
L 2356 0 
L 1766 0 
Q 1100 0 847 248 
Q 594 497 594 1153 
L 594 3053 
L 172 3053 
L 172 3500 
L 594 3500 
L 594 4494 
L 1172 4494 
z
" id="DejaVuSans-74" transform="scale(0.015625)"/>
       <path d="M 3597 1894 
L 3597 1613 
L 953 1613 
Q 991 1019 1311 708 
Q 1631 397 2203 397 
Q 2534 397 2845 478 
Q 3156 559 3463 722 
L 3463 178 
Q 3153 47 2828 -22 
Q 2503 -91 2169 -91 
Q 1331 -91 842 396 
Q 353 884 353 1716 
Q 353 2575 817 3079 
Q 1281 3584 2069 3584 
Q 2775 3584 3186 3129 
Q 3597 2675 3597 1894 
z
M 3022 2063 
Q 3016 2534 2758 2815 
Q 2500 3097 2075 3097 
Q 1594 3097 1305 2825 
Q 1016 2553 972 2059 
L 3022 2063 
z
" id="DejaVuSans-65" transform="scale(0.015625)"/>
      </defs>
      <use xlink:href="#DejaVuSans-44"/>
      <use x="77.001953" xlink:href="#DejaVuSans-61"/>
      <use x="138.28125" xlink:href="#DejaVuSans-74"/>
      <use x="177.490234" xlink:href="#DejaVuSans-65"/>
     </g>
    </g>
   </g>
   <g id="matplotlib.axis_2">
    <g id="ytick_1">
     <g id="line2d_9">
      <defs>
       <path d="M 0 0 
L -3.5 0 
" id="m8dcd040bd8" style="stroke:#000000;stroke-width:0.8;"/>
      </defs>
      <g>
       <use style="stroke:#000000;stroke-width:0.8;" x="46.965625" xlink:href="#m8dcd040bd8" y="228.96"/>
      </g>
     </g>
     <g id="text_10">
      <!-- 1 -->
      <g transform="translate(33.603125 232.759219)scale(0.1 -0.1)">
       <use xlink:href="#DejaVuSans-31"/>
      </g>
     </g>
    </g>
    <g id="ytick_2">
     <g id="line2d_10">
      <g>
       <use style="stroke:#000000;stroke-width:0.8;" x="46.965625" xlink:href="#m8dcd040bd8" y="181.615271"/>
      </g>
     </g>
     <g id="text_11">
      <!-- 3 -->
      <g transform="translate(33.603125 185.41449)scale(0.1 -0.1)">
       <use xlink:href="#DejaVuSans-33"/>
      </g>
     </g>
    </g>
    <g id="ytick_3">
     <g id="line2d_11">
      <g>
       <use style="stroke:#000000;stroke-width:0.8;" x="46.965625" xlink:href="#m8dcd040bd8" y="134.270542"/>
      </g>
     </g>
     <g id="text_12">
      <!-- 10 -->
      <g transform="translate(27.240625 138.069761)scale(0.1 -0.1)">
       <use xlink:href="#DejaVuSans-31"/>
       <use x="63.623047" xlink:href="#DejaVuSans-30"/>
      </g>
     </g>
    </g>
    <g id="ytick_4">
     <g id="line2d_12">
      <g>
       <use style="stroke:#000000;stroke-width:0.8;" x="46.965625" xlink:href="#m8dcd040bd8" y="86.925813"/>
      </g>
     </g>
     <g id="text_13">
      <!-- 31 -->
      <g transform="translate(27.240625 90.725031)scale(0.1 -0.1)">
       <use xlink:href="#DejaVuSans-33"/>
       <use x="63.623047" xlink:href="#DejaVuSans-31"/>
      </g>
     </g>
    </g>
    <g id="ytick_5">
     <g id="line2d_13">
      <g>
       <use style="stroke:#000000;stroke-width:0.8;" x="46.965625" xlink:href="#m8dcd040bd8" y="39.581084"/>
      </g>
     </g>
     <g id="text_14">
      <!-- 100 -->
      <g transform="translate(20.878125 43.380302)scale(0.1 -0.1)">
       <use xlink:href="#DejaVuSans-31"/>
       <use x="63.623047" xlink:href="#DejaVuSans-30"/>
       <use x="127.246094" xlink:href="#DejaVuSans-30"/>
      </g>
     </g>
    </g>
    <g id="text_15">
     <!-- Count (7 day rolling average) -->
     <g transform="translate(14.798438 191.547969)rotate(-90)scale(0.1 -0.1)">
      <defs>
       <path d="M 4122 4306 
L 4122 3641 
Q 3803 3938 3442 4084 
Q 3081 4231 2675 4231 
Q 1875 4231 1450 3742 
Q 1025 3253 1025 2328 
Q 1025 1406 1450 917 
Q 1875 428 2675 428 
Q 3081 428 3442 575 
Q 3803 722 4122 1019 
L 4122 359 
Q 3791 134 3420 21 
Q 3050 -91 2638 -91 
Q 1578 -91 968 557 
Q 359 1206 359 2328 
Q 359 3453 968 4101 
Q 1578 4750 2638 4750 
Q 3056 4750 3426 4639 
Q 3797 4528 4122 4306 
z
" id="DejaVuSans-43" transform="scale(0.015625)"/>
       <path d="M 1959 3097 
Q 1497 3097 1228 2736 
Q 959 2375 959 1747 
Q 959 1119 1226 758 
Q 1494 397 1959 397 
Q 2419 397 2687 759 
Q 2956 1122 2956 1747 
Q 2956 2369 2687 2733 
Q 2419 3097 1959 3097 
z
M 1959 3584 
Q 2709 3584 3137 3096 
Q 3566 2609 3566 1747 
Q 3566 888 3137 398 
Q 2709 -91 1959 -91 
Q 1206 -91 779 398 
Q 353 888 353 1747 
Q 353 2609 779 3096 
Q 1206 3584 1959 3584 
z
" id="DejaVuSans-6f" transform="scale(0.015625)"/>
       <path d="M 544 1381 
L 544 3500 
L 1119 3500 
L 1119 1403 
Q 1119 906 1312 657 
Q 1506 409 1894 409 
Q 2359 409 2629 706 
Q 2900 1003 2900 1516 
L 2900 3500 
L 3475 3500 
L 3475 0 
L 2900 0 
L 2900 538 
Q 2691 219 2414 64 
Q 2138 -91 1772 -91 
Q 1169 -91 856 284 
Q 544 659 544 1381 
z
M 1991 3584 
L 1991 3584 
z
" id="DejaVuSans-75" transform="scale(0.015625)"/>
       <path d="M 3513 2113 
L 3513 0 
L 2938 0 
L 2938 2094 
Q 2938 2591 2744 2837 
Q 2550 3084 2163 3084 
Q 1697 3084 1428 2787 
Q 1159 2491 1159 1978 
L 1159 0 
L 581 0 
L 581 3500 
L 1159 3500 
L 1159 2956 
Q 1366 3272 1645 3428 
Q 1925 3584 2291 3584 
Q 2894 3584 3203 3211 
Q 3513 2838 3513 2113 
z
" id="DejaVuSans-6e" transform="scale(0.015625)"/>
       <path id="DejaVuSans-20" transform="scale(0.015625)"/>
       <path d="M 1984 4856 
Q 1566 4138 1362 3434 
Q 1159 2731 1159 2009 
Q 1159 1288 1364 580 
Q 1569 -128 1984 -844 
L 1484 -844 
Q 1016 -109 783 600 
Q 550 1309 550 2009 
Q 550 2706 781 3412 
Q 1013 4119 1484 4856 
L 1984 4856 
z
" id="DejaVuSans-28" transform="scale(0.015625)"/>
       <path d="M 2906 2969 
L 2906 4863 
L 3481 4863 
L 3481 0 
L 2906 0 
L 2906 525 
Q 2725 213 2448 61 
Q 2172 -91 1784 -91 
Q 1150 -91 751 415 
Q 353 922 353 1747 
Q 353 2572 751 3078 
Q 1150 3584 1784 3584 
Q 2172 3584 2448 3432 
Q 2725 3281 2906 2969 
z
M 947 1747 
Q 947 1113 1208 752 
Q 1469 391 1925 391 
Q 2381 391 2643 752 
Q 2906 1113 2906 1747 
Q 2906 2381 2643 2742 
Q 2381 3103 1925 3103 
Q 1469 3103 1208 2742 
Q 947 2381 947 1747 
z
" id="DejaVuSans-64" transform="scale(0.015625)"/>
       <path d="M 2059 -325 
Q 1816 -950 1584 -1140 
Q 1353 -1331 966 -1331 
L 506 -1331 
L 506 -850 
L 844 -850 
Q 1081 -850 1212 -737 
Q 1344 -625 1503 -206 
L 1606 56 
L 191 3500 
L 800 3500 
L 1894 763 
L 2988 3500 
L 3597 3500 
L 2059 -325 
z
" id="DejaVuSans-79" transform="scale(0.015625)"/>
       <path d="M 2631 2963 
Q 2534 3019 2420 3045 
Q 2306 3072 2169 3072 
Q 1681 3072 1420 2755 
Q 1159 2438 1159 1844 
L 1159 0 
L 581 0 
L 581 3500 
L 1159 3500 
L 1159 2956 
Q 1341 3275 1631 3429 
Q 1922 3584 2338 3584 
Q 2397 3584 2469 3576 
Q 2541 3569 2628 3553 
L 2631 2963 
z
" id="DejaVuSans-72" transform="scale(0.015625)"/>
       <path d="M 603 4863 
L 1178 4863 
L 1178 0 
L 603 0 
L 603 4863 
z
" id="DejaVuSans-6c" transform="scale(0.015625)"/>
       <path d="M 603 3500 
L 1178 3500 
L 1178 0 
L 603 0 
L 603 3500 
z
M 603 4863 
L 1178 4863 
L 1178 4134 
L 603 4134 
L 603 4863 
z
" id="DejaVuSans-69" transform="scale(0.015625)"/>
       <path d="M 2906 1791 
Q 2906 2416 2648 2759 
Q 2391 3103 1925 3103 
Q 1463 3103 1205 2759 
Q 947 2416 947 1791 
Q 947 1169 1205 825 
Q 1463 481 1925 481 
Q 2391 481 2648 825 
Q 2906 1169 2906 1791 
z
M 3481 434 
Q 3481 -459 3084 -895 
Q 2688 -1331 1869 -1331 
Q 1566 -1331 1297 -1286 
Q 1028 -1241 775 -1147 
L 775 -588 
Q 1028 -725 1275 -790 
Q 1522 -856 1778 -856 
Q 2344 -856 2625 -561 
Q 2906 -266 2906 331 
L 2906 616 
Q 2728 306 2450 153 
Q 2172 0 1784 0 
Q 1141 0 747 490 
Q 353 981 353 1791 
Q 353 2603 747 3093 
Q 1141 3584 1784 3584 
Q 2172 3584 2450 3431 
Q 2728 3278 2906 2969 
L 2906 3500 
L 3481 3500 
L 3481 434 
z
" id="DejaVuSans-67" transform="scale(0.015625)"/>
       <path d="M 191 3500 
L 800 3500 
L 1894 563 
L 2988 3500 
L 3597 3500 
L 2284 0 
L 1503 0 
L 191 3500 
z
" id="DejaVuSans-76" transform="scale(0.015625)"/>
       <path d="M 513 4856 
L 1013 4856 
Q 1481 4119 1714 3412 
Q 1947 2706 1947 2009 
Q 1947 1309 1714 600 
Q 1481 -109 1013 -844 
L 513 -844 
Q 928 -128 1133 580 
Q 1338 1288 1338 2009 
Q 1338 2731 1133 3434 
Q 928 4138 513 4856 
z
" id="DejaVuSans-29" transform="scale(0.015625)"/>
      </defs>
      <use xlink:href="#DejaVuSans-43"/>
      <use x="69.824219" xlink:href="#DejaVuSans-6f"/>
      <use x="131.005859" xlink:href="#DejaVuSans-75"/>
      <use x="194.384766" xlink:href="#DejaVuSans-6e"/>
      <use x="257.763672" xlink:href="#DejaVuSans-74"/>
      <use x="296.972656" xlink:href="#DejaVuSans-20"/>
      <use x="328.759766" xlink:href="#DejaVuSans-28"/>
      <use x="367.773438" xlink:href="#DejaVuSans-37"/>
      <use x="431.396484" xlink:href="#DejaVuSans-20"/>
      <use x="463.183594" xlink:href="#DejaVuSans-64"/>
      <use x="526.660156" xlink:href="#DejaVuSans-61"/>
      <use x="587.939453" xlink:href="#DejaVuSans-79"/>
      <use x="647.119141" xlink:href="#DejaVuSans-20"/>
      <use x="678.90625" xlink:href="#DejaVuSans-72"/>
      <use x="717.769531" xlink:href="#DejaVuSans-6f"/>
      <use x="778.951172" xlink:href="#DejaVuSans-6c"/>
      <use x="806.734375" xlink:href="#DejaVuSans-6c"/>
      <use x="834.517578" xlink:href="#DejaVuSans-69"/>
      <use x="862.300781" xlink:href="#DejaVuSans-6e"/>
      <use x="925.679688" xlink:href="#DejaVuSans-67"/>
      <use x="989.15625" xlink:href="#DejaVuSans-20"/>
      <use x="1020.943359" xlink:href="#DejaVuSans-61"/>
      <use x="1082.222656" xlink:href="#DejaVuSans-76"/>
      <use x="1141.402344" xlink:href="#DejaVuSans-65"/>
      <use x="1202.925781" xlink:href="#DejaVuSans-72"/>
      <use x="1244.039062" xlink:href="#DejaVuSans-61"/>
      <use x="1305.318359" xlink:href="#DejaVuSans-67"/>
      <use x="1368.794922" xlink:href="#DejaVuSans-65"/>
      <use x="1430.318359" xlink:href="#DejaVuSans-29"/>
     </g>
    </g>
   </g>
   <g id="line2d_14">
    <path clip-path="url(#p4d1cda5176)" d="M 342.893462 200.455633 
L 345.143009 203.503183 
L 347.392555 203.503183 
L 349.642102 206.794788 
L 351.891648 210.372966 
L 354.141194 210.372966 
L 356.390741 218.625169 
L 358.640287 214.292417 
L 360.889834 210.372966 
L 363.13938 206.794788 
L 365.388927 210.372966 
L 367.638473 210.372966 
L 369.88802 197.618431 
L 372.137566 194.964407 
L 374.387113 180.040605 
L 376.636659 173.446816 
L 378.886206 170.508201 
L 381.135752 169.114064 
L 383.385298 165.194613 
L 385.634845 159.393023 
L 387.884391 154.309632 
L 390.133938 159.393023 
L 392.383484 162.774909 
L 394.633031 166.46004 
L 396.882577 167.765645 
L 401.38167 167.765645 
L 403.631217 171.951266 
L 405.880763 176.611693 
L 408.13031 180.040605 
L 410.379856 178.290421 
L 412.629402 170.508201 
L 414.878949 166.46004 
L 417.128495 171.951266 
L 419.378042 173.446816 
L 421.627588 169.114064 
L 423.877135 163.966967 
L 426.126681 165.194613 
L 428.376228 163.966967 
L 430.625774 163.966967 
L 432.875321 160.489704 
L 435.124867 159.393023 
L 437.374414 160.489704 
L 439.62396 163.966967 
L 441.873506 160.489704 
L 446.372599 158.32483 
L 448.622146 156.268246 
L 450.871692 147.292981 
L 453.121239 135.462599 
L 455.370785 130.888655 
L 457.620332 130.888655 
L 459.869878 131.985337 
L 462.119425 127.763879 
L 464.368971 130.351091 
L 466.618518 135.462599 
L 468.868064 142.003834 
L 471.11761 142.003834 
L 473.367157 135.462599 
L 475.616703 127.265411 
L 477.86625 128.268463 
L 480.115796 127.265411 
L 482.365343 122.587292 
L 484.614889 120.433757 
L 486.864436 120.433757 
L 489.113982 122.587292 
L 491.363529 123.935711 
L 493.613075 123.03187 
L 495.862622 120.433757 
L 498.112168 120.855536 
L 500.361714 121.712299 
L 507.110354 115.311351 
L 509.3599 111.425594 
L 511.609447 111.089893 
L 516.10854 105.766175 
L 518.358086 104.894274 
L 520.607633 106.060965 
L 522.857179 106.357884 
L 525.106726 104.607701 
L 529.605819 100.018729 
L 531.855365 96.825481 
L 534.104911 95.431344 
L 536.354458 92.563692 
L 538.604004 89.485714 
L 540.853551 90.689403 
L 543.103097 87.933715 
L 545.352644 87.933715 
L 547.60219 87.554697 
L 549.851737 86.072623 
L 552.101283 84.818226 
L 554.35083 79.837577 
L 556.600376 76.969115 
L 558.849923 74.976602 
L 561.099469 71.259729 
L 563.349015 70.755144 
L 565.598562 69.036316 
L 567.848108 70.505155 
L 570.097655 72.943745 
L 572.347201 73.47609 
L 574.596748 71.006663 
L 576.846294 70.00969 
L 579.095841 69.156736 
L 581.345387 68.796531 
L 583.594934 65.46816 
L 585.84448 63.740951 
L 588.094027 62.697161 
L 590.343573 64.487695 
L 592.593119 65.358057 
L 594.842666 66.585704 
L 597.092212 66.24724 
L 599.341759 69.64197 
L 601.591305 70.132998 
L 603.840852 69.886751 
L 606.090398 69.398637 
L 608.339945 71.514362 
L 610.589491 71.259729 
L 612.839038 75.960792 
L 615.088584 74.015417 
L 619.587677 75.818743 
L 621.837223 76.678491 
L 624.08677 76.103333 
L 626.336316 73.47609 
L 628.585863 70.256676 
L 630.835409 71.386848 
L 633.084956 70.132998 
L 635.334502 70.62996 
L 637.584049 72.157929 
L 639.833595 73.076186 
L 642.083142 75.677183 
L 644.332688 79.371147 
L 646.582235 80.626912 
L 648.831781 86.254987 
L 651.081327 91.098592 
L 653.330874 94.082924 
L 657.829967 102.655729 
L 660.079513 102.384288 
L 662.32906 101.846724 
L 664.578606 103.204045 
L 666.828153 103.759771 
L 669.077699 103.759771 
L 671.327246 102.114628 
L 675.826339 103.204045 
L 678.075885 106.060965 
L 680.325431 109.131279 
L 682.574978 109.451305 
L 684.824524 115.683508 
L 687.074071 120.433757 
L 689.323617 125.805265 
L 691.573164 128.779316 
L 693.82271 130.888655 
L 696.072257 137.318092 
L 698.321803 141.300858 
L 700.57135 141.300858 
L 702.820896 151.536237 
L 705.070443 146.494449 
L 707.319989 150.651835 
L 711.819082 148.938124 
L 714.068628 152.440078 
L 716.318175 153.364232 
L 718.567721 148.938124 
L 720.817268 157.283683 
L 725.316361 161.616435 
L 727.565907 161.616435 
L 729.815454 162.774909 
L 732.065 166.46004 
L 734.314547 171.951266 
L 736.564093 174.998816 
L 738.81364 178.290421 
L 741.063186 180.040605 
L 743.312732 178.290421 
L 747.811825 181.868599 
L 750.061372 180.040605 
L 752.310918 181.868599 
L 756.810011 181.868599 
L 759.059558 187.89739 
L 761.309104 190.120802 
L 763.558651 187.89739 
L 765.808197 183.781647 
L 768.057744 178.290421 
L 770.30729 178.290421 
L 772.556836 176.611693 
L 774.806383 181.868599 
L 777.055929 181.868599 
L 779.305476 185.78805 
L 781.555022 190.120802 
L 783.804569 200.455633 
L 786.054115 200.455633 
L 788.303662 197.618431 
L 790.553208 194.964407 
L 792.802755 194.964407 
L 795.052301 192.471334 
L 797.301848 200.455633 
L 801.80094 200.455633 
L 804.050487 206.794788 
L 806.300033 197.618431 
L 810.799126 197.618431 
L 813.048673 190.120802 
L 815.298219 192.471334 
L 819.797312 192.471334 
L 822.046859 203.503183 
L 824.296405 210.372966 
L 826.545952 210.372966 
L 828.795498 223.468774 
L 831.045044 223.468774 
L 833.294591 218.625169 
L 835.544137 218.625169 
L 837.793684 214.292417 
L 846.79187 214.292417 
L 849.041416 218.625169 
L 851.290963 218.625169 
L 853.540509 223.468774 
L 855.790056 218.625169 
L 858.039602 223.468774 
L 869.287334 223.468774 
L 871.536881 228.96 
L 873.786427 228.96 
L 876.035974 223.468774 
L 889.533252 223.468774 
L 891.782799 228.96 
L 894.032345 223.468774 
L 903.030531 223.468774 
L 905.280078 218.625169 
L 907.529624 218.625169 
L 909.779171 223.468774 
L 918.777357 223.468774 
L 921.026903 228.96 
L 948.021461 228.96 
L 950.271007 223.468774 
L 952.520553 218.625169 
L 963.768286 218.625169 
L 966.017832 223.468774 
L 968.267379 228.96 
L 1029.005133 228.96 
L 1031.25468 223.468774 
L 1031.25468 223.468774 
" style="fill:none;stroke:#947383;stroke-linecap:square;stroke-width:2;"/>
   </g>
   <g id="line2d_15">
    <path clip-path="url(#p4d1cda5176)" d="M 250.662057 218.625169 
L 252.911604 223.468774 
L 259.660243 223.468774 
L 261.909789 228.96 
L 315.898905 228.96 
L 318.148451 223.468774 
L 320.397998 218.625169 
L 327.146637 218.625169 
L 329.396183 214.292417 
L 331.64573 206.794788 
L 333.895276 203.503183 
L 336.144823 194.964407 
L 338.394369 192.471334 
L 340.643916 185.78805 
L 345.143009 185.78805 
L 347.392555 183.781647 
L 349.642102 174.998816 
L 351.891648 169.114064 
L 354.141194 167.765645 
L 356.390741 171.951266 
L 358.640287 170.508201 
L 360.889834 165.194613 
L 363.13938 162.774909 
L 365.388927 163.966967 
L 367.638473 170.508201 
L 369.88802 163.966967 
L 372.137566 159.393023 
L 374.387113 156.268246 
L 376.636659 156.268246 
L 378.886206 155.27728 
L 381.135752 148.107326 
L 383.385298 139.929961 
L 385.634845 124.859865 
L 387.884391 113.146477 
L 392.383484 105.766175 
L 394.633031 104.607701 
L 396.882577 99.764096 
L 399.132124 99.009522 
L 401.38167 98.514057 
L 403.631217 103.480969 
L 405.880763 101.316095 
L 408.13031 102.928973 
L 410.379856 103.480969 
L 412.629402 100.274949 
L 417.128495 90.893489 
L 419.378042 88.702393 
L 421.627588 84.118241 
L 423.877135 80.626912 
L 426.126681 79.837577 
L 428.376228 80.626912 
L 430.625774 79.063107 
L 432.875321 76.823546 
L 435.124867 71.259729 
L 437.374414 68.439454 
L 439.62396 67.85113 
L 441.873506 67.502134 
L 444.123053 60.392462 
L 446.372599 55.096595 
L 448.622146 54.416859 
L 453.121239 51.489869 
L 455.370785 50.944152 
L 457.620332 51.021669 
L 459.869878 47.957496 
L 462.119425 48.029579 
L 464.368971 47.527634 
L 466.618518 45.988834 
L 468.868064 46.12637 
L 471.11761 46.751037 
L 475.616703 44.241511 
L 477.86625 44.241511 
L 480.115796 40.833661 
L 482.365343 39.935087 
L 484.614889 37.630668 
L 486.864436 36.963792 
L 489.113982 36.145123 
L 491.363529 32.824431 
L 493.613075 28.253111 
L 495.862622 28.164003 
L 498.112168 29.018423 
L 500.361714 28.927644 
L 502.611261 29.246253 
L 507.110354 28.566517 
L 509.3599 29.337739 
L 511.609447 29.200586 
L 513.858993 27.152909 
L 516.10854 25.576791 
L 518.358086 23.18217 
L 522.857179 22.323781 
L 525.106726 19.705973 
L 527.356272 18.281653 
L 529.605819 18.141897 
L 531.855365 17.76 
L 534.104911 18.386783 
L 536.354458 18.107033 
L 538.604004 18.845475 
L 540.853551 21.031452 
L 543.103097 22.208104 
L 545.352644 21.901214 
L 547.60219 23.857963 
L 549.851737 24.382346 
L 552.101283 25.409963 
L 554.35083 24.667499 
L 556.600376 23.261101 
L 558.849923 23.898064 
L 561.099469 25.451607 
L 563.349015 26.123705 
L 565.598562 25.744299 
L 567.848108 25.535021 
L 570.097655 31.839399 
L 572.347201 35.768585 
L 574.596748 37.407172 
L 576.846294 38.594314 
L 579.095841 38.88209 
L 583.594934 40.232435 
L 585.84448 36.908704 
L 588.094027 35.501724 
L 590.343573 35.983327 
L 597.092212 38.308537 
L 599.341759 39.522378 
L 601.591305 40.592115 
L 603.840852 46.6114 
L 608.339945 48.610834 
L 610.589491 50.789553 
L 612.839038 51.255103 
L 615.088584 49.498417 
L 617.338131 49.873973 
L 619.587677 47.813709 
L 621.837223 48.391899 
L 624.08677 47.742003 
L 626.336316 48.391899 
L 630.835409 51.021669 
L 633.084956 53.090192 
L 637.584049 53.00868 
L 639.833595 55.011011 
L 642.083142 54.755323 
L 644.332688 54.164827 
L 646.582235 54.416859 
L 648.831781 56.936274 
L 651.081327 55.440724 
L 653.330874 57.75062 
L 655.58042 59.52465 
L 657.829967 60.882612 
L 660.079513 60.68585 
L 662.32906 61.378675 
L 664.578606 64.595488 
L 666.828153 73.342356 
L 669.077699 75.960792 
L 671.327246 78.302954 
L 673.576792 79.371147 
L 675.826339 83.429972 
L 678.075885 84.818226 
L 680.325431 89.883042 
L 682.574978 87.554697 
L 684.824524 87.179141 
L 687.074071 86.62216 
L 689.323617 90.083155 
L 691.573164 90.689403 
L 696.072257 89.092189 
L 698.321803 100.018729 
L 700.57135 106.958232 
L 702.820896 112.10533 
L 705.070443 114.57699 
L 707.319989 115.311351 
L 709.569536 118.387409 
L 711.819082 119.193771 
L 714.068628 115.311351 
L 716.318175 114.942531 
L 718.567721 113.146477 
L 720.817268 111.764057 
L 723.066814 110.75691 
L 725.316361 111.425594 
L 727.565907 116.059064 
L 729.815454 123.481307 
L 734.314547 127.265411 
L 736.564093 130.351091 
L 738.81364 132.544843 
L 741.063186 132.544843 
L 743.312732 131.985337 
L 745.562279 123.03187 
L 747.811825 118.788613 
L 750.061372 119.602959 
L 752.310918 114.21467 
L 754.560465 112.449458 
L 756.810011 111.764057 
L 761.309104 113.146477 
L 763.558651 114.942531 
L 765.808197 114.21467 
L 768.057744 119.602959 
L 770.30729 123.03187 
L 772.556836 123.935711 
L 774.806383 129.820463 
L 777.055929 133.112068 
L 779.305476 140.609697 
L 781.555022 143.446898 
L 783.804569 147.292981 
L 786.054115 148.938124 
L 788.303662 148.107326 
L 790.553208 143.446898 
L 792.802755 151.536237 
L 795.052301 152.440078 
L 797.301848 156.268246 
L 799.551394 158.32483 
L 801.80094 159.393023 
L 804.050487 162.774909 
L 806.300033 163.966967 
L 808.54958 167.765645 
L 810.799126 167.765645 
L 813.048673 170.508201 
L 817.547766 173.446816 
L 819.797312 173.446816 
L 822.046859 190.120802 
L 824.296405 203.503183 
L 826.545952 206.794788 
L 828.795498 200.455633 
L 831.045044 206.794788 
L 835.544137 206.794788 
L 837.793684 203.503183 
L 840.04323 214.292417 
L 851.290963 214.292417 
L 853.540509 218.625169 
L 855.790056 218.625169 
L 858.039602 214.292417 
L 860.289148 223.468774 
L 862.538695 218.625169 
L 871.536881 218.625169 
L 873.786427 223.468774 
L 876.035974 223.468774 
L 878.28552 228.96 
L 900.780985 228.96 
L 903.030531 218.625169 
L 905.280078 203.503183 
L 907.529624 200.455633 
L 909.779171 194.964407 
L 914.278264 194.964407 
L 916.52781 192.471334 
L 918.777357 197.618431 
L 921.026903 210.372966 
L 923.276449 214.292417 
L 925.525996 223.468774 
L 930.025089 223.468774 
L 932.274635 228.96 
L 993.01239 228.96 
L 995.261936 223.468774 
L 1008.759215 223.468774 
L 1011.008761 228.96 
L 1062.74833 228.96 
L 1064.997877 223.468774 
L 1067.247423 218.625169 
L 1078.495155 218.625169 
L 1080.744702 223.468774 
L 1082.994248 228.96 
L 1096.491527 228.96 
L 1098.741073 223.468774 
L 1098.741073 223.468774 
" style="fill:none;stroke:#96c6ad;stroke-linecap:square;stroke-width:2;"/>
   </g>
   <g id="line2d_16">
    <path clip-path="url(#p4d1cda5176)" d="M 234.915232 223.468774 
L 237.164778 228.96 
L 286.654801 228.96 
L 288.904347 223.468774 
L 302.401626 223.468774 
L 304.651172 228.96 
L 322.647544 228.96 
L 324.89709 223.468774 
L 327.146637 223.468774 
L 329.396183 218.625169 
L 331.64573 214.292417 
L 338.394369 214.292417 
L 340.643916 218.625169 
L 342.893462 218.625169 
L 345.143009 214.292417 
L 347.392555 203.503183 
L 349.642102 200.455633 
L 351.891648 187.89739 
L 354.141194 183.781647 
L 356.390741 178.290421 
L 358.640287 174.998816 
L 360.889834 174.998816 
L 363.13938 176.611693 
L 365.388927 171.951266 
L 367.638473 178.290421 
L 369.88802 181.868599 
L 372.137566 170.508201 
L 374.387113 166.46004 
L 376.636659 167.765645 
L 378.886206 171.951266 
L 381.135752 170.508201 
L 383.385298 170.508201 
L 385.634845 154.309632 
L 387.884391 165.194613 
L 392.383484 160.489704 
L 394.633031 159.393023 
L 396.882577 162.774909 
L 399.132124 153.364232 
L 401.38167 159.393023 
L 403.631217 158.32483 
L 405.880763 163.966967 
L 408.13031 166.46004 
L 410.379856 167.765645 
L 412.629402 166.46004 
L 414.878949 171.951266 
L 417.128495 174.998816 
L 419.378042 159.393023 
L 421.627588 146.494449 
L 423.877135 144.187875 
L 426.126681 139.929961 
L 428.376228 133.687225 
L 430.625774 116.820625 
L 432.875321 116.820625 
L 435.124867 120.855536 
L 437.374414 125.805265 
L 439.62396 124.395192 
L 441.873506 121.281686 
L 444.123053 117.20676 
L 446.372599 134.862251 
L 448.622146 134.270542 
L 450.871692 122.147468 
L 453.121239 121.281686 
L 455.370785 123.481307 
L 457.620332 128.779316 
L 459.869878 131.43334 
L 462.119425 128.779316 
L 464.368971 127.763879 
L 466.618518 138.603294 
L 468.868064 137.955672 
L 471.11761 134.270542 
L 473.367157 125.329848 
L 475.616703 119.602959 
L 482.365343 108.813725 
L 484.614889 104.040476 
L 486.864436 103.759771 
L 489.113982 107.261725 
L 491.363529 110.426602 
L 493.613075 110.75691 
L 495.862622 102.928973 
L 498.112168 101.846724 
L 500.361714 101.846724 
L 502.611261 98.02449 
L 504.860807 98.268545 
L 507.110354 91.511893 
L 509.3599 85.891064 
L 511.609447 86.992641 
L 513.858993 83.600963 
L 516.10854 78.152595 
L 518.358086 75.960792 
L 520.607633 73.61026 
L 522.857179 75.960792 
L 525.106726 74.287757 
L 527.356272 76.678491 
L 529.605819 73.61026 
L 531.855365 73.879921 
L 534.104911 74.287757 
L 536.354458 73.47609 
L 538.604004 67.502134 
L 540.853551 64.703564 
L 543.103097 58.674774 
L 545.352644 58.956119 
L 547.60219 61.67921 
L 552.101283 65.358057 
L 554.35083 65.248249 
L 556.600376 65.578557 
L 558.849923 69.398637 
L 561.099469 71.770581 
L 563.349015 70.505155 
L 565.598562 64.920573 
L 567.848108 60.392462 
L 570.097655 61.47861 
L 572.347201 65.578557 
L 574.596748 67.85113 
L 576.846294 69.520123 
L 579.095841 71.006663 
L 581.345387 77.556598 
L 585.84448 89.485714 
L 588.094027 90.083155 
L 590.343573 89.883042 
L 592.593119 88.316258 
L 594.842666 89.092189 
L 597.092212 84.818226 
L 599.341759 84.818226 
L 601.591305 87.179141 
L 603.840852 91.098592 
L 606.090398 92.563692 
L 608.339945 94.304613 
L 610.589491 90.893489 
L 612.839038 92.563692 
L 615.088584 88.508872 
L 619.587677 76.678491 
L 621.837223 75.115767 
L 624.08677 76.533946 
L 626.336316 77.704789 
L 628.585863 80.467828 
L 630.835409 82.921226 
L 633.084956 87.743769 
L 635.334502 94.304613 
L 637.584049 92.563692 
L 639.833595 91.098592 
L 642.083142 91.304723 
L 644.332688 88.896829 
L 648.831781 92.139739 
L 651.081327 95.203514 
L 653.330874 100.018729 
L 655.58042 100.792227 
L 657.829967 104.040476 
L 660.079513 108.185879 
L 662.32906 108.185879 
L 664.578606 107.875514 
L 666.828153 104.040476 
L 669.077699 104.894274 
L 671.327246 105.473482 
L 673.576792 107.567475 
L 675.826339 108.498604 
L 678.075885 110.75691 
L 680.325431 111.764057 
L 682.574978 116.438082 
L 684.824524 117.596556 
L 687.074071 115.311351 
L 689.323617 105.473482 
L 691.573164 102.384288 
L 693.82271 103.204045 
L 696.072257 102.384288 
L 698.321803 96.355498 
L 700.57135 96.355498 
L 702.820896 92.563692 
L 705.070443 94.304613 
L 707.319989 93.207932 
L 709.569536 91.720112 
L 711.819082 87.933715 
L 714.068628 90.689403 
L 716.318175 91.098592 
L 718.567721 96.825481 
L 720.817268 99.764096 
L 723.066814 104.040476 
L 725.316361 104.32311 
L 727.565907 104.040476 
L 729.815454 103.204045 
L 732.065 98.02449 
L 734.314547 97.062503 
L 736.564093 92.139739 
L 738.81364 91.511893 
L 741.063186 91.304723 
L 743.312732 89.683898 
L 745.562279 84.64211 
L 747.811825 84.64211 
L 750.061372 83.09011 
L 752.310918 83.429972 
L 754.560465 82.418697 
L 756.810011 79.526037 
L 761.309104 87.554697 
L 763.558651 89.092189 
L 765.808197 90.486326 
L 768.057744 95.660443 
L 770.30729 94.082924 
L 772.556836 99.764096 
L 774.806383 100.018729 
L 777.055929 103.759771 
L 781.555022 98.514057 
L 783.804569 96.355498 
L 786.054115 97.540684 
L 788.303662 94.082924 
L 790.553208 94.751608 
L 792.802755 88.316258 
L 795.052301 90.893489 
L 797.301848 95.890825 
L 799.551394 94.751608 
L 801.80094 98.02449 
L 804.050487 102.384288 
L 806.300033 103.759771 
L 808.54958 114.57699 
L 810.799126 115.683508 
L 813.048673 112.449458 
L 815.298219 114.57699 
L 817.547766 115.311351 
L 819.797312 111.764057 
L 822.046859 112.796491 
L 824.296405 114.21467 
L 826.545952 116.438082 
L 828.795498 116.059064 
L 831.045044 112.449458 
L 833.294591 112.10533 
L 835.544137 116.059064 
L 837.793684 117.990081 
L 840.04323 119.193771 
L 842.292777 123.935711 
L 844.542323 127.763879 
L 846.79187 139.929961 
L 849.041416 142.719037 
L 851.290963 142.719037 
L 853.540509 151.536237 
L 858.039602 149.786054 
L 860.289148 155.27728 
L 862.538695 169.114064 
L 864.788241 171.951266 
L 867.037788 174.998816 
L 869.287334 171.951266 
L 871.536881 176.611693 
L 873.786427 174.998816 
L 876.035974 176.611693 
L 880.535067 173.446816 
L 882.784613 173.446816 
L 885.03416 180.040605 
L 887.283706 183.781647 
L 889.533252 192.471334 
L 891.782799 206.794788 
L 894.032345 214.292417 
L 896.281892 218.625169 
L 898.531438 223.468774 
L 903.030531 223.468774 
L 905.280078 228.96 
L 907.529624 223.468774 
L 909.779171 223.468774 
L 912.028717 218.625169 
L 914.278264 214.292417 
L 916.52781 214.292417 
L 918.777357 210.372966 
L 925.525996 210.372966 
L 927.775542 206.794788 
L 930.025089 210.372966 
L 936.773728 210.372966 
L 939.023275 214.292417 
L 941.272821 214.292417 
L 943.522368 223.468774 
L 945.771914 223.468774 
L 948.021461 218.625169 
L 950.271007 223.468774 
L 961.518739 223.468774 
L 963.768286 228.96 
L 1031.25468 228.96 
L 1033.504226 223.468774 
L 1047.001505 223.468774 
L 1049.251051 228.96 
L 1051.500598 223.468774 
L 1051.500598 223.468774 
" style="fill:none;stroke:#525886;stroke-linecap:square;stroke-width:2;"/>
   </g>
   <g id="line2d_17">
    <path clip-path="url(#p4d1cda5176)" d="M 97.692898 197.618431 
L 99.942444 194.964407 
L 102.191991 190.120802 
L 104.441537 183.781647 
L 106.691084 180.040605 
L 108.94063 178.290421 
L 111.190177 178.290421 
L 113.439723 176.611693 
L 115.689269 170.508201 
L 117.938816 165.194613 
L 120.188362 163.966967 
L 122.437909 159.393023 
L 124.687455 158.32483 
L 126.937002 158.32483 
L 129.186548 155.27728 
L 131.436095 159.393023 
L 133.685641 162.774909 
L 135.935188 169.114064 
L 138.184734 174.998816 
L 140.434281 173.446816 
L 142.683827 173.446816 
L 144.933373 170.508201 
L 147.18292 162.774909 
L 149.432466 163.966967 
L 151.682013 161.616435 
L 153.931559 162.774909 
L 156.181106 166.46004 
L 158.430652 165.194613 
L 160.680199 171.951266 
L 162.929745 185.78805 
L 165.179292 190.120802 
L 167.428838 187.89739 
L 169.678385 192.471334 
L 171.927931 185.78805 
L 174.177477 187.89739 
L 176.427024 185.78805 
L 178.67657 180.040605 
L 180.926117 174.998816 
L 183.175663 173.446816 
L 185.42521 176.611693 
L 187.674756 181.868599 
L 189.924303 178.290421 
L 192.173849 178.290421 
L 194.423396 176.611693 
L 196.672942 170.508201 
L 198.922489 160.489704 
L 201.172035 146.494449 
L 203.421581 144.187875 
L 205.671128 145.711128 
L 207.920674 139.929961 
L 210.170221 137.318092 
L 212.419767 133.687225 
L 214.669314 133.112068 
L 216.91886 137.955672 
L 219.168407 136.690246 
L 221.417953 136.071842 
L 223.6675 126.772912 
L 225.917046 124.859865 
L 228.166593 122.587292 
L 230.416139 121.281686 
L 232.665685 117.20676 
L 237.164778 117.20676 
L 239.414325 129.296594 
L 241.663871 133.687225 
L 243.913418 135.462599 
L 246.162964 129.296594 
L 248.412511 126.772912 
L 250.662057 129.296594 
L 252.911604 127.763879 
L 255.16115 124.859865 
L 257.410697 123.935711 
L 259.660243 117.596556 
L 261.909789 113.499467 
L 264.159336 110.426602 
L 266.408882 108.813725 
L 268.658429 109.451305 
L 270.907975 103.204045 
L 273.157522 89.683898 
L 275.407068 89.883042 
L 277.656615 95.660443 
L 279.906161 100.792227 
L 282.155708 100.792227 
L 284.405254 100.018729 
L 286.654801 99.764096 
L 288.904347 107.567475 
L 291.153893 110.098927 
L 293.40344 106.958232 
L 295.652986 102.928973 
L 297.902533 100.532774 
L 300.152079 96.825481 
L 302.401626 92.139739 
L 304.651172 94.751608 
L 306.900719 90.893489 
L 309.150265 89.092189 
L 311.399812 89.485714 
L 313.649358 89.683898 
L 315.898905 92.351169 
L 318.148451 91.92939 
L 320.397998 83.945091 
L 322.647544 88.316258 
L 324.89709 86.438164 
L 327.146637 80.467828 
L 329.396183 81.594559 
L 331.64573 80.309358 
L 333.895276 74.976602 
L 336.144823 76.103333 
L 338.394369 71.514362 
L 340.643916 69.520123 
L 342.893462 74.015417 
L 345.143009 72.157929 
L 347.392555 71.133001 
L 349.642102 69.64197 
L 351.891648 64.272952 
L 354.141194 60.68585 
L 356.390741 60.490026 
L 358.640287 61.08032 
L 360.889834 58.862123 
L 363.13938 58.956119 
L 365.388927 52.522968 
L 367.638473 50.789553 
L 369.88802 49.648228 
L 372.137566 50.482089 
L 374.387113 47.031742 
L 376.636659 48.101788 
L 378.886206 47.172816 
L 381.135752 51.647128 
L 383.385298 55.096595 
L 385.634845 58.768342 
L 387.884391 59.05033 
L 390.133938 61.779879 
L 392.383484 61.880795 
L 394.633031 64.487695 
L 396.882577 71.642272 
L 399.132124 78.152595 
L 401.38167 83.600963 
L 403.631217 79.837577 
L 405.880763 74.837907 
L 408.13031 75.818743 
L 410.379856 71.259729 
L 412.629402 68.67716 
L 414.878949 67.502134 
L 417.128495 64.811926 
L 419.378042 67.85113 
L 421.627588 73.47609 
L 423.877135 73.209056 
L 426.126681 77.853517 
L 428.376228 79.526037 
L 430.625774 77.853517 
L 432.875321 79.837577 
L 435.124867 82.921226 
L 437.374414 78.909949 
L 439.62396 81.10789 
L 441.873506 81.758071 
L 446.372599 91.720112 
L 448.622146 94.082924 
L 450.871692 91.92939 
L 453.121239 98.761043 
L 455.370785 95.431344 
L 457.620332 93.207932 
L 459.869878 92.777319 
L 462.119425 90.486326 
L 464.368971 86.438164 
L 466.618518 84.818226 
L 468.868064 83.945091 
L 471.11761 85.172738 
L 473.367157 85.710302 
L 475.616703 87.179141 
L 477.86625 89.485714 
L 480.115796 92.139739 
L 482.365343 96.825481 
L 484.614889 97.062503 
L 486.864436 97.781876 
L 489.113982 98.761043 
L 491.363529 96.825481 
L 493.613075 97.062503 
L 495.862622 101.053327 
L 498.112168 100.792227 
L 500.361714 103.480969 
L 502.611261 102.655729 
L 504.860807 103.204045 
L 507.110354 102.384288 
L 509.3599 102.655729 
L 513.858993 88.316258 
L 516.10854 84.292124 
L 518.358086 85.172738 
L 520.607633 84.64211 
L 522.857179 86.438164 
L 525.106726 85.530332 
L 527.356272 86.438164 
L 529.605819 90.284246 
L 531.855365 92.992062 
L 534.104911 92.777319 
L 536.354458 93.643101 
L 538.604004 95.431344 
L 540.853551 94.304613 
L 543.103097 99.009522 
L 545.352644 102.928973 
L 549.851737 102.928973 
L 552.101283 102.384288 
L 554.35083 99.259512 
L 556.600376 99.764096 
L 558.849923 98.02449 
L 561.099469 99.259512 
L 563.349015 101.316095 
L 565.598562 102.655729 
L 567.848108 104.607701 
L 570.097655 114.21467 
L 572.347201 122.147468 
L 574.596748 124.395192 
L 576.846294 120.855536 
L 579.095841 117.596556 
L 581.345387 113.499467 
L 585.84448 102.928973 
L 588.094027 96.825481 
L 590.343573 95.431344 
L 592.593119 98.02449 
L 594.842666 99.764096 
L 597.092212 100.792227 
L 599.341759 102.384288 
L 601.591305 102.384288 
L 603.840852 102.928973 
L 606.090398 101.580554 
L 610.589491 92.563692 
L 612.839038 91.92939 
L 615.088584 91.511893 
L 617.338131 89.883042 
L 619.587677 91.304723 
L 621.837223 91.720112 
L 624.08677 95.431344 
L 626.336316 96.589818 
L 628.585863 96.589818 
L 630.835409 96.122505 
L 635.334502 89.288481 
L 637.584049 87.743769 
L 639.833595 84.118241 
L 642.083142 85.172738 
L 644.332688 83.772667 
L 646.582235 83.772667 
L 648.831781 87.179141 
L 651.081327 92.351169 
L 653.330874 89.883042 
L 655.58042 91.304723 
L 657.829967 91.720112 
L 660.079513 95.203514 
L 662.32906 98.02449 
L 664.578606 92.777319 
L 666.828153 90.284246 
L 669.077699 91.098592 
L 671.327246 88.702393 
L 673.576792 89.485714 
L 675.826339 89.288481 
L 678.075885 87.743769 
L 680.325431 90.083155 
L 682.574978 86.438164 
L 684.824524 92.139739 
L 687.074071 90.689403 
L 689.323617 87.179141 
L 691.573164 85.351146 
L 693.82271 85.530332 
L 696.072257 81.269474 
L 698.321803 82.087058 
L 700.57135 76.389907 
L 702.820896 76.389907 
L 707.319989 72.811728 
L 709.569536 70.62996 
L 711.819082 72.943745 
L 714.068628 69.036316 
L 716.318175 71.642272 
L 720.817268 80.151495 
L 723.066814 83.09011 
L 725.316361 85.530332 
L 727.565907 88.316258 
L 729.815454 98.761043 
L 732.065 99.764096 
L 734.314547 94.751608 
L 736.564093 92.992062 
L 738.81364 92.139739 
L 743.312732 94.304613 
L 745.562279 91.92939 
L 747.811825 92.992062 
L 750.061372 96.355498 
L 752.310918 96.122505 
L 754.560465 97.781876 
L 756.810011 97.062503 
L 759.059558 97.062503 
L 761.309104 96.122505 
L 763.558651 96.589818 
L 765.808197 96.122505 
L 768.057744 100.018729 
L 770.30729 101.580554 
L 772.556836 103.480969 
L 774.806383 108.185879 
L 777.055929 109.451305 
L 779.305476 114.57699 
L 781.555022 117.20676 
L 786.054115 114.942531 
L 788.303662 113.499467 
L 790.553208 109.131279 
L 792.802755 109.451305 
L 795.052301 108.498604 
L 797.301848 111.764057 
L 799.551394 114.57699 
L 804.050487 119.193771 
L 806.300033 127.763879 
L 808.54958 137.955672 
L 810.799126 144.942449 
L 813.048673 142.719037 
L 815.298219 145.711128 
L 817.547766 146.494449 
L 819.797312 148.107326 
L 822.046859 143.446898 
L 824.296405 157.283683 
L 826.545952 152.440078 
L 828.795498 158.32483 
L 831.045044 161.616435 
L 833.294591 159.393023 
L 835.544137 160.489704 
L 837.793684 163.966967 
L 840.04323 139.261278 
L 842.292777 139.261278 
L 846.79187 136.690246 
L 849.041416 136.690246 
L 851.290963 135.462599 
L 853.540509 134.862251 
L 855.790056 151.536237 
L 858.039602 156.268246 
L 860.289148 160.489704 
L 862.538695 162.774909 
L 864.788241 166.46004 
L 867.037788 166.46004 
L 869.287334 174.998816 
L 871.536881 171.951266 
L 873.786427 173.446816 
L 876.035974 169.114064 
L 878.28552 170.508201 
L 880.535067 169.114064 
L 882.784613 171.951266 
L 885.03416 171.951266 
L 887.283706 183.781647 
L 889.533252 183.781647 
L 891.782799 190.120802 
L 894.032345 187.89739 
L 896.281892 190.120802 
L 898.531438 187.89739 
L 900.780985 187.89739 
L 903.030531 194.964407 
L 905.280078 192.471334 
L 907.529624 187.89739 
L 909.779171 190.120802 
L 912.028717 190.120802 
L 916.52781 194.964407 
L 918.777357 210.372966 
L 921.026903 210.372966 
L 923.276449 218.625169 
L 932.274635 218.625169 
L 934.524182 223.468774 
L 936.773728 228.96 
L 939.023275 228.96 
L 941.272821 223.468774 
L 948.021461 223.468774 
L 950.271007 210.372966 
L 957.019646 210.372966 
L 959.269193 206.794788 
L 961.518739 203.503183 
L 963.768286 203.503183 
L 966.017832 214.292417 
L 970.516925 214.292417 
L 972.766472 218.625169 
L 977.265565 218.625169 
L 979.515111 169.114064 
L 981.764657 163.966967 
L 984.014204 154.309632 
L 986.26375 151.536237 
L 988.513297 148.107326 
L 990.762843 144.942449 
L 993.01239 144.942449 
L 995.261936 165.194613 
L 997.511483 169.114064 
L 999.761029 183.781647 
L 1002.010576 190.120802 
L 1004.260122 192.471334 
L 1006.509669 206.794788 
L 1008.759215 210.372966 
L 1011.008761 210.372966 
L 1013.258308 214.292417 
L 1015.507854 203.503183 
L 1017.757401 203.503183 
L 1020.006947 210.372966 
L 1026.755587 210.372966 
L 1029.005133 206.794788 
L 1031.25468 218.625169 
L 1033.504226 218.625169 
L 1035.753773 223.468774 
L 1042.502412 223.468774 
L 1044.751958 228.96 
L 1047.001505 223.468774 
L 1049.251051 218.625169 
L 1060.498784 218.625169 
L 1062.74833 223.468774 
L 1064.997877 228.96 
L 1071.746516 228.96 
L 1073.996062 223.468774 
L 1087.493341 223.468774 
L 1089.742888 228.96 
L 1105.489713 228.96 
L 1107.739259 223.468774 
L 1109.988806 223.468774 
L 1112.238352 218.625169 
L 1112.238352 218.625169 
" style="fill:none;stroke:#937252;stroke-linecap:square;stroke-width:2;"/>
   </g>
   <g id="line2d_18">
    <path clip-path="url(#p4d1cda5176)" d="M 322.647544 190.120802 
L 324.89709 187.89739 
L 327.146637 183.781647 
L 329.396183 185.78805 
L 331.64573 185.78805 
L 333.895276 187.89739 
L 336.144823 185.78805 
L 338.394369 190.120802 
L 340.643916 187.89739 
L 342.893462 192.471334 
L 345.143009 183.781647 
L 347.392555 180.040605 
L 349.642102 171.951266 
L 351.891648 167.765645 
L 354.141194 169.114064 
L 356.390741 169.114064 
L 358.640287 161.616435 
L 360.889834 165.194613 
L 363.13938 163.966967 
L 367.638473 163.966967 
L 369.88802 162.774909 
L 374.387113 167.765645 
L 376.636659 167.765645 
L 378.886206 170.508201 
L 381.135752 169.114064 
L 383.385298 169.114064 
L 385.634845 161.616435 
L 387.884391 157.283683 
L 390.133938 156.268246 
L 392.383484 154.309632 
L 394.633031 151.536237 
L 399.132124 151.536237 
L 401.38167 154.309632 
L 405.880763 158.32483 
L 408.13031 158.32483 
L 410.379856 160.489704 
L 412.629402 167.765645 
L 414.878949 167.765645 
L 417.128495 169.114064 
L 419.378042 167.765645 
L 421.627588 165.194613 
L 423.877135 170.508201 
L 426.126681 171.951266 
L 428.376228 167.765645 
L 430.625774 176.611693 
L 432.875321 173.446816 
L 435.124867 176.611693 
L 437.374414 180.040605 
L 439.62396 180.040605 
L 441.873506 174.998816 
L 444.123053 171.951266 
L 446.372599 167.765645 
L 448.622146 166.46004 
L 450.871692 163.966967 
L 453.121239 165.194613 
L 455.370785 163.966967 
L 457.620332 166.46004 
L 462.119425 169.114064 
L 464.368971 171.951266 
L 466.618518 176.611693 
L 468.868064 176.611693 
L 471.11761 178.290421 
L 473.367157 176.611693 
L 475.616703 183.781647 
L 477.86625 180.040605 
L 480.115796 174.998816 
L 482.365343 173.446816 
L 484.614889 169.114064 
L 486.864436 166.46004 
L 489.113982 169.114064 
L 491.363529 162.774909 
L 493.613075 163.966967 
L 495.862622 155.27728 
L 498.112168 151.536237 
L 500.361714 155.27728 
L 504.860807 153.364232 
L 507.110354 158.32483 
L 509.3599 159.393023 
L 511.609447 174.998816 
L 513.858993 170.508201 
L 516.10854 165.194613 
L 518.358086 161.616435 
L 520.607633 157.283683 
L 522.857179 145.711128 
L 525.106726 145.711128 
L 527.356272 142.719037 
L 529.605819 144.942449 
L 531.855365 145.711128 
L 534.104911 139.929961 
L 536.354458 140.609697 
L 538.604004 143.446898 
L 540.853551 142.003834 
L 543.103097 138.603294 
L 545.352644 137.318092 
L 547.60219 136.690246 
L 549.851737 144.942449 
L 552.101283 144.942449 
L 554.35083 147.292981 
L 556.600376 146.494449 
L 558.849923 154.309632 
L 561.099469 158.32483 
L 563.349015 158.32483 
L 565.598562 151.536237 
L 567.848108 149.786054 
L 570.097655 154.309632 
L 572.347201 156.268246 
L 574.596748 144.942449 
L 576.846294 142.719037 
L 579.095841 142.003834 
L 581.345387 144.187875 
L 583.594934 149.786054 
L 585.84448 149.786054 
L 588.094027 147.292981 
L 590.343573 157.283683 
L 592.593119 163.966967 
L 594.842666 157.283683 
L 597.092212 159.393023 
L 599.341759 152.440078 
L 601.591305 152.440078 
L 606.090398 154.309632 
L 608.339945 154.309632 
L 610.589491 162.774909 
L 612.839038 163.966967 
L 615.088584 171.951266 
L 617.338131 166.46004 
L 619.587677 158.32483 
L 621.837223 160.489704 
L 624.08677 155.27728 
L 626.336316 156.268246 
L 628.585863 158.32483 
L 630.835409 154.309632 
L 633.084956 156.268246 
L 635.334502 166.46004 
L 637.584049 165.194613 
L 639.833595 167.765645 
L 642.083142 169.114064 
L 644.332688 159.393023 
L 648.831781 163.966967 
L 653.330874 163.966967 
L 655.58042 167.765645 
L 657.829967 170.508201 
L 660.079513 185.78805 
L 662.32906 192.471334 
L 664.578606 194.964407 
L 666.828153 203.503183 
L 669.077699 210.372966 
L 671.327246 214.292417 
L 673.576792 218.625169 
L 675.826339 214.292417 
L 678.075885 210.372966 
L 680.325431 206.794788 
L 682.574978 194.964407 
L 684.824524 197.618431 
L 687.074071 194.964407 
L 691.573164 194.964407 
L 693.82271 197.618431 
L 696.072257 200.455633 
L 698.321803 214.292417 
L 700.57135 206.794788 
L 702.820896 206.794788 
L 705.070443 200.455633 
L 707.319989 197.618431 
L 711.819082 192.471334 
L 714.068628 187.89739 
L 716.318175 187.89739 
L 718.567721 185.78805 
L 720.817268 187.89739 
L 723.066814 192.471334 
L 725.316361 194.964407 
L 727.565907 200.455633 
L 729.815454 206.794788 
L 732.065 214.292417 
L 734.314547 223.468774 
L 736.564093 228.96 
L 743.312732 228.96 
L 745.562279 218.625169 
L 747.811825 214.292417 
L 750.061372 210.372966 
L 759.059558 210.372966 
L 761.309104 218.625169 
L 763.558651 223.468774 
L 765.808197 228.96 
L 790.553208 228.96 
L 792.802755 218.625169 
L 806.300033 218.625169 
L 808.54958 228.96 
L 810.799126 228.96 
L 813.048673 223.468774 
L 815.298219 218.625169 
L 822.046859 218.625169 
L 824.296405 214.292417 
L 826.545952 214.292417 
L 828.795498 218.625169 
L 840.04323 218.625169 
L 842.292777 214.292417 
L 844.542323 214.292417 
L 846.79187 218.625169 
L 855.790056 218.625169 
L 858.039602 223.468774 
L 869.287334 223.468774 
L 871.536881 228.96 
L 921.026903 228.96 
L 923.276449 223.468774 
L 936.773728 223.468774 
L 939.023275 228.96 
L 977.265565 228.96 
L 979.515111 223.468774 
L 993.01239 223.468774 
L 995.261936 228.96 
L 1064.997877 228.96 
L 1067.247423 223.468774 
L 1080.744702 223.468774 
L 1082.994248 228.96 
L 1096.491527 228.96 
L 1098.741073 223.468774 
L 1098.741073 223.468774 
" style="fill:none;stroke:#d18cad;stroke-linecap:square;stroke-width:2;"/>
   </g>
   <g id="line2d_19">
    <path clip-path="url(#p4d1cda5176)" d="M 358.640287 210.372966 
L 360.889834 214.292417 
L 363.13938 214.292417 
L 365.388927 206.794788 
L 367.638473 214.292417 
L 369.88802 203.503183 
L 372.137566 206.794788 
L 374.387113 200.455633 
L 376.636659 197.618431 
L 378.886206 197.618431 
L 381.135752 200.455633 
L 383.385298 194.964407 
L 385.634845 203.503183 
L 387.884391 197.618431 
L 390.133938 197.618431 
L 392.383484 200.455633 
L 394.633031 194.964407 
L 396.882577 194.964407 
L 399.132124 200.455633 
L 401.38167 200.455633 
L 403.631217 206.794788 
L 405.880763 210.372966 
L 408.13031 210.372966 
L 410.379856 214.292417 
L 412.629402 214.292417 
L 414.878949 206.794788 
L 417.128495 203.503183 
L 419.378042 200.455633 
L 421.627588 203.503183 
L 423.877135 203.503183 
L 426.126681 206.794788 
L 428.376228 210.372966 
L 430.625774 218.625169 
L 432.875321 218.625169 
L 435.124867 223.468774 
L 437.374414 218.625169 
L 439.62396 218.625169 
L 441.873506 214.292417 
L 450.871692 214.292417 
L 453.121239 218.625169 
L 455.370785 218.625169 
L 457.620332 223.468774 
L 462.119425 223.468774 
L 464.368971 228.96 
L 468.868064 228.96 
L 471.11761 223.468774 
L 473.367157 223.468774 
L 475.616703 218.625169 
L 484.614889 218.625169 
L 486.864436 223.468774 
L 489.113982 223.468774 
L 491.363529 228.96 
L 493.613075 223.468774 
L 495.862622 214.292417 
L 500.361714 214.292417 
L 502.611261 206.794788 
L 504.860807 206.794788 
L 507.110354 203.503183 
L 509.3599 200.455633 
L 511.609447 206.794788 
L 516.10854 206.794788 
L 518.358086 214.292417 
L 522.857179 214.292417 
L 525.106726 223.468774 
L 527.356272 223.468774 
L 529.605819 218.625169 
L 531.855365 210.372966 
L 536.354458 210.372966 
L 538.604004 214.292417 
L 540.853551 210.372966 
L 543.103097 206.794788 
L 545.352644 210.372966 
L 547.60219 214.292417 
L 549.851737 210.372966 
L 554.35083 210.372966 
L 556.600376 214.292417 
L 558.849923 218.625169 
L 561.099469 218.625169 
L 563.349015 223.468774 
L 565.598562 228.96 
L 567.848108 223.468774 
L 570.097655 218.625169 
L 572.347201 214.292417 
L 579.095841 214.292417 
L 581.345387 210.372966 
L 583.594934 210.372966 
L 585.84448 214.292417 
L 597.092212 214.292417 
L 599.341759 210.372966 
L 603.840852 210.372966 
L 606.090398 206.794788 
L 608.339945 206.794788 
L 610.589491 200.455633 
L 612.839038 203.503183 
L 615.088584 206.794788 
L 617.338131 203.503183 
L 624.08677 203.503183 
L 626.336316 210.372966 
L 628.585863 206.794788 
L 630.835409 210.372966 
L 633.084956 214.292417 
L 635.334502 218.625169 
L 637.584049 223.468774 
L 642.083142 223.468774 
L 644.332688 228.96 
L 646.582235 228.96 
L 648.831781 218.625169 
L 662.32906 218.625169 
L 664.578606 223.468774 
L 666.828153 218.625169 
L 669.077699 218.625169 
L 671.327246 214.292417 
L 675.826339 214.292417 
L 678.075885 210.372966 
L 680.325431 214.292417 
L 682.574978 218.625169 
L 684.824524 218.625169 
L 687.074071 223.468774 
L 689.323617 218.625169 
L 691.573164 218.625169 
L 693.82271 223.468774 
L 702.820896 223.468774 
L 705.070443 228.96 
L 707.319989 223.468774 
L 709.569536 223.468774 
L 711.819082 218.625169 
L 714.068628 210.372966 
L 716.318175 210.372966 
L 718.567721 206.794788 
L 723.066814 206.794788 
L 725.316361 203.503183 
L 727.565907 206.794788 
L 729.815454 210.372966 
L 732.065 203.503183 
L 736.564093 203.503183 
L 738.81364 206.794788 
L 741.063186 210.372966 
L 743.312732 210.372966 
L 745.562279 214.292417 
L 747.811825 223.468774 
L 750.061372 223.468774 
L 752.310918 218.625169 
L 754.560465 218.625169 
L 756.810011 214.292417 
L 759.059558 203.503183 
L 761.309104 203.503183 
L 763.558651 200.455633 
L 763.558651 200.455633 
" style="fill:none;stroke:#a4a86f;stroke-linecap:square;stroke-width:2;"/>
   </g>
   <g id="line2d_20">
    <path clip-path="url(#p4d1cda5176)" d="M 495.862622 218.625169 
L 498.112168 223.468774 
L 500.361714 228.96 
L 502.611261 228.96 
L 504.860807 214.292417 
L 507.110354 214.292417 
L 509.3599 210.372966 
L 511.609447 203.503183 
L 518.358086 203.503183 
L 520.607633 214.292417 
L 522.857179 214.292417 
L 525.106726 218.625169 
L 527.356272 228.96 
L 529.605819 228.96 
L 531.855365 223.468774 
L 534.104911 218.625169 
L 536.354458 218.625169 
L 538.604004 210.372966 
L 545.352644 210.372966 
L 547.60219 214.292417 
L 549.851737 218.625169 
L 552.101283 218.625169 
L 554.35083 228.96 
L 556.600376 228.96 
L 558.849923 223.468774 
L 567.848108 223.468774 
L 570.097655 210.372966 
L 572.347201 203.503183 
L 574.596748 206.794788 
L 579.095841 206.794788 
L 581.345387 200.455633 
L 583.594934 200.455633 
L 585.84448 210.372966 
L 588.094027 218.625169 
L 594.842666 218.625169 
L 597.092212 228.96 
L 610.589491 228.96 
L 612.839038 223.468774 
L 626.336316 223.468774 
L 628.585863 228.96 
L 673.576792 228.96 
L 675.826339 223.468774 
L 689.323617 223.468774 
L 691.573164 228.96 
L 745.562279 228.96 
L 747.811825 223.468774 
L 761.309104 223.468774 
L 763.558651 228.96 
L 858.039602 228.96 
L 860.289148 223.468774 
L 860.289148 223.468774 
" style="fill:none;stroke:#d3d3d3;stroke-linecap:square;stroke-width:2;"/>
   </g>
   <g id="patch_3">
    <path d="M 46.965625 228.96 
L 46.965625 7.2 
" style="fill:none;stroke:#000000;stroke-linecap:square;stroke-linejoin:miter;stroke-width:0.8;"/>
   </g>
   <g id="patch_4">
    <path d="M 46.965625 228.96 
L 1162.965625 228.96 
" style="fill:none;stroke:#000000;stroke-linecap:square;stroke-linejoin:miter;stroke-width:0.8;"/>
   </g>
   <g id="legend_1">
    <g id="line2d_21">
     <path d="M 1069.154375 17.67875 
L 1085.154375 17.67875 
" style="fill:none;stroke:#947383;stroke-linecap:square;stroke-width:2;"/>
    </g>
    <g id="line2d_22"/>
    <g id="text_16">
     <!-- North America -->
     <g transform="translate(1091.554375 20.47875)scale(0.08 -0.08)">
      <defs>
       <path d="M 628 4666 
L 1478 4666 
L 3547 763 
L 3547 4666 
L 4159 4666 
L 4159 0 
L 3309 0 
L 1241 3903 
L 1241 0 
L 628 0 
L 628 4666 
z
" id="DejaVuSans-4e" transform="scale(0.015625)"/>
       <path d="M 3513 2113 
L 3513 0 
L 2938 0 
L 2938 2094 
Q 2938 2591 2744 2837 
Q 2550 3084 2163 3084 
Q 1697 3084 1428 2787 
Q 1159 2491 1159 1978 
L 1159 0 
L 581 0 
L 581 4863 
L 1159 4863 
L 1159 2956 
Q 1366 3272 1645 3428 
Q 1925 3584 2291 3584 
Q 2894 3584 3203 3211 
Q 3513 2838 3513 2113 
z
" id="DejaVuSans-68" transform="scale(0.015625)"/>
       <path d="M 2188 4044 
L 1331 1722 
L 3047 1722 
L 2188 4044 
z
M 1831 4666 
L 2547 4666 
L 4325 0 
L 3669 0 
L 3244 1197 
L 1141 1197 
L 716 0 
L 50 0 
L 1831 4666 
z
" id="DejaVuSans-41" transform="scale(0.015625)"/>
       <path d="M 3328 2828 
Q 3544 3216 3844 3400 
Q 4144 3584 4550 3584 
Q 5097 3584 5394 3201 
Q 5691 2819 5691 2113 
L 5691 0 
L 5113 0 
L 5113 2094 
Q 5113 2597 4934 2840 
Q 4756 3084 4391 3084 
Q 3944 3084 3684 2787 
Q 3425 2491 3425 1978 
L 3425 0 
L 2847 0 
L 2847 2094 
Q 2847 2600 2669 2842 
Q 2491 3084 2119 3084 
Q 1678 3084 1418 2786 
Q 1159 2488 1159 1978 
L 1159 0 
L 581 0 
L 581 3500 
L 1159 3500 
L 1159 2956 
Q 1356 3278 1631 3431 
Q 1906 3584 2284 3584 
Q 2666 3584 2933 3390 
Q 3200 3197 3328 2828 
z
" id="DejaVuSans-6d" transform="scale(0.015625)"/>
       <path d="M 3122 3366 
L 3122 2828 
Q 2878 2963 2633 3030 
Q 2388 3097 2138 3097 
Q 1578 3097 1268 2742 
Q 959 2388 959 1747 
Q 959 1106 1268 751 
Q 1578 397 2138 397 
Q 2388 397 2633 464 
Q 2878 531 3122 666 
L 3122 134 
Q 2881 22 2623 -34 
Q 2366 -91 2075 -91 
Q 1284 -91 818 406 
Q 353 903 353 1747 
Q 353 2603 823 3093 
Q 1294 3584 2113 3584 
Q 2378 3584 2631 3529 
Q 2884 3475 3122 3366 
z
" id="DejaVuSans-63" transform="scale(0.015625)"/>
      </defs>
      <use xlink:href="#DejaVuSans-4e"/>
      <use x="74.804688" xlink:href="#DejaVuSans-6f"/>
      <use x="135.986328" xlink:href="#DejaVuSans-72"/>
      <use x="177.099609" xlink:href="#DejaVuSans-74"/>
      <use x="216.308594" xlink:href="#DejaVuSans-68"/>
      <use x="279.6875" xlink:href="#DejaVuSans-20"/>
      <use x="311.474609" xlink:href="#DejaVuSans-41"/>
      <use x="379.882812" xlink:href="#DejaVuSans-6d"/>
      <use x="477.294922" xlink:href="#DejaVuSans-65"/>
      <use x="538.818359" xlink:href="#DejaVuSans-72"/>
      <use x="579.931641" xlink:href="#DejaVuSans-69"/>
      <use x="607.714844" xlink:href="#DejaVuSans-63"/>
      <use x="662.695312" xlink:href="#DejaVuSans-61"/>
     </g>
    </g>
    <g id="line2d_23">
     <path d="M 1069.154375 29.42125 
L 1085.154375 29.42125 
" style="fill:none;stroke:#96c6ad;stroke-linecap:square;stroke-width:2;"/>
    </g>
    <g id="line2d_24"/>
    <g id="text_17">
     <!-- Europe -->
     <g transform="translate(1091.554375 32.22125)scale(0.08 -0.08)">
      <defs>
       <path d="M 628 4666 
L 3578 4666 
L 3578 4134 
L 1259 4134 
L 1259 2753 
L 3481 2753 
L 3481 2222 
L 1259 2222 
L 1259 531 
L 3634 531 
L 3634 0 
L 628 0 
L 628 4666 
z
" id="DejaVuSans-45" transform="scale(0.015625)"/>
       <path d="M 1159 525 
L 1159 -1331 
L 581 -1331 
L 581 3500 
L 1159 3500 
L 1159 2969 
Q 1341 3281 1617 3432 
Q 1894 3584 2278 3584 
Q 2916 3584 3314 3078 
Q 3713 2572 3713 1747 
Q 3713 922 3314 415 
Q 2916 -91 2278 -91 
Q 1894 -91 1617 61 
Q 1341 213 1159 525 
z
M 3116 1747 
Q 3116 2381 2855 2742 
Q 2594 3103 2138 3103 
Q 1681 3103 1420 2742 
Q 1159 2381 1159 1747 
Q 1159 1113 1420 752 
Q 1681 391 2138 391 
Q 2594 391 2855 752 
Q 3116 1113 3116 1747 
z
" id="DejaVuSans-70" transform="scale(0.015625)"/>
      </defs>
      <use xlink:href="#DejaVuSans-45"/>
      <use x="63.183594" xlink:href="#DejaVuSans-75"/>
      <use x="126.5625" xlink:href="#DejaVuSans-72"/>
      <use x="165.425781" xlink:href="#DejaVuSans-6f"/>
      <use x="226.607422" xlink:href="#DejaVuSans-70"/>
      <use x="290.083984" xlink:href="#DejaVuSans-65"/>
     </g>
    </g>
    <g id="line2d_25">
     <path d="M 1069.154375 41.16375 
L 1085.154375 41.16375 
" style="fill:none;stroke:#525886;stroke-linecap:square;stroke-width:2;"/>
    </g>
    <g id="line2d_26"/>
    <g id="text_18">
     <!-- Asia -->
     <g transform="translate(1091.554375 43.96375)scale(0.08 -0.08)">
      <defs>
       <path d="M 2834 3397 
L 2834 2853 
Q 2591 2978 2328 3040 
Q 2066 3103 1784 3103 
Q 1356 3103 1142 2972 
Q 928 2841 928 2578 
Q 928 2378 1081 2264 
Q 1234 2150 1697 2047 
L 1894 2003 
Q 2506 1872 2764 1633 
Q 3022 1394 3022 966 
Q 3022 478 2636 193 
Q 2250 -91 1575 -91 
Q 1294 -91 989 -36 
Q 684 19 347 128 
L 347 722 
Q 666 556 975 473 
Q 1284 391 1588 391 
Q 1994 391 2212 530 
Q 2431 669 2431 922 
Q 2431 1156 2273 1281 
Q 2116 1406 1581 1522 
L 1381 1569 
Q 847 1681 609 1914 
Q 372 2147 372 2553 
Q 372 3047 722 3315 
Q 1072 3584 1716 3584 
Q 2034 3584 2315 3537 
Q 2597 3491 2834 3397 
z
" id="DejaVuSans-73" transform="scale(0.015625)"/>
      </defs>
      <use xlink:href="#DejaVuSans-41"/>
      <use x="68.408203" xlink:href="#DejaVuSans-73"/>
      <use x="120.507812" xlink:href="#DejaVuSans-69"/>
      <use x="148.291016" xlink:href="#DejaVuSans-61"/>
     </g>
    </g>
    <g id="line2d_27">
     <path d="M 1069.154375 52.90625 
L 1085.154375 52.90625 
" style="fill:none;stroke:#937252;stroke-linecap:square;stroke-width:2;"/>
    </g>
    <g id="line2d_28"/>
    <g id="text_19">
     <!-- Africa -->
     <g transform="translate(1091.554375 55.70625)scale(0.08 -0.08)">
      <defs>
       <path d="M 2375 4863 
L 2375 4384 
L 1825 4384 
Q 1516 4384 1395 4259 
Q 1275 4134 1275 3809 
L 1275 3500 
L 2222 3500 
L 2222 3053 
L 1275 3053 
L 1275 0 
L 697 0 
L 697 3053 
L 147 3053 
L 147 3500 
L 697 3500 
L 697 3744 
Q 697 4328 969 4595 
Q 1241 4863 1831 4863 
L 2375 4863 
z
" id="DejaVuSans-66" transform="scale(0.015625)"/>
      </defs>
      <use xlink:href="#DejaVuSans-41"/>
      <use x="64.783203" xlink:href="#DejaVuSans-66"/>
      <use x="99.988281" xlink:href="#DejaVuSans-72"/>
      <use x="141.101562" xlink:href="#DejaVuSans-69"/>
      <use x="168.884766" xlink:href="#DejaVuSans-63"/>
      <use x="223.865234" xlink:href="#DejaVuSans-61"/>
     </g>
    </g>
    <g id="line2d_29">
     <path d="M 1069.154375 64.64875 
L 1085.154375 64.64875 
" style="fill:none;stroke:#d18cad;stroke-linecap:square;stroke-width:2;"/>
    </g>
    <g id="line2d_30"/>
    <g id="text_20">
     <!-- United Kingdom -->
     <g transform="translate(1091.554375 67.44875)scale(0.08 -0.08)">
      <defs>
       <path d="M 556 4666 
L 1191 4666 
L 1191 1831 
Q 1191 1081 1462 751 
Q 1734 422 2344 422 
Q 2950 422 3222 751 
Q 3494 1081 3494 1831 
L 3494 4666 
L 4128 4666 
L 4128 1753 
Q 4128 841 3676 375 
Q 3225 -91 2344 -91 
Q 1459 -91 1007 375 
Q 556 841 556 1753 
L 556 4666 
z
" id="DejaVuSans-55" transform="scale(0.015625)"/>
       <path d="M 628 4666 
L 1259 4666 
L 1259 2694 
L 3353 4666 
L 4166 4666 
L 1850 2491 
L 4331 0 
L 3500 0 
L 1259 2247 
L 1259 0 
L 628 0 
L 628 4666 
z
" id="DejaVuSans-4b" transform="scale(0.015625)"/>
      </defs>
      <use xlink:href="#DejaVuSans-55"/>
      <use x="73.193359" xlink:href="#DejaVuSans-6e"/>
      <use x="136.572266" xlink:href="#DejaVuSans-69"/>
      <use x="164.355469" xlink:href="#DejaVuSans-74"/>
      <use x="203.564453" xlink:href="#DejaVuSans-65"/>
      <use x="265.087891" xlink:href="#DejaVuSans-64"/>
      <use x="328.564453" xlink:href="#DejaVuSans-20"/>
      <use x="360.351562" xlink:href="#DejaVuSans-4b"/>
      <use x="425.927734" xlink:href="#DejaVuSans-69"/>
      <use x="453.710938" xlink:href="#DejaVuSans-6e"/>
      <use x="517.089844" xlink:href="#DejaVuSans-67"/>
      <use x="580.566406" xlink:href="#DejaVuSans-64"/>
      <use x="644.042969" xlink:href="#DejaVuSans-6f"/>
      <use x="705.224609" xlink:href="#DejaVuSans-6d"/>
     </g>
    </g>
    <g id="line2d_31">
     <path d="M 1069.154375 76.39125 
L 1085.154375 76.39125 
" style="fill:none;stroke:#a4a86f;stroke-linecap:square;stroke-width:2;"/>
    </g>
    <g id="line2d_32"/>
    <g id="text_21">
     <!-- Oceania -->
     <g transform="translate(1091.554375 79.19125)scale(0.08 -0.08)">
      <defs>
       <path d="M 2522 4238 
Q 1834 4238 1429 3725 
Q 1025 3213 1025 2328 
Q 1025 1447 1429 934 
Q 1834 422 2522 422 
Q 3209 422 3611 934 
Q 4013 1447 4013 2328 
Q 4013 3213 3611 3725 
Q 3209 4238 2522 4238 
z
M 2522 4750 
Q 3503 4750 4090 4092 
Q 4678 3434 4678 2328 
Q 4678 1225 4090 567 
Q 3503 -91 2522 -91 
Q 1538 -91 948 565 
Q 359 1222 359 2328 
Q 359 3434 948 4092 
Q 1538 4750 2522 4750 
z
" id="DejaVuSans-4f" transform="scale(0.015625)"/>
      </defs>
      <use xlink:href="#DejaVuSans-4f"/>
      <use x="78.710938" xlink:href="#DejaVuSans-63"/>
      <use x="133.691406" xlink:href="#DejaVuSans-65"/>
      <use x="195.214844" xlink:href="#DejaVuSans-61"/>
      <use x="256.494141" xlink:href="#DejaVuSans-6e"/>
      <use x="319.873047" xlink:href="#DejaVuSans-69"/>
      <use x="347.65625" xlink:href="#DejaVuSans-61"/>
     </g>
    </g>
    <g id="line2d_33">
     <path d="M 1069.154375 88.13375 
L 1085.154375 88.13375 
" style="fill:none;stroke:#d3d3d3;stroke-linecap:square;stroke-width:2;"/>
    </g>
    <g id="line2d_34"/>
    <g id="text_22">
     <!-- South America -->
     <g transform="translate(1091.554375 90.93375)scale(0.08 -0.08)">
      <defs>
       <path d="M 3425 4513 
L 3425 3897 
Q 3066 4069 2747 4153 
Q 2428 4238 2131 4238 
Q 1616 4238 1336 4038 
Q 1056 3838 1056 3469 
Q 1056 3159 1242 3001 
Q 1428 2844 1947 2747 
L 2328 2669 
Q 3034 2534 3370 2195 
Q 3706 1856 3706 1288 
Q 3706 609 3251 259 
Q 2797 -91 1919 -91 
Q 1588 -91 1214 -16 
Q 841 59 441 206 
L 441 856 
Q 825 641 1194 531 
Q 1563 422 1919 422 
Q 2459 422 2753 634 
Q 3047 847 3047 1241 
Q 3047 1584 2836 1778 
Q 2625 1972 2144 2069 
L 1759 2144 
Q 1053 2284 737 2584 
Q 422 2884 422 3419 
Q 422 4038 858 4394 
Q 1294 4750 2059 4750 
Q 2388 4750 2728 4690 
Q 3069 4631 3425 4513 
z
" id="DejaVuSans-53" transform="scale(0.015625)"/>
      </defs>
      <use xlink:href="#DejaVuSans-53"/>
      <use x="63.476562" xlink:href="#DejaVuSans-6f"/>
      <use x="124.658203" xlink:href="#DejaVuSans-75"/>
      <use x="188.037109" xlink:href="#DejaVuSans-74"/>
      <use x="227.246094" xlink:href="#DejaVuSans-68"/>
      <use x="290.625" xlink:href="#DejaVuSans-20"/>
      <use x="322.412109" xlink:href="#DejaVuSans-41"/>
      <use x="390.820312" xlink:href="#DejaVuSans-6d"/>
      <use x="488.232422" xlink:href="#DejaVuSans-65"/>
      <use x="549.755859" xlink:href="#DejaVuSans-72"/>
      <use x="590.869141" xlink:href="#DejaVuSans-69"/>
      <use x="618.652344" xlink:href="#DejaVuSans-63"/>
      <use x="673.632812" xlink:href="#DejaVuSans-61"/>
     </g>
    </g>
   </g>
  </g>
 </g>
 <defs>
  <clipPath id="p4d1cda5176">
   <rect height="221.76" width="1116" x="46.965625" y="7.2"/>
  </clipPath>
 </defs>
</svg>
