<?xml version="1.0" encoding="utf-8" standalone="no"?>
<!DOCTYPE svg PUBLIC "-//W3C//DTD SVG 1.1//EN"
  "http://www.w3.org/Graphics/SVG/1.1/DTD/svg11.dtd">
<svg height="298.620937pt" version="1.1" viewBox="0 0 1176.528125 298.620937" width="1176.528125pt" xmlns="http://www.w3.org/2000/svg" xmlns:xlink="http://www.w3.org/1999/xlink">
 <metadata>
  <rdf:RDF xmlns:cc="http://creativecommons.org/ns#" xmlns:dc="http://purl.org/dc/elements/1.1/" xmlns:rdf="http://www.w3.org/1999/02/22-rdf-syntax-ns#">
   <cc:Work>
    <dc:type rdf:resource="http://purl.org/dc/dcmitype/StillImage"/>
    <dc:date>2021-10-12T13:21:02.587606</dc:date>
    <dc:format>image/svg+xml</dc:format>
    <dc:creator>
     <cc:Agent>
      <dc:title>Matplotlib v3.4.2, https://matplotlib.org/</dc:title>
     </cc:Agent>
    </dc:creator>
   </cc:Work>
  </rdf:RDF>
 </metadata>
 <defs>
  <style type="text/css">*{stroke-linecap:butt;stroke-linejoin:round;}</style>
 </defs>
 <g id="figure_1">
  <g id="patch_1">
   <path d="M 0 298.620937 
L 1176.528125 298.620937 
L 1176.528125 0 
L 0 0 
z
" style="fill:#ffffff;"/>
  </g>
  <g id="axes_1">
   <g id="patch_2">
    <path d="M 53.328125 228.96 
L 1169.328125 228.96 
L 1169.328125 7.2 
L 53.328125 7.2 
z
" style="fill:#ffffff;"/>
   </g>
   <g id="matplotlib.axis_1">
    <g id="xtick_1">
     <g id="line2d_1">
      <defs>
       <path d="M 0 0 
L 0 3.5 
" id="m13db2081f6" style="stroke:#000000;stroke-width:0.8;"/>
      </defs>
      <g>
       <use style="stroke:#000000;stroke-width:0.8;" x="83.082882" xlink:href="#m13db2081f6" y="228.96"/>
      </g>
     </g>
     <g id="text_1">
      <!-- 2020-09 -->
      <g transform="translate(85.842257 277.742812)rotate(-90)scale(0.1 -0.1)">
       <defs>
        <path d="M 1228 531 
L 3431 531 
L 3431 0 
L 469 0 
L 469 531 
Q 828 903 1448 1529 
Q 2069 2156 2228 2338 
Q 2531 2678 2651 2914 
Q 2772 3150 2772 3378 
Q 2772 3750 2511 3984 
Q 2250 4219 1831 4219 
Q 1534 4219 1204 4116 
Q 875 4013 500 3803 
L 500 4441 
Q 881 4594 1212 4672 
Q 1544 4750 1819 4750 
Q 2544 4750 2975 4387 
Q 3406 4025 3406 3419 
Q 3406 3131 3298 2873 
Q 3191 2616 2906 2266 
Q 2828 2175 2409 1742 
Q 1991 1309 1228 531 
z
" id="DejaVuSans-32" transform="scale(0.015625)"/>
        <path d="M 2034 4250 
Q 1547 4250 1301 3770 
Q 1056 3291 1056 2328 
Q 1056 1369 1301 889 
Q 1547 409 2034 409 
Q 2525 409 2770 889 
Q 3016 1369 3016 2328 
Q 3016 3291 2770 3770 
Q 2525 4250 2034 4250 
z
M 2034 4750 
Q 2819 4750 3233 4129 
Q 3647 3509 3647 2328 
Q 3647 1150 3233 529 
Q 2819 -91 2034 -91 
Q 1250 -91 836 529 
Q 422 1150 422 2328 
Q 422 3509 836 4129 
Q 1250 4750 2034 4750 
z
" id="DejaVuSans-30" transform="scale(0.015625)"/>
        <path d="M 313 2009 
L 1997 2009 
L 1997 1497 
L 313 1497 
L 313 2009 
z
" id="DejaVuSans-2d" transform="scale(0.015625)"/>
        <path d="M 703 97 
L 703 672 
Q 941 559 1184 500 
Q 1428 441 1663 441 
Q 2288 441 2617 861 
Q 2947 1281 2994 2138 
Q 2813 1869 2534 1725 
Q 2256 1581 1919 1581 
Q 1219 1581 811 2004 
Q 403 2428 403 3163 
Q 403 3881 828 4315 
Q 1253 4750 1959 4750 
Q 2769 4750 3195 4129 
Q 3622 3509 3622 2328 
Q 3622 1225 3098 567 
Q 2575 -91 1691 -91 
Q 1453 -91 1209 -44 
Q 966 3 703 97 
z
M 1959 2075 
Q 2384 2075 2632 2365 
Q 2881 2656 2881 3163 
Q 2881 3666 2632 3958 
Q 2384 4250 1959 4250 
Q 1534 4250 1286 3958 
Q 1038 3666 1038 3163 
Q 1038 2656 1286 2365 
Q 1534 2075 1959 2075 
z
" id="DejaVuSans-39" transform="scale(0.015625)"/>
       </defs>
       <use xlink:href="#DejaVuSans-32"/>
       <use x="63.623047" xlink:href="#DejaVuSans-30"/>
       <use x="127.246094" xlink:href="#DejaVuSans-32"/>
       <use x="190.869141" xlink:href="#DejaVuSans-30"/>
       <use x="254.492188" xlink:href="#DejaVuSans-2d"/>
       <use x="290.576172" xlink:href="#DejaVuSans-30"/>
       <use x="354.199219" xlink:href="#DejaVuSans-39"/>
      </g>
     </g>
    </g>
    <g id="xtick_2">
     <g id="line2d_2">
      <g>
       <use style="stroke:#000000;stroke-width:0.8;" x="242.998315" xlink:href="#m13db2081f6" y="228.96"/>
      </g>
     </g>
     <g id="text_2">
      <!-- 2020-11 -->
      <g transform="translate(245.75769 277.742812)rotate(-90)scale(0.1 -0.1)">
       <defs>
        <path d="M 794 531 
L 1825 531 
L 1825 4091 
L 703 3866 
L 703 4441 
L 1819 4666 
L 2450 4666 
L 2450 531 
L 3481 531 
L 3481 0 
L 794 0 
L 794 531 
z
" id="DejaVuSans-31" transform="scale(0.015625)"/>
       </defs>
       <use xlink:href="#DejaVuSans-32"/>
       <use x="63.623047" xlink:href="#DejaVuSans-30"/>
       <use x="127.246094" xlink:href="#DejaVuSans-32"/>
       <use x="190.869141" xlink:href="#DejaVuSans-30"/>
       <use x="254.492188" xlink:href="#DejaVuSans-2d"/>
       <use x="290.576172" xlink:href="#DejaVuSans-31"/>
       <use x="354.199219" xlink:href="#DejaVuSans-31"/>
      </g>
     </g>
    </g>
    <g id="xtick_3">
     <g id="line2d_3">
      <g>
       <use style="stroke:#000000;stroke-width:0.8;" x="402.913749" xlink:href="#m13db2081f6" y="228.96"/>
      </g>
     </g>
     <g id="text_3">
      <!-- 2021-01 -->
      <g transform="translate(405.673124 277.742812)rotate(-90)scale(0.1 -0.1)">
       <use xlink:href="#DejaVuSans-32"/>
       <use x="63.623047" xlink:href="#DejaVuSans-30"/>
       <use x="127.246094" xlink:href="#DejaVuSans-32"/>
       <use x="190.869141" xlink:href="#DejaVuSans-31"/>
       <use x="254.492188" xlink:href="#DejaVuSans-2d"/>
       <use x="290.576172" xlink:href="#DejaVuSans-30"/>
       <use x="354.199219" xlink:href="#DejaVuSans-31"/>
      </g>
     </g>
    </g>
    <g id="xtick_4">
     <g id="line2d_4">
      <g>
       <use style="stroke:#000000;stroke-width:0.8;" x="557.586053" xlink:href="#m13db2081f6" y="228.96"/>
      </g>
     </g>
     <g id="text_4">
      <!-- 2021-03 -->
      <g transform="translate(560.345428 277.742812)rotate(-90)scale(0.1 -0.1)">
       <defs>
        <path d="M 2597 2516 
Q 3050 2419 3304 2112 
Q 3559 1806 3559 1356 
Q 3559 666 3084 287 
Q 2609 -91 1734 -91 
Q 1441 -91 1130 -33 
Q 819 25 488 141 
L 488 750 
Q 750 597 1062 519 
Q 1375 441 1716 441 
Q 2309 441 2620 675 
Q 2931 909 2931 1356 
Q 2931 1769 2642 2001 
Q 2353 2234 1838 2234 
L 1294 2234 
L 1294 2753 
L 1863 2753 
Q 2328 2753 2575 2939 
Q 2822 3125 2822 3475 
Q 2822 3834 2567 4026 
Q 2313 4219 1838 4219 
Q 1578 4219 1281 4162 
Q 984 4106 628 3988 
L 628 4550 
Q 988 4650 1302 4700 
Q 1616 4750 1894 4750 
Q 2613 4750 3031 4423 
Q 3450 4097 3450 3541 
Q 3450 3153 3228 2886 
Q 3006 2619 2597 2516 
z
" id="DejaVuSans-33" transform="scale(0.015625)"/>
       </defs>
       <use xlink:href="#DejaVuSans-32"/>
       <use x="63.623047" xlink:href="#DejaVuSans-30"/>
       <use x="127.246094" xlink:href="#DejaVuSans-32"/>
       <use x="190.869141" xlink:href="#DejaVuSans-31"/>
       <use x="254.492188" xlink:href="#DejaVuSans-2d"/>
       <use x="290.576172" xlink:href="#DejaVuSans-30"/>
       <use x="354.199219" xlink:href="#DejaVuSans-33"/>
      </g>
     </g>
    </g>
    <g id="xtick_5">
     <g id="line2d_5">
      <g>
       <use style="stroke:#000000;stroke-width:0.8;" x="717.501487" xlink:href="#m13db2081f6" y="228.96"/>
      </g>
     </g>
     <g id="text_5">
      <!-- 2021-05 -->
      <g transform="translate(720.260862 277.742812)rotate(-90)scale(0.1 -0.1)">
       <defs>
        <path d="M 691 4666 
L 3169 4666 
L 3169 4134 
L 1269 4134 
L 1269 2991 
Q 1406 3038 1543 3061 
Q 1681 3084 1819 3084 
Q 2600 3084 3056 2656 
Q 3513 2228 3513 1497 
Q 3513 744 3044 326 
Q 2575 -91 1722 -91 
Q 1428 -91 1123 -41 
Q 819 9 494 109 
L 494 744 
Q 775 591 1075 516 
Q 1375 441 1709 441 
Q 2250 441 2565 725 
Q 2881 1009 2881 1497 
Q 2881 1984 2565 2268 
Q 2250 2553 1709 2553 
Q 1456 2553 1204 2497 
Q 953 2441 691 2322 
L 691 4666 
z
" id="DejaVuSans-35" transform="scale(0.015625)"/>
       </defs>
       <use xlink:href="#DejaVuSans-32"/>
       <use x="63.623047" xlink:href="#DejaVuSans-30"/>
       <use x="127.246094" xlink:href="#DejaVuSans-32"/>
       <use x="190.869141" xlink:href="#DejaVuSans-31"/>
       <use x="254.492188" xlink:href="#DejaVuSans-2d"/>
       <use x="290.576172" xlink:href="#DejaVuSans-30"/>
       <use x="354.199219" xlink:href="#DejaVuSans-35"/>
      </g>
     </g>
    </g>
    <g id="xtick_6">
     <g id="line2d_6">
      <g>
       <use style="stroke:#000000;stroke-width:0.8;" x="877.41692" xlink:href="#m13db2081f6" y="228.96"/>
      </g>
     </g>
     <g id="text_6">
      <!-- 2021-07 -->
      <g transform="translate(880.176295 277.742812)rotate(-90)scale(0.1 -0.1)">
       <defs>
        <path d="M 525 4666 
L 3525 4666 
L 3525 4397 
L 1831 0 
L 1172 0 
L 2766 4134 
L 525 4134 
L 525 4666 
z
" id="DejaVuSans-37" transform="scale(0.015625)"/>
       </defs>
       <use xlink:href="#DejaVuSans-32"/>
       <use x="63.623047" xlink:href="#DejaVuSans-30"/>
       <use x="127.246094" xlink:href="#DejaVuSans-32"/>
       <use x="190.869141" xlink:href="#DejaVuSans-31"/>
       <use x="254.492188" xlink:href="#DejaVuSans-2d"/>
       <use x="290.576172" xlink:href="#DejaVuSans-30"/>
       <use x="354.199219" xlink:href="#DejaVuSans-37"/>
      </g>
     </g>
    </g>
    <g id="xtick_7">
     <g id="line2d_7">
      <g>
       <use style="stroke:#000000;stroke-width:0.8;" x="1039.953918" xlink:href="#m13db2081f6" y="228.96"/>
      </g>
     </g>
     <g id="text_7">
      <!-- 2021-09 -->
      <g transform="translate(1042.713293 277.742812)rotate(-90)scale(0.1 -0.1)">
       <use xlink:href="#DejaVuSans-32"/>
       <use x="63.623047" xlink:href="#DejaVuSans-30"/>
       <use x="127.246094" xlink:href="#DejaVuSans-32"/>
       <use x="190.869141" xlink:href="#DejaVuSans-31"/>
       <use x="254.492188" xlink:href="#DejaVuSans-2d"/>
       <use x="290.576172" xlink:href="#DejaVuSans-30"/>
       <use x="354.199219" xlink:href="#DejaVuSans-39"/>
      </g>
     </g>
    </g>
    <g id="text_8">
     <!-- Date -->
     <g transform="translate(599.377344 289.34125)scale(0.1 -0.1)">
      <defs>
       <path d="M 1259 4147 
L 1259 519 
L 2022 519 
Q 2988 519 3436 956 
Q 3884 1394 3884 2338 
Q 3884 3275 3436 3711 
Q 2988 4147 2022 4147 
L 1259 4147 
z
M 628 4666 
L 1925 4666 
Q 3281 4666 3915 4102 
Q 4550 3538 4550 2338 
Q 4550 1131 3912 565 
Q 3275 0 1925 0 
L 628 0 
L 628 4666 
z
" id="DejaVuSans-44" transform="scale(0.015625)"/>
       <path d="M 2194 1759 
Q 1497 1759 1228 1600 
Q 959 1441 959 1056 
Q 959 750 1161 570 
Q 1363 391 1709 391 
Q 2188 391 2477 730 
Q 2766 1069 2766 1631 
L 2766 1759 
L 2194 1759 
z
M 3341 1997 
L 3341 0 
L 2766 0 
L 2766 531 
Q 2569 213 2275 61 
Q 1981 -91 1556 -91 
Q 1019 -91 701 211 
Q 384 513 384 1019 
Q 384 1609 779 1909 
Q 1175 2209 1959 2209 
L 2766 2209 
L 2766 2266 
Q 2766 2663 2505 2880 
Q 2244 3097 1772 3097 
Q 1472 3097 1187 3025 
Q 903 2953 641 2809 
L 641 3341 
Q 956 3463 1253 3523 
Q 1550 3584 1831 3584 
Q 2591 3584 2966 3190 
Q 3341 2797 3341 1997 
z
" id="DejaVuSans-61" transform="scale(0.015625)"/>
       <path d="M 1172 4494 
L 1172 3500 
L 2356 3500 
L 2356 3053 
L 1172 3053 
L 1172 1153 
Q 1172 725 1289 603 
Q 1406 481 1766 481 
L 2356 481 
L 2356 0 
L 1766 0 
Q 1100 0 847 248 
Q 594 497 594 1153 
L 594 3053 
L 172 3053 
L 172 3500 
L 594 3500 
L 594 4494 
L 1172 4494 
z
" id="DejaVuSans-74" transform="scale(0.015625)"/>
       <path d="M 3597 1894 
L 3597 1613 
L 953 1613 
Q 991 1019 1311 708 
Q 1631 397 2203 397 
Q 2534 397 2845 478 
Q 3156 559 3463 722 
L 3463 178 
Q 3153 47 2828 -22 
Q 2503 -91 2169 -91 
Q 1331 -91 842 396 
Q 353 884 353 1716 
Q 353 2575 817 3079 
Q 1281 3584 2069 3584 
Q 2775 3584 3186 3129 
Q 3597 2675 3597 1894 
z
M 3022 2063 
Q 3016 2534 2758 2815 
Q 2500 3097 2075 3097 
Q 1594 3097 1305 2825 
Q 1016 2553 972 2059 
L 3022 2063 
z
" id="DejaVuSans-65" transform="scale(0.015625)"/>
      </defs>
      <use xlink:href="#DejaVuSans-44"/>
      <use x="77.001953" xlink:href="#DejaVuSans-61"/>
      <use x="138.28125" xlink:href="#DejaVuSans-74"/>
      <use x="177.490234" xlink:href="#DejaVuSans-65"/>
     </g>
    </g>
   </g>
   <g id="matplotlib.axis_2">
    <g id="ytick_1">
     <g id="line2d_8">
      <defs>
       <path d="M 0 0 
L -3.5 0 
" id="me3ab24c6f6" style="stroke:#000000;stroke-width:0.8;"/>
      </defs>
      <g>
       <use style="stroke:#000000;stroke-width:0.8;" x="53.328125" xlink:href="#me3ab24c6f6" y="228.96"/>
      </g>
     </g>
     <g id="text_9">
      <!-- 1 -->
      <g transform="translate(39.965625 232.759219)scale(0.1 -0.1)">
       <use xlink:href="#DejaVuSans-31"/>
      </g>
     </g>
    </g>
    <g id="ytick_2">
     <g id="line2d_9">
      <g>
       <use style="stroke:#000000;stroke-width:0.8;" x="53.328125" xlink:href="#me3ab24c6f6" y="200.254819"/>
      </g>
     </g>
     <g id="text_10">
      <!-- 3 -->
      <g transform="translate(39.965625 204.054038)scale(0.1 -0.1)">
       <use xlink:href="#DejaVuSans-33"/>
      </g>
     </g>
    </g>
    <g id="ytick_3">
     <g id="line2d_10">
      <g>
       <use style="stroke:#000000;stroke-width:0.8;" x="53.328125" xlink:href="#me3ab24c6f6" y="171.549638"/>
      </g>
     </g>
     <g id="text_11">
      <!-- 10 -->
      <g transform="translate(33.603125 175.348857)scale(0.1 -0.1)">
       <use xlink:href="#DejaVuSans-31"/>
       <use x="63.623047" xlink:href="#DejaVuSans-30"/>
      </g>
     </g>
    </g>
    <g id="ytick_4">
     <g id="line2d_11">
      <g>
       <use style="stroke:#000000;stroke-width:0.8;" x="53.328125" xlink:href="#me3ab24c6f6" y="142.844458"/>
      </g>
     </g>
     <g id="text_12">
      <!-- 31 -->
      <g transform="translate(33.603125 146.643676)scale(0.1 -0.1)">
       <use xlink:href="#DejaVuSans-33"/>
       <use x="63.623047" xlink:href="#DejaVuSans-31"/>
      </g>
     </g>
    </g>
    <g id="ytick_5">
     <g id="line2d_12">
      <g>
       <use style="stroke:#000000;stroke-width:0.8;" x="53.328125" xlink:href="#me3ab24c6f6" y="114.139277"/>
      </g>
     </g>
     <g id="text_13">
      <!-- 100 -->
      <g transform="translate(27.240625 117.938496)scale(0.1 -0.1)">
       <use xlink:href="#DejaVuSans-31"/>
       <use x="63.623047" xlink:href="#DejaVuSans-30"/>
       <use x="127.246094" xlink:href="#DejaVuSans-30"/>
      </g>
     </g>
    </g>
    <g id="ytick_6">
     <g id="line2d_13">
      <g>
       <use style="stroke:#000000;stroke-width:0.8;" x="53.328125" xlink:href="#me3ab24c6f6" y="85.434096"/>
      </g>
     </g>
     <g id="text_14">
      <!-- 316 -->
      <g transform="translate(27.240625 89.233315)scale(0.1 -0.1)">
       <defs>
        <path d="M 2113 2584 
Q 1688 2584 1439 2293 
Q 1191 2003 1191 1497 
Q 1191 994 1439 701 
Q 1688 409 2113 409 
Q 2538 409 2786 701 
Q 3034 994 3034 1497 
Q 3034 2003 2786 2293 
Q 2538 2584 2113 2584 
z
M 3366 4563 
L 3366 3988 
Q 3128 4100 2886 4159 
Q 2644 4219 2406 4219 
Q 1781 4219 1451 3797 
Q 1122 3375 1075 2522 
Q 1259 2794 1537 2939 
Q 1816 3084 2150 3084 
Q 2853 3084 3261 2657 
Q 3669 2231 3669 1497 
Q 3669 778 3244 343 
Q 2819 -91 2113 -91 
Q 1303 -91 875 529 
Q 447 1150 447 2328 
Q 447 3434 972 4092 
Q 1497 4750 2381 4750 
Q 2619 4750 2861 4703 
Q 3103 4656 3366 4563 
z
" id="DejaVuSans-36" transform="scale(0.015625)"/>
       </defs>
       <use xlink:href="#DejaVuSans-33"/>
       <use x="63.623047" xlink:href="#DejaVuSans-31"/>
       <use x="127.246094" xlink:href="#DejaVuSans-36"/>
      </g>
     </g>
    </g>
    <g id="ytick_7">
     <g id="line2d_14">
      <g>
       <use style="stroke:#000000;stroke-width:0.8;" x="53.328125" xlink:href="#me3ab24c6f6" y="56.728915"/>
      </g>
     </g>
     <g id="text_15">
      <!-- 1000 -->
      <g transform="translate(20.878125 60.528134)scale(0.1 -0.1)">
       <use xlink:href="#DejaVuSans-31"/>
       <use x="63.623047" xlink:href="#DejaVuSans-30"/>
       <use x="127.246094" xlink:href="#DejaVuSans-30"/>
       <use x="190.869141" xlink:href="#DejaVuSans-30"/>
      </g>
     </g>
    </g>
    <g id="ytick_8">
     <g id="line2d_15">
      <g>
       <use style="stroke:#000000;stroke-width:0.8;" x="53.328125" xlink:href="#me3ab24c6f6" y="28.023735"/>
      </g>
     </g>
     <g id="text_16">
      <!-- 3162 -->
      <g transform="translate(20.878125 31.822953)scale(0.1 -0.1)">
       <use xlink:href="#DejaVuSans-33"/>
       <use x="63.623047" xlink:href="#DejaVuSans-31"/>
       <use x="127.246094" xlink:href="#DejaVuSans-36"/>
       <use x="190.869141" xlink:href="#DejaVuSans-32"/>
      </g>
     </g>
    </g>
    <g id="text_17">
     <!-- Count (7 day rolling average) -->
     <g transform="translate(14.798437 191.547969)rotate(-90)scale(0.1 -0.1)">
      <defs>
       <path d="M 4122 4306 
L 4122 3641 
Q 3803 3938 3442 4084 
Q 3081 4231 2675 4231 
Q 1875 4231 1450 3742 
Q 1025 3253 1025 2328 
Q 1025 1406 1450 917 
Q 1875 428 2675 428 
Q 3081 428 3442 575 
Q 3803 722 4122 1019 
L 4122 359 
Q 3791 134 3420 21 
Q 3050 -91 2638 -91 
Q 1578 -91 968 557 
Q 359 1206 359 2328 
Q 359 3453 968 4101 
Q 1578 4750 2638 4750 
Q 3056 4750 3426 4639 
Q 3797 4528 4122 4306 
z
" id="DejaVuSans-43" transform="scale(0.015625)"/>
       <path d="M 1959 3097 
Q 1497 3097 1228 2736 
Q 959 2375 959 1747 
Q 959 1119 1226 758 
Q 1494 397 1959 397 
Q 2419 397 2687 759 
Q 2956 1122 2956 1747 
Q 2956 2369 2687 2733 
Q 2419 3097 1959 3097 
z
M 1959 3584 
Q 2709 3584 3137 3096 
Q 3566 2609 3566 1747 
Q 3566 888 3137 398 
Q 2709 -91 1959 -91 
Q 1206 -91 779 398 
Q 353 888 353 1747 
Q 353 2609 779 3096 
Q 1206 3584 1959 3584 
z
" id="DejaVuSans-6f" transform="scale(0.015625)"/>
       <path d="M 544 1381 
L 544 3500 
L 1119 3500 
L 1119 1403 
Q 1119 906 1312 657 
Q 1506 409 1894 409 
Q 2359 409 2629 706 
Q 2900 1003 2900 1516 
L 2900 3500 
L 3475 3500 
L 3475 0 
L 2900 0 
L 2900 538 
Q 2691 219 2414 64 
Q 2138 -91 1772 -91 
Q 1169 -91 856 284 
Q 544 659 544 1381 
z
M 1991 3584 
L 1991 3584 
z
" id="DejaVuSans-75" transform="scale(0.015625)"/>
       <path d="M 3513 2113 
L 3513 0 
L 2938 0 
L 2938 2094 
Q 2938 2591 2744 2837 
Q 2550 3084 2163 3084 
Q 1697 3084 1428 2787 
Q 1159 2491 1159 1978 
L 1159 0 
L 581 0 
L 581 3500 
L 1159 3500 
L 1159 2956 
Q 1366 3272 1645 3428 
Q 1925 3584 2291 3584 
Q 2894 3584 3203 3211 
Q 3513 2838 3513 2113 
z
" id="DejaVuSans-6e" transform="scale(0.015625)"/>
       <path id="DejaVuSans-20" transform="scale(0.015625)"/>
       <path d="M 1984 4856 
Q 1566 4138 1362 3434 
Q 1159 2731 1159 2009 
Q 1159 1288 1364 580 
Q 1569 -128 1984 -844 
L 1484 -844 
Q 1016 -109 783 600 
Q 550 1309 550 2009 
Q 550 2706 781 3412 
Q 1013 4119 1484 4856 
L 1984 4856 
z
" id="DejaVuSans-28" transform="scale(0.015625)"/>
       <path d="M 2906 2969 
L 2906 4863 
L 3481 4863 
L 3481 0 
L 2906 0 
L 2906 525 
Q 2725 213 2448 61 
Q 2172 -91 1784 -91 
Q 1150 -91 751 415 
Q 353 922 353 1747 
Q 353 2572 751 3078 
Q 1150 3584 1784 3584 
Q 2172 3584 2448 3432 
Q 2725 3281 2906 2969 
z
M 947 1747 
Q 947 1113 1208 752 
Q 1469 391 1925 391 
Q 2381 391 2643 752 
Q 2906 1113 2906 1747 
Q 2906 2381 2643 2742 
Q 2381 3103 1925 3103 
Q 1469 3103 1208 2742 
Q 947 2381 947 1747 
z
" id="DejaVuSans-64" transform="scale(0.015625)"/>
       <path d="M 2059 -325 
Q 1816 -950 1584 -1140 
Q 1353 -1331 966 -1331 
L 506 -1331 
L 506 -850 
L 844 -850 
Q 1081 -850 1212 -737 
Q 1344 -625 1503 -206 
L 1606 56 
L 191 3500 
L 800 3500 
L 1894 763 
L 2988 3500 
L 3597 3500 
L 2059 -325 
z
" id="DejaVuSans-79" transform="scale(0.015625)"/>
       <path d="M 2631 2963 
Q 2534 3019 2420 3045 
Q 2306 3072 2169 3072 
Q 1681 3072 1420 2755 
Q 1159 2438 1159 1844 
L 1159 0 
L 581 0 
L 581 3500 
L 1159 3500 
L 1159 2956 
Q 1341 3275 1631 3429 
Q 1922 3584 2338 3584 
Q 2397 3584 2469 3576 
Q 2541 3569 2628 3553 
L 2631 2963 
z
" id="DejaVuSans-72" transform="scale(0.015625)"/>
       <path d="M 603 4863 
L 1178 4863 
L 1178 0 
L 603 0 
L 603 4863 
z
" id="DejaVuSans-6c" transform="scale(0.015625)"/>
       <path d="M 603 3500 
L 1178 3500 
L 1178 0 
L 603 0 
L 603 3500 
z
M 603 4863 
L 1178 4863 
L 1178 4134 
L 603 4134 
L 603 4863 
z
" id="DejaVuSans-69" transform="scale(0.015625)"/>
       <path d="M 2906 1791 
Q 2906 2416 2648 2759 
Q 2391 3103 1925 3103 
Q 1463 3103 1205 2759 
Q 947 2416 947 1791 
Q 947 1169 1205 825 
Q 1463 481 1925 481 
Q 2391 481 2648 825 
Q 2906 1169 2906 1791 
z
M 3481 434 
Q 3481 -459 3084 -895 
Q 2688 -1331 1869 -1331 
Q 1566 -1331 1297 -1286 
Q 1028 -1241 775 -1147 
L 775 -588 
Q 1028 -725 1275 -790 
Q 1522 -856 1778 -856 
Q 2344 -856 2625 -561 
Q 2906 -266 2906 331 
L 2906 616 
Q 2728 306 2450 153 
Q 2172 0 1784 0 
Q 1141 0 747 490 
Q 353 981 353 1791 
Q 353 2603 747 3093 
Q 1141 3584 1784 3584 
Q 2172 3584 2450 3431 
Q 2728 3278 2906 2969 
L 2906 3500 
L 3481 3500 
L 3481 434 
z
" id="DejaVuSans-67" transform="scale(0.015625)"/>
       <path d="M 191 3500 
L 800 3500 
L 1894 563 
L 2988 3500 
L 3597 3500 
L 2284 0 
L 1503 0 
L 191 3500 
z
" id="DejaVuSans-76" transform="scale(0.015625)"/>
       <path d="M 513 4856 
L 1013 4856 
Q 1481 4119 1714 3412 
Q 1947 2706 1947 2009 
Q 1947 1309 1714 600 
Q 1481 -109 1013 -844 
L 513 -844 
Q 928 -128 1133 580 
Q 1338 1288 1338 2009 
Q 1338 2731 1133 3434 
Q 928 4138 513 4856 
z
" id="DejaVuSans-29" transform="scale(0.015625)"/>
      </defs>
      <use xlink:href="#DejaVuSans-43"/>
      <use x="69.824219" xlink:href="#DejaVuSans-6f"/>
      <use x="131.005859" xlink:href="#DejaVuSans-75"/>
      <use x="194.384766" xlink:href="#DejaVuSans-6e"/>
      <use x="257.763672" xlink:href="#DejaVuSans-74"/>
      <use x="296.972656" xlink:href="#DejaVuSans-20"/>
      <use x="328.759766" xlink:href="#DejaVuSans-28"/>
      <use x="367.773438" xlink:href="#DejaVuSans-37"/>
      <use x="431.396484" xlink:href="#DejaVuSans-20"/>
      <use x="463.183594" xlink:href="#DejaVuSans-64"/>
      <use x="526.660156" xlink:href="#DejaVuSans-61"/>
      <use x="587.939453" xlink:href="#DejaVuSans-79"/>
      <use x="647.119141" xlink:href="#DejaVuSans-20"/>
      <use x="678.90625" xlink:href="#DejaVuSans-72"/>
      <use x="717.769531" xlink:href="#DejaVuSans-6f"/>
      <use x="778.951172" xlink:href="#DejaVuSans-6c"/>
      <use x="806.734375" xlink:href="#DejaVuSans-6c"/>
      <use x="834.517578" xlink:href="#DejaVuSans-69"/>
      <use x="862.300781" xlink:href="#DejaVuSans-6e"/>
      <use x="925.679688" xlink:href="#DejaVuSans-67"/>
      <use x="989.15625" xlink:href="#DejaVuSans-20"/>
      <use x="1020.943359" xlink:href="#DejaVuSans-61"/>
      <use x="1082.222656" xlink:href="#DejaVuSans-76"/>
      <use x="1141.402344" xlink:href="#DejaVuSans-65"/>
      <use x="1202.925781" xlink:href="#DejaVuSans-72"/>
      <use x="1244.039062" xlink:href="#DejaVuSans-61"/>
      <use x="1305.318359" xlink:href="#DejaVuSans-67"/>
      <use x="1368.794922" xlink:href="#DejaVuSans-65"/>
      <use x="1430.318359" xlink:href="#DejaVuSans-29"/>
     </g>
    </g>
   </g>
   <g id="line2d_16">
    <path clip-path="url(#p0e5881db9b)" d="M 148.621994 220.067022 
L 151.243558 222.693977 
L 153.865123 225.630661 
L 156.486687 225.630661 
L 159.108252 222.693977 
L 161.729816 220.067022 
L 174.837639 220.067022 
L 177.459203 225.630661 
L 185.323897 225.630661 
L 187.945461 217.690653 
L 195.810155 217.690653 
L 198.431719 213.525493 
L 203.674848 213.525493 
L 206.296413 220.067022 
L 211.539541 220.067022 
L 214.161106 198.238958 
L 216.78267 194.395518 
L 219.404235 189.554626 
L 222.025799 186.13379 
L 224.647364 185.502541 
L 227.268928 184.286055 
L 229.890493 184.286055 
L 232.512057 194.395518 
L 235.133622 186.13379 
L 237.755186 184.88688 
L 240.376751 185.502541 
L 242.998315 168.533927 
L 245.61988 156.894352 
L 248.241444 155.546293 
L 250.863009 154.807484 
L 253.484573 144.758759 
L 256.106138 142.548796 
L 258.727702 142.884976 
L 261.349267 136.807697 
L 263.970831 137.434412 
L 266.592396 136.543853 
L 269.21396 133.116288 
L 271.835525 128.980472 
L 274.457089 120.471537 
L 277.078654 115.157092 
L 279.700218 115.530907 
L 282.321783 116.529897 
L 284.943347 113.36773 
L 287.564911 111.601529 
L 290.186476 114.068141 
L 292.80804 119.702916 
L 295.429605 120.016543 
L 298.051169 113.264345 
L 300.672734 112.452344 
L 303.294298 114.788799 
L 305.915863 117.488977 
L 308.537427 116.102353 
L 311.158992 114.139277 
L 313.780556 115.682017 
L 316.402121 124.770633 
L 319.023685 124.445416 
L 321.64525 124.284384 
L 324.266814 122.083738 
L 326.888379 124.499325 
L 329.509943 120.288542 
L 332.131508 119.305393 
L 334.753072 119.174281 
L 337.374637 109.534159 
L 339.996201 104.077351 
L 342.617766 101.014102 
L 345.23933 86.323773 
L 347.860895 83.605937 
L 350.482459 81.441716 
L 353.104024 77.029005 
L 355.725588 74.082495 
L 360.968717 67.365728 
L 363.590281 67.431298 
L 366.211846 64.260448 
L 368.83341 63.065768 
L 371.454975 63.287191 
L 374.076539 63.240899 
L 376.698104 64.58536 
L 379.319668 66.271415 
L 381.941233 69.411962 
L 384.562797 74.478551 
L 387.184362 72.204672 
L 389.805926 71.102983 
L 392.427491 72.019835 
L 395.049055 66.355118 
L 397.67062 64.169074 
L 400.292184 61.733426 
L 402.913749 60.373684 
L 405.535313 57.254446 
L 408.156878 55.022017 
L 410.778442 52.097161 
L 413.400007 52.322989 
L 416.021571 52.744419 
L 418.643136 52.334932 
L 421.2647 50.015368 
L 423.886265 49.901345 
L 426.507829 49.980019 
L 429.129393 49.14372 
L 431.750958 46.970981 
L 436.994087 43.917101 
L 439.615651 42.686618 
L 442.237216 43.283881 
L 444.85878 42.520869 
L 447.480345 42.139015 
L 450.101909 42.583401 
L 452.723474 41.955182 
L 455.345038 42.318218 
L 460.588167 41.679027 
L 463.209732 42.356215 
L 465.831296 39.480535 
L 468.452861 38.123562 
L 471.074425 36.352185 
L 478.939119 32.229413 
L 481.560683 31.945704 
L 484.182248 34.318514 
L 489.425377 38.373072 
L 492.046941 39.695461 
L 494.668506 42.902525 
L 497.29007 45.387142 
L 499.911635 45.439177 
L 502.533199 44.377284 
L 505.154763 43.461074 
L 507.776328 42.125131 
L 510.397892 41.415532 
L 513.019457 40.021363 
L 515.641021 39.526945 
L 518.262586 38.289624 
L 520.88415 36.8142 
L 523.505715 35.776843 
L 526.127279 36.159446 
L 531.370408 36.552769 
L 536.613537 35.78453 
L 539.235102 36.873563 
L 541.856666 37.643503 
L 544.478231 37.524507 
L 547.099795 35.21598 
L 549.72136 35.283706 
L 552.342924 35.807605 
L 554.964489 36.857505 
L 557.586053 36.974965 
L 562.829182 36.27052 
L 565.450747 39.071948 
L 568.072311 39.110574 
L 570.693876 39.292213 
L 573.31544 40.503478 
L 575.937004 40.772481 
L 578.558569 40.641353 
L 581.180133 39.165103 
L 583.801698 36.899277 
L 586.423262 36.179746 
L 589.044827 35.043733 
L 594.287956 32.201429 
L 596.90952 31.640433 
L 602.152649 34.645413 
L 604.774214 35.88159 
L 607.395778 35.775306 
L 612.638907 35.286721 
L 615.260472 35.54428 
L 617.882036 35.283706 
L 620.503601 34.532557 
L 623.125165 33.612384 
L 625.74673 34.233119 
L 628.368294 34.985588 
L 630.989859 36.751782 
L 633.611423 37.519561 
L 636.232988 38.030846 
L 641.476117 41.124295 
L 644.097681 42.07165 
L 646.719246 43.234078 
L 649.34081 45.299155 
L 651.962374 46.84846 
L 654.583939 48.0689 
L 657.205503 49.874273 
L 659.827068 50.915774 
L 662.448632 52.860047 
L 665.070197 53.849286 
L 667.691761 54.462884 
L 670.313326 55.461598 
L 672.93489 55.929757 
L 675.556455 55.778439 
L 678.178019 56.259633 
L 680.799584 55.988468 
L 683.421148 56.608105 
L 686.042713 56.516115 
L 688.664277 57.228995 
L 691.285842 57.382093 
L 693.907406 57.051561 
L 696.528971 57.287207 
L 701.7721 58.86213 
L 704.393664 58.998302 
L 707.015229 58.91651 
L 712.258358 60.726584 
L 717.501487 60.957622 
L 720.123051 61.336079 
L 722.744615 63.548028 
L 727.987744 63.906443 
L 730.609309 64.049353 
L 733.230873 64.815837 
L 735.852438 65.09824 
L 738.474002 65.043492 
L 741.095567 64.51225 
L 743.717131 65.560907 
L 746.338696 66.751265 
L 748.96026 68.401967 
L 751.581825 69.506922 
L 754.203389 70.359777 
L 756.824954 70.794269 
L 759.446518 72.059328 
L 762.068083 74.089641 
L 764.689647 74.609548 
L 767.311212 75.350114 
L 769.932776 76.323494 
L 772.554341 76.590664 
L 775.175905 77.085351 
L 777.79747 77.987928 
L 780.419034 78.451772 
L 783.040599 79.150995 
L 785.662163 79.186037 
L 788.283728 78.299016 
L 790.905292 78.554131 
L 793.526857 78.639753 
L 796.148421 80.051265 
L 798.769985 79.655066 
L 806.634679 83.036784 
L 809.256243 82.721622 
L 811.877808 83.221626 
L 814.499372 83.118766 
L 817.120937 85.70128 
L 819.742501 87.666643 
L 822.364066 91.108865 
L 824.98563 95.964915 
L 827.607195 101.653445 
L 830.228759 106.948696 
L 832.850324 115.682017 
L 835.471888 120.563541 
L 838.093453 126.231091 
L 840.715017 129.175008 
L 843.336582 126.8164 
L 845.958146 127.537405 
L 848.579711 127.294746 
L 851.201275 127.41578 
L 853.82284 128.787441 
L 856.444404 132.588187 
L 859.065969 133.42316 
L 861.687533 137.074363 
L 864.309098 135.348206 
L 866.930662 134.852832 
L 869.552226 135.515542 
L 872.173791 137.253737 
L 874.795355 137.799737 
L 877.41692 137.799737 
L 880.038484 139.415011 
L 882.660049 142.884976 
L 885.281613 142.327167 
L 887.903178 144.157935 
L 890.524742 146.262713 
L 893.146307 146.91716 
L 895.767871 150.322398 
L 898.389436 151.409991 
L 901.011 153.050912 
L 903.632565 160.507992 
L 908.875694 167.302417 
L 911.497258 175.81213 
L 914.118823 182.017856 
L 916.740387 187.446356 
L 919.361952 190.29895 
L 921.983516 187.446356 
L 924.605081 189.554626 
L 927.226645 186.781437 
L 929.84821 179.938902 
L 932.469774 179.445163 
L 935.091339 174.980953 
L 937.712903 174.575529 
L 940.334467 171.908393 
L 942.956032 172.641769 
L 945.577596 166.128883 
L 948.199161 155.546293 
L 950.820725 153.913732 
L 953.44229 155.734468 
L 956.063854 155.924073 
L 958.685419 158.110837 
L 961.306983 158.110837 
L 963.928548 163.935557 
L 966.550112 187.446356 
L 969.171677 195.302273 
L 971.793241 196.243253 
L 974.414806 198.238958 
L 979.657935 198.238958 
L 982.279499 202.784782 
L 987.522628 205.411736 
L 990.144193 209.95756 
L 992.765757 208.34842 
L 995.387322 213.525493 
L 998.008886 217.690653 
L 1000.630451 211.677759 
L 1003.252015 213.525493 
L 1005.87358 213.525493 
L 1008.495144 211.677759 
L 1011.116709 213.525493 
L 1013.738273 209.95756 
L 1016.359837 204.063677 
L 1018.981402 201.568296 
L 1021.602966 200.408413 
L 1026.846095 202.784782 
L 1029.46766 201.568296 
L 1032.089224 201.568296 
L 1034.710789 205.411736 
L 1037.332353 211.677759 
L 1039.953918 211.677759 
L 1042.575482 209.95756 
L 1045.197047 209.95756 
L 1050.440176 213.525493 
L 1053.06174 213.525493 
L 1055.683305 211.677759 
L 1058.304869 213.525493 
L 1068.791127 213.525493 
L 1071.412692 211.677759 
L 1074.034256 215.521199 
L 1076.655821 211.677759 
L 1079.277385 211.677759 
L 1081.89895 209.95756 
L 1084.520514 209.95756 
L 1087.142078 211.677759 
L 1089.763643 217.690653 
L 1092.385207 215.521199 
L 1095.006772 211.677759 
L 1097.628336 213.525493 
L 1100.249901 211.677759 
L 1100.249901 211.677759 
" style="fill:none;stroke:#947383;stroke-linecap:square;stroke-width:2;"/>
   </g>
   <g id="line2d_17">
    <path clip-path="url(#p0e5881db9b)" d="M 104.055398 222.693977 
L 106.676962 228.96 
L 151.243558 228.96 
L 153.865123 225.630661 
L 169.59451 225.630661 
L 172.216074 228.96 
L 177.459203 228.96 
L 180.080768 225.630661 
L 182.702332 222.693977 
L 193.18859 222.693977 
L 195.810155 220.067022 
L 198.431719 222.693977 
L 201.053284 225.630661 
L 206.296413 225.630661 
L 208.917977 222.693977 
L 211.539541 222.693977 
L 214.161106 225.630661 
L 219.404235 225.630661 
L 222.025799 222.693977 
L 224.647364 222.693977 
L 227.268928 225.630661 
L 229.890493 222.693977 
L 237.755186 222.693977 
L 240.376751 225.630661 
L 245.61988 225.630661 
L 248.241444 222.693977 
L 250.863009 220.067022 
L 253.484573 220.067022 
L 256.106138 215.521199 
L 258.727702 215.521199 
L 261.349267 206.836867 
L 263.970831 190.29895 
L 266.592396 191.85777 
L 269.21396 192.675319 
L 271.835525 190.29895 
L 277.078654 190.29895 
L 279.700218 194.395518 
L 282.321783 211.677759 
L 284.943347 209.95756 
L 287.564911 209.95756 
L 290.186476 211.677759 
L 292.80804 215.521199 
L 298.051169 215.521199 
L 300.672734 211.677759 
L 303.294298 209.95756 
L 305.915863 205.411736 
L 308.537427 208.34842 
L 313.780556 208.34842 
L 316.402121 206.836867 
L 319.023685 193.520586 
L 321.64525 194.395518 
L 326.888379 194.395518 
L 332.131508 192.675319 
L 334.753072 193.520586 
L 337.374637 191.85777 
L 339.996201 191.85777 
L 342.617766 192.675319 
L 345.23933 186.781437 
L 347.860895 185.502541 
L 350.482459 182.565856 
L 353.104024 178.961012 
L 355.725588 168.851549 
L 358.347152 165.008109 
L 360.968717 162.907246 
L 363.590281 161.203842 
L 366.211846 156.697252 
L 368.83341 154.267398 
L 371.454975 150.322398 
L 374.076539 138.737179 
L 376.698104 133.346087 
L 379.319668 129.767895 
L 381.941233 128.53237 
L 384.562797 128.723428 
L 387.184362 127.054426 
L 389.805926 126.8164 
L 392.427491 122.779125 
L 397.67062 117.488977 
L 400.292184 115.568599 
L 402.913749 114.606672 
L 405.535313 113.820753 
L 408.156878 111.569378 
L 410.778442 108.123839 
L 413.400007 106.47276 
L 416.021571 105.750014 
L 421.2647 97.671617 
L 423.886265 96.538512 
L 426.507829 95.153464 
L 429.129393 90.618731 
L 431.750958 89.961841 
L 434.372522 88.467773 
L 436.994087 87.976528 
L 439.615651 86.723839 
L 442.237216 85.689897 
L 444.85878 85.746861 
L 447.480345 82.370518 
L 452.723474 79.22113 
L 457.966603 77.688927 
L 460.588167 77.39347 
L 463.209732 76.892693 
L 471.074425 70.725489 
L 476.317554 67.218823 
L 478.939119 66.607926 
L 481.560683 66.381332 
L 484.182248 62.859954 
L 489.425377 57.720772 
L 492.046941 55.878068 
L 494.668506 54.915806 
L 499.911635 53.634426 
L 502.533199 50.231263 
L 505.154763 49.212131 
L 507.776328 48.861546 
L 510.397892 48.395687 
L 513.019457 47.091687 
L 515.641021 46.669368 
L 518.262586 46.669368 
L 520.88415 44.396824 
L 523.505715 43.335866 
L 526.127279 42.472565 
L 528.748844 41.179598 
L 531.370408 40.654435 
L 533.991973 40.62081 
L 536.613537 40.312831 
L 539.235102 38.393551 
L 541.856666 37.909991 
L 544.478231 36.295619 
L 547.099795 35.724633 
L 549.72136 34.973678 
L 552.342924 34.580861 
L 554.964489 34.025919 
L 557.586053 32.654341 
L 560.207618 30.828219 
L 562.829182 30.102772 
L 565.450747 29.577006 
L 570.693876 28.074409 
L 573.31544 27.778212 
L 575.937004 26.094249 
L 578.558569 25.703273 
L 581.180133 24.984075 
L 583.801698 23.894494 
L 586.423262 23.395571 
L 591.666391 22.937647 
L 596.90952 20.995485 
L 599.531085 20.845543 
L 602.152649 20.052554 
L 604.774214 19.97332 
L 607.395778 20.078749 
L 610.017343 19.939091 
L 612.638907 19.620252 
L 615.260472 20.199434 
L 620.503601 20.848077 
L 623.125165 20.198611 
L 625.74673 20.145998 
L 630.989859 20.494983 
L 633.611423 19.767835 
L 636.232988 19.926063 
L 638.854552 20.312438 
L 641.476117 21.72488 
L 646.719246 21.708262 
L 649.34081 24.70743 
L 651.962374 25.497843 
L 654.583939 24.893505 
L 657.205503 24.117877 
L 659.827068 22.570208 
L 662.448632 21.691656 
L 665.070197 21.558331 
L 667.691761 18.751088 
L 670.313326 17.76 
L 672.93489 17.808555 
L 675.556455 18.055779 
L 678.178019 17.847467 
L 680.799584 18.109455 
L 683.421148 18.104914 
L 686.042713 18.853802 
L 688.664277 19.408075 
L 691.285842 19.34517 
L 693.907406 19.132158 
L 696.528971 19.272114 
L 699.150535 19.143988 
L 701.7721 19.213505 
L 704.393664 18.726251 
L 707.015229 18.505364 
L 709.636793 18.895162 
L 714.879922 19.171614 
L 717.501487 19.796971 
L 720.123051 19.733078 
L 722.744615 19.238833 
L 725.36618 20.071379 
L 727.987744 19.960275 
L 730.609309 20.444234 
L 733.230873 20.538326 
L 735.852438 20.288475 
L 738.474002 20.351324 
L 741.095567 20.927603 
L 743.717131 21.171136 
L 746.338696 21.87758 
L 748.96026 23.388088 
L 751.581825 24.097662 
L 754.203389 24.083232 
L 756.824954 24.226939 
L 759.446518 24.210501 
L 762.068083 24.379263 
L 764.689647 24.667033 
L 767.311212 24.297649 
L 769.932776 24.845864 
L 772.554341 25.556948 
L 775.175905 26.005795 
L 777.79747 28.264747 
L 780.419034 28.870259 
L 783.040599 28.845801 
L 785.662163 29.357404 
L 788.283728 30.283398 
L 790.905292 30.51757 
L 793.526857 30.568661 
L 796.148421 31.857538 
L 801.39155 35.43942 
L 804.013114 36.445169 
L 806.634679 37.268613 
L 809.256243 37.678318 
L 811.877808 38.267532 
L 814.499372 41.741433 
L 817.120937 41.965031 
L 819.742501 42.51684 
L 824.98563 43.221642 
L 827.607195 44.116044 
L 830.228759 44.51221 
L 832.850324 48.518384 
L 835.471888 51.028875 
L 838.093453 53.096003 
L 840.715017 54.355785 
L 843.336582 56.291111 
L 845.958146 56.793111 
L 848.579711 56.896887 
L 851.201275 60.966064 
L 856.444404 61.36609 
L 859.065969 63.111736 
L 861.687533 64.347323 
L 864.309098 65.429281 
L 866.930662 65.642255 
L 869.552226 67.327558 
L 872.173791 69.812045 
L 874.795355 71.77767 
L 880.038484 73.260338 
L 882.660049 72.971695 
L 885.281613 73.580353 
L 887.903178 74.602253 
L 890.524742 75.387726 
L 893.146307 75.591817 
L 895.767871 76.144371 
L 898.389436 76.932708 
L 901.011 78.130378 
L 903.632565 78.898396 
L 906.254129 81.117535 
L 908.875694 82.630865 
L 911.497258 86.137705 
L 914.118823 88.684972 
L 916.740387 91.43628 
L 919.361952 92.790708 
L 921.983516 93.418853 
L 927.226645 98.248666 
L 929.84821 99.722585 
L 932.469774 102.353979 
L 935.091339 103.911367 
L 937.712903 105.146766 
L 940.334467 106.134592 
L 942.956032 108.948851 
L 945.577596 115.568599 
L 948.199161 117.044815 
L 950.820725 118.359545 
L 953.44229 119.881648 
L 956.063854 120.517497 
L 958.685419 121.743184 
L 961.306983 123.912639 
L 963.928548 126.289008 
L 966.550112 128.342764 
L 969.171677 130.238978 
L 974.414806 134.689871 
L 977.03637 135.431734 
L 979.657935 137.707903 
L 982.279499 141.889735 
L 984.901064 142.548796 
L 987.522628 145.625005 
L 990.144193 147.725869 
L 992.765757 148.990348 
L 995.387322 151.569308 
L 998.008886 156.307666 
L 1000.630451 157.903923 
L 1003.252015 160.737791 
L 1005.87358 166.417129 
L 1008.495144 163.935557 
L 1011.116709 165.562199 
L 1013.738273 165.283615 
L 1016.359837 167.003815 
L 1018.981402 167.910569 
L 1021.602966 171.908393 
L 1024.224531 170.503345 
L 1026.846095 175.81213 
L 1029.46766 177.113277 
L 1032.089224 176.671974 
L 1034.710789 178.020032 
L 1037.332353 183.126172 
L 1039.953918 183.126172 
L 1042.575482 188.129495 
L 1045.197047 191.85777 
L 1047.818611 191.85777 
L 1050.440176 194.395518 
L 1053.06174 196.243253 
L 1055.683305 199.300097 
L 1058.304869 200.408413 
L 1060.926434 198.238958 
L 1068.791127 198.238958 
L 1071.412692 196.243253 
L 1074.034256 195.302273 
L 1076.655821 198.238958 
L 1081.89895 209.95756 
L 1087.142078 209.95756 
L 1089.763643 217.690653 
L 1092.385207 228.96 
L 1095.006772 225.630661 
L 1105.49303 225.630661 
L 1108.114594 211.677759 
L 1110.736159 211.677759 
L 1113.357723 213.525493 
L 1118.600852 209.95756 
L 1118.600852 209.95756 
" style="fill:none;stroke:#96c6ad;stroke-linecap:square;stroke-width:2;"/>
   </g>
   <g id="line2d_18">
    <path clip-path="url(#p0e5881db9b)" d="M 389.805926 215.521199 
L 392.427491 220.067022 
L 395.049055 222.693977 
L 397.67062 213.525493 
L 400.292184 208.34842 
L 402.913749 208.34842 
L 405.535313 206.836867 
L 408.156878 206.836867 
L 410.778442 202.784782 
L 413.400007 201.568296 
L 416.021571 199.300097 
L 418.643136 199.300097 
L 421.2647 192.675319 
L 423.886265 191.85777 
L 426.507829 192.675319 
L 429.129393 192.675319 
L 431.750958 188.129495 
L 434.372522 191.85777 
L 436.994087 191.85777 
L 439.615651 195.302273 
L 442.237216 197.221143 
L 444.85878 196.243253 
L 447.480345 198.238958 
L 450.101909 202.784782 
L 452.723474 201.568296 
L 455.345038 199.300097 
L 460.588167 197.221143 
L 463.209732 198.238958 
L 465.831296 197.221143 
L 468.452861 200.408413 
L 471.074425 199.300097 
L 473.69599 200.408413 
L 476.317554 204.063677 
L 478.939119 205.411736 
L 481.560683 204.063677 
L 484.182248 200.408413 
L 486.803812 200.408413 
L 489.425377 199.300097 
L 492.046941 199.300097 
L 494.668506 198.238958 
L 497.29007 198.238958 
L 499.911635 199.300097 
L 502.533199 194.395518 
L 505.154763 192.675319 
L 507.776328 191.85777 
L 510.397892 194.395518 
L 513.019457 192.675319 
L 515.641021 192.675319 
L 518.262586 191.85777 
L 520.88415 196.243253 
L 523.505715 192.675319 
L 526.127279 192.675319 
L 531.370408 170.503345 
L 533.991973 169.829439 
L 536.613537 167.604639 
L 539.235102 166.417129 
L 541.856666 166.128883 
L 544.478231 166.128883 
L 547.099795 166.417129 
L 549.72136 171.908393 
L 552.342924 167.604639 
L 554.964489 167.604639 
L 557.586053 164.199401 
L 560.207618 163.4161 
L 562.829182 160.969728 
L 565.450747 162.907246 
L 568.072311 159.831036 
L 570.693876 161.678771 
L 573.31544 160.969728 
L 575.937004 158.956104 
L 578.558569 157.903923 
L 581.180133 155.359529 
L 583.801698 154.990144 
L 586.423262 159.171976 
L 589.044827 159.831036 
L 591.666391 160.737791 
L 594.287956 163.160375 
L 596.90952 161.678771 
L 599.531085 164.199401 
L 602.152649 163.4161 
L 604.774214 162.907246 
L 607.395778 161.440176 
L 610.017343 157.293288 
L 612.638907 152.216955 
L 615.260472 152.216955 
L 617.882036 152.713975 
L 620.503601 151.569308 
L 623.125165 151.251686 
L 625.74673 151.094379 
L 628.368294 154.990144 
L 630.989859 154.626152 
L 633.611423 150.020176 
L 636.232988 149.870428 
L 638.854552 151.251686 
L 641.476117 151.251686 
L 644.097681 150.628328 
L 646.719246 148.420426 
L 649.34081 148.990348 
L 651.962374 150.020176 
L 654.583939 150.020176 
L 657.205503 148.56169 
L 659.827068 146.522434 
L 662.448632 144.276947 
L 665.070197 144.157935 
L 667.691761 145.499398 
L 670.313326 145.37442 
L 672.93489 144.276947 
L 675.556455 144.516689 
L 678.178019 145.003202 
L 680.799584 147.725869 
L 683.421148 147.453374 
L 686.042713 148.140277 
L 688.664277 148.703759 
L 691.285842 148.990348 
L 693.907406 148.703759 
L 699.150535 148.703759 
L 701.7721 150.020176 
L 704.393664 150.322398 
L 707.015229 154.267398 
L 712.258358 158.319483 
L 714.879922 159.609408 
L 717.501487 160.737791 
L 720.123051 162.162922 
L 722.744615 161.919671 
L 725.36618 161.919671 
L 727.987744 161.203842 
L 730.609309 159.389733 
L 733.230873 157.903923 
L 735.852438 157.903923 
L 738.474002 156.697252 
L 741.095567 157.698712 
L 743.717131 158.110837 
L 746.338696 154.267398 
L 748.96026 156.115132 
L 751.581825 159.609408 
L 754.203389 159.171976 
L 756.824954 158.110837 
L 759.446518 157.698712 
L 762.068083 156.697252 
L 764.689647 158.742086 
L 767.311212 156.697252 
L 769.932776 155.359529 
L 772.554341 155.924073 
L 775.175905 158.529889 
L 777.79747 161.919671 
L 780.419034 157.495176 
L 783.040599 160.737791 
L 785.662163 162.656661 
L 788.283728 163.160375 
L 790.905292 163.935557 
L 793.526857 163.935557 
L 796.148421 164.735615 
L 798.769985 174.980953 
L 801.39155 176.671974 
L 804.013114 181.481641 
L 806.634679 183.126172 
L 809.256243 182.565856 
L 811.877808 179.938902 
L 814.499372 176.671974 
L 817.120937 177.113277 
L 819.742501 173.783939 
L 822.364066 171.195973 
L 824.98563 171.549638 
L 827.607195 171.549638 
L 830.228759 173.783939 
L 832.850324 175.81213 
L 835.471888 173.783939 
L 838.093453 175.393078 
L 840.715017 175.393078 
L 843.336582 174.980953 
L 851.201275 174.980953 
L 853.82284 177.113277 
L 856.444404 177.562533 
L 859.065969 178.486083 
L 861.687533 180.956717 
L 864.309098 181.481641 
L 866.930662 182.565856 
L 869.552226 184.286055 
L 872.173791 186.781437 
L 874.795355 191.85777 
L 877.41692 192.675319 
L 882.660049 191.06618 
L 885.281613 189.554626 
L 887.903178 190.29895 
L 893.146307 190.29895 
L 895.767871 194.395518 
L 898.389436 195.302273 
L 901.011 194.395518 
L 903.632565 194.395518 
L 908.875694 191.06618 
L 911.497258 191.06618 
L 914.118823 188.129495 
L 916.740387 184.286055 
L 919.361952 186.781437 
L 921.983516 184.88688 
L 924.605081 184.88688 
L 927.226645 180.956717 
L 929.84821 177.562533 
L 932.469774 176.671974 
L 935.091339 178.486083 
L 937.712903 178.020032 
L 940.334467 179.938902 
L 942.956032 183.126172 
L 948.199161 197.221143 
L 950.820725 204.063677 
L 953.44229 205.411736 
L 956.063854 204.063677 
L 958.685419 205.411736 
L 961.306983 205.411736 
L 963.928548 204.063677 
L 966.550112 205.411736 
L 969.171677 204.063677 
L 971.793241 206.836867 
L 974.414806 211.677759 
L 977.03637 213.525493 
L 979.657935 213.525493 
L 982.279499 217.690653 
L 984.901064 215.521199 
L 987.522628 215.521199 
L 990.144193 208.34842 
L 995.387322 208.34842 
L 998.008886 211.677759 
L 1000.630451 211.677759 
L 1003.252015 213.525493 
L 1005.87358 217.690653 
L 1008.495144 225.630661 
L 1013.738273 225.630661 
L 1016.359837 222.693977 
L 1018.981402 220.067022 
L 1021.602966 220.067022 
L 1024.224531 217.690653 
L 1026.846095 220.067022 
L 1034.710789 220.067022 
L 1034.710789 220.067022 
" style="fill:none;stroke:#525886;stroke-linecap:square;stroke-width:2;"/>
   </g>
   <g id="line2d_19">
    <path clip-path="url(#p0e5881db9b)" d="M 161.729816 225.630661 
L 164.351381 228.96 
L 248.241444 228.96 
L 250.863009 225.630661 
L 253.484573 225.630661 
L 256.106138 222.693977 
L 258.727702 222.693977 
L 261.349267 217.690653 
L 271.835525 217.690653 
L 274.457089 220.067022 
L 277.078654 220.067022 
L 279.700218 225.630661 
L 284.943347 225.630661 
L 287.564911 228.96 
L 290.186476 225.630661 
L 292.80804 225.630661 
L 295.429605 222.693977 
L 298.051169 222.693977 
L 300.672734 217.690653 
L 303.294298 215.521199 
L 305.915863 213.525493 
L 308.537427 215.521199 
L 311.158992 215.521199 
L 313.780556 217.690653 
L 316.402121 217.690653 
L 319.023685 222.693977 
L 321.64525 222.693977 
L 324.266814 225.630661 
L 337.374637 225.630661 
L 339.996201 228.96 
L 342.617766 228.96 
L 345.23933 225.630661 
L 350.482459 225.630661 
L 353.104024 222.693977 
L 355.725588 217.690653 
L 358.347152 211.677759 
L 360.968717 211.677759 
L 363.590281 205.411736 
L 366.211846 201.568296 
L 368.83341 199.300097 
L 371.454975 196.243253 
L 374.076539 196.243253 
L 376.698104 198.238958 
L 379.319668 194.395518 
L 381.941233 196.243253 
L 384.562797 199.300097 
L 387.184362 186.781437 
L 389.805926 185.502541 
L 395.049055 169.829439 
L 397.67062 165.562199 
L 400.292184 159.609408 
L 402.913749 158.319483 
L 405.535313 159.171976 
L 408.156878 156.115132 
L 410.778442 153.913732 
L 413.400007 151.094379 
L 416.021571 150.020176 
L 418.643136 149.28027 
L 421.2647 147.050136 
L 423.886265 146.262713 
L 426.507829 147.183825 
L 429.129393 145.003202 
L 431.750958 145.250066 
L 434.372522 145.126328 
L 436.994087 142.660353 
L 439.615651 141.889735 
L 442.237216 138.928972 
L 444.85878 137.799737 
L 447.480345 136.896269 
L 450.101909 135.348206 
L 452.723474 130.927779 
L 455.345038 130.443628 
L 457.966603 129.109994 
L 460.588167 129.175008 
L 463.209732 128.723428 
L 465.831296 127.59844 
L 468.452861 125.434078 
L 471.074425 123.494465 
L 476.317554 119.087255 
L 478.939119 118.401768 
L 481.560683 117.084868 
L 484.182248 113.961817 
L 489.425377 111.698231 
L 492.046941 110.072949 
L 494.668506 108.862227 
L 497.29007 108.067935 
L 499.911635 107.082529 
L 502.533199 105.446566 
L 505.154763 101.935668 
L 507.776328 99.385245 
L 510.397892 98.305225 
L 513.019457 96.50337 
L 515.641021 94.905208 
L 518.262586 93.872905 
L 520.88415 92.988168 
L 523.505715 91.840764 
L 526.127279 91.608828 
L 528.748844 91.066474 
L 531.370408 90.274442 
L 533.991973 89.867475 
L 536.613537 88.595308 
L 539.235102 85.849725 
L 544.478231 81.022984 
L 547.099795 78.699863 
L 549.72136 76.590664 
L 552.342924 74.689942 
L 554.964489 73.763065 
L 557.586053 72.5449 
L 560.207618 72.151721 
L 562.829182 70.243139 
L 565.450747 68.5904 
L 568.072311 67.175461 
L 570.693876 66.78323 
L 573.31544 65.439381 
L 575.937004 62.435437 
L 578.558569 60.576511 
L 581.180133 59.300524 
L 583.801698 58.408441 
L 589.044827 55.390607 
L 594.287956 53.518291 
L 596.90952 51.408667 
L 599.531085 49.825618 
L 602.152649 47.501594 
L 604.774214 46.172317 
L 607.395778 45.081653 
L 610.017343 44.240925 
L 615.260472 41.208251 
L 617.882036 39.336501 
L 620.503601 38.55799 
L 625.74673 37.49814 
L 628.368294 36.960454 
L 630.989859 36.05819 
L 633.611423 35.577806 
L 636.232988 34.792745 
L 638.854552 33.166803 
L 641.476117 32.218749 
L 644.097681 31.731753 
L 646.719246 31.650852 
L 649.34081 30.419421 
L 651.962374 29.524316 
L 654.583939 29.078542 
L 657.205503 29.04097 
L 659.827068 27.975285 
L 665.070197 26.660441 
L 667.691761 26.372048 
L 670.313326 25.9508 
L 675.556455 25.537571 
L 678.178019 25.800959 
L 680.799584 26.180925 
L 683.421148 26.678577 
L 686.042713 26.79303 
L 691.285842 27.595967 
L 699.150535 29.140897 
L 701.7721 28.913411 
L 704.393664 29.022205 
L 707.015229 28.997597 
L 709.636793 28.78534 
L 714.879922 27.760373 
L 717.501487 27.580471 
L 720.123051 27.775981 
L 722.744615 27.628096 
L 727.987744 28.496694 
L 735.852438 31.077773 
L 738.474002 31.652155 
L 741.095567 33.002602 
L 743.717131 33.619432 
L 746.338696 34.755831 
L 748.96026 35.744583 
L 751.581825 37.028246 
L 756.824954 38.381603 
L 759.446518 39.648736 
L 762.068083 41.139539 
L 767.311212 43.354608 
L 775.175905 45.937854 
L 777.79747 47.885854 
L 780.419034 49.180533 
L 783.040599 50.808802 
L 785.662163 52.242527 
L 788.283728 53.477614 
L 790.905292 54.394677 
L 793.526857 54.952265 
L 796.148421 59.060801 
L 798.769985 59.924282 
L 804.013114 62.74181 
L 806.634679 63.608972 
L 809.256243 63.96827 
L 811.877808 64.006394 
L 814.499372 61.5426 
L 817.120937 63.816355 
L 819.742501 64.746961 
L 822.364066 64.737137 
L 824.98563 64.55609 
L 830.228759 64.959116 
L 838.093453 66.879373 
L 840.715017 68.152918 
L 843.336582 69.140948 
L 848.579711 70.725489 
L 853.82284 72.198047 
L 856.444404 72.178183 
L 859.065969 73.904529 
L 861.687533 76.229878 
L 864.309098 76.98081 
L 866.930662 77.442471 
L 869.552226 79.74456 
L 872.173791 81.557147 
L 874.795355 85.238813 
L 877.41692 86.218938 
L 880.038484 86.818912 
L 882.660049 87.951595 
L 885.281613 89.480288 
L 887.903178 92.119021 
L 890.524742 93.512119 
L 893.146307 93.872905 
L 895.767871 95.186752 
L 898.389436 96.345843 
L 901.011 95.691486 
L 903.632565 94.692034 
L 906.254129 93.825549 
L 908.875694 95.103615 
L 911.497258 97.017837 
L 914.118823 98.098467 
L 921.983516 101.805014 
L 924.605081 104.244447 
L 927.226645 104.948884 
L 932.469774 106.815578 
L 935.091339 108.179868 
L 937.712903 108.891068 
L 942.956032 110.531008 
L 945.577596 111.925338 
L 948.199161 112.720083 
L 950.820725 113.36773 
L 953.44229 113.36773 
L 958.685419 113.680483 
L 961.306983 117.044815 
L 963.928548 118.359545 
L 966.550112 119.087255 
L 969.171677 120.888254 
L 971.793241 123.546355 
L 979.657935 127.782448 
L 982.279499 130.649971 
L 984.901064 134.12775 
L 987.522628 138.452227 
L 990.144193 142.107492 
L 992.765757 143.340386 
L 995.387322 144.157935 
L 998.008886 147.183825 
L 1000.630451 148.990348 
L 1003.252015 151.251686 
L 1005.87358 153.221104 
L 1008.495144 154.44613 
L 1011.116709 157.903923 
L 1013.738273 160.054652 
L 1016.359837 162.408569 
L 1018.981402 166.708746 
L 1021.602966 170.164115 
L 1024.224531 171.549638 
L 1029.46766 176.671974 
L 1032.089224 176.671974 
L 1034.710789 176.238345 
L 1037.332353 176.671974 
L 1039.953918 178.020032 
L 1042.575482 175.81213 
L 1045.197047 177.562533 
L 1047.818611 175.81213 
L 1050.440176 176.671974 
L 1055.683305 183.126172 
L 1058.304869 183.126172 
L 1060.926434 186.781437 
L 1063.547998 188.831879 
L 1066.169563 191.85777 
L 1068.791127 192.675319 
L 1071.412692 197.221143 
L 1074.034256 200.408413 
L 1076.655821 202.784782 
L 1079.277385 209.95756 
L 1081.89895 186.13379 
L 1084.520514 187.446356 
L 1087.142078 186.781437 
L 1087.142078 186.781437 
" style="fill:none;stroke:#937252;stroke-linecap:square;stroke-width:2;"/>
   </g>
   <g id="line2d_20">
    <path clip-path="url(#p0e5881db9b)" d="M 245.61988 225.630661 
L 248.241444 228.96 
L 274.457089 228.96 
L 277.078654 225.630661 
L 279.700218 225.630661 
L 282.321783 222.693977 
L 290.186476 222.693977 
L 292.80804 220.067022 
L 295.429605 222.693977 
L 298.051169 222.693977 
L 300.672734 225.630661 
L 303.294298 222.693977 
L 308.537427 222.693977 
L 311.158992 220.067022 
L 313.780556 217.690653 
L 326.888379 217.690653 
L 329.509943 220.067022 
L 332.131508 222.693977 
L 334.753072 222.693977 
L 337.374637 220.067022 
L 339.996201 217.690653 
L 342.617766 217.690653 
L 345.23933 215.521199 
L 347.860895 217.690653 
L 350.482459 217.690653 
L 353.104024 213.525493 
L 358.347152 213.525493 
L 360.968717 211.677759 
L 363.590281 206.836867 
L 366.211846 204.063677 
L 368.83341 197.221143 
L 371.454975 191.85777 
L 374.076539 186.13379 
L 376.698104 179.445163 
L 379.319668 176.671974 
L 381.941233 155.734468 
L 384.562797 153.913732 
L 387.184362 151.251686 
L 389.805926 146.522434 
L 392.427491 143.111641 
L 395.049055 141.142223 
L 397.67062 140.828596 
L 400.292184 146.784889 
L 402.913749 145.751248 
L 405.535313 142.327167 
L 410.778442 128.980472 
L 413.400007 125.8294 
L 416.021571 124.445416 
L 418.643136 120.841607 
L 421.2647 120.243002 
L 423.886265 122.181899 
L 426.507829 127.537405 
L 429.129393 130.307008 
L 431.750958 131.138185 
L 434.372522 131.492857 
L 436.994087 135.853622 
L 439.615651 135.684009 
L 442.237216 133.578024 
L 444.85878 131.208717 
L 447.480345 133.733856 
L 450.101909 132.217705 
L 452.723474 128.851619 
L 455.345038 123.965407 
L 457.966603 122.779125 
L 463.209732 124.661755 
L 465.831296 124.553351 
L 468.452861 117.982716 
L 471.074425 113.926476 
L 473.69599 111.186767 
L 476.317554 109.892055 
L 478.939119 109.742307 
L 481.560683 106.108768 
L 484.182248 104.029814 
L 486.803812 99.742572 
L 489.425377 102.176992 
L 492.046941 105.673805 
L 494.668506 107.54301 
L 497.29007 107.488392 
L 499.911635 104.850529 
L 502.533199 104.55777 
L 505.154763 114.425866 
L 507.776328 114.210616 
L 510.397892 110.285663 
L 513.019457 108.83342 
L 515.641021 108.461918 
L 518.262586 114.389862 
L 520.88415 117.124985 
L 523.505715 115.493272 
L 526.127279 115.987011 
L 528.748844 120.152171 
L 531.370408 121.122809 
L 533.991973 118.48643 
L 536.613537 116.766231 
L 539.235102 111.569378 
L 541.856666 109.298384 
L 544.478231 106.551454 
L 547.099795 105.121945 
L 552.342924 104.973534 
L 554.964489 100.930082 
L 557.586053 101.438504 
L 565.450747 99.862828 
L 568.072311 97.856307 
L 570.693876 97.598122 
L 573.31544 100.24751 
L 575.937004 101.438504 
L 578.558569 101.588768 
L 583.801698 102.734302 
L 586.423262 101.783305 
L 589.044827 102.666763 
L 591.666391 101.161823 
L 594.287956 100.472964 
L 596.90952 98.154686 
L 599.531085 97.671617 
L 602.152649 96.679576 
L 604.774214 97.035768 
L 610.017343 94.757432 
L 612.638907 93.465443 
L 615.260472 95.947737 
L 617.882036 94.206941 
L 620.503601 93.699704 
L 623.125165 92.805842 
L 625.74673 90.646481 
L 628.368294 92.866469 
L 630.989859 91.695551 
L 633.611423 89.813711 
L 636.232988 88.582525 
L 638.854552 86.79511 
L 641.476117 85.261175 
L 644.097681 85.328379 
L 646.719246 78.863755 
L 649.34081 77.979573 
L 651.962374 78.214555 
L 654.583939 78.307478 
L 657.205503 78.231424 
L 659.827068 79.063602 
L 662.448632 79.28266 
L 665.070197 85.339598 
L 667.691761 84.740911 
L 670.313326 83.407848 
L 672.93489 83.491062 
L 675.556455 83.721343 
L 678.178019 82.211645 
L 680.799584 81.653749 
L 683.421148 80.957011 
L 686.042713 79.870394 
L 688.664277 79.300268 
L 691.285842 77.680673 
L 693.907406 75.425394 
L 696.528971 72.753997 
L 699.150535 71.38349 
L 701.7721 70.563666 
L 704.393664 68.186733 
L 707.015229 66.75659 
L 709.636793 64.949208 
L 712.258358 66.250533 
L 714.879922 64.929404 
L 717.501487 63.273294 
L 720.123051 62.974085 
L 722.744615 64.939304 
L 725.36618 66.193197 
L 727.987744 68.716818 
L 730.609309 66.454881 
L 733.230873 68.333798 
L 735.852438 69.632109 
L 738.474002 70.084407 
L 741.095567 68.504572 
L 746.338696 66.959776 
L 748.96026 67.772852 
L 751.581825 68.333798 
L 754.203389 69.406039 
L 756.824954 69.721914 
L 759.446518 70.446072 
L 762.068083 71.020706 
L 764.689647 71.338652 
L 767.311212 72.815033 
L 772.554341 74.984488 
L 775.175905 76.222093 
L 777.79747 78.222988 
L 780.419034 79.326704 
L 783.040599 80.806868 
L 785.662163 80.872445 
L 788.283728 82.300887 
L 790.905292 83.026555 
L 793.526857 83.376714 
L 796.148421 85.216472 
L 801.39155 86.974184 
L 804.013114 88.569748 
L 806.634679 87.728313 
L 811.877808 88.013974 
L 814.499372 86.068285 
L 817.120937 86.056734 
L 819.742501 85.553713 
L 822.364066 84.501064 
L 824.98563 85.049546 
L 827.607195 85.294754 
L 830.228759 85.884107 
L 832.850324 86.71198 
L 838.093453 88.026469 
L 840.715017 89.948339 
L 843.336582 89.975352 
L 845.958146 89.786872 
L 848.579711 88.968891 
L 851.201275 89.559904 
L 853.82284 88.455055 
L 856.444404 86.974184 
L 859.065969 86.253834 
L 861.687533 86.347129 
L 864.309098 85.474614 
L 866.930662 86.172487 
L 872.173791 87.034163 
L 874.795355 89.374527 
L 877.41692 89.586499 
L 880.038484 89.334982 
L 882.660049 89.854023 
L 885.281613 89.867475 
L 887.903178 88.569748 
L 890.524742 88.277685 
L 893.146307 86.079842 
L 898.389436 85.339598 
L 901.011 85.407015 
L 903.632565 85.116182 
L 906.254129 85.895579 
L 908.875694 85.149567 
L 911.497258 88.001486 
L 914.118823 88.904079 
L 916.740387 89.400925 
L 921.983516 89.533337 
L 924.605081 89.308654 
L 927.226645 91.43628 
L 929.84821 89.138194 
L 932.469774 90.508041 
L 935.091339 92.669967 
L 937.712903 91.479305 
L 940.334467 91.608828 
L 942.956032 93.418853 
L 945.577596 93.233362 
L 948.199161 94.626807 
L 950.820725 91.710034 
L 953.44229 90.070128 
L 956.063854 91.623261 
L 958.685419 91.652152 
L 961.306983 92.957687 
L 963.928548 95.421024 
L 966.550112 97.543143 
L 971.793241 108.095871 
L 974.414806 111.665955 
L 977.03637 93.003422 
L 979.657935 94.773808 
L 982.279499 93.841324 
L 984.901064 94.383714 
L 987.522628 92.445141 
L 990.144193 87.765388 
L 992.765757 88.063991 
L 995.387322 103.235256 
L 998.008886 103.652748 
L 1000.630451 107.082529 
L 1003.252015 109.269069 
L 1005.87358 114.103684 
L 1008.495144 133.192653 
L 1011.116709 135.938863 
L 1013.738273 137.799737 
L 1016.359837 140.621682 
L 1018.981402 141.781566 
L 1021.602966 141.781566 
L 1024.224531 146.522434 
L 1026.846095 153.392466 
L 1029.46766 157.903923 
L 1032.089224 158.110837 
L 1034.710789 161.203842 
L 1037.332353 167.604639 
L 1039.953918 171.195973 
L 1042.575482 171.908393 
L 1045.197047 171.549638 
L 1047.818611 175.393078 
L 1050.440176 178.961012 
L 1053.06174 178.961012 
L 1055.683305 179.938902 
L 1058.304869 181.481641 
L 1060.926434 182.017856 
L 1063.547998 186.13379 
L 1066.169563 182.017856 
L 1068.791127 179.445163 
L 1071.412692 179.938902 
L 1076.655821 176.238345 
L 1079.277385 177.562533 
L 1081.89895 179.445163 
L 1084.520514 183.126172 
L 1087.142078 183.699369 
L 1089.763643 182.017856 
L 1092.385207 184.286055 
L 1095.006772 191.06618 
L 1097.628336 190.29895 
L 1100.249901 191.06618 
L 1102.871465 190.29895 
L 1105.49303 192.675319 
L 1108.114594 199.300097 
L 1108.114594 199.300097 
" style="fill:none;stroke:#d18cad;stroke-linecap:square;stroke-width:2;"/>
   </g>
   <g id="line2d_21">
    <path clip-path="url(#p0e5881db9b)" d="M 321.64525 225.630661 
L 324.266814 228.96 
L 342.617766 228.96 
L 345.23933 225.630661 
L 347.860895 222.693977 
L 360.968717 222.693977 
L 363.590281 225.630661 
L 366.211846 228.96 
L 371.454975 228.96 
L 374.076539 222.693977 
L 376.698104 222.693977 
L 379.319668 220.067022 
L 387.184362 220.067022 
L 389.805926 217.690653 
L 392.427491 215.521199 
L 395.049055 209.95756 
L 400.292184 209.95756 
L 402.913749 204.063677 
L 405.535313 200.408413 
L 408.156878 195.302273 
L 410.778442 195.302273 
L 413.400007 194.395518 
L 416.021571 177.562533 
L 418.643136 166.417129 
L 421.2647 160.737791 
L 423.886265 159.389733 
L 426.507829 158.319483 
L 429.129393 154.807484 
L 431.750958 153.221104 
L 434.372522 154.44613 
L 436.994087 159.171976 
L 439.615651 158.956104 
L 442.237216 159.171976 
L 444.85878 161.678771 
L 447.480345 164.735615 
L 450.101909 167.003815 
L 452.723474 173.397373 
L 455.345038 176.238345 
L 457.966603 187.446356 
L 460.588167 191.85777 
L 463.209732 190.29895 
L 465.831296 191.06618 
L 468.452861 184.286055 
L 471.074425 181.481641 
L 473.69599 170.164115 
L 476.317554 169.829439 
L 478.939119 169.173269 
L 481.560683 166.417129 
L 484.182248 165.008109 
L 486.803812 162.656661 
L 489.425377 161.203842 
L 492.046941 164.466066 
L 494.668506 159.609408 
L 497.29007 160.280292 
L 499.911635 162.408569 
L 502.533199 161.440176 
L 505.154763 159.609408 
L 507.776328 160.969728 
L 510.397892 161.919671 
L 513.019457 164.466066 
L 515.641021 164.466066 
L 518.262586 164.199401 
L 520.88415 160.969728 
L 523.505715 167.910569 
L 526.127279 166.128883 
L 528.748844 166.417129 
L 531.370408 165.008109 
L 533.991973 164.735615 
L 536.613537 165.008109 
L 539.235102 171.195973 
L 541.856666 172.641769 
L 547.099795 171.908393 
L 549.72136 170.847254 
L 552.342924 168.533927 
L 554.964489 165.283615 
L 557.586053 161.678771 
L 560.207618 153.392466 
L 562.829182 152.216955 
L 565.450747 150.170829 
L 568.072311 150.938059 
L 570.693876 150.782713 
L 573.31544 151.729649 
L 575.937004 153.050912 
L 578.558569 156.501698 
L 581.180133 155.734468 
L 583.801698 157.293288 
L 586.423262 156.307666 
L 589.044827 156.697252 
L 591.666391 156.501698 
L 594.287956 153.221104 
L 596.90952 152.881874 
L 599.531085 152.053459 
L 602.152649 150.170829 
L 604.774214 147.863241 
L 607.395778 147.589249 
L 610.017343 148.001374 
L 612.638907 150.628328 
L 615.260472 150.938059 
L 617.882036 153.050912 
L 620.503601 153.913732 
L 623.125165 159.171976 
L 625.74673 159.171976 
L 628.368294 157.093022 
L 630.989859 158.319483 
L 633.611423 160.507992 
L 636.232988 159.609408 
L 638.854552 157.093022 
L 641.476117 157.903923 
L 644.097681 157.903923 
L 646.719246 159.609408 
L 649.34081 160.969728 
L 651.962374 159.171976 
L 654.583939 160.507992 
L 657.205503 166.417129 
L 659.827068 163.935557 
L 662.448632 166.128883 
L 665.070197 164.466066 
L 667.691761 160.737791 
L 670.313326 163.160375 
L 672.93489 163.935557 
L 675.556455 161.919671 
L 678.178019 163.674476 
L 680.799584 162.907246 
L 683.421148 165.562199 
L 686.042713 167.302417 
L 688.664277 167.302417 
L 691.285842 168.533927 
L 693.907406 170.847254 
L 696.528971 172.641769 
L 699.150535 170.847254 
L 701.7721 171.549638 
L 704.393664 171.549638 
L 707.015229 172.641769 
L 709.636793 171.195973 
L 712.258358 173.783939 
L 714.879922 173.783939 
L 717.501487 175.81213 
L 720.123051 175.393078 
L 722.744615 177.113277 
L 725.36618 175.393078 
L 727.987744 177.113277 
L 730.609309 174.980953 
L 735.852438 176.671974 
L 738.474002 173.016709 
L 741.095567 172.641769 
L 743.717131 174.575529 
L 746.338696 174.176593 
L 748.96026 174.575529 
L 751.581825 174.176593 
L 754.203389 174.575529 
L 756.824954 179.445163 
L 759.446518 179.938902 
L 762.068083 178.020032 
L 764.689647 178.961012 
L 767.311212 178.961012 
L 769.932776 172.272385 
L 772.554341 171.908393 
L 775.175905 171.908393 
L 777.79747 172.641769 
L 780.419034 172.641769 
L 783.040599 171.195973 
L 785.662163 169.173269 
L 788.283728 171.908393 
L 790.905292 172.641769 
L 796.148421 170.503345 
L 798.769985 172.641769 
L 801.39155 170.847254 
L 804.013114 170.847254 
L 806.634679 172.272385 
L 809.256243 170.847254 
L 811.877808 171.549638 
L 814.499372 170.847254 
L 817.120937 169.173269 
L 822.364066 178.486083 
L 824.98563 179.938902 
L 827.607195 180.442616 
L 830.228759 179.445163 
L 832.850324 180.442616 
L 835.471888 180.442616 
L 838.093453 178.961012 
L 840.715017 175.393078 
L 843.336582 175.393078 
L 845.958146 176.238345 
L 848.579711 174.980953 
L 851.201275 177.562533 
L 853.82284 182.017856 
L 856.444404 182.565856 
L 859.065969 187.446356 
L 861.687533 191.06618 
L 864.309098 187.446356 
L 866.930662 190.29895 
L 869.552226 191.06618 
L 872.173791 186.781437 
L 874.795355 188.129495 
L 877.41692 186.781437 
L 880.038484 186.781437 
L 882.660049 191.85777 
L 885.281613 192.675319 
L 887.903178 195.302273 
L 890.524742 199.300097 
L 893.146307 200.408413 
L 895.767871 206.836867 
L 901.011 206.836867 
L 903.632565 208.34842 
L 906.254129 205.411736 
L 908.875694 211.677759 
L 911.497258 215.521199 
L 914.118823 217.690653 
L 916.740387 222.693977 
L 919.361952 222.693977 
L 921.983516 220.067022 
L 924.605081 220.067022 
L 927.226645 205.411736 
L 929.84821 202.784782 
L 932.469774 201.568296 
L 937.712903 201.568296 
L 940.334467 202.784782 
L 942.956032 199.300097 
L 945.577596 209.95756 
L 948.199161 211.677759 
L 950.820725 209.95756 
L 956.063854 209.95756 
L 958.685419 208.34842 
L 961.306983 217.690653 
L 963.928548 206.836867 
L 966.550112 208.34842 
L 969.171677 211.677759 
L 974.414806 211.677759 
L 977.03637 213.525493 
L 979.657935 211.677759 
L 982.279499 217.690653 
L 995.387322 217.690653 
L 998.008886 220.067022 
L 1000.630451 222.693977 
L 1016.359837 222.693977 
L 1018.981402 225.630661 
L 1034.710789 225.630661 
L 1037.332353 222.693977 
L 1037.332353 222.693977 
" style="fill:none;stroke:#a4a86f;stroke-linecap:square;stroke-width:2;"/>
   </g>
   <g id="line2d_22">
    <path clip-path="url(#p0e5881db9b)" d="M 334.753072 225.630661 
L 337.374637 228.96 
L 339.996201 228.96 
L 342.617766 222.693977 
L 345.23933 222.693977 
L 347.860895 215.521199 
L 358.347152 215.521199 
L 360.968717 217.690653 
L 363.590281 217.690653 
L 366.211846 225.630661 
L 368.83341 217.690653 
L 371.454975 213.525493 
L 376.698104 213.525493 
L 379.319668 211.677759 
L 381.941233 211.677759 
L 384.562797 209.95756 
L 387.184362 209.95756 
L 389.805926 211.677759 
L 392.427491 208.34842 
L 395.049055 208.34842 
L 397.67062 209.95756 
L 400.292184 206.836867 
L 402.913749 197.221143 
L 405.535313 196.243253 
L 408.156878 197.221143 
L 410.778442 199.300097 
L 413.400007 198.238958 
L 416.021571 193.520586 
L 421.2647 195.302273 
L 423.886265 195.302273 
L 426.507829 193.520586 
L 429.129393 191.06618 
L 431.750958 191.06618 
L 434.372522 193.520586 
L 436.994087 191.06618 
L 439.615651 194.395518 
L 442.237216 193.520586 
L 444.85878 194.395518 
L 447.480345 192.675319 
L 450.101909 192.675319 
L 452.723474 191.85777 
L 455.345038 191.85777 
L 457.966603 190.29895 
L 463.209732 188.831879 
L 465.831296 191.85777 
L 468.452861 191.85777 
L 471.074425 192.675319 
L 473.69599 194.395518 
L 476.317554 198.238958 
L 478.939119 201.568296 
L 481.560683 202.784782 
L 484.182248 202.784782 
L 486.803812 201.568296 
L 489.425377 197.221143 
L 492.046941 199.300097 
L 494.668506 199.300097 
L 497.29007 202.784782 
L 499.911635 202.784782 
L 502.533199 200.408413 
L 505.154763 197.221143 
L 507.776328 205.411736 
L 510.397892 198.238958 
L 513.019457 195.302273 
L 515.641021 192.675319 
L 520.88415 192.675319 
L 523.505715 194.395518 
L 526.127279 192.675319 
L 528.748844 195.302273 
L 531.370408 197.221143 
L 533.991973 199.300097 
L 536.613537 194.395518 
L 539.235102 196.243253 
L 541.856666 195.302273 
L 544.478231 195.302273 
L 549.72136 197.221143 
L 552.342924 193.520586 
L 554.964489 197.221143 
L 557.586053 196.243253 
L 560.207618 197.221143 
L 562.829182 191.06618 
L 565.450747 188.831879 
L 570.693876 190.29895 
L 573.31544 189.554626 
L 575.937004 186.781437 
L 578.558569 184.88688 
L 581.180133 187.446356 
L 583.801698 188.831879 
L 589.044827 179.938902 
L 591.666391 178.961012 
L 594.287956 179.445163 
L 596.90952 181.481641 
L 599.531085 183.126172 
L 602.152649 180.956717 
L 604.774214 183.699369 
L 607.395778 189.554626 
L 610.017343 191.06618 
L 612.638907 188.129495 
L 615.260472 188.129495 
L 617.882036 186.13379 
L 620.503601 188.831879 
L 623.125165 190.29895 
L 625.74673 184.88688 
L 628.368294 184.88688 
L 630.989859 182.017856 
L 633.611423 180.956717 
L 636.232988 179.445163 
L 638.854552 178.486083 
L 641.476117 175.81213 
L 644.097681 177.113277 
L 646.719246 177.562533 
L 649.34081 180.442616 
L 651.962374 180.442616 
L 654.583939 183.126172 
L 657.205503 184.286055 
L 659.827068 186.781437 
L 662.448632 187.446356 
L 665.070197 183.699369 
L 667.691761 184.286055 
L 670.313326 180.442616 
L 672.93489 179.938902 
L 675.556455 178.961012 
L 678.178019 175.81213 
L 680.799584 173.397373 
L 683.421148 175.393078 
L 686.042713 177.113277 
L 688.664277 174.575529 
L 693.907406 173.783939 
L 696.528971 175.81213 
L 699.150535 177.562533 
L 701.7721 175.393078 
L 704.393664 172.641769 
L 707.015229 176.671974 
L 709.636793 178.486083 
L 712.258358 179.445163 
L 714.879922 178.961012 
L 717.501487 182.017856 
L 720.123051 184.286055 
L 722.744615 186.781437 
L 725.36618 186.13379 
L 727.987744 183.699369 
L 730.609309 184.286055 
L 733.230873 186.13379 
L 735.852438 187.446356 
L 738.474002 190.29895 
L 741.095567 192.675319 
L 743.717131 195.302273 
L 746.338696 200.408413 
L 748.96026 196.243253 
L 751.581825 194.395518 
L 754.203389 195.302273 
L 756.824954 195.302273 
L 759.446518 198.238958 
L 762.068083 200.408413 
L 764.689647 199.300097 
L 767.311212 206.836867 
L 769.932776 213.525493 
L 772.554341 211.677759 
L 775.175905 208.34842 
L 777.79747 208.34842 
L 780.419034 213.525493 
L 783.040599 209.95756 
L 785.662163 211.677759 
L 788.283728 209.95756 
L 790.905292 209.95756 
L 793.526857 213.525493 
L 796.148421 211.677759 
L 798.769985 202.784782 
L 801.39155 202.784782 
L 804.013114 200.408413 
L 806.634679 199.300097 
L 809.256243 195.302273 
L 811.877808 194.395518 
L 814.499372 192.675319 
L 817.120937 195.302273 
L 822.364066 197.221143 
L 824.98563 197.221143 
L 827.607195 201.568296 
L 832.850324 204.063677 
L 835.471888 205.411736 
L 838.093453 205.411736 
L 840.715017 206.836867 
L 843.336582 209.95756 
L 845.958146 209.95756 
L 848.579711 206.836867 
L 851.201275 202.784782 
L 853.82284 204.063677 
L 856.444404 204.063677 
L 859.065969 201.568296 
L 861.687533 200.408413 
L 864.309098 197.221143 
L 866.930662 198.238958 
L 869.552226 201.568296 
L 872.173791 200.408413 
L 874.795355 202.784782 
L 877.41692 200.408413 
L 880.038484 198.238958 
L 882.660049 196.243253 
L 885.281613 191.85777 
L 887.903178 192.675319 
L 890.524742 191.85777 
L 893.146307 189.554626 
L 895.767871 192.675319 
L 898.389436 195.302273 
L 901.011 195.302273 
L 903.632565 200.408413 
L 906.254129 193.520586 
L 908.875694 194.395518 
L 911.497258 197.221143 
L 914.118823 197.221143 
L 916.740387 198.238958 
L 919.361952 205.411736 
L 921.983516 206.836867 
L 924.605081 220.067022 
L 927.226645 225.630661 
L 935.091339 225.630661 
L 937.712903 222.693977 
L 958.685419 222.693977 
L 961.306983 225.630661 
L 963.928548 225.630661 
L 966.550112 222.693977 
L 971.793241 222.693977 
L 974.414806 225.630661 
L 987.522628 225.630661 
L 990.144193 222.693977 
L 995.387322 222.693977 
L 998.008886 220.067022 
L 998.008886 220.067022 
" style="fill:none;stroke:#d3d3d3;stroke-linecap:square;stroke-width:2;"/>
   </g>
   <g id="patch_3">
    <path d="M 53.328125 228.96 
L 53.328125 7.2 
" style="fill:none;stroke:#000000;stroke-linecap:square;stroke-linejoin:miter;stroke-width:0.8;"/>
   </g>
   <g id="patch_4">
    <path d="M 53.328125 228.96 
L 1169.328125 228.96 
" style="fill:none;stroke:#000000;stroke-linecap:square;stroke-linejoin:miter;stroke-width:0.8;"/>
   </g>
   <g id="legend_1">
    <g id="line2d_23">
     <path d="M 1075.516875 17.67875 
L 1091.516875 17.67875 
" style="fill:none;stroke:#947383;stroke-linecap:square;stroke-width:2;"/>
    </g>
    <g id="line2d_24"/>
    <g id="text_18">
     <!-- United Kingdom -->
     <g transform="translate(1097.916875 20.47875)scale(0.08 -0.08)">
      <defs>
       <path d="M 556 4666 
L 1191 4666 
L 1191 1831 
Q 1191 1081 1462 751 
Q 1734 422 2344 422 
Q 2950 422 3222 751 
Q 3494 1081 3494 1831 
L 3494 4666 
L 4128 4666 
L 4128 1753 
Q 4128 841 3676 375 
Q 3225 -91 2344 -91 
Q 1459 -91 1007 375 
Q 556 841 556 1753 
L 556 4666 
z
" id="DejaVuSans-55" transform="scale(0.015625)"/>
       <path d="M 628 4666 
L 1259 4666 
L 1259 2694 
L 3353 4666 
L 4166 4666 
L 1850 2491 
L 4331 0 
L 3500 0 
L 1259 2247 
L 1259 0 
L 628 0 
L 628 4666 
z
" id="DejaVuSans-4b" transform="scale(0.015625)"/>
       <path d="M 3328 2828 
Q 3544 3216 3844 3400 
Q 4144 3584 4550 3584 
Q 5097 3584 5394 3201 
Q 5691 2819 5691 2113 
L 5691 0 
L 5113 0 
L 5113 2094 
Q 5113 2597 4934 2840 
Q 4756 3084 4391 3084 
Q 3944 3084 3684 2787 
Q 3425 2491 3425 1978 
L 3425 0 
L 2847 0 
L 2847 2094 
Q 2847 2600 2669 2842 
Q 2491 3084 2119 3084 
Q 1678 3084 1418 2786 
Q 1159 2488 1159 1978 
L 1159 0 
L 581 0 
L 581 3500 
L 1159 3500 
L 1159 2956 
Q 1356 3278 1631 3431 
Q 1906 3584 2284 3584 
Q 2666 3584 2933 3390 
Q 3200 3197 3328 2828 
z
" id="DejaVuSans-6d" transform="scale(0.015625)"/>
      </defs>
      <use xlink:href="#DejaVuSans-55"/>
      <use x="73.193359" xlink:href="#DejaVuSans-6e"/>
      <use x="136.572266" xlink:href="#DejaVuSans-69"/>
      <use x="164.355469" xlink:href="#DejaVuSans-74"/>
      <use x="203.564453" xlink:href="#DejaVuSans-65"/>
      <use x="265.087891" xlink:href="#DejaVuSans-64"/>
      <use x="328.564453" xlink:href="#DejaVuSans-20"/>
      <use x="360.351562" xlink:href="#DejaVuSans-4b"/>
      <use x="425.927734" xlink:href="#DejaVuSans-69"/>
      <use x="453.710938" xlink:href="#DejaVuSans-6e"/>
      <use x="517.089844" xlink:href="#DejaVuSans-67"/>
      <use x="580.566406" xlink:href="#DejaVuSans-64"/>
      <use x="644.042969" xlink:href="#DejaVuSans-6f"/>
      <use x="705.224609" xlink:href="#DejaVuSans-6d"/>
     </g>
    </g>
    <g id="line2d_25">
     <path d="M 1075.516875 29.42125 
L 1091.516875 29.42125 
" style="fill:none;stroke:#96c6ad;stroke-linecap:square;stroke-width:2;"/>
    </g>
    <g id="line2d_26"/>
    <g id="text_19">
     <!-- Europe -->
     <g transform="translate(1097.916875 32.22125)scale(0.08 -0.08)">
      <defs>
       <path d="M 628 4666 
L 3578 4666 
L 3578 4134 
L 1259 4134 
L 1259 2753 
L 3481 2753 
L 3481 2222 
L 1259 2222 
L 1259 531 
L 3634 531 
L 3634 0 
L 628 0 
L 628 4666 
z
" id="DejaVuSans-45" transform="scale(0.015625)"/>
       <path d="M 1159 525 
L 1159 -1331 
L 581 -1331 
L 581 3500 
L 1159 3500 
L 1159 2969 
Q 1341 3281 1617 3432 
Q 1894 3584 2278 3584 
Q 2916 3584 3314 3078 
Q 3713 2572 3713 1747 
Q 3713 922 3314 415 
Q 2916 -91 2278 -91 
Q 1894 -91 1617 61 
Q 1341 213 1159 525 
z
M 3116 1747 
Q 3116 2381 2855 2742 
Q 2594 3103 2138 3103 
Q 1681 3103 1420 2742 
Q 1159 2381 1159 1747 
Q 1159 1113 1420 752 
Q 1681 391 2138 391 
Q 2594 391 2855 752 
Q 3116 1113 3116 1747 
z
" id="DejaVuSans-70" transform="scale(0.015625)"/>
      </defs>
      <use xlink:href="#DejaVuSans-45"/>
      <use x="63.183594" xlink:href="#DejaVuSans-75"/>
      <use x="126.5625" xlink:href="#DejaVuSans-72"/>
      <use x="165.425781" xlink:href="#DejaVuSans-6f"/>
      <use x="226.607422" xlink:href="#DejaVuSans-70"/>
      <use x="290.083984" xlink:href="#DejaVuSans-65"/>
     </g>
    </g>
    <g id="line2d_27">
     <path d="M 1075.516875 41.16375 
L 1091.516875 41.16375 
" style="fill:none;stroke:#525886;stroke-linecap:square;stroke-width:2;"/>
    </g>
    <g id="line2d_28"/>
    <g id="text_20">
     <!-- South America -->
     <g transform="translate(1097.916875 43.96375)scale(0.08 -0.08)">
      <defs>
       <path d="M 3425 4513 
L 3425 3897 
Q 3066 4069 2747 4153 
Q 2428 4238 2131 4238 
Q 1616 4238 1336 4038 
Q 1056 3838 1056 3469 
Q 1056 3159 1242 3001 
Q 1428 2844 1947 2747 
L 2328 2669 
Q 3034 2534 3370 2195 
Q 3706 1856 3706 1288 
Q 3706 609 3251 259 
Q 2797 -91 1919 -91 
Q 1588 -91 1214 -16 
Q 841 59 441 206 
L 441 856 
Q 825 641 1194 531 
Q 1563 422 1919 422 
Q 2459 422 2753 634 
Q 3047 847 3047 1241 
Q 3047 1584 2836 1778 
Q 2625 1972 2144 2069 
L 1759 2144 
Q 1053 2284 737 2584 
Q 422 2884 422 3419 
Q 422 4038 858 4394 
Q 1294 4750 2059 4750 
Q 2388 4750 2728 4690 
Q 3069 4631 3425 4513 
z
" id="DejaVuSans-53" transform="scale(0.015625)"/>
       <path d="M 3513 2113 
L 3513 0 
L 2938 0 
L 2938 2094 
Q 2938 2591 2744 2837 
Q 2550 3084 2163 3084 
Q 1697 3084 1428 2787 
Q 1159 2491 1159 1978 
L 1159 0 
L 581 0 
L 581 4863 
L 1159 4863 
L 1159 2956 
Q 1366 3272 1645 3428 
Q 1925 3584 2291 3584 
Q 2894 3584 3203 3211 
Q 3513 2838 3513 2113 
z
" id="DejaVuSans-68" transform="scale(0.015625)"/>
       <path d="M 2188 4044 
L 1331 1722 
L 3047 1722 
L 2188 4044 
z
M 1831 4666 
L 2547 4666 
L 4325 0 
L 3669 0 
L 3244 1197 
L 1141 1197 
L 716 0 
L 50 0 
L 1831 4666 
z
" id="DejaVuSans-41" transform="scale(0.015625)"/>
       <path d="M 3122 3366 
L 3122 2828 
Q 2878 2963 2633 3030 
Q 2388 3097 2138 3097 
Q 1578 3097 1268 2742 
Q 959 2388 959 1747 
Q 959 1106 1268 751 
Q 1578 397 2138 397 
Q 2388 397 2633 464 
Q 2878 531 3122 666 
L 3122 134 
Q 2881 22 2623 -34 
Q 2366 -91 2075 -91 
Q 1284 -91 818 406 
Q 353 903 353 1747 
Q 353 2603 823 3093 
Q 1294 3584 2113 3584 
Q 2378 3584 2631 3529 
Q 2884 3475 3122 3366 
z
" id="DejaVuSans-63" transform="scale(0.015625)"/>
      </defs>
      <use xlink:href="#DejaVuSans-53"/>
      <use x="63.476562" xlink:href="#DejaVuSans-6f"/>
      <use x="124.658203" xlink:href="#DejaVuSans-75"/>
      <use x="188.037109" xlink:href="#DejaVuSans-74"/>
      <use x="227.246094" xlink:href="#DejaVuSans-68"/>
      <use x="290.625" xlink:href="#DejaVuSans-20"/>
      <use x="322.412109" xlink:href="#DejaVuSans-41"/>
      <use x="390.820312" xlink:href="#DejaVuSans-6d"/>
      <use x="488.232422" xlink:href="#DejaVuSans-65"/>
      <use x="549.755859" xlink:href="#DejaVuSans-72"/>
      <use x="590.869141" xlink:href="#DejaVuSans-69"/>
      <use x="618.652344" xlink:href="#DejaVuSans-63"/>
      <use x="673.632812" xlink:href="#DejaVuSans-61"/>
     </g>
    </g>
    <g id="line2d_29">
     <path d="M 1075.516875 52.90625 
L 1091.516875 52.90625 
" style="fill:none;stroke:#937252;stroke-linecap:square;stroke-width:2;"/>
    </g>
    <g id="line2d_30"/>
    <g id="text_21">
     <!-- North America -->
     <g transform="translate(1097.916875 55.70625)scale(0.08 -0.08)">
      <defs>
       <path d="M 628 4666 
L 1478 4666 
L 3547 763 
L 3547 4666 
L 4159 4666 
L 4159 0 
L 3309 0 
L 1241 3903 
L 1241 0 
L 628 0 
L 628 4666 
z
" id="DejaVuSans-4e" transform="scale(0.015625)"/>
      </defs>
      <use xlink:href="#DejaVuSans-4e"/>
      <use x="74.804688" xlink:href="#DejaVuSans-6f"/>
      <use x="135.986328" xlink:href="#DejaVuSans-72"/>
      <use x="177.099609" xlink:href="#DejaVuSans-74"/>
      <use x="216.308594" xlink:href="#DejaVuSans-68"/>
      <use x="279.6875" xlink:href="#DejaVuSans-20"/>
      <use x="311.474609" xlink:href="#DejaVuSans-41"/>
      <use x="379.882812" xlink:href="#DejaVuSans-6d"/>
      <use x="477.294922" xlink:href="#DejaVuSans-65"/>
      <use x="538.818359" xlink:href="#DejaVuSans-72"/>
      <use x="579.931641" xlink:href="#DejaVuSans-69"/>
      <use x="607.714844" xlink:href="#DejaVuSans-63"/>
      <use x="662.695312" xlink:href="#DejaVuSans-61"/>
     </g>
    </g>
    <g id="line2d_31">
     <path d="M 1075.516875 64.64875 
L 1091.516875 64.64875 
" style="fill:none;stroke:#d18cad;stroke-linecap:square;stroke-width:2;"/>
    </g>
    <g id="line2d_32"/>
    <g id="text_22">
     <!-- Asia -->
     <g transform="translate(1097.916875 67.44875)scale(0.08 -0.08)">
      <defs>
       <path d="M 2834 3397 
L 2834 2853 
Q 2591 2978 2328 3040 
Q 2066 3103 1784 3103 
Q 1356 3103 1142 2972 
Q 928 2841 928 2578 
Q 928 2378 1081 2264 
Q 1234 2150 1697 2047 
L 1894 2003 
Q 2506 1872 2764 1633 
Q 3022 1394 3022 966 
Q 3022 478 2636 193 
Q 2250 -91 1575 -91 
Q 1294 -91 989 -36 
Q 684 19 347 128 
L 347 722 
Q 666 556 975 473 
Q 1284 391 1588 391 
Q 1994 391 2212 530 
Q 2431 669 2431 922 
Q 2431 1156 2273 1281 
Q 2116 1406 1581 1522 
L 1381 1569 
Q 847 1681 609 1914 
Q 372 2147 372 2553 
Q 372 3047 722 3315 
Q 1072 3584 1716 3584 
Q 2034 3584 2315 3537 
Q 2597 3491 2834 3397 
z
" id="DejaVuSans-73" transform="scale(0.015625)"/>
      </defs>
      <use xlink:href="#DejaVuSans-41"/>
      <use x="68.408203" xlink:href="#DejaVuSans-73"/>
      <use x="120.507812" xlink:href="#DejaVuSans-69"/>
      <use x="148.291016" xlink:href="#DejaVuSans-61"/>
     </g>
    </g>
    <g id="line2d_33">
     <path d="M 1075.516875 76.39125 
L 1091.516875 76.39125 
" style="fill:none;stroke:#a4a86f;stroke-linecap:square;stroke-width:2;"/>
    </g>
    <g id="line2d_34"/>
    <g id="text_23">
     <!-- Africa -->
     <g transform="translate(1097.916875 79.19125)scale(0.08 -0.08)">
      <defs>
       <path d="M 2375 4863 
L 2375 4384 
L 1825 4384 
Q 1516 4384 1395 4259 
Q 1275 4134 1275 3809 
L 1275 3500 
L 2222 3500 
L 2222 3053 
L 1275 3053 
L 1275 0 
L 697 0 
L 697 3053 
L 147 3053 
L 147 3500 
L 697 3500 
L 697 3744 
Q 697 4328 969 4595 
Q 1241 4863 1831 4863 
L 2375 4863 
z
" id="DejaVuSans-66" transform="scale(0.015625)"/>
      </defs>
      <use xlink:href="#DejaVuSans-41"/>
      <use x="64.783203" xlink:href="#DejaVuSans-66"/>
      <use x="99.988281" xlink:href="#DejaVuSans-72"/>
      <use x="141.101562" xlink:href="#DejaVuSans-69"/>
      <use x="168.884766" xlink:href="#DejaVuSans-63"/>
      <use x="223.865234" xlink:href="#DejaVuSans-61"/>
     </g>
    </g>
    <g id="line2d_35">
     <path d="M 1075.516875 88.13375 
L 1091.516875 88.13375 
" style="fill:none;stroke:#d3d3d3;stroke-linecap:square;stroke-width:2;"/>
    </g>
    <g id="line2d_36"/>
    <g id="text_24">
     <!-- Oceania -->
     <g transform="translate(1097.916875 90.93375)scale(0.08 -0.08)">
      <defs>
       <path d="M 2522 4238 
Q 1834 4238 1429 3725 
Q 1025 3213 1025 2328 
Q 1025 1447 1429 934 
Q 1834 422 2522 422 
Q 3209 422 3611 934 
Q 4013 1447 4013 2328 
Q 4013 3213 3611 3725 
Q 3209 4238 2522 4238 
z
M 2522 4750 
Q 3503 4750 4090 4092 
Q 4678 3434 4678 2328 
Q 4678 1225 4090 567 
Q 3503 -91 2522 -91 
Q 1538 -91 948 565 
Q 359 1222 359 2328 
Q 359 3434 948 4092 
Q 1538 4750 2522 4750 
z
" id="DejaVuSans-4f" transform="scale(0.015625)"/>
      </defs>
      <use xlink:href="#DejaVuSans-4f"/>
      <use x="78.710938" xlink:href="#DejaVuSans-63"/>
      <use x="133.691406" xlink:href="#DejaVuSans-65"/>
      <use x="195.214844" xlink:href="#DejaVuSans-61"/>
      <use x="256.494141" xlink:href="#DejaVuSans-6e"/>
      <use x="319.873047" xlink:href="#DejaVuSans-69"/>
      <use x="347.65625" xlink:href="#DejaVuSans-61"/>
     </g>
    </g>
   </g>
  </g>
 </g>
 <defs>
  <clipPath id="p0e5881db9b">
   <rect height="221.76" width="1116" x="53.328125" y="7.2"/>
  </clipPath>
 </defs>
</svg>
