<?xml version="1.0" encoding="utf-8" standalone="no"?>
<!DOCTYPE svg PUBLIC "-//W3C//DTD SVG 1.1//EN"
  "http://www.w3.org/Graphics/SVG/1.1/DTD/svg11.dtd">
<svg height="298.620937pt" version="1.1" viewBox="0 0 1176.528125 298.620937" width="1176.528125pt" xmlns="http://www.w3.org/2000/svg" xmlns:xlink="http://www.w3.org/1999/xlink">
 <metadata>
  <rdf:RDF xmlns:cc="http://creativecommons.org/ns#" xmlns:dc="http://purl.org/dc/elements/1.1/" xmlns:rdf="http://www.w3.org/1999/02/22-rdf-syntax-ns#">
   <cc:Work>
    <dc:type rdf:resource="http://purl.org/dc/dcmitype/StillImage"/>
    <dc:date>2021-10-01T11:53:58.159154</dc:date>
    <dc:format>image/svg+xml</dc:format>
    <dc:creator>
     <cc:Agent>
      <dc:title>Matplotlib v3.4.2, https://matplotlib.org/</dc:title>
     </cc:Agent>
    </dc:creator>
   </cc:Work>
  </rdf:RDF>
 </metadata>
 <defs>
  <style type="text/css">*{stroke-linecap:butt;stroke-linejoin:round;}</style>
 </defs>
 <g id="figure_1">
  <g id="patch_1">
   <path d="M 0 298.620937 
L 1176.528125 298.620937 
L 1176.528125 0 
L 0 0 
z
" style="fill:#ffffff;"/>
  </g>
  <g id="axes_1">
   <g id="patch_2">
    <path d="M 53.328125 228.96 
L 1169.328125 228.96 
L 1169.328125 7.2 
L 53.328125 7.2 
z
" style="fill:#ffffff;"/>
   </g>
   <g id="matplotlib.axis_1">
    <g id="xtick_1">
     <g id="line2d_1">
      <defs>
       <path d="M 0 0 
L 0 3.5 
" id="m5f65750c79" style="stroke:#000000;stroke-width:0.8;"/>
      </defs>
      <g>
       <use style="stroke:#000000;stroke-width:0.8;" x="198.30279" xlink:href="#m5f65750c79" y="228.96"/>
      </g>
     </g>
     <g id="text_1">
      <!-- 2020-11 -->
      <g transform="translate(201.062165 277.742812)rotate(-90)scale(0.1 -0.1)">
       <defs>
        <path d="M 1228 531 
L 3431 531 
L 3431 0 
L 469 0 
L 469 531 
Q 828 903 1448 1529 
Q 2069 2156 2228 2338 
Q 2531 2678 2651 2914 
Q 2772 3150 2772 3378 
Q 2772 3750 2511 3984 
Q 2250 4219 1831 4219 
Q 1534 4219 1204 4116 
Q 875 4013 500 3803 
L 500 4441 
Q 881 4594 1212 4672 
Q 1544 4750 1819 4750 
Q 2544 4750 2975 4387 
Q 3406 4025 3406 3419 
Q 3406 3131 3298 2873 
Q 3191 2616 2906 2266 
Q 2828 2175 2409 1742 
Q 1991 1309 1228 531 
z
" id="DejaVuSans-32" transform="scale(0.015625)"/>
        <path d="M 2034 4250 
Q 1547 4250 1301 3770 
Q 1056 3291 1056 2328 
Q 1056 1369 1301 889 
Q 1547 409 2034 409 
Q 2525 409 2770 889 
Q 3016 1369 3016 2328 
Q 3016 3291 2770 3770 
Q 2525 4250 2034 4250 
z
M 2034 4750 
Q 2819 4750 3233 4129 
Q 3647 3509 3647 2328 
Q 3647 1150 3233 529 
Q 2819 -91 2034 -91 
Q 1250 -91 836 529 
Q 422 1150 422 2328 
Q 422 3509 836 4129 
Q 1250 4750 2034 4750 
z
" id="DejaVuSans-30" transform="scale(0.015625)"/>
        <path d="M 313 2009 
L 1997 2009 
L 1997 1497 
L 313 1497 
L 313 2009 
z
" id="DejaVuSans-2d" transform="scale(0.015625)"/>
        <path d="M 794 531 
L 1825 531 
L 1825 4091 
L 703 3866 
L 703 4441 
L 1819 4666 
L 2450 4666 
L 2450 531 
L 3481 531 
L 3481 0 
L 794 0 
L 794 531 
z
" id="DejaVuSans-31" transform="scale(0.015625)"/>
       </defs>
       <use xlink:href="#DejaVuSans-32"/>
       <use x="63.623047" xlink:href="#DejaVuSans-30"/>
       <use x="127.246094" xlink:href="#DejaVuSans-32"/>
       <use x="190.869141" xlink:href="#DejaVuSans-30"/>
       <use x="254.492188" xlink:href="#DejaVuSans-2d"/>
       <use x="290.576172" xlink:href="#DejaVuSans-31"/>
       <use x="354.199219" xlink:href="#DejaVuSans-31"/>
      </g>
     </g>
    </g>
    <g id="xtick_2">
     <g id="line2d_2">
      <g>
       <use style="stroke:#000000;stroke-width:0.8;" x="367.393699" xlink:href="#m5f65750c79" y="228.96"/>
      </g>
     </g>
     <g id="text_2">
      <!-- 2021-01 -->
      <g transform="translate(370.153074 277.742812)rotate(-90)scale(0.1 -0.1)">
       <use xlink:href="#DejaVuSans-32"/>
       <use x="63.623047" xlink:href="#DejaVuSans-30"/>
       <use x="127.246094" xlink:href="#DejaVuSans-32"/>
       <use x="190.869141" xlink:href="#DejaVuSans-31"/>
       <use x="254.492188" xlink:href="#DejaVuSans-2d"/>
       <use x="290.576172" xlink:href="#DejaVuSans-30"/>
       <use x="354.199219" xlink:href="#DejaVuSans-31"/>
      </g>
     </g>
    </g>
    <g id="xtick_3">
     <g id="line2d_3">
      <g>
       <use style="stroke:#000000;stroke-width:0.8;" x="530.940644" xlink:href="#m5f65750c79" y="228.96"/>
      </g>
     </g>
     <g id="text_3">
      <!-- 2021-03 -->
      <g transform="translate(533.700019 277.742812)rotate(-90)scale(0.1 -0.1)">
       <defs>
        <path d="M 2597 2516 
Q 3050 2419 3304 2112 
Q 3559 1806 3559 1356 
Q 3559 666 3084 287 
Q 2609 -91 1734 -91 
Q 1441 -91 1130 -33 
Q 819 25 488 141 
L 488 750 
Q 750 597 1062 519 
Q 1375 441 1716 441 
Q 2309 441 2620 675 
Q 2931 909 2931 1356 
Q 2931 1769 2642 2001 
Q 2353 2234 1838 2234 
L 1294 2234 
L 1294 2753 
L 1863 2753 
Q 2328 2753 2575 2939 
Q 2822 3125 2822 3475 
Q 2822 3834 2567 4026 
Q 2313 4219 1838 4219 
Q 1578 4219 1281 4162 
Q 984 4106 628 3988 
L 628 4550 
Q 988 4650 1302 4700 
Q 1616 4750 1894 4750 
Q 2613 4750 3031 4423 
Q 3450 4097 3450 3541 
Q 3450 3153 3228 2886 
Q 3006 2619 2597 2516 
z
" id="DejaVuSans-33" transform="scale(0.015625)"/>
       </defs>
       <use xlink:href="#DejaVuSans-32"/>
       <use x="63.623047" xlink:href="#DejaVuSans-30"/>
       <use x="127.246094" xlink:href="#DejaVuSans-32"/>
       <use x="190.869141" xlink:href="#DejaVuSans-31"/>
       <use x="254.492188" xlink:href="#DejaVuSans-2d"/>
       <use x="290.576172" xlink:href="#DejaVuSans-30"/>
       <use x="354.199219" xlink:href="#DejaVuSans-33"/>
      </g>
     </g>
    </g>
    <g id="xtick_4">
     <g id="line2d_4">
      <g>
       <use style="stroke:#000000;stroke-width:0.8;" x="700.031553" xlink:href="#m5f65750c79" y="228.96"/>
      </g>
     </g>
     <g id="text_4">
      <!-- 2021-05 -->
      <g transform="translate(702.790928 277.742812)rotate(-90)scale(0.1 -0.1)">
       <defs>
        <path d="M 691 4666 
L 3169 4666 
L 3169 4134 
L 1269 4134 
L 1269 2991 
Q 1406 3038 1543 3061 
Q 1681 3084 1819 3084 
Q 2600 3084 3056 2656 
Q 3513 2228 3513 1497 
Q 3513 744 3044 326 
Q 2575 -91 1722 -91 
Q 1428 -91 1123 -41 
Q 819 9 494 109 
L 494 744 
Q 775 591 1075 516 
Q 1375 441 1709 441 
Q 2250 441 2565 725 
Q 2881 1009 2881 1497 
Q 2881 1984 2565 2268 
Q 2250 2553 1709 2553 
Q 1456 2553 1204 2497 
Q 953 2441 691 2322 
L 691 4666 
z
" id="DejaVuSans-35" transform="scale(0.015625)"/>
       </defs>
       <use xlink:href="#DejaVuSans-32"/>
       <use x="63.623047" xlink:href="#DejaVuSans-30"/>
       <use x="127.246094" xlink:href="#DejaVuSans-32"/>
       <use x="190.869141" xlink:href="#DejaVuSans-31"/>
       <use x="254.492188" xlink:href="#DejaVuSans-2d"/>
       <use x="290.576172" xlink:href="#DejaVuSans-30"/>
       <use x="354.199219" xlink:href="#DejaVuSans-35"/>
      </g>
     </g>
    </g>
    <g id="xtick_5">
     <g id="line2d_5">
      <g>
       <use style="stroke:#000000;stroke-width:0.8;" x="869.122462" xlink:href="#m5f65750c79" y="228.96"/>
      </g>
     </g>
     <g id="text_5">
      <!-- 2021-07 -->
      <g transform="translate(871.881837 277.742812)rotate(-90)scale(0.1 -0.1)">
       <defs>
        <path d="M 525 4666 
L 3525 4666 
L 3525 4397 
L 1831 0 
L 1172 0 
L 2766 4134 
L 525 4134 
L 525 4666 
z
" id="DejaVuSans-37" transform="scale(0.015625)"/>
       </defs>
       <use xlink:href="#DejaVuSans-32"/>
       <use x="63.623047" xlink:href="#DejaVuSans-30"/>
       <use x="127.246094" xlink:href="#DejaVuSans-32"/>
       <use x="190.869141" xlink:href="#DejaVuSans-31"/>
       <use x="254.492188" xlink:href="#DejaVuSans-2d"/>
       <use x="290.576172" xlink:href="#DejaVuSans-30"/>
       <use x="354.199219" xlink:href="#DejaVuSans-37"/>
      </g>
     </g>
    </g>
    <g id="xtick_6">
     <g id="line2d_6">
      <g>
       <use style="stroke:#000000;stroke-width:0.8;" x="1040.985353" xlink:href="#m5f65750c79" y="228.96"/>
      </g>
     </g>
     <g id="text_6">
      <!-- 2021-09 -->
      <g transform="translate(1043.744728 277.742812)rotate(-90)scale(0.1 -0.1)">
       <defs>
        <path d="M 703 97 
L 703 672 
Q 941 559 1184 500 
Q 1428 441 1663 441 
Q 2288 441 2617 861 
Q 2947 1281 2994 2138 
Q 2813 1869 2534 1725 
Q 2256 1581 1919 1581 
Q 1219 1581 811 2004 
Q 403 2428 403 3163 
Q 403 3881 828 4315 
Q 1253 4750 1959 4750 
Q 2769 4750 3195 4129 
Q 3622 3509 3622 2328 
Q 3622 1225 3098 567 
Q 2575 -91 1691 -91 
Q 1453 -91 1209 -44 
Q 966 3 703 97 
z
M 1959 2075 
Q 2384 2075 2632 2365 
Q 2881 2656 2881 3163 
Q 2881 3666 2632 3958 
Q 2384 4250 1959 4250 
Q 1534 4250 1286 3958 
Q 1038 3666 1038 3163 
Q 1038 2656 1286 2365 
Q 1534 2075 1959 2075 
z
" id="DejaVuSans-39" transform="scale(0.015625)"/>
       </defs>
       <use xlink:href="#DejaVuSans-32"/>
       <use x="63.623047" xlink:href="#DejaVuSans-30"/>
       <use x="127.246094" xlink:href="#DejaVuSans-32"/>
       <use x="190.869141" xlink:href="#DejaVuSans-31"/>
       <use x="254.492188" xlink:href="#DejaVuSans-2d"/>
       <use x="290.576172" xlink:href="#DejaVuSans-30"/>
       <use x="354.199219" xlink:href="#DejaVuSans-39"/>
      </g>
     </g>
    </g>
    <g id="text_7">
     <!-- Date -->
     <g transform="translate(599.377344 289.34125)scale(0.1 -0.1)">
      <defs>
       <path d="M 1259 4147 
L 1259 519 
L 2022 519 
Q 2988 519 3436 956 
Q 3884 1394 3884 2338 
Q 3884 3275 3436 3711 
Q 2988 4147 2022 4147 
L 1259 4147 
z
M 628 4666 
L 1925 4666 
Q 3281 4666 3915 4102 
Q 4550 3538 4550 2338 
Q 4550 1131 3912 565 
Q 3275 0 1925 0 
L 628 0 
L 628 4666 
z
" id="DejaVuSans-44" transform="scale(0.015625)"/>
       <path d="M 2194 1759 
Q 1497 1759 1228 1600 
Q 959 1441 959 1056 
Q 959 750 1161 570 
Q 1363 391 1709 391 
Q 2188 391 2477 730 
Q 2766 1069 2766 1631 
L 2766 1759 
L 2194 1759 
z
M 3341 1997 
L 3341 0 
L 2766 0 
L 2766 531 
Q 2569 213 2275 61 
Q 1981 -91 1556 -91 
Q 1019 -91 701 211 
Q 384 513 384 1019 
Q 384 1609 779 1909 
Q 1175 2209 1959 2209 
L 2766 2209 
L 2766 2266 
Q 2766 2663 2505 2880 
Q 2244 3097 1772 3097 
Q 1472 3097 1187 3025 
Q 903 2953 641 2809 
L 641 3341 
Q 956 3463 1253 3523 
Q 1550 3584 1831 3584 
Q 2591 3584 2966 3190 
Q 3341 2797 3341 1997 
z
" id="DejaVuSans-61" transform="scale(0.015625)"/>
       <path d="M 1172 4494 
L 1172 3500 
L 2356 3500 
L 2356 3053 
L 1172 3053 
L 1172 1153 
Q 1172 725 1289 603 
Q 1406 481 1766 481 
L 2356 481 
L 2356 0 
L 1766 0 
Q 1100 0 847 248 
Q 594 497 594 1153 
L 594 3053 
L 172 3053 
L 172 3500 
L 594 3500 
L 594 4494 
L 1172 4494 
z
" id="DejaVuSans-74" transform="scale(0.015625)"/>
       <path d="M 3597 1894 
L 3597 1613 
L 953 1613 
Q 991 1019 1311 708 
Q 1631 397 2203 397 
Q 2534 397 2845 478 
Q 3156 559 3463 722 
L 3463 178 
Q 3153 47 2828 -22 
Q 2503 -91 2169 -91 
Q 1331 -91 842 396 
Q 353 884 353 1716 
Q 353 2575 817 3079 
Q 1281 3584 2069 3584 
Q 2775 3584 3186 3129 
Q 3597 2675 3597 1894 
z
M 3022 2063 
Q 3016 2534 2758 2815 
Q 2500 3097 2075 3097 
Q 1594 3097 1305 2825 
Q 1016 2553 972 2059 
L 3022 2063 
z
" id="DejaVuSans-65" transform="scale(0.015625)"/>
      </defs>
      <use xlink:href="#DejaVuSans-44"/>
      <use x="77.001953" xlink:href="#DejaVuSans-61"/>
      <use x="138.28125" xlink:href="#DejaVuSans-74"/>
      <use x="177.490234" xlink:href="#DejaVuSans-65"/>
     </g>
    </g>
   </g>
   <g id="matplotlib.axis_2">
    <g id="ytick_1">
     <g id="line2d_7">
      <defs>
       <path d="M 0 0 
L -3.5 0 
" id="m56066b966e" style="stroke:#000000;stroke-width:0.8;"/>
      </defs>
      <g>
       <use style="stroke:#000000;stroke-width:0.8;" x="53.328125" xlink:href="#m56066b966e" y="228.96"/>
      </g>
     </g>
     <g id="text_8">
      <!-- 1 -->
      <g transform="translate(39.965625 232.759219)scale(0.1 -0.1)">
       <use xlink:href="#DejaVuSans-31"/>
      </g>
     </g>
    </g>
    <g id="ytick_2">
     <g id="line2d_8">
      <g>
       <use style="stroke:#000000;stroke-width:0.8;" x="53.328125" xlink:href="#m56066b966e" y="199.798086"/>
      </g>
     </g>
     <g id="text_9">
      <!-- 3 -->
      <g transform="translate(39.965625 203.597304)scale(0.1 -0.1)">
       <use xlink:href="#DejaVuSans-33"/>
      </g>
     </g>
    </g>
    <g id="ytick_3">
     <g id="line2d_9">
      <g>
       <use style="stroke:#000000;stroke-width:0.8;" x="53.328125" xlink:href="#m56066b966e" y="170.636171"/>
      </g>
     </g>
     <g id="text_10">
      <!-- 10 -->
      <g transform="translate(33.603125 174.43539)scale(0.1 -0.1)">
       <use xlink:href="#DejaVuSans-31"/>
       <use x="63.623047" xlink:href="#DejaVuSans-30"/>
      </g>
     </g>
    </g>
    <g id="ytick_4">
     <g id="line2d_10">
      <g>
       <use style="stroke:#000000;stroke-width:0.8;" x="53.328125" xlink:href="#m56066b966e" y="141.474257"/>
      </g>
     </g>
     <g id="text_11">
      <!-- 31 -->
      <g transform="translate(33.603125 145.273475)scale(0.1 -0.1)">
       <use xlink:href="#DejaVuSans-33"/>
       <use x="63.623047" xlink:href="#DejaVuSans-31"/>
      </g>
     </g>
    </g>
    <g id="ytick_5">
     <g id="line2d_11">
      <g>
       <use style="stroke:#000000;stroke-width:0.8;" x="53.328125" xlink:href="#m56066b966e" y="112.312342"/>
      </g>
     </g>
     <g id="text_12">
      <!-- 100 -->
      <g transform="translate(27.240625 116.111561)scale(0.1 -0.1)">
       <use xlink:href="#DejaVuSans-31"/>
       <use x="63.623047" xlink:href="#DejaVuSans-30"/>
       <use x="127.246094" xlink:href="#DejaVuSans-30"/>
      </g>
     </g>
    </g>
    <g id="ytick_6">
     <g id="line2d_12">
      <g>
       <use style="stroke:#000000;stroke-width:0.8;" x="53.328125" xlink:href="#m56066b966e" y="83.150428"/>
      </g>
     </g>
     <g id="text_13">
      <!-- 316 -->
      <g transform="translate(27.240625 86.949647)scale(0.1 -0.1)">
       <defs>
        <path d="M 2113 2584 
Q 1688 2584 1439 2293 
Q 1191 2003 1191 1497 
Q 1191 994 1439 701 
Q 1688 409 2113 409 
Q 2538 409 2786 701 
Q 3034 994 3034 1497 
Q 3034 2003 2786 2293 
Q 2538 2584 2113 2584 
z
M 3366 4563 
L 3366 3988 
Q 3128 4100 2886 4159 
Q 2644 4219 2406 4219 
Q 1781 4219 1451 3797 
Q 1122 3375 1075 2522 
Q 1259 2794 1537 2939 
Q 1816 3084 2150 3084 
Q 2853 3084 3261 2657 
Q 3669 2231 3669 1497 
Q 3669 778 3244 343 
Q 2819 -91 2113 -91 
Q 1303 -91 875 529 
Q 447 1150 447 2328 
Q 447 3434 972 4092 
Q 1497 4750 2381 4750 
Q 2619 4750 2861 4703 
Q 3103 4656 3366 4563 
z
" id="DejaVuSans-36" transform="scale(0.015625)"/>
       </defs>
       <use xlink:href="#DejaVuSans-33"/>
       <use x="63.623047" xlink:href="#DejaVuSans-31"/>
       <use x="127.246094" xlink:href="#DejaVuSans-36"/>
      </g>
     </g>
    </g>
    <g id="ytick_7">
     <g id="line2d_13">
      <g>
       <use style="stroke:#000000;stroke-width:0.8;" x="53.328125" xlink:href="#m56066b966e" y="53.988513"/>
      </g>
     </g>
     <g id="text_14">
      <!-- 1000 -->
      <g transform="translate(20.878125 57.787732)scale(0.1 -0.1)">
       <use xlink:href="#DejaVuSans-31"/>
       <use x="63.623047" xlink:href="#DejaVuSans-30"/>
       <use x="127.246094" xlink:href="#DejaVuSans-30"/>
       <use x="190.869141" xlink:href="#DejaVuSans-30"/>
      </g>
     </g>
    </g>
    <g id="ytick_8">
     <g id="line2d_14">
      <g>
       <use style="stroke:#000000;stroke-width:0.8;" x="53.328125" xlink:href="#m56066b966e" y="24.826599"/>
      </g>
     </g>
     <g id="text_15">
      <!-- 3162 -->
      <g transform="translate(20.878125 28.625818)scale(0.1 -0.1)">
       <use xlink:href="#DejaVuSans-33"/>
       <use x="63.623047" xlink:href="#DejaVuSans-31"/>
       <use x="127.246094" xlink:href="#DejaVuSans-36"/>
       <use x="190.869141" xlink:href="#DejaVuSans-32"/>
      </g>
     </g>
    </g>
    <g id="text_16">
     <!-- Count (7 day rolling average) -->
     <g transform="translate(14.798437 191.547969)rotate(-90)scale(0.1 -0.1)">
      <defs>
       <path d="M 4122 4306 
L 4122 3641 
Q 3803 3938 3442 4084 
Q 3081 4231 2675 4231 
Q 1875 4231 1450 3742 
Q 1025 3253 1025 2328 
Q 1025 1406 1450 917 
Q 1875 428 2675 428 
Q 3081 428 3442 575 
Q 3803 722 4122 1019 
L 4122 359 
Q 3791 134 3420 21 
Q 3050 -91 2638 -91 
Q 1578 -91 968 557 
Q 359 1206 359 2328 
Q 359 3453 968 4101 
Q 1578 4750 2638 4750 
Q 3056 4750 3426 4639 
Q 3797 4528 4122 4306 
z
" id="DejaVuSans-43" transform="scale(0.015625)"/>
       <path d="M 1959 3097 
Q 1497 3097 1228 2736 
Q 959 2375 959 1747 
Q 959 1119 1226 758 
Q 1494 397 1959 397 
Q 2419 397 2687 759 
Q 2956 1122 2956 1747 
Q 2956 2369 2687 2733 
Q 2419 3097 1959 3097 
z
M 1959 3584 
Q 2709 3584 3137 3096 
Q 3566 2609 3566 1747 
Q 3566 888 3137 398 
Q 2709 -91 1959 -91 
Q 1206 -91 779 398 
Q 353 888 353 1747 
Q 353 2609 779 3096 
Q 1206 3584 1959 3584 
z
" id="DejaVuSans-6f" transform="scale(0.015625)"/>
       <path d="M 544 1381 
L 544 3500 
L 1119 3500 
L 1119 1403 
Q 1119 906 1312 657 
Q 1506 409 1894 409 
Q 2359 409 2629 706 
Q 2900 1003 2900 1516 
L 2900 3500 
L 3475 3500 
L 3475 0 
L 2900 0 
L 2900 538 
Q 2691 219 2414 64 
Q 2138 -91 1772 -91 
Q 1169 -91 856 284 
Q 544 659 544 1381 
z
M 1991 3584 
L 1991 3584 
z
" id="DejaVuSans-75" transform="scale(0.015625)"/>
       <path d="M 3513 2113 
L 3513 0 
L 2938 0 
L 2938 2094 
Q 2938 2591 2744 2837 
Q 2550 3084 2163 3084 
Q 1697 3084 1428 2787 
Q 1159 2491 1159 1978 
L 1159 0 
L 581 0 
L 581 3500 
L 1159 3500 
L 1159 2956 
Q 1366 3272 1645 3428 
Q 1925 3584 2291 3584 
Q 2894 3584 3203 3211 
Q 3513 2838 3513 2113 
z
" id="DejaVuSans-6e" transform="scale(0.015625)"/>
       <path id="DejaVuSans-20" transform="scale(0.015625)"/>
       <path d="M 1984 4856 
Q 1566 4138 1362 3434 
Q 1159 2731 1159 2009 
Q 1159 1288 1364 580 
Q 1569 -128 1984 -844 
L 1484 -844 
Q 1016 -109 783 600 
Q 550 1309 550 2009 
Q 550 2706 781 3412 
Q 1013 4119 1484 4856 
L 1984 4856 
z
" id="DejaVuSans-28" transform="scale(0.015625)"/>
       <path d="M 2906 2969 
L 2906 4863 
L 3481 4863 
L 3481 0 
L 2906 0 
L 2906 525 
Q 2725 213 2448 61 
Q 2172 -91 1784 -91 
Q 1150 -91 751 415 
Q 353 922 353 1747 
Q 353 2572 751 3078 
Q 1150 3584 1784 3584 
Q 2172 3584 2448 3432 
Q 2725 3281 2906 2969 
z
M 947 1747 
Q 947 1113 1208 752 
Q 1469 391 1925 391 
Q 2381 391 2643 752 
Q 2906 1113 2906 1747 
Q 2906 2381 2643 2742 
Q 2381 3103 1925 3103 
Q 1469 3103 1208 2742 
Q 947 2381 947 1747 
z
" id="DejaVuSans-64" transform="scale(0.015625)"/>
       <path d="M 2059 -325 
Q 1816 -950 1584 -1140 
Q 1353 -1331 966 -1331 
L 506 -1331 
L 506 -850 
L 844 -850 
Q 1081 -850 1212 -737 
Q 1344 -625 1503 -206 
L 1606 56 
L 191 3500 
L 800 3500 
L 1894 763 
L 2988 3500 
L 3597 3500 
L 2059 -325 
z
" id="DejaVuSans-79" transform="scale(0.015625)"/>
       <path d="M 2631 2963 
Q 2534 3019 2420 3045 
Q 2306 3072 2169 3072 
Q 1681 3072 1420 2755 
Q 1159 2438 1159 1844 
L 1159 0 
L 581 0 
L 581 3500 
L 1159 3500 
L 1159 2956 
Q 1341 3275 1631 3429 
Q 1922 3584 2338 3584 
Q 2397 3584 2469 3576 
Q 2541 3569 2628 3553 
L 2631 2963 
z
" id="DejaVuSans-72" transform="scale(0.015625)"/>
       <path d="M 603 4863 
L 1178 4863 
L 1178 0 
L 603 0 
L 603 4863 
z
" id="DejaVuSans-6c" transform="scale(0.015625)"/>
       <path d="M 603 3500 
L 1178 3500 
L 1178 0 
L 603 0 
L 603 3500 
z
M 603 4863 
L 1178 4863 
L 1178 4134 
L 603 4134 
L 603 4863 
z
" id="DejaVuSans-69" transform="scale(0.015625)"/>
       <path d="M 2906 1791 
Q 2906 2416 2648 2759 
Q 2391 3103 1925 3103 
Q 1463 3103 1205 2759 
Q 947 2416 947 1791 
Q 947 1169 1205 825 
Q 1463 481 1925 481 
Q 2391 481 2648 825 
Q 2906 1169 2906 1791 
z
M 3481 434 
Q 3481 -459 3084 -895 
Q 2688 -1331 1869 -1331 
Q 1566 -1331 1297 -1286 
Q 1028 -1241 775 -1147 
L 775 -588 
Q 1028 -725 1275 -790 
Q 1522 -856 1778 -856 
Q 2344 -856 2625 -561 
Q 2906 -266 2906 331 
L 2906 616 
Q 2728 306 2450 153 
Q 2172 0 1784 0 
Q 1141 0 747 490 
Q 353 981 353 1791 
Q 353 2603 747 3093 
Q 1141 3584 1784 3584 
Q 2172 3584 2450 3431 
Q 2728 3278 2906 2969 
L 2906 3500 
L 3481 3500 
L 3481 434 
z
" id="DejaVuSans-67" transform="scale(0.015625)"/>
       <path d="M 191 3500 
L 800 3500 
L 1894 563 
L 2988 3500 
L 3597 3500 
L 2284 0 
L 1503 0 
L 191 3500 
z
" id="DejaVuSans-76" transform="scale(0.015625)"/>
       <path d="M 513 4856 
L 1013 4856 
Q 1481 4119 1714 3412 
Q 1947 2706 1947 2009 
Q 1947 1309 1714 600 
Q 1481 -109 1013 -844 
L 513 -844 
Q 928 -128 1133 580 
Q 1338 1288 1338 2009 
Q 1338 2731 1133 3434 
Q 928 4138 513 4856 
z
" id="DejaVuSans-29" transform="scale(0.015625)"/>
      </defs>
      <use xlink:href="#DejaVuSans-43"/>
      <use x="69.824219" xlink:href="#DejaVuSans-6f"/>
      <use x="131.005859" xlink:href="#DejaVuSans-75"/>
      <use x="194.384766" xlink:href="#DejaVuSans-6e"/>
      <use x="257.763672" xlink:href="#DejaVuSans-74"/>
      <use x="296.972656" xlink:href="#DejaVuSans-20"/>
      <use x="328.759766" xlink:href="#DejaVuSans-28"/>
      <use x="367.773438" xlink:href="#DejaVuSans-37"/>
      <use x="431.396484" xlink:href="#DejaVuSans-20"/>
      <use x="463.183594" xlink:href="#DejaVuSans-64"/>
      <use x="526.660156" xlink:href="#DejaVuSans-61"/>
      <use x="587.939453" xlink:href="#DejaVuSans-79"/>
      <use x="647.119141" xlink:href="#DejaVuSans-20"/>
      <use x="678.90625" xlink:href="#DejaVuSans-72"/>
      <use x="717.769531" xlink:href="#DejaVuSans-6f"/>
      <use x="778.951172" xlink:href="#DejaVuSans-6c"/>
      <use x="806.734375" xlink:href="#DejaVuSans-6c"/>
      <use x="834.517578" xlink:href="#DejaVuSans-69"/>
      <use x="862.300781" xlink:href="#DejaVuSans-6e"/>
      <use x="925.679688" xlink:href="#DejaVuSans-67"/>
      <use x="989.15625" xlink:href="#DejaVuSans-20"/>
      <use x="1020.943359" xlink:href="#DejaVuSans-61"/>
      <use x="1082.222656" xlink:href="#DejaVuSans-76"/>
      <use x="1141.402344" xlink:href="#DejaVuSans-65"/>
      <use x="1202.925781" xlink:href="#DejaVuSans-72"/>
      <use x="1244.039062" xlink:href="#DejaVuSans-61"/>
      <use x="1305.318359" xlink:href="#DejaVuSans-67"/>
      <use x="1368.794922" xlink:href="#DejaVuSans-65"/>
      <use x="1430.318359" xlink:href="#DejaVuSans-29"/>
     </g>
    </g>
   </g>
   <g id="line2d_15">
    <path clip-path="url(#p440ed1fb13)" d="M 486.58893 217.511345 
L 489.360912 228.96 
L 575.292357 228.96 
L 578.06434 225.577688 
L 594.696232 225.577688 
L 597.468214 228.96 
L 608.556143 228.96 
L 611.328125 225.577688 
L 619.644071 225.577688 
L 622.416053 222.594277 
L 625.188036 217.511345 
L 627.960018 217.511345 
L 630.732 219.925525 
L 633.503982 217.511345 
L 636.275964 217.511345 
L 639.047946 213.279912 
L 641.819928 215.307371 
L 644.59191 219.925525 
L 647.363893 215.307371 
L 650.135875 206.484861 
L 652.907857 208.020466 
L 655.679839 203.667547 
L 658.451821 202.368303 
L 663.995785 192.956703 
L 666.767767 194.766738 
L 669.539749 188.927639 
L 672.311732 186.785824 
L 675.083714 188.193393 
L 680.627678 188.193393 
L 683.39966 186.110325 
L 686.171642 181.27095 
L 688.943624 182.396901 
L 691.715606 181.82767 
L 694.487588 182.396901 
L 697.259571 184.185624 
L 700.031553 186.110325 
L 702.803535 189.683806 
L 705.575517 191.267429 
L 708.347499 193.845556 
L 711.119481 193.845556 
L 713.891463 191.267429 
L 716.663445 188.193393 
L 719.435428 188.927639 
L 722.20741 187.479833 
L 724.979392 192.097986 
L 727.751374 198.828172 
L 730.523356 203.667547 
L 733.295338 208.020466 
L 736.06732 215.307371 
L 738.839302 213.279912 
L 741.611284 222.594277 
L 744.383267 219.925525 
L 747.155249 217.511345 
L 749.927231 215.307371 
L 755.471195 215.307371 
L 758.243177 217.511345 
L 763.787141 217.511345 
L 766.559124 215.307371 
L 772.103088 215.307371 
L 774.87507 211.402778 
L 777.647052 211.402778 
L 780.419034 213.279912 
L 783.191016 211.402778 
L 788.73498 211.402778 
L 794.278945 208.020466 
L 797.050927 206.484861 
L 799.822909 203.667547 
L 802.594891 199.954123 
L 805.366873 202.368303 
L 808.138855 201.132462 
L 810.910837 201.132462 
L 813.682819 197.750149 
L 816.454802 197.750149 
L 819.226784 196.71614 
L 821.998766 201.132462 
L 824.770748 199.954123 
L 827.54273 196.71614 
L 830.314712 197.750149 
L 833.086694 202.368303 
L 835.858676 199.954123 
L 838.630659 203.667547 
L 841.402641 197.750149 
L 844.174623 192.956703 
L 846.946605 192.097986 
L 849.718587 186.785824 
L 852.490569 181.82767 
L 855.262551 177.682983 
L 858.034533 174.540764 
L 860.806515 172.513305 
L 863.578498 172.126584 
L 866.35048 170.636171 
L 871.894444 172.126584 
L 874.666426 169.228603 
L 877.438408 170.276878 
L 880.21039 169.922611 
L 882.982372 167.572476 
L 885.754355 166.018018 
L 888.526337 162.635705 
L 891.298319 160.125761 
L 894.070301 160.608246 
L 896.842283 156.773336 
L 899.614265 156.152985 
L 902.386247 155.949533 
L 905.158229 155.3488 
L 907.930211 152.016008 
L 910.702194 152.541903 
L 913.474176 152.719656 
L 916.246158 152.365389 
L 919.01814 153.627629 
L 921.790122 152.719656 
L 924.562104 152.541903 
L 927.334086 156.152985 
L 930.106068 155.547465 
L 932.87805 154.761985 
L 935.650033 156.56486 
L 938.422015 154.761985 
L 941.193997 153.443412 
L 943.965979 153.627629 
L 949.509943 150.33793 
L 952.281925 149.855444 
L 957.82589 147.571943 
L 960.597872 149.696637 
L 963.369854 147.571943 
L 966.141836 148.161032 
L 968.913818 148.917199 
L 971.6858 146.433337 
L 974.457782 146.019218 
L 977.229764 143.918141 
L 980.001746 141.17389 
L 982.773729 140.504343 
L 985.545711 141.401064 
L 988.317693 143.051024 
L 991.089675 145.882669 
L 993.861657 147.138945 
L 996.633639 150.33793 
L 999.405621 152.541903 
L 1002.177603 151.843108 
L 1004.949586 144.556203 
L 1007.721568 139.638286 
L 1010.49355 137.108269 
L 1013.265532 133.272562 
L 1016.037514 129.085741 
L 1018.809496 126.297988 
L 1021.581478 124.362558 
L 1024.35346 123.391514 
L 1027.125442 122.027906 
L 1029.897425 121.243642 
L 1032.669407 121.140884 
L 1035.441389 121.554439 
L 1038.213371 121.816383 
L 1040.985353 122.892117 
L 1043.757335 125.372317 
L 1049.301299 129.015673 
L 1052.073281 130.381293 
L 1057.617246 137.398861 
L 1060.389228 141.401064 
L 1063.16121 142.929539 
L 1065.933192 143.173095 
L 1068.705174 144.427298 
L 1071.477156 147.717936 
L 1074.249138 149.226102 
L 1077.021121 149.855444 
L 1079.793103 149.696637 
L 1082.565085 150.995881 
L 1085.337067 154.188457 
L 1088.109049 156.773336 
L 1090.881031 156.152985 
L 1093.653013 154.761985 
L 1096.424995 154.378194 
L 1099.196977 154.761985 
L 1101.96896 155.747701 
L 1104.740942 159.418839 
L 1107.512924 158.731112 
L 1110.284906 163.439891 
L 1110.284906 163.439891 
" style="fill:none;stroke:#947383;stroke-linecap:square;stroke-width:2;"/>
   </g>
   <g id="line2d_16">
    <path clip-path="url(#p440ed1fb13)" d="M 209.390718 225.577688 
L 228.794593 225.577688 
L 231.566575 228.96 
L 289.7782 228.96 
L 292.550182 225.577688 
L 303.63811 225.577688 
L 306.410092 222.594277 
L 309.182074 219.925525 
L 311.954056 222.594277 
L 323.041985 222.594277 
L 325.813967 225.577688 
L 328.585949 228.96 
L 378.481627 228.96 
L 381.253609 217.511345 
L 384.025591 215.307371 
L 386.797574 215.307371 
L 389.569556 199.954123 
L 395.11352 199.954123 
L 397.885502 198.828172 
L 400.657484 203.667547 
L 403.429466 205.037055 
L 406.201448 205.037055 
L 408.973431 225.577688 
L 411.745413 225.577688 
L 414.517395 222.594277 
L 417.289377 225.577688 
L 431.149287 225.577688 
L 433.92127 228.96 
L 442.237216 228.96 
L 445.009198 225.577688 
L 450.553162 225.577688 
L 453.325144 215.307371 
L 456.097126 213.279912 
L 458.869109 213.279912 
L 461.641091 209.655208 
L 464.413073 208.020466 
L 467.185055 203.667547 
L 469.957037 203.667547 
L 472.729019 209.655208 
L 475.501001 183.57524 
L 478.272983 183.57524 
L 483.816948 186.110325 
L 486.58893 188.193393 
L 492.132894 188.193393 
L 494.904876 228.96 
L 497.676858 225.577688 
L 505.992805 225.577688 
L 508.764787 222.594277 
L 514.308751 222.594277 
L 517.080733 225.577688 
L 522.624697 225.577688 
L 525.396679 219.925525 
L 528.168662 219.925525 
L 530.940644 206.484861 
L 536.484608 206.484861 
L 539.25659 193.845556 
L 542.028572 183.57524 
L 544.800554 180.192927 
L 547.572536 178.657323 
L 550.344518 175.399481 
L 553.116501 160.125761 
L 555.888483 159.187516 
L 558.660465 159.187516 
L 561.432447 161.601696 
L 564.204429 162.635705 
L 566.976411 162.90094 
L 569.748393 161.100101 
L 572.520375 171.370417 
L 575.292357 166.321371 
L 578.06434 162.90094 
L 580.836322 162.90094 
L 583.608304 161.349657 
L 586.380286 156.773336 
L 589.152268 156.983542 
L 591.92425 156.152985 
L 594.696232 155.547465 
L 597.468214 155.3488 
L 600.240197 151.671381 
L 603.012179 149.538819 
L 605.784161 148.310471 
L 608.556143 146.713226 
L 611.328125 141.287223 
L 614.100107 135.162434 
L 616.872089 130.60381 
L 619.644071 127.521261 
L 622.416053 124.073072 
L 625.188036 122.402375 
L 627.960018 117.163147 
L 630.732 114.385074 
L 636.275964 111.14552 
L 639.047946 108.646662 
L 641.819928 105.197903 
L 644.59191 104.710778 
L 647.363893 104.872114 
L 650.135875 102.430973 
L 652.907857 100.452555 
L 655.679839 99.366038 
L 658.451821 98.914286 
L 661.223803 99.171442 
L 663.995785 96.554436 
L 666.767767 96.130659 
L 669.539749 97.443983 
L 672.311732 98.054858 
L 675.083714 97.808738 
L 677.855696 95.137945 
L 680.627678 95.414977 
L 683.39966 97.524587 
L 686.171642 95.713856 
L 688.943624 95.414977 
L 691.715606 93.398948 
L 694.487588 91.852249 
L 697.259571 91.771709 
L 700.031553 91.262232 
L 702.803535 89.379469 
L 705.575517 90.28819 
L 708.347499 89.911812 
L 711.119481 90.562686 
L 713.891463 92.209698 
L 716.663445 94.094385 
L 719.435428 93.831354 
L 722.20741 95.377863 
L 724.979392 94.737034 
L 727.751374 94.882087 
L 730.523356 96.496229 
L 733.295338 96.476857 
L 736.06732 95.248394 
L 738.839302 95.377863 
L 741.611284 94.809457 
L 744.383267 94.827595 
L 747.155249 94.253525 
L 749.927231 92.55567 
L 752.699213 92.505955 
L 755.471195 94.023976 
L 758.243177 94.991424 
L 761.015159 96.092483 
L 763.787141 96.380215 
L 766.559124 97.808738 
L 769.331106 101.118259 
L 772.103088 102.406488 
L 774.87507 103.17675 
L 777.647052 104.232845 
L 780.419034 104.845153 
L 783.191016 105.63891 
L 785.962998 104.523842 
L 788.73498 102.751451 
L 791.506963 101.945715 
L 794.278945 102.553755 
L 797.050927 101.63521 
L 799.822909 101.328466 
L 805.366873 104.391156 
L 810.910837 107.906154 
L 813.682819 107.543864 
L 819.226784 108.490594 
L 821.998766 108.304573 
L 824.770748 107.603887 
L 827.54273 103.430303 
L 830.314712 101.945715 
L 833.086694 100.817675 
L 835.858676 101.141529 
L 838.630659 101.211469 
L 841.402641 99.453007 
L 844.174623 99.781826 
L 846.946605 99.431237 
L 849.718587 100.249465 
L 852.490569 100.227 
L 855.262551 99.936749 
L 858.034533 99.496604 
L 860.806515 98.701965 
L 863.578498 97.024971 
L 866.35048 92.423314 
L 869.122462 92.209698 
L 871.894444 89.986642 
L 874.666426 90.273027 
L 877.438408 89.867021 
L 880.21039 89.204479 
L 882.982372 90.197348 
L 885.754355 73.990329 
L 888.526337 71.379828 
L 891.298319 68.277664 
L 894.070301 68.379646 
L 896.842283 68.804716 
L 899.614265 69.879351 
L 902.386247 69.831961 
L 905.158229 87.777673 
L 907.930211 92.805719 
L 910.702194 106.116049 
L 913.474176 105.91849 
L 916.246158 103.050919 
L 919.01814 102.480015 
L 921.790122 103.997218 
L 924.562104 103.815456 
L 927.334086 96.886826 
L 930.106068 97.383698 
L 932.87805 96.593315 
L 935.650033 98.491409 
L 938.422015 93.398948 
L 941.193997 92.99067 
L 943.965979 86.649333 
L 946.737961 91.105099 
L 949.509943 85.14466 
L 952.281925 85.082835 
L 955.053907 81.972129 
L 957.82589 79.51727 
L 960.597872 78.880934 
L 963.369854 72.198165 
L 966.141836 67.334909 
L 968.913818 66.801249 
L 971.6858 67.127387 
L 974.457782 68.507703 
L 977.229764 72.057464 
L 980.001746 66.313895 
L 982.773729 74.866092 
L 985.545711 76.074308 
L 988.317693 71.136546 
L 991.089675 55.920263 
L 993.861657 46.505162 
L 996.633639 40.925272 
L 999.405621 36.792083 
L 1002.177603 26.874122 
L 1004.949586 21.962409 
L 1007.721568 20.99397 
L 1010.49355 23.346455 
L 1013.265532 26.783718 
L 1016.037514 29.834437 
L 1018.809496 34.440044 
L 1021.581478 49.028911 
L 1024.35346 71.157918 
L 1027.125442 94.395828 
L 1029.897425 112.421132 
L 1032.669407 112.824071 
L 1035.441389 113.459684 
L 1038.213371 115.427266 
L 1040.985353 114.463737 
L 1043.757335 115.223486 
L 1046.529317 99.584023 
L 1049.301299 99.56214 
L 1052.073281 100.294456 
L 1054.845264 97.666264 
L 1057.617246 97.323557 
L 1060.389228 90.470857 
L 1063.16121 87.01989 
L 1065.933192 94.289026 
L 1071.477156 94.610791 
L 1074.249138 94.954926 
L 1077.021121 96.515617 
L 1079.793103 109.506458 
L 1082.565085 124.596552 
L 1085.337067 137.496471 
L 1088.109049 138.90404 
L 1090.881031 139.532081 
L 1093.653013 191.267429 
L 1096.424995 194.766738 
L 1099.196977 199.954123 
L 1099.196977 199.954123 
" style="fill:none;stroke:#96c6ad;stroke-linecap:square;stroke-width:2;"/>
   </g>
   <g id="line2d_17">
    <path clip-path="url(#p440ed1fb13)" d="M 104.055398 225.577688 
L 106.82738 228.96 
L 320.270003 228.96 
L 323.041985 225.577688 
L 339.673878 225.577688 
L 342.44586 228.96 
L 372.937663 228.96 
L 375.709645 222.594277 
L 378.481627 219.925525 
L 381.253609 219.925525 
L 384.025591 215.307371 
L 392.341538 215.307371 
L 395.11352 219.925525 
L 397.885502 222.594277 
L 400.657484 222.594277 
L 403.429466 228.96 
L 428.377305 228.96 
L 431.149287 225.577688 
L 433.92127 225.577688 
L 436.693252 222.594277 
L 447.78118 222.594277 
L 450.553162 225.577688 
L 453.325144 225.577688 
L 456.097126 228.96 
L 458.869109 225.577688 
L 461.641091 222.594277 
L 467.185055 222.594277 
L 469.957037 219.925525 
L 472.729019 219.925525 
L 475.501001 217.511345 
L 478.272983 217.511345 
L 481.044966 219.925525 
L 486.58893 219.925525 
L 489.360912 222.594277 
L 492.132894 222.594277 
L 494.904876 225.577688 
L 497.676858 228.96 
L 514.308751 228.96 
L 517.080733 225.577688 
L 533.712626 225.577688 
L 536.484608 228.96 
L 544.800554 228.96 
L 547.572536 225.577688 
L 550.344518 225.577688 
L 553.116501 222.594277 
L 564.204429 222.594277 
L 566.976411 225.577688 
L 569.748393 225.577688 
L 572.520375 219.925525 
L 578.06434 219.925525 
L 580.836322 217.511345 
L 583.608304 217.511345 
L 586.380286 215.307371 
L 589.152268 215.307371 
L 591.92425 222.594277 
L 594.696232 219.925525 
L 597.468214 215.307371 
L 600.240197 217.511345 
L 603.012179 217.511345 
L 605.784161 215.307371 
L 608.556143 211.402778 
L 611.328125 206.484861 
L 614.100107 203.667547 
L 616.872089 197.750149 
L 619.644071 196.71614 
L 622.416053 191.267429 
L 625.188036 192.956703 
L 627.960018 187.479833 
L 633.503982 180.726204 
L 636.275964 181.27095 
L 639.047946 176.744738 
L 641.819928 174.540764 
L 644.59191 167.895152 
L 647.363893 165.421997 
L 650.135875 162.373219 
L 652.907857 160.365855 
L 655.679839 155.547465 
L 658.451821 152.898666 
L 661.223803 150.664769 
L 663.995785 150.33793 
L 666.767767 147.138945 
L 669.539749 143.667349 
L 672.311732 141.17389 
L 675.083714 140.725565 
L 677.855696 138.291194 
L 680.627678 138.291194 
L 683.39966 136.16302 
L 686.171642 134.89627 
L 688.943624 133.189921 
L 691.715606 131.054796 
L 694.487588 129.367969 
L 697.259571 128.945798 
L 700.031553 127.58731 
L 702.803535 127.920163 
L 705.575517 126.235213 
L 708.347499 125.432987 
L 711.119481 124.073072 
L 713.891463 122.402375 
L 716.663445 121.450416 
L 719.435428 121.140884 
L 722.20741 121.346818 
L 724.979392 120.333494 
L 727.751374 119.695926 
L 730.523356 118.513185 
L 733.295338 118.698751 
L 736.06732 118.513185 
L 738.839302 117.694559 
L 741.611284 116.642655 
L 744.383267 115.798253 
L 747.155249 115.223486 
L 749.927231 115.223486 
L 752.699213 114.981094 
L 755.471195 114.228475 
L 758.243177 114.780858 
L 766.559124 113.841163 
L 769.331106 113.121197 
L 772.103088 111.493461 
L 774.87507 110.939026 
L 777.647052 110.700226 
L 780.419034 110.768225 
L 783.191016 113.233524 
L 785.962998 110.632409 
L 788.73498 109.184602 
L 791.506963 108.490594 
L 794.278945 107.364643 
L 797.050927 105.862327 
L 799.822909 104.926122 
L 802.594891 100.452555 
L 805.366873 98.871679 
L 808.138855 97.524587 
L 810.910837 95.751465 
L 813.682819 93.813915 
L 816.454802 92.522516 
L 819.226784 90.964509 
L 821.998766 88.347216 
L 824.770748 86.90019 
L 827.54273 85.268765 
L 830.314712 83.433431 
L 833.086694 82.20255 
L 835.858676 81.51748 
L 838.630659 81.463895 
L 841.402641 79.566887 
L 844.174623 78.016095 
L 846.946605 76.838606 
L 849.718587 75.307199 
L 852.490569 73.934598 
L 855.262551 73.051505 
L 858.034533 71.698171 
L 863.578498 67.470099 
L 866.35048 65.720476 
L 871.894444 63.204565 
L 874.666426 62.648411 
L 877.438408 63.508357 
L 880.21039 63.688151 
L 882.982372 60.773824 
L 885.754355 57.678714 
L 888.526337 55.698633 
L 891.298319 53.408992 
L 894.070301 51.328809 
L 896.842283 49.064637 
L 899.614265 45.699461 
L 902.386247 44.752207 
L 905.158229 43.963024 
L 907.930211 42.701562 
L 910.702194 41.730852 
L 916.246158 39.989974 
L 919.01814 38.127866 
L 921.790122 35.998969 
L 924.562104 34.091235 
L 927.334086 31.98864 
L 930.106068 30.10782 
L 932.87805 28.902201 
L 935.650033 28.334703 
L 938.422015 26.134453 
L 941.193997 24.576036 
L 943.965979 23.155059 
L 946.737961 21.581046 
L 949.509943 20.46928 
L 955.053907 19.571093 
L 957.82589 19.284461 
L 960.597872 18.604123 
L 963.369854 18.178986 
L 966.141836 18.209809 
L 968.913818 17.900634 
L 971.6858 17.76 
L 974.457782 18.021927 
L 977.229764 17.999195 
L 985.545711 20.408656 
L 988.317693 21.698089 
L 991.089675 22.620845 
L 993.861657 22.94703 
L 996.633639 23.442698 
L 1002.177603 23.140066 
L 1004.949586 23.307628 
L 1007.721568 23.345375 
L 1013.265532 23.937208 
L 1016.037514 25.137389 
L 1018.809496 26.186317 
L 1024.35346 27.009712 
L 1027.125442 28.025123 
L 1032.669407 28.766816 
L 1035.441389 28.788215 
L 1038.213371 28.088819 
L 1040.985353 28.868623 
L 1049.301299 29.688444 
L 1052.073281 29.735626 
L 1054.845264 33.085417 
L 1057.617246 34.2335 
L 1060.389228 35.779371 
L 1063.16121 37.973569 
L 1065.933192 39.184617 
L 1068.705174 40.079666 
L 1071.477156 41.308404 
L 1074.249138 41.286479 
L 1077.021121 46.863147 
L 1082.565085 54.170089 
L 1085.337067 58.245947 
L 1088.109049 60.360958 
L 1090.881031 62.169097 
L 1093.653013 66.849302 
L 1096.424995 72.967162 
L 1099.196977 81.123608 
L 1101.96896 89.971658 
L 1104.740942 101.65896 
L 1104.740942 101.65896 
" style="fill:none;stroke:#525886;stroke-linecap:square;stroke-width:2;"/>
   </g>
   <g id="line2d_18">
    <path clip-path="url(#p440ed1fb13)" d="M 594.696232 219.925525 
L 597.468214 225.577688 
L 603.012179 225.577688 
L 605.784161 222.594277 
L 608.556143 222.594277 
L 611.328125 215.307371 
L 614.100107 209.655208 
L 616.872089 206.484861 
L 619.644071 203.667547 
L 622.416053 196.71614 
L 625.188036 194.766738 
L 627.960018 189.683806 
L 630.732 180.726204 
L 633.503982 175.840009 
L 636.275964 172.906022 
L 641.819928 172.906022 
L 644.59191 170.636171 
L 647.363893 169.228603 
L 650.135875 171.000634 
L 652.907857 168.888601 
L 655.679839 162.90094 
L 658.451821 157.409262 
L 661.223803 151.163075 
L 663.995785 150.015254 
L 666.767767 143.792435 
L 669.539749 139.959597 
L 672.311732 137.692826 
L 675.083714 135.794581 
L 677.855696 134.720369 
L 680.627678 135.341444 
L 683.39966 132.9436 
L 686.171642 133.689865 
L 688.943624 134.02873 
L 691.715606 132.699653 
L 694.487588 132.618856 
L 697.259571 131.513958 
L 700.031553 131.513958 
L 702.803535 131.359977 
L 705.575517 131.436851 
L 708.347499 131.206927 
L 711.119481 130.455249 
L 713.891463 129.510271 
L 716.663445 129.797297 
L 719.435428 129.085741 
L 722.20741 129.797297 
L 724.979392 127.521261 
L 730.523356 122.34854 
L 733.295338 122.402375 
L 736.06732 121.295177 
L 738.839302 120.936611 
L 741.611284 120.835089 
L 744.383267 118.467005 
L 747.155249 117.427459 
L 749.927231 116.944974 
L 752.699213 114.860763 
L 755.471195 113.573526 
L 758.243177 112.640122 
L 761.015159 110.329458 
L 763.787141 109.603818 
L 772.103088 105.362382 
L 774.87507 103.101177 
L 777.647052 100.204554 
L 780.419034 99.171442 
L 783.191016 98.386784 
L 785.962998 96.035327 
L 791.506963 92.160657 
L 794.278945 92.079132 
L 797.050927 92.872818 
L 799.822909 92.226066 
L 802.594891 90.394585 
L 805.366873 90.061693 
L 808.138855 90.593371 
L 816.454802 96.168893 
L 819.226784 99.171442 
L 821.998766 103.893194 
L 824.770748 107.815095 
L 827.54273 109.997042 
L 830.314712 110.262625 
L 833.086694 105.500269 
L 835.858676 104.630493 
L 838.630659 103.126343 
L 841.402641 99.56214 
L 844.174623 96.710312 
L 846.946605 96.188031 
L 849.718587 94.900277 
L 852.490569 95.396413 
L 855.262551 91.40449 
L 858.034533 89.62946 
L 860.806515 88.94424 
L 863.578498 87.998412 
L 866.35048 86.297073 
L 869.122462 84.220825 
L 871.894444 83.630912 
L 874.666426 85.531381 
L 877.438408 84.436603 
L 880.21039 83.065828 
L 882.982372 85.431015 
L 885.754355 86.544448 
L 888.526337 88.757939 
L 891.298319 88.53051 
L 894.070301 88.431648 
L 896.842283 89.971658 
L 899.614265 93.519279 
L 902.386247 93.126032 
L 905.158229 90.486138 
L 907.930211 89.659034 
L 910.702194 89.045127 
L 913.474176 88.558827 
L 916.246158 87.860225 
L 919.01814 84.60571 
L 921.790122 81.123608 
L 924.562104 79.566887 
L 927.334086 76.169679 
L 930.106068 75.391295 
L 932.87805 74.343474 
L 935.650033 73.028474 
L 938.422015 74.070158 
L 943.965979 76.537163 
L 946.737961 78.175431 
L 952.281925 77.516515 
L 955.053907 78.222486 
L 957.82589 78.288511 
L 960.597872 77.452471 
L 963.369854 76.431623 
L 966.141836 76.660852 
L 968.913818 76.309045 
L 974.457782 74.990156 
L 977.229764 74.849596 
L 980.001746 75.850302 
L 982.773729 78.072217 
L 985.545711 77.960097 
L 988.317693 79.696349 
L 991.089675 80.088754 
L 993.861657 78.997214 
L 996.633639 77.617486 
L 999.405621 75.679328 
L 1002.177603 72.362063 
L 1004.949586 72.161062 
L 1010.49355 72.279982 
L 1013.265532 72.34712 
L 1016.037514 71.749188 
L 1018.809496 71.792998 
L 1021.581478 73.120722 
L 1024.35346 72.867844 
L 1027.125442 70.372002 
L 1029.897425 69.589634 
L 1032.669407 70.670861 
L 1035.441389 70.241064 
L 1038.213371 68.315859 
L 1043.757335 66.735325 
L 1046.529317 66.807251 
L 1049.301299 67.612211 
L 1052.073281 67.717764 
L 1054.845264 68.106495 
L 1057.617246 70.86738 
L 1063.16121 73.563547 
L 1065.933192 75.098172 
L 1068.705174 75.867463 
L 1071.477156 75.704901 
L 1074.249138 75.876048 
L 1077.021121 75.332398 
L 1079.793103 75.164873 
L 1082.565085 74.046183 
L 1085.337067 73.776039 
L 1088.109049 73.673506 
L 1090.881031 73.143837 
L 1093.653013 75.867463 
L 1096.424995 79.937109 
L 1099.196977 84.935068 
L 1101.96896 92.622109 
L 1104.740942 101.564092 
L 1107.512924 109.668933 
L 1107.512924 109.668933 
" style="fill:none;stroke:#937252;stroke-linecap:square;stroke-width:2;"/>
   </g>
   <g id="line2d_19">
    <path clip-path="url(#p440ed1fb13)" d="M 264.83036 225.577688 
L 267.602343 228.96 
L 381.253609 228.96 
L 384.025591 217.511345 
L 386.797574 217.511345 
L 389.569556 208.020466 
L 400.657484 208.020466 
L 403.429466 215.307371 
L 406.201448 215.307371 
L 408.973431 228.96 
L 428.377305 228.96 
L 431.149287 225.577688 
L 442.237216 225.577688 
L 445.009198 222.594277 
L 447.78118 222.594277 
L 450.553162 225.577688 
L 461.641091 225.577688 
L 464.413073 228.96 
L 467.185055 228.96 
L 469.957037 219.925525 
L 472.729019 219.925525 
L 475.501001 209.655208 
L 478.272983 209.655208 
L 483.816948 206.484861 
L 486.58893 206.484861 
L 489.360912 211.402778 
L 492.132894 211.402778 
L 494.904876 222.594277 
L 497.676858 222.594277 
L 500.44884 225.577688 
L 503.220822 228.96 
L 522.624697 228.96 
L 525.396679 225.577688 
L 542.028572 225.577688 
L 544.800554 228.96 
L 547.572536 213.279912 
L 550.344518 213.279912 
L 553.116501 211.402778 
L 564.204429 211.402778 
L 566.976411 225.577688 
L 569.748393 225.577688 
L 572.520375 228.96 
L 575.292357 228.96 
L 578.06434 225.577688 
L 589.152268 225.577688 
L 591.92425 222.594277 
L 594.696232 217.511345 
L 597.468214 219.925525 
L 603.012179 219.925525 
L 605.784161 217.511345 
L 608.556143 197.750149 
L 611.328125 198.828172 
L 614.100107 201.132462 
L 616.872089 198.828172 
L 619.644071 188.927639 
L 622.416053 188.927639 
L 625.188036 189.683806 
L 627.960018 194.766738 
L 630.732 191.267429 
L 633.503982 185.452374 
L 636.275964 184.185624 
L 639.047946 187.479833 
L 641.819928 187.479833 
L 644.59191 185.452374 
L 650.135875 182.979219 
L 652.907857 181.82767 
L 655.679839 182.979219 
L 658.451821 184.811081 
L 661.223803 178.657323 
L 663.995785 177.682983 
L 666.767767 168.553103 
L 672.311732 161.856268 
L 675.083714 154.956083 
L 677.855696 150.176078 
L 680.627678 146.996242 
L 686.171642 143.792435 
L 688.943624 141.630294 
L 691.715606 138.090163 
L 694.487588 137.204763 
L 697.259571 137.108269 
L 700.031553 136.349269 
L 702.803535 135.162434 
L 705.575517 131.513958 
L 708.347499 129.226462 
L 711.119481 127.389678 
L 713.891463 126.235213 
L 716.663445 124.420854 
L 719.435428 124.479285 
L 722.20741 124.951647 
L 724.979392 125.011317 
L 727.751374 126.424007 
L 730.523356 127.324142 
L 733.295338 127.193576 
L 736.06732 127.193576 
L 738.839302 126.870076 
L 741.611284 124.65539 
L 744.383267 123.168343 
L 747.155249 119.890397 
L 749.927231 119.502937 
L 752.699213 117.874203 
L 755.471195 115.881438 
L 758.243177 115.468219 
L 761.015159 116.901564 
L 766.559124 115.509239 
L 772.103088 112.024502 
L 774.87507 111.98875 
L 777.647052 111.458451 
L 783.191016 107.305184 
L 788.73498 105.472631 
L 791.506963 105.307437 
L 794.278945 103.303209 
L 799.822909 102.406488 
L 802.594891 100.249465 
L 805.366873 97.504412 
L 808.138855 95.470749 
L 810.910837 92.940094 
L 813.682819 91.07379 
L 816.454802 88.445748 
L 819.226784 87.695389 
L 821.998766 85.796748 
L 824.770748 84.232765 
L 827.54273 83.111488 
L 830.314712 82.324089 
L 835.858676 82.092564 
L 838.630659 81.722144 
L 841.402641 81.603453 
L 844.174623 80.611246 
L 849.718587 78.421078 
L 852.490569 76.963779 
L 855.262551 76.440401 
L 858.034533 75.713431 
L 860.806515 72.369539 
L 863.578498 70.213584 
L 866.35048 68.379646 
L 869.122462 67.353302 
L 874.666426 65.668777 
L 877.438408 65.118171 
L 880.21039 63.147358 
L 882.982372 59.613552 
L 885.754355 57.79199 
L 888.526337 55.756769 
L 891.298319 54.086403 
L 894.070301 53.451468 
L 896.842283 52.584368 
L 899.614265 51.354885 
L 902.386247 49.768496 
L 905.158229 49.640166 
L 907.930211 48.490243 
L 910.702194 47.583419 
L 913.474176 47.237349 
L 916.246158 46.729667 
L 919.01814 45.157491 
L 921.790122 42.392912 
L 924.562104 41.766562 
L 930.106068 42.18089 
L 932.87805 41.47124 
L 935.650033 41.449173 
L 938.422015 41.844854 
L 941.193997 43.449444 
L 943.965979 42.766534 
L 946.737961 42.780478 
L 949.509943 42.344881 
L 952.281925 42.622891 
L 955.053907 42.258198 
L 957.82589 42.696928 
L 960.597872 44.094899 
L 968.913818 44.222542 
L 971.6858 44.107145 
L 974.457782 44.254554 
L 977.229764 43.581065 
L 980.001746 42.306065 
L 982.773729 42.130992 
L 985.545711 41.528702 
L 988.317693 41.218632 
L 993.861657 40.968519 
L 996.633639 40.47346 
L 999.405621 40.897201 
L 1004.949586 41.055235 
L 1007.721568 40.972848 
L 1010.49355 41.376491 
L 1013.265532 41.354508 
L 1016.037514 41.809033 
L 1018.809496 41.648464 
L 1021.581478 42.196787 
L 1024.35346 42.946071 
L 1027.125442 43.344638 
L 1029.897425 43.581065 
L 1032.669407 43.703727 
L 1035.441389 44.649388 
L 1038.213371 46.344099 
L 1040.985353 46.542891 
L 1043.757335 45.924802 
L 1046.529317 46.93152 
L 1049.301299 47.390264 
L 1052.073281 48.794965 
L 1054.845264 50.051891 
L 1057.617246 51.027628 
L 1060.389228 52.960294 
L 1063.16121 55.679284 
L 1068.705174 57.699653 
L 1071.477156 58.499784 
L 1074.249138 61.816704 
L 1079.793103 69.496018 
L 1082.565085 73.910751 
L 1085.337067 79.408452 
L 1088.109049 82.591306 
L 1090.881031 84.137406 
L 1093.653013 89.074026 
L 1096.424995 97.223636 
L 1104.740942 112.060303 
L 1107.512924 114.780858 
L 1110.284906 119.359154 
L 1113.056888 133.943588 
L 1115.82887 152.365389 
L 1118.600852 159.652294 
L 1118.600852 159.652294 
" style="fill:none;stroke:#d18cad;stroke-linecap:square;stroke-width:2;"/>
   </g>
   <g id="line2d_20">
    <path clip-path="url(#p440ed1fb13)" d="M 403.429466 225.577688 
L 406.201448 228.96 
L 469.957037 228.96 
L 472.729019 222.594277 
L 489.360912 222.594277 
L 492.132894 228.96 
L 547.572536 228.96 
L 550.344518 215.307371 
L 566.976411 215.307371 
L 569.748393 228.96 
L 633.503982 228.96 
L 636.275964 215.307371 
L 652.907857 215.307371 
L 655.679839 228.96 
L 658.451821 225.577688 
L 663.995785 225.577688 
L 666.767767 222.594277 
L 672.311732 222.594277 
L 675.083714 219.925525 
L 677.855696 222.594277 
L 680.627678 219.925525 
L 683.39966 219.925525 
L 686.171642 217.511345 
L 697.259571 217.511345 
L 700.031553 219.925525 
L 702.803535 219.925525 
L 705.575517 225.577688 
L 711.119481 225.577688 
L 713.891463 228.96 
L 716.663445 228.96 
L 719.435428 217.511345 
L 736.06732 217.511345 
L 738.839302 219.925525 
L 755.471195 219.925525 
L 758.243177 222.594277 
L 761.015159 222.594277 
L 763.787141 219.925525 
L 774.87507 219.925525 
L 777.647052 225.577688 
L 780.419034 225.577688 
L 783.191016 228.96 
L 785.962998 225.577688 
L 791.506963 225.577688 
L 794.278945 222.594277 
L 797.050927 222.594277 
L 799.822909 219.925525 
L 802.594891 215.307371 
L 805.366873 209.655208 
L 808.138855 208.020466 
L 810.910837 203.667547 
L 816.454802 203.667547 
L 819.226784 201.132462 
L 821.998766 201.132462 
L 824.770748 203.667547 
L 827.54273 199.954123 
L 830.314712 196.71614 
L 833.086694 197.750149 
L 835.858676 196.71614 
L 838.630659 199.954123 
L 841.402641 198.828172 
L 844.174623 198.828172 
L 846.946605 199.954123 
L 849.718587 205.037055 
L 852.490569 194.766738 
L 855.262551 188.193393 
L 858.034533 184.811081 
L 860.806515 169.228603 
L 863.578498 163.990559 
L 866.35048 160.608246 
L 869.122462 159.187516 
L 871.894444 158.061565 
L 874.666426 156.773336 
L 877.438408 157.409262 
L 880.21039 159.652294 
L 882.982372 158.505958 
L 885.754355 154.188457 
L 888.526337 149.381978 
L 891.298319 148.310471 
L 894.070301 148.01247 
L 896.842283 146.294543 
L 899.614265 143.918141 
L 902.386247 140.067613 
L 905.158229 137.692826 
L 907.930211 136.916376 
L 910.702194 136.442909 
L 916.246158 136.631235 
L 919.01814 135.978131 
L 921.790122 138.090163 
L 924.562104 141.061063 
L 927.334086 140.948736 
L 930.106068 139.216114 
L 932.87805 138.493833 
L 935.650033 136.536897 
L 938.422015 130.455249 
L 941.193997 127.389678 
L 943.965979 127.128545 
L 946.737961 127.521261 
L 949.509943 126.172593 
L 952.281925 125.554764 
L 955.053907 126.550655 
L 957.82589 128.18963 
L 960.597872 126.487252 
L 963.369854 123.730001 
L 966.141836 120.633257 
L 968.913818 118.885687 
L 971.6858 116.944974 
L 974.457782 114.542646 
L 977.229764 109.184602 
L 980.001746 105.834292 
L 982.773729 103.68642 
L 985.545711 101.09501 
L 988.317693 100.955963 
L 991.089675 101.730345 
L 993.861657 101.730345 
L 996.633639 103.151534 
L 999.405621 105.034485 
L 1002.177603 106.747173 
L 1004.949586 110.939026 
L 1007.721568 111.704543 
L 1010.49355 110.700226 
L 1013.265532 110.396468 
L 1016.037514 106.863632 
L 1018.809496 105.007351 
L 1021.581478 106.00297 
L 1024.35346 106.059446 
L 1027.125442 105.778315 
L 1029.897425 105.862327 
L 1032.669407 105.69458 
L 1035.441389 103.379389 
L 1038.213371 102.825987 
L 1040.985353 101.65896 
L 1043.757335 102.62771 
L 1046.529317 104.338275 
L 1049.301299 105.66673 
L 1052.073281 107.75457 
L 1054.845264 122.892117 
L 1057.617246 140.285037 
L 1060.389228 148.917199 
L 1063.16121 148.612018 
L 1065.933192 149.855444 
L 1068.705174 152.190096 
L 1071.477156 153.813195 
L 1074.249138 149.381978 
L 1077.021121 146.433337 
L 1079.793103 146.572895 
L 1082.565085 150.500822 
L 1085.337067 153.078949 
L 1088.109049 154.188457 
L 1090.881031 155.949533 
L 1093.653013 166.321371 
L 1096.424995 174.966484 
L 1099.196977 186.785824 
L 1101.96896 188.927639 
L 1101.96896 188.927639 
" style="fill:none;stroke:#a4a86f;stroke-linecap:square;stroke-width:2;"/>
   </g>
   <g id="line2d_21">
    <path clip-path="url(#p440ed1fb13)" d="M 397.885502 225.577688 
L 400.657484 228.96 
L 456.097126 228.96 
L 458.869109 219.925525 
L 461.641091 213.279912 
L 464.413073 208.020466 
L 475.501001 208.020466 
L 478.272983 213.279912 
L 481.044966 219.925525 
L 483.816948 228.96 
L 572.520375 228.96 
L 575.292357 225.577688 
L 578.06434 222.594277 
L 591.92425 222.594277 
L 594.696232 225.577688 
L 597.468214 228.96 
L 627.960018 228.96 
L 630.732 225.577688 
L 633.503982 222.594277 
L 639.047946 222.594277 
L 641.819928 219.925525 
L 644.59191 219.925525 
L 647.363893 217.511345 
L 650.135875 219.925525 
L 652.907857 222.594277 
L 658.451821 222.594277 
L 661.223803 225.577688 
L 663.995785 222.594277 
L 666.767767 225.577688 
L 669.539749 215.307371 
L 672.311732 213.279912 
L 675.083714 209.655208 
L 677.855696 209.655208 
L 680.627678 208.020466 
L 683.39966 208.020466 
L 686.171642 205.037055 
L 688.943624 209.655208 
L 691.715606 206.484861 
L 694.487588 202.368303 
L 697.259571 201.132462 
L 700.031553 201.132462 
L 702.803535 199.954123 
L 705.575517 196.71614 
L 708.347499 195.72269 
L 711.119481 196.71614 
L 713.891463 195.72269 
L 716.663445 196.71614 
L 719.435428 196.71614 
L 722.20741 198.828172 
L 727.751374 201.132462 
L 730.523356 201.132462 
L 733.295338 208.020466 
L 736.06732 208.020466 
L 738.839302 209.655208 
L 741.611284 209.655208 
L 744.383267 213.279912 
L 747.155249 208.020466 
L 749.927231 209.655208 
L 752.699213 206.484861 
L 755.471195 202.368303 
L 758.243177 202.368303 
L 761.015159 201.132462 
L 763.787141 194.766738 
L 766.559124 192.097986 
L 769.331106 188.927639 
L 772.103088 160.608246 
L 774.87507 159.887921 
L 780.419034 157.195508 
L 783.191016 157.195508 
L 785.962998 155.949533 
L 788.73498 155.15168 
L 791.506963 157.409262 
L 794.278945 152.365389 
L 797.050927 150.176078 
L 799.822909 149.226102 
L 802.594891 147.426786 
L 805.366873 143.295758 
L 808.138855 142.929539 
L 810.910837 148.460796 
L 813.682819 152.016008 
L 819.226784 155.15168 
L 821.998766 153.443412 
L 824.770748 155.15168 
L 827.54273 154.000131 
L 830.314712 150.995881 
L 833.086694 147.138945 
L 835.858676 146.019218 
L 838.630659 144.044474 
L 841.402641 146.572895 
L 844.174623 146.854339 
L 846.946605 144.427298 
L 849.718587 143.419017 
L 852.490569 145.477385 
L 855.262551 144.815997 
L 858.034533 143.051024 
L 860.806515 139.42632 
L 863.578498 139.744937 
L 866.35048 136.820972 
L 869.122462 137.398861 
L 871.894444 136.725926 
L 874.666426 136.255973 
L 877.438408 136.725926 
L 880.21039 134.458786 
L 882.982372 134.458786 
L 885.754355 134.632874 
L 888.526337 134.114159 
L 891.298319 131.359977 
L 896.842283 130.087612 
L 899.614265 132.298222 
L 902.386247 131.66888 
L 905.158229 132.9436 
L 907.930211 132.139415 
L 910.702194 132.9436 
L 913.474176 135.073402 
L 916.246158 137.496471 
L 919.01814 137.496471 
L 921.790122 132.298222 
L 924.562104 133.689865 
L 927.334086 135.978131 
L 930.106068 138.090163 
L 932.87805 137.496471 
L 935.650033 137.890716 
L 938.422015 136.631235 
L 941.193997 140.948736 
L 943.965979 139.320999 
L 946.737961 138.800863 
L 949.509943 136.442909 
L 955.053907 137.108269 
L 957.82589 139.42632 
L 960.597872 134.720369 
L 963.369854 138.190479 
L 966.141836 140.836905 
L 968.913818 146.019218 
L 971.6858 147.571943 
L 974.457782 148.161032 
L 977.229764 150.33793 
L 980.001746 152.190096 
L 982.773729 151.671381 
L 985.545711 150.015254 
L 988.317693 149.696637 
L 993.861657 149.381978 
L 996.633639 150.500822 
L 999.405621 154.378194 
L 1002.177603 153.813195 
L 1004.949586 156.152985 
L 1007.721568 156.56486 
L 1010.49355 156.152985 
L 1013.265532 156.358085 
L 1016.037514 153.627629 
L 1018.809496 157.842259 
L 1021.581478 152.898666 
L 1024.35346 152.898666 
L 1027.125442 154.188457 
L 1029.897425 155.15168 
L 1032.669407 154.761985 
L 1035.441389 158.505958 
L 1038.213371 172.906022 
L 1040.985353 196.71614 
L 1043.757335 198.828172 
L 1046.529317 201.132462 
L 1049.301299 202.368303 
L 1052.073281 201.132462 
L 1054.845264 203.667547 
L 1057.617246 205.037055 
L 1060.389228 205.037055 
L 1063.16121 213.279912 
L 1068.705174 213.279912 
L 1071.477156 217.511345 
L 1071.477156 217.511345 
" style="fill:none;stroke:#d3d3d3;stroke-linecap:square;stroke-width:2;"/>
   </g>
   <g id="patch_3">
    <path d="M 53.328125 228.96 
L 53.328125 7.2 
" style="fill:none;stroke:#000000;stroke-linecap:square;stroke-linejoin:miter;stroke-width:0.8;"/>
   </g>
   <g id="patch_4">
    <path d="M 53.328125 228.96 
L 1169.328125 228.96 
" style="fill:none;stroke:#000000;stroke-linecap:square;stroke-linejoin:miter;stroke-width:0.8;"/>
   </g>
   <g id="legend_1">
    <g id="line2d_22">
     <path d="M 60.528125 17.67875 
L 76.528125 17.67875 
" style="fill:none;stroke:#947383;stroke-linecap:square;stroke-width:2;"/>
    </g>
    <g id="line2d_23"/>
    <g id="text_17">
     <!-- Oceania -->
     <g transform="translate(82.928125 20.47875)scale(0.08 -0.08)">
      <defs>
       <path d="M 2522 4238 
Q 1834 4238 1429 3725 
Q 1025 3213 1025 2328 
Q 1025 1447 1429 934 
Q 1834 422 2522 422 
Q 3209 422 3611 934 
Q 4013 1447 4013 2328 
Q 4013 3213 3611 3725 
Q 3209 4238 2522 4238 
z
M 2522 4750 
Q 3503 4750 4090 4092 
Q 4678 3434 4678 2328 
Q 4678 1225 4090 567 
Q 3503 -91 2522 -91 
Q 1538 -91 948 565 
Q 359 1222 359 2328 
Q 359 3434 948 4092 
Q 1538 4750 2522 4750 
z
" id="DejaVuSans-4f" transform="scale(0.015625)"/>
       <path d="M 3122 3366 
L 3122 2828 
Q 2878 2963 2633 3030 
Q 2388 3097 2138 3097 
Q 1578 3097 1268 2742 
Q 959 2388 959 1747 
Q 959 1106 1268 751 
Q 1578 397 2138 397 
Q 2388 397 2633 464 
Q 2878 531 3122 666 
L 3122 134 
Q 2881 22 2623 -34 
Q 2366 -91 2075 -91 
Q 1284 -91 818 406 
Q 353 903 353 1747 
Q 353 2603 823 3093 
Q 1294 3584 2113 3584 
Q 2378 3584 2631 3529 
Q 2884 3475 3122 3366 
z
" id="DejaVuSans-63" transform="scale(0.015625)"/>
      </defs>
      <use xlink:href="#DejaVuSans-4f"/>
      <use x="78.710938" xlink:href="#DejaVuSans-63"/>
      <use x="133.691406" xlink:href="#DejaVuSans-65"/>
      <use x="195.214844" xlink:href="#DejaVuSans-61"/>
      <use x="256.494141" xlink:href="#DejaVuSans-6e"/>
      <use x="319.873047" xlink:href="#DejaVuSans-69"/>
      <use x="347.65625" xlink:href="#DejaVuSans-61"/>
     </g>
    </g>
    <g id="line2d_24">
     <path d="M 60.528125 29.42125 
L 76.528125 29.42125 
" style="fill:none;stroke:#96c6ad;stroke-linecap:square;stroke-width:2;"/>
    </g>
    <g id="line2d_25"/>
    <g id="text_18">
     <!-- Asia -->
     <g transform="translate(82.928125 32.22125)scale(0.08 -0.08)">
      <defs>
       <path d="M 2188 4044 
L 1331 1722 
L 3047 1722 
L 2188 4044 
z
M 1831 4666 
L 2547 4666 
L 4325 0 
L 3669 0 
L 3244 1197 
L 1141 1197 
L 716 0 
L 50 0 
L 1831 4666 
z
" id="DejaVuSans-41" transform="scale(0.015625)"/>
       <path d="M 2834 3397 
L 2834 2853 
Q 2591 2978 2328 3040 
Q 2066 3103 1784 3103 
Q 1356 3103 1142 2972 
Q 928 2841 928 2578 
Q 928 2378 1081 2264 
Q 1234 2150 1697 2047 
L 1894 2003 
Q 2506 1872 2764 1633 
Q 3022 1394 3022 966 
Q 3022 478 2636 193 
Q 2250 -91 1575 -91 
Q 1294 -91 989 -36 
Q 684 19 347 128 
L 347 722 
Q 666 556 975 473 
Q 1284 391 1588 391 
Q 1994 391 2212 530 
Q 2431 669 2431 922 
Q 2431 1156 2273 1281 
Q 2116 1406 1581 1522 
L 1381 1569 
Q 847 1681 609 1914 
Q 372 2147 372 2553 
Q 372 3047 722 3315 
Q 1072 3584 1716 3584 
Q 2034 3584 2315 3537 
Q 2597 3491 2834 3397 
z
" id="DejaVuSans-73" transform="scale(0.015625)"/>
      </defs>
      <use xlink:href="#DejaVuSans-41"/>
      <use x="68.408203" xlink:href="#DejaVuSans-73"/>
      <use x="120.507812" xlink:href="#DejaVuSans-69"/>
      <use x="148.291016" xlink:href="#DejaVuSans-61"/>
     </g>
    </g>
    <g id="line2d_26">
     <path d="M 60.528125 41.16375 
L 76.528125 41.16375 
" style="fill:none;stroke:#525886;stroke-linecap:square;stroke-width:2;"/>
    </g>
    <g id="line2d_27"/>
    <g id="text_19">
     <!-- North America -->
     <g transform="translate(82.928125 43.96375)scale(0.08 -0.08)">
      <defs>
       <path d="M 628 4666 
L 1478 4666 
L 3547 763 
L 3547 4666 
L 4159 4666 
L 4159 0 
L 3309 0 
L 1241 3903 
L 1241 0 
L 628 0 
L 628 4666 
z
" id="DejaVuSans-4e" transform="scale(0.015625)"/>
       <path d="M 3513 2113 
L 3513 0 
L 2938 0 
L 2938 2094 
Q 2938 2591 2744 2837 
Q 2550 3084 2163 3084 
Q 1697 3084 1428 2787 
Q 1159 2491 1159 1978 
L 1159 0 
L 581 0 
L 581 4863 
L 1159 4863 
L 1159 2956 
Q 1366 3272 1645 3428 
Q 1925 3584 2291 3584 
Q 2894 3584 3203 3211 
Q 3513 2838 3513 2113 
z
" id="DejaVuSans-68" transform="scale(0.015625)"/>
       <path d="M 3328 2828 
Q 3544 3216 3844 3400 
Q 4144 3584 4550 3584 
Q 5097 3584 5394 3201 
Q 5691 2819 5691 2113 
L 5691 0 
L 5113 0 
L 5113 2094 
Q 5113 2597 4934 2840 
Q 4756 3084 4391 3084 
Q 3944 3084 3684 2787 
Q 3425 2491 3425 1978 
L 3425 0 
L 2847 0 
L 2847 2094 
Q 2847 2600 2669 2842 
Q 2491 3084 2119 3084 
Q 1678 3084 1418 2786 
Q 1159 2488 1159 1978 
L 1159 0 
L 581 0 
L 581 3500 
L 1159 3500 
L 1159 2956 
Q 1356 3278 1631 3431 
Q 1906 3584 2284 3584 
Q 2666 3584 2933 3390 
Q 3200 3197 3328 2828 
z
" id="DejaVuSans-6d" transform="scale(0.015625)"/>
      </defs>
      <use xlink:href="#DejaVuSans-4e"/>
      <use x="74.804688" xlink:href="#DejaVuSans-6f"/>
      <use x="135.986328" xlink:href="#DejaVuSans-72"/>
      <use x="177.099609" xlink:href="#DejaVuSans-74"/>
      <use x="216.308594" xlink:href="#DejaVuSans-68"/>
      <use x="279.6875" xlink:href="#DejaVuSans-20"/>
      <use x="311.474609" xlink:href="#DejaVuSans-41"/>
      <use x="379.882812" xlink:href="#DejaVuSans-6d"/>
      <use x="477.294922" xlink:href="#DejaVuSans-65"/>
      <use x="538.818359" xlink:href="#DejaVuSans-72"/>
      <use x="579.931641" xlink:href="#DejaVuSans-69"/>
      <use x="607.714844" xlink:href="#DejaVuSans-63"/>
      <use x="662.695312" xlink:href="#DejaVuSans-61"/>
     </g>
    </g>
    <g id="line2d_28">
     <path d="M 60.528125 52.90625 
L 76.528125 52.90625 
" style="fill:none;stroke:#937252;stroke-linecap:square;stroke-width:2;"/>
    </g>
    <g id="line2d_29"/>
    <g id="text_20">
     <!-- United Kingdom -->
     <g transform="translate(82.928125 55.70625)scale(0.08 -0.08)">
      <defs>
       <path d="M 556 4666 
L 1191 4666 
L 1191 1831 
Q 1191 1081 1462 751 
Q 1734 422 2344 422 
Q 2950 422 3222 751 
Q 3494 1081 3494 1831 
L 3494 4666 
L 4128 4666 
L 4128 1753 
Q 4128 841 3676 375 
Q 3225 -91 2344 -91 
Q 1459 -91 1007 375 
Q 556 841 556 1753 
L 556 4666 
z
" id="DejaVuSans-55" transform="scale(0.015625)"/>
       <path d="M 628 4666 
L 1259 4666 
L 1259 2694 
L 3353 4666 
L 4166 4666 
L 1850 2491 
L 4331 0 
L 3500 0 
L 1259 2247 
L 1259 0 
L 628 0 
L 628 4666 
z
" id="DejaVuSans-4b" transform="scale(0.015625)"/>
      </defs>
      <use xlink:href="#DejaVuSans-55"/>
      <use x="73.193359" xlink:href="#DejaVuSans-6e"/>
      <use x="136.572266" xlink:href="#DejaVuSans-69"/>
      <use x="164.355469" xlink:href="#DejaVuSans-74"/>
      <use x="203.564453" xlink:href="#DejaVuSans-65"/>
      <use x="265.087891" xlink:href="#DejaVuSans-64"/>
      <use x="328.564453" xlink:href="#DejaVuSans-20"/>
      <use x="360.351562" xlink:href="#DejaVuSans-4b"/>
      <use x="425.927734" xlink:href="#DejaVuSans-69"/>
      <use x="453.710938" xlink:href="#DejaVuSans-6e"/>
      <use x="517.089844" xlink:href="#DejaVuSans-67"/>
      <use x="580.566406" xlink:href="#DejaVuSans-64"/>
      <use x="644.042969" xlink:href="#DejaVuSans-6f"/>
      <use x="705.224609" xlink:href="#DejaVuSans-6d"/>
     </g>
    </g>
    <g id="line2d_30">
     <path d="M 60.528125 64.64875 
L 76.528125 64.64875 
" style="fill:none;stroke:#d18cad;stroke-linecap:square;stroke-width:2;"/>
    </g>
    <g id="line2d_31"/>
    <g id="text_21">
     <!-- Europe -->
     <g transform="translate(82.928125 67.44875)scale(0.08 -0.08)">
      <defs>
       <path d="M 628 4666 
L 3578 4666 
L 3578 4134 
L 1259 4134 
L 1259 2753 
L 3481 2753 
L 3481 2222 
L 1259 2222 
L 1259 531 
L 3634 531 
L 3634 0 
L 628 0 
L 628 4666 
z
" id="DejaVuSans-45" transform="scale(0.015625)"/>
       <path d="M 1159 525 
L 1159 -1331 
L 581 -1331 
L 581 3500 
L 1159 3500 
L 1159 2969 
Q 1341 3281 1617 3432 
Q 1894 3584 2278 3584 
Q 2916 3584 3314 3078 
Q 3713 2572 3713 1747 
Q 3713 922 3314 415 
Q 2916 -91 2278 -91 
Q 1894 -91 1617 61 
Q 1341 213 1159 525 
z
M 3116 1747 
Q 3116 2381 2855 2742 
Q 2594 3103 2138 3103 
Q 1681 3103 1420 2742 
Q 1159 2381 1159 1747 
Q 1159 1113 1420 752 
Q 1681 391 2138 391 
Q 2594 391 2855 752 
Q 3116 1113 3116 1747 
z
" id="DejaVuSans-70" transform="scale(0.015625)"/>
      </defs>
      <use xlink:href="#DejaVuSans-45"/>
      <use x="63.183594" xlink:href="#DejaVuSans-75"/>
      <use x="126.5625" xlink:href="#DejaVuSans-72"/>
      <use x="165.425781" xlink:href="#DejaVuSans-6f"/>
      <use x="226.607422" xlink:href="#DejaVuSans-70"/>
      <use x="290.083984" xlink:href="#DejaVuSans-65"/>
     </g>
    </g>
    <g id="line2d_32">
     <path d="M 60.528125 76.39125 
L 76.528125 76.39125 
" style="fill:none;stroke:#a4a86f;stroke-linecap:square;stroke-width:2;"/>
    </g>
    <g id="line2d_33"/>
    <g id="text_22">
     <!-- South America -->
     <g transform="translate(82.928125 79.19125)scale(0.08 -0.08)">
      <defs>
       <path d="M 3425 4513 
L 3425 3897 
Q 3066 4069 2747 4153 
Q 2428 4238 2131 4238 
Q 1616 4238 1336 4038 
Q 1056 3838 1056 3469 
Q 1056 3159 1242 3001 
Q 1428 2844 1947 2747 
L 2328 2669 
Q 3034 2534 3370 2195 
Q 3706 1856 3706 1288 
Q 3706 609 3251 259 
Q 2797 -91 1919 -91 
Q 1588 -91 1214 -16 
Q 841 59 441 206 
L 441 856 
Q 825 641 1194 531 
Q 1563 422 1919 422 
Q 2459 422 2753 634 
Q 3047 847 3047 1241 
Q 3047 1584 2836 1778 
Q 2625 1972 2144 2069 
L 1759 2144 
Q 1053 2284 737 2584 
Q 422 2884 422 3419 
Q 422 4038 858 4394 
Q 1294 4750 2059 4750 
Q 2388 4750 2728 4690 
Q 3069 4631 3425 4513 
z
" id="DejaVuSans-53" transform="scale(0.015625)"/>
      </defs>
      <use xlink:href="#DejaVuSans-53"/>
      <use x="63.476562" xlink:href="#DejaVuSans-6f"/>
      <use x="124.658203" xlink:href="#DejaVuSans-75"/>
      <use x="188.037109" xlink:href="#DejaVuSans-74"/>
      <use x="227.246094" xlink:href="#DejaVuSans-68"/>
      <use x="290.625" xlink:href="#DejaVuSans-20"/>
      <use x="322.412109" xlink:href="#DejaVuSans-41"/>
      <use x="390.820312" xlink:href="#DejaVuSans-6d"/>
      <use x="488.232422" xlink:href="#DejaVuSans-65"/>
      <use x="549.755859" xlink:href="#DejaVuSans-72"/>
      <use x="590.869141" xlink:href="#DejaVuSans-69"/>
      <use x="618.652344" xlink:href="#DejaVuSans-63"/>
      <use x="673.632812" xlink:href="#DejaVuSans-61"/>
     </g>
    </g>
    <g id="line2d_34">
     <path d="M 60.528125 88.13375 
L 76.528125 88.13375 
" style="fill:none;stroke:#d3d3d3;stroke-linecap:square;stroke-width:2;"/>
    </g>
    <g id="line2d_35"/>
    <g id="text_23">
     <!-- Africa -->
     <g transform="translate(82.928125 90.93375)scale(0.08 -0.08)">
      <defs>
       <path d="M 2375 4863 
L 2375 4384 
L 1825 4384 
Q 1516 4384 1395 4259 
Q 1275 4134 1275 3809 
L 1275 3500 
L 2222 3500 
L 2222 3053 
L 1275 3053 
L 1275 0 
L 697 0 
L 697 3053 
L 147 3053 
L 147 3500 
L 697 3500 
L 697 3744 
Q 697 4328 969 4595 
Q 1241 4863 1831 4863 
L 2375 4863 
z
" id="DejaVuSans-66" transform="scale(0.015625)"/>
      </defs>
      <use xlink:href="#DejaVuSans-41"/>
      <use x="64.783203" xlink:href="#DejaVuSans-66"/>
      <use x="99.988281" xlink:href="#DejaVuSans-72"/>
      <use x="141.101562" xlink:href="#DejaVuSans-69"/>
      <use x="168.884766" xlink:href="#DejaVuSans-63"/>
      <use x="223.865234" xlink:href="#DejaVuSans-61"/>
     </g>
    </g>
   </g>
  </g>
 </g>
 <defs>
  <clipPath id="p440ed1fb13">
   <rect height="221.76" width="1116" x="53.328125" y="7.2"/>
  </clipPath>
 </defs>
</svg>
