<?xml version="1.0" encoding="utf-8" standalone="no"?>
<!DOCTYPE svg PUBLIC "-//W3C//DTD SVG 1.1//EN"
  "http://www.w3.org/Graphics/SVG/1.1/DTD/svg11.dtd">
<svg xmlns:xlink="http://www.w3.org/1999/xlink" width="1170.165625pt" height="298.620937pt" viewBox="0 0 1170.165625 298.620937" xmlns="http://www.w3.org/2000/svg" version="1.1">
 <metadata>
  <rdf:RDF xmlns:dc="http://purl.org/dc/elements/1.1/" xmlns:cc="http://creativecommons.org/ns#" xmlns:rdf="http://www.w3.org/1999/02/22-rdf-syntax-ns#">
   <cc:Work>
    <dc:type rdf:resource="http://purl.org/dc/dcmitype/StillImage"/>
    <dc:date>2022-06-12T17:37:57.643588</dc:date>
    <dc:format>image/svg+xml</dc:format>
    <dc:creator>
     <cc:Agent>
      <dc:title>Matplotlib v3.5.1, https://matplotlib.org/</dc:title>
     </cc:Agent>
    </dc:creator>
   </cc:Work>
  </rdf:RDF>
 </metadata>
 <defs>
  <style type="text/css">*{stroke-linejoin: round; stroke-linecap: butt}</style>
 </defs>
 <g id="figure_1">
  <g id="patch_1">
   <path d="M 0 298.620937 
L 1170.165625 298.620937 
L 1170.165625 0 
L 0 0 
z
" style="fill: #ffffff"/>
  </g>
  <g id="axes_1">
   <g id="patch_2">
    <path d="M 46.965625 228.96 
L 1162.965625 228.96 
L 1162.965625 7.2 
L 46.965625 7.2 
z
" style="fill: #ffffff"/>
   </g>
   <g id="matplotlib.axis_1">
    <g id="xtick_1">
     <g id="line2d_1">
      <defs>
       <path id="mecbc50f718" d="M 0 0 
L 0 3.5 
" style="stroke: #000000; stroke-width: 0.8"/>
      </defs>
      <g>
       <use xlink:href="#mecbc50f718" x="86.822768" y="228.96" style="stroke: #000000; stroke-width: 0.8"/>
      </g>
     </g>
     <g id="text_1">
      <!-- 2020-09 -->
      <g transform="translate(89.582143 277.742812)rotate(-90)scale(0.1 -0.1)">
       <defs>
        <path id="DejaVuSans-32" d="M 1228 531 
L 3431 531 
L 3431 0 
L 469 0 
L 469 531 
Q 828 903 1448 1529 
Q 2069 2156 2228 2338 
Q 2531 2678 2651 2914 
Q 2772 3150 2772 3378 
Q 2772 3750 2511 3984 
Q 2250 4219 1831 4219 
Q 1534 4219 1204 4116 
Q 875 4013 500 3803 
L 500 4441 
Q 881 4594 1212 4672 
Q 1544 4750 1819 4750 
Q 2544 4750 2975 4387 
Q 3406 4025 3406 3419 
Q 3406 3131 3298 2873 
Q 3191 2616 2906 2266 
Q 2828 2175 2409 1742 
Q 1991 1309 1228 531 
z
" transform="scale(0.015625)"/>
        <path id="DejaVuSans-30" d="M 2034 4250 
Q 1547 4250 1301 3770 
Q 1056 3291 1056 2328 
Q 1056 1369 1301 889 
Q 1547 409 2034 409 
Q 2525 409 2770 889 
Q 3016 1369 3016 2328 
Q 3016 3291 2770 3770 
Q 2525 4250 2034 4250 
z
M 2034 4750 
Q 2819 4750 3233 4129 
Q 3647 3509 3647 2328 
Q 3647 1150 3233 529 
Q 2819 -91 2034 -91 
Q 1250 -91 836 529 
Q 422 1150 422 2328 
Q 422 3509 836 4129 
Q 1250 4750 2034 4750 
z
" transform="scale(0.015625)"/>
        <path id="DejaVuSans-2d" d="M 313 2009 
L 1997 2009 
L 1997 1497 
L 313 1497 
L 313 2009 
z
" transform="scale(0.015625)"/>
        <path id="DejaVuSans-39" d="M 703 97 
L 703 672 
Q 941 559 1184 500 
Q 1428 441 1663 441 
Q 2288 441 2617 861 
Q 2947 1281 2994 2138 
Q 2813 1869 2534 1725 
Q 2256 1581 1919 1581 
Q 1219 1581 811 2004 
Q 403 2428 403 3163 
Q 403 3881 828 4315 
Q 1253 4750 1959 4750 
Q 2769 4750 3195 4129 
Q 3622 3509 3622 2328 
Q 3622 1225 3098 567 
Q 2575 -91 1691 -91 
Q 1453 -91 1209 -44 
Q 966 3 703 97 
z
M 1959 2075 
Q 2384 2075 2632 2365 
Q 2881 2656 2881 3163 
Q 2881 3666 2632 3958 
Q 2384 4250 1959 4250 
Q 1534 4250 1286 3958 
Q 1038 3666 1038 3163 
Q 1038 2656 1286 2365 
Q 1534 2075 1959 2075 
z
" transform="scale(0.015625)"/>
       </defs>
       <use xlink:href="#DejaVuSans-32"/>
       <use xlink:href="#DejaVuSans-30" x="63.623047"/>
       <use xlink:href="#DejaVuSans-32" x="127.246094"/>
       <use xlink:href="#DejaVuSans-30" x="190.869141"/>
       <use xlink:href="#DejaVuSans-2d" x="254.492188"/>
       <use xlink:href="#DejaVuSans-30" x="290.576172"/>
       <use xlink:href="#DejaVuSans-39" x="354.199219"/>
      </g>
     </g>
    </g>
    <g id="xtick_2">
     <g id="line2d_2">
      <g>
       <use xlink:href="#mecbc50f718" x="197.335755" y="228.96" style="stroke: #000000; stroke-width: 0.8"/>
      </g>
     </g>
     <g id="text_2">
      <!-- 2020-11 -->
      <g transform="translate(200.09513 277.742812)rotate(-90)scale(0.1 -0.1)">
       <defs>
        <path id="DejaVuSans-31" d="M 794 531 
L 1825 531 
L 1825 4091 
L 703 3866 
L 703 4441 
L 1819 4666 
L 2450 4666 
L 2450 531 
L 3481 531 
L 3481 0 
L 794 0 
L 794 531 
z
" transform="scale(0.015625)"/>
       </defs>
       <use xlink:href="#DejaVuSans-32"/>
       <use xlink:href="#DejaVuSans-30" x="63.623047"/>
       <use xlink:href="#DejaVuSans-32" x="127.246094"/>
       <use xlink:href="#DejaVuSans-30" x="190.869141"/>
       <use xlink:href="#DejaVuSans-2d" x="254.492188"/>
       <use xlink:href="#DejaVuSans-31" x="290.576172"/>
       <use xlink:href="#DejaVuSans-31" x="354.199219"/>
      </g>
     </g>
    </g>
    <g id="xtick_3">
     <g id="line2d_3">
      <g>
       <use xlink:href="#mecbc50f718" x="307.848742" y="228.96" style="stroke: #000000; stroke-width: 0.8"/>
      </g>
     </g>
     <g id="text_3">
      <!-- 2021-01 -->
      <g transform="translate(310.608117 277.742812)rotate(-90)scale(0.1 -0.1)">
       <use xlink:href="#DejaVuSans-32"/>
       <use xlink:href="#DejaVuSans-30" x="63.623047"/>
       <use xlink:href="#DejaVuSans-32" x="127.246094"/>
       <use xlink:href="#DejaVuSans-31" x="190.869141"/>
       <use xlink:href="#DejaVuSans-2d" x="254.492188"/>
       <use xlink:href="#DejaVuSans-30" x="290.576172"/>
       <use xlink:href="#DejaVuSans-31" x="354.199219"/>
      </g>
     </g>
    </g>
    <g id="xtick_4">
     <g id="line2d_4">
      <g>
       <use xlink:href="#mecbc50f718" x="414.738352" y="228.96" style="stroke: #000000; stroke-width: 0.8"/>
      </g>
     </g>
     <g id="text_4">
      <!-- 2021-03 -->
      <g transform="translate(417.497727 277.742812)rotate(-90)scale(0.1 -0.1)">
       <defs>
        <path id="DejaVuSans-33" d="M 2597 2516 
Q 3050 2419 3304 2112 
Q 3559 1806 3559 1356 
Q 3559 666 3084 287 
Q 2609 -91 1734 -91 
Q 1441 -91 1130 -33 
Q 819 25 488 141 
L 488 750 
Q 750 597 1062 519 
Q 1375 441 1716 441 
Q 2309 441 2620 675 
Q 2931 909 2931 1356 
Q 2931 1769 2642 2001 
Q 2353 2234 1838 2234 
L 1294 2234 
L 1294 2753 
L 1863 2753 
Q 2328 2753 2575 2939 
Q 2822 3125 2822 3475 
Q 2822 3834 2567 4026 
Q 2313 4219 1838 4219 
Q 1578 4219 1281 4162 
Q 984 4106 628 3988 
L 628 4550 
Q 988 4650 1302 4700 
Q 1616 4750 1894 4750 
Q 2613 4750 3031 4423 
Q 3450 4097 3450 3541 
Q 3450 3153 3228 2886 
Q 3006 2619 2597 2516 
z
" transform="scale(0.015625)"/>
       </defs>
       <use xlink:href="#DejaVuSans-32"/>
       <use xlink:href="#DejaVuSans-30" x="63.623047"/>
       <use xlink:href="#DejaVuSans-32" x="127.246094"/>
       <use xlink:href="#DejaVuSans-31" x="190.869141"/>
       <use xlink:href="#DejaVuSans-2d" x="254.492188"/>
       <use xlink:href="#DejaVuSans-30" x="290.576172"/>
       <use xlink:href="#DejaVuSans-33" x="354.199219"/>
      </g>
     </g>
    </g>
    <g id="xtick_5">
     <g id="line2d_5">
      <g>
       <use xlink:href="#mecbc50f718" x="525.251339" y="228.96" style="stroke: #000000; stroke-width: 0.8"/>
      </g>
     </g>
     <g id="text_5">
      <!-- 2021-05 -->
      <g transform="translate(528.010714 277.742812)rotate(-90)scale(0.1 -0.1)">
       <defs>
        <path id="DejaVuSans-35" d="M 691 4666 
L 3169 4666 
L 3169 4134 
L 1269 4134 
L 1269 2991 
Q 1406 3038 1543 3061 
Q 1681 3084 1819 3084 
Q 2600 3084 3056 2656 
Q 3513 2228 3513 1497 
Q 3513 744 3044 326 
Q 2575 -91 1722 -91 
Q 1428 -91 1123 -41 
Q 819 9 494 109 
L 494 744 
Q 775 591 1075 516 
Q 1375 441 1709 441 
Q 2250 441 2565 725 
Q 2881 1009 2881 1497 
Q 2881 1984 2565 2268 
Q 2250 2553 1709 2553 
Q 1456 2553 1204 2497 
Q 953 2441 691 2322 
L 691 4666 
z
" transform="scale(0.015625)"/>
       </defs>
       <use xlink:href="#DejaVuSans-32"/>
       <use xlink:href="#DejaVuSans-30" x="63.623047"/>
       <use xlink:href="#DejaVuSans-32" x="127.246094"/>
       <use xlink:href="#DejaVuSans-31" x="190.869141"/>
       <use xlink:href="#DejaVuSans-2d" x="254.492188"/>
       <use xlink:href="#DejaVuSans-30" x="290.576172"/>
       <use xlink:href="#DejaVuSans-35" x="354.199219"/>
      </g>
     </g>
    </g>
    <g id="xtick_6">
     <g id="line2d_6">
      <g>
       <use xlink:href="#mecbc50f718" x="635.764326" y="228.96" style="stroke: #000000; stroke-width: 0.8"/>
      </g>
     </g>
     <g id="text_6">
      <!-- 2021-07 -->
      <g transform="translate(638.523701 277.742812)rotate(-90)scale(0.1 -0.1)">
       <defs>
        <path id="DejaVuSans-37" d="M 525 4666 
L 3525 4666 
L 3525 4397 
L 1831 0 
L 1172 0 
L 2766 4134 
L 525 4134 
L 525 4666 
z
" transform="scale(0.015625)"/>
       </defs>
       <use xlink:href="#DejaVuSans-32"/>
       <use xlink:href="#DejaVuSans-30" x="63.623047"/>
       <use xlink:href="#DejaVuSans-32" x="127.246094"/>
       <use xlink:href="#DejaVuSans-31" x="190.869141"/>
       <use xlink:href="#DejaVuSans-2d" x="254.492188"/>
       <use xlink:href="#DejaVuSans-30" x="290.576172"/>
       <use xlink:href="#DejaVuSans-37" x="354.199219"/>
      </g>
     </g>
    </g>
    <g id="xtick_7">
     <g id="line2d_7">
      <g>
       <use xlink:href="#mecbc50f718" x="748.089002" y="228.96" style="stroke: #000000; stroke-width: 0.8"/>
      </g>
     </g>
     <g id="text_7">
      <!-- 2021-09 -->
      <g transform="translate(750.848377 277.742812)rotate(-90)scale(0.1 -0.1)">
       <use xlink:href="#DejaVuSans-32"/>
       <use xlink:href="#DejaVuSans-30" x="63.623047"/>
       <use xlink:href="#DejaVuSans-32" x="127.246094"/>
       <use xlink:href="#DejaVuSans-31" x="190.869141"/>
       <use xlink:href="#DejaVuSans-2d" x="254.492188"/>
       <use xlink:href="#DejaVuSans-30" x="290.576172"/>
       <use xlink:href="#DejaVuSans-39" x="354.199219"/>
      </g>
     </g>
    </g>
    <g id="xtick_8">
     <g id="line2d_8">
      <g>
       <use xlink:href="#mecbc50f718" x="858.601989" y="228.96" style="stroke: #000000; stroke-width: 0.8"/>
      </g>
     </g>
     <g id="text_8">
      <!-- 2021-11 -->
      <g transform="translate(861.361364 277.742812)rotate(-90)scale(0.1 -0.1)">
       <use xlink:href="#DejaVuSans-32"/>
       <use xlink:href="#DejaVuSans-30" x="63.623047"/>
       <use xlink:href="#DejaVuSans-32" x="127.246094"/>
       <use xlink:href="#DejaVuSans-31" x="190.869141"/>
       <use xlink:href="#DejaVuSans-2d" x="254.492188"/>
       <use xlink:href="#DejaVuSans-31" x="290.576172"/>
       <use xlink:href="#DejaVuSans-31" x="354.199219"/>
      </g>
     </g>
    </g>
    <g id="xtick_9">
     <g id="line2d_9">
      <g>
       <use xlink:href="#mecbc50f718" x="969.114976" y="228.96" style="stroke: #000000; stroke-width: 0.8"/>
      </g>
     </g>
     <g id="text_9">
      <!-- 2022-01 -->
      <g transform="translate(971.874351 277.742812)rotate(-90)scale(0.1 -0.1)">
       <use xlink:href="#DejaVuSans-32"/>
       <use xlink:href="#DejaVuSans-30" x="63.623047"/>
       <use xlink:href="#DejaVuSans-32" x="127.246094"/>
       <use xlink:href="#DejaVuSans-32" x="190.869141"/>
       <use xlink:href="#DejaVuSans-2d" x="254.492188"/>
       <use xlink:href="#DejaVuSans-30" x="290.576172"/>
       <use xlink:href="#DejaVuSans-31" x="354.199219"/>
      </g>
     </g>
    </g>
    <g id="xtick_10">
     <g id="line2d_10">
      <g>
       <use xlink:href="#mecbc50f718" x="1076.004586" y="228.96" style="stroke: #000000; stroke-width: 0.8"/>
      </g>
     </g>
     <g id="text_10">
      <!-- 2022-03 -->
      <g transform="translate(1078.763961 277.742812)rotate(-90)scale(0.1 -0.1)">
       <use xlink:href="#DejaVuSans-32"/>
       <use xlink:href="#DejaVuSans-30" x="63.623047"/>
       <use xlink:href="#DejaVuSans-32" x="127.246094"/>
       <use xlink:href="#DejaVuSans-32" x="190.869141"/>
       <use xlink:href="#DejaVuSans-2d" x="254.492188"/>
       <use xlink:href="#DejaVuSans-30" x="290.576172"/>
       <use xlink:href="#DejaVuSans-33" x="354.199219"/>
      </g>
     </g>
    </g>
    <g id="text_11">
     <!-- Date -->
     <g transform="translate(593.014844 289.34125)scale(0.1 -0.1)">
      <defs>
       <path id="DejaVuSans-44" d="M 1259 4147 
L 1259 519 
L 2022 519 
Q 2988 519 3436 956 
Q 3884 1394 3884 2338 
Q 3884 3275 3436 3711 
Q 2988 4147 2022 4147 
L 1259 4147 
z
M 628 4666 
L 1925 4666 
Q 3281 4666 3915 4102 
Q 4550 3538 4550 2338 
Q 4550 1131 3912 565 
Q 3275 0 1925 0 
L 628 0 
L 628 4666 
z
" transform="scale(0.015625)"/>
       <path id="DejaVuSans-61" d="M 2194 1759 
Q 1497 1759 1228 1600 
Q 959 1441 959 1056 
Q 959 750 1161 570 
Q 1363 391 1709 391 
Q 2188 391 2477 730 
Q 2766 1069 2766 1631 
L 2766 1759 
L 2194 1759 
z
M 3341 1997 
L 3341 0 
L 2766 0 
L 2766 531 
Q 2569 213 2275 61 
Q 1981 -91 1556 -91 
Q 1019 -91 701 211 
Q 384 513 384 1019 
Q 384 1609 779 1909 
Q 1175 2209 1959 2209 
L 2766 2209 
L 2766 2266 
Q 2766 2663 2505 2880 
Q 2244 3097 1772 3097 
Q 1472 3097 1187 3025 
Q 903 2953 641 2809 
L 641 3341 
Q 956 3463 1253 3523 
Q 1550 3584 1831 3584 
Q 2591 3584 2966 3190 
Q 3341 2797 3341 1997 
z
" transform="scale(0.015625)"/>
       <path id="DejaVuSans-74" d="M 1172 4494 
L 1172 3500 
L 2356 3500 
L 2356 3053 
L 1172 3053 
L 1172 1153 
Q 1172 725 1289 603 
Q 1406 481 1766 481 
L 2356 481 
L 2356 0 
L 1766 0 
Q 1100 0 847 248 
Q 594 497 594 1153 
L 594 3053 
L 172 3053 
L 172 3500 
L 594 3500 
L 594 4494 
L 1172 4494 
z
" transform="scale(0.015625)"/>
       <path id="DejaVuSans-65" d="M 3597 1894 
L 3597 1613 
L 953 1613 
Q 991 1019 1311 708 
Q 1631 397 2203 397 
Q 2534 397 2845 478 
Q 3156 559 3463 722 
L 3463 178 
Q 3153 47 2828 -22 
Q 2503 -91 2169 -91 
Q 1331 -91 842 396 
Q 353 884 353 1716 
Q 353 2575 817 3079 
Q 1281 3584 2069 3584 
Q 2775 3584 3186 3129 
Q 3597 2675 3597 1894 
z
M 3022 2063 
Q 3016 2534 2758 2815 
Q 2500 3097 2075 3097 
Q 1594 3097 1305 2825 
Q 1016 2553 972 2059 
L 3022 2063 
z
" transform="scale(0.015625)"/>
      </defs>
      <use xlink:href="#DejaVuSans-44"/>
      <use xlink:href="#DejaVuSans-61" x="77.001953"/>
      <use xlink:href="#DejaVuSans-74" x="138.28125"/>
      <use xlink:href="#DejaVuSans-65" x="177.490234"/>
     </g>
    </g>
   </g>
   <g id="matplotlib.axis_2">
    <g id="ytick_1">
     <g id="line2d_11">
      <defs>
       <path id="m21c379416b" d="M 0 0 
L -3.5 0 
" style="stroke: #000000; stroke-width: 0.8"/>
      </defs>
      <g>
       <use xlink:href="#m21c379416b" x="46.965625" y="228.96" style="stroke: #000000; stroke-width: 0.8"/>
      </g>
     </g>
     <g id="text_12">
      <!-- 1 -->
      <g transform="translate(33.603125 232.759219)scale(0.1 -0.1)">
       <use xlink:href="#DejaVuSans-31"/>
      </g>
     </g>
    </g>
    <g id="ytick_2">
     <g id="line2d_12">
      <g>
       <use xlink:href="#m21c379416b" x="46.965625" y="182.585588" style="stroke: #000000; stroke-width: 0.8"/>
      </g>
     </g>
     <g id="text_13">
      <!-- 3 -->
      <g transform="translate(33.603125 186.384807)scale(0.1 -0.1)">
       <use xlink:href="#DejaVuSans-33"/>
      </g>
     </g>
    </g>
    <g id="ytick_3">
     <g id="line2d_13">
      <g>
       <use xlink:href="#m21c379416b" x="46.965625" y="136.211177" style="stroke: #000000; stroke-width: 0.8"/>
      </g>
     </g>
     <g id="text_14">
      <!-- 10 -->
      <g transform="translate(27.240625 140.010395)scale(0.1 -0.1)">
       <use xlink:href="#DejaVuSans-31"/>
       <use xlink:href="#DejaVuSans-30" x="63.623047"/>
      </g>
     </g>
    </g>
    <g id="ytick_4">
     <g id="line2d_14">
      <g>
       <use xlink:href="#m21c379416b" x="46.965625" y="89.836765" style="stroke: #000000; stroke-width: 0.8"/>
      </g>
     </g>
     <g id="text_15">
      <!-- 31 -->
      <g transform="translate(27.240625 93.635984)scale(0.1 -0.1)">
       <use xlink:href="#DejaVuSans-33"/>
       <use xlink:href="#DejaVuSans-31" x="63.623047"/>
      </g>
     </g>
    </g>
    <g id="ytick_5">
     <g id="line2d_15">
      <g>
       <use xlink:href="#m21c379416b" x="46.965625" y="43.462353" style="stroke: #000000; stroke-width: 0.8"/>
      </g>
     </g>
     <g id="text_16">
      <!-- 100 -->
      <g transform="translate(20.878125 47.261572)scale(0.1 -0.1)">
       <use xlink:href="#DejaVuSans-31"/>
       <use xlink:href="#DejaVuSans-30" x="63.623047"/>
       <use xlink:href="#DejaVuSans-30" x="127.246094"/>
      </g>
     </g>
    </g>
    <g id="text_17">
     <!-- Count (7 day rolling average) -->
     <g transform="translate(14.798438 191.547969)rotate(-90)scale(0.1 -0.1)">
      <defs>
       <path id="DejaVuSans-43" d="M 4122 4306 
L 4122 3641 
Q 3803 3938 3442 4084 
Q 3081 4231 2675 4231 
Q 1875 4231 1450 3742 
Q 1025 3253 1025 2328 
Q 1025 1406 1450 917 
Q 1875 428 2675 428 
Q 3081 428 3442 575 
Q 3803 722 4122 1019 
L 4122 359 
Q 3791 134 3420 21 
Q 3050 -91 2638 -91 
Q 1578 -91 968 557 
Q 359 1206 359 2328 
Q 359 3453 968 4101 
Q 1578 4750 2638 4750 
Q 3056 4750 3426 4639 
Q 3797 4528 4122 4306 
z
" transform="scale(0.015625)"/>
       <path id="DejaVuSans-6f" d="M 1959 3097 
Q 1497 3097 1228 2736 
Q 959 2375 959 1747 
Q 959 1119 1226 758 
Q 1494 397 1959 397 
Q 2419 397 2687 759 
Q 2956 1122 2956 1747 
Q 2956 2369 2687 2733 
Q 2419 3097 1959 3097 
z
M 1959 3584 
Q 2709 3584 3137 3096 
Q 3566 2609 3566 1747 
Q 3566 888 3137 398 
Q 2709 -91 1959 -91 
Q 1206 -91 779 398 
Q 353 888 353 1747 
Q 353 2609 779 3096 
Q 1206 3584 1959 3584 
z
" transform="scale(0.015625)"/>
       <path id="DejaVuSans-75" d="M 544 1381 
L 544 3500 
L 1119 3500 
L 1119 1403 
Q 1119 906 1312 657 
Q 1506 409 1894 409 
Q 2359 409 2629 706 
Q 2900 1003 2900 1516 
L 2900 3500 
L 3475 3500 
L 3475 0 
L 2900 0 
L 2900 538 
Q 2691 219 2414 64 
Q 2138 -91 1772 -91 
Q 1169 -91 856 284 
Q 544 659 544 1381 
z
M 1991 3584 
L 1991 3584 
z
" transform="scale(0.015625)"/>
       <path id="DejaVuSans-6e" d="M 3513 2113 
L 3513 0 
L 2938 0 
L 2938 2094 
Q 2938 2591 2744 2837 
Q 2550 3084 2163 3084 
Q 1697 3084 1428 2787 
Q 1159 2491 1159 1978 
L 1159 0 
L 581 0 
L 581 3500 
L 1159 3500 
L 1159 2956 
Q 1366 3272 1645 3428 
Q 1925 3584 2291 3584 
Q 2894 3584 3203 3211 
Q 3513 2838 3513 2113 
z
" transform="scale(0.015625)"/>
       <path id="DejaVuSans-20" transform="scale(0.015625)"/>
       <path id="DejaVuSans-28" d="M 1984 4856 
Q 1566 4138 1362 3434 
Q 1159 2731 1159 2009 
Q 1159 1288 1364 580 
Q 1569 -128 1984 -844 
L 1484 -844 
Q 1016 -109 783 600 
Q 550 1309 550 2009 
Q 550 2706 781 3412 
Q 1013 4119 1484 4856 
L 1984 4856 
z
" transform="scale(0.015625)"/>
       <path id="DejaVuSans-64" d="M 2906 2969 
L 2906 4863 
L 3481 4863 
L 3481 0 
L 2906 0 
L 2906 525 
Q 2725 213 2448 61 
Q 2172 -91 1784 -91 
Q 1150 -91 751 415 
Q 353 922 353 1747 
Q 353 2572 751 3078 
Q 1150 3584 1784 3584 
Q 2172 3584 2448 3432 
Q 2725 3281 2906 2969 
z
M 947 1747 
Q 947 1113 1208 752 
Q 1469 391 1925 391 
Q 2381 391 2643 752 
Q 2906 1113 2906 1747 
Q 2906 2381 2643 2742 
Q 2381 3103 1925 3103 
Q 1469 3103 1208 2742 
Q 947 2381 947 1747 
z
" transform="scale(0.015625)"/>
       <path id="DejaVuSans-79" d="M 2059 -325 
Q 1816 -950 1584 -1140 
Q 1353 -1331 966 -1331 
L 506 -1331 
L 506 -850 
L 844 -850 
Q 1081 -850 1212 -737 
Q 1344 -625 1503 -206 
L 1606 56 
L 191 3500 
L 800 3500 
L 1894 763 
L 2988 3500 
L 3597 3500 
L 2059 -325 
z
" transform="scale(0.015625)"/>
       <path id="DejaVuSans-72" d="M 2631 2963 
Q 2534 3019 2420 3045 
Q 2306 3072 2169 3072 
Q 1681 3072 1420 2755 
Q 1159 2438 1159 1844 
L 1159 0 
L 581 0 
L 581 3500 
L 1159 3500 
L 1159 2956 
Q 1341 3275 1631 3429 
Q 1922 3584 2338 3584 
Q 2397 3584 2469 3576 
Q 2541 3569 2628 3553 
L 2631 2963 
z
" transform="scale(0.015625)"/>
       <path id="DejaVuSans-6c" d="M 603 4863 
L 1178 4863 
L 1178 0 
L 603 0 
L 603 4863 
z
" transform="scale(0.015625)"/>
       <path id="DejaVuSans-69" d="M 603 3500 
L 1178 3500 
L 1178 0 
L 603 0 
L 603 3500 
z
M 603 4863 
L 1178 4863 
L 1178 4134 
L 603 4134 
L 603 4863 
z
" transform="scale(0.015625)"/>
       <path id="DejaVuSans-67" d="M 2906 1791 
Q 2906 2416 2648 2759 
Q 2391 3103 1925 3103 
Q 1463 3103 1205 2759 
Q 947 2416 947 1791 
Q 947 1169 1205 825 
Q 1463 481 1925 481 
Q 2391 481 2648 825 
Q 2906 1169 2906 1791 
z
M 3481 434 
Q 3481 -459 3084 -895 
Q 2688 -1331 1869 -1331 
Q 1566 -1331 1297 -1286 
Q 1028 -1241 775 -1147 
L 775 -588 
Q 1028 -725 1275 -790 
Q 1522 -856 1778 -856 
Q 2344 -856 2625 -561 
Q 2906 -266 2906 331 
L 2906 616 
Q 2728 306 2450 153 
Q 2172 0 1784 0 
Q 1141 0 747 490 
Q 353 981 353 1791 
Q 353 2603 747 3093 
Q 1141 3584 1784 3584 
Q 2172 3584 2450 3431 
Q 2728 3278 2906 2969 
L 2906 3500 
L 3481 3500 
L 3481 434 
z
" transform="scale(0.015625)"/>
       <path id="DejaVuSans-76" d="M 191 3500 
L 800 3500 
L 1894 563 
L 2988 3500 
L 3597 3500 
L 2284 0 
L 1503 0 
L 191 3500 
z
" transform="scale(0.015625)"/>
       <path id="DejaVuSans-29" d="M 513 4856 
L 1013 4856 
Q 1481 4119 1714 3412 
Q 1947 2706 1947 2009 
Q 1947 1309 1714 600 
Q 1481 -109 1013 -844 
L 513 -844 
Q 928 -128 1133 580 
Q 1338 1288 1338 2009 
Q 1338 2731 1133 3434 
Q 928 4138 513 4856 
z
" transform="scale(0.015625)"/>
      </defs>
      <use xlink:href="#DejaVuSans-43"/>
      <use xlink:href="#DejaVuSans-6f" x="69.824219"/>
      <use xlink:href="#DejaVuSans-75" x="131.005859"/>
      <use xlink:href="#DejaVuSans-6e" x="194.384766"/>
      <use xlink:href="#DejaVuSans-74" x="257.763672"/>
      <use xlink:href="#DejaVuSans-20" x="296.972656"/>
      <use xlink:href="#DejaVuSans-28" x="328.759766"/>
      <use xlink:href="#DejaVuSans-37" x="367.773438"/>
      <use xlink:href="#DejaVuSans-20" x="431.396484"/>
      <use xlink:href="#DejaVuSans-64" x="463.183594"/>
      <use xlink:href="#DejaVuSans-61" x="526.660156"/>
      <use xlink:href="#DejaVuSans-79" x="587.939453"/>
      <use xlink:href="#DejaVuSans-20" x="647.119141"/>
      <use xlink:href="#DejaVuSans-72" x="678.90625"/>
      <use xlink:href="#DejaVuSans-6f" x="717.769531"/>
      <use xlink:href="#DejaVuSans-6c" x="778.951172"/>
      <use xlink:href="#DejaVuSans-6c" x="806.734375"/>
      <use xlink:href="#DejaVuSans-69" x="834.517578"/>
      <use xlink:href="#DejaVuSans-6e" x="862.300781"/>
      <use xlink:href="#DejaVuSans-67" x="925.679688"/>
      <use xlink:href="#DejaVuSans-20" x="989.15625"/>
      <use xlink:href="#DejaVuSans-61" x="1020.943359"/>
      <use xlink:href="#DejaVuSans-76" x="1082.222656"/>
      <use xlink:href="#DejaVuSans-65" x="1141.402344"/>
      <use xlink:href="#DejaVuSans-72" x="1202.925781"/>
      <use xlink:href="#DejaVuSans-61" x="1244.039062"/>
      <use xlink:href="#DejaVuSans-67" x="1305.318359"/>
      <use xlink:href="#DejaVuSans-65" x="1368.794922"/>
      <use xlink:href="#DejaVuSans-29" x="1430.318359"/>
     </g>
    </g>
   </g>
   <g id="line2d_16">
    <path d="M 295.166924 201.039822 
L 296.978612 204.024914 
L 298.7903 204.024914 
L 300.601989 207.249058 
L 302.413677 210.753903 
L 304.225365 210.753903 
L 306.037054 218.836979 
L 307.848742 214.593025 
L 309.66043 210.753903 
L 311.472119 207.249058 
L 313.283807 210.753903 
L 315.095495 210.753903 
L 316.907183 198.260768 
L 318.718872 195.661137 
L 320.53056 181.043194 
L 322.342248 174.584544 
L 324.153937 171.706155 
L 325.965625 170.340591 
L 327.777313 166.501468 
L 329.589002 160.818779 
L 331.40069 155.839572 
L 333.212378 160.818779 
L 335.024067 164.131355 
L 336.835755 167.740959 
L 338.647443 169.019807 
L 340.459131 169.019807 
L 342.27082 167.740959 
L 344.082508 170.340591 
L 345.894196 174.584544 
L 347.705885 177.684558 
L 349.517573 176.104736 
L 351.329261 169.019807 
L 353.14095 165.298981 
L 354.952638 171.706155 
L 356.764326 174.584544 
L 358.576015 169.019807 
L 360.387703 164.131355 
L 362.199391 165.298981 
L 364.01108 162.996623 
L 365.822768 162.996623 
L 367.634456 158.75267 
L 369.446144 157.758044 
L 371.257833 158.75267 
L 373.069521 160.818779 
L 374.881209 156.787387 
L 376.692898 156.787387 
L 380.316274 154.913547 
L 382.127963 145.925257 
L 383.939651 134.520846 
L 385.751339 130.832492 
L 387.563028 131.339169 
L 389.374716 132.372054 
L 391.186404 127.919394 
L 392.998093 129.349614 
L 394.809781 134.520846 
L 396.621469 141.099629 
L 398.433157 141.099629 
L 400.244846 135.076445 
L 402.056534 126.993369 
L 403.868222 127.45372 
L 405.679911 126.993369 
L 407.491599 122.657973 
L 409.303287 119.87892 
L 411.114976 118.005079 
L 412.926664 118.744188 
L 414.738352 117.640549 
L 416.550041 115.8658 
L 418.361729 112.855913 
L 420.173417 111.587137 
L 421.985106 111.900604 
L 425.608482 110.661112 
L 427.42017 110.661112 
L 429.231859 108.004305 
L 431.043547 108.870582 
L 432.855235 108.004305 
L 434.666924 106.052628 
L 436.478612 105.511945 
L 438.2903 106.325716 
L 440.101989 106.87751 
L 441.913677 104.714289 
L 443.725365 102.164052 
L 447.348742 95.990134 
L 450.972119 90.637958 
L 452.783807 87.086734 
L 454.595495 88.646166 
L 456.407183 85.585431 
L 458.218872 85.914252 
L 460.03056 85.749506 
L 461.842248 85.422022 
L 463.653937 83.666959 
L 465.465625 79.51679 
L 467.277313 76.531698 
L 469.089002 75.118209 
L 470.90069 70.924796 
L 472.712378 70.359845 
L 474.524067 68.38922 
L 476.335755 70.136065 
L 478.147443 72.079038 
L 479.959131 72.196302 
L 481.77082 69.802709 
L 483.582508 68.711035 
L 485.394196 67.230753 
L 487.205885 67.023655 
L 489.017573 63.467203 
L 490.829261 61.619158 
L 492.64095 60.112348 
L 494.452638 60.903045 
L 498.076015 62.997182 
L 499.887703 62.625075 
L 501.699391 66.104673 
L 503.51108 66.817618 
L 507.134456 67.543408 
L 508.946144 69.472089 
L 510.757833 69.802709 
L 512.569521 74.120504 
L 514.381209 72.079038 
L 516.192898 73.388114 
L 518.004586 74.243874 
L 519.816274 75.371545 
L 521.627963 74.616267 
L 525.251339 69.144161 
L 527.063028 69.913522 
L 528.874716 68.603478 
L 530.686404 69.692201 
L 534.309781 72.550158 
L 536.121469 75.626485 
L 537.933157 79.376195 
L 539.744846 81.39063 
L 541.556534 87.257053 
L 543.368222 91.958742 
L 545.179911 94.328855 
L 546.991599 98.844974 
L 548.803287 102.912314 
L 552.426664 101.917688 
L 554.238352 102.164052 
L 556.050041 102.661346 
L 557.861729 103.67474 
L 559.673417 101.917688 
L 561.485106 101.917688 
L 563.296794 102.411931 
L 565.108482 104.978423 
L 566.92017 108.579748 
L 568.731859 108.579748 
L 570.543547 114.165957 
L 572.355235 118.005079 
L 574.166924 124.336562 
L 575.978612 127.919394 
L 577.7903 130.332109 
L 579.601989 136.211177 
L 581.413677 140.45513 
L 583.225365 140.45513 
L 585.037054 150.578151 
L 586.848742 145.199466 
L 588.66043 148.184558 
L 590.472119 146.664366 
L 592.283807 145.925257 
L 594.095495 149.76438 
L 595.907183 150.578151 
L 597.718872 147.417291 
L 599.53056 155.839572 
L 603.153937 159.772479 
L 606.777313 159.772479 
L 608.589002 161.892984 
L 610.40069 166.501468 
L 612.212378 167.740959 
L 614.024067 171.706155 
L 615.835755 174.584544 
L 617.647443 162.996623 
L 619.459131 164.131355 
L 621.27082 166.501468 
L 623.082508 165.298981 
L 624.894196 167.740959 
L 628.517573 167.740959 
L 630.329261 186.672848 
L 632.14095 190.916801 
L 633.952638 188.738957 
L 635.764326 182.833725 
L 637.576015 176.104736 
L 639.387703 176.104736 
L 641.199391 174.584544 
L 643.01108 177.684558 
L 644.822768 177.684558 
L 646.634456 181.043194 
L 648.446144 186.672848 
L 650.257833 198.260768 
L 652.069521 195.661137 
L 653.881209 188.738957 
L 657.504586 188.738957 
L 659.316274 186.672848 
L 661.127963 190.916801 
L 662.939651 190.916801 
L 664.751339 193.219159 
L 666.563028 201.039822 
L 668.374716 190.916801 
L 671.998093 190.916801 
L 673.809781 186.672848 
L 677.433157 186.672848 
L 679.244846 188.738957 
L 681.056534 198.260768 
L 682.868222 204.024914 
L 684.679911 201.039822 
L 686.491599 210.753903 
L 688.303287 214.593025 
L 690.114976 210.753903 
L 695.550041 210.753903 
L 697.361729 214.593025 
L 700.985106 214.593025 
L 702.796794 218.836979 
L 704.608482 218.836979 
L 706.42017 223.581315 
L 708.231859 214.593025 
L 710.043547 218.836979 
L 719.101989 218.836979 
L 720.913677 228.96 
L 722.725365 228.96 
L 724.537054 223.581315 
L 735.407183 223.581315 
L 737.218872 228.96 
L 739.03056 223.581315 
L 746.277313 223.581315 
L 748.089002 218.836979 
L 749.90069 218.836979 
L 751.712378 223.581315 
L 758.959131 223.581315 
L 760.77082 228.96 
L 782.51108 228.96 
L 784.322768 223.581315 
L 786.134456 218.836979 
L 795.192898 218.836979 
L 797.004586 223.581315 
L 798.816274 228.96 
L 847.731859 228.96 
L 849.543547 223.581315 
L 860.413677 223.581315 
L 862.225365 228.96 
L 874.907183 228.96 
L 876.718872 223.581315 
L 887.589002 223.581315 
L 889.40069 228.96 
L 907.517573 228.96 
L 909.329261 223.581315 
L 920.199391 223.581315 
L 922.01108 228.96 
L 925.634456 228.96 
L 927.446144 223.581315 
L 927.446144 223.581315 
" clip-path="url(#pef7c13c080)" style="fill: none; stroke: #947383; stroke-width: 2; stroke-linecap: square"/>
   </g>
   <g id="line2d_17">
    <path d="M 97.692898 176.104736 
L 99.504586 179.32888 
L 101.316274 174.584544 
L 103.127963 170.340591 
L 106.751339 167.740959 
L 108.563028 167.740959 
L 110.374716 169.019807 
L 112.186404 165.298981 
L 113.998093 164.131355 
L 115.809781 161.892984 
L 117.621469 157.758044 
L 119.433157 156.787387 
L 121.244846 156.787387 
L 123.056534 154.008333 
L 124.868222 157.758044 
L 126.679911 160.818779 
L 130.303287 174.584544 
L 133.926664 171.706155 
L 135.738352 162.996623 
L 137.550041 156.787387 
L 139.361729 157.758044 
L 141.173417 154.008333 
L 142.985106 154.008333 
L 144.796794 156.787387 
L 146.608482 156.787387 
L 148.42017 167.740959 
L 150.231859 181.043194 
L 152.043547 184.707565 
L 153.855235 186.672848 
L 155.666924 193.219159 
L 157.478612 186.672848 
L 159.2903 188.738957 
L 161.101989 181.043194 
L 162.913677 174.584544 
L 164.725365 170.340591 
L 166.537054 166.501468 
L 168.348742 167.740959 
L 170.16043 171.706155 
L 171.972119 169.019807 
L 173.783807 169.019807 
L 175.595495 165.298981 
L 177.407183 159.772479 
L 179.218872 149.76438 
L 181.03056 136.211177 
L 182.842248 132.898601 
L 184.653937 133.972806 
L 186.465625 131.339169 
L 188.277313 130.332109 
L 190.089002 126.088156 
L 191.90069 126.088156 
L 193.712378 131.852301 
L 195.524067 132.372054 
L 197.335755 131.852301 
L 199.147443 123.071108 
L 200.959131 119.87892 
L 202.77082 118.744188 
L 204.582508 118.005079 
L 206.394196 113.83443 
L 210.017573 113.83443 
L 211.829261 123.910312 
L 213.64095 128.867209 
L 215.452638 129.837866 
L 217.264326 125.202839 
L 219.076015 123.910312 
L 220.887703 126.088156 
L 222.699391 124.767372 
L 224.51108 122.249033 
L 226.322768 121.844202 
L 228.134456 115.520044 
L 229.946144 111.27609 
L 231.757833 108.004305 
L 233.569521 106.052628 
L 235.381209 106.600668 
L 237.192898 101.672822 
L 239.004586 89.720371 
L 240.816274 90.637958 
L 244.439651 102.411931 
L 246.251339 102.912314 
L 248.063028 102.164052 
L 249.874716 101.672822 
L 251.686404 109.16353 
L 253.498093 111.900604 
L 255.309781 108.579748 
L 257.121469 104.451876 
L 258.933157 102.164052 
L 260.744846 98.167978 
L 262.556534 92.344202 
L 264.368222 94.328855 
L 266.179911 89.359111 
L 267.991599 87.945622 
L 269.803287 88.119619 
L 271.614976 88.119619 
L 273.426664 89.720371 
L 275.238352 90.084901 
L 277.050041 83.04725 
L 278.861729 88.119619 
L 280.673417 84.296351 
L 282.485106 77.726259 
L 284.296794 78.54278 
L 286.108482 77.457723 
L 287.92017 69.362483 
L 289.731859 69.362483 
L 291.543547 65.603044 
L 293.355235 65.009221 
L 295.166924 69.802709 
L 296.978612 68.496206 
L 298.7903 68.282517 
L 300.601989 69.581995 
L 302.413677 65.009221 
L 304.225365 61.800193 
L 306.037054 61.528945 
L 307.848742 62.164724 
L 309.66043 59.765849 
L 311.472119 59.852195 
L 313.283807 53.990205 
L 315.095495 52.378778 
L 316.907183 50.553923 
L 318.718872 50.898495 
L 320.53056 47.514951 
L 322.342248 48.156371 
L 324.153937 47.198031 
L 325.965625 49.604511 
L 329.589002 53.323175 
L 331.40069 52.95732 
L 333.212378 53.249738 
L 335.024067 53.692383 
L 336.835755 55.590958 
L 338.647443 63.090748 
L 340.459131 66.920505 
L 342.27082 72.43186 
L 344.082508 69.144161 
L 345.894196 66.307087 
L 347.705885 66.920505 
L 349.517573 63.656757 
L 351.329261 58.492393 
L 353.14095 56.217901 
L 354.952638 52.021364 
L 356.764326 53.544293 
L 358.576015 56.138997 
L 360.387703 54.820756 
L 362.199391 56.614754 
L 364.01108 60.374193 
L 365.822768 62.997182 
L 367.634456 68.282517 
L 369.446144 72.43186 
L 371.257833 72.313909 
L 373.069521 76.141256 
L 374.881209 77.996598 
L 376.692898 82.43693 
L 378.504586 86.079674 
L 380.316274 87.257053 
L 382.127963 85.422022 
L 383.939651 90.452761 
L 385.751339 87.772373 
L 387.563028 84.614774 
L 389.374716 81.835721 
L 391.186404 78.405538 
L 392.998093 74.367623 
L 394.809781 71.153013 
L 396.621469 69.472089 
L 398.433157 69.253174 
L 400.244846 70.584875 
L 403.868222 73.99751 
L 405.679911 77.457723 
L 407.491599 84.138079 
L 409.303287 86.580057 
L 411.114976 88.823223 
L 412.926664 89.359111 
L 416.550041 85.749506 
L 418.361729 88.294371 
L 420.173417 88.646166 
L 421.985106 88.823223 
L 423.796794 87.772373 
L 425.608482 86.917133 
L 427.42017 87.428095 
L 429.231859 92.733387 
L 431.043547 84.935735 
L 432.855235 78.405538 
L 434.666924 75.754562 
L 436.478612 75.498813 
L 438.2903 75.371545 
L 440.101989 75.754562 
L 441.913677 70.02464 
L 443.725365 71.729279 
L 445.537054 74.243874 
L 447.348742 75.754562 
L 449.16043 76.141256 
L 450.972119 77.324123 
L 452.783807 78.268763 
L 454.595495 82.285785 
L 456.407183 84.774935 
L 458.218872 88.294371 
L 460.03056 88.823223 
L 461.842248 88.119619 
L 463.653937 87.257053 
L 465.465625 84.138079 
L 467.277313 83.04725 
L 469.089002 80.084127 
L 470.90069 80.65957 
L 472.712378 81.538448 
L 476.335755 84.138079 
L 478.147443 93.324307 
L 479.959131 98.618042 
L 481.77082 102.661346 
L 483.582508 98.618042 
L 485.394196 95.568347 
L 487.205885 93.126369 
L 489.017573 90.268411 
L 492.64095 77.190965 
L 494.452638 75.883048 
L 496.264326 76.794111 
L 498.076015 79.09647 
L 499.887703 79.79946 
L 501.699391 80.65957 
L 503.51108 82.43693 
L 505.322768 87.945622 
L 507.134456 87.945622 
L 508.946144 86.245779 
L 510.757833 83.201285 
L 512.569521 83.511135 
L 514.381209 83.04725 
L 516.192898 80.370821 
L 518.004586 78.818673 
L 519.816274 80.804724 
L 521.627963 84.296351 
L 523.439651 84.614774 
L 525.251339 83.666959 
L 527.063028 83.980426 
L 528.874716 81.835721 
L 530.686404 80.65957 
L 532.498093 79.23609 
L 534.309781 75.118209 
L 536.121469 73.99751 
L 537.933157 74.243874 
L 539.744846 73.630767 
L 541.556534 77.591767 
L 543.368222 77.324123 
L 545.179911 74.367623 
L 546.991599 76.925962 
L 550.614976 78.268763 
L 552.426664 79.657877 
L 554.238352 76.270983 
L 556.050041 79.51679 
L 557.861729 79.79946 
L 559.673417 76.270983 
L 561.485106 77.591767 
L 563.296794 78.268763 
L 565.108482 77.324123 
L 566.92017 79.941542 
L 568.731859 71.153013 
L 570.543547 75.371545 
L 572.355235 74.616267 
L 574.166924 70.697864 
L 575.978612 68.603478 
L 577.7903 69.035442 
L 579.601989 64.71556 
L 581.413677 70.136065 
L 583.225365 66.307087 
L 585.037054 64.911096 
L 586.848742 65.009221 
L 588.66043 63.656757 
L 590.472119 61.800193 
L 592.283807 63.656757 
L 594.095495 57.177001 
L 595.907183 59.081666 
L 597.718872 63.847208 
L 599.53056 67.230753 
L 601.342248 70.359845 
L 604.965625 73.874891 
L 606.777313 86.580057 
L 608.589002 87.428095 
L 610.40069 83.04725 
L 612.212378 81.985184 
L 614.024067 81.538448 
L 615.835755 82.285785 
L 617.647443 83.511135 
L 619.459131 76.662691 
L 621.27082 76.794111 
L 623.082508 78.132451 
L 624.894196 78.68049 
L 626.705885 79.09647 
L 628.517573 78.405538 
L 630.329261 77.996598 
L 632.14095 76.794111 
L 633.952638 76.925962 
L 635.764326 77.726259 
L 637.576015 79.51679 
L 639.387703 79.51679 
L 641.199391 81.39063 
L 643.01108 85.259273 
L 644.822768 87.257053 
L 646.634456 90.084901 
L 648.446144 89.720371 
L 650.257833 87.257053 
L 652.069521 85.585431 
L 653.881209 83.666959 
L 655.692898 79.376195 
L 657.504586 77.861202 
L 659.316274 78.268763 
L 661.127963 75.754562 
L 662.939651 73.509258 
L 664.751339 75.118209 
L 666.563028 75.118209 
L 670.186404 83.666959 
L 671.998093 85.585431 
L 673.809781 91.38738 
L 675.621469 99.533542 
L 677.433157 101.429436 
L 679.244846 104.451876 
L 681.056534 103.67474 
L 682.868222 124.336562 
L 684.679911 119.118891 
L 686.491599 123.071108 
L 688.303287 121.844202 
L 690.114976 119.118891 
L 691.926664 121.4434 
L 693.738352 122.249033 
L 695.550041 106.325716 
L 697.361729 104.714289 
L 699.173417 101.917688 
L 700.985106 103.418991 
L 702.796794 105.244301 
L 704.608482 104.451876 
L 706.42017 102.411931 
L 708.231859 107.719637 
L 710.043547 114.500235 
L 711.855235 119.87892 
L 713.666924 120.653565 
L 715.478612 120.653565 
L 717.2903 119.87892 
L 719.101989 126.993369 
L 720.913677 135.076445 
L 722.725365 131.852301 
L 724.537054 132.898601 
L 728.16043 137.378803 
L 729.972119 139.820782 
L 731.783807 138.58129 
L 733.595495 148.184558 
L 735.407183 148.184558 
L 737.218872 149.76438 
L 739.03056 145.199466 
L 740.842248 146.664366 
L 742.653937 146.664366 
L 744.465625 153.123016 
L 746.277313 154.913547 
L 748.089002 160.818779 
L 749.90069 161.892984 
L 751.712378 174.584544 
L 753.524067 170.340591 
L 755.335755 171.706155 
L 757.147443 169.019807 
L 758.959131 181.043194 
L 760.77082 177.684558 
L 764.394196 181.043194 
L 766.205885 188.738957 
L 769.829261 188.738957 
L 771.64095 190.916801 
L 773.452638 201.039822 
L 775.264326 207.249058 
L 777.076015 195.661137 
L 780.699391 195.661137 
L 782.51108 204.024914 
L 784.322768 195.661137 
L 786.134456 195.661137 
L 787.946144 186.672848 
L 789.757833 195.661137 
L 793.381209 190.916801 
L 795.192898 190.916801 
L 797.004586 198.260768 
L 798.816274 201.039822 
L 800.627963 214.593025 
L 802.439651 218.836979 
L 806.063028 218.836979 
L 807.874716 170.340591 
L 809.686404 165.298981 
L 811.498093 155.839572 
L 813.309781 153.123016 
L 815.121469 149.76438 
L 816.933157 146.664366 
L 818.744846 146.664366 
L 820.556534 166.501468 
L 822.368222 170.340591 
L 824.179911 182.833725 
L 825.991599 188.738957 
L 827.803287 190.916801 
L 829.614976 204.024914 
L 831.426664 207.249058 
L 833.238352 207.249058 
L 835.050041 210.753903 
L 836.861729 204.024914 
L 838.673417 204.024914 
L 840.485106 210.753903 
L 845.92017 210.753903 
L 847.731859 207.249058 
L 849.543547 218.836979 
L 851.355235 218.836979 
L 853.166924 223.581315 
L 858.601989 223.581315 
L 860.413677 228.96 
L 862.225365 223.581315 
L 864.037054 218.836979 
L 873.095495 218.836979 
L 874.907183 223.581315 
L 876.718872 228.96 
L 878.53056 228.96 
L 880.342248 223.581315 
L 882.153937 223.581315 
L 883.965625 218.836979 
L 891.212378 218.836979 
L 893.024067 223.581315 
L 894.835755 223.581315 
L 896.647443 228.96 
L 909.329261 228.96 
L 911.14095 223.581315 
L 912.952638 223.581315 
L 914.764326 218.836979 
L 922.01108 218.836979 
L 923.822768 223.581315 
L 925.634456 223.581315 
L 927.446144 228.96 
L 978.173417 228.96 
L 979.985106 223.581315 
L 990.855235 223.581315 
L 992.666924 228.96 
L 1047.017573 228.96 
L 1048.829261 223.581315 
L 1057.887703 223.581315 
L 1059.699391 218.836979 
L 1061.51108 223.581315 
L 1070.569521 223.581315 
L 1072.381209 228.96 
L 1074.192898 223.581315 
L 1074.192898 223.581315 
" clip-path="url(#pef7c13c080)" style="fill: none; stroke: #96c6ad; stroke-width: 2; stroke-linecap: square"/>
   </g>
   <g id="line2d_18">
    <path d="M 220.887703 218.836979 
L 222.699391 223.581315 
L 228.134456 223.581315 
L 229.946144 228.96 
L 273.426664 228.96 
L 275.238352 223.581315 
L 277.050041 218.836979 
L 282.485106 218.836979 
L 284.296794 214.593025 
L 286.108482 207.249058 
L 287.92017 204.024914 
L 289.731859 195.661137 
L 291.543547 193.219159 
L 293.355235 186.672848 
L 295.166924 186.672848 
L 298.7903 182.833725 
L 300.601989 174.584544 
L 302.413677 169.019807 
L 304.225365 167.740959 
L 306.037054 171.706155 
L 307.848742 170.340591 
L 309.66043 166.501468 
L 311.472119 164.131355 
L 313.283807 165.298981 
L 315.095495 171.706155 
L 316.907183 165.298981 
L 318.718872 160.818779 
L 320.53056 157.758044 
L 322.342248 157.758044 
L 324.153937 156.787387 
L 325.965625 149.76438 
L 327.777313 141.099629 
L 329.589002 126.53822 
L 331.40069 114.500235 
L 335.024067 106.87751 
L 336.835755 105.78138 
L 338.647443 100.470336 
L 340.459131 97.722887 
L 342.27082 95.359098 
L 344.082508 99.533542 
L 345.894196 97.502172 
L 347.705885 99.073191 
L 349.517573 99.302709 
L 351.329261 96.416384 
L 353.14095 94.328855 
L 354.952638 89.902224 
L 356.764326 87.428095 
L 358.576015 83.04725 
L 360.387703 79.657877 
L 362.199391 78.818673 
L 364.01108 79.941542 
L 365.822768 78.132451 
L 367.634456 77.058246 
L 369.446144 71.729279 
L 371.257833 69.144161 
L 373.069521 68.711035 
L 374.881209 68.603478 
L 376.692898 61.800193 
L 378.504586 56.854757 
L 380.316274 56.217901 
L 382.127963 55.127072 
L 383.939651 53.766632 
L 385.751339 53.176434 
L 387.563028 53.176434 
L 389.374716 50.144289 
L 391.186404 49.941024 
L 392.998093 49.403945 
L 394.809781 47.834384 
L 396.621469 47.642421 
L 398.433157 48.091767 
L 400.244846 46.883585 
L 402.056534 45.347156 
L 403.868222 45.407501 
L 405.679911 41.772023 
L 407.491599 40.576029 
L 409.303287 38.33621 
L 411.114976 37.732749 
L 412.926664 36.990918 
L 414.738352 34.153103 
L 416.550041 29.216401 
L 418.361729 29.378333 
L 420.173417 30.28078 
L 421.985106 30.239318 
L 423.796794 30.530452 
L 425.608482 30.156522 
L 427.42017 29.581666 
L 429.231859 30.572215 
L 431.043547 30.115188 
L 432.855235 28.258252 
L 434.666924 26.976939 
L 436.478612 24.602459 
L 438.2903 24.243771 
L 440.101989 23.395734 
L 441.913677 20.139326 
L 443.725365 18.775912 
L 447.348742 17.76 
L 449.16043 18.496294 
L 450.972119 18.280148 
L 452.783807 19.183262 
L 454.595495 22.190162 
L 456.407183 23.535839 
L 458.218872 23.465726 
L 460.03056 25.110048 
L 461.842248 25.32956 
L 463.653937 26.070027 
L 465.465625 24.351043 
L 467.277313 21.784992 
L 469.089002 21.919597 
L 470.90069 23.221284 
L 472.712378 23.959104 
L 476.335755 23.500767 
L 478.147443 29.991439 
L 479.959131 35.030302 
L 481.77082 36.503846 
L 483.582508 37.583286 
L 485.394196 37.483951 
L 487.205885 37.983093 
L 489.017573 38.794815 
L 490.829261 34.890521 
L 492.64095 33.160705 
L 496.264326 34.153103 
L 498.076015 35.17057 
L 499.887703 35.59433 
L 501.699391 36.64935 
L 503.51108 38.590346 
L 505.322768 43.751102 
L 507.134456 44.689259 
L 510.757833 47.578635 
L 512.569521 48.221078 
L 514.381209 46.69609 
L 516.192898 47.387884 
L 518.004586 45.286901 
L 519.816274 46.077332 
L 521.627963 44.62998 
L 523.439651 45.347156 
L 525.251339 46.509462 
L 527.063028 47.514951 
L 530.686404 50.008665 
L 532.498093 50.348585 
L 534.309781 52.95732 
L 536.121469 52.739392 
L 537.933157 52.378778 
L 539.744846 52.66701 
L 541.556534 54.668468 
L 543.368222 52.66701 
L 545.179911 54.215026 
L 546.991599 55.981652 
L 548.803287 57.583466 
L 550.614976 57.501844 
L 552.426664 58.242463 
L 554.238352 61.891017 
L 556.050041 70.472203 
L 557.861729 73.752644 
L 559.673417 75.754562 
L 561.485106 76.925962 
L 563.296794 79.376195 
L 565.108482 80.950404 
L 566.92017 86.079674 
L 570.543547 82.285785 
L 572.355235 82.135204 
L 574.166924 85.259273 
L 575.978612 86.748242 
L 577.7903 86.079674 
L 579.601989 84.774935 
L 581.413677 94.532806 
L 583.225365 100.947031 
L 585.037054 104.191161 
L 586.848742 106.052628 
L 588.66043 107.436968 
L 590.472119 110.055382 
L 592.283807 110.967428 
L 594.095495 106.052628 
L 595.907183 107.156267 
L 599.53056 102.912314 
L 601.342248 101.917688 
L 603.153937 102.164052 
L 604.965625 106.325716 
L 606.777313 113.83443 
L 608.589002 115.8658 
L 610.40069 119.118891 
L 612.212378 123.910312 
L 614.024067 126.088156 
L 615.835755 125.202839 
L 617.647443 119.497113 
L 619.459131 109.755899 
L 621.27082 99.302709 
L 623.082508 96.847194 
L 624.894196 91.38738 
L 626.705885 89.539336 
L 628.517573 88.469885 
L 630.329261 89.720371 
L 632.14095 88.646166 
L 633.952638 85.585431 
L 635.764326 82.285785 
L 637.576015 84.296351 
L 639.387703 59.507917 
L 641.199391 57.096198 
L 643.01108 53.030226 
L 644.822768 50.691398 
L 646.634456 53.249738 
L 648.446144 53.176434 
L 650.257833 51.596612 
L 652.069521 70.02464 
L 653.881209 73.388114 
L 655.692898 79.23609 
L 657.504586 82.893801 
L 659.316274 86.245779 
L 661.127963 93.324307 
L 662.939651 99.073191 
L 664.751339 103.67474 
L 666.563028 100.470336 
L 668.374716 94.532806 
L 670.186404 100.470336 
L 671.998093 98.844974 
L 673.809781 94.737795 
L 675.621469 92.538324 
L 677.433157 92.151011 
L 679.244846 96.202695 
L 681.056534 107.719637 
L 682.868222 111.587137 
L 684.679911 112.855913 
L 686.491599 119.87892 
L 688.303287 132.372054 
L 691.926664 135.639815 
L 693.738352 140.45513 
L 695.550041 145.925257 
L 697.361729 152.25674 
L 699.173417 154.913547 
L 700.985106 155.839572 
L 702.796794 158.75267 
L 704.608482 159.772479 
L 706.42017 165.298981 
L 708.231859 176.104736 
L 710.043547 177.684558 
L 711.855235 182.833725 
L 715.478612 186.672848 
L 717.2903 186.672848 
L 719.101989 190.916801 
L 720.913677 190.916801 
L 722.725365 204.024914 
L 724.537054 207.249058 
L 726.348742 214.593025 
L 728.16043 218.836979 
L 729.972119 214.593025 
L 739.03056 214.593025 
L 740.842248 210.753903 
L 742.653937 214.593025 
L 744.465625 214.593025 
L 746.277313 210.753903 
L 748.089002 198.260768 
L 749.90069 195.661137 
L 751.712378 190.916801 
L 753.524067 193.219159 
L 755.335755 193.219159 
L 757.147443 190.916801 
L 758.959131 198.260768 
L 760.77082 210.753903 
L 762.582508 214.593025 
L 764.394196 223.581315 
L 768.017573 223.581315 
L 769.829261 228.96 
L 818.744846 228.96 
L 820.556534 223.581315 
L 822.368222 214.593025 
L 831.426664 214.593025 
L 833.238352 218.836979 
L 835.050041 228.96 
L 873.095495 228.96 
L 874.907183 223.581315 
L 876.718872 218.836979 
L 878.53056 214.593025 
L 885.777313 214.593025 
L 887.589002 218.836979 
L 889.40069 223.581315 
L 891.212378 228.96 
L 902.082508 228.96 
L 903.894196 223.581315 
L 914.764326 223.581315 
L 916.576015 228.96 
L 934.692898 228.96 
L 936.504586 223.581315 
L 947.374716 223.581315 
L 949.186404 228.96 
L 963.679911 228.96 
L 965.491599 223.581315 
L 976.361729 223.581315 
L 978.173417 228.96 
L 994.478612 228.96 
L 996.2903 218.836979 
L 1007.16043 218.836979 
L 1008.972119 228.96 
L 1099.556534 228.96 
L 1101.368222 218.836979 
L 1110.426664 218.836979 
L 1112.238352 214.593025 
L 1112.238352 214.593025 
" clip-path="url(#pef7c13c080)" style="fill: none; stroke: #525886; stroke-width: 2; stroke-linecap: square"/>
   </g>
   <g id="line2d_19">
    <path d="M 278.861729 190.916801 
L 280.673417 188.738957 
L 282.485106 184.707565 
L 284.296794 186.672848 
L 286.108482 186.672848 
L 287.92017 188.738957 
L 289.731859 186.672848 
L 291.543547 190.916801 
L 293.355235 188.738957 
L 295.166924 193.219159 
L 296.978612 184.707565 
L 298.7903 181.043194 
L 300.601989 173.119644 
L 302.413677 169.019807 
L 304.225365 170.340591 
L 306.037054 170.340591 
L 307.848742 162.996623 
L 309.66043 166.501468 
L 311.472119 165.298981 
L 315.095495 165.298981 
L 316.907183 164.131355 
L 320.53056 169.019807 
L 322.342248 169.019807 
L 324.153937 171.706155 
L 325.965625 170.340591 
L 327.777313 170.340591 
L 329.589002 162.996623 
L 331.40069 158.75267 
L 333.212378 157.758044 
L 335.024067 155.839572 
L 336.835755 153.123016 
L 340.459131 153.123016 
L 342.27082 155.839572 
L 345.894196 159.772479 
L 347.705885 159.772479 
L 349.517573 161.892984 
L 351.329261 169.019807 
L 353.14095 169.019807 
L 354.952638 170.340591 
L 358.576015 165.298981 
L 360.387703 170.340591 
L 362.199391 171.706155 
L 364.01108 167.740959 
L 365.822768 176.104736 
L 367.634456 169.019807 
L 369.446144 173.119644 
L 371.257833 176.104736 
L 373.069521 176.104736 
L 374.881209 171.706155 
L 376.692898 169.019807 
L 378.504586 165.298981 
L 380.316274 166.501468 
L 382.127963 164.131355 
L 383.939651 165.298981 
L 385.751339 164.131355 
L 387.563028 166.501468 
L 389.374716 166.501468 
L 391.186404 167.740959 
L 392.998093 171.706155 
L 394.809781 176.104736 
L 396.621469 176.104736 
L 398.433157 177.684558 
L 400.244846 170.340591 
L 402.056534 177.684558 
L 403.868222 174.584544 
L 405.679911 170.340591 
L 407.491599 169.019807 
L 409.303287 165.298981 
L 411.114976 162.996623 
L 412.926664 170.340591 
L 414.738352 162.996623 
L 416.550041 164.131355 
L 418.361729 155.839572 
L 420.173417 152.25674 
L 421.985106 155.839572 
L 425.608482 154.008333 
L 427.42017 159.772479 
L 429.231859 159.772479 
L 431.043547 174.584544 
L 432.855235 170.340591 
L 434.666924 158.75267 
L 436.478612 154.913547 
L 438.2903 150.578151 
L 440.101989 138.58129 
L 441.913677 139.196268 
L 443.725365 134.520846 
L 445.537054 133.972806 
L 447.348742 137.378803 
L 449.16043 132.898601 
L 450.972119 133.432123 
L 452.783807 135.639815 
L 454.595495 132.898601 
L 456.407183 131.339169 
L 458.218872 129.349614 
L 460.03056 128.390514 
L 461.842248 134.520846 
L 463.653937 132.372054 
L 465.465625 135.076445 
L 467.277313 132.372054 
L 469.089002 135.639815 
L 470.90069 139.820782 
L 472.712378 139.820782 
L 474.524067 135.639815 
L 476.335755 136.211177 
L 478.147443 137.378803 
L 479.959131 139.196268 
L 481.77082 133.432123 
L 483.582508 131.339169 
L 485.394196 130.832492 
L 487.205885 132.372054 
L 489.017573 136.790759 
L 490.829261 135.639815 
L 492.64095 135.076445 
L 494.452638 139.196268 
L 496.264326 140.45513 
L 498.076015 136.790759 
L 499.887703 137.97556 
L 501.699391 134.520846 
L 503.51108 133.432123 
L 505.322768 132.898601 
L 508.946144 138.58129 
L 510.757833 142.420413 
L 516.192898 144.486522 
L 518.004586 140.45513 
L 519.816274 140.45513 
L 521.627963 139.196268 
L 523.439651 141.099629 
L 525.251339 139.196268 
L 527.063028 139.196268 
L 528.874716 142.420413 
L 530.686404 153.123016 
L 534.309781 153.123016 
L 536.121469 154.008333 
L 537.933157 152.25674 
L 539.744846 154.913547 
L 541.556534 155.839572 
L 543.368222 152.25674 
L 545.179911 153.123016 
L 546.991599 157.758044 
L 548.803287 161.892984 
L 550.614976 171.706155 
L 552.426664 173.119644 
L 554.238352 177.684558 
L 556.050041 190.916801 
L 557.861729 198.260768 
L 559.673417 195.661137 
L 561.485106 195.661137 
L 563.296794 190.916801 
L 565.108482 193.219159 
L 566.92017 190.916801 
L 568.731859 174.584544 
L 572.355235 177.684558 
L 575.978612 181.043194 
L 579.601989 184.707565 
L 581.413677 204.024914 
L 583.225365 198.260768 
L 585.037054 198.260768 
L 586.848742 186.672848 
L 588.66043 186.672848 
L 592.283807 182.833725 
L 594.095495 181.043194 
L 595.907183 182.833725 
L 597.718872 179.32888 
L 599.53056 182.833725 
L 601.342248 186.672848 
L 603.153937 188.738957 
L 604.965625 193.219159 
L 606.777313 198.260768 
L 608.589002 204.024914 
L 610.40069 210.753903 
L 612.212378 223.581315 
L 615.835755 223.581315 
L 617.647443 218.836979 
L 619.459131 210.753903 
L 621.27082 207.249058 
L 628.517573 207.249058 
L 630.329261 210.753903 
L 632.14095 218.836979 
L 633.952638 223.581315 
L 635.764326 228.96 
L 655.692898 228.96 
L 657.504586 218.836979 
L 668.374716 218.836979 
L 670.186404 228.96 
L 671.998093 228.96 
L 673.809781 223.581315 
L 675.621469 218.836979 
L 681.056534 218.836979 
L 682.868222 214.593025 
L 684.679911 214.593025 
L 686.491599 218.836979 
L 695.550041 218.836979 
L 697.361729 214.593025 
L 708.231859 214.593025 
L 710.043547 218.836979 
L 711.855235 218.836979 
L 713.666924 223.581315 
L 719.101989 223.581315 
L 720.913677 228.96 
L 760.77082 228.96 
L 762.582508 223.581315 
L 773.452638 223.581315 
L 775.264326 228.96 
L 795.192898 228.96 
L 797.004586 223.581315 
L 806.063028 223.581315 
L 807.874716 218.836979 
L 809.686404 223.581315 
L 818.744846 223.581315 
L 820.556534 228.96 
L 876.718872 228.96 
L 878.53056 223.581315 
L 889.40069 223.581315 
L 891.212378 228.96 
L 902.082508 228.96 
L 903.894196 223.581315 
L 903.894196 223.581315 
" clip-path="url(#pef7c13c080)" style="fill: none; stroke: #937252; stroke-width: 2; stroke-linecap: square"/>
   </g>
   <g id="line2d_20">
    <path d="M 208.205885 218.836979 
L 210.017573 223.581315 
L 213.64095 223.581315 
L 215.452638 228.96 
L 249.874716 228.96 
L 251.686404 223.581315 
L 262.556534 223.581315 
L 264.368222 228.96 
L 278.861729 228.96 
L 280.673417 223.581315 
L 282.485106 223.581315 
L 284.296794 218.836979 
L 286.108482 214.593025 
L 291.543547 214.593025 
L 293.355235 218.836979 
L 295.166924 218.836979 
L 296.978612 214.593025 
L 298.7903 204.024914 
L 300.601989 201.039822 
L 302.413677 188.738957 
L 304.225365 184.707565 
L 306.037054 179.32888 
L 307.848742 174.584544 
L 309.66043 174.584544 
L 311.472119 176.104736 
L 313.283807 171.706155 
L 315.095495 177.684558 
L 316.907183 181.043194 
L 318.718872 170.340591 
L 320.53056 167.740959 
L 322.342248 169.019807 
L 324.153937 173.119644 
L 327.777313 170.340591 
L 329.589002 154.913547 
L 331.40069 165.298981 
L 335.024067 160.818779 
L 336.835755 159.772479 
L 338.647443 162.996623 
L 340.459131 154.913547 
L 342.27082 160.818779 
L 344.082508 159.772479 
L 345.894196 165.298981 
L 347.705885 167.740959 
L 349.517573 167.740959 
L 351.329261 166.501468 
L 353.14095 171.706155 
L 354.952638 171.706155 
L 356.764326 152.25674 
L 358.576015 141.754607 
L 360.387703 139.820782 
L 362.199391 136.790759 
L 364.01108 131.339169 
L 365.822768 115.8658 
L 367.634456 116.566344 
L 369.446144 122.657973 
L 371.257833 127.45372 
L 373.069521 126.088156 
L 374.881209 123.071108 
L 376.692898 101.429436 
L 378.504586 111.587137 
L 380.316274 110.661112 
L 382.127963 90.452761 
L 383.939651 89.902224 
L 385.751339 90.82401 
L 387.563028 92.929398 
L 389.374716 107.719637 
L 391.186404 104.714289 
L 392.998093 102.661346 
L 394.809781 130.832492 
L 396.621469 129.349614 
L 398.433157 126.53822 
L 400.244846 119.118891 
L 402.056534 113.505609 
L 403.868222 112.534952 
L 405.679911 111.27609 
L 409.303287 103.418991 
L 411.114976 101.917688 
L 412.926664 104.978423 
L 414.738352 107.156267 
L 416.550041 107.156267 
L 418.361729 89.902224 
L 420.173417 89.539336 
L 421.985106 89.902224 
L 423.796794 87.257053 
L 425.608482 86.412571 
L 427.42017 81.68681 
L 429.231859 76.270983 
L 431.043547 83.201285 
L 432.855235 79.51679 
L 434.666924 74.120504 
L 436.478612 72.668804 
L 438.2903 68.603478 
L 440.101989 70.359845 
L 441.913677 66.205753 
L 443.725365 68.603478 
L 445.537054 66.307087 
L 447.348742 66.817618 
L 449.16043 66.408677 
L 450.972119 67.543408 
L 452.783807 62.810699 
L 454.595495 62.71778 
L 456.407183 57.583466 
L 458.218872 57.911617 
L 460.03056 60.025444 
L 463.653937 63.278536 
L 465.465625 61.438933 
L 467.277313 59.081666 
L 469.089002 59.507917 
L 470.90069 60.112348 
L 472.712378 59.251626 
L 474.524067 54.973623 
L 476.335755 51.596612 
L 478.147443 53.323175 
L 481.77082 59.679688 
L 483.582508 61.800193 
L 485.394196 62.810699 
L 487.205885 68.282517 
L 489.017573 73.026854 
L 490.829261 78.132451 
L 492.64095 84.455248 
L 494.452638 85.585431 
L 496.264326 84.138079 
L 498.076015 85.259273 
L 499.887703 80.804724 
L 501.699391 81.096612 
L 503.51108 82.285785 
L 505.322768 84.935735 
L 508.946144 86.245779 
L 510.757833 83.201285 
L 512.569521 84.455248 
L 514.381209 81.538448 
L 516.192898 77.996598 
L 518.004586 73.630767 
L 519.816274 72.668804 
L 523.439651 76.662691 
L 525.251339 80.370821 
L 527.063028 82.893801 
L 528.874716 87.257053 
L 530.686404 92.929398 
L 534.309781 89.539336 
L 536.121469 89.720371 
L 537.933157 86.580057 
L 541.556534 88.646166 
L 543.368222 91.576935 
L 545.179911 96.202695 
L 546.991599 97.722887 
L 548.803287 100.234087 
L 550.614976 106.052628 
L 554.238352 106.600668 
L 556.050041 101.429436 
L 557.861729 101.917688 
L 559.673417 102.164052 
L 561.485106 103.67474 
L 563.296794 104.191161 
L 565.108482 103.932123 
L 566.92017 101.429436 
L 568.731859 103.164856 
L 570.543547 102.661346 
L 572.355235 99.765706 
L 574.166924 92.151011 
L 575.978612 89.720371 
L 577.7903 92.151011 
L 579.601989 93.924024 
L 581.413677 91.198714 
L 583.225365 92.733387 
L 585.037054 90.452761 
L 586.848742 93.523222 
L 588.66043 93.126369 
L 590.472119 91.958742 
L 592.283807 88.823223 
L 594.095495 91.010926 
L 595.907183 91.198714 
L 597.718872 96.631213 
L 599.53056 98.844974 
L 601.342248 102.661346 
L 603.153937 102.661346 
L 604.965625 102.164052 
L 606.777313 102.912314 
L 608.589002 97.722887 
L 610.40069 97.722887 
L 612.212378 93.126369 
L 614.024067 92.344202 
L 615.835755 92.344202 
L 617.647443 91.010926 
L 619.459131 85.914252 
L 621.27082 86.412571 
L 623.082508 84.614774 
L 624.894196 85.422022 
L 626.705885 84.614774 
L 628.517573 81.835721 
L 632.14095 89.720371 
L 633.952638 91.198714 
L 635.764326 92.929398 
L 637.576015 97.944818 
L 639.387703 96.202695 
L 641.199391 101.429436 
L 643.01108 101.429436 
L 644.822768 105.511945 
L 646.634456 102.411931 
L 648.446144 99.765706 
L 650.257833 97.722887 
L 652.069521 98.844974 
L 653.881209 95.778688 
L 655.692898 96.202695 
L 657.504586 89.902224 
L 659.316274 92.538324 
L 661.127963 97.064339 
L 662.939651 95.778688 
L 664.751339 98.618042 
L 666.563028 102.661346 
L 668.374716 104.451876 
L 670.186404 114.83731 
L 671.998093 116.214549 
L 673.809781 113.83443 
L 675.621469 116.214549 
L 677.433157 117.640549 
L 679.244846 114.165957 
L 682.868222 116.214549 
L 684.679911 118.005079 
L 686.491599 116.921239 
L 688.303287 108.290999 
L 690.114976 108.004305 
L 691.926664 111.27609 
L 693.738352 112.855913 
L 695.550041 114.165957 
L 697.361729 118.372939 
L 699.173417 121.4434 
L 700.985106 140.45513 
L 702.796794 143.097408 
L 704.608482 143.097408 
L 706.42017 151.408702 
L 708.231859 150.578151 
L 710.043547 148.966724 
L 711.855235 155.839572 
L 713.666924 165.298981 
L 715.478612 166.501468 
L 717.2903 169.019807 
L 719.101989 166.501468 
L 720.913677 170.340591 
L 722.725365 170.340591 
L 724.537054 171.706155 
L 729.972119 171.706155 
L 731.783807 177.684558 
L 733.595495 181.043194 
L 735.407183 186.672848 
L 737.218872 198.260768 
L 739.03056 210.753903 
L 740.842248 214.593025 
L 742.653937 218.836979 
L 744.465625 218.836979 
L 746.277313 214.593025 
L 748.089002 223.581315 
L 749.90069 218.836979 
L 751.712378 218.836979 
L 753.524067 214.593025 
L 755.335755 210.753903 
L 757.147443 210.753903 
L 758.959131 204.024914 
L 764.394196 204.024914 
L 766.205885 201.039822 
L 768.017573 204.024914 
L 769.829261 204.024914 
L 771.64095 210.753903 
L 773.452638 210.753903 
L 775.264326 214.593025 
L 777.076015 214.593025 
L 778.887703 223.581315 
L 780.699391 223.581315 
L 782.51108 218.836979 
L 784.322768 223.581315 
L 793.381209 223.581315 
L 795.192898 228.96 
L 816.933157 228.96 
L 818.744846 223.581315 
L 829.614976 223.581315 
L 831.426664 228.96 
L 835.050041 228.96 
L 836.861729 223.581315 
L 842.296794 223.581315 
L 844.108482 218.836979 
L 847.731859 218.836979 
L 849.543547 223.581315 
L 851.355235 218.836979 
L 854.978612 218.836979 
L 856.7903 223.581315 
L 862.225365 223.581315 
L 864.037054 228.96 
L 865.848742 223.581315 
L 865.848742 223.581315 
" clip-path="url(#pef7c13c080)" style="fill: none; stroke: #d18cad; stroke-width: 2; stroke-linecap: square"/>
   </g>
   <g id="line2d_21">
    <path d="M 307.848742 210.753903 
L 309.66043 214.593025 
L 311.472119 214.593025 
L 313.283807 207.249058 
L 315.095495 214.593025 
L 316.907183 204.024914 
L 318.718872 207.249058 
L 320.53056 201.039822 
L 322.342248 198.260768 
L 324.153937 198.260768 
L 325.965625 201.039822 
L 327.777313 195.661137 
L 329.589002 204.024914 
L 331.40069 198.260768 
L 333.212378 198.260768 
L 335.024067 201.039822 
L 336.835755 195.661137 
L 338.647443 195.661137 
L 340.459131 201.039822 
L 342.27082 201.039822 
L 344.082508 207.249058 
L 345.894196 210.753903 
L 347.705885 210.753903 
L 349.517573 214.593025 
L 351.329261 214.593025 
L 353.14095 207.249058 
L 354.952638 204.024914 
L 356.764326 201.039822 
L 358.576015 204.024914 
L 360.387703 204.024914 
L 362.199391 207.249058 
L 364.01108 210.753903 
L 365.822768 218.836979 
L 367.634456 218.836979 
L 369.446144 223.581315 
L 371.257833 218.836979 
L 373.069521 218.836979 
L 374.881209 214.593025 
L 382.127963 214.593025 
L 383.939651 218.836979 
L 385.751339 218.836979 
L 387.563028 223.581315 
L 391.186404 223.581315 
L 392.998093 228.96 
L 396.621469 228.96 
L 398.433157 223.581315 
L 400.244846 223.581315 
L 402.056534 218.836979 
L 409.303287 218.836979 
L 411.114976 223.581315 
L 412.926664 223.581315 
L 414.738352 228.96 
L 416.550041 223.581315 
L 418.361729 214.593025 
L 421.985106 214.593025 
L 423.796794 207.249058 
L 425.608482 207.249058 
L 427.42017 204.024914 
L 429.231859 201.039822 
L 431.043547 207.249058 
L 434.666924 207.249058 
L 436.478612 214.593025 
L 440.101989 214.593025 
L 441.913677 223.581315 
L 443.725365 218.836979 
L 445.537054 214.593025 
L 447.348742 207.249058 
L 450.972119 207.249058 
L 452.783807 210.753903 
L 454.595495 207.249058 
L 456.407183 207.249058 
L 458.218872 210.753903 
L 460.03056 214.593025 
L 461.842248 207.249058 
L 463.653937 207.249058 
L 465.465625 198.260768 
L 467.277313 201.039822 
L 469.089002 198.260768 
L 470.90069 198.260768 
L 472.712378 201.039822 
L 474.524067 204.024914 
L 476.335755 198.260768 
L 478.147443 204.024914 
L 479.959131 201.039822 
L 481.77082 207.249058 
L 483.582508 207.249058 
L 485.394196 204.024914 
L 489.017573 198.260768 
L 490.829261 201.039822 
L 492.64095 193.219159 
L 494.452638 193.219159 
L 496.264326 186.672848 
L 498.076015 188.738957 
L 499.887703 188.738957 
L 501.699391 190.916801 
L 503.51108 190.916801 
L 505.322768 195.661137 
L 507.134456 193.219159 
L 508.946144 201.039822 
L 510.757833 195.661137 
L 512.569521 201.039822 
L 514.381209 204.024914 
L 516.192898 201.039822 
L 518.004586 204.024914 
L 521.627963 204.024914 
L 523.439651 210.753903 
L 525.251339 207.249058 
L 527.063028 210.753903 
L 528.874716 214.593025 
L 530.686404 218.836979 
L 532.498093 223.581315 
L 536.121469 223.581315 
L 537.933157 228.96 
L 539.744846 228.96 
L 541.556534 218.836979 
L 552.426664 218.836979 
L 554.238352 223.581315 
L 556.050041 218.836979 
L 557.861729 218.836979 
L 559.673417 214.593025 
L 563.296794 214.593025 
L 565.108482 210.753903 
L 566.92017 214.593025 
L 568.731859 218.836979 
L 570.543547 218.836979 
L 572.355235 223.581315 
L 574.166924 218.836979 
L 575.978612 218.836979 
L 577.7903 223.581315 
L 585.037054 223.581315 
L 586.848742 228.96 
L 588.66043 223.581315 
L 590.472119 223.581315 
L 592.283807 218.836979 
L 594.095495 210.753903 
L 595.907183 210.753903 
L 597.718872 207.249058 
L 601.342248 207.249058 
L 603.153937 201.039822 
L 604.965625 204.024914 
L 606.777313 207.249058 
L 608.589002 201.039822 
L 612.212378 201.039822 
L 614.024067 204.024914 
L 615.835755 210.753903 
L 617.647443 210.753903 
L 619.459131 214.593025 
L 621.27082 223.581315 
L 623.082508 223.581315 
L 624.894196 218.836979 
L 626.705885 218.836979 
L 628.517573 214.593025 
L 630.329261 204.024914 
L 632.14095 204.024914 
L 633.952638 201.039822 
L 633.952638 201.039822 
" clip-path="url(#pef7c13c080)" style="fill: none; stroke: #a4a86f; stroke-width: 2; stroke-linecap: square"/>
   </g>
   <g id="line2d_22">
    <path d="M 418.361729 218.836979 
L 420.173417 223.581315 
L 421.985106 228.96 
L 423.796794 228.96 
L 425.608482 214.593025 
L 427.42017 214.593025 
L 429.231859 210.753903 
L 431.043547 204.024914 
L 436.478612 204.024914 
L 438.2903 214.593025 
L 440.101989 214.593025 
L 441.913677 218.836979 
L 443.725365 228.96 
L 445.537054 228.96 
L 447.348742 223.581315 
L 449.16043 218.836979 
L 450.972119 218.836979 
L 452.783807 210.753903 
L 458.218872 210.753903 
L 460.03056 214.593025 
L 461.842248 218.836979 
L 463.653937 218.836979 
L 465.465625 228.96 
L 467.277313 228.96 
L 469.089002 223.581315 
L 476.335755 223.581315 
L 478.147443 210.753903 
L 479.959131 204.024914 
L 481.77082 207.249058 
L 485.394196 207.249058 
L 487.205885 201.039822 
L 489.017573 201.039822 
L 490.829261 210.753903 
L 492.64095 218.836979 
L 498.076015 218.836979 
L 499.887703 228.96 
L 510.757833 228.96 
L 512.569521 223.581315 
L 523.439651 223.581315 
L 525.251339 228.96 
L 561.485106 228.96 
L 563.296794 223.581315 
L 574.166924 223.581315 
L 575.978612 228.96 
L 619.459131 228.96 
L 621.27082 223.581315 
L 632.14095 223.581315 
L 633.952638 228.96 
L 710.043547 228.96 
L 711.855235 223.581315 
L 711.855235 223.581315 
" clip-path="url(#pef7c13c080)" style="fill: none; stroke: #d3d3d3; stroke-width: 2; stroke-linecap: square"/>
   </g>
   <g id="patch_3">
    <path d="M 46.965625 228.96 
L 46.965625 7.2 
" style="fill: none; stroke: #000000; stroke-width: 0.8; stroke-linejoin: miter; stroke-linecap: square"/>
   </g>
   <g id="patch_4">
    <path d="M 46.965625 228.96 
L 1162.965625 228.96 
" style="fill: none; stroke: #000000; stroke-width: 0.8; stroke-linejoin: miter; stroke-linecap: square"/>
   </g>
   <g id="legend_1">
    <g id="line2d_23">
     <path d="M 1069.154375 17.67875 
L 1077.154375 17.67875 
L 1085.154375 17.67875 
" style="fill: none; stroke: #947383; stroke-width: 2; stroke-linecap: square"/>
    </g>
    <g id="text_18">
     <!-- North America -->
     <g transform="translate(1091.554375 20.47875)scale(0.08 -0.08)">
      <defs>
       <path id="DejaVuSans-4e" d="M 628 4666 
L 1478 4666 
L 3547 763 
L 3547 4666 
L 4159 4666 
L 4159 0 
L 3309 0 
L 1241 3903 
L 1241 0 
L 628 0 
L 628 4666 
z
" transform="scale(0.015625)"/>
       <path id="DejaVuSans-68" d="M 3513 2113 
L 3513 0 
L 2938 0 
L 2938 2094 
Q 2938 2591 2744 2837 
Q 2550 3084 2163 3084 
Q 1697 3084 1428 2787 
Q 1159 2491 1159 1978 
L 1159 0 
L 581 0 
L 581 4863 
L 1159 4863 
L 1159 2956 
Q 1366 3272 1645 3428 
Q 1925 3584 2291 3584 
Q 2894 3584 3203 3211 
Q 3513 2838 3513 2113 
z
" transform="scale(0.015625)"/>
       <path id="DejaVuSans-41" d="M 2188 4044 
L 1331 1722 
L 3047 1722 
L 2188 4044 
z
M 1831 4666 
L 2547 4666 
L 4325 0 
L 3669 0 
L 3244 1197 
L 1141 1197 
L 716 0 
L 50 0 
L 1831 4666 
z
" transform="scale(0.015625)"/>
       <path id="DejaVuSans-6d" d="M 3328 2828 
Q 3544 3216 3844 3400 
Q 4144 3584 4550 3584 
Q 5097 3584 5394 3201 
Q 5691 2819 5691 2113 
L 5691 0 
L 5113 0 
L 5113 2094 
Q 5113 2597 4934 2840 
Q 4756 3084 4391 3084 
Q 3944 3084 3684 2787 
Q 3425 2491 3425 1978 
L 3425 0 
L 2847 0 
L 2847 2094 
Q 2847 2600 2669 2842 
Q 2491 3084 2119 3084 
Q 1678 3084 1418 2786 
Q 1159 2488 1159 1978 
L 1159 0 
L 581 0 
L 581 3500 
L 1159 3500 
L 1159 2956 
Q 1356 3278 1631 3431 
Q 1906 3584 2284 3584 
Q 2666 3584 2933 3390 
Q 3200 3197 3328 2828 
z
" transform="scale(0.015625)"/>
       <path id="DejaVuSans-63" d="M 3122 3366 
L 3122 2828 
Q 2878 2963 2633 3030 
Q 2388 3097 2138 3097 
Q 1578 3097 1268 2742 
Q 959 2388 959 1747 
Q 959 1106 1268 751 
Q 1578 397 2138 397 
Q 2388 397 2633 464 
Q 2878 531 3122 666 
L 3122 134 
Q 2881 22 2623 -34 
Q 2366 -91 2075 -91 
Q 1284 -91 818 406 
Q 353 903 353 1747 
Q 353 2603 823 3093 
Q 1294 3584 2113 3584 
Q 2378 3584 2631 3529 
Q 2884 3475 3122 3366 
z
" transform="scale(0.015625)"/>
      </defs>
      <use xlink:href="#DejaVuSans-4e"/>
      <use xlink:href="#DejaVuSans-6f" x="74.804688"/>
      <use xlink:href="#DejaVuSans-72" x="135.986328"/>
      <use xlink:href="#DejaVuSans-74" x="177.099609"/>
      <use xlink:href="#DejaVuSans-68" x="216.308594"/>
      <use xlink:href="#DejaVuSans-20" x="279.6875"/>
      <use xlink:href="#DejaVuSans-41" x="311.474609"/>
      <use xlink:href="#DejaVuSans-6d" x="379.882812"/>
      <use xlink:href="#DejaVuSans-65" x="477.294922"/>
      <use xlink:href="#DejaVuSans-72" x="538.818359"/>
      <use xlink:href="#DejaVuSans-69" x="579.931641"/>
      <use xlink:href="#DejaVuSans-63" x="607.714844"/>
      <use xlink:href="#DejaVuSans-61" x="662.695312"/>
     </g>
    </g>
    <g id="line2d_24">
     <path d="M 1069.154375 29.42125 
L 1077.154375 29.42125 
L 1085.154375 29.42125 
" style="fill: none; stroke: #96c6ad; stroke-width: 2; stroke-linecap: square"/>
    </g>
    <g id="text_19">
     <!-- Africa -->
     <g transform="translate(1091.554375 32.22125)scale(0.08 -0.08)">
      <defs>
       <path id="DejaVuSans-66" d="M 2375 4863 
L 2375 4384 
L 1825 4384 
Q 1516 4384 1395 4259 
Q 1275 4134 1275 3809 
L 1275 3500 
L 2222 3500 
L 2222 3053 
L 1275 3053 
L 1275 0 
L 697 0 
L 697 3053 
L 147 3053 
L 147 3500 
L 697 3500 
L 697 3744 
Q 697 4328 969 4595 
Q 1241 4863 1831 4863 
L 2375 4863 
z
" transform="scale(0.015625)"/>
      </defs>
      <use xlink:href="#DejaVuSans-41"/>
      <use xlink:href="#DejaVuSans-66" x="64.783203"/>
      <use xlink:href="#DejaVuSans-72" x="99.988281"/>
      <use xlink:href="#DejaVuSans-69" x="141.101562"/>
      <use xlink:href="#DejaVuSans-63" x="168.884766"/>
      <use xlink:href="#DejaVuSans-61" x="223.865234"/>
     </g>
    </g>
    <g id="line2d_25">
     <path d="M 1069.154375 41.16375 
L 1077.154375 41.16375 
L 1085.154375 41.16375 
" style="fill: none; stroke: #525886; stroke-width: 2; stroke-linecap: square"/>
    </g>
    <g id="text_20">
     <!-- Europe -->
     <g transform="translate(1091.554375 43.96375)scale(0.08 -0.08)">
      <defs>
       <path id="DejaVuSans-45" d="M 628 4666 
L 3578 4666 
L 3578 4134 
L 1259 4134 
L 1259 2753 
L 3481 2753 
L 3481 2222 
L 1259 2222 
L 1259 531 
L 3634 531 
L 3634 0 
L 628 0 
L 628 4666 
z
" transform="scale(0.015625)"/>
       <path id="DejaVuSans-70" d="M 1159 525 
L 1159 -1331 
L 581 -1331 
L 581 3500 
L 1159 3500 
L 1159 2969 
Q 1341 3281 1617 3432 
Q 1894 3584 2278 3584 
Q 2916 3584 3314 3078 
Q 3713 2572 3713 1747 
Q 3713 922 3314 415 
Q 2916 -91 2278 -91 
Q 1894 -91 1617 61 
Q 1341 213 1159 525 
z
M 3116 1747 
Q 3116 2381 2855 2742 
Q 2594 3103 2138 3103 
Q 1681 3103 1420 2742 
Q 1159 2381 1159 1747 
Q 1159 1113 1420 752 
Q 1681 391 2138 391 
Q 2594 391 2855 752 
Q 3116 1113 3116 1747 
z
" transform="scale(0.015625)"/>
      </defs>
      <use xlink:href="#DejaVuSans-45"/>
      <use xlink:href="#DejaVuSans-75" x="63.183594"/>
      <use xlink:href="#DejaVuSans-72" x="126.5625"/>
      <use xlink:href="#DejaVuSans-6f" x="165.425781"/>
      <use xlink:href="#DejaVuSans-70" x="226.607422"/>
      <use xlink:href="#DejaVuSans-65" x="290.083984"/>
     </g>
    </g>
    <g id="line2d_26">
     <path d="M 1069.154375 52.90625 
L 1077.154375 52.90625 
L 1085.154375 52.90625 
" style="fill: none; stroke: #937252; stroke-width: 2; stroke-linecap: square"/>
    </g>
    <g id="text_21">
     <!-- United Kingdom -->
     <g transform="translate(1091.554375 55.70625)scale(0.08 -0.08)">
      <defs>
       <path id="DejaVuSans-55" d="M 556 4666 
L 1191 4666 
L 1191 1831 
Q 1191 1081 1462 751 
Q 1734 422 2344 422 
Q 2950 422 3222 751 
Q 3494 1081 3494 1831 
L 3494 4666 
L 4128 4666 
L 4128 1753 
Q 4128 841 3676 375 
Q 3225 -91 2344 -91 
Q 1459 -91 1007 375 
Q 556 841 556 1753 
L 556 4666 
z
" transform="scale(0.015625)"/>
       <path id="DejaVuSans-4b" d="M 628 4666 
L 1259 4666 
L 1259 2694 
L 3353 4666 
L 4166 4666 
L 1850 2491 
L 4331 0 
L 3500 0 
L 1259 2247 
L 1259 0 
L 628 0 
L 628 4666 
z
" transform="scale(0.015625)"/>
      </defs>
      <use xlink:href="#DejaVuSans-55"/>
      <use xlink:href="#DejaVuSans-6e" x="73.193359"/>
      <use xlink:href="#DejaVuSans-69" x="136.572266"/>
      <use xlink:href="#DejaVuSans-74" x="164.355469"/>
      <use xlink:href="#DejaVuSans-65" x="203.564453"/>
      <use xlink:href="#DejaVuSans-64" x="265.087891"/>
      <use xlink:href="#DejaVuSans-20" x="328.564453"/>
      <use xlink:href="#DejaVuSans-4b" x="360.351562"/>
      <use xlink:href="#DejaVuSans-69" x="425.927734"/>
      <use xlink:href="#DejaVuSans-6e" x="453.710938"/>
      <use xlink:href="#DejaVuSans-67" x="517.089844"/>
      <use xlink:href="#DejaVuSans-64" x="580.566406"/>
      <use xlink:href="#DejaVuSans-6f" x="644.042969"/>
      <use xlink:href="#DejaVuSans-6d" x="705.224609"/>
     </g>
    </g>
    <g id="line2d_27">
     <path d="M 1069.154375 64.64875 
L 1077.154375 64.64875 
L 1085.154375 64.64875 
" style="fill: none; stroke: #d18cad; stroke-width: 2; stroke-linecap: square"/>
    </g>
    <g id="text_22">
     <!-- Asia -->
     <g transform="translate(1091.554375 67.44875)scale(0.08 -0.08)">
      <defs>
       <path id="DejaVuSans-73" d="M 2834 3397 
L 2834 2853 
Q 2591 2978 2328 3040 
Q 2066 3103 1784 3103 
Q 1356 3103 1142 2972 
Q 928 2841 928 2578 
Q 928 2378 1081 2264 
Q 1234 2150 1697 2047 
L 1894 2003 
Q 2506 1872 2764 1633 
Q 3022 1394 3022 966 
Q 3022 478 2636 193 
Q 2250 -91 1575 -91 
Q 1294 -91 989 -36 
Q 684 19 347 128 
L 347 722 
Q 666 556 975 473 
Q 1284 391 1588 391 
Q 1994 391 2212 530 
Q 2431 669 2431 922 
Q 2431 1156 2273 1281 
Q 2116 1406 1581 1522 
L 1381 1569 
Q 847 1681 609 1914 
Q 372 2147 372 2553 
Q 372 3047 722 3315 
Q 1072 3584 1716 3584 
Q 2034 3584 2315 3537 
Q 2597 3491 2834 3397 
z
" transform="scale(0.015625)"/>
      </defs>
      <use xlink:href="#DejaVuSans-41"/>
      <use xlink:href="#DejaVuSans-73" x="68.408203"/>
      <use xlink:href="#DejaVuSans-69" x="120.507812"/>
      <use xlink:href="#DejaVuSans-61" x="148.291016"/>
     </g>
    </g>
    <g id="line2d_28">
     <path d="M 1069.154375 76.39125 
L 1077.154375 76.39125 
L 1085.154375 76.39125 
" style="fill: none; stroke: #a4a86f; stroke-width: 2; stroke-linecap: square"/>
    </g>
    <g id="text_23">
     <!-- Oceania -->
     <g transform="translate(1091.554375 79.19125)scale(0.08 -0.08)">
      <defs>
       <path id="DejaVuSans-4f" d="M 2522 4238 
Q 1834 4238 1429 3725 
Q 1025 3213 1025 2328 
Q 1025 1447 1429 934 
Q 1834 422 2522 422 
Q 3209 422 3611 934 
Q 4013 1447 4013 2328 
Q 4013 3213 3611 3725 
Q 3209 4238 2522 4238 
z
M 2522 4750 
Q 3503 4750 4090 4092 
Q 4678 3434 4678 2328 
Q 4678 1225 4090 567 
Q 3503 -91 2522 -91 
Q 1538 -91 948 565 
Q 359 1222 359 2328 
Q 359 3434 948 4092 
Q 1538 4750 2522 4750 
z
" transform="scale(0.015625)"/>
      </defs>
      <use xlink:href="#DejaVuSans-4f"/>
      <use xlink:href="#DejaVuSans-63" x="78.710938"/>
      <use xlink:href="#DejaVuSans-65" x="133.691406"/>
      <use xlink:href="#DejaVuSans-61" x="195.214844"/>
      <use xlink:href="#DejaVuSans-6e" x="256.494141"/>
      <use xlink:href="#DejaVuSans-69" x="319.873047"/>
      <use xlink:href="#DejaVuSans-61" x="347.65625"/>
     </g>
    </g>
    <g id="line2d_29">
     <path d="M 1069.154375 88.13375 
L 1077.154375 88.13375 
L 1085.154375 88.13375 
" style="fill: none; stroke: #d3d3d3; stroke-width: 2; stroke-linecap: square"/>
    </g>
    <g id="text_24">
     <!-- South America -->
     <g transform="translate(1091.554375 90.93375)scale(0.08 -0.08)">
      <defs>
       <path id="DejaVuSans-53" d="M 3425 4513 
L 3425 3897 
Q 3066 4069 2747 4153 
Q 2428 4238 2131 4238 
Q 1616 4238 1336 4038 
Q 1056 3838 1056 3469 
Q 1056 3159 1242 3001 
Q 1428 2844 1947 2747 
L 2328 2669 
Q 3034 2534 3370 2195 
Q 3706 1856 3706 1288 
Q 3706 609 3251 259 
Q 2797 -91 1919 -91 
Q 1588 -91 1214 -16 
Q 841 59 441 206 
L 441 856 
Q 825 641 1194 531 
Q 1563 422 1919 422 
Q 2459 422 2753 634 
Q 3047 847 3047 1241 
Q 3047 1584 2836 1778 
Q 2625 1972 2144 2069 
L 1759 2144 
Q 1053 2284 737 2584 
Q 422 2884 422 3419 
Q 422 4038 858 4394 
Q 1294 4750 2059 4750 
Q 2388 4750 2728 4690 
Q 3069 4631 3425 4513 
z
" transform="scale(0.015625)"/>
      </defs>
      <use xlink:href="#DejaVuSans-53"/>
      <use xlink:href="#DejaVuSans-6f" x="63.476562"/>
      <use xlink:href="#DejaVuSans-75" x="124.658203"/>
      <use xlink:href="#DejaVuSans-74" x="188.037109"/>
      <use xlink:href="#DejaVuSans-68" x="227.246094"/>
      <use xlink:href="#DejaVuSans-20" x="290.625"/>
      <use xlink:href="#DejaVuSans-41" x="322.412109"/>
      <use xlink:href="#DejaVuSans-6d" x="390.820312"/>
      <use xlink:href="#DejaVuSans-65" x="488.232422"/>
      <use xlink:href="#DejaVuSans-72" x="549.755859"/>
      <use xlink:href="#DejaVuSans-69" x="590.869141"/>
      <use xlink:href="#DejaVuSans-63" x="618.652344"/>
      <use xlink:href="#DejaVuSans-61" x="673.632812"/>
     </g>
    </g>
   </g>
  </g>
 </g>
 <defs>
  <clipPath id="pef7c13c080">
   <rect x="46.965625" y="7.2" width="1116" height="221.76"/>
  </clipPath>
 </defs>
</svg>
