<?xml version="1.0" encoding="utf-8" standalone="no"?>
<!DOCTYPE svg PUBLIC "-//W3C//DTD SVG 1.1//EN"
  "http://www.w3.org/Graphics/SVG/1.1/DTD/svg11.dtd">
<svg xmlns:xlink="http://www.w3.org/1999/xlink" width="1176.528125pt" height="298.620937pt" viewBox="0 0 1176.528125 298.620937" xmlns="http://www.w3.org/2000/svg" version="1.1">
 <metadata>
  <rdf:RDF xmlns:dc="http://purl.org/dc/elements/1.1/" xmlns:cc="http://creativecommons.org/ns#" xmlns:rdf="http://www.w3.org/1999/02/22-rdf-syntax-ns#">
   <cc:Work>
    <dc:type rdf:resource="http://purl.org/dc/dcmitype/StillImage"/>
    <dc:date>2021-12-09T14:23:41.986307</dc:date>
    <dc:format>image/svg+xml</dc:format>
    <dc:creator>
     <cc:Agent>
      <dc:title>Matplotlib v3.5.0, https://matplotlib.org/</dc:title>
     </cc:Agent>
    </dc:creator>
   </cc:Work>
  </rdf:RDF>
 </metadata>
 <defs>
  <style type="text/css">*{stroke-linejoin: round; stroke-linecap: butt}</style>
 </defs>
 <g id="figure_1">
  <g id="patch_1">
   <path d="M 0 298.620937 
L 1176.528125 298.620937 
L 1176.528125 0 
L 0 0 
z
" style="fill: #ffffff"/>
  </g>
  <g id="axes_1">
   <g id="patch_2">
    <path d="M 53.328125 228.96 
L 1169.328125 228.96 
L 1169.328125 7.2 
L 53.328125 7.2 
z
" style="fill: #ffffff"/>
   </g>
   <g id="matplotlib.axis_1">
    <g id="xtick_1">
     <g id="line2d_1">
      <defs>
       <path id="mc9da103083" d="M 0 0 
L 0 3.5 
" style="stroke: #000000; stroke-width: 0.8"/>
      </defs>
      <g>
       <use xlink:href="#mc9da103083" x="85.857273" y="228.96" style="stroke: #000000; stroke-width: 0.8"/>
      </g>
     </g>
     <g id="text_1">
      <!-- 2020-09 -->
      <g transform="translate(88.616648 277.742812)rotate(-90)scale(0.1 -0.1)">
       <defs>
        <path id="DejaVuSans-32" d="M 1228 531 
L 3431 531 
L 3431 0 
L 469 0 
L 469 531 
Q 828 903 1448 1529 
Q 2069 2156 2228 2338 
Q 2531 2678 2651 2914 
Q 2772 3150 2772 3378 
Q 2772 3750 2511 3984 
Q 2250 4219 1831 4219 
Q 1534 4219 1204 4116 
Q 875 4013 500 3803 
L 500 4441 
Q 881 4594 1212 4672 
Q 1544 4750 1819 4750 
Q 2544 4750 2975 4387 
Q 3406 4025 3406 3419 
Q 3406 3131 3298 2873 
Q 3191 2616 2906 2266 
Q 2828 2175 2409 1742 
Q 1991 1309 1228 531 
z
" transform="scale(0.015625)"/>
        <path id="DejaVuSans-30" d="M 2034 4250 
Q 1547 4250 1301 3770 
Q 1056 3291 1056 2328 
Q 1056 1369 1301 889 
Q 1547 409 2034 409 
Q 2525 409 2770 889 
Q 3016 1369 3016 2328 
Q 3016 3291 2770 3770 
Q 2525 4250 2034 4250 
z
M 2034 4750 
Q 2819 4750 3233 4129 
Q 3647 3509 3647 2328 
Q 3647 1150 3233 529 
Q 2819 -91 2034 -91 
Q 1250 -91 836 529 
Q 422 1150 422 2328 
Q 422 3509 836 4129 
Q 1250 4750 2034 4750 
z
" transform="scale(0.015625)"/>
        <path id="DejaVuSans-2d" d="M 313 2009 
L 1997 2009 
L 1997 1497 
L 313 1497 
L 313 2009 
z
" transform="scale(0.015625)"/>
        <path id="DejaVuSans-39" d="M 703 97 
L 703 672 
Q 941 559 1184 500 
Q 1428 441 1663 441 
Q 2288 441 2617 861 
Q 2947 1281 2994 2138 
Q 2813 1869 2534 1725 
Q 2256 1581 1919 1581 
Q 1219 1581 811 2004 
Q 403 2428 403 3163 
Q 403 3881 828 4315 
Q 1253 4750 1959 4750 
Q 2769 4750 3195 4129 
Q 3622 3509 3622 2328 
Q 3622 1225 3098 567 
Q 2575 -91 1691 -91 
Q 1453 -91 1209 -44 
Q 966 3 703 97 
z
M 1959 2075 
Q 2384 2075 2632 2365 
Q 2881 2656 2881 3163 
Q 2881 3666 2632 3958 
Q 2384 4250 1959 4250 
Q 1534 4250 1286 3958 
Q 1038 3666 1038 3163 
Q 1038 2656 1286 2365 
Q 1534 2075 1959 2075 
z
" transform="scale(0.015625)"/>
       </defs>
       <use xlink:href="#DejaVuSans-32"/>
       <use xlink:href="#DejaVuSans-30" x="63.623047"/>
       <use xlink:href="#DejaVuSans-32" x="127.246094"/>
       <use xlink:href="#DejaVuSans-30" x="190.869141"/>
       <use xlink:href="#DejaVuSans-2d" x="254.492188"/>
       <use xlink:href="#DejaVuSans-30" x="290.576172"/>
       <use xlink:href="#DejaVuSans-39" x="354.199219"/>
      </g>
     </g>
    </g>
    <g id="xtick_2">
     <g id="line2d_2">
      <g>
       <use xlink:href="#mc9da103083" x="224.617974" y="228.96" style="stroke: #000000; stroke-width: 0.8"/>
      </g>
     </g>
     <g id="text_2">
      <!-- 2020-11 -->
      <g transform="translate(227.377349 277.742812)rotate(-90)scale(0.1 -0.1)">
       <defs>
        <path id="DejaVuSans-31" d="M 794 531 
L 1825 531 
L 1825 4091 
L 703 3866 
L 703 4441 
L 1819 4666 
L 2450 4666 
L 2450 531 
L 3481 531 
L 3481 0 
L 794 0 
L 794 531 
z
" transform="scale(0.015625)"/>
       </defs>
       <use xlink:href="#DejaVuSans-32"/>
       <use xlink:href="#DejaVuSans-30" x="63.623047"/>
       <use xlink:href="#DejaVuSans-32" x="127.246094"/>
       <use xlink:href="#DejaVuSans-30" x="190.869141"/>
       <use xlink:href="#DejaVuSans-2d" x="254.492188"/>
       <use xlink:href="#DejaVuSans-31" x="290.576172"/>
       <use xlink:href="#DejaVuSans-31" x="354.199219"/>
      </g>
     </g>
    </g>
    <g id="xtick_3">
     <g id="line2d_3">
      <g>
       <use xlink:href="#mc9da103083" x="363.378675" y="228.96" style="stroke: #000000; stroke-width: 0.8"/>
      </g>
     </g>
     <g id="text_3">
      <!-- 2021-01 -->
      <g transform="translate(366.13805 277.742812)rotate(-90)scale(0.1 -0.1)">
       <use xlink:href="#DejaVuSans-32"/>
       <use xlink:href="#DejaVuSans-30" x="63.623047"/>
       <use xlink:href="#DejaVuSans-32" x="127.246094"/>
       <use xlink:href="#DejaVuSans-31" x="190.869141"/>
       <use xlink:href="#DejaVuSans-2d" x="254.492188"/>
       <use xlink:href="#DejaVuSans-30" x="290.576172"/>
       <use xlink:href="#DejaVuSans-31" x="354.199219"/>
      </g>
     </g>
    </g>
    <g id="xtick_4">
     <g id="line2d_4">
      <g>
       <use xlink:href="#mc9da103083" x="497.589845" y="228.96" style="stroke: #000000; stroke-width: 0.8"/>
      </g>
     </g>
     <g id="text_4">
      <!-- 2021-03 -->
      <g transform="translate(500.34922 277.742812)rotate(-90)scale(0.1 -0.1)">
       <defs>
        <path id="DejaVuSans-33" d="M 2597 2516 
Q 3050 2419 3304 2112 
Q 3559 1806 3559 1356 
Q 3559 666 3084 287 
Q 2609 -91 1734 -91 
Q 1441 -91 1130 -33 
Q 819 25 488 141 
L 488 750 
Q 750 597 1062 519 
Q 1375 441 1716 441 
Q 2309 441 2620 675 
Q 2931 909 2931 1356 
Q 2931 1769 2642 2001 
Q 2353 2234 1838 2234 
L 1294 2234 
L 1294 2753 
L 1863 2753 
Q 2328 2753 2575 2939 
Q 2822 3125 2822 3475 
Q 2822 3834 2567 4026 
Q 2313 4219 1838 4219 
Q 1578 4219 1281 4162 
Q 984 4106 628 3988 
L 628 4550 
Q 988 4650 1302 4700 
Q 1616 4750 1894 4750 
Q 2613 4750 3031 4423 
Q 3450 4097 3450 3541 
Q 3450 3153 3228 2886 
Q 3006 2619 2597 2516 
z
" transform="scale(0.015625)"/>
       </defs>
       <use xlink:href="#DejaVuSans-32"/>
       <use xlink:href="#DejaVuSans-30" x="63.623047"/>
       <use xlink:href="#DejaVuSans-32" x="127.246094"/>
       <use xlink:href="#DejaVuSans-31" x="190.869141"/>
       <use xlink:href="#DejaVuSans-2d" x="254.492188"/>
       <use xlink:href="#DejaVuSans-30" x="290.576172"/>
       <use xlink:href="#DejaVuSans-33" x="354.199219"/>
      </g>
     </g>
    </g>
    <g id="xtick_5">
     <g id="line2d_5">
      <g>
       <use xlink:href="#mc9da103083" x="636.350547" y="228.96" style="stroke: #000000; stroke-width: 0.8"/>
      </g>
     </g>
     <g id="text_5">
      <!-- 2021-05 -->
      <g transform="translate(639.109922 277.742812)rotate(-90)scale(0.1 -0.1)">
       <defs>
        <path id="DejaVuSans-35" d="M 691 4666 
L 3169 4666 
L 3169 4134 
L 1269 4134 
L 1269 2991 
Q 1406 3038 1543 3061 
Q 1681 3084 1819 3084 
Q 2600 3084 3056 2656 
Q 3513 2228 3513 1497 
Q 3513 744 3044 326 
Q 2575 -91 1722 -91 
Q 1428 -91 1123 -41 
Q 819 9 494 109 
L 494 744 
Q 775 591 1075 516 
Q 1375 441 1709 441 
Q 2250 441 2565 725 
Q 2881 1009 2881 1497 
Q 2881 1984 2565 2268 
Q 2250 2553 1709 2553 
Q 1456 2553 1204 2497 
Q 953 2441 691 2322 
L 691 4666 
z
" transform="scale(0.015625)"/>
       </defs>
       <use xlink:href="#DejaVuSans-32"/>
       <use xlink:href="#DejaVuSans-30" x="63.623047"/>
       <use xlink:href="#DejaVuSans-32" x="127.246094"/>
       <use xlink:href="#DejaVuSans-31" x="190.869141"/>
       <use xlink:href="#DejaVuSans-2d" x="254.492188"/>
       <use xlink:href="#DejaVuSans-30" x="290.576172"/>
       <use xlink:href="#DejaVuSans-35" x="354.199219"/>
      </g>
     </g>
    </g>
    <g id="xtick_6">
     <g id="line2d_6">
      <g>
       <use xlink:href="#mc9da103083" x="775.111248" y="228.96" style="stroke: #000000; stroke-width: 0.8"/>
      </g>
     </g>
     <g id="text_6">
      <!-- 2021-07 -->
      <g transform="translate(777.870623 277.742812)rotate(-90)scale(0.1 -0.1)">
       <defs>
        <path id="DejaVuSans-37" d="M 525 4666 
L 3525 4666 
L 3525 4397 
L 1831 0 
L 1172 0 
L 2766 4134 
L 525 4134 
L 525 4666 
z
" transform="scale(0.015625)"/>
       </defs>
       <use xlink:href="#DejaVuSans-32"/>
       <use xlink:href="#DejaVuSans-30" x="63.623047"/>
       <use xlink:href="#DejaVuSans-32" x="127.246094"/>
       <use xlink:href="#DejaVuSans-31" x="190.869141"/>
       <use xlink:href="#DejaVuSans-2d" x="254.492188"/>
       <use xlink:href="#DejaVuSans-30" x="290.576172"/>
       <use xlink:href="#DejaVuSans-37" x="354.199219"/>
      </g>
     </g>
    </g>
    <g id="xtick_7">
     <g id="line2d_7">
      <g>
       <use xlink:href="#mc9da103083" x="916.146714" y="228.96" style="stroke: #000000; stroke-width: 0.8"/>
      </g>
     </g>
     <g id="text_7">
      <!-- 2021-09 -->
      <g transform="translate(918.906089 277.742812)rotate(-90)scale(0.1 -0.1)">
       <use xlink:href="#DejaVuSans-32"/>
       <use xlink:href="#DejaVuSans-30" x="63.623047"/>
       <use xlink:href="#DejaVuSans-32" x="127.246094"/>
       <use xlink:href="#DejaVuSans-31" x="190.869141"/>
       <use xlink:href="#DejaVuSans-2d" x="254.492188"/>
       <use xlink:href="#DejaVuSans-30" x="290.576172"/>
       <use xlink:href="#DejaVuSans-39" x="354.199219"/>
      </g>
     </g>
    </g>
    <g id="xtick_8">
     <g id="line2d_8">
      <g>
       <use xlink:href="#mc9da103083" x="1054.907416" y="228.96" style="stroke: #000000; stroke-width: 0.8"/>
      </g>
     </g>
     <g id="text_8">
      <!-- 2021-11 -->
      <g transform="translate(1057.666791 277.742812)rotate(-90)scale(0.1 -0.1)">
       <use xlink:href="#DejaVuSans-32"/>
       <use xlink:href="#DejaVuSans-30" x="63.623047"/>
       <use xlink:href="#DejaVuSans-32" x="127.246094"/>
       <use xlink:href="#DejaVuSans-31" x="190.869141"/>
       <use xlink:href="#DejaVuSans-2d" x="254.492188"/>
       <use xlink:href="#DejaVuSans-31" x="290.576172"/>
       <use xlink:href="#DejaVuSans-31" x="354.199219"/>
      </g>
     </g>
    </g>
    <g id="text_9">
     <!-- Date -->
     <g transform="translate(599.377344 289.34125)scale(0.1 -0.1)">
      <defs>
       <path id="DejaVuSans-44" d="M 1259 4147 
L 1259 519 
L 2022 519 
Q 2988 519 3436 956 
Q 3884 1394 3884 2338 
Q 3884 3275 3436 3711 
Q 2988 4147 2022 4147 
L 1259 4147 
z
M 628 4666 
L 1925 4666 
Q 3281 4666 3915 4102 
Q 4550 3538 4550 2338 
Q 4550 1131 3912 565 
Q 3275 0 1925 0 
L 628 0 
L 628 4666 
z
" transform="scale(0.015625)"/>
       <path id="DejaVuSans-61" d="M 2194 1759 
Q 1497 1759 1228 1600 
Q 959 1441 959 1056 
Q 959 750 1161 570 
Q 1363 391 1709 391 
Q 2188 391 2477 730 
Q 2766 1069 2766 1631 
L 2766 1759 
L 2194 1759 
z
M 3341 1997 
L 3341 0 
L 2766 0 
L 2766 531 
Q 2569 213 2275 61 
Q 1981 -91 1556 -91 
Q 1019 -91 701 211 
Q 384 513 384 1019 
Q 384 1609 779 1909 
Q 1175 2209 1959 2209 
L 2766 2209 
L 2766 2266 
Q 2766 2663 2505 2880 
Q 2244 3097 1772 3097 
Q 1472 3097 1187 3025 
Q 903 2953 641 2809 
L 641 3341 
Q 956 3463 1253 3523 
Q 1550 3584 1831 3584 
Q 2591 3584 2966 3190 
Q 3341 2797 3341 1997 
z
" transform="scale(0.015625)"/>
       <path id="DejaVuSans-74" d="M 1172 4494 
L 1172 3500 
L 2356 3500 
L 2356 3053 
L 1172 3053 
L 1172 1153 
Q 1172 725 1289 603 
Q 1406 481 1766 481 
L 2356 481 
L 2356 0 
L 1766 0 
Q 1100 0 847 248 
Q 594 497 594 1153 
L 594 3053 
L 172 3053 
L 172 3500 
L 594 3500 
L 594 4494 
L 1172 4494 
z
" transform="scale(0.015625)"/>
       <path id="DejaVuSans-65" d="M 3597 1894 
L 3597 1613 
L 953 1613 
Q 991 1019 1311 708 
Q 1631 397 2203 397 
Q 2534 397 2845 478 
Q 3156 559 3463 722 
L 3463 178 
Q 3153 47 2828 -22 
Q 2503 -91 2169 -91 
Q 1331 -91 842 396 
Q 353 884 353 1716 
Q 353 2575 817 3079 
Q 1281 3584 2069 3584 
Q 2775 3584 3186 3129 
Q 3597 2675 3597 1894 
z
M 3022 2063 
Q 3016 2534 2758 2815 
Q 2500 3097 2075 3097 
Q 1594 3097 1305 2825 
Q 1016 2553 972 2059 
L 3022 2063 
z
" transform="scale(0.015625)"/>
      </defs>
      <use xlink:href="#DejaVuSans-44"/>
      <use xlink:href="#DejaVuSans-61" x="77.001953"/>
      <use xlink:href="#DejaVuSans-74" x="138.28125"/>
      <use xlink:href="#DejaVuSans-65" x="177.490234"/>
     </g>
    </g>
   </g>
   <g id="matplotlib.axis_2">
    <g id="ytick_1">
     <g id="line2d_9">
      <defs>
       <path id="m815efab676" d="M 0 0 
L -3.5 0 
" style="stroke: #000000; stroke-width: 0.8"/>
      </defs>
      <g>
       <use xlink:href="#m815efab676" x="53.328125" y="228.96" style="stroke: #000000; stroke-width: 0.8"/>
      </g>
     </g>
     <g id="text_10">
      <!-- 1 -->
      <g transform="translate(39.965625 232.759219)scale(0.1 -0.1)">
       <use xlink:href="#DejaVuSans-31"/>
      </g>
     </g>
    </g>
    <g id="ytick_2">
     <g id="line2d_10">
      <g>
       <use xlink:href="#m815efab676" x="53.328125" y="200.330051" style="stroke: #000000; stroke-width: 0.8"/>
      </g>
     </g>
     <g id="text_11">
      <!-- 3 -->
      <g transform="translate(39.965625 204.12927)scale(0.1 -0.1)">
       <use xlink:href="#DejaVuSans-33"/>
      </g>
     </g>
    </g>
    <g id="ytick_3">
     <g id="line2d_11">
      <g>
       <use xlink:href="#m815efab676" x="53.328125" y="171.700102" style="stroke: #000000; stroke-width: 0.8"/>
      </g>
     </g>
     <g id="text_12">
      <!-- 10 -->
      <g transform="translate(33.603125 175.49932)scale(0.1 -0.1)">
       <use xlink:href="#DejaVuSans-31"/>
       <use xlink:href="#DejaVuSans-30" x="63.623047"/>
      </g>
     </g>
    </g>
    <g id="ytick_4">
     <g id="line2d_12">
      <g>
       <use xlink:href="#m815efab676" x="53.328125" y="143.070152" style="stroke: #000000; stroke-width: 0.8"/>
      </g>
     </g>
     <g id="text_13">
      <!-- 31 -->
      <g transform="translate(33.603125 146.869371)scale(0.1 -0.1)">
       <use xlink:href="#DejaVuSans-33"/>
       <use xlink:href="#DejaVuSans-31" x="63.623047"/>
      </g>
     </g>
    </g>
    <g id="ytick_5">
     <g id="line2d_13">
      <g>
       <use xlink:href="#m815efab676" x="53.328125" y="114.440203" style="stroke: #000000; stroke-width: 0.8"/>
      </g>
     </g>
     <g id="text_14">
      <!-- 100 -->
      <g transform="translate(27.240625 118.239422)scale(0.1 -0.1)">
       <use xlink:href="#DejaVuSans-31"/>
       <use xlink:href="#DejaVuSans-30" x="63.623047"/>
       <use xlink:href="#DejaVuSans-30" x="127.246094"/>
      </g>
     </g>
    </g>
    <g id="ytick_6">
     <g id="line2d_14">
      <g>
       <use xlink:href="#m815efab676" x="53.328125" y="85.810254" style="stroke: #000000; stroke-width: 0.8"/>
      </g>
     </g>
     <g id="text_15">
      <!-- 316 -->
      <g transform="translate(27.240625 89.609473)scale(0.1 -0.1)">
       <defs>
        <path id="DejaVuSans-36" d="M 2113 2584 
Q 1688 2584 1439 2293 
Q 1191 2003 1191 1497 
Q 1191 994 1439 701 
Q 1688 409 2113 409 
Q 2538 409 2786 701 
Q 3034 994 3034 1497 
Q 3034 2003 2786 2293 
Q 2538 2584 2113 2584 
z
M 3366 4563 
L 3366 3988 
Q 3128 4100 2886 4159 
Q 2644 4219 2406 4219 
Q 1781 4219 1451 3797 
Q 1122 3375 1075 2522 
Q 1259 2794 1537 2939 
Q 1816 3084 2150 3084 
Q 2853 3084 3261 2657 
Q 3669 2231 3669 1497 
Q 3669 778 3244 343 
Q 2819 -91 2113 -91 
Q 1303 -91 875 529 
Q 447 1150 447 2328 
Q 447 3434 972 4092 
Q 1497 4750 2381 4750 
Q 2619 4750 2861 4703 
Q 3103 4656 3366 4563 
z
" transform="scale(0.015625)"/>
       </defs>
       <use xlink:href="#DejaVuSans-33"/>
       <use xlink:href="#DejaVuSans-31" x="63.623047"/>
       <use xlink:href="#DejaVuSans-36" x="127.246094"/>
      </g>
     </g>
    </g>
    <g id="ytick_7">
     <g id="line2d_15">
      <g>
       <use xlink:href="#m815efab676" x="53.328125" y="57.180305" style="stroke: #000000; stroke-width: 0.8"/>
      </g>
     </g>
     <g id="text_16">
      <!-- 1000 -->
      <g transform="translate(20.878125 60.979524)scale(0.1 -0.1)">
       <use xlink:href="#DejaVuSans-31"/>
       <use xlink:href="#DejaVuSans-30" x="63.623047"/>
       <use xlink:href="#DejaVuSans-30" x="127.246094"/>
       <use xlink:href="#DejaVuSans-30" x="190.869141"/>
      </g>
     </g>
    </g>
    <g id="ytick_8">
     <g id="line2d_16">
      <g>
       <use xlink:href="#m815efab676" x="53.328125" y="28.550356" style="stroke: #000000; stroke-width: 0.8"/>
      </g>
     </g>
     <g id="text_17">
      <!-- 3162 -->
      <g transform="translate(20.878125 32.349575)scale(0.1 -0.1)">
       <use xlink:href="#DejaVuSans-33"/>
       <use xlink:href="#DejaVuSans-31" x="63.623047"/>
       <use xlink:href="#DejaVuSans-36" x="127.246094"/>
       <use xlink:href="#DejaVuSans-32" x="190.869141"/>
      </g>
     </g>
    </g>
    <g id="text_18">
     <!-- Count (7 day rolling average) -->
     <g transform="translate(14.798437 191.547969)rotate(-90)scale(0.1 -0.1)">
      <defs>
       <path id="DejaVuSans-43" d="M 4122 4306 
L 4122 3641 
Q 3803 3938 3442 4084 
Q 3081 4231 2675 4231 
Q 1875 4231 1450 3742 
Q 1025 3253 1025 2328 
Q 1025 1406 1450 917 
Q 1875 428 2675 428 
Q 3081 428 3442 575 
Q 3803 722 4122 1019 
L 4122 359 
Q 3791 134 3420 21 
Q 3050 -91 2638 -91 
Q 1578 -91 968 557 
Q 359 1206 359 2328 
Q 359 3453 968 4101 
Q 1578 4750 2638 4750 
Q 3056 4750 3426 4639 
Q 3797 4528 4122 4306 
z
" transform="scale(0.015625)"/>
       <path id="DejaVuSans-6f" d="M 1959 3097 
Q 1497 3097 1228 2736 
Q 959 2375 959 1747 
Q 959 1119 1226 758 
Q 1494 397 1959 397 
Q 2419 397 2687 759 
Q 2956 1122 2956 1747 
Q 2956 2369 2687 2733 
Q 2419 3097 1959 3097 
z
M 1959 3584 
Q 2709 3584 3137 3096 
Q 3566 2609 3566 1747 
Q 3566 888 3137 398 
Q 2709 -91 1959 -91 
Q 1206 -91 779 398 
Q 353 888 353 1747 
Q 353 2609 779 3096 
Q 1206 3584 1959 3584 
z
" transform="scale(0.015625)"/>
       <path id="DejaVuSans-75" d="M 544 1381 
L 544 3500 
L 1119 3500 
L 1119 1403 
Q 1119 906 1312 657 
Q 1506 409 1894 409 
Q 2359 409 2629 706 
Q 2900 1003 2900 1516 
L 2900 3500 
L 3475 3500 
L 3475 0 
L 2900 0 
L 2900 538 
Q 2691 219 2414 64 
Q 2138 -91 1772 -91 
Q 1169 -91 856 284 
Q 544 659 544 1381 
z
M 1991 3584 
L 1991 3584 
z
" transform="scale(0.015625)"/>
       <path id="DejaVuSans-6e" d="M 3513 2113 
L 3513 0 
L 2938 0 
L 2938 2094 
Q 2938 2591 2744 2837 
Q 2550 3084 2163 3084 
Q 1697 3084 1428 2787 
Q 1159 2491 1159 1978 
L 1159 0 
L 581 0 
L 581 3500 
L 1159 3500 
L 1159 2956 
Q 1366 3272 1645 3428 
Q 1925 3584 2291 3584 
Q 2894 3584 3203 3211 
Q 3513 2838 3513 2113 
z
" transform="scale(0.015625)"/>
       <path id="DejaVuSans-20" transform="scale(0.015625)"/>
       <path id="DejaVuSans-28" d="M 1984 4856 
Q 1566 4138 1362 3434 
Q 1159 2731 1159 2009 
Q 1159 1288 1364 580 
Q 1569 -128 1984 -844 
L 1484 -844 
Q 1016 -109 783 600 
Q 550 1309 550 2009 
Q 550 2706 781 3412 
Q 1013 4119 1484 4856 
L 1984 4856 
z
" transform="scale(0.015625)"/>
       <path id="DejaVuSans-64" d="M 2906 2969 
L 2906 4863 
L 3481 4863 
L 3481 0 
L 2906 0 
L 2906 525 
Q 2725 213 2448 61 
Q 2172 -91 1784 -91 
Q 1150 -91 751 415 
Q 353 922 353 1747 
Q 353 2572 751 3078 
Q 1150 3584 1784 3584 
Q 2172 3584 2448 3432 
Q 2725 3281 2906 2969 
z
M 947 1747 
Q 947 1113 1208 752 
Q 1469 391 1925 391 
Q 2381 391 2643 752 
Q 2906 1113 2906 1747 
Q 2906 2381 2643 2742 
Q 2381 3103 1925 3103 
Q 1469 3103 1208 2742 
Q 947 2381 947 1747 
z
" transform="scale(0.015625)"/>
       <path id="DejaVuSans-79" d="M 2059 -325 
Q 1816 -950 1584 -1140 
Q 1353 -1331 966 -1331 
L 506 -1331 
L 506 -850 
L 844 -850 
Q 1081 -850 1212 -737 
Q 1344 -625 1503 -206 
L 1606 56 
L 191 3500 
L 800 3500 
L 1894 763 
L 2988 3500 
L 3597 3500 
L 2059 -325 
z
" transform="scale(0.015625)"/>
       <path id="DejaVuSans-72" d="M 2631 2963 
Q 2534 3019 2420 3045 
Q 2306 3072 2169 3072 
Q 1681 3072 1420 2755 
Q 1159 2438 1159 1844 
L 1159 0 
L 581 0 
L 581 3500 
L 1159 3500 
L 1159 2956 
Q 1341 3275 1631 3429 
Q 1922 3584 2338 3584 
Q 2397 3584 2469 3576 
Q 2541 3569 2628 3553 
L 2631 2963 
z
" transform="scale(0.015625)"/>
       <path id="DejaVuSans-6c" d="M 603 4863 
L 1178 4863 
L 1178 0 
L 603 0 
L 603 4863 
z
" transform="scale(0.015625)"/>
       <path id="DejaVuSans-69" d="M 603 3500 
L 1178 3500 
L 1178 0 
L 603 0 
L 603 3500 
z
M 603 4863 
L 1178 4863 
L 1178 4134 
L 603 4134 
L 603 4863 
z
" transform="scale(0.015625)"/>
       <path id="DejaVuSans-67" d="M 2906 1791 
Q 2906 2416 2648 2759 
Q 2391 3103 1925 3103 
Q 1463 3103 1205 2759 
Q 947 2416 947 1791 
Q 947 1169 1205 825 
Q 1463 481 1925 481 
Q 2391 481 2648 825 
Q 2906 1169 2906 1791 
z
M 3481 434 
Q 3481 -459 3084 -895 
Q 2688 -1331 1869 -1331 
Q 1566 -1331 1297 -1286 
Q 1028 -1241 775 -1147 
L 775 -588 
Q 1028 -725 1275 -790 
Q 1522 -856 1778 -856 
Q 2344 -856 2625 -561 
Q 2906 -266 2906 331 
L 2906 616 
Q 2728 306 2450 153 
Q 2172 0 1784 0 
Q 1141 0 747 490 
Q 353 981 353 1791 
Q 353 2603 747 3093 
Q 1141 3584 1784 3584 
Q 2172 3584 2450 3431 
Q 2728 3278 2906 2969 
L 2906 3500 
L 3481 3500 
L 3481 434 
z
" transform="scale(0.015625)"/>
       <path id="DejaVuSans-76" d="M 191 3500 
L 800 3500 
L 1894 563 
L 2988 3500 
L 3597 3500 
L 2284 0 
L 1503 0 
L 191 3500 
z
" transform="scale(0.015625)"/>
       <path id="DejaVuSans-29" d="M 513 4856 
L 1013 4856 
Q 1481 4119 1714 3412 
Q 1947 2706 1947 2009 
Q 1947 1309 1714 600 
Q 1481 -109 1013 -844 
L 513 -844 
Q 928 -128 1133 580 
Q 1338 1288 1338 2009 
Q 1338 2731 1133 3434 
Q 928 4138 513 4856 
z
" transform="scale(0.015625)"/>
      </defs>
      <use xlink:href="#DejaVuSans-43"/>
      <use xlink:href="#DejaVuSans-6f" x="69.824219"/>
      <use xlink:href="#DejaVuSans-75" x="131.005859"/>
      <use xlink:href="#DejaVuSans-6e" x="194.384766"/>
      <use xlink:href="#DejaVuSans-74" x="257.763672"/>
      <use xlink:href="#DejaVuSans-20" x="296.972656"/>
      <use xlink:href="#DejaVuSans-28" x="328.759766"/>
      <use xlink:href="#DejaVuSans-37" x="367.773438"/>
      <use xlink:href="#DejaVuSans-20" x="431.396484"/>
      <use xlink:href="#DejaVuSans-64" x="463.183594"/>
      <use xlink:href="#DejaVuSans-61" x="526.660156"/>
      <use xlink:href="#DejaVuSans-79" x="587.939453"/>
      <use xlink:href="#DejaVuSans-20" x="647.119141"/>
      <use xlink:href="#DejaVuSans-72" x="678.90625"/>
      <use xlink:href="#DejaVuSans-6f" x="717.769531"/>
      <use xlink:href="#DejaVuSans-6c" x="778.951172"/>
      <use xlink:href="#DejaVuSans-6c" x="806.734375"/>
      <use xlink:href="#DejaVuSans-69" x="834.517578"/>
      <use xlink:href="#DejaVuSans-6e" x="862.300781"/>
      <use xlink:href="#DejaVuSans-67" x="925.679688"/>
      <use xlink:href="#DejaVuSans-20" x="989.15625"/>
      <use xlink:href="#DejaVuSans-61" x="1020.943359"/>
      <use xlink:href="#DejaVuSans-76" x="1082.222656"/>
      <use xlink:href="#DejaVuSans-65" x="1141.402344"/>
      <use xlink:href="#DejaVuSans-72" x="1202.925781"/>
      <use xlink:href="#DejaVuSans-61" x="1244.039062"/>
      <use xlink:href="#DejaVuSans-67" x="1305.318359"/>
      <use xlink:href="#DejaVuSans-65" x="1368.794922"/>
      <use xlink:href="#DejaVuSans-29" x="1430.318359"/>
     </g>
    </g>
   </g>
   <g id="line2d_17">
    <path d="M 154.100241 225.639387 
L 156.375006 228.96 
L 206.419849 228.96 
L 208.694615 225.639387 
L 215.518912 225.639387 
L 217.793677 220.09033 
L 222.343209 220.09033 
L 224.617974 222.710399 
L 229.167505 222.710399 
L 231.442271 220.09033 
L 233.717037 225.639387 
L 235.991802 222.710399 
L 238.266568 222.710399 
L 240.541333 217.720189 
L 249.640396 217.720189 
L 251.915161 220.09033 
L 254.189927 220.09033 
L 256.464692 225.639387 
L 261.014224 225.639387 
L 263.288989 228.96 
L 265.563755 225.639387 
L 267.83852 225.639387 
L 270.113286 222.710399 
L 272.388052 222.710399 
L 274.662817 217.720189 
L 276.937583 215.556419 
L 279.212348 213.565945 
L 281.487114 215.556419 
L 283.76188 215.556419 
L 286.036645 217.720189 
L 288.311411 217.720189 
L 290.586176 222.710399 
L 292.860942 222.710399 
L 295.135708 225.639387 
L 306.509536 225.639387 
L 308.784301 228.96 
L 311.059067 228.96 
L 313.333832 225.639387 
L 317.883363 225.639387 
L 320.158129 222.710399 
L 322.432895 217.720189 
L 324.70766 211.723053 
L 326.982426 211.723053 
L 329.257191 205.473452 
L 331.531957 201.640085 
L 333.806723 199.37783 
L 336.081488 196.328998 
L 338.356254 196.328998 
L 340.631019 198.319472 
L 342.905785 194.486106 
L 345.180551 196.328998 
L 347.455316 199.37783 
L 349.730082 186.89198 
L 352.004847 185.616436 
L 356.554379 169.984411 
L 358.829144 165.4505 
L 361.10391 159.354879 
L 363.378675 158.090149 
L 365.653441 158.714475 
L 367.928207 155.738699 
L 370.202972 153.590516 
L 372.477738 150.680591 
L 374.752503 149.634949 
L 377.027269 148.914097 
L 379.302034 146.738489 
L 381.5768 145.969325 
L 383.851566 146.869028 
L 386.126331 144.738001 
L 388.401097 145.101039 
L 390.675862 145.101039 
L 392.950628 142.775265 
L 395.225394 142.010046 
L 397.500159 139.164929 
L 399.774925 138.038654 
L 402.04969 137.049213 
L 404.324456 135.427762 
L 406.599222 130.976607 
L 408.873987 130.1612 
L 411.148753 128.606466 
L 413.423518 128.606466 
L 415.698284 128.170726 
L 417.97305 126.966245 
L 420.247815 124.612143 
L 427.072112 118.27357 
L 429.346878 117.659522 
L 431.621643 116.398134 
L 433.896409 113.396652 
L 438.44594 111.432395 
L 440.720706 109.788157 
L 442.995471 108.636671 
L 445.270237 107.861224 
L 447.545002 106.741591 
L 449.819768 105.1758 
L 452.094533 101.751381 
L 454.369299 99.199653 
L 456.644065 98.218404 
L 458.91883 96.433732 
L 461.193596 94.816973 
L 468.017893 91.882606 
L 470.292658 91.639993 
L 472.567424 91.008978 
L 474.842189 90.218597 
L 477.116955 89.793044 
L 479.391721 88.483241 
L 481.666486 85.76081 
L 483.941252 83.246355 
L 490.765549 76.421348 
L 493.040314 74.48128 
L 495.31508 73.572068 
L 497.589845 72.248155 
L 499.864611 71.758136 
L 502.139377 69.747533 
L 504.414142 68.178705 
L 506.688908 66.854557 
L 508.963673 66.479974 
L 511.238439 65.157744 
L 513.513204 62.176042 
L 515.78797 60.375375 
L 518.062736 59.207516 
L 520.337501 58.273285 
L 524.887032 55.385164 
L 529.436564 53.599943 
L 531.711329 51.531975 
L 533.986095 49.942096 
L 536.26086 47.657799 
L 538.535626 46.277348 
L 543.085157 44.165192 
L 547.634688 41.051192 
L 549.909454 39.172111 
L 552.18422 38.36565 
L 554.458985 37.862322 
L 559.008516 36.632072 
L 561.283282 35.695286 
L 563.558048 35.101991 
L 565.832813 34.290783 
L 568.107579 32.671979 
L 570.382344 31.768406 
L 572.65711 31.321104 
L 574.931876 31.391529 
L 577.206641 30.224212 
L 579.481407 29.400473 
L 581.756172 28.95005 
L 584.030938 28.901009 
L 586.305703 27.809869 
L 590.855235 26.322105 
L 595.404766 25.518662 
L 599.954297 25.184784 
L 602.229063 25.406541 
L 609.053359 26.695688 
L 613.602891 27.393551 
L 620.427187 29.02551 
L 622.701953 28.820246 
L 627.251484 28.9569 
L 629.52625 28.75673 
L 634.075781 27.741265 
L 636.350547 27.529034 
L 638.625312 27.695634 
L 640.900078 27.493479 
L 645.449609 28.24326 
L 652.273906 30.678954 
L 654.548671 31.25714 
L 656.823437 32.587264 
L 659.098202 33.224348 
L 661.372968 34.365897 
L 663.647734 35.341451 
L 665.922499 36.642958 
L 670.47203 37.940862 
L 677.296327 41.591896 
L 679.571093 42.575272 
L 686.39539 44.802667 
L 688.670155 46.669991 
L 690.944921 47.967354 
L 695.494452 51.069243 
L 697.769218 52.428282 
L 700.043983 53.440495 
L 702.318749 54.046902 
L 704.593514 57.959738 
L 706.86828 58.855429 
L 709.143046 60.238407 
L 711.417811 61.43584 
L 713.692577 62.102321 
L 715.967342 62.407289 
L 718.242108 62.429217 
L 720.516873 60.086212 
L 722.791639 62.13265 
L 725.066405 63.033175 
L 729.615936 62.845088 
L 734.165467 63.200058 
L 736.440233 63.976876 
L 740.989764 65.275531 
L 743.264529 66.708215 
L 745.539295 67.57248 
L 752.363592 69.665229 
L 754.638357 70.223142 
L 756.913123 70.17517 
L 759.187889 71.656193 
L 761.462654 73.827477 
L 763.73742 74.488404 
L 766.012185 74.767859 
L 770.561717 78.500547 
L 772.836482 81.85707 
L 775.111248 82.854255 
L 777.386013 83.429431 
L 779.660779 84.6213 
L 781.935544 86.362248 
L 784.21031 89.284058 
L 786.485076 90.651559 
L 788.759841 90.953655 
L 793.309372 93.344528 
L 795.584138 93.057212 
L 800.133669 91.42787 
L 802.408435 92.832706 
L 804.6832 94.849268 
L 809.232732 97.274408 
L 811.507497 98.273974 
L 813.782263 99.431701 
L 816.057028 101.772717 
L 820.60656 103.020191 
L 822.881325 103.679728 
L 825.156091 105.126896 
L 831.980388 107.375196 
L 834.255153 108.976553 
L 838.804684 111.306801 
L 841.07945 111.400937 
L 843.354216 111.653724 
L 845.628981 112.037788 
L 847.903747 115.197652 
L 852.453278 117.418087 
L 854.728043 119.159534 
L 857.002809 121.927982 
L 863.827106 125.873618 
L 866.101871 128.481187 
L 868.376637 130.633599 
L 870.651403 134.061505 
L 872.926168 137.137553 
L 875.200934 138.222859 
L 877.475699 139.069099 
L 879.750465 142.117932 
L 882.025231 144.498887 
L 884.299996 146.223079 
L 886.574762 147.66699 
L 888.849527 148.491407 
L 891.124293 151.455347 
L 893.399059 153.590516 
L 895.673824 155.367533 
L 897.94859 158.296521 
L 900.223355 163.332825 
L 902.498121 165.728354 
L 904.772887 168.692294 
L 907.047652 171.347363 
L 909.322418 171.700102 
L 911.597183 169.655033 
L 913.871949 169.655033 
L 916.146714 169.009083 
L 918.42148 167.765441 
L 920.696246 170.31821 
L 922.971011 168.379489 
L 925.245777 168.692294 
L 927.520542 173.928546 
L 929.795308 175.951422 
L 932.070074 175.951422 
L 934.344839 179.574933 
L 936.619605 181.082526 
L 938.89437 185.002388 
L 941.169136 185.616436 
L 943.443902 186.89198 
L 945.718667 190.400274 
L 947.993433 196.328998 
L 950.268198 200.483242 
L 952.542964 182.140883 
L 954.81773 182.687447 
L 957.092495 182.687447 
L 959.367261 184.403138 
L 961.642026 184.403138 
L 966.191558 186.89198 
L 968.466323 213.565945 
L 970.741089 215.556419 
L 973.015854 217.720189 
L 982.114917 217.720189 
L 984.389682 220.09033 
L 988.939213 220.09033 
L 991.213979 222.710399 
L 993.488745 220.09033 
L 995.76351 220.09033 
L 998.038276 217.720189 
L 1000.313041 215.556419 
L 1007.137338 215.556419 
L 1009.412104 217.720189 
L 1011.686869 217.720189 
L 1013.961635 220.09033 
L 1016.236401 210.007362 
L 1023.060697 210.007362 
L 1025.335463 211.723053 
L 1029.884994 211.723053 
L 1032.15976 225.639387 
L 1036.709291 225.639387 
L 1038.984057 222.710399 
L 1050.357884 222.710399 
L 1052.63265 220.09033 
L 1054.907416 222.710399 
L 1057.182181 222.710399 
L 1059.456947 225.639387 
L 1066.281244 225.639387 
L 1068.556009 228.96 
L 1070.830775 228.96 
L 1073.10554 225.639387 
L 1084.479368 225.639387 
L 1086.754134 222.710399 
L 1086.754134 222.710399 
" clip-path="url(#p8a2a334c46)" style="fill: none; stroke: #947383; stroke-width: 2; stroke-linecap: square"/>
   </g>
   <g id="line2d_18">
    <path d="M 292.860942 222.710399 
L 295.135708 225.639387 
L 306.509536 225.639387 
L 308.784301 228.96 
L 311.059067 228.96 
L 313.333832 225.639387 
L 315.608598 222.710399 
L 326.982426 222.710399 
L 329.257191 225.639387 
L 331.531957 228.96 
L 333.806723 228.96 
L 336.081488 225.639387 
L 338.356254 220.09033 
L 340.631019 220.09033 
L 342.905785 217.720189 
L 352.004847 217.720189 
L 354.279613 213.565945 
L 356.554379 208.40244 
L 361.10391 208.40244 
L 363.378675 202.853383 
L 365.653441 199.37783 
L 367.928207 194.486106 
L 370.202972 195.390484 
L 372.477738 193.613467 
L 374.752503 177.249159 
L 377.027269 166.293553 
L 379.302034 160.687394 
L 381.5768 159.139573 
L 383.851566 158.090149 
L 386.126331 154.641418 
L 388.401097 153.249858 
L 390.675862 154.463155 
L 392.950628 159.139573 
L 395.225394 158.714475 
L 397.500159 159.139573 
L 404.324456 165.175717 
L 406.599222 170.999558 
L 408.873987 173.163327 
L 411.148753 182.687447 
L 413.423518 186.24603 
L 415.698284 186.24603 
L 417.97305 189.657901 
L 420.247815 183.246295 
L 422.522581 180.569772 
L 424.797346 169.984411 
L 427.072112 169.984411 
L 429.346878 169.329961 
L 431.621643 166.581043 
L 433.896409 165.175717 
L 436.171174 162.830431 
L 438.44594 161.147919 
L 440.720706 164.369128 
L 442.995471 159.354879 
L 445.270237 160.012212 
L 447.545002 161.855104 
L 449.819768 160.91659 
L 452.094533 159.139573 
L 454.369299 160.687394 
L 456.644065 161.38142 
L 458.91883 164.105975 
L 461.193596 164.105975 
L 463.468361 163.845579 
L 465.743127 160.012212 
L 468.017893 166.581043 
L 470.292658 164.369128 
L 472.567424 164.105975 
L 474.842189 162.58299 
L 477.116955 161.855104 
L 479.391721 162.095373 
L 481.666486 165.4505 
L 483.941252 164.105975 
L 486.216017 164.105975 
L 488.490783 162.337986 
L 490.765549 157.682474 
L 495.31508 153.935905 
L 497.589845 152.582229 
L 499.864611 146.608632 
L 502.139377 145.346043 
L 504.414142 143.450447 
L 506.688908 146.479449 
L 511.238439 147.532205 
L 513.513204 149.199935 
L 515.78797 153.419603 
L 518.062736 153.249858 
L 520.337501 156.886641 
L 522.612267 155.552423 
L 524.887032 155.92638 
L 527.161798 156.115489 
L 529.436564 152.582229 
L 531.711329 152.582229 
L 533.986095 151.613237 
L 536.26086 149.634949 
L 538.535626 147.398147 
L 540.810392 147.132181 
L 543.085157 147.532205 
L 545.359923 150.377323 
L 547.634688 150.077709 
L 549.909454 152.255019 
L 552.18422 152.255019 
L 554.458985 157.083224 
L 556.733751 157.083224 
L 559.008516 155.184007 
L 561.283282 156.306046 
L 563.558048 158.926116 
L 565.832813 158.296521 
L 568.107579 155.92638 
L 570.382344 156.498076 
L 572.65711 156.498076 
L 574.931876 157.281374 
L 577.206641 158.296521 
L 579.481407 156.691599 
L 581.756172 157.682474 
L 584.030938 164.369128 
L 586.305703 162.58299 
L 588.580469 164.369128 
L 590.855235 163.080359 
L 593.13 159.572065 
L 595.404766 161.855104 
L 597.679531 162.58299 
L 599.954297 160.235242 
L 602.229063 161.147919 
L 604.503828 160.687394 
L 606.778594 163.845579 
L 609.053359 165.728354 
L 611.328125 164.903936 
L 613.602891 166.009348 
L 615.877656 168.379489 
L 618.152422 169.984411 
L 620.427187 168.07057 
L 622.701953 168.692294 
L 624.976719 168.692294 
L 627.251484 170.65655 
L 629.52625 169.329961 
L 631.801015 171.700102 
L 634.075781 173.163327 
L 636.350547 175.533468 
L 638.625312 175.122423 
L 640.900078 176.37652 
L 643.174843 174.320171 
L 645.449609 176.37652 
L 647.724374 174.718062 
L 649.99914 174.718062 
L 652.273906 175.122423 
L 654.548671 171.347363 
L 656.823437 170.999558 
L 659.098202 172.057916 
L 661.372968 170.999558 
L 663.647734 171.347363 
L 665.922499 171.347363 
L 668.197265 172.057916 
L 670.47203 176.809012 
L 672.746796 177.249159 
L 675.021562 176.809012 
L 677.296327 177.249159 
L 679.571093 176.809012 
L 681.845858 169.655033 
L 684.120624 169.329961 
L 690.944921 169.329961 
L 693.219686 168.379489 
L 695.494452 166.009348 
L 697.769218 168.379489 
L 700.043983 168.692294 
L 702.318749 167.464011 
L 704.593514 167.464011 
L 706.86828 169.329961 
L 709.143046 168.07057 
L 711.417811 168.379489 
L 713.692577 170.65655 
L 715.967342 169.329961 
L 718.242108 170.31821 
L 720.516873 169.329961 
L 722.791639 166.871896 
L 725.066405 170.999558 
L 727.34117 175.533468 
L 731.890701 177.249159 
L 734.165467 176.37652 
L 736.440233 177.697237 
L 738.714998 178.618367 
L 740.989764 173.542993 
L 743.264529 170.31821 
L 745.539295 170.65655 
L 747.814061 171.347363 
L 750.088826 169.984411 
L 752.363592 172.057916 
L 754.638357 175.951422 
L 759.187889 186.24603 
L 761.462654 188.937049 
L 763.73742 185.616436 
L 766.012185 188.236505 
L 768.286951 188.937049 
L 770.561717 184.403138 
L 772.836482 185.616436 
L 775.111248 185.002388 
L 777.386013 185.616436 
L 779.660779 190.400274 
L 784.21031 193.613467 
L 786.485076 198.319472 
L 788.759841 198.319472 
L 791.034607 201.640085 
L 797.858904 201.640085 
L 800.133669 198.319472 
L 802.408435 201.640085 
L 804.6832 205.473452 
L 806.957966 208.40244 
L 809.232732 211.723053 
L 811.507497 210.007362 
L 813.782263 210.007362 
L 816.057028 211.723053 
L 818.331794 201.640085 
L 820.60656 198.319472 
L 822.881325 195.390484 
L 825.156091 194.486106 
L 827.430856 194.486106 
L 829.705622 192.770415 
L 831.980388 190.400274 
L 834.255153 194.486106 
L 841.07945 197.304325 
L 845.628981 199.37783 
L 847.903747 206.894848 
L 850.178512 202.853383 
L 852.453278 204.128927 
L 854.728043 208.40244 
L 857.002809 204.128927 
L 861.55234 201.640085 
L 863.827106 197.304325 
L 866.101871 200.483242 
L 868.376637 201.640085 
L 870.651403 201.640085 
L 872.926168 205.473452 
L 875.200934 206.894848 
L 877.475699 211.723053 
L 879.750465 220.09033 
L 882.025231 222.710399 
L 884.299996 222.710399 
L 886.574762 220.09033 
L 888.849527 217.720189 
L 895.673824 217.720189 
L 897.94859 220.09033 
L 900.223355 220.09033 
L 902.498121 222.710399 
L 904.772887 225.639387 
L 911.597183 225.639387 
L 913.871949 222.710399 
L 916.146714 222.710399 
L 918.42148 220.09033 
L 927.520542 220.09033 
L 929.795308 225.639387 
L 932.070074 225.639387 
L 934.344839 228.96 
L 979.840151 228.96 
L 982.114917 225.639387 
L 991.213979 225.639387 
L 993.488745 222.710399 
L 998.038276 222.710399 
L 998.038276 222.710399 
" clip-path="url(#p8a2a334c46)" style="fill: none; stroke: #96c6ad; stroke-width: 2; stroke-linecap: square"/>
   </g>
   <g id="line2d_19">
    <path d="M 167.748834 222.710399 
L 170.0236 225.639387 
L 179.122662 225.639387 
L 181.397428 228.96 
L 210.969381 228.96 
L 213.244146 225.639387 
L 226.89274 225.639387 
L 229.167505 228.96 
L 251.915161 228.96 
L 254.189927 222.710399 
L 256.464692 222.710399 
L 258.739458 220.09033 
L 265.563755 220.09033 
L 267.83852 217.720189 
L 270.113286 222.710399 
L 272.388052 222.710399 
L 274.662817 225.639387 
L 276.937583 222.710399 
L 281.487114 222.710399 
L 283.76188 220.09033 
L 286.036645 217.720189 
L 297.410473 217.720189 
L 299.685239 220.09033 
L 301.960004 222.710399 
L 304.23477 222.710399 
L 306.509536 220.09033 
L 308.784301 213.565945 
L 311.059067 213.565945 
L 313.333832 211.723053 
L 315.608598 213.565945 
L 317.883363 211.723053 
L 320.158129 208.40244 
L 322.432895 208.40244 
L 324.70766 211.723053 
L 326.982426 208.40244 
L 329.257191 204.128927 
L 331.531957 201.640085 
L 336.081488 191.165493 
L 338.356254 185.002388 
L 340.631019 178.153537 
L 342.905785 175.533468 
L 345.180551 155.184007 
L 347.455316 153.081263 
L 349.730082 150.528494 
L 352.004847 145.969325 
L 354.279613 142.775265 
L 356.554379 140.956174 
L 358.829144 140.648529 
L 361.10391 146.608632 
L 363.378675 145.469456 
L 365.653441 141.163406 
L 370.202972 127.986292 
L 372.477738 124.558722 
L 374.752503 123.259175 
L 377.027269 119.768213 
L 379.302034 119.245581 
L 381.5768 121.311593 
L 383.851566 125.761348 
L 386.126331 127.74249 
L 388.401097 128.669342 
L 390.675862 128.294446 
L 392.950628 131.67715 
L 395.225394 131.39456 
L 397.500159 129.501542 
L 399.774925 128.232509 
L 402.04969 130.770235 
L 404.324456 129.501542 
L 406.599222 127.084102 
L 408.873987 122.412747 
L 411.148753 121.311593 
L 413.423518 122.169183 
L 415.698284 123.158087 
L 417.97305 123.309874 
L 420.247815 117.099776 
L 422.522581 113.159331 
L 424.797346 110.657639 
L 427.072112 109.119553 
L 429.346878 108.749449 
L 431.621643 104.027858 
L 433.896409 101.794072 
L 436.171174 97.597137 
L 438.44594 99.783884 
L 440.720706 103.020191 
L 442.995471 104.85963 
L 445.270237 103.702786 
L 447.545002 102.203337 
L 449.819768 102.33399 
L 452.094533 111.621984 
L 454.369299 111.527009 
L 456.644065 107.888506 
L 458.91883 106.715538 
L 461.193596 107.997935 
L 463.468361 114.333855 
L 465.743127 117.020831 
L 468.017893 115.455351 
L 470.292658 115.9789 
L 472.567424 120.302066 
L 474.842189 121.311593 
L 477.116955 118.64941 
L 479.391721 116.902882 
L 481.666486 111.653724 
L 483.941252 109.379044 
L 486.216017 106.663513 
L 488.490783 105.2248 
L 490.765549 105.078088 
L 493.040314 105.05372 
L 495.31508 101.036623 
L 497.589845 101.539017 
L 499.864611 100.995211 
L 502.139377 100.301565 
L 504.414142 99.744506 
L 506.688908 97.70565 
L 508.963673 97.38152 
L 511.238439 99.882605 
L 513.513204 100.912594 
L 515.78797 101.036623 
L 518.062736 101.772717 
L 520.337501 102.290363 
L 522.612267 101.454576 
L 524.887032 102.377694 
L 527.161798 100.933223 
L 529.436564 100.301565 
L 531.711329 98.070821 
L 533.986095 97.543057 
L 536.26086 96.519988 
L 538.535626 96.780566 
L 545.359923 93.314127 
L 547.634688 95.620548 
L 549.909454 93.960476 
L 552.18422 93.481792 
L 554.458985 92.580691 
L 556.733751 90.447669 
L 559.008516 92.595445 
L 561.283282 91.287454 
L 563.558048 89.348733 
L 565.832813 88.110778 
L 568.107579 86.327813 
L 570.382344 84.825619 
L 572.65711 84.760915 
L 574.931876 78.442005 
L 577.206641 77.451261 
L 579.481407 77.660844 
L 584.030938 77.419174 
L 586.305703 78.011385 
L 588.580469 78.283797 
L 590.855235 83.966015 
L 593.13 83.409022 
L 595.404766 81.991594 
L 597.679531 81.818767 
L 599.954297 81.298009 
L 602.229063 79.110826 
L 604.503828 78.143091 
L 606.778594 77.355123 
L 609.053359 75.97107 
L 611.328125 75.388032 
L 615.877656 72.509991 
L 618.152422 70.738647 
L 620.427187 69.806489 
L 622.701953 69.211597 
L 624.976719 67.213587 
L 627.251484 65.767385 
L 629.52625 64.126738 
L 631.801015 65.408711 
L 634.075781 64.061062 
L 636.350547 62.271771 
L 638.625312 61.87817 
L 640.900078 63.827912 
L 643.174843 65.201849 
L 645.449609 67.588672 
L 647.724374 65.192041 
L 649.99914 66.776052 
L 652.273906 67.95306 
L 654.548671 68.400839 
L 656.823437 66.697795 
L 661.372968 64.948095 
L 663.647734 65.103944 
L 665.922499 64.986966 
L 668.197265 65.47309 
L 675.021562 66.356357 
L 677.296327 66.713427 
L 679.571093 68.630604 
L 684.120624 72.008386 
L 686.39539 73.170144 
L 688.670155 75.336371 
L 690.944921 76.421348 
L 693.219686 77.782565 
L 695.494452 78.003177 
L 697.769218 79.308976 
L 700.043983 80.04637 
L 702.318749 80.369215 
L 704.593514 82.311595 
L 706.86828 82.974244 
L 709.143046 83.768611 
L 711.417811 85.437777 
L 713.692577 85.097043 
L 718.242108 85.493174 
L 720.516873 83.966015 
L 722.791639 84.376191 
L 725.066405 83.913915 
L 727.34117 82.764642 
L 729.615936 83.226096 
L 731.890701 83.439641 
L 734.165467 83.986886 
L 736.440233 84.804032 
L 738.714998 85.448846 
L 740.989764 86.339286 
L 743.264529 88.346023 
L 745.539295 88.508272 
L 747.814061 88.358466 
L 750.088826 87.634769 
L 752.363592 88.110778 
L 754.638357 86.955055 
L 756.913123 85.404598 
L 759.187889 84.567809 
L 761.462654 84.557125 
L 763.73742 83.799676 
L 766.012185 84.4399 
L 770.561717 85.404598 
L 772.836482 87.695289 
L 775.111248 88.135436 
L 777.386013 88.073837 
L 779.660779 88.470735 
L 781.935544 88.445743 
L 784.21031 86.99037 
L 786.485076 86.8026 
L 788.759841 84.653449 
L 793.309372 83.470298 
L 795.584138 83.593304 
L 797.858904 83.145226 
L 800.133669 83.593304 
L 802.408435 82.478066 
L 804.6832 84.164999 
L 806.957966 84.653449 
L 809.232732 85.020745 
L 811.507497 85.129814 
L 816.057028 85.604339 
L 818.331794 87.215204 
L 820.60656 85.515367 
L 822.881325 86.837699 
L 825.156091 88.937688 
L 827.430856 87.816773 
L 829.705622 87.853334 
L 831.980388 89.284058 
L 834.255153 89.806233 
L 836.529919 91.203583 
L 838.804684 88.608646 
L 841.07945 86.837699 
L 843.354216 87.914389 
L 845.628981 87.975594 
L 847.903747 89.142361 
L 850.178512 91.385662 
L 852.453278 93.805053 
L 857.002809 103.748965 
L 859.277575 107.428732 
L 861.55234 90.912244 
L 863.827106 92.565946 
L 866.101871 91.399724 
L 868.376637 91.868269 
L 870.651403 89.885513 
L 872.926168 85.5932 
L 875.200934 85.69363 
L 877.475699 98.874581 
L 879.750465 98.089221 
L 882.025231 100.121145 
L 884.299996 100.974531 
L 886.574762 104.38093 
L 888.849527 115.492384 
L 891.124293 116.629822 
L 893.399059 117.578783 
L 895.673824 119.462012 
L 904.772887 128.986132 
L 907.047652 131.89122 
L 909.322418 131.819659 
L 911.597183 136.873469 
L 913.871949 140.750655 
L 916.146714 142.010046 
L 918.42148 143.910972 
L 920.696246 147.532205 
L 922.971011 149.929245 
L 925.245777 153.590516 
L 927.520542 155.738699 
L 929.795308 157.083224 
L 932.070074 161.147919 
L 934.344839 163.332825 
L 936.619605 166.293553 
L 938.89437 165.175717 
L 941.169136 164.369128 
L 943.443902 167.166192 
L 945.718667 168.379489 
L 947.993433 167.765441 
L 950.268198 169.009083 
L 952.542964 172.057916 
L 954.81773 176.37652 
L 957.092495 177.249159 
L 959.367261 177.249159 
L 961.642026 179.574933 
L 963.916792 185.002388 
L 966.191558 185.616436 
L 970.741089 183.246295 
L 973.015854 183.81799 
L 975.29062 185.002388 
L 977.565385 186.89198 
L 979.840151 188.236505 
L 982.114917 193.613467 
L 984.389682 195.390484 
L 986.664448 198.319472 
L 988.939213 199.37783 
L 991.213979 202.853383 
L 993.488745 198.319472 
L 995.76351 195.390484 
L 998.038276 191.955009 
L 1000.313041 192.770415 
L 1004.862573 189.657901 
L 1007.137338 189.657901 
L 1009.412104 193.613467 
L 1011.686869 192.770415 
L 1013.961635 194.486106 
L 1016.236401 193.613467 
L 1018.511166 194.486106 
L 1020.785932 194.486106 
L 1023.060697 196.328998 
L 1025.335463 197.304325 
L 1027.610229 201.640085 
L 1029.884994 204.128927 
L 1032.15976 206.894848 
L 1034.434525 208.40244 
L 1036.709291 213.565945 
L 1038.984057 215.556419 
L 1041.258822 217.720189 
L 1045.808353 217.720189 
L 1048.083119 222.710399 
L 1050.357884 222.710399 
L 1052.63265 225.639387 
L 1054.907416 222.710399 
L 1064.006478 222.710399 
L 1066.281244 225.639387 
L 1068.556009 222.710399 
L 1070.830775 225.639387 
L 1082.204603 225.639387 
L 1084.479368 228.96 
L 1116.326087 228.96 
L 1118.600852 222.710399 
L 1118.600852 222.710399 
" clip-path="url(#p8a2a334c46)" style="fill: none; stroke: #525886; stroke-width: 2; stroke-linecap: square"/>
   </g>
   <g id="line2d_20">
    <path d="M 104.055398 222.710399 
L 106.330163 228.96 
L 145.001178 228.96 
L 147.275944 225.639387 
L 160.924538 225.639387 
L 163.199303 228.96 
L 167.748834 228.96 
L 170.0236 225.639387 
L 172.298366 222.710399 
L 174.573131 222.710399 
L 176.847897 220.09033 
L 181.397428 220.09033 
L 183.672193 217.720189 
L 185.946959 220.09033 
L 188.221725 222.710399 
L 190.49649 222.710399 
L 192.771256 225.639387 
L 195.046021 222.710399 
L 197.320787 222.710399 
L 199.595553 225.639387 
L 204.145084 225.639387 
L 206.419849 222.710399 
L 208.694615 222.710399 
L 210.969381 225.639387 
L 213.244146 220.09033 
L 220.068443 220.09033 
L 222.343209 222.710399 
L 229.167505 222.710399 
L 231.442271 220.09033 
L 233.717037 220.09033 
L 235.991802 215.556419 
L 238.266568 215.556419 
L 240.541333 206.894848 
L 242.816099 190.400274 
L 245.090865 191.955009 
L 247.36563 192.770415 
L 249.640396 190.400274 
L 254.189927 190.400274 
L 256.464692 194.486106 
L 258.739458 211.723053 
L 261.014224 210.007362 
L 263.288989 210.007362 
L 265.563755 211.723053 
L 267.83852 215.556419 
L 272.388052 215.556419 
L 274.662817 211.723053 
L 276.937583 210.007362 
L 279.212348 205.473452 
L 281.487114 208.40244 
L 286.036645 208.40244 
L 288.311411 206.894848 
L 290.586176 193.613467 
L 292.860942 194.486106 
L 297.410473 194.486106 
L 301.960004 192.770415 
L 304.23477 193.613467 
L 306.509536 191.955009 
L 308.784301 191.955009 
L 311.059067 192.770415 
L 313.333832 186.24603 
L 315.608598 185.002388 
L 317.883363 182.140883 
L 320.158129 178.618367 
L 322.432895 168.692294 
L 324.70766 164.903936 
L 326.982426 162.830431 
L 329.257191 161.38142 
L 331.531957 156.886641 
L 333.806723 154.463155 
L 336.081488 150.528494 
L 338.356254 138.878542 
L 340.631019 133.367479 
L 342.905785 129.829184 
L 345.180551 128.543748 
L 347.455316 128.669342 
L 349.730082 127.025104 
L 352.004847 126.790501 
L 354.279613 122.857265 
L 358.829144 117.69999 
L 361.10391 115.828186 
L 363.378675 114.870202 
L 365.653441 114.087465 
L 367.928207 111.81303 
L 370.202972 108.301371 
L 372.477738 106.637542 
L 374.752503 105.92114 
L 379.302034 97.832851 
L 381.5768 96.710811 
L 383.851566 95.338805 
L 386.126331 90.870901 
L 388.401097 90.205188 
L 390.675862 88.696807 
L 392.950628 88.221932 
L 395.225394 86.955055 
L 397.500159 85.884446 
L 399.774925 85.940848 
L 402.04969 82.546937 
L 404.324456 81.009226 
L 406.599222 79.308976 
L 411.148753 77.531661 
L 413.423518 77.140162 
L 415.698284 76.599113 
L 422.522581 70.488657 
L 427.072112 67.139244 
L 429.346878 66.588646 
L 431.621643 66.35122 
L 433.896409 62.947912 
L 438.44594 57.682699 
L 440.720706 55.858975 
L 442.995471 54.903998 
L 447.545002 53.593791 
L 449.819768 50.222486 
L 452.094533 49.25594 
L 454.369299 48.950433 
L 456.644065 48.457788 
L 458.91883 47.151869 
L 461.193596 46.749269 
L 463.468361 46.723593 
L 465.743127 44.504282 
L 468.017893 43.473946 
L 470.292658 42.628642 
L 472.567424 41.367053 
L 474.842189 40.862477 
L 477.116955 40.834845 
L 479.391721 40.563845 
L 481.666486 38.681051 
L 483.941252 38.189566 
L 486.216017 36.587023 
L 488.490783 36.005665 
L 490.765549 35.270695 
L 493.040314 34.892345 
L 495.31508 34.351707 
L 497.589845 32.974799 
L 499.864611 31.1796 
L 502.139377 30.479057 
L 504.414142 29.999326 
L 508.963673 28.528957 
L 511.238439 28.202238 
L 513.513204 26.512852 
L 515.78797 26.080878 
L 518.062736 25.32648 
L 520.337501 24.205457 
L 522.612267 23.672574 
L 527.161798 23.202462 
L 531.711329 21.285064 
L 533.986095 21.143711 
L 536.26086 20.358079 
L 538.535626 20.275789 
L 540.810392 20.359695 
L 543.085157 20.207422 
L 545.359923 19.865206 
L 547.634688 20.430104 
L 552.18422 21.059616 
L 554.458985 20.439021 
L 556.733751 20.399327 
L 561.283282 20.756413 
L 563.558048 20.05847 
L 565.832813 20.180127 
L 568.107579 20.572338 
L 570.382344 21.95756 
L 574.931876 21.943776 
L 577.206641 24.904761 
L 579.481407 25.616312 
L 581.756172 24.995155 
L 584.030938 24.100969 
L 586.305703 22.552354 
L 588.580469 21.690127 
L 590.855235 21.457614 
L 593.13 18.692271 
L 595.404766 17.76 
L 597.679531 17.797152 
L 599.954297 18.122224 
L 602.229063 17.923594 
L 604.503828 18.188048 
L 606.778594 18.229555 
L 609.053359 18.932239 
L 611.328125 19.456616 
L 613.602891 19.458175 
L 615.877656 19.274145 
L 618.152422 19.41768 
L 620.427187 19.293493 
L 622.701953 19.394348 
L 624.976719 18.930713 
L 627.251484 18.722519 
L 629.52625 19.056165 
L 634.075781 19.250174 
L 636.350547 19.809021 
L 638.625312 19.761639 
L 640.900078 19.278787 
L 643.174843 20.091227 
L 645.449609 19.940583 
L 647.724374 20.318514 
L 649.99914 20.399327 
L 652.273906 20.205815 
L 654.548671 20.250834 
L 656.823437 20.778594 
L 659.098202 20.956757 
L 661.372968 21.709744 
L 663.647734 23.230565 
L 665.922499 23.937122 
L 668.197265 23.923128 
L 670.47203 24.08876 
L 672.746796 24.07468 
L 675.021562 24.250777 
L 677.296327 24.558869 
L 679.571093 24.247942 
L 681.845858 24.804062 
L 684.120624 25.525625 
L 686.39539 25.9743 
L 688.670155 28.171239 
L 690.944921 28.862301 
L 693.219686 28.832741 
L 695.494452 29.391175 
L 697.769218 30.333801 
L 700.043983 30.539831 
L 702.318749 30.582462 
L 704.593514 31.836265 
L 709.143046 35.353263 
L 711.417811 36.319967 
L 713.692577 37.125139 
L 715.967342 37.537717 
L 718.242108 38.110238 
L 720.516873 41.635588 
L 722.791639 41.830285 
L 725.066405 42.353141 
L 729.615936 43.013515 
L 731.890701 43.913874 
L 734.165467 44.321446 
L 736.440233 48.233664 
L 738.714998 50.710635 
L 740.989764 52.788903 
L 743.264529 54.097064 
L 745.539295 55.970391 
L 747.814061 56.455596 
L 750.088826 56.555862 
L 752.363592 60.610781 
L 756.913123 60.873152 
L 759.187889 62.702733 
L 761.462654 63.953542 
L 763.73742 64.918982 
L 766.012185 65.138167 
L 768.286951 66.770828 
L 770.561717 69.246199 
L 772.836482 71.265065 
L 775.111248 71.911838 
L 777.386013 72.675049 
L 779.660779 72.46397 
L 781.935544 72.988357 
L 786.485076 74.818352 
L 788.759841 75.05049 
L 793.309372 76.498481 
L 795.584138 77.709461 
L 797.858904 78.550835 
L 800.133669 80.870688 
L 802.408435 82.419184 
L 804.6832 85.929558 
L 806.957966 88.433256 
L 809.232732 91.147826 
L 811.507497 92.55121 
L 813.782263 93.117424 
L 818.331794 98.034061 
L 820.60656 99.587611 
L 822.881325 102.203337 
L 825.156091 103.772087 
L 829.705622 105.92114 
L 831.980388 108.580473 
L 834.255153 115.161055 
L 836.529919 116.785489 
L 838.804684 118.026128 
L 841.07945 119.636522 
L 843.354216 120.347075 
L 845.628981 121.311593 
L 850.178512 125.593888 
L 854.728043 129.307009 
L 857.002809 131.67715 
L 859.277575 133.673546 
L 861.55234 134.775458 
L 863.827106 136.873469 
L 866.101871 140.853202 
L 868.376637 141.477528 
L 870.651403 144.380187 
L 872.926168 146.095878 
L 875.200934 147.532205 
L 877.475699 149.929245 
L 879.750465 153.935905 
L 882.025231 154.820969 
L 884.299996 157.682474 
L 886.574762 162.830431 
L 888.849527 161.147919 
L 891.124293 162.337986 
L 893.399059 162.095373 
L 895.673824 164.369128 
L 897.94859 166.293553 
L 900.223355 170.31821 
L 902.498121 169.009083 
L 904.772887 173.542993 
L 907.047652 175.122423 
L 909.322418 175.122423 
L 911.597183 176.37652 
L 913.871949 181.082526 
L 916.146714 180.067378 
L 918.42148 184.403138 
L 920.696246 187.555157 
L 922.971011 188.236505 
L 925.245777 190.400274 
L 927.520542 192.770415 
L 929.795308 195.390484 
L 932.070074 198.319472 
L 934.344839 195.390484 
L 941.169136 195.390484 
L 943.443902 193.613467 
L 945.718667 193.613467 
L 947.993433 195.390484 
L 950.268198 201.640085 
L 952.542964 208.40244 
L 957.092495 208.40244 
L 959.367261 215.556419 
L 961.642026 225.639387 
L 963.916792 225.639387 
L 966.191558 222.710399 
L 968.466323 215.556419 
L 973.015854 215.556419 
L 975.29062 204.128927 
L 979.840151 201.640085 
L 982.114917 199.37783 
L 984.389682 201.640085 
L 986.664448 200.483242 
L 988.939213 200.483242 
L 991.213979 208.40244 
L 993.488745 210.007362 
L 995.76351 213.565945 
L 998.038276 220.09033 
L 1000.313041 217.720189 
L 1002.587807 213.565945 
L 1004.862573 213.565945 
L 1007.137338 206.894848 
L 1011.686869 204.128927 
L 1013.961635 190.400274 
L 1016.236401 179.092051 
L 1018.511166 176.809012 
L 1020.785932 176.809012 
L 1023.060697 179.092051 
L 1025.335463 179.574933 
L 1027.610229 179.574933 
L 1029.884994 187.555157 
L 1032.15976 208.40244 
L 1034.434525 222.710399 
L 1041.258822 222.710399 
L 1043.533588 225.639387 
L 1048.083119 225.639387 
L 1050.357884 228.96 
L 1070.830775 228.96 
L 1073.10554 225.639387 
L 1075.380306 225.639387 
L 1077.655072 222.710399 
L 1082.204603 222.710399 
L 1084.479368 220.09033 
L 1086.754134 189.657901 
L 1089.0289 167.464011 
L 1091.303665 161.38142 
L 1091.303665 161.38142 
" clip-path="url(#p8a2a334c46)" style="fill: none; stroke: #937252; stroke-width: 2; stroke-linecap: square"/>
   </g>
   <g id="line2d_21">
    <path d="M 142.726413 220.09033 
L 145.001178 222.710399 
L 147.275944 225.639387 
L 149.55071 225.639387 
L 151.825475 222.710399 
L 154.100241 220.09033 
L 165.474069 220.09033 
L 167.748834 225.639387 
L 174.573131 225.639387 
L 176.847897 217.720189 
L 183.672193 217.720189 
L 185.946959 213.565945 
L 190.49649 213.565945 
L 192.771256 220.09033 
L 197.320787 220.09033 
L 199.595553 198.319472 
L 201.870318 194.486106 
L 204.145084 189.657901 
L 206.419849 186.24603 
L 208.694615 185.616436 
L 210.969381 184.403138 
L 213.244146 184.403138 
L 215.518912 194.486106 
L 217.793677 186.24603 
L 220.068443 185.002388 
L 222.343209 185.616436 
L 224.617974 168.692294 
L 226.89274 157.083224 
L 229.167505 155.738699 
L 231.442271 155.001825 
L 233.717037 144.858426 
L 235.991802 142.664496 
L 238.266568 142.998295 
L 240.541333 136.873469 
L 242.816099 137.494085 
L 245.090865 136.61216 
L 247.36563 133.215847 
L 249.640396 129.178161 
L 251.915161 120.710113 
L 254.189927 115.418373 
L 256.464692 115.828186 
L 258.739458 116.785489 
L 261.014224 113.601888 
L 263.288989 111.81303 
L 265.563755 114.22796 
L 267.83852 119.768213 
L 270.113286 120.078233 
L 272.388052 113.36261 
L 274.662817 112.460662 
L 276.937583 114.762004 
L 279.212348 117.378074 
L 281.487114 116.0546 
L 283.76188 114.087465 
L 286.036645 115.566616 
L 288.311411 124.452222 
L 292.860942 124.135432 
L 295.135708 121.976035 
L 297.410473 124.187951 
L 299.685239 120.078233 
L 301.960004 119.159534 
L 304.23477 119.031019 
L 306.509536 109.408044 
L 308.784301 103.934546 
L 311.059067 100.830251 
L 313.333832 86.39673 
L 315.608598 83.737584 
L 317.883363 81.590185 
L 320.158129 77.235471 
L 322.432895 74.31798 
L 326.982426 67.416502 
L 329.257191 67.368293 
L 331.531957 64.220863 
L 333.806723 63.024186 
L 336.081488 63.222696 
L 338.356254 63.060161 
L 340.631019 64.235012 
L 342.905785 65.888102 
L 345.180551 69.01642 
L 347.455316 73.910879 
L 349.730082 71.751752 
L 352.004847 70.634688 
L 354.279613 71.599033 
L 356.554379 66.28453 
L 358.829144 64.145535 
L 361.10391 61.711373 
L 363.378675 60.367297 
L 365.653441 57.272842 
L 367.928207 55.076409 
L 370.202972 52.159755 
L 372.477738 52.360878 
L 374.752503 52.82764 
L 377.027269 52.410681 
L 379.302034 50.093915 
L 381.5768 49.942096 
L 383.851566 50.000583 
L 386.126331 49.152829 
L 388.401097 46.955641 
L 392.950628 43.936806 
L 395.225394 42.733741 
L 397.500159 43.310705 
L 399.774925 42.571323 
L 402.04969 42.234049 
L 404.324456 42.705936 
L 406.599222 42.127159 
L 408.873987 42.498383 
L 413.423518 41.922438 
L 415.698284 42.602931 
L 417.97305 39.785771 
L 420.247815 38.462528 
L 422.522581 36.711494 
L 429.346878 32.552931 
L 431.621643 32.266912 
L 433.896409 34.599772 
L 438.44594 38.627082 
L 440.720706 39.941582 
L 442.995471 43.126312 
L 445.270237 45.625993 
L 447.545002 45.690814 
L 449.819768 44.643369 
L 452.094533 43.724971 
L 454.369299 42.380554 
L 456.644065 41.700318 
L 458.91883 40.317396 
L 461.193596 39.824632 
L 463.468361 38.610241 
L 465.743127 37.163231 
L 468.017893 36.133348 
L 470.292658 36.523473 
L 474.842189 36.94657 
L 479.391721 36.19438 
L 481.666486 37.274667 
L 483.941252 38.045969 
L 486.216017 37.940862 
L 488.490783 35.563869 
L 490.765549 35.617547 
L 493.040314 36.125729 
L 495.31508 37.145765 
L 497.589845 37.258717 
L 502.139377 36.532763 
L 504.414142 39.391775 
L 506.688908 39.442207 
L 508.963673 39.637948 
L 511.238439 40.833004 
L 513.513204 41.095804 
L 515.78797 40.995538 
L 518.062736 39.548625 
L 520.337501 37.282646 
L 522.612267 36.556003 
L 524.887032 35.412408 
L 529.436564 32.612384 
L 531.711329 32.060357 
L 536.26086 35.037745 
L 538.535626 36.258626 
L 540.810392 36.154692 
L 545.359923 35.665358 
L 547.634688 35.904291 
L 549.909454 35.638453 
L 552.18422 34.901045 
L 554.458985 33.99677 
L 556.733751 34.611237 
L 559.008516 35.365081 
L 561.283282 37.126725 
L 563.558048 37.898289 
L 565.832813 38.425737 
L 570.382344 41.521768 
L 572.65711 42.486575 
L 574.931876 43.642388 
L 577.206641 45.699768 
L 579.481407 47.242228 
L 581.756172 48.440284 
L 584.030938 50.227858 
L 586.305703 51.261703 
L 588.580469 53.179016 
L 590.855235 54.166202 
L 593.13 54.787567 
L 595.404766 55.784975 
L 597.679531 56.276815 
L 599.954297 56.136754 
L 602.229063 56.625247 
L 604.503828 56.376361 
L 606.778594 57.013894 
L 609.053359 56.911768 
L 611.328125 57.653716 
L 613.602891 57.820833 
L 615.877656 57.498507 
L 618.152422 57.75167 
L 622.701953 59.327286 
L 624.976719 59.5334 
L 627.251484 59.459313 
L 629.52625 60.440092 
L 631.801015 61.297114 
L 636.350547 61.507608 
L 638.625312 61.886754 
L 640.900078 64.056378 
L 645.449609 64.381696 
L 647.724374 64.510163 
L 649.99914 65.270612 
L 652.273906 65.547581 
L 654.548671 65.463175 
L 656.823437 64.914133 
L 659.098202 65.908279 
L 661.372968 67.080987 
L 663.647734 68.715197 
L 665.922499 69.812393 
L 668.197265 70.646896 
L 670.47203 71.077995 
L 672.746796 72.339484 
L 675.021562 74.410148 
L 677.296327 74.919646 
L 679.571093 75.670369 
L 681.845858 76.653469 
L 684.120624 76.942767 
L 686.39539 77.443235 
L 688.670155 78.341967 
L 690.944921 78.812292 
L 693.219686 79.508717 
L 695.494452 79.534889 
L 697.769218 78.651718 
L 700.043983 78.905731 
L 702.318749 78.990982 
L 704.593514 80.405346 
L 706.86828 79.992968 
L 711.417811 82.311595 
L 713.692577 83.226096 
L 715.967342 82.924179 
L 718.242108 83.429431 
L 720.516873 83.307231 
L 722.791639 85.873181 
L 725.066405 87.828954 
L 727.34117 91.329496 
L 729.615936 95.620548 
L 731.890701 101.057354 
L 734.165467 106.123729 
L 736.440233 114.440203 
L 738.714998 118.988328 
L 740.989764 124.240581 
L 743.264529 126.848945 
L 745.539295 126.732195 
L 747.814061 127.621479 
L 750.088826 127.38121 
L 752.363592 127.501054 
L 754.638357 128.858931 
L 756.913123 132.47125 
L 759.187889 133.367479 
L 761.462654 136.961186 
L 763.73742 135.345282 
L 766.012185 134.936937 
L 768.286951 135.510517 
L 770.561717 137.31518 
L 772.836482 138.038654 
L 775.111248 138.130586 
L 777.386013 139.846277 
L 779.660779 143.110565 
L 781.935544 142.335118 
L 784.21031 144.262051 
L 786.485076 146.350933 
L 788.759841 146.350933 
L 791.034607 149.344096 
L 793.309372 150.077709 
L 795.584138 151.772136 
L 797.858904 158.714475 
L 802.408435 164.369128 
L 804.6832 173.542993 
L 806.957966 179.092051 
L 809.232732 185.002388 
L 811.507497 187.555157 
L 813.782263 185.616436 
L 816.057028 188.236505 
L 818.331794 186.24603 
L 820.60656 179.574933 
L 822.881325 179.574933 
L 825.156091 175.122423 
L 827.430856 174.718062 
L 829.705622 171.347363 
L 831.980388 172.057916 
L 834.255153 165.728354 
L 836.529919 155.001825 
L 838.804684 153.419603 
L 841.07945 155.184007 
L 843.354216 155.367533 
L 845.628981 157.885476 
L 847.903747 157.885476 
L 850.178512 163.58788 
L 852.453278 187.555157 
L 854.728043 195.390484 
L 857.002809 196.328998 
L 859.277575 198.319472 
L 863.827106 198.319472 
L 866.101871 202.853383 
L 870.651403 205.473452 
L 872.926168 210.007362 
L 875.200934 208.40244 
L 877.475699 213.565945 
L 879.750465 217.720189 
L 882.025231 211.723053 
L 884.299996 213.565945 
L 886.574762 213.565945 
L 888.849527 211.723053 
L 891.124293 213.565945 
L 893.399059 210.007362 
L 895.673824 204.128927 
L 897.94859 201.640085 
L 900.223355 200.483242 
L 904.772887 202.853383 
L 907.047652 201.640085 
L 909.322418 201.640085 
L 911.597183 205.473452 
L 913.871949 211.723053 
L 916.146714 211.723053 
L 918.42148 210.007362 
L 920.696246 210.007362 
L 925.245777 213.565945 
L 927.520542 213.565945 
L 929.795308 211.723053 
L 932.070074 213.565945 
L 941.169136 213.565945 
L 943.443902 211.723053 
L 945.718667 215.556419 
L 947.993433 211.723053 
L 950.268198 211.723053 
L 952.542964 210.007362 
L 954.81773 210.007362 
L 957.092495 211.723053 
L 959.367261 217.720189 
L 961.642026 215.556419 
L 963.916792 211.723053 
L 966.191558 211.723053 
L 968.466323 208.40244 
L 975.29062 208.40244 
L 977.565385 210.007362 
L 979.840151 217.720189 
L 982.114917 220.09033 
L 984.389682 228.96 
L 995.76351 228.96 
L 998.038276 225.639387 
L 1000.313041 217.720189 
L 1002.587807 215.556419 
L 1004.862573 215.556419 
L 1007.137338 213.565945 
L 1011.686869 213.565945 
L 1013.961635 215.556419 
L 1016.236401 222.710399 
L 1018.511166 225.639387 
L 1036.709291 225.639387 
L 1038.984057 228.96 
L 1041.258822 225.639387 
L 1043.533588 222.710399 
L 1045.808353 220.09033 
L 1045.808353 220.09033 
" clip-path="url(#p8a2a334c46)" style="fill: none; stroke: #d18cad; stroke-width: 2; stroke-linecap: square"/>
   </g>
   <g id="line2d_22">
    <path d="M 352.004847 215.556419 
L 354.279613 220.09033 
L 356.554379 222.710399 
L 358.829144 211.723053 
L 361.10391 206.894848 
L 363.378675 206.894848 
L 365.653441 205.473452 
L 367.928207 205.473452 
L 370.202972 201.640085 
L 374.752503 199.37783 
L 377.027269 199.37783 
L 379.302034 192.770415 
L 381.5768 191.955009 
L 383.851566 192.770415 
L 386.126331 192.770415 
L 388.401097 188.236505 
L 390.675862 191.955009 
L 392.950628 191.955009 
L 395.225394 195.390484 
L 397.500159 197.304325 
L 399.774925 196.328998 
L 402.04969 198.319472 
L 404.324456 202.853383 
L 406.599222 201.640085 
L 408.873987 199.37783 
L 413.423518 197.304325 
L 415.698284 198.319472 
L 417.97305 197.304325 
L 420.247815 200.483242 
L 422.522581 199.37783 
L 424.797346 200.483242 
L 427.072112 204.128927 
L 429.346878 205.473452 
L 431.621643 204.128927 
L 433.896409 200.483242 
L 436.171174 200.483242 
L 438.44594 199.37783 
L 440.720706 199.37783 
L 442.995471 198.319472 
L 445.270237 198.319472 
L 447.545002 199.37783 
L 449.819768 194.486106 
L 452.094533 192.770415 
L 454.369299 191.955009 
L 456.644065 194.486106 
L 458.91883 192.770415 
L 461.193596 192.770415 
L 463.468361 191.955009 
L 465.743127 196.328998 
L 468.017893 192.770415 
L 470.292658 192.770415 
L 474.842189 170.65655 
L 477.116955 169.984411 
L 479.391721 167.765441 
L 481.666486 166.581043 
L 483.941252 166.293553 
L 486.216017 166.293553 
L 488.490783 166.581043 
L 490.765549 172.057916 
L 493.040314 167.166192 
L 495.31508 167.166192 
L 497.589845 163.58788 
L 499.864611 162.830431 
L 502.139377 160.46029 
L 504.414142 162.337986 
L 506.688908 159.354879 
L 508.963673 161.617134 
L 511.238439 160.91659 
L 513.513204 158.714475 
L 515.78797 157.083224 
L 518.062736 154.28616 
L 520.337501 153.935905 
L 522.612267 157.885476 
L 524.887032 158.50462 
L 527.161798 158.926116 
L 529.436564 161.147919 
L 531.711329 160.235242 
L 533.986095 163.080359 
L 536.26086 162.337986 
L 538.535626 161.855104 
L 540.810392 160.46029 
L 543.085157 156.691599 
L 545.359923 151.613237 
L 547.634688 151.613237 
L 549.909454 151.772136 
L 552.18422 148.352092 
L 554.458985 147.66699 
L 556.733751 147.532205 
L 559.008516 150.833623 
L 561.283282 148.491407 
L 563.558048 144.618157 
L 565.832813 144.738001 
L 568.107579 147.93877 
L 570.382344 148.352092 
L 572.65711 147.802508 
L 574.931876 145.101039 
L 577.206641 145.469456 
L 579.481407 145.969325 
L 581.756172 145.593484 
L 586.305703 142.335118 
L 588.580469 140.445527 
L 590.855235 141.059574 
L 593.13 143.223343 
L 595.404766 143.679643 
L 597.679531 142.88653 
L 599.954297 143.110565 
L 602.229063 143.564781 
L 604.503828 146.095878 
L 606.778594 145.223239 
L 609.053359 146.095878 
L 611.328125 145.843413 
L 613.602891 146.223079 
L 615.877656 146.223079 
L 618.152422 145.718134 
L 620.427187 145.718134 
L 622.701953 147.264808 
L 624.976719 147.66699 
L 627.251484 151.772136 
L 634.075781 156.691599 
L 636.350547 157.682474 
L 638.625312 159.354879 
L 640.900078 158.50462 
L 643.174843 158.926116 
L 645.449609 158.090149 
L 647.724374 156.691599 
L 649.99914 155.552423 
L 652.273906 155.552423 
L 654.548671 154.463155 
L 656.823437 157.083224 
L 659.098202 157.481115 
L 661.372968 154.110416 
L 663.647734 156.115489 
L 665.922499 159.572065 
L 668.197265 159.139573 
L 670.47203 157.885476 
L 672.746796 157.281374 
L 675.021562 156.498076 
L 677.296327 158.50462 
L 679.571093 156.115489 
L 681.845858 154.820969 
L 684.120624 155.367533 
L 688.670155 160.687394 
L 690.944921 156.306046 
L 693.219686 159.139573 
L 695.494452 161.38142 
L 697.769218 161.617134 
L 700.043983 162.095373 
L 702.318749 161.617134 
L 704.593514 161.38142 
L 706.86828 167.765441 
L 709.143046 169.009083 
L 711.417811 172.057916 
L 713.692577 173.542993 
L 715.967342 173.163327 
L 718.242108 172.057916 
L 720.516873 168.379489 
L 722.791639 169.984411 
L 725.066405 167.464011 
L 727.34117 164.635094 
L 731.890701 164.635094 
L 734.165467 165.175717 
L 736.440233 166.009348 
L 738.714998 165.175717 
L 740.989764 166.009348 
L 743.264529 165.728354 
L 745.539295 165.175717 
L 747.814061 165.4505 
L 750.088826 165.175717 
L 752.363592 166.871896 
L 756.913123 168.692294 
L 759.187889 170.31821 
L 761.462654 172.78937 
L 763.73742 173.163327 
L 766.012185 174.718062 
L 768.286951 173.163327 
L 770.561717 172.78937 
L 772.836482 173.928546 
L 775.111248 174.718062 
L 777.386013 173.542993 
L 779.660779 172.78937 
L 781.935544 173.163327 
L 784.21031 178.618367 
L 786.485076 182.687447 
L 788.759841 183.246295 
L 791.034607 186.89198 
L 793.309372 188.937049 
L 795.584138 188.937049 
L 797.858904 188.236505 
L 802.408435 184.403138 
L 804.6832 185.002388 
L 809.232732 177.249159 
L 811.507497 178.618367 
L 813.782263 177.249159 
L 816.057028 175.533468 
L 818.331794 172.420954 
L 820.60656 170.31821 
L 822.881325 169.329961 
L 825.156091 170.999558 
L 827.430856 170.999558 
L 829.705622 172.420954 
L 831.980388 174.718062 
L 834.255153 180.067378 
L 836.529919 184.403138 
L 838.804684 190.400274 
L 841.07945 191.955009 
L 843.354216 190.400274 
L 845.628981 191.165493 
L 847.903747 195.390484 
L 850.178512 194.486106 
L 852.453278 195.390484 
L 854.728043 194.486106 
L 857.002809 194.486106 
L 859.277575 197.304325 
L 861.55234 199.37783 
L 863.827106 200.483242 
L 866.101871 204.128927 
L 868.376637 202.853383 
L 870.651403 202.853383 
L 872.926168 199.37783 
L 877.475699 199.37783 
L 879.750465 200.483242 
L 882.025231 198.319472 
L 886.574762 200.483242 
L 888.849527 204.128927 
L 891.124293 204.128927 
L 893.399059 200.483242 
L 895.673824 199.37783 
L 897.94859 200.483242 
L 902.498121 200.483242 
L 907.047652 202.853383 
L 909.322418 206.894848 
L 911.597183 210.007362 
L 913.871949 213.565945 
L 916.146714 211.723053 
L 918.42148 213.565945 
L 920.696246 215.556419 
L 922.971011 215.556419 
L 925.245777 213.565945 
L 927.520542 217.720189 
L 929.795308 215.556419 
L 932.070074 220.09033 
L 934.344839 222.710399 
L 936.619605 222.710399 
L 938.89437 220.09033 
L 941.169136 220.09033 
L 943.443902 217.720189 
L 952.542964 217.720189 
L 954.81773 220.09033 
L 957.092495 222.710399 
L 959.367261 225.639387 
L 961.642026 228.96 
L 963.916792 228.96 
L 966.191558 225.639387 
L 979.840151 225.639387 
L 982.114917 228.96 
L 1002.587807 228.96 
L 1004.862573 225.639387 
L 1011.686869 225.639387 
L 1013.961635 222.710399 
L 1018.511166 222.710399 
L 1020.785932 225.639387 
L 1023.060697 222.710399 
L 1023.060697 222.710399 
" clip-path="url(#p8a2a334c46)" style="fill: none; stroke: #a4a86f; stroke-width: 2; stroke-linecap: square"/>
   </g>
   <g id="line2d_23">
    <path d="M 304.23477 225.639387 
L 306.509536 228.96 
L 308.784301 228.96 
L 311.059067 222.710399 
L 313.333832 222.710399 
L 315.608598 215.556419 
L 324.70766 215.556419 
L 326.982426 217.720189 
L 329.257191 217.720189 
L 331.531957 225.639387 
L 333.806723 217.720189 
L 336.081488 213.565945 
L 340.631019 213.565945 
L 342.905785 211.723053 
L 345.180551 211.723053 
L 347.455316 210.007362 
L 349.730082 210.007362 
L 352.004847 211.723053 
L 354.279613 208.40244 
L 356.554379 208.40244 
L 358.829144 210.007362 
L 361.10391 206.894848 
L 363.378675 197.304325 
L 365.653441 196.328998 
L 367.928207 197.304325 
L 370.202972 199.37783 
L 372.477738 198.319472 
L 374.752503 193.613467 
L 379.302034 195.390484 
L 381.5768 194.486106 
L 383.851566 192.770415 
L 386.126331 190.400274 
L 388.401097 190.400274 
L 390.675862 192.770415 
L 392.950628 190.400274 
L 395.225394 193.613467 
L 397.500159 193.613467 
L 399.774925 194.486106 
L 402.04969 192.770415 
L 404.324456 192.770415 
L 406.599222 191.955009 
L 408.873987 191.955009 
L 411.148753 190.400274 
L 415.698284 188.937049 
L 417.97305 191.955009 
L 422.522581 191.955009 
L 424.797346 193.613467 
L 427.072112 197.304325 
L 429.346878 200.483242 
L 431.621643 201.640085 
L 433.896409 201.640085 
L 436.171174 198.319472 
L 438.44594 195.390484 
L 440.720706 197.304325 
L 442.995471 197.304325 
L 445.270237 200.483242 
L 447.545002 200.483242 
L 449.819768 192.770415 
L 452.094533 190.400274 
L 454.369299 196.328998 
L 456.644065 184.403138 
L 458.91883 182.687447 
L 461.193596 180.067378 
L 463.468361 180.067378 
L 465.743127 183.246295 
L 468.017893 185.616436 
L 470.292658 184.403138 
L 472.567424 190.400274 
L 474.842189 191.165493 
L 477.116955 194.486106 
L 479.391721 190.400274 
L 481.666486 191.955009 
L 483.941252 191.165493 
L 486.216017 191.165493 
L 488.490783 195.390484 
L 490.765549 197.304325 
L 493.040314 193.613467 
L 495.31508 197.304325 
L 497.589845 195.390484 
L 499.864611 196.328998 
L 502.139377 190.400274 
L 504.414142 188.236505 
L 508.963673 189.657901 
L 511.238439 188.937049 
L 513.513204 186.89198 
L 515.78797 185.002388 
L 518.062736 187.555157 
L 520.337501 188.937049 
L 524.887032 180.067378 
L 527.161798 179.092051 
L 529.436564 179.574933 
L 531.711329 181.606074 
L 533.986095 183.246295 
L 536.26086 181.082526 
L 538.535626 183.81799 
L 540.810392 189.657901 
L 543.085157 191.165493 
L 545.359923 188.236505 
L 547.634688 188.236505 
L 549.909454 186.24603 
L 552.18422 188.937049 
L 554.458985 190.400274 
L 556.733751 184.403138 
L 559.008516 184.403138 
L 561.283282 181.606074 
L 563.558048 180.569772 
L 565.832813 179.092051 
L 568.107579 178.153537 
L 570.382344 175.533468 
L 572.65711 177.249159 
L 574.931876 177.697237 
L 577.206641 180.569772 
L 579.481407 180.067378 
L 581.756172 182.687447 
L 584.030938 183.81799 
L 586.305703 186.24603 
L 588.580469 186.89198 
L 590.855235 183.246295 
L 593.13 183.81799 
L 595.404766 180.067378 
L 597.679531 179.574933 
L 599.954297 178.618367 
L 604.503828 172.420954 
L 606.778594 174.320171 
L 609.053359 175.951422 
L 611.328125 173.928546 
L 615.877656 173.163327 
L 618.152422 173.928546 
L 620.427187 176.37652 
L 622.701953 173.928546 
L 624.976719 170.65655 
L 627.251484 174.320171 
L 629.52625 175.951422 
L 634.075781 176.809012 
L 636.350547 179.574933 
L 638.625312 182.140883 
L 640.900078 185.616436 
L 643.174843 185.002388 
L 645.449609 182.687447 
L 647.724374 183.246295 
L 649.99914 185.616436 
L 652.273906 186.89198 
L 654.548671 189.657901 
L 656.823437 191.165493 
L 659.098202 191.955009 
L 661.372968 196.328998 
L 663.647734 191.955009 
L 665.922499 189.657901 
L 668.197265 190.400274 
L 670.47203 190.400274 
L 672.746796 193.613467 
L 675.021562 197.304325 
L 677.296327 196.328998 
L 679.571093 205.473452 
L 681.845858 213.565945 
L 684.120624 211.723053 
L 686.39539 208.40244 
L 688.670155 208.40244 
L 690.944921 213.565945 
L 693.219686 208.40244 
L 695.494452 210.007362 
L 697.769218 208.40244 
L 700.043983 208.40244 
L 702.318749 211.723053 
L 704.593514 210.007362 
L 706.86828 201.640085 
L 709.143046 202.853383 
L 711.417811 200.483242 
L 713.692577 199.37783 
L 715.967342 195.390484 
L 718.242108 194.486106 
L 720.516873 192.770415 
L 722.791639 195.390484 
L 727.34117 197.304325 
L 729.615936 197.304325 
L 731.890701 201.640085 
L 736.440233 204.128927 
L 738.714998 205.473452 
L 740.989764 205.473452 
L 743.264529 206.894848 
L 745.539295 210.007362 
L 747.814061 210.007362 
L 750.088826 206.894848 
L 752.363592 202.853383 
L 754.638357 204.128927 
L 756.913123 202.853383 
L 759.187889 200.483242 
L 761.462654 199.37783 
L 763.73742 196.328998 
L 766.012185 197.304325 
L 768.286951 200.483242 
L 770.561717 199.37783 
L 772.836482 202.853383 
L 775.111248 200.483242 
L 777.386013 198.319472 
L 779.660779 196.328998 
L 781.935544 191.955009 
L 784.21031 192.770415 
L 786.485076 191.955009 
L 788.759841 189.657901 
L 791.034607 192.770415 
L 793.309372 195.390484 
L 795.584138 195.390484 
L 797.858904 200.483242 
L 800.133669 193.613467 
L 802.408435 194.486106 
L 804.6832 197.304325 
L 806.957966 197.304325 
L 809.232732 198.319472 
L 811.507497 205.473452 
L 813.782263 206.894848 
L 816.057028 220.09033 
L 818.331794 225.639387 
L 825.156091 225.639387 
L 827.430856 222.710399 
L 829.705622 222.710399 
L 831.980388 217.720189 
L 845.628981 217.720189 
L 847.903747 225.639387 
L 850.178512 225.639387 
L 852.453278 210.007362 
L 857.002809 210.007362 
L 859.277575 211.723053 
L 866.101871 211.723053 
L 868.376637 225.639387 
L 870.651403 225.639387 
L 872.926168 222.710399 
L 877.475699 222.710399 
L 879.750465 220.09033 
L 882.025231 220.09033 
L 884.299996 222.710399 
L 886.574762 217.720189 
L 886.574762 217.720189 
" clip-path="url(#p8a2a334c46)" style="fill: none; stroke: #d3d3d3; stroke-width: 2; stroke-linecap: square"/>
   </g>
   <g id="patch_3">
    <path d="M 53.328125 228.96 
L 53.328125 7.2 
" style="fill: none; stroke: #000000; stroke-width: 0.8; stroke-linejoin: miter; stroke-linecap: square"/>
   </g>
   <g id="patch_4">
    <path d="M 53.328125 228.96 
L 1169.328125 228.96 
" style="fill: none; stroke: #000000; stroke-width: 0.8; stroke-linejoin: miter; stroke-linecap: square"/>
   </g>
   <g id="legend_1">
    <g id="line2d_24">
     <path d="M 1075.516875 17.67875 
L 1083.516875 17.67875 
L 1091.516875 17.67875 
" style="fill: none; stroke: #947383; stroke-width: 2; stroke-linecap: square"/>
    </g>
    <g id="text_19">
     <!-- North America -->
     <g transform="translate(1097.916875 20.47875)scale(0.08 -0.08)">
      <defs>
       <path id="DejaVuSans-4e" d="M 628 4666 
L 1478 4666 
L 3547 763 
L 3547 4666 
L 4159 4666 
L 4159 0 
L 3309 0 
L 1241 3903 
L 1241 0 
L 628 0 
L 628 4666 
z
" transform="scale(0.015625)"/>
       <path id="DejaVuSans-68" d="M 3513 2113 
L 3513 0 
L 2938 0 
L 2938 2094 
Q 2938 2591 2744 2837 
Q 2550 3084 2163 3084 
Q 1697 3084 1428 2787 
Q 1159 2491 1159 1978 
L 1159 0 
L 581 0 
L 581 4863 
L 1159 4863 
L 1159 2956 
Q 1366 3272 1645 3428 
Q 1925 3584 2291 3584 
Q 2894 3584 3203 3211 
Q 3513 2838 3513 2113 
z
" transform="scale(0.015625)"/>
       <path id="DejaVuSans-41" d="M 2188 4044 
L 1331 1722 
L 3047 1722 
L 2188 4044 
z
M 1831 4666 
L 2547 4666 
L 4325 0 
L 3669 0 
L 3244 1197 
L 1141 1197 
L 716 0 
L 50 0 
L 1831 4666 
z
" transform="scale(0.015625)"/>
       <path id="DejaVuSans-6d" d="M 3328 2828 
Q 3544 3216 3844 3400 
Q 4144 3584 4550 3584 
Q 5097 3584 5394 3201 
Q 5691 2819 5691 2113 
L 5691 0 
L 5113 0 
L 5113 2094 
Q 5113 2597 4934 2840 
Q 4756 3084 4391 3084 
Q 3944 3084 3684 2787 
Q 3425 2491 3425 1978 
L 3425 0 
L 2847 0 
L 2847 2094 
Q 2847 2600 2669 2842 
Q 2491 3084 2119 3084 
Q 1678 3084 1418 2786 
Q 1159 2488 1159 1978 
L 1159 0 
L 581 0 
L 581 3500 
L 1159 3500 
L 1159 2956 
Q 1356 3278 1631 3431 
Q 1906 3584 2284 3584 
Q 2666 3584 2933 3390 
Q 3200 3197 3328 2828 
z
" transform="scale(0.015625)"/>
       <path id="DejaVuSans-63" d="M 3122 3366 
L 3122 2828 
Q 2878 2963 2633 3030 
Q 2388 3097 2138 3097 
Q 1578 3097 1268 2742 
Q 959 2388 959 1747 
Q 959 1106 1268 751 
Q 1578 397 2138 397 
Q 2388 397 2633 464 
Q 2878 531 3122 666 
L 3122 134 
Q 2881 22 2623 -34 
Q 2366 -91 2075 -91 
Q 1284 -91 818 406 
Q 353 903 353 1747 
Q 353 2603 823 3093 
Q 1294 3584 2113 3584 
Q 2378 3584 2631 3529 
Q 2884 3475 3122 3366 
z
" transform="scale(0.015625)"/>
      </defs>
      <use xlink:href="#DejaVuSans-4e"/>
      <use xlink:href="#DejaVuSans-6f" x="74.804688"/>
      <use xlink:href="#DejaVuSans-72" x="135.986328"/>
      <use xlink:href="#DejaVuSans-74" x="177.099609"/>
      <use xlink:href="#DejaVuSans-68" x="216.308594"/>
      <use xlink:href="#DejaVuSans-20" x="279.6875"/>
      <use xlink:href="#DejaVuSans-41" x="311.474609"/>
      <use xlink:href="#DejaVuSans-6d" x="379.882812"/>
      <use xlink:href="#DejaVuSans-65" x="477.294922"/>
      <use xlink:href="#DejaVuSans-72" x="538.818359"/>
      <use xlink:href="#DejaVuSans-69" x="579.931641"/>
      <use xlink:href="#DejaVuSans-63" x="607.714844"/>
      <use xlink:href="#DejaVuSans-61" x="662.695312"/>
     </g>
    </g>
    <g id="line2d_25">
     <path d="M 1075.516875 29.42125 
L 1083.516875 29.42125 
L 1091.516875 29.42125 
" style="fill: none; stroke: #96c6ad; stroke-width: 2; stroke-linecap: square"/>
    </g>
    <g id="text_20">
     <!-- Africa -->
     <g transform="translate(1097.916875 32.22125)scale(0.08 -0.08)">
      <defs>
       <path id="DejaVuSans-66" d="M 2375 4863 
L 2375 4384 
L 1825 4384 
Q 1516 4384 1395 4259 
Q 1275 4134 1275 3809 
L 1275 3500 
L 2222 3500 
L 2222 3053 
L 1275 3053 
L 1275 0 
L 697 0 
L 697 3053 
L 147 3053 
L 147 3500 
L 697 3500 
L 697 3744 
Q 697 4328 969 4595 
Q 1241 4863 1831 4863 
L 2375 4863 
z
" transform="scale(0.015625)"/>
      </defs>
      <use xlink:href="#DejaVuSans-41"/>
      <use xlink:href="#DejaVuSans-66" x="64.783203"/>
      <use xlink:href="#DejaVuSans-72" x="99.988281"/>
      <use xlink:href="#DejaVuSans-69" x="141.101562"/>
      <use xlink:href="#DejaVuSans-63" x="168.884766"/>
      <use xlink:href="#DejaVuSans-61" x="223.865234"/>
     </g>
    </g>
    <g id="line2d_26">
     <path d="M 1075.516875 41.16375 
L 1083.516875 41.16375 
L 1091.516875 41.16375 
" style="fill: none; stroke: #525886; stroke-width: 2; stroke-linecap: square"/>
    </g>
    <g id="text_21">
     <!-- Asia -->
     <g transform="translate(1097.916875 43.96375)scale(0.08 -0.08)">
      <defs>
       <path id="DejaVuSans-73" d="M 2834 3397 
L 2834 2853 
Q 2591 2978 2328 3040 
Q 2066 3103 1784 3103 
Q 1356 3103 1142 2972 
Q 928 2841 928 2578 
Q 928 2378 1081 2264 
Q 1234 2150 1697 2047 
L 1894 2003 
Q 2506 1872 2764 1633 
Q 3022 1394 3022 966 
Q 3022 478 2636 193 
Q 2250 -91 1575 -91 
Q 1294 -91 989 -36 
Q 684 19 347 128 
L 347 722 
Q 666 556 975 473 
Q 1284 391 1588 391 
Q 1994 391 2212 530 
Q 2431 669 2431 922 
Q 2431 1156 2273 1281 
Q 2116 1406 1581 1522 
L 1381 1569 
Q 847 1681 609 1914 
Q 372 2147 372 2553 
Q 372 3047 722 3315 
Q 1072 3584 1716 3584 
Q 2034 3584 2315 3537 
Q 2597 3491 2834 3397 
z
" transform="scale(0.015625)"/>
      </defs>
      <use xlink:href="#DejaVuSans-41"/>
      <use xlink:href="#DejaVuSans-73" x="68.408203"/>
      <use xlink:href="#DejaVuSans-69" x="120.507812"/>
      <use xlink:href="#DejaVuSans-61" x="148.291016"/>
     </g>
    </g>
    <g id="line2d_27">
     <path d="M 1075.516875 52.90625 
L 1083.516875 52.90625 
L 1091.516875 52.90625 
" style="fill: none; stroke: #937252; stroke-width: 2; stroke-linecap: square"/>
    </g>
    <g id="text_22">
     <!-- Europe -->
     <g transform="translate(1097.916875 55.70625)scale(0.08 -0.08)">
      <defs>
       <path id="DejaVuSans-45" d="M 628 4666 
L 3578 4666 
L 3578 4134 
L 1259 4134 
L 1259 2753 
L 3481 2753 
L 3481 2222 
L 1259 2222 
L 1259 531 
L 3634 531 
L 3634 0 
L 628 0 
L 628 4666 
z
" transform="scale(0.015625)"/>
       <path id="DejaVuSans-70" d="M 1159 525 
L 1159 -1331 
L 581 -1331 
L 581 3500 
L 1159 3500 
L 1159 2969 
Q 1341 3281 1617 3432 
Q 1894 3584 2278 3584 
Q 2916 3584 3314 3078 
Q 3713 2572 3713 1747 
Q 3713 922 3314 415 
Q 2916 -91 2278 -91 
Q 1894 -91 1617 61 
Q 1341 213 1159 525 
z
M 3116 1747 
Q 3116 2381 2855 2742 
Q 2594 3103 2138 3103 
Q 1681 3103 1420 2742 
Q 1159 2381 1159 1747 
Q 1159 1113 1420 752 
Q 1681 391 2138 391 
Q 2594 391 2855 752 
Q 3116 1113 3116 1747 
z
" transform="scale(0.015625)"/>
      </defs>
      <use xlink:href="#DejaVuSans-45"/>
      <use xlink:href="#DejaVuSans-75" x="63.183594"/>
      <use xlink:href="#DejaVuSans-72" x="126.5625"/>
      <use xlink:href="#DejaVuSans-6f" x="165.425781"/>
      <use xlink:href="#DejaVuSans-70" x="226.607422"/>
      <use xlink:href="#DejaVuSans-65" x="290.083984"/>
     </g>
    </g>
    <g id="line2d_28">
     <path d="M 1075.516875 64.64875 
L 1083.516875 64.64875 
L 1091.516875 64.64875 
" style="fill: none; stroke: #d18cad; stroke-width: 2; stroke-linecap: square"/>
    </g>
    <g id="text_23">
     <!-- United Kingdom -->
     <g transform="translate(1097.916875 67.44875)scale(0.08 -0.08)">
      <defs>
       <path id="DejaVuSans-55" d="M 556 4666 
L 1191 4666 
L 1191 1831 
Q 1191 1081 1462 751 
Q 1734 422 2344 422 
Q 2950 422 3222 751 
Q 3494 1081 3494 1831 
L 3494 4666 
L 4128 4666 
L 4128 1753 
Q 4128 841 3676 375 
Q 3225 -91 2344 -91 
Q 1459 -91 1007 375 
Q 556 841 556 1753 
L 556 4666 
z
" transform="scale(0.015625)"/>
       <path id="DejaVuSans-4b" d="M 628 4666 
L 1259 4666 
L 1259 2694 
L 3353 4666 
L 4166 4666 
L 1850 2491 
L 4331 0 
L 3500 0 
L 1259 2247 
L 1259 0 
L 628 0 
L 628 4666 
z
" transform="scale(0.015625)"/>
      </defs>
      <use xlink:href="#DejaVuSans-55"/>
      <use xlink:href="#DejaVuSans-6e" x="73.193359"/>
      <use xlink:href="#DejaVuSans-69" x="136.572266"/>
      <use xlink:href="#DejaVuSans-74" x="164.355469"/>
      <use xlink:href="#DejaVuSans-65" x="203.564453"/>
      <use xlink:href="#DejaVuSans-64" x="265.087891"/>
      <use xlink:href="#DejaVuSans-20" x="328.564453"/>
      <use xlink:href="#DejaVuSans-4b" x="360.351562"/>
      <use xlink:href="#DejaVuSans-69" x="425.927734"/>
      <use xlink:href="#DejaVuSans-6e" x="453.710938"/>
      <use xlink:href="#DejaVuSans-67" x="517.089844"/>
      <use xlink:href="#DejaVuSans-64" x="580.566406"/>
      <use xlink:href="#DejaVuSans-6f" x="644.042969"/>
      <use xlink:href="#DejaVuSans-6d" x="705.224609"/>
     </g>
    </g>
    <g id="line2d_29">
     <path d="M 1075.516875 76.39125 
L 1083.516875 76.39125 
L 1091.516875 76.39125 
" style="fill: none; stroke: #a4a86f; stroke-width: 2; stroke-linecap: square"/>
    </g>
    <g id="text_24">
     <!-- South America -->
     <g transform="translate(1097.916875 79.19125)scale(0.08 -0.08)">
      <defs>
       <path id="DejaVuSans-53" d="M 3425 4513 
L 3425 3897 
Q 3066 4069 2747 4153 
Q 2428 4238 2131 4238 
Q 1616 4238 1336 4038 
Q 1056 3838 1056 3469 
Q 1056 3159 1242 3001 
Q 1428 2844 1947 2747 
L 2328 2669 
Q 3034 2534 3370 2195 
Q 3706 1856 3706 1288 
Q 3706 609 3251 259 
Q 2797 -91 1919 -91 
Q 1588 -91 1214 -16 
Q 841 59 441 206 
L 441 856 
Q 825 641 1194 531 
Q 1563 422 1919 422 
Q 2459 422 2753 634 
Q 3047 847 3047 1241 
Q 3047 1584 2836 1778 
Q 2625 1972 2144 2069 
L 1759 2144 
Q 1053 2284 737 2584 
Q 422 2884 422 3419 
Q 422 4038 858 4394 
Q 1294 4750 2059 4750 
Q 2388 4750 2728 4690 
Q 3069 4631 3425 4513 
z
" transform="scale(0.015625)"/>
      </defs>
      <use xlink:href="#DejaVuSans-53"/>
      <use xlink:href="#DejaVuSans-6f" x="63.476562"/>
      <use xlink:href="#DejaVuSans-75" x="124.658203"/>
      <use xlink:href="#DejaVuSans-74" x="188.037109"/>
      <use xlink:href="#DejaVuSans-68" x="227.246094"/>
      <use xlink:href="#DejaVuSans-20" x="290.625"/>
      <use xlink:href="#DejaVuSans-41" x="322.412109"/>
      <use xlink:href="#DejaVuSans-6d" x="390.820312"/>
      <use xlink:href="#DejaVuSans-65" x="488.232422"/>
      <use xlink:href="#DejaVuSans-72" x="549.755859"/>
      <use xlink:href="#DejaVuSans-69" x="590.869141"/>
      <use xlink:href="#DejaVuSans-63" x="618.652344"/>
      <use xlink:href="#DejaVuSans-61" x="673.632812"/>
     </g>
    </g>
    <g id="line2d_30">
     <path d="M 1075.516875 88.13375 
L 1083.516875 88.13375 
L 1091.516875 88.13375 
" style="fill: none; stroke: #d3d3d3; stroke-width: 2; stroke-linecap: square"/>
    </g>
    <g id="text_25">
     <!-- Oceania -->
     <g transform="translate(1097.916875 90.93375)scale(0.08 -0.08)">
      <defs>
       <path id="DejaVuSans-4f" d="M 2522 4238 
Q 1834 4238 1429 3725 
Q 1025 3213 1025 2328 
Q 1025 1447 1429 934 
Q 1834 422 2522 422 
Q 3209 422 3611 934 
Q 4013 1447 4013 2328 
Q 4013 3213 3611 3725 
Q 3209 4238 2522 4238 
z
M 2522 4750 
Q 3503 4750 4090 4092 
Q 4678 3434 4678 2328 
Q 4678 1225 4090 567 
Q 3503 -91 2522 -91 
Q 1538 -91 948 565 
Q 359 1222 359 2328 
Q 359 3434 948 4092 
Q 1538 4750 2522 4750 
z
" transform="scale(0.015625)"/>
      </defs>
      <use xlink:href="#DejaVuSans-4f"/>
      <use xlink:href="#DejaVuSans-63" x="78.710938"/>
      <use xlink:href="#DejaVuSans-65" x="133.691406"/>
      <use xlink:href="#DejaVuSans-61" x="195.214844"/>
      <use xlink:href="#DejaVuSans-6e" x="256.494141"/>
      <use xlink:href="#DejaVuSans-69" x="319.873047"/>
      <use xlink:href="#DejaVuSans-61" x="347.65625"/>
     </g>
    </g>
   </g>
  </g>
 </g>
 <defs>
  <clipPath id="p8a2a334c46">
   <rect x="53.328125" y="7.2" width="1116" height="221.76"/>
  </clipPath>
 </defs>
</svg>
