<?xml version="1.0" encoding="utf-8" standalone="no"?>
<!DOCTYPE svg PUBLIC "-//W3C//DTD SVG 1.1//EN"
  "http://www.w3.org/Graphics/SVG/1.1/DTD/svg11.dtd">
<svg height="298.620937pt" version="1.1" viewBox="0 0 1176.528125 298.620937" width="1176.528125pt" xmlns="http://www.w3.org/2000/svg" xmlns:xlink="http://www.w3.org/1999/xlink">
 <metadata>
  <rdf:RDF xmlns:cc="http://creativecommons.org/ns#" xmlns:dc="http://purl.org/dc/elements/1.1/" xmlns:rdf="http://www.w3.org/1999/02/22-rdf-syntax-ns#">
   <cc:Work>
    <dc:type rdf:resource="http://purl.org/dc/dcmitype/StillImage"/>
    <dc:date>2021-10-20T13:06:06.392740</dc:date>
    <dc:format>image/svg+xml</dc:format>
    <dc:creator>
     <cc:Agent>
      <dc:title>Matplotlib v3.4.2, https://matplotlib.org/</dc:title>
     </cc:Agent>
    </dc:creator>
   </cc:Work>
  </rdf:RDF>
 </metadata>
 <defs>
  <style type="text/css">*{stroke-linecap:butt;stroke-linejoin:round;}</style>
 </defs>
 <g id="figure_1">
  <g id="patch_1">
   <path d="M 0 298.620937 
L 1176.528125 298.620937 
L 1176.528125 0 
L 0 0 
z
" style="fill:#ffffff;"/>
  </g>
  <g id="axes_1">
   <g id="patch_2">
    <path d="M 53.328125 228.96 
L 1169.328125 228.96 
L 1169.328125 7.2 
L 53.328125 7.2 
z
" style="fill:#ffffff;"/>
   </g>
   <g id="matplotlib.axis_1">
    <g id="xtick_1">
     <g id="line2d_1">
      <defs>
       <path d="M 0 0 
L 0 3.5 
" id="m9d2ed0f81f" style="stroke:#000000;stroke-width:0.8;"/>
      </defs>
      <g>
       <use style="stroke:#000000;stroke-width:0.8;" x="83.45549" xlink:href="#m9d2ed0f81f" y="228.96"/>
      </g>
     </g>
     <g id="text_1">
      <!-- 2020-09 -->
      <g transform="translate(86.214865 277.742812)rotate(-90)scale(0.1 -0.1)">
       <defs>
        <path d="M 1228 531 
L 3431 531 
L 3431 0 
L 469 0 
L 469 531 
Q 828 903 1448 1529 
Q 2069 2156 2228 2338 
Q 2531 2678 2651 2914 
Q 2772 3150 2772 3378 
Q 2772 3750 2511 3984 
Q 2250 4219 1831 4219 
Q 1534 4219 1204 4116 
Q 875 4013 500 3803 
L 500 4441 
Q 881 4594 1212 4672 
Q 1544 4750 1819 4750 
Q 2544 4750 2975 4387 
Q 3406 4025 3406 3419 
Q 3406 3131 3298 2873 
Q 3191 2616 2906 2266 
Q 2828 2175 2409 1742 
Q 1991 1309 1228 531 
z
" id="DejaVuSans-32" transform="scale(0.015625)"/>
        <path d="M 2034 4250 
Q 1547 4250 1301 3770 
Q 1056 3291 1056 2328 
Q 1056 1369 1301 889 
Q 1547 409 2034 409 
Q 2525 409 2770 889 
Q 3016 1369 3016 2328 
Q 3016 3291 2770 3770 
Q 2525 4250 2034 4250 
z
M 2034 4750 
Q 2819 4750 3233 4129 
Q 3647 3509 3647 2328 
Q 3647 1150 3233 529 
Q 2819 -91 2034 -91 
Q 1250 -91 836 529 
Q 422 1150 422 2328 
Q 422 3509 836 4129 
Q 1250 4750 2034 4750 
z
" id="DejaVuSans-30" transform="scale(0.015625)"/>
        <path d="M 313 2009 
L 1997 2009 
L 1997 1497 
L 313 1497 
L 313 2009 
z
" id="DejaVuSans-2d" transform="scale(0.015625)"/>
        <path d="M 703 97 
L 703 672 
Q 941 559 1184 500 
Q 1428 441 1663 441 
Q 2288 441 2617 861 
Q 2947 1281 2994 2138 
Q 2813 1869 2534 1725 
Q 2256 1581 1919 1581 
Q 1219 1581 811 2004 
Q 403 2428 403 3163 
Q 403 3881 828 4315 
Q 1253 4750 1959 4750 
Q 2769 4750 3195 4129 
Q 3622 3509 3622 2328 
Q 3622 1225 3098 567 
Q 2575 -91 1691 -91 
Q 1453 -91 1209 -44 
Q 966 3 703 97 
z
M 1959 2075 
Q 2384 2075 2632 2365 
Q 2881 2656 2881 3163 
Q 2881 3666 2632 3958 
Q 2384 4250 1959 4250 
Q 1534 4250 1286 3958 
Q 1038 3666 1038 3163 
Q 1038 2656 1286 2365 
Q 1534 2075 1959 2075 
z
" id="DejaVuSans-39" transform="scale(0.015625)"/>
       </defs>
       <use xlink:href="#DejaVuSans-32"/>
       <use x="63.623047" xlink:href="#DejaVuSans-30"/>
       <use x="127.246094" xlink:href="#DejaVuSans-32"/>
       <use x="190.869141" xlink:href="#DejaVuSans-30"/>
       <use x="254.492188" xlink:href="#DejaVuSans-2d"/>
       <use x="290.576172" xlink:href="#DejaVuSans-30"/>
       <use x="354.199219" xlink:href="#DejaVuSans-39"/>
      </g>
     </g>
    </g>
    <g id="xtick_2">
     <g id="line2d_2">
      <g>
       <use style="stroke:#000000;stroke-width:0.8;" x="240.529786" xlink:href="#m9d2ed0f81f" y="228.96"/>
      </g>
     </g>
     <g id="text_2">
      <!-- 2020-11 -->
      <g transform="translate(243.289161 277.742812)rotate(-90)scale(0.1 -0.1)">
       <defs>
        <path d="M 794 531 
L 1825 531 
L 1825 4091 
L 703 3866 
L 703 4441 
L 1819 4666 
L 2450 4666 
L 2450 531 
L 3481 531 
L 3481 0 
L 794 0 
L 794 531 
z
" id="DejaVuSans-31" transform="scale(0.015625)"/>
       </defs>
       <use xlink:href="#DejaVuSans-32"/>
       <use x="63.623047" xlink:href="#DejaVuSans-30"/>
       <use x="127.246094" xlink:href="#DejaVuSans-32"/>
       <use x="190.869141" xlink:href="#DejaVuSans-30"/>
       <use x="254.492188" xlink:href="#DejaVuSans-2d"/>
       <use x="290.576172" xlink:href="#DejaVuSans-31"/>
       <use x="354.199219" xlink:href="#DejaVuSans-31"/>
      </g>
     </g>
    </g>
    <g id="xtick_3">
     <g id="line2d_3">
      <g>
       <use style="stroke:#000000;stroke-width:0.8;" x="397.604083" xlink:href="#m9d2ed0f81f" y="228.96"/>
      </g>
     </g>
     <g id="text_3">
      <!-- 2021-01 -->
      <g transform="translate(400.363458 277.742812)rotate(-90)scale(0.1 -0.1)">
       <use xlink:href="#DejaVuSans-32"/>
       <use x="63.623047" xlink:href="#DejaVuSans-30"/>
       <use x="127.246094" xlink:href="#DejaVuSans-32"/>
       <use x="190.869141" xlink:href="#DejaVuSans-31"/>
       <use x="254.492188" xlink:href="#DejaVuSans-2d"/>
       <use x="290.576172" xlink:href="#DejaVuSans-30"/>
       <use x="354.199219" xlink:href="#DejaVuSans-31"/>
      </g>
     </g>
    </g>
    <g id="xtick_4">
     <g id="line2d_4">
      <g>
       <use style="stroke:#000000;stroke-width:0.8;" x="549.528402" xlink:href="#m9d2ed0f81f" y="228.96"/>
      </g>
     </g>
     <g id="text_4">
      <!-- 2021-03 -->
      <g transform="translate(552.287777 277.742812)rotate(-90)scale(0.1 -0.1)">
       <defs>
        <path d="M 2597 2516 
Q 3050 2419 3304 2112 
Q 3559 1806 3559 1356 
Q 3559 666 3084 287 
Q 2609 -91 1734 -91 
Q 1441 -91 1130 -33 
Q 819 25 488 141 
L 488 750 
Q 750 597 1062 519 
Q 1375 441 1716 441 
Q 2309 441 2620 675 
Q 2931 909 2931 1356 
Q 2931 1769 2642 2001 
Q 2353 2234 1838 2234 
L 1294 2234 
L 1294 2753 
L 1863 2753 
Q 2328 2753 2575 2939 
Q 2822 3125 2822 3475 
Q 2822 3834 2567 4026 
Q 2313 4219 1838 4219 
Q 1578 4219 1281 4162 
Q 984 4106 628 3988 
L 628 4550 
Q 988 4650 1302 4700 
Q 1616 4750 1894 4750 
Q 2613 4750 3031 4423 
Q 3450 4097 3450 3541 
Q 3450 3153 3228 2886 
Q 3006 2619 2597 2516 
z
" id="DejaVuSans-33" transform="scale(0.015625)"/>
       </defs>
       <use xlink:href="#DejaVuSans-32"/>
       <use x="63.623047" xlink:href="#DejaVuSans-30"/>
       <use x="127.246094" xlink:href="#DejaVuSans-32"/>
       <use x="190.869141" xlink:href="#DejaVuSans-31"/>
       <use x="254.492188" xlink:href="#DejaVuSans-2d"/>
       <use x="290.576172" xlink:href="#DejaVuSans-30"/>
       <use x="354.199219" xlink:href="#DejaVuSans-33"/>
      </g>
     </g>
    </g>
    <g id="xtick_5">
     <g id="line2d_5">
      <g>
       <use style="stroke:#000000;stroke-width:0.8;" x="706.602698" xlink:href="#m9d2ed0f81f" y="228.96"/>
      </g>
     </g>
     <g id="text_5">
      <!-- 2021-05 -->
      <g transform="translate(709.362073 277.742812)rotate(-90)scale(0.1 -0.1)">
       <defs>
        <path d="M 691 4666 
L 3169 4666 
L 3169 4134 
L 1269 4134 
L 1269 2991 
Q 1406 3038 1543 3061 
Q 1681 3084 1819 3084 
Q 2600 3084 3056 2656 
Q 3513 2228 3513 1497 
Q 3513 744 3044 326 
Q 2575 -91 1722 -91 
Q 1428 -91 1123 -41 
Q 819 9 494 109 
L 494 744 
Q 775 591 1075 516 
Q 1375 441 1709 441 
Q 2250 441 2565 725 
Q 2881 1009 2881 1497 
Q 2881 1984 2565 2268 
Q 2250 2553 1709 2553 
Q 1456 2553 1204 2497 
Q 953 2441 691 2322 
L 691 4666 
z
" id="DejaVuSans-35" transform="scale(0.015625)"/>
       </defs>
       <use xlink:href="#DejaVuSans-32"/>
       <use x="63.623047" xlink:href="#DejaVuSans-30"/>
       <use x="127.246094" xlink:href="#DejaVuSans-32"/>
       <use x="190.869141" xlink:href="#DejaVuSans-31"/>
       <use x="254.492188" xlink:href="#DejaVuSans-2d"/>
       <use x="290.576172" xlink:href="#DejaVuSans-30"/>
       <use x="354.199219" xlink:href="#DejaVuSans-35"/>
      </g>
     </g>
    </g>
    <g id="xtick_6">
     <g id="line2d_6">
      <g>
       <use style="stroke:#000000;stroke-width:0.8;" x="863.676994" xlink:href="#m9d2ed0f81f" y="228.96"/>
      </g>
     </g>
     <g id="text_6">
      <!-- 2021-07 -->
      <g transform="translate(866.436369 277.742812)rotate(-90)scale(0.1 -0.1)">
       <defs>
        <path d="M 525 4666 
L 3525 4666 
L 3525 4397 
L 1831 0 
L 1172 0 
L 2766 4134 
L 525 4134 
L 525 4666 
z
" id="DejaVuSans-37" transform="scale(0.015625)"/>
       </defs>
       <use xlink:href="#DejaVuSans-32"/>
       <use x="63.623047" xlink:href="#DejaVuSans-30"/>
       <use x="127.246094" xlink:href="#DejaVuSans-32"/>
       <use x="190.869141" xlink:href="#DejaVuSans-31"/>
       <use x="254.492188" xlink:href="#DejaVuSans-2d"/>
       <use x="290.576172" xlink:href="#DejaVuSans-30"/>
       <use x="354.199219" xlink:href="#DejaVuSans-37"/>
      </g>
     </g>
    </g>
    <g id="xtick_7">
     <g id="line2d_7">
      <g>
       <use style="stroke:#000000;stroke-width:0.8;" x="1023.326279" xlink:href="#m9d2ed0f81f" y="228.96"/>
      </g>
     </g>
     <g id="text_7">
      <!-- 2021-09 -->
      <g transform="translate(1026.085654 277.742812)rotate(-90)scale(0.1 -0.1)">
       <use xlink:href="#DejaVuSans-32"/>
       <use x="63.623047" xlink:href="#DejaVuSans-30"/>
       <use x="127.246094" xlink:href="#DejaVuSans-32"/>
       <use x="190.869141" xlink:href="#DejaVuSans-31"/>
       <use x="254.492188" xlink:href="#DejaVuSans-2d"/>
       <use x="290.576172" xlink:href="#DejaVuSans-30"/>
       <use x="354.199219" xlink:href="#DejaVuSans-39"/>
      </g>
     </g>
    </g>
    <g id="text_8">
     <!-- Date -->
     <g transform="translate(599.377344 289.34125)scale(0.1 -0.1)">
      <defs>
       <path d="M 1259 4147 
L 1259 519 
L 2022 519 
Q 2988 519 3436 956 
Q 3884 1394 3884 2338 
Q 3884 3275 3436 3711 
Q 2988 4147 2022 4147 
L 1259 4147 
z
M 628 4666 
L 1925 4666 
Q 3281 4666 3915 4102 
Q 4550 3538 4550 2338 
Q 4550 1131 3912 565 
Q 3275 0 1925 0 
L 628 0 
L 628 4666 
z
" id="DejaVuSans-44" transform="scale(0.015625)"/>
       <path d="M 2194 1759 
Q 1497 1759 1228 1600 
Q 959 1441 959 1056 
Q 959 750 1161 570 
Q 1363 391 1709 391 
Q 2188 391 2477 730 
Q 2766 1069 2766 1631 
L 2766 1759 
L 2194 1759 
z
M 3341 1997 
L 3341 0 
L 2766 0 
L 2766 531 
Q 2569 213 2275 61 
Q 1981 -91 1556 -91 
Q 1019 -91 701 211 
Q 384 513 384 1019 
Q 384 1609 779 1909 
Q 1175 2209 1959 2209 
L 2766 2209 
L 2766 2266 
Q 2766 2663 2505 2880 
Q 2244 3097 1772 3097 
Q 1472 3097 1187 3025 
Q 903 2953 641 2809 
L 641 3341 
Q 956 3463 1253 3523 
Q 1550 3584 1831 3584 
Q 2591 3584 2966 3190 
Q 3341 2797 3341 1997 
z
" id="DejaVuSans-61" transform="scale(0.015625)"/>
       <path d="M 1172 4494 
L 1172 3500 
L 2356 3500 
L 2356 3053 
L 1172 3053 
L 1172 1153 
Q 1172 725 1289 603 
Q 1406 481 1766 481 
L 2356 481 
L 2356 0 
L 1766 0 
Q 1100 0 847 248 
Q 594 497 594 1153 
L 594 3053 
L 172 3053 
L 172 3500 
L 594 3500 
L 594 4494 
L 1172 4494 
z
" id="DejaVuSans-74" transform="scale(0.015625)"/>
       <path d="M 3597 1894 
L 3597 1613 
L 953 1613 
Q 991 1019 1311 708 
Q 1631 397 2203 397 
Q 2534 397 2845 478 
Q 3156 559 3463 722 
L 3463 178 
Q 3153 47 2828 -22 
Q 2503 -91 2169 -91 
Q 1331 -91 842 396 
Q 353 884 353 1716 
Q 353 2575 817 3079 
Q 1281 3584 2069 3584 
Q 2775 3584 3186 3129 
Q 3597 2675 3597 1894 
z
M 3022 2063 
Q 3016 2534 2758 2815 
Q 2500 3097 2075 3097 
Q 1594 3097 1305 2825 
Q 1016 2553 972 2059 
L 3022 2063 
z
" id="DejaVuSans-65" transform="scale(0.015625)"/>
      </defs>
      <use xlink:href="#DejaVuSans-44"/>
      <use x="77.001953" xlink:href="#DejaVuSans-61"/>
      <use x="138.28125" xlink:href="#DejaVuSans-74"/>
      <use x="177.490234" xlink:href="#DejaVuSans-65"/>
     </g>
    </g>
   </g>
   <g id="matplotlib.axis_2">
    <g id="ytick_1">
     <g id="line2d_8">
      <defs>
       <path d="M 0 0 
L -3.5 0 
" id="me590f44d61" style="stroke:#000000;stroke-width:0.8;"/>
      </defs>
      <g>
       <use style="stroke:#000000;stroke-width:0.8;" x="53.328125" xlink:href="#me590f44d61" y="228.96"/>
      </g>
     </g>
     <g id="text_9">
      <!-- 1 -->
      <g transform="translate(39.965625 232.759219)scale(0.1 -0.1)">
       <use xlink:href="#DejaVuSans-31"/>
      </g>
     </g>
    </g>
    <g id="ytick_2">
     <g id="line2d_9">
      <g>
       <use style="stroke:#000000;stroke-width:0.8;" x="53.328125" xlink:href="#me590f44d61" y="200.257759"/>
      </g>
     </g>
     <g id="text_10">
      <!-- 3 -->
      <g transform="translate(39.965625 204.056978)scale(0.1 -0.1)">
       <use xlink:href="#DejaVuSans-33"/>
      </g>
     </g>
    </g>
    <g id="ytick_3">
     <g id="line2d_10">
      <g>
       <use style="stroke:#000000;stroke-width:0.8;" x="53.328125" xlink:href="#me590f44d61" y="171.555518"/>
      </g>
     </g>
     <g id="text_11">
      <!-- 10 -->
      <g transform="translate(33.603125 175.354737)scale(0.1 -0.1)">
       <use xlink:href="#DejaVuSans-31"/>
       <use x="63.623047" xlink:href="#DejaVuSans-30"/>
      </g>
     </g>
    </g>
    <g id="ytick_4">
     <g id="line2d_11">
      <g>
       <use style="stroke:#000000;stroke-width:0.8;" x="53.328125" xlink:href="#me590f44d61" y="142.853277"/>
      </g>
     </g>
     <g id="text_12">
      <!-- 31 -->
      <g transform="translate(33.603125 146.652496)scale(0.1 -0.1)">
       <use xlink:href="#DejaVuSans-33"/>
       <use x="63.623047" xlink:href="#DejaVuSans-31"/>
      </g>
     </g>
    </g>
    <g id="ytick_5">
     <g id="line2d_12">
      <g>
       <use style="stroke:#000000;stroke-width:0.8;" x="53.328125" xlink:href="#me590f44d61" y="114.151036"/>
      </g>
     </g>
     <g id="text_13">
      <!-- 100 -->
      <g transform="translate(27.240625 117.950255)scale(0.1 -0.1)">
       <use xlink:href="#DejaVuSans-31"/>
       <use x="63.623047" xlink:href="#DejaVuSans-30"/>
       <use x="127.246094" xlink:href="#DejaVuSans-30"/>
      </g>
     </g>
    </g>
    <g id="ytick_6">
     <g id="line2d_13">
      <g>
       <use style="stroke:#000000;stroke-width:0.8;" x="53.328125" xlink:href="#me590f44d61" y="85.448796"/>
      </g>
     </g>
     <g id="text_14">
      <!-- 316 -->
      <g transform="translate(27.240625 89.248014)scale(0.1 -0.1)">
       <defs>
        <path d="M 2113 2584 
Q 1688 2584 1439 2293 
Q 1191 2003 1191 1497 
Q 1191 994 1439 701 
Q 1688 409 2113 409 
Q 2538 409 2786 701 
Q 3034 994 3034 1497 
Q 3034 2003 2786 2293 
Q 2538 2584 2113 2584 
z
M 3366 4563 
L 3366 3988 
Q 3128 4100 2886 4159 
Q 2644 4219 2406 4219 
Q 1781 4219 1451 3797 
Q 1122 3375 1075 2522 
Q 1259 2794 1537 2939 
Q 1816 3084 2150 3084 
Q 2853 3084 3261 2657 
Q 3669 2231 3669 1497 
Q 3669 778 3244 343 
Q 2819 -91 2113 -91 
Q 1303 -91 875 529 
Q 447 1150 447 2328 
Q 447 3434 972 4092 
Q 1497 4750 2381 4750 
Q 2619 4750 2861 4703 
Q 3103 4656 3366 4563 
z
" id="DejaVuSans-36" transform="scale(0.015625)"/>
       </defs>
       <use xlink:href="#DejaVuSans-33"/>
       <use x="63.623047" xlink:href="#DejaVuSans-31"/>
       <use x="127.246094" xlink:href="#DejaVuSans-36"/>
      </g>
     </g>
    </g>
    <g id="ytick_7">
     <g id="line2d_14">
      <g>
       <use style="stroke:#000000;stroke-width:0.8;" x="53.328125" xlink:href="#me590f44d61" y="56.746555"/>
      </g>
     </g>
     <g id="text_15">
      <!-- 1000 -->
      <g transform="translate(20.878125 60.545773)scale(0.1 -0.1)">
       <use xlink:href="#DejaVuSans-31"/>
       <use x="63.623047" xlink:href="#DejaVuSans-30"/>
       <use x="127.246094" xlink:href="#DejaVuSans-30"/>
       <use x="190.869141" xlink:href="#DejaVuSans-30"/>
      </g>
     </g>
    </g>
    <g id="ytick_8">
     <g id="line2d_15">
      <g>
       <use style="stroke:#000000;stroke-width:0.8;" x="53.328125" xlink:href="#me590f44d61" y="28.044314"/>
      </g>
     </g>
     <g id="text_16">
      <!-- 3162 -->
      <g transform="translate(20.878125 31.843533)scale(0.1 -0.1)">
       <use xlink:href="#DejaVuSans-33"/>
       <use x="63.623047" xlink:href="#DejaVuSans-31"/>
       <use x="127.246094" xlink:href="#DejaVuSans-36"/>
       <use x="190.869141" xlink:href="#DejaVuSans-32"/>
      </g>
     </g>
    </g>
    <g id="text_17">
     <!-- Count (7 day rolling average) -->
     <g transform="translate(14.798437 191.547969)rotate(-90)scale(0.1 -0.1)">
      <defs>
       <path d="M 4122 4306 
L 4122 3641 
Q 3803 3938 3442 4084 
Q 3081 4231 2675 4231 
Q 1875 4231 1450 3742 
Q 1025 3253 1025 2328 
Q 1025 1406 1450 917 
Q 1875 428 2675 428 
Q 3081 428 3442 575 
Q 3803 722 4122 1019 
L 4122 359 
Q 3791 134 3420 21 
Q 3050 -91 2638 -91 
Q 1578 -91 968 557 
Q 359 1206 359 2328 
Q 359 3453 968 4101 
Q 1578 4750 2638 4750 
Q 3056 4750 3426 4639 
Q 3797 4528 4122 4306 
z
" id="DejaVuSans-43" transform="scale(0.015625)"/>
       <path d="M 1959 3097 
Q 1497 3097 1228 2736 
Q 959 2375 959 1747 
Q 959 1119 1226 758 
Q 1494 397 1959 397 
Q 2419 397 2687 759 
Q 2956 1122 2956 1747 
Q 2956 2369 2687 2733 
Q 2419 3097 1959 3097 
z
M 1959 3584 
Q 2709 3584 3137 3096 
Q 3566 2609 3566 1747 
Q 3566 888 3137 398 
Q 2709 -91 1959 -91 
Q 1206 -91 779 398 
Q 353 888 353 1747 
Q 353 2609 779 3096 
Q 1206 3584 1959 3584 
z
" id="DejaVuSans-6f" transform="scale(0.015625)"/>
       <path d="M 544 1381 
L 544 3500 
L 1119 3500 
L 1119 1403 
Q 1119 906 1312 657 
Q 1506 409 1894 409 
Q 2359 409 2629 706 
Q 2900 1003 2900 1516 
L 2900 3500 
L 3475 3500 
L 3475 0 
L 2900 0 
L 2900 538 
Q 2691 219 2414 64 
Q 2138 -91 1772 -91 
Q 1169 -91 856 284 
Q 544 659 544 1381 
z
M 1991 3584 
L 1991 3584 
z
" id="DejaVuSans-75" transform="scale(0.015625)"/>
       <path d="M 3513 2113 
L 3513 0 
L 2938 0 
L 2938 2094 
Q 2938 2591 2744 2837 
Q 2550 3084 2163 3084 
Q 1697 3084 1428 2787 
Q 1159 2491 1159 1978 
L 1159 0 
L 581 0 
L 581 3500 
L 1159 3500 
L 1159 2956 
Q 1366 3272 1645 3428 
Q 1925 3584 2291 3584 
Q 2894 3584 3203 3211 
Q 3513 2838 3513 2113 
z
" id="DejaVuSans-6e" transform="scale(0.015625)"/>
       <path id="DejaVuSans-20" transform="scale(0.015625)"/>
       <path d="M 1984 4856 
Q 1566 4138 1362 3434 
Q 1159 2731 1159 2009 
Q 1159 1288 1364 580 
Q 1569 -128 1984 -844 
L 1484 -844 
Q 1016 -109 783 600 
Q 550 1309 550 2009 
Q 550 2706 781 3412 
Q 1013 4119 1484 4856 
L 1984 4856 
z
" id="DejaVuSans-28" transform="scale(0.015625)"/>
       <path d="M 2906 2969 
L 2906 4863 
L 3481 4863 
L 3481 0 
L 2906 0 
L 2906 525 
Q 2725 213 2448 61 
Q 2172 -91 1784 -91 
Q 1150 -91 751 415 
Q 353 922 353 1747 
Q 353 2572 751 3078 
Q 1150 3584 1784 3584 
Q 2172 3584 2448 3432 
Q 2725 3281 2906 2969 
z
M 947 1747 
Q 947 1113 1208 752 
Q 1469 391 1925 391 
Q 2381 391 2643 752 
Q 2906 1113 2906 1747 
Q 2906 2381 2643 2742 
Q 2381 3103 1925 3103 
Q 1469 3103 1208 2742 
Q 947 2381 947 1747 
z
" id="DejaVuSans-64" transform="scale(0.015625)"/>
       <path d="M 2059 -325 
Q 1816 -950 1584 -1140 
Q 1353 -1331 966 -1331 
L 506 -1331 
L 506 -850 
L 844 -850 
Q 1081 -850 1212 -737 
Q 1344 -625 1503 -206 
L 1606 56 
L 191 3500 
L 800 3500 
L 1894 763 
L 2988 3500 
L 3597 3500 
L 2059 -325 
z
" id="DejaVuSans-79" transform="scale(0.015625)"/>
       <path d="M 2631 2963 
Q 2534 3019 2420 3045 
Q 2306 3072 2169 3072 
Q 1681 3072 1420 2755 
Q 1159 2438 1159 1844 
L 1159 0 
L 581 0 
L 581 3500 
L 1159 3500 
L 1159 2956 
Q 1341 3275 1631 3429 
Q 1922 3584 2338 3584 
Q 2397 3584 2469 3576 
Q 2541 3569 2628 3553 
L 2631 2963 
z
" id="DejaVuSans-72" transform="scale(0.015625)"/>
       <path d="M 603 4863 
L 1178 4863 
L 1178 0 
L 603 0 
L 603 4863 
z
" id="DejaVuSans-6c" transform="scale(0.015625)"/>
       <path d="M 603 3500 
L 1178 3500 
L 1178 0 
L 603 0 
L 603 3500 
z
M 603 4863 
L 1178 4863 
L 1178 4134 
L 603 4134 
L 603 4863 
z
" id="DejaVuSans-69" transform="scale(0.015625)"/>
       <path d="M 2906 1791 
Q 2906 2416 2648 2759 
Q 2391 3103 1925 3103 
Q 1463 3103 1205 2759 
Q 947 2416 947 1791 
Q 947 1169 1205 825 
Q 1463 481 1925 481 
Q 2391 481 2648 825 
Q 2906 1169 2906 1791 
z
M 3481 434 
Q 3481 -459 3084 -895 
Q 2688 -1331 1869 -1331 
Q 1566 -1331 1297 -1286 
Q 1028 -1241 775 -1147 
L 775 -588 
Q 1028 -725 1275 -790 
Q 1522 -856 1778 -856 
Q 2344 -856 2625 -561 
Q 2906 -266 2906 331 
L 2906 616 
Q 2728 306 2450 153 
Q 2172 0 1784 0 
Q 1141 0 747 490 
Q 353 981 353 1791 
Q 353 2603 747 3093 
Q 1141 3584 1784 3584 
Q 2172 3584 2450 3431 
Q 2728 3278 2906 2969 
L 2906 3500 
L 3481 3500 
L 3481 434 
z
" id="DejaVuSans-67" transform="scale(0.015625)"/>
       <path d="M 191 3500 
L 800 3500 
L 1894 563 
L 2988 3500 
L 3597 3500 
L 2284 0 
L 1503 0 
L 191 3500 
z
" id="DejaVuSans-76" transform="scale(0.015625)"/>
       <path d="M 513 4856 
L 1013 4856 
Q 1481 4119 1714 3412 
Q 1947 2706 1947 2009 
Q 1947 1309 1714 600 
Q 1481 -109 1013 -844 
L 513 -844 
Q 928 -128 1133 580 
Q 1338 1288 1338 2009 
Q 1338 2731 1133 3434 
Q 928 4138 513 4856 
z
" id="DejaVuSans-29" transform="scale(0.015625)"/>
      </defs>
      <use xlink:href="#DejaVuSans-43"/>
      <use x="69.824219" xlink:href="#DejaVuSans-6f"/>
      <use x="131.005859" xlink:href="#DejaVuSans-75"/>
      <use x="194.384766" xlink:href="#DejaVuSans-6e"/>
      <use x="257.763672" xlink:href="#DejaVuSans-74"/>
      <use x="296.972656" xlink:href="#DejaVuSans-20"/>
      <use x="328.759766" xlink:href="#DejaVuSans-28"/>
      <use x="367.773438" xlink:href="#DejaVuSans-37"/>
      <use x="431.396484" xlink:href="#DejaVuSans-20"/>
      <use x="463.183594" xlink:href="#DejaVuSans-64"/>
      <use x="526.660156" xlink:href="#DejaVuSans-61"/>
      <use x="587.939453" xlink:href="#DejaVuSans-79"/>
      <use x="647.119141" xlink:href="#DejaVuSans-20"/>
      <use x="678.90625" xlink:href="#DejaVuSans-72"/>
      <use x="717.769531" xlink:href="#DejaVuSans-6f"/>
      <use x="778.951172" xlink:href="#DejaVuSans-6c"/>
      <use x="806.734375" xlink:href="#DejaVuSans-6c"/>
      <use x="834.517578" xlink:href="#DejaVuSans-69"/>
      <use x="862.300781" xlink:href="#DejaVuSans-6e"/>
      <use x="925.679688" xlink:href="#DejaVuSans-67"/>
      <use x="989.15625" xlink:href="#DejaVuSans-20"/>
      <use x="1020.943359" xlink:href="#DejaVuSans-61"/>
      <use x="1082.222656" xlink:href="#DejaVuSans-76"/>
      <use x="1141.402344" xlink:href="#DejaVuSans-65"/>
      <use x="1202.925781" xlink:href="#DejaVuSans-72"/>
      <use x="1244.039062" xlink:href="#DejaVuSans-61"/>
      <use x="1305.318359" xlink:href="#DejaVuSans-67"/>
      <use x="1368.794922" xlink:href="#DejaVuSans-65"/>
      <use x="1430.318359" xlink:href="#DejaVuSans-29"/>
     </g>
    </g>
   </g>
   <g id="line2d_16">
    <path clip-path="url(#p7577817869)" d="M 160.705144 225.631002 
L 163.280132 228.96 
L 219.929879 228.96 
L 222.504867 225.631002 
L 230.229832 225.631002 
L 232.804821 222.694618 
L 237.954798 222.694618 
L 240.529786 225.631002 
L 245.679763 225.631002 
L 248.254752 222.694618 
L 250.82974 225.631002 
L 253.404729 222.694618 
L 255.979717 222.694618 
L 258.554706 217.691808 
L 268.854659 217.691808 
L 271.429648 220.067933 
L 274.004636 220.067933 
L 276.579625 225.631002 
L 281.729602 225.631002 
L 284.30459 228.96 
L 286.879579 222.694618 
L 289.454567 220.067933 
L 292.029556 217.691808 
L 294.604544 217.691808 
L 297.179532 213.527074 
L 302.329509 209.959506 
L 304.904498 213.527074 
L 307.479486 215.522575 
L 310.054475 217.691808 
L 312.629463 217.691808 
L 315.204452 222.694618 
L 317.77944 222.694618 
L 320.354429 220.067933 
L 330.654382 220.067933 
L 333.229371 217.691808 
L 335.804359 220.067933 
L 338.379348 225.631002 
L 340.954336 222.694618 
L 346.104313 222.694618 
L 348.679302 220.067933 
L 351.25429 217.691808 
L 353.829279 211.679529 
L 356.404267 211.679529 
L 358.979256 205.414147 
L 361.554244 201.571102 
L 364.129233 199.303134 
L 366.704221 196.246603 
L 369.279209 196.246603 
L 371.854198 198.242104 
L 374.429186 194.399058 
L 377.004175 196.246603 
L 379.579163 199.303134 
L 382.154152 186.785756 
L 384.72914 185.506991 
L 389.879117 169.835495 
L 392.454106 165.568692 
L 395.029094 159.396858 
L 397.604083 158.118093 
L 400.179071 158.749277 
L 402.754059 155.741967 
L 405.329048 153.572735 
L 407.904036 150.790719 
L 410.479025 149.581733 
L 413.054013 148.998538 
L 415.629002 146.661745 
L 418.20399 146.014165 
L 420.778979 146.925562 
L 423.353967 144.767383 
L 425.928956 145.011801 
L 428.503944 145.011801 
L 431.078933 142.557645 
L 433.653921 141.898653 
L 436.228909 138.842121 
L 438.803898 137.625761 
L 441.378886 136.553318 
L 443.953875 135.026487 
L 446.528863 130.591076 
L 449.103852 130.113597 
L 451.67884 128.7977 
L 454.253829 128.926208 
L 456.828817 128.479299 
L 459.403806 127.305158 
L 469.70376 118.413091 
L 472.278748 117.746016 
L 474.853736 116.502244 
L 477.428725 113.518071 
L 482.578702 111.389381 
L 485.15369 109.874231 
L 487.728679 108.67359 
L 490.303667 107.885655 
L 492.878656 106.828087 
L 495.453644 105.283913 
L 498.028633 101.818037 
L 500.603621 99.280548 
L 503.17861 98.205628 
L 505.753598 96.446808 
L 508.328586 94.869586 
L 513.478563 92.941176 
L 516.053552 91.782103 
L 518.62854 91.550862 
L 521.203529 91.010112 
L 523.778517 90.152265 
L 526.353506 89.707427 
L 528.928494 88.444032 
L 531.503483 85.693195 
L 536.65346 80.812689 
L 539.228448 78.424664 
L 541.803436 76.29228 
L 544.378425 74.414665 
L 546.953413 73.477533 
L 549.528402 72.280424 
L 552.10339 71.898189 
L 554.678379 70.009569 
L 557.253367 68.418411 
L 559.828356 67.003224 
L 562.403344 66.592815 
L 564.978333 65.229875 
L 567.553321 62.207441 
L 570.12831 60.337421 
L 572.703298 59.04303 
L 575.278287 58.089133 
L 580.428263 55.103102 
L 585.57824 53.25913 
L 588.153229 51.15501 
L 590.728217 49.546036 
L 593.303206 47.231594 
L 595.878194 45.84365 
L 598.453183 44.734848 
L 601.028171 43.891353 
L 606.178148 40.821821 
L 608.753137 38.977633 
L 611.328125 38.181977 
L 616.478102 37.086721 
L 619.05309 36.537615 
L 621.628079 35.597612 
L 624.203067 35.109904 
L 626.778056 34.241507 
L 629.353044 32.621614 
L 631.928033 31.690607 
L 634.503021 31.220548 
L 637.07801 31.157942 
L 639.652998 29.999801 
L 642.227987 29.135463 
L 644.802975 28.727006 
L 647.377963 28.684215 
L 649.952952 27.648716 
L 655.102929 26.333839 
L 657.677917 26.030736 
L 660.252906 25.590025 
L 665.402883 25.154963 
L 667.977871 25.401915 
L 670.55286 25.77031 
L 673.127848 26.264533 
L 675.702837 26.381205 
L 680.852814 27.252811 
L 686.00279 28.383291 
L 688.577779 28.83605 
L 691.152767 28.612675 
L 693.727756 28.694617 
L 696.302744 28.663424 
L 698.877733 28.449595 
L 704.02771 27.471982 
L 706.602698 27.288842 
L 709.177687 27.477486 
L 711.752675 27.324925 
L 716.902652 28.115305 
L 724.627617 30.613938 
L 727.202606 31.196254 
L 729.777594 32.540553 
L 732.352583 33.161951 
L 734.927571 34.336999 
L 737.50256 35.309571 
L 740.077548 36.607382 
L 745.227525 37.904455 
L 747.802514 39.196869 
L 750.377502 40.662508 
L 755.527479 42.85417 
L 763.252444 45.360787 
L 765.827433 47.272965 
L 768.402421 48.539427 
L 770.97741 50.145497 
L 773.552398 51.620369 
L 776.127387 52.911651 
L 778.702375 53.845018 
L 781.277364 54.406069 
L 783.852352 58.441152 
L 786.427341 59.424737 
L 789.002329 60.898988 
L 791.577317 62.220745 
L 794.152306 63.018551 
L 796.727294 63.410947 
L 799.302283 63.466845 
L 801.877271 61.063602 
L 804.45226 63.244001 
L 807.027248 64.157169 
L 814.752214 64.219573 
L 817.327202 64.475619 
L 825.052167 66.471524 
L 827.627156 67.772727 
L 830.202144 68.721712 
L 835.352121 70.283902 
L 840.502098 71.696269 
L 843.077087 71.735223 
L 845.652075 73.456639 
L 848.227064 75.790333 
L 850.802052 76.629979 
L 853.377041 77.092849 
L 855.952029 79.51009 
L 858.527017 81.341937 
L 861.102006 84.964674 
L 863.676994 85.967661 
L 866.251983 86.631891 
L 868.826971 87.656492 
L 871.40196 89.139451 
L 873.976948 91.695136 
L 876.551937 93.139704 
L 879.126925 93.57275 
L 881.701914 94.968386 
L 884.276902 96.081839 
L 886.851891 95.485184 
L 892.001868 93.603972 
L 894.576856 94.820333 
L 897.151844 96.728511 
L 899.726833 97.593238 
L 904.87681 99.795822 
L 907.451798 101.153757 
L 910.026787 103.548921 
L 912.601775 104.25722 
L 915.176764 105.085065 
L 917.751752 106.173019 
L 920.326741 107.720003 
L 925.476718 109.398785 
L 928.051706 110.206441 
L 930.626694 111.517229 
L 933.201683 112.431013 
L 935.776671 113.139025 
L 938.35166 112.968618 
L 943.501637 113.310605 
L 946.076625 116.541412 
L 948.651614 117.911119 
L 951.226602 118.667919 
L 953.801591 120.299671 
L 956.376579 123.043103 
L 964.101544 126.945578 
L 969.251521 132.449218 
L 971.82651 136.640947 
L 974.401498 140.120886 
L 976.976487 141.468807 
L 979.551475 142.33604 
L 982.126464 145.258639 
L 984.701452 147.326597 
L 987.276441 150.482932 
L 989.851429 152.555024 
L 992.426418 153.921418 
L 995.001406 157.300628 
L 997.576394 159.396858 
L 1000.151383 162.169763 
L 1002.726371 166.135317 
L 1005.30136 169.505285 
L 1007.876348 170.509332 
L 1010.451337 173.403063 
L 1013.026325 175.817573 
L 1015.601314 175.817573 
L 1018.176302 174.581099 
L 1020.751291 174.986481 
L 1023.326279 176.243745 
L 1025.901268 174.182203 
L 1028.476256 175.817573 
L 1031.051245 174.182203 
L 1033.626233 174.986481 
L 1036.201221 179.450234 
L 1038.77621 182.570607 
L 1041.351198 182.570607 
L 1043.926187 186.785756 
L 1046.501175 188.835989 
L 1049.076164 191.86157 
L 1051.651152 192.679035 
L 1054.226141 195.30572 
L 1056.801129 197.224393 
L 1059.376118 199.303134 
L 1061.951106 204.066227 
L 1064.526095 184.290631 
L 1067.101083 185.506991 
L 1069.676071 184.891394 
L 1069.676071 184.891394 
" style="fill:none;stroke:#947383;stroke-linecap:square;stroke-width:2;"/>
   </g>
   <g id="line2d_17">
    <path clip-path="url(#p7577817869)" d="M 384.72914 215.522575 
L 387.304129 220.067933 
L 389.879117 222.694618 
L 392.454106 213.527074 
L 395.029094 208.350531 
L 397.604083 208.350531 
L 400.179071 206.839132 
L 402.754059 206.839132 
L 405.329048 202.787462 
L 407.904036 201.571102 
L 410.479025 199.303134 
L 413.054013 199.303134 
L 415.629002 192.679035 
L 418.20399 191.86157 
L 420.778979 192.679035 
L 423.353967 192.679035 
L 425.928956 188.133676 
L 428.503944 191.86157 
L 431.078933 191.86157 
L 433.653921 195.30572 
L 436.228909 197.224393 
L 438.803898 196.246603 
L 441.378886 198.242104 
L 443.953875 202.787462 
L 446.528863 201.571102 
L 449.103852 199.303134 
L 454.253829 197.224393 
L 456.828817 198.242104 
L 459.403806 197.224393 
L 461.978794 200.411337 
L 464.553783 199.303134 
L 467.128771 200.411337 
L 469.70376 204.066227 
L 472.278748 205.414147 
L 474.853736 204.066227 
L 477.428725 200.411337 
L 480.003713 200.411337 
L 482.578702 199.303134 
L 485.15369 199.303134 
L 487.728679 198.242104 
L 490.303667 198.242104 
L 492.878656 199.303134 
L 495.453644 194.399058 
L 498.028633 192.679035 
L 500.603621 191.86157 
L 503.17861 194.399058 
L 505.753598 192.679035 
L 508.328586 192.679035 
L 510.903575 191.86157 
L 513.478563 196.246603 
L 516.053552 191.86157 
L 518.62854 191.070061 
L 523.778517 169.835495 
L 526.353506 169.179393 
L 528.928494 167.01016 
L 531.503483 165.850395 
L 534.078471 165.850395 
L 536.65346 166.135317 
L 539.228448 166.135317 
L 541.803436 171.555518 
L 544.378425 167.308732 
L 546.953413 167.308732 
L 549.528402 163.942216 
L 552.10339 163.167114 
L 554.678379 160.744778 
L 557.253367 162.914011 
L 559.828356 159.838116 
L 562.403344 161.685661 
L 564.978333 160.976691 
L 567.553321 158.326717 
L 570.12831 157.300628 
L 572.703298 154.815078 
L 575.278287 154.453761 
L 577.853275 158.537102 
L 580.428263 159.179123 
L 583.003252 160.061709 
L 585.57824 163.167114 
L 588.153229 161.685661 
L 590.728217 164.206033 
L 593.303206 163.422813 
L 595.878194 162.914011 
L 598.453183 161.447091 
L 601.028171 157.300628 
L 603.60316 152.224815 
L 606.178148 152.224815 
L 608.753137 152.721783 
L 611.328125 151.577234 
L 613.903113 151.259644 
L 616.478102 151.102354 
L 619.05309 154.99772 
L 621.628079 154.633765 
L 624.203067 149.878528 
L 626.778056 149.729689 
L 629.353044 150.790719 
L 631.928033 150.790719 
L 634.503021 150.178898 
L 637.07801 148.009666 
L 642.227987 149.143063 
L 644.802975 148.998538 
L 647.377963 147.871546 
L 649.952952 145.886643 
L 652.52794 143.69622 
L 655.102929 143.579994 
L 657.677917 144.889292 
L 660.252906 145.258639 
L 662.827894 144.048185 
L 665.402883 144.16662 
L 667.977871 144.646066 
L 670.55286 147.326597 
L 673.127848 146.925562 
L 680.852814 148.569924 
L 686.00279 148.288221 
L 688.577779 148.288221 
L 691.152767 149.729689 
L 693.727756 150.028261 
L 696.302744 153.746467 
L 701.452721 157.70601 
L 704.02771 158.963274 
L 706.602698 160.061709 
L 709.177687 161.447091 
L 714.327664 161.447091 
L 716.902652 160.515003 
L 719.47764 158.749277 
L 722.052629 157.300628 
L 724.627617 157.300628 
L 727.202606 156.122592 
L 729.777594 157.100382 
L 732.352583 157.70601 
L 734.927571 153.921418 
L 737.50256 155.741967 
L 740.077548 159.396858 
L 742.652537 158.963274 
L 745.227525 157.9112 
L 747.802514 157.502495 
L 750.377502 156.509119 
L 752.95249 158.749277 
L 755.527479 156.704653 
L 758.102467 155.367066 
L 760.677456 155.931554 
L 763.252444 158.537102 
L 765.827433 161.926537 
L 768.402421 157.502495 
L 770.97741 160.744778 
L 773.552398 162.415385 
L 776.127387 162.914011 
L 778.702375 163.681162 
L 781.277364 163.681162 
L 783.852352 164.472671 
L 786.427341 174.581099 
L 789.002329 176.243745 
L 791.577317 181.486504 
L 794.152306 183.704005 
L 796.727294 183.130866 
L 799.302283 180.447585 
L 801.877271 177.118587 
L 804.45226 177.567797 
L 807.027248 174.182203 
L 809.602237 171.555518 
L 812.177225 171.201889 
L 814.752214 171.201889 
L 817.327202 173.403063 
L 819.902191 174.986481 
L 822.477179 173.022438 
L 825.052167 174.581099 
L 830.202144 173.022438 
L 832.777133 172.647537 
L 837.92711 172.647537 
L 840.502098 173.403063 
L 843.077087 172.647537 
L 845.652075 174.182203 
L 848.227064 176.677329 
L 853.377041 177.567797 
L 855.952029 178.491252 
L 858.527017 182.022663 
L 861.102006 188.133676 
L 863.676994 188.835989 
L 868.826971 188.835989 
L 871.40196 188.133676 
L 873.976948 188.835989 
L 879.126925 188.835989 
L 881.701914 192.679035 
L 884.276902 193.524216 
L 886.851891 192.679035 
L 892.001868 192.679035 
L 894.576856 191.070061 
L 897.151844 191.070061 
L 899.726833 187.450608 
L 902.301821 182.022663 
L 904.87681 184.290631 
L 907.451798 182.022663 
L 910.026787 180.961633 
L 912.601775 177.118587 
L 915.176764 173.78959 
L 917.751752 172.278191 
L 920.326741 174.581099 
L 922.901729 174.182203 
L 925.476718 176.243745 
L 928.051706 177.567797 
L 930.626694 183.704005 
L 933.201683 188.835989 
L 935.776671 195.30572 
L 938.35166 197.224393 
L 940.926648 196.246603 
L 943.501637 197.224393 
L 946.076625 199.303134 
L 948.651614 196.246603 
L 951.226602 198.242104 
L 953.801591 193.524216 
L 956.376579 195.30572 
L 958.951568 198.242104 
L 961.526556 199.303134 
L 964.101544 201.571102 
L 966.676533 206.839132 
L 969.251521 205.414147 
L 971.82651 213.527074 
L 974.401498 206.839132 
L 979.551475 206.839132 
L 982.126464 211.679529 
L 984.701452 211.679529 
L 987.276441 213.527074 
L 989.851429 217.691808 
L 992.426418 225.631002 
L 997.576394 225.631002 
L 1000.151383 222.694618 
L 1002.726371 220.067933 
L 1005.30136 220.067933 
L 1007.876348 217.691808 
L 1010.451337 220.067933 
L 1018.176302 220.067933 
L 1018.176302 220.067933 
" style="fill:none;stroke:#96c6ad;stroke-linecap:square;stroke-width:2;"/>
   </g>
   <g id="line2d_18">
    <path clip-path="url(#p7577817869)" d="M 104.055398 222.694618 
L 106.630386 228.96 
L 114.355352 228.96 
L 116.93034 225.631002 
L 132.380271 225.631002 
L 134.955259 228.96 
L 150.40519 228.96 
L 152.980179 225.631002 
L 168.430109 225.631002 
L 171.005098 228.96 
L 176.155075 228.96 
L 178.730063 225.631002 
L 181.305052 222.694618 
L 191.605005 222.694618 
L 194.179994 220.067933 
L 196.754982 222.694618 
L 199.329971 225.631002 
L 201.904959 222.694618 
L 204.479948 222.694618 
L 207.054936 220.067933 
L 209.629925 220.067933 
L 212.204913 222.694618 
L 214.779902 220.067933 
L 222.504867 220.067933 
L 225.079856 222.694618 
L 227.654844 220.067933 
L 230.229832 217.691808 
L 232.804821 220.067933 
L 235.379809 220.067933 
L 237.954798 222.694618 
L 243.104775 222.694618 
L 245.679763 220.067933 
L 250.82974 220.067933 
L 253.404729 215.522575 
L 255.979717 215.522575 
L 258.554706 206.839132 
L 261.129694 190.302909 
L 263.704682 191.86157 
L 266.279671 192.679035 
L 268.854659 190.302909 
L 274.004636 190.302909 
L 276.579625 194.399058 
L 279.154613 211.679529 
L 281.729602 209.959506 
L 284.30459 209.959506 
L 286.879579 211.679529 
L 289.454567 215.522575 
L 294.604544 215.522575 
L 297.179532 211.679529 
L 299.754521 209.959506 
L 302.329509 205.414147 
L 304.904498 208.350531 
L 310.054475 205.414147 
L 312.629463 204.066227 
L 315.204452 191.86157 
L 317.77944 192.679035 
L 328.079394 192.679035 
L 330.654382 193.524216 
L 333.229371 191.070061 
L 335.804359 191.070061 
L 338.379348 191.86157 
L 340.954336 186.138176 
L 343.529325 184.891394 
L 346.104313 182.022663 
L 348.679302 178.491252 
L 351.25429 168.540115 
L 353.829279 164.742192 
L 356.404267 161.685661 
L 358.979256 160.061709 
L 361.554244 155.741967 
L 364.129233 153.400205 
L 366.704221 149.581733 
L 369.279209 138.367241 
L 371.854198 132.974089 
L 374.429186 129.711484 
L 377.004175 128.479299 
L 379.579163 128.669852 
L 382.154152 127.005149 
L 384.72914 126.767714 
L 387.304129 122.539441 
L 392.454106 117.257168 
L 395.029094 115.317586 
L 397.604083 114.365647 
L 400.179071 113.587612 
L 402.754059 111.389381 
L 405.329048 108.080316 
L 407.904036 106.432985 
L 410.479025 105.686431 
L 415.629002 97.629927 
L 418.20399 96.499386 
L 420.778979 95.08415 
L 423.353967 90.536029 
L 425.928956 89.801126 
L 428.503944 88.26686 
L 431.078933 87.755128 
L 433.653921 86.490575 
L 436.228909 85.466758 
L 438.803898 85.534474 
L 441.378886 82.167364 
L 446.528863 79.113871 
L 451.67884 77.548064 
L 454.253829 77.222065 
L 456.828817 76.677465 
L 464.553783 70.517934 
L 469.70376 67.030109 
L 472.278748 66.434727 
L 474.853736 66.230699 
L 477.428725 62.718071 
L 482.578702 57.568413 
L 485.15369 55.71745 
L 487.728679 54.742289 
L 492.878656 53.44874 
L 495.453644 50.025534 
L 498.028633 48.973685 
L 503.17861 48.142849 
L 505.753598 46.826408 
L 508.328586 46.38771 
L 510.903575 46.373611 
L 513.478563 44.145715 
L 516.053552 43.118725 
L 518.62854 42.295408 
L 521.203529 40.959459 
L 523.778517 40.457839 
L 526.353506 40.437464 
L 528.928494 40.14297 
L 531.503483 38.222603 
L 534.078471 37.717822 
L 536.65346 36.101274 
L 539.228448 35.562566 
L 541.803436 34.82002 
L 544.378425 34.432857 
L 546.953413 33.877385 
L 549.528402 32.543251 
L 552.10339 30.747889 
L 554.678379 30.020518 
L 557.253367 29.514857 
L 562.403344 28.022861 
L 564.978333 27.730881 
L 567.553321 26.051522 
L 570.12831 25.644178 
L 572.703298 24.935274 
L 575.278287 23.838313 
L 577.853275 23.326051 
L 583.003252 22.863414 
L 588.153229 20.960774 
L 590.728217 20.801074 
L 593.303206 19.95317 
L 595.878194 19.884878 
L 598.453183 19.995539 
L 601.028171 19.8581 
L 603.60316 19.535789 
L 606.178148 20.107513 
L 608.753137 20.403341 
L 611.328125 20.831414 
L 613.903113 20.186277 
L 616.478102 20.13374 
L 621.628079 20.477226 
L 624.203067 19.746431 
L 626.778056 19.858911 
L 629.353044 20.249633 
L 631.928033 21.652674 
L 637.07801 21.632637 
L 639.652998 24.647629 
L 642.227987 25.444497 
L 644.802975 24.901495 
L 647.377963 24.132117 
L 649.952952 22.60764 
L 652.52794 21.746104 
L 655.102929 21.627412 
L 657.677917 18.757092 
L 660.252906 17.76 
L 662.827894 17.804026 
L 665.402883 18.044177 
L 667.977871 17.810749 
L 670.55286 18.060018 
L 673.127848 18.044177 
L 675.702837 18.795144 
L 678.277825 19.282492 
L 680.852814 19.204157 
L 683.427802 18.994895 
L 686.00279 19.135521 
L 688.577779 19.004297 
L 691.152767 19.06393 
L 693.727756 18.589272 
L 696.302744 18.437892 
L 698.877733 18.837924 
L 704.02771 19.123706 
L 706.602698 19.752084 
L 709.177687 19.698841 
L 711.752675 19.19152 
L 714.327664 20.027364 
L 716.902652 19.914936 
L 719.47764 20.400855 
L 722.052629 20.501349 
L 724.627617 20.253752 
L 727.202606 20.319758 
L 729.777594 20.865169 
L 732.352583 21.107857 
L 734.927571 21.816188 
L 737.50256 23.32046 
L 740.077548 24.022613 
L 742.652537 24.007282 
L 745.227525 24.152341 
L 750.377502 24.222773 
L 752.95249 24.512372 
L 755.527479 24.141746 
L 758.102467 24.686972 
L 760.677456 25.389763 
L 763.252444 25.834131 
L 765.827433 28.106271 
L 768.402421 28.808164 
L 770.97741 28.782629 
L 773.552398 29.29008 
L 776.127387 30.204065 
L 778.702375 30.432317 
L 781.277364 30.474494 
L 783.852352 31.77287 
L 789.002329 35.360871 
L 791.577317 36.368766 
L 794.152306 37.203537 
L 796.727294 37.629989 
L 799.302283 38.239549 
L 801.877271 41.744992 
L 804.45226 41.980243 
L 807.027248 42.519828 
L 812.177225 43.209607 
L 814.752214 44.09635 
L 817.327202 44.483144 
L 819.902191 48.493344 
L 822.477179 51.021608 
L 825.052167 53.089398 
L 827.627156 54.33484 
L 830.202144 56.273825 
L 832.777133 56.782195 
L 835.352121 56.88226 
L 837.92711 60.928454 
L 843.077087 61.31044 
L 845.652075 63.08735 
L 848.227064 64.325537 
L 850.802052 65.370413 
L 853.377041 65.582718 
L 855.952029 67.235388 
L 858.527017 69.780239 
L 861.102006 71.787256 
L 866.251983 73.290111 
L 868.826971 73.021854 
L 871.40196 73.631296 
L 873.976948 74.618061 
L 876.551937 75.388404 
L 879.126925 75.501502 
L 881.701914 76.043904 
L 884.276902 76.78862 
L 886.851891 78.011746 
L 889.426879 78.775502 
L 892.001868 81.085361 
L 894.576856 82.605625 
L 897.151844 86.129173 
L 899.726833 88.68651 
L 902.301821 91.464697 
L 904.87681 92.850078 
L 907.451798 93.448254 
L 912.601775 98.055783 
L 915.176764 99.418232 
L 917.751752 101.992376 
L 920.326741 103.59552 
L 922.901729 104.692064 
L 925.476718 105.661082 
L 928.051706 108.616476 
L 930.626694 115.09466 
L 933.201683 116.817325 
L 935.776671 118.077323 
L 938.35166 119.580906 
L 940.926648 120.34529 
L 943.501637 121.561651 
L 946.076625 123.713456 
L 948.651614 126.126194 
L 951.226602 128.164914 
L 953.801591 130.046126 
L 956.376579 132.227613 
L 958.951568 134.216986 
L 961.526556 135.026487 
L 964.101544 137.353294 
L 966.676533 141.468807 
L 969.251521 141.898653 
L 971.82651 145.011801 
L 974.401498 147.058525 
L 976.976487 148.428675 
L 979.551475 150.94605 
L 982.126464 155.367066 
L 984.701452 156.509119 
L 987.276441 159.616511 
L 989.851429 165.014659 
L 992.426418 162.914011 
L 995.001406 164.206033 
L 997.576394 163.681162 
L 1000.151383 165.568692 
L 1002.726371 167.01016 
L 1005.30136 170.853206 
L 1007.876348 169.505285 
L 1010.451337 174.182203 
L 1013.026325 175.817573 
L 1015.601314 175.817573 
L 1018.176302 177.118587 
L 1020.751291 181.486504 
L 1023.326279 180.447585 
L 1025.901268 184.891394 
L 1028.476256 188.133676 
L 1031.051245 188.835989 
L 1033.626233 191.070061 
L 1036.201221 192.679035 
L 1038.77621 196.246603 
L 1041.351198 199.303134 
L 1043.926187 197.224393 
L 1051.651152 197.224393 
L 1054.226141 195.30572 
L 1056.801129 194.399058 
L 1059.376118 197.224393 
L 1061.951106 202.787462 
L 1064.526095 209.959506 
L 1069.676071 209.959506 
L 1072.25106 217.691808 
L 1074.826048 228.96 
L 1077.401037 225.631002 
L 1087.700991 225.631002 
L 1090.275979 208.350531 
L 1092.850968 206.839132 
L 1095.425956 208.350531 
L 1100.575933 205.414147 
L 1100.575933 205.414147 
" style="fill:none;stroke:#525886;stroke-linecap:square;stroke-width:2;"/>
   </g>
   <g id="line2d_19">
    <path clip-path="url(#p7577817869)" d="M 176.155075 222.694618 
L 178.730063 225.631002 
L 189.030017 225.631002 
L 191.605005 228.96 
L 225.079856 228.96 
L 227.654844 225.631002 
L 243.104775 225.631002 
L 245.679763 228.96 
L 271.429648 228.96 
L 274.004636 222.694618 
L 276.579625 222.694618 
L 279.154613 220.067933 
L 286.879579 220.067933 
L 289.454567 217.691808 
L 292.029556 222.694618 
L 294.604544 222.694618 
L 297.179532 225.631002 
L 299.754521 222.694618 
L 304.904498 222.694618 
L 307.479486 217.691808 
L 310.054475 215.522575 
L 322.929417 215.522575 
L 325.504406 220.067933 
L 328.079394 222.694618 
L 330.654382 220.067933 
L 333.229371 217.691808 
L 335.804359 215.522575 
L 338.379348 215.522575 
L 340.954336 211.679529 
L 343.529325 213.527074 
L 348.679302 209.959506 
L 353.829279 209.959506 
L 356.404267 206.839132 
L 358.979256 204.066227 
L 361.554244 201.571102 
L 366.704221 191.070061 
L 371.854198 177.567797 
L 374.429186 174.986481 
L 377.004175 154.633765 
L 379.579163 152.555024 
L 382.154152 149.878528 
L 384.72914 145.258639 
L 387.304129 142.225972 
L 389.879117 140.323574 
L 392.454106 140.020157 
L 395.029094 145.886643 
L 397.604083 144.767383 
L 400.179071 140.527923 
L 402.754059 134.296763 
L 405.329048 127.547792 
L 407.904036 124.295104 
L 410.479025 122.992277 
L 413.054013 119.536664 
L 415.629002 119.055113 
L 418.20399 121.181026 
L 420.778979 125.613321 
L 423.353967 127.608821 
L 425.928956 128.416104 
L 428.503944 128.10251 
L 431.078933 131.574376 
L 433.653921 131.360379 
L 436.228909 129.446968 
L 438.803898 128.164914 
L 441.378886 130.729195 
L 443.953875 129.446968 
L 446.528863 126.708707 
L 449.103852 121.705897 
L 451.67884 120.436778 
L 456.828817 122.340791 
L 459.403806 122.589351 
L 461.978794 116.307322 
L 464.553783 112.397795 
L 467.128771 110.024687 
L 469.70376 108.474259 
L 472.278748 108.080316 
L 474.853736 103.479185 
L 477.428725 101.238482 
L 480.003713 97.139119 
L 482.578702 99.418232 
L 485.15369 102.679698 
L 487.728679 104.594774 
L 490.303667 103.317223 
L 492.878656 101.752972 
L 495.453644 101.623351 
L 498.028633 110.75979 
L 500.603621 110.543137 
L 503.17861 106.907865 
L 505.753598 105.711806 
L 508.328586 107.041397 
L 510.903575 113.173246 
L 513.478563 116.229777 
L 516.053552 114.727489 
L 518.62854 115.205874 
L 521.203529 119.625227 
L 523.778517 120.666978 
L 526.353506 117.911119 
L 528.928494 116.229777 
L 531.503483 111.135633 
L 534.078471 108.845723 
L 536.65346 106.27668 
L 539.228448 104.86324 
L 541.803436 104.667706 
L 544.378425 104.692064 
L 546.953413 100.630648 
L 549.528402 101.048253 
L 557.253367 99.319809 
L 559.828356 97.410596 
L 562.403344 97.193178 
L 564.978333 99.835904 
L 567.553321 100.964171 
L 570.12831 101.153757 
L 575.278287 102.101961 
L 577.853275 101.13262 
L 580.428263 101.905054 
L 583.003252 100.383402 
L 585.57824 99.735821 
L 588.153229 97.520021 
L 590.728217 97.157126 
L 593.303206 96.168253 
L 595.878194 96.534499 
L 601.028171 94.365266 
L 603.60316 93.124377 
L 606.178148 95.586459 
L 608.753137 93.729251 
L 611.328125 93.20111 
L 613.903113 92.310372 
L 616.478102 90.220362 
L 619.05309 92.369766 
L 621.628079 91.193788 
L 624.203067 89.309804 
L 626.778056 88.178744 
L 629.353044 86.478834 
L 631.928033 84.92053 
L 634.503021 84.931558 
L 637.07801 78.595188 
L 639.652998 77.712676 
L 644.802975 77.936641 
L 647.377963 77.861763 
L 649.952952 78.629433 
L 652.52794 78.887782 
L 655.102929 84.755681 
L 657.677917 84.085642 
L 660.252906 82.858113 
L 665.402883 83.092682 
L 667.977871 81.668836 
L 673.127848 80.45985 
L 675.702837 79.421495 
L 678.277825 78.818627 
L 680.852814 77.133157 
L 683.427802 74.837843 
L 686.00279 72.035909 
L 688.577779 70.629563 
L 691.152767 69.840385 
L 693.727756 67.382278 
L 696.302744 65.837841 
L 698.877733 64.032827 
L 701.452721 65.330179 
L 704.02771 64.023288 
L 706.602698 62.251817 
L 709.177687 61.925289 
L 711.752675 63.923347 
L 714.327664 65.214864 
L 716.902652 67.700777 
L 719.47764 65.435934 
L 722.052629 67.344112 
L 724.627617 68.756281 
L 727.202606 69.239479 
L 729.777594 67.562994 
L 734.927571 66.074883 
L 737.50256 66.9281 
L 740.077548 67.486166 
L 742.652537 68.61829 
L 745.227525 68.935659 
L 747.802514 69.708255 
L 750.377502 70.308433 
L 752.95249 70.685566 
L 755.527479 72.187622 
L 763.252444 75.562031 
L 765.827433 77.572687 
L 768.402421 78.646573 
L 770.97741 80.130126 
L 773.552398 80.212149 
L 776.127387 81.581886 
L 778.702375 82.286127 
L 781.277364 82.585536 
L 783.852352 84.450851 
L 786.427341 85.331877 
L 789.002329 86.07137 
L 791.577317 87.362901 
L 794.152306 86.537591 
L 796.727294 86.572912 
L 799.302283 86.762138 
L 801.877271 84.832475 
L 804.45226 84.854459 
L 807.027248 84.256839 
L 809.602237 83.370892 
L 812.177225 83.89444 
L 814.752214 84.181795 
L 817.327202 84.733784 
L 819.902191 85.636392 
L 825.052167 87.024692 
L 827.627156 88.983228 
L 830.202144 88.996209 
L 832.777133 88.840879 
L 835.352121 88.040903 
L 837.92711 88.545841 
L 840.502098 87.375065 
L 843.077087 85.807189 
L 845.652075 85.086475 
L 848.227064 85.197722 
L 850.802052 84.321342 
L 853.377041 85.008896 
L 858.527017 85.967661 
L 861.102006 88.431335 
L 863.676994 88.750715 
L 866.251983 88.609683 
L 868.826971 89.217931 
L 871.40196 89.244146 
L 873.976948 87.878976 
L 876.551937 87.582769 
L 879.126925 85.331877 
L 881.701914 84.711905 
L 884.276902 84.235375 
L 886.851891 84.299822 
L 889.426879 83.979238 
L 892.001868 84.755681 
L 894.576856 83.883861 
L 897.151844 86.70285 
L 899.726833 87.779849 
L 902.301821 88.342637 
L 907.451798 88.469445 
L 910.026787 88.26686 
L 912.601775 90.619038 
L 915.176764 88.367947 
L 917.751752 89.680721 
L 920.326741 91.840249 
L 922.901729 90.605184 
L 925.476718 90.744072 
L 928.051706 92.668875 
L 930.626694 92.503921 
L 933.201683 93.807871 
L 935.776671 90.967916 
L 938.35166 89.441642 
L 940.926648 91.122983 
L 943.501637 91.165442 
L 946.076625 92.459122 
L 948.651614 94.935409 
L 951.226602 97.211224 
L 956.376579 107.775098 
L 958.951568 111.198829 
L 961.526556 92.804654 
L 964.101544 94.575515 
L 966.676533 93.635233 
L 969.251521 94.156776 
L 971.82651 92.118314 
L 974.401498 87.435975 
L 976.976487 87.693435 
L 979.551475 102.478193 
L 982.126464 102.747229 
L 984.701452 106.018331 
L 987.276441 108.16421 
L 989.851429 113.10485 
L 992.426418 131.431507 
L 995.001406 134.296763 
L 997.576394 136.378978 
L 1000.151383 139.819912 
L 1002.726371 141.046246 
L 1005.30136 141.151217 
L 1007.876348 146.014165 
L 1010.451337 152.889666 
L 1013.026325 157.70601 
L 1015.601314 157.9112 
L 1018.176302 160.976691 
L 1020.751291 167.610923 
L 1023.326279 170.853206 
L 1025.901268 171.914236 
L 1028.476256 171.201889 
L 1031.051245 174.986481 
L 1033.626233 178.491252 
L 1036.201221 178.491252 
L 1038.77621 179.450234 
L 1041.351198 181.486504 
L 1043.926187 181.486504 
L 1046.501175 186.138176 
L 1049.076164 182.022663 
L 1051.651152 179.450234 
L 1054.226141 179.943922 
L 1056.801129 177.567797 
L 1059.376118 175.817573 
L 1061.951106 177.118587 
L 1064.526095 178.966132 
L 1067.101083 182.570607 
L 1069.676071 183.130866 
L 1072.25106 181.486504 
L 1074.826048 184.290631 
L 1077.401037 191.070061 
L 1079.976025 190.302909 
L 1082.551014 191.070061 
L 1085.126002 190.302909 
L 1087.700991 191.070061 
L 1092.850968 194.399058 
L 1095.425956 194.399058 
L 1098.000945 199.303134 
L 1100.575933 198.242104 
L 1105.72591 200.411337 
L 1108.300898 205.414147 
L 1110.875887 200.411337 
L 1113.450875 198.242104 
L 1116.025864 196.246603 
L 1118.600852 197.224393 
L 1118.600852 197.224393 
" style="fill:none;stroke:#937252;stroke-linecap:square;stroke-width:2;"/>
   </g>
   <g id="line2d_20">
    <path clip-path="url(#p7577817869)" d="M 317.77944 225.631002 
L 320.354429 228.96 
L 338.379348 228.96 
L 340.954336 225.631002 
L 343.529325 222.694618 
L 356.404267 222.694618 
L 358.979256 225.631002 
L 361.554244 228.96 
L 366.704221 228.96 
L 369.279209 222.694618 
L 371.854198 220.067933 
L 374.429186 217.691808 
L 382.154152 217.691808 
L 384.72914 215.522575 
L 387.304129 213.527074 
L 389.879117 209.959506 
L 395.029094 209.959506 
L 397.604083 204.066227 
L 400.179071 200.411337 
L 402.754059 195.30572 
L 405.329048 195.30572 
L 407.904036 194.399058 
L 410.479025 177.567797 
L 413.054013 166.423534 
L 415.629002 160.744778 
L 418.20399 159.396858 
L 420.778979 158.326717 
L 423.353967 154.815078 
L 425.928956 153.228861 
L 428.503944 154.453761 
L 431.078933 159.179123 
L 433.653921 158.963274 
L 436.228909 159.179123 
L 438.803898 161.685661 
L 441.378886 164.742192 
L 443.953875 167.01016 
L 446.528863 173.403063 
L 449.103852 176.243745 
L 451.67884 187.450608 
L 454.253829 191.86157 
L 456.828817 191.070061 
L 459.403806 191.86157 
L 461.978794 184.891394 
L 464.553783 182.022663 
L 467.128771 170.509332 
L 469.70376 170.170137 
L 472.278748 169.505285 
L 474.853736 166.423534 
L 477.428725 165.014659 
L 480.003713 162.663451 
L 482.578702 160.976691 
L 485.15369 164.206033 
L 487.728679 159.396858 
L 490.303667 160.061709 
L 492.878656 162.169763 
L 495.453644 161.210781 
L 498.028633 159.396858 
L 500.603621 160.976691 
L 503.17861 161.926537 
L 505.753598 164.472671 
L 508.328586 164.472671 
L 510.903575 164.206033 
L 513.478563 160.976691 
L 516.053552 167.916822 
L 518.62854 166.135317 
L 521.203529 166.135317 
L 523.778517 164.472671 
L 526.353506 164.206033 
L 528.928494 164.472671 
L 531.503483 170.509332 
L 534.078471 171.914236 
L 536.65346 171.555518 
L 539.228448 171.555518 
L 541.803436 170.853206 
L 544.378425 168.540115 
L 546.953413 165.290137 
L 549.528402 161.447091 
L 552.10339 153.228861 
L 554.678379 151.898922 
L 557.253367 149.581733 
L 559.828356 150.482932 
L 562.403344 150.330452 
L 564.978333 151.259644 
L 567.553321 152.555024 
L 570.12831 156.122592 
L 572.703298 155.553812 
L 575.278287 157.502495 
L 577.853275 156.315106 
L 580.428263 156.704653 
L 583.003252 156.509119 
L 585.57824 153.228861 
L 588.153229 152.721783 
L 590.728217 151.898922 
L 593.303206 150.028261 
L 595.878194 147.734188 
L 598.453183 147.326597 
L 601.028171 147.734188 
L 603.60316 150.482932 
L 606.178148 150.790719 
L 608.753137 152.889666 
L 611.328125 153.572735 
L 613.903113 158.749277 
L 616.478102 158.963274 
L 619.05309 156.901732 
L 621.628079 158.118093 
L 624.203067 160.287326 
L 626.778056 159.396858 
L 629.353044 157.100382 
L 631.928033 157.9112 
L 634.503021 157.9112 
L 637.07801 159.396858 
L 639.652998 160.744778 
L 642.227987 158.963274 
L 644.802975 160.061709 
L 647.377963 165.850395 
L 649.952952 163.167114 
L 652.52794 165.290137 
L 655.102929 163.942216 
L 657.677917 160.287326 
L 660.252906 162.663451 
L 662.827894 163.422813 
L 665.402883 161.210781 
L 667.977871 162.914011 
L 670.55286 161.926537 
L 673.127848 164.472671 
L 675.702837 166.135317 
L 678.277825 165.850395 
L 680.852814 167.308732 
L 683.427802 169.835495 
L 686.00279 171.914236 
L 688.577779 170.509332 
L 691.152767 171.201889 
L 693.727756 171.201889 
L 696.302744 172.647537 
L 698.877733 171.201889 
L 701.452721 173.78959 
L 704.02771 174.182203 
L 706.602698 175.817573 
L 709.177687 175.398564 
L 711.752675 177.118587 
L 714.327664 175.398564 
L 716.902652 177.118587 
L 719.47764 174.986481 
L 724.627617 175.817573 
L 727.202606 172.278191 
L 729.777594 171.201889 
L 732.352583 173.022438 
L 734.927571 172.647537 
L 737.50256 173.022438 
L 740.077548 172.647537 
L 742.652537 173.403063 
L 745.227525 178.025249 
L 747.802514 178.491252 
L 750.377502 176.677329 
L 752.95249 177.118587 
L 755.527479 177.118587 
L 758.102467 170.853206 
L 763.252444 170.853206 
L 765.827433 172.278191 
L 768.402421 172.278191 
L 770.97741 171.201889 
L 773.552398 169.179393 
L 776.127387 171.914236 
L 778.702375 172.647537 
L 783.852352 170.509332 
L 786.427341 172.278191 
L 789.002329 170.170137 
L 791.577317 170.170137 
L 794.152306 171.201889 
L 796.727294 169.505285 
L 799.302283 170.170137 
L 801.877271 169.505285 
L 804.45226 168.226521 
L 809.602237 177.118587 
L 812.177225 178.966132 
L 814.752214 179.943922 
L 817.327202 178.966132 
L 819.902191 179.943922 
L 822.477179 179.450234 
L 825.052167 178.491252 
L 827.627156 174.986481 
L 830.202144 174.986481 
L 832.777133 175.817573 
L 835.352121 174.182203 
L 837.92711 176.677329 
L 840.502098 181.486504 
L 843.077087 182.022663 
L 845.652075 186.785756 
L 848.227064 190.302909 
L 850.802052 186.785756 
L 853.377041 190.302909 
L 855.952029 191.070061 
L 858.527017 186.138176 
L 861.102006 187.450608 
L 863.676994 186.138176 
L 866.251983 186.138176 
L 868.826971 191.070061 
L 871.40196 191.86157 
L 873.976948 194.399058 
L 876.551937 199.303134 
L 879.126925 200.411337 
L 881.701914 205.414147 
L 886.851891 205.414147 
L 889.426879 206.839132 
L 892.001868 201.571102 
L 894.576856 206.839132 
L 897.151844 209.959506 
L 899.726833 213.527074 
L 902.301821 217.691808 
L 904.87681 215.522575 
L 907.451798 213.527074 
L 910.026787 217.691808 
L 912.601775 204.066227 
L 915.176764 201.571102 
L 917.751752 198.242104 
L 920.326741 198.242104 
L 925.476718 200.411337 
L 928.051706 197.224393 
L 930.626694 206.839132 
L 935.776671 209.959506 
L 940.926648 209.959506 
L 943.501637 208.350531 
L 946.076625 217.691808 
L 948.651614 206.839132 
L 951.226602 208.350531 
L 953.801591 211.679529 
L 958.951568 211.679529 
L 961.526556 213.527074 
L 964.101544 211.679529 
L 966.676533 217.691808 
L 979.551475 217.691808 
L 982.126464 220.067933 
L 984.701452 222.694618 
L 1000.151383 222.694618 
L 1002.726371 225.631002 
L 1018.176302 225.631002 
L 1020.751291 222.694618 
L 1036.201221 222.694618 
L 1038.77621 228.96 
L 1095.425956 228.96 
L 1098.000945 225.631002 
L 1098.000945 225.631002 
" style="fill:none;stroke:#d18cad;stroke-linecap:square;stroke-width:2;"/>
   </g>
   <g id="line2d_21">
    <path clip-path="url(#p7577817869)" d="M 147.830202 220.067933 
L 150.40519 222.694618 
L 152.980179 225.631002 
L 155.555167 225.631002 
L 158.130155 222.694618 
L 160.705144 220.067933 
L 173.580086 220.067933 
L 176.155075 225.631002 
L 183.88004 225.631002 
L 186.455029 217.691808 
L 194.179994 217.691808 
L 196.754982 213.527074 
L 201.904959 213.527074 
L 204.479948 220.067933 
L 209.629925 220.067933 
L 212.204913 198.242104 
L 214.779902 194.399058 
L 217.35489 189.558661 
L 219.929879 186.138176 
L 222.504867 185.506991 
L 225.079856 184.290631 
L 227.654844 184.290631 
L 230.229832 194.399058 
L 232.804821 186.138176 
L 235.379809 184.891394 
L 237.954798 185.506991 
L 240.529786 168.540115 
L 243.104775 156.901732 
L 245.679763 155.553812 
L 248.254752 154.815078 
L 250.82974 144.767383 
L 253.404729 142.557645 
L 255.979717 142.893791 
L 258.554706 136.817135 
L 261.129694 137.443786 
L 263.704682 136.553318 
L 266.279671 133.126104 
L 268.854659 128.926208 
L 271.429648 120.436778 
L 274.004636 115.131676 
L 276.579625 115.504893 
L 279.154613 116.502244 
L 281.729602 113.345063 
L 284.30459 111.581401 
L 286.879579 114.079908 
L 289.454567 119.714106 
L 292.029556 120.0277 
L 294.604544 113.207515 
L 297.179532 112.397795 
L 299.754521 114.727489 
L 302.329509 117.419055 
L 304.904498 116.036966 
L 307.479486 114.079908 
L 310.054475 115.617957 
L 312.629463 124.781304 
L 315.204452 124.45612 
L 317.77944 124.295104 
L 320.354429 122.094683 
L 322.929417 124.510023 
L 325.504406 120.299671 
L 328.079394 119.316623 
L 330.654382 119.185525 
L 333.229371 109.54639 
L 335.804359 104.090141 
L 338.379348 101.027206 
L 340.954336 86.338381 
L 343.529325 83.620823 
L 346.104313 81.44723 
L 348.679302 77.044566 
L 351.25429 74.091215 
L 356.404267 67.371368 
L 358.979256 67.436902 
L 361.554244 64.25324 
L 364.129233 63.064396 
L 366.704221 63.281004 
L 369.279209 63.23938 
L 371.854198 64.572928 
L 374.429186 66.251548 
L 377.004175 69.375051 
L 379.579163 74.436378 
L 382.154152 72.161171 
L 384.72914 71.055842 
L 387.304129 71.976793 
L 389.879117 66.340353 
L 392.454106 64.166759 
L 395.029094 61.733146 
L 397.604083 60.378587 
L 400.179071 57.257487 
L 402.754059 55.029856 
L 405.329048 52.097535 
L 407.904036 52.317214 
L 410.479025 52.735162 
L 413.054013 52.320196 
L 415.629002 50.006502 
L 418.20399 49.889909 
L 420.778979 49.965768 
L 423.353967 49.133253 
L 425.928956 46.967957 
L 431.078933 43.921144 
L 433.653921 42.689478 
L 436.228909 43.286287 
L 438.803898 42.521841 
L 441.378886 42.136336 
L 443.953875 42.578267 
L 446.528863 41.94678 
L 449.103852 42.313367 
L 454.253829 41.672902 
L 456.828817 42.347326 
L 459.403806 39.474989 
L 461.978794 38.119476 
L 464.553783 36.351472 
L 472.278748 32.233568 
L 474.853736 31.955339 
L 477.428725 34.329752 
L 482.578702 38.384064 
L 485.15369 39.702257 
L 487.728679 42.911355 
L 490.303667 45.399164 
L 492.878656 45.448916 
L 495.453644 44.389678 
L 498.028633 43.473798 
L 500.603621 42.138318 
L 503.17861 41.432812 
L 505.753598 40.037069 
L 508.328586 39.542774 
L 510.903575 38.305752 
L 513.478563 36.829073 
L 516.053552 35.793554 
L 518.62854 36.17451 
L 523.778517 36.569303 
L 528.928494 35.795091 
L 531.503483 36.8836 
L 534.078471 37.654816 
L 536.65346 37.537519 
L 539.228448 35.229812 
L 541.803436 35.297515 
L 544.378425 35.827387 
L 546.953413 36.877179 
L 549.528402 36.996241 
L 554.678379 36.298095 
L 557.253367 39.101923 
L 559.828356 39.140561 
L 562.403344 39.322259 
L 564.978333 40.530211 
L 567.553321 40.806783 
L 570.12831 40.666245 
L 572.703298 39.189824 
L 575.278287 36.920555 
L 577.853275 36.197928 
L 580.428263 35.059117 
L 585.57824 32.210929 
L 588.153229 31.650227 
L 593.303206 34.647694 
L 595.878194 35.887477 
L 598.453183 35.779726 
L 603.60316 35.292996 
L 606.178148 35.55191 
L 608.753137 35.299022 
L 611.328125 34.54516 
L 613.903113 33.62112 
L 616.478102 34.244395 
L 619.05309 34.999499 
L 621.628079 36.76827 
L 624.203067 37.539168 
L 626.778056 38.0504 
L 631.928033 41.151153 
L 634.503021 42.104643 
L 637.07801 43.265539 
L 639.652998 45.33148 
L 642.227987 46.871904 
L 644.802975 48.089943 
L 647.377963 49.900732 
L 649.952952 50.942473 
L 652.52794 52.878083 
L 655.102929 53.873567 
L 657.677917 54.48726 
L 660.252906 55.486138 
L 662.827894 55.950928 
L 665.402883 55.792748 
L 667.977871 56.27732 
L 670.55286 56.002726 
L 673.127848 56.611584 
L 675.702837 56.512597 
L 678.277825 57.235685 
L 680.852814 57.3887 
L 683.427802 57.061953 
L 686.00279 57.308432 
L 691.152767 58.90284 
L 693.727756 59.066472 
L 696.302744 58.992315 
L 698.877733 59.998337 
L 701.452721 60.852754 
L 706.602698 61.072073 
L 709.177687 61.44338 
L 711.752675 63.644686 
L 716.902652 63.951861 
L 719.47764 64.090139 
L 722.052629 64.842502 
L 724.627617 65.120005 
L 727.202606 65.055309 
L 729.777594 64.490191 
L 732.352583 65.511749 
L 734.927571 66.682845 
L 737.50256 68.316237 
L 740.077548 69.416458 
L 742.652537 70.265519 
L 745.227525 70.691796 
L 747.802514 71.976793 
L 750.377502 74.03415 
L 752.95249 74.567056 
L 755.527479 75.313289 
L 758.102467 76.29228 
L 760.677456 76.574692 
L 763.252444 77.092849 
L 765.827433 78.011746 
L 768.402421 78.475699 
L 770.97741 79.175093 
L 773.552398 79.210144 
L 776.127387 78.331371 
L 778.702375 78.578083 
L 781.277364 78.663725 
L 783.852352 80.075593 
L 786.427341 79.679291 
L 794.152306 83.051729 
L 796.727294 82.736599 
L 799.302283 83.236551 
L 801.877271 83.123441 
L 804.45226 85.704571 
L 807.027248 87.6688 
L 809.602237 91.108846 
L 812.177225 95.96136 
L 814.752214 101.644908 
L 817.327202 106.934514 
L 819.902191 115.693618 
L 822.477179 120.574642 
L 825.052167 126.241613 
L 827.627156 129.185228 
L 830.202144 126.826861 
L 832.777133 127.547792 
L 835.352121 127.305158 
L 837.92711 127.42618 
L 840.502098 128.7977 
L 843.077087 132.598057 
L 845.652075 133.432945 
L 848.227064 137.083773 
L 850.802052 135.441313 
L 853.377041 135.026487 
L 855.952029 135.609195 
L 858.527017 137.353294 
L 861.102006 137.901238 
L 863.676994 137.993745 
L 866.251983 139.621261 
L 868.826971 143.006855 
L 871.40196 142.33604 
L 873.976948 144.28562 
L 876.551937 146.400691 
L 879.126925 147.058525 
L 881.701914 150.482932 
L 884.276902 151.577234 
L 886.851891 153.228861 
L 889.426879 160.744778 
L 894.576856 167.610923 
L 897.151844 176.243745 
L 899.726833 182.022663 
L 902.301821 187.450608 
L 904.87681 190.302909 
L 907.451798 187.450608 
L 910.026787 189.558661 
L 912.601775 186.785756 
L 915.176764 180.961633 
L 917.751752 180.447585 
L 920.326741 175.817573 
L 922.901729 175.398564 
L 925.476718 172.647537 
L 928.051706 173.403063 
L 930.626694 166.715121 
L 933.201683 155.553812 
L 935.776671 153.921418 
L 938.35166 155.741967 
L 940.926648 155.931554 
L 943.501637 158.118093 
L 946.076625 158.118093 
L 948.651614 163.942216 
L 951.226602 187.450608 
L 953.801591 195.30572 
L 956.376579 196.246603 
L 958.951568 198.242104 
L 964.101544 198.242104 
L 966.676533 202.787462 
L 971.82651 205.414147 
L 974.401498 209.959506 
L 976.976487 208.350531 
L 979.551475 213.527074 
L 982.126464 217.691808 
L 984.701452 211.679529 
L 987.276441 213.527074 
L 989.851429 213.527074 
L 992.426418 211.679529 
L 995.001406 213.527074 
L 997.576394 209.959506 
L 1000.151383 204.066227 
L 1002.726371 201.571102 
L 1005.30136 200.411337 
L 1010.451337 202.787462 
L 1013.026325 201.571102 
L 1015.601314 201.571102 
L 1018.176302 205.414147 
L 1020.751291 211.679529 
L 1023.326279 211.679529 
L 1025.901268 209.959506 
L 1028.476256 209.959506 
L 1033.626233 213.527074 
L 1036.201221 213.527074 
L 1038.77621 211.679529 
L 1041.351198 213.527074 
L 1051.651152 213.527074 
L 1054.226141 211.679529 
L 1056.801129 215.522575 
L 1059.376118 211.679529 
L 1061.951106 211.679529 
L 1064.526095 209.959506 
L 1067.101083 209.959506 
L 1069.676071 211.679529 
L 1072.25106 217.691808 
L 1074.826048 215.522575 
L 1077.401037 211.679529 
L 1079.976025 211.679529 
L 1082.551014 208.350531 
L 1090.275979 208.350531 
L 1092.850968 209.959506 
L 1095.425956 217.691808 
L 1098.000945 220.067933 
L 1100.575933 228.96 
L 1116.025864 228.96 
L 1118.600852 222.694618 
L 1118.600852 222.694618 
" style="fill:none;stroke:#a4a86f;stroke-linecap:square;stroke-width:2;"/>
   </g>
   <g id="line2d_22">
    <path clip-path="url(#p7577817869)" d="M 330.654382 225.631002 
L 333.229371 228.96 
L 335.804359 228.96 
L 338.379348 222.694618 
L 340.954336 222.694618 
L 343.529325 215.522575 
L 353.829279 215.522575 
L 356.404267 217.691808 
L 358.979256 217.691808 
L 361.554244 225.631002 
L 364.129233 217.691808 
L 366.704221 213.527074 
L 371.854198 213.527074 
L 374.429186 211.679529 
L 377.004175 211.679529 
L 379.579163 209.959506 
L 382.154152 209.959506 
L 384.72914 211.679529 
L 387.304129 208.350531 
L 389.879117 208.350531 
L 392.454106 209.959506 
L 395.029094 206.839132 
L 397.604083 197.224393 
L 400.179071 196.246603 
L 402.754059 197.224393 
L 405.329048 199.303134 
L 407.904036 198.242104 
L 410.479025 193.524216 
L 415.629002 195.30572 
L 418.20399 194.399058 
L 420.778979 192.679035 
L 423.353967 190.302909 
L 425.928956 190.302909 
L 428.503944 192.679035 
L 431.078933 190.302909 
L 433.653921 193.524216 
L 436.228909 193.524216 
L 438.803898 194.399058 
L 441.378886 192.679035 
L 443.953875 192.679035 
L 446.528863 191.86157 
L 449.103852 191.86157 
L 451.67884 190.302909 
L 456.828817 188.835989 
L 459.403806 191.86157 
L 464.553783 191.86157 
L 467.128771 193.524216 
L 469.70376 197.224393 
L 472.278748 200.411337 
L 474.853736 201.571102 
L 477.428725 201.571102 
L 480.003713 198.242104 
L 482.578702 195.30572 
L 485.15369 197.224393 
L 487.728679 197.224393 
L 490.303667 200.411337 
L 492.878656 200.411337 
L 495.453644 192.679035 
L 498.028633 190.302909 
L 500.603621 196.246603 
L 503.17861 184.290631 
L 505.753598 182.570607 
L 508.328586 179.943922 
L 510.903575 179.943922 
L 513.478563 183.130866 
L 516.053552 185.506991 
L 518.62854 184.290631 
L 521.203529 190.302909 
L 523.778517 191.070061 
L 526.353506 194.399058 
L 528.928494 190.302909 
L 531.503483 191.86157 
L 534.078471 191.070061 
L 536.65346 191.070061 
L 539.228448 195.30572 
L 541.803436 197.224393 
L 544.378425 193.524216 
L 546.953413 197.224393 
L 549.528402 196.246603 
L 552.10339 197.224393 
L 554.678379 191.070061 
L 557.253367 188.835989 
L 562.403344 190.302909 
L 564.978333 189.558661 
L 567.553321 186.785756 
L 570.12831 185.506991 
L 572.703298 188.133676 
L 575.278287 189.558661 
L 577.853275 184.290631 
L 580.428263 179.943922 
L 583.003252 178.966132 
L 585.57824 179.450234 
L 590.728217 182.570607 
L 593.303206 180.447585 
L 595.878194 183.704005 
L 598.453183 189.558661 
L 601.028171 191.070061 
L 603.60316 188.133676 
L 606.178148 188.133676 
L 608.753137 186.138176 
L 611.328125 188.835989 
L 613.903113 190.302909 
L 616.478102 184.891394 
L 619.05309 184.891394 
L 621.628079 182.022663 
L 624.203067 180.961633 
L 626.778056 179.450234 
L 629.353044 178.491252 
L 631.928033 175.817573 
L 634.503021 177.118587 
L 637.07801 177.567797 
L 639.652998 180.447585 
L 642.227987 180.447585 
L 644.802975 183.130866 
L 647.377963 184.290631 
L 649.952952 186.785756 
L 652.52794 187.450608 
L 655.102929 183.704005 
L 657.677917 184.290631 
L 660.252906 179.943922 
L 662.827894 179.450234 
L 665.402883 178.491252 
L 667.977871 175.398564 
L 670.55286 173.022438 
L 673.127848 174.986481 
L 675.702837 176.677329 
L 678.277825 174.581099 
L 683.427802 173.78959 
L 686.00279 174.581099 
L 688.577779 176.243745 
L 693.727756 171.201889 
L 696.302744 174.986481 
L 698.877733 176.677329 
L 704.02771 177.567797 
L 706.602698 180.447585 
L 709.177687 183.130866 
L 711.752675 185.506991 
L 714.327664 184.891394 
L 716.902652 182.570607 
L 719.47764 183.704005 
L 722.052629 186.138176 
L 724.627617 187.450608 
L 727.202606 190.302909 
L 729.777594 192.679035 
L 732.352583 195.30572 
L 734.927571 200.411337 
L 737.50256 196.246603 
L 740.077548 193.524216 
L 742.652537 194.399058 
L 745.227525 194.399058 
L 747.802514 197.224393 
L 750.377502 199.303134 
L 752.95249 198.242104 
L 755.527479 205.414147 
L 758.102467 213.527074 
L 760.677456 211.679529 
L 763.252444 208.350531 
L 765.827433 208.350531 
L 768.402421 213.527074 
L 770.97741 208.350531 
L 773.552398 209.959506 
L 776.127387 208.350531 
L 778.702375 208.350531 
L 781.277364 211.679529 
L 783.852352 209.959506 
L 786.427341 201.571102 
L 789.002329 202.787462 
L 791.577317 200.411337 
L 794.152306 199.303134 
L 796.727294 195.30572 
L 799.302283 194.399058 
L 801.877271 192.679035 
L 804.45226 195.30572 
L 809.602237 197.224393 
L 812.177225 197.224393 
L 814.752214 201.571102 
L 819.902191 204.066227 
L 822.477179 205.414147 
L 825.052167 205.414147 
L 827.627156 206.839132 
L 830.202144 209.959506 
L 832.777133 209.959506 
L 835.352121 206.839132 
L 837.92711 202.787462 
L 840.502098 204.066227 
L 843.077087 202.787462 
L 845.652075 200.411337 
L 848.227064 199.303134 
L 850.802052 196.246603 
L 853.377041 197.224393 
L 855.952029 200.411337 
L 858.527017 199.303134 
L 861.102006 202.787462 
L 863.676994 200.411337 
L 866.251983 198.242104 
L 868.826971 196.246603 
L 871.40196 191.86157 
L 873.976948 192.679035 
L 876.551937 191.86157 
L 879.126925 189.558661 
L 881.701914 192.679035 
L 884.276902 195.30572 
L 886.851891 195.30572 
L 889.426879 200.411337 
L 892.001868 193.524216 
L 894.576856 194.399058 
L 897.151844 197.224393 
L 899.726833 197.224393 
L 902.301821 198.242104 
L 904.87681 205.414147 
L 907.451798 206.839132 
L 910.026787 220.067933 
L 912.601775 225.631002 
L 920.326741 225.631002 
L 922.901729 222.694618 
L 943.501637 222.694618 
L 946.076625 225.631002 
L 948.651614 225.631002 
L 951.226602 222.694618 
L 956.376579 222.694618 
L 958.951568 225.631002 
L 971.82651 225.631002 
L 974.401498 222.694618 
L 979.551475 222.694618 
L 982.126464 220.067933 
L 982.126464 220.067933 
" style="fill:none;stroke:#d3d3d3;stroke-linecap:square;stroke-width:2;"/>
   </g>
   <g id="patch_3">
    <path d="M 53.328125 228.96 
L 53.328125 7.2 
" style="fill:none;stroke:#000000;stroke-linecap:square;stroke-linejoin:miter;stroke-width:0.8;"/>
   </g>
   <g id="patch_4">
    <path d="M 53.328125 228.96 
L 1169.328125 228.96 
" style="fill:none;stroke:#000000;stroke-linecap:square;stroke-linejoin:miter;stroke-width:0.8;"/>
   </g>
   <g id="legend_1">
    <g id="line2d_23">
     <path d="M 1075.516875 17.67875 
L 1091.516875 17.67875 
" style="fill:none;stroke:#947383;stroke-linecap:square;stroke-width:2;"/>
    </g>
    <g id="line2d_24"/>
    <g id="text_18">
     <!-- North America -->
     <g transform="translate(1097.916875 20.47875)scale(0.08 -0.08)">
      <defs>
       <path d="M 628 4666 
L 1478 4666 
L 3547 763 
L 3547 4666 
L 4159 4666 
L 4159 0 
L 3309 0 
L 1241 3903 
L 1241 0 
L 628 0 
L 628 4666 
z
" id="DejaVuSans-4e" transform="scale(0.015625)"/>
       <path d="M 3513 2113 
L 3513 0 
L 2938 0 
L 2938 2094 
Q 2938 2591 2744 2837 
Q 2550 3084 2163 3084 
Q 1697 3084 1428 2787 
Q 1159 2491 1159 1978 
L 1159 0 
L 581 0 
L 581 4863 
L 1159 4863 
L 1159 2956 
Q 1366 3272 1645 3428 
Q 1925 3584 2291 3584 
Q 2894 3584 3203 3211 
Q 3513 2838 3513 2113 
z
" id="DejaVuSans-68" transform="scale(0.015625)"/>
       <path d="M 2188 4044 
L 1331 1722 
L 3047 1722 
L 2188 4044 
z
M 1831 4666 
L 2547 4666 
L 4325 0 
L 3669 0 
L 3244 1197 
L 1141 1197 
L 716 0 
L 50 0 
L 1831 4666 
z
" id="DejaVuSans-41" transform="scale(0.015625)"/>
       <path d="M 3328 2828 
Q 3544 3216 3844 3400 
Q 4144 3584 4550 3584 
Q 5097 3584 5394 3201 
Q 5691 2819 5691 2113 
L 5691 0 
L 5113 0 
L 5113 2094 
Q 5113 2597 4934 2840 
Q 4756 3084 4391 3084 
Q 3944 3084 3684 2787 
Q 3425 2491 3425 1978 
L 3425 0 
L 2847 0 
L 2847 2094 
Q 2847 2600 2669 2842 
Q 2491 3084 2119 3084 
Q 1678 3084 1418 2786 
Q 1159 2488 1159 1978 
L 1159 0 
L 581 0 
L 581 3500 
L 1159 3500 
L 1159 2956 
Q 1356 3278 1631 3431 
Q 1906 3584 2284 3584 
Q 2666 3584 2933 3390 
Q 3200 3197 3328 2828 
z
" id="DejaVuSans-6d" transform="scale(0.015625)"/>
       <path d="M 3122 3366 
L 3122 2828 
Q 2878 2963 2633 3030 
Q 2388 3097 2138 3097 
Q 1578 3097 1268 2742 
Q 959 2388 959 1747 
Q 959 1106 1268 751 
Q 1578 397 2138 397 
Q 2388 397 2633 464 
Q 2878 531 3122 666 
L 3122 134 
Q 2881 22 2623 -34 
Q 2366 -91 2075 -91 
Q 1284 -91 818 406 
Q 353 903 353 1747 
Q 353 2603 823 3093 
Q 1294 3584 2113 3584 
Q 2378 3584 2631 3529 
Q 2884 3475 3122 3366 
z
" id="DejaVuSans-63" transform="scale(0.015625)"/>
      </defs>
      <use xlink:href="#DejaVuSans-4e"/>
      <use x="74.804688" xlink:href="#DejaVuSans-6f"/>
      <use x="135.986328" xlink:href="#DejaVuSans-72"/>
      <use x="177.099609" xlink:href="#DejaVuSans-74"/>
      <use x="216.308594" xlink:href="#DejaVuSans-68"/>
      <use x="279.6875" xlink:href="#DejaVuSans-20"/>
      <use x="311.474609" xlink:href="#DejaVuSans-41"/>
      <use x="379.882812" xlink:href="#DejaVuSans-6d"/>
      <use x="477.294922" xlink:href="#DejaVuSans-65"/>
      <use x="538.818359" xlink:href="#DejaVuSans-72"/>
      <use x="579.931641" xlink:href="#DejaVuSans-69"/>
      <use x="607.714844" xlink:href="#DejaVuSans-63"/>
      <use x="662.695312" xlink:href="#DejaVuSans-61"/>
     </g>
    </g>
    <g id="line2d_25">
     <path d="M 1075.516875 29.42125 
L 1091.516875 29.42125 
" style="fill:none;stroke:#96c6ad;stroke-linecap:square;stroke-width:2;"/>
    </g>
    <g id="line2d_26"/>
    <g id="text_19">
     <!-- South America -->
     <g transform="translate(1097.916875 32.22125)scale(0.08 -0.08)">
      <defs>
       <path d="M 3425 4513 
L 3425 3897 
Q 3066 4069 2747 4153 
Q 2428 4238 2131 4238 
Q 1616 4238 1336 4038 
Q 1056 3838 1056 3469 
Q 1056 3159 1242 3001 
Q 1428 2844 1947 2747 
L 2328 2669 
Q 3034 2534 3370 2195 
Q 3706 1856 3706 1288 
Q 3706 609 3251 259 
Q 2797 -91 1919 -91 
Q 1588 -91 1214 -16 
Q 841 59 441 206 
L 441 856 
Q 825 641 1194 531 
Q 1563 422 1919 422 
Q 2459 422 2753 634 
Q 3047 847 3047 1241 
Q 3047 1584 2836 1778 
Q 2625 1972 2144 2069 
L 1759 2144 
Q 1053 2284 737 2584 
Q 422 2884 422 3419 
Q 422 4038 858 4394 
Q 1294 4750 2059 4750 
Q 2388 4750 2728 4690 
Q 3069 4631 3425 4513 
z
" id="DejaVuSans-53" transform="scale(0.015625)"/>
      </defs>
      <use xlink:href="#DejaVuSans-53"/>
      <use x="63.476562" xlink:href="#DejaVuSans-6f"/>
      <use x="124.658203" xlink:href="#DejaVuSans-75"/>
      <use x="188.037109" xlink:href="#DejaVuSans-74"/>
      <use x="227.246094" xlink:href="#DejaVuSans-68"/>
      <use x="290.625" xlink:href="#DejaVuSans-20"/>
      <use x="322.412109" xlink:href="#DejaVuSans-41"/>
      <use x="390.820312" xlink:href="#DejaVuSans-6d"/>
      <use x="488.232422" xlink:href="#DejaVuSans-65"/>
      <use x="549.755859" xlink:href="#DejaVuSans-72"/>
      <use x="590.869141" xlink:href="#DejaVuSans-69"/>
      <use x="618.652344" xlink:href="#DejaVuSans-63"/>
      <use x="673.632812" xlink:href="#DejaVuSans-61"/>
     </g>
    </g>
    <g id="line2d_27">
     <path d="M 1075.516875 41.16375 
L 1091.516875 41.16375 
" style="fill:none;stroke:#525886;stroke-linecap:square;stroke-width:2;"/>
    </g>
    <g id="line2d_28"/>
    <g id="text_20">
     <!-- Europe -->
     <g transform="translate(1097.916875 43.96375)scale(0.08 -0.08)">
      <defs>
       <path d="M 628 4666 
L 3578 4666 
L 3578 4134 
L 1259 4134 
L 1259 2753 
L 3481 2753 
L 3481 2222 
L 1259 2222 
L 1259 531 
L 3634 531 
L 3634 0 
L 628 0 
L 628 4666 
z
" id="DejaVuSans-45" transform="scale(0.015625)"/>
       <path d="M 1159 525 
L 1159 -1331 
L 581 -1331 
L 581 3500 
L 1159 3500 
L 1159 2969 
Q 1341 3281 1617 3432 
Q 1894 3584 2278 3584 
Q 2916 3584 3314 3078 
Q 3713 2572 3713 1747 
Q 3713 922 3314 415 
Q 2916 -91 2278 -91 
Q 1894 -91 1617 61 
Q 1341 213 1159 525 
z
M 3116 1747 
Q 3116 2381 2855 2742 
Q 2594 3103 2138 3103 
Q 1681 3103 1420 2742 
Q 1159 2381 1159 1747 
Q 1159 1113 1420 752 
Q 1681 391 2138 391 
Q 2594 391 2855 752 
Q 3116 1113 3116 1747 
z
" id="DejaVuSans-70" transform="scale(0.015625)"/>
      </defs>
      <use xlink:href="#DejaVuSans-45"/>
      <use x="63.183594" xlink:href="#DejaVuSans-75"/>
      <use x="126.5625" xlink:href="#DejaVuSans-72"/>
      <use x="165.425781" xlink:href="#DejaVuSans-6f"/>
      <use x="226.607422" xlink:href="#DejaVuSans-70"/>
      <use x="290.083984" xlink:href="#DejaVuSans-65"/>
     </g>
    </g>
    <g id="line2d_29">
     <path d="M 1075.516875 52.90625 
L 1091.516875 52.90625 
" style="fill:none;stroke:#937252;stroke-linecap:square;stroke-width:2;"/>
    </g>
    <g id="line2d_30"/>
    <g id="text_21">
     <!-- Asia -->
     <g transform="translate(1097.916875 55.70625)scale(0.08 -0.08)">
      <defs>
       <path d="M 2834 3397 
L 2834 2853 
Q 2591 2978 2328 3040 
Q 2066 3103 1784 3103 
Q 1356 3103 1142 2972 
Q 928 2841 928 2578 
Q 928 2378 1081 2264 
Q 1234 2150 1697 2047 
L 1894 2003 
Q 2506 1872 2764 1633 
Q 3022 1394 3022 966 
Q 3022 478 2636 193 
Q 2250 -91 1575 -91 
Q 1294 -91 989 -36 
Q 684 19 347 128 
L 347 722 
Q 666 556 975 473 
Q 1284 391 1588 391 
Q 1994 391 2212 530 
Q 2431 669 2431 922 
Q 2431 1156 2273 1281 
Q 2116 1406 1581 1522 
L 1381 1569 
Q 847 1681 609 1914 
Q 372 2147 372 2553 
Q 372 3047 722 3315 
Q 1072 3584 1716 3584 
Q 2034 3584 2315 3537 
Q 2597 3491 2834 3397 
z
" id="DejaVuSans-73" transform="scale(0.015625)"/>
      </defs>
      <use xlink:href="#DejaVuSans-41"/>
      <use x="68.408203" xlink:href="#DejaVuSans-73"/>
      <use x="120.507812" xlink:href="#DejaVuSans-69"/>
      <use x="148.291016" xlink:href="#DejaVuSans-61"/>
     </g>
    </g>
    <g id="line2d_31">
     <path d="M 1075.516875 64.64875 
L 1091.516875 64.64875 
" style="fill:none;stroke:#d18cad;stroke-linecap:square;stroke-width:2;"/>
    </g>
    <g id="line2d_32"/>
    <g id="text_22">
     <!-- Africa -->
     <g transform="translate(1097.916875 67.44875)scale(0.08 -0.08)">
      <defs>
       <path d="M 2375 4863 
L 2375 4384 
L 1825 4384 
Q 1516 4384 1395 4259 
Q 1275 4134 1275 3809 
L 1275 3500 
L 2222 3500 
L 2222 3053 
L 1275 3053 
L 1275 0 
L 697 0 
L 697 3053 
L 147 3053 
L 147 3500 
L 697 3500 
L 697 3744 
Q 697 4328 969 4595 
Q 1241 4863 1831 4863 
L 2375 4863 
z
" id="DejaVuSans-66" transform="scale(0.015625)"/>
      </defs>
      <use xlink:href="#DejaVuSans-41"/>
      <use x="64.783203" xlink:href="#DejaVuSans-66"/>
      <use x="99.988281" xlink:href="#DejaVuSans-72"/>
      <use x="141.101562" xlink:href="#DejaVuSans-69"/>
      <use x="168.884766" xlink:href="#DejaVuSans-63"/>
      <use x="223.865234" xlink:href="#DejaVuSans-61"/>
     </g>
    </g>
    <g id="line2d_33">
     <path d="M 1075.516875 76.39125 
L 1091.516875 76.39125 
" style="fill:none;stroke:#a4a86f;stroke-linecap:square;stroke-width:2;"/>
    </g>
    <g id="line2d_34"/>
    <g id="text_23">
     <!-- United Kingdom -->
     <g transform="translate(1097.916875 79.19125)scale(0.08 -0.08)">
      <defs>
       <path d="M 556 4666 
L 1191 4666 
L 1191 1831 
Q 1191 1081 1462 751 
Q 1734 422 2344 422 
Q 2950 422 3222 751 
Q 3494 1081 3494 1831 
L 3494 4666 
L 4128 4666 
L 4128 1753 
Q 4128 841 3676 375 
Q 3225 -91 2344 -91 
Q 1459 -91 1007 375 
Q 556 841 556 1753 
L 556 4666 
z
" id="DejaVuSans-55" transform="scale(0.015625)"/>
       <path d="M 628 4666 
L 1259 4666 
L 1259 2694 
L 3353 4666 
L 4166 4666 
L 1850 2491 
L 4331 0 
L 3500 0 
L 1259 2247 
L 1259 0 
L 628 0 
L 628 4666 
z
" id="DejaVuSans-4b" transform="scale(0.015625)"/>
      </defs>
      <use xlink:href="#DejaVuSans-55"/>
      <use x="73.193359" xlink:href="#DejaVuSans-6e"/>
      <use x="136.572266" xlink:href="#DejaVuSans-69"/>
      <use x="164.355469" xlink:href="#DejaVuSans-74"/>
      <use x="203.564453" xlink:href="#DejaVuSans-65"/>
      <use x="265.087891" xlink:href="#DejaVuSans-64"/>
      <use x="328.564453" xlink:href="#DejaVuSans-20"/>
      <use x="360.351562" xlink:href="#DejaVuSans-4b"/>
      <use x="425.927734" xlink:href="#DejaVuSans-69"/>
      <use x="453.710938" xlink:href="#DejaVuSans-6e"/>
      <use x="517.089844" xlink:href="#DejaVuSans-67"/>
      <use x="580.566406" xlink:href="#DejaVuSans-64"/>
      <use x="644.042969" xlink:href="#DejaVuSans-6f"/>
      <use x="705.224609" xlink:href="#DejaVuSans-6d"/>
     </g>
    </g>
    <g id="line2d_35">
     <path d="M 1075.516875 88.13375 
L 1091.516875 88.13375 
" style="fill:none;stroke:#d3d3d3;stroke-linecap:square;stroke-width:2;"/>
    </g>
    <g id="line2d_36"/>
    <g id="text_24">
     <!-- Oceania -->
     <g transform="translate(1097.916875 90.93375)scale(0.08 -0.08)">
      <defs>
       <path d="M 2522 4238 
Q 1834 4238 1429 3725 
Q 1025 3213 1025 2328 
Q 1025 1447 1429 934 
Q 1834 422 2522 422 
Q 3209 422 3611 934 
Q 4013 1447 4013 2328 
Q 4013 3213 3611 3725 
Q 3209 4238 2522 4238 
z
M 2522 4750 
Q 3503 4750 4090 4092 
Q 4678 3434 4678 2328 
Q 4678 1225 4090 567 
Q 3503 -91 2522 -91 
Q 1538 -91 948 565 
Q 359 1222 359 2328 
Q 359 3434 948 4092 
Q 1538 4750 2522 4750 
z
" id="DejaVuSans-4f" transform="scale(0.015625)"/>
      </defs>
      <use xlink:href="#DejaVuSans-4f"/>
      <use x="78.710938" xlink:href="#DejaVuSans-63"/>
      <use x="133.691406" xlink:href="#DejaVuSans-65"/>
      <use x="195.214844" xlink:href="#DejaVuSans-61"/>
      <use x="256.494141" xlink:href="#DejaVuSans-6e"/>
      <use x="319.873047" xlink:href="#DejaVuSans-69"/>
      <use x="347.65625" xlink:href="#DejaVuSans-61"/>
     </g>
    </g>
   </g>
  </g>
 </g>
 <defs>
  <clipPath id="p7577817869">
   <rect height="221.76" width="1116" x="53.328125" y="7.2"/>
  </clipPath>
 </defs>
</svg>
