<?xml version="1.0" encoding="utf-8" standalone="no"?>
<!DOCTYPE svg PUBLIC "-//W3C//DTD SVG 1.1//EN"
  "http://www.w3.org/Graphics/SVG/1.1/DTD/svg11.dtd">
<svg height="298.620937pt" version="1.1" viewBox="0 0 1170.165625 298.620937" width="1170.165625pt" xmlns="http://www.w3.org/2000/svg" xmlns:xlink="http://www.w3.org/1999/xlink">
 <metadata>
  <rdf:RDF xmlns:cc="http://creativecommons.org/ns#" xmlns:dc="http://purl.org/dc/elements/1.1/" xmlns:rdf="http://www.w3.org/1999/02/22-rdf-syntax-ns#">
   <cc:Work>
    <dc:type rdf:resource="http://purl.org/dc/dcmitype/StillImage"/>
    <dc:date>2021-12-30T17:00:55.238123</dc:date>
    <dc:format>image/svg+xml</dc:format>
    <dc:creator>
     <cc:Agent>
      <dc:title>Matplotlib v3.4.2, https://matplotlib.org/</dc:title>
     </cc:Agent>
    </dc:creator>
   </cc:Work>
  </rdf:RDF>
 </metadata>
 <defs>
  <style type="text/css">*{stroke-linecap:butt;stroke-linejoin:round;}</style>
 </defs>
 <g id="figure_1">
  <g id="patch_1">
   <path d="M 0 298.620937 
L 1170.165625 298.620937 
L 1170.165625 0 
L 0 0 
z
" style="fill:#ffffff;"/>
  </g>
  <g id="axes_1">
   <g id="patch_2">
    <path d="M 46.965625 228.96 
L 1162.965625 228.96 
L 1162.965625 7.2 
L 46.965625 7.2 
z
" style="fill:#ffffff;"/>
   </g>
   <g id="matplotlib.axis_1">
    <g id="xtick_1">
     <g id="line2d_1">
      <defs>
       <path d="M 0 0 
L 0 3.5 
" id="macfc76cfab" style="stroke:#000000;stroke-width:0.8;"/>
      </defs>
      <g>
       <use style="stroke:#000000;stroke-width:0.8;" x="76.846073" xlink:href="#macfc76cfab" y="228.96"/>
      </g>
     </g>
     <g id="text_1">
      <!-- 2021-03 -->
      <g transform="translate(79.605448 277.742812)rotate(-90)scale(0.1 -0.1)">
       <defs>
        <path d="M 1228 531 
L 3431 531 
L 3431 0 
L 469 0 
L 469 531 
Q 828 903 1448 1529 
Q 2069 2156 2228 2338 
Q 2531 2678 2651 2914 
Q 2772 3150 2772 3378 
Q 2772 3750 2511 3984 
Q 2250 4219 1831 4219 
Q 1534 4219 1204 4116 
Q 875 4013 500 3803 
L 500 4441 
Q 881 4594 1212 4672 
Q 1544 4750 1819 4750 
Q 2544 4750 2975 4387 
Q 3406 4025 3406 3419 
Q 3406 3131 3298 2873 
Q 3191 2616 2906 2266 
Q 2828 2175 2409 1742 
Q 1991 1309 1228 531 
z
" id="DejaVuSans-32" transform="scale(0.015625)"/>
        <path d="M 2034 4250 
Q 1547 4250 1301 3770 
Q 1056 3291 1056 2328 
Q 1056 1369 1301 889 
Q 1547 409 2034 409 
Q 2525 409 2770 889 
Q 3016 1369 3016 2328 
Q 3016 3291 2770 3770 
Q 2525 4250 2034 4250 
z
M 2034 4750 
Q 2819 4750 3233 4129 
Q 3647 3509 3647 2328 
Q 3647 1150 3233 529 
Q 2819 -91 2034 -91 
Q 1250 -91 836 529 
Q 422 1150 422 2328 
Q 422 3509 836 4129 
Q 1250 4750 2034 4750 
z
" id="DejaVuSans-30" transform="scale(0.015625)"/>
        <path d="M 794 531 
L 1825 531 
L 1825 4091 
L 703 3866 
L 703 4441 
L 1819 4666 
L 2450 4666 
L 2450 531 
L 3481 531 
L 3481 0 
L 794 0 
L 794 531 
z
" id="DejaVuSans-31" transform="scale(0.015625)"/>
        <path d="M 313 2009 
L 1997 2009 
L 1997 1497 
L 313 1497 
L 313 2009 
z
" id="DejaVuSans-2d" transform="scale(0.015625)"/>
        <path d="M 2597 2516 
Q 3050 2419 3304 2112 
Q 3559 1806 3559 1356 
Q 3559 666 3084 287 
Q 2609 -91 1734 -91 
Q 1441 -91 1130 -33 
Q 819 25 488 141 
L 488 750 
Q 750 597 1062 519 
Q 1375 441 1716 441 
Q 2309 441 2620 675 
Q 2931 909 2931 1356 
Q 2931 1769 2642 2001 
Q 2353 2234 1838 2234 
L 1294 2234 
L 1294 2753 
L 1863 2753 
Q 2328 2753 2575 2939 
Q 2822 3125 2822 3475 
Q 2822 3834 2567 4026 
Q 2313 4219 1838 4219 
Q 1578 4219 1281 4162 
Q 984 4106 628 3988 
L 628 4550 
Q 988 4650 1302 4700 
Q 1616 4750 1894 4750 
Q 2613 4750 3031 4423 
Q 3450 4097 3450 3541 
Q 3450 3153 3228 2886 
Q 3006 2619 2597 2516 
z
" id="DejaVuSans-33" transform="scale(0.015625)"/>
       </defs>
       <use xlink:href="#DejaVuSans-32"/>
       <use x="63.623047" xlink:href="#DejaVuSans-30"/>
       <use x="127.246094" xlink:href="#DejaVuSans-32"/>
       <use x="190.869141" xlink:href="#DejaVuSans-31"/>
       <use x="254.492188" xlink:href="#DejaVuSans-2d"/>
       <use x="290.576172" xlink:href="#DejaVuSans-30"/>
       <use x="354.199219" xlink:href="#DejaVuSans-33"/>
      </g>
     </g>
    </g>
    <g id="xtick_2">
     <g id="line2d_2">
      <g>
       <use style="stroke:#000000;stroke-width:0.8;" x="184.554666" xlink:href="#macfc76cfab" y="228.96"/>
      </g>
     </g>
     <g id="text_2">
      <!-- 2021-04 -->
      <g transform="translate(187.314041 277.742812)rotate(-90)scale(0.1 -0.1)">
       <defs>
        <path d="M 2419 4116 
L 825 1625 
L 2419 1625 
L 2419 4116 
z
M 2253 4666 
L 3047 4666 
L 3047 1625 
L 3713 1625 
L 3713 1100 
L 3047 1100 
L 3047 0 
L 2419 0 
L 2419 1100 
L 313 1100 
L 313 1709 
L 2253 4666 
z
" id="DejaVuSans-34" transform="scale(0.015625)"/>
       </defs>
       <use xlink:href="#DejaVuSans-32"/>
       <use x="63.623047" xlink:href="#DejaVuSans-30"/>
       <use x="127.246094" xlink:href="#DejaVuSans-32"/>
       <use x="190.869141" xlink:href="#DejaVuSans-31"/>
       <use x="254.492188" xlink:href="#DejaVuSans-2d"/>
       <use x="290.576172" xlink:href="#DejaVuSans-30"/>
       <use x="354.199219" xlink:href="#DejaVuSans-34"/>
      </g>
     </g>
    </g>
    <g id="xtick_3">
     <g id="line2d_3">
      <g>
       <use style="stroke:#000000;stroke-width:0.8;" x="288.788788" xlink:href="#macfc76cfab" y="228.96"/>
      </g>
     </g>
     <g id="text_3">
      <!-- 2021-05 -->
      <g transform="translate(291.548163 277.742812)rotate(-90)scale(0.1 -0.1)">
       <defs>
        <path d="M 691 4666 
L 3169 4666 
L 3169 4134 
L 1269 4134 
L 1269 2991 
Q 1406 3038 1543 3061 
Q 1681 3084 1819 3084 
Q 2600 3084 3056 2656 
Q 3513 2228 3513 1497 
Q 3513 744 3044 326 
Q 2575 -91 1722 -91 
Q 1428 -91 1123 -41 
Q 819 9 494 109 
L 494 744 
Q 775 591 1075 516 
Q 1375 441 1709 441 
Q 2250 441 2565 725 
Q 2881 1009 2881 1497 
Q 2881 1984 2565 2268 
Q 2250 2553 1709 2553 
Q 1456 2553 1204 2497 
Q 953 2441 691 2322 
L 691 4666 
z
" id="DejaVuSans-35" transform="scale(0.015625)"/>
       </defs>
       <use xlink:href="#DejaVuSans-32"/>
       <use x="63.623047" xlink:href="#DejaVuSans-30"/>
       <use x="127.246094" xlink:href="#DejaVuSans-32"/>
       <use x="190.869141" xlink:href="#DejaVuSans-31"/>
       <use x="254.492188" xlink:href="#DejaVuSans-2d"/>
       <use x="290.576172" xlink:href="#DejaVuSans-30"/>
       <use x="354.199219" xlink:href="#DejaVuSans-35"/>
      </g>
     </g>
    </g>
    <g id="xtick_4">
     <g id="line2d_4">
      <g>
       <use style="stroke:#000000;stroke-width:0.8;" x="396.497381" xlink:href="#macfc76cfab" y="228.96"/>
      </g>
     </g>
     <g id="text_4">
      <!-- 2021-06 -->
      <g transform="translate(399.256756 277.742812)rotate(-90)scale(0.1 -0.1)">
       <defs>
        <path d="M 2113 2584 
Q 1688 2584 1439 2293 
Q 1191 2003 1191 1497 
Q 1191 994 1439 701 
Q 1688 409 2113 409 
Q 2538 409 2786 701 
Q 3034 994 3034 1497 
Q 3034 2003 2786 2293 
Q 2538 2584 2113 2584 
z
M 3366 4563 
L 3366 3988 
Q 3128 4100 2886 4159 
Q 2644 4219 2406 4219 
Q 1781 4219 1451 3797 
Q 1122 3375 1075 2522 
Q 1259 2794 1537 2939 
Q 1816 3084 2150 3084 
Q 2853 3084 3261 2657 
Q 3669 2231 3669 1497 
Q 3669 778 3244 343 
Q 2819 -91 2113 -91 
Q 1303 -91 875 529 
Q 447 1150 447 2328 
Q 447 3434 972 4092 
Q 1497 4750 2381 4750 
Q 2619 4750 2861 4703 
Q 3103 4656 3366 4563 
z
" id="DejaVuSans-36" transform="scale(0.015625)"/>
       </defs>
       <use xlink:href="#DejaVuSans-32"/>
       <use x="63.623047" xlink:href="#DejaVuSans-30"/>
       <use x="127.246094" xlink:href="#DejaVuSans-32"/>
       <use x="190.869141" xlink:href="#DejaVuSans-31"/>
       <use x="254.492188" xlink:href="#DejaVuSans-2d"/>
       <use x="290.576172" xlink:href="#DejaVuSans-30"/>
       <use x="354.199219" xlink:href="#DejaVuSans-36"/>
      </g>
     </g>
    </g>
    <g id="xtick_5">
     <g id="line2d_5">
      <g>
       <use style="stroke:#000000;stroke-width:0.8;" x="500.731503" xlink:href="#macfc76cfab" y="228.96"/>
      </g>
     </g>
     <g id="text_5">
      <!-- 2021-07 -->
      <g transform="translate(503.490878 277.742812)rotate(-90)scale(0.1 -0.1)">
       <defs>
        <path d="M 525 4666 
L 3525 4666 
L 3525 4397 
L 1831 0 
L 1172 0 
L 2766 4134 
L 525 4134 
L 525 4666 
z
" id="DejaVuSans-37" transform="scale(0.015625)"/>
       </defs>
       <use xlink:href="#DejaVuSans-32"/>
       <use x="63.623047" xlink:href="#DejaVuSans-30"/>
       <use x="127.246094" xlink:href="#DejaVuSans-32"/>
       <use x="190.869141" xlink:href="#DejaVuSans-31"/>
       <use x="254.492188" xlink:href="#DejaVuSans-2d"/>
       <use x="290.576172" xlink:href="#DejaVuSans-30"/>
       <use x="354.199219" xlink:href="#DejaVuSans-37"/>
      </g>
     </g>
    </g>
    <g id="xtick_6">
     <g id="line2d_6">
      <g>
       <use style="stroke:#000000;stroke-width:0.8;" x="608.440096" xlink:href="#macfc76cfab" y="228.96"/>
      </g>
     </g>
     <g id="text_6">
      <!-- 2021-08 -->
      <g transform="translate(611.199471 277.742812)rotate(-90)scale(0.1 -0.1)">
       <defs>
        <path d="M 2034 2216 
Q 1584 2216 1326 1975 
Q 1069 1734 1069 1313 
Q 1069 891 1326 650 
Q 1584 409 2034 409 
Q 2484 409 2743 651 
Q 3003 894 3003 1313 
Q 3003 1734 2745 1975 
Q 2488 2216 2034 2216 
z
M 1403 2484 
Q 997 2584 770 2862 
Q 544 3141 544 3541 
Q 544 4100 942 4425 
Q 1341 4750 2034 4750 
Q 2731 4750 3128 4425 
Q 3525 4100 3525 3541 
Q 3525 3141 3298 2862 
Q 3072 2584 2669 2484 
Q 3125 2378 3379 2068 
Q 3634 1759 3634 1313 
Q 3634 634 3220 271 
Q 2806 -91 2034 -91 
Q 1263 -91 848 271 
Q 434 634 434 1313 
Q 434 1759 690 2068 
Q 947 2378 1403 2484 
z
M 1172 3481 
Q 1172 3119 1398 2916 
Q 1625 2713 2034 2713 
Q 2441 2713 2670 2916 
Q 2900 3119 2900 3481 
Q 2900 3844 2670 4047 
Q 2441 4250 2034 4250 
Q 1625 4250 1398 4047 
Q 1172 3844 1172 3481 
z
" id="DejaVuSans-38" transform="scale(0.015625)"/>
       </defs>
       <use xlink:href="#DejaVuSans-32"/>
       <use x="63.623047" xlink:href="#DejaVuSans-30"/>
       <use x="127.246094" xlink:href="#DejaVuSans-32"/>
       <use x="190.869141" xlink:href="#DejaVuSans-31"/>
       <use x="254.492188" xlink:href="#DejaVuSans-2d"/>
       <use x="290.576172" xlink:href="#DejaVuSans-30"/>
       <use x="354.199219" xlink:href="#DejaVuSans-38"/>
      </g>
     </g>
    </g>
    <g id="xtick_7">
     <g id="line2d_7">
      <g>
       <use style="stroke:#000000;stroke-width:0.8;" x="716.148689" xlink:href="#macfc76cfab" y="228.96"/>
      </g>
     </g>
     <g id="text_7">
      <!-- 2021-09 -->
      <g transform="translate(718.908064 277.742812)rotate(-90)scale(0.1 -0.1)">
       <defs>
        <path d="M 703 97 
L 703 672 
Q 941 559 1184 500 
Q 1428 441 1663 441 
Q 2288 441 2617 861 
Q 2947 1281 2994 2138 
Q 2813 1869 2534 1725 
Q 2256 1581 1919 1581 
Q 1219 1581 811 2004 
Q 403 2428 403 3163 
Q 403 3881 828 4315 
Q 1253 4750 1959 4750 
Q 2769 4750 3195 4129 
Q 3622 3509 3622 2328 
Q 3622 1225 3098 567 
Q 2575 -91 1691 -91 
Q 1453 -91 1209 -44 
Q 966 3 703 97 
z
M 1959 2075 
Q 2384 2075 2632 2365 
Q 2881 2656 2881 3163 
Q 2881 3666 2632 3958 
Q 2384 4250 1959 4250 
Q 1534 4250 1286 3958 
Q 1038 3666 1038 3163 
Q 1038 2656 1286 2365 
Q 1534 2075 1959 2075 
z
" id="DejaVuSans-39" transform="scale(0.015625)"/>
       </defs>
       <use xlink:href="#DejaVuSans-32"/>
       <use x="63.623047" xlink:href="#DejaVuSans-30"/>
       <use x="127.246094" xlink:href="#DejaVuSans-32"/>
       <use x="190.869141" xlink:href="#DejaVuSans-31"/>
       <use x="254.492188" xlink:href="#DejaVuSans-2d"/>
       <use x="290.576172" xlink:href="#DejaVuSans-30"/>
       <use x="354.199219" xlink:href="#DejaVuSans-39"/>
      </g>
     </g>
    </g>
    <g id="xtick_8">
     <g id="line2d_8">
      <g>
       <use style="stroke:#000000;stroke-width:0.8;" x="820.382811" xlink:href="#macfc76cfab" y="228.96"/>
      </g>
     </g>
     <g id="text_8">
      <!-- 2021-10 -->
      <g transform="translate(823.142186 277.742812)rotate(-90)scale(0.1 -0.1)">
       <use xlink:href="#DejaVuSans-32"/>
       <use x="63.623047" xlink:href="#DejaVuSans-30"/>
       <use x="127.246094" xlink:href="#DejaVuSans-32"/>
       <use x="190.869141" xlink:href="#DejaVuSans-31"/>
       <use x="254.492188" xlink:href="#DejaVuSans-2d"/>
       <use x="290.576172" xlink:href="#DejaVuSans-31"/>
       <use x="354.199219" xlink:href="#DejaVuSans-30"/>
      </g>
     </g>
    </g>
    <g id="xtick_9">
     <g id="line2d_9">
      <g>
       <use style="stroke:#000000;stroke-width:0.8;" x="928.091403" xlink:href="#macfc76cfab" y="228.96"/>
      </g>
     </g>
     <g id="text_9">
      <!-- 2021-11 -->
      <g transform="translate(930.850778 277.742812)rotate(-90)scale(0.1 -0.1)">
       <use xlink:href="#DejaVuSans-32"/>
       <use x="63.623047" xlink:href="#DejaVuSans-30"/>
       <use x="127.246094" xlink:href="#DejaVuSans-32"/>
       <use x="190.869141" xlink:href="#DejaVuSans-31"/>
       <use x="254.492188" xlink:href="#DejaVuSans-2d"/>
       <use x="290.576172" xlink:href="#DejaVuSans-31"/>
       <use x="354.199219" xlink:href="#DejaVuSans-31"/>
      </g>
     </g>
    </g>
    <g id="xtick_10">
     <g id="line2d_10">
      <g>
       <use style="stroke:#000000;stroke-width:0.8;" x="1032.325525" xlink:href="#macfc76cfab" y="228.96"/>
      </g>
     </g>
     <g id="text_10">
      <!-- 2021-12 -->
      <g transform="translate(1035.0849 277.742812)rotate(-90)scale(0.1 -0.1)">
       <use xlink:href="#DejaVuSans-32"/>
       <use x="63.623047" xlink:href="#DejaVuSans-30"/>
       <use x="127.246094" xlink:href="#DejaVuSans-32"/>
       <use x="190.869141" xlink:href="#DejaVuSans-31"/>
       <use x="254.492188" xlink:href="#DejaVuSans-2d"/>
       <use x="290.576172" xlink:href="#DejaVuSans-31"/>
       <use x="354.199219" xlink:href="#DejaVuSans-32"/>
      </g>
     </g>
    </g>
    <g id="xtick_11">
     <g id="line2d_11">
      <g>
       <use style="stroke:#000000;stroke-width:0.8;" x="1140.034118" xlink:href="#macfc76cfab" y="228.96"/>
      </g>
     </g>
     <g id="text_11">
      <!-- 2022-01 -->
      <g transform="translate(1142.793493 277.742812)rotate(-90)scale(0.1 -0.1)">
       <use xlink:href="#DejaVuSans-32"/>
       <use x="63.623047" xlink:href="#DejaVuSans-30"/>
       <use x="127.246094" xlink:href="#DejaVuSans-32"/>
       <use x="190.869141" xlink:href="#DejaVuSans-32"/>
       <use x="254.492188" xlink:href="#DejaVuSans-2d"/>
       <use x="290.576172" xlink:href="#DejaVuSans-30"/>
       <use x="354.199219" xlink:href="#DejaVuSans-31"/>
      </g>
     </g>
    </g>
    <g id="text_12">
     <!-- Date -->
     <g transform="translate(593.014844 289.34125)scale(0.1 -0.1)">
      <defs>
       <path d="M 1259 4147 
L 1259 519 
L 2022 519 
Q 2988 519 3436 956 
Q 3884 1394 3884 2338 
Q 3884 3275 3436 3711 
Q 2988 4147 2022 4147 
L 1259 4147 
z
M 628 4666 
L 1925 4666 
Q 3281 4666 3915 4102 
Q 4550 3538 4550 2338 
Q 4550 1131 3912 565 
Q 3275 0 1925 0 
L 628 0 
L 628 4666 
z
" id="DejaVuSans-44" transform="scale(0.015625)"/>
       <path d="M 2194 1759 
Q 1497 1759 1228 1600 
Q 959 1441 959 1056 
Q 959 750 1161 570 
Q 1363 391 1709 391 
Q 2188 391 2477 730 
Q 2766 1069 2766 1631 
L 2766 1759 
L 2194 1759 
z
M 3341 1997 
L 3341 0 
L 2766 0 
L 2766 531 
Q 2569 213 2275 61 
Q 1981 -91 1556 -91 
Q 1019 -91 701 211 
Q 384 513 384 1019 
Q 384 1609 779 1909 
Q 1175 2209 1959 2209 
L 2766 2209 
L 2766 2266 
Q 2766 2663 2505 2880 
Q 2244 3097 1772 3097 
Q 1472 3097 1187 3025 
Q 903 2953 641 2809 
L 641 3341 
Q 956 3463 1253 3523 
Q 1550 3584 1831 3584 
Q 2591 3584 2966 3190 
Q 3341 2797 3341 1997 
z
" id="DejaVuSans-61" transform="scale(0.015625)"/>
       <path d="M 1172 4494 
L 1172 3500 
L 2356 3500 
L 2356 3053 
L 1172 3053 
L 1172 1153 
Q 1172 725 1289 603 
Q 1406 481 1766 481 
L 2356 481 
L 2356 0 
L 1766 0 
Q 1100 0 847 248 
Q 594 497 594 1153 
L 594 3053 
L 172 3053 
L 172 3500 
L 594 3500 
L 594 4494 
L 1172 4494 
z
" id="DejaVuSans-74" transform="scale(0.015625)"/>
       <path d="M 3597 1894 
L 3597 1613 
L 953 1613 
Q 991 1019 1311 708 
Q 1631 397 2203 397 
Q 2534 397 2845 478 
Q 3156 559 3463 722 
L 3463 178 
Q 3153 47 2828 -22 
Q 2503 -91 2169 -91 
Q 1331 -91 842 396 
Q 353 884 353 1716 
Q 353 2575 817 3079 
Q 1281 3584 2069 3584 
Q 2775 3584 3186 3129 
Q 3597 2675 3597 1894 
z
M 3022 2063 
Q 3016 2534 2758 2815 
Q 2500 3097 2075 3097 
Q 1594 3097 1305 2825 
Q 1016 2553 972 2059 
L 3022 2063 
z
" id="DejaVuSans-65" transform="scale(0.015625)"/>
      </defs>
      <use xlink:href="#DejaVuSans-44"/>
      <use x="77.001953" xlink:href="#DejaVuSans-61"/>
      <use x="138.28125" xlink:href="#DejaVuSans-74"/>
      <use x="177.490234" xlink:href="#DejaVuSans-65"/>
     </g>
    </g>
   </g>
   <g id="matplotlib.axis_2">
    <g id="ytick_1">
     <g id="line2d_12">
      <defs>
       <path d="M 0 0 
L -3.5 0 
" id="md9ced86e59" style="stroke:#000000;stroke-width:0.8;"/>
      </defs>
      <g>
       <use style="stroke:#000000;stroke-width:0.8;" x="46.965625" xlink:href="#md9ced86e59" y="228.96"/>
      </g>
     </g>
     <g id="text_13">
      <!-- 1 -->
      <g transform="translate(33.603125 232.759219)scale(0.1 -0.1)">
       <use xlink:href="#DejaVuSans-31"/>
      </g>
     </g>
    </g>
    <g id="ytick_2">
     <g id="line2d_13">
      <g>
       <use style="stroke:#000000;stroke-width:0.8;" x="46.965625" xlink:href="#md9ced86e59" y="190.892163"/>
      </g>
     </g>
     <g id="text_14">
      <!-- 3 -->
      <g transform="translate(33.603125 194.691382)scale(0.1 -0.1)">
       <use xlink:href="#DejaVuSans-33"/>
      </g>
     </g>
    </g>
    <g id="ytick_3">
     <g id="line2d_14">
      <g>
       <use style="stroke:#000000;stroke-width:0.8;" x="46.965625" xlink:href="#md9ced86e59" y="152.824326"/>
      </g>
     </g>
     <g id="text_15">
      <!-- 10 -->
      <g transform="translate(27.240625 156.623545)scale(0.1 -0.1)">
       <use xlink:href="#DejaVuSans-31"/>
       <use x="63.623047" xlink:href="#DejaVuSans-30"/>
      </g>
     </g>
    </g>
    <g id="ytick_4">
     <g id="line2d_15">
      <g>
       <use style="stroke:#000000;stroke-width:0.8;" x="46.965625" xlink:href="#md9ced86e59" y="114.75649"/>
      </g>
     </g>
     <g id="text_16">
      <!-- 31 -->
      <g transform="translate(27.240625 118.555708)scale(0.1 -0.1)">
       <use xlink:href="#DejaVuSans-33"/>
       <use x="63.623047" xlink:href="#DejaVuSans-31"/>
      </g>
     </g>
    </g>
    <g id="ytick_5">
     <g id="line2d_16">
      <g>
       <use style="stroke:#000000;stroke-width:0.8;" x="46.965625" xlink:href="#md9ced86e59" y="76.688653"/>
      </g>
     </g>
     <g id="text_17">
      <!-- 100 -->
      <g transform="translate(20.878125 80.487872)scale(0.1 -0.1)">
       <use xlink:href="#DejaVuSans-31"/>
       <use x="63.623047" xlink:href="#DejaVuSans-30"/>
       <use x="127.246094" xlink:href="#DejaVuSans-30"/>
      </g>
     </g>
    </g>
    <g id="ytick_6">
     <g id="line2d_17">
      <g>
       <use style="stroke:#000000;stroke-width:0.8;" x="46.965625" xlink:href="#md9ced86e59" y="38.620816"/>
      </g>
     </g>
     <g id="text_18">
      <!-- 316 -->
      <g transform="translate(20.878125 42.420035)scale(0.1 -0.1)">
       <use xlink:href="#DejaVuSans-33"/>
       <use x="63.623047" xlink:href="#DejaVuSans-31"/>
       <use x="127.246094" xlink:href="#DejaVuSans-36"/>
      </g>
     </g>
    </g>
    <g id="text_19">
     <!-- Count (7 day rolling average) -->
     <g transform="translate(14.798438 191.547969)rotate(-90)scale(0.1 -0.1)">
      <defs>
       <path d="M 4122 4306 
L 4122 3641 
Q 3803 3938 3442 4084 
Q 3081 4231 2675 4231 
Q 1875 4231 1450 3742 
Q 1025 3253 1025 2328 
Q 1025 1406 1450 917 
Q 1875 428 2675 428 
Q 3081 428 3442 575 
Q 3803 722 4122 1019 
L 4122 359 
Q 3791 134 3420 21 
Q 3050 -91 2638 -91 
Q 1578 -91 968 557 
Q 359 1206 359 2328 
Q 359 3453 968 4101 
Q 1578 4750 2638 4750 
Q 3056 4750 3426 4639 
Q 3797 4528 4122 4306 
z
" id="DejaVuSans-43" transform="scale(0.015625)"/>
       <path d="M 1959 3097 
Q 1497 3097 1228 2736 
Q 959 2375 959 1747 
Q 959 1119 1226 758 
Q 1494 397 1959 397 
Q 2419 397 2687 759 
Q 2956 1122 2956 1747 
Q 2956 2369 2687 2733 
Q 2419 3097 1959 3097 
z
M 1959 3584 
Q 2709 3584 3137 3096 
Q 3566 2609 3566 1747 
Q 3566 888 3137 398 
Q 2709 -91 1959 -91 
Q 1206 -91 779 398 
Q 353 888 353 1747 
Q 353 2609 779 3096 
Q 1206 3584 1959 3584 
z
" id="DejaVuSans-6f" transform="scale(0.015625)"/>
       <path d="M 544 1381 
L 544 3500 
L 1119 3500 
L 1119 1403 
Q 1119 906 1312 657 
Q 1506 409 1894 409 
Q 2359 409 2629 706 
Q 2900 1003 2900 1516 
L 2900 3500 
L 3475 3500 
L 3475 0 
L 2900 0 
L 2900 538 
Q 2691 219 2414 64 
Q 2138 -91 1772 -91 
Q 1169 -91 856 284 
Q 544 659 544 1381 
z
M 1991 3584 
L 1991 3584 
z
" id="DejaVuSans-75" transform="scale(0.015625)"/>
       <path d="M 3513 2113 
L 3513 0 
L 2938 0 
L 2938 2094 
Q 2938 2591 2744 2837 
Q 2550 3084 2163 3084 
Q 1697 3084 1428 2787 
Q 1159 2491 1159 1978 
L 1159 0 
L 581 0 
L 581 3500 
L 1159 3500 
L 1159 2956 
Q 1366 3272 1645 3428 
Q 1925 3584 2291 3584 
Q 2894 3584 3203 3211 
Q 3513 2838 3513 2113 
z
" id="DejaVuSans-6e" transform="scale(0.015625)"/>
       <path id="DejaVuSans-20" transform="scale(0.015625)"/>
       <path d="M 1984 4856 
Q 1566 4138 1362 3434 
Q 1159 2731 1159 2009 
Q 1159 1288 1364 580 
Q 1569 -128 1984 -844 
L 1484 -844 
Q 1016 -109 783 600 
Q 550 1309 550 2009 
Q 550 2706 781 3412 
Q 1013 4119 1484 4856 
L 1984 4856 
z
" id="DejaVuSans-28" transform="scale(0.015625)"/>
       <path d="M 2906 2969 
L 2906 4863 
L 3481 4863 
L 3481 0 
L 2906 0 
L 2906 525 
Q 2725 213 2448 61 
Q 2172 -91 1784 -91 
Q 1150 -91 751 415 
Q 353 922 353 1747 
Q 353 2572 751 3078 
Q 1150 3584 1784 3584 
Q 2172 3584 2448 3432 
Q 2725 3281 2906 2969 
z
M 947 1747 
Q 947 1113 1208 752 
Q 1469 391 1925 391 
Q 2381 391 2643 752 
Q 2906 1113 2906 1747 
Q 2906 2381 2643 2742 
Q 2381 3103 1925 3103 
Q 1469 3103 1208 2742 
Q 947 2381 947 1747 
z
" id="DejaVuSans-64" transform="scale(0.015625)"/>
       <path d="M 2059 -325 
Q 1816 -950 1584 -1140 
Q 1353 -1331 966 -1331 
L 506 -1331 
L 506 -850 
L 844 -850 
Q 1081 -850 1212 -737 
Q 1344 -625 1503 -206 
L 1606 56 
L 191 3500 
L 800 3500 
L 1894 763 
L 2988 3500 
L 3597 3500 
L 2059 -325 
z
" id="DejaVuSans-79" transform="scale(0.015625)"/>
       <path d="M 2631 2963 
Q 2534 3019 2420 3045 
Q 2306 3072 2169 3072 
Q 1681 3072 1420 2755 
Q 1159 2438 1159 1844 
L 1159 0 
L 581 0 
L 581 3500 
L 1159 3500 
L 1159 2956 
Q 1341 3275 1631 3429 
Q 1922 3584 2338 3584 
Q 2397 3584 2469 3576 
Q 2541 3569 2628 3553 
L 2631 2963 
z
" id="DejaVuSans-72" transform="scale(0.015625)"/>
       <path d="M 603 4863 
L 1178 4863 
L 1178 0 
L 603 0 
L 603 4863 
z
" id="DejaVuSans-6c" transform="scale(0.015625)"/>
       <path d="M 603 3500 
L 1178 3500 
L 1178 0 
L 603 0 
L 603 3500 
z
M 603 4863 
L 1178 4863 
L 1178 4134 
L 603 4134 
L 603 4863 
z
" id="DejaVuSans-69" transform="scale(0.015625)"/>
       <path d="M 2906 1791 
Q 2906 2416 2648 2759 
Q 2391 3103 1925 3103 
Q 1463 3103 1205 2759 
Q 947 2416 947 1791 
Q 947 1169 1205 825 
Q 1463 481 1925 481 
Q 2391 481 2648 825 
Q 2906 1169 2906 1791 
z
M 3481 434 
Q 3481 -459 3084 -895 
Q 2688 -1331 1869 -1331 
Q 1566 -1331 1297 -1286 
Q 1028 -1241 775 -1147 
L 775 -588 
Q 1028 -725 1275 -790 
Q 1522 -856 1778 -856 
Q 2344 -856 2625 -561 
Q 2906 -266 2906 331 
L 2906 616 
Q 2728 306 2450 153 
Q 2172 0 1784 0 
Q 1141 0 747 490 
Q 353 981 353 1791 
Q 353 2603 747 3093 
Q 1141 3584 1784 3584 
Q 2172 3584 2450 3431 
Q 2728 3278 2906 2969 
L 2906 3500 
L 3481 3500 
L 3481 434 
z
" id="DejaVuSans-67" transform="scale(0.015625)"/>
       <path d="M 191 3500 
L 800 3500 
L 1894 563 
L 2988 3500 
L 3597 3500 
L 2284 0 
L 1503 0 
L 191 3500 
z
" id="DejaVuSans-76" transform="scale(0.015625)"/>
       <path d="M 513 4856 
L 1013 4856 
Q 1481 4119 1714 3412 
Q 1947 2706 1947 2009 
Q 1947 1309 1714 600 
Q 1481 -109 1013 -844 
L 513 -844 
Q 928 -128 1133 580 
Q 1338 1288 1338 2009 
Q 1338 2731 1133 3434 
Q 928 4138 513 4856 
z
" id="DejaVuSans-29" transform="scale(0.015625)"/>
      </defs>
      <use xlink:href="#DejaVuSans-43"/>
      <use x="69.824219" xlink:href="#DejaVuSans-6f"/>
      <use x="131.005859" xlink:href="#DejaVuSans-75"/>
      <use x="194.384766" xlink:href="#DejaVuSans-6e"/>
      <use x="257.763672" xlink:href="#DejaVuSans-74"/>
      <use x="296.972656" xlink:href="#DejaVuSans-20"/>
      <use x="328.759766" xlink:href="#DejaVuSans-28"/>
      <use x="367.773438" xlink:href="#DejaVuSans-37"/>
      <use x="431.396484" xlink:href="#DejaVuSans-20"/>
      <use x="463.183594" xlink:href="#DejaVuSans-64"/>
      <use x="526.660156" xlink:href="#DejaVuSans-61"/>
      <use x="587.939453" xlink:href="#DejaVuSans-79"/>
      <use x="647.119141" xlink:href="#DejaVuSans-20"/>
      <use x="678.90625" xlink:href="#DejaVuSans-72"/>
      <use x="717.769531" xlink:href="#DejaVuSans-6f"/>
      <use x="778.951172" xlink:href="#DejaVuSans-6c"/>
      <use x="806.734375" xlink:href="#DejaVuSans-6c"/>
      <use x="834.517578" xlink:href="#DejaVuSans-69"/>
      <use x="862.300781" xlink:href="#DejaVuSans-6e"/>
      <use x="925.679688" xlink:href="#DejaVuSans-67"/>
      <use x="989.15625" xlink:href="#DejaVuSans-20"/>
      <use x="1020.943359" xlink:href="#DejaVuSans-61"/>
      <use x="1082.222656" xlink:href="#DejaVuSans-76"/>
      <use x="1141.402344" xlink:href="#DejaVuSans-65"/>
      <use x="1202.925781" xlink:href="#DejaVuSans-72"/>
      <use x="1244.039062" xlink:href="#DejaVuSans-61"/>
      <use x="1305.318359" xlink:href="#DejaVuSans-67"/>
      <use x="1368.794922" xlink:href="#DejaVuSans-65"/>
      <use x="1430.318359" xlink:href="#DejaVuSans-29"/>
     </g>
    </g>
   </g>
   <g id="line2d_18">
    <path clip-path="url(#pe878d5fcb4)" d="M 149.809959 211.137917 
L 153.284429 220.650212 
L 156.7589 217.166435 
L 160.233371 211.137917 
L 163.707842 214.014975 
L 167.182312 214.014975 
L 170.656783 211.137917 
L 174.131254 206.040879 
L 177.605725 203.759608 
L 181.080195 199.621051 
L 184.554666 191.095853 
L 188.029137 191.095853 
L 191.503608 189.626042 
L 194.978078 192.634052 
L 198.452549 186.869004 
L 201.92702 183.121757 
L 205.401491 179.756281 
L 208.875961 181.961452 
L 212.350432 173.906014 
L 215.824903 166.706921 
L 219.299373 158.477098 
L 222.773844 153.300094 
L 226.248315 147.592602 
L 229.722786 144.149173 
L 233.197256 137.580066 
L 236.671727 133.652452 
L 240.146198 130.142233 
L 243.620669 128.973726 
L 247.095139 126.539729 
L 250.56961 122.906961 
L 254.044081 119.634097 
L 257.518552 118.611377 
L 260.993022 115.720335 
L 264.467493 116.184961 
L 267.941964 113.204087 
L 271.416434 111.80872 
L 274.890905 110.998917 
L 278.365376 108.558039 
L 281.839847 106.633697 
L 285.314317 106.633697 
L 288.788788 104.704813 
L 292.263259 104.925987 
L 295.73773 102.364812 
L 299.2122 99.987839 
L 302.686671 98.401893 
L 306.161142 97.59209 
L 309.635613 97.063034 
L 313.110083 97.681095 
L 316.584554 98.493108 
L 323.533495 98.768272 
L 327.007966 97.77034 
L 330.482437 98.676296 
L 333.956908 99.045744 
L 337.431378 98.676296 
L 340.905849 97.681095 
L 344.38032 97.77034 
L 347.854791 98.860504 
L 351.329261 101.254118 
L 354.803732 100.469148 
L 358.278203 100.179523 
L 361.752674 100.66365 
L 365.227144 100.469148 
L 368.701615 100.859303 
L 375.650557 100.761332 
L 379.125027 101.855322 
L 382.599498 103.942153 
L 386.073969 105.372822 
L 389.548439 106.285026 
L 393.02291 110.078551 
L 396.497381 110.208474 
L 399.971852 110.998917 
L 403.446322 110.469861 
L 406.920793 107.581871 
L 410.395264 105.372822 
L 413.869735 107.223112 
L 417.344205 105.485481 
L 420.818676 105.825778 
L 424.293147 106.285026 
L 427.767618 105.372822 
L 431.242088 105.711956 
L 434.716559 105.037131 
L 438.19103 102.882277 
L 441.6655 99.702382 
L 445.139971 96.801647 
L 448.614442 94.61888 
L 452.088913 93.816285 
L 455.563383 93.422177 
L 462.512325 93.658078 
L 465.986796 91.741823 
L 469.461266 91.151355 
L 472.935737 90.356304 
L 476.410208 89.164001 
L 479.884679 87.682212 
L 483.359149 87.485199 
L 486.83362 85.88753 
L 490.308091 84.662749 
L 493.782561 82.118009 
L 497.257032 81.347734 
L 500.731503 80.17243 
L 507.680444 75.895234 
L 511.154915 77.501579 
L 514.629386 77.695796 
L 518.103857 75.941383 
L 521.578327 72.397625 
L 525.052798 69.49983 
L 528.527269 66.976211 
L 532.00174 64.961285 
L 535.47621 62.657934 
L 538.950681 58.756536 
L 542.425152 58.374274 
L 545.899623 57.809041 
L 549.374093 56.810172 
L 552.848564 56.194509 
L 556.323035 55.070155 
L 559.797505 54.078001 
L 563.271976 51.79832 
L 566.746447 48.417057 
L 570.220918 45.551719 
L 573.695388 42.391887 
L 577.169859 40.018108 
L 580.64433 38.80948 
L 584.118801 37.455482 
L 587.593271 34.177107 
L 591.067742 33.123246 
L 598.016684 30.137793 
L 601.491154 28.065986 
L 604.965625 27.177051 
L 608.440096 25.963224 
L 611.914566 25.058921 
L 615.389037 22.826584 
L 618.863508 21.724153 
L 622.337979 20.269151 
L 625.812449 18.982531 
L 629.28692 18.418277 
L 632.761391 18.999031 
L 636.235862 17.927339 
L 639.710332 18.079474 
L 643.184803 17.76 
L 646.659274 18.151783 
L 650.133745 19.123042 
L 653.608215 19.590168 
L 657.082686 19.372467 
L 660.557157 19.305769 
L 664.031627 19.032055 
L 667.506098 18.418277 
L 670.980569 18.507588 
L 674.45504 18.426387 
L 677.92951 17.991311 
L 681.403981 18.515719 
L 684.878452 19.961882 
L 688.352923 20.021405 
L 691.827393 20.622609 
L 695.301864 20.372211 
L 702.250806 22.13894 
L 705.725276 22.439743 
L 709.199747 21.706237 
L 712.674218 20.596618 
L 716.148689 20.570647 
L 719.623159 21.563251 
L 723.09763 21.287965 
L 730.046571 20.089564 
L 733.521042 24.140109 
L 736.995513 24.488984 
L 740.469984 24.275346 
L 743.944454 23.747212 
L 747.418925 23.928706 
L 750.893396 24.930319 
L 754.367867 25.317633 
L 757.842337 22.49473 
L 761.316808 25.07875 
L 764.791279 26.445488 
L 768.26575 27.166486 
L 771.74022 27.050486 
L 775.214691 27.061014 
L 782.163632 27.645316 
L 785.638103 27.431646 
L 789.112574 28.845838 
L 792.587045 30.638527 
L 796.061515 31.651235 
L 799.535986 32.434752 
L 803.010457 32.608649 
L 806.484928 33.826382 
L 809.959398 34.518395 
L 813.433869 33.942877 
L 816.90834 33.684553 
L 820.382811 33.275387 
L 823.857281 33.022206 
L 827.331752 32.984396 
L 830.806223 32.372867 
L 834.280693 30.73253 
L 837.755164 30.451321 
L 841.229635 30.056991 
L 844.704106 30.85041 
L 851.653047 29.655917 
L 855.127518 30.779631 
L 858.601989 32.596198 
L 862.076459 33.466554 
L 865.55093 33.581786 
L 869.025401 33.466554 
L 875.974342 35.6048 
L 879.448813 35.306179 
L 882.923284 36.265853 
L 886.397755 36.391285 
L 889.872225 36.140894 
L 896.821167 34.399858 
L 900.295637 34.059785 
L 907.244579 32.934049 
L 910.71905 32.114206 
L 914.19352 31.590798 
L 917.667991 32.808516 
L 928.091403 33.199229 
L 931.565874 32.089677 
L 935.040345 30.521399 
L 938.514816 30.265168 
L 941.989286 28.448122 
L 945.463757 27.134809 
L 948.938228 25.367619 
L 952.412698 23.880848 
L 955.887169 23.340103 
L 959.36164 22.184341 
L 962.836111 22.348302 
L 966.310581 22.102665 
L 969.785052 21.652545 
L 973.259523 21.957959 
L 976.733994 21.912867 
L 980.208464 20.848727 
L 983.682935 21.296809 
L 987.157406 20.234868 
L 990.631877 20.805123 
L 994.106347 21.581091 
L 997.580818 21.199649 
L 1001.055289 21.164389 
L 1004.529759 22.003111 
L 1008.00423 23.012397 
L 1011.478701 28.327546 
L 1014.953172 28.525082 
L 1018.427642 27.881959 
L 1021.902113 27.806479 
L 1025.376584 26.157336 
L 1028.851055 25.108516 
L 1032.325525 24.23665 
L 1035.799996 19.885509 
L 1039.274467 19.750168 
L 1042.748938 20.200621 
L 1046.223408 21.509791 
L 1049.697879 24.372283 
L 1056.646821 28.734881 
L 1060.121291 31.398137 
L 1063.595762 33.813463 
L 1067.070233 36.587353 
L 1070.544703 38.67455 
L 1074.019174 42.542909 
L 1077.493645 46.790406 
L 1087.917057 66.90586 
L 1091.391528 70.976552 
L 1094.865999 74.363325 
L 1098.340469 85.147231 
L 1101.81494 103.407968 
L 1105.289411 118.443957 
L 1108.763882 134.727841 
L 1112.238352 163.295103 
L 1112.238352 163.295103 
" style="fill:none;stroke:#947383;stroke-linecap:square;stroke-width:2;"/>
   </g>
   <g id="line2d_19">
    <path clip-path="url(#pe878d5fcb4)" d="M 149.809959 199.621051 
L 153.284429 224.544744 
L 156.7589 220.650212 
L 160.233371 224.544744 
L 170.656783 224.544744 
L 174.131254 201.625623 
L 177.605725 201.625623 
L 181.080195 203.759608 
L 184.554666 199.621051 
L 188.029137 195.943342 
L 191.503608 194.247313 
L 194.978078 194.247313 
L 198.452549 199.621051 
L 201.92702 195.943342 
L 205.401491 188.218796 
L 208.875961 186.869004 
L 212.350432 186.869004 
L 215.824903 188.218796 
L 219.299373 184.324264 
L 222.773844 179.756281 
L 226.248315 176.70193 
L 229.722786 174.811969 
L 233.197256 175.743448 
L 236.671727 173.906014 
L 240.146198 168.176732 
L 243.620669 166.706921 
L 247.095139 155.78738 
L 254.044081 143.430333 
L 257.518552 136.698272 
L 260.993022 130.863687 
L 264.467493 127.185977 
L 267.941964 124.272684 
L 271.416434 121.048871 
L 274.890905 119.634097 
L 278.365376 115.414173 
L 281.839847 114.364393 
L 285.314317 114.512336 
L 288.788788 114.96018 
L 292.263259 115.110819 
L 295.73773 113.204087 
L 299.2122 108.682112 
L 302.686671 107.823224 
L 306.161142 107.223112 
L 309.635613 105.148649 
L 313.110083 105.037131 
L 316.584554 105.598524 
L 320.059025 104.485109 
L 327.007966 112.77926 
L 330.482437 114.070477 
L 333.956908 116.029359 
L 337.431378 116.184961 
L 340.905849 112.359821 
L 344.38032 115.5669 
L 347.854791 111.401339 
L 351.329261 109.691818 
L 354.803732 107.223112 
L 358.278203 105.037131 
L 361.752674 104.815215 
L 365.227144 107.944565 
L 368.701615 106.750742 
L 372.176086 107.944565 
L 375.650557 105.711956 
L 379.125027 104.925987 
L 386.073969 106.633697 
L 389.548439 105.148649 
L 393.02291 103.091552 
L 396.497381 101.754359 
L 403.446322 100.66365 
L 406.920793 97.150624 
L 410.395264 94.134989 
L 413.869735 93.265839 
L 417.344205 90.284966 
L 420.818676 87.485199 
L 424.293147 86.901105 
L 427.767618 84.602685 
L 431.242088 83.831621 
L 434.716559 82.792835 
L 438.19103 81.184984 
L 441.6655 80.4359 
L 445.139971 79.088225 
L 448.614442 77.404897 
L 452.088913 77.212376 
L 455.563383 78.484275 
L 459.037854 78.186388 
L 462.512325 79.088225 
L 465.986796 77.744529 
L 469.461266 77.308496 
L 472.935737 76.406444 
L 476.410208 76.266237 
L 479.884679 74.761974 
L 483.359149 75.757174 
L 486.83362 76.173095 
L 490.308091 74.940706 
L 493.782561 73.323177 
L 497.257032 73.45142 
L 511.154915 71.336178 
L 514.629386 71.985334 
L 518.103857 70.581502 
L 521.578327 67.616205 
L 525.052798 65.698333 
L 528.527269 64.370231 
L 532.00174 62.534556 
L 535.47621 60.562599 
L 538.950681 57.649305 
L 542.425152 55.640047 
L 545.899623 56.093004 
L 549.374093 56.347353 
L 552.848564 55.615064 
L 556.323035 56.042368 
L 559.797505 57.122357 
L 563.271976 56.887943 
L 566.746447 55.045599 
L 577.169859 55.890923 
L 580.64433 55.765247 
L 584.118801 55.217878 
L 587.593271 56.017079 
L 591.067742 58.157806 
L 594.542213 57.942747 
L 598.016684 56.913907 
L 601.491154 56.887943 
L 604.965625 56.577953 
L 608.440096 55.991809 
L 615.389037 58.157806 
L 618.863508 57.279561 
L 622.337979 57.463916 
L 625.812449 57.017967 
L 629.28692 56.042368 
L 632.761391 55.5901 
L 636.235862 53.137915 
L 643.184803 50.149052 
L 646.659274 48.216782 
L 650.133745 47.233208 
L 653.608215 46.962971 
L 657.082686 46.962971 
L 660.557157 45.810621 
L 664.031627 44.859036 
L 667.506098 44.841002 
L 670.980569 45.313112 
L 677.92951 45.570145 
L 681.403981 45.662429 
L 684.878452 45.884967 
L 688.352923 44.39332 
L 695.301864 43.360219 
L 698.776335 43.360219 
L 702.250806 43.969173 
L 705.725276 44.233627 
L 712.674218 45.441379 
L 716.148689 46.75218 
L 719.623159 46.561711 
L 723.09763 47.194467 
L 726.572101 46.9822 
L 730.046571 46.943752 
L 733.521042 47.136441 
L 736.995513 48.578155 
L 740.469984 47.780401 
L 743.944454 49.14826 
L 747.418925 48.923117 
L 754.367867 50.276308 
L 757.842337 50.618071 
L 761.316808 52.291506 
L 764.791279 54.221348 
L 768.26575 54.509919 
L 771.74022 55.515319 
L 775.214691 55.941328 
L 778.689162 55.966559 
L 782.163632 56.861999 
L 785.638103 55.916116 
L 789.112574 56.245379 
L 792.587045 56.784289 
L 796.061515 57.017967 
L 799.535986 56.861999 
L 803.010457 57.096229 
L 806.484928 57.463916 
L 809.959398 58.894136 
L 813.433869 59.478393 
L 823.857281 59.647238 
L 827.331752 59.731984 
L 830.806223 60.130366 
L 834.280693 58.050102 
L 837.755164 57.044034 
L 841.229635 56.629417 
L 844.704106 55.966559 
L 848.178576 55.86575 
L 851.653047 55.991809 
L 855.127518 54.221348 
L 858.601989 55.070155 
L 862.076459 55.316728 
L 865.55093 54.703709 
L 869.025401 54.534081 
L 872.499872 54.582458 
L 875.974342 53.604617 
L 879.448813 53.253974 
L 886.397755 50.34012 
L 889.872225 49.582384 
L 893.346696 48.376905 
L 896.821167 46.828676 
L 900.295637 46.447954 
L 903.770108 44.822978 
L 907.244579 42.847038 
L 910.71905 42.3417 
L 914.19352 41.062862 
L 917.667991 41.159498 
L 921.142462 41.811052 
L 924.616933 41.597885 
L 928.091403 44.859036 
L 931.565874 46.410122 
L 935.040345 44.482373 
L 938.514816 44.53592 
L 941.989286 43.481116 
L 945.463757 42.694624 
L 948.938228 42.025601 
L 952.412698 38.480618 
L 955.887169 38.243484 
L 959.36164 38.944963 
L 962.836111 40.236981 
L 966.310581 41.207921 
L 969.785052 41.321186 
L 973.259523 41.926405 
L 976.733994 42.125096 
L 980.208464 43.000158 
L 983.682935 44.251332 
L 987.157406 42.559732 
L 994.106347 42.762277 
L 997.580818 42.576563 
L 1001.055289 42.779211 
L 1008.00423 43.916536 
L 1011.478701 46.656808 
L 1014.953172 47.760701 
L 1018.427642 48.236755 
L 1021.902113 48.598347 
L 1025.376584 47.291405 
L 1028.851055 46.9822 
L 1032.325525 46.924545 
L 1035.799996 46.561711 
L 1042.748938 44.697083 
L 1046.223408 43.102633 
L 1049.697879 42.864016 
L 1053.17235 45.258293 
L 1056.646821 46.656808 
L 1063.595762 51.400204 
L 1067.070233 54.173496 
L 1070.544703 58.646866 
L 1074.019174 71.296026 
L 1077.493645 73.969425 
L 1080.968116 80.067627 
L 1084.442586 83.308149 
L 1087.917057 88.549767 
L 1091.391528 93.265839 
L 1094.865999 97.150624 
L 1098.340469 106.750742 
L 1101.81494 122.906961 
L 1105.289411 132.868258 
L 1108.763882 143.787799 
L 1108.763882 143.787799 
" style="fill:none;stroke:#96c6ad;stroke-linecap:square;stroke-width:2;"/>
   </g>
   <g id="line2d_20">
    <path clip-path="url(#pe878d5fcb4)" d="M 156.7589 217.166435 
L 160.233371 224.544744 
L 167.182312 224.544744 
L 170.656783 220.650212 
L 174.131254 220.650212 
L 177.605725 211.137917 
L 181.080195 203.759608 
L 184.554666 199.621051 
L 188.029137 195.943342 
L 191.503608 186.869004 
L 194.978078 184.324264 
L 198.452549 177.689027 
L 201.92702 166.706921 
L 205.401491 160.202636 
L 208.875961 156.308104 
L 212.350432 155.78738 
L 215.824903 155.78738 
L 219.299373 152.355307 
L 222.773844 150.543056 
L 226.248315 152.355307 
L 229.722786 149.672866 
L 233.197256 143.07669 
L 236.671727 136.123209 
L 240.146198 128.291943 
L 243.620669 128.067771 
L 247.095139 119.807668 
L 250.56961 115.5669 
L 257.518552 111.945636 
L 260.993022 110.998917 
L 264.467493 112.221182 
L 267.941964 108.311282 
L 271.416434 109.820227 
L 274.890905 109.563905 
L 278.365376 107.461851 
L 281.839847 106.868203 
L 285.314317 105.825778 
L 292.263259 106.054605 
L 295.73773 105.372822 
L 299.2122 105.148649 
L 302.686671 104.704813 
L 306.161142 103.407968 
L 309.635613 103.407968 
L 313.110083 103.091552 
L 316.584554 102.986749 
L 320.059025 101.154971 
L 323.533495 98.584575 
L 327.007966 95.776284 
L 330.482437 96.370542 
L 337.431378 95.35826 
L 340.905849 96.370542 
L 344.38032 94.055025 
L 347.854791 93.343916 
L 351.329261 93.579257 
L 354.803732 91.741823 
L 361.752674 89.302061 
L 365.227144 87.094659 
L 368.701615 88.414806 
L 372.176086 88.482218 
L 375.650557 88.753246 
L 379.125027 87.748145 
L 382.599498 85.949976 
L 386.073969 82.4537 
L 389.548439 81.347734 
L 393.02291 81.347734 
L 396.497381 78.684369 
L 399.971852 75.301094 
L 406.920793 74.231503 
L 410.395264 75.941383 
L 413.869735 76.266237 
L 417.344205 74.143913 
L 420.818676 73.110538 
L 424.293147 75.34642 
L 427.767618 77.940182 
L 431.242088 81.130912 
L 434.716559 83.714575 
L 438.19103 87.289352 
L 441.6655 94.055025 
L 445.139971 102.674318 
L 448.614442 107.823224 
L 452.088913 106.750742 
L 455.563383 101.653703 
L 459.037854 100.372324 
L 462.512325 96.456314 
L 465.986796 92.724407 
L 469.461266 91.816378 
L 472.935737 90.571247 
L 476.410208 90.142749 
L 479.884679 89.4407 
L 483.359149 87.159429 
L 486.83362 87.354505 
L 490.308091 83.831621 
L 493.782561 82.622833 
L 497.257032 82.792835 
L 500.731503 80.067627 
L 504.205974 80.01535 
L 507.680444 80.277566 
L 511.154915 79.963155 
L 514.629386 81.023031 
L 518.103857 82.341424 
L 521.578327 80.4359 
L 525.052798 82.341424 
L 528.527269 83.949082 
L 532.00174 83.656208 
L 535.47621 82.173722 
L 538.950681 80.33026 
L 542.425152 77.164421 
L 545.899623 75.437259 
L 549.374093 74.187679 
L 552.848564 72.815122 
L 556.323035 71.862642 
L 559.797505 72.64749 
L 563.271976 74.495675 
L 566.746447 76.878139 
L 570.220918 75.757174 
L 573.695388 77.164421 
L 577.169859 78.087685 
L 580.64433 79.240952 
L 584.118801 78.484275 
L 587.593271 79.037472 
L 591.067742 80.383038 
L 594.542213 85.638918 
L 601.491154 86.138026 
L 604.965625 87.159429 
L 608.440096 88.957986 
L 611.914566 91.965995 
L 615.389037 91.593214 
L 618.863508 90.860029 
L 622.337979 90.715323 
L 625.812449 92.418952 
L 632.761391 93.895674 
L 636.235862 93.579257 
L 639.710332 94.537738 
L 643.184803 97.503324 
L 646.659274 98.584575 
L 650.133745 99.513437 
L 653.608215 99.513437 
L 657.082686 99.797261 
L 660.557157 96.456314 
L 664.031627 88.957986 
L 667.506098 80.224956 
L 674.45504 77.404897 
L 681.403981 76.547247 
L 684.878452 77.356661 
L 688.352923 81.730629 
L 691.827393 89.579922 
L 698.776335 91.593214 
L 702.250806 91.965995 
L 705.725276 93.816285 
L 709.199747 95.109958 
L 712.674218 94.215148 
L 716.148689 94.945454 
L 719.623159 96.54231 
L 723.09763 96.199661 
L 726.572101 97.503324 
L 730.046571 96.54231 
L 733.521042 93.500623 
L 736.995513 95.275285 
L 740.469984 96.62853 
L 743.944454 95.109958 
L 747.418925 96.029659 
L 750.893396 95.944985 
L 754.367867 95.60844 
L 757.842337 94.055025 
L 761.316808 90.787597 
L 764.791279 87.880406 
L 768.26575 86.644784 
L 771.74022 85.147231 
L 775.214691 82.397515 
L 778.689162 79.189964 
L 782.163632 78.334996 
L 785.638103 78.684369 
L 789.112574 79.963155 
L 792.587045 80.594996 
L 796.061515 79.755197 
L 799.535986 80.33026 
L 803.010457 79.963155 
L 806.484928 80.17243 
L 809.959398 80.594996 
L 813.433869 80.648198 
L 816.90834 80.33026 
L 820.382811 80.861868 
L 823.857281 83.020872 
L 827.331752 86.263989 
L 830.806223 88.549767 
L 834.280693 87.61641 
L 837.755164 85.025444 
L 841.229635 83.020872 
L 844.704106 83.365905 
L 848.178576 81.184984 
L 851.653047 78.186388 
L 855.127518 77.404897 
L 858.601989 77.308496 
L 862.076459 78.734582 
L 865.55093 80.969223 
L 869.025401 80.277566 
L 872.499872 77.940182 
L 875.974342 79.755197 
L 879.448813 76.925681 
L 882.923284 75.210628 
L 886.397755 73.709408 
L 889.872225 71.416629 
L 893.346696 71.376379 
L 896.821167 73.237957 
L 900.295637 74.319326 
L 903.770108 77.308496 
L 907.244579 79.497075 
L 910.71905 81.239145 
L 914.19352 83.48172 
L 917.667991 83.48172 
L 921.142462 81.785692 
L 924.616933 79.240952 
L 928.091403 78.88568 
L 935.040345 76.973291 
L 941.989286 77.212376 
L 945.463757 79.497075 
L 948.938228 81.565988 
L 952.412698 82.849697 
L 955.887169 83.890299 
L 959.36164 85.577056 
L 962.836111 86.772696 
L 966.310581 85.515309 
L 969.785052 84.722923 
L 973.259523 86.138026 
L 976.733994 84.185264 
L 980.208464 82.566359 
L 983.682935 80.648198 
L 987.157406 79.911043 
L 990.631877 81.023031 
L 994.106347 79.088225 
L 997.580818 76.312907 
L 1001.055289 73.882526 
L 1004.529759 71.903489 
L 1008.00423 70.229948 
L 1011.478701 68.822701 
L 1014.953172 66.244879 
L 1018.427642 66.073111 
L 1021.902113 65.160674 
L 1025.376584 62.289172 
L 1035.799996 59.59086 
L 1046.223408 60.446783 
L 1049.697879 63.917717 
L 1053.17235 63.281826 
L 1056.646821 64.370231 
L 1060.121291 64.829023 
L 1063.595762 66.62594 
L 1067.070233 68.122686 
L 1070.544703 69.046874 
L 1074.019174 71.944386 
L 1077.493645 80.33026 
L 1080.968116 86.327151 
L 1087.917057 103.302159 
L 1091.391528 108.311282 
L 1094.865999 120.511212 
L 1098.340469 135.002244 
L 1101.81494 143.787799 
L 1101.81494 143.787799 
" style="fill:none;stroke:#525886;stroke-linecap:square;stroke-width:2;"/>
   </g>
   <g id="line2d_21">
    <path clip-path="url(#pe878d5fcb4)" d="M 257.518552 217.166435 
L 260.993022 220.650212 
L 264.467493 217.166435 
L 267.941964 217.166435 
L 271.416434 214.014975 
L 285.314317 214.014975 
L 288.788788 217.166435 
L 292.263259 217.166435 
L 295.73773 224.544744 
L 302.686671 224.544744 
L 306.161142 228.96 
L 316.584554 228.96 
L 320.059025 224.544744 
L 340.905849 224.544744 
L 344.38032 228.96 
L 358.278203 228.96 
L 361.752674 224.544744 
L 365.227144 224.544744 
L 368.701615 220.650212 
L 382.599498 220.650212 
L 386.073969 224.544744 
L 389.548439 224.544744 
L 393.02291 228.96 
L 410.395264 228.96 
L 413.869735 224.544744 
L 434.716559 224.544744 
L 438.19103 228.96 
L 493.782561 228.96 
L 497.257032 220.650212 
L 500.731503 220.650212 
L 504.205974 214.014975 
L 507.680444 201.625623 
L 518.103857 201.625623 
L 521.578327 203.759608 
L 525.052798 203.759608 
L 528.527269 208.491281 
L 532.00174 224.544744 
L 538.950681 224.544744 
L 542.425152 220.650212 
L 545.899623 217.166435 
L 549.374093 214.014975 
L 552.848564 211.137917 
L 556.323035 211.137917 
L 559.797505 208.491281 
L 563.271976 208.491281 
L 566.746447 211.137917 
L 570.220918 214.014975 
L 573.695388 214.014975 
L 577.169859 217.166435 
L 584.118801 217.166435 
L 587.593271 214.014975 
L 591.067742 211.137917 
L 594.542213 214.014975 
L 598.016684 211.137917 
L 601.491154 206.040879 
L 604.965625 203.759608 
L 608.440096 203.759608 
L 611.914566 194.247313 
L 615.389037 184.324264 
L 618.863508 176.70193 
L 622.337979 173.906014 
L 625.812449 173.02422 
L 632.761391 169.71493 
L 636.235862 169.71493 
L 646.659274 167.43366 
L 650.133745 165.995812 
L 653.608215 165.995812 
L 657.082686 165.299674 
L 664.031627 168.176732 
L 667.506098 169.71493 
L 670.980569 168.936887 
L 674.45504 172.165333 
L 677.92951 171.328192 
L 681.403981 174.811969 
L 684.878452 176.70193 
L 688.352923 177.689027 
L 691.827393 180.840487 
L 695.301864 186.869004 
L 698.776335 185.57216 
L 702.250806 189.626042 
L 709.199747 186.869004 
L 712.674218 192.634052 
L 719.623159 195.943342 
L 723.09763 197.731091 
L 730.046571 197.731091 
L 733.521042 194.247313 
L 736.995513 177.689027 
L 740.469984 171.328192 
L 750.893396 168.936887 
L 757.842337 170.511723 
L 761.316808 176.70193 
L 764.791279 177.689027 
L 768.26575 175.743448 
L 775.214691 175.743448 
L 778.689162 173.02422 
L 782.163632 168.936887 
L 785.638103 168.936887 
L 789.112574 173.906014 
L 792.587045 173.906014 
L 796.061515 169.71493 
L 799.535986 169.71493 
L 803.010457 171.328192 
L 806.484928 173.906014 
L 809.959398 177.689027 
L 813.433869 174.811969 
L 816.90834 176.70193 
L 820.382811 179.756281 
L 823.857281 176.70193 
L 827.331752 176.70193 
L 830.806223 179.756281 
L 834.280693 180.840487 
L 837.755164 180.840487 
L 841.229635 179.756281 
L 844.704106 179.756281 
L 848.178576 183.121757 
L 851.653047 183.121757 
L 858.601989 180.840487 
L 862.076459 186.869004 
L 865.55093 188.218796 
L 869.025401 188.218796 
L 872.499872 185.57216 
L 875.974342 185.57216 
L 879.448813 177.689027 
L 882.923284 178.706501 
L 886.397755 172.165333 
L 889.872225 169.71493 
L 893.346696 168.936887 
L 896.821167 169.71493 
L 900.295637 169.71493 
L 903.770108 175.743448 
L 907.244579 176.70193 
L 910.71905 181.961452 
L 914.19352 185.57216 
L 917.667991 189.626042 
L 921.142462 191.095853 
L 924.616933 191.095853 
L 928.091403 195.943342 
L 931.565874 195.943342 
L 938.514816 199.621051 
L 945.463757 195.943342 
L 948.938228 189.626042 
L 952.412698 173.906014 
L 955.887169 171.328192 
L 962.836111 168.176732 
L 966.310581 166.706921 
L 969.785052 168.176732 
L 973.259523 168.936887 
L 976.733994 175.743448 
L 980.208464 178.706501 
L 983.682935 159.617394 
L 987.157406 161.405143 
L 990.631877 163.949883 
L 994.106347 164.617891 
L 997.580818 167.43366 
L 1001.055289 171.328192 
L 1004.529759 165.995812 
L 1008.00423 194.247313 
L 1011.478701 192.634052 
L 1014.953172 180.840487 
L 1018.427642 179.756281 
L 1025.376584 179.756281 
L 1028.851055 188.218796 
L 1032.325525 181.961452 
L 1035.799996 177.689027 
L 1039.274467 189.626042 
L 1042.748938 189.626042 
L 1046.223408 188.218796 
L 1049.697879 183.121757 
L 1053.17235 176.70193 
L 1056.646821 183.121757 
L 1060.121291 188.218796 
L 1063.595762 188.218796 
L 1070.544703 191.095853 
L 1074.019174 199.621051 
L 1077.493645 220.650212 
L 1080.968116 220.650212 
L 1084.442586 224.544744 
L 1087.917057 220.650212 
L 1087.917057 220.650212 
" style="fill:none;stroke:#937252;stroke-linecap:square;stroke-width:2;"/>
   </g>
   <g id="line2d_22">
    <path clip-path="url(#pe878d5fcb4)" d="M 97.692898 163.295103 
L 101.167368 158.477098 
L 104.641839 151.892848 
L 108.11631 147.191805 
L 111.590781 146.795809 
L 115.065251 151.436767 
L 118.539722 153.782808 
L 122.014193 155.78738 
L 125.488664 153.782808 
L 128.963134 153.300094 
L 132.437605 150.543056 
L 135.912076 147.592602 
L 139.386547 145.635504 
L 142.861017 143.430333 
L 146.335488 140.053391 
L 149.809959 139.733917 
L 153.284429 138.18127 
L 156.7589 139.4175 
L 160.233371 140.053391 
L 163.707842 135.839385 
L 167.182312 132.610939 
L 170.656783 127.845108 
L 174.131254 125.90587 
L 177.605725 120.333918 
L 181.080195 111.266654 
L 184.554666 104.594779 
L 188.029137 100.275783 
L 191.503608 95.60844 
L 194.978078 94.134989 
L 198.452549 87.030015 
L 201.92702 82.509982 
L 208.875961 75.665453 
L 212.350432 72.480704 
L 215.824903 68.52615 
L 219.299373 67.580323 
L 222.773844 67.330233 
L 226.248315 64.435384 
L 229.722786 63.093419 
L 236.671727 60.101751 
L 240.146198 60.591616 
L 243.620669 57.675874 
L 247.095139 56.913907 
L 250.56961 58.756536 
L 254.044081 58.619506 
L 257.518552 58.86657 
L 260.993022 56.347353 
L 264.467493 56.758427 
L 267.941964 59.115495 
L 271.416434 57.915962 
L 274.890905 57.516779 
L 278.365376 54.801032 
L 281.839847 51.887445 
L 285.314317 50.725601 
L 288.788788 48.943521 
L 292.263259 46.504784 
L 295.73773 47.039956 
L 299.2122 46.353455 
L 302.686671 47.780401 
L 306.161142 50.747149 
L 309.635613 53.98278 
L 313.110083 53.98278 
L 316.584554 56.219934 
L 320.059025 55.267266 
L 323.533495 54.972038 
L 327.007966 56.784289 
L 330.482437 56.372896 
L 333.956908 54.947555 
L 337.431378 55.966559 
L 340.905849 55.440708 
L 344.38032 56.732584 
L 347.854791 57.070121 
L 351.329261 55.440708 
L 354.803732 55.665049 
L 358.278203 58.401432 
L 365.227144 61.236527 
L 368.701615 60.678821 
L 372.176086 62.015275 
L 375.650557 64.533355 
L 379.125027 65.227405 
L 382.599498 65.529373 
L 386.073969 66.210454 
L 389.548439 66.695698 
L 393.02291 68.049854 
L 396.497381 66.591116 
L 399.971852 64.272741 
L 403.446322 64.014164 
L 406.920793 65.127359 
L 410.395264 63.82155 
L 413.869735 64.078619 
L 417.344205 65.194023 
L 420.818676 66.90586 
L 427.767618 71.740405 
L 431.242088 71.740405 
L 434.716559 72.190837 
L 438.19103 71.699759 
L 441.6655 71.456928 
L 445.139971 70.620795 
L 448.614442 67.223628 
L 452.088913 66.210454 
L 455.563383 64.829023 
L 462.512325 65.327755 
L 465.986796 63.25035 
L 469.461266 63.725662 
L 472.935737 64.370231 
L 476.410208 64.862039 
L 479.884679 64.240308 
L 483.359149 64.078619 
L 486.83362 64.175537 
L 490.308091 65.86816 
L 493.782561 65.428411 
L 497.257032 67.760124 
L 500.731503 67.652126 
L 504.205974 66.62594 
L 507.680444 67.29466 
L 511.154915 67.437183 
L 514.629386 66.004653 
L 518.103857 67.437183 
L 521.578327 68.08625 
L 525.052798 66.141711 
L 528.527269 69.652205 
L 532.00174 70.503055 
L 535.47621 72.149634 
L 538.950681 74.495675 
L 542.425152 74.895932 
L 545.899623 74.100204 
L 549.374093 77.308496 
L 552.848564 75.757174 
L 556.323035 74.940706 
L 559.797505 71.135903 
L 563.271976 70.817965 
L 566.746447 70.385733 
L 570.220918 71.296026 
L 573.695388 66.176065 
L 577.169859 67.223628 
L 580.64433 67.796202 
L 584.118801 69.805286 
L 587.593271 64.862039 
L 591.067742 64.994433 
L 594.542213 59.987535 
L 598.016684 64.272741 
L 601.491154 61.295784 
L 604.965625 61.563762 
L 608.440096 59.59086 
L 611.914566 59.959043 
L 615.389037 59.478393 
L 618.863508 52.495404 
L 622.337979 46.221608 
L 625.812449 46.656808 
L 629.28692 46.771287 
L 632.761391 48.296746 
L 636.235862 51.312381 
L 639.710332 47.603528 
L 643.184803 58.347138 
L 646.659274 62.93723 
L 650.133745 60.159007 
L 653.608215 59.422303 
L 657.082686 60.07316 
L 660.557157 58.455816 
L 664.031627 62.627046 
L 667.506098 59.987535 
L 670.980569 64.046376 
L 674.45504 64.014164 
L 677.92951 61.118331 
L 681.403981 60.360187 
L 684.878452 59.115495 
L 688.352923 59.032311 
L 691.827393 58.619506 
L 695.301864 57.862458 
L 698.776335 61.295784 
L 702.250806 65.563096 
L 705.725276 64.598831 
L 709.199747 68.08625 
L 712.674218 68.489267 
L 716.148689 70.15233 
L 719.623159 71.175861 
L 723.09763 69.843667 
L 726.572101 69.690409 
L 730.046571 70.738956 
L 733.521042 68.122686 
L 736.995513 69.046874 
L 740.469984 68.971981 
L 743.944454 66.800612 
L 747.418925 68.378865 
L 750.893396 67.508675 
L 754.367867 68.159161 
L 757.842337 69.461846 
L 761.316808 70.542255 
L 764.791279 72.026332 
L 768.26575 74.363325 
L 771.74022 76.219634 
L 775.214691 76.500246 
L 778.689162 73.580163 
L 782.163632 74.056554 
L 785.638103 73.709408 
L 789.112574 74.407383 
L 792.587045 75.895234 
L 796.061515 74.275385 
L 799.535986 75.25583 
L 803.010457 78.986797 
L 806.484928 75.030435 
L 809.959398 74.319326 
L 813.433869 74.275385 
L 816.90834 75.619688 
L 820.382811 75.941383 
L 823.857281 77.02097 
L 827.331752 76.64145 
L 830.806223 79.189964 
L 834.280693 83.773046 
L 837.755164 82.963715 
L 841.229635 78.88568 
L 844.704106 81.620777 
L 848.178576 81.565988 
L 851.653047 81.675657 
L 855.127518 86.453838 
L 858.601989 82.679403 
L 862.076459 75.391808 
L 865.55093 72.983608 
L 869.025401 73.709408 
L 872.499872 73.66627 
L 875.974342 73.969425 
L 879.448813 74.717441 
L 882.923284 77.116535 
L 886.397755 88.079795 
L 889.872225 95.35826 
L 893.346696 93.500623 
L 896.821167 92.267276 
L 900.295637 90.499444 
L 903.770108 91.51916 
L 907.244579 90.427797 
L 910.71905 90.715323 
L 914.19352 92.571327 
L 924.616933 99.987839 
L 931.565874 96.370542 
L 935.040345 94.215148 
L 938.514816 95.692255 
L 941.989286 95.109958 
L 945.463757 94.37605 
L 948.938228 94.055025 
L 952.412698 95.275285 
L 955.887169 96.62853 
L 959.36164 96.370542 
L 962.836111 94.215148 
L 966.310581 92.418952 
L 969.785052 93.737087 
L 973.259523 92.647778 
L 976.733994 87.354505 
L 980.208464 90.001142 
L 983.682935 92.267276 
L 987.157406 94.863508 
L 990.631877 97.949557 
L 994.106347 95.60844 
L 997.580818 96.114551 
L 1001.055289 103.834623 
L 1004.529759 103.091552 
L 1008.00423 102.882277 
L 1011.478701 101.453307 
L 1014.953172 100.179523 
L 1018.427642 102.058177 
L 1021.902113 101.553353 
L 1025.376584 102.674318 
L 1028.851055 102.058177 
L 1032.325525 104.050033 
L 1035.799996 97.77034 
L 1039.274467 94.37605 
L 1042.748938 94.700222 
L 1046.223408 96.284991 
L 1049.697879 96.370542 
L 1053.17235 97.238447 
L 1056.646821 91.22459 
L 1060.121291 95.275285 
L 1063.595762 101.154971 
L 1067.070233 103.196688 
L 1070.544703 103.942153 
L 1074.019174 105.372822 
L 1077.493645 105.598524 
L 1080.968116 119.289663 
L 1084.442586 129.669864 
L 1087.917057 128.7449 
L 1091.391528 128.517646 
L 1094.865999 132.355607 
L 1098.340469 134.727841 
L 1101.81494 144.514539 
L 1105.289411 148.824992 
L 1108.763882 151.436767 
L 1108.763882 151.436767 
" style="fill:none;stroke:#d18cad;stroke-linecap:square;stroke-width:2;"/>
   </g>
   <g id="line2d_23">
    <path clip-path="url(#pe878d5fcb4)" d="M 156.7589 224.544744 
L 160.233371 228.96 
L 174.131254 228.96 
L 177.605725 224.544744 
L 188.029137 224.544744 
L 191.503608 220.650212 
L 194.978078 214.014975 
L 198.452549 214.014975 
L 201.92702 217.166435 
L 205.401491 214.014975 
L 208.875961 214.014975 
L 212.350432 208.491281 
L 215.824903 211.137917 
L 219.299373 217.166435 
L 222.773844 211.137917 
L 226.248315 199.621051 
L 229.722786 199.621051 
L 233.197256 194.247313 
L 236.671727 192.634052 
L 240.146198 189.626042 
L 243.620669 179.756281 
L 247.095139 181.961452 
L 250.56961 174.811969 
L 254.044081 169.71493 
L 257.518552 171.328192 
L 260.993022 171.328192 
L 264.467493 168.936887 
L 267.941964 168.176732 
L 271.416434 162.653038 
L 274.890905 165.299674 
L 278.365376 167.43366 
L 281.839847 168.176732 
L 285.314317 170.511723 
L 288.788788 173.906014 
L 292.263259 179.756281 
L 295.73773 181.961452 
L 299.2122 183.121757 
L 302.686671 183.121757 
L 306.161142 178.706501 
L 309.635613 173.02422 
L 313.110083 172.165333 
L 316.584554 173.02422 
L 320.059025 177.689027 
L 323.533495 185.57216 
L 327.007966 191.095853 
L 330.482437 197.731091 
L 333.956908 211.137917 
L 337.431378 214.014975 
L 340.905849 217.166435 
L 344.38032 214.014975 
L 347.854791 211.137917 
L 358.278203 211.137917 
L 361.752674 214.014975 
L 365.227144 217.166435 
L 368.701615 220.650212 
L 372.176086 220.650212 
L 375.650557 217.166435 
L 379.125027 217.166435 
L 382.599498 211.137917 
L 393.02291 211.137917 
L 396.497381 214.014975 
L 399.971852 217.166435 
L 403.446322 214.014975 
L 406.920793 211.137917 
L 410.395264 211.137917 
L 413.869735 206.040879 
L 420.818676 206.040879 
L 424.293147 197.731091 
L 427.767618 199.621051 
L 434.716559 195.943342 
L 441.6655 199.621051 
L 445.139971 195.943342 
L 452.088913 195.943342 
L 455.563383 201.625623 
L 459.037854 194.247313 
L 462.512325 195.943342 
L 465.986796 188.218796 
L 469.461266 189.626042 
L 472.935737 194.247313 
L 476.410208 194.247313 
L 479.884679 191.095853 
L 483.359149 194.247313 
L 486.83362 188.218796 
L 490.308091 191.095853 
L 493.782561 192.634052 
L 497.257032 192.634052 
L 500.731503 191.095853 
L 504.205974 194.247313 
L 507.680444 197.731091 
L 511.154915 206.040879 
L 514.629386 214.014975 
L 528.527269 214.014975 
L 532.00174 211.137917 
L 535.47621 208.491281 
L 538.950681 208.491281 
L 542.425152 206.040879 
L 545.899623 201.625623 
L 549.374093 199.621051 
L 552.848564 201.625623 
L 556.323035 199.621051 
L 559.797505 201.625623 
L 563.271976 201.625623 
L 566.746447 203.759608 
L 570.220918 211.137917 
L 573.695388 214.014975 
L 577.169859 211.137917 
L 580.64433 217.166435 
L 598.016684 217.166435 
L 601.491154 220.650212 
L 604.965625 224.544744 
L 608.440096 220.650212 
L 611.914566 220.650212 
L 615.389037 217.166435 
L 622.337979 217.166435 
L 625.812449 214.014975 
L 629.28692 208.491281 
L 632.761391 211.137917 
L 636.235862 203.759608 
L 639.710332 206.040879 
L 643.184803 203.759608 
L 646.659274 206.040879 
L 650.133745 208.491281 
L 653.608215 214.014975 
L 657.082686 211.137917 
L 660.557157 214.014975 
L 664.031627 206.040879 
L 667.506098 203.759608 
L 670.980569 203.759608 
L 677.92951 199.621051 
L 681.403981 201.625623 
L 684.878452 206.040879 
L 688.352923 208.491281 
L 691.827393 214.014975 
L 695.301864 214.014975 
L 698.776335 217.166435 
L 702.250806 220.650212 
L 709.199747 220.650212 
L 712.674218 228.96 
L 716.148689 217.166435 
L 719.623159 217.166435 
L 723.09763 214.014975 
L 726.572101 211.137917 
L 733.521042 211.137917 
L 736.995513 201.625623 
L 740.469984 208.491281 
L 743.944454 203.759608 
L 747.418925 203.759608 
L 750.893396 206.040879 
L 757.842337 206.040879 
L 761.316808 211.137917 
L 764.791279 208.491281 
L 768.26575 206.040879 
L 778.689162 206.040879 
L 782.163632 203.759608 
L 785.638103 206.040879 
L 789.112574 203.759608 
L 792.587045 208.491281 
L 796.061515 203.759608 
L 799.535986 203.759608 
L 803.010457 201.625623 
L 806.484928 201.625623 
L 809.959398 199.621051 
L 813.433869 201.625623 
L 816.90834 201.625623 
L 820.382811 208.491281 
L 823.857281 192.634052 
L 830.806223 192.634052 
L 834.280693 195.943342 
L 837.755164 197.731091 
L 841.229635 197.731091 
L 844.704106 195.943342 
L 848.178576 214.014975 
L 851.653047 214.014975 
L 855.127518 217.166435 
L 865.55093 217.166435 
L 869.025401 220.650212 
L 872.499872 217.166435 
L 875.974342 220.650212 
L 879.448813 217.166435 
L 882.923284 211.137917 
L 889.872225 211.137917 
L 893.346696 208.491281 
L 896.821167 211.137917 
L 900.295637 211.137917 
L 903.770108 214.014975 
L 907.244579 220.650212 
L 910.71905 220.650212 
L 914.19352 224.544744 
L 917.667991 228.96 
L 928.091403 228.96 
L 931.565874 224.544744 
L 945.463757 224.544744 
L 948.938228 220.650212 
L 952.412698 217.166435 
L 955.887169 220.650212 
L 962.836111 220.650212 
L 966.310581 217.166435 
L 969.785052 217.166435 
L 973.259523 220.650212 
L 976.733994 224.544744 
L 980.208464 224.544744 
L 983.682935 220.650212 
L 987.157406 220.650212 
L 990.631877 214.014975 
L 997.580818 214.014975 
L 1001.055289 211.137917 
L 1004.529759 211.137917 
L 1008.00423 214.014975 
L 1011.478701 214.014975 
L 1014.953172 224.544744 
L 1018.427642 217.166435 
L 1021.902113 214.014975 
L 1025.376584 206.040879 
L 1028.851055 203.759608 
L 1032.325525 201.625623 
L 1035.799996 201.625623 
L 1039.274467 195.943342 
L 1046.223408 192.634052 
L 1049.697879 194.247313 
L 1053.17235 191.095853 
L 1056.646821 192.634052 
L 1060.121291 188.218796 
L 1063.595762 191.095853 
L 1067.070233 189.626042 
L 1070.544703 192.634052 
L 1074.019174 197.731091 
L 1077.493645 201.625623 
L 1077.493645 201.625623 
" style="fill:none;stroke:#a4a86f;stroke-linecap:square;stroke-width:2;"/>
   </g>
   <g id="line2d_24">
    <path clip-path="url(#pe878d5fcb4)" d="M 222.773844 220.650212 
L 226.248315 224.544744 
L 236.671727 224.544744 
L 240.146198 228.96 
L 243.620669 224.544744 
L 247.095139 224.544744 
L 250.56961 217.166435 
L 254.044081 214.014975 
L 257.518552 211.137917 
L 260.993022 211.137917 
L 264.467493 208.491281 
L 267.941964 208.491281 
L 271.416434 203.759608 
L 274.890905 206.040879 
L 278.365376 208.491281 
L 281.839847 203.759608 
L 292.263259 203.759608 
L 295.73773 206.040879 
L 299.2122 201.625623 
L 302.686671 199.621051 
L 306.161142 195.943342 
L 313.110083 195.943342 
L 316.584554 197.731091 
L 320.059025 195.943342 
L 323.533495 201.625623 
L 327.007966 199.621051 
L 330.482437 211.137917 
L 333.956908 211.137917 
L 337.431378 214.014975 
L 340.905849 214.014975 
L 344.38032 220.650212 
L 347.854791 217.166435 
L 351.329261 224.544744 
L 354.803732 211.137917 
L 358.278203 208.491281 
L 361.752674 206.040879 
L 365.227144 203.759608 
L 368.701615 195.943342 
L 372.176086 186.869004 
L 375.650557 184.324264 
L 379.125027 162.023204 
L 382.599498 160.798423 
L 386.073969 159.04233 
L 389.548439 159.617394 
L 393.02291 159.617394 
L 396.497381 159.04233 
L 399.971852 159.04233 
L 403.446322 175.743448 
L 406.920793 174.811969 
L 410.395264 176.70193 
L 413.869735 173.02422 
L 417.344205 174.811969 
L 420.818676 174.811969 
L 424.293147 172.165333 
L 427.767618 173.906014 
L 431.242088 173.906014 
L 434.716559 173.02422 
L 438.19103 176.70193 
L 441.6655 168.176732 
L 445.139971 165.995812 
L 448.614442 163.949883 
L 455.563383 154.272673 
L 459.037854 153.300094 
L 462.512325 150.986892 
L 465.986796 151.436767 
L 469.461266 152.824326 
L 472.935737 153.300094 
L 476.410208 151.892848 
L 479.884679 151.436767 
L 483.359149 147.592602 
L 486.83362 147.191805 
L 490.308091 143.430333 
L 493.782561 144.149173 
L 497.257032 143.07669 
L 500.731503 142.72679 
L 504.205974 143.430333 
L 507.680444 146.795809 
L 514.629386 149.246211 
L 518.103857 145.635504 
L 521.578327 143.787799 
L 525.052798 148.824992 
L 528.527269 145.635504 
L 532.00174 144.149173 
L 535.47621 140.375981 
L 542.425152 143.07669 
L 545.899623 146.017766 
L 549.374093 142.380553 
L 552.848564 146.404499 
L 556.323035 148.824992 
L 559.797505 153.300094 
L 563.271976 155.274729 
L 566.746447 158.477098 
L 570.220918 157.921365 
L 573.695388 163.949883 
L 577.169859 169.71493 
L 580.64433 170.511723 
L 584.118801 170.511723 
L 587.593271 163.295103 
L 591.067742 158.477098 
L 594.542213 150.543056 
L 598.016684 148.40907 
L 601.491154 145.635504 
L 604.965625 146.017766 
L 608.440096 146.795809 
L 611.914566 153.300094 
L 615.389037 156.83716 
L 618.863508 172.165333 
L 625.812449 173.906014 
L 629.28692 170.511723 
L 632.761391 172.165333 
L 636.235862 163.295103 
L 639.710332 163.295103 
L 643.184803 158.477098 
L 646.659274 162.023204 
L 650.133745 163.295103 
L 653.608215 165.299674 
L 657.082686 163.295103 
L 660.557157 168.176732 
L 664.031627 168.176732 
L 667.506098 165.299674 
L 670.980569 163.295103 
L 674.45504 159.617394 
L 677.92951 157.374819 
L 681.403981 157.374819 
L 684.878452 160.798423 
L 688.352923 155.78738 
L 691.827393 153.782808 
L 695.301864 152.355307 
L 698.776335 154.272673 
L 705.725276 156.308104 
L 709.199747 153.782808 
L 712.674218 153.782808 
L 716.148689 160.798423 
L 719.623159 161.405143 
L 723.09763 160.202636 
L 726.572101 156.308104 
L 730.046571 154.272673 
L 733.521042 153.300094 
L 736.995513 154.769905 
L 740.469984 147.998316 
L 743.944454 148.40907 
L 747.418925 150.105099 
L 754.367867 152.824326 
L 757.842337 150.986892 
L 761.316808 152.824326 
L 764.791279 159.04233 
L 768.26575 156.83716 
L 771.74022 155.78738 
L 775.214691 159.04233 
L 778.689162 157.921365 
L 782.163632 167.43366 
L 785.638103 173.02422 
L 789.112574 172.165333 
L 792.587045 175.743448 
L 796.061515 177.689027 
L 799.535986 177.689027 
L 803.010457 178.706501 
L 806.484928 176.70193 
L 809.959398 175.743448 
L 820.382811 201.625623 
L 823.857281 201.625623 
L 827.331752 208.491281 
L 830.806223 199.621051 
L 834.280693 195.943342 
L 837.755164 194.247313 
L 841.229635 191.095853 
L 844.704106 184.324264 
L 848.178576 186.869004 
L 851.653047 185.57216 
L 855.127518 192.634052 
L 858.601989 191.095853 
L 862.076459 191.095853 
L 865.55093 192.634052 
L 869.025401 195.943342 
L 872.499872 188.218796 
L 875.974342 189.626042 
L 879.448813 179.756281 
L 882.923284 179.756281 
L 886.397755 177.689027 
L 889.872225 173.02422 
L 893.346696 169.71493 
L 896.821167 168.176732 
L 900.295637 168.176732 
L 903.770108 171.328192 
L 907.244579 172.165333 
L 910.71905 174.811969 
L 914.19352 177.689027 
L 917.667991 185.57216 
L 921.142462 195.943342 
L 924.616933 194.247313 
L 928.091403 201.625623 
L 931.565874 206.040879 
L 935.040345 203.759608 
L 938.514816 208.491281 
L 941.989286 206.040879 
L 945.463757 206.040879 
L 948.938228 208.491281 
L 952.412698 203.759608 
L 955.887169 206.040879 
L 959.36164 201.625623 
L 962.836111 201.625623 
L 966.310581 194.247313 
L 969.785052 192.634052 
L 973.259523 192.634052 
L 976.733994 186.869004 
L 983.682935 186.869004 
L 987.157406 184.324264 
L 990.631877 186.869004 
L 994.106347 183.121757 
L 997.580818 178.706501 
L 1001.055289 181.961452 
L 1004.529759 180.840487 
L 1008.00423 181.961452 
L 1011.478701 184.324264 
L 1014.953172 188.218796 
L 1018.427642 192.634052 
L 1021.902113 197.731091 
L 1025.376584 203.759608 
L 1028.851055 203.759608 
L 1032.325525 201.625623 
L 1039.274467 201.625623 
L 1042.748938 203.759608 
L 1046.223408 203.759608 
L 1049.697879 199.621051 
L 1053.17235 203.759608 
L 1056.646821 211.137917 
L 1060.121291 214.014975 
L 1067.070233 214.014975 
L 1070.544703 217.166435 
L 1074.019174 228.96 
L 1084.442586 228.96 
L 1087.917057 224.544744 
L 1087.917057 224.544744 
" style="fill:none;stroke:#d3d3d3;stroke-linecap:square;stroke-width:2;"/>
   </g>
   <g id="patch_3">
    <path d="M 46.965625 228.96 
L 46.965625 7.2 
" style="fill:none;stroke:#000000;stroke-linecap:square;stroke-linejoin:miter;stroke-width:0.8;"/>
   </g>
   <g id="patch_4">
    <path d="M 46.965625 228.96 
L 1162.965625 228.96 
" style="fill:none;stroke:#000000;stroke-linecap:square;stroke-linejoin:miter;stroke-width:0.8;"/>
   </g>
   <g id="legend_1">
    <g id="line2d_25">
     <path d="M 54.165625 17.67875 
L 70.165625 17.67875 
" style="fill:none;stroke:#947383;stroke-linecap:square;stroke-width:2;"/>
    </g>
    <g id="line2d_26"/>
    <g id="text_20">
     <!-- North America -->
     <g transform="translate(76.565625 20.47875)scale(0.08 -0.08)">
      <defs>
       <path d="M 628 4666 
L 1478 4666 
L 3547 763 
L 3547 4666 
L 4159 4666 
L 4159 0 
L 3309 0 
L 1241 3903 
L 1241 0 
L 628 0 
L 628 4666 
z
" id="DejaVuSans-4e" transform="scale(0.015625)"/>
       <path d="M 3513 2113 
L 3513 0 
L 2938 0 
L 2938 2094 
Q 2938 2591 2744 2837 
Q 2550 3084 2163 3084 
Q 1697 3084 1428 2787 
Q 1159 2491 1159 1978 
L 1159 0 
L 581 0 
L 581 4863 
L 1159 4863 
L 1159 2956 
Q 1366 3272 1645 3428 
Q 1925 3584 2291 3584 
Q 2894 3584 3203 3211 
Q 3513 2838 3513 2113 
z
" id="DejaVuSans-68" transform="scale(0.015625)"/>
       <path d="M 2188 4044 
L 1331 1722 
L 3047 1722 
L 2188 4044 
z
M 1831 4666 
L 2547 4666 
L 4325 0 
L 3669 0 
L 3244 1197 
L 1141 1197 
L 716 0 
L 50 0 
L 1831 4666 
z
" id="DejaVuSans-41" transform="scale(0.015625)"/>
       <path d="M 3328 2828 
Q 3544 3216 3844 3400 
Q 4144 3584 4550 3584 
Q 5097 3584 5394 3201 
Q 5691 2819 5691 2113 
L 5691 0 
L 5113 0 
L 5113 2094 
Q 5113 2597 4934 2840 
Q 4756 3084 4391 3084 
Q 3944 3084 3684 2787 
Q 3425 2491 3425 1978 
L 3425 0 
L 2847 0 
L 2847 2094 
Q 2847 2600 2669 2842 
Q 2491 3084 2119 3084 
Q 1678 3084 1418 2786 
Q 1159 2488 1159 1978 
L 1159 0 
L 581 0 
L 581 3500 
L 1159 3500 
L 1159 2956 
Q 1356 3278 1631 3431 
Q 1906 3584 2284 3584 
Q 2666 3584 2933 3390 
Q 3200 3197 3328 2828 
z
" id="DejaVuSans-6d" transform="scale(0.015625)"/>
       <path d="M 3122 3366 
L 3122 2828 
Q 2878 2963 2633 3030 
Q 2388 3097 2138 3097 
Q 1578 3097 1268 2742 
Q 959 2388 959 1747 
Q 959 1106 1268 751 
Q 1578 397 2138 397 
Q 2388 397 2633 464 
Q 2878 531 3122 666 
L 3122 134 
Q 2881 22 2623 -34 
Q 2366 -91 2075 -91 
Q 1284 -91 818 406 
Q 353 903 353 1747 
Q 353 2603 823 3093 
Q 1294 3584 2113 3584 
Q 2378 3584 2631 3529 
Q 2884 3475 3122 3366 
z
" id="DejaVuSans-63" transform="scale(0.015625)"/>
      </defs>
      <use xlink:href="#DejaVuSans-4e"/>
      <use x="74.804688" xlink:href="#DejaVuSans-6f"/>
      <use x="135.986328" xlink:href="#DejaVuSans-72"/>
      <use x="177.099609" xlink:href="#DejaVuSans-74"/>
      <use x="216.308594" xlink:href="#DejaVuSans-68"/>
      <use x="279.6875" xlink:href="#DejaVuSans-20"/>
      <use x="311.474609" xlink:href="#DejaVuSans-41"/>
      <use x="379.882812" xlink:href="#DejaVuSans-6d"/>
      <use x="477.294922" xlink:href="#DejaVuSans-65"/>
      <use x="538.818359" xlink:href="#DejaVuSans-72"/>
      <use x="579.931641" xlink:href="#DejaVuSans-69"/>
      <use x="607.714844" xlink:href="#DejaVuSans-63"/>
      <use x="662.695312" xlink:href="#DejaVuSans-61"/>
     </g>
    </g>
    <g id="line2d_27">
     <path d="M 54.165625 29.42125 
L 70.165625 29.42125 
" style="fill:none;stroke:#96c6ad;stroke-linecap:square;stroke-width:2;"/>
    </g>
    <g id="line2d_28"/>
    <g id="text_21">
     <!-- Europe -->
     <g transform="translate(76.565625 32.22125)scale(0.08 -0.08)">
      <defs>
       <path d="M 628 4666 
L 3578 4666 
L 3578 4134 
L 1259 4134 
L 1259 2753 
L 3481 2753 
L 3481 2222 
L 1259 2222 
L 1259 531 
L 3634 531 
L 3634 0 
L 628 0 
L 628 4666 
z
" id="DejaVuSans-45" transform="scale(0.015625)"/>
       <path d="M 1159 525 
L 1159 -1331 
L 581 -1331 
L 581 3500 
L 1159 3500 
L 1159 2969 
Q 1341 3281 1617 3432 
Q 1894 3584 2278 3584 
Q 2916 3584 3314 3078 
Q 3713 2572 3713 1747 
Q 3713 922 3314 415 
Q 2916 -91 2278 -91 
Q 1894 -91 1617 61 
Q 1341 213 1159 525 
z
M 3116 1747 
Q 3116 2381 2855 2742 
Q 2594 3103 2138 3103 
Q 1681 3103 1420 2742 
Q 1159 2381 1159 1747 
Q 1159 1113 1420 752 
Q 1681 391 2138 391 
Q 2594 391 2855 752 
Q 3116 1113 3116 1747 
z
" id="DejaVuSans-70" transform="scale(0.015625)"/>
      </defs>
      <use xlink:href="#DejaVuSans-45"/>
      <use x="63.183594" xlink:href="#DejaVuSans-75"/>
      <use x="126.5625" xlink:href="#DejaVuSans-72"/>
      <use x="165.425781" xlink:href="#DejaVuSans-6f"/>
      <use x="226.607422" xlink:href="#DejaVuSans-70"/>
      <use x="290.083984" xlink:href="#DejaVuSans-65"/>
     </g>
    </g>
    <g id="line2d_29">
     <path d="M 54.165625 41.16375 
L 70.165625 41.16375 
" style="fill:none;stroke:#525886;stroke-linecap:square;stroke-width:2;"/>
    </g>
    <g id="line2d_30"/>
    <g id="text_22">
     <!-- United Kingdom -->
     <g transform="translate(76.565625 43.96375)scale(0.08 -0.08)">
      <defs>
       <path d="M 556 4666 
L 1191 4666 
L 1191 1831 
Q 1191 1081 1462 751 
Q 1734 422 2344 422 
Q 2950 422 3222 751 
Q 3494 1081 3494 1831 
L 3494 4666 
L 4128 4666 
L 4128 1753 
Q 4128 841 3676 375 
Q 3225 -91 2344 -91 
Q 1459 -91 1007 375 
Q 556 841 556 1753 
L 556 4666 
z
" id="DejaVuSans-55" transform="scale(0.015625)"/>
       <path d="M 628 4666 
L 1259 4666 
L 1259 2694 
L 3353 4666 
L 4166 4666 
L 1850 2491 
L 4331 0 
L 3500 0 
L 1259 2247 
L 1259 0 
L 628 0 
L 628 4666 
z
" id="DejaVuSans-4b" transform="scale(0.015625)"/>
      </defs>
      <use xlink:href="#DejaVuSans-55"/>
      <use x="73.193359" xlink:href="#DejaVuSans-6e"/>
      <use x="136.572266" xlink:href="#DejaVuSans-69"/>
      <use x="164.355469" xlink:href="#DejaVuSans-74"/>
      <use x="203.564453" xlink:href="#DejaVuSans-65"/>
      <use x="265.087891" xlink:href="#DejaVuSans-64"/>
      <use x="328.564453" xlink:href="#DejaVuSans-20"/>
      <use x="360.351562" xlink:href="#DejaVuSans-4b"/>
      <use x="425.927734" xlink:href="#DejaVuSans-69"/>
      <use x="453.710938" xlink:href="#DejaVuSans-6e"/>
      <use x="517.089844" xlink:href="#DejaVuSans-67"/>
      <use x="580.566406" xlink:href="#DejaVuSans-64"/>
      <use x="644.042969" xlink:href="#DejaVuSans-6f"/>
      <use x="705.224609" xlink:href="#DejaVuSans-6d"/>
     </g>
    </g>
    <g id="line2d_31">
     <path d="M 54.165625 52.90625 
L 70.165625 52.90625 
" style="fill:none;stroke:#937252;stroke-linecap:square;stroke-width:2;"/>
    </g>
    <g id="line2d_32"/>
    <g id="text_23">
     <!-- South America -->
     <g transform="translate(76.565625 55.70625)scale(0.08 -0.08)">
      <defs>
       <path d="M 3425 4513 
L 3425 3897 
Q 3066 4069 2747 4153 
Q 2428 4238 2131 4238 
Q 1616 4238 1336 4038 
Q 1056 3838 1056 3469 
Q 1056 3159 1242 3001 
Q 1428 2844 1947 2747 
L 2328 2669 
Q 3034 2534 3370 2195 
Q 3706 1856 3706 1288 
Q 3706 609 3251 259 
Q 2797 -91 1919 -91 
Q 1588 -91 1214 -16 
Q 841 59 441 206 
L 441 856 
Q 825 641 1194 531 
Q 1563 422 1919 422 
Q 2459 422 2753 634 
Q 3047 847 3047 1241 
Q 3047 1584 2836 1778 
Q 2625 1972 2144 2069 
L 1759 2144 
Q 1053 2284 737 2584 
Q 422 2884 422 3419 
Q 422 4038 858 4394 
Q 1294 4750 2059 4750 
Q 2388 4750 2728 4690 
Q 3069 4631 3425 4513 
z
" id="DejaVuSans-53" transform="scale(0.015625)"/>
      </defs>
      <use xlink:href="#DejaVuSans-53"/>
      <use x="63.476562" xlink:href="#DejaVuSans-6f"/>
      <use x="124.658203" xlink:href="#DejaVuSans-75"/>
      <use x="188.037109" xlink:href="#DejaVuSans-74"/>
      <use x="227.246094" xlink:href="#DejaVuSans-68"/>
      <use x="290.625" xlink:href="#DejaVuSans-20"/>
      <use x="322.412109" xlink:href="#DejaVuSans-41"/>
      <use x="390.820312" xlink:href="#DejaVuSans-6d"/>
      <use x="488.232422" xlink:href="#DejaVuSans-65"/>
      <use x="549.755859" xlink:href="#DejaVuSans-72"/>
      <use x="590.869141" xlink:href="#DejaVuSans-69"/>
      <use x="618.652344" xlink:href="#DejaVuSans-63"/>
      <use x="673.632812" xlink:href="#DejaVuSans-61"/>
     </g>
    </g>
    <g id="line2d_33">
     <path d="M 54.165625 64.64875 
L 70.165625 64.64875 
" style="fill:none;stroke:#d18cad;stroke-linecap:square;stroke-width:2;"/>
    </g>
    <g id="line2d_34"/>
    <g id="text_24">
     <!-- Asia -->
     <g transform="translate(76.565625 67.44875)scale(0.08 -0.08)">
      <defs>
       <path d="M 2834 3397 
L 2834 2853 
Q 2591 2978 2328 3040 
Q 2066 3103 1784 3103 
Q 1356 3103 1142 2972 
Q 928 2841 928 2578 
Q 928 2378 1081 2264 
Q 1234 2150 1697 2047 
L 1894 2003 
Q 2506 1872 2764 1633 
Q 3022 1394 3022 966 
Q 3022 478 2636 193 
Q 2250 -91 1575 -91 
Q 1294 -91 989 -36 
Q 684 19 347 128 
L 347 722 
Q 666 556 975 473 
Q 1284 391 1588 391 
Q 1994 391 2212 530 
Q 2431 669 2431 922 
Q 2431 1156 2273 1281 
Q 2116 1406 1581 1522 
L 1381 1569 
Q 847 1681 609 1914 
Q 372 2147 372 2553 
Q 372 3047 722 3315 
Q 1072 3584 1716 3584 
Q 2034 3584 2315 3537 
Q 2597 3491 2834 3397 
z
" id="DejaVuSans-73" transform="scale(0.015625)"/>
      </defs>
      <use xlink:href="#DejaVuSans-41"/>
      <use x="68.408203" xlink:href="#DejaVuSans-73"/>
      <use x="120.507812" xlink:href="#DejaVuSans-69"/>
      <use x="148.291016" xlink:href="#DejaVuSans-61"/>
     </g>
    </g>
    <g id="line2d_35">
     <path d="M 54.165625 76.39125 
L 70.165625 76.39125 
" style="fill:none;stroke:#a4a86f;stroke-linecap:square;stroke-width:2;"/>
    </g>
    <g id="line2d_36"/>
    <g id="text_25">
     <!-- Oceania -->
     <g transform="translate(76.565625 79.19125)scale(0.08 -0.08)">
      <defs>
       <path d="M 2522 4238 
Q 1834 4238 1429 3725 
Q 1025 3213 1025 2328 
Q 1025 1447 1429 934 
Q 1834 422 2522 422 
Q 3209 422 3611 934 
Q 4013 1447 4013 2328 
Q 4013 3213 3611 3725 
Q 3209 4238 2522 4238 
z
M 2522 4750 
Q 3503 4750 4090 4092 
Q 4678 3434 4678 2328 
Q 4678 1225 4090 567 
Q 3503 -91 2522 -91 
Q 1538 -91 948 565 
Q 359 1222 359 2328 
Q 359 3434 948 4092 
Q 1538 4750 2522 4750 
z
" id="DejaVuSans-4f" transform="scale(0.015625)"/>
      </defs>
      <use xlink:href="#DejaVuSans-4f"/>
      <use x="78.710938" xlink:href="#DejaVuSans-63"/>
      <use x="133.691406" xlink:href="#DejaVuSans-65"/>
      <use x="195.214844" xlink:href="#DejaVuSans-61"/>
      <use x="256.494141" xlink:href="#DejaVuSans-6e"/>
      <use x="319.873047" xlink:href="#DejaVuSans-69"/>
      <use x="347.65625" xlink:href="#DejaVuSans-61"/>
     </g>
    </g>
    <g id="line2d_37">
     <path d="M 54.165625 88.13375 
L 70.165625 88.13375 
" style="fill:none;stroke:#d3d3d3;stroke-linecap:square;stroke-width:2;"/>
    </g>
    <g id="line2d_38"/>
    <g id="text_26">
     <!-- Africa -->
     <g transform="translate(76.565625 90.93375)scale(0.08 -0.08)">
      <defs>
       <path d="M 2375 4863 
L 2375 4384 
L 1825 4384 
Q 1516 4384 1395 4259 
Q 1275 4134 1275 3809 
L 1275 3500 
L 2222 3500 
L 2222 3053 
L 1275 3053 
L 1275 0 
L 697 0 
L 697 3053 
L 147 3053 
L 147 3500 
L 697 3500 
L 697 3744 
Q 697 4328 969 4595 
Q 1241 4863 1831 4863 
L 2375 4863 
z
" id="DejaVuSans-66" transform="scale(0.015625)"/>
      </defs>
      <use xlink:href="#DejaVuSans-41"/>
      <use x="64.783203" xlink:href="#DejaVuSans-66"/>
      <use x="99.988281" xlink:href="#DejaVuSans-72"/>
      <use x="141.101562" xlink:href="#DejaVuSans-69"/>
      <use x="168.884766" xlink:href="#DejaVuSans-63"/>
      <use x="223.865234" xlink:href="#DejaVuSans-61"/>
     </g>
    </g>
   </g>
  </g>
 </g>
 <defs>
  <clipPath id="pe878d5fcb4">
   <rect height="221.76" width="1116" x="46.965625" y="7.2"/>
  </clipPath>
 </defs>
</svg>
