<?xml version="1.0" encoding="utf-8" standalone="no"?>
<!DOCTYPE svg PUBLIC "-//W3C//DTD SVG 1.1//EN"
  "http://www.w3.org/Graphics/SVG/1.1/DTD/svg11.dtd">
<svg height="298.620937pt" version="1.1" viewBox="0 0 1170.165625 298.620937" width="1170.165625pt" xmlns="http://www.w3.org/2000/svg" xmlns:xlink="http://www.w3.org/1999/xlink">
 <metadata>
  <rdf:RDF xmlns:cc="http://creativecommons.org/ns#" xmlns:dc="http://purl.org/dc/elements/1.1/" xmlns:rdf="http://www.w3.org/1999/02/22-rdf-syntax-ns#">
   <cc:Work>
    <dc:type rdf:resource="http://purl.org/dc/dcmitype/StillImage"/>
    <dc:date>2021-09-29T10:45:20.741003</dc:date>
    <dc:format>image/svg+xml</dc:format>
    <dc:creator>
     <cc:Agent>
      <dc:title>Matplotlib v3.4.2, https://matplotlib.org/</dc:title>
     </cc:Agent>
    </dc:creator>
   </cc:Work>
  </rdf:RDF>
 </metadata>
 <defs>
  <style type="text/css">*{stroke-linecap:butt;stroke-linejoin:round;}</style>
 </defs>
 <g id="figure_1">
  <g id="patch_1">
   <path d="M 0 298.620937 
L 1170.165625 298.620937 
L 1170.165625 0 
L 0 0 
z
" style="fill:#ffffff;"/>
  </g>
  <g id="axes_1">
   <g id="patch_2">
    <path d="M 46.965625 228.96 
L 1162.965625 228.96 
L 1162.965625 7.2 
L 46.965625 7.2 
z
" style="fill:#ffffff;"/>
   </g>
   <g id="matplotlib.axis_1">
    <g id="xtick_1">
     <g id="line2d_1">
      <defs>
       <path d="M 0 0 
L 0 3.5 
" id="m13e47a4a6b" style="stroke:#000000;stroke-width:0.8;"/>
      </defs>
      <g>
       <use style="stroke:#000000;stroke-width:0.8;" x="81.106324" xlink:href="#m13e47a4a6b" y="228.96"/>
      </g>
     </g>
     <g id="text_1">
      <!-- 2020-09 -->
      <g transform="translate(83.865699 277.742812)rotate(-90)scale(0.1 -0.1)">
       <defs>
        <path d="M 1228 531 
L 3431 531 
L 3431 0 
L 469 0 
L 469 531 
Q 828 903 1448 1529 
Q 2069 2156 2228 2338 
Q 2531 2678 2651 2914 
Q 2772 3150 2772 3378 
Q 2772 3750 2511 3984 
Q 2250 4219 1831 4219 
Q 1534 4219 1204 4116 
Q 875 4013 500 3803 
L 500 4441 
Q 881 4594 1212 4672 
Q 1544 4750 1819 4750 
Q 2544 4750 2975 4387 
Q 3406 4025 3406 3419 
Q 3406 3131 3298 2873 
Q 3191 2616 2906 2266 
Q 2828 2175 2409 1742 
Q 1991 1309 1228 531 
z
" id="DejaVuSans-32" transform="scale(0.015625)"/>
        <path d="M 2034 4250 
Q 1547 4250 1301 3770 
Q 1056 3291 1056 2328 
Q 1056 1369 1301 889 
Q 1547 409 2034 409 
Q 2525 409 2770 889 
Q 3016 1369 3016 2328 
Q 3016 3291 2770 3770 
Q 2525 4250 2034 4250 
z
M 2034 4750 
Q 2819 4750 3233 4129 
Q 3647 3509 3647 2328 
Q 3647 1150 3233 529 
Q 2819 -91 2034 -91 
Q 1250 -91 836 529 
Q 422 1150 422 2328 
Q 422 3509 836 4129 
Q 1250 4750 2034 4750 
z
" id="DejaVuSans-30" transform="scale(0.015625)"/>
        <path d="M 313 2009 
L 1997 2009 
L 1997 1497 
L 313 1497 
L 313 2009 
z
" id="DejaVuSans-2d" transform="scale(0.015625)"/>
        <path d="M 703 97 
L 703 672 
Q 941 559 1184 500 
Q 1428 441 1663 441 
Q 2288 441 2617 861 
Q 2947 1281 2994 2138 
Q 2813 1869 2534 1725 
Q 2256 1581 1919 1581 
Q 1219 1581 811 2004 
Q 403 2428 403 3163 
Q 403 3881 828 4315 
Q 1253 4750 1959 4750 
Q 2769 4750 3195 4129 
Q 3622 3509 3622 2328 
Q 3622 1225 3098 567 
Q 2575 -91 1691 -91 
Q 1453 -91 1209 -44 
Q 966 3 703 97 
z
M 1959 2075 
Q 2384 2075 2632 2365 
Q 2881 2656 2881 3163 
Q 2881 3666 2632 3958 
Q 2384 4250 1959 4250 
Q 1534 4250 1286 3958 
Q 1038 3666 1038 3163 
Q 1038 2656 1286 2365 
Q 1534 2075 1959 2075 
z
" id="DejaVuSans-39" transform="scale(0.015625)"/>
       </defs>
       <use xlink:href="#DejaVuSans-32"/>
       <use x="63.623047" xlink:href="#DejaVuSans-30"/>
       <use x="127.246094" xlink:href="#DejaVuSans-32"/>
       <use x="190.869141" xlink:href="#DejaVuSans-30"/>
       <use x="254.492188" xlink:href="#DejaVuSans-2d"/>
       <use x="290.576172" xlink:href="#DejaVuSans-30"/>
       <use x="354.199219" xlink:href="#DejaVuSans-39"/>
      </g>
     </g>
    </g>
    <g id="xtick_2">
     <g id="line2d_2">
      <g>
       <use style="stroke:#000000;stroke-width:0.8;" x="249.736494" xlink:href="#m13e47a4a6b" y="228.96"/>
      </g>
     </g>
     <g id="text_2">
      <!-- 2020-11 -->
      <g transform="translate(252.495869 277.742812)rotate(-90)scale(0.1 -0.1)">
       <defs>
        <path d="M 794 531 
L 1825 531 
L 1825 4091 
L 703 3866 
L 703 4441 
L 1819 4666 
L 2450 4666 
L 2450 531 
L 3481 531 
L 3481 0 
L 794 0 
L 794 531 
z
" id="DejaVuSans-31" transform="scale(0.015625)"/>
       </defs>
       <use xlink:href="#DejaVuSans-32"/>
       <use x="63.623047" xlink:href="#DejaVuSans-30"/>
       <use x="127.246094" xlink:href="#DejaVuSans-32"/>
       <use x="190.869141" xlink:href="#DejaVuSans-30"/>
       <use x="254.492188" xlink:href="#DejaVuSans-2d"/>
       <use x="290.576172" xlink:href="#DejaVuSans-31"/>
       <use x="354.199219" xlink:href="#DejaVuSans-31"/>
      </g>
     </g>
    </g>
    <g id="xtick_3">
     <g id="line2d_3">
      <g>
       <use style="stroke:#000000;stroke-width:0.8;" x="418.366665" xlink:href="#m13e47a4a6b" y="228.96"/>
      </g>
     </g>
     <g id="text_3">
      <!-- 2021-01 -->
      <g transform="translate(421.12604 277.742812)rotate(-90)scale(0.1 -0.1)">
       <use xlink:href="#DejaVuSans-32"/>
       <use x="63.623047" xlink:href="#DejaVuSans-30"/>
       <use x="127.246094" xlink:href="#DejaVuSans-32"/>
       <use x="190.869141" xlink:href="#DejaVuSans-31"/>
       <use x="254.492188" xlink:href="#DejaVuSans-2d"/>
       <use x="290.576172" xlink:href="#DejaVuSans-30"/>
       <use x="354.199219" xlink:href="#DejaVuSans-31"/>
      </g>
     </g>
    </g>
    <g id="xtick_4">
     <g id="line2d_4">
      <g>
       <use style="stroke:#000000;stroke-width:0.8;" x="581.467978" xlink:href="#m13e47a4a6b" y="228.96"/>
      </g>
     </g>
     <g id="text_4">
      <!-- 2021-03 -->
      <g transform="translate(584.227353 277.742812)rotate(-90)scale(0.1 -0.1)">
       <defs>
        <path d="M 2597 2516 
Q 3050 2419 3304 2112 
Q 3559 1806 3559 1356 
Q 3559 666 3084 287 
Q 2609 -91 1734 -91 
Q 1441 -91 1130 -33 
Q 819 25 488 141 
L 488 750 
Q 750 597 1062 519 
Q 1375 441 1716 441 
Q 2309 441 2620 675 
Q 2931 909 2931 1356 
Q 2931 1769 2642 2001 
Q 2353 2234 1838 2234 
L 1294 2234 
L 1294 2753 
L 1863 2753 
Q 2328 2753 2575 2939 
Q 2822 3125 2822 3475 
Q 2822 3834 2567 4026 
Q 2313 4219 1838 4219 
Q 1578 4219 1281 4162 
Q 984 4106 628 3988 
L 628 4550 
Q 988 4650 1302 4700 
Q 1616 4750 1894 4750 
Q 2613 4750 3031 4423 
Q 3450 4097 3450 3541 
Q 3450 3153 3228 2886 
Q 3006 2619 2597 2516 
z
" id="DejaVuSans-33" transform="scale(0.015625)"/>
       </defs>
       <use xlink:href="#DejaVuSans-32"/>
       <use x="63.623047" xlink:href="#DejaVuSans-30"/>
       <use x="127.246094" xlink:href="#DejaVuSans-32"/>
       <use x="190.869141" xlink:href="#DejaVuSans-31"/>
       <use x="254.492188" xlink:href="#DejaVuSans-2d"/>
       <use x="290.576172" xlink:href="#DejaVuSans-30"/>
       <use x="354.199219" xlink:href="#DejaVuSans-33"/>
      </g>
     </g>
    </g>
    <g id="xtick_5">
     <g id="line2d_5">
      <g>
       <use style="stroke:#000000;stroke-width:0.8;" x="750.098149" xlink:href="#m13e47a4a6b" y="228.96"/>
      </g>
     </g>
     <g id="text_5">
      <!-- 2021-05 -->
      <g transform="translate(752.857524 277.742812)rotate(-90)scale(0.1 -0.1)">
       <defs>
        <path d="M 691 4666 
L 3169 4666 
L 3169 4134 
L 1269 4134 
L 1269 2991 
Q 1406 3038 1543 3061 
Q 1681 3084 1819 3084 
Q 2600 3084 3056 2656 
Q 3513 2228 3513 1497 
Q 3513 744 3044 326 
Q 2575 -91 1722 -91 
Q 1428 -91 1123 -41 
Q 819 9 494 109 
L 494 744 
Q 775 591 1075 516 
Q 1375 441 1709 441 
Q 2250 441 2565 725 
Q 2881 1009 2881 1497 
Q 2881 1984 2565 2268 
Q 2250 2553 1709 2553 
Q 1456 2553 1204 2497 
Q 953 2441 691 2322 
L 691 4666 
z
" id="DejaVuSans-35" transform="scale(0.015625)"/>
       </defs>
       <use xlink:href="#DejaVuSans-32"/>
       <use x="63.623047" xlink:href="#DejaVuSans-30"/>
       <use x="127.246094" xlink:href="#DejaVuSans-32"/>
       <use x="190.869141" xlink:href="#DejaVuSans-31"/>
       <use x="254.492188" xlink:href="#DejaVuSans-2d"/>
       <use x="290.576172" xlink:href="#DejaVuSans-30"/>
       <use x="354.199219" xlink:href="#DejaVuSans-35"/>
      </g>
     </g>
    </g>
    <g id="xtick_6">
     <g id="line2d_6">
      <g>
       <use style="stroke:#000000;stroke-width:0.8;" x="918.72832" xlink:href="#m13e47a4a6b" y="228.96"/>
      </g>
     </g>
     <g id="text_6">
      <!-- 2021-07 -->
      <g transform="translate(921.487695 277.742812)rotate(-90)scale(0.1 -0.1)">
       <defs>
        <path d="M 525 4666 
L 3525 4666 
L 3525 4397 
L 1831 0 
L 1172 0 
L 2766 4134 
L 525 4134 
L 525 4666 
z
" id="DejaVuSans-37" transform="scale(0.015625)"/>
       </defs>
       <use xlink:href="#DejaVuSans-32"/>
       <use x="63.623047" xlink:href="#DejaVuSans-30"/>
       <use x="127.246094" xlink:href="#DejaVuSans-32"/>
       <use x="190.869141" xlink:href="#DejaVuSans-31"/>
       <use x="254.492188" xlink:href="#DejaVuSans-2d"/>
       <use x="290.576172" xlink:href="#DejaVuSans-30"/>
       <use x="354.199219" xlink:href="#DejaVuSans-37"/>
      </g>
     </g>
    </g>
    <g id="xtick_7">
     <g id="line2d_7">
      <g>
       <use style="stroke:#000000;stroke-width:0.8;" x="1090.12292" xlink:href="#m13e47a4a6b" y="228.96"/>
      </g>
     </g>
     <g id="text_7">
      <!-- 2021-09 -->
      <g transform="translate(1092.882295 277.742812)rotate(-90)scale(0.1 -0.1)">
       <use xlink:href="#DejaVuSans-32"/>
       <use x="63.623047" xlink:href="#DejaVuSans-30"/>
       <use x="127.246094" xlink:href="#DejaVuSans-32"/>
       <use x="190.869141" xlink:href="#DejaVuSans-31"/>
       <use x="254.492188" xlink:href="#DejaVuSans-2d"/>
       <use x="290.576172" xlink:href="#DejaVuSans-30"/>
       <use x="354.199219" xlink:href="#DejaVuSans-39"/>
      </g>
     </g>
    </g>
    <g id="text_8">
     <!-- Date -->
     <g transform="translate(593.014844 289.34125)scale(0.1 -0.1)">
      <defs>
       <path d="M 1259 4147 
L 1259 519 
L 2022 519 
Q 2988 519 3436 956 
Q 3884 1394 3884 2338 
Q 3884 3275 3436 3711 
Q 2988 4147 2022 4147 
L 1259 4147 
z
M 628 4666 
L 1925 4666 
Q 3281 4666 3915 4102 
Q 4550 3538 4550 2338 
Q 4550 1131 3912 565 
Q 3275 0 1925 0 
L 628 0 
L 628 4666 
z
" id="DejaVuSans-44" transform="scale(0.015625)"/>
       <path d="M 2194 1759 
Q 1497 1759 1228 1600 
Q 959 1441 959 1056 
Q 959 750 1161 570 
Q 1363 391 1709 391 
Q 2188 391 2477 730 
Q 2766 1069 2766 1631 
L 2766 1759 
L 2194 1759 
z
M 3341 1997 
L 3341 0 
L 2766 0 
L 2766 531 
Q 2569 213 2275 61 
Q 1981 -91 1556 -91 
Q 1019 -91 701 211 
Q 384 513 384 1019 
Q 384 1609 779 1909 
Q 1175 2209 1959 2209 
L 2766 2209 
L 2766 2266 
Q 2766 2663 2505 2880 
Q 2244 3097 1772 3097 
Q 1472 3097 1187 3025 
Q 903 2953 641 2809 
L 641 3341 
Q 956 3463 1253 3523 
Q 1550 3584 1831 3584 
Q 2591 3584 2966 3190 
Q 3341 2797 3341 1997 
z
" id="DejaVuSans-61" transform="scale(0.015625)"/>
       <path d="M 1172 4494 
L 1172 3500 
L 2356 3500 
L 2356 3053 
L 1172 3053 
L 1172 1153 
Q 1172 725 1289 603 
Q 1406 481 1766 481 
L 2356 481 
L 2356 0 
L 1766 0 
Q 1100 0 847 248 
Q 594 497 594 1153 
L 594 3053 
L 172 3053 
L 172 3500 
L 594 3500 
L 594 4494 
L 1172 4494 
z
" id="DejaVuSans-74" transform="scale(0.015625)"/>
       <path d="M 3597 1894 
L 3597 1613 
L 953 1613 
Q 991 1019 1311 708 
Q 1631 397 2203 397 
Q 2534 397 2845 478 
Q 3156 559 3463 722 
L 3463 178 
Q 3153 47 2828 -22 
Q 2503 -91 2169 -91 
Q 1331 -91 842 396 
Q 353 884 353 1716 
Q 353 2575 817 3079 
Q 1281 3584 2069 3584 
Q 2775 3584 3186 3129 
Q 3597 2675 3597 1894 
z
M 3022 2063 
Q 3016 2534 2758 2815 
Q 2500 3097 2075 3097 
Q 1594 3097 1305 2825 
Q 1016 2553 972 2059 
L 3022 2063 
z
" id="DejaVuSans-65" transform="scale(0.015625)"/>
      </defs>
      <use xlink:href="#DejaVuSans-44"/>
      <use x="77.001953" xlink:href="#DejaVuSans-61"/>
      <use x="138.28125" xlink:href="#DejaVuSans-74"/>
      <use x="177.490234" xlink:href="#DejaVuSans-65"/>
     </g>
    </g>
   </g>
   <g id="matplotlib.axis_2">
    <g id="ytick_1">
     <g id="line2d_8">
      <defs>
       <path d="M 0 0 
L -3.5 0 
" id="ma7c07f03fa" style="stroke:#000000;stroke-width:0.8;"/>
      </defs>
      <g>
       <use style="stroke:#000000;stroke-width:0.8;" x="46.965625" xlink:href="#ma7c07f03fa" y="228.96"/>
      </g>
     </g>
     <g id="text_9">
      <!-- 1 -->
      <g transform="translate(33.603125 232.759219)scale(0.1 -0.1)">
       <use xlink:href="#DejaVuSans-31"/>
      </g>
     </g>
    </g>
    <g id="ytick_2">
     <g id="line2d_9">
      <g>
       <use style="stroke:#000000;stroke-width:0.8;" x="46.965625" xlink:href="#ma7c07f03fa" y="181.466429"/>
      </g>
     </g>
     <g id="text_10">
      <!-- 3 -->
      <g transform="translate(33.603125 185.265648)scale(0.1 -0.1)">
       <use xlink:href="#DejaVuSans-33"/>
      </g>
     </g>
    </g>
    <g id="ytick_3">
     <g id="line2d_10">
      <g>
       <use style="stroke:#000000;stroke-width:0.8;" x="46.965625" xlink:href="#ma7c07f03fa" y="133.972859"/>
      </g>
     </g>
     <g id="text_11">
      <!-- 10 -->
      <g transform="translate(27.240625 137.772078)scale(0.1 -0.1)">
       <use xlink:href="#DejaVuSans-31"/>
       <use x="63.623047" xlink:href="#DejaVuSans-30"/>
      </g>
     </g>
    </g>
    <g id="ytick_4">
     <g id="line2d_11">
      <g>
       <use style="stroke:#000000;stroke-width:0.8;" x="46.965625" xlink:href="#ma7c07f03fa" y="86.479288"/>
      </g>
     </g>
     <g id="text_12">
      <!-- 31 -->
      <g transform="translate(27.240625 90.278507)scale(0.1 -0.1)">
       <use xlink:href="#DejaVuSans-33"/>
       <use x="63.623047" xlink:href="#DejaVuSans-31"/>
      </g>
     </g>
    </g>
    <g id="ytick_5">
     <g id="line2d_12">
      <g>
       <use style="stroke:#000000;stroke-width:0.8;" x="46.965625" xlink:href="#ma7c07f03fa" y="38.985718"/>
      </g>
     </g>
     <g id="text_13">
      <!-- 100 -->
      <g transform="translate(20.878125 42.784937)scale(0.1 -0.1)">
       <use xlink:href="#DejaVuSans-31"/>
       <use x="63.623047" xlink:href="#DejaVuSans-30"/>
       <use x="127.246094" xlink:href="#DejaVuSans-30"/>
      </g>
     </g>
    </g>
    <g id="text_14">
     <!-- Count (7 day rolling average) -->
     <g transform="translate(14.798438 191.547969)rotate(-90)scale(0.1 -0.1)">
      <defs>
       <path d="M 4122 4306 
L 4122 3641 
Q 3803 3938 3442 4084 
Q 3081 4231 2675 4231 
Q 1875 4231 1450 3742 
Q 1025 3253 1025 2328 
Q 1025 1406 1450 917 
Q 1875 428 2675 428 
Q 3081 428 3442 575 
Q 3803 722 4122 1019 
L 4122 359 
Q 3791 134 3420 21 
Q 3050 -91 2638 -91 
Q 1578 -91 968 557 
Q 359 1206 359 2328 
Q 359 3453 968 4101 
Q 1578 4750 2638 4750 
Q 3056 4750 3426 4639 
Q 3797 4528 4122 4306 
z
" id="DejaVuSans-43" transform="scale(0.015625)"/>
       <path d="M 1959 3097 
Q 1497 3097 1228 2736 
Q 959 2375 959 1747 
Q 959 1119 1226 758 
Q 1494 397 1959 397 
Q 2419 397 2687 759 
Q 2956 1122 2956 1747 
Q 2956 2369 2687 2733 
Q 2419 3097 1959 3097 
z
M 1959 3584 
Q 2709 3584 3137 3096 
Q 3566 2609 3566 1747 
Q 3566 888 3137 398 
Q 2709 -91 1959 -91 
Q 1206 -91 779 398 
Q 353 888 353 1747 
Q 353 2609 779 3096 
Q 1206 3584 1959 3584 
z
" id="DejaVuSans-6f" transform="scale(0.015625)"/>
       <path d="M 544 1381 
L 544 3500 
L 1119 3500 
L 1119 1403 
Q 1119 906 1312 657 
Q 1506 409 1894 409 
Q 2359 409 2629 706 
Q 2900 1003 2900 1516 
L 2900 3500 
L 3475 3500 
L 3475 0 
L 2900 0 
L 2900 538 
Q 2691 219 2414 64 
Q 2138 -91 1772 -91 
Q 1169 -91 856 284 
Q 544 659 544 1381 
z
M 1991 3584 
L 1991 3584 
z
" id="DejaVuSans-75" transform="scale(0.015625)"/>
       <path d="M 3513 2113 
L 3513 0 
L 2938 0 
L 2938 2094 
Q 2938 2591 2744 2837 
Q 2550 3084 2163 3084 
Q 1697 3084 1428 2787 
Q 1159 2491 1159 1978 
L 1159 0 
L 581 0 
L 581 3500 
L 1159 3500 
L 1159 2956 
Q 1366 3272 1645 3428 
Q 1925 3584 2291 3584 
Q 2894 3584 3203 3211 
Q 3513 2838 3513 2113 
z
" id="DejaVuSans-6e" transform="scale(0.015625)"/>
       <path id="DejaVuSans-20" transform="scale(0.015625)"/>
       <path d="M 1984 4856 
Q 1566 4138 1362 3434 
Q 1159 2731 1159 2009 
Q 1159 1288 1364 580 
Q 1569 -128 1984 -844 
L 1484 -844 
Q 1016 -109 783 600 
Q 550 1309 550 2009 
Q 550 2706 781 3412 
Q 1013 4119 1484 4856 
L 1984 4856 
z
" id="DejaVuSans-28" transform="scale(0.015625)"/>
       <path d="M 2906 2969 
L 2906 4863 
L 3481 4863 
L 3481 0 
L 2906 0 
L 2906 525 
Q 2725 213 2448 61 
Q 2172 -91 1784 -91 
Q 1150 -91 751 415 
Q 353 922 353 1747 
Q 353 2572 751 3078 
Q 1150 3584 1784 3584 
Q 2172 3584 2448 3432 
Q 2725 3281 2906 2969 
z
M 947 1747 
Q 947 1113 1208 752 
Q 1469 391 1925 391 
Q 2381 391 2643 752 
Q 2906 1113 2906 1747 
Q 2906 2381 2643 2742 
Q 2381 3103 1925 3103 
Q 1469 3103 1208 2742 
Q 947 2381 947 1747 
z
" id="DejaVuSans-64" transform="scale(0.015625)"/>
       <path d="M 2059 -325 
Q 1816 -950 1584 -1140 
Q 1353 -1331 966 -1331 
L 506 -1331 
L 506 -850 
L 844 -850 
Q 1081 -850 1212 -737 
Q 1344 -625 1503 -206 
L 1606 56 
L 191 3500 
L 800 3500 
L 1894 763 
L 2988 3500 
L 3597 3500 
L 2059 -325 
z
" id="DejaVuSans-79" transform="scale(0.015625)"/>
       <path d="M 2631 2963 
Q 2534 3019 2420 3045 
Q 2306 3072 2169 3072 
Q 1681 3072 1420 2755 
Q 1159 2438 1159 1844 
L 1159 0 
L 581 0 
L 581 3500 
L 1159 3500 
L 1159 2956 
Q 1341 3275 1631 3429 
Q 1922 3584 2338 3584 
Q 2397 3584 2469 3576 
Q 2541 3569 2628 3553 
L 2631 2963 
z
" id="DejaVuSans-72" transform="scale(0.015625)"/>
       <path d="M 603 4863 
L 1178 4863 
L 1178 0 
L 603 0 
L 603 4863 
z
" id="DejaVuSans-6c" transform="scale(0.015625)"/>
       <path d="M 603 3500 
L 1178 3500 
L 1178 0 
L 603 0 
L 603 3500 
z
M 603 4863 
L 1178 4863 
L 1178 4134 
L 603 4134 
L 603 4863 
z
" id="DejaVuSans-69" transform="scale(0.015625)"/>
       <path d="M 2906 1791 
Q 2906 2416 2648 2759 
Q 2391 3103 1925 3103 
Q 1463 3103 1205 2759 
Q 947 2416 947 1791 
Q 947 1169 1205 825 
Q 1463 481 1925 481 
Q 2391 481 2648 825 
Q 2906 1169 2906 1791 
z
M 3481 434 
Q 3481 -459 3084 -895 
Q 2688 -1331 1869 -1331 
Q 1566 -1331 1297 -1286 
Q 1028 -1241 775 -1147 
L 775 -588 
Q 1028 -725 1275 -790 
Q 1522 -856 1778 -856 
Q 2344 -856 2625 -561 
Q 2906 -266 2906 331 
L 2906 616 
Q 2728 306 2450 153 
Q 2172 0 1784 0 
Q 1141 0 747 490 
Q 353 981 353 1791 
Q 353 2603 747 3093 
Q 1141 3584 1784 3584 
Q 2172 3584 2450 3431 
Q 2728 3278 2906 2969 
L 2906 3500 
L 3481 3500 
L 3481 434 
z
" id="DejaVuSans-67" transform="scale(0.015625)"/>
       <path d="M 191 3500 
L 800 3500 
L 1894 563 
L 2988 3500 
L 3597 3500 
L 2284 0 
L 1503 0 
L 191 3500 
z
" id="DejaVuSans-76" transform="scale(0.015625)"/>
       <path d="M 513 4856 
L 1013 4856 
Q 1481 4119 1714 3412 
Q 1947 2706 1947 2009 
Q 1947 1309 1714 600 
Q 1481 -109 1013 -844 
L 513 -844 
Q 928 -128 1133 580 
Q 1338 1288 1338 2009 
Q 1338 2731 1133 3434 
Q 928 4138 513 4856 
z
" id="DejaVuSans-29" transform="scale(0.015625)"/>
      </defs>
      <use xlink:href="#DejaVuSans-43"/>
      <use x="69.824219" xlink:href="#DejaVuSans-6f"/>
      <use x="131.005859" xlink:href="#DejaVuSans-75"/>
      <use x="194.384766" xlink:href="#DejaVuSans-6e"/>
      <use x="257.763672" xlink:href="#DejaVuSans-74"/>
      <use x="296.972656" xlink:href="#DejaVuSans-20"/>
      <use x="328.759766" xlink:href="#DejaVuSans-28"/>
      <use x="367.773438" xlink:href="#DejaVuSans-37"/>
      <use x="431.396484" xlink:href="#DejaVuSans-20"/>
      <use x="463.183594" xlink:href="#DejaVuSans-64"/>
      <use x="526.660156" xlink:href="#DejaVuSans-61"/>
      <use x="587.939453" xlink:href="#DejaVuSans-79"/>
      <use x="647.119141" xlink:href="#DejaVuSans-20"/>
      <use x="678.90625" xlink:href="#DejaVuSans-72"/>
      <use x="717.769531" xlink:href="#DejaVuSans-6f"/>
      <use x="778.951172" xlink:href="#DejaVuSans-6c"/>
      <use x="806.734375" xlink:href="#DejaVuSans-6c"/>
      <use x="834.517578" xlink:href="#DejaVuSans-69"/>
      <use x="862.300781" xlink:href="#DejaVuSans-6e"/>
      <use x="925.679688" xlink:href="#DejaVuSans-67"/>
      <use x="989.15625" xlink:href="#DejaVuSans-20"/>
      <use x="1020.943359" xlink:href="#DejaVuSans-61"/>
      <use x="1082.222656" xlink:href="#DejaVuSans-76"/>
      <use x="1141.402344" xlink:href="#DejaVuSans-65"/>
      <use x="1202.925781" xlink:href="#DejaVuSans-72"/>
      <use x="1244.039062" xlink:href="#DejaVuSans-61"/>
      <use x="1305.318359" xlink:href="#DejaVuSans-67"/>
      <use x="1368.794922" xlink:href="#DejaVuSans-65"/>
      <use x="1430.318359" xlink:href="#DejaVuSans-29"/>
     </g>
    </g>
   </g>
   <g id="line2d_13">
    <path clip-path="url(#pac0be985a8)" d="M 285.674072 218.592679 
L 288.438501 223.451511 
L 296.731788 223.451511 
L 299.496217 228.96 
L 365.842514 228.96 
L 368.606943 223.451511 
L 371.371372 218.592679 
L 379.664659 218.592679 
L 382.429088 214.246306 
L 385.193517 206.725105 
L 387.957946 203.423152 
L 390.722375 194.857532 
L 393.486804 192.356621 
L 396.251233 185.652327 
L 401.780091 185.652327 
L 404.54452 183.639616 
L 407.308949 174.829174 
L 410.073378 168.925922 
L 412.837807 167.573263 
L 415.602236 171.772043 
L 418.366665 170.324442 
L 421.131094 164.994149 
L 423.895523 162.566838 
L 426.659952 163.762643 
L 429.424382 170.324442 
L 432.188811 163.762643 
L 434.95324 159.174319 
L 437.717669 156.039719 
L 440.482098 156.039719 
L 443.246527 155.045637 
L 446.010956 147.853143 
L 448.775385 139.65007 
L 451.539814 124.532597 
L 454.304243 112.782384 
L 457.068672 109.399146 
L 459.833101 105.674598 
L 462.59753 104.504238 
L 465.361959 99.613366 
L 468.126388 98.851762 
L 470.890817 98.351727 
L 473.655246 103.366169 
L 476.419675 100.914811 
L 479.184104 102.808696 
L 481.948533 103.366169 
L 484.712962 99.870391 
L 490.24182 90.459438 
L 493.006249 88.261454 
L 495.770678 83.662891 
L 498.535107 80.001002 
L 501.299536 79.056249 
L 504.063965 80.001002 
L 506.828394 78.438224 
L 509.592823 76.199751 
L 512.357252 70.636828 
L 515.121681 68.053867 
L 517.886111 67.462001 
L 520.65054 67.227611 
L 523.414969 60.156833 
L 526.179398 54.808644 
L 528.943827 54.122517 
L 531.708256 52.866002 
L 534.472685 51.248054 
L 537.237114 50.696438 
L 540.001543 50.77479 
L 542.765972 47.89731 
L 545.530401 48.043855 
L 548.29483 47.533209 
L 551.059259 45.828909 
L 553.823688 45.828909 
L 556.588117 46.530498 
L 559.352546 45.344802 
L 562.116975 43.859285 
L 564.881404 43.793016 
L 567.645833 40.363921 
L 570.410262 39.459888 
L 573.174691 37.141729 
L 575.93912 36.470943 
L 578.703549 35.5932 
L 581.467978 32.257857 
L 584.232407 27.711714 
L 586.996836 27.666899 
L 589.761265 28.526826 
L 595.290123 28.894333 
L 598.054552 28.526826 
L 600.818981 28.344293 
L 603.58341 29.125699 
L 606.34784 28.986724 
L 609.112269 26.912396 
L 611.876698 25.063361 
L 614.641127 22.773245 
L 617.405556 22.377345 
L 620.169985 22.102459 
L 622.934414 19.596944 
L 625.698843 18.149343 
L 631.227701 17.76 
L 633.99213 18.32754 
L 636.756559 18.07828 
L 639.520988 18.506509 
L 642.285417 20.679159 
L 645.049846 21.79053 
L 647.814275 21.558122 
L 650.578704 23.253394 
L 653.343133 23.820725 
L 656.107562 24.728314 
L 658.871991 23.902413 
L 661.63642 22.337963 
L 664.400849 23.012621 
L 667.165278 24.478803 
L 669.929707 25.316444 
L 672.694136 24.937399 
L 675.458565 24.895497 
L 678.222994 31.464518 
L 680.987423 35.538956 
L 683.751852 37.36777 
L 686.516281 38.868022 
L 689.28071 38.926828 
L 692.045139 39.639117 
L 694.809569 40.54713 
L 697.573998 36.860908 
L 700.338427 35.214982 
L 703.102856 35.538956 
L 705.867285 36.029737 
L 708.631714 36.973007 
L 711.396143 37.595056 
L 714.160572 38.516936 
L 716.925001 39.639117 
L 719.68943 45.139054 
L 722.453859 45.898534 
L 725.218288 47.172294 
L 727.982717 49.159858 
L 730.747146 49.614852 
L 733.511575 47.970518 
L 736.276004 48.48664 
L 739.040433 46.95725 
L 741.804862 47.824233 
L 744.569291 46.743322 
L 747.33372 47.244225 
L 752.862578 49.691175 
L 755.627007 51.566607 
L 761.155865 51.010743 
L 763.920294 53.447616 
L 766.684723 53.197348 
L 769.449152 52.619227 
L 772.213581 52.94859 
L 774.97801 55.330833 
L 777.742439 54.722251 
L 780.506868 56.756543 
L 783.271298 58.610895 
L 786.035727 60.255405 
L 788.800156 59.862523 
L 791.564585 60.652066 
L 794.329014 64.404869 
L 797.093443 72.586122 
L 799.857872 75.91026 
L 805.38673 79.842033 
L 808.151159 84.542506 
L 810.915588 85.806354 
L 813.680017 90.459438 
L 816.444446 88.067325 
L 819.208875 86.921351 
L 821.973304 86.174681 
L 824.737733 88.261454 
L 827.502162 88.652475 
L 833.03102 87.490359 
L 835.795449 98.103964 
L 838.559878 105.674598 
L 841.324307 110.719335 
L 844.088736 113.49365 
L 846.853165 114.954064 
L 849.617594 117.641216 
L 852.382023 118.84869 
L 855.146452 114.954064 
L 857.910881 113.853935 
L 860.67531 111.737964 
L 863.439739 111.056091 
L 866.204168 109.075596 
L 868.968598 109.399146 
L 871.733027 113.136484 
L 874.497456 119.673765 
L 877.261885 123.149706 
L 882.790743 126.945705 
L 885.555172 128.983274 
L 888.319601 127.951911 
L 891.08403 123.605538 
L 893.848459 113.853935 
L 896.612888 101.986362 
L 899.377317 100.389296 
L 902.141746 95.241378 
L 904.906175 93.437708 
L 907.670604 92.134892 
L 910.435033 92.998848 
L 913.199462 91.709606 
L 915.963891 88.261454 
L 918.72832 84.012489 
L 921.492749 85.806354 
L 924.257178 58.045785 
L 927.021607 55.418511 
L 929.786036 50.931942 
L 932.550465 49.920994 
L 935.314894 52.292474 
L 938.079323 52.292474 
L 940.843752 50.77479 
L 943.608181 71.92607 
L 946.37261 76.491289 
L 949.137039 83.662891 
L 951.901468 86.733413 
L 954.665897 90.871965 
L 957.430327 98.600986 
L 960.194756 104.79373 
L 962.959185 110.053959 
L 965.723614 104.79373 
L 968.488043 96.886991 
L 971.252472 99.613366 
L 974.016901 99.613366 
L 976.78133 95.011559 
L 979.545759 92.134892 
L 982.310188 91.498596 
L 985.074617 96.173675 
L 987.839046 110.385306 
L 990.603475 114.217395 
L 993.367904 113.49365 
L 996.132333 122.252879 
L 998.896762 136.40017 
L 1001.661191 138.979284 
L 1004.42562 140.331943 
L 1007.190049 143.178064 
L 1012.718907 156.039719 
L 1015.483336 156.039719 
L 1018.247765 157.058348 
L 1021.012194 160.274448 
L 1023.776623 161.404722 
L 1026.541052 166.263553 
L 1029.305481 176.447122 
L 1032.06991 178.131127 
L 1034.834339 183.639616 
L 1037.598768 185.652327 
L 1043.127626 185.652327 
L 1045.892056 189.9987 
L 1048.656485 189.9987 
L 1051.420914 203.423152 
L 1054.185343 206.725105 
L 1056.949772 214.246306 
L 1059.714201 218.592679 
L 1062.47863 214.246306 
L 1076.300775 214.246306 
L 1079.065204 210.314533 
L 1081.829633 214.246306 
L 1087.358491 214.246306 
L 1090.12292 206.725105 
L 1092.887349 206.725105 
L 1095.651778 200.366021 
L 1098.416207 203.423152 
L 1101.180636 203.423152 
L 1103.945065 200.366021 
L 1103.945065 200.366021 
" style="fill:none;stroke:#947383;stroke-linecap:square;stroke-width:2;"/>
   </g>
   <g id="line2d_14">
    <path clip-path="url(#pac0be985a8)" d="M 418.366665 210.314533 
L 421.131094 214.246306 
L 423.895523 214.246306 
L 426.659952 206.725105 
L 429.424382 214.246306 
L 432.188811 203.423152 
L 434.95324 206.725105 
L 437.717669 200.366021 
L 440.482098 197.5199 
L 443.246527 197.5199 
L 446.010956 200.366021 
L 448.775385 194.857532 
L 451.539814 203.423152 
L 454.304243 197.5199 
L 457.068672 197.5199 
L 459.833101 200.366021 
L 462.59753 194.857532 
L 465.361959 194.857532 
L 468.126388 200.366021 
L 470.890817 200.366021 
L 473.655246 206.725105 
L 476.419675 210.314533 
L 479.184104 210.314533 
L 481.948533 214.246306 
L 484.712962 214.246306 
L 487.477391 206.725105 
L 490.24182 203.423152 
L 493.006249 200.366021 
L 495.770678 203.423152 
L 498.535107 203.423152 
L 501.299536 206.725105 
L 504.063965 210.314533 
L 506.828394 218.592679 
L 509.592823 218.592679 
L 512.357252 223.451511 
L 515.121681 218.592679 
L 517.886111 218.592679 
L 520.65054 214.246306 
L 531.708256 214.246306 
L 534.472685 218.592679 
L 537.237114 218.592679 
L 540.001543 223.451511 
L 545.530401 223.451511 
L 548.29483 228.96 
L 553.823688 228.96 
L 556.588117 223.451511 
L 559.352546 223.451511 
L 562.116975 218.592679 
L 573.174691 218.592679 
L 575.93912 223.451511 
L 578.703549 223.451511 
L 581.467978 228.96 
L 584.232407 223.451511 
L 586.996836 214.246306 
L 592.525694 214.246306 
L 595.290123 206.725105 
L 598.054552 206.725105 
L 600.818981 203.423152 
L 603.58341 200.366021 
L 606.34784 206.725105 
L 611.876698 206.725105 
L 614.641127 214.246306 
L 620.169985 214.246306 
L 622.934414 223.451511 
L 625.698843 223.451511 
L 628.463272 218.592679 
L 631.227701 210.314533 
L 636.756559 210.314533 
L 639.520988 214.246306 
L 642.285417 210.314533 
L 645.049846 206.725105 
L 647.814275 210.314533 
L 650.578704 214.246306 
L 653.343133 210.314533 
L 658.871991 210.314533 
L 661.63642 214.246306 
L 664.400849 218.592679 
L 667.165278 218.592679 
L 669.929707 223.451511 
L 672.694136 228.96 
L 675.458565 223.451511 
L 678.222994 218.592679 
L 680.987423 214.246306 
L 686.516281 214.246306 
L 689.28071 210.314533 
L 692.045139 206.725105 
L 694.809569 206.725105 
L 697.573998 210.314533 
L 705.867285 210.314533 
L 708.631714 214.246306 
L 719.68943 214.246306 
L 722.453859 210.314533 
L 725.218288 210.314533 
L 727.982717 203.423152 
L 730.747146 206.725105 
L 733.511575 206.725105 
L 736.276004 203.423152 
L 744.569291 203.423152 
L 747.33372 210.314533 
L 750.098149 206.725105 
L 752.862578 210.314533 
L 755.627007 214.246306 
L 758.391436 218.592679 
L 761.155865 223.451511 
L 766.684723 223.451511 
L 769.449152 228.96 
L 772.213581 228.96 
L 774.97801 218.592679 
L 791.564585 218.592679 
L 794.329014 223.451511 
L 797.093443 218.592679 
L 799.857872 218.592679 
L 802.622301 214.246306 
L 808.151159 214.246306 
L 810.915588 210.314533 
L 813.680017 214.246306 
L 816.444446 218.592679 
L 819.208875 218.592679 
L 821.973304 223.451511 
L 824.737733 218.592679 
L 827.502162 218.592679 
L 830.266591 223.451511 
L 841.324307 223.451511 
L 844.088736 228.96 
L 846.853165 223.451511 
L 849.617594 223.451511 
L 852.382023 218.592679 
L 855.146452 210.314533 
L 857.910881 210.314533 
L 860.67531 206.725105 
L 866.204168 206.725105 
L 868.968598 203.423152 
L 871.733027 206.725105 
L 874.497456 210.314533 
L 877.261885 203.423152 
L 882.790743 203.423152 
L 885.555172 206.725105 
L 888.319601 210.314533 
L 891.08403 210.314533 
L 893.848459 214.246306 
L 896.612888 223.451511 
L 899.377317 223.451511 
L 902.141746 218.592679 
L 904.906175 218.592679 
L 907.670604 214.246306 
L 910.435033 203.423152 
L 913.199462 203.423152 
L 915.963891 200.366021 
L 915.963891 200.366021 
" style="fill:none;stroke:#96c6ad;stroke-linecap:square;stroke-width:2;"/>
   </g>
   <g id="line2d_15">
    <path clip-path="url(#pac0be985a8)" d="M 266.323069 223.451511 
L 269.087498 228.96 
L 374.135801 228.96 
L 376.90023 223.451511 
L 379.664659 223.451511 
L 382.429088 218.592679 
L 393.486804 218.592679 
L 396.251233 223.451511 
L 399.015662 223.451511 
L 401.780091 218.592679 
L 404.54452 203.423152 
L 407.308949 200.366021 
L 410.073378 187.768298 
L 412.837807 183.639616 
L 415.602236 178.131127 
L 418.366665 174.829174 
L 423.895523 178.131127 
L 426.659952 174.829174 
L 429.424382 181.720554 
L 432.188811 185.652327 
L 434.95324 173.272295 
L 437.717669 168.925922 
L 440.482098 168.925922 
L 443.246527 173.272295 
L 446.010956 170.324442 
L 448.775385 170.324442 
L 451.539814 156.039719 
L 454.304243 167.573263 
L 457.068672 166.263553 
L 459.833101 163.762643 
L 462.59753 162.566838 
L 465.361959 167.573263 
L 468.126388 164.994149 
L 470.890817 171.772043 
L 473.655246 170.324442 
L 476.419675 176.447122 
L 479.184104 181.720554 
L 481.948533 183.639616 
L 484.712962 179.886813 
L 487.477391 174.829174 
L 490.24182 178.131127 
L 495.770678 152.199516 
L 501.299536 148.686553 
L 504.063965 141.730463 
L 506.828394 121.375136 
L 509.592823 120.943169 
L 512.357252 124.532597 
L 515.121681 129.50879 
L 517.886111 127.951911 
L 520.65054 123.149706 
L 523.414969 118.84869 
L 526.179398 139.65007 
L 528.943827 138.979284 
L 531.708256 125.963459 
L 534.472685 124.532597 
L 537.237114 125.963459 
L 540.001543 131.126738 
L 542.765972 133.387709 
L 545.530401 129.50879 
L 548.29483 127.44574 
L 551.059259 137.02999 
L 553.823688 136.40017 
L 556.588117 133.387709 
L 559.352546 124.532597 
L 562.116975 119.259165 
L 564.881404 116.084338 
L 567.645833 113.136484 
L 570.410262 109.399146 
L 573.174691 104.79373 
L 575.93912 104.216764 
L 578.703549 107.806192 
L 581.467978 111.056091 
L 584.232407 111.056091 
L 586.996836 102.532759 
L 589.761265 101.447107 
L 592.525694 101.447107 
L 595.290123 97.612858 
L 598.054552 98.103964 
L 600.818981 91.079786 
L 603.58341 85.623416 
L 606.34784 86.733413 
L 609.112269 84.012489 
L 611.876698 78.132649 
L 614.641127 76.054752 
L 617.405556 73.801501 
L 620.169985 76.345263 
L 622.934414 74.492512 
L 625.698843 77.528208 
L 628.463272 74.353381 
L 631.227701 75.053778 
L 633.99213 75.337301 
L 636.756559 74.492512 
L 639.520988 68.293012 
L 642.285417 65.623149 
L 645.049846 59.667475 
L 647.814275 59.667475 
L 650.578704 62.694681 
L 653.343133 64.733576 
L 656.107562 66.303149 
L 658.871991 66.41758 
L 661.63642 65.961748 
L 664.400849 69.141109 
L 667.165278 71.92607 
L 669.929707 70.891473 
L 672.694136 65.287307 
L 675.458565 61.153316 
L 678.222994 63.43418 
L 680.987423 71.019387 
L 683.751852 75.622786 
L 686.516281 77.980707 
L 689.28071 80.805167 
L 694.809569 97.85768 
L 697.573998 105.97245 
L 700.338427 103.647757 
L 703.102856 101.986362 
L 705.867285 101.180101 
L 708.631714 102.808696 
L 711.396143 96.647846 
L 714.160572 96.410079 
L 716.925001 98.351727 
L 719.68943 101.447107 
L 722.453859 103.086491 
L 725.218288 104.504238 
L 727.982717 98.600986 
L 730.747146 102.258656 
L 733.511575 98.103964 
L 736.276004 90.871965 
L 739.040433 84.720702 
L 741.804862 82.631527 
L 747.33372 84.720702 
L 750.098149 87.681786 
L 752.862578 89.646557 
L 755.627007 94.104877 
L 758.391436 101.180101 
L 761.155865 100.129028 
L 763.920294 99.870391 
L 766.684723 102.532759 
L 769.449152 100.389296 
L 772.213581 102.808696 
L 777.742439 115.704129 
L 780.506868 123.605538 
L 783.271298 124.532597 
L 786.035727 128.983274 
L 788.800156 136.40017 
L 794.329014 135.168664 
L 797.093443 127.44574 
L 799.857872 127.951911 
L 802.622301 128.983274 
L 805.38673 130.580341 
L 808.151159 131.126738 
L 810.915588 137.02999 
L 813.680017 138.319232 
L 816.444446 145.449411 
L 819.208875 149.537148 
L 821.973304 151.292834 
L 824.737733 147.853143 
L 827.502162 147.036238 
L 830.266591 147.853143 
L 833.03102 150.405652 
L 835.795449 143.92137 
L 838.559878 148.686553 
L 841.324307 147.853143 
L 844.088736 150.405652 
L 846.853165 147.853143 
L 849.617594 149.537148 
L 852.382023 148.686553 
L 855.146452 157.058348 
L 857.910881 157.058348 
L 860.67531 164.994149 
L 863.439739 167.573263 
L 866.204168 179.886813 
L 868.968598 174.829174 
L 871.733027 181.720554 
L 874.497456 178.131127 
L 877.261885 156.039719 
L 880.026314 158.102768 
L 882.790743 147.036238 
L 888.319601 147.036238 
L 891.08403 143.92137 
L 893.848459 146.235195 
L 896.612888 161.404722 
L 899.377317 161.404722 
L 902.141746 174.829174 
L 904.906175 171.772043 
L 907.670604 167.573263 
L 910.435033 176.447122 
L 913.199462 179.886813 
L 918.72832 179.886813 
L 924.257178 183.639616 
L 927.021607 197.5199 
L 929.786036 197.5199 
L 932.550465 200.366021 
L 935.314894 203.423152 
L 938.079323 203.423152 
L 940.843752 206.725105 
L 943.608181 203.423152 
L 951.901468 203.423152 
L 954.665897 206.725105 
L 957.430327 206.725105 
L 960.194756 210.314533 
L 962.959185 218.592679 
L 965.723614 218.592679 
L 968.488043 210.314533 
L 971.252472 214.246306 
L 974.016901 203.423152 
L 976.78133 197.5199 
L 979.545759 194.857532 
L 987.839046 194.857532 
L 990.603475 192.356621 
L 993.367904 185.652327 
L 996.132333 183.639616 
L 998.896762 154.074948 
L 1001.661191 151.292834 
L 1004.42562 151.292834 
L 1007.190049 153.126575 
L 1009.954478 154.074948 
L 1012.718907 160.274448 
L 1015.483336 158.102768 
L 1018.247765 194.857532 
L 1021.012194 200.366021 
L 1032.06991 200.366021 
L 1034.834339 223.451511 
L 1037.598768 223.451511 
L 1040.363197 228.96 
L 1045.892056 228.96 
L 1048.656485 223.451511 
L 1065.243059 223.451511 
L 1068.007488 228.96 
L 1095.651778 228.96 
L 1098.416207 223.451511 
L 1101.180636 218.592679 
L 1101.180636 218.592679 
" style="fill:none;stroke:#525886;stroke-linecap:square;stroke-width:2;"/>
   </g>
   <g id="line2d_16">
    <path clip-path="url(#pac0be985a8)" d="M 374.135801 189.9987 
L 376.90023 187.768298 
L 379.664659 183.639616 
L 382.429088 185.652327 
L 385.193517 185.652327 
L 387.957946 187.768298 
L 390.722375 185.652327 
L 393.486804 189.9987 
L 396.251233 187.768298 
L 399.015662 192.356621 
L 401.780091 183.639616 
L 404.54452 179.886813 
L 407.308949 171.772043 
L 410.073378 167.573263 
L 412.837807 168.925922 
L 415.602236 168.925922 
L 418.366665 161.404722 
L 421.131094 164.994149 
L 423.895523 163.762643 
L 429.424382 163.762643 
L 432.188811 162.566838 
L 434.95324 164.994149 
L 437.717669 167.573263 
L 440.482098 167.573263 
L 443.246527 170.324442 
L 446.010956 168.925922 
L 448.775385 168.925922 
L 451.539814 161.404722 
L 454.304243 157.058348 
L 457.068672 156.039719 
L 462.59753 152.199516 
L 468.126388 152.199516 
L 470.890817 155.045637 
L 476.419675 159.174319 
L 479.184104 159.174319 
L 481.948533 160.274448 
L 484.712962 167.573263 
L 487.477391 167.573263 
L 490.24182 168.925922 
L 493.006249 167.573263 
L 495.770678 164.994149 
L 498.535107 170.324442 
L 501.299536 171.772043 
L 504.063965 167.573263 
L 506.828394 176.447122 
L 509.592823 173.272295 
L 512.357252 176.447122 
L 515.121681 179.886813 
L 517.886111 179.886813 
L 520.65054 174.829174 
L 523.414969 171.772043 
L 526.179398 167.573263 
L 528.943827 166.263553 
L 531.708256 163.762643 
L 534.472685 164.994149 
L 537.237114 163.762643 
L 540.001543 166.263553 
L 545.530401 168.925922 
L 548.29483 171.772043 
L 551.059259 176.447122 
L 553.823688 176.447122 
L 556.588117 178.131127 
L 559.352546 176.447122 
L 562.116975 183.639616 
L 564.881404 179.886813 
L 567.645833 174.829174 
L 570.410262 173.272295 
L 573.174691 168.925922 
L 575.93912 166.263553 
L 578.703549 168.925922 
L 581.467978 161.404722 
L 584.232407 162.566838 
L 586.996836 154.074948 
L 589.761265 150.405652 
L 592.525694 154.074948 
L 598.054552 152.199516 
L 600.818981 158.102768 
L 603.58341 159.174319 
L 606.34784 174.829174 
L 609.112269 170.324442 
L 611.876698 164.994149 
L 614.641127 161.404722 
L 617.405556 157.058348 
L 620.169985 145.449411 
L 622.934414 145.449411 
L 625.698843 142.447914 
L 628.463272 144.678316 
L 631.227701 145.449411 
L 633.99213 139.65007 
L 636.756559 140.331943 
L 639.520988 143.178064 
L 642.285417 141.730463 
L 645.049846 138.319232 
L 647.814275 137.02999 
L 650.578704 136.40017 
L 653.343133 144.678316 
L 656.107562 143.92137 
L 658.871991 146.235195 
L 661.63642 145.449411 
L 664.400849 153.126575 
L 667.165278 157.058348 
L 669.929707 157.058348 
L 672.694136 150.405652 
L 675.458565 149.537148 
L 678.222994 154.074948 
L 680.987423 156.039719 
L 683.751852 144.678316 
L 686.516281 142.447914 
L 689.28071 141.730463 
L 692.045139 143.92137 
L 694.809569 149.537148 
L 697.573998 148.686553 
L 700.338427 145.449411 
L 703.102856 154.074948 
L 705.867285 160.274448 
L 708.631714 154.074948 
L 711.396143 156.039719 
L 714.160572 149.537148 
L 716.925001 150.405652 
L 722.453859 154.074948 
L 725.218288 154.074948 
L 727.982717 162.566838 
L 730.747146 163.762643 
L 733.511575 171.772043 
L 736.276004 166.263553 
L 739.040433 158.102768 
L 741.804862 160.274448 
L 744.569291 155.045637 
L 750.098149 159.174319 
L 752.862578 155.045637 
L 755.627007 157.058348 
L 758.391436 167.573263 
L 761.155865 163.762643 
L 763.920294 166.263553 
L 766.684723 166.263553 
L 769.449152 158.102768 
L 774.97801 162.566838 
L 777.742439 162.566838 
L 780.506868 164.994149 
L 783.271298 168.925922 
L 786.035727 171.772043 
L 788.800156 185.652327 
L 791.564585 192.356621 
L 794.329014 194.857532 
L 797.093443 203.423152 
L 799.857872 210.314533 
L 802.622301 214.246306 
L 805.38673 218.592679 
L 808.151159 214.246306 
L 810.915588 210.314533 
L 813.680017 206.725105 
L 816.444446 192.356621 
L 819.208875 194.857532 
L 821.973304 192.356621 
L 827.502162 192.356621 
L 830.266591 194.857532 
L 833.03102 197.5199 
L 835.795449 210.314533 
L 838.559878 203.423152 
L 841.324307 203.423152 
L 844.088736 197.5199 
L 846.853165 194.857532 
L 852.382023 189.9987 
L 855.146452 187.768298 
L 857.910881 187.768298 
L 860.67531 185.652327 
L 863.439739 187.768298 
L 866.204168 192.356621 
L 868.968598 194.857532 
L 871.733027 200.366021 
L 874.497456 206.725105 
L 877.261885 214.246306 
L 880.026314 223.451511 
L 882.790743 228.96 
L 891.08403 228.96 
L 893.848459 218.592679 
L 896.612888 214.246306 
L 899.377317 210.314533 
L 910.435033 210.314533 
L 913.199462 218.592679 
L 915.963891 223.451511 
L 918.72832 228.96 
L 949.137039 228.96 
L 951.901468 218.592679 
L 968.488043 218.592679 
L 971.252472 228.96 
L 974.016901 228.96 
L 976.78133 223.451511 
L 979.545759 218.592679 
L 987.839046 218.592679 
L 990.603475 214.246306 
L 993.367904 214.246306 
L 996.132333 218.592679 
L 1009.954478 218.592679 
L 1012.718907 214.246306 
L 1015.483336 214.246306 
L 1018.247765 218.592679 
L 1029.305481 218.592679 
L 1032.06991 223.451511 
L 1045.892056 223.451511 
L 1048.656485 228.96 
L 1109.473923 228.96 
L 1112.238352 223.451511 
L 1112.238352 223.451511 
" style="fill:none;stroke:#937252;stroke-linecap:square;stroke-width:2;"/>
   </g>
   <g id="line2d_17">
    <path clip-path="url(#pac0be985a8)" d="M 97.692898 197.5199 
L 100.457327 194.857532 
L 103.221756 189.9987 
L 105.986185 183.639616 
L 108.750614 179.886813 
L 111.515043 178.131127 
L 114.279472 178.131127 
L 117.043901 176.447122 
L 119.80833 170.324442 
L 122.572759 166.263553 
L 125.337188 164.994149 
L 128.101617 160.274448 
L 130.866046 159.174319 
L 133.630475 159.174319 
L 136.394904 156.039719 
L 139.159333 160.274448 
L 141.923762 162.566838 
L 144.688191 168.925922 
L 147.45262 174.829174 
L 150.217049 173.272295 
L 152.981478 173.272295 
L 155.745907 170.324442 
L 158.510336 162.566838 
L 161.274765 163.762643 
L 164.039194 161.404722 
L 166.803624 162.566838 
L 169.568053 166.263553 
L 172.332482 164.994149 
L 175.096911 171.772043 
L 177.86134 185.652327 
L 180.625769 189.9987 
L 183.390198 187.768298 
L 186.154627 192.356621 
L 188.919056 185.652327 
L 191.683485 187.768298 
L 194.447914 185.652327 
L 197.212343 181.720554 
L 199.976772 176.447122 
L 202.741201 174.829174 
L 205.50563 178.131127 
L 208.270059 183.639616 
L 211.034488 179.886813 
L 213.798917 179.886813 
L 216.563346 176.447122 
L 219.327775 170.324442 
L 222.092204 160.274448 
L 224.856633 146.235195 
L 227.621062 143.92137 
L 230.385491 145.449411 
L 233.14992 139.65007 
L 235.914349 137.02999 
L 238.678778 133.387709 
L 241.443207 132.810743 
L 244.207636 137.669575 
L 246.972065 136.40017 
L 249.736494 135.779822 
L 252.500923 126.451659 
L 255.265353 124.532597 
L 258.029782 122.252879 
L 260.794211 120.943169 
L 263.55864 116.855433 
L 269.087498 116.855433 
L 271.851927 128.983274 
L 274.616356 133.387709 
L 277.380785 135.168664 
L 280.145214 128.983274 
L 282.909643 126.451659 
L 285.674072 128.983274 
L 288.438501 127.44574 
L 291.20293 124.532597 
L 293.967359 123.605538 
L 296.731788 117.246454 
L 299.496217 113.136484 
L 302.260646 110.053959 
L 305.025075 108.436011 
L 307.789504 109.075596 
L 310.553933 102.808696 
L 313.318362 89.246045 
L 316.082791 89.445815 
L 318.84722 95.241378 
L 321.611649 100.389296 
L 324.376078 100.389296 
L 327.140507 99.613366 
L 329.904936 99.613366 
L 332.669365 107.494851 
L 335.433794 110.053959 
L 338.198223 106.879133 
L 340.962652 103.086491 
L 343.727082 100.651217 
L 346.491511 96.886991 
L 349.25594 91.921701 
L 352.020369 94.555727 
L 354.784798 90.665186 
L 357.549227 88.849384 
L 360.313656 89.246045 
L 363.078085 90.050995 
L 365.842514 92.781157 
L 368.606943 92.564608 
L 371.371372 84.542506 
L 374.135801 89.047238 
L 376.90023 87.11015 
L 379.664659 80.967899 
L 382.429088 81.625321 
L 385.193517 80.643075 
L 387.957946 76.491289 
L 390.722375 78.132649 
L 393.486804 73.938781 
L 396.251233 73.392383 
L 399.015662 78.438224 
L 401.780091 76.345263 
L 404.54452 74.912744 
L 407.308949 72.987283 
L 410.073378 67.462001 
L 412.837807 65.510898 
L 415.602236 65.175965 
L 418.366665 65.848573 
L 421.131094 63.43418 
L 423.895523 63.540913 
L 426.659952 56.037529 
L 429.424382 54.378479 
L 432.188811 51.327462 
L 434.95324 51.327462 
L 437.717669 47.824233 
L 440.482098 49.009302 
L 443.246527 48.117324 
L 446.010956 52.455527 
L 448.775385 55.506375 
L 451.539814 59.570297 
L 454.304243 59.960393 
L 457.068672 62.485808 
L 459.833101 62.590112 
L 462.59753 65.175965 
L 465.361959 72.453264 
L 468.126388 78.591864 
L 470.890817 83.489196 
L 473.655246 79.525921 
L 476.419675 74.632114 
L 479.184104 75.622786 
L 481.948533 71.1477 
L 484.712962 68.897011 
L 487.477391 67.462001 
L 490.24182 64.954177 
L 493.006249 68.053867 
L 495.770678 73.528306 
L 498.535107 72.987283 
L 501.299536 77.67849 
L 504.063965 79.056249 
L 506.828394 77.980707 
L 509.592823 80.160585 
L 512.357252 83.662891 
L 515.121681 80.967899 
L 517.886111 83.489196 
L 520.65054 84.188406 
L 523.414969 90.050995 
L 526.179398 95.241378 
L 528.943827 97.36948 
L 531.708256 94.555727 
L 534.472685 100.129028 
L 537.237114 96.410079 
L 540.001543 93.658901 
L 542.765972 91.921701 
L 545.530401 90.459438 
L 548.29483 85.990107 
L 551.059259 85.079421 
L 553.823688 84.012489 
L 556.588117 85.441286 
L 559.352546 86.360086 
L 564.881404 90.871965 
L 567.645833 93.881286 
L 570.410262 98.351727 
L 573.174691 99.357932 
L 575.93912 99.870391 
L 578.703549 100.651217 
L 581.467978 97.85768 
L 584.232407 97.85768 
L 586.996836 101.986362 
L 589.761265 101.180101 
L 592.525694 103.366169 
L 595.290123 102.532759 
L 598.054552 103.086491 
L 600.818981 102.532759 
L 603.58341 102.532759 
L 606.34784 95.704893 
L 609.112269 88.456501 
L 611.876698 84.542506 
L 614.641127 85.441286 
L 617.405556 85.259957 
L 620.169985 86.921351 
L 622.934414 85.623416 
L 625.698843 87.299816 
L 628.463272 90.871965 
L 631.227701 92.349191 
L 633.99213 91.921701 
L 636.756559 92.134892 
L 639.520988 94.329686 
L 642.285417 92.998848 
L 645.049846 95.472484 
L 647.814275 99.104071 
L 650.578704 101.180101 
L 653.343133 102.808696 
L 656.107562 102.532759 
L 658.871991 98.851762 
L 661.63642 100.651217 
L 664.400849 95.011559 
L 667.165278 96.173675 
L 669.929707 96.647846 
L 672.694136 95.472484 
L 675.458565 96.173675 
L 678.222994 103.931279 
L 680.987423 106.879133 
L 683.751852 114.217395 
L 686.516281 110.719335 
L 689.28071 109.075596 
L 692.045139 105.97245 
L 694.809569 101.986362 
L 697.573998 97.612858 
L 700.338427 94.329686 
L 703.102856 94.104877 
L 705.867285 97.12753 
L 708.631714 98.351727 
L 714.160572 102.532759 
L 716.925001 103.647757 
L 719.68943 104.504238 
L 722.453859 103.086491 
L 725.218288 98.851762 
L 727.982717 94.329686 
L 730.747146 93.437708 
L 733.511575 92.998848 
L 736.276004 89.646557 
L 739.040433 90.459438 
L 741.804862 90.871965 
L 744.569291 95.011559 
L 747.33372 96.886991 
L 752.862578 96.886991 
L 755.627007 94.555727 
L 758.391436 91.498596 
L 761.155865 90.254711 
L 763.920294 85.623416 
L 766.684723 86.733413 
L 769.449152 85.806354 
L 772.213581 85.623416 
L 774.97801 89.246045 
L 777.742439 94.104877 
L 780.506868 92.781157 
L 783.271298 95.011559 
L 786.035727 95.472484 
L 788.800156 99.357932 
L 791.564585 102.258656 
L 794.329014 97.36948 
L 797.093443 95.938618 
L 799.857872 96.647846 
L 802.622301 94.329686 
L 808.151159 95.704893 
L 810.915588 94.555727 
L 813.680017 97.612858 
L 816.444446 92.998848 
L 819.208875 98.600986 
L 821.973304 97.12753 
L 824.737733 92.781157 
L 827.502162 90.459438 
L 830.266591 90.050995 
L 833.03102 85.806354 
L 835.795449 85.623416 
L 838.559878 79.525921 
L 841.324307 79.368769 
L 844.088736 77.829322 
L 846.853165 75.337301 
L 849.617594 73.528306 
L 852.382023 76.054752 
L 855.146452 72.987283 
L 857.910881 76.054752 
L 860.67531 80.967899 
L 863.439739 86.174681 
L 866.204168 89.646557 
L 868.968598 91.921701 
L 871.733027 94.555727 
L 874.497456 105.085268 
L 877.261885 106.272469 
L 880.026314 100.914811 
L 882.790743 99.357932 
L 885.555172 99.870391 
L 888.319601 102.258656 
L 891.08403 103.086491 
L 893.848459 101.986362 
L 896.612888 102.258656 
L 899.377317 105.97245 
L 902.141746 105.37888 
L 904.906175 106.272469 
L 907.670604 104.504238 
L 910.435033 103.647757 
L 913.199462 101.180101 
L 915.963891 103.366169 
L 918.72832 103.086491 
L 921.492749 107.806192 
L 924.257178 108.754564 
L 927.021607 111.056091 
L 929.786036 118.039793 
L 932.550465 120.51568 
L 935.314894 124.066463 
L 938.079323 125.004058 
L 940.843752 122.252879 
L 943.608181 122.252879 
L 946.37261 120.092575 
L 949.137039 116.084338 
L 951.901468 123.605538 
L 954.665897 124.532597 
L 957.430327 130.580341 
L 960.194756 137.669575 
L 962.959185 141.025277 
L 965.723614 147.036238 
L 968.488043 159.174319 
L 971.252472 153.126575 
L 974.016901 158.102768 
L 976.78133 158.102768 
L 979.545759 159.174319 
L 985.074617 159.174319 
L 987.839046 156.039719 
L 990.603475 185.652327 
L 993.367904 178.131127 
L 998.896762 181.720554 
L 1004.42562 181.720554 
L 1007.190049 187.768298 
L 1009.954478 151.292834 
L 1012.718907 152.199516 
L 1023.776623 152.199516 
L 1026.541052 151.292834 
L 1029.305481 181.720554 
L 1032.06991 187.768298 
L 1034.834339 189.9987 
L 1043.127626 189.9987 
L 1045.892056 197.5199 
L 1048.656485 183.639616 
L 1065.243059 183.639616 
L 1068.007488 203.423152 
L 1073.536346 203.423152 
L 1076.300775 200.366021 
L 1076.300775 200.366021 
" style="fill:none;stroke:#d18cad;stroke-linecap:square;stroke-width:2;"/>
   </g>
   <g id="line2d_18">
    <path clip-path="url(#pac0be985a8)" d="M 399.015662 200.366021 
L 401.780091 203.423152 
L 404.54452 203.423152 
L 407.308949 206.725105 
L 410.073378 210.314533 
L 412.837807 210.314533 
L 415.602236 218.592679 
L 418.366665 214.246306 
L 421.131094 210.314533 
L 423.895523 206.725105 
L 426.659952 210.314533 
L 429.424382 210.314533 
L 432.188811 197.5199 
L 434.95324 194.857532 
L 437.717669 179.886813 
L 440.482098 173.272295 
L 443.246527 170.324442 
L 446.010956 168.925922 
L 448.775385 164.994149 
L 451.539814 159.174319 
L 454.304243 154.074948 
L 457.068672 159.174319 
L 459.833101 162.566838 
L 462.59753 166.263553 
L 465.361959 167.573263 
L 470.890817 167.573263 
L 473.655246 171.772043 
L 476.419675 176.447122 
L 479.184104 179.886813 
L 481.948533 178.131127 
L 484.712962 170.324442 
L 487.477391 166.263553 
L 490.24182 171.772043 
L 493.006249 173.272295 
L 495.770678 168.925922 
L 498.535107 163.762643 
L 501.299536 164.994149 
L 504.063965 162.566838 
L 506.828394 162.566838 
L 512.357252 160.274448 
L 515.121681 161.404722 
L 517.886111 164.994149 
L 520.65054 161.404722 
L 523.414969 162.566838 
L 526.179398 162.566838 
L 528.943827 159.174319 
L 531.708256 149.537148 
L 534.472685 138.319232 
L 537.237114 135.168664 
L 540.001543 135.168664 
L 542.765972 135.779822 
L 545.530401 131.126738 
L 548.29483 133.387709 
L 553.823688 144.678316 
L 556.588117 143.92137 
L 559.352546 141.025277 
L 562.116975 132.810743 
L 564.881404 133.972859 
L 567.645833 133.387709 
L 570.410262 128.983274 
L 573.174691 126.945705 
L 578.703549 125.963459 
L 581.467978 126.945705 
L 584.232407 126.451659 
L 586.996836 124.532597 
L 589.761265 125.963459 
L 592.525694 127.951911 
L 595.290123 126.451659 
L 598.054552 125.480969 
L 600.818981 122.252879 
L 603.58341 118.039793 
L 606.34784 117.246454 
L 609.112269 114.584085 
L 611.876698 112.431298 
L 614.641127 111.056091 
L 617.405556 112.083175 
L 620.169985 114.217395 
L 622.934414 113.49365 
L 625.698843 110.385306 
L 631.227701 101.447107 
L 633.99213 99.613366 
L 636.756559 96.647846 
L 639.520988 92.564608 
L 642.285417 92.781157 
L 645.049846 89.84828 
L 647.814275 90.459438 
L 650.578704 89.646557 
L 653.343133 88.067325 
L 656.107562 86.733413 
L 658.871991 82.631527 
L 661.63642 79.842033 
L 664.400849 78.132649 
L 667.165278 74.492512 
L 669.929707 74.214717 
L 672.694136 72.987283 
L 675.458565 74.772191 
L 678.222994 76.345263 
L 680.987423 76.345263 
L 683.751852 73.256907 
L 686.516281 72.188825 
L 689.28071 71.276412 
L 692.045139 70.132205 
L 694.809569 66.41758 
L 697.573998 64.623716 
L 700.338427 63.97063 
L 703.102856 65.623149 
L 705.867285 65.961748 
L 708.631714 66.647399 
L 711.396143 66.762791 
L 714.160572 70.007008 
L 716.925001 70.763954 
L 719.68943 70.132205 
L 722.453859 69.757748 
L 725.218288 72.057238 
L 727.982717 72.320832 
L 730.747146 76.637834 
L 733.511575 74.632114 
L 736.276004 75.053778 
L 739.040433 75.91026 
L 741.804862 77.67849 
L 744.569291 77.080619 
L 747.33372 74.214717 
L 750.098149 71.019387 
L 752.862578 72.453264 
L 755.627007 71.535049 
L 761.155865 73.392383 
L 763.920294 73.938781 
L 766.684723 76.637834 
L 769.449152 80.320789 
L 772.213581 81.131275 
L 774.97801 86.546327 
L 777.742439 90.665186 
L 780.506868 93.437708 
L 783.271298 97.85768 
L 786.035727 101.986362 
L 788.800156 101.715854 
L 791.564585 102.258656 
L 794.329014 103.366169 
L 797.093443 103.931279 
L 799.857872 103.931279 
L 802.622301 102.258656 
L 805.38673 102.808696 
L 808.151159 103.086491 
L 810.915588 105.085268 
L 813.680017 108.436011 
L 816.444446 108.119899 
L 819.208875 114.217395 
L 821.973304 119.673765 
L 824.737733 125.480969 
L 827.502162 128.983274 
L 830.266591 131.126738 
L 833.03102 137.669575 
L 835.795449 142.447914 
L 838.559878 142.447914 
L 841.324307 151.292834 
L 844.088736 151.292834 
L 846.853165 156.039719 
L 849.617594 154.074948 
L 852.382023 154.074948 
L 855.146452 159.174319 
L 857.910881 160.274448 
L 860.67531 156.039719 
L 866.204168 160.274448 
L 868.968598 163.762643 
L 871.733027 162.566838 
L 874.497456 163.762643 
L 877.261885 167.573263 
L 880.026314 171.772043 
L 882.790743 176.447122 
L 885.555172 179.886813 
L 888.319601 181.720554 
L 891.08403 179.886813 
L 896.612888 183.639616 
L 899.377317 181.720554 
L 907.670604 181.720554 
L 910.435033 187.768298 
L 913.199462 189.9987 
L 915.963891 187.768298 
L 918.72832 181.720554 
L 921.492749 174.829174 
L 924.257178 174.829174 
L 927.021607 173.272295 
L 929.786036 178.131127 
L 932.550465 178.131127 
L 935.314894 181.720554 
L 938.079323 187.768298 
L 940.843752 200.366021 
L 943.608181 200.366021 
L 946.37261 197.5199 
L 949.137039 194.857532 
L 951.901468 194.857532 
L 954.665897 192.356621 
L 957.430327 200.366021 
L 962.959185 200.366021 
L 965.723614 203.423152 
L 968.488043 192.356621 
L 974.016901 192.356621 
L 976.78133 185.652327 
L 979.545759 187.768298 
L 982.310188 187.768298 
L 985.074617 189.9987 
L 987.839046 200.366021 
L 990.603475 206.725105 
L 993.367904 203.423152 
L 996.132333 214.246306 
L 998.896762 214.246306 
L 1001.661191 210.314533 
L 1009.954478 210.314533 
L 1012.718907 214.246306 
L 1018.247765 214.246306 
L 1021.012194 218.592679 
L 1023.776623 218.592679 
L 1026.541052 223.451511 
L 1029.305481 214.246306 
L 1032.06991 218.592679 
L 1045.892056 218.592679 
L 1048.656485 228.96 
L 1051.420914 228.96 
L 1054.185343 223.451511 
L 1070.771917 223.451511 
L 1073.536346 228.96 
L 1076.300775 223.451511 
L 1076.300775 223.451511 
" style="fill:none;stroke:#a4a86f;stroke-linecap:square;stroke-width:2;"/>
   </g>
   <g id="line2d_19">
    <path clip-path="url(#pac0be985a8)" d="M 586.996836 218.592679 
L 589.761265 223.451511 
L 592.525694 228.96 
L 595.290123 228.96 
L 598.054552 223.451511 
L 600.818981 223.451511 
L 603.58341 218.592679 
L 606.34784 214.246306 
L 614.641127 214.246306 
L 617.405556 218.592679 
L 620.169985 218.592679 
L 622.934414 223.451511 
L 625.698843 228.96 
L 628.463272 228.96 
L 631.227701 223.451511 
L 633.99213 218.592679 
L 636.756559 218.592679 
L 639.520988 210.314533 
L 647.814275 210.314533 
L 650.578704 214.246306 
L 653.343133 218.592679 
L 656.107562 218.592679 
L 658.871991 228.96 
L 661.63642 228.96 
L 664.400849 223.451511 
L 675.458565 223.451511 
L 678.222994 214.246306 
L 680.987423 206.725105 
L 683.751852 210.314533 
L 689.28071 210.314533 
L 692.045139 203.423152 
L 694.809569 203.423152 
L 697.573998 210.314533 
L 700.338427 218.592679 
L 708.631714 218.592679 
L 711.396143 228.96 
L 727.982717 228.96 
L 730.747146 223.451511 
L 747.33372 223.451511 
L 750.098149 228.96 
L 805.38673 228.96 
L 808.151159 223.451511 
L 824.737733 223.451511 
L 827.502162 228.96 
L 893.848459 228.96 
L 896.612888 223.451511 
L 913.199462 223.451511 
L 915.963891 228.96 
L 1032.06991 228.96 
L 1034.834339 223.451511 
L 1034.834339 223.451511 
" style="fill:none;stroke:#d3d3d3;stroke-linecap:square;stroke-width:2;"/>
   </g>
   <g id="patch_3">
    <path d="M 46.965625 228.96 
L 46.965625 7.2 
" style="fill:none;stroke:#000000;stroke-linecap:square;stroke-linejoin:miter;stroke-width:0.8;"/>
   </g>
   <g id="patch_4">
    <path d="M 46.965625 228.96 
L 1162.965625 228.96 
" style="fill:none;stroke:#000000;stroke-linecap:square;stroke-linejoin:miter;stroke-width:0.8;"/>
   </g>
   <g id="legend_1">
    <g id="line2d_20">
     <path d="M 1069.154375 17.67875 
L 1085.154375 17.67875 
" style="fill:none;stroke:#947383;stroke-linecap:square;stroke-width:2;"/>
    </g>
    <g id="line2d_21"/>
    <g id="text_15">
     <!-- Europe -->
     <g transform="translate(1091.554375 20.47875)scale(0.08 -0.08)">
      <defs>
       <path d="M 628 4666 
L 3578 4666 
L 3578 4134 
L 1259 4134 
L 1259 2753 
L 3481 2753 
L 3481 2222 
L 1259 2222 
L 1259 531 
L 3634 531 
L 3634 0 
L 628 0 
L 628 4666 
z
" id="DejaVuSans-45" transform="scale(0.015625)"/>
       <path d="M 1159 525 
L 1159 -1331 
L 581 -1331 
L 581 3500 
L 1159 3500 
L 1159 2969 
Q 1341 3281 1617 3432 
Q 1894 3584 2278 3584 
Q 2916 3584 3314 3078 
Q 3713 2572 3713 1747 
Q 3713 922 3314 415 
Q 2916 -91 2278 -91 
Q 1894 -91 1617 61 
Q 1341 213 1159 525 
z
M 3116 1747 
Q 3116 2381 2855 2742 
Q 2594 3103 2138 3103 
Q 1681 3103 1420 2742 
Q 1159 2381 1159 1747 
Q 1159 1113 1420 752 
Q 1681 391 2138 391 
Q 2594 391 2855 752 
Q 3116 1113 3116 1747 
z
" id="DejaVuSans-70" transform="scale(0.015625)"/>
      </defs>
      <use xlink:href="#DejaVuSans-45"/>
      <use x="63.183594" xlink:href="#DejaVuSans-75"/>
      <use x="126.5625" xlink:href="#DejaVuSans-72"/>
      <use x="165.425781" xlink:href="#DejaVuSans-6f"/>
      <use x="226.607422" xlink:href="#DejaVuSans-70"/>
      <use x="290.083984" xlink:href="#DejaVuSans-65"/>
     </g>
    </g>
    <g id="line2d_22">
     <path d="M 1069.154375 29.42125 
L 1085.154375 29.42125 
" style="fill:none;stroke:#96c6ad;stroke-linecap:square;stroke-width:2;"/>
    </g>
    <g id="line2d_23"/>
    <g id="text_16">
     <!-- Oceania -->
     <g transform="translate(1091.554375 32.22125)scale(0.08 -0.08)">
      <defs>
       <path d="M 2522 4238 
Q 1834 4238 1429 3725 
Q 1025 3213 1025 2328 
Q 1025 1447 1429 934 
Q 1834 422 2522 422 
Q 3209 422 3611 934 
Q 4013 1447 4013 2328 
Q 4013 3213 3611 3725 
Q 3209 4238 2522 4238 
z
M 2522 4750 
Q 3503 4750 4090 4092 
Q 4678 3434 4678 2328 
Q 4678 1225 4090 567 
Q 3503 -91 2522 -91 
Q 1538 -91 948 565 
Q 359 1222 359 2328 
Q 359 3434 948 4092 
Q 1538 4750 2522 4750 
z
" id="DejaVuSans-4f" transform="scale(0.015625)"/>
       <path d="M 3122 3366 
L 3122 2828 
Q 2878 2963 2633 3030 
Q 2388 3097 2138 3097 
Q 1578 3097 1268 2742 
Q 959 2388 959 1747 
Q 959 1106 1268 751 
Q 1578 397 2138 397 
Q 2388 397 2633 464 
Q 2878 531 3122 666 
L 3122 134 
Q 2881 22 2623 -34 
Q 2366 -91 2075 -91 
Q 1284 -91 818 406 
Q 353 903 353 1747 
Q 353 2603 823 3093 
Q 1294 3584 2113 3584 
Q 2378 3584 2631 3529 
Q 2884 3475 3122 3366 
z
" id="DejaVuSans-63" transform="scale(0.015625)"/>
      </defs>
      <use xlink:href="#DejaVuSans-4f"/>
      <use x="78.710938" xlink:href="#DejaVuSans-63"/>
      <use x="133.691406" xlink:href="#DejaVuSans-65"/>
      <use x="195.214844" xlink:href="#DejaVuSans-61"/>
      <use x="256.494141" xlink:href="#DejaVuSans-6e"/>
      <use x="319.873047" xlink:href="#DejaVuSans-69"/>
      <use x="347.65625" xlink:href="#DejaVuSans-61"/>
     </g>
    </g>
    <g id="line2d_24">
     <path d="M 1069.154375 41.16375 
L 1085.154375 41.16375 
" style="fill:none;stroke:#525886;stroke-linecap:square;stroke-width:2;"/>
    </g>
    <g id="line2d_25"/>
    <g id="text_17">
     <!-- Asia -->
     <g transform="translate(1091.554375 43.96375)scale(0.08 -0.08)">
      <defs>
       <path d="M 2188 4044 
L 1331 1722 
L 3047 1722 
L 2188 4044 
z
M 1831 4666 
L 2547 4666 
L 4325 0 
L 3669 0 
L 3244 1197 
L 1141 1197 
L 716 0 
L 50 0 
L 1831 4666 
z
" id="DejaVuSans-41" transform="scale(0.015625)"/>
       <path d="M 2834 3397 
L 2834 2853 
Q 2591 2978 2328 3040 
Q 2066 3103 1784 3103 
Q 1356 3103 1142 2972 
Q 928 2841 928 2578 
Q 928 2378 1081 2264 
Q 1234 2150 1697 2047 
L 1894 2003 
Q 2506 1872 2764 1633 
Q 3022 1394 3022 966 
Q 3022 478 2636 193 
Q 2250 -91 1575 -91 
Q 1294 -91 989 -36 
Q 684 19 347 128 
L 347 722 
Q 666 556 975 473 
Q 1284 391 1588 391 
Q 1994 391 2212 530 
Q 2431 669 2431 922 
Q 2431 1156 2273 1281 
Q 2116 1406 1581 1522 
L 1381 1569 
Q 847 1681 609 1914 
Q 372 2147 372 2553 
Q 372 3047 722 3315 
Q 1072 3584 1716 3584 
Q 2034 3584 2315 3537 
Q 2597 3491 2834 3397 
z
" id="DejaVuSans-73" transform="scale(0.015625)"/>
      </defs>
      <use xlink:href="#DejaVuSans-41"/>
      <use x="68.408203" xlink:href="#DejaVuSans-73"/>
      <use x="120.507812" xlink:href="#DejaVuSans-69"/>
      <use x="148.291016" xlink:href="#DejaVuSans-61"/>
     </g>
    </g>
    <g id="line2d_26">
     <path d="M 1069.154375 52.90625 
L 1085.154375 52.90625 
" style="fill:none;stroke:#937252;stroke-linecap:square;stroke-width:2;"/>
    </g>
    <g id="line2d_27"/>
    <g id="text_18">
     <!-- United Kingdom -->
     <g transform="translate(1091.554375 55.70625)scale(0.08 -0.08)">
      <defs>
       <path d="M 556 4666 
L 1191 4666 
L 1191 1831 
Q 1191 1081 1462 751 
Q 1734 422 2344 422 
Q 2950 422 3222 751 
Q 3494 1081 3494 1831 
L 3494 4666 
L 4128 4666 
L 4128 1753 
Q 4128 841 3676 375 
Q 3225 -91 2344 -91 
Q 1459 -91 1007 375 
Q 556 841 556 1753 
L 556 4666 
z
" id="DejaVuSans-55" transform="scale(0.015625)"/>
       <path d="M 628 4666 
L 1259 4666 
L 1259 2694 
L 3353 4666 
L 4166 4666 
L 1850 2491 
L 4331 0 
L 3500 0 
L 1259 2247 
L 1259 0 
L 628 0 
L 628 4666 
z
" id="DejaVuSans-4b" transform="scale(0.015625)"/>
       <path d="M 3328 2828 
Q 3544 3216 3844 3400 
Q 4144 3584 4550 3584 
Q 5097 3584 5394 3201 
Q 5691 2819 5691 2113 
L 5691 0 
L 5113 0 
L 5113 2094 
Q 5113 2597 4934 2840 
Q 4756 3084 4391 3084 
Q 3944 3084 3684 2787 
Q 3425 2491 3425 1978 
L 3425 0 
L 2847 0 
L 2847 2094 
Q 2847 2600 2669 2842 
Q 2491 3084 2119 3084 
Q 1678 3084 1418 2786 
Q 1159 2488 1159 1978 
L 1159 0 
L 581 0 
L 581 3500 
L 1159 3500 
L 1159 2956 
Q 1356 3278 1631 3431 
Q 1906 3584 2284 3584 
Q 2666 3584 2933 3390 
Q 3200 3197 3328 2828 
z
" id="DejaVuSans-6d" transform="scale(0.015625)"/>
      </defs>
      <use xlink:href="#DejaVuSans-55"/>
      <use x="73.193359" xlink:href="#DejaVuSans-6e"/>
      <use x="136.572266" xlink:href="#DejaVuSans-69"/>
      <use x="164.355469" xlink:href="#DejaVuSans-74"/>
      <use x="203.564453" xlink:href="#DejaVuSans-65"/>
      <use x="265.087891" xlink:href="#DejaVuSans-64"/>
      <use x="328.564453" xlink:href="#DejaVuSans-20"/>
      <use x="360.351562" xlink:href="#DejaVuSans-4b"/>
      <use x="425.927734" xlink:href="#DejaVuSans-69"/>
      <use x="453.710938" xlink:href="#DejaVuSans-6e"/>
      <use x="517.089844" xlink:href="#DejaVuSans-67"/>
      <use x="580.566406" xlink:href="#DejaVuSans-64"/>
      <use x="644.042969" xlink:href="#DejaVuSans-6f"/>
      <use x="705.224609" xlink:href="#DejaVuSans-6d"/>
     </g>
    </g>
    <g id="line2d_28">
     <path d="M 1069.154375 64.64875 
L 1085.154375 64.64875 
" style="fill:none;stroke:#d18cad;stroke-linecap:square;stroke-width:2;"/>
    </g>
    <g id="line2d_29"/>
    <g id="text_19">
     <!-- Africa -->
     <g transform="translate(1091.554375 67.44875)scale(0.08 -0.08)">
      <defs>
       <path d="M 2375 4863 
L 2375 4384 
L 1825 4384 
Q 1516 4384 1395 4259 
Q 1275 4134 1275 3809 
L 1275 3500 
L 2222 3500 
L 2222 3053 
L 1275 3053 
L 1275 0 
L 697 0 
L 697 3053 
L 147 3053 
L 147 3500 
L 697 3500 
L 697 3744 
Q 697 4328 969 4595 
Q 1241 4863 1831 4863 
L 2375 4863 
z
" id="DejaVuSans-66" transform="scale(0.015625)"/>
      </defs>
      <use xlink:href="#DejaVuSans-41"/>
      <use x="64.783203" xlink:href="#DejaVuSans-66"/>
      <use x="99.988281" xlink:href="#DejaVuSans-72"/>
      <use x="141.101562" xlink:href="#DejaVuSans-69"/>
      <use x="168.884766" xlink:href="#DejaVuSans-63"/>
      <use x="223.865234" xlink:href="#DejaVuSans-61"/>
     </g>
    </g>
    <g id="line2d_30">
     <path d="M 1069.154375 76.39125 
L 1085.154375 76.39125 
" style="fill:none;stroke:#a4a86f;stroke-linecap:square;stroke-width:2;"/>
    </g>
    <g id="line2d_31"/>
    <g id="text_20">
     <!-- North America -->
     <g transform="translate(1091.554375 79.19125)scale(0.08 -0.08)">
      <defs>
       <path d="M 628 4666 
L 1478 4666 
L 3547 763 
L 3547 4666 
L 4159 4666 
L 4159 0 
L 3309 0 
L 1241 3903 
L 1241 0 
L 628 0 
L 628 4666 
z
" id="DejaVuSans-4e" transform="scale(0.015625)"/>
       <path d="M 3513 2113 
L 3513 0 
L 2938 0 
L 2938 2094 
Q 2938 2591 2744 2837 
Q 2550 3084 2163 3084 
Q 1697 3084 1428 2787 
Q 1159 2491 1159 1978 
L 1159 0 
L 581 0 
L 581 4863 
L 1159 4863 
L 1159 2956 
Q 1366 3272 1645 3428 
Q 1925 3584 2291 3584 
Q 2894 3584 3203 3211 
Q 3513 2838 3513 2113 
z
" id="DejaVuSans-68" transform="scale(0.015625)"/>
      </defs>
      <use xlink:href="#DejaVuSans-4e"/>
      <use x="74.804688" xlink:href="#DejaVuSans-6f"/>
      <use x="135.986328" xlink:href="#DejaVuSans-72"/>
      <use x="177.099609" xlink:href="#DejaVuSans-74"/>
      <use x="216.308594" xlink:href="#DejaVuSans-68"/>
      <use x="279.6875" xlink:href="#DejaVuSans-20"/>
      <use x="311.474609" xlink:href="#DejaVuSans-41"/>
      <use x="379.882812" xlink:href="#DejaVuSans-6d"/>
      <use x="477.294922" xlink:href="#DejaVuSans-65"/>
      <use x="538.818359" xlink:href="#DejaVuSans-72"/>
      <use x="579.931641" xlink:href="#DejaVuSans-69"/>
      <use x="607.714844" xlink:href="#DejaVuSans-63"/>
      <use x="662.695312" xlink:href="#DejaVuSans-61"/>
     </g>
    </g>
    <g id="line2d_32">
     <path d="M 1069.154375 88.13375 
L 1085.154375 88.13375 
" style="fill:none;stroke:#d3d3d3;stroke-linecap:square;stroke-width:2;"/>
    </g>
    <g id="line2d_33"/>
    <g id="text_21">
     <!-- South America -->
     <g transform="translate(1091.554375 90.93375)scale(0.08 -0.08)">
      <defs>
       <path d="M 3425 4513 
L 3425 3897 
Q 3066 4069 2747 4153 
Q 2428 4238 2131 4238 
Q 1616 4238 1336 4038 
Q 1056 3838 1056 3469 
Q 1056 3159 1242 3001 
Q 1428 2844 1947 2747 
L 2328 2669 
Q 3034 2534 3370 2195 
Q 3706 1856 3706 1288 
Q 3706 609 3251 259 
Q 2797 -91 1919 -91 
Q 1588 -91 1214 -16 
Q 841 59 441 206 
L 441 856 
Q 825 641 1194 531 
Q 1563 422 1919 422 
Q 2459 422 2753 634 
Q 3047 847 3047 1241 
Q 3047 1584 2836 1778 
Q 2625 1972 2144 2069 
L 1759 2144 
Q 1053 2284 737 2584 
Q 422 2884 422 3419 
Q 422 4038 858 4394 
Q 1294 4750 2059 4750 
Q 2388 4750 2728 4690 
Q 3069 4631 3425 4513 
z
" id="DejaVuSans-53" transform="scale(0.015625)"/>
      </defs>
      <use xlink:href="#DejaVuSans-53"/>
      <use x="63.476562" xlink:href="#DejaVuSans-6f"/>
      <use x="124.658203" xlink:href="#DejaVuSans-75"/>
      <use x="188.037109" xlink:href="#DejaVuSans-74"/>
      <use x="227.246094" xlink:href="#DejaVuSans-68"/>
      <use x="290.625" xlink:href="#DejaVuSans-20"/>
      <use x="322.412109" xlink:href="#DejaVuSans-41"/>
      <use x="390.820312" xlink:href="#DejaVuSans-6d"/>
      <use x="488.232422" xlink:href="#DejaVuSans-65"/>
      <use x="549.755859" xlink:href="#DejaVuSans-72"/>
      <use x="590.869141" xlink:href="#DejaVuSans-69"/>
      <use x="618.652344" xlink:href="#DejaVuSans-63"/>
      <use x="673.632812" xlink:href="#DejaVuSans-61"/>
     </g>
    </g>
   </g>
  </g>
 </g>
 <defs>
  <clipPath id="pac0be985a8">
   <rect height="221.76" width="1116" x="46.965625" y="7.2"/>
  </clipPath>
 </defs>
</svg>
