<?xml version="1.0" encoding="utf-8" standalone="no"?>
<!DOCTYPE svg PUBLIC "-//W3C//DTD SVG 1.1//EN"
  "http://www.w3.org/Graphics/SVG/1.1/DTD/svg11.dtd">
<svg xmlns:xlink="http://www.w3.org/1999/xlink" width="1182.890625pt" height="298.620937pt" viewBox="0 0 1182.890625 298.620937" xmlns="http://www.w3.org/2000/svg" version="1.1">
 <metadata>
  <rdf:RDF xmlns:dc="http://purl.org/dc/elements/1.1/" xmlns:cc="http://creativecommons.org/ns#" xmlns:rdf="http://www.w3.org/1999/02/22-rdf-syntax-ns#">
   <cc:Work>
    <dc:type rdf:resource="http://purl.org/dc/dcmitype/StillImage"/>
    <dc:date>2022-08-31T01:13:58.457671</dc:date>
    <dc:format>image/svg+xml</dc:format>
    <dc:creator>
     <cc:Agent>
      <dc:title>Matplotlib v3.5.1, https://matplotlib.org/</dc:title>
     </cc:Agent>
    </dc:creator>
   </cc:Work>
  </rdf:RDF>
 </metadata>
 <defs>
  <style type="text/css">*{stroke-linejoin: round; stroke-linecap: butt}</style>
 </defs>
 <g id="figure_1">
  <g id="patch_1">
   <path d="M 0 298.620937 
L 1182.890625 298.620937 
L 1182.890625 0 
L 0 0 
z
" style="fill: #ffffff"/>
  </g>
  <g id="axes_1">
   <g id="patch_2">
    <path d="M 59.690625 228.96 
L 1175.690625 228.96 
L 1175.690625 7.2 
L 59.690625 7.2 
z
" style="fill: #ffffff"/>
   </g>
   <g id="matplotlib.axis_1">
    <g id="xtick_1">
     <g id="line2d_1">
      <defs>
       <path id="m9673f1a926" d="M 0 0 
L 0 3.5 
" style="stroke: #000000; stroke-width: 0.8"/>
      </defs>
      <g>
       <use xlink:href="#m9673f1a926" x="90.184797" y="228.96" style="stroke: #000000; stroke-width: 0.8"/>
      </g>
     </g>
     <g id="text_1">
      <!-- 2021-09 -->
      <g transform="translate(92.944172 277.742812)rotate(-90)scale(0.1 -0.1)">
       <defs>
        <path id="DejaVuSans-32" d="M 1228 531 
L 3431 531 
L 3431 0 
L 469 0 
L 469 531 
Q 828 903 1448 1529 
Q 2069 2156 2228 2338 
Q 2531 2678 2651 2914 
Q 2772 3150 2772 3378 
Q 2772 3750 2511 3984 
Q 2250 4219 1831 4219 
Q 1534 4219 1204 4116 
Q 875 4013 500 3803 
L 500 4441 
Q 881 4594 1212 4672 
Q 1544 4750 1819 4750 
Q 2544 4750 2975 4387 
Q 3406 4025 3406 3419 
Q 3406 3131 3298 2873 
Q 3191 2616 2906 2266 
Q 2828 2175 2409 1742 
Q 1991 1309 1228 531 
z
" transform="scale(0.015625)"/>
        <path id="DejaVuSans-30" d="M 2034 4250 
Q 1547 4250 1301 3770 
Q 1056 3291 1056 2328 
Q 1056 1369 1301 889 
Q 1547 409 2034 409 
Q 2525 409 2770 889 
Q 3016 1369 3016 2328 
Q 3016 3291 2770 3770 
Q 2525 4250 2034 4250 
z
M 2034 4750 
Q 2819 4750 3233 4129 
Q 3647 3509 3647 2328 
Q 3647 1150 3233 529 
Q 2819 -91 2034 -91 
Q 1250 -91 836 529 
Q 422 1150 422 2328 
Q 422 3509 836 4129 
Q 1250 4750 2034 4750 
z
" transform="scale(0.015625)"/>
        <path id="DejaVuSans-31" d="M 794 531 
L 1825 531 
L 1825 4091 
L 703 3866 
L 703 4441 
L 1819 4666 
L 2450 4666 
L 2450 531 
L 3481 531 
L 3481 0 
L 794 0 
L 794 531 
z
" transform="scale(0.015625)"/>
        <path id="DejaVuSans-2d" d="M 313 2009 
L 1997 2009 
L 1997 1497 
L 313 1497 
L 313 2009 
z
" transform="scale(0.015625)"/>
        <path id="DejaVuSans-39" d="M 703 97 
L 703 672 
Q 941 559 1184 500 
Q 1428 441 1663 441 
Q 2288 441 2617 861 
Q 2947 1281 2994 2138 
Q 2813 1869 2534 1725 
Q 2256 1581 1919 1581 
Q 1219 1581 811 2004 
Q 403 2428 403 3163 
Q 403 3881 828 4315 
Q 1253 4750 1959 4750 
Q 2769 4750 3195 4129 
Q 3622 3509 3622 2328 
Q 3622 1225 3098 567 
Q 2575 -91 1691 -91 
Q 1453 -91 1209 -44 
Q 966 3 703 97 
z
M 1959 2075 
Q 2384 2075 2632 2365 
Q 2881 2656 2881 3163 
Q 2881 3666 2632 3958 
Q 2384 4250 1959 4250 
Q 1534 4250 1286 3958 
Q 1038 3666 1038 3163 
Q 1038 2656 1286 2365 
Q 1534 2075 1959 2075 
z
" transform="scale(0.015625)"/>
       </defs>
       <use xlink:href="#DejaVuSans-32"/>
       <use xlink:href="#DejaVuSans-30" x="63.623047"/>
       <use xlink:href="#DejaVuSans-32" x="127.246094"/>
       <use xlink:href="#DejaVuSans-31" x="190.869141"/>
       <use xlink:href="#DejaVuSans-2d" x="254.492188"/>
       <use xlink:href="#DejaVuSans-30" x="290.576172"/>
       <use xlink:href="#DejaVuSans-39" x="354.199219"/>
      </g>
     </g>
    </g>
    <g id="xtick_2">
     <g id="line2d_2">
      <g>
       <use xlink:href="#m9673f1a926" x="266.501814" y="228.96" style="stroke: #000000; stroke-width: 0.8"/>
      </g>
     </g>
     <g id="text_2">
      <!-- 2021-11 -->
      <g transform="translate(269.261189 277.742812)rotate(-90)scale(0.1 -0.1)">
       <use xlink:href="#DejaVuSans-32"/>
       <use xlink:href="#DejaVuSans-30" x="63.623047"/>
       <use xlink:href="#DejaVuSans-32" x="127.246094"/>
       <use xlink:href="#DejaVuSans-31" x="190.869141"/>
       <use xlink:href="#DejaVuSans-2d" x="254.492188"/>
       <use xlink:href="#DejaVuSans-31" x="290.576172"/>
       <use xlink:href="#DejaVuSans-31" x="354.199219"/>
      </g>
     </g>
    </g>
    <g id="xtick_3">
     <g id="line2d_3">
      <g>
       <use xlink:href="#m9673f1a926" x="442.81883" y="228.96" style="stroke: #000000; stroke-width: 0.8"/>
      </g>
     </g>
     <g id="text_3">
      <!-- 2022-01 -->
      <g transform="translate(445.578205 277.742812)rotate(-90)scale(0.1 -0.1)">
       <use xlink:href="#DejaVuSans-32"/>
       <use xlink:href="#DejaVuSans-30" x="63.623047"/>
       <use xlink:href="#DejaVuSans-32" x="127.246094"/>
       <use xlink:href="#DejaVuSans-32" x="190.869141"/>
       <use xlink:href="#DejaVuSans-2d" x="254.492188"/>
       <use xlink:href="#DejaVuSans-30" x="290.576172"/>
       <use xlink:href="#DejaVuSans-31" x="354.199219"/>
      </g>
     </g>
    </g>
    <g id="xtick_4">
     <g id="line2d_4">
      <g>
       <use xlink:href="#m9673f1a926" x="613.354961" y="228.96" style="stroke: #000000; stroke-width: 0.8"/>
      </g>
     </g>
     <g id="text_4">
      <!-- 2022-03 -->
      <g transform="translate(616.114336 277.742812)rotate(-90)scale(0.1 -0.1)">
       <defs>
        <path id="DejaVuSans-33" d="M 2597 2516 
Q 3050 2419 3304 2112 
Q 3559 1806 3559 1356 
Q 3559 666 3084 287 
Q 2609 -91 1734 -91 
Q 1441 -91 1130 -33 
Q 819 25 488 141 
L 488 750 
Q 750 597 1062 519 
Q 1375 441 1716 441 
Q 2309 441 2620 675 
Q 2931 909 2931 1356 
Q 2931 1769 2642 2001 
Q 2353 2234 1838 2234 
L 1294 2234 
L 1294 2753 
L 1863 2753 
Q 2328 2753 2575 2939 
Q 2822 3125 2822 3475 
Q 2822 3834 2567 4026 
Q 2313 4219 1838 4219 
Q 1578 4219 1281 4162 
Q 984 4106 628 3988 
L 628 4550 
Q 988 4650 1302 4700 
Q 1616 4750 1894 4750 
Q 2613 4750 3031 4423 
Q 3450 4097 3450 3541 
Q 3450 3153 3228 2886 
Q 3006 2619 2597 2516 
z
" transform="scale(0.015625)"/>
       </defs>
       <use xlink:href="#DejaVuSans-32"/>
       <use xlink:href="#DejaVuSans-30" x="63.623047"/>
       <use xlink:href="#DejaVuSans-32" x="127.246094"/>
       <use xlink:href="#DejaVuSans-32" x="190.869141"/>
       <use xlink:href="#DejaVuSans-2d" x="254.492188"/>
       <use xlink:href="#DejaVuSans-30" x="290.576172"/>
       <use xlink:href="#DejaVuSans-33" x="354.199219"/>
      </g>
     </g>
    </g>
    <g id="xtick_5">
     <g id="line2d_5">
      <g>
       <use xlink:href="#m9673f1a926" x="789.671977" y="228.96" style="stroke: #000000; stroke-width: 0.8"/>
      </g>
     </g>
     <g id="text_5">
      <!-- 2022-05 -->
      <g transform="translate(792.431352 277.742812)rotate(-90)scale(0.1 -0.1)">
       <defs>
        <path id="DejaVuSans-35" d="M 691 4666 
L 3169 4666 
L 3169 4134 
L 1269 4134 
L 1269 2991 
Q 1406 3038 1543 3061 
Q 1681 3084 1819 3084 
Q 2600 3084 3056 2656 
Q 3513 2228 3513 1497 
Q 3513 744 3044 326 
Q 2575 -91 1722 -91 
Q 1428 -91 1123 -41 
Q 819 9 494 109 
L 494 744 
Q 775 591 1075 516 
Q 1375 441 1709 441 
Q 2250 441 2565 725 
Q 2881 1009 2881 1497 
Q 2881 1984 2565 2268 
Q 2250 2553 1709 2553 
Q 1456 2553 1204 2497 
Q 953 2441 691 2322 
L 691 4666 
z
" transform="scale(0.015625)"/>
       </defs>
       <use xlink:href="#DejaVuSans-32"/>
       <use xlink:href="#DejaVuSans-30" x="63.623047"/>
       <use xlink:href="#DejaVuSans-32" x="127.246094"/>
       <use xlink:href="#DejaVuSans-32" x="190.869141"/>
       <use xlink:href="#DejaVuSans-2d" x="254.492188"/>
       <use xlink:href="#DejaVuSans-30" x="290.576172"/>
       <use xlink:href="#DejaVuSans-35" x="354.199219"/>
      </g>
     </g>
    </g>
    <g id="xtick_6">
     <g id="line2d_6">
      <g>
       <use xlink:href="#m9673f1a926" x="965.988993" y="228.96" style="stroke: #000000; stroke-width: 0.8"/>
      </g>
     </g>
     <g id="text_6">
      <!-- 2022-07 -->
      <g transform="translate(968.748368 277.742812)rotate(-90)scale(0.1 -0.1)">
       <defs>
        <path id="DejaVuSans-37" d="M 525 4666 
L 3525 4666 
L 3525 4397 
L 1831 0 
L 1172 0 
L 2766 4134 
L 525 4134 
L 525 4666 
z
" transform="scale(0.015625)"/>
       </defs>
       <use xlink:href="#DejaVuSans-32"/>
       <use xlink:href="#DejaVuSans-30" x="63.623047"/>
       <use xlink:href="#DejaVuSans-32" x="127.246094"/>
       <use xlink:href="#DejaVuSans-32" x="190.869141"/>
       <use xlink:href="#DejaVuSans-2d" x="254.492188"/>
       <use xlink:href="#DejaVuSans-30" x="290.576172"/>
       <use xlink:href="#DejaVuSans-37" x="354.199219"/>
      </g>
     </g>
    </g>
    <g id="xtick_7">
     <g id="line2d_7">
      <g>
       <use xlink:href="#m9673f1a926" x="1145.196453" y="228.96" style="stroke: #000000; stroke-width: 0.8"/>
      </g>
     </g>
     <g id="text_7">
      <!-- 2022-09 -->
      <g transform="translate(1147.955828 277.742812)rotate(-90)scale(0.1 -0.1)">
       <use xlink:href="#DejaVuSans-32"/>
       <use xlink:href="#DejaVuSans-30" x="63.623047"/>
       <use xlink:href="#DejaVuSans-32" x="127.246094"/>
       <use xlink:href="#DejaVuSans-32" x="190.869141"/>
       <use xlink:href="#DejaVuSans-2d" x="254.492188"/>
       <use xlink:href="#DejaVuSans-30" x="290.576172"/>
       <use xlink:href="#DejaVuSans-39" x="354.199219"/>
      </g>
     </g>
    </g>
    <g id="text_8">
     <!-- Date -->
     <g transform="translate(605.739844 289.34125)scale(0.1 -0.1)">
      <defs>
       <path id="DejaVuSans-44" d="M 1259 4147 
L 1259 519 
L 2022 519 
Q 2988 519 3436 956 
Q 3884 1394 3884 2338 
Q 3884 3275 3436 3711 
Q 2988 4147 2022 4147 
L 1259 4147 
z
M 628 4666 
L 1925 4666 
Q 3281 4666 3915 4102 
Q 4550 3538 4550 2338 
Q 4550 1131 3912 565 
Q 3275 0 1925 0 
L 628 0 
L 628 4666 
z
" transform="scale(0.015625)"/>
       <path id="DejaVuSans-61" d="M 2194 1759 
Q 1497 1759 1228 1600 
Q 959 1441 959 1056 
Q 959 750 1161 570 
Q 1363 391 1709 391 
Q 2188 391 2477 730 
Q 2766 1069 2766 1631 
L 2766 1759 
L 2194 1759 
z
M 3341 1997 
L 3341 0 
L 2766 0 
L 2766 531 
Q 2569 213 2275 61 
Q 1981 -91 1556 -91 
Q 1019 -91 701 211 
Q 384 513 384 1019 
Q 384 1609 779 1909 
Q 1175 2209 1959 2209 
L 2766 2209 
L 2766 2266 
Q 2766 2663 2505 2880 
Q 2244 3097 1772 3097 
Q 1472 3097 1187 3025 
Q 903 2953 641 2809 
L 641 3341 
Q 956 3463 1253 3523 
Q 1550 3584 1831 3584 
Q 2591 3584 2966 3190 
Q 3341 2797 3341 1997 
z
" transform="scale(0.015625)"/>
       <path id="DejaVuSans-74" d="M 1172 4494 
L 1172 3500 
L 2356 3500 
L 2356 3053 
L 1172 3053 
L 1172 1153 
Q 1172 725 1289 603 
Q 1406 481 1766 481 
L 2356 481 
L 2356 0 
L 1766 0 
Q 1100 0 847 248 
Q 594 497 594 1153 
L 594 3053 
L 172 3053 
L 172 3500 
L 594 3500 
L 594 4494 
L 1172 4494 
z
" transform="scale(0.015625)"/>
       <path id="DejaVuSans-65" d="M 3597 1894 
L 3597 1613 
L 953 1613 
Q 991 1019 1311 708 
Q 1631 397 2203 397 
Q 2534 397 2845 478 
Q 3156 559 3463 722 
L 3463 178 
Q 3153 47 2828 -22 
Q 2503 -91 2169 -91 
Q 1331 -91 842 396 
Q 353 884 353 1716 
Q 353 2575 817 3079 
Q 1281 3584 2069 3584 
Q 2775 3584 3186 3129 
Q 3597 2675 3597 1894 
z
M 3022 2063 
Q 3016 2534 2758 2815 
Q 2500 3097 2075 3097 
Q 1594 3097 1305 2825 
Q 1016 2553 972 2059 
L 3022 2063 
z
" transform="scale(0.015625)"/>
      </defs>
      <use xlink:href="#DejaVuSans-44"/>
      <use xlink:href="#DejaVuSans-61" x="77.001953"/>
      <use xlink:href="#DejaVuSans-74" x="138.28125"/>
      <use xlink:href="#DejaVuSans-65" x="177.490234"/>
     </g>
    </g>
   </g>
   <g id="matplotlib.axis_2">
    <g id="ytick_1">
     <g id="line2d_8">
      <defs>
       <path id="me6faabfa5c" d="M 0 0 
L -3.5 0 
" style="stroke: #000000; stroke-width: 0.8"/>
      </defs>
      <g>
       <use xlink:href="#me6faabfa5c" x="59.690625" y="228.96" style="stroke: #000000; stroke-width: 0.8"/>
      </g>
     </g>
     <g id="text_9">
      <!-- 1 -->
      <g transform="translate(46.328125 232.759219)scale(0.1 -0.1)">
       <use xlink:href="#DejaVuSans-31"/>
      </g>
     </g>
    </g>
    <g id="ytick_2">
     <g id="line2d_9">
      <g>
       <use xlink:href="#me6faabfa5c" x="59.690625" y="203.857065" style="stroke: #000000; stroke-width: 0.8"/>
      </g>
     </g>
     <g id="text_10">
      <!-- 3 -->
      <g transform="translate(46.328125 207.656284)scale(0.1 -0.1)">
       <use xlink:href="#DejaVuSans-33"/>
      </g>
     </g>
    </g>
    <g id="ytick_3">
     <g id="line2d_10">
      <g>
       <use xlink:href="#me6faabfa5c" x="59.690625" y="178.75413" style="stroke: #000000; stroke-width: 0.8"/>
      </g>
     </g>
     <g id="text_11">
      <!-- 10 -->
      <g transform="translate(39.965625 182.553349)scale(0.1 -0.1)">
       <use xlink:href="#DejaVuSans-31"/>
       <use xlink:href="#DejaVuSans-30" x="63.623047"/>
      </g>
     </g>
    </g>
    <g id="ytick_4">
     <g id="line2d_11">
      <g>
       <use xlink:href="#me6faabfa5c" x="59.690625" y="153.651195" style="stroke: #000000; stroke-width: 0.8"/>
      </g>
     </g>
     <g id="text_12">
      <!-- 31 -->
      <g transform="translate(39.965625 157.450414)scale(0.1 -0.1)">
       <use xlink:href="#DejaVuSans-33"/>
       <use xlink:href="#DejaVuSans-31" x="63.623047"/>
      </g>
     </g>
    </g>
    <g id="ytick_5">
     <g id="line2d_12">
      <g>
       <use xlink:href="#me6faabfa5c" x="59.690625" y="128.54826" style="stroke: #000000; stroke-width: 0.8"/>
      </g>
     </g>
     <g id="text_13">
      <!-- 100 -->
      <g transform="translate(33.603125 132.347479)scale(0.1 -0.1)">
       <use xlink:href="#DejaVuSans-31"/>
       <use xlink:href="#DejaVuSans-30" x="63.623047"/>
       <use xlink:href="#DejaVuSans-30" x="127.246094"/>
      </g>
     </g>
    </g>
    <g id="ytick_6">
     <g id="line2d_13">
      <g>
       <use xlink:href="#me6faabfa5c" x="59.690625" y="103.445325" style="stroke: #000000; stroke-width: 0.8"/>
      </g>
     </g>
     <g id="text_14">
      <!-- 316 -->
      <g transform="translate(33.603125 107.244544)scale(0.1 -0.1)">
       <defs>
        <path id="DejaVuSans-36" d="M 2113 2584 
Q 1688 2584 1439 2293 
Q 1191 2003 1191 1497 
Q 1191 994 1439 701 
Q 1688 409 2113 409 
Q 2538 409 2786 701 
Q 3034 994 3034 1497 
Q 3034 2003 2786 2293 
Q 2538 2584 2113 2584 
z
M 3366 4563 
L 3366 3988 
Q 3128 4100 2886 4159 
Q 2644 4219 2406 4219 
Q 1781 4219 1451 3797 
Q 1122 3375 1075 2522 
Q 1259 2794 1537 2939 
Q 1816 3084 2150 3084 
Q 2853 3084 3261 2657 
Q 3669 2231 3669 1497 
Q 3669 778 3244 343 
Q 2819 -91 2113 -91 
Q 1303 -91 875 529 
Q 447 1150 447 2328 
Q 447 3434 972 4092 
Q 1497 4750 2381 4750 
Q 2619 4750 2861 4703 
Q 3103 4656 3366 4563 
z
" transform="scale(0.015625)"/>
       </defs>
       <use xlink:href="#DejaVuSans-33"/>
       <use xlink:href="#DejaVuSans-31" x="63.623047"/>
       <use xlink:href="#DejaVuSans-36" x="127.246094"/>
      </g>
     </g>
    </g>
    <g id="ytick_7">
     <g id="line2d_14">
      <g>
       <use xlink:href="#me6faabfa5c" x="59.690625" y="78.34239" style="stroke: #000000; stroke-width: 0.8"/>
      </g>
     </g>
     <g id="text_15">
      <!-- 1000 -->
      <g transform="translate(27.240625 82.141609)scale(0.1 -0.1)">
       <use xlink:href="#DejaVuSans-31"/>
       <use xlink:href="#DejaVuSans-30" x="63.623047"/>
       <use xlink:href="#DejaVuSans-30" x="127.246094"/>
       <use xlink:href="#DejaVuSans-30" x="190.869141"/>
      </g>
     </g>
    </g>
    <g id="ytick_8">
     <g id="line2d_15">
      <g>
       <use xlink:href="#me6faabfa5c" x="59.690625" y="53.239455" style="stroke: #000000; stroke-width: 0.8"/>
      </g>
     </g>
     <g id="text_16">
      <!-- 3162 -->
      <g transform="translate(27.240625 57.038674)scale(0.1 -0.1)">
       <use xlink:href="#DejaVuSans-33"/>
       <use xlink:href="#DejaVuSans-31" x="63.623047"/>
       <use xlink:href="#DejaVuSans-36" x="127.246094"/>
       <use xlink:href="#DejaVuSans-32" x="190.869141"/>
      </g>
     </g>
    </g>
    <g id="ytick_9">
     <g id="line2d_16">
      <g>
       <use xlink:href="#me6faabfa5c" x="59.690625" y="28.13652" style="stroke: #000000; stroke-width: 0.8"/>
      </g>
     </g>
     <g id="text_17">
      <!-- 10000 -->
      <g transform="translate(20.878125 31.935739)scale(0.1 -0.1)">
       <use xlink:href="#DejaVuSans-31"/>
       <use xlink:href="#DejaVuSans-30" x="63.623047"/>
       <use xlink:href="#DejaVuSans-30" x="127.246094"/>
       <use xlink:href="#DejaVuSans-30" x="190.869141"/>
       <use xlink:href="#DejaVuSans-30" x="254.492188"/>
      </g>
     </g>
    </g>
    <g id="text_18">
     <!-- Count (7 day rolling average) -->
     <g transform="translate(14.798438 191.547969)rotate(-90)scale(0.1 -0.1)">
      <defs>
       <path id="DejaVuSans-43" d="M 4122 4306 
L 4122 3641 
Q 3803 3938 3442 4084 
Q 3081 4231 2675 4231 
Q 1875 4231 1450 3742 
Q 1025 3253 1025 2328 
Q 1025 1406 1450 917 
Q 1875 428 2675 428 
Q 3081 428 3442 575 
Q 3803 722 4122 1019 
L 4122 359 
Q 3791 134 3420 21 
Q 3050 -91 2638 -91 
Q 1578 -91 968 557 
Q 359 1206 359 2328 
Q 359 3453 968 4101 
Q 1578 4750 2638 4750 
Q 3056 4750 3426 4639 
Q 3797 4528 4122 4306 
z
" transform="scale(0.015625)"/>
       <path id="DejaVuSans-6f" d="M 1959 3097 
Q 1497 3097 1228 2736 
Q 959 2375 959 1747 
Q 959 1119 1226 758 
Q 1494 397 1959 397 
Q 2419 397 2687 759 
Q 2956 1122 2956 1747 
Q 2956 2369 2687 2733 
Q 2419 3097 1959 3097 
z
M 1959 3584 
Q 2709 3584 3137 3096 
Q 3566 2609 3566 1747 
Q 3566 888 3137 398 
Q 2709 -91 1959 -91 
Q 1206 -91 779 398 
Q 353 888 353 1747 
Q 353 2609 779 3096 
Q 1206 3584 1959 3584 
z
" transform="scale(0.015625)"/>
       <path id="DejaVuSans-75" d="M 544 1381 
L 544 3500 
L 1119 3500 
L 1119 1403 
Q 1119 906 1312 657 
Q 1506 409 1894 409 
Q 2359 409 2629 706 
Q 2900 1003 2900 1516 
L 2900 3500 
L 3475 3500 
L 3475 0 
L 2900 0 
L 2900 538 
Q 2691 219 2414 64 
Q 2138 -91 1772 -91 
Q 1169 -91 856 284 
Q 544 659 544 1381 
z
M 1991 3584 
L 1991 3584 
z
" transform="scale(0.015625)"/>
       <path id="DejaVuSans-6e" d="M 3513 2113 
L 3513 0 
L 2938 0 
L 2938 2094 
Q 2938 2591 2744 2837 
Q 2550 3084 2163 3084 
Q 1697 3084 1428 2787 
Q 1159 2491 1159 1978 
L 1159 0 
L 581 0 
L 581 3500 
L 1159 3500 
L 1159 2956 
Q 1366 3272 1645 3428 
Q 1925 3584 2291 3584 
Q 2894 3584 3203 3211 
Q 3513 2838 3513 2113 
z
" transform="scale(0.015625)"/>
       <path id="DejaVuSans-20" transform="scale(0.015625)"/>
       <path id="DejaVuSans-28" d="M 1984 4856 
Q 1566 4138 1362 3434 
Q 1159 2731 1159 2009 
Q 1159 1288 1364 580 
Q 1569 -128 1984 -844 
L 1484 -844 
Q 1016 -109 783 600 
Q 550 1309 550 2009 
Q 550 2706 781 3412 
Q 1013 4119 1484 4856 
L 1984 4856 
z
" transform="scale(0.015625)"/>
       <path id="DejaVuSans-64" d="M 2906 2969 
L 2906 4863 
L 3481 4863 
L 3481 0 
L 2906 0 
L 2906 525 
Q 2725 213 2448 61 
Q 2172 -91 1784 -91 
Q 1150 -91 751 415 
Q 353 922 353 1747 
Q 353 2572 751 3078 
Q 1150 3584 1784 3584 
Q 2172 3584 2448 3432 
Q 2725 3281 2906 2969 
z
M 947 1747 
Q 947 1113 1208 752 
Q 1469 391 1925 391 
Q 2381 391 2643 752 
Q 2906 1113 2906 1747 
Q 2906 2381 2643 2742 
Q 2381 3103 1925 3103 
Q 1469 3103 1208 2742 
Q 947 2381 947 1747 
z
" transform="scale(0.015625)"/>
       <path id="DejaVuSans-79" d="M 2059 -325 
Q 1816 -950 1584 -1140 
Q 1353 -1331 966 -1331 
L 506 -1331 
L 506 -850 
L 844 -850 
Q 1081 -850 1212 -737 
Q 1344 -625 1503 -206 
L 1606 56 
L 191 3500 
L 800 3500 
L 1894 763 
L 2988 3500 
L 3597 3500 
L 2059 -325 
z
" transform="scale(0.015625)"/>
       <path id="DejaVuSans-72" d="M 2631 2963 
Q 2534 3019 2420 3045 
Q 2306 3072 2169 3072 
Q 1681 3072 1420 2755 
Q 1159 2438 1159 1844 
L 1159 0 
L 581 0 
L 581 3500 
L 1159 3500 
L 1159 2956 
Q 1341 3275 1631 3429 
Q 1922 3584 2338 3584 
Q 2397 3584 2469 3576 
Q 2541 3569 2628 3553 
L 2631 2963 
z
" transform="scale(0.015625)"/>
       <path id="DejaVuSans-6c" d="M 603 4863 
L 1178 4863 
L 1178 0 
L 603 0 
L 603 4863 
z
" transform="scale(0.015625)"/>
       <path id="DejaVuSans-69" d="M 603 3500 
L 1178 3500 
L 1178 0 
L 603 0 
L 603 3500 
z
M 603 4863 
L 1178 4863 
L 1178 4134 
L 603 4134 
L 603 4863 
z
" transform="scale(0.015625)"/>
       <path id="DejaVuSans-67" d="M 2906 1791 
Q 2906 2416 2648 2759 
Q 2391 3103 1925 3103 
Q 1463 3103 1205 2759 
Q 947 2416 947 1791 
Q 947 1169 1205 825 
Q 1463 481 1925 481 
Q 2391 481 2648 825 
Q 2906 1169 2906 1791 
z
M 3481 434 
Q 3481 -459 3084 -895 
Q 2688 -1331 1869 -1331 
Q 1566 -1331 1297 -1286 
Q 1028 -1241 775 -1147 
L 775 -588 
Q 1028 -725 1275 -790 
Q 1522 -856 1778 -856 
Q 2344 -856 2625 -561 
Q 2906 -266 2906 331 
L 2906 616 
Q 2728 306 2450 153 
Q 2172 0 1784 0 
Q 1141 0 747 490 
Q 353 981 353 1791 
Q 353 2603 747 3093 
Q 1141 3584 1784 3584 
Q 2172 3584 2450 3431 
Q 2728 3278 2906 2969 
L 2906 3500 
L 3481 3500 
L 3481 434 
z
" transform="scale(0.015625)"/>
       <path id="DejaVuSans-76" d="M 191 3500 
L 800 3500 
L 1894 563 
L 2988 3500 
L 3597 3500 
L 2284 0 
L 1503 0 
L 191 3500 
z
" transform="scale(0.015625)"/>
       <path id="DejaVuSans-29" d="M 513 4856 
L 1013 4856 
Q 1481 4119 1714 3412 
Q 1947 2706 1947 2009 
Q 1947 1309 1714 600 
Q 1481 -109 1013 -844 
L 513 -844 
Q 928 -128 1133 580 
Q 1338 1288 1338 2009 
Q 1338 2731 1133 3434 
Q 928 4138 513 4856 
z
" transform="scale(0.015625)"/>
      </defs>
      <use xlink:href="#DejaVuSans-43"/>
      <use xlink:href="#DejaVuSans-6f" x="69.824219"/>
      <use xlink:href="#DejaVuSans-75" x="131.005859"/>
      <use xlink:href="#DejaVuSans-6e" x="194.384766"/>
      <use xlink:href="#DejaVuSans-74" x="257.763672"/>
      <use xlink:href="#DejaVuSans-20" x="296.972656"/>
      <use xlink:href="#DejaVuSans-28" x="328.759766"/>
      <use xlink:href="#DejaVuSans-37" x="367.773438"/>
      <use xlink:href="#DejaVuSans-20" x="431.396484"/>
      <use xlink:href="#DejaVuSans-64" x="463.183594"/>
      <use xlink:href="#DejaVuSans-61" x="526.660156"/>
      <use xlink:href="#DejaVuSans-79" x="587.939453"/>
      <use xlink:href="#DejaVuSans-20" x="647.119141"/>
      <use xlink:href="#DejaVuSans-72" x="678.90625"/>
      <use xlink:href="#DejaVuSans-6f" x="717.769531"/>
      <use xlink:href="#DejaVuSans-6c" x="778.951172"/>
      <use xlink:href="#DejaVuSans-6c" x="806.734375"/>
      <use xlink:href="#DejaVuSans-69" x="834.517578"/>
      <use xlink:href="#DejaVuSans-6e" x="862.300781"/>
      <use xlink:href="#DejaVuSans-67" x="925.679688"/>
      <use xlink:href="#DejaVuSans-20" x="989.15625"/>
      <use xlink:href="#DejaVuSans-61" x="1020.943359"/>
      <use xlink:href="#DejaVuSans-76" x="1082.222656"/>
      <use xlink:href="#DejaVuSans-65" x="1141.402344"/>
      <use xlink:href="#DejaVuSans-72" x="1202.925781"/>
      <use xlink:href="#DejaVuSans-61" x="1244.039062"/>
      <use xlink:href="#DejaVuSans-67" x="1305.318359"/>
      <use xlink:href="#DejaVuSans-65" x="1368.794922"/>
      <use xlink:href="#DejaVuSans-29" x="1430.318359"/>
     </g>
    </g>
   </g>
   <g id="line2d_17">
    <path d="M 110.417898 226.048464 
L 165.336313 226.048464 
L 168.226756 223.480307 
L 171.117198 219.104857 
L 174.007641 217.207649 
L 176.898084 207.187945 
L 179.788527 200.348914 
L 182.67897 198.733054 
L 185.569413 198.733054 
L 188.459856 199.526019 
L 191.350299 201.204088 
L 194.240742 202.094176 
L 197.131184 209.613124 
L 200.021627 221.183012 
L 202.91207 226.048464 
L 205.802513 223.480307 
L 208.692956 219.104857 
L 211.583399 217.207649 
L 217.364285 217.207649 
L 223.14517 213.846527 
L 226.035613 215.462387 
L 228.926056 219.104857 
L 231.816499 217.207649 
L 237.597385 217.207649 
L 240.487828 219.104857 
L 243.378271 221.183012 
L 252.049599 221.183012 
L 254.940042 217.207649 
L 257.830485 213.846527 
L 260.720928 212.342197 
L 266.501814 212.342197 
L 269.392257 210.934991 
L 272.2827 213.846527 
L 275.173142 215.462387 
L 278.063585 219.104857 
L 280.954028 217.207649 
L 292.5158 217.207649 
L 295.406243 219.104857 
L 298.296686 219.104857 
L 301.187128 221.183012 
L 304.077571 219.104857 
L 306.968014 215.462387 
L 309.858457 213.846527 
L 312.7489 213.846527 
L 318.529786 210.934991 
L 321.420229 212.342197 
L 327.201115 209.613124 
L 330.091557 205.005712 
L 332.982 194.499651 
L 335.872443 192.65595 
L 338.762886 180.36999 
L 341.653329 175.304193 
L 344.543772 170.760184 
L 347.434215 161.704548 
L 350.324658 153.58819 
L 353.215101 146.378351 
L 356.105543 140.371925 
L 358.995986 135.28262 
L 361.886429 131.873072 
L 364.776872 128.830417 
L 367.667315 122.050935 
L 370.557758 113.079487 
L 373.448201 102.600934 
L 376.338644 95.085145 
L 379.229087 88.916789 
L 382.119529 84.619201 
L 385.009972 81.264608 
L 387.900415 74.266027 
L 390.790858 66.193917 
L 393.681301 58.919972 
L 396.571744 53.336144 
L 399.462187 48.893071 
L 402.35263 45.965905 
L 405.243073 44.006164 
L 408.133515 39.839445 
L 411.023958 35.432052 
L 413.914401 31.438125 
L 416.804844 29.097457 
L 419.695287 29.278218 
L 422.58573 30.064899 
L 425.476173 28.420885 
L 428.366616 25.827112 
L 431.257059 24.464623 
L 434.147501 23.489452 
L 437.037944 22.22671 
L 445.709273 20.984591 
L 448.599716 20.319232 
L 451.490159 19.068058 
L 454.380602 19.493878 
L 457.271045 20.085655 
L 460.161487 18.708938 
L 463.05193 17.76 
L 465.942373 18.192162 
L 468.832816 18.838289 
L 471.723259 20.285741 
L 474.613702 20.707453 
L 477.504145 20.856175 
L 483.285031 20.836777 
L 486.175473 20.944688 
L 489.065916 22.081113 
L 491.956359 21.610311 
L 494.846802 20.725184 
L 497.737245 20.697264 
L 500.627688 20.972702 
L 506.408574 21.137708 
L 509.299017 20.594094 
L 512.189459 21.753951 
L 515.079902 23.091891 
L 517.970345 23.203145 
L 520.860788 23.61997 
L 523.751231 23.76274 
L 532.42256 23.739559 
L 535.313003 23.997721 
L 538.203446 24.825561 
L 541.093888 25.136855 
L 543.984331 25.66938 
L 549.765217 26.222084 
L 555.546103 27.045121 
L 558.436546 27.317317 
L 561.326989 27.707489 
L 564.217432 27.813421 
L 567.107874 28.383679 
L 569.998317 30.250121 
L 572.88876 31.610223 
L 581.560089 34.537054 
L 584.450532 35.29321 
L 587.340975 35.873052 
L 590.231418 37.256494 
L 593.12186 37.724317 
L 596.012303 39.176731 
L 598.902746 40.445012 
L 601.793189 41.456862 
L 604.683632 42.09735 
L 607.574075 42.484857 
L 610.464518 43.218244 
L 613.354961 45.397596 
L 616.245404 47.035307 
L 622.026289 49.739692 
L 624.916732 50.651114 
L 627.807175 51.254211 
L 630.697618 52.163193 
L 633.588061 53.511973 
L 636.478504 54.163949 
L 639.368947 54.528724 
L 645.149832 55.596314 
L 648.040275 55.728407 
L 650.930718 55.456291 
L 653.821161 55.722887 
L 656.711604 55.829114 
L 659.602047 56.079008 
L 662.49249 55.982728 
L 665.382933 55.358373 
L 668.273376 54.900769 
L 671.163818 54.60829 
L 674.054261 53.819333 
L 682.72559 52.212941 
L 685.616033 51.943041 
L 688.506476 51.533877 
L 691.396919 51.268605 
L 694.287362 51.231741 
L 697.177804 50.967434 
L 705.849133 49.794292 
L 708.739576 49.69946 
L 711.630019 48.775567 
L 714.520462 47.698176 
L 717.410905 47.115491 
L 723.191791 45.355701 
L 731.863119 44.899423 
L 740.534448 45.664583 
L 743.424891 46.155122 
L 746.315334 45.759435 
L 749.205777 46.588595 
L 752.096219 46.435213 
L 757.877105 45.427865 
L 760.767548 45.159663 
L 763.657991 44.734752 
L 766.548434 44.696773 
L 769.438877 43.384972 
L 775.219763 42.797458 
L 778.110205 42.721318 
L 783.891091 43.135046 
L 786.781534 43.034268 
L 789.671977 43.276797 
L 792.56242 43.060191 
L 795.452863 42.962217 
L 798.343306 42.48606 
L 801.233749 41.537918 
L 804.124191 40.965535 
L 809.905077 40.465837 
L 812.79552 39.800587 
L 815.685963 39.316721 
L 818.576406 39.024799 
L 824.357292 38.624582 
L 830.138177 38.224651 
L 835.919063 38.398999 
L 838.809506 38.449427 
L 841.699949 39.038148 
L 844.590392 39.485904 
L 847.480835 39.572569 
L 850.371278 39.350557 
L 853.261721 39.628427 
L 856.152163 39.292807 
L 861.933049 39.087504 
L 864.823492 38.803695 
L 867.713935 39.106556 
L 870.604378 39.255948 
L 873.494821 41.924315 
L 876.385264 40.754499 
L 879.275707 40.859762 
L 882.166149 40.518537 
L 885.056592 40.725072 
L 887.947035 40.62874 
L 890.837478 40.815701 
L 893.727921 38.14958 
L 896.618364 39.296964 
L 905.289693 39.258023 
L 911.070578 39.643206 
L 913.961021 40.35918 
L 916.851464 41.454567 
L 919.741907 41.850575 
L 922.63235 42.386435 
L 928.413236 42.762096 
L 931.303679 43.368054 
L 934.194122 44.201166 
L 937.084564 43.910918 
L 942.86545 43.573841 
L 948.646336 43.988757 
L 951.536779 43.400649 
L 954.427222 42.110945 
L 957.317665 42.211693 
L 960.208108 42.609723 
L 963.09855 42.863457 
L 965.988993 42.565606 
L 968.879436 42.471027 
L 971.769879 42.681831 
L 974.660322 45.836457 
L 977.550765 43.424499 
L 980.441208 42.64302 
L 986.222094 42.267601 
L 989.112536 41.824883 
L 992.002979 41.108499 
L 994.893422 38.490955 
L 997.783865 40.394128 
L 1000.674308 41.074079 
L 1006.455194 41.077463 
L 1009.345637 40.581836 
L 1012.23608 40.382655 
L 1018.016965 40.27749 
L 1020.907408 40.632607 
L 1023.797851 41.284831 
L 1026.688294 41.40929 
L 1029.578737 42.422391 
L 1032.46918 43.263079 
L 1035.359623 43.926978 
L 1038.250066 44.729418 
L 1041.140508 45.329644 
L 1044.030951 45.792311 
L 1046.921394 46.931802 
L 1049.811837 47.273003 
L 1061.373609 47.744827 
L 1064.264052 48.005146 
L 1070.044937 49.495257 
L 1072.93538 50.841767 
L 1075.825823 53.5729 
L 1078.716266 55.804725 
L 1081.606709 57.592316 
L 1084.497152 59.100941 
L 1087.387595 60.905784 
L 1090.278038 62.576854 
L 1093.16848 65.01484 
L 1096.058923 70.469675 
L 1098.949366 75.028487 
L 1101.839809 80.921841 
L 1104.730252 89.683912 
L 1107.620695 98.937336 
L 1110.511138 105.657799 
L 1113.401581 109.330022 
L 1116.292024 118.972405 
L 1122.072909 140.425563 
L 1122.072909 140.425563 
" clip-path="url(#p3e3495e0f1)" style="fill: none; stroke: #947383; stroke-width: 2; stroke-linecap: square"/>
   </g>
   <g id="line2d_18">
    <path d="M 211.583399 226.048464 
L 214.473842 228.96 
L 217.364285 228.96 
L 220.254728 226.048464 
L 228.926056 226.048464 
L 231.816499 223.480307 
L 234.706942 223.480307 
L 237.597385 221.183012 
L 240.487828 223.480307 
L 254.940042 223.480307 
L 257.830485 226.048464 
L 260.720928 226.048464 
L 263.611371 223.480307 
L 266.501814 223.480307 
L 269.392257 221.183012 
L 280.954028 221.183012 
L 283.844471 223.480307 
L 286.734914 221.183012 
L 289.625357 223.480307 
L 292.5158 226.048464 
L 301.187128 226.048464 
L 304.077571 223.480307 
L 312.7489 223.480307 
L 315.639343 221.183012 
L 318.529786 221.183012 
L 321.420229 219.104857 
L 324.310672 219.104857 
L 330.091557 203.022152 
L 332.982 196.513771 
L 335.872443 186.090615 
L 338.762886 173.033505 
L 341.653329 161.421374 
L 344.543772 157.44601 
L 347.434215 149.81015 
L 350.324658 142.926692 
L 356.105543 131.548975 
L 361.886429 121.843823 
L 364.776872 116.204392 
L 370.557758 98.228068 
L 373.448201 91.998098 
L 376.338644 86.514521 
L 379.229087 80.08272 
L 382.119529 76.100611 
L 385.009972 69.815309 
L 387.900415 63.172921 
L 390.790858 57.16714 
L 393.681301 50.848827 
L 396.571744 47.757846 
L 399.462187 45.624951 
L 402.35263 41.810882 
L 405.243073 39.83252 
L 408.133515 37.689532 
L 411.023958 37.25886 
L 413.914401 37.681327 
L 416.804844 37.032382 
L 419.695287 37.276853 
L 422.58573 39.610495 
L 428.366616 39.590997 
L 431.257059 37.521223 
L 434.147501 34.81665 
L 437.037944 33.006644 
L 439.928387 31.603284 
L 442.81883 30.606507 
L 445.709273 29.91433 
L 451.490159 27.697718 
L 454.380602 27.912469 
L 457.271045 27.639183 
L 460.161487 27.726128 
L 463.05193 27.382214 
L 465.942373 28.038932 
L 468.832816 28.475549 
L 471.723259 29.677369 
L 474.613702 30.521553 
L 477.504145 31.780009 
L 480.394588 31.102947 
L 483.285031 31.125085 
L 486.175473 30.724738 
L 491.956359 30.275532 
L 497.737245 29.458173 
L 500.627688 29.037643 
L 506.408574 28.572891 
L 509.299017 28.597056 
L 515.079902 29.431382 
L 517.970345 30.215828 
L 520.860788 31.452264 
L 523.751231 31.385277 
L 529.532117 30.67184 
L 532.42256 31.027063 
L 538.203446 28.817361 
L 541.093888 28.224224 
L 543.984331 27.471461 
L 546.874774 27.216151 
L 549.765217 27.247528 
L 552.65566 26.372098 
L 555.546103 27.219735 
L 558.436546 27.552583 
L 561.326989 27.417146 
L 564.217432 27.618185 
L 567.107874 28.039242 
L 569.998317 27.619097 
L 575.779203 27.473879 
L 578.669646 27.299924 
L 581.560089 27.732548 
L 590.231418 27.560166 
L 593.12186 27.653497 
L 596.012303 27.550157 
L 598.902746 28.905271 
L 601.793189 29.5833 
L 607.574075 32.977845 
L 610.464518 35.820261 
L 613.354961 37.689532 
L 616.245404 38.374078 
L 619.135846 36.32633 
L 624.916732 33.239997 
L 627.807175 31.275287 
L 630.697618 28.88592 
L 633.588061 28.236112 
L 636.478504 26.78155 
L 642.25939 27.68368 
L 645.149832 27.833994 
L 648.040275 27.390339 
L 653.821161 27.099408 
L 656.711604 28.101039 
L 659.602047 27.296627 
L 662.49249 27.00309 
L 665.382933 26.292954 
L 668.273376 27.470857 
L 671.163818 28.893336 
L 674.054261 29.132315 
L 679.835147 29.216925 
L 682.72559 28.796803 
L 685.616033 29.592622 
L 688.506476 29.394393 
L 691.396919 28.516398 
L 694.287362 30.26454 
L 697.177804 32.952579 
L 700.068247 36.488372 
L 702.95869 40.61659 
L 705.849133 44.040374 
L 708.739576 47.849966 
L 711.630019 55.116558 
L 714.520462 56.757041 
L 717.410905 57.015522 
L 720.301348 57.029582 
L 723.191791 56.87775 
L 726.082233 57.212005 
L 728.972676 56.447888 
L 731.863119 56.560009 
L 734.753562 56.120562 
L 737.644005 56.327259 
L 740.534448 55.548079 
L 743.424891 55.652356 
L 746.315334 55.546984 
L 749.205777 56.344289 
L 752.096219 57.835399 
L 754.986662 56.32272 
L 757.877105 56.550835 
L 760.767548 57.053035 
L 763.657991 57.328136 
L 769.438877 58.746831 
L 772.32932 58.717685 
L 775.219763 60.915587 
L 778.110205 61.362751 
L 781.000648 62.815469 
L 783.891091 63.460645 
L 786.781534 64.687684 
L 789.671977 66.192132 
L 792.56242 70.47836 
L 798.343306 74.510261 
L 801.233749 75.929839 
L 804.124191 77.990155 
L 807.014634 79.264949 
L 809.905077 79.575857 
L 812.79552 77.901451 
L 815.685963 80.218087 
L 818.576406 81.29312 
L 824.357292 83.021745 
L 827.247735 83.525526 
L 830.138177 83.884023 
L 833.02862 85.911233 
L 835.919063 86.797281 
L 838.809506 88.034392 
L 841.699949 88.846078 
L 844.590392 89.841685 
L 847.480835 90.327368 
L 850.371278 90.587979 
L 853.261721 91.934097 
L 856.152163 93.412298 
L 859.042606 93.66871 
L 861.933049 94.567712 
L 864.823492 95.065015 
L 873.494821 94.91796 
L 876.385264 93.537 
L 879.275707 93.455863 
L 882.166149 93.845569 
L 885.056592 94.528413 
L 887.947035 92.775099 
L 890.837478 91.542568 
L 893.727921 89.444189 
L 896.618364 87.932605 
L 905.289693 80.722907 
L 908.180135 80.443296 
L 911.070578 79.991821 
L 913.961021 79.061186 
L 916.851464 78.439166 
L 928.413236 76.93713 
L 931.303679 76.471935 
L 934.194122 75.545627 
L 937.084564 73.760357 
L 942.86545 71.965633 
L 945.755893 70.460993 
L 951.536779 69.597308 
L 954.427222 68.662381 
L 957.317665 68.313507 
L 960.208108 67.308566 
L 963.09855 66.564616 
L 965.988993 66.640975 
L 977.550765 65.806615 
L 980.441208 66.613673 
L 983.331651 67.693149 
L 986.222094 67.656864 
L 989.112536 68.333181 
L 992.002979 68.564689 
L 994.893422 70.054673 
L 997.783865 71.803485 
L 1000.674308 72.957387 
L 1003.564751 73.940338 
L 1006.455194 76.337983 
L 1009.345637 76.951738 
L 1012.23608 77.965649 
L 1015.126522 79.170917 
L 1018.016965 80.130003 
L 1020.907408 80.546438 
L 1023.797851 80.16384 
L 1026.688294 79.434581 
L 1029.578737 79.375713 
L 1032.46918 79.493609 
L 1035.359623 79.103076 
L 1038.250066 79.206536 
L 1041.140508 79.674967 
L 1044.030951 80.632764 
L 1046.921394 82.007241 
L 1049.811837 82.890882 
L 1052.70228 83.493943 
L 1055.592723 84.987849 
L 1058.483166 86.137184 
L 1064.264052 88.841036 
L 1070.044937 90.187494 
L 1072.93538 91.090769 
L 1075.825823 92.744929 
L 1078.716266 94.679444 
L 1081.606709 96.144273 
L 1084.497152 97.361564 
L 1087.387595 98.801584 
L 1090.278038 99.472533 
L 1093.16848 100.870984 
L 1096.058923 102.944764 
L 1101.839809 108.445095 
L 1104.730252 111.727896 
L 1107.620695 115.818778 
L 1110.511138 118.972405 
L 1110.511138 118.972405 
" clip-path="url(#p3e3495e0f1)" style="fill: none; stroke: #96c6ad; stroke-width: 2; stroke-linecap: square"/>
   </g>
   <g id="line2d_19">
    <path d="M 220.254728 226.048464 
L 223.14517 228.96 
L 246.268714 228.96 
L 249.159156 226.048464 
L 252.049599 223.480307 
L 263.611371 223.480307 
L 266.501814 221.183012 
L 269.392257 223.480307 
L 272.2827 226.048464 
L 275.173142 223.480307 
L 280.954028 223.480307 
L 283.844471 221.183012 
L 295.406243 221.183012 
L 298.296686 219.104857 
L 301.187128 217.207649 
L 309.858457 217.207649 
L 312.7489 213.846527 
L 324.310672 213.846527 
L 327.201115 215.462387 
L 330.091557 212.342197 
L 332.982 213.846527 
L 335.872443 209.613124 
L 338.762886 209.613124 
L 341.653329 208.366834 
L 344.543772 208.366834 
L 347.434215 206.069539 
L 350.324658 207.187945 
L 353.215101 203.022152 
L 356.105543 203.991384 
L 358.995986 202.094176 
L 361.886429 201.204088 
L 364.776872 201.204088 
L 367.667315 195.821518 
L 370.557758 186.531118 
L 373.448201 180.708045 
L 376.338644 171.417645 
L 379.229087 168.120185 
L 382.119529 161.991449 
L 385.009972 157.681733 
L 387.900415 145.479796 
L 390.790858 139.790447 
L 393.681301 135.84118 
L 399.462187 128.861994 
L 402.35263 126.812585 
L 405.243073 125.609486 
L 408.133515 122.283391 
L 411.023958 116.850488 
L 413.914401 112.684694 
L 416.804844 109.291351 
L 419.695287 107.251866 
L 422.58573 106.468538 
L 425.476173 104.604358 
L 428.366616 100.523639 
L 431.257059 96.984794 
L 434.147501 94.61365 
L 437.037944 94.190761 
L 439.928387 94.864731 
L 442.81883 94.313528 
L 445.709273 93.393654 
L 448.599716 90.198222 
L 451.490159 87.331666 
L 454.380602 83.956436 
L 460.161487 76.392035 
L 463.05193 75.357389 
L 465.942373 75.138467 
L 468.832816 74.227306 
L 474.613702 75.710644 
L 477.504145 77.057199 
L 480.394588 78.770182 
L 486.175473 80.119863 
L 489.065916 81.955712 
L 491.956359 81.794552 
L 497.737245 82.898558 
L 500.627688 82.521795 
L 503.518131 82.818093 
L 506.408574 82.948519 
L 509.299017 83.360223 
L 512.189459 84.569411 
L 515.079902 85.268483 
L 517.970345 85.544107 
L 520.860788 85.148985 
L 523.751231 84.932996 
L 526.641674 83.799845 
L 529.532117 82.018299 
L 532.42256 81.229021 
L 535.313003 80.66046 
L 538.203446 80.515444 
L 541.093888 81.468571 
L 543.984331 80.248661 
L 546.874774 80.985042 
L 549.765217 82.084764 
L 552.65566 82.810445 
L 555.546103 83.775854 
L 558.436546 84.183269 
L 561.326989 85.034371 
L 564.217432 86.843233 
L 567.107874 87.055867 
L 569.998317 87.889127 
L 572.88876 88.490962 
L 575.779203 89.852244 
L 578.669646 91.531158 
L 584.450532 93.042414 
L 587.340975 93.54951 
L 593.12186 96.744425 
L 596.012303 96.882495 
L 598.902746 96.802453 
L 601.793189 97.782913 
L 604.683632 98.035075 
L 607.574075 98.556191 
L 610.464518 102.011976 
L 613.354961 104.091054 
L 616.245404 103.629255 
L 619.135846 102.657863 
L 622.026289 101.295237 
L 624.916732 100.360569 
L 627.807175 99.98755 
L 630.697618 97.654141 
L 633.588061 96.729942 
L 636.478504 98.204818 
L 639.368947 99.406957 
L 645.149832 101.420549 
L 648.040275 101.664274 
L 650.930718 103.520259 
L 653.821161 104.960437 
L 656.711604 106.187481 
L 659.602047 108.933689 
L 662.49249 111.047348 
L 665.382933 111.915926 
L 668.273376 112.504865 
L 671.163818 115.697499 
L 674.054261 117.648176 
L 676.944704 119.17411 
L 685.616033 120.924438 
L 688.506476 121.412942 
L 691.396919 122.166853 
L 694.287362 123.287706 
L 697.177804 123.312191 
L 700.068247 123.608179 
L 702.95869 121.570699 
L 705.849133 120.814924 
L 708.739576 120.403717 
L 711.630019 118.852271 
L 717.410905 117.914315 
L 720.301348 116.941757 
L 723.191791 117.441322 
L 726.082233 116.905203 
L 728.972676 116.186715 
L 731.863119 115.993212 
L 734.753562 115.388702 
L 737.644005 114.098924 
L 740.534448 113.859403 
L 746.315334 116.186715 
L 749.205777 117.180859 
L 752.096219 118.852271 
L 754.986662 119.62454 
L 757.877105 122.827635 
L 760.767548 125.609486 
L 763.657991 124.834027 
L 766.548434 125.071749 
L 772.32932 126.049433 
L 775.219763 126.049433 
L 778.110205 125.365862 
L 781.000648 124.314857 
L 783.891091 124.110601 
L 786.781534 124.110601 
L 789.671977 122.947768 
L 792.56242 120.68423 
L 795.452863 119.133619 
L 798.343306 116.36413 
L 801.233749 113.780144 
L 804.124191 111.843415 
L 807.014634 110.509628 
L 809.905077 110.414502 
L 812.79552 108.519554 
L 815.685963 106.209832 
L 818.576406 103.480759 
L 821.466849 101.537558 
L 824.357292 99.447919 
L 827.247735 98.603471 
L 830.138177 98.220315 
L 833.02862 96.664887 
L 835.919063 97.139147 
L 838.809506 98.619254 
L 841.699949 100.429081 
L 844.590392 102.002754 
L 847.480835 103.3725 
L 850.371278 103.303888 
L 853.261721 104.865613 
L 856.152163 104.418173 
L 859.042606 103.411805 
L 861.933049 102.791281 
L 864.823492 102.877482 
L 867.713935 102.781724 
L 870.604378 103.109033 
L 873.494821 101.082079 
L 876.385264 100.054898 
L 879.275707 99.243873 
L 885.056592 96.003782 
L 890.837478 94.255289 
L 893.727921 93.66242 
L 896.618364 92.409842 
L 899.508807 91.841338 
L 902.39925 91.508356 
L 908.180135 91.685696 
L 911.070578 92.208881 
L 913.961021 92.932662 
L 919.741907 92.368316 
L 922.63235 93.93454 
L 925.522793 94.672856 
L 928.413236 94.489186 
L 931.303679 94.712416 
L 934.194122 94.719016 
L 937.084564 95.982787 
L 939.975007 96.962832 
L 942.86545 95.947838 
L 945.755893 95.739318 
L 948.646336 95.767006 
L 954.427222 95.112014 
L 957.317665 94.30705 
L 960.208108 94.891329 
L 963.09855 93.820216 
L 965.988993 91.65126 
L 968.879436 90.77999 
L 971.769879 90.128586 
L 974.660322 89.181455 
L 977.550765 89.413115 
L 980.441208 89.043631 
L 983.331651 89.615897 
L 986.222094 91.152339 
L 992.002979 93.518249 
L 994.893422 96.137227 
L 997.783865 98.035075 
L 1000.674308 99.571269 
L 1003.564751 101.864899 
L 1006.455194 104.792146 
L 1009.345637 106.076064 
L 1012.23608 106.707459 
L 1015.126522 108.309243 
L 1018.016965 110.346808 
L 1020.907408 112.579614 
L 1023.797851 114.504066 
L 1026.688294 115.870962 
L 1029.578737 116.632988 
L 1032.46918 116.886949 
L 1035.359623 120.211609 
L 1041.140508 126.049433 
L 1044.030951 127.366093 
L 1046.921394 129.535906 
L 1049.811837 129.470819 
L 1052.70228 129.212397 
L 1055.592723 131.442004 
L 1058.483166 132.275846 
L 1061.373609 133.297215 
L 1064.264052 135.071543 
L 1067.154494 135.754311 
L 1072.93538 137.467086 
L 1075.825823 138.230547 
L 1078.716266 140.750197 
L 1081.606709 141.414333 
L 1084.497152 142.50909 
L 1087.387595 144.616811 
L 1090.278038 145.821026 
L 1093.16848 147.762049 
L 1096.058923 152.162576 
L 1098.949366 155.008496 
L 1101.839809 159.665294 
L 1104.730252 163.640657 
L 1107.620695 164.759063 
L 1107.620695 164.759063 
" clip-path="url(#p3e3495e0f1)" style="fill: none; stroke: #525886; stroke-width: 2; stroke-linecap: square"/>
   </g>
   <g id="line2d_20">
    <path d="M 176.898084 226.048464 
L 179.788527 228.96 
L 191.350299 228.96 
L 194.240742 226.048464 
L 202.91207 226.048464 
L 205.802513 221.183012 
L 211.583399 221.183012 
L 214.473842 223.480307 
L 223.14517 223.480307 
L 226.035613 228.96 
L 228.926056 228.96 
L 231.816499 226.048464 
L 234.706942 226.048464 
L 237.597385 223.480307 
L 240.487828 223.480307 
L 243.378271 221.183012 
L 249.159156 221.183012 
L 252.049599 223.480307 
L 254.940042 223.480307 
L 257.830485 226.048464 
L 260.720928 226.048464 
L 263.611371 228.96 
L 272.2827 228.96 
L 275.173142 223.480307 
L 278.063585 221.183012 
L 286.734914 221.183012 
L 289.625357 217.207649 
L 292.5158 217.207649 
L 295.406243 219.104857 
L 298.296686 217.207649 
L 301.187128 215.462387 
L 304.077571 215.462387 
L 306.968014 171.417645 
L 309.858457 171.417645 
L 312.7489 171.196281 
L 315.639343 171.196281 
L 318.529786 170.760184 
L 321.420229 170.545363 
L 324.310672 169.706639 
L 327.201115 197.228725 
L 330.091557 193.253361 
L 332.982 187.908679 
L 335.872443 181.754845 
L 338.762886 164.923623 
L 341.653329 159.152232 
L 344.543772 154.28678 
L 347.434215 145.412187 
L 350.324658 138.18204 
L 353.215101 131.370981 
L 358.995986 120.403717 
L 361.886429 117.667078 
L 364.776872 114.45505 
L 367.667315 107.61853 
L 370.557758 102.553605 
L 373.448201 98.01971 
L 376.338644 94.261753 
L 382.119529 88.765546 
L 385.009972 86.834035 
L 387.900415 81.393204 
L 390.790858 74.892453 
L 393.681301 70.740537 
L 396.571744 67.417757 
L 399.462187 64.776118 
L 405.243073 60.987138 
L 408.133515 56.974567 
L 411.023958 55.876863 
L 413.914401 54.934811 
L 416.804844 54.190685 
L 419.695287 54.314508 
L 422.58573 54.650284 
L 425.476173 54.319682 
L 428.366616 49.171641 
L 431.257059 47.096904 
L 434.147501 45.451973 
L 437.037944 43.107177 
L 439.928387 41.83072 
L 442.81883 41.283123 
L 445.709273 38.668465 
L 448.599716 37.204026 
L 451.490159 35.932205 
L 454.380602 35.163414 
L 457.271045 35.767156 
L 460.161487 34.299396 
L 463.05193 33.582376 
L 465.942373 35.133769 
L 468.832816 35.042081 
L 474.613702 34.216906 
L 477.504145 32.930835 
L 480.394588 32.75843 
L 483.285031 32.195522 
L 486.175473 31.261622 
L 489.065916 30.035653 
L 494.846802 28.944349 
L 497.737245 28.744212 
L 506.408574 28.74197 
L 509.299017 29.124818 
L 512.189459 29.110807 
L 515.079902 29.28544 
L 520.860788 29.42312 
L 523.751231 29.510526 
L 526.641674 29.437333 
L 529.532117 28.890111 
L 532.42256 29.243453 
L 535.313003 29.421799 
L 538.203446 28.531618 
L 541.093888 27.892747 
L 543.984331 27.968344 
L 546.874774 27.804523 
L 549.765217 28.154282 
L 552.65566 28.234547 
L 555.546103 28.106949 
L 558.436546 28.854028 
L 561.326989 29.308436 
L 564.217432 28.903981 
L 567.107874 29.109504 
L 572.88876 28.366359 
L 575.779203 28.603738 
L 578.669646 28.280277 
L 581.560089 28.087982 
L 584.450532 28.577976 
L 587.340975 28.859501 
L 590.231418 28.715085 
L 593.12186 29.129381 
L 596.012303 29.089971 
L 601.793189 30.151504 
L 607.574075 30.154921 
L 610.464518 31.277445 
L 613.354961 31.640929 
L 616.245404 31.136162 
L 624.916732 31.16406 
L 627.807175 30.911077 
L 630.697618 29.538411 
L 633.588061 29.37724 
L 642.25939 29.483009 
L 648.040275 29.817554 
L 650.930718 30.268661 
L 653.821161 30.229882 
L 656.711604 30.487179 
L 662.49249 30.630242 
L 668.273376 30.432084 
L 671.163818 29.940706 
L 674.054261 29.847856 
L 676.944704 30.594301 
L 682.72559 31.56534 
L 685.616033 31.29364 
L 691.396919 32.440411 
L 694.287362 33.345746 
L 697.177804 33.070997 
L 702.95869 32.991072 
L 705.849133 33.692215 
L 708.739576 33.965187 
L 711.630019 35.29667 
L 714.520462 35.038233 
L 717.410905 35.574412 
L 720.301348 35.837548 
L 723.191791 35.884159 
L 726.082233 35.749924 
L 728.972676 35.857956 
L 731.863119 35.568717 
L 734.753562 35.819375 
L 737.644005 35.839322 
L 740.534448 36.666823 
L 743.424891 37.194586 
L 746.315334 37.5735 
L 749.205777 37.765455 
L 752.096219 43.413826 
L 754.986662 40.51524 
L 757.877105 41.040277 
L 760.767548 40.63537 
L 763.657991 40.355907 
L 766.548434 40.217236 
L 769.438877 40.304686 
L 772.32932 37.365614 
L 775.219763 41.099466 
L 778.110205 41.105111 
L 786.781534 42.770017 
L 789.671977 43.181573 
L 792.56242 43.467244 
L 795.452863 43.317378 
L 798.343306 44.078519 
L 801.233749 44.231121 
L 804.124191 44.58257 
L 809.905077 44.61637 
L 812.79552 45.027465 
L 815.685963 45.990615 
L 818.576406 46.435934 
L 821.466849 46.333075 
L 824.357292 46.547249 
L 830.138177 47.181045 
L 833.02862 48.998233 
L 835.919063 49.276516 
L 838.809506 49.395933 
L 841.699949 50.158119 
L 847.480835 50.97276 
L 850.371278 51.268605 
L 853.261721 51.306433 
L 859.042606 52.074305 
L 861.933049 53.61595 
L 864.823492 53.401542 
L 870.604378 53.282783 
L 876.385264 53.84565 
L 879.275707 52.985763 
L 882.166149 51.528413 
L 890.837478 51.99601 
L 893.727921 56.309109 
L 896.618364 51.558485 
L 899.508807 51.870765 
L 902.39925 51.704884 
L 905.289693 51.396764 
L 911.070578 50.355707 
L 913.961021 45.799313 
L 916.851464 48.036935 
L 919.741907 46.630747 
L 922.63235 46.397035 
L 925.522793 45.898271 
L 931.303679 45.4258 
L 934.194122 44.107658 
L 937.084564 43.391242 
L 939.975007 43.752244 
L 942.86545 43.175364 
L 945.755893 43.058956 
L 951.536779 43.173501 
L 954.427222 43.030567 
L 960.208108 44.28005 
L 965.988993 45.066025 
L 968.879436 45.294036 
L 971.769879 45.409974 
L 974.660322 47.548193 
L 977.550765 47.287243 
L 980.441208 47.541365 
L 983.331651 48.244313 
L 989.112536 48.516252 
L 992.002979 48.712249 
L 994.893422 48.29843 
L 997.783865 49.524312 
L 1000.674308 49.719567 
L 1003.564751 49.581706 
L 1006.455194 50.173518 
L 1012.23608 50.642368 
L 1015.126522 51.216474 
L 1020.907408 51.670025 
L 1023.797851 52.014626 
L 1029.578737 51.866141 
L 1032.46918 51.605043 
L 1035.359623 53.361884 
L 1038.250066 54.24735 
L 1041.140508 54.669207 
L 1044.030951 55.497766 
L 1046.921394 55.820242 
L 1049.811837 55.899108 
L 1052.70228 56.540518 
L 1055.592723 58.379669 
L 1058.483166 58.55242 
L 1061.373609 59.719233 
L 1064.264052 60.344653 
L 1070.044937 62.560233 
L 1072.93538 63.015043 
L 1075.825823 65.063916 
L 1078.716266 67.334873 
L 1081.606709 68.217363 
L 1087.387595 71.72516 
L 1090.278038 72.338482 
L 1093.16848 73.094075 
L 1096.058923 79.303978 
L 1098.949366 82.363902 
L 1101.839809 87.25184 
L 1104.730252 90.566142 
L 1107.620695 95.018117 
L 1110.511138 99.073939 
L 1113.401581 103.540036 
L 1116.292024 110.414502 
L 1119.182466 124.807773 
L 1124.963352 135.029572 
L 1124.963352 135.029572 
" clip-path="url(#p3e3495e0f1)" style="fill: none; stroke: #937252; stroke-width: 2; stroke-linecap: square"/>
   </g>
   <g id="line2d_21">
    <path d="M 217.364285 226.048464 
L 220.254728 228.96 
L 335.872443 228.96 
L 338.762886 223.480307 
L 341.653329 219.104857 
L 344.543772 213.846527 
L 347.434215 213.846527 
L 350.324658 210.934991 
L 353.215101 205.005712 
L 356.105543 197.228725 
L 361.886429 190.417666 
L 364.776872 187.439755 
L 370.557758 179.067864 
L 373.448201 174.013631 
L 376.338644 169.913315 
L 379.229087 164.759063 
L 382.119529 160.324079 
L 385.009972 146.519936 
L 387.900415 141.470602 
L 390.790858 133.452682 
L 393.681301 129.052424 
L 396.571744 125.636724 
L 399.462187 123.336704 
L 402.35263 120.382288 
L 405.243073 121.034504 
L 408.133515 119.916099 
L 411.023958 116.489185 
L 413.914401 111.117255 
L 416.804844 106.891267 
L 419.695287 104.182561 
L 422.58573 102.039664 
L 425.476173 99.431525 
L 428.366616 98.251342 
L 431.257059 97.874272 
L 434.147501 98.817511 
L 437.037944 99.390593 
L 439.928387 100.334932 
L 442.81883 101.1529 
L 445.709273 102.132211 
L 448.599716 99.945562 
L 451.490159 96.392332 
L 454.380602 96.03882 
L 457.271045 95.864191 
L 460.161487 95.051605 
L 463.05193 95.17259 
L 465.942373 94.778509 
L 468.832816 96.087968 
L 471.723259 99.001513 
L 474.613702 99.251999 
L 477.504145 100.283749 
L 480.394588 101.655198 
L 483.285031 100.870984 
L 486.175473 101.874062 
L 489.065916 100.958692 
L 491.956359 101.81914 
L 494.846802 102.93514 
L 497.737245 103.619324 
L 500.627688 103.540036 
L 503.518131 105.668704 
L 506.408574 105.799989 
L 509.299017 107.858402 
L 512.189459 109.681185 
L 515.079902 110.728629 
L 517.970345 109.98485 
L 520.860788 108.125345 
L 523.751231 106.570612 
L 526.641674 105.932069 
L 529.532117 106.08718 
L 532.42256 105.451638 
L 535.313003 104.625143 
L 538.203446 104.802626 
L 541.093888 106.44592 
L 543.984331 106.673166 
L 546.874774 105.636006 
L 549.765217 103.93939 
L 552.65566 101.800863 
L 558.436546 98.6825 
L 561.326989 98.197074 
L 564.217432 98.509012 
L 567.107874 99.001513 
L 569.998317 99.082001 
L 572.88876 100.515026 
L 575.779203 102.150768 
L 578.669646 103.599475 
L 581.560089 104.356463 
L 584.450532 105.247407 
L 587.340975 105.756139 
L 590.231418 107.298833 
L 593.12186 108.064388 
L 596.012303 108.34621 
L 598.902746 108.11314 
L 601.793189 108.174233 
L 604.683632 107.738136 
L 607.574075 108.482293 
L 610.464518 108.531989 
L 613.354961 107.846345 
L 616.245404 106.165152 
L 619.135846 105.821947 
L 622.026289 105.22602 
L 624.916732 105.002713 
L 630.697618 103.031576 
L 633.588061 103.411805 
L 636.478504 103.461035 
L 639.368947 102.810407 
L 642.25939 102.327849 
L 648.040275 102.839128 
L 650.930718 101.828284 
L 653.821161 100.360569 
L 659.602047 98.953362 
L 665.382933 97.699503 
L 668.273376 97.391392 
L 671.163818 96.77342 
L 674.054261 96.428001 
L 676.944704 96.335384 
L 679.835147 96.513844 
L 682.72559 97.279748 
L 685.616033 96.271494 
L 688.506476 94.443509 
L 691.396919 94.75866 
L 694.287362 94.495719 
L 697.177804 93.998313 
L 700.068247 94.534958 
L 705.849133 95.362134 
L 708.739576 94.944624 
L 711.630019 95.098575 
L 714.520462 95.892038 
L 717.410905 96.955517 
L 723.191791 96.349607 
L 726.082233 97.080217 
L 728.972676 99.870188 
L 734.753562 99.554782 
L 737.644005 100.088651 
L 740.534448 101.348854 
L 743.424891 101.573687 
L 749.205777 101.582729 
L 752.096219 103.3725 
L 754.986662 102.676873 
L 757.877105 100.914794 
L 760.767548 99.45612 
L 763.657991 99.13852 
L 766.548434 99.073939 
L 769.438877 98.658761 
L 772.32932 98.012031 
L 775.219763 97.593804 
L 778.110205 98.540453 
L 781.000648 98.977424 
L 783.891091 99.761771 
L 786.781534 100.046468 
L 789.671977 100.549499 
L 792.56242 100.566756 
L 795.452863 101.609877 
L 801.233749 101.411574 
L 804.124191 99.811743 
L 807.014634 98.969401 
L 809.905077 98.635048 
L 812.79552 98.4541 
L 815.685963 98.050452 
L 824.357292 98.228068 
L 827.247735 97.669251 
L 830.138177 96.766168 
L 833.02862 96.165425 
L 838.809506 96.549712 
L 841.699949 96.571261 
L 844.590392 96.911674 
L 847.480835 98.142941 
L 850.371278 99.009548 
L 853.261721 99.30896 
L 856.152163 99.398773 
L 859.042606 99.28453 
L 861.933049 99.300814 
L 867.713935 98.54832 
L 870.604378 98.313528 
L 873.494821 98.360285 
L 876.385264 97.767724 
L 879.275707 97.707073 
L 882.166149 97.272325 
L 887.947035 98.251342 
L 890.837478 98.259106 
L 893.727921 98.469775 
L 899.508807 98.54832 
L 902.39925 99.154695 
L 908.180135 99.374242 
L 911.070578 100.309325 
L 913.961021 100.853485 
L 919.741907 103.919248 
L 922.63235 104.981565 
L 925.522793 104.865613 
L 928.413236 104.233565 
L 931.303679 103.828836 
L 934.194122 103.909183 
L 937.084564 103.225737 
L 939.975007 102.160052 
L 942.86545 100.592667 
L 945.755893 101.339909 
L 948.646336 101.117461 
L 951.536779 100.054898 
L 954.427222 99.828425 
L 957.317665 100.369121 
L 963.09855 102.132211 
L 965.988993 100.670585 
L 968.879436 99.736829 
L 971.769879 99.382416 
L 974.660322 99.243873 
L 977.550765 99.325262 
L 980.441208 99.057823 
L 983.331651 99.130436 
L 986.222094 100.283749 
L 989.112536 100.941122 
L 992.002979 101.855739 
L 994.893422 101.600824 
L 997.783865 101.501488 
L 1000.674308 101.170642 
L 1003.564751 101.79173 
L 1006.455194 101.727909 
L 1009.345637 102.337209 
L 1012.23608 102.346573 
L 1015.126522 101.618933 
L 1018.016965 101.046754 
L 1020.907408 101.029113 
L 1026.688294 102.039664 
L 1029.578737 101.188398 
L 1032.46918 100.906025 
L 1035.359623 101.10861 
L 1038.250066 101.429527 
L 1044.030951 100.844741 
L 1046.921394 101.002679 
L 1049.811837 100.792348 
L 1052.70228 101.49248 
L 1055.592723 101.746124 
L 1058.483166 101.304164 
L 1064.264052 101.8924 
L 1067.154494 102.095145 
L 1070.044937 103.23549 
L 1072.93538 103.688938 
L 1075.825823 103.879019 
L 1078.716266 104.521413 
L 1081.606709 104.802626 
L 1084.497152 104.718925 
L 1087.387595 105.183309 
L 1090.278038 106.020569 
L 1093.16848 105.592485 
L 1096.058923 106.949026 
L 1098.949366 109.252748 
L 1101.839809 112.489946 
L 1104.730252 114.586006 
L 1107.620695 116.010733 
L 1110.511138 119.052863 
L 1113.401581 126.30086 
L 1116.292024 137.095152 
L 1119.182466 148.527184 
L 1119.182466 148.527184 
" clip-path="url(#p3e3495e0f1)" style="fill: none; stroke: #d18cad; stroke-width: 2; stroke-linecap: square"/>
   </g>
   <g id="line2d_22">
    <path d="M 139.322327 226.048464 
L 142.21277 228.96 
L 168.226756 228.96 
L 171.117198 226.048464 
L 176.898084 226.048464 
L 179.788527 223.480307 
L 188.459856 223.480307 
L 191.350299 226.048464 
L 197.131184 226.048464 
L 200.021627 228.96 
L 205.802513 228.96 
L 208.692956 226.048464 
L 226.035613 226.048464 
L 228.926056 228.96 
L 243.378271 228.96 
L 246.268714 226.048464 
L 263.611371 226.048464 
L 266.501814 228.96 
L 283.844471 228.96 
L 286.734914 226.048464 
L 298.296686 226.048464 
L 301.187128 223.480307 
L 304.077571 219.104857 
L 306.968014 215.462387 
L 312.7489 215.462387 
L 315.639343 212.342197 
L 318.529786 212.342197 
L 321.420229 207.187945 
L 324.310672 207.187945 
L 327.201115 208.366834 
L 330.091557 205.005712 
L 332.982 199.526019 
L 335.872443 197.967919 
L 338.762886 195.150569 
L 341.653329 192.65595 
L 344.543772 187.439755 
L 347.434215 184.820112 
L 350.324658 183.619581 
L 353.215101 170.760184 
L 356.105543 166.286825 
L 358.995986 162.875521 
L 361.886429 160.593269 
L 364.776872 159.27937 
L 367.667315 155.863669 
L 370.557758 152.6275 
L 376.338644 149.64559 
L 379.229087 148.371994 
L 382.119529 147.241993 
L 385.009972 143.975467 
L 387.900415 141.302229 
L 390.790858 135.197944 
L 393.681301 128.42402 
L 396.571744 124.009186 
L 402.35263 116.525047 
L 405.243073 113.544081 
L 408.133515 109.878747 
L 411.023958 105.354659 
L 413.914401 100.190223 
L 416.804844 96.499513 
L 419.695287 93.189616 
L 422.58573 91.012658 
L 425.476173 88.352492 
L 428.366616 84.142589 
L 431.257059 80.505123 
L 434.147501 77.797912 
L 437.037944 75.910327 
L 439.928387 73.732605 
L 442.81883 70.994783 
L 445.709273 69.865928 
L 451.490159 65.481265 
L 454.380602 62.762048 
L 460.161487 57.801374 
L 463.05193 56.396596 
L 465.942373 55.385528 
L 468.832816 54.717642 
L 471.723259 53.397573 
L 474.613702 52.802522 
L 477.504145 51.580382 
L 480.394588 51.030541 
L 483.285031 50.68438 
L 486.175473 51.326273 
L 489.065916 49.102275 
L 491.956359 48.686654 
L 494.846802 48.019096 
L 497.737245 48.623594 
L 500.627688 49.437263 
L 503.518131 50.122231 
L 506.408574 50.080435 
L 512.189459 53.050117 
L 515.079902 56.042013 
L 517.970345 56.466154 
L 520.860788 57.914592 
L 523.751231 58.866355 
L 526.641674 59.280826 
L 529.532117 60.975899 
L 532.42256 60.830313 
L 535.313003 59.646432 
L 538.203446 59.017329 
L 541.093888 57.677872 
L 549.765217 56.010672 
L 552.65566 56.468439 
L 555.546103 57.486738 
L 558.436546 58.922528 
L 564.217432 60.482901 
L 567.107874 61.051876 
L 569.998317 61.886538 
L 572.88876 62.16509 
L 578.669646 60.685693 
L 581.560089 60.781536 
L 584.450532 61.063155 
L 587.340975 60.956244 
L 590.231418 61.579709 
L 593.12186 62.088096 
L 598.902746 63.484269 
L 601.793189 64.63114 
L 604.683632 64.659394 
L 607.574075 64.358802 
L 610.464518 64.549908 
L 613.354961 65.266462 
L 616.245404 65.310967 
L 619.135846 66.172516 
L 622.026289 66.090672 
L 624.916732 66.675606 
L 627.807175 67.69506 
L 630.697618 68.055467 
L 633.588061 67.679774 
L 636.478504 68.534871 
L 642.25939 69.460083 
L 645.149832 69.505729 
L 650.930718 70.793353 
L 653.821161 69.815309 
L 656.711604 68.467434 
L 659.602047 68.045753 
L 662.49249 68.392308 
L 665.382933 68.364696 
L 668.273376 67.900553 
L 671.163818 69.016928 
L 674.054261 70.530544 
L 676.944704 71.651699 
L 679.835147 71.494136 
L 685.616033 69.204579 
L 688.506476 68.396256 
L 691.396919 67.26167 
L 694.287362 68.191926 
L 697.177804 69.369077 
L 700.068247 70.17856 
L 702.95869 68.782603 
L 705.849133 69.804778 
L 708.739576 70.421968 
L 711.630019 69.225073 
L 714.520462 68.828864 
L 717.410905 67.58828 
L 720.301348 67.651141 
L 723.191791 68.402178 
L 728.972676 68.455554 
L 731.863119 68.221279 
L 737.644005 69.165692 
L 743.424891 71.715964 
L 746.315334 72.862697 
L 749.205777 73.447056 
L 752.096219 74.385204 
L 754.986662 74.317763 
L 757.877105 72.362146 
L 760.767548 71.25878 
L 763.657991 70.622167 
L 769.438877 68.871188 
L 775.219763 67.656864 
L 778.110205 68.937865 
L 781.000648 69.151383 
L 783.891091 70.298847 
L 786.781534 70.906013 
L 789.671977 70.574126 
L 792.56242 71.478215 
L 795.452863 72.72504 
L 798.343306 74.188653 
L 801.233749 74.927048 
L 804.124191 72.002865 
L 807.014634 71.261031 
L 809.905077 71.077218 
L 812.79552 69.422807 
L 818.576406 66.943573 
L 821.466849 66.439746 
L 824.357292 67.735238 
L 827.247735 68.096316 
L 830.138177 68.65439 
L 833.02862 69.708132 
L 835.919063 70.093045 
L 838.809506 70.685656 
L 841.699949 70.591583 
L 844.590392 69.364949 
L 853.261721 69.836386 
L 856.152163 69.424877 
L 859.042606 68.766535 
L 861.933049 69.507806 
L 864.823492 70.965893 
L 867.713935 71.068291 
L 870.604378 71.69988 
L 879.275707 72.833644 
L 882.166149 72.012183 
L 885.056592 72.404806 
L 890.837478 72.485615 
L 893.727921 72.002865 
L 896.618364 71.926143 
L 899.508807 71.437328 
L 902.39925 70.402481 
L 905.289693 69.177965 
L 908.180135 68.425885 
L 911.070578 66.93988 
L 916.851464 66.274358 
L 919.741907 66.256457 
L 922.63235 66.479482 
L 925.522793 67.0046 
L 928.413236 66.851432 
L 931.303679 67.762065 
L 934.194122 67.762065 
L 937.084564 67.17191 
L 939.975007 66.222484 
L 942.86545 66.333538 
L 945.755893 66.186781 
L 948.646336 66.355098 
L 951.536779 65.659868 
L 954.427222 65.314394 
L 957.317665 65.089344 
L 960.208108 64.525102 
L 963.09855 63.833727 
L 965.988993 62.710278 
L 968.879436 61.098438 
L 971.769879 60.685693 
L 974.660322 58.415858 
L 977.550765 56.579518 
L 980.441208 56.143057 
L 983.331651 54.989176 
L 986.222094 54.783095 
L 989.112536 54.963576 
L 994.893422 55.63146 
L 997.783865 55.519627 
L 1000.674308 55.87464 
L 1003.564751 57.213187 
L 1009.345637 59.214653 
L 1012.23608 59.178407 
L 1015.126522 61.989291 
L 1018.016965 63.609113 
L 1020.907408 64.654405 
L 1023.797851 64.80456 
L 1029.578737 64.386704 
L 1032.46918 64.816283 
L 1035.359623 64.404778 
L 1038.250066 65.316108 
L 1041.140508 65.286991 
L 1046.921394 65.614646 
L 1049.811837 66.056957 
L 1052.70228 66.119105 
L 1055.592723 66.925113 
L 1058.483166 68.612484 
L 1061.373609 70.683464 
L 1064.264052 72.526132 
L 1067.154494 74.820777 
L 1070.044937 76.902113 
L 1072.93538 77.996285 
L 1075.825823 80.422726 
L 1081.606709 84.648299 
L 1084.497152 87.937441 
L 1087.387595 92.315041 
L 1090.278038 94.255289 
L 1093.16848 98.501159 
L 1096.058923 104.573216 
L 1098.949366 111.047348 
L 1101.839809 119.769832 
L 1104.730252 125.855863 
L 1107.620695 129.180308 
L 1110.511138 132.055229 
L 1113.401581 140.15868 
L 1113.401581 140.15868 
" clip-path="url(#p3e3495e0f1)" style="fill: none; stroke: #a4a86f; stroke-width: 2; stroke-linecap: square"/>
   </g>
   <g id="line2d_23">
    <path d="M 124.870112 219.104857 
L 130.650998 219.104857 
L 133.541441 223.480307 
L 139.322327 223.480307 
L 142.21277 226.048464 
L 145.103212 226.048464 
L 147.993655 228.96 
L 165.336313 228.96 
L 168.226756 226.048464 
L 185.569413 226.048464 
L 188.459856 228.96 
L 205.802513 228.96 
L 208.692956 223.480307 
L 220.254728 223.480307 
L 223.14517 221.183012 
L 226.035613 221.183012 
L 228.926056 226.048464 
L 231.816499 223.480307 
L 246.268714 223.480307 
L 249.159156 219.104857 
L 252.049599 221.183012 
L 254.940042 221.183012 
L 257.830485 219.104857 
L 260.720928 219.104857 
L 263.611371 221.183012 
L 266.501814 221.183012 
L 269.392257 223.480307 
L 283.844471 223.480307 
L 286.734914 221.183012 
L 289.625357 219.104857 
L 292.5158 208.366834 
L 295.406243 199.526019 
L 298.296686 196.513771 
L 301.187128 195.150569 
L 304.077571 192.65595 
L 306.968014 184.412546 
L 309.858457 170.332638 
L 312.7489 161.281154 
L 315.639343 158.160964 
L 318.529786 153.490194 
L 321.420229 150.911175 
L 324.310672 149.892899 
L 327.201115 143.912358 
L 330.091557 139.634517 
L 332.982 133.452682 
L 335.872443 130.638879 
L 341.653329 127.75307 
L 344.543772 125.663996 
L 347.434215 121.368077 
L 350.324658 118.397796 
L 353.215101 116.310754 
L 356.105543 113.388114 
L 358.995986 110.922076 
L 361.886429 110.414502 
L 364.776872 110.852791 
L 367.667315 109.931734 
L 370.557758 109.537435 
L 373.448201 110.238934 
L 376.338644 110.279324 
L 379.229087 109.825888 
L 382.119529 108.908364 
L 385.009972 107.774146 
L 387.900415 106.412036 
L 393.681301 101.474475 
L 396.571744 101.339909 
L 399.462187 99.937174 
L 405.243073 99.521845 
L 408.133515 98.611361 
L 411.023958 98.485462 
L 413.914401 99.687029 
L 416.804844 99.033672 
L 419.695287 100.506416 
L 422.58573 100.635921 
L 425.476173 100.35202 
L 428.366616 101.555615 
L 431.257059 102.449843 
L 437.037944 103.245248 
L 439.928387 102.839128 
L 442.81883 103.07027 
L 445.709273 103.540036 
L 448.599716 101.23285 
L 451.490159 101.170642 
L 454.380602 99.653892 
L 457.271045 99.962347 
L 460.161487 100.394798 
L 463.05193 100.713994 
L 465.942373 101.286314 
L 471.723259 106.020569 
L 474.613702 109.188562 
L 477.504145 110.922076 
L 480.394588 112.223135 
L 483.285031 112.957249 
L 486.175473 112.85085 
L 489.065916 116.116152 
L 491.956359 116.614961 
L 494.846802 117.292105 
L 497.737245 117.704933 
L 500.627688 118.912255 
L 503.518131 119.316421 
L 506.408574 120.105609 
L 509.299017 121.480412 
L 512.189459 121.958642 
L 515.079902 123.807761 
L 520.860788 124.21249 
L 523.751231 123.958655 
L 526.641674 123.533805 
L 529.532117 124.624873 
L 532.42256 125.855863 
L 535.313003 126.413544 
L 538.203446 128.300483 
L 541.093888 129.864288 
L 543.984331 129.963774 
L 546.874774 130.914884 
L 549.765217 132.79947 
L 552.65566 133.727445 
L 555.546103 134.085878 
L 561.326989 134.655421 
L 567.107874 136.865874 
L 569.998317 136.19216 
L 572.88876 137.941108 
L 575.779203 138.474717 
L 578.669646 138.18204 
L 581.560089 137.702809 
L 587.340975 138.474717 
L 590.231418 137.702809 
L 593.12186 137.845475 
L 601.793189 143.475637 
L 604.683632 144.747375 
L 607.574075 145.010872 
L 610.464518 150.311417 
L 613.354961 149.892899 
L 616.245404 147.537647 
L 619.135846 144.878726 
L 622.026289 142.39123 
L 624.916732 139.686369 
L 627.807175 138.327887 
L 630.697618 136.548882 
L 633.588061 136.103884 
L 636.478504 136.729455 
L 639.368947 138.18204 
L 642.25939 138.425664 
L 645.149832 139.842672 
L 650.930718 142.099336 
L 653.821161 141.024466 
L 659.602047 136.369791 
L 662.49249 137.941108 
L 665.382933 137.989082 
L 668.273376 138.327887 
L 671.163818 138.971416 
L 674.054261 138.18204 
L 676.944704 138.085347 
L 679.835147 138.376721 
L 682.72559 135.84118 
L 685.616033 134.94587 
L 688.506476 133.687981 
L 691.396919 133.609266 
L 694.287362 134.328148 
L 697.177804 134.166336 
L 700.068247 134.287582 
L 702.95869 132.424174 
L 705.849133 131.692423 
L 708.739576 130.536271 
L 711.630019 129.052424 
L 717.410905 129.405926 
L 720.301348 129.02057 
L 723.191791 129.997038 
L 728.972676 131.264878 
L 731.863119 130.366324 
L 734.753562 129.116272 
L 737.644005 129.438348 
L 740.534448 130.468133 
L 743.424891 133.142849 
L 746.315334 132.648576 
L 749.205777 132.386998 
L 752.096219 134.206676 
L 754.986662 132.91333 
L 757.877105 131.159289 
L 760.767548 130.984435 
L 763.657991 128.39307 
L 766.548434 127.248391 
L 769.438877 127.484433 
L 772.32932 123.883077 
L 775.219763 122.541987 
L 778.110205 124.28922 
L 781.000648 120.468132 
L 783.891091 119.769832 
L 789.671977 120.211609 
L 792.56242 123.807761 
L 795.452863 124.417706 
L 798.343306 123.068567 
L 801.233749 125.500872 
L 804.124191 124.860313 
L 807.014634 123.832837 
L 809.905077 124.263613 
L 812.79552 121.752401 
L 815.685963 124.676974 
L 821.466849 127.073022 
L 824.357292 130.776445 
L 827.247735 134.94587 
L 830.138177 136.325248 
L 833.02862 138.622542 
L 835.919063 137.280326 
L 838.809506 138.13364 
L 841.699949 140.371925 
L 844.590392 139.738346 
L 847.480835 139.895023 
L 850.371278 136.957296 
L 853.261721 129.997038 
L 856.152163 126.927951 
L 859.042606 122.732003 
L 861.933049 122.541987 
L 864.823492 122.074069 
L 867.713935 121.390498 
L 870.604378 122.353613 
L 876.385264 121.525509 
L 879.275707 122.636788 
L 882.166149 120.126768 
L 885.056592 118.792452 
L 887.947035 117.97177 
L 890.837478 117.780839 
L 893.727921 121.034504 
L 896.618364 119.17411 
L 899.508807 120.190368 
L 902.39925 121.548092 
L 908.180135 121.866738 
L 911.070578 121.866738 
L 913.961021 121.256318 
L 916.851464 127.514118 
L 919.741907 128.486051 
L 922.63235 130.604622 
L 925.522793 133.806589 
L 928.413236 135.754311 
L 931.303679 136.05988 
L 934.194122 138.672041 
L 937.084564 139.021714 
L 939.975007 140.211796 
L 942.86545 139.072128 
L 945.755893 139.021714 
L 954.427222 141.358209 
L 957.317665 141.414333 
L 960.208108 142.56826 
L 963.09855 145.344786 
L 965.988993 146.307901 
L 968.879436 145.752352 
L 971.769879 145.547616 
L 974.660322 146.877976 
L 977.550765 147.389319 
L 980.441208 148.527184 
L 983.331651 147.988783 
L 986.222094 148.999494 
L 989.112536 149.320149 
L 992.002979 148.762061 
L 994.893422 144.038759 
L 997.783865 145.615648 
L 1000.674308 146.449029 
L 1003.564751 147.612191 
L 1006.455194 147.837365 
L 1009.345637 148.920062 
L 1012.23608 148.840918 
L 1015.126522 152.816282 
L 1018.016965 152.162576 
L 1023.797851 151.979346 
L 1026.688294 152.6275 
L 1029.578737 151.979346 
L 1032.46918 152.440339 
L 1035.359623 156.753758 
L 1038.250066 159.665294 
L 1041.140508 160.865824 
L 1044.030951 162.429005 
L 1046.921394 162.725664 
L 1049.811837 163.954391 
L 1052.70228 167.001779 
L 1055.592723 175.571732 
L 1058.483166 176.394627 
L 1061.373609 175.039897 
L 1064.264052 175.039897 
L 1067.154494 178.139888 
L 1070.044937 177.542478 
L 1072.93538 178.139888 
L 1075.825823 182.854446 
L 1078.716266 181.754845 
L 1081.606709 188.877911 
L 1084.497152 190.417666 
L 1087.387595 188.877911 
L 1090.278038 192.074472 
L 1093.16848 191.508099 
L 1096.058923 188.877911 
L 1098.949366 188.877911 
L 1101.839809 187.439755 
L 1104.730252 186.980703 
L 1104.730252 186.980703 
" clip-path="url(#p3e3495e0f1)" style="fill: none; stroke: #d3d3d3; stroke-width: 2; stroke-linecap: square"/>
   </g>
   <g id="patch_3">
    <path d="M 59.690625 228.96 
L 59.690625 7.2 
" style="fill: none; stroke: #000000; stroke-width: 0.8; stroke-linejoin: miter; stroke-linecap: square"/>
   </g>
   <g id="patch_4">
    <path d="M 59.690625 228.96 
L 1175.690625 228.96 
" style="fill: none; stroke: #000000; stroke-width: 0.8; stroke-linejoin: miter; stroke-linecap: square"/>
   </g>
   <g id="legend_1">
    <g id="line2d_24">
     <path d="M 66.890625 17.67875 
L 74.890625 17.67875 
L 82.890625 17.67875 
" style="fill: none; stroke: #947383; stroke-width: 2; stroke-linecap: square"/>
    </g>
    <g id="text_19">
     <!-- North America -->
     <g transform="translate(89.290625 20.47875)scale(0.08 -0.08)">
      <defs>
       <path id="DejaVuSans-4e" d="M 628 4666 
L 1478 4666 
L 3547 763 
L 3547 4666 
L 4159 4666 
L 4159 0 
L 3309 0 
L 1241 3903 
L 1241 0 
L 628 0 
L 628 4666 
z
" transform="scale(0.015625)"/>
       <path id="DejaVuSans-68" d="M 3513 2113 
L 3513 0 
L 2938 0 
L 2938 2094 
Q 2938 2591 2744 2837 
Q 2550 3084 2163 3084 
Q 1697 3084 1428 2787 
Q 1159 2491 1159 1978 
L 1159 0 
L 581 0 
L 581 4863 
L 1159 4863 
L 1159 2956 
Q 1366 3272 1645 3428 
Q 1925 3584 2291 3584 
Q 2894 3584 3203 3211 
Q 3513 2838 3513 2113 
z
" transform="scale(0.015625)"/>
       <path id="DejaVuSans-41" d="M 2188 4044 
L 1331 1722 
L 3047 1722 
L 2188 4044 
z
M 1831 4666 
L 2547 4666 
L 4325 0 
L 3669 0 
L 3244 1197 
L 1141 1197 
L 716 0 
L 50 0 
L 1831 4666 
z
" transform="scale(0.015625)"/>
       <path id="DejaVuSans-6d" d="M 3328 2828 
Q 3544 3216 3844 3400 
Q 4144 3584 4550 3584 
Q 5097 3584 5394 3201 
Q 5691 2819 5691 2113 
L 5691 0 
L 5113 0 
L 5113 2094 
Q 5113 2597 4934 2840 
Q 4756 3084 4391 3084 
Q 3944 3084 3684 2787 
Q 3425 2491 3425 1978 
L 3425 0 
L 2847 0 
L 2847 2094 
Q 2847 2600 2669 2842 
Q 2491 3084 2119 3084 
Q 1678 3084 1418 2786 
Q 1159 2488 1159 1978 
L 1159 0 
L 581 0 
L 581 3500 
L 1159 3500 
L 1159 2956 
Q 1356 3278 1631 3431 
Q 1906 3584 2284 3584 
Q 2666 3584 2933 3390 
Q 3200 3197 3328 2828 
z
" transform="scale(0.015625)"/>
       <path id="DejaVuSans-63" d="M 3122 3366 
L 3122 2828 
Q 2878 2963 2633 3030 
Q 2388 3097 2138 3097 
Q 1578 3097 1268 2742 
Q 959 2388 959 1747 
Q 959 1106 1268 751 
Q 1578 397 2138 397 
Q 2388 397 2633 464 
Q 2878 531 3122 666 
L 3122 134 
Q 2881 22 2623 -34 
Q 2366 -91 2075 -91 
Q 1284 -91 818 406 
Q 353 903 353 1747 
Q 353 2603 823 3093 
Q 1294 3584 2113 3584 
Q 2378 3584 2631 3529 
Q 2884 3475 3122 3366 
z
" transform="scale(0.015625)"/>
      </defs>
      <use xlink:href="#DejaVuSans-4e"/>
      <use xlink:href="#DejaVuSans-6f" x="74.804688"/>
      <use xlink:href="#DejaVuSans-72" x="135.986328"/>
      <use xlink:href="#DejaVuSans-74" x="177.099609"/>
      <use xlink:href="#DejaVuSans-68" x="216.308594"/>
      <use xlink:href="#DejaVuSans-20" x="279.6875"/>
      <use xlink:href="#DejaVuSans-41" x="311.474609"/>
      <use xlink:href="#DejaVuSans-6d" x="379.882812"/>
      <use xlink:href="#DejaVuSans-65" x="477.294922"/>
      <use xlink:href="#DejaVuSans-72" x="538.818359"/>
      <use xlink:href="#DejaVuSans-69" x="579.931641"/>
      <use xlink:href="#DejaVuSans-63" x="607.714844"/>
      <use xlink:href="#DejaVuSans-61" x="662.695312"/>
     </g>
    </g>
    <g id="line2d_25">
     <path d="M 66.890625 29.42125 
L 74.890625 29.42125 
L 82.890625 29.42125 
" style="fill: none; stroke: #96c6ad; stroke-width: 2; stroke-linecap: square"/>
    </g>
    <g id="text_20">
     <!-- United Kingdom -->
     <g transform="translate(89.290625 32.22125)scale(0.08 -0.08)">
      <defs>
       <path id="DejaVuSans-55" d="M 556 4666 
L 1191 4666 
L 1191 1831 
Q 1191 1081 1462 751 
Q 1734 422 2344 422 
Q 2950 422 3222 751 
Q 3494 1081 3494 1831 
L 3494 4666 
L 4128 4666 
L 4128 1753 
Q 4128 841 3676 375 
Q 3225 -91 2344 -91 
Q 1459 -91 1007 375 
Q 556 841 556 1753 
L 556 4666 
z
" transform="scale(0.015625)"/>
       <path id="DejaVuSans-4b" d="M 628 4666 
L 1259 4666 
L 1259 2694 
L 3353 4666 
L 4166 4666 
L 1850 2491 
L 4331 0 
L 3500 0 
L 1259 2247 
L 1259 0 
L 628 0 
L 628 4666 
z
" transform="scale(0.015625)"/>
      </defs>
      <use xlink:href="#DejaVuSans-55"/>
      <use xlink:href="#DejaVuSans-6e" x="73.193359"/>
      <use xlink:href="#DejaVuSans-69" x="136.572266"/>
      <use xlink:href="#DejaVuSans-74" x="164.355469"/>
      <use xlink:href="#DejaVuSans-65" x="203.564453"/>
      <use xlink:href="#DejaVuSans-64" x="265.087891"/>
      <use xlink:href="#DejaVuSans-20" x="328.564453"/>
      <use xlink:href="#DejaVuSans-4b" x="360.351562"/>
      <use xlink:href="#DejaVuSans-69" x="425.927734"/>
      <use xlink:href="#DejaVuSans-6e" x="453.710938"/>
      <use xlink:href="#DejaVuSans-67" x="517.089844"/>
      <use xlink:href="#DejaVuSans-64" x="580.566406"/>
      <use xlink:href="#DejaVuSans-6f" x="644.042969"/>
      <use xlink:href="#DejaVuSans-6d" x="705.224609"/>
     </g>
    </g>
    <g id="line2d_26">
     <path d="M 66.890625 41.16375 
L 74.890625 41.16375 
L 82.890625 41.16375 
" style="fill: none; stroke: #525886; stroke-width: 2; stroke-linecap: square"/>
    </g>
    <g id="text_21">
     <!-- South America -->
     <g transform="translate(89.290625 43.96375)scale(0.08 -0.08)">
      <defs>
       <path id="DejaVuSans-53" d="M 3425 4513 
L 3425 3897 
Q 3066 4069 2747 4153 
Q 2428 4238 2131 4238 
Q 1616 4238 1336 4038 
Q 1056 3838 1056 3469 
Q 1056 3159 1242 3001 
Q 1428 2844 1947 2747 
L 2328 2669 
Q 3034 2534 3370 2195 
Q 3706 1856 3706 1288 
Q 3706 609 3251 259 
Q 2797 -91 1919 -91 
Q 1588 -91 1214 -16 
Q 841 59 441 206 
L 441 856 
Q 825 641 1194 531 
Q 1563 422 1919 422 
Q 2459 422 2753 634 
Q 3047 847 3047 1241 
Q 3047 1584 2836 1778 
Q 2625 1972 2144 2069 
L 1759 2144 
Q 1053 2284 737 2584 
Q 422 2884 422 3419 
Q 422 4038 858 4394 
Q 1294 4750 2059 4750 
Q 2388 4750 2728 4690 
Q 3069 4631 3425 4513 
z
" transform="scale(0.015625)"/>
      </defs>
      <use xlink:href="#DejaVuSans-53"/>
      <use xlink:href="#DejaVuSans-6f" x="63.476562"/>
      <use xlink:href="#DejaVuSans-75" x="124.658203"/>
      <use xlink:href="#DejaVuSans-74" x="188.037109"/>
      <use xlink:href="#DejaVuSans-68" x="227.246094"/>
      <use xlink:href="#DejaVuSans-20" x="290.625"/>
      <use xlink:href="#DejaVuSans-41" x="322.412109"/>
      <use xlink:href="#DejaVuSans-6d" x="390.820312"/>
      <use xlink:href="#DejaVuSans-65" x="488.232422"/>
      <use xlink:href="#DejaVuSans-72" x="549.755859"/>
      <use xlink:href="#DejaVuSans-69" x="590.869141"/>
      <use xlink:href="#DejaVuSans-63" x="618.652344"/>
      <use xlink:href="#DejaVuSans-61" x="673.632812"/>
     </g>
    </g>
    <g id="line2d_27">
     <path d="M 66.890625 52.90625 
L 74.890625 52.90625 
L 82.890625 52.90625 
" style="fill: none; stroke: #937252; stroke-width: 2; stroke-linecap: square"/>
    </g>
    <g id="text_22">
     <!-- Europe -->
     <g transform="translate(89.290625 55.70625)scale(0.08 -0.08)">
      <defs>
       <path id="DejaVuSans-45" d="M 628 4666 
L 3578 4666 
L 3578 4134 
L 1259 4134 
L 1259 2753 
L 3481 2753 
L 3481 2222 
L 1259 2222 
L 1259 531 
L 3634 531 
L 3634 0 
L 628 0 
L 628 4666 
z
" transform="scale(0.015625)"/>
       <path id="DejaVuSans-70" d="M 1159 525 
L 1159 -1331 
L 581 -1331 
L 581 3500 
L 1159 3500 
L 1159 2969 
Q 1341 3281 1617 3432 
Q 1894 3584 2278 3584 
Q 2916 3584 3314 3078 
Q 3713 2572 3713 1747 
Q 3713 922 3314 415 
Q 2916 -91 2278 -91 
Q 1894 -91 1617 61 
Q 1341 213 1159 525 
z
M 3116 1747 
Q 3116 2381 2855 2742 
Q 2594 3103 2138 3103 
Q 1681 3103 1420 2742 
Q 1159 2381 1159 1747 
Q 1159 1113 1420 752 
Q 1681 391 2138 391 
Q 2594 391 2855 752 
Q 3116 1113 3116 1747 
z
" transform="scale(0.015625)"/>
      </defs>
      <use xlink:href="#DejaVuSans-45"/>
      <use xlink:href="#DejaVuSans-75" x="63.183594"/>
      <use xlink:href="#DejaVuSans-72" x="126.5625"/>
      <use xlink:href="#DejaVuSans-6f" x="165.425781"/>
      <use xlink:href="#DejaVuSans-70" x="226.607422"/>
      <use xlink:href="#DejaVuSans-65" x="290.083984"/>
     </g>
    </g>
    <g id="line2d_28">
     <path d="M 66.890625 64.64875 
L 74.890625 64.64875 
L 82.890625 64.64875 
" style="fill: none; stroke: #d18cad; stroke-width: 2; stroke-linecap: square"/>
    </g>
    <g id="text_23">
     <!-- Oceania -->
     <g transform="translate(89.290625 67.44875)scale(0.08 -0.08)">
      <defs>
       <path id="DejaVuSans-4f" d="M 2522 4238 
Q 1834 4238 1429 3725 
Q 1025 3213 1025 2328 
Q 1025 1447 1429 934 
Q 1834 422 2522 422 
Q 3209 422 3611 934 
Q 4013 1447 4013 2328 
Q 4013 3213 3611 3725 
Q 3209 4238 2522 4238 
z
M 2522 4750 
Q 3503 4750 4090 4092 
Q 4678 3434 4678 2328 
Q 4678 1225 4090 567 
Q 3503 -91 2522 -91 
Q 1538 -91 948 565 
Q 359 1222 359 2328 
Q 359 3434 948 4092 
Q 1538 4750 2522 4750 
z
" transform="scale(0.015625)"/>
      </defs>
      <use xlink:href="#DejaVuSans-4f"/>
      <use xlink:href="#DejaVuSans-63" x="78.710938"/>
      <use xlink:href="#DejaVuSans-65" x="133.691406"/>
      <use xlink:href="#DejaVuSans-61" x="195.214844"/>
      <use xlink:href="#DejaVuSans-6e" x="256.494141"/>
      <use xlink:href="#DejaVuSans-69" x="319.873047"/>
      <use xlink:href="#DejaVuSans-61" x="347.65625"/>
     </g>
    </g>
    <g id="line2d_29">
     <path d="M 66.890625 76.39125 
L 74.890625 76.39125 
L 82.890625 76.39125 
" style="fill: none; stroke: #a4a86f; stroke-width: 2; stroke-linecap: square"/>
    </g>
    <g id="text_24">
     <!-- Asia -->
     <g transform="translate(89.290625 79.19125)scale(0.08 -0.08)">
      <defs>
       <path id="DejaVuSans-73" d="M 2834 3397 
L 2834 2853 
Q 2591 2978 2328 3040 
Q 2066 3103 1784 3103 
Q 1356 3103 1142 2972 
Q 928 2841 928 2578 
Q 928 2378 1081 2264 
Q 1234 2150 1697 2047 
L 1894 2003 
Q 2506 1872 2764 1633 
Q 3022 1394 3022 966 
Q 3022 478 2636 193 
Q 2250 -91 1575 -91 
Q 1294 -91 989 -36 
Q 684 19 347 128 
L 347 722 
Q 666 556 975 473 
Q 1284 391 1588 391 
Q 1994 391 2212 530 
Q 2431 669 2431 922 
Q 2431 1156 2273 1281 
Q 2116 1406 1581 1522 
L 1381 1569 
Q 847 1681 609 1914 
Q 372 2147 372 2553 
Q 372 3047 722 3315 
Q 1072 3584 1716 3584 
Q 2034 3584 2315 3537 
Q 2597 3491 2834 3397 
z
" transform="scale(0.015625)"/>
      </defs>
      <use xlink:href="#DejaVuSans-41"/>
      <use xlink:href="#DejaVuSans-73" x="68.408203"/>
      <use xlink:href="#DejaVuSans-69" x="120.507812"/>
      <use xlink:href="#DejaVuSans-61" x="148.291016"/>
     </g>
    </g>
    <g id="line2d_30">
     <path d="M 66.890625 88.13375 
L 74.890625 88.13375 
L 82.890625 88.13375 
" style="fill: none; stroke: #d3d3d3; stroke-width: 2; stroke-linecap: square"/>
    </g>
    <g id="text_25">
     <!-- Africa -->
     <g transform="translate(89.290625 90.93375)scale(0.08 -0.08)">
      <defs>
       <path id="DejaVuSans-66" d="M 2375 4863 
L 2375 4384 
L 1825 4384 
Q 1516 4384 1395 4259 
Q 1275 4134 1275 3809 
L 1275 3500 
L 2222 3500 
L 2222 3053 
L 1275 3053 
L 1275 0 
L 697 0 
L 697 3053 
L 147 3053 
L 147 3500 
L 697 3500 
L 697 3744 
Q 697 4328 969 4595 
Q 1241 4863 1831 4863 
L 2375 4863 
z
" transform="scale(0.015625)"/>
      </defs>
      <use xlink:href="#DejaVuSans-41"/>
      <use xlink:href="#DejaVuSans-66" x="64.783203"/>
      <use xlink:href="#DejaVuSans-72" x="99.988281"/>
      <use xlink:href="#DejaVuSans-69" x="141.101562"/>
      <use xlink:href="#DejaVuSans-63" x="168.884766"/>
      <use xlink:href="#DejaVuSans-61" x="223.865234"/>
     </g>
    </g>
   </g>
  </g>
 </g>
 <defs>
  <clipPath id="p3e3495e0f1">
   <rect x="59.690625" y="7.2" width="1116" height="221.76"/>
  </clipPath>
 </defs>
</svg>
