<?xml version="1.0" encoding="utf-8" standalone="no"?>
<!DOCTYPE svg PUBLIC "-//W3C//DTD SVG 1.1//EN"
  "http://www.w3.org/Graphics/SVG/1.1/DTD/svg11.dtd">
<svg height="298.620937pt" version="1.1" viewBox="0 0 1170.165625 298.620937" width="1170.165625pt" xmlns="http://www.w3.org/2000/svg" xmlns:xlink="http://www.w3.org/1999/xlink">
 <metadata>
  <rdf:RDF xmlns:cc="http://creativecommons.org/ns#" xmlns:dc="http://purl.org/dc/elements/1.1/" xmlns:rdf="http://www.w3.org/1999/02/22-rdf-syntax-ns#">
   <cc:Work>
    <dc:type rdf:resource="http://purl.org/dc/dcmitype/StillImage"/>
    <dc:date>2022-01-06T19:19:08.974533</dc:date>
    <dc:format>image/svg+xml</dc:format>
    <dc:creator>
     <cc:Agent>
      <dc:title>Matplotlib v3.4.2, https://matplotlib.org/</dc:title>
     </cc:Agent>
    </dc:creator>
   </cc:Work>
  </rdf:RDF>
 </metadata>
 <defs>
  <style type="text/css">*{stroke-linecap:butt;stroke-linejoin:round;}</style>
 </defs>
 <g id="figure_1">
  <g id="patch_1">
   <path d="M 0 298.620937 
L 1170.165625 298.620937 
L 1170.165625 0 
L 0 0 
z
" style="fill:#ffffff;"/>
  </g>
  <g id="axes_1">
   <g id="patch_2">
    <path d="M 46.965625 228.96 
L 1162.965625 228.96 
L 1162.965625 7.2 
L 46.965625 7.2 
z
" style="fill:#ffffff;"/>
   </g>
   <g id="matplotlib.axis_1">
    <g id="xtick_1">
     <g id="line2d_1">
      <defs>
       <path d="M 0 0 
L 0 3.5 
" id="m9ab7f6c9e7" style="stroke:#000000;stroke-width:0.8;"/>
      </defs>
      <g>
       <use style="stroke:#000000;stroke-width:0.8;" x="84.401909" xlink:href="#m9ab7f6c9e7" y="228.96"/>
      </g>
     </g>
     <g id="text_1">
      <!-- 2020-09 -->
      <g transform="translate(87.161284 277.742812)rotate(-90)scale(0.1 -0.1)">
       <defs>
        <path d="M 1228 531 
L 3431 531 
L 3431 0 
L 469 0 
L 469 531 
Q 828 903 1448 1529 
Q 2069 2156 2228 2338 
Q 2531 2678 2651 2914 
Q 2772 3150 2772 3378 
Q 2772 3750 2511 3984 
Q 2250 4219 1831 4219 
Q 1534 4219 1204 4116 
Q 875 4013 500 3803 
L 500 4441 
Q 881 4594 1212 4672 
Q 1544 4750 1819 4750 
Q 2544 4750 2975 4387 
Q 3406 4025 3406 3419 
Q 3406 3131 3298 2873 
Q 3191 2616 2906 2266 
Q 2828 2175 2409 1742 
Q 1991 1309 1228 531 
z
" id="DejaVuSans-32" transform="scale(0.015625)"/>
        <path d="M 2034 4250 
Q 1547 4250 1301 3770 
Q 1056 3291 1056 2328 
Q 1056 1369 1301 889 
Q 1547 409 2034 409 
Q 2525 409 2770 889 
Q 3016 1369 3016 2328 
Q 3016 3291 2770 3770 
Q 2525 4250 2034 4250 
z
M 2034 4750 
Q 2819 4750 3233 4129 
Q 3647 3509 3647 2328 
Q 3647 1150 3233 529 
Q 2819 -91 2034 -91 
Q 1250 -91 836 529 
Q 422 1150 422 2328 
Q 422 3509 836 4129 
Q 1250 4750 2034 4750 
z
" id="DejaVuSans-30" transform="scale(0.015625)"/>
        <path d="M 313 2009 
L 1997 2009 
L 1997 1497 
L 313 1497 
L 313 2009 
z
" id="DejaVuSans-2d" transform="scale(0.015625)"/>
        <path d="M 703 97 
L 703 672 
Q 941 559 1184 500 
Q 1428 441 1663 441 
Q 2288 441 2617 861 
Q 2947 1281 2994 2138 
Q 2813 1869 2534 1725 
Q 2256 1581 1919 1581 
Q 1219 1581 811 2004 
Q 403 2428 403 3163 
Q 403 3881 828 4315 
Q 1253 4750 1959 4750 
Q 2769 4750 3195 4129 
Q 3622 3509 3622 2328 
Q 3622 1225 3098 567 
Q 2575 -91 1691 -91 
Q 1453 -91 1209 -44 
Q 966 3 703 97 
z
M 1959 2075 
Q 2384 2075 2632 2365 
Q 2881 2656 2881 3163 
Q 2881 3666 2632 3958 
Q 2384 4250 1959 4250 
Q 1534 4250 1286 3958 
Q 1038 3666 1038 3163 
Q 1038 2656 1286 2365 
Q 1534 2075 1959 2075 
z
" id="DejaVuSans-39" transform="scale(0.015625)"/>
       </defs>
       <use xlink:href="#DejaVuSans-32"/>
       <use x="63.623047" xlink:href="#DejaVuSans-30"/>
       <use x="127.246094" xlink:href="#DejaVuSans-32"/>
       <use x="190.869141" xlink:href="#DejaVuSans-30"/>
       <use x="254.492188" xlink:href="#DejaVuSans-2d"/>
       <use x="290.576172" xlink:href="#DejaVuSans-30"/>
       <use x="354.199219" xlink:href="#DejaVuSans-39"/>
      </g>
     </g>
    </g>
    <g id="xtick_2">
     <g id="line2d_2">
      <g>
       <use style="stroke:#000000;stroke-width:0.8;" x="219.526959" xlink:href="#m9ab7f6c9e7" y="228.96"/>
      </g>
     </g>
     <g id="text_2">
      <!-- 2020-11 -->
      <g transform="translate(222.286334 277.742812)rotate(-90)scale(0.1 -0.1)">
       <defs>
        <path d="M 794 531 
L 1825 531 
L 1825 4091 
L 703 3866 
L 703 4441 
L 1819 4666 
L 2450 4666 
L 2450 531 
L 3481 531 
L 3481 0 
L 794 0 
L 794 531 
z
" id="DejaVuSans-31" transform="scale(0.015625)"/>
       </defs>
       <use xlink:href="#DejaVuSans-32"/>
       <use x="63.623047" xlink:href="#DejaVuSans-30"/>
       <use x="127.246094" xlink:href="#DejaVuSans-32"/>
       <use x="190.869141" xlink:href="#DejaVuSans-30"/>
       <use x="254.492188" xlink:href="#DejaVuSans-2d"/>
       <use x="290.576172" xlink:href="#DejaVuSans-31"/>
       <use x="354.199219" xlink:href="#DejaVuSans-31"/>
      </g>
     </g>
    </g>
    <g id="xtick_3">
     <g id="line2d_3">
      <g>
       <use style="stroke:#000000;stroke-width:0.8;" x="354.652008" xlink:href="#m9ab7f6c9e7" y="228.96"/>
      </g>
     </g>
     <g id="text_3">
      <!-- 2021-01 -->
      <g transform="translate(357.411383 277.742812)rotate(-90)scale(0.1 -0.1)">
       <use xlink:href="#DejaVuSans-32"/>
       <use x="63.623047" xlink:href="#DejaVuSans-30"/>
       <use x="127.246094" xlink:href="#DejaVuSans-32"/>
       <use x="190.869141" xlink:href="#DejaVuSans-31"/>
       <use x="254.492188" xlink:href="#DejaVuSans-2d"/>
       <use x="290.576172" xlink:href="#DejaVuSans-30"/>
       <use x="354.199219" xlink:href="#DejaVuSans-31"/>
      </g>
     </g>
    </g>
    <g id="xtick_4">
     <g id="line2d_4">
      <g>
       <use style="stroke:#000000;stroke-width:0.8;" x="485.346729" xlink:href="#m9ab7f6c9e7" y="228.96"/>
      </g>
     </g>
     <g id="text_4">
      <!-- 2021-03 -->
      <g transform="translate(488.106104 277.742812)rotate(-90)scale(0.1 -0.1)">
       <defs>
        <path d="M 2597 2516 
Q 3050 2419 3304 2112 
Q 3559 1806 3559 1356 
Q 3559 666 3084 287 
Q 2609 -91 1734 -91 
Q 1441 -91 1130 -33 
Q 819 25 488 141 
L 488 750 
Q 750 597 1062 519 
Q 1375 441 1716 441 
Q 2309 441 2620 675 
Q 2931 909 2931 1356 
Q 2931 1769 2642 2001 
Q 2353 2234 1838 2234 
L 1294 2234 
L 1294 2753 
L 1863 2753 
Q 2328 2753 2575 2939 
Q 2822 3125 2822 3475 
Q 2822 3834 2567 4026 
Q 2313 4219 1838 4219 
Q 1578 4219 1281 4162 
Q 984 4106 628 3988 
L 628 4550 
Q 988 4650 1302 4700 
Q 1616 4750 1894 4750 
Q 2613 4750 3031 4423 
Q 3450 4097 3450 3541 
Q 3450 3153 3228 2886 
Q 3006 2619 2597 2516 
z
" id="DejaVuSans-33" transform="scale(0.015625)"/>
       </defs>
       <use xlink:href="#DejaVuSans-32"/>
       <use x="63.623047" xlink:href="#DejaVuSans-30"/>
       <use x="127.246094" xlink:href="#DejaVuSans-32"/>
       <use x="190.869141" xlink:href="#DejaVuSans-31"/>
       <use x="254.492188" xlink:href="#DejaVuSans-2d"/>
       <use x="290.576172" xlink:href="#DejaVuSans-30"/>
       <use x="354.199219" xlink:href="#DejaVuSans-33"/>
      </g>
     </g>
    </g>
    <g id="xtick_5">
     <g id="line2d_5">
      <g>
       <use style="stroke:#000000;stroke-width:0.8;" x="620.471778" xlink:href="#m9ab7f6c9e7" y="228.96"/>
      </g>
     </g>
     <g id="text_5">
      <!-- 2021-05 -->
      <g transform="translate(623.231153 277.742812)rotate(-90)scale(0.1 -0.1)">
       <defs>
        <path d="M 691 4666 
L 3169 4666 
L 3169 4134 
L 1269 4134 
L 1269 2991 
Q 1406 3038 1543 3061 
Q 1681 3084 1819 3084 
Q 2600 3084 3056 2656 
Q 3513 2228 3513 1497 
Q 3513 744 3044 326 
Q 2575 -91 1722 -91 
Q 1428 -91 1123 -41 
Q 819 9 494 109 
L 494 744 
Q 775 591 1075 516 
Q 1375 441 1709 441 
Q 2250 441 2565 725 
Q 2881 1009 2881 1497 
Q 2881 1984 2565 2268 
Q 2250 2553 1709 2553 
Q 1456 2553 1204 2497 
Q 953 2441 691 2322 
L 691 4666 
z
" id="DejaVuSans-35" transform="scale(0.015625)"/>
       </defs>
       <use xlink:href="#DejaVuSans-32"/>
       <use x="63.623047" xlink:href="#DejaVuSans-30"/>
       <use x="127.246094" xlink:href="#DejaVuSans-32"/>
       <use x="190.869141" xlink:href="#DejaVuSans-31"/>
       <use x="254.492188" xlink:href="#DejaVuSans-2d"/>
       <use x="290.576172" xlink:href="#DejaVuSans-30"/>
       <use x="354.199219" xlink:href="#DejaVuSans-35"/>
      </g>
     </g>
    </g>
    <g id="xtick_6">
     <g id="line2d_6">
      <g>
       <use style="stroke:#000000;stroke-width:0.8;" x="755.596828" xlink:href="#m9ab7f6c9e7" y="228.96"/>
      </g>
     </g>
     <g id="text_6">
      <!-- 2021-07 -->
      <g transform="translate(758.356203 277.742812)rotate(-90)scale(0.1 -0.1)">
       <defs>
        <path d="M 525 4666 
L 3525 4666 
L 3525 4397 
L 1831 0 
L 1172 0 
L 2766 4134 
L 525 4134 
L 525 4666 
z
" id="DejaVuSans-37" transform="scale(0.015625)"/>
       </defs>
       <use xlink:href="#DejaVuSans-32"/>
       <use x="63.623047" xlink:href="#DejaVuSans-30"/>
       <use x="127.246094" xlink:href="#DejaVuSans-32"/>
       <use x="190.869141" xlink:href="#DejaVuSans-31"/>
       <use x="254.492188" xlink:href="#DejaVuSans-2d"/>
       <use x="290.576172" xlink:href="#DejaVuSans-30"/>
       <use x="354.199219" xlink:href="#DejaVuSans-37"/>
      </g>
     </g>
    </g>
    <g id="xtick_7">
     <g id="line2d_7">
      <g>
       <use style="stroke:#000000;stroke-width:0.8;" x="892.937042" xlink:href="#m9ab7f6c9e7" y="228.96"/>
      </g>
     </g>
     <g id="text_7">
      <!-- 2021-09 -->
      <g transform="translate(895.696417 277.742812)rotate(-90)scale(0.1 -0.1)">
       <use xlink:href="#DejaVuSans-32"/>
       <use x="63.623047" xlink:href="#DejaVuSans-30"/>
       <use x="127.246094" xlink:href="#DejaVuSans-32"/>
       <use x="190.869141" xlink:href="#DejaVuSans-31"/>
       <use x="254.492188" xlink:href="#DejaVuSans-2d"/>
       <use x="290.576172" xlink:href="#DejaVuSans-30"/>
       <use x="354.199219" xlink:href="#DejaVuSans-39"/>
      </g>
     </g>
    </g>
    <g id="xtick_8">
     <g id="line2d_8">
      <g>
       <use style="stroke:#000000;stroke-width:0.8;" x="1028.062092" xlink:href="#m9ab7f6c9e7" y="228.96"/>
      </g>
     </g>
     <g id="text_8">
      <!-- 2021-11 -->
      <g transform="translate(1030.821467 277.742812)rotate(-90)scale(0.1 -0.1)">
       <use xlink:href="#DejaVuSans-32"/>
       <use x="63.623047" xlink:href="#DejaVuSans-30"/>
       <use x="127.246094" xlink:href="#DejaVuSans-32"/>
       <use x="190.869141" xlink:href="#DejaVuSans-31"/>
       <use x="254.492188" xlink:href="#DejaVuSans-2d"/>
       <use x="290.576172" xlink:href="#DejaVuSans-31"/>
       <use x="354.199219" xlink:href="#DejaVuSans-31"/>
      </g>
     </g>
    </g>
    <g id="text_9">
     <!-- Date -->
     <g transform="translate(593.014844 289.34125)scale(0.1 -0.1)">
      <defs>
       <path d="M 1259 4147 
L 1259 519 
L 2022 519 
Q 2988 519 3436 956 
Q 3884 1394 3884 2338 
Q 3884 3275 3436 3711 
Q 2988 4147 2022 4147 
L 1259 4147 
z
M 628 4666 
L 1925 4666 
Q 3281 4666 3915 4102 
Q 4550 3538 4550 2338 
Q 4550 1131 3912 565 
Q 3275 0 1925 0 
L 628 0 
L 628 4666 
z
" id="DejaVuSans-44" transform="scale(0.015625)"/>
       <path d="M 2194 1759 
Q 1497 1759 1228 1600 
Q 959 1441 959 1056 
Q 959 750 1161 570 
Q 1363 391 1709 391 
Q 2188 391 2477 730 
Q 2766 1069 2766 1631 
L 2766 1759 
L 2194 1759 
z
M 3341 1997 
L 3341 0 
L 2766 0 
L 2766 531 
Q 2569 213 2275 61 
Q 1981 -91 1556 -91 
Q 1019 -91 701 211 
Q 384 513 384 1019 
Q 384 1609 779 1909 
Q 1175 2209 1959 2209 
L 2766 2209 
L 2766 2266 
Q 2766 2663 2505 2880 
Q 2244 3097 1772 3097 
Q 1472 3097 1187 3025 
Q 903 2953 641 2809 
L 641 3341 
Q 956 3463 1253 3523 
Q 1550 3584 1831 3584 
Q 2591 3584 2966 3190 
Q 3341 2797 3341 1997 
z
" id="DejaVuSans-61" transform="scale(0.015625)"/>
       <path d="M 1172 4494 
L 1172 3500 
L 2356 3500 
L 2356 3053 
L 1172 3053 
L 1172 1153 
Q 1172 725 1289 603 
Q 1406 481 1766 481 
L 2356 481 
L 2356 0 
L 1766 0 
Q 1100 0 847 248 
Q 594 497 594 1153 
L 594 3053 
L 172 3053 
L 172 3500 
L 594 3500 
L 594 4494 
L 1172 4494 
z
" id="DejaVuSans-74" transform="scale(0.015625)"/>
       <path d="M 3597 1894 
L 3597 1613 
L 953 1613 
Q 991 1019 1311 708 
Q 1631 397 2203 397 
Q 2534 397 2845 478 
Q 3156 559 3463 722 
L 3463 178 
Q 3153 47 2828 -22 
Q 2503 -91 2169 -91 
Q 1331 -91 842 396 
Q 353 884 353 1716 
Q 353 2575 817 3079 
Q 1281 3584 2069 3584 
Q 2775 3584 3186 3129 
Q 3597 2675 3597 1894 
z
M 3022 2063 
Q 3016 2534 2758 2815 
Q 2500 3097 2075 3097 
Q 1594 3097 1305 2825 
Q 1016 2553 972 2059 
L 3022 2063 
z
" id="DejaVuSans-65" transform="scale(0.015625)"/>
      </defs>
      <use xlink:href="#DejaVuSans-44"/>
      <use x="77.001953" xlink:href="#DejaVuSans-61"/>
      <use x="138.28125" xlink:href="#DejaVuSans-74"/>
      <use x="177.490234" xlink:href="#DejaVuSans-65"/>
     </g>
    </g>
   </g>
   <g id="matplotlib.axis_2">
    <g id="ytick_1">
     <g id="line2d_9">
      <defs>
       <path d="M 0 0 
L -3.5 0 
" id="m7b65b0cf8d" style="stroke:#000000;stroke-width:0.8;"/>
      </defs>
      <g>
       <use style="stroke:#000000;stroke-width:0.8;" x="46.965625" xlink:href="#m7b65b0cf8d" y="228.96"/>
      </g>
     </g>
     <g id="text_10">
      <!-- 1 -->
      <g transform="translate(33.603125 232.759219)scale(0.1 -0.1)">
       <use xlink:href="#DejaVuSans-31"/>
      </g>
     </g>
    </g>
    <g id="ytick_2">
     <g id="line2d_10">
      <g>
       <use style="stroke:#000000;stroke-width:0.8;" x="46.965625" xlink:href="#m7b65b0cf8d" y="181.60752"/>
      </g>
     </g>
     <g id="text_11">
      <!-- 3 -->
      <g transform="translate(33.603125 185.406738)scale(0.1 -0.1)">
       <use xlink:href="#DejaVuSans-33"/>
      </g>
     </g>
    </g>
    <g id="ytick_3">
     <g id="line2d_11">
      <g>
       <use style="stroke:#000000;stroke-width:0.8;" x="46.965625" xlink:href="#m7b65b0cf8d" y="134.255039"/>
      </g>
     </g>
     <g id="text_12">
      <!-- 10 -->
      <g transform="translate(27.240625 138.054258)scale(0.1 -0.1)">
       <use xlink:href="#DejaVuSans-31"/>
       <use x="63.623047" xlink:href="#DejaVuSans-30"/>
      </g>
     </g>
    </g>
    <g id="ytick_4">
     <g id="line2d_12">
      <g>
       <use style="stroke:#000000;stroke-width:0.8;" x="46.965625" xlink:href="#m7b65b0cf8d" y="86.902559"/>
      </g>
     </g>
     <g id="text_13">
      <!-- 31 -->
      <g transform="translate(27.240625 90.701778)scale(0.1 -0.1)">
       <use xlink:href="#DejaVuSans-33"/>
       <use x="63.623047" xlink:href="#DejaVuSans-31"/>
      </g>
     </g>
    </g>
    <g id="ytick_5">
     <g id="line2d_13">
      <g>
       <use style="stroke:#000000;stroke-width:0.8;" x="46.965625" xlink:href="#m7b65b0cf8d" y="39.550079"/>
      </g>
     </g>
     <g id="text_14">
      <!-- 100 -->
      <g transform="translate(20.878125 43.349297)scale(0.1 -0.1)">
       <use xlink:href="#DejaVuSans-31"/>
       <use x="63.623047" xlink:href="#DejaVuSans-30"/>
       <use x="127.246094" xlink:href="#DejaVuSans-30"/>
      </g>
     </g>
    </g>
    <g id="text_15">
     <!-- Count (7 day rolling average) -->
     <g transform="translate(14.798438 191.547969)rotate(-90)scale(0.1 -0.1)">
      <defs>
       <path d="M 4122 4306 
L 4122 3641 
Q 3803 3938 3442 4084 
Q 3081 4231 2675 4231 
Q 1875 4231 1450 3742 
Q 1025 3253 1025 2328 
Q 1025 1406 1450 917 
Q 1875 428 2675 428 
Q 3081 428 3442 575 
Q 3803 722 4122 1019 
L 4122 359 
Q 3791 134 3420 21 
Q 3050 -91 2638 -91 
Q 1578 -91 968 557 
Q 359 1206 359 2328 
Q 359 3453 968 4101 
Q 1578 4750 2638 4750 
Q 3056 4750 3426 4639 
Q 3797 4528 4122 4306 
z
" id="DejaVuSans-43" transform="scale(0.015625)"/>
       <path d="M 1959 3097 
Q 1497 3097 1228 2736 
Q 959 2375 959 1747 
Q 959 1119 1226 758 
Q 1494 397 1959 397 
Q 2419 397 2687 759 
Q 2956 1122 2956 1747 
Q 2956 2369 2687 2733 
Q 2419 3097 1959 3097 
z
M 1959 3584 
Q 2709 3584 3137 3096 
Q 3566 2609 3566 1747 
Q 3566 888 3137 398 
Q 2709 -91 1959 -91 
Q 1206 -91 779 398 
Q 353 888 353 1747 
Q 353 2609 779 3096 
Q 1206 3584 1959 3584 
z
" id="DejaVuSans-6f" transform="scale(0.015625)"/>
       <path d="M 544 1381 
L 544 3500 
L 1119 3500 
L 1119 1403 
Q 1119 906 1312 657 
Q 1506 409 1894 409 
Q 2359 409 2629 706 
Q 2900 1003 2900 1516 
L 2900 3500 
L 3475 3500 
L 3475 0 
L 2900 0 
L 2900 538 
Q 2691 219 2414 64 
Q 2138 -91 1772 -91 
Q 1169 -91 856 284 
Q 544 659 544 1381 
z
M 1991 3584 
L 1991 3584 
z
" id="DejaVuSans-75" transform="scale(0.015625)"/>
       <path d="M 3513 2113 
L 3513 0 
L 2938 0 
L 2938 2094 
Q 2938 2591 2744 2837 
Q 2550 3084 2163 3084 
Q 1697 3084 1428 2787 
Q 1159 2491 1159 1978 
L 1159 0 
L 581 0 
L 581 3500 
L 1159 3500 
L 1159 2956 
Q 1366 3272 1645 3428 
Q 1925 3584 2291 3584 
Q 2894 3584 3203 3211 
Q 3513 2838 3513 2113 
z
" id="DejaVuSans-6e" transform="scale(0.015625)"/>
       <path id="DejaVuSans-20" transform="scale(0.015625)"/>
       <path d="M 1984 4856 
Q 1566 4138 1362 3434 
Q 1159 2731 1159 2009 
Q 1159 1288 1364 580 
Q 1569 -128 1984 -844 
L 1484 -844 
Q 1016 -109 783 600 
Q 550 1309 550 2009 
Q 550 2706 781 3412 
Q 1013 4119 1484 4856 
L 1984 4856 
z
" id="DejaVuSans-28" transform="scale(0.015625)"/>
       <path d="M 2906 2969 
L 2906 4863 
L 3481 4863 
L 3481 0 
L 2906 0 
L 2906 525 
Q 2725 213 2448 61 
Q 2172 -91 1784 -91 
Q 1150 -91 751 415 
Q 353 922 353 1747 
Q 353 2572 751 3078 
Q 1150 3584 1784 3584 
Q 2172 3584 2448 3432 
Q 2725 3281 2906 2969 
z
M 947 1747 
Q 947 1113 1208 752 
Q 1469 391 1925 391 
Q 2381 391 2643 752 
Q 2906 1113 2906 1747 
Q 2906 2381 2643 2742 
Q 2381 3103 1925 3103 
Q 1469 3103 1208 2742 
Q 947 2381 947 1747 
z
" id="DejaVuSans-64" transform="scale(0.015625)"/>
       <path d="M 2059 -325 
Q 1816 -950 1584 -1140 
Q 1353 -1331 966 -1331 
L 506 -1331 
L 506 -850 
L 844 -850 
Q 1081 -850 1212 -737 
Q 1344 -625 1503 -206 
L 1606 56 
L 191 3500 
L 800 3500 
L 1894 763 
L 2988 3500 
L 3597 3500 
L 2059 -325 
z
" id="DejaVuSans-79" transform="scale(0.015625)"/>
       <path d="M 2631 2963 
Q 2534 3019 2420 3045 
Q 2306 3072 2169 3072 
Q 1681 3072 1420 2755 
Q 1159 2438 1159 1844 
L 1159 0 
L 581 0 
L 581 3500 
L 1159 3500 
L 1159 2956 
Q 1341 3275 1631 3429 
Q 1922 3584 2338 3584 
Q 2397 3584 2469 3576 
Q 2541 3569 2628 3553 
L 2631 2963 
z
" id="DejaVuSans-72" transform="scale(0.015625)"/>
       <path d="M 603 4863 
L 1178 4863 
L 1178 0 
L 603 0 
L 603 4863 
z
" id="DejaVuSans-6c" transform="scale(0.015625)"/>
       <path d="M 603 3500 
L 1178 3500 
L 1178 0 
L 603 0 
L 603 3500 
z
M 603 4863 
L 1178 4863 
L 1178 4134 
L 603 4134 
L 603 4863 
z
" id="DejaVuSans-69" transform="scale(0.015625)"/>
       <path d="M 2906 1791 
Q 2906 2416 2648 2759 
Q 2391 3103 1925 3103 
Q 1463 3103 1205 2759 
Q 947 2416 947 1791 
Q 947 1169 1205 825 
Q 1463 481 1925 481 
Q 2391 481 2648 825 
Q 2906 1169 2906 1791 
z
M 3481 434 
Q 3481 -459 3084 -895 
Q 2688 -1331 1869 -1331 
Q 1566 -1331 1297 -1286 
Q 1028 -1241 775 -1147 
L 775 -588 
Q 1028 -725 1275 -790 
Q 1522 -856 1778 -856 
Q 2344 -856 2625 -561 
Q 2906 -266 2906 331 
L 2906 616 
Q 2728 306 2450 153 
Q 2172 0 1784 0 
Q 1141 0 747 490 
Q 353 981 353 1791 
Q 353 2603 747 3093 
Q 1141 3584 1784 3584 
Q 2172 3584 2450 3431 
Q 2728 3278 2906 2969 
L 2906 3500 
L 3481 3500 
L 3481 434 
z
" id="DejaVuSans-67" transform="scale(0.015625)"/>
       <path d="M 191 3500 
L 800 3500 
L 1894 563 
L 2988 3500 
L 3597 3500 
L 2284 0 
L 1503 0 
L 191 3500 
z
" id="DejaVuSans-76" transform="scale(0.015625)"/>
       <path d="M 513 4856 
L 1013 4856 
Q 1481 4119 1714 3412 
Q 1947 2706 1947 2009 
Q 1947 1309 1714 600 
Q 1481 -109 1013 -844 
L 513 -844 
Q 928 -128 1133 580 
Q 1338 1288 1338 2009 
Q 1338 2731 1133 3434 
Q 928 4138 513 4856 
z
" id="DejaVuSans-29" transform="scale(0.015625)"/>
      </defs>
      <use xlink:href="#DejaVuSans-43"/>
      <use x="69.824219" xlink:href="#DejaVuSans-6f"/>
      <use x="131.005859" xlink:href="#DejaVuSans-75"/>
      <use x="194.384766" xlink:href="#DejaVuSans-6e"/>
      <use x="257.763672" xlink:href="#DejaVuSans-74"/>
      <use x="296.972656" xlink:href="#DejaVuSans-20"/>
      <use x="328.759766" xlink:href="#DejaVuSans-28"/>
      <use x="367.773438" xlink:href="#DejaVuSans-37"/>
      <use x="431.396484" xlink:href="#DejaVuSans-20"/>
      <use x="463.183594" xlink:href="#DejaVuSans-64"/>
      <use x="526.660156" xlink:href="#DejaVuSans-61"/>
      <use x="587.939453" xlink:href="#DejaVuSans-79"/>
      <use x="647.119141" xlink:href="#DejaVuSans-20"/>
      <use x="678.90625" xlink:href="#DejaVuSans-72"/>
      <use x="717.769531" xlink:href="#DejaVuSans-6f"/>
      <use x="778.951172" xlink:href="#DejaVuSans-6c"/>
      <use x="806.734375" xlink:href="#DejaVuSans-6c"/>
      <use x="834.517578" xlink:href="#DejaVuSans-69"/>
      <use x="862.300781" xlink:href="#DejaVuSans-6e"/>
      <use x="925.679688" xlink:href="#DejaVuSans-67"/>
      <use x="989.15625" xlink:href="#DejaVuSans-20"/>
      <use x="1020.943359" xlink:href="#DejaVuSans-61"/>
      <use x="1082.222656" xlink:href="#DejaVuSans-76"/>
      <use x="1141.402344" xlink:href="#DejaVuSans-65"/>
      <use x="1202.925781" xlink:href="#DejaVuSans-72"/>
      <use x="1244.039062" xlink:href="#DejaVuSans-61"/>
      <use x="1305.318359" xlink:href="#DejaVuSans-67"/>
      <use x="1368.794922" xlink:href="#DejaVuSans-65"/>
      <use x="1430.318359" xlink:href="#DejaVuSans-29"/>
     </g>
    </g>
   </g>
   <g id="line2d_14">
    <path clip-path="url(#p619b85e7bd)" d="M 97.692898 197.6133 
L 99.908062 194.958841 
L 102.123227 190.114443 
L 104.338392 183.77425 
L 106.553557 180.032595 
L 108.768721 178.282125 
L 110.983886 178.282125 
L 113.199051 176.603123 
L 115.414216 170.498632 
L 117.62938 165.184174 
L 119.844545 163.956326 
L 122.05971 159.381633 
L 124.274875 158.313266 
L 126.490039 158.313266 
L 128.705204 155.265216 
L 130.920369 159.381633 
L 133.135534 162.764073 
L 135.350698 169.104266 
L 137.565863 174.989981 
L 139.781028 173.437728 
L 141.996193 173.437728 
L 144.211357 170.498632 
L 146.426522 162.764073 
L 148.641687 163.956326 
L 150.856852 161.60541 
L 153.072016 162.764073 
L 155.287181 166.449807 
L 157.502346 165.184174 
L 159.717511 171.941932 
L 161.932675 185.780982 
L 164.14784 190.114443 
L 166.363005 187.890667 
L 168.57817 192.46536 
L 170.793334 185.780982 
L 173.008499 187.890667 
L 175.223664 185.780982 
L 177.438829 180.032595 
L 179.653993 174.989981 
L 181.869158 173.437728 
L 184.084323 176.603123 
L 186.299488 181.860889 
L 188.514652 178.282125 
L 190.729817 178.282125 
L 192.944982 176.603123 
L 195.160147 170.498632 
L 197.375311 160.478494 
L 199.590476 146.480947 
L 201.805641 144.173997 
L 204.020806 145.697498 
L 206.23597 139.915385 
L 208.451135 137.303088 
L 210.6663 133.671628 
L 212.881465 133.096376 
L 215.096629 137.940773 
L 217.311794 136.67514 
L 219.526959 136.056634 
L 221.742124 126.756183 
L 223.957288 124.842822 
L 226.172453 122.569876 
L 228.387618 121.264057 
L 230.602783 117.188464 
L 235.033112 117.188464 
L 237.248277 129.280278 
L 239.463442 133.671628 
L 241.678606 135.447292 
L 243.893771 129.280278 
L 246.108936 126.756183 
L 248.324101 129.280278 
L 250.539265 127.747311 
L 252.75443 124.842822 
L 254.969595 123.918517 
L 257.18476 117.578324 
L 259.399924 113.480564 
L 261.615089 110.407196 
L 263.830254 108.794055 
L 266.045419 109.431739 
L 268.260583 103.183457 
L 270.475748 89.661096 
L 272.690913 89.860273 
L 274.906078 95.638619 
L 277.121242 100.771244 
L 279.336407 100.771244 
L 281.551572 99.997619 
L 283.766737 99.742944 
L 285.981901 107.5476 
L 288.197066 110.079467 
L 290.412231 106.938258 
L 292.627396 102.90834 
L 294.84256 100.511749 
L 297.057725 96.803848 
L 299.27289 92.117339 
L 301.488055 94.729635 
L 303.703219 90.870885 
L 305.918384 89.06929 
L 308.133549 89.46288 
L 310.348714 89.661096 
L 312.563878 92.328804 
L 314.779043 91.906956 
L 316.994208 83.921349 
L 319.209373 88.293232 
L 321.424537 86.41483 
L 323.639702 80.443517 
L 325.854867 81.570433 
L 328.070032 80.285021 
L 330.285196 74.951392 
L 332.500361 76.078308 
L 334.715526 71.488585 
L 336.930691 69.49402 
L 339.145855 73.99005 
L 341.36102 72.132258 
L 343.576185 71.107162 
L 345.791349 69.372514 
L 348.006514 63.81977 
L 350.221679 60.267515 
L 352.436844 60.073506 
L 354.652008 60.658301 
L 356.867173 58.460365 
L 359.082338 58.553524 
L 361.297503 52.333418 
L 363.512667 50.760384 
L 365.727832 49.618872 
L 367.942997 50.452869 
L 370.158162 47.001957 
L 372.373326 48.072178 
L 374.588491 47.143054 
L 376.803656 51.618099 
L 379.018821 55.068131 
L 381.233985 58.740478 
L 383.44915 59.022512 
L 385.664315 61.752509 
L 387.87948 61.752509 
L 390.094644 64.353238 
L 392.309809 71.488585 
L 394.524974 77.97807 
L 396.740139 83.066228 
L 398.955303 79.501571 
L 401.170468 74.536634 
L 403.385633 75.652088 
L 405.600798 71.107162 
L 407.815962 68.413174 
L 410.031127 67.244634 
L 412.246292 64.785052 
L 414.461457 67.708073 
L 416.676621 73.316879 
L 418.891786 73.050665 
L 421.106951 77.680026 
L 423.322116 79.501571 
L 425.53728 77.828778 
L 427.752445 79.813163 
L 429.96761 82.897317 
L 432.182775 78.885382 
L 434.397939 81.083683 
L 436.613104 81.733971 
L 441.043434 91.697643 
L 443.258598 94.060842 
L 445.473763 91.906956 
L 447.688928 98.739727 
L 449.904093 95.181616 
L 452.119257 92.969801 
L 454.334422 92.541362 
L 456.549587 90.261542 
L 458.764752 86.231624 
L 460.979916 84.618482 
L 463.195081 83.577165 
L 465.410246 84.794627 
L 467.625411 85.327635 
L 469.840575 86.78371 
L 472.05574 89.06929 
L 474.270905 91.697643 
L 476.48607 96.333788 
L 478.701234 96.803848 
L 483.131564 98.739727 
L 485.346729 96.803848 
L 487.561893 97.040908 
L 489.777058 101.032386 
L 491.992223 100.771244 
L 494.207388 103.460426 
L 496.422552 102.635051 
L 498.637717 103.183457 
L 500.852882 102.363565 
L 503.068047 102.635051 
L 507.498376 88.293232 
L 509.713541 84.268439 
L 511.928706 85.149197 
L 514.14387 84.618482 
L 516.359035 86.41483 
L 518.5742 85.50685 
L 520.789365 86.41483 
L 523.004529 90.261542 
L 525.219694 92.969801 
L 527.434859 92.755024 
L 529.650024 93.620947 
L 531.865188 95.409483 
L 534.080353 94.060842 
L 536.295518 98.739727 
L 538.510683 102.635051 
L 540.725847 102.635051 
L 542.941012 102.363565 
L 545.156177 101.559699 
L 547.371342 98.492701 
L 549.586506 98.988247 
L 551.801671 97.279343 
L 554.016836 98.247149 
L 556.232001 100.25388 
L 558.447165 101.825913 
L 560.66233 104.020025 
L 562.877495 113.480564 
L 565.09266 121.69474 
L 567.307824 123.918517 
L 571.738154 117.578324 
L 573.953319 113.480564 
L 576.168483 107.85569 
L 578.383648 102.635051 
L 580.598813 96.568146 
L 582.813978 94.955005 
L 585.029142 97.519168 
L 587.244307 99.238277 
L 589.459472 100.25388 
L 591.674637 102.093861 
L 593.889801 102.093861 
L 596.104966 102.635051 
L 598.320131 101.559699 
L 602.75046 92.541362 
L 604.965625 91.906956 
L 607.18079 91.48939 
L 609.395954 89.860273 
L 611.611119 91.282186 
L 613.826284 91.697643 
L 616.041449 95.409483 
L 618.256613 96.100757 
L 620.471778 96.100757 
L 622.686943 95.638619 
L 627.117272 88.293232 
L 629.332437 86.78371 
L 631.547602 83.235836 
L 633.762767 84.268439 
L 635.977931 82.897317 
L 638.193096 82.897317 
L 640.408261 86.41483 
L 642.623426 91.282186 
L 644.83859 88.873898 
L 647.053755 90.060418 
L 649.26892 90.870885 
L 651.484085 94.282567 
L 653.699249 97.040908 
L 655.914414 92.117339 
L 658.129579 90.060418 
L 660.344744 90.870885 
L 662.559908 88.67943 
L 664.775073 89.46288 
L 666.990238 89.265614 
L 669.205403 87.720649 
L 671.420567 90.060418 
L 673.635732 86.41483 
L 675.850897 92.117339 
L 678.066062 90.666766 
L 680.281226 87.155929 
L 682.496391 85.327635 
L 684.711556 85.50685 
L 686.926721 81.245294 
L 689.141885 82.063012 
L 691.35705 76.364928 
L 693.572215 76.364928 
L 695.78738 74.536634 
L 698.002544 72.918202 
L 700.217709 70.729243 
L 702.432874 73.050665 
L 704.648039 69.130573 
L 706.863203 71.744846 
L 711.293533 80.285021 
L 713.508698 83.066228 
L 715.723862 85.50685 
L 717.939027 88.485878 
L 720.154192 98.988247 
L 722.369357 99.997619 
L 724.584521 94.955005 
L 726.799686 93.185706 
L 729.014851 92.328804 
L 731.230016 93.402751 
L 733.44518 94.282567 
L 735.660345 91.906956 
L 737.87551 92.969801 
L 740.090675 96.333788 
L 742.305839 96.100757 
L 744.521004 97.760399 
L 746.736169 97.040908 
L 748.951334 97.040908 
L 751.166498 96.100757 
L 753.381663 96.568146 
L 755.596828 96.100757 
L 757.811993 99.997619 
L 760.027157 101.295198 
L 762.242322 103.183457 
L 764.457487 107.85569 
L 766.672652 108.478882 
L 768.887816 112.086198 
L 771.102981 112.777473 
L 773.318146 111.74487 
L 775.533311 109.431739 
L 777.748475 108.166106 
L 779.96364 103.739274 
L 782.178805 103.460426 
L 784.39397 103.739274 
L 786.609134 106.337812 
L 788.824299 107.85569 
L 791.039464 111.406351 
L 793.254629 111.070595 
L 795.469793 118.770576 
L 797.684958 128.762914 
L 799.900123 134.255039 
L 802.115288 136.056634 
L 804.330452 140.595232 
L 806.545617 141.286507 
L 808.760782 148.094089 
L 810.975947 143.432898 
L 813.191111 157.271948 
L 815.406276 152.427551 
L 817.621441 158.313266 
L 819.836606 161.60541 
L 822.05177 159.381633 
L 824.266935 160.478494 
L 826.4821 163.956326 
L 828.697265 139.246592 
L 830.912429 139.246592 
L 835.342759 136.67514 
L 837.557924 136.67514 
L 839.773088 135.447292 
L 841.988253 134.846846 
L 844.203418 151.523562 
L 846.418583 156.256345 
L 848.633747 160.478494 
L 850.848912 162.764073 
L 853.064077 166.449807 
L 855.279242 166.449807 
L 857.494406 174.989981 
L 859.709571 171.941932 
L 861.924736 173.437728 
L 864.139901 169.104266 
L 866.355065 170.498632 
L 868.57023 169.104266 
L 870.785395 171.941932 
L 873.000559 171.941932 
L 875.215724 183.77425 
L 877.430889 183.77425 
L 879.646054 190.114443 
L 881.861218 187.890667 
L 884.076383 190.114443 
L 886.291548 187.890667 
L 888.506713 187.890667 
L 890.721877 194.958841 
L 892.937042 192.46536 
L 895.152207 187.890667 
L 897.367372 190.114443 
L 899.582536 190.114443 
L 904.012866 194.958841 
L 906.228031 210.369923 
L 908.443195 210.369923 
L 910.65836 218.623477 
L 919.519019 218.623477 
L 921.734184 223.467875 
L 923.949349 228.96 
L 926.164513 228.96 
L 928.379678 223.467875 
L 935.025172 223.467875 
L 937.240337 210.369923 
L 943.885831 210.369923 
L 946.100996 206.791159 
L 948.316161 203.499015 
L 950.531326 203.499015 
L 952.74649 214.290016 
L 957.17682 214.290016 
L 959.391985 218.623477 
L 963.822314 218.623477 
L 966.037479 169.104266 
L 968.252644 163.956326 
L 970.467808 154.297411 
L 972.682973 151.523562 
L 974.898138 148.094089 
L 977.113303 144.928694 
L 979.328467 144.928694 
L 981.543632 165.184174 
L 983.758797 169.104266 
L 985.973962 183.77425 
L 988.189126 190.114443 
L 990.404291 192.46536 
L 992.619456 206.791159 
L 994.834621 210.369923 
L 997.049785 210.369923 
L 999.26495 214.290016 
L 1001.480115 203.499015 
L 1003.69528 203.499015 
L 1005.910444 210.369923 
L 1012.555939 210.369923 
L 1014.771103 206.791159 
L 1016.986268 218.623477 
L 1019.201433 218.623477 
L 1021.416598 223.467875 
L 1028.062092 223.467875 
L 1030.277257 228.96 
L 1032.492421 223.467875 
L 1034.707586 218.623477 
L 1045.78341 218.623477 
L 1047.998575 223.467875 
L 1050.213739 228.96 
L 1052.428904 228.96 
L 1054.644069 223.467875 
L 1056.859234 223.467875 
L 1059.074398 218.623477 
L 1067.935057 218.623477 
L 1070.150222 223.467875 
L 1072.365387 223.467875 
L 1074.580552 228.96 
L 1090.086705 228.96 
L 1092.30187 223.467875 
L 1094.517034 223.467875 
L 1096.732199 218.623477 
L 1096.732199 218.623477 
" style="fill:none;stroke:#947383;stroke-linecap:square;stroke-width:2;"/>
   </g>
   <g id="line2d_15">
    <path clip-path="url(#p619b85e7bd)" d="M 239.463442 223.467875 
L 241.678606 228.96 
L 283.766737 228.96 
L 285.981901 223.467875 
L 299.27289 223.467875 
L 301.488055 228.96 
L 319.209373 228.96 
L 321.424537 223.467875 
L 323.639702 223.467875 
L 325.854867 218.623477 
L 328.070032 214.290016 
L 334.715526 214.290016 
L 336.930691 218.623477 
L 339.145855 218.623477 
L 341.36102 214.290016 
L 343.576185 203.499015 
L 345.791349 200.450966 
L 348.006514 187.890667 
L 350.221679 183.77425 
L 352.436844 178.282125 
L 354.652008 174.989981 
L 356.867173 174.989981 
L 359.082338 176.603123 
L 361.297503 171.941932 
L 363.512667 178.282125 
L 365.727832 181.860889 
L 367.942997 170.498632 
L 370.158162 166.449807 
L 372.373326 167.755626 
L 374.588491 171.941932 
L 379.018821 169.104266 
L 381.233985 153.351856 
L 383.44915 163.956326 
L 387.87948 159.381633 
L 390.094644 158.313266 
L 392.309809 161.60541 
L 394.524974 153.351856 
L 396.740139 159.381633 
L 398.955303 158.313266 
L 401.170468 163.956326 
L 403.385633 166.449807 
L 405.600798 167.755626 
L 407.815962 166.449807 
L 410.031127 171.941932 
L 412.246292 174.989981 
L 414.461457 159.381633 
L 416.676621 146.480947 
L 418.891786 144.173997 
L 421.106951 139.915385 
L 423.322116 133.671628 
L 425.53728 116.41966 
L 427.752445 116.41966 
L 429.96761 120.415989 
L 432.182775 125.312882 
L 434.397939 123.918517 
L 436.613104 120.837838 
L 438.828269 116.802266 
L 441.043434 134.846846 
L 443.258598 134.255039 
L 445.473763 122.129981 
L 447.688928 121.264057 
L 449.904093 123.464039 
L 452.119257 128.762914 
L 454.334422 131.417373 
L 456.549587 128.762914 
L 458.764752 127.747311 
L 460.979916 138.588501 
L 463.195081 137.940773 
L 465.410246 134.255039 
L 467.625411 125.312882 
L 469.840575 119.585055 
L 476.48607 108.794055 
L 478.701234 103.739274 
L 480.916399 103.460426 
L 483.131564 106.938258 
L 485.346729 110.079467 
L 487.561893 110.407196 
L 489.777058 102.093861 
L 491.992223 101.032386 
L 494.207388 101.295198 
L 496.422552 97.519168 
L 498.637717 97.760399 
L 500.852882 90.870885 
L 503.068047 85.327635 
L 505.283211 86.41483 
L 507.498376 82.729097 
L 509.713541 76.944231 
L 514.14387 72.786164 
L 516.359035 75.23024 
L 518.5742 73.719458 
L 520.789365 76.364928 
L 523.004529 73.584827 
L 525.219694 74.262434 
L 527.434859 74.536634 
L 529.650024 73.316879 
L 531.865188 67.129585 
L 534.080353 64.24599 
L 536.295518 58.274677 
L 538.510683 58.646895 
L 540.725847 61.25153 
L 545.156177 65.111913 
L 547.371342 65.221447 
L 549.586506 64.893717 
L 551.801671 68.413174 
L 554.016836 70.479213 
L 556.232001 69.372514 
L 558.447165 63.713901 
L 560.66233 59.306494 
L 562.877495 60.364864 
L 565.09266 66.220601 
L 567.307824 69.010134 
L 569.522989 70.729243 
L 571.738154 72.654548 
L 573.953319 79.813163 
L 578.383648 92.755024 
L 580.598813 91.282186 
L 582.813978 90.666766 
L 585.029142 89.46288 
L 587.244307 90.060418 
L 589.459472 85.327635 
L 591.674637 85.327635 
L 593.889801 87.343309 
L 596.104966 91.076021 
L 598.320131 92.755024 
L 600.535296 94.282567 
L 602.75046 90.463655 
L 604.965625 92.328804 
L 607.18079 88.293232 
L 611.611119 76.798639 
L 613.826284 74.812674 
L 616.041449 76.221368 
L 618.256613 77.384127 
L 620.471778 80.285021 
L 622.686943 82.729097 
L 624.902108 87.720649 
L 627.117272 94.060842 
L 629.332437 92.117339 
L 631.547602 89.661096 
L 633.762767 89.860273 
L 635.977931 87.531546 
L 640.408261 90.261542 
L 642.623426 93.185706 
L 644.83859 98.492701 
L 647.053755 100.511749 
L 649.26892 103.460426 
L 651.484085 107.5476 
L 653.699249 107.5476 
L 655.914414 107.241801 
L 658.129579 104.587342 
L 660.344744 105.453265 
L 662.559908 106.040844 
L 664.775073 108.478882 
L 666.990238 109.431739 
L 669.205403 112.086198 
L 671.420567 113.127516 
L 673.635732 116.41966 
L 675.850897 117.578324 
L 678.066062 115.292744 
L 680.281226 105.453265 
L 682.496391 102.363565 
L 684.711556 103.183457 
L 686.926721 102.363565 
L 689.141885 96.100757 
L 691.35705 96.100757 
L 693.572215 92.328804 
L 695.78738 94.060842 
L 698.002544 92.969801 
L 700.217709 91.48939 
L 702.432874 87.720649 
L 704.648039 90.666766 
L 706.863203 91.076021 
L 709.078368 96.803848 
L 711.293533 99.742944 
L 713.508698 104.020025 
L 715.723862 104.302705 
L 717.939027 104.020025 
L 720.154192 103.183457 
L 722.369357 98.003054 
L 724.584521 97.040908 
L 726.799686 92.117339 
L 729.014851 91.48939 
L 731.230016 91.282186 
L 733.44518 89.661096 
L 735.660345 84.618482 
L 737.87551 84.618482 
L 740.090675 83.066228 
L 742.305839 83.406146 
L 744.521004 82.394706 
L 746.736169 79.501571 
L 751.166498 87.531546 
L 753.381663 89.06929 
L 755.596828 90.463655 
L 757.811993 95.638619 
L 760.027157 94.060842 
L 762.242322 99.742944 
L 764.457487 99.997619 
L 766.672652 103.739274 
L 771.102981 98.492701 
L 773.318146 96.333788 
L 775.533311 97.519168 
L 777.748475 94.060842 
L 779.96364 94.729635 
L 782.178805 88.293232 
L 784.39397 90.870885 
L 786.609134 95.869039 
L 788.824299 94.729635 
L 791.039464 97.760399 
L 793.254629 102.093861 
L 795.469793 103.460426 
L 797.684958 114.195884 
L 799.900123 115.292744 
L 802.115288 112.086198 
L 804.330452 114.195884 
L 806.545617 115.292744 
L 808.760782 111.74487 
L 810.975947 112.777473 
L 813.191111 114.195884 
L 815.406276 116.41966 
L 817.621441 116.04058 
L 819.836606 110.407196 
L 822.05177 110.079467 
L 824.266935 113.836669 
L 826.4821 115.664963 
L 828.697265 116.802266 
L 830.912429 121.264057 
L 833.127594 124.842822 
L 835.342759 139.915385 
L 837.557924 142.704917 
L 839.773088 142.704917 
L 841.988253 151.523562 
L 846.418583 149.773091 
L 848.633747 155.265216 
L 850.848912 169.104266 
L 853.064077 171.941932 
L 855.279242 174.989981 
L 857.494406 171.941932 
L 859.709571 176.603123 
L 861.924736 174.989981 
L 864.139901 176.603123 
L 868.57023 173.437728 
L 870.785395 173.437728 
L 873.000559 180.032595 
L 875.215724 183.77425 
L 877.430889 192.46536 
L 879.646054 206.791159 
L 881.861218 214.290016 
L 884.076383 218.623477 
L 886.291548 223.467875 
L 890.721877 223.467875 
L 892.937042 228.96 
L 895.152207 223.467875 
L 897.367372 223.467875 
L 899.582536 218.623477 
L 901.797701 214.290016 
L 904.012866 214.290016 
L 906.228031 206.791159 
L 912.873525 206.791159 
L 915.08869 203.499015 
L 917.303854 206.791159 
L 919.519019 206.791159 
L 921.734184 210.369923 
L 923.949349 210.369923 
L 926.164513 214.290016 
L 928.379678 214.290016 
L 930.594843 223.467875 
L 932.810008 223.467875 
L 935.025172 218.623477 
L 937.240337 223.467875 
L 948.316161 223.467875 
L 950.531326 228.96 
L 999.26495 228.96 
L 1001.480115 223.467875 
L 1014.771103 223.467875 
L 1016.986268 228.96 
L 1019.201433 223.467875 
L 1032.492421 223.467875 
L 1034.707586 228.96 
L 1036.922751 223.467875 
L 1036.922751 223.467875 
" style="fill:none;stroke:#96c6ad;stroke-linecap:square;stroke-width:2;"/>
   </g>
   <g id="line2d_16">
    <path clip-path="url(#p619b85e7bd)" d="M 248.324101 218.623477 
L 250.539265 223.467875 
L 257.18476 223.467875 
L 259.399924 228.96 
L 312.563878 228.96 
L 314.779043 223.467875 
L 316.994208 218.623477 
L 323.639702 218.623477 
L 325.854867 214.290016 
L 328.070032 206.791159 
L 330.285196 203.499015 
L 332.500361 194.958841 
L 334.715526 192.46536 
L 336.930691 185.780982 
L 341.36102 185.780982 
L 343.576185 183.77425 
L 345.791349 174.989981 
L 348.006514 169.104266 
L 350.221679 167.755626 
L 352.436844 171.941932 
L 354.652008 170.498632 
L 356.867173 165.184174 
L 359.082338 162.764073 
L 361.297503 163.956326 
L 363.512667 170.498632 
L 365.727832 163.956326 
L 367.942997 159.381633 
L 370.158162 156.256345 
L 372.373326 156.256345 
L 374.588491 155.265216 
L 376.803656 148.094089 
L 379.018821 139.915385 
L 381.233985 124.842822 
L 383.44915 113.127516 
L 387.87948 105.746005 
L 390.094644 104.587342 
L 392.309809 99.742944 
L 394.524974 98.988247 
L 396.740139 98.492701 
L 398.955303 103.460426 
L 401.170468 101.295198 
L 403.385633 102.90834 
L 405.600798 103.460426 
L 407.815962 100.25388 
L 412.246292 90.870885 
L 414.461457 88.67943 
L 416.676621 84.094528 
L 418.891786 80.602627 
L 421.106951 79.657072 
L 423.322116 80.443517 
L 425.53728 78.885382 
L 427.752445 76.65356 
L 429.96761 71.107162 
L 432.182775 68.294814 
L 434.397939 67.708073 
L 436.613104 67.475701 
L 438.828269 60.364864 
L 441.043434 55.068131 
L 443.258598 54.388283 
L 447.688928 51.460814 
L 449.904093 50.915007 
L 452.119257 50.992538 
L 454.334422 47.927862 
L 456.549587 47.999957 
L 458.764752 47.49793 
L 460.979916 45.958879 
L 463.195081 46.0276 
L 465.410246 46.651317 
L 469.840575 44.145514 
L 472.05574 44.079864 
L 474.270905 40.621539 
L 476.48607 39.726728 
L 478.701234 37.487426 
L 480.916399 36.822239 
L 483.131564 36.005604 
L 485.346729 32.692732 
L 487.561893 28.175666 
L 489.777058 28.131129 
L 491.992223 28.985689 
L 494.207388 28.894895 
L 496.422552 29.213556 
L 500.852882 28.533708 
L 503.068047 29.305057 
L 505.283211 29.167881 
L 507.498376 27.119869 
L 509.713541 25.543494 
L 511.928706 23.14848 
L 516.359035 22.289951 
L 518.5742 19.671714 
L 520.789365 18.28218 
L 523.004529 18.142283 
L 525.219694 17.76 
L 527.434859 18.387417 
L 529.650024 18.107382 
L 531.865188 18.846578 
L 534.080353 21.034852 
L 536.295518 22.174255 
L 538.510683 21.867315 
L 540.725847 23.824384 
L 542.941012 24.348852 
L 545.156177 25.33503 
L 547.371342 24.593189 
L 549.586506 23.187933 
L 551.801671 23.784316 
L 554.016836 25.33503 
L 556.232001 26.005868 
L 558.447165 25.627176 
L 560.66233 25.459981 
L 562.877495 31.758481 
L 565.09266 35.683436 
L 567.307824 37.431581 
L 569.522989 38.620551 
L 571.738154 38.850971 
L 573.953319 39.491364 
L 576.168483 40.261275 
L 578.383648 36.98753 
L 580.598813 35.576605 
L 582.813978 36.005604 
L 587.244307 37.599344 
L 589.459472 38.505823 
L 591.674637 39.667761 
L 593.889801 40.681891 
L 596.104966 46.721206 
L 600.535296 48.727938 
L 602.75046 50.915007 
L 604.965625 51.226009 
L 607.18079 49.469036 
L 609.395954 49.844653 
L 611.611119 47.784052 
L 613.826284 48.362337 
L 616.041449 47.712334 
L 618.256613 48.362337 
L 620.471778 49.543885 
L 622.686943 50.915007 
L 624.902108 52.898508 
L 629.332437 52.655375 
L 631.547602 54.897112 
L 633.762767 54.641911 
L 635.977931 54.052527 
L 638.193096 54.304087 
L 640.408261 56.818601 
L 642.623426 55.498814 
L 644.83859 57.814091 
L 649.26892 60.560256 
L 651.484085 60.462444 
L 653.699249 61.152062 
L 655.914414 64.460767 
L 658.129579 73.183557 
L 662.559908 78.278289 
L 664.775073 79.346657 
L 666.990238 83.406146 
L 669.205403 84.794627 
L 671.420567 89.860273 
L 673.635732 87.720649 
L 675.850897 87.343309 
L 678.066062 86.78371 
L 680.281226 90.261542 
L 682.496391 90.870885 
L 686.926721 89.265614 
L 689.141885 99.997619 
L 691.35705 106.938258 
L 693.572215 112.086198 
L 695.78738 114.558263 
L 698.002544 115.292744 
L 700.217709 118.369306 
L 702.432874 119.1758 
L 704.648039 115.292744 
L 706.863203 114.923864 
L 709.078368 113.127516 
L 711.293533 111.74487 
L 713.508698 110.737558 
L 715.723862 111.406351 
L 717.939027 116.04058 
L 720.154192 123.464039 
L 724.584521 127.248761 
L 726.799686 130.334947 
L 729.014851 132.529058 
L 731.230016 132.529058 
L 733.44518 131.96946 
L 735.660345 123.014528 
L 737.87551 118.770576 
L 740.090675 119.585055 
L 742.305839 114.195884 
L 744.521004 112.430383 
L 746.736169 111.74487 
L 751.166498 113.127516 
L 753.381663 115.292744 
L 755.596828 114.558263 
L 757.811993 119.998424 
L 760.027157 123.464039 
L 762.242322 124.378073 
L 764.457487 130.334947 
L 766.672652 133.671628 
L 768.887816 140.595232 
L 771.102981 143.432898 
L 773.318146 147.27961 
L 775.533311 148.925023 
L 777.748475 148.094089 
L 779.96364 143.432898 
L 782.178805 151.523562 
L 784.39397 152.427551 
L 786.609134 156.256345 
L 788.824299 158.313266 
L 791.039464 159.381633 
L 793.254629 162.764073 
L 795.469793 163.956326 
L 797.684958 167.755626 
L 799.900123 167.755626 
L 802.115288 170.498632 
L 806.545617 173.437728 
L 808.760782 173.437728 
L 810.975947 190.114443 
L 813.191111 203.499015 
L 815.406276 206.791159 
L 817.621441 200.450966 
L 819.836606 206.791159 
L 824.266935 206.791159 
L 826.4821 203.499015 
L 828.697265 214.290016 
L 839.773088 214.290016 
L 841.988253 218.623477 
L 844.203418 218.623477 
L 846.418583 214.290016 
L 848.633747 223.467875 
L 850.848912 218.623477 
L 859.709571 218.623477 
L 861.924736 223.467875 
L 864.139901 223.467875 
L 866.355065 228.96 
L 888.506713 228.96 
L 890.721877 218.623477 
L 892.937042 203.499015 
L 895.152207 200.450966 
L 897.367372 194.958841 
L 901.797701 194.958841 
L 904.012866 192.46536 
L 906.228031 197.6133 
L 908.443195 210.369923 
L 910.65836 214.290016 
L 912.873525 223.467875 
L 917.303854 223.467875 
L 919.519019 228.96 
L 979.328467 228.96 
L 981.543632 223.467875 
L 994.834621 223.467875 
L 997.049785 228.96 
L 1045.78341 228.96 
L 1047.998575 223.467875 
L 1050.213739 218.623477 
L 1052.428904 214.290016 
L 1061.289563 214.290016 
L 1063.504728 218.623477 
L 1065.719893 223.467875 
L 1067.935057 228.96 
L 1081.226046 228.96 
L 1083.441211 223.467875 
L 1083.441211 223.467875 
" style="fill:none;stroke:#525886;stroke-linecap:square;stroke-width:2;"/>
   </g>
   <g id="line2d_17">
    <path clip-path="url(#p619b85e7bd)" d="M 339.145855 200.450966 
L 341.36102 203.499015 
L 343.576185 203.499015 
L 345.791349 206.791159 
L 348.006514 210.369923 
L 350.221679 210.369923 
L 352.436844 218.623477 
L 354.652008 214.290016 
L 356.867173 210.369923 
L 359.082338 206.791159 
L 361.297503 210.369923 
L 363.512667 210.369923 
L 365.727832 197.6133 
L 367.942997 194.958841 
L 370.158162 180.032595 
L 372.373326 173.437728 
L 374.588491 170.498632 
L 376.803656 169.104266 
L 379.018821 165.184174 
L 381.233985 159.381633 
L 383.44915 154.297411 
L 385.664315 159.381633 
L 387.87948 162.764073 
L 390.094644 166.449807 
L 392.309809 167.755626 
L 394.524974 167.755626 
L 396.740139 166.449807 
L 398.955303 170.498632 
L 401.170468 174.989981 
L 403.385633 178.282125 
L 405.600798 176.603123 
L 407.815962 169.104266 
L 410.031127 165.184174 
L 412.246292 171.941932 
L 414.461457 173.437728 
L 416.676621 169.104266 
L 418.891786 163.956326 
L 421.106951 165.184174 
L 423.322116 162.764073 
L 425.53728 162.764073 
L 427.752445 159.381633 
L 429.96761 158.313266 
L 432.182775 159.381633 
L 434.397939 162.764073 
L 436.613104 159.381633 
L 438.828269 159.381633 
L 441.043434 158.313266 
L 443.258598 156.256345 
L 445.473763 146.480947 
L 447.688928 134.846846 
L 449.904093 130.334947 
L 452.119257 130.334947 
L 454.334422 131.417373 
L 456.549587 127.248761 
L 458.764752 129.804232 
L 460.979916 135.447292 
L 463.195081 141.989598 
L 465.410246 141.989598 
L 467.625411 135.447292 
L 469.840575 127.248761 
L 472.05574 128.251978 
L 474.270905 126.756183 
L 476.48607 122.129981 
L 478.701234 118.770576 
L 480.916399 116.802266 
L 483.131564 117.971914 
L 485.346729 117.578324 
L 487.561893 116.802266 
L 489.777058 114.558263 
L 491.992223 113.836669 
L 494.207388 114.195884 
L 496.422552 114.195884 
L 498.637717 113.127516 
L 500.852882 112.430383 
L 503.068047 108.166106 
L 505.283211 108.478882 
L 507.498376 107.241801 
L 509.713541 105.746005 
L 511.928706 104.587342 
L 514.14387 105.453265 
L 516.359035 105.746005 
L 518.5742 104.302705 
L 520.789365 101.825913 
L 523.004529 98.988247 
L 525.219694 95.638619 
L 529.650024 90.463655 
L 531.865188 87.343309 
L 534.080353 88.67943 
L 536.295518 85.68685 
L 538.510683 85.86764 
L 542.941012 85.50685 
L 545.156177 84.094528 
L 547.371342 79.346657 
L 549.586506 76.078308 
L 551.801671 74.262434 
L 554.016836 70.230694 
L 556.232001 69.738115 
L 558.447165 67.708073 
L 560.66233 69.010134 
L 562.877495 71.36105 
L 565.09266 71.873578 
L 567.307824 69.615886 
L 571.738154 67.708073 
L 573.953319 67.591723 
L 576.168483 64.032328 
L 578.383648 62.056051 
L 580.598813 60.462444 
L 582.813978 61.853441 
L 585.029142 62.876624 
L 587.244307 64.24599 
L 589.459472 64.032328 
L 591.674637 67.824754 
L 593.889801 68.531875 
L 596.104966 69.372514 
L 598.320131 69.251365 
L 600.535296 71.36105 
L 602.75046 70.980803 
L 604.965625 75.652088 
L 607.18079 73.719458 
L 611.611119 75.510991 
L 613.826284 76.221368 
L 616.041449 75.370376 
L 620.471778 68.770309 
L 622.686943 69.860707 
L 624.902108 68.770309 
L 627.117272 69.130573 
L 629.332437 70.604038 
L 631.547602 71.873578 
L 633.762767 75.09058 
L 635.977931 78.885382 
L 638.193096 80.127132 
L 640.408261 85.68685 
L 642.623426 90.666766 
L 644.83859 93.840307 
L 649.26892 102.363565 
L 651.484085 102.363565 
L 653.699249 101.825913 
L 655.914414 102.635051 
L 658.129579 102.90834 
L 660.344744 102.90834 
L 662.559908 101.295198 
L 666.990238 102.363565 
L 669.205403 105.162594 
L 671.420567 108.794055 
L 673.635732 109.431739 
L 675.850897 115.664963 
L 678.066062 120.415989 
L 680.281226 125.788377 
L 682.496391 128.762914 
L 684.711556 130.872599 
L 686.926721 137.303088 
L 689.141885 141.286507 
L 691.35705 141.286507 
L 693.572215 151.523562 
L 695.78738 146.480947 
L 698.002544 150.639015 
L 702.432874 148.925023 
L 704.648039 152.427551 
L 706.863203 153.351856 
L 709.078368 148.925023 
L 711.293533 157.271948 
L 715.723862 159.381633 
L 717.939027 158.313266 
L 720.154192 158.313266 
L 722.369357 161.60541 
L 724.584521 166.449807 
L 726.799686 167.755626 
L 729.014851 171.941932 
L 731.230016 174.989981 
L 733.44518 174.989981 
L 735.660345 178.282125 
L 737.87551 180.032595 
L 740.090675 178.282125 
L 742.305839 181.860889 
L 746.736169 181.860889 
L 748.951334 187.890667 
L 751.166498 190.114443 
L 753.381663 187.890667 
L 755.596828 183.77425 
L 757.811993 178.282125 
L 760.027157 178.282125 
L 762.242322 176.603123 
L 764.457487 181.860889 
L 766.672652 181.860889 
L 768.887816 185.780982 
L 771.102981 190.114443 
L 773.318146 200.450966 
L 775.533311 200.450966 
L 777.748475 197.6133 
L 779.96364 194.958841 
L 782.178805 194.958841 
L 784.39397 192.46536 
L 786.609134 200.450966 
L 791.039464 200.450966 
L 793.254629 206.791159 
L 795.469793 197.6133 
L 799.900123 197.6133 
L 802.115288 190.114443 
L 804.330452 192.46536 
L 808.760782 192.46536 
L 810.975947 203.499015 
L 813.191111 210.369923 
L 815.406276 210.369923 
L 817.621441 223.467875 
L 819.836606 223.467875 
L 822.05177 218.623477 
L 824.266935 218.623477 
L 826.4821 214.290016 
L 835.342759 214.290016 
L 837.557924 218.623477 
L 839.773088 218.623477 
L 841.988253 223.467875 
L 844.203418 218.623477 
L 846.418583 223.467875 
L 857.494406 223.467875 
L 859.709571 228.96 
L 861.924736 228.96 
L 864.139901 223.467875 
L 877.430889 223.467875 
L 879.646054 228.96 
L 881.861218 223.467875 
L 890.721877 223.467875 
L 892.937042 218.623477 
L 895.152207 218.623477 
L 897.367372 223.467875 
L 906.228031 223.467875 
L 908.443195 228.96 
L 935.025172 228.96 
L 937.240337 223.467875 
L 939.455502 218.623477 
L 950.531326 218.623477 
L 952.74649 223.467875 
L 954.961655 228.96 
L 1014.771103 228.96 
L 1016.986268 223.467875 
L 1030.277257 223.467875 
L 1032.492421 228.96 
L 1047.998575 228.96 
L 1050.213739 223.467875 
L 1063.504728 223.467875 
L 1065.719893 228.96 
L 1110.023188 228.96 
L 1112.238352 223.467875 
L 1112.238352 223.467875 
" style="fill:none;stroke:#937252;stroke-linecap:square;stroke-width:2;"/>
   </g>
   <g id="line2d_18">
    <path clip-path="url(#p619b85e7bd)" d="M 319.209373 190.114443 
L 321.424537 187.890667 
L 323.639702 183.77425 
L 325.854867 185.780982 
L 328.070032 185.780982 
L 330.285196 187.890667 
L 332.500361 185.780982 
L 334.715526 190.114443 
L 336.930691 187.890667 
L 339.145855 192.46536 
L 341.36102 183.77425 
L 343.576185 180.032595 
L 345.791349 173.437728 
L 348.006514 169.104266 
L 350.221679 170.498632 
L 352.436844 170.498632 
L 354.652008 162.764073 
L 356.867173 166.449807 
L 361.297503 163.956326 
L 363.512667 163.956326 
L 365.727832 162.764073 
L 370.158162 167.755626 
L 372.373326 167.755626 
L 374.588491 170.498632 
L 376.803656 169.104266 
L 379.018821 169.104266 
L 381.233985 161.60541 
L 383.44915 157.271948 
L 385.664315 156.256345 
L 387.87948 154.297411 
L 390.094644 151.523562 
L 394.524974 151.523562 
L 396.740139 154.297411 
L 401.170468 158.313266 
L 403.385633 158.313266 
L 405.600798 160.478494 
L 407.815962 167.755626 
L 410.031127 167.755626 
L 412.246292 169.104266 
L 414.461457 167.755626 
L 416.676621 165.184174 
L 418.891786 170.498632 
L 421.106951 171.941932 
L 423.322116 167.755626 
L 425.53728 176.603123 
L 427.752445 173.437728 
L 429.96761 176.603123 
L 432.182775 180.032595 
L 434.397939 180.032595 
L 436.613104 174.989981 
L 438.828269 171.941932 
L 441.043434 167.755626 
L 443.258598 166.449807 
L 445.473763 163.956326 
L 447.688928 165.184174 
L 449.904093 163.956326 
L 452.119257 166.449807 
L 456.549587 169.104266 
L 458.764752 171.941932 
L 460.979916 176.603123 
L 463.195081 176.603123 
L 465.410246 178.282125 
L 467.625411 176.603123 
L 469.840575 183.77425 
L 472.05574 180.032595 
L 474.270905 174.989981 
L 476.48607 173.437728 
L 478.701234 169.104266 
L 480.916399 166.449807 
L 483.131564 169.104266 
L 485.346729 161.60541 
L 487.561893 162.764073 
L 489.777058 154.297411 
L 491.992223 150.639015 
L 494.207388 154.297411 
L 498.637717 152.427551 
L 500.852882 158.313266 
L 503.068047 159.381633 
L 505.283211 174.989981 
L 507.498376 170.498632 
L 509.713541 165.184174 
L 511.928706 161.60541 
L 514.14387 157.271948 
L 516.359035 145.697498 
L 518.5742 145.697498 
L 520.789365 142.704917 
L 523.004529 144.928694 
L 525.219694 145.697498 
L 527.434859 139.915385 
L 529.650024 140.595232 
L 531.865188 143.432898 
L 534.080353 141.989598 
L 536.295518 138.588501 
L 538.510683 137.303088 
L 540.725847 136.67514 
L 542.941012 144.928694 
L 545.156177 144.928694 
L 547.371342 147.27961 
L 549.586506 146.480947 
L 551.801671 154.297411 
L 554.016836 158.313266 
L 556.232001 158.313266 
L 558.447165 151.523562 
L 560.66233 149.773091 
L 562.877495 154.297411 
L 565.09266 156.256345 
L 567.307824 144.173997 
L 569.522989 141.989598 
L 571.738154 141.286507 
L 573.953319 143.432898 
L 576.168483 148.925023 
L 578.383648 148.925023 
L 580.598813 146.480947 
L 582.813978 157.271948 
L 585.029142 163.956326 
L 587.244307 157.271948 
L 589.459472 159.381633 
L 591.674637 152.427551 
L 593.889801 151.523562 
L 598.320131 153.351856 
L 600.535296 153.351856 
L 602.75046 161.60541 
L 604.965625 162.764073 
L 607.18079 170.498632 
L 609.395954 166.449807 
L 611.611119 158.313266 
L 613.826284 160.478494 
L 616.041449 155.265216 
L 620.471778 159.381633 
L 622.686943 155.265216 
L 624.902108 157.271948 
L 627.117272 167.755626 
L 629.332437 163.956326 
L 631.547602 166.449807 
L 633.762767 166.449807 
L 635.977931 158.313266 
L 640.408261 162.764073 
L 642.623426 162.764073 
L 644.83859 165.184174 
L 647.053755 169.104266 
L 649.26892 171.941932 
L 651.484085 185.780982 
L 653.699249 192.46536 
L 655.914414 194.958841 
L 658.129579 203.499015 
L 660.344744 210.369923 
L 662.559908 214.290016 
L 664.775073 218.623477 
L 666.990238 214.290016 
L 669.205403 210.369923 
L 671.420567 206.791159 
L 673.635732 194.958841 
L 675.850897 197.6133 
L 678.066062 194.958841 
L 682.496391 194.958841 
L 684.711556 197.6133 
L 686.926721 200.450966 
L 689.141885 214.290016 
L 691.35705 206.791159 
L 693.572215 206.791159 
L 695.78738 200.450966 
L 698.002544 197.6133 
L 702.432874 192.46536 
L 704.648039 187.890667 
L 706.863203 187.890667 
L 709.078368 185.780982 
L 711.293533 187.890667 
L 713.508698 192.46536 
L 715.723862 194.958841 
L 717.939027 200.450966 
L 720.154192 206.791159 
L 722.369357 214.290016 
L 724.584521 223.467875 
L 726.799686 228.96 
L 733.44518 228.96 
L 735.660345 218.623477 
L 737.87551 214.290016 
L 740.090675 210.369923 
L 748.951334 210.369923 
L 751.166498 218.623477 
L 753.381663 223.467875 
L 755.596828 228.96 
L 779.96364 228.96 
L 782.178805 218.623477 
L 795.469793 218.623477 
L 797.684958 228.96 
L 799.900123 228.96 
L 802.115288 223.467875 
L 804.330452 218.623477 
L 810.975947 218.623477 
L 813.191111 214.290016 
L 815.406276 214.290016 
L 817.621441 218.623477 
L 828.697265 218.623477 
L 830.912429 214.290016 
L 833.127594 214.290016 
L 835.342759 218.623477 
L 844.203418 218.623477 
L 846.418583 223.467875 
L 857.494406 223.467875 
L 859.709571 228.96 
L 908.443195 228.96 
L 910.65836 223.467875 
L 923.949349 223.467875 
L 926.164513 228.96 
L 963.822314 228.96 
L 966.037479 223.467875 
L 979.328467 223.467875 
L 981.543632 228.96 
L 1050.213739 228.96 
L 1052.428904 223.467875 
L 1065.719893 223.467875 
L 1067.935057 228.96 
L 1081.226046 228.96 
L 1083.441211 223.467875 
L 1083.441211 223.467875 
" style="fill:none;stroke:#d18cad;stroke-linecap:square;stroke-width:2;"/>
   </g>
   <g id="line2d_19">
    <path clip-path="url(#p619b85e7bd)" d="M 354.652008 210.369923 
L 356.867173 214.290016 
L 359.082338 214.290016 
L 361.297503 206.791159 
L 363.512667 214.290016 
L 365.727832 203.499015 
L 367.942997 206.791159 
L 370.158162 200.450966 
L 372.373326 197.6133 
L 374.588491 197.6133 
L 376.803656 200.450966 
L 379.018821 194.958841 
L 381.233985 203.499015 
L 383.44915 197.6133 
L 385.664315 197.6133 
L 387.87948 200.450966 
L 390.094644 194.958841 
L 392.309809 194.958841 
L 394.524974 200.450966 
L 396.740139 200.450966 
L 398.955303 206.791159 
L 401.170468 210.369923 
L 403.385633 210.369923 
L 405.600798 214.290016 
L 407.815962 214.290016 
L 410.031127 206.791159 
L 412.246292 203.499015 
L 414.461457 200.450966 
L 416.676621 203.499015 
L 418.891786 203.499015 
L 421.106951 206.791159 
L 423.322116 210.369923 
L 425.53728 218.623477 
L 427.752445 218.623477 
L 429.96761 223.467875 
L 432.182775 218.623477 
L 434.397939 218.623477 
L 436.613104 214.290016 
L 445.473763 214.290016 
L 447.688928 218.623477 
L 449.904093 218.623477 
L 452.119257 223.467875 
L 456.549587 223.467875 
L 458.764752 228.96 
L 463.195081 228.96 
L 465.410246 223.467875 
L 467.625411 223.467875 
L 469.840575 218.623477 
L 478.701234 218.623477 
L 480.916399 223.467875 
L 483.131564 223.467875 
L 485.346729 228.96 
L 487.561893 223.467875 
L 489.777058 214.290016 
L 494.207388 214.290016 
L 496.422552 206.791159 
L 498.637717 206.791159 
L 500.852882 203.499015 
L 503.068047 200.450966 
L 505.283211 206.791159 
L 509.713541 206.791159 
L 511.928706 214.290016 
L 516.359035 214.290016 
L 518.5742 223.467875 
L 520.789365 223.467875 
L 523.004529 218.623477 
L 525.219694 210.369923 
L 529.650024 210.369923 
L 531.865188 214.290016 
L 534.080353 210.369923 
L 536.295518 206.791159 
L 538.510683 210.369923 
L 540.725847 214.290016 
L 542.941012 210.369923 
L 547.371342 210.369923 
L 549.586506 214.290016 
L 551.801671 218.623477 
L 554.016836 218.623477 
L 556.232001 223.467875 
L 558.447165 228.96 
L 560.66233 223.467875 
L 562.877495 218.623477 
L 565.09266 214.290016 
L 571.738154 214.290016 
L 573.953319 210.369923 
L 576.168483 210.369923 
L 578.383648 214.290016 
L 589.459472 214.290016 
L 591.674637 210.369923 
L 596.104966 210.369923 
L 598.320131 206.791159 
L 600.535296 206.791159 
L 602.75046 200.450966 
L 604.965625 203.499015 
L 607.18079 206.791159 
L 609.395954 203.499015 
L 616.041449 203.499015 
L 618.256613 210.369923 
L 620.471778 206.791159 
L 622.686943 210.369923 
L 624.902108 214.290016 
L 627.117272 218.623477 
L 629.332437 223.467875 
L 633.762767 223.467875 
L 635.977931 228.96 
L 638.193096 228.96 
L 640.408261 218.623477 
L 653.699249 218.623477 
L 655.914414 223.467875 
L 658.129579 218.623477 
L 660.344744 218.623477 
L 662.559908 214.290016 
L 666.990238 214.290016 
L 669.205403 210.369923 
L 671.420567 214.290016 
L 673.635732 218.623477 
L 675.850897 218.623477 
L 678.066062 223.467875 
L 680.281226 218.623477 
L 682.496391 218.623477 
L 684.711556 223.467875 
L 693.572215 223.467875 
L 695.78738 228.96 
L 698.002544 223.467875 
L 700.217709 223.467875 
L 702.432874 218.623477 
L 704.648039 210.369923 
L 706.863203 210.369923 
L 709.078368 206.791159 
L 713.508698 206.791159 
L 715.723862 203.499015 
L 717.939027 206.791159 
L 720.154192 210.369923 
L 722.369357 203.499015 
L 726.799686 203.499015 
L 729.014851 206.791159 
L 731.230016 210.369923 
L 733.44518 210.369923 
L 735.660345 214.290016 
L 737.87551 223.467875 
L 740.090675 223.467875 
L 742.305839 218.623477 
L 744.521004 218.623477 
L 746.736169 214.290016 
L 748.951334 203.499015 
L 751.166498 203.499015 
L 753.381663 200.450966 
L 753.381663 200.450966 
" style="fill:none;stroke:#a4a86f;stroke-linecap:square;stroke-width:2;"/>
   </g>
   <g id="line2d_20">
    <path clip-path="url(#p619b85e7bd)" d="M 489.777058 218.623477 
L 491.992223 223.467875 
L 494.207388 228.96 
L 496.422552 228.96 
L 498.637717 214.290016 
L 500.852882 214.290016 
L 503.068047 210.369923 
L 505.283211 203.499015 
L 511.928706 203.499015 
L 514.14387 214.290016 
L 516.359035 214.290016 
L 518.5742 218.623477 
L 520.789365 228.96 
L 523.004529 228.96 
L 525.219694 223.467875 
L 527.434859 218.623477 
L 529.650024 218.623477 
L 531.865188 210.369923 
L 538.510683 210.369923 
L 540.725847 214.290016 
L 542.941012 218.623477 
L 545.156177 218.623477 
L 547.371342 228.96 
L 549.586506 228.96 
L 551.801671 223.467875 
L 560.66233 223.467875 
L 562.877495 210.369923 
L 565.09266 203.499015 
L 567.307824 206.791159 
L 571.738154 206.791159 
L 573.953319 200.450966 
L 576.168483 200.450966 
L 578.383648 210.369923 
L 580.598813 218.623477 
L 587.244307 218.623477 
L 589.459472 228.96 
L 602.75046 228.96 
L 604.965625 223.467875 
L 618.256613 223.467875 
L 620.471778 228.96 
L 664.775073 228.96 
L 666.990238 223.467875 
L 680.281226 223.467875 
L 682.496391 228.96 
L 735.660345 228.96 
L 737.87551 223.467875 
L 751.166498 223.467875 
L 753.381663 228.96 
L 846.418583 228.96 
L 848.633747 223.467875 
L 848.633747 223.467875 
" style="fill:none;stroke:#d3d3d3;stroke-linecap:square;stroke-width:2;"/>
   </g>
   <g id="patch_3">
    <path d="M 46.965625 228.96 
L 46.965625 7.2 
" style="fill:none;stroke:#000000;stroke-linecap:square;stroke-linejoin:miter;stroke-width:0.8;"/>
   </g>
   <g id="patch_4">
    <path d="M 46.965625 228.96 
L 1162.965625 228.96 
" style="fill:none;stroke:#000000;stroke-linecap:square;stroke-linejoin:miter;stroke-width:0.8;"/>
   </g>
   <g id="legend_1">
    <g id="line2d_21">
     <path d="M 1069.154375 17.67875 
L 1085.154375 17.67875 
" style="fill:none;stroke:#947383;stroke-linecap:square;stroke-width:2;"/>
    </g>
    <g id="line2d_22"/>
    <g id="text_16">
     <!-- Africa -->
     <g transform="translate(1091.554375 20.47875)scale(0.08 -0.08)">
      <defs>
       <path d="M 2188 4044 
L 1331 1722 
L 3047 1722 
L 2188 4044 
z
M 1831 4666 
L 2547 4666 
L 4325 0 
L 3669 0 
L 3244 1197 
L 1141 1197 
L 716 0 
L 50 0 
L 1831 4666 
z
" id="DejaVuSans-41" transform="scale(0.015625)"/>
       <path d="M 2375 4863 
L 2375 4384 
L 1825 4384 
Q 1516 4384 1395 4259 
Q 1275 4134 1275 3809 
L 1275 3500 
L 2222 3500 
L 2222 3053 
L 1275 3053 
L 1275 0 
L 697 0 
L 697 3053 
L 147 3053 
L 147 3500 
L 697 3500 
L 697 3744 
Q 697 4328 969 4595 
Q 1241 4863 1831 4863 
L 2375 4863 
z
" id="DejaVuSans-66" transform="scale(0.015625)"/>
       <path d="M 3122 3366 
L 3122 2828 
Q 2878 2963 2633 3030 
Q 2388 3097 2138 3097 
Q 1578 3097 1268 2742 
Q 959 2388 959 1747 
Q 959 1106 1268 751 
Q 1578 397 2138 397 
Q 2388 397 2633 464 
Q 2878 531 3122 666 
L 3122 134 
Q 2881 22 2623 -34 
Q 2366 -91 2075 -91 
Q 1284 -91 818 406 
Q 353 903 353 1747 
Q 353 2603 823 3093 
Q 1294 3584 2113 3584 
Q 2378 3584 2631 3529 
Q 2884 3475 3122 3366 
z
" id="DejaVuSans-63" transform="scale(0.015625)"/>
      </defs>
      <use xlink:href="#DejaVuSans-41"/>
      <use x="64.783203" xlink:href="#DejaVuSans-66"/>
      <use x="99.988281" xlink:href="#DejaVuSans-72"/>
      <use x="141.101562" xlink:href="#DejaVuSans-69"/>
      <use x="168.884766" xlink:href="#DejaVuSans-63"/>
      <use x="223.865234" xlink:href="#DejaVuSans-61"/>
     </g>
    </g>
    <g id="line2d_23">
     <path d="M 1069.154375 29.42125 
L 1085.154375 29.42125 
" style="fill:none;stroke:#96c6ad;stroke-linecap:square;stroke-width:2;"/>
    </g>
    <g id="line2d_24"/>
    <g id="text_17">
     <!-- Asia -->
     <g transform="translate(1091.554375 32.22125)scale(0.08 -0.08)">
      <defs>
       <path d="M 2834 3397 
L 2834 2853 
Q 2591 2978 2328 3040 
Q 2066 3103 1784 3103 
Q 1356 3103 1142 2972 
Q 928 2841 928 2578 
Q 928 2378 1081 2264 
Q 1234 2150 1697 2047 
L 1894 2003 
Q 2506 1872 2764 1633 
Q 3022 1394 3022 966 
Q 3022 478 2636 193 
Q 2250 -91 1575 -91 
Q 1294 -91 989 -36 
Q 684 19 347 128 
L 347 722 
Q 666 556 975 473 
Q 1284 391 1588 391 
Q 1994 391 2212 530 
Q 2431 669 2431 922 
Q 2431 1156 2273 1281 
Q 2116 1406 1581 1522 
L 1381 1569 
Q 847 1681 609 1914 
Q 372 2147 372 2553 
Q 372 3047 722 3315 
Q 1072 3584 1716 3584 
Q 2034 3584 2315 3537 
Q 2597 3491 2834 3397 
z
" id="DejaVuSans-73" transform="scale(0.015625)"/>
      </defs>
      <use xlink:href="#DejaVuSans-41"/>
      <use x="68.408203" xlink:href="#DejaVuSans-73"/>
      <use x="120.507812" xlink:href="#DejaVuSans-69"/>
      <use x="148.291016" xlink:href="#DejaVuSans-61"/>
     </g>
    </g>
    <g id="line2d_25">
     <path d="M 1069.154375 41.16375 
L 1085.154375 41.16375 
" style="fill:none;stroke:#525886;stroke-linecap:square;stroke-width:2;"/>
    </g>
    <g id="line2d_26"/>
    <g id="text_18">
     <!-- Europe -->
     <g transform="translate(1091.554375 43.96375)scale(0.08 -0.08)">
      <defs>
       <path d="M 628 4666 
L 3578 4666 
L 3578 4134 
L 1259 4134 
L 1259 2753 
L 3481 2753 
L 3481 2222 
L 1259 2222 
L 1259 531 
L 3634 531 
L 3634 0 
L 628 0 
L 628 4666 
z
" id="DejaVuSans-45" transform="scale(0.015625)"/>
       <path d="M 1159 525 
L 1159 -1331 
L 581 -1331 
L 581 3500 
L 1159 3500 
L 1159 2969 
Q 1341 3281 1617 3432 
Q 1894 3584 2278 3584 
Q 2916 3584 3314 3078 
Q 3713 2572 3713 1747 
Q 3713 922 3314 415 
Q 2916 -91 2278 -91 
Q 1894 -91 1617 61 
Q 1341 213 1159 525 
z
M 3116 1747 
Q 3116 2381 2855 2742 
Q 2594 3103 2138 3103 
Q 1681 3103 1420 2742 
Q 1159 2381 1159 1747 
Q 1159 1113 1420 752 
Q 1681 391 2138 391 
Q 2594 391 2855 752 
Q 3116 1113 3116 1747 
z
" id="DejaVuSans-70" transform="scale(0.015625)"/>
      </defs>
      <use xlink:href="#DejaVuSans-45"/>
      <use x="63.183594" xlink:href="#DejaVuSans-75"/>
      <use x="126.5625" xlink:href="#DejaVuSans-72"/>
      <use x="165.425781" xlink:href="#DejaVuSans-6f"/>
      <use x="226.607422" xlink:href="#DejaVuSans-70"/>
      <use x="290.083984" xlink:href="#DejaVuSans-65"/>
     </g>
    </g>
    <g id="line2d_27">
     <path d="M 1069.154375 52.90625 
L 1085.154375 52.90625 
" style="fill:none;stroke:#937252;stroke-linecap:square;stroke-width:2;"/>
    </g>
    <g id="line2d_28"/>
    <g id="text_19">
     <!-- North America -->
     <g transform="translate(1091.554375 55.70625)scale(0.08 -0.08)">
      <defs>
       <path d="M 628 4666 
L 1478 4666 
L 3547 763 
L 3547 4666 
L 4159 4666 
L 4159 0 
L 3309 0 
L 1241 3903 
L 1241 0 
L 628 0 
L 628 4666 
z
" id="DejaVuSans-4e" transform="scale(0.015625)"/>
       <path d="M 3513 2113 
L 3513 0 
L 2938 0 
L 2938 2094 
Q 2938 2591 2744 2837 
Q 2550 3084 2163 3084 
Q 1697 3084 1428 2787 
Q 1159 2491 1159 1978 
L 1159 0 
L 581 0 
L 581 4863 
L 1159 4863 
L 1159 2956 
Q 1366 3272 1645 3428 
Q 1925 3584 2291 3584 
Q 2894 3584 3203 3211 
Q 3513 2838 3513 2113 
z
" id="DejaVuSans-68" transform="scale(0.015625)"/>
       <path d="M 3328 2828 
Q 3544 3216 3844 3400 
Q 4144 3584 4550 3584 
Q 5097 3584 5394 3201 
Q 5691 2819 5691 2113 
L 5691 0 
L 5113 0 
L 5113 2094 
Q 5113 2597 4934 2840 
Q 4756 3084 4391 3084 
Q 3944 3084 3684 2787 
Q 3425 2491 3425 1978 
L 3425 0 
L 2847 0 
L 2847 2094 
Q 2847 2600 2669 2842 
Q 2491 3084 2119 3084 
Q 1678 3084 1418 2786 
Q 1159 2488 1159 1978 
L 1159 0 
L 581 0 
L 581 3500 
L 1159 3500 
L 1159 2956 
Q 1356 3278 1631 3431 
Q 1906 3584 2284 3584 
Q 2666 3584 2933 3390 
Q 3200 3197 3328 2828 
z
" id="DejaVuSans-6d" transform="scale(0.015625)"/>
      </defs>
      <use xlink:href="#DejaVuSans-4e"/>
      <use x="74.804688" xlink:href="#DejaVuSans-6f"/>
      <use x="135.986328" xlink:href="#DejaVuSans-72"/>
      <use x="177.099609" xlink:href="#DejaVuSans-74"/>
      <use x="216.308594" xlink:href="#DejaVuSans-68"/>
      <use x="279.6875" xlink:href="#DejaVuSans-20"/>
      <use x="311.474609" xlink:href="#DejaVuSans-41"/>
      <use x="379.882812" xlink:href="#DejaVuSans-6d"/>
      <use x="477.294922" xlink:href="#DejaVuSans-65"/>
      <use x="538.818359" xlink:href="#DejaVuSans-72"/>
      <use x="579.931641" xlink:href="#DejaVuSans-69"/>
      <use x="607.714844" xlink:href="#DejaVuSans-63"/>
      <use x="662.695312" xlink:href="#DejaVuSans-61"/>
     </g>
    </g>
    <g id="line2d_29">
     <path d="M 1069.154375 64.64875 
L 1085.154375 64.64875 
" style="fill:none;stroke:#d18cad;stroke-linecap:square;stroke-width:2;"/>
    </g>
    <g id="line2d_30"/>
    <g id="text_20">
     <!-- United Kingdom -->
     <g transform="translate(1091.554375 67.44875)scale(0.08 -0.08)">
      <defs>
       <path d="M 556 4666 
L 1191 4666 
L 1191 1831 
Q 1191 1081 1462 751 
Q 1734 422 2344 422 
Q 2950 422 3222 751 
Q 3494 1081 3494 1831 
L 3494 4666 
L 4128 4666 
L 4128 1753 
Q 4128 841 3676 375 
Q 3225 -91 2344 -91 
Q 1459 -91 1007 375 
Q 556 841 556 1753 
L 556 4666 
z
" id="DejaVuSans-55" transform="scale(0.015625)"/>
       <path d="M 628 4666 
L 1259 4666 
L 1259 2694 
L 3353 4666 
L 4166 4666 
L 1850 2491 
L 4331 0 
L 3500 0 
L 1259 2247 
L 1259 0 
L 628 0 
L 628 4666 
z
" id="DejaVuSans-4b" transform="scale(0.015625)"/>
      </defs>
      <use xlink:href="#DejaVuSans-55"/>
      <use x="73.193359" xlink:href="#DejaVuSans-6e"/>
      <use x="136.572266" xlink:href="#DejaVuSans-69"/>
      <use x="164.355469" xlink:href="#DejaVuSans-74"/>
      <use x="203.564453" xlink:href="#DejaVuSans-65"/>
      <use x="265.087891" xlink:href="#DejaVuSans-64"/>
      <use x="328.564453" xlink:href="#DejaVuSans-20"/>
      <use x="360.351562" xlink:href="#DejaVuSans-4b"/>
      <use x="425.927734" xlink:href="#DejaVuSans-69"/>
      <use x="453.710938" xlink:href="#DejaVuSans-6e"/>
      <use x="517.089844" xlink:href="#DejaVuSans-67"/>
      <use x="580.566406" xlink:href="#DejaVuSans-64"/>
      <use x="644.042969" xlink:href="#DejaVuSans-6f"/>
      <use x="705.224609" xlink:href="#DejaVuSans-6d"/>
     </g>
    </g>
    <g id="line2d_31">
     <path d="M 1069.154375 76.39125 
L 1085.154375 76.39125 
" style="fill:none;stroke:#a4a86f;stroke-linecap:square;stroke-width:2;"/>
    </g>
    <g id="line2d_32"/>
    <g id="text_21">
     <!-- Oceania -->
     <g transform="translate(1091.554375 79.19125)scale(0.08 -0.08)">
      <defs>
       <path d="M 2522 4238 
Q 1834 4238 1429 3725 
Q 1025 3213 1025 2328 
Q 1025 1447 1429 934 
Q 1834 422 2522 422 
Q 3209 422 3611 934 
Q 4013 1447 4013 2328 
Q 4013 3213 3611 3725 
Q 3209 4238 2522 4238 
z
M 2522 4750 
Q 3503 4750 4090 4092 
Q 4678 3434 4678 2328 
Q 4678 1225 4090 567 
Q 3503 -91 2522 -91 
Q 1538 -91 948 565 
Q 359 1222 359 2328 
Q 359 3434 948 4092 
Q 1538 4750 2522 4750 
z
" id="DejaVuSans-4f" transform="scale(0.015625)"/>
      </defs>
      <use xlink:href="#DejaVuSans-4f"/>
      <use x="78.710938" xlink:href="#DejaVuSans-63"/>
      <use x="133.691406" xlink:href="#DejaVuSans-65"/>
      <use x="195.214844" xlink:href="#DejaVuSans-61"/>
      <use x="256.494141" xlink:href="#DejaVuSans-6e"/>
      <use x="319.873047" xlink:href="#DejaVuSans-69"/>
      <use x="347.65625" xlink:href="#DejaVuSans-61"/>
     </g>
    </g>
    <g id="line2d_33">
     <path d="M 1069.154375 88.13375 
L 1085.154375 88.13375 
" style="fill:none;stroke:#d3d3d3;stroke-linecap:square;stroke-width:2;"/>
    </g>
    <g id="line2d_34"/>
    <g id="text_22">
     <!-- South America -->
     <g transform="translate(1091.554375 90.93375)scale(0.08 -0.08)">
      <defs>
       <path d="M 3425 4513 
L 3425 3897 
Q 3066 4069 2747 4153 
Q 2428 4238 2131 4238 
Q 1616 4238 1336 4038 
Q 1056 3838 1056 3469 
Q 1056 3159 1242 3001 
Q 1428 2844 1947 2747 
L 2328 2669 
Q 3034 2534 3370 2195 
Q 3706 1856 3706 1288 
Q 3706 609 3251 259 
Q 2797 -91 1919 -91 
Q 1588 -91 1214 -16 
Q 841 59 441 206 
L 441 856 
Q 825 641 1194 531 
Q 1563 422 1919 422 
Q 2459 422 2753 634 
Q 3047 847 3047 1241 
Q 3047 1584 2836 1778 
Q 2625 1972 2144 2069 
L 1759 2144 
Q 1053 2284 737 2584 
Q 422 2884 422 3419 
Q 422 4038 858 4394 
Q 1294 4750 2059 4750 
Q 2388 4750 2728 4690 
Q 3069 4631 3425 4513 
z
" id="DejaVuSans-53" transform="scale(0.015625)"/>
      </defs>
      <use xlink:href="#DejaVuSans-53"/>
      <use x="63.476562" xlink:href="#DejaVuSans-6f"/>
      <use x="124.658203" xlink:href="#DejaVuSans-75"/>
      <use x="188.037109" xlink:href="#DejaVuSans-74"/>
      <use x="227.246094" xlink:href="#DejaVuSans-68"/>
      <use x="290.625" xlink:href="#DejaVuSans-20"/>
      <use x="322.412109" xlink:href="#DejaVuSans-41"/>
      <use x="390.820312" xlink:href="#DejaVuSans-6d"/>
      <use x="488.232422" xlink:href="#DejaVuSans-65"/>
      <use x="549.755859" xlink:href="#DejaVuSans-72"/>
      <use x="590.869141" xlink:href="#DejaVuSans-69"/>
      <use x="618.652344" xlink:href="#DejaVuSans-63"/>
      <use x="673.632812" xlink:href="#DejaVuSans-61"/>
     </g>
    </g>
   </g>
  </g>
 </g>
 <defs>
  <clipPath id="p619b85e7bd">
   <rect height="221.76" width="1116" x="46.965625" y="7.2"/>
  </clipPath>
 </defs>
</svg>
