<?xml version="1.0" encoding="utf-8" standalone="no"?>
<!DOCTYPE svg PUBLIC "-//W3C//DTD SVG 1.1//EN"
  "http://www.w3.org/Graphics/SVG/1.1/DTD/svg11.dtd">
<svg height="298.620937pt" version="1.1" viewBox="0 0 1170.165625 298.620937" width="1170.165625pt" xmlns="http://www.w3.org/2000/svg" xmlns:xlink="http://www.w3.org/1999/xlink">
 <metadata>
  <rdf:RDF xmlns:cc="http://creativecommons.org/ns#" xmlns:dc="http://purl.org/dc/elements/1.1/" xmlns:rdf="http://www.w3.org/1999/02/22-rdf-syntax-ns#">
   <cc:Work>
    <dc:type rdf:resource="http://purl.org/dc/dcmitype/StillImage"/>
    <dc:date>2022-01-02T19:14:48.692854</dc:date>
    <dc:format>image/svg+xml</dc:format>
    <dc:creator>
     <cc:Agent>
      <dc:title>Matplotlib v3.4.2, https://matplotlib.org/</dc:title>
     </cc:Agent>
    </dc:creator>
   </cc:Work>
  </rdf:RDF>
 </metadata>
 <defs>
  <style type="text/css">*{stroke-linecap:butt;stroke-linejoin:round;}</style>
 </defs>
 <g id="figure_1">
  <g id="patch_1">
   <path d="M 0 298.620937 
L 1170.165625 298.620937 
L 1170.165625 0 
L 0 0 
z
" style="fill:#ffffff;"/>
  </g>
  <g id="axes_1">
   <g id="patch_2">
    <path d="M 46.965625 228.96 
L 1162.965625 228.96 
L 1162.965625 7.2 
L 46.965625 7.2 
z
" style="fill:#ffffff;"/>
   </g>
   <g id="matplotlib.axis_1">
    <g id="xtick_1">
     <g id="line2d_1">
      <defs>
       <path d="M 0 0 
L 0 3.5 
" id="md157efcc10" style="stroke:#000000;stroke-width:0.8;"/>
      </defs>
      <g>
       <use style="stroke:#000000;stroke-width:0.8;" x="77.334126" xlink:href="#md157efcc10" y="228.96"/>
      </g>
     </g>
     <g id="text_1">
      <!-- 2021-03 -->
      <g transform="translate(80.093501 277.742812)rotate(-90)scale(0.1 -0.1)">
       <defs>
        <path d="M 1228 531 
L 3431 531 
L 3431 0 
L 469 0 
L 469 531 
Q 828 903 1448 1529 
Q 2069 2156 2228 2338 
Q 2531 2678 2651 2914 
Q 2772 3150 2772 3378 
Q 2772 3750 2511 3984 
Q 2250 4219 1831 4219 
Q 1534 4219 1204 4116 
Q 875 4013 500 3803 
L 500 4441 
Q 881 4594 1212 4672 
Q 1544 4750 1819 4750 
Q 2544 4750 2975 4387 
Q 3406 4025 3406 3419 
Q 3406 3131 3298 2873 
Q 3191 2616 2906 2266 
Q 2828 2175 2409 1742 
Q 1991 1309 1228 531 
z
" id="DejaVuSans-32" transform="scale(0.015625)"/>
        <path d="M 2034 4250 
Q 1547 4250 1301 3770 
Q 1056 3291 1056 2328 
Q 1056 1369 1301 889 
Q 1547 409 2034 409 
Q 2525 409 2770 889 
Q 3016 1369 3016 2328 
Q 3016 3291 2770 3770 
Q 2525 4250 2034 4250 
z
M 2034 4750 
Q 2819 4750 3233 4129 
Q 3647 3509 3647 2328 
Q 3647 1150 3233 529 
Q 2819 -91 2034 -91 
Q 1250 -91 836 529 
Q 422 1150 422 2328 
Q 422 3509 836 4129 
Q 1250 4750 2034 4750 
z
" id="DejaVuSans-30" transform="scale(0.015625)"/>
        <path d="M 794 531 
L 1825 531 
L 1825 4091 
L 703 3866 
L 703 4441 
L 1819 4666 
L 2450 4666 
L 2450 531 
L 3481 531 
L 3481 0 
L 794 0 
L 794 531 
z
" id="DejaVuSans-31" transform="scale(0.015625)"/>
        <path d="M 313 2009 
L 1997 2009 
L 1997 1497 
L 313 1497 
L 313 2009 
z
" id="DejaVuSans-2d" transform="scale(0.015625)"/>
        <path d="M 2597 2516 
Q 3050 2419 3304 2112 
Q 3559 1806 3559 1356 
Q 3559 666 3084 287 
Q 2609 -91 1734 -91 
Q 1441 -91 1130 -33 
Q 819 25 488 141 
L 488 750 
Q 750 597 1062 519 
Q 1375 441 1716 441 
Q 2309 441 2620 675 
Q 2931 909 2931 1356 
Q 2931 1769 2642 2001 
Q 2353 2234 1838 2234 
L 1294 2234 
L 1294 2753 
L 1863 2753 
Q 2328 2753 2575 2939 
Q 2822 3125 2822 3475 
Q 2822 3834 2567 4026 
Q 2313 4219 1838 4219 
Q 1578 4219 1281 4162 
Q 984 4106 628 3988 
L 628 4550 
Q 988 4650 1302 4700 
Q 1616 4750 1894 4750 
Q 2613 4750 3031 4423 
Q 3450 4097 3450 3541 
Q 3450 3153 3228 2886 
Q 3006 2619 2597 2516 
z
" id="DejaVuSans-33" transform="scale(0.015625)"/>
       </defs>
       <use xlink:href="#DejaVuSans-32"/>
       <use x="63.623047" xlink:href="#DejaVuSans-30"/>
       <use x="127.246094" xlink:href="#DejaVuSans-32"/>
       <use x="190.869141" xlink:href="#DejaVuSans-31"/>
       <use x="254.492188" xlink:href="#DejaVuSans-2d"/>
       <use x="290.576172" xlink:href="#DejaVuSans-30"/>
       <use x="354.199219" xlink:href="#DejaVuSans-33"/>
      </g>
     </g>
    </g>
    <g id="xtick_2">
     <g id="line2d_2">
      <g>
       <use style="stroke:#000000;stroke-width:0.8;" x="182.521113" xlink:href="#md157efcc10" y="228.96"/>
      </g>
     </g>
     <g id="text_2">
      <!-- 2021-04 -->
      <g transform="translate(185.280488 277.742812)rotate(-90)scale(0.1 -0.1)">
       <defs>
        <path d="M 2419 4116 
L 825 1625 
L 2419 1625 
L 2419 4116 
z
M 2253 4666 
L 3047 4666 
L 3047 1625 
L 3713 1625 
L 3713 1100 
L 3047 1100 
L 3047 0 
L 2419 0 
L 2419 1100 
L 313 1100 
L 313 1709 
L 2253 4666 
z
" id="DejaVuSans-34" transform="scale(0.015625)"/>
       </defs>
       <use xlink:href="#DejaVuSans-32"/>
       <use x="63.623047" xlink:href="#DejaVuSans-30"/>
       <use x="127.246094" xlink:href="#DejaVuSans-32"/>
       <use x="190.869141" xlink:href="#DejaVuSans-31"/>
       <use x="254.492188" xlink:href="#DejaVuSans-2d"/>
       <use x="290.576172" xlink:href="#DejaVuSans-30"/>
       <use x="354.199219" xlink:href="#DejaVuSans-34"/>
      </g>
     </g>
    </g>
    <g id="xtick_3">
     <g id="line2d_3">
      <g>
       <use style="stroke:#000000;stroke-width:0.8;" x="284.314971" xlink:href="#md157efcc10" y="228.96"/>
      </g>
     </g>
     <g id="text_3">
      <!-- 2021-05 -->
      <g transform="translate(287.074346 277.742812)rotate(-90)scale(0.1 -0.1)">
       <defs>
        <path d="M 691 4666 
L 3169 4666 
L 3169 4134 
L 1269 4134 
L 1269 2991 
Q 1406 3038 1543 3061 
Q 1681 3084 1819 3084 
Q 2600 3084 3056 2656 
Q 3513 2228 3513 1497 
Q 3513 744 3044 326 
Q 2575 -91 1722 -91 
Q 1428 -91 1123 -41 
Q 819 9 494 109 
L 494 744 
Q 775 591 1075 516 
Q 1375 441 1709 441 
Q 2250 441 2565 725 
Q 2881 1009 2881 1497 
Q 2881 1984 2565 2268 
Q 2250 2553 1709 2553 
Q 1456 2553 1204 2497 
Q 953 2441 691 2322 
L 691 4666 
z
" id="DejaVuSans-35" transform="scale(0.015625)"/>
       </defs>
       <use xlink:href="#DejaVuSans-32"/>
       <use x="63.623047" xlink:href="#DejaVuSans-30"/>
       <use x="127.246094" xlink:href="#DejaVuSans-32"/>
       <use x="190.869141" xlink:href="#DejaVuSans-31"/>
       <use x="254.492188" xlink:href="#DejaVuSans-2d"/>
       <use x="290.576172" xlink:href="#DejaVuSans-30"/>
       <use x="354.199219" xlink:href="#DejaVuSans-35"/>
      </g>
     </g>
    </g>
    <g id="xtick_4">
     <g id="line2d_4">
      <g>
       <use style="stroke:#000000;stroke-width:0.8;" x="389.501958" xlink:href="#md157efcc10" y="228.96"/>
      </g>
     </g>
     <g id="text_4">
      <!-- 2021-06 -->
      <g transform="translate(392.261333 277.742812)rotate(-90)scale(0.1 -0.1)">
       <defs>
        <path d="M 2113 2584 
Q 1688 2584 1439 2293 
Q 1191 2003 1191 1497 
Q 1191 994 1439 701 
Q 1688 409 2113 409 
Q 2538 409 2786 701 
Q 3034 994 3034 1497 
Q 3034 2003 2786 2293 
Q 2538 2584 2113 2584 
z
M 3366 4563 
L 3366 3988 
Q 3128 4100 2886 4159 
Q 2644 4219 2406 4219 
Q 1781 4219 1451 3797 
Q 1122 3375 1075 2522 
Q 1259 2794 1537 2939 
Q 1816 3084 2150 3084 
Q 2853 3084 3261 2657 
Q 3669 2231 3669 1497 
Q 3669 778 3244 343 
Q 2819 -91 2113 -91 
Q 1303 -91 875 529 
Q 447 1150 447 2328 
Q 447 3434 972 4092 
Q 1497 4750 2381 4750 
Q 2619 4750 2861 4703 
Q 3103 4656 3366 4563 
z
" id="DejaVuSans-36" transform="scale(0.015625)"/>
       </defs>
       <use xlink:href="#DejaVuSans-32"/>
       <use x="63.623047" xlink:href="#DejaVuSans-30"/>
       <use x="127.246094" xlink:href="#DejaVuSans-32"/>
       <use x="190.869141" xlink:href="#DejaVuSans-31"/>
       <use x="254.492188" xlink:href="#DejaVuSans-2d"/>
       <use x="290.576172" xlink:href="#DejaVuSans-30"/>
       <use x="354.199219" xlink:href="#DejaVuSans-36"/>
      </g>
     </g>
    </g>
    <g id="xtick_5">
     <g id="line2d_5">
      <g>
       <use style="stroke:#000000;stroke-width:0.8;" x="491.295817" xlink:href="#md157efcc10" y="228.96"/>
      </g>
     </g>
     <g id="text_5">
      <!-- 2021-07 -->
      <g transform="translate(494.055192 277.742812)rotate(-90)scale(0.1 -0.1)">
       <defs>
        <path d="M 525 4666 
L 3525 4666 
L 3525 4397 
L 1831 0 
L 1172 0 
L 2766 4134 
L 525 4134 
L 525 4666 
z
" id="DejaVuSans-37" transform="scale(0.015625)"/>
       </defs>
       <use xlink:href="#DejaVuSans-32"/>
       <use x="63.623047" xlink:href="#DejaVuSans-30"/>
       <use x="127.246094" xlink:href="#DejaVuSans-32"/>
       <use x="190.869141" xlink:href="#DejaVuSans-31"/>
       <use x="254.492188" xlink:href="#DejaVuSans-2d"/>
       <use x="290.576172" xlink:href="#DejaVuSans-30"/>
       <use x="354.199219" xlink:href="#DejaVuSans-37"/>
      </g>
     </g>
    </g>
    <g id="xtick_6">
     <g id="line2d_6">
      <g>
       <use style="stroke:#000000;stroke-width:0.8;" x="596.482803" xlink:href="#md157efcc10" y="228.96"/>
      </g>
     </g>
     <g id="text_6">
      <!-- 2021-08 -->
      <g transform="translate(599.242178 277.742812)rotate(-90)scale(0.1 -0.1)">
       <defs>
        <path d="M 2034 2216 
Q 1584 2216 1326 1975 
Q 1069 1734 1069 1313 
Q 1069 891 1326 650 
Q 1584 409 2034 409 
Q 2484 409 2743 651 
Q 3003 894 3003 1313 
Q 3003 1734 2745 1975 
Q 2488 2216 2034 2216 
z
M 1403 2484 
Q 997 2584 770 2862 
Q 544 3141 544 3541 
Q 544 4100 942 4425 
Q 1341 4750 2034 4750 
Q 2731 4750 3128 4425 
Q 3525 4100 3525 3541 
Q 3525 3141 3298 2862 
Q 3072 2584 2669 2484 
Q 3125 2378 3379 2068 
Q 3634 1759 3634 1313 
Q 3634 634 3220 271 
Q 2806 -91 2034 -91 
Q 1263 -91 848 271 
Q 434 634 434 1313 
Q 434 1759 690 2068 
Q 947 2378 1403 2484 
z
M 1172 3481 
Q 1172 3119 1398 2916 
Q 1625 2713 2034 2713 
Q 2441 2713 2670 2916 
Q 2900 3119 2900 3481 
Q 2900 3844 2670 4047 
Q 2441 4250 2034 4250 
Q 1625 4250 1398 4047 
Q 1172 3844 1172 3481 
z
" id="DejaVuSans-38" transform="scale(0.015625)"/>
       </defs>
       <use xlink:href="#DejaVuSans-32"/>
       <use x="63.623047" xlink:href="#DejaVuSans-30"/>
       <use x="127.246094" xlink:href="#DejaVuSans-32"/>
       <use x="190.869141" xlink:href="#DejaVuSans-31"/>
       <use x="254.492188" xlink:href="#DejaVuSans-2d"/>
       <use x="290.576172" xlink:href="#DejaVuSans-30"/>
       <use x="354.199219" xlink:href="#DejaVuSans-38"/>
      </g>
     </g>
    </g>
    <g id="xtick_7">
     <g id="line2d_7">
      <g>
       <use style="stroke:#000000;stroke-width:0.8;" x="701.66979" xlink:href="#md157efcc10" y="228.96"/>
      </g>
     </g>
     <g id="text_7">
      <!-- 2021-09 -->
      <g transform="translate(704.429165 277.742812)rotate(-90)scale(0.1 -0.1)">
       <defs>
        <path d="M 703 97 
L 703 672 
Q 941 559 1184 500 
Q 1428 441 1663 441 
Q 2288 441 2617 861 
Q 2947 1281 2994 2138 
Q 2813 1869 2534 1725 
Q 2256 1581 1919 1581 
Q 1219 1581 811 2004 
Q 403 2428 403 3163 
Q 403 3881 828 4315 
Q 1253 4750 1959 4750 
Q 2769 4750 3195 4129 
Q 3622 3509 3622 2328 
Q 3622 1225 3098 567 
Q 2575 -91 1691 -91 
Q 1453 -91 1209 -44 
Q 966 3 703 97 
z
M 1959 2075 
Q 2384 2075 2632 2365 
Q 2881 2656 2881 3163 
Q 2881 3666 2632 3958 
Q 2384 4250 1959 4250 
Q 1534 4250 1286 3958 
Q 1038 3666 1038 3163 
Q 1038 2656 1286 2365 
Q 1534 2075 1959 2075 
z
" id="DejaVuSans-39" transform="scale(0.015625)"/>
       </defs>
       <use xlink:href="#DejaVuSans-32"/>
       <use x="63.623047" xlink:href="#DejaVuSans-30"/>
       <use x="127.246094" xlink:href="#DejaVuSans-32"/>
       <use x="190.869141" xlink:href="#DejaVuSans-31"/>
       <use x="254.492188" xlink:href="#DejaVuSans-2d"/>
       <use x="290.576172" xlink:href="#DejaVuSans-30"/>
       <use x="354.199219" xlink:href="#DejaVuSans-39"/>
      </g>
     </g>
    </g>
    <g id="xtick_8">
     <g id="line2d_8">
      <g>
       <use style="stroke:#000000;stroke-width:0.8;" x="803.463649" xlink:href="#md157efcc10" y="228.96"/>
      </g>
     </g>
     <g id="text_8">
      <!-- 2021-10 -->
      <g transform="translate(806.223024 277.742812)rotate(-90)scale(0.1 -0.1)">
       <use xlink:href="#DejaVuSans-32"/>
       <use x="63.623047" xlink:href="#DejaVuSans-30"/>
       <use x="127.246094" xlink:href="#DejaVuSans-32"/>
       <use x="190.869141" xlink:href="#DejaVuSans-31"/>
       <use x="254.492188" xlink:href="#DejaVuSans-2d"/>
       <use x="290.576172" xlink:href="#DejaVuSans-31"/>
       <use x="354.199219" xlink:href="#DejaVuSans-30"/>
      </g>
     </g>
    </g>
    <g id="xtick_9">
     <g id="line2d_9">
      <g>
       <use style="stroke:#000000;stroke-width:0.8;" x="908.650636" xlink:href="#md157efcc10" y="228.96"/>
      </g>
     </g>
     <g id="text_9">
      <!-- 2021-11 -->
      <g transform="translate(911.410011 277.742812)rotate(-90)scale(0.1 -0.1)">
       <use xlink:href="#DejaVuSans-32"/>
       <use x="63.623047" xlink:href="#DejaVuSans-30"/>
       <use x="127.246094" xlink:href="#DejaVuSans-32"/>
       <use x="190.869141" xlink:href="#DejaVuSans-31"/>
       <use x="254.492188" xlink:href="#DejaVuSans-2d"/>
       <use x="290.576172" xlink:href="#DejaVuSans-31"/>
       <use x="354.199219" xlink:href="#DejaVuSans-31"/>
      </g>
     </g>
    </g>
    <g id="xtick_10">
     <g id="line2d_10">
      <g>
       <use style="stroke:#000000;stroke-width:0.8;" x="1010.444494" xlink:href="#md157efcc10" y="228.96"/>
      </g>
     </g>
     <g id="text_10">
      <!-- 2021-12 -->
      <g transform="translate(1013.203869 277.742812)rotate(-90)scale(0.1 -0.1)">
       <use xlink:href="#DejaVuSans-32"/>
       <use x="63.623047" xlink:href="#DejaVuSans-30"/>
       <use x="127.246094" xlink:href="#DejaVuSans-32"/>
       <use x="190.869141" xlink:href="#DejaVuSans-31"/>
       <use x="254.492188" xlink:href="#DejaVuSans-2d"/>
       <use x="290.576172" xlink:href="#DejaVuSans-31"/>
       <use x="354.199219" xlink:href="#DejaVuSans-32"/>
      </g>
     </g>
    </g>
    <g id="xtick_11">
     <g id="line2d_11">
      <g>
       <use style="stroke:#000000;stroke-width:0.8;" x="1115.631481" xlink:href="#md157efcc10" y="228.96"/>
      </g>
     </g>
     <g id="text_11">
      <!-- 2022-01 -->
      <g transform="translate(1118.390856 277.742812)rotate(-90)scale(0.1 -0.1)">
       <use xlink:href="#DejaVuSans-32"/>
       <use x="63.623047" xlink:href="#DejaVuSans-30"/>
       <use x="127.246094" xlink:href="#DejaVuSans-32"/>
       <use x="190.869141" xlink:href="#DejaVuSans-32"/>
       <use x="254.492188" xlink:href="#DejaVuSans-2d"/>
       <use x="290.576172" xlink:href="#DejaVuSans-30"/>
       <use x="354.199219" xlink:href="#DejaVuSans-31"/>
      </g>
     </g>
    </g>
    <g id="text_12">
     <!-- Date -->
     <g transform="translate(593.014844 289.34125)scale(0.1 -0.1)">
      <defs>
       <path d="M 1259 4147 
L 1259 519 
L 2022 519 
Q 2988 519 3436 956 
Q 3884 1394 3884 2338 
Q 3884 3275 3436 3711 
Q 2988 4147 2022 4147 
L 1259 4147 
z
M 628 4666 
L 1925 4666 
Q 3281 4666 3915 4102 
Q 4550 3538 4550 2338 
Q 4550 1131 3912 565 
Q 3275 0 1925 0 
L 628 0 
L 628 4666 
z
" id="DejaVuSans-44" transform="scale(0.015625)"/>
       <path d="M 2194 1759 
Q 1497 1759 1228 1600 
Q 959 1441 959 1056 
Q 959 750 1161 570 
Q 1363 391 1709 391 
Q 2188 391 2477 730 
Q 2766 1069 2766 1631 
L 2766 1759 
L 2194 1759 
z
M 3341 1997 
L 3341 0 
L 2766 0 
L 2766 531 
Q 2569 213 2275 61 
Q 1981 -91 1556 -91 
Q 1019 -91 701 211 
Q 384 513 384 1019 
Q 384 1609 779 1909 
Q 1175 2209 1959 2209 
L 2766 2209 
L 2766 2266 
Q 2766 2663 2505 2880 
Q 2244 3097 1772 3097 
Q 1472 3097 1187 3025 
Q 903 2953 641 2809 
L 641 3341 
Q 956 3463 1253 3523 
Q 1550 3584 1831 3584 
Q 2591 3584 2966 3190 
Q 3341 2797 3341 1997 
z
" id="DejaVuSans-61" transform="scale(0.015625)"/>
       <path d="M 1172 4494 
L 1172 3500 
L 2356 3500 
L 2356 3053 
L 1172 3053 
L 1172 1153 
Q 1172 725 1289 603 
Q 1406 481 1766 481 
L 2356 481 
L 2356 0 
L 1766 0 
Q 1100 0 847 248 
Q 594 497 594 1153 
L 594 3053 
L 172 3053 
L 172 3500 
L 594 3500 
L 594 4494 
L 1172 4494 
z
" id="DejaVuSans-74" transform="scale(0.015625)"/>
       <path d="M 3597 1894 
L 3597 1613 
L 953 1613 
Q 991 1019 1311 708 
Q 1631 397 2203 397 
Q 2534 397 2845 478 
Q 3156 559 3463 722 
L 3463 178 
Q 3153 47 2828 -22 
Q 2503 -91 2169 -91 
Q 1331 -91 842 396 
Q 353 884 353 1716 
Q 353 2575 817 3079 
Q 1281 3584 2069 3584 
Q 2775 3584 3186 3129 
Q 3597 2675 3597 1894 
z
M 3022 2063 
Q 3016 2534 2758 2815 
Q 2500 3097 2075 3097 
Q 1594 3097 1305 2825 
Q 1016 2553 972 2059 
L 3022 2063 
z
" id="DejaVuSans-65" transform="scale(0.015625)"/>
      </defs>
      <use xlink:href="#DejaVuSans-44"/>
      <use x="77.001953" xlink:href="#DejaVuSans-61"/>
      <use x="138.28125" xlink:href="#DejaVuSans-74"/>
      <use x="177.490234" xlink:href="#DejaVuSans-65"/>
     </g>
    </g>
   </g>
   <g id="matplotlib.axis_2">
    <g id="ytick_1">
     <g id="line2d_12">
      <defs>
       <path d="M 0 0 
L -3.5 0 
" id="m92b2116792" style="stroke:#000000;stroke-width:0.8;"/>
      </defs>
      <g>
       <use style="stroke:#000000;stroke-width:0.8;" x="46.965625" xlink:href="#m92b2116792" y="228.96"/>
      </g>
     </g>
     <g id="text_13">
      <!-- 1 -->
      <g transform="translate(33.603125 232.759219)scale(0.1 -0.1)">
       <use xlink:href="#DejaVuSans-31"/>
      </g>
     </g>
    </g>
    <g id="ytick_2">
     <g id="line2d_13">
      <g>
       <use style="stroke:#000000;stroke-width:0.8;" x="46.965625" xlink:href="#m92b2116792" y="190.892163"/>
      </g>
     </g>
     <g id="text_14">
      <!-- 3 -->
      <g transform="translate(33.603125 194.691382)scale(0.1 -0.1)">
       <use xlink:href="#DejaVuSans-33"/>
      </g>
     </g>
    </g>
    <g id="ytick_3">
     <g id="line2d_14">
      <g>
       <use style="stroke:#000000;stroke-width:0.8;" x="46.965625" xlink:href="#m92b2116792" y="152.824326"/>
      </g>
     </g>
     <g id="text_15">
      <!-- 10 -->
      <g transform="translate(27.240625 156.623545)scale(0.1 -0.1)">
       <use xlink:href="#DejaVuSans-31"/>
       <use x="63.623047" xlink:href="#DejaVuSans-30"/>
      </g>
     </g>
    </g>
    <g id="ytick_4">
     <g id="line2d_15">
      <g>
       <use style="stroke:#000000;stroke-width:0.8;" x="46.965625" xlink:href="#m92b2116792" y="114.75649"/>
      </g>
     </g>
     <g id="text_16">
      <!-- 31 -->
      <g transform="translate(27.240625 118.555708)scale(0.1 -0.1)">
       <use xlink:href="#DejaVuSans-33"/>
       <use x="63.623047" xlink:href="#DejaVuSans-31"/>
      </g>
     </g>
    </g>
    <g id="ytick_5">
     <g id="line2d_16">
      <g>
       <use style="stroke:#000000;stroke-width:0.8;" x="46.965625" xlink:href="#m92b2116792" y="76.688653"/>
      </g>
     </g>
     <g id="text_17">
      <!-- 100 -->
      <g transform="translate(20.878125 80.487872)scale(0.1 -0.1)">
       <use xlink:href="#DejaVuSans-31"/>
       <use x="63.623047" xlink:href="#DejaVuSans-30"/>
       <use x="127.246094" xlink:href="#DejaVuSans-30"/>
      </g>
     </g>
    </g>
    <g id="ytick_6">
     <g id="line2d_17">
      <g>
       <use style="stroke:#000000;stroke-width:0.8;" x="46.965625" xlink:href="#m92b2116792" y="38.620816"/>
      </g>
     </g>
     <g id="text_18">
      <!-- 316 -->
      <g transform="translate(20.878125 42.420035)scale(0.1 -0.1)">
       <use xlink:href="#DejaVuSans-33"/>
       <use x="63.623047" xlink:href="#DejaVuSans-31"/>
       <use x="127.246094" xlink:href="#DejaVuSans-36"/>
      </g>
     </g>
    </g>
    <g id="text_19">
     <!-- Count (7 day rolling average) -->
     <g transform="translate(14.798438 191.547969)rotate(-90)scale(0.1 -0.1)">
      <defs>
       <path d="M 4122 4306 
L 4122 3641 
Q 3803 3938 3442 4084 
Q 3081 4231 2675 4231 
Q 1875 4231 1450 3742 
Q 1025 3253 1025 2328 
Q 1025 1406 1450 917 
Q 1875 428 2675 428 
Q 3081 428 3442 575 
Q 3803 722 4122 1019 
L 4122 359 
Q 3791 134 3420 21 
Q 3050 -91 2638 -91 
Q 1578 -91 968 557 
Q 359 1206 359 2328 
Q 359 3453 968 4101 
Q 1578 4750 2638 4750 
Q 3056 4750 3426 4639 
Q 3797 4528 4122 4306 
z
" id="DejaVuSans-43" transform="scale(0.015625)"/>
       <path d="M 1959 3097 
Q 1497 3097 1228 2736 
Q 959 2375 959 1747 
Q 959 1119 1226 758 
Q 1494 397 1959 397 
Q 2419 397 2687 759 
Q 2956 1122 2956 1747 
Q 2956 2369 2687 2733 
Q 2419 3097 1959 3097 
z
M 1959 3584 
Q 2709 3584 3137 3096 
Q 3566 2609 3566 1747 
Q 3566 888 3137 398 
Q 2709 -91 1959 -91 
Q 1206 -91 779 398 
Q 353 888 353 1747 
Q 353 2609 779 3096 
Q 1206 3584 1959 3584 
z
" id="DejaVuSans-6f" transform="scale(0.015625)"/>
       <path d="M 544 1381 
L 544 3500 
L 1119 3500 
L 1119 1403 
Q 1119 906 1312 657 
Q 1506 409 1894 409 
Q 2359 409 2629 706 
Q 2900 1003 2900 1516 
L 2900 3500 
L 3475 3500 
L 3475 0 
L 2900 0 
L 2900 538 
Q 2691 219 2414 64 
Q 2138 -91 1772 -91 
Q 1169 -91 856 284 
Q 544 659 544 1381 
z
M 1991 3584 
L 1991 3584 
z
" id="DejaVuSans-75" transform="scale(0.015625)"/>
       <path d="M 3513 2113 
L 3513 0 
L 2938 0 
L 2938 2094 
Q 2938 2591 2744 2837 
Q 2550 3084 2163 3084 
Q 1697 3084 1428 2787 
Q 1159 2491 1159 1978 
L 1159 0 
L 581 0 
L 581 3500 
L 1159 3500 
L 1159 2956 
Q 1366 3272 1645 3428 
Q 1925 3584 2291 3584 
Q 2894 3584 3203 3211 
Q 3513 2838 3513 2113 
z
" id="DejaVuSans-6e" transform="scale(0.015625)"/>
       <path id="DejaVuSans-20" transform="scale(0.015625)"/>
       <path d="M 1984 4856 
Q 1566 4138 1362 3434 
Q 1159 2731 1159 2009 
Q 1159 1288 1364 580 
Q 1569 -128 1984 -844 
L 1484 -844 
Q 1016 -109 783 600 
Q 550 1309 550 2009 
Q 550 2706 781 3412 
Q 1013 4119 1484 4856 
L 1984 4856 
z
" id="DejaVuSans-28" transform="scale(0.015625)"/>
       <path d="M 2906 2969 
L 2906 4863 
L 3481 4863 
L 3481 0 
L 2906 0 
L 2906 525 
Q 2725 213 2448 61 
Q 2172 -91 1784 -91 
Q 1150 -91 751 415 
Q 353 922 353 1747 
Q 353 2572 751 3078 
Q 1150 3584 1784 3584 
Q 2172 3584 2448 3432 
Q 2725 3281 2906 2969 
z
M 947 1747 
Q 947 1113 1208 752 
Q 1469 391 1925 391 
Q 2381 391 2643 752 
Q 2906 1113 2906 1747 
Q 2906 2381 2643 2742 
Q 2381 3103 1925 3103 
Q 1469 3103 1208 2742 
Q 947 2381 947 1747 
z
" id="DejaVuSans-64" transform="scale(0.015625)"/>
       <path d="M 2059 -325 
Q 1816 -950 1584 -1140 
Q 1353 -1331 966 -1331 
L 506 -1331 
L 506 -850 
L 844 -850 
Q 1081 -850 1212 -737 
Q 1344 -625 1503 -206 
L 1606 56 
L 191 3500 
L 800 3500 
L 1894 763 
L 2988 3500 
L 3597 3500 
L 2059 -325 
z
" id="DejaVuSans-79" transform="scale(0.015625)"/>
       <path d="M 2631 2963 
Q 2534 3019 2420 3045 
Q 2306 3072 2169 3072 
Q 1681 3072 1420 2755 
Q 1159 2438 1159 1844 
L 1159 0 
L 581 0 
L 581 3500 
L 1159 3500 
L 1159 2956 
Q 1341 3275 1631 3429 
Q 1922 3584 2338 3584 
Q 2397 3584 2469 3576 
Q 2541 3569 2628 3553 
L 2631 2963 
z
" id="DejaVuSans-72" transform="scale(0.015625)"/>
       <path d="M 603 4863 
L 1178 4863 
L 1178 0 
L 603 0 
L 603 4863 
z
" id="DejaVuSans-6c" transform="scale(0.015625)"/>
       <path d="M 603 3500 
L 1178 3500 
L 1178 0 
L 603 0 
L 603 3500 
z
M 603 4863 
L 1178 4863 
L 1178 4134 
L 603 4134 
L 603 4863 
z
" id="DejaVuSans-69" transform="scale(0.015625)"/>
       <path d="M 2906 1791 
Q 2906 2416 2648 2759 
Q 2391 3103 1925 3103 
Q 1463 3103 1205 2759 
Q 947 2416 947 1791 
Q 947 1169 1205 825 
Q 1463 481 1925 481 
Q 2391 481 2648 825 
Q 2906 1169 2906 1791 
z
M 3481 434 
Q 3481 -459 3084 -895 
Q 2688 -1331 1869 -1331 
Q 1566 -1331 1297 -1286 
Q 1028 -1241 775 -1147 
L 775 -588 
Q 1028 -725 1275 -790 
Q 1522 -856 1778 -856 
Q 2344 -856 2625 -561 
Q 2906 -266 2906 331 
L 2906 616 
Q 2728 306 2450 153 
Q 2172 0 1784 0 
Q 1141 0 747 490 
Q 353 981 353 1791 
Q 353 2603 747 3093 
Q 1141 3584 1784 3584 
Q 2172 3584 2450 3431 
Q 2728 3278 2906 2969 
L 2906 3500 
L 3481 3500 
L 3481 434 
z
" id="DejaVuSans-67" transform="scale(0.015625)"/>
       <path d="M 191 3500 
L 800 3500 
L 1894 563 
L 2988 3500 
L 3597 3500 
L 2284 0 
L 1503 0 
L 191 3500 
z
" id="DejaVuSans-76" transform="scale(0.015625)"/>
       <path d="M 513 4856 
L 1013 4856 
Q 1481 4119 1714 3412 
Q 1947 2706 1947 2009 
Q 1947 1309 1714 600 
Q 1481 -109 1013 -844 
L 513 -844 
Q 928 -128 1133 580 
Q 1338 1288 1338 2009 
Q 1338 2731 1133 3434 
Q 928 4138 513 4856 
z
" id="DejaVuSans-29" transform="scale(0.015625)"/>
      </defs>
      <use xlink:href="#DejaVuSans-43"/>
      <use x="69.824219" xlink:href="#DejaVuSans-6f"/>
      <use x="131.005859" xlink:href="#DejaVuSans-75"/>
      <use x="194.384766" xlink:href="#DejaVuSans-6e"/>
      <use x="257.763672" xlink:href="#DejaVuSans-74"/>
      <use x="296.972656" xlink:href="#DejaVuSans-20"/>
      <use x="328.759766" xlink:href="#DejaVuSans-28"/>
      <use x="367.773438" xlink:href="#DejaVuSans-37"/>
      <use x="431.396484" xlink:href="#DejaVuSans-20"/>
      <use x="463.183594" xlink:href="#DejaVuSans-64"/>
      <use x="526.660156" xlink:href="#DejaVuSans-61"/>
      <use x="587.939453" xlink:href="#DejaVuSans-79"/>
      <use x="647.119141" xlink:href="#DejaVuSans-20"/>
      <use x="678.90625" xlink:href="#DejaVuSans-72"/>
      <use x="717.769531" xlink:href="#DejaVuSans-6f"/>
      <use x="778.951172" xlink:href="#DejaVuSans-6c"/>
      <use x="806.734375" xlink:href="#DejaVuSans-6c"/>
      <use x="834.517578" xlink:href="#DejaVuSans-69"/>
      <use x="862.300781" xlink:href="#DejaVuSans-6e"/>
      <use x="925.679688" xlink:href="#DejaVuSans-67"/>
      <use x="989.15625" xlink:href="#DejaVuSans-20"/>
      <use x="1020.943359" xlink:href="#DejaVuSans-61"/>
      <use x="1082.222656" xlink:href="#DejaVuSans-76"/>
      <use x="1141.402344" xlink:href="#DejaVuSans-65"/>
      <use x="1202.925781" xlink:href="#DejaVuSans-72"/>
      <use x="1244.039062" xlink:href="#DejaVuSans-61"/>
      <use x="1305.318359" xlink:href="#DejaVuSans-67"/>
      <use x="1368.794922" xlink:href="#DejaVuSans-65"/>
      <use x="1430.318359" xlink:href="#DejaVuSans-29"/>
     </g>
    </g>
   </g>
   <g id="line2d_18">
    <path clip-path="url(#pb02c72b866)" d="M 148.589827 211.137917 
L 151.982955 220.650212 
L 155.376084 217.166435 
L 158.769213 211.137917 
L 162.162341 214.014975 
L 165.55547 214.014975 
L 168.948599 211.137917 
L 172.341727 206.040879 
L 175.734856 203.759608 
L 179.127984 199.621051 
L 182.521113 191.095853 
L 185.914242 191.095853 
L 189.30737 189.626042 
L 192.700499 192.634052 
L 196.093627 186.869004 
L 199.486756 183.121757 
L 202.879885 179.756281 
L 206.273013 181.961452 
L 209.666142 173.906014 
L 213.05927 166.706921 
L 216.452399 158.477098 
L 219.845528 153.300094 
L 223.238656 147.592602 
L 226.631785 144.149173 
L 230.024914 137.580066 
L 233.418042 133.652452 
L 236.811171 130.142233 
L 240.204299 128.973726 
L 243.597428 126.539729 
L 246.990557 122.906961 
L 250.383685 119.634097 
L 253.776814 118.611377 
L 257.169942 115.720335 
L 260.563071 116.184961 
L 263.9562 113.204087 
L 267.349328 111.80872 
L 270.742457 110.998917 
L 274.135585 108.558039 
L 277.528714 106.633697 
L 280.921843 106.633697 
L 284.314971 104.704813 
L 287.7081 104.925987 
L 291.101229 102.364812 
L 294.494357 99.987839 
L 297.887486 98.401893 
L 301.280614 97.59209 
L 304.673743 97.063034 
L 308.066872 97.681095 
L 311.46 98.493108 
L 318.246257 98.768272 
L 321.639386 97.77034 
L 325.032515 98.676296 
L 328.425643 99.045744 
L 331.818772 98.676296 
L 335.2119 97.681095 
L 338.605029 97.77034 
L 341.998158 98.860504 
L 345.391286 101.254118 
L 348.784415 100.469148 
L 352.177544 100.179523 
L 355.570672 100.66365 
L 358.963801 100.469148 
L 362.356929 100.859303 
L 369.143187 100.761332 
L 372.536315 101.855322 
L 375.929444 103.942153 
L 379.322572 105.372822 
L 382.715701 106.285026 
L 386.10883 110.078551 
L 389.501958 110.208474 
L 392.895087 110.998917 
L 396.288215 110.469861 
L 399.681344 107.581871 
L 403.074473 105.372822 
L 406.467601 107.223112 
L 409.86073 105.485481 
L 413.253859 105.825778 
L 416.646987 106.285026 
L 420.040116 105.372822 
L 423.433244 105.711956 
L 426.826373 105.037131 
L 430.219502 102.882277 
L 433.61263 99.702382 
L 437.005759 96.801647 
L 440.398887 94.61888 
L 443.792016 93.816285 
L 447.185145 93.422177 
L 453.971402 93.658078 
L 457.36453 91.741823 
L 460.757659 91.151355 
L 464.150788 90.356304 
L 467.543916 89.164001 
L 470.937045 87.682212 
L 474.330173 87.485199 
L 477.723302 85.88753 
L 481.116431 84.662749 
L 484.509559 82.118009 
L 487.902688 81.347734 
L 491.295817 80.17243 
L 498.082074 75.895234 
L 501.475202 77.501579 
L 504.868331 77.695796 
L 508.26146 75.941383 
L 511.654588 72.397625 
L 515.047717 69.49983 
L 518.440845 66.976211 
L 521.833974 64.961285 
L 525.227103 62.657934 
L 528.620231 58.756536 
L 532.01336 58.374274 
L 535.406488 57.809041 
L 538.799617 56.810172 
L 542.192746 56.194509 
L 545.585874 55.070155 
L 548.979003 54.078001 
L 552.372132 51.79832 
L 555.76526 48.417057 
L 559.158389 45.551719 
L 562.551517 42.391887 
L 565.944646 40.018108 
L 569.337775 38.80948 
L 572.730903 37.455482 
L 576.124032 34.177107 
L 579.51716 33.123246 
L 586.303418 30.137793 
L 589.696546 28.065986 
L 593.089675 27.177051 
L 596.482803 25.963224 
L 599.875932 25.058921 
L 603.269061 22.817321 
L 606.662189 21.715194 
L 610.055318 20.260577 
L 613.448447 18.974285 
L 616.841575 18.41017 
L 620.234704 18.99078 
L 623.627832 17.919351 
L 627.020961 18.079474 
L 630.41409 17.76 
L 633.807218 18.151783 
L 637.200347 19.123042 
L 640.593475 19.590168 
L 643.986604 19.372467 
L 647.379733 19.305769 
L 650.772861 19.032055 
L 654.16599 18.41017 
L 657.559118 18.499459 
L 660.952247 18.41017 
L 664.345376 17.975306 
L 667.738504 18.499459 
L 671.131633 19.944895 
L 674.524762 19.995882 
L 677.91789 20.605279 
L 681.311019 20.355012 
L 688.097276 22.129868 
L 691.490405 22.430588 
L 694.883533 21.697282 
L 698.276662 20.579302 
L 701.66979 20.553344 
L 705.062919 21.545422 
L 708.456048 21.270283 
L 715.242305 20.072511 
L 718.635433 24.120835 
L 722.028562 24.488984 
L 725.421691 24.265668 
L 728.814819 23.737687 
L 732.207948 23.909554 
L 735.601077 24.910579 
L 738.994205 25.287678 
L 742.387334 22.467225 
L 745.780462 25.029199 
L 749.173591 26.393848 
L 752.56672 27.113708 
L 759.352977 27.008404 
L 766.139234 27.602471 
L 769.532363 27.410355 
L 772.925491 28.834726 
L 776.31862 30.626796 
L 779.711748 31.639139 
L 783.104877 32.434752 
L 786.498006 32.596198 
L 789.891134 33.800549 
L 793.284263 34.492017 
L 796.677391 33.904 
L 800.07052 33.620286 
L 803.463649 33.199229 
L 806.856777 32.946628 
L 810.249906 32.908904 
L 813.643035 32.311097 
L 817.036163 30.662003 
L 823.82242 30.010907 
L 827.215549 30.803207 
L 834.001806 29.610388 
L 837.394935 30.73253 
L 840.788063 32.546438 
L 844.181192 33.402709 
L 847.574321 33.479337 
L 850.967449 33.377205 
L 857.753706 35.455152 
L 861.146835 35.144424 
L 864.539964 36.099346 
L 867.933092 36.251945 
L 871.326221 36.016407 
L 874.71935 35.090681 
L 878.112478 34.294847 
L 881.505607 33.981801 
L 888.291864 32.871223 
L 891.684993 31.991742 
L 895.078121 31.434176 
L 898.47125 32.670978 
L 901.864378 32.821048 
L 905.257507 32.858672 
L 908.650636 33.047437 
L 912.043764 31.845381 
L 915.436893 30.28838 
L 918.830021 30.068522 
L 922.22315 28.229218 
L 925.616279 26.924402 
L 929.009407 25.158186 
L 932.402536 23.680596 
L 935.795665 23.14309 
L 939.188793 21.948935 
L 942.581922 22.030232 
L 945.97505 21.706237 
L 949.368179 21.20847 
L 952.761308 21.456417 
L 956.154436 21.412004 
L 959.547565 20.372211 
L 962.940693 20.778988 
L 966.333822 19.657442 
L 969.726951 20.17496 
L 973.120079 20.971127 
L 979.906336 20.466967 
L 986.692594 21.976012 
L 990.085722 27.208769 
L 993.478851 27.357187 
L 996.87198 26.642461 
L 1000.265108 26.455826 
L 1003.658237 24.821892 
L 1007.051365 23.919129 
L 1010.444494 23.321289 
L 1013.837623 19.222586 
L 1017.230751 19.181073 
L 1020.62388 19.590168 
L 1024.017008 20.726779 
L 1027.410137 22.900784 
L 1037.589523 26.840613 
L 1040.982651 28.349436 
L 1044.37578 30.080057 
L 1047.768909 31.350147 
L 1054.555166 37.225562 
L 1061.341423 44.841002 
L 1064.734552 47.097813 
L 1071.520809 52.201287 
L 1074.913938 59.087744 
L 1078.307066 69.614046 
L 1081.700195 81.184984 
L 1085.093323 93.816285 
L 1088.486452 119.807668 
L 1091.879581 139.104082 
L 1091.879581 139.104082 
" style="fill:none;stroke:#947383;stroke-linecap:square;stroke-width:2;"/>
   </g>
   <g id="line2d_19">
    <path clip-path="url(#pb02c72b866)" d="M 131.624184 199.621051 
L 148.589827 199.621051 
L 151.982955 224.544744 
L 155.376084 220.650212 
L 158.769213 224.544744 
L 168.948599 224.544744 
L 172.341727 201.625623 
L 175.734856 201.625623 
L 179.127984 203.759608 
L 182.521113 199.621051 
L 185.914242 195.943342 
L 189.30737 194.247313 
L 192.700499 194.247313 
L 196.093627 199.621051 
L 199.486756 195.943342 
L 202.879885 188.218796 
L 206.273013 186.869004 
L 209.666142 186.869004 
L 213.05927 188.218796 
L 216.452399 184.324264 
L 219.845528 178.706501 
L 223.238656 175.743448 
L 226.631785 173.906014 
L 230.024914 174.811969 
L 233.418042 173.02422 
L 236.811171 167.43366 
L 240.204299 165.995812 
L 243.597428 155.78738 
L 250.383685 143.430333 
L 253.776814 136.698272 
L 257.169942 130.863687 
L 260.563071 127.185977 
L 263.9562 124.272684 
L 267.349328 121.048871 
L 270.742457 119.634097 
L 274.135585 115.414173 
L 277.528714 114.364393 
L 280.921843 114.512336 
L 284.314971 114.96018 
L 287.7081 115.110819 
L 291.101229 113.204087 
L 294.494357 108.682112 
L 297.887486 107.823224 
L 301.280614 107.223112 
L 304.673743 105.148649 
L 308.066872 105.037131 
L 311.46 105.598524 
L 314.853129 104.485109 
L 321.639386 112.77926 
L 325.032515 114.070477 
L 328.425643 116.029359 
L 331.818772 116.184961 
L 335.2119 112.359821 
L 338.605029 115.5669 
L 341.998158 111.401339 
L 345.391286 109.691818 
L 348.784415 107.223112 
L 352.177544 105.037131 
L 355.570672 104.815215 
L 358.963801 107.944565 
L 362.356929 106.750742 
L 365.750058 107.944565 
L 369.143187 105.711956 
L 372.536315 104.925987 
L 379.322572 106.633697 
L 382.715701 105.148649 
L 386.10883 103.091552 
L 389.501958 101.754359 
L 396.288215 100.66365 
L 399.681344 97.150624 
L 403.074473 94.134989 
L 406.467601 93.265839 
L 409.86073 90.284966 
L 413.253859 87.485199 
L 416.646987 86.901105 
L 420.040116 84.602685 
L 423.433244 83.831621 
L 426.826373 82.792835 
L 430.219502 81.184984 
L 433.61263 80.4359 
L 437.005759 79.088225 
L 440.398887 77.404897 
L 443.792016 77.212376 
L 447.185145 78.484275 
L 450.578273 78.186388 
L 453.971402 79.088225 
L 457.36453 77.744529 
L 460.757659 77.308496 
L 464.150788 76.406444 
L 467.543916 76.219634 
L 470.937045 74.672969 
L 474.330173 75.619688 
L 477.723302 75.941383 
L 481.116431 74.717441 
L 484.509559 73.110538 
L 487.902688 73.237957 
L 498.082074 71.659163 
L 501.475202 71.336178 
L 504.868331 71.985334 
L 508.26146 70.581502 
L 511.654588 67.616205 
L 515.047717 65.698333 
L 518.440845 64.337702 
L 521.833974 62.503783 
L 525.227103 60.533607 
L 528.620231 57.622757 
L 532.01336 55.615064 
L 535.406488 56.067676 
L 538.799617 56.32183 
L 542.192746 55.615064 
L 545.585874 56.042368 
L 548.979003 57.122357 
L 552.372132 56.836075 
L 555.76526 54.874212 
L 559.158389 55.045599 
L 562.551517 55.341487 
L 565.944646 55.515319 
L 569.337775 55.366264 
L 572.730903 54.825407 
L 576.124032 55.515319 
L 579.51716 57.75571 
L 582.910289 57.649305 
L 586.303418 56.655178 
L 589.696546 56.655178 
L 593.089675 56.372896 
L 596.482803 55.765247 
L 599.875932 56.913907 
L 603.269061 57.942747 
L 606.662189 57.096229 
L 610.055318 57.148506 
L 613.448447 56.732584 
L 616.841575 55.765247 
L 620.234704 55.341487 
L 623.627832 52.999179 
L 630.41409 50.022284 
L 633.807218 48.196821 
L 637.200347 47.175114 
L 640.593475 46.905349 
L 643.986604 46.905349 
L 647.379733 45.717924 
L 650.772861 44.75098 
L 654.16599 44.733004 
L 657.559118 45.185341 
L 660.952247 45.404681 
L 667.738504 45.570145 
L 671.131633 45.829192 
L 674.524762 44.375538 
L 677.91789 43.811511 
L 681.311019 43.360219 
L 684.704147 43.360219 
L 688.097276 43.969173 
L 691.490405 44.233627 
L 698.276662 45.386347 
L 701.66979 46.656808 
L 705.062919 46.447954 
L 708.456048 47.078517 
L 711.849176 46.828676 
L 715.242305 46.790406 
L 718.635433 46.943752 
L 722.028562 48.437151 
L 725.421691 47.623134 
L 728.814819 48.984368 
L 732.207948 48.679241 
L 738.994205 50.022284 
L 742.387334 50.361418 
L 745.780462 51.97681 
L 749.173591 53.935273 
L 752.56672 54.245299 
L 755.959848 55.341487 
L 759.352977 55.81546 
L 762.746105 55.81546 
L 766.139234 56.758427 
L 769.532363 55.86575 
L 772.925491 56.194509 
L 776.31862 56.706762 
L 779.711748 56.939891 
L 783.104877 56.758427 
L 789.891134 57.358445 
L 793.284263 58.78401 
L 796.677391 59.394293 
L 810.249906 59.59086 
L 813.643035 59.987535 
L 817.036163 57.915962 
L 820.429292 56.913907 
L 823.82242 56.500908 
L 827.215549 55.840595 
L 830.608678 55.765247 
L 834.001806 55.916116 
L 837.394935 54.125714 
L 840.788063 54.972038 
L 844.181192 55.217878 
L 847.574321 54.606672 
L 850.967449 54.43754 
L 854.360578 54.485775 
L 857.753706 53.53419 
L 861.146835 53.230729 
L 867.933092 50.276308 
L 871.326221 49.540793 
L 874.71935 48.336801 
L 878.112478 46.790406 
L 881.505607 46.410122 
L 884.898735 44.768965 
L 888.291864 42.779211 
L 891.684993 42.291588 
L 895.078121 41.014651 
L 898.47125 41.111145 
L 901.864378 41.67971 
L 905.257507 41.434841 
L 908.650636 44.697083 
L 912.043764 46.240411 
L 915.436893 44.269048 
L 918.830021 44.32225 
L 922.22315 43.239762 
L 929.009407 41.827506 
L 932.402536 38.302608 
L 935.795665 38.052056 
L 939.188793 38.794461 
L 942.581922 40.033694 
L 945.97505 40.950477 
L 949.368179 41.046784 
L 952.761308 41.663329 
L 956.154436 41.827506 
L 959.547565 42.677732 
L 962.940693 43.899008 
L 966.333822 42.208237 
L 973.120079 42.37515 
L 976.513208 42.141707 
L 979.906336 42.191592 
L 983.299465 42.779211 
L 986.692594 43.239762 
L 990.085722 45.349709 
L 993.478851 46.447954 
L 1000.265108 47.330259 
L 1003.658237 46.015476 
L 1007.051365 45.386347 
L 1010.444494 45.221797 
L 1013.837623 45.203564 
L 1017.230751 43.916536 
L 1020.62388 42.779211 
L 1024.017008 41.030713 
L 1027.410137 39.538556 
L 1030.803266 41.418581 
L 1034.196394 41.975966 
L 1037.589523 43.291333 
L 1040.982651 44.822978 
L 1044.37578 47.020693 
L 1047.768909 50.747149 
L 1051.162037 60.360187 
L 1054.555166 61.924478 
L 1057.948295 66.90586 
L 1061.341423 70.191116 
L 1064.734552 74.363325 
L 1068.12768 77.02097 
L 1071.520809 79.343163 
L 1074.913938 86.327151 
L 1078.307066 95.944985 
L 1081.700195 101.056121 
L 1085.093323 106.517064 
L 1088.486452 114.96018 
L 1091.879581 121.964866 
L 1095.272709 123.876687 
L 1098.665838 147.998316 
L 1102.058966 162.023204 
L 1105.452095 169.71493 
L 1108.845224 186.869004 
L 1112.238352 192.634052 
L 1112.238352 192.634052 
" style="fill:none;stroke:#96c6ad;stroke-linecap:square;stroke-width:2;"/>
   </g>
   <g id="line2d_20">
    <path clip-path="url(#pb02c72b866)" d="M 155.376084 217.166435 
L 158.769213 224.544744 
L 165.55547 224.544744 
L 168.948599 220.650212 
L 172.341727 220.650212 
L 175.734856 211.137917 
L 179.127984 203.759608 
L 182.521113 199.621051 
L 185.914242 195.943342 
L 189.30737 186.869004 
L 192.700499 184.324264 
L 196.093627 177.689027 
L 199.486756 166.706921 
L 202.879885 160.202636 
L 206.273013 156.308104 
L 209.666142 155.78738 
L 213.05927 155.78738 
L 216.452399 152.355307 
L 219.845528 150.543056 
L 223.238656 152.355307 
L 226.631785 149.672866 
L 230.024914 143.07669 
L 233.418042 136.123209 
L 236.811171 128.291943 
L 240.204299 128.067771 
L 243.597428 119.807668 
L 246.990557 115.5669 
L 253.776814 111.945636 
L 257.169942 110.998917 
L 260.563071 112.221182 
L 263.9562 108.311282 
L 267.349328 109.820227 
L 270.742457 109.563905 
L 274.135585 107.461851 
L 277.528714 106.868203 
L 280.921843 105.825778 
L 287.7081 106.054605 
L 291.101229 105.372822 
L 294.494357 105.148649 
L 297.887486 104.704813 
L 301.280614 103.407968 
L 304.673743 103.407968 
L 308.066872 103.091552 
L 311.46 102.986749 
L 314.853129 101.154971 
L 318.246257 98.584575 
L 321.639386 95.776284 
L 325.032515 96.370542 
L 331.818772 95.35826 
L 335.2119 96.370542 
L 338.605029 94.055025 
L 341.998158 93.343916 
L 345.391286 93.579257 
L 348.784415 91.741823 
L 355.570672 89.302061 
L 358.963801 87.094659 
L 362.356929 88.414806 
L 365.750058 88.482218 
L 369.143187 88.753246 
L 372.536315 87.748145 
L 375.929444 85.949976 
L 379.322572 82.4537 
L 382.715701 81.347734 
L 386.10883 81.347734 
L 389.501958 78.684369 
L 392.895087 75.301094 
L 399.681344 74.231503 
L 403.074473 75.941383 
L 406.467601 76.266237 
L 409.86073 74.143913 
L 413.253859 73.110538 
L 416.646987 75.34642 
L 420.040116 77.940182 
L 423.433244 81.130912 
L 426.826373 83.714575 
L 430.219502 87.289352 
L 433.61263 94.055025 
L 437.005759 102.674318 
L 440.398887 107.823224 
L 443.792016 106.750742 
L 447.185145 101.653703 
L 450.578273 100.372324 
L 453.971402 96.456314 
L 457.36453 92.724407 
L 460.757659 91.816378 
L 464.150788 90.571247 
L 467.543916 90.142749 
L 470.937045 89.4407 
L 474.330173 87.159429 
L 477.723302 87.354505 
L 481.116431 83.831621 
L 484.509559 82.622833 
L 487.902688 82.792835 
L 491.295817 80.067627 
L 494.688945 80.01535 
L 498.082074 80.277566 
L 501.475202 79.963155 
L 504.868331 81.023031 
L 508.26146 82.341424 
L 511.654588 80.4359 
L 515.047717 82.341424 
L 518.440845 83.949082 
L 521.833974 83.656208 
L 525.227103 82.173722 
L 528.620231 80.33026 
L 532.01336 77.164421 
L 535.406488 75.437259 
L 538.799617 74.187679 
L 542.192746 72.815122 
L 545.585874 71.862642 
L 548.979003 72.64749 
L 552.372132 74.495675 
L 555.76526 76.878139 
L 559.158389 75.757174 
L 562.551517 77.164421 
L 565.944646 78.087685 
L 569.337775 79.240952 
L 572.730903 78.484275 
L 576.124032 79.037472 
L 579.51716 80.383038 
L 582.910289 85.638918 
L 589.696546 86.138026 
L 593.089675 87.159429 
L 596.482803 88.957986 
L 599.875932 91.965995 
L 603.269061 91.593214 
L 606.662189 90.860029 
L 610.055318 90.715323 
L 613.448447 92.418952 
L 620.234704 93.895674 
L 623.627832 93.579257 
L 627.020961 94.537738 
L 630.41409 97.503324 
L 633.807218 98.584575 
L 637.200347 99.513437 
L 640.593475 99.513437 
L 643.986604 99.797261 
L 647.379733 96.456314 
L 650.772861 88.957986 
L 654.16599 80.224956 
L 660.952247 77.404897 
L 667.738504 76.547247 
L 671.131633 77.356661 
L 674.524762 81.730629 
L 677.91789 89.579922 
L 684.704147 91.593214 
L 688.097276 91.965995 
L 691.490405 93.816285 
L 694.883533 95.109958 
L 698.276662 94.215148 
L 701.66979 94.945454 
L 705.062919 96.54231 
L 708.456048 96.199661 
L 711.849176 97.503324 
L 715.242305 96.54231 
L 718.635433 93.500623 
L 722.028562 95.275285 
L 725.421691 96.62853 
L 728.814819 95.109958 
L 732.207948 96.029659 
L 735.601077 95.944985 
L 738.994205 95.60844 
L 742.387334 94.055025 
L 745.780462 90.787597 
L 749.173591 87.880406 
L 752.56672 86.644784 
L 755.959848 85.147231 
L 759.352977 82.397515 
L 762.746105 79.189964 
L 766.139234 78.334996 
L 769.532363 78.684369 
L 772.925491 79.963155 
L 776.31862 80.594996 
L 779.711748 79.755197 
L 783.104877 80.33026 
L 786.498006 79.963155 
L 789.891134 80.17243 
L 793.284263 80.594996 
L 796.677391 80.648198 
L 800.07052 80.33026 
L 803.463649 80.861868 
L 806.856777 83.020872 
L 810.249906 86.263989 
L 813.643035 88.549767 
L 817.036163 87.61641 
L 820.429292 85.025444 
L 823.82242 83.020872 
L 827.215549 83.365905 
L 830.608678 81.184984 
L 834.001806 78.186388 
L 837.394935 77.404897 
L 840.788063 77.308496 
L 844.181192 78.734582 
L 847.574321 80.969223 
L 850.967449 80.224956 
L 854.360578 77.89116 
L 857.753706 79.651706 
L 861.146835 76.830666 
L 864.539964 75.120409 
L 867.933092 73.623188 
L 871.326221 71.336178 
L 874.71935 71.336178 
L 878.112478 73.19543 
L 881.505607 74.319326 
L 884.898735 77.308496 
L 888.291864 79.497075 
L 891.684993 81.239145 
L 895.078121 83.48172 
L 898.47125 83.48172 
L 901.864378 81.785692 
L 905.257507 79.240952 
L 908.650636 78.88568 
L 915.436893 76.973291 
L 922.22315 77.212376 
L 925.616279 79.497075 
L 929.009407 81.565988 
L 932.402536 82.849697 
L 935.795665 83.890299 
L 939.188793 85.577056 
L 942.581922 86.772696 
L 945.97505 85.515309 
L 949.368179 84.722923 
L 952.761308 86.138026 
L 956.154436 84.185264 
L 959.547565 82.566359 
L 962.940693 80.648198 
L 966.333822 79.911043 
L 969.726951 81.023031 
L 973.120079 79.088225 
L 976.513208 76.312907 
L 979.906336 73.882526 
L 983.299465 71.903489 
L 986.692594 70.229948 
L 990.085722 68.822701 
L 993.478851 66.176065 
L 996.87198 66.004653 
L 1000.265108 65.094077 
L 1003.658237 62.16716 
L 1007.051365 61.177376 
L 1013.837623 58.894136 
L 1024.017008 59.450336 
L 1027.410137 62.657934 
L 1030.803266 62.075945 
L 1034.196394 63.218905 
L 1037.589523 63.789557 
L 1040.982651 65.227405 
L 1044.37578 66.486864 
L 1047.768909 67.046713 
L 1051.162037 69.310344 
L 1054.555166 76.735923 
L 1057.948295 82.06239 
L 1061.341423 89.510238 
L 1064.734552 97.503324 
L 1068.12768 102.058177 
L 1071.520809 112.77926 
L 1074.913938 125.697256 
L 1078.307066 132.355607 
L 1081.700195 140.375981 
L 1085.093323 147.191805 
L 1085.093323 147.191805 
" style="fill:none;stroke:#525886;stroke-linecap:square;stroke-width:2;"/>
   </g>
   <g id="line2d_21">
    <path clip-path="url(#pb02c72b866)" d="M 253.776814 217.166435 
L 257.169942 220.650212 
L 260.563071 217.166435 
L 263.9562 217.166435 
L 267.349328 214.014975 
L 280.921843 214.014975 
L 284.314971 217.166435 
L 287.7081 217.166435 
L 291.101229 224.544744 
L 297.887486 224.544744 
L 301.280614 228.96 
L 311.46 228.96 
L 314.853129 224.544744 
L 335.2119 224.544744 
L 338.605029 228.96 
L 352.177544 228.96 
L 355.570672 224.544744 
L 358.963801 224.544744 
L 362.356929 220.650212 
L 375.929444 220.650212 
L 379.322572 224.544744 
L 382.715701 224.544744 
L 386.10883 228.96 
L 403.074473 228.96 
L 406.467601 224.544744 
L 426.826373 224.544744 
L 430.219502 228.96 
L 484.509559 228.96 
L 487.902688 220.650212 
L 491.295817 220.650212 
L 494.688945 214.014975 
L 498.082074 201.625623 
L 508.26146 201.625623 
L 511.654588 203.759608 
L 515.047717 203.759608 
L 518.440845 208.491281 
L 521.833974 224.544744 
L 528.620231 224.544744 
L 532.01336 220.650212 
L 535.406488 217.166435 
L 538.799617 214.014975 
L 542.192746 211.137917 
L 545.585874 211.137917 
L 548.979003 208.491281 
L 552.372132 208.491281 
L 555.76526 211.137917 
L 559.158389 214.014975 
L 562.551517 214.014975 
L 565.944646 217.166435 
L 572.730903 217.166435 
L 576.124032 214.014975 
L 579.51716 211.137917 
L 582.910289 214.014975 
L 586.303418 211.137917 
L 589.696546 206.040879 
L 593.089675 203.759608 
L 596.482803 203.759608 
L 599.875932 194.247313 
L 603.269061 184.324264 
L 606.662189 176.70193 
L 610.055318 173.906014 
L 613.448447 173.02422 
L 620.234704 169.71493 
L 623.627832 169.71493 
L 633.807218 167.43366 
L 637.200347 165.995812 
L 640.593475 165.995812 
L 643.986604 165.299674 
L 650.772861 168.176732 
L 654.16599 169.71493 
L 657.559118 168.936887 
L 660.952247 172.165333 
L 664.345376 171.328192 
L 667.738504 174.811969 
L 671.131633 176.70193 
L 674.524762 177.689027 
L 677.91789 180.840487 
L 681.311019 186.869004 
L 684.704147 185.57216 
L 688.097276 189.626042 
L 694.883533 186.869004 
L 698.276662 192.634052 
L 705.062919 195.943342 
L 708.456048 197.731091 
L 715.242305 197.731091 
L 718.635433 194.247313 
L 722.028562 177.689027 
L 725.421691 171.328192 
L 735.601077 168.936887 
L 742.387334 170.511723 
L 745.780462 176.70193 
L 749.173591 176.70193 
L 752.56672 173.02422 
L 759.352977 171.328192 
L 762.746105 168.936887 
L 766.139234 164.617891 
L 769.532363 163.295103 
L 772.925491 166.706921 
L 776.31862 168.176732 
L 779.711748 165.299674 
L 783.104877 165.995812 
L 786.498006 167.43366 
L 789.891134 169.71493 
L 793.284263 173.906014 
L 796.677391 173.02422 
L 800.07052 173.906014 
L 803.463649 176.70193 
L 806.856777 173.906014 
L 810.249906 173.906014 
L 813.643035 177.689027 
L 817.036163 179.756281 
L 827.215549 179.756281 
L 830.608678 183.121757 
L 834.001806 183.121757 
L 840.788063 180.840487 
L 844.181192 186.869004 
L 847.574321 188.218796 
L 850.967449 188.218796 
L 854.360578 185.57216 
L 857.753706 185.57216 
L 861.146835 177.689027 
L 864.539964 178.706501 
L 867.933092 172.165333 
L 871.326221 169.71493 
L 874.71935 168.176732 
L 878.112478 168.936887 
L 881.505607 168.936887 
L 884.898735 174.811969 
L 888.291864 175.743448 
L 891.684993 180.840487 
L 895.078121 183.121757 
L 898.47125 188.218796 
L 901.864378 189.626042 
L 905.257507 189.626042 
L 908.650636 194.247313 
L 912.043764 194.247313 
L 915.436893 195.943342 
L 918.830021 199.621051 
L 925.616279 195.943342 
L 929.009407 189.626042 
L 932.402536 173.906014 
L 935.795665 171.328192 
L 942.581922 168.176732 
L 945.97505 166.706921 
L 949.368179 168.176732 
L 952.761308 168.936887 
L 956.154436 175.743448 
L 959.547565 178.706501 
L 962.940693 159.617394 
L 966.333822 161.405143 
L 969.726951 163.949883 
L 973.120079 164.617891 
L 976.513208 167.43366 
L 979.906336 171.328192 
L 983.299465 165.995812 
L 986.692594 194.247313 
L 990.085722 192.634052 
L 993.478851 180.840487 
L 996.87198 179.756281 
L 1003.658237 179.756281 
L 1007.051365 186.869004 
L 1010.444494 180.840487 
L 1013.837623 176.70193 
L 1017.230751 188.218796 
L 1020.62388 188.218796 
L 1024.017008 185.57216 
L 1027.410137 180.840487 
L 1030.803266 175.743448 
L 1034.196394 181.961452 
L 1037.589523 186.869004 
L 1040.982651 185.57216 
L 1044.37578 185.57216 
L 1047.768909 188.218796 
L 1051.162037 194.247313 
L 1054.555166 208.491281 
L 1057.948295 208.491281 
L 1061.341423 211.137917 
L 1064.734552 211.137917 
L 1064.734552 211.137917 
" style="fill:none;stroke:#937252;stroke-linecap:square;stroke-width:2;"/>
   </g>
   <g id="line2d_22">
    <path clip-path="url(#pb02c72b866)" d="M 97.692898 163.295103 
L 101.086026 158.477098 
L 104.479155 151.892848 
L 107.872284 147.191805 
L 111.265412 146.795809 
L 114.658541 151.436767 
L 118.051669 153.782808 
L 121.444798 155.78738 
L 124.837927 153.782808 
L 128.231055 153.300094 
L 131.624184 150.543056 
L 135.017312 147.592602 
L 138.410441 145.635504 
L 141.80357 143.430333 
L 145.196698 140.053391 
L 148.589827 139.733917 
L 151.982955 138.18127 
L 155.376084 139.4175 
L 158.769213 140.053391 
L 162.162341 135.839385 
L 165.55547 132.610939 
L 168.948599 127.845108 
L 172.341727 125.90587 
L 175.734856 120.333918 
L 179.127984 111.266654 
L 182.521113 104.594779 
L 185.914242 100.275783 
L 189.30737 95.60844 
L 192.700499 94.134989 
L 196.093627 87.030015 
L 199.486756 82.509982 
L 206.273013 75.665453 
L 209.666142 72.480704 
L 213.05927 68.52615 
L 216.452399 67.580323 
L 219.845528 67.330233 
L 223.238656 64.435384 
L 226.631785 63.093419 
L 233.418042 60.101751 
L 236.811171 60.591616 
L 240.204299 57.675874 
L 243.597428 56.913907 
L 246.990557 58.756536 
L 250.383685 58.619506 
L 253.776814 58.86657 
L 257.169942 56.347353 
L 260.563071 56.758427 
L 263.9562 59.115495 
L 267.349328 57.915962 
L 270.742457 57.516779 
L 274.135585 54.801032 
L 277.528714 51.887445 
L 280.921843 50.725601 
L 284.314971 48.943521 
L 287.7081 46.504784 
L 291.101229 47.039956 
L 294.494357 46.353455 
L 297.887486 47.780401 
L 301.280614 50.747149 
L 304.673743 53.98278 
L 308.066872 53.98278 
L 311.46 56.219934 
L 314.853129 55.267266 
L 318.246257 54.972038 
L 321.639386 56.784289 
L 325.032515 56.372896 
L 328.425643 54.947555 
L 331.818772 55.966559 
L 335.2119 55.440708 
L 338.605029 56.732584 
L 341.998158 57.070121 
L 345.391286 55.440708 
L 348.784415 55.665049 
L 352.177544 58.401432 
L 358.963801 61.236527 
L 362.356929 60.678821 
L 365.750058 62.015275 
L 369.143187 64.533355 
L 372.536315 65.227405 
L 375.929444 65.529373 
L 379.322572 66.210454 
L 382.715701 66.695698 
L 386.10883 68.049854 
L 389.501958 66.591116 
L 392.895087 64.272741 
L 396.288215 64.014164 
L 399.681344 65.127359 
L 403.074473 63.82155 
L 406.467601 64.078619 
L 409.86073 65.194023 
L 413.253859 66.90586 
L 420.040116 71.699759 
L 423.433244 71.659163 
L 426.826373 72.108482 
L 430.219502 71.618617 
L 433.61263 71.336178 
L 437.005759 70.503055 
L 440.398887 67.117365 
L 443.792016 66.141711 
L 447.185145 64.79604 
L 453.971402 65.294271 
L 457.36453 63.25035 
L 460.757659 63.725662 
L 464.150788 64.370231 
L 467.543916 64.79604 
L 470.937045 64.175537 
L 474.330173 64.014164 
L 477.723302 64.110894 
L 481.116431 65.766159 
L 484.509559 65.327755 
L 487.902688 67.616205 
L 491.295817 67.580323 
L 494.688945 66.521578 
L 498.082074 67.152748 
L 501.475202 67.29466 
L 504.868331 65.902231 
L 508.26146 67.29466 
L 511.654588 67.940908 
L 515.047717 66.004653 
L 518.440845 69.49983 
L 521.833974 70.346718 
L 525.227103 71.985334 
L 528.620231 74.231503 
L 532.01336 74.628556 
L 535.406488 73.882526 
L 538.799617 77.068718 
L 542.192746 75.482772 
L 545.585874 74.672969 
L 548.979003 70.897164 
L 552.372132 70.620795 
L 555.76526 70.191116 
L 559.158389 71.016318 
L 562.551517 65.902231 
L 565.944646 66.87074 
L 569.337775 67.437183 
L 572.730903 69.423905 
L 576.124032 64.468009 
L 579.51716 64.631618 
L 582.910289 59.731984 
L 586.303418 63.88563 
L 589.696546 61.000556 
L 593.089675 61.266142 
L 596.482803 59.310406 
L 599.875932 59.760281 
L 603.269061 59.282491 
L 606.662189 52.291506 
L 610.055318 46.071567 
L 613.448447 46.523749 
L 616.841575 46.618737 
L 620.234704 48.13701 
L 623.627832 51.115629 
L 627.020961 47.427596 
L 630.41409 58.076995 
L 633.807218 62.688851 
L 637.200347 59.959043 
L 640.593475 59.2546 
L 643.986604 59.873713 
L 647.379733 58.292932 
L 650.772861 62.442323 
L 654.16599 59.816949 
L 657.559118 63.757594 
L 660.952247 63.630052 
L 664.345376 60.766257 
L 667.738504 60.044594 
L 671.131633 58.729084 
L 674.524762 58.619506 
L 677.91789 58.292932 
L 681.311019 57.649305 
L 684.704147 61.14784 
L 688.097276 65.394825 
L 691.490405 64.435384 
L 694.883533 67.940908 
L 698.276662 68.342146 
L 701.66979 69.882092 
L 705.062919 70.778437 
L 708.456048 69.348154 
L 711.849176 69.234852 
L 715.242305 70.229948 
L 718.635433 67.652126 
L 722.028562 68.600039 
L 725.421691 68.637045 
L 728.814819 66.556329 
L 732.207948 68.232234 
L 735.601077 67.223628 
L 738.994205 67.904672 
L 742.387334 69.272576 
L 745.780462 70.229948 
L 749.173591 71.618617 
L 752.56672 73.925947 
L 755.959848 75.665453 
L 759.352977 76.080215 
L 762.746105 73.19543 
L 766.139234 73.66627 
L 769.532363 73.45142 
L 772.925491 74.231503 
L 776.31862 75.665453 
L 779.711748 74.012961 
L 783.104877 74.940706 
L 786.498006 78.634232 
L 789.891134 74.717441 
L 793.284263 74.012961 
L 796.677391 73.969425 
L 800.07052 75.391808 
L 803.463649 75.665453 
L 806.856777 76.735923 
L 810.249906 76.359642 
L 813.643035 78.88568 
L 817.036163 83.250493 
L 820.429292 82.4537 
L 823.82242 78.434441 
L 827.215549 81.347734 
L 834.001806 81.511289 
L 837.394935 86.263989 
L 840.788063 82.679403 
L 844.181192 75.391808 
L 847.574321 72.983608 
L 850.967449 73.66627 
L 854.360578 73.623188 
L 857.753706 73.925947 
L 861.146835 74.672969 
L 864.539964 77.068718 
L 867.933092 88.013199 
L 871.326221 95.192518 
L 874.71935 93.422177 
L 878.112478 92.191698 
L 881.505607 90.427797 
L 884.898735 91.445271 
L 888.291864 90.356304 
L 891.684993 90.499444 
L 895.078121 92.267276 
L 898.47125 94.700222 
L 901.864378 96.975675 
L 905.257507 99.513437 
L 915.436893 93.737087 
L 918.830021 95.35826 
L 922.22315 94.700222 
L 925.616279 93.895674 
L 929.009407 93.579257 
L 935.795665 96.199661 
L 939.188793 95.860527 
L 942.581922 93.658078 
L 945.97505 91.965995 
L 949.368179 93.422177 
L 952.761308 92.343027 
L 956.154436 87.030015 
L 959.547565 89.649754 
L 962.940693 91.965995 
L 966.333822 94.61888 
L 969.726951 97.503324 
L 973.120079 95.109958 
L 976.513208 95.60844 
L 979.906336 103.196688 
L 983.299465 102.46766 
L 986.692594 102.262284 
L 990.085722 100.761332 
L 993.478851 99.607774 
L 996.87198 101.553353 
L 1000.265108 100.761332 
L 1003.658237 101.956594 
L 1007.051365 101.056121 
L 1010.444494 101.956594 
L 1013.837623 95.524836 
L 1017.230751 91.891102 
L 1020.62388 91.445271 
L 1024.017008 92.724407 
L 1027.410137 91.965995 
L 1030.803266 92.801214 
L 1034.196394 87.550739 
L 1037.589523 90.643207 
L 1040.982651 96.114551 
L 1044.37578 98.493108 
L 1047.768909 99.325565 
L 1051.162037 100.957566 
L 1054.555166 100.957566 
L 1057.948295 112.359821 
L 1061.341423 121.779626 
L 1064.734552 120.689462 
L 1068.12768 120.333918 
L 1071.520809 123.291446 
L 1074.913938 120.689462 
L 1078.307066 127.623935 
L 1081.700195 128.291943 
L 1085.093323 125.90587 
L 1088.486452 133.388982 
L 1091.879581 139.104082 
L 1095.272709 140.701751 
L 1095.272709 140.701751 
" style="fill:none;stroke:#d18cad;stroke-linecap:square;stroke-width:2;"/>
   </g>
   <g id="line2d_23">
    <path clip-path="url(#pb02c72b866)" d="M 219.845528 220.650212 
L 223.238656 224.544744 
L 233.418042 224.544744 
L 236.811171 228.96 
L 240.204299 224.544744 
L 243.597428 224.544744 
L 246.990557 217.166435 
L 250.383685 214.014975 
L 253.776814 211.137917 
L 257.169942 211.137917 
L 260.563071 208.491281 
L 263.9562 208.491281 
L 267.349328 203.759608 
L 270.742457 206.040879 
L 274.135585 208.491281 
L 277.528714 203.759608 
L 287.7081 203.759608 
L 291.101229 206.040879 
L 294.494357 201.625623 
L 297.887486 199.621051 
L 301.280614 195.943342 
L 308.066872 195.943342 
L 311.46 197.731091 
L 314.853129 195.943342 
L 318.246257 201.625623 
L 321.639386 199.621051 
L 325.032515 211.137917 
L 328.425643 211.137917 
L 331.818772 214.014975 
L 335.2119 214.014975 
L 338.605029 220.650212 
L 341.998158 217.166435 
L 345.391286 224.544744 
L 348.784415 211.137917 
L 352.177544 208.491281 
L 355.570672 206.040879 
L 358.963801 203.759608 
L 362.356929 195.943342 
L 365.750058 186.869004 
L 369.143187 184.324264 
L 372.536315 162.023204 
L 375.929444 160.798423 
L 379.322572 159.04233 
L 382.715701 159.617394 
L 386.10883 159.617394 
L 389.501958 159.04233 
L 392.895087 159.04233 
L 396.288215 175.743448 
L 399.681344 174.811969 
L 403.074473 176.70193 
L 406.467601 173.02422 
L 409.86073 174.811969 
L 413.253859 174.811969 
L 416.646987 172.165333 
L 420.040116 173.906014 
L 423.433244 173.906014 
L 426.826373 173.02422 
L 430.219502 176.70193 
L 433.61263 168.176732 
L 437.005759 165.995812 
L 440.398887 163.949883 
L 447.185145 154.272673 
L 450.578273 153.300094 
L 453.971402 150.986892 
L 457.36453 151.436767 
L 460.757659 152.824326 
L 464.150788 153.300094 
L 467.543916 151.892848 
L 470.937045 151.436767 
L 474.330173 147.592602 
L 477.723302 147.191805 
L 481.116431 143.430333 
L 484.509559 144.149173 
L 487.902688 143.07669 
L 491.295817 142.72679 
L 494.688945 143.430333 
L 498.082074 146.795809 
L 504.868331 149.246211 
L 508.26146 145.635504 
L 511.654588 143.787799 
L 515.047717 148.824992 
L 518.440845 145.635504 
L 521.833974 144.149173 
L 525.227103 140.375981 
L 532.01336 143.07669 
L 535.406488 146.017766 
L 538.799617 142.380553 
L 542.192746 146.404499 
L 545.585874 148.824992 
L 548.979003 153.300094 
L 552.372132 155.274729 
L 555.76526 158.477098 
L 559.158389 157.921365 
L 562.551517 163.949883 
L 565.944646 169.71493 
L 569.337775 170.511723 
L 572.730903 170.511723 
L 576.124032 163.295103 
L 579.51716 158.477098 
L 582.910289 150.543056 
L 586.303418 148.40907 
L 589.696546 145.635504 
L 593.089675 146.017766 
L 596.482803 146.795809 
L 599.875932 153.300094 
L 603.269061 156.83716 
L 606.662189 172.165333 
L 613.448447 173.906014 
L 616.841575 170.511723 
L 620.234704 172.165333 
L 623.627832 163.295103 
L 627.020961 163.295103 
L 630.41409 158.477098 
L 633.807218 162.023204 
L 637.200347 163.295103 
L 640.593475 165.299674 
L 643.986604 163.295103 
L 647.379733 168.176732 
L 650.772861 168.176732 
L 654.16599 165.299674 
L 657.559118 163.295103 
L 660.952247 159.617394 
L 664.345376 157.374819 
L 667.738504 157.374819 
L 671.131633 160.798423 
L 674.524762 155.78738 
L 677.91789 153.782808 
L 681.311019 152.355307 
L 684.704147 154.272673 
L 691.490405 156.308104 
L 694.883533 153.782808 
L 698.276662 153.782808 
L 701.66979 160.798423 
L 705.062919 161.405143 
L 708.456048 160.202636 
L 711.849176 156.308104 
L 715.242305 154.272673 
L 718.635433 153.300094 
L 722.028562 154.769905 
L 725.421691 147.998316 
L 728.814819 148.40907 
L 732.207948 150.105099 
L 735.601077 151.436767 
L 738.994205 152.355307 
L 742.387334 150.543056 
L 745.780462 151.892848 
L 749.173591 157.921365 
L 752.56672 155.78738 
L 755.959848 154.769905 
L 759.352977 157.921365 
L 762.746105 157.374819 
L 766.139234 166.706921 
L 769.532363 173.02422 
L 772.925491 172.165333 
L 776.31862 174.811969 
L 779.711748 176.70193 
L 783.104877 176.70193 
L 786.498006 177.689027 
L 789.891134 175.743448 
L 793.284263 174.811969 
L 796.677391 181.961452 
L 800.07052 189.626042 
L 803.463649 197.731091 
L 806.856777 197.731091 
L 810.249906 203.759608 
L 813.643035 195.943342 
L 817.036163 192.634052 
L 820.429292 192.634052 
L 823.82242 191.095853 
L 827.215549 184.324264 
L 830.608678 186.869004 
L 834.001806 185.57216 
L 837.394935 192.634052 
L 840.788063 189.626042 
L 844.181192 186.869004 
L 850.967449 186.869004 
L 854.360578 180.840487 
L 857.753706 181.961452 
L 861.146835 173.02422 
L 864.539964 173.906014 
L 867.933092 173.906014 
L 871.326221 170.511723 
L 878.112478 167.43366 
L 881.505607 167.43366 
L 884.898735 170.511723 
L 888.291864 171.328192 
L 891.684993 173.906014 
L 895.078121 175.743448 
L 898.47125 183.121757 
L 901.864378 192.634052 
L 905.257507 191.095853 
L 908.650636 197.731091 
L 912.043764 199.621051 
L 918.830021 195.943342 
L 922.22315 194.247313 
L 929.009407 194.247313 
L 932.402536 192.634052 
L 935.795665 195.943342 
L 939.188793 192.634052 
L 942.581922 195.943342 
L 945.97505 189.626042 
L 949.368179 188.218796 
L 952.761308 189.626042 
L 956.154436 184.324264 
L 959.547565 184.324264 
L 966.333822 181.961452 
L 969.726951 184.324264 
L 973.120079 180.840487 
L 976.513208 176.70193 
L 979.906336 179.756281 
L 983.299465 178.706501 
L 986.692594 180.840487 
L 990.085722 184.324264 
L 993.478851 188.218796 
L 996.87198 192.634052 
L 1000.265108 195.943342 
L 1003.658237 201.625623 
L 1007.051365 201.625623 
L 1010.444494 199.621051 
L 1017.230751 199.621051 
L 1020.62388 201.625623 
L 1024.017008 203.759608 
L 1027.410137 199.621051 
L 1030.803266 203.759608 
L 1034.196394 211.137917 
L 1037.589523 214.014975 
L 1044.37578 214.014975 
L 1047.768909 217.166435 
L 1051.162037 228.96 
L 1061.341423 228.96 
L 1064.734552 224.544744 
L 1064.734552 224.544744 
" style="fill:none;stroke:#a4a86f;stroke-linecap:square;stroke-width:2;"/>
   </g>
   <g id="line2d_24">
    <path clip-path="url(#pb02c72b866)" d="M 155.376084 224.544744 
L 158.769213 228.96 
L 172.341727 228.96 
L 175.734856 224.544744 
L 185.914242 224.544744 
L 189.30737 220.650212 
L 192.700499 214.014975 
L 196.093627 214.014975 
L 199.486756 217.166435 
L 202.879885 214.014975 
L 206.273013 214.014975 
L 209.666142 208.491281 
L 213.05927 211.137917 
L 216.452399 217.166435 
L 219.845528 211.137917 
L 223.238656 199.621051 
L 226.631785 199.621051 
L 230.024914 194.247313 
L 233.418042 192.634052 
L 236.811171 189.626042 
L 240.204299 179.756281 
L 243.597428 181.961452 
L 246.990557 174.811969 
L 250.383685 169.71493 
L 253.776814 171.328192 
L 257.169942 171.328192 
L 260.563071 168.936887 
L 263.9562 168.176732 
L 267.349328 162.653038 
L 270.742457 165.299674 
L 274.135585 167.43366 
L 277.528714 168.176732 
L 280.921843 170.511723 
L 284.314971 173.906014 
L 287.7081 179.756281 
L 291.101229 181.961452 
L 294.494357 183.121757 
L 297.887486 183.121757 
L 301.280614 178.706501 
L 304.673743 173.02422 
L 308.066872 172.165333 
L 311.46 173.02422 
L 314.853129 177.689027 
L 318.246257 185.57216 
L 321.639386 191.095853 
L 325.032515 197.731091 
L 328.425643 211.137917 
L 331.818772 214.014975 
L 335.2119 217.166435 
L 338.605029 214.014975 
L 341.998158 211.137917 
L 352.177544 211.137917 
L 355.570672 214.014975 
L 358.963801 217.166435 
L 362.356929 220.650212 
L 365.750058 220.650212 
L 369.143187 217.166435 
L 372.536315 217.166435 
L 375.929444 211.137917 
L 386.10883 211.137917 
L 389.501958 214.014975 
L 392.895087 217.166435 
L 396.288215 214.014975 
L 399.681344 211.137917 
L 403.074473 211.137917 
L 406.467601 206.040879 
L 413.253859 206.040879 
L 416.646987 197.731091 
L 420.040116 199.621051 
L 426.826373 195.943342 
L 433.61263 199.621051 
L 437.005759 195.943342 
L 443.792016 195.943342 
L 447.185145 201.625623 
L 450.578273 194.247313 
L 453.971402 195.943342 
L 457.36453 188.218796 
L 460.757659 189.626042 
L 464.150788 194.247313 
L 467.543916 194.247313 
L 470.937045 191.095853 
L 474.330173 194.247313 
L 477.723302 188.218796 
L 481.116431 191.095853 
L 484.509559 192.634052 
L 487.902688 192.634052 
L 491.295817 191.095853 
L 494.688945 194.247313 
L 498.082074 197.731091 
L 501.475202 206.040879 
L 504.868331 214.014975 
L 518.440845 214.014975 
L 521.833974 211.137917 
L 525.227103 208.491281 
L 528.620231 208.491281 
L 532.01336 206.040879 
L 535.406488 201.625623 
L 538.799617 199.621051 
L 542.192746 201.625623 
L 545.585874 199.621051 
L 548.979003 201.625623 
L 552.372132 201.625623 
L 555.76526 203.759608 
L 559.158389 211.137917 
L 562.551517 214.014975 
L 565.944646 211.137917 
L 569.337775 217.166435 
L 586.303418 217.166435 
L 589.696546 220.650212 
L 593.089675 224.544744 
L 596.482803 220.650212 
L 599.875932 220.650212 
L 603.269061 217.166435 
L 610.055318 217.166435 
L 613.448447 214.014975 
L 616.841575 208.491281 
L 620.234704 211.137917 
L 623.627832 203.759608 
L 627.020961 206.040879 
L 630.41409 203.759608 
L 633.807218 206.040879 
L 637.200347 208.491281 
L 640.593475 214.014975 
L 643.986604 211.137917 
L 647.379733 214.014975 
L 650.772861 206.040879 
L 654.16599 203.759608 
L 657.559118 203.759608 
L 664.345376 199.621051 
L 667.738504 201.625623 
L 671.131633 206.040879 
L 674.524762 208.491281 
L 677.91789 214.014975 
L 681.311019 214.014975 
L 684.704147 217.166435 
L 688.097276 220.650212 
L 694.883533 220.650212 
L 698.276662 228.96 
L 701.66979 217.166435 
L 705.062919 217.166435 
L 708.456048 214.014975 
L 711.849176 211.137917 
L 718.635433 211.137917 
L 722.028562 201.625623 
L 725.421691 208.491281 
L 728.814819 203.759608 
L 732.207948 203.759608 
L 735.601077 206.040879 
L 742.387334 206.040879 
L 745.780462 211.137917 
L 749.173591 208.491281 
L 752.56672 206.040879 
L 762.746105 206.040879 
L 766.139234 203.759608 
L 769.532363 206.040879 
L 772.925491 203.759608 
L 776.31862 208.491281 
L 779.711748 203.759608 
L 783.104877 203.759608 
L 786.498006 201.625623 
L 789.891134 201.625623 
L 793.284263 199.621051 
L 796.677391 201.625623 
L 800.07052 201.625623 
L 803.463649 208.491281 
L 806.856777 192.634052 
L 813.643035 192.634052 
L 817.036163 195.943342 
L 820.429292 197.731091 
L 823.82242 197.731091 
L 827.215549 195.943342 
L 830.608678 214.014975 
L 834.001806 214.014975 
L 837.394935 217.166435 
L 847.574321 217.166435 
L 850.967449 220.650212 
L 854.360578 217.166435 
L 857.753706 220.650212 
L 861.146835 217.166435 
L 864.539964 211.137917 
L 871.326221 211.137917 
L 874.71935 208.491281 
L 878.112478 211.137917 
L 881.505607 211.137917 
L 884.898735 214.014975 
L 888.291864 220.650212 
L 891.684993 220.650212 
L 895.078121 224.544744 
L 898.47125 228.96 
L 908.650636 228.96 
L 912.043764 224.544744 
L 925.616279 224.544744 
L 929.009407 220.650212 
L 932.402536 217.166435 
L 935.795665 220.650212 
L 942.581922 220.650212 
L 945.97505 214.014975 
L 949.368179 214.014975 
L 952.761308 217.166435 
L 956.154436 220.650212 
L 959.547565 220.650212 
L 962.940693 217.166435 
L 966.333822 217.166435 
L 969.726951 214.014975 
L 976.513208 214.014975 
L 979.906336 211.137917 
L 983.299465 211.137917 
L 986.692594 214.014975 
L 990.085722 214.014975 
L 993.478851 224.544744 
L 996.87198 217.166435 
L 1000.265108 214.014975 
L 1003.658237 206.040879 
L 1007.051365 203.759608 
L 1010.444494 201.625623 
L 1013.837623 201.625623 
L 1017.230751 195.943342 
L 1024.017008 192.634052 
L 1027.410137 194.247313 
L 1030.803266 191.095853 
L 1034.196394 192.634052 
L 1037.589523 188.218796 
L 1040.982651 191.095853 
L 1044.37578 189.626042 
L 1047.768909 192.634052 
L 1051.162037 197.731091 
L 1054.555166 201.625623 
L 1057.948295 201.625623 
L 1061.341423 208.491281 
L 1064.734552 211.137917 
L 1068.12768 224.544744 
L 1078.307066 224.544744 
L 1078.307066 224.544744 
" style="fill:none;stroke:#d3d3d3;stroke-linecap:square;stroke-width:2;"/>
   </g>
   <g id="patch_3">
    <path d="M 46.965625 228.96 
L 46.965625 7.2 
" style="fill:none;stroke:#000000;stroke-linecap:square;stroke-linejoin:miter;stroke-width:0.8;"/>
   </g>
   <g id="patch_4">
    <path d="M 46.965625 228.96 
L 1162.965625 228.96 
" style="fill:none;stroke:#000000;stroke-linecap:square;stroke-linejoin:miter;stroke-width:0.8;"/>
   </g>
   <g id="legend_1">
    <g id="line2d_25">
     <path d="M 54.165625 17.67875 
L 70.165625 17.67875 
" style="fill:none;stroke:#947383;stroke-linecap:square;stroke-width:2;"/>
    </g>
    <g id="line2d_26"/>
    <g id="text_20">
     <!-- North America -->
     <g transform="translate(76.565625 20.47875)scale(0.08 -0.08)">
      <defs>
       <path d="M 628 4666 
L 1478 4666 
L 3547 763 
L 3547 4666 
L 4159 4666 
L 4159 0 
L 3309 0 
L 1241 3903 
L 1241 0 
L 628 0 
L 628 4666 
z
" id="DejaVuSans-4e" transform="scale(0.015625)"/>
       <path d="M 3513 2113 
L 3513 0 
L 2938 0 
L 2938 2094 
Q 2938 2591 2744 2837 
Q 2550 3084 2163 3084 
Q 1697 3084 1428 2787 
Q 1159 2491 1159 1978 
L 1159 0 
L 581 0 
L 581 4863 
L 1159 4863 
L 1159 2956 
Q 1366 3272 1645 3428 
Q 1925 3584 2291 3584 
Q 2894 3584 3203 3211 
Q 3513 2838 3513 2113 
z
" id="DejaVuSans-68" transform="scale(0.015625)"/>
       <path d="M 2188 4044 
L 1331 1722 
L 3047 1722 
L 2188 4044 
z
M 1831 4666 
L 2547 4666 
L 4325 0 
L 3669 0 
L 3244 1197 
L 1141 1197 
L 716 0 
L 50 0 
L 1831 4666 
z
" id="DejaVuSans-41" transform="scale(0.015625)"/>
       <path d="M 3328 2828 
Q 3544 3216 3844 3400 
Q 4144 3584 4550 3584 
Q 5097 3584 5394 3201 
Q 5691 2819 5691 2113 
L 5691 0 
L 5113 0 
L 5113 2094 
Q 5113 2597 4934 2840 
Q 4756 3084 4391 3084 
Q 3944 3084 3684 2787 
Q 3425 2491 3425 1978 
L 3425 0 
L 2847 0 
L 2847 2094 
Q 2847 2600 2669 2842 
Q 2491 3084 2119 3084 
Q 1678 3084 1418 2786 
Q 1159 2488 1159 1978 
L 1159 0 
L 581 0 
L 581 3500 
L 1159 3500 
L 1159 2956 
Q 1356 3278 1631 3431 
Q 1906 3584 2284 3584 
Q 2666 3584 2933 3390 
Q 3200 3197 3328 2828 
z
" id="DejaVuSans-6d" transform="scale(0.015625)"/>
       <path d="M 3122 3366 
L 3122 2828 
Q 2878 2963 2633 3030 
Q 2388 3097 2138 3097 
Q 1578 3097 1268 2742 
Q 959 2388 959 1747 
Q 959 1106 1268 751 
Q 1578 397 2138 397 
Q 2388 397 2633 464 
Q 2878 531 3122 666 
L 3122 134 
Q 2881 22 2623 -34 
Q 2366 -91 2075 -91 
Q 1284 -91 818 406 
Q 353 903 353 1747 
Q 353 2603 823 3093 
Q 1294 3584 2113 3584 
Q 2378 3584 2631 3529 
Q 2884 3475 3122 3366 
z
" id="DejaVuSans-63" transform="scale(0.015625)"/>
      </defs>
      <use xlink:href="#DejaVuSans-4e"/>
      <use x="74.804688" xlink:href="#DejaVuSans-6f"/>
      <use x="135.986328" xlink:href="#DejaVuSans-72"/>
      <use x="177.099609" xlink:href="#DejaVuSans-74"/>
      <use x="216.308594" xlink:href="#DejaVuSans-68"/>
      <use x="279.6875" xlink:href="#DejaVuSans-20"/>
      <use x="311.474609" xlink:href="#DejaVuSans-41"/>
      <use x="379.882812" xlink:href="#DejaVuSans-6d"/>
      <use x="477.294922" xlink:href="#DejaVuSans-65"/>
      <use x="538.818359" xlink:href="#DejaVuSans-72"/>
      <use x="579.931641" xlink:href="#DejaVuSans-69"/>
      <use x="607.714844" xlink:href="#DejaVuSans-63"/>
      <use x="662.695312" xlink:href="#DejaVuSans-61"/>
     </g>
    </g>
    <g id="line2d_27">
     <path d="M 54.165625 29.42125 
L 70.165625 29.42125 
" style="fill:none;stroke:#96c6ad;stroke-linecap:square;stroke-width:2;"/>
    </g>
    <g id="line2d_28"/>
    <g id="text_21">
     <!-- Europe -->
     <g transform="translate(76.565625 32.22125)scale(0.08 -0.08)">
      <defs>
       <path d="M 628 4666 
L 3578 4666 
L 3578 4134 
L 1259 4134 
L 1259 2753 
L 3481 2753 
L 3481 2222 
L 1259 2222 
L 1259 531 
L 3634 531 
L 3634 0 
L 628 0 
L 628 4666 
z
" id="DejaVuSans-45" transform="scale(0.015625)"/>
       <path d="M 1159 525 
L 1159 -1331 
L 581 -1331 
L 581 3500 
L 1159 3500 
L 1159 2969 
Q 1341 3281 1617 3432 
Q 1894 3584 2278 3584 
Q 2916 3584 3314 3078 
Q 3713 2572 3713 1747 
Q 3713 922 3314 415 
Q 2916 -91 2278 -91 
Q 1894 -91 1617 61 
Q 1341 213 1159 525 
z
M 3116 1747 
Q 3116 2381 2855 2742 
Q 2594 3103 2138 3103 
Q 1681 3103 1420 2742 
Q 1159 2381 1159 1747 
Q 1159 1113 1420 752 
Q 1681 391 2138 391 
Q 2594 391 2855 752 
Q 3116 1113 3116 1747 
z
" id="DejaVuSans-70" transform="scale(0.015625)"/>
      </defs>
      <use xlink:href="#DejaVuSans-45"/>
      <use x="63.183594" xlink:href="#DejaVuSans-75"/>
      <use x="126.5625" xlink:href="#DejaVuSans-72"/>
      <use x="165.425781" xlink:href="#DejaVuSans-6f"/>
      <use x="226.607422" xlink:href="#DejaVuSans-70"/>
      <use x="290.083984" xlink:href="#DejaVuSans-65"/>
     </g>
    </g>
    <g id="line2d_29">
     <path d="M 54.165625 41.16375 
L 70.165625 41.16375 
" style="fill:none;stroke:#525886;stroke-linecap:square;stroke-width:2;"/>
    </g>
    <g id="line2d_30"/>
    <g id="text_22">
     <!-- United Kingdom -->
     <g transform="translate(76.565625 43.96375)scale(0.08 -0.08)">
      <defs>
       <path d="M 556 4666 
L 1191 4666 
L 1191 1831 
Q 1191 1081 1462 751 
Q 1734 422 2344 422 
Q 2950 422 3222 751 
Q 3494 1081 3494 1831 
L 3494 4666 
L 4128 4666 
L 4128 1753 
Q 4128 841 3676 375 
Q 3225 -91 2344 -91 
Q 1459 -91 1007 375 
Q 556 841 556 1753 
L 556 4666 
z
" id="DejaVuSans-55" transform="scale(0.015625)"/>
       <path d="M 628 4666 
L 1259 4666 
L 1259 2694 
L 3353 4666 
L 4166 4666 
L 1850 2491 
L 4331 0 
L 3500 0 
L 1259 2247 
L 1259 0 
L 628 0 
L 628 4666 
z
" id="DejaVuSans-4b" transform="scale(0.015625)"/>
      </defs>
      <use xlink:href="#DejaVuSans-55"/>
      <use x="73.193359" xlink:href="#DejaVuSans-6e"/>
      <use x="136.572266" xlink:href="#DejaVuSans-69"/>
      <use x="164.355469" xlink:href="#DejaVuSans-74"/>
      <use x="203.564453" xlink:href="#DejaVuSans-65"/>
      <use x="265.087891" xlink:href="#DejaVuSans-64"/>
      <use x="328.564453" xlink:href="#DejaVuSans-20"/>
      <use x="360.351562" xlink:href="#DejaVuSans-4b"/>
      <use x="425.927734" xlink:href="#DejaVuSans-69"/>
      <use x="453.710938" xlink:href="#DejaVuSans-6e"/>
      <use x="517.089844" xlink:href="#DejaVuSans-67"/>
      <use x="580.566406" xlink:href="#DejaVuSans-64"/>
      <use x="644.042969" xlink:href="#DejaVuSans-6f"/>
      <use x="705.224609" xlink:href="#DejaVuSans-6d"/>
     </g>
    </g>
    <g id="line2d_31">
     <path d="M 54.165625 52.90625 
L 70.165625 52.90625 
" style="fill:none;stroke:#937252;stroke-linecap:square;stroke-width:2;"/>
    </g>
    <g id="line2d_32"/>
    <g id="text_23">
     <!-- South America -->
     <g transform="translate(76.565625 55.70625)scale(0.08 -0.08)">
      <defs>
       <path d="M 3425 4513 
L 3425 3897 
Q 3066 4069 2747 4153 
Q 2428 4238 2131 4238 
Q 1616 4238 1336 4038 
Q 1056 3838 1056 3469 
Q 1056 3159 1242 3001 
Q 1428 2844 1947 2747 
L 2328 2669 
Q 3034 2534 3370 2195 
Q 3706 1856 3706 1288 
Q 3706 609 3251 259 
Q 2797 -91 1919 -91 
Q 1588 -91 1214 -16 
Q 841 59 441 206 
L 441 856 
Q 825 641 1194 531 
Q 1563 422 1919 422 
Q 2459 422 2753 634 
Q 3047 847 3047 1241 
Q 3047 1584 2836 1778 
Q 2625 1972 2144 2069 
L 1759 2144 
Q 1053 2284 737 2584 
Q 422 2884 422 3419 
Q 422 4038 858 4394 
Q 1294 4750 2059 4750 
Q 2388 4750 2728 4690 
Q 3069 4631 3425 4513 
z
" id="DejaVuSans-53" transform="scale(0.015625)"/>
      </defs>
      <use xlink:href="#DejaVuSans-53"/>
      <use x="63.476562" xlink:href="#DejaVuSans-6f"/>
      <use x="124.658203" xlink:href="#DejaVuSans-75"/>
      <use x="188.037109" xlink:href="#DejaVuSans-74"/>
      <use x="227.246094" xlink:href="#DejaVuSans-68"/>
      <use x="290.625" xlink:href="#DejaVuSans-20"/>
      <use x="322.412109" xlink:href="#DejaVuSans-41"/>
      <use x="390.820312" xlink:href="#DejaVuSans-6d"/>
      <use x="488.232422" xlink:href="#DejaVuSans-65"/>
      <use x="549.755859" xlink:href="#DejaVuSans-72"/>
      <use x="590.869141" xlink:href="#DejaVuSans-69"/>
      <use x="618.652344" xlink:href="#DejaVuSans-63"/>
      <use x="673.632812" xlink:href="#DejaVuSans-61"/>
     </g>
    </g>
    <g id="line2d_33">
     <path d="M 54.165625 64.64875 
L 70.165625 64.64875 
" style="fill:none;stroke:#d18cad;stroke-linecap:square;stroke-width:2;"/>
    </g>
    <g id="line2d_34"/>
    <g id="text_24">
     <!-- Asia -->
     <g transform="translate(76.565625 67.44875)scale(0.08 -0.08)">
      <defs>
       <path d="M 2834 3397 
L 2834 2853 
Q 2591 2978 2328 3040 
Q 2066 3103 1784 3103 
Q 1356 3103 1142 2972 
Q 928 2841 928 2578 
Q 928 2378 1081 2264 
Q 1234 2150 1697 2047 
L 1894 2003 
Q 2506 1872 2764 1633 
Q 3022 1394 3022 966 
Q 3022 478 2636 193 
Q 2250 -91 1575 -91 
Q 1294 -91 989 -36 
Q 684 19 347 128 
L 347 722 
Q 666 556 975 473 
Q 1284 391 1588 391 
Q 1994 391 2212 530 
Q 2431 669 2431 922 
Q 2431 1156 2273 1281 
Q 2116 1406 1581 1522 
L 1381 1569 
Q 847 1681 609 1914 
Q 372 2147 372 2553 
Q 372 3047 722 3315 
Q 1072 3584 1716 3584 
Q 2034 3584 2315 3537 
Q 2597 3491 2834 3397 
z
" id="DejaVuSans-73" transform="scale(0.015625)"/>
      </defs>
      <use xlink:href="#DejaVuSans-41"/>
      <use x="68.408203" xlink:href="#DejaVuSans-73"/>
      <use x="120.507812" xlink:href="#DejaVuSans-69"/>
      <use x="148.291016" xlink:href="#DejaVuSans-61"/>
     </g>
    </g>
    <g id="line2d_35">
     <path d="M 54.165625 76.39125 
L 70.165625 76.39125 
" style="fill:none;stroke:#a4a86f;stroke-linecap:square;stroke-width:2;"/>
    </g>
    <g id="line2d_36"/>
    <g id="text_25">
     <!-- Africa -->
     <g transform="translate(76.565625 79.19125)scale(0.08 -0.08)">
      <defs>
       <path d="M 2375 4863 
L 2375 4384 
L 1825 4384 
Q 1516 4384 1395 4259 
Q 1275 4134 1275 3809 
L 1275 3500 
L 2222 3500 
L 2222 3053 
L 1275 3053 
L 1275 0 
L 697 0 
L 697 3053 
L 147 3053 
L 147 3500 
L 697 3500 
L 697 3744 
Q 697 4328 969 4595 
Q 1241 4863 1831 4863 
L 2375 4863 
z
" id="DejaVuSans-66" transform="scale(0.015625)"/>
      </defs>
      <use xlink:href="#DejaVuSans-41"/>
      <use x="64.783203" xlink:href="#DejaVuSans-66"/>
      <use x="99.988281" xlink:href="#DejaVuSans-72"/>
      <use x="141.101562" xlink:href="#DejaVuSans-69"/>
      <use x="168.884766" xlink:href="#DejaVuSans-63"/>
      <use x="223.865234" xlink:href="#DejaVuSans-61"/>
     </g>
    </g>
    <g id="line2d_37">
     <path d="M 54.165625 88.13375 
L 70.165625 88.13375 
" style="fill:none;stroke:#d3d3d3;stroke-linecap:square;stroke-width:2;"/>
    </g>
    <g id="line2d_38"/>
    <g id="text_26">
     <!-- Oceania -->
     <g transform="translate(76.565625 90.93375)scale(0.08 -0.08)">
      <defs>
       <path d="M 2522 4238 
Q 1834 4238 1429 3725 
Q 1025 3213 1025 2328 
Q 1025 1447 1429 934 
Q 1834 422 2522 422 
Q 3209 422 3611 934 
Q 4013 1447 4013 2328 
Q 4013 3213 3611 3725 
Q 3209 4238 2522 4238 
z
M 2522 4750 
Q 3503 4750 4090 4092 
Q 4678 3434 4678 2328 
Q 4678 1225 4090 567 
Q 3503 -91 2522 -91 
Q 1538 -91 948 565 
Q 359 1222 359 2328 
Q 359 3434 948 4092 
Q 1538 4750 2522 4750 
z
" id="DejaVuSans-4f" transform="scale(0.015625)"/>
      </defs>
      <use xlink:href="#DejaVuSans-4f"/>
      <use x="78.710938" xlink:href="#DejaVuSans-63"/>
      <use x="133.691406" xlink:href="#DejaVuSans-65"/>
      <use x="195.214844" xlink:href="#DejaVuSans-61"/>
      <use x="256.494141" xlink:href="#DejaVuSans-6e"/>
      <use x="319.873047" xlink:href="#DejaVuSans-69"/>
      <use x="347.65625" xlink:href="#DejaVuSans-61"/>
     </g>
    </g>
   </g>
  </g>
 </g>
 <defs>
  <clipPath id="pb02c72b866">
   <rect height="221.76" width="1116" x="46.965625" y="7.2"/>
  </clipPath>
 </defs>
</svg>
