<?xml version="1.0" encoding="utf-8" standalone="no"?>
<!DOCTYPE svg PUBLIC "-//W3C//DTD SVG 1.1//EN"
  "http://www.w3.org/Graphics/SVG/1.1/DTD/svg11.dtd">
<svg xmlns:xlink="http://www.w3.org/1999/xlink" width="1176.528125pt" height="298.620937pt" viewBox="0 0 1176.528125 298.620937" xmlns="http://www.w3.org/2000/svg" version="1.1">
 <metadata>
  <rdf:RDF xmlns:dc="http://purl.org/dc/elements/1.1/" xmlns:cc="http://creativecommons.org/ns#" xmlns:rdf="http://www.w3.org/1999/02/22-rdf-syntax-ns#">
   <cc:Work>
    <dc:type rdf:resource="http://purl.org/dc/dcmitype/StillImage"/>
    <dc:date>2022-06-27T19:33:25.331891</dc:date>
    <dc:format>image/svg+xml</dc:format>
    <dc:creator>
     <cc:Agent>
      <dc:title>Matplotlib v3.5.1, https://matplotlib.org/</dc:title>
     </cc:Agent>
    </dc:creator>
   </cc:Work>
  </rdf:RDF>
 </metadata>
 <defs>
  <style type="text/css">*{stroke-linejoin: round; stroke-linecap: butt}</style>
 </defs>
 <g id="figure_1">
  <g id="patch_1">
   <path d="M 0 298.620937 
L 1176.528125 298.620937 
L 1176.528125 0 
L 0 0 
z
" style="fill: #ffffff"/>
  </g>
  <g id="axes_1">
   <g id="patch_2">
    <path d="M 53.328125 228.96 
L 1169.328125 228.96 
L 1169.328125 7.2 
L 53.328125 7.2 
z
" style="fill: #ffffff"/>
   </g>
   <g id="matplotlib.axis_1">
    <g id="xtick_1">
     <g id="line2d_1">
      <defs>
       <path id="m128fd7936e" d="M 0 0 
L 0 3.5 
" style="stroke: #000000; stroke-width: 0.8"/>
      </defs>
      <g>
       <use xlink:href="#m128fd7936e" x="90.61771" y="228.96" style="stroke: #000000; stroke-width: 0.8"/>
      </g>
     </g>
     <g id="text_1">
      <!-- 2020-09 -->
      <g transform="translate(93.377085 277.742812)rotate(-90)scale(0.1 -0.1)">
       <defs>
        <path id="DejaVuSans-32" d="M 1228 531 
L 3431 531 
L 3431 0 
L 469 0 
L 469 531 
Q 828 903 1448 1529 
Q 2069 2156 2228 2338 
Q 2531 2678 2651 2914 
Q 2772 3150 2772 3378 
Q 2772 3750 2511 3984 
Q 2250 4219 1831 4219 
Q 1534 4219 1204 4116 
Q 875 4013 500 3803 
L 500 4441 
Q 881 4594 1212 4672 
Q 1544 4750 1819 4750 
Q 2544 4750 2975 4387 
Q 3406 4025 3406 3419 
Q 3406 3131 3298 2873 
Q 3191 2616 2906 2266 
Q 2828 2175 2409 1742 
Q 1991 1309 1228 531 
z
" transform="scale(0.015625)"/>
        <path id="DejaVuSans-30" d="M 2034 4250 
Q 1547 4250 1301 3770 
Q 1056 3291 1056 2328 
Q 1056 1369 1301 889 
Q 1547 409 2034 409 
Q 2525 409 2770 889 
Q 3016 1369 3016 2328 
Q 3016 3291 2770 3770 
Q 2525 4250 2034 4250 
z
M 2034 4750 
Q 2819 4750 3233 4129 
Q 3647 3509 3647 2328 
Q 3647 1150 3233 529 
Q 2819 -91 2034 -91 
Q 1250 -91 836 529 
Q 422 1150 422 2328 
Q 422 3509 836 4129 
Q 1250 4750 2034 4750 
z
" transform="scale(0.015625)"/>
        <path id="DejaVuSans-2d" d="M 313 2009 
L 1997 2009 
L 1997 1497 
L 313 1497 
L 313 2009 
z
" transform="scale(0.015625)"/>
        <path id="DejaVuSans-39" d="M 703 97 
L 703 672 
Q 941 559 1184 500 
Q 1428 441 1663 441 
Q 2288 441 2617 861 
Q 2947 1281 2994 2138 
Q 2813 1869 2534 1725 
Q 2256 1581 1919 1581 
Q 1219 1581 811 2004 
Q 403 2428 403 3163 
Q 403 3881 828 4315 
Q 1253 4750 1959 4750 
Q 2769 4750 3195 4129 
Q 3622 3509 3622 2328 
Q 3622 1225 3098 567 
Q 2575 -91 1691 -91 
Q 1453 -91 1209 -44 
Q 966 3 703 97 
z
M 1959 2075 
Q 2384 2075 2632 2365 
Q 2881 2656 2881 3163 
Q 2881 3666 2632 3958 
Q 2384 4250 1959 4250 
Q 1534 4250 1286 3958 
Q 1038 3666 1038 3163 
Q 1038 2656 1286 2365 
Q 1534 2075 1959 2075 
z
" transform="scale(0.015625)"/>
       </defs>
       <use xlink:href="#DejaVuSans-32"/>
       <use xlink:href="#DejaVuSans-30" x="63.623047"/>
       <use xlink:href="#DejaVuSans-32" x="127.246094"/>
       <use xlink:href="#DejaVuSans-30" x="190.869141"/>
       <use xlink:href="#DejaVuSans-2d" x="254.492188"/>
       <use xlink:href="#DejaVuSans-30" x="290.576172"/>
       <use xlink:href="#DejaVuSans-39" x="354.199219"/>
      </g>
     </g>
    </g>
    <g id="xtick_2">
     <g id="line2d_2">
      <g>
       <use xlink:href="#m128fd7936e" x="193.080082" y="228.96" style="stroke: #000000; stroke-width: 0.8"/>
      </g>
     </g>
     <g id="text_2">
      <!-- 2020-11 -->
      <g transform="translate(195.839457 277.742812)rotate(-90)scale(0.1 -0.1)">
       <defs>
        <path id="DejaVuSans-31" d="M 794 531 
L 1825 531 
L 1825 4091 
L 703 3866 
L 703 4441 
L 1819 4666 
L 2450 4666 
L 2450 531 
L 3481 531 
L 3481 0 
L 794 0 
L 794 531 
z
" transform="scale(0.015625)"/>
       </defs>
       <use xlink:href="#DejaVuSans-32"/>
       <use xlink:href="#DejaVuSans-30" x="63.623047"/>
       <use xlink:href="#DejaVuSans-32" x="127.246094"/>
       <use xlink:href="#DejaVuSans-30" x="190.869141"/>
       <use xlink:href="#DejaVuSans-2d" x="254.492188"/>
       <use xlink:href="#DejaVuSans-31" x="290.576172"/>
       <use xlink:href="#DejaVuSans-31" x="354.199219"/>
      </g>
     </g>
    </g>
    <g id="xtick_3">
     <g id="line2d_3">
      <g>
       <use xlink:href="#m128fd7936e" x="295.542454" y="228.96" style="stroke: #000000; stroke-width: 0.8"/>
      </g>
     </g>
     <g id="text_3">
      <!-- 2021-01 -->
      <g transform="translate(298.301829 277.742812)rotate(-90)scale(0.1 -0.1)">
       <use xlink:href="#DejaVuSans-32"/>
       <use xlink:href="#DejaVuSans-30" x="63.623047"/>
       <use xlink:href="#DejaVuSans-32" x="127.246094"/>
       <use xlink:href="#DejaVuSans-31" x="190.869141"/>
       <use xlink:href="#DejaVuSans-2d" x="254.492188"/>
       <use xlink:href="#DejaVuSans-30" x="290.576172"/>
       <use xlink:href="#DejaVuSans-31" x="354.199219"/>
      </g>
     </g>
    </g>
    <g id="xtick_4">
     <g id="line2d_4">
      <g>
       <use xlink:href="#m128fd7936e" x="394.645404" y="228.96" style="stroke: #000000; stroke-width: 0.8"/>
      </g>
     </g>
     <g id="text_4">
      <!-- 2021-03 -->
      <g transform="translate(397.404779 277.742812)rotate(-90)scale(0.1 -0.1)">
       <defs>
        <path id="DejaVuSans-33" d="M 2597 2516 
Q 3050 2419 3304 2112 
Q 3559 1806 3559 1356 
Q 3559 666 3084 287 
Q 2609 -91 1734 -91 
Q 1441 -91 1130 -33 
Q 819 25 488 141 
L 488 750 
Q 750 597 1062 519 
Q 1375 441 1716 441 
Q 2309 441 2620 675 
Q 2931 909 2931 1356 
Q 2931 1769 2642 2001 
Q 2353 2234 1838 2234 
L 1294 2234 
L 1294 2753 
L 1863 2753 
Q 2328 2753 2575 2939 
Q 2822 3125 2822 3475 
Q 2822 3834 2567 4026 
Q 2313 4219 1838 4219 
Q 1578 4219 1281 4162 
Q 984 4106 628 3988 
L 628 4550 
Q 988 4650 1302 4700 
Q 1616 4750 1894 4750 
Q 2613 4750 3031 4423 
Q 3450 4097 3450 3541 
Q 3450 3153 3228 2886 
Q 3006 2619 2597 2516 
z
" transform="scale(0.015625)"/>
       </defs>
       <use xlink:href="#DejaVuSans-32"/>
       <use xlink:href="#DejaVuSans-30" x="63.623047"/>
       <use xlink:href="#DejaVuSans-32" x="127.246094"/>
       <use xlink:href="#DejaVuSans-31" x="190.869141"/>
       <use xlink:href="#DejaVuSans-2d" x="254.492188"/>
       <use xlink:href="#DejaVuSans-30" x="290.576172"/>
       <use xlink:href="#DejaVuSans-33" x="354.199219"/>
      </g>
     </g>
    </g>
    <g id="xtick_5">
     <g id="line2d_5">
      <g>
       <use xlink:href="#m128fd7936e" x="497.107776" y="228.96" style="stroke: #000000; stroke-width: 0.8"/>
      </g>
     </g>
     <g id="text_5">
      <!-- 2021-05 -->
      <g transform="translate(499.867151 277.742812)rotate(-90)scale(0.1 -0.1)">
       <defs>
        <path id="DejaVuSans-35" d="M 691 4666 
L 3169 4666 
L 3169 4134 
L 1269 4134 
L 1269 2991 
Q 1406 3038 1543 3061 
Q 1681 3084 1819 3084 
Q 2600 3084 3056 2656 
Q 3513 2228 3513 1497 
Q 3513 744 3044 326 
Q 2575 -91 1722 -91 
Q 1428 -91 1123 -41 
Q 819 9 494 109 
L 494 744 
Q 775 591 1075 516 
Q 1375 441 1709 441 
Q 2250 441 2565 725 
Q 2881 1009 2881 1497 
Q 2881 1984 2565 2268 
Q 2250 2553 1709 2553 
Q 1456 2553 1204 2497 
Q 953 2441 691 2322 
L 691 4666 
z
" transform="scale(0.015625)"/>
       </defs>
       <use xlink:href="#DejaVuSans-32"/>
       <use xlink:href="#DejaVuSans-30" x="63.623047"/>
       <use xlink:href="#DejaVuSans-32" x="127.246094"/>
       <use xlink:href="#DejaVuSans-31" x="190.869141"/>
       <use xlink:href="#DejaVuSans-2d" x="254.492188"/>
       <use xlink:href="#DejaVuSans-30" x="290.576172"/>
       <use xlink:href="#DejaVuSans-35" x="354.199219"/>
      </g>
     </g>
    </g>
    <g id="xtick_6">
     <g id="line2d_6">
      <g>
       <use xlink:href="#m128fd7936e" x="599.570148" y="228.96" style="stroke: #000000; stroke-width: 0.8"/>
      </g>
     </g>
     <g id="text_6">
      <!-- 2021-07 -->
      <g transform="translate(602.329523 277.742812)rotate(-90)scale(0.1 -0.1)">
       <defs>
        <path id="DejaVuSans-37" d="M 525 4666 
L 3525 4666 
L 3525 4397 
L 1831 0 
L 1172 0 
L 2766 4134 
L 525 4134 
L 525 4666 
z
" transform="scale(0.015625)"/>
       </defs>
       <use xlink:href="#DejaVuSans-32"/>
       <use xlink:href="#DejaVuSans-30" x="63.623047"/>
       <use xlink:href="#DejaVuSans-32" x="127.246094"/>
       <use xlink:href="#DejaVuSans-31" x="190.869141"/>
       <use xlink:href="#DejaVuSans-2d" x="254.492188"/>
       <use xlink:href="#DejaVuSans-30" x="290.576172"/>
       <use xlink:href="#DejaVuSans-37" x="354.199219"/>
      </g>
     </g>
    </g>
    <g id="xtick_7">
     <g id="line2d_7">
      <g>
       <use xlink:href="#m128fd7936e" x="703.712231" y="228.96" style="stroke: #000000; stroke-width: 0.8"/>
      </g>
     </g>
     <g id="text_7">
      <!-- 2021-09 -->
      <g transform="translate(706.471606 277.742812)rotate(-90)scale(0.1 -0.1)">
       <use xlink:href="#DejaVuSans-32"/>
       <use xlink:href="#DejaVuSans-30" x="63.623047"/>
       <use xlink:href="#DejaVuSans-32" x="127.246094"/>
       <use xlink:href="#DejaVuSans-31" x="190.869141"/>
       <use xlink:href="#DejaVuSans-2d" x="254.492188"/>
       <use xlink:href="#DejaVuSans-30" x="290.576172"/>
       <use xlink:href="#DejaVuSans-39" x="354.199219"/>
      </g>
     </g>
    </g>
    <g id="xtick_8">
     <g id="line2d_8">
      <g>
       <use xlink:href="#m128fd7936e" x="806.174603" y="228.96" style="stroke: #000000; stroke-width: 0.8"/>
      </g>
     </g>
     <g id="text_8">
      <!-- 2021-11 -->
      <g transform="translate(808.933978 277.742812)rotate(-90)scale(0.1 -0.1)">
       <use xlink:href="#DejaVuSans-32"/>
       <use xlink:href="#DejaVuSans-30" x="63.623047"/>
       <use xlink:href="#DejaVuSans-32" x="127.246094"/>
       <use xlink:href="#DejaVuSans-31" x="190.869141"/>
       <use xlink:href="#DejaVuSans-2d" x="254.492188"/>
       <use xlink:href="#DejaVuSans-31" x="290.576172"/>
       <use xlink:href="#DejaVuSans-31" x="354.199219"/>
      </g>
     </g>
    </g>
    <g id="xtick_9">
     <g id="line2d_9">
      <g>
       <use xlink:href="#m128fd7936e" x="908.636975" y="228.96" style="stroke: #000000; stroke-width: 0.8"/>
      </g>
     </g>
     <g id="text_9">
      <!-- 2022-01 -->
      <g transform="translate(911.39635 277.742812)rotate(-90)scale(0.1 -0.1)">
       <use xlink:href="#DejaVuSans-32"/>
       <use xlink:href="#DejaVuSans-30" x="63.623047"/>
       <use xlink:href="#DejaVuSans-32" x="127.246094"/>
       <use xlink:href="#DejaVuSans-32" x="190.869141"/>
       <use xlink:href="#DejaVuSans-2d" x="254.492188"/>
       <use xlink:href="#DejaVuSans-30" x="290.576172"/>
       <use xlink:href="#DejaVuSans-31" x="354.199219"/>
      </g>
     </g>
    </g>
    <g id="xtick_10">
     <g id="line2d_10">
      <g>
       <use xlink:href="#m128fd7936e" x="1007.739925" y="228.96" style="stroke: #000000; stroke-width: 0.8"/>
      </g>
     </g>
     <g id="text_10">
      <!-- 2022-03 -->
      <g transform="translate(1010.4993 277.742812)rotate(-90)scale(0.1 -0.1)">
       <use xlink:href="#DejaVuSans-32"/>
       <use xlink:href="#DejaVuSans-30" x="63.623047"/>
       <use xlink:href="#DejaVuSans-32" x="127.246094"/>
       <use xlink:href="#DejaVuSans-32" x="190.869141"/>
       <use xlink:href="#DejaVuSans-2d" x="254.492188"/>
       <use xlink:href="#DejaVuSans-30" x="290.576172"/>
       <use xlink:href="#DejaVuSans-33" x="354.199219"/>
      </g>
     </g>
    </g>
    <g id="xtick_11">
     <g id="line2d_11">
      <g>
       <use xlink:href="#m128fd7936e" x="1110.202297" y="228.96" style="stroke: #000000; stroke-width: 0.8"/>
      </g>
     </g>
     <g id="text_11">
      <!-- 2022-05 -->
      <g transform="translate(1112.961672 277.742812)rotate(-90)scale(0.1 -0.1)">
       <use xlink:href="#DejaVuSans-32"/>
       <use xlink:href="#DejaVuSans-30" x="63.623047"/>
       <use xlink:href="#DejaVuSans-32" x="127.246094"/>
       <use xlink:href="#DejaVuSans-32" x="190.869141"/>
       <use xlink:href="#DejaVuSans-2d" x="254.492188"/>
       <use xlink:href="#DejaVuSans-30" x="290.576172"/>
       <use xlink:href="#DejaVuSans-35" x="354.199219"/>
      </g>
     </g>
    </g>
    <g id="text_12">
     <!-- Date -->
     <g transform="translate(599.377344 289.34125)scale(0.1 -0.1)">
      <defs>
       <path id="DejaVuSans-44" d="M 1259 4147 
L 1259 519 
L 2022 519 
Q 2988 519 3436 956 
Q 3884 1394 3884 2338 
Q 3884 3275 3436 3711 
Q 2988 4147 2022 4147 
L 1259 4147 
z
M 628 4666 
L 1925 4666 
Q 3281 4666 3915 4102 
Q 4550 3538 4550 2338 
Q 4550 1131 3912 565 
Q 3275 0 1925 0 
L 628 0 
L 628 4666 
z
" transform="scale(0.015625)"/>
       <path id="DejaVuSans-61" d="M 2194 1759 
Q 1497 1759 1228 1600 
Q 959 1441 959 1056 
Q 959 750 1161 570 
Q 1363 391 1709 391 
Q 2188 391 2477 730 
Q 2766 1069 2766 1631 
L 2766 1759 
L 2194 1759 
z
M 3341 1997 
L 3341 0 
L 2766 0 
L 2766 531 
Q 2569 213 2275 61 
Q 1981 -91 1556 -91 
Q 1019 -91 701 211 
Q 384 513 384 1019 
Q 384 1609 779 1909 
Q 1175 2209 1959 2209 
L 2766 2209 
L 2766 2266 
Q 2766 2663 2505 2880 
Q 2244 3097 1772 3097 
Q 1472 3097 1187 3025 
Q 903 2953 641 2809 
L 641 3341 
Q 956 3463 1253 3523 
Q 1550 3584 1831 3584 
Q 2591 3584 2966 3190 
Q 3341 2797 3341 1997 
z
" transform="scale(0.015625)"/>
       <path id="DejaVuSans-74" d="M 1172 4494 
L 1172 3500 
L 2356 3500 
L 2356 3053 
L 1172 3053 
L 1172 1153 
Q 1172 725 1289 603 
Q 1406 481 1766 481 
L 2356 481 
L 2356 0 
L 1766 0 
Q 1100 0 847 248 
Q 594 497 594 1153 
L 594 3053 
L 172 3053 
L 172 3500 
L 594 3500 
L 594 4494 
L 1172 4494 
z
" transform="scale(0.015625)"/>
       <path id="DejaVuSans-65" d="M 3597 1894 
L 3597 1613 
L 953 1613 
Q 991 1019 1311 708 
Q 1631 397 2203 397 
Q 2534 397 2845 478 
Q 3156 559 3463 722 
L 3463 178 
Q 3153 47 2828 -22 
Q 2503 -91 2169 -91 
Q 1331 -91 842 396 
Q 353 884 353 1716 
Q 353 2575 817 3079 
Q 1281 3584 2069 3584 
Q 2775 3584 3186 3129 
Q 3597 2675 3597 1894 
z
M 3022 2063 
Q 3016 2534 2758 2815 
Q 2500 3097 2075 3097 
Q 1594 3097 1305 2825 
Q 1016 2553 972 2059 
L 3022 2063 
z
" transform="scale(0.015625)"/>
      </defs>
      <use xlink:href="#DejaVuSans-44"/>
      <use xlink:href="#DejaVuSans-61" x="77.001953"/>
      <use xlink:href="#DejaVuSans-74" x="138.28125"/>
      <use xlink:href="#DejaVuSans-65" x="177.490234"/>
     </g>
    </g>
   </g>
   <g id="matplotlib.axis_2">
    <g id="ytick_1">
     <g id="line2d_12">
      <defs>
       <path id="mc753d96515" d="M 0 0 
L -3.5 0 
" style="stroke: #000000; stroke-width: 0.8"/>
      </defs>
      <g>
       <use xlink:href="#mc753d96515" x="53.328125" y="228.96" style="stroke: #000000; stroke-width: 0.8"/>
      </g>
     </g>
     <g id="text_13">
      <!-- 1 -->
      <g transform="translate(39.965625 232.759219)scale(0.1 -0.1)">
       <use xlink:href="#DejaVuSans-31"/>
      </g>
     </g>
    </g>
    <g id="ytick_2">
     <g id="line2d_13">
      <g>
       <use xlink:href="#mc753d96515" x="53.328125" y="200.462458" style="stroke: #000000; stroke-width: 0.8"/>
      </g>
     </g>
     <g id="text_14">
      <!-- 3 -->
      <g transform="translate(39.965625 204.261677)scale(0.1 -0.1)">
       <use xlink:href="#DejaVuSans-33"/>
      </g>
     </g>
    </g>
    <g id="ytick_3">
     <g id="line2d_14">
      <g>
       <use xlink:href="#mc753d96515" x="53.328125" y="171.964916" style="stroke: #000000; stroke-width: 0.8"/>
      </g>
     </g>
     <g id="text_15">
      <!-- 10 -->
      <g transform="translate(33.603125 175.764134)scale(0.1 -0.1)">
       <use xlink:href="#DejaVuSans-31"/>
       <use xlink:href="#DejaVuSans-30" x="63.623047"/>
      </g>
     </g>
    </g>
    <g id="ytick_4">
     <g id="line2d_15">
      <g>
       <use xlink:href="#mc753d96515" x="53.328125" y="143.467373" style="stroke: #000000; stroke-width: 0.8"/>
      </g>
     </g>
     <g id="text_16">
      <!-- 31 -->
      <g transform="translate(33.603125 147.266592)scale(0.1 -0.1)">
       <use xlink:href="#DejaVuSans-33"/>
       <use xlink:href="#DejaVuSans-31" x="63.623047"/>
      </g>
     </g>
    </g>
    <g id="ytick_5">
     <g id="line2d_16">
      <g>
       <use xlink:href="#mc753d96515" x="53.328125" y="114.969831" style="stroke: #000000; stroke-width: 0.8"/>
      </g>
     </g>
     <g id="text_17">
      <!-- 100 -->
      <g transform="translate(27.240625 118.76905)scale(0.1 -0.1)">
       <use xlink:href="#DejaVuSans-31"/>
       <use xlink:href="#DejaVuSans-30" x="63.623047"/>
       <use xlink:href="#DejaVuSans-30" x="127.246094"/>
      </g>
     </g>
    </g>
    <g id="ytick_6">
     <g id="line2d_17">
      <g>
       <use xlink:href="#mc753d96515" x="53.328125" y="86.472289" style="stroke: #000000; stroke-width: 0.8"/>
      </g>
     </g>
     <g id="text_18">
      <!-- 316 -->
      <g transform="translate(27.240625 90.271508)scale(0.1 -0.1)">
       <defs>
        <path id="DejaVuSans-36" d="M 2113 2584 
Q 1688 2584 1439 2293 
Q 1191 2003 1191 1497 
Q 1191 994 1439 701 
Q 1688 409 2113 409 
Q 2538 409 2786 701 
Q 3034 994 3034 1497 
Q 3034 2003 2786 2293 
Q 2538 2584 2113 2584 
z
M 3366 4563 
L 3366 3988 
Q 3128 4100 2886 4159 
Q 2644 4219 2406 4219 
Q 1781 4219 1451 3797 
Q 1122 3375 1075 2522 
Q 1259 2794 1537 2939 
Q 1816 3084 2150 3084 
Q 2853 3084 3261 2657 
Q 3669 2231 3669 1497 
Q 3669 778 3244 343 
Q 2819 -91 2113 -91 
Q 1303 -91 875 529 
Q 447 1150 447 2328 
Q 447 3434 972 4092 
Q 1497 4750 2381 4750 
Q 2619 4750 2861 4703 
Q 3103 4656 3366 4563 
z
" transform="scale(0.015625)"/>
       </defs>
       <use xlink:href="#DejaVuSans-33"/>
       <use xlink:href="#DejaVuSans-31" x="63.623047"/>
       <use xlink:href="#DejaVuSans-36" x="127.246094"/>
      </g>
     </g>
    </g>
    <g id="ytick_7">
     <g id="line2d_18">
      <g>
       <use xlink:href="#mc753d96515" x="53.328125" y="57.974747" style="stroke: #000000; stroke-width: 0.8"/>
      </g>
     </g>
     <g id="text_19">
      <!-- 1000 -->
      <g transform="translate(20.878125 61.773966)scale(0.1 -0.1)">
       <use xlink:href="#DejaVuSans-31"/>
       <use xlink:href="#DejaVuSans-30" x="63.623047"/>
       <use xlink:href="#DejaVuSans-30" x="127.246094"/>
       <use xlink:href="#DejaVuSans-30" x="190.869141"/>
      </g>
     </g>
    </g>
    <g id="ytick_8">
     <g id="line2d_19">
      <g>
       <use xlink:href="#mc753d96515" x="53.328125" y="29.477205" style="stroke: #000000; stroke-width: 0.8"/>
      </g>
     </g>
     <g id="text_20">
      <!-- 3162 -->
      <g transform="translate(20.878125 33.276423)scale(0.1 -0.1)">
       <use xlink:href="#DejaVuSans-33"/>
       <use xlink:href="#DejaVuSans-31" x="63.623047"/>
       <use xlink:href="#DejaVuSans-36" x="127.246094"/>
       <use xlink:href="#DejaVuSans-32" x="190.869141"/>
      </g>
     </g>
    </g>
    <g id="text_21">
     <!-- Count (7 day rolling average) -->
     <g transform="translate(14.798437 191.547969)rotate(-90)scale(0.1 -0.1)">
      <defs>
       <path id="DejaVuSans-43" d="M 4122 4306 
L 4122 3641 
Q 3803 3938 3442 4084 
Q 3081 4231 2675 4231 
Q 1875 4231 1450 3742 
Q 1025 3253 1025 2328 
Q 1025 1406 1450 917 
Q 1875 428 2675 428 
Q 3081 428 3442 575 
Q 3803 722 4122 1019 
L 4122 359 
Q 3791 134 3420 21 
Q 3050 -91 2638 -91 
Q 1578 -91 968 557 
Q 359 1206 359 2328 
Q 359 3453 968 4101 
Q 1578 4750 2638 4750 
Q 3056 4750 3426 4639 
Q 3797 4528 4122 4306 
z
" transform="scale(0.015625)"/>
       <path id="DejaVuSans-6f" d="M 1959 3097 
Q 1497 3097 1228 2736 
Q 959 2375 959 1747 
Q 959 1119 1226 758 
Q 1494 397 1959 397 
Q 2419 397 2687 759 
Q 2956 1122 2956 1747 
Q 2956 2369 2687 2733 
Q 2419 3097 1959 3097 
z
M 1959 3584 
Q 2709 3584 3137 3096 
Q 3566 2609 3566 1747 
Q 3566 888 3137 398 
Q 2709 -91 1959 -91 
Q 1206 -91 779 398 
Q 353 888 353 1747 
Q 353 2609 779 3096 
Q 1206 3584 1959 3584 
z
" transform="scale(0.015625)"/>
       <path id="DejaVuSans-75" d="M 544 1381 
L 544 3500 
L 1119 3500 
L 1119 1403 
Q 1119 906 1312 657 
Q 1506 409 1894 409 
Q 2359 409 2629 706 
Q 2900 1003 2900 1516 
L 2900 3500 
L 3475 3500 
L 3475 0 
L 2900 0 
L 2900 538 
Q 2691 219 2414 64 
Q 2138 -91 1772 -91 
Q 1169 -91 856 284 
Q 544 659 544 1381 
z
M 1991 3584 
L 1991 3584 
z
" transform="scale(0.015625)"/>
       <path id="DejaVuSans-6e" d="M 3513 2113 
L 3513 0 
L 2938 0 
L 2938 2094 
Q 2938 2591 2744 2837 
Q 2550 3084 2163 3084 
Q 1697 3084 1428 2787 
Q 1159 2491 1159 1978 
L 1159 0 
L 581 0 
L 581 3500 
L 1159 3500 
L 1159 2956 
Q 1366 3272 1645 3428 
Q 1925 3584 2291 3584 
Q 2894 3584 3203 3211 
Q 3513 2838 3513 2113 
z
" transform="scale(0.015625)"/>
       <path id="DejaVuSans-20" transform="scale(0.015625)"/>
       <path id="DejaVuSans-28" d="M 1984 4856 
Q 1566 4138 1362 3434 
Q 1159 2731 1159 2009 
Q 1159 1288 1364 580 
Q 1569 -128 1984 -844 
L 1484 -844 
Q 1016 -109 783 600 
Q 550 1309 550 2009 
Q 550 2706 781 3412 
Q 1013 4119 1484 4856 
L 1984 4856 
z
" transform="scale(0.015625)"/>
       <path id="DejaVuSans-64" d="M 2906 2969 
L 2906 4863 
L 3481 4863 
L 3481 0 
L 2906 0 
L 2906 525 
Q 2725 213 2448 61 
Q 2172 -91 1784 -91 
Q 1150 -91 751 415 
Q 353 922 353 1747 
Q 353 2572 751 3078 
Q 1150 3584 1784 3584 
Q 2172 3584 2448 3432 
Q 2725 3281 2906 2969 
z
M 947 1747 
Q 947 1113 1208 752 
Q 1469 391 1925 391 
Q 2381 391 2643 752 
Q 2906 1113 2906 1747 
Q 2906 2381 2643 2742 
Q 2381 3103 1925 3103 
Q 1469 3103 1208 2742 
Q 947 2381 947 1747 
z
" transform="scale(0.015625)"/>
       <path id="DejaVuSans-79" d="M 2059 -325 
Q 1816 -950 1584 -1140 
Q 1353 -1331 966 -1331 
L 506 -1331 
L 506 -850 
L 844 -850 
Q 1081 -850 1212 -737 
Q 1344 -625 1503 -206 
L 1606 56 
L 191 3500 
L 800 3500 
L 1894 763 
L 2988 3500 
L 3597 3500 
L 2059 -325 
z
" transform="scale(0.015625)"/>
       <path id="DejaVuSans-72" d="M 2631 2963 
Q 2534 3019 2420 3045 
Q 2306 3072 2169 3072 
Q 1681 3072 1420 2755 
Q 1159 2438 1159 1844 
L 1159 0 
L 581 0 
L 581 3500 
L 1159 3500 
L 1159 2956 
Q 1341 3275 1631 3429 
Q 1922 3584 2338 3584 
Q 2397 3584 2469 3576 
Q 2541 3569 2628 3553 
L 2631 2963 
z
" transform="scale(0.015625)"/>
       <path id="DejaVuSans-6c" d="M 603 4863 
L 1178 4863 
L 1178 0 
L 603 0 
L 603 4863 
z
" transform="scale(0.015625)"/>
       <path id="DejaVuSans-69" d="M 603 3500 
L 1178 3500 
L 1178 0 
L 603 0 
L 603 3500 
z
M 603 4863 
L 1178 4863 
L 1178 4134 
L 603 4134 
L 603 4863 
z
" transform="scale(0.015625)"/>
       <path id="DejaVuSans-67" d="M 2906 1791 
Q 2906 2416 2648 2759 
Q 2391 3103 1925 3103 
Q 1463 3103 1205 2759 
Q 947 2416 947 1791 
Q 947 1169 1205 825 
Q 1463 481 1925 481 
Q 2391 481 2648 825 
Q 2906 1169 2906 1791 
z
M 3481 434 
Q 3481 -459 3084 -895 
Q 2688 -1331 1869 -1331 
Q 1566 -1331 1297 -1286 
Q 1028 -1241 775 -1147 
L 775 -588 
Q 1028 -725 1275 -790 
Q 1522 -856 1778 -856 
Q 2344 -856 2625 -561 
Q 2906 -266 2906 331 
L 2906 616 
Q 2728 306 2450 153 
Q 2172 0 1784 0 
Q 1141 0 747 490 
Q 353 981 353 1791 
Q 353 2603 747 3093 
Q 1141 3584 1784 3584 
Q 2172 3584 2450 3431 
Q 2728 3278 2906 2969 
L 2906 3500 
L 3481 3500 
L 3481 434 
z
" transform="scale(0.015625)"/>
       <path id="DejaVuSans-76" d="M 191 3500 
L 800 3500 
L 1894 563 
L 2988 3500 
L 3597 3500 
L 2284 0 
L 1503 0 
L 191 3500 
z
" transform="scale(0.015625)"/>
       <path id="DejaVuSans-29" d="M 513 4856 
L 1013 4856 
Q 1481 4119 1714 3412 
Q 1947 2706 1947 2009 
Q 1947 1309 1714 600 
Q 1481 -109 1013 -844 
L 513 -844 
Q 928 -128 1133 580 
Q 1338 1288 1338 2009 
Q 1338 2731 1133 3434 
Q 928 4138 513 4856 
z
" transform="scale(0.015625)"/>
      </defs>
      <use xlink:href="#DejaVuSans-43"/>
      <use xlink:href="#DejaVuSans-6f" x="69.824219"/>
      <use xlink:href="#DejaVuSans-75" x="131.005859"/>
      <use xlink:href="#DejaVuSans-6e" x="194.384766"/>
      <use xlink:href="#DejaVuSans-74" x="257.763672"/>
      <use xlink:href="#DejaVuSans-20" x="296.972656"/>
      <use xlink:href="#DejaVuSans-28" x="328.759766"/>
      <use xlink:href="#DejaVuSans-37" x="367.773438"/>
      <use xlink:href="#DejaVuSans-20" x="431.396484"/>
      <use xlink:href="#DejaVuSans-64" x="463.183594"/>
      <use xlink:href="#DejaVuSans-61" x="526.660156"/>
      <use xlink:href="#DejaVuSans-79" x="587.939453"/>
      <use xlink:href="#DejaVuSans-20" x="647.119141"/>
      <use xlink:href="#DejaVuSans-72" x="678.90625"/>
      <use xlink:href="#DejaVuSans-6f" x="717.769531"/>
      <use xlink:href="#DejaVuSans-6c" x="778.951172"/>
      <use xlink:href="#DejaVuSans-6c" x="806.734375"/>
      <use xlink:href="#DejaVuSans-69" x="834.517578"/>
      <use xlink:href="#DejaVuSans-6e" x="862.300781"/>
      <use xlink:href="#DejaVuSans-67" x="925.679688"/>
      <use xlink:href="#DejaVuSans-20" x="989.15625"/>
      <use xlink:href="#DejaVuSans-61" x="1020.943359"/>
      <use xlink:href="#DejaVuSans-76" x="1082.222656"/>
      <use xlink:href="#DejaVuSans-65" x="1141.402344"/>
      <use xlink:href="#DejaVuSans-72" x="1202.925781"/>
      <use xlink:href="#DejaVuSans-61" x="1244.039062"/>
      <use xlink:href="#DejaVuSans-67" x="1305.318359"/>
      <use xlink:href="#DejaVuSans-65" x="1368.794922"/>
      <use xlink:href="#DejaVuSans-29" x="1430.318359"/>
     </g>
    </g>
   </g>
   <g id="line2d_20">
    <path d="M 132.610485 220.13135 
L 134.290196 222.739302 
L 135.969907 225.654744 
L 137.649618 225.654744 
L 139.329329 222.739302 
L 141.00904 220.13135 
L 149.407595 220.13135 
L 151.087306 225.654744 
L 156.126439 225.654744 
L 157.80615 217.77217 
L 162.845283 217.77217 
L 164.524994 213.637139 
L 167.884416 213.637139 
L 169.564127 220.13135 
L 172.923549 220.13135 
L 174.60326 198.461178 
L 176.282971 194.64554 
L 177.962682 189.839664 
L 179.642394 186.443573 
L 181.322105 185.81689 
L 183.001816 184.609204 
L 184.681527 184.609204 
L 186.361238 194.64554 
L 188.040949 186.443573 
L 189.72066 185.205682 
L 191.400371 185.81689 
L 193.080082 168.971018 
L 194.759793 157.415638 
L 196.439504 156.077331 
L 198.119215 155.343865 
L 199.798926 145.247377 
L 201.478637 143.063593 
L 203.158348 143.395848 
L 204.838059 137.299348 
L 206.51777 137.917094 
L 208.197481 137.039248 
L 209.877192 133.658641 
L 211.556903 129.575751 
L 213.236614 121.165285 
L 214.916325 115.906725 
L 216.596036 116.314032 
L 218.275747 117.265443 
L 219.955458 114.101228 
L 221.635169 112.323013 
L 223.31488 114.75857 
L 224.994591 120.273201 
L 226.674302 120.581786 
L 228.354013 113.829591 
L 230.033724 112.93422 
L 231.713435 115.218604 
L 233.393146 117.775017 
L 235.072857 116.463822 
L 236.752568 114.514356 
L 238.432279 115.980284 
L 240.11199 124.882713 
L 243.471412 124.568056 
L 245.151123 122.470812 
L 246.830834 124.672498 
L 248.510545 120.581786 
L 250.190256 119.667336 
L 251.869967 119.539415 
L 253.549678 109.960945 
L 255.229389 104.51276 
L 256.9091 101.422822 
L 258.588811 87.056053 
L 260.268522 84.409205 
L 261.948233 82.262302 
L 263.627944 77.921326 
L 265.307655 75.01908 
L 268.667077 68.152932 
L 270.346788 68.104967 
L 272.026499 64.963977 
L 273.70621 63.773717 
L 275.385922 63.97567 
L 277.065633 63.813976 
L 278.745344 64.978051 
L 280.425055 66.617191 
L 282.104766 69.721997 
L 283.784477 74.600243 
L 285.464188 72.459751 
L 287.143899 71.342621 
L 288.82361 72.295239 
L 290.503321 67.016477 
L 292.183032 64.889054 
L 293.862743 62.467894 
L 295.542454 61.12691 
L 297.222165 58.049116 
L 298.901876 55.861093 
L 300.581587 52.962972 
L 302.261298 53.160136 
L 303.941009 53.627375 
L 305.62072 53.215508 
L 307.300431 50.913154 
L 308.980142 50.762085 
L 310.659853 50.822931 
L 312.339564 49.976716 
L 314.019275 47.790339 
L 317.378697 44.786269 
L 319.058408 43.587084 
L 320.738119 44.161194 
L 322.41783 43.425469 
L 324.097541 43.085985 
L 325.777252 43.553492 
L 327.456963 42.973851 
L 329.136674 43.331352 
L 332.496096 42.758743 
L 334.175807 43.435293 
L 335.855518 40.639585 
L 337.535229 39.325218 
L 339.21494 37.581976 
L 344.254073 33.452076 
L 345.933784 33.167485 
L 347.613495 35.484386 
L 350.972917 39.495593 
L 352.652628 40.805144 
L 354.332339 43.975705 
L 356.01205 46.462764 
L 357.691761 46.529483 
L 361.051183 44.577524 
L 362.730894 43.239542 
L 364.410605 42.560659 
L 366.090316 41.182646 
L 367.770027 40.68175 
L 369.449738 39.46879 
L 371.12945 38.024964 
L 372.809161 37.002384 
L 374.488872 37.388806 
L 377.848294 37.800131 
L 381.207716 37.041818 
L 382.887427 38.119911 
L 384.567138 38.886348 
L 386.246849 38.783534 
L 387.92656 36.416805 
L 389.606271 36.473112 
L 391.285982 36.990263 
L 392.965693 38.015489 
L 394.645404 38.123082 
L 398.004826 37.402664 
L 399.684537 40.254654 
L 401.364248 40.310022 
L 403.043959 40.504788 
L 404.72367 41.693888 
L 406.403381 41.957226 
L 408.083092 41.853767 
L 409.762803 40.41417 
L 411.442514 38.157992 
L 413.122225 37.428861 
L 414.801936 36.292791 
L 418.161358 33.498074 
L 419.841069 32.950378 
L 423.200491 35.89688 
L 424.880202 37.111741 
L 426.559913 37.0039 
L 429.919335 36.52806 
L 431.599046 36.762585 
L 433.278757 36.498343 
L 434.958468 35.773995 
L 436.638179 34.876169 
L 439.997601 36.21633 
L 441.677312 37.873802 
L 443.357023 38.577565 
L 445.036734 39.0241 
L 448.396156 41.877746 
L 450.075867 42.777873 
L 451.755578 43.895489 
L 453.435289 45.994162 
L 455.115 47.52463 
L 456.794711 48.745881 
L 458.474422 50.625068 
L 460.154133 51.778814 
L 461.833844 53.722486 
L 463.513555 54.753172 
L 465.193266 55.39156 
L 466.872977 56.352949 
L 468.552689 56.827754 
L 470.2324 56.469135 
L 471.912111 56.746863 
L 473.591822 56.316545 
L 475.271533 56.848018 
L 476.951244 56.559139 
L 478.630955 57.232791 
L 480.310666 57.37044 
L 481.990377 57.153988 
L 483.670088 57.477647 
L 485.349799 58.366806 
L 487.02951 59.036821 
L 488.709221 59.229507 
L 490.388932 59.09965 
L 493.748354 60.649582 
L 497.107776 60.819568 
L 498.787487 61.199309 
L 500.467198 63.335135 
L 505.506331 63.818453 
L 507.186042 64.444218 
L 508.865753 64.531626 
L 510.545464 64.444218 
L 512.225175 63.930649 
L 515.584597 66.155254 
L 517.264308 67.661719 
L 518.944019 68.867313 
L 520.62373 69.7789 
L 522.303441 70.355239 
L 523.983152 71.494796 
L 525.662863 73.194267 
L 527.342574 73.569864 
L 529.022285 74.236075 
L 530.701996 75.061356 
L 534.061418 75.574382 
L 535.741129 76.476178 
L 537.42084 77.096161 
L 539.100551 77.929243 
L 540.780262 78.120015 
L 542.459973 77.296028 
L 545.819395 77.794996 
L 547.499106 79.163073 
L 549.178817 78.840585 
L 550.858528 79.975263 
L 552.538239 80.948832 
L 554.21795 81.693465 
L 555.897661 81.555567 
L 557.577372 81.869246 
L 559.257083 81.776574 
L 560.936794 84.051723 
L 562.616505 85.524472 
L 564.296217 88.408993 
L 565.975928 92.049913 
L 567.655639 96.706153 
L 569.33535 100.836574 
L 571.015061 106.565594 
L 572.694772 108.997905 
L 574.374483 112.386644 
L 576.054194 113.66132 
L 577.733905 114.169606 
L 579.413616 114.169606 
L 581.093327 113.627802 
L 582.773038 113.795845 
L 584.452749 115.111681 
L 586.13246 117.695935 
L 589.491882 119.838932 
L 591.171593 118.826758 
L 592.851304 118.416937 
L 594.531015 118.785469 
L 596.210726 119.925179 
L 597.890437 120.849385 
L 599.570148 121.949684 
L 602.92957 125.041554 
L 604.609281 126.688679 
L 606.288992 128.945879 
L 607.968703 131.706326 
L 609.648414 131.49861 
L 611.328125 134.037709 
L 613.007836 137.386659 
L 614.687547 140.160377 
L 616.367258 143.17385 
L 618.046969 145.488868 
L 619.72668 146.860902 
L 621.406391 154.985125 
L 623.086102 160.777086 
L 624.765813 159.892969 
L 626.445524 163.890211 
L 628.125235 166.869532 
L 629.804946 172.321075 
L 631.484657 177.050199 
L 633.164368 170.589414 
L 634.844079 170.589414 
L 636.52379 173.421374 
L 638.203501 172.682434 
L 639.883212 168.65966 
L 641.562923 168.971018 
L 643.242634 163.385038 
L 644.922345 154.282875 
L 646.602056 152.772075 
L 648.281767 154.456578 
L 649.961478 154.807686 
L 651.641189 157.811688 
L 653.3209 157.811688 
L 655.000611 163.385038 
L 656.680322 187.086535 
L 658.360033 194.64554 
L 660.039745 195.545736 
L 661.719456 197.450725 
L 665.078878 197.450725 
L 666.758589 201.766434 
L 670.118011 204.243765 
L 671.797722 208.497514 
L 673.477433 205.582072 
L 675.157144 210.095014 
L 676.836855 213.637139 
L 678.516566 208.497514 
L 680.196277 210.095014 
L 681.875988 210.095014 
L 683.555699 208.497514 
L 685.23541 210.095014 
L 686.915121 206.996894 
L 688.594832 201.766434 
L 690.274543 199.514641 
L 691.954254 198.461178 
L 695.313676 200.61494 
L 698.673098 200.61494 
L 700.352809 205.582072 
L 702.03252 210.095014 
L 703.712231 210.095014 
L 705.391942 208.497514 
L 707.071653 208.497514 
L 710.431075 211.80277 
L 712.110786 210.095014 
L 713.790497 210.095014 
L 715.470208 211.80277 
L 723.868763 211.80277 
L 725.548474 215.618408 
L 727.228185 211.80277 
L 728.907896 211.80277 
L 730.587607 210.095014 
L 732.267318 210.095014 
L 733.947029 211.80277 
L 735.62674 217.77217 
L 737.306451 215.618408 
L 738.986162 211.80277 
L 740.665873 211.80277 
L 742.345584 208.497514 
L 747.384717 208.497514 
L 749.064428 210.095014 
L 750.744139 217.77217 
L 752.42385 220.13135 
L 754.103561 228.96 
L 757.462984 228.96 
L 759.142695 225.654744 
L 762.502117 225.654744 
L 764.181828 222.739302 
L 765.861539 215.618408 
L 767.54125 213.637139 
L 774.260094 213.637139 
L 775.939805 215.618408 
L 777.619516 222.739302 
L 779.299227 225.654744 
L 780.978938 225.654744 
L 782.658649 222.739302 
L 792.736915 222.739302 
L 794.416626 228.96 
L 796.096337 222.739302 
L 797.776048 220.13135 
L 799.455759 215.618408 
L 801.13547 215.618408 
L 802.815181 213.637139 
L 806.174603 213.637139 
L 807.854314 217.77217 
L 809.534025 220.13135 
L 811.213736 225.654744 
L 812.893447 225.654744 
L 814.573158 228.96 
L 819.612291 228.96 
L 821.292002 225.654744 
L 839.768823 225.654744 
L 841.448534 217.77217 
L 843.128245 217.77217 
L 844.807956 220.13135 
L 848.167378 220.13135 
L 849.847089 217.77217 
L 851.5268 217.77217 
L 853.206512 225.654744 
L 859.925356 225.654744 
L 861.605067 228.96 
L 863.284778 228.96 
L 864.964489 225.654744 
L 875.042755 225.654744 
L 876.722466 228.96 
L 920.394952 228.96 
L 922.074663 225.654744 
L 932.152929 225.654744 
L 933.83264 228.96 
L 953.989173 228.96 
L 955.668884 225.654744 
L 957.348595 225.654744 
L 959.028306 222.739302 
L 960.708017 222.739302 
L 962.387728 220.13135 
L 965.74715 220.13135 
L 967.426861 222.739302 
L 969.106572 220.13135 
L 970.786283 217.77217 
L 972.465994 217.77217 
L 974.145705 220.13135 
L 979.184838 220.13135 
L 980.864549 222.739302 
L 982.54426 228.96 
L 1009.419636 228.96 
L 1011.099347 225.654744 
L 1011.099347 225.654744 
" clip-path="url(#pb231061a3e)" style="fill: none; stroke: #947383; stroke-width: 2; stroke-linecap: square"/>
   </g>
   <g id="line2d_21">
    <path d="M 104.055398 222.739302 
L 105.735109 228.96 
L 151.087306 228.96 
L 152.767017 225.654744 
L 154.446728 222.739302 
L 156.126439 222.739302 
L 157.80615 217.77217 
L 161.165572 217.77217 
L 162.845283 215.618408 
L 164.524994 217.77217 
L 166.204705 220.13135 
L 167.884416 220.13135 
L 169.564127 225.654744 
L 171.243838 222.739302 
L 172.923549 222.739302 
L 174.60326 225.654744 
L 177.962682 225.654744 
L 179.642394 222.739302 
L 181.322105 222.739302 
L 183.001816 225.654744 
L 184.681527 220.13135 
L 186.361238 217.77217 
L 189.72066 217.77217 
L 191.400371 220.13135 
L 194.759793 220.13135 
L 196.439504 217.77217 
L 199.798926 217.77217 
L 201.478637 211.80277 
L 203.158348 211.80277 
L 204.838059 204.243765 
L 206.51777 189.122146 
L 208.197481 191.340284 
L 209.877192 192.126149 
L 211.556903 189.839664 
L 213.236614 190.578604 
L 214.916325 190.578604 
L 216.596036 194.64554 
L 218.275747 211.80277 
L 219.955458 208.497514 
L 221.635169 208.497514 
L 223.31488 210.095014 
L 224.994591 213.637139 
L 228.354013 213.637139 
L 230.033724 210.095014 
L 231.713435 210.095014 
L 233.393146 205.582072 
L 235.072857 208.497514 
L 236.752568 208.497514 
L 238.432279 205.582072 
L 240.11199 204.243765 
L 241.791701 192.126149 
L 243.471412 192.937784 
L 246.830834 192.937784 
L 248.510545 192.126149 
L 251.869967 193.776937 
L 253.549678 189.839664 
L 255.229389 189.839664 
L 256.9091 190.578604 
L 258.588811 184.609204 
L 260.268522 183.45771 
L 261.948233 180.793566 
L 263.627944 177.48831 
L 265.307655 168.65966 
L 266.987366 164.667846 
L 268.667077 160.111055 
L 270.346788 158.623324 
L 272.026499 154.456578 
L 273.70621 152.288294 
L 275.385922 148.586987 
L 277.065633 137.562211 
L 278.745344 132.411578 
L 280.425055 129.385101 
L 282.104766 127.970279 
L 283.784477 128.150299 
L 285.464188 126.462626 
L 287.143899 126.182932 
L 288.82361 121.949684 
L 290.503321 119.28554 
L 292.183032 117.110738 
L 293.862743 115.433845 
L 295.542454 114.479664 
L 297.222165 113.795845 
L 298.901876 111.602771 
L 300.581587 108.448434 
L 302.261298 106.793264 
L 303.941009 105.943948 
L 305.62072 101.752313 
L 307.300431 97.883424 
L 308.980142 96.773876 
L 310.659853 95.842215 
L 312.339564 91.331994 
L 314.019275 90.647546 
L 315.698986 89.070737 
L 317.378697 88.578865 
L 319.058408 87.251454 
L 320.738119 86.178766 
L 322.41783 85.94779 
L 324.097541 82.537387 
L 327.456963 79.498253 
L 330.816385 77.818634 
L 332.496096 77.404321 
L 334.175807 76.867532 
L 339.21494 70.749033 
L 342.574362 67.4016 
L 344.254073 66.853964 
L 345.933784 66.602155 
L 347.613495 63.238719 
L 350.972917 57.92882 
L 352.652628 56.105799 
L 354.332339 55.147471 
L 357.691761 53.832916 
L 359.371472 50.488804 
L 361.051183 49.522712 
L 362.730894 49.208056 
L 364.410605 48.714239 
L 366.090316 47.372092 
L 367.770027 46.963061 
L 369.449738 46.933616 
L 371.12945 44.759302 
L 372.809161 43.739811 
L 374.488872 42.894889 
L 376.168583 41.525937 
L 377.848294 40.996737 
L 379.528005 40.920276 
L 381.207716 40.593987 
L 382.887427 38.687635 
L 384.567138 38.119911 
L 386.246849 36.496858 
L 387.92656 35.965091 
L 389.606271 35.229144 
L 391.285982 34.862265 
L 392.965693 34.360054 
L 394.645404 33.09361 
L 396.325115 31.340256 
L 398.004826 30.627251 
L 399.684537 30.151581 
L 403.043959 28.69568 
L 404.72367 28.350312 
L 406.403381 26.633368 
L 408.083092 26.179994 
L 409.762803 25.472769 
L 411.442514 24.384176 
L 413.122225 23.838616 
L 416.481647 23.331851 
L 419.841069 21.307537 
L 421.52078 21.088252 
L 423.200491 20.154728 
L 424.880202 20.065883 
L 426.559913 20.14629 
L 428.239624 20.001745 
L 429.919335 19.727981 
L 431.599046 20.338019 
L 433.278757 20.615526 
L 434.958468 21.050832 
L 436.638179 20.44337 
L 438.31789 20.409237 
L 441.677312 20.695389 
L 443.357023 19.93397 
L 445.036734 20.046777 
L 446.716445 20.425522 
L 448.396156 21.754478 
L 451.755578 21.662974 
L 453.435289 24.594426 
L 455.115 25.38731 
L 456.794711 24.796294 
L 458.474422 23.971645 
L 460.154133 22.471973 
L 461.833844 21.671946 
L 463.513555 21.482594 
L 465.193266 18.692593 
L 466.872977 17.76 
L 468.552689 17.822069 
L 470.2324 18.159534 
L 471.912111 17.971252 
L 473.591822 18.234681 
L 475.271533 18.29653 
L 476.951244 19.0591 
L 478.630955 19.460195 
L 480.310666 19.429626 
L 481.990377 19.232209 
L 483.670088 19.361168 
L 485.349799 19.230731 
L 487.02951 19.311432 
L 488.709221 18.845676 
L 490.388932 18.754147 
L 492.068643 19.092155 
L 493.748354 19.156924 
L 495.428065 19.360425 
L 497.107776 19.961362 
L 498.787487 19.899772 
L 500.467198 19.422176 
L 502.146909 20.281655 
L 503.82662 20.155496 
L 505.506331 20.51567 
L 507.186042 20.580374 
L 508.865753 20.341111 
L 510.545464 20.408461 
L 512.225175 20.902505 
L 513.904886 21.007114 
L 515.584597 21.732389 
L 517.264308 23.248244 
L 518.944019 23.914418 
L 520.62373 23.959115 
L 522.303441 24.14052 
L 525.662863 24.211828 
L 527.342574 24.500964 
L 529.022285 24.202791 
L 530.701996 24.774091 
L 532.381707 25.467062 
L 534.061418 25.91229 
L 535.741129 28.076177 
L 537.42084 28.864189 
L 539.100551 28.876191 
L 540.780262 29.414601 
L 542.459973 30.330334 
L 544.139684 30.533717 
L 545.819395 30.566413 
L 547.499106 31.721747 
L 550.858528 35.129184 
L 552.538239 36.045152 
L 554.21795 36.755082 
L 555.897661 37.122399 
L 557.577372 37.650332 
L 559.257083 41.01277 
L 560.936794 41.077007 
L 562.616505 41.5496 
L 565.975928 42.064839 
L 567.655639 42.881433 
L 569.33535 43.307879 
L 571.015061 47.215909 
L 572.694772 49.821062 
L 574.374483 51.94455 
L 576.054194 53.382371 
L 577.733905 55.445776 
L 579.413616 55.968466 
L 581.093327 56.086133 
L 582.773038 60.038663 
L 586.13246 60.270358 
L 587.812171 62.131004 
L 589.491882 63.449568 
L 591.171593 64.407506 
L 592.851304 64.64248 
L 594.531015 66.31323 
L 596.210726 68.839874 
L 597.890437 70.802411 
L 601.249859 71.988138 
L 602.92957 71.882477 
L 604.609281 72.383687 
L 607.968703 74.236075 
L 609.648414 74.48285 
L 613.007836 76.024839 
L 614.687547 77.149813 
L 616.367258 77.976798 
L 618.046969 80.243329 
L 619.72668 81.859963 
L 621.406391 85.310162 
L 624.765813 90.305762 
L 626.445524 91.771321 
L 628.125235 92.345849 
L 629.804946 94.881448 
L 631.484657 97.063783 
L 633.164368 98.53012 
L 634.844079 101.17855 
L 636.52379 102.767949 
L 638.203501 103.692155 
L 639.883212 104.745618 
L 641.562923 107.203255 
L 643.242634 113.66132 
L 644.922345 115.433845 
L 646.602056 116.539058 
L 648.281767 118.295302 
L 649.961478 119.243479 
L 651.641189 119.968415 
L 653.3209 122.614862 
L 655.000611 124.988493 
L 658.360033 128.636853 
L 660.039745 130.684751 
L 661.719456 132.268911 
L 663.399167 133.58352 
L 665.078878 135.778229 
L 666.758589 139.389804 
L 668.4383 139.868594 
L 670.118011 142.41217 
L 671.797722 143.507599 
L 673.477433 145.008219 
L 675.157144 146.860902 
L 676.836855 150.147843 
L 678.516566 151.194939 
L 680.196277 154.110382 
L 681.875988 159.250006 
L 683.555699 159.676787 
L 685.23541 161.461534 
L 686.915121 161.693955 
L 688.594832 164.146718 
L 690.274543 166.020786 
L 691.954254 169.929305 
L 693.633965 168.352169 
L 695.313676 172.682434 
L 696.993387 173.799284 
L 698.673098 173.799284 
L 700.352809 174.183054 
L 702.03252 178.851185 
L 703.712231 177.48831 
L 705.391942 181.825076 
L 707.071653 184.026762 
L 708.751364 185.205682 
L 710.431075 187.086535 
L 712.110786 190.578604 
L 713.790497 193.776937 
L 715.470208 196.479909 
L 717.149919 193.776937 
L 718.82963 194.64554 
L 722.189052 194.64554 
L 723.868763 192.937784 
L 725.548474 192.937784 
L 727.228185 193.776937 
L 728.907896 199.514641 
L 730.587607 204.243765 
L 733.947029 204.243765 
L 735.62674 208.497514 
L 737.306451 208.497514 
L 738.986162 211.80277 
L 740.665873 210.095014 
L 742.345584 206.996894 
L 745.705006 206.996894 
L 747.384717 198.461178 
L 749.064428 200.61494 
L 752.42385 196.479909 
L 754.103561 198.461178 
L 755.783273 197.450725 
L 757.462984 197.450725 
L 759.142695 205.582072 
L 760.822406 208.497514 
L 762.502117 211.80277 
L 764.181828 217.77217 
L 765.861539 215.618408 
L 767.54125 210.095014 
L 769.220961 210.095014 
L 770.900672 204.243765 
L 772.580383 202.97412 
L 775.939805 202.97412 
L 777.619516 184.026762 
L 779.299227 181.303948 
L 780.978938 181.303948 
L 782.658649 184.026762 
L 784.33836 184.609204 
L 787.697782 184.609204 
L 789.377493 206.996894 
L 791.057204 220.13135 
L 796.096337 220.13135 
L 797.776048 222.739302 
L 801.13547 222.739302 
L 802.815181 228.96 
L 809.534025 228.96 
L 811.213736 225.654744 
L 817.93258 225.654744 
L 819.612291 222.739302 
L 821.292002 220.13135 
L 822.971713 220.13135 
L 824.651424 215.618408 
L 826.331135 215.618408 
L 829.690557 211.80277 
L 831.370268 211.80277 
L 834.72969 215.618408 
L 836.409401 220.13135 
L 838.089112 220.13135 
L 839.768823 222.739302 
L 841.448534 222.739302 
L 843.128245 225.654744 
L 844.807956 220.13135 
L 848.167378 220.13135 
L 849.847089 217.77217 
L 851.5268 217.77217 
L 853.206512 220.13135 
L 854.886223 220.13135 
L 856.565934 225.654744 
L 858.245645 222.739302 
L 859.925356 222.739302 
L 861.605067 225.654744 
L 863.284778 225.654744 
L 864.964489 222.739302 
L 866.6442 222.739302 
L 868.323911 217.77217 
L 870.003622 220.13135 
L 871.683333 220.13135 
L 873.363044 217.77217 
L 875.042755 215.618408 
L 876.722466 217.77217 
L 878.402177 211.80277 
L 880.081888 213.637139 
L 881.761599 208.497514 
L 883.44131 208.497514 
L 886.800732 211.80277 
L 888.480443 210.095014 
L 890.160154 215.618408 
L 891.839865 217.77217 
L 893.519576 220.13135 
L 903.597842 220.13135 
L 905.277553 225.654744 
L 910.316686 225.654744 
L 911.996397 228.96 
L 915.355819 228.96 
L 917.03553 225.654744 
L 918.715241 222.739302 
L 923.754374 222.739302 
L 925.434085 220.13135 
L 927.113796 220.13135 
L 928.793507 222.739302 
L 930.473218 225.654744 
L 932.152929 225.654744 
L 933.83264 222.739302 
L 935.512351 222.739302 
L 937.192062 225.654744 
L 943.910906 225.654744 
L 945.590617 228.96 
L 957.348595 228.96 
L 959.028306 225.654744 
L 962.387728 225.654744 
L 964.067439 222.739302 
L 969.106572 222.739302 
L 970.786283 225.654744 
L 974.145705 225.654744 
L 975.825416 228.96 
L 980.864549 228.96 
L 982.54426 225.654744 
L 992.622526 225.654744 
L 994.302237 228.96 
L 995.981948 225.654744 
L 1006.060214 225.654744 
L 1007.739925 228.96 
L 1017.818191 228.96 
L 1019.497902 225.654744 
L 1024.537035 225.654744 
L 1026.216746 222.739302 
L 1029.576168 222.739302 
L 1031.255879 225.654744 
L 1036.295012 225.654744 
L 1037.974723 228.96 
L 1039.654434 228.96 
L 1041.334145 225.654744 
L 1051.412412 225.654744 
L 1053.092123 228.96 
L 1056.451545 228.96 
L 1058.131256 225.654744 
L 1068.209522 225.654744 
L 1069.889233 228.96 
L 1116.921141 228.96 
L 1118.600852 225.654744 
L 1118.600852 225.654744 
" clip-path="url(#pb231061a3e)" style="fill: none; stroke: #96c6ad; stroke-width: 2; stroke-linecap: square"/>
   </g>
   <g id="line2d_22">
    <path d="M 191.400371 220.13135 
L 193.080082 222.739302 
L 196.439504 222.739302 
L 198.119215 220.13135 
L 199.798926 225.654744 
L 201.478637 220.13135 
L 203.158348 220.13135 
L 204.838059 215.618408 
L 211.556903 215.618408 
L 213.236614 220.13135 
L 214.916325 220.13135 
L 216.596036 225.654744 
L 219.955458 225.654744 
L 221.635169 228.96 
L 223.31488 225.654744 
L 224.994591 222.739302 
L 226.674302 220.13135 
L 228.354013 220.13135 
L 230.033724 215.618408 
L 233.393146 211.80277 
L 236.752568 215.618408 
L 238.432279 217.77217 
L 240.11199 217.77217 
L 241.791701 222.739302 
L 243.471412 222.739302 
L 245.151123 225.654744 
L 251.869967 225.654744 
L 253.549678 220.13135 
L 255.229389 222.739302 
L 256.9091 222.739302 
L 258.588811 220.13135 
L 261.948233 220.13135 
L 263.627944 217.77217 
L 265.307655 217.77217 
L 266.987366 208.497514 
L 268.667077 208.497514 
L 270.346788 202.97412 
L 272.026499 199.514641 
L 273.70621 197.450725 
L 275.385922 194.64554 
L 277.065633 193.776937 
L 278.745344 197.450725 
L 280.425055 193.776937 
L 282.104766 195.545736 
L 283.784477 198.461178 
L 285.464188 186.443573 
L 287.143899 184.609204 
L 288.82361 177.48831 
L 290.503321 169.286343 
L 292.183032 164.667846 
L 293.862743 158.83046 
L 295.542454 157.612871 
L 297.222165 158.012116 
L 298.901876 154.985125 
L 300.581587 152.935459 
L 302.261298 149.712302 
L 303.941009 148.586987 
L 305.62072 146.989488 
L 307.300431 144.889501 
L 308.980142 144.304304 
L 310.659853 145.247377 
L 312.339564 142.953825 
L 314.019275 143.619856 
L 315.698986 143.17385 
L 317.378697 141.67323 
L 319.058408 140.854886 
L 320.738119 137.739016 
L 322.41783 136.44277 
L 324.097541 135.614845 
L 325.777252 133.658641 
L 327.456963 129.703672 
L 329.136674 128.575508 
L 330.816385 126.97418 
L 332.496096 127.147074 
L 334.175807 126.802484 
L 335.855518 125.524286 
L 339.21494 121.393421 
L 340.894651 119.581982 
L 342.574362 117.538524 
L 344.254073 116.84231 
L 345.933784 115.68735 
L 347.613495 112.610652 
L 349.293206 110.932917 
L 350.972917 109.730953 
L 352.652628 108.124513 
L 354.332339 107.048712 
L 356.01205 106.116441 
L 357.691761 104.95708 
L 359.371472 103.335996 
L 361.051183 100.440206 
L 362.730894 97.972239 
L 364.410605 96.790836 
L 366.090316 94.834375 
L 367.770027 93.314398 
L 369.449738 92.459524 
L 371.12945 91.743633 
L 372.809161 90.528701 
L 374.488872 90.279665 
L 376.168583 89.674184 
L 377.848294 88.922147 
L 379.528005 88.481653 
L 381.207716 87.216859 
L 382.887427 84.564006 
L 387.92656 77.474189 
L 389.606271 75.366466 
L 391.285982 73.549953 
L 392.965693 72.625364 
L 394.645404 71.25781 
L 396.325115 70.666228 
L 398.004826 68.83439 
L 399.684537 67.318936 
L 401.364248 65.998281 
L 403.043959 65.576475 
L 404.72367 64.311397 
L 406.403381 61.47882 
L 408.083092 59.793888 
L 409.762803 58.597803 
L 411.442514 57.686472 
L 413.122225 56.069757 
L 414.801936 54.68187 
L 416.481647 53.800034 
L 418.161358 52.747318 
L 419.841069 50.598805 
L 421.52078 48.948863 
L 423.200491 46.667941 
L 424.880202 45.317025 
L 428.239624 43.144186 
L 433.278757 38.205675 
L 434.958468 37.345742 
L 439.997601 35.562905 
L 441.677312 34.574826 
L 443.357023 33.911932 
L 445.036734 32.956812 
L 446.716445 31.307726 
L 448.396156 30.473108 
L 450.075867 30.033506 
L 451.755578 30.109101 
L 453.435289 28.995439 
L 455.115 28.213927 
L 456.794711 27.880411 
L 458.474422 27.850027 
L 460.154133 26.800404 
L 463.513555 25.370253 
L 466.872977 24.520178 
L 468.552689 24.167575 
L 470.2324 24.00479 
L 471.912111 24.145027 
L 476.951244 25.19657 
L 478.630955 25.46516 
L 485.349799 27.423381 
L 487.02951 27.250059 
L 490.388932 27.282784 
L 492.068643 27.057652 
L 495.428065 26.1937 
L 497.107776 26.030696 
L 498.787487 26.195659 
L 500.467198 26.072565 
L 503.82662 26.847618 
L 507.186042 28.661034 
L 510.545464 29.851199 
L 512.225175 31.215188 
L 513.904886 31.891286 
L 515.584597 33.066448 
L 517.264308 34.023204 
L 518.944019 35.308271 
L 522.303441 36.584621 
L 527.342574 40.025852 
L 529.022285 40.968259 
L 534.061418 43.144186 
L 535.741129 44.988417 
L 537.42084 46.232855 
L 540.780262 49.342419 
L 542.459973 50.690847 
L 544.139684 51.671677 
L 545.819395 52.220465 
L 547.499106 56.250494 
L 549.178817 57.256824 
L 550.858528 58.772477 
L 552.538239 59.877756 
L 554.21795 60.610217 
L 555.897661 60.986736 
L 557.577372 61.114864 
L 559.257083 58.805366 
L 560.936794 60.84338 
L 562.616505 61.765644 
L 564.296217 61.85648 
L 565.975928 61.671035 
L 569.33535 61.960108 
L 572.694772 63.142676 
L 574.374483 63.617773 
L 576.054194 64.912443 
L 577.733905 65.861741 
L 584.452749 68.894782 
L 586.13246 69.110096 
L 587.812171 70.56605 
L 589.491882 72.670142 
L 591.171593 73.358301 
L 592.851304 73.569864 
L 596.210726 76.913089 
L 597.890437 79.803845 
L 599.570148 80.735061 
L 601.249859 81.300194 
L 602.92957 82.347347 
L 604.609281 83.910163 
L 606.288992 86.613523 
L 607.968703 87.752702 
L 609.648414 88.096577 
L 611.328125 89.095589 
L 613.007836 90.266627 
L 614.687547 89.942889 
L 616.367258 89.157829 
L 618.046969 88.240279 
L 619.72668 89.636034 
L 621.406391 91.441097 
L 624.765813 93.71568 
L 628.125235 95.825892 
L 629.804946 97.99004 
L 633.164368 98.767864 
L 634.844079 99.476196 
L 636.52379 100.677264 
L 639.883212 101.835375 
L 641.562923 102.724788 
L 644.922345 105.968516 
L 646.602056 106.717141 
L 648.281767 106.818691 
L 651.641189 107.620152 
L 653.3209 110.368645 
L 655.000611 111.695535 
L 656.680322 112.771907 
L 658.360033 114.653611 
L 660.039745 117.18797 
L 663.399167 119.28554 
L 665.078878 121.119908 
L 668.4383 125.687312 
L 670.118011 129.00815 
L 671.797722 131.49861 
L 673.477433 132.84458 
L 675.157144 133.96143 
L 676.836855 136.191472 
L 678.516566 137.917094 
L 683.555699 142.41217 
L 688.594832 148.042951 
L 690.274543 151.657619 
L 691.954254 156.642054 
L 695.313676 162.165449 
L 696.993387 165.470705 
L 698.673098 165.744217 
L 700.352809 164.40591 
L 702.03252 163.636336 
L 703.712231 162.646098 
L 705.391942 162.165449 
L 707.071653 164.146718 
L 708.751364 161.461534 
L 710.431075 161.928579 
L 712.110786 164.667846 
L 713.790497 166.30048 
L 715.470208 167.451974 
L 717.149919 169.929305 
L 718.82963 170.589414 
L 720.509341 175.371409 
L 722.189052 176.196574 
L 723.868763 180.793566 
L 725.548474 184.026762 
L 728.907896 192.937784 
L 730.587607 177.48831 
L 732.267318 177.934316 
L 733.947029 177.48831 
L 735.62674 179.322679 
L 737.306451 180.293495 
L 738.986162 181.825076 
L 740.665873 182.357411 
L 742.345584 208.497514 
L 744.025295 211.80277 
L 745.705006 215.618408 
L 750.744139 215.618408 
L 752.42385 217.77217 
L 754.103561 220.13135 
L 757.462984 220.13135 
L 759.142695 222.739302 
L 760.822406 220.13135 
L 762.502117 220.13135 
L 764.181828 217.77217 
L 765.861539 215.618408 
L 767.54125 215.618408 
L 769.220961 213.637139 
L 770.900672 213.637139 
L 772.580383 215.618408 
L 774.260094 215.618408 
L 775.939805 217.77217 
L 777.619516 208.497514 
L 779.299227 208.497514 
L 780.978938 206.996894 
L 782.658649 206.996894 
L 784.33836 208.497514 
L 786.018071 206.996894 
L 787.697782 206.996894 
L 789.377493 217.77217 
L 791.057204 217.77217 
L 792.736915 222.739302 
L 794.416626 220.13135 
L 796.096337 220.13135 
L 797.776048 222.739302 
L 802.815181 222.739302 
L 804.494892 220.13135 
L 807.854314 220.13135 
L 809.534025 222.739302 
L 812.893447 222.739302 
L 814.573158 220.13135 
L 816.252869 222.739302 
L 817.93258 222.739302 
L 819.612291 220.13135 
L 824.651424 220.13135 
L 826.331135 222.739302 
L 828.010846 220.13135 
L 829.690557 220.13135 
L 831.370268 222.739302 
L 834.72969 222.739302 
L 836.409401 220.13135 
L 838.089112 220.13135 
L 839.768823 222.739302 
L 841.448534 225.654744 
L 846.487667 225.654744 
L 848.167378 228.96 
L 853.206512 228.96 
L 854.886223 225.654744 
L 856.565934 220.13135 
L 858.245645 220.13135 
L 859.925356 215.618408 
L 864.964489 215.618408 
L 866.6442 217.77217 
L 868.323911 222.739302 
L 870.003622 222.739302 
L 871.683333 228.96 
L 876.722466 228.96 
L 878.402177 225.654744 
L 880.081888 222.739302 
L 881.761599 220.13135 
L 883.44131 220.13135 
L 885.121021 217.77217 
L 888.480443 217.77217 
L 890.160154 220.13135 
L 891.839865 222.739302 
L 893.519576 225.654744 
L 895.199287 225.654744 
L 896.878998 228.96 
L 947.270328 228.96 
L 948.95004 225.654744 
L 959.028306 225.654744 
L 960.708017 228.96 
L 975.825416 228.96 
L 977.505127 225.654744 
L 987.583393 225.654744 
L 989.263104 228.96 
L 999.34137 228.96 
L 1001.021081 225.654744 
L 1011.099347 225.654744 
L 1012.779058 228.96 
L 1016.13848 228.96 
L 1017.818191 225.654744 
L 1029.576168 225.654744 
L 1029.576168 225.654744 
" clip-path="url(#pb231061a3e)" style="fill: none; stroke: #525886; stroke-width: 2; stroke-linecap: square"/>
   </g>
   <g id="line2d_23">
    <path d="M 251.869967 225.654744 
L 253.549678 228.96 
L 255.229389 228.96 
L 256.9091 222.739302 
L 258.588811 222.739302 
L 260.268522 215.618408 
L 266.987366 215.618408 
L 268.667077 217.77217 
L 270.346788 217.77217 
L 272.026499 225.654744 
L 273.70621 217.77217 
L 275.385922 213.637139 
L 278.745344 213.637139 
L 280.425055 211.80277 
L 282.104766 211.80277 
L 283.784477 210.095014 
L 285.464188 210.095014 
L 287.143899 211.80277 
L 288.82361 208.497514 
L 290.503321 208.497514 
L 292.183032 210.095014 
L 293.862743 206.996894 
L 295.542454 197.450725 
L 297.222165 196.479909 
L 298.901876 197.450725 
L 300.581587 199.514641 
L 302.261298 198.461178 
L 303.941009 193.776937 
L 307.300431 195.545736 
L 308.980142 194.64554 
L 310.659853 192.937784 
L 312.339564 190.578604 
L 314.019275 190.578604 
L 315.698986 192.937784 
L 317.378697 190.578604 
L 319.058408 193.776937 
L 320.738119 193.776937 
L 322.41783 194.64554 
L 324.097541 192.937784 
L 325.777252 192.937784 
L 327.456963 192.126149 
L 329.136674 192.126149 
L 330.816385 190.578604 
L 334.175807 189.122146 
L 335.855518 192.126149 
L 339.21494 192.126149 
L 340.894651 193.776937 
L 342.574362 197.450725 
L 344.254073 200.61494 
L 345.933784 201.766434 
L 347.613495 201.766434 
L 349.293206 198.461178 
L 350.972917 195.545736 
L 352.652628 197.450725 
L 354.332339 197.450725 
L 356.01205 200.61494 
L 357.691761 200.61494 
L 359.371472 192.937784 
L 361.051183 190.578604 
L 362.730894 196.479909 
L 364.410605 184.609204 
L 366.090316 182.901447 
L 367.770027 180.293495 
L 369.449738 180.293495 
L 371.12945 183.45771 
L 372.809161 185.81689 
L 374.488872 184.609204 
L 376.168583 190.578604 
L 377.848294 191.340284 
L 379.528005 194.64554 
L 381.207716 190.578604 
L 382.887427 192.126149 
L 384.567138 191.340284 
L 386.246849 191.340284 
L 387.92656 195.545736 
L 389.606271 197.450725 
L 391.285982 193.776937 
L 392.965693 197.450725 
L 394.645404 195.545736 
L 396.325115 196.479909 
L 398.004826 190.578604 
L 399.684537 188.424842 
L 403.043959 189.839664 
L 404.72367 189.122146 
L 408.083092 185.205682 
L 409.762803 187.746644 
L 411.442514 189.122146 
L 413.122225 184.026762 
L 414.801936 179.803328 
L 416.481647 178.851185 
L 418.161358 179.322679 
L 419.841069 181.303948 
L 421.52078 182.901447 
L 423.200491 180.793566 
L 424.880202 184.026762 
L 426.559913 189.839664 
L 428.239624 191.340284 
L 429.919335 188.424842 
L 431.599046 188.424842 
L 433.278757 186.443573 
L 434.958468 189.122146 
L 436.638179 190.578604 
L 438.31789 184.609204 
L 439.997601 184.609204 
L 441.677312 181.825076 
L 443.357023 180.793566 
L 445.036734 179.322679 
L 446.716445 178.388506 
L 448.396156 175.780554 
L 450.075867 177.48831 
L 451.755578 177.934316 
L 453.435289 180.793566 
L 455.115 180.293495 
L 456.794711 182.901447 
L 458.474422 184.026762 
L 460.154133 186.443573 
L 461.833844 187.086535 
L 463.513555 183.45771 
L 465.193266 184.026762 
L 466.872977 180.293495 
L 468.552689 179.803328 
L 470.2324 178.851185 
L 473.591822 172.682434 
L 475.271533 174.572868 
L 476.951244 175.780554 
L 478.630955 173.421374 
L 481.990377 172.682434 
L 483.670088 173.421374 
L 485.349799 175.780554 
L 487.02951 173.421374 
L 488.709221 170.589414 
L 490.388932 174.572868 
L 492.068643 176.196574 
L 495.428065 177.050199 
L 498.787487 182.357411 
L 500.467198 185.81689 
L 502.146909 185.205682 
L 503.82662 182.901447 
L 505.506331 183.45771 
L 507.186042 185.81689 
L 508.865753 187.086535 
L 510.545464 189.839664 
L 512.225175 191.340284 
L 513.904886 192.126149 
L 515.584597 196.479909 
L 517.264308 192.126149 
L 518.944019 189.839664 
L 522.303441 189.839664 
L 523.983152 192.937784 
L 525.662863 196.479909 
L 527.342574 195.545736 
L 529.022285 204.243765 
L 530.701996 210.095014 
L 532.381707 210.095014 
L 534.061418 206.996894 
L 535.741129 206.996894 
L 537.42084 211.80277 
L 539.100551 206.996894 
L 540.780262 208.497514 
L 544.139684 208.497514 
L 545.819395 211.80277 
L 547.499106 210.095014 
L 549.178817 201.766434 
L 550.858528 201.766434 
L 552.538239 199.514641 
L 554.21795 198.461178 
L 555.897661 194.64554 
L 557.577372 193.776937 
L 559.257083 192.126149 
L 560.936794 194.64554 
L 562.616505 196.479909 
L 564.296217 197.450725 
L 565.975928 197.450725 
L 567.655639 201.766434 
L 569.33535 200.61494 
L 574.374483 200.61494 
L 576.054194 201.766434 
L 577.733905 204.243765 
L 581.093327 204.243765 
L 582.773038 201.766434 
L 584.452749 204.243765 
L 586.13246 202.97412 
L 587.812171 200.61494 
L 589.491882 199.514641 
L 591.171593 196.479909 
L 592.851304 197.450725 
L 594.531015 199.514641 
L 596.210726 198.461178 
L 597.890437 201.766434 
L 599.570148 199.514641 
L 602.92957 195.545736 
L 604.609281 191.340284 
L 606.288992 192.937784 
L 607.968703 192.126149 
L 609.648414 189.839664 
L 611.328125 192.937784 
L 613.007836 195.545736 
L 614.687547 194.64554 
L 616.367258 199.514641 
L 618.046969 192.126149 
L 619.72668 192.937784 
L 621.406391 195.545736 
L 623.086102 195.545736 
L 624.765813 196.479909 
L 626.445524 204.243765 
L 628.125235 205.582072 
L 629.804946 220.13135 
L 631.484657 225.654744 
L 636.52379 225.654744 
L 638.203501 222.739302 
L 639.883212 222.739302 
L 641.562923 217.77217 
L 651.641189 217.77217 
L 653.3209 225.654744 
L 655.000611 225.654744 
L 656.680322 210.095014 
L 660.039745 210.095014 
L 661.719456 211.80277 
L 666.758589 211.80277 
L 668.4383 225.654744 
L 670.118011 225.654744 
L 671.797722 222.739302 
L 675.157144 222.739302 
L 676.836855 220.13135 
L 678.516566 220.13135 
L 680.196277 222.739302 
L 681.875988 217.77217 
L 681.875988 217.77217 
" clip-path="url(#pb231061a3e)" style="fill: none; stroke: #937252; stroke-width: 2; stroke-linecap: square"/>
   </g>
   <g id="line2d_24">
    <path d="M 151.087306 222.739302 
L 152.767017 225.654744 
L 159.485861 225.654744 
L 161.165572 228.96 
L 183.001816 228.96 
L 184.681527 225.654744 
L 194.759793 225.654744 
L 196.439504 228.96 
L 213.236614 228.96 
L 214.916325 222.739302 
L 216.596036 222.739302 
L 218.275747 220.13135 
L 223.31488 220.13135 
L 224.994591 217.77217 
L 226.674302 222.739302 
L 228.354013 222.739302 
L 230.033724 225.654744 
L 231.713435 222.739302 
L 235.072857 222.739302 
L 236.752568 215.618408 
L 238.432279 211.80277 
L 246.830834 211.80277 
L 248.510545 217.77217 
L 250.190256 222.739302 
L 251.869967 220.13135 
L 253.549678 217.77217 
L 255.229389 211.80277 
L 256.9091 211.80277 
L 258.588811 208.497514 
L 260.268522 210.095014 
L 263.627944 206.996894 
L 265.307655 206.996894 
L 266.987366 210.095014 
L 268.667077 206.996894 
L 270.346788 204.243765 
L 272.026499 201.766434 
L 275.385922 191.340284 
L 277.065633 185.205682 
L 278.745344 177.934316 
L 280.425055 174.968918 
L 282.104766 154.807686 
L 283.784477 152.448506 
L 285.464188 149.856632 
L 287.143899 145.367828 
L 288.82361 142.305247 
L 290.503321 140.55485 
L 292.183032 140.356828 
L 293.862743 146.227808 
L 295.542454 145.367828 
L 297.222165 141.158603 
L 300.581587 128.210598 
L 302.261298 124.882713 
L 303.941009 123.547183 
L 305.62072 120.142118 
L 307.300431 119.624622 
L 308.980142 121.716387 
L 310.659853 126.071933 
L 312.339564 128.03014 
L 314.019275 128.821805 
L 315.698986 128.514315 
L 317.378697 131.775954 
L 319.058408 131.429757 
L 320.738119 129.512038 
L 322.41783 128.331638 
L 324.097541 130.684751 
L 325.777252 129.385101 
L 327.456963 126.238618 
L 329.136674 121.301914 
L 330.816385 120.185735 
L 334.175807 121.902848 
L 335.855518 122.090725 
L 337.535229 116.202282 
L 339.21494 112.739572 
L 340.894651 110.54545 
L 342.574362 108.997905 
L 344.254073 108.666761 
L 345.933784 104.008055 
L 347.613495 101.752313 
L 349.293206 97.636425 
L 350.972917 99.838111 
L 352.652628 103.050343 
L 354.332339 104.909932 
L 356.01205 103.669744 
L 357.691761 102.212646 
L 359.371472 102.12831 
L 361.051183 111.204761 
L 362.730894 110.902895 
L 364.410605 107.151633 
L 366.090316 106.017726 
L 367.770027 107.332783 
L 369.449738 113.262075 
L 371.12945 116.202282 
L 372.809161 114.723534 
L 374.488872 115.290143 
L 376.168583 119.838932 
L 377.848294 120.849385 
L 379.528005 118.05381 
L 381.207716 116.314032 
L 382.887427 111.357085 
L 384.567138 109.081388 
L 386.246849 106.616007 
L 387.92656 105.218011 
L 389.606271 104.95708 
L 391.285982 105.027971 
L 392.965693 101.057312 
L 394.645404 101.320749 
L 396.325115 100.756791 
L 398.004826 99.992094 
L 399.684537 99.419532 
L 401.364248 97.531318 
L 403.043959 97.218649 
L 404.72367 99.666018 
L 406.403381 100.538705 
L 408.083092 100.677264 
L 409.762803 101.280037 
L 411.442514 101.752313 
L 413.122225 100.816604 
L 414.801936 101.648875 
L 416.481647 100.381294 
L 418.161358 100.011409 
L 419.841069 97.918912 
L 421.52078 97.548805 
L 423.200491 96.487325 
L 424.880202 96.858791 
L 429.919335 93.506796 
L 431.599046 95.744442 
L 433.278757 94.002015 
L 434.958468 93.536529 
L 436.638179 92.631021 
L 438.31789 90.528701 
L 439.997601 92.573723 
L 441.677312 91.331994 
L 443.357023 89.433557 
L 445.036734 88.156352 
L 446.716445 86.311726 
L 448.396156 84.782367 
L 450.075867 84.615822 
L 451.755578 78.481726 
L 453.435289 77.497522 
L 455.115 77.614519 
L 458.474422 77.466416 
L 460.154133 78.016498 
L 461.833844 78.328359 
L 463.513555 83.769408 
L 465.193266 83.048166 
L 466.872977 81.684248 
L 468.552689 81.509771 
L 470.2324 80.886291 
L 471.912111 78.750381 
L 473.591822 77.794996 
L 475.271533 76.989205 
L 476.951244 75.53841 
L 478.630955 74.850694 
L 481.990377 71.721745 
L 483.670088 69.887376 
L 485.349799 68.692227 
L 487.02951 68.057095 
L 488.709221 66.199583 
L 490.388932 64.833011 
L 492.068643 63.256221 
L 493.748354 64.531626 
L 495.428065 63.221229 
L 497.107776 61.708013 
L 498.787487 61.340696 
L 500.467198 63.177558 
L 502.146909 64.402921 
L 503.82662 66.712636 
L 505.506331 64.444218 
L 507.186042 65.959193 
L 508.865753 67.031768 
L 510.545464 67.484541 
L 512.225175 65.925041 
L 513.904886 65.242232 
L 515.584597 64.370849 
L 517.264308 64.550067 
L 518.944019 64.573138 
L 520.62373 65.142834 
L 525.662863 65.998281 
L 527.342574 66.402536 
L 529.022285 68.334977 
L 532.381707 71.537573 
L 534.061418 72.727833 
L 535.741129 74.864682 
L 537.42084 76.039508 
L 539.100551 77.466416 
L 540.780262 77.771381 
L 542.459973 78.99717 
L 544.139684 79.659067 
L 545.819395 79.923712 
L 547.499106 81.767326 
L 549.178817 82.290618 
L 550.858528 82.518317 
L 552.538239 83.719332 
L 554.21795 83.490278 
L 557.577372 83.990955 
L 559.257083 82.642535 
L 560.936794 83.018971 
L 562.616505 83.038431 
L 564.296217 82.130589 
L 565.975928 82.480222 
L 567.655639 82.632957 
L 569.33535 83.077396 
L 571.015061 83.940429 
L 572.694772 84.553656 
L 574.374483 85.33151 
L 576.054194 87.147814 
L 577.733905 87.425158 
L 579.413616 87.332364 
L 581.093327 86.805448 
L 582.773038 86.953226 
L 584.452749 85.94779 
L 586.13246 84.398919 
L 587.812171 83.759385 
L 589.491882 83.849741 
L 591.171593 83.067649 
L 596.210726 84.460698 
L 597.890437 86.636025 
L 599.570148 86.941827 
L 601.249859 86.816785 
L 602.92957 87.228386 
L 604.609281 87.274544 
L 606.288992 86.024543 
L 607.968703 85.904039 
L 609.648414 83.970732 
L 611.328125 83.312484 
L 613.007836 82.854179 
L 614.687547 82.960684 
L 616.367258 82.652116 
L 618.046969 83.018971 
L 619.72668 81.832136 
L 621.406391 83.194661 
L 629.804946 83.689335 
L 631.484657 84.698955 
L 633.164368 83.184868 
L 634.844079 84.740626 
L 636.52379 86.72624 
L 638.203501 85.524472 
L 639.883212 85.288833 
L 641.562923 86.423074 
L 643.242634 87.078961 
L 644.922345 88.168324 
L 646.602056 85.546006 
L 648.281767 83.950526 
L 649.961478 85.108272 
L 651.641189 85.342191 
L 653.3209 86.72624 
L 655.000611 88.885138 
L 656.680322 91.359225 
L 658.360033 96.403673 
L 660.039745 100.876562 
L 661.719456 104.008055 
L 663.399167 89.195248 
L 665.078878 90.806898 
L 666.758589 90.071877 
L 668.4383 90.555062 
L 670.118011 88.848184 
L 671.797722 84.88703 
L 673.477433 85.14004 
L 675.157144 97.8657 
L 676.836855 97.305106 
L 678.516566 99.32538 
L 680.196277 100.440206 
L 681.875988 103.692155 
L 683.555699 114.169606 
L 685.23541 115.254348 
L 686.915121 116.165144 
L 690.274543 119.795922 
L 691.954254 121.996608 
L 696.993387 129.512038 
L 698.673098 129.512038 
L 700.352809 134.190977 
L 702.03252 138.186635 
L 703.712231 139.868594 
L 705.391942 141.158603 
L 707.071653 145.008219 
L 708.751364 147.775352 
L 710.431075 151.194939 
L 712.110786 153.432184 
L 713.790497 154.282875 
L 715.470208 156.833195 
L 717.149919 159.676787 
L 718.82963 161.461534 
L 720.509341 160.553078 
L 722.189052 160.111055 
L 725.548474 164.667846 
L 727.228185 165.470705 
L 728.907896 167.15904 
L 732.267318 175.780554 
L 733.947029 176.619707 
L 735.62674 177.050199 
L 737.306451 179.322679 
L 738.986162 184.609204 
L 740.665873 185.81689 
L 744.025295 183.45771 
L 745.705006 182.357411 
L 747.384717 182.901447 
L 749.064428 184.609204 
L 750.744139 185.205682 
L 752.42385 189.839664 
L 754.103561 189.122146 
L 755.783273 189.839664 
L 757.462984 192.937784 
L 759.142695 196.479909 
L 760.822406 192.937784 
L 762.502117 191.340284 
L 764.181828 187.746644 
L 765.861539 190.578604 
L 767.54125 190.578604 
L 769.220961 189.122146 
L 770.900672 189.122146 
L 772.580383 192.937784 
L 774.260094 192.126149 
L 775.939805 194.64554 
L 777.619516 193.776937 
L 779.299227 194.64554 
L 780.978938 194.64554 
L 782.658649 196.479909 
L 784.33836 197.450725 
L 786.018071 200.61494 
L 787.697782 202.97412 
L 789.377493 205.582072 
L 791.057204 206.996894 
L 792.736915 211.80277 
L 796.096337 215.618408 
L 797.776048 217.77217 
L 799.455759 215.618408 
L 801.13547 220.13135 
L 802.815181 220.13135 
L 804.494892 222.739302 
L 806.174603 220.13135 
L 809.534025 220.13135 
L 811.213736 222.739302 
L 812.893447 222.739302 
L 814.573158 225.654744 
L 816.252869 222.739302 
L 817.93258 225.654744 
L 826.331135 225.654744 
L 828.010846 228.96 
L 829.690557 228.96 
L 831.370268 222.739302 
L 841.448534 222.739302 
L 843.128245 225.654744 
L 846.487667 225.654744 
L 848.167378 220.13135 
L 851.5268 220.13135 
L 853.206512 211.80277 
L 854.886223 211.80277 
L 856.565934 204.243765 
L 858.245645 204.243765 
L 859.925356 206.996894 
L 863.284778 206.996894 
L 864.964489 213.637139 
L 866.6442 213.637139 
L 868.323911 225.654744 
L 876.722466 225.654744 
L 878.402177 228.96 
L 908.636975 228.96 
L 910.316686 222.739302 
L 920.394952 222.739302 
L 922.074663 228.96 
L 923.754374 225.654744 
L 933.83264 225.654744 
L 935.512351 228.96 
L 1098.44432 228.96 
L 1100.124031 225.654744 
L 1100.124031 225.654744 
" clip-path="url(#pb231061a3e)" style="fill: none; stroke: #d18cad; stroke-width: 2; stroke-linecap: square"/>
   </g>
   <g id="line2d_25">
    <path d="M 135.969907 225.654744 
L 137.649618 228.96 
L 223.31488 228.96 
L 224.994591 225.654744 
L 231.713435 225.654744 
L 233.393146 222.739302 
L 235.072857 222.739302 
L 236.752568 225.654744 
L 241.791701 225.654744 
L 243.471412 222.739302 
L 245.151123 225.654744 
L 251.869967 225.654744 
L 253.549678 222.739302 
L 255.229389 225.654744 
L 256.9091 225.654744 
L 258.588811 222.739302 
L 260.268522 217.77217 
L 263.627944 217.77217 
L 265.307655 220.13135 
L 266.987366 220.13135 
L 268.667077 217.77217 
L 270.346788 220.13135 
L 272.026499 225.654744 
L 273.70621 225.654744 
L 275.385922 222.739302 
L 277.065633 217.77217 
L 287.143899 217.77217 
L 288.82361 210.095014 
L 290.503321 205.582072 
L 293.862743 205.582072 
L 295.542454 200.61494 
L 297.222165 197.450725 
L 298.901876 192.937784 
L 300.581587 195.545736 
L 302.261298 193.776937 
L 303.941009 177.48831 
L 305.62072 166.30048 
L 307.300431 160.777086 
L 308.980142 159.250006 
L 310.659853 158.214179 
L 312.339564 154.631509 
L 314.019275 153.265499 
L 315.698986 154.282875 
L 317.378697 159.039344 
L 319.058408 158.417906 
L 320.738119 158.83046 
L 325.777252 164.667846 
L 327.456963 170.589414 
L 329.136674 172.682434 
L 330.816385 182.357411 
L 332.496096 185.205682 
L 334.175807 185.205682 
L 335.855518 188.424842 
L 337.535229 181.825076 
L 339.21494 177.934316 
L 340.894651 168.352169 
L 342.574362 166.869532 
L 344.254073 166.583371 
L 345.933784 163.636336 
L 347.613495 161.928579 
L 349.293206 159.462477 
L 350.972917 158.417906 
L 352.652628 159.676787 
L 354.332339 155.891917 
L 356.01205 156.452378 
L 357.691761 158.214179 
L 359.371472 157.612871 
L 361.051183 155.707881 
L 362.730894 154.985125 
L 364.410605 154.631509 
L 366.090316 156.452378 
L 367.770027 156.452378 
L 369.449738 156.264144 
L 371.12945 152.772075 
L 372.809161 158.012116 
L 374.488872 155.525204 
L 376.168583 156.077331 
L 377.848294 155.163845 
L 379.528005 154.631509 
L 381.207716 154.807686 
L 382.887427 156.452378 
L 384.567138 154.631509 
L 386.246849 157.219963 
L 387.92656 156.642054 
L 389.606271 152.609762 
L 392.965693 149.568808 
L 394.645404 147.379301 
L 396.325115 141.987221 
L 398.004826 139.295148 
L 399.684537 137.125645 
L 401.364248 139.013331 
L 403.043959 138.920101 
L 404.72367 139.295148 
L 406.403381 140.356828 
L 408.083092 143.845909 
L 409.762803 144.889501 
L 411.442514 147.118745 
L 413.122225 145.979035 
L 414.801936 146.353138 
L 416.481647 146.353138 
L 418.161358 145.488868 
L 419.841069 145.732738 
L 421.52078 145.247377 
L 423.200491 143.732624 
L 424.880202 142.627412 
L 426.559913 142.519557 
L 428.239624 142.953825 
L 429.919335 145.367828 
L 431.599046 144.771349 
L 433.278757 146.989488 
L 434.958468 148.042951 
L 436.638179 152.609762 
L 438.31789 152.288294 
L 439.997601 150.591186 
L 441.677312 151.813788 
L 443.357023 154.282875 
L 445.036734 153.432184 
L 446.716445 151.194939 
L 448.396156 150.294744 
L 450.075867 149.568808 
L 451.755578 149.426141 
L 453.435289 150.442521 
L 455.115 149.14325 
L 456.794711 149.426141 
L 458.474422 153.6 
L 460.154133 152.288294 
L 461.833844 154.110382 
L 463.513555 153.6 
L 465.193266 148.586987 
L 466.872977 148.863556 
L 468.552689 149.003008 
L 470.2324 146.860902 
L 471.912111 147.379301 
L 473.591822 147.118745 
L 475.271533 149.426141 
L 476.951244 151.194939 
L 478.630955 150.591186 
L 480.310666 150.294744 
L 483.670088 153.76896 
L 485.349799 153.76896 
L 487.02951 153.939082 
L 488.709221 153.099929 
L 490.388932 156.264144 
L 492.068643 157.219963 
L 493.748354 160.553078 
L 495.428065 161.231276 
L 497.107776 162.404607 
L 498.787487 161.231276 
L 500.467198 165.470705 
L 502.146909 163.385038 
L 503.82662 165.470705 
L 505.506331 163.890211 
L 507.186042 165.470705 
L 508.865753 164.932582 
L 512.225175 162.404607 
L 513.904886 163.890211 
L 515.584597 162.404607 
L 517.264308 163.385038 
L 518.944019 161.461534 
L 520.62373 162.404607 
L 522.303441 165.200181 
L 523.983152 165.470705 
L 525.662863 164.146718 
L 527.342574 166.30048 
L 529.022285 166.869532 
L 530.701996 163.385038 
L 534.061418 163.890211 
L 535.741129 165.744217 
L 537.42084 166.30048 
L 539.100551 165.470705 
L 540.780262 162.889968 
L 542.459973 165.200181 
L 544.139684 165.200181 
L 545.819395 164.40591 
L 547.499106 163.385038 
L 549.178817 165.744217 
L 550.858528 163.636336 
L 552.538239 163.890211 
L 554.21795 164.667846 
L 555.897661 162.889968 
L 557.577372 163.636336 
L 559.257083 163.890211 
L 560.936794 162.165449 
L 562.616505 166.020786 
L 564.296217 168.971018 
L 565.975928 169.929305 
L 567.655639 171.613808 
L 569.33535 170.257159 
L 571.015061 170.589414 
L 572.694772 171.613808 
L 574.374483 167.748416 
L 576.054194 165.200181 
L 579.413616 166.869532 
L 581.093327 166.020786 
L 582.773038 167.451974 
L 584.452749 169.929305 
L 587.812171 178.388506 
L 589.491882 181.303948 
L 591.171593 178.851185 
L 592.851304 181.303948 
L 594.531015 182.901447 
L 596.210726 179.803328 
L 597.890437 180.793566 
L 599.570148 180.793566 
L 601.249859 181.303948 
L 602.92957 185.205682 
L 604.609281 186.443573 
L 606.288992 189.839664 
L 607.968703 190.578604 
L 611.328125 193.776937 
L 616.367258 193.776937 
L 618.046969 190.578604 
L 619.72668 197.450725 
L 621.406391 200.61494 
L 623.086102 205.582072 
L 624.765813 206.996894 
L 626.445524 205.582072 
L 628.125235 205.582072 
L 629.804946 206.996894 
L 631.484657 198.461178 
L 633.164368 195.545736 
L 634.844079 192.126149 
L 638.203501 192.126149 
L 641.562923 189.122146 
L 643.242634 192.937784 
L 644.922345 192.126149 
L 646.602056 193.776937 
L 648.281767 193.776937 
L 649.961478 192.937784 
L 651.641189 193.776937 
L 653.3209 199.514641 
L 655.000611 195.545736 
L 656.680322 198.461178 
L 658.360033 201.766434 
L 660.039745 199.514641 
L 661.719456 200.61494 
L 663.399167 199.514641 
L 665.078878 192.126149 
L 666.758589 195.545736 
L 670.118011 192.126149 
L 671.797722 192.937784 
L 673.477433 192.937784 
L 675.157144 194.64554 
L 676.836855 202.97412 
L 678.516566 204.243765 
L 680.196277 206.996894 
L 681.875988 210.095014 
L 685.23541 213.637139 
L 686.915121 215.618408 
L 688.594832 192.937784 
L 690.274543 191.340284 
L 691.954254 186.443573 
L 693.633965 184.026762 
L 695.313676 184.609204 
L 696.993387 184.609204 
L 698.673098 184.026762 
L 700.352809 197.450725 
L 702.03252 199.514641 
L 703.712231 210.095014 
L 705.391942 215.618408 
L 708.751364 215.618408 
L 710.431075 217.77217 
L 712.110786 217.77217 
L 713.790497 222.739302 
L 715.470208 222.739302 
L 717.149919 228.96 
L 722.189052 228.96 
L 723.868763 225.654744 
L 733.947029 225.654744 
L 735.62674 228.96 
L 740.665873 228.96 
L 742.345584 225.654744 
L 750.744139 225.654744 
L 752.42385 222.739302 
L 754.103561 225.654744 
L 759.142695 225.654744 
L 760.822406 222.739302 
L 770.900672 222.739302 
L 772.580383 225.654744 
L 774.260094 225.654744 
L 775.939805 228.96 
L 777.619516 225.654744 
L 787.697782 225.654744 
L 789.377493 228.96 
L 791.057204 225.654744 
L 792.736915 222.739302 
L 799.455759 222.739302 
L 801.13547 220.13135 
L 802.815181 222.739302 
L 804.494892 225.654744 
L 811.213736 225.654744 
L 812.893447 228.96 
L 841.448534 228.96 
L 843.128245 225.654744 
L 846.487667 225.654744 
L 848.167378 222.739302 
L 853.206512 222.739302 
L 854.886223 225.654744 
L 858.245645 225.654744 
L 859.925356 228.96 
L 873.363044 228.96 
L 875.042755 225.654744 
L 876.722466 222.739302 
L 885.121021 222.739302 
L 886.800732 225.654744 
L 888.480443 228.96 
L 984.223971 228.96 
L 985.903682 225.654744 
L 985.903682 225.654744 
" clip-path="url(#pb231061a3e)" style="fill: none; stroke: #a4a86f; stroke-width: 2; stroke-linecap: square"/>
   </g>
   <g id="line2d_26">
    <path d="M 287.143899 215.618408 
L 288.82361 220.13135 
L 290.503321 222.739302 
L 292.183032 210.095014 
L 293.862743 205.582072 
L 295.542454 205.582072 
L 297.222165 204.243765 
L 298.901876 204.243765 
L 300.581587 200.61494 
L 302.261298 199.514641 
L 305.62072 199.514641 
L 307.300431 192.937784 
L 308.980142 192.126149 
L 310.659853 192.937784 
L 312.339564 192.937784 
L 314.019275 188.424842 
L 315.698986 192.126149 
L 317.378697 192.126149 
L 319.058408 195.545736 
L 320.738119 197.450725 
L 322.41783 196.479909 
L 324.097541 198.461178 
L 325.777252 202.97412 
L 327.456963 201.766434 
L 329.136674 199.514641 
L 332.496096 197.450725 
L 334.175807 198.461178 
L 335.855518 197.450725 
L 337.535229 200.61494 
L 339.21494 199.514641 
L 340.894651 200.61494 
L 342.574362 204.243765 
L 344.254073 205.582072 
L 345.933784 204.243765 
L 347.613495 200.61494 
L 349.293206 200.61494 
L 352.652628 198.461178 
L 356.01205 196.479909 
L 357.691761 197.450725 
L 359.371472 192.937784 
L 361.051183 191.340284 
L 362.730894 190.578604 
L 364.410605 193.776937 
L 366.090316 192.126149 
L 367.770027 192.937784 
L 369.449738 192.126149 
L 371.12945 196.479909 
L 372.809161 192.126149 
L 374.488872 190.578604 
L 377.848294 169.929305 
L 379.528005 169.286343 
L 381.207716 167.15904 
L 382.887427 166.020786 
L 384.567138 166.020786 
L 386.246849 166.30048 
L 387.92656 166.30048 
L 389.606271 171.613808 
L 391.285982 166.869532 
L 392.965693 166.869532 
L 394.645404 162.889968 
L 396.325115 162.165449 
L 398.004826 160.111055 
L 399.684537 162.165449 
L 401.364248 159.250006 
L 403.043959 161.461534 
L 404.72367 160.777086 
L 406.403381 157.219963 
L 408.083092 155.343865 
L 409.762803 151.813788 
L 411.442514 151.194939 
L 413.122225 154.631509 
L 414.801936 155.163845 
L 416.481647 155.525204 
L 418.161358 159.039344 
L 419.841069 158.623324 
L 421.52078 162.646098 
L 423.200491 162.404607 
L 424.880202 161.928579 
L 426.559913 160.111055 
L 428.239624 156.264144 
L 429.919335 151.194939 
L 431.599046 151.194939 
L 433.278757 151.348207 
L 434.958468 147.775352 
L 436.638179 146.989488 
L 438.31789 146.989488 
L 439.997601 150.294744 
L 441.677312 148.177843 
L 443.357023 144.074046 
L 445.036734 143.845909 
L 446.716445 146.860902 
L 448.396156 147.379301 
L 450.075867 146.860902 
L 451.755578 144.074046 
L 455.115 144.304304 
L 456.794711 143.959714 
L 458.474422 142.735739 
L 461.833844 139.484824 
L 463.513555 140.160377 
L 465.193266 142.092776 
L 466.872977 142.953825 
L 468.552689 141.67323 
L 470.2324 141.260676 
L 471.912111 141.569445 
L 473.591822 143.845909 
L 475.271533 142.953825 
L 476.951244 143.619856 
L 478.630955 143.395848 
L 480.310666 144.536725 
L 481.990377 144.889501 
L 483.670088 144.188907 
L 485.349799 144.074046 
L 487.02951 145.610503 
L 488.709221 146.353138 
L 490.388932 150.147843 
L 492.068643 151.657619 
L 493.748354 153.6 
L 495.428065 154.985125 
L 497.107776 155.525204 
L 498.787487 157.219963 
L 500.467198 157.415638 
L 502.146909 157.415638 
L 503.82662 156.833195 
L 505.506331 155.343865 
L 507.186042 154.807686 
L 508.865753 155.163845 
L 510.545464 153.939082 
L 512.225175 155.891917 
L 513.904886 157.025824 
L 515.584597 153.432184 
L 517.264308 155.163845 
L 518.944019 158.214179 
L 520.62373 158.012116 
L 522.303441 156.642054 
L 523.983152 155.891917 
L 525.662863 154.807686 
L 527.342574 157.025824 
L 529.022285 154.807686 
L 530.701996 153.939082 
L 532.381707 154.282875 
L 534.061418 156.833195 
L 535.741129 158.623324 
L 537.42084 154.985125 
L 539.100551 156.452378 
L 540.780262 154.985125 
L 542.459973 153.265499 
L 544.139684 152.448506 
L 545.819395 151.50243 
L 547.499106 149.712302 
L 549.178817 149.856632 
L 550.858528 150.294744 
L 552.538239 154.282875 
L 554.21795 155.707881 
L 555.897661 155.525204 
L 557.577372 155.525204 
L 559.257083 154.985125 
L 560.936794 158.623324 
L 562.616505 157.811688 
L 564.296217 154.631509 
L 565.975928 154.631509 
L 567.655639 155.525204 
L 569.33535 155.525204 
L 572.694772 157.025824 
L 574.374483 158.012116 
L 576.054194 159.462477 
L 577.733905 159.892969 
L 581.093327 161.231276 
L 582.773038 162.889968 
L 584.452749 163.636336 
L 586.13246 163.890211 
L 587.812171 166.020786 
L 589.491882 168.352169 
L 591.171593 168.048452 
L 592.851304 168.352169 
L 594.531015 166.583371 
L 596.210726 166.869532 
L 597.890437 166.869532 
L 599.570148 166.583371 
L 601.249859 166.020786 
L 602.92957 166.020786 
L 604.609281 166.869532 
L 606.288992 171.964916 
L 607.968703 174.183054 
L 609.648414 176.619707 
L 611.328125 179.803328 
L 613.007836 181.825076 
L 614.687547 181.825076 
L 616.367258 182.357411 
L 618.046969 181.303948 
L 619.72668 179.322679 
L 621.406391 180.293495 
L 623.086102 177.934316 
L 624.765813 173.799284 
L 626.445524 174.968918 
L 628.125235 173.421374 
L 629.804946 173.049147 
L 631.484657 171.267612 
L 633.164368 169.286343 
L 634.844079 168.352169 
L 636.52379 170.257159 
L 638.203501 170.589414 
L 639.883212 172.321075 
L 641.562923 174.572868 
L 643.242634 175.371409 
L 644.922345 177.934316 
L 646.602056 182.357411 
L 648.281767 184.026762 
L 649.961478 182.901447 
L 651.641189 182.901447 
L 653.3209 183.45771 
L 655.000611 187.086535 
L 656.680322 187.746644 
L 658.360033 180.793566 
L 660.039745 180.293495 
L 663.399167 183.45771 
L 665.078878 185.205682 
L 666.758589 187.746644 
L 668.4383 187.086535 
L 670.118011 195.545736 
L 671.797722 193.776937 
L 675.157144 193.776937 
L 676.836855 195.545736 
L 678.516566 195.545736 
L 680.196277 198.461178 
L 681.875988 199.514641 
L 683.555699 202.97412 
L 685.23541 202.97412 
L 686.915121 199.514641 
L 688.594832 199.514641 
L 690.274543 200.61494 
L 693.633965 200.61494 
L 696.993387 202.97412 
L 698.673098 206.996894 
L 700.352809 210.095014 
L 702.03252 213.637139 
L 703.712231 211.80277 
L 707.071653 215.618408 
L 708.751364 215.618408 
L 710.431075 213.637139 
L 712.110786 217.77217 
L 713.790497 215.618408 
L 715.470208 220.13135 
L 717.149919 222.739302 
L 718.82963 222.739302 
L 720.509341 220.13135 
L 722.189052 220.13135 
L 723.868763 217.77217 
L 728.907896 217.77217 
L 730.587607 215.618408 
L 732.267318 217.77217 
L 733.947029 220.13135 
L 735.62674 222.739302 
L 737.306451 225.654744 
L 738.986162 222.739302 
L 740.665873 220.13135 
L 742.345584 222.739302 
L 749.064428 222.739302 
L 750.744139 225.654744 
L 752.42385 228.96 
L 755.783273 228.96 
L 757.462984 225.654744 
L 770.900672 225.654744 
L 772.580383 222.739302 
L 774.260094 222.739302 
L 775.939805 220.13135 
L 779.299227 220.13135 
L 780.978938 222.739302 
L 782.658649 220.13135 
L 784.33836 220.13135 
L 786.018071 213.637139 
L 787.697782 213.637139 
L 789.377493 208.497514 
L 792.736915 208.497514 
L 794.416626 206.996894 
L 796.096337 208.497514 
L 797.776048 213.637139 
L 799.455759 215.618408 
L 801.13547 222.739302 
L 804.494892 222.739302 
L 806.174603 220.13135 
L 816.252869 220.13135 
L 817.93258 228.96 
L 864.964489 228.96 
L 866.6442 225.654744 
L 866.6442 225.654744 
" clip-path="url(#pb231061a3e)" style="fill: none; stroke: #d3d3d3; stroke-width: 2; stroke-linecap: square"/>
   </g>
   <g id="patch_3">
    <path d="M 53.328125 228.96 
L 53.328125 7.2 
" style="fill: none; stroke: #000000; stroke-width: 0.8; stroke-linejoin: miter; stroke-linecap: square"/>
   </g>
   <g id="patch_4">
    <path d="M 53.328125 228.96 
L 1169.328125 228.96 
" style="fill: none; stroke: #000000; stroke-width: 0.8; stroke-linejoin: miter; stroke-linecap: square"/>
   </g>
   <g id="legend_1">
    <g id="line2d_27">
     <path d="M 1075.516875 17.67875 
L 1083.516875 17.67875 
L 1091.516875 17.67875 
" style="fill: none; stroke: #947383; stroke-width: 2; stroke-linecap: square"/>
    </g>
    <g id="text_22">
     <!-- United Kingdom -->
     <g transform="translate(1097.916875 20.47875)scale(0.08 -0.08)">
      <defs>
       <path id="DejaVuSans-55" d="M 556 4666 
L 1191 4666 
L 1191 1831 
Q 1191 1081 1462 751 
Q 1734 422 2344 422 
Q 2950 422 3222 751 
Q 3494 1081 3494 1831 
L 3494 4666 
L 4128 4666 
L 4128 1753 
Q 4128 841 3676 375 
Q 3225 -91 2344 -91 
Q 1459 -91 1007 375 
Q 556 841 556 1753 
L 556 4666 
z
" transform="scale(0.015625)"/>
       <path id="DejaVuSans-4b" d="M 628 4666 
L 1259 4666 
L 1259 2694 
L 3353 4666 
L 4166 4666 
L 1850 2491 
L 4331 0 
L 3500 0 
L 1259 2247 
L 1259 0 
L 628 0 
L 628 4666 
z
" transform="scale(0.015625)"/>
       <path id="DejaVuSans-6d" d="M 3328 2828 
Q 3544 3216 3844 3400 
Q 4144 3584 4550 3584 
Q 5097 3584 5394 3201 
Q 5691 2819 5691 2113 
L 5691 0 
L 5113 0 
L 5113 2094 
Q 5113 2597 4934 2840 
Q 4756 3084 4391 3084 
Q 3944 3084 3684 2787 
Q 3425 2491 3425 1978 
L 3425 0 
L 2847 0 
L 2847 2094 
Q 2847 2600 2669 2842 
Q 2491 3084 2119 3084 
Q 1678 3084 1418 2786 
Q 1159 2488 1159 1978 
L 1159 0 
L 581 0 
L 581 3500 
L 1159 3500 
L 1159 2956 
Q 1356 3278 1631 3431 
Q 1906 3584 2284 3584 
Q 2666 3584 2933 3390 
Q 3200 3197 3328 2828 
z
" transform="scale(0.015625)"/>
      </defs>
      <use xlink:href="#DejaVuSans-55"/>
      <use xlink:href="#DejaVuSans-6e" x="73.193359"/>
      <use xlink:href="#DejaVuSans-69" x="136.572266"/>
      <use xlink:href="#DejaVuSans-74" x="164.355469"/>
      <use xlink:href="#DejaVuSans-65" x="203.564453"/>
      <use xlink:href="#DejaVuSans-64" x="265.087891"/>
      <use xlink:href="#DejaVuSans-20" x="328.564453"/>
      <use xlink:href="#DejaVuSans-4b" x="360.351562"/>
      <use xlink:href="#DejaVuSans-69" x="425.927734"/>
      <use xlink:href="#DejaVuSans-6e" x="453.710938"/>
      <use xlink:href="#DejaVuSans-67" x="517.089844"/>
      <use xlink:href="#DejaVuSans-64" x="580.566406"/>
      <use xlink:href="#DejaVuSans-6f" x="644.042969"/>
      <use xlink:href="#DejaVuSans-6d" x="705.224609"/>
     </g>
    </g>
    <g id="line2d_28">
     <path d="M 1075.516875 29.42125 
L 1083.516875 29.42125 
L 1091.516875 29.42125 
" style="fill: none; stroke: #96c6ad; stroke-width: 2; stroke-linecap: square"/>
    </g>
    <g id="text_23">
     <!-- Europe -->
     <g transform="translate(1097.916875 32.22125)scale(0.08 -0.08)">
      <defs>
       <path id="DejaVuSans-45" d="M 628 4666 
L 3578 4666 
L 3578 4134 
L 1259 4134 
L 1259 2753 
L 3481 2753 
L 3481 2222 
L 1259 2222 
L 1259 531 
L 3634 531 
L 3634 0 
L 628 0 
L 628 4666 
z
" transform="scale(0.015625)"/>
       <path id="DejaVuSans-70" d="M 1159 525 
L 1159 -1331 
L 581 -1331 
L 581 3500 
L 1159 3500 
L 1159 2969 
Q 1341 3281 1617 3432 
Q 1894 3584 2278 3584 
Q 2916 3584 3314 3078 
Q 3713 2572 3713 1747 
Q 3713 922 3314 415 
Q 2916 -91 2278 -91 
Q 1894 -91 1617 61 
Q 1341 213 1159 525 
z
M 3116 1747 
Q 3116 2381 2855 2742 
Q 2594 3103 2138 3103 
Q 1681 3103 1420 2742 
Q 1159 2381 1159 1747 
Q 1159 1113 1420 752 
Q 1681 391 2138 391 
Q 2594 391 2855 752 
Q 3116 1113 3116 1747 
z
" transform="scale(0.015625)"/>
      </defs>
      <use xlink:href="#DejaVuSans-45"/>
      <use xlink:href="#DejaVuSans-75" x="63.183594"/>
      <use xlink:href="#DejaVuSans-72" x="126.5625"/>
      <use xlink:href="#DejaVuSans-6f" x="165.425781"/>
      <use xlink:href="#DejaVuSans-70" x="226.607422"/>
      <use xlink:href="#DejaVuSans-65" x="290.083984"/>
     </g>
    </g>
    <g id="line2d_29">
     <path d="M 1075.516875 41.16375 
L 1083.516875 41.16375 
L 1091.516875 41.16375 
" style="fill: none; stroke: #525886; stroke-width: 2; stroke-linecap: square"/>
    </g>
    <g id="text_24">
     <!-- North America -->
     <g transform="translate(1097.916875 43.96375)scale(0.08 -0.08)">
      <defs>
       <path id="DejaVuSans-4e" d="M 628 4666 
L 1478 4666 
L 3547 763 
L 3547 4666 
L 4159 4666 
L 4159 0 
L 3309 0 
L 1241 3903 
L 1241 0 
L 628 0 
L 628 4666 
z
" transform="scale(0.015625)"/>
       <path id="DejaVuSans-68" d="M 3513 2113 
L 3513 0 
L 2938 0 
L 2938 2094 
Q 2938 2591 2744 2837 
Q 2550 3084 2163 3084 
Q 1697 3084 1428 2787 
Q 1159 2491 1159 1978 
L 1159 0 
L 581 0 
L 581 4863 
L 1159 4863 
L 1159 2956 
Q 1366 3272 1645 3428 
Q 1925 3584 2291 3584 
Q 2894 3584 3203 3211 
Q 3513 2838 3513 2113 
z
" transform="scale(0.015625)"/>
       <path id="DejaVuSans-41" d="M 2188 4044 
L 1331 1722 
L 3047 1722 
L 2188 4044 
z
M 1831 4666 
L 2547 4666 
L 4325 0 
L 3669 0 
L 3244 1197 
L 1141 1197 
L 716 0 
L 50 0 
L 1831 4666 
z
" transform="scale(0.015625)"/>
       <path id="DejaVuSans-63" d="M 3122 3366 
L 3122 2828 
Q 2878 2963 2633 3030 
Q 2388 3097 2138 3097 
Q 1578 3097 1268 2742 
Q 959 2388 959 1747 
Q 959 1106 1268 751 
Q 1578 397 2138 397 
Q 2388 397 2633 464 
Q 2878 531 3122 666 
L 3122 134 
Q 2881 22 2623 -34 
Q 2366 -91 2075 -91 
Q 1284 -91 818 406 
Q 353 903 353 1747 
Q 353 2603 823 3093 
Q 1294 3584 2113 3584 
Q 2378 3584 2631 3529 
Q 2884 3475 3122 3366 
z
" transform="scale(0.015625)"/>
      </defs>
      <use xlink:href="#DejaVuSans-4e"/>
      <use xlink:href="#DejaVuSans-6f" x="74.804688"/>
      <use xlink:href="#DejaVuSans-72" x="135.986328"/>
      <use xlink:href="#DejaVuSans-74" x="177.099609"/>
      <use xlink:href="#DejaVuSans-68" x="216.308594"/>
      <use xlink:href="#DejaVuSans-20" x="279.6875"/>
      <use xlink:href="#DejaVuSans-41" x="311.474609"/>
      <use xlink:href="#DejaVuSans-6d" x="379.882812"/>
      <use xlink:href="#DejaVuSans-65" x="477.294922"/>
      <use xlink:href="#DejaVuSans-72" x="538.818359"/>
      <use xlink:href="#DejaVuSans-69" x="579.931641"/>
      <use xlink:href="#DejaVuSans-63" x="607.714844"/>
      <use xlink:href="#DejaVuSans-61" x="662.695312"/>
     </g>
    </g>
    <g id="line2d_30">
     <path d="M 1075.516875 52.90625 
L 1083.516875 52.90625 
L 1091.516875 52.90625 
" style="fill: none; stroke: #937252; stroke-width: 2; stroke-linecap: square"/>
    </g>
    <g id="text_25">
     <!-- Oceania -->
     <g transform="translate(1097.916875 55.70625)scale(0.08 -0.08)">
      <defs>
       <path id="DejaVuSans-4f" d="M 2522 4238 
Q 1834 4238 1429 3725 
Q 1025 3213 1025 2328 
Q 1025 1447 1429 934 
Q 1834 422 2522 422 
Q 3209 422 3611 934 
Q 4013 1447 4013 2328 
Q 4013 3213 3611 3725 
Q 3209 4238 2522 4238 
z
M 2522 4750 
Q 3503 4750 4090 4092 
Q 4678 3434 4678 2328 
Q 4678 1225 4090 567 
Q 3503 -91 2522 -91 
Q 1538 -91 948 565 
Q 359 1222 359 2328 
Q 359 3434 948 4092 
Q 1538 4750 2522 4750 
z
" transform="scale(0.015625)"/>
      </defs>
      <use xlink:href="#DejaVuSans-4f"/>
      <use xlink:href="#DejaVuSans-63" x="78.710938"/>
      <use xlink:href="#DejaVuSans-65" x="133.691406"/>
      <use xlink:href="#DejaVuSans-61" x="195.214844"/>
      <use xlink:href="#DejaVuSans-6e" x="256.494141"/>
      <use xlink:href="#DejaVuSans-69" x="319.873047"/>
      <use xlink:href="#DejaVuSans-61" x="347.65625"/>
     </g>
    </g>
    <g id="line2d_31">
     <path d="M 1075.516875 64.64875 
L 1083.516875 64.64875 
L 1091.516875 64.64875 
" style="fill: none; stroke: #d18cad; stroke-width: 2; stroke-linecap: square"/>
    </g>
    <g id="text_26">
     <!-- Asia -->
     <g transform="translate(1097.916875 67.44875)scale(0.08 -0.08)">
      <defs>
       <path id="DejaVuSans-73" d="M 2834 3397 
L 2834 2853 
Q 2591 2978 2328 3040 
Q 2066 3103 1784 3103 
Q 1356 3103 1142 2972 
Q 928 2841 928 2578 
Q 928 2378 1081 2264 
Q 1234 2150 1697 2047 
L 1894 2003 
Q 2506 1872 2764 1633 
Q 3022 1394 3022 966 
Q 3022 478 2636 193 
Q 2250 -91 1575 -91 
Q 1294 -91 989 -36 
Q 684 19 347 128 
L 347 722 
Q 666 556 975 473 
Q 1284 391 1588 391 
Q 1994 391 2212 530 
Q 2431 669 2431 922 
Q 2431 1156 2273 1281 
Q 2116 1406 1581 1522 
L 1381 1569 
Q 847 1681 609 1914 
Q 372 2147 372 2553 
Q 372 3047 722 3315 
Q 1072 3584 1716 3584 
Q 2034 3584 2315 3537 
Q 2597 3491 2834 3397 
z
" transform="scale(0.015625)"/>
      </defs>
      <use xlink:href="#DejaVuSans-41"/>
      <use xlink:href="#DejaVuSans-73" x="68.408203"/>
      <use xlink:href="#DejaVuSans-69" x="120.507812"/>
      <use xlink:href="#DejaVuSans-61" x="148.291016"/>
     </g>
    </g>
    <g id="line2d_32">
     <path d="M 1075.516875 76.39125 
L 1083.516875 76.39125 
L 1091.516875 76.39125 
" style="fill: none; stroke: #a4a86f; stroke-width: 2; stroke-linecap: square"/>
    </g>
    <g id="text_27">
     <!-- Africa -->
     <g transform="translate(1097.916875 79.19125)scale(0.08 -0.08)">
      <defs>
       <path id="DejaVuSans-66" d="M 2375 4863 
L 2375 4384 
L 1825 4384 
Q 1516 4384 1395 4259 
Q 1275 4134 1275 3809 
L 1275 3500 
L 2222 3500 
L 2222 3053 
L 1275 3053 
L 1275 0 
L 697 0 
L 697 3053 
L 147 3053 
L 147 3500 
L 697 3500 
L 697 3744 
Q 697 4328 969 4595 
Q 1241 4863 1831 4863 
L 2375 4863 
z
" transform="scale(0.015625)"/>
      </defs>
      <use xlink:href="#DejaVuSans-41"/>
      <use xlink:href="#DejaVuSans-66" x="64.783203"/>
      <use xlink:href="#DejaVuSans-72" x="99.988281"/>
      <use xlink:href="#DejaVuSans-69" x="141.101562"/>
      <use xlink:href="#DejaVuSans-63" x="168.884766"/>
      <use xlink:href="#DejaVuSans-61" x="223.865234"/>
     </g>
    </g>
    <g id="line2d_33">
     <path d="M 1075.516875 88.13375 
L 1083.516875 88.13375 
L 1091.516875 88.13375 
" style="fill: none; stroke: #d3d3d3; stroke-width: 2; stroke-linecap: square"/>
    </g>
    <g id="text_28">
     <!-- South America -->
     <g transform="translate(1097.916875 90.93375)scale(0.08 -0.08)">
      <defs>
       <path id="DejaVuSans-53" d="M 3425 4513 
L 3425 3897 
Q 3066 4069 2747 4153 
Q 2428 4238 2131 4238 
Q 1616 4238 1336 4038 
Q 1056 3838 1056 3469 
Q 1056 3159 1242 3001 
Q 1428 2844 1947 2747 
L 2328 2669 
Q 3034 2534 3370 2195 
Q 3706 1856 3706 1288 
Q 3706 609 3251 259 
Q 2797 -91 1919 -91 
Q 1588 -91 1214 -16 
Q 841 59 441 206 
L 441 856 
Q 825 641 1194 531 
Q 1563 422 1919 422 
Q 2459 422 2753 634 
Q 3047 847 3047 1241 
Q 3047 1584 2836 1778 
Q 2625 1972 2144 2069 
L 1759 2144 
Q 1053 2284 737 2584 
Q 422 2884 422 3419 
Q 422 4038 858 4394 
Q 1294 4750 2059 4750 
Q 2388 4750 2728 4690 
Q 3069 4631 3425 4513 
z
" transform="scale(0.015625)"/>
      </defs>
      <use xlink:href="#DejaVuSans-53"/>
      <use xlink:href="#DejaVuSans-6f" x="63.476562"/>
      <use xlink:href="#DejaVuSans-75" x="124.658203"/>
      <use xlink:href="#DejaVuSans-74" x="188.037109"/>
      <use xlink:href="#DejaVuSans-68" x="227.246094"/>
      <use xlink:href="#DejaVuSans-20" x="290.625"/>
      <use xlink:href="#DejaVuSans-41" x="322.412109"/>
      <use xlink:href="#DejaVuSans-6d" x="390.820312"/>
      <use xlink:href="#DejaVuSans-65" x="488.232422"/>
      <use xlink:href="#DejaVuSans-72" x="549.755859"/>
      <use xlink:href="#DejaVuSans-69" x="590.869141"/>
      <use xlink:href="#DejaVuSans-63" x="618.652344"/>
      <use xlink:href="#DejaVuSans-61" x="673.632812"/>
     </g>
    </g>
   </g>
  </g>
 </g>
 <defs>
  <clipPath id="pb231061a3e">
   <rect x="53.328125" y="7.2" width="1116" height="221.76"/>
  </clipPath>
 </defs>
</svg>
