<svg version="1.1" viewBox="0.000000 0.000000 690.660000 117.170000" xmlns="http://www.w3.org/2000/svg" xmlns:xlink="http://www.w3.org/1999/xlink" overflow="hidden"><defs></defs><g id="Layer_1"><path d=" M 85.650002 37.720001 C 83.533203 37.723000 81.419899 37.893501 79.330002 38.230000 C 80.031601 58.210999 65.779404 75.602303 46.049999 78.839996 C 46.740700 97.709297 60.629299 113.480003 79.260002 116.550003 C 81.405899 116.898003 83.575996 117.075996 85.750000 117.080002 C 107.665001 117.039001 125.397003 99.241402 125.357002 77.326698 C 125.320999 57.934399 111.273003 41.408798 92.139999 38.250000 C 89.994102 37.901501 87.823997 37.724300 85.650002 37.720001" fill="#3B7383" opacity="0.330000"/><path d=" M 39.630001 0.000000 C 17.718500 0.374401 0.259304 18.440701 0.633705 40.352100 C 0.999754 61.774799 18.306499 79.037903 39.730000 79.349998 C 41.847000 79.351799 43.960701 79.181297 46.049999 78.839996 C 45.325901 58.851398 59.588699 41.447201 79.330002 38.230000 C 78.538902 16.880400 60.994202 -0.014655 39.630001 -0.000004" fill="#A185BC"/><path d=" M 79.330002 38.230000 C 59.588699 41.447201 45.325901 58.851398 46.049999 78.839996 C 65.779404 75.602303 80.031601 58.210999 79.330002 38.230000" fill="#917AB1"/><path d=" M 106.250000 76.769997 C 106.264999 76.543602 106.264999 76.316399 106.250000 76.089996 C 106.250000 75.900002 106.250000 75.709999 106.250000 75.519997 C 106.250000 75.330002 106.190002 75.019997 106.150002 74.779999 C 106.114998 74.500900 106.065002 74.223801 106.000000 73.949997 C 106.000000 73.800003 105.949997 73.650002 105.910004 73.500000 C 105.870003 73.349998 105.839996 73.169998 105.800003 73.010002 L 105.709999 72.690002 C 105.668999 72.504204 105.619003 72.320702 105.559998 72.139999 C 105.559998 71.949997 105.449997 71.769997 105.389999 71.589996 L 105.309998 71.349998 C 105.230003 71.129997 105.160004 70.910004 105.080002 70.699997 L 105.000000 70.500000 C 104.900002 70.250000 104.800003 70.010002 104.690002 69.769997 L 104.690002 69.699997 C 104.599998 69.500000 104.510002 69.290001 104.400002 69.089996 L 104.260002 68.790001 L 103.989998 68.269997 L 103.699997 68.000000 C 103.620003 67.853302 103.529999 67.703300 103.430000 67.550003 C 103.357002 67.415604 103.277000 67.285400 103.190002 67.160004 C 103.110001 67.019997 103.019997 66.879997 102.930000 66.739998 L 102.760002 66.510002 C 102.620003 66.290001 102.470001 66.080002 102.309998 65.870003 C 102.150002 65.660004 101.980003 65.440002 101.809998 65.220001 L 101.690002 65.080002 C 101.550003 64.910004 101.400002 64.730003 101.239998 64.559998 L 101.089996 64.389999 C 100.919998 64.209999 100.760002 64.029999 100.580002 63.849998 L 100.519997 63.790001 C 100.330002 63.590000 100.129997 63.400002 99.919998 63.200001 L 99.279999 62.619999 L 99.199997 62.560001 C 98.989998 62.380001 98.769997 62.200001 98.550003 62.040001 C 98.330002 61.880001 98.080002 61.680000 97.839996 61.509998 L 97.779999 61.509998 L 97.080002 61.040001 L 96.300003 60.570000 C 96.040001 60.419998 95.769997 60.270000 95.489998 60.130001 L 94.669998 59.730000 C 94.290001 59.549999 93.900002 59.389999 93.500000 59.230000 L 93.000000 59.000000 C 92.739998 58.900002 92.480003 58.820000 92.209999 58.740002 C 91.940002 58.660000 91.589996 58.549999 91.209999 58.470001 L 91.000000 58.400002 C 90.730003 58.330002 90.440002 58.270000 90.150002 58.220001 C 89.846199 58.151299 89.539200 58.097900 89.230003 58.060001 L 89.139999 58.060001 C 79.542397 56.704102 70.773598 51.880402 64.489998 44.500000 L 64.489998 44.500000 C 61.711899 41.242401 59.476601 37.558498 57.869999 33.590000 L 57.660000 33.090000 C 53.331100 22.963900 41.612999 18.264400 31.487000 22.593300 C 28.541201 23.852699 25.942200 25.803301 23.910000 28.280001 C 23.719999 28.540001 23.520000 28.790001 23.320000 29.040001 C 19.319000 34.447601 18.304501 41.504299 20.620001 47.820000 L 20.620001 47.820000 C 20.750000 48.110001 20.870001 48.400002 20.980000 48.700001 L 20.980000 48.700001 C 23.701099 55.100601 29.566401 59.616100 36.450001 60.610001 L 36.450001 60.610001 C 39.447601 61.032398 42.386799 61.797401 45.209999 62.889999 C 45.830002 63.119999 46.430000 63.369999 47.020000 63.639999 L 47.020000 63.639999 C 47.590000 63.900002 48.160000 64.169998 48.709999 64.449997 L 48.709999 64.449997 L 48.770000 64.449997 L 48.770000 64.449997 C 57.253101 68.730698 63.935398 75.891502 67.620003 84.650002 L 67.620003 84.709999 C 67.760002 85.040001 67.889999 85.370003 68.019997 85.709999 C 68.150002 86.050003 68.330002 86.400002 68.510002 86.709999 C 68.690002 87.019997 68.800003 87.269997 68.949997 87.550003 L 69.099998 87.809998 L 69.099998 87.809998 C 69.239998 88.059998 69.400002 88.309998 69.559998 88.550003 C 69.720001 88.790001 69.930000 89.110001 70.129997 89.379997 L 70.379997 89.720001 L 70.379997 89.720001 C 70.559998 89.959999 70.750000 90.190002 70.940002 90.419998 C 71.129997 90.650002 71.419998 90.989998 71.669998 91.260002 L 71.669998 91.260002 C 71.919998 91.529999 72.180000 91.790001 72.449997 92.050003 C 72.720001 92.309998 73.000000 92.559998 73.300003 92.809998 C 73.599998 93.059998 73.879997 93.290001 74.180000 93.529999 L 74.760002 93.949997 C 75.089996 94.180000 75.430000 94.410004 75.760002 94.610001 C 76.089996 94.809998 76.300003 94.940002 76.570000 95.089996 L 77.190002 95.419998 L 78.190002 95.889999 L 79.190002 96.300003 C 79.540001 96.430000 79.900002 96.559998 80.260002 96.669998 L 80.930000 96.860001 L 81.459999 97.000000 L 81.839996 97.089996 L 82.459999 97.220001 L 83.379997 97.379997 L 83.470001 97.379997 L 84.400002 97.489998 C 94.944504 98.413498 104.383003 90.961197 105.930000 80.489998 C 106.150002 79.262398 106.258003 78.017197 106.250000 76.769997 Z" fill="#673C90"/><path d=" M 82.620003 97.580002 C 71.502899 95.750900 63.973400 85.255898 65.802498 74.138802 C 67.631599 63.021599 78.126602 55.492199 89.243698 57.321301 C 100.361000 59.150398 107.889999 69.645302 106.060997 80.762497 C 106.060997 80.764999 106.059998 80.767502 106.059998 80.769997 C 104.226997 91.883499 93.734200 99.408600 82.620003 97.580002 Z" fill="#B05EA0"/><path d=" M 118.519997 49.700001 C 107.723999 47.925499 100.411003 37.735100 102.184998 26.939199 C 103.959999 16.143299 114.150002 8.830090 124.945999 10.604600 C 135.742004 12.379100 143.054993 22.569500 141.281006 33.365398 C 141.279999 33.366901 141.279999 33.368500 141.279999 33.369999 C 139.498001 44.160500 129.313004 51.468399 118.519997 49.700001 Z" fill="#673C90"/><path d=" M 171.160004 53.299999 C 169.699997 53.410000 168.380005 53.470001 167.210007 53.470001 C 163.210007 53.470001 160.292999 52.993301 158.460007 52.040001 C 156.639999 51.090000 155.399994 49.259998 154.759995 46.540001 C 154.119995 43.820000 153.759995 39.439999 153.759995 33.400002 C 153.759995 27.360001 154.089996 23.040001 154.759995 20.320000 C 155.429993 17.600000 156.639999 15.760000 158.460007 14.790000 C 160.279999 13.820000 163.190002 13.340000 167.210007 13.340000 C 168.520004 13.342300 169.828995 13.419100 171.130005 13.570000 C 172.529999 13.720000 173.710007 13.890000 174.649994 14.080000 L 174.649994 16.870001 C 172.431000 16.547800 170.192001 16.377399 167.949997 16.360001 C 164.462997 16.360001 162.020004 16.709999 160.619995 17.410000 C 159.220001 18.110001 158.289993 19.573299 157.830002 21.799999 C 157.264008 25.639299 157.035995 29.520901 157.149994 33.400002 C 157.035995 37.279099 157.263000 41.160801 157.830002 45.000000 C 158.276993 47.226700 159.207001 48.689999 160.619995 49.389999 C 162.033005 50.090000 164.477005 50.423302 167.949997 50.389999 C 170.270004 50.394501 172.585999 50.223999 174.880005 49.880001 L 174.880005 52.790001 C 173.860001 53.000000 172.619995 53.180000 171.160004 53.299999 Z" fill="#673C90"/><path d=" M 203.470001 39.560001 L 185.399994 39.560001 C 185.317001 41.955898 185.498001 44.353699 185.940002 46.709999 C 186.186996 48.038101 187.037003 49.176102 188.240005 49.790001 C 190.085007 50.494499 192.059006 50.794601 194.029999 50.669998 C 195.320007 50.669998 196.750000 50.610001 198.330002 50.470001 C 199.727997 50.362499 201.119995 50.182201 202.500000 49.930000 L 202.500000 52.669998 C 201.181000 52.949100 199.845001 53.139500 198.500000 53.240002 C 196.789993 53.389999 195.119995 53.470001 193.500000 53.470001 C 190.119995 53.470001 187.656998 53.040001 186.110001 52.180000 C 184.501007 51.265099 183.369995 49.695599 183.009995 47.880001 C 182.399994 44.802601 182.141998 41.665798 182.240005 38.529999 C 182.156006 35.420399 182.367004 32.309799 182.869995 29.240000 C 183.173996 27.427299 184.250000 25.836100 185.820007 24.879999 C 187.380005 23.953300 189.919998 23.486700 193.440002 23.480000 C 196.580002 23.480000 198.860001 23.930000 200.259995 24.820000 C 201.716003 25.803699 202.686996 27.359400 202.929993 29.100000 C 203.388000 32.184502 203.578995 35.302700 203.500000 38.419998 Z M 188.000000 27.049999 C 186.882004 27.631901 186.104004 28.706499 185.899994 29.950001 C 185.488998 32.259499 185.317993 34.605301 185.389999 36.950001 L 200.330002 36.950001 L 200.330002 36.099998 C 200.410995 33.907101 200.212997 31.712900 199.740005 29.570000 C 199.496994 28.427500 198.766006 27.448400 197.740005 26.889999 C 196.320999 26.381800 194.815002 26.160900 193.309998 26.240000 C 191.503006 26.137400 189.694000 26.413300 188.000000 27.049999 Z" fill="#673C90"/><path d=" M 230.470001 35.680000 C 230.544006 33.617001 230.373001 31.552601 229.960007 29.530001 C 229.751999 28.435400 229.046005 27.500099 228.050003 27.000000 C 226.582001 26.496401 225.029999 26.282499 223.479996 26.370001 C 221.093002 26.370001 219.356995 26.836700 218.270004 27.770000 C 217.188995 28.709101 216.479996 30.003700 216.270004 31.420000 C 215.957001 33.578602 215.822998 35.759399 215.869995 37.939999 L 215.869995 53.000000 L 212.690002 53.000000 L 212.690002 23.940001 L 215.410004 23.940001 L 215.639999 28.270000 L 215.869995 28.270000 C 216.352005 26.808701 217.328003 25.560699 218.630005 24.740000 C 219.929993 23.900000 221.929993 23.480000 224.630005 23.480000 C 226.626999 23.360800 228.621002 23.745899 230.429993 24.600000 C 231.707001 25.343599 232.632996 26.568300 233.000000 28.000000 C 233.498001 30.186800 233.716995 32.428101 233.649994 34.669998 L 233.649994 53.000000 L 230.470001 53.000000 Z" fill="#673C90"/><path d=" M 245.869995 53.000000 L 245.869995 26.730000 L 240.699997 26.730000 L 240.699997 23.940001 L 245.869995 23.940001 L 245.869995 15.500000 L 249.050003 15.500000 L 249.050003 23.940001 L 255.130005 23.940001 L 255.130005 26.730000 L 249.050003 26.730000 L 249.050003 53.000000 Z" fill="#673C90"/><path d=" M 262.290009 23.940001 L 265.000000 23.940001 L 265.230011 29.700001 L 265.459991 29.700001 C 265.764008 27.736500 266.845001 25.978001 268.459991 24.820000 C 270.204010 23.857100 272.179993 23.393499 274.170013 23.480000 L 274.170013 26.730000 C 272.285004 26.618799 270.411987 27.086300 268.799988 28.070000 C 267.509003 29.041800 266.593994 30.430300 266.209991 32.000000 C 265.664001 34.227299 265.417999 36.517601 265.480011 38.810001 L 265.480011 53.000000 L 262.290009 53.000000 Z" fill="#673C90"/><path d=" M 301.170013 39.560001 L 283.100006 39.560001 C 283.016998 41.955898 283.197998 44.353699 283.640015 46.709999 C 283.890991 48.036201 284.739990 49.172600 285.940002 49.790001 C 287.785004 50.494499 289.759003 50.794601 291.730011 50.669998 C 293.019989 50.669998 294.450012 50.610001 296.029999 50.470001 C 297.428009 50.362499 298.820007 50.182201 300.200012 49.930000 L 300.200012 52.669998 C 298.881012 52.949100 297.545013 53.139500 296.200012 53.240002 C 294.489990 53.389999 292.820007 53.470001 291.200012 53.470001 C 287.820007 53.470001 285.356995 53.040001 283.809998 52.180000 C 282.200989 51.265099 281.070007 49.695599 280.709991 47.880001 C 280.100006 44.802601 279.842010 41.665798 279.940002 38.529999 C 279.855988 35.420399 280.066986 32.309799 280.570007 29.240000 C 280.873993 27.427299 281.950012 25.836100 283.519989 24.879999 C 285.079987 23.953300 287.619995 23.486700 291.140015 23.480000 C 294.279999 23.480000 296.559998 23.930000 297.959991 24.820000 C 299.415985 25.803699 300.386993 27.359400 300.630005 29.100000 C 301.088013 32.184502 301.278992 35.302700 301.200012 38.419998 Z M 285.709991 27.049999 C 284.592010 27.631901 283.813995 28.706499 283.609985 29.950001 C 283.199005 32.259499 283.028015 34.605301 283.100006 36.950001 L 298.000000 36.950001 L 298.000000 36.099998 C 298.080994 33.907101 297.882996 31.712900 297.410004 29.570000 C 297.166992 28.427500 296.436005 27.448400 295.410004 26.889999 C 293.990997 26.381800 292.484985 26.160900 290.980011 26.240000 C 289.186005 26.143000 287.391998 26.418800 285.709991 27.049999 Z" fill="#673C90"/><path d=" M 325.380005 26.730000 L 320.209991 26.730000 L 320.209991 23.940001 L 325.380005 23.940001 L 325.380005 18.350000 C 325.274994 16.602400 325.619995 14.857000 326.380005 13.280000 C 327.019012 12.184300 328.089996 11.407700 329.329987 11.140000 C 331.239990 10.766900 333.184998 10.605900 335.130005 10.660000 L 335.130005 13.220000 C 333.756012 13.175900 332.381989 13.303600 331.040009 13.600000 C 330.250000 13.755800 329.559998 14.229600 329.130005 14.910000 C 328.713013 15.806400 328.527008 16.793200 328.589996 17.780001 L 328.589996 23.940001 L 335.130005 23.940001 L 335.130005 26.730000 L 328.589996 26.730000 L 328.589996 53.000000 L 325.410004 53.000000 Z" fill="#673C90"/><path d=" M 344.540009 52.299999 C 342.977997 51.465599 341.902008 49.941502 341.640015 48.189999 C 341.127014 44.996899 340.916992 41.762600 341.010010 38.529999 C 340.915985 35.277401 341.127014 32.023300 341.640015 28.809999 C 341.910004 27.056499 342.981995 25.529301 344.540009 24.680000 C 346.046997 23.879999 348.546997 23.480000 352.040009 23.480000 C 355.532990 23.480000 358.042999 23.879999 359.570007 24.680000 C 361.109985 25.548599 362.175995 27.066299 362.470001 28.809999 C 362.997009 32.021702 363.214996 35.276699 363.119995 38.529999 C 363.214996 41.763401 362.997009 44.998402 362.470001 48.189999 C 362.183990 49.931999 361.114990 51.446800 359.570007 52.299999 C 358.070007 53.080002 355.559998 53.470001 352.040009 53.470001 C 348.519989 53.470001 346.019989 53.080002 344.540009 52.299999 Z M 357.609985 49.820000 C 358.744995 49.172199 359.490997 48.011101 359.609985 46.709999 C 359.916992 43.994801 360.040985 41.261902 359.980011 38.529999 C 360.040009 35.788101 359.915985 33.045300 359.609985 30.320000 C 359.485992 29.007900 358.743011 27.833900 357.609985 27.160000 C 356.549988 26.566700 354.692993 26.273300 352.040009 26.280001 C 349.380005 26.280001 347.540009 26.570000 346.500000 27.160000 C 345.394012 27.842300 344.674988 29.006001 344.559998 30.299999 C 344.252014 33.031898 344.127991 35.781502 344.190002 38.529999 C 344.128998 41.261902 344.252991 43.994801 344.559998 46.709999 C 344.665985 47.999401 345.388000 49.158100 346.500000 49.820000 C 347.500000 50.389999 349.380005 50.669998 352.040009 50.669998 C 354.700012 50.669998 356.549988 50.389999 357.609985 49.820000 Z" fill="#673C90"/><path d=" M 372.329987 23.940001 L 375.059998 23.940001 L 375.279999 29.700001 L 375.510010 29.700001 C 375.817993 27.737700 376.898010 25.980301 378.510010 24.820000 C 380.253998 23.857100 382.230011 23.393499 384.220001 23.480000 L 384.220001 26.730000 C 382.334991 26.618799 380.462006 27.086300 378.850006 28.070000 C 377.554993 29.040199 376.635986 30.428900 376.250000 32.000000 C 375.700012 34.226700 375.450989 36.517101 375.510010 38.810001 L 375.510010 53.000000 L 372.329987 53.000000 Z" fill="#673C90"/><path d=" M 417.059998 36.369999 L 417.059998 31.459999 L 429.109985 31.459999 L 429.109985 52.330002 C 427.286011 52.702702 425.442993 52.976501 423.589996 53.150002 C 421.510010 53.360001 419.649994 53.470001 418.019989 53.470001 C 413.820007 53.470001 410.700012 52.939999 408.670013 51.900002 C 406.523010 50.690701 405.002014 48.612701 404.500000 46.200001 C 403.739990 43.439999 403.359985 39.173302 403.359985 33.400002 C 403.359985 27.740000 403.747009 23.523300 404.519989 20.750000 C 405.063995 18.323200 406.601990 16.236601 408.760010 15.000000 C 410.799988 13.920000 413.907013 13.380000 418.079987 13.380000 C 420.045990 13.387300 422.009003 13.510900 423.959991 13.750000 C 425.640991 13.928600 427.311005 14.205800 428.959991 14.580000 L 428.959991 19.250000 C 427.670013 19.059999 426.190002 18.879999 424.500000 18.709999 C 422.809998 18.540001 421.440002 18.450001 420.380005 18.450001 C 417.856995 18.328699 415.329987 18.577999 412.880005 19.190001 C 411.470001 19.690001 410.510010 20.930000 409.980011 22.930000 C 409.450012 24.930000 409.179993 28.430000 409.179993 33.439999 C 409.089996 36.784401 409.290009 40.130402 409.779999 43.439999 C 410.179993 45.439999 410.983002 46.816700 412.190002 47.570000 C 413.397003 48.323299 415.369995 48.683300 418.109985 48.650002 C 419.897003 48.657600 421.683014 48.527199 423.450012 48.259998 L 423.450012 36.369999 Z" fill="#673C90"/><path d=" M 459.290009 40.299999 L 442.579987 40.299999 C 442.514008 42.189701 442.654999 44.080898 443.000000 45.939999 C 443.243011 46.986900 443.993988 47.842701 445.000000 48.220001 C 446.704010 48.730499 448.483002 48.943600 450.260010 48.849998 C 452.958008 48.806000 455.652008 48.615700 458.329987 48.279999 L 458.329987 52.610001 C 456.945007 52.930500 455.537994 53.141102 454.119995 53.240002 C 452.380005 53.389999 450.690002 53.470001 449.070007 53.470001 C 445.470001 53.470001 442.820007 53.000000 441.140015 52.070000 C 439.447998 51.141300 438.235992 49.532101 437.809998 47.650002 C 437.186005 44.652000 436.920990 41.590599 437.019989 38.529999 C 436.932007 35.511799 437.179993 32.493198 437.760010 29.530001 C 438.141998 27.645599 439.290985 26.004801 440.929993 25.000000 C 442.559998 24.000000 445.109985 23.510000 448.600006 23.510000 C 452.089996 23.510000 454.410004 24.000000 455.899994 24.969999 C 457.420013 25.967199 458.445007 27.563000 458.720001 29.360001 C 459.175995 32.387600 459.365997 35.449200 459.290009 38.509998 Z M 444.589996 28.730000 C 443.755005 29.219700 443.174988 30.048201 443.000000 31.000000 C 442.671997 32.784100 442.520996 34.596199 442.549988 36.410000 L 453.910004 36.410000 L 453.910004 36.130001 C 453.972992 34.351700 453.821991 32.572300 453.459991 30.830000 C 453.286011 29.904301 452.716003 29.100800 451.899994 28.629999 C 450.804993 28.208200 449.631989 28.024099 448.459991 28.090000 C 447.138000 28.008801 445.815002 28.227501 444.589996 28.730000 Z" fill="#673C90"/><path d=" M 483.899994 36.820000 C 483.954010 34.922600 483.829987 33.024300 483.529999 31.150000 C 483.420013 30.245199 482.904999 29.439400 482.130005 28.959999 C 481.007996 28.536400 479.807007 28.358999 478.609985 28.440001 C 477.247009 28.323500 475.885010 28.676399 474.750000 29.440001 C 473.862000 30.205900 473.290985 31.275700 473.149994 32.439999 C 472.890991 34.271500 472.777008 36.120602 472.809998 37.970001 L 472.809998 53.000000 L 467.299988 53.000000 L 467.299988 23.940001 L 472.299988 23.940001 L 472.529999 27.820000 L 472.929993 27.820000 C 473.489990 26.459299 474.489990 25.325600 475.769989 24.600000 C 477.386993 23.781500 479.188995 23.395599 481.000000 23.480000 C 482.864014 23.360800 484.723999 23.766100 486.369995 24.650000 C 487.591003 25.469999 488.453003 26.725599 488.779999 28.160000 C 489.260986 30.291800 489.471985 32.475498 489.410004 34.660000 L 489.410004 53.000000 L 483.899994 53.000000 Z" fill="#673C90"/><path d=" M 501.000000 52.209999 C 499.415985 51.331501 498.312988 49.784302 498.000000 48.000000 C 497.451996 44.851101 497.223999 41.654800 497.320007 38.459999 C 497.226990 35.258598 497.454010 32.055901 498.000000 28.900000 C 498.311005 27.119699 499.415009 25.577600 501.000000 24.709999 C 502.572998 23.889999 505.179993 23.480000 508.820007 23.480000 C 512.450012 23.480000 515.059998 23.889999 516.630005 24.709999 C 518.216980 25.575300 519.322021 27.118500 519.630005 28.900000 C 520.182007 32.061901 520.409973 35.271801 520.309998 38.480000 C 520.432983 41.665798 520.229004 44.855900 519.700012 48.000000 C 519.380981 49.776901 518.278992 51.315800 516.700012 52.189999 C 515.130005 53.029999 512.520020 53.450001 508.890015 53.450001 C 505.260010 53.450001 502.600006 53.049999 501.000000 52.209999 Z M 513.080017 48.110001 C 513.958984 47.518700 514.507019 46.547798 514.559998 45.490002 C 514.796021 43.164600 514.890015 40.826900 514.840027 38.490002 C 514.890015 36.153099 514.796997 33.815399 514.559998 31.490000 C 514.505981 30.438000 513.956970 29.473801 513.080017 28.889999 C 511.731995 28.337601 510.273010 28.104799 508.820007 28.209999 C 507.382996 28.106400 505.941010 28.339199 504.609985 28.889999 C 503.733002 29.473801 503.183990 30.438000 503.130005 31.490000 C 502.893005 33.815399 502.799988 36.153099 502.850006 38.490002 C 502.799988 40.826900 502.894012 43.164600 503.130005 45.490002 C 503.183014 46.547798 503.730988 47.518700 504.609985 48.110001 C 505.941010 48.660801 507.382996 48.893600 508.820007 48.790001 C 510.282990 48.899899 511.752014 48.667000 513.109985 48.110001 Z" fill="#673C90"/><path d=" M 559.599976 36.820000 C 559.650024 34.924702 559.546021 33.028500 559.289978 31.150000 C 559.202026 30.276699 558.729004 29.488199 558.000000 29.000000 C 556.984985 28.580299 555.885986 28.402300 554.789978 28.480000 C 553.533020 28.392000 552.283997 28.745701 551.260010 29.480000 C 550.440002 30.244600 549.919006 31.276199 549.789978 32.389999 C 549.518982 34.257198 549.401978 36.143600 549.440002 38.029999 L 549.440002 53.000000 L 544.000000 53.000000 L 544.000000 36.820000 C 544.051025 34.914700 543.947998 33.008499 543.690002 31.120001 C 543.596008 30.267099 543.140991 29.495399 542.440002 29.000000 C 541.432983 28.576900 540.338989 28.398701 539.250000 28.480000 C 537.994995 28.381300 536.745972 28.736099 535.729980 29.480000 C 534.911987 30.259501 534.388977 31.298401 534.250000 32.419998 C 533.984009 34.267601 533.869995 36.133801 533.909973 38.000000 L 533.909973 53.000000 L 528.400024 53.000000 L 528.400024 23.940001 L 533.400024 23.940001 L 533.630005 27.820000 L 534.000000 27.820000 C 534.515991 26.475800 535.466003 25.342400 536.700012 24.600000 C 539.838989 23.140600 543.455017 23.107800 546.619995 24.510000 C 547.804993 25.271500 548.655029 26.454700 549.000000 27.820000 L 549.340027 27.820000 C 550.559998 24.926701 553.177002 23.480000 557.190002 23.480000 C 558.934998 23.376200 560.671997 23.782700 562.190002 24.650000 C 563.385010 25.493799 564.218018 26.758301 564.520020 28.190001 C 564.971985 30.315800 565.169983 32.487598 565.109985 34.660000 L 565.109985 53.000000 L 559.599976 53.000000 Z" fill="#673C90"/><path d=" M 573.919983 16.299999 L 573.919983 10.660000 L 579.659973 10.660000 L 579.659973 16.299999 Z M 574.000000 53.000000 L 574.000000 23.940001 L 579.510010 23.940001 L 579.510010 53.000000 Z" fill="#673C90"/><path d=" M 602.090027 53.240002 C 600.815002 53.387199 599.533020 53.464001 598.250000 53.470001 C 595.030029 53.470001 592.650024 52.950001 591.119995 51.930000 C 589.544006 50.878601 588.461975 49.233299 588.119995 47.369999 C 587.609009 44.435501 587.390991 41.457600 587.469971 38.480000 C 587.387024 35.504101 587.642029 32.528400 588.229980 29.610001 C 588.627991 27.732700 589.734985 26.081400 591.320007 25.000000 C 592.830017 24.000000 595.099976 23.490000 598.140015 23.490000 C 599.409973 23.495199 600.679016 23.571899 601.940002 23.719999 C 603.052002 23.831600 604.155029 24.022100 605.239990 24.290001 L 605.239990 28.680000 C 603.346008 28.340300 601.424988 28.169600 599.500000 28.170000 C 598.044983 28.067499 596.586975 28.343000 595.270020 28.969999 C 594.294006 29.626699 593.648987 30.672899 593.500000 31.840000 C 593.161987 34.039700 593.021973 36.265301 593.080017 38.490002 C 593.018005 40.739201 593.168030 42.989201 593.530029 45.209999 C 593.679016 46.376999 594.333008 47.419399 595.320007 48.060001 C 596.669983 48.645901 598.140991 48.899700 599.609985 48.799999 C 601.575012 48.807400 603.536011 48.636700 605.469971 48.290001 L 605.469971 52.680000 C 604.356995 52.941200 603.228027 53.128300 602.090027 53.240002 Z" fill="#673C90"/><path d=" M 154.250000 66.379997 L 169.000000 66.379997 C 171.949997 66.379997 174.199997 66.900002 175.729996 67.919998 C 177.210999 68.900803 178.279007 70.392303 178.729996 72.110001 C 179.279007 74.377701 179.526993 76.707603 179.470001 79.040001 C 179.522003 81.312798 179.272995 83.582497 178.729996 85.790001 C 178.276001 87.522301 177.210007 89.031799 175.729996 90.040001 C 174.199997 91.099998 171.929993 91.639999 168.940002 91.639999 L 160.100006 91.639999 L 160.100006 105.639999 L 154.250000 105.639999 Z M 167.000000 86.620003 C 168.511002 86.705299 170.022003 86.463097 171.429993 85.910004 C 172.339996 85.476196 173.007004 84.658096 173.250000 83.680000 C 173.563995 82.154198 173.697998 80.597000 173.649994 79.040001 C 173.697006 77.479698 173.563004 75.919296 173.250000 74.389999 C 173.009995 73.422203 172.354996 72.609703 171.460007 72.169998 C 170.061005 71.608803 168.554001 71.366302 167.050003 71.459999 L 160.050003 71.459999 L 160.050003 86.620003 Z" fill="#673C90"/><path d=" M 187.130005 104.120003 C 185.820007 102.830002 185.130005 100.620003 185.130005 97.510002 C 185.056000 95.729599 185.307007 93.950500 185.869995 92.260002 C 186.313995 91.058098 187.212006 90.078102 188.369995 89.529999 C 189.934006 88.884399 191.619995 88.590797 193.309998 88.669998 C 195.250000 88.669998 198.029999 88.750000 201.669998 88.900002 L 201.669998 87.360001 C 201.750000 85.842102 201.576996 84.321602 201.160004 82.860001 C 200.837997 82.002502 200.110992 81.361397 199.220001 81.150002 C 197.651993 80.821800 196.050003 80.687401 194.449997 80.750000 C 193.389999 80.750000 192.059998 80.809998 190.449997 80.919998 C 188.839996 81.029999 187.630005 81.169998 186.759995 81.320000 L 186.759995 76.870003 C 189.871994 76.314499 193.029007 76.046700 196.190002 76.070000 C 198.589996 75.945702 200.990005 76.316704 203.240005 77.160004 C 204.725998 77.809799 205.862000 79.066002 206.360001 80.610001 C 206.981003 82.841202 207.251007 85.155602 207.160004 87.470001 L 207.160004 105.599998 L 202.160004 105.599998 L 201.929993 101.839996 L 201.589996 101.839996 C 201.013000 103.364998 199.828995 104.582001 198.320007 105.199997 C 196.695007 105.801003 194.972000 106.092003 193.240005 106.059998 C 190.490005 106.059998 188.440002 105.410004 187.130005 104.120003 Z M 198.869995 101.000000 C 199.705994 100.694000 200.395004 100.083000 200.800003 99.290001 C 201.492996 97.595398 201.804001 95.768600 201.710007 93.940002 L 201.710007 92.550003 L 194.710007 92.550003 C 193.826004 92.509598 192.940994 92.614403 192.089996 92.860001 C 191.524994 93.075302 191.087006 93.534798 190.899994 94.110001 C 190.628998 95.065399 190.514999 96.058098 190.559998 97.050003 C 190.513000 97.994797 190.638000 98.940201 190.929993 99.839996 C 191.182007 100.458000 191.707001 100.922997 192.350006 101.099998 C 193.419006 101.365997 194.518997 101.481003 195.619995 101.440002 C 196.720993 101.483002 197.820007 101.334000 198.869995 101.000000 Z" fill="#673C90"/><path d=" M 218.130005 105.599998 L 218.130005 81.199997 L 213.190002 81.199997 L 213.190002 76.529999 L 218.130005 76.529999 L 218.130005 68.089996 L 223.649994 68.089996 L 223.649994 76.529999 L 229.500000 76.529999 L 229.500000 81.199997 L 223.649994 81.199997 L 223.649994 105.599998 Z" fill="#673C90"/><path d=" M 252.410004 89.410004 C 252.464005 87.512604 252.339996 85.614403 252.039993 83.739998 C 251.929993 82.835197 251.414993 82.029404 250.639999 81.550003 C 249.518005 81.126404 248.317001 80.949097 247.119995 81.029999 C 245.753998 80.918404 244.391006 81.270798 243.250000 82.029999 C 242.367996 82.799400 241.800995 83.867996 241.660004 85.029999 C 241.401001 86.861504 241.287003 88.710602 241.320007 90.559998 L 241.320007 105.559998 L 235.809998 105.559998 L 235.809998 63.250000 L 241.320007 63.250000 L 241.320007 80.059998 L 241.660004 80.059998 C 242.238998 78.800598 243.220001 77.769699 244.449997 77.129997 C 246.031006 76.390999 247.766998 76.047798 249.509995 76.129997 C 251.363998 76.012703 253.214996 76.418098 254.850006 77.300003 C 256.085999 78.111397 256.959991 79.369102 257.290009 80.809998 C 257.769989 82.921700 257.980988 85.085403 257.920013 87.250000 L 257.920013 105.599998 L 252.410004 105.599998 Z" fill="#673C90"/><path d=" M 269.540009 104.800003 C 267.960999 103.926003 266.859009 102.387001 266.540009 100.610001 C 265.987000 97.461800 265.759003 94.264900 265.859985 91.070000 C 265.760010 87.861801 265.988007 84.651901 266.540009 81.489998 C 266.851013 79.709702 267.954987 78.167603 269.540009 77.300003 C 271.106995 76.480003 273.713013 76.070000 277.359985 76.070000 C 280.989990 76.070000 283.600006 76.480003 285.170013 77.300003 C 286.756989 78.165298 287.862000 79.708504 288.170013 81.489998 C 288.721985 84.651901 288.950012 87.861900 288.850006 91.070000 C 288.950989 94.264900 288.722992 97.461800 288.170013 100.610001 C 287.851013 102.387001 286.748993 103.926003 285.170013 104.800003 C 283.600006 105.639999 280.989990 106.059998 277.359985 106.059998 C 273.730011 106.059998 271.109985 105.639999 269.540009 104.800003 Z M 281.619995 100.699997 C 282.496002 100.107002 283.044006 99.136902 283.100006 98.080002 C 283.335999 95.754601 283.429993 93.416901 283.380005 91.080002 C 283.429993 88.743103 283.337006 86.405403 283.100006 84.080002 C 283.040985 83.029404 282.493011 82.067101 281.619995 81.480003 C 280.272003 80.927597 278.812988 80.694801 277.359985 80.800003 C 275.923004 80.696404 274.480988 80.929199 273.149994 81.480003 C 272.273010 82.063797 271.723999 83.028000 271.670013 84.080002 C 271.433014 86.405403 271.339996 88.743103 271.390015 91.080002 C 271.339996 93.416901 271.433990 95.754601 271.670013 98.080002 C 271.722992 99.137802 272.270996 100.109001 273.149994 100.699997 C 274.480988 101.250999 275.923004 101.484001 277.359985 101.379997 C 278.812988 101.485001 280.272003 101.251999 281.619995 100.699997 Z" fill="#673C90"/><path d=" M 297.529999 116.599998 L 297.529999 112.269997 C 300.709991 112.422997 303.250000 112.500000 305.149994 112.500000 C 306.959015 112.598999 308.770996 112.353996 310.489990 111.779999 C 311.575012 111.324997 312.369995 110.369003 312.619995 109.220001 C 313.010986 107.245003 313.174988 105.232002 313.109985 103.220001 L 313.109985 102.000000 L 312.760010 102.000000 C 312.239990 103.332001 311.221008 104.407997 309.920013 105.000000 C 308.391998 105.638000 306.744995 105.941002 305.089996 105.889999 C 303.140015 106.003998 301.196991 105.559998 299.489990 104.610001 C 298.040009 103.526001 297.049011 101.938004 296.709991 100.160004 C 296.074005 97.204002 295.795990 94.182404 295.880005 91.160004 C 295.790985 88.086304 296.079010 85.013199 296.739990 82.010002 C 297.083008 80.196701 298.097992 78.579300 299.579987 77.480003 C 301.268005 76.506599 303.204010 76.047798 305.149994 76.160004 C 306.786987 76.125397 308.412994 76.438904 309.920013 77.080002 C 311.347992 77.737099 312.455994 78.935097 313.000000 80.410004 L 313.339996 80.410004 L 313.570007 76.529999 L 318.630005 76.529999 L 318.630005 101.779999 C 318.720001 104.880997 318.451996 107.981003 317.829987 111.019997 C 317.398987 112.977997 316.160004 114.663002 314.420013 115.660004 C 312.679993 116.672997 309.989990 117.177002 306.350006 117.169998 C 303.399994 117.209999 300.450989 117.018997 297.529999 116.599998 Z M 310.579987 100.269997 C 311.381012 99.798599 311.992004 99.063202 312.309998 98.190002 C 312.643005 97.292603 312.851990 96.353897 312.929993 95.400002 C 313.066010 93.940804 313.126007 92.475502 313.109985 91.010002 C 313.109985 89.300003 313.059998 87.900002 312.959991 86.820000 C 312.897003 85.873199 312.697998 84.940300 312.369995 84.050003 C 312.074005 83.096100 311.446014 82.279999 310.600006 81.750000 C 309.588013 81.218300 308.450989 80.969498 307.309998 81.029999 C 305.963013 80.937202 304.612000 81.152702 303.359985 81.660004 C 302.471985 82.251198 301.904999 83.216797 301.820007 84.279999 C 301.519989 86.510101 301.395996 88.760399 301.450012 91.010002 C 301.391998 93.230698 301.526001 95.452301 301.850006 97.650002 C 301.963989 98.711304 302.537994 99.669098 303.420013 100.269997 C 304.644989 100.797997 305.979004 101.024002 307.309998 100.930000 C 308.437988 100.988998 309.562988 100.762001 310.579987 100.269997 Z" fill="#673C90"/><path d=" M 348.799988 92.889999 L 332.089996 92.889999 C 332.024994 94.779701 332.165009 96.670898 332.510010 98.529999 C 332.752991 99.576897 333.503998 100.432999 334.510010 100.809998 C 336.213989 101.320000 337.993988 101.532997 339.769989 101.440002 C 342.467987 101.396004 345.161987 101.206001 347.839996 100.870003 L 347.839996 105.199997 C 346.459015 105.519997 345.053986 105.730003 343.640015 105.830002 C 341.890015 105.980003 340.209991 106.059998 338.579987 106.059998 C 334.980011 106.059998 332.337006 105.593002 330.649994 104.660004 C 328.958008 103.731003 327.746002 102.122002 327.320007 100.239998 C 326.696014 97.241997 326.431000 94.180603 326.529999 91.120003 C 326.441986 88.101799 326.690002 85.083199 327.269989 82.120003 C 327.654999 80.233902 328.807007 78.592796 330.450012 77.589996 C 332.076996 76.596703 334.632996 76.099998 338.119995 76.099998 C 341.500000 76.099998 343.929993 76.589996 345.429993 77.559998 C 346.942993 78.561996 347.963989 80.156097 348.239990 81.949997 C 348.696014 84.977600 348.885986 88.039200 348.809998 91.099998 Z M 334.109985 81.320000 C 333.278992 81.814201 332.704987 82.647102 332.540009 83.599998 C 332.217010 85.384804 332.066010 87.196404 332.089996 89.010002 L 343.459991 89.010002 L 343.459991 88.730003 C 343.520996 86.951302 343.365997 85.171700 343.000000 83.430000 C 342.829987 82.502602 342.259003 81.697701 341.440002 81.230003 C 340.345001 80.808197 339.171997 80.624100 338.000000 80.690002 C 336.671997 80.599701 335.341003 80.815201 334.109985 81.320000 Z" fill="#673C90"/><path d=" M 373.410004 89.410004 C 373.468994 87.512497 373.345001 85.613800 373.040009 83.739998 C 372.933014 82.837097 372.420990 82.031601 371.649994 81.550003 C 370.523987 81.127403 369.320007 80.950104 368.119995 81.029999 C 366.756989 80.913597 365.394989 81.266403 364.260010 82.029999 C 363.371002 82.793800 362.803009 83.865303 362.670013 85.029999 C 362.406006 86.860901 362.291992 88.710503 362.329987 90.559998 L 362.329987 105.559998 L 356.809998 105.559998 L 356.809998 76.529999 L 361.809998 76.529999 L 362.040009 80.410004 L 362.440002 80.410004 C 363.000000 79.049301 364.000000 77.915604 365.279999 77.190002 C 366.895996 76.366699 368.699005 75.980499 370.510010 76.070000 C 372.375000 75.945900 374.235992 76.351501 375.880005 77.239998 C 377.101990 78.061798 377.966003 79.316002 378.299988 80.750000 C 378.772003 82.883202 378.980011 85.066101 378.920013 87.250000 L 378.920013 105.599998 L 373.410004 105.599998 Z" fill="#673C90"/><path d=" M 401.200012 105.260002 L 401.200012 100.360001 C 405.292999 100.766998 408.703003 100.973000 411.429993 100.980003 C 412.808990 101.009003 414.187988 100.915001 415.549988 100.699997 C 416.423004 100.558998 417.252014 100.216003 417.970001 99.699997 C 418.497009 99.209396 418.847992 98.559502 418.970001 97.849998 C 419.161987 96.787804 419.244995 95.709000 419.220001 94.629997 C 419.272003 93.415703 419.197998 92.199203 419.000000 91.000000 C 418.871002 90.349701 418.466003 89.787598 417.890015 89.459999 C 416.973999 89.039597 415.993988 88.779198 414.989990 88.690002 L 407.380005 87.690002 C 405.739014 87.573700 404.165985 86.986900 402.850006 86.000000 C 401.812988 85.108101 401.084991 83.910896 400.769989 82.580002 C 400.371002 80.805397 400.188995 78.988602 400.230011 77.169998 C 400.093994 74.750099 400.593994 72.336700 401.679993 70.169998 C 402.601990 68.577003 404.079987 67.380402 405.829987 66.809998 C 408.100006 66.133698 410.463013 65.826500 412.829987 65.900002 C 414.769989 65.900002 416.679993 65.980003 418.579987 66.160004 C 420.220001 66.289497 421.851013 66.526703 423.459991 66.870003 L 423.459991 71.660004 C 420.364014 71.174599 417.233002 70.953796 414.100006 71.000000 C 412.674011 70.972504 411.248993 71.069504 409.839996 71.290001 C 408.972992 71.421303 408.152008 71.764801 407.450012 72.290001 C 406.895996 72.716904 406.503998 73.320198 406.339996 74.000000 C 406.148010 74.967697 406.063995 75.953796 406.089996 76.940002 C 406.054993 78.029198 406.139008 79.119003 406.339996 80.190002 C 406.455994 80.792000 406.817993 81.317902 407.339996 81.639999 C 408.125000 82.013298 408.972992 82.237198 409.839996 82.300003 L 417.570007 83.300003 C 419.028992 83.449699 420.453003 83.845299 421.779999 84.470001 C 422.912994 85.105904 423.778992 86.128197 424.220001 87.349998 C 424.937012 89.517700 425.246002 91.799698 425.130005 94.080002 C 425.264008 96.646400 424.806000 99.209297 423.790009 101.570000 C 423.010010 103.205002 421.626007 104.473999 419.929993 105.110001 C 417.753998 105.806000 415.473999 106.124001 413.190002 106.050003 C 409.179993 106.056999 405.174011 105.792999 401.200012 105.260002 Z" fill="#673C90"/><path d=" M 449.790009 101.720001 L 449.450012 101.720001 C 448.940002 103.109001 447.941010 104.264999 446.640015 104.970001 C 444.988007 105.768997 443.162994 106.142998 441.329987 106.059998 C 439.481995 106.179001 437.638000 105.773003 436.010010 104.889999 C 434.782990 104.061996 433.920013 102.794998 433.600006 101.349998 C 433.122009 99.227898 432.910004 97.054497 432.970001 94.879997 L 432.970001 76.529999 L 438.480011 76.529999 L 438.480011 92.720001 C 438.425995 94.617401 438.549988 96.515602 438.850006 98.389999 C 438.959991 99.294800 439.475006 100.100998 440.250000 100.580002 C 441.372009 101.003998 442.572998 101.181000 443.769989 101.099998 C 445.132996 101.216003 446.494995 100.863998 447.630005 100.099998 C 448.505005 99.353203 449.075012 98.310204 449.230011 97.169998 C 449.490997 95.328697 449.605011 93.469398 449.570007 91.610001 L 449.570007 76.610001 L 455.079987 76.610001 L 455.079987 105.599998 L 450.000000 105.599998 Z" fill="#673C90"/><path d=" M 464.059998 76.529999 L 469.059998 76.529999 L 469.290009 81.769997 L 469.690002 81.769997 C 470.065002 79.944397 471.143005 78.339203 472.690002 77.300003 C 474.377014 76.406700 476.273010 75.981903 478.179993 76.070000 L 478.179993 81.599998 C 476.365997 81.501198 474.558990 81.895103 472.950012 82.739998 C 471.665985 83.538002 470.730011 84.791603 470.329987 86.250000 C 469.772003 88.359703 469.523010 90.538902 469.589996 92.720001 L 469.589996 105.599998 L 464.079987 105.599998 Z" fill="#673C90"/><path d=" M 490.369995 105.599998 L 481.619995 76.529999 L 487.309998 76.529999 L 493.790009 99.730003 L 494.239990 99.730003 L 500.660004 76.529999 L 506.290009 76.529999 L 497.540009 105.599998 Z" fill="#673C90"/><path d=" M 533.169983 92.889999 L 516.460022 92.889999 C 516.395996 94.780098 516.539978 96.671501 516.890015 98.529999 C 517.127991 99.579399 517.880981 100.436996 518.890015 100.809998 C 520.593994 101.320999 522.372986 101.533997 524.150024 101.440002 C 526.848022 101.396004 529.541992 101.205002 532.219971 100.870003 L 532.219971 105.199997 C 530.835022 105.519997 529.427979 105.730003 528.010010 105.830002 C 526.270020 105.980003 524.580017 106.059998 522.950012 106.059998 C 519.349976 106.059998 516.706970 105.593002 515.020020 104.660004 C 513.333984 103.726997 512.125977 102.119003 511.700012 100.239998 C 511.071991 97.242599 510.803009 94.181000 510.899994 91.120003 C 510.816986 88.101997 511.065002 85.083900 511.640015 82.120003 C 512.028015 80.232597 513.184021 78.591698 514.830017 77.589996 C 516.450012 76.596703 519.007019 76.099998 522.500000 76.099998 C 525.872986 76.099998 528.307007 76.586700 529.799988 77.559998 C 531.320007 78.557198 532.344971 80.153000 532.619995 81.949997 C 533.065979 84.978600 533.252991 88.039597 533.179993 91.099998 Z M 518.479980 81.320000 C 517.648987 81.812202 517.078003 82.646896 516.919983 83.599998 C 516.586975 85.383598 516.432983 87.195900 516.460022 89.010002 L 527.830017 89.010002 L 527.830017 88.730003 C 527.893005 86.951698 527.742004 85.172302 527.380005 83.430000 C 527.202026 82.502998 526.629028 81.699600 525.809998 81.230003 C 524.715027 80.807297 523.541992 80.623199 522.369995 80.690002 C 521.041992 80.601799 519.711975 80.817299 518.479980 81.320000 Z" fill="#673C90"/><path d=" M 541.070007 68.889999 L 541.070007 63.250000 L 546.809998 63.250000 L 546.809998 68.889999 Z M 541.190002 105.599998 L 541.190002 76.529999 L 546.700012 76.529999 L 546.700012 105.599998 Z" fill="#673C90"/><path d=" M 555.679993 105.599998 L 555.679993 63.250000 L 561.190002 63.250000 L 561.190002 105.599998 Z" fill="#673C90"/><path d=" M 570.169983 105.599998 L 570.169983 63.250000 L 575.690002 63.250000 L 575.690002 105.599998 Z" fill="#673C90"/><path d=" M 585.000000 104.120003 C 583.700012 102.830002 583.000000 100.620003 583.000000 97.510002 C 582.931030 95.729797 583.181030 93.951698 583.739990 92.260002 C 584.187012 91.059799 585.083984 90.080704 586.239990 89.529999 C 587.822998 88.878197 589.530029 88.584503 591.239990 88.669998 C 593.169983 88.669998 595.960022 88.750000 599.590027 88.900002 L 599.590027 87.360001 C 599.669983 85.842102 599.497009 84.321602 599.080017 82.860001 C 598.765991 82.000801 598.041016 81.357803 597.150024 81.150002 C 595.578979 80.821999 593.973999 80.687599 592.369995 80.750000 C 591.309998 80.750000 589.989990 80.809998 588.369995 80.919998 C 586.750000 81.029999 585.539978 81.169998 584.669983 81.320000 L 584.669983 76.870003 C 587.784973 76.314499 590.945007 76.046700 594.109985 76.070000 C 596.492981 75.952003 598.875000 76.322998 601.109985 77.160004 C 602.601013 77.806396 603.741028 79.063400 604.239990 80.610001 C 604.856018 82.842201 605.125977 85.155899 605.039978 87.470001 L 605.039978 105.599998 L 600.039978 105.599998 L 599.820007 101.839996 L 599.479980 101.839996 C 598.903015 103.364998 597.718994 104.582001 596.210022 105.199997 C 594.580994 105.800003 592.854980 106.091003 591.119995 106.059998 C 588.372986 106.059998 586.333008 105.413002 585.000000 104.120003 Z M 596.770020 101.000000 C 597.607971 100.695999 598.297974 100.084999 598.700012 99.290001 C 599.398010 97.596802 599.708984 95.768898 599.609985 93.940002 L 599.609985 92.550003 L 592.609985 92.550003 C 591.729004 92.510201 590.846985 92.614899 590.000000 92.860001 C 589.431030 93.072800 588.989014 93.532700 588.799988 94.110001 C 588.533997 95.066299 588.419983 96.058296 588.460022 97.050003 C 588.416992 97.994598 588.543030 98.939201 588.830017 99.839996 C 589.085022 100.456001 589.607971 100.919998 590.250000 101.099998 C 591.318970 101.365997 592.419006 101.481003 593.520020 101.440002 C 594.620972 101.484001 595.721008 101.334999 596.770020 101.000000 Z" fill="#673C90"/><path d=" M 630.700012 89.410004 C 630.758972 87.512497 630.635010 85.613800 630.330017 83.739998 C 630.223022 82.837097 629.710999 82.031601 628.940002 81.550003 C 627.817017 81.127296 626.617004 80.949997 625.419983 81.029999 C 624.054016 80.911201 622.687988 81.264198 621.549988 82.029999 C 620.689026 82.798302 620.138000 83.854301 620.000000 85.000000 C 619.736023 86.830902 619.622009 88.680496 619.659973 90.529999 L 619.659973 105.529999 L 614.150024 105.529999 L 614.150024 76.529999 L 619.150024 76.529999 L 619.369995 80.410004 L 619.770020 80.410004 C 620.336975 79.050301 621.338989 77.917503 622.619995 77.190002 C 624.231995 76.366600 626.031982 75.980400 627.840027 76.070000 C 629.703979 75.945900 631.565979 76.351501 633.210022 77.239998 C 634.434021 78.058899 635.299988 79.314400 635.630005 80.750000 C 636.111023 82.881798 636.322021 85.065498 636.260010 87.250000 L 636.260010 105.599998 L 630.700012 105.599998 Z" fill="#673C90"/><path d=" M 658.690002 105.830002 C 657.419006 105.977997 656.140015 106.054001 654.859985 106.059998 C 651.640015 106.059998 649.260010 105.540001 647.719971 104.519997 C 646.143982 103.469002 645.062012 101.822998 644.719971 99.959999 C 644.205017 97.026001 643.984009 94.047897 644.059998 91.070000 C 643.979004 88.093697 644.237976 85.117897 644.830017 82.199997 C 645.202026 80.332901 646.276001 78.679398 647.830017 77.580002 C 649.349976 76.580002 651.619995 76.070000 654.650024 76.070000 C 655.922974 76.075302 657.195007 76.152100 658.460022 76.300003 C 659.572021 76.411598 660.674988 76.602097 661.760010 76.870003 L 661.760010 81.260002 C 659.866028 80.920303 657.945007 80.749603 656.020020 80.750000 C 654.560974 80.646202 653.101013 80.921799 651.780029 81.550003 C 650.807007 82.207802 650.164978 83.254204 650.020020 84.419998 C 649.677979 86.619301 649.533997 88.844902 649.590027 91.070000 C 649.530029 93.319504 649.684021 95.569702 650.049988 97.790001 C 650.198975 98.957001 650.853027 99.999496 651.840027 100.639999 C 653.190002 101.225998 654.661011 101.480003 656.130005 101.379997 C 658.094971 101.387001 660.056030 101.217003 661.989990 100.870003 L 661.989990 105.260002 C 660.903992 105.521004 659.801025 105.711998 658.690002 105.830002 Z" fill="#673C90"/><path d=" M 690.659973 92.889999 L 674.000000 92.889999 C 673.935974 94.780098 674.080017 96.671501 674.429993 98.529999 C 674.668030 99.579399 675.421021 100.436996 676.429993 100.809998 C 678.133972 101.320999 679.913025 101.533997 681.690002 101.440002 C 684.388000 101.396004 687.081970 101.205002 689.760010 100.870003 L 689.760010 105.199997 C 688.375000 105.519997 686.968018 105.730003 685.549988 105.830002 C 683.809998 105.980003 682.119995 106.059998 680.489990 106.059998 C 676.890015 106.059998 674.247009 105.593002 672.559998 104.660004 C 670.874023 103.726997 669.666016 102.119003 669.239990 100.239998 C 668.612000 97.242599 668.343018 94.181000 668.440002 91.120003 C 668.356995 88.101997 668.604980 85.083900 669.179993 82.120003 C 669.575012 80.235497 670.729004 78.597000 672.369995 77.589996 C 673.989990 76.596703 676.546997 76.099998 680.039978 76.099998 C 683.409973 76.099998 685.849976 76.589996 687.340027 77.559998 C 688.859985 78.557198 689.885010 80.153000 690.159973 81.949997 C 690.606018 84.978600 690.793030 88.039597 690.719971 91.099998 Z M 676.000000 81.320000 C 675.169006 81.812202 674.598022 82.646896 674.440002 83.599998 C 674.114990 85.380997 673.966980 87.189903 674.000000 89.000000 L 685.369995 89.000000 L 685.369995 88.720001 C 685.432983 86.941704 685.281982 85.162300 684.919983 83.419998 C 684.742004 82.492996 684.169006 81.689598 683.349976 81.220001 C 682.257996 80.797798 681.088989 80.613701 679.919983 80.680000 C 678.581970 80.591103 677.241028 80.809998 676.000000 81.320000 Z" fill="#673C90"/></g></svg>