<?xml version="1.0" encoding="utf-8" standalone="no"?>
<!DOCTYPE svg PUBLIC "-//W3C//DTD SVG 1.1//EN"
  "http://www.w3.org/Graphics/SVG/1.1/DTD/svg11.dtd">
<svg height="298.620937pt" version="1.1" viewBox="0 0 1229.01875 298.620937" width="1229.01875pt" xmlns="http://www.w3.org/2000/svg" xmlns:xlink="http://www.w3.org/1999/xlink">
 <metadata>
  <rdf:RDF xmlns:cc="http://creativecommons.org/ns#" xmlns:dc="http://purl.org/dc/elements/1.1/" xmlns:rdf="http://www.w3.org/1999/02/22-rdf-syntax-ns#">
   <cc:Work>
    <dc:type rdf:resource="http://purl.org/dc/dcmitype/StillImage"/>
    <dc:date>2021-09-14T12:17:01.783595</dc:date>
    <dc:format>image/svg+xml</dc:format>
    <dc:creator>
     <cc:Agent>
      <dc:title>Matplotlib v3.4.2, https://matplotlib.org/</dc:title>
     </cc:Agent>
    </dc:creator>
   </cc:Work>
  </rdf:RDF>
 </metadata>
 <defs>
  <style type="text/css">*{stroke-linecap:butt;stroke-linejoin:round;}</style>
 </defs>
 <g id="figure_1">
  <g id="patch_1">
   <path d="M 0 298.620937 
L 1229.01875 298.620937 
L 1229.01875 0 
L 0 0 
z
" style="fill:#ffffff;"/>
  </g>
  <g id="axes_1">
   <g id="patch_2">
    <path d="M 53.328125 228.96 
L 1169.328125 228.96 
L 1169.328125 7.2 
L 53.328125 7.2 
z
" style="fill:#ffffff;"/>
   </g>
   <g id="patch_3">
    <path clip-path="url(#p95e920acb5)" d="M 104.055398 228.96 
L 117.934269 228.96 
L 117.934269 228.250482 
L 104.055398 228.250482 
z
" style="fill:#86b0a6;"/>
   </g>
   <g id="patch_4">
    <path clip-path="url(#p95e920acb5)" d="M 123.485817 228.96 
L 137.364688 228.96 
L 137.364688 226.949698 
L 123.485817 226.949698 
z
" style="fill:#86b0a6;"/>
   </g>
   <g id="patch_5">
    <path clip-path="url(#p95e920acb5)" d="M 142.916236 228.96 
L 156.795107 228.96 
L 156.795107 225.294155 
L 142.916236 225.294155 
z
" style="fill:#86b0a6;"/>
   </g>
   <g id="patch_6">
    <path clip-path="url(#p95e920acb5)" d="M 162.346655 228.96 
L 176.225526 228.96 
L 176.225526 226.594938 
L 162.346655 226.594938 
z
" style="fill:#86b0a6;"/>
   </g>
   <g id="patch_7">
    <path clip-path="url(#p95e920acb5)" d="M 181.777074 228.96 
L 195.655945 228.96 
L 195.655945 226.003673 
L 181.777074 226.003673 
z
" style="fill:#86b0a6;"/>
   </g>
   <g id="patch_8">
    <path clip-path="url(#p95e920acb5)" d="M 201.207493 228.96 
L 215.086364 228.96 
L 215.086364 227.42271 
L 201.207493 227.42271 
z
" style="fill:#86b0a6;"/>
   </g>
   <g id="patch_9">
    <path clip-path="url(#p95e920acb5)" d="M 220.637912 228.96 
L 234.516783 228.96 
L 234.516783 227.304457 
L 220.637912 227.304457 
z
" style="fill:#86b0a6;"/>
   </g>
   <g id="patch_10">
    <path clip-path="url(#p95e920acb5)" d="M 240.068331 228.96 
L 253.947202 228.96 
L 253.947202 223.283852 
L 240.068331 223.283852 
z
" style="fill:#86b0a6;"/>
   </g>
   <g id="patch_11">
    <path clip-path="url(#p95e920acb5)" d="M 259.498751 228.96 
L 273.377621 228.96 
L 273.377621 221.983068 
L 259.498751 221.983068 
z
" style="fill:#86b0a6;"/>
   </g>
   <g id="patch_12">
    <path clip-path="url(#p95e920acb5)" d="M 278.92917 228.96 
L 292.80804 228.96 
L 292.80804 217.134692 
L 278.92917 217.134692 
z
" style="fill:#86b0a6;"/>
   </g>
   <g id="patch_13">
    <path clip-path="url(#p95e920acb5)" d="M 298.359589 228.96 
L 312.23846 228.96 
L 312.23846 220.209272 
L 298.359589 220.209272 
z
" style="fill:#86b0a6;"/>
   </g>
   <g id="patch_14">
    <path clip-path="url(#p95e920acb5)" d="M 317.790008 228.96 
L 331.668879 228.96 
L 331.668879 214.414871 
L 317.790008 214.414871 
z
" style="fill:#86b0a6;"/>
   </g>
   <g id="patch_15">
    <path clip-path="url(#p95e920acb5)" d="M 337.220427 228.96 
L 351.099298 228.96 
L 351.099298 211.103785 
L 337.220427 211.103785 
z
" style="fill:#86b0a6;"/>
   </g>
   <g id="patch_16">
    <path clip-path="url(#p95e920acb5)" d="M 356.650846 228.96 
L 370.529717 228.96 
L 370.529717 211.222038 
L 356.650846 211.222038 
z
" style="fill:#86b0a6;"/>
   </g>
   <g id="patch_17">
    <path clip-path="url(#p95e920acb5)" d="M 376.081265 228.96 
L 389.960136 228.96 
L 389.960136 205.309384 
L 376.081265 205.309384 
z
" style="fill:#86b0a6;"/>
   </g>
   <g id="patch_18">
    <path clip-path="url(#p95e920acb5)" d="M 395.511684 228.96 
L 409.390555 228.96 
L 409.390555 198.095946 
L 395.511684 198.095946 
z
" style="fill:#86b0a6;"/>
   </g>
   <g id="patch_19">
    <path clip-path="url(#p95e920acb5)" d="M 414.942103 228.96 
L 428.820974 228.96 
L 428.820974 192.183292 
L 414.942103 192.183292 
z
" style="fill:#86b0a6;"/>
   </g>
   <g id="patch_20">
    <path clip-path="url(#p95e920acb5)" d="M 434.372522 228.96 
L 448.251393 228.96 
L 448.251393 175.154849 
L 434.372522 175.154849 
z
" style="fill:#86b0a6;"/>
   </g>
   <g id="patch_21">
    <path clip-path="url(#p95e920acb5)" d="M 453.802942 228.96 
L 467.681812 228.96 
L 467.681812 152.332004 
L 453.802942 152.332004 
z
" style="fill:#86b0a6;"/>
   </g>
   <g id="patch_22">
    <path clip-path="url(#p95e920acb5)" d="M 473.233361 228.96 
L 487.112231 228.96 
L 487.112231 156.589115 
L 473.233361 156.589115 
z
" style="fill:#86b0a6;"/>
   </g>
   <g id="patch_23">
    <path clip-path="url(#p95e920acb5)" d="M 492.66378 228.96 
L 506.542651 228.96 
L 506.542651 171.015991 
L 492.66378 171.015991 
z
" style="fill:#86b0a6;"/>
   </g>
   <g id="patch_24">
    <path clip-path="url(#p95e920acb5)" d="M 512.094199 228.96 
L 525.97307 228.96 
L 525.97307 152.686764 
L 512.094199 152.686764 
z
" style="fill:#86b0a6;"/>
   </g>
   <g id="patch_25">
    <path clip-path="url(#p95e920acb5)" d="M 531.524618 228.96 
L 545.403489 228.96 
L 545.403489 147.720134 
L 531.524618 147.720134 
z
" style="fill:#86b0a6;"/>
   </g>
   <g id="patch_26">
    <path clip-path="url(#p95e920acb5)" d="M 550.955037 228.96 
L 564.833908 228.96 
L 564.833908 128.090123 
L 550.955037 128.090123 
z
" style="fill:#86b0a6;"/>
   </g>
   <g id="patch_27">
    <path clip-path="url(#p95e920acb5)" d="M 570.385456 228.96 
L 584.264327 228.96 
L 584.264327 119.812408 
L 570.385456 119.812408 
z
" style="fill:#86b0a6;"/>
   </g>
   <g id="patch_28">
    <path clip-path="url(#p95e920acb5)" d="M 589.815875 228.96 
L 603.694746 228.96 
L 603.694746 95.452273 
L 589.815875 95.452273 
z
" style="fill:#86b0a6;"/>
   </g>
   <g id="patch_29">
    <path clip-path="url(#p95e920acb5)" d="M 609.246294 228.96 
L 623.125165 228.96 
L 623.125165 75.112744 
L 609.246294 75.112744 
z
" style="fill:#86b0a6;"/>
   </g>
   <g id="patch_30">
    <path clip-path="url(#p95e920acb5)" d="M 628.676713 228.96 
L 642.555584 228.96 
L 642.555584 31.122598 
L 628.676713 31.122598 
z
" style="fill:#86b0a6;"/>
   </g>
   <g id="patch_31">
    <path clip-path="url(#p95e920acb5)" d="M 648.107133 228.96 
L 661.986003 228.96 
L 661.986003 17.76 
L 648.107133 17.76 
z
" style="fill:#86b0a6;"/>
   </g>
   <g id="patch_32">
    <path clip-path="url(#p95e920acb5)" d="M 667.537552 228.96 
L 681.416422 228.96 
L 681.416422 22.37187 
L 667.537552 22.37187 
z
" style="fill:#86b0a6;"/>
   </g>
   <g id="patch_33">
    <path clip-path="url(#p95e920acb5)" d="M 686.967971 228.96 
L 700.846842 228.96 
L 700.846842 18.351265 
L 686.967971 18.351265 
z
" style="fill:#86b0a6;"/>
   </g>
   <g id="patch_34">
    <path clip-path="url(#p95e920acb5)" d="M 706.39839 228.96 
L 720.277261 228.96 
L 720.277261 73.102441 
L 706.39839 73.102441 
z
" style="fill:#86b0a6;"/>
   </g>
   <g id="patch_35">
    <path clip-path="url(#p95e920acb5)" d="M 725.828809 228.96 
L 739.70768 228.96 
L 739.70768 69.318343 
L 725.828809 69.318343 
z
" style="fill:#86b0a6;"/>
   </g>
   <g id="patch_36">
    <path clip-path="url(#p95e920acb5)" d="M 745.259228 228.96 
L 759.138099 228.96 
L 759.138099 98.172094 
L 745.259228 98.172094 
z
" style="fill:#86b0a6;"/>
   </g>
   <g id="patch_37">
    <path clip-path="url(#p95e920acb5)" d="M 764.689647 228.96 
L 778.568518 228.96 
L 778.568518 84.336484 
L 764.689647 84.336484 
z
" style="fill:#86b0a6;"/>
   </g>
   <g id="patch_38">
    <path clip-path="url(#p95e920acb5)" d="M 784.120066 228.96 
L 797.998937 228.96 
L 797.998937 98.290347 
L 784.120066 98.290347 
z
" style="fill:#86b0a6;"/>
   </g>
   <g id="patch_39">
    <path clip-path="url(#p95e920acb5)" d="M 803.550485 228.96 
L 817.429356 228.96 
L 817.429356 139.08766 
L 803.550485 139.08766 
z
" style="fill:#86b0a6;"/>
   </g>
   <g id="patch_40">
    <path clip-path="url(#p95e920acb5)" d="M 822.980905 228.96 
L 836.859775 228.96 
L 836.859775 160.136708 
L 822.980905 160.136708 
z
" style="fill:#86b0a6;"/>
   </g>
   <g id="patch_41">
    <path clip-path="url(#p95e920acb5)" d="M 842.411324 228.96 
L 856.290194 228.96 
L 856.290194 168.887436 
L 842.411324 168.887436 
z
" style="fill:#86b0a6;"/>
   </g>
   <g id="patch_42">
    <path clip-path="url(#p95e920acb5)" d="M 861.841743 228.96 
L 875.720613 228.96 
L 875.720613 173.381053 
L 861.841743 173.381053 
z
" style="fill:#86b0a6;"/>
   </g>
   <g id="patch_43">
    <path clip-path="url(#p95e920acb5)" d="M 881.272162 228.96 
L 895.151033 228.96 
L 895.151033 187.334916 
L 881.272162 187.334916 
z
" style="fill:#86b0a6;"/>
   </g>
   <g id="patch_44">
    <path clip-path="url(#p95e920acb5)" d="M 900.702581 228.96 
L 914.581452 228.96 
L 914.581452 195.849138 
L 900.702581 195.849138 
z
" style="fill:#86b0a6;"/>
   </g>
   <g id="patch_45">
    <path clip-path="url(#p95e920acb5)" d="M 920.133 228.96 
L 934.011871 228.96 
L 934.011871 187.807928 
L 920.133 187.807928 
z
" style="fill:#86b0a6;"/>
   </g>
   <g id="patch_46">
    <path clip-path="url(#p95e920acb5)" d="M 939.563419 228.96 
L 953.44229 228.96 
L 953.44229 160.018455 
L 939.563419 160.018455 
z
" style="fill:#86b0a6;"/>
   </g>
   <g id="patch_47">
    <path clip-path="url(#p95e920acb5)" d="M 958.993838 228.96 
L 972.872709 228.96 
L 972.872709 181.658768 
L 958.993838 181.658768 
z
" style="fill:#86b0a6;"/>
   </g>
   <g id="patch_48">
    <path clip-path="url(#p95e920acb5)" d="M 978.424257 228.96 
L 992.303128 228.96 
L 992.303128 208.97523 
L 978.424257 208.97523 
z
" style="fill:#86b0a6;"/>
   </g>
   <g id="patch_49">
    <path clip-path="url(#p95e920acb5)" d="M 997.854676 228.96 
L 1011.733547 228.96 
L 1011.733547 200.93402 
L 997.854676 200.93402 
z
" style="fill:#86b0a6;"/>
   </g>
   <g id="patch_50">
    <path clip-path="url(#p95e920acb5)" d="M 1017.285096 228.96 
L 1031.163966 228.96 
L 1031.163966 216.66168 
L 1017.285096 216.66168 
z
" style="fill:#86b0a6;"/>
   </g>
   <g id="patch_51">
    <path clip-path="url(#p95e920acb5)" d="M 1036.715515 228.96 
L 1050.594385 228.96 
L 1050.594385 223.638611 
L 1036.715515 223.638611 
z
" style="fill:#86b0a6;"/>
   </g>
   <g id="patch_52">
    <path clip-path="url(#p95e920acb5)" d="M 1056.145934 228.96 
L 1070.024805 228.96 
L 1070.024805 228.132228 
L 1056.145934 228.132228 
z
" style="fill:#86b0a6;"/>
   </g>
   <g id="patch_53">
    <path clip-path="url(#p95e920acb5)" d="M 1075.576353 228.96 
L 1089.455224 228.96 
L 1089.455224 228.723494 
L 1075.576353 228.723494 
z
" style="fill:#86b0a6;"/>
   </g>
   <g id="patch_54">
    <path clip-path="url(#p95e920acb5)" d="M 1095.006772 228.96 
L 1108.885643 228.96 
L 1108.885643 228.486988 
L 1095.006772 228.486988 
z
" style="fill:#86b0a6;"/>
   </g>
   <g id="matplotlib.axis_1">
    <g id="xtick_1">
     <g id="line2d_1">
      <defs>
       <path d="M 0 0 
L 0 3.5 
" id="mcf42773ebf" style="stroke:#000000;stroke-width:0.8;"/>
      </defs>
      <g>
       <use style="stroke:#000000;stroke-width:0.8;" x="116.546381" xlink:href="#mcf42773ebf" y="228.96"/>
      </g>
     </g>
     <g id="text_1">
      <!-- 2020-09 -->
      <g transform="translate(119.305756 277.742812)rotate(-90)scale(0.1 -0.1)">
       <defs>
        <path d="M 1228 531 
L 3431 531 
L 3431 0 
L 469 0 
L 469 531 
Q 828 903 1448 1529 
Q 2069 2156 2228 2338 
Q 2531 2678 2651 2914 
Q 2772 3150 2772 3378 
Q 2772 3750 2511 3984 
Q 2250 4219 1831 4219 
Q 1534 4219 1204 4116 
Q 875 4013 500 3803 
L 500 4441 
Q 881 4594 1212 4672 
Q 1544 4750 1819 4750 
Q 2544 4750 2975 4387 
Q 3406 4025 3406 3419 
Q 3406 3131 3298 2873 
Q 3191 2616 2906 2266 
Q 2828 2175 2409 1742 
Q 1991 1309 1228 531 
z
" id="DejaVuSans-32" transform="scale(0.015625)"/>
        <path d="M 2034 4250 
Q 1547 4250 1301 3770 
Q 1056 3291 1056 2328 
Q 1056 1369 1301 889 
Q 1547 409 2034 409 
Q 2525 409 2770 889 
Q 3016 1369 3016 2328 
Q 3016 3291 2770 3770 
Q 2525 4250 2034 4250 
z
M 2034 4750 
Q 2819 4750 3233 4129 
Q 3647 3509 3647 2328 
Q 3647 1150 3233 529 
Q 2819 -91 2034 -91 
Q 1250 -91 836 529 
Q 422 1150 422 2328 
Q 422 3509 836 4129 
Q 1250 4750 2034 4750 
z
" id="DejaVuSans-30" transform="scale(0.015625)"/>
        <path d="M 313 2009 
L 1997 2009 
L 1997 1497 
L 313 1497 
L 313 2009 
z
" id="DejaVuSans-2d" transform="scale(0.015625)"/>
        <path d="M 703 97 
L 703 672 
Q 941 559 1184 500 
Q 1428 441 1663 441 
Q 2288 441 2617 861 
Q 2947 1281 2994 2138 
Q 2813 1869 2534 1725 
Q 2256 1581 1919 1581 
Q 1219 1581 811 2004 
Q 403 2428 403 3163 
Q 403 3881 828 4315 
Q 1253 4750 1959 4750 
Q 2769 4750 3195 4129 
Q 3622 3509 3622 2328 
Q 3622 1225 3098 567 
Q 2575 -91 1691 -91 
Q 1453 -91 1209 -44 
Q 966 3 703 97 
z
M 1959 2075 
Q 2384 2075 2632 2365 
Q 2881 2656 2881 3163 
Q 2881 3666 2632 3958 
Q 2384 4250 1959 4250 
Q 1534 4250 1286 3958 
Q 1038 3666 1038 3163 
Q 1038 2656 1286 2365 
Q 1534 2075 1959 2075 
z
" id="DejaVuSans-39" transform="scale(0.015625)"/>
       </defs>
       <use xlink:href="#DejaVuSans-32"/>
       <use x="63.623047" xlink:href="#DejaVuSans-30"/>
       <use x="127.246094" xlink:href="#DejaVuSans-32"/>
       <use x="190.869141" xlink:href="#DejaVuSans-30"/>
       <use x="254.492188" xlink:href="#DejaVuSans-2d"/>
       <use x="290.576172" xlink:href="#DejaVuSans-30"/>
       <use x="354.199219" xlink:href="#DejaVuSans-39"/>
      </g>
     </g>
    </g>
    <g id="xtick_2">
     <g id="line2d_2">
      <g>
       <use style="stroke:#000000;stroke-width:0.8;" x="285.868605" xlink:href="#mcf42773ebf" y="228.96"/>
      </g>
     </g>
     <g id="text_2">
      <!-- 2020-11 -->
      <g transform="translate(288.62798 277.742812)rotate(-90)scale(0.1 -0.1)">
       <defs>
        <path d="M 794 531 
L 1825 531 
L 1825 4091 
L 703 3866 
L 703 4441 
L 1819 4666 
L 2450 4666 
L 2450 531 
L 3481 531 
L 3481 0 
L 794 0 
L 794 531 
z
" id="DejaVuSans-31" transform="scale(0.015625)"/>
       </defs>
       <use xlink:href="#DejaVuSans-32"/>
       <use x="63.623047" xlink:href="#DejaVuSans-30"/>
       <use x="127.246094" xlink:href="#DejaVuSans-32"/>
       <use x="190.869141" xlink:href="#DejaVuSans-30"/>
       <use x="254.492188" xlink:href="#DejaVuSans-2d"/>
       <use x="290.576172" xlink:href="#DejaVuSans-31"/>
       <use x="354.199219" xlink:href="#DejaVuSans-31"/>
      </g>
     </g>
    </g>
    <g id="xtick_3">
     <g id="line2d_3">
      <g>
       <use style="stroke:#000000;stroke-width:0.8;" x="455.190829" xlink:href="#mcf42773ebf" y="228.96"/>
      </g>
     </g>
     <g id="text_3">
      <!-- 2021-01 -->
      <g transform="translate(457.950204 277.742812)rotate(-90)scale(0.1 -0.1)">
       <use xlink:href="#DejaVuSans-32"/>
       <use x="63.623047" xlink:href="#DejaVuSans-30"/>
       <use x="127.246094" xlink:href="#DejaVuSans-32"/>
       <use x="190.869141" xlink:href="#DejaVuSans-31"/>
       <use x="254.492188" xlink:href="#DejaVuSans-2d"/>
       <use x="290.576172" xlink:href="#DejaVuSans-30"/>
       <use x="354.199219" xlink:href="#DejaVuSans-31"/>
      </g>
     </g>
    </g>
    <g id="xtick_4">
     <g id="line2d_4">
      <g>
       <use style="stroke:#000000;stroke-width:0.8;" x="618.961504" xlink:href="#mcf42773ebf" y="228.96"/>
      </g>
     </g>
     <g id="text_4">
      <!-- 2021-03 -->
      <g transform="translate(621.720879 277.742812)rotate(-90)scale(0.1 -0.1)">
       <defs>
        <path d="M 2597 2516 
Q 3050 2419 3304 2112 
Q 3559 1806 3559 1356 
Q 3559 666 3084 287 
Q 2609 -91 1734 -91 
Q 1441 -91 1130 -33 
Q 819 25 488 141 
L 488 750 
Q 750 597 1062 519 
Q 1375 441 1716 441 
Q 2309 441 2620 675 
Q 2931 909 2931 1356 
Q 2931 1769 2642 2001 
Q 2353 2234 1838 2234 
L 1294 2234 
L 1294 2753 
L 1863 2753 
Q 2328 2753 2575 2939 
Q 2822 3125 2822 3475 
Q 2822 3834 2567 4026 
Q 2313 4219 1838 4219 
Q 1578 4219 1281 4162 
Q 984 4106 628 3988 
L 628 4550 
Q 988 4650 1302 4700 
Q 1616 4750 1894 4750 
Q 2613 4750 3031 4423 
Q 3450 4097 3450 3541 
Q 3450 3153 3228 2886 
Q 3006 2619 2597 2516 
z
" id="DejaVuSans-33" transform="scale(0.015625)"/>
       </defs>
       <use xlink:href="#DejaVuSans-32"/>
       <use x="63.623047" xlink:href="#DejaVuSans-30"/>
       <use x="127.246094" xlink:href="#DejaVuSans-32"/>
       <use x="190.869141" xlink:href="#DejaVuSans-31"/>
       <use x="254.492188" xlink:href="#DejaVuSans-2d"/>
       <use x="290.576172" xlink:href="#DejaVuSans-30"/>
       <use x="354.199219" xlink:href="#DejaVuSans-33"/>
      </g>
     </g>
    </g>
    <g id="xtick_5">
     <g id="line2d_5">
      <g>
       <use style="stroke:#000000;stroke-width:0.8;" x="788.283728" xlink:href="#mcf42773ebf" y="228.96"/>
      </g>
     </g>
     <g id="text_5">
      <!-- 2021-05 -->
      <g transform="translate(791.043103 277.742812)rotate(-90)scale(0.1 -0.1)">
       <defs>
        <path d="M 691 4666 
L 3169 4666 
L 3169 4134 
L 1269 4134 
L 1269 2991 
Q 1406 3038 1543 3061 
Q 1681 3084 1819 3084 
Q 2600 3084 3056 2656 
Q 3513 2228 3513 1497 
Q 3513 744 3044 326 
Q 2575 -91 1722 -91 
Q 1428 -91 1123 -41 
Q 819 9 494 109 
L 494 744 
Q 775 591 1075 516 
Q 1375 441 1709 441 
Q 2250 441 2565 725 
Q 2881 1009 2881 1497 
Q 2881 1984 2565 2268 
Q 2250 2553 1709 2553 
Q 1456 2553 1204 2497 
Q 953 2441 691 2322 
L 691 4666 
z
" id="DejaVuSans-35" transform="scale(0.015625)"/>
       </defs>
       <use xlink:href="#DejaVuSans-32"/>
       <use x="63.623047" xlink:href="#DejaVuSans-30"/>
       <use x="127.246094" xlink:href="#DejaVuSans-32"/>
       <use x="190.869141" xlink:href="#DejaVuSans-31"/>
       <use x="254.492188" xlink:href="#DejaVuSans-2d"/>
       <use x="290.576172" xlink:href="#DejaVuSans-30"/>
       <use x="354.199219" xlink:href="#DejaVuSans-35"/>
      </g>
     </g>
    </g>
    <g id="xtick_6">
     <g id="line2d_6">
      <g>
       <use style="stroke:#000000;stroke-width:0.8;" x="957.605951" xlink:href="#mcf42773ebf" y="228.96"/>
      </g>
     </g>
     <g id="text_6">
      <!-- 2021-07 -->
      <g transform="translate(960.365326 277.742812)rotate(-90)scale(0.1 -0.1)">
       <defs>
        <path d="M 525 4666 
L 3525 4666 
L 3525 4397 
L 1831 0 
L 1172 0 
L 2766 4134 
L 525 4134 
L 525 4666 
z
" id="DejaVuSans-37" transform="scale(0.015625)"/>
       </defs>
       <use xlink:href="#DejaVuSans-32"/>
       <use x="63.623047" xlink:href="#DejaVuSans-30"/>
       <use x="127.246094" xlink:href="#DejaVuSans-32"/>
       <use x="190.869141" xlink:href="#DejaVuSans-31"/>
       <use x="254.492188" xlink:href="#DejaVuSans-2d"/>
       <use x="290.576172" xlink:href="#DejaVuSans-30"/>
       <use x="354.199219" xlink:href="#DejaVuSans-37"/>
      </g>
     </g>
    </g>
    <g id="xtick_7">
     <g id="line2d_7">
      <g>
       <use style="stroke:#000000;stroke-width:0.8;" x="1129.703949" xlink:href="#mcf42773ebf" y="228.96"/>
      </g>
     </g>
     <g id="text_7">
      <!-- 2021-09 -->
      <g transform="translate(1132.463324 277.742812)rotate(-90)scale(0.1 -0.1)">
       <use xlink:href="#DejaVuSans-32"/>
       <use x="63.623047" xlink:href="#DejaVuSans-30"/>
       <use x="127.246094" xlink:href="#DejaVuSans-32"/>
       <use x="190.869141" xlink:href="#DejaVuSans-31"/>
       <use x="254.492188" xlink:href="#DejaVuSans-2d"/>
       <use x="290.576172" xlink:href="#DejaVuSans-30"/>
       <use x="354.199219" xlink:href="#DejaVuSans-39"/>
      </g>
     </g>
    </g>
    <g id="text_8">
     <!-- Date -->
     <g transform="translate(599.377344 289.34125)scale(0.1 -0.1)">
      <defs>
       <path d="M 1259 4147 
L 1259 519 
L 2022 519 
Q 2988 519 3436 956 
Q 3884 1394 3884 2338 
Q 3884 3275 3436 3711 
Q 2988 4147 2022 4147 
L 1259 4147 
z
M 628 4666 
L 1925 4666 
Q 3281 4666 3915 4102 
Q 4550 3538 4550 2338 
Q 4550 1131 3912 565 
Q 3275 0 1925 0 
L 628 0 
L 628 4666 
z
" id="DejaVuSans-44" transform="scale(0.015625)"/>
       <path d="M 2194 1759 
Q 1497 1759 1228 1600 
Q 959 1441 959 1056 
Q 959 750 1161 570 
Q 1363 391 1709 391 
Q 2188 391 2477 730 
Q 2766 1069 2766 1631 
L 2766 1759 
L 2194 1759 
z
M 3341 1997 
L 3341 0 
L 2766 0 
L 2766 531 
Q 2569 213 2275 61 
Q 1981 -91 1556 -91 
Q 1019 -91 701 211 
Q 384 513 384 1019 
Q 384 1609 779 1909 
Q 1175 2209 1959 2209 
L 2766 2209 
L 2766 2266 
Q 2766 2663 2505 2880 
Q 2244 3097 1772 3097 
Q 1472 3097 1187 3025 
Q 903 2953 641 2809 
L 641 3341 
Q 956 3463 1253 3523 
Q 1550 3584 1831 3584 
Q 2591 3584 2966 3190 
Q 3341 2797 3341 1997 
z
" id="DejaVuSans-61" transform="scale(0.015625)"/>
       <path d="M 1172 4494 
L 1172 3500 
L 2356 3500 
L 2356 3053 
L 1172 3053 
L 1172 1153 
Q 1172 725 1289 603 
Q 1406 481 1766 481 
L 2356 481 
L 2356 0 
L 1766 0 
Q 1100 0 847 248 
Q 594 497 594 1153 
L 594 3053 
L 172 3053 
L 172 3500 
L 594 3500 
L 594 4494 
L 1172 4494 
z
" id="DejaVuSans-74" transform="scale(0.015625)"/>
       <path d="M 3597 1894 
L 3597 1613 
L 953 1613 
Q 991 1019 1311 708 
Q 1631 397 2203 397 
Q 2534 397 2845 478 
Q 3156 559 3463 722 
L 3463 178 
Q 3153 47 2828 -22 
Q 2503 -91 2169 -91 
Q 1331 -91 842 396 
Q 353 884 353 1716 
Q 353 2575 817 3079 
Q 1281 3584 2069 3584 
Q 2775 3584 3186 3129 
Q 3597 2675 3597 1894 
z
M 3022 2063 
Q 3016 2534 2758 2815 
Q 2500 3097 2075 3097 
Q 1594 3097 1305 2825 
Q 1016 2553 972 2059 
L 3022 2063 
z
" id="DejaVuSans-65" transform="scale(0.015625)"/>
      </defs>
      <use xlink:href="#DejaVuSans-44"/>
      <use x="77.001953" xlink:href="#DejaVuSans-61"/>
      <use x="138.28125" xlink:href="#DejaVuSans-74"/>
      <use x="177.490234" xlink:href="#DejaVuSans-65"/>
     </g>
    </g>
   </g>
   <g id="matplotlib.axis_2">
    <g id="ytick_1">
     <g id="line2d_8">
      <defs>
       <path d="M 0 0 
L -3.5 0 
" id="ma14a647745" style="stroke:#000000;stroke-width:0.8;"/>
      </defs>
      <g>
       <use style="stroke:#000000;stroke-width:0.8;" x="53.328125" xlink:href="#ma14a647745" y="228.96"/>
      </g>
     </g>
     <g id="text_9">
      <!-- 0 -->
      <g transform="translate(39.965625 232.759219)scale(0.1 -0.1)">
       <use xlink:href="#DejaVuSans-30"/>
      </g>
     </g>
    </g>
    <g id="ytick_2">
     <g id="line2d_9">
      <g>
       <use style="stroke:#000000;stroke-width:0.8;" x="53.328125" xlink:href="#ma14a647745" y="199.39673"/>
      </g>
     </g>
     <g id="text_10">
      <!-- 250 -->
      <g transform="translate(27.240625 203.195949)scale(0.1 -0.1)">
       <use xlink:href="#DejaVuSans-32"/>
       <use x="63.623047" xlink:href="#DejaVuSans-35"/>
       <use x="127.246094" xlink:href="#DejaVuSans-30"/>
      </g>
     </g>
    </g>
    <g id="ytick_3">
     <g id="line2d_10">
      <g>
       <use style="stroke:#000000;stroke-width:0.8;" x="53.328125" xlink:href="#ma14a647745" y="169.83346"/>
      </g>
     </g>
     <g id="text_11">
      <!-- 500 -->
      <g transform="translate(27.240625 173.632679)scale(0.1 -0.1)">
       <use xlink:href="#DejaVuSans-35"/>
       <use x="63.623047" xlink:href="#DejaVuSans-30"/>
       <use x="127.246094" xlink:href="#DejaVuSans-30"/>
      </g>
     </g>
    </g>
    <g id="ytick_4">
     <g id="line2d_11">
      <g>
       <use style="stroke:#000000;stroke-width:0.8;" x="53.328125" xlink:href="#ma14a647745" y="140.27019"/>
      </g>
     </g>
     <g id="text_12">
      <!-- 750 -->
      <g transform="translate(27.240625 144.069409)scale(0.1 -0.1)">
       <use xlink:href="#DejaVuSans-37"/>
       <use x="63.623047" xlink:href="#DejaVuSans-35"/>
       <use x="127.246094" xlink:href="#DejaVuSans-30"/>
      </g>
     </g>
    </g>
    <g id="ytick_5">
     <g id="line2d_12">
      <g>
       <use style="stroke:#000000;stroke-width:0.8;" x="53.328125" xlink:href="#ma14a647745" y="110.70692"/>
      </g>
     </g>
     <g id="text_13">
      <!-- 1000 -->
      <g transform="translate(20.878125 114.506139)scale(0.1 -0.1)">
       <use xlink:href="#DejaVuSans-31"/>
       <use x="63.623047" xlink:href="#DejaVuSans-30"/>
       <use x="127.246094" xlink:href="#DejaVuSans-30"/>
       <use x="190.869141" xlink:href="#DejaVuSans-30"/>
      </g>
     </g>
    </g>
    <g id="ytick_6">
     <g id="line2d_13">
      <g>
       <use style="stroke:#000000;stroke-width:0.8;" x="53.328125" xlink:href="#ma14a647745" y="81.143651"/>
      </g>
     </g>
     <g id="text_14">
      <!-- 1250 -->
      <g transform="translate(20.878125 84.942869)scale(0.1 -0.1)">
       <use xlink:href="#DejaVuSans-31"/>
       <use x="63.623047" xlink:href="#DejaVuSans-32"/>
       <use x="127.246094" xlink:href="#DejaVuSans-35"/>
       <use x="190.869141" xlink:href="#DejaVuSans-30"/>
      </g>
     </g>
    </g>
    <g id="ytick_7">
     <g id="line2d_14">
      <g>
       <use style="stroke:#000000;stroke-width:0.8;" x="53.328125" xlink:href="#ma14a647745" y="51.580381"/>
      </g>
     </g>
     <g id="text_15">
      <!-- 1500 -->
      <g transform="translate(20.878125 55.379599)scale(0.1 -0.1)">
       <use xlink:href="#DejaVuSans-31"/>
       <use x="63.623047" xlink:href="#DejaVuSans-35"/>
       <use x="127.246094" xlink:href="#DejaVuSans-30"/>
       <use x="190.869141" xlink:href="#DejaVuSans-30"/>
      </g>
     </g>
    </g>
    <g id="ytick_8">
     <g id="line2d_15">
      <g>
       <use style="stroke:#000000;stroke-width:0.8;" x="53.328125" xlink:href="#ma14a647745" y="22.017111"/>
      </g>
     </g>
     <g id="text_16">
      <!-- 1750 -->
      <g transform="translate(20.878125 25.81633)scale(0.1 -0.1)">
       <use xlink:href="#DejaVuSans-31"/>
       <use x="63.623047" xlink:href="#DejaVuSans-37"/>
       <use x="127.246094" xlink:href="#DejaVuSans-35"/>
       <use x="190.869141" xlink:href="#DejaVuSans-30"/>
      </g>
     </g>
    </g>
    <g id="text_17">
     <!-- Sequence count -->
     <g transform="translate(14.798437 158.440156)rotate(-90)scale(0.1 -0.1)">
      <defs>
       <path d="M 3425 4513 
L 3425 3897 
Q 3066 4069 2747 4153 
Q 2428 4238 2131 4238 
Q 1616 4238 1336 4038 
Q 1056 3838 1056 3469 
Q 1056 3159 1242 3001 
Q 1428 2844 1947 2747 
L 2328 2669 
Q 3034 2534 3370 2195 
Q 3706 1856 3706 1288 
Q 3706 609 3251 259 
Q 2797 -91 1919 -91 
Q 1588 -91 1214 -16 
Q 841 59 441 206 
L 441 856 
Q 825 641 1194 531 
Q 1563 422 1919 422 
Q 2459 422 2753 634 
Q 3047 847 3047 1241 
Q 3047 1584 2836 1778 
Q 2625 1972 2144 2069 
L 1759 2144 
Q 1053 2284 737 2584 
Q 422 2884 422 3419 
Q 422 4038 858 4394 
Q 1294 4750 2059 4750 
Q 2388 4750 2728 4690 
Q 3069 4631 3425 4513 
z
" id="DejaVuSans-53" transform="scale(0.015625)"/>
       <path d="M 947 1747 
Q 947 1113 1208 752 
Q 1469 391 1925 391 
Q 2381 391 2643 752 
Q 2906 1113 2906 1747 
Q 2906 2381 2643 2742 
Q 2381 3103 1925 3103 
Q 1469 3103 1208 2742 
Q 947 2381 947 1747 
z
M 2906 525 
Q 2725 213 2448 61 
Q 2172 -91 1784 -91 
Q 1150 -91 751 415 
Q 353 922 353 1747 
Q 353 2572 751 3078 
Q 1150 3584 1784 3584 
Q 2172 3584 2448 3432 
Q 2725 3281 2906 2969 
L 2906 3500 
L 3481 3500 
L 3481 -1331 
L 2906 -1331 
L 2906 525 
z
" id="DejaVuSans-71" transform="scale(0.015625)"/>
       <path d="M 544 1381 
L 544 3500 
L 1119 3500 
L 1119 1403 
Q 1119 906 1312 657 
Q 1506 409 1894 409 
Q 2359 409 2629 706 
Q 2900 1003 2900 1516 
L 2900 3500 
L 3475 3500 
L 3475 0 
L 2900 0 
L 2900 538 
Q 2691 219 2414 64 
Q 2138 -91 1772 -91 
Q 1169 -91 856 284 
Q 544 659 544 1381 
z
M 1991 3584 
L 1991 3584 
z
" id="DejaVuSans-75" transform="scale(0.015625)"/>
       <path d="M 3513 2113 
L 3513 0 
L 2938 0 
L 2938 2094 
Q 2938 2591 2744 2837 
Q 2550 3084 2163 3084 
Q 1697 3084 1428 2787 
Q 1159 2491 1159 1978 
L 1159 0 
L 581 0 
L 581 3500 
L 1159 3500 
L 1159 2956 
Q 1366 3272 1645 3428 
Q 1925 3584 2291 3584 
Q 2894 3584 3203 3211 
Q 3513 2838 3513 2113 
z
" id="DejaVuSans-6e" transform="scale(0.015625)"/>
       <path d="M 3122 3366 
L 3122 2828 
Q 2878 2963 2633 3030 
Q 2388 3097 2138 3097 
Q 1578 3097 1268 2742 
Q 959 2388 959 1747 
Q 959 1106 1268 751 
Q 1578 397 2138 397 
Q 2388 397 2633 464 
Q 2878 531 3122 666 
L 3122 134 
Q 2881 22 2623 -34 
Q 2366 -91 2075 -91 
Q 1284 -91 818 406 
Q 353 903 353 1747 
Q 353 2603 823 3093 
Q 1294 3584 2113 3584 
Q 2378 3584 2631 3529 
Q 2884 3475 3122 3366 
z
" id="DejaVuSans-63" transform="scale(0.015625)"/>
       <path id="DejaVuSans-20" transform="scale(0.015625)"/>
       <path d="M 1959 3097 
Q 1497 3097 1228 2736 
Q 959 2375 959 1747 
Q 959 1119 1226 758 
Q 1494 397 1959 397 
Q 2419 397 2687 759 
Q 2956 1122 2956 1747 
Q 2956 2369 2687 2733 
Q 2419 3097 1959 3097 
z
M 1959 3584 
Q 2709 3584 3137 3096 
Q 3566 2609 3566 1747 
Q 3566 888 3137 398 
Q 2709 -91 1959 -91 
Q 1206 -91 779 398 
Q 353 888 353 1747 
Q 353 2609 779 3096 
Q 1206 3584 1959 3584 
z
" id="DejaVuSans-6f" transform="scale(0.015625)"/>
      </defs>
      <use xlink:href="#DejaVuSans-53"/>
      <use x="63.476562" xlink:href="#DejaVuSans-65"/>
      <use x="125" xlink:href="#DejaVuSans-71"/>
      <use x="188.476562" xlink:href="#DejaVuSans-75"/>
      <use x="251.855469" xlink:href="#DejaVuSans-65"/>
      <use x="313.378906" xlink:href="#DejaVuSans-6e"/>
      <use x="376.757812" xlink:href="#DejaVuSans-63"/>
      <use x="431.738281" xlink:href="#DejaVuSans-65"/>
      <use x="493.261719" xlink:href="#DejaVuSans-20"/>
      <use x="525.048828" xlink:href="#DejaVuSans-63"/>
      <use x="580.029297" xlink:href="#DejaVuSans-6f"/>
      <use x="641.210938" xlink:href="#DejaVuSans-75"/>
      <use x="704.589844" xlink:href="#DejaVuSans-6e"/>
      <use x="767.96875" xlink:href="#DejaVuSans-74"/>
     </g>
    </g>
   </g>
   <g id="patch_55">
    <path d="M 53.328125 228.96 
L 53.328125 7.2 
" style="fill:none;stroke:#000000;stroke-linecap:square;stroke-linejoin:miter;stroke-width:0.8;"/>
   </g>
   <g id="patch_56">
    <path d="M 1169.328125 228.96 
L 1169.328125 7.2 
" style="fill:none;stroke:#000000;stroke-linecap:square;stroke-linejoin:miter;stroke-width:0.8;"/>
   </g>
   <g id="patch_57">
    <path d="M 53.328125 228.96 
L 1169.328125 228.96 
" style="fill:none;stroke:#000000;stroke-linecap:square;stroke-linejoin:miter;stroke-width:0.8;"/>
   </g>
  </g>
  <g id="axes_2">
   <g id="matplotlib.axis_3">
    <g id="ytick_9">
     <g id="line2d_16">
      <defs>
       <path d="M 0 0 
L 3.5 0 
" id="m002e370ceb" style="stroke:#000000;stroke-width:0.8;"/>
      </defs>
      <g>
       <use style="stroke:#000000;stroke-width:0.8;" x="1169.328125" xlink:href="#m002e370ceb" y="218.887389"/>
      </g>
     </g>
     <g id="text_18">
      <!-- 0 -->
      <g transform="translate(1176.328125 222.686607)scale(0.1 -0.1)">
       <use xlink:href="#DejaVuSans-30"/>
      </g>
     </g>
    </g>
    <g id="ytick_10">
     <g id="line2d_17">
      <g>
       <use style="stroke:#000000;stroke-width:0.8;" x="1169.328125" xlink:href="#m002e370ceb" y="181.944013"/>
      </g>
     </g>
     <g id="text_19">
      <!-- 5000 -->
      <g transform="translate(1176.328125 185.743232)scale(0.1 -0.1)">
       <use xlink:href="#DejaVuSans-35"/>
       <use x="63.623047" xlink:href="#DejaVuSans-30"/>
       <use x="127.246094" xlink:href="#DejaVuSans-30"/>
       <use x="190.869141" xlink:href="#DejaVuSans-30"/>
      </g>
     </g>
    </g>
    <g id="ytick_11">
     <g id="line2d_18">
      <g>
       <use style="stroke:#000000;stroke-width:0.8;" x="1169.328125" xlink:href="#m002e370ceb" y="145.000638"/>
      </g>
     </g>
     <g id="text_20">
      <!-- 10000 -->
      <g transform="translate(1176.328125 148.799856)scale(0.1 -0.1)">
       <use xlink:href="#DejaVuSans-31"/>
       <use x="63.623047" xlink:href="#DejaVuSans-30"/>
       <use x="127.246094" xlink:href="#DejaVuSans-30"/>
       <use x="190.869141" xlink:href="#DejaVuSans-30"/>
       <use x="254.492188" xlink:href="#DejaVuSans-30"/>
      </g>
     </g>
    </g>
    <g id="ytick_12">
     <g id="line2d_19">
      <g>
       <use style="stroke:#000000;stroke-width:0.8;" x="1169.328125" xlink:href="#m002e370ceb" y="108.057262"/>
      </g>
     </g>
     <g id="text_21">
      <!-- 15000 -->
      <g transform="translate(1176.328125 111.856481)scale(0.1 -0.1)">
       <use xlink:href="#DejaVuSans-31"/>
       <use x="63.623047" xlink:href="#DejaVuSans-35"/>
       <use x="127.246094" xlink:href="#DejaVuSans-30"/>
       <use x="190.869141" xlink:href="#DejaVuSans-30"/>
       <use x="254.492188" xlink:href="#DejaVuSans-30"/>
      </g>
     </g>
    </g>
    <g id="ytick_13">
     <g id="line2d_20">
      <g>
       <use style="stroke:#000000;stroke-width:0.8;" x="1169.328125" xlink:href="#m002e370ceb" y="71.113887"/>
      </g>
     </g>
     <g id="text_22">
      <!-- 20000 -->
      <g transform="translate(1176.328125 74.913106)scale(0.1 -0.1)">
       <use xlink:href="#DejaVuSans-32"/>
       <use x="63.623047" xlink:href="#DejaVuSans-30"/>
       <use x="127.246094" xlink:href="#DejaVuSans-30"/>
       <use x="190.869141" xlink:href="#DejaVuSans-30"/>
       <use x="254.492188" xlink:href="#DejaVuSans-30"/>
      </g>
     </g>
    </g>
    <g id="ytick_14">
     <g id="line2d_21">
      <g>
       <use style="stroke:#000000;stroke-width:0.8;" x="1169.328125" xlink:href="#m002e370ceb" y="34.170511"/>
      </g>
     </g>
     <g id="text_23">
      <!-- 25000 -->
      <g transform="translate(1176.328125 37.96973)scale(0.1 -0.1)">
       <use xlink:href="#DejaVuSans-32"/>
       <use x="63.623047" xlink:href="#DejaVuSans-35"/>
       <use x="127.246094" xlink:href="#DejaVuSans-30"/>
       <use x="190.869141" xlink:href="#DejaVuSans-30"/>
       <use x="254.492188" xlink:href="#DejaVuSans-30"/>
      </g>
     </g>
    </g>
    <g id="text_24">
     <!-- Total -->
     <g transform="translate(1219.739063 129.756562)rotate(-90)scale(0.1 -0.1)">
      <defs>
       <path d="M -19 4666 
L 3928 4666 
L 3928 4134 
L 2272 4134 
L 2272 0 
L 1638 0 
L 1638 4134 
L -19 4134 
L -19 4666 
z
" id="DejaVuSans-54" transform="scale(0.015625)"/>
       <path d="M 603 4863 
L 1178 4863 
L 1178 0 
L 603 0 
L 603 4863 
z
" id="DejaVuSans-6c" transform="scale(0.015625)"/>
      </defs>
      <use xlink:href="#DejaVuSans-54"/>
      <use x="44.083984" xlink:href="#DejaVuSans-6f"/>
      <use x="105.265625" xlink:href="#DejaVuSans-74"/>
      <use x="144.474609" xlink:href="#DejaVuSans-61"/>
      <use x="205.753906" xlink:href="#DejaVuSans-6c"/>
     </g>
    </g>
   </g>
   <g id="line2d_22">
    <path clip-path="url(#p95e920acb5)" d="M 116.546381 218.88 
L 152.631445 218.695283 
L 177.613413 218.399736 
L 255.335089 217.823419 
L 263.662412 217.601759 
L 274.765508 217.350544 
L 283.092831 217.165827 
L 285.868605 217.15105 
L 288.644379 216.936778 
L 296.971702 216.589511 
L 302.52325 216.42696 
L 310.850572 216.36785 
L 316.402121 216.042749 
L 319.177895 215.880198 
L 330.280992 215.747202 
L 338.608314 215.008334 
L 344.159862 214.956614 
L 346.935637 214.742342 
L 349.711411 214.269467 
L 352.487185 214.047806 
L 366.366056 213.604486 
L 371.917604 213.175943 
L 383.020701 212.599626 
L 385.796475 212.222804 
L 388.572249 212.045476 
L 394.123797 211.52088 
L 399.675345 211.269665 
L 402.45112 211.217944 
L 408.002668 210.309137 
L 410.778442 210.168752 
L 413.554216 209.851039 
L 416.32999 209.415107 
L 421.881539 209.23039 
L 424.657313 208.609742 
L 427.433087 208.151644 
L 432.984635 207.427554 
L 441.311958 206.806905 
L 446.863506 205.137064 
L 452.415054 204.250423 
L 455.190829 204.050929 
L 457.966603 203.681495 
L 460.742377 203.43028 
L 463.518151 202.048598 
L 469.069699 200.282705 
L 471.845474 199.817218 
L 474.621248 199.181792 
L 480.172796 198.568532 
L 482.94857 197.541506 
L 491.275893 195.243628 
L 494.051667 194.748587 
L 496.827441 194.371765 
L 499.603215 194.179659 
L 502.378989 193.477735 
L 507.930538 192.376822 
L 513.482086 190.987752 
L 516.25786 190.751314 
L 519.033634 190.344937 
L 521.809408 189.406575 
L 530.136731 187.14564 
L 532.912505 186.428939 
L 535.688279 185.985618 
L 538.464053 185.786124 
L 541.239828 184.869929 
L 544.015602 183.754239 
L 546.791376 182.860209 
L 549.56715 182.180451 
L 552.342924 181.279032 
L 557.894472 180.599274 
L 560.670247 179.335811 
L 563.446021 178.234898 
L 566.221795 177.289148 
L 568.997569 176.151292 
L 571.773343 175.153821 
L 574.549117 174.607059 
L 577.324892 174.311512 
L 580.100666 172.752501 
L 585.652214 170.373348 
L 588.427988 169.242881 
L 591.203762 168.24541 
L 596.755311 167.247938 
L 599.531085 165.459879 
L 602.306859 164.240748 
L 605.082633 162.711292 
L 607.858407 161.447828 
L 610.634181 160.014426 
L 616.18573 158.898736 
L 618.961504 156.615635 
L 621.737278 154.694579 
L 624.513052 152.980407 
L 630.064601 150.534755 
L 635.616149 149.22696 
L 638.391923 146.648312 
L 641.167697 144.557317 
L 646.719246 140.796482 
L 649.49502 138.698098 
L 652.270794 137.471578 
L 655.046568 136.666212 
L 657.822342 134.191006 
L 660.598116 131.531083 
L 666.149665 127.570753 
L 668.925439 125.457592 
L 671.701213 124.275404 
L 674.476987 123.300099 
L 677.252761 120.551512 
L 680.028535 118.091083 
L 682.80431 115.859703 
L 685.580084 113.842595 
L 688.355858 112.25403 
L 691.131632 111.367389 
L 693.907406 110.621132 
L 696.68318 107.525278 
L 699.458954 104.72497 
L 702.234729 102.670918 
L 705.010503 101.023244 
L 710.562051 98.208158 
L 713.337825 97.269797 
L 716.113599 95.740341 
L 721.665148 92.385882 
L 727.216696 89.548631 
L 729.99247 88.469885 
L 732.768244 87.745794 
L 735.544019 85.758241 
L 738.319793 83.600748 
L 741.095567 82.123013 
L 746.647115 79.633029 
L 749.422889 78.495173 
L 752.198663 77.963189 
L 754.974438 76.249016 
L 760.525986 73.500429 
L 766.077534 71.106498 
L 771.629083 69.436658 
L 774.404857 67.389995 
L 777.180631 65.57238 
L 779.956405 64.29414 
L 785.507953 61.959318 
L 791.059502 60.681078 
L 793.835276 58.863463 
L 796.61105 57.237955 
L 799.386824 55.87105 
L 804.938372 53.846553 
L 807.714147 53.122463 
L 810.489921 52.63481 
L 818.817243 49.317295 
L 824.368792 48.002111 
L 827.144566 47.50707 
L 829.92034 47.218911 
L 835.471888 45.416075 
L 838.247662 44.640264 
L 841.023437 43.99006 
L 843.799211 43.480242 
L 849.350759 43.014755 
L 852.126533 42.386718 
L 854.902307 41.307971 
L 860.453856 40.251391 
L 863.22963 39.741572 
L 868.781178 39.268697 
L 874.332726 37.879626 
L 882.660049 36.364948 
L 885.435823 35.980737 
L 888.211597 35.744299 
L 890.987371 35.204926 
L 893.763146 34.384783 
L 902.090468 33.594195 
L 910.41779 32.899659 
L 918.745113 31.791358 
L 921.520887 31.458868 
L 927.072435 31.22243 
L 929.84821 30.786498 
L 935.399758 29.685585 
L 938.175532 29.397427 
L 940.951306 28.939329 
L 946.502855 28.540341 
L 949.278629 28.163518 
L 954.830177 26.944387 
L 957.605951 26.4789 
L 960.381725 26.198131 
L 963.157499 24.432237 
L 965.933274 24.107136 
L 968.709048 23.52343 
L 971.484822 22.814118 
L 974.260596 22.518571 
L 979.812144 21.68365 
L 988.139467 21.026058 
L 990.915241 20.575349 
L 999.242564 20.265025 
L 1002.018338 20.228081 
L 1004.794112 20.043364 
L 1007.569886 19.526157 
L 1010.34566 19.141946 
L 1013.121434 19.038505 
L 1018.672983 18.536075 
L 1029.776079 18.188807 
L 1032.551853 18.00409 
L 1035.327628 17.952369 
L 1038.103402 17.745487 
L 1074.188466 17.324332 
L 1118.600852 17.28 
L 1118.600852 17.28 
" style="fill:none;stroke:#696969;stroke-linecap:square;stroke-width:3;"/>
   </g>
   <g id="patch_58">
    <path d="M 53.328125 228.96 
L 53.328125 7.2 
" style="fill:none;stroke:#000000;stroke-linecap:square;stroke-linejoin:miter;stroke-width:0.8;"/>
   </g>
   <g id="patch_59">
    <path d="M 1169.328125 228.96 
L 1169.328125 7.2 
" style="fill:none;stroke:#000000;stroke-linecap:square;stroke-linejoin:miter;stroke-width:0.8;"/>
   </g>
   <g id="patch_60">
    <path d="M 53.328125 228.96 
L 1169.328125 228.96 
" style="fill:none;stroke:#000000;stroke-linecap:square;stroke-linejoin:miter;stroke-width:0.8;"/>
   </g>
  </g>
 </g>
 <defs>
  <clipPath id="p95e920acb5">
   <rect height="221.76" width="1116" x="53.328125" y="7.2"/>
  </clipPath>
 </defs>
</svg>
