<?xml version="1.0" encoding="utf-8" standalone="no"?>
<!DOCTYPE svg PUBLIC "-//W3C//DTD SVG 1.1//EN"
  "http://www.w3.org/Graphics/SVG/1.1/DTD/svg11.dtd">
<svg height="299.707164pt" version="1.1" viewBox="0 0 1216.29375 299.707164" width="1216.29375pt" xmlns="http://www.w3.org/2000/svg" xmlns:xlink="http://www.w3.org/1999/xlink">
 <metadata>
  <rdf:RDF xmlns:cc="http://creativecommons.org/ns#" xmlns:dc="http://purl.org/dc/elements/1.1/" xmlns:rdf="http://www.w3.org/1999/02/22-rdf-syntax-ns#">
   <cc:Work>
    <dc:type rdf:resource="http://purl.org/dc/dcmitype/StillImage"/>
    <dc:date>2021-11-03T13:56:51.325569</dc:date>
    <dc:format>image/svg+xml</dc:format>
    <dc:creator>
     <cc:Agent>
      <dc:title>Matplotlib v3.4.2, https://matplotlib.org/</dc:title>
     </cc:Agent>
    </dc:creator>
   </cc:Work>
  </rdf:RDF>
 </metadata>
 <defs>
  <style type="text/css">*{stroke-linecap:butt;stroke-linejoin:round;}</style>
 </defs>
 <g id="figure_1">
  <g id="patch_1">
   <path d="M 0 299.707164 
L 1216.29375 299.707164 
L 1216.29375 0 
L 0 0 
z
" style="fill:#ffffff;"/>
  </g>
  <g id="axes_1">
   <g id="patch_2">
    <path d="M 46.965625 230.046227 
L 1162.965625 230.046227 
L 1162.965625 8.286227 
L 46.965625 8.286227 
z
" style="fill:#ffffff;"/>
   </g>
   <g id="patch_3">
    <path clip-path="url(#pc4da693d6b)" d="M 97.692898 230.046227 
L 111.98227 230.046227 
L 111.98227 229.755318 
L 97.692898 229.755318 
z
" style="fill:#86b0a6;"/>
   </g>
   <g id="patch_4">
    <path clip-path="url(#pc4da693d6b)" d="M 277.738992 230.046227 
L 292.028365 230.046227 
L 292.028365 229.755318 
L 277.738992 229.755318 
z
" style="fill:#86b0a6;"/>
   </g>
   <g id="patch_5">
    <path clip-path="url(#pc4da693d6b)" d="M 297.744114 230.046227 
L 312.033487 230.046227 
L 312.033487 227.428045 
L 297.744114 227.428045 
z
" style="fill:#86b0a6;"/>
   </g>
   <g id="patch_6">
    <path clip-path="url(#pc4da693d6b)" d="M 317.749236 230.046227 
L 332.038608 230.046227 
L 332.038608 228.88259 
L 317.749236 228.88259 
z
" style="fill:#86b0a6;"/>
   </g>
   <g id="patch_7">
    <path clip-path="url(#pc4da693d6b)" d="M 337.754357 230.046227 
L 352.04373 230.046227 
L 352.04373 226.264408 
L 337.754357 226.264408 
z
" style="fill:#86b0a6;"/>
   </g>
   <g id="patch_8">
    <path clip-path="url(#pc4da693d6b)" d="M 357.759479 230.046227 
L 372.048852 230.046227 
L 372.048852 214.046227 
L 357.759479 214.046227 
z
" style="fill:#86b0a6;"/>
   </g>
   <g id="patch_9">
    <path clip-path="url(#pc4da693d6b)" d="M 377.764601 230.046227 
L 392.053973 230.046227 
L 392.053973 211.718954 
L 377.764601 211.718954 
z
" style="fill:#86b0a6;"/>
   </g>
   <g id="patch_10">
    <path clip-path="url(#pc4da693d6b)" d="M 397.769722 230.046227 
L 412.059095 230.046227 
L 412.059095 209.391681 
L 397.769722 209.391681 
z
" style="fill:#86b0a6;"/>
   </g>
   <g id="patch_11">
    <path clip-path="url(#pc4da693d6b)" d="M 417.774844 230.046227 
L 432.064217 230.046227 
L 432.064217 192.809863 
L 417.774844 192.809863 
z
" style="fill:#86b0a6;"/>
   </g>
   <g id="patch_12">
    <path clip-path="url(#pc4da693d6b)" d="M 437.779966 230.046227 
L 452.069338 230.046227 
L 452.069338 167.791681 
L 437.779966 167.791681 
z
" style="fill:#86b0a6;"/>
   </g>
   <g id="patch_13">
    <path clip-path="url(#pc4da693d6b)" d="M 457.785087 230.046227 
L 472.07446 230.046227 
L 472.07446 176.228045 
L 457.785087 176.228045 
z
" style="fill:#86b0a6;"/>
   </g>
   <g id="patch_14">
    <path clip-path="url(#pc4da693d6b)" d="M 477.790209 230.046227 
L 492.079581 230.046227 
L 492.079581 166.628045 
L 477.790209 166.628045 
z
" style="fill:#86b0a6;"/>
   </g>
   <g id="patch_15">
    <path clip-path="url(#pc4da693d6b)" d="M 497.795331 230.046227 
L 512.084703 230.046227 
L 512.084703 144.228045 
L 497.795331 144.228045 
z
" style="fill:#86b0a6;"/>
   </g>
   <g id="patch_16">
    <path clip-path="url(#pc4da693d6b)" d="M 517.800452 230.046227 
L 532.089825 230.046227 
L 532.089825 94.191681 
L 517.800452 94.191681 
z
" style="fill:#86b0a6;"/>
   </g>
   <g id="patch_17">
    <path clip-path="url(#pc4da693d6b)" d="M 537.805574 230.046227 
L 552.094946 230.046227 
L 552.094946 88.955318 
L 537.805574 88.955318 
z
" style="fill:#86b0a6;"/>
   </g>
   <g id="patch_18">
    <path clip-path="url(#pc4da693d6b)" d="M 557.810695 230.046227 
L 572.100068 230.046227 
L 572.100068 63.937136 
L 557.810695 63.937136 
z
" style="fill:#86b0a6;"/>
   </g>
   <g id="patch_19">
    <path clip-path="url(#pc4da693d6b)" d="M 577.815817 230.046227 
L 592.10519 230.046227 
L 592.10519 19.718954 
L 577.815817 19.718954 
z
" style="fill:#86b0a6;"/>
   </g>
   <g id="patch_20">
    <path clip-path="url(#pc4da693d6b)" d="M 597.820939 230.046227 
L 612.110311 230.046227 
L 612.110311 18.846227 
L 597.820939 18.846227 
z
" style="fill:#86b0a6;"/>
   </g>
   <g id="patch_21">
    <path clip-path="url(#pc4da693d6b)" d="M 617.82606 230.046227 
L 632.115433 230.046227 
L 632.115433 49.100772 
L 617.82606 49.100772 
z
" style="fill:#86b0a6;"/>
   </g>
   <g id="patch_22">
    <path clip-path="url(#pc4da693d6b)" d="M 637.831182 230.046227 
L 652.120555 230.046227 
L 652.120555 65.100772 
L 637.831182 65.100772 
z
" style="fill:#86b0a6;"/>
   </g>
   <g id="patch_23">
    <path clip-path="url(#pc4da693d6b)" d="M 657.836304 230.046227 
L 672.125676 230.046227 
L 672.125676 98.846227 
L 657.836304 98.846227 
z
" style="fill:#86b0a6;"/>
   </g>
   <g id="patch_24">
    <path clip-path="url(#pc4da693d6b)" d="M 677.841425 230.046227 
L 692.130798 230.046227 
L 692.130798 102.628045 
L 677.841425 102.628045 
z
" style="fill:#86b0a6;"/>
   </g>
   <g id="patch_25">
    <path clip-path="url(#pc4da693d6b)" d="M 697.846547 230.046227 
L 712.135919 230.046227 
L 712.135919 124.446227 
L 697.846547 124.446227 
z
" style="fill:#86b0a6;"/>
   </g>
   <g id="patch_26">
    <path clip-path="url(#pc4da693d6b)" d="M 717.851669 230.046227 
L 732.141041 230.046227 
L 732.141041 155.28259 
L 717.851669 155.28259 
z
" style="fill:#86b0a6;"/>
   </g>
   <g id="patch_27">
    <path clip-path="url(#pc4da693d6b)" d="M 737.85679 230.046227 
L 752.146163 230.046227 
L 752.146163 180.591681 
L 737.85679 180.591681 
z
" style="fill:#86b0a6;"/>
   </g>
   <g id="patch_28">
    <path clip-path="url(#pc4da693d6b)" d="M 757.861912 230.046227 
L 772.151284 230.046227 
L 772.151284 193.68259 
L 757.861912 193.68259 
z
" style="fill:#86b0a6;"/>
   </g>
   <g id="patch_29">
    <path clip-path="url(#pc4da693d6b)" d="M 777.867033 230.046227 
L 792.156406 230.046227 
L 792.156406 205.028045 
L 777.867033 205.028045 
z
" style="fill:#86b0a6;"/>
   </g>
   <g id="patch_30">
    <path clip-path="url(#pc4da693d6b)" d="M 797.872155 230.046227 
L 812.161528 230.046227 
L 812.161528 202.118954 
L 797.872155 202.118954 
z
" style="fill:#86b0a6;"/>
   </g>
   <g id="patch_31">
    <path clip-path="url(#pc4da693d6b)" d="M 817.877277 230.046227 
L 832.166649 230.046227 
L 832.166649 196.300772 
L 817.877277 196.300772 
z
" style="fill:#86b0a6;"/>
   </g>
   <g id="patch_32">
    <path clip-path="url(#pc4da693d6b)" d="M 837.882398 230.046227 
L 852.171771 230.046227 
L 852.171771 207.064408 
L 837.882398 207.064408 
z
" style="fill:#86b0a6;"/>
   </g>
   <g id="patch_33">
    <path clip-path="url(#pc4da693d6b)" d="M 857.88752 230.046227 
L 872.176893 230.046227 
L 872.176893 221.900772 
L 857.88752 221.900772 
z
" style="fill:#86b0a6;"/>
   </g>
   <g id="patch_34">
    <path clip-path="url(#pc4da693d6b)" d="M 877.892642 230.046227 
L 892.182014 230.046227 
L 892.182014 224.809863 
L 877.892642 224.809863 
z
" style="fill:#86b0a6;"/>
   </g>
   <g id="patch_35">
    <path clip-path="url(#pc4da693d6b)" d="M 897.897763 230.046227 
L 912.187136 230.046227 
L 912.187136 226.264408 
L 897.897763 226.264408 
z
" style="fill:#86b0a6;"/>
   </g>
   <g id="patch_36">
    <path clip-path="url(#pc4da693d6b)" d="M 917.902885 230.046227 
L 932.192258 230.046227 
L 932.192258 228.88259 
L 917.902885 228.88259 
z
" style="fill:#86b0a6;"/>
   </g>
   <g id="patch_37">
    <path clip-path="url(#pc4da693d6b)" d="M 937.908007 230.046227 
L 952.197379 230.046227 
L 952.197379 221.609863 
L 937.908007 221.609863 
z
" style="fill:#86b0a6;"/>
   </g>
   <g id="patch_38">
    <path clip-path="url(#pc4da693d6b)" d="M 957.913128 230.046227 
L 972.202501 230.046227 
L 972.202501 225.100772 
L 957.913128 225.100772 
z
" style="fill:#86b0a6;"/>
   </g>
   <g id="patch_39">
    <path clip-path="url(#pc4da693d6b)" d="M 977.91825 230.046227 
L 992.207622 230.046227 
L 992.207622 229.755318 
L 977.91825 229.755318 
z
" style="fill:#86b0a6;"/>
   </g>
   <g id="patch_40">
    <path clip-path="url(#pc4da693d6b)" d="M 997.923371 230.046227 
L 1012.212744 230.046227 
L 1012.212744 229.755318 
L 997.923371 229.755318 
z
" style="fill:#86b0a6;"/>
   </g>
   <g id="patch_41">
    <path clip-path="url(#pc4da693d6b)" d="M 1017.928493 230.046227 
L 1032.217866 230.046227 
L 1032.217866 229.755318 
L 1017.928493 229.755318 
z
" style="fill:#86b0a6;"/>
   </g>
   <g id="patch_42">
    <path clip-path="url(#pc4da693d6b)" d="M 1037.933615 230.046227 
L 1052.222987 230.046227 
L 1052.222987 229.464408 
L 1037.933615 229.464408 
z
" style="fill:#86b0a6;"/>
   </g>
   <g id="patch_43">
    <path clip-path="url(#pc4da693d6b)" d="M 1057.938736 230.046227 
L 1072.228109 230.046227 
L 1072.228109 229.173499 
L 1057.938736 229.173499 
z
" style="fill:#86b0a6;"/>
   </g>
   <g id="patch_44">
    <path clip-path="url(#pc4da693d6b)" d="M 1077.943858 230.046227 
L 1092.233231 230.046227 
L 1092.233231 229.755318 
L 1077.943858 229.755318 
z
" style="fill:#86b0a6;"/>
   </g>
   <g id="patch_45">
    <path clip-path="url(#pc4da693d6b)" d="M 1097.94898 230.046227 
L 1112.238352 230.046227 
L 1112.238352 229.755318 
L 1097.94898 229.755318 
z
" style="fill:#86b0a6;"/>
   </g>
   <g id="matplotlib.axis_1">
    <g id="xtick_1">
     <g id="line2d_1">
      <defs>
       <path d="M 0 0 
L 0 3.5 
" id="m1d51a9dbaa" style="stroke:#000000;stroke-width:0.8;"/>
      </defs>
      <g>
       <use style="stroke:#000000;stroke-width:0.8;" x="184.858071" xlink:href="#m1d51a9dbaa" y="230.046227"/>
      </g>
     </g>
     <g id="text_1">
      <!-- 2020-11 -->
      <g transform="translate(187.617446 278.829039)rotate(-90)scale(0.1 -0.1)">
       <defs>
        <path d="M 1228 531 
L 3431 531 
L 3431 0 
L 469 0 
L 469 531 
Q 828 903 1448 1529 
Q 2069 2156 2228 2338 
Q 2531 2678 2651 2914 
Q 2772 3150 2772 3378 
Q 2772 3750 2511 3984 
Q 2250 4219 1831 4219 
Q 1534 4219 1204 4116 
Q 875 4013 500 3803 
L 500 4441 
Q 881 4594 1212 4672 
Q 1544 4750 1819 4750 
Q 2544 4750 2975 4387 
Q 3406 4025 3406 3419 
Q 3406 3131 3298 2873 
Q 3191 2616 2906 2266 
Q 2828 2175 2409 1742 
Q 1991 1309 1228 531 
z
" id="DejaVuSans-32" transform="scale(0.015625)"/>
        <path d="M 2034 4250 
Q 1547 4250 1301 3770 
Q 1056 3291 1056 2328 
Q 1056 1369 1301 889 
Q 1547 409 2034 409 
Q 2525 409 2770 889 
Q 3016 1369 3016 2328 
Q 3016 3291 2770 3770 
Q 2525 4250 2034 4250 
z
M 2034 4750 
Q 2819 4750 3233 4129 
Q 3647 3509 3647 2328 
Q 3647 1150 3233 529 
Q 2819 -91 2034 -91 
Q 1250 -91 836 529 
Q 422 1150 422 2328 
Q 422 3509 836 4129 
Q 1250 4750 2034 4750 
z
" id="DejaVuSans-30" transform="scale(0.015625)"/>
        <path d="M 313 2009 
L 1997 2009 
L 1997 1497 
L 313 1497 
L 313 2009 
z
" id="DejaVuSans-2d" transform="scale(0.015625)"/>
        <path d="M 794 531 
L 1825 531 
L 1825 4091 
L 703 3866 
L 703 4441 
L 1819 4666 
L 2450 4666 
L 2450 531 
L 3481 531 
L 3481 0 
L 794 0 
L 794 531 
z
" id="DejaVuSans-31" transform="scale(0.015625)"/>
       </defs>
       <use xlink:href="#DejaVuSans-32"/>
       <use x="63.623047" xlink:href="#DejaVuSans-30"/>
       <use x="127.246094" xlink:href="#DejaVuSans-32"/>
       <use x="190.869141" xlink:href="#DejaVuSans-30"/>
       <use x="254.492188" xlink:href="#DejaVuSans-2d"/>
       <use x="290.576172" xlink:href="#DejaVuSans-31"/>
       <use x="354.199219" xlink:href="#DejaVuSans-31"/>
      </g>
     </g>
    </g>
    <g id="xtick_2">
     <g id="line2d_2">
      <g>
       <use style="stroke:#000000;stroke-width:0.8;" x="359.188416" xlink:href="#m1d51a9dbaa" y="230.046227"/>
      </g>
     </g>
     <g id="text_2">
      <!-- 2021-01 -->
      <g transform="translate(361.947791 278.829039)rotate(-90)scale(0.1 -0.1)">
       <use xlink:href="#DejaVuSans-32"/>
       <use x="63.623047" xlink:href="#DejaVuSans-30"/>
       <use x="127.246094" xlink:href="#DejaVuSans-32"/>
       <use x="190.869141" xlink:href="#DejaVuSans-31"/>
       <use x="254.492188" xlink:href="#DejaVuSans-2d"/>
       <use x="290.576172" xlink:href="#DejaVuSans-30"/>
       <use x="354.199219" xlink:href="#DejaVuSans-31"/>
      </g>
     </g>
    </g>
    <g id="xtick_3">
     <g id="line2d_3">
      <g>
       <use style="stroke:#000000;stroke-width:0.8;" x="527.803013" xlink:href="#m1d51a9dbaa" y="230.046227"/>
      </g>
     </g>
     <g id="text_3">
      <!-- 2021-03 -->
      <g transform="translate(530.562388 278.829039)rotate(-90)scale(0.1 -0.1)">
       <defs>
        <path d="M 2597 2516 
Q 3050 2419 3304 2112 
Q 3559 1806 3559 1356 
Q 3559 666 3084 287 
Q 2609 -91 1734 -91 
Q 1441 -91 1130 -33 
Q 819 25 488 141 
L 488 750 
Q 750 597 1062 519 
Q 1375 441 1716 441 
Q 2309 441 2620 675 
Q 2931 909 2931 1356 
Q 2931 1769 2642 2001 
Q 2353 2234 1838 2234 
L 1294 2234 
L 1294 2753 
L 1863 2753 
Q 2328 2753 2575 2939 
Q 2822 3125 2822 3475 
Q 2822 3834 2567 4026 
Q 2313 4219 1838 4219 
Q 1578 4219 1281 4162 
Q 984 4106 628 3988 
L 628 4550 
Q 988 4650 1302 4700 
Q 1616 4750 1894 4750 
Q 2613 4750 3031 4423 
Q 3450 4097 3450 3541 
Q 3450 3153 3228 2886 
Q 3006 2619 2597 2516 
z
" id="DejaVuSans-33" transform="scale(0.015625)"/>
       </defs>
       <use xlink:href="#DejaVuSans-32"/>
       <use x="63.623047" xlink:href="#DejaVuSans-30"/>
       <use x="127.246094" xlink:href="#DejaVuSans-32"/>
       <use x="190.869141" xlink:href="#DejaVuSans-31"/>
       <use x="254.492188" xlink:href="#DejaVuSans-2d"/>
       <use x="290.576172" xlink:href="#DejaVuSans-30"/>
       <use x="354.199219" xlink:href="#DejaVuSans-33"/>
      </g>
     </g>
    </g>
    <g id="xtick_4">
     <g id="line2d_4">
      <g>
       <use style="stroke:#000000;stroke-width:0.8;" x="702.133359" xlink:href="#m1d51a9dbaa" y="230.046227"/>
      </g>
     </g>
     <g id="text_4">
      <!-- 2021-05 -->
      <g transform="translate(704.892734 278.829039)rotate(-90)scale(0.1 -0.1)">
       <defs>
        <path d="M 691 4666 
L 3169 4666 
L 3169 4134 
L 1269 4134 
L 1269 2991 
Q 1406 3038 1543 3061 
Q 1681 3084 1819 3084 
Q 2600 3084 3056 2656 
Q 3513 2228 3513 1497 
Q 3513 744 3044 326 
Q 2575 -91 1722 -91 
Q 1428 -91 1123 -41 
Q 819 9 494 109 
L 494 744 
Q 775 591 1075 516 
Q 1375 441 1709 441 
Q 2250 441 2565 725 
Q 2881 1009 2881 1497 
Q 2881 1984 2565 2268 
Q 2250 2553 1709 2553 
Q 1456 2553 1204 2497 
Q 953 2441 691 2322 
L 691 4666 
z
" id="DejaVuSans-35" transform="scale(0.015625)"/>
       </defs>
       <use xlink:href="#DejaVuSans-32"/>
       <use x="63.623047" xlink:href="#DejaVuSans-30"/>
       <use x="127.246094" xlink:href="#DejaVuSans-32"/>
       <use x="190.869141" xlink:href="#DejaVuSans-31"/>
       <use x="254.492188" xlink:href="#DejaVuSans-2d"/>
       <use x="290.576172" xlink:href="#DejaVuSans-30"/>
       <use x="354.199219" xlink:href="#DejaVuSans-35"/>
      </g>
     </g>
    </g>
    <g id="xtick_5">
     <g id="line2d_5">
      <g>
       <use style="stroke:#000000;stroke-width:0.8;" x="876.463704" xlink:href="#m1d51a9dbaa" y="230.046227"/>
      </g>
     </g>
     <g id="text_5">
      <!-- 2021-07 -->
      <g transform="translate(879.223079 278.829039)rotate(-90)scale(0.1 -0.1)">
       <defs>
        <path d="M 525 4666 
L 3525 4666 
L 3525 4397 
L 1831 0 
L 1172 0 
L 2766 4134 
L 525 4134 
L 525 4666 
z
" id="DejaVuSans-37" transform="scale(0.015625)"/>
       </defs>
       <use xlink:href="#DejaVuSans-32"/>
       <use x="63.623047" xlink:href="#DejaVuSans-30"/>
       <use x="127.246094" xlink:href="#DejaVuSans-32"/>
       <use x="190.869141" xlink:href="#DejaVuSans-31"/>
       <use x="254.492188" xlink:href="#DejaVuSans-2d"/>
       <use x="290.576172" xlink:href="#DejaVuSans-30"/>
       <use x="354.199219" xlink:href="#DejaVuSans-37"/>
      </g>
     </g>
    </g>
    <g id="xtick_6">
     <g id="line2d_6">
      <g>
       <use style="stroke:#000000;stroke-width:0.8;" x="1053.651925" xlink:href="#m1d51a9dbaa" y="230.046227"/>
      </g>
     </g>
     <g id="text_6">
      <!-- 2021-09 -->
      <g transform="translate(1056.4113 278.829039)rotate(-90)scale(0.1 -0.1)">
       <defs>
        <path d="M 703 97 
L 703 672 
Q 941 559 1184 500 
Q 1428 441 1663 441 
Q 2288 441 2617 861 
Q 2947 1281 2994 2138 
Q 2813 1869 2534 1725 
Q 2256 1581 1919 1581 
Q 1219 1581 811 2004 
Q 403 2428 403 3163 
Q 403 3881 828 4315 
Q 1253 4750 1959 4750 
Q 2769 4750 3195 4129 
Q 3622 3509 3622 2328 
Q 3622 1225 3098 567 
Q 2575 -91 1691 -91 
Q 1453 -91 1209 -44 
Q 966 3 703 97 
z
M 1959 2075 
Q 2384 2075 2632 2365 
Q 2881 2656 2881 3163 
Q 2881 3666 2632 3958 
Q 2384 4250 1959 4250 
Q 1534 4250 1286 3958 
Q 1038 3666 1038 3163 
Q 1038 2656 1286 2365 
Q 1534 2075 1959 2075 
z
" id="DejaVuSans-39" transform="scale(0.015625)"/>
       </defs>
       <use xlink:href="#DejaVuSans-32"/>
       <use x="63.623047" xlink:href="#DejaVuSans-30"/>
       <use x="127.246094" xlink:href="#DejaVuSans-32"/>
       <use x="190.869141" xlink:href="#DejaVuSans-31"/>
       <use x="254.492188" xlink:href="#DejaVuSans-2d"/>
       <use x="290.576172" xlink:href="#DejaVuSans-30"/>
       <use x="354.199219" xlink:href="#DejaVuSans-39"/>
      </g>
     </g>
    </g>
    <g id="text_7">
     <!-- Date -->
     <g transform="translate(593.014844 290.427477)scale(0.1 -0.1)">
      <defs>
       <path d="M 1259 4147 
L 1259 519 
L 2022 519 
Q 2988 519 3436 956 
Q 3884 1394 3884 2338 
Q 3884 3275 3436 3711 
Q 2988 4147 2022 4147 
L 1259 4147 
z
M 628 4666 
L 1925 4666 
Q 3281 4666 3915 4102 
Q 4550 3538 4550 2338 
Q 4550 1131 3912 565 
Q 3275 0 1925 0 
L 628 0 
L 628 4666 
z
" id="DejaVuSans-44" transform="scale(0.015625)"/>
       <path d="M 2194 1759 
Q 1497 1759 1228 1600 
Q 959 1441 959 1056 
Q 959 750 1161 570 
Q 1363 391 1709 391 
Q 2188 391 2477 730 
Q 2766 1069 2766 1631 
L 2766 1759 
L 2194 1759 
z
M 3341 1997 
L 3341 0 
L 2766 0 
L 2766 531 
Q 2569 213 2275 61 
Q 1981 -91 1556 -91 
Q 1019 -91 701 211 
Q 384 513 384 1019 
Q 384 1609 779 1909 
Q 1175 2209 1959 2209 
L 2766 2209 
L 2766 2266 
Q 2766 2663 2505 2880 
Q 2244 3097 1772 3097 
Q 1472 3097 1187 3025 
Q 903 2953 641 2809 
L 641 3341 
Q 956 3463 1253 3523 
Q 1550 3584 1831 3584 
Q 2591 3584 2966 3190 
Q 3341 2797 3341 1997 
z
" id="DejaVuSans-61" transform="scale(0.015625)"/>
       <path d="M 1172 4494 
L 1172 3500 
L 2356 3500 
L 2356 3053 
L 1172 3053 
L 1172 1153 
Q 1172 725 1289 603 
Q 1406 481 1766 481 
L 2356 481 
L 2356 0 
L 1766 0 
Q 1100 0 847 248 
Q 594 497 594 1153 
L 594 3053 
L 172 3053 
L 172 3500 
L 594 3500 
L 594 4494 
L 1172 4494 
z
" id="DejaVuSans-74" transform="scale(0.015625)"/>
       <path d="M 3597 1894 
L 3597 1613 
L 953 1613 
Q 991 1019 1311 708 
Q 1631 397 2203 397 
Q 2534 397 2845 478 
Q 3156 559 3463 722 
L 3463 178 
Q 3153 47 2828 -22 
Q 2503 -91 2169 -91 
Q 1331 -91 842 396 
Q 353 884 353 1716 
Q 353 2575 817 3079 
Q 1281 3584 2069 3584 
Q 2775 3584 3186 3129 
Q 3597 2675 3597 1894 
z
M 3022 2063 
Q 3016 2534 2758 2815 
Q 2500 3097 2075 3097 
Q 1594 3097 1305 2825 
Q 1016 2553 972 2059 
L 3022 2063 
z
" id="DejaVuSans-65" transform="scale(0.015625)"/>
      </defs>
      <use xlink:href="#DejaVuSans-44"/>
      <use x="77.001953" xlink:href="#DejaVuSans-61"/>
      <use x="138.28125" xlink:href="#DejaVuSans-74"/>
      <use x="177.490234" xlink:href="#DejaVuSans-65"/>
     </g>
    </g>
   </g>
   <g id="matplotlib.axis_2">
    <g id="ytick_1">
     <g id="line2d_7">
      <defs>
       <path d="M 0 0 
L -3.5 0 
" id="m8ecc8ea545" style="stroke:#000000;stroke-width:0.8;"/>
      </defs>
      <g>
       <use style="stroke:#000000;stroke-width:0.8;" x="46.965625" xlink:href="#m8ecc8ea545" y="230.046227"/>
      </g>
     </g>
     <g id="text_8">
      <!-- 0 -->
      <g transform="translate(33.603125 233.845445)scale(0.1 -0.1)">
       <use xlink:href="#DejaVuSans-30"/>
      </g>
     </g>
    </g>
    <g id="ytick_2">
     <g id="line2d_8">
      <g>
       <use style="stroke:#000000;stroke-width:0.8;" x="46.965625" xlink:href="#m8ecc8ea545" y="200.955318"/>
      </g>
     </g>
     <g id="text_9">
      <!-- 100 -->
      <g transform="translate(20.878125 204.754536)scale(0.1 -0.1)">
       <use xlink:href="#DejaVuSans-31"/>
       <use x="63.623047" xlink:href="#DejaVuSans-30"/>
       <use x="127.246094" xlink:href="#DejaVuSans-30"/>
      </g>
     </g>
    </g>
    <g id="ytick_3">
     <g id="line2d_9">
      <g>
       <use style="stroke:#000000;stroke-width:0.8;" x="46.965625" xlink:href="#m8ecc8ea545" y="171.864408"/>
      </g>
     </g>
     <g id="text_10">
      <!-- 200 -->
      <g transform="translate(20.878125 175.663627)scale(0.1 -0.1)">
       <use xlink:href="#DejaVuSans-32"/>
       <use x="63.623047" xlink:href="#DejaVuSans-30"/>
       <use x="127.246094" xlink:href="#DejaVuSans-30"/>
      </g>
     </g>
    </g>
    <g id="ytick_4">
     <g id="line2d_10">
      <g>
       <use style="stroke:#000000;stroke-width:0.8;" x="46.965625" xlink:href="#m8ecc8ea545" y="142.773499"/>
      </g>
     </g>
     <g id="text_11">
      <!-- 300 -->
      <g transform="translate(20.878125 146.572718)scale(0.1 -0.1)">
       <use xlink:href="#DejaVuSans-33"/>
       <use x="63.623047" xlink:href="#DejaVuSans-30"/>
       <use x="127.246094" xlink:href="#DejaVuSans-30"/>
      </g>
     </g>
    </g>
    <g id="ytick_5">
     <g id="line2d_11">
      <g>
       <use style="stroke:#000000;stroke-width:0.8;" x="46.965625" xlink:href="#m8ecc8ea545" y="113.68259"/>
      </g>
     </g>
     <g id="text_12">
      <!-- 400 -->
      <g transform="translate(20.878125 117.481809)scale(0.1 -0.1)">
       <defs>
        <path d="M 2419 4116 
L 825 1625 
L 2419 1625 
L 2419 4116 
z
M 2253 4666 
L 3047 4666 
L 3047 1625 
L 3713 1625 
L 3713 1100 
L 3047 1100 
L 3047 0 
L 2419 0 
L 2419 1100 
L 313 1100 
L 313 1709 
L 2253 4666 
z
" id="DejaVuSans-34" transform="scale(0.015625)"/>
       </defs>
       <use xlink:href="#DejaVuSans-34"/>
       <use x="63.623047" xlink:href="#DejaVuSans-30"/>
       <use x="127.246094" xlink:href="#DejaVuSans-30"/>
      </g>
     </g>
    </g>
    <g id="ytick_6">
     <g id="line2d_12">
      <g>
       <use style="stroke:#000000;stroke-width:0.8;" x="46.965625" xlink:href="#m8ecc8ea545" y="84.591681"/>
      </g>
     </g>
     <g id="text_13">
      <!-- 500 -->
      <g transform="translate(20.878125 88.3909)scale(0.1 -0.1)">
       <use xlink:href="#DejaVuSans-35"/>
       <use x="63.623047" xlink:href="#DejaVuSans-30"/>
       <use x="127.246094" xlink:href="#DejaVuSans-30"/>
      </g>
     </g>
    </g>
    <g id="ytick_7">
     <g id="line2d_13">
      <g>
       <use style="stroke:#000000;stroke-width:0.8;" x="46.965625" xlink:href="#m8ecc8ea545" y="55.500772"/>
      </g>
     </g>
     <g id="text_14">
      <!-- 600 -->
      <g transform="translate(20.878125 59.299991)scale(0.1 -0.1)">
       <defs>
        <path d="M 2113 2584 
Q 1688 2584 1439 2293 
Q 1191 2003 1191 1497 
Q 1191 994 1439 701 
Q 1688 409 2113 409 
Q 2538 409 2786 701 
Q 3034 994 3034 1497 
Q 3034 2003 2786 2293 
Q 2538 2584 2113 2584 
z
M 3366 4563 
L 3366 3988 
Q 3128 4100 2886 4159 
Q 2644 4219 2406 4219 
Q 1781 4219 1451 3797 
Q 1122 3375 1075 2522 
Q 1259 2794 1537 2939 
Q 1816 3084 2150 3084 
Q 2853 3084 3261 2657 
Q 3669 2231 3669 1497 
Q 3669 778 3244 343 
Q 2819 -91 2113 -91 
Q 1303 -91 875 529 
Q 447 1150 447 2328 
Q 447 3434 972 4092 
Q 1497 4750 2381 4750 
Q 2619 4750 2861 4703 
Q 3103 4656 3366 4563 
z
" id="DejaVuSans-36" transform="scale(0.015625)"/>
       </defs>
       <use xlink:href="#DejaVuSans-36"/>
       <use x="63.623047" xlink:href="#DejaVuSans-30"/>
       <use x="127.246094" xlink:href="#DejaVuSans-30"/>
      </g>
     </g>
    </g>
    <g id="ytick_8">
     <g id="line2d_14">
      <g>
       <use style="stroke:#000000;stroke-width:0.8;" x="46.965625" xlink:href="#m8ecc8ea545" y="26.409863"/>
      </g>
     </g>
     <g id="text_15">
      <!-- 700 -->
      <g transform="translate(20.878125 30.209082)scale(0.1 -0.1)">
       <use xlink:href="#DejaVuSans-37"/>
       <use x="63.623047" xlink:href="#DejaVuSans-30"/>
       <use x="127.246094" xlink:href="#DejaVuSans-30"/>
      </g>
     </g>
    </g>
    <g id="text_16">
     <!-- Sequence count -->
     <g transform="translate(14.798438 159.526383)rotate(-90)scale(0.1 -0.1)">
      <defs>
       <path d="M 3425 4513 
L 3425 3897 
Q 3066 4069 2747 4153 
Q 2428 4238 2131 4238 
Q 1616 4238 1336 4038 
Q 1056 3838 1056 3469 
Q 1056 3159 1242 3001 
Q 1428 2844 1947 2747 
L 2328 2669 
Q 3034 2534 3370 2195 
Q 3706 1856 3706 1288 
Q 3706 609 3251 259 
Q 2797 -91 1919 -91 
Q 1588 -91 1214 -16 
Q 841 59 441 206 
L 441 856 
Q 825 641 1194 531 
Q 1563 422 1919 422 
Q 2459 422 2753 634 
Q 3047 847 3047 1241 
Q 3047 1584 2836 1778 
Q 2625 1972 2144 2069 
L 1759 2144 
Q 1053 2284 737 2584 
Q 422 2884 422 3419 
Q 422 4038 858 4394 
Q 1294 4750 2059 4750 
Q 2388 4750 2728 4690 
Q 3069 4631 3425 4513 
z
" id="DejaVuSans-53" transform="scale(0.015625)"/>
       <path d="M 947 1747 
Q 947 1113 1208 752 
Q 1469 391 1925 391 
Q 2381 391 2643 752 
Q 2906 1113 2906 1747 
Q 2906 2381 2643 2742 
Q 2381 3103 1925 3103 
Q 1469 3103 1208 2742 
Q 947 2381 947 1747 
z
M 2906 525 
Q 2725 213 2448 61 
Q 2172 -91 1784 -91 
Q 1150 -91 751 415 
Q 353 922 353 1747 
Q 353 2572 751 3078 
Q 1150 3584 1784 3584 
Q 2172 3584 2448 3432 
Q 2725 3281 2906 2969 
L 2906 3500 
L 3481 3500 
L 3481 -1331 
L 2906 -1331 
L 2906 525 
z
" id="DejaVuSans-71" transform="scale(0.015625)"/>
       <path d="M 544 1381 
L 544 3500 
L 1119 3500 
L 1119 1403 
Q 1119 906 1312 657 
Q 1506 409 1894 409 
Q 2359 409 2629 706 
Q 2900 1003 2900 1516 
L 2900 3500 
L 3475 3500 
L 3475 0 
L 2900 0 
L 2900 538 
Q 2691 219 2414 64 
Q 2138 -91 1772 -91 
Q 1169 -91 856 284 
Q 544 659 544 1381 
z
M 1991 3584 
L 1991 3584 
z
" id="DejaVuSans-75" transform="scale(0.015625)"/>
       <path d="M 3513 2113 
L 3513 0 
L 2938 0 
L 2938 2094 
Q 2938 2591 2744 2837 
Q 2550 3084 2163 3084 
Q 1697 3084 1428 2787 
Q 1159 2491 1159 1978 
L 1159 0 
L 581 0 
L 581 3500 
L 1159 3500 
L 1159 2956 
Q 1366 3272 1645 3428 
Q 1925 3584 2291 3584 
Q 2894 3584 3203 3211 
Q 3513 2838 3513 2113 
z
" id="DejaVuSans-6e" transform="scale(0.015625)"/>
       <path d="M 3122 3366 
L 3122 2828 
Q 2878 2963 2633 3030 
Q 2388 3097 2138 3097 
Q 1578 3097 1268 2742 
Q 959 2388 959 1747 
Q 959 1106 1268 751 
Q 1578 397 2138 397 
Q 2388 397 2633 464 
Q 2878 531 3122 666 
L 3122 134 
Q 2881 22 2623 -34 
Q 2366 -91 2075 -91 
Q 1284 -91 818 406 
Q 353 903 353 1747 
Q 353 2603 823 3093 
Q 1294 3584 2113 3584 
Q 2378 3584 2631 3529 
Q 2884 3475 3122 3366 
z
" id="DejaVuSans-63" transform="scale(0.015625)"/>
       <path id="DejaVuSans-20" transform="scale(0.015625)"/>
       <path d="M 1959 3097 
Q 1497 3097 1228 2736 
Q 959 2375 959 1747 
Q 959 1119 1226 758 
Q 1494 397 1959 397 
Q 2419 397 2687 759 
Q 2956 1122 2956 1747 
Q 2956 2369 2687 2733 
Q 2419 3097 1959 3097 
z
M 1959 3584 
Q 2709 3584 3137 3096 
Q 3566 2609 3566 1747 
Q 3566 888 3137 398 
Q 2709 -91 1959 -91 
Q 1206 -91 779 398 
Q 353 888 353 1747 
Q 353 2609 779 3096 
Q 1206 3584 1959 3584 
z
" id="DejaVuSans-6f" transform="scale(0.015625)"/>
      </defs>
      <use xlink:href="#DejaVuSans-53"/>
      <use x="63.476562" xlink:href="#DejaVuSans-65"/>
      <use x="125" xlink:href="#DejaVuSans-71"/>
      <use x="188.476562" xlink:href="#DejaVuSans-75"/>
      <use x="251.855469" xlink:href="#DejaVuSans-65"/>
      <use x="313.378906" xlink:href="#DejaVuSans-6e"/>
      <use x="376.757812" xlink:href="#DejaVuSans-63"/>
      <use x="431.738281" xlink:href="#DejaVuSans-65"/>
      <use x="493.261719" xlink:href="#DejaVuSans-20"/>
      <use x="525.048828" xlink:href="#DejaVuSans-63"/>
      <use x="580.029297" xlink:href="#DejaVuSans-6f"/>
      <use x="641.210938" xlink:href="#DejaVuSans-75"/>
      <use x="704.589844" xlink:href="#DejaVuSans-6e"/>
      <use x="767.96875" xlink:href="#DejaVuSans-74"/>
     </g>
    </g>
   </g>
   <g id="patch_46">
    <path d="M 46.965625 230.046227 
L 46.965625 8.286227 
" style="fill:none;stroke:#000000;stroke-linecap:square;stroke-linejoin:miter;stroke-width:0.8;"/>
   </g>
   <g id="patch_47">
    <path d="M 1162.965625 230.046227 
L 1162.965625 8.286227 
" style="fill:none;stroke:#000000;stroke-linecap:square;stroke-linejoin:miter;stroke-width:0.8;"/>
   </g>
   <g id="patch_48">
    <path d="M 46.965625 230.046227 
L 1162.965625 230.046227 
" style="fill:none;stroke:#000000;stroke-linecap:square;stroke-linejoin:miter;stroke-width:0.8;"/>
   </g>
  </g>
  <g id="axes_2">
   <g id="matplotlib.axis_3">
    <g id="ytick_9">
     <g id="line2d_15">
      <defs>
       <path d="M 0 0 
L 3.5 0 
" id="m56bd8e7259" style="stroke:#000000;stroke-width:0.8;"/>
      </defs>
      <g>
       <use style="stroke:#000000;stroke-width:0.8;" x="1162.965625" xlink:href="#m56bd8e7259" y="219.992351"/>
      </g>
     </g>
     <g id="text_17">
      <!-- 0 -->
      <g transform="translate(1169.965625 223.79157)scale(0.1 -0.1)">
       <use xlink:href="#DejaVuSans-30"/>
      </g>
     </g>
    </g>
    <g id="ytick_10">
     <g id="line2d_16">
      <g>
       <use style="stroke:#000000;stroke-width:0.8;" x="1162.965625" xlink:href="#m56bd8e7259" y="193.868209"/>
      </g>
     </g>
     <g id="text_18">
      <!-- 1000 -->
      <g transform="translate(1169.965625 197.667428)scale(0.1 -0.1)">
       <use xlink:href="#DejaVuSans-31"/>
       <use x="63.623047" xlink:href="#DejaVuSans-30"/>
       <use x="127.246094" xlink:href="#DejaVuSans-30"/>
       <use x="190.869141" xlink:href="#DejaVuSans-30"/>
      </g>
     </g>
    </g>
    <g id="ytick_11">
     <g id="line2d_17">
      <g>
       <use style="stroke:#000000;stroke-width:0.8;" x="1162.965625" xlink:href="#m56bd8e7259" y="167.744068"/>
      </g>
     </g>
     <g id="text_19">
      <!-- 2000 -->
      <g transform="translate(1169.965625 171.543287)scale(0.1 -0.1)">
       <use xlink:href="#DejaVuSans-32"/>
       <use x="63.623047" xlink:href="#DejaVuSans-30"/>
       <use x="127.246094" xlink:href="#DejaVuSans-30"/>
       <use x="190.869141" xlink:href="#DejaVuSans-30"/>
      </g>
     </g>
    </g>
    <g id="ytick_12">
     <g id="line2d_18">
      <g>
       <use style="stroke:#000000;stroke-width:0.8;" x="1162.965625" xlink:href="#m56bd8e7259" y="141.619926"/>
      </g>
     </g>
     <g id="text_20">
      <!-- 3000 -->
      <g transform="translate(1169.965625 145.419145)scale(0.1 -0.1)">
       <use xlink:href="#DejaVuSans-33"/>
       <use x="63.623047" xlink:href="#DejaVuSans-30"/>
       <use x="127.246094" xlink:href="#DejaVuSans-30"/>
       <use x="190.869141" xlink:href="#DejaVuSans-30"/>
      </g>
     </g>
    </g>
    <g id="ytick_13">
     <g id="line2d_19">
      <g>
       <use style="stroke:#000000;stroke-width:0.8;" x="1162.965625" xlink:href="#m56bd8e7259" y="115.495785"/>
      </g>
     </g>
     <g id="text_21">
      <!-- 4000 -->
      <g transform="translate(1169.965625 119.295004)scale(0.1 -0.1)">
       <use xlink:href="#DejaVuSans-34"/>
       <use x="63.623047" xlink:href="#DejaVuSans-30"/>
       <use x="127.246094" xlink:href="#DejaVuSans-30"/>
       <use x="190.869141" xlink:href="#DejaVuSans-30"/>
      </g>
     </g>
    </g>
    <g id="ytick_14">
     <g id="line2d_20">
      <g>
       <use style="stroke:#000000;stroke-width:0.8;" x="1162.965625" xlink:href="#m56bd8e7259" y="89.371643"/>
      </g>
     </g>
     <g id="text_22">
      <!-- 5000 -->
      <g transform="translate(1169.965625 93.170862)scale(0.1 -0.1)">
       <use xlink:href="#DejaVuSans-35"/>
       <use x="63.623047" xlink:href="#DejaVuSans-30"/>
       <use x="127.246094" xlink:href="#DejaVuSans-30"/>
       <use x="190.869141" xlink:href="#DejaVuSans-30"/>
      </g>
     </g>
    </g>
    <g id="ytick_15">
     <g id="line2d_21">
      <g>
       <use style="stroke:#000000;stroke-width:0.8;" x="1162.965625" xlink:href="#m56bd8e7259" y="63.247502"/>
      </g>
     </g>
     <g id="text_23">
      <!-- 6000 -->
      <g transform="translate(1169.965625 67.046721)scale(0.1 -0.1)">
       <use xlink:href="#DejaVuSans-36"/>
       <use x="63.623047" xlink:href="#DejaVuSans-30"/>
       <use x="127.246094" xlink:href="#DejaVuSans-30"/>
       <use x="190.869141" xlink:href="#DejaVuSans-30"/>
      </g>
     </g>
    </g>
    <g id="ytick_16">
     <g id="line2d_22">
      <g>
       <use style="stroke:#000000;stroke-width:0.8;" x="1162.965625" xlink:href="#m56bd8e7259" y="37.12336"/>
      </g>
     </g>
     <g id="text_24">
      <!-- 7000 -->
      <g transform="translate(1169.965625 40.922579)scale(0.1 -0.1)">
       <use xlink:href="#DejaVuSans-37"/>
       <use x="63.623047" xlink:href="#DejaVuSans-30"/>
       <use x="127.246094" xlink:href="#DejaVuSans-30"/>
       <use x="190.869141" xlink:href="#DejaVuSans-30"/>
      </g>
     </g>
    </g>
    <g id="ytick_17">
     <g id="line2d_23">
      <g>
       <use style="stroke:#000000;stroke-width:0.8;" x="1162.965625" xlink:href="#m56bd8e7259" y="10.999219"/>
      </g>
     </g>
     <g id="text_25">
      <!-- 8000 -->
      <g transform="translate(1169.965625 14.798437)scale(0.1 -0.1)">
       <defs>
        <path d="M 2034 2216 
Q 1584 2216 1326 1975 
Q 1069 1734 1069 1313 
Q 1069 891 1326 650 
Q 1584 409 2034 409 
Q 2484 409 2743 651 
Q 3003 894 3003 1313 
Q 3003 1734 2745 1975 
Q 2488 2216 2034 2216 
z
M 1403 2484 
Q 997 2584 770 2862 
Q 544 3141 544 3541 
Q 544 4100 942 4425 
Q 1341 4750 2034 4750 
Q 2731 4750 3128 4425 
Q 3525 4100 3525 3541 
Q 3525 3141 3298 2862 
Q 3072 2584 2669 2484 
Q 3125 2378 3379 2068 
Q 3634 1759 3634 1313 
Q 3634 634 3220 271 
Q 2806 -91 2034 -91 
Q 1263 -91 848 271 
Q 434 634 434 1313 
Q 434 1759 690 2068 
Q 947 2378 1403 2484 
z
M 1172 3481 
Q 1172 3119 1398 2916 
Q 1625 2713 2034 2713 
Q 2441 2713 2670 2916 
Q 2900 3119 2900 3481 
Q 2900 3844 2670 4047 
Q 2441 4250 2034 4250 
Q 1625 4250 1398 4047 
Q 1172 3844 1172 3481 
z
" id="DejaVuSans-38" transform="scale(0.015625)"/>
       </defs>
       <use xlink:href="#DejaVuSans-38"/>
       <use x="63.623047" xlink:href="#DejaVuSans-30"/>
       <use x="127.246094" xlink:href="#DejaVuSans-30"/>
       <use x="190.869141" xlink:href="#DejaVuSans-30"/>
      </g>
     </g>
    </g>
    <g id="text_26">
     <!-- Total -->
     <g transform="translate(1207.014063 130.842789)rotate(-90)scale(0.1 -0.1)">
      <defs>
       <path d="M -19 4666 
L 3928 4666 
L 3928 4134 
L 2272 4134 
L 2272 0 
L 1638 0 
L 1638 4134 
L -19 4134 
L -19 4666 
z
" id="DejaVuSans-54" transform="scale(0.015625)"/>
       <path d="M 603 4863 
L 1178 4863 
L 1178 0 
L 603 0 
L 603 4863 
z
" id="DejaVuSans-6c" transform="scale(0.015625)"/>
      </defs>
      <use xlink:href="#DejaVuSans-54"/>
      <use x="44.083984" xlink:href="#DejaVuSans-6f"/>
      <use x="105.265625" xlink:href="#DejaVuSans-74"/>
      <use x="144.474609" xlink:href="#DejaVuSans-61"/>
      <use x="205.753906" xlink:href="#DejaVuSans-6c"/>
     </g>
    </g>
   </g>
   <g id="line2d_24">
    <path clip-path="url(#pc4da693d6b)" d="M 104.837584 219.966227 
L 299.173051 219.940103 
L 313.462424 219.731109 
L 347.756918 219.522116 
L 353.472667 219.365371 
L 364.904165 219.156378 
L 373.477789 218.712268 
L 379.193538 217.876295 
L 384.909287 217.693426 
L 390.625036 217.379937 
L 396.340785 216.51784 
L 399.19866 216.256599 
L 404.914409 216.07373 
L 407.772283 215.786364 
L 413.488032 214.950391 
L 416.345907 214.819771 
L 422.061656 214.323412 
L 424.91953 214.297288 
L 427.777405 213.409067 
L 436.351028 211.580377 
L 442.066777 210.979522 
L 444.924652 210.58766 
L 447.782526 208.75897 
L 453.498275 206.982528 
L 459.214024 205.72857 
L 464.929774 205.127714 
L 467.787648 203.481893 
L 479.219146 200.947852 
L 484.934895 200.085755 
L 487.79277 198.309313 
L 493.508519 196.558996 
L 499.224268 195.51403 
L 504.940017 194.286196 
L 507.797891 191.961147 
L 510.655766 191.072926 
L 516.371515 188.878498 
L 522.087264 187.154305 
L 524.945138 186.605698 
L 527.803013 183.20956 
L 536.376637 177.775738 
L 539.234511 176.234414 
L 544.95026 173.569751 
L 547.808135 170.042992 
L 550.666009 168.553916 
L 553.523884 166.934219 
L 559.239633 163.329088 
L 562.097507 162.284122 
L 564.955382 161.004039 
L 567.813256 155.726963 
L 570.671131 153.401914 
L 573.529005 151.965086 
L 576.38688 150.0319 
L 579.244754 148.621196 
L 584.960503 146.008782 
L 587.818378 140.914574 
L 590.676252 137.831926 
L 596.392001 132.424228 
L 602.10775 128.479483 
L 604.965625 127.277773 
L 607.8235 122.418682 
L 610.681374 119.205413 
L 613.539249 116.305633 
L 616.397123 113.745467 
L 619.254998 111.36817 
L 624.970747 107.632418 
L 627.828621 104.393025 
L 630.686496 102.0941 
L 633.54437 99.50781 
L 636.402245 97.182762 
L 639.260119 95.066706 
L 642.117994 93.26414 
L 644.975868 91.722816 
L 647.833743 88.039312 
L 650.691617 85.844884 
L 653.549492 83.441463 
L 659.265241 79.470594 
L 664.98099 77.354538 
L 667.838864 75.369103 
L 670.696739 72.495448 
L 673.554613 70.222648 
L 676.412488 68.524578 
L 679.270363 67.322868 
L 684.986112 66.068909 
L 687.843986 64.135723 
L 690.701861 61.915171 
L 693.559735 60.060356 
L 696.41761 57.996549 
L 699.275484 56.429101 
L 702.133359 55.22739 
L 704.991233 54.33917 
L 707.849108 52.301486 
L 710.706982 50.420548 
L 713.564857 49.218838 
L 716.422731 48.173872 
L 719.280606 46.423555 
L 722.13848 45.744327 
L 724.996355 45.404713 
L 727.854229 44.307499 
L 730.712104 42.844547 
L 733.569978 41.564464 
L 742.143602 39.030423 
L 745.001476 38.690809 
L 753.5751 36.078395 
L 756.432975 35.373043 
L 759.290849 34.876684 
L 767.864473 34.014587 
L 770.722347 32.969622 
L 776.438096 31.976904 
L 793.585343 29.965345 
L 796.443218 29.730228 
L 799.301092 29.312242 
L 802.158967 29.077125 
L 805.016841 28.998752 
L 807.874716 28.711387 
L 810.73259 28.188904 
L 813.590465 27.927662 
L 816.448339 27.117814 
L 819.306214 26.699828 
L 822.164089 26.569207 
L 825.021963 26.125097 
L 830.737712 25.785483 
L 833.595587 25.445869 
L 836.453461 24.244158 
L 839.311336 23.617179 
L 845.027085 23.43431 
L 847.884959 22.310972 
L 850.742834 21.945234 
L 853.600708 21.710117 
L 867.890081 21.266006 
L 870.747955 21.004765 
L 887.895202 20.639027 
L 933.621195 19.829179 
L 945.052693 19.803054 
L 956.484191 19.202199 
L 967.915689 19.01933 
L 976.489313 18.627468 
L 1019.35743 18.57522 
L 1107.95154 18.366227 
L 1107.95154 18.366227 
" style="fill:none;stroke:#696969;stroke-linecap:square;stroke-width:3;"/>
   </g>
   <g id="patch_49">
    <path d="M 46.965625 230.046227 
L 46.965625 8.286227 
" style="fill:none;stroke:#000000;stroke-linecap:square;stroke-linejoin:miter;stroke-width:0.8;"/>
   </g>
   <g id="patch_50">
    <path d="M 1162.965625 230.046227 
L 1162.965625 8.286227 
" style="fill:none;stroke:#000000;stroke-linecap:square;stroke-linejoin:miter;stroke-width:0.8;"/>
   </g>
   <g id="patch_51">
    <path d="M 46.965625 230.046227 
L 1162.965625 230.046227 
" style="fill:none;stroke:#000000;stroke-linecap:square;stroke-linejoin:miter;stroke-width:0.8;"/>
   </g>
  </g>
 </g>
 <defs>
  <clipPath id="pc4da693d6b">
   <rect height="221.76" width="1116" x="46.965625" y="8.286227"/>
  </clipPath>
 </defs>
</svg>
