<?xml version="1.0" encoding="utf-8" standalone="no"?>
<!DOCTYPE svg PUBLIC "-//W3C//DTD SVG 1.1//EN"
  "http://www.w3.org/Graphics/SVG/1.1/DTD/svg11.dtd">
<svg xmlns:xlink="http://www.w3.org/1999/xlink" width="1216.29375pt" height="309.219375pt" viewBox="0 0 1216.29375 309.219375" xmlns="http://www.w3.org/2000/svg" version="1.1">
 <metadata>
  <rdf:RDF xmlns:dc="http://purl.org/dc/elements/1.1/" xmlns:cc="http://creativecommons.org/ns#" xmlns:rdf="http://www.w3.org/1999/02/22-rdf-syntax-ns#">
   <cc:Work>
    <dc:type rdf:resource="http://purl.org/dc/dcmitype/StillImage"/>
    <dc:date>2024-07-05T07:18:40.458613</dc:date>
    <dc:format>image/svg+xml</dc:format>
    <dc:creator>
     <cc:Agent>
      <dc:title>Matplotlib v3.5.3, https://matplotlib.org/</dc:title>
     </cc:Agent>
    </dc:creator>
   </cc:Work>
  </rdf:RDF>
 </metadata>
 <defs>
  <style type="text/css">*{stroke-linejoin: round; stroke-linecap: butt}</style>
 </defs>
 <g id="figure_1">
  <g id="patch_1">
   <path d="M 0 309.219375 
L 1216.29375 309.219375 
L 1216.29375 0 
L 0 0 
z
" style="fill: #ffffff"/>
  </g>
  <g id="axes_1">
   <g id="patch_2">
    <path d="M 66.053125 239.558438 
L 1182.053125 239.558438 
L 1182.053125 17.798437 
L 66.053125 17.798437 
z
" style="fill: #ffffff"/>
   </g>
   <g id="patch_3">
    <path d="M 116.780398 239.558438 
L 121.686324 239.558438 
L 121.686324 239.555509 
L 116.780398 239.555509 
z
" clip-path="url(#p459a800424)" style="fill: #86b0a6"/>
   </g>
   <g id="patch_4">
    <path d="M 123.648694 239.558438 
L 128.55462 239.558438 
L 128.55462 239.554044 
L 123.648694 239.554044 
z
" clip-path="url(#p459a800424)" style="fill: #86b0a6"/>
   </g>
   <g id="patch_5">
    <path d="M 130.51699 239.558438 
L 135.422916 239.558438 
L 135.422916 239.554776 
L 130.51699 239.554776 
z
" clip-path="url(#p459a800424)" style="fill: #86b0a6"/>
   </g>
   <g id="patch_6">
    <path d="M 137.385286 239.558438 
L 142.291212 239.558438 
L 142.291212 239.554776 
L 137.385286 239.554776 
z
" clip-path="url(#p459a800424)" style="fill: #86b0a6"/>
   </g>
   <g id="patch_7">
    <path d="M 144.253582 239.558438 
L 149.159508 239.558438 
L 149.159508 239.539399 
L 144.253582 239.539399 
z
" clip-path="url(#p459a800424)" style="fill: #86b0a6"/>
   </g>
   <g id="patch_8">
    <path d="M 151.121878 239.558438 
L 156.027804 239.558438 
L 156.027804 239.548918 
L 151.121878 239.548918 
z
" clip-path="url(#p459a800424)" style="fill: #86b0a6"/>
   </g>
   <g id="patch_9">
    <path d="M 157.990174 239.558438 
L 162.8961 239.558438 
L 162.8961 239.545257 
L 157.990174 239.545257 
z
" clip-path="url(#p459a800424)" style="fill: #86b0a6"/>
   </g>
   <g id="patch_10">
    <path d="M 164.858471 239.558438 
L 169.764396 239.558438 
L 169.764396 239.546722 
L 164.858471 239.546722 
z
" clip-path="url(#p459a800424)" style="fill: #86b0a6"/>
   </g>
   <g id="patch_11">
    <path d="M 171.726767 239.558438 
L 176.632692 239.558438 
L 176.632692 239.536471 
L 171.726767 239.536471 
z
" clip-path="url(#p459a800424)" style="fill: #86b0a6"/>
   </g>
   <g id="patch_12">
    <path d="M 178.595063 239.558438 
L 183.500989 239.558438 
L 183.500989 239.531345 
L 178.595063 239.531345 
z
" clip-path="url(#p459a800424)" style="fill: #86b0a6"/>
   </g>
   <g id="patch_13">
    <path d="M 185.463359 239.558438 
L 190.369285 239.558438 
L 190.369285 239.513771 
L 185.463359 239.513771 
z
" clip-path="url(#p459a800424)" style="fill: #86b0a6"/>
   </g>
   <g id="patch_14">
    <path d="M 192.331655 239.558438 
L 197.237581 239.558438 
L 197.237581 239.247239 
L 192.331655 239.247239 
z
" clip-path="url(#p459a800424)" style="fill: #86b0a6"/>
   </g>
   <g id="patch_15">
    <path d="M 199.199951 239.558438 
L 204.105877 239.558438 
L 204.105877 238.662185 
L 199.199951 238.662185 
z
" clip-path="url(#p459a800424)" style="fill: #86b0a6"/>
   </g>
   <g id="patch_16">
    <path d="M 206.068247 239.558438 
L 210.974173 239.558438 
L 210.974173 235.984411 
L 206.068247 235.984411 
z
" clip-path="url(#p459a800424)" style="fill: #86b0a6"/>
   </g>
   <g id="patch_17">
    <path d="M 212.936543 239.558438 
L 217.842469 239.558438 
L 217.842469 224.474449 
L 212.936543 224.474449 
z
" clip-path="url(#p459a800424)" style="fill: #86b0a6"/>
   </g>
   <g id="patch_18">
    <path d="M 219.804839 239.558438 
L 224.710765 239.558438 
L 224.710765 172.954575 
L 219.804839 172.954575 
z
" clip-path="url(#p459a800424)" style="fill: #86b0a6"/>
   </g>
   <g id="patch_19">
    <path d="M 226.673136 239.558438 
L 231.579061 239.558438 
L 231.579061 134.434755 
L 226.673136 134.434755 
z
" clip-path="url(#p459a800424)" style="fill: #86b0a6"/>
   </g>
   <g id="patch_20">
    <path d="M 233.541432 239.558438 
L 238.447357 239.558438 
L 238.447357 73.250876 
L 233.541432 73.250876 
z
" clip-path="url(#p459a800424)" style="fill: #86b0a6"/>
   </g>
   <g id="patch_21">
    <path d="M 240.409728 239.558438 
L 245.315654 239.558438 
L 245.315654 28.358437 
L 240.409728 28.358437 
z
" clip-path="url(#p459a800424)" style="fill: #86b0a6"/>
   </g>
   <g id="patch_22">
    <path d="M 247.278024 239.558438 
L 252.18395 239.558438 
L 252.18395 41.860072 
L 247.278024 41.860072 
z
" clip-path="url(#p459a800424)" style="fill: #86b0a6"/>
   </g>
   <g id="patch_23">
    <path d="M 254.14632 239.558438 
L 259.052246 239.558438 
L 259.052246 30.592479 
L 254.14632 30.592479 
z
" clip-path="url(#p459a800424)" style="fill: #86b0a6"/>
   </g>
   <g id="patch_24">
    <path d="M 261.014616 239.558438 
L 265.920542 239.558438 
L 265.920542 55.19915 
L 261.014616 55.19915 
z
" clip-path="url(#p459a800424)" style="fill: #86b0a6"/>
   </g>
   <g id="patch_25">
    <path d="M 267.882912 239.558438 
L 272.788838 239.558438 
L 272.788838 49.492862 
L 267.882912 49.492862 
z
" clip-path="url(#p459a800424)" style="fill: #86b0a6"/>
   </g>
   <g id="patch_26">
    <path d="M 274.751208 239.558438 
L 279.657134 239.558438 
L 279.657134 60.632315 
L 274.751208 60.632315 
z
" clip-path="url(#p459a800424)" style="fill: #86b0a6"/>
   </g>
   <g id="patch_27">
    <path d="M 281.619504 239.558438 
L 286.52543 239.558438 
L 286.52543 78.260078 
L 281.619504 78.260078 
z
" clip-path="url(#p459a800424)" style="fill: #86b0a6"/>
   </g>
   <g id="patch_28">
    <path d="M 288.487801 239.558438 
L 293.393726 239.558438 
L 293.393726 102.717374 
L 288.487801 102.717374 
z
" clip-path="url(#p459a800424)" style="fill: #86b0a6"/>
   </g>
   <g id="patch_29">
    <path d="M 295.356097 239.558438 
L 300.262022 239.558438 
L 300.262022 119.235074 
L 295.356097 119.235074 
z
" clip-path="url(#p459a800424)" style="fill: #86b0a6"/>
   </g>
   <g id="patch_30">
    <path d="M 302.224393 239.558438 
L 307.130319 239.558438 
L 307.130319 109.202757 
L 302.224393 109.202757 
z
" clip-path="url(#p459a800424)" style="fill: #86b0a6"/>
   </g>
   <g id="patch_31">
    <path d="M 309.092689 239.558438 
L 313.998615 239.558438 
L 313.998615 105.122026 
L 309.092689 105.122026 
z
" clip-path="url(#p459a800424)" style="fill: #86b0a6"/>
   </g>
   <g id="patch_32">
    <path d="M 315.960985 239.558438 
L 320.866911 239.558438 
L 320.866911 113.10043 
L 315.960985 113.10043 
z
" clip-path="url(#p459a800424)" style="fill: #86b0a6"/>
   </g>
   <g id="patch_33">
    <path d="M 322.829281 239.558438 
L 327.735207 239.558438 
L 327.735207 132.66202 
L 322.829281 132.66202 
z
" clip-path="url(#p459a800424)" style="fill: #86b0a6"/>
   </g>
   <g id="patch_34">
    <path d="M 329.697577 239.558438 
L 334.603503 239.558438 
L 334.603503 146.689397 
L 329.697577 146.689397 
z
" clip-path="url(#p459a800424)" style="fill: #86b0a6"/>
   </g>
   <g id="patch_35">
    <path d="M 336.565873 239.558438 
L 341.471799 239.558438 
L 341.471799 152.496 
L 336.565873 152.496 
z
" clip-path="url(#p459a800424)" style="fill: #86b0a6"/>
   </g>
   <g id="patch_36">
    <path d="M 343.434169 239.558438 
L 348.340095 239.558438 
L 348.340095 153.90628 
L 343.434169 153.90628 
z
" clip-path="url(#p459a800424)" style="fill: #86b0a6"/>
   </g>
   <g id="patch_37">
    <path d="M 350.302466 239.558438 
L 355.208391 239.558438 
L 355.208391 161.746293 
L 350.302466 161.746293 
z
" clip-path="url(#p459a800424)" style="fill: #86b0a6"/>
   </g>
   <g id="patch_38">
    <path d="M 357.170762 239.558438 
L 362.076688 239.558438 
L 362.076688 165.895122 
L 357.170762 165.895122 
z
" clip-path="url(#p459a800424)" style="fill: #86b0a6"/>
   </g>
   <g id="patch_39">
    <path d="M 364.039058 239.558438 
L 368.944984 239.558438 
L 368.944984 163.121425 
L 364.039058 163.121425 
z
" clip-path="url(#p459a800424)" style="fill: #86b0a6"/>
   </g>
   <g id="patch_40">
    <path d="M 370.907354 239.558438 
L 375.81328 239.558438 
L 375.81328 169.852106 
L 370.907354 169.852106 
z
" clip-path="url(#p459a800424)" style="fill: #86b0a6"/>
   </g>
   <g id="patch_41">
    <path d="M 377.77565 239.558438 
L 382.681576 239.558438 
L 382.681576 172.436154 
L 377.77565 172.436154 
z
" clip-path="url(#p459a800424)" style="fill: #86b0a6"/>
   </g>
   <g id="patch_42">
    <path d="M 384.643946 239.558438 
L 389.549872 239.558438 
L 389.549872 171.741998 
L 384.643946 171.741998 
z
" clip-path="url(#p459a800424)" style="fill: #86b0a6"/>
   </g>
   <g id="patch_43">
    <path d="M 391.512242 239.558438 
L 396.418168 239.558438 
L 396.418168 164.739659 
L 391.512242 164.739659 
z
" clip-path="url(#p459a800424)" style="fill: #86b0a6"/>
   </g>
   <g id="patch_44">
    <path d="M 398.380538 239.558438 
L 403.286464 239.558438 
L 403.286464 161.974749 
L 398.380538 161.974749 
z
" clip-path="url(#p459a800424)" style="fill: #86b0a6"/>
   </g>
   <g id="patch_45">
    <path d="M 405.248835 239.558438 
L 410.15476 239.558438 
L 410.15476 155.949208 
L 405.248835 155.949208 
z
" clip-path="url(#p459a800424)" style="fill: #86b0a6"/>
   </g>
   <g id="patch_46">
    <path d="M 412.117131 239.558438 
L 417.023056 239.558438 
L 417.023056 147.304472 
L 412.117131 147.304472 
z
" clip-path="url(#p459a800424)" style="fill: #86b0a6"/>
   </g>
   <g id="patch_47">
    <path d="M 418.985427 239.558438 
L 423.891353 239.558438 
L 423.891353 144.21738 
L 418.985427 144.21738 
z
" clip-path="url(#p459a800424)" style="fill: #86b0a6"/>
   </g>
   <g id="patch_48">
    <path d="M 425.853723 239.558438 
L 430.759649 239.558438 
L 430.759649 142.146627 
L 425.853723 142.146627 
z
" clip-path="url(#p459a800424)" style="fill: #86b0a6"/>
   </g>
   <g id="patch_49">
    <path d="M 432.722019 239.558438 
L 437.627945 239.558438 
L 437.627945 147.730631 
L 432.722019 147.730631 
z
" clip-path="url(#p459a800424)" style="fill: #86b0a6"/>
   </g>
   <g id="patch_50">
    <path d="M 439.590315 239.558438 
L 444.496241 239.558438 
L 444.496241 161.155381 
L 439.590315 161.155381 
z
" clip-path="url(#p459a800424)" style="fill: #86b0a6"/>
   </g>
   <g id="patch_51">
    <path d="M 446.458611 239.558438 
L 451.364537 239.558438 
L 451.364537 167.40352 
L 446.458611 167.40352 
z
" clip-path="url(#p459a800424)" style="fill: #86b0a6"/>
   </g>
   <g id="patch_52">
    <path d="M 453.326907 239.558438 
L 458.232833 239.558438 
L 458.232833 175.805888 
L 453.326907 175.805888 
z
" clip-path="url(#p459a800424)" style="fill: #86b0a6"/>
   </g>
   <g id="patch_53">
    <path d="M 460.195203 239.558438 
L 465.101129 239.558438 
L 465.101129 177.872248 
L 460.195203 177.872248 
z
" clip-path="url(#p459a800424)" style="fill: #86b0a6"/>
   </g>
   <g id="patch_54">
    <path d="M 467.0635 239.558438 
L 471.969425 239.558438 
L 471.969425 181.498995 
L 467.0635 181.498995 
z
" clip-path="url(#p459a800424)" style="fill: #86b0a6"/>
   </g>
   <g id="patch_55">
    <path d="M 473.931796 239.558438 
L 478.837721 239.558438 
L 478.837721 186.147939 
L 473.931796 186.147939 
z
" clip-path="url(#p459a800424)" style="fill: #86b0a6"/>
   </g>
   <g id="patch_56">
    <path d="M 480.800092 239.558438 
L 485.706018 239.558438 
L 485.706018 188.04735 
L 480.800092 188.04735 
z
" clip-path="url(#p459a800424)" style="fill: #86b0a6"/>
   </g>
   <g id="patch_57">
    <path d="M 487.668388 239.558438 
L 492.574314 239.558438 
L 492.574314 186.286331 
L 487.668388 186.286331 
z
" clip-path="url(#p459a800424)" style="fill: #86b0a6"/>
   </g>
   <g id="patch_58">
    <path d="M 494.536684 239.558438 
L 499.44261 239.558438 
L 499.44261 189.102497 
L 494.536684 189.102497 
z
" clip-path="url(#p459a800424)" style="fill: #86b0a6"/>
   </g>
   <g id="patch_59">
    <path d="M 501.40498 239.558438 
L 506.310906 239.558438 
L 506.310906 192.218878 
L 501.40498 192.218878 
z
" clip-path="url(#p459a800424)" style="fill: #86b0a6"/>
   </g>
   <g id="patch_60">
    <path d="M 508.273276 239.558438 
L 513.179202 239.558438 
L 513.179202 191.454427 
L 508.273276 191.454427 
z
" clip-path="url(#p459a800424)" style="fill: #86b0a6"/>
   </g>
   <g id="patch_61">
    <path d="M 515.141572 239.558438 
L 520.047498 239.558438 
L 520.047498 190.808598 
L 515.141572 190.808598 
z
" clip-path="url(#p459a800424)" style="fill: #86b0a6"/>
   </g>
   <g id="patch_62">
    <path d="M 522.009868 239.558438 
L 526.915794 239.558438 
L 526.915794 194.920083 
L 522.009868 194.920083 
z
" clip-path="url(#p459a800424)" style="fill: #86b0a6"/>
   </g>
   <g id="patch_63">
    <path d="M 528.878165 239.558438 
L 533.78409 239.558438 
L 533.78409 194.290363 
L 528.878165 194.290363 
z
" clip-path="url(#p459a800424)" style="fill: #86b0a6"/>
   </g>
   <g id="patch_64">
    <path d="M 535.746461 239.558438 
L 540.652386 239.558438 
L 540.652386 198.149961 
L 535.746461 198.149961 
z
" clip-path="url(#p459a800424)" style="fill: #86b0a6"/>
   </g>
   <g id="patch_65">
    <path d="M 542.614757 239.558438 
L 547.520683 239.558438 
L 547.520683 193.822467 
L 542.614757 193.822467 
z
" clip-path="url(#p459a800424)" style="fill: #86b0a6"/>
   </g>
   <g id="patch_66">
    <path d="M 549.483053 239.558438 
L 554.388979 239.558438 
L 554.388979 194.316724 
L 549.483053 194.316724 
z
" clip-path="url(#p459a800424)" style="fill: #86b0a6"/>
   </g>
   <g id="patch_67">
    <path d="M 556.351349 239.558438 
L 561.257275 239.558438 
L 561.257275 192.650895 
L 556.351349 192.650895 
z
" clip-path="url(#p459a800424)" style="fill: #86b0a6"/>
   </g>
   <g id="patch_68">
    <path d="M 563.219645 239.558438 
L 568.125571 239.558438 
L 568.125571 183.992979 
L 563.219645 183.992979 
z
" clip-path="url(#p459a800424)" style="fill: #86b0a6"/>
   </g>
   <g id="patch_69">
    <path d="M 570.087941 239.558438 
L 574.993867 239.558438 
L 574.993867 185.650753 
L 570.087941 185.650753 
z
" clip-path="url(#p459a800424)" style="fill: #86b0a6"/>
   </g>
   <g id="patch_70">
    <path d="M 576.956237 239.558438 
L 581.862163 239.558438 
L 581.862163 185.216539 
L 576.956237 185.216539 
z
" clip-path="url(#p459a800424)" style="fill: #86b0a6"/>
   </g>
   <g id="patch_71">
    <path d="M 583.824533 239.558438 
L 588.730459 239.558438 
L 588.730459 189.87427 
L 583.824533 189.87427 
z
" clip-path="url(#p459a800424)" style="fill: #86b0a6"/>
   </g>
   <g id="patch_72">
    <path d="M 590.69283 239.558438 
L 595.598755 239.558438 
L 595.598755 196.908827 
L 590.69283 196.908827 
z
" clip-path="url(#p459a800424)" style="fill: #86b0a6"/>
   </g>
   <g id="patch_73">
    <path d="M 597.561126 239.558438 
L 602.467051 239.558438 
L 602.467051 199.451138 
L 597.561126 199.451138 
z
" clip-path="url(#p459a800424)" style="fill: #86b0a6"/>
   </g>
   <g id="patch_74">
    <path d="M 604.429422 239.558438 
L 609.335348 239.558438 
L 609.335348 207.731954 
L 604.429422 207.731954 
z
" clip-path="url(#p459a800424)" style="fill: #86b0a6"/>
   </g>
   <g id="patch_75">
    <path d="M 611.297718 239.558438 
L 616.203644 239.558438 
L 616.203644 214.73649 
L 611.297718 214.73649 
z
" clip-path="url(#p459a800424)" style="fill: #86b0a6"/>
   </g>
   <g id="patch_76">
    <path d="M 618.166014 239.558438 
L 623.07194 239.558438 
L 623.07194 218.681026 
L 618.166014 218.681026 
z
" clip-path="url(#p459a800424)" style="fill: #86b0a6"/>
   </g>
   <g id="patch_77">
    <path d="M 625.03431 239.558438 
L 629.940236 239.558438 
L 629.940236 220.96852 
L 625.03431 220.96852 
z
" clip-path="url(#p459a800424)" style="fill: #86b0a6"/>
   </g>
   <g id="patch_78">
    <path d="M 631.902606 239.558438 
L 636.808532 239.558438 
L 636.808532 223.416373 
L 631.902606 223.416373 
z
" clip-path="url(#p459a800424)" style="fill: #86b0a6"/>
   </g>
   <g id="patch_79">
    <path d="M 638.770902 239.558438 
L 643.676828 239.558438 
L 643.676828 225.700206 
L 638.770902 225.700206 
z
" clip-path="url(#p459a800424)" style="fill: #86b0a6"/>
   </g>
   <g id="patch_80">
    <path d="M 645.639199 239.558438 
L 650.545124 239.558438 
L 650.545124 228.093874 
L 645.639199 228.093874 
z
" clip-path="url(#p459a800424)" style="fill: #86b0a6"/>
   </g>
   <g id="patch_81">
    <path d="M 652.507495 239.558438 
L 657.41342 239.558438 
L 657.41342 230.536602 
L 652.507495 230.536602 
z
" clip-path="url(#p459a800424)" style="fill: #86b0a6"/>
   </g>
   <g id="patch_82">
    <path d="M 659.375791 239.558438 
L 664.281717 239.558438 
L 664.281717 232.066967 
L 659.375791 232.066967 
z
" clip-path="url(#p459a800424)" style="fill: #86b0a6"/>
   </g>
   <g id="patch_83">
    <path d="M 666.244087 239.558438 
L 671.150013 239.558438 
L 671.150013 233.313227 
L 666.244087 233.313227 
z
" clip-path="url(#p459a800424)" style="fill: #86b0a6"/>
   </g>
   <g id="patch_84">
    <path d="M 673.112383 239.558438 
L 678.018309 239.558438 
L 678.018309 234.73449 
L 673.112383 234.73449 
z
" clip-path="url(#p459a800424)" style="fill: #86b0a6"/>
   </g>
   <g id="patch_85">
    <path d="M 679.980679 239.558438 
L 684.886605 239.558438 
L 684.886605 235.75449 
L 679.980679 235.75449 
z
" clip-path="url(#p459a800424)" style="fill: #86b0a6"/>
   </g>
   <g id="patch_86">
    <path d="M 686.848975 239.558438 
L 691.754901 239.558438 
L 691.754901 236.729091 
L 686.848975 236.729091 
z
" clip-path="url(#p459a800424)" style="fill: #86b0a6"/>
   </g>
   <g id="patch_87">
    <path d="M 693.717271 239.558438 
L 698.623197 239.558438 
L 698.623197 237.15818 
L 693.717271 237.15818 
z
" clip-path="url(#p459a800424)" style="fill: #86b0a6"/>
   </g>
   <g id="patch_88">
    <path d="M 700.585567 239.558438 
L 705.491493 239.558438 
L 705.491493 237.484755 
L 700.585567 237.484755 
z
" clip-path="url(#p459a800424)" style="fill: #86b0a6"/>
   </g>
   <g id="patch_89">
    <path d="M 707.453864 239.558438 
L 712.359789 239.558438 
L 712.359789 237.873571 
L 707.453864 237.873571 
z
" clip-path="url(#p459a800424)" style="fill: #86b0a6"/>
   </g>
   <g id="patch_90">
    <path d="M 714.32216 239.558438 
L 719.228085 239.558438 
L 719.228085 238.284353 
L 714.32216 238.284353 
z
" clip-path="url(#p459a800424)" style="fill: #86b0a6"/>
   </g>
   <g id="patch_91">
    <path d="M 721.190456 239.558438 
L 726.096382 239.558438 
L 726.096382 238.581639 
L 721.190456 238.581639 
z
" clip-path="url(#p459a800424)" style="fill: #86b0a6"/>
   </g>
   <g id="patch_92">
    <path d="M 728.058752 239.558438 
L 732.964678 239.558438 
L 732.964678 238.815954 
L 728.058752 238.815954 
z
" clip-path="url(#p459a800424)" style="fill: #86b0a6"/>
   </g>
   <g id="patch_93">
    <path d="M 734.927048 239.558438 
L 739.832974 239.558438 
L 739.832974 238.867942 
L 734.927048 238.867942 
z
" clip-path="url(#p459a800424)" style="fill: #86b0a6"/>
   </g>
   <g id="patch_94">
    <path d="M 741.795344 239.558438 
L 746.70127 239.558438 
L 746.70127 238.954346 
L 741.795344 238.954346 
z
" clip-path="url(#p459a800424)" style="fill: #86b0a6"/>
   </g>
   <g id="patch_95">
    <path d="M 748.66364 239.558438 
L 753.569566 239.558438 
L 753.569566 239.061984 
L 748.66364 239.061984 
z
" clip-path="url(#p459a800424)" style="fill: #86b0a6"/>
   </g>
   <g id="patch_96">
    <path d="M 755.531936 239.558438 
L 760.437862 239.558438 
L 760.437862 239.124956 
L 755.531936 239.124956 
z
" clip-path="url(#p459a800424)" style="fill: #86b0a6"/>
   </g>
   <g id="patch_97">
    <path d="M 762.400232 239.558438 
L 767.306158 239.558438 
L 767.306158 239.181338 
L 762.400232 239.181338 
z
" clip-path="url(#p459a800424)" style="fill: #86b0a6"/>
   </g>
   <g id="patch_98">
    <path d="M 769.268529 239.558438 
L 774.174454 239.558438 
L 774.174454 239.242113 
L 769.268529 239.242113 
z
" clip-path="url(#p459a800424)" style="fill: #86b0a6"/>
   </g>
   <g id="patch_99">
    <path d="M 776.136825 239.558438 
L 781.04275 239.558438 
L 781.04275 239.277992 
L 776.136825 239.277992 
z
" clip-path="url(#p459a800424)" style="fill: #86b0a6"/>
   </g>
   <g id="patch_100">
    <path d="M 783.005121 239.558438 
L 787.911047 239.558438 
L 787.911047 239.249435 
L 783.005121 239.249435 
z
" clip-path="url(#p459a800424)" style="fill: #86b0a6"/>
   </g>
   <g id="patch_101">
    <path d="M 789.873417 239.558438 
L 794.779343 239.558438 
L 794.779343 239.31973 
L 789.873417 239.31973 
z
" clip-path="url(#p459a800424)" style="fill: #86b0a6"/>
   </g>
   <g id="patch_102">
    <path d="M 796.741713 239.558438 
L 801.647639 239.558438 
L 801.647639 239.303621 
L 796.741713 239.303621 
z
" clip-path="url(#p459a800424)" style="fill: #86b0a6"/>
   </g>
   <g id="patch_103">
    <path d="M 803.610009 239.558438 
L 808.515935 239.558438 
L 808.515935 239.2509 
L 803.610009 239.2509 
z
" clip-path="url(#p459a800424)" style="fill: #86b0a6"/>
   </g>
   <g id="patch_104">
    <path d="M 810.478305 239.558438 
L 815.384231 239.558438 
L 815.384231 239.282386 
L 810.478305 239.282386 
z
" clip-path="url(#p459a800424)" style="fill: #86b0a6"/>
   </g>
   <g id="patch_105">
    <path d="M 817.346601 239.558438 
L 822.252527 239.558438 
L 822.252527 239.262616 
L 817.346601 239.262616 
z
" clip-path="url(#p459a800424)" style="fill: #86b0a6"/>
   </g>
   <g id="patch_106">
    <path d="M 824.214897 239.558438 
L 829.120823 239.558438 
L 829.120823 239.160835 
L 824.214897 239.160835 
z
" clip-path="url(#p459a800424)" style="fill: #86b0a6"/>
   </g>
   <g id="patch_107">
    <path d="M 831.083194 239.558438 
L 835.989119 239.558438 
L 835.989119 239.149852 
L 831.083194 239.149852 
z
" clip-path="url(#p459a800424)" style="fill: #86b0a6"/>
   </g>
   <g id="patch_108">
    <path d="M 837.95149 239.558438 
L 842.857415 239.558438 
L 842.857415 239.105918 
L 837.95149 239.105918 
z
" clip-path="url(#p459a800424)" style="fill: #86b0a6"/>
   </g>
   <g id="patch_109">
    <path d="M 844.819786 239.558438 
L 849.725712 239.558438 
L 849.725712 239.122759 
L 844.819786 239.122759 
z
" clip-path="url(#p459a800424)" style="fill: #86b0a6"/>
   </g>
   <g id="patch_110">
    <path d="M 851.688082 239.558438 
L 856.594008 239.558438 
L 856.594008 239.089809 
L 851.688082 239.089809 
z
" clip-path="url(#p459a800424)" style="fill: #86b0a6"/>
   </g>
   <g id="patch_111">
    <path d="M 858.556378 239.558438 
L 863.462304 239.558438 
L 863.462304 239.01805 
L 858.556378 239.01805 
z
" clip-path="url(#p459a800424)" style="fill: #86b0a6"/>
   </g>
   <g id="patch_112">
    <path d="M 865.424674 239.558438 
L 870.3306 239.558438 
L 870.3306 238.923592 
L 865.424674 238.923592 
z
" clip-path="url(#p459a800424)" style="fill: #86b0a6"/>
   </g>
   <g id="patch_113">
    <path d="M 872.29297 239.558438 
L 877.198896 239.558438 
L 877.198896 238.855494 
L 872.29297 238.855494 
z
" clip-path="url(#p459a800424)" style="fill: #86b0a6"/>
   </g>
   <g id="patch_114">
    <path d="M 879.161266 239.558438 
L 884.067192 239.558438 
L 884.067192 238.761036 
L 879.161266 238.761036 
z
" clip-path="url(#p459a800424)" style="fill: #86b0a6"/>
   </g>
   <g id="patch_115">
    <path d="M 886.029562 239.558438 
L 890.935488 239.558438 
L 890.935488 238.583104 
L 886.029562 238.583104 
z
" clip-path="url(#p459a800424)" style="fill: #86b0a6"/>
   </g>
   <g id="patch_116">
    <path d="M 892.897859 239.558438 
L 897.803784 239.558438 
L 897.803784 238.25067 
L 892.897859 238.25067 
z
" clip-path="url(#p459a800424)" style="fill: #86b0a6"/>
   </g>
   <g id="patch_117">
    <path d="M 899.766155 239.558438 
L 904.672081 239.558438 
L 904.672081 237.913843 
L 899.766155 237.913843 
z
" clip-path="url(#p459a800424)" style="fill: #86b0a6"/>
   </g>
   <g id="patch_118">
    <path d="M 906.634451 239.558438 
L 911.540377 239.558438 
L 911.540377 237.146464 
L 906.634451 237.146464 
z
" clip-path="url(#p459a800424)" style="fill: #86b0a6"/>
   </g>
   <g id="patch_119">
    <path d="M 913.502747 239.558438 
L 918.408673 239.558438 
L 918.408673 236.224583 
L 913.502747 236.224583 
z
" clip-path="url(#p459a800424)" style="fill: #86b0a6"/>
   </g>
   <g id="patch_120">
    <path d="M 920.371043 239.558438 
L 925.276969 239.558438 
L 925.276969 234.204354 
L 920.371043 234.204354 
z
" clip-path="url(#p459a800424)" style="fill: #86b0a6"/>
   </g>
   <g id="patch_121">
    <path d="M 927.239339 239.558438 
L 932.145265 239.558438 
L 932.145265 231.91027 
L 927.239339 231.91027 
z
" clip-path="url(#p459a800424)" style="fill: #86b0a6"/>
   </g>
   <g id="patch_122">
    <path d="M 934.107635 239.558438 
L 939.013561 239.558438 
L 939.013561 229.745791 
L 934.107635 229.745791 
z
" clip-path="url(#p459a800424)" style="fill: #86b0a6"/>
   </g>
   <g id="patch_123">
    <path d="M 940.975931 239.558438 
L 945.881857 239.558438 
L 945.881857 229.490241 
L 940.975931 229.490241 
z
" clip-path="url(#p459a800424)" style="fill: #86b0a6"/>
   </g>
   <g id="patch_124">
    <path d="M 947.844228 239.558438 
L 952.750153 239.558438 
L 952.750153 229.250069 
L 947.844228 229.250069 
z
" clip-path="url(#p459a800424)" style="fill: #86b0a6"/>
   </g>
   <g id="patch_125">
    <path d="M 954.712524 239.558438 
L 959.618449 239.558438 
L 959.618449 228.044082 
L 954.712524 228.044082 
z
" clip-path="url(#p459a800424)" style="fill: #86b0a6"/>
   </g>
   <g id="patch_126">
    <path d="M 961.58082 239.558438 
L 966.486746 239.558438 
L 966.486746 228.287916 
L 961.58082 228.287916 
z
" clip-path="url(#p459a800424)" style="fill: #86b0a6"/>
   </g>
   <g id="patch_127">
    <path d="M 968.449116 239.558438 
L 973.355042 239.558438 
L 973.355042 229.366494 
L 968.449116 229.366494 
z
" clip-path="url(#p459a800424)" style="fill: #86b0a6"/>
   </g>
   <g id="patch_128">
    <path d="M 975.317412 239.558438 
L 980.223338 239.558438 
L 980.223338 230.07676 
L 975.317412 230.07676 
z
" clip-path="url(#p459a800424)" style="fill: #86b0a6"/>
   </g>
   <g id="patch_129">
    <path d="M 982.185708 239.558438 
L 987.091634 239.558438 
L 987.091634 229.974247 
L 982.185708 229.974247 
z
" clip-path="url(#p459a800424)" style="fill: #86b0a6"/>
   </g>
   <g id="patch_130">
    <path d="M 989.054004 239.558438 
L 993.95993 239.558438 
L 993.95993 230.827298 
L 989.054004 230.827298 
z
" clip-path="url(#p459a800424)" style="fill: #86b0a6"/>
   </g>
   <g id="patch_131">
    <path d="M 995.9223 239.558438 
L 1000.828226 239.558438 
L 1000.828226 231.933701 
L 995.9223 231.933701 
z
" clip-path="url(#p459a800424)" style="fill: #86b0a6"/>
   </g>
   <g id="patch_132">
    <path d="M 1002.790596 239.558438 
L 1007.696522 239.558438 
L 1007.696522 232.626393 
L 1002.790596 232.626393 
z
" clip-path="url(#p459a800424)" style="fill: #86b0a6"/>
   </g>
   <g id="patch_133">
    <path d="M 1009.658893 239.558438 
L 1014.564818 239.558438 
L 1014.564818 233.623694 
L 1009.658893 233.623694 
z
" clip-path="url(#p459a800424)" style="fill: #86b0a6"/>
   </g>
   <g id="patch_134">
    <path d="M 1016.527189 239.558438 
L 1021.433114 239.558438 
L 1021.433114 234.162617 
L 1016.527189 234.162617 
z
" clip-path="url(#p459a800424)" style="fill: #86b0a6"/>
   </g>
   <g id="patch_135">
    <path d="M 1023.395485 239.558438 
L 1028.301411 239.558438 
L 1028.301411 234.666393 
L 1023.395485 234.666393 
z
" clip-path="url(#p459a800424)" style="fill: #86b0a6"/>
   </g>
   <g id="patch_136">
    <path d="M 1030.263781 239.558438 
L 1035.169707 239.558438 
L 1035.169707 235.35103 
L 1030.263781 235.35103 
z
" clip-path="url(#p459a800424)" style="fill: #86b0a6"/>
   </g>
   <g id="patch_137">
    <path d="M 1037.132077 239.558438 
L 1042.038003 239.558438 
L 1042.038003 236.08253 
L 1037.132077 236.08253 
z
" clip-path="url(#p459a800424)" style="fill: #86b0a6"/>
   </g>
   <g id="patch_138">
    <path d="M 1044.000373 239.558438 
L 1048.906299 239.558438 
L 1048.906299 236.067885 
L 1044.000373 236.067885 
z
" clip-path="url(#p459a800424)" style="fill: #86b0a6"/>
   </g>
   <g id="patch_139">
    <path d="M 1050.868669 239.558438 
L 1055.774595 239.558438 
L 1055.774595 236.475739 
L 1050.868669 236.475739 
z
" clip-path="url(#p459a800424)" style="fill: #86b0a6"/>
   </g>
   <g id="patch_140">
    <path d="M 1057.736965 239.558438 
L 1062.642891 239.558438 
L 1062.642891 236.564339 
L 1057.736965 236.564339 
z
" clip-path="url(#p459a800424)" style="fill: #86b0a6"/>
   </g>
   <g id="patch_141">
    <path d="M 1064.605261 239.558438 
L 1069.511187 239.558438 
L 1069.511187 236.401783 
L 1064.605261 236.401783 
z
" clip-path="url(#p459a800424)" style="fill: #86b0a6"/>
   </g>
   <g id="patch_142">
    <path d="M 1071.473558 239.558438 
L 1076.379483 239.558438 
L 1076.379483 236.122803 
L 1071.473558 236.122803 
z
" clip-path="url(#p459a800424)" style="fill: #86b0a6"/>
   </g>
   <g id="patch_143">
    <path d="M 1078.341854 239.558438 
L 1083.247779 239.558438 
L 1083.247779 235.675409 
L 1078.341854 235.675409 
z
" clip-path="url(#p459a800424)" style="fill: #86b0a6"/>
   </g>
   <g id="patch_144">
    <path d="M 1085.21015 239.558438 
L 1090.116076 239.558438 
L 1090.116076 235.543607 
L 1085.21015 235.543607 
z
" clip-path="url(#p459a800424)" style="fill: #86b0a6"/>
   </g>
   <g id="patch_145">
    <path d="M 1092.078446 239.558438 
L 1096.984372 239.558438 
L 1096.984372 235.444023 
L 1092.078446 235.444023 
z
" clip-path="url(#p459a800424)" style="fill: #86b0a6"/>
   </g>
   <g id="patch_146">
    <path d="M 1098.946742 239.558438 
L 1103.852668 239.558438 
L 1103.852668 236.028345 
L 1098.946742 236.028345 
z
" clip-path="url(#p459a800424)" style="fill: #86b0a6"/>
   </g>
   <g id="patch_147">
    <path d="M 1105.815038 239.558438 
L 1110.720964 239.558438 
L 1110.720964 236.396658 
L 1105.815038 236.396658 
z
" clip-path="url(#p459a800424)" style="fill: #86b0a6"/>
   </g>
   <g id="patch_148">
    <path d="M 1112.683334 239.558438 
L 1117.58926 239.558438 
L 1117.58926 237.607038 
L 1112.683334 237.607038 
z
" clip-path="url(#p459a800424)" style="fill: #86b0a6"/>
   </g>
   <g id="patch_149">
    <path d="M 1119.55163 239.558438 
L 1124.457556 239.558438 
L 1124.457556 239.061252 
L 1119.55163 239.061252 
z
" clip-path="url(#p459a800424)" style="fill: #86b0a6"/>
   </g>
   <g id="patch_150">
    <path d="M 1126.419926 239.558438 
L 1131.325852 239.558438 
L 1131.325852 239.538667 
L 1126.419926 239.538667 
z
" clip-path="url(#p459a800424)" style="fill: #86b0a6"/>
   </g>
   <g id="matplotlib.axis_1">
    <g id="xtick_1">
     <g id="line2d_1">
      <defs>
       <path id="m3d5969db64" d="M 0 0 
L 0 3.5 
" style="stroke: #000000; stroke-width: 0.8"/>
      </defs>
      <g>
       <use xlink:href="#m3d5969db64" x="122.176916" y="239.558438" style="stroke: #000000; stroke-width: 0.8"/>
      </g>
     </g>
     <g id="text_1">
      <!-- 2021-09 -->
      <g transform="translate(124.936291 288.34125)rotate(-90)scale(0.1 -0.1)">
       <defs>
        <path id="DejaVuSans-32" d="M 1228 531 
L 3431 531 
L 3431 0 
L 469 0 
L 469 531 
Q 828 903 1448 1529 
Q 2069 2156 2228 2338 
Q 2531 2678 2651 2914 
Q 2772 3150 2772 3378 
Q 2772 3750 2511 3984 
Q 2250 4219 1831 4219 
Q 1534 4219 1204 4116 
Q 875 4013 500 3803 
L 500 4441 
Q 881 4594 1212 4672 
Q 1544 4750 1819 4750 
Q 2544 4750 2975 4387 
Q 3406 4025 3406 3419 
Q 3406 3131 3298 2873 
Q 3191 2616 2906 2266 
Q 2828 2175 2409 1742 
Q 1991 1309 1228 531 
z
" transform="scale(0.015625)"/>
        <path id="DejaVuSans-30" d="M 2034 4250 
Q 1547 4250 1301 3770 
Q 1056 3291 1056 2328 
Q 1056 1369 1301 889 
Q 1547 409 2034 409 
Q 2525 409 2770 889 
Q 3016 1369 3016 2328 
Q 3016 3291 2770 3770 
Q 2525 4250 2034 4250 
z
M 2034 4750 
Q 2819 4750 3233 4129 
Q 3647 3509 3647 2328 
Q 3647 1150 3233 529 
Q 2819 -91 2034 -91 
Q 1250 -91 836 529 
Q 422 1150 422 2328 
Q 422 3509 836 4129 
Q 1250 4750 2034 4750 
z
" transform="scale(0.015625)"/>
        <path id="DejaVuSans-31" d="M 794 531 
L 1825 531 
L 1825 4091 
L 703 3866 
L 703 4441 
L 1819 4666 
L 2450 4666 
L 2450 531 
L 3481 531 
L 3481 0 
L 794 0 
L 794 531 
z
" transform="scale(0.015625)"/>
        <path id="DejaVuSans-2d" d="M 313 2009 
L 1997 2009 
L 1997 1497 
L 313 1497 
L 313 2009 
z
" transform="scale(0.015625)"/>
        <path id="DejaVuSans-39" d="M 703 97 
L 703 672 
Q 941 559 1184 500 
Q 1428 441 1663 441 
Q 2288 441 2617 861 
Q 2947 1281 2994 2138 
Q 2813 1869 2534 1725 
Q 2256 1581 1919 1581 
Q 1219 1581 811 2004 
Q 403 2428 403 3163 
Q 403 3881 828 4315 
Q 1253 4750 1959 4750 
Q 2769 4750 3195 4129 
Q 3622 3509 3622 2328 
Q 3622 1225 3098 567 
Q 2575 -91 1691 -91 
Q 1453 -91 1209 -44 
Q 966 3 703 97 
z
M 1959 2075 
Q 2384 2075 2632 2365 
Q 2881 2656 2881 3163 
Q 2881 3666 2632 3958 
Q 2384 4250 1959 4250 
Q 1534 4250 1286 3958 
Q 1038 3666 1038 3163 
Q 1038 2656 1286 2365 
Q 1534 2075 1959 2075 
z
" transform="scale(0.015625)"/>
       </defs>
       <use xlink:href="#DejaVuSans-32"/>
       <use xlink:href="#DejaVuSans-30" x="63.623047"/>
       <use xlink:href="#DejaVuSans-32" x="127.246094"/>
       <use xlink:href="#DejaVuSans-31" x="190.869141"/>
       <use xlink:href="#DejaVuSans-2d" x="254.492188"/>
       <use xlink:href="#DejaVuSans-30" x="290.576172"/>
       <use xlink:href="#DejaVuSans-39" x="354.199219"/>
      </g>
     </g>
    </g>
    <g id="xtick_2">
     <g id="line2d_2">
      <g>
       <use xlink:href="#m3d5969db64" x="241.881506" y="239.558438" style="stroke: #000000; stroke-width: 0.8"/>
      </g>
     </g>
     <g id="text_2">
      <!-- 2022-01 -->
      <g transform="translate(244.640881 288.34125)rotate(-90)scale(0.1 -0.1)">
       <use xlink:href="#DejaVuSans-32"/>
       <use xlink:href="#DejaVuSans-30" x="63.623047"/>
       <use xlink:href="#DejaVuSans-32" x="127.246094"/>
       <use xlink:href="#DejaVuSans-32" x="190.869141"/>
       <use xlink:href="#DejaVuSans-2d" x="254.492188"/>
       <use xlink:href="#DejaVuSans-30" x="290.576172"/>
       <use xlink:href="#DejaVuSans-31" x="354.199219"/>
      </g>
     </g>
    </g>
    <g id="xtick_3">
     <g id="line2d_3">
      <g>
       <use xlink:href="#m3d5969db64" x="359.623725" y="239.558438" style="stroke: #000000; stroke-width: 0.8"/>
      </g>
     </g>
     <g id="text_3">
      <!-- 2022-05 -->
      <g transform="translate(362.3831 288.34125)rotate(-90)scale(0.1 -0.1)">
       <defs>
        <path id="DejaVuSans-35" d="M 691 4666 
L 3169 4666 
L 3169 4134 
L 1269 4134 
L 1269 2991 
Q 1406 3038 1543 3061 
Q 1681 3084 1819 3084 
Q 2600 3084 3056 2656 
Q 3513 2228 3513 1497 
Q 3513 744 3044 326 
Q 2575 -91 1722 -91 
Q 1428 -91 1123 -41 
Q 819 9 494 109 
L 494 744 
Q 775 591 1075 516 
Q 1375 441 1709 441 
Q 2250 441 2565 725 
Q 2881 1009 2881 1497 
Q 2881 1984 2565 2268 
Q 2250 2553 1709 2553 
Q 1456 2553 1204 2497 
Q 953 2441 691 2322 
L 691 4666 
z
" transform="scale(0.015625)"/>
       </defs>
       <use xlink:href="#DejaVuSans-32"/>
       <use xlink:href="#DejaVuSans-30" x="63.623047"/>
       <use xlink:href="#DejaVuSans-32" x="127.246094"/>
       <use xlink:href="#DejaVuSans-32" x="190.869141"/>
       <use xlink:href="#DejaVuSans-2d" x="254.492188"/>
       <use xlink:href="#DejaVuSans-30" x="290.576172"/>
       <use xlink:href="#DejaVuSans-35" x="354.199219"/>
      </g>
     </g>
    </g>
    <g id="xtick_4">
     <g id="line2d_4">
      <g>
       <use xlink:href="#m3d5969db64" x="480.309499" y="239.558438" style="stroke: #000000; stroke-width: 0.8"/>
      </g>
     </g>
     <g id="text_4">
      <!-- 2022-09 -->
      <g transform="translate(483.068874 288.34125)rotate(-90)scale(0.1 -0.1)">
       <use xlink:href="#DejaVuSans-32"/>
       <use xlink:href="#DejaVuSans-30" x="63.623047"/>
       <use xlink:href="#DejaVuSans-32" x="127.246094"/>
       <use xlink:href="#DejaVuSans-32" x="190.869141"/>
       <use xlink:href="#DejaVuSans-2d" x="254.492188"/>
       <use xlink:href="#DejaVuSans-30" x="290.576172"/>
       <use xlink:href="#DejaVuSans-39" x="354.199219"/>
      </g>
     </g>
    </g>
    <g id="xtick_5">
     <g id="line2d_5">
      <g>
       <use xlink:href="#m3d5969db64" x="600.014089" y="239.558438" style="stroke: #000000; stroke-width: 0.8"/>
      </g>
     </g>
     <g id="text_5">
      <!-- 2023-01 -->
      <g transform="translate(602.773464 288.34125)rotate(-90)scale(0.1 -0.1)">
       <defs>
        <path id="DejaVuSans-33" d="M 2597 2516 
Q 3050 2419 3304 2112 
Q 3559 1806 3559 1356 
Q 3559 666 3084 287 
Q 2609 -91 1734 -91 
Q 1441 -91 1130 -33 
Q 819 25 488 141 
L 488 750 
Q 750 597 1062 519 
Q 1375 441 1716 441 
Q 2309 441 2620 675 
Q 2931 909 2931 1356 
Q 2931 1769 2642 2001 
Q 2353 2234 1838 2234 
L 1294 2234 
L 1294 2753 
L 1863 2753 
Q 2328 2753 2575 2939 
Q 2822 3125 2822 3475 
Q 2822 3834 2567 4026 
Q 2313 4219 1838 4219 
Q 1578 4219 1281 4162 
Q 984 4106 628 3988 
L 628 4550 
Q 988 4650 1302 4700 
Q 1616 4750 1894 4750 
Q 2613 4750 3031 4423 
Q 3450 4097 3450 3541 
Q 3450 3153 3228 2886 
Q 3006 2619 2597 2516 
z
" transform="scale(0.015625)"/>
       </defs>
       <use xlink:href="#DejaVuSans-32"/>
       <use xlink:href="#DejaVuSans-30" x="63.623047"/>
       <use xlink:href="#DejaVuSans-32" x="127.246094"/>
       <use xlink:href="#DejaVuSans-33" x="190.869141"/>
       <use xlink:href="#DejaVuSans-2d" x="254.492188"/>
       <use xlink:href="#DejaVuSans-30" x="290.576172"/>
       <use xlink:href="#DejaVuSans-31" x="354.199219"/>
      </g>
     </g>
    </g>
    <g id="xtick_6">
     <g id="line2d_6">
      <g>
       <use xlink:href="#m3d5969db64" x="717.756308" y="239.558438" style="stroke: #000000; stroke-width: 0.8"/>
      </g>
     </g>
     <g id="text_6">
      <!-- 2023-05 -->
      <g transform="translate(720.515683 288.34125)rotate(-90)scale(0.1 -0.1)">
       <use xlink:href="#DejaVuSans-32"/>
       <use xlink:href="#DejaVuSans-30" x="63.623047"/>
       <use xlink:href="#DejaVuSans-32" x="127.246094"/>
       <use xlink:href="#DejaVuSans-33" x="190.869141"/>
       <use xlink:href="#DejaVuSans-2d" x="254.492188"/>
       <use xlink:href="#DejaVuSans-30" x="290.576172"/>
       <use xlink:href="#DejaVuSans-35" x="354.199219"/>
      </g>
     </g>
    </g>
    <g id="xtick_7">
     <g id="line2d_7">
      <g>
       <use xlink:href="#m3d5969db64" x="838.442082" y="239.558438" style="stroke: #000000; stroke-width: 0.8"/>
      </g>
     </g>
     <g id="text_7">
      <!-- 2023-09 -->
      <g transform="translate(841.201457 288.34125)rotate(-90)scale(0.1 -0.1)">
       <use xlink:href="#DejaVuSans-32"/>
       <use xlink:href="#DejaVuSans-30" x="63.623047"/>
       <use xlink:href="#DejaVuSans-32" x="127.246094"/>
       <use xlink:href="#DejaVuSans-33" x="190.869141"/>
       <use xlink:href="#DejaVuSans-2d" x="254.492188"/>
       <use xlink:href="#DejaVuSans-30" x="290.576172"/>
       <use xlink:href="#DejaVuSans-39" x="354.199219"/>
      </g>
     </g>
    </g>
    <g id="xtick_8">
     <g id="line2d_8">
      <g>
       <use xlink:href="#m3d5969db64" x="958.146672" y="239.558438" style="stroke: #000000; stroke-width: 0.8"/>
      </g>
     </g>
     <g id="text_8">
      <!-- 2024-01 -->
      <g transform="translate(960.906047 288.34125)rotate(-90)scale(0.1 -0.1)">
       <defs>
        <path id="DejaVuSans-34" d="M 2419 4116 
L 825 1625 
L 2419 1625 
L 2419 4116 
z
M 2253 4666 
L 3047 4666 
L 3047 1625 
L 3713 1625 
L 3713 1100 
L 3047 1100 
L 3047 0 
L 2419 0 
L 2419 1100 
L 313 1100 
L 313 1709 
L 2253 4666 
z
" transform="scale(0.015625)"/>
       </defs>
       <use xlink:href="#DejaVuSans-32"/>
       <use xlink:href="#DejaVuSans-30" x="63.623047"/>
       <use xlink:href="#DejaVuSans-32" x="127.246094"/>
       <use xlink:href="#DejaVuSans-34" x="190.869141"/>
       <use xlink:href="#DejaVuSans-2d" x="254.492188"/>
       <use xlink:href="#DejaVuSans-30" x="290.576172"/>
       <use xlink:href="#DejaVuSans-31" x="354.199219"/>
      </g>
     </g>
    </g>
    <g id="xtick_9">
     <g id="line2d_9">
      <g>
       <use xlink:href="#m3d5969db64" x="1076.870076" y="239.558438" style="stroke: #000000; stroke-width: 0.8"/>
      </g>
     </g>
     <g id="text_9">
      <!-- 2024-05 -->
      <g transform="translate(1079.629451 288.34125)rotate(-90)scale(0.1 -0.1)">
       <use xlink:href="#DejaVuSans-32"/>
       <use xlink:href="#DejaVuSans-30" x="63.623047"/>
       <use xlink:href="#DejaVuSans-32" x="127.246094"/>
       <use xlink:href="#DejaVuSans-34" x="190.869141"/>
       <use xlink:href="#DejaVuSans-2d" x="254.492188"/>
       <use xlink:href="#DejaVuSans-30" x="290.576172"/>
       <use xlink:href="#DejaVuSans-35" x="354.199219"/>
      </g>
     </g>
    </g>
    <g id="text_10">
     <!-- Date -->
     <g transform="translate(612.102344 299.939687)scale(0.1 -0.1)">
      <defs>
       <path id="DejaVuSans-44" d="M 1259 4147 
L 1259 519 
L 2022 519 
Q 2988 519 3436 956 
Q 3884 1394 3884 2338 
Q 3884 3275 3436 3711 
Q 2988 4147 2022 4147 
L 1259 4147 
z
M 628 4666 
L 1925 4666 
Q 3281 4666 3915 4102 
Q 4550 3538 4550 2338 
Q 4550 1131 3912 565 
Q 3275 0 1925 0 
L 628 0 
L 628 4666 
z
" transform="scale(0.015625)"/>
       <path id="DejaVuSans-61" d="M 2194 1759 
Q 1497 1759 1228 1600 
Q 959 1441 959 1056 
Q 959 750 1161 570 
Q 1363 391 1709 391 
Q 2188 391 2477 730 
Q 2766 1069 2766 1631 
L 2766 1759 
L 2194 1759 
z
M 3341 1997 
L 3341 0 
L 2766 0 
L 2766 531 
Q 2569 213 2275 61 
Q 1981 -91 1556 -91 
Q 1019 -91 701 211 
Q 384 513 384 1019 
Q 384 1609 779 1909 
Q 1175 2209 1959 2209 
L 2766 2209 
L 2766 2266 
Q 2766 2663 2505 2880 
Q 2244 3097 1772 3097 
Q 1472 3097 1187 3025 
Q 903 2953 641 2809 
L 641 3341 
Q 956 3463 1253 3523 
Q 1550 3584 1831 3584 
Q 2591 3584 2966 3190 
Q 3341 2797 3341 1997 
z
" transform="scale(0.015625)"/>
       <path id="DejaVuSans-74" d="M 1172 4494 
L 1172 3500 
L 2356 3500 
L 2356 3053 
L 1172 3053 
L 1172 1153 
Q 1172 725 1289 603 
Q 1406 481 1766 481 
L 2356 481 
L 2356 0 
L 1766 0 
Q 1100 0 847 248 
Q 594 497 594 1153 
L 594 3053 
L 172 3053 
L 172 3500 
L 594 3500 
L 594 4494 
L 1172 4494 
z
" transform="scale(0.015625)"/>
       <path id="DejaVuSans-65" d="M 3597 1894 
L 3597 1613 
L 953 1613 
Q 991 1019 1311 708 
Q 1631 397 2203 397 
Q 2534 397 2845 478 
Q 3156 559 3463 722 
L 3463 178 
Q 3153 47 2828 -22 
Q 2503 -91 2169 -91 
Q 1331 -91 842 396 
Q 353 884 353 1716 
Q 353 2575 817 3079 
Q 1281 3584 2069 3584 
Q 2775 3584 3186 3129 
Q 3597 2675 3597 1894 
z
M 3022 2063 
Q 3016 2534 2758 2815 
Q 2500 3097 2075 3097 
Q 1594 3097 1305 2825 
Q 1016 2553 972 2059 
L 3022 2063 
z
" transform="scale(0.015625)"/>
      </defs>
      <use xlink:href="#DejaVuSans-44"/>
      <use xlink:href="#DejaVuSans-61" x="77.001953"/>
      <use xlink:href="#DejaVuSans-74" x="138.28125"/>
      <use xlink:href="#DejaVuSans-65" x="177.490234"/>
     </g>
    </g>
   </g>
   <g id="matplotlib.axis_2">
    <g id="ytick_1">
     <g id="line2d_10">
      <defs>
       <path id="m8bfcc1e390" d="M 0 0 
L -3.5 0 
" style="stroke: #000000; stroke-width: 0.8"/>
      </defs>
      <g>
       <use xlink:href="#m8bfcc1e390" x="66.053125" y="239.558438" style="stroke: #000000; stroke-width: 0.8"/>
      </g>
     </g>
     <g id="text_11">
      <!-- 0 -->
      <g transform="translate(52.690625 243.357656)scale(0.1 -0.1)">
       <use xlink:href="#DejaVuSans-30"/>
      </g>
     </g>
    </g>
    <g id="ytick_2">
     <g id="line2d_11">
      <g>
       <use xlink:href="#m8bfcc1e390" x="66.053125" y="202.946815" style="stroke: #000000; stroke-width: 0.8"/>
      </g>
     </g>
     <g id="text_12">
      <!-- 50000 -->
      <g transform="translate(27.240625 206.746034)scale(0.1 -0.1)">
       <use xlink:href="#DejaVuSans-35"/>
       <use xlink:href="#DejaVuSans-30" x="63.623047"/>
       <use xlink:href="#DejaVuSans-30" x="127.246094"/>
       <use xlink:href="#DejaVuSans-30" x="190.869141"/>
       <use xlink:href="#DejaVuSans-30" x="254.492188"/>
      </g>
     </g>
    </g>
    <g id="ytick_3">
     <g id="line2d_12">
      <g>
       <use xlink:href="#m8bfcc1e390" x="66.053125" y="166.335193" style="stroke: #000000; stroke-width: 0.8"/>
      </g>
     </g>
     <g id="text_13">
      <!-- 100000 -->
      <g transform="translate(20.878125 170.134412)scale(0.1 -0.1)">
       <use xlink:href="#DejaVuSans-31"/>
       <use xlink:href="#DejaVuSans-30" x="63.623047"/>
       <use xlink:href="#DejaVuSans-30" x="127.246094"/>
       <use xlink:href="#DejaVuSans-30" x="190.869141"/>
       <use xlink:href="#DejaVuSans-30" x="254.492188"/>
       <use xlink:href="#DejaVuSans-30" x="318.115234"/>
      </g>
     </g>
    </g>
    <g id="ytick_4">
     <g id="line2d_13">
      <g>
       <use xlink:href="#m8bfcc1e390" x="66.053125" y="129.723571" style="stroke: #000000; stroke-width: 0.8"/>
      </g>
     </g>
     <g id="text_14">
      <!-- 150000 -->
      <g transform="translate(20.878125 133.52279)scale(0.1 -0.1)">
       <use xlink:href="#DejaVuSans-31"/>
       <use xlink:href="#DejaVuSans-35" x="63.623047"/>
       <use xlink:href="#DejaVuSans-30" x="127.246094"/>
       <use xlink:href="#DejaVuSans-30" x="190.869141"/>
       <use xlink:href="#DejaVuSans-30" x="254.492188"/>
       <use xlink:href="#DejaVuSans-30" x="318.115234"/>
      </g>
     </g>
    </g>
    <g id="ytick_5">
     <g id="line2d_14">
      <g>
       <use xlink:href="#m8bfcc1e390" x="66.053125" y="93.111949" style="stroke: #000000; stroke-width: 0.8"/>
      </g>
     </g>
     <g id="text_15">
      <!-- 200000 -->
      <g transform="translate(20.878125 96.911168)scale(0.1 -0.1)">
       <use xlink:href="#DejaVuSans-32"/>
       <use xlink:href="#DejaVuSans-30" x="63.623047"/>
       <use xlink:href="#DejaVuSans-30" x="127.246094"/>
       <use xlink:href="#DejaVuSans-30" x="190.869141"/>
       <use xlink:href="#DejaVuSans-30" x="254.492188"/>
       <use xlink:href="#DejaVuSans-30" x="318.115234"/>
      </g>
     </g>
    </g>
    <g id="ytick_6">
     <g id="line2d_15">
      <g>
       <use xlink:href="#m8bfcc1e390" x="66.053125" y="56.500327" style="stroke: #000000; stroke-width: 0.8"/>
      </g>
     </g>
     <g id="text_16">
      <!-- 250000 -->
      <g transform="translate(20.878125 60.299546)scale(0.1 -0.1)">
       <use xlink:href="#DejaVuSans-32"/>
       <use xlink:href="#DejaVuSans-35" x="63.623047"/>
       <use xlink:href="#DejaVuSans-30" x="127.246094"/>
       <use xlink:href="#DejaVuSans-30" x="190.869141"/>
       <use xlink:href="#DejaVuSans-30" x="254.492188"/>
       <use xlink:href="#DejaVuSans-30" x="318.115234"/>
      </g>
     </g>
    </g>
    <g id="ytick_7">
     <g id="line2d_16">
      <g>
       <use xlink:href="#m8bfcc1e390" x="66.053125" y="19.888705" style="stroke: #000000; stroke-width: 0.8"/>
      </g>
     </g>
     <g id="text_17">
      <!-- 300000 -->
      <g transform="translate(20.878125 23.687924)scale(0.1 -0.1)">
       <use xlink:href="#DejaVuSans-33"/>
       <use xlink:href="#DejaVuSans-30" x="63.623047"/>
       <use xlink:href="#DejaVuSans-30" x="127.246094"/>
       <use xlink:href="#DejaVuSans-30" x="190.869141"/>
       <use xlink:href="#DejaVuSans-30" x="254.492188"/>
       <use xlink:href="#DejaVuSans-30" x="318.115234"/>
      </g>
     </g>
    </g>
    <g id="text_18">
     <!-- Sequence count -->
     <g transform="translate(14.798438 169.038594)rotate(-90)scale(0.1 -0.1)">
      <defs>
       <path id="DejaVuSans-53" d="M 3425 4513 
L 3425 3897 
Q 3066 4069 2747 4153 
Q 2428 4238 2131 4238 
Q 1616 4238 1336 4038 
Q 1056 3838 1056 3469 
Q 1056 3159 1242 3001 
Q 1428 2844 1947 2747 
L 2328 2669 
Q 3034 2534 3370 2195 
Q 3706 1856 3706 1288 
Q 3706 609 3251 259 
Q 2797 -91 1919 -91 
Q 1588 -91 1214 -16 
Q 841 59 441 206 
L 441 856 
Q 825 641 1194 531 
Q 1563 422 1919 422 
Q 2459 422 2753 634 
Q 3047 847 3047 1241 
Q 3047 1584 2836 1778 
Q 2625 1972 2144 2069 
L 1759 2144 
Q 1053 2284 737 2584 
Q 422 2884 422 3419 
Q 422 4038 858 4394 
Q 1294 4750 2059 4750 
Q 2388 4750 2728 4690 
Q 3069 4631 3425 4513 
z
" transform="scale(0.015625)"/>
       <path id="DejaVuSans-71" d="M 947 1747 
Q 947 1113 1208 752 
Q 1469 391 1925 391 
Q 2381 391 2643 752 
Q 2906 1113 2906 1747 
Q 2906 2381 2643 2742 
Q 2381 3103 1925 3103 
Q 1469 3103 1208 2742 
Q 947 2381 947 1747 
z
M 2906 525 
Q 2725 213 2448 61 
Q 2172 -91 1784 -91 
Q 1150 -91 751 415 
Q 353 922 353 1747 
Q 353 2572 751 3078 
Q 1150 3584 1784 3584 
Q 2172 3584 2448 3432 
Q 2725 3281 2906 2969 
L 2906 3500 
L 3481 3500 
L 3481 -1331 
L 2906 -1331 
L 2906 525 
z
" transform="scale(0.015625)"/>
       <path id="DejaVuSans-75" d="M 544 1381 
L 544 3500 
L 1119 3500 
L 1119 1403 
Q 1119 906 1312 657 
Q 1506 409 1894 409 
Q 2359 409 2629 706 
Q 2900 1003 2900 1516 
L 2900 3500 
L 3475 3500 
L 3475 0 
L 2900 0 
L 2900 538 
Q 2691 219 2414 64 
Q 2138 -91 1772 -91 
Q 1169 -91 856 284 
Q 544 659 544 1381 
z
M 1991 3584 
L 1991 3584 
z
" transform="scale(0.015625)"/>
       <path id="DejaVuSans-6e" d="M 3513 2113 
L 3513 0 
L 2938 0 
L 2938 2094 
Q 2938 2591 2744 2837 
Q 2550 3084 2163 3084 
Q 1697 3084 1428 2787 
Q 1159 2491 1159 1978 
L 1159 0 
L 581 0 
L 581 3500 
L 1159 3500 
L 1159 2956 
Q 1366 3272 1645 3428 
Q 1925 3584 2291 3584 
Q 2894 3584 3203 3211 
Q 3513 2838 3513 2113 
z
" transform="scale(0.015625)"/>
       <path id="DejaVuSans-63" d="M 3122 3366 
L 3122 2828 
Q 2878 2963 2633 3030 
Q 2388 3097 2138 3097 
Q 1578 3097 1268 2742 
Q 959 2388 959 1747 
Q 959 1106 1268 751 
Q 1578 397 2138 397 
Q 2388 397 2633 464 
Q 2878 531 3122 666 
L 3122 134 
Q 2881 22 2623 -34 
Q 2366 -91 2075 -91 
Q 1284 -91 818 406 
Q 353 903 353 1747 
Q 353 2603 823 3093 
Q 1294 3584 2113 3584 
Q 2378 3584 2631 3529 
Q 2884 3475 3122 3366 
z
" transform="scale(0.015625)"/>
       <path id="DejaVuSans-20" transform="scale(0.015625)"/>
       <path id="DejaVuSans-6f" d="M 1959 3097 
Q 1497 3097 1228 2736 
Q 959 2375 959 1747 
Q 959 1119 1226 758 
Q 1494 397 1959 397 
Q 2419 397 2687 759 
Q 2956 1122 2956 1747 
Q 2956 2369 2687 2733 
Q 2419 3097 1959 3097 
z
M 1959 3584 
Q 2709 3584 3137 3096 
Q 3566 2609 3566 1747 
Q 3566 888 3137 398 
Q 2709 -91 1959 -91 
Q 1206 -91 779 398 
Q 353 888 353 1747 
Q 353 2609 779 3096 
Q 1206 3584 1959 3584 
z
" transform="scale(0.015625)"/>
      </defs>
      <use xlink:href="#DejaVuSans-53"/>
      <use xlink:href="#DejaVuSans-65" x="63.476562"/>
      <use xlink:href="#DejaVuSans-71" x="125"/>
      <use xlink:href="#DejaVuSans-75" x="188.476562"/>
      <use xlink:href="#DejaVuSans-65" x="251.855469"/>
      <use xlink:href="#DejaVuSans-6e" x="313.378906"/>
      <use xlink:href="#DejaVuSans-63" x="376.757812"/>
      <use xlink:href="#DejaVuSans-65" x="431.738281"/>
      <use xlink:href="#DejaVuSans-20" x="493.261719"/>
      <use xlink:href="#DejaVuSans-63" x="525.048828"/>
      <use xlink:href="#DejaVuSans-6f" x="580.029297"/>
      <use xlink:href="#DejaVuSans-75" x="641.210938"/>
      <use xlink:href="#DejaVuSans-6e" x="704.589844"/>
      <use xlink:href="#DejaVuSans-74" x="767.96875"/>
     </g>
    </g>
   </g>
   <g id="patch_151">
    <path d="M 66.053125 239.558438 
L 66.053125 17.798437 
" style="fill: none; stroke: #000000; stroke-width: 0.8; stroke-linejoin: miter; stroke-linecap: square"/>
   </g>
   <g id="patch_152">
    <path d="M 1182.053125 239.558438 
L 1182.053125 17.798437 
" style="fill: none; stroke: #000000; stroke-width: 0.8; stroke-linejoin: miter; stroke-linecap: square"/>
   </g>
   <g id="patch_153">
    <path d="M 66.053125 239.558438 
L 1182.053125 239.558438 
" style="fill: none; stroke: #000000; stroke-width: 0.8; stroke-linejoin: miter; stroke-linecap: square"/>
   </g>
  </g>
  <g id="axes_2">
   <g id="matplotlib.axis_3">
    <g id="ytick_8">
     <g id="line2d_17">
      <defs>
       <path id="m4f565b4703" d="M 0 0 
L 3.5 0 
" style="stroke: #000000; stroke-width: 0.8"/>
      </defs>
      <g>
       <use xlink:href="#m4f565b4703" x="1182.053125" y="229.478465" style="stroke: #000000; stroke-width: 0.8"/>
      </g>
     </g>
     <g id="text_19">
      <!-- 0 -->
      <g transform="translate(1189.053125 233.277684)scale(0.1 -0.1)">
       <use xlink:href="#DejaVuSans-30"/>
      </g>
     </g>
    </g>
    <g id="ytick_9">
     <g id="line2d_18">
      <g>
       <use xlink:href="#m4f565b4703" x="1182.053125" y="202.087667" style="stroke: #000000; stroke-width: 0.8"/>
      </g>
     </g>
     <g id="text_20">
      <!-- 1 -->
      <g transform="translate(1189.053125 205.886885)scale(0.1 -0.1)">
       <use xlink:href="#DejaVuSans-31"/>
      </g>
     </g>
    </g>
    <g id="ytick_10">
     <g id="line2d_19">
      <g>
       <use xlink:href="#m4f565b4703" x="1182.053125" y="174.696868" style="stroke: #000000; stroke-width: 0.8"/>
      </g>
     </g>
     <g id="text_21">
      <!-- 2 -->
      <g transform="translate(1189.053125 178.496087)scale(0.1 -0.1)">
       <use xlink:href="#DejaVuSans-32"/>
      </g>
     </g>
    </g>
    <g id="ytick_11">
     <g id="line2d_20">
      <g>
       <use xlink:href="#m4f565b4703" x="1182.053125" y="147.30607" style="stroke: #000000; stroke-width: 0.8"/>
      </g>
     </g>
     <g id="text_22">
      <!-- 3 -->
      <g transform="translate(1189.053125 151.105289)scale(0.1 -0.1)">
       <use xlink:href="#DejaVuSans-33"/>
      </g>
     </g>
    </g>
    <g id="ytick_12">
     <g id="line2d_21">
      <g>
       <use xlink:href="#m4f565b4703" x="1182.053125" y="119.915272" style="stroke: #000000; stroke-width: 0.8"/>
      </g>
     </g>
     <g id="text_23">
      <!-- 4 -->
      <g transform="translate(1189.053125 123.714491)scale(0.1 -0.1)">
       <use xlink:href="#DejaVuSans-34"/>
      </g>
     </g>
    </g>
    <g id="ytick_13">
     <g id="line2d_22">
      <g>
       <use xlink:href="#m4f565b4703" x="1182.053125" y="92.524474" style="stroke: #000000; stroke-width: 0.8"/>
      </g>
     </g>
     <g id="text_24">
      <!-- 5 -->
      <g transform="translate(1189.053125 96.323693)scale(0.1 -0.1)">
       <use xlink:href="#DejaVuSans-35"/>
      </g>
     </g>
    </g>
    <g id="ytick_14">
     <g id="line2d_23">
      <g>
       <use xlink:href="#m4f565b4703" x="1182.053125" y="65.133676" style="stroke: #000000; stroke-width: 0.8"/>
      </g>
     </g>
     <g id="text_25">
      <!-- 6 -->
      <g transform="translate(1189.053125 68.932894)scale(0.1 -0.1)">
       <defs>
        <path id="DejaVuSans-36" d="M 2113 2584 
Q 1688 2584 1439 2293 
Q 1191 2003 1191 1497 
Q 1191 994 1439 701 
Q 1688 409 2113 409 
Q 2538 409 2786 701 
Q 3034 994 3034 1497 
Q 3034 2003 2786 2293 
Q 2538 2584 2113 2584 
z
M 3366 4563 
L 3366 3988 
Q 3128 4100 2886 4159 
Q 2644 4219 2406 4219 
Q 1781 4219 1451 3797 
Q 1122 3375 1075 2522 
Q 1259 2794 1537 2939 
Q 1816 3084 2150 3084 
Q 2853 3084 3261 2657 
Q 3669 2231 3669 1497 
Q 3669 778 3244 343 
Q 2819 -91 2113 -91 
Q 1303 -91 875 529 
Q 447 1150 447 2328 
Q 447 3434 972 4092 
Q 1497 4750 2381 4750 
Q 2619 4750 2861 4703 
Q 3103 4656 3366 4563 
z
" transform="scale(0.015625)"/>
       </defs>
       <use xlink:href="#DejaVuSans-36"/>
      </g>
     </g>
    </g>
    <g id="ytick_15">
     <g id="line2d_24">
      <g>
       <use xlink:href="#m4f565b4703" x="1182.053125" y="37.742877" style="stroke: #000000; stroke-width: 0.8"/>
      </g>
     </g>
     <g id="text_26">
      <!-- 7 -->
      <g transform="translate(1189.053125 41.542096)scale(0.1 -0.1)">
       <defs>
        <path id="DejaVuSans-37" d="M 525 4666 
L 3525 4666 
L 3525 4397 
L 1831 0 
L 1172 0 
L 2766 4134 
L 525 4134 
L 525 4666 
z
" transform="scale(0.015625)"/>
       </defs>
       <use xlink:href="#DejaVuSans-37"/>
      </g>
     </g>
    </g>
    <g id="text_27">
     <!-- Total -->
     <g transform="translate(1207.014063 140.355)rotate(-90)scale(0.1 -0.1)">
      <defs>
       <path id="DejaVuSans-54" d="M -19 4666 
L 3928 4666 
L 3928 4134 
L 2272 4134 
L 2272 0 
L 1638 0 
L 1638 4134 
L -19 4134 
L -19 4666 
z
" transform="scale(0.015625)"/>
       <path id="DejaVuSans-6c" d="M 603 4863 
L 1178 4863 
L 1178 0 
L 603 0 
L 603 4863 
z
" transform="scale(0.015625)"/>
      </defs>
      <use xlink:href="#DejaVuSans-54"/>
      <use xlink:href="#DejaVuSans-6f" x="44.083984"/>
      <use xlink:href="#DejaVuSans-74" x="105.265625"/>
      <use xlink:href="#DejaVuSans-61" x="144.474609"/>
      <use xlink:href="#DejaVuSans-6c" x="205.753906"/>
     </g>
    </g>
    <g id="text_28">
     <!-- 1e6 -->
     <g transform="translate(1163.175 14.798437)scale(0.1 -0.1)">
      <use xlink:href="#DejaVuSans-31"/>
      <use xlink:href="#DejaVuSans-65" x="63.623047"/>
      <use xlink:href="#DejaVuSans-36" x="125.146484"/>
     </g>
    </g>
   </g>
   <g id="line2d_25">
    <path d="M 122.176916 229.478438 
L 210.48358 229.387664 
L 217.351877 229.136053 
L 222.257802 228.591469 
L 224.220173 227.926639 
L 226.182543 227.05994 
L 229.126098 225.875698 
L 233.050839 222.942007 
L 234.032024 222.55062 
L 235.013209 222.305445 
L 235.994395 221.74533 
L 238.93795 218.26448 
L 239.919135 217.16096 
L 240.90032 216.525849 
L 241.881506 216.084337 
L 242.862691 215.282252 
L 244.825061 212.244065 
L 246.787431 209.905055 
L 247.768616 208.887432 
L 249.730987 207.576618 
L 251.693357 204.86041 
L 254.636913 201.540755 
L 256.599283 200.119638 
L 259.542838 195.896525 
L 261.505209 193.712492 
L 263.467579 192.300578 
L 264.448764 190.865054 
L 266.411134 188.622843 
L 267.39232 187.610589 
L 268.373505 186.764213 
L 270.335875 185.373281 
L 271.31706 183.907682 
L 274.260616 180.604351 
L 275.241801 179.671229 
L 277.204171 178.243539 
L 278.185356 176.836282 
L 279.166542 175.698988 
L 282.110097 172.959114 
L 284.072467 171.680046 
L 285.053653 170.396705 
L 287.016023 168.497317 
L 288.978393 166.829026 
L 290.940763 165.70614 
L 291.921949 164.519954 
L 293.884319 162.793786 
L 295.846689 161.55312 
L 297.80906 160.730437 
L 298.790245 159.879049 
L 302.714985 157.119098 
L 304.677356 156.099804 
L 305.658541 154.961442 
L 309.583281 152.200806 
L 311.545652 151.207259 
L 312.526837 150.104342 
L 315.470392 147.847614 
L 317.432763 146.713717 
L 318.413948 146.251771 
L 319.395133 145.234066 
L 322.338689 143.139327 
L 324.301059 141.983271 
L 325.282244 141.516176 
L 326.263429 140.302353 
L 327.244614 139.674117 
L 330.18817 138.307563 
L 332.15054 137.685272 
L 333.131725 136.853605 
L 336.075281 135.294356 
L 338.037651 134.510596 
L 339.018836 134.191055 
L 340.000021 133.355115 
L 341.962392 132.359733 
L 343.924762 131.563894 
L 346.868318 130.523153 
L 347.849503 129.788094 
L 350.793058 128.365552 
L 352.755428 127.757203 
L 353.736614 127.06553 
L 355.698984 126.128025 
L 357.661354 125.396527 
L 359.623725 124.904944 
L 360.60491 124.302812 
L 362.56728 123.445343 
L 365.510836 122.383539 
L 366.492021 122.137953 
L 367.473206 121.460661 
L 370.416761 120.16987 
L 372.379132 119.524241 
L 373.360317 119.282325 
L 374.341502 118.6837 
L 376.303872 117.853594 
L 379.247428 116.916719 
L 380.228613 116.67579 
L 382.190983 115.673807 
L 384.153354 114.971096 
L 385.134539 114.624958 
L 387.096909 114.183611 
L 392.002835 112.106347 
L 393.965205 111.647195 
L 394.94639 111.187194 
L 395.927576 110.575832 
L 398.871131 109.328235 
L 400.833501 108.81926 
L 401.814686 108.197434 
L 405.739427 106.44204 
L 407.701797 105.934023 
L 409.664168 104.718665 
L 411.626538 103.737554 
L 412.607723 103.317434 
L 414.570094 102.75743 
L 415.551279 101.983256 
L 418.494834 100.397493 
L 419.476019 99.919989 
L 421.43839 99.289398 
L 426.344315 96.362582 
L 428.306686 95.703943 
L 429.287871 94.8863 
L 431.250241 93.731066 
L 433.212612 92.732836 
L 435.174982 92.065897 
L 437.137352 90.681922 
L 440.080908 89.233853 
L 442.043278 88.665439 
L 443.024463 88.003513 
L 444.986833 87.069569 
L 446.949204 86.292629 
L 448.911574 85.758591 
L 450.873944 84.647784 
L 453.8175 83.532157 
L 455.77987 83.101354 
L 457.742241 82.185872 
L 460.685796 81.156936 
L 462.648166 80.712219 
L 465.591722 79.486317 
L 467.554092 78.82902 
L 469.516462 78.418404 
L 471.478833 77.560525 
L 475.403573 76.44802 
L 476.384759 76.252915 
L 477.365944 75.792366 
L 479.328314 75.183195 
L 481.290684 74.645295 
L 483.253055 74.253935 
L 487.177795 72.964623 
L 489.140166 72.523193 
L 490.121351 72.360108 
L 491.102536 71.886767 
L 494.046091 70.981392 
L 496.008462 70.53043 
L 496.989647 70.358251 
L 498.952017 69.618508 
L 501.895573 68.809302 
L 503.857943 68.480174 
L 504.839128 68.042222 
L 507.782684 67.249615 
L 509.745054 66.87217 
L 510.726239 66.719658 
L 512.688609 65.990679 
L 515.632165 65.227407 
L 517.594535 64.925204 
L 519.556906 64.195376 
L 522.500461 63.410192 
L 524.462831 63.105661 
L 525.444017 62.693347 
L 528.387572 61.935581 
L 530.349942 61.579336 
L 531.331127 61.437068 
L 533.293498 60.739863 
L 536.237053 60.026771 
L 538.199424 59.750425 
L 541.142979 58.939274 
L 546.048905 57.805651 
L 548.99246 57.007565 
L 550.954831 56.626148 
L 551.936016 56.477444 
L 553.898386 55.842142 
L 556.841942 55.072816 
L 558.804312 54.790828 
L 559.785497 54.374378 
L 561.747867 53.834095 
L 565.672608 52.990458 
L 566.653793 52.489891 
L 570.578534 51.266262 
L 572.540904 50.958664 
L 573.522089 50.457686 
L 577.44683 49.25827 
L 579.4092 48.923363 
L 580.390385 48.426056 
L 583.333941 47.490003 
L 585.296311 47.051229 
L 586.277496 46.890308 
L 587.258682 46.395247 
L 590.202237 45.546105 
L 592.164607 45.192681 
L 593.145792 45.107688 
L 597.070533 43.952974 
L 599.032903 43.597277 
L 600.014089 43.502505 
L 603.938829 42.429032 
L 605.9012 42.096973 
L 606.882385 41.995819 
L 609.82594 41.322499 
L 612.769496 40.906432 
L 613.750681 40.830313 
L 615.713051 40.444706 
L 618.656607 40.047704 
L 621.600162 39.732107 
L 626.506088 39.196945 
L 628.468458 38.981544 
L 633.374384 38.501548 
L 635.336754 38.308004 
L 640.24268 37.897718 
L 643.186236 37.653693 
L 651.035717 37.097934 
L 660.847568 36.61298 
L 668.69705 36.312585 
L 674.584161 36.099128 
L 690.283123 35.742747 
L 705.982086 35.531207 
L 731.4929 35.346922 
L 779.570973 35.216158 
L 896.332007 34.91045 
L 916.936895 34.674368 
L 929.692302 34.385231 
L 931.654672 34.246469 
L 943.428894 33.721306 
L 946.37245 33.497331 
L 965.014968 32.427583 
L 974.826819 31.836134 
L 1009.1683 30.225719 
L 1029.773188 29.600141 
L 1059.208743 29.029043 
L 1074.907706 28.761161 
L 1114.155112 27.970772 
L 1130.83526 27.878437 
L 1130.83526 27.878437 
" clip-path="url(#p459a800424)" style="fill: none; stroke: #696969; stroke-width: 3; stroke-linecap: square"/>
   </g>
   <g id="patch_154">
    <path d="M 66.053125 239.558438 
L 66.053125 17.798437 
" style="fill: none; stroke: #000000; stroke-width: 0.8; stroke-linejoin: miter; stroke-linecap: square"/>
   </g>
   <g id="patch_155">
    <path d="M 1182.053125 239.558438 
L 1182.053125 17.798437 
" style="fill: none; stroke: #000000; stroke-width: 0.8; stroke-linejoin: miter; stroke-linecap: square"/>
   </g>
   <g id="patch_156">
    <path d="M 66.053125 239.558438 
L 1182.053125 239.558438 
" style="fill: none; stroke: #000000; stroke-width: 0.8; stroke-linejoin: miter; stroke-linecap: square"/>
   </g>
  </g>
 </g>
 <defs>
  <clipPath id="p459a800424">
   <rect x="66.053125" y="17.798437" width="1116" height="221.76"/>
  </clipPath>
 </defs>
</svg>
