<?xml version="1.0" encoding="utf-8" standalone="no"?>
<!DOCTYPE svg PUBLIC "-//W3C//DTD SVG 1.1//EN"
  "http://www.w3.org/Graphics/SVG/1.1/DTD/svg11.dtd">
<svg xmlns:xlink="http://www.w3.org/1999/xlink" width="1219.471875pt" height="309.219375pt" viewBox="0 0 1219.471875 309.219375" xmlns="http://www.w3.org/2000/svg" version="1.1">
 <metadata>
  <rdf:RDF xmlns:dc="http://purl.org/dc/elements/1.1/" xmlns:cc="http://creativecommons.org/ns#" xmlns:rdf="http://www.w3.org/1999/02/22-rdf-syntax-ns#">
   <cc:Work>
    <dc:type rdf:resource="http://purl.org/dc/dcmitype/StillImage"/>
    <dc:date>2024-02-22T21:56:58.296869</dc:date>
    <dc:format>image/svg+xml</dc:format>
    <dc:creator>
     <cc:Agent>
      <dc:title>Matplotlib v3.5.3, https://matplotlib.org/</dc:title>
     </cc:Agent>
    </dc:creator>
   </cc:Work>
  </rdf:RDF>
 </metadata>
 <defs>
  <style type="text/css">*{stroke-linejoin: round; stroke-linecap: butt}</style>
 </defs>
 <g id="figure_1">
  <g id="patch_1">
   <path d="M 0 309.219375 
L 1219.471875 309.219375 
L 1219.471875 0 
L 0 0 
z
" style="fill: #ffffff"/>
  </g>
  <g id="axes_1">
   <g id="patch_2">
    <path d="M 59.690625 239.558438 
L 1175.690625 239.558438 
L 1175.690625 17.798437 
L 59.690625 17.798437 
z
" style="fill: #ffffff"/>
   </g>
   <g id="patch_3">
    <path d="M 110.417898 239.558438 
L 114.781534 239.558438 
L 114.781534 239.544224 
L 110.417898 239.544224 
z
" clip-path="url(#pcbcbdd8f8f)" style="fill: #86b0a6"/>
   </g>
   <g id="patch_4">
    <path d="M 116.526989 239.558438 
L 120.890625 239.558438 
L 120.890625 239.547067 
L 116.526989 239.547067 
z
" clip-path="url(#pcbcbdd8f8f)" style="fill: #86b0a6"/>
   </g>
   <g id="patch_5">
    <path d="M 122.63608 239.558438 
L 126.999716 239.558438 
L 126.999716 239.538539 
L 122.63608 239.538539 
z
" clip-path="url(#pcbcbdd8f8f)" style="fill: #86b0a6"/>
   </g>
   <g id="patch_6">
    <path d="M 128.74517 239.558438 
L 133.108807 239.558438 
L 133.108807 239.524325 
L 128.74517 239.524325 
z
" clip-path="url(#pcbcbdd8f8f)" style="fill: #86b0a6"/>
   </g>
   <g id="patch_7">
    <path d="M 134.854261 239.558438 
L 139.217898 239.558438 
L 139.217898 239.541381 
L 134.854261 239.541381 
z
" clip-path="url(#pcbcbdd8f8f)" style="fill: #86b0a6"/>
   </g>
   <g id="patch_8">
    <path d="M 140.963352 239.558438 
L 145.326989 239.558438 
L 145.326989 239.535696 
L 140.963352 239.535696 
z
" clip-path="url(#pcbcbdd8f8f)" style="fill: #86b0a6"/>
   </g>
   <g id="patch_9">
    <path d="M 147.072443 239.558438 
L 151.43608 239.558438 
L 151.43608 239.527168 
L 147.072443 239.527168 
z
" clip-path="url(#pcbcbdd8f8f)" style="fill: #86b0a6"/>
   </g>
   <g id="patch_10">
    <path d="M 153.181534 239.558438 
L 157.54517 239.558438 
L 157.54517 239.453258 
L 153.181534 239.453258 
z
" clip-path="url(#pcbcbdd8f8f)" style="fill: #86b0a6"/>
   </g>
   <g id="patch_11">
    <path d="M 159.290625 239.558438 
L 163.654261 239.558438 
L 163.654261 239.441887 
L 159.290625 239.441887 
z
" clip-path="url(#pcbcbdd8f8f)" style="fill: #86b0a6"/>
   </g>
   <g id="patch_12">
    <path d="M 165.399716 239.558438 
L 169.763352 239.558438 
L 169.763352 238.913148 
L 165.399716 238.913148 
z
" clip-path="url(#pcbcbdd8f8f)" style="fill: #86b0a6"/>
   </g>
   <g id="patch_13">
    <path d="M 171.508807 239.558438 
L 175.872443 239.558438 
L 175.872443 237.574245 
L 171.508807 237.574245 
z
" clip-path="url(#pcbcbdd8f8f)" style="fill: #86b0a6"/>
   </g>
   <g id="patch_14">
    <path d="M 177.617898 239.558438 
L 181.981534 239.558438 
L 181.981534 237.958007 
L 177.617898 237.958007 
z
" clip-path="url(#pcbcbdd8f8f)" style="fill: #86b0a6"/>
   </g>
   <g id="patch_15">
    <path d="M 183.726989 239.558438 
L 188.090625 239.558438 
L 188.090625 237.605514 
L 183.726989 237.605514 
z
" clip-path="url(#pcbcbdd8f8f)" style="fill: #86b0a6"/>
   </g>
   <g id="patch_16">
    <path d="M 189.83608 239.558438 
L 194.199716 239.558438 
L 194.199716 237.838614 
L 189.83608 237.838614 
z
" clip-path="url(#pcbcbdd8f8f)" style="fill: #86b0a6"/>
   </g>
   <g id="patch_17">
    <path d="M 195.94517 239.558438 
L 200.308807 239.558438 
L 200.308807 231.92299 
L 195.94517 231.92299 
z
" clip-path="url(#pcbcbdd8f8f)" style="fill: #86b0a6"/>
   </g>
   <g id="patch_18">
    <path d="M 202.054261 239.558438 
L 206.417898 239.558438 
L 206.417898 223.289761 
L 202.054261 223.289761 
z
" clip-path="url(#pcbcbdd8f8f)" style="fill: #86b0a6"/>
   </g>
   <g id="patch_19">
    <path d="M 208.163352 239.558438 
L 212.526989 239.558438 
L 212.526989 226.575903 
L 208.163352 226.575903 
z
" clip-path="url(#pcbcbdd8f8f)" style="fill: #86b0a6"/>
   </g>
   <g id="patch_20">
    <path d="M 214.272443 239.558438 
L 218.63608 239.558438 
L 218.63608 216.404782 
L 214.272443 216.404782 
z
" clip-path="url(#pcbcbdd8f8f)" style="fill: #86b0a6"/>
   </g>
   <g id="patch_21">
    <path d="M 220.381534 239.558438 
L 224.74517 239.558438 
L 224.74517 206.043201 
L 220.381534 206.043201 
z
" clip-path="url(#pcbcbdd8f8f)" style="fill: #86b0a6"/>
   </g>
   <g id="patch_22">
    <path d="M 226.490625 239.558438 
L 230.854261 239.558438 
L 230.854261 195.97726 
L 226.490625 195.97726 
z
" clip-path="url(#pcbcbdd8f8f)" style="fill: #86b0a6"/>
   </g>
   <g id="patch_23">
    <path d="M 232.599716 239.558438 
L 236.963352 239.558438 
L 236.963352 190.544892 
L 232.599716 190.544892 
z
" clip-path="url(#pcbcbdd8f8f)" style="fill: #86b0a6"/>
   </g>
   <g id="patch_24">
    <path d="M 238.708807 239.558438 
L 243.072443 239.558438 
L 243.072443 167.052957 
L 238.708807 167.052957 
z
" clip-path="url(#pcbcbdd8f8f)" style="fill: #86b0a6"/>
   </g>
   <g id="patch_25">
    <path d="M 244.817898 239.558438 
L 249.181534 239.558438 
L 249.181534 177.988759 
L 244.817898 177.988759 
z
" clip-path="url(#pcbcbdd8f8f)" style="fill: #86b0a6"/>
   </g>
   <g id="patch_26">
    <path d="M 250.926989 239.558438 
L 255.290625 239.558438 
L 255.290625 160.014473 
L 250.926989 160.014473 
z
" clip-path="url(#pcbcbdd8f8f)" style="fill: #86b0a6"/>
   </g>
   <g id="patch_27">
    <path d="M 257.03608 239.558438 
L 261.399716 239.558438 
L 261.399716 145.263789 
L 257.03608 145.263789 
z
" clip-path="url(#pcbcbdd8f8f)" style="fill: #86b0a6"/>
   </g>
   <g id="patch_28">
    <path d="M 263.14517 239.558438 
L 267.508807 239.558438 
L 267.508807 126.607258 
L 263.14517 126.607258 
z
" clip-path="url(#pcbcbdd8f8f)" style="fill: #86b0a6"/>
   </g>
   <g id="patch_29">
    <path d="M 269.254261 239.558438 
L 273.617898 239.558438 
L 273.617898 112.968064 
L 269.254261 112.968064 
z
" clip-path="url(#pcbcbdd8f8f)" style="fill: #86b0a6"/>
   </g>
   <g id="patch_30">
    <path d="M 275.363352 239.558438 
L 279.726989 239.558438 
L 279.726989 82.562723 
L 275.363352 82.562723 
z
" clip-path="url(#pcbcbdd8f8f)" style="fill: #86b0a6"/>
   </g>
   <g id="patch_31">
    <path d="M 281.472443 239.558438 
L 285.83608 239.558438 
L 285.83608 57.86549 
L 281.472443 57.86549 
z
" clip-path="url(#pcbcbdd8f8f)" style="fill: #86b0a6"/>
   </g>
   <g id="patch_32">
    <path d="M 287.581534 239.558438 
L 291.94517 239.558438 
L 291.94517 41.352343 
L 287.581534 41.352343 
z
" clip-path="url(#pcbcbdd8f8f)" style="fill: #86b0a6"/>
   </g>
   <g id="patch_33">
    <path d="M 293.690625 239.558438 
L 298.054261 239.558438 
L 298.054261 44.33716 
L 293.690625 44.33716 
z
" clip-path="url(#pcbcbdd8f8f)" style="fill: #86b0a6"/>
   </g>
   <g id="patch_34">
    <path d="M 299.799716 239.558438 
L 304.163352 239.558438 
L 304.163352 44.487823 
L 299.799716 44.487823 
z
" clip-path="url(#pcbcbdd8f8f)" style="fill: #86b0a6"/>
   </g>
   <g id="patch_35">
    <path d="M 305.908807 239.558438 
L 310.272443 239.558438 
L 310.272443 28.358437 
L 305.908807 28.358437 
z
" clip-path="url(#pcbcbdd8f8f)" style="fill: #86b0a6"/>
   </g>
   <g id="patch_36">
    <path d="M 312.017898 239.558438 
L 316.381534 239.558438 
L 316.381534 38.890579 
L 312.017898 38.890579 
z
" clip-path="url(#pcbcbdd8f8f)" style="fill: #86b0a6"/>
   </g>
   <g id="patch_37">
    <path d="M 318.126989 239.558438 
L 322.490625 239.558438 
L 322.490625 36.468613 
L 318.126989 36.468613 
z
" clip-path="url(#pcbcbdd8f8f)" style="fill: #86b0a6"/>
   </g>
   <g id="patch_38">
    <path d="M 324.23608 239.558438 
L 328.599716 239.558438 
L 328.599716 51.713924 
L 324.23608 51.713924 
z
" clip-path="url(#pcbcbdd8f8f)" style="fill: #86b0a6"/>
   </g>
   <g id="patch_39">
    <path d="M 330.34517 239.558438 
L 334.708807 239.558438 
L 334.708807 82.099366 
L 330.34517 82.099366 
z
" clip-path="url(#pcbcbdd8f8f)" style="fill: #86b0a6"/>
   </g>
   <g id="patch_40">
    <path d="M 336.454261 239.558438 
L 340.817898 239.558438 
L 340.817898 103.521827 
L 336.454261 103.521827 
z
" clip-path="url(#pcbcbdd8f8f)" style="fill: #86b0a6"/>
   </g>
   <g id="patch_41">
    <path d="M 342.563352 239.558438 
L 346.926989 239.558438 
L 346.926989 133.370002 
L 342.563352 133.370002 
z
" clip-path="url(#pcbcbdd8f8f)" style="fill: #86b0a6"/>
   </g>
   <g id="patch_42">
    <path d="M 348.672443 239.558438 
L 353.03608 239.558438 
L 353.03608 158.556176 
L 348.672443 158.556176 
z
" clip-path="url(#pcbcbdd8f8f)" style="fill: #86b0a6"/>
   </g>
   <g id="patch_43">
    <path d="M 354.781534 239.558438 
L 359.14517 239.558438 
L 359.14517 172.468268 
L 354.781534 172.468268 
z
" clip-path="url(#pcbcbdd8f8f)" style="fill: #86b0a6"/>
   </g>
   <g id="patch_44">
    <path d="M 360.890625 239.558438 
L 365.254261 239.558438 
L 365.254261 193.458642 
L 360.890625 193.458642 
z
" clip-path="url(#pcbcbdd8f8f)" style="fill: #86b0a6"/>
   </g>
   <g id="patch_45">
    <path d="M 366.999716 239.558438 
L 371.363352 239.558438 
L 371.363352 202.902036 
L 366.999716 202.902036 
z
" clip-path="url(#pcbcbdd8f8f)" style="fill: #86b0a6"/>
   </g>
   <g id="patch_46">
    <path d="M 373.108807 239.558438 
L 377.472443 239.558438 
L 377.472443 212.066847 
L 373.108807 212.066847 
z
" clip-path="url(#pcbcbdd8f8f)" style="fill: #86b0a6"/>
   </g>
   <g id="patch_47">
    <path d="M 379.217898 239.558438 
L 383.581534 239.558438 
L 383.581534 215.901627 
L 379.217898 215.901627 
z
" clip-path="url(#pcbcbdd8f8f)" style="fill: #86b0a6"/>
   </g>
   <g id="patch_48">
    <path d="M 385.326989 239.558438 
L 389.690625 239.558438 
L 389.690625 221.686487 
L 385.326989 221.686487 
z
" clip-path="url(#pcbcbdd8f8f)" style="fill: #86b0a6"/>
   </g>
   <g id="patch_49">
    <path d="M 391.43608 239.558438 
L 395.799716 239.558438 
L 395.799716 225.379133 
L 391.43608 225.379133 
z
" clip-path="url(#pcbcbdd8f8f)" style="fill: #86b0a6"/>
   </g>
   <g id="patch_50">
    <path d="M 397.54517 239.558438 
L 401.908807 239.558438 
L 401.908807 227.619168 
L 397.54517 227.619168 
z
" clip-path="url(#pcbcbdd8f8f)" style="fill: #86b0a6"/>
   </g>
   <g id="patch_51">
    <path d="M 403.654261 239.558438 
L 408.017898 239.558438 
L 408.017898 233.386972 
L 403.654261 233.386972 
z
" clip-path="url(#pcbcbdd8f8f)" style="fill: #86b0a6"/>
   </g>
   <g id="patch_52">
    <path d="M 409.763352 239.558438 
L 414.126989 239.558438 
L 414.126989 231.18105 
L 409.763352 231.18105 
z
" clip-path="url(#pcbcbdd8f8f)" style="fill: #86b0a6"/>
   </g>
   <g id="patch_53">
    <path d="M 415.872443 239.558438 
L 420.23608 239.558438 
L 420.23608 236.562249 
L 415.872443 236.562249 
z
" clip-path="url(#pcbcbdd8f8f)" style="fill: #86b0a6"/>
   </g>
   <g id="patch_54">
    <path d="M 421.981534 239.558438 
L 426.34517 239.558438 
L 426.34517 237.827243 
L 421.981534 237.827243 
z
" clip-path="url(#pcbcbdd8f8f)" style="fill: #86b0a6"/>
   </g>
   <g id="patch_55">
    <path d="M 428.090625 239.558438 
L 432.454261 239.558438 
L 432.454261 238.495274 
L 428.090625 238.495274 
z
" clip-path="url(#pcbcbdd8f8f)" style="fill: #86b0a6"/>
   </g>
   <g id="patch_56">
    <path d="M 434.199716 239.558438 
L 438.563352 239.558438 
L 438.563352 238.972845 
L 434.199716 238.972845 
z
" clip-path="url(#pcbcbdd8f8f)" style="fill: #86b0a6"/>
   </g>
   <g id="patch_57">
    <path d="M 440.308807 239.558438 
L 444.672443 239.558438 
L 444.672443 239.180361 
L 440.308807 239.180361 
z
" clip-path="url(#pcbcbdd8f8f)" style="fill: #86b0a6"/>
   </g>
   <g id="patch_58">
    <path d="M 446.417898 239.558438 
L 450.781534 239.558438 
L 450.781534 239.367978 
L 446.417898 239.367978 
z
" clip-path="url(#pcbcbdd8f8f)" style="fill: #86b0a6"/>
   </g>
   <g id="patch_59">
    <path d="M 452.526989 239.558438 
L 456.890625 239.558438 
L 456.890625 239.413461 
L 452.526989 239.413461 
z
" clip-path="url(#pcbcbdd8f8f)" style="fill: #86b0a6"/>
   </g>
   <g id="patch_60">
    <path d="M 458.63608 239.558438 
L 462.999716 239.558438 
L 462.999716 239.407775 
L 458.63608 239.407775 
z
" clip-path="url(#pcbcbdd8f8f)" style="fill: #86b0a6"/>
   </g>
   <g id="patch_61">
    <path d="M 464.74517 239.558438 
L 469.108807 239.558438 
L 469.108807 239.339551 
L 464.74517 239.339551 
z
" clip-path="url(#pcbcbdd8f8f)" style="fill: #86b0a6"/>
   </g>
   <g id="patch_62">
    <path d="M 470.854261 239.558438 
L 475.217898 239.558438 
L 475.217898 239.476 
L 470.854261 239.476 
z
" clip-path="url(#pcbcbdd8f8f)" style="fill: #86b0a6"/>
   </g>
   <g id="patch_63">
    <path d="M 476.963352 239.558438 
L 481.326989 239.558438 
L 481.326989 239.510112 
L 476.963352 239.510112 
z
" clip-path="url(#pcbcbdd8f8f)" style="fill: #86b0a6"/>
   </g>
   <g id="patch_64">
    <path d="M 483.072443 239.558438 
L 487.43608 239.558438 
L 487.43608 239.535696 
L 483.072443 239.535696 
z
" clip-path="url(#pcbcbdd8f8f)" style="fill: #86b0a6"/>
   </g>
   <g id="patch_65">
    <path d="M 489.181534 239.558438 
L 493.54517 239.558438 
L 493.54517 239.510112 
L 489.181534 239.510112 
z
" clip-path="url(#pcbcbdd8f8f)" style="fill: #86b0a6"/>
   </g>
   <g id="patch_66">
    <path d="M 495.290625 239.558438 
L 499.654261 239.558438 
L 499.654261 239.535696 
L 495.290625 239.535696 
z
" clip-path="url(#pcbcbdd8f8f)" style="fill: #86b0a6"/>
   </g>
   <g id="patch_67">
    <path d="M 501.399716 239.558438 
L 505.763352 239.558438 
L 505.763352 239.521483 
L 501.399716 239.521483 
z
" clip-path="url(#pcbcbdd8f8f)" style="fill: #86b0a6"/>
   </g>
   <g id="patch_68">
    <path d="M 507.508807 239.558438 
L 511.872443 239.558438 
L 511.872443 239.48737 
L 507.508807 239.48737 
z
" clip-path="url(#pcbcbdd8f8f)" style="fill: #86b0a6"/>
   </g>
   <g id="patch_69">
    <path d="M 513.617898 239.558438 
L 517.981534 239.558438 
L 517.981534 239.521483 
L 513.617898 239.521483 
z
" clip-path="url(#pcbcbdd8f8f)" style="fill: #86b0a6"/>
   </g>
   <g id="patch_70">
    <path d="M 519.726989 239.558438 
L 524.090625 239.558438 
L 524.090625 239.512955 
L 519.726989 239.512955 
z
" clip-path="url(#pcbcbdd8f8f)" style="fill: #86b0a6"/>
   </g>
   <g id="patch_71">
    <path d="M 525.83608 239.558438 
L 530.199716 239.558438 
L 530.199716 239.532853 
L 525.83608 239.532853 
z
" clip-path="url(#pcbcbdd8f8f)" style="fill: #86b0a6"/>
   </g>
   <g id="patch_72">
    <path d="M 531.94517 239.558438 
L 536.308807 239.558438 
L 536.308807 239.552752 
L 531.94517 239.552752 
z
" clip-path="url(#pcbcbdd8f8f)" style="fill: #86b0a6"/>
   </g>
   <g id="patch_73">
    <path d="M 538.054261 239.558438 
L 542.417898 239.558438 
L 542.417898 239.544224 
L 538.054261 239.544224 
z
" clip-path="url(#pcbcbdd8f8f)" style="fill: #86b0a6"/>
   </g>
   <g id="patch_74">
    <path d="M 544.163352 239.558438 
L 548.526989 239.558438 
L 548.526989 239.549909 
L 544.163352 239.549909 
z
" clip-path="url(#pcbcbdd8f8f)" style="fill: #86b0a6"/>
   </g>
   <g id="patch_75">
    <path d="M 550.272443 239.558438 
L 554.63608 239.558438 
L 554.63608 239.552752 
L 550.272443 239.552752 
z
" clip-path="url(#pcbcbdd8f8f)" style="fill: #86b0a6"/>
   </g>
   <g id="patch_76">
    <path d="M 556.381534 239.558438 
L 560.74517 239.558438 
L 560.74517 239.552752 
L 556.381534 239.552752 
z
" clip-path="url(#pcbcbdd8f8f)" style="fill: #86b0a6"/>
   </g>
   <g id="patch_77">
    <path d="M 562.490625 239.558438 
L 566.854261 239.558438 
L 566.854261 239.547067 
L 562.490625 239.547067 
z
" clip-path="url(#pcbcbdd8f8f)" style="fill: #86b0a6"/>
   </g>
   <g id="patch_78">
    <path d="M 568.599716 239.558438 
L 572.963352 239.558438 
L 572.963352 239.544224 
L 568.599716 239.544224 
z
" clip-path="url(#pcbcbdd8f8f)" style="fill: #86b0a6"/>
   </g>
   <g id="patch_79">
    <path d="M 574.708807 239.558438 
L 579.072443 239.558438 
L 579.072443 239.552752 
L 574.708807 239.552752 
z
" clip-path="url(#pcbcbdd8f8f)" style="fill: #86b0a6"/>
   </g>
   <g id="patch_80">
    <path d="M 580.817898 239.558438 
L 585.181534 239.558438 
L 585.181534 239.552752 
L 580.817898 239.552752 
z
" clip-path="url(#pcbcbdd8f8f)" style="fill: #86b0a6"/>
   </g>
   <g id="patch_81">
    <path d="M 586.926989 239.558438 
L 591.290625 239.558438 
L 591.290625 239.555595 
L 586.926989 239.555595 
z
" clip-path="url(#pcbcbdd8f8f)" style="fill: #86b0a6"/>
   </g>
   <g id="patch_82">
    <path d="M 593.03608 239.558438 
L 597.399716 239.558438 
L 597.399716 239.549909 
L 593.03608 239.549909 
z
" clip-path="url(#pcbcbdd8f8f)" style="fill: #86b0a6"/>
   </g>
   <g id="patch_83">
    <path d="M 599.14517 239.558438 
L 603.508807 239.558438 
L 603.508807 239.555595 
L 599.14517 239.555595 
z
" clip-path="url(#pcbcbdd8f8f)" style="fill: #86b0a6"/>
   </g>
   <g id="patch_84">
    <path d="M 605.254261 239.558438 
L 609.617898 239.558438 
L 609.617898 239.549909 
L 605.254261 239.549909 
z
" clip-path="url(#pcbcbdd8f8f)" style="fill: #86b0a6"/>
   </g>
   <g id="patch_85">
    <path d="M 611.363352 239.558438 
L 615.726989 239.558438 
L 615.726989 239.555595 
L 611.363352 239.555595 
z
" clip-path="url(#pcbcbdd8f8f)" style="fill: #86b0a6"/>
   </g>
   <g id="patch_86">
    <path d="M 635.799716 239.558438 
L 640.163352 239.558438 
L 640.163352 239.555595 
L 635.799716 239.555595 
z
" clip-path="url(#pcbcbdd8f8f)" style="fill: #86b0a6"/>
   </g>
   <g id="patch_87">
    <path d="M 641.908807 239.558438 
L 646.272443 239.558438 
L 646.272443 239.555595 
L 641.908807 239.555595 
z
" clip-path="url(#pcbcbdd8f8f)" style="fill: #86b0a6"/>
   </g>
   <g id="patch_88">
    <path d="M 648.017898 239.558438 
L 652.381534 239.558438 
L 652.381534 239.555595 
L 648.017898 239.555595 
z
" clip-path="url(#pcbcbdd8f8f)" style="fill: #86b0a6"/>
   </g>
   <g id="patch_89">
    <path d="M 654.126989 239.558438 
L 658.490625 239.558438 
L 658.490625 239.544224 
L 654.126989 239.544224 
z
" clip-path="url(#pcbcbdd8f8f)" style="fill: #86b0a6"/>
   </g>
   <g id="patch_90">
    <path d="M 660.23608 239.558438 
L 664.599716 239.558438 
L 664.599716 239.541381 
L 660.23608 239.541381 
z
" clip-path="url(#pcbcbdd8f8f)" style="fill: #86b0a6"/>
   </g>
   <g id="patch_91">
    <path d="M 672.454261 239.558438 
L 676.817898 239.558438 
L 676.817898 239.555595 
L 672.454261 239.555595 
z
" clip-path="url(#pcbcbdd8f8f)" style="fill: #86b0a6"/>
   </g>
   <g id="patch_92">
    <path d="M 715.217898 239.558438 
L 719.581534 239.558438 
L 719.581534 239.555595 
L 715.217898 239.555595 
z
" clip-path="url(#pcbcbdd8f8f)" style="fill: #86b0a6"/>
   </g>
   <g id="patch_93">
    <path d="M 757.981534 239.558438 
L 762.34517 239.558438 
L 762.34517 239.555595 
L 757.981534 239.555595 
z
" clip-path="url(#pcbcbdd8f8f)" style="fill: #86b0a6"/>
   </g>
   <g id="patch_94">
    <path d="M 819.072443 239.558438 
L 823.43608 239.558438 
L 823.43608 239.555595 
L 819.072443 239.555595 
z
" clip-path="url(#pcbcbdd8f8f)" style="fill: #86b0a6"/>
   </g>
   <g id="patch_95">
    <path d="M 1106.199716 239.558438 
L 1110.563352 239.558438 
L 1110.563352 239.555595 
L 1106.199716 239.555595 
z
" clip-path="url(#pcbcbdd8f8f)" style="fill: #86b0a6"/>
   </g>
   <g id="patch_96">
    <path d="M 1118.417898 239.558438 
L 1122.781534 239.558438 
L 1122.781534 239.555595 
L 1118.417898 239.555595 
z
" clip-path="url(#pcbcbdd8f8f)" style="fill: #86b0a6"/>
   </g>
   <g id="matplotlib.axis_1">
    <g id="xtick_1">
     <g id="line2d_1">
      <defs>
       <path id="ma07abe307b" d="M 0 0 
L 0 3.5 
" style="stroke: #000000; stroke-width: 0.8"/>
      </defs>
      <g>
       <use xlink:href="#ma07abe307b" x="114.34517" y="239.558438" style="stroke: #000000; stroke-width: 0.8"/>
      </g>
     </g>
     <g id="text_1">
      <!-- 2020-09 -->
      <g transform="translate(117.104545 288.34125)rotate(-90)scale(0.1 -0.1)">
       <defs>
        <path id="DejaVuSans-32" d="M 1228 531 
L 3431 531 
L 3431 0 
L 469 0 
L 469 531 
Q 828 903 1448 1529 
Q 2069 2156 2228 2338 
Q 2531 2678 2651 2914 
Q 2772 3150 2772 3378 
Q 2772 3750 2511 3984 
Q 2250 4219 1831 4219 
Q 1534 4219 1204 4116 
Q 875 4013 500 3803 
L 500 4441 
Q 881 4594 1212 4672 
Q 1544 4750 1819 4750 
Q 2544 4750 2975 4387 
Q 3406 4025 3406 3419 
Q 3406 3131 3298 2873 
Q 3191 2616 2906 2266 
Q 2828 2175 2409 1742 
Q 1991 1309 1228 531 
z
" transform="scale(0.015625)"/>
        <path id="DejaVuSans-30" d="M 2034 4250 
Q 1547 4250 1301 3770 
Q 1056 3291 1056 2328 
Q 1056 1369 1301 889 
Q 1547 409 2034 409 
Q 2525 409 2770 889 
Q 3016 1369 3016 2328 
Q 3016 3291 2770 3770 
Q 2525 4250 2034 4250 
z
M 2034 4750 
Q 2819 4750 3233 4129 
Q 3647 3509 3647 2328 
Q 3647 1150 3233 529 
Q 2819 -91 2034 -91 
Q 1250 -91 836 529 
Q 422 1150 422 2328 
Q 422 3509 836 4129 
Q 1250 4750 2034 4750 
z
" transform="scale(0.015625)"/>
        <path id="DejaVuSans-2d" d="M 313 2009 
L 1997 2009 
L 1997 1497 
L 313 1497 
L 313 2009 
z
" transform="scale(0.015625)"/>
        <path id="DejaVuSans-39" d="M 703 97 
L 703 672 
Q 941 559 1184 500 
Q 1428 441 1663 441 
Q 2288 441 2617 861 
Q 2947 1281 2994 2138 
Q 2813 1869 2534 1725 
Q 2256 1581 1919 1581 
Q 1219 1581 811 2004 
Q 403 2428 403 3163 
Q 403 3881 828 4315 
Q 1253 4750 1959 4750 
Q 2769 4750 3195 4129 
Q 3622 3509 3622 2328 
Q 3622 1225 3098 567 
Q 2575 -91 1691 -91 
Q 1453 -91 1209 -44 
Q 966 3 703 97 
z
M 1959 2075 
Q 2384 2075 2632 2365 
Q 2881 2656 2881 3163 
Q 2881 3666 2632 3958 
Q 2384 4250 1959 4250 
Q 1534 4250 1286 3958 
Q 1038 3666 1038 3163 
Q 1038 2656 1286 2365 
Q 1534 2075 1959 2075 
z
" transform="scale(0.015625)"/>
       </defs>
       <use xlink:href="#DejaVuSans-32"/>
       <use xlink:href="#DejaVuSans-30" x="63.623047"/>
       <use xlink:href="#DejaVuSans-32" x="127.246094"/>
       <use xlink:href="#DejaVuSans-30" x="190.869141"/>
       <use xlink:href="#DejaVuSans-2d" x="254.492188"/>
       <use xlink:href="#DejaVuSans-30" x="290.576172"/>
       <use xlink:href="#DejaVuSans-39" x="354.199219"/>
      </g>
     </g>
    </g>
    <g id="xtick_2">
     <g id="line2d_2">
      <g>
       <use xlink:href="#ma07abe307b" x="220.817898" y="239.558438" style="stroke: #000000; stroke-width: 0.8"/>
      </g>
     </g>
     <g id="text_2">
      <!-- 2021-01 -->
      <g transform="translate(223.577273 288.34125)rotate(-90)scale(0.1 -0.1)">
       <defs>
        <path id="DejaVuSans-31" d="M 794 531 
L 1825 531 
L 1825 4091 
L 703 3866 
L 703 4441 
L 1819 4666 
L 2450 4666 
L 2450 531 
L 3481 531 
L 3481 0 
L 794 0 
L 794 531 
z
" transform="scale(0.015625)"/>
       </defs>
       <use xlink:href="#DejaVuSans-32"/>
       <use xlink:href="#DejaVuSans-30" x="63.623047"/>
       <use xlink:href="#DejaVuSans-32" x="127.246094"/>
       <use xlink:href="#DejaVuSans-31" x="190.869141"/>
       <use xlink:href="#DejaVuSans-2d" x="254.492188"/>
       <use xlink:href="#DejaVuSans-30" x="290.576172"/>
       <use xlink:href="#DejaVuSans-31" x="354.199219"/>
      </g>
     </g>
    </g>
    <g id="xtick_3">
     <g id="line2d_3">
      <g>
       <use xlink:href="#ma07abe307b" x="325.54517" y="239.558438" style="stroke: #000000; stroke-width: 0.8"/>
      </g>
     </g>
     <g id="text_3">
      <!-- 2021-05 -->
      <g transform="translate(328.304545 288.34125)rotate(-90)scale(0.1 -0.1)">
       <defs>
        <path id="DejaVuSans-35" d="M 691 4666 
L 3169 4666 
L 3169 4134 
L 1269 4134 
L 1269 2991 
Q 1406 3038 1543 3061 
Q 1681 3084 1819 3084 
Q 2600 3084 3056 2656 
Q 3513 2228 3513 1497 
Q 3513 744 3044 326 
Q 2575 -91 1722 -91 
Q 1428 -91 1123 -41 
Q 819 9 494 109 
L 494 744 
Q 775 591 1075 516 
Q 1375 441 1709 441 
Q 2250 441 2565 725 
Q 2881 1009 2881 1497 
Q 2881 1984 2565 2268 
Q 2250 2553 1709 2553 
Q 1456 2553 1204 2497 
Q 953 2441 691 2322 
L 691 4666 
z
" transform="scale(0.015625)"/>
       </defs>
       <use xlink:href="#DejaVuSans-32"/>
       <use xlink:href="#DejaVuSans-30" x="63.623047"/>
       <use xlink:href="#DejaVuSans-32" x="127.246094"/>
       <use xlink:href="#DejaVuSans-31" x="190.869141"/>
       <use xlink:href="#DejaVuSans-2d" x="254.492188"/>
       <use xlink:href="#DejaVuSans-30" x="290.576172"/>
       <use xlink:href="#DejaVuSans-35" x="354.199219"/>
      </g>
     </g>
    </g>
    <g id="xtick_4">
     <g id="line2d_4">
      <g>
       <use xlink:href="#ma07abe307b" x="432.890625" y="239.558438" style="stroke: #000000; stroke-width: 0.8"/>
      </g>
     </g>
     <g id="text_4">
      <!-- 2021-09 -->
      <g transform="translate(435.65 288.34125)rotate(-90)scale(0.1 -0.1)">
       <use xlink:href="#DejaVuSans-32"/>
       <use xlink:href="#DejaVuSans-30" x="63.623047"/>
       <use xlink:href="#DejaVuSans-32" x="127.246094"/>
       <use xlink:href="#DejaVuSans-31" x="190.869141"/>
       <use xlink:href="#DejaVuSans-2d" x="254.492188"/>
       <use xlink:href="#DejaVuSans-30" x="290.576172"/>
       <use xlink:href="#DejaVuSans-39" x="354.199219"/>
      </g>
     </g>
    </g>
    <g id="xtick_5">
     <g id="line2d_5">
      <g>
       <use xlink:href="#ma07abe307b" x="539.363352" y="239.558438" style="stroke: #000000; stroke-width: 0.8"/>
      </g>
     </g>
     <g id="text_5">
      <!-- 2022-01 -->
      <g transform="translate(542.122727 288.34125)rotate(-90)scale(0.1 -0.1)">
       <use xlink:href="#DejaVuSans-32"/>
       <use xlink:href="#DejaVuSans-30" x="63.623047"/>
       <use xlink:href="#DejaVuSans-32" x="127.246094"/>
       <use xlink:href="#DejaVuSans-32" x="190.869141"/>
       <use xlink:href="#DejaVuSans-2d" x="254.492188"/>
       <use xlink:href="#DejaVuSans-30" x="290.576172"/>
       <use xlink:href="#DejaVuSans-31" x="354.199219"/>
      </g>
     </g>
    </g>
    <g id="xtick_6">
     <g id="line2d_6">
      <g>
       <use xlink:href="#ma07abe307b" x="644.090625" y="239.558438" style="stroke: #000000; stroke-width: 0.8"/>
      </g>
     </g>
     <g id="text_6">
      <!-- 2022-05 -->
      <g transform="translate(646.85 288.34125)rotate(-90)scale(0.1 -0.1)">
       <use xlink:href="#DejaVuSans-32"/>
       <use xlink:href="#DejaVuSans-30" x="63.623047"/>
       <use xlink:href="#DejaVuSans-32" x="127.246094"/>
       <use xlink:href="#DejaVuSans-32" x="190.869141"/>
       <use xlink:href="#DejaVuSans-2d" x="254.492188"/>
       <use xlink:href="#DejaVuSans-30" x="290.576172"/>
       <use xlink:href="#DejaVuSans-35" x="354.199219"/>
      </g>
     </g>
    </g>
    <g id="xtick_7">
     <g id="line2d_7">
      <g>
       <use xlink:href="#ma07abe307b" x="751.43608" y="239.558438" style="stroke: #000000; stroke-width: 0.8"/>
      </g>
     </g>
     <g id="text_7">
      <!-- 2022-09 -->
      <g transform="translate(754.195455 288.34125)rotate(-90)scale(0.1 -0.1)">
       <use xlink:href="#DejaVuSans-32"/>
       <use xlink:href="#DejaVuSans-30" x="63.623047"/>
       <use xlink:href="#DejaVuSans-32" x="127.246094"/>
       <use xlink:href="#DejaVuSans-32" x="190.869141"/>
       <use xlink:href="#DejaVuSans-2d" x="254.492188"/>
       <use xlink:href="#DejaVuSans-30" x="290.576172"/>
       <use xlink:href="#DejaVuSans-39" x="354.199219"/>
      </g>
     </g>
    </g>
    <g id="xtick_8">
     <g id="line2d_8">
      <g>
       <use xlink:href="#ma07abe307b" x="857.908807" y="239.558438" style="stroke: #000000; stroke-width: 0.8"/>
      </g>
     </g>
     <g id="text_8">
      <!-- 2023-01 -->
      <g transform="translate(860.668182 288.34125)rotate(-90)scale(0.1 -0.1)">
       <defs>
        <path id="DejaVuSans-33" d="M 2597 2516 
Q 3050 2419 3304 2112 
Q 3559 1806 3559 1356 
Q 3559 666 3084 287 
Q 2609 -91 1734 -91 
Q 1441 -91 1130 -33 
Q 819 25 488 141 
L 488 750 
Q 750 597 1062 519 
Q 1375 441 1716 441 
Q 2309 441 2620 675 
Q 2931 909 2931 1356 
Q 2931 1769 2642 2001 
Q 2353 2234 1838 2234 
L 1294 2234 
L 1294 2753 
L 1863 2753 
Q 2328 2753 2575 2939 
Q 2822 3125 2822 3475 
Q 2822 3834 2567 4026 
Q 2313 4219 1838 4219 
Q 1578 4219 1281 4162 
Q 984 4106 628 3988 
L 628 4550 
Q 988 4650 1302 4700 
Q 1616 4750 1894 4750 
Q 2613 4750 3031 4423 
Q 3450 4097 3450 3541 
Q 3450 3153 3228 2886 
Q 3006 2619 2597 2516 
z
" transform="scale(0.015625)"/>
       </defs>
       <use xlink:href="#DejaVuSans-32"/>
       <use xlink:href="#DejaVuSans-30" x="63.623047"/>
       <use xlink:href="#DejaVuSans-32" x="127.246094"/>
       <use xlink:href="#DejaVuSans-33" x="190.869141"/>
       <use xlink:href="#DejaVuSans-2d" x="254.492188"/>
       <use xlink:href="#DejaVuSans-30" x="290.576172"/>
       <use xlink:href="#DejaVuSans-31" x="354.199219"/>
      </g>
     </g>
    </g>
    <g id="xtick_9">
     <g id="line2d_9">
      <g>
       <use xlink:href="#ma07abe307b" x="962.63608" y="239.558438" style="stroke: #000000; stroke-width: 0.8"/>
      </g>
     </g>
     <g id="text_9">
      <!-- 2023-05 -->
      <g transform="translate(965.395455 288.34125)rotate(-90)scale(0.1 -0.1)">
       <use xlink:href="#DejaVuSans-32"/>
       <use xlink:href="#DejaVuSans-30" x="63.623047"/>
       <use xlink:href="#DejaVuSans-32" x="127.246094"/>
       <use xlink:href="#DejaVuSans-33" x="190.869141"/>
       <use xlink:href="#DejaVuSans-2d" x="254.492188"/>
       <use xlink:href="#DejaVuSans-30" x="290.576172"/>
       <use xlink:href="#DejaVuSans-35" x="354.199219"/>
      </g>
     </g>
    </g>
    <g id="xtick_10">
     <g id="line2d_10">
      <g>
       <use xlink:href="#ma07abe307b" x="1069.981534" y="239.558438" style="stroke: #000000; stroke-width: 0.8"/>
      </g>
     </g>
     <g id="text_10">
      <!-- 2023-09 -->
      <g transform="translate(1072.740909 288.34125)rotate(-90)scale(0.1 -0.1)">
       <use xlink:href="#DejaVuSans-32"/>
       <use xlink:href="#DejaVuSans-30" x="63.623047"/>
       <use xlink:href="#DejaVuSans-32" x="127.246094"/>
       <use xlink:href="#DejaVuSans-33" x="190.869141"/>
       <use xlink:href="#DejaVuSans-2d" x="254.492188"/>
       <use xlink:href="#DejaVuSans-30" x="290.576172"/>
       <use xlink:href="#DejaVuSans-39" x="354.199219"/>
      </g>
     </g>
    </g>
    <g id="text_11">
     <!-- Date -->
     <g transform="translate(605.739844 299.939687)scale(0.1 -0.1)">
      <defs>
       <path id="DejaVuSans-44" d="M 1259 4147 
L 1259 519 
L 2022 519 
Q 2988 519 3436 956 
Q 3884 1394 3884 2338 
Q 3884 3275 3436 3711 
Q 2988 4147 2022 4147 
L 1259 4147 
z
M 628 4666 
L 1925 4666 
Q 3281 4666 3915 4102 
Q 4550 3538 4550 2338 
Q 4550 1131 3912 565 
Q 3275 0 1925 0 
L 628 0 
L 628 4666 
z
" transform="scale(0.015625)"/>
       <path id="DejaVuSans-61" d="M 2194 1759 
Q 1497 1759 1228 1600 
Q 959 1441 959 1056 
Q 959 750 1161 570 
Q 1363 391 1709 391 
Q 2188 391 2477 730 
Q 2766 1069 2766 1631 
L 2766 1759 
L 2194 1759 
z
M 3341 1997 
L 3341 0 
L 2766 0 
L 2766 531 
Q 2569 213 2275 61 
Q 1981 -91 1556 -91 
Q 1019 -91 701 211 
Q 384 513 384 1019 
Q 384 1609 779 1909 
Q 1175 2209 1959 2209 
L 2766 2209 
L 2766 2266 
Q 2766 2663 2505 2880 
Q 2244 3097 1772 3097 
Q 1472 3097 1187 3025 
Q 903 2953 641 2809 
L 641 3341 
Q 956 3463 1253 3523 
Q 1550 3584 1831 3584 
Q 2591 3584 2966 3190 
Q 3341 2797 3341 1997 
z
" transform="scale(0.015625)"/>
       <path id="DejaVuSans-74" d="M 1172 4494 
L 1172 3500 
L 2356 3500 
L 2356 3053 
L 1172 3053 
L 1172 1153 
Q 1172 725 1289 603 
Q 1406 481 1766 481 
L 2356 481 
L 2356 0 
L 1766 0 
Q 1100 0 847 248 
Q 594 497 594 1153 
L 594 3053 
L 172 3053 
L 172 3500 
L 594 3500 
L 594 4494 
L 1172 4494 
z
" transform="scale(0.015625)"/>
       <path id="DejaVuSans-65" d="M 3597 1894 
L 3597 1613 
L 953 1613 
Q 991 1019 1311 708 
Q 1631 397 2203 397 
Q 2534 397 2845 478 
Q 3156 559 3463 722 
L 3463 178 
Q 3153 47 2828 -22 
Q 2503 -91 2169 -91 
Q 1331 -91 842 396 
Q 353 884 353 1716 
Q 353 2575 817 3079 
Q 1281 3584 2069 3584 
Q 2775 3584 3186 3129 
Q 3597 2675 3597 1894 
z
M 3022 2063 
Q 3016 2534 2758 2815 
Q 2500 3097 2075 3097 
Q 1594 3097 1305 2825 
Q 1016 2553 972 2059 
L 3022 2063 
z
" transform="scale(0.015625)"/>
      </defs>
      <use xlink:href="#DejaVuSans-44"/>
      <use xlink:href="#DejaVuSans-61" x="77.001953"/>
      <use xlink:href="#DejaVuSans-74" x="138.28125"/>
      <use xlink:href="#DejaVuSans-65" x="177.490234"/>
     </g>
    </g>
   </g>
   <g id="matplotlib.axis_2">
    <g id="ytick_1">
     <g id="line2d_11">
      <defs>
       <path id="m3037c4f60f" d="M 0 0 
L -3.5 0 
" style="stroke: #000000; stroke-width: 0.8"/>
      </defs>
      <g>
       <use xlink:href="#m3037c4f60f" x="59.690625" y="239.558438" style="stroke: #000000; stroke-width: 0.8"/>
      </g>
     </g>
     <g id="text_12">
      <!-- 0 -->
      <g transform="translate(46.328125 243.357656)scale(0.1 -0.1)">
       <use xlink:href="#DejaVuSans-30"/>
      </g>
     </g>
    </g>
    <g id="ytick_2">
     <g id="line2d_12">
      <g>
       <use xlink:href="#m3037c4f60f" x="59.690625" y="211.131604" style="stroke: #000000; stroke-width: 0.8"/>
      </g>
     </g>
     <g id="text_13">
      <!-- 10000 -->
      <g transform="translate(20.878125 214.930823)scale(0.1 -0.1)">
       <use xlink:href="#DejaVuSans-31"/>
       <use xlink:href="#DejaVuSans-30" x="63.623047"/>
       <use xlink:href="#DejaVuSans-30" x="127.246094"/>
       <use xlink:href="#DejaVuSans-30" x="190.869141"/>
       <use xlink:href="#DejaVuSans-30" x="254.492188"/>
      </g>
     </g>
    </g>
    <g id="ytick_3">
     <g id="line2d_13">
      <g>
       <use xlink:href="#m3037c4f60f" x="59.690625" y="182.704771" style="stroke: #000000; stroke-width: 0.8"/>
      </g>
     </g>
     <g id="text_14">
      <!-- 20000 -->
      <g transform="translate(20.878125 186.50399)scale(0.1 -0.1)">
       <use xlink:href="#DejaVuSans-32"/>
       <use xlink:href="#DejaVuSans-30" x="63.623047"/>
       <use xlink:href="#DejaVuSans-30" x="127.246094"/>
       <use xlink:href="#DejaVuSans-30" x="190.869141"/>
       <use xlink:href="#DejaVuSans-30" x="254.492188"/>
      </g>
     </g>
    </g>
    <g id="ytick_4">
     <g id="line2d_14">
      <g>
       <use xlink:href="#m3037c4f60f" x="59.690625" y="154.277938" style="stroke: #000000; stroke-width: 0.8"/>
      </g>
     </g>
     <g id="text_15">
      <!-- 30000 -->
      <g transform="translate(20.878125 158.077157)scale(0.1 -0.1)">
       <use xlink:href="#DejaVuSans-33"/>
       <use xlink:href="#DejaVuSans-30" x="63.623047"/>
       <use xlink:href="#DejaVuSans-30" x="127.246094"/>
       <use xlink:href="#DejaVuSans-30" x="190.869141"/>
       <use xlink:href="#DejaVuSans-30" x="254.492188"/>
      </g>
     </g>
    </g>
    <g id="ytick_5">
     <g id="line2d_15">
      <g>
       <use xlink:href="#m3037c4f60f" x="59.690625" y="125.851105" style="stroke: #000000; stroke-width: 0.8"/>
      </g>
     </g>
     <g id="text_16">
      <!-- 40000 -->
      <g transform="translate(20.878125 129.650323)scale(0.1 -0.1)">
       <defs>
        <path id="DejaVuSans-34" d="M 2419 4116 
L 825 1625 
L 2419 1625 
L 2419 4116 
z
M 2253 4666 
L 3047 4666 
L 3047 1625 
L 3713 1625 
L 3713 1100 
L 3047 1100 
L 3047 0 
L 2419 0 
L 2419 1100 
L 313 1100 
L 313 1709 
L 2253 4666 
z
" transform="scale(0.015625)"/>
       </defs>
       <use xlink:href="#DejaVuSans-34"/>
       <use xlink:href="#DejaVuSans-30" x="63.623047"/>
       <use xlink:href="#DejaVuSans-30" x="127.246094"/>
       <use xlink:href="#DejaVuSans-30" x="190.869141"/>
       <use xlink:href="#DejaVuSans-30" x="254.492188"/>
      </g>
     </g>
    </g>
    <g id="ytick_6">
     <g id="line2d_16">
      <g>
       <use xlink:href="#m3037c4f60f" x="59.690625" y="97.424271" style="stroke: #000000; stroke-width: 0.8"/>
      </g>
     </g>
     <g id="text_17">
      <!-- 50000 -->
      <g transform="translate(20.878125 101.22349)scale(0.1 -0.1)">
       <use xlink:href="#DejaVuSans-35"/>
       <use xlink:href="#DejaVuSans-30" x="63.623047"/>
       <use xlink:href="#DejaVuSans-30" x="127.246094"/>
       <use xlink:href="#DejaVuSans-30" x="190.869141"/>
       <use xlink:href="#DejaVuSans-30" x="254.492188"/>
      </g>
     </g>
    </g>
    <g id="ytick_7">
     <g id="line2d_17">
      <g>
       <use xlink:href="#m3037c4f60f" x="59.690625" y="68.997438" style="stroke: #000000; stroke-width: 0.8"/>
      </g>
     </g>
     <g id="text_18">
      <!-- 60000 -->
      <g transform="translate(20.878125 72.796657)scale(0.1 -0.1)">
       <defs>
        <path id="DejaVuSans-36" d="M 2113 2584 
Q 1688 2584 1439 2293 
Q 1191 2003 1191 1497 
Q 1191 994 1439 701 
Q 1688 409 2113 409 
Q 2538 409 2786 701 
Q 3034 994 3034 1497 
Q 3034 2003 2786 2293 
Q 2538 2584 2113 2584 
z
M 3366 4563 
L 3366 3988 
Q 3128 4100 2886 4159 
Q 2644 4219 2406 4219 
Q 1781 4219 1451 3797 
Q 1122 3375 1075 2522 
Q 1259 2794 1537 2939 
Q 1816 3084 2150 3084 
Q 2853 3084 3261 2657 
Q 3669 2231 3669 1497 
Q 3669 778 3244 343 
Q 2819 -91 2113 -91 
Q 1303 -91 875 529 
Q 447 1150 447 2328 
Q 447 3434 972 4092 
Q 1497 4750 2381 4750 
Q 2619 4750 2861 4703 
Q 3103 4656 3366 4563 
z
" transform="scale(0.015625)"/>
       </defs>
       <use xlink:href="#DejaVuSans-36"/>
       <use xlink:href="#DejaVuSans-30" x="63.623047"/>
       <use xlink:href="#DejaVuSans-30" x="127.246094"/>
       <use xlink:href="#DejaVuSans-30" x="190.869141"/>
       <use xlink:href="#DejaVuSans-30" x="254.492188"/>
      </g>
     </g>
    </g>
    <g id="ytick_8">
     <g id="line2d_18">
      <g>
       <use xlink:href="#m3037c4f60f" x="59.690625" y="40.570605" style="stroke: #000000; stroke-width: 0.8"/>
      </g>
     </g>
     <g id="text_19">
      <!-- 70000 -->
      <g transform="translate(20.878125 44.369824)scale(0.1 -0.1)">
       <defs>
        <path id="DejaVuSans-37" d="M 525 4666 
L 3525 4666 
L 3525 4397 
L 1831 0 
L 1172 0 
L 2766 4134 
L 525 4134 
L 525 4666 
z
" transform="scale(0.015625)"/>
       </defs>
       <use xlink:href="#DejaVuSans-37"/>
       <use xlink:href="#DejaVuSans-30" x="63.623047"/>
       <use xlink:href="#DejaVuSans-30" x="127.246094"/>
       <use xlink:href="#DejaVuSans-30" x="190.869141"/>
       <use xlink:href="#DejaVuSans-30" x="254.492188"/>
      </g>
     </g>
    </g>
    <g id="text_20">
     <!-- Sequence count -->
     <g transform="translate(14.798438 169.038594)rotate(-90)scale(0.1 -0.1)">
      <defs>
       <path id="DejaVuSans-53" d="M 3425 4513 
L 3425 3897 
Q 3066 4069 2747 4153 
Q 2428 4238 2131 4238 
Q 1616 4238 1336 4038 
Q 1056 3838 1056 3469 
Q 1056 3159 1242 3001 
Q 1428 2844 1947 2747 
L 2328 2669 
Q 3034 2534 3370 2195 
Q 3706 1856 3706 1288 
Q 3706 609 3251 259 
Q 2797 -91 1919 -91 
Q 1588 -91 1214 -16 
Q 841 59 441 206 
L 441 856 
Q 825 641 1194 531 
Q 1563 422 1919 422 
Q 2459 422 2753 634 
Q 3047 847 3047 1241 
Q 3047 1584 2836 1778 
Q 2625 1972 2144 2069 
L 1759 2144 
Q 1053 2284 737 2584 
Q 422 2884 422 3419 
Q 422 4038 858 4394 
Q 1294 4750 2059 4750 
Q 2388 4750 2728 4690 
Q 3069 4631 3425 4513 
z
" transform="scale(0.015625)"/>
       <path id="DejaVuSans-71" d="M 947 1747 
Q 947 1113 1208 752 
Q 1469 391 1925 391 
Q 2381 391 2643 752 
Q 2906 1113 2906 1747 
Q 2906 2381 2643 2742 
Q 2381 3103 1925 3103 
Q 1469 3103 1208 2742 
Q 947 2381 947 1747 
z
M 2906 525 
Q 2725 213 2448 61 
Q 2172 -91 1784 -91 
Q 1150 -91 751 415 
Q 353 922 353 1747 
Q 353 2572 751 3078 
Q 1150 3584 1784 3584 
Q 2172 3584 2448 3432 
Q 2725 3281 2906 2969 
L 2906 3500 
L 3481 3500 
L 3481 -1331 
L 2906 -1331 
L 2906 525 
z
" transform="scale(0.015625)"/>
       <path id="DejaVuSans-75" d="M 544 1381 
L 544 3500 
L 1119 3500 
L 1119 1403 
Q 1119 906 1312 657 
Q 1506 409 1894 409 
Q 2359 409 2629 706 
Q 2900 1003 2900 1516 
L 2900 3500 
L 3475 3500 
L 3475 0 
L 2900 0 
L 2900 538 
Q 2691 219 2414 64 
Q 2138 -91 1772 -91 
Q 1169 -91 856 284 
Q 544 659 544 1381 
z
M 1991 3584 
L 1991 3584 
z
" transform="scale(0.015625)"/>
       <path id="DejaVuSans-6e" d="M 3513 2113 
L 3513 0 
L 2938 0 
L 2938 2094 
Q 2938 2591 2744 2837 
Q 2550 3084 2163 3084 
Q 1697 3084 1428 2787 
Q 1159 2491 1159 1978 
L 1159 0 
L 581 0 
L 581 3500 
L 1159 3500 
L 1159 2956 
Q 1366 3272 1645 3428 
Q 1925 3584 2291 3584 
Q 2894 3584 3203 3211 
Q 3513 2838 3513 2113 
z
" transform="scale(0.015625)"/>
       <path id="DejaVuSans-63" d="M 3122 3366 
L 3122 2828 
Q 2878 2963 2633 3030 
Q 2388 3097 2138 3097 
Q 1578 3097 1268 2742 
Q 959 2388 959 1747 
Q 959 1106 1268 751 
Q 1578 397 2138 397 
Q 2388 397 2633 464 
Q 2878 531 3122 666 
L 3122 134 
Q 2881 22 2623 -34 
Q 2366 -91 2075 -91 
Q 1284 -91 818 406 
Q 353 903 353 1747 
Q 353 2603 823 3093 
Q 1294 3584 2113 3584 
Q 2378 3584 2631 3529 
Q 2884 3475 3122 3366 
z
" transform="scale(0.015625)"/>
       <path id="DejaVuSans-20" transform="scale(0.015625)"/>
       <path id="DejaVuSans-6f" d="M 1959 3097 
Q 1497 3097 1228 2736 
Q 959 2375 959 1747 
Q 959 1119 1226 758 
Q 1494 397 1959 397 
Q 2419 397 2687 759 
Q 2956 1122 2956 1747 
Q 2956 2369 2687 2733 
Q 2419 3097 1959 3097 
z
M 1959 3584 
Q 2709 3584 3137 3096 
Q 3566 2609 3566 1747 
Q 3566 888 3137 398 
Q 2709 -91 1959 -91 
Q 1206 -91 779 398 
Q 353 888 353 1747 
Q 353 2609 779 3096 
Q 1206 3584 1959 3584 
z
" transform="scale(0.015625)"/>
      </defs>
      <use xlink:href="#DejaVuSans-53"/>
      <use xlink:href="#DejaVuSans-65" x="63.476562"/>
      <use xlink:href="#DejaVuSans-71" x="125"/>
      <use xlink:href="#DejaVuSans-75" x="188.476562"/>
      <use xlink:href="#DejaVuSans-65" x="251.855469"/>
      <use xlink:href="#DejaVuSans-6e" x="313.378906"/>
      <use xlink:href="#DejaVuSans-63" x="376.757812"/>
      <use xlink:href="#DejaVuSans-65" x="431.738281"/>
      <use xlink:href="#DejaVuSans-20" x="493.261719"/>
      <use xlink:href="#DejaVuSans-63" x="525.048828"/>
      <use xlink:href="#DejaVuSans-6f" x="580.029297"/>
      <use xlink:href="#DejaVuSans-75" x="641.210938"/>
      <use xlink:href="#DejaVuSans-6e" x="704.589844"/>
      <use xlink:href="#DejaVuSans-74" x="767.96875"/>
     </g>
    </g>
   </g>
   <g id="patch_97">
    <path d="M 59.690625 239.558438 
L 59.690625 17.798437 
" style="fill: none; stroke: #000000; stroke-width: 0.8; stroke-linejoin: miter; stroke-linecap: square"/>
   </g>
   <g id="patch_98">
    <path d="M 1175.690625 239.558438 
L 1175.690625 17.798437 
" style="fill: none; stroke: #000000; stroke-width: 0.8; stroke-linejoin: miter; stroke-linecap: square"/>
   </g>
   <g id="patch_99">
    <path d="M 59.690625 239.558438 
L 1175.690625 239.558438 
" style="fill: none; stroke: #000000; stroke-width: 0.8; stroke-linejoin: miter; stroke-linecap: square"/>
   </g>
  </g>
  <g id="axes_2">
   <g id="matplotlib.axis_3">
    <g id="ytick_9">
     <g id="line2d_19">
      <defs>
       <path id="m1df2088829" d="M 0 0 
L 3.5 0 
" style="stroke: #000000; stroke-width: 0.8"/>
      </defs>
      <g>
       <use xlink:href="#m1df2088829" x="1175.690625" y="229.478615" style="stroke: #000000; stroke-width: 0.8"/>
      </g>
     </g>
     <g id="text_21">
      <!-- 0.0 -->
      <g transform="translate(1182.690625 233.277834)scale(0.1 -0.1)">
       <defs>
        <path id="DejaVuSans-2e" d="M 684 794 
L 1344 794 
L 1344 0 
L 684 0 
L 684 794 
z
" transform="scale(0.015625)"/>
       </defs>
       <use xlink:href="#DejaVuSans-30"/>
       <use xlink:href="#DejaVuSans-2e" x="63.623047"/>
       <use xlink:href="#DejaVuSans-30" x="95.410156"/>
      </g>
     </g>
    </g>
    <g id="ytick_10">
     <g id="line2d_20">
      <g>
       <use xlink:href="#m1df2088829" x="1175.690625" y="193.884892" style="stroke: #000000; stroke-width: 0.8"/>
      </g>
     </g>
     <g id="text_22">
      <!-- 0.2 -->
      <g transform="translate(1182.690625 197.684111)scale(0.1 -0.1)">
       <use xlink:href="#DejaVuSans-30"/>
       <use xlink:href="#DejaVuSans-2e" x="63.623047"/>
       <use xlink:href="#DejaVuSans-32" x="95.410156"/>
      </g>
     </g>
    </g>
    <g id="ytick_11">
     <g id="line2d_21">
      <g>
       <use xlink:href="#m1df2088829" x="1175.690625" y="158.291169" style="stroke: #000000; stroke-width: 0.8"/>
      </g>
     </g>
     <g id="text_23">
      <!-- 0.4 -->
      <g transform="translate(1182.690625 162.090388)scale(0.1 -0.1)">
       <use xlink:href="#DejaVuSans-30"/>
       <use xlink:href="#DejaVuSans-2e" x="63.623047"/>
       <use xlink:href="#DejaVuSans-34" x="95.410156"/>
      </g>
     </g>
    </g>
    <g id="ytick_12">
     <g id="line2d_22">
      <g>
       <use xlink:href="#m1df2088829" x="1175.690625" y="122.697446" style="stroke: #000000; stroke-width: 0.8"/>
      </g>
     </g>
     <g id="text_24">
      <!-- 0.6 -->
      <g transform="translate(1182.690625 126.496665)scale(0.1 -0.1)">
       <use xlink:href="#DejaVuSans-30"/>
       <use xlink:href="#DejaVuSans-2e" x="63.623047"/>
       <use xlink:href="#DejaVuSans-36" x="95.410156"/>
      </g>
     </g>
    </g>
    <g id="ytick_13">
     <g id="line2d_23">
      <g>
       <use xlink:href="#m1df2088829" x="1175.690625" y="87.103723" style="stroke: #000000; stroke-width: 0.8"/>
      </g>
     </g>
     <g id="text_25">
      <!-- 0.8 -->
      <g transform="translate(1182.690625 90.902942)scale(0.1 -0.1)">
       <defs>
        <path id="DejaVuSans-38" d="M 2034 2216 
Q 1584 2216 1326 1975 
Q 1069 1734 1069 1313 
Q 1069 891 1326 650 
Q 1584 409 2034 409 
Q 2484 409 2743 651 
Q 3003 894 3003 1313 
Q 3003 1734 2745 1975 
Q 2488 2216 2034 2216 
z
M 1403 2484 
Q 997 2584 770 2862 
Q 544 3141 544 3541 
Q 544 4100 942 4425 
Q 1341 4750 2034 4750 
Q 2731 4750 3128 4425 
Q 3525 4100 3525 3541 
Q 3525 3141 3298 2862 
Q 3072 2584 2669 2484 
Q 3125 2378 3379 2068 
Q 3634 1759 3634 1313 
Q 3634 634 3220 271 
Q 2806 -91 2034 -91 
Q 1263 -91 848 271 
Q 434 634 434 1313 
Q 434 1759 690 2068 
Q 947 2378 1403 2484 
z
M 1172 3481 
Q 1172 3119 1398 2916 
Q 1625 2713 2034 2713 
Q 2441 2713 2670 2916 
Q 2900 3119 2900 3481 
Q 2900 3844 2670 4047 
Q 2441 4250 2034 4250 
Q 1625 4250 1398 4047 
Q 1172 3844 1172 3481 
z
" transform="scale(0.015625)"/>
       </defs>
       <use xlink:href="#DejaVuSans-30"/>
       <use xlink:href="#DejaVuSans-2e" x="63.623047"/>
       <use xlink:href="#DejaVuSans-38" x="95.410156"/>
      </g>
     </g>
    </g>
    <g id="ytick_14">
     <g id="line2d_24">
      <g>
       <use xlink:href="#m1df2088829" x="1175.690625" y="51.51" style="stroke: #000000; stroke-width: 0.8"/>
      </g>
     </g>
     <g id="text_26">
      <!-- 1.0 -->
      <g transform="translate(1182.690625 55.309219)scale(0.1 -0.1)">
       <use xlink:href="#DejaVuSans-31"/>
       <use xlink:href="#DejaVuSans-2e" x="63.623047"/>
       <use xlink:href="#DejaVuSans-30" x="95.410156"/>
      </g>
     </g>
    </g>
    <g id="text_27">
     <!-- Total -->
     <g transform="translate(1210.192188 140.355)rotate(-90)scale(0.1 -0.1)">
      <defs>
       <path id="DejaVuSans-54" d="M -19 4666 
L 3928 4666 
L 3928 4134 
L 2272 4134 
L 2272 0 
L 1638 0 
L 1638 4134 
L -19 4134 
L -19 4666 
z
" transform="scale(0.015625)"/>
       <path id="DejaVuSans-6c" d="M 603 4863 
L 1178 4863 
L 1178 0 
L 603 0 
L 603 4863 
z
" transform="scale(0.015625)"/>
      </defs>
      <use xlink:href="#DejaVuSans-54"/>
      <use xlink:href="#DejaVuSans-6f" x="44.083984"/>
      <use xlink:href="#DejaVuSans-74" x="105.265625"/>
      <use xlink:href="#DejaVuSans-61" x="144.474609"/>
      <use xlink:href="#DejaVuSans-6c" x="205.753906"/>
     </g>
    </g>
    <g id="text_28">
     <!-- 1e6 -->
     <g transform="translate(1156.8125 14.798437)scale(0.1 -0.1)">
      <use xlink:href="#DejaVuSans-31"/>
      <use xlink:href="#DejaVuSans-65" x="63.623047"/>
      <use xlink:href="#DejaVuSans-36" x="125.146484"/>
     </g>
    </g>
   </g>
   <g id="line2d_25">
    <path d="M 114.34517 229.478437 
L 177.181534 229.347275 
L 183.290625 229.220739 
L 195.508807 229.011804 
L 200.74517 228.801445 
L 202.490625 228.541077 
L 204.23608 228.379303 
L 207.726989 227.766201 
L 209.472443 227.464011 
L 215.581534 226.651228 
L 217.326989 226.351351 
L 219.072443 225.864963 
L 221.690625 225.201674 
L 228.672443 222.827572 
L 230.417898 221.872771 
L 232.163352 221.143989 
L 233.908807 220.374987 
L 234.781534 220.024567 
L 236.526989 218.99395 
L 240.017898 217.306452 
L 240.890625 217.009244 
L 241.763352 216.124207 
L 246.126989 212.767185 
L 246.999716 212.376899 
L 248.74517 211.000668 
L 251.363352 209.314593 
L 253.108807 208.472446 
L 253.981534 207.409973 
L 257.472443 204.42455 
L 259.217898 203.38895 
L 260.090625 201.989583 
L 260.963352 201.019832 
L 263.581534 198.589671 
L 265.326989 197.376815 
L 266.199716 195.823505 
L 267.94517 193.738958 
L 268.817898 192.515246 
L 269.690625 191.560266 
L 271.43608 190.296155 
L 272.308807 188.538181 
L 274.054261 185.918839 
L 275.799716 183.754919 
L 277.54517 182.407696 
L 278.417898 180.272607 
L 281.908807 174.18875 
L 283.654261 172.305486 
L 284.526989 169.685788 
L 285.399716 167.714252 
L 288.017898 162.936328 
L 289.763352 160.734145 
L 290.63608 157.851231 
L 293.254261 152.284729 
L 294.126989 150.547399 
L 295.872443 148.432776 
L 296.74517 145.614643 
L 298.490625 141.638468 
L 299.363352 139.748797 
L 300.23608 138.320421 
L 301.981534 136.194586 
L 303.726989 131.999866 
L 306.34517 126.29526 
L 307.217898 124.985233 
L 308.090625 123.976329 
L 308.963352 121.02899 
L 309.83608 118.751526 
L 312.454261 112.968436 
L 313.326989 111.762877 
L 314.199716 110.873745 
L 315.072443 108.109181 
L 316.817898 104.085133 
L 318.563352 100.351885 
L 319.43608 99.199894 
L 320.308807 98.312898 
L 321.181534 95.400798 
L 322.926989 91.342936 
L 324.672443 87.57623 
L 325.54517 86.485282 
L 326.417898 85.609499 
L 327.290625 82.680847 
L 329.908807 77.356382 
L 330.781534 75.727435 
L 331.654261 74.725116 
L 332.526989 73.973199 
L 333.399716 71.341399 
L 334.272443 69.650163 
L 335.14517 68.221253 
L 336.890625 65.732718 
L 337.763352 64.867257 
L 338.63608 64.26074 
L 339.508807 61.806018 
L 340.381534 60.334396 
L 342.126989 57.991261 
L 342.999716 56.961179 
L 343.872443 56.350568 
L 344.74517 55.938927 
L 345.617898 54.110833 
L 347.363352 51.850988 
L 349.108807 50.190007 
L 350.854261 49.33558 
L 351.726989 47.988357 
L 352.599716 47.097446 
L 354.34517 45.706799 
L 355.217898 45.061663 
L 356.090625 44.631335 
L 356.963352 44.348009 
L 357.83608 43.223425 
L 359.581534 41.889195 
L 361.326989 40.719763 
L 363.072443 40.236934 
L 363.94517 39.523636 
L 366.563352 38.181219 
L 367.43608 37.776162 
L 369.181534 37.38214 
L 371.799716 36.034027 
L 373.54517 35.445663 
L 376.163352 34.761552 
L 377.908807 34.189383 
L 380.526989 33.528941 
L 381.399716 33.434974 
L 384.890625 32.386738 
L 386.63608 32.047886 
L 387.508807 31.966199 
L 389.254261 31.489065 
L 398.854261 30.04129 
L 400.599716 29.856203 
L 404.963352 29.293822 
L 408.454261 29.046801 
L 411.072443 28.907452 
L 411.94517 28.721653 
L 425.03608 28.159272 
L 434.63608 28.025262 
L 474.781534 27.913853 
L 571.654261 27.884666 
L 1124.963352 27.878437 
L 1124.963352 27.878437 
" clip-path="url(#pcbcbdd8f8f)" style="fill: none; stroke: #696969; stroke-width: 3; stroke-linecap: square"/>
   </g>
   <g id="patch_100">
    <path d="M 59.690625 239.558437 
L 59.690625 17.798437 
" style="fill: none; stroke: #000000; stroke-width: 0.8; stroke-linejoin: miter; stroke-linecap: square"/>
   </g>
   <g id="patch_101">
    <path d="M 1175.690625 239.558437 
L 1175.690625 17.798437 
" style="fill: none; stroke: #000000; stroke-width: 0.8; stroke-linejoin: miter; stroke-linecap: square"/>
   </g>
   <g id="patch_102">
    <path d="M 59.690625 239.558438 
L 1175.690625 239.558438 
" style="fill: none; stroke: #000000; stroke-width: 0.8; stroke-linejoin: miter; stroke-linecap: square"/>
   </g>
  </g>
 </g>
 <defs>
  <clipPath id="pcbcbdd8f8f">
   <rect x="59.690625" y="17.798437" width="1116" height="221.76"/>
  </clipPath>
 </defs>
</svg>
