<?xml version="1.0" encoding="utf-8" standalone="no"?>
<!DOCTYPE svg PUBLIC "-//W3C//DTD SVG 1.1//EN"
  "http://www.w3.org/Graphics/SVG/1.1/DTD/svg11.dtd">
<svg xmlns:xlink="http://www.w3.org/1999/xlink" width="1225.834375pt" height="309.219375pt" viewBox="0 0 1225.834375 309.219375" xmlns="http://www.w3.org/2000/svg" version="1.1">
 <metadata>
  <rdf:RDF xmlns:dc="http://purl.org/dc/elements/1.1/" xmlns:cc="http://creativecommons.org/ns#" xmlns:rdf="http://www.w3.org/1999/02/22-rdf-syntax-ns#">
   <cc:Work>
    <dc:type rdf:resource="http://purl.org/dc/dcmitype/StillImage"/>
    <dc:date>2022-05-19T11:47:14.237736</dc:date>
    <dc:format>image/svg+xml</dc:format>
    <dc:creator>
     <cc:Agent>
      <dc:title>Matplotlib v3.5.1, https://matplotlib.org/</dc:title>
     </cc:Agent>
    </dc:creator>
   </cc:Work>
  </rdf:RDF>
 </metadata>
 <defs>
  <style type="text/css">*{stroke-linejoin: round; stroke-linecap: butt}</style>
 </defs>
 <g id="figure_1">
  <g id="patch_1">
   <path d="M 0 309.219375 
L 1225.834375 309.219375 
L 1225.834375 0 
L 0 0 
z
" style="fill: #ffffff"/>
  </g>
  <g id="axes_1">
   <g id="patch_2">
    <path d="M 66.053125 239.558438 
L 1182.053125 239.558438 
L 1182.053125 17.798437 
L 66.053125 17.798437 
z
" style="fill: #ffffff"/>
   </g>
   <g id="patch_3">
    <path d="M 116.780398 239.558438 
L 137.071307 239.558438 
L 137.071307 239.555978 
L 116.780398 239.555978 
z
" clip-path="url(#p1ba46a5721)" style="fill: #86b0a6"/>
   </g>
   <g id="patch_4">
    <path d="M 145.18767 239.558438 
L 165.47858 239.558438 
L 165.47858 239.555978 
L 145.18767 239.555978 
z
" clip-path="url(#p1ba46a5721)" style="fill: #86b0a6"/>
   </g>
   <g id="patch_5">
    <path d="M 173.594943 239.558438 
L 193.885852 239.558438 
L 193.885852 239.557618 
L 173.594943 239.557618 
z
" clip-path="url(#p1ba46a5721)" style="fill: #86b0a6"/>
   </g>
   <g id="patch_6">
    <path d="M 202.002216 239.558438 
L 222.293125 239.558438 
L 222.293125 239.533839 
L 202.002216 239.533839 
z
" clip-path="url(#p1ba46a5721)" style="fill: #86b0a6"/>
   </g>
   <g id="patch_7">
    <path d="M 230.409489 239.558438 
L 250.700398 239.558438 
L 250.700398 239.551878 
L 230.409489 239.551878 
z
" clip-path="url(#p1ba46a5721)" style="fill: #86b0a6"/>
   </g>
   <g id="patch_8">
    <path d="M 258.816761 239.558438 
L 279.10767 239.558438 
L 279.10767 239.551058 
L 258.816761 239.551058 
z
" clip-path="url(#p1ba46a5721)" style="fill: #86b0a6"/>
   </g>
   <g id="patch_9">
    <path d="M 287.224034 239.558438 
L 307.514943 239.558438 
L 307.514943 239.552698 
L 287.224034 239.552698 
z
" clip-path="url(#p1ba46a5721)" style="fill: #86b0a6"/>
   </g>
   <g id="patch_10">
    <path d="M 315.631307 239.558438 
L 335.922216 239.558438 
L 335.922216 239.548598 
L 315.631307 239.548598 
z
" clip-path="url(#p1ba46a5721)" style="fill: #86b0a6"/>
   </g>
   <g id="patch_11">
    <path d="M 344.03858 239.558438 
L 364.329489 239.558438 
L 364.329489 239.550238 
L 344.03858 239.550238 
z
" clip-path="url(#p1ba46a5721)" style="fill: #86b0a6"/>
   </g>
   <g id="patch_12">
    <path d="M 372.445852 239.558438 
L 392.736761 239.558438 
L 392.736761 239.529739 
L 372.445852 239.529739 
z
" clip-path="url(#p1ba46a5721)" style="fill: #86b0a6"/>
   </g>
   <g id="patch_13">
    <path d="M 400.853125 239.558438 
L 421.144034 239.558438 
L 421.144034 239.333767 
L 400.853125 239.333767 
z
" clip-path="url(#p1ba46a5721)" style="fill: #86b0a6"/>
   </g>
   <g id="patch_14">
    <path d="M 429.260398 239.558438 
L 449.551307 239.558438 
L 449.551307 238.629417 
L 429.260398 238.629417 
z
" clip-path="url(#p1ba46a5721)" style="fill: #86b0a6"/>
   </g>
   <g id="patch_15">
    <path d="M 457.66767 239.558438 
L 477.95858 239.558438 
L 477.95858 236.025209 
L 457.66767 236.025209 
z
" clip-path="url(#p1ba46a5721)" style="fill: #86b0a6"/>
   </g>
   <g id="patch_16">
    <path d="M 486.074943 239.558438 
L 506.365852 239.558438 
L 506.365852 224.097179 
L 486.074943 224.097179 
z
" clip-path="url(#p1ba46a5721)" style="fill: #86b0a6"/>
   </g>
   <g id="patch_17">
    <path d="M 514.482216 239.558438 
L 534.773125 239.558438 
L 534.773125 169.790084 
L 514.482216 169.790084 
z
" clip-path="url(#p1ba46a5721)" style="fill: #86b0a6"/>
   </g>
   <g id="patch_18">
    <path d="M 542.889489 239.558438 
L 563.180398 239.558438 
L 563.180398 131.780611 
L 542.889489 131.780611 
z
" clip-path="url(#p1ba46a5721)" style="fill: #86b0a6"/>
   </g>
   <g id="patch_19">
    <path d="M 571.296761 239.558438 
L 591.58767 239.558438 
L 591.58767 72.366774 
L 571.296761 72.366774 
z
" clip-path="url(#p1ba46a5721)" style="fill: #86b0a6"/>
   </g>
   <g id="patch_20">
    <path d="M 599.704034 239.558438 
L 619.994943 239.558438 
L 619.994943 28.358437 
L 599.704034 28.358437 
z
" clip-path="url(#p1ba46a5721)" style="fill: #86b0a6"/>
   </g>
   <g id="patch_21">
    <path d="M 628.111307 239.558438 
L 648.402216 239.558438 
L 648.402216 41.599231 
L 628.111307 41.599231 
z
" clip-path="url(#p1ba46a5721)" style="fill: #86b0a6"/>
   </g>
   <g id="patch_22">
    <path d="M 656.51858 239.558438 
L 676.809489 239.558438 
L 676.809489 31.623538 
L 656.51858 31.623538 
z
" clip-path="url(#p1ba46a5721)" style="fill: #86b0a6"/>
   </g>
   <g id="patch_23">
    <path d="M 684.925852 239.558438 
L 705.216761 239.558438 
L 705.216761 55.565693 
L 684.925852 55.565693 
z
" clip-path="url(#p1ba46a5721)" style="fill: #86b0a6"/>
   </g>
   <g id="patch_24">
    <path d="M 713.333125 239.558438 
L 733.624034 239.558438 
L 733.624034 50.282659 
L 713.333125 50.282659 
z
" clip-path="url(#p1ba46a5721)" style="fill: #86b0a6"/>
   </g>
   <g id="patch_25">
    <path d="M 741.740398 239.558438 
L 762.031307 239.558438 
L 762.031307 60.664235 
L 741.740398 60.664235 
z
" clip-path="url(#p1ba46a5721)" style="fill: #86b0a6"/>
   </g>
   <g id="patch_26">
    <path d="M 770.14767 239.558438 
L 790.43858 239.558438 
L 790.43858 78.410735 
L 770.14767 78.410735 
z
" clip-path="url(#p1ba46a5721)" style="fill: #86b0a6"/>
   </g>
   <g id="patch_27">
    <path d="M 798.554943 239.558438 
L 818.845852 239.558438 
L 818.845852 103.05478 
L 798.554943 103.05478 
z
" clip-path="url(#p1ba46a5721)" style="fill: #86b0a6"/>
   </g>
   <g id="patch_28">
    <path d="M 826.962216 239.558438 
L 847.253125 239.558438 
L 847.253125 118.411903 
L 826.962216 118.411903 
z
" clip-path="url(#p1ba46a5721)" style="fill: #86b0a6"/>
   </g>
   <g id="patch_29">
    <path d="M 855.369489 239.558438 
L 875.660398 239.558438 
L 875.660398 108.792895 
L 855.369489 108.792895 
z
" clip-path="url(#p1ba46a5721)" style="fill: #86b0a6"/>
   </g>
   <g id="patch_30">
    <path d="M 883.776761 239.558438 
L 904.06767 239.558438 
L 904.06767 105.646689 
L 883.776761 105.646689 
z
" clip-path="url(#p1ba46a5721)" style="fill: #86b0a6"/>
   </g>
   <g id="patch_31">
    <path d="M 912.184034 239.558438 
L 932.474943 239.558438 
L 932.474943 117.842027 
L 912.184034 117.842027 
z
" clip-path="url(#p1ba46a5721)" style="fill: #86b0a6"/>
   </g>
   <g id="patch_32">
    <path d="M 940.591307 239.558438 
L 960.882216 239.558438 
L 960.882216 149.149927 
L 940.591307 149.149927 
z
" clip-path="url(#p1ba46a5721)" style="fill: #86b0a6"/>
   </g>
   <g id="patch_33">
    <path d="M 968.99858 239.558438 
L 989.289489 239.558438 
L 989.289489 159.83161 
L 968.99858 159.83161 
z
" clip-path="url(#p1ba46a5721)" style="fill: #86b0a6"/>
   </g>
   <g id="patch_34">
    <path d="M 997.405852 239.558438 
L 1017.696761 239.558438 
L 1017.696761 169.495716 
L 997.405852 169.495716 
z
" clip-path="url(#p1ba46a5721)" style="fill: #86b0a6"/>
   </g>
   <g id="patch_35">
    <path d="M 1025.813125 239.558438 
L 1046.104034 239.558438 
L 1046.104034 180.543104 
L 1025.813125 180.543104 
z
" clip-path="url(#p1ba46a5721)" style="fill: #86b0a6"/>
   </g>
   <g id="patch_36">
    <path d="M 1054.220398 239.558438 
L 1074.511307 239.558438 
L 1074.511307 198.14119 
L 1054.220398 198.14119 
z
" clip-path="url(#p1ba46a5721)" style="fill: #86b0a6"/>
   </g>
   <g id="patch_37">
    <path d="M 1082.62767 239.558438 
L 1102.91858 239.558438 
L 1102.91858 226.840782 
L 1082.62767 226.840782 
z
" clip-path="url(#p1ba46a5721)" style="fill: #86b0a6"/>
   </g>
   <g id="patch_38">
    <path d="M 1111.034943 239.558438 
L 1131.325852 239.558438 
L 1131.325852 239.250951 
L 1111.034943 239.250951 
z
" clip-path="url(#p1ba46a5721)" style="fill: #86b0a6"/>
   </g>
   <g id="matplotlib.axis_1">
    <g id="xtick_1">
     <g id="line2d_1">
      <defs>
       <path id="m46dd81df91" d="M 0 0 
L 0 3.5 
" style="stroke: #000000; stroke-width: 0.8"/>
      </defs>
      <g>
       <use xlink:href="#m46dd81df91" x="110.693125" y="239.558438" style="stroke: #000000; stroke-width: 0.8"/>
      </g>
     </g>
     <g id="text_1">
      <!-- 2021-09 -->
      <g transform="translate(113.4525 288.34125)rotate(-90)scale(0.1 -0.1)">
       <defs>
        <path id="DejaVuSans-32" d="M 1228 531 
L 3431 531 
L 3431 0 
L 469 0 
L 469 531 
Q 828 903 1448 1529 
Q 2069 2156 2228 2338 
Q 2531 2678 2651 2914 
Q 2772 3150 2772 3378 
Q 2772 3750 2511 3984 
Q 2250 4219 1831 4219 
Q 1534 4219 1204 4116 
Q 875 4013 500 3803 
L 500 4441 
Q 881 4594 1212 4672 
Q 1544 4750 1819 4750 
Q 2544 4750 2975 4387 
Q 3406 4025 3406 3419 
Q 3406 3131 3298 2873 
Q 3191 2616 2906 2266 
Q 2828 2175 2409 1742 
Q 1991 1309 1228 531 
z
" transform="scale(0.015625)"/>
        <path id="DejaVuSans-30" d="M 2034 4250 
Q 1547 4250 1301 3770 
Q 1056 3291 1056 2328 
Q 1056 1369 1301 889 
Q 1547 409 2034 409 
Q 2525 409 2770 889 
Q 3016 1369 3016 2328 
Q 3016 3291 2770 3770 
Q 2525 4250 2034 4250 
z
M 2034 4750 
Q 2819 4750 3233 4129 
Q 3647 3509 3647 2328 
Q 3647 1150 3233 529 
Q 2819 -91 2034 -91 
Q 1250 -91 836 529 
Q 422 1150 422 2328 
Q 422 3509 836 4129 
Q 1250 4750 2034 4750 
z
" transform="scale(0.015625)"/>
        <path id="DejaVuSans-31" d="M 794 531 
L 1825 531 
L 1825 4091 
L 703 3866 
L 703 4441 
L 1819 4666 
L 2450 4666 
L 2450 531 
L 3481 531 
L 3481 0 
L 794 0 
L 794 531 
z
" transform="scale(0.015625)"/>
        <path id="DejaVuSans-2d" d="M 313 2009 
L 1997 2009 
L 1997 1497 
L 313 1497 
L 313 2009 
z
" transform="scale(0.015625)"/>
        <path id="DejaVuSans-39" d="M 703 97 
L 703 672 
Q 941 559 1184 500 
Q 1428 441 1663 441 
Q 2288 441 2617 861 
Q 2947 1281 2994 2138 
Q 2813 1869 2534 1725 
Q 2256 1581 1919 1581 
Q 1219 1581 811 2004 
Q 403 2428 403 3163 
Q 403 3881 828 4315 
Q 1253 4750 1959 4750 
Q 2769 4750 3195 4129 
Q 3622 3509 3622 2328 
Q 3622 1225 3098 567 
Q 2575 -91 1691 -91 
Q 1453 -91 1209 -44 
Q 966 3 703 97 
z
M 1959 2075 
Q 2384 2075 2632 2365 
Q 2881 2656 2881 3163 
Q 2881 3666 2632 3958 
Q 2384 4250 1959 4250 
Q 1534 4250 1286 3958 
Q 1038 3666 1038 3163 
Q 1038 2656 1286 2365 
Q 1534 2075 1959 2075 
z
" transform="scale(0.015625)"/>
       </defs>
       <use xlink:href="#DejaVuSans-32"/>
       <use xlink:href="#DejaVuSans-30" x="63.623047"/>
       <use xlink:href="#DejaVuSans-32" x="127.246094"/>
       <use xlink:href="#DejaVuSans-31" x="190.869141"/>
       <use xlink:href="#DejaVuSans-2d" x="254.492188"/>
       <use xlink:href="#DejaVuSans-30" x="290.576172"/>
       <use xlink:href="#DejaVuSans-39" x="354.199219"/>
      </g>
     </g>
    </g>
    <g id="xtick_2">
     <g id="line2d_2">
      <g>
       <use xlink:href="#m46dd81df91" x="232.43858" y="239.558438" style="stroke: #000000; stroke-width: 0.8"/>
      </g>
     </g>
     <g id="text_2">
      <!-- 2021-10 -->
      <g transform="translate(235.197955 288.34125)rotate(-90)scale(0.1 -0.1)">
       <use xlink:href="#DejaVuSans-32"/>
       <use xlink:href="#DejaVuSans-30" x="63.623047"/>
       <use xlink:href="#DejaVuSans-32" x="127.246094"/>
       <use xlink:href="#DejaVuSans-31" x="190.869141"/>
       <use xlink:href="#DejaVuSans-2d" x="254.492188"/>
       <use xlink:href="#DejaVuSans-31" x="290.576172"/>
       <use xlink:href="#DejaVuSans-30" x="354.199219"/>
      </g>
     </g>
    </g>
    <g id="xtick_3">
     <g id="line2d_3">
      <g>
       <use xlink:href="#m46dd81df91" x="358.242216" y="239.558438" style="stroke: #000000; stroke-width: 0.8"/>
      </g>
     </g>
     <g id="text_3">
      <!-- 2021-11 -->
      <g transform="translate(361.001591 288.34125)rotate(-90)scale(0.1 -0.1)">
       <use xlink:href="#DejaVuSans-32"/>
       <use xlink:href="#DejaVuSans-30" x="63.623047"/>
       <use xlink:href="#DejaVuSans-32" x="127.246094"/>
       <use xlink:href="#DejaVuSans-31" x="190.869141"/>
       <use xlink:href="#DejaVuSans-2d" x="254.492188"/>
       <use xlink:href="#DejaVuSans-31" x="290.576172"/>
       <use xlink:href="#DejaVuSans-31" x="354.199219"/>
      </g>
     </g>
    </g>
    <g id="xtick_4">
     <g id="line2d_4">
      <g>
       <use xlink:href="#m46dd81df91" x="479.98767" y="239.558438" style="stroke: #000000; stroke-width: 0.8"/>
      </g>
     </g>
     <g id="text_4">
      <!-- 2021-12 -->
      <g transform="translate(482.747045 288.34125)rotate(-90)scale(0.1 -0.1)">
       <use xlink:href="#DejaVuSans-32"/>
       <use xlink:href="#DejaVuSans-30" x="63.623047"/>
       <use xlink:href="#DejaVuSans-32" x="127.246094"/>
       <use xlink:href="#DejaVuSans-31" x="190.869141"/>
       <use xlink:href="#DejaVuSans-2d" x="254.492188"/>
       <use xlink:href="#DejaVuSans-31" x="290.576172"/>
       <use xlink:href="#DejaVuSans-32" x="354.199219"/>
      </g>
     </g>
    </g>
    <g id="xtick_5">
     <g id="line2d_5">
      <g>
       <use xlink:href="#m46dd81df91" x="605.791307" y="239.558438" style="stroke: #000000; stroke-width: 0.8"/>
      </g>
     </g>
     <g id="text_5">
      <!-- 2022-01 -->
      <g transform="translate(608.550682 288.34125)rotate(-90)scale(0.1 -0.1)">
       <use xlink:href="#DejaVuSans-32"/>
       <use xlink:href="#DejaVuSans-30" x="63.623047"/>
       <use xlink:href="#DejaVuSans-32" x="127.246094"/>
       <use xlink:href="#DejaVuSans-32" x="190.869141"/>
       <use xlink:href="#DejaVuSans-2d" x="254.492188"/>
       <use xlink:href="#DejaVuSans-30" x="290.576172"/>
       <use xlink:href="#DejaVuSans-31" x="354.199219"/>
      </g>
     </g>
    </g>
    <g id="xtick_6">
     <g id="line2d_6">
      <g>
       <use xlink:href="#m46dd81df91" x="731.594943" y="239.558438" style="stroke: #000000; stroke-width: 0.8"/>
      </g>
     </g>
     <g id="text_6">
      <!-- 2022-02 -->
      <g transform="translate(734.354318 288.34125)rotate(-90)scale(0.1 -0.1)">
       <use xlink:href="#DejaVuSans-32"/>
       <use xlink:href="#DejaVuSans-30" x="63.623047"/>
       <use xlink:href="#DejaVuSans-32" x="127.246094"/>
       <use xlink:href="#DejaVuSans-32" x="190.869141"/>
       <use xlink:href="#DejaVuSans-2d" x="254.492188"/>
       <use xlink:href="#DejaVuSans-30" x="290.576172"/>
       <use xlink:href="#DejaVuSans-32" x="354.199219"/>
      </g>
     </g>
    </g>
    <g id="xtick_7">
     <g id="line2d_7">
      <g>
       <use xlink:href="#m46dd81df91" x="845.224034" y="239.558438" style="stroke: #000000; stroke-width: 0.8"/>
      </g>
     </g>
     <g id="text_7">
      <!-- 2022-03 -->
      <g transform="translate(847.983409 288.34125)rotate(-90)scale(0.1 -0.1)">
       <defs>
        <path id="DejaVuSans-33" d="M 2597 2516 
Q 3050 2419 3304 2112 
Q 3559 1806 3559 1356 
Q 3559 666 3084 287 
Q 2609 -91 1734 -91 
Q 1441 -91 1130 -33 
Q 819 25 488 141 
L 488 750 
Q 750 597 1062 519 
Q 1375 441 1716 441 
Q 2309 441 2620 675 
Q 2931 909 2931 1356 
Q 2931 1769 2642 2001 
Q 2353 2234 1838 2234 
L 1294 2234 
L 1294 2753 
L 1863 2753 
Q 2328 2753 2575 2939 
Q 2822 3125 2822 3475 
Q 2822 3834 2567 4026 
Q 2313 4219 1838 4219 
Q 1578 4219 1281 4162 
Q 984 4106 628 3988 
L 628 4550 
Q 988 4650 1302 4700 
Q 1616 4750 1894 4750 
Q 2613 4750 3031 4423 
Q 3450 4097 3450 3541 
Q 3450 3153 3228 2886 
Q 3006 2619 2597 2516 
z
" transform="scale(0.015625)"/>
       </defs>
       <use xlink:href="#DejaVuSans-32"/>
       <use xlink:href="#DejaVuSans-30" x="63.623047"/>
       <use xlink:href="#DejaVuSans-32" x="127.246094"/>
       <use xlink:href="#DejaVuSans-32" x="190.869141"/>
       <use xlink:href="#DejaVuSans-2d" x="254.492188"/>
       <use xlink:href="#DejaVuSans-30" x="290.576172"/>
       <use xlink:href="#DejaVuSans-33" x="354.199219"/>
      </g>
     </g>
    </g>
    <g id="xtick_8">
     <g id="line2d_8">
      <g>
       <use xlink:href="#m46dd81df91" x="971.02767" y="239.558438" style="stroke: #000000; stroke-width: 0.8"/>
      </g>
     </g>
     <g id="text_8">
      <!-- 2022-04 -->
      <g transform="translate(973.787045 288.34125)rotate(-90)scale(0.1 -0.1)">
       <defs>
        <path id="DejaVuSans-34" d="M 2419 4116 
L 825 1625 
L 2419 1625 
L 2419 4116 
z
M 2253 4666 
L 3047 4666 
L 3047 1625 
L 3713 1625 
L 3713 1100 
L 3047 1100 
L 3047 0 
L 2419 0 
L 2419 1100 
L 313 1100 
L 313 1709 
L 2253 4666 
z
" transform="scale(0.015625)"/>
       </defs>
       <use xlink:href="#DejaVuSans-32"/>
       <use xlink:href="#DejaVuSans-30" x="63.623047"/>
       <use xlink:href="#DejaVuSans-32" x="127.246094"/>
       <use xlink:href="#DejaVuSans-32" x="190.869141"/>
       <use xlink:href="#DejaVuSans-2d" x="254.492188"/>
       <use xlink:href="#DejaVuSans-30" x="290.576172"/>
       <use xlink:href="#DejaVuSans-34" x="354.199219"/>
      </g>
     </g>
    </g>
    <g id="xtick_9">
     <g id="line2d_9">
      <g>
       <use xlink:href="#m46dd81df91" x="1092.773125" y="239.558438" style="stroke: #000000; stroke-width: 0.8"/>
      </g>
     </g>
     <g id="text_9">
      <!-- 2022-05 -->
      <g transform="translate(1095.5325 288.34125)rotate(-90)scale(0.1 -0.1)">
       <defs>
        <path id="DejaVuSans-35" d="M 691 4666 
L 3169 4666 
L 3169 4134 
L 1269 4134 
L 1269 2991 
Q 1406 3038 1543 3061 
Q 1681 3084 1819 3084 
Q 2600 3084 3056 2656 
Q 3513 2228 3513 1497 
Q 3513 744 3044 326 
Q 2575 -91 1722 -91 
Q 1428 -91 1123 -41 
Q 819 9 494 109 
L 494 744 
Q 775 591 1075 516 
Q 1375 441 1709 441 
Q 2250 441 2565 725 
Q 2881 1009 2881 1497 
Q 2881 1984 2565 2268 
Q 2250 2553 1709 2553 
Q 1456 2553 1204 2497 
Q 953 2441 691 2322 
L 691 4666 
z
" transform="scale(0.015625)"/>
       </defs>
       <use xlink:href="#DejaVuSans-32"/>
       <use xlink:href="#DejaVuSans-30" x="63.623047"/>
       <use xlink:href="#DejaVuSans-32" x="127.246094"/>
       <use xlink:href="#DejaVuSans-32" x="190.869141"/>
       <use xlink:href="#DejaVuSans-2d" x="254.492188"/>
       <use xlink:href="#DejaVuSans-30" x="290.576172"/>
       <use xlink:href="#DejaVuSans-35" x="354.199219"/>
      </g>
     </g>
    </g>
    <g id="text_10">
     <!-- Date -->
     <g transform="translate(612.102344 299.939687)scale(0.1 -0.1)">
      <defs>
       <path id="DejaVuSans-44" d="M 1259 4147 
L 1259 519 
L 2022 519 
Q 2988 519 3436 956 
Q 3884 1394 3884 2338 
Q 3884 3275 3436 3711 
Q 2988 4147 2022 4147 
L 1259 4147 
z
M 628 4666 
L 1925 4666 
Q 3281 4666 3915 4102 
Q 4550 3538 4550 2338 
Q 4550 1131 3912 565 
Q 3275 0 1925 0 
L 628 0 
L 628 4666 
z
" transform="scale(0.015625)"/>
       <path id="DejaVuSans-61" d="M 2194 1759 
Q 1497 1759 1228 1600 
Q 959 1441 959 1056 
Q 959 750 1161 570 
Q 1363 391 1709 391 
Q 2188 391 2477 730 
Q 2766 1069 2766 1631 
L 2766 1759 
L 2194 1759 
z
M 3341 1997 
L 3341 0 
L 2766 0 
L 2766 531 
Q 2569 213 2275 61 
Q 1981 -91 1556 -91 
Q 1019 -91 701 211 
Q 384 513 384 1019 
Q 384 1609 779 1909 
Q 1175 2209 1959 2209 
L 2766 2209 
L 2766 2266 
Q 2766 2663 2505 2880 
Q 2244 3097 1772 3097 
Q 1472 3097 1187 3025 
Q 903 2953 641 2809 
L 641 3341 
Q 956 3463 1253 3523 
Q 1550 3584 1831 3584 
Q 2591 3584 2966 3190 
Q 3341 2797 3341 1997 
z
" transform="scale(0.015625)"/>
       <path id="DejaVuSans-74" d="M 1172 4494 
L 1172 3500 
L 2356 3500 
L 2356 3053 
L 1172 3053 
L 1172 1153 
Q 1172 725 1289 603 
Q 1406 481 1766 481 
L 2356 481 
L 2356 0 
L 1766 0 
Q 1100 0 847 248 
Q 594 497 594 1153 
L 594 3053 
L 172 3053 
L 172 3500 
L 594 3500 
L 594 4494 
L 1172 4494 
z
" transform="scale(0.015625)"/>
       <path id="DejaVuSans-65" d="M 3597 1894 
L 3597 1613 
L 953 1613 
Q 991 1019 1311 708 
Q 1631 397 2203 397 
Q 2534 397 2845 478 
Q 3156 559 3463 722 
L 3463 178 
Q 3153 47 2828 -22 
Q 2503 -91 2169 -91 
Q 1331 -91 842 396 
Q 353 884 353 1716 
Q 353 2575 817 3079 
Q 1281 3584 2069 3584 
Q 2775 3584 3186 3129 
Q 3597 2675 3597 1894 
z
M 3022 2063 
Q 3016 2534 2758 2815 
Q 2500 3097 2075 3097 
Q 1594 3097 1305 2825 
Q 1016 2553 972 2059 
L 3022 2063 
z
" transform="scale(0.015625)"/>
      </defs>
      <use xlink:href="#DejaVuSans-44"/>
      <use xlink:href="#DejaVuSans-61" x="77.001953"/>
      <use xlink:href="#DejaVuSans-74" x="138.28125"/>
      <use xlink:href="#DejaVuSans-65" x="177.490234"/>
     </g>
    </g>
   </g>
   <g id="matplotlib.axis_2">
    <g id="ytick_1">
     <g id="line2d_10">
      <defs>
       <path id="ma50cf7b2f4" d="M 0 0 
L -3.5 0 
" style="stroke: #000000; stroke-width: 0.8"/>
      </defs>
      <g>
       <use xlink:href="#ma50cf7b2f4" x="66.053125" y="239.558438" style="stroke: #000000; stroke-width: 0.8"/>
      </g>
     </g>
     <g id="text_11">
      <!-- 0 -->
      <g transform="translate(52.690625 243.357656)scale(0.1 -0.1)">
       <use xlink:href="#DejaVuSans-30"/>
      </g>
     </g>
    </g>
    <g id="ytick_2">
     <g id="line2d_11">
      <g>
       <use xlink:href="#ma50cf7b2f4" x="66.053125" y="198.560192" style="stroke: #000000; stroke-width: 0.8"/>
      </g>
     </g>
     <g id="text_12">
      <!-- 50000 -->
      <g transform="translate(27.240625 202.359411)scale(0.1 -0.1)">
       <use xlink:href="#DejaVuSans-35"/>
       <use xlink:href="#DejaVuSans-30" x="63.623047"/>
       <use xlink:href="#DejaVuSans-30" x="127.246094"/>
       <use xlink:href="#DejaVuSans-30" x="190.869141"/>
       <use xlink:href="#DejaVuSans-30" x="254.492188"/>
      </g>
     </g>
    </g>
    <g id="ytick_3">
     <g id="line2d_12">
      <g>
       <use xlink:href="#ma50cf7b2f4" x="66.053125" y="157.561947" style="stroke: #000000; stroke-width: 0.8"/>
      </g>
     </g>
     <g id="text_13">
      <!-- 100000 -->
      <g transform="translate(20.878125 161.361166)scale(0.1 -0.1)">
       <use xlink:href="#DejaVuSans-31"/>
       <use xlink:href="#DejaVuSans-30" x="63.623047"/>
       <use xlink:href="#DejaVuSans-30" x="127.246094"/>
       <use xlink:href="#DejaVuSans-30" x="190.869141"/>
       <use xlink:href="#DejaVuSans-30" x="254.492188"/>
       <use xlink:href="#DejaVuSans-30" x="318.115234"/>
      </g>
     </g>
    </g>
    <g id="ytick_4">
     <g id="line2d_13">
      <g>
       <use xlink:href="#ma50cf7b2f4" x="66.053125" y="116.563702" style="stroke: #000000; stroke-width: 0.8"/>
      </g>
     </g>
     <g id="text_14">
      <!-- 150000 -->
      <g transform="translate(20.878125 120.362921)scale(0.1 -0.1)">
       <use xlink:href="#DejaVuSans-31"/>
       <use xlink:href="#DejaVuSans-35" x="63.623047"/>
       <use xlink:href="#DejaVuSans-30" x="127.246094"/>
       <use xlink:href="#DejaVuSans-30" x="190.869141"/>
       <use xlink:href="#DejaVuSans-30" x="254.492188"/>
       <use xlink:href="#DejaVuSans-30" x="318.115234"/>
      </g>
     </g>
    </g>
    <g id="ytick_5">
     <g id="line2d_14">
      <g>
       <use xlink:href="#ma50cf7b2f4" x="66.053125" y="75.565457" style="stroke: #000000; stroke-width: 0.8"/>
      </g>
     </g>
     <g id="text_15">
      <!-- 200000 -->
      <g transform="translate(20.878125 79.364676)scale(0.1 -0.1)">
       <use xlink:href="#DejaVuSans-32"/>
       <use xlink:href="#DejaVuSans-30" x="63.623047"/>
       <use xlink:href="#DejaVuSans-30" x="127.246094"/>
       <use xlink:href="#DejaVuSans-30" x="190.869141"/>
       <use xlink:href="#DejaVuSans-30" x="254.492188"/>
       <use xlink:href="#DejaVuSans-30" x="318.115234"/>
      </g>
     </g>
    </g>
    <g id="ytick_6">
     <g id="line2d_15">
      <g>
       <use xlink:href="#ma50cf7b2f4" x="66.053125" y="34.567212" style="stroke: #000000; stroke-width: 0.8"/>
      </g>
     </g>
     <g id="text_16">
      <!-- 250000 -->
      <g transform="translate(20.878125 38.36643)scale(0.1 -0.1)">
       <use xlink:href="#DejaVuSans-32"/>
       <use xlink:href="#DejaVuSans-35" x="63.623047"/>
       <use xlink:href="#DejaVuSans-30" x="127.246094"/>
       <use xlink:href="#DejaVuSans-30" x="190.869141"/>
       <use xlink:href="#DejaVuSans-30" x="254.492188"/>
       <use xlink:href="#DejaVuSans-30" x="318.115234"/>
      </g>
     </g>
    </g>
    <g id="text_17">
     <!-- Sequence count -->
     <g transform="translate(14.798438 169.038594)rotate(-90)scale(0.1 -0.1)">
      <defs>
       <path id="DejaVuSans-53" d="M 3425 4513 
L 3425 3897 
Q 3066 4069 2747 4153 
Q 2428 4238 2131 4238 
Q 1616 4238 1336 4038 
Q 1056 3838 1056 3469 
Q 1056 3159 1242 3001 
Q 1428 2844 1947 2747 
L 2328 2669 
Q 3034 2534 3370 2195 
Q 3706 1856 3706 1288 
Q 3706 609 3251 259 
Q 2797 -91 1919 -91 
Q 1588 -91 1214 -16 
Q 841 59 441 206 
L 441 856 
Q 825 641 1194 531 
Q 1563 422 1919 422 
Q 2459 422 2753 634 
Q 3047 847 3047 1241 
Q 3047 1584 2836 1778 
Q 2625 1972 2144 2069 
L 1759 2144 
Q 1053 2284 737 2584 
Q 422 2884 422 3419 
Q 422 4038 858 4394 
Q 1294 4750 2059 4750 
Q 2388 4750 2728 4690 
Q 3069 4631 3425 4513 
z
" transform="scale(0.015625)"/>
       <path id="DejaVuSans-71" d="M 947 1747 
Q 947 1113 1208 752 
Q 1469 391 1925 391 
Q 2381 391 2643 752 
Q 2906 1113 2906 1747 
Q 2906 2381 2643 2742 
Q 2381 3103 1925 3103 
Q 1469 3103 1208 2742 
Q 947 2381 947 1747 
z
M 2906 525 
Q 2725 213 2448 61 
Q 2172 -91 1784 -91 
Q 1150 -91 751 415 
Q 353 922 353 1747 
Q 353 2572 751 3078 
Q 1150 3584 1784 3584 
Q 2172 3584 2448 3432 
Q 2725 3281 2906 2969 
L 2906 3500 
L 3481 3500 
L 3481 -1331 
L 2906 -1331 
L 2906 525 
z
" transform="scale(0.015625)"/>
       <path id="DejaVuSans-75" d="M 544 1381 
L 544 3500 
L 1119 3500 
L 1119 1403 
Q 1119 906 1312 657 
Q 1506 409 1894 409 
Q 2359 409 2629 706 
Q 2900 1003 2900 1516 
L 2900 3500 
L 3475 3500 
L 3475 0 
L 2900 0 
L 2900 538 
Q 2691 219 2414 64 
Q 2138 -91 1772 -91 
Q 1169 -91 856 284 
Q 544 659 544 1381 
z
M 1991 3584 
L 1991 3584 
z
" transform="scale(0.015625)"/>
       <path id="DejaVuSans-6e" d="M 3513 2113 
L 3513 0 
L 2938 0 
L 2938 2094 
Q 2938 2591 2744 2837 
Q 2550 3084 2163 3084 
Q 1697 3084 1428 2787 
Q 1159 2491 1159 1978 
L 1159 0 
L 581 0 
L 581 3500 
L 1159 3500 
L 1159 2956 
Q 1366 3272 1645 3428 
Q 1925 3584 2291 3584 
Q 2894 3584 3203 3211 
Q 3513 2838 3513 2113 
z
" transform="scale(0.015625)"/>
       <path id="DejaVuSans-63" d="M 3122 3366 
L 3122 2828 
Q 2878 2963 2633 3030 
Q 2388 3097 2138 3097 
Q 1578 3097 1268 2742 
Q 959 2388 959 1747 
Q 959 1106 1268 751 
Q 1578 397 2138 397 
Q 2388 397 2633 464 
Q 2878 531 3122 666 
L 3122 134 
Q 2881 22 2623 -34 
Q 2366 -91 2075 -91 
Q 1284 -91 818 406 
Q 353 903 353 1747 
Q 353 2603 823 3093 
Q 1294 3584 2113 3584 
Q 2378 3584 2631 3529 
Q 2884 3475 3122 3366 
z
" transform="scale(0.015625)"/>
       <path id="DejaVuSans-20" transform="scale(0.015625)"/>
       <path id="DejaVuSans-6f" d="M 1959 3097 
Q 1497 3097 1228 2736 
Q 959 2375 959 1747 
Q 959 1119 1226 758 
Q 1494 397 1959 397 
Q 2419 397 2687 759 
Q 2956 1122 2956 1747 
Q 2956 2369 2687 2733 
Q 2419 3097 1959 3097 
z
M 1959 3584 
Q 2709 3584 3137 3096 
Q 3566 2609 3566 1747 
Q 3566 888 3137 398 
Q 2709 -91 1959 -91 
Q 1206 -91 779 398 
Q 353 888 353 1747 
Q 353 2609 779 3096 
Q 1206 3584 1959 3584 
z
" transform="scale(0.015625)"/>
      </defs>
      <use xlink:href="#DejaVuSans-53"/>
      <use xlink:href="#DejaVuSans-65" x="63.476562"/>
      <use xlink:href="#DejaVuSans-71" x="125"/>
      <use xlink:href="#DejaVuSans-75" x="188.476562"/>
      <use xlink:href="#DejaVuSans-65" x="251.855469"/>
      <use xlink:href="#DejaVuSans-6e" x="313.378906"/>
      <use xlink:href="#DejaVuSans-63" x="376.757812"/>
      <use xlink:href="#DejaVuSans-65" x="431.738281"/>
      <use xlink:href="#DejaVuSans-20" x="493.261719"/>
      <use xlink:href="#DejaVuSans-63" x="525.048828"/>
      <use xlink:href="#DejaVuSans-6f" x="580.029297"/>
      <use xlink:href="#DejaVuSans-75" x="641.210938"/>
      <use xlink:href="#DejaVuSans-6e" x="704.589844"/>
      <use xlink:href="#DejaVuSans-74" x="767.96875"/>
     </g>
    </g>
   </g>
   <g id="patch_39">
    <path d="M 66.053125 239.558438 
L 66.053125 17.798437 
" style="fill: none; stroke: #000000; stroke-width: 0.8; stroke-linejoin: miter; stroke-linecap: square"/>
   </g>
   <g id="patch_40">
    <path d="M 1182.053125 239.558438 
L 1182.053125 17.798437 
" style="fill: none; stroke: #000000; stroke-width: 0.8; stroke-linejoin: miter; stroke-linecap: square"/>
   </g>
   <g id="patch_41">
    <path d="M 66.053125 239.558438 
L 1182.053125 239.558438 
" style="fill: none; stroke: #000000; stroke-width: 0.8; stroke-linejoin: miter; stroke-linecap: square"/>
   </g>
  </g>
  <g id="axes_2">
   <g id="matplotlib.axis_3">
    <g id="ytick_7">
     <g id="line2d_16">
      <defs>
       <path id="m99e6983a1d" d="M 0 0 
L 3.5 0 
" style="stroke: #000000; stroke-width: 0.8"/>
      </defs>
      <g>
       <use xlink:href="#m99e6983a1d" x="1182.053125" y="229.478499" style="stroke: #000000; stroke-width: 0.8"/>
      </g>
     </g>
     <g id="text_18">
      <!-- 0.0 -->
      <g transform="translate(1189.053125 233.277718)scale(0.1 -0.1)">
       <defs>
        <path id="DejaVuSans-2e" d="M 684 794 
L 1344 794 
L 1344 0 
L 684 0 
L 684 794 
z
" transform="scale(0.015625)"/>
       </defs>
       <use xlink:href="#DejaVuSans-30"/>
       <use xlink:href="#DejaVuSans-2e" x="63.623047"/>
       <use xlink:href="#DejaVuSans-30" x="95.410156"/>
      </g>
     </g>
    </g>
    <g id="ytick_8">
     <g id="line2d_17">
      <g>
       <use xlink:href="#m99e6983a1d" x="1182.053125" y="198.787887" style="stroke: #000000; stroke-width: 0.8"/>
      </g>
     </g>
     <g id="text_19">
      <!-- 0.5 -->
      <g transform="translate(1189.053125 202.587106)scale(0.1 -0.1)">
       <use xlink:href="#DejaVuSans-30"/>
       <use xlink:href="#DejaVuSans-2e" x="63.623047"/>
       <use xlink:href="#DejaVuSans-35" x="95.410156"/>
      </g>
     </g>
    </g>
    <g id="ytick_9">
     <g id="line2d_18">
      <g>
       <use xlink:href="#m99e6983a1d" x="1182.053125" y="168.097275" style="stroke: #000000; stroke-width: 0.8"/>
      </g>
     </g>
     <g id="text_20">
      <!-- 1.0 -->
      <g transform="translate(1189.053125 171.896494)scale(0.1 -0.1)">
       <use xlink:href="#DejaVuSans-31"/>
       <use xlink:href="#DejaVuSans-2e" x="63.623047"/>
       <use xlink:href="#DejaVuSans-30" x="95.410156"/>
      </g>
     </g>
    </g>
    <g id="ytick_10">
     <g id="line2d_19">
      <g>
       <use xlink:href="#m99e6983a1d" x="1182.053125" y="137.406663" style="stroke: #000000; stroke-width: 0.8"/>
      </g>
     </g>
     <g id="text_21">
      <!-- 1.5 -->
      <g transform="translate(1189.053125 141.205882)scale(0.1 -0.1)">
       <use xlink:href="#DejaVuSans-31"/>
       <use xlink:href="#DejaVuSans-2e" x="63.623047"/>
       <use xlink:href="#DejaVuSans-35" x="95.410156"/>
      </g>
     </g>
    </g>
    <g id="ytick_11">
     <g id="line2d_20">
      <g>
       <use xlink:href="#m99e6983a1d" x="1182.053125" y="106.716052" style="stroke: #000000; stroke-width: 0.8"/>
      </g>
     </g>
     <g id="text_22">
      <!-- 2.0 -->
      <g transform="translate(1189.053125 110.51527)scale(0.1 -0.1)">
       <use xlink:href="#DejaVuSans-32"/>
       <use xlink:href="#DejaVuSans-2e" x="63.623047"/>
       <use xlink:href="#DejaVuSans-30" x="95.410156"/>
      </g>
     </g>
    </g>
    <g id="ytick_12">
     <g id="line2d_21">
      <g>
       <use xlink:href="#m99e6983a1d" x="1182.053125" y="76.02544" style="stroke: #000000; stroke-width: 0.8"/>
      </g>
     </g>
     <g id="text_23">
      <!-- 2.5 -->
      <g transform="translate(1189.053125 79.824658)scale(0.1 -0.1)">
       <use xlink:href="#DejaVuSans-32"/>
       <use xlink:href="#DejaVuSans-2e" x="63.623047"/>
       <use xlink:href="#DejaVuSans-35" x="95.410156"/>
      </g>
     </g>
    </g>
    <g id="ytick_13">
     <g id="line2d_22">
      <g>
       <use xlink:href="#m99e6983a1d" x="1182.053125" y="45.334828" style="stroke: #000000; stroke-width: 0.8"/>
      </g>
     </g>
     <g id="text_24">
      <!-- 3.0 -->
      <g transform="translate(1189.053125 49.134047)scale(0.1 -0.1)">
       <use xlink:href="#DejaVuSans-33"/>
       <use xlink:href="#DejaVuSans-2e" x="63.623047"/>
       <use xlink:href="#DejaVuSans-30" x="95.410156"/>
      </g>
     </g>
    </g>
    <g id="text_25">
     <!-- Total -->
     <g transform="translate(1216.554688 140.355)rotate(-90)scale(0.1 -0.1)">
      <defs>
       <path id="DejaVuSans-54" d="M -19 4666 
L 3928 4666 
L 3928 4134 
L 2272 4134 
L 2272 0 
L 1638 0 
L 1638 4134 
L -19 4134 
L -19 4666 
z
" transform="scale(0.015625)"/>
       <path id="DejaVuSans-6c" d="M 603 4863 
L 1178 4863 
L 1178 0 
L 603 0 
L 603 4863 
z
" transform="scale(0.015625)"/>
      </defs>
      <use xlink:href="#DejaVuSans-54"/>
      <use xlink:href="#DejaVuSans-6f" x="44.083984"/>
      <use xlink:href="#DejaVuSans-74" x="105.265625"/>
      <use xlink:href="#DejaVuSans-61" x="144.474609"/>
      <use xlink:href="#DejaVuSans-6c" x="205.753906"/>
     </g>
    </g>
    <g id="text_26">
     <!-- 1e6 -->
     <g transform="translate(1163.175 14.798437)scale(0.1 -0.1)">
      <defs>
       <path id="DejaVuSans-36" d="M 2113 2584 
Q 1688 2584 1439 2293 
Q 1191 2003 1191 1497 
Q 1191 994 1439 701 
Q 1688 409 2113 409 
Q 2538 409 2786 701 
Q 3034 994 3034 1497 
Q 3034 2003 2786 2293 
Q 2538 2584 2113 2584 
z
M 3366 4563 
L 3366 3988 
Q 3128 4100 2886 4159 
Q 2644 4219 2406 4219 
Q 1781 4219 1451 3797 
Q 1122 3375 1075 2522 
Q 1259 2794 1537 2939 
Q 1816 3084 2150 3084 
Q 2853 3084 3261 2657 
Q 3669 2231 3669 1497 
Q 3669 778 3244 343 
Q 2819 -91 2113 -91 
Q 1303 -91 875 529 
Q 447 1150 447 2328 
Q 447 3434 972 4092 
Q 1497 4750 2381 4750 
Q 2619 4750 2861 4703 
Q 3103 4656 3366 4563 
z
" transform="scale(0.015625)"/>
      </defs>
      <use xlink:href="#DejaVuSans-31"/>
      <use xlink:href="#DejaVuSans-65" x="63.623047"/>
      <use xlink:href="#DejaVuSans-36" x="125.146484"/>
     </g>
    </g>
   </g>
   <g id="line2d_23">
    <path d="M 135.042216 229.478438 
L 467.813125 229.372432 
L 496.220398 229.075899 
L 508.394943 228.624686 
L 520.569489 227.962996 
L 524.62767 227.664684 
L 528.685852 227.087332 
L 532.744034 226.282133 
L 536.802216 225.306049 
L 553.034943 221.965007 
L 561.151307 219.022637 
L 565.209489 217.412853 
L 569.26767 215.972788 
L 573.325852 215.171027 
L 577.384034 214.672181 
L 581.442216 213.523984 
L 593.616761 206.510075 
L 597.674943 204.314407 
L 601.733125 203.058915 
L 605.791307 202.156489 
L 609.849489 200.472802 
L 617.965852 194.406434 
L 622.024034 191.940443 
L 626.082216 189.78363 
L 630.140398 187.773333 
L 634.19858 186.346404 
L 638.256761 185.118964 
L 642.314943 182.356747 
L 646.373125 179.748168 
L 654.489489 175.266664 
L 658.54767 173.06897 
L 662.605852 171.527504 
L 666.664034 170.147899 
L 678.83858 161.750088 
L 682.896761 159.520968 
L 686.954943 157.440881 
L 695.071307 154.566091 
L 699.129489 151.821491 
L 703.18767 149.467828 
L 711.304034 145.349578 
L 715.362216 143.618014 
L 723.47858 140.721188 
L 727.536761 137.868557 
L 739.711307 131.363989 
L 743.769489 129.502603 
L 751.885852 126.517696 
L 755.944034 123.799981 
L 760.002216 121.537653 
L 768.11858 117.801009 
L 772.176761 116.064412 
L 776.234943 114.627846 
L 780.293125 113.389173 
L 784.351307 110.873893 
L 788.409489 108.829223 
L 796.525852 105.327117 
L 800.584034 103.79762 
L 804.642216 102.564594 
L 808.700398 101.452305 
L 812.75858 99.169721 
L 816.816761 97.295998 
L 820.874943 95.712178 
L 824.933125 94.392666 
L 828.991307 93.226177 
L 837.10767 91.548076 
L 841.165852 89.939029 
L 849.282216 87.097508 
L 853.340398 85.627059 
L 857.39858 84.325102 
L 865.514943 82.175531 
L 869.573125 80.050882 
L 873.631307 78.559932 
L 877.689489 76.881094 
L 885.805852 74.427134 
L 889.864034 73.488431 
L 893.922216 72.352019 
L 897.980398 70.218899 
L 906.096761 67.24148 
L 910.154943 65.808228 
L 918.271307 63.464018 
L 922.329489 62.510767 
L 926.38767 60.668962 
L 930.445852 59.200969 
L 942.620398 55.38453 
L 950.736761 53.429599 
L 954.794943 51.500326 
L 962.911307 49.717018 
L 971.02767 48.152533 
L 979.144034 47.042208 
L 983.202216 45.671688 
L 987.260398 44.702172 
L 999.434943 42.201992 
L 1007.551307 41.060055 
L 1011.609489 39.791612 
L 1015.66767 38.915825 
L 1023.784034 37.508354 
L 1031.900398 36.371696 
L 1035.95858 35.971368 
L 1040.016761 35.220675 
L 1044.074943 34.259936 
L 1052.191307 32.970992 
L 1060.30767 31.953905 
L 1064.365852 31.538232 
L 1068.424034 30.846097 
L 1072.482216 30.267456 
L 1080.59858 29.443536 
L 1084.656761 29.069049 
L 1104.94767 28.079093 
L 1113.064034 27.932392 
L 1129.296761 27.878437 
L 1129.296761 27.878437 
" clip-path="url(#p1ba46a5721)" style="fill: none; stroke: #696969; stroke-width: 3; stroke-linecap: square"/>
   </g>
   <g id="patch_42">
    <path d="M 66.053125 239.558438 
L 66.053125 17.798437 
" style="fill: none; stroke: #000000; stroke-width: 0.8; stroke-linejoin: miter; stroke-linecap: square"/>
   </g>
   <g id="patch_43">
    <path d="M 1182.053125 239.558438 
L 1182.053125 17.798437 
" style="fill: none; stroke: #000000; stroke-width: 0.8; stroke-linejoin: miter; stroke-linecap: square"/>
   </g>
   <g id="patch_44">
    <path d="M 66.053125 239.558438 
L 1182.053125 239.558438 
" style="fill: none; stroke: #000000; stroke-width: 0.8; stroke-linejoin: miter; stroke-linecap: square"/>
   </g>
  </g>
 </g>
 <defs>
  <clipPath id="p1ba46a5721">
   <rect x="66.053125" y="17.798437" width="1116" height="221.76"/>
  </clipPath>
 </defs>
</svg>
