<?xml version="1.0" encoding="utf-8" standalone="no"?>
<!DOCTYPE svg PUBLIC "-//W3C//DTD SVG 1.1//EN"
  "http://www.w3.org/Graphics/SVG/1.1/DTD/svg11.dtd">
<svg xmlns:xlink="http://www.w3.org/1999/xlink" width="1229.01875pt" height="298.620937pt" viewBox="0 0 1229.01875 298.620937" xmlns="http://www.w3.org/2000/svg" version="1.1">
 <metadata>
  <rdf:RDF xmlns:dc="http://purl.org/dc/elements/1.1/" xmlns:cc="http://creativecommons.org/ns#" xmlns:rdf="http://www.w3.org/1999/02/22-rdf-syntax-ns#">
   <cc:Work>
    <dc:type rdf:resource="http://purl.org/dc/dcmitype/StillImage"/>
    <dc:date>2024-01-26T12:11:01.497378</dc:date>
    <dc:format>image/svg+xml</dc:format>
    <dc:creator>
     <cc:Agent>
      <dc:title>Matplotlib v3.5.3, https://matplotlib.org/</dc:title>
     </cc:Agent>
    </dc:creator>
   </cc:Work>
  </rdf:RDF>
 </metadata>
 <defs>
  <style type="text/css">*{stroke-linejoin: round; stroke-linecap: butt}</style>
 </defs>
 <g id="figure_1">
  <g id="patch_1">
   <path d="M 0 298.620937 
L 1229.01875 298.620937 
L 1229.01875 0 
L 0 0 
z
" style="fill: #ffffff"/>
  </g>
  <g id="axes_1">
   <g id="patch_2">
    <path d="M 53.328125 228.96 
L 1169.328125 228.96 
L 1169.328125 7.2 
L 53.328125 7.2 
z
" style="fill: #ffffff"/>
   </g>
   <g id="patch_3">
    <path d="M 104.055398 228.96 
L 108.679579 228.96 
L 108.679579 227.517746 
L 104.055398 227.517746 
z
" clip-path="url(#pec30109ba0)" style="fill: #86b0a6"/>
   </g>
   <g id="patch_4">
    <path d="M 110.529252 228.96 
L 115.153434 228.96 
L 115.153434 226.706479 
L 110.529252 226.706479 
z
" clip-path="url(#pec30109ba0)" style="fill: #86b0a6"/>
   </g>
   <g id="patch_5">
    <path d="M 117.003106 228.96 
L 121.627288 228.96 
L 121.627288 225.71493 
L 117.003106 225.71493 
z
" clip-path="url(#pec30109ba0)" style="fill: #86b0a6"/>
   </g>
   <g id="patch_6">
    <path d="M 123.476961 228.96 
L 128.101142 228.96 
L 128.101142 227.067042 
L 123.476961 227.067042 
z
" clip-path="url(#pec30109ba0)" style="fill: #86b0a6"/>
   </g>
   <g id="patch_7">
    <path d="M 129.950815 228.96 
L 134.574997 228.96 
L 134.574997 225.71493 
L 129.950815 225.71493 
z
" clip-path="url(#pec30109ba0)" style="fill: #86b0a6"/>
   </g>
   <g id="patch_8">
    <path d="M 136.424669 228.96 
L 141.048851 228.96 
L 141.048851 227.968451 
L 136.424669 227.968451 
z
" clip-path="url(#pec30109ba0)" style="fill: #86b0a6"/>
   </g>
   <g id="patch_9">
    <path d="M 142.898524 228.96 
L 147.522705 228.96 
L 147.522705 226.706479 
L 142.898524 226.706479 
z
" clip-path="url(#pec30109ba0)" style="fill: #86b0a6"/>
   </g>
   <g id="patch_10">
    <path d="M 149.372378 228.96 
L 153.99656 228.96 
L 153.99656 222.56 
L 149.372378 222.56 
z
" clip-path="url(#pec30109ba0)" style="fill: #86b0a6"/>
   </g>
   <g id="patch_11">
    <path d="M 155.846232 228.96 
L 160.470414 228.96 
L 160.470414 222.740282 
L 155.846232 222.740282 
z
" clip-path="url(#pec30109ba0)" style="fill: #86b0a6"/>
   </g>
   <g id="patch_12">
    <path d="M 162.320087 228.96 
L 166.944268 228.96 
L 166.944268 218.503662 
L 162.320087 218.503662 
z
" clip-path="url(#pec30109ba0)" style="fill: #86b0a6"/>
   </g>
   <g id="patch_13">
    <path d="M 168.793941 228.96 
L 173.418123 228.96 
L 173.418123 221.117746 
L 168.793941 221.117746 
z
" clip-path="url(#pec30109ba0)" style="fill: #86b0a6"/>
   </g>
   <g id="patch_14">
    <path d="M 175.267795 228.96 
L 179.891977 228.96 
L 179.891977 216.16 
L 175.267795 216.16 
z
" clip-path="url(#pec30109ba0)" style="fill: #86b0a6"/>
   </g>
   <g id="patch_15">
    <path d="M 181.741649 228.96 
L 186.365831 228.96 
L 186.365831 215.07831 
L 181.741649 215.07831 
z
" clip-path="url(#pec30109ba0)" style="fill: #86b0a6"/>
   </g>
   <g id="patch_16">
    <path d="M 188.215504 228.96 
L 192.839685 228.96 
L 192.839685 213.275493 
L 188.215504 213.275493 
z
" clip-path="url(#pec30109ba0)" style="fill: #86b0a6"/>
   </g>
   <g id="patch_17">
    <path d="M 194.689358 228.96 
L 199.31354 228.96 
L 199.31354 206.064225 
L 194.689358 206.064225 
z
" clip-path="url(#pec30109ba0)" style="fill: #86b0a6"/>
   </g>
   <g id="patch_18">
    <path d="M 201.163212 228.96 
L 205.787394 228.96 
L 205.787394 199.844507 
L 201.163212 199.844507 
z
" clip-path="url(#pec30109ba0)" style="fill: #86b0a6"/>
   </g>
   <g id="patch_19">
    <path d="M 207.637067 228.96 
L 212.261248 228.96 
L 212.261248 189.568451 
L 207.637067 189.568451 
z
" clip-path="url(#pec30109ba0)" style="fill: #86b0a6"/>
   </g>
   <g id="patch_20">
    <path d="M 214.110921 228.96 
L 218.735103 228.96 
L 218.735103 175.776901 
L 214.110921 175.776901 
z
" clip-path="url(#pec30109ba0)" style="fill: #86b0a6"/>
   </g>
   <g id="patch_21">
    <path d="M 220.584775 228.96 
L 225.208957 228.96 
L 225.208957 159.281127 
L 220.584775 159.281127 
z
" clip-path="url(#pec30109ba0)" style="fill: #86b0a6"/>
   </g>
   <g id="patch_22">
    <path d="M 227.05863 228.96 
L 231.682811 228.96 
L 231.682811 155.40507 
L 227.05863 155.40507 
z
" clip-path="url(#pec30109ba0)" style="fill: #86b0a6"/>
   </g>
   <g id="patch_23">
    <path d="M 233.532484 228.96 
L 238.156666 228.96 
L 238.156666 169.286761 
L 233.532484 169.286761 
z
" clip-path="url(#pec30109ba0)" style="fill: #86b0a6"/>
   </g>
   <g id="patch_24">
    <path d="M 240.006338 228.96 
L 244.63052 228.96 
L 244.63052 146.84169 
L 240.006338 146.84169 
z
" clip-path="url(#pec30109ba0)" style="fill: #86b0a6"/>
   </g>
   <g id="patch_25">
    <path d="M 246.480193 228.96 
L 251.104374 228.96 
L 251.104374 155.31493 
L 246.480193 155.31493 
z
" clip-path="url(#pec30109ba0)" style="fill: #86b0a6"/>
   </g>
   <g id="patch_26">
    <path d="M 252.954047 228.96 
L 257.578229 228.96 
L 257.578229 141.52338 
L 252.954047 141.52338 
z
" clip-path="url(#pec30109ba0)" style="fill: #86b0a6"/>
   </g>
   <g id="patch_27">
    <path d="M 259.427901 228.96 
L 264.052083 228.96 
L 264.052083 125.568451 
L 259.427901 125.568451 
z
" clip-path="url(#pec30109ba0)" style="fill: #86b0a6"/>
   </g>
   <g id="patch_28">
    <path d="M 265.901756 228.96 
L 270.525937 228.96 
L 270.525937 108.44169 
L 265.901756 108.44169 
z
" clip-path="url(#pec30109ba0)" style="fill: #86b0a6"/>
   </g>
   <g id="patch_29">
    <path d="M 272.37561 228.96 
L 276.999792 228.96 
L 276.999792 82.390986 
L 272.37561 82.390986 
z
" clip-path="url(#pec30109ba0)" style="fill: #86b0a6"/>
   </g>
   <g id="patch_30">
    <path d="M 278.849464 228.96 
L 283.473646 228.96 
L 283.473646 49.850141 
L 278.849464 49.850141 
z
" clip-path="url(#pec30109ba0)" style="fill: #86b0a6"/>
   </g>
   <g id="patch_31">
    <path d="M 285.323319 228.96 
L 289.9475 228.96 
L 289.9475 22.898028 
L 285.323319 22.898028 
z
" clip-path="url(#pec30109ba0)" style="fill: #86b0a6"/>
   </g>
   <g id="patch_32">
    <path d="M 291.797173 228.96 
L 296.421354 228.96 
L 296.421354 41.016338 
L 291.797173 41.016338 
z
" clip-path="url(#pec30109ba0)" style="fill: #86b0a6"/>
   </g>
   <g id="patch_33">
    <path d="M 298.271027 228.96 
L 302.895209 228.96 
L 302.895209 17.76 
L 298.271027 17.76 
z
" clip-path="url(#pec30109ba0)" style="fill: #86b0a6"/>
   </g>
   <g id="patch_34">
    <path d="M 304.744881 228.96 
L 309.369063 228.96 
L 309.369063 61.207887 
L 304.744881 61.207887 
z
" clip-path="url(#pec30109ba0)" style="fill: #86b0a6"/>
   </g>
   <g id="patch_35">
    <path d="M 311.218736 228.96 
L 315.842917 228.96 
L 315.842917 54.267042 
L 311.218736 54.267042 
z
" clip-path="url(#pec30109ba0)" style="fill: #86b0a6"/>
   </g>
   <g id="patch_36">
    <path d="M 317.69259 228.96 
L 322.316772 228.96 
L 322.316772 89.782535 
L 317.69259 89.782535 
z
" clip-path="url(#pec30109ba0)" style="fill: #86b0a6"/>
   </g>
   <g id="patch_37">
    <path d="M 324.166444 228.96 
L 328.790626 228.96 
L 328.790626 83.382535 
L 324.166444 83.382535 
z
" clip-path="url(#pec30109ba0)" style="fill: #86b0a6"/>
   </g>
   <g id="patch_38">
    <path d="M 330.640299 228.96 
L 335.26448 228.96 
L 335.26448 95.731831 
L 330.640299 95.731831 
z
" clip-path="url(#pec30109ba0)" style="fill: #86b0a6"/>
   </g>
   <g id="patch_39">
    <path d="M 337.114153 228.96 
L 341.738335 228.96 
L 341.738335 127.821972 
L 337.114153 127.821972 
z
" clip-path="url(#pec30109ba0)" style="fill: #86b0a6"/>
   </g>
   <g id="patch_40">
    <path d="M 343.588007 228.96 
L 348.212189 228.96 
L 348.212189 146.120563 
L 343.588007 146.120563 
z
" clip-path="url(#pec30109ba0)" style="fill: #86b0a6"/>
   </g>
   <g id="patch_41">
    <path d="M 350.061862 228.96 
L 354.686043 228.96 
L 354.686043 144.317746 
L 350.061862 144.317746 
z
" clip-path="url(#pec30109ba0)" style="fill: #86b0a6"/>
   </g>
   <g id="patch_42">
    <path d="M 356.535716 228.96 
L 361.159898 228.96 
L 361.159898 154.052958 
L 356.535716 154.052958 
z
" clip-path="url(#pec30109ba0)" style="fill: #86b0a6"/>
   </g>
   <g id="patch_43">
    <path d="M 363.00957 228.96 
L 367.633752 228.96 
L 367.633752 162.526197 
L 363.00957 162.526197 
z
" clip-path="url(#pec30109ba0)" style="fill: #86b0a6"/>
   </g>
   <g id="patch_44">
    <path d="M 369.483425 228.96 
L 374.107606 228.96 
L 374.107606 175.59662 
L 369.483425 175.59662 
z
" clip-path="url(#pec30109ba0)" style="fill: #86b0a6"/>
   </g>
   <g id="patch_45">
    <path d="M 375.957279 228.96 
L 380.581461 228.96 
L 380.581461 158.740282 
L 375.957279 158.740282 
z
" clip-path="url(#pec30109ba0)" style="fill: #86b0a6"/>
   </g>
   <g id="patch_46">
    <path d="M 382.431133 228.96 
L 387.055315 228.96 
L 387.055315 141.613521 
L 382.431133 141.613521 
z
" clip-path="url(#pec30109ba0)" style="fill: #86b0a6"/>
   </g>
   <g id="patch_47">
    <path d="M 388.904988 228.96 
L 393.529169 228.96 
L 393.529169 154.503662 
L 388.904988 154.503662 
z
" clip-path="url(#pec30109ba0)" style="fill: #86b0a6"/>
   </g>
   <g id="patch_48">
    <path d="M 395.378842 228.96 
L 400.003023 228.96 
L 400.003023 167.12338 
L 395.378842 167.12338 
z
" clip-path="url(#pec30109ba0)" style="fill: #86b0a6"/>
   </g>
   <g id="patch_49">
    <path d="M 401.852696 228.96 
L 406.476878 228.96 
L 406.476878 177.850141 
L 401.852696 177.850141 
z
" clip-path="url(#pec30109ba0)" style="fill: #86b0a6"/>
   </g>
   <g id="patch_50">
    <path d="M 408.32655 228.96 
L 412.950732 228.96 
L 412.950732 198.04169 
L 408.32655 198.04169 
z
" clip-path="url(#pec30109ba0)" style="fill: #86b0a6"/>
   </g>
   <g id="patch_51">
    <path d="M 414.800405 228.96 
L 419.424586 228.96 
L 419.424586 207.145915 
L 414.800405 207.145915 
z
" clip-path="url(#pec30109ba0)" style="fill: #86b0a6"/>
   </g>
   <g id="patch_52">
    <path d="M 421.274259 228.96 
L 425.898441 228.96 
L 425.898441 215.799437 
L 421.274259 215.799437 
z
" clip-path="url(#pec30109ba0)" style="fill: #86b0a6"/>
   </g>
   <g id="patch_53">
    <path d="M 427.748113 228.96 
L 432.372295 228.96 
L 432.372295 220.667042 
L 427.748113 220.667042 
z
" clip-path="url(#pec30109ba0)" style="fill: #86b0a6"/>
   </g>
   <g id="patch_54">
    <path d="M 434.221968 228.96 
L 438.846149 228.96 
L 438.846149 224.092394 
L 434.221968 224.092394 
z
" clip-path="url(#pec30109ba0)" style="fill: #86b0a6"/>
   </g>
   <g id="patch_55">
    <path d="M 440.695822 228.96 
L 445.320004 228.96 
L 445.320004 225.444507 
L 440.695822 225.444507 
z
" clip-path="url(#pec30109ba0)" style="fill: #86b0a6"/>
   </g>
   <g id="patch_56">
    <path d="M 447.169676 228.96 
L 451.793858 228.96 
L 451.793858 226.886761 
L 447.169676 226.886761 
z
" clip-path="url(#pec30109ba0)" style="fill: #86b0a6"/>
   </g>
   <g id="patch_57">
    <path d="M 453.643531 228.96 
L 458.267712 228.96 
L 458.267712 227.968451 
L 453.643531 227.968451 
z
" clip-path="url(#pec30109ba0)" style="fill: #86b0a6"/>
   </g>
   <g id="patch_58">
    <path d="M 460.117385 228.96 
L 464.741567 228.96 
L 464.741567 227.87831 
L 460.117385 227.87831 
z
" clip-path="url(#pec30109ba0)" style="fill: #86b0a6"/>
   </g>
   <g id="patch_59">
    <path d="M 466.591239 228.96 
L 471.215421 228.96 
L 471.215421 228.689577 
L 466.591239 228.689577 
z
" clip-path="url(#pec30109ba0)" style="fill: #86b0a6"/>
   </g>
   <g id="patch_60">
    <path d="M 473.065094 228.96 
L 477.689275 228.96 
L 477.689275 224.452958 
L 473.065094 224.452958 
z
" clip-path="url(#pec30109ba0)" style="fill: #86b0a6"/>
   </g>
   <g id="patch_61">
    <path d="M 479.538948 228.96 
L 484.16313 228.96 
L 484.16313 228.058592 
L 479.538948 228.058592 
z
" clip-path="url(#pec30109ba0)" style="fill: #86b0a6"/>
   </g>
   <g id="patch_62">
    <path d="M 486.012802 228.96 
L 490.636984 228.96 
L 490.636984 228.509296 
L 486.012802 228.509296 
z
" clip-path="url(#pec30109ba0)" style="fill: #86b0a6"/>
   </g>
   <g id="patch_63">
    <path d="M 492.486657 228.96 
L 497.110838 228.96 
L 497.110838 228.509296 
L 492.486657 228.509296 
z
" clip-path="url(#pec30109ba0)" style="fill: #86b0a6"/>
   </g>
   <g id="patch_64">
    <path d="M 498.960511 228.96 
L 503.584692 228.96 
L 503.584692 228.689577 
L 498.960511 228.689577 
z
" clip-path="url(#pec30109ba0)" style="fill: #86b0a6"/>
   </g>
   <g id="patch_65">
    <path d="M 505.434365 228.96 
L 510.058547 228.96 
L 510.058547 228.419155 
L 505.434365 228.419155 
z
" clip-path="url(#pec30109ba0)" style="fill: #86b0a6"/>
   </g>
   <g id="patch_66">
    <path d="M 511.908219 228.96 
L 516.532401 228.96 
L 516.532401 228.869859 
L 511.908219 228.869859 
z
" clip-path="url(#pec30109ba0)" style="fill: #86b0a6"/>
   </g>
   <g id="patch_67">
    <path d="M 518.382074 228.96 
L 523.006255 228.96 
L 523.006255 228.779718 
L 518.382074 228.779718 
z
" clip-path="url(#pec30109ba0)" style="fill: #86b0a6"/>
   </g>
   <g id="patch_68">
    <path d="M 524.855928 228.96 
L 529.48011 228.96 
L 529.48011 228.689577 
L 524.855928 228.689577 
z
" clip-path="url(#pec30109ba0)" style="fill: #86b0a6"/>
   </g>
   <g id="patch_69">
    <path d="M 531.329782 228.96 
L 535.953964 228.96 
L 535.953964 228.869859 
L 531.329782 228.869859 
z
" clip-path="url(#pec30109ba0)" style="fill: #86b0a6"/>
   </g>
   <g id="patch_70">
    <path d="M 537.803637 228.96 
L 542.427818 228.96 
L 542.427818 228.869859 
L 537.803637 228.869859 
z
" clip-path="url(#pec30109ba0)" style="fill: #86b0a6"/>
   </g>
   <g id="patch_71">
    <path d="M 550.751345 228.96 
L 555.375527 228.96 
L 555.375527 228.869859 
L 550.751345 228.869859 
z
" clip-path="url(#pec30109ba0)" style="fill: #86b0a6"/>
   </g>
   <g id="patch_72">
    <path d="M 557.2252 228.96 
L 561.849381 228.96 
L 561.849381 228.869859 
L 557.2252 228.869859 
z
" clip-path="url(#pec30109ba0)" style="fill: #86b0a6"/>
   </g>
   <g id="patch_73">
    <path d="M 570.172908 228.96 
L 574.79709 228.96 
L 574.79709 228.779718 
L 570.172908 228.779718 
z
" clip-path="url(#pec30109ba0)" style="fill: #86b0a6"/>
   </g>
   <g id="patch_74">
    <path d="M 621.963743 228.96 
L 626.587924 228.96 
L 626.587924 228.689577 
L 621.963743 228.689577 
z
" clip-path="url(#pec30109ba0)" style="fill: #86b0a6"/>
   </g>
   <g id="patch_75">
    <path d="M 628.437597 228.96 
L 633.061779 228.96 
L 633.061779 228.869859 
L 628.437597 228.869859 
z
" clip-path="url(#pec30109ba0)" style="fill: #86b0a6"/>
   </g>
   <g id="patch_76">
    <path d="M 757.914683 228.96 
L 762.538865 228.96 
L 762.538865 228.869859 
L 757.914683 228.869859 
z
" clip-path="url(#pec30109ba0)" style="fill: #86b0a6"/>
   </g>
   <g id="patch_77">
    <path d="M 783.810101 228.96 
L 788.434282 228.96 
L 788.434282 228.869859 
L 783.810101 228.869859 
z
" clip-path="url(#pec30109ba0)" style="fill: #86b0a6"/>
   </g>
   <g id="patch_78">
    <path d="M 803.231664 228.96 
L 807.855845 228.96 
L 807.855845 228.869859 
L 803.231664 228.869859 
z
" clip-path="url(#pec30109ba0)" style="fill: #86b0a6"/>
   </g>
   <g id="patch_79">
    <path d="M 932.70875 228.96 
L 937.332931 228.96 
L 937.332931 228.869859 
L 932.70875 228.869859 
z
" clip-path="url(#pec30109ba0)" style="fill: #86b0a6"/>
   </g>
   <g id="patch_80">
    <path d="M 990.973439 228.96 
L 995.59762 228.96 
L 995.59762 228.869859 
L 990.973439 228.869859 
z
" clip-path="url(#pec30109ba0)" style="fill: #86b0a6"/>
   </g>
   <g id="patch_81">
    <path d="M 1113.976671 228.96 
L 1118.600852 228.96 
L 1118.600852 228.779718 
L 1113.976671 228.779718 
z
" clip-path="url(#pec30109ba0)" style="fill: #86b0a6"/>
   </g>
   <g id="matplotlib.axis_1">
    <g id="xtick_1">
     <g id="line2d_1">
      <defs>
       <path id="m58094b3915" d="M 0 0 
L 0 3.5 
" style="stroke: #000000; stroke-width: 0.8"/>
      </defs>
      <g>
       <use xlink:href="#m58094b3915" x="108.217161" y="228.96" style="stroke: #000000; stroke-width: 0.8"/>
      </g>
     </g>
     <g id="text_1">
      <!-- 2020-09 -->
      <g transform="translate(110.976536 277.742812)rotate(-90)scale(0.1 -0.1)">
       <defs>
        <path id="DejaVuSans-32" d="M 1228 531 
L 3431 531 
L 3431 0 
L 469 0 
L 469 531 
Q 828 903 1448 1529 
Q 2069 2156 2228 2338 
Q 2531 2678 2651 2914 
Q 2772 3150 2772 3378 
Q 2772 3750 2511 3984 
Q 2250 4219 1831 4219 
Q 1534 4219 1204 4116 
Q 875 4013 500 3803 
L 500 4441 
Q 881 4594 1212 4672 
Q 1544 4750 1819 4750 
Q 2544 4750 2975 4387 
Q 3406 4025 3406 3419 
Q 3406 3131 3298 2873 
Q 3191 2616 2906 2266 
Q 2828 2175 2409 1742 
Q 1991 1309 1228 531 
z
" transform="scale(0.015625)"/>
        <path id="DejaVuSans-30" d="M 2034 4250 
Q 1547 4250 1301 3770 
Q 1056 3291 1056 2328 
Q 1056 1369 1301 889 
Q 1547 409 2034 409 
Q 2525 409 2770 889 
Q 3016 1369 3016 2328 
Q 3016 3291 2770 3770 
Q 2525 4250 2034 4250 
z
M 2034 4750 
Q 2819 4750 3233 4129 
Q 3647 3509 3647 2328 
Q 3647 1150 3233 529 
Q 2819 -91 2034 -91 
Q 1250 -91 836 529 
Q 422 1150 422 2328 
Q 422 3509 836 4129 
Q 1250 4750 2034 4750 
z
" transform="scale(0.015625)"/>
        <path id="DejaVuSans-2d" d="M 313 2009 
L 1997 2009 
L 1997 1497 
L 313 1497 
L 313 2009 
z
" transform="scale(0.015625)"/>
        <path id="DejaVuSans-39" d="M 703 97 
L 703 672 
Q 941 559 1184 500 
Q 1428 441 1663 441 
Q 2288 441 2617 861 
Q 2947 1281 2994 2138 
Q 2813 1869 2534 1725 
Q 2256 1581 1919 1581 
Q 1219 1581 811 2004 
Q 403 2428 403 3163 
Q 403 3881 828 4315 
Q 1253 4750 1959 4750 
Q 2769 4750 3195 4129 
Q 3622 3509 3622 2328 
Q 3622 1225 3098 567 
Q 2575 -91 1691 -91 
Q 1453 -91 1209 -44 
Q 966 3 703 97 
z
M 1959 2075 
Q 2384 2075 2632 2365 
Q 2881 2656 2881 3163 
Q 2881 3666 2632 3958 
Q 2384 4250 1959 4250 
Q 1534 4250 1286 3958 
Q 1038 3666 1038 3163 
Q 1038 2656 1286 2365 
Q 1534 2075 1959 2075 
z
" transform="scale(0.015625)"/>
       </defs>
       <use xlink:href="#DejaVuSans-32"/>
       <use xlink:href="#DejaVuSans-30" x="63.623047"/>
       <use xlink:href="#DejaVuSans-32" x="127.246094"/>
       <use xlink:href="#DejaVuSans-30" x="190.869141"/>
       <use xlink:href="#DejaVuSans-2d" x="254.492188"/>
       <use xlink:href="#DejaVuSans-30" x="290.576172"/>
       <use xlink:href="#DejaVuSans-39" x="354.199219"/>
      </g>
     </g>
    </g>
    <g id="xtick_2">
     <g id="line2d_2">
      <g>
       <use xlink:href="#m58094b3915" x="221.047194" y="228.96" style="stroke: #000000; stroke-width: 0.8"/>
      </g>
     </g>
     <g id="text_2">
      <!-- 2021-01 -->
      <g transform="translate(223.806569 277.742812)rotate(-90)scale(0.1 -0.1)">
       <defs>
        <path id="DejaVuSans-31" d="M 794 531 
L 1825 531 
L 1825 4091 
L 703 3866 
L 703 4441 
L 1819 4666 
L 2450 4666 
L 2450 531 
L 3481 531 
L 3481 0 
L 794 0 
L 794 531 
z
" transform="scale(0.015625)"/>
       </defs>
       <use xlink:href="#DejaVuSans-32"/>
       <use xlink:href="#DejaVuSans-30" x="63.623047"/>
       <use xlink:href="#DejaVuSans-32" x="127.246094"/>
       <use xlink:href="#DejaVuSans-31" x="190.869141"/>
       <use xlink:href="#DejaVuSans-2d" x="254.492188"/>
       <use xlink:href="#DejaVuSans-30" x="290.576172"/>
       <use xlink:href="#DejaVuSans-31" x="354.199219"/>
      </g>
     </g>
    </g>
    <g id="xtick_3">
     <g id="line2d_3">
      <g>
       <use xlink:href="#m58094b3915" x="332.027553" y="228.96" style="stroke: #000000; stroke-width: 0.8"/>
      </g>
     </g>
     <g id="text_3">
      <!-- 2021-05 -->
      <g transform="translate(334.786928 277.742812)rotate(-90)scale(0.1 -0.1)">
       <defs>
        <path id="DejaVuSans-35" d="M 691 4666 
L 3169 4666 
L 3169 4134 
L 1269 4134 
L 1269 2991 
Q 1406 3038 1543 3061 
Q 1681 3084 1819 3084 
Q 2600 3084 3056 2656 
Q 3513 2228 3513 1497 
Q 3513 744 3044 326 
Q 2575 -91 1722 -91 
Q 1428 -91 1123 -41 
Q 819 9 494 109 
L 494 744 
Q 775 591 1075 516 
Q 1375 441 1709 441 
Q 2250 441 2565 725 
Q 2881 1009 2881 1497 
Q 2881 1984 2565 2268 
Q 2250 2553 1709 2553 
Q 1456 2553 1204 2497 
Q 953 2441 691 2322 
L 691 4666 
z
" transform="scale(0.015625)"/>
       </defs>
       <use xlink:href="#DejaVuSans-32"/>
       <use xlink:href="#DejaVuSans-30" x="63.623047"/>
       <use xlink:href="#DejaVuSans-32" x="127.246094"/>
       <use xlink:href="#DejaVuSans-31" x="190.869141"/>
       <use xlink:href="#DejaVuSans-2d" x="254.492188"/>
       <use xlink:href="#DejaVuSans-30" x="290.576172"/>
       <use xlink:href="#DejaVuSans-35" x="354.199219"/>
      </g>
     </g>
    </g>
    <g id="xtick_4">
     <g id="line2d_4">
      <g>
       <use xlink:href="#m58094b3915" x="445.782422" y="228.96" style="stroke: #000000; stroke-width: 0.8"/>
      </g>
     </g>
     <g id="text_4">
      <!-- 2021-09 -->
      <g transform="translate(448.541797 277.742812)rotate(-90)scale(0.1 -0.1)">
       <use xlink:href="#DejaVuSans-32"/>
       <use xlink:href="#DejaVuSans-30" x="63.623047"/>
       <use xlink:href="#DejaVuSans-32" x="127.246094"/>
       <use xlink:href="#DejaVuSans-31" x="190.869141"/>
       <use xlink:href="#DejaVuSans-2d" x="254.492188"/>
       <use xlink:href="#DejaVuSans-30" x="290.576172"/>
       <use xlink:href="#DejaVuSans-39" x="354.199219"/>
      </g>
     </g>
    </g>
    <g id="xtick_5">
     <g id="line2d_5">
      <g>
       <use xlink:href="#m58094b3915" x="558.612454" y="228.96" style="stroke: #000000; stroke-width: 0.8"/>
      </g>
     </g>
     <g id="text_5">
      <!-- 2022-01 -->
      <g transform="translate(561.371829 277.742812)rotate(-90)scale(0.1 -0.1)">
       <use xlink:href="#DejaVuSans-32"/>
       <use xlink:href="#DejaVuSans-30" x="63.623047"/>
       <use xlink:href="#DejaVuSans-32" x="127.246094"/>
       <use xlink:href="#DejaVuSans-32" x="190.869141"/>
       <use xlink:href="#DejaVuSans-2d" x="254.492188"/>
       <use xlink:href="#DejaVuSans-30" x="290.576172"/>
       <use xlink:href="#DejaVuSans-31" x="354.199219"/>
      </g>
     </g>
    </g>
    <g id="xtick_6">
     <g id="line2d_6">
      <g>
       <use xlink:href="#m58094b3915" x="669.592814" y="228.96" style="stroke: #000000; stroke-width: 0.8"/>
      </g>
     </g>
     <g id="text_6">
      <!-- 2022-05 -->
      <g transform="translate(672.352189 277.742812)rotate(-90)scale(0.1 -0.1)">
       <use xlink:href="#DejaVuSans-32"/>
       <use xlink:href="#DejaVuSans-30" x="63.623047"/>
       <use xlink:href="#DejaVuSans-32" x="127.246094"/>
       <use xlink:href="#DejaVuSans-32" x="190.869141"/>
       <use xlink:href="#DejaVuSans-2d" x="254.492188"/>
       <use xlink:href="#DejaVuSans-30" x="290.576172"/>
       <use xlink:href="#DejaVuSans-35" x="354.199219"/>
      </g>
     </g>
    </g>
    <g id="xtick_7">
     <g id="line2d_7">
      <g>
       <use xlink:href="#m58094b3915" x="783.347682" y="228.96" style="stroke: #000000; stroke-width: 0.8"/>
      </g>
     </g>
     <g id="text_7">
      <!-- 2022-09 -->
      <g transform="translate(786.107057 277.742812)rotate(-90)scale(0.1 -0.1)">
       <use xlink:href="#DejaVuSans-32"/>
       <use xlink:href="#DejaVuSans-30" x="63.623047"/>
       <use xlink:href="#DejaVuSans-32" x="127.246094"/>
       <use xlink:href="#DejaVuSans-32" x="190.869141"/>
       <use xlink:href="#DejaVuSans-2d" x="254.492188"/>
       <use xlink:href="#DejaVuSans-30" x="290.576172"/>
       <use xlink:href="#DejaVuSans-39" x="354.199219"/>
      </g>
     </g>
    </g>
    <g id="xtick_8">
     <g id="line2d_8">
      <g>
       <use xlink:href="#m58094b3915" x="896.177715" y="228.96" style="stroke: #000000; stroke-width: 0.8"/>
      </g>
     </g>
     <g id="text_8">
      <!-- 2023-01 -->
      <g transform="translate(898.93709 277.742812)rotate(-90)scale(0.1 -0.1)">
       <defs>
        <path id="DejaVuSans-33" d="M 2597 2516 
Q 3050 2419 3304 2112 
Q 3559 1806 3559 1356 
Q 3559 666 3084 287 
Q 2609 -91 1734 -91 
Q 1441 -91 1130 -33 
Q 819 25 488 141 
L 488 750 
Q 750 597 1062 519 
Q 1375 441 1716 441 
Q 2309 441 2620 675 
Q 2931 909 2931 1356 
Q 2931 1769 2642 2001 
Q 2353 2234 1838 2234 
L 1294 2234 
L 1294 2753 
L 1863 2753 
Q 2328 2753 2575 2939 
Q 2822 3125 2822 3475 
Q 2822 3834 2567 4026 
Q 2313 4219 1838 4219 
Q 1578 4219 1281 4162 
Q 984 4106 628 3988 
L 628 4550 
Q 988 4650 1302 4700 
Q 1616 4750 1894 4750 
Q 2613 4750 3031 4423 
Q 3450 4097 3450 3541 
Q 3450 3153 3228 2886 
Q 3006 2619 2597 2516 
z
" transform="scale(0.015625)"/>
       </defs>
       <use xlink:href="#DejaVuSans-32"/>
       <use xlink:href="#DejaVuSans-30" x="63.623047"/>
       <use xlink:href="#DejaVuSans-32" x="127.246094"/>
       <use xlink:href="#DejaVuSans-33" x="190.869141"/>
       <use xlink:href="#DejaVuSans-2d" x="254.492188"/>
       <use xlink:href="#DejaVuSans-30" x="290.576172"/>
       <use xlink:href="#DejaVuSans-31" x="354.199219"/>
      </g>
     </g>
    </g>
    <g id="xtick_9">
     <g id="line2d_9">
      <g>
       <use xlink:href="#m58094b3915" x="1007.158074" y="228.96" style="stroke: #000000; stroke-width: 0.8"/>
      </g>
     </g>
     <g id="text_9">
      <!-- 2023-05 -->
      <g transform="translate(1009.917449 277.742812)rotate(-90)scale(0.1 -0.1)">
       <use xlink:href="#DejaVuSans-32"/>
       <use xlink:href="#DejaVuSans-30" x="63.623047"/>
       <use xlink:href="#DejaVuSans-32" x="127.246094"/>
       <use xlink:href="#DejaVuSans-33" x="190.869141"/>
       <use xlink:href="#DejaVuSans-2d" x="254.492188"/>
       <use xlink:href="#DejaVuSans-30" x="290.576172"/>
       <use xlink:href="#DejaVuSans-35" x="354.199219"/>
      </g>
     </g>
    </g>
    <g id="xtick_10">
     <g id="line2d_10">
      <g>
       <use xlink:href="#m58094b3915" x="1120.912943" y="228.96" style="stroke: #000000; stroke-width: 0.8"/>
      </g>
     </g>
     <g id="text_10">
      <!-- 2023-09 -->
      <g transform="translate(1123.672318 277.742812)rotate(-90)scale(0.1 -0.1)">
       <use xlink:href="#DejaVuSans-32"/>
       <use xlink:href="#DejaVuSans-30" x="63.623047"/>
       <use xlink:href="#DejaVuSans-32" x="127.246094"/>
       <use xlink:href="#DejaVuSans-33" x="190.869141"/>
       <use xlink:href="#DejaVuSans-2d" x="254.492188"/>
       <use xlink:href="#DejaVuSans-30" x="290.576172"/>
       <use xlink:href="#DejaVuSans-39" x="354.199219"/>
      </g>
     </g>
    </g>
    <g id="text_11">
     <!-- Date -->
     <g transform="translate(599.377344 289.34125)scale(0.1 -0.1)">
      <defs>
       <path id="DejaVuSans-44" d="M 1259 4147 
L 1259 519 
L 2022 519 
Q 2988 519 3436 956 
Q 3884 1394 3884 2338 
Q 3884 3275 3436 3711 
Q 2988 4147 2022 4147 
L 1259 4147 
z
M 628 4666 
L 1925 4666 
Q 3281 4666 3915 4102 
Q 4550 3538 4550 2338 
Q 4550 1131 3912 565 
Q 3275 0 1925 0 
L 628 0 
L 628 4666 
z
" transform="scale(0.015625)"/>
       <path id="DejaVuSans-61" d="M 2194 1759 
Q 1497 1759 1228 1600 
Q 959 1441 959 1056 
Q 959 750 1161 570 
Q 1363 391 1709 391 
Q 2188 391 2477 730 
Q 2766 1069 2766 1631 
L 2766 1759 
L 2194 1759 
z
M 3341 1997 
L 3341 0 
L 2766 0 
L 2766 531 
Q 2569 213 2275 61 
Q 1981 -91 1556 -91 
Q 1019 -91 701 211 
Q 384 513 384 1019 
Q 384 1609 779 1909 
Q 1175 2209 1959 2209 
L 2766 2209 
L 2766 2266 
Q 2766 2663 2505 2880 
Q 2244 3097 1772 3097 
Q 1472 3097 1187 3025 
Q 903 2953 641 2809 
L 641 3341 
Q 956 3463 1253 3523 
Q 1550 3584 1831 3584 
Q 2591 3584 2966 3190 
Q 3341 2797 3341 1997 
z
" transform="scale(0.015625)"/>
       <path id="DejaVuSans-74" d="M 1172 4494 
L 1172 3500 
L 2356 3500 
L 2356 3053 
L 1172 3053 
L 1172 1153 
Q 1172 725 1289 603 
Q 1406 481 1766 481 
L 2356 481 
L 2356 0 
L 1766 0 
Q 1100 0 847 248 
Q 594 497 594 1153 
L 594 3053 
L 172 3053 
L 172 3500 
L 594 3500 
L 594 4494 
L 1172 4494 
z
" transform="scale(0.015625)"/>
       <path id="DejaVuSans-65" d="M 3597 1894 
L 3597 1613 
L 953 1613 
Q 991 1019 1311 708 
Q 1631 397 2203 397 
Q 2534 397 2845 478 
Q 3156 559 3463 722 
L 3463 178 
Q 3153 47 2828 -22 
Q 2503 -91 2169 -91 
Q 1331 -91 842 396 
Q 353 884 353 1716 
Q 353 2575 817 3079 
Q 1281 3584 2069 3584 
Q 2775 3584 3186 3129 
Q 3597 2675 3597 1894 
z
M 3022 2063 
Q 3016 2534 2758 2815 
Q 2500 3097 2075 3097 
Q 1594 3097 1305 2825 
Q 1016 2553 972 2059 
L 3022 2063 
z
" transform="scale(0.015625)"/>
      </defs>
      <use xlink:href="#DejaVuSans-44"/>
      <use xlink:href="#DejaVuSans-61" x="77.001953"/>
      <use xlink:href="#DejaVuSans-74" x="138.28125"/>
      <use xlink:href="#DejaVuSans-65" x="177.490234"/>
     </g>
    </g>
   </g>
   <g id="matplotlib.axis_2">
    <g id="ytick_1">
     <g id="line2d_11">
      <defs>
       <path id="m6bdad8ae89" d="M 0 0 
L -3.5 0 
" style="stroke: #000000; stroke-width: 0.8"/>
      </defs>
      <g>
       <use xlink:href="#m6bdad8ae89" x="53.328125" y="228.96" style="stroke: #000000; stroke-width: 0.8"/>
      </g>
     </g>
     <g id="text_12">
      <!-- 0 -->
      <g transform="translate(39.965625 232.759219)scale(0.1 -0.1)">
       <use xlink:href="#DejaVuSans-30"/>
      </g>
     </g>
    </g>
    <g id="ytick_2">
     <g id="line2d_12">
      <g>
       <use xlink:href="#m6bdad8ae89" x="53.328125" y="183.889577" style="stroke: #000000; stroke-width: 0.8"/>
      </g>
     </g>
     <g id="text_13">
      <!-- 500 -->
      <g transform="translate(27.240625 187.688796)scale(0.1 -0.1)">
       <use xlink:href="#DejaVuSans-35"/>
       <use xlink:href="#DejaVuSans-30" x="63.623047"/>
       <use xlink:href="#DejaVuSans-30" x="127.246094"/>
      </g>
     </g>
    </g>
    <g id="ytick_3">
     <g id="line2d_13">
      <g>
       <use xlink:href="#m6bdad8ae89" x="53.328125" y="138.819155" style="stroke: #000000; stroke-width: 0.8"/>
      </g>
     </g>
     <g id="text_14">
      <!-- 1000 -->
      <g transform="translate(20.878125 142.618374)scale(0.1 -0.1)">
       <use xlink:href="#DejaVuSans-31"/>
       <use xlink:href="#DejaVuSans-30" x="63.623047"/>
       <use xlink:href="#DejaVuSans-30" x="127.246094"/>
       <use xlink:href="#DejaVuSans-30" x="190.869141"/>
      </g>
     </g>
    </g>
    <g id="ytick_4">
     <g id="line2d_14">
      <g>
       <use xlink:href="#m6bdad8ae89" x="53.328125" y="93.748732" style="stroke: #000000; stroke-width: 0.8"/>
      </g>
     </g>
     <g id="text_15">
      <!-- 1500 -->
      <g transform="translate(20.878125 97.547951)scale(0.1 -0.1)">
       <use xlink:href="#DejaVuSans-31"/>
       <use xlink:href="#DejaVuSans-35" x="63.623047"/>
       <use xlink:href="#DejaVuSans-30" x="127.246094"/>
       <use xlink:href="#DejaVuSans-30" x="190.869141"/>
      </g>
     </g>
    </g>
    <g id="ytick_5">
     <g id="line2d_15">
      <g>
       <use xlink:href="#m6bdad8ae89" x="53.328125" y="48.67831" style="stroke: #000000; stroke-width: 0.8"/>
      </g>
     </g>
     <g id="text_16">
      <!-- 2000 -->
      <g transform="translate(20.878125 52.477529)scale(0.1 -0.1)">
       <use xlink:href="#DejaVuSans-32"/>
       <use xlink:href="#DejaVuSans-30" x="63.623047"/>
       <use xlink:href="#DejaVuSans-30" x="127.246094"/>
       <use xlink:href="#DejaVuSans-30" x="190.869141"/>
      </g>
     </g>
    </g>
    <g id="text_17">
     <!-- Sequence count -->
     <g transform="translate(14.798437 158.440156)rotate(-90)scale(0.1 -0.1)">
      <defs>
       <path id="DejaVuSans-53" d="M 3425 4513 
L 3425 3897 
Q 3066 4069 2747 4153 
Q 2428 4238 2131 4238 
Q 1616 4238 1336 4038 
Q 1056 3838 1056 3469 
Q 1056 3159 1242 3001 
Q 1428 2844 1947 2747 
L 2328 2669 
Q 3034 2534 3370 2195 
Q 3706 1856 3706 1288 
Q 3706 609 3251 259 
Q 2797 -91 1919 -91 
Q 1588 -91 1214 -16 
Q 841 59 441 206 
L 441 856 
Q 825 641 1194 531 
Q 1563 422 1919 422 
Q 2459 422 2753 634 
Q 3047 847 3047 1241 
Q 3047 1584 2836 1778 
Q 2625 1972 2144 2069 
L 1759 2144 
Q 1053 2284 737 2584 
Q 422 2884 422 3419 
Q 422 4038 858 4394 
Q 1294 4750 2059 4750 
Q 2388 4750 2728 4690 
Q 3069 4631 3425 4513 
z
" transform="scale(0.015625)"/>
       <path id="DejaVuSans-71" d="M 947 1747 
Q 947 1113 1208 752 
Q 1469 391 1925 391 
Q 2381 391 2643 752 
Q 2906 1113 2906 1747 
Q 2906 2381 2643 2742 
Q 2381 3103 1925 3103 
Q 1469 3103 1208 2742 
Q 947 2381 947 1747 
z
M 2906 525 
Q 2725 213 2448 61 
Q 2172 -91 1784 -91 
Q 1150 -91 751 415 
Q 353 922 353 1747 
Q 353 2572 751 3078 
Q 1150 3584 1784 3584 
Q 2172 3584 2448 3432 
Q 2725 3281 2906 2969 
L 2906 3500 
L 3481 3500 
L 3481 -1331 
L 2906 -1331 
L 2906 525 
z
" transform="scale(0.015625)"/>
       <path id="DejaVuSans-75" d="M 544 1381 
L 544 3500 
L 1119 3500 
L 1119 1403 
Q 1119 906 1312 657 
Q 1506 409 1894 409 
Q 2359 409 2629 706 
Q 2900 1003 2900 1516 
L 2900 3500 
L 3475 3500 
L 3475 0 
L 2900 0 
L 2900 538 
Q 2691 219 2414 64 
Q 2138 -91 1772 -91 
Q 1169 -91 856 284 
Q 544 659 544 1381 
z
M 1991 3584 
L 1991 3584 
z
" transform="scale(0.015625)"/>
       <path id="DejaVuSans-6e" d="M 3513 2113 
L 3513 0 
L 2938 0 
L 2938 2094 
Q 2938 2591 2744 2837 
Q 2550 3084 2163 3084 
Q 1697 3084 1428 2787 
Q 1159 2491 1159 1978 
L 1159 0 
L 581 0 
L 581 3500 
L 1159 3500 
L 1159 2956 
Q 1366 3272 1645 3428 
Q 1925 3584 2291 3584 
Q 2894 3584 3203 3211 
Q 3513 2838 3513 2113 
z
" transform="scale(0.015625)"/>
       <path id="DejaVuSans-63" d="M 3122 3366 
L 3122 2828 
Q 2878 2963 2633 3030 
Q 2388 3097 2138 3097 
Q 1578 3097 1268 2742 
Q 959 2388 959 1747 
Q 959 1106 1268 751 
Q 1578 397 2138 397 
Q 2388 397 2633 464 
Q 2878 531 3122 666 
L 3122 134 
Q 2881 22 2623 -34 
Q 2366 -91 2075 -91 
Q 1284 -91 818 406 
Q 353 903 353 1747 
Q 353 2603 823 3093 
Q 1294 3584 2113 3584 
Q 2378 3584 2631 3529 
Q 2884 3475 3122 3366 
z
" transform="scale(0.015625)"/>
       <path id="DejaVuSans-20" transform="scale(0.015625)"/>
       <path id="DejaVuSans-6f" d="M 1959 3097 
Q 1497 3097 1228 2736 
Q 959 2375 959 1747 
Q 959 1119 1226 758 
Q 1494 397 1959 397 
Q 2419 397 2687 759 
Q 2956 1122 2956 1747 
Q 2956 2369 2687 2733 
Q 2419 3097 1959 3097 
z
M 1959 3584 
Q 2709 3584 3137 3096 
Q 3566 2609 3566 1747 
Q 3566 888 3137 398 
Q 2709 -91 1959 -91 
Q 1206 -91 779 398 
Q 353 888 353 1747 
Q 353 2609 779 3096 
Q 1206 3584 1959 3584 
z
" transform="scale(0.015625)"/>
      </defs>
      <use xlink:href="#DejaVuSans-53"/>
      <use xlink:href="#DejaVuSans-65" x="63.476562"/>
      <use xlink:href="#DejaVuSans-71" x="125"/>
      <use xlink:href="#DejaVuSans-75" x="188.476562"/>
      <use xlink:href="#DejaVuSans-65" x="251.855469"/>
      <use xlink:href="#DejaVuSans-6e" x="313.378906"/>
      <use xlink:href="#DejaVuSans-63" x="376.757812"/>
      <use xlink:href="#DejaVuSans-65" x="431.738281"/>
      <use xlink:href="#DejaVuSans-20" x="493.261719"/>
      <use xlink:href="#DejaVuSans-63" x="525.048828"/>
      <use xlink:href="#DejaVuSans-6f" x="580.029297"/>
      <use xlink:href="#DejaVuSans-75" x="641.210938"/>
      <use xlink:href="#DejaVuSans-6e" x="704.589844"/>
      <use xlink:href="#DejaVuSans-74" x="767.96875"/>
     </g>
    </g>
   </g>
   <g id="patch_82">
    <path d="M 53.328125 228.96 
L 53.328125 7.2 
" style="fill: none; stroke: #000000; stroke-width: 0.8; stroke-linejoin: miter; stroke-linecap: square"/>
   </g>
   <g id="patch_83">
    <path d="M 1169.328125 228.96 
L 1169.328125 7.2 
" style="fill: none; stroke: #000000; stroke-width: 0.8; stroke-linejoin: miter; stroke-linecap: square"/>
   </g>
   <g id="patch_84">
    <path d="M 53.328125 228.96 
L 1169.328125 228.96 
" style="fill: none; stroke: #000000; stroke-width: 0.8; stroke-linejoin: miter; stroke-linecap: square"/>
   </g>
  </g>
  <g id="axes_2">
   <g id="matplotlib.axis_3">
    <g id="ytick_6">
     <g id="line2d_16">
      <defs>
       <path id="mf046ff9d8d" d="M 0 0 
L 3.5 0 
" style="stroke: #000000; stroke-width: 0.8"/>
      </defs>
      <g>
       <use xlink:href="#mf046ff9d8d" x="1169.328125" y="218.911166" style="stroke: #000000; stroke-width: 0.8"/>
      </g>
     </g>
     <g id="text_18">
      <!-- 0 -->
      <g transform="translate(1176.328125 222.710385)scale(0.1 -0.1)">
       <use xlink:href="#DejaVuSans-30"/>
      </g>
     </g>
    </g>
    <g id="ytick_7">
     <g id="line2d_17">
      <g>
       <use xlink:href="#mf046ff9d8d" x="1169.328125" y="192.939148" style="stroke: #000000; stroke-width: 0.8"/>
      </g>
     </g>
     <g id="text_19">
      <!-- 5000 -->
      <g transform="translate(1176.328125 196.738367)scale(0.1 -0.1)">
       <use xlink:href="#DejaVuSans-35"/>
       <use xlink:href="#DejaVuSans-30" x="63.623047"/>
       <use xlink:href="#DejaVuSans-30" x="127.246094"/>
       <use xlink:href="#DejaVuSans-30" x="190.869141"/>
      </g>
     </g>
    </g>
    <g id="ytick_8">
     <g id="line2d_18">
      <g>
       <use xlink:href="#mf046ff9d8d" x="1169.328125" y="166.96713" style="stroke: #000000; stroke-width: 0.8"/>
      </g>
     </g>
     <g id="text_20">
      <!-- 10000 -->
      <g transform="translate(1176.328125 170.766349)scale(0.1 -0.1)">
       <use xlink:href="#DejaVuSans-31"/>
       <use xlink:href="#DejaVuSans-30" x="63.623047"/>
       <use xlink:href="#DejaVuSans-30" x="127.246094"/>
       <use xlink:href="#DejaVuSans-30" x="190.869141"/>
       <use xlink:href="#DejaVuSans-30" x="254.492188"/>
      </g>
     </g>
    </g>
    <g id="ytick_9">
     <g id="line2d_19">
      <g>
       <use xlink:href="#mf046ff9d8d" x="1169.328125" y="140.995112" style="stroke: #000000; stroke-width: 0.8"/>
      </g>
     </g>
     <g id="text_21">
      <!-- 15000 -->
      <g transform="translate(1176.328125 144.79433)scale(0.1 -0.1)">
       <use xlink:href="#DejaVuSans-31"/>
       <use xlink:href="#DejaVuSans-35" x="63.623047"/>
       <use xlink:href="#DejaVuSans-30" x="127.246094"/>
       <use xlink:href="#DejaVuSans-30" x="190.869141"/>
       <use xlink:href="#DejaVuSans-30" x="254.492188"/>
      </g>
     </g>
    </g>
    <g id="ytick_10">
     <g id="line2d_20">
      <g>
       <use xlink:href="#mf046ff9d8d" x="1169.328125" y="115.023093" style="stroke: #000000; stroke-width: 0.8"/>
      </g>
     </g>
     <g id="text_22">
      <!-- 20000 -->
      <g transform="translate(1176.328125 118.822312)scale(0.1 -0.1)">
       <use xlink:href="#DejaVuSans-32"/>
       <use xlink:href="#DejaVuSans-30" x="63.623047"/>
       <use xlink:href="#DejaVuSans-30" x="127.246094"/>
       <use xlink:href="#DejaVuSans-30" x="190.869141"/>
       <use xlink:href="#DejaVuSans-30" x="254.492188"/>
      </g>
     </g>
    </g>
    <g id="ytick_11">
     <g id="line2d_21">
      <g>
       <use xlink:href="#mf046ff9d8d" x="1169.328125" y="89.051075" style="stroke: #000000; stroke-width: 0.8"/>
      </g>
     </g>
     <g id="text_23">
      <!-- 25000 -->
      <g transform="translate(1176.328125 92.850294)scale(0.1 -0.1)">
       <use xlink:href="#DejaVuSans-32"/>
       <use xlink:href="#DejaVuSans-35" x="63.623047"/>
       <use xlink:href="#DejaVuSans-30" x="127.246094"/>
       <use xlink:href="#DejaVuSans-30" x="190.869141"/>
       <use xlink:href="#DejaVuSans-30" x="254.492188"/>
      </g>
     </g>
    </g>
    <g id="ytick_12">
     <g id="line2d_22">
      <g>
       <use xlink:href="#mf046ff9d8d" x="1169.328125" y="63.079057" style="stroke: #000000; stroke-width: 0.8"/>
      </g>
     </g>
     <g id="text_24">
      <!-- 30000 -->
      <g transform="translate(1176.328125 66.878276)scale(0.1 -0.1)">
       <use xlink:href="#DejaVuSans-33"/>
       <use xlink:href="#DejaVuSans-30" x="63.623047"/>
       <use xlink:href="#DejaVuSans-30" x="127.246094"/>
       <use xlink:href="#DejaVuSans-30" x="190.869141"/>
       <use xlink:href="#DejaVuSans-30" x="254.492188"/>
      </g>
     </g>
    </g>
    <g id="ytick_13">
     <g id="line2d_23">
      <g>
       <use xlink:href="#mf046ff9d8d" x="1169.328125" y="37.107039" style="stroke: #000000; stroke-width: 0.8"/>
      </g>
     </g>
     <g id="text_25">
      <!-- 35000 -->
      <g transform="translate(1176.328125 40.906257)scale(0.1 -0.1)">
       <use xlink:href="#DejaVuSans-33"/>
       <use xlink:href="#DejaVuSans-35" x="63.623047"/>
       <use xlink:href="#DejaVuSans-30" x="127.246094"/>
       <use xlink:href="#DejaVuSans-30" x="190.869141"/>
       <use xlink:href="#DejaVuSans-30" x="254.492188"/>
      </g>
     </g>
    </g>
    <g id="ytick_14">
     <g id="line2d_24">
      <g>
       <use xlink:href="#mf046ff9d8d" x="1169.328125" y="11.13502" style="stroke: #000000; stroke-width: 0.8"/>
      </g>
     </g>
     <g id="text_26">
      <!-- 40000 -->
      <g transform="translate(1176.328125 14.934239)scale(0.1 -0.1)">
       <defs>
        <path id="DejaVuSans-34" d="M 2419 4116 
L 825 1625 
L 2419 1625 
L 2419 4116 
z
M 2253 4666 
L 3047 4666 
L 3047 1625 
L 3713 1625 
L 3713 1100 
L 3047 1100 
L 3047 0 
L 2419 0 
L 2419 1100 
L 313 1100 
L 313 1709 
L 2253 4666 
z
" transform="scale(0.015625)"/>
       </defs>
       <use xlink:href="#DejaVuSans-34"/>
       <use xlink:href="#DejaVuSans-30" x="63.623047"/>
       <use xlink:href="#DejaVuSans-30" x="127.246094"/>
       <use xlink:href="#DejaVuSans-30" x="190.869141"/>
       <use xlink:href="#DejaVuSans-30" x="254.492188"/>
      </g>
     </g>
    </g>
    <g id="text_27">
     <!-- Total -->
     <g transform="translate(1219.739063 129.756562)rotate(-90)scale(0.1 -0.1)">
      <defs>
       <path id="DejaVuSans-54" d="M -19 4666 
L 3928 4666 
L 3928 4134 
L 2272 4134 
L 2272 0 
L 1638 0 
L 1638 4134 
L -19 4134 
L -19 4666 
z
" transform="scale(0.015625)"/>
       <path id="DejaVuSans-6c" d="M 603 4863 
L 1178 4863 
L 1178 0 
L 603 0 
L 603 4863 
z
" transform="scale(0.015625)"/>
      </defs>
      <use xlink:href="#DejaVuSans-54"/>
      <use xlink:href="#DejaVuSans-6f" x="44.083984"/>
      <use xlink:href="#DejaVuSans-74" x="105.265625"/>
      <use xlink:href="#DejaVuSans-61" x="144.474609"/>
      <use xlink:href="#DejaVuSans-6c" x="205.753906"/>
     </g>
    </g>
   </g>
   <g id="line2d_25">
    <path d="M 108.217161 218.88 
L 132.262906 218.39692 
L 135.037415 218.26706 
L 149.834796 218.028118 
L 154.458978 217.893063 
L 157.233487 217.659315 
L 160.932832 217.456733 
L 163.707341 217.300901 
L 164.632177 217.290512 
L 166.48185 217.046376 
L 170.181195 216.69835 
L 172.955704 216.636018 
L 177.579886 216.22566 
L 179.429559 216.13216 
L 182.204068 215.545193 
L 184.978577 215.347806 
L 185.903413 215.015364 
L 187.753086 214.797199 
L 191.452431 214.501118 
L 193.302104 214.137509 
L 197.001449 213.695985 
L 197.926285 213.363543 
L 199.775958 212.922019 
L 201.625631 212.573994 
L 203.475303 212.418162 
L 205.324976 211.701334 
L 206.249812 211.592252 
L 208.099485 210.885813 
L 209.949158 210.672842 
L 210.873994 209.981987 
L 212.723667 209.239187 
L 213.648503 208.844412 
L 216.423012 208.356138 
L 218.272685 206.901705 
L 219.197521 206.356293 
L 220.122357 205.945935 
L 221.047194 205.790103 
L 221.97203 205.473244 
L 222.896866 205.296634 
L 223.821703 204.133088 
L 225.671375 202.642294 
L 228.445884 201.45797 
L 229.370721 201.208639 
L 230.295557 200.237285 
L 233.070066 198.050441 
L 233.994902 197.515418 
L 234.919738 197.219337 
L 235.844575 197.047921 
L 240.468756 194.019584 
L 242.318429 193.474172 
L 245.092938 190.804248 
L 246.942611 189.48487 
L 247.867447 189.04854 
L 248.792283 188.819986 
L 250.641956 187.22011 
L 253.416465 185.105987 
L 255.266138 184.560575 
L 257.11581 182.695784 
L 258.040647 181.94779 
L 259.890319 180.20247 
L 260.815156 179.766141 
L 261.739992 179.511615 
L 262.664828 178.218208 
L 264.514501 176.150836 
L 265.439337 175.10676 
L 266.364174 174.254878 
L 268.213846 173.32508 
L 269.138683 171.855064 
L 271.913192 168.530645 
L 272.838028 167.387877 
L 274.687701 166.432106 
L 276.537373 162.728497 
L 277.46221 161.12862 
L 279.311882 159.024887 
L 281.161555 157.856146 
L 282.086391 155.788773 
L 283.936064 152.453966 
L 285.785737 149.139937 
L 286.710573 148.095861 
L 287.635409 147.28034 
L 288.560246 145.103885 
L 289.485082 142.382017 
L 292.259591 137.255141 
L 293.184427 136.221455 
L 294.109264 135.426711 
L 295.958936 131.053023 
L 297.808609 127.588356 
L 298.733445 126.2482 
L 300.583118 124.684684 
L 302.432791 119.152644 
L 303.357627 117.303437 
L 304.282463 115.760699 
L 306.132136 113.220635 
L 307.056972 112.358364 
L 307.981809 110.888348 
L 308.906645 109.033946 
L 310.756318 105.953665 
L 311.681154 104.55637 
L 312.60599 103.55385 
L 313.530827 102.733134 
L 315.380499 98.588 
L 317.230172 95.751856 
L 319.079845 93.487096 
L 320.004681 92.988433 
L 320.929517 91.336613 
L 322.77919 88.61994 
L 324.628863 86.240903 
L 326.478535 84.672193 
L 328.328208 81.176359 
L 331.102717 77.789608 
L 332.027553 77.077975 
L 332.95239 76.511785 
L 334.802062 73.405531 
L 336.651735 71.140771 
L 337.576571 70.086307 
L 338.501408 69.400646 
L 339.426244 68.943539 
L 340.35108 67.84752 
L 341.275916 66.471003 
L 342.200753 65.463288 
L 344.975262 63.572525 
L 345.900098 63.198528 
L 347.749771 61.338932 
L 349.599443 59.780611 
L 350.52428 59.162477 
L 352.373952 58.507982 
L 353.298789 57.791154 
L 354.223625 56.502942 
L 355.148461 55.936752 
L 356.998134 54.373236 
L 357.92297 53.921323 
L 358.847807 53.734325 
L 360.697479 52.165615 
L 361.622316 51.568258 
L 363.471988 50.087853 
L 364.396825 49.604774 
L 365.321661 49.287915 
L 366.246497 48.451616 
L 367.171334 47.319236 
L 369.945843 46.020635 
L 371.795515 45.573917 
L 372.720352 44.914227 
L 376.419697 42.940354 
L 378.26937 42.540385 
L 379.194206 41.761224 
L 380.119042 40.727538 
L 381.968715 39.553603 
L 382.893551 38.945858 
L 384.743224 38.327724 
L 385.66806 37.766728 
L 386.592897 36.774597 
L 388.442569 35.486385 
L 389.367406 35.101999 
L 390.292242 33.621594 
L 391.217078 33.325513 
L 392.141915 32.65024 
L 393.066751 31.64772 
L 393.991587 31.154252 
L 396.766096 29.331016 
L 397.690933 29.04013 
L 398.615769 28.453162 
L 399.540605 27.336365 
L 400.465442 27.029896 
L 403.239951 25.767656 
L 404.164787 25.51313 
L 406.01446 24.105446 
L 406.939296 23.783393 
L 408.788969 22.931511 
L 410.638641 22.640625 
L 411.563478 22.271822 
L 414.337987 21.544605 
L 415.262823 21.175803 
L 418.037332 20.812194 
L 418.962168 20.412225 
L 421.736677 19.840841 
L 424.511186 19.581121 
L 425.436023 19.305817 
L 440.233404 18.334464 
L 442.083077 18.266937 
L 445.782422 18.137077 
L 456.880458 17.924106 
L 475.377184 17.804635 
L 477.226857 17.66958 
L 481.851039 17.53972 
L 530.867364 17.368305 
L 631.674524 17.316361 
L 1117.213598 17.28 
L 1117.213598 17.28 
" clip-path="url(#pec30109ba0)" style="fill: none; stroke: #696969; stroke-width: 3; stroke-linecap: square"/>
   </g>
   <g id="patch_85">
    <path d="M 53.328125 228.96 
L 53.328125 7.2 
" style="fill: none; stroke: #000000; stroke-width: 0.8; stroke-linejoin: miter; stroke-linecap: square"/>
   </g>
   <g id="patch_86">
    <path d="M 1169.328125 228.96 
L 1169.328125 7.2 
" style="fill: none; stroke: #000000; stroke-width: 0.8; stroke-linejoin: miter; stroke-linecap: square"/>
   </g>
   <g id="patch_87">
    <path d="M 53.328125 228.96 
L 1169.328125 228.96 
" style="fill: none; stroke: #000000; stroke-width: 0.8; stroke-linejoin: miter; stroke-linecap: square"/>
   </g>
  </g>
 </g>
 <defs>
  <clipPath id="pec30109ba0">
   <rect x="53.328125" y="7.2" width="1116" height="221.76"/>
  </clipPath>
 </defs>
</svg>
