<?xml version="1.0" encoding="utf-8" standalone="no"?>
<!DOCTYPE svg PUBLIC "-//W3C//DTD SVG 1.1//EN"
  "http://www.w3.org/Graphics/SVG/1.1/DTD/svg11.dtd">
<svg xmlns:xlink="http://www.w3.org/1999/xlink" width="1216.29375pt" height="309.219375pt" viewBox="0 0 1216.29375 309.219375" xmlns="http://www.w3.org/2000/svg" version="1.1">
 <metadata>
  <rdf:RDF xmlns:dc="http://purl.org/dc/elements/1.1/" xmlns:cc="http://creativecommons.org/ns#" xmlns:rdf="http://www.w3.org/1999/02/22-rdf-syntax-ns#">
   <cc:Work>
    <dc:type rdf:resource="http://purl.org/dc/dcmitype/StillImage"/>
    <dc:date>2024-08-25T13:56:25.010579</dc:date>
    <dc:format>image/svg+xml</dc:format>
    <dc:creator>
     <cc:Agent>
      <dc:title>Matplotlib v3.5.3, https://matplotlib.org/</dc:title>
     </cc:Agent>
    </dc:creator>
   </cc:Work>
  </rdf:RDF>
 </metadata>
 <defs>
  <style type="text/css">*{stroke-linejoin: round; stroke-linecap: butt}</style>
 </defs>
 <g id="figure_1">
  <g id="patch_1">
   <path d="M 0 309.219375 
L 1216.29375 309.219375 
L 1216.29375 0 
L 0 0 
z
" style="fill: #ffffff"/>
  </g>
  <g id="axes_1">
   <g id="patch_2">
    <path d="M 66.053125 239.558438 
L 1182.053125 239.558438 
L 1182.053125 17.798437 
L 66.053125 17.798437 
z
" style="fill: #ffffff"/>
   </g>
   <g id="patch_3">
    <path d="M 116.780398 239.558438 
L 121.462195 239.558438 
L 121.462195 239.55551 
L 116.780398 239.55551 
z
" clip-path="url(#p44c5f9bd63)" style="fill: #86b0a6"/>
   </g>
   <g id="patch_4">
    <path d="M 123.334914 239.558438 
L 128.016711 239.558438 
L 128.016711 239.554046 
L 123.334914 239.554046 
z
" clip-path="url(#p44c5f9bd63)" style="fill: #86b0a6"/>
   </g>
   <g id="patch_5">
    <path d="M 129.88943 239.558438 
L 134.571227 239.558438 
L 134.571227 239.554778 
L 129.88943 239.554778 
z
" clip-path="url(#p44c5f9bd63)" style="fill: #86b0a6"/>
   </g>
   <g id="patch_6">
    <path d="M 136.443946 239.558438 
L 141.125743 239.558438 
L 141.125743 239.55185 
L 136.443946 239.55185 
z
" clip-path="url(#p44c5f9bd63)" style="fill: #86b0a6"/>
   </g>
   <g id="patch_7">
    <path d="M 142.998462 239.558438 
L 147.680259 239.558438 
L 147.680259 239.539407 
L 142.998462 239.539407 
z
" clip-path="url(#p44c5f9bd63)" style="fill: #86b0a6"/>
   </g>
   <g id="patch_8">
    <path d="M 149.552978 239.558438 
L 154.234775 239.558438 
L 154.234775 239.548922 
L 149.552978 239.548922 
z
" clip-path="url(#p44c5f9bd63)" style="fill: #86b0a6"/>
   </g>
   <g id="patch_9">
    <path d="M 156.107494 239.558438 
L 160.789291 239.558438 
L 160.789291 239.545263 
L 156.107494 239.545263 
z
" clip-path="url(#p44c5f9bd63)" style="fill: #86b0a6"/>
   </g>
   <g id="patch_10">
    <path d="M 162.66201 239.558438 
L 167.343808 239.558438 
L 167.343808 239.546727 
L 162.66201 239.546727 
z
" clip-path="url(#p44c5f9bd63)" style="fill: #86b0a6"/>
   </g>
   <g id="patch_11">
    <path d="M 169.216526 239.558438 
L 173.898324 239.558438 
L 173.898324 239.53648 
L 169.216526 239.53648 
z
" clip-path="url(#p44c5f9bd63)" style="fill: #86b0a6"/>
   </g>
   <g id="patch_12">
    <path d="M 175.771043 239.558438 
L 180.45284 239.558438 
L 180.45284 239.531356 
L 175.771043 239.531356 
z
" clip-path="url(#p44c5f9bd63)" style="fill: #86b0a6"/>
   </g>
   <g id="patch_13">
    <path d="M 182.325559 239.558438 
L 187.007356 239.558438 
L 187.007356 239.51379 
L 182.325559 239.51379 
z
" clip-path="url(#p44c5f9bd63)" style="fill: #86b0a6"/>
   </g>
   <g id="patch_14">
    <path d="M 188.880075 239.558438 
L 193.561872 239.558438 
L 193.561872 239.247368 
L 188.880075 239.247368 
z
" clip-path="url(#p44c5f9bd63)" style="fill: #86b0a6"/>
   </g>
   <g id="patch_15">
    <path d="M 195.434591 239.558438 
L 200.116388 239.558438 
L 200.116388 238.662558 
L 195.434591 238.662558 
z
" clip-path="url(#p44c5f9bd63)" style="fill: #86b0a6"/>
   </g>
   <g id="patch_16">
    <path d="M 201.989107 239.558438 
L 206.670904 239.558438 
L 206.670904 235.966135 
L 201.989107 235.966135 
z
" clip-path="url(#p44c5f9bd63)" style="fill: #86b0a6"/>
   </g>
   <g id="patch_17">
    <path d="M 208.543623 239.558438 
L 213.22542 239.558438 
L 213.22542 224.47999 
L 208.543623 224.47999 
z
" clip-path="url(#p44c5f9bd63)" style="fill: #86b0a6"/>
   </g>
   <g id="patch_18">
    <path d="M 215.098139 239.558438 
L 219.779936 239.558438 
L 219.779936 172.972758 
L 215.098139 172.972758 
z
" clip-path="url(#p44c5f9bd63)" style="fill: #86b0a6"/>
   </g>
   <g id="patch_19">
    <path d="M 221.652655 239.558438 
L 226.334452 239.558438 
L 226.334452 134.297686 
L 221.652655 134.297686 
z
" clip-path="url(#p44c5f9bd63)" style="fill: #86b0a6"/>
   </g>
   <g id="patch_20">
    <path d="M 228.207171 239.558438 
L 232.888968 239.558438 
L 232.888968 73.250505 
L 228.207171 73.250505 
z
" clip-path="url(#p44c5f9bd63)" style="fill: #86b0a6"/>
   </g>
   <g id="patch_21">
    <path d="M 234.761687 239.558438 
L 239.443485 239.558438 
L 239.443485 28.358438 
L 234.761687 28.358438 
z
" clip-path="url(#p44c5f9bd63)" style="fill: #86b0a6"/>
   </g>
   <g id="patch_22">
    <path d="M 241.316203 239.558438 
L 245.998001 239.558438 
L 245.998001 41.915207 
L 241.316203 41.915207 
z
" clip-path="url(#p44c5f9bd63)" style="fill: #86b0a6"/>
   </g>
   <g id="patch_23">
    <path d="M 247.870719 239.558438 
L 252.552517 239.558438 
L 252.552517 30.609116 
L 247.870719 30.609116 
z
" clip-path="url(#p44c5f9bd63)" style="fill: #86b0a6"/>
   </g>
   <g id="patch_24">
    <path d="M 254.425236 239.558438 
L 259.107033 239.558438 
L 259.107033 55.197503 
L 254.425236 55.197503 
z
" clip-path="url(#p44c5f9bd63)" style="fill: #86b0a6"/>
   </g>
   <g id="patch_25">
    <path d="M 260.979752 239.558438 
L 265.661549 239.558438 
L 265.661549 49.43723 
L 260.979752 49.43723 
z
" clip-path="url(#p44c5f9bd63)" style="fill: #86b0a6"/>
   </g>
   <g id="patch_26">
    <path d="M 267.534268 239.558438 
L 272.216065 239.558438 
L 272.216065 60.544968 
L 267.534268 60.544968 
z
" clip-path="url(#p44c5f9bd63)" style="fill: #86b0a6"/>
   </g>
   <g id="patch_27">
    <path d="M 274.088784 239.558438 
L 278.770581 239.558438 
L 278.770581 78.226151 
L 274.088784 78.226151 
z
" clip-path="url(#p44c5f9bd63)" style="fill: #86b0a6"/>
   </g>
   <g id="patch_28">
    <path d="M 280.6433 239.558438 
L 285.325097 239.558438 
L 285.325097 102.720119 
L 280.6433 102.720119 
z
" clip-path="url(#p44c5f9bd63)" style="fill: #86b0a6"/>
   </g>
   <g id="patch_29">
    <path d="M 287.197816 239.558438 
L 291.879613 239.558438 
L 291.879613 119.229486 
L 287.197816 119.229486 
z
" clip-path="url(#p44c5f9bd63)" style="fill: #86b0a6"/>
   </g>
   <g id="patch_30">
    <path d="M 293.752332 239.558438 
L 298.434129 239.558438 
L 298.434129 109.229886 
L 293.752332 109.229886 
z
" clip-path="url(#p44c5f9bd63)" style="fill: #86b0a6"/>
   </g>
   <g id="patch_31">
    <path d="M 300.306848 239.558438 
L 304.988645 239.558438 
L 304.988645 105.096689 
L 300.306848 105.096689 
z
" clip-path="url(#p44c5f9bd63)" style="fill: #86b0a6"/>
   </g>
   <g id="patch_32">
    <path d="M 306.861364 239.558438 
L 311.543161 239.558438 
L 311.543161 113.083487 
L 306.861364 113.083487 
z
" clip-path="url(#p44c5f9bd63)" style="fill: #86b0a6"/>
   </g>
   <g id="patch_33">
    <path d="M 313.41588 239.558438 
L 318.097678 239.558438 
L 318.097678 132.639137 
L 313.41588 132.639137 
z
" clip-path="url(#p44c5f9bd63)" style="fill: #86b0a6"/>
   </g>
   <g id="patch_34">
    <path d="M 319.970396 239.558438 
L 324.652194 239.558438 
L 324.652194 146.668 
L 319.970396 146.668 
z
" clip-path="url(#p44c5f9bd63)" style="fill: #86b0a6"/>
   </g>
   <g id="patch_35">
    <path d="M 326.524913 239.558438 
L 331.20671 239.558438 
L 331.20671 152.491951 
L 326.524913 152.491951 
z
" clip-path="url(#p44c5f9bd63)" style="fill: #86b0a6"/>
   </g>
   <g id="patch_36">
    <path d="M 333.079429 239.558438 
L 337.761226 239.558438 
L 337.761226 153.901644 
L 333.079429 153.901644 
z
" clip-path="url(#p44c5f9bd63)" style="fill: #86b0a6"/>
   </g>
   <g id="patch_37">
    <path d="M 339.633945 239.558438 
L 344.315742 239.558438 
L 344.315742 161.746447 
L 339.633945 161.746447 
z
" clip-path="url(#p44c5f9bd63)" style="fill: #86b0a6"/>
   </g>
   <g id="patch_38">
    <path d="M 346.188461 239.558438 
L 350.870258 239.558438 
L 350.870258 165.879644 
L 346.188461 165.879644 
z
" clip-path="url(#p44c5f9bd63)" style="fill: #86b0a6"/>
   </g>
   <g id="patch_39">
    <path d="M 352.742977 239.558438 
L 357.424774 239.558438 
L 357.424774 163.097586 
L 352.742977 163.097586 
z
" clip-path="url(#p44c5f9bd63)" style="fill: #86b0a6"/>
   </g>
   <g id="patch_40">
    <path d="M 359.297493 239.558438 
L 363.97929 239.558438 
L 363.97929 169.813025 
L 359.297493 169.813025 
z
" clip-path="url(#p44c5f9bd63)" style="fill: #86b0a6"/>
   </g>
   <g id="patch_41">
    <path d="M 365.852009 239.558438 
L 370.533806 239.558438 
L 370.533806 172.421616 
L 365.852009 172.421616 
z
" clip-path="url(#p44c5f9bd63)" style="fill: #86b0a6"/>
   </g>
   <g id="patch_42">
    <path d="M 372.406525 239.558438 
L 377.088322 239.558438 
L 377.088322 171.748242 
L 372.406525 171.748242 
z
" clip-path="url(#p44c5f9bd63)" style="fill: #86b0a6"/>
   </g>
   <g id="patch_43">
    <path d="M 378.961041 239.558438 
L 383.642838 239.558438 
L 383.642838 164.745888 
L 378.961041 164.745888 
z
" clip-path="url(#p44c5f9bd63)" style="fill: #86b0a6"/>
   </g>
   <g id="patch_44">
    <path d="M 385.515557 239.558438 
L 390.197355 239.558438 
L 390.197355 161.994571 
L 385.515557 161.994571 
z
" clip-path="url(#p44c5f9bd63)" style="fill: #86b0a6"/>
   </g>
   <g id="patch_45">
    <path d="M 392.070073 239.558438 
L 396.751871 239.558438 
L 396.751871 155.968608 
L 392.070073 155.968608 
z
" clip-path="url(#p44c5f9bd63)" style="fill: #86b0a6"/>
   </g>
   <g id="patch_46">
    <path d="M 398.62459 239.558438 
L 403.306387 239.558438 
L 403.306387 147.324539 
L 398.62459 147.324539 
z
" clip-path="url(#p44c5f9bd63)" style="fill: #86b0a6"/>
   </g>
   <g id="patch_47">
    <path d="M 405.179106 239.558438 
L 409.860903 239.558438 
L 409.860903 144.22702 
L 405.179106 144.22702 
z
" clip-path="url(#p44c5f9bd63)" style="fill: #86b0a6"/>
   </g>
   <g id="patch_48">
    <path d="M 411.733622 239.558438 
L 416.415419 239.558438 
L 416.415419 142.124923 
L 411.733622 142.124923 
z
" clip-path="url(#p44c5f9bd63)" style="fill: #86b0a6"/>
   </g>
   <g id="patch_49">
    <path d="M 418.288138 239.558438 
L 422.969935 239.558438 
L 422.969935 147.702214 
L 418.288138 147.702214 
z
" clip-path="url(#p44c5f9bd63)" style="fill: #86b0a6"/>
   </g>
   <g id="patch_50">
    <path d="M 424.842654 239.558438 
L 429.524451 239.558438 
L 429.524451 161.066486 
L 424.842654 161.066486 
z
" clip-path="url(#p44c5f9bd63)" style="fill: #86b0a6"/>
   </g>
   <g id="patch_51">
    <path d="M 431.39717 239.558438 
L 436.078967 239.558438 
L 436.078967 167.279091 
L 431.39717 167.279091 
z
" clip-path="url(#p44c5f9bd63)" style="fill: #86b0a6"/>
   </g>
   <g id="patch_52">
    <path d="M 437.951686 239.558438 
L 442.633483 239.558438 
L 442.633483 175.654542 
L 437.951686 175.654542 
z
" clip-path="url(#p44c5f9bd63)" style="fill: #86b0a6"/>
   </g>
   <g id="patch_53">
    <path d="M 444.506202 239.558438 
L 449.187999 239.558438 
L 449.187999 177.665148 
L 444.506202 177.665148 
z
" clip-path="url(#p44c5f9bd63)" style="fill: #86b0a6"/>
   </g>
   <g id="patch_54">
    <path d="M 451.060718 239.558438 
L 455.742515 239.558438 
L 455.742515 181.367971 
L 451.060718 181.367971 
z
" clip-path="url(#p44c5f9bd63)" style="fill: #86b0a6"/>
   </g>
   <g id="patch_55">
    <path d="M 457.615234 239.558438 
L 462.297032 239.558438 
L 462.297032 186.105009 
L 457.615234 186.105009 
z
" clip-path="url(#p44c5f9bd63)" style="fill: #86b0a6"/>
   </g>
   <g id="patch_56">
    <path d="M 464.16975 239.558438 
L 468.851548 239.558438 
L 468.851548 188.050473 
L 464.16975 188.050473 
z
" clip-path="url(#p44c5f9bd63)" style="fill: #86b0a6"/>
   </g>
   <g id="patch_57">
    <path d="M 470.724267 239.558438 
L 475.406064 239.558438 
L 475.406064 186.302629 
L 470.724267 186.302629 
z
" clip-path="url(#p44c5f9bd63)" style="fill: #86b0a6"/>
   </g>
   <g id="patch_58">
    <path d="M 477.278783 239.558438 
L 481.96058 239.558438 
L 481.96058 189.11616 
L 477.278783 189.11616 
z
" clip-path="url(#p44c5f9bd63)" style="fill: #86b0a6"/>
   </g>
   <g id="patch_59">
    <path d="M 483.833299 239.558438 
L 488.515096 239.558438 
L 488.515096 192.229782 
L 483.833299 192.229782 
z
" clip-path="url(#p44c5f9bd63)" style="fill: #86b0a6"/>
   </g>
   <g id="patch_60">
    <path d="M 490.387815 239.558438 
L 495.069612 239.558438 
L 495.069612 191.472968 
L 490.387815 191.472968 
z
" clip-path="url(#p44c5f9bd63)" style="fill: #86b0a6"/>
   </g>
   <g id="patch_61">
    <path d="M 496.942331 239.558438 
L 501.624128 239.558438 
L 501.624128 190.825944 
L 496.942331 190.825944 
z
" clip-path="url(#p44c5f9bd63)" style="fill: #86b0a6"/>
   </g>
   <g id="patch_62">
    <path d="M 503.496847 239.558438 
L 508.178644 239.558438 
L 508.178644 194.854475 
L 503.496847 194.854475 
z
" clip-path="url(#p44c5f9bd63)" style="fill: #86b0a6"/>
   </g>
   <g id="patch_63">
    <path d="M 510.051363 239.558438 
L 514.73316 239.558438 
L 514.73316 194.30187 
L 510.051363 194.30187 
z
" clip-path="url(#p44c5f9bd63)" style="fill: #86b0a6"/>
   </g>
   <g id="patch_64">
    <path d="M 516.605879 239.558438 
L 521.287676 239.558438 
L 521.287676 198.164253 
L 516.605879 198.164253 
z
" clip-path="url(#p44c5f9bd63)" style="fill: #86b0a6"/>
   </g>
   <g id="patch_65">
    <path d="M 523.160395 239.558438 
L 527.842192 239.558438 
L 527.842192 193.831972 
L 523.160395 193.831972 
z
" clip-path="url(#p44c5f9bd63)" style="fill: #86b0a6"/>
   </g>
   <g id="patch_66">
    <path d="M 529.714911 239.558438 
L 534.396709 239.558438 
L 534.396709 194.304066 
L 529.714911 194.304066 
z
" clip-path="url(#p44c5f9bd63)" style="fill: #86b0a6"/>
   </g>
   <g id="patch_67">
    <path d="M 536.269427 239.558438 
L 540.951225 239.558438 
L 540.951225 192.661619 
L 536.269427 192.661619 
z
" clip-path="url(#p44c5f9bd63)" style="fill: #86b0a6"/>
   </g>
   <g id="patch_68">
    <path d="M 542.823943 239.558438 
L 547.505741 239.558438 
L 547.505741 184.00584 
L 542.823943 184.00584 
z
" clip-path="url(#p44c5f9bd63)" style="fill: #86b0a6"/>
   </g>
   <g id="patch_69">
    <path d="M 549.37846 239.558438 
L 554.060257 239.558438 
L 554.060257 185.659997 
L 549.37846 185.659997 
z
" clip-path="url(#p44c5f9bd63)" style="fill: #86b0a6"/>
   </g>
   <g id="patch_70">
    <path d="M 555.932976 239.558438 
L 560.614773 239.558438 
L 560.614773 184.998334 
L 555.932976 184.998334 
z
" clip-path="url(#p44c5f9bd63)" style="fill: #86b0a6"/>
   </g>
   <g id="patch_71">
    <path d="M 562.487492 239.558438 
L 567.169289 239.558438 
L 567.169289 189.87151 
L 562.487492 189.87151 
z
" clip-path="url(#p44c5f9bd63)" style="fill: #86b0a6"/>
   </g>
   <g id="patch_72">
    <path d="M 569.042008 239.558438 
L 573.723805 239.558438 
L 573.723805 196.914121 
L 569.042008 196.914121 
z
" clip-path="url(#p44c5f9bd63)" style="fill: #86b0a6"/>
   </g>
   <g id="patch_73">
    <path d="M 575.596524 239.558438 
L 580.278321 239.558438 
L 580.278321 199.461962 
L 575.596524 199.461962 
z
" clip-path="url(#p44c5f9bd63)" style="fill: #86b0a6"/>
   </g>
   <g id="patch_74">
    <path d="M 582.15104 239.558438 
L 586.832837 239.558438 
L 586.832837 207.713717 
L 582.15104 207.713717 
z
" clip-path="url(#p44c5f9bd63)" style="fill: #86b0a6"/>
   </g>
   <g id="patch_75">
    <path d="M 588.705556 239.558438 
L 593.387353 239.558438 
L 593.387353 214.740225 
L 588.705556 214.740225 
z
" clip-path="url(#p44c5f9bd63)" style="fill: #86b0a6"/>
   </g>
   <g id="patch_76">
    <path d="M 595.260072 239.558438 
L 599.941869 239.558438 
L 599.941869 218.688245 
L 595.260072 218.688245 
z
" clip-path="url(#p44c5f9bd63)" style="fill: #86b0a6"/>
   </g>
   <g id="patch_77">
    <path d="M 601.814588 239.558438 
L 606.496385 239.558438 
L 606.496385 220.973324 
L 601.814588 220.973324 
z
" clip-path="url(#p44c5f9bd63)" style="fill: #86b0a6"/>
   </g>
   <g id="patch_78">
    <path d="M 608.369104 239.558438 
L 613.050902 239.558438 
L 613.050902 223.42089 
L 608.369104 223.42089 
z
" clip-path="url(#p44c5f9bd63)" style="fill: #86b0a6"/>
   </g>
   <g id="patch_79">
    <path d="M 614.92362 239.558438 
L 619.605418 239.558438 
L 619.605418 225.699382 
L 614.92362 225.699382 
z
" clip-path="url(#p44c5f9bd63)" style="fill: #86b0a6"/>
   </g>
   <g id="patch_80">
    <path d="M 621.478137 239.558438 
L 626.159934 239.558438 
L 626.159934 228.097178 
L 621.478137 228.097178 
z
" clip-path="url(#p44c5f9bd63)" style="fill: #86b0a6"/>
   </g>
   <g id="patch_81">
    <path d="M 628.032653 239.558438 
L 632.71445 239.558438 
L 632.71445 230.539622 
L 628.032653 230.539622 
z
" clip-path="url(#p44c5f9bd63)" style="fill: #86b0a6"/>
   </g>
   <g id="patch_82">
    <path d="M 634.587169 239.558438 
L 639.268966 239.558438 
L 639.268966 232.069351 
L 634.587169 232.069351 
z
" clip-path="url(#p44c5f9bd63)" style="fill: #86b0a6"/>
   </g>
   <g id="patch_83">
    <path d="M 641.141685 239.558438 
L 645.823482 239.558438 
L 645.823482 233.315092 
L 641.141685 233.315092 
z
" clip-path="url(#p44c5f9bd63)" style="fill: #86b0a6"/>
   </g>
   <g id="patch_84">
    <path d="M 647.696201 239.558438 
L 652.377998 239.558438 
L 652.377998 234.735764 
L 647.696201 234.735764 
z
" clip-path="url(#p44c5f9bd63)" style="fill: #86b0a6"/>
   </g>
   <g id="patch_85">
    <path d="M 654.250717 239.558438 
L 658.932514 239.558438 
L 658.932514 235.756072 
L 654.250717 235.756072 
z
" clip-path="url(#p44c5f9bd63)" style="fill: #86b0a6"/>
   </g>
   <g id="patch_86">
    <path d="M 660.805233 239.558438 
L 665.48703 239.558438 
L 665.48703 236.730268 
L 660.805233 236.730268 
z
" clip-path="url(#p44c5f9bd63)" style="fill: #86b0a6"/>
   </g>
   <g id="patch_87">
    <path d="M 667.359749 239.558438 
L 672.041546 239.558438 
L 672.041546 237.159178 
L 667.359749 237.159178 
z
" clip-path="url(#p44c5f9bd63)" style="fill: #86b0a6"/>
   </g>
   <g id="patch_88">
    <path d="M 673.914265 239.558438 
L 678.596062 239.558438 
L 678.596062 237.485618 
L 673.914265 237.485618 
z
" clip-path="url(#p44c5f9bd63)" style="fill: #86b0a6"/>
   </g>
   <g id="patch_89">
    <path d="M 680.468781 239.558438 
L 685.150579 239.558438 
L 685.150579 237.872807 
L 680.468781 237.872807 
z
" clip-path="url(#p44c5f9bd63)" style="fill: #86b0a6"/>
   </g>
   <g id="patch_90">
    <path d="M 687.023297 239.558438 
L 691.705095 239.558438 
L 691.705095 238.284151 
L 687.023297 238.284151 
z
" clip-path="url(#p44c5f9bd63)" style="fill: #86b0a6"/>
   </g>
   <g id="patch_91">
    <path d="M 693.577814 239.558438 
L 698.259611 239.558438 
L 698.259611 238.581314 
L 693.577814 238.581314 
z
" clip-path="url(#p44c5f9bd63)" style="fill: #86b0a6"/>
   </g>
   <g id="patch_92">
    <path d="M 700.13233 239.558438 
L 704.814127 239.558438 
L 704.814127 238.816263 
L 700.13233 238.816263 
z
" clip-path="url(#p44c5f9bd63)" style="fill: #86b0a6"/>
   </g>
   <g id="patch_93">
    <path d="M 706.686846 239.558438 
L 711.368643 239.558438 
L 711.368643 238.868229 
L 706.686846 238.868229 
z
" clip-path="url(#p44c5f9bd63)" style="fill: #86b0a6"/>
   </g>
   <g id="patch_94">
    <path d="M 713.241362 239.558438 
L 717.923159 239.558438 
L 717.923159 238.954597 
L 713.241362 238.954597 
z
" clip-path="url(#p44c5f9bd63)" style="fill: #86b0a6"/>
   </g>
   <g id="patch_95">
    <path d="M 719.795878 239.558438 
L 724.477675 239.558438 
L 724.477675 239.06219 
L 719.795878 239.06219 
z
" clip-path="url(#p44c5f9bd63)" style="fill: #86b0a6"/>
   </g>
   <g id="patch_96">
    <path d="M 726.350394 239.558438 
L 731.032191 239.558438 
L 731.032191 239.125136 
L 726.350394 239.125136 
z
" clip-path="url(#p44c5f9bd63)" style="fill: #86b0a6"/>
   </g>
   <g id="patch_97">
    <path d="M 732.90491 239.558438 
L 737.586707 239.558438 
L 737.586707 239.181495 
L 732.90491 239.181495 
z
" clip-path="url(#p44c5f9bd63)" style="fill: #86b0a6"/>
   </g>
   <g id="patch_98">
    <path d="M 739.459426 239.558438 
L 744.141223 239.558438 
L 744.141223 239.242245 
L 739.459426 239.242245 
z
" clip-path="url(#p44c5f9bd63)" style="fill: #86b0a6"/>
   </g>
   <g id="patch_99">
    <path d="M 746.013942 239.558438 
L 750.695739 239.558438 
L 750.695739 239.275913 
L 746.013942 239.275913 
z
" clip-path="url(#p44c5f9bd63)" style="fill: #86b0a6"/>
   </g>
   <g id="patch_100">
    <path d="M 752.568458 239.558438 
L 757.250256 239.558438 
L 757.250256 239.248832 
L 752.568458 239.248832 
z
" clip-path="url(#p44c5f9bd63)" style="fill: #86b0a6"/>
   </g>
   <g id="patch_101">
    <path d="M 759.122974 239.558438 
L 763.804772 239.558438 
L 763.804772 239.317633 
L 759.122974 239.317633 
z
" clip-path="url(#p44c5f9bd63)" style="fill: #86b0a6"/>
   </g>
   <g id="patch_102">
    <path d="M 765.67749 239.558438 
L 770.359288 239.558438 
L 770.359288 239.302995 
L 765.67749 239.302995 
z
" clip-path="url(#p44c5f9bd63)" style="fill: #86b0a6"/>
   </g>
   <g id="patch_103">
    <path d="M 772.232007 239.558438 
L 776.913804 239.558438 
L 776.913804 239.251028 
L 772.232007 239.251028 
z
" clip-path="url(#p44c5f9bd63)" style="fill: #86b0a6"/>
   </g>
   <g id="patch_104">
    <path d="M 778.786523 239.558438 
L 783.46832 239.558438 
L 783.46832 239.282501 
L 778.786523 239.282501 
z
" clip-path="url(#p44c5f9bd63)" style="fill: #86b0a6"/>
   </g>
   <g id="patch_105">
    <path d="M 785.341039 239.558438 
L 790.022836 239.558438 
L 790.022836 239.262739 
L 785.341039 239.262739 
z
" clip-path="url(#p44c5f9bd63)" style="fill: #86b0a6"/>
   </g>
   <g id="patch_106">
    <path d="M 791.895555 239.558438 
L 796.577352 239.558438 
L 796.577352 239.161001 
L 791.895555 239.161001 
z
" clip-path="url(#p44c5f9bd63)" style="fill: #86b0a6"/>
   </g>
   <g id="patch_107">
    <path d="M 798.450071 239.558438 
L 803.131868 239.558438 
L 803.131868 239.14929 
L 798.450071 239.14929 
z
" clip-path="url(#p44c5f9bd63)" style="fill: #86b0a6"/>
   </g>
   <g id="patch_108">
    <path d="M 805.004587 239.558438 
L 809.686384 239.558438 
L 809.686384 239.106106 
L 805.004587 239.106106 
z
" clip-path="url(#p44c5f9bd63)" style="fill: #86b0a6"/>
   </g>
   <g id="patch_109">
    <path d="M 811.559103 239.558438 
L 816.2409 239.558438 
L 816.2409 239.12294 
L 811.559103 239.12294 
z
" clip-path="url(#p44c5f9bd63)" style="fill: #86b0a6"/>
   </g>
   <g id="patch_110">
    <path d="M 818.113619 239.558438 
L 822.795416 239.558438 
L 822.795416 239.090004 
L 818.113619 239.090004 
z
" clip-path="url(#p44c5f9bd63)" style="fill: #86b0a6"/>
   </g>
   <g id="patch_111">
    <path d="M 824.668135 239.558438 
L 829.349932 239.558438 
L 829.349932 239.018275 
L 824.668135 239.018275 
z
" clip-path="url(#p44c5f9bd63)" style="fill: #86b0a6"/>
   </g>
   <g id="patch_112">
    <path d="M 831.222651 239.558438 
L 835.904449 239.558438 
L 835.904449 238.920928 
L 831.222651 238.920928 
z
" clip-path="url(#p44c5f9bd63)" style="fill: #86b0a6"/>
   </g>
   <g id="patch_113">
    <path d="M 837.777167 239.558438 
L 842.458965 239.558438 
L 842.458965 238.854323 
L 837.777167 238.854323 
z
" clip-path="url(#p44c5f9bd63)" style="fill: #86b0a6"/>
   </g>
   <g id="patch_114">
    <path d="M 844.331684 239.558438 
L 849.013481 239.558438 
L 849.013481 238.759172 
L 844.331684 238.759172 
z
" clip-path="url(#p44c5f9bd63)" style="fill: #86b0a6"/>
   </g>
   <g id="patch_115">
    <path d="M 850.8862 239.558438 
L 855.567997 239.558438 
L 855.567997 238.581314 
L 850.8862 238.581314 
z
" clip-path="url(#p44c5f9bd63)" style="fill: #86b0a6"/>
   </g>
   <g id="patch_116">
    <path d="M 857.440716 239.558438 
L 862.122513 239.558438 
L 862.122513 238.24975 
L 857.440716 238.24975 
z
" clip-path="url(#p44c5f9bd63)" style="fill: #86b0a6"/>
   </g>
   <g id="patch_117">
    <path d="M 863.995232 239.558438 
L 868.677029 239.558438 
L 868.677029 237.9116 
L 863.995232 237.9116 
z
" clip-path="url(#p44c5f9bd63)" style="fill: #86b0a6"/>
   </g>
   <g id="patch_118">
    <path d="M 870.549748 239.558438 
L 875.231545 239.558438 
L 875.231545 237.146735 
L 870.549748 237.146735 
z
" clip-path="url(#p44c5f9bd63)" style="fill: #86b0a6"/>
   </g>
   <g id="patch_119">
    <path d="M 877.104264 239.558438 
L 881.786061 239.558438 
L 881.786061 236.212063 
L 877.104264 236.212063 
z
" clip-path="url(#p44c5f9bd63)" style="fill: #86b0a6"/>
   </g>
   <g id="patch_120">
    <path d="M 883.65878 239.558438 
L 888.340577 239.558438 
L 888.340577 234.164129 
L 883.65878 234.164129 
z
" clip-path="url(#p44c5f9bd63)" style="fill: #86b0a6"/>
   </g>
   <g id="patch_121">
    <path d="M 890.213296 239.558438 
L 894.895093 239.558438 
L 894.895093 231.89808 
L 890.213296 231.89808 
z
" clip-path="url(#p44c5f9bd63)" style="fill: #86b0a6"/>
   </g>
   <g id="patch_122">
    <path d="M 896.767812 239.558438 
L 901.449609 239.558438 
L 901.449609 229.733037 
L 896.767812 229.733037 
z
" clip-path="url(#p44c5f9bd63)" style="fill: #86b0a6"/>
   </g>
   <g id="patch_123">
    <path d="M 903.322328 239.558438 
L 908.004126 239.558438 
L 908.004126 229.468811 
L 903.322328 229.468811 
z
" clip-path="url(#p44c5f9bd63)" style="fill: #86b0a6"/>
   </g>
   <g id="patch_124">
    <path d="M 909.876844 239.558438 
L 914.558642 239.558438 
L 914.558642 229.189215 
L 909.876844 229.189215 
z
" clip-path="url(#p44c5f9bd63)" style="fill: #86b0a6"/>
   </g>
   <g id="patch_125">
    <path d="M 916.431361 239.558438 
L 921.113158 239.558438 
L 921.113158 227.791232 
L 916.431361 227.791232 
z
" clip-path="url(#p44c5f9bd63)" style="fill: #86b0a6"/>
   </g>
   <g id="patch_126">
    <path d="M 922.985877 239.558438 
L 927.667674 239.558438 
L 927.667674 228.155732 
L 922.985877 228.155732 
z
" clip-path="url(#p44c5f9bd63)" style="fill: #86b0a6"/>
   </g>
   <g id="patch_127">
    <path d="M 929.540393 239.558438 
L 934.22219 239.558438 
L 934.22219 229.288757 
L 929.540393 229.288757 
z
" clip-path="url(#p44c5f9bd63)" style="fill: #86b0a6"/>
   </g>
   <g id="patch_128">
    <path d="M 936.094909 239.558438 
L 940.776706 239.558438 
L 940.776706 229.959935 
L 936.094909 229.959935 
z
" clip-path="url(#p44c5f9bd63)" style="fill: #86b0a6"/>
   </g>
   <g id="patch_129">
    <path d="M 942.649425 239.558438 
L 947.331222 239.558438 
L 947.331222 229.904308 
L 942.649425 229.904308 
z
" clip-path="url(#p44c5f9bd63)" style="fill: #86b0a6"/>
   </g>
   <g id="patch_130">
    <path d="M 949.203941 239.558438 
L 953.885738 239.558438 
L 953.885738 230.69845 
L 949.203941 230.69845 
z
" clip-path="url(#p44c5f9bd63)" style="fill: #86b0a6"/>
   </g>
   <g id="patch_131">
    <path d="M 955.758457 239.558438 
L 960.440254 239.558438 
L 960.440254 231.783899 
L 955.758457 231.783899 
z
" clip-path="url(#p44c5f9bd63)" style="fill: #86b0a6"/>
   </g>
   <g id="patch_132">
    <path d="M 962.312973 239.558438 
L 966.99477 239.558438 
L 966.99477 232.389203 
L 962.312973 232.389203 
z
" clip-path="url(#p44c5f9bd63)" style="fill: #86b0a6"/>
   </g>
   <g id="patch_133">
    <path d="M 968.867489 239.558438 
L 973.549286 239.558438 
L 973.549286 233.386089 
L 968.867489 233.386089 
z
" clip-path="url(#p44c5f9bd63)" style="fill: #86b0a6"/>
   </g>
   <g id="patch_134">
    <path d="M 975.422005 239.558438 
L 980.103803 239.558438 
L 980.103803 233.885264 
L 975.422005 233.885264 
z
" clip-path="url(#p44c5f9bd63)" style="fill: #86b0a6"/>
   </g>
   <g id="patch_135">
    <path d="M 981.976521 239.558438 
L 986.658319 239.558438 
L 986.658319 234.376388 
L 981.976521 234.376388 
z
" clip-path="url(#p44c5f9bd63)" style="fill: #86b0a6"/>
   </g>
   <g id="patch_136">
    <path d="M 988.531037 239.558438 
L 993.212835 239.558438 
L 993.212835 235.136129 
L 988.531037 235.136129 
z
" clip-path="url(#p44c5f9bd63)" style="fill: #86b0a6"/>
   </g>
   <g id="patch_137">
    <path d="M 995.085554 239.558438 
L 999.767351 239.558438 
L 999.767351 235.849027 
L 995.085554 235.849027 
z
" clip-path="url(#p44c5f9bd63)" style="fill: #86b0a6"/>
   </g>
   <g id="patch_138">
    <path d="M 1001.64007 239.558438 
L 1006.321867 239.558438 
L 1006.321867 235.801451 
L 1001.64007 235.801451 
z
" clip-path="url(#p44c5f9bd63)" style="fill: #86b0a6"/>
   </g>
   <g id="patch_139">
    <path d="M 1008.194586 239.558438 
L 1012.876383 239.558438 
L 1012.876383 236.230361 
L 1008.194586 236.230361 
z
" clip-path="url(#p44c5f9bd63)" style="fill: #86b0a6"/>
   </g>
   <g id="patch_140">
    <path d="M 1014.749102 239.558438 
L 1019.430899 239.558438 
L 1019.430899 236.29843 
L 1014.749102 236.29843 
z
" clip-path="url(#p44c5f9bd63)" style="fill: #86b0a6"/>
   </g>
   <g id="patch_141">
    <path d="M 1021.303618 239.558438 
L 1025.985415 239.558438 
L 1025.985415 236.112521 
L 1021.303618 236.112521 
z
" clip-path="url(#p44c5f9bd63)" style="fill: #86b0a6"/>
   </g>
   <g id="patch_142">
    <path d="M 1027.858134 239.558438 
L 1032.539931 239.558438 
L 1032.539931 235.836584 
L 1027.858134 235.836584 
z
" clip-path="url(#p44c5f9bd63)" style="fill: #86b0a6"/>
   </g>
   <g id="patch_143">
    <path d="M 1034.41265 239.558438 
L 1039.094447 239.558438 
L 1039.094447 235.273731 
L 1034.41265 235.273731 
z
" clip-path="url(#p44c5f9bd63)" style="fill: #86b0a6"/>
   </g>
   <g id="patch_144">
    <path d="M 1040.967166 239.558438 
L 1045.648963 239.558438 
L 1045.648963 234.934849 
L 1040.967166 234.934849 
z
" clip-path="url(#p44c5f9bd63)" style="fill: #86b0a6"/>
   </g>
   <g id="patch_145">
    <path d="M 1047.521682 239.558438 
L 1052.203479 239.558438 
L 1052.203479 234.506671 
L 1047.521682 234.506671 
z
" clip-path="url(#p44c5f9bd63)" style="fill: #86b0a6"/>
   </g>
   <g id="patch_146">
    <path d="M 1054.076198 239.558438 
L 1058.757996 239.558438 
L 1058.757996 234.500816 
L 1054.076198 234.500816 
z
" clip-path="url(#p44c5f9bd63)" style="fill: #86b0a6"/>
   </g>
   <g id="patch_147">
    <path d="M 1060.630714 239.558438 
L 1065.312512 239.558438 
L 1065.312512 233.303381 
L 1060.630714 233.303381 
z
" clip-path="url(#p44c5f9bd63)" style="fill: #86b0a6"/>
   </g>
   <g id="patch_148">
    <path d="M 1067.185231 239.558438 
L 1071.867028 239.558438 
L 1071.867028 233.581514 
L 1067.185231 233.581514 
z
" clip-path="url(#p44c5f9bd63)" style="fill: #86b0a6"/>
   </g>
   <g id="patch_149">
    <path d="M 1073.739747 239.558438 
L 1078.421544 239.558438 
L 1078.421544 232.802743 
L 1073.739747 232.802743 
z
" clip-path="url(#p44c5f9bd63)" style="fill: #86b0a6"/>
   </g>
   <g id="patch_150">
    <path d="M 1080.294263 239.558438 
L 1084.97606 239.558438 
L 1084.97606 232.58536 
L 1080.294263 232.58536 
z
" clip-path="url(#p44c5f9bd63)" style="fill: #86b0a6"/>
   </g>
   <g id="patch_151">
    <path d="M 1086.848779 239.558438 
L 1091.530576 239.558438 
L 1091.530576 233.23458 
L 1086.848779 233.23458 
z
" clip-path="url(#p44c5f9bd63)" style="fill: #86b0a6"/>
   </g>
   <g id="patch_152">
    <path d="M 1093.403295 239.558438 
L 1098.085092 239.558438 
L 1098.085092 232.975478 
L 1093.403295 232.975478 
z
" clip-path="url(#p44c5f9bd63)" style="fill: #86b0a6"/>
   </g>
   <g id="patch_153">
    <path d="M 1099.957811 239.558438 
L 1104.639608 239.558438 
L 1104.639608 233.559556 
L 1099.957811 233.559556 
z
" clip-path="url(#p44c5f9bd63)" style="fill: #86b0a6"/>
   </g>
   <g id="patch_154">
    <path d="M 1106.512327 239.558438 
L 1111.194124 239.558438 
L 1111.194124 234.182427 
L 1106.512327 234.182427 
z
" clip-path="url(#p44c5f9bd63)" style="fill: #86b0a6"/>
   </g>
   <g id="patch_155">
    <path d="M 1113.066843 239.558438 
L 1117.74864 239.558438 
L 1117.74864 236.338687 
L 1113.066843 236.338687 
z
" clip-path="url(#p44c5f9bd63)" style="fill: #86b0a6"/>
   </g>
   <g id="patch_156">
    <path d="M 1119.621359 239.558438 
L 1124.303156 239.558438 
L 1124.303156 238.105561 
L 1119.621359 238.105561 
z
" clip-path="url(#p44c5f9bd63)" style="fill: #86b0a6"/>
   </g>
   <g id="patch_157">
    <path d="M 1126.175875 239.558438 
L 1130.857673 239.558438 
L 1130.857673 239.35057 
L 1126.175875 239.35057 
z
" clip-path="url(#p44c5f9bd63)" style="fill: #86b0a6"/>
   </g>
   <g id="matplotlib.axis_1">
    <g id="xtick_1">
     <g id="line2d_1">
      <defs>
       <path id="m46547747db" d="M 0 0 
L 0 3.5 
" style="stroke: #000000; stroke-width: 0.8"/>
      </defs>
      <g>
       <use xlink:href="#m46547747db" x="121.930375" y="239.558438" style="stroke: #000000; stroke-width: 0.8"/>
      </g>
     </g>
     <g id="text_1">
      <!-- 2021-09 -->
      <g transform="translate(124.68975 288.34125)rotate(-90)scale(0.1 -0.1)">
       <defs>
        <path id="DejaVuSans-32" d="M 1228 531 
L 3431 531 
L 3431 0 
L 469 0 
L 469 531 
Q 828 903 1448 1529 
Q 2069 2156 2228 2338 
Q 2531 2678 2651 2914 
Q 2772 3150 2772 3378 
Q 2772 3750 2511 3984 
Q 2250 4219 1831 4219 
Q 1534 4219 1204 4116 
Q 875 4013 500 3803 
L 500 4441 
Q 881 4594 1212 4672 
Q 1544 4750 1819 4750 
Q 2544 4750 2975 4387 
Q 3406 4025 3406 3419 
Q 3406 3131 3298 2873 
Q 3191 2616 2906 2266 
Q 2828 2175 2409 1742 
Q 1991 1309 1228 531 
z
" transform="scale(0.015625)"/>
        <path id="DejaVuSans-30" d="M 2034 4250 
Q 1547 4250 1301 3770 
Q 1056 3291 1056 2328 
Q 1056 1369 1301 889 
Q 1547 409 2034 409 
Q 2525 409 2770 889 
Q 3016 1369 3016 2328 
Q 3016 3291 2770 3770 
Q 2525 4250 2034 4250 
z
M 2034 4750 
Q 2819 4750 3233 4129 
Q 3647 3509 3647 2328 
Q 3647 1150 3233 529 
Q 2819 -91 2034 -91 
Q 1250 -91 836 529 
Q 422 1150 422 2328 
Q 422 3509 836 4129 
Q 1250 4750 2034 4750 
z
" transform="scale(0.015625)"/>
        <path id="DejaVuSans-31" d="M 794 531 
L 1825 531 
L 1825 4091 
L 703 3866 
L 703 4441 
L 1819 4666 
L 2450 4666 
L 2450 531 
L 3481 531 
L 3481 0 
L 794 0 
L 794 531 
z
" transform="scale(0.015625)"/>
        <path id="DejaVuSans-2d" d="M 313 2009 
L 1997 2009 
L 1997 1497 
L 313 1497 
L 313 2009 
z
" transform="scale(0.015625)"/>
        <path id="DejaVuSans-39" d="M 703 97 
L 703 672 
Q 941 559 1184 500 
Q 1428 441 1663 441 
Q 2288 441 2617 861 
Q 2947 1281 2994 2138 
Q 2813 1869 2534 1725 
Q 2256 1581 1919 1581 
Q 1219 1581 811 2004 
Q 403 2428 403 3163 
Q 403 3881 828 4315 
Q 1253 4750 1959 4750 
Q 2769 4750 3195 4129 
Q 3622 3509 3622 2328 
Q 3622 1225 3098 567 
Q 2575 -91 1691 -91 
Q 1453 -91 1209 -44 
Q 966 3 703 97 
z
M 1959 2075 
Q 2384 2075 2632 2365 
Q 2881 2656 2881 3163 
Q 2881 3666 2632 3958 
Q 2384 4250 1959 4250 
Q 1534 4250 1286 3958 
Q 1038 3666 1038 3163 
Q 1038 2656 1286 2365 
Q 1534 2075 1959 2075 
z
" transform="scale(0.015625)"/>
       </defs>
       <use xlink:href="#DejaVuSans-32"/>
       <use xlink:href="#DejaVuSans-30" x="63.623047"/>
       <use xlink:href="#DejaVuSans-32" x="127.246094"/>
       <use xlink:href="#DejaVuSans-31" x="190.869141"/>
       <use xlink:href="#DejaVuSans-2d" x="254.492188"/>
       <use xlink:href="#DejaVuSans-30" x="290.576172"/>
       <use xlink:href="#DejaVuSans-39" x="354.199219"/>
      </g>
     </g>
    </g>
    <g id="xtick_2">
     <g id="line2d_2">
      <g>
       <use xlink:href="#m46547747db" x="236.166226" y="239.558438" style="stroke: #000000; stroke-width: 0.8"/>
      </g>
     </g>
     <g id="text_2">
      <!-- 2022-01 -->
      <g transform="translate(238.925601 288.34125)rotate(-90)scale(0.1 -0.1)">
       <use xlink:href="#DejaVuSans-32"/>
       <use xlink:href="#DejaVuSans-30" x="63.623047"/>
       <use xlink:href="#DejaVuSans-32" x="127.246094"/>
       <use xlink:href="#DejaVuSans-32" x="190.869141"/>
       <use xlink:href="#DejaVuSans-2d" x="254.492188"/>
       <use xlink:href="#DejaVuSans-30" x="290.576172"/>
       <use xlink:href="#DejaVuSans-31" x="354.199219"/>
      </g>
     </g>
    </g>
    <g id="xtick_3">
     <g id="line2d_3">
      <g>
       <use xlink:href="#m46547747db" x="348.529359" y="239.558438" style="stroke: #000000; stroke-width: 0.8"/>
      </g>
     </g>
     <g id="text_3">
      <!-- 2022-05 -->
      <g transform="translate(351.288734 288.34125)rotate(-90)scale(0.1 -0.1)">
       <defs>
        <path id="DejaVuSans-35" d="M 691 4666 
L 3169 4666 
L 3169 4134 
L 1269 4134 
L 1269 2991 
Q 1406 3038 1543 3061 
Q 1681 3084 1819 3084 
Q 2600 3084 3056 2656 
Q 3513 2228 3513 1497 
Q 3513 744 3044 326 
Q 2575 -91 1722 -91 
Q 1428 -91 1123 -41 
Q 819 9 494 109 
L 494 744 
Q 775 591 1075 516 
Q 1375 441 1709 441 
Q 2250 441 2565 725 
Q 2881 1009 2881 1497 
Q 2881 1984 2565 2268 
Q 2250 2553 1709 2553 
Q 1456 2553 1204 2497 
Q 953 2441 691 2322 
L 691 4666 
z
" transform="scale(0.015625)"/>
       </defs>
       <use xlink:href="#DejaVuSans-32"/>
       <use xlink:href="#DejaVuSans-30" x="63.623047"/>
       <use xlink:href="#DejaVuSans-32" x="127.246094"/>
       <use xlink:href="#DejaVuSans-32" x="190.869141"/>
       <use xlink:href="#DejaVuSans-2d" x="254.492188"/>
       <use xlink:href="#DejaVuSans-30" x="290.576172"/>
       <use xlink:href="#DejaVuSans-35" x="354.199219"/>
      </g>
     </g>
    </g>
    <g id="xtick_4">
     <g id="line2d_4">
      <g>
       <use xlink:href="#m46547747db" x="463.701571" y="239.558438" style="stroke: #000000; stroke-width: 0.8"/>
      </g>
     </g>
     <g id="text_4">
      <!-- 2022-09 -->
      <g transform="translate(466.460946 288.34125)rotate(-90)scale(0.1 -0.1)">
       <use xlink:href="#DejaVuSans-32"/>
       <use xlink:href="#DejaVuSans-30" x="63.623047"/>
       <use xlink:href="#DejaVuSans-32" x="127.246094"/>
       <use xlink:href="#DejaVuSans-32" x="190.869141"/>
       <use xlink:href="#DejaVuSans-2d" x="254.492188"/>
       <use xlink:href="#DejaVuSans-30" x="290.576172"/>
       <use xlink:href="#DejaVuSans-39" x="354.199219"/>
      </g>
     </g>
    </g>
    <g id="xtick_5">
     <g id="line2d_5">
      <g>
       <use xlink:href="#m46547747db" x="577.937423" y="239.558438" style="stroke: #000000; stroke-width: 0.8"/>
      </g>
     </g>
     <g id="text_5">
      <!-- 2023-01 -->
      <g transform="translate(580.696798 288.34125)rotate(-90)scale(0.1 -0.1)">
       <defs>
        <path id="DejaVuSans-33" d="M 2597 2516 
Q 3050 2419 3304 2112 
Q 3559 1806 3559 1356 
Q 3559 666 3084 287 
Q 2609 -91 1734 -91 
Q 1441 -91 1130 -33 
Q 819 25 488 141 
L 488 750 
Q 750 597 1062 519 
Q 1375 441 1716 441 
Q 2309 441 2620 675 
Q 2931 909 2931 1356 
Q 2931 1769 2642 2001 
Q 2353 2234 1838 2234 
L 1294 2234 
L 1294 2753 
L 1863 2753 
Q 2328 2753 2575 2939 
Q 2822 3125 2822 3475 
Q 2822 3834 2567 4026 
Q 2313 4219 1838 4219 
Q 1578 4219 1281 4162 
Q 984 4106 628 3988 
L 628 4550 
Q 988 4650 1302 4700 
Q 1616 4750 1894 4750 
Q 2613 4750 3031 4423 
Q 3450 4097 3450 3541 
Q 3450 3153 3228 2886 
Q 3006 2619 2597 2516 
z
" transform="scale(0.015625)"/>
       </defs>
       <use xlink:href="#DejaVuSans-32"/>
       <use xlink:href="#DejaVuSans-30" x="63.623047"/>
       <use xlink:href="#DejaVuSans-32" x="127.246094"/>
       <use xlink:href="#DejaVuSans-33" x="190.869141"/>
       <use xlink:href="#DejaVuSans-2d" x="254.492188"/>
       <use xlink:href="#DejaVuSans-30" x="290.576172"/>
       <use xlink:href="#DejaVuSans-31" x="354.199219"/>
      </g>
     </g>
    </g>
    <g id="xtick_6">
     <g id="line2d_6">
      <g>
       <use xlink:href="#m46547747db" x="690.300555" y="239.558438" style="stroke: #000000; stroke-width: 0.8"/>
      </g>
     </g>
     <g id="text_6">
      <!-- 2023-05 -->
      <g transform="translate(693.05993 288.34125)rotate(-90)scale(0.1 -0.1)">
       <use xlink:href="#DejaVuSans-32"/>
       <use xlink:href="#DejaVuSans-30" x="63.623047"/>
       <use xlink:href="#DejaVuSans-32" x="127.246094"/>
       <use xlink:href="#DejaVuSans-33" x="190.869141"/>
       <use xlink:href="#DejaVuSans-2d" x="254.492188"/>
       <use xlink:href="#DejaVuSans-30" x="290.576172"/>
       <use xlink:href="#DejaVuSans-35" x="354.199219"/>
      </g>
     </g>
    </g>
    <g id="xtick_7">
     <g id="line2d_7">
      <g>
       <use xlink:href="#m46547747db" x="805.472767" y="239.558438" style="stroke: #000000; stroke-width: 0.8"/>
      </g>
     </g>
     <g id="text_7">
      <!-- 2023-09 -->
      <g transform="translate(808.232142 288.34125)rotate(-90)scale(0.1 -0.1)">
       <use xlink:href="#DejaVuSans-32"/>
       <use xlink:href="#DejaVuSans-30" x="63.623047"/>
       <use xlink:href="#DejaVuSans-32" x="127.246094"/>
       <use xlink:href="#DejaVuSans-33" x="190.869141"/>
       <use xlink:href="#DejaVuSans-2d" x="254.492188"/>
       <use xlink:href="#DejaVuSans-30" x="290.576172"/>
       <use xlink:href="#DejaVuSans-39" x="354.199219"/>
      </g>
     </g>
    </g>
    <g id="xtick_8">
     <g id="line2d_8">
      <g>
       <use xlink:href="#m46547747db" x="919.708619" y="239.558438" style="stroke: #000000; stroke-width: 0.8"/>
      </g>
     </g>
     <g id="text_8">
      <!-- 2024-01 -->
      <g transform="translate(922.467994 288.34125)rotate(-90)scale(0.1 -0.1)">
       <defs>
        <path id="DejaVuSans-34" d="M 2419 4116 
L 825 1625 
L 2419 1625 
L 2419 4116 
z
M 2253 4666 
L 3047 4666 
L 3047 1625 
L 3713 1625 
L 3713 1100 
L 3047 1100 
L 3047 0 
L 2419 0 
L 2419 1100 
L 313 1100 
L 313 1709 
L 2253 4666 
z
" transform="scale(0.015625)"/>
       </defs>
       <use xlink:href="#DejaVuSans-32"/>
       <use xlink:href="#DejaVuSans-30" x="63.623047"/>
       <use xlink:href="#DejaVuSans-32" x="127.246094"/>
       <use xlink:href="#DejaVuSans-34" x="190.869141"/>
       <use xlink:href="#DejaVuSans-2d" x="254.492188"/>
       <use xlink:href="#DejaVuSans-30" x="290.576172"/>
       <use xlink:href="#DejaVuSans-31" x="354.199219"/>
      </g>
     </g>
    </g>
    <g id="xtick_9">
     <g id="line2d_9">
      <g>
       <use xlink:href="#m46547747db" x="1033.008111" y="239.558438" style="stroke: #000000; stroke-width: 0.8"/>
      </g>
     </g>
     <g id="text_9">
      <!-- 2024-05 -->
      <g transform="translate(1035.767486 288.34125)rotate(-90)scale(0.1 -0.1)">
       <use xlink:href="#DejaVuSans-32"/>
       <use xlink:href="#DejaVuSans-30" x="63.623047"/>
       <use xlink:href="#DejaVuSans-32" x="127.246094"/>
       <use xlink:href="#DejaVuSans-34" x="190.869141"/>
       <use xlink:href="#DejaVuSans-2d" x="254.492188"/>
       <use xlink:href="#DejaVuSans-30" x="290.576172"/>
       <use xlink:href="#DejaVuSans-35" x="354.199219"/>
      </g>
     </g>
    </g>
    <g id="xtick_10">
     <g id="line2d_10">
      <g>
       <use xlink:href="#m46547747db" x="1148.180322" y="239.558438" style="stroke: #000000; stroke-width: 0.8"/>
      </g>
     </g>
     <g id="text_10">
      <!-- 2024-09 -->
      <g transform="translate(1150.939697 288.34125)rotate(-90)scale(0.1 -0.1)">
       <use xlink:href="#DejaVuSans-32"/>
       <use xlink:href="#DejaVuSans-30" x="63.623047"/>
       <use xlink:href="#DejaVuSans-32" x="127.246094"/>
       <use xlink:href="#DejaVuSans-34" x="190.869141"/>
       <use xlink:href="#DejaVuSans-2d" x="254.492188"/>
       <use xlink:href="#DejaVuSans-30" x="290.576172"/>
       <use xlink:href="#DejaVuSans-39" x="354.199219"/>
      </g>
     </g>
    </g>
    <g id="text_11">
     <!-- Date -->
     <g transform="translate(612.102344 299.939687)scale(0.1 -0.1)">
      <defs>
       <path id="DejaVuSans-44" d="M 1259 4147 
L 1259 519 
L 2022 519 
Q 2988 519 3436 956 
Q 3884 1394 3884 2338 
Q 3884 3275 3436 3711 
Q 2988 4147 2022 4147 
L 1259 4147 
z
M 628 4666 
L 1925 4666 
Q 3281 4666 3915 4102 
Q 4550 3538 4550 2338 
Q 4550 1131 3912 565 
Q 3275 0 1925 0 
L 628 0 
L 628 4666 
z
" transform="scale(0.015625)"/>
       <path id="DejaVuSans-61" d="M 2194 1759 
Q 1497 1759 1228 1600 
Q 959 1441 959 1056 
Q 959 750 1161 570 
Q 1363 391 1709 391 
Q 2188 391 2477 730 
Q 2766 1069 2766 1631 
L 2766 1759 
L 2194 1759 
z
M 3341 1997 
L 3341 0 
L 2766 0 
L 2766 531 
Q 2569 213 2275 61 
Q 1981 -91 1556 -91 
Q 1019 -91 701 211 
Q 384 513 384 1019 
Q 384 1609 779 1909 
Q 1175 2209 1959 2209 
L 2766 2209 
L 2766 2266 
Q 2766 2663 2505 2880 
Q 2244 3097 1772 3097 
Q 1472 3097 1187 3025 
Q 903 2953 641 2809 
L 641 3341 
Q 956 3463 1253 3523 
Q 1550 3584 1831 3584 
Q 2591 3584 2966 3190 
Q 3341 2797 3341 1997 
z
" transform="scale(0.015625)"/>
       <path id="DejaVuSans-74" d="M 1172 4494 
L 1172 3500 
L 2356 3500 
L 2356 3053 
L 1172 3053 
L 1172 1153 
Q 1172 725 1289 603 
Q 1406 481 1766 481 
L 2356 481 
L 2356 0 
L 1766 0 
Q 1100 0 847 248 
Q 594 497 594 1153 
L 594 3053 
L 172 3053 
L 172 3500 
L 594 3500 
L 594 4494 
L 1172 4494 
z
" transform="scale(0.015625)"/>
       <path id="DejaVuSans-65" d="M 3597 1894 
L 3597 1613 
L 953 1613 
Q 991 1019 1311 708 
Q 1631 397 2203 397 
Q 2534 397 2845 478 
Q 3156 559 3463 722 
L 3463 178 
Q 3153 47 2828 -22 
Q 2503 -91 2169 -91 
Q 1331 -91 842 396 
Q 353 884 353 1716 
Q 353 2575 817 3079 
Q 1281 3584 2069 3584 
Q 2775 3584 3186 3129 
Q 3597 2675 3597 1894 
z
M 3022 2063 
Q 3016 2534 2758 2815 
Q 2500 3097 2075 3097 
Q 1594 3097 1305 2825 
Q 1016 2553 972 2059 
L 3022 2063 
z
" transform="scale(0.015625)"/>
      </defs>
      <use xlink:href="#DejaVuSans-44"/>
      <use xlink:href="#DejaVuSans-61" x="77.001953"/>
      <use xlink:href="#DejaVuSans-74" x="138.28125"/>
      <use xlink:href="#DejaVuSans-65" x="177.490234"/>
     </g>
    </g>
   </g>
   <g id="matplotlib.axis_2">
    <g id="ytick_1">
     <g id="line2d_11">
      <defs>
       <path id="m22d0e9a4a0" d="M 0 0 
L -3.5 0 
" style="stroke: #000000; stroke-width: 0.8"/>
      </defs>
      <g>
       <use xlink:href="#m22d0e9a4a0" x="66.053125" y="239.558438" style="stroke: #000000; stroke-width: 0.8"/>
      </g>
     </g>
     <g id="text_12">
      <!-- 0 -->
      <g transform="translate(52.690625 243.357656)scale(0.1 -0.1)">
       <use xlink:href="#DejaVuSans-30"/>
      </g>
     </g>
    </g>
    <g id="ytick_2">
     <g id="line2d_12">
      <g>
       <use xlink:href="#m22d0e9a4a0" x="66.053125" y="202.962041" style="stroke: #000000; stroke-width: 0.8"/>
      </g>
     </g>
     <g id="text_13">
      <!-- 50000 -->
      <g transform="translate(27.240625 206.76126)scale(0.1 -0.1)">
       <use xlink:href="#DejaVuSans-35"/>
       <use xlink:href="#DejaVuSans-30" x="63.623047"/>
       <use xlink:href="#DejaVuSans-30" x="127.246094"/>
       <use xlink:href="#DejaVuSans-30" x="190.869141"/>
       <use xlink:href="#DejaVuSans-30" x="254.492188"/>
      </g>
     </g>
    </g>
    <g id="ytick_3">
     <g id="line2d_13">
      <g>
       <use xlink:href="#m22d0e9a4a0" x="66.053125" y="166.365644" style="stroke: #000000; stroke-width: 0.8"/>
      </g>
     </g>
     <g id="text_14">
      <!-- 100000 -->
      <g transform="translate(20.878125 170.164863)scale(0.1 -0.1)">
       <use xlink:href="#DejaVuSans-31"/>
       <use xlink:href="#DejaVuSans-30" x="63.623047"/>
       <use xlink:href="#DejaVuSans-30" x="127.246094"/>
       <use xlink:href="#DejaVuSans-30" x="190.869141"/>
       <use xlink:href="#DejaVuSans-30" x="254.492188"/>
       <use xlink:href="#DejaVuSans-30" x="318.115234"/>
      </g>
     </g>
    </g>
    <g id="ytick_4">
     <g id="line2d_14">
      <g>
       <use xlink:href="#m22d0e9a4a0" x="66.053125" y="129.769248" style="stroke: #000000; stroke-width: 0.8"/>
      </g>
     </g>
     <g id="text_15">
      <!-- 150000 -->
      <g transform="translate(20.878125 133.568467)scale(0.1 -0.1)">
       <use xlink:href="#DejaVuSans-31"/>
       <use xlink:href="#DejaVuSans-35" x="63.623047"/>
       <use xlink:href="#DejaVuSans-30" x="127.246094"/>
       <use xlink:href="#DejaVuSans-30" x="190.869141"/>
       <use xlink:href="#DejaVuSans-30" x="254.492188"/>
       <use xlink:href="#DejaVuSans-30" x="318.115234"/>
      </g>
     </g>
    </g>
    <g id="ytick_5">
     <g id="line2d_15">
      <g>
       <use xlink:href="#m22d0e9a4a0" x="66.053125" y="93.172851" style="stroke: #000000; stroke-width: 0.8"/>
      </g>
     </g>
     <g id="text_16">
      <!-- 200000 -->
      <g transform="translate(20.878125 96.97207)scale(0.1 -0.1)">
       <use xlink:href="#DejaVuSans-32"/>
       <use xlink:href="#DejaVuSans-30" x="63.623047"/>
       <use xlink:href="#DejaVuSans-30" x="127.246094"/>
       <use xlink:href="#DejaVuSans-30" x="190.869141"/>
       <use xlink:href="#DejaVuSans-30" x="254.492188"/>
       <use xlink:href="#DejaVuSans-30" x="318.115234"/>
      </g>
     </g>
    </g>
    <g id="ytick_6">
     <g id="line2d_16">
      <g>
       <use xlink:href="#m22d0e9a4a0" x="66.053125" y="56.576455" style="stroke: #000000; stroke-width: 0.8"/>
      </g>
     </g>
     <g id="text_17">
      <!-- 250000 -->
      <g transform="translate(20.878125 60.375674)scale(0.1 -0.1)">
       <use xlink:href="#DejaVuSans-32"/>
       <use xlink:href="#DejaVuSans-35" x="63.623047"/>
       <use xlink:href="#DejaVuSans-30" x="127.246094"/>
       <use xlink:href="#DejaVuSans-30" x="190.869141"/>
       <use xlink:href="#DejaVuSans-30" x="254.492188"/>
       <use xlink:href="#DejaVuSans-30" x="318.115234"/>
      </g>
     </g>
    </g>
    <g id="ytick_7">
     <g id="line2d_17">
      <g>
       <use xlink:href="#m22d0e9a4a0" x="66.053125" y="19.980058" style="stroke: #000000; stroke-width: 0.8"/>
      </g>
     </g>
     <g id="text_18">
      <!-- 300000 -->
      <g transform="translate(20.878125 23.779277)scale(0.1 -0.1)">
       <use xlink:href="#DejaVuSans-33"/>
       <use xlink:href="#DejaVuSans-30" x="63.623047"/>
       <use xlink:href="#DejaVuSans-30" x="127.246094"/>
       <use xlink:href="#DejaVuSans-30" x="190.869141"/>
       <use xlink:href="#DejaVuSans-30" x="254.492188"/>
       <use xlink:href="#DejaVuSans-30" x="318.115234"/>
      </g>
     </g>
    </g>
    <g id="text_19">
     <!-- Sequence count -->
     <g transform="translate(14.798438 169.038594)rotate(-90)scale(0.1 -0.1)">
      <defs>
       <path id="DejaVuSans-53" d="M 3425 4513 
L 3425 3897 
Q 3066 4069 2747 4153 
Q 2428 4238 2131 4238 
Q 1616 4238 1336 4038 
Q 1056 3838 1056 3469 
Q 1056 3159 1242 3001 
Q 1428 2844 1947 2747 
L 2328 2669 
Q 3034 2534 3370 2195 
Q 3706 1856 3706 1288 
Q 3706 609 3251 259 
Q 2797 -91 1919 -91 
Q 1588 -91 1214 -16 
Q 841 59 441 206 
L 441 856 
Q 825 641 1194 531 
Q 1563 422 1919 422 
Q 2459 422 2753 634 
Q 3047 847 3047 1241 
Q 3047 1584 2836 1778 
Q 2625 1972 2144 2069 
L 1759 2144 
Q 1053 2284 737 2584 
Q 422 2884 422 3419 
Q 422 4038 858 4394 
Q 1294 4750 2059 4750 
Q 2388 4750 2728 4690 
Q 3069 4631 3425 4513 
z
" transform="scale(0.015625)"/>
       <path id="DejaVuSans-71" d="M 947 1747 
Q 947 1113 1208 752 
Q 1469 391 1925 391 
Q 2381 391 2643 752 
Q 2906 1113 2906 1747 
Q 2906 2381 2643 2742 
Q 2381 3103 1925 3103 
Q 1469 3103 1208 2742 
Q 947 2381 947 1747 
z
M 2906 525 
Q 2725 213 2448 61 
Q 2172 -91 1784 -91 
Q 1150 -91 751 415 
Q 353 922 353 1747 
Q 353 2572 751 3078 
Q 1150 3584 1784 3584 
Q 2172 3584 2448 3432 
Q 2725 3281 2906 2969 
L 2906 3500 
L 3481 3500 
L 3481 -1331 
L 2906 -1331 
L 2906 525 
z
" transform="scale(0.015625)"/>
       <path id="DejaVuSans-75" d="M 544 1381 
L 544 3500 
L 1119 3500 
L 1119 1403 
Q 1119 906 1312 657 
Q 1506 409 1894 409 
Q 2359 409 2629 706 
Q 2900 1003 2900 1516 
L 2900 3500 
L 3475 3500 
L 3475 0 
L 2900 0 
L 2900 538 
Q 2691 219 2414 64 
Q 2138 -91 1772 -91 
Q 1169 -91 856 284 
Q 544 659 544 1381 
z
M 1991 3584 
L 1991 3584 
z
" transform="scale(0.015625)"/>
       <path id="DejaVuSans-6e" d="M 3513 2113 
L 3513 0 
L 2938 0 
L 2938 2094 
Q 2938 2591 2744 2837 
Q 2550 3084 2163 3084 
Q 1697 3084 1428 2787 
Q 1159 2491 1159 1978 
L 1159 0 
L 581 0 
L 581 3500 
L 1159 3500 
L 1159 2956 
Q 1366 3272 1645 3428 
Q 1925 3584 2291 3584 
Q 2894 3584 3203 3211 
Q 3513 2838 3513 2113 
z
" transform="scale(0.015625)"/>
       <path id="DejaVuSans-63" d="M 3122 3366 
L 3122 2828 
Q 2878 2963 2633 3030 
Q 2388 3097 2138 3097 
Q 1578 3097 1268 2742 
Q 959 2388 959 1747 
Q 959 1106 1268 751 
Q 1578 397 2138 397 
Q 2388 397 2633 464 
Q 2878 531 3122 666 
L 3122 134 
Q 2881 22 2623 -34 
Q 2366 -91 2075 -91 
Q 1284 -91 818 406 
Q 353 903 353 1747 
Q 353 2603 823 3093 
Q 1294 3584 2113 3584 
Q 2378 3584 2631 3529 
Q 2884 3475 3122 3366 
z
" transform="scale(0.015625)"/>
       <path id="DejaVuSans-20" transform="scale(0.015625)"/>
       <path id="DejaVuSans-6f" d="M 1959 3097 
Q 1497 3097 1228 2736 
Q 959 2375 959 1747 
Q 959 1119 1226 758 
Q 1494 397 1959 397 
Q 2419 397 2687 759 
Q 2956 1122 2956 1747 
Q 2956 2369 2687 2733 
Q 2419 3097 1959 3097 
z
M 1959 3584 
Q 2709 3584 3137 3096 
Q 3566 2609 3566 1747 
Q 3566 888 3137 398 
Q 2709 -91 1959 -91 
Q 1206 -91 779 398 
Q 353 888 353 1747 
Q 353 2609 779 3096 
Q 1206 3584 1959 3584 
z
" transform="scale(0.015625)"/>
      </defs>
      <use xlink:href="#DejaVuSans-53"/>
      <use xlink:href="#DejaVuSans-65" x="63.476562"/>
      <use xlink:href="#DejaVuSans-71" x="125"/>
      <use xlink:href="#DejaVuSans-75" x="188.476562"/>
      <use xlink:href="#DejaVuSans-65" x="251.855469"/>
      <use xlink:href="#DejaVuSans-6e" x="313.378906"/>
      <use xlink:href="#DejaVuSans-63" x="376.757812"/>
      <use xlink:href="#DejaVuSans-65" x="431.738281"/>
      <use xlink:href="#DejaVuSans-20" x="493.261719"/>
      <use xlink:href="#DejaVuSans-63" x="525.048828"/>
      <use xlink:href="#DejaVuSans-6f" x="580.029297"/>
      <use xlink:href="#DejaVuSans-75" x="641.210938"/>
      <use xlink:href="#DejaVuSans-6e" x="704.589844"/>
      <use xlink:href="#DejaVuSans-74" x="767.96875"/>
     </g>
    </g>
   </g>
   <g id="patch_158">
    <path d="M 66.053125 239.558438 
L 66.053125 17.798437 
" style="fill: none; stroke: #000000; stroke-width: 0.8; stroke-linejoin: miter; stroke-linecap: square"/>
   </g>
   <g id="patch_159">
    <path d="M 1182.053125 239.558438 
L 1182.053125 17.798437 
" style="fill: none; stroke: #000000; stroke-width: 0.8; stroke-linejoin: miter; stroke-linecap: square"/>
   </g>
   <g id="patch_160">
    <path d="M 66.053125 239.558438 
L 1182.053125 239.558438 
" style="fill: none; stroke: #000000; stroke-width: 0.8; stroke-linejoin: miter; stroke-linecap: square"/>
   </g>
  </g>
  <g id="axes_2">
   <g id="matplotlib.axis_3">
    <g id="ytick_8">
     <g id="line2d_18">
      <defs>
       <path id="m075713d81e" d="M 0 0 
L 3.5 0 
" style="stroke: #000000; stroke-width: 0.8"/>
      </defs>
      <g>
       <use xlink:href="#m075713d81e" x="1182.053125" y="229.478465" style="stroke: #000000; stroke-width: 0.8"/>
      </g>
     </g>
     <g id="text_20">
      <!-- 0 -->
      <g transform="translate(1189.053125 233.277683)scale(0.1 -0.1)">
       <use xlink:href="#DejaVuSans-30"/>
      </g>
     </g>
    </g>
    <g id="ytick_9">
     <g id="line2d_19">
      <g>
       <use xlink:href="#m075713d81e" x="1182.053125" y="202.391331" style="stroke: #000000; stroke-width: 0.8"/>
      </g>
     </g>
     <g id="text_21">
      <!-- 1 -->
      <g transform="translate(1189.053125 206.19055)scale(0.1 -0.1)">
       <use xlink:href="#DejaVuSans-31"/>
      </g>
     </g>
    </g>
    <g id="ytick_10">
     <g id="line2d_20">
      <g>
       <use xlink:href="#m075713d81e" x="1182.053125" y="175.304198" style="stroke: #000000; stroke-width: 0.8"/>
      </g>
     </g>
     <g id="text_22">
      <!-- 2 -->
      <g transform="translate(1189.053125 179.103416)scale(0.1 -0.1)">
       <use xlink:href="#DejaVuSans-32"/>
      </g>
     </g>
    </g>
    <g id="ytick_11">
     <g id="line2d_21">
      <g>
       <use xlink:href="#m075713d81e" x="1182.053125" y="148.217064" style="stroke: #000000; stroke-width: 0.8"/>
      </g>
     </g>
     <g id="text_23">
      <!-- 3 -->
      <g transform="translate(1189.053125 152.016283)scale(0.1 -0.1)">
       <use xlink:href="#DejaVuSans-33"/>
      </g>
     </g>
    </g>
    <g id="ytick_12">
     <g id="line2d_22">
      <g>
       <use xlink:href="#m075713d81e" x="1182.053125" y="121.129931" style="stroke: #000000; stroke-width: 0.8"/>
      </g>
     </g>
     <g id="text_24">
      <!-- 4 -->
      <g transform="translate(1189.053125 124.929149)scale(0.1 -0.1)">
       <use xlink:href="#DejaVuSans-34"/>
      </g>
     </g>
    </g>
    <g id="ytick_13">
     <g id="line2d_23">
      <g>
       <use xlink:href="#m075713d81e" x="1182.053125" y="94.042797" style="stroke: #000000; stroke-width: 0.8"/>
      </g>
     </g>
     <g id="text_25">
      <!-- 5 -->
      <g transform="translate(1189.053125 97.842016)scale(0.1 -0.1)">
       <use xlink:href="#DejaVuSans-35"/>
      </g>
     </g>
    </g>
    <g id="ytick_14">
     <g id="line2d_24">
      <g>
       <use xlink:href="#m075713d81e" x="1182.053125" y="66.955664" style="stroke: #000000; stroke-width: 0.8"/>
      </g>
     </g>
     <g id="text_26">
      <!-- 6 -->
      <g transform="translate(1189.053125 70.754882)scale(0.1 -0.1)">
       <defs>
        <path id="DejaVuSans-36" d="M 2113 2584 
Q 1688 2584 1439 2293 
Q 1191 2003 1191 1497 
Q 1191 994 1439 701 
Q 1688 409 2113 409 
Q 2538 409 2786 701 
Q 3034 994 3034 1497 
Q 3034 2003 2786 2293 
Q 2538 2584 2113 2584 
z
M 3366 4563 
L 3366 3988 
Q 3128 4100 2886 4159 
Q 2644 4219 2406 4219 
Q 1781 4219 1451 3797 
Q 1122 3375 1075 2522 
Q 1259 2794 1537 2939 
Q 1816 3084 2150 3084 
Q 2853 3084 3261 2657 
Q 3669 2231 3669 1497 
Q 3669 778 3244 343 
Q 2819 -91 2113 -91 
Q 1303 -91 875 529 
Q 447 1150 447 2328 
Q 447 3434 972 4092 
Q 1497 4750 2381 4750 
Q 2619 4750 2861 4703 
Q 3103 4656 3366 4563 
z
" transform="scale(0.015625)"/>
       </defs>
       <use xlink:href="#DejaVuSans-36"/>
      </g>
     </g>
    </g>
    <g id="ytick_15">
     <g id="line2d_25">
      <g>
       <use xlink:href="#m075713d81e" x="1182.053125" y="39.86853" style="stroke: #000000; stroke-width: 0.8"/>
      </g>
     </g>
     <g id="text_27">
      <!-- 7 -->
      <g transform="translate(1189.053125 43.667749)scale(0.1 -0.1)">
       <defs>
        <path id="DejaVuSans-37" d="M 525 4666 
L 3525 4666 
L 3525 4397 
L 1831 0 
L 1172 0 
L 2766 4134 
L 525 4134 
L 525 4666 
z
" transform="scale(0.015625)"/>
       </defs>
       <use xlink:href="#DejaVuSans-37"/>
      </g>
     </g>
    </g>
    <g id="text_28">
     <!-- Total -->
     <g transform="translate(1207.014063 140.355)rotate(-90)scale(0.1 -0.1)">
      <defs>
       <path id="DejaVuSans-54" d="M -19 4666 
L 3928 4666 
L 3928 4134 
L 2272 4134 
L 2272 0 
L 1638 0 
L 1638 4134 
L -19 4134 
L -19 4666 
z
" transform="scale(0.015625)"/>
       <path id="DejaVuSans-6c" d="M 603 4863 
L 1178 4863 
L 1178 0 
L 603 0 
L 603 4863 
z
" transform="scale(0.015625)"/>
      </defs>
      <use xlink:href="#DejaVuSans-54"/>
      <use xlink:href="#DejaVuSans-6f" x="44.083984"/>
      <use xlink:href="#DejaVuSans-74" x="105.265625"/>
      <use xlink:href="#DejaVuSans-61" x="144.474609"/>
      <use xlink:href="#DejaVuSans-6c" x="205.753906"/>
     </g>
    </g>
    <g id="text_29">
     <!-- 1e6 -->
     <g transform="translate(1163.175 14.798437)scale(0.1 -0.1)">
      <use xlink:href="#DejaVuSans-31"/>
      <use xlink:href="#DejaVuSans-65" x="63.623047"/>
      <use xlink:href="#DejaVuSans-36" x="125.146484"/>
     </g>
    </g>
   </g>
   <g id="line2d_26">
    <path d="M 121.930375 229.478438 
L 207.139084 229.364969 
L 212.75724 229.139009 
L 217.439038 228.600381 
L 219.311757 227.942841 
L 221.184475 227.085614 
L 223.993554 225.914394 
L 227.738992 223.006563 
L 228.675351 222.619515 
L 229.61171 222.377058 
L 230.54807 221.823153 
L 233.357148 218.380053 
L 234.293508 217.287873 
L 235.229867 216.65975 
L 236.166226 216.222346 
L 237.102586 215.429127 
L 238.975305 212.422726 
L 240.848024 210.108374 
L 241.784383 209.102006 
L 243.657102 207.805643 
L 245.529821 205.119249 
L 248.338899 201.835801 
L 250.211618 200.430385 
L 253.020696 196.252222 
L 254.893415 194.09186 
L 256.766134 192.695275 
L 257.702494 191.275042 
L 259.575213 189.056687 
L 260.511572 188.055249 
L 261.447931 187.21785 
L 263.32065 185.841607 
L 264.25701 184.391308 
L 267.066088 181.122243 
L 268.002447 180.19849 
L 269.875166 178.785571 
L 270.811526 177.393103 
L 271.747885 176.267497 
L 274.556964 173.554748 
L 276.429682 172.288831 
L 277.366042 171.018796 
L 279.238761 169.139085 
L 281.11148 167.48872 
L 282.984199 166.37812 
L 283.920558 165.204868 
L 285.793277 163.497404 
L 287.665996 162.2693 
L 289.538715 161.455305 
L 290.475074 160.61303 
L 294.220512 157.882403 
L 296.093231 156.874085 
L 297.02959 155.748127 
L 300.775028 153.017581 
L 302.647747 152.034887 
L 303.584106 150.944007 
L 306.393185 148.710537 
L 308.265903 147.588263 
L 309.202263 147.130924 
L 310.138622 146.12415 
L 312.947701 144.051442 
L 314.82042 142.907688 
L 315.756779 142.445663 
L 316.693138 141.245053 
L 317.629498 140.622807 
L 320.438576 139.270455 
L 322.311295 138.65452 
L 323.247655 137.831884 
L 326.056733 136.288974 
L 327.929452 135.513144 
L 328.865811 135.197065 
L 329.802171 134.370284 
L 331.674889 133.385342 
L 333.547608 132.597702 
L 336.356687 131.567741 
L 337.293046 130.840587 
L 340.102124 129.433275 
L 341.974843 128.831534 
L 342.911203 128.147394 
L 344.783922 127.21985 
L 346.656641 126.495973 
L 348.529359 126.009623 
L 349.465719 125.413761 
L 351.338438 124.565338 
L 354.147516 123.514655 
L 355.083876 123.271439 
L 356.020235 122.601575 
L 358.829313 121.32401 
L 360.702032 120.684997 
L 361.638392 120.445357 
L 362.574751 119.852989 
L 364.44747 119.031355 
L 367.256548 118.103864 
L 368.192908 117.865443 
L 370.065627 116.873919 
L 371.938345 116.178484 
L 372.874705 115.835967 
L 374.747424 115.399404 
L 379.429221 113.344465 
L 381.30194 112.890295 
L 382.238299 112.43534 
L 383.174659 111.830538 
L 385.983737 110.596313 
L 387.856456 110.092709 
L 388.792815 109.477696 
L 392.538253 107.741573 
L 394.410972 107.239053 
L 396.283691 106.036926 
L 399.092769 104.651012 
L 400.965488 104.097135 
L 401.901848 103.331517 
L 404.710926 101.763091 
L 405.647285 101.290718 
L 407.520004 100.666874 
L 412.201801 97.77172 
L 414.07452 97.120004 
L 415.01088 96.311236 
L 416.883599 95.167644 
L 418.756318 94.179912 
L 420.629036 93.52007 
L 422.501755 92.150869 
L 425.310834 90.717147 
L 427.183552 90.154222 
L 428.119912 89.498795 
L 429.992631 88.573742 
L 431.86535 87.804278 
L 433.738069 87.275185 
L 435.610787 86.175393 
L 438.419866 85.06929 
L 440.292585 84.641855 
L 442.165304 83.734626 
L 444.974382 82.713035 
L 446.847101 82.27146 
L 449.656179 81.055546 
L 451.528898 80.402583 
L 453.401617 79.995545 
L 455.274336 79.145334 
L 459.019773 78.041777 
L 459.956133 77.848267 
L 461.828852 77.058731 
L 465.57429 76.063577 
L 466.510649 75.869497 
L 470.256087 74.59391 
L 473.065165 73.996097 
L 474.001525 73.52795 
L 476.810603 72.632477 
L 478.683322 72.186487 
L 479.619681 72.016217 
L 481.4924 71.284621 
L 484.301478 70.484169 
L 486.174197 70.158663 
L 487.110557 69.72554 
L 489.919635 68.941638 
L 491.792354 68.568188 
L 492.728713 68.417339 
L 494.601432 67.696415 
L 497.410511 66.941605 
L 499.283229 66.642753 
L 501.155948 65.921016 
L 503.965027 65.144428 
L 505.837746 64.843273 
L 506.774105 64.435531 
L 509.583183 63.68305 
L 511.455902 63.330755 
L 512.392262 63.189983 
L 514.264981 62.500507 
L 517.074059 61.795158 
L 518.946778 61.521849 
L 521.755856 60.719582 
L 526.437653 59.598473 
L 529.246732 58.809019 
L 531.11945 58.431749 
L 532.05581 58.284693 
L 533.928529 57.656326 
L 536.737607 56.8945 
L 538.610326 56.615611 
L 540.483045 55.91205 
L 544.228483 55.021425 
L 545.164842 54.834821 
L 546.101202 54.339777 
L 549.846639 53.129443 
L 551.719358 52.8252 
L 552.655718 52.329668 
L 556.401155 51.143224 
L 558.273874 50.812003 
L 559.210234 50.320209 
L 562.019312 49.394181 
L 563.892031 48.951713 
L 564.82839 48.792576 
L 565.76475 48.302976 
L 568.573828 47.462462 
L 570.446547 47.112903 
L 571.382906 47.028797 
L 575.128344 45.886506 
L 577.001063 45.534725 
L 577.937423 45.440949 
L 581.68286 44.379296 
L 583.555579 44.050838 
L 584.491939 43.950751 
L 587.301017 43.284461 
L 590.110095 42.872331 
L 591.046455 42.797055 
L 592.919174 42.415479 
L 595.728252 42.022878 
L 598.53733 41.710753 
L 603.219127 41.181498 
L 605.091846 40.968484 
L 609.773644 40.493701 
L 611.646362 40.302276 
L 616.32816 39.896484 
L 619.137238 39.655083 
L 626.628113 39.105269 
L 635.991708 38.625664 
L 643.482583 38.328572 
L 649.10074 38.117455 
L 665.018851 37.745441 
L 684.682399 37.498243 
L 706.218666 37.361291 
L 796.109172 37.167022 
L 859.781614 36.955309 
L 892.554195 36.419444 
L 894.426914 36.28195 
L 905.663227 35.761823 
L 908.472305 35.539952 
L 925.326775 34.559696 
L 930.008572 34.207536 
L 934.69037 33.937233 
L 944.053964 33.439643 
L 946.863042 33.272759 
L 956.226637 32.780071 
L 964.653872 32.44354 
L 973.081107 32.084582 
L 988.999217 31.587045 
L 1007.726406 31.162075 
L 1050.79894 30.239894 
L 1074.207926 29.486655 
L 1082.635161 29.191432 
L 1088.253318 28.95767 
L 1096.680553 28.645274 
L 1110.725945 28.14939 
L 1120.089539 27.948295 
L 1131.325852 27.878437 
L 1131.325852 27.878437 
" clip-path="url(#p44c5f9bd63)" style="fill: none; stroke: #696969; stroke-width: 3; stroke-linecap: square"/>
   </g>
   <g id="patch_161">
    <path d="M 66.053125 239.558438 
L 66.053125 17.798437 
" style="fill: none; stroke: #000000; stroke-width: 0.8; stroke-linejoin: miter; stroke-linecap: square"/>
   </g>
   <g id="patch_162">
    <path d="M 1182.053125 239.558438 
L 1182.053125 17.798437 
" style="fill: none; stroke: #000000; stroke-width: 0.8; stroke-linejoin: miter; stroke-linecap: square"/>
   </g>
   <g id="patch_163">
    <path d="M 66.053125 239.558438 
L 1182.053125 239.558438 
" style="fill: none; stroke: #000000; stroke-width: 0.8; stroke-linejoin: miter; stroke-linecap: square"/>
   </g>
  </g>
 </g>
 <defs>
  <clipPath id="p44c5f9bd63">
   <rect x="66.053125" y="17.798437" width="1116" height="221.76"/>
  </clipPath>
 </defs>
</svg>
