<?xml version="1.0" encoding="utf-8" standalone="no"?>
<!DOCTYPE svg PUBLIC "-//W3C//DTD SVG 1.1//EN"
  "http://www.w3.org/Graphics/SVG/1.1/DTD/svg11.dtd">
<svg height="298.620937pt" version="1.1" viewBox="0 0 1241.74375 298.620937" width="1241.74375pt" xmlns="http://www.w3.org/2000/svg" xmlns:xlink="http://www.w3.org/1999/xlink">
 <metadata>
  <rdf:RDF xmlns:cc="http://creativecommons.org/ns#" xmlns:dc="http://purl.org/dc/elements/1.1/" xmlns:rdf="http://www.w3.org/1999/02/22-rdf-syntax-ns#">
   <cc:Work>
    <dc:type rdf:resource="http://purl.org/dc/dcmitype/StillImage"/>
    <dc:date>2021-10-23T13:47:31.098455</dc:date>
    <dc:format>image/svg+xml</dc:format>
    <dc:creator>
     <cc:Agent>
      <dc:title>Matplotlib v3.4.2, https://matplotlib.org/</dc:title>
     </cc:Agent>
    </dc:creator>
   </cc:Work>
  </rdf:RDF>
 </metadata>
 <defs>
  <style type="text/css">*{stroke-linecap:butt;stroke-linejoin:round;}</style>
 </defs>
 <g id="figure_1">
  <g id="patch_1">
   <path d="M 0 298.620937 
L 1241.74375 298.620937 
L 1241.74375 0 
L 0 0 
z
" style="fill:#ffffff;"/>
  </g>
  <g id="axes_1">
   <g id="patch_2">
    <path d="M 59.690625 228.96 
L 1175.690625 228.96 
L 1175.690625 7.2 
L 59.690625 7.2 
z
" style="fill:#ffffff;"/>
   </g>
   <g id="patch_3">
    <path clip-path="url(#p8da3f566a7)" d="M 110.417898 228.96 
L 122.745303 228.96 
L 122.745303 228.955099 
L 110.417898 228.955099 
z
" style="fill:#86b0a6;"/>
   </g>
   <g id="patch_4">
    <path clip-path="url(#p8da3f566a7)" d="M 144.934633 228.96 
L 157.262038 228.96 
L 157.262038 228.957549 
L 144.934633 228.957549 
z
" style="fill:#86b0a6;"/>
   </g>
   <g id="patch_5">
    <path clip-path="url(#p8da3f566a7)" d="M 231.226469 228.96 
L 243.553875 228.96 
L 243.553875 228.955099 
L 231.226469 228.955099 
z
" style="fill:#86b0a6;"/>
   </g>
   <g id="patch_6">
    <path clip-path="url(#p8da3f566a7)" d="M 248.484837 228.96 
L 260.812242 228.96 
L 260.812242 228.957549 
L 248.484837 228.957549 
z
" style="fill:#86b0a6;"/>
   </g>
   <g id="patch_7">
    <path clip-path="url(#p8da3f566a7)" d="M 265.743204 228.96 
L 278.07061 228.96 
L 278.07061 228.957549 
L 265.743204 228.957549 
z
" style="fill:#86b0a6;"/>
   </g>
   <g id="patch_8">
    <path clip-path="url(#p8da3f566a7)" d="M 283.001572 228.96 
L 295.328977 228.96 
L 295.328977 228.955099 
L 283.001572 228.955099 
z
" style="fill:#86b0a6;"/>
   </g>
   <g id="patch_9">
    <path clip-path="url(#p8da3f566a7)" d="M 300.259939 228.96 
L 312.587344 228.96 
L 312.587344 228.955099 
L 300.259939 228.955099 
z
" style="fill:#86b0a6;"/>
   </g>
   <g id="patch_10">
    <path clip-path="url(#p8da3f566a7)" d="M 317.518306 228.96 
L 329.845712 228.96 
L 329.845712 228.957549 
L 317.518306 228.957549 
z
" style="fill:#86b0a6;"/>
   </g>
   <g id="patch_11">
    <path clip-path="url(#p8da3f566a7)" d="M 334.776674 228.96 
L 347.104079 228.96 
L 347.104079 228.957549 
L 334.776674 228.957549 
z
" style="fill:#86b0a6;"/>
   </g>
   <g id="patch_12">
    <path clip-path="url(#p8da3f566a7)" d="M 352.035041 228.96 
L 364.362446 228.96 
L 364.362446 228.957549 
L 352.035041 228.957549 
z
" style="fill:#86b0a6;"/>
   </g>
   <g id="patch_13">
    <path clip-path="url(#p8da3f566a7)" d="M 369.293409 228.96 
L 381.620814 228.96 
L 381.620814 228.957549 
L 369.293409 228.957549 
z
" style="fill:#86b0a6;"/>
   </g>
   <g id="patch_14">
    <path clip-path="url(#p8da3f566a7)" d="M 386.551776 228.96 
L 398.879181 228.96 
L 398.879181 228.957549 
L 386.551776 228.957549 
z
" style="fill:#86b0a6;"/>
   </g>
   <g id="patch_15">
    <path clip-path="url(#p8da3f566a7)" d="M 403.810143 228.96 
L 416.137549 228.96 
L 416.137549 228.773754 
L 403.810143 228.773754 
z
" style="fill:#86b0a6;"/>
   </g>
   <g id="patch_16">
    <path clip-path="url(#p8da3f566a7)" d="M 421.068511 228.96 
L 433.395916 228.96 
L 433.395916 228.940395 
L 421.068511 228.940395 
z
" style="fill:#86b0a6;"/>
   </g>
   <g id="patch_17">
    <path clip-path="url(#p8da3f566a7)" d="M 438.326878 228.96 
L 450.654283 228.96 
L 450.654283 228.955099 
L 438.326878 228.955099 
z
" style="fill:#86b0a6;"/>
   </g>
   <g id="patch_18">
    <path clip-path="url(#p8da3f566a7)" d="M 455.585246 228.96 
L 467.912651 228.96 
L 467.912651 228.930593 
L 455.585246 228.930593 
z
" style="fill:#86b0a6;"/>
   </g>
   <g id="patch_19">
    <path clip-path="url(#p8da3f566a7)" d="M 472.843613 228.96 
L 485.171018 228.96 
L 485.171018 228.888933 
L 472.843613 228.888933 
z
" style="fill:#86b0a6;"/>
   </g>
   <g id="patch_20">
    <path clip-path="url(#p8da3f566a7)" d="M 490.10198 228.96 
L 502.429386 228.96 
L 502.429386 228.521343 
L 490.10198 228.521343 
z
" style="fill:#86b0a6;"/>
   </g>
   <g id="patch_21">
    <path clip-path="url(#p8da3f566a7)" d="M 507.360348 228.96 
L 519.687753 228.96 
L 519.687753 228.945296 
L 507.360348 228.945296 
z
" style="fill:#86b0a6;"/>
   </g>
   <g id="patch_22">
    <path clip-path="url(#p8da3f566a7)" d="M 524.618715 228.96 
L 536.94612 228.96 
L 536.94612 228.940395 
L 524.618715 228.940395 
z
" style="fill:#86b0a6;"/>
   </g>
   <g id="patch_23">
    <path clip-path="url(#p8da3f566a7)" d="M 541.877083 228.96 
L 554.204488 228.96 
L 554.204488 228.812964 
L 541.877083 228.812964 
z
" style="fill:#86b0a6;"/>
   </g>
   <g id="patch_24">
    <path clip-path="url(#p8da3f566a7)" d="M 559.13545 228.96 
L 571.462855 228.96 
L 571.462855 228.087587 
L 559.13545 228.087587 
z
" style="fill:#86b0a6;"/>
   </g>
   <g id="patch_25">
    <path clip-path="url(#p8da3f566a7)" d="M 576.393817 228.96 
L 588.721223 228.96 
L 588.721223 228.330196 
L 576.393817 228.330196 
z
" style="fill:#86b0a6;"/>
   </g>
   <g id="patch_26">
    <path clip-path="url(#p8da3f566a7)" d="M 593.652185 228.96 
L 605.97959 228.96 
L 605.97959 228.440473 
L 593.652185 228.440473 
z
" style="fill:#86b0a6;"/>
   </g>
   <g id="patch_27">
    <path clip-path="url(#p8da3f566a7)" d="M 610.910552 228.96 
L 623.237957 228.96 
L 623.237957 227.536202 
L 610.910552 227.536202 
z
" style="fill:#86b0a6;"/>
   </g>
   <g id="patch_28">
    <path clip-path="url(#p8da3f566a7)" d="M 628.168919 228.96 
L 640.496325 228.96 
L 640.496325 225.52426 
L 628.168919 225.52426 
z
" style="fill:#86b0a6;"/>
   </g>
   <g id="patch_29">
    <path clip-path="url(#p8da3f566a7)" d="M 645.427287 228.96 
L 657.754692 228.96 
L 657.754692 224.122517 
L 645.427287 224.122517 
z
" style="fill:#86b0a6;"/>
   </g>
   <g id="patch_30">
    <path clip-path="url(#p8da3f566a7)" d="M 662.685654 228.96 
L 675.01306 228.96 
L 675.01306 222.323777 
L 662.685654 222.323777 
z
" style="fill:#86b0a6;"/>
   </g>
   <g id="patch_31">
    <path clip-path="url(#p8da3f566a7)" d="M 679.944022 228.96 
L 692.271427 228.96 
L 692.271427 220.897528 
L 679.944022 220.897528 
z
" style="fill:#86b0a6;"/>
   </g>
   <g id="patch_32">
    <path clip-path="url(#p8da3f566a7)" d="M 697.202389 228.96 
L 709.529794 228.96 
L 709.529794 220.267724 
L 697.202389 220.267724 
z
" style="fill:#86b0a6;"/>
   </g>
   <g id="patch_33">
    <path clip-path="url(#p8da3f566a7)" d="M 714.460756 228.96 
L 726.788162 228.96 
L 726.788162 219.758 
L 714.460756 219.758 
z
" style="fill:#86b0a6;"/>
   </g>
   <g id="patch_34">
    <path clip-path="url(#p8da3f566a7)" d="M 731.719124 228.96 
L 744.046529 228.96 
L 744.046529 218.020525 
L 731.719124 218.020525 
z
" style="fill:#86b0a6;"/>
   </g>
   <g id="patch_35">
    <path clip-path="url(#p8da3f566a7)" d="M 748.977491 228.96 
L 761.304897 228.96 
L 761.304897 217.104001 
L 748.977491 217.104001 
z
" style="fill:#86b0a6;"/>
   </g>
   <g id="patch_36">
    <path clip-path="url(#p8da3f566a7)" d="M 766.235859 228.96 
L 778.563264 228.96 
L 778.563264 211.857267 
L 766.235859 211.857267 
z
" style="fill:#86b0a6;"/>
   </g>
   <g id="patch_37">
    <path clip-path="url(#p8da3f566a7)" d="M 783.494226 228.96 
L 795.821631 228.96 
L 795.821631 208.02208 
L 783.494226 208.02208 
z
" style="fill:#86b0a6;"/>
   </g>
   <g id="patch_38">
    <path clip-path="url(#p8da3f566a7)" d="M 800.752593 228.96 
L 813.079999 228.96 
L 813.079999 204.289817 
L 800.752593 204.289817 
z
" style="fill:#86b0a6;"/>
   </g>
   <g id="patch_39">
    <path clip-path="url(#p8da3f566a7)" d="M 818.010961 228.96 
L 830.338366 228.96 
L 830.338366 196.190586 
L 818.010961 196.190586 
z
" style="fill:#86b0a6;"/>
   </g>
   <g id="patch_40">
    <path clip-path="url(#p8da3f566a7)" d="M 835.269328 228.96 
L 847.596733 228.96 
L 847.596733 181.271338 
L 835.269328 181.271338 
z
" style="fill:#86b0a6;"/>
   </g>
   <g id="patch_41">
    <path clip-path="url(#p8da3f566a7)" d="M 852.527696 228.96 
L 864.855101 228.96 
L 864.855101 154.795063 
L 852.527696 154.795063 
z
" style="fill:#86b0a6;"/>
   </g>
   <g id="patch_42">
    <path clip-path="url(#p8da3f566a7)" d="M 869.786063 228.96 
L 882.113468 228.96 
L 882.113468 138.505929 
L 869.786063 138.505929 
z
" style="fill:#86b0a6;"/>
   </g>
   <g id="patch_43">
    <path clip-path="url(#p8da3f566a7)" d="M 887.04443 228.96 
L 899.371836 228.96 
L 899.371836 102.803148 
L 887.04443 102.803148 
z
" style="fill:#86b0a6;"/>
   </g>
   <g id="patch_44">
    <path clip-path="url(#p8da3f566a7)" d="M 904.302798 228.96 
L 916.630203 228.96 
L 916.630203 78.787275 
L 904.302798 78.787275 
z
" style="fill:#86b0a6;"/>
   </g>
   <g id="patch_45">
    <path clip-path="url(#p8da3f566a7)" d="M 921.561165 228.96 
L 933.88857 228.96 
L 933.88857 58.371332 
L 921.561165 58.371332 
z
" style="fill:#86b0a6;"/>
   </g>
   <g id="patch_46">
    <path clip-path="url(#p8da3f566a7)" d="M 938.819533 228.96 
L 951.146938 228.96 
L 951.146938 61.731103 
L 938.819533 61.731103 
z
" style="fill:#86b0a6;"/>
   </g>
   <g id="patch_47">
    <path clip-path="url(#p8da3f566a7)" d="M 956.0779 228.96 
L 968.405305 228.96 
L 968.405305 17.76 
L 956.0779 17.76 
z
" style="fill:#86b0a6;"/>
   </g>
   <g id="patch_48">
    <path clip-path="url(#p8da3f566a7)" d="M 973.336267 228.96 
L 985.663673 228.96 
L 985.663673 72.423068 
L 973.336267 72.423068 
z
" style="fill:#86b0a6;"/>
   </g>
   <g id="patch_49">
    <path clip-path="url(#p8da3f566a7)" d="M 990.594635 228.96 
L 1002.92204 228.96 
L 1002.92204 73.339592 
L 990.594635 73.339592 
z
" style="fill:#86b0a6;"/>
   </g>
   <g id="patch_50">
    <path clip-path="url(#p8da3f566a7)" d="M 1007.853002 228.96 
L 1020.180407 228.96 
L 1020.180407 76.814542 
L 1007.853002 76.814542 
z
" style="fill:#86b0a6;"/>
   </g>
   <g id="patch_51">
    <path clip-path="url(#p8da3f566a7)" d="M 1025.11137 228.96 
L 1037.438775 228.96 
L 1037.438775 99.90899 
L 1025.11137 99.90899 
z
" style="fill:#86b0a6;"/>
   </g>
   <g id="patch_52">
    <path clip-path="url(#p8da3f566a7)" d="M 1042.369737 228.96 
L 1054.697142 228.96 
L 1054.697142 123.868499 
L 1042.369737 123.868499 
z
" style="fill:#86b0a6;"/>
   </g>
   <g id="patch_53">
    <path clip-path="url(#p8da3f566a7)" d="M 1059.628104 228.96 
L 1071.95551 228.96 
L 1071.95551 147.690775 
L 1059.628104 147.690775 
z
" style="fill:#86b0a6;"/>
   </g>
   <g id="patch_54">
    <path clip-path="url(#p8da3f566a7)" d="M 1076.886472 228.96 
L 1089.213877 228.96 
L 1089.213877 180.102402 
L 1076.886472 180.102402 
z
" style="fill:#86b0a6;"/>
   </g>
   <g id="patch_55">
    <path clip-path="url(#p8da3f566a7)" d="M 1094.144839 228.96 
L 1106.472244 228.96 
L 1106.472244 214.131424 
L 1094.144839 214.131424 
z
" style="fill:#86b0a6;"/>
   </g>
   <g id="patch_56">
    <path clip-path="url(#p8da3f566a7)" d="M 1111.403206 228.96 
L 1123.730612 228.96 
L 1123.730612 228.842371 
L 1111.403206 228.842371 
z
" style="fill:#86b0a6;"/>
   </g>
   <g id="matplotlib.axis_1">
    <g id="xtick_1">
     <g id="line2d_1">
      <defs>
       <path d="M 0 0 
L 0 3.5 
" id="mb50d8a7794" style="stroke:#000000;stroke-width:0.8;"/>
      </defs>
      <g>
       <use style="stroke:#000000;stroke-width:0.8;" x="104.254195" xlink:href="#mb50d8a7794" y="228.96"/>
      </g>
     </g>
     <g id="text_1">
      <!-- 2020-09 -->
      <g transform="translate(107.01357 277.742812)rotate(-90)scale(0.1 -0.1)">
       <defs>
        <path d="M 1228 531 
L 3431 531 
L 3431 0 
L 469 0 
L 469 531 
Q 828 903 1448 1529 
Q 2069 2156 2228 2338 
Q 2531 2678 2651 2914 
Q 2772 3150 2772 3378 
Q 2772 3750 2511 3984 
Q 2250 4219 1831 4219 
Q 1534 4219 1204 4116 
Q 875 4013 500 3803 
L 500 4441 
Q 881 4594 1212 4672 
Q 1544 4750 1819 4750 
Q 2544 4750 2975 4387 
Q 3406 4025 3406 3419 
Q 3406 3131 3298 2873 
Q 3191 2616 2906 2266 
Q 2828 2175 2409 1742 
Q 1991 1309 1228 531 
z
" id="DejaVuSans-32" transform="scale(0.015625)"/>
        <path d="M 2034 4250 
Q 1547 4250 1301 3770 
Q 1056 3291 1056 2328 
Q 1056 1369 1301 889 
Q 1547 409 2034 409 
Q 2525 409 2770 889 
Q 3016 1369 3016 2328 
Q 3016 3291 2770 3770 
Q 2525 4250 2034 4250 
z
M 2034 4750 
Q 2819 4750 3233 4129 
Q 3647 3509 3647 2328 
Q 3647 1150 3233 529 
Q 2819 -91 2034 -91 
Q 1250 -91 836 529 
Q 422 1150 422 2328 
Q 422 3509 836 4129 
Q 1250 4750 2034 4750 
z
" id="DejaVuSans-30" transform="scale(0.015625)"/>
        <path d="M 313 2009 
L 1997 2009 
L 1997 1497 
L 313 1497 
L 313 2009 
z
" id="DejaVuSans-2d" transform="scale(0.015625)"/>
        <path d="M 703 97 
L 703 672 
Q 941 559 1184 500 
Q 1428 441 1663 441 
Q 2288 441 2617 861 
Q 2947 1281 2994 2138 
Q 2813 1869 2534 1725 
Q 2256 1581 1919 1581 
Q 1219 1581 811 2004 
Q 403 2428 403 3163 
Q 403 3881 828 4315 
Q 1253 4750 1959 4750 
Q 2769 4750 3195 4129 
Q 3622 3509 3622 2328 
Q 3622 1225 3098 567 
Q 2575 -91 1691 -91 
Q 1453 -91 1209 -44 
Q 966 3 703 97 
z
M 1959 2075 
Q 2384 2075 2632 2365 
Q 2881 2656 2881 3163 
Q 2881 3666 2632 3958 
Q 2384 4250 1959 4250 
Q 1534 4250 1286 3958 
Q 1038 3666 1038 3163 
Q 1038 2656 1286 2365 
Q 1534 2075 1959 2075 
z
" id="DejaVuSans-39" transform="scale(0.015625)"/>
       </defs>
       <use xlink:href="#DejaVuSans-32"/>
       <use x="63.623047" xlink:href="#DejaVuSans-30"/>
       <use x="127.246094" xlink:href="#DejaVuSans-32"/>
       <use x="190.869141" xlink:href="#DejaVuSans-30"/>
       <use x="254.492188" xlink:href="#DejaVuSans-2d"/>
       <use x="290.576172" xlink:href="#DejaVuSans-30"/>
       <use x="354.199219" xlink:href="#DejaVuSans-39"/>
      </g>
     </g>
    </g>
    <g id="xtick_2">
     <g id="line2d_2">
      <g>
       <use style="stroke:#000000;stroke-width:0.8;" x="254.64854" xlink:href="#mb50d8a7794" y="228.96"/>
      </g>
     </g>
     <g id="text_2">
      <!-- 2020-11 -->
      <g transform="translate(257.407915 277.742812)rotate(-90)scale(0.1 -0.1)">
       <defs>
        <path d="M 794 531 
L 1825 531 
L 1825 4091 
L 703 3866 
L 703 4441 
L 1819 4666 
L 2450 4666 
L 2450 531 
L 3481 531 
L 3481 0 
L 794 0 
L 794 531 
z
" id="DejaVuSans-31" transform="scale(0.015625)"/>
       </defs>
       <use xlink:href="#DejaVuSans-32"/>
       <use x="63.623047" xlink:href="#DejaVuSans-30"/>
       <use x="127.246094" xlink:href="#DejaVuSans-32"/>
       <use x="190.869141" xlink:href="#DejaVuSans-30"/>
       <use x="254.492188" xlink:href="#DejaVuSans-2d"/>
       <use x="290.576172" xlink:href="#DejaVuSans-31"/>
       <use x="354.199219" xlink:href="#DejaVuSans-31"/>
      </g>
     </g>
    </g>
    <g id="xtick_3">
     <g id="line2d_3">
      <g>
       <use style="stroke:#000000;stroke-width:0.8;" x="405.042884" xlink:href="#mb50d8a7794" y="228.96"/>
      </g>
     </g>
     <g id="text_3">
      <!-- 2021-01 -->
      <g transform="translate(407.802259 277.742812)rotate(-90)scale(0.1 -0.1)">
       <use xlink:href="#DejaVuSans-32"/>
       <use x="63.623047" xlink:href="#DejaVuSans-30"/>
       <use x="127.246094" xlink:href="#DejaVuSans-32"/>
       <use x="190.869141" xlink:href="#DejaVuSans-31"/>
       <use x="254.492188" xlink:href="#DejaVuSans-2d"/>
       <use x="290.576172" xlink:href="#DejaVuSans-30"/>
       <use x="354.199219" xlink:href="#DejaVuSans-31"/>
      </g>
     </g>
    </g>
    <g id="xtick_4">
     <g id="line2d_4">
      <g>
       <use style="stroke:#000000;stroke-width:0.8;" x="550.506266" xlink:href="#mb50d8a7794" y="228.96"/>
      </g>
     </g>
     <g id="text_4">
      <!-- 2021-03 -->
      <g transform="translate(553.265641 277.742812)rotate(-90)scale(0.1 -0.1)">
       <defs>
        <path d="M 2597 2516 
Q 3050 2419 3304 2112 
Q 3559 1806 3559 1356 
Q 3559 666 3084 287 
Q 2609 -91 1734 -91 
Q 1441 -91 1130 -33 
Q 819 25 488 141 
L 488 750 
Q 750 597 1062 519 
Q 1375 441 1716 441 
Q 2309 441 2620 675 
Q 2931 909 2931 1356 
Q 2931 1769 2642 2001 
Q 2353 2234 1838 2234 
L 1294 2234 
L 1294 2753 
L 1863 2753 
Q 2328 2753 2575 2939 
Q 2822 3125 2822 3475 
Q 2822 3834 2567 4026 
Q 2313 4219 1838 4219 
Q 1578 4219 1281 4162 
Q 984 4106 628 3988 
L 628 4550 
Q 988 4650 1302 4700 
Q 1616 4750 1894 4750 
Q 2613 4750 3031 4423 
Q 3450 4097 3450 3541 
Q 3450 3153 3228 2886 
Q 3006 2619 2597 2516 
z
" id="DejaVuSans-33" transform="scale(0.015625)"/>
       </defs>
       <use xlink:href="#DejaVuSans-32"/>
       <use x="63.623047" xlink:href="#DejaVuSans-30"/>
       <use x="127.246094" xlink:href="#DejaVuSans-32"/>
       <use x="190.869141" xlink:href="#DejaVuSans-31"/>
       <use x="254.492188" xlink:href="#DejaVuSans-2d"/>
       <use x="290.576172" xlink:href="#DejaVuSans-30"/>
       <use x="354.199219" xlink:href="#DejaVuSans-33"/>
      </g>
     </g>
    </g>
    <g id="xtick_5">
     <g id="line2d_5">
      <g>
       <use style="stroke:#000000;stroke-width:0.8;" x="700.900611" xlink:href="#mb50d8a7794" y="228.96"/>
      </g>
     </g>
     <g id="text_5">
      <!-- 2021-05 -->
      <g transform="translate(703.659986 277.742812)rotate(-90)scale(0.1 -0.1)">
       <defs>
        <path d="M 691 4666 
L 3169 4666 
L 3169 4134 
L 1269 4134 
L 1269 2991 
Q 1406 3038 1543 3061 
Q 1681 3084 1819 3084 
Q 2600 3084 3056 2656 
Q 3513 2228 3513 1497 
Q 3513 744 3044 326 
Q 2575 -91 1722 -91 
Q 1428 -91 1123 -41 
Q 819 9 494 109 
L 494 744 
Q 775 591 1075 516 
Q 1375 441 1709 441 
Q 2250 441 2565 725 
Q 2881 1009 2881 1497 
Q 2881 1984 2565 2268 
Q 2250 2553 1709 2553 
Q 1456 2553 1204 2497 
Q 953 2441 691 2322 
L 691 4666 
z
" id="DejaVuSans-35" transform="scale(0.015625)"/>
       </defs>
       <use xlink:href="#DejaVuSans-32"/>
       <use x="63.623047" xlink:href="#DejaVuSans-30"/>
       <use x="127.246094" xlink:href="#DejaVuSans-32"/>
       <use x="190.869141" xlink:href="#DejaVuSans-31"/>
       <use x="254.492188" xlink:href="#DejaVuSans-2d"/>
       <use x="290.576172" xlink:href="#DejaVuSans-30"/>
       <use x="354.199219" xlink:href="#DejaVuSans-35"/>
      </g>
     </g>
    </g>
    <g id="xtick_6">
     <g id="line2d_6">
      <g>
       <use style="stroke:#000000;stroke-width:0.8;" x="851.294955" xlink:href="#mb50d8a7794" y="228.96"/>
      </g>
     </g>
     <g id="text_6">
      <!-- 2021-07 -->
      <g transform="translate(854.05433 277.742812)rotate(-90)scale(0.1 -0.1)">
       <defs>
        <path d="M 525 4666 
L 3525 4666 
L 3525 4397 
L 1831 0 
L 1172 0 
L 2766 4134 
L 525 4134 
L 525 4666 
z
" id="DejaVuSans-37" transform="scale(0.015625)"/>
       </defs>
       <use xlink:href="#DejaVuSans-32"/>
       <use x="63.623047" xlink:href="#DejaVuSans-30"/>
       <use x="127.246094" xlink:href="#DejaVuSans-32"/>
       <use x="190.869141" xlink:href="#DejaVuSans-31"/>
       <use x="254.492188" xlink:href="#DejaVuSans-2d"/>
       <use x="290.576172" xlink:href="#DejaVuSans-30"/>
       <use x="354.199219" xlink:href="#DejaVuSans-37"/>
      </g>
     </g>
    </g>
    <g id="xtick_7">
     <g id="line2d_7">
      <g>
       <use style="stroke:#000000;stroke-width:0.8;" x="1004.154781" xlink:href="#mb50d8a7794" y="228.96"/>
      </g>
     </g>
     <g id="text_7">
      <!-- 2021-09 -->
      <g transform="translate(1006.914156 277.742812)rotate(-90)scale(0.1 -0.1)">
       <use xlink:href="#DejaVuSans-32"/>
       <use x="63.623047" xlink:href="#DejaVuSans-30"/>
       <use x="127.246094" xlink:href="#DejaVuSans-32"/>
       <use x="190.869141" xlink:href="#DejaVuSans-31"/>
       <use x="254.492188" xlink:href="#DejaVuSans-2d"/>
       <use x="290.576172" xlink:href="#DejaVuSans-30"/>
       <use x="354.199219" xlink:href="#DejaVuSans-39"/>
      </g>
     </g>
    </g>
    <g id="xtick_8">
     <g id="line2d_8">
      <g>
       <use style="stroke:#000000;stroke-width:0.8;" x="1154.549125" xlink:href="#mb50d8a7794" y="228.96"/>
      </g>
     </g>
     <g id="text_8">
      <!-- 2021-11 -->
      <g transform="translate(1157.3085 277.742812)rotate(-90)scale(0.1 -0.1)">
       <use xlink:href="#DejaVuSans-32"/>
       <use x="63.623047" xlink:href="#DejaVuSans-30"/>
       <use x="127.246094" xlink:href="#DejaVuSans-32"/>
       <use x="190.869141" xlink:href="#DejaVuSans-31"/>
       <use x="254.492188" xlink:href="#DejaVuSans-2d"/>
       <use x="290.576172" xlink:href="#DejaVuSans-31"/>
       <use x="354.199219" xlink:href="#DejaVuSans-31"/>
      </g>
     </g>
    </g>
    <g id="text_9">
     <!-- Date -->
     <g transform="translate(605.739844 289.34125)scale(0.1 -0.1)">
      <defs>
       <path d="M 1259 4147 
L 1259 519 
L 2022 519 
Q 2988 519 3436 956 
Q 3884 1394 3884 2338 
Q 3884 3275 3436 3711 
Q 2988 4147 2022 4147 
L 1259 4147 
z
M 628 4666 
L 1925 4666 
Q 3281 4666 3915 4102 
Q 4550 3538 4550 2338 
Q 4550 1131 3912 565 
Q 3275 0 1925 0 
L 628 0 
L 628 4666 
z
" id="DejaVuSans-44" transform="scale(0.015625)"/>
       <path d="M 2194 1759 
Q 1497 1759 1228 1600 
Q 959 1441 959 1056 
Q 959 750 1161 570 
Q 1363 391 1709 391 
Q 2188 391 2477 730 
Q 2766 1069 2766 1631 
L 2766 1759 
L 2194 1759 
z
M 3341 1997 
L 3341 0 
L 2766 0 
L 2766 531 
Q 2569 213 2275 61 
Q 1981 -91 1556 -91 
Q 1019 -91 701 211 
Q 384 513 384 1019 
Q 384 1609 779 1909 
Q 1175 2209 1959 2209 
L 2766 2209 
L 2766 2266 
Q 2766 2663 2505 2880 
Q 2244 3097 1772 3097 
Q 1472 3097 1187 3025 
Q 903 2953 641 2809 
L 641 3341 
Q 956 3463 1253 3523 
Q 1550 3584 1831 3584 
Q 2591 3584 2966 3190 
Q 3341 2797 3341 1997 
z
" id="DejaVuSans-61" transform="scale(0.015625)"/>
       <path d="M 1172 4494 
L 1172 3500 
L 2356 3500 
L 2356 3053 
L 1172 3053 
L 1172 1153 
Q 1172 725 1289 603 
Q 1406 481 1766 481 
L 2356 481 
L 2356 0 
L 1766 0 
Q 1100 0 847 248 
Q 594 497 594 1153 
L 594 3053 
L 172 3053 
L 172 3500 
L 594 3500 
L 594 4494 
L 1172 4494 
z
" id="DejaVuSans-74" transform="scale(0.015625)"/>
       <path d="M 3597 1894 
L 3597 1613 
L 953 1613 
Q 991 1019 1311 708 
Q 1631 397 2203 397 
Q 2534 397 2845 478 
Q 3156 559 3463 722 
L 3463 178 
Q 3153 47 2828 -22 
Q 2503 -91 2169 -91 
Q 1331 -91 842 396 
Q 353 884 353 1716 
Q 353 2575 817 3079 
Q 1281 3584 2069 3584 
Q 2775 3584 3186 3129 
Q 3597 2675 3597 1894 
z
M 3022 2063 
Q 3016 2534 2758 2815 
Q 2500 3097 2075 3097 
Q 1594 3097 1305 2825 
Q 1016 2553 972 2059 
L 3022 2063 
z
" id="DejaVuSans-65" transform="scale(0.015625)"/>
      </defs>
      <use xlink:href="#DejaVuSans-44"/>
      <use x="77.001953" xlink:href="#DejaVuSans-61"/>
      <use x="138.28125" xlink:href="#DejaVuSans-74"/>
      <use x="177.490234" xlink:href="#DejaVuSans-65"/>
     </g>
    </g>
   </g>
   <g id="matplotlib.axis_2">
    <g id="ytick_1">
     <g id="line2d_9">
      <defs>
       <path d="M 0 0 
L -3.5 0 
" id="m4809668fd7" style="stroke:#000000;stroke-width:0.8;"/>
      </defs>
      <g>
       <use style="stroke:#000000;stroke-width:0.8;" x="59.690625" xlink:href="#m4809668fd7" y="228.96"/>
      </g>
     </g>
     <g id="text_10">
      <!-- 0 -->
      <g transform="translate(46.328125 232.759219)scale(0.1 -0.1)">
       <use xlink:href="#DejaVuSans-30"/>
      </g>
     </g>
    </g>
    <g id="ytick_2">
     <g id="line2d_10">
      <g>
       <use style="stroke:#000000;stroke-width:0.8;" x="59.690625" xlink:href="#m4809668fd7" y="179.948014"/>
      </g>
     </g>
     <g id="text_11">
      <!-- 20000 -->
      <g transform="translate(20.878125 183.747233)scale(0.1 -0.1)">
       <use xlink:href="#DejaVuSans-32"/>
       <use x="63.623047" xlink:href="#DejaVuSans-30"/>
       <use x="127.246094" xlink:href="#DejaVuSans-30"/>
       <use x="190.869141" xlink:href="#DejaVuSans-30"/>
       <use x="254.492188" xlink:href="#DejaVuSans-30"/>
      </g>
     </g>
    </g>
    <g id="ytick_3">
     <g id="line2d_11">
      <g>
       <use style="stroke:#000000;stroke-width:0.8;" x="59.690625" xlink:href="#m4809668fd7" y="130.936028"/>
      </g>
     </g>
     <g id="text_12">
      <!-- 40000 -->
      <g transform="translate(20.878125 134.735247)scale(0.1 -0.1)">
       <defs>
        <path d="M 2419 4116 
L 825 1625 
L 2419 1625 
L 2419 4116 
z
M 2253 4666 
L 3047 4666 
L 3047 1625 
L 3713 1625 
L 3713 1100 
L 3047 1100 
L 3047 0 
L 2419 0 
L 2419 1100 
L 313 1100 
L 313 1709 
L 2253 4666 
z
" id="DejaVuSans-34" transform="scale(0.015625)"/>
       </defs>
       <use xlink:href="#DejaVuSans-34"/>
       <use x="63.623047" xlink:href="#DejaVuSans-30"/>
       <use x="127.246094" xlink:href="#DejaVuSans-30"/>
       <use x="190.869141" xlink:href="#DejaVuSans-30"/>
       <use x="254.492188" xlink:href="#DejaVuSans-30"/>
      </g>
     </g>
    </g>
    <g id="ytick_4">
     <g id="line2d_12">
      <g>
       <use style="stroke:#000000;stroke-width:0.8;" x="59.690625" xlink:href="#m4809668fd7" y="81.924042"/>
      </g>
     </g>
     <g id="text_13">
      <!-- 60000 -->
      <g transform="translate(20.878125 85.72326)scale(0.1 -0.1)">
       <defs>
        <path d="M 2113 2584 
Q 1688 2584 1439 2293 
Q 1191 2003 1191 1497 
Q 1191 994 1439 701 
Q 1688 409 2113 409 
Q 2538 409 2786 701 
Q 3034 994 3034 1497 
Q 3034 2003 2786 2293 
Q 2538 2584 2113 2584 
z
M 3366 4563 
L 3366 3988 
Q 3128 4100 2886 4159 
Q 2644 4219 2406 4219 
Q 1781 4219 1451 3797 
Q 1122 3375 1075 2522 
Q 1259 2794 1537 2939 
Q 1816 3084 2150 3084 
Q 2853 3084 3261 2657 
Q 3669 2231 3669 1497 
Q 3669 778 3244 343 
Q 2819 -91 2113 -91 
Q 1303 -91 875 529 
Q 447 1150 447 2328 
Q 447 3434 972 4092 
Q 1497 4750 2381 4750 
Q 2619 4750 2861 4703 
Q 3103 4656 3366 4563 
z
" id="DejaVuSans-36" transform="scale(0.015625)"/>
       </defs>
       <use xlink:href="#DejaVuSans-36"/>
       <use x="63.623047" xlink:href="#DejaVuSans-30"/>
       <use x="127.246094" xlink:href="#DejaVuSans-30"/>
       <use x="190.869141" xlink:href="#DejaVuSans-30"/>
       <use x="254.492188" xlink:href="#DejaVuSans-30"/>
      </g>
     </g>
    </g>
    <g id="ytick_5">
     <g id="line2d_13">
      <g>
       <use style="stroke:#000000;stroke-width:0.8;" x="59.690625" xlink:href="#m4809668fd7" y="32.912056"/>
      </g>
     </g>
     <g id="text_14">
      <!-- 80000 -->
      <g transform="translate(20.878125 36.711274)scale(0.1 -0.1)">
       <defs>
        <path d="M 2034 2216 
Q 1584 2216 1326 1975 
Q 1069 1734 1069 1313 
Q 1069 891 1326 650 
Q 1584 409 2034 409 
Q 2484 409 2743 651 
Q 3003 894 3003 1313 
Q 3003 1734 2745 1975 
Q 2488 2216 2034 2216 
z
M 1403 2484 
Q 997 2584 770 2862 
Q 544 3141 544 3541 
Q 544 4100 942 4425 
Q 1341 4750 2034 4750 
Q 2731 4750 3128 4425 
Q 3525 4100 3525 3541 
Q 3525 3141 3298 2862 
Q 3072 2584 2669 2484 
Q 3125 2378 3379 2068 
Q 3634 1759 3634 1313 
Q 3634 634 3220 271 
Q 2806 -91 2034 -91 
Q 1263 -91 848 271 
Q 434 634 434 1313 
Q 434 1759 690 2068 
Q 947 2378 1403 2484 
z
M 1172 3481 
Q 1172 3119 1398 2916 
Q 1625 2713 2034 2713 
Q 2441 2713 2670 2916 
Q 2900 3119 2900 3481 
Q 2900 3844 2670 4047 
Q 2441 4250 2034 4250 
Q 1625 4250 1398 4047 
Q 1172 3844 1172 3481 
z
" id="DejaVuSans-38" transform="scale(0.015625)"/>
       </defs>
       <use xlink:href="#DejaVuSans-38"/>
       <use x="63.623047" xlink:href="#DejaVuSans-30"/>
       <use x="127.246094" xlink:href="#DejaVuSans-30"/>
       <use x="190.869141" xlink:href="#DejaVuSans-30"/>
       <use x="254.492188" xlink:href="#DejaVuSans-30"/>
      </g>
     </g>
    </g>
    <g id="text_15">
     <!-- Sequence count -->
     <g transform="translate(14.798438 158.440156)rotate(-90)scale(0.1 -0.1)">
      <defs>
       <path d="M 3425 4513 
L 3425 3897 
Q 3066 4069 2747 4153 
Q 2428 4238 2131 4238 
Q 1616 4238 1336 4038 
Q 1056 3838 1056 3469 
Q 1056 3159 1242 3001 
Q 1428 2844 1947 2747 
L 2328 2669 
Q 3034 2534 3370 2195 
Q 3706 1856 3706 1288 
Q 3706 609 3251 259 
Q 2797 -91 1919 -91 
Q 1588 -91 1214 -16 
Q 841 59 441 206 
L 441 856 
Q 825 641 1194 531 
Q 1563 422 1919 422 
Q 2459 422 2753 634 
Q 3047 847 3047 1241 
Q 3047 1584 2836 1778 
Q 2625 1972 2144 2069 
L 1759 2144 
Q 1053 2284 737 2584 
Q 422 2884 422 3419 
Q 422 4038 858 4394 
Q 1294 4750 2059 4750 
Q 2388 4750 2728 4690 
Q 3069 4631 3425 4513 
z
" id="DejaVuSans-53" transform="scale(0.015625)"/>
       <path d="M 947 1747 
Q 947 1113 1208 752 
Q 1469 391 1925 391 
Q 2381 391 2643 752 
Q 2906 1113 2906 1747 
Q 2906 2381 2643 2742 
Q 2381 3103 1925 3103 
Q 1469 3103 1208 2742 
Q 947 2381 947 1747 
z
M 2906 525 
Q 2725 213 2448 61 
Q 2172 -91 1784 -91 
Q 1150 -91 751 415 
Q 353 922 353 1747 
Q 353 2572 751 3078 
Q 1150 3584 1784 3584 
Q 2172 3584 2448 3432 
Q 2725 3281 2906 2969 
L 2906 3500 
L 3481 3500 
L 3481 -1331 
L 2906 -1331 
L 2906 525 
z
" id="DejaVuSans-71" transform="scale(0.015625)"/>
       <path d="M 544 1381 
L 544 3500 
L 1119 3500 
L 1119 1403 
Q 1119 906 1312 657 
Q 1506 409 1894 409 
Q 2359 409 2629 706 
Q 2900 1003 2900 1516 
L 2900 3500 
L 3475 3500 
L 3475 0 
L 2900 0 
L 2900 538 
Q 2691 219 2414 64 
Q 2138 -91 1772 -91 
Q 1169 -91 856 284 
Q 544 659 544 1381 
z
M 1991 3584 
L 1991 3584 
z
" id="DejaVuSans-75" transform="scale(0.015625)"/>
       <path d="M 3513 2113 
L 3513 0 
L 2938 0 
L 2938 2094 
Q 2938 2591 2744 2837 
Q 2550 3084 2163 3084 
Q 1697 3084 1428 2787 
Q 1159 2491 1159 1978 
L 1159 0 
L 581 0 
L 581 3500 
L 1159 3500 
L 1159 2956 
Q 1366 3272 1645 3428 
Q 1925 3584 2291 3584 
Q 2894 3584 3203 3211 
Q 3513 2838 3513 2113 
z
" id="DejaVuSans-6e" transform="scale(0.015625)"/>
       <path d="M 3122 3366 
L 3122 2828 
Q 2878 2963 2633 3030 
Q 2388 3097 2138 3097 
Q 1578 3097 1268 2742 
Q 959 2388 959 1747 
Q 959 1106 1268 751 
Q 1578 397 2138 397 
Q 2388 397 2633 464 
Q 2878 531 3122 666 
L 3122 134 
Q 2881 22 2623 -34 
Q 2366 -91 2075 -91 
Q 1284 -91 818 406 
Q 353 903 353 1747 
Q 353 2603 823 3093 
Q 1294 3584 2113 3584 
Q 2378 3584 2631 3529 
Q 2884 3475 3122 3366 
z
" id="DejaVuSans-63" transform="scale(0.015625)"/>
       <path id="DejaVuSans-20" transform="scale(0.015625)"/>
       <path d="M 1959 3097 
Q 1497 3097 1228 2736 
Q 959 2375 959 1747 
Q 959 1119 1226 758 
Q 1494 397 1959 397 
Q 2419 397 2687 759 
Q 2956 1122 2956 1747 
Q 2956 2369 2687 2733 
Q 2419 3097 1959 3097 
z
M 1959 3584 
Q 2709 3584 3137 3096 
Q 3566 2609 3566 1747 
Q 3566 888 3137 398 
Q 2709 -91 1959 -91 
Q 1206 -91 779 398 
Q 353 888 353 1747 
Q 353 2609 779 3096 
Q 1206 3584 1959 3584 
z
" id="DejaVuSans-6f" transform="scale(0.015625)"/>
      </defs>
      <use xlink:href="#DejaVuSans-53"/>
      <use x="63.476562" xlink:href="#DejaVuSans-65"/>
      <use x="125" xlink:href="#DejaVuSans-71"/>
      <use x="188.476562" xlink:href="#DejaVuSans-75"/>
      <use x="251.855469" xlink:href="#DejaVuSans-65"/>
      <use x="313.378906" xlink:href="#DejaVuSans-6e"/>
      <use x="376.757812" xlink:href="#DejaVuSans-63"/>
      <use x="431.738281" xlink:href="#DejaVuSans-65"/>
      <use x="493.261719" xlink:href="#DejaVuSans-20"/>
      <use x="525.048828" xlink:href="#DejaVuSans-63"/>
      <use x="580.029297" xlink:href="#DejaVuSans-6f"/>
      <use x="641.210938" xlink:href="#DejaVuSans-75"/>
      <use x="704.589844" xlink:href="#DejaVuSans-6e"/>
      <use x="767.96875" xlink:href="#DejaVuSans-74"/>
     </g>
    </g>
   </g>
   <g id="patch_57">
    <path d="M 59.690625 228.96 
L 59.690625 7.2 
" style="fill:none;stroke:#000000;stroke-linecap:square;stroke-linejoin:miter;stroke-width:0.8;"/>
   </g>
   <g id="patch_58">
    <path d="M 1175.690625 228.96 
L 1175.690625 7.2 
" style="fill:none;stroke:#000000;stroke-linecap:square;stroke-linejoin:miter;stroke-width:0.8;"/>
   </g>
   <g id="patch_59">
    <path d="M 59.690625 228.96 
L 1175.690625 228.96 
" style="fill:none;stroke:#000000;stroke-linecap:square;stroke-linejoin:miter;stroke-width:0.8;"/>
   </g>
  </g>
  <g id="axes_2">
   <g id="matplotlib.axis_3">
    <g id="ytick_6">
     <g id="line2d_14">
      <defs>
       <path d="M 0 0 
L 3.5 0 
" id="m326cde277e" style="stroke:#000000;stroke-width:0.8;"/>
      </defs>
      <g>
       <use style="stroke:#000000;stroke-width:0.8;" x="1175.690625" xlink:href="#m326cde277e" y="218.880242"/>
      </g>
     </g>
     <g id="text_16">
      <!-- 0 -->
      <g transform="translate(1182.690625 222.67946)scale(0.1 -0.1)">
       <use xlink:href="#DejaVuSans-30"/>
      </g>
     </g>
    </g>
    <g id="ytick_7">
     <g id="line2d_15">
      <g>
       <use style="stroke:#000000;stroke-width:0.8;" x="1175.690625" xlink:href="#m326cde277e" y="170.556878"/>
      </g>
     </g>
     <g id="text_17">
      <!-- 200000 -->
      <g transform="translate(1182.690625 174.356097)scale(0.1 -0.1)">
       <use xlink:href="#DejaVuSans-32"/>
       <use x="63.623047" xlink:href="#DejaVuSans-30"/>
       <use x="127.246094" xlink:href="#DejaVuSans-30"/>
       <use x="190.869141" xlink:href="#DejaVuSans-30"/>
       <use x="254.492188" xlink:href="#DejaVuSans-30"/>
       <use x="318.115234" xlink:href="#DejaVuSans-30"/>
      </g>
     </g>
    </g>
    <g id="ytick_8">
     <g id="line2d_16">
      <g>
       <use style="stroke:#000000;stroke-width:0.8;" x="1175.690625" xlink:href="#m326cde277e" y="122.233514"/>
      </g>
     </g>
     <g id="text_18">
      <!-- 400000 -->
      <g transform="translate(1182.690625 126.032733)scale(0.1 -0.1)">
       <use xlink:href="#DejaVuSans-34"/>
       <use x="63.623047" xlink:href="#DejaVuSans-30"/>
       <use x="127.246094" xlink:href="#DejaVuSans-30"/>
       <use x="190.869141" xlink:href="#DejaVuSans-30"/>
       <use x="254.492188" xlink:href="#DejaVuSans-30"/>
       <use x="318.115234" xlink:href="#DejaVuSans-30"/>
      </g>
     </g>
    </g>
    <g id="ytick_9">
     <g id="line2d_17">
      <g>
       <use style="stroke:#000000;stroke-width:0.8;" x="1175.690625" xlink:href="#m326cde277e" y="73.91015"/>
      </g>
     </g>
     <g id="text_19">
      <!-- 600000 -->
      <g transform="translate(1182.690625 77.709369)scale(0.1 -0.1)">
       <use xlink:href="#DejaVuSans-36"/>
       <use x="63.623047" xlink:href="#DejaVuSans-30"/>
       <use x="127.246094" xlink:href="#DejaVuSans-30"/>
       <use x="190.869141" xlink:href="#DejaVuSans-30"/>
       <use x="254.492188" xlink:href="#DejaVuSans-30"/>
       <use x="318.115234" xlink:href="#DejaVuSans-30"/>
      </g>
     </g>
    </g>
    <g id="ytick_10">
     <g id="line2d_18">
      <g>
       <use style="stroke:#000000;stroke-width:0.8;" x="1175.690625" xlink:href="#m326cde277e" y="25.586786"/>
      </g>
     </g>
     <g id="text_20">
      <!-- 800000 -->
      <g transform="translate(1182.690625 29.386005)scale(0.1 -0.1)">
       <use xlink:href="#DejaVuSans-38"/>
       <use x="63.623047" xlink:href="#DejaVuSans-30"/>
       <use x="127.246094" xlink:href="#DejaVuSans-30"/>
       <use x="190.869141" xlink:href="#DejaVuSans-30"/>
       <use x="254.492188" xlink:href="#DejaVuSans-30"/>
       <use x="318.115234" xlink:href="#DejaVuSans-30"/>
      </g>
     </g>
    </g>
    <g id="text_21">
     <!-- Total -->
     <g transform="translate(1232.464062 129.756562)rotate(-90)scale(0.1 -0.1)">
      <defs>
       <path d="M -19 4666 
L 3928 4666 
L 3928 4134 
L 2272 4134 
L 2272 0 
L 1638 0 
L 1638 4134 
L -19 4134 
L -19 4666 
z
" id="DejaVuSans-54" transform="scale(0.015625)"/>
       <path d="M 603 4863 
L 1178 4863 
L 1178 0 
L 603 0 
L 603 4863 
z
" id="DejaVuSans-6c" transform="scale(0.015625)"/>
      </defs>
      <use xlink:href="#DejaVuSans-54"/>
      <use x="44.083984" xlink:href="#DejaVuSans-6f"/>
      <use x="105.265625" xlink:href="#DejaVuSans-74"/>
      <use x="144.474609" xlink:href="#DejaVuSans-61"/>
      <use x="205.753906" xlink:href="#DejaVuSans-6c"/>
     </g>
    </g>
   </g>
   <g id="line2d_19">
    <path clip-path="url(#p8da3f566a7)" d="M 119.047081 218.88 
L 567.764634 218.778038 
L 572.695596 218.704103 
L 622.005217 218.542703 
L 644.194546 218.229568 
L 663.918395 217.705259 
L 678.711281 217.18989 
L 683.642243 216.974851 
L 691.038686 216.691193 
L 718.158978 215.322917 
L 723.08994 215.0842 
L 742.813789 213.950292 
L 750.210232 213.450628 
L 757.606675 213.055102 
L 777.330523 211.534124 
L 787.192448 210.481883 
L 789.657929 210.294146 
L 799.519853 208.963079 
L 804.450815 208.417508 
L 806.916296 208.249102 
L 816.77822 206.672793 
L 819.243701 206.256971 
L 824.174663 205.748851 
L 834.036588 203.675295 
L 838.96755 202.754252 
L 841.433031 202.38941 
L 853.760436 198.56365 
L 858.691398 197.626418 
L 861.156879 196.607037 
L 863.62236 195.398469 
L 866.087841 193.824577 
L 868.553322 192.746483 
L 871.018804 191.524385 
L 875.949766 190.026603 
L 883.346209 185.633526 
L 888.277171 182.815065 
L 893.208133 180.865218 
L 895.673614 178.782239 
L 898.139095 176.222792 
L 905.535538 170.801636 
L 908.001019 169.383345 
L 910.4665 168.257894 
L 915.397463 162.983399 
L 922.793906 156.10795 
L 927.724868 153.164091 
L 930.190349 150.422223 
L 932.65583 147.384375 
L 937.586792 141.850867 
L 940.052273 139.39749 
L 942.517754 137.757878 
L 944.983235 136.507028 
L 947.448716 133.641935 
L 949.914197 130.390498 
L 952.379678 128.082332 
L 954.845159 125.603585 
L 957.31064 123.314266 
L 962.241603 119.358274 
L 964.707084 115.951718 
L 967.172565 112.228886 
L 969.638046 108.161509 
L 972.103527 104.805693 
L 974.569008 102.036281 
L 977.034489 100.446684 
L 979.49997 99.316159 
L 981.965451 96.613675 
L 984.430932 93.488844 
L 989.361894 88.512504 
L 991.827375 86.307026 
L 994.292856 85.012926 
L 996.758337 83.875153 
L 999.223818 81.198038 
L 1001.689299 78.09737 
L 1009.085743 70.958559 
L 1011.551224 69.669533 
L 1014.016705 68.577667 
L 1016.482186 66.700304 
L 1018.947667 63.588763 
L 1023.878629 58.427344 
L 1026.34411 56.050801 
L 1028.809591 54.668753 
L 1031.275072 53.507784 
L 1033.740553 50.85459 
L 1036.206034 48.503417 
L 1043.602477 43.036595 
L 1048.53344 40.939361 
L 1050.998921 38.734607 
L 1053.464402 36.810612 
L 1058.395364 34.027187 
L 1060.860845 32.43469 
L 1063.326326 31.583474 
L 1065.791807 30.863456 
L 1070.722769 27.576501 
L 1075.653731 25.215421 
L 1078.119212 24.200872 
L 1080.584693 23.570736 
L 1083.050174 23.073488 
L 1087.981136 21.105761 
L 1095.37758 19.166786 
L 1097.843061 18.753621 
L 1102.774023 18.070087 
L 1105.239504 17.71491 
L 1110.170466 17.380029 
L 1115.101428 17.291598 
L 1124.963352 17.28 
L 1124.963352 17.28 
" style="fill:none;stroke:#696969;stroke-linecap:square;stroke-width:3;"/>
   </g>
   <g id="patch_60">
    <path d="M 59.690625 228.96 
L 59.690625 7.2 
" style="fill:none;stroke:#000000;stroke-linecap:square;stroke-linejoin:miter;stroke-width:0.8;"/>
   </g>
   <g id="patch_61">
    <path d="M 1175.690625 228.96 
L 1175.690625 7.2 
" style="fill:none;stroke:#000000;stroke-linecap:square;stroke-linejoin:miter;stroke-width:0.8;"/>
   </g>
   <g id="patch_62">
    <path d="M 59.690625 228.96 
L 1175.690625 228.96 
" style="fill:none;stroke:#000000;stroke-linecap:square;stroke-linejoin:miter;stroke-width:0.8;"/>
   </g>
  </g>
 </g>
 <defs>
  <clipPath id="p8da3f566a7">
   <rect height="221.76" width="1116" x="59.690625" y="7.2"/>
  </clipPath>
 </defs>
</svg>
