<?xml version="1.0" encoding="utf-8" standalone="no"?>
<!DOCTYPE svg PUBLIC "-//W3C//DTD SVG 1.1//EN"
  "http://www.w3.org/Graphics/SVG/1.1/DTD/svg11.dtd">
<svg height="299.974798pt" version="1.1" viewBox="0 0 1229.01875 299.974798" width="1229.01875pt" xmlns="http://www.w3.org/2000/svg" xmlns:xlink="http://www.w3.org/1999/xlink">
 <metadata>
  <rdf:RDF xmlns:cc="http://creativecommons.org/ns#" xmlns:dc="http://purl.org/dc/elements/1.1/" xmlns:rdf="http://www.w3.org/1999/02/22-rdf-syntax-ns#">
   <cc:Work>
    <dc:type rdf:resource="http://purl.org/dc/dcmitype/StillImage"/>
    <dc:date>2021-12-03T09:54:54.255356</dc:date>
    <dc:format>image/svg+xml</dc:format>
    <dc:creator>
     <cc:Agent>
      <dc:title>Matplotlib v3.4.2, https://matplotlib.org/</dc:title>
     </cc:Agent>
    </dc:creator>
   </cc:Work>
  </rdf:RDF>
 </metadata>
 <defs>
  <style type="text/css">*{stroke-linecap:butt;stroke-linejoin:round;}</style>
 </defs>
 <g id="figure_1">
  <g id="patch_1">
   <path d="M 0 299.974798 
L 1229.01875 299.974798 
L 1229.01875 0 
L 0 0 
z
" style="fill:#ffffff;"/>
  </g>
  <g id="axes_1">
   <g id="patch_2">
    <path d="M 53.328125 230.31386 
L 1169.328125 230.31386 
L 1169.328125 8.55386 
L 53.328125 8.55386 
z
" style="fill:#ffffff;"/>
   </g>
   <g id="patch_3">
    <path clip-path="url(#p295de883af)" d="M 104.055398 230.31386 
L 115.730259 230.31386 
L 115.730259 228.669001 
L 104.055398 228.669001 
z
" style="fill:#86b0a6;"/>
   </g>
   <g id="patch_4">
    <path clip-path="url(#p295de883af)" d="M 120.400204 230.31386 
L 132.075065 230.31386 
L 132.075065 227.682085 
L 120.400204 227.682085 
z
" style="fill:#86b0a6;"/>
   </g>
   <g id="patch_5">
    <path clip-path="url(#p295de883af)" d="M 136.74501 230.31386 
L 148.419871 230.31386 
L 148.419871 226.366197 
L 136.74501 226.366197 
z
" style="fill:#86b0a6;"/>
   </g>
   <g id="patch_6">
    <path clip-path="url(#p295de883af)" d="M 153.089816 230.31386 
L 164.764677 230.31386 
L 164.764677 228.120714 
L 153.089816 228.120714 
z
" style="fill:#86b0a6;"/>
   </g>
   <g id="patch_7">
    <path clip-path="url(#p295de883af)" d="M 169.434621 230.31386 
L 181.109483 230.31386 
L 181.109483 226.695169 
L 169.434621 226.695169 
z
" style="fill:#86b0a6;"/>
   </g>
   <g id="patch_8">
    <path clip-path="url(#p295de883af)" d="M 185.779427 230.31386 
L 197.454289 230.31386 
L 197.454289 228.778658 
L 185.779427 228.778658 
z
" style="fill:#86b0a6;"/>
   </g>
   <g id="patch_9">
    <path clip-path="url(#p295de883af)" d="M 202.124233 230.31386 
L 213.799095 230.31386 
L 213.799095 228.120714 
L 202.124233 228.120714 
z
" style="fill:#86b0a6;"/>
   </g>
   <g id="patch_10">
    <path clip-path="url(#p295de883af)" d="M 218.469039 230.31386 
L 230.143901 230.31386 
L 230.143901 223.186135 
L 218.469039 223.186135 
z
" style="fill:#86b0a6;"/>
   </g>
   <g id="patch_11">
    <path clip-path="url(#p295de883af)" d="M 234.813845 230.31386 
L 246.488707 230.31386 
L 246.488707 222.308876 
L 234.813845 222.308876 
z
" style="fill:#86b0a6;"/>
   </g>
   <g id="patch_12">
    <path clip-path="url(#p295de883af)" d="M 251.158651 230.31386 
L 262.833513 230.31386 
L 262.833513 217.593611 
L 251.158651 217.593611 
z
" style="fill:#86b0a6;"/>
   </g>
   <g id="patch_13">
    <path clip-path="url(#p295de883af)" d="M 267.503457 230.31386 
L 279.178319 230.31386 
L 279.178319 220.883331 
L 267.503457 220.883331 
z
" style="fill:#86b0a6;"/>
   </g>
   <g id="patch_14">
    <path clip-path="url(#p295de883af)" d="M 283.848263 230.31386 
L 295.523124 230.31386 
L 295.523124 215.510122 
L 283.848263 215.510122 
z
" style="fill:#86b0a6;"/>
   </g>
   <g id="patch_15">
    <path clip-path="url(#p295de883af)" d="M 300.193069 230.31386 
L 311.86793 230.31386 
L 311.86793 213.316976 
L 300.193069 213.316976 
z
" style="fill:#86b0a6;"/>
   </g>
   <g id="patch_16">
    <path clip-path="url(#p295de883af)" d="M 316.537875 230.31386 
L 328.212736 230.31386 
L 328.212736 212.878346 
L 316.537875 212.878346 
z
" style="fill:#86b0a6;"/>
   </g>
   <g id="patch_17">
    <path clip-path="url(#p295de883af)" d="M 332.882681 230.31386 
L 344.557542 230.31386 
L 344.557542 205.750621 
L 332.882681 205.750621 
z
" style="fill:#86b0a6;"/>
   </g>
   <g id="patch_18">
    <path clip-path="url(#p295de883af)" d="M 349.227487 230.31386 
L 360.902348 230.31386 
L 360.902348 201.364328 
L 349.227487 201.364328 
z
" style="fill:#86b0a6;"/>
   </g>
   <g id="patch_19">
    <path clip-path="url(#p295de883af)" d="M 365.572293 230.31386 
L 377.247154 230.31386 
L 377.247154 191.824141 
L 365.572293 191.824141 
z
" style="fill:#86b0a6;"/>
   </g>
   <g id="patch_20">
    <path clip-path="url(#p295de883af)" d="M 381.917099 230.31386 
L 393.59196 230.31386 
L 393.59196 177.239717 
L 381.917099 177.239717 
z
" style="fill:#86b0a6;"/>
   </g>
   <g id="patch_21">
    <path clip-path="url(#p295de883af)" d="M 398.261905 230.31386 
L 409.936766 230.31386 
L 409.936766 150.373674 
L 398.261905 150.373674 
z
" style="fill:#86b0a6;"/>
   </g>
   <g id="patch_22">
    <path clip-path="url(#p295de883af)" d="M 414.606711 230.31386 
L 426.281572 230.31386 
L 426.281572 142.259032 
L 414.606711 142.259032 
z
" style="fill:#86b0a6;"/>
   </g>
   <g id="patch_23">
    <path clip-path="url(#p295de883af)" d="M 430.951517 230.31386 
L 442.626378 230.31386 
L 442.626378 161.229748 
L 430.951517 161.229748 
z
" style="fill:#86b0a6;"/>
   </g>
   <g id="patch_24">
    <path clip-path="url(#p295de883af)" d="M 447.296323 230.31386 
L 458.971184 230.31386 
L 458.971184 148.728814 
L 447.296323 148.728814 
z
" style="fill:#86b0a6;"/>
   </g>
   <g id="patch_25">
    <path clip-path="url(#p295de883af)" d="M 463.641128 230.31386 
L 475.31599 230.31386 
L 475.31599 145.219779 
L 463.641128 145.219779 
z
" style="fill:#86b0a6;"/>
   </g>
   <g id="patch_26">
    <path clip-path="url(#p295de883af)" d="M 479.985934 230.31386 
L 491.660796 230.31386 
L 491.660796 119.559966 
L 479.985934 119.559966 
z
" style="fill:#86b0a6;"/>
   </g>
   <g id="patch_27">
    <path clip-path="url(#p295de883af)" d="M 496.33074 230.31386 
L 508.005602 230.31386 
L 508.005602 126.468378 
L 496.33074 126.468378 
z
" style="fill:#86b0a6;"/>
   </g>
   <g id="patch_28">
    <path clip-path="url(#p295de883af)" d="M 512.675546 230.31386 
L 524.350408 230.31386 
L 524.350408 102.672739 
L 512.675546 102.672739 
z
" style="fill:#86b0a6;"/>
   </g>
   <g id="patch_29">
    <path clip-path="url(#p295de883af)" d="M 529.020352 230.31386 
L 540.695214 230.31386 
L 540.695214 79.754359 
L 529.020352 79.754359 
z
" style="fill:#86b0a6;"/>
   </g>
   <g id="patch_30">
    <path clip-path="url(#p295de883af)" d="M 545.365158 230.31386 
L 557.04002 230.31386 
L 557.04002 37.207318 
L 545.365158 37.207318 
z
" style="fill:#86b0a6;"/>
   </g>
   <g id="patch_31">
    <path clip-path="url(#p295de883af)" d="M 561.709964 230.31386 
L 573.384825 230.31386 
L 573.384825 19.11386 
L 561.709964 19.11386 
z
" style="fill:#86b0a6;"/>
   </g>
   <g id="patch_32">
    <path clip-path="url(#p295de883af)" d="M 578.05477 230.31386 
L 589.729631 230.31386 
L 589.729631 28.434733 
L 578.05477 28.434733 
z
" style="fill:#86b0a6;"/>
   </g>
   <g id="patch_33">
    <path clip-path="url(#p295de883af)" d="M 594.399576 230.31386 
L 606.074437 230.31386 
L 606.074437 19.442832 
L 594.399576 19.442832 
z
" style="fill:#86b0a6;"/>
   </g>
   <g id="patch_34">
    <path clip-path="url(#p295de883af)" d="M 610.744382 230.31386 
L 622.419243 230.31386 
L 622.419243 65.827879 
L 610.744382 65.827879 
z
" style="fill:#86b0a6;"/>
   </g>
   <g id="patch_35">
    <path clip-path="url(#p295de883af)" d="M 627.089188 230.31386 
L 638.764049 230.31386 
L 638.764049 62.09953 
L 627.089188 62.09953 
z
" style="fill:#86b0a6;"/>
   </g>
   <g id="patch_36">
    <path clip-path="url(#p295de883af)" d="M 643.433994 230.31386 
L 655.108855 230.31386 
L 655.108855 90.720091 
L 643.433994 90.720091 
z
" style="fill:#86b0a6;"/>
   </g>
   <g id="patch_37">
    <path clip-path="url(#p295de883af)" d="M 659.7788 230.31386 
L 671.453661 230.31386 
L 671.453661 81.728191 
L 659.7788 81.728191 
z
" style="fill:#86b0a6;"/>
   </g>
   <g id="patch_38">
    <path clip-path="url(#p295de883af)" d="M 676.123606 230.31386 
L 687.798467 230.31386 
L 687.798467 94.667755 
L 676.123606 94.667755 
z
" style="fill:#86b0a6;"/>
   </g>
   <g id="patch_39">
    <path clip-path="url(#p295de883af)" d="M 692.468412 230.31386 
L 704.143273 230.31386 
L 704.143273 130.85467 
L 692.468412 130.85467 
z
" style="fill:#86b0a6;"/>
   </g>
   <g id="patch_40">
    <path clip-path="url(#p295de883af)" d="M 708.813218 230.31386 
L 720.488079 230.31386 
L 720.488079 150.92196 
L 708.813218 150.92196 
z
" style="fill:#86b0a6;"/>
   </g>
   <g id="patch_41">
    <path clip-path="url(#p295de883af)" d="M 725.158024 230.31386 
L 736.832885 230.31386 
L 736.832885 156.953113 
L 725.158024 156.953113 
z
" style="fill:#86b0a6;"/>
   </g>
   <g id="patch_42">
    <path clip-path="url(#p295de883af)" d="M 741.502829 230.31386 
L 753.177691 230.31386 
L 753.177691 159.255917 
L 741.502829 159.255917 
z
" style="fill:#86b0a6;"/>
   </g>
   <g id="patch_43">
    <path clip-path="url(#p295de883af)" d="M 757.847635 230.31386 
L 769.522497 230.31386 
L 769.522497 171.647194 
L 757.847635 171.647194 
z
" style="fill:#86b0a6;"/>
   </g>
   <g id="patch_44">
    <path clip-path="url(#p295de883af)" d="M 774.192441 230.31386 
L 785.867303 230.31386 
L 785.867303 178.77492 
L 774.192441 178.77492 
z
" style="fill:#86b0a6;"/>
   </g>
   <g id="patch_45">
    <path clip-path="url(#p295de883af)" d="M 790.537247 230.31386 
L 802.212109 230.31386 
L 802.212109 171.427879 
L 790.537247 171.427879 
z
" style="fill:#86b0a6;"/>
   </g>
   <g id="patch_46">
    <path clip-path="url(#p295de883af)" d="M 806.882053 230.31386 
L 818.556915 230.31386 
L 818.556915 182.174297 
L 806.882053 182.174297 
z
" style="fill:#86b0a6;"/>
   </g>
   <g id="patch_47">
    <path clip-path="url(#p295de883af)" d="M 823.226859 230.31386 
L 834.901721 230.31386 
L 834.901721 195.11386 
L 823.226859 195.11386 
z
" style="fill:#86b0a6;"/>
   </g>
   <g id="patch_48">
    <path clip-path="url(#p295de883af)" d="M 839.571665 230.31386 
L 851.246527 230.31386 
L 851.246527 196.868378 
L 839.571665 196.868378 
z
" style="fill:#86b0a6;"/>
   </g>
   <g id="patch_49">
    <path clip-path="url(#p295de883af)" d="M 855.916471 230.31386 
L 867.591332 230.31386 
L 867.591332 210.136913 
L 855.916471 210.136913 
z
" style="fill:#86b0a6;"/>
   </g>
   <g id="patch_50">
    <path clip-path="url(#p295de883af)" d="M 872.261277 230.31386 
L 883.936138 230.31386 
L 883.936138 212.659032 
L 872.261277 212.659032 
z
" style="fill:#86b0a6;"/>
   </g>
   <g id="patch_51">
    <path clip-path="url(#p295de883af)" d="M 888.606083 230.31386 
L 900.280944 230.31386 
L 900.280944 217.593611 
L 888.606083 217.593611 
z
" style="fill:#86b0a6;"/>
   </g>
   <g id="patch_52">
    <path clip-path="url(#p295de883af)" d="M 904.950889 230.31386 
L 916.62575 230.31386 
L 916.62575 224.61168 
L 904.950889 224.61168 
z
" style="fill:#86b0a6;"/>
   </g>
   <g id="patch_53">
    <path clip-path="url(#p295de883af)" d="M 921.295695 230.31386 
L 932.970556 230.31386 
L 932.970556 225.488938 
L 921.295695 225.488938 
z
" style="fill:#86b0a6;"/>
   </g>
   <g id="patch_54">
    <path clip-path="url(#p295de883af)" d="M 937.640501 230.31386 
L 949.315362 230.31386 
L 949.315362 228.669001 
L 937.640501 228.669001 
z
" style="fill:#86b0a6;"/>
   </g>
   <g id="patch_55">
    <path clip-path="url(#p295de883af)" d="M 953.985307 230.31386 
L 965.660168 230.31386 
L 965.660168 227.901399 
L 953.985307 227.901399 
z
" style="fill:#86b0a6;"/>
   </g>
   <g id="patch_56">
    <path clip-path="url(#p295de883af)" d="M 970.330113 230.31386 
L 982.004974 230.31386 
L 982.004974 229.326945 
L 970.330113 229.326945 
z
" style="fill:#86b0a6;"/>
   </g>
   <g id="patch_57">
    <path clip-path="url(#p295de883af)" d="M 986.674919 230.31386 
L 998.34978 230.31386 
L 998.34978 230.094546 
L 986.674919 230.094546 
z
" style="fill:#86b0a6;"/>
   </g>
   <g id="patch_58">
    <path clip-path="url(#p295de883af)" d="M 1003.019725 230.31386 
L 1014.694586 230.31386 
L 1014.694586 229.546259 
L 1003.019725 229.546259 
z
" style="fill:#86b0a6;"/>
   </g>
   <g id="patch_59">
    <path clip-path="url(#p295de883af)" d="M 1019.36453 230.31386 
L 1031.039392 230.31386 
L 1031.039392 230.204203 
L 1019.36453 230.204203 
z
" style="fill:#86b0a6;"/>
   </g>
   <g id="patch_60">
    <path clip-path="url(#p295de883af)" d="M 1035.709336 230.31386 
L 1047.384198 230.31386 
L 1047.384198 225.050309 
L 1035.709336 225.050309 
z
" style="fill:#86b0a6;"/>
   </g>
   <g id="patch_61">
    <path clip-path="url(#p295de883af)" d="M 1052.054142 230.31386 
L 1063.729004 230.31386 
L 1063.729004 229.765574 
L 1052.054142 229.765574 
z
" style="fill:#86b0a6;"/>
   </g>
   <g id="patch_62">
    <path clip-path="url(#p295de883af)" d="M 1068.398948 230.31386 
L 1080.07381 230.31386 
L 1080.07381 229.875231 
L 1068.398948 229.875231 
z
" style="fill:#86b0a6;"/>
   </g>
   <g id="patch_63">
    <path clip-path="url(#p295de883af)" d="M 1084.743754 230.31386 
L 1096.418616 230.31386 
L 1096.418616 229.984889 
L 1084.743754 229.984889 
z
" style="fill:#86b0a6;"/>
   </g>
   <g id="patch_64">
    <path clip-path="url(#p295de883af)" d="M 1101.08856 230.31386 
L 1112.763422 230.31386 
L 1112.763422 230.204203 
L 1101.08856 230.204203 
z
" style="fill:#86b0a6;"/>
   </g>
   <g id="matplotlib.axis_1">
    <g id="xtick_1">
     <g id="line2d_1">
      <defs>
       <path d="M 0 0 
L 0 3.5 
" id="m450caf6e6e" style="stroke:#000000;stroke-width:0.8;"/>
      </defs>
      <g>
       <use style="stroke:#000000;stroke-width:0.8;" x="114.562773" xlink:href="#m450caf6e6e" y="230.31386"/>
      </g>
     </g>
     <g id="text_1">
      <!-- 2020-09 -->
      <g transform="translate(117.322148 279.096673)rotate(-90)scale(0.1 -0.1)">
       <defs>
        <path d="M 1228 531 
L 3431 531 
L 3431 0 
L 469 0 
L 469 531 
Q 828 903 1448 1529 
Q 2069 2156 2228 2338 
Q 2531 2678 2651 2914 
Q 2772 3150 2772 3378 
Q 2772 3750 2511 3984 
Q 2250 4219 1831 4219 
Q 1534 4219 1204 4116 
Q 875 4013 500 3803 
L 500 4441 
Q 881 4594 1212 4672 
Q 1544 4750 1819 4750 
Q 2544 4750 2975 4387 
Q 3406 4025 3406 3419 
Q 3406 3131 3298 2873 
Q 3191 2616 2906 2266 
Q 2828 2175 2409 1742 
Q 1991 1309 1228 531 
z
" id="DejaVuSans-32" transform="scale(0.015625)"/>
        <path d="M 2034 4250 
Q 1547 4250 1301 3770 
Q 1056 3291 1056 2328 
Q 1056 1369 1301 889 
Q 1547 409 2034 409 
Q 2525 409 2770 889 
Q 3016 1369 3016 2328 
Q 3016 3291 2770 3770 
Q 2525 4250 2034 4250 
z
M 2034 4750 
Q 2819 4750 3233 4129 
Q 3647 3509 3647 2328 
Q 3647 1150 3233 529 
Q 2819 -91 2034 -91 
Q 1250 -91 836 529 
Q 422 1150 422 2328 
Q 422 3509 836 4129 
Q 1250 4750 2034 4750 
z
" id="DejaVuSans-30" transform="scale(0.015625)"/>
        <path d="M 313 2009 
L 1997 2009 
L 1997 1497 
L 313 1497 
L 313 2009 
z
" id="DejaVuSans-2d" transform="scale(0.015625)"/>
        <path d="M 703 97 
L 703 672 
Q 941 559 1184 500 
Q 1428 441 1663 441 
Q 2288 441 2617 861 
Q 2947 1281 2994 2138 
Q 2813 1869 2534 1725 
Q 2256 1581 1919 1581 
Q 1219 1581 811 2004 
Q 403 2428 403 3163 
Q 403 3881 828 4315 
Q 1253 4750 1959 4750 
Q 2769 4750 3195 4129 
Q 3622 3509 3622 2328 
Q 3622 1225 3098 567 
Q 2575 -91 1691 -91 
Q 1453 -91 1209 -44 
Q 966 3 703 97 
z
M 1959 2075 
Q 2384 2075 2632 2365 
Q 2881 2656 2881 3163 
Q 2881 3666 2632 3958 
Q 2384 4250 1959 4250 
Q 1534 4250 1286 3958 
Q 1038 3666 1038 3163 
Q 1038 2656 1286 2365 
Q 1534 2075 1959 2075 
z
" id="DejaVuSans-39" transform="scale(0.015625)"/>
       </defs>
       <use xlink:href="#DejaVuSans-32"/>
       <use x="63.623047" xlink:href="#DejaVuSans-30"/>
       <use x="127.246094" xlink:href="#DejaVuSans-32"/>
       <use x="190.869141" xlink:href="#DejaVuSans-30"/>
       <use x="254.492188" xlink:href="#DejaVuSans-2d"/>
       <use x="290.576172" xlink:href="#DejaVuSans-30"/>
       <use x="354.199219" xlink:href="#DejaVuSans-39"/>
      </g>
     </g>
    </g>
    <g id="xtick_2">
     <g id="line2d_2">
      <g>
       <use style="stroke:#000000;stroke-width:0.8;" x="256.996082" xlink:href="#m450caf6e6e" y="230.31386"/>
      </g>
     </g>
     <g id="text_2">
      <!-- 2020-11 -->
      <g transform="translate(259.755457 279.096673)rotate(-90)scale(0.1 -0.1)">
       <defs>
        <path d="M 794 531 
L 1825 531 
L 1825 4091 
L 703 3866 
L 703 4441 
L 1819 4666 
L 2450 4666 
L 2450 531 
L 3481 531 
L 3481 0 
L 794 0 
L 794 531 
z
" id="DejaVuSans-31" transform="scale(0.015625)"/>
       </defs>
       <use xlink:href="#DejaVuSans-32"/>
       <use x="63.623047" xlink:href="#DejaVuSans-30"/>
       <use x="127.246094" xlink:href="#DejaVuSans-32"/>
       <use x="190.869141" xlink:href="#DejaVuSans-30"/>
       <use x="254.492188" xlink:href="#DejaVuSans-2d"/>
       <use x="290.576172" xlink:href="#DejaVuSans-31"/>
       <use x="354.199219" xlink:href="#DejaVuSans-31"/>
      </g>
     </g>
    </g>
    <g id="xtick_3">
     <g id="line2d_3">
      <g>
       <use style="stroke:#000000;stroke-width:0.8;" x="399.429391" xlink:href="#m450caf6e6e" y="230.31386"/>
      </g>
     </g>
     <g id="text_3">
      <!-- 2021-01 -->
      <g transform="translate(402.188766 279.096673)rotate(-90)scale(0.1 -0.1)">
       <use xlink:href="#DejaVuSans-32"/>
       <use x="63.623047" xlink:href="#DejaVuSans-30"/>
       <use x="127.246094" xlink:href="#DejaVuSans-32"/>
       <use x="190.869141" xlink:href="#DejaVuSans-31"/>
       <use x="254.492188" xlink:href="#DejaVuSans-2d"/>
       <use x="290.576172" xlink:href="#DejaVuSans-30"/>
       <use x="354.199219" xlink:href="#DejaVuSans-31"/>
      </g>
     </g>
    </g>
    <g id="xtick_4">
     <g id="line2d_4">
      <g>
       <use style="stroke:#000000;stroke-width:0.8;" x="537.192755" xlink:href="#m450caf6e6e" y="230.31386"/>
      </g>
     </g>
     <g id="text_4">
      <!-- 2021-03 -->
      <g transform="translate(539.95213 279.096673)rotate(-90)scale(0.1 -0.1)">
       <defs>
        <path d="M 2597 2516 
Q 3050 2419 3304 2112 
Q 3559 1806 3559 1356 
Q 3559 666 3084 287 
Q 2609 -91 1734 -91 
Q 1441 -91 1130 -33 
Q 819 25 488 141 
L 488 750 
Q 750 597 1062 519 
Q 1375 441 1716 441 
Q 2309 441 2620 675 
Q 2931 909 2931 1356 
Q 2931 1769 2642 2001 
Q 2353 2234 1838 2234 
L 1294 2234 
L 1294 2753 
L 1863 2753 
Q 2328 2753 2575 2939 
Q 2822 3125 2822 3475 
Q 2822 3834 2567 4026 
Q 2313 4219 1838 4219 
Q 1578 4219 1281 4162 
Q 984 4106 628 3988 
L 628 4550 
Q 988 4650 1302 4700 
Q 1616 4750 1894 4750 
Q 2613 4750 3031 4423 
Q 3450 4097 3450 3541 
Q 3450 3153 3228 2886 
Q 3006 2619 2597 2516 
z
" id="DejaVuSans-33" transform="scale(0.015625)"/>
       </defs>
       <use xlink:href="#DejaVuSans-32"/>
       <use x="63.623047" xlink:href="#DejaVuSans-30"/>
       <use x="127.246094" xlink:href="#DejaVuSans-32"/>
       <use x="190.869141" xlink:href="#DejaVuSans-31"/>
       <use x="254.492188" xlink:href="#DejaVuSans-2d"/>
       <use x="290.576172" xlink:href="#DejaVuSans-30"/>
       <use x="354.199219" xlink:href="#DejaVuSans-33"/>
      </g>
     </g>
    </g>
    <g id="xtick_5">
     <g id="line2d_5">
      <g>
       <use style="stroke:#000000;stroke-width:0.8;" x="679.626064" xlink:href="#m450caf6e6e" y="230.31386"/>
      </g>
     </g>
     <g id="text_5">
      <!-- 2021-05 -->
      <g transform="translate(682.385439 279.096673)rotate(-90)scale(0.1 -0.1)">
       <defs>
        <path d="M 691 4666 
L 3169 4666 
L 3169 4134 
L 1269 4134 
L 1269 2991 
Q 1406 3038 1543 3061 
Q 1681 3084 1819 3084 
Q 2600 3084 3056 2656 
Q 3513 2228 3513 1497 
Q 3513 744 3044 326 
Q 2575 -91 1722 -91 
Q 1428 -91 1123 -41 
Q 819 9 494 109 
L 494 744 
Q 775 591 1075 516 
Q 1375 441 1709 441 
Q 2250 441 2565 725 
Q 2881 1009 2881 1497 
Q 2881 1984 2565 2268 
Q 2250 2553 1709 2553 
Q 1456 2553 1204 2497 
Q 953 2441 691 2322 
L 691 4666 
z
" id="DejaVuSans-35" transform="scale(0.015625)"/>
       </defs>
       <use xlink:href="#DejaVuSans-32"/>
       <use x="63.623047" xlink:href="#DejaVuSans-30"/>
       <use x="127.246094" xlink:href="#DejaVuSans-32"/>
       <use x="190.869141" xlink:href="#DejaVuSans-31"/>
       <use x="254.492188" xlink:href="#DejaVuSans-2d"/>
       <use x="290.576172" xlink:href="#DejaVuSans-30"/>
       <use x="354.199219" xlink:href="#DejaVuSans-35"/>
      </g>
     </g>
    </g>
    <g id="xtick_6">
     <g id="line2d_6">
      <g>
       <use style="stroke:#000000;stroke-width:0.8;" x="822.059373" xlink:href="#m450caf6e6e" y="230.31386"/>
      </g>
     </g>
     <g id="text_6">
      <!-- 2021-07 -->
      <g transform="translate(824.818748 279.096673)rotate(-90)scale(0.1 -0.1)">
       <defs>
        <path d="M 525 4666 
L 3525 4666 
L 3525 4397 
L 1831 0 
L 1172 0 
L 2766 4134 
L 525 4134 
L 525 4666 
z
" id="DejaVuSans-37" transform="scale(0.015625)"/>
       </defs>
       <use xlink:href="#DejaVuSans-32"/>
       <use x="63.623047" xlink:href="#DejaVuSans-30"/>
       <use x="127.246094" xlink:href="#DejaVuSans-32"/>
       <use x="190.869141" xlink:href="#DejaVuSans-31"/>
       <use x="254.492188" xlink:href="#DejaVuSans-2d"/>
       <use x="290.576172" xlink:href="#DejaVuSans-30"/>
       <use x="354.199219" xlink:href="#DejaVuSans-37"/>
      </g>
     </g>
    </g>
    <g id="xtick_7">
     <g id="line2d_7">
      <g>
       <use style="stroke:#000000;stroke-width:0.8;" x="966.827654" xlink:href="#m450caf6e6e" y="230.31386"/>
      </g>
     </g>
     <g id="text_7">
      <!-- 2021-09 -->
      <g transform="translate(969.587029 279.096673)rotate(-90)scale(0.1 -0.1)">
       <use xlink:href="#DejaVuSans-32"/>
       <use x="63.623047" xlink:href="#DejaVuSans-30"/>
       <use x="127.246094" xlink:href="#DejaVuSans-32"/>
       <use x="190.869141" xlink:href="#DejaVuSans-31"/>
       <use x="254.492188" xlink:href="#DejaVuSans-2d"/>
       <use x="290.576172" xlink:href="#DejaVuSans-30"/>
       <use x="354.199219" xlink:href="#DejaVuSans-39"/>
      </g>
     </g>
    </g>
    <g id="xtick_8">
     <g id="line2d_8">
      <g>
       <use style="stroke:#000000;stroke-width:0.8;" x="1109.260963" xlink:href="#m450caf6e6e" y="230.31386"/>
      </g>
     </g>
     <g id="text_8">
      <!-- 2021-11 -->
      <g transform="translate(1112.020338 279.096673)rotate(-90)scale(0.1 -0.1)">
       <use xlink:href="#DejaVuSans-32"/>
       <use x="63.623047" xlink:href="#DejaVuSans-30"/>
       <use x="127.246094" xlink:href="#DejaVuSans-32"/>
       <use x="190.869141" xlink:href="#DejaVuSans-31"/>
       <use x="254.492188" xlink:href="#DejaVuSans-2d"/>
       <use x="290.576172" xlink:href="#DejaVuSans-31"/>
       <use x="354.199219" xlink:href="#DejaVuSans-31"/>
      </g>
     </g>
    </g>
    <g id="text_9">
     <!-- Date -->
     <g transform="translate(599.377344 290.69511)scale(0.1 -0.1)">
      <defs>
       <path d="M 1259 4147 
L 1259 519 
L 2022 519 
Q 2988 519 3436 956 
Q 3884 1394 3884 2338 
Q 3884 3275 3436 3711 
Q 2988 4147 2022 4147 
L 1259 4147 
z
M 628 4666 
L 1925 4666 
Q 3281 4666 3915 4102 
Q 4550 3538 4550 2338 
Q 4550 1131 3912 565 
Q 3275 0 1925 0 
L 628 0 
L 628 4666 
z
" id="DejaVuSans-44" transform="scale(0.015625)"/>
       <path d="M 2194 1759 
Q 1497 1759 1228 1600 
Q 959 1441 959 1056 
Q 959 750 1161 570 
Q 1363 391 1709 391 
Q 2188 391 2477 730 
Q 2766 1069 2766 1631 
L 2766 1759 
L 2194 1759 
z
M 3341 1997 
L 3341 0 
L 2766 0 
L 2766 531 
Q 2569 213 2275 61 
Q 1981 -91 1556 -91 
Q 1019 -91 701 211 
Q 384 513 384 1019 
Q 384 1609 779 1909 
Q 1175 2209 1959 2209 
L 2766 2209 
L 2766 2266 
Q 2766 2663 2505 2880 
Q 2244 3097 1772 3097 
Q 1472 3097 1187 3025 
Q 903 2953 641 2809 
L 641 3341 
Q 956 3463 1253 3523 
Q 1550 3584 1831 3584 
Q 2591 3584 2966 3190 
Q 3341 2797 3341 1997 
z
" id="DejaVuSans-61" transform="scale(0.015625)"/>
       <path d="M 1172 4494 
L 1172 3500 
L 2356 3500 
L 2356 3053 
L 1172 3053 
L 1172 1153 
Q 1172 725 1289 603 
Q 1406 481 1766 481 
L 2356 481 
L 2356 0 
L 1766 0 
Q 1100 0 847 248 
Q 594 497 594 1153 
L 594 3053 
L 172 3053 
L 172 3500 
L 594 3500 
L 594 4494 
L 1172 4494 
z
" id="DejaVuSans-74" transform="scale(0.015625)"/>
       <path d="M 3597 1894 
L 3597 1613 
L 953 1613 
Q 991 1019 1311 708 
Q 1631 397 2203 397 
Q 2534 397 2845 478 
Q 3156 559 3463 722 
L 3463 178 
Q 3153 47 2828 -22 
Q 2503 -91 2169 -91 
Q 1331 -91 842 396 
Q 353 884 353 1716 
Q 353 2575 817 3079 
Q 1281 3584 2069 3584 
Q 2775 3584 3186 3129 
Q 3597 2675 3597 1894 
z
M 3022 2063 
Q 3016 2534 2758 2815 
Q 2500 3097 2075 3097 
Q 1594 3097 1305 2825 
Q 1016 2553 972 2059 
L 3022 2063 
z
" id="DejaVuSans-65" transform="scale(0.015625)"/>
      </defs>
      <use xlink:href="#DejaVuSans-44"/>
      <use x="77.001953" xlink:href="#DejaVuSans-61"/>
      <use x="138.28125" xlink:href="#DejaVuSans-74"/>
      <use x="177.490234" xlink:href="#DejaVuSans-65"/>
     </g>
    </g>
   </g>
   <g id="matplotlib.axis_2">
    <g id="ytick_1">
     <g id="line2d_9">
      <defs>
       <path d="M 0 0 
L -3.5 0 
" id="m22aae82059" style="stroke:#000000;stroke-width:0.8;"/>
      </defs>
      <g>
       <use style="stroke:#000000;stroke-width:0.8;" x="53.328125" xlink:href="#m22aae82059" y="230.31386"/>
      </g>
     </g>
     <g id="text_10">
      <!-- 0 -->
      <g transform="translate(39.965625 234.113079)scale(0.1 -0.1)">
       <use xlink:href="#DejaVuSans-30"/>
      </g>
     </g>
    </g>
    <g id="ytick_2">
     <g id="line2d_10">
      <g>
       <use style="stroke:#000000;stroke-width:0.8;" x="53.328125" xlink:href="#m22aae82059" y="202.89953"/>
      </g>
     </g>
     <g id="text_11">
      <!-- 250 -->
      <g transform="translate(27.240625 206.698749)scale(0.1 -0.1)">
       <use xlink:href="#DejaVuSans-32"/>
       <use x="63.623047" xlink:href="#DejaVuSans-35"/>
       <use x="127.246094" xlink:href="#DejaVuSans-30"/>
      </g>
     </g>
    </g>
    <g id="ytick_3">
     <g id="line2d_11">
      <g>
       <use style="stroke:#000000;stroke-width:0.8;" x="53.328125" xlink:href="#m22aae82059" y="175.4852"/>
      </g>
     </g>
     <g id="text_12">
      <!-- 500 -->
      <g transform="translate(27.240625 179.284419)scale(0.1 -0.1)">
       <use xlink:href="#DejaVuSans-35"/>
       <use x="63.623047" xlink:href="#DejaVuSans-30"/>
       <use x="127.246094" xlink:href="#DejaVuSans-30"/>
      </g>
     </g>
    </g>
    <g id="ytick_4">
     <g id="line2d_12">
      <g>
       <use style="stroke:#000000;stroke-width:0.8;" x="53.328125" xlink:href="#m22aae82059" y="148.07087"/>
      </g>
     </g>
     <g id="text_13">
      <!-- 750 -->
      <g transform="translate(27.240625 151.870089)scale(0.1 -0.1)">
       <use xlink:href="#DejaVuSans-37"/>
       <use x="63.623047" xlink:href="#DejaVuSans-35"/>
       <use x="127.246094" xlink:href="#DejaVuSans-30"/>
      </g>
     </g>
    </g>
    <g id="ytick_5">
     <g id="line2d_13">
      <g>
       <use style="stroke:#000000;stroke-width:0.8;" x="53.328125" xlink:href="#m22aae82059" y="120.65654"/>
      </g>
     </g>
     <g id="text_14">
      <!-- 1000 -->
      <g transform="translate(20.878125 124.455758)scale(0.1 -0.1)">
       <use xlink:href="#DejaVuSans-31"/>
       <use x="63.623047" xlink:href="#DejaVuSans-30"/>
       <use x="127.246094" xlink:href="#DejaVuSans-30"/>
       <use x="190.869141" xlink:href="#DejaVuSans-30"/>
      </g>
     </g>
    </g>
    <g id="ytick_6">
     <g id="line2d_14">
      <g>
       <use style="stroke:#000000;stroke-width:0.8;" x="53.328125" xlink:href="#m22aae82059" y="93.242209"/>
      </g>
     </g>
     <g id="text_15">
      <!-- 1250 -->
      <g transform="translate(20.878125 97.041428)scale(0.1 -0.1)">
       <use xlink:href="#DejaVuSans-31"/>
       <use x="63.623047" xlink:href="#DejaVuSans-32"/>
       <use x="127.246094" xlink:href="#DejaVuSans-35"/>
       <use x="190.869141" xlink:href="#DejaVuSans-30"/>
      </g>
     </g>
    </g>
    <g id="ytick_7">
     <g id="line2d_15">
      <g>
       <use style="stroke:#000000;stroke-width:0.8;" x="53.328125" xlink:href="#m22aae82059" y="65.827879"/>
      </g>
     </g>
     <g id="text_16">
      <!-- 1500 -->
      <g transform="translate(20.878125 69.627098)scale(0.1 -0.1)">
       <use xlink:href="#DejaVuSans-31"/>
       <use x="63.623047" xlink:href="#DejaVuSans-35"/>
       <use x="127.246094" xlink:href="#DejaVuSans-30"/>
       <use x="190.869141" xlink:href="#DejaVuSans-30"/>
      </g>
     </g>
    </g>
    <g id="ytick_8">
     <g id="line2d_16">
      <g>
       <use style="stroke:#000000;stroke-width:0.8;" x="53.328125" xlink:href="#m22aae82059" y="38.413549"/>
      </g>
     </g>
     <g id="text_17">
      <!-- 1750 -->
      <g transform="translate(20.878125 42.212768)scale(0.1 -0.1)">
       <use xlink:href="#DejaVuSans-31"/>
       <use x="63.623047" xlink:href="#DejaVuSans-37"/>
       <use x="127.246094" xlink:href="#DejaVuSans-35"/>
       <use x="190.869141" xlink:href="#DejaVuSans-30"/>
      </g>
     </g>
    </g>
    <g id="ytick_9">
     <g id="line2d_17">
      <g>
       <use style="stroke:#000000;stroke-width:0.8;" x="53.328125" xlink:href="#m22aae82059" y="10.999219"/>
      </g>
     </g>
     <g id="text_18">
      <!-- 2000 -->
      <g transform="translate(20.878125 14.798437)scale(0.1 -0.1)">
       <use xlink:href="#DejaVuSans-32"/>
       <use x="63.623047" xlink:href="#DejaVuSans-30"/>
       <use x="127.246094" xlink:href="#DejaVuSans-30"/>
       <use x="190.869141" xlink:href="#DejaVuSans-30"/>
      </g>
     </g>
    </g>
    <g id="text_19">
     <!-- Sequence count -->
     <g transform="translate(14.798437 159.794017)rotate(-90)scale(0.1 -0.1)">
      <defs>
       <path d="M 3425 4513 
L 3425 3897 
Q 3066 4069 2747 4153 
Q 2428 4238 2131 4238 
Q 1616 4238 1336 4038 
Q 1056 3838 1056 3469 
Q 1056 3159 1242 3001 
Q 1428 2844 1947 2747 
L 2328 2669 
Q 3034 2534 3370 2195 
Q 3706 1856 3706 1288 
Q 3706 609 3251 259 
Q 2797 -91 1919 -91 
Q 1588 -91 1214 -16 
Q 841 59 441 206 
L 441 856 
Q 825 641 1194 531 
Q 1563 422 1919 422 
Q 2459 422 2753 634 
Q 3047 847 3047 1241 
Q 3047 1584 2836 1778 
Q 2625 1972 2144 2069 
L 1759 2144 
Q 1053 2284 737 2584 
Q 422 2884 422 3419 
Q 422 4038 858 4394 
Q 1294 4750 2059 4750 
Q 2388 4750 2728 4690 
Q 3069 4631 3425 4513 
z
" id="DejaVuSans-53" transform="scale(0.015625)"/>
       <path d="M 947 1747 
Q 947 1113 1208 752 
Q 1469 391 1925 391 
Q 2381 391 2643 752 
Q 2906 1113 2906 1747 
Q 2906 2381 2643 2742 
Q 2381 3103 1925 3103 
Q 1469 3103 1208 2742 
Q 947 2381 947 1747 
z
M 2906 525 
Q 2725 213 2448 61 
Q 2172 -91 1784 -91 
Q 1150 -91 751 415 
Q 353 922 353 1747 
Q 353 2572 751 3078 
Q 1150 3584 1784 3584 
Q 2172 3584 2448 3432 
Q 2725 3281 2906 2969 
L 2906 3500 
L 3481 3500 
L 3481 -1331 
L 2906 -1331 
L 2906 525 
z
" id="DejaVuSans-71" transform="scale(0.015625)"/>
       <path d="M 544 1381 
L 544 3500 
L 1119 3500 
L 1119 1403 
Q 1119 906 1312 657 
Q 1506 409 1894 409 
Q 2359 409 2629 706 
Q 2900 1003 2900 1516 
L 2900 3500 
L 3475 3500 
L 3475 0 
L 2900 0 
L 2900 538 
Q 2691 219 2414 64 
Q 2138 -91 1772 -91 
Q 1169 -91 856 284 
Q 544 659 544 1381 
z
M 1991 3584 
L 1991 3584 
z
" id="DejaVuSans-75" transform="scale(0.015625)"/>
       <path d="M 3513 2113 
L 3513 0 
L 2938 0 
L 2938 2094 
Q 2938 2591 2744 2837 
Q 2550 3084 2163 3084 
Q 1697 3084 1428 2787 
Q 1159 2491 1159 1978 
L 1159 0 
L 581 0 
L 581 3500 
L 1159 3500 
L 1159 2956 
Q 1366 3272 1645 3428 
Q 1925 3584 2291 3584 
Q 2894 3584 3203 3211 
Q 3513 2838 3513 2113 
z
" id="DejaVuSans-6e" transform="scale(0.015625)"/>
       <path d="M 3122 3366 
L 3122 2828 
Q 2878 2963 2633 3030 
Q 2388 3097 2138 3097 
Q 1578 3097 1268 2742 
Q 959 2388 959 1747 
Q 959 1106 1268 751 
Q 1578 397 2138 397 
Q 2388 397 2633 464 
Q 2878 531 3122 666 
L 3122 134 
Q 2881 22 2623 -34 
Q 2366 -91 2075 -91 
Q 1284 -91 818 406 
Q 353 903 353 1747 
Q 353 2603 823 3093 
Q 1294 3584 2113 3584 
Q 2378 3584 2631 3529 
Q 2884 3475 3122 3366 
z
" id="DejaVuSans-63" transform="scale(0.015625)"/>
       <path id="DejaVuSans-20" transform="scale(0.015625)"/>
       <path d="M 1959 3097 
Q 1497 3097 1228 2736 
Q 959 2375 959 1747 
Q 959 1119 1226 758 
Q 1494 397 1959 397 
Q 2419 397 2687 759 
Q 2956 1122 2956 1747 
Q 2956 2369 2687 2733 
Q 2419 3097 1959 3097 
z
M 1959 3584 
Q 2709 3584 3137 3096 
Q 3566 2609 3566 1747 
Q 3566 888 3137 398 
Q 2709 -91 1959 -91 
Q 1206 -91 779 398 
Q 353 888 353 1747 
Q 353 2609 779 3096 
Q 1206 3584 1959 3584 
z
" id="DejaVuSans-6f" transform="scale(0.015625)"/>
      </defs>
      <use xlink:href="#DejaVuSans-53"/>
      <use x="63.476562" xlink:href="#DejaVuSans-65"/>
      <use x="125" xlink:href="#DejaVuSans-71"/>
      <use x="188.476562" xlink:href="#DejaVuSans-75"/>
      <use x="251.855469" xlink:href="#DejaVuSans-65"/>
      <use x="313.378906" xlink:href="#DejaVuSans-6e"/>
      <use x="376.757812" xlink:href="#DejaVuSans-63"/>
      <use x="431.738281" xlink:href="#DejaVuSans-65"/>
      <use x="493.261719" xlink:href="#DejaVuSans-20"/>
      <use x="525.048828" xlink:href="#DejaVuSans-63"/>
      <use x="580.029297" xlink:href="#DejaVuSans-6f"/>
      <use x="641.210938" xlink:href="#DejaVuSans-75"/>
      <use x="704.589844" xlink:href="#DejaVuSans-6e"/>
      <use x="767.96875" xlink:href="#DejaVuSans-74"/>
     </g>
    </g>
   </g>
   <g id="patch_65">
    <path d="M 53.328125 230.31386 
L 53.328125 8.55386 
" style="fill:none;stroke:#000000;stroke-linecap:square;stroke-linejoin:miter;stroke-width:0.8;"/>
   </g>
   <g id="patch_66">
    <path d="M 1169.328125 230.31386 
L 1169.328125 8.55386 
" style="fill:none;stroke:#000000;stroke-linecap:square;stroke-linejoin:miter;stroke-width:0.8;"/>
   </g>
   <g id="patch_67">
    <path d="M 53.328125 230.31386 
L 1169.328125 230.31386 
" style="fill:none;stroke:#000000;stroke-linecap:square;stroke-linejoin:miter;stroke-width:0.8;"/>
   </g>
  </g>
  <g id="axes_2">
   <g id="matplotlib.axis_3">
    <g id="ytick_10">
     <g id="line2d_18">
      <defs>
       <path d="M 0 0 
L 3.5 0 
" id="mf6e7232513" style="stroke:#000000;stroke-width:0.8;"/>
      </defs>
      <g>
       <use style="stroke:#000000;stroke-width:0.8;" x="1169.328125" xlink:href="#mf6e7232513" y="220.272851"/>
      </g>
     </g>
     <g id="text_20">
      <!-- 0 -->
      <g transform="translate(1176.328125 224.07207)scale(0.1 -0.1)">
       <use xlink:href="#DejaVuSans-30"/>
      </g>
     </g>
    </g>
    <g id="ytick_11">
     <g id="line2d_19">
      <g>
       <use style="stroke:#000000;stroke-width:0.8;" x="1169.328125" xlink:href="#mf6e7232513" y="187.780829"/>
      </g>
     </g>
     <g id="text_21">
      <!-- 5000 -->
      <g transform="translate(1176.328125 191.580048)scale(0.1 -0.1)">
       <use xlink:href="#DejaVuSans-35"/>
       <use x="63.623047" xlink:href="#DejaVuSans-30"/>
       <use x="127.246094" xlink:href="#DejaVuSans-30"/>
       <use x="190.869141" xlink:href="#DejaVuSans-30"/>
      </g>
     </g>
    </g>
    <g id="ytick_12">
     <g id="line2d_20">
      <g>
       <use style="stroke:#000000;stroke-width:0.8;" x="1169.328125" xlink:href="#mf6e7232513" y="155.288807"/>
      </g>
     </g>
     <g id="text_22">
      <!-- 10000 -->
      <g transform="translate(1176.328125 159.088026)scale(0.1 -0.1)">
       <use xlink:href="#DejaVuSans-31"/>
       <use x="63.623047" xlink:href="#DejaVuSans-30"/>
       <use x="127.246094" xlink:href="#DejaVuSans-30"/>
       <use x="190.869141" xlink:href="#DejaVuSans-30"/>
       <use x="254.492188" xlink:href="#DejaVuSans-30"/>
      </g>
     </g>
    </g>
    <g id="ytick_13">
     <g id="line2d_21">
      <g>
       <use style="stroke:#000000;stroke-width:0.8;" x="1169.328125" xlink:href="#mf6e7232513" y="122.796785"/>
      </g>
     </g>
     <g id="text_23">
      <!-- 15000 -->
      <g transform="translate(1176.328125 126.596004)scale(0.1 -0.1)">
       <use xlink:href="#DejaVuSans-31"/>
       <use x="63.623047" xlink:href="#DejaVuSans-35"/>
       <use x="127.246094" xlink:href="#DejaVuSans-30"/>
       <use x="190.869141" xlink:href="#DejaVuSans-30"/>
       <use x="254.492188" xlink:href="#DejaVuSans-30"/>
      </g>
     </g>
    </g>
    <g id="ytick_14">
     <g id="line2d_22">
      <g>
       <use style="stroke:#000000;stroke-width:0.8;" x="1169.328125" xlink:href="#mf6e7232513" y="90.304763"/>
      </g>
     </g>
     <g id="text_24">
      <!-- 20000 -->
      <g transform="translate(1176.328125 94.103981)scale(0.1 -0.1)">
       <use xlink:href="#DejaVuSans-32"/>
       <use x="63.623047" xlink:href="#DejaVuSans-30"/>
       <use x="127.246094" xlink:href="#DejaVuSans-30"/>
       <use x="190.869141" xlink:href="#DejaVuSans-30"/>
       <use x="254.492188" xlink:href="#DejaVuSans-30"/>
      </g>
     </g>
    </g>
    <g id="ytick_15">
     <g id="line2d_23">
      <g>
       <use style="stroke:#000000;stroke-width:0.8;" x="1169.328125" xlink:href="#mf6e7232513" y="57.812741"/>
      </g>
     </g>
     <g id="text_25">
      <!-- 25000 -->
      <g transform="translate(1176.328125 61.611959)scale(0.1 -0.1)">
       <use xlink:href="#DejaVuSans-32"/>
       <use x="63.623047" xlink:href="#DejaVuSans-35"/>
       <use x="127.246094" xlink:href="#DejaVuSans-30"/>
       <use x="190.869141" xlink:href="#DejaVuSans-30"/>
       <use x="254.492188" xlink:href="#DejaVuSans-30"/>
      </g>
     </g>
    </g>
    <g id="ytick_16">
     <g id="line2d_24">
      <g>
       <use style="stroke:#000000;stroke-width:0.8;" x="1169.328125" xlink:href="#mf6e7232513" y="25.320719"/>
      </g>
     </g>
     <g id="text_26">
      <!-- 30000 -->
      <g transform="translate(1176.328125 29.119937)scale(0.1 -0.1)">
       <use xlink:href="#DejaVuSans-33"/>
       <use x="63.623047" xlink:href="#DejaVuSans-30"/>
       <use x="127.246094" xlink:href="#DejaVuSans-30"/>
       <use x="190.869141" xlink:href="#DejaVuSans-30"/>
       <use x="254.492188" xlink:href="#DejaVuSans-30"/>
      </g>
     </g>
    </g>
    <g id="text_27">
     <!-- Total -->
     <g transform="translate(1219.739063 131.110423)rotate(-90)scale(0.1 -0.1)">
      <defs>
       <path d="M -19 4666 
L 3928 4666 
L 3928 4134 
L 2272 4134 
L 2272 0 
L 1638 0 
L 1638 4134 
L -19 4134 
L -19 4666 
z
" id="DejaVuSans-54" transform="scale(0.015625)"/>
       <path d="M 603 4863 
L 1178 4863 
L 1178 0 
L 603 0 
L 603 4863 
z
" id="DejaVuSans-6c" transform="scale(0.015625)"/>
      </defs>
      <use xlink:href="#DejaVuSans-54"/>
      <use x="44.083984" xlink:href="#DejaVuSans-6f"/>
      <use x="105.265625" xlink:href="#DejaVuSans-74"/>
      <use x="144.474609" xlink:href="#DejaVuSans-61"/>
      <use x="205.753906" xlink:href="#DejaVuSans-6c"/>
     </g>
    </g>
   </g>
   <g id="line2d_25">
    <path clip-path="url(#p295de883af)" d="M 114.562773 220.23386 
L 147.252385 219.947931 
L 163.597191 219.733483 
L 219.636525 219.220109 
L 228.976415 219.116135 
L 256.996082 218.310333 
L 261.666026 218.011406 
L 271.005916 217.569515 
L 278.010832 217.491534 
L 289.685694 216.984658 
L 294.355638 216.880684 
L 301.360555 216.178856 
L 308.365472 215.931917 
L 310.700444 215.516019 
L 313.035417 215.30807 
L 324.710278 214.905169 
L 327.04525 214.625737 
L 338.720112 213.9629 
L 341.055084 213.592491 
L 343.390056 213.436529 
L 348.060001 212.877667 
L 352.729945 212.637226 
L 355.064918 212.591737 
L 359.734862 211.779436 
L 362.069834 211.655967 
L 369.074751 210.921647 
L 371.409723 210.804676 
L 373.744696 210.180829 
L 378.41464 209.407519 
L 380.749613 208.985122 
L 387.754529 208.419761 
L 392.424474 206.853646 
L 397.094419 206.02185 
L 399.429391 205.839895 
L 401.764363 205.495479 
L 404.099335 205.268035 
L 406.434308 203.812393 
L 408.76928 202.876622 
L 411.104252 202.116309 
L 413.439224 201.693913 
L 415.774197 201.128552 
L 420.444141 200.433222 
L 427.449058 197.411464 
L 429.78403 196.57317 
L 434.453975 195.539924 
L 436.788947 195.31248 
L 439.12392 194.669138 
L 441.458892 193.551412 
L 448.463809 191.660376 
L 450.798781 191.445929 
L 453.133753 191.088517 
L 462.473642 187.748337 
L 464.808615 187.020516 
L 467.143587 186.611116 
L 469.478559 186.403167 
L 471.813531 185.538879 
L 474.148504 184.336675 
L 476.483476 183.33592 
L 478.818448 182.718572 
L 481.153421 181.906271 
L 485.823365 181.288923 
L 488.158337 179.813785 
L 490.49331 178.839024 
L 492.828282 177.994232 
L 495.163254 176.408621 
L 497.498226 175.505343 
L 499.833199 175.004966 
L 502.168171 174.738531 
L 504.503143 173.347873 
L 506.838116 172.17816 
L 513.843032 169.28637 
L 518.512977 168.311609 
L 520.847949 166.700005 
L 523.182922 165.582279 
L 525.517894 164.230611 
L 527.852866 163.080394 
L 530.187838 161.800208 
L 534.857783 160.825447 
L 537.192755 158.771952 
L 541.8627 155.23682 
L 546.532644 152.99487 
L 551.202589 151.77317 
L 553.537561 149.427246 
L 555.872533 147.503718 
L 560.542478 144.007577 
L 562.87745 142.077551 
L 565.212423 140.920835 
L 567.547395 140.147525 
L 569.882367 137.827594 
L 572.217339 135.202239 
L 579.222256 129.542129 
L 581.557228 128.404908 
L 583.892201 127.521125 
L 586.227173 125.012741 
L 588.562145 122.725302 
L 593.23209 118.748279 
L 595.567062 117.292636 
L 597.902034 116.441345 
L 600.237007 115.746016 
L 604.906951 110.118398 
L 607.241924 108.292346 
L 609.576896 106.667745 
L 614.24684 103.944914 
L 616.581813 103.015642 
L 625.921702 96.614713 
L 628.256674 95.230553 
L 630.591646 94.197307 
L 632.926619 93.339518 
L 637.596563 89.252021 
L 639.931535 87.796379 
L 644.60148 85.313988 
L 646.936452 84.228755 
L 649.271425 83.695885 
L 651.606397 81.928319 
L 656.276341 79.121009 
L 658.611314 77.990286 
L 660.946286 76.723098 
L 665.61623 75.104995 
L 667.951203 73.161972 
L 670.286175 71.400904 
L 672.621147 70.094725 
L 677.291092 67.852775 
L 681.961036 66.533599 
L 684.296009 64.785529 
L 686.630981 63.284397 
L 688.965953 61.945726 
L 693.635898 59.885732 
L 695.97087 59.112422 
L 698.305842 58.638038 
L 705.310759 55.187385 
L 709.980704 53.738241 
L 712.315676 53.218369 
L 714.650648 52.860957 
L 716.985621 51.814713 
L 721.655565 50.11863 
L 726.32551 48.831946 
L 730.995454 48.234093 
L 733.330426 47.525766 
L 735.665399 46.518514 
L 738.000371 45.972648 
L 742.670316 44.562494 
L 745.005288 44.166091 
L 747.34026 43.964641 
L 752.010205 42.392027 
L 756.680149 41.170327 
L 759.015122 40.429509 
L 761.350094 39.955125 
L 763.685066 39.643202 
L 768.355011 37.921125 
L 775.359927 36.725418 
L 780.029872 36.277028 
L 782.364844 35.653182 
L 791.704733 33.671168 
L 796.374678 33.274766 
L 798.70965 32.611928 
L 801.044623 31.780133 
L 808.049539 30.214017 
L 812.719484 29.629161 
L 815.054456 29.128784 
L 817.389428 28.446451 
L 822.059373 27.627652 
L 826.729318 27.081786 
L 829.06429 26.990809 
L 831.399262 26.711377 
L 833.734234 26.185006 
L 847.744068 24.37845 
L 850.07904 23.709114 
L 852.414013 23.475172 
L 854.748985 23.358201 
L 857.083957 23.078769 
L 861.753902 22.968296 
L 873.428763 21.857069 
L 878.098708 21.714104 
L 892.108541 20.771836 
L 894.443514 20.75234 
L 896.778486 20.615874 
L 899.113458 20.342941 
L 922.463181 19.680104 
L 929.468098 19.628116 
L 934.138042 19.478653 
L 941.142959 19.394174 
L 964.492682 19.231714 
L 976.167543 19.147234 
L 1046.216712 18.854806 
L 1055.556601 18.71834 
L 1118.600852 18.63386 
L 1118.600852 18.63386 
" style="fill:none;stroke:#696969;stroke-linecap:square;stroke-width:3;"/>
   </g>
   <g id="patch_68">
    <path d="M 53.328125 230.31386 
L 53.328125 8.55386 
" style="fill:none;stroke:#000000;stroke-linecap:square;stroke-linejoin:miter;stroke-width:0.8;"/>
   </g>
   <g id="patch_69">
    <path d="M 1169.328125 230.31386 
L 1169.328125 8.55386 
" style="fill:none;stroke:#000000;stroke-linecap:square;stroke-linejoin:miter;stroke-width:0.8;"/>
   </g>
   <g id="patch_70">
    <path d="M 53.328125 230.31386 
L 1169.328125 230.31386 
" style="fill:none;stroke:#000000;stroke-linecap:square;stroke-linejoin:miter;stroke-width:0.8;"/>
   </g>
  </g>
 </g>
 <defs>
  <clipPath id="p295de883af">
   <rect height="221.76" width="1116" x="53.328125" y="8.55386"/>
  </clipPath>
 </defs>
</svg>
