<?xml version="1.0" encoding="utf-8" standalone="no"?>
<!DOCTYPE svg PUBLIC "-//W3C//DTD SVG 1.1//EN"
  "http://www.w3.org/Graphics/SVG/1.1/DTD/svg11.dtd">
<svg xmlns:xlink="http://www.w3.org/1999/xlink" width="1219.471875pt" height="309.219375pt" viewBox="0 0 1219.471875 309.219375" xmlns="http://www.w3.org/2000/svg" version="1.1">
 <metadata>
  <rdf:RDF xmlns:dc="http://purl.org/dc/elements/1.1/" xmlns:cc="http://creativecommons.org/ns#" xmlns:rdf="http://www.w3.org/1999/02/22-rdf-syntax-ns#">
   <cc:Work>
    <dc:type rdf:resource="http://purl.org/dc/dcmitype/StillImage"/>
    <dc:date>2022-07-18T18:59:16.809577</dc:date>
    <dc:format>image/svg+xml</dc:format>
    <dc:creator>
     <cc:Agent>
      <dc:title>Matplotlib v3.5.1, https://matplotlib.org/</dc:title>
     </cc:Agent>
    </dc:creator>
   </cc:Work>
  </rdf:RDF>
 </metadata>
 <defs>
  <style type="text/css">*{stroke-linejoin: round; stroke-linecap: butt}</style>
 </defs>
 <g id="figure_1">
  <g id="patch_1">
   <path d="M 0 309.219375 
L 1219.471875 309.219375 
L 1219.471875 0 
L 0 0 
z
" style="fill: #ffffff"/>
  </g>
  <g id="axes_1">
   <g id="patch_2">
    <path d="M 59.690625 239.558438 
L 1175.690625 239.558438 
L 1175.690625 17.798437 
L 59.690625 17.798437 
z
" style="fill: #ffffff"/>
   </g>
   <g id="patch_3">
    <path d="M 110.417898 239.558438 
L 118.234118 239.558438 
L 118.234118 239.549769 
L 110.417898 239.549769 
z
" clip-path="url(#pfed7fcfcd4)" style="fill: #86b0a6"/>
   </g>
   <g id="patch_4">
    <path d="M 121.360607 239.558438 
L 129.176828 239.558438 
L 129.176828 239.552658 
L 121.360607 239.552658 
z
" clip-path="url(#pfed7fcfcd4)" style="fill: #86b0a6"/>
   </g>
   <g id="patch_5">
    <path d="M 132.303316 239.558438 
L 140.119537 239.558438 
L 140.119537 239.555548 
L 132.303316 239.555548 
z
" clip-path="url(#pfed7fcfcd4)" style="fill: #86b0a6"/>
   </g>
   <g id="patch_6">
    <path d="M 143.246025 239.558438 
L 151.062246 239.558438 
L 151.062246 239.543989 
L 143.246025 239.543989 
z
" clip-path="url(#pfed7fcfcd4)" style="fill: #86b0a6"/>
   </g>
   <g id="patch_7">
    <path d="M 154.188734 239.558438 
L 162.004955 239.558438 
L 162.004955 239.520872 
L 154.188734 239.520872 
z
" clip-path="url(#pfed7fcfcd4)" style="fill: #86b0a6"/>
   </g>
   <g id="patch_8">
    <path d="M 165.131443 239.558438 
L 172.947664 239.558438 
L 172.947664 239.5411 
L 165.131443 239.5411 
z
" clip-path="url(#pfed7fcfcd4)" style="fill: #86b0a6"/>
   </g>
   <g id="patch_9">
    <path d="M 176.074152 239.558438 
L 183.890373 239.558438 
L 183.890373 239.532431 
L 176.074152 239.532431 
z
" clip-path="url(#pfed7fcfcd4)" style="fill: #86b0a6"/>
   </g>
   <g id="patch_10">
    <path d="M 187.016861 239.558438 
L 194.833082 239.558438 
L 194.833082 239.46019 
L 187.016861 239.46019 
z
" clip-path="url(#pfed7fcfcd4)" style="fill: #86b0a6"/>
   </g>
   <g id="patch_11">
    <path d="M 197.95957 239.558438 
L 205.775791 239.558438 
L 205.775791 239.439963 
L 197.95957 239.439963 
z
" clip-path="url(#pfed7fcfcd4)" style="fill: #86b0a6"/>
   </g>
   <g id="patch_12">
    <path d="M 208.902279 239.558438 
L 216.7185 239.558438 
L 216.7185 238.911161 
L 208.902279 238.911161 
z
" clip-path="url(#pfed7fcfcd4)" style="fill: #86b0a6"/>
   </g>
   <g id="patch_13">
    <path d="M 219.844988 239.558438 
L 227.661209 239.558438 
L 227.661209 237.541477 
L 219.844988 237.541477 
z
" clip-path="url(#pfed7fcfcd4)" style="fill: #86b0a6"/>
   </g>
   <g id="patch_14">
    <path d="M 230.787697 239.558438 
L 238.603918 239.558438 
L 238.603918 237.931577 
L 230.787697 237.931577 
z
" clip-path="url(#pfed7fcfcd4)" style="fill: #86b0a6"/>
   </g>
   <g id="patch_15">
    <path d="M 241.730406 239.558438 
L 249.546627 239.558438 
L 249.546627 237.567484 
L 241.730406 237.567484 
z
" clip-path="url(#pfed7fcfcd4)" style="fill: #86b0a6"/>
   </g>
   <g id="patch_16">
    <path d="M 252.673116 239.558438 
L 260.489336 239.558438 
L 260.489336 237.821771 
L 252.673116 237.821771 
z
" clip-path="url(#pfed7fcfcd4)" style="fill: #86b0a6"/>
   </g>
   <g id="patch_17">
    <path d="M 263.615825 239.558438 
L 271.432045 239.558438 
L 271.432045 231.811346 
L 263.615825 231.811346 
z
" clip-path="url(#pfed7fcfcd4)" style="fill: #86b0a6"/>
   </g>
   <g id="patch_18">
    <path d="M 274.558534 239.558438 
L 282.374754 239.558438 
L 282.374754 223.038436 
L 274.558534 223.038436 
z
" clip-path="url(#pfed7fcfcd4)" style="fill: #86b0a6"/>
   </g>
   <g id="patch_19">
    <path d="M 285.501243 239.558438 
L 293.317463 239.558438 
L 293.317463 226.442417 
L 285.501243 226.442417 
z
" clip-path="url(#pfed7fcfcd4)" style="fill: #86b0a6"/>
   </g>
   <g id="patch_20">
    <path d="M 296.443952 239.558438 
L 304.260173 239.558438 
L 304.260173 216.164012 
L 296.443952 216.164012 
z
" clip-path="url(#pfed7fcfcd4)" style="fill: #86b0a6"/>
   </g>
   <g id="patch_21">
    <path d="M 307.386661 239.558438 
L 315.202882 239.558438 
L 315.202882 205.746904 
L 307.386661 205.746904 
z
" clip-path="url(#pfed7fcfcd4)" style="fill: #86b0a6"/>
   </g>
   <g id="patch_22">
    <path d="M 318.32937 239.558438 
L 326.145591 239.558438 
L 326.145591 195.436712 
L 318.32937 195.436712 
z
" clip-path="url(#pfed7fcfcd4)" style="fill: #86b0a6"/>
   </g>
   <g id="patch_23">
    <path d="M 329.272079 239.558438 
L 337.0883 239.558438 
L 337.0883 189.94353 
L 329.272079 189.94353 
z
" clip-path="url(#pfed7fcfcd4)" style="fill: #86b0a6"/>
   </g>
   <g id="patch_24">
    <path d="M 340.214788 239.558438 
L 348.031009 239.558438 
L 348.031009 166.196569 
L 340.214788 166.196569 
z
" clip-path="url(#pfed7fcfcd4)" style="fill: #86b0a6"/>
   </g>
   <g id="patch_25">
    <path d="M 351.157497 239.558438 
L 358.973718 239.558438 
L 358.973718 177.625047 
L 351.157497 177.625047 
z
" clip-path="url(#pfed7fcfcd4)" style="fill: #86b0a6"/>
   </g>
   <g id="patch_26">
    <path d="M 362.100206 239.558438 
L 369.916427 239.558438 
L 369.916427 159.244125 
L 362.100206 159.244125 
z
" clip-path="url(#pfed7fcfcd4)" style="fill: #86b0a6"/>
   </g>
   <g id="patch_27">
    <path d="M 373.042915 239.558438 
L 380.859136 239.558438 
L 380.859136 144.590823 
L 373.042915 144.590823 
z
" clip-path="url(#pfed7fcfcd4)" style="fill: #86b0a6"/>
   </g>
   <g id="patch_28">
    <path d="M 383.985624 239.558438 
L 391.801845 239.558438 
L 391.801845 126.357272 
L 383.985624 126.357272 
z
" clip-path="url(#pfed7fcfcd4)" style="fill: #86b0a6"/>
   </g>
   <g id="patch_29">
    <path d="M 394.928333 239.558438 
L 402.744554 239.558438 
L 402.744554 112.507286 
L 394.928333 112.507286 
z
" clip-path="url(#pfed7fcfcd4)" style="fill: #86b0a6"/>
   </g>
   <g id="patch_30">
    <path d="M 405.871042 239.558438 
L 413.687263 239.558438 
L 413.687263 82.111292 
L 405.871042 82.111292 
z
" clip-path="url(#pfed7fcfcd4)" style="fill: #86b0a6"/>
   </g>
   <g id="patch_31">
    <path d="M 416.813751 239.558438 
L 424.629972 239.558438 
L 424.629972 58.095596 
L 416.813751 58.095596 
z
" clip-path="url(#pfed7fcfcd4)" style="fill: #86b0a6"/>
   </g>
   <g id="patch_32">
    <path d="M 427.756461 239.558438 
L 435.572681 239.558438 
L 435.572681 41.451341 
L 427.756461 41.451341 
z
" clip-path="url(#pfed7fcfcd4)" style="fill: #86b0a6"/>
   </g>
   <g id="patch_33">
    <path d="M 438.69917 239.558438 
L 446.51539 239.558438 
L 446.51539 43.664796 
L 438.69917 43.664796 
z
" clip-path="url(#pfed7fcfcd4)" style="fill: #86b0a6"/>
   </g>
   <g id="patch_34">
    <path d="M 449.641879 239.558438 
L 457.458099 239.558438 
L 457.458099 44.005772 
L 449.641879 44.005772 
z
" clip-path="url(#pfed7fcfcd4)" style="fill: #86b0a6"/>
   </g>
   <g id="patch_35">
    <path d="M 460.584588 239.558438 
L 468.400808 239.558438 
L 468.400808 28.358437 
L 460.584588 28.358437 
z
" clip-path="url(#pfed7fcfcd4)" style="fill: #86b0a6"/>
   </g>
   <g id="patch_36">
    <path d="M 471.527297 239.558438 
L 479.343518 239.558438 
L 479.343518 38.868013 
L 471.527297 38.868013 
z
" clip-path="url(#pfed7fcfcd4)" style="fill: #86b0a6"/>
   </g>
   <g id="patch_37">
    <path d="M 482.470006 239.558438 
L 490.286227 239.558438 
L 490.286227 35.333999 
L 482.470006 35.333999 
z
" clip-path="url(#pfed7fcfcd4)" style="fill: #86b0a6"/>
   </g>
   <g id="patch_38">
    <path d="M 493.412715 239.558438 
L 501.228936 239.558438 
L 501.228936 52.01582 
L 493.412715 52.01582 
z
" clip-path="url(#pfed7fcfcd4)" style="fill: #86b0a6"/>
   </g>
   <g id="patch_39">
    <path d="M 504.355424 239.558438 
L 512.171645 239.558438 
L 512.171645 81.825219 
L 504.355424 81.825219 
z
" clip-path="url(#pfed7fcfcd4)" style="fill: #86b0a6"/>
   </g>
   <g id="patch_40">
    <path d="M 515.298133 239.558438 
L 523.114354 239.558438 
L 523.114354 103.881747 
L 515.298133 103.881747 
z
" clip-path="url(#pfed7fcfcd4)" style="fill: #86b0a6"/>
   </g>
   <g id="patch_41">
    <path d="M 526.240842 239.558438 
L 534.057063 239.558438 
L 534.057063 133.82118 
L 526.240842 133.82118 
z
" clip-path="url(#pfed7fcfcd4)" style="fill: #86b0a6"/>
   </g>
   <g id="patch_42">
    <path d="M 537.183551 239.558438 
L 544.999772 239.558438 
L 544.999772 159.030292 
L 537.183551 159.030292 
z
" clip-path="url(#pfed7fcfcd4)" style="fill: #86b0a6"/>
   </g>
   <g id="patch_43">
    <path d="M 548.12626 239.558438 
L 555.942481 239.558438 
L 555.942481 172.724238 
L 548.12626 172.724238 
z
" clip-path="url(#pfed7fcfcd4)" style="fill: #86b0a6"/>
   </g>
   <g id="patch_44">
    <path d="M 559.068969 239.558438 
L 566.88519 239.558438 
L 566.88519 194.526479 
L 559.068969 194.526479 
z
" clip-path="url(#pfed7fcfcd4)" style="fill: #86b0a6"/>
   </g>
   <g id="patch_45">
    <path d="M 570.011678 239.558438 
L 577.827899 239.558438 
L 577.827899 203.651924 
L 570.011678 203.651924 
z
" clip-path="url(#pfed7fcfcd4)" style="fill: #86b0a6"/>
   </g>
   <g id="patch_46">
    <path d="M 580.954387 239.558438 
L 588.770608 239.558438 
L 588.770608 212.583763 
L 580.954387 212.583763 
z
" clip-path="url(#pfed7fcfcd4)" style="fill: #86b0a6"/>
   </g>
   <g id="patch_47">
    <path d="M 591.897096 239.558438 
L 599.713317 239.558438 
L 599.713317 216.386513 
L 591.897096 216.386513 
z
" clip-path="url(#pfed7fcfcd4)" style="fill: #86b0a6"/>
   </g>
   <g id="patch_48">
    <path d="M 602.839806 239.558438 
L 610.656026 239.558438 
L 610.656026 222.087748 
L 602.839806 222.087748 
z
" clip-path="url(#pfed7fcfcd4)" style="fill: #86b0a6"/>
   </g>
   <g id="patch_49">
    <path d="M 613.782515 239.558438 
L 621.598735 239.558438 
L 621.598735 225.809589 
L 613.782515 225.809589 
z
" clip-path="url(#pfed7fcfcd4)" style="fill: #86b0a6"/>
   </g>
   <g id="patch_50">
    <path d="M 624.725224 239.558438 
L 632.541444 239.558438 
L 632.541444 227.797653 
L 624.725224 227.797653 
z
" clip-path="url(#pfed7fcfcd4)" style="fill: #86b0a6"/>
   </g>
   <g id="patch_51">
    <path d="M 635.667933 239.558438 
L 643.484154 239.558438 
L 643.484154 233.429537 
L 635.667933 233.429537 
z
" clip-path="url(#pfed7fcfcd4)" style="fill: #86b0a6"/>
   </g>
   <g id="patch_52">
    <path d="M 646.610642 239.558438 
L 654.426863 239.558438 
L 654.426863 231.051374 
L 646.610642 231.051374 
z
" clip-path="url(#pfed7fcfcd4)" style="fill: #86b0a6"/>
   </g>
   <g id="patch_53">
    <path d="M 657.553351 239.558438 
L 665.369572 239.558438 
L 665.369572 236.602348 
L 657.553351 236.602348 
z
" clip-path="url(#pfed7fcfcd4)" style="fill: #86b0a6"/>
   </g>
   <g id="patch_54">
    <path d="M 668.49606 239.558438 
L 676.312281 239.558438 
L 676.312281 237.862226 
L 668.49606 237.862226 
z
" clip-path="url(#pfed7fcfcd4)" style="fill: #86b0a6"/>
   </g>
   <g id="patch_55">
    <path d="M 679.438769 239.558438 
L 687.25499 239.558438 
L 687.25499 238.593302 
L 679.438769 238.593302 
z
" clip-path="url(#pfed7fcfcd4)" style="fill: #86b0a6"/>
   </g>
   <g id="patch_56">
    <path d="M 690.381478 239.558438 
L 698.197699 239.558438 
L 698.197699 239.006519 
L 690.381478 239.006519 
z
" clip-path="url(#pfed7fcfcd4)" style="fill: #86b0a6"/>
   </g>
   <g id="patch_57">
    <path d="M 701.324187 239.558438 
L 709.140408 239.558438 
L 709.140408 239.197234 
L 701.324187 239.197234 
z
" clip-path="url(#pfed7fcfcd4)" style="fill: #86b0a6"/>
   </g>
   <g id="patch_58">
    <path d="M 712.266896 239.558438 
L 720.083117 239.558438 
L 720.083117 239.367722 
L 712.266896 239.367722 
z
" clip-path="url(#pfed7fcfcd4)" style="fill: #86b0a6"/>
   </g>
   <g id="patch_59">
    <path d="M 723.209605 239.558438 
L 731.025826 239.558438 
L 731.025826 239.416846 
L 723.209605 239.416846 
z
" clip-path="url(#pfed7fcfcd4)" style="fill: #86b0a6"/>
   </g>
   <g id="patch_60">
    <path d="M 734.152314 239.558438 
L 741.968535 239.558438 
L 741.968535 239.419735 
L 734.152314 239.419735 
z
" clip-path="url(#pfed7fcfcd4)" style="fill: #86b0a6"/>
   </g>
   <g id="patch_61">
    <path d="M 745.095023 239.558438 
L 752.911244 239.558438 
L 752.911244 239.338826 
L 745.095023 239.338826 
z
" clip-path="url(#pfed7fcfcd4)" style="fill: #86b0a6"/>
   </g>
   <g id="patch_62">
    <path d="M 756.037732 239.558438 
L 763.853953 239.558438 
L 763.853953 239.474638 
L 756.037732 239.474638 
z
" clip-path="url(#pfed7fcfcd4)" style="fill: #86b0a6"/>
   </g>
   <g id="patch_63">
    <path d="M 766.980442 239.558438 
L 774.796662 239.558438 
L 774.796662 239.512203 
L 766.980442 239.512203 
z
" clip-path="url(#pfed7fcfcd4)" style="fill: #86b0a6"/>
   </g>
   <g id="patch_64">
    <path d="M 777.923151 239.558438 
L 785.739371 239.558438 
L 785.739371 239.53532 
L 777.923151 239.53532 
z
" clip-path="url(#pfed7fcfcd4)" style="fill: #86b0a6"/>
   </g>
   <g id="patch_65">
    <path d="M 788.86586 239.558438 
L 796.68208 239.558438 
L 796.68208 239.529541 
L 788.86586 239.529541 
z
" clip-path="url(#pfed7fcfcd4)" style="fill: #86b0a6"/>
   </g>
   <g id="patch_66">
    <path d="M 799.808569 239.558438 
L 807.624789 239.558438 
L 807.624789 239.532431 
L 799.808569 239.532431 
z
" clip-path="url(#pfed7fcfcd4)" style="fill: #86b0a6"/>
   </g>
   <g id="patch_67">
    <path d="M 810.751278 239.558438 
L 818.567499 239.558438 
L 818.567499 239.520872 
L 810.751278 239.520872 
z
" clip-path="url(#pfed7fcfcd4)" style="fill: #86b0a6"/>
   </g>
   <g id="patch_68">
    <path d="M 821.693987 239.558438 
L 829.510208 239.558438 
L 829.510208 239.486197 
L 821.693987 239.486197 
z
" clip-path="url(#pfed7fcfcd4)" style="fill: #86b0a6"/>
   </g>
   <g id="patch_69">
    <path d="M 832.636696 239.558438 
L 840.452917 239.558438 
L 840.452917 239.53532 
L 832.636696 239.53532 
z
" clip-path="url(#pfed7fcfcd4)" style="fill: #86b0a6"/>
   </g>
   <g id="patch_70">
    <path d="M 843.579405 239.558438 
L 851.395626 239.558438 
L 851.395626 239.517983 
L 843.579405 239.517983 
z
" clip-path="url(#pfed7fcfcd4)" style="fill: #86b0a6"/>
   </g>
   <g id="patch_71">
    <path d="M 854.522114 239.558438 
L 862.338335 239.558438 
L 862.338335 239.549769 
L 854.522114 239.549769 
z
" clip-path="url(#pfed7fcfcd4)" style="fill: #86b0a6"/>
   </g>
   <g id="patch_72">
    <path d="M 865.464823 239.558438 
L 873.281044 239.558438 
L 873.281044 239.555548 
L 865.464823 239.555548 
z
" clip-path="url(#pfed7fcfcd4)" style="fill: #86b0a6"/>
   </g>
   <g id="patch_73">
    <path d="M 876.407532 239.558438 
L 884.223753 239.558438 
L 884.223753 239.546879 
L 876.407532 239.546879 
z
" clip-path="url(#pfed7fcfcd4)" style="fill: #86b0a6"/>
   </g>
   <g id="patch_74">
    <path d="M 887.350241 239.558438 
L 895.166462 239.558438 
L 895.166462 239.549769 
L 887.350241 239.549769 
z
" clip-path="url(#pfed7fcfcd4)" style="fill: #86b0a6"/>
   </g>
   <g id="patch_75">
    <path d="M 898.29295 239.558438 
L 906.109171 239.558438 
L 906.109171 239.555548 
L 898.29295 239.555548 
z
" clip-path="url(#pfed7fcfcd4)" style="fill: #86b0a6"/>
   </g>
   <g id="patch_76">
    <path d="M 909.235659 239.558438 
L 917.05188 239.558438 
L 917.05188 239.552658 
L 909.235659 239.552658 
z
" clip-path="url(#pfed7fcfcd4)" style="fill: #86b0a6"/>
   </g>
   <g id="patch_77">
    <path d="M 920.178368 239.558438 
L 927.994589 239.558438 
L 927.994589 239.546879 
L 920.178368 239.546879 
z
" clip-path="url(#pfed7fcfcd4)" style="fill: #86b0a6"/>
   </g>
   <g id="patch_78">
    <path d="M 931.121077 239.558438 
L 938.937298 239.558438 
L 938.937298 239.543989 
L 931.121077 239.543989 
z
" clip-path="url(#pfed7fcfcd4)" style="fill: #86b0a6"/>
   </g>
   <g id="patch_79">
    <path d="M 942.063787 239.558438 
L 949.880007 239.558438 
L 949.880007 239.552658 
L 942.063787 239.552658 
z
" clip-path="url(#pfed7fcfcd4)" style="fill: #86b0a6"/>
   </g>
   <g id="patch_80">
    <path d="M 953.006496 239.558438 
L 960.822716 239.558438 
L 960.822716 239.552658 
L 953.006496 239.552658 
z
" clip-path="url(#pfed7fcfcd4)" style="fill: #86b0a6"/>
   </g>
   <g id="patch_81">
    <path d="M 963.949205 239.558438 
L 971.765425 239.558438 
L 971.765425 239.555548 
L 963.949205 239.555548 
z
" clip-path="url(#pfed7fcfcd4)" style="fill: #86b0a6"/>
   </g>
   <g id="patch_82">
    <path d="M 974.891914 239.558438 
L 982.708134 239.558438 
L 982.708134 239.549769 
L 974.891914 239.549769 
z
" clip-path="url(#pfed7fcfcd4)" style="fill: #86b0a6"/>
   </g>
   <g id="patch_83">
    <path d="M 985.834623 239.558438 
L 993.650844 239.558438 
L 993.650844 239.555548 
L 985.834623 239.555548 
z
" clip-path="url(#pfed7fcfcd4)" style="fill: #86b0a6"/>
   </g>
   <g id="patch_84">
    <path d="M 996.777332 239.558438 
L 1004.593553 239.558438 
L 1004.593553 239.555548 
L 996.777332 239.555548 
z
" clip-path="url(#pfed7fcfcd4)" style="fill: #86b0a6"/>
   </g>
   <g id="patch_85">
    <path d="M 1007.720041 239.558438 
L 1015.536262 239.558438 
L 1015.536262 239.555548 
L 1007.720041 239.555548 
z
" clip-path="url(#pfed7fcfcd4)" style="fill: #86b0a6"/>
   </g>
   <g id="patch_86">
    <path d="M 1051.490877 239.558438 
L 1059.307098 239.558438 
L 1059.307098 239.555548 
L 1051.490877 239.555548 
z
" clip-path="url(#pfed7fcfcd4)" style="fill: #86b0a6"/>
   </g>
   <g id="patch_87">
    <path d="M 1062.433586 239.558438 
L 1070.249807 239.558438 
L 1070.249807 239.555548 
L 1062.433586 239.555548 
z
" clip-path="url(#pfed7fcfcd4)" style="fill: #86b0a6"/>
   </g>
   <g id="patch_88">
    <path d="M 1073.376295 239.558438 
L 1081.192516 239.558438 
L 1081.192516 239.555548 
L 1073.376295 239.555548 
z
" clip-path="url(#pfed7fcfcd4)" style="fill: #86b0a6"/>
   </g>
   <g id="patch_89">
    <path d="M 1084.319004 239.558438 
L 1092.135225 239.558438 
L 1092.135225 239.5411 
L 1084.319004 239.5411 
z
" clip-path="url(#pfed7fcfcd4)" style="fill: #86b0a6"/>
   </g>
   <g id="patch_90">
    <path d="M 1095.261713 239.558438 
L 1103.077934 239.558438 
L 1103.077934 239.552658 
L 1095.261713 239.552658 
z
" clip-path="url(#pfed7fcfcd4)" style="fill: #86b0a6"/>
   </g>
   <g id="patch_91">
    <path d="M 1117.147132 239.558438 
L 1124.963352 239.558438 
L 1124.963352 239.555548 
L 1117.147132 239.555548 
z
" clip-path="url(#pfed7fcfcd4)" style="fill: #86b0a6"/>
   </g>
   <g id="matplotlib.axis_1">
    <g id="xtick_1">
     <g id="line2d_1">
      <defs>
       <path id="mf3e86a0167" d="M 0 0 
L 0 3.5 
" style="stroke: #000000; stroke-width: 0.8"/>
      </defs>
      <g>
       <use xlink:href="#mf3e86a0167" x="164.349821" y="239.558438" style="stroke: #000000; stroke-width: 0.8"/>
      </g>
     </g>
     <g id="text_1">
      <!-- 2020-10 -->
      <g transform="translate(167.109196 288.34125)rotate(-90)scale(0.1 -0.1)">
       <defs>
        <path id="DejaVuSans-32" d="M 1228 531 
L 3431 531 
L 3431 0 
L 469 0 
L 469 531 
Q 828 903 1448 1529 
Q 2069 2156 2228 2338 
Q 2531 2678 2651 2914 
Q 2772 3150 2772 3378 
Q 2772 3750 2511 3984 
Q 2250 4219 1831 4219 
Q 1534 4219 1204 4116 
Q 875 4013 500 3803 
L 500 4441 
Q 881 4594 1212 4672 
Q 1544 4750 1819 4750 
Q 2544 4750 2975 4387 
Q 3406 4025 3406 3419 
Q 3406 3131 3298 2873 
Q 3191 2616 2906 2266 
Q 2828 2175 2409 1742 
Q 1991 1309 1228 531 
z
" transform="scale(0.015625)"/>
        <path id="DejaVuSans-30" d="M 2034 4250 
Q 1547 4250 1301 3770 
Q 1056 3291 1056 2328 
Q 1056 1369 1301 889 
Q 1547 409 2034 409 
Q 2525 409 2770 889 
Q 3016 1369 3016 2328 
Q 3016 3291 2770 3770 
Q 2525 4250 2034 4250 
z
M 2034 4750 
Q 2819 4750 3233 4129 
Q 3647 3509 3647 2328 
Q 3647 1150 3233 529 
Q 2819 -91 2034 -91 
Q 1250 -91 836 529 
Q 422 1150 422 2328 
Q 422 3509 836 4129 
Q 1250 4750 2034 4750 
z
" transform="scale(0.015625)"/>
        <path id="DejaVuSans-2d" d="M 313 2009 
L 1997 2009 
L 1997 1497 
L 313 1497 
L 313 2009 
z
" transform="scale(0.015625)"/>
        <path id="DejaVuSans-31" d="M 794 531 
L 1825 531 
L 1825 4091 
L 703 3866 
L 703 4441 
L 1819 4666 
L 2450 4666 
L 2450 531 
L 3481 531 
L 3481 0 
L 794 0 
L 794 531 
z
" transform="scale(0.015625)"/>
       </defs>
       <use xlink:href="#DejaVuSans-32"/>
       <use xlink:href="#DejaVuSans-30" x="63.623047"/>
       <use xlink:href="#DejaVuSans-32" x="127.246094"/>
       <use xlink:href="#DejaVuSans-30" x="190.869141"/>
       <use xlink:href="#DejaVuSans-2d" x="254.492188"/>
       <use xlink:href="#DejaVuSans-31" x="290.576172"/>
       <use xlink:href="#DejaVuSans-30" x="354.199219"/>
      </g>
     </g>
    </g>
    <g id="xtick_2">
     <g id="line2d_2">
      <g>
       <use xlink:href="#mf3e86a0167" x="308.168283" y="239.558438" style="stroke: #000000; stroke-width: 0.8"/>
      </g>
     </g>
     <g id="text_2">
      <!-- 2021-01 -->
      <g transform="translate(310.927658 288.34125)rotate(-90)scale(0.1 -0.1)">
       <use xlink:href="#DejaVuSans-32"/>
       <use xlink:href="#DejaVuSans-30" x="63.623047"/>
       <use xlink:href="#DejaVuSans-32" x="127.246094"/>
       <use xlink:href="#DejaVuSans-31" x="190.869141"/>
       <use xlink:href="#DejaVuSans-2d" x="254.492188"/>
       <use xlink:href="#DejaVuSans-30" x="290.576172"/>
       <use xlink:href="#DejaVuSans-31" x="354.199219"/>
      </g>
     </g>
    </g>
    <g id="xtick_3">
     <g id="line2d_3">
      <g>
       <use xlink:href="#mf3e86a0167" x="448.860257" y="239.558438" style="stroke: #000000; stroke-width: 0.8"/>
      </g>
     </g>
     <g id="text_3">
      <!-- 2021-04 -->
      <g transform="translate(451.619632 288.34125)rotate(-90)scale(0.1 -0.1)">
       <defs>
        <path id="DejaVuSans-34" d="M 2419 4116 
L 825 1625 
L 2419 1625 
L 2419 4116 
z
M 2253 4666 
L 3047 4666 
L 3047 1625 
L 3713 1625 
L 3713 1100 
L 3047 1100 
L 3047 0 
L 2419 0 
L 2419 1100 
L 313 1100 
L 313 1709 
L 2253 4666 
z
" transform="scale(0.015625)"/>
       </defs>
       <use xlink:href="#DejaVuSans-32"/>
       <use xlink:href="#DejaVuSans-30" x="63.623047"/>
       <use xlink:href="#DejaVuSans-32" x="127.246094"/>
       <use xlink:href="#DejaVuSans-31" x="190.869141"/>
       <use xlink:href="#DejaVuSans-2d" x="254.492188"/>
       <use xlink:href="#DejaVuSans-30" x="290.576172"/>
       <use xlink:href="#DejaVuSans-34" x="354.199219"/>
      </g>
     </g>
    </g>
    <g id="xtick_4">
     <g id="line2d_4">
      <g>
       <use xlink:href="#mf3e86a0167" x="591.115474" y="239.558438" style="stroke: #000000; stroke-width: 0.8"/>
      </g>
     </g>
     <g id="text_4">
      <!-- 2021-07 -->
      <g transform="translate(593.874849 288.34125)rotate(-90)scale(0.1 -0.1)">
       <defs>
        <path id="DejaVuSans-37" d="M 525 4666 
L 3525 4666 
L 3525 4397 
L 1831 0 
L 1172 0 
L 2766 4134 
L 525 4134 
L 525 4666 
z
" transform="scale(0.015625)"/>
       </defs>
       <use xlink:href="#DejaVuSans-32"/>
       <use xlink:href="#DejaVuSans-30" x="63.623047"/>
       <use xlink:href="#DejaVuSans-32" x="127.246094"/>
       <use xlink:href="#DejaVuSans-31" x="190.869141"/>
       <use xlink:href="#DejaVuSans-2d" x="254.492188"/>
       <use xlink:href="#DejaVuSans-30" x="290.576172"/>
       <use xlink:href="#DejaVuSans-37" x="354.199219"/>
      </g>
     </g>
    </g>
    <g id="xtick_5">
     <g id="line2d_5">
      <g>
       <use xlink:href="#mf3e86a0167" x="734.933936" y="239.558438" style="stroke: #000000; stroke-width: 0.8"/>
      </g>
     </g>
     <g id="text_5">
      <!-- 2021-10 -->
      <g transform="translate(737.693311 288.34125)rotate(-90)scale(0.1 -0.1)">
       <use xlink:href="#DejaVuSans-32"/>
       <use xlink:href="#DejaVuSans-30" x="63.623047"/>
       <use xlink:href="#DejaVuSans-32" x="127.246094"/>
       <use xlink:href="#DejaVuSans-31" x="190.869141"/>
       <use xlink:href="#DejaVuSans-2d" x="254.492188"/>
       <use xlink:href="#DejaVuSans-31" x="290.576172"/>
       <use xlink:href="#DejaVuSans-30" x="354.199219"/>
      </g>
     </g>
    </g>
    <g id="xtick_6">
     <g id="line2d_6">
      <g>
       <use xlink:href="#mf3e86a0167" x="878.752398" y="239.558438" style="stroke: #000000; stroke-width: 0.8"/>
      </g>
     </g>
     <g id="text_6">
      <!-- 2022-01 -->
      <g transform="translate(881.511773 288.34125)rotate(-90)scale(0.1 -0.1)">
       <use xlink:href="#DejaVuSans-32"/>
       <use xlink:href="#DejaVuSans-30" x="63.623047"/>
       <use xlink:href="#DejaVuSans-32" x="127.246094"/>
       <use xlink:href="#DejaVuSans-32" x="190.869141"/>
       <use xlink:href="#DejaVuSans-2d" x="254.492188"/>
       <use xlink:href="#DejaVuSans-30" x="290.576172"/>
       <use xlink:href="#DejaVuSans-31" x="354.199219"/>
      </g>
     </g>
    </g>
    <g id="xtick_7">
     <g id="line2d_7">
      <g>
       <use xlink:href="#mf3e86a0167" x="1019.444372" y="239.558438" style="stroke: #000000; stroke-width: 0.8"/>
      </g>
     </g>
     <g id="text_7">
      <!-- 2022-04 -->
      <g transform="translate(1022.203747 288.34125)rotate(-90)scale(0.1 -0.1)">
       <use xlink:href="#DejaVuSans-32"/>
       <use xlink:href="#DejaVuSans-30" x="63.623047"/>
       <use xlink:href="#DejaVuSans-32" x="127.246094"/>
       <use xlink:href="#DejaVuSans-32" x="190.869141"/>
       <use xlink:href="#DejaVuSans-2d" x="254.492188"/>
       <use xlink:href="#DejaVuSans-30" x="290.576172"/>
       <use xlink:href="#DejaVuSans-34" x="354.199219"/>
      </g>
     </g>
    </g>
    <g id="xtick_8">
     <g id="line2d_8">
      <g>
       <use xlink:href="#mf3e86a0167" x="1161.69959" y="239.558438" style="stroke: #000000; stroke-width: 0.8"/>
      </g>
     </g>
     <g id="text_8">
      <!-- 2022-07 -->
      <g transform="translate(1164.458965 288.34125)rotate(-90)scale(0.1 -0.1)">
       <use xlink:href="#DejaVuSans-32"/>
       <use xlink:href="#DejaVuSans-30" x="63.623047"/>
       <use xlink:href="#DejaVuSans-32" x="127.246094"/>
       <use xlink:href="#DejaVuSans-32" x="190.869141"/>
       <use xlink:href="#DejaVuSans-2d" x="254.492188"/>
       <use xlink:href="#DejaVuSans-30" x="290.576172"/>
       <use xlink:href="#DejaVuSans-37" x="354.199219"/>
      </g>
     </g>
    </g>
    <g id="text_9">
     <!-- Date -->
     <g transform="translate(605.739844 299.939687)scale(0.1 -0.1)">
      <defs>
       <path id="DejaVuSans-44" d="M 1259 4147 
L 1259 519 
L 2022 519 
Q 2988 519 3436 956 
Q 3884 1394 3884 2338 
Q 3884 3275 3436 3711 
Q 2988 4147 2022 4147 
L 1259 4147 
z
M 628 4666 
L 1925 4666 
Q 3281 4666 3915 4102 
Q 4550 3538 4550 2338 
Q 4550 1131 3912 565 
Q 3275 0 1925 0 
L 628 0 
L 628 4666 
z
" transform="scale(0.015625)"/>
       <path id="DejaVuSans-61" d="M 2194 1759 
Q 1497 1759 1228 1600 
Q 959 1441 959 1056 
Q 959 750 1161 570 
Q 1363 391 1709 391 
Q 2188 391 2477 730 
Q 2766 1069 2766 1631 
L 2766 1759 
L 2194 1759 
z
M 3341 1997 
L 3341 0 
L 2766 0 
L 2766 531 
Q 2569 213 2275 61 
Q 1981 -91 1556 -91 
Q 1019 -91 701 211 
Q 384 513 384 1019 
Q 384 1609 779 1909 
Q 1175 2209 1959 2209 
L 2766 2209 
L 2766 2266 
Q 2766 2663 2505 2880 
Q 2244 3097 1772 3097 
Q 1472 3097 1187 3025 
Q 903 2953 641 2809 
L 641 3341 
Q 956 3463 1253 3523 
Q 1550 3584 1831 3584 
Q 2591 3584 2966 3190 
Q 3341 2797 3341 1997 
z
" transform="scale(0.015625)"/>
       <path id="DejaVuSans-74" d="M 1172 4494 
L 1172 3500 
L 2356 3500 
L 2356 3053 
L 1172 3053 
L 1172 1153 
Q 1172 725 1289 603 
Q 1406 481 1766 481 
L 2356 481 
L 2356 0 
L 1766 0 
Q 1100 0 847 248 
Q 594 497 594 1153 
L 594 3053 
L 172 3053 
L 172 3500 
L 594 3500 
L 594 4494 
L 1172 4494 
z
" transform="scale(0.015625)"/>
       <path id="DejaVuSans-65" d="M 3597 1894 
L 3597 1613 
L 953 1613 
Q 991 1019 1311 708 
Q 1631 397 2203 397 
Q 2534 397 2845 478 
Q 3156 559 3463 722 
L 3463 178 
Q 3153 47 2828 -22 
Q 2503 -91 2169 -91 
Q 1331 -91 842 396 
Q 353 884 353 1716 
Q 353 2575 817 3079 
Q 1281 3584 2069 3584 
Q 2775 3584 3186 3129 
Q 3597 2675 3597 1894 
z
M 3022 2063 
Q 3016 2534 2758 2815 
Q 2500 3097 2075 3097 
Q 1594 3097 1305 2825 
Q 1016 2553 972 2059 
L 3022 2063 
z
" transform="scale(0.015625)"/>
      </defs>
      <use xlink:href="#DejaVuSans-44"/>
      <use xlink:href="#DejaVuSans-61" x="77.001953"/>
      <use xlink:href="#DejaVuSans-74" x="138.28125"/>
      <use xlink:href="#DejaVuSans-65" x="177.490234"/>
     </g>
    </g>
   </g>
   <g id="matplotlib.axis_2">
    <g id="ytick_1">
     <g id="line2d_9">
      <defs>
       <path id="m74a445d20d" d="M 0 0 
L -3.5 0 
" style="stroke: #000000; stroke-width: 0.8"/>
      </defs>
      <g>
       <use xlink:href="#m74a445d20d" x="59.690625" y="239.558438" style="stroke: #000000; stroke-width: 0.8"/>
      </g>
     </g>
     <g id="text_10">
      <!-- 0 -->
      <g transform="translate(46.328125 243.357656)scale(0.1 -0.1)">
       <use xlink:href="#DejaVuSans-30"/>
      </g>
     </g>
    </g>
    <g id="ytick_2">
     <g id="line2d_10">
      <g>
       <use xlink:href="#m74a445d20d" x="59.690625" y="210.66216" style="stroke: #000000; stroke-width: 0.8"/>
      </g>
     </g>
     <g id="text_11">
      <!-- 10000 -->
      <g transform="translate(20.878125 214.461379)scale(0.1 -0.1)">
       <use xlink:href="#DejaVuSans-31"/>
       <use xlink:href="#DejaVuSans-30" x="63.623047"/>
       <use xlink:href="#DejaVuSans-30" x="127.246094"/>
       <use xlink:href="#DejaVuSans-30" x="190.869141"/>
       <use xlink:href="#DejaVuSans-30" x="254.492188"/>
      </g>
     </g>
    </g>
    <g id="ytick_3">
     <g id="line2d_11">
      <g>
       <use xlink:href="#m74a445d20d" x="59.690625" y="181.765883" style="stroke: #000000; stroke-width: 0.8"/>
      </g>
     </g>
     <g id="text_12">
      <!-- 20000 -->
      <g transform="translate(20.878125 185.565102)scale(0.1 -0.1)">
       <use xlink:href="#DejaVuSans-32"/>
       <use xlink:href="#DejaVuSans-30" x="63.623047"/>
       <use xlink:href="#DejaVuSans-30" x="127.246094"/>
       <use xlink:href="#DejaVuSans-30" x="190.869141"/>
       <use xlink:href="#DejaVuSans-30" x="254.492188"/>
      </g>
     </g>
    </g>
    <g id="ytick_4">
     <g id="line2d_12">
      <g>
       <use xlink:href="#m74a445d20d" x="59.690625" y="152.869606" style="stroke: #000000; stroke-width: 0.8"/>
      </g>
     </g>
     <g id="text_13">
      <!-- 30000 -->
      <g transform="translate(20.878125 156.668825)scale(0.1 -0.1)">
       <defs>
        <path id="DejaVuSans-33" d="M 2597 2516 
Q 3050 2419 3304 2112 
Q 3559 1806 3559 1356 
Q 3559 666 3084 287 
Q 2609 -91 1734 -91 
Q 1441 -91 1130 -33 
Q 819 25 488 141 
L 488 750 
Q 750 597 1062 519 
Q 1375 441 1716 441 
Q 2309 441 2620 675 
Q 2931 909 2931 1356 
Q 2931 1769 2642 2001 
Q 2353 2234 1838 2234 
L 1294 2234 
L 1294 2753 
L 1863 2753 
Q 2328 2753 2575 2939 
Q 2822 3125 2822 3475 
Q 2822 3834 2567 4026 
Q 2313 4219 1838 4219 
Q 1578 4219 1281 4162 
Q 984 4106 628 3988 
L 628 4550 
Q 988 4650 1302 4700 
Q 1616 4750 1894 4750 
Q 2613 4750 3031 4423 
Q 3450 4097 3450 3541 
Q 3450 3153 3228 2886 
Q 3006 2619 2597 2516 
z
" transform="scale(0.015625)"/>
       </defs>
       <use xlink:href="#DejaVuSans-33"/>
       <use xlink:href="#DejaVuSans-30" x="63.623047"/>
       <use xlink:href="#DejaVuSans-30" x="127.246094"/>
       <use xlink:href="#DejaVuSans-30" x="190.869141"/>
       <use xlink:href="#DejaVuSans-30" x="254.492188"/>
      </g>
     </g>
    </g>
    <g id="ytick_5">
     <g id="line2d_13">
      <g>
       <use xlink:href="#m74a445d20d" x="59.690625" y="123.973329" style="stroke: #000000; stroke-width: 0.8"/>
      </g>
     </g>
     <g id="text_14">
      <!-- 40000 -->
      <g transform="translate(20.878125 127.772548)scale(0.1 -0.1)">
       <use xlink:href="#DejaVuSans-34"/>
       <use xlink:href="#DejaVuSans-30" x="63.623047"/>
       <use xlink:href="#DejaVuSans-30" x="127.246094"/>
       <use xlink:href="#DejaVuSans-30" x="190.869141"/>
       <use xlink:href="#DejaVuSans-30" x="254.492188"/>
      </g>
     </g>
    </g>
    <g id="ytick_6">
     <g id="line2d_14">
      <g>
       <use xlink:href="#m74a445d20d" x="59.690625" y="95.077052" style="stroke: #000000; stroke-width: 0.8"/>
      </g>
     </g>
     <g id="text_15">
      <!-- 50000 -->
      <g transform="translate(20.878125 98.876271)scale(0.1 -0.1)">
       <defs>
        <path id="DejaVuSans-35" d="M 691 4666 
L 3169 4666 
L 3169 4134 
L 1269 4134 
L 1269 2991 
Q 1406 3038 1543 3061 
Q 1681 3084 1819 3084 
Q 2600 3084 3056 2656 
Q 3513 2228 3513 1497 
Q 3513 744 3044 326 
Q 2575 -91 1722 -91 
Q 1428 -91 1123 -41 
Q 819 9 494 109 
L 494 744 
Q 775 591 1075 516 
Q 1375 441 1709 441 
Q 2250 441 2565 725 
Q 2881 1009 2881 1497 
Q 2881 1984 2565 2268 
Q 2250 2553 1709 2553 
Q 1456 2553 1204 2497 
Q 953 2441 691 2322 
L 691 4666 
z
" transform="scale(0.015625)"/>
       </defs>
       <use xlink:href="#DejaVuSans-35"/>
       <use xlink:href="#DejaVuSans-30" x="63.623047"/>
       <use xlink:href="#DejaVuSans-30" x="127.246094"/>
       <use xlink:href="#DejaVuSans-30" x="190.869141"/>
       <use xlink:href="#DejaVuSans-30" x="254.492188"/>
      </g>
     </g>
    </g>
    <g id="ytick_7">
     <g id="line2d_15">
      <g>
       <use xlink:href="#m74a445d20d" x="59.690625" y="66.180775" style="stroke: #000000; stroke-width: 0.8"/>
      </g>
     </g>
     <g id="text_16">
      <!-- 60000 -->
      <g transform="translate(20.878125 69.979993)scale(0.1 -0.1)">
       <defs>
        <path id="DejaVuSans-36" d="M 2113 2584 
Q 1688 2584 1439 2293 
Q 1191 2003 1191 1497 
Q 1191 994 1439 701 
Q 1688 409 2113 409 
Q 2538 409 2786 701 
Q 3034 994 3034 1497 
Q 3034 2003 2786 2293 
Q 2538 2584 2113 2584 
z
M 3366 4563 
L 3366 3988 
Q 3128 4100 2886 4159 
Q 2644 4219 2406 4219 
Q 1781 4219 1451 3797 
Q 1122 3375 1075 2522 
Q 1259 2794 1537 2939 
Q 1816 3084 2150 3084 
Q 2853 3084 3261 2657 
Q 3669 2231 3669 1497 
Q 3669 778 3244 343 
Q 2819 -91 2113 -91 
Q 1303 -91 875 529 
Q 447 1150 447 2328 
Q 447 3434 972 4092 
Q 1497 4750 2381 4750 
Q 2619 4750 2861 4703 
Q 3103 4656 3366 4563 
z
" transform="scale(0.015625)"/>
       </defs>
       <use xlink:href="#DejaVuSans-36"/>
       <use xlink:href="#DejaVuSans-30" x="63.623047"/>
       <use xlink:href="#DejaVuSans-30" x="127.246094"/>
       <use xlink:href="#DejaVuSans-30" x="190.869141"/>
       <use xlink:href="#DejaVuSans-30" x="254.492188"/>
      </g>
     </g>
    </g>
    <g id="ytick_8">
     <g id="line2d_16">
      <g>
       <use xlink:href="#m74a445d20d" x="59.690625" y="37.284498" style="stroke: #000000; stroke-width: 0.8"/>
      </g>
     </g>
     <g id="text_17">
      <!-- 70000 -->
      <g transform="translate(20.878125 41.083716)scale(0.1 -0.1)">
       <use xlink:href="#DejaVuSans-37"/>
       <use xlink:href="#DejaVuSans-30" x="63.623047"/>
       <use xlink:href="#DejaVuSans-30" x="127.246094"/>
       <use xlink:href="#DejaVuSans-30" x="190.869141"/>
       <use xlink:href="#DejaVuSans-30" x="254.492188"/>
      </g>
     </g>
    </g>
    <g id="text_18">
     <!-- Sequence count -->
     <g transform="translate(14.798438 169.038594)rotate(-90)scale(0.1 -0.1)">
      <defs>
       <path id="DejaVuSans-53" d="M 3425 4513 
L 3425 3897 
Q 3066 4069 2747 4153 
Q 2428 4238 2131 4238 
Q 1616 4238 1336 4038 
Q 1056 3838 1056 3469 
Q 1056 3159 1242 3001 
Q 1428 2844 1947 2747 
L 2328 2669 
Q 3034 2534 3370 2195 
Q 3706 1856 3706 1288 
Q 3706 609 3251 259 
Q 2797 -91 1919 -91 
Q 1588 -91 1214 -16 
Q 841 59 441 206 
L 441 856 
Q 825 641 1194 531 
Q 1563 422 1919 422 
Q 2459 422 2753 634 
Q 3047 847 3047 1241 
Q 3047 1584 2836 1778 
Q 2625 1972 2144 2069 
L 1759 2144 
Q 1053 2284 737 2584 
Q 422 2884 422 3419 
Q 422 4038 858 4394 
Q 1294 4750 2059 4750 
Q 2388 4750 2728 4690 
Q 3069 4631 3425 4513 
z
" transform="scale(0.015625)"/>
       <path id="DejaVuSans-71" d="M 947 1747 
Q 947 1113 1208 752 
Q 1469 391 1925 391 
Q 2381 391 2643 752 
Q 2906 1113 2906 1747 
Q 2906 2381 2643 2742 
Q 2381 3103 1925 3103 
Q 1469 3103 1208 2742 
Q 947 2381 947 1747 
z
M 2906 525 
Q 2725 213 2448 61 
Q 2172 -91 1784 -91 
Q 1150 -91 751 415 
Q 353 922 353 1747 
Q 353 2572 751 3078 
Q 1150 3584 1784 3584 
Q 2172 3584 2448 3432 
Q 2725 3281 2906 2969 
L 2906 3500 
L 3481 3500 
L 3481 -1331 
L 2906 -1331 
L 2906 525 
z
" transform="scale(0.015625)"/>
       <path id="DejaVuSans-75" d="M 544 1381 
L 544 3500 
L 1119 3500 
L 1119 1403 
Q 1119 906 1312 657 
Q 1506 409 1894 409 
Q 2359 409 2629 706 
Q 2900 1003 2900 1516 
L 2900 3500 
L 3475 3500 
L 3475 0 
L 2900 0 
L 2900 538 
Q 2691 219 2414 64 
Q 2138 -91 1772 -91 
Q 1169 -91 856 284 
Q 544 659 544 1381 
z
M 1991 3584 
L 1991 3584 
z
" transform="scale(0.015625)"/>
       <path id="DejaVuSans-6e" d="M 3513 2113 
L 3513 0 
L 2938 0 
L 2938 2094 
Q 2938 2591 2744 2837 
Q 2550 3084 2163 3084 
Q 1697 3084 1428 2787 
Q 1159 2491 1159 1978 
L 1159 0 
L 581 0 
L 581 3500 
L 1159 3500 
L 1159 2956 
Q 1366 3272 1645 3428 
Q 1925 3584 2291 3584 
Q 2894 3584 3203 3211 
Q 3513 2838 3513 2113 
z
" transform="scale(0.015625)"/>
       <path id="DejaVuSans-63" d="M 3122 3366 
L 3122 2828 
Q 2878 2963 2633 3030 
Q 2388 3097 2138 3097 
Q 1578 3097 1268 2742 
Q 959 2388 959 1747 
Q 959 1106 1268 751 
Q 1578 397 2138 397 
Q 2388 397 2633 464 
Q 2878 531 3122 666 
L 3122 134 
Q 2881 22 2623 -34 
Q 2366 -91 2075 -91 
Q 1284 -91 818 406 
Q 353 903 353 1747 
Q 353 2603 823 3093 
Q 1294 3584 2113 3584 
Q 2378 3584 2631 3529 
Q 2884 3475 3122 3366 
z
" transform="scale(0.015625)"/>
       <path id="DejaVuSans-20" transform="scale(0.015625)"/>
       <path id="DejaVuSans-6f" d="M 1959 3097 
Q 1497 3097 1228 2736 
Q 959 2375 959 1747 
Q 959 1119 1226 758 
Q 1494 397 1959 397 
Q 2419 397 2687 759 
Q 2956 1122 2956 1747 
Q 2956 2369 2687 2733 
Q 2419 3097 1959 3097 
z
M 1959 3584 
Q 2709 3584 3137 3096 
Q 3566 2609 3566 1747 
Q 3566 888 3137 398 
Q 2709 -91 1959 -91 
Q 1206 -91 779 398 
Q 353 888 353 1747 
Q 353 2609 779 3096 
Q 1206 3584 1959 3584 
z
" transform="scale(0.015625)"/>
      </defs>
      <use xlink:href="#DejaVuSans-53"/>
      <use xlink:href="#DejaVuSans-65" x="63.476562"/>
      <use xlink:href="#DejaVuSans-71" x="125"/>
      <use xlink:href="#DejaVuSans-75" x="188.476562"/>
      <use xlink:href="#DejaVuSans-65" x="251.855469"/>
      <use xlink:href="#DejaVuSans-6e" x="313.378906"/>
      <use xlink:href="#DejaVuSans-63" x="376.757812"/>
      <use xlink:href="#DejaVuSans-65" x="431.738281"/>
      <use xlink:href="#DejaVuSans-20" x="493.261719"/>
      <use xlink:href="#DejaVuSans-63" x="525.048828"/>
      <use xlink:href="#DejaVuSans-6f" x="580.029297"/>
      <use xlink:href="#DejaVuSans-75" x="641.210938"/>
      <use xlink:href="#DejaVuSans-6e" x="704.589844"/>
      <use xlink:href="#DejaVuSans-74" x="767.96875"/>
     </g>
    </g>
   </g>
   <g id="patch_92">
    <path d="M 59.690625 239.558438 
L 59.690625 17.798437 
" style="fill: none; stroke: #000000; stroke-width: 0.8; stroke-linejoin: miter; stroke-linecap: square"/>
   </g>
   <g id="patch_93">
    <path d="M 1175.690625 239.558438 
L 1175.690625 17.798437 
" style="fill: none; stroke: #000000; stroke-width: 0.8; stroke-linejoin: miter; stroke-linecap: square"/>
   </g>
   <g id="patch_94">
    <path d="M 59.690625 239.558438 
L 1175.690625 239.558438 
" style="fill: none; stroke: #000000; stroke-width: 0.8; stroke-linejoin: miter; stroke-linecap: square"/>
   </g>
  </g>
  <g id="axes_2">
   <g id="matplotlib.axis_3">
    <g id="ytick_9">
     <g id="line2d_17">
      <defs>
       <path id="m8391fe4e22" d="M 0 0 
L 3.5 0 
" style="stroke: #000000; stroke-width: 0.8"/>
      </defs>
      <g>
       <use xlink:href="#m8391fe4e22" x="1175.690625" y="229.478618" style="stroke: #000000; stroke-width: 0.8"/>
      </g>
     </g>
     <g id="text_19">
      <!-- 0.0 -->
      <g transform="translate(1182.690625 233.277837)scale(0.1 -0.1)">
       <defs>
        <path id="DejaVuSans-2e" d="M 684 794 
L 1344 794 
L 1344 0 
L 684 0 
L 684 794 
z
" transform="scale(0.015625)"/>
       </defs>
       <use xlink:href="#DejaVuSans-30"/>
       <use xlink:href="#DejaVuSans-2e" x="63.623047"/>
       <use xlink:href="#DejaVuSans-30" x="95.410156"/>
      </g>
     </g>
    </g>
    <g id="ytick_10">
     <g id="line2d_18">
      <g>
       <use xlink:href="#m8391fe4e22" x="1175.690625" y="193.324284" style="stroke: #000000; stroke-width: 0.8"/>
      </g>
     </g>
     <g id="text_20">
      <!-- 0.2 -->
      <g transform="translate(1182.690625 197.123503)scale(0.1 -0.1)">
       <use xlink:href="#DejaVuSans-30"/>
       <use xlink:href="#DejaVuSans-2e" x="63.623047"/>
       <use xlink:href="#DejaVuSans-32" x="95.410156"/>
      </g>
     </g>
    </g>
    <g id="ytick_11">
     <g id="line2d_19">
      <g>
       <use xlink:href="#m8391fe4e22" x="1175.690625" y="157.169951" style="stroke: #000000; stroke-width: 0.8"/>
      </g>
     </g>
     <g id="text_21">
      <!-- 0.4 -->
      <g transform="translate(1182.690625 160.969169)scale(0.1 -0.1)">
       <use xlink:href="#DejaVuSans-30"/>
       <use xlink:href="#DejaVuSans-2e" x="63.623047"/>
       <use xlink:href="#DejaVuSans-34" x="95.410156"/>
      </g>
     </g>
    </g>
    <g id="ytick_12">
     <g id="line2d_20">
      <g>
       <use xlink:href="#m8391fe4e22" x="1175.690625" y="121.015617" style="stroke: #000000; stroke-width: 0.8"/>
      </g>
     </g>
     <g id="text_22">
      <!-- 0.6 -->
      <g transform="translate(1182.690625 124.814836)scale(0.1 -0.1)">
       <use xlink:href="#DejaVuSans-30"/>
       <use xlink:href="#DejaVuSans-2e" x="63.623047"/>
       <use xlink:href="#DejaVuSans-36" x="95.410156"/>
      </g>
     </g>
    </g>
    <g id="ytick_13">
     <g id="line2d_21">
      <g>
       <use xlink:href="#m8391fe4e22" x="1175.690625" y="84.861283" style="stroke: #000000; stroke-width: 0.8"/>
      </g>
     </g>
     <g id="text_23">
      <!-- 0.8 -->
      <g transform="translate(1182.690625 88.660502)scale(0.1 -0.1)">
       <defs>
        <path id="DejaVuSans-38" d="M 2034 2216 
Q 1584 2216 1326 1975 
Q 1069 1734 1069 1313 
Q 1069 891 1326 650 
Q 1584 409 2034 409 
Q 2484 409 2743 651 
Q 3003 894 3003 1313 
Q 3003 1734 2745 1975 
Q 2488 2216 2034 2216 
z
M 1403 2484 
Q 997 2584 770 2862 
Q 544 3141 544 3541 
Q 544 4100 942 4425 
Q 1341 4750 2034 4750 
Q 2731 4750 3128 4425 
Q 3525 4100 3525 3541 
Q 3525 3141 3298 2862 
Q 3072 2584 2669 2484 
Q 3125 2378 3379 2068 
Q 3634 1759 3634 1313 
Q 3634 634 3220 271 
Q 2806 -91 2034 -91 
Q 1263 -91 848 271 
Q 434 634 434 1313 
Q 434 1759 690 2068 
Q 947 2378 1403 2484 
z
M 1172 3481 
Q 1172 3119 1398 2916 
Q 1625 2713 2034 2713 
Q 2441 2713 2670 2916 
Q 2900 3119 2900 3481 
Q 2900 3844 2670 4047 
Q 2441 4250 2034 4250 
Q 1625 4250 1398 4047 
Q 1172 3844 1172 3481 
z
" transform="scale(0.015625)"/>
       </defs>
       <use xlink:href="#DejaVuSans-30"/>
       <use xlink:href="#DejaVuSans-2e" x="63.623047"/>
       <use xlink:href="#DejaVuSans-38" x="95.410156"/>
      </g>
     </g>
    </g>
    <g id="ytick_14">
     <g id="line2d_22">
      <g>
       <use xlink:href="#m8391fe4e22" x="1175.690625" y="48.706949" style="stroke: #000000; stroke-width: 0.8"/>
      </g>
     </g>
     <g id="text_24">
      <!-- 1.0 -->
      <g transform="translate(1182.690625 52.506168)scale(0.1 -0.1)">
       <use xlink:href="#DejaVuSans-31"/>
       <use xlink:href="#DejaVuSans-2e" x="63.623047"/>
       <use xlink:href="#DejaVuSans-30" x="95.410156"/>
      </g>
     </g>
    </g>
    <g id="text_25">
     <!-- Total -->
     <g transform="translate(1210.192188 140.355)rotate(-90)scale(0.1 -0.1)">
      <defs>
       <path id="DejaVuSans-54" d="M -19 4666 
L 3928 4666 
L 3928 4134 
L 2272 4134 
L 2272 0 
L 1638 0 
L 1638 4134 
L -19 4134 
L -19 4666 
z
" transform="scale(0.015625)"/>
       <path id="DejaVuSans-6c" d="M 603 4863 
L 1178 4863 
L 1178 0 
L 603 0 
L 603 4863 
z
" transform="scale(0.015625)"/>
      </defs>
      <use xlink:href="#DejaVuSans-54"/>
      <use xlink:href="#DejaVuSans-6f" x="44.083984"/>
      <use xlink:href="#DejaVuSans-74" x="105.265625"/>
      <use xlink:href="#DejaVuSans-61" x="144.474609"/>
      <use xlink:href="#DejaVuSans-6c" x="205.753906"/>
     </g>
    </g>
    <g id="text_26">
     <!-- 1e6 -->
     <g transform="translate(1156.8125 14.798437)scale(0.1 -0.1)">
      <use xlink:href="#DejaVuSans-31"/>
      <use xlink:href="#DejaVuSans-65" x="63.623047"/>
      <use xlink:href="#DejaVuSans-36" x="125.146484"/>
     </g>
    </g>
   </g>
   <g id="line2d_23">
    <path d="M 117.452496 229.478438 
L 228.442831 229.375759 
L 248.765005 229.124848 
L 267.523935 228.944257 
L 276.9034 228.47172 
L 281.593132 228.088303 
L 294.099086 226.956853 
L 300.352062 226.474555 
L 301.915306 226.314933 
L 305.041795 225.821969 
L 309.731527 225.154198 
L 322.23748 222.76042 
L 325.363969 221.795099 
L 328.490457 221.059178 
L 330.053701 220.609056 
L 333.180189 219.925197 
L 336.306678 218.882506 
L 342.559654 217.174937 
L 344.122898 216.873952 
L 345.686143 215.978048 
L 353.502363 212.585506 
L 355.065607 212.195039 
L 358.192096 210.807797 
L 362.881828 209.115232 
L 366.008317 208.266148 
L 367.571561 207.191822 
L 373.824537 204.183419 
L 376.951026 203.137836 
L 378.51427 201.724925 
L 380.077514 200.751831 
L 384.767246 198.311956 
L 387.893735 197.086685 
L 389.456979 195.52771 
L 392.583467 193.449198 
L 394.146711 192.222843 
L 395.709955 191.267284 
L 398.836444 189.998628 
L 400.399688 188.237189 
L 403.526176 185.610757 
L 406.652665 183.438424 
L 409.779153 182.089506 
L 411.342397 179.938323 
L 414.468885 176.8126 
L 417.595374 173.856983 
L 420.721862 171.957977 
L 422.285106 169.322145 
L 423.84835 167.368727 
L 425.411594 165.772151 
L 426.974838 164.011616 
L 428.538083 162.612443 
L 431.664571 160.431433 
L 433.227815 157.532036 
L 436.354303 153.837244 
L 439.480792 150.251277 
L 442.60728 148.125583 
L 444.170524 145.303375 
L 445.733768 143.177139 
L 448.860257 139.431911 
L 450.423501 137.994777 
L 453.549989 135.855525 
L 455.113233 133.63131 
L 459.802966 127.796362 
L 461.36621 125.944899 
L 462.929454 124.632135 
L 464.492698 123.619813 
L 466.055942 120.672693 
L 467.619186 118.404009 
L 472.308919 112.630161 
L 473.872163 111.419714 
L 475.435407 110.525979 
L 476.998651 107.762703 
L 478.561895 105.662679 
L 483.251628 100.021157 
L 484.814872 98.86476 
L 486.378116 97.972833 
L 487.94136 95.038366 
L 489.504605 92.857718 
L 494.194337 87.187995 
L 495.757581 86.088723 
L 497.320825 85.216319 
L 498.884069 82.320899 
L 502.010558 78.723 
L 505.137046 75.364805 
L 506.70029 74.35628 
L 508.263534 73.59957 
L 509.826779 70.960303 
L 511.390023 69.270269 
L 512.953267 67.844703 
L 516.079755 65.355658 
L 517.642999 64.488677 
L 519.206243 63.880381 
L 520.769488 61.418271 
L 522.332732 59.952936 
L 523.895976 58.718807 
L 527.022464 56.609021 
L 528.585708 56.000905 
L 530.148952 55.589469 
L 531.712197 53.761867 
L 534.838685 51.524095 
L 537.965173 49.87618 
L 539.528417 49.386108 
L 541.091662 49.024927 
L 542.654906 47.677997 
L 544.21815 46.801616 
L 547.344638 45.416363 
L 548.907882 44.776973 
L 550.471126 44.348363 
L 552.034371 44.065456 
L 553.597615 42.948287 
L 556.724103 41.618531 
L 559.850591 40.452734 
L 562.97708 39.980558 
L 564.540324 39.286395 
L 569.230056 37.98032 
L 570.7933 37.579188 
L 573.919789 37.186552 
L 578.609521 35.865472 
L 581.73601 35.296222 
L 586.425742 34.621221 
L 589.55223 34.066975 
L 594.241963 33.416378 
L 595.805207 33.325449 
L 602.058183 32.303366 
L 605.184672 31.96677 
L 606.747916 31.883795 
L 611.437648 31.282187 
L 616.127381 30.873824 
L 617.690625 30.816158 
L 623.943602 30.209488 
L 645.82902 28.980964 
L 648.955508 28.894555 
L 650.518752 28.70131 
L 675.530659 28.120672 
L 706.795542 27.970631 
L 788.084238 27.901215 
L 1122.618486 27.878437 
L 1122.618486 27.878437 
" clip-path="url(#pfed7fcfcd4)" style="fill: none; stroke: #696969; stroke-width: 3; stroke-linecap: square"/>
   </g>
   <g id="patch_95">
    <path d="M 59.690625 239.558437 
L 59.690625 17.798437 
" style="fill: none; stroke: #000000; stroke-width: 0.8; stroke-linejoin: miter; stroke-linecap: square"/>
   </g>
   <g id="patch_96">
    <path d="M 1175.690625 239.558437 
L 1175.690625 17.798437 
" style="fill: none; stroke: #000000; stroke-width: 0.8; stroke-linejoin: miter; stroke-linecap: square"/>
   </g>
   <g id="patch_97">
    <path d="M 59.690625 239.558438 
L 1175.690625 239.558438 
" style="fill: none; stroke: #000000; stroke-width: 0.8; stroke-linejoin: miter; stroke-linecap: square"/>
   </g>
  </g>
 </g>
 <defs>
  <clipPath id="pfed7fcfcd4">
   <rect x="59.690625" y="17.798437" width="1116" height="221.76"/>
  </clipPath>
 </defs>
</svg>
