<?xml version="1.0" encoding="utf-8" standalone="no"?>
<!DOCTYPE svg PUBLIC "-//W3C//DTD SVG 1.1//EN"
  "http://www.w3.org/Graphics/SVG/1.1/DTD/svg11.dtd">
<svg xmlns:xlink="http://www.w3.org/1999/xlink" width="1229.01875pt" height="301.488262pt" viewBox="0 0 1229.01875 301.488262" xmlns="http://www.w3.org/2000/svg" version="1.1">
 <metadata>
  <rdf:RDF xmlns:dc="http://purl.org/dc/elements/1.1/" xmlns:cc="http://creativecommons.org/ns#" xmlns:rdf="http://www.w3.org/1999/02/22-rdf-syntax-ns#">
   <cc:Work>
    <dc:type rdf:resource="http://purl.org/dc/dcmitype/StillImage"/>
    <dc:date>2022-07-09T19:36:56.707625</dc:date>
    <dc:format>image/svg+xml</dc:format>
    <dc:creator>
     <cc:Agent>
      <dc:title>Matplotlib v3.5.1, https://matplotlib.org/</dc:title>
     </cc:Agent>
    </dc:creator>
   </cc:Work>
  </rdf:RDF>
 </metadata>
 <defs>
  <style type="text/css">*{stroke-linejoin: round; stroke-linecap: butt}</style>
 </defs>
 <g id="figure_1">
  <g id="patch_1">
   <path d="M 0 301.488262 
L 1229.01875 301.488262 
L 1229.01875 0 
L 0 0 
z
" style="fill: #ffffff"/>
  </g>
  <g id="axes_1">
   <g id="patch_2">
    <path d="M 53.328125 231.827324 
L 1169.328125 231.827324 
L 1169.328125 10.067324 
L 53.328125 10.067324 
z
" style="fill: #ffffff"/>
   </g>
   <g id="patch_3">
    <path d="M 104.055398 231.827324 
L 112.704549 231.827324 
L 112.704549 230.414024 
L 104.055398 230.414024 
z
" clip-path="url(#p896d6d97e1)" style="fill: #86b0a6"/>
   </g>
   <g id="patch_4">
    <path d="M 116.16421 231.827324 
L 124.813361 231.827324 
L 124.813361 229.530712 
L 116.16421 229.530712 
z
" clip-path="url(#p896d6d97e1)" style="fill: #86b0a6"/>
   </g>
   <g id="patch_5">
    <path d="M 128.273022 231.827324 
L 136.922173 231.827324 
L 136.922173 228.912393 
L 128.273022 228.912393 
z
" clip-path="url(#p896d6d97e1)" style="fill: #86b0a6"/>
   </g>
   <g id="patch_6">
    <path d="M 140.381833 231.827324 
L 149.030985 231.827324 
L 149.030985 229.972368 
L 140.381833 229.972368 
z
" clip-path="url(#p896d6d97e1)" style="fill: #86b0a6"/>
   </g>
   <g id="patch_7">
    <path d="M 152.490645 231.827324 
L 161.139797 231.827324 
L 161.139797 228.735731 
L 152.490645 228.735731 
z
" clip-path="url(#p896d6d97e1)" style="fill: #86b0a6"/>
   </g>
   <g id="patch_8">
    <path d="M 164.599457 231.827324 
L 173.248609 231.827324 
L 173.248609 230.590687 
L 164.599457 230.590687 
z
" clip-path="url(#p896d6d97e1)" style="fill: #86b0a6"/>
   </g>
   <g id="patch_9">
    <path d="M 176.708269 231.827324 
L 185.357421 231.827324 
L 185.357421 229.972368 
L 176.708269 229.972368 
z
" clip-path="url(#p896d6d97e1)" style="fill: #86b0a6"/>
   </g>
   <g id="patch_10">
    <path d="M 188.817081 231.827324 
L 197.466232 231.827324 
L 197.466232 225.8208 
L 188.817081 225.8208 
z
" clip-path="url(#p896d6d97e1)" style="fill: #86b0a6"/>
   </g>
   <g id="patch_11">
    <path d="M 200.925893 231.827324 
L 209.575044 231.827324 
L 209.575044 225.467475 
L 200.925893 225.467475 
z
" clip-path="url(#p896d6d97e1)" style="fill: #86b0a6"/>
   </g>
   <g id="patch_12">
    <path d="M 213.034705 231.827324 
L 221.683856 231.827324 
L 221.683856 221.404238 
L 213.034705 221.404238 
z
" clip-path="url(#p896d6d97e1)" style="fill: #86b0a6"/>
   </g>
   <g id="patch_13">
    <path d="M 225.143517 231.827324 
L 233.792668 231.827324 
L 233.792668 224.142506 
L 225.143517 224.142506 
z
" clip-path="url(#p896d6d97e1)" style="fill: #86b0a6"/>
   </g>
   <g id="patch_14">
    <path d="M 237.252329 231.827324 
L 245.90148 231.827324 
L 245.90148 219.372619 
L 237.252329 219.372619 
z
" clip-path="url(#p896d6d97e1)" style="fill: #86b0a6"/>
   </g>
   <g id="patch_15">
    <path d="M 249.361141 231.827324 
L 258.010292 231.827324 
L 258.010292 218.224313 
L 249.361141 218.224313 
z
" clip-path="url(#p896d6d97e1)" style="fill: #86b0a6"/>
   </g>
   <g id="patch_16">
    <path d="M 261.469952 231.827324 
L 270.119104 231.827324 
L 270.119104 217.870988 
L 261.469952 217.870988 
z
" clip-path="url(#p896d6d97e1)" style="fill: #86b0a6"/>
   </g>
   <g id="patch_17">
    <path d="M 273.578764 231.827324 
L 282.227916 231.827324 
L 282.227916 212.041126 
L 273.578764 212.041126 
z
" clip-path="url(#p896d6d97e1)" style="fill: #86b0a6"/>
   </g>
   <g id="patch_18">
    <path d="M 285.687576 231.827324 
L 294.336728 231.827324 
L 294.336728 204.886295 
L 285.687576 204.886295 
z
" clip-path="url(#p896d6d97e1)" style="fill: #86b0a6"/>
   </g>
   <g id="patch_19">
    <path d="M 297.796388 231.827324 
L 306.44554 231.827324 
L 306.44554 195.788177 
L 297.796388 195.788177 
z
" clip-path="url(#p896d6d97e1)" style="fill: #86b0a6"/>
   </g>
   <g id="patch_20">
    <path d="M 309.9052 231.827324 
L 318.554351 231.827324 
L 318.554351 184.040122 
L 309.9052 184.040122 
z
" clip-path="url(#p896d6d97e1)" style="fill: #86b0a6"/>
   </g>
   <g id="patch_21">
    <path d="M 322.014012 231.827324 
L 330.663163 231.827324 
L 330.663163 167.787174 
L 322.014012 167.787174 
z
" clip-path="url(#p896d6d97e1)" style="fill: #86b0a6"/>
   </g>
   <g id="patch_22">
    <path d="M 334.122824 231.827324 
L 342.771975 231.827324 
L 342.771975 163.458943 
L 334.122824 163.458943 
z
" clip-path="url(#p896d6d97e1)" style="fill: #86b0a6"/>
   </g>
   <g id="patch_23">
    <path d="M 346.231636 231.827324 
L 354.880787 231.827324 
L 354.880787 176.001979 
L 346.231636 176.001979 
z
" clip-path="url(#p896d6d97e1)" style="fill: #86b0a6"/>
   </g>
   <g id="patch_24">
    <path d="M 358.340448 231.827324 
L 366.989599 231.827324 
L 366.989599 150.650913 
L 358.340448 150.650913 
z
" clip-path="url(#p896d6d97e1)" style="fill: #86b0a6"/>
   </g>
   <g id="patch_25">
    <path d="M 370.44926 231.827324 
L 379.098411 231.827324 
L 379.098411 160.45568 
L 370.44926 160.45568 
z
" clip-path="url(#p896d6d97e1)" style="fill: #86b0a6"/>
   </g>
   <g id="patch_26">
    <path d="M 382.558072 231.827324 
L 391.207223 231.827324 
L 391.207223 134.662958 
L 382.558072 134.662958 
z
" clip-path="url(#p896d6d97e1)" style="fill: #86b0a6"/>
   </g>
   <g id="patch_27">
    <path d="M 394.666883 231.827324 
L 403.316035 231.827324 
L 403.316035 131.394702 
L 394.666883 131.394702 
z
" clip-path="url(#p896d6d97e1)" style="fill: #86b0a6"/>
   </g>
   <g id="patch_28">
    <path d="M 406.775695 231.827324 
L 415.424847 231.827324 
L 415.424847 115.936734 
L 406.775695 115.936734 
z
" clip-path="url(#p896d6d97e1)" style="fill: #86b0a6"/>
   </g>
   <g id="patch_29">
    <path d="M 418.884507 231.827324 
L 427.533659 231.827324 
L 427.533659 91.822305 
L 418.884507 91.822305 
z
" clip-path="url(#p896d6d97e1)" style="fill: #86b0a6"/>
   </g>
   <g id="patch_30">
    <path d="M 430.993319 231.827324 
L 439.642471 231.827324 
L 439.642471 60.023058 
L 430.993319 60.023058 
z
" clip-path="url(#p896d6d97e1)" style="fill: #86b0a6"/>
   </g>
   <g id="patch_31">
    <path d="M 443.102131 231.827324 
L 451.751282 231.827324 
L 451.751282 32.287048 
L 443.102131 32.287048 
z
" clip-path="url(#p896d6d97e1)" style="fill: #86b0a6"/>
   </g>
   <g id="patch_32">
    <path d="M 455.210943 231.827324 
L 463.860094 231.827324 
L 463.860094 49.246647 
L 455.210943 49.246647 
z
" clip-path="url(#p896d6d97e1)" style="fill: #86b0a6"/>
   </g>
   <g id="patch_33">
    <path d="M 467.319755 231.827324 
L 475.968906 231.827324 
L 475.968906 20.627324 
L 467.319755 20.627324 
z
" clip-path="url(#p896d6d97e1)" style="fill: #86b0a6"/>
   </g>
   <g id="patch_34">
    <path d="M 479.428567 231.827324 
L 488.077718 231.827324 
L 488.077718 69.739495 
L 479.428567 69.739495 
z
" clip-path="url(#p896d6d97e1)" style="fill: #86b0a6"/>
   </g>
   <g id="patch_35">
    <path d="M 491.537379 231.827324 
L 500.18653 231.827324 
L 500.18653 63.997964 
L 491.537379 63.997964 
z
" clip-path="url(#p896d6d97e1)" style="fill: #86b0a6"/>
   </g>
   <g id="patch_36">
    <path d="M 503.646191 231.827324 
L 512.295342 231.827324 
L 512.295342 99.507123 
L 503.646191 99.507123 
z
" clip-path="url(#p896d6d97e1)" style="fill: #86b0a6"/>
   </g>
   <g id="patch_37">
    <path d="M 515.755002 231.827324 
L 524.404154 231.827324 
L 524.404154 90.76233 
L 515.755002 90.76233 
z
" clip-path="url(#p896d6d97e1)" style="fill: #86b0a6"/>
   </g>
   <g id="patch_38">
    <path d="M 527.863814 231.827324 
L 536.512966 231.827324 
L 536.512966 104.542004 
L 527.863814 104.542004 
z
" clip-path="url(#p896d6d97e1)" style="fill: #86b0a6"/>
   </g>
   <g id="patch_39">
    <path d="M 539.972626 231.827324 
L 548.621778 231.827324 
L 548.621778 133.602983 
L 539.972626 133.602983 
z
" clip-path="url(#p896d6d97e1)" style="fill: #86b0a6"/>
   </g>
   <g id="patch_40">
    <path d="M 552.081438 231.827324 
L 560.73059 231.827324 
L 560.73059 153.30085 
L 552.081438 153.30085 
z
" clip-path="url(#p896d6d97e1)" style="fill: #86b0a6"/>
   </g>
   <g id="patch_41">
    <path d="M 564.19025 231.827324 
L 572.839401 231.827324 
L 572.839401 149.325944 
L 564.19025 149.325944 
z
" clip-path="url(#p896d6d97e1)" style="fill: #86b0a6"/>
   </g>
   <g id="patch_42">
    <path d="M 576.299062 231.827324 
L 584.948213 231.827324 
L 584.948213 160.45568 
L 576.299062 160.45568 
z
" clip-path="url(#p896d6d97e1)" style="fill: #86b0a6"/>
   </g>
   <g id="patch_43">
    <path d="M 588.407874 231.827324 
L 597.057025 231.827324 
L 597.057025 168.140499 
L 588.407874 168.140499 
z
" clip-path="url(#p896d6d97e1)" style="fill: #86b0a6"/>
   </g>
   <g id="patch_44">
    <path d="M 600.516686 231.827324 
L 609.165837 231.827324 
L 609.165837 180.418541 
L 600.516686 180.418541 
z
" clip-path="url(#p896d6d97e1)" style="fill: #86b0a6"/>
   </g>
   <g id="patch_45">
    <path d="M 612.625498 231.827324 
L 621.274649 231.827324 
L 621.274649 163.28228 
L 612.625498 163.28228 
z
" clip-path="url(#p896d6d97e1)" style="fill: #86b0a6"/>
   </g>
   <g id="patch_46">
    <path d="M 624.73431 231.827324 
L 633.383461 231.827324 
L 633.383461 148.442632 
L 624.73431 148.442632 
z
" clip-path="url(#p896d6d97e1)" style="fill: #86b0a6"/>
   </g>
   <g id="patch_47">
    <path d="M 636.843122 231.827324 
L 645.492273 231.827324 
L 645.492273 163.635605 
L 636.843122 163.635605 
z
" clip-path="url(#p896d6d97e1)" style="fill: #86b0a6"/>
   </g>
   <g id="patch_48">
    <path d="M 648.951933 231.827324 
L 657.601085 231.827324 
L 657.601085 174.942004 
L 648.951933 174.942004 
z
" clip-path="url(#p896d6d97e1)" style="fill: #86b0a6"/>
   </g>
   <g id="patch_49">
    <path d="M 661.060745 231.827324 
L 669.709897 231.827324 
L 669.709897 189.163334 
L 661.060745 189.163334 
z
" clip-path="url(#p896d6d97e1)" style="fill: #86b0a6"/>
   </g>
   <g id="patch_50">
    <path d="M 673.169557 231.827324 
L 681.818709 231.827324 
L 681.818709 204.444639 
L 673.169557 204.444639 
z
" clip-path="url(#p896d6d97e1)" style="fill: #86b0a6"/>
   </g>
   <g id="patch_51">
    <path d="M 685.278369 231.827324 
L 693.92752 231.827324 
L 693.92752 211.157813 
L 685.278369 211.157813 
z
" clip-path="url(#p896d6d97e1)" style="fill: #86b0a6"/>
   </g>
   <g id="patch_52">
    <path d="M 697.387181 231.827324 
L 706.036332 231.827324 
L 706.036332 219.46095 
L 697.387181 219.46095 
z
" clip-path="url(#p896d6d97e1)" style="fill: #86b0a6"/>
   </g>
   <g id="patch_53">
    <path d="M 709.495993 231.827324 
L 718.145144 231.827324 
L 718.145144 224.142506 
L 709.495993 224.142506 
z
" clip-path="url(#p896d6d97e1)" style="fill: #86b0a6"/>
   </g>
   <g id="patch_54">
    <path d="M 721.604805 231.827324 
L 730.253956 231.827324 
L 730.253956 227.145768 
L 721.604805 227.145768 
z
" clip-path="url(#p896d6d97e1)" style="fill: #86b0a6"/>
   </g>
   <g id="patch_55">
    <path d="M 733.713617 231.827324 
L 742.362768 231.827324 
L 742.362768 228.559068 
L 733.713617 228.559068 
z
" clip-path="url(#p896d6d97e1)" style="fill: #86b0a6"/>
   </g>
   <g id="patch_56">
    <path d="M 745.822429 231.827324 
L 754.47158 231.827324 
L 754.47158 229.972368 
L 745.822429 229.972368 
z
" clip-path="url(#p896d6d97e1)" style="fill: #86b0a6"/>
   </g>
   <g id="patch_57">
    <path d="M 757.931241 231.827324 
L 766.580392 231.827324 
L 766.580392 230.944012 
L 757.931241 230.944012 
z
" clip-path="url(#p896d6d97e1)" style="fill: #86b0a6"/>
   </g>
   <g id="patch_58">
    <path d="M 770.040052 231.827324 
L 778.689204 231.827324 
L 778.689204 230.767349 
L 770.040052 230.767349 
z
" clip-path="url(#p896d6d97e1)" style="fill: #86b0a6"/>
   </g>
   <g id="patch_59">
    <path d="M 782.148864 231.827324 
L 790.798016 231.827324 
L 790.798016 231.56233 
L 782.148864 231.56233 
z
" clip-path="url(#p896d6d97e1)" style="fill: #86b0a6"/>
   </g>
   <g id="patch_60">
    <path d="M 794.257676 231.827324 
L 802.906828 231.827324 
L 802.906828 227.587425 
L 794.257676 227.587425 
z
" clip-path="url(#p896d6d97e1)" style="fill: #86b0a6"/>
   </g>
   <g id="patch_61">
    <path d="M 806.366488 231.827324 
L 815.01564 231.827324 
L 815.01564 230.944012 
L 806.366488 230.944012 
z
" clip-path="url(#p896d6d97e1)" style="fill: #86b0a6"/>
   </g>
   <g id="patch_62">
    <path d="M 818.4753 231.827324 
L 827.124451 231.827324 
L 827.124451 231.385668 
L 818.4753 231.385668 
z
" clip-path="url(#p896d6d97e1)" style="fill: #86b0a6"/>
   </g>
   <g id="patch_63">
    <path d="M 830.584112 231.827324 
L 839.233263 231.827324 
L 839.233263 231.473999 
L 830.584112 231.473999 
z
" clip-path="url(#p896d6d97e1)" style="fill: #86b0a6"/>
   </g>
   <g id="patch_64">
    <path d="M 842.692924 231.827324 
L 851.342075 231.827324 
L 851.342075 231.56233 
L 842.692924 231.56233 
z
" clip-path="url(#p896d6d97e1)" style="fill: #86b0a6"/>
   </g>
   <g id="patch_65">
    <path d="M 854.801736 231.827324 
L 863.450887 231.827324 
L 863.450887 231.297337 
L 854.801736 231.297337 
z
" clip-path="url(#p896d6d97e1)" style="fill: #86b0a6"/>
   </g>
   <g id="patch_66">
    <path d="M 866.910548 231.827324 
L 875.559699 231.827324 
L 875.559699 231.738993 
L 866.910548 231.738993 
z
" clip-path="url(#p896d6d97e1)" style="fill: #86b0a6"/>
   </g>
   <g id="patch_67">
    <path d="M 879.01936 231.827324 
L 887.668511 231.827324 
L 887.668511 231.650662 
L 879.01936 231.650662 
z
" clip-path="url(#p896d6d97e1)" style="fill: #86b0a6"/>
   </g>
   <g id="patch_68">
    <path d="M 891.128172 231.827324 
L 899.777323 231.827324 
L 899.777323 231.56233 
L 891.128172 231.56233 
z
" clip-path="url(#p896d6d97e1)" style="fill: #86b0a6"/>
   </g>
   <g id="patch_69">
    <path d="M 903.236983 231.827324 
L 911.886135 231.827324 
L 911.886135 231.738993 
L 903.236983 231.738993 
z
" clip-path="url(#p896d6d97e1)" style="fill: #86b0a6"/>
   </g>
   <g id="patch_70">
    <path d="M 915.345795 231.827324 
L 923.994947 231.827324 
L 923.994947 231.738993 
L 915.345795 231.738993 
z
" clip-path="url(#p896d6d97e1)" style="fill: #86b0a6"/>
   </g>
   <g id="patch_71">
    <path d="M 939.563419 231.827324 
L 948.21257 231.827324 
L 948.21257 231.738993 
L 939.563419 231.738993 
z
" clip-path="url(#p896d6d97e1)" style="fill: #86b0a6"/>
   </g>
   <g id="patch_72">
    <path d="M 951.672231 231.827324 
L 960.321382 231.827324 
L 960.321382 231.738993 
L 951.672231 231.738993 
z
" clip-path="url(#p896d6d97e1)" style="fill: #86b0a6"/>
   </g>
   <g id="patch_73">
    <path d="M 975.889855 231.827324 
L 984.539006 231.827324 
L 984.539006 231.650662 
L 975.889855 231.650662 
z
" clip-path="url(#p896d6d97e1)" style="fill: #86b0a6"/>
   </g>
   <g id="patch_74">
    <path d="M 1024.325102 231.827324 
L 1032.974254 231.827324 
L 1032.974254 231.738993 
L 1024.325102 231.738993 
z
" clip-path="url(#p896d6d97e1)" style="fill: #86b0a6"/>
   </g>
   <g id="patch_75">
    <path d="M 1036.433914 231.827324 
L 1045.083066 231.827324 
L 1045.083066 231.738993 
L 1036.433914 231.738993 
z
" clip-path="url(#p896d6d97e1)" style="fill: #86b0a6"/>
   </g>
   <g id="patch_76">
    <path d="M 1048.542726 231.827324 
L 1057.191878 231.827324 
L 1057.191878 231.738993 
L 1048.542726 231.738993 
z
" clip-path="url(#p896d6d97e1)" style="fill: #86b0a6"/>
   </g>
   <g id="patch_77">
    <path d="M 1072.76035 231.827324 
L 1081.409501 231.827324 
L 1081.409501 231.650662 
L 1072.76035 231.650662 
z
" clip-path="url(#p896d6d97e1)" style="fill: #86b0a6"/>
   </g>
   <g id="patch_78">
    <path d="M 1084.869162 231.827324 
L 1093.518313 231.827324 
L 1093.518313 231.738993 
L 1084.869162 231.738993 
z
" clip-path="url(#p896d6d97e1)" style="fill: #86b0a6"/>
   </g>
   <g id="patch_79">
    <path d="M 1109.086786 231.827324 
L 1117.735937 231.827324 
L 1117.735937 231.738993 
L 1109.086786 231.738993 
z
" clip-path="url(#p896d6d97e1)" style="fill: #86b0a6"/>
   </g>
   <g id="matplotlib.axis_1">
    <g id="xtick_1">
     <g id="line2d_1">
      <defs>
       <path id="m9b231b2e6e" d="M 0 0 
L 0 3.5 
" style="stroke: #000000; stroke-width: 0.8"/>
      </defs>
      <g>
       <use xlink:href="#m9b231b2e6e" x="111.839634" y="231.827324" style="stroke: #000000; stroke-width: 0.8"/>
      </g>
     </g>
     <g id="text_1">
      <!-- 2020-09 -->
      <g transform="translate(114.599009 280.610137)rotate(-90)scale(0.1 -0.1)">
       <defs>
        <path id="DejaVuSans-32" d="M 1228 531 
L 3431 531 
L 3431 0 
L 469 0 
L 469 531 
Q 828 903 1448 1529 
Q 2069 2156 2228 2338 
Q 2531 2678 2651 2914 
Q 2772 3150 2772 3378 
Q 2772 3750 2511 3984 
Q 2250 4219 1831 4219 
Q 1534 4219 1204 4116 
Q 875 4013 500 3803 
L 500 4441 
Q 881 4594 1212 4672 
Q 1544 4750 1819 4750 
Q 2544 4750 2975 4387 
Q 3406 4025 3406 3419 
Q 3406 3131 3298 2873 
Q 3191 2616 2906 2266 
Q 2828 2175 2409 1742 
Q 1991 1309 1228 531 
z
" transform="scale(0.015625)"/>
        <path id="DejaVuSans-30" d="M 2034 4250 
Q 1547 4250 1301 3770 
Q 1056 3291 1056 2328 
Q 1056 1369 1301 889 
Q 1547 409 2034 409 
Q 2525 409 2770 889 
Q 3016 1369 3016 2328 
Q 3016 3291 2770 3770 
Q 2525 4250 2034 4250 
z
M 2034 4750 
Q 2819 4750 3233 4129 
Q 3647 3509 3647 2328 
Q 3647 1150 3233 529 
Q 2819 -91 2034 -91 
Q 1250 -91 836 529 
Q 422 1150 422 2328 
Q 422 3509 836 4129 
Q 1250 4750 2034 4750 
z
" transform="scale(0.015625)"/>
        <path id="DejaVuSans-2d" d="M 313 2009 
L 1997 2009 
L 1997 1497 
L 313 1497 
L 313 2009 
z
" transform="scale(0.015625)"/>
        <path id="DejaVuSans-39" d="M 703 97 
L 703 672 
Q 941 559 1184 500 
Q 1428 441 1663 441 
Q 2288 441 2617 861 
Q 2947 1281 2994 2138 
Q 2813 1869 2534 1725 
Q 2256 1581 1919 1581 
Q 1219 1581 811 2004 
Q 403 2428 403 3163 
Q 403 3881 828 4315 
Q 1253 4750 1959 4750 
Q 2769 4750 3195 4129 
Q 3622 3509 3622 2328 
Q 3622 1225 3098 567 
Q 2575 -91 1691 -91 
Q 1453 -91 1209 -44 
Q 966 3 703 97 
z
M 1959 2075 
Q 2384 2075 2632 2365 
Q 2881 2656 2881 3163 
Q 2881 3666 2632 3958 
Q 2384 4250 1959 4250 
Q 1534 4250 1286 3958 
Q 1038 3666 1038 3163 
Q 1038 2656 1286 2365 
Q 1534 2075 1959 2075 
z
" transform="scale(0.015625)"/>
       </defs>
       <use xlink:href="#DejaVuSans-32"/>
       <use xlink:href="#DejaVuSans-30" x="63.623047"/>
       <use xlink:href="#DejaVuSans-32" x="127.246094"/>
       <use xlink:href="#DejaVuSans-30" x="190.869141"/>
       <use xlink:href="#DejaVuSans-2d" x="254.492188"/>
       <use xlink:href="#DejaVuSans-30" x="290.576172"/>
       <use xlink:href="#DejaVuSans-39" x="354.199219"/>
      </g>
     </g>
    </g>
    <g id="xtick_2">
     <g id="line2d_2">
      <g>
       <use xlink:href="#m9b231b2e6e" x="217.359281" y="231.827324" style="stroke: #000000; stroke-width: 0.8"/>
      </g>
     </g>
     <g id="text_2">
      <!-- 2020-11 -->
      <g transform="translate(220.118656 280.610137)rotate(-90)scale(0.1 -0.1)">
       <defs>
        <path id="DejaVuSans-31" d="M 794 531 
L 1825 531 
L 1825 4091 
L 703 3866 
L 703 4441 
L 1819 4666 
L 2450 4666 
L 2450 531 
L 3481 531 
L 3481 0 
L 794 0 
L 794 531 
z
" transform="scale(0.015625)"/>
       </defs>
       <use xlink:href="#DejaVuSans-32"/>
       <use xlink:href="#DejaVuSans-30" x="63.623047"/>
       <use xlink:href="#DejaVuSans-32" x="127.246094"/>
       <use xlink:href="#DejaVuSans-30" x="190.869141"/>
       <use xlink:href="#DejaVuSans-2d" x="254.492188"/>
       <use xlink:href="#DejaVuSans-31" x="290.576172"/>
       <use xlink:href="#DejaVuSans-31" x="354.199219"/>
      </g>
     </g>
    </g>
    <g id="xtick_3">
     <g id="line2d_3">
      <g>
       <use xlink:href="#m9b231b2e6e" x="322.878927" y="231.827324" style="stroke: #000000; stroke-width: 0.8"/>
      </g>
     </g>
     <g id="text_3">
      <!-- 2021-01 -->
      <g transform="translate(325.638302 280.610137)rotate(-90)scale(0.1 -0.1)">
       <use xlink:href="#DejaVuSans-32"/>
       <use xlink:href="#DejaVuSans-30" x="63.623047"/>
       <use xlink:href="#DejaVuSans-32" x="127.246094"/>
       <use xlink:href="#DejaVuSans-31" x="190.869141"/>
       <use xlink:href="#DejaVuSans-2d" x="254.492188"/>
       <use xlink:href="#DejaVuSans-30" x="290.576172"/>
       <use xlink:href="#DejaVuSans-31" x="354.199219"/>
      </g>
     </g>
    </g>
    <g id="xtick_4">
     <g id="line2d_4">
      <g>
       <use xlink:href="#m9b231b2e6e" x="424.938913" y="231.827324" style="stroke: #000000; stroke-width: 0.8"/>
      </g>
     </g>
     <g id="text_4">
      <!-- 2021-03 -->
      <g transform="translate(427.698288 280.610137)rotate(-90)scale(0.1 -0.1)">
       <defs>
        <path id="DejaVuSans-33" d="M 2597 2516 
Q 3050 2419 3304 2112 
Q 3559 1806 3559 1356 
Q 3559 666 3084 287 
Q 2609 -91 1734 -91 
Q 1441 -91 1130 -33 
Q 819 25 488 141 
L 488 750 
Q 750 597 1062 519 
Q 1375 441 1716 441 
Q 2309 441 2620 675 
Q 2931 909 2931 1356 
Q 2931 1769 2642 2001 
Q 2353 2234 1838 2234 
L 1294 2234 
L 1294 2753 
L 1863 2753 
Q 2328 2753 2575 2939 
Q 2822 3125 2822 3475 
Q 2822 3834 2567 4026 
Q 2313 4219 1838 4219 
Q 1578 4219 1281 4162 
Q 984 4106 628 3988 
L 628 4550 
Q 988 4650 1302 4700 
Q 1616 4750 1894 4750 
Q 2613 4750 3031 4423 
Q 3450 4097 3450 3541 
Q 3450 3153 3228 2886 
Q 3006 2619 2597 2516 
z
" transform="scale(0.015625)"/>
       </defs>
       <use xlink:href="#DejaVuSans-32"/>
       <use xlink:href="#DejaVuSans-30" x="63.623047"/>
       <use xlink:href="#DejaVuSans-32" x="127.246094"/>
       <use xlink:href="#DejaVuSans-31" x="190.869141"/>
       <use xlink:href="#DejaVuSans-2d" x="254.492188"/>
       <use xlink:href="#DejaVuSans-30" x="290.576172"/>
       <use xlink:href="#DejaVuSans-33" x="354.199219"/>
      </g>
     </g>
    </g>
    <g id="xtick_5">
     <g id="line2d_5">
      <g>
       <use xlink:href="#m9b231b2e6e" x="530.45856" y="231.827324" style="stroke: #000000; stroke-width: 0.8"/>
      </g>
     </g>
     <g id="text_5">
      <!-- 2021-05 -->
      <g transform="translate(533.217935 280.610137)rotate(-90)scale(0.1 -0.1)">
       <defs>
        <path id="DejaVuSans-35" d="M 691 4666 
L 3169 4666 
L 3169 4134 
L 1269 4134 
L 1269 2991 
Q 1406 3038 1543 3061 
Q 1681 3084 1819 3084 
Q 2600 3084 3056 2656 
Q 3513 2228 3513 1497 
Q 3513 744 3044 326 
Q 2575 -91 1722 -91 
Q 1428 -91 1123 -41 
Q 819 9 494 109 
L 494 744 
Q 775 591 1075 516 
Q 1375 441 1709 441 
Q 2250 441 2565 725 
Q 2881 1009 2881 1497 
Q 2881 1984 2565 2268 
Q 2250 2553 1709 2553 
Q 1456 2553 1204 2497 
Q 953 2441 691 2322 
L 691 4666 
z
" transform="scale(0.015625)"/>
       </defs>
       <use xlink:href="#DejaVuSans-32"/>
       <use xlink:href="#DejaVuSans-30" x="63.623047"/>
       <use xlink:href="#DejaVuSans-32" x="127.246094"/>
       <use xlink:href="#DejaVuSans-31" x="190.869141"/>
       <use xlink:href="#DejaVuSans-2d" x="254.492188"/>
       <use xlink:href="#DejaVuSans-30" x="290.576172"/>
       <use xlink:href="#DejaVuSans-35" x="354.199219"/>
      </g>
     </g>
    </g>
    <g id="xtick_6">
     <g id="line2d_6">
      <g>
       <use xlink:href="#m9b231b2e6e" x="635.978206" y="231.827324" style="stroke: #000000; stroke-width: 0.8"/>
      </g>
     </g>
     <g id="text_6">
      <!-- 2021-07 -->
      <g transform="translate(638.737581 280.610137)rotate(-90)scale(0.1 -0.1)">
       <defs>
        <path id="DejaVuSans-37" d="M 525 4666 
L 3525 4666 
L 3525 4397 
L 1831 0 
L 1172 0 
L 2766 4134 
L 525 4134 
L 525 4666 
z
" transform="scale(0.015625)"/>
       </defs>
       <use xlink:href="#DejaVuSans-32"/>
       <use xlink:href="#DejaVuSans-30" x="63.623047"/>
       <use xlink:href="#DejaVuSans-32" x="127.246094"/>
       <use xlink:href="#DejaVuSans-31" x="190.869141"/>
       <use xlink:href="#DejaVuSans-2d" x="254.492188"/>
       <use xlink:href="#DejaVuSans-30" x="290.576172"/>
       <use xlink:href="#DejaVuSans-37" x="354.199219"/>
      </g>
     </g>
    </g>
    <g id="xtick_7">
     <g id="line2d_7">
      <g>
       <use xlink:href="#m9b231b2e6e" x="743.227683" y="231.827324" style="stroke: #000000; stroke-width: 0.8"/>
      </g>
     </g>
     <g id="text_7">
      <!-- 2021-09 -->
      <g transform="translate(745.987058 280.610137)rotate(-90)scale(0.1 -0.1)">
       <use xlink:href="#DejaVuSans-32"/>
       <use xlink:href="#DejaVuSans-30" x="63.623047"/>
       <use xlink:href="#DejaVuSans-32" x="127.246094"/>
       <use xlink:href="#DejaVuSans-31" x="190.869141"/>
       <use xlink:href="#DejaVuSans-2d" x="254.492188"/>
       <use xlink:href="#DejaVuSans-30" x="290.576172"/>
       <use xlink:href="#DejaVuSans-39" x="354.199219"/>
      </g>
     </g>
    </g>
    <g id="xtick_8">
     <g id="line2d_8">
      <g>
       <use xlink:href="#m9b231b2e6e" x="848.74733" y="231.827324" style="stroke: #000000; stroke-width: 0.8"/>
      </g>
     </g>
     <g id="text_8">
      <!-- 2021-11 -->
      <g transform="translate(851.506705 280.610137)rotate(-90)scale(0.1 -0.1)">
       <use xlink:href="#DejaVuSans-32"/>
       <use xlink:href="#DejaVuSans-30" x="63.623047"/>
       <use xlink:href="#DejaVuSans-32" x="127.246094"/>
       <use xlink:href="#DejaVuSans-31" x="190.869141"/>
       <use xlink:href="#DejaVuSans-2d" x="254.492188"/>
       <use xlink:href="#DejaVuSans-31" x="290.576172"/>
       <use xlink:href="#DejaVuSans-31" x="354.199219"/>
      </g>
     </g>
    </g>
    <g id="xtick_9">
     <g id="line2d_9">
      <g>
       <use xlink:href="#m9b231b2e6e" x="954.266976" y="231.827324" style="stroke: #000000; stroke-width: 0.8"/>
      </g>
     </g>
     <g id="text_9">
      <!-- 2022-01 -->
      <g transform="translate(957.026351 280.610137)rotate(-90)scale(0.1 -0.1)">
       <use xlink:href="#DejaVuSans-32"/>
       <use xlink:href="#DejaVuSans-30" x="63.623047"/>
       <use xlink:href="#DejaVuSans-32" x="127.246094"/>
       <use xlink:href="#DejaVuSans-32" x="190.869141"/>
       <use xlink:href="#DejaVuSans-2d" x="254.492188"/>
       <use xlink:href="#DejaVuSans-30" x="290.576172"/>
       <use xlink:href="#DejaVuSans-31" x="354.199219"/>
      </g>
     </g>
    </g>
    <g id="xtick_10">
     <g id="line2d_10">
      <g>
       <use xlink:href="#m9b231b2e6e" x="1056.326962" y="231.827324" style="stroke: #000000; stroke-width: 0.8"/>
      </g>
     </g>
     <g id="text_10">
      <!-- 2022-03 -->
      <g transform="translate(1059.086337 280.610137)rotate(-90)scale(0.1 -0.1)">
       <use xlink:href="#DejaVuSans-32"/>
       <use xlink:href="#DejaVuSans-30" x="63.623047"/>
       <use xlink:href="#DejaVuSans-32" x="127.246094"/>
       <use xlink:href="#DejaVuSans-32" x="190.869141"/>
       <use xlink:href="#DejaVuSans-2d" x="254.492188"/>
       <use xlink:href="#DejaVuSans-30" x="290.576172"/>
       <use xlink:href="#DejaVuSans-33" x="354.199219"/>
      </g>
     </g>
    </g>
    <g id="xtick_11">
     <g id="line2d_11">
      <g>
       <use xlink:href="#m9b231b2e6e" x="1161.846609" y="231.827324" style="stroke: #000000; stroke-width: 0.8"/>
      </g>
     </g>
     <g id="text_11">
      <!-- 2022-05 -->
      <g transform="translate(1164.605984 280.610137)rotate(-90)scale(0.1 -0.1)">
       <use xlink:href="#DejaVuSans-32"/>
       <use xlink:href="#DejaVuSans-30" x="63.623047"/>
       <use xlink:href="#DejaVuSans-32" x="127.246094"/>
       <use xlink:href="#DejaVuSans-32" x="190.869141"/>
       <use xlink:href="#DejaVuSans-2d" x="254.492188"/>
       <use xlink:href="#DejaVuSans-30" x="290.576172"/>
       <use xlink:href="#DejaVuSans-35" x="354.199219"/>
      </g>
     </g>
    </g>
    <g id="text_12">
     <!-- Date -->
     <g transform="translate(599.377344 292.208574)scale(0.1 -0.1)">
      <defs>
       <path id="DejaVuSans-44" d="M 1259 4147 
L 1259 519 
L 2022 519 
Q 2988 519 3436 956 
Q 3884 1394 3884 2338 
Q 3884 3275 3436 3711 
Q 2988 4147 2022 4147 
L 1259 4147 
z
M 628 4666 
L 1925 4666 
Q 3281 4666 3915 4102 
Q 4550 3538 4550 2338 
Q 4550 1131 3912 565 
Q 3275 0 1925 0 
L 628 0 
L 628 4666 
z
" transform="scale(0.015625)"/>
       <path id="DejaVuSans-61" d="M 2194 1759 
Q 1497 1759 1228 1600 
Q 959 1441 959 1056 
Q 959 750 1161 570 
Q 1363 391 1709 391 
Q 2188 391 2477 730 
Q 2766 1069 2766 1631 
L 2766 1759 
L 2194 1759 
z
M 3341 1997 
L 3341 0 
L 2766 0 
L 2766 531 
Q 2569 213 2275 61 
Q 1981 -91 1556 -91 
Q 1019 -91 701 211 
Q 384 513 384 1019 
Q 384 1609 779 1909 
Q 1175 2209 1959 2209 
L 2766 2209 
L 2766 2266 
Q 2766 2663 2505 2880 
Q 2244 3097 1772 3097 
Q 1472 3097 1187 3025 
Q 903 2953 641 2809 
L 641 3341 
Q 956 3463 1253 3523 
Q 1550 3584 1831 3584 
Q 2591 3584 2966 3190 
Q 3341 2797 3341 1997 
z
" transform="scale(0.015625)"/>
       <path id="DejaVuSans-74" d="M 1172 4494 
L 1172 3500 
L 2356 3500 
L 2356 3053 
L 1172 3053 
L 1172 1153 
Q 1172 725 1289 603 
Q 1406 481 1766 481 
L 2356 481 
L 2356 0 
L 1766 0 
Q 1100 0 847 248 
Q 594 497 594 1153 
L 594 3053 
L 172 3053 
L 172 3500 
L 594 3500 
L 594 4494 
L 1172 4494 
z
" transform="scale(0.015625)"/>
       <path id="DejaVuSans-65" d="M 3597 1894 
L 3597 1613 
L 953 1613 
Q 991 1019 1311 708 
Q 1631 397 2203 397 
Q 2534 397 2845 478 
Q 3156 559 3463 722 
L 3463 178 
Q 3153 47 2828 -22 
Q 2503 -91 2169 -91 
Q 1331 -91 842 396 
Q 353 884 353 1716 
Q 353 2575 817 3079 
Q 1281 3584 2069 3584 
Q 2775 3584 3186 3129 
Q 3597 2675 3597 1894 
z
M 3022 2063 
Q 3016 2534 2758 2815 
Q 2500 3097 2075 3097 
Q 1594 3097 1305 2825 
Q 1016 2553 972 2059 
L 3022 2063 
z
" transform="scale(0.015625)"/>
      </defs>
      <use xlink:href="#DejaVuSans-44"/>
      <use xlink:href="#DejaVuSans-61" x="77.001953"/>
      <use xlink:href="#DejaVuSans-74" x="138.28125"/>
      <use xlink:href="#DejaVuSans-65" x="177.490234"/>
     </g>
    </g>
   </g>
   <g id="matplotlib.axis_2">
    <g id="ytick_1">
     <g id="line2d_12">
      <defs>
       <path id="m9232871378" d="M 0 0 
L -3.5 0 
" style="stroke: #000000; stroke-width: 0.8"/>
      </defs>
      <g>
       <use xlink:href="#m9232871378" x="53.328125" y="231.827324" style="stroke: #000000; stroke-width: 0.8"/>
      </g>
     </g>
     <g id="text_13">
      <!-- 0 -->
      <g transform="translate(39.965625 235.626543)scale(0.1 -0.1)">
       <use xlink:href="#DejaVuSans-30"/>
      </g>
     </g>
    </g>
    <g id="ytick_2">
     <g id="line2d_13">
      <g>
       <use xlink:href="#m9232871378" x="53.328125" y="187.661703" style="stroke: #000000; stroke-width: 0.8"/>
      </g>
     </g>
     <g id="text_14">
      <!-- 500 -->
      <g transform="translate(27.240625 191.460922)scale(0.1 -0.1)">
       <use xlink:href="#DejaVuSans-35"/>
       <use xlink:href="#DejaVuSans-30" x="63.623047"/>
       <use xlink:href="#DejaVuSans-30" x="127.246094"/>
      </g>
     </g>
    </g>
    <g id="ytick_3">
     <g id="line2d_14">
      <g>
       <use xlink:href="#m9232871378" x="53.328125" y="143.496082" style="stroke: #000000; stroke-width: 0.8"/>
      </g>
     </g>
     <g id="text_15">
      <!-- 1000 -->
      <g transform="translate(20.878125 147.295301)scale(0.1 -0.1)">
       <use xlink:href="#DejaVuSans-31"/>
       <use xlink:href="#DejaVuSans-30" x="63.623047"/>
       <use xlink:href="#DejaVuSans-30" x="127.246094"/>
       <use xlink:href="#DejaVuSans-30" x="190.869141"/>
      </g>
     </g>
    </g>
    <g id="ytick_4">
     <g id="line2d_15">
      <g>
       <use xlink:href="#m9232871378" x="53.328125" y="99.330461" style="stroke: #000000; stroke-width: 0.8"/>
      </g>
     </g>
     <g id="text_16">
      <!-- 1500 -->
      <g transform="translate(20.878125 103.12968)scale(0.1 -0.1)">
       <use xlink:href="#DejaVuSans-31"/>
       <use xlink:href="#DejaVuSans-35" x="63.623047"/>
       <use xlink:href="#DejaVuSans-30" x="127.246094"/>
       <use xlink:href="#DejaVuSans-30" x="190.869141"/>
      </g>
     </g>
    </g>
    <g id="ytick_5">
     <g id="line2d_16">
      <g>
       <use xlink:href="#m9232871378" x="53.328125" y="55.16484" style="stroke: #000000; stroke-width: 0.8"/>
      </g>
     </g>
     <g id="text_17">
      <!-- 2000 -->
      <g transform="translate(20.878125 58.964059)scale(0.1 -0.1)">
       <use xlink:href="#DejaVuSans-32"/>
       <use xlink:href="#DejaVuSans-30" x="63.623047"/>
       <use xlink:href="#DejaVuSans-30" x="127.246094"/>
       <use xlink:href="#DejaVuSans-30" x="190.869141"/>
      </g>
     </g>
    </g>
    <g id="ytick_6">
     <g id="line2d_17">
      <g>
       <use xlink:href="#m9232871378" x="53.328125" y="10.999219" style="stroke: #000000; stroke-width: 0.8"/>
      </g>
     </g>
     <g id="text_18">
      <!-- 2500 -->
      <g transform="translate(20.878125 14.798437)scale(0.1 -0.1)">
       <use xlink:href="#DejaVuSans-32"/>
       <use xlink:href="#DejaVuSans-35" x="63.623047"/>
       <use xlink:href="#DejaVuSans-30" x="127.246094"/>
       <use xlink:href="#DejaVuSans-30" x="190.869141"/>
      </g>
     </g>
    </g>
    <g id="text_19">
     <!-- Sequence count -->
     <g transform="translate(14.798437 161.30748)rotate(-90)scale(0.1 -0.1)">
      <defs>
       <path id="DejaVuSans-53" d="M 3425 4513 
L 3425 3897 
Q 3066 4069 2747 4153 
Q 2428 4238 2131 4238 
Q 1616 4238 1336 4038 
Q 1056 3838 1056 3469 
Q 1056 3159 1242 3001 
Q 1428 2844 1947 2747 
L 2328 2669 
Q 3034 2534 3370 2195 
Q 3706 1856 3706 1288 
Q 3706 609 3251 259 
Q 2797 -91 1919 -91 
Q 1588 -91 1214 -16 
Q 841 59 441 206 
L 441 856 
Q 825 641 1194 531 
Q 1563 422 1919 422 
Q 2459 422 2753 634 
Q 3047 847 3047 1241 
Q 3047 1584 2836 1778 
Q 2625 1972 2144 2069 
L 1759 2144 
Q 1053 2284 737 2584 
Q 422 2884 422 3419 
Q 422 4038 858 4394 
Q 1294 4750 2059 4750 
Q 2388 4750 2728 4690 
Q 3069 4631 3425 4513 
z
" transform="scale(0.015625)"/>
       <path id="DejaVuSans-71" d="M 947 1747 
Q 947 1113 1208 752 
Q 1469 391 1925 391 
Q 2381 391 2643 752 
Q 2906 1113 2906 1747 
Q 2906 2381 2643 2742 
Q 2381 3103 1925 3103 
Q 1469 3103 1208 2742 
Q 947 2381 947 1747 
z
M 2906 525 
Q 2725 213 2448 61 
Q 2172 -91 1784 -91 
Q 1150 -91 751 415 
Q 353 922 353 1747 
Q 353 2572 751 3078 
Q 1150 3584 1784 3584 
Q 2172 3584 2448 3432 
Q 2725 3281 2906 2969 
L 2906 3500 
L 3481 3500 
L 3481 -1331 
L 2906 -1331 
L 2906 525 
z
" transform="scale(0.015625)"/>
       <path id="DejaVuSans-75" d="M 544 1381 
L 544 3500 
L 1119 3500 
L 1119 1403 
Q 1119 906 1312 657 
Q 1506 409 1894 409 
Q 2359 409 2629 706 
Q 2900 1003 2900 1516 
L 2900 3500 
L 3475 3500 
L 3475 0 
L 2900 0 
L 2900 538 
Q 2691 219 2414 64 
Q 2138 -91 1772 -91 
Q 1169 -91 856 284 
Q 544 659 544 1381 
z
M 1991 3584 
L 1991 3584 
z
" transform="scale(0.015625)"/>
       <path id="DejaVuSans-6e" d="M 3513 2113 
L 3513 0 
L 2938 0 
L 2938 2094 
Q 2938 2591 2744 2837 
Q 2550 3084 2163 3084 
Q 1697 3084 1428 2787 
Q 1159 2491 1159 1978 
L 1159 0 
L 581 0 
L 581 3500 
L 1159 3500 
L 1159 2956 
Q 1366 3272 1645 3428 
Q 1925 3584 2291 3584 
Q 2894 3584 3203 3211 
Q 3513 2838 3513 2113 
z
" transform="scale(0.015625)"/>
       <path id="DejaVuSans-63" d="M 3122 3366 
L 3122 2828 
Q 2878 2963 2633 3030 
Q 2388 3097 2138 3097 
Q 1578 3097 1268 2742 
Q 959 2388 959 1747 
Q 959 1106 1268 751 
Q 1578 397 2138 397 
Q 2388 397 2633 464 
Q 2878 531 3122 666 
L 3122 134 
Q 2881 22 2623 -34 
Q 2366 -91 2075 -91 
Q 1284 -91 818 406 
Q 353 903 353 1747 
Q 353 2603 823 3093 
Q 1294 3584 2113 3584 
Q 2378 3584 2631 3529 
Q 2884 3475 3122 3366 
z
" transform="scale(0.015625)"/>
       <path id="DejaVuSans-20" transform="scale(0.015625)"/>
       <path id="DejaVuSans-6f" d="M 1959 3097 
Q 1497 3097 1228 2736 
Q 959 2375 959 1747 
Q 959 1119 1226 758 
Q 1494 397 1959 397 
Q 2419 397 2687 759 
Q 2956 1122 2956 1747 
Q 2956 2369 2687 2733 
Q 2419 3097 1959 3097 
z
M 1959 3584 
Q 2709 3584 3137 3096 
Q 3566 2609 3566 1747 
Q 3566 888 3137 398 
Q 2709 -91 1959 -91 
Q 1206 -91 779 398 
Q 353 888 353 1747 
Q 353 2609 779 3096 
Q 1206 3584 1959 3584 
z
" transform="scale(0.015625)"/>
      </defs>
      <use xlink:href="#DejaVuSans-53"/>
      <use xlink:href="#DejaVuSans-65" x="63.476562"/>
      <use xlink:href="#DejaVuSans-71" x="125"/>
      <use xlink:href="#DejaVuSans-75" x="188.476562"/>
      <use xlink:href="#DejaVuSans-65" x="251.855469"/>
      <use xlink:href="#DejaVuSans-6e" x="313.378906"/>
      <use xlink:href="#DejaVuSans-63" x="376.757812"/>
      <use xlink:href="#DejaVuSans-65" x="431.738281"/>
      <use xlink:href="#DejaVuSans-20" x="493.261719"/>
      <use xlink:href="#DejaVuSans-63" x="525.048828"/>
      <use xlink:href="#DejaVuSans-6f" x="580.029297"/>
      <use xlink:href="#DejaVuSans-75" x="641.210938"/>
      <use xlink:href="#DejaVuSans-6e" x="704.589844"/>
      <use xlink:href="#DejaVuSans-74" x="767.96875"/>
     </g>
    </g>
   </g>
   <g id="patch_80">
    <path d="M 53.328125 231.827324 
L 53.328125 10.067324 
" style="fill: none; stroke: #000000; stroke-width: 0.8; stroke-linejoin: miter; stroke-linecap: square"/>
   </g>
   <g id="patch_81">
    <path d="M 1169.328125 231.827324 
L 1169.328125 10.067324 
" style="fill: none; stroke: #000000; stroke-width: 0.8; stroke-linejoin: miter; stroke-linecap: square"/>
   </g>
   <g id="patch_82">
    <path d="M 53.328125 231.827324 
L 1169.328125 231.827324 
" style="fill: none; stroke: #000000; stroke-width: 0.8; stroke-linejoin: miter; stroke-linecap: square"/>
   </g>
  </g>
  <g id="axes_2">
   <g id="matplotlib.axis_3">
    <g id="ytick_7">
     <g id="line2d_18">
      <defs>
       <path id="m45a9af9567" d="M 0 0 
L 3.5 0 
" style="stroke: #000000; stroke-width: 0.8"/>
      </defs>
      <g>
       <use xlink:href="#m45a9af9567" x="1169.328125" y="221.779132" style="stroke: #000000; stroke-width: 0.8"/>
      </g>
     </g>
     <g id="text_20">
      <!-- 0 -->
      <g transform="translate(1176.328125 225.578351)scale(0.1 -0.1)">
       <use xlink:href="#DejaVuSans-30"/>
      </g>
     </g>
    </g>
    <g id="ytick_8">
     <g id="line2d_19">
      <g>
       <use xlink:href="#m45a9af9567" x="1169.328125" y="195.272348" style="stroke: #000000; stroke-width: 0.8"/>
      </g>
     </g>
     <g id="text_21">
      <!-- 5000 -->
      <g transform="translate(1176.328125 199.071567)scale(0.1 -0.1)">
       <use xlink:href="#DejaVuSans-35"/>
       <use xlink:href="#DejaVuSans-30" x="63.623047"/>
       <use xlink:href="#DejaVuSans-30" x="127.246094"/>
       <use xlink:href="#DejaVuSans-30" x="190.869141"/>
      </g>
     </g>
    </g>
    <g id="ytick_9">
     <g id="line2d_20">
      <g>
       <use xlink:href="#m45a9af9567" x="1169.328125" y="168.765563" style="stroke: #000000; stroke-width: 0.8"/>
      </g>
     </g>
     <g id="text_22">
      <!-- 10000 -->
      <g transform="translate(1176.328125 172.564782)scale(0.1 -0.1)">
       <use xlink:href="#DejaVuSans-31"/>
       <use xlink:href="#DejaVuSans-30" x="63.623047"/>
       <use xlink:href="#DejaVuSans-30" x="127.246094"/>
       <use xlink:href="#DejaVuSans-30" x="190.869141"/>
       <use xlink:href="#DejaVuSans-30" x="254.492188"/>
      </g>
     </g>
    </g>
    <g id="ytick_10">
     <g id="line2d_21">
      <g>
       <use xlink:href="#m45a9af9567" x="1169.328125" y="142.258779" style="stroke: #000000; stroke-width: 0.8"/>
      </g>
     </g>
     <g id="text_23">
      <!-- 15000 -->
      <g transform="translate(1176.328125 146.057998)scale(0.1 -0.1)">
       <use xlink:href="#DejaVuSans-31"/>
       <use xlink:href="#DejaVuSans-35" x="63.623047"/>
       <use xlink:href="#DejaVuSans-30" x="127.246094"/>
       <use xlink:href="#DejaVuSans-30" x="190.869141"/>
       <use xlink:href="#DejaVuSans-30" x="254.492188"/>
      </g>
     </g>
    </g>
    <g id="ytick_11">
     <g id="line2d_22">
      <g>
       <use xlink:href="#m45a9af9567" x="1169.328125" y="115.751994" style="stroke: #000000; stroke-width: 0.8"/>
      </g>
     </g>
     <g id="text_24">
      <!-- 20000 -->
      <g transform="translate(1176.328125 119.551213)scale(0.1 -0.1)">
       <use xlink:href="#DejaVuSans-32"/>
       <use xlink:href="#DejaVuSans-30" x="63.623047"/>
       <use xlink:href="#DejaVuSans-30" x="127.246094"/>
       <use xlink:href="#DejaVuSans-30" x="190.869141"/>
       <use xlink:href="#DejaVuSans-30" x="254.492188"/>
      </g>
     </g>
    </g>
    <g id="ytick_12">
     <g id="line2d_23">
      <g>
       <use xlink:href="#m45a9af9567" x="1169.328125" y="89.24521" style="stroke: #000000; stroke-width: 0.8"/>
      </g>
     </g>
     <g id="text_25">
      <!-- 25000 -->
      <g transform="translate(1176.328125 93.044429)scale(0.1 -0.1)">
       <use xlink:href="#DejaVuSans-32"/>
       <use xlink:href="#DejaVuSans-35" x="63.623047"/>
       <use xlink:href="#DejaVuSans-30" x="127.246094"/>
       <use xlink:href="#DejaVuSans-30" x="190.869141"/>
       <use xlink:href="#DejaVuSans-30" x="254.492188"/>
      </g>
     </g>
    </g>
    <g id="ytick_13">
     <g id="line2d_24">
      <g>
       <use xlink:href="#m45a9af9567" x="1169.328125" y="62.738425" style="stroke: #000000; stroke-width: 0.8"/>
      </g>
     </g>
     <g id="text_26">
      <!-- 30000 -->
      <g transform="translate(1176.328125 66.537644)scale(0.1 -0.1)">
       <use xlink:href="#DejaVuSans-33"/>
       <use xlink:href="#DejaVuSans-30" x="63.623047"/>
       <use xlink:href="#DejaVuSans-30" x="127.246094"/>
       <use xlink:href="#DejaVuSans-30" x="190.869141"/>
       <use xlink:href="#DejaVuSans-30" x="254.492188"/>
      </g>
     </g>
    </g>
    <g id="ytick_14">
     <g id="line2d_25">
      <g>
       <use xlink:href="#m45a9af9567" x="1169.328125" y="36.231641" style="stroke: #000000; stroke-width: 0.8"/>
      </g>
     </g>
     <g id="text_27">
      <!-- 35000 -->
      <g transform="translate(1176.328125 40.03086)scale(0.1 -0.1)">
       <use xlink:href="#DejaVuSans-33"/>
       <use xlink:href="#DejaVuSans-35" x="63.623047"/>
       <use xlink:href="#DejaVuSans-30" x="127.246094"/>
       <use xlink:href="#DejaVuSans-30" x="190.869141"/>
       <use xlink:href="#DejaVuSans-30" x="254.492188"/>
      </g>
     </g>
    </g>
    <g id="text_28">
     <!-- Total -->
     <g transform="translate(1219.739063 132.623887)rotate(-90)scale(0.1 -0.1)">
      <defs>
       <path id="DejaVuSans-54" d="M -19 4666 
L 3928 4666 
L 3928 4134 
L 2272 4134 
L 2272 0 
L 1638 0 
L 1638 4134 
L -19 4134 
L -19 4666 
z
" transform="scale(0.015625)"/>
       <path id="DejaVuSans-6c" d="M 603 4863 
L 1178 4863 
L 1178 0 
L 603 0 
L 603 4863 
z
" transform="scale(0.015625)"/>
      </defs>
      <use xlink:href="#DejaVuSans-54"/>
      <use xlink:href="#DejaVuSans-6f" x="44.083984"/>
      <use xlink:href="#DejaVuSans-74" x="105.265625"/>
      <use xlink:href="#DejaVuSans-61" x="144.474609"/>
      <use xlink:href="#DejaVuSans-6c" x="205.753906"/>
     </g>
    </g>
   </g>
   <g id="line2d_26">
    <path d="M 111.839634 221.747324 
L 156.815221 221.264901 
L 162.004712 221.127065 
L 187.952166 220.899107 
L 196.601317 220.824888 
L 219.089111 219.981972 
L 229.468092 219.520754 
L 234.657583 219.361714 
L 238.117244 219.070139 
L 245.036565 218.95881 
L 251.955886 218.322648 
L 253.685716 218.312045 
L 255.415547 218.158306 
L 257.145377 217.819019 
L 260.605037 217.59106 
L 267.524358 217.31539 
L 270.984019 217.00261 
L 277.90334 216.551994 
L 279.63317 216.26042 
L 283.092831 215.868119 
L 286.552491 215.565942 
L 290.012152 215.412203 
L 293.471813 214.717725 
L 295.201643 214.611698 
L 298.661303 213.927823 
L 302.120964 213.736974 
L 303.850794 213.053099 
L 307.310455 212.358621 
L 309.040285 211.992827 
L 314.229776 211.526308 
L 317.689436 210.147955 
L 321.149097 209.294437 
L 322.878927 209.140697 
L 324.608757 208.833219 
L 326.338588 208.652973 
L 328.068418 207.576797 
L 331.528078 206.134828 
L 336.717569 204.989735 
L 338.4474 204.740571 
L 340.17723 203.818135 
L 345.366721 201.713496 
L 347.096551 201.193963 
L 348.826381 200.886485 
L 350.556211 200.732745 
L 357.475533 198.410751 
L 359.205363 197.753383 
L 362.665023 197.223247 
L 364.394854 196.284907 
L 366.124684 195.479101 
L 367.854514 194.514254 
L 371.314175 193.109394 
L 373.044005 192.66408 
L 374.773835 192.430821 
L 376.503666 191.699233 
L 378.233496 190.819208 
L 379.963326 190.071717 
L 381.693156 189.462061 
L 383.422987 188.688063 
L 386.882647 188.136721 
L 388.612477 186.832588 
L 392.072138 185.178564 
L 393.801968 183.816116 
L 395.531799 182.994405 
L 397.261629 182.549091 
L 398.991459 182.284023 
L 400.721289 181.001095 
L 402.45112 179.877207 
L 407.64061 176.982667 
L 411.100271 176.044326 
L 412.830101 174.565248 
L 414.559932 173.494374 
L 416.289762 172.285664 
L 419.749422 170.069697 
L 423.209083 169.131357 
L 426.668743 165.515832 
L 428.398574 163.861808 
L 430.128404 162.89166 
L 431.858234 161.773074 
L 435.317895 160.58557 
L 437.047725 158.539246 
L 438.777555 156.795099 
L 443.967046 151.896646 
L 445.696876 150.852278 
L 447.426707 150.041171 
L 449.156537 147.894121 
L 450.886367 145.15332 
L 456.075858 139.910278 
L 457.805688 138.876513 
L 459.535519 138.065406 
L 461.265349 135.764617 
L 462.995179 133.659978 
L 464.725009 131.83101 
L 466.45484 130.171685 
L 468.18467 128.798634 
L 469.9145 127.918608 
L 471.644331 127.192323 
L 475.103991 121.318419 
L 476.833821 119.394027 
L 478.563652 117.840729 
L 482.023312 115.243064 
L 483.753142 114.363039 
L 485.482973 112.878659 
L 487.212803 111.028485 
L 490.672464 107.937794 
L 492.402294 106.517031 
L 494.132124 105.515074 
L 495.861954 104.703967 
L 499.321615 100.5371 
L 502.781275 97.679669 
L 506.240936 95.442496 
L 507.970766 94.94947 
L 509.700597 93.284844 
L 513.160257 90.581152 
L 516.619918 88.275062 
L 520.079578 86.700559 
L 523.539239 83.148649 
L 526.998899 80.869066 
L 528.72873 79.745178 
L 530.45856 79.034797 
L 532.18839 78.456949 
L 533.91822 76.813528 
L 535.648051 75.360956 
L 537.377881 74.157548 
L 540.837541 72.068814 
L 542.567372 71.395541 
L 544.297202 70.92372 
L 546.027032 69.810436 
L 547.756863 68.42148 
L 549.486693 67.382414 
L 551.216523 66.756854 
L 552.946353 66.004061 
L 554.676184 65.500432 
L 556.406014 65.13994 
L 559.865674 63.295068 
L 563.325335 61.762976 
L 565.055165 61.158621 
L 568.514826 60.49065 
L 570.244656 59.759063 
L 571.974486 58.407217 
L 573.704317 57.818766 
L 577.163977 56.276071 
L 578.893807 55.836059 
L 580.623638 55.64521 
L 584.083298 54.097214 
L 585.813128 53.508763 
L 589.272789 52.040287 
L 591.002619 51.552562 
L 592.73245 51.260988 
L 594.46228 50.428675 
L 596.19211 49.283582 
L 601.381601 47.974146 
L 604.841261 47.523531 
L 606.571092 46.871464 
L 613.490413 44.878154 
L 616.950073 44.480552 
L 618.679904 43.706554 
L 620.409734 42.651584 
L 622.139564 41.988915 
L 625.599225 40.827917 
L 629.058885 40.207659 
L 630.788716 39.640413 
L 632.518546 38.64906 
L 634.248376 37.938678 
L 635.978206 37.366131 
L 637.708037 37.005639 
L 639.437867 35.52656 
L 641.167697 35.240287 
L 642.897527 34.556412 
L 644.627358 33.538552 
L 646.357188 33.056128 
L 649.816849 31.836816 
L 651.546679 31.433913 
L 653.276509 31.14764 
L 655.006339 30.559189 
L 656.73617 29.435301 
L 658.466 29.149028 
L 660.19583 28.746125 
L 661.92566 28.17888 
L 665.385321 27.770675 
L 668.844982 26.583171 
L 670.574812 26.334008 
L 674.034472 25.565311 
L 677.494133 25.337353 
L 682.683624 24.58456 
L 684.413454 24.367204 
L 686.143284 23.953698 
L 687.873115 23.815863 
L 689.602945 23.794658 
L 691.332775 23.598507 
L 693.062605 23.195604 
L 698.252096 22.633661 
L 703.441587 22.395099 
L 705.171417 22.12473 
L 731.118871 21.181089 
L 777.824289 20.703967 
L 800.312082 20.529022 
L 819.340215 20.343474 
L 914.48088 20.21094 
L 1118.600852 20.147324 
L 1118.600852 20.147324 
" clip-path="url(#p896d6d97e1)" style="fill: none; stroke: #696969; stroke-width: 3; stroke-linecap: square"/>
   </g>
   <g id="patch_83">
    <path d="M 53.328125 231.827324 
L 53.328125 10.067324 
" style="fill: none; stroke: #000000; stroke-width: 0.8; stroke-linejoin: miter; stroke-linecap: square"/>
   </g>
   <g id="patch_84">
    <path d="M 1169.328125 231.827324 
L 1169.328125 10.067324 
" style="fill: none; stroke: #000000; stroke-width: 0.8; stroke-linejoin: miter; stroke-linecap: square"/>
   </g>
   <g id="patch_85">
    <path d="M 53.328125 231.827324 
L 1169.328125 231.827324 
" style="fill: none; stroke: #000000; stroke-width: 0.8; stroke-linejoin: miter; stroke-linecap: square"/>
   </g>
  </g>
 </g>
 <defs>
  <clipPath id="p896d6d97e1">
   <rect x="53.328125" y="10.067324" width="1116" height="221.76"/>
  </clipPath>
 </defs>
</svg>
