<?xml version="1.0" encoding="utf-8" standalone="no"?>
<!DOCTYPE svg PUBLIC "-//W3C//DTD SVG 1.1//EN"
  "http://www.w3.org/Graphics/SVG/1.1/DTD/svg11.dtd">
<svg xmlns:xlink="http://www.w3.org/1999/xlink" width="1235.38125pt" height="299.789337pt" viewBox="0 0 1235.38125 299.789337" xmlns="http://www.w3.org/2000/svg" version="1.1">
 <metadata>
  <rdf:RDF xmlns:dc="http://purl.org/dc/elements/1.1/" xmlns:cc="http://creativecommons.org/ns#" xmlns:rdf="http://www.w3.org/1999/02/22-rdf-syntax-ns#">
   <cc:Work>
    <dc:type rdf:resource="http://purl.org/dc/dcmitype/StillImage"/>
    <dc:date>2022-07-24T23:22:41.751183</dc:date>
    <dc:format>image/svg+xml</dc:format>
    <dc:creator>
     <cc:Agent>
      <dc:title>Matplotlib v3.5.1, https://matplotlib.org/</dc:title>
     </cc:Agent>
    </dc:creator>
   </cc:Work>
  </rdf:RDF>
 </metadata>
 <defs>
  <style type="text/css">*{stroke-linejoin: round; stroke-linecap: butt}</style>
 </defs>
 <g id="figure_1">
  <g id="patch_1">
   <path d="M 0 299.789337 
L 1235.38125 299.789337 
L 1235.38125 0 
L 0 0 
z
" style="fill: #ffffff"/>
  </g>
  <g id="axes_1">
   <g id="patch_2">
    <path d="M 53.328125 230.1284 
L 1169.328125 230.1284 
L 1169.328125 8.3684 
L 53.328125 8.3684 
z
" style="fill: #ffffff"/>
   </g>
   <g id="patch_3">
    <path d="M 104.055398 230.1284 
L 114.601608 230.1284 
L 114.601608 230.098362 
L 104.055398 230.098362 
z
" clip-path="url(#pb45516bc37)" style="fill: #86b0a6"/>
   </g>
   <g id="patch_4">
    <path d="M 118.820092 230.1284 
L 129.366303 230.1284 
L 129.366303 230.098362 
L 118.820092 230.098362 
z
" clip-path="url(#pb45516bc37)" style="fill: #86b0a6"/>
   </g>
   <g id="patch_5">
    <path d="M 148.349482 230.1284 
L 158.895693 230.1284 
L 158.895693 230.098362 
L 148.349482 230.098362 
z
" clip-path="url(#pb45516bc37)" style="fill: #86b0a6"/>
   </g>
   <g id="patch_6">
    <path d="M 163.114177 230.1284 
L 173.660387 230.1284 
L 173.660387 230.068323 
L 163.114177 230.068323 
z
" clip-path="url(#pb45516bc37)" style="fill: #86b0a6"/>
   </g>
   <g id="patch_7">
    <path d="M 177.878872 230.1284 
L 188.425082 230.1284 
L 188.425082 230.038285 
L 177.878872 230.038285 
z
" clip-path="url(#pb45516bc37)" style="fill: #86b0a6"/>
   </g>
   <g id="patch_8">
    <path d="M 192.643566 230.1284 
L 203.189777 230.1284 
L 203.189777 230.098362 
L 192.643566 230.098362 
z
" clip-path="url(#pb45516bc37)" style="fill: #86b0a6"/>
   </g>
   <g id="patch_9">
    <path d="M 222.172956 230.1284 
L 232.719166 230.1284 
L 232.719166 230.038285 
L 222.172956 230.038285 
z
" clip-path="url(#pb45516bc37)" style="fill: #86b0a6"/>
   </g>
   <g id="patch_10">
    <path d="M 251.702345 230.1284 
L 262.248556 230.1284 
L 262.248556 229.978208 
L 251.702345 229.978208 
z
" clip-path="url(#pb45516bc37)" style="fill: #86b0a6"/>
   </g>
   <g id="patch_11">
    <path d="M 266.46704 230.1284 
L 277.013251 230.1284 
L 277.013251 230.038285 
L 266.46704 230.038285 
z
" clip-path="url(#pb45516bc37)" style="fill: #86b0a6"/>
   </g>
   <g id="patch_12">
    <path d="M 281.231735 230.1284 
L 291.777945 230.1284 
L 291.777945 229.587709 
L 281.231735 229.587709 
z
" clip-path="url(#pb45516bc37)" style="fill: #86b0a6"/>
   </g>
   <g id="patch_13">
    <path d="M 295.99643 230.1284 
L 306.54264 230.1284 
L 306.54264 228.776672 
L 295.99643 228.776672 
z
" clip-path="url(#pb45516bc37)" style="fill: #86b0a6"/>
   </g>
   <g id="patch_14">
    <path d="M 310.761124 230.1284 
L 321.307335 230.1284 
L 321.307335 228.205942 
L 310.761124 228.205942 
z
" clip-path="url(#pb45516bc37)" style="fill: #86b0a6"/>
   </g>
   <g id="patch_15">
    <path d="M 325.525819 230.1284 
L 336.07203 230.1284 
L 336.07203 227.605174 
L 325.525819 227.605174 
z
" clip-path="url(#pb45516bc37)" style="fill: #86b0a6"/>
   </g>
   <g id="patch_16">
    <path d="M 340.290514 230.1284 
L 350.836725 230.1284 
L 350.836725 227.30479 
L 340.290514 227.30479 
z
" clip-path="url(#pb45516bc37)" style="fill: #86b0a6"/>
   </g>
   <g id="patch_17">
    <path d="M 355.055209 230.1284 
L 365.601419 230.1284 
L 365.601419 224.571296 
L 355.055209 224.571296 
z
" clip-path="url(#pb45516bc37)" style="fill: #86b0a6"/>
   </g>
   <g id="patch_18">
    <path d="M 369.819903 230.1284 
L 380.366114 230.1284 
L 380.366114 224.391065 
L 369.819903 224.391065 
z
" clip-path="url(#pb45516bc37)" style="fill: #86b0a6"/>
   </g>
   <g id="patch_19">
    <path d="M 384.584598 230.1284 
L 395.130809 230.1284 
L 395.130809 221.176956 
L 384.584598 221.176956 
z
" clip-path="url(#pb45516bc37)" style="fill: #86b0a6"/>
   </g>
   <g id="patch_20">
    <path d="M 399.349293 230.1284 
L 409.895504 230.1284 
L 409.895504 214.418316 
L 399.349293 214.418316 
z
" clip-path="url(#pb45516bc37)" style="fill: #86b0a6"/>
   </g>
   <g id="patch_21">
    <path d="M 414.113988 230.1284 
L 424.660198 230.1284 
L 424.660198 212.375705 
L 414.113988 212.375705 
z
" clip-path="url(#pb45516bc37)" style="fill: #86b0a6"/>
   </g>
   <g id="patch_22">
    <path d="M 428.878683 230.1284 
L 439.424893 230.1284 
L 439.424893 201.38165 
L 428.878683 201.38165 
z
" clip-path="url(#pb45516bc37)" style="fill: #86b0a6"/>
   </g>
   <g id="patch_23">
    <path d="M 443.643377 230.1284 
L 454.189588 230.1284 
L 454.189588 197.206312 
L 443.643377 197.206312 
z
" clip-path="url(#pb45516bc37)" style="fill: #86b0a6"/>
   </g>
   <g id="patch_24">
    <path d="M 458.408072 230.1284 
L 468.954283 230.1284 
L 468.954283 186.72291 
L 458.408072 186.72291 
z
" clip-path="url(#pb45516bc37)" style="fill: #86b0a6"/>
   </g>
   <g id="patch_25">
    <path d="M 473.172767 230.1284 
L 483.718977 230.1284 
L 483.718977 174.557357 
L 473.172767 174.557357 
z
" clip-path="url(#pb45516bc37)" style="fill: #86b0a6"/>
   </g>
   <g id="patch_26">
    <path d="M 487.937462 230.1284 
L 498.483672 230.1284 
L 498.483672 125.174226 
L 487.937462 125.174226 
z
" clip-path="url(#pb45516bc37)" style="fill: #86b0a6"/>
   </g>
   <g id="patch_27">
    <path d="M 502.702156 230.1284 
L 513.248367 230.1284 
L 513.248367 115.051284 
L 502.702156 115.051284 
z
" clip-path="url(#pb45516bc37)" style="fill: #86b0a6"/>
   </g>
   <g id="patch_28">
    <path d="M 517.466851 230.1284 
L 528.013062 230.1284 
L 528.013062 49.92803 
L 517.466851 49.92803 
z
" clip-path="url(#pb45516bc37)" style="fill: #86b0a6"/>
   </g>
   <g id="patch_29">
    <path d="M 532.231546 230.1284 
L 542.777756 230.1284 
L 542.777756 58.609128 
L 532.231546 58.609128 
z
" clip-path="url(#pb45516bc37)" style="fill: #86b0a6"/>
   </g>
   <g id="patch_30">
    <path d="M 546.996241 230.1284 
L 557.542451 230.1284 
L 557.542451 46.954228 
L 546.996241 46.954228 
z
" clip-path="url(#pb45516bc37)" style="fill: #86b0a6"/>
   </g>
   <g id="patch_31">
    <path d="M 561.760935 230.1284 
L 572.307146 230.1284 
L 572.307146 18.9284 
L 561.760935 18.9284 
z
" clip-path="url(#pb45516bc37)" style="fill: #86b0a6"/>
   </g>
   <g id="patch_32">
    <path d="M 576.52563 230.1284 
L 587.071841 230.1284 
L 587.071841 41.216894 
L 576.52563 41.216894 
z
" clip-path="url(#pb45516bc37)" style="fill: #86b0a6"/>
   </g>
   <g id="patch_33">
    <path d="M 591.290325 230.1284 
L 601.836536 230.1284 
L 601.836536 57.647899 
L 591.290325 57.647899 
z
" clip-path="url(#pb45516bc37)" style="fill: #86b0a6"/>
   </g>
   <g id="patch_34">
    <path d="M 606.05502 230.1284 
L 616.60123 230.1284 
L 616.60123 45.872846 
L 606.05502 45.872846 
z
" clip-path="url(#pb45516bc37)" style="fill: #86b0a6"/>
   </g>
   <g id="patch_35">
    <path d="M 620.819714 230.1284 
L 631.365925 230.1284 
L 631.365925 75.791094 
L 620.819714 75.791094 
z
" clip-path="url(#pb45516bc37)" style="fill: #86b0a6"/>
   </g>
   <g id="patch_36">
    <path d="M 635.584409 230.1284 
L 646.13062 230.1284 
L 646.13062 65.698191 
L 635.584409 65.698191 
z
" clip-path="url(#pb45516bc37)" style="fill: #86b0a6"/>
   </g>
   <g id="patch_37">
    <path d="M 650.349104 230.1284 
L 660.895315 230.1284 
L 660.895315 62.964696 
L 650.349104 62.964696 
z
" clip-path="url(#pb45516bc37)" style="fill: #86b0a6"/>
   </g>
   <g id="patch_38">
    <path d="M 665.113799 230.1284 
L 675.660009 230.1284 
L 675.660009 92.732752 
L 665.113799 92.732752 
z
" clip-path="url(#pb45516bc37)" style="fill: #86b0a6"/>
   </g>
   <g id="patch_39">
    <path d="M 679.878494 230.1284 
L 690.424704 230.1284 
L 690.424704 92.732752 
L 679.878494 92.732752 
z
" clip-path="url(#pb45516bc37)" style="fill: #86b0a6"/>
   </g>
   <g id="patch_40">
    <path d="M 694.643188 230.1284 
L 705.189399 230.1284 
L 705.189399 66.328997 
L 694.643188 66.328997 
z
" clip-path="url(#pb45516bc37)" style="fill: #86b0a6"/>
   </g>
   <g id="patch_41">
    <path d="M 709.407883 230.1284 
L 719.954094 230.1284 
L 719.954094 94.745325 
L 709.407883 94.745325 
z
" clip-path="url(#pb45516bc37)" style="fill: #86b0a6"/>
   </g>
   <g id="patch_42">
    <path d="M 724.172578 230.1284 
L 734.718788 230.1284 
L 734.718788 95.556362 
L 724.172578 95.556362 
z
" clip-path="url(#pb45516bc37)" style="fill: #86b0a6"/>
   </g>
   <g id="patch_43">
    <path d="M 738.937273 230.1284 
L 749.483483 230.1284 
L 749.483483 120.968849 
L 738.937273 120.968849 
z
" clip-path="url(#pb45516bc37)" style="fill: #86b0a6"/>
   </g>
   <g id="patch_44">
    <path d="M 753.701967 230.1284 
L 764.248178 230.1284 
L 764.248178 136.168281 
L 753.701967 136.168281 
z
" clip-path="url(#pb45516bc37)" style="fill: #86b0a6"/>
   </g>
   <g id="patch_45">
    <path d="M 768.466662 230.1284 
L 779.012873 230.1284 
L 779.012873 131.542367 
L 768.466662 131.542367 
z
" clip-path="url(#pb45516bc37)" style="fill: #86b0a6"/>
   </g>
   <g id="patch_46">
    <path d="M 783.231357 230.1284 
L 793.777567 230.1284 
L 793.777567 174.31705 
L 783.231357 174.31705 
z
" clip-path="url(#pb45516bc37)" style="fill: #86b0a6"/>
   </g>
   <g id="patch_47">
    <path d="M 797.996052 230.1284 
L 808.542262 230.1284 
L 808.542262 184.800452 
L 797.996052 184.800452 
z
" clip-path="url(#pb45516bc37)" style="fill: #86b0a6"/>
   </g>
   <g id="patch_48">
    <path d="M 812.760746 230.1284 
L 823.306957 230.1284 
L 823.306957 191.7994 
L 812.760746 191.7994 
z
" clip-path="url(#pb45516bc37)" style="fill: #86b0a6"/>
   </g>
   <g id="patch_49">
    <path d="M 827.525441 230.1284 
L 838.071652 230.1284 
L 838.071652 202.583186 
L 827.525441 202.583186 
z
" clip-path="url(#pb45516bc37)" style="fill: #86b0a6"/>
   </g>
   <g id="patch_50">
    <path d="M 842.290136 230.1284 
L 852.836347 230.1284 
L 852.836347 209.311788 
L 842.290136 209.311788 
z
" clip-path="url(#pb45516bc37)" style="fill: #86b0a6"/>
   </g>
   <g id="patch_51">
    <path d="M 857.054831 230.1284 
L 867.601041 230.1284 
L 867.601041 214.208047 
L 857.054831 214.208047 
z
" clip-path="url(#pb45516bc37)" style="fill: #86b0a6"/>
   </g>
   <g id="patch_52">
    <path d="M 871.819525 230.1284 
L 882.365736 230.1284 
L 882.365736 219.524844 
L 871.819525 219.524844 
z
" clip-path="url(#pb45516bc37)" style="fill: #86b0a6"/>
   </g>
   <g id="patch_53">
    <path d="M 886.58422 230.1284 
L 897.130431 230.1284 
L 897.130431 222.79903 
L 886.58422 222.79903 
z
" clip-path="url(#pb45516bc37)" style="fill: #86b0a6"/>
   </g>
   <g id="patch_54">
    <path d="M 901.348915 230.1284 
L 911.895126 230.1284 
L 911.895126 224.481181 
L 901.348915 224.481181 
z
" clip-path="url(#pb45516bc37)" style="fill: #86b0a6"/>
   </g>
   <g id="patch_55">
    <path d="M 916.11361 230.1284 
L 926.65982 230.1284 
L 926.65982 226.163331 
L 916.11361 226.163331 
z
" clip-path="url(#pb45516bc37)" style="fill: #86b0a6"/>
   </g>
   <g id="patch_56">
    <path d="M 930.878305 230.1284 
L 941.424515 230.1284 
L 941.424515 227.214675 
L 930.878305 227.214675 
z
" clip-path="url(#pb45516bc37)" style="fill: #86b0a6"/>
   </g>
   <g id="patch_57">
    <path d="M 945.642999 230.1284 
L 956.18921 230.1284 
L 956.18921 227.394905 
L 945.642999 227.394905 
z
" clip-path="url(#pb45516bc37)" style="fill: #86b0a6"/>
   </g>
   <g id="patch_58">
    <path d="M 960.407694 230.1284 
L 970.953905 230.1284 
L 970.953905 228.205942 
L 960.407694 228.205942 
z
" clip-path="url(#pb45516bc37)" style="fill: #86b0a6"/>
   </g>
   <g id="patch_59">
    <path d="M 975.172389 230.1284 
L 985.718599 230.1284 
L 985.718599 229.19721 
L 975.172389 229.19721 
z
" clip-path="url(#pb45516bc37)" style="fill: #86b0a6"/>
   </g>
   <g id="patch_60">
    <path d="M 989.937084 230.1284 
L 1000.483294 230.1284 
L 1000.483294 229.077056 
L 989.937084 229.077056 
z
" clip-path="url(#pb45516bc37)" style="fill: #86b0a6"/>
   </g>
   <g id="patch_61">
    <path d="M 1004.701778 230.1284 
L 1015.247989 230.1284 
L 1015.247989 229.707862 
L 1004.701778 229.707862 
z
" clip-path="url(#pb45516bc37)" style="fill: #86b0a6"/>
   </g>
   <g id="patch_62">
    <path d="M 1019.466473 230.1284 
L 1030.012684 230.1284 
L 1030.012684 229.437517 
L 1019.466473 229.437517 
z
" clip-path="url(#pb45516bc37)" style="fill: #86b0a6"/>
   </g>
   <g id="patch_63">
    <path d="M 1034.231168 230.1284 
L 1044.777378 230.1284 
L 1044.777378 229.797978 
L 1034.231168 229.797978 
z
" clip-path="url(#pb45516bc37)" style="fill: #86b0a6"/>
   </g>
   <g id="patch_64">
    <path d="M 1048.995863 230.1284 
L 1059.542073 230.1284 
L 1059.542073 229.918131 
L 1048.995863 229.918131 
z
" clip-path="url(#pb45516bc37)" style="fill: #86b0a6"/>
   </g>
   <g id="patch_65">
    <path d="M 1063.760557 230.1284 
L 1074.306768 230.1284 
L 1074.306768 229.437517 
L 1063.760557 229.437517 
z
" clip-path="url(#pb45516bc37)" style="fill: #86b0a6"/>
   </g>
   <g id="patch_66">
    <path d="M 1078.525252 230.1284 
L 1089.071463 230.1284 
L 1089.071463 229.287325 
L 1078.525252 229.287325 
z
" clip-path="url(#pb45516bc37)" style="fill: #86b0a6"/>
   </g>
   <g id="patch_67">
    <path d="M 1093.289947 230.1284 
L 1103.836158 230.1284 
L 1103.836158 230.098362 
L 1093.289947 230.098362 
z
" clip-path="url(#pb45516bc37)" style="fill: #86b0a6"/>
   </g>
   <g id="patch_68">
    <path d="M 1108.054642 230.1284 
L 1118.600852 230.1284 
L 1118.600852 230.098362 
L 1108.054642 230.098362 
z
" clip-path="url(#pb45516bc37)" style="fill: #86b0a6"/>
   </g>
   <g id="matplotlib.axis_1">
    <g id="xtick_1">
     <g id="line2d_1">
      <defs>
       <path id="m55a765c260" d="M 0 0 
L 0 3.5 
" style="stroke: #000000; stroke-width: 0.8"/>
      </defs>
      <g>
       <use xlink:href="#m55a765c260" x="69.252903" y="230.1284" style="stroke: #000000; stroke-width: 0.8"/>
      </g>
     </g>
     <g id="text_1">
      <!-- 2020-09 -->
      <g transform="translate(72.012278 278.911212)rotate(-90)scale(0.1 -0.1)">
       <defs>
        <path id="DejaVuSans-32" d="M 1228 531 
L 3431 531 
L 3431 0 
L 469 0 
L 469 531 
Q 828 903 1448 1529 
Q 2069 2156 2228 2338 
Q 2531 2678 2651 2914 
Q 2772 3150 2772 3378 
Q 2772 3750 2511 3984 
Q 2250 4219 1831 4219 
Q 1534 4219 1204 4116 
Q 875 4013 500 3803 
L 500 4441 
Q 881 4594 1212 4672 
Q 1544 4750 1819 4750 
Q 2544 4750 2975 4387 
Q 3406 4025 3406 3419 
Q 3406 3131 3298 2873 
Q 3191 2616 2906 2266 
Q 2828 2175 2409 1742 
Q 1991 1309 1228 531 
z
" transform="scale(0.015625)"/>
        <path id="DejaVuSans-30" d="M 2034 4250 
Q 1547 4250 1301 3770 
Q 1056 3291 1056 2328 
Q 1056 1369 1301 889 
Q 1547 409 2034 409 
Q 2525 409 2770 889 
Q 3016 1369 3016 2328 
Q 3016 3291 2770 3770 
Q 2525 4250 2034 4250 
z
M 2034 4750 
Q 2819 4750 3233 4129 
Q 3647 3509 3647 2328 
Q 3647 1150 3233 529 
Q 2819 -91 2034 -91 
Q 1250 -91 836 529 
Q 422 1150 422 2328 
Q 422 3509 836 4129 
Q 1250 4750 2034 4750 
z
" transform="scale(0.015625)"/>
        <path id="DejaVuSans-2d" d="M 313 2009 
L 1997 2009 
L 1997 1497 
L 313 1497 
L 313 2009 
z
" transform="scale(0.015625)"/>
        <path id="DejaVuSans-39" d="M 703 97 
L 703 672 
Q 941 559 1184 500 
Q 1428 441 1663 441 
Q 2288 441 2617 861 
Q 2947 1281 2994 2138 
Q 2813 1869 2534 1725 
Q 2256 1581 1919 1581 
Q 1219 1581 811 2004 
Q 403 2428 403 3163 
Q 403 3881 828 4315 
Q 1253 4750 1959 4750 
Q 2769 4750 3195 4129 
Q 3622 3509 3622 2328 
Q 3622 1225 3098 567 
Q 2575 -91 1691 -91 
Q 1453 -91 1209 -44 
Q 966 3 703 97 
z
M 1959 2075 
Q 2384 2075 2632 2365 
Q 2881 2656 2881 3163 
Q 2881 3666 2632 3958 
Q 2384 4250 1959 4250 
Q 1534 4250 1286 3958 
Q 1038 3666 1038 3163 
Q 1038 2656 1286 2365 
Q 1534 2075 1959 2075 
z
" transform="scale(0.015625)"/>
       </defs>
       <use xlink:href="#DejaVuSans-32"/>
       <use xlink:href="#DejaVuSans-30" x="63.623047"/>
       <use xlink:href="#DejaVuSans-32" x="127.246094"/>
       <use xlink:href="#DejaVuSans-30" x="190.869141"/>
       <use xlink:href="#DejaVuSans-2d" x="254.492188"/>
       <use xlink:href="#DejaVuSans-30" x="290.576172"/>
       <use xlink:href="#DejaVuSans-39" x="354.199219"/>
      </g>
     </g>
    </g>
    <g id="xtick_2">
     <g id="line2d_2">
      <g>
       <use xlink:href="#m55a765c260" x="197.916672" y="230.1284" style="stroke: #000000; stroke-width: 0.8"/>
      </g>
     </g>
     <g id="text_2">
      <!-- 2020-11 -->
      <g transform="translate(200.676047 278.911212)rotate(-90)scale(0.1 -0.1)">
       <defs>
        <path id="DejaVuSans-31" d="M 794 531 
L 1825 531 
L 1825 4091 
L 703 3866 
L 703 4441 
L 1819 4666 
L 2450 4666 
L 2450 531 
L 3481 531 
L 3481 0 
L 794 0 
L 794 531 
z
" transform="scale(0.015625)"/>
       </defs>
       <use xlink:href="#DejaVuSans-32"/>
       <use xlink:href="#DejaVuSans-30" x="63.623047"/>
       <use xlink:href="#DejaVuSans-32" x="127.246094"/>
       <use xlink:href="#DejaVuSans-30" x="190.869141"/>
       <use xlink:href="#DejaVuSans-2d" x="254.492188"/>
       <use xlink:href="#DejaVuSans-31" x="290.576172"/>
       <use xlink:href="#DejaVuSans-31" x="354.199219"/>
      </g>
     </g>
    </g>
    <g id="xtick_3">
     <g id="line2d_3">
      <g>
       <use xlink:href="#m55a765c260" x="326.58044" y="230.1284" style="stroke: #000000; stroke-width: 0.8"/>
      </g>
     </g>
     <g id="text_3">
      <!-- 2021-01 -->
      <g transform="translate(329.339815 278.911212)rotate(-90)scale(0.1 -0.1)">
       <use xlink:href="#DejaVuSans-32"/>
       <use xlink:href="#DejaVuSans-30" x="63.623047"/>
       <use xlink:href="#DejaVuSans-32" x="127.246094"/>
       <use xlink:href="#DejaVuSans-31" x="190.869141"/>
       <use xlink:href="#DejaVuSans-2d" x="254.492188"/>
       <use xlink:href="#DejaVuSans-30" x="290.576172"/>
       <use xlink:href="#DejaVuSans-31" x="354.199219"/>
      </g>
     </g>
    </g>
    <g id="xtick_4">
     <g id="line2d_4">
      <g>
       <use xlink:href="#m55a765c260" x="451.025725" y="230.1284" style="stroke: #000000; stroke-width: 0.8"/>
      </g>
     </g>
     <g id="text_4">
      <!-- 2021-03 -->
      <g transform="translate(453.7851 278.911212)rotate(-90)scale(0.1 -0.1)">
       <defs>
        <path id="DejaVuSans-33" d="M 2597 2516 
Q 3050 2419 3304 2112 
Q 3559 1806 3559 1356 
Q 3559 666 3084 287 
Q 2609 -91 1734 -91 
Q 1441 -91 1130 -33 
Q 819 25 488 141 
L 488 750 
Q 750 597 1062 519 
Q 1375 441 1716 441 
Q 2309 441 2620 675 
Q 2931 909 2931 1356 
Q 2931 1769 2642 2001 
Q 2353 2234 1838 2234 
L 1294 2234 
L 1294 2753 
L 1863 2753 
Q 2328 2753 2575 2939 
Q 2822 3125 2822 3475 
Q 2822 3834 2567 4026 
Q 2313 4219 1838 4219 
Q 1578 4219 1281 4162 
Q 984 4106 628 3988 
L 628 4550 
Q 988 4650 1302 4700 
Q 1616 4750 1894 4750 
Q 2613 4750 3031 4423 
Q 3450 4097 3450 3541 
Q 3450 3153 3228 2886 
Q 3006 2619 2597 2516 
z
" transform="scale(0.015625)"/>
       </defs>
       <use xlink:href="#DejaVuSans-32"/>
       <use xlink:href="#DejaVuSans-30" x="63.623047"/>
       <use xlink:href="#DejaVuSans-32" x="127.246094"/>
       <use xlink:href="#DejaVuSans-31" x="190.869141"/>
       <use xlink:href="#DejaVuSans-2d" x="254.492188"/>
       <use xlink:href="#DejaVuSans-30" x="290.576172"/>
       <use xlink:href="#DejaVuSans-33" x="354.199219"/>
      </g>
     </g>
    </g>
    <g id="xtick_5">
     <g id="line2d_5">
      <g>
       <use xlink:href="#m55a765c260" x="579.689493" y="230.1284" style="stroke: #000000; stroke-width: 0.8"/>
      </g>
     </g>
     <g id="text_5">
      <!-- 2021-05 -->
      <g transform="translate(582.448868 278.911212)rotate(-90)scale(0.1 -0.1)">
       <defs>
        <path id="DejaVuSans-35" d="M 691 4666 
L 3169 4666 
L 3169 4134 
L 1269 4134 
L 1269 2991 
Q 1406 3038 1543 3061 
Q 1681 3084 1819 3084 
Q 2600 3084 3056 2656 
Q 3513 2228 3513 1497 
Q 3513 744 3044 326 
Q 2575 -91 1722 -91 
Q 1428 -91 1123 -41 
Q 819 9 494 109 
L 494 744 
Q 775 591 1075 516 
Q 1375 441 1709 441 
Q 2250 441 2565 725 
Q 2881 1009 2881 1497 
Q 2881 1984 2565 2268 
Q 2250 2553 1709 2553 
Q 1456 2553 1204 2497 
Q 953 2441 691 2322 
L 691 4666 
z
" transform="scale(0.015625)"/>
       </defs>
       <use xlink:href="#DejaVuSans-32"/>
       <use xlink:href="#DejaVuSans-30" x="63.623047"/>
       <use xlink:href="#DejaVuSans-32" x="127.246094"/>
       <use xlink:href="#DejaVuSans-31" x="190.869141"/>
       <use xlink:href="#DejaVuSans-2d" x="254.492188"/>
       <use xlink:href="#DejaVuSans-30" x="290.576172"/>
       <use xlink:href="#DejaVuSans-35" x="354.199219"/>
      </g>
     </g>
    </g>
    <g id="xtick_6">
     <g id="line2d_6">
      <g>
       <use xlink:href="#m55a765c260" x="708.353262" y="230.1284" style="stroke: #000000; stroke-width: 0.8"/>
      </g>
     </g>
     <g id="text_6">
      <!-- 2021-07 -->
      <g transform="translate(711.112637 278.911212)rotate(-90)scale(0.1 -0.1)">
       <defs>
        <path id="DejaVuSans-37" d="M 525 4666 
L 3525 4666 
L 3525 4397 
L 1831 0 
L 1172 0 
L 2766 4134 
L 525 4134 
L 525 4666 
z
" transform="scale(0.015625)"/>
       </defs>
       <use xlink:href="#DejaVuSans-32"/>
       <use xlink:href="#DejaVuSans-30" x="63.623047"/>
       <use xlink:href="#DejaVuSans-32" x="127.246094"/>
       <use xlink:href="#DejaVuSans-31" x="190.869141"/>
       <use xlink:href="#DejaVuSans-2d" x="254.492188"/>
       <use xlink:href="#DejaVuSans-30" x="290.576172"/>
       <use xlink:href="#DejaVuSans-37" x="354.199219"/>
      </g>
     </g>
    </g>
    <g id="xtick_7">
     <g id="line2d_7">
      <g>
       <use xlink:href="#m55a765c260" x="839.126273" y="230.1284" style="stroke: #000000; stroke-width: 0.8"/>
      </g>
     </g>
     <g id="text_7">
      <!-- 2021-09 -->
      <g transform="translate(841.885648 278.911212)rotate(-90)scale(0.1 -0.1)">
       <use xlink:href="#DejaVuSans-32"/>
       <use xlink:href="#DejaVuSans-30" x="63.623047"/>
       <use xlink:href="#DejaVuSans-32" x="127.246094"/>
       <use xlink:href="#DejaVuSans-31" x="190.869141"/>
       <use xlink:href="#DejaVuSans-2d" x="254.492188"/>
       <use xlink:href="#DejaVuSans-30" x="290.576172"/>
       <use xlink:href="#DejaVuSans-39" x="354.199219"/>
      </g>
     </g>
    </g>
    <g id="xtick_8">
     <g id="line2d_8">
      <g>
       <use xlink:href="#m55a765c260" x="967.790041" y="230.1284" style="stroke: #000000; stroke-width: 0.8"/>
      </g>
     </g>
     <g id="text_8">
      <!-- 2021-11 -->
      <g transform="translate(970.549416 278.911212)rotate(-90)scale(0.1 -0.1)">
       <use xlink:href="#DejaVuSans-32"/>
       <use xlink:href="#DejaVuSans-30" x="63.623047"/>
       <use xlink:href="#DejaVuSans-32" x="127.246094"/>
       <use xlink:href="#DejaVuSans-31" x="190.869141"/>
       <use xlink:href="#DejaVuSans-2d" x="254.492188"/>
       <use xlink:href="#DejaVuSans-31" x="290.576172"/>
       <use xlink:href="#DejaVuSans-31" x="354.199219"/>
      </g>
     </g>
    </g>
    <g id="xtick_9">
     <g id="line2d_9">
      <g>
       <use xlink:href="#m55a765c260" x="1096.45381" y="230.1284" style="stroke: #000000; stroke-width: 0.8"/>
      </g>
     </g>
     <g id="text_9">
      <!-- 2022-01 -->
      <g transform="translate(1099.213185 278.911212)rotate(-90)scale(0.1 -0.1)">
       <use xlink:href="#DejaVuSans-32"/>
       <use xlink:href="#DejaVuSans-30" x="63.623047"/>
       <use xlink:href="#DejaVuSans-32" x="127.246094"/>
       <use xlink:href="#DejaVuSans-32" x="190.869141"/>
       <use xlink:href="#DejaVuSans-2d" x="254.492188"/>
       <use xlink:href="#DejaVuSans-30" x="290.576172"/>
       <use xlink:href="#DejaVuSans-31" x="354.199219"/>
      </g>
     </g>
    </g>
    <g id="text_10">
     <!-- Date -->
     <g transform="translate(599.377344 290.50965)scale(0.1 -0.1)">
      <defs>
       <path id="DejaVuSans-44" d="M 1259 4147 
L 1259 519 
L 2022 519 
Q 2988 519 3436 956 
Q 3884 1394 3884 2338 
Q 3884 3275 3436 3711 
Q 2988 4147 2022 4147 
L 1259 4147 
z
M 628 4666 
L 1925 4666 
Q 3281 4666 3915 4102 
Q 4550 3538 4550 2338 
Q 4550 1131 3912 565 
Q 3275 0 1925 0 
L 628 0 
L 628 4666 
z
" transform="scale(0.015625)"/>
       <path id="DejaVuSans-61" d="M 2194 1759 
Q 1497 1759 1228 1600 
Q 959 1441 959 1056 
Q 959 750 1161 570 
Q 1363 391 1709 391 
Q 2188 391 2477 730 
Q 2766 1069 2766 1631 
L 2766 1759 
L 2194 1759 
z
M 3341 1997 
L 3341 0 
L 2766 0 
L 2766 531 
Q 2569 213 2275 61 
Q 1981 -91 1556 -91 
Q 1019 -91 701 211 
Q 384 513 384 1019 
Q 384 1609 779 1909 
Q 1175 2209 1959 2209 
L 2766 2209 
L 2766 2266 
Q 2766 2663 2505 2880 
Q 2244 3097 1772 3097 
Q 1472 3097 1187 3025 
Q 903 2953 641 2809 
L 641 3341 
Q 956 3463 1253 3523 
Q 1550 3584 1831 3584 
Q 2591 3584 2966 3190 
Q 3341 2797 3341 1997 
z
" transform="scale(0.015625)"/>
       <path id="DejaVuSans-74" d="M 1172 4494 
L 1172 3500 
L 2356 3500 
L 2356 3053 
L 1172 3053 
L 1172 1153 
Q 1172 725 1289 603 
Q 1406 481 1766 481 
L 2356 481 
L 2356 0 
L 1766 0 
Q 1100 0 847 248 
Q 594 497 594 1153 
L 594 3053 
L 172 3053 
L 172 3500 
L 594 3500 
L 594 4494 
L 1172 4494 
z
" transform="scale(0.015625)"/>
       <path id="DejaVuSans-65" d="M 3597 1894 
L 3597 1613 
L 953 1613 
Q 991 1019 1311 708 
Q 1631 397 2203 397 
Q 2534 397 2845 478 
Q 3156 559 3463 722 
L 3463 178 
Q 3153 47 2828 -22 
Q 2503 -91 2169 -91 
Q 1331 -91 842 396 
Q 353 884 353 1716 
Q 353 2575 817 3079 
Q 1281 3584 2069 3584 
Q 2775 3584 3186 3129 
Q 3597 2675 3597 1894 
z
M 3022 2063 
Q 3016 2534 2758 2815 
Q 2500 3097 2075 3097 
Q 1594 3097 1305 2825 
Q 1016 2553 972 2059 
L 3022 2063 
z
" transform="scale(0.015625)"/>
      </defs>
      <use xlink:href="#DejaVuSans-44"/>
      <use xlink:href="#DejaVuSans-61" x="77.001953"/>
      <use xlink:href="#DejaVuSans-74" x="138.28125"/>
      <use xlink:href="#DejaVuSans-65" x="177.490234"/>
     </g>
    </g>
   </g>
   <g id="matplotlib.axis_2">
    <g id="ytick_1">
     <g id="line2d_10">
      <defs>
       <path id="m11e5a63a16" d="M 0 0 
L -3.5 0 
" style="stroke: #000000; stroke-width: 0.8"/>
      </defs>
      <g>
       <use xlink:href="#m11e5a63a16" x="53.328125" y="230.1284" style="stroke: #000000; stroke-width: 0.8"/>
      </g>
     </g>
     <g id="text_11">
      <!-- 0 -->
      <g transform="translate(39.965625 233.927619)scale(0.1 -0.1)">
       <use xlink:href="#DejaVuSans-30"/>
      </g>
     </g>
    </g>
    <g id="ytick_2">
     <g id="line2d_11">
      <g>
       <use xlink:href="#m11e5a63a16" x="53.328125" y="200.089999" style="stroke: #000000; stroke-width: 0.8"/>
      </g>
     </g>
     <g id="text_12">
      <!-- 1000 -->
      <g transform="translate(20.878125 203.889217)scale(0.1 -0.1)">
       <use xlink:href="#DejaVuSans-31"/>
       <use xlink:href="#DejaVuSans-30" x="63.623047"/>
       <use xlink:href="#DejaVuSans-30" x="127.246094"/>
       <use xlink:href="#DejaVuSans-30" x="190.869141"/>
      </g>
     </g>
    </g>
    <g id="ytick_3">
     <g id="line2d_12">
      <g>
       <use xlink:href="#m11e5a63a16" x="53.328125" y="170.051597" style="stroke: #000000; stroke-width: 0.8"/>
      </g>
     </g>
     <g id="text_13">
      <!-- 2000 -->
      <g transform="translate(20.878125 173.850816)scale(0.1 -0.1)">
       <use xlink:href="#DejaVuSans-32"/>
       <use xlink:href="#DejaVuSans-30" x="63.623047"/>
       <use xlink:href="#DejaVuSans-30" x="127.246094"/>
       <use xlink:href="#DejaVuSans-30" x="190.869141"/>
      </g>
     </g>
    </g>
    <g id="ytick_4">
     <g id="line2d_13">
      <g>
       <use xlink:href="#m11e5a63a16" x="53.328125" y="140.013196" style="stroke: #000000; stroke-width: 0.8"/>
      </g>
     </g>
     <g id="text_14">
      <!-- 3000 -->
      <g transform="translate(20.878125 143.812415)scale(0.1 -0.1)">
       <use xlink:href="#DejaVuSans-33"/>
       <use xlink:href="#DejaVuSans-30" x="63.623047"/>
       <use xlink:href="#DejaVuSans-30" x="127.246094"/>
       <use xlink:href="#DejaVuSans-30" x="190.869141"/>
      </g>
     </g>
    </g>
    <g id="ytick_5">
     <g id="line2d_14">
      <g>
       <use xlink:href="#m11e5a63a16" x="53.328125" y="109.974795" style="stroke: #000000; stroke-width: 0.8"/>
      </g>
     </g>
     <g id="text_15">
      <!-- 4000 -->
      <g transform="translate(20.878125 113.774013)scale(0.1 -0.1)">
       <defs>
        <path id="DejaVuSans-34" d="M 2419 4116 
L 825 1625 
L 2419 1625 
L 2419 4116 
z
M 2253 4666 
L 3047 4666 
L 3047 1625 
L 3713 1625 
L 3713 1100 
L 3047 1100 
L 3047 0 
L 2419 0 
L 2419 1100 
L 313 1100 
L 313 1709 
L 2253 4666 
z
" transform="scale(0.015625)"/>
       </defs>
       <use xlink:href="#DejaVuSans-34"/>
       <use xlink:href="#DejaVuSans-30" x="63.623047"/>
       <use xlink:href="#DejaVuSans-30" x="127.246094"/>
       <use xlink:href="#DejaVuSans-30" x="190.869141"/>
      </g>
     </g>
    </g>
    <g id="ytick_6">
     <g id="line2d_15">
      <g>
       <use xlink:href="#m11e5a63a16" x="53.328125" y="79.936393" style="stroke: #000000; stroke-width: 0.8"/>
      </g>
     </g>
     <g id="text_16">
      <!-- 5000 -->
      <g transform="translate(20.878125 83.735612)scale(0.1 -0.1)">
       <use xlink:href="#DejaVuSans-35"/>
       <use xlink:href="#DejaVuSans-30" x="63.623047"/>
       <use xlink:href="#DejaVuSans-30" x="127.246094"/>
       <use xlink:href="#DejaVuSans-30" x="190.869141"/>
      </g>
     </g>
    </g>
    <g id="ytick_7">
     <g id="line2d_16">
      <g>
       <use xlink:href="#m11e5a63a16" x="53.328125" y="49.897992" style="stroke: #000000; stroke-width: 0.8"/>
      </g>
     </g>
     <g id="text_17">
      <!-- 6000 -->
      <g transform="translate(20.878125 53.697211)scale(0.1 -0.1)">
       <defs>
        <path id="DejaVuSans-36" d="M 2113 2584 
Q 1688 2584 1439 2293 
Q 1191 2003 1191 1497 
Q 1191 994 1439 701 
Q 1688 409 2113 409 
Q 2538 409 2786 701 
Q 3034 994 3034 1497 
Q 3034 2003 2786 2293 
Q 2538 2584 2113 2584 
z
M 3366 4563 
L 3366 3988 
Q 3128 4100 2886 4159 
Q 2644 4219 2406 4219 
Q 1781 4219 1451 3797 
Q 1122 3375 1075 2522 
Q 1259 2794 1537 2939 
Q 1816 3084 2150 3084 
Q 2853 3084 3261 2657 
Q 3669 2231 3669 1497 
Q 3669 778 3244 343 
Q 2819 -91 2113 -91 
Q 1303 -91 875 529 
Q 447 1150 447 2328 
Q 447 3434 972 4092 
Q 1497 4750 2381 4750 
Q 2619 4750 2861 4703 
Q 3103 4656 3366 4563 
z
" transform="scale(0.015625)"/>
       </defs>
       <use xlink:href="#DejaVuSans-36"/>
       <use xlink:href="#DejaVuSans-30" x="63.623047"/>
       <use xlink:href="#DejaVuSans-30" x="127.246094"/>
       <use xlink:href="#DejaVuSans-30" x="190.869141"/>
      </g>
     </g>
    </g>
    <g id="ytick_8">
     <g id="line2d_17">
      <g>
       <use xlink:href="#m11e5a63a16" x="53.328125" y="19.85959" style="stroke: #000000; stroke-width: 0.8"/>
      </g>
     </g>
     <g id="text_18">
      <!-- 7000 -->
      <g transform="translate(20.878125 23.658809)scale(0.1 -0.1)">
       <use xlink:href="#DejaVuSans-37"/>
       <use xlink:href="#DejaVuSans-30" x="63.623047"/>
       <use xlink:href="#DejaVuSans-30" x="127.246094"/>
       <use xlink:href="#DejaVuSans-30" x="190.869141"/>
      </g>
     </g>
    </g>
    <g id="text_19">
     <!-- Sequence count -->
     <g transform="translate(14.798437 159.608556)rotate(-90)scale(0.1 -0.1)">
      <defs>
       <path id="DejaVuSans-53" d="M 3425 4513 
L 3425 3897 
Q 3066 4069 2747 4153 
Q 2428 4238 2131 4238 
Q 1616 4238 1336 4038 
Q 1056 3838 1056 3469 
Q 1056 3159 1242 3001 
Q 1428 2844 1947 2747 
L 2328 2669 
Q 3034 2534 3370 2195 
Q 3706 1856 3706 1288 
Q 3706 609 3251 259 
Q 2797 -91 1919 -91 
Q 1588 -91 1214 -16 
Q 841 59 441 206 
L 441 856 
Q 825 641 1194 531 
Q 1563 422 1919 422 
Q 2459 422 2753 634 
Q 3047 847 3047 1241 
Q 3047 1584 2836 1778 
Q 2625 1972 2144 2069 
L 1759 2144 
Q 1053 2284 737 2584 
Q 422 2884 422 3419 
Q 422 4038 858 4394 
Q 1294 4750 2059 4750 
Q 2388 4750 2728 4690 
Q 3069 4631 3425 4513 
z
" transform="scale(0.015625)"/>
       <path id="DejaVuSans-71" d="M 947 1747 
Q 947 1113 1208 752 
Q 1469 391 1925 391 
Q 2381 391 2643 752 
Q 2906 1113 2906 1747 
Q 2906 2381 2643 2742 
Q 2381 3103 1925 3103 
Q 1469 3103 1208 2742 
Q 947 2381 947 1747 
z
M 2906 525 
Q 2725 213 2448 61 
Q 2172 -91 1784 -91 
Q 1150 -91 751 415 
Q 353 922 353 1747 
Q 353 2572 751 3078 
Q 1150 3584 1784 3584 
Q 2172 3584 2448 3432 
Q 2725 3281 2906 2969 
L 2906 3500 
L 3481 3500 
L 3481 -1331 
L 2906 -1331 
L 2906 525 
z
" transform="scale(0.015625)"/>
       <path id="DejaVuSans-75" d="M 544 1381 
L 544 3500 
L 1119 3500 
L 1119 1403 
Q 1119 906 1312 657 
Q 1506 409 1894 409 
Q 2359 409 2629 706 
Q 2900 1003 2900 1516 
L 2900 3500 
L 3475 3500 
L 3475 0 
L 2900 0 
L 2900 538 
Q 2691 219 2414 64 
Q 2138 -91 1772 -91 
Q 1169 -91 856 284 
Q 544 659 544 1381 
z
M 1991 3584 
L 1991 3584 
z
" transform="scale(0.015625)"/>
       <path id="DejaVuSans-6e" d="M 3513 2113 
L 3513 0 
L 2938 0 
L 2938 2094 
Q 2938 2591 2744 2837 
Q 2550 3084 2163 3084 
Q 1697 3084 1428 2787 
Q 1159 2491 1159 1978 
L 1159 0 
L 581 0 
L 581 3500 
L 1159 3500 
L 1159 2956 
Q 1366 3272 1645 3428 
Q 1925 3584 2291 3584 
Q 2894 3584 3203 3211 
Q 3513 2838 3513 2113 
z
" transform="scale(0.015625)"/>
       <path id="DejaVuSans-63" d="M 3122 3366 
L 3122 2828 
Q 2878 2963 2633 3030 
Q 2388 3097 2138 3097 
Q 1578 3097 1268 2742 
Q 959 2388 959 1747 
Q 959 1106 1268 751 
Q 1578 397 2138 397 
Q 2388 397 2633 464 
Q 2878 531 3122 666 
L 3122 134 
Q 2881 22 2623 -34 
Q 2366 -91 2075 -91 
Q 1284 -91 818 406 
Q 353 903 353 1747 
Q 353 2603 823 3093 
Q 1294 3584 2113 3584 
Q 2378 3584 2631 3529 
Q 2884 3475 3122 3366 
z
" transform="scale(0.015625)"/>
       <path id="DejaVuSans-20" transform="scale(0.015625)"/>
       <path id="DejaVuSans-6f" d="M 1959 3097 
Q 1497 3097 1228 2736 
Q 959 2375 959 1747 
Q 959 1119 1226 758 
Q 1494 397 1959 397 
Q 2419 397 2687 759 
Q 2956 1122 2956 1747 
Q 2956 2369 2687 2733 
Q 2419 3097 1959 3097 
z
M 1959 3584 
Q 2709 3584 3137 3096 
Q 3566 2609 3566 1747 
Q 3566 888 3137 398 
Q 2709 -91 1959 -91 
Q 1206 -91 779 398 
Q 353 888 353 1747 
Q 353 2609 779 3096 
Q 1206 3584 1959 3584 
z
" transform="scale(0.015625)"/>
      </defs>
      <use xlink:href="#DejaVuSans-53"/>
      <use xlink:href="#DejaVuSans-65" x="63.476562"/>
      <use xlink:href="#DejaVuSans-71" x="125"/>
      <use xlink:href="#DejaVuSans-75" x="188.476562"/>
      <use xlink:href="#DejaVuSans-65" x="251.855469"/>
      <use xlink:href="#DejaVuSans-6e" x="313.378906"/>
      <use xlink:href="#DejaVuSans-63" x="376.757812"/>
      <use xlink:href="#DejaVuSans-65" x="431.738281"/>
      <use xlink:href="#DejaVuSans-20" x="493.261719"/>
      <use xlink:href="#DejaVuSans-63" x="525.048828"/>
      <use xlink:href="#DejaVuSans-6f" x="580.029297"/>
      <use xlink:href="#DejaVuSans-75" x="641.210938"/>
      <use xlink:href="#DejaVuSans-6e" x="704.589844"/>
      <use xlink:href="#DejaVuSans-74" x="767.96875"/>
     </g>
    </g>
   </g>
   <g id="patch_69">
    <path d="M 53.328125 230.1284 
L 53.328125 8.3684 
" style="fill: none; stroke: #000000; stroke-width: 0.8; stroke-linejoin: miter; stroke-linecap: square"/>
   </g>
   <g id="patch_70">
    <path d="M 1169.328125 230.1284 
L 1169.328125 8.3684 
" style="fill: none; stroke: #000000; stroke-width: 0.8; stroke-linejoin: miter; stroke-linecap: square"/>
   </g>
   <g id="patch_71">
    <path d="M 53.328125 230.1284 
L 1169.328125 230.1284 
" style="fill: none; stroke: #000000; stroke-width: 0.8; stroke-linejoin: miter; stroke-linecap: square"/>
   </g>
  </g>
  <g id="axes_2">
   <g id="matplotlib.axis_3">
    <g id="ytick_9">
     <g id="line2d_18">
      <defs>
       <path id="m3cb113c36d" d="M 0 0 
L 3.5 0 
" style="stroke: #000000; stroke-width: 0.8"/>
      </defs>
      <g>
       <use xlink:href="#m3cb113c36d" x="1169.328125" y="220.050142" style="stroke: #000000; stroke-width: 0.8"/>
      </g>
     </g>
     <g id="text_20">
      <!-- 0 -->
      <g transform="translate(1176.328125 223.849361)scale(0.1 -0.1)">
       <use xlink:href="#DejaVuSans-30"/>
      </g>
     </g>
    </g>
    <g id="ytick_10">
     <g id="line2d_19">
      <g>
       <use xlink:href="#m3cb113c36d" x="1169.328125" y="185.208322" style="stroke: #000000; stroke-width: 0.8"/>
      </g>
     </g>
     <g id="text_21">
      <!-- 20000 -->
      <g transform="translate(1176.328125 189.00754)scale(0.1 -0.1)">
       <use xlink:href="#DejaVuSans-32"/>
       <use xlink:href="#DejaVuSans-30" x="63.623047"/>
       <use xlink:href="#DejaVuSans-30" x="127.246094"/>
       <use xlink:href="#DejaVuSans-30" x="190.869141"/>
       <use xlink:href="#DejaVuSans-30" x="254.492188"/>
      </g>
     </g>
    </g>
    <g id="ytick_11">
     <g id="line2d_20">
      <g>
       <use xlink:href="#m3cb113c36d" x="1169.328125" y="150.366501" style="stroke: #000000; stroke-width: 0.8"/>
      </g>
     </g>
     <g id="text_22">
      <!-- 40000 -->
      <g transform="translate(1176.328125 154.16572)scale(0.1 -0.1)">
       <use xlink:href="#DejaVuSans-34"/>
       <use xlink:href="#DejaVuSans-30" x="63.623047"/>
       <use xlink:href="#DejaVuSans-30" x="127.246094"/>
       <use xlink:href="#DejaVuSans-30" x="190.869141"/>
       <use xlink:href="#DejaVuSans-30" x="254.492188"/>
      </g>
     </g>
    </g>
    <g id="ytick_12">
     <g id="line2d_21">
      <g>
       <use xlink:href="#m3cb113c36d" x="1169.328125" y="115.52468" style="stroke: #000000; stroke-width: 0.8"/>
      </g>
     </g>
     <g id="text_23">
      <!-- 60000 -->
      <g transform="translate(1176.328125 119.323899)scale(0.1 -0.1)">
       <use xlink:href="#DejaVuSans-36"/>
       <use xlink:href="#DejaVuSans-30" x="63.623047"/>
       <use xlink:href="#DejaVuSans-30" x="127.246094"/>
       <use xlink:href="#DejaVuSans-30" x="190.869141"/>
       <use xlink:href="#DejaVuSans-30" x="254.492188"/>
      </g>
     </g>
    </g>
    <g id="ytick_13">
     <g id="line2d_22">
      <g>
       <use xlink:href="#m3cb113c36d" x="1169.328125" y="80.68286" style="stroke: #000000; stroke-width: 0.8"/>
      </g>
     </g>
     <g id="text_24">
      <!-- 80000 -->
      <g transform="translate(1176.328125 84.482079)scale(0.1 -0.1)">
       <defs>
        <path id="DejaVuSans-38" d="M 2034 2216 
Q 1584 2216 1326 1975 
Q 1069 1734 1069 1313 
Q 1069 891 1326 650 
Q 1584 409 2034 409 
Q 2484 409 2743 651 
Q 3003 894 3003 1313 
Q 3003 1734 2745 1975 
Q 2488 2216 2034 2216 
z
M 1403 2484 
Q 997 2584 770 2862 
Q 544 3141 544 3541 
Q 544 4100 942 4425 
Q 1341 4750 2034 4750 
Q 2731 4750 3128 4425 
Q 3525 4100 3525 3541 
Q 3525 3141 3298 2862 
Q 3072 2584 2669 2484 
Q 3125 2378 3379 2068 
Q 3634 1759 3634 1313 
Q 3634 634 3220 271 
Q 2806 -91 2034 -91 
Q 1263 -91 848 271 
Q 434 634 434 1313 
Q 434 1759 690 2068 
Q 947 2378 1403 2484 
z
M 1172 3481 
Q 1172 3119 1398 2916 
Q 1625 2713 2034 2713 
Q 2441 2713 2670 2916 
Q 2900 3119 2900 3481 
Q 2900 3844 2670 4047 
Q 2441 4250 2034 4250 
Q 1625 4250 1398 4047 
Q 1172 3844 1172 3481 
z
" transform="scale(0.015625)"/>
       </defs>
       <use xlink:href="#DejaVuSans-38"/>
       <use xlink:href="#DejaVuSans-30" x="63.623047"/>
       <use xlink:href="#DejaVuSans-30" x="127.246094"/>
       <use xlink:href="#DejaVuSans-30" x="190.869141"/>
       <use xlink:href="#DejaVuSans-30" x="254.492188"/>
      </g>
     </g>
    </g>
    <g id="ytick_14">
     <g id="line2d_23">
      <g>
       <use xlink:href="#m3cb113c36d" x="1169.328125" y="45.841039" style="stroke: #000000; stroke-width: 0.8"/>
      </g>
     </g>
     <g id="text_25">
      <!-- 100000 -->
      <g transform="translate(1176.328125 49.640258)scale(0.1 -0.1)">
       <use xlink:href="#DejaVuSans-31"/>
       <use xlink:href="#DejaVuSans-30" x="63.623047"/>
       <use xlink:href="#DejaVuSans-30" x="127.246094"/>
       <use xlink:href="#DejaVuSans-30" x="190.869141"/>
       <use xlink:href="#DejaVuSans-30" x="254.492188"/>
       <use xlink:href="#DejaVuSans-30" x="318.115234"/>
      </g>
     </g>
    </g>
    <g id="ytick_15">
     <g id="line2d_24">
      <g>
       <use xlink:href="#m3cb113c36d" x="1169.328125" y="10.999219" style="stroke: #000000; stroke-width: 0.8"/>
      </g>
     </g>
     <g id="text_26">
      <!-- 120000 -->
      <g transform="translate(1176.328125 14.798437)scale(0.1 -0.1)">
       <use xlink:href="#DejaVuSans-31"/>
       <use xlink:href="#DejaVuSans-32" x="63.623047"/>
       <use xlink:href="#DejaVuSans-30" x="127.246094"/>
       <use xlink:href="#DejaVuSans-30" x="190.869141"/>
       <use xlink:href="#DejaVuSans-30" x="254.492188"/>
       <use xlink:href="#DejaVuSans-30" x="318.115234"/>
      </g>
     </g>
    </g>
    <g id="text_27">
     <!-- Total -->
     <g transform="translate(1226.101562 130.924962)rotate(-90)scale(0.1 -0.1)">
      <defs>
       <path id="DejaVuSans-54" d="M -19 4666 
L 3928 4666 
L 3928 4134 
L 2272 4134 
L 2272 0 
L 1638 0 
L 1638 4134 
L -19 4134 
L -19 4666 
z
" transform="scale(0.015625)"/>
       <path id="DejaVuSans-6c" d="M 603 4863 
L 1178 4863 
L 1178 0 
L 603 0 
L 603 4863 
z
" transform="scale(0.015625)"/>
      </defs>
      <use xlink:href="#DejaVuSans-54"/>
      <use xlink:href="#DejaVuSans-6f" x="44.083984"/>
      <use xlink:href="#DejaVuSans-74" x="105.265625"/>
      <use xlink:href="#DejaVuSans-61" x="144.474609"/>
      <use xlink:href="#DejaVuSans-6c" x="205.753906"/>
     </g>
    </g>
   </g>
   <g id="line2d_25">
    <path d="M 113.546987 220.0484 
L 305.488019 219.942132 
L 322.361956 219.821928 
L 337.126651 219.708692 
L 377.202251 219.079797 
L 398.294672 218.484002 
L 402.513156 218.309793 
L 406.73164 218.126874 
L 408.840883 217.99099 
L 410.950125 217.708772 
L 415.168609 217.454426 
L 419.387093 217.351643 
L 423.605577 217.020646 
L 427.824061 216.635644 
L 432.042546 216.369104 
L 434.151788 216.25761 
L 444.697998 214.909231 
L 451.025725 214.325631 
L 453.134967 213.904045 
L 457.353451 213.285603 
L 459.462693 212.942411 
L 463.681177 212.665418 
L 472.118146 210.919843 
L 474.227388 210.519162 
L 478.445872 210.055766 
L 482.664356 208.888565 
L 491.101325 207.052401 
L 493.210567 206.318981 
L 495.319809 205.066417 
L 497.429051 204.259829 
L 501.647535 202.401018 
L 503.756777 201.542167 
L 507.975262 200.399355 
L 512.193746 198.084116 
L 518.521472 195.072041 
L 520.630714 194.291584 
L 522.739956 193.289882 
L 524.849199 191.209825 
L 526.958441 189.755179 
L 531.176925 186.316291 
L 533.286167 184.812867 
L 537.504651 182.940119 
L 539.613893 181.048208 
L 541.723135 179.588336 
L 543.832378 177.844503 
L 545.94162 176.273137 
L 548.050862 174.881206 
L 550.160104 173.89344 
L 552.269346 172.768049 
L 554.378588 170.621793 
L 556.48783 168.797824 
L 562.815556 164.172572 
L 564.924799 163.270169 
L 567.034041 162.059416 
L 569.143283 159.495058 
L 571.252525 157.258213 
L 577.580251 152.117302 
L 579.689493 151.021527 
L 581.798735 150.051182 
L 583.907978 147.809111 
L 586.01722 145.981658 
L 588.126462 143.924248 
L 592.344946 141.021925 
L 596.56343 139.204924 
L 598.672672 137.013373 
L 600.781914 135.412392 
L 602.891157 133.58668 
L 605.000399 132.105903 
L 607.109641 130.884697 
L 611.328125 129.13738 
L 613.437367 126.585216 
L 615.546609 124.7717 
L 619.765093 121.581931 
L 621.874336 120.101154 
L 626.09282 118.712707 
L 628.202062 116.914869 
L 634.529788 112.319233 
L 636.63903 111.054475 
L 638.748272 110.42558 
L 640.857515 109.634671 
L 642.966757 108.004073 
L 645.075999 106.005895 
L 647.185241 104.399687 
L 649.294483 103.140155 
L 651.403725 101.603631 
L 655.622209 100.088012 
L 657.731451 97.443518 
L 659.840694 95.713621 
L 661.949936 94.283365 
L 666.16842 91.858374 
L 670.386904 90.445538 
L 672.496146 88.349802 
L 674.605388 86.841152 
L 676.71463 85.653046 
L 680.933115 83.728035 
L 683.042357 83.226313 
L 685.151599 82.59045 
L 687.260841 80.56614 
L 689.370083 78.940769 
L 691.479325 77.642911 
L 693.588567 76.62553 
L 695.697809 75.731837 
L 697.807051 75.257988 
L 699.916294 74.461853 
L 704.134778 70.291287 
L 706.24402 68.85232 
L 710.462504 66.36984 
L 714.680988 65.188702 
L 716.79023 63.282855 
L 718.899473 61.669678 
L 721.008715 60.483314 
L 723.117957 59.425865 
L 725.227199 58.528688 
L 729.445683 57.363229 
L 731.554925 55.168195 
L 733.664167 53.642123 
L 735.773409 52.474922 
L 737.882652 51.48193 
L 739.991894 50.657921 
L 742.101136 50.102194 
L 744.210378 49.671897 
L 746.31962 47.80786 
L 748.428862 46.478645 
L 752.647346 44.821916 
L 754.756588 44.119853 
L 756.865831 43.771435 
L 758.975073 43.238355 
L 761.084315 41.614726 
L 763.193557 40.625219 
L 767.412041 39.315166 
L 769.521283 38.681045 
L 773.739767 37.940656 
L 775.84901 36.40239 
L 777.958252 35.324036 
L 782.176736 33.655113 
L 784.285978 33.008797 
L 786.39522 32.604632 
L 788.504462 32.343318 
L 790.613704 31.554151 
L 794.832189 30.329461 
L 796.941431 29.880001 
L 799.050673 29.559457 
L 803.269157 29.137871 
L 805.378399 28.448002 
L 809.596883 27.601346 
L 813.815367 26.951546 
L 818.033852 26.592676 
L 820.143094 26.003849 
L 824.361578 25.240813 
L 828.580062 24.662439 
L 832.798546 24.402867 
L 837.017031 23.800104 
L 841.235515 23.249603 
L 845.453999 22.918606 
L 847.563241 22.80537 
L 853.890968 22.148601 
L 860.218694 21.711336 
L 862.327936 21.636427 
L 864.437178 21.357692 
L 872.874147 20.836807 
L 877.092631 20.73925 
L 881.311115 20.463999 
L 900.294294 19.83162 
L 934.042168 19.190531 
L 955.134589 18.953606 
L 978.336252 18.751524 
L 1090.126084 18.45711 
L 1115.436989 18.4484 
L 1115.436989 18.4484 
" clip-path="url(#pb45516bc37)" style="fill: none; stroke: #696969; stroke-width: 3; stroke-linecap: square"/>
   </g>
   <g id="patch_72">
    <path d="M 53.328125 230.1284 
L 53.328125 8.3684 
" style="fill: none; stroke: #000000; stroke-width: 0.8; stroke-linejoin: miter; stroke-linecap: square"/>
   </g>
   <g id="patch_73">
    <path d="M 1169.328125 230.1284 
L 1169.328125 8.3684 
" style="fill: none; stroke: #000000; stroke-width: 0.8; stroke-linejoin: miter; stroke-linecap: square"/>
   </g>
   <g id="patch_74">
    <path d="M 53.328125 230.1284 
L 1169.328125 230.1284 
" style="fill: none; stroke: #000000; stroke-width: 0.8; stroke-linejoin: miter; stroke-linecap: square"/>
   </g>
  </g>
 </g>
 <defs>
  <clipPath id="pb45516bc37">
   <rect x="53.328125" y="8.3684" width="1116" height="221.76"/>
  </clipPath>
 </defs>
</svg>
