<?xml version="1.0" encoding="utf-8" standalone="no"?>
<!DOCTYPE svg PUBLIC "-//W3C//DTD SVG 1.1//EN"
  "http://www.w3.org/Graphics/SVG/1.1/DTD/svg11.dtd">
<svg height="302.043804pt" version="1.1" viewBox="0 0 1229.01875 302.043804" width="1229.01875pt" xmlns="http://www.w3.org/2000/svg" xmlns:xlink="http://www.w3.org/1999/xlink">
 <metadata>
  <rdf:RDF xmlns:cc="http://creativecommons.org/ns#" xmlns:dc="http://purl.org/dc/elements/1.1/" xmlns:rdf="http://www.w3.org/1999/02/22-rdf-syntax-ns#">
   <cc:Work>
    <dc:type rdf:resource="http://purl.org/dc/dcmitype/StillImage"/>
    <dc:date>2021-11-25T12:49:57.351360</dc:date>
    <dc:format>image/svg+xml</dc:format>
    <dc:creator>
     <cc:Agent>
      <dc:title>Matplotlib v3.4.2, https://matplotlib.org/</dc:title>
     </cc:Agent>
    </dc:creator>
   </cc:Work>
  </rdf:RDF>
 </metadata>
 <defs>
  <style type="text/css">*{stroke-linecap:butt;stroke-linejoin:round;}</style>
 </defs>
 <g id="figure_1">
  <g id="patch_1">
   <path d="M 0 302.043804 
L 1229.01875 302.043804 
L 1229.01875 0 
L 0 0 
z
" style="fill:#ffffff;"/>
  </g>
  <g id="axes_1">
   <g id="patch_2">
    <path d="M 53.328125 232.382867 
L 1169.328125 232.382867 
L 1169.328125 10.622867 
L 53.328125 10.622867 
z
" style="fill:#ffffff;"/>
   </g>
   <g id="patch_3">
    <path clip-path="url(#pe0082cd052)" d="M 104.055398 232.382867 
L 115.991227 232.382867 
L 115.991227 230.722489 
L 104.055398 230.722489 
z
" style="fill:#86b0a6;"/>
   </g>
   <g id="patch_4">
    <path clip-path="url(#pe0082cd052)" d="M 120.765558 232.382867 
L 132.701387 232.382867 
L 132.701387 229.726263 
L 120.765558 229.726263 
z
" style="fill:#86b0a6;"/>
   </g>
   <g id="patch_5">
    <path clip-path="url(#pe0082cd052)" d="M 137.475719 232.382867 
L 149.411547 232.382867 
L 149.411547 228.508653 
L 137.475719 228.508653 
z
" style="fill:#86b0a6;"/>
   </g>
   <g id="patch_6">
    <path clip-path="url(#pe0082cd052)" d="M 154.185879 232.382867 
L 166.121708 232.382867 
L 166.121708 230.16903 
L 154.185879 230.16903 
z
" style="fill:#86b0a6;"/>
   </g>
   <g id="patch_7">
    <path clip-path="url(#pe0082cd052)" d="M 170.896039 232.382867 
L 182.831868 232.382867 
L 182.831868 228.840728 
L 170.896039 228.840728 
z
" style="fill:#86b0a6;"/>
   </g>
   <g id="patch_8">
    <path clip-path="url(#pe0082cd052)" d="M 187.6062 232.382867 
L 199.542029 232.382867 
L 199.542029 230.833181 
L 187.6062 230.833181 
z
" style="fill:#86b0a6;"/>
   </g>
   <g id="patch_9">
    <path clip-path="url(#pe0082cd052)" d="M 204.31636 232.382867 
L 216.252189 232.382867 
L 216.252189 230.16903 
L 204.31636 230.16903 
z
" style="fill:#86b0a6;"/>
   </g>
   <g id="patch_10">
    <path clip-path="url(#pe0082cd052)" d="M 221.026521 232.382867 
L 232.96235 232.382867 
L 232.96235 225.187898 
L 221.026521 225.187898 
z
" style="fill:#86b0a6;"/>
   </g>
   <g id="patch_11">
    <path clip-path="url(#pe0082cd052)" d="M 237.736681 232.382867 
L 249.67251 232.382867 
L 249.67251 224.523747 
L 237.736681 224.523747 
z
" style="fill:#86b0a6;"/>
   </g>
   <g id="patch_12">
    <path clip-path="url(#pe0082cd052)" d="M 254.446842 232.382867 
L 266.38267 232.382867 
L 266.38267 219.542615 
L 254.446842 219.542615 
z
" style="fill:#86b0a6;"/>
   </g>
   <g id="patch_13">
    <path clip-path="url(#pe0082cd052)" d="M 271.157002 232.382867 
L 283.092831 232.382867 
L 283.092831 222.641986 
L 271.157002 222.641986 
z
" style="fill:#86b0a6;"/>
   </g>
   <g id="patch_14">
    <path clip-path="url(#pe0082cd052)" d="M 287.867162 232.382867 
L 299.802991 232.382867 
L 299.802991 217.550162 
L 287.867162 217.550162 
z
" style="fill:#86b0a6;"/>
   </g>
   <g id="patch_15">
    <path clip-path="url(#pe0082cd052)" d="M 304.577323 232.382867 
L 316.513152 232.382867 
L 316.513152 215.336326 
L 304.577323 215.336326 
z
" style="fill:#86b0a6;"/>
   </g>
   <g id="patch_16">
    <path clip-path="url(#pe0082cd052)" d="M 321.287483 232.382867 
L 333.223312 232.382867 
L 333.223312 215.336326 
L 321.287483 215.336326 
z
" style="fill:#86b0a6;"/>
   </g>
   <g id="patch_17">
    <path clip-path="url(#pe0082cd052)" d="M 337.997644 232.382867 
L 349.933473 232.382867 
L 349.933473 208.030665 
L 337.997644 208.030665 
z
" style="fill:#86b0a6;"/>
   </g>
   <g id="patch_18">
    <path clip-path="url(#pe0082cd052)" d="M 354.707804 232.382867 
L 366.643633 232.382867 
L 366.643633 203.270917 
L 354.707804 203.270917 
z
" style="fill:#86b0a6;"/>
   </g>
   <g id="patch_19">
    <path clip-path="url(#pe0082cd052)" d="M 371.417965 232.382867 
L 383.353793 232.382867 
L 383.353793 196.408024 
L 371.417965 196.408024 
z
" style="fill:#86b0a6;"/>
   </g>
   <g id="patch_20">
    <path clip-path="url(#pe0082cd052)" d="M 388.128125 232.382867 
L 400.063954 232.382867 
L 400.063954 180.468401 
L 388.128125 180.468401 
z
" style="fill:#86b0a6;"/>
   </g>
   <g id="patch_21">
    <path clip-path="url(#pe0082cd052)" d="M 404.838285 232.382867 
L 416.774114 232.382867 
L 416.774114 158.440728 
L 404.838285 158.440728 
z
" style="fill:#86b0a6;"/>
   </g>
   <g id="patch_22">
    <path clip-path="url(#pe0082cd052)" d="M 421.548446 232.382867 
L 433.484275 232.382867 
L 433.484275 162.314942 
L 421.548446 162.314942 
z
" style="fill:#86b0a6;"/>
   </g>
   <g id="patch_23">
    <path clip-path="url(#pe0082cd052)" d="M 438.258606 232.382867 
L 450.194435 232.382867 
L 450.194435 176.704879 
L 438.258606 176.704879 
z
" style="fill:#86b0a6;"/>
   </g>
   <g id="patch_24">
    <path clip-path="url(#pe0082cd052)" d="M 454.968767 232.382867 
L 466.904596 232.382867 
L 466.904596 158.994187 
L 454.968767 158.994187 
z
" style="fill:#86b0a6;"/>
   </g>
   <g id="patch_25">
    <path clip-path="url(#pe0082cd052)" d="M 471.678927 232.382867 
L 483.614756 232.382867 
L 483.614756 154.013055 
L 471.678927 154.013055 
z
" style="fill:#86b0a6;"/>
   </g>
   <g id="patch_26">
    <path clip-path="url(#pe0082cd052)" d="M 488.389088 232.382867 
L 500.324916 232.382867 
L 500.324916 120.362741 
L 488.389088 120.362741 
z
" style="fill:#86b0a6;"/>
   </g>
   <g id="patch_27">
    <path clip-path="url(#pe0082cd052)" d="M 505.099248 232.382867 
L 517.035077 232.382867 
L 517.035077 128.22186 
L 505.099248 128.22186 
z
" style="fill:#86b0a6;"/>
   </g>
   <g id="patch_28">
    <path clip-path="url(#pe0082cd052)" d="M 521.809408 232.382867 
L 533.745237 232.382867 
L 533.745237 103.205508 
L 521.809408 103.205508 
z
" style="fill:#86b0a6;"/>
   </g>
   <g id="patch_29">
    <path clip-path="url(#pe0082cd052)" d="M 538.519569 232.382867 
L 550.455398 232.382867 
L 550.455398 79.07469 
L 538.519569 79.07469 
z
" style="fill:#86b0a6;"/>
   </g>
   <g id="patch_30">
    <path clip-path="url(#pe0082cd052)" d="M 555.229729 232.382867 
L 567.165558 232.382867 
L 567.165558 35.904879 
L 555.229729 35.904879 
z
" style="fill:#86b0a6;"/>
   </g>
   <g id="patch_31">
    <path clip-path="url(#pe0082cd052)" d="M 571.93989 232.382867 
L 583.875719 232.382867 
L 583.875719 21.847017 
L 571.93989 21.847017 
z
" style="fill:#86b0a6;"/>
   </g>
   <g id="patch_32">
    <path clip-path="url(#pe0082cd052)" d="M 588.65005 232.382867 
L 600.585879 232.382867 
L 600.585879 32.252049 
L 588.65005 32.252049 
z
" style="fill:#86b0a6;"/>
   </g>
   <g id="patch_33">
    <path clip-path="url(#pe0082cd052)" d="M 605.360211 232.382867 
L 617.296039 232.382867 
L 617.296039 21.182867 
L 605.360211 21.182867 
z
" style="fill:#86b0a6;"/>
   </g>
   <g id="patch_34">
    <path clip-path="url(#pe0082cd052)" d="M 622.070371 232.382867 
L 634.0062 232.382867 
L 634.0062 71.990414 
L 622.070371 71.990414 
z
" style="fill:#86b0a6;"/>
   </g>
   <g id="patch_35">
    <path clip-path="url(#pe0082cd052)" d="M 638.780531 232.382867 
L 650.71636 232.382867 
L 650.71636 67.562741 
L 638.780531 67.562741 
z
" style="fill:#86b0a6;"/>
   </g>
   <g id="patch_36">
    <path clip-path="url(#pe0082cd052)" d="M 655.490692 232.382867 
L 667.426521 232.382867 
L 667.426521 94.460854 
L 655.490692 94.460854 
z
" style="fill:#86b0a6;"/>
   </g>
   <g id="patch_37">
    <path clip-path="url(#pe0082cd052)" d="M 672.200852 232.382867 
L 684.136681 232.382867 
L 684.136681 84.609282 
L 672.200852 84.609282 
z
" style="fill:#86b0a6;"/>
   </g>
   <g id="patch_38">
    <path clip-path="url(#pe0082cd052)" d="M 688.911013 232.382867 
L 700.846842 232.382867 
L 700.846842 96.896074 
L 688.911013 96.896074 
z
" style="fill:#86b0a6;"/>
   </g>
   <g id="patch_39">
    <path clip-path="url(#pe0082cd052)" d="M 705.621173 232.382867 
L 717.557002 232.382867 
L 717.557002 134.088527 
L 705.621173 134.088527 
z
" style="fill:#86b0a6;"/>
   </g>
   <g id="patch_40">
    <path clip-path="url(#pe0082cd052)" d="M 722.331334 232.382867 
L 734.267162 232.382867 
L 734.267162 153.791672 
L 722.331334 153.791672 
z
" style="fill:#86b0a6;"/>
   </g>
   <g id="patch_41">
    <path clip-path="url(#pe0082cd052)" d="M 739.041494 232.382867 
L 750.977323 232.382867 
L 750.977323 160.543873 
L 739.041494 160.543873 
z
" style="fill:#86b0a6;"/>
   </g>
   <g id="patch_42">
    <path clip-path="url(#pe0082cd052)" d="M 755.751654 232.382867 
L 767.687483 232.382867 
L 767.687483 161.540099 
L 755.751654 161.540099 
z
" style="fill:#86b0a6;"/>
   </g>
   <g id="patch_43">
    <path clip-path="url(#pe0082cd052)" d="M 772.461815 232.382867 
L 784.397644 232.382867 
L 784.397644 173.273433 
L 772.461815 173.273433 
z
" style="fill:#86b0a6;"/>
   </g>
   <g id="patch_44">
    <path clip-path="url(#pe0082cd052)" d="M 789.171975 232.382867 
L 801.107804 232.382867 
L 801.107804 182.571546 
L 789.171975 182.571546 
z
" style="fill:#86b0a6;"/>
   </g>
   <g id="patch_45">
    <path clip-path="url(#pe0082cd052)" d="M 805.882136 232.382867 
L 817.817965 232.382867 
L 817.817965 172.941357 
L 805.882136 172.941357 
z
" style="fill:#86b0a6;"/>
   </g>
   <g id="patch_46">
    <path clip-path="url(#pe0082cd052)" d="M 822.592296 232.382867 
L 834.528125 232.382867 
L 834.528125 185.781609 
L 822.592296 185.781609 
z
" style="fill:#86b0a6;"/>
   </g>
   <g id="patch_47">
    <path clip-path="url(#pe0082cd052)" d="M 839.302457 232.382867 
L 851.238285 232.382867 
L 851.238285 197.957709 
L 839.302457 197.957709 
z
" style="fill:#86b0a6;"/>
   </g>
   <g id="patch_48">
    <path clip-path="url(#pe0082cd052)" d="M 856.012617 232.382867 
L 867.948446 232.382867 
L 867.948446 201.499848 
L 856.012617 201.499848 
z
" style="fill:#86b0a6;"/>
   </g>
   <g id="patch_49">
    <path clip-path="url(#pe0082cd052)" d="M 872.722777 232.382867 
L 884.658606 232.382867 
L 884.658606 213.897332 
L 872.722777 213.897332 
z
" style="fill:#86b0a6;"/>
   </g>
   <g id="patch_50">
    <path clip-path="url(#pe0082cd052)" d="M 889.432938 232.382867 
L 901.368767 232.382867 
L 901.368767 215.557709 
L 889.432938 215.557709 
z
" style="fill:#86b0a6;"/>
   </g>
   <g id="patch_51">
    <path clip-path="url(#pe0082cd052)" d="M 906.143098 232.382867 
L 918.078927 232.382867 
L 918.078927 221.313684 
L 906.143098 221.313684 
z
" style="fill:#86b0a6;"/>
   </g>
   <g id="patch_52">
    <path clip-path="url(#pe0082cd052)" d="M 922.853259 232.382867 
L 934.789088 232.382867 
L 934.789088 227.73381 
L 922.853259 227.73381 
z
" style="fill:#86b0a6;"/>
   </g>
   <g id="patch_53">
    <path clip-path="url(#pe0082cd052)" d="M 939.563419 232.382867 
L 951.499248 232.382867 
L 951.499248 228.287269 
L 939.563419 228.287269 
z
" style="fill:#86b0a6;"/>
   </g>
   <g id="patch_54">
    <path clip-path="url(#pe0082cd052)" d="M 956.27358 232.382867 
L 968.209408 232.382867 
L 968.209408 230.833181 
L 956.27358 230.833181 
z
" style="fill:#86b0a6;"/>
   </g>
   <g id="patch_55">
    <path clip-path="url(#pe0082cd052)" d="M 972.98374 232.382867 
L 984.919569 232.382867 
L 984.919569 230.390414 
L 972.98374 230.390414 
z
" style="fill:#86b0a6;"/>
   </g>
   <g id="patch_56">
    <path clip-path="url(#pe0082cd052)" d="M 989.6939 232.382867 
L 1001.629729 232.382867 
L 1001.629729 231.497332 
L 989.6939 231.497332 
z
" style="fill:#86b0a6;"/>
   </g>
   <g id="patch_57">
    <path clip-path="url(#pe0082cd052)" d="M 1006.404061 232.382867 
L 1018.33989 232.382867 
L 1018.33989 232.161483 
L 1006.404061 232.161483 
z
" style="fill:#86b0a6;"/>
   </g>
   <g id="patch_58">
    <path clip-path="url(#pe0082cd052)" d="M 1023.114221 232.382867 
L 1035.05005 232.382867 
L 1035.05005 231.718716 
L 1023.114221 231.718716 
z
" style="fill:#86b0a6;"/>
   </g>
   <g id="patch_59">
    <path clip-path="url(#pe0082cd052)" d="M 1056.534542 232.382867 
L 1068.470371 232.382867 
L 1068.470371 232.161483 
L 1056.534542 232.161483 
z
" style="fill:#86b0a6;"/>
   </g>
   <g id="patch_60">
    <path clip-path="url(#pe0082cd052)" d="M 1073.244703 232.382867 
L 1085.180531 232.382867 
L 1085.180531 231.829407 
L 1073.244703 231.829407 
z
" style="fill:#86b0a6;"/>
   </g>
   <g id="patch_61">
    <path clip-path="url(#pe0082cd052)" d="M 1106.665023 232.382867 
L 1118.600852 232.382867 
L 1118.600852 232.272175 
L 1106.665023 232.272175 
z
" style="fill:#86b0a6;"/>
   </g>
   <g id="matplotlib.axis_1">
    <g id="xtick_1">
     <g id="line2d_1">
      <defs>
       <path d="M 0 0 
L 0 3.5 
" id="m77d7d6edcd" style="stroke:#000000;stroke-width:0.8;"/>
      </defs>
      <g>
       <use style="stroke:#000000;stroke-width:0.8;" x="114.797644" xlink:href="#m77d7d6edcd" y="232.382867"/>
      </g>
     </g>
     <g id="text_1">
      <!-- 2020-09 -->
      <g transform="translate(117.557019 281.165679)rotate(-90)scale(0.1 -0.1)">
       <defs>
        <path d="M 1228 531 
L 3431 531 
L 3431 0 
L 469 0 
L 469 531 
Q 828 903 1448 1529 
Q 2069 2156 2228 2338 
Q 2531 2678 2651 2914 
Q 2772 3150 2772 3378 
Q 2772 3750 2511 3984 
Q 2250 4219 1831 4219 
Q 1534 4219 1204 4116 
Q 875 4013 500 3803 
L 500 4441 
Q 881 4594 1212 4672 
Q 1544 4750 1819 4750 
Q 2544 4750 2975 4387 
Q 3406 4025 3406 3419 
Q 3406 3131 3298 2873 
Q 3191 2616 2906 2266 
Q 2828 2175 2409 1742 
Q 1991 1309 1228 531 
z
" id="DejaVuSans-32" transform="scale(0.015625)"/>
        <path d="M 2034 4250 
Q 1547 4250 1301 3770 
Q 1056 3291 1056 2328 
Q 1056 1369 1301 889 
Q 1547 409 2034 409 
Q 2525 409 2770 889 
Q 3016 1369 3016 2328 
Q 3016 3291 2770 3770 
Q 2525 4250 2034 4250 
z
M 2034 4750 
Q 2819 4750 3233 4129 
Q 3647 3509 3647 2328 
Q 3647 1150 3233 529 
Q 2819 -91 2034 -91 
Q 1250 -91 836 529 
Q 422 1150 422 2328 
Q 422 3509 836 4129 
Q 1250 4750 2034 4750 
z
" id="DejaVuSans-30" transform="scale(0.015625)"/>
        <path d="M 313 2009 
L 1997 2009 
L 1997 1497 
L 313 1497 
L 313 2009 
z
" id="DejaVuSans-2d" transform="scale(0.015625)"/>
        <path d="M 703 97 
L 703 672 
Q 941 559 1184 500 
Q 1428 441 1663 441 
Q 2288 441 2617 861 
Q 2947 1281 2994 2138 
Q 2813 1869 2534 1725 
Q 2256 1581 1919 1581 
Q 1219 1581 811 2004 
Q 403 2428 403 3163 
Q 403 3881 828 4315 
Q 1253 4750 1959 4750 
Q 2769 4750 3195 4129 
Q 3622 3509 3622 2328 
Q 3622 1225 3098 567 
Q 2575 -91 1691 -91 
Q 1453 -91 1209 -44 
Q 966 3 703 97 
z
M 1959 2075 
Q 2384 2075 2632 2365 
Q 2881 2656 2881 3163 
Q 2881 3666 2632 3958 
Q 2384 4250 1959 4250 
Q 1534 4250 1286 3958 
Q 1038 3666 1038 3163 
Q 1038 2656 1286 2365 
Q 1534 2075 1959 2075 
z
" id="DejaVuSans-39" transform="scale(0.015625)"/>
       </defs>
       <use xlink:href="#DejaVuSans-32"/>
       <use x="63.623047" xlink:href="#DejaVuSans-30"/>
       <use x="127.246094" xlink:href="#DejaVuSans-32"/>
       <use x="190.869141" xlink:href="#DejaVuSans-30"/>
       <use x="254.492188" xlink:href="#DejaVuSans-2d"/>
       <use x="290.576172" xlink:href="#DejaVuSans-30"/>
       <use x="354.199219" xlink:href="#DejaVuSans-39"/>
      </g>
     </g>
    </g>
    <g id="xtick_2">
     <g id="line2d_2">
      <g>
       <use style="stroke:#000000;stroke-width:0.8;" x="260.414756" xlink:href="#m77d7d6edcd" y="232.382867"/>
      </g>
     </g>
     <g id="text_2">
      <!-- 2020-11 -->
      <g transform="translate(263.174131 281.165679)rotate(-90)scale(0.1 -0.1)">
       <defs>
        <path d="M 794 531 
L 1825 531 
L 1825 4091 
L 703 3866 
L 703 4441 
L 1819 4666 
L 2450 4666 
L 2450 531 
L 3481 531 
L 3481 0 
L 794 0 
L 794 531 
z
" id="DejaVuSans-31" transform="scale(0.015625)"/>
       </defs>
       <use xlink:href="#DejaVuSans-32"/>
       <use x="63.623047" xlink:href="#DejaVuSans-30"/>
       <use x="127.246094" xlink:href="#DejaVuSans-32"/>
       <use x="190.869141" xlink:href="#DejaVuSans-30"/>
       <use x="254.492188" xlink:href="#DejaVuSans-2d"/>
       <use x="290.576172" xlink:href="#DejaVuSans-31"/>
       <use x="354.199219" xlink:href="#DejaVuSans-31"/>
      </g>
     </g>
    </g>
    <g id="xtick_3">
     <g id="line2d_3">
      <g>
       <use style="stroke:#000000;stroke-width:0.8;" x="406.031868" xlink:href="#m77d7d6edcd" y="232.382867"/>
      </g>
     </g>
     <g id="text_3">
      <!-- 2021-01 -->
      <g transform="translate(408.791243 281.165679)rotate(-90)scale(0.1 -0.1)">
       <use xlink:href="#DejaVuSans-32"/>
       <use x="63.623047" xlink:href="#DejaVuSans-30"/>
       <use x="127.246094" xlink:href="#DejaVuSans-32"/>
       <use x="190.869141" xlink:href="#DejaVuSans-31"/>
       <use x="254.492188" xlink:href="#DejaVuSans-2d"/>
       <use x="290.576172" xlink:href="#DejaVuSans-30"/>
       <use x="354.199219" xlink:href="#DejaVuSans-31"/>
      </g>
     </g>
    </g>
    <g id="xtick_4">
     <g id="line2d_4">
      <g>
       <use style="stroke:#000000;stroke-width:0.8;" x="546.874649" xlink:href="#m77d7d6edcd" y="232.382867"/>
      </g>
     </g>
     <g id="text_4">
      <!-- 2021-03 -->
      <g transform="translate(549.634024 281.165679)rotate(-90)scale(0.1 -0.1)">
       <defs>
        <path d="M 2597 2516 
Q 3050 2419 3304 2112 
Q 3559 1806 3559 1356 
Q 3559 666 3084 287 
Q 2609 -91 1734 -91 
Q 1441 -91 1130 -33 
Q 819 25 488 141 
L 488 750 
Q 750 597 1062 519 
Q 1375 441 1716 441 
Q 2309 441 2620 675 
Q 2931 909 2931 1356 
Q 2931 1769 2642 2001 
Q 2353 2234 1838 2234 
L 1294 2234 
L 1294 2753 
L 1863 2753 
Q 2328 2753 2575 2939 
Q 2822 3125 2822 3475 
Q 2822 3834 2567 4026 
Q 2313 4219 1838 4219 
Q 1578 4219 1281 4162 
Q 984 4106 628 3988 
L 628 4550 
Q 988 4650 1302 4700 
Q 1616 4750 1894 4750 
Q 2613 4750 3031 4423 
Q 3450 4097 3450 3541 
Q 3450 3153 3228 2886 
Q 3006 2619 2597 2516 
z
" id="DejaVuSans-33" transform="scale(0.015625)"/>
       </defs>
       <use xlink:href="#DejaVuSans-32"/>
       <use x="63.623047" xlink:href="#DejaVuSans-30"/>
       <use x="127.246094" xlink:href="#DejaVuSans-32"/>
       <use x="190.869141" xlink:href="#DejaVuSans-31"/>
       <use x="254.492188" xlink:href="#DejaVuSans-2d"/>
       <use x="290.576172" xlink:href="#DejaVuSans-30"/>
       <use x="354.199219" xlink:href="#DejaVuSans-33"/>
      </g>
     </g>
    </g>
    <g id="xtick_5">
     <g id="line2d_5">
      <g>
       <use style="stroke:#000000;stroke-width:0.8;" x="692.491761" xlink:href="#m77d7d6edcd" y="232.382867"/>
      </g>
     </g>
     <g id="text_5">
      <!-- 2021-05 -->
      <g transform="translate(695.251136 281.165679)rotate(-90)scale(0.1 -0.1)">
       <defs>
        <path d="M 691 4666 
L 3169 4666 
L 3169 4134 
L 1269 4134 
L 1269 2991 
Q 1406 3038 1543 3061 
Q 1681 3084 1819 3084 
Q 2600 3084 3056 2656 
Q 3513 2228 3513 1497 
Q 3513 744 3044 326 
Q 2575 -91 1722 -91 
Q 1428 -91 1123 -41 
Q 819 9 494 109 
L 494 744 
Q 775 591 1075 516 
Q 1375 441 1709 441 
Q 2250 441 2565 725 
Q 2881 1009 2881 1497 
Q 2881 1984 2565 2268 
Q 2250 2553 1709 2553 
Q 1456 2553 1204 2497 
Q 953 2441 691 2322 
L 691 4666 
z
" id="DejaVuSans-35" transform="scale(0.015625)"/>
       </defs>
       <use xlink:href="#DejaVuSans-32"/>
       <use x="63.623047" xlink:href="#DejaVuSans-30"/>
       <use x="127.246094" xlink:href="#DejaVuSans-32"/>
       <use x="190.869141" xlink:href="#DejaVuSans-31"/>
       <use x="254.492188" xlink:href="#DejaVuSans-2d"/>
       <use x="290.576172" xlink:href="#DejaVuSans-30"/>
       <use x="354.199219" xlink:href="#DejaVuSans-35"/>
      </g>
     </g>
    </g>
    <g id="xtick_6">
     <g id="line2d_6">
      <g>
       <use style="stroke:#000000;stroke-width:0.8;" x="838.108874" xlink:href="#m77d7d6edcd" y="232.382867"/>
      </g>
     </g>
     <g id="text_6">
      <!-- 2021-07 -->
      <g transform="translate(840.868249 281.165679)rotate(-90)scale(0.1 -0.1)">
       <defs>
        <path d="M 525 4666 
L 3525 4666 
L 3525 4397 
L 1831 0 
L 1172 0 
L 2766 4134 
L 525 4134 
L 525 4666 
z
" id="DejaVuSans-37" transform="scale(0.015625)"/>
       </defs>
       <use xlink:href="#DejaVuSans-32"/>
       <use x="63.623047" xlink:href="#DejaVuSans-30"/>
       <use x="127.246094" xlink:href="#DejaVuSans-32"/>
       <use x="190.869141" xlink:href="#DejaVuSans-31"/>
       <use x="254.492188" xlink:href="#DejaVuSans-2d"/>
       <use x="290.576172" xlink:href="#DejaVuSans-30"/>
       <use x="354.199219" xlink:href="#DejaVuSans-37"/>
      </g>
     </g>
    </g>
    <g id="xtick_7">
     <g id="line2d_7">
      <g>
       <use style="stroke:#000000;stroke-width:0.8;" x="986.113152" xlink:href="#m77d7d6edcd" y="232.382867"/>
      </g>
     </g>
     <g id="text_7">
      <!-- 2021-09 -->
      <g transform="translate(988.872527 281.165679)rotate(-90)scale(0.1 -0.1)">
       <use xlink:href="#DejaVuSans-32"/>
       <use x="63.623047" xlink:href="#DejaVuSans-30"/>
       <use x="127.246094" xlink:href="#DejaVuSans-32"/>
       <use x="190.869141" xlink:href="#DejaVuSans-31"/>
       <use x="254.492188" xlink:href="#DejaVuSans-2d"/>
       <use x="290.576172" xlink:href="#DejaVuSans-30"/>
       <use x="354.199219" xlink:href="#DejaVuSans-39"/>
      </g>
     </g>
    </g>
    <g id="xtick_8">
     <g id="line2d_8">
      <g>
       <use style="stroke:#000000;stroke-width:0.8;" x="1131.730264" xlink:href="#m77d7d6edcd" y="232.382867"/>
      </g>
     </g>
     <g id="text_8">
      <!-- 2021-11 -->
      <g transform="translate(1134.489639 281.165679)rotate(-90)scale(0.1 -0.1)">
       <use xlink:href="#DejaVuSans-32"/>
       <use x="63.623047" xlink:href="#DejaVuSans-30"/>
       <use x="127.246094" xlink:href="#DejaVuSans-32"/>
       <use x="190.869141" xlink:href="#DejaVuSans-31"/>
       <use x="254.492188" xlink:href="#DejaVuSans-2d"/>
       <use x="290.576172" xlink:href="#DejaVuSans-31"/>
       <use x="354.199219" xlink:href="#DejaVuSans-31"/>
      </g>
     </g>
    </g>
    <g id="text_9">
     <!-- Date -->
     <g transform="translate(599.377344 292.764117)scale(0.1 -0.1)">
      <defs>
       <path d="M 1259 4147 
L 1259 519 
L 2022 519 
Q 2988 519 3436 956 
Q 3884 1394 3884 2338 
Q 3884 3275 3436 3711 
Q 2988 4147 2022 4147 
L 1259 4147 
z
M 628 4666 
L 1925 4666 
Q 3281 4666 3915 4102 
Q 4550 3538 4550 2338 
Q 4550 1131 3912 565 
Q 3275 0 1925 0 
L 628 0 
L 628 4666 
z
" id="DejaVuSans-44" transform="scale(0.015625)"/>
       <path d="M 2194 1759 
Q 1497 1759 1228 1600 
Q 959 1441 959 1056 
Q 959 750 1161 570 
Q 1363 391 1709 391 
Q 2188 391 2477 730 
Q 2766 1069 2766 1631 
L 2766 1759 
L 2194 1759 
z
M 3341 1997 
L 3341 0 
L 2766 0 
L 2766 531 
Q 2569 213 2275 61 
Q 1981 -91 1556 -91 
Q 1019 -91 701 211 
Q 384 513 384 1019 
Q 384 1609 779 1909 
Q 1175 2209 1959 2209 
L 2766 2209 
L 2766 2266 
Q 2766 2663 2505 2880 
Q 2244 3097 1772 3097 
Q 1472 3097 1187 3025 
Q 903 2953 641 2809 
L 641 3341 
Q 956 3463 1253 3523 
Q 1550 3584 1831 3584 
Q 2591 3584 2966 3190 
Q 3341 2797 3341 1997 
z
" id="DejaVuSans-61" transform="scale(0.015625)"/>
       <path d="M 1172 4494 
L 1172 3500 
L 2356 3500 
L 2356 3053 
L 1172 3053 
L 1172 1153 
Q 1172 725 1289 603 
Q 1406 481 1766 481 
L 2356 481 
L 2356 0 
L 1766 0 
Q 1100 0 847 248 
Q 594 497 594 1153 
L 594 3053 
L 172 3053 
L 172 3500 
L 594 3500 
L 594 4494 
L 1172 4494 
z
" id="DejaVuSans-74" transform="scale(0.015625)"/>
       <path d="M 3597 1894 
L 3597 1613 
L 953 1613 
Q 991 1019 1311 708 
Q 1631 397 2203 397 
Q 2534 397 2845 478 
Q 3156 559 3463 722 
L 3463 178 
Q 3153 47 2828 -22 
Q 2503 -91 2169 -91 
Q 1331 -91 842 396 
Q 353 884 353 1716 
Q 353 2575 817 3079 
Q 1281 3584 2069 3584 
Q 2775 3584 3186 3129 
Q 3597 2675 3597 1894 
z
M 3022 2063 
Q 3016 2534 2758 2815 
Q 2500 3097 2075 3097 
Q 1594 3097 1305 2825 
Q 1016 2553 972 2059 
L 3022 2063 
z
" id="DejaVuSans-65" transform="scale(0.015625)"/>
      </defs>
      <use xlink:href="#DejaVuSans-44"/>
      <use x="77.001953" xlink:href="#DejaVuSans-61"/>
      <use x="138.28125" xlink:href="#DejaVuSans-74"/>
      <use x="177.490234" xlink:href="#DejaVuSans-65"/>
     </g>
    </g>
   </g>
   <g id="matplotlib.axis_2">
    <g id="ytick_1">
     <g id="line2d_9">
      <defs>
       <path d="M 0 0 
L -3.5 0 
" id="m43d372e476" style="stroke:#000000;stroke-width:0.8;"/>
      </defs>
      <g>
       <use style="stroke:#000000;stroke-width:0.8;" x="53.328125" xlink:href="#m43d372e476" y="232.382867"/>
      </g>
     </g>
     <g id="text_10">
      <!-- 0 -->
      <g transform="translate(39.965625 236.182085)scale(0.1 -0.1)">
       <use xlink:href="#DejaVuSans-30"/>
      </g>
     </g>
    </g>
    <g id="ytick_2">
     <g id="line2d_10">
      <g>
       <use style="stroke:#000000;stroke-width:0.8;" x="53.328125" xlink:href="#m43d372e476" y="204.709911"/>
      </g>
     </g>
     <g id="text_11">
      <!-- 250 -->
      <g transform="translate(27.240625 208.509129)scale(0.1 -0.1)">
       <use xlink:href="#DejaVuSans-32"/>
       <use x="63.623047" xlink:href="#DejaVuSans-35"/>
       <use x="127.246094" xlink:href="#DejaVuSans-30"/>
      </g>
     </g>
    </g>
    <g id="ytick_3">
     <g id="line2d_11">
      <g>
       <use style="stroke:#000000;stroke-width:0.8;" x="53.328125" xlink:href="#m43d372e476" y="177.036955"/>
      </g>
     </g>
     <g id="text_12">
      <!-- 500 -->
      <g transform="translate(27.240625 180.836173)scale(0.1 -0.1)">
       <use xlink:href="#DejaVuSans-35"/>
       <use x="63.623047" xlink:href="#DejaVuSans-30"/>
       <use x="127.246094" xlink:href="#DejaVuSans-30"/>
      </g>
     </g>
    </g>
    <g id="ytick_4">
     <g id="line2d_12">
      <g>
       <use style="stroke:#000000;stroke-width:0.8;" x="53.328125" xlink:href="#m43d372e476" y="149.363999"/>
      </g>
     </g>
     <g id="text_13">
      <!-- 750 -->
      <g transform="translate(27.240625 153.163217)scale(0.1 -0.1)">
       <use xlink:href="#DejaVuSans-37"/>
       <use x="63.623047" xlink:href="#DejaVuSans-35"/>
       <use x="127.246094" xlink:href="#DejaVuSans-30"/>
      </g>
     </g>
    </g>
    <g id="ytick_5">
     <g id="line2d_13">
      <g>
       <use style="stroke:#000000;stroke-width:0.8;" x="53.328125" xlink:href="#m43d372e476" y="121.691043"/>
      </g>
     </g>
     <g id="text_14">
      <!-- 1000 -->
      <g transform="translate(20.878125 125.490261)scale(0.1 -0.1)">
       <use xlink:href="#DejaVuSans-31"/>
       <use x="63.623047" xlink:href="#DejaVuSans-30"/>
       <use x="127.246094" xlink:href="#DejaVuSans-30"/>
       <use x="190.869141" xlink:href="#DejaVuSans-30"/>
      </g>
     </g>
    </g>
    <g id="ytick_6">
     <g id="line2d_14">
      <g>
       <use style="stroke:#000000;stroke-width:0.8;" x="53.328125" xlink:href="#m43d372e476" y="94.018087"/>
      </g>
     </g>
     <g id="text_15">
      <!-- 1250 -->
      <g transform="translate(20.878125 97.817305)scale(0.1 -0.1)">
       <use xlink:href="#DejaVuSans-31"/>
       <use x="63.623047" xlink:href="#DejaVuSans-32"/>
       <use x="127.246094" xlink:href="#DejaVuSans-35"/>
       <use x="190.869141" xlink:href="#DejaVuSans-30"/>
      </g>
     </g>
    </g>
    <g id="ytick_7">
     <g id="line2d_15">
      <g>
       <use style="stroke:#000000;stroke-width:0.8;" x="53.328125" xlink:href="#m43d372e476" y="66.345131"/>
      </g>
     </g>
     <g id="text_16">
      <!-- 1500 -->
      <g transform="translate(20.878125 70.144349)scale(0.1 -0.1)">
       <use xlink:href="#DejaVuSans-31"/>
       <use x="63.623047" xlink:href="#DejaVuSans-35"/>
       <use x="127.246094" xlink:href="#DejaVuSans-30"/>
       <use x="190.869141" xlink:href="#DejaVuSans-30"/>
      </g>
     </g>
    </g>
    <g id="ytick_8">
     <g id="line2d_16">
      <g>
       <use style="stroke:#000000;stroke-width:0.8;" x="53.328125" xlink:href="#m43d372e476" y="38.672175"/>
      </g>
     </g>
     <g id="text_17">
      <!-- 1750 -->
      <g transform="translate(20.878125 42.471393)scale(0.1 -0.1)">
       <use xlink:href="#DejaVuSans-31"/>
       <use x="63.623047" xlink:href="#DejaVuSans-37"/>
       <use x="127.246094" xlink:href="#DejaVuSans-35"/>
       <use x="190.869141" xlink:href="#DejaVuSans-30"/>
      </g>
     </g>
    </g>
    <g id="ytick_9">
     <g id="line2d_17">
      <g>
       <use style="stroke:#000000;stroke-width:0.8;" x="53.328125" xlink:href="#m43d372e476" y="10.999219"/>
      </g>
     </g>
     <g id="text_18">
      <!-- 2000 -->
      <g transform="translate(20.878125 14.798437)scale(0.1 -0.1)">
       <use xlink:href="#DejaVuSans-32"/>
       <use x="63.623047" xlink:href="#DejaVuSans-30"/>
       <use x="127.246094" xlink:href="#DejaVuSans-30"/>
       <use x="190.869141" xlink:href="#DejaVuSans-30"/>
      </g>
     </g>
    </g>
    <g id="text_19">
     <!-- Sequence count -->
     <g transform="translate(14.798437 161.863023)rotate(-90)scale(0.1 -0.1)">
      <defs>
       <path d="M 3425 4513 
L 3425 3897 
Q 3066 4069 2747 4153 
Q 2428 4238 2131 4238 
Q 1616 4238 1336 4038 
Q 1056 3838 1056 3469 
Q 1056 3159 1242 3001 
Q 1428 2844 1947 2747 
L 2328 2669 
Q 3034 2534 3370 2195 
Q 3706 1856 3706 1288 
Q 3706 609 3251 259 
Q 2797 -91 1919 -91 
Q 1588 -91 1214 -16 
Q 841 59 441 206 
L 441 856 
Q 825 641 1194 531 
Q 1563 422 1919 422 
Q 2459 422 2753 634 
Q 3047 847 3047 1241 
Q 3047 1584 2836 1778 
Q 2625 1972 2144 2069 
L 1759 2144 
Q 1053 2284 737 2584 
Q 422 2884 422 3419 
Q 422 4038 858 4394 
Q 1294 4750 2059 4750 
Q 2388 4750 2728 4690 
Q 3069 4631 3425 4513 
z
" id="DejaVuSans-53" transform="scale(0.015625)"/>
       <path d="M 947 1747 
Q 947 1113 1208 752 
Q 1469 391 1925 391 
Q 2381 391 2643 752 
Q 2906 1113 2906 1747 
Q 2906 2381 2643 2742 
Q 2381 3103 1925 3103 
Q 1469 3103 1208 2742 
Q 947 2381 947 1747 
z
M 2906 525 
Q 2725 213 2448 61 
Q 2172 -91 1784 -91 
Q 1150 -91 751 415 
Q 353 922 353 1747 
Q 353 2572 751 3078 
Q 1150 3584 1784 3584 
Q 2172 3584 2448 3432 
Q 2725 3281 2906 2969 
L 2906 3500 
L 3481 3500 
L 3481 -1331 
L 2906 -1331 
L 2906 525 
z
" id="DejaVuSans-71" transform="scale(0.015625)"/>
       <path d="M 544 1381 
L 544 3500 
L 1119 3500 
L 1119 1403 
Q 1119 906 1312 657 
Q 1506 409 1894 409 
Q 2359 409 2629 706 
Q 2900 1003 2900 1516 
L 2900 3500 
L 3475 3500 
L 3475 0 
L 2900 0 
L 2900 538 
Q 2691 219 2414 64 
Q 2138 -91 1772 -91 
Q 1169 -91 856 284 
Q 544 659 544 1381 
z
M 1991 3584 
L 1991 3584 
z
" id="DejaVuSans-75" transform="scale(0.015625)"/>
       <path d="M 3513 2113 
L 3513 0 
L 2938 0 
L 2938 2094 
Q 2938 2591 2744 2837 
Q 2550 3084 2163 3084 
Q 1697 3084 1428 2787 
Q 1159 2491 1159 1978 
L 1159 0 
L 581 0 
L 581 3500 
L 1159 3500 
L 1159 2956 
Q 1366 3272 1645 3428 
Q 1925 3584 2291 3584 
Q 2894 3584 3203 3211 
Q 3513 2838 3513 2113 
z
" id="DejaVuSans-6e" transform="scale(0.015625)"/>
       <path d="M 3122 3366 
L 3122 2828 
Q 2878 2963 2633 3030 
Q 2388 3097 2138 3097 
Q 1578 3097 1268 2742 
Q 959 2388 959 1747 
Q 959 1106 1268 751 
Q 1578 397 2138 397 
Q 2388 397 2633 464 
Q 2878 531 3122 666 
L 3122 134 
Q 2881 22 2623 -34 
Q 2366 -91 2075 -91 
Q 1284 -91 818 406 
Q 353 903 353 1747 
Q 353 2603 823 3093 
Q 1294 3584 2113 3584 
Q 2378 3584 2631 3529 
Q 2884 3475 3122 3366 
z
" id="DejaVuSans-63" transform="scale(0.015625)"/>
       <path id="DejaVuSans-20" transform="scale(0.015625)"/>
       <path d="M 1959 3097 
Q 1497 3097 1228 2736 
Q 959 2375 959 1747 
Q 959 1119 1226 758 
Q 1494 397 1959 397 
Q 2419 397 2687 759 
Q 2956 1122 2956 1747 
Q 2956 2369 2687 2733 
Q 2419 3097 1959 3097 
z
M 1959 3584 
Q 2709 3584 3137 3096 
Q 3566 2609 3566 1747 
Q 3566 888 3137 398 
Q 2709 -91 1959 -91 
Q 1206 -91 779 398 
Q 353 888 353 1747 
Q 353 2609 779 3096 
Q 1206 3584 1959 3584 
z
" id="DejaVuSans-6f" transform="scale(0.015625)"/>
      </defs>
      <use xlink:href="#DejaVuSans-53"/>
      <use x="63.476562" xlink:href="#DejaVuSans-65"/>
      <use x="125" xlink:href="#DejaVuSans-71"/>
      <use x="188.476562" xlink:href="#DejaVuSans-75"/>
      <use x="251.855469" xlink:href="#DejaVuSans-65"/>
      <use x="313.378906" xlink:href="#DejaVuSans-6e"/>
      <use x="376.757812" xlink:href="#DejaVuSans-63"/>
      <use x="431.738281" xlink:href="#DejaVuSans-65"/>
      <use x="493.261719" xlink:href="#DejaVuSans-20"/>
      <use x="525.048828" xlink:href="#DejaVuSans-63"/>
      <use x="580.029297" xlink:href="#DejaVuSans-6f"/>
      <use x="641.210938" xlink:href="#DejaVuSans-75"/>
      <use x="704.589844" xlink:href="#DejaVuSans-6e"/>
      <use x="767.96875" xlink:href="#DejaVuSans-74"/>
     </g>
    </g>
   </g>
   <g id="patch_62">
    <path d="M 53.328125 232.382867 
L 53.328125 10.622867 
" style="fill:none;stroke:#000000;stroke-linecap:square;stroke-linejoin:miter;stroke-width:0.8;"/>
   </g>
   <g id="patch_63">
    <path d="M 1169.328125 232.382867 
L 1169.328125 10.622867 
" style="fill:none;stroke:#000000;stroke-linecap:square;stroke-linejoin:miter;stroke-width:0.8;"/>
   </g>
   <g id="patch_64">
    <path d="M 53.328125 232.382867 
L 1169.328125 232.382867 
" style="fill:none;stroke:#000000;stroke-linecap:square;stroke-linejoin:miter;stroke-width:0.8;"/>
   </g>
  </g>
  <g id="axes_2">
   <g id="matplotlib.axis_3">
    <g id="ytick_10">
     <g id="line2d_18">
      <defs>
       <path d="M 0 0 
L 3.5 0 
" id="m382f29810f" style="stroke:#000000;stroke-width:0.8;"/>
      </defs>
      <g>
       <use style="stroke:#000000;stroke-width:0.8;" x="1169.328125" xlink:href="#m382f29810f" y="222.343184"/>
      </g>
     </g>
     <g id="text_20">
      <!-- 0 -->
      <g transform="translate(1176.328125 226.142403)scale(0.1 -0.1)">
       <use xlink:href="#DejaVuSans-30"/>
      </g>
     </g>
    </g>
    <g id="ytick_11">
     <g id="line2d_19">
      <g>
       <use style="stroke:#000000;stroke-width:0.8;" x="1169.328125" xlink:href="#m382f29810f" y="188.745424"/>
      </g>
     </g>
     <g id="text_21">
      <!-- 5000 -->
      <g transform="translate(1176.328125 192.544642)scale(0.1 -0.1)">
       <use xlink:href="#DejaVuSans-35"/>
       <use x="63.623047" xlink:href="#DejaVuSans-30"/>
       <use x="127.246094" xlink:href="#DejaVuSans-30"/>
       <use x="190.869141" xlink:href="#DejaVuSans-30"/>
      </g>
     </g>
    </g>
    <g id="ytick_12">
     <g id="line2d_20">
      <g>
       <use style="stroke:#000000;stroke-width:0.8;" x="1169.328125" xlink:href="#m382f29810f" y="155.147664"/>
      </g>
     </g>
     <g id="text_22">
      <!-- 10000 -->
      <g transform="translate(1176.328125 158.946882)scale(0.1 -0.1)">
       <use xlink:href="#DejaVuSans-31"/>
       <use x="63.623047" xlink:href="#DejaVuSans-30"/>
       <use x="127.246094" xlink:href="#DejaVuSans-30"/>
       <use x="190.869141" xlink:href="#DejaVuSans-30"/>
       <use x="254.492188" xlink:href="#DejaVuSans-30"/>
      </g>
     </g>
    </g>
    <g id="ytick_13">
     <g id="line2d_21">
      <g>
       <use style="stroke:#000000;stroke-width:0.8;" x="1169.328125" xlink:href="#m382f29810f" y="121.549903"/>
      </g>
     </g>
     <g id="text_23">
      <!-- 15000 -->
      <g transform="translate(1176.328125 125.349122)scale(0.1 -0.1)">
       <use xlink:href="#DejaVuSans-31"/>
       <use x="63.623047" xlink:href="#DejaVuSans-35"/>
       <use x="127.246094" xlink:href="#DejaVuSans-30"/>
       <use x="190.869141" xlink:href="#DejaVuSans-30"/>
       <use x="254.492188" xlink:href="#DejaVuSans-30"/>
      </g>
     </g>
    </g>
    <g id="ytick_14">
     <g id="line2d_22">
      <g>
       <use style="stroke:#000000;stroke-width:0.8;" x="1169.328125" xlink:href="#m382f29810f" y="87.952143"/>
      </g>
     </g>
     <g id="text_24">
      <!-- 20000 -->
      <g transform="translate(1176.328125 91.751362)scale(0.1 -0.1)">
       <use xlink:href="#DejaVuSans-32"/>
       <use x="63.623047" xlink:href="#DejaVuSans-30"/>
       <use x="127.246094" xlink:href="#DejaVuSans-30"/>
       <use x="190.869141" xlink:href="#DejaVuSans-30"/>
       <use x="254.492188" xlink:href="#DejaVuSans-30"/>
      </g>
     </g>
    </g>
    <g id="ytick_15">
     <g id="line2d_23">
      <g>
       <use style="stroke:#000000;stroke-width:0.8;" x="1169.328125" xlink:href="#m382f29810f" y="54.354383"/>
      </g>
     </g>
     <g id="text_25">
      <!-- 25000 -->
      <g transform="translate(1176.328125 58.153602)scale(0.1 -0.1)">
       <use xlink:href="#DejaVuSans-32"/>
       <use x="63.623047" xlink:href="#DejaVuSans-35"/>
       <use x="127.246094" xlink:href="#DejaVuSans-30"/>
       <use x="190.869141" xlink:href="#DejaVuSans-30"/>
       <use x="254.492188" xlink:href="#DejaVuSans-30"/>
      </g>
     </g>
    </g>
    <g id="ytick_16">
     <g id="line2d_24">
      <g>
       <use style="stroke:#000000;stroke-width:0.8;" x="1169.328125" xlink:href="#m382f29810f" y="20.756623"/>
      </g>
     </g>
     <g id="text_26">
      <!-- 30000 -->
      <g transform="translate(1176.328125 24.555842)scale(0.1 -0.1)">
       <use xlink:href="#DejaVuSans-33"/>
       <use x="63.623047" xlink:href="#DejaVuSans-30"/>
       <use x="127.246094" xlink:href="#DejaVuSans-30"/>
       <use x="190.869141" xlink:href="#DejaVuSans-30"/>
       <use x="254.492188" xlink:href="#DejaVuSans-30"/>
      </g>
     </g>
    </g>
    <g id="text_27">
     <!-- Total -->
     <g transform="translate(1219.739063 133.179429)rotate(-90)scale(0.1 -0.1)">
      <defs>
       <path d="M -19 4666 
L 3928 4666 
L 3928 4134 
L 2272 4134 
L 2272 0 
L 1638 0 
L 1638 4134 
L -19 4134 
L -19 4666 
z
" id="DejaVuSans-54" transform="scale(0.015625)"/>
       <path d="M 603 4863 
L 1178 4863 
L 1178 0 
L 603 0 
L 603 4863 
z
" id="DejaVuSans-6c" transform="scale(0.015625)"/>
      </defs>
      <use xlink:href="#DejaVuSans-54"/>
      <use x="44.083984" xlink:href="#DejaVuSans-6f"/>
      <use x="105.265625" xlink:href="#DejaVuSans-74"/>
      <use x="144.474609" xlink:href="#DejaVuSans-61"/>
      <use x="205.753906" xlink:href="#DejaVuSans-6c"/>
     </g>
    </g>
   </g>
   <g id="line2d_25">
    <path clip-path="url(#pe0082cd052)" d="M 114.797644 222.302867 
L 148.217965 222.007206 
L 167.315291 221.765302 
L 186.412617 221.536838 
L 195.96128 221.469642 
L 215.058606 221.35541 
L 236.543098 220.992554 
L 241.31743 220.831285 
L 250.866093 220.562503 
L 255.640424 220.387794 
L 260.414756 220.340757 
L 265.189088 220.031658 
L 274.737751 219.574728 
L 281.899248 219.494094 
L 289.060745 218.983408 
L 298.609408 218.849017 
L 305.770906 218.130025 
L 310.545237 218.069549 
L 312.932403 217.874682 
L 315.319569 217.44463 
L 317.706735 217.236324 
L 329.642564 216.819712 
L 334.416895 216.416539 
L 343.965558 215.878975 
L 346.352724 215.49596 
L 348.73989 215.327972 
L 351.127055 214.998713 
L 355.901387 214.629138 
L 360.675719 214.488028 
L 365.45005 213.654803 
L 367.837216 213.527132 
L 370.224382 213.238191 
L 372.611547 212.835018 
L 377.385879 212.660309 
L 379.773045 212.062269 
L 382.160211 211.632218 
L 389.321708 210.778835 
L 394.096039 210.355503 
L 398.870371 208.796567 
L 403.644703 207.970062 
L 406.031868 207.781915 
L 408.419034 207.432498 
L 410.8062 207.204033 
L 413.193366 205.940757 
L 415.580531 205.040337 
L 417.967697 204.260869 
L 420.354863 203.830818 
L 422.742029 203.246217 
L 427.51636 202.641457 
L 429.903526 201.660403 
L 437.065023 199.496707 
L 441.839355 198.690361 
L 444.226521 198.508933 
L 446.613686 197.850417 
L 451.388018 196.795447 
L 456.16235 195.525452 
L 458.549515 195.310426 
L 460.936681 194.94757 
L 463.323847 194.080748 
L 472.87251 191.271975 
L 475.259676 190.855363 
L 477.646842 190.640337 
L 480.034007 189.793674 
L 482.421173 188.772302 
L 484.808339 187.918919 
L 487.195505 187.280561 
L 489.58267 186.447337 
L 494.357002 185.808979 
L 496.744168 184.276922 
L 499.131334 183.268989 
L 501.518499 182.395447 
L 503.905665 180.755876 
L 506.292831 179.821859 
L 508.679997 179.297734 
L 511.067162 179.035671 
L 513.454328 177.611126 
L 515.841494 176.415046 
L 523.002991 173.418126 
L 527.777323 172.430351 
L 530.164489 170.763902 
L 532.551654 169.5947 
L 534.93882 168.183595 
L 537.325986 166.994234 
L 539.713152 165.663762 
L 544.487483 164.64911 
L 546.874649 162.525732 
L 551.648981 158.816539 
L 556.423312 156.498294 
L 561.197644 155.187981 
L 563.584809 152.728625 
L 565.971975 150.753077 
L 570.746307 147.09764 
L 573.133473 145.075055 
L 575.520638 143.899133 
L 577.907804 143.146544 
L 580.29497 140.774542 
L 582.682136 138.133758 
L 589.843633 132.281028 
L 592.230799 131.118546 
L 594.617965 130.211406 
L 597.00513 127.617659 
L 599.392296 125.292694 
L 601.779462 123.216352 
L 604.166628 121.361756 
L 606.553793 119.856576 
L 608.940959 118.969595 
L 611.328125 118.257323 
L 616.102457 112.44491 
L 618.489622 110.529838 
L 620.876788 108.923865 
L 625.65112 106.14869 
L 628.038285 105.221392 
L 637.586949 98.871415 
L 639.974114 97.467029 
L 642.36128 96.412059 
L 644.748446 95.578835 
L 649.522777 91.399273 
L 651.909943 89.94785 
L 656.684275 87.481775 
L 659.071441 86.406646 
L 661.458606 85.869082 
L 663.845772 84.09512 
L 668.620104 81.24603 
L 671.007269 80.117146 
L 673.394435 78.820272 
L 678.168767 77.160543 
L 680.555932 75.178275 
L 682.943098 73.390874 
L 685.330264 72.053683 
L 690.104596 69.775755 
L 694.878927 68.445284 
L 697.266093 66.684761 
L 699.653259 65.132545 
L 702.040424 63.721439 
L 706.814756 61.618219 
L 709.201922 60.838751 
L 711.589088 60.354943 
L 718.750585 56.867496 
L 723.524916 55.395914 
L 725.912082 54.871789 
L 728.299248 54.522372 
L 730.686414 53.420365 
L 735.460745 51.720319 
L 737.847911 51.014766 
L 740.235077 50.430165 
L 745.009408 49.852283 
L 747.396574 49.160169 
L 749.78374 48.145517 
L 752.170906 47.607953 
L 756.945237 46.143091 
L 759.332403 45.739917 
L 761.719569 45.531611 
L 766.4939 43.925638 
L 771.268232 42.669082 
L 773.655398 41.923212 
L 776.042564 41.439404 
L 778.429729 41.116866 
L 783.204061 39.342904 
L 790.365558 38.099787 
L 795.13989 37.649577 
L 797.527055 37.024658 
L 807.075719 35.04911 
L 811.85005 34.699693 
L 814.237216 33.980701 
L 816.624382 33.113879 
L 819.011547 32.542717 
L 821.398713 32.139544 
L 823.785879 31.521345 
L 828.560211 30.923305 
L 830.947376 30.412619 
L 833.334542 29.727225 
L 838.108874 28.920879 
L 842.883205 28.390034 
L 845.270371 28.29596 
L 847.657537 28.027178 
L 850.044703 27.503053 
L 859.593366 26.300253 
L 861.980531 26.071789 
L 864.367697 25.722372 
L 866.754863 25.036978 
L 873.91636 24.479255 
L 878.690692 24.39862 
L 888.239355 23.531798 
L 890.626521 23.336931 
L 895.400852 23.20254 
L 909.723847 22.281961 
L 914.498178 22.14757 
L 916.885344 21.898947 
L 940.757002 21.327785 
L 947.918499 21.294187 
L 952.692831 21.153077 
L 962.241494 21.072442 
L 986.113152 20.897734 
L 1017.146307 20.80366 
L 1117.407269 20.702867 
L 1117.407269 20.702867 
" style="fill:none;stroke:#696969;stroke-linecap:square;stroke-width:3;"/>
   </g>
   <g id="patch_65">
    <path d="M 53.328125 232.382867 
L 53.328125 10.622867 
" style="fill:none;stroke:#000000;stroke-linecap:square;stroke-linejoin:miter;stroke-width:0.8;"/>
   </g>
   <g id="patch_66">
    <path d="M 1169.328125 232.382867 
L 1169.328125 10.622867 
" style="fill:none;stroke:#000000;stroke-linecap:square;stroke-linejoin:miter;stroke-width:0.8;"/>
   </g>
   <g id="patch_67">
    <path d="M 53.328125 232.382867 
L 1169.328125 232.382867 
" style="fill:none;stroke:#000000;stroke-linecap:square;stroke-linejoin:miter;stroke-width:0.8;"/>
   </g>
  </g>
 </g>
 <defs>
  <clipPath id="pe0082cd052">
   <rect height="221.76" width="1116" x="53.328125" y="10.622867"/>
  </clipPath>
 </defs>
</svg>
