<?xml version="1.0" encoding="utf-8" standalone="no"?>
<!DOCTYPE svg PUBLIC "-//W3C//DTD SVG 1.1//EN"
  "http://www.w3.org/Graphics/SVG/1.1/DTD/svg11.dtd">
<svg height="302.276106pt" version="1.1" viewBox="0 0 1235.38125 302.276106" width="1235.38125pt" xmlns="http://www.w3.org/2000/svg" xmlns:xlink="http://www.w3.org/1999/xlink">
 <metadata>
  <rdf:RDF xmlns:cc="http://creativecommons.org/ns#" xmlns:dc="http://purl.org/dc/elements/1.1/" xmlns:rdf="http://www.w3.org/1999/02/22-rdf-syntax-ns#">
   <cc:Work>
    <dc:type rdf:resource="http://purl.org/dc/dcmitype/StillImage"/>
    <dc:date>2021-12-07T14:58:45.187353</dc:date>
    <dc:format>image/svg+xml</dc:format>
    <dc:creator>
     <cc:Agent>
      <dc:title>Matplotlib v3.4.2, https://matplotlib.org/</dc:title>
     </cc:Agent>
    </dc:creator>
   </cc:Work>
  </rdf:RDF>
 </metadata>
 <defs>
  <style type="text/css">*{stroke-linecap:butt;stroke-linejoin:round;}</style>
 </defs>
 <g id="figure_1">
  <g id="patch_1">
   <path d="M 0 302.276106 
L 1235.38125 302.276106 
L 1235.38125 0 
L 0 0 
z
" style="fill:#ffffff;"/>
  </g>
  <g id="axes_1">
   <g id="patch_2">
    <path d="M 53.328125 232.615168 
L 1169.328125 232.615168 
L 1169.328125 10.855168 
L 53.328125 10.855168 
z
" style="fill:#ffffff;"/>
   </g>
   <g id="patch_3">
    <path clip-path="url(#pa2b507dbd2)" d="M 104.055398 232.615168 
L 122.302618 232.615168 
L 122.302618 231.645599 
L 104.055398 231.645599 
z
" style="fill:#86b0a6;"/>
   </g>
   <g id="patch_4">
    <path clip-path="url(#pa2b507dbd2)" d="M 129.601506 232.615168 
L 147.848727 232.615168 
L 147.848727 231.202367 
L 129.601506 231.202367 
z
" style="fill:#86b0a6;"/>
   </g>
   <g id="patch_5">
    <path clip-path="url(#pa2b507dbd2)" d="M 155.147615 232.615168 
L 173.394835 232.615168 
L 173.394835 230.121989 
L 155.147615 230.121989 
z
" style="fill:#86b0a6;"/>
   </g>
   <g id="patch_6">
    <path clip-path="url(#pa2b507dbd2)" d="M 180.693723 232.615168 
L 198.940944 232.615168 
L 198.940944 229.263227 
L 180.693723 229.263227 
z
" style="fill:#86b0a6;"/>
   </g>
   <g id="patch_7">
    <path clip-path="url(#pa2b507dbd2)" d="M 206.239832 232.615168 
L 224.487052 232.615168 
L 224.487052 221.091139 
L 206.239832 221.091139 
z
" style="fill:#86b0a6;"/>
   </g>
   <g id="patch_8">
    <path clip-path="url(#pa2b507dbd2)" d="M 231.785941 232.615168 
L 250.033161 232.615168 
L 250.033161 206.963122 
L 231.785941 206.963122 
z
" style="fill:#86b0a6;"/>
   </g>
   <g id="patch_9">
    <path clip-path="url(#pa2b507dbd2)" d="M 257.332049 232.615168 
L 275.57927 232.615168 
L 275.57927 197.405934 
L 257.332049 197.405934 
z
" style="fill:#86b0a6;"/>
   </g>
   <g id="patch_10">
    <path clip-path="url(#pa2b507dbd2)" d="M 282.878158 232.615168 
L 301.125378 232.615168 
L 301.125378 182.47456 
L 282.878158 182.47456 
z
" style="fill:#86b0a6;"/>
   </g>
   <g id="patch_11">
    <path clip-path="url(#pa2b507dbd2)" d="M 308.424266 232.615168 
L 326.671487 232.615168 
L 326.671487 172.169418 
L 308.424266 172.169418 
z
" style="fill:#86b0a6;"/>
   </g>
   <g id="patch_12">
    <path clip-path="url(#pa2b507dbd2)" d="M 333.970375 232.615168 
L 352.217595 232.615168 
L 352.217595 171.50457 
L 333.970375 171.50457 
z
" style="fill:#86b0a6;"/>
   </g>
   <g id="patch_13">
    <path clip-path="url(#pa2b507dbd2)" d="M 359.516483 232.615168 
L 377.763704 232.615168 
L 377.763704 176.352419 
L 359.516483 176.352419 
z
" style="fill:#86b0a6;"/>
   </g>
   <g id="patch_14">
    <path clip-path="url(#pa2b507dbd2)" d="M 385.062592 232.615168 
L 403.309812 232.615168 
L 403.309812 173.554518 
L 385.062592 173.554518 
z
" style="fill:#86b0a6;"/>
   </g>
   <g id="patch_15">
    <path clip-path="url(#pa2b507dbd2)" d="M 410.608701 232.615168 
L 428.855921 232.615168 
L 428.855921 177.072671 
L 410.608701 177.072671 
z
" style="fill:#86b0a6;"/>
   </g>
   <g id="patch_16">
    <path clip-path="url(#pa2b507dbd2)" d="M 436.154809 232.615168 
L 454.40203 232.615168 
L 454.40203 168.540457 
L 436.154809 168.540457 
z
" style="fill:#86b0a6;"/>
   </g>
   <g id="patch_17">
    <path clip-path="url(#pa2b507dbd2)" d="M 461.700918 232.615168 
L 479.948138 232.615168 
L 479.948138 172.723458 
L 461.700918 172.723458 
z
" style="fill:#86b0a6;"/>
   </g>
   <g id="patch_18">
    <path clip-path="url(#pa2b507dbd2)" d="M 487.247026 232.615168 
L 505.494247 232.615168 
L 505.494247 167.653993 
L 487.247026 167.653993 
z
" style="fill:#86b0a6;"/>
   </g>
   <g id="patch_19">
    <path clip-path="url(#pa2b507dbd2)" d="M 512.793135 232.615168 
L 531.040355 232.615168 
L 531.040355 159.481905 
L 512.793135 159.481905 
z
" style="fill:#86b0a6;"/>
   </g>
   <g id="patch_20">
    <path clip-path="url(#pa2b507dbd2)" d="M 538.339243 232.615168 
L 556.586464 232.615168 
L 556.586464 147.847068 
L 538.339243 147.847068 
z
" style="fill:#86b0a6;"/>
   </g>
   <g id="patch_21">
    <path clip-path="url(#pa2b507dbd2)" d="M 563.885352 232.615168 
L 582.132572 232.615168 
L 582.132572 139.037834 
L 563.885352 139.037834 
z
" style="fill:#86b0a6;"/>
   </g>
   <g id="patch_22">
    <path clip-path="url(#pa2b507dbd2)" d="M 589.431461 232.615168 
L 607.678681 232.615168 
L 607.678681 121.391664 
L 589.431461 121.391664 
z
" style="fill:#86b0a6;"/>
   </g>
   <g id="patch_23">
    <path clip-path="url(#pa2b507dbd2)" d="M 614.977569 232.615168 
L 633.224789 232.615168 
L 633.224789 101.861758 
L 614.977569 101.861758 
z
" style="fill:#86b0a6;"/>
   </g>
   <g id="patch_24">
    <path clip-path="url(#pa2b507dbd2)" d="M 640.523678 232.615168 
L 658.770898 232.615168 
L 658.770898 71.057141 
L 640.523678 71.057141 
z
" style="fill:#86b0a6;"/>
   </g>
   <g id="patch_25">
    <path clip-path="url(#pa2b507dbd2)" d="M 666.069786 232.615168 
L 684.317007 232.615168 
L 684.317007 29.504151 
L 666.069786 29.504151 
z
" style="fill:#86b0a6;"/>
   </g>
   <g id="patch_26">
    <path clip-path="url(#pa2b507dbd2)" d="M 691.615895 232.615168 
L 709.863115 232.615168 
L 709.863115 36.208033 
L 691.615895 36.208033 
z
" style="fill:#86b0a6;"/>
   </g>
   <g id="patch_27">
    <path clip-path="url(#pa2b507dbd2)" d="M 717.162003 232.615168 
L 735.409224 232.615168 
L 735.409224 21.415168 
L 717.162003 21.415168 
z
" style="fill:#86b0a6;"/>
   </g>
   <g id="patch_28">
    <path clip-path="url(#pa2b507dbd2)" d="M 742.708112 232.615168 
L 760.955332 232.615168 
L 760.955332 43.576763 
L 742.708112 43.576763 
z
" style="fill:#86b0a6;"/>
   </g>
   <g id="patch_29">
    <path clip-path="url(#pa2b507dbd2)" d="M 768.25422 232.615168 
L 786.501441 232.615168 
L 786.501441 48.147592 
L 768.25422 48.147592 
z
" style="fill:#86b0a6;"/>
   </g>
   <g id="patch_30">
    <path clip-path="url(#pa2b507dbd2)" d="M 793.800329 232.615168 
L 812.047549 232.615168 
L 812.047549 62.940457 
L 793.800329 62.940457 
z
" style="fill:#86b0a6;"/>
   </g>
   <g id="patch_31">
    <path clip-path="url(#pa2b507dbd2)" d="M 819.346438 232.615168 
L 837.593658 232.615168 
L 837.593658 72.026711 
L 819.346438 72.026711 
z
" style="fill:#86b0a6;"/>
   </g>
   <g id="patch_32">
    <path clip-path="url(#pa2b507dbd2)" d="M 844.892546 232.615168 
L 863.139767 232.615168 
L 863.139767 81.888621 
L 844.892546 81.888621 
z
" style="fill:#86b0a6;"/>
   </g>
   <g id="patch_33">
    <path clip-path="url(#pa2b507dbd2)" d="M 870.438655 232.615168 
L 888.685875 232.615168 
L 888.685875 86.708768 
L 870.438655 86.708768 
z
" style="fill:#86b0a6;"/>
   </g>
   <g id="patch_34">
    <path clip-path="url(#pa2b507dbd2)" d="M 895.984763 232.615168 
L 914.231984 232.615168 
L 914.231984 75.711076 
L 895.984763 75.711076 
z
" style="fill:#86b0a6;"/>
   </g>
   <g id="patch_35">
    <path clip-path="url(#pa2b507dbd2)" d="M 921.530872 232.615168 
L 939.778092 232.615168 
L 939.778092 74.686102 
L 921.530872 74.686102 
z
" style="fill:#86b0a6;"/>
   </g>
   <g id="patch_36">
    <path clip-path="url(#pa2b507dbd2)" d="M 947.07698 232.615168 
L 965.324201 232.615168 
L 965.324201 70.447697 
L 947.07698 70.447697 
z
" style="fill:#86b0a6;"/>
   </g>
   <g id="patch_37">
    <path clip-path="url(#pa2b507dbd2)" d="M 972.623089 232.615168 
L 990.870309 232.615168 
L 990.870309 71.583479 
L 972.623089 71.583479 
z
" style="fill:#86b0a6;"/>
   </g>
   <g id="patch_38">
    <path clip-path="url(#pa2b507dbd2)" d="M 998.169198 232.615168 
L 1016.416418 232.615168 
L 1016.416418 68.730174 
L 998.169198 68.730174 
z
" style="fill:#86b0a6;"/>
   </g>
   <g id="patch_39">
    <path clip-path="url(#pa2b507dbd2)" d="M 1023.715306 232.615168 
L 1041.962527 232.615168 
L 1041.962527 68.25924 
L 1023.715306 68.25924 
z
" style="fill:#86b0a6;"/>
   </g>
   <g id="patch_40">
    <path clip-path="url(#pa2b507dbd2)" d="M 1049.261415 232.615168 
L 1067.508635 232.615168 
L 1067.508635 127.790824 
L 1049.261415 127.790824 
z
" style="fill:#86b0a6;"/>
   </g>
   <g id="patch_41">
    <path clip-path="url(#pa2b507dbd2)" d="M 1074.807523 232.615168 
L 1093.054744 232.615168 
L 1093.054744 184.856931 
L 1074.807523 184.856931 
z
" style="fill:#86b0a6;"/>
   </g>
   <g id="patch_42">
    <path clip-path="url(#pa2b507dbd2)" d="M 1100.353632 232.615168 
L 1118.600852 232.615168 
L 1118.600852 231.756407 
L 1100.353632 231.756407 
z
" style="fill:#86b0a6;"/>
   </g>
   <g id="matplotlib.axis_1">
    <g id="xtick_1">
     <g id="line2d_1">
      <defs>
       <path d="M 0 0 
L 0 3.5 
" id="m76cfaa2550" style="stroke:#000000;stroke-width:0.8;"/>
      </defs>
      <g>
       <use style="stroke:#000000;stroke-width:0.8;" x="116.828452" xlink:href="#m76cfaa2550" y="232.615168"/>
      </g>
     </g>
     <g id="text_1">
      <!-- 2021-03 -->
      <g transform="translate(119.587827 281.397981)rotate(-90)scale(0.1 -0.1)">
       <defs>
        <path d="M 1228 531 
L 3431 531 
L 3431 0 
L 469 0 
L 469 531 
Q 828 903 1448 1529 
Q 2069 2156 2228 2338 
Q 2531 2678 2651 2914 
Q 2772 3150 2772 3378 
Q 2772 3750 2511 3984 
Q 2250 4219 1831 4219 
Q 1534 4219 1204 4116 
Q 875 4013 500 3803 
L 500 4441 
Q 881 4594 1212 4672 
Q 1544 4750 1819 4750 
Q 2544 4750 2975 4387 
Q 3406 4025 3406 3419 
Q 3406 3131 3298 2873 
Q 3191 2616 2906 2266 
Q 2828 2175 2409 1742 
Q 1991 1309 1228 531 
z
" id="DejaVuSans-32" transform="scale(0.015625)"/>
        <path d="M 2034 4250 
Q 1547 4250 1301 3770 
Q 1056 3291 1056 2328 
Q 1056 1369 1301 889 
Q 1547 409 2034 409 
Q 2525 409 2770 889 
Q 3016 1369 3016 2328 
Q 3016 3291 2770 3770 
Q 2525 4250 2034 4250 
z
M 2034 4750 
Q 2819 4750 3233 4129 
Q 3647 3509 3647 2328 
Q 3647 1150 3233 529 
Q 2819 -91 2034 -91 
Q 1250 -91 836 529 
Q 422 1150 422 2328 
Q 422 3509 836 4129 
Q 1250 4750 2034 4750 
z
" id="DejaVuSans-30" transform="scale(0.015625)"/>
        <path d="M 794 531 
L 1825 531 
L 1825 4091 
L 703 3866 
L 703 4441 
L 1819 4666 
L 2450 4666 
L 2450 531 
L 3481 531 
L 3481 0 
L 794 0 
L 794 531 
z
" id="DejaVuSans-31" transform="scale(0.015625)"/>
        <path d="M 313 2009 
L 1997 2009 
L 1997 1497 
L 313 1497 
L 313 2009 
z
" id="DejaVuSans-2d" transform="scale(0.015625)"/>
        <path d="M 2597 2516 
Q 3050 2419 3304 2112 
Q 3559 1806 3559 1356 
Q 3559 666 3084 287 
Q 2609 -91 1734 -91 
Q 1441 -91 1130 -33 
Q 819 25 488 141 
L 488 750 
Q 750 597 1062 519 
Q 1375 441 1716 441 
Q 2309 441 2620 675 
Q 2931 909 2931 1356 
Q 2931 1769 2642 2001 
Q 2353 2234 1838 2234 
L 1294 2234 
L 1294 2753 
L 1863 2753 
Q 2328 2753 2575 2939 
Q 2822 3125 2822 3475 
Q 2822 3834 2567 4026 
Q 2313 4219 1838 4219 
Q 1578 4219 1281 4162 
Q 984 4106 628 3988 
L 628 4550 
Q 988 4650 1302 4700 
Q 1616 4750 1894 4750 
Q 2613 4750 3031 4423 
Q 3450 4097 3450 3541 
Q 3450 3153 3228 2886 
Q 3006 2619 2597 2516 
z
" id="DejaVuSans-33" transform="scale(0.015625)"/>
       </defs>
       <use xlink:href="#DejaVuSans-32"/>
       <use x="63.623047" xlink:href="#DejaVuSans-30"/>
       <use x="127.246094" xlink:href="#DejaVuSans-32"/>
       <use x="190.869141" xlink:href="#DejaVuSans-31"/>
       <use x="254.492188" xlink:href="#DejaVuSans-2d"/>
       <use x="290.576172" xlink:href="#DejaVuSans-30"/>
       <use x="354.199219" xlink:href="#DejaVuSans-33"/>
      </g>
     </g>
    </g>
    <g id="xtick_2">
     <g id="line2d_2">
      <g>
       <use style="stroke:#000000;stroke-width:0.8;" x="229.961219" xlink:href="#m76cfaa2550" y="232.615168"/>
      </g>
     </g>
     <g id="text_2">
      <!-- 2021-04 -->
      <g transform="translate(232.720594 281.397981)rotate(-90)scale(0.1 -0.1)">
       <defs>
        <path d="M 2419 4116 
L 825 1625 
L 2419 1625 
L 2419 4116 
z
M 2253 4666 
L 3047 4666 
L 3047 1625 
L 3713 1625 
L 3713 1100 
L 3047 1100 
L 3047 0 
L 2419 0 
L 2419 1100 
L 313 1100 
L 313 1709 
L 2253 4666 
z
" id="DejaVuSans-34" transform="scale(0.015625)"/>
       </defs>
       <use xlink:href="#DejaVuSans-32"/>
       <use x="63.623047" xlink:href="#DejaVuSans-30"/>
       <use x="127.246094" xlink:href="#DejaVuSans-32"/>
       <use x="190.869141" xlink:href="#DejaVuSans-31"/>
       <use x="254.492188" xlink:href="#DejaVuSans-2d"/>
       <use x="290.576172" xlink:href="#DejaVuSans-30"/>
       <use x="354.199219" xlink:href="#DejaVuSans-34"/>
      </g>
     </g>
    </g>
    <g id="xtick_3">
     <g id="line2d_3">
      <g>
       <use style="stroke:#000000;stroke-width:0.8;" x="339.444541" xlink:href="#m76cfaa2550" y="232.615168"/>
      </g>
     </g>
     <g id="text_3">
      <!-- 2021-05 -->
      <g transform="translate(342.203916 281.397981)rotate(-90)scale(0.1 -0.1)">
       <defs>
        <path d="M 691 4666 
L 3169 4666 
L 3169 4134 
L 1269 4134 
L 1269 2991 
Q 1406 3038 1543 3061 
Q 1681 3084 1819 3084 
Q 2600 3084 3056 2656 
Q 3513 2228 3513 1497 
Q 3513 744 3044 326 
Q 2575 -91 1722 -91 
Q 1428 -91 1123 -41 
Q 819 9 494 109 
L 494 744 
Q 775 591 1075 516 
Q 1375 441 1709 441 
Q 2250 441 2565 725 
Q 2881 1009 2881 1497 
Q 2881 1984 2565 2268 
Q 2250 2553 1709 2553 
Q 1456 2553 1204 2497 
Q 953 2441 691 2322 
L 691 4666 
z
" id="DejaVuSans-35" transform="scale(0.015625)"/>
       </defs>
       <use xlink:href="#DejaVuSans-32"/>
       <use x="63.623047" xlink:href="#DejaVuSans-30"/>
       <use x="127.246094" xlink:href="#DejaVuSans-32"/>
       <use x="190.869141" xlink:href="#DejaVuSans-31"/>
       <use x="254.492188" xlink:href="#DejaVuSans-2d"/>
       <use x="290.576172" xlink:href="#DejaVuSans-30"/>
       <use x="354.199219" xlink:href="#DejaVuSans-35"/>
      </g>
     </g>
    </g>
    <g id="xtick_4">
     <g id="line2d_4">
      <g>
       <use style="stroke:#000000;stroke-width:0.8;" x="452.577307" xlink:href="#m76cfaa2550" y="232.615168"/>
      </g>
     </g>
     <g id="text_4">
      <!-- 2021-06 -->
      <g transform="translate(455.336682 281.397981)rotate(-90)scale(0.1 -0.1)">
       <defs>
        <path d="M 2113 2584 
Q 1688 2584 1439 2293 
Q 1191 2003 1191 1497 
Q 1191 994 1439 701 
Q 1688 409 2113 409 
Q 2538 409 2786 701 
Q 3034 994 3034 1497 
Q 3034 2003 2786 2293 
Q 2538 2584 2113 2584 
z
M 3366 4563 
L 3366 3988 
Q 3128 4100 2886 4159 
Q 2644 4219 2406 4219 
Q 1781 4219 1451 3797 
Q 1122 3375 1075 2522 
Q 1259 2794 1537 2939 
Q 1816 3084 2150 3084 
Q 2853 3084 3261 2657 
Q 3669 2231 3669 1497 
Q 3669 778 3244 343 
Q 2819 -91 2113 -91 
Q 1303 -91 875 529 
Q 447 1150 447 2328 
Q 447 3434 972 4092 
Q 1497 4750 2381 4750 
Q 2619 4750 2861 4703 
Q 3103 4656 3366 4563 
z
" id="DejaVuSans-36" transform="scale(0.015625)"/>
       </defs>
       <use xlink:href="#DejaVuSans-32"/>
       <use x="63.623047" xlink:href="#DejaVuSans-30"/>
       <use x="127.246094" xlink:href="#DejaVuSans-32"/>
       <use x="190.869141" xlink:href="#DejaVuSans-31"/>
       <use x="254.492188" xlink:href="#DejaVuSans-2d"/>
       <use x="290.576172" xlink:href="#DejaVuSans-30"/>
       <use x="354.199219" xlink:href="#DejaVuSans-36"/>
      </g>
     </g>
    </g>
    <g id="xtick_5">
     <g id="line2d_5">
      <g>
       <use style="stroke:#000000;stroke-width:0.8;" x="562.06063" xlink:href="#m76cfaa2550" y="232.615168"/>
      </g>
     </g>
     <g id="text_5">
      <!-- 2021-07 -->
      <g transform="translate(564.820005 281.397981)rotate(-90)scale(0.1 -0.1)">
       <defs>
        <path d="M 525 4666 
L 3525 4666 
L 3525 4397 
L 1831 0 
L 1172 0 
L 2766 4134 
L 525 4134 
L 525 4666 
z
" id="DejaVuSans-37" transform="scale(0.015625)"/>
       </defs>
       <use xlink:href="#DejaVuSans-32"/>
       <use x="63.623047" xlink:href="#DejaVuSans-30"/>
       <use x="127.246094" xlink:href="#DejaVuSans-32"/>
       <use x="190.869141" xlink:href="#DejaVuSans-31"/>
       <use x="254.492188" xlink:href="#DejaVuSans-2d"/>
       <use x="290.576172" xlink:href="#DejaVuSans-30"/>
       <use x="354.199219" xlink:href="#DejaVuSans-37"/>
      </g>
     </g>
    </g>
    <g id="xtick_6">
     <g id="line2d_6">
      <g>
       <use style="stroke:#000000;stroke-width:0.8;" x="675.193396" xlink:href="#m76cfaa2550" y="232.615168"/>
      </g>
     </g>
     <g id="text_6">
      <!-- 2021-08 -->
      <g transform="translate(677.952771 281.397981)rotate(-90)scale(0.1 -0.1)">
       <defs>
        <path d="M 2034 2216 
Q 1584 2216 1326 1975 
Q 1069 1734 1069 1313 
Q 1069 891 1326 650 
Q 1584 409 2034 409 
Q 2484 409 2743 651 
Q 3003 894 3003 1313 
Q 3003 1734 2745 1975 
Q 2488 2216 2034 2216 
z
M 1403 2484 
Q 997 2584 770 2862 
Q 544 3141 544 3541 
Q 544 4100 942 4425 
Q 1341 4750 2034 4750 
Q 2731 4750 3128 4425 
Q 3525 4100 3525 3541 
Q 3525 3141 3298 2862 
Q 3072 2584 2669 2484 
Q 3125 2378 3379 2068 
Q 3634 1759 3634 1313 
Q 3634 634 3220 271 
Q 2806 -91 2034 -91 
Q 1263 -91 848 271 
Q 434 634 434 1313 
Q 434 1759 690 2068 
Q 947 2378 1403 2484 
z
M 1172 3481 
Q 1172 3119 1398 2916 
Q 1625 2713 2034 2713 
Q 2441 2713 2670 2916 
Q 2900 3119 2900 3481 
Q 2900 3844 2670 4047 
Q 2441 4250 2034 4250 
Q 1625 4250 1398 4047 
Q 1172 3844 1172 3481 
z
" id="DejaVuSans-38" transform="scale(0.015625)"/>
       </defs>
       <use xlink:href="#DejaVuSans-32"/>
       <use x="63.623047" xlink:href="#DejaVuSans-30"/>
       <use x="127.246094" xlink:href="#DejaVuSans-32"/>
       <use x="190.869141" xlink:href="#DejaVuSans-31"/>
       <use x="254.492188" xlink:href="#DejaVuSans-2d"/>
       <use x="290.576172" xlink:href="#DejaVuSans-30"/>
       <use x="354.199219" xlink:href="#DejaVuSans-38"/>
      </g>
     </g>
    </g>
    <g id="xtick_7">
     <g id="line2d_7">
      <g>
       <use style="stroke:#000000;stroke-width:0.8;" x="788.326163" xlink:href="#m76cfaa2550" y="232.615168"/>
      </g>
     </g>
     <g id="text_7">
      <!-- 2021-09 -->
      <g transform="translate(791.085538 281.397981)rotate(-90)scale(0.1 -0.1)">
       <defs>
        <path d="M 703 97 
L 703 672 
Q 941 559 1184 500 
Q 1428 441 1663 441 
Q 2288 441 2617 861 
Q 2947 1281 2994 2138 
Q 2813 1869 2534 1725 
Q 2256 1581 1919 1581 
Q 1219 1581 811 2004 
Q 403 2428 403 3163 
Q 403 3881 828 4315 
Q 1253 4750 1959 4750 
Q 2769 4750 3195 4129 
Q 3622 3509 3622 2328 
Q 3622 1225 3098 567 
Q 2575 -91 1691 -91 
Q 1453 -91 1209 -44 
Q 966 3 703 97 
z
M 1959 2075 
Q 2384 2075 2632 2365 
Q 2881 2656 2881 3163 
Q 2881 3666 2632 3958 
Q 2384 4250 1959 4250 
Q 1534 4250 1286 3958 
Q 1038 3666 1038 3163 
Q 1038 2656 1286 2365 
Q 1534 2075 1959 2075 
z
" id="DejaVuSans-39" transform="scale(0.015625)"/>
       </defs>
       <use xlink:href="#DejaVuSans-32"/>
       <use x="63.623047" xlink:href="#DejaVuSans-30"/>
       <use x="127.246094" xlink:href="#DejaVuSans-32"/>
       <use x="190.869141" xlink:href="#DejaVuSans-31"/>
       <use x="254.492188" xlink:href="#DejaVuSans-2d"/>
       <use x="290.576172" xlink:href="#DejaVuSans-30"/>
       <use x="354.199219" xlink:href="#DejaVuSans-39"/>
      </g>
     </g>
    </g>
    <g id="xtick_8">
     <g id="line2d_8">
      <g>
       <use style="stroke:#000000;stroke-width:0.8;" x="897.809485" xlink:href="#m76cfaa2550" y="232.615168"/>
      </g>
     </g>
     <g id="text_8">
      <!-- 2021-10 -->
      <g transform="translate(900.56886 281.397981)rotate(-90)scale(0.1 -0.1)">
       <use xlink:href="#DejaVuSans-32"/>
       <use x="63.623047" xlink:href="#DejaVuSans-30"/>
       <use x="127.246094" xlink:href="#DejaVuSans-32"/>
       <use x="190.869141" xlink:href="#DejaVuSans-31"/>
       <use x="254.492188" xlink:href="#DejaVuSans-2d"/>
       <use x="290.576172" xlink:href="#DejaVuSans-31"/>
       <use x="354.199219" xlink:href="#DejaVuSans-30"/>
      </g>
     </g>
    </g>
    <g id="xtick_9">
     <g id="line2d_9">
      <g>
       <use style="stroke:#000000;stroke-width:0.8;" x="1010.942252" xlink:href="#m76cfaa2550" y="232.615168"/>
      </g>
     </g>
     <g id="text_9">
      <!-- 2021-11 -->
      <g transform="translate(1013.701627 281.397981)rotate(-90)scale(0.1 -0.1)">
       <use xlink:href="#DejaVuSans-32"/>
       <use x="63.623047" xlink:href="#DejaVuSans-30"/>
       <use x="127.246094" xlink:href="#DejaVuSans-32"/>
       <use x="190.869141" xlink:href="#DejaVuSans-31"/>
       <use x="254.492188" xlink:href="#DejaVuSans-2d"/>
       <use x="290.576172" xlink:href="#DejaVuSans-31"/>
       <use x="354.199219" xlink:href="#DejaVuSans-31"/>
      </g>
     </g>
    </g>
    <g id="xtick_10">
     <g id="line2d_10">
      <g>
       <use style="stroke:#000000;stroke-width:0.8;" x="1120.425574" xlink:href="#m76cfaa2550" y="232.615168"/>
      </g>
     </g>
     <g id="text_10">
      <!-- 2021-12 -->
      <g transform="translate(1123.184949 281.397981)rotate(-90)scale(0.1 -0.1)">
       <use xlink:href="#DejaVuSans-32"/>
       <use x="63.623047" xlink:href="#DejaVuSans-30"/>
       <use x="127.246094" xlink:href="#DejaVuSans-32"/>
       <use x="190.869141" xlink:href="#DejaVuSans-31"/>
       <use x="254.492188" xlink:href="#DejaVuSans-2d"/>
       <use x="290.576172" xlink:href="#DejaVuSans-31"/>
       <use x="354.199219" xlink:href="#DejaVuSans-32"/>
      </g>
     </g>
    </g>
    <g id="text_11">
     <!-- Date -->
     <g transform="translate(599.377344 292.996418)scale(0.1 -0.1)">
      <defs>
       <path d="M 1259 4147 
L 1259 519 
L 2022 519 
Q 2988 519 3436 956 
Q 3884 1394 3884 2338 
Q 3884 3275 3436 3711 
Q 2988 4147 2022 4147 
L 1259 4147 
z
M 628 4666 
L 1925 4666 
Q 3281 4666 3915 4102 
Q 4550 3538 4550 2338 
Q 4550 1131 3912 565 
Q 3275 0 1925 0 
L 628 0 
L 628 4666 
z
" id="DejaVuSans-44" transform="scale(0.015625)"/>
       <path d="M 2194 1759 
Q 1497 1759 1228 1600 
Q 959 1441 959 1056 
Q 959 750 1161 570 
Q 1363 391 1709 391 
Q 2188 391 2477 730 
Q 2766 1069 2766 1631 
L 2766 1759 
L 2194 1759 
z
M 3341 1997 
L 3341 0 
L 2766 0 
L 2766 531 
Q 2569 213 2275 61 
Q 1981 -91 1556 -91 
Q 1019 -91 701 211 
Q 384 513 384 1019 
Q 384 1609 779 1909 
Q 1175 2209 1959 2209 
L 2766 2209 
L 2766 2266 
Q 2766 2663 2505 2880 
Q 2244 3097 1772 3097 
Q 1472 3097 1187 3025 
Q 903 2953 641 2809 
L 641 3341 
Q 956 3463 1253 3523 
Q 1550 3584 1831 3584 
Q 2591 3584 2966 3190 
Q 3341 2797 3341 1997 
z
" id="DejaVuSans-61" transform="scale(0.015625)"/>
       <path d="M 1172 4494 
L 1172 3500 
L 2356 3500 
L 2356 3053 
L 1172 3053 
L 1172 1153 
Q 1172 725 1289 603 
Q 1406 481 1766 481 
L 2356 481 
L 2356 0 
L 1766 0 
Q 1100 0 847 248 
Q 594 497 594 1153 
L 594 3053 
L 172 3053 
L 172 3500 
L 594 3500 
L 594 4494 
L 1172 4494 
z
" id="DejaVuSans-74" transform="scale(0.015625)"/>
       <path d="M 3597 1894 
L 3597 1613 
L 953 1613 
Q 991 1019 1311 708 
Q 1631 397 2203 397 
Q 2534 397 2845 478 
Q 3156 559 3463 722 
L 3463 178 
Q 3153 47 2828 -22 
Q 2503 -91 2169 -91 
Q 1331 -91 842 396 
Q 353 884 353 1716 
Q 353 2575 817 3079 
Q 1281 3584 2069 3584 
Q 2775 3584 3186 3129 
Q 3597 2675 3597 1894 
z
M 3022 2063 
Q 3016 2534 2758 2815 
Q 2500 3097 2075 3097 
Q 1594 3097 1305 2825 
Q 1016 2553 972 2059 
L 3022 2063 
z
" id="DejaVuSans-65" transform="scale(0.015625)"/>
      </defs>
      <use xlink:href="#DejaVuSans-44"/>
      <use x="77.001953" xlink:href="#DejaVuSans-61"/>
      <use x="138.28125" xlink:href="#DejaVuSans-74"/>
      <use x="177.490234" xlink:href="#DejaVuSans-65"/>
     </g>
    </g>
   </g>
   <g id="matplotlib.axis_2">
    <g id="ytick_1">
     <g id="line2d_11">
      <defs>
       <path d="M 0 0 
L -3.5 0 
" id="m0bb608e405" style="stroke:#000000;stroke-width:0.8;"/>
      </defs>
      <g>
       <use style="stroke:#000000;stroke-width:0.8;" x="53.328125" xlink:href="#m0bb608e405" y="232.615168"/>
      </g>
     </g>
     <g id="text_12">
      <!-- 0 -->
      <g transform="translate(39.965625 236.414387)scale(0.1 -0.1)">
       <use xlink:href="#DejaVuSans-30"/>
      </g>
     </g>
    </g>
    <g id="ytick_2">
     <g id="line2d_12">
      <g>
       <use style="stroke:#000000;stroke-width:0.8;" x="53.328125" xlink:href="#m0bb608e405" y="204.913175"/>
      </g>
     </g>
     <g id="text_13">
      <!-- 1000 -->
      <g transform="translate(20.878125 208.712393)scale(0.1 -0.1)">
       <use xlink:href="#DejaVuSans-31"/>
       <use x="63.623047" xlink:href="#DejaVuSans-30"/>
       <use x="127.246094" xlink:href="#DejaVuSans-30"/>
       <use x="190.869141" xlink:href="#DejaVuSans-30"/>
      </g>
     </g>
    </g>
    <g id="ytick_3">
     <g id="line2d_13">
      <g>
       <use style="stroke:#000000;stroke-width:0.8;" x="53.328125" xlink:href="#m0bb608e405" y="177.211181"/>
      </g>
     </g>
     <g id="text_14">
      <!-- 2000 -->
      <g transform="translate(20.878125 181.0104)scale(0.1 -0.1)">
       <use xlink:href="#DejaVuSans-32"/>
       <use x="63.623047" xlink:href="#DejaVuSans-30"/>
       <use x="127.246094" xlink:href="#DejaVuSans-30"/>
       <use x="190.869141" xlink:href="#DejaVuSans-30"/>
      </g>
     </g>
    </g>
    <g id="ytick_4">
     <g id="line2d_14">
      <g>
       <use style="stroke:#000000;stroke-width:0.8;" x="53.328125" xlink:href="#m0bb608e405" y="149.509187"/>
      </g>
     </g>
     <g id="text_15">
      <!-- 3000 -->
      <g transform="translate(20.878125 153.308406)scale(0.1 -0.1)">
       <use xlink:href="#DejaVuSans-33"/>
       <use x="63.623047" xlink:href="#DejaVuSans-30"/>
       <use x="127.246094" xlink:href="#DejaVuSans-30"/>
       <use x="190.869141" xlink:href="#DejaVuSans-30"/>
      </g>
     </g>
    </g>
    <g id="ytick_5">
     <g id="line2d_15">
      <g>
       <use style="stroke:#000000;stroke-width:0.8;" x="53.328125" xlink:href="#m0bb608e405" y="121.807194"/>
      </g>
     </g>
     <g id="text_16">
      <!-- 4000 -->
      <g transform="translate(20.878125 125.606412)scale(0.1 -0.1)">
       <use xlink:href="#DejaVuSans-34"/>
       <use x="63.623047" xlink:href="#DejaVuSans-30"/>
       <use x="127.246094" xlink:href="#DejaVuSans-30"/>
       <use x="190.869141" xlink:href="#DejaVuSans-30"/>
      </g>
     </g>
    </g>
    <g id="ytick_6">
     <g id="line2d_16">
      <g>
       <use style="stroke:#000000;stroke-width:0.8;" x="53.328125" xlink:href="#m0bb608e405" y="94.1052"/>
      </g>
     </g>
     <g id="text_17">
      <!-- 5000 -->
      <g transform="translate(20.878125 97.904419)scale(0.1 -0.1)">
       <use xlink:href="#DejaVuSans-35"/>
       <use x="63.623047" xlink:href="#DejaVuSans-30"/>
       <use x="127.246094" xlink:href="#DejaVuSans-30"/>
       <use x="190.869141" xlink:href="#DejaVuSans-30"/>
      </g>
     </g>
    </g>
    <g id="ytick_7">
     <g id="line2d_17">
      <g>
       <use style="stroke:#000000;stroke-width:0.8;" x="53.328125" xlink:href="#m0bb608e405" y="66.403206"/>
      </g>
     </g>
     <g id="text_18">
      <!-- 6000 -->
      <g transform="translate(20.878125 70.202425)scale(0.1 -0.1)">
       <use xlink:href="#DejaVuSans-36"/>
       <use x="63.623047" xlink:href="#DejaVuSans-30"/>
       <use x="127.246094" xlink:href="#DejaVuSans-30"/>
       <use x="190.869141" xlink:href="#DejaVuSans-30"/>
      </g>
     </g>
    </g>
    <g id="ytick_8">
     <g id="line2d_18">
      <g>
       <use style="stroke:#000000;stroke-width:0.8;" x="53.328125" xlink:href="#m0bb608e405" y="38.701212"/>
      </g>
     </g>
     <g id="text_19">
      <!-- 7000 -->
      <g transform="translate(20.878125 42.500431)scale(0.1 -0.1)">
       <use xlink:href="#DejaVuSans-37"/>
       <use x="63.623047" xlink:href="#DejaVuSans-30"/>
       <use x="127.246094" xlink:href="#DejaVuSans-30"/>
       <use x="190.869141" xlink:href="#DejaVuSans-30"/>
      </g>
     </g>
    </g>
    <g id="ytick_9">
     <g id="line2d_19">
      <g>
       <use style="stroke:#000000;stroke-width:0.8;" x="53.328125" xlink:href="#m0bb608e405" y="10.999219"/>
      </g>
     </g>
     <g id="text_20">
      <!-- 8000 -->
      <g transform="translate(20.878125 14.798437)scale(0.1 -0.1)">
       <use xlink:href="#DejaVuSans-38"/>
       <use x="63.623047" xlink:href="#DejaVuSans-30"/>
       <use x="127.246094" xlink:href="#DejaVuSans-30"/>
       <use x="190.869141" xlink:href="#DejaVuSans-30"/>
      </g>
     </g>
    </g>
    <g id="text_21">
     <!-- Sequence count -->
     <g transform="translate(14.798437 162.095325)rotate(-90)scale(0.1 -0.1)">
      <defs>
       <path d="M 3425 4513 
L 3425 3897 
Q 3066 4069 2747 4153 
Q 2428 4238 2131 4238 
Q 1616 4238 1336 4038 
Q 1056 3838 1056 3469 
Q 1056 3159 1242 3001 
Q 1428 2844 1947 2747 
L 2328 2669 
Q 3034 2534 3370 2195 
Q 3706 1856 3706 1288 
Q 3706 609 3251 259 
Q 2797 -91 1919 -91 
Q 1588 -91 1214 -16 
Q 841 59 441 206 
L 441 856 
Q 825 641 1194 531 
Q 1563 422 1919 422 
Q 2459 422 2753 634 
Q 3047 847 3047 1241 
Q 3047 1584 2836 1778 
Q 2625 1972 2144 2069 
L 1759 2144 
Q 1053 2284 737 2584 
Q 422 2884 422 3419 
Q 422 4038 858 4394 
Q 1294 4750 2059 4750 
Q 2388 4750 2728 4690 
Q 3069 4631 3425 4513 
z
" id="DejaVuSans-53" transform="scale(0.015625)"/>
       <path d="M 947 1747 
Q 947 1113 1208 752 
Q 1469 391 1925 391 
Q 2381 391 2643 752 
Q 2906 1113 2906 1747 
Q 2906 2381 2643 2742 
Q 2381 3103 1925 3103 
Q 1469 3103 1208 2742 
Q 947 2381 947 1747 
z
M 2906 525 
Q 2725 213 2448 61 
Q 2172 -91 1784 -91 
Q 1150 -91 751 415 
Q 353 922 353 1747 
Q 353 2572 751 3078 
Q 1150 3584 1784 3584 
Q 2172 3584 2448 3432 
Q 2725 3281 2906 2969 
L 2906 3500 
L 3481 3500 
L 3481 -1331 
L 2906 -1331 
L 2906 525 
z
" id="DejaVuSans-71" transform="scale(0.015625)"/>
       <path d="M 544 1381 
L 544 3500 
L 1119 3500 
L 1119 1403 
Q 1119 906 1312 657 
Q 1506 409 1894 409 
Q 2359 409 2629 706 
Q 2900 1003 2900 1516 
L 2900 3500 
L 3475 3500 
L 3475 0 
L 2900 0 
L 2900 538 
Q 2691 219 2414 64 
Q 2138 -91 1772 -91 
Q 1169 -91 856 284 
Q 544 659 544 1381 
z
M 1991 3584 
L 1991 3584 
z
" id="DejaVuSans-75" transform="scale(0.015625)"/>
       <path d="M 3513 2113 
L 3513 0 
L 2938 0 
L 2938 2094 
Q 2938 2591 2744 2837 
Q 2550 3084 2163 3084 
Q 1697 3084 1428 2787 
Q 1159 2491 1159 1978 
L 1159 0 
L 581 0 
L 581 3500 
L 1159 3500 
L 1159 2956 
Q 1366 3272 1645 3428 
Q 1925 3584 2291 3584 
Q 2894 3584 3203 3211 
Q 3513 2838 3513 2113 
z
" id="DejaVuSans-6e" transform="scale(0.015625)"/>
       <path d="M 3122 3366 
L 3122 2828 
Q 2878 2963 2633 3030 
Q 2388 3097 2138 3097 
Q 1578 3097 1268 2742 
Q 959 2388 959 1747 
Q 959 1106 1268 751 
Q 1578 397 2138 397 
Q 2388 397 2633 464 
Q 2878 531 3122 666 
L 3122 134 
Q 2881 22 2623 -34 
Q 2366 -91 2075 -91 
Q 1284 -91 818 406 
Q 353 903 353 1747 
Q 353 2603 823 3093 
Q 1294 3584 2113 3584 
Q 2378 3584 2631 3529 
Q 2884 3475 3122 3366 
z
" id="DejaVuSans-63" transform="scale(0.015625)"/>
       <path id="DejaVuSans-20" transform="scale(0.015625)"/>
       <path d="M 1959 3097 
Q 1497 3097 1228 2736 
Q 959 2375 959 1747 
Q 959 1119 1226 758 
Q 1494 397 1959 397 
Q 2419 397 2687 759 
Q 2956 1122 2956 1747 
Q 2956 2369 2687 2733 
Q 2419 3097 1959 3097 
z
M 1959 3584 
Q 2709 3584 3137 3096 
Q 3566 2609 3566 1747 
Q 3566 888 3137 398 
Q 2709 -91 1959 -91 
Q 1206 -91 779 398 
Q 353 888 353 1747 
Q 353 2609 779 3096 
Q 1206 3584 1959 3584 
z
" id="DejaVuSans-6f" transform="scale(0.015625)"/>
      </defs>
      <use xlink:href="#DejaVuSans-53"/>
      <use x="63.476562" xlink:href="#DejaVuSans-65"/>
      <use x="125" xlink:href="#DejaVuSans-71"/>
      <use x="188.476562" xlink:href="#DejaVuSans-75"/>
      <use x="251.855469" xlink:href="#DejaVuSans-65"/>
      <use x="313.378906" xlink:href="#DejaVuSans-6e"/>
      <use x="376.757812" xlink:href="#DejaVuSans-63"/>
      <use x="431.738281" xlink:href="#DejaVuSans-65"/>
      <use x="493.261719" xlink:href="#DejaVuSans-20"/>
      <use x="525.048828" xlink:href="#DejaVuSans-63"/>
      <use x="580.029297" xlink:href="#DejaVuSans-6f"/>
      <use x="641.210938" xlink:href="#DejaVuSans-75"/>
      <use x="704.589844" xlink:href="#DejaVuSans-6e"/>
      <use x="767.96875" xlink:href="#DejaVuSans-74"/>
     </g>
    </g>
   </g>
   <g id="patch_43">
    <path d="M 53.328125 232.615168 
L 53.328125 10.855168 
" style="fill:none;stroke:#000000;stroke-linecap:square;stroke-linejoin:miter;stroke-width:0.8;"/>
   </g>
   <g id="patch_44">
    <path d="M 1169.328125 232.615168 
L 1169.328125 10.855168 
" style="fill:none;stroke:#000000;stroke-linecap:square;stroke-linejoin:miter;stroke-width:0.8;"/>
   </g>
   <g id="patch_45">
    <path d="M 53.328125 232.615168 
L 1169.328125 232.615168 
" style="fill:none;stroke:#000000;stroke-linecap:square;stroke-linejoin:miter;stroke-width:0.8;"/>
   </g>
  </g>
  <g id="axes_2">
   <g id="matplotlib.axis_3">
    <g id="ytick_10">
     <g id="line2d_20">
      <defs>
       <path d="M 0 0 
L 3.5 0 
" id="m4bc2c59f25" style="stroke:#000000;stroke-width:0.8;"/>
      </defs>
      <g>
       <use style="stroke:#000000;stroke-width:0.8;" x="1169.328125" xlink:href="#m4bc2c59f25" y="222.540756"/>
      </g>
     </g>
     <g id="text_22">
      <!-- 0 -->
      <g transform="translate(1176.328125 226.339975)scale(0.1 -0.1)">
       <use xlink:href="#DejaVuSans-30"/>
      </g>
     </g>
    </g>
    <g id="ytick_11">
     <g id="line2d_21">
      <g>
       <use style="stroke:#000000;stroke-width:0.8;" x="1169.328125" xlink:href="#m4bc2c59f25" y="194.602066"/>
      </g>
     </g>
     <g id="text_23">
      <!-- 20000 -->
      <g transform="translate(1176.328125 198.401285)scale(0.1 -0.1)">
       <use xlink:href="#DejaVuSans-32"/>
       <use x="63.623047" xlink:href="#DejaVuSans-30"/>
       <use x="127.246094" xlink:href="#DejaVuSans-30"/>
       <use x="190.869141" xlink:href="#DejaVuSans-30"/>
       <use x="254.492188" xlink:href="#DejaVuSans-30"/>
      </g>
     </g>
    </g>
    <g id="ytick_12">
     <g id="line2d_22">
      <g>
       <use style="stroke:#000000;stroke-width:0.8;" x="1169.328125" xlink:href="#m4bc2c59f25" y="166.663376"/>
      </g>
     </g>
     <g id="text_24">
      <!-- 40000 -->
      <g transform="translate(1176.328125 170.462595)scale(0.1 -0.1)">
       <use xlink:href="#DejaVuSans-34"/>
       <use x="63.623047" xlink:href="#DejaVuSans-30"/>
       <use x="127.246094" xlink:href="#DejaVuSans-30"/>
       <use x="190.869141" xlink:href="#DejaVuSans-30"/>
       <use x="254.492188" xlink:href="#DejaVuSans-30"/>
      </g>
     </g>
    </g>
    <g id="ytick_13">
     <g id="line2d_23">
      <g>
       <use style="stroke:#000000;stroke-width:0.8;" x="1169.328125" xlink:href="#m4bc2c59f25" y="138.724686"/>
      </g>
     </g>
     <g id="text_25">
      <!-- 60000 -->
      <g transform="translate(1176.328125 142.523905)scale(0.1 -0.1)">
       <use xlink:href="#DejaVuSans-36"/>
       <use x="63.623047" xlink:href="#DejaVuSans-30"/>
       <use x="127.246094" xlink:href="#DejaVuSans-30"/>
       <use x="190.869141" xlink:href="#DejaVuSans-30"/>
       <use x="254.492188" xlink:href="#DejaVuSans-30"/>
      </g>
     </g>
    </g>
    <g id="ytick_14">
     <g id="line2d_24">
      <g>
       <use style="stroke:#000000;stroke-width:0.8;" x="1169.328125" xlink:href="#m4bc2c59f25" y="110.785996"/>
      </g>
     </g>
     <g id="text_26">
      <!-- 80000 -->
      <g transform="translate(1176.328125 114.585214)scale(0.1 -0.1)">
       <use xlink:href="#DejaVuSans-38"/>
       <use x="63.623047" xlink:href="#DejaVuSans-30"/>
       <use x="127.246094" xlink:href="#DejaVuSans-30"/>
       <use x="190.869141" xlink:href="#DejaVuSans-30"/>
       <use x="254.492188" xlink:href="#DejaVuSans-30"/>
      </g>
     </g>
    </g>
    <g id="ytick_15">
     <g id="line2d_25">
      <g>
       <use style="stroke:#000000;stroke-width:0.8;" x="1169.328125" xlink:href="#m4bc2c59f25" y="82.847306"/>
      </g>
     </g>
     <g id="text_27">
      <!-- 100000 -->
      <g transform="translate(1176.328125 86.646524)scale(0.1 -0.1)">
       <use xlink:href="#DejaVuSans-31"/>
       <use x="63.623047" xlink:href="#DejaVuSans-30"/>
       <use x="127.246094" xlink:href="#DejaVuSans-30"/>
       <use x="190.869141" xlink:href="#DejaVuSans-30"/>
       <use x="254.492188" xlink:href="#DejaVuSans-30"/>
       <use x="318.115234" xlink:href="#DejaVuSans-30"/>
      </g>
     </g>
    </g>
    <g id="ytick_16">
     <g id="line2d_26">
      <g>
       <use style="stroke:#000000;stroke-width:0.8;" x="1169.328125" xlink:href="#m4bc2c59f25" y="54.908616"/>
      </g>
     </g>
     <g id="text_28">
      <!-- 120000 -->
      <g transform="translate(1176.328125 58.707834)scale(0.1 -0.1)">
       <use xlink:href="#DejaVuSans-31"/>
       <use x="63.623047" xlink:href="#DejaVuSans-32"/>
       <use x="127.246094" xlink:href="#DejaVuSans-30"/>
       <use x="190.869141" xlink:href="#DejaVuSans-30"/>
       <use x="254.492188" xlink:href="#DejaVuSans-30"/>
       <use x="318.115234" xlink:href="#DejaVuSans-30"/>
      </g>
     </g>
    </g>
    <g id="ytick_17">
     <g id="line2d_27">
      <g>
       <use style="stroke:#000000;stroke-width:0.8;" x="1169.328125" xlink:href="#m4bc2c59f25" y="26.969925"/>
      </g>
     </g>
     <g id="text_29">
      <!-- 140000 -->
      <g transform="translate(1176.328125 30.769144)scale(0.1 -0.1)">
       <use xlink:href="#DejaVuSans-31"/>
       <use x="63.623047" xlink:href="#DejaVuSans-34"/>
       <use x="127.246094" xlink:href="#DejaVuSans-30"/>
       <use x="190.869141" xlink:href="#DejaVuSans-30"/>
       <use x="254.492188" xlink:href="#DejaVuSans-30"/>
       <use x="318.115234" xlink:href="#DejaVuSans-30"/>
      </g>
     </g>
    </g>
    <g id="text_30">
     <!-- Total -->
     <g transform="translate(1226.101562 133.411731)rotate(-90)scale(0.1 -0.1)">
      <defs>
       <path d="M -19 4666 
L 3928 4666 
L 3928 4134 
L 2272 4134 
L 2272 0 
L 1638 0 
L 1638 4134 
L -19 4134 
L -19 4666 
z
" id="DejaVuSans-54" transform="scale(0.015625)"/>
       <path d="M 603 4863 
L 1178 4863 
L 1178 0 
L 603 0 
L 603 4863 
z
" id="DejaVuSans-6c" transform="scale(0.015625)"/>
      </defs>
      <use xlink:href="#DejaVuSans-54"/>
      <use x="44.083984" xlink:href="#DejaVuSans-6f"/>
      <use x="105.265625" xlink:href="#DejaVuSans-74"/>
      <use x="144.474609" xlink:href="#DejaVuSans-61"/>
      <use x="205.753906" xlink:href="#DejaVuSans-6c"/>
     </g>
    </g>
   </g>
   <g id="line2d_28">
    <path clip-path="url(#pa2b507dbd2)" d="M 116.828452 222.535168 
L 164.271225 222.417826 
L 222.66233 221.959631 
L 244.558995 221.287706 
L 273.754547 219.609988 
L 295.651212 217.817721 
L 306.599544 216.768623 
L 310.248988 216.255948 
L 321.197321 215.227804 
L 324.846765 214.871586 
L 332.145653 213.793152 
L 335.795097 213.288859 
L 346.743429 212.05816 
L 357.691761 210.623508 
L 364.99065 209.817477 
L 368.640094 209.543677 
L 375.938982 208.602144 
L 390.536758 206.980303 
L 394.186202 206.645038 
L 416.082867 204.002038 
L 419.732311 203.718461 
L 427.031199 202.824423 
L 441.628975 201.201185 
L 448.927863 200.490145 
L 463.52564 198.384965 
L 467.175084 197.970075 
L 470.824528 197.672528 
L 481.77286 196.082817 
L 492.721192 194.949903 
L 496.370636 194.674707 
L 500.020081 194.210924 
L 507.318969 193.026324 
L 518.267301 191.674091 
L 521.916745 191.376544 
L 525.566189 190.679474 
L 540.163965 188.410852 
L 547.462854 187.673271 
L 554.761742 186.167375 
L 562.06063 184.992554 
L 565.710074 184.179538 
L 569.359518 183.711565 
L 573.008962 183.415415 
L 591.256183 179.598989 
L 594.905627 178.99272 
L 598.555071 178.521953 
L 605.853959 176.495001 
L 616.802291 174.072717 
L 620.451735 173.384028 
L 624.101179 172.864368 
L 635.049512 169.55503 
L 638.698956 168.436086 
L 642.3484 167.50433 
L 645.997844 166.790497 
L 649.647288 166.195403 
L 653.296732 164.563783 
L 656.946176 163.433663 
L 660.59562 162.017172 
L 664.245064 160.856319 
L 667.894508 159.453797 
L 671.543952 158.643575 
L 675.193396 157.713217 
L 678.842841 156.145856 
L 682.492285 154.725174 
L 686.141729 152.56691 
L 689.791173 150.837505 
L 693.440617 149.327419 
L 697.090061 148.401251 
L 700.739505 147.704181 
L 704.388949 146.048813 
L 708.038393 144.135013 
L 711.687837 142.745063 
L 715.337281 140.941621 
L 718.986725 139.484618 
L 722.636169 138.496986 
L 726.285614 137.769183 
L 729.935058 135.779948 
L 737.233946 132.149315 
L 740.88339 130.700694 
L 744.532834 129.021579 
L 748.182278 127.846757 
L 751.831722 127.165053 
L 762.780054 121.939121 
L 766.429498 120.426241 
L 770.078943 119.131282 
L 773.728387 118.314076 
L 777.377831 117.700822 
L 781.027275 116.04266 
L 784.676719 114.105112 
L 791.975607 111.212061 
L 795.625051 109.891958 
L 799.274495 109.011889 
L 802.923939 108.319009 
L 806.573383 107.135806 
L 810.222827 105.483232 
L 817.521716 102.486808 
L 821.17116 101.21001 
L 824.820604 100.455665 
L 828.470048 99.868953 
L 832.119492 98.279241 
L 839.41838 95.634844 
L 846.717268 93.16227 
L 854.016156 91.620054 
L 861.315045 88.693477 
L 872.263377 85.438619 
L 879.562265 84.128295 
L 883.211709 82.519026 
L 886.861153 81.284136 
L 894.160041 79.184543 
L 897.809485 78.016706 
L 905.108374 76.868426 
L 916.056706 72.586822 
L 919.70615 71.29326 
L 923.355594 70.232987 
L 930.654482 68.756427 
L 945.252258 63.29581 
L 948.901703 62.228552 
L 956.200591 60.866541 
L 959.850035 59.409539 
L 974.447811 54.257644 
L 978.097255 53.345446 
L 981.746699 52.674917 
L 989.045587 49.854507 
L 996.344476 47.136072 
L 999.99392 46.053448 
L 1007.292808 44.483293 
L 1010.942252 43.315456 
L 1021.890584 39.113477 
L 1025.540028 37.864618 
L 1029.189472 36.960801 
L 1032.838916 36.178518 
L 1036.48836 34.53712 
L 1043.787249 31.632893 
L 1051.086137 29.46485 
L 1054.735581 28.672789 
L 1058.385025 28.084679 
L 1062.034469 26.876331 
L 1069.333357 25.230742 
L 1076.632245 23.878509 
L 1080.281689 23.386788 
L 1083.931134 23.031967 
L 1087.580578 22.322324 
L 1091.230022 21.878099 
L 1102.178354 21.088831 
L 1109.477242 20.951932 
L 1116.77613 20.935168 
L 1116.77613 20.935168 
" style="fill:none;stroke:#696969;stroke-linecap:square;stroke-width:3;"/>
   </g>
   <g id="patch_46">
    <path d="M 53.328125 232.615168 
L 53.328125 10.855168 
" style="fill:none;stroke:#000000;stroke-linecap:square;stroke-linejoin:miter;stroke-width:0.8;"/>
   </g>
   <g id="patch_47">
    <path d="M 1169.328125 232.615168 
L 1169.328125 10.855168 
" style="fill:none;stroke:#000000;stroke-linecap:square;stroke-linejoin:miter;stroke-width:0.8;"/>
   </g>
   <g id="patch_48">
    <path d="M 53.328125 232.615168 
L 1169.328125 232.615168 
" style="fill:none;stroke:#000000;stroke-linecap:square;stroke-linejoin:miter;stroke-width:0.8;"/>
   </g>
  </g>
 </g>
 <defs>
  <clipPath id="pa2b507dbd2">
   <rect height="221.76" width="1116" x="53.328125" y="10.855168"/>
  </clipPath>
 </defs>
</svg>
