<?xml version="1.0" encoding="utf-8" standalone="no"?>
<!DOCTYPE svg PUBLIC "-//W3C//DTD SVG 1.1//EN"
  "http://www.w3.org/Graphics/SVG/1.1/DTD/svg11.dtd">
<svg xmlns:xlink="http://www.w3.org/1999/xlink" width="1219.471875pt" height="309.219375pt" viewBox="0 0 1219.471875 309.219375" xmlns="http://www.w3.org/2000/svg" version="1.1">
 <metadata>
  <rdf:RDF xmlns:dc="http://purl.org/dc/elements/1.1/" xmlns:cc="http://creativecommons.org/ns#" xmlns:rdf="http://www.w3.org/1999/02/22-rdf-syntax-ns#">
   <cc:Work>
    <dc:type rdf:resource="http://purl.org/dc/dcmitype/StillImage"/>
    <dc:date>2022-04-11T14:03:21.559726</dc:date>
    <dc:format>image/svg+xml</dc:format>
    <dc:creator>
     <cc:Agent>
      <dc:title>Matplotlib v3.5.1, https://matplotlib.org/</dc:title>
     </cc:Agent>
    </dc:creator>
   </cc:Work>
  </rdf:RDF>
 </metadata>
 <defs>
  <style type="text/css">*{stroke-linejoin: round; stroke-linecap: butt}</style>
 </defs>
 <g id="figure_1">
  <g id="patch_1">
   <path d="M 0 309.219375 
L 1219.471875 309.219375 
L 1219.471875 0 
L 0 0 
z
" style="fill: #ffffff"/>
  </g>
  <g id="axes_1">
   <g id="patch_2">
    <path d="M 59.690625 239.558438 
L 1175.690625 239.558438 
L 1175.690625 17.798437 
L 59.690625 17.798437 
z
" style="fill: #ffffff"/>
   </g>
   <g id="patch_3">
    <path d="M 110.417898 239.558438 
L 119.396176 239.558438 
L 119.396176 239.552618 
L 110.417898 239.552618 
z
" clip-path="url(#pde2447bc47)" style="fill: #86b0a6"/>
   </g>
   <g id="patch_4">
    <path d="M 148.126667 239.558438 
L 157.104945 239.558438 
L 157.104945 239.546799 
L 148.126667 239.546799 
z
" clip-path="url(#pde2447bc47)" style="fill: #86b0a6"/>
   </g>
   <g id="patch_5">
    <path d="M 160.696257 239.558438 
L 169.674535 239.558438 
L 169.674535 239.54389 
L 160.696257 239.54389 
z
" clip-path="url(#pde2447bc47)" style="fill: #86b0a6"/>
   </g>
   <g id="patch_6">
    <path d="M 173.265846 239.558438 
L 182.244125 239.558438 
L 182.244125 239.546799 
L 173.265846 239.546799 
z
" clip-path="url(#pde2447bc47)" style="fill: #86b0a6"/>
   </g>
   <g id="patch_7">
    <path d="M 185.835436 239.558438 
L 194.813714 239.558438 
L 194.813714 239.532252 
L 185.835436 239.532252 
z
" clip-path="url(#pde2447bc47)" style="fill: #86b0a6"/>
   </g>
   <g id="patch_8">
    <path d="M 198.405026 239.558438 
L 207.383304 239.558438 
L 207.383304 239.459513 
L 198.405026 239.459513 
z
" clip-path="url(#pde2447bc47)" style="fill: #86b0a6"/>
   </g>
   <g id="patch_9">
    <path d="M 210.974615 239.558438 
L 219.952894 239.558438 
L 219.952894 239.439147 
L 210.974615 239.439147 
z
" clip-path="url(#pde2447bc47)" style="fill: #86b0a6"/>
   </g>
   <g id="patch_10">
    <path d="M 223.544205 239.558438 
L 232.522483 239.558438 
L 232.522483 238.906702 
L 223.544205 238.906702 
z
" clip-path="url(#pde2447bc47)" style="fill: #86b0a6"/>
   </g>
   <g id="patch_11">
    <path d="M 236.113795 239.558438 
L 245.092073 239.558438 
L 245.092073 237.527584 
L 236.113795 237.527584 
z
" clip-path="url(#pde2447bc47)" style="fill: #86b0a6"/>
   </g>
   <g id="patch_12">
    <path d="M 248.683384 239.558438 
L 257.661663 239.558438 
L 257.661663 237.923281 
L 248.683384 237.923281 
z
" clip-path="url(#pde2447bc47)" style="fill: #86b0a6"/>
   </g>
   <g id="patch_13">
    <path d="M 261.252974 239.558438 
L 270.231253 239.558438 
L 270.231253 237.565408 
L 261.252974 237.565408 
z
" clip-path="url(#pde2447bc47)" style="fill: #86b0a6"/>
   </g>
   <g id="patch_14">
    <path d="M 273.822564 239.558438 
L 282.800842 239.558438 
L 282.800842 237.812718 
L 273.822564 237.812718 
z
" clip-path="url(#pde2447bc47)" style="fill: #86b0a6"/>
   </g>
   <g id="patch_15">
    <path d="M 286.392154 239.558438 
L 295.370432 239.558438 
L 295.370432 231.763802 
L 286.392154 231.763802 
z
" clip-path="url(#pde2447bc47)" style="fill: #86b0a6"/>
   </g>
   <g id="patch_16">
    <path d="M 298.961743 239.558438 
L 307.940022 239.558438 
L 307.940022 222.927554 
L 298.961743 222.927554 
z
" clip-path="url(#pde2447bc47)" style="fill: #86b0a6"/>
   </g>
   <g id="patch_17">
    <path d="M 311.531333 239.558438 
L 320.509611 239.558438 
L 320.509611 226.378259 
L 311.531333 226.378259 
z
" clip-path="url(#pde2447bc47)" style="fill: #86b0a6"/>
   </g>
   <g id="patch_18">
    <path d="M 324.100923 239.558438 
L 333.079201 239.558438 
L 333.079201 216.020326 
L 324.100923 216.020326 
z
" clip-path="url(#pde2447bc47)" style="fill: #86b0a6"/>
   </g>
   <g id="patch_19">
    <path d="M 336.670512 239.558438 
L 345.648791 239.558438 
L 345.648791 205.522735 
L 336.670512 205.522735 
z
" clip-path="url(#pde2447bc47)" style="fill: #86b0a6"/>
   </g>
   <g id="patch_20">
    <path d="M 349.240102 239.558438 
L 358.21838 239.558438 
L 358.21838 195.167712 
L 349.240102 195.167712 
z
" clip-path="url(#pde2447bc47)" style="fill: #86b0a6"/>
   </g>
   <g id="patch_21">
    <path d="M 361.809692 239.558438 
L 370.78797 239.558438 
L 370.78797 189.651239 
L 361.809692 189.651239 
z
" clip-path="url(#pde2447bc47)" style="fill: #86b0a6"/>
   </g>
   <g id="patch_22">
    <path d="M 374.379281 239.558438 
L 383.35756 239.558438 
L 383.35756 165.761074 
L 374.379281 165.761074 
z
" clip-path="url(#pde2447bc47)" style="fill: #86b0a6"/>
   </g>
   <g id="patch_23">
    <path d="M 386.948871 239.558438 
L 395.92715 239.558438 
L 395.92715 177.34683 
L 386.948871 177.34683 
z
" clip-path="url(#pde2447bc47)" style="fill: #86b0a6"/>
   </g>
   <g id="patch_24">
    <path d="M 399.518461 239.558438 
L 408.496739 239.558438 
L 408.496739 158.760741 
L 399.518461 158.760741 
z
" clip-path="url(#pde2447bc47)" style="fill: #86b0a6"/>
   </g>
   <g id="patch_25">
    <path d="M 412.088051 239.558438 
L 421.066329 239.558438 
L 421.066329 144.029782 
L 412.088051 144.029782 
z
" clip-path="url(#pde2447bc47)" style="fill: #86b0a6"/>
   </g>
   <g id="patch_26">
    <path d="M 424.65764 239.558438 
L 433.635919 239.558438 
L 433.635919 125.755013 
L 424.65764 125.755013 
z
" clip-path="url(#pde2447bc47)" style="fill: #86b0a6"/>
   </g>
   <g id="patch_27">
    <path d="M 437.22723 239.558438 
L 446.205508 239.558438 
L 446.205508 111.891094 
L 437.22723 111.891094 
z
" clip-path="url(#pde2447bc47)" style="fill: #86b0a6"/>
   </g>
   <g id="patch_28">
    <path d="M 449.79682 239.558438 
L 458.775098 239.558438 
L 458.775098 81.617416 
L 449.79682 81.617416 
z
" clip-path="url(#pde2447bc47)" style="fill: #86b0a6"/>
   </g>
   <g id="patch_29">
    <path d="M 462.366409 239.558438 
L 471.344688 239.558438 
L 471.344688 58.050209 
L 462.366409 58.050209 
z
" clip-path="url(#pde2447bc47)" style="fill: #86b0a6"/>
   </g>
   <g id="patch_30">
    <path d="M 474.935999 239.558438 
L 483.914277 239.558438 
L 483.914277 41.384411 
L 474.935999 41.384411 
z
" clip-path="url(#pde2447bc47)" style="fill: #86b0a6"/>
   </g>
   <g id="patch_31">
    <path d="M 487.505589 239.558438 
L 496.483867 239.558438 
L 496.483867 43.904066 
L 487.505589 43.904066 
z
" clip-path="url(#pde2447bc47)" style="fill: #86b0a6"/>
   </g>
   <g id="patch_32">
    <path d="M 500.075178 239.558438 
L 509.053457 239.558438 
L 509.053457 44.157195 
L 500.075178 44.157195 
z
" clip-path="url(#pde2447bc47)" style="fill: #86b0a6"/>
   </g>
   <g id="patch_33">
    <path d="M 512.644768 239.558438 
L 521.623047 239.558438 
L 521.623047 28.358437 
L 512.644768 28.358437 
z
" clip-path="url(#pde2447bc47)" style="fill: #86b0a6"/>
   </g>
   <g id="patch_34">
    <path d="M 525.214358 239.558438 
L 534.192636 239.558438 
L 534.192636 39.013143 
L 525.214358 39.013143 
z
" clip-path="url(#pde2447bc47)" style="fill: #86b0a6"/>
   </g>
   <g id="patch_35">
    <path d="M 537.783948 239.558438 
L 546.762226 239.558438 
L 546.762226 35.483881 
L 537.783948 35.483881 
z
" clip-path="url(#pde2447bc47)" style="fill: #86b0a6"/>
   </g>
   <g id="patch_36">
    <path d="M 550.353537 239.558438 
L 559.331816 239.558438 
L 559.331816 51.847087 
L 550.353537 51.847087 
z
" clip-path="url(#pde2447bc47)" style="fill: #86b0a6"/>
   </g>
   <g id="patch_37">
    <path d="M 562.923127 239.558438 
L 571.901405 239.558438 
L 571.901405 81.384654 
L 562.923127 81.384654 
z
" clip-path="url(#pde2447bc47)" style="fill: #86b0a6"/>
   </g>
   <g id="patch_38">
    <path d="M 575.492717 239.558438 
L 584.470995 239.558438 
L 584.470995 103.665848 
L 575.492717 103.665848 
z
" clip-path="url(#pde2447bc47)" style="fill: #86b0a6"/>
   </g>
   <g id="patch_39">
    <path d="M 588.062306 239.558438 
L 597.040585 239.558438 
L 597.040585 133.988988 
L 588.062306 133.988988 
z
" clip-path="url(#pde2447bc47)" style="fill: #86b0a6"/>
   </g>
   <g id="patch_40">
    <path d="M 600.631896 239.558438 
L 609.610174 239.558438 
L 609.610174 158.932403 
L 600.631896 158.932403 
z
" clip-path="url(#pde2447bc47)" style="fill: #86b0a6"/>
   </g>
   <g id="patch_41">
    <path d="M 613.201486 239.558438 
L 622.179764 239.558438 
L 622.179764 172.691579 
L 613.201486 172.691579 
z
" clip-path="url(#pde2447bc47)" style="fill: #86b0a6"/>
   </g>
   <g id="patch_42">
    <path d="M 625.771076 239.558438 
L 634.749354 239.558438 
L 634.749354 194.661453 
L 625.771076 194.661453 
z
" clip-path="url(#pde2447bc47)" style="fill: #86b0a6"/>
   </g>
   <g id="patch_43">
    <path d="M 638.340665 239.558438 
L 647.318944 239.558438 
L 647.318944 203.861392 
L 638.340665 203.861392 
z
" clip-path="url(#pde2447bc47)" style="fill: #86b0a6"/>
   </g>
   <g id="patch_44">
    <path d="M 650.910255 239.558438 
L 659.888533 239.558438 
L 659.888533 212.869303 
L 650.910255 212.869303 
z
" clip-path="url(#pde2447bc47)" style="fill: #86b0a6"/>
   </g>
   <g id="patch_45">
    <path d="M 663.479845 239.558438 
L 672.458123 239.558438 
L 672.458123 216.448027 
L 663.479845 216.448027 
z
" clip-path="url(#pde2447bc47)" style="fill: #86b0a6"/>
   </g>
   <g id="patch_46">
    <path d="M 676.049434 239.558438 
L 685.027713 239.558438 
L 685.027713 222.229266 
L 676.049434 222.229266 
z
" clip-path="url(#pde2447bc47)" style="fill: #86b0a6"/>
   </g>
   <g id="patch_47">
    <path d="M 688.619024 239.558438 
L 697.597302 239.558438 
L 697.597302 226.113491 
L 688.619024 226.113491 
z
" clip-path="url(#pde2447bc47)" style="fill: #86b0a6"/>
   </g>
   <g id="patch_48">
    <path d="M 701.188614 239.558438 
L 710.166892 239.558438 
L 710.166892 228.106521 
L 701.188614 228.106521 
z
" clip-path="url(#pde2447bc47)" style="fill: #86b0a6"/>
   </g>
   <g id="patch_49">
    <path d="M 713.758203 239.558438 
L 722.736482 239.558438 
L 722.736482 233.486245 
L 713.758203 233.486245 
z
" clip-path="url(#pde2447bc47)" style="fill: #86b0a6"/>
   </g>
   <g id="patch_50">
    <path d="M 726.327793 239.558438 
L 735.306072 239.558438 
L 735.306072 231.117886 
L 726.327793 231.117886 
z
" clip-path="url(#pde2447bc47)" style="fill: #86b0a6"/>
   </g>
   <g id="patch_51">
    <path d="M 738.897383 239.558438 
L 747.875661 239.558438 
L 747.875661 236.596534 
L 738.897383 236.596534 
z
" clip-path="url(#pde2447bc47)" style="fill: #86b0a6"/>
   </g>
   <g id="patch_52">
    <path d="M 751.466973 239.558438 
L 760.445251 239.558438 
L 760.445251 237.856361 
L 751.466973 237.856361 
z
" clip-path="url(#pde2447bc47)" style="fill: #86b0a6"/>
   </g>
   <g id="patch_53">
    <path d="M 764.036562 239.558438 
L 773.014841 239.558438 
L 773.014841 238.604111 
L 764.036562 238.604111 
z
" clip-path="url(#pde2447bc47)" style="fill: #86b0a6"/>
   </g>
   <g id="patch_54">
    <path d="M 776.606152 239.558438 
L 785.58443 239.558438 
L 785.58443 239.002717 
L 776.606152 239.002717 
z
" clip-path="url(#pde2447bc47)" style="fill: #86b0a6"/>
   </g>
   <g id="patch_55">
    <path d="M 789.175742 239.558438 
L 798.15402 239.558438 
L 798.15402 239.194746 
L 789.175742 239.194746 
z
" clip-path="url(#pde2447bc47)" style="fill: #86b0a6"/>
   </g>
   <g id="patch_56">
    <path d="M 801.745331 239.558438 
L 810.72361 239.558438 
L 810.72361 239.372227 
L 801.745331 239.372227 
z
" clip-path="url(#pde2447bc47)" style="fill: #86b0a6"/>
   </g>
   <g id="patch_57">
    <path d="M 814.314921 239.558438 
L 823.293199 239.558438 
L 823.293199 239.41587 
L 814.314921 239.41587 
z
" clip-path="url(#pde2447bc47)" style="fill: #86b0a6"/>
   </g>
   <g id="patch_58">
    <path d="M 826.884511 239.558438 
L 835.862789 239.558438 
L 835.862789 239.41878 
L 826.884511 239.41878 
z
" clip-path="url(#pde2447bc47)" style="fill: #86b0a6"/>
   </g>
   <g id="patch_59">
    <path d="M 839.4541 239.558438 
L 848.432379 239.558438 
L 848.432379 239.340223 
L 839.4541 239.340223 
z
" clip-path="url(#pde2447bc47)" style="fill: #86b0a6"/>
   </g>
   <g id="patch_60">
    <path d="M 852.02369 239.558438 
L 861.001969 239.558438 
L 861.001969 239.476971 
L 852.02369 239.476971 
z
" clip-path="url(#pde2447bc47)" style="fill: #86b0a6"/>
   </g>
   <g id="patch_61">
    <path d="M 864.59328 239.558438 
L 873.571558 239.558438 
L 873.571558 239.514795 
L 864.59328 239.514795 
z
" clip-path="url(#pde2447bc47)" style="fill: #86b0a6"/>
   </g>
   <g id="patch_62">
    <path d="M 877.16287 239.558438 
L 886.141148 239.558438 
L 886.141148 239.535161 
L 877.16287 239.535161 
z
" clip-path="url(#pde2447bc47)" style="fill: #86b0a6"/>
   </g>
   <g id="patch_63">
    <path d="M 889.732459 239.558438 
L 898.710738 239.558438 
L 898.710738 239.517704 
L 889.732459 239.517704 
z
" clip-path="url(#pde2447bc47)" style="fill: #86b0a6"/>
   </g>
   <g id="patch_64">
    <path d="M 902.302049 239.558438 
L 911.280327 239.558438 
L 911.280327 239.532252 
L 902.302049 239.532252 
z
" clip-path="url(#pde2447bc47)" style="fill: #86b0a6"/>
   </g>
   <g id="patch_65">
    <path d="M 914.871639 239.558438 
L 923.849917 239.558438 
L 923.849917 239.520614 
L 914.871639 239.520614 
z
" clip-path="url(#pde2447bc47)" style="fill: #86b0a6"/>
   </g>
   <g id="patch_66">
    <path d="M 927.441228 239.558438 
L 936.419507 239.558438 
L 936.419507 239.511885 
L 927.441228 239.511885 
z
" clip-path="url(#pde2447bc47)" style="fill: #86b0a6"/>
   </g>
   <g id="patch_67">
    <path d="M 940.010818 239.558438 
L 948.989096 239.558438 
L 948.989096 239.538071 
L 940.010818 239.538071 
z
" clip-path="url(#pde2447bc47)" style="fill: #86b0a6"/>
   </g>
   <g id="patch_68">
    <path d="M 952.580408 239.558438 
L 961.558686 239.558438 
L 961.558686 239.520614 
L 952.580408 239.520614 
z
" clip-path="url(#pde2447bc47)" style="fill: #86b0a6"/>
   </g>
   <g id="patch_69">
    <path d="M 965.149997 239.558438 
L 974.128276 239.558438 
L 974.128276 239.549709 
L 965.149997 239.549709 
z
" clip-path="url(#pde2447bc47)" style="fill: #86b0a6"/>
   </g>
   <g id="patch_70">
    <path d="M 977.719587 239.558438 
L 986.697866 239.558438 
L 986.697866 239.555528 
L 977.719587 239.555528 
z
" clip-path="url(#pde2447bc47)" style="fill: #86b0a6"/>
   </g>
   <g id="patch_71">
    <path d="M 990.289177 239.558438 
L 999.267455 239.558438 
L 999.267455 239.54389 
L 990.289177 239.54389 
z
" clip-path="url(#pde2447bc47)" style="fill: #86b0a6"/>
   </g>
   <g id="patch_72">
    <path d="M 1002.858767 239.558438 
L 1011.837045 239.558438 
L 1011.837045 239.549709 
L 1002.858767 239.549709 
z
" clip-path="url(#pde2447bc47)" style="fill: #86b0a6"/>
   </g>
   <g id="patch_73">
    <path d="M 1015.428356 239.558438 
L 1024.406635 239.558438 
L 1024.406635 239.555528 
L 1015.428356 239.555528 
z
" clip-path="url(#pde2447bc47)" style="fill: #86b0a6"/>
   </g>
   <g id="patch_74">
    <path d="M 1027.997946 239.558438 
L 1036.976224 239.558438 
L 1036.976224 239.552618 
L 1027.997946 239.552618 
z
" clip-path="url(#pde2447bc47)" style="fill: #86b0a6"/>
   </g>
   <g id="patch_75">
    <path d="M 1040.567536 239.558438 
L 1049.545814 239.558438 
L 1049.545814 239.549709 
L 1040.567536 239.549709 
z
" clip-path="url(#pde2447bc47)" style="fill: #86b0a6"/>
   </g>
   <g id="patch_76">
    <path d="M 1053.137125 239.558438 
L 1062.115404 239.558438 
L 1062.115404 239.546799 
L 1053.137125 239.546799 
z
" clip-path="url(#pde2447bc47)" style="fill: #86b0a6"/>
   </g>
   <g id="patch_77">
    <path d="M 1065.706715 239.558438 
L 1074.684993 239.558438 
L 1074.684993 239.552618 
L 1065.706715 239.552618 
z
" clip-path="url(#pde2447bc47)" style="fill: #86b0a6"/>
   </g>
   <g id="patch_78">
    <path d="M 1078.276305 239.558438 
L 1087.254583 239.558438 
L 1087.254583 239.555528 
L 1078.276305 239.555528 
z
" clip-path="url(#pde2447bc47)" style="fill: #86b0a6"/>
   </g>
   <g id="patch_79">
    <path d="M 1090.845895 239.558438 
L 1099.824173 239.558438 
L 1099.824173 239.555528 
L 1090.845895 239.555528 
z
" clip-path="url(#pde2447bc47)" style="fill: #86b0a6"/>
   </g>
   <g id="patch_80">
    <path d="M 1103.415484 239.558438 
L 1112.393763 239.558438 
L 1112.393763 239.549709 
L 1103.415484 239.549709 
z
" clip-path="url(#pde2447bc47)" style="fill: #86b0a6"/>
   </g>
   <g id="patch_81">
    <path d="M 1115.985074 239.558438 
L 1124.963352 239.558438 
L 1124.963352 239.555528 
L 1115.985074 239.555528 
z
" clip-path="url(#pde2447bc47)" style="fill: #86b0a6"/>
   </g>
   <g id="matplotlib.axis_1">
    <g id="xtick_1">
     <g id="line2d_1">
      <defs>
       <path id="mdb1f3bc7a8" d="M 0 0 
L 0 3.5 
" style="stroke: #000000; stroke-width: 0.8"/>
      </defs>
      <g>
       <use xlink:href="#mdb1f3bc7a8" x="118.498348" y="239.558438" style="stroke: #000000; stroke-width: 0.8"/>
      </g>
     </g>
     <g id="text_1">
      <!-- 2020-09 -->
      <g transform="translate(121.257723 288.34125)rotate(-90)scale(0.1 -0.1)">
       <defs>
        <path id="DejaVuSans-32" d="M 1228 531 
L 3431 531 
L 3431 0 
L 469 0 
L 469 531 
Q 828 903 1448 1529 
Q 2069 2156 2228 2338 
Q 2531 2678 2651 2914 
Q 2772 3150 2772 3378 
Q 2772 3750 2511 3984 
Q 2250 4219 1831 4219 
Q 1534 4219 1204 4116 
Q 875 4013 500 3803 
L 500 4441 
Q 881 4594 1212 4672 
Q 1544 4750 1819 4750 
Q 2544 4750 2975 4387 
Q 3406 4025 3406 3419 
Q 3406 3131 3298 2873 
Q 3191 2616 2906 2266 
Q 2828 2175 2409 1742 
Q 1991 1309 1228 531 
z
" transform="scale(0.015625)"/>
        <path id="DejaVuSans-30" d="M 2034 4250 
Q 1547 4250 1301 3770 
Q 1056 3291 1056 2328 
Q 1056 1369 1301 889 
Q 1547 409 2034 409 
Q 2525 409 2770 889 
Q 3016 1369 3016 2328 
Q 3016 3291 2770 3770 
Q 2525 4250 2034 4250 
z
M 2034 4750 
Q 2819 4750 3233 4129 
Q 3647 3509 3647 2328 
Q 3647 1150 3233 529 
Q 2819 -91 2034 -91 
Q 1250 -91 836 529 
Q 422 1150 422 2328 
Q 422 3509 836 4129 
Q 1250 4750 2034 4750 
z
" transform="scale(0.015625)"/>
        <path id="DejaVuSans-2d" d="M 313 2009 
L 1997 2009 
L 1997 1497 
L 313 1497 
L 313 2009 
z
" transform="scale(0.015625)"/>
        <path id="DejaVuSans-39" d="M 703 97 
L 703 672 
Q 941 559 1184 500 
Q 1428 441 1663 441 
Q 2288 441 2617 861 
Q 2947 1281 2994 2138 
Q 2813 1869 2534 1725 
Q 2256 1581 1919 1581 
Q 1219 1581 811 2004 
Q 403 2428 403 3163 
Q 403 3881 828 4315 
Q 1253 4750 1959 4750 
Q 2769 4750 3195 4129 
Q 3622 3509 3622 2328 
Q 3622 1225 3098 567 
Q 2575 -91 1691 -91 
Q 1453 -91 1209 -44 
Q 966 3 703 97 
z
M 1959 2075 
Q 2384 2075 2632 2365 
Q 2881 2656 2881 3163 
Q 2881 3666 2632 3958 
Q 2384 4250 1959 4250 
Q 1534 4250 1286 3958 
Q 1038 3666 1038 3163 
Q 1038 2656 1286 2365 
Q 1534 2075 1959 2075 
z
" transform="scale(0.015625)"/>
       </defs>
       <use xlink:href="#DejaVuSans-32"/>
       <use xlink:href="#DejaVuSans-30" x="63.623047"/>
       <use xlink:href="#DejaVuSans-32" x="127.246094"/>
       <use xlink:href="#DejaVuSans-30" x="190.869141"/>
       <use xlink:href="#DejaVuSans-2d" x="254.492188"/>
       <use xlink:href="#DejaVuSans-30" x="290.576172"/>
       <use xlink:href="#DejaVuSans-39" x="354.199219"/>
      </g>
     </g>
    </g>
    <g id="xtick_2">
     <g id="line2d_2">
      <g>
       <use xlink:href="#mdb1f3bc7a8" x="228.033344" y="239.558438" style="stroke: #000000; stroke-width: 0.8"/>
      </g>
     </g>
     <g id="text_2">
      <!-- 2020-11 -->
      <g transform="translate(230.792719 288.34125)rotate(-90)scale(0.1 -0.1)">
       <defs>
        <path id="DejaVuSans-31" d="M 794 531 
L 1825 531 
L 1825 4091 
L 703 3866 
L 703 4441 
L 1819 4666 
L 2450 4666 
L 2450 531 
L 3481 531 
L 3481 0 
L 794 0 
L 794 531 
z
" transform="scale(0.015625)"/>
       </defs>
       <use xlink:href="#DejaVuSans-32"/>
       <use xlink:href="#DejaVuSans-30" x="63.623047"/>
       <use xlink:href="#DejaVuSans-32" x="127.246094"/>
       <use xlink:href="#DejaVuSans-30" x="190.869141"/>
       <use xlink:href="#DejaVuSans-2d" x="254.492188"/>
       <use xlink:href="#DejaVuSans-31" x="290.576172"/>
       <use xlink:href="#DejaVuSans-31" x="354.199219"/>
      </g>
     </g>
    </g>
    <g id="xtick_3">
     <g id="line2d_3">
      <g>
       <use xlink:href="#mdb1f3bc7a8" x="337.56834" y="239.558438" style="stroke: #000000; stroke-width: 0.8"/>
      </g>
     </g>
     <g id="text_3">
      <!-- 2021-01 -->
      <g transform="translate(340.327715 288.34125)rotate(-90)scale(0.1 -0.1)">
       <use xlink:href="#DejaVuSans-32"/>
       <use xlink:href="#DejaVuSans-30" x="63.623047"/>
       <use xlink:href="#DejaVuSans-32" x="127.246094"/>
       <use xlink:href="#DejaVuSans-31" x="190.869141"/>
       <use xlink:href="#DejaVuSans-2d" x="254.492188"/>
       <use xlink:href="#DejaVuSans-30" x="290.576172"/>
       <use xlink:href="#DejaVuSans-31" x="354.199219"/>
      </g>
     </g>
    </g>
    <g id="xtick_4">
     <g id="line2d_4">
      <g>
       <use xlink:href="#mdb1f3bc7a8" x="443.512025" y="239.558438" style="stroke: #000000; stroke-width: 0.8"/>
      </g>
     </g>
     <g id="text_4">
      <!-- 2021-03 -->
      <g transform="translate(446.2714 288.34125)rotate(-90)scale(0.1 -0.1)">
       <defs>
        <path id="DejaVuSans-33" d="M 2597 2516 
Q 3050 2419 3304 2112 
Q 3559 1806 3559 1356 
Q 3559 666 3084 287 
Q 2609 -91 1734 -91 
Q 1441 -91 1130 -33 
Q 819 25 488 141 
L 488 750 
Q 750 597 1062 519 
Q 1375 441 1716 441 
Q 2309 441 2620 675 
Q 2931 909 2931 1356 
Q 2931 1769 2642 2001 
Q 2353 2234 1838 2234 
L 1294 2234 
L 1294 2753 
L 1863 2753 
Q 2328 2753 2575 2939 
Q 2822 3125 2822 3475 
Q 2822 3834 2567 4026 
Q 2313 4219 1838 4219 
Q 1578 4219 1281 4162 
Q 984 4106 628 3988 
L 628 4550 
Q 988 4650 1302 4700 
Q 1616 4750 1894 4750 
Q 2613 4750 3031 4423 
Q 3450 4097 3450 3541 
Q 3450 3153 3228 2886 
Q 3006 2619 2597 2516 
z
" transform="scale(0.015625)"/>
       </defs>
       <use xlink:href="#DejaVuSans-32"/>
       <use xlink:href="#DejaVuSans-30" x="63.623047"/>
       <use xlink:href="#DejaVuSans-32" x="127.246094"/>
       <use xlink:href="#DejaVuSans-31" x="190.869141"/>
       <use xlink:href="#DejaVuSans-2d" x="254.492188"/>
       <use xlink:href="#DejaVuSans-30" x="290.576172"/>
       <use xlink:href="#DejaVuSans-33" x="354.199219"/>
      </g>
     </g>
    </g>
    <g id="xtick_5">
     <g id="line2d_5">
      <g>
       <use xlink:href="#mdb1f3bc7a8" x="553.047021" y="239.558438" style="stroke: #000000; stroke-width: 0.8"/>
      </g>
     </g>
     <g id="text_5">
      <!-- 2021-05 -->
      <g transform="translate(555.806396 288.34125)rotate(-90)scale(0.1 -0.1)">
       <defs>
        <path id="DejaVuSans-35" d="M 691 4666 
L 3169 4666 
L 3169 4134 
L 1269 4134 
L 1269 2991 
Q 1406 3038 1543 3061 
Q 1681 3084 1819 3084 
Q 2600 3084 3056 2656 
Q 3513 2228 3513 1497 
Q 3513 744 3044 326 
Q 2575 -91 1722 -91 
Q 1428 -91 1123 -41 
Q 819 9 494 109 
L 494 744 
Q 775 591 1075 516 
Q 1375 441 1709 441 
Q 2250 441 2565 725 
Q 2881 1009 2881 1497 
Q 2881 1984 2565 2268 
Q 2250 2553 1709 2553 
Q 1456 2553 1204 2497 
Q 953 2441 691 2322 
L 691 4666 
z
" transform="scale(0.015625)"/>
       </defs>
       <use xlink:href="#DejaVuSans-32"/>
       <use xlink:href="#DejaVuSans-30" x="63.623047"/>
       <use xlink:href="#DejaVuSans-32" x="127.246094"/>
       <use xlink:href="#DejaVuSans-31" x="190.869141"/>
       <use xlink:href="#DejaVuSans-2d" x="254.492188"/>
       <use xlink:href="#DejaVuSans-30" x="290.576172"/>
       <use xlink:href="#DejaVuSans-35" x="354.199219"/>
      </g>
     </g>
    </g>
    <g id="xtick_6">
     <g id="line2d_6">
      <g>
       <use xlink:href="#mdb1f3bc7a8" x="662.582017" y="239.558438" style="stroke: #000000; stroke-width: 0.8"/>
      </g>
     </g>
     <g id="text_6">
      <!-- 2021-07 -->
      <g transform="translate(665.341392 288.34125)rotate(-90)scale(0.1 -0.1)">
       <defs>
        <path id="DejaVuSans-37" d="M 525 4666 
L 3525 4666 
L 3525 4397 
L 1831 0 
L 1172 0 
L 2766 4134 
L 525 4134 
L 525 4666 
z
" transform="scale(0.015625)"/>
       </defs>
       <use xlink:href="#DejaVuSans-32"/>
       <use xlink:href="#DejaVuSans-30" x="63.623047"/>
       <use xlink:href="#DejaVuSans-32" x="127.246094"/>
       <use xlink:href="#DejaVuSans-31" x="190.869141"/>
       <use xlink:href="#DejaVuSans-2d" x="254.492188"/>
       <use xlink:href="#DejaVuSans-30" x="290.576172"/>
       <use xlink:href="#DejaVuSans-37" x="354.199219"/>
      </g>
     </g>
    </g>
    <g id="xtick_7">
     <g id="line2d_7">
      <g>
       <use xlink:href="#mdb1f3bc7a8" x="773.912668" y="239.558438" style="stroke: #000000; stroke-width: 0.8"/>
      </g>
     </g>
     <g id="text_7">
      <!-- 2021-09 -->
      <g transform="translate(776.672043 288.34125)rotate(-90)scale(0.1 -0.1)">
       <use xlink:href="#DejaVuSans-32"/>
       <use xlink:href="#DejaVuSans-30" x="63.623047"/>
       <use xlink:href="#DejaVuSans-32" x="127.246094"/>
       <use xlink:href="#DejaVuSans-31" x="190.869141"/>
       <use xlink:href="#DejaVuSans-2d" x="254.492188"/>
       <use xlink:href="#DejaVuSans-30" x="290.576172"/>
       <use xlink:href="#DejaVuSans-39" x="354.199219"/>
      </g>
     </g>
    </g>
    <g id="xtick_8">
     <g id="line2d_8">
      <g>
       <use xlink:href="#mdb1f3bc7a8" x="883.447664" y="239.558438" style="stroke: #000000; stroke-width: 0.8"/>
      </g>
     </g>
     <g id="text_8">
      <!-- 2021-11 -->
      <g transform="translate(886.207039 288.34125)rotate(-90)scale(0.1 -0.1)">
       <use xlink:href="#DejaVuSans-32"/>
       <use xlink:href="#DejaVuSans-30" x="63.623047"/>
       <use xlink:href="#DejaVuSans-32" x="127.246094"/>
       <use xlink:href="#DejaVuSans-31" x="190.869141"/>
       <use xlink:href="#DejaVuSans-2d" x="254.492188"/>
       <use xlink:href="#DejaVuSans-31" x="290.576172"/>
       <use xlink:href="#DejaVuSans-31" x="354.199219"/>
      </g>
     </g>
    </g>
    <g id="xtick_9">
     <g id="line2d_9">
      <g>
       <use xlink:href="#mdb1f3bc7a8" x="992.98266" y="239.558438" style="stroke: #000000; stroke-width: 0.8"/>
      </g>
     </g>
     <g id="text_9">
      <!-- 2022-01 -->
      <g transform="translate(995.742035 288.34125)rotate(-90)scale(0.1 -0.1)">
       <use xlink:href="#DejaVuSans-32"/>
       <use xlink:href="#DejaVuSans-30" x="63.623047"/>
       <use xlink:href="#DejaVuSans-32" x="127.246094"/>
       <use xlink:href="#DejaVuSans-32" x="190.869141"/>
       <use xlink:href="#DejaVuSans-2d" x="254.492188"/>
       <use xlink:href="#DejaVuSans-30" x="290.576172"/>
       <use xlink:href="#DejaVuSans-31" x="354.199219"/>
      </g>
     </g>
    </g>
    <g id="xtick_10">
     <g id="line2d_10">
      <g>
       <use xlink:href="#mdb1f3bc7a8" x="1098.926345" y="239.558438" style="stroke: #000000; stroke-width: 0.8"/>
      </g>
     </g>
     <g id="text_10">
      <!-- 2022-03 -->
      <g transform="translate(1101.68572 288.34125)rotate(-90)scale(0.1 -0.1)">
       <use xlink:href="#DejaVuSans-32"/>
       <use xlink:href="#DejaVuSans-30" x="63.623047"/>
       <use xlink:href="#DejaVuSans-32" x="127.246094"/>
       <use xlink:href="#DejaVuSans-32" x="190.869141"/>
       <use xlink:href="#DejaVuSans-2d" x="254.492188"/>
       <use xlink:href="#DejaVuSans-30" x="290.576172"/>
       <use xlink:href="#DejaVuSans-33" x="354.199219"/>
      </g>
     </g>
    </g>
    <g id="text_11">
     <!-- Date -->
     <g transform="translate(605.739844 299.939687)scale(0.1 -0.1)">
      <defs>
       <path id="DejaVuSans-44" d="M 1259 4147 
L 1259 519 
L 2022 519 
Q 2988 519 3436 956 
Q 3884 1394 3884 2338 
Q 3884 3275 3436 3711 
Q 2988 4147 2022 4147 
L 1259 4147 
z
M 628 4666 
L 1925 4666 
Q 3281 4666 3915 4102 
Q 4550 3538 4550 2338 
Q 4550 1131 3912 565 
Q 3275 0 1925 0 
L 628 0 
L 628 4666 
z
" transform="scale(0.015625)"/>
       <path id="DejaVuSans-61" d="M 2194 1759 
Q 1497 1759 1228 1600 
Q 959 1441 959 1056 
Q 959 750 1161 570 
Q 1363 391 1709 391 
Q 2188 391 2477 730 
Q 2766 1069 2766 1631 
L 2766 1759 
L 2194 1759 
z
M 3341 1997 
L 3341 0 
L 2766 0 
L 2766 531 
Q 2569 213 2275 61 
Q 1981 -91 1556 -91 
Q 1019 -91 701 211 
Q 384 513 384 1019 
Q 384 1609 779 1909 
Q 1175 2209 1959 2209 
L 2766 2209 
L 2766 2266 
Q 2766 2663 2505 2880 
Q 2244 3097 1772 3097 
Q 1472 3097 1187 3025 
Q 903 2953 641 2809 
L 641 3341 
Q 956 3463 1253 3523 
Q 1550 3584 1831 3584 
Q 2591 3584 2966 3190 
Q 3341 2797 3341 1997 
z
" transform="scale(0.015625)"/>
       <path id="DejaVuSans-74" d="M 1172 4494 
L 1172 3500 
L 2356 3500 
L 2356 3053 
L 1172 3053 
L 1172 1153 
Q 1172 725 1289 603 
Q 1406 481 1766 481 
L 2356 481 
L 2356 0 
L 1766 0 
Q 1100 0 847 248 
Q 594 497 594 1153 
L 594 3053 
L 172 3053 
L 172 3500 
L 594 3500 
L 594 4494 
L 1172 4494 
z
" transform="scale(0.015625)"/>
       <path id="DejaVuSans-65" d="M 3597 1894 
L 3597 1613 
L 953 1613 
Q 991 1019 1311 708 
Q 1631 397 2203 397 
Q 2534 397 2845 478 
Q 3156 559 3463 722 
L 3463 178 
Q 3153 47 2828 -22 
Q 2503 -91 2169 -91 
Q 1331 -91 842 396 
Q 353 884 353 1716 
Q 353 2575 817 3079 
Q 1281 3584 2069 3584 
Q 2775 3584 3186 3129 
Q 3597 2675 3597 1894 
z
M 3022 2063 
Q 3016 2534 2758 2815 
Q 2500 3097 2075 3097 
Q 1594 3097 1305 2825 
Q 1016 2553 972 2059 
L 3022 2063 
z
" transform="scale(0.015625)"/>
      </defs>
      <use xlink:href="#DejaVuSans-44"/>
      <use xlink:href="#DejaVuSans-61" x="77.001953"/>
      <use xlink:href="#DejaVuSans-74" x="138.28125"/>
      <use xlink:href="#DejaVuSans-65" x="177.490234"/>
     </g>
    </g>
   </g>
   <g id="matplotlib.axis_2">
    <g id="ytick_1">
     <g id="line2d_11">
      <defs>
       <path id="m8ef31426da" d="M 0 0 
L -3.5 0 
" style="stroke: #000000; stroke-width: 0.8"/>
      </defs>
      <g>
       <use xlink:href="#m8ef31426da" x="59.690625" y="239.558438" style="stroke: #000000; stroke-width: 0.8"/>
      </g>
     </g>
     <g id="text_12">
      <!-- 0 -->
      <g transform="translate(46.328125 243.357656)scale(0.1 -0.1)">
       <use xlink:href="#DejaVuSans-30"/>
      </g>
     </g>
    </g>
    <g id="ytick_2">
     <g id="line2d_12">
      <g>
       <use xlink:href="#m8ef31426da" x="59.690625" y="210.46312" style="stroke: #000000; stroke-width: 0.8"/>
      </g>
     </g>
     <g id="text_13">
      <!-- 10000 -->
      <g transform="translate(20.878125 214.262339)scale(0.1 -0.1)">
       <use xlink:href="#DejaVuSans-31"/>
       <use xlink:href="#DejaVuSans-30" x="63.623047"/>
       <use xlink:href="#DejaVuSans-30" x="127.246094"/>
       <use xlink:href="#DejaVuSans-30" x="190.869141"/>
       <use xlink:href="#DejaVuSans-30" x="254.492188"/>
      </g>
     </g>
    </g>
    <g id="ytick_3">
     <g id="line2d_13">
      <g>
       <use xlink:href="#m8ef31426da" x="59.690625" y="181.367803" style="stroke: #000000; stroke-width: 0.8"/>
      </g>
     </g>
     <g id="text_14">
      <!-- 20000 -->
      <g transform="translate(20.878125 185.167021)scale(0.1 -0.1)">
       <use xlink:href="#DejaVuSans-32"/>
       <use xlink:href="#DejaVuSans-30" x="63.623047"/>
       <use xlink:href="#DejaVuSans-30" x="127.246094"/>
       <use xlink:href="#DejaVuSans-30" x="190.869141"/>
       <use xlink:href="#DejaVuSans-30" x="254.492188"/>
      </g>
     </g>
    </g>
    <g id="ytick_4">
     <g id="line2d_14">
      <g>
       <use xlink:href="#m8ef31426da" x="59.690625" y="152.272485" style="stroke: #000000; stroke-width: 0.8"/>
      </g>
     </g>
     <g id="text_15">
      <!-- 30000 -->
      <g transform="translate(20.878125 156.071704)scale(0.1 -0.1)">
       <use xlink:href="#DejaVuSans-33"/>
       <use xlink:href="#DejaVuSans-30" x="63.623047"/>
       <use xlink:href="#DejaVuSans-30" x="127.246094"/>
       <use xlink:href="#DejaVuSans-30" x="190.869141"/>
       <use xlink:href="#DejaVuSans-30" x="254.492188"/>
      </g>
     </g>
    </g>
    <g id="ytick_5">
     <g id="line2d_15">
      <g>
       <use xlink:href="#m8ef31426da" x="59.690625" y="123.177168" style="stroke: #000000; stroke-width: 0.8"/>
      </g>
     </g>
     <g id="text_16">
      <!-- 40000 -->
      <g transform="translate(20.878125 126.976386)scale(0.1 -0.1)">
       <defs>
        <path id="DejaVuSans-34" d="M 2419 4116 
L 825 1625 
L 2419 1625 
L 2419 4116 
z
M 2253 4666 
L 3047 4666 
L 3047 1625 
L 3713 1625 
L 3713 1100 
L 3047 1100 
L 3047 0 
L 2419 0 
L 2419 1100 
L 313 1100 
L 313 1709 
L 2253 4666 
z
" transform="scale(0.015625)"/>
       </defs>
       <use xlink:href="#DejaVuSans-34"/>
       <use xlink:href="#DejaVuSans-30" x="63.623047"/>
       <use xlink:href="#DejaVuSans-30" x="127.246094"/>
       <use xlink:href="#DejaVuSans-30" x="190.869141"/>
       <use xlink:href="#DejaVuSans-30" x="254.492188"/>
      </g>
     </g>
    </g>
    <g id="ytick_6">
     <g id="line2d_16">
      <g>
       <use xlink:href="#m8ef31426da" x="59.690625" y="94.08185" style="stroke: #000000; stroke-width: 0.8"/>
      </g>
     </g>
     <g id="text_17">
      <!-- 50000 -->
      <g transform="translate(20.878125 97.881069)scale(0.1 -0.1)">
       <use xlink:href="#DejaVuSans-35"/>
       <use xlink:href="#DejaVuSans-30" x="63.623047"/>
       <use xlink:href="#DejaVuSans-30" x="127.246094"/>
       <use xlink:href="#DejaVuSans-30" x="190.869141"/>
       <use xlink:href="#DejaVuSans-30" x="254.492188"/>
      </g>
     </g>
    </g>
    <g id="ytick_7">
     <g id="line2d_17">
      <g>
       <use xlink:href="#m8ef31426da" x="59.690625" y="64.986533" style="stroke: #000000; stroke-width: 0.8"/>
      </g>
     </g>
     <g id="text_18">
      <!-- 60000 -->
      <g transform="translate(20.878125 68.785751)scale(0.1 -0.1)">
       <defs>
        <path id="DejaVuSans-36" d="M 2113 2584 
Q 1688 2584 1439 2293 
Q 1191 2003 1191 1497 
Q 1191 994 1439 701 
Q 1688 409 2113 409 
Q 2538 409 2786 701 
Q 3034 994 3034 1497 
Q 3034 2003 2786 2293 
Q 2538 2584 2113 2584 
z
M 3366 4563 
L 3366 3988 
Q 3128 4100 2886 4159 
Q 2644 4219 2406 4219 
Q 1781 4219 1451 3797 
Q 1122 3375 1075 2522 
Q 1259 2794 1537 2939 
Q 1816 3084 2150 3084 
Q 2853 3084 3261 2657 
Q 3669 2231 3669 1497 
Q 3669 778 3244 343 
Q 2819 -91 2113 -91 
Q 1303 -91 875 529 
Q 447 1150 447 2328 
Q 447 3434 972 4092 
Q 1497 4750 2381 4750 
Q 2619 4750 2861 4703 
Q 3103 4656 3366 4563 
z
" transform="scale(0.015625)"/>
       </defs>
       <use xlink:href="#DejaVuSans-36"/>
       <use xlink:href="#DejaVuSans-30" x="63.623047"/>
       <use xlink:href="#DejaVuSans-30" x="127.246094"/>
       <use xlink:href="#DejaVuSans-30" x="190.869141"/>
       <use xlink:href="#DejaVuSans-30" x="254.492188"/>
      </g>
     </g>
    </g>
    <g id="ytick_8">
     <g id="line2d_18">
      <g>
       <use xlink:href="#m8ef31426da" x="59.690625" y="35.891215" style="stroke: #000000; stroke-width: 0.8"/>
      </g>
     </g>
     <g id="text_19">
      <!-- 70000 -->
      <g transform="translate(20.878125 39.690434)scale(0.1 -0.1)">
       <use xlink:href="#DejaVuSans-37"/>
       <use xlink:href="#DejaVuSans-30" x="63.623047"/>
       <use xlink:href="#DejaVuSans-30" x="127.246094"/>
       <use xlink:href="#DejaVuSans-30" x="190.869141"/>
       <use xlink:href="#DejaVuSans-30" x="254.492188"/>
      </g>
     </g>
    </g>
    <g id="text_20">
     <!-- Sequence count -->
     <g transform="translate(14.798438 169.038594)rotate(-90)scale(0.1 -0.1)">
      <defs>
       <path id="DejaVuSans-53" d="M 3425 4513 
L 3425 3897 
Q 3066 4069 2747 4153 
Q 2428 4238 2131 4238 
Q 1616 4238 1336 4038 
Q 1056 3838 1056 3469 
Q 1056 3159 1242 3001 
Q 1428 2844 1947 2747 
L 2328 2669 
Q 3034 2534 3370 2195 
Q 3706 1856 3706 1288 
Q 3706 609 3251 259 
Q 2797 -91 1919 -91 
Q 1588 -91 1214 -16 
Q 841 59 441 206 
L 441 856 
Q 825 641 1194 531 
Q 1563 422 1919 422 
Q 2459 422 2753 634 
Q 3047 847 3047 1241 
Q 3047 1584 2836 1778 
Q 2625 1972 2144 2069 
L 1759 2144 
Q 1053 2284 737 2584 
Q 422 2884 422 3419 
Q 422 4038 858 4394 
Q 1294 4750 2059 4750 
Q 2388 4750 2728 4690 
Q 3069 4631 3425 4513 
z
" transform="scale(0.015625)"/>
       <path id="DejaVuSans-71" d="M 947 1747 
Q 947 1113 1208 752 
Q 1469 391 1925 391 
Q 2381 391 2643 752 
Q 2906 1113 2906 1747 
Q 2906 2381 2643 2742 
Q 2381 3103 1925 3103 
Q 1469 3103 1208 2742 
Q 947 2381 947 1747 
z
M 2906 525 
Q 2725 213 2448 61 
Q 2172 -91 1784 -91 
Q 1150 -91 751 415 
Q 353 922 353 1747 
Q 353 2572 751 3078 
Q 1150 3584 1784 3584 
Q 2172 3584 2448 3432 
Q 2725 3281 2906 2969 
L 2906 3500 
L 3481 3500 
L 3481 -1331 
L 2906 -1331 
L 2906 525 
z
" transform="scale(0.015625)"/>
       <path id="DejaVuSans-75" d="M 544 1381 
L 544 3500 
L 1119 3500 
L 1119 1403 
Q 1119 906 1312 657 
Q 1506 409 1894 409 
Q 2359 409 2629 706 
Q 2900 1003 2900 1516 
L 2900 3500 
L 3475 3500 
L 3475 0 
L 2900 0 
L 2900 538 
Q 2691 219 2414 64 
Q 2138 -91 1772 -91 
Q 1169 -91 856 284 
Q 544 659 544 1381 
z
M 1991 3584 
L 1991 3584 
z
" transform="scale(0.015625)"/>
       <path id="DejaVuSans-6e" d="M 3513 2113 
L 3513 0 
L 2938 0 
L 2938 2094 
Q 2938 2591 2744 2837 
Q 2550 3084 2163 3084 
Q 1697 3084 1428 2787 
Q 1159 2491 1159 1978 
L 1159 0 
L 581 0 
L 581 3500 
L 1159 3500 
L 1159 2956 
Q 1366 3272 1645 3428 
Q 1925 3584 2291 3584 
Q 2894 3584 3203 3211 
Q 3513 2838 3513 2113 
z
" transform="scale(0.015625)"/>
       <path id="DejaVuSans-63" d="M 3122 3366 
L 3122 2828 
Q 2878 2963 2633 3030 
Q 2388 3097 2138 3097 
Q 1578 3097 1268 2742 
Q 959 2388 959 1747 
Q 959 1106 1268 751 
Q 1578 397 2138 397 
Q 2388 397 2633 464 
Q 2878 531 3122 666 
L 3122 134 
Q 2881 22 2623 -34 
Q 2366 -91 2075 -91 
Q 1284 -91 818 406 
Q 353 903 353 1747 
Q 353 2603 823 3093 
Q 1294 3584 2113 3584 
Q 2378 3584 2631 3529 
Q 2884 3475 3122 3366 
z
" transform="scale(0.015625)"/>
       <path id="DejaVuSans-20" transform="scale(0.015625)"/>
       <path id="DejaVuSans-6f" d="M 1959 3097 
Q 1497 3097 1228 2736 
Q 959 2375 959 1747 
Q 959 1119 1226 758 
Q 1494 397 1959 397 
Q 2419 397 2687 759 
Q 2956 1122 2956 1747 
Q 2956 2369 2687 2733 
Q 2419 3097 1959 3097 
z
M 1959 3584 
Q 2709 3584 3137 3096 
Q 3566 2609 3566 1747 
Q 3566 888 3137 398 
Q 2709 -91 1959 -91 
Q 1206 -91 779 398 
Q 353 888 353 1747 
Q 353 2609 779 3096 
Q 1206 3584 1959 3584 
z
" transform="scale(0.015625)"/>
      </defs>
      <use xlink:href="#DejaVuSans-53"/>
      <use xlink:href="#DejaVuSans-65" x="63.476562"/>
      <use xlink:href="#DejaVuSans-71" x="125"/>
      <use xlink:href="#DejaVuSans-75" x="188.476562"/>
      <use xlink:href="#DejaVuSans-65" x="251.855469"/>
      <use xlink:href="#DejaVuSans-6e" x="313.378906"/>
      <use xlink:href="#DejaVuSans-63" x="376.757812"/>
      <use xlink:href="#DejaVuSans-65" x="431.738281"/>
      <use xlink:href="#DejaVuSans-20" x="493.261719"/>
      <use xlink:href="#DejaVuSans-63" x="525.048828"/>
      <use xlink:href="#DejaVuSans-6f" x="580.029297"/>
      <use xlink:href="#DejaVuSans-75" x="641.210938"/>
      <use xlink:href="#DejaVuSans-6e" x="704.589844"/>
      <use xlink:href="#DejaVuSans-74" x="767.96875"/>
     </g>
    </g>
   </g>
   <g id="patch_82">
    <path d="M 59.690625 239.558438 
L 59.690625 17.798437 
" style="fill: none; stroke: #000000; stroke-width: 0.8; stroke-linejoin: miter; stroke-linecap: square"/>
   </g>
   <g id="patch_83">
    <path d="M 1175.690625 239.558438 
L 1175.690625 17.798437 
" style="fill: none; stroke: #000000; stroke-width: 0.8; stroke-linejoin: miter; stroke-linecap: square"/>
   </g>
   <g id="patch_84">
    <path d="M 59.690625 239.558438 
L 1175.690625 239.558438 
" style="fill: none; stroke: #000000; stroke-width: 0.8; stroke-linejoin: miter; stroke-linecap: square"/>
   </g>
  </g>
  <g id="axes_2">
   <g id="matplotlib.axis_3">
    <g id="ytick_9">
     <g id="line2d_19">
      <defs>
       <path id="m2b1ae06f22" d="M 0 0 
L 3.5 0 
" style="stroke: #000000; stroke-width: 0.8"/>
      </defs>
      <g>
       <use xlink:href="#m2b1ae06f22" x="1175.690625" y="229.478801" style="stroke: #000000; stroke-width: 0.8"/>
      </g>
     </g>
     <g id="text_21">
      <!-- 0.0 -->
      <g transform="translate(1182.690625 233.27802)scale(0.1 -0.1)">
       <defs>
        <path id="DejaVuSans-2e" d="M 684 794 
L 1344 794 
L 1344 0 
L 684 0 
L 684 794 
z
" transform="scale(0.015625)"/>
       </defs>
       <use xlink:href="#DejaVuSans-30"/>
       <use xlink:href="#DejaVuSans-2e" x="63.623047"/>
       <use xlink:href="#DejaVuSans-30" x="95.410156"/>
      </g>
     </g>
    </g>
    <g id="ytick_10">
     <g id="line2d_20">
      <g>
       <use xlink:href="#m2b1ae06f22" x="1175.690625" y="193.111491" style="stroke: #000000; stroke-width: 0.8"/>
      </g>
     </g>
     <g id="text_22">
      <!-- 0.2 -->
      <g transform="translate(1182.690625 196.91071)scale(0.1 -0.1)">
       <use xlink:href="#DejaVuSans-30"/>
       <use xlink:href="#DejaVuSans-2e" x="63.623047"/>
       <use xlink:href="#DejaVuSans-32" x="95.410156"/>
      </g>
     </g>
    </g>
    <g id="ytick_11">
     <g id="line2d_21">
      <g>
       <use xlink:href="#m2b1ae06f22" x="1175.690625" y="156.744182" style="stroke: #000000; stroke-width: 0.8"/>
      </g>
     </g>
     <g id="text_23">
      <!-- 0.4 -->
      <g transform="translate(1182.690625 160.5434)scale(0.1 -0.1)">
       <use xlink:href="#DejaVuSans-30"/>
       <use xlink:href="#DejaVuSans-2e" x="63.623047"/>
       <use xlink:href="#DejaVuSans-34" x="95.410156"/>
      </g>
     </g>
    </g>
    <g id="ytick_12">
     <g id="line2d_22">
      <g>
       <use xlink:href="#m2b1ae06f22" x="1175.690625" y="120.376872" style="stroke: #000000; stroke-width: 0.8"/>
      </g>
     </g>
     <g id="text_24">
      <!-- 0.6 -->
      <g transform="translate(1182.690625 124.17609)scale(0.1 -0.1)">
       <use xlink:href="#DejaVuSans-30"/>
       <use xlink:href="#DejaVuSans-2e" x="63.623047"/>
       <use xlink:href="#DejaVuSans-36" x="95.410156"/>
      </g>
     </g>
    </g>
    <g id="ytick_13">
     <g id="line2d_23">
      <g>
       <use xlink:href="#m2b1ae06f22" x="1175.690625" y="84.009562" style="stroke: #000000; stroke-width: 0.8"/>
      </g>
     </g>
     <g id="text_25">
      <!-- 0.8 -->
      <g transform="translate(1182.690625 87.808781)scale(0.1 -0.1)">
       <defs>
        <path id="DejaVuSans-38" d="M 2034 2216 
Q 1584 2216 1326 1975 
Q 1069 1734 1069 1313 
Q 1069 891 1326 650 
Q 1584 409 2034 409 
Q 2484 409 2743 651 
Q 3003 894 3003 1313 
Q 3003 1734 2745 1975 
Q 2488 2216 2034 2216 
z
M 1403 2484 
Q 997 2584 770 2862 
Q 544 3141 544 3541 
Q 544 4100 942 4425 
Q 1341 4750 2034 4750 
Q 2731 4750 3128 4425 
Q 3525 4100 3525 3541 
Q 3525 3141 3298 2862 
Q 3072 2584 2669 2484 
Q 3125 2378 3379 2068 
Q 3634 1759 3634 1313 
Q 3634 634 3220 271 
Q 2806 -91 2034 -91 
Q 1263 -91 848 271 
Q 434 634 434 1313 
Q 434 1759 690 2068 
Q 947 2378 1403 2484 
z
M 1172 3481 
Q 1172 3119 1398 2916 
Q 1625 2713 2034 2713 
Q 2441 2713 2670 2916 
Q 2900 3119 2900 3481 
Q 2900 3844 2670 4047 
Q 2441 4250 2034 4250 
Q 1625 4250 1398 4047 
Q 1172 3844 1172 3481 
z
" transform="scale(0.015625)"/>
       </defs>
       <use xlink:href="#DejaVuSans-30"/>
       <use xlink:href="#DejaVuSans-2e" x="63.623047"/>
       <use xlink:href="#DejaVuSans-38" x="95.410156"/>
      </g>
     </g>
    </g>
    <g id="ytick_14">
     <g id="line2d_24">
      <g>
       <use xlink:href="#m2b1ae06f22" x="1175.690625" y="47.642252" style="stroke: #000000; stroke-width: 0.8"/>
      </g>
     </g>
     <g id="text_26">
      <!-- 1.0 -->
      <g transform="translate(1182.690625 51.441471)scale(0.1 -0.1)">
       <use xlink:href="#DejaVuSans-31"/>
       <use xlink:href="#DejaVuSans-2e" x="63.623047"/>
       <use xlink:href="#DejaVuSans-30" x="95.410156"/>
      </g>
     </g>
    </g>
    <g id="text_27">
     <!-- Total -->
     <g transform="translate(1210.192188 140.355)rotate(-90)scale(0.1 -0.1)">
      <defs>
       <path id="DejaVuSans-54" d="M -19 4666 
L 3928 4666 
L 3928 4134 
L 2272 4134 
L 2272 0 
L 1638 0 
L 1638 4134 
L -19 4134 
L -19 4666 
z
" transform="scale(0.015625)"/>
       <path id="DejaVuSans-6c" d="M 603 4863 
L 1178 4863 
L 1178 0 
L 603 0 
L 603 4863 
z
" transform="scale(0.015625)"/>
      </defs>
      <use xlink:href="#DejaVuSans-54"/>
      <use xlink:href="#DejaVuSans-6f" x="44.083984"/>
      <use xlink:href="#DejaVuSans-74" x="105.265625"/>
      <use xlink:href="#DejaVuSans-61" x="144.474609"/>
      <use xlink:href="#DejaVuSans-6c" x="205.753906"/>
     </g>
    </g>
    <g id="text_28">
     <!-- 1e6 -->
     <g transform="translate(1156.8125 14.798437)scale(0.1 -0.1)">
      <use xlink:href="#DejaVuSans-31"/>
      <use xlink:href="#DejaVuSans-65" x="63.623047"/>
      <use xlink:href="#DejaVuSans-36" x="125.146484"/>
     </g>
    </g>
   </g>
   <g id="line2d_25">
    <path d="M 122.08966 229.478438 
L 245.989901 229.378064 
L 269.333425 229.12622 
L 290.881293 228.945111 
L 301.655227 228.470154 
L 307.042194 228.084842 
L 321.407439 226.947636 
L 328.590062 226.463224 
L 330.385718 226.303571 
L 333.977029 225.807885 
L 339.363996 225.135999 
L 353.729241 222.728665 
L 357.320553 221.758203 
L 360.911864 221.019038 
L 362.70752 220.566628 
L 366.298831 219.879104 
L 369.890142 218.831726 
L 377.072765 217.115552 
L 378.868421 216.812795 
L 380.664076 215.91234 
L 389.642355 212.50345 
L 391.43801 212.110501 
L 393.233666 211.35297 
L 398.620633 209.533514 
L 402.211944 208.615421 
L 404.0076 208.167739 
L 405.803256 207.088176 
L 412.985878 204.064961 
L 416.57719 203.013582 
L 418.372845 201.594712 
L 420.168501 200.61734 
L 425.555468 198.164911 
L 429.146779 196.932968 
L 430.942435 195.366265 
L 434.533746 193.280417 
L 436.329402 192.048657 
L 438.125058 191.089105 
L 441.716369 189.81534 
L 443.512025 188.046434 
L 447.103336 185.411077 
L 450.694648 183.229766 
L 454.285959 181.874902 
L 456.081615 179.721412 
L 459.672926 176.586913 
L 463.264237 173.627341 
L 466.855549 171.725877 
L 468.651204 169.088337 
L 470.44686 167.133413 
L 472.242516 165.537433 
L 474.038171 163.789984 
L 475.833827 162.389843 
L 479.425138 160.204713 
L 481.220794 157.307511 
L 484.812105 153.623866 
L 488.403417 150.036231 
L 490.199072 148.904662 
L 491.994728 147.912198 
L 493.790384 145.093186 
L 495.586039 142.969517 
L 499.177351 139.237686 
L 500.973006 137.805541 
L 504.564318 135.665325 
L 506.359973 133.447828 
L 511.74694 127.620331 
L 513.542596 125.773962 
L 515.338252 124.464921 
L 517.133907 123.453546 
L 518.929563 120.50543 
L 520.725219 118.239383 
L 526.112186 112.472801 
L 527.907841 111.265588 
L 529.703497 110.374407 
L 531.499153 107.613582 
L 533.294808 105.515916 
L 538.681775 99.885165 
L 540.477431 98.73214 
L 542.273087 97.84405 
L 544.068742 94.912481 
L 545.864398 92.736443 
L 551.251365 87.078599 
L 553.047021 85.978124 
L 554.842676 85.1064 
L 556.638332 82.206471 
L 560.229644 78.608835 
L 563.820955 75.253223 
L 565.616611 74.246758 
L 567.412266 73.490681 
L 569.207922 70.843141 
L 571.003578 69.149697 
L 572.799233 67.723008 
L 576.390545 65.230756 
L 578.1862 64.361395 
L 579.981856 63.752243 
L 581.777512 61.282539 
L 583.573167 59.818391 
L 585.368823 58.586448 
L 588.960134 56.476053 
L 590.75579 55.868538 
L 592.551446 55.458678 
L 594.347101 53.63213 
L 596.142757 52.449101 
L 597.938413 51.40245 
L 601.529724 49.755556 
L 603.32538 49.27078 
L 605.121035 48.911471 
L 606.916691 47.561153 
L 608.712347 46.684337 
L 612.303658 45.299834 
L 614.099314 44.661224 
L 615.894969 44.231908 
L 617.690625 43.949515 
L 619.486281 42.829039 
L 623.077592 41.500541 
L 626.668903 40.338423 
L 630.260215 39.86783 
L 632.05587 39.17576 
L 635.647182 38.29258 
L 639.238493 37.475771 
L 642.829804 37.084276 
L 648.216771 35.770326 
L 651.808083 35.207723 
L 657.19505 34.539838 
L 660.786361 33.993964 
L 666.173328 33.348081 
L 667.968984 33.256981 
L 675.151606 32.238696 
L 678.742918 31.903753 
L 680.538574 31.82229 
L 685.925541 31.225867 
L 691.312508 30.820735 
L 693.108163 30.762911 
L 700.290786 30.168851 
L 725.429965 28.971639 
L 729.021277 28.885266 
L 730.816932 28.695247 
L 759.547423 28.115734 
L 795.460537 27.966083 
L 888.834631 27.897167 
L 1122.269869 27.878437 
L 1122.269869 27.878437 
" clip-path="url(#pde2447bc47)" style="fill: none; stroke: #696969; stroke-width: 3; stroke-linecap: square"/>
   </g>
   <g id="patch_85">
    <path d="M 59.690625 239.558438 
L 59.690625 17.798437 
" style="fill: none; stroke: #000000; stroke-width: 0.8; stroke-linejoin: miter; stroke-linecap: square"/>
   </g>
   <g id="patch_86">
    <path d="M 1175.690625 239.558438 
L 1175.690625 17.798437 
" style="fill: none; stroke: #000000; stroke-width: 0.8; stroke-linejoin: miter; stroke-linecap: square"/>
   </g>
   <g id="patch_87">
    <path d="M 59.690625 239.558438 
L 1175.690625 239.558438 
" style="fill: none; stroke: #000000; stroke-width: 0.8; stroke-linejoin: miter; stroke-linecap: square"/>
   </g>
  </g>
 </g>
 <defs>
  <clipPath id="pde2447bc47">
   <rect x="59.690625" y="17.798437" width="1116" height="221.76"/>
  </clipPath>
 </defs>
</svg>
