<?xml version="1.0" encoding="utf-8" standalone="no"?>
<!DOCTYPE svg PUBLIC "-//W3C//DTD SVG 1.1//EN"
  "http://www.w3.org/Graphics/SVG/1.1/DTD/svg11.dtd">
<svg xmlns:xlink="http://www.w3.org/1999/xlink" width="1166.98125pt" height="394.599411pt" viewBox="0 0 1166.98125 394.599411" xmlns="http://www.w3.org/2000/svg" version="1.1">
 <metadata>
  <rdf:RDF xmlns:dc="http://purl.org/dc/elements/1.1/" xmlns:cc="http://creativecommons.org/ns#" xmlns:rdf="http://www.w3.org/1999/02/22-rdf-syntax-ns#">
   <cc:Work>
    <dc:type rdf:resource="http://purl.org/dc/dcmitype/StillImage"/>
    <dc:date>2021-12-09T14:37:20.674911</dc:date>
    <dc:format>image/svg+xml</dc:format>
    <dc:creator>
     <cc:Agent>
      <dc:title>Matplotlib v3.5.0, https://matplotlib.org/</dc:title>
     </cc:Agent>
    </dc:creator>
   </cc:Work>
  </rdf:RDF>
 </metadata>
 <defs>
  <style type="text/css">*{stroke-linejoin: round; stroke-linecap: butt}</style>
 </defs>
 <g id="figure_1">
  <g id="patch_1">
   <path d="M 0 394.599411 
L 1166.98125 394.599411 
L 1166.98125 0 
L 0 0 
z
" style="fill: #ffffff"/>
  </g>
  <g id="axes_1">
   <g id="patch_2">
    <path d="M 43.78125 240.008786 
L 1159.78125 240.008786 
L 1159.78125 18.248786 
L 43.78125 18.248786 
z
" style="fill: #ffffff"/>
   </g>
   <g id="patch_3">
    <path d="M 94.508523 240.008786 
L 114.901396 240.008786 
L 114.901396 28.808786 
L 94.508523 28.808786 
z
" clip-path="url(#p85bf5e9e3c)" style="fill: #86b0a6"/>
   </g>
   <g id="patch_4">
    <path d="M 119.999615 240.008786 
L 140.392488 240.008786 
L 140.392488 28.808786 
L 119.999615 28.808786 
z
" clip-path="url(#p85bf5e9e3c)" style="fill: #86b0a6"/>
   </g>
   <g id="patch_5">
    <path d="M 145.490706 240.008786 
L 165.88358 240.008786 
L 165.88358 28.808786 
L 145.490706 28.808786 
z
" clip-path="url(#p85bf5e9e3c)" style="fill: #86b0a6"/>
   </g>
   <g id="patch_6">
    <path d="M 170.981798 240.008786 
L 191.374672 240.008786 
L 191.374672 28.808786 
L 170.981798 28.808786 
z
" clip-path="url(#p85bf5e9e3c)" style="fill: #86b0a6"/>
   </g>
   <g id="patch_7">
    <path d="M 196.47289 240.008786 
L 216.865763 240.008786 
L 216.865763 28.808786 
L 196.47289 28.808786 
z
" clip-path="url(#p85bf5e9e3c)" style="fill: #86b0a6"/>
   </g>
   <g id="patch_8">
    <path d="M 221.963982 240.008786 
L 242.356855 240.008786 
L 242.356855 28.808786 
L 221.963982 28.808786 
z
" clip-path="url(#p85bf5e9e3c)" style="fill: #86b0a6"/>
   </g>
   <g id="patch_9">
    <path d="M 247.455074 240.008786 
L 267.847947 240.008786 
L 267.847947 28.808786 
L 247.455074 28.808786 
z
" clip-path="url(#p85bf5e9e3c)" style="fill: #86b0a6"/>
   </g>
   <g id="patch_10">
    <path d="M 272.946165 240.008786 
L 293.339039 240.008786 
L 293.339039 28.808786 
L 272.946165 28.808786 
z
" clip-path="url(#p85bf5e9e3c)" style="fill: #86b0a6"/>
   </g>
   <g id="patch_11">
    <path d="M 298.437257 240.008786 
L 318.830131 240.008786 
L 318.830131 28.808786 
L 298.437257 28.808786 
z
" clip-path="url(#p85bf5e9e3c)" style="fill: #86b0a6"/>
   </g>
   <g id="patch_12">
    <path d="M 323.928349 240.008786 
L 344.321223 240.008786 
L 344.321223 28.808786 
L 323.928349 28.808786 
z
" clip-path="url(#p85bf5e9e3c)" style="fill: #86b0a6"/>
   </g>
   <g id="patch_13">
    <path d="M 349.419441 240.008786 
L 369.812314 240.008786 
L 369.812314 28.808786 
L 349.419441 28.808786 
z
" clip-path="url(#p85bf5e9e3c)" style="fill: #86b0a6"/>
   </g>
   <g id="patch_14">
    <path d="M 374.910533 240.008786 
L 395.303406 240.008786 
L 395.303406 43.8945 
L 374.910533 43.8945 
z
" clip-path="url(#p85bf5e9e3c)" style="fill: #86b0a6"/>
   </g>
   <g id="patch_15">
    <path d="M 400.401625 240.008786 
L 420.794498 240.008786 
L 420.794498 59.932996 
L 400.401625 59.932996 
z
" clip-path="url(#p85bf5e9e3c)" style="fill: #86b0a6"/>
   </g>
   <g id="patch_16">
    <path d="M 425.892716 240.008786 
L 446.28559 240.008786 
L 446.28559 74.065929 
L 425.892716 74.065929 
z
" clip-path="url(#p85bf5e9e3c)" style="fill: #86b0a6"/>
   </g>
   <g id="patch_17">
    <path d="M 451.383808 240.008786 
L 471.776682 240.008786 
L 471.776682 108.008786 
L 451.383808 108.008786 
z
" clip-path="url(#p85bf5e9e3c)" style="fill: #86b0a6"/>
   </g>
   <g id="patch_18">
    <path d="M 476.8749 240.008786 
L 497.267774 240.008786 
L 497.267774 129.380214 
L 476.8749 129.380214 
z
" clip-path="url(#p85bf5e9e3c)" style="fill: #86b0a6"/>
   </g>
   <g id="patch_19">
    <path d="M 502.365992 240.008786 
L 522.758865 240.008786 
L 522.758865 144.628141 
L 502.365992 144.628141 
z
" clip-path="url(#p85bf5e9e3c)" style="fill: #86b0a6"/>
   </g>
   <g id="patch_20">
    <path d="M 527.857084 240.008786 
L 548.249957 240.008786 
L 548.249957 166.408786 
L 527.857084 166.408786 
z
" clip-path="url(#p85bf5e9e3c)" style="fill: #86b0a6"/>
   </g>
   <g id="patch_21">
    <path d="M 553.348176 240.008786 
L 573.741049 240.008786 
L 573.741049 187.208786 
L 553.348176 187.208786 
z
" clip-path="url(#p85bf5e9e3c)" style="fill: #86b0a6"/>
   </g>
   <g id="patch_22">
    <path d="M 578.839267 240.008786 
L 599.232141 240.008786 
L 599.232141 194.751643 
L 578.839267 194.751643 
z
" clip-path="url(#p85bf5e9e3c)" style="fill: #86b0a6"/>
   </g>
   <g id="patch_23">
    <path d="M 604.330359 240.008786 
L 624.723233 240.008786 
L 624.723233 196.312234 
L 604.330359 196.312234 
z
" clip-path="url(#p85bf5e9e3c)" style="fill: #86b0a6"/>
   </g>
   <g id="patch_24">
    <path d="M 629.821451 240.008786 
L 650.214324 240.008786 
L 650.214324 211.468245 
L 629.821451 211.468245 
z
" clip-path="url(#p85bf5e9e3c)" style="fill: #86b0a6"/>
   </g>
   <g id="patch_25">
    <path d="M 655.312543 240.008786 
L 675.705416 240.008786 
L 675.705416 220.808786 
L 655.312543 220.808786 
z
" clip-path="url(#p85bf5e9e3c)" style="fill: #86b0a6"/>
   </g>
   <g id="patch_26">
    <path d="M 680.803635 240.008786 
L 701.196508 240.008786 
L 701.196508 223.174003 
L 680.803635 223.174003 
z
" clip-path="url(#p85bf5e9e3c)" style="fill: #86b0a6"/>
   </g>
   <g id="patch_27">
    <path d="M 706.294726 240.008786 
L 726.6876 240.008786 
L 726.6876 229.951643 
L 706.294726 229.951643 
z
" clip-path="url(#p85bf5e9e3c)" style="fill: #86b0a6"/>
   </g>
   <g id="patch_28">
    <path d="M 731.785818 240.008786 
L 752.178692 240.008786 
L 752.178692 230.385764 
L 731.785818 230.385764 
z
" clip-path="url(#p85bf5e9e3c)" style="fill: #86b0a6"/>
   </g>
   <g id="patch_29">
    <path d="M 757.27691 240.008786 
L 777.669784 240.008786 
L 777.669784 231.208786 
L 757.27691 231.208786 
z
" clip-path="url(#p85bf5e9e3c)" style="fill: #86b0a6"/>
   </g>
   <g id="patch_30">
    <path d="M 782.768002 240.008786 
L 803.160875 240.008786 
L 803.160875 233.510324 
L 782.768002 233.510324 
z
" clip-path="url(#p85bf5e9e3c)" style="fill: #86b0a6"/>
   </g>
   <g id="patch_31">
    <path d="M 808.259094 240.008786 
L 828.651967 240.008786 
L 828.651967 234.593401 
L 808.259094 234.593401 
z
" clip-path="url(#p85bf5e9e3c)" style="fill: #86b0a6"/>
   </g>
   <g id="patch_32">
    <path d="M 833.750186 240.008786 
L 854.143059 240.008786 
L 854.143059 236.237357 
L 833.750186 236.237357 
z
" clip-path="url(#p85bf5e9e3c)" style="fill: #86b0a6"/>
   </g>
   <g id="patch_33">
    <path d="M 859.241277 240.008786 
L 879.634151 240.008786 
L 879.634151 236.602334 
L 859.241277 236.602334 
z
" clip-path="url(#p85bf5e9e3c)" style="fill: #86b0a6"/>
   </g>
   <g id="patch_34">
    <path d="M 884.732369 240.008786 
L 905.125243 240.008786 
L 905.125243 237.000851 
L 884.732369 237.000851 
z
" clip-path="url(#p85bf5e9e3c)" style="fill: #86b0a6"/>
   </g>
   <g id="patch_35">
    <path d="M 910.223461 240.008786 
L 930.616335 240.008786 
L 930.616335 237.906131 
L 910.223461 237.906131 
z
" clip-path="url(#p85bf5e9e3c)" style="fill: #86b0a6"/>
   </g>
   <g id="patch_36">
    <path d="M 935.714553 240.008786 
L 956.107426 240.008786 
L 956.107426 237.93036 
L 935.714553 237.93036 
z
" clip-path="url(#p85bf5e9e3c)" style="fill: #86b0a6"/>
   </g>
   <g id="patch_37">
    <path d="M 961.205645 240.008786 
L 981.598518 240.008786 
L 981.598518 238.485251 
L 961.205645 238.485251 
z
" clip-path="url(#p85bf5e9e3c)" style="fill: #86b0a6"/>
   </g>
   <g id="patch_38">
    <path d="M 986.696737 240.008786 
L 1007.08961 240.008786 
L 1007.08961 238.538034 
L 986.696737 238.538034 
z
" clip-path="url(#p85bf5e9e3c)" style="fill: #86b0a6"/>
   </g>
   <g id="patch_39">
    <path d="M 1012.187828 240.008786 
L 1032.580702 240.008786 
L 1032.580702 238.99538 
L 1012.187828 238.99538 
z
" clip-path="url(#p85bf5e9e3c)" style="fill: #86b0a6"/>
   </g>
   <g id="patch_40">
    <path d="M 1037.67892 240.008786 
L 1058.071794 240.008786 
L 1058.071794 239.056362 
L 1037.67892 239.056362 
z
" clip-path="url(#p85bf5e9e3c)" style="fill: #86b0a6"/>
   </g>
   <g id="patch_41">
    <path d="M 1063.170012 240.008786 
L 1083.562885 240.008786 
L 1083.562885 239.291998 
L 1063.170012 239.291998 
z
" clip-path="url(#p85bf5e9e3c)" style="fill: #86b0a6"/>
   </g>
   <g id="patch_42">
    <path d="M 1088.661104 240.008786 
L 1109.053977 240.008786 
L 1109.053977 239.935088 
L 1088.661104 239.935088 
z
" clip-path="url(#p85bf5e9e3c)" style="fill: #86b0a6"/>
   </g>
   <g id="matplotlib.axis_1">
    <g id="xtick_1">
     <g id="line2d_1">
      <defs>
       <path id="mc50baffa48" d="M 0 0 
L 0 3.5 
" style="stroke: #000000; stroke-width: 0.8"/>
      </defs>
      <g>
       <use xlink:href="#mc50baffa48" x="104.704959" y="240.008786" style="stroke: #000000; stroke-width: 0.8"/>
      </g>
     </g>
     <g id="text_1">
      <!-- Singapore -->
      <g transform="translate(107.464334 297.455661)rotate(-90)scale(0.1 -0.1)">
       <defs>
        <path id="DejaVuSans-53" d="M 3425 4513 
L 3425 3897 
Q 3066 4069 2747 4153 
Q 2428 4238 2131 4238 
Q 1616 4238 1336 4038 
Q 1056 3838 1056 3469 
Q 1056 3159 1242 3001 
Q 1428 2844 1947 2747 
L 2328 2669 
Q 3034 2534 3370 2195 
Q 3706 1856 3706 1288 
Q 3706 609 3251 259 
Q 2797 -91 1919 -91 
Q 1588 -91 1214 -16 
Q 841 59 441 206 
L 441 856 
Q 825 641 1194 531 
Q 1563 422 1919 422 
Q 2459 422 2753 634 
Q 3047 847 3047 1241 
Q 3047 1584 2836 1778 
Q 2625 1972 2144 2069 
L 1759 2144 
Q 1053 2284 737 2584 
Q 422 2884 422 3419 
Q 422 4038 858 4394 
Q 1294 4750 2059 4750 
Q 2388 4750 2728 4690 
Q 3069 4631 3425 4513 
z
" transform="scale(0.015625)"/>
        <path id="DejaVuSans-69" d="M 603 3500 
L 1178 3500 
L 1178 0 
L 603 0 
L 603 3500 
z
M 603 4863 
L 1178 4863 
L 1178 4134 
L 603 4134 
L 603 4863 
z
" transform="scale(0.015625)"/>
        <path id="DejaVuSans-6e" d="M 3513 2113 
L 3513 0 
L 2938 0 
L 2938 2094 
Q 2938 2591 2744 2837 
Q 2550 3084 2163 3084 
Q 1697 3084 1428 2787 
Q 1159 2491 1159 1978 
L 1159 0 
L 581 0 
L 581 3500 
L 1159 3500 
L 1159 2956 
Q 1366 3272 1645 3428 
Q 1925 3584 2291 3584 
Q 2894 3584 3203 3211 
Q 3513 2838 3513 2113 
z
" transform="scale(0.015625)"/>
        <path id="DejaVuSans-67" d="M 2906 1791 
Q 2906 2416 2648 2759 
Q 2391 3103 1925 3103 
Q 1463 3103 1205 2759 
Q 947 2416 947 1791 
Q 947 1169 1205 825 
Q 1463 481 1925 481 
Q 2391 481 2648 825 
Q 2906 1169 2906 1791 
z
M 3481 434 
Q 3481 -459 3084 -895 
Q 2688 -1331 1869 -1331 
Q 1566 -1331 1297 -1286 
Q 1028 -1241 775 -1147 
L 775 -588 
Q 1028 -725 1275 -790 
Q 1522 -856 1778 -856 
Q 2344 -856 2625 -561 
Q 2906 -266 2906 331 
L 2906 616 
Q 2728 306 2450 153 
Q 2172 0 1784 0 
Q 1141 0 747 490 
Q 353 981 353 1791 
Q 353 2603 747 3093 
Q 1141 3584 1784 3584 
Q 2172 3584 2450 3431 
Q 2728 3278 2906 2969 
L 2906 3500 
L 3481 3500 
L 3481 434 
z
" transform="scale(0.015625)"/>
        <path id="DejaVuSans-61" d="M 2194 1759 
Q 1497 1759 1228 1600 
Q 959 1441 959 1056 
Q 959 750 1161 570 
Q 1363 391 1709 391 
Q 2188 391 2477 730 
Q 2766 1069 2766 1631 
L 2766 1759 
L 2194 1759 
z
M 3341 1997 
L 3341 0 
L 2766 0 
L 2766 531 
Q 2569 213 2275 61 
Q 1981 -91 1556 -91 
Q 1019 -91 701 211 
Q 384 513 384 1019 
Q 384 1609 779 1909 
Q 1175 2209 1959 2209 
L 2766 2209 
L 2766 2266 
Q 2766 2663 2505 2880 
Q 2244 3097 1772 3097 
Q 1472 3097 1187 3025 
Q 903 2953 641 2809 
L 641 3341 
Q 956 3463 1253 3523 
Q 1550 3584 1831 3584 
Q 2591 3584 2966 3190 
Q 3341 2797 3341 1997 
z
" transform="scale(0.015625)"/>
        <path id="DejaVuSans-70" d="M 1159 525 
L 1159 -1331 
L 581 -1331 
L 581 3500 
L 1159 3500 
L 1159 2969 
Q 1341 3281 1617 3432 
Q 1894 3584 2278 3584 
Q 2916 3584 3314 3078 
Q 3713 2572 3713 1747 
Q 3713 922 3314 415 
Q 2916 -91 2278 -91 
Q 1894 -91 1617 61 
Q 1341 213 1159 525 
z
M 3116 1747 
Q 3116 2381 2855 2742 
Q 2594 3103 2138 3103 
Q 1681 3103 1420 2742 
Q 1159 2381 1159 1747 
Q 1159 1113 1420 752 
Q 1681 391 2138 391 
Q 2594 391 2855 752 
Q 3116 1113 3116 1747 
z
" transform="scale(0.015625)"/>
        <path id="DejaVuSans-6f" d="M 1959 3097 
Q 1497 3097 1228 2736 
Q 959 2375 959 1747 
Q 959 1119 1226 758 
Q 1494 397 1959 397 
Q 2419 397 2687 759 
Q 2956 1122 2956 1747 
Q 2956 2369 2687 2733 
Q 2419 3097 1959 3097 
z
M 1959 3584 
Q 2709 3584 3137 3096 
Q 3566 2609 3566 1747 
Q 3566 888 3137 398 
Q 2709 -91 1959 -91 
Q 1206 -91 779 398 
Q 353 888 353 1747 
Q 353 2609 779 3096 
Q 1206 3584 1959 3584 
z
" transform="scale(0.015625)"/>
        <path id="DejaVuSans-72" d="M 2631 2963 
Q 2534 3019 2420 3045 
Q 2306 3072 2169 3072 
Q 1681 3072 1420 2755 
Q 1159 2438 1159 1844 
L 1159 0 
L 581 0 
L 581 3500 
L 1159 3500 
L 1159 2956 
Q 1341 3275 1631 3429 
Q 1922 3584 2338 3584 
Q 2397 3584 2469 3576 
Q 2541 3569 2628 3553 
L 2631 2963 
z
" transform="scale(0.015625)"/>
        <path id="DejaVuSans-65" d="M 3597 1894 
L 3597 1613 
L 953 1613 
Q 991 1019 1311 708 
Q 1631 397 2203 397 
Q 2534 397 2845 478 
Q 3156 559 3463 722 
L 3463 178 
Q 3153 47 2828 -22 
Q 2503 -91 2169 -91 
Q 1331 -91 842 396 
Q 353 884 353 1716 
Q 353 2575 817 3079 
Q 1281 3584 2069 3584 
Q 2775 3584 3186 3129 
Q 3597 2675 3597 1894 
z
M 3022 2063 
Q 3016 2534 2758 2815 
Q 2500 3097 2075 3097 
Q 1594 3097 1305 2825 
Q 1016 2553 972 2059 
L 3022 2063 
z
" transform="scale(0.015625)"/>
       </defs>
       <use xlink:href="#DejaVuSans-53"/>
       <use xlink:href="#DejaVuSans-69" x="63.476562"/>
       <use xlink:href="#DejaVuSans-6e" x="91.259766"/>
       <use xlink:href="#DejaVuSans-67" x="154.638672"/>
       <use xlink:href="#DejaVuSans-61" x="218.115234"/>
       <use xlink:href="#DejaVuSans-70" x="279.394531"/>
       <use xlink:href="#DejaVuSans-6f" x="342.871094"/>
       <use xlink:href="#DejaVuSans-72" x="404.052734"/>
       <use xlink:href="#DejaVuSans-65" x="442.916016"/>
      </g>
     </g>
    </g>
    <g id="xtick_2">
     <g id="line2d_2">
      <g>
       <use xlink:href="#mc50baffa48" x="130.196051" y="240.008786" style="stroke: #000000; stroke-width: 0.8"/>
      </g>
     </g>
     <g id="text_2">
      <!-- Reunion -->
      <g transform="translate(132.955426 287.569723)rotate(-90)scale(0.1 -0.1)">
       <defs>
        <path id="DejaVuSans-52" d="M 2841 2188 
Q 3044 2119 3236 1894 
Q 3428 1669 3622 1275 
L 4263 0 
L 3584 0 
L 2988 1197 
Q 2756 1666 2539 1819 
Q 2322 1972 1947 1972 
L 1259 1972 
L 1259 0 
L 628 0 
L 628 4666 
L 2053 4666 
Q 2853 4666 3247 4331 
Q 3641 3997 3641 3322 
Q 3641 2881 3436 2590 
Q 3231 2300 2841 2188 
z
M 1259 4147 
L 1259 2491 
L 2053 2491 
Q 2509 2491 2742 2702 
Q 2975 2913 2975 3322 
Q 2975 3731 2742 3939 
Q 2509 4147 2053 4147 
L 1259 4147 
z
" transform="scale(0.015625)"/>
        <path id="DejaVuSans-75" d="M 544 1381 
L 544 3500 
L 1119 3500 
L 1119 1403 
Q 1119 906 1312 657 
Q 1506 409 1894 409 
Q 2359 409 2629 706 
Q 2900 1003 2900 1516 
L 2900 3500 
L 3475 3500 
L 3475 0 
L 2900 0 
L 2900 538 
Q 2691 219 2414 64 
Q 2138 -91 1772 -91 
Q 1169 -91 856 284 
Q 544 659 544 1381 
z
M 1991 3584 
L 1991 3584 
z
" transform="scale(0.015625)"/>
       </defs>
       <use xlink:href="#DejaVuSans-52"/>
       <use xlink:href="#DejaVuSans-65" x="64.982422"/>
       <use xlink:href="#DejaVuSans-75" x="126.505859"/>
       <use xlink:href="#DejaVuSans-6e" x="189.884766"/>
       <use xlink:href="#DejaVuSans-69" x="253.263672"/>
       <use xlink:href="#DejaVuSans-6f" x="281.046875"/>
       <use xlink:href="#DejaVuSans-6e" x="342.228516"/>
      </g>
     </g>
    </g>
    <g id="xtick_3">
     <g id="line2d_3">
      <g>
       <use xlink:href="#mc50baffa48" x="155.687143" y="240.008786" style="stroke: #000000; stroke-width: 0.8"/>
      </g>
     </g>
     <g id="text_3">
      <!-- Russia -->
      <g transform="translate(158.446518 279.169723)rotate(-90)scale(0.1 -0.1)">
       <defs>
        <path id="DejaVuSans-73" d="M 2834 3397 
L 2834 2853 
Q 2591 2978 2328 3040 
Q 2066 3103 1784 3103 
Q 1356 3103 1142 2972 
Q 928 2841 928 2578 
Q 928 2378 1081 2264 
Q 1234 2150 1697 2047 
L 1894 2003 
Q 2506 1872 2764 1633 
Q 3022 1394 3022 966 
Q 3022 478 2636 193 
Q 2250 -91 1575 -91 
Q 1294 -91 989 -36 
Q 684 19 347 128 
L 347 722 
Q 666 556 975 473 
Q 1284 391 1588 391 
Q 1994 391 2212 530 
Q 2431 669 2431 922 
Q 2431 1156 2273 1281 
Q 2116 1406 1581 1522 
L 1381 1569 
Q 847 1681 609 1914 
Q 372 2147 372 2553 
Q 372 3047 722 3315 
Q 1072 3584 1716 3584 
Q 2034 3584 2315 3537 
Q 2597 3491 2834 3397 
z
" transform="scale(0.015625)"/>
       </defs>
       <use xlink:href="#DejaVuSans-52"/>
       <use xlink:href="#DejaVuSans-75" x="64.982422"/>
       <use xlink:href="#DejaVuSans-73" x="128.361328"/>
       <use xlink:href="#DejaVuSans-73" x="180.460938"/>
       <use xlink:href="#DejaVuSans-69" x="232.560547"/>
       <use xlink:href="#DejaVuSans-61" x="260.34375"/>
      </g>
     </g>
    </g>
    <g id="xtick_4">
     <g id="line2d_4">
      <g>
       <use xlink:href="#mc50baffa48" x="181.178235" y="240.008786" style="stroke: #000000; stroke-width: 0.8"/>
      </g>
     </g>
     <g id="text_4">
      <!-- South Korea -->
      <g transform="translate(183.93761 307.593161)rotate(-90)scale(0.1 -0.1)">
       <defs>
        <path id="DejaVuSans-74" d="M 1172 4494 
L 1172 3500 
L 2356 3500 
L 2356 3053 
L 1172 3053 
L 1172 1153 
Q 1172 725 1289 603 
Q 1406 481 1766 481 
L 2356 481 
L 2356 0 
L 1766 0 
Q 1100 0 847 248 
Q 594 497 594 1153 
L 594 3053 
L 172 3053 
L 172 3500 
L 594 3500 
L 594 4494 
L 1172 4494 
z
" transform="scale(0.015625)"/>
        <path id="DejaVuSans-68" d="M 3513 2113 
L 3513 0 
L 2938 0 
L 2938 2094 
Q 2938 2591 2744 2837 
Q 2550 3084 2163 3084 
Q 1697 3084 1428 2787 
Q 1159 2491 1159 1978 
L 1159 0 
L 581 0 
L 581 4863 
L 1159 4863 
L 1159 2956 
Q 1366 3272 1645 3428 
Q 1925 3584 2291 3584 
Q 2894 3584 3203 3211 
Q 3513 2838 3513 2113 
z
" transform="scale(0.015625)"/>
        <path id="DejaVuSans-20" transform="scale(0.015625)"/>
        <path id="DejaVuSans-4b" d="M 628 4666 
L 1259 4666 
L 1259 2694 
L 3353 4666 
L 4166 4666 
L 1850 2491 
L 4331 0 
L 3500 0 
L 1259 2247 
L 1259 0 
L 628 0 
L 628 4666 
z
" transform="scale(0.015625)"/>
       </defs>
       <use xlink:href="#DejaVuSans-53"/>
       <use xlink:href="#DejaVuSans-6f" x="63.476562"/>
       <use xlink:href="#DejaVuSans-75" x="124.658203"/>
       <use xlink:href="#DejaVuSans-74" x="188.037109"/>
       <use xlink:href="#DejaVuSans-68" x="227.246094"/>
       <use xlink:href="#DejaVuSans-20" x="290.625"/>
       <use xlink:href="#DejaVuSans-4b" x="322.412109"/>
       <use xlink:href="#DejaVuSans-6f" x="382.988281"/>
       <use xlink:href="#DejaVuSans-72" x="444.169922"/>
       <use xlink:href="#DejaVuSans-65" x="483.033203"/>
       <use xlink:href="#DejaVuSans-61" x="544.556641"/>
      </g>
     </g>
    </g>
    <g id="xtick_5">
     <g id="line2d_5">
      <g>
       <use xlink:href="#mc50baffa48" x="206.669327" y="240.008786" style="stroke: #000000; stroke-width: 0.8"/>
      </g>
     </g>
     <g id="text_5">
      <!-- Brazil -->
      <g transform="translate(209.428702 274.913473)rotate(-90)scale(0.1 -0.1)">
       <defs>
        <path id="DejaVuSans-42" d="M 1259 2228 
L 1259 519 
L 2272 519 
Q 2781 519 3026 730 
Q 3272 941 3272 1375 
Q 3272 1813 3026 2020 
Q 2781 2228 2272 2228 
L 1259 2228 
z
M 1259 4147 
L 1259 2741 
L 2194 2741 
Q 2656 2741 2882 2914 
Q 3109 3088 3109 3444 
Q 3109 3797 2882 3972 
Q 2656 4147 2194 4147 
L 1259 4147 
z
M 628 4666 
L 2241 4666 
Q 2963 4666 3353 4366 
Q 3744 4066 3744 3513 
Q 3744 3084 3544 2831 
Q 3344 2578 2956 2516 
Q 3422 2416 3680 2098 
Q 3938 1781 3938 1306 
Q 3938 681 3513 340 
Q 3088 0 2303 0 
L 628 0 
L 628 4666 
z
" transform="scale(0.015625)"/>
        <path id="DejaVuSans-7a" d="M 353 3500 
L 3084 3500 
L 3084 2975 
L 922 459 
L 3084 459 
L 3084 0 
L 275 0 
L 275 525 
L 2438 3041 
L 353 3041 
L 353 3500 
z
" transform="scale(0.015625)"/>
        <path id="DejaVuSans-6c" d="M 603 4863 
L 1178 4863 
L 1178 0 
L 603 0 
L 603 4863 
z
" transform="scale(0.015625)"/>
       </defs>
       <use xlink:href="#DejaVuSans-42"/>
       <use xlink:href="#DejaVuSans-72" x="68.603516"/>
       <use xlink:href="#DejaVuSans-61" x="109.716797"/>
       <use xlink:href="#DejaVuSans-7a" x="170.996094"/>
       <use xlink:href="#DejaVuSans-69" x="223.486328"/>
       <use xlink:href="#DejaVuSans-6c" x="251.269531"/>
      </g>
     </g>
    </g>
    <g id="xtick_6">
     <g id="line2d_6">
      <g>
       <use xlink:href="#mc50baffa48" x="232.160419" y="240.008786" style="stroke: #000000; stroke-width: 0.8"/>
      </g>
     </g>
     <g id="text_6">
      <!-- Romania -->
      <g transform="translate(234.919794 290.738473)rotate(-90)scale(0.1 -0.1)">
       <defs>
        <path id="DejaVuSans-6d" d="M 3328 2828 
Q 3544 3216 3844 3400 
Q 4144 3584 4550 3584 
Q 5097 3584 5394 3201 
Q 5691 2819 5691 2113 
L 5691 0 
L 5113 0 
L 5113 2094 
Q 5113 2597 4934 2840 
Q 4756 3084 4391 3084 
Q 3944 3084 3684 2787 
Q 3425 2491 3425 1978 
L 3425 0 
L 2847 0 
L 2847 2094 
Q 2847 2600 2669 2842 
Q 2491 3084 2119 3084 
Q 1678 3084 1418 2786 
Q 1159 2488 1159 1978 
L 1159 0 
L 581 0 
L 581 3500 
L 1159 3500 
L 1159 2956 
Q 1356 3278 1631 3431 
Q 1906 3584 2284 3584 
Q 2666 3584 2933 3390 
Q 3200 3197 3328 2828 
z
" transform="scale(0.015625)"/>
       </defs>
       <use xlink:href="#DejaVuSans-52"/>
       <use xlink:href="#DejaVuSans-6f" x="64.982422"/>
       <use xlink:href="#DejaVuSans-6d" x="126.164062"/>
       <use xlink:href="#DejaVuSans-61" x="223.576172"/>
       <use xlink:href="#DejaVuSans-6e" x="284.855469"/>
       <use xlink:href="#DejaVuSans-69" x="348.234375"/>
       <use xlink:href="#DejaVuSans-61" x="376.017578"/>
      </g>
     </g>
    </g>
    <g id="xtick_7">
     <g id="line2d_7">
      <g>
       <use xlink:href="#mc50baffa48" x="257.65151" y="240.008786" style="stroke: #000000; stroke-width: 0.8"/>
      </g>
     </g>
     <g id="text_7">
      <!-- Greece -->
      <g transform="translate(260.410885 282.600973)rotate(-90)scale(0.1 -0.1)">
       <defs>
        <path id="DejaVuSans-47" d="M 3809 666 
L 3809 1919 
L 2778 1919 
L 2778 2438 
L 4434 2438 
L 4434 434 
Q 4069 175 3628 42 
Q 3188 -91 2688 -91 
Q 1594 -91 976 548 
Q 359 1188 359 2328 
Q 359 3472 976 4111 
Q 1594 4750 2688 4750 
Q 3144 4750 3555 4637 
Q 3966 4525 4313 4306 
L 4313 3634 
Q 3963 3931 3569 4081 
Q 3175 4231 2741 4231 
Q 1884 4231 1454 3753 
Q 1025 3275 1025 2328 
Q 1025 1384 1454 906 
Q 1884 428 2741 428 
Q 3075 428 3337 486 
Q 3600 544 3809 666 
z
" transform="scale(0.015625)"/>
        <path id="DejaVuSans-63" d="M 3122 3366 
L 3122 2828 
Q 2878 2963 2633 3030 
Q 2388 3097 2138 3097 
Q 1578 3097 1268 2742 
Q 959 2388 959 1747 
Q 959 1106 1268 751 
Q 1578 397 2138 397 
Q 2388 397 2633 464 
Q 2878 531 3122 666 
L 3122 134 
Q 2881 22 2623 -34 
Q 2366 -91 2075 -91 
Q 1284 -91 818 406 
Q 353 903 353 1747 
Q 353 2603 823 3093 
Q 1294 3584 2113 3584 
Q 2378 3584 2631 3529 
Q 2884 3475 3122 3366 
z
" transform="scale(0.015625)"/>
       </defs>
       <use xlink:href="#DejaVuSans-47"/>
       <use xlink:href="#DejaVuSans-72" x="77.490234"/>
       <use xlink:href="#DejaVuSans-65" x="116.353516"/>
       <use xlink:href="#DejaVuSans-65" x="177.876953"/>
       <use xlink:href="#DejaVuSans-63" x="239.400391"/>
       <use xlink:href="#DejaVuSans-65" x="294.380859"/>
      </g>
     </g>
    </g>
    <g id="xtick_8">
     <g id="line2d_8">
      <g>
       <use xlink:href="#mc50baffa48" x="283.142602" y="240.008786" style="stroke: #000000; stroke-width: 0.8"/>
      </g>
     </g>
     <g id="text_8">
      <!-- Thailand -->
      <g transform="translate(285.901977 289.952536)rotate(-90)scale(0.1 -0.1)">
       <defs>
        <path id="DejaVuSans-54" d="M -19 4666 
L 3928 4666 
L 3928 4134 
L 2272 4134 
L 2272 0 
L 1638 0 
L 1638 4134 
L -19 4134 
L -19 4666 
z
" transform="scale(0.015625)"/>
        <path id="DejaVuSans-64" d="M 2906 2969 
L 2906 4863 
L 3481 4863 
L 3481 0 
L 2906 0 
L 2906 525 
Q 2725 213 2448 61 
Q 2172 -91 1784 -91 
Q 1150 -91 751 415 
Q 353 922 353 1747 
Q 353 2572 751 3078 
Q 1150 3584 1784 3584 
Q 2172 3584 2448 3432 
Q 2725 3281 2906 2969 
z
M 947 1747 
Q 947 1113 1208 752 
Q 1469 391 1925 391 
Q 2381 391 2643 752 
Q 2906 1113 2906 1747 
Q 2906 2381 2643 2742 
Q 2381 3103 1925 3103 
Q 1469 3103 1208 2742 
Q 947 2381 947 1747 
z
" transform="scale(0.015625)"/>
       </defs>
       <use xlink:href="#DejaVuSans-54"/>
       <use xlink:href="#DejaVuSans-68" x="61.083984"/>
       <use xlink:href="#DejaVuSans-61" x="124.462891"/>
       <use xlink:href="#DejaVuSans-69" x="185.742188"/>
       <use xlink:href="#DejaVuSans-6c" x="213.525391"/>
       <use xlink:href="#DejaVuSans-61" x="241.308594"/>
       <use xlink:href="#DejaVuSans-6e" x="302.587891"/>
       <use xlink:href="#DejaVuSans-64" x="365.966797"/>
      </g>
     </g>
    </g>
    <g id="xtick_9">
     <g id="line2d_9">
      <g>
       <use xlink:href="#mc50baffa48" x="308.633694" y="240.008786" style="stroke: #000000; stroke-width: 0.8"/>
      </g>
     </g>
     <g id="text_9">
      <!-- Finland -->
      <g transform="translate(311.393069 282.743161)rotate(-90)scale(0.1 -0.1)">
       <defs>
        <path id="DejaVuSans-46" d="M 628 4666 
L 3309 4666 
L 3309 4134 
L 1259 4134 
L 1259 2759 
L 3109 2759 
L 3109 2228 
L 1259 2228 
L 1259 0 
L 628 0 
L 628 4666 
z
" transform="scale(0.015625)"/>
       </defs>
       <use xlink:href="#DejaVuSans-46"/>
       <use xlink:href="#DejaVuSans-69" x="50.269531"/>
       <use xlink:href="#DejaVuSans-6e" x="78.052734"/>
       <use xlink:href="#DejaVuSans-6c" x="141.431641"/>
       <use xlink:href="#DejaVuSans-61" x="169.214844"/>
       <use xlink:href="#DejaVuSans-6e" x="230.494141"/>
       <use xlink:href="#DejaVuSans-64" x="293.873047"/>
      </g>
     </g>
    </g>
    <g id="xtick_10">
     <g id="line2d_10">
      <g>
       <use xlink:href="#mc50baffa48" x="334.124786" y="240.008786" style="stroke: #000000; stroke-width: 0.8"/>
      </g>
     </g>
     <g id="text_10">
      <!-- Croatia -->
      <g transform="translate(336.884161 282.950973)rotate(-90)scale(0.1 -0.1)">
       <defs>
        <path id="DejaVuSans-43" d="M 4122 4306 
L 4122 3641 
Q 3803 3938 3442 4084 
Q 3081 4231 2675 4231 
Q 1875 4231 1450 3742 
Q 1025 3253 1025 2328 
Q 1025 1406 1450 917 
Q 1875 428 2675 428 
Q 3081 428 3442 575 
Q 3803 722 4122 1019 
L 4122 359 
Q 3791 134 3420 21 
Q 3050 -91 2638 -91 
Q 1578 -91 968 557 
Q 359 1206 359 2328 
Q 359 3453 968 4101 
Q 1578 4750 2638 4750 
Q 3056 4750 3426 4639 
Q 3797 4528 4122 4306 
z
" transform="scale(0.015625)"/>
       </defs>
       <use xlink:href="#DejaVuSans-43"/>
       <use xlink:href="#DejaVuSans-72" x="69.824219"/>
       <use xlink:href="#DejaVuSans-6f" x="108.6875"/>
       <use xlink:href="#DejaVuSans-61" x="169.869141"/>
       <use xlink:href="#DejaVuSans-74" x="231.148438"/>
       <use xlink:href="#DejaVuSans-69" x="270.357422"/>
       <use xlink:href="#DejaVuSans-61" x="298.140625"/>
      </g>
     </g>
    </g>
    <g id="xtick_11">
     <g id="line2d_11">
      <g>
       <use xlink:href="#mc50baffa48" x="359.615878" y="240.008786" style="stroke: #000000; stroke-width: 0.8"/>
      </g>
     </g>
     <g id="text_11">
      <!-- Luxembourg -->
      <g transform="translate(362.375253 309.332223)rotate(-90)scale(0.1 -0.1)">
       <defs>
        <path id="DejaVuSans-4c" d="M 628 4666 
L 1259 4666 
L 1259 531 
L 3531 531 
L 3531 0 
L 628 0 
L 628 4666 
z
" transform="scale(0.015625)"/>
        <path id="DejaVuSans-78" d="M 3513 3500 
L 2247 1797 
L 3578 0 
L 2900 0 
L 1881 1375 
L 863 0 
L 184 0 
L 1544 1831 
L 300 3500 
L 978 3500 
L 1906 2253 
L 2834 3500 
L 3513 3500 
z
" transform="scale(0.015625)"/>
        <path id="DejaVuSans-62" d="M 3116 1747 
Q 3116 2381 2855 2742 
Q 2594 3103 2138 3103 
Q 1681 3103 1420 2742 
Q 1159 2381 1159 1747 
Q 1159 1113 1420 752 
Q 1681 391 2138 391 
Q 2594 391 2855 752 
Q 3116 1113 3116 1747 
z
M 1159 2969 
Q 1341 3281 1617 3432 
Q 1894 3584 2278 3584 
Q 2916 3584 3314 3078 
Q 3713 2572 3713 1747 
Q 3713 922 3314 415 
Q 2916 -91 2278 -91 
Q 1894 -91 1617 61 
Q 1341 213 1159 525 
L 1159 0 
L 581 0 
L 581 4863 
L 1159 4863 
L 1159 2969 
z
" transform="scale(0.015625)"/>
       </defs>
       <use xlink:href="#DejaVuSans-4c"/>
       <use xlink:href="#DejaVuSans-75" x="53.962891"/>
       <use xlink:href="#DejaVuSans-78" x="117.341797"/>
       <use xlink:href="#DejaVuSans-65" x="173.396484"/>
       <use xlink:href="#DejaVuSans-6d" x="234.919922"/>
       <use xlink:href="#DejaVuSans-62" x="332.332031"/>
       <use xlink:href="#DejaVuSans-6f" x="395.808594"/>
       <use xlink:href="#DejaVuSans-75" x="456.990234"/>
       <use xlink:href="#DejaVuSans-72" x="520.369141"/>
       <use xlink:href="#DejaVuSans-67" x="559.732422"/>
      </g>
     </g>
    </g>
    <g id="xtick_12">
     <g id="line2d_12">
      <g>
       <use xlink:href="#mc50baffa48" x="385.10697" y="240.008786" style="stroke: #000000; stroke-width: 0.8"/>
      </g>
     </g>
     <g id="text_12">
      <!-- Portugal -->
      <g transform="translate(387.866345 288.418161)rotate(-90)scale(0.1 -0.1)">
       <defs>
        <path id="DejaVuSans-50" d="M 1259 4147 
L 1259 2394 
L 2053 2394 
Q 2494 2394 2734 2622 
Q 2975 2850 2975 3272 
Q 2975 3691 2734 3919 
Q 2494 4147 2053 4147 
L 1259 4147 
z
M 628 4666 
L 2053 4666 
Q 2838 4666 3239 4311 
Q 3641 3956 3641 3272 
Q 3641 2581 3239 2228 
Q 2838 1875 2053 1875 
L 1259 1875 
L 1259 0 
L 628 0 
L 628 4666 
z
" transform="scale(0.015625)"/>
       </defs>
       <use xlink:href="#DejaVuSans-50"/>
       <use xlink:href="#DejaVuSans-6f" x="56.677734"/>
       <use xlink:href="#DejaVuSans-72" x="117.859375"/>
       <use xlink:href="#DejaVuSans-74" x="158.972656"/>
       <use xlink:href="#DejaVuSans-75" x="198.181641"/>
       <use xlink:href="#DejaVuSans-67" x="261.560547"/>
       <use xlink:href="#DejaVuSans-61" x="325.037109"/>
       <use xlink:href="#DejaVuSans-6c" x="386.316406"/>
      </g>
     </g>
    </g>
    <g id="xtick_13">
     <g id="line2d_13">
      <g>
       <use xlink:href="#mc50baffa48" x="410.598061" y="240.008786" style="stroke: #000000; stroke-width: 0.8"/>
      </g>
     </g>
     <g id="text_13">
      <!-- South Africa -->
      <g transform="translate(413.357436 307.763473)rotate(-90)scale(0.1 -0.1)">
       <defs>
        <path id="DejaVuSans-41" d="M 2188 4044 
L 1331 1722 
L 3047 1722 
L 2188 4044 
z
M 1831 4666 
L 2547 4666 
L 4325 0 
L 3669 0 
L 3244 1197 
L 1141 1197 
L 716 0 
L 50 0 
L 1831 4666 
z
" transform="scale(0.015625)"/>
        <path id="DejaVuSans-66" d="M 2375 4863 
L 2375 4384 
L 1825 4384 
Q 1516 4384 1395 4259 
Q 1275 4134 1275 3809 
L 1275 3500 
L 2222 3500 
L 2222 3053 
L 1275 3053 
L 1275 0 
L 697 0 
L 697 3053 
L 147 3053 
L 147 3500 
L 697 3500 
L 697 3744 
Q 697 4328 969 4595 
Q 1241 4863 1831 4863 
L 2375 4863 
z
" transform="scale(0.015625)"/>
       </defs>
       <use xlink:href="#DejaVuSans-53"/>
       <use xlink:href="#DejaVuSans-6f" x="63.476562"/>
       <use xlink:href="#DejaVuSans-75" x="124.658203"/>
       <use xlink:href="#DejaVuSans-74" x="188.037109"/>
       <use xlink:href="#DejaVuSans-68" x="227.246094"/>
       <use xlink:href="#DejaVuSans-20" x="290.625"/>
       <use xlink:href="#DejaVuSans-41" x="322.412109"/>
       <use xlink:href="#DejaVuSans-66" x="387.195312"/>
       <use xlink:href="#DejaVuSans-72" x="422.400391"/>
       <use xlink:href="#DejaVuSans-69" x="463.513672"/>
       <use xlink:href="#DejaVuSans-63" x="491.296875"/>
       <use xlink:href="#DejaVuSans-61" x="546.277344"/>
      </g>
     </g>
    </g>
    <g id="xtick_14">
     <g id="line2d_14">
      <g>
       <use xlink:href="#mc50baffa48" x="436.089153" y="240.008786" style="stroke: #000000; stroke-width: 0.8"/>
      </g>
     </g>
     <g id="text_14">
      <!-- Ghana -->
      <g transform="translate(438.848528 279.688473)rotate(-90)scale(0.1 -0.1)">
       <use xlink:href="#DejaVuSans-47"/>
       <use xlink:href="#DejaVuSans-68" x="77.490234"/>
       <use xlink:href="#DejaVuSans-61" x="140.869141"/>
       <use xlink:href="#DejaVuSans-6e" x="202.148438"/>
       <use xlink:href="#DejaVuSans-61" x="265.527344"/>
      </g>
     </g>
    </g>
    <g id="xtick_15">
     <g id="line2d_15">
      <g>
       <use xlink:href="#mc50baffa48" x="461.580245" y="240.008786" style="stroke: #000000; stroke-width: 0.8"/>
      </g>
     </g>
     <g id="text_15">
      <!-- Austria -->
      <g transform="translate(464.33962 282.333786)rotate(-90)scale(0.1 -0.1)">
       <use xlink:href="#DejaVuSans-41"/>
       <use xlink:href="#DejaVuSans-75" x="68.408203"/>
       <use xlink:href="#DejaVuSans-73" x="131.787109"/>
       <use xlink:href="#DejaVuSans-74" x="183.886719"/>
       <use xlink:href="#DejaVuSans-72" x="223.095703"/>
       <use xlink:href="#DejaVuSans-69" x="264.208984"/>
       <use xlink:href="#DejaVuSans-61" x="291.992188"/>
      </g>
     </g>
    </g>
    <g id="xtick_16">
     <g id="line2d_16">
      <g>
       <use xlink:href="#mc50baffa48" x="487.071337" y="240.008786" style="stroke: #000000; stroke-width: 0.8"/>
      </g>
     </g>
     <g id="text_16">
      <!-- Hong Kong -->
      <g transform="translate(489.830712 301.374411)rotate(-90)scale(0.1 -0.1)">
       <defs>
        <path id="DejaVuSans-48" d="M 628 4666 
L 1259 4666 
L 1259 2753 
L 3553 2753 
L 3553 4666 
L 4184 4666 
L 4184 0 
L 3553 0 
L 3553 2222 
L 1259 2222 
L 1259 0 
L 628 0 
L 628 4666 
z
" transform="scale(0.015625)"/>
       </defs>
       <use xlink:href="#DejaVuSans-48"/>
       <use xlink:href="#DejaVuSans-6f" x="75.195312"/>
       <use xlink:href="#DejaVuSans-6e" x="136.376953"/>
       <use xlink:href="#DejaVuSans-67" x="199.755859"/>
       <use xlink:href="#DejaVuSans-20" x="263.232422"/>
       <use xlink:href="#DejaVuSans-4b" x="295.019531"/>
       <use xlink:href="#DejaVuSans-6f" x="355.595703"/>
       <use xlink:href="#DejaVuSans-6e" x="416.777344"/>
       <use xlink:href="#DejaVuSans-67" x="480.15625"/>
      </g>
     </g>
    </g>
    <g id="xtick_17">
     <g id="line2d_17">
      <g>
       <use xlink:href="#mc50baffa48" x="512.562429" y="240.008786" style="stroke: #000000; stroke-width: 0.8"/>
      </g>
     </g>
     <g id="text_17">
      <!-- Norway -->
      <g transform="translate(515.321804 284.944723)rotate(-90)scale(0.1 -0.1)">
       <defs>
        <path id="DejaVuSans-4e" d="M 628 4666 
L 1478 4666 
L 3547 763 
L 3547 4666 
L 4159 4666 
L 4159 0 
L 3309 0 
L 1241 3903 
L 1241 0 
L 628 0 
L 628 4666 
z
" transform="scale(0.015625)"/>
        <path id="DejaVuSans-77" d="M 269 3500 
L 844 3500 
L 1563 769 
L 2278 3500 
L 2956 3500 
L 3675 769 
L 4391 3500 
L 4966 3500 
L 4050 0 
L 3372 0 
L 2619 2869 
L 1863 0 
L 1184 0 
L 269 3500 
z
" transform="scale(0.015625)"/>
        <path id="DejaVuSans-79" d="M 2059 -325 
Q 1816 -950 1584 -1140 
Q 1353 -1331 966 -1331 
L 506 -1331 
L 506 -850 
L 844 -850 
Q 1081 -850 1212 -737 
Q 1344 -625 1503 -206 
L 1606 56 
L 191 3500 
L 800 3500 
L 1894 763 
L 2988 3500 
L 3597 3500 
L 2059 -325 
z
" transform="scale(0.015625)"/>
       </defs>
       <use xlink:href="#DejaVuSans-4e"/>
       <use xlink:href="#DejaVuSans-6f" x="74.804688"/>
       <use xlink:href="#DejaVuSans-72" x="135.986328"/>
       <use xlink:href="#DejaVuSans-77" x="177.099609"/>
       <use xlink:href="#DejaVuSans-61" x="258.886719"/>
       <use xlink:href="#DejaVuSans-79" x="320.166016"/>
      </g>
     </g>
    </g>
    <g id="xtick_18">
     <g id="line2d_18">
      <g>
       <use xlink:href="#mc50baffa48" x="538.05352" y="240.008786" style="stroke: #000000; stroke-width: 0.8"/>
      </g>
     </g>
     <g id="text_18">
      <!-- Netherlands -->
      <g transform="translate(540.812895 307.966598)rotate(-90)scale(0.1 -0.1)">
       <use xlink:href="#DejaVuSans-4e"/>
       <use xlink:href="#DejaVuSans-65" x="74.804688"/>
       <use xlink:href="#DejaVuSans-74" x="136.328125"/>
       <use xlink:href="#DejaVuSans-68" x="175.537109"/>
       <use xlink:href="#DejaVuSans-65" x="238.916016"/>
       <use xlink:href="#DejaVuSans-72" x="300.439453"/>
       <use xlink:href="#DejaVuSans-6c" x="341.552734"/>
       <use xlink:href="#DejaVuSans-61" x="369.335938"/>
       <use xlink:href="#DejaVuSans-6e" x="430.615234"/>
       <use xlink:href="#DejaVuSans-64" x="493.994141"/>
       <use xlink:href="#DejaVuSans-73" x="557.470703"/>
      </g>
     </g>
    </g>
    <g id="xtick_19">
     <g id="line2d_19">
      <g>
       <use xlink:href="#mc50baffa48" x="563.544612" y="240.008786" style="stroke: #000000; stroke-width: 0.8"/>
      </g>
     </g>
     <g id="text_19">
      <!-- Japan -->
      <g transform="translate(566.303987 274.900973)rotate(-90)scale(0.1 -0.1)">
       <defs>
        <path id="DejaVuSans-4a" d="M 628 4666 
L 1259 4666 
L 1259 325 
Q 1259 -519 939 -900 
Q 619 -1281 -91 -1281 
L -331 -1281 
L -331 -750 
L -134 -750 
Q 284 -750 456 -515 
Q 628 -281 628 325 
L 628 4666 
z
" transform="scale(0.015625)"/>
       </defs>
       <use xlink:href="#DejaVuSans-4a"/>
       <use xlink:href="#DejaVuSans-61" x="29.492188"/>
       <use xlink:href="#DejaVuSans-70" x="90.771484"/>
       <use xlink:href="#DejaVuSans-61" x="154.248047"/>
       <use xlink:href="#DejaVuSans-6e" x="215.527344"/>
      </g>
     </g>
    </g>
    <g id="xtick_20">
     <g id="line2d_20">
      <g>
       <use xlink:href="#mc50baffa48" x="589.035704" y="240.008786" style="stroke: #000000; stroke-width: 0.8"/>
      </g>
     </g>
     <g id="text_20">
      <!-- Botswana -->
      <g transform="translate(591.795079 295.890036)rotate(-90)scale(0.1 -0.1)">
       <use xlink:href="#DejaVuSans-42"/>
       <use xlink:href="#DejaVuSans-6f" x="68.603516"/>
       <use xlink:href="#DejaVuSans-74" x="129.785156"/>
       <use xlink:href="#DejaVuSans-73" x="168.994141"/>
       <use xlink:href="#DejaVuSans-77" x="221.09375"/>
       <use xlink:href="#DejaVuSans-61" x="302.880859"/>
       <use xlink:href="#DejaVuSans-6e" x="364.160156"/>
       <use xlink:href="#DejaVuSans-61" x="427.539062"/>
      </g>
     </g>
    </g>
    <g id="xtick_21">
     <g id="line2d_21">
      <g>
       <use xlink:href="#mc50baffa48" x="614.526796" y="240.008786" style="stroke: #000000; stroke-width: 0.8"/>
      </g>
     </g>
     <g id="text_21">
      <!-- Nigeria -->
      <g transform="translate(617.286171 282.786911)rotate(-90)scale(0.1 -0.1)">
       <use xlink:href="#DejaVuSans-4e"/>
       <use xlink:href="#DejaVuSans-69" x="74.804688"/>
       <use xlink:href="#DejaVuSans-67" x="102.587891"/>
       <use xlink:href="#DejaVuSans-65" x="166.064453"/>
       <use xlink:href="#DejaVuSans-72" x="227.587891"/>
       <use xlink:href="#DejaVuSans-69" x="268.701172"/>
       <use xlink:href="#DejaVuSans-61" x="296.484375"/>
      </g>
     </g>
    </g>
    <g id="xtick_22">
     <g id="line2d_22">
      <g>
       <use xlink:href="#mc50baffa48" x="640.017888" y="240.008786" style="stroke: #000000; stroke-width: 0.8"/>
      </g>
     </g>
     <g id="text_22">
      <!-- Spain -->
      <g transform="translate(642.777263 274.949411)rotate(-90)scale(0.1 -0.1)">
       <use xlink:href="#DejaVuSans-53"/>
       <use xlink:href="#DejaVuSans-70" x="63.476562"/>
       <use xlink:href="#DejaVuSans-61" x="126.953125"/>
       <use xlink:href="#DejaVuSans-69" x="188.232422"/>
       <use xlink:href="#DejaVuSans-6e" x="216.015625"/>
      </g>
     </g>
    </g>
    <g id="xtick_23">
     <g id="line2d_23">
      <g>
       <use xlink:href="#mc50baffa48" x="665.50898" y="240.008786" style="stroke: #000000; stroke-width: 0.8"/>
      </g>
     </g>
     <g id="text_23">
      <!-- Malaysia -->
      <g transform="translate(668.268355 290.705661)rotate(-90)scale(0.1 -0.1)">
       <defs>
        <path id="DejaVuSans-4d" d="M 628 4666 
L 1569 4666 
L 2759 1491 
L 3956 4666 
L 4897 4666 
L 4897 0 
L 4281 0 
L 4281 4097 
L 3078 897 
L 2444 897 
L 1241 4097 
L 1241 0 
L 628 0 
L 628 4666 
z
" transform="scale(0.015625)"/>
       </defs>
       <use xlink:href="#DejaVuSans-4d"/>
       <use xlink:href="#DejaVuSans-61" x="86.279297"/>
       <use xlink:href="#DejaVuSans-6c" x="147.558594"/>
       <use xlink:href="#DejaVuSans-61" x="175.341797"/>
       <use xlink:href="#DejaVuSans-79" x="236.621094"/>
       <use xlink:href="#DejaVuSans-73" x="295.800781"/>
       <use xlink:href="#DejaVuSans-69" x="347.900391"/>
       <use xlink:href="#DejaVuSans-61" x="375.683594"/>
      </g>
     </g>
    </g>
    <g id="xtick_24">
     <g id="line2d_24">
      <g>
       <use xlink:href="#mc50baffa48" x="691.000071" y="240.008786" style="stroke: #000000; stroke-width: 0.8"/>
      </g>
     </g>
     <g id="text_24">
      <!-- France -->
      <g transform="translate(693.759446 280.263473)rotate(-90)scale(0.1 -0.1)">
       <use xlink:href="#DejaVuSans-46"/>
       <use xlink:href="#DejaVuSans-72" x="50.269531"/>
       <use xlink:href="#DejaVuSans-61" x="91.382812"/>
       <use xlink:href="#DejaVuSans-6e" x="152.662109"/>
       <use xlink:href="#DejaVuSans-63" x="216.041016"/>
       <use xlink:href="#DejaVuSans-65" x="271.021484"/>
      </g>
     </g>
    </g>
    <g id="xtick_25">
     <g id="line2d_25">
      <g>
       <use xlink:href="#mc50baffa48" x="716.491163" y="240.008786" style="stroke: #000000; stroke-width: 0.8"/>
      </g>
     </g>
     <g id="text_25">
      <!-- Czech Republic -->
      <g transform="translate(719.250538 323.147848)rotate(-90)scale(0.1 -0.1)">
       <use xlink:href="#DejaVuSans-43"/>
       <use xlink:href="#DejaVuSans-7a" x="69.824219"/>
       <use xlink:href="#DejaVuSans-65" x="122.314453"/>
       <use xlink:href="#DejaVuSans-63" x="183.837891"/>
       <use xlink:href="#DejaVuSans-68" x="238.818359"/>
       <use xlink:href="#DejaVuSans-20" x="302.197266"/>
       <use xlink:href="#DejaVuSans-52" x="333.984375"/>
       <use xlink:href="#DejaVuSans-65" x="398.966797"/>
       <use xlink:href="#DejaVuSans-70" x="460.490234"/>
       <use xlink:href="#DejaVuSans-75" x="523.966797"/>
       <use xlink:href="#DejaVuSans-62" x="587.345703"/>
       <use xlink:href="#DejaVuSans-6c" x="650.822266"/>
       <use xlink:href="#DejaVuSans-69" x="678.605469"/>
       <use xlink:href="#DejaVuSans-63" x="706.388672"/>
      </g>
     </g>
    </g>
    <g id="xtick_26">
     <g id="line2d_26">
      <g>
       <use xlink:href="#mc50baffa48" x="741.982255" y="240.008786" style="stroke: #000000; stroke-width: 0.8"/>
      </g>
     </g>
     <g id="text_26">
      <!-- Australia -->
      <g transform="translate(744.74163 291.240036)rotate(-90)scale(0.1 -0.1)">
       <use xlink:href="#DejaVuSans-41"/>
       <use xlink:href="#DejaVuSans-75" x="68.408203"/>
       <use xlink:href="#DejaVuSans-73" x="131.787109"/>
       <use xlink:href="#DejaVuSans-74" x="183.886719"/>
       <use xlink:href="#DejaVuSans-72" x="223.095703"/>
       <use xlink:href="#DejaVuSans-61" x="264.208984"/>
       <use xlink:href="#DejaVuSans-6c" x="325.488281"/>
       <use xlink:href="#DejaVuSans-69" x="353.271484"/>
       <use xlink:href="#DejaVuSans-61" x="381.054688"/>
      </g>
     </g>
    </g>
    <g id="xtick_27">
     <g id="line2d_27">
      <g>
       <use xlink:href="#mc50baffa48" x="767.473347" y="240.008786" style="stroke: #000000; stroke-width: 0.8"/>
      </g>
     </g>
     <g id="text_27">
      <!-- Canada -->
      <g transform="translate(770.232722 285.061911)rotate(-90)scale(0.1 -0.1)">
       <use xlink:href="#DejaVuSans-43"/>
       <use xlink:href="#DejaVuSans-61" x="69.824219"/>
       <use xlink:href="#DejaVuSans-6e" x="131.103516"/>
       <use xlink:href="#DejaVuSans-61" x="194.482422"/>
       <use xlink:href="#DejaVuSans-64" x="255.761719"/>
       <use xlink:href="#DejaVuSans-61" x="319.238281"/>
      </g>
     </g>
    </g>
    <g id="xtick_28">
     <g id="line2d_28">
      <g>
       <use xlink:href="#mc50baffa48" x="792.964439" y="240.008786" style="stroke: #000000; stroke-width: 0.8"/>
      </g>
     </g>
     <g id="text_28">
      <!-- India -->
      <g transform="translate(795.723814 271.550973)rotate(-90)scale(0.1 -0.1)">
       <defs>
        <path id="DejaVuSans-49" d="M 628 4666 
L 1259 4666 
L 1259 0 
L 628 0 
L 628 4666 
z
" transform="scale(0.015625)"/>
       </defs>
       <use xlink:href="#DejaVuSans-49"/>
       <use xlink:href="#DejaVuSans-6e" x="29.492188"/>
       <use xlink:href="#DejaVuSans-64" x="92.871094"/>
       <use xlink:href="#DejaVuSans-69" x="156.347656"/>
       <use xlink:href="#DejaVuSans-61" x="184.130859"/>
      </g>
     </g>
    </g>
    <g id="xtick_29">
     <g id="line2d_29">
      <g>
       <use xlink:href="#mc50baffa48" x="818.45553" y="240.008786" style="stroke: #000000; stroke-width: 0.8"/>
      </g>
     </g>
     <g id="text_29">
      <!-- Sri Lanka -->
      <g transform="translate(821.214905 293.205661)rotate(-90)scale(0.1 -0.1)">
       <defs>
        <path id="DejaVuSans-6b" d="M 581 4863 
L 1159 4863 
L 1159 1991 
L 2875 3500 
L 3609 3500 
L 1753 1863 
L 3688 0 
L 2938 0 
L 1159 1709 
L 1159 0 
L 581 0 
L 581 4863 
z
" transform="scale(0.015625)"/>
       </defs>
       <use xlink:href="#DejaVuSans-53"/>
       <use xlink:href="#DejaVuSans-72" x="63.476562"/>
       <use xlink:href="#DejaVuSans-69" x="104.589844"/>
       <use xlink:href="#DejaVuSans-20" x="132.373047"/>
       <use xlink:href="#DejaVuSans-4c" x="164.160156"/>
       <use xlink:href="#DejaVuSans-61" x="219.873047"/>
       <use xlink:href="#DejaVuSans-6e" x="281.152344"/>
       <use xlink:href="#DejaVuSans-6b" x="344.53125"/>
       <use xlink:href="#DejaVuSans-61" x="400.691406"/>
      </g>
     </g>
    </g>
    <g id="xtick_30">
     <g id="line2d_30">
      <g>
       <use xlink:href="#mc50baffa48" x="843.946622" y="240.008786" style="stroke: #000000; stroke-width: 0.8"/>
      </g>
     </g>
     <g id="text_30">
      <!-- Mexico -->
      <g transform="translate(846.705997 281.929098)rotate(-90)scale(0.1 -0.1)">
       <use xlink:href="#DejaVuSans-4d"/>
       <use xlink:href="#DejaVuSans-65" x="86.279297"/>
       <use xlink:href="#DejaVuSans-78" x="146.052734"/>
       <use xlink:href="#DejaVuSans-69" x="205.232422"/>
       <use xlink:href="#DejaVuSans-63" x="233.015625"/>
       <use xlink:href="#DejaVuSans-6f" x="287.996094"/>
      </g>
     </g>
    </g>
    <g id="xtick_31">
     <g id="line2d_31">
      <g>
       <use xlink:href="#mc50baffa48" x="869.437714" y="240.008786" style="stroke: #000000; stroke-width: 0.8"/>
      </g>
     </g>
     <g id="text_31">
      <!-- Ireland -->
      <g transform="translate(872.197089 281.590036)rotate(-90)scale(0.1 -0.1)">
       <use xlink:href="#DejaVuSans-49"/>
       <use xlink:href="#DejaVuSans-72" x="29.492188"/>
       <use xlink:href="#DejaVuSans-65" x="68.355469"/>
       <use xlink:href="#DejaVuSans-6c" x="129.878906"/>
       <use xlink:href="#DejaVuSans-61" x="157.662109"/>
       <use xlink:href="#DejaVuSans-6e" x="218.941406"/>
       <use xlink:href="#DejaVuSans-64" x="282.320312"/>
      </g>
     </g>
    </g>
    <g id="xtick_32">
     <g id="line2d_32">
      <g>
       <use xlink:href="#mc50baffa48" x="894.928806" y="240.008786" style="stroke: #000000; stroke-width: 0.8"/>
      </g>
     </g>
     <g id="text_32">
      <!-- Germany -->
      <g transform="translate(897.688181 292.971286)rotate(-90)scale(0.1 -0.1)">
       <use xlink:href="#DejaVuSans-47"/>
       <use xlink:href="#DejaVuSans-65" x="77.490234"/>
       <use xlink:href="#DejaVuSans-72" x="139.013672"/>
       <use xlink:href="#DejaVuSans-6d" x="178.376953"/>
       <use xlink:href="#DejaVuSans-61" x="275.789062"/>
       <use xlink:href="#DejaVuSans-6e" x="337.068359"/>
       <use xlink:href="#DejaVuSans-79" x="400.447266"/>
      </g>
     </g>
    </g>
    <g id="xtick_33">
     <g id="line2d_33">
      <g>
       <use xlink:href="#mc50baffa48" x="920.419898" y="240.008786" style="stroke: #000000; stroke-width: 0.8"/>
      </g>
     </g>
     <g id="text_33">
      <!-- Israel -->
      <g transform="translate(923.179273 274.338473)rotate(-90)scale(0.1 -0.1)">
       <use xlink:href="#DejaVuSans-49"/>
       <use xlink:href="#DejaVuSans-73" x="29.492188"/>
       <use xlink:href="#DejaVuSans-72" x="81.591797"/>
       <use xlink:href="#DejaVuSans-61" x="122.705078"/>
       <use xlink:href="#DejaVuSans-65" x="183.984375"/>
       <use xlink:href="#DejaVuSans-6c" x="245.507812"/>
      </g>
     </g>
    </g>
    <g id="xtick_34">
     <g id="line2d_34">
      <g>
       <use xlink:href="#mc50baffa48" x="945.91099" y="240.008786" style="stroke: #000000; stroke-width: 0.8"/>
      </g>
     </g>
     <g id="text_34">
      <!-- Belgium -->
      <g transform="translate(948.670365 288.005661)rotate(-90)scale(0.1 -0.1)">
       <use xlink:href="#DejaVuSans-42"/>
       <use xlink:href="#DejaVuSans-65" x="68.603516"/>
       <use xlink:href="#DejaVuSans-6c" x="130.126953"/>
       <use xlink:href="#DejaVuSans-67" x="157.910156"/>
       <use xlink:href="#DejaVuSans-69" x="221.386719"/>
       <use xlink:href="#DejaVuSans-75" x="249.169922"/>
       <use xlink:href="#DejaVuSans-6d" x="312.548828"/>
      </g>
     </g>
    </g>
    <g id="xtick_35">
     <g id="line2d_35">
      <g>
       <use xlink:href="#mc50baffa48" x="971.402081" y="240.008786" style="stroke: #000000; stroke-width: 0.8"/>
      </g>
     </g>
     <g id="text_35">
      <!-- Switzerland -->
      <g transform="translate(974.161456 305.338473)rotate(-90)scale(0.1 -0.1)">
       <use xlink:href="#DejaVuSans-53"/>
       <use xlink:href="#DejaVuSans-77" x="63.476562"/>
       <use xlink:href="#DejaVuSans-69" x="145.263672"/>
       <use xlink:href="#DejaVuSans-74" x="173.046875"/>
       <use xlink:href="#DejaVuSans-7a" x="212.255859"/>
       <use xlink:href="#DejaVuSans-65" x="264.746094"/>
       <use xlink:href="#DejaVuSans-72" x="326.269531"/>
       <use xlink:href="#DejaVuSans-6c" x="367.382812"/>
       <use xlink:href="#DejaVuSans-61" x="395.166016"/>
       <use xlink:href="#DejaVuSans-6e" x="456.445312"/>
       <use xlink:href="#DejaVuSans-64" x="519.824219"/>
      </g>
     </g>
    </g>
    <g id="xtick_36">
     <g id="line2d_36">
      <g>
       <use xlink:href="#mc50baffa48" x="996.893173" y="240.008786" style="stroke: #000000; stroke-width: 0.8"/>
      </g>
     </g>
     <g id="text_36">
      <!-- Italy -->
      <g transform="translate(999.652548 268.704098)rotate(-90)scale(0.1 -0.1)">
       <use xlink:href="#DejaVuSans-49"/>
       <use xlink:href="#DejaVuSans-74" x="29.492188"/>
       <use xlink:href="#DejaVuSans-61" x="68.701172"/>
       <use xlink:href="#DejaVuSans-6c" x="129.980469"/>
       <use xlink:href="#DejaVuSans-79" x="157.763672"/>
      </g>
     </g>
    </g>
    <g id="xtick_37">
     <g id="line2d_37">
      <g>
       <use xlink:href="#mc50baffa48" x="1022.384265" y="240.008786" style="stroke: #000000; stroke-width: 0.8"/>
      </g>
     </g>
     <g id="text_37">
      <!-- United States Of America -->
      <g transform="translate(1025.14364 373.721286)rotate(-90)scale(0.1 -0.1)">
       <defs>
        <path id="DejaVuSans-55" d="M 556 4666 
L 1191 4666 
L 1191 1831 
Q 1191 1081 1462 751 
Q 1734 422 2344 422 
Q 2950 422 3222 751 
Q 3494 1081 3494 1831 
L 3494 4666 
L 4128 4666 
L 4128 1753 
Q 4128 841 3676 375 
Q 3225 -91 2344 -91 
Q 1459 -91 1007 375 
Q 556 841 556 1753 
L 556 4666 
z
" transform="scale(0.015625)"/>
        <path id="DejaVuSans-4f" d="M 2522 4238 
Q 1834 4238 1429 3725 
Q 1025 3213 1025 2328 
Q 1025 1447 1429 934 
Q 1834 422 2522 422 
Q 3209 422 3611 934 
Q 4013 1447 4013 2328 
Q 4013 3213 3611 3725 
Q 3209 4238 2522 4238 
z
M 2522 4750 
Q 3503 4750 4090 4092 
Q 4678 3434 4678 2328 
Q 4678 1225 4090 567 
Q 3503 -91 2522 -91 
Q 1538 -91 948 565 
Q 359 1222 359 2328 
Q 359 3434 948 4092 
Q 1538 4750 2522 4750 
z
" transform="scale(0.015625)"/>
       </defs>
       <use xlink:href="#DejaVuSans-55"/>
       <use xlink:href="#DejaVuSans-6e" x="73.193359"/>
       <use xlink:href="#DejaVuSans-69" x="136.572266"/>
       <use xlink:href="#DejaVuSans-74" x="164.355469"/>
       <use xlink:href="#DejaVuSans-65" x="203.564453"/>
       <use xlink:href="#DejaVuSans-64" x="265.087891"/>
       <use xlink:href="#DejaVuSans-20" x="328.564453"/>
       <use xlink:href="#DejaVuSans-53" x="360.351562"/>
       <use xlink:href="#DejaVuSans-74" x="423.828125"/>
       <use xlink:href="#DejaVuSans-61" x="463.037109"/>
       <use xlink:href="#DejaVuSans-74" x="524.316406"/>
       <use xlink:href="#DejaVuSans-65" x="563.525391"/>
       <use xlink:href="#DejaVuSans-73" x="625.048828"/>
       <use xlink:href="#DejaVuSans-20" x="677.148438"/>
       <use xlink:href="#DejaVuSans-4f" x="708.935547"/>
       <use xlink:href="#DejaVuSans-66" x="787.646484"/>
       <use xlink:href="#DejaVuSans-20" x="822.851562"/>
       <use xlink:href="#DejaVuSans-41" x="854.638672"/>
       <use xlink:href="#DejaVuSans-6d" x="923.046875"/>
       <use xlink:href="#DejaVuSans-65" x="1020.458984"/>
       <use xlink:href="#DejaVuSans-72" x="1081.982422"/>
       <use xlink:href="#DejaVuSans-69" x="1123.095703"/>
       <use xlink:href="#DejaVuSans-63" x="1150.878906"/>
       <use xlink:href="#DejaVuSans-61" x="1205.859375"/>
      </g>
     </g>
    </g>
    <g id="xtick_38">
     <g id="line2d_38">
      <g>
       <use xlink:href="#mc50baffa48" x="1047.875357" y="240.008786" style="stroke: #000000; stroke-width: 0.8"/>
      </g>
     </g>
     <g id="text_38">
      <!-- Sweden -->
      <g transform="translate(1050.634732 286.527536)rotate(-90)scale(0.1 -0.1)">
       <use xlink:href="#DejaVuSans-53"/>
       <use xlink:href="#DejaVuSans-77" x="63.476562"/>
       <use xlink:href="#DejaVuSans-65" x="145.263672"/>
       <use xlink:href="#DejaVuSans-64" x="206.787109"/>
       <use xlink:href="#DejaVuSans-65" x="270.263672"/>
       <use xlink:href="#DejaVuSans-6e" x="331.787109"/>
      </g>
     </g>
    </g>
    <g id="xtick_39">
     <g id="line2d_39">
      <g>
       <use xlink:href="#mc50baffa48" x="1073.366449" y="240.008786" style="stroke: #000000; stroke-width: 0.8"/>
      </g>
     </g>
     <g id="text_39">
      <!-- United Kingdom -->
      <g transform="translate(1076.125824 327.272848)rotate(-90)scale(0.1 -0.1)">
       <use xlink:href="#DejaVuSans-55"/>
       <use xlink:href="#DejaVuSans-6e" x="73.193359"/>
       <use xlink:href="#DejaVuSans-69" x="136.572266"/>
       <use xlink:href="#DejaVuSans-74" x="164.355469"/>
       <use xlink:href="#DejaVuSans-65" x="203.564453"/>
       <use xlink:href="#DejaVuSans-64" x="265.087891"/>
       <use xlink:href="#DejaVuSans-20" x="328.564453"/>
       <use xlink:href="#DejaVuSans-4b" x="360.351562"/>
       <use xlink:href="#DejaVuSans-69" x="425.927734"/>
       <use xlink:href="#DejaVuSans-6e" x="453.710938"/>
       <use xlink:href="#DejaVuSans-67" x="517.089844"/>
       <use xlink:href="#DejaVuSans-64" x="580.566406"/>
       <use xlink:href="#DejaVuSans-6f" x="644.042969"/>
       <use xlink:href="#DejaVuSans-6d" x="705.224609"/>
      </g>
     </g>
    </g>
    <g id="xtick_40">
     <g id="line2d_40">
      <g>
       <use xlink:href="#mc50baffa48" x="1098.857541" y="240.008786" style="stroke: #000000; stroke-width: 0.8"/>
      </g>
     </g>
     <g id="text_40">
      <!-- Denmark -->
      <g transform="translate(1101.616916 292.969723)rotate(-90)scale(0.1 -0.1)">
       <defs>
        <path id="DejaVuSans-44" d="M 1259 4147 
L 1259 519 
L 2022 519 
Q 2988 519 3436 956 
Q 3884 1394 3884 2338 
Q 3884 3275 3436 3711 
Q 2988 4147 2022 4147 
L 1259 4147 
z
M 628 4666 
L 1925 4666 
Q 3281 4666 3915 4102 
Q 4550 3538 4550 2338 
Q 4550 1131 3912 565 
Q 3275 0 1925 0 
L 628 0 
L 628 4666 
z
" transform="scale(0.015625)"/>
       </defs>
       <use xlink:href="#DejaVuSans-44"/>
       <use xlink:href="#DejaVuSans-65" x="77.001953"/>
       <use xlink:href="#DejaVuSans-6e" x="138.525391"/>
       <use xlink:href="#DejaVuSans-6d" x="201.904297"/>
       <use xlink:href="#DejaVuSans-61" x="299.316406"/>
       <use xlink:href="#DejaVuSans-72" x="360.595703"/>
       <use xlink:href="#DejaVuSans-6b" x="401.708984"/>
      </g>
     </g>
    </g>
    <g id="text_41">
     <!-- Country -->
     <g transform="translate(581.917969 385.319723)scale(0.1 -0.1)">
      <use xlink:href="#DejaVuSans-43"/>
      <use xlink:href="#DejaVuSans-6f" x="69.824219"/>
      <use xlink:href="#DejaVuSans-75" x="131.005859"/>
      <use xlink:href="#DejaVuSans-6e" x="194.384766"/>
      <use xlink:href="#DejaVuSans-74" x="257.763672"/>
      <use xlink:href="#DejaVuSans-72" x="296.972656"/>
      <use xlink:href="#DejaVuSans-79" x="338.085938"/>
     </g>
    </g>
   </g>
   <g id="matplotlib.axis_2">
    <g id="ytick_1">
     <g id="line2d_41">
      <defs>
       <path id="mf0ff247fa2" d="M 0 0 
L -3.5 0 
" style="stroke: #000000; stroke-width: 0.8"/>
      </defs>
      <g>
       <use xlink:href="#mf0ff247fa2" x="43.78125" y="240.008786" style="stroke: #000000; stroke-width: 0.8"/>
      </g>
     </g>
     <g id="text_42">
      <!-- 0.0 -->
      <g transform="translate(20.878125 243.808004)scale(0.1 -0.1)">
       <defs>
        <path id="DejaVuSans-30" d="M 2034 4250 
Q 1547 4250 1301 3770 
Q 1056 3291 1056 2328 
Q 1056 1369 1301 889 
Q 1547 409 2034 409 
Q 2525 409 2770 889 
Q 3016 1369 3016 2328 
Q 3016 3291 2770 3770 
Q 2525 4250 2034 4250 
z
M 2034 4750 
Q 2819 4750 3233 4129 
Q 3647 3509 3647 2328 
Q 3647 1150 3233 529 
Q 2819 -91 2034 -91 
Q 1250 -91 836 529 
Q 422 1150 422 2328 
Q 422 3509 836 4129 
Q 1250 4750 2034 4750 
z
" transform="scale(0.015625)"/>
        <path id="DejaVuSans-2e" d="M 684 794 
L 1344 794 
L 1344 0 
L 684 0 
L 684 794 
z
" transform="scale(0.015625)"/>
       </defs>
       <use xlink:href="#DejaVuSans-30"/>
       <use xlink:href="#DejaVuSans-2e" x="63.623047"/>
       <use xlink:href="#DejaVuSans-30" x="95.410156"/>
      </g>
     </g>
    </g>
    <g id="ytick_2">
     <g id="line2d_42">
      <g>
       <use xlink:href="#mf0ff247fa2" x="43.78125" y="197.768786" style="stroke: #000000; stroke-width: 0.8"/>
      </g>
     </g>
     <g id="text_43">
      <!-- 0.2 -->
      <g transform="translate(20.878125 201.568004)scale(0.1 -0.1)">
       <defs>
        <path id="DejaVuSans-32" d="M 1228 531 
L 3431 531 
L 3431 0 
L 469 0 
L 469 531 
Q 828 903 1448 1529 
Q 2069 2156 2228 2338 
Q 2531 2678 2651 2914 
Q 2772 3150 2772 3378 
Q 2772 3750 2511 3984 
Q 2250 4219 1831 4219 
Q 1534 4219 1204 4116 
Q 875 4013 500 3803 
L 500 4441 
Q 881 4594 1212 4672 
Q 1544 4750 1819 4750 
Q 2544 4750 2975 4387 
Q 3406 4025 3406 3419 
Q 3406 3131 3298 2873 
Q 3191 2616 2906 2266 
Q 2828 2175 2409 1742 
Q 1991 1309 1228 531 
z
" transform="scale(0.015625)"/>
       </defs>
       <use xlink:href="#DejaVuSans-30"/>
       <use xlink:href="#DejaVuSans-2e" x="63.623047"/>
       <use xlink:href="#DejaVuSans-32" x="95.410156"/>
      </g>
     </g>
    </g>
    <g id="ytick_3">
     <g id="line2d_43">
      <g>
       <use xlink:href="#mf0ff247fa2" x="43.78125" y="155.528786" style="stroke: #000000; stroke-width: 0.8"/>
      </g>
     </g>
     <g id="text_44">
      <!-- 0.4 -->
      <g transform="translate(20.878125 159.328004)scale(0.1 -0.1)">
       <defs>
        <path id="DejaVuSans-34" d="M 2419 4116 
L 825 1625 
L 2419 1625 
L 2419 4116 
z
M 2253 4666 
L 3047 4666 
L 3047 1625 
L 3713 1625 
L 3713 1100 
L 3047 1100 
L 3047 0 
L 2419 0 
L 2419 1100 
L 313 1100 
L 313 1709 
L 2253 4666 
z
" transform="scale(0.015625)"/>
       </defs>
       <use xlink:href="#DejaVuSans-30"/>
       <use xlink:href="#DejaVuSans-2e" x="63.623047"/>
       <use xlink:href="#DejaVuSans-34" x="95.410156"/>
      </g>
     </g>
    </g>
    <g id="ytick_4">
     <g id="line2d_44">
      <g>
       <use xlink:href="#mf0ff247fa2" x="43.78125" y="113.288786" style="stroke: #000000; stroke-width: 0.8"/>
      </g>
     </g>
     <g id="text_45">
      <!-- 0.6 -->
      <g transform="translate(20.878125 117.088004)scale(0.1 -0.1)">
       <defs>
        <path id="DejaVuSans-36" d="M 2113 2584 
Q 1688 2584 1439 2293 
Q 1191 2003 1191 1497 
Q 1191 994 1439 701 
Q 1688 409 2113 409 
Q 2538 409 2786 701 
Q 3034 994 3034 1497 
Q 3034 2003 2786 2293 
Q 2538 2584 2113 2584 
z
M 3366 4563 
L 3366 3988 
Q 3128 4100 2886 4159 
Q 2644 4219 2406 4219 
Q 1781 4219 1451 3797 
Q 1122 3375 1075 2522 
Q 1259 2794 1537 2939 
Q 1816 3084 2150 3084 
Q 2853 3084 3261 2657 
Q 3669 2231 3669 1497 
Q 3669 778 3244 343 
Q 2819 -91 2113 -91 
Q 1303 -91 875 529 
Q 447 1150 447 2328 
Q 447 3434 972 4092 
Q 1497 4750 2381 4750 
Q 2619 4750 2861 4703 
Q 3103 4656 3366 4563 
z
" transform="scale(0.015625)"/>
       </defs>
       <use xlink:href="#DejaVuSans-30"/>
       <use xlink:href="#DejaVuSans-2e" x="63.623047"/>
       <use xlink:href="#DejaVuSans-36" x="95.410156"/>
      </g>
     </g>
    </g>
    <g id="ytick_5">
     <g id="line2d_45">
      <g>
       <use xlink:href="#mf0ff247fa2" x="43.78125" y="71.048786" style="stroke: #000000; stroke-width: 0.8"/>
      </g>
     </g>
     <g id="text_46">
      <!-- 0.8 -->
      <g transform="translate(20.878125 74.848004)scale(0.1 -0.1)">
       <defs>
        <path id="DejaVuSans-38" d="M 2034 2216 
Q 1584 2216 1326 1975 
Q 1069 1734 1069 1313 
Q 1069 891 1326 650 
Q 1584 409 2034 409 
Q 2484 409 2743 651 
Q 3003 894 3003 1313 
Q 3003 1734 2745 1975 
Q 2488 2216 2034 2216 
z
M 1403 2484 
Q 997 2584 770 2862 
Q 544 3141 544 3541 
Q 544 4100 942 4425 
Q 1341 4750 2034 4750 
Q 2731 4750 3128 4425 
Q 3525 4100 3525 3541 
Q 3525 3141 3298 2862 
Q 3072 2584 2669 2484 
Q 3125 2378 3379 2068 
Q 3634 1759 3634 1313 
Q 3634 634 3220 271 
Q 2806 -91 2034 -91 
Q 1263 -91 848 271 
Q 434 634 434 1313 
Q 434 1759 690 2068 
Q 947 2378 1403 2484 
z
M 1172 3481 
Q 1172 3119 1398 2916 
Q 1625 2713 2034 2713 
Q 2441 2713 2670 2916 
Q 2900 3119 2900 3481 
Q 2900 3844 2670 4047 
Q 2441 4250 2034 4250 
Q 1625 4250 1398 4047 
Q 1172 3844 1172 3481 
z
" transform="scale(0.015625)"/>
       </defs>
       <use xlink:href="#DejaVuSans-30"/>
       <use xlink:href="#DejaVuSans-2e" x="63.623047"/>
       <use xlink:href="#DejaVuSans-38" x="95.410156"/>
      </g>
     </g>
    </g>
    <g id="ytick_6">
     <g id="line2d_46">
      <g>
       <use xlink:href="#mf0ff247fa2" x="43.78125" y="28.808786" style="stroke: #000000; stroke-width: 0.8"/>
      </g>
     </g>
     <g id="text_47">
      <!-- 1.0 -->
      <g transform="translate(20.878125 32.608004)scale(0.1 -0.1)">
       <defs>
        <path id="DejaVuSans-31" d="M 794 531 
L 1825 531 
L 1825 4091 
L 703 3866 
L 703 4441 
L 1819 4666 
L 2450 4666 
L 2450 531 
L 3481 531 
L 3481 0 
L 794 0 
L 794 531 
z
" transform="scale(0.015625)"/>
       </defs>
       <use xlink:href="#DejaVuSans-31"/>
       <use xlink:href="#DejaVuSans-2e" x="63.623047"/>
       <use xlink:href="#DejaVuSans-30" x="95.410156"/>
      </g>
     </g>
    </g>
    <g id="text_48">
     <!-- Frequency -->
     <g transform="translate(14.798437 154.958473)rotate(-90)scale(0.1 -0.1)">
      <defs>
       <path id="DejaVuSans-71" d="M 947 1747 
Q 947 1113 1208 752 
Q 1469 391 1925 391 
Q 2381 391 2643 752 
Q 2906 1113 2906 1747 
Q 2906 2381 2643 2742 
Q 2381 3103 1925 3103 
Q 1469 3103 1208 2742 
Q 947 2381 947 1747 
z
M 2906 525 
Q 2725 213 2448 61 
Q 2172 -91 1784 -91 
Q 1150 -91 751 415 
Q 353 922 353 1747 
Q 353 2572 751 3078 
Q 1150 3584 1784 3584 
Q 2172 3584 2448 3432 
Q 2725 3281 2906 2969 
L 2906 3500 
L 3481 3500 
L 3481 -1331 
L 2906 -1331 
L 2906 525 
z
" transform="scale(0.015625)"/>
      </defs>
      <use xlink:href="#DejaVuSans-46"/>
      <use xlink:href="#DejaVuSans-72" x="50.269531"/>
      <use xlink:href="#DejaVuSans-65" x="89.132812"/>
      <use xlink:href="#DejaVuSans-71" x="150.65625"/>
      <use xlink:href="#DejaVuSans-75" x="214.132812"/>
      <use xlink:href="#DejaVuSans-65" x="277.511719"/>
      <use xlink:href="#DejaVuSans-6e" x="339.035156"/>
      <use xlink:href="#DejaVuSans-63" x="402.414062"/>
      <use xlink:href="#DejaVuSans-79" x="457.394531"/>
     </g>
    </g>
   </g>
   <g id="patch_43">
    <path d="M 43.78125 240.008786 
L 43.78125 18.248786 
" style="fill: none; stroke: #000000; stroke-width: 0.8; stroke-linejoin: miter; stroke-linecap: square"/>
   </g>
   <g id="patch_44">
    <path d="M 43.78125 240.008786 
L 1159.78125 240.008786 
" style="fill: none; stroke: #000000; stroke-width: 0.8; stroke-linejoin: miter; stroke-linecap: square"/>
   </g>
   <g id="text_49">
    <!-- 6/6 -->
    <g transform="translate(108.016209 26.696786)rotate(-90)scale(0.12 -0.12)">
     <defs>
      <path id="DejaVuSans-2f" d="M 1625 4666 
L 2156 4666 
L 531 -594 
L 0 -594 
L 1625 4666 
z
" transform="scale(0.015625)"/>
     </defs>
     <use xlink:href="#DejaVuSans-36"/>
     <use xlink:href="#DejaVuSans-2f" x="63.623047"/>
     <use xlink:href="#DejaVuSans-36" x="97.314453"/>
    </g>
   </g>
   <g id="text_50">
    <!-- 2/2 -->
    <g transform="translate(133.507301 26.696786)rotate(-90)scale(0.12 -0.12)">
     <use xlink:href="#DejaVuSans-32"/>
     <use xlink:href="#DejaVuSans-2f" x="63.623047"/>
     <use xlink:href="#DejaVuSans-32" x="97.314453"/>
    </g>
   </g>
   <g id="text_51">
    <!-- 2/2 -->
    <g transform="translate(158.998393 26.696786)rotate(-90)scale(0.12 -0.12)">
     <use xlink:href="#DejaVuSans-32"/>
     <use xlink:href="#DejaVuSans-2f" x="63.623047"/>
     <use xlink:href="#DejaVuSans-32" x="97.314453"/>
    </g>
   </g>
   <g id="text_52">
    <!-- 3/3 -->
    <g transform="translate(184.489485 26.696786)rotate(-90)scale(0.12 -0.12)">
     <defs>
      <path id="DejaVuSans-33" d="M 2597 2516 
Q 3050 2419 3304 2112 
Q 3559 1806 3559 1356 
Q 3559 666 3084 287 
Q 2609 -91 1734 -91 
Q 1441 -91 1130 -33 
Q 819 25 488 141 
L 488 750 
Q 750 597 1062 519 
Q 1375 441 1716 441 
Q 2309 441 2620 675 
Q 2931 909 2931 1356 
Q 2931 1769 2642 2001 
Q 2353 2234 1838 2234 
L 1294 2234 
L 1294 2753 
L 1863 2753 
Q 2328 2753 2575 2939 
Q 2822 3125 2822 3475 
Q 2822 3834 2567 4026 
Q 2313 4219 1838 4219 
Q 1578 4219 1281 4162 
Q 984 4106 628 3988 
L 628 4550 
Q 988 4650 1302 4700 
Q 1616 4750 1894 4750 
Q 2613 4750 3031 4423 
Q 3450 4097 3450 3541 
Q 3450 3153 3228 2886 
Q 3006 2619 2597 2516 
z
" transform="scale(0.015625)"/>
     </defs>
     <use xlink:href="#DejaVuSans-33"/>
     <use xlink:href="#DejaVuSans-2f" x="63.623047"/>
     <use xlink:href="#DejaVuSans-33" x="97.314453"/>
    </g>
   </g>
   <g id="text_53">
    <!-- 5/5 -->
    <g transform="translate(209.980577 26.696786)rotate(-90)scale(0.12 -0.12)">
     <defs>
      <path id="DejaVuSans-35" d="M 691 4666 
L 3169 4666 
L 3169 4134 
L 1269 4134 
L 1269 2991 
Q 1406 3038 1543 3061 
Q 1681 3084 1819 3084 
Q 2600 3084 3056 2656 
Q 3513 2228 3513 1497 
Q 3513 744 3044 326 
Q 2575 -91 1722 -91 
Q 1428 -91 1123 -41 
Q 819 9 494 109 
L 494 744 
Q 775 591 1075 516 
Q 1375 441 1709 441 
Q 2250 441 2565 725 
Q 2881 1009 2881 1497 
Q 2881 1984 2565 2268 
Q 2250 2553 1709 2553 
Q 1456 2553 1204 2497 
Q 953 2441 691 2322 
L 691 4666 
z
" transform="scale(0.015625)"/>
     </defs>
     <use xlink:href="#DejaVuSans-35"/>
     <use xlink:href="#DejaVuSans-2f" x="63.623047"/>
     <use xlink:href="#DejaVuSans-35" x="97.314453"/>
    </g>
   </g>
   <g id="text_54">
    <!-- 2/2 -->
    <g transform="translate(235.471669 26.696786)rotate(-90)scale(0.12 -0.12)">
     <use xlink:href="#DejaVuSans-32"/>
     <use xlink:href="#DejaVuSans-2f" x="63.623047"/>
     <use xlink:href="#DejaVuSans-32" x="97.314453"/>
    </g>
   </g>
   <g id="text_55">
    <!-- 1/1 -->
    <g transform="translate(260.96276 26.696786)rotate(-90)scale(0.12 -0.12)">
     <use xlink:href="#DejaVuSans-31"/>
     <use xlink:href="#DejaVuSans-2f" x="63.623047"/>
     <use xlink:href="#DejaVuSans-31" x="97.314453"/>
    </g>
   </g>
   <g id="text_56">
    <!-- 1/1 -->
    <g transform="translate(286.453852 26.696786)rotate(-90)scale(0.12 -0.12)">
     <use xlink:href="#DejaVuSans-31"/>
     <use xlink:href="#DejaVuSans-2f" x="63.623047"/>
     <use xlink:href="#DejaVuSans-31" x="97.314453"/>
    </g>
   </g>
   <g id="text_57">
    <!-- 1/1 -->
    <g transform="translate(311.944944 26.696786)rotate(-90)scale(0.12 -0.12)">
     <use xlink:href="#DejaVuSans-31"/>
     <use xlink:href="#DejaVuSans-2f" x="63.623047"/>
     <use xlink:href="#DejaVuSans-31" x="97.314453"/>
    </g>
   </g>
   <g id="text_58">
    <!-- 1/1 -->
    <g transform="translate(337.436036 26.696786)rotate(-90)scale(0.12 -0.12)">
     <use xlink:href="#DejaVuSans-31"/>
     <use xlink:href="#DejaVuSans-2f" x="63.623047"/>
     <use xlink:href="#DejaVuSans-31" x="97.314453"/>
    </g>
   </g>
   <g id="text_59">
    <!-- 1/1 -->
    <g transform="translate(362.927128 26.696786)rotate(-90)scale(0.12 -0.12)">
     <use xlink:href="#DejaVuSans-31"/>
     <use xlink:href="#DejaVuSans-2f" x="63.623047"/>
     <use xlink:href="#DejaVuSans-31" x="97.314453"/>
    </g>
   </g>
   <g id="text_60">
    <!-- 13/14 -->
    <g transform="translate(388.41822 41.7825)rotate(-90)scale(0.12 -0.12)">
     <use xlink:href="#DejaVuSans-31"/>
     <use xlink:href="#DejaVuSans-33" x="63.623047"/>
     <use xlink:href="#DejaVuSans-2f" x="127.246094"/>
     <use xlink:href="#DejaVuSans-31" x="160.9375"/>
     <use xlink:href="#DejaVuSans-34" x="224.560547"/>
    </g>
   </g>
   <g id="text_61">
    <!-- 243/285 -->
    <g transform="translate(413.909311 57.820996)rotate(-90)scale(0.12 -0.12)">
     <use xlink:href="#DejaVuSans-32"/>
     <use xlink:href="#DejaVuSans-34" x="63.623047"/>
     <use xlink:href="#DejaVuSans-33" x="127.246094"/>
     <use xlink:href="#DejaVuSans-2f" x="190.869141"/>
     <use xlink:href="#DejaVuSans-32" x="224.560547"/>
     <use xlink:href="#DejaVuSans-38" x="288.183594"/>
     <use xlink:href="#DejaVuSans-35" x="351.806641"/>
    </g>
   </g>
   <g id="text_62">
    <!-- 33/42 -->
    <g transform="translate(439.400403 71.953929)rotate(-90)scale(0.12 -0.12)">
     <use xlink:href="#DejaVuSans-33"/>
     <use xlink:href="#DejaVuSans-33" x="63.623047"/>
     <use xlink:href="#DejaVuSans-2f" x="127.246094"/>
     <use xlink:href="#DejaVuSans-34" x="160.9375"/>
     <use xlink:href="#DejaVuSans-32" x="224.560547"/>
    </g>
   </g>
   <g id="text_63">
    <!-- 5/8 -->
    <g transform="translate(464.891495 105.896786)rotate(-90)scale(0.12 -0.12)">
     <use xlink:href="#DejaVuSans-35"/>
     <use xlink:href="#DejaVuSans-2f" x="63.623047"/>
     <use xlink:href="#DejaVuSans-38" x="97.314453"/>
    </g>
   </g>
   <g id="text_64">
    <!-- 11/21 -->
    <g transform="translate(490.382587 127.268214)rotate(-90)scale(0.12 -0.12)">
     <use xlink:href="#DejaVuSans-31"/>
     <use xlink:href="#DejaVuSans-31" x="63.623047"/>
     <use xlink:href="#DejaVuSans-2f" x="127.246094"/>
     <use xlink:href="#DejaVuSans-32" x="160.9375"/>
     <use xlink:href="#DejaVuSans-31" x="224.560547"/>
    </g>
   </g>
   <g id="text_65">
    <!-- 14/31 -->
    <g transform="translate(515.873679 142.516141)rotate(-90)scale(0.12 -0.12)">
     <use xlink:href="#DejaVuSans-31"/>
     <use xlink:href="#DejaVuSans-34" x="63.623047"/>
     <use xlink:href="#DejaVuSans-2f" x="127.246094"/>
     <use xlink:href="#DejaVuSans-33" x="160.9375"/>
     <use xlink:href="#DejaVuSans-31" x="224.560547"/>
    </g>
   </g>
   <g id="text_66">
    <!-- 23/66 -->
    <g transform="translate(541.36477 164.296786)rotate(-90)scale(0.12 -0.12)">
     <use xlink:href="#DejaVuSans-32"/>
     <use xlink:href="#DejaVuSans-33" x="63.623047"/>
     <use xlink:href="#DejaVuSans-2f" x="127.246094"/>
     <use xlink:href="#DejaVuSans-36" x="160.9375"/>
     <use xlink:href="#DejaVuSans-36" x="224.560547"/>
    </g>
   </g>
   <g id="text_67">
    <!-- 3/12 -->
    <g transform="translate(566.855862 185.096786)rotate(-90)scale(0.12 -0.12)">
     <use xlink:href="#DejaVuSans-33"/>
     <use xlink:href="#DejaVuSans-2f" x="63.623047"/>
     <use xlink:href="#DejaVuSans-31" x="97.314453"/>
     <use xlink:href="#DejaVuSans-32" x="160.9375"/>
    </g>
   </g>
   <g id="text_68">
    <!-- 21/98 -->
    <g transform="translate(592.346954 192.639643)rotate(-90)scale(0.12 -0.12)">
     <defs>
      <path id="DejaVuSans-39" d="M 703 97 
L 703 672 
Q 941 559 1184 500 
Q 1428 441 1663 441 
Q 2288 441 2617 861 
Q 2947 1281 2994 2138 
Q 2813 1869 2534 1725 
Q 2256 1581 1919 1581 
Q 1219 1581 811 2004 
Q 403 2428 403 3163 
Q 403 3881 828 4315 
Q 1253 4750 1959 4750 
Q 2769 4750 3195 4129 
Q 3622 3509 3622 2328 
Q 3622 1225 3098 567 
Q 2575 -91 1691 -91 
Q 1453 -91 1209 -44 
Q 966 3 703 97 
z
M 1959 2075 
Q 2384 2075 2632 2365 
Q 2881 2656 2881 3163 
Q 2881 3666 2632 3958 
Q 2384 4250 1959 4250 
Q 1534 4250 1286 3958 
Q 1038 3666 1038 3163 
Q 1038 2656 1286 2365 
Q 1534 2075 1959 2075 
z
" transform="scale(0.015625)"/>
     </defs>
     <use xlink:href="#DejaVuSans-32"/>
     <use xlink:href="#DejaVuSans-31" x="63.623047"/>
     <use xlink:href="#DejaVuSans-2f" x="127.246094"/>
     <use xlink:href="#DejaVuSans-39" x="160.9375"/>
     <use xlink:href="#DejaVuSans-38" x="224.560547"/>
    </g>
   </g>
   <g id="text_69">
    <!-- 6/29 -->
    <g transform="translate(617.838046 194.200234)rotate(-90)scale(0.12 -0.12)">
     <use xlink:href="#DejaVuSans-36"/>
     <use xlink:href="#DejaVuSans-2f" x="63.623047"/>
     <use xlink:href="#DejaVuSans-32" x="97.314453"/>
     <use xlink:href="#DejaVuSans-39" x="160.9375"/>
    </g>
   </g>
   <g id="text_70">
    <!-- 10/74 -->
    <g transform="translate(643.329138 209.356245)rotate(-90)scale(0.12 -0.12)">
     <defs>
      <path id="DejaVuSans-37" d="M 525 4666 
L 3525 4666 
L 3525 4397 
L 1831 0 
L 1172 0 
L 2766 4134 
L 525 4134 
L 525 4666 
z
" transform="scale(0.015625)"/>
     </defs>
     <use xlink:href="#DejaVuSans-31"/>
     <use xlink:href="#DejaVuSans-30" x="63.623047"/>
     <use xlink:href="#DejaVuSans-2f" x="127.246094"/>
     <use xlink:href="#DejaVuSans-37" x="160.9375"/>
     <use xlink:href="#DejaVuSans-34" x="224.560547"/>
    </g>
   </g>
   <g id="text_71">
    <!-- 1/11 -->
    <g transform="translate(668.82023 218.696786)rotate(-90)scale(0.12 -0.12)">
     <use xlink:href="#DejaVuSans-31"/>
     <use xlink:href="#DejaVuSans-2f" x="63.623047"/>
     <use xlink:href="#DejaVuSans-31" x="97.314453"/>
     <use xlink:href="#DejaVuSans-31" x="160.9375"/>
    </g>
   </g>
   <g id="text_72">
    <!-- 11/138 -->
    <g transform="translate(694.311321 221.062003)rotate(-90)scale(0.12 -0.12)">
     <use xlink:href="#DejaVuSans-31"/>
     <use xlink:href="#DejaVuSans-31" x="63.623047"/>
     <use xlink:href="#DejaVuSans-2f" x="127.246094"/>
     <use xlink:href="#DejaVuSans-31" x="160.9375"/>
     <use xlink:href="#DejaVuSans-33" x="224.560547"/>
     <use xlink:href="#DejaVuSans-38" x="288.183594"/>
    </g>
   </g>
   <g id="text_73">
    <!-- 1/21 -->
    <g transform="translate(719.802413 227.839643)rotate(-90)scale(0.12 -0.12)">
     <use xlink:href="#DejaVuSans-31"/>
     <use xlink:href="#DejaVuSans-2f" x="63.623047"/>
     <use xlink:href="#DejaVuSans-32" x="97.314453"/>
     <use xlink:href="#DejaVuSans-31" x="160.9375"/>
    </g>
   </g>
   <g id="text_74">
    <!-- 19/417 -->
    <g transform="translate(745.293505 228.273764)rotate(-90)scale(0.12 -0.12)">
     <use xlink:href="#DejaVuSans-31"/>
     <use xlink:href="#DejaVuSans-39" x="63.623047"/>
     <use xlink:href="#DejaVuSans-2f" x="127.246094"/>
     <use xlink:href="#DejaVuSans-34" x="160.9375"/>
     <use xlink:href="#DejaVuSans-31" x="224.560547"/>
     <use xlink:href="#DejaVuSans-37" x="288.183594"/>
    </g>
   </g>
   <g id="text_75">
    <!-- 11/264 -->
    <g transform="translate(770.784597 229.096786)rotate(-90)scale(0.12 -0.12)">
     <use xlink:href="#DejaVuSans-31"/>
     <use xlink:href="#DejaVuSans-31" x="63.623047"/>
     <use xlink:href="#DejaVuSans-2f" x="127.246094"/>
     <use xlink:href="#DejaVuSans-32" x="160.9375"/>
     <use xlink:href="#DejaVuSans-36" x="224.560547"/>
     <use xlink:href="#DejaVuSans-34" x="288.183594"/>
    </g>
   </g>
   <g id="text_76">
    <!-- 4/130 -->
    <g transform="translate(796.275689 231.398324)rotate(-90)scale(0.12 -0.12)">
     <use xlink:href="#DejaVuSans-34"/>
     <use xlink:href="#DejaVuSans-2f" x="63.623047"/>
     <use xlink:href="#DejaVuSans-31" x="97.314453"/>
     <use xlink:href="#DejaVuSans-33" x="160.9375"/>
     <use xlink:href="#DejaVuSans-30" x="224.560547"/>
    </g>
   </g>
   <g id="text_77">
    <!-- 1/39 -->
    <g transform="translate(821.76678 232.481401)rotate(-90)scale(0.12 -0.12)">
     <use xlink:href="#DejaVuSans-31"/>
     <use xlink:href="#DejaVuSans-2f" x="63.623047"/>
     <use xlink:href="#DejaVuSans-33" x="97.314453"/>
     <use xlink:href="#DejaVuSans-39" x="160.9375"/>
    </g>
   </g>
   <g id="text_78">
    <!-- 1/56 -->
    <g transform="translate(847.257872 234.125357)rotate(-90)scale(0.12 -0.12)">
     <use xlink:href="#DejaVuSans-31"/>
     <use xlink:href="#DejaVuSans-2f" x="63.623047"/>
     <use xlink:href="#DejaVuSans-35" x="97.314453"/>
     <use xlink:href="#DejaVuSans-36" x="160.9375"/>
    </g>
   </g>
   <g id="text_79">
    <!-- 1/62 -->
    <g transform="translate(872.748964 234.490334)rotate(-90)scale(0.12 -0.12)">
     <use xlink:href="#DejaVuSans-31"/>
     <use xlink:href="#DejaVuSans-2f" x="63.623047"/>
     <use xlink:href="#DejaVuSans-36" x="97.314453"/>
     <use xlink:href="#DejaVuSans-32" x="160.9375"/>
    </g>
   </g>
   <g id="text_80">
    <!-- 14/983 -->
    <g transform="translate(898.240056 234.888851)rotate(-90)scale(0.12 -0.12)">
     <use xlink:href="#DejaVuSans-31"/>
     <use xlink:href="#DejaVuSans-34" x="63.623047"/>
     <use xlink:href="#DejaVuSans-2f" x="127.246094"/>
     <use xlink:href="#DejaVuSans-39" x="160.9375"/>
     <use xlink:href="#DejaVuSans-38" x="224.560547"/>
     <use xlink:href="#DejaVuSans-33" x="288.183594"/>
    </g>
   </g>
   <g id="text_81">
    <!-- 9/904 -->
    <g transform="translate(923.731148 235.794131)rotate(-90)scale(0.12 -0.12)">
     <use xlink:href="#DejaVuSans-39"/>
     <use xlink:href="#DejaVuSans-2f" x="63.623047"/>
     <use xlink:href="#DejaVuSans-39" x="97.314453"/>
     <use xlink:href="#DejaVuSans-30" x="160.9375"/>
     <use xlink:href="#DejaVuSans-34" x="224.560547"/>
    </g>
   </g>
   <g id="text_82">
    <!-- 13/1321 -->
    <g transform="translate(949.22224 235.81836)rotate(-90)scale(0.12 -0.12)">
     <use xlink:href="#DejaVuSans-31"/>
     <use xlink:href="#DejaVuSans-33" x="63.623047"/>
     <use xlink:href="#DejaVuSans-2f" x="127.246094"/>
     <use xlink:href="#DejaVuSans-31" x="160.9375"/>
     <use xlink:href="#DejaVuSans-33" x="224.560547"/>
     <use xlink:href="#DejaVuSans-32" x="288.183594"/>
     <use xlink:href="#DejaVuSans-31" x="351.806641"/>
    </g>
   </g>
   <g id="text_83">
    <!-- 8/1109 -->
    <g transform="translate(974.713331 236.373251)rotate(-90)scale(0.12 -0.12)">
     <use xlink:href="#DejaVuSans-38"/>
     <use xlink:href="#DejaVuSans-2f" x="63.623047"/>
     <use xlink:href="#DejaVuSans-31" x="97.314453"/>
     <use xlink:href="#DejaVuSans-31" x="160.9375"/>
     <use xlink:href="#DejaVuSans-30" x="224.560547"/>
     <use xlink:href="#DejaVuSans-39" x="288.183594"/>
    </g>
   </g>
   <g id="text_84">
    <!-- 5/718 -->
    <g transform="translate(1000.204423 236.426034)rotate(-90)scale(0.12 -0.12)">
     <use xlink:href="#DejaVuSans-35"/>
     <use xlink:href="#DejaVuSans-2f" x="63.623047"/>
     <use xlink:href="#DejaVuSans-37" x="97.314453"/>
     <use xlink:href="#DejaVuSans-31" x="160.9375"/>
     <use xlink:href="#DejaVuSans-38" x="224.560547"/>
    </g>
   </g>
   <g id="text_85">
    <!-- 32/6669 -->
    <g transform="translate(1025.695515 236.88338)rotate(-90)scale(0.12 -0.12)">
     <use xlink:href="#DejaVuSans-33"/>
     <use xlink:href="#DejaVuSans-32" x="63.623047"/>
     <use xlink:href="#DejaVuSans-2f" x="127.246094"/>
     <use xlink:href="#DejaVuSans-36" x="160.9375"/>
     <use xlink:href="#DejaVuSans-36" x="224.560547"/>
     <use xlink:href="#DejaVuSans-36" x="288.183594"/>
     <use xlink:href="#DejaVuSans-39" x="351.806641"/>
    </g>
   </g>
   <g id="text_86">
    <!-- 4/887 -->
    <g transform="translate(1051.186607 236.944362)rotate(-90)scale(0.12 -0.12)">
     <use xlink:href="#DejaVuSans-34"/>
     <use xlink:href="#DejaVuSans-2f" x="63.623047"/>
     <use xlink:href="#DejaVuSans-38" x="97.314453"/>
     <use xlink:href="#DejaVuSans-38" x="160.9375"/>
     <use xlink:href="#DejaVuSans-37" x="224.560547"/>
    </g>
   </g>
   <g id="text_87">
    <!-- 233/68653 -->
    <g transform="translate(1076.677699 237.179998)rotate(-90)scale(0.12 -0.12)">
     <use xlink:href="#DejaVuSans-32"/>
     <use xlink:href="#DejaVuSans-33" x="63.623047"/>
     <use xlink:href="#DejaVuSans-33" x="127.246094"/>
     <use xlink:href="#DejaVuSans-2f" x="190.869141"/>
     <use xlink:href="#DejaVuSans-36" x="224.560547"/>
     <use xlink:href="#DejaVuSans-38" x="288.183594"/>
     <use xlink:href="#DejaVuSans-36" x="351.806641"/>
     <use xlink:href="#DejaVuSans-35" x="415.429688"/>
     <use xlink:href="#DejaVuSans-33" x="479.052734"/>
    </g>
   </g>
   <g id="text_88">
    <!-- 4/11463 -->
    <g transform="translate(1102.168791 237.823088)rotate(-90)scale(0.12 -0.12)">
     <use xlink:href="#DejaVuSans-34"/>
     <use xlink:href="#DejaVuSans-2f" x="63.623047"/>
     <use xlink:href="#DejaVuSans-31" x="97.314453"/>
     <use xlink:href="#DejaVuSans-31" x="160.9375"/>
     <use xlink:href="#DejaVuSans-34" x="224.560547"/>
     <use xlink:href="#DejaVuSans-36" x="288.183594"/>
     <use xlink:href="#DejaVuSans-33" x="351.806641"/>
    </g>
   </g>
  </g>
 </g>
 <defs>
  <clipPath id="p85bf5e9e3c">
   <rect x="43.78125" y="18.248786" width="1116" height="221.76"/>
  </clipPath>
 </defs>
</svg>
