<?xml version="1.0" encoding="utf-8" standalone="no"?>
<!DOCTYPE svg PUBLIC "-//W3C//DTD SVG 1.1//EN"
  "http://www.w3.org/Graphics/SVG/1.1/DTD/svg11.dtd">
<svg height="298.620937pt" version="1.1" viewBox="0 0 1170.165625 298.620937" width="1170.165625pt" xmlns="http://www.w3.org/2000/svg" xmlns:xlink="http://www.w3.org/1999/xlink">
 <metadata>
  <rdf:RDF xmlns:cc="http://creativecommons.org/ns#" xmlns:dc="http://purl.org/dc/elements/1.1/" xmlns:rdf="http://www.w3.org/1999/02/22-rdf-syntax-ns#">
   <cc:Work>
    <dc:type rdf:resource="http://purl.org/dc/dcmitype/StillImage"/>
    <dc:date>2021-07-18T08:12:02.618101</dc:date>
    <dc:format>image/svg+xml</dc:format>
    <dc:creator>
     <cc:Agent>
      <dc:title>Matplotlib v3.4.2, https://matplotlib.org/</dc:title>
     </cc:Agent>
    </dc:creator>
   </cc:Work>
  </rdf:RDF>
 </metadata>
 <defs>
  <style type="text/css">*{stroke-linecap:butt;stroke-linejoin:round;}</style>
 </defs>
 <g id="figure_1">
  <g id="patch_1">
   <path d="M 0 298.620937 
L 1170.165625 298.620937 
L 1170.165625 0 
L 0 0 
z
" style="fill:#ffffff;"/>
  </g>
  <g id="axes_1">
   <g id="patch_2">
    <path d="M 46.965625 228.96 
L 1162.965625 228.96 
L 1162.965625 7.2 
L 46.965625 7.2 
z
" style="fill:#ffffff;"/>
   </g>
   <g id="matplotlib.axis_1">
    <g id="xtick_1">
     <g id="line2d_1">
      <defs>
       <path d="M 0 0 
L 0 3.5 
" id="m9983d6a0c2" style="stroke:#000000;stroke-width:0.8;"/>
      </defs>
      <g>
       <use style="stroke:#000000;stroke-width:0.8;" x="75.874716" xlink:href="#m9983d6a0c2" y="228.96"/>
      </g>
     </g>
     <g id="text_1">
      <!-- 2020-10 -->
      <g transform="translate(78.634091 277.742812)rotate(-90)scale(0.1 -0.1)">
       <defs>
        <path d="M 1228 531 
L 3431 531 
L 3431 0 
L 469 0 
L 469 531 
Q 828 903 1448 1529 
Q 2069 2156 2228 2338 
Q 2531 2678 2651 2914 
Q 2772 3150 2772 3378 
Q 2772 3750 2511 3984 
Q 2250 4219 1831 4219 
Q 1534 4219 1204 4116 
Q 875 4013 500 3803 
L 500 4441 
Q 881 4594 1212 4672 
Q 1544 4750 1819 4750 
Q 2544 4750 2975 4387 
Q 3406 4025 3406 3419 
Q 3406 3131 3298 2873 
Q 3191 2616 2906 2266 
Q 2828 2175 2409 1742 
Q 1991 1309 1228 531 
z
" id="DejaVuSans-32" transform="scale(0.015625)"/>
        <path d="M 2034 4250 
Q 1547 4250 1301 3770 
Q 1056 3291 1056 2328 
Q 1056 1369 1301 889 
Q 1547 409 2034 409 
Q 2525 409 2770 889 
Q 3016 1369 3016 2328 
Q 3016 3291 2770 3770 
Q 2525 4250 2034 4250 
z
M 2034 4750 
Q 2819 4750 3233 4129 
Q 3647 3509 3647 2328 
Q 3647 1150 3233 529 
Q 2819 -91 2034 -91 
Q 1250 -91 836 529 
Q 422 1150 422 2328 
Q 422 3509 836 4129 
Q 1250 4750 2034 4750 
z
" id="DejaVuSans-30" transform="scale(0.015625)"/>
        <path d="M 313 2009 
L 1997 2009 
L 1997 1497 
L 313 1497 
L 313 2009 
z
" id="DejaVuSans-2d" transform="scale(0.015625)"/>
        <path d="M 794 531 
L 1825 531 
L 1825 4091 
L 703 3866 
L 703 4441 
L 1819 4666 
L 2450 4666 
L 2450 531 
L 3481 531 
L 3481 0 
L 794 0 
L 794 531 
z
" id="DejaVuSans-31" transform="scale(0.015625)"/>
       </defs>
       <use xlink:href="#DejaVuSans-32"/>
       <use x="63.623047" xlink:href="#DejaVuSans-30"/>
       <use x="127.246094" xlink:href="#DejaVuSans-32"/>
       <use x="190.869141" xlink:href="#DejaVuSans-30"/>
       <use x="254.492188" xlink:href="#DejaVuSans-2d"/>
       <use x="290.576172" xlink:href="#DejaVuSans-31"/>
       <use x="354.199219" xlink:href="#DejaVuSans-30"/>
      </g>
     </g>
    </g>
    <g id="xtick_2">
     <g id="line2d_2">
      <g>
       <use style="stroke:#000000;stroke-width:0.8;" x="188.601989" xlink:href="#m9983d6a0c2" y="228.96"/>
      </g>
     </g>
     <g id="text_2">
      <!-- 2020-11 -->
      <g transform="translate(191.361364 277.742812)rotate(-90)scale(0.1 -0.1)">
       <use xlink:href="#DejaVuSans-32"/>
       <use x="63.623047" xlink:href="#DejaVuSans-30"/>
       <use x="127.246094" xlink:href="#DejaVuSans-32"/>
       <use x="190.869141" xlink:href="#DejaVuSans-30"/>
       <use x="254.492188" xlink:href="#DejaVuSans-2d"/>
       <use x="290.576172" xlink:href="#DejaVuSans-31"/>
       <use x="354.199219" xlink:href="#DejaVuSans-31"/>
      </g>
     </g>
    </g>
    <g id="xtick_3">
     <g id="line2d_3">
      <g>
       <use style="stroke:#000000;stroke-width:0.8;" x="297.692898" xlink:href="#m9983d6a0c2" y="228.96"/>
      </g>
     </g>
     <g id="text_3">
      <!-- 2020-12 -->
      <g transform="translate(300.452273 277.742812)rotate(-90)scale(0.1 -0.1)">
       <use xlink:href="#DejaVuSans-32"/>
       <use x="63.623047" xlink:href="#DejaVuSans-30"/>
       <use x="127.246094" xlink:href="#DejaVuSans-32"/>
       <use x="190.869141" xlink:href="#DejaVuSans-30"/>
       <use x="254.492188" xlink:href="#DejaVuSans-2d"/>
       <use x="290.576172" xlink:href="#DejaVuSans-31"/>
       <use x="354.199219" xlink:href="#DejaVuSans-32"/>
      </g>
     </g>
    </g>
    <g id="xtick_4">
     <g id="line2d_4">
      <g>
       <use style="stroke:#000000;stroke-width:0.8;" x="410.42017" xlink:href="#m9983d6a0c2" y="228.96"/>
      </g>
     </g>
     <g id="text_4">
      <!-- 2021-01 -->
      <g transform="translate(413.179545 277.742812)rotate(-90)scale(0.1 -0.1)">
       <use xlink:href="#DejaVuSans-32"/>
       <use x="63.623047" xlink:href="#DejaVuSans-30"/>
       <use x="127.246094" xlink:href="#DejaVuSans-32"/>
       <use x="190.869141" xlink:href="#DejaVuSans-31"/>
       <use x="254.492188" xlink:href="#DejaVuSans-2d"/>
       <use x="290.576172" xlink:href="#DejaVuSans-30"/>
       <use x="354.199219" xlink:href="#DejaVuSans-31"/>
      </g>
     </g>
    </g>
    <g id="xtick_5">
     <g id="line2d_5">
      <g>
       <use style="stroke:#000000;stroke-width:0.8;" x="523.147443" xlink:href="#m9983d6a0c2" y="228.96"/>
      </g>
     </g>
     <g id="text_5">
      <!-- 2021-02 -->
      <g transform="translate(525.906818 277.742812)rotate(-90)scale(0.1 -0.1)">
       <use xlink:href="#DejaVuSans-32"/>
       <use x="63.623047" xlink:href="#DejaVuSans-30"/>
       <use x="127.246094" xlink:href="#DejaVuSans-32"/>
       <use x="190.869141" xlink:href="#DejaVuSans-31"/>
       <use x="254.492188" xlink:href="#DejaVuSans-2d"/>
       <use x="290.576172" xlink:href="#DejaVuSans-30"/>
       <use x="354.199219" xlink:href="#DejaVuSans-32"/>
      </g>
     </g>
    </g>
    <g id="xtick_6">
     <g id="line2d_6">
      <g>
       <use style="stroke:#000000;stroke-width:0.8;" x="624.965625" xlink:href="#m9983d6a0c2" y="228.96"/>
      </g>
     </g>
     <g id="text_6">
      <!-- 2021-03 -->
      <g transform="translate(627.725 277.742812)rotate(-90)scale(0.1 -0.1)">
       <defs>
        <path d="M 2597 2516 
Q 3050 2419 3304 2112 
Q 3559 1806 3559 1356 
Q 3559 666 3084 287 
Q 2609 -91 1734 -91 
Q 1441 -91 1130 -33 
Q 819 25 488 141 
L 488 750 
Q 750 597 1062 519 
Q 1375 441 1716 441 
Q 2309 441 2620 675 
Q 2931 909 2931 1356 
Q 2931 1769 2642 2001 
Q 2353 2234 1838 2234 
L 1294 2234 
L 1294 2753 
L 1863 2753 
Q 2328 2753 2575 2939 
Q 2822 3125 2822 3475 
Q 2822 3834 2567 4026 
Q 2313 4219 1838 4219 
Q 1578 4219 1281 4162 
Q 984 4106 628 3988 
L 628 4550 
Q 988 4650 1302 4700 
Q 1616 4750 1894 4750 
Q 2613 4750 3031 4423 
Q 3450 4097 3450 3541 
Q 3450 3153 3228 2886 
Q 3006 2619 2597 2516 
z
" id="DejaVuSans-33" transform="scale(0.015625)"/>
       </defs>
       <use xlink:href="#DejaVuSans-32"/>
       <use x="63.623047" xlink:href="#DejaVuSans-30"/>
       <use x="127.246094" xlink:href="#DejaVuSans-32"/>
       <use x="190.869141" xlink:href="#DejaVuSans-31"/>
       <use x="254.492188" xlink:href="#DejaVuSans-2d"/>
       <use x="290.576172" xlink:href="#DejaVuSans-30"/>
       <use x="354.199219" xlink:href="#DejaVuSans-33"/>
      </g>
     </g>
    </g>
    <g id="xtick_7">
     <g id="line2d_7">
      <g>
       <use style="stroke:#000000;stroke-width:0.8;" x="737.692898" xlink:href="#m9983d6a0c2" y="228.96"/>
      </g>
     </g>
     <g id="text_7">
      <!-- 2021-04 -->
      <g transform="translate(740.452273 277.742812)rotate(-90)scale(0.1 -0.1)">
       <defs>
        <path d="M 2419 4116 
L 825 1625 
L 2419 1625 
L 2419 4116 
z
M 2253 4666 
L 3047 4666 
L 3047 1625 
L 3713 1625 
L 3713 1100 
L 3047 1100 
L 3047 0 
L 2419 0 
L 2419 1100 
L 313 1100 
L 313 1709 
L 2253 4666 
z
" id="DejaVuSans-34" transform="scale(0.015625)"/>
       </defs>
       <use xlink:href="#DejaVuSans-32"/>
       <use x="63.623047" xlink:href="#DejaVuSans-30"/>
       <use x="127.246094" xlink:href="#DejaVuSans-32"/>
       <use x="190.869141" xlink:href="#DejaVuSans-31"/>
       <use x="254.492188" xlink:href="#DejaVuSans-2d"/>
       <use x="290.576172" xlink:href="#DejaVuSans-30"/>
       <use x="354.199219" xlink:href="#DejaVuSans-34"/>
      </g>
     </g>
    </g>
    <g id="xtick_8">
     <g id="line2d_8">
      <g>
       <use style="stroke:#000000;stroke-width:0.8;" x="846.783807" xlink:href="#m9983d6a0c2" y="228.96"/>
      </g>
     </g>
     <g id="text_8">
      <!-- 2021-05 -->
      <g transform="translate(849.543182 277.742812)rotate(-90)scale(0.1 -0.1)">
       <defs>
        <path d="M 691 4666 
L 3169 4666 
L 3169 4134 
L 1269 4134 
L 1269 2991 
Q 1406 3038 1543 3061 
Q 1681 3084 1819 3084 
Q 2600 3084 3056 2656 
Q 3513 2228 3513 1497 
Q 3513 744 3044 326 
Q 2575 -91 1722 -91 
Q 1428 -91 1123 -41 
Q 819 9 494 109 
L 494 744 
Q 775 591 1075 516 
Q 1375 441 1709 441 
Q 2250 441 2565 725 
Q 2881 1009 2881 1497 
Q 2881 1984 2565 2268 
Q 2250 2553 1709 2553 
Q 1456 2553 1204 2497 
Q 953 2441 691 2322 
L 691 4666 
z
" id="DejaVuSans-35" transform="scale(0.015625)"/>
       </defs>
       <use xlink:href="#DejaVuSans-32"/>
       <use x="63.623047" xlink:href="#DejaVuSans-30"/>
       <use x="127.246094" xlink:href="#DejaVuSans-32"/>
       <use x="190.869141" xlink:href="#DejaVuSans-31"/>
       <use x="254.492188" xlink:href="#DejaVuSans-2d"/>
       <use x="290.576172" xlink:href="#DejaVuSans-30"/>
       <use x="354.199219" xlink:href="#DejaVuSans-35"/>
      </g>
     </g>
    </g>
    <g id="xtick_9">
     <g id="line2d_9">
      <g>
       <use style="stroke:#000000;stroke-width:0.8;" x="959.51108" xlink:href="#m9983d6a0c2" y="228.96"/>
      </g>
     </g>
     <g id="text_9">
      <!-- 2021-06 -->
      <g transform="translate(962.270455 277.742812)rotate(-90)scale(0.1 -0.1)">
       <defs>
        <path d="M 2113 2584 
Q 1688 2584 1439 2293 
Q 1191 2003 1191 1497 
Q 1191 994 1439 701 
Q 1688 409 2113 409 
Q 2538 409 2786 701 
Q 3034 994 3034 1497 
Q 3034 2003 2786 2293 
Q 2538 2584 2113 2584 
z
M 3366 4563 
L 3366 3988 
Q 3128 4100 2886 4159 
Q 2644 4219 2406 4219 
Q 1781 4219 1451 3797 
Q 1122 3375 1075 2522 
Q 1259 2794 1537 2939 
Q 1816 3084 2150 3084 
Q 2853 3084 3261 2657 
Q 3669 2231 3669 1497 
Q 3669 778 3244 343 
Q 2819 -91 2113 -91 
Q 1303 -91 875 529 
Q 447 1150 447 2328 
Q 447 3434 972 4092 
Q 1497 4750 2381 4750 
Q 2619 4750 2861 4703 
Q 3103 4656 3366 4563 
z
" id="DejaVuSans-36" transform="scale(0.015625)"/>
       </defs>
       <use xlink:href="#DejaVuSans-32"/>
       <use x="63.623047" xlink:href="#DejaVuSans-30"/>
       <use x="127.246094" xlink:href="#DejaVuSans-32"/>
       <use x="190.869141" xlink:href="#DejaVuSans-31"/>
       <use x="254.492188" xlink:href="#DejaVuSans-2d"/>
       <use x="290.576172" xlink:href="#DejaVuSans-30"/>
       <use x="354.199219" xlink:href="#DejaVuSans-36"/>
      </g>
     </g>
    </g>
    <g id="xtick_10">
     <g id="line2d_10">
      <g>
       <use style="stroke:#000000;stroke-width:0.8;" x="1068.601989" xlink:href="#m9983d6a0c2" y="228.96"/>
      </g>
     </g>
     <g id="text_10">
      <!-- 2021-07 -->
      <g transform="translate(1071.361364 277.742812)rotate(-90)scale(0.1 -0.1)">
       <defs>
        <path d="M 525 4666 
L 3525 4666 
L 3525 4397 
L 1831 0 
L 1172 0 
L 2766 4134 
L 525 4134 
L 525 4666 
z
" id="DejaVuSans-37" transform="scale(0.015625)"/>
       </defs>
       <use xlink:href="#DejaVuSans-32"/>
       <use x="63.623047" xlink:href="#DejaVuSans-30"/>
       <use x="127.246094" xlink:href="#DejaVuSans-32"/>
       <use x="190.869141" xlink:href="#DejaVuSans-31"/>
       <use x="254.492188" xlink:href="#DejaVuSans-2d"/>
       <use x="290.576172" xlink:href="#DejaVuSans-30"/>
       <use x="354.199219" xlink:href="#DejaVuSans-37"/>
      </g>
     </g>
    </g>
    <g id="text_11">
     <!-- Date -->
     <g transform="translate(593.014844 289.34125)scale(0.1 -0.1)">
      <defs>
       <path d="M 1259 4147 
L 1259 519 
L 2022 519 
Q 2988 519 3436 956 
Q 3884 1394 3884 2338 
Q 3884 3275 3436 3711 
Q 2988 4147 2022 4147 
L 1259 4147 
z
M 628 4666 
L 1925 4666 
Q 3281 4666 3915 4102 
Q 4550 3538 4550 2338 
Q 4550 1131 3912 565 
Q 3275 0 1925 0 
L 628 0 
L 628 4666 
z
" id="DejaVuSans-44" transform="scale(0.015625)"/>
       <path d="M 2194 1759 
Q 1497 1759 1228 1600 
Q 959 1441 959 1056 
Q 959 750 1161 570 
Q 1363 391 1709 391 
Q 2188 391 2477 730 
Q 2766 1069 2766 1631 
L 2766 1759 
L 2194 1759 
z
M 3341 1997 
L 3341 0 
L 2766 0 
L 2766 531 
Q 2569 213 2275 61 
Q 1981 -91 1556 -91 
Q 1019 -91 701 211 
Q 384 513 384 1019 
Q 384 1609 779 1909 
Q 1175 2209 1959 2209 
L 2766 2209 
L 2766 2266 
Q 2766 2663 2505 2880 
Q 2244 3097 1772 3097 
Q 1472 3097 1187 3025 
Q 903 2953 641 2809 
L 641 3341 
Q 956 3463 1253 3523 
Q 1550 3584 1831 3584 
Q 2591 3584 2966 3190 
Q 3341 2797 3341 1997 
z
" id="DejaVuSans-61" transform="scale(0.015625)"/>
       <path d="M 1172 4494 
L 1172 3500 
L 2356 3500 
L 2356 3053 
L 1172 3053 
L 1172 1153 
Q 1172 725 1289 603 
Q 1406 481 1766 481 
L 2356 481 
L 2356 0 
L 1766 0 
Q 1100 0 847 248 
Q 594 497 594 1153 
L 594 3053 
L 172 3053 
L 172 3500 
L 594 3500 
L 594 4494 
L 1172 4494 
z
" id="DejaVuSans-74" transform="scale(0.015625)"/>
       <path d="M 3597 1894 
L 3597 1613 
L 953 1613 
Q 991 1019 1311 708 
Q 1631 397 2203 397 
Q 2534 397 2845 478 
Q 3156 559 3463 722 
L 3463 178 
Q 3153 47 2828 -22 
Q 2503 -91 2169 -91 
Q 1331 -91 842 396 
Q 353 884 353 1716 
Q 353 2575 817 3079 
Q 1281 3584 2069 3584 
Q 2775 3584 3186 3129 
Q 3597 2675 3597 1894 
z
M 3022 2063 
Q 3016 2534 2758 2815 
Q 2500 3097 2075 3097 
Q 1594 3097 1305 2825 
Q 1016 2553 972 2059 
L 3022 2063 
z
" id="DejaVuSans-65" transform="scale(0.015625)"/>
      </defs>
      <use xlink:href="#DejaVuSans-44"/>
      <use x="77.001953" xlink:href="#DejaVuSans-61"/>
      <use x="138.28125" xlink:href="#DejaVuSans-74"/>
      <use x="177.490234" xlink:href="#DejaVuSans-65"/>
     </g>
    </g>
   </g>
   <g id="matplotlib.axis_2">
    <g id="ytick_1">
     <g id="line2d_11">
      <defs>
       <path d="M 0 0 
L -3.5 0 
" id="m0d0075d548" style="stroke:#000000;stroke-width:0.8;"/>
      </defs>
      <g>
       <use style="stroke:#000000;stroke-width:0.8;" x="46.965625" xlink:href="#m0d0075d548" y="228.96"/>
      </g>
     </g>
     <g id="text_12">
      <!-- 1 -->
      <g transform="translate(33.603125 232.759219)scale(0.1 -0.1)">
       <use xlink:href="#DejaVuSans-31"/>
      </g>
     </g>
    </g>
    <g id="ytick_2">
     <g id="line2d_12">
      <g>
       <use style="stroke:#000000;stroke-width:0.8;" x="46.965625" xlink:href="#m0d0075d548" y="188.99089"/>
      </g>
     </g>
     <g id="text_13">
      <!-- 3 -->
      <g transform="translate(33.603125 192.790109)scale(0.1 -0.1)">
       <use xlink:href="#DejaVuSans-33"/>
      </g>
     </g>
    </g>
    <g id="ytick_3">
     <g id="line2d_13">
      <g>
       <use style="stroke:#000000;stroke-width:0.8;" x="46.965625" xlink:href="#m0d0075d548" y="149.021781"/>
      </g>
     </g>
     <g id="text_14">
      <!-- 10 -->
      <g transform="translate(27.240625 152.820999)scale(0.1 -0.1)">
       <use xlink:href="#DejaVuSans-31"/>
       <use x="63.623047" xlink:href="#DejaVuSans-30"/>
      </g>
     </g>
    </g>
    <g id="ytick_4">
     <g id="line2d_14">
      <g>
       <use style="stroke:#000000;stroke-width:0.8;" x="46.965625" xlink:href="#m0d0075d548" y="109.052671"/>
      </g>
     </g>
     <g id="text_15">
      <!-- 31 -->
      <g transform="translate(27.240625 112.85189)scale(0.1 -0.1)">
       <use xlink:href="#DejaVuSans-33"/>
       <use x="63.623047" xlink:href="#DejaVuSans-31"/>
      </g>
     </g>
    </g>
    <g id="ytick_5">
     <g id="line2d_15">
      <g>
       <use style="stroke:#000000;stroke-width:0.8;" x="46.965625" xlink:href="#m0d0075d548" y="69.083561"/>
      </g>
     </g>
     <g id="text_16">
      <!-- 100 -->
      <g transform="translate(20.878125 72.88278)scale(0.1 -0.1)">
       <use xlink:href="#DejaVuSans-31"/>
       <use x="63.623047" xlink:href="#DejaVuSans-30"/>
       <use x="127.246094" xlink:href="#DejaVuSans-30"/>
      </g>
     </g>
    </g>
    <g id="ytick_6">
     <g id="line2d_16">
      <g>
       <use style="stroke:#000000;stroke-width:0.8;" x="46.965625" xlink:href="#m0d0075d548" y="29.114451"/>
      </g>
     </g>
     <g id="text_17">
      <!-- 316 -->
      <g transform="translate(20.878125 32.91367)scale(0.1 -0.1)">
       <use xlink:href="#DejaVuSans-33"/>
       <use x="63.623047" xlink:href="#DejaVuSans-31"/>
       <use x="127.246094" xlink:href="#DejaVuSans-36"/>
      </g>
     </g>
    </g>
    <g id="text_18">
     <!-- Count (7 day rolling average) -->
     <g transform="translate(14.798438 191.547969)rotate(-90)scale(0.1 -0.1)">
      <defs>
       <path d="M 4122 4306 
L 4122 3641 
Q 3803 3938 3442 4084 
Q 3081 4231 2675 4231 
Q 1875 4231 1450 3742 
Q 1025 3253 1025 2328 
Q 1025 1406 1450 917 
Q 1875 428 2675 428 
Q 3081 428 3442 575 
Q 3803 722 4122 1019 
L 4122 359 
Q 3791 134 3420 21 
Q 3050 -91 2638 -91 
Q 1578 -91 968 557 
Q 359 1206 359 2328 
Q 359 3453 968 4101 
Q 1578 4750 2638 4750 
Q 3056 4750 3426 4639 
Q 3797 4528 4122 4306 
z
" id="DejaVuSans-43" transform="scale(0.015625)"/>
       <path d="M 1959 3097 
Q 1497 3097 1228 2736 
Q 959 2375 959 1747 
Q 959 1119 1226 758 
Q 1494 397 1959 397 
Q 2419 397 2687 759 
Q 2956 1122 2956 1747 
Q 2956 2369 2687 2733 
Q 2419 3097 1959 3097 
z
M 1959 3584 
Q 2709 3584 3137 3096 
Q 3566 2609 3566 1747 
Q 3566 888 3137 398 
Q 2709 -91 1959 -91 
Q 1206 -91 779 398 
Q 353 888 353 1747 
Q 353 2609 779 3096 
Q 1206 3584 1959 3584 
z
" id="DejaVuSans-6f" transform="scale(0.015625)"/>
       <path d="M 544 1381 
L 544 3500 
L 1119 3500 
L 1119 1403 
Q 1119 906 1312 657 
Q 1506 409 1894 409 
Q 2359 409 2629 706 
Q 2900 1003 2900 1516 
L 2900 3500 
L 3475 3500 
L 3475 0 
L 2900 0 
L 2900 538 
Q 2691 219 2414 64 
Q 2138 -91 1772 -91 
Q 1169 -91 856 284 
Q 544 659 544 1381 
z
M 1991 3584 
L 1991 3584 
z
" id="DejaVuSans-75" transform="scale(0.015625)"/>
       <path d="M 3513 2113 
L 3513 0 
L 2938 0 
L 2938 2094 
Q 2938 2591 2744 2837 
Q 2550 3084 2163 3084 
Q 1697 3084 1428 2787 
Q 1159 2491 1159 1978 
L 1159 0 
L 581 0 
L 581 3500 
L 1159 3500 
L 1159 2956 
Q 1366 3272 1645 3428 
Q 1925 3584 2291 3584 
Q 2894 3584 3203 3211 
Q 3513 2838 3513 2113 
z
" id="DejaVuSans-6e" transform="scale(0.015625)"/>
       <path id="DejaVuSans-20" transform="scale(0.015625)"/>
       <path d="M 1984 4856 
Q 1566 4138 1362 3434 
Q 1159 2731 1159 2009 
Q 1159 1288 1364 580 
Q 1569 -128 1984 -844 
L 1484 -844 
Q 1016 -109 783 600 
Q 550 1309 550 2009 
Q 550 2706 781 3412 
Q 1013 4119 1484 4856 
L 1984 4856 
z
" id="DejaVuSans-28" transform="scale(0.015625)"/>
       <path d="M 2906 2969 
L 2906 4863 
L 3481 4863 
L 3481 0 
L 2906 0 
L 2906 525 
Q 2725 213 2448 61 
Q 2172 -91 1784 -91 
Q 1150 -91 751 415 
Q 353 922 353 1747 
Q 353 2572 751 3078 
Q 1150 3584 1784 3584 
Q 2172 3584 2448 3432 
Q 2725 3281 2906 2969 
z
M 947 1747 
Q 947 1113 1208 752 
Q 1469 391 1925 391 
Q 2381 391 2643 752 
Q 2906 1113 2906 1747 
Q 2906 2381 2643 2742 
Q 2381 3103 1925 3103 
Q 1469 3103 1208 2742 
Q 947 2381 947 1747 
z
" id="DejaVuSans-64" transform="scale(0.015625)"/>
       <path d="M 2059 -325 
Q 1816 -950 1584 -1140 
Q 1353 -1331 966 -1331 
L 506 -1331 
L 506 -850 
L 844 -850 
Q 1081 -850 1212 -737 
Q 1344 -625 1503 -206 
L 1606 56 
L 191 3500 
L 800 3500 
L 1894 763 
L 2988 3500 
L 3597 3500 
L 2059 -325 
z
" id="DejaVuSans-79" transform="scale(0.015625)"/>
       <path d="M 2631 2963 
Q 2534 3019 2420 3045 
Q 2306 3072 2169 3072 
Q 1681 3072 1420 2755 
Q 1159 2438 1159 1844 
L 1159 0 
L 581 0 
L 581 3500 
L 1159 3500 
L 1159 2956 
Q 1341 3275 1631 3429 
Q 1922 3584 2338 3584 
Q 2397 3584 2469 3576 
Q 2541 3569 2628 3553 
L 2631 2963 
z
" id="DejaVuSans-72" transform="scale(0.015625)"/>
       <path d="M 603 4863 
L 1178 4863 
L 1178 0 
L 603 0 
L 603 4863 
z
" id="DejaVuSans-6c" transform="scale(0.015625)"/>
       <path d="M 603 3500 
L 1178 3500 
L 1178 0 
L 603 0 
L 603 3500 
z
M 603 4863 
L 1178 4863 
L 1178 4134 
L 603 4134 
L 603 4863 
z
" id="DejaVuSans-69" transform="scale(0.015625)"/>
       <path d="M 2906 1791 
Q 2906 2416 2648 2759 
Q 2391 3103 1925 3103 
Q 1463 3103 1205 2759 
Q 947 2416 947 1791 
Q 947 1169 1205 825 
Q 1463 481 1925 481 
Q 2391 481 2648 825 
Q 2906 1169 2906 1791 
z
M 3481 434 
Q 3481 -459 3084 -895 
Q 2688 -1331 1869 -1331 
Q 1566 -1331 1297 -1286 
Q 1028 -1241 775 -1147 
L 775 -588 
Q 1028 -725 1275 -790 
Q 1522 -856 1778 -856 
Q 2344 -856 2625 -561 
Q 2906 -266 2906 331 
L 2906 616 
Q 2728 306 2450 153 
Q 2172 0 1784 0 
Q 1141 0 747 490 
Q 353 981 353 1791 
Q 353 2603 747 3093 
Q 1141 3584 1784 3584 
Q 2172 3584 2450 3431 
Q 2728 3278 2906 2969 
L 2906 3500 
L 3481 3500 
L 3481 434 
z
" id="DejaVuSans-67" transform="scale(0.015625)"/>
       <path d="M 191 3500 
L 800 3500 
L 1894 563 
L 2988 3500 
L 3597 3500 
L 2284 0 
L 1503 0 
L 191 3500 
z
" id="DejaVuSans-76" transform="scale(0.015625)"/>
       <path d="M 513 4856 
L 1013 4856 
Q 1481 4119 1714 3412 
Q 1947 2706 1947 2009 
Q 1947 1309 1714 600 
Q 1481 -109 1013 -844 
L 513 -844 
Q 928 -128 1133 580 
Q 1338 1288 1338 2009 
Q 1338 2731 1133 3434 
Q 928 4138 513 4856 
z
" id="DejaVuSans-29" transform="scale(0.015625)"/>
      </defs>
      <use xlink:href="#DejaVuSans-43"/>
      <use x="69.824219" xlink:href="#DejaVuSans-6f"/>
      <use x="131.005859" xlink:href="#DejaVuSans-75"/>
      <use x="194.384766" xlink:href="#DejaVuSans-6e"/>
      <use x="257.763672" xlink:href="#DejaVuSans-74"/>
      <use x="296.972656" xlink:href="#DejaVuSans-20"/>
      <use x="328.759766" xlink:href="#DejaVuSans-28"/>
      <use x="367.773438" xlink:href="#DejaVuSans-37"/>
      <use x="431.396484" xlink:href="#DejaVuSans-20"/>
      <use x="463.183594" xlink:href="#DejaVuSans-64"/>
      <use x="526.660156" xlink:href="#DejaVuSans-61"/>
      <use x="587.939453" xlink:href="#DejaVuSans-79"/>
      <use x="647.119141" xlink:href="#DejaVuSans-20"/>
      <use x="678.90625" xlink:href="#DejaVuSans-72"/>
      <use x="717.769531" xlink:href="#DejaVuSans-6f"/>
      <use x="778.951172" xlink:href="#DejaVuSans-6c"/>
      <use x="806.734375" xlink:href="#DejaVuSans-6c"/>
      <use x="834.517578" xlink:href="#DejaVuSans-69"/>
      <use x="862.300781" xlink:href="#DejaVuSans-6e"/>
      <use x="925.679688" xlink:href="#DejaVuSans-67"/>
      <use x="989.15625" xlink:href="#DejaVuSans-20"/>
      <use x="1020.943359" xlink:href="#DejaVuSans-61"/>
      <use x="1082.222656" xlink:href="#DejaVuSans-76"/>
      <use x="1141.402344" xlink:href="#DejaVuSans-65"/>
      <use x="1202.925781" xlink:href="#DejaVuSans-72"/>
      <use x="1244.039062" xlink:href="#DejaVuSans-61"/>
      <use x="1305.318359" xlink:href="#DejaVuSans-67"/>
      <use x="1368.794922" xlink:href="#DejaVuSans-65"/>
      <use x="1430.318359" xlink:href="#DejaVuSans-29"/>
     </g>
    </g>
   </g>
   <g id="line2d_17">
    <path clip-path="url(#pee4d130770)" d="M 472.238352 210.247805 
L 475.874716 210.247805 
L 479.51108 204.896198 
L 483.147443 202.500991 
L 486.783807 196.171384 
L 490.42017 196.171384 
L 494.056534 194.294347 
L 497.692898 189.204754 
L 501.329261 190.819776 
L 504.965625 184.766797 
L 508.601989 186.184003 
L 512.238352 182.094962 
L 515.874716 177.298834 
L 519.51108 176.196623 
L 523.147443 180.832396 
L 526.783807 177.298834 
L 530.42017 183.405183 
L 537.692898 180.832396 
L 541.329261 179.614141 
L 544.965625 182.094962 
L 548.601989 174.091935 
L 552.238352 172.107582 
L 555.874716 162.851107 
L 559.51108 157.394138 
L 563.147443 156.154123 
L 566.783807 158.03116 
L 570.42017 154.373388 
L 574.056534 158.03116 
L 577.692898 156.154123 
L 581.329261 158.03116 
L 584.965625 161.404367 
L 588.601989 162.851107 
L 592.238352 161.404367 
L 595.874716 161.404367 
L 599.51108 157.394138 
L 603.147443 154.956876 
L 606.783807 151.06453 
L 610.42017 148.529336 
L 614.056534 148.04378 
L 617.692898 145.712923 
L 621.329261 146.166743 
L 624.965625 144.386008 
L 628.601989 134.616288 
L 632.238352 134.290307 
L 635.874716 133.647386 
L 639.51108 132.396197 
L 643.147443 130.309586 
L 646.783807 129.452339 
L 650.42017 127.530765 
L 654.056534 134.290307 
L 657.692898 134.945359 
L 661.329261 133.330336 
L 664.965625 132.090321 
L 668.601989 130.309586 
L 672.238352 127.264735 
L 675.874716 124.710884 
L 679.51108 117.811469 
L 683.147443 115.470129 
L 686.783807 114.723503 
L 690.42017 111.213777 
L 694.056534 111.213777 
L 697.692898 110.881557 
L 701.329261 108.026519 
L 704.965625 110.552486 
L 708.601989 109.266534 
L 712.238352 106.97669 
L 715.874716 107.723315 
L 719.51108 108.332396 
L 723.147443 107.5727 
L 726.783807 107.723315 
L 730.42017 107.422735 
L 734.056534 108.640991 
L 737.692898 107.874586 
L 741.329261 107.273416 
L 744.965625 105.957677 
L 748.601989 107.874586 
L 752.238352 110.716632 
L 755.874716 103.466963 
L 759.51108 97.026262 
L 770.42017 91.595519 
L 774.056534 91.595519 
L 777.692898 89.928796 
L 781.329261 92.949546 
L 784.965625 94.153715 
L 788.601989 93.950098 
L 792.238352 92.362771 
L 795.874716 94.153715 
L 799.51108 94.051757 
L 806.783807 88.772947 
L 817.692898 92.752851 
L 821.329261 92.851059 
L 824.965625 92.169362 
L 828.601989 94.255974 
L 832.238352 96.915523 
L 839.51108 97.925127 
L 843.147443 99.916176 
L 846.783807 98.73119 
L 850.42017 98.268293 
L 854.056534 97.026262 
L 857.692898 98.039139 
L 861.329261 96.476064 
L 868.601989 94.771834 
L 872.238352 94.153715 
L 875.874716 92.752851 
L 879.51108 92.265932 
L 883.147443 92.459881 
L 886.783807 92.265932 
L 890.42017 92.654919 
L 894.056534 92.654919 
L 901.329261 94.358535 
L 904.965625 93.048314 
L 908.601989 90.475528 
L 912.238352 91.21816 
L 915.874716 90.201086 
L 919.51108 87.569772 
L 923.147443 87.485405 
L 930.42017 88.772947 
L 934.056534 89.212962 
L 937.692898 90.659702 
L 941.329261 91.785748 
L 944.965625 95.08507 
L 948.601989 97.026262 
L 952.238352 96.367064 
L 955.874716 96.476064 
L 959.51108 98.73119 
L 963.147443 97.925127 
L 966.783807 97.585319 
L 970.42017 95.401157 
L 974.056534 94.771834 
L 977.692898 95.401157 
L 981.329261 98.49897 
L 984.965625 98.73119 
L 988.601989 101.393707 
L 992.238352 103.068679 
L 995.874716 107.422735 
L 999.51108 108.640991 
L 1003.147443 110.881557 
L 1006.783807 110.389113 
L 1014.056534 114.723503 
L 1017.692898 115.470129 
L 1021.329261 118.0139 
L 1024.965625 118.422336 
L 1028.601989 119.253914 
L 1032.238352 120.322206 
L 1035.874716 111.213777 
L 1039.51108 107.723315 
L 1043.147443 110.389113 
L 1050.42017 110.389113 
L 1054.056534 109.903556 
L 1057.692898 114.539329 
L 1061.329261 122.562772 
L 1064.965625 127.264735 
L 1068.601989 125.964331 
L 1072.238352 127.530765 
L 1075.874716 130.309586 
L 1079.51108 132.090321 
L 1083.147443 134.616288 
L 1086.783807 145.712923 
L 1090.42017 149.52131 
L 1094.056534 158.03116 
L 1097.692898 165.939073 
L 1101.329261 168.449809 
L 1104.965625 169.328761 
L 1108.601989 178.43719 
L 1112.238352 178.43719 
L 1112.238352 178.43719 
" style="fill:none;stroke:#947383;stroke-linecap:square;stroke-width:2;"/>
   </g>
   <g id="line2d_18">
    <path clip-path="url(#pee4d130770)" d="M 646.783807 216.577413 
L 650.42017 220.235185 
L 654.056534 216.577413 
L 657.692898 216.577413 
L 661.329261 216.577413 
L 664.965625 216.577413 
L 668.601989 224.324227 
L 672.238352 224.324227 
L 675.874716 224.324227 
L 679.51108 228.96 
L 683.147443 228.96 
L 686.783807 224.324227 
L 690.42017 224.324227 
L 694.056534 224.324227 
L 697.692898 224.324227 
L 701.329261 224.324227 
L 704.965625 224.324227 
L 708.601989 224.324227 
L 712.238352 228.96 
L 715.874716 228.96 
L 719.51108 224.324227 
L 723.147443 224.324227 
L 726.783807 224.324227 
L 730.42017 224.324227 
L 734.056534 224.324227 
L 737.692898 224.324227 
L 741.329261 224.324227 
L 744.965625 228.96 
L 748.601989 228.96 
L 752.238352 224.324227 
L 755.874716 224.324227 
L 759.51108 224.324227 
L 763.147443 220.235185 
L 766.783807 220.235185 
L 770.42017 220.235185 
L 774.056534 220.235185 
L 777.692898 224.324227 
L 781.329261 220.235185 
L 784.965625 220.235185 
L 788.601989 224.324227 
L 792.238352 224.324227 
L 795.874716 224.324227 
L 799.51108 224.324227 
L 803.147443 224.324227 
L 806.783807 228.96 
L 810.42017 228.96 
L 814.056534 224.324227 
L 817.692898 224.324227 
L 821.329261 224.324227 
L 824.965625 224.324227 
L 828.601989 224.324227 
L 832.238352 224.324227 
L 835.874716 224.324227 
L 839.51108 228.96 
L 843.147443 224.324227 
L 846.783807 224.324227 
L 850.42017 224.324227 
L 854.056534 224.324227 
L 857.692898 224.324227 
L 861.329261 224.324227 
L 864.965625 224.324227 
L 868.601989 228.96 
L 872.238352 228.96 
L 875.874716 228.96 
L 879.51108 228.96 
L 883.147443 228.96 
L 886.783807 228.96 
L 890.42017 224.324227 
L 894.056534 224.324227 
L 897.692898 224.324227 
L 901.329261 224.324227 
L 904.965625 224.324227 
L 908.601989 224.324227 
L 912.238352 224.324227 
L 915.874716 228.96 
L 919.51108 228.96 
L 923.147443 228.96 
L 926.783807 228.96 
L 930.42017 228.96 
L 934.056534 228.96 
L 937.692898 228.96 
L 941.329261 228.96 
L 944.965625 228.96 
L 948.601989 228.96 
L 952.238352 228.96 
L 955.874716 224.324227 
" style="fill:none;stroke:#96c6ad;stroke-linecap:square;stroke-width:2;"/>
   </g>
   <g id="line2d_19">
    <path clip-path="url(#pee4d130770)" d="M 97.692898 224.324227 
L 101.329261 228.96 
L 163.147443 228.96 
L 166.783807 220.235185 
L 188.601989 220.235185 
L 192.238352 228.96 
L 195.874716 224.324227 
L 217.692898 224.324227 
L 221.329261 228.96 
L 246.783807 228.96 
L 250.42017 220.235185 
L 254.056534 220.235185 
L 257.692898 216.577413 
L 272.238352 216.577413 
L 275.874716 224.324227 
L 279.51108 224.324227 
L 283.147443 228.96 
L 290.42017 228.96 
L 294.056534 224.324227 
L 301.329261 224.324227 
L 304.965625 220.235185 
L 308.601989 213.268556 
L 312.238352 213.268556 
L 315.874716 210.247805 
L 319.51108 207.468984 
L 326.783807 207.468984 
L 330.42017 210.247805 
L 334.056534 216.577413 
L 337.692898 216.577413 
L 341.329261 220.235185 
L 344.965625 228.96 
L 348.601989 228.96 
L 352.238352 207.468984 
L 355.874716 192.513611 
L 359.51108 184.766797 
L 366.783807 184.766797 
L 370.42017 166.755975 
L 374.056534 162.120202 
L 377.692898 155.550339 
L 381.329261 159.341381 
L 384.965625 161.404367 
L 388.601989 160.015513 
L 392.238352 158.03116 
L 395.874716 157.394138 
L 399.51108 153.799544 
L 403.147443 156.154123 
L 406.783807 156.154123 
L 410.42017 155.550339 
L 414.056534 154.373388 
L 421.329261 154.373388 
L 424.965625 151.594567 
L 428.601989 153.799544 
L 432.238352 148.529336 
L 435.874716 143.528761 
L 439.51108 144.386008 
L 443.147443 144.822702 
L 446.783807 145.712923 
L 450.42017 149.021781 
L 454.056534 146.166743 
L 457.692898 146.626574 
L 461.329261 145.264959 
L 464.965625 144.386008 
L 472.238352 136.988109 
L 475.874716 125.457509 
L 479.51108 125.709995 
L 483.147443 124.710884 
L 486.783807 124.710884 
L 490.42017 122.332095 
L 494.056534 123.264144 
L 497.692898 123.739723 
L 501.329261 129.735743 
L 504.965625 127.264735 
L 508.601989 125.457509 
L 512.238352 125.206845 
L 515.874716 125.709995 
L 519.51108 125.964331 
L 523.147443 124.710884 
L 526.783807 126.220544 
L 530.42017 124.221907 
L 534.056534 123.979978 
L 537.692898 120.322206 
L 541.329261 120.539866 
L 544.965625 119.677294 
L 548.601989 118.0139 
L 552.238352 114.173887 
L 555.874716 114.173887 
L 559.51108 109.424697 
L 563.147443 110.389113 
L 566.783807 110.226505 
L 570.42017 109.583584 
L 574.056534 104.414457 
L 577.692898 106.682478 
L 581.329261 105.957677 
L 584.965625 103.86987 
L 588.601989 100.647082 
L 592.238352 99.318627 
L 595.874716 97.026262 
L 599.51108 96.258404 
L 603.147443 92.851059 
L 606.783807 88.772947 
L 610.42017 89.569034 
L 614.056534 86.081684 
L 617.692898 83.209614 
L 621.329261 83.659513 
L 624.965625 85.360896 
L 628.601989 81.82222 
L 632.238352 83.508898 
L 635.874716 81.113691 
L 639.51108 82.691996 
L 643.147443 85.360896 
L 646.783807 85.281724 
L 650.42017 81.324736 
L 654.056534 80.145433 
L 657.692898 78.157291 
L 661.329261 79.269892 
L 664.965625 80.145433 
L 672.238352 79.203448 
L 675.874716 79.336463 
L 679.51108 80.695412 
L 683.147443 81.608139 
L 686.783807 82.691996 
L 690.42017 82.545512 
L 694.056534 81.965678 
L 697.692898 70.6561 
L 701.329261 61.416191 
L 704.965625 59.295131 
L 712.238352 53.297564 
L 715.874716 51.102272 
L 719.51108 51.131831 
L 723.147443 56.424346 
L 726.783807 62.017882 
L 730.42017 62.017882 
L 734.056534 63.760306 
L 737.692898 67.436992 
L 741.329261 71.978298 
L 744.965625 71.284474 
L 748.601989 67.342525 
L 752.238352 60.435981 
L 755.874716 60.629821 
L 759.51108 57.508785 
L 763.147443 51.939581 
L 766.783807 47.833728 
L 770.42017 47.459276 
L 774.056534 49.683884 
L 777.692898 52.859689 
L 781.329261 53.645525 
L 784.965625 53.836802 
L 788.601989 56.389921 
L 792.238352 59.709103 
L 795.874716 60.590966 
L 799.51108 57.473269 
L 803.147443 56.321175 
L 806.783807 53.677331 
L 810.42017 55.406187 
L 814.056534 54.547309 
L 817.692898 52.984234 
L 821.329261 52.921906 
L 824.965625 52.243582 
L 828.601989 50.516322 
L 832.238352 49.712259 
L 835.874716 50.925446 
L 839.51108 53.203267 
L 843.147443 53.741032 
L 846.783807 53.581999 
L 850.42017 56.18409 
L 854.056534 60.629821 
L 857.692898 63.973685 
L 861.329261 60.552155 
L 864.965625 61.217922 
L 868.601989 62.712649 
L 872.238352 63.421603 
L 875.874716 63.717787 
L 879.51108 58.00986 
L 883.147443 58.664912 
L 886.783807 57.615551 
L 890.42017 55.33936 
L 894.056534 55.406187 
L 897.692898 55.172852 
L 901.329261 52.581087 
L 904.965625 46.359559 
L 908.601989 42.926742 
L 915.874716 42.324971 
L 919.51108 40.405691 
L 923.147443 40.449141 
L 926.783807 42.786943 
L 930.42017 48.677532 
L 934.056534 48.157933 
L 937.692898 49.289051 
L 941.329261 48.1308 
L 944.965625 50.255837 
L 948.601989 50.227014 
L 952.238352 50.749516 
L 955.874716 58.22684 
L 959.51108 66.734674 
L 963.147443 71.496485 
L 966.783807 81.39537 
L 970.42017 83.886668 
L 974.056534 84.966831 
L 977.692898 85.599499 
L 984.965625 78.938938 
L 988.601989 76.399106 
L 995.874716 73.747686 
L 999.51108 72.907046 
L 1003.147443 70.500767 
L 1006.783807 71.924432 
L 1010.42017 74.609187 
L 1014.056534 78.61111 
L 1017.692898 80.834279 
L 1021.329261 85.6794 
L 1024.965625 87.401243 
L 1032.238352 95.401157 
L 1035.874716 101.393707 
L 1039.51108 105.107429 
L 1043.147443 107.273416 
L 1046.783807 108.48635 
L 1050.42017 110.389113 
L 1054.056534 109.424697 
L 1061.329261 119.044145 
L 1064.965625 125.709995 
L 1068.601989 132.704793 
L 1068.601989 132.704793 
" style="fill:none;stroke:#525886;stroke-linecap:square;stroke-width:2;"/>
   </g>
   <g id="line2d_20">
    <path clip-path="url(#pee4d130770)" d="M 461.329261 216.577413 
L 464.965625 220.235185 
L 468.601989 213.268556 
L 472.238352 220.235185 
L 475.874716 213.268556 
L 479.51108 210.247805 
L 490.42017 210.247805 
L 494.056534 216.577413 
L 497.692898 216.577413 
L 501.329261 224.324227 
L 504.965625 224.324227 
L 508.601989 220.235185 
L 530.42017 220.235185 
L 534.056534 224.324227 
L 537.692898 220.235185 
L 541.329261 216.577413 
L 544.965625 213.268556 
L 548.601989 202.500991 
L 552.238352 202.500991 
L 555.874716 204.896198 
L 559.51108 204.896198 
L 563.147443 207.468984 
L 574.056534 207.468984 
L 577.692898 202.500991 
L 581.329261 200.260425 
L 584.965625 200.260425 
L 588.601989 198.155737 
L 592.238352 194.294347 
L 595.874716 196.171384 
L 599.51108 194.294347 
L 603.147443 190.819776 
L 606.783807 178.43719 
L 610.42017 172.107582 
L 617.692898 168.449809 
L 621.329261 164.360768 
L 624.965625 160.702996 
L 628.601989 150.028133 
L 632.238352 147.092577 
L 635.874716 143.107947 
L 639.51108 135.613009 
L 643.147443 133.647386 
L 646.783807 131.188537 
L 650.42017 127.000728 
L 654.056534 125.709995 
L 657.692898 123.739723 
L 661.329261 117.013348 
L 664.965625 108.796323 
L 668.601989 103.333693 
L 672.238352 101.646193 
L 675.874716 98.268293 
L 683.147443 89.658626 
L 690.42017 84.268594 
L 694.056534 78.938938 
L 697.692898 72.796483 
L 701.329261 67.201304 
L 704.965625 62.961218 
L 708.601989 56.013492 
L 712.238352 51.191024 
L 715.874716 47.247103 
L 719.51108 44.895992 
L 723.147443 43.72975 
L 726.783807 41.778598 
L 730.42017 40.558005 
L 734.056534 40.383986 
L 737.692898 38.648847 
L 741.329261 37.853071 
L 744.965625 38.095988 
L 748.601989 37.471896 
L 752.238352 35.26876 
L 755.874716 34.199334 
L 759.51108 32.654535 
L 763.147443 32.498583 
L 766.783807 31.661583 
L 770.42017 30.434598 
L 777.692898 28.579004 
L 781.329261 26.994179 
L 784.965625 25.691063 
L 788.601989 24.080562 
L 792.238352 22.697561 
L 795.874716 21.771383 
L 799.51108 21.733324 
L 803.147443 20.647362 
L 806.783807 20.671949 
L 810.42017 20.881644 
L 814.056534 21.733324 
L 817.692898 22.959279 
L 821.329261 23.93165 
L 824.965625 24.531169 
L 828.601989 22.841261 
L 832.238352 21.885813 
L 835.874716 21.568879 
L 839.51108 20.573706 
L 843.147443 19.845611 
L 846.783807 19.285748 
L 850.42017 18.433689 
L 854.056534 18.537614 
L 857.692898 18.341572 
L 861.329261 17.76 
L 864.965625 18.827938 
L 868.601989 19.606267 
L 872.238352 21.154908 
L 875.874716 22.919895 
L 879.51108 25.933489 
L 883.147443 27.619454 
L 886.783807 30.434598 
L 890.42017 31.627844 
L 894.056534 33.694617 
L 901.329261 34.711497 
L 904.965625 35.930411 
L 908.601989 37.352389 
L 912.238352 38.402044 
L 915.874716 38.752201 
L 919.51108 38.463581 
L 923.147443 39.52674 
L 926.783807 40.318953 
L 930.42017 42.856772 
L 934.056534 44.748051 
L 941.329261 47.167871 
L 944.965625 48.787919 
L 952.238352 50.691071 
L 955.874716 54.842214 
L 959.51108 53.109227 
L 963.147443 53.613747 
L 966.783807 54.319657 
L 970.42017 54.093489 
L 974.056534 54.514695 
L 977.692898 54.093489 
L 981.329261 50.925446 
L 984.965625 54.352087 
L 988.601989 56.527823 
L 992.238352 59.034242 
L 995.874716 60.590966 
L 999.51108 60.707661 
L 1003.147443 61.535698 
L 1006.783807 63.802877 
L 1010.42017 64.188384 
L 1014.056534 64.840565 
L 1017.692898 64.145338 
L 1021.329261 66.046283 
L 1024.965625 66.642096 
L 1028.601989 66.781056 
L 1032.238352 65.505232 
L 1035.874716 67.060655 
L 1039.51108 67.201304 
L 1043.147443 69.532813 
L 1046.783807 68.935093 
L 1050.42017 69.482608 
L 1054.056534 70.449144 
L 1057.692898 77.519097 
L 1061.329261 82.691996 
L 1068.601989 95.08507 
L 1072.238352 106.97669 
L 1075.874716 112.402241 
L 1079.51108 118.628371 
L 1083.147443 125.964331 
L 1086.783807 127.000728 
L 1094.056534 150.542464 
L 1097.692898 155.550339 
L 1097.692898 155.550339 
" style="fill:none;stroke:#937252;stroke-linecap:square;stroke-width:2;"/>
   </g>
   <g id="line2d_21">
    <path clip-path="url(#pee4d130770)" d="M 555.874716 220.235185 
L 559.51108 228.96 
L 563.147443 228.96 
L 566.783807 224.324227 
L 574.056534 224.324227 
L 577.692898 216.577413 
L 581.329261 213.268556 
L 588.601989 213.268556 
L 592.238352 216.577413 
L 599.51108 216.577413 
L 603.147443 224.324227 
L 606.783807 228.96 
L 610.42017 228.96 
L 614.056534 224.324227 
L 617.692898 220.235185 
L 621.329261 220.235185 
L 624.965625 216.577413 
L 628.601989 213.268556 
L 632.238352 210.247805 
L 635.874716 207.468984 
L 639.51108 210.247805 
L 646.783807 210.247805 
L 650.42017 207.468984 
L 654.056534 207.468984 
L 657.692898 210.247805 
L 668.601989 210.247805 
L 672.238352 204.896198 
L 675.874716 207.468984 
L 679.51108 204.896198 
L 690.42017 204.896198 
L 694.056534 207.468984 
L 697.692898 213.268556 
L 701.329261 210.247805 
L 704.965625 216.577413 
L 708.601989 213.268556 
L 712.238352 216.577413 
L 723.147443 216.577413 
L 726.783807 224.324227 
L 734.056534 224.324227 
L 737.692898 216.577413 
L 741.329261 204.896198 
L 744.965625 204.896198 
L 748.601989 200.260425 
L 752.238352 196.171384 
L 755.874716 192.513611 
L 759.51108 190.819776 
L 763.147443 190.819776 
L 766.783807 192.513611 
L 770.42017 190.819776 
L 774.056534 192.513611 
L 781.329261 192.513611 
L 784.965625 194.294347 
L 788.601989 183.405183 
L 795.874716 183.405183 
L 799.51108 179.614141 
L 806.783807 177.298834 
L 810.42017 175.128332 
L 814.056534 184.766797 
L 817.692898 183.405183 
L 821.329261 183.405183 
L 824.965625 187.661534 
L 828.601989 190.819776 
L 832.238352 184.766797 
L 835.874716 187.661534 
L 839.51108 186.184003 
L 843.147443 189.204754 
L 846.783807 184.766797 
L 854.056534 184.766797 
L 857.692898 190.819776 
L 861.329261 190.819776 
L 864.965625 192.513611 
L 868.601989 189.204754 
L 872.238352 194.294347 
L 875.874716 186.184003 
L 879.51108 183.405183 
L 883.147443 187.661534 
L 886.783807 187.661534 
L 890.42017 184.766797 
L 894.056534 189.204754 
L 897.692898 190.819776 
L 901.329261 202.500991 
L 908.601989 202.500991 
L 912.238352 200.260425 
L 915.874716 207.468984 
L 919.51108 210.247805 
L 923.147443 207.468984 
L 926.783807 207.468984 
L 930.42017 216.577413 
L 934.056534 202.500991 
L 937.692898 196.171384 
L 941.329261 194.294347 
L 944.965625 194.294347 
L 948.601989 190.819776 
L 955.874716 187.661534 
L 959.51108 194.294347 
L 963.147443 204.896198 
L 966.783807 204.896198 
L 970.42017 198.155737 
L 974.056534 202.500991 
L 977.692898 198.155737 
L 981.329261 200.260425 
L 988.601989 200.260425 
L 992.238352 198.155737 
L 995.874716 204.896198 
L 999.51108 204.896198 
L 1003.147443 213.268556 
L 1006.783807 213.268556 
L 1010.42017 216.577413 
L 1014.056534 216.577413 
L 1017.692898 224.324227 
L 1021.329261 220.235185 
L 1024.965625 224.324227 
L 1028.601989 224.324227 
L 1032.238352 220.235185 
L 1035.874716 220.235185 
L 1039.51108 216.577413 
L 1043.147443 216.577413 
L 1046.783807 220.235185 
L 1054.056534 220.235185 
L 1057.692898 224.324227 
L 1061.329261 224.324227 
L 1064.965625 228.96 
L 1068.601989 228.96 
L 1072.238352 224.324227 
L 1075.874716 224.324227 
L 1079.51108 220.235185 
L 1079.51108 220.235185 
" style="fill:none;stroke:#d18cad;stroke-linecap:square;stroke-width:2;"/>
   </g>
   <g id="line2d_22">
    <path clip-path="url(#pee4d130770)" d="M 435.874716 213.268556 
L 439.51108 228.96 
L 443.147443 224.324227 
L 464.965625 224.324227 
L 468.601989 228.96 
L 504.965625 228.96 
L 508.601989 210.247805 
L 526.783807 210.247805 
L 530.42017 207.468984 
L 534.056534 224.324227 
L 548.601989 224.324227 
L 552.238352 216.577413 
L 555.874716 220.235185 
L 559.51108 220.235185 
L 563.147443 216.577413 
L 566.783807 213.268556 
L 574.056534 213.268556 
L 577.692898 220.235185 
L 581.329261 220.235185 
L 584.965625 216.577413 
L 588.601989 220.235185 
L 592.238352 224.324227 
L 595.874716 220.235185 
L 599.51108 213.268556 
L 603.147443 213.268556 
L 606.783807 198.155737 
L 610.42017 200.260425 
L 614.056534 198.155737 
L 621.329261 198.155737 
L 624.965625 202.500991 
L 628.601989 202.500991 
L 632.238352 220.235185 
L 635.874716 220.235185 
L 639.51108 216.577413 
L 643.147443 216.577413 
L 646.783807 220.235185 
L 650.42017 213.268556 
L 654.056534 196.171384 
L 657.692898 187.661534 
L 661.329261 178.43719 
L 664.965625 178.43719 
L 668.601989 174.091935 
L 672.238352 171.156379 
L 675.874716 169.328761 
L 679.51108 173.085582 
L 683.147443 178.43719 
L 686.783807 186.184003 
L 690.42017 180.832396 
L 694.056534 186.184003 
L 697.692898 187.661534 
L 701.329261 192.513611 
L 708.601989 192.513611 
L 712.238352 189.204754 
L 715.874716 196.171384 
L 719.51108 196.171384 
L 723.147443 200.260425 
L 726.783807 200.260425 
L 730.42017 198.155737 
L 734.056534 198.155737 
L 737.692898 202.500991 
L 741.329261 207.468984 
L 744.965625 183.405183 
L 748.601989 182.094962 
L 752.238352 182.094962 
L 755.874716 183.405183 
L 759.51108 180.832396 
L 763.147443 180.832396 
L 766.783807 178.43719 
L 770.42017 198.155737 
L 774.056534 190.819776 
L 781.329261 194.294347 
L 784.965625 198.155737 
L 788.601989 198.155737 
L 792.238352 200.260425 
L 795.874716 194.294347 
L 799.51108 204.896198 
L 803.147443 204.896198 
L 806.783807 210.247805 
L 810.42017 210.247805 
L 814.056534 207.468984 
L 824.965625 207.468984 
L 828.601989 204.896198 
L 832.238352 194.294347 
L 835.874716 189.204754 
L 839.51108 190.819776 
L 843.147443 190.819776 
L 846.783807 196.171384 
L 850.42017 194.294347 
L 854.056534 190.819776 
L 857.692898 198.155737 
L 861.329261 200.260425 
L 864.965625 202.500991 
L 872.238352 202.500991 
L 875.874716 204.896198 
L 879.51108 213.268556 
L 883.147443 216.577413 
L 886.783807 224.324227 
L 897.692898 224.324227 
L 901.329261 220.235185 
L 904.965625 220.235185 
L 908.601989 216.577413 
L 912.238352 216.577413 
L 915.874716 213.268556 
L 923.147443 213.268556 
L 926.783807 216.577413 
L 937.692898 216.577413 
L 941.329261 220.235185 
L 944.965625 224.324227 
L 992.238352 224.324227 
L 995.874716 216.577413 
L 999.51108 216.577413 
L 1003.147443 213.268556 
L 1006.783807 213.268556 
L 1010.42017 216.577413 
L 1017.692898 216.577413 
L 1021.329261 210.247805 
L 1024.965625 210.247805 
L 1028.601989 213.268556 
L 1032.238352 213.268556 
L 1035.874716 210.247805 
L 1043.147443 210.247805 
L 1046.783807 224.324227 
L 1057.692898 224.324227 
L 1061.329261 228.96 
L 1068.601989 228.96 
L 1072.238352 224.324227 
L 1075.874716 216.577413 
L 1075.874716 216.577413 
" style="fill:none;stroke:#a4a86f;stroke-linecap:square;stroke-width:2;"/>
   </g>
   <g id="line2d_23">
    <path clip-path="url(#pee4d130770)" style="fill:none;stroke:#d3d3d3;stroke-linecap:square;stroke-width:2;"/>
   </g>
   <g id="patch_3">
    <path d="M 46.965625 228.96 
L 46.965625 7.2 
" style="fill:none;stroke:#000000;stroke-linecap:square;stroke-linejoin:miter;stroke-width:0.8;"/>
   </g>
   <g id="patch_4">
    <path d="M 46.965625 228.96 
L 1162.965625 228.96 
" style="fill:none;stroke:#000000;stroke-linecap:square;stroke-linejoin:miter;stroke-width:0.8;"/>
   </g>
   <g id="legend_1">
    <g id="line2d_24">
     <path d="M 54.165625 17.67875 
L 70.165625 17.67875 
" style="fill:none;stroke:#947383;stroke-linecap:square;stroke-width:2;"/>
    </g>
    <g id="line2d_25"/>
    <g id="text_19">
     <!-- Europe -->
     <g transform="translate(76.565625 20.47875)scale(0.08 -0.08)">
      <defs>
       <path d="M 628 4666 
L 3578 4666 
L 3578 4134 
L 1259 4134 
L 1259 2753 
L 3481 2753 
L 3481 2222 
L 1259 2222 
L 1259 531 
L 3634 531 
L 3634 0 
L 628 0 
L 628 4666 
z
" id="DejaVuSans-45" transform="scale(0.015625)"/>
       <path d="M 1159 525 
L 1159 -1331 
L 581 -1331 
L 581 3500 
L 1159 3500 
L 1159 2969 
Q 1341 3281 1617 3432 
Q 1894 3584 2278 3584 
Q 2916 3584 3314 3078 
Q 3713 2572 3713 1747 
Q 3713 922 3314 415 
Q 2916 -91 2278 -91 
Q 1894 -91 1617 61 
Q 1341 213 1159 525 
z
M 3116 1747 
Q 3116 2381 2855 2742 
Q 2594 3103 2138 3103 
Q 1681 3103 1420 2742 
Q 1159 2381 1159 1747 
Q 1159 1113 1420 752 
Q 1681 391 2138 391 
Q 2594 391 2855 752 
Q 3116 1113 3116 1747 
z
" id="DejaVuSans-70" transform="scale(0.015625)"/>
      </defs>
      <use xlink:href="#DejaVuSans-45"/>
      <use x="63.183594" xlink:href="#DejaVuSans-75"/>
      <use x="126.5625" xlink:href="#DejaVuSans-72"/>
      <use x="165.425781" xlink:href="#DejaVuSans-6f"/>
      <use x="226.607422" xlink:href="#DejaVuSans-70"/>
      <use x="290.083984" xlink:href="#DejaVuSans-65"/>
     </g>
    </g>
    <g id="line2d_26">
     <path d="M 54.165625 29.42125 
L 70.165625 29.42125 
" style="fill:none;stroke:#96c6ad;stroke-linecap:square;stroke-width:2;"/>
    </g>
    <g id="line2d_27"/>
    <g id="text_20">
     <!-- Oceania -->
     <g transform="translate(76.565625 32.22125)scale(0.08 -0.08)">
      <defs>
       <path d="M 2522 4238 
Q 1834 4238 1429 3725 
Q 1025 3213 1025 2328 
Q 1025 1447 1429 934 
Q 1834 422 2522 422 
Q 3209 422 3611 934 
Q 4013 1447 4013 2328 
Q 4013 3213 3611 3725 
Q 3209 4238 2522 4238 
z
M 2522 4750 
Q 3503 4750 4090 4092 
Q 4678 3434 4678 2328 
Q 4678 1225 4090 567 
Q 3503 -91 2522 -91 
Q 1538 -91 948 565 
Q 359 1222 359 2328 
Q 359 3434 948 4092 
Q 1538 4750 2522 4750 
z
" id="DejaVuSans-4f" transform="scale(0.015625)"/>
       <path d="M 3122 3366 
L 3122 2828 
Q 2878 2963 2633 3030 
Q 2388 3097 2138 3097 
Q 1578 3097 1268 2742 
Q 959 2388 959 1747 
Q 959 1106 1268 751 
Q 1578 397 2138 397 
Q 2388 397 2633 464 
Q 2878 531 3122 666 
L 3122 134 
Q 2881 22 2623 -34 
Q 2366 -91 2075 -91 
Q 1284 -91 818 406 
Q 353 903 353 1747 
Q 353 2603 823 3093 
Q 1294 3584 2113 3584 
Q 2378 3584 2631 3529 
Q 2884 3475 3122 3366 
z
" id="DejaVuSans-63" transform="scale(0.015625)"/>
      </defs>
      <use xlink:href="#DejaVuSans-4f"/>
      <use x="78.710938" xlink:href="#DejaVuSans-63"/>
      <use x="133.691406" xlink:href="#DejaVuSans-65"/>
      <use x="195.214844" xlink:href="#DejaVuSans-61"/>
      <use x="256.494141" xlink:href="#DejaVuSans-6e"/>
      <use x="319.873047" xlink:href="#DejaVuSans-69"/>
      <use x="347.65625" xlink:href="#DejaVuSans-61"/>
     </g>
    </g>
    <g id="line2d_28">
     <path d="M 54.165625 41.16375 
L 70.165625 41.16375 
" style="fill:none;stroke:#525886;stroke-linecap:square;stroke-width:2;"/>
    </g>
    <g id="line2d_29"/>
    <g id="text_21">
     <!-- South America -->
     <g transform="translate(76.565625 43.96375)scale(0.08 -0.08)">
      <defs>
       <path d="M 3425 4513 
L 3425 3897 
Q 3066 4069 2747 4153 
Q 2428 4238 2131 4238 
Q 1616 4238 1336 4038 
Q 1056 3838 1056 3469 
Q 1056 3159 1242 3001 
Q 1428 2844 1947 2747 
L 2328 2669 
Q 3034 2534 3370 2195 
Q 3706 1856 3706 1288 
Q 3706 609 3251 259 
Q 2797 -91 1919 -91 
Q 1588 -91 1214 -16 
Q 841 59 441 206 
L 441 856 
Q 825 641 1194 531 
Q 1563 422 1919 422 
Q 2459 422 2753 634 
Q 3047 847 3047 1241 
Q 3047 1584 2836 1778 
Q 2625 1972 2144 2069 
L 1759 2144 
Q 1053 2284 737 2584 
Q 422 2884 422 3419 
Q 422 4038 858 4394 
Q 1294 4750 2059 4750 
Q 2388 4750 2728 4690 
Q 3069 4631 3425 4513 
z
" id="DejaVuSans-53" transform="scale(0.015625)"/>
       <path d="M 3513 2113 
L 3513 0 
L 2938 0 
L 2938 2094 
Q 2938 2591 2744 2837 
Q 2550 3084 2163 3084 
Q 1697 3084 1428 2787 
Q 1159 2491 1159 1978 
L 1159 0 
L 581 0 
L 581 4863 
L 1159 4863 
L 1159 2956 
Q 1366 3272 1645 3428 
Q 1925 3584 2291 3584 
Q 2894 3584 3203 3211 
Q 3513 2838 3513 2113 
z
" id="DejaVuSans-68" transform="scale(0.015625)"/>
       <path d="M 2188 4044 
L 1331 1722 
L 3047 1722 
L 2188 4044 
z
M 1831 4666 
L 2547 4666 
L 4325 0 
L 3669 0 
L 3244 1197 
L 1141 1197 
L 716 0 
L 50 0 
L 1831 4666 
z
" id="DejaVuSans-41" transform="scale(0.015625)"/>
       <path d="M 3328 2828 
Q 3544 3216 3844 3400 
Q 4144 3584 4550 3584 
Q 5097 3584 5394 3201 
Q 5691 2819 5691 2113 
L 5691 0 
L 5113 0 
L 5113 2094 
Q 5113 2597 4934 2840 
Q 4756 3084 4391 3084 
Q 3944 3084 3684 2787 
Q 3425 2491 3425 1978 
L 3425 0 
L 2847 0 
L 2847 2094 
Q 2847 2600 2669 2842 
Q 2491 3084 2119 3084 
Q 1678 3084 1418 2786 
Q 1159 2488 1159 1978 
L 1159 0 
L 581 0 
L 581 3500 
L 1159 3500 
L 1159 2956 
Q 1356 3278 1631 3431 
Q 1906 3584 2284 3584 
Q 2666 3584 2933 3390 
Q 3200 3197 3328 2828 
z
" id="DejaVuSans-6d" transform="scale(0.015625)"/>
      </defs>
      <use xlink:href="#DejaVuSans-53"/>
      <use x="63.476562" xlink:href="#DejaVuSans-6f"/>
      <use x="124.658203" xlink:href="#DejaVuSans-75"/>
      <use x="188.037109" xlink:href="#DejaVuSans-74"/>
      <use x="227.246094" xlink:href="#DejaVuSans-68"/>
      <use x="290.625" xlink:href="#DejaVuSans-20"/>
      <use x="322.412109" xlink:href="#DejaVuSans-41"/>
      <use x="390.820312" xlink:href="#DejaVuSans-6d"/>
      <use x="488.232422" xlink:href="#DejaVuSans-65"/>
      <use x="549.755859" xlink:href="#DejaVuSans-72"/>
      <use x="590.869141" xlink:href="#DejaVuSans-69"/>
      <use x="618.652344" xlink:href="#DejaVuSans-63"/>
      <use x="673.632812" xlink:href="#DejaVuSans-61"/>
     </g>
    </g>
    <g id="line2d_30">
     <path d="M 54.165625 52.90625 
L 70.165625 52.90625 
" style="fill:none;stroke:#937252;stroke-linecap:square;stroke-width:2;"/>
    </g>
    <g id="line2d_31"/>
    <g id="text_22">
     <!-- North America -->
     <g transform="translate(76.565625 55.70625)scale(0.08 -0.08)">
      <defs>
       <path d="M 628 4666 
L 1478 4666 
L 3547 763 
L 3547 4666 
L 4159 4666 
L 4159 0 
L 3309 0 
L 1241 3903 
L 1241 0 
L 628 0 
L 628 4666 
z
" id="DejaVuSans-4e" transform="scale(0.015625)"/>
      </defs>
      <use xlink:href="#DejaVuSans-4e"/>
      <use x="74.804688" xlink:href="#DejaVuSans-6f"/>
      <use x="135.986328" xlink:href="#DejaVuSans-72"/>
      <use x="177.099609" xlink:href="#DejaVuSans-74"/>
      <use x="216.308594" xlink:href="#DejaVuSans-68"/>
      <use x="279.6875" xlink:href="#DejaVuSans-20"/>
      <use x="311.474609" xlink:href="#DejaVuSans-41"/>
      <use x="379.882812" xlink:href="#DejaVuSans-6d"/>
      <use x="477.294922" xlink:href="#DejaVuSans-65"/>
      <use x="538.818359" xlink:href="#DejaVuSans-72"/>
      <use x="579.931641" xlink:href="#DejaVuSans-69"/>
      <use x="607.714844" xlink:href="#DejaVuSans-63"/>
      <use x="662.695312" xlink:href="#DejaVuSans-61"/>
     </g>
    </g>
    <g id="line2d_32">
     <path d="M 54.165625 64.64875 
L 70.165625 64.64875 
" style="fill:none;stroke:#d18cad;stroke-linecap:square;stroke-width:2;"/>
    </g>
    <g id="line2d_33"/>
    <g id="text_23">
     <!-- United Kingdom -->
     <g transform="translate(76.565625 67.44875)scale(0.08 -0.08)">
      <defs>
       <path d="M 556 4666 
L 1191 4666 
L 1191 1831 
Q 1191 1081 1462 751 
Q 1734 422 2344 422 
Q 2950 422 3222 751 
Q 3494 1081 3494 1831 
L 3494 4666 
L 4128 4666 
L 4128 1753 
Q 4128 841 3676 375 
Q 3225 -91 2344 -91 
Q 1459 -91 1007 375 
Q 556 841 556 1753 
L 556 4666 
z
" id="DejaVuSans-55" transform="scale(0.015625)"/>
       <path d="M 628 4666 
L 1259 4666 
L 1259 2694 
L 3353 4666 
L 4166 4666 
L 1850 2491 
L 4331 0 
L 3500 0 
L 1259 2247 
L 1259 0 
L 628 0 
L 628 4666 
z
" id="DejaVuSans-4b" transform="scale(0.015625)"/>
      </defs>
      <use xlink:href="#DejaVuSans-55"/>
      <use x="73.193359" xlink:href="#DejaVuSans-6e"/>
      <use x="136.572266" xlink:href="#DejaVuSans-69"/>
      <use x="164.355469" xlink:href="#DejaVuSans-74"/>
      <use x="203.564453" xlink:href="#DejaVuSans-65"/>
      <use x="265.087891" xlink:href="#DejaVuSans-64"/>
      <use x="328.564453" xlink:href="#DejaVuSans-20"/>
      <use x="360.351562" xlink:href="#DejaVuSans-4b"/>
      <use x="425.927734" xlink:href="#DejaVuSans-69"/>
      <use x="453.710938" xlink:href="#DejaVuSans-6e"/>
      <use x="517.089844" xlink:href="#DejaVuSans-67"/>
      <use x="580.566406" xlink:href="#DejaVuSans-64"/>
      <use x="644.042969" xlink:href="#DejaVuSans-6f"/>
      <use x="705.224609" xlink:href="#DejaVuSans-6d"/>
     </g>
    </g>
    <g id="line2d_34">
     <path d="M 54.165625 76.39125 
L 70.165625 76.39125 
" style="fill:none;stroke:#a4a86f;stroke-linecap:square;stroke-width:2;"/>
    </g>
    <g id="line2d_35"/>
    <g id="text_24">
     <!-- Asia -->
     <g transform="translate(76.565625 79.19125)scale(0.08 -0.08)">
      <defs>
       <path d="M 2834 3397 
L 2834 2853 
Q 2591 2978 2328 3040 
Q 2066 3103 1784 3103 
Q 1356 3103 1142 2972 
Q 928 2841 928 2578 
Q 928 2378 1081 2264 
Q 1234 2150 1697 2047 
L 1894 2003 
Q 2506 1872 2764 1633 
Q 3022 1394 3022 966 
Q 3022 478 2636 193 
Q 2250 -91 1575 -91 
Q 1294 -91 989 -36 
Q 684 19 347 128 
L 347 722 
Q 666 556 975 473 
Q 1284 391 1588 391 
Q 1994 391 2212 530 
Q 2431 669 2431 922 
Q 2431 1156 2273 1281 
Q 2116 1406 1581 1522 
L 1381 1569 
Q 847 1681 609 1914 
Q 372 2147 372 2553 
Q 372 3047 722 3315 
Q 1072 3584 1716 3584 
Q 2034 3584 2315 3537 
Q 2597 3491 2834 3397 
z
" id="DejaVuSans-73" transform="scale(0.015625)"/>
      </defs>
      <use xlink:href="#DejaVuSans-41"/>
      <use x="68.408203" xlink:href="#DejaVuSans-73"/>
      <use x="120.507812" xlink:href="#DejaVuSans-69"/>
      <use x="148.291016" xlink:href="#DejaVuSans-61"/>
     </g>
    </g>
    <g id="line2d_36">
     <path d="M 54.165625 88.13375 
L 70.165625 88.13375 
" style="fill:none;stroke:#d3d3d3;stroke-linecap:square;stroke-width:2;"/>
    </g>
    <g id="line2d_37"/>
    <g id="text_25">
     <!-- Africa -->
     <g transform="translate(76.565625 90.93375)scale(0.08 -0.08)">
      <defs>
       <path d="M 2375 4863 
L 2375 4384 
L 1825 4384 
Q 1516 4384 1395 4259 
Q 1275 4134 1275 3809 
L 1275 3500 
L 2222 3500 
L 2222 3053 
L 1275 3053 
L 1275 0 
L 697 0 
L 697 3053 
L 147 3053 
L 147 3500 
L 697 3500 
L 697 3744 
Q 697 4328 969 4595 
Q 1241 4863 1831 4863 
L 2375 4863 
z
" id="DejaVuSans-66" transform="scale(0.015625)"/>
      </defs>
      <use xlink:href="#DejaVuSans-41"/>
      <use x="64.783203" xlink:href="#DejaVuSans-66"/>
      <use x="99.988281" xlink:href="#DejaVuSans-72"/>
      <use x="141.101562" xlink:href="#DejaVuSans-69"/>
      <use x="168.884766" xlink:href="#DejaVuSans-63"/>
      <use x="223.865234" xlink:href="#DejaVuSans-61"/>
     </g>
    </g>
   </g>
  </g>
 </g>
 <defs>
  <clipPath id="pee4d130770">
   <rect height="221.76" width="1116" x="46.965625" y="7.2"/>
  </clipPath>
 </defs>
</svg>
