<svg id="Layer_1" data-name="Layer 1" xmlns="http://www.w3.org/2000/svg" viewBox="0 0 1319.92 727.56"><defs><style>.cls-1{fill:#e8ad46;}.cls-1,.cls-2,.cls-3{opacity:0.2;}.cls-2{fill:#c14166;}.cls-3{fill:#4d9781;}.cls-4{fill:#cdcdf0;}.cls-5{font-size:20px;}.cls-12,.cls-5{font-family:HelveticaNeue-Light, Helvetica Neue;font-weight:300;}.cls-6{letter-spacing:-0.02em;}.cls-7{letter-spacing:0em;}.cls-11,.cls-8,.cls-9{fill:none;stroke-miterlimit:10;}.cls-8{stroke:#000;}.cls-9{stroke:#5d0040;}.cls-11,.cls-9{stroke-width:3px;}.cls-10{letter-spacing:-0.05em;}.cls-11{stroke:#658f66;}.cls-12{font-size:25px;}.cls-13{letter-spacing:-0.02em;}.cls-14{letter-spacing:0em;}.cls-15{letter-spacing:-0.02em;}</style></defs><rect class="cls-1" x="2.92" y="636.56" width="1317" height="91"/><rect class="cls-2" x="1054.92" y="38.56" width="262" height="547"/><rect class="cls-2" x="773.92" y="39.56" width="262" height="547"/><rect class="cls-3" x="0.42" y="39.56" width="698" height="546.5"/><rect class="cls-4" x="267.42" y="83.06" width="185" height="78"/><path d="M461,109v77H277V109H461m1-1H276v79H462V108Z" transform="translate(-9.08 -25.44)"/><text class="cls-5" transform="translate(285.12 127.58)">Align to <tspan class="cls-6" x="70.02" y="0">r</tspan><tspan class="cls-7" x="75.96" y="0">efe</tspan><tspan class="cls-6" x="101.9" y="0">r</tspan><tspan x="107.84" y="0">ence</tspan></text><rect class="cls-4" x="47.42" y="301.06" width="185" height="78"/><path d="M241,327v77H57V327H241m1-1H56v79H242V326Z" transform="translate(-9.08 -25.44)"/><text class="cls-5" transform="translate(65.12 345.58)">Cache seq assign</text><rect class="cls-4" x="489.42" y="301.06" width="185" height="78"/><path d="M683,327v77H499V327H683m1-1H498v79H684V326Z" transform="translate(-9.08 -25.44)"/><text class="cls-5" transform="translate(516.12 345.58)">Scorpio classify</text><rect class="cls-4" x="268.42" y="301.06" width="185" height="78"/><path d="M462,327v77H278V327H462m1-1H277v79H463V326Z" transform="translate(-9.08 -25.44)"/><text class="cls-5" transform="translate(327.12 345.58)">SeqQC</text><rect class="cls-4" x="1102.42" y="189.06" width="185" height="78"/><path d="M1296,215v77H1112V215h184m1-1H1111v79h186V214Z" transform="translate(-9.08 -25.44)"/><text class="cls-5" transform="translate(1140.48 227.58)">UShER hash<tspan x="35.56" y="24">(opt)</tspan></text><rect class="cls-4" x="574.42" y="662.06" width="185" height="40"/><path d="M768,688v39H584V688H768m1-1H583v41H769V687Z" transform="translate(-9.08 -25.44)"/><text class="cls-5" transform="translate(611.12 688.58)">Integrate info </text><rect class="cls-4" x="812.42" y="207.06" width="185" height="78"/><path d="M1006,233v77H822V233h184m1-1H821v79h186V232Z" transform="translate(-9.08 -25.44)"/><text class="cls-5" transform="translate(837.12 253.58)">pangoLEARN</text><rect class="cls-4" x="267.42" y="190.06" width="185" height="78"/><path d="M461,216v77H277V216H461m1-1H276v79H462V215Z" transform="translate(-9.08 -25.44)"/><text class="cls-5" transform="translate(271.12 234.58)">Hash to unique seqs</text><rect class="cls-4" x="1102.42" y="300.06" width="185" height="78"/><path d="M1296,326v77H1112V326h184m1-1H1111v79h186V325Z" transform="translate(-9.08 -25.44)"/><text class="cls-5" transform="translate(1161.12 344.58)">UShER</text><rect class="cls-4" x="812.42" y="318.06" width="185" height="78"/><path d="M1006,344v77H822V344h184m1-1H821v79h186V343Z" transform="translate(-9.08 -25.44)"/><text class="cls-5" transform="translate(849.12 362.58)">Format output</text><rect class="cls-4" x="1102.42" y="402.06" width="185" height="78"/><path d="M1296,428v77H1112V428h184m1-1H1111v79h186V427Z" transform="translate(-9.08 -25.44)"/><text class="cls-5" transform="translate(1139.12 446.58)">Format output</text><text class="cls-5" transform="translate(165.67 120.27)">Fail to map</text><line class="cls-8" x1="360.62" y1="161.56" x2="360.62" y2="175.63"/><path d="M369.7,207.1a30.34,30.34,0,0,0-4.76-8.55l4.76,1.72,4.75-1.72A30.31,30.31,0,0,0,369.7,207.1Z" transform="translate(-9.08 -25.44)"/><line class="cls-8" x1="360.52" y1="268.91" x2="360.52" y2="282.98"/><path d="M369.6,314.45a30.12,30.12,0,0,0-4.75-8.54l4.75,1.72,4.76-1.72A30.15,30.15,0,0,0,369.6,314.45Z" transform="translate(-9.08 -25.44)"/><text class="cls-5" transform="translate(287.44 398.69)">FailQC</text><text class="cls-5" transform="translate(341.59 425.77)">Pass QC</text><rect class="cls-9" x="376.42" y="164.03" width="34" height="24.03" rx="6.75"/><text class="cls-5" transform="translate(382.09 183.05)"><tspan class="cls-10">F</tspan><tspan x="9.64" y="0">A</tspan></text><rect class="cls-11" x="298.42" y="273.06" width="46" height="24" rx="4.96"/><text class="cls-5" transform="translate(301.06 293.08)">CSV</text><rect class="cls-11" x="272.42" y="407.06" width="46" height="24" rx="4.96"/><text class="cls-5" transform="translate(275.06 427.08)">CSV</text><line class="cls-8" x1="277.81" y1="379.06" x2="277.81" y2="393.12"/><path d="M286.89,424.6a30.18,30.18,0,0,0-4.75-8.55l4.75,1.72,4.76-1.72A30,30,0,0,0,286.89,424.6Z" transform="translate(-9.08 -25.44)"/><line class="cls-8" x1="441.53" y1="379.57" x2="441.53" y2="393.63"/><path d="M450.61,425.11a30.34,30.34,0,0,0-4.76-8.55l4.76,1.72,4.75-1.72A30.31,30.31,0,0,0,450.61,425.11Z" transform="translate(-9.08 -25.44)"/><rect class="cls-11" x="110.42" y="402.06" width="46" height="24" rx="4.96"/><text class="cls-5" transform="translate(113.06 422.08)">CSV</text><line class="cls-8" x1="135.04" y1="378.67" x2="135.04" y2="392.74"/><path d="M144.13,424.21a30.39,30.39,0,0,0-4.76-8.54l4.76,1.72,4.75-1.72A30.12,30.12,0,0,0,144.13,424.21Z" transform="translate(-9.08 -25.44)"/><rect class="cls-11" x="552.26" y="404.57" width="46" height="24" rx="4.96"/><text class="cls-5" transform="translate(554.9 424.59)">CSV</text><line class="cls-8" x1="574.89" y1="379.18" x2="574.89" y2="393.25"/><path d="M584,424.72a30.1,30.1,0,0,0-4.76-8.55l4.76,1.72,4.75-1.72A30.31,30.31,0,0,0,584,424.72Z" transform="translate(-9.08 -25.44)"/><line class="cls-8" x1="260.42" y1="262.35" x2="235.12" y2="287.23"/><path d="M239.9,316.9a30.09,30.09,0,0,0,2.76-9.38l2.11,4.59,4.56,2.19A30.11,30.11,0,0,0,239.9,316.9Z" transform="translate(-9.08 -25.44)"/><line class="cls-8" x1="464.7" y1="262.01" x2="490.01" y2="286.89"/><path d="M503.39,316.56A30.66,30.66,0,0,0,494,314l4.56-2.18,2.11-4.6A30,30,0,0,0,503.39,316.56Z" transform="translate(-9.08 -25.44)"/><text class="cls-5" transform="translate(540.29 538.52)">Pass QC</text><rect class="cls-11" x="632.42" y="553.06" width="46" height="24" rx="4.96"/><text class="cls-5" transform="translate(635.06 573.08)">CSV</text><text class="cls-5" transform="translate(518.03 573.15)">Merged info</text><polyline class="cls-11" points="251.92 132.06 17.13 132.06 17.13 472.11 295.42 470.06 295.42 498.56"/><polyline class="cls-11" points="295.42 437.74 295.42 470 574.89 470 574.89 437.74"/><line class="cls-11" x1="135.04" y1="437.74" x2="135.04" y2="472.11"/><polyline class="cls-11" points="285 284.83 251.42 285.06 251.61 472.11"/><rect class="cls-11" x="275.42" y="550.06" width="46" height="24" rx="4.96"/><text class="cls-5" transform="translate(278.06 570.08)">CSV</text><rect class="cls-4" x="264.29" y="499.06" width="75.13" height="38.86"/><path d="M348,525v37.86H273.87V525H348m1-1H272.87v39.86H349V524Z" transform="translate(-9.08 -25.44)"/><text class="cls-5" transform="translate(272.5 520.44)">Merge</text><text class="cls-12" transform="translate(0 21.79)">1. P<tspan class="cls-13" x="43.55" y="0">r</tspan><tspan x="50.97" y="0">ep</tspan><tspan class="cls-13" x="78.3" y="0">r</tspan><tspan x="85.72" y="0">ocessing pipeline</tspan></text><text class="cls-12" transform="translate(780.04 21.42)">2. Infe<tspan class="cls-13" x="66.22" y="0">r</tspan><tspan class="cls-14" x="73.65" y="0">ence pipelines</tspan></text><line class="cls-8" x1="904.55" y1="287.92" x2="904.55" y2="301.98"/><path d="M913.63,333.46a30.31,30.31,0,0,0-4.75-8.55l4.75,1.72,4.76-1.72A30.34,30.34,0,0,0,913.63,333.46Z" transform="translate(-9.08 -25.44)"/><line class="cls-8" x1="905.21" y1="400.2" x2="905.21" y2="414.27"/><path d="M914.29,445.74a29.91,29.91,0,0,0-4.76-8.54l4.76,1.72,4.76-1.72A29.91,29.91,0,0,0,914.29,445.74Z" transform="translate(-9.08 -25.44)"/><line class="cls-8" x1="1197.21" y1="267.2" x2="1197.21" y2="281.27"/><path d="M1206.29,312.74a29.91,29.91,0,0,0-4.76-8.54l4.76,1.72,4.76-1.72A29.91,29.91,0,0,0,1206.29,312.74Z" transform="translate(-9.08 -25.44)"/><line class="cls-8" x1="1197.58" y1="380.03" x2="1197.58" y2="394.1"/><path d="M1206.66,425.57a30.1,30.1,0,0,0-4.76-8.55l4.76,1.72,4.75-1.72A30.31,30.31,0,0,0,1206.66,425.57Z" transform="translate(-9.08 -25.44)"/><line class="cls-8" x1="1198" y1="481.82" x2="1198" y2="495.88"/><path d="M1207.09,527.36a30.45,30.45,0,0,0-4.76-8.55l4.76,1.72,4.75-1.72A30.18,30.18,0,0,0,1207.09,527.36Z" transform="translate(-9.08 -25.44)"/><rect class="cls-11" x="882.42" y="434.06" width="46" height="24" rx="4.96"/><text class="cls-5" transform="translate(885.06 454.08)">CSV</text><rect class="cls-11" x="1174.42" y="512.06" width="46" height="24" rx="4.96"/><text class="cls-5" transform="translate(1177.06 532.08)">CSV</text><text class="cls-5" transform="translate(838.22 152.9)">Pass QC</text><line class="cls-8" x1="904.35" y1="164.06" x2="904.35" y2="178.13"/><path d="M913.43,209.6a30.12,30.12,0,0,0-4.75-8.54l4.75,1.72,4.76-1.72A29.91,29.91,0,0,0,913.43,209.6Z" transform="translate(-9.08 -25.44)"/><text class="cls-5" transform="translate(1131.48 146.69)">Pass QC</text><line class="cls-8" x1="1197.61" y1="157.85" x2="1197.61" y2="171.92"/><path d="M1206.69,203.39a30.12,30.12,0,0,0-4.75-8.54l4.75,1.72,4.76-1.72A29.91,29.91,0,0,0,1206.69,203.39Z" transform="translate(-9.08 -25.44)"/><line class="cls-8" x1="1045.42" y1="176.56" x2="1045.42" y2="424.56"/><text class="cls-5" transform="translate(795.09 452.43)">Infe<tspan class="cls-6" x="30.74" y="0">r</tspan><tspan x="36.68" y="0">ence</tspan></text><text class="cls-5" transform="translate(1087 526.43)">Infe<tspan class="cls-6" x="30.74" y="0">r</tspan><tspan x="36.68" y="0">ence</tspan></text><rect class="cls-11" x="324.42" y="656.06" width="46" height="24" rx="4.96"/><text class="cls-5" transform="translate(327.06 676.08)">CSV</text><text class="cls-5" transform="translate(210.03 676.15)">Merged info</text><rect class="cls-11" x="324.42" y="687.06" width="46" height="24" rx="4.96"/><text class="cls-5" transform="translate(327.06 707.08)">CSV</text><text class="cls-5" transform="translate(231.5 703.87)">Infe<tspan class="cls-6" x="30.74" y="0">r</tspan><tspan x="36.68" y="0">ence</tspan></text><line class="cls-8" x1="431.51" y1="680.21" x2="445.57" y2="680.21"/><path d="M460.69,705.65a30.31,30.31,0,0,0-8.55,4.75l1.72-4.75-1.72-4.76A30.34,30.34,0,0,0,460.69,705.65Z" transform="translate(-9.08 -25.44)"/><rect class="cls-9" x="379.81" y="273.05" width="34" height="24.03" rx="6.75"/><text class="cls-5" transform="translate(385.48 292.07)"><tspan class="cls-10">F</tspan><tspan x="9.64" y="0">A</tspan></text><rect class="cls-9" x="424.81" y="407.05" width="34" height="24.03" rx="6.75"/><text class="cls-5" transform="translate(430.48 426.07)"><tspan class="cls-10">F</tspan><tspan x="9.64" y="0">A</tspan></text><rect class="cls-9" x="924.26" y="133.32" width="34" height="24.03" rx="6.75"/><text class="cls-5" transform="translate(929.93 152.34)"><tspan class="cls-10">F</tspan><tspan x="9.64" y="0">A</tspan></text><rect class="cls-9" x="1220.46" y="128.61" width="34" height="24.03" rx="6.75"/><text class="cls-5" transform="translate(1226.13 147.63)"><tspan class="cls-10">F</tspan><tspan x="9.64" y="0">A</tspan></text><rect class="cls-9" x="638.59" y="518.06" width="34" height="24.03" rx="6.75"/><text class="cls-5" transform="translate(644.26 537.08)"><tspan class="cls-10">F</tspan><tspan x="9.64" y="0">A</tspan></text><line class="cls-8" x1="683.63" y1="524.52" x2="774.88" y2="524.52"/><path d="M790,550a30.59,30.59,0,0,0-8.55,4.76l1.72-4.76-1.72-4.75A30.31,30.31,0,0,0,790,550Z" transform="translate(-9.08 -25.44)"/><line class="cls-8" x1="655.68" y1="580.48" x2="655.68" y2="594.54"/><path d="M664.76,626a30.2,30.2,0,0,0-4.76-8.55l4.76,1.72,4.75-1.72A30.18,30.18,0,0,0,664.76,626Z" transform="translate(-9.08 -25.44)"/><text class="cls-12" transform="translate(780.63 68.41)">A. pangoLEARN</text><text class="cls-12" transform="translate(1062.81 68.41)">B. UShER</text><text class="cls-12" transform="translate(5.15 625.5)">3. Final lineage <tspan class="cls-13" x="166.27" y="0">r</tspan><tspan x="173.7" y="0">eport</tspan></text><rect class="cls-11" x="1032.42" y="670.06" width="46" height="24" rx="4.96"/><text class="cls-5" transform="translate(1035.06 690.08)">CSV</text><text class="cls-5" transform="translate(882.35 687.12)">Lineage <tspan class="cls-15" x="73" y="0">r</tspan><tspan class="cls-7" x="78.94" y="0">eport</tspan></text><line class="cls-8" x1="811.95" y1="680.6" x2="826.01" y2="680.6"/><path d="M841.13,706a30.31,30.31,0,0,0-8.55,4.75L834.3,706l-1.72-4.76A30.34,30.34,0,0,0,841.13,706Z" transform="translate(-9.08 -25.44)"/></svg>