<?xml version="1.0" encoding="utf-8"?>
<!-- Generator: Adobe Illustrator 25.0.1, SVG Export Plug-In . SVG Version: 6.00 Build 0)  -->
<svg version="1.1" id="Layer_1" xmlns="http://www.w3.org/2000/svg" xmlns:xlink="http://www.w3.org/1999/xlink" x="0px" y="0px"
	 viewBox="0 0 1366 768" style="enable-background:new 0 0 1366 768;" xml:space="preserve">
<style type="text/css">
	.st0{fill:none;stroke:#7351A3;stroke-width:4;stroke-miterlimit:10;}
	.st1{fill:none;stroke:#7351A3;stroke-width:5;stroke-miterlimit:10;}
	.st2{fill:#7351A3;}
	.st3{fill:#7351A3;stroke:#7351A3;stroke-miterlimit:10;}
	.st4{font-family:'HelveticaNeue-Light';}
	.st5{font-size:24px;}
</style>
<g id="gis7tc.tif">
	
		<image style="overflow:visible;" width="2678" height="1476" id="Layer_0" xlink:href="AAFCFC569254C196.png"  transform="matrix(0.4933 0 0 0.4933 14 23)">
	</image>
</g>
<path class="st0" d="M428.5,272.5h-284c-6.6,0-12-5.4-12-12v-30c0-6.6,5.4-12,12-12h284c6.6,0,12,5.4,12,12v30
	C440.5,267.1,435.1,272.5,428.5,272.5z"/>
<g>
	<g>
		<line class="st1" x1="571" y1="243" x2="484.6" y2="242.3"/>
		<g>
			<path class="st2" d="M454.5,242c14.2-5.2,31.9-14,42.9-23.4l-8.8,23.7l8.4,23.8C486.2,256.6,468.6,247.4,454.5,242z"/>
		</g>
	</g>
</g>
<text transform="matrix(1 0 0 1 580.3379 248.7607)" class="st3 st4 st5">Give the issue a name</text>
<path class="st0" d="M727.1,458.5H144.5c-6.6,0-12-5.4-12-12v-105c0-6.6,5.4-12,12-12h582.6c6.6,0,12,5.4,12,12v105
	C739.1,453.1,733.7,458.5,727.1,458.5z"/>
<text transform="matrix(1 0 0 1 512.6917 360.9791)" class="st3 st4 st5">Provide a description</text>
<path class="st0" d="M874.6,524.5H144.5c-6.6,0-12-5.4-12-12v-33.7c0-6.6,5.4-12,12-12h730.1c6.6,0,12,5.4,12,12v33.7
	C886.6,519.1,881.2,524.5,874.6,524.5z"/>
<g>
	<g>
		<line class="st1" x1="498.9" y1="558.3" x2="412.5" y2="557.6"/>
		<g>
			<path class="st2" d="M382.4,557.4c14.2-5.2,31.9-14,42.9-23.4l-8.8,23.7l8.4,23.8C414.1,571.9,396.5,562.7,382.4,557.4z"/>
		</g>
	</g>
</g>
<text transform="matrix(1 0 0 1 553.2358 493.0882)" class="st3 st4 st5">Provide a list of genome names</text>
<path class="st0" d="M359.5,581.5h-215c-6.6,0-12-5.4-12-12v-23c0-6.6,5.4-12,12-12h215c6.6,0,12,5.4,12,12v23
	C371.5,576.1,366.1,581.5,359.5,581.5z"/>
<text transform="matrix(1 0 0 1 512.2728 561.3423)" class="st3 st4 st5">Provide evidence e.g. a tree</text>
<path class="st0" d="M359.5,631.5h-215c-6.6,0-12-5.4-12-12v-16.6c0-6.6,5.4-12,12-12h215c6.6,0,12,5.4,12,12v16.6
	C371.5,626.1,366.1,631.5,359.5,631.5z"/>
<g>
	<g>
		<line class="st1" x1="498.7" y1="612.3" x2="412.4" y2="611.6"/>
		<g>
			<path class="st2" d="M382.2,611.4c14.2-5.2,31.9-14,42.9-23.4l-8.8,23.7l8.4,23.8C413.9,625.9,396.3,616.7,382.2,611.4z"/>
		</g>
	</g>
</g>
<text transform="matrix(1 0 0 1 512.0839 615.347)" class="st3 st4 st5">Optionally suggest a name</text>
</svg>
