<?xml version="1.0" encoding="utf-8"?>
<!-- Generator: Adobe Illustrator 25.0.1, SVG Export Plug-In . SVG Version: 6.00 Build 0)  -->
<svg version="1.1" id="Layer_1" xmlns="http://www.w3.org/2000/svg" xmlns:xlink="http://www.w3.org/1999/xlink" x="0px" y="0px"
	 viewBox="0 0 388.4 338.4" style="enable-background:new 0 0 388.4 338.4;" xml:space="preserve">
<style type="text/css">
	.st0{fill:#595A5E;stroke:#1D1D1B;stroke-miterlimit:10;}
	.st1{fill:url(#SVGID_1_);stroke:#1D1D1B;stroke-miterlimit:10;}
	.st2{fill:none;stroke:#1D1D1B;stroke-miterlimit:10;}
	.st3{fill:#77748B;stroke:#1D1D1B;stroke-miterlimit:10;}
	.st4{fill:#74625E;stroke:#1D1D1B;stroke-miterlimit:10;}
	.st5{fill:#C69D97;stroke:#1D1D1B;stroke-miterlimit:10;}
	.st6{fill:#82534E;stroke:#1D1D1B;stroke-miterlimit:10;}
	.st7{fill:#924242;stroke:#1D1D1B;stroke-miterlimit:10;}
	.st8{fill:#906964;stroke:#1D1D1B;stroke-miterlimit:10;}
	.st9{fill:#917774;stroke:#1D1D1B;stroke-miterlimit:10;}
	.st10{fill:#C4C0D1;stroke:#1D1D1B;stroke-miterlimit:10;}
	.st11{fill:#6E6C78;stroke:#1D1D1B;stroke-miterlimit:10;}
	.st12{fill:#6F6D92;stroke:#1D1D1B;stroke-miterlimit:10;}
	.st13{fill:#A7A3BB;stroke:#1D1D1B;stroke-miterlimit:10;}
	.st14{fill:#BEC1E0;stroke:#1D1D1B;stroke-miterlimit:10;}
	.st15{fill:#7C7F8E;stroke:#1D1D1B;stroke-miterlimit:10;}
	.st16{fill:#F7C5BA;stroke:#1D1D1B;stroke-miterlimit:10;}
	.st17{fill:#DE7A7A;stroke:#1D1D1B;stroke-miterlimit:10;}
	.st18{fill:#CFADA7;stroke:#1D1D1B;stroke-miterlimit:10;}
	.st19{fill:#F9D0D0;stroke:#1D1D1B;stroke-miterlimit:10;}
	.st20{fill:#A5635E;stroke:#1D1D1B;stroke-miterlimit:10;}
	.st21{fill:#E1DFE8;stroke:#1D1D1B;stroke-miterlimit:10;}
	.st22{fill:#B98781;stroke:#1D1D1B;stroke-miterlimit:10;}
	.st23{fill:#FBE3DD;stroke:#1D1D1B;stroke-miterlimit:10;}
	.st24{fill:#C0B8DC;stroke:#1D1D1B;stroke-miterlimit:10;}
	.st25{fill:#8B87A6;stroke:#1D1D1B;stroke-miterlimit:10;}
	.st26{fill:#929AC9;stroke:#1D1D1B;stroke-miterlimit:10;}
	.st27{fill:#504A48;stroke:#1D1D1B;stroke-miterlimit:10;}
	.st28{fill:#FF1B1B;}
	.st29{opacity:0.5;fill:#FF1B1B;}
</style>
<path class="st0" d="M230.2,307.6h-72.4c-6.6,0-12-5.4-12-12v-17.7c0-6.6,5.4-12,12-12h72.4c6.6,0,12,5.4,12,12v17.7
	C242.2,302.2,236.8,307.6,230.2,307.6z"/>
<path class="st0" d="M336,277H52c-6.6,0-12-5.4-12-12V25.9c0-6.6,5.4-12,12-12h284c6.6,0,12,5.4,12,12V265
	C348,271.6,342.6,277,336,277z"/>
<radialGradient id="SVGID_1_" cx="194.0222" cy="145.4639" r="125.457" gradientUnits="userSpaceOnUse">
	<stop  offset="0.7703" style="stop-color:#E1DFE8"/>
	<stop  offset="1" style="stop-color:#BEC1E0"/>
</radialGradient>
<path class="st1" d="M316.9,260.7H71.1c-6.6,0-12-5.4-12-12V42.2c0-6.6,5.4-12,12-12h245.8c6.6,0,12,5.4,12,12v206.5
	C328.9,255.3,323.5,260.7,316.9,260.7z"/>
<g id="Layer_2_1_">
	<g id="Layer_1-2">
		<path class="st2" d="M96.5,131.1c0-0.3,0.1-0.7,0.2-1c0.1-0.3,0.1-0.4,0.1-0.6c0,0.1,0,0.2,0,0.3
			C96.7,130.2,96.6,130.7,96.5,131.1z M276.1,167.2c-3.5-2.2-6.8-4.5-10-7.1c-4.8-3.8-9.6-7.9-13-11c-2.9-1.9-5.4-4.3-7.4-7.2
			c-3.7-5.1-5.4-11.4-4.7-17.6l3.3-0.9l-2.2-4.3l-2.3-4.4l13.2-8.2c-2.4-1.2-4.4-2.9-6-5c-0.1-0.1-0.2-0.3-0.3-0.4
			c-0.9-1.3-1.7-2.7-2.2-4.2c-0.1-0.2-0.2-0.4-0.2-0.6c-0.3-0.9-0.5-1.8-0.6-2.7l0,0c-0.2-2.3,0.4-4.3,1.9-5.4
			c0.1-0.1,0.2-0.2,0.3-0.3c0.7-0.5,1.6-0.7,2.4-0.7h0.1c0-0.2,0.1-0.3,0.1-0.5v-0.1c0-0.1,0.1-0.2,0.1-0.3c0.1-0.3,0.2-0.6,0.4-0.8
			c0.1-0.1,0.1-0.2,0.2-0.3s-0.1-0.3-0.1-0.4c-0.9-3-0.4-5.8,1.4-7.1c0.1-0.1,0.2-0.2,0.3-0.2c0.7-0.4,1.4-0.6,2.2-0.6h0.2
			c0.2-0.2,0.3-0.4,0.6-0.6l0,0c-0.7-0.7-1.5-1.4-2.2-2c-0.4-0.4-0.8-0.7-1-0.9l0,0l0,0l-1-1c-1.3-1.1-2.6-2.1-3.9-3
			c-0.6-0.5-1.2-0.9-1.7-1.3l-0.4-0.3l-0.8-0.5h-0.1l-0.2-0.1l-0.9-0.6c-1.5-1.1-3.1-2-4.7-2.9c-0.5-0.3-1-0.6-1.4-0.8l-0.4-0.2
			l-0.5-0.3h-0.1c-2-1.1-4.1-2.1-6.2-3l-1.8-0.9l-0.5-0.2l-0.5-0.2c-3-1.2-6.1-2.3-9.2-3.2l0,0c-3.3-1-6.6-1.7-10-2.3
			c0,0-1.3-0.2-3-0.5l-1.1-0.1c-1-0.1-2.1-0.3-3.2-0.4c-0.5,0-1-0.1-1.5-0.1h-0.7h-0.2h-0.3h-0.5h-0.3h-0.4h-0.4h-0.8h-0.5h-1
			c-0.8,0-1.6,0-2.4,0s-1.6,0-2.4,0l-0.7-0.4h-0.2c-2.5,0.1-4.9,0.2-7.3,0.5l-0.7,0.1l-0.6,0.1l-0.5,0.1c-3.5,0.4-7,1.1-10.4,2l0,0
			H167l-1.1,0.2c-2.8,0.7-5.5,1.6-8.2,2.6l0,0l-0.6,0.2l-1.4,0.5c-0.7,0.3-1.5,0.6-2.2,0.9c-0.7,0.3-1.4,0.6-2,0.9
			c-0.2,0.1-0.4,0.2-0.6,0.3l-2,0.9c-2.8,1.4-5.6,2.9-8.2,4.5l0,0c-2.9,1.7-5.6,3.6-8.3,5.7l-0.2,0.1l0,0c-2.5,1.9-4.8,3.9-7.1,6
			c-2.1,2-4.2,4.1-6.1,6.3c-0.5,0.5-0.7,0.8-0.7,0.8c-2.1,2.5-4.1,5-6,7.7l0,0l-0.1,0.1c-1.8,2.6-3.5,5.4-5.1,8.2
			c-0.1,0.1-0.1,0.2-0.1,0.3l0,0c-1.5,2.8-2.9,5.7-4.2,8.7l-0.8,1.9c-0.2,0.5-0.4,1.1-0.6,1.7c-0.7,1.7-1.3,3.4-1.8,5.1
			c-0.1,0.4-0.2,0.6-0.2,0.6c-0.9,3.1-1.7,6.1-2.3,9.3l60.5,11.6c2.1-6,5.4-11.5,9.7-16.1c0.3-0.3,0.4-0.4,0.4-0.4l2.8,3.1
			c-3,2.5-5.3,5.6-6.8,9.2c-1.1,2.5-1.6,5.3-1.5,8c0,0.7,0.1,1.3,0.2,2l-33.3-0.4v-0.1l0.2-4.8L95.8,137c-0.3,2.8-0.4,5.5-0.4,8.4
			c0,0.4,0,0.7,0,1.1c0,3.6,0.3,7.1,0.7,10.6v0.1v0.1c0.6,4.8,1.6,9.5,2.9,14.1c0.2,0.7,0.4,1.3,0.6,2c0.2,0.7,0.5,1.5,0.7,2.2l0,0
			c1,3.1,2.2,6.1,3.6,9l0.1,0.1c0.7,1.5,1.4,3.1,2.2,4.5c0.2,0.3,0.4,0.7,0.6,1v0.1l0.4,0.6c0.4,0.6,0.7,1.2,0.9,1.6l0.2,0.4
			c0,0.1,0.1,0.1,0.1,0.2c0.1,0.1,0.2,0.3,0.3,0.4l0,0l0.2,0.3c0.1,0.2,0.3,0.5,0.5,0.9l0.3,0.5l0.7,1.1c1.1,1.7,2.3,3.4,3.5,5.1
			l0,0c0.1,0.1,0.4,0.5,0.9,1.1c0.1,0.1,0.2,0.3,0.4,0.5c0.2,0.3,0.5,0.7,0.8,1.1c0.3,0.4,0.6,0.8,0.9,1.1c0,0,0,0.1,0.1,0.1
			c1.1,1.3,2.2,2.5,3.3,3.8c2.2,2.4,4.5,4.7,6.9,6.8l0.2,0.2l0.3,0.3l0.4,0.4l1.2,1l0.3,0.3l0.4,0.3c0.5,0.4,1,0.8,1.4,1.1
			c0.4,0.3,1.2,0.9,1.8,1.4c0.4,0.3,0.7,0.5,1.1,0.8l0,0c2.8,2,5.6,3.9,8.6,5.7l0,0c35.8,20.5,80.8,15.3,111-12.7
			c2.4-2.2,4.6-4.5,6.8-6.9c2.4-2.7,4.6-5.5,6.6-8.4v-0.1l0.1-0.2c0,0,0-0.1,0.1-0.1c0.1-0.1,0.1-0.2,0.2-0.3l0.1-0.2
			c1-1.5,2-3,2.9-4.6c0.3-0.5,0.6-1,0.9-1.5s0.5-0.8,0.7-1.2c1.2-2.1,2.3-4.3,3.3-6.6c0.1-0.1,0.1-0.3,0.2-0.4
			c0-0.1,0.1-0.2,0.2-0.4c0.2-0.4,0.4-0.8,0.5-1.2l0,0l0.2-0.5l0.9-2.1c0.5-1.2,0.9-2.4,1.3-3.4c0.1-0.3,0.2-0.7,0.4-1
			c0.1-0.2,0.1-0.4,0.2-0.6c0.3-0.9,0.5-1.6,0.6-1.7l0,0l0,0c0.4-1.2,0.7-2.3,1-3.5C279.2,169,277.6,168.1,276.1,167.2z
			 M253.6,117.9c-0.6-0.6-1.1-1.2-1.5-1.9l-6.1,3l1.3,2.8l1.5,3.2l10-3.6C256.9,120.7,255,119.5,253.6,117.9z"/>
		<path class="st3" d="M281,169.8c-0.3,1.1-0.7,2.2-1.1,3.4l0,0l-33.8-10l-0.3,0.6c0,0.1-0.1,0.1-0.1,0.2c-0.1,0.2-0.2,0.4-0.3,0.6
			s-0.3,0.6-0.5,0.9l-0.5,1.1l-0.3,0.7l-2.8-1.1l0,0l0,0c0,0,0-0.1,0.1-0.2c0.1-0.1,0.1-0.2,0.2-0.4c0.1-0.2,0.2-0.4,0.3-0.7
			c0.5-1.2,0.9-2.3,1.2-3.5c0.4-1.5,0.7-2.9,1-4.4l22,3.6c3.2,2.5,6.5,4.8,10,6.9c1.5,0.9,3.1,1.7,4.8,2.4L281,169.8z"/>
		<path class="st4" d="M253.6,117.9c-0.6-0.6-1.1-1.2-1.5-1.9l-6.1,3l1.3,2.8l1.5,3.2l10-3.6C256.9,120.7,255,119.5,253.6,117.9z"/>
		<path class="st5" d="M283.7,128.1c0-0.2-0.1-0.4-0.1-0.6c-0.5-2-1.3-3.8-2.2-5.6c-0.2-0.3-0.4-0.7-0.6-1s-0.2-0.4-0.4-0.6
			c-0.1,0.8-0.4,1.6-0.9,2.3c0.4,0.6,0.7,1.2,1,1.8c1.1,2.7,0.8,5.5-0.8,6.2c0.3,0.5,0.5,1,0.8,1.5c1.1,2.8,0.7,5.6-0.9,6.3
			c-1.6,0.7-3.9-1.1-5-3.9c-0.3-0.7-0.5-1.4-0.6-2.2c-1.4,0.3-3.1-0.5-4.5-2.1c-1.1-1.1-1.9-2.4-2.5-3.9c-0.3-0.6-0.5-1.3-0.6-2
			c-1.4-0.8-2.5-1.9-3.3-3.2c-1.3,0.8-2.8,1-4.2,0.5l-10,3.6l-1.4-3.1c-1.9,0.7-4.2,2.4-6.3,2.5c-0.7,6.3,1,12.5,4.7,17.6
			c2,2.8,4.5,5.3,7.4,7.2c3.4,3.1,8.2,7.2,13,11c3.2,2.6,6.5,4.9,10,7.1c1.5,1,3.1,1.8,4.8,2.4h0.1c0.5,0.2,1,0.3,1.4,0.4
			c0.6,0.1,1.2,0.2,1.8,0.1c7.3-1.6,8.2-5.7,8.2-5.7S293.6,156.1,283.7,128.1z M281.7,166.8L281.7,166.8c0,0,0-0.1-0.1-0.1
			c-0.1-0.4-0.2-0.7-0.2-1.1l0.4,0.1h0.1l5,1.4C283.5,168.7,282.2,167.8,281.7,166.8L281.7,166.8z"/>
		<path class="st2" d="M257.5,138.9c0,0,6,3.8,10.8,1.1"/>
		<path class="st2" d="M245.7,127.8c0,0-4.2,0.9,0,5.7"/>
		<path class="st6" d="M276.9,127.9c0,0.1,0,0.1,0,0.2c-0.4-0.1-0.8-0.1-1.1,0.1c-0.1,0-0.1,0.1-0.2,0.1c-1,0.5-1.5,2-1.3,3.7h-0.2
			c-1.4,0.3-3.1-0.5-4.5-2c1.4,1.4,3,2.1,4.4,1.7c-0.2-1.7,0.3-3.2,1.3-3.7c0,0,0.1-0.1,0.2-0.1c0.4-0.1,0.8-0.2,1.1-0.1
			c0.1-1.6-0.1-3.2-0.7-4.7c-0.1-0.2-0.1-0.3-0.2-0.5c-0.3-0.6-0.6-1.3-1-1.9c-0.3-0.6-0.7-1.1-1.2-1.6c0.5,0.5,0.9,1,1.3,1.6
			c0.1,0.1,0.1,0.2,0.2,0.3c0.4,0.6,0.7,1.2,1,1.9c0.1,0.2,0.1,0.3,0.2,0.5C276.8,124.8,277,126.3,276.9,127.9z"/>
		<path class="st7" d="M274.9,120.6L274.9,120.6c-0.4-0.6-0.8-1.1-1.2-1.6C274.1,119.5,274.5,120.1,274.9,120.6z"/>
		<path class="st8" d="M287,167.1c-3.5,1.7-4.8,0.8-5.2-0.2l0,0c0,0,0-0.1-0.1-0.1c-0.1-0.4-0.2-0.7-0.2-1.1l0.4,0.1h0.1L287,167.1z
			"/>
		<path class="st9" d="M268.2,102.4c-0.3,0.1-0.5,0.2-0.7,0.3c-0.6,0.4-1.1,1-1.3,1.7c0,0.1-0.1,0.2-0.1,0.3l-0.1-0.1l0.1-0.2
			c0.3-0.7,0.7-1.3,1.4-1.7C267.6,102.6,267.9,102.5,268.2,102.4z"/>
		<path class="st2" d="M258.9,121.3l-10,3.6l-1.4-3.1l-1.3-2.8l6.1-3c0.4,0.7,0.9,1.3,1.5,1.9C255.1,119.5,256.9,120.7,258.9,121.3z
			"/>
		<path class="st3" d="M263,101.3c-0.2-0.2-0.5-0.3-0.7-0.5c-0.2-0.1-0.5-0.3-0.7-0.4l-0.2-0.1c0,0,0-0.1-0.1-0.1l0.3,0.1
			C262,100.7,262.5,101,263,101.3L263,101.3z"/>
		<path class="st7" d="M256.6,107.6L256.6,107.6l-0.5-0.2c-0.2-0.1-0.3-0.1-0.5-0.1h-0.1c-0.2-0.1-0.4-0.1-0.6-0.1
			c-0.2,0-0.4,0-0.6,0c-0.9,0-1.9,0.3-2.6,0.9c-1.5,1.3-1.5,3.9-0.3,6.5c0.2,0.5,0.5,1,0.8,1.5l-6.1,3l1.3,2.8l-2.9,1.6l-0.1,0.1
			l0,0l-2.2-4.3l-2.3-4.5l13.2-8.2c1,0.5,2.2,0.8,3.4,0.9C256.5,107.4,256.6,107.5,256.6,107.6z"/>
		<path class="st3" d="M263,101.3c-0.2-0.2-0.5-0.3-0.7-0.5c-0.2-0.1-0.5-0.3-0.7-0.4l-0.2-0.1c0,0,0-0.1-0.1-0.1l0.3,0.1
			C262,100.7,262.5,101,263,101.3L263,101.3z"/>
		<path class="st3" d="M268.2,102.4c-0.3,0.1-0.5,0.2-0.7,0.3c-0.6,0.4-1.1,1-1.3,1.7c0,0.1-0.1,0.2-0.1,0.3l-0.1-0.1l0.1-0.2
			c0.3-0.7,0.7-1.3,1.4-1.7C267.6,102.6,267.9,102.5,268.2,102.4z"/>
		<path class="st10" d="M239.9,114.7l2.3,4.4l-2.3,1.1c-1-1.7-2-3.3-3-4.8l-0.4-0.5c-0.6-0.9-1.1-1.7-1.6-2.3l-0.4-0.5l-0.2-0.3
			l-0.3-0.4l13-10c1.6,2.1,3.6,3.8,6,5L239.9,114.7z"/>
		<path class="st11" d="M236.6,115l0.4,0.5l-2.8,1.8c-1-1.4-2.1-3-3.2-4.3l-0.1-0.1c-1.2-1.5-2.3-2.8-2.8-3.5l-0.4-0.5l16.2-15.4
			c0.1,0.9,0.3,1.8,0.6,2.7c0.1,0.2,0.1,0.4,0.2,0.6c0.5,1.5,1.3,2.9,2.2,4.2c0.1,0.1,0.2,0.3,0.3,0.4l-13,10l0.3,0.4l0.2,0.3
			l0.4,0.5L236.6,115z"/>
		<path class="st12" d="M253.9,76.3c-0.2,0.2-0.4,0.4-0.6,0.6h-0.2c-0.8,0-1.5,0.2-2.2,0.6c-0.1,0.1-0.2,0.1-0.3,0.2
			c-1.8,1.3-2.3,4-1.4,7.1c0,0.1,0.1,0.3,0.1,0.4c-0.1,0.1-0.2,0.2-0.2,0.3c-0.2,0.3-0.3,0.5-0.4,0.8c0,0.1-0.1,0.2-0.1,0.3v0.1
			c0,0.1-0.1,0.3-0.1,0.5h-0.1c-0.9,0-1.7,0.3-2.4,0.7c-0.1,0.1-0.2,0.2-0.3,0.3c-1.5,1.1-2.1,3.1-1.9,5.4l0,0L227.6,109l0.4,0.5
			l2.8,3.5l-2.6,1.9c-0.9-1.2-2-2.4-3.1-3.5c-1.5-1.5-2.9-2.9-3.5-3.4l-0.2-0.2l29.2-34.4c0.2,0.2,0.6,0.5,1,0.9
			C252.3,74.8,253.1,75.5,253.9,76.3z"/>
		<path class="st13" d="M242.8,67.3l-27.2,39.8c2.7,1.9,5.2,4.1,7.4,6.4l2.2-2.3l-3.7-3.5l29.2-34.4
			C250.7,73.3,245.2,68.9,242.8,67.3z"/>
		<path class="st4" d="M234.7,62.4l-24.5,44.7c0,0,5.1,3.7,7,5.5l2.2-2.6l-3.8-3l27.2-39.8C242.7,67.3,237,63.6,234.7,62.4z"/>
		<path class="st14" d="M225.5,58l-21.1,50.3c2.5,1.3,5,2.7,7.3,4.3l1.9-3l-3.4-2.5l24.5-44.7C234.7,62.3,228.1,59,225.5,58z"/>
		<path class="st15" d="M216.2,54.8l-8.4,29.6c0,0-3.9-1.8-6.9-1.4l5.3-30.5C209.6,53,213,53.7,216.2,54.8z"/>
		<path class="st7" d="M196.7,51.3l-2.4,34c0,0,6.9,0.2,9.4,1.4l0.7-3.5l-3.4-0.3l5.2-30.4C206.2,52.5,200.3,51.5,196.7,51.3z"/>
		<path class="st16" d="M186.9,51.1l0.8,37.6c0,0,9.8-0.5,11.2,0.5l0.4-3.5l-5-0.4l2.4-34C193.5,51.1,190.2,51,186.9,51.1z"/>
		<path class="st9" d="M177.7,51.8l4.8,40.3c0,0,8.1-1,10.6-0.4v-3.1l-5.4,0.1l-0.8-37.6C186.9,51.1,180.1,51.5,177.7,51.8z"/>
		<path class="st17" d="M167.2,53.7l10.7,42.1c0,0,7.4-0.8,10.8,0l-0.7-4.2l-5.6,0.5l-4.7-40.3C174.1,52.1,170.6,52.7,167.2,53.7z"
			/>
		<path class="st12" d="M157.6,56.6l11.2,28.3c-1-0.2-5.8,1.9-6.5,2.5l-13.4-27.1C148.9,60.3,154.3,57.8,157.6,56.6z"/>
		<path class="st9" d="M165.6,85.9l6.1,15.8c3.7-1.4,7.5-2.2,11.4-2.3v-3.9l-5.2,0.3l-10.7-42.1c-3.2,0.8-6.4,1.8-9.6,2.9l11.2,28.3
			L165.6,85.9z"/>
		<path class="st14" d="M140.6,64.8l16.2,25.6l-5.8,3.8l-18.8-23.6C134.9,68.5,137.7,66.5,140.6,64.8z"/>
		<path class="st4" d="M125.1,76.7l22.7,24.3l4-2.8l4.4-3l-1.9-3.1l-3.2,2.1l-18.9-23.6C129.7,72.4,127.3,74.5,125.1,76.7z"/>
		<path class="st13" d="M151.8,98.3l10.4,13.2c2.2-2.2,4.8-3.9,7.6-5.2c2.6-1.2,5.4-2.2,8.2-2.8l-0.3-3.5l-5.9,1.7l-6.1-15.8
			l-3.3,1.6l-13.5-27.2l-8.3,4.5l16.2,25.6l-2.5,1.7l1.9,3.1L151.8,98.3z"/>
		<path class="st18" d="M169.8,106.3l1.6,3.2c0,0-12.5,7.2-18.2,16.9l-14.1-8.3c0,0,3-6.1,4.6-6.7l-3.1-2.3l3.4-3.5l-25.7-21.8
			c2.1-2.5,4.4-4.9,6.8-7.1l22.7,24.3l4-2.8l10.4,13.2C162.2,111.4,166.6,107.5,169.8,106.3z"/>
		<path class="st19" d="M112.2,91.7l24.6,16.6c0,0-0.8,0.9-1.9,2.5c-0.6,0.9-1.3,2-2.1,3.2l-25.7-14
			C108.6,97.1,110.3,94.3,112.2,91.7z"/>
		<path class="st17" d="M134.9,110.7l2.7,2.4c0.8-1.5,1.8-2.8,3-4l3.4-3.5l-25.7-21.8l-6.1,7.9l24.6,16.6L134.9,110.7z"/>
		<path class="st7" d="M102.8,108.8l27.7,10.9c-1.2,2.2-2,4.5-2.3,7l-28.8-8.6C99.4,118.1,101.3,112.1,102.8,108.8z"/>
		<path class="st17" d="M95.4,146.4h29.8c-0.2,2.1-0.2,4.1,0,6.2l-29.1,4.5C95.6,153.5,95.4,150,95.4,146.4z"/>
		<path class="st17" d="M104,184.7l26.7-13c0,0,1.9,3.4,3.5,5.7l-25.4,16.2C107,190.8,105.5,187.8,104,184.7z"/>
		<path class="st16" d="M120.3,209.2l21.7-21.5c1.3,1.9,2.8,3.6,4.5,5.1L127.2,216C127.2,216,123,212.2,120.3,209.2z"/>
		<path class="st20" d="M129.1,122.8l6.6,2.2c1-2.4,2.1-4.7,3.4-6.9l4.6-6.7l-3.1-2.3l-3,4l-2.7-2.4l-2.1,3.2l-25.7-14l-4.3,9
			l27.7,10.9L129.1,122.8z"/>
		<path class="st7" d="M129,144.3c0,1.5,0,3.1,0.2,4.7l-4.1,0.5v-0.1l0.1-3H95.4c-0.1-3.1,0-6.3,0.4-9.4l0,0l33.4,2.3
			c0,0-0.2,2.1-0.2,4.8V144.3z"/>
		<path class="st21" d="M207.8,110.1l-2,4c-6.5-3-13.7-4.2-20.8-3.5c-7.4,0.8-14.4,3.7-20.1,8.5l-3.2-2.5l9.7-7.1l-1.6-3.2
			c2.6-1.2,5.4-2.1,8.2-2.8l-0.3-3.5c1.8-0.4,3.6-0.6,5.5-0.6v-3.9c1.9-0.3,3.8-0.2,5.6,0.3l-0.7-4.2c1.7-0.3,3.4-0.2,5,0.1v-3.1
			c0,0,4.1-0.1,5.8,0.6l0.4-3.5c1.5,0,3,0.4,4.4,1l0.7-3.5l3.4,1.2l8.4-29.6c3.2,0.8,6.3,1.8,9.2,3.2l-21.1,50.3L207.8,110.1z"/>
		<path class="st18" d="M185,110.6v3.8c0,0-8.7-0.6-17.3,8c0,0-0.2,0.1-0.4,0.4c-4.3,4.6-7.6,10.1-9.7,16.1l-60.4-11.5l0,0
			c0.5-3.2,1.3-6.3,2.3-9.3l0,0l28.7,8.7c0.2-1.3,0.5-2.6,0.9-3.9l6.6,2.1l0.1-0.3c0,0,0-0.1,0.1-0.2c0.1-0.1,0.1-0.2,0.1-0.3
			s0.1-0.2,0.1-0.3l0,0c0.8-2,1.8-3.9,2.9-5.8l14.2,8.4l0.1-0.1c2-2.8,4.2-5.4,6.5-7.9l0.1-0.1c0.6-0.6,1.1-1.1,1.8-1.6h0.1l0,0
			l3.3,2.4l0.1-0.1l0.1-0.1c4-2.8,8.4-5.1,12.9-6.9h0.1C180.3,111.1,182.7,110.7,185,110.6z"/>
		<path class="st0" d="M170.5,125.5c-3,2.5-5.3,5.6-6.8,9.2c-1.1,2.5-1.6,5.3-1.5,8c0,0.7,0.1,1.3,0.2,2l-33.3-0.4v-0.1l0.2-4.8
			L95.8,137c0.1-1.1,0.2-2.2,0.3-3.2c0.2-1.6,0-0.1,0-0.1c0-0.2,0.1-0.5,0.1-0.7s0.1-0.5,0.1-0.8s0.1-0.7,0.2-1.1
			c0.1-0.4,0.1-0.7,0.2-1c0.1-0.3,0.1-0.4,0.1-0.6s0.1-0.4,0.1-0.6s0.1-0.6,0.1-0.8c0-0.2,0.1-0.3,0.1-0.5c0-0.1,0-0.2,0-0.2
			l60.5,11.5c2.1-6,5.4-11.5,9.7-16.1c0.3-0.3,0.4-0.4,0.4-0.4L170.5,125.5z"/>
		<path class="st2" d="M96.7,129.8c0-0.1,0-0.2,0-0.3c0,0.2,0,0.4-0.1,0.6C96.7,130,96.7,129.9,96.7,129.8z"/>
		<path class="st18" d="M96.1,133.8c-0.2,1.1-0.3,2.1-0.3,3.2l0,0C95.9,136,96,134.8,96.1,133.8z"/>
		<path class="st18" d="M97.2,127.4c0,0.1,0,0.2,0,0.2C97.2,127.5,97.2,127.4,97.2,127.4z"/>
		<path class="st18" d="M167.3,122.8c-4.3,4.6-7.6,10.1-9.7,16.1C159.3,131.3,165.6,124.5,167.3,122.8z"/>
		<path class="st9" d="M100.4,175.6l30.4-11.7c0,0,1.2,1.9,2.7,4.2c0.8,1.2,1.6,2.4,2.5,3.6l-3.5,2.8l-1.6-2.8l-26.7,13
			C102.6,181.8,101.3,178.8,100.4,175.6z"/>
		<path class="st8" d="M165.8,149.2c0.1,0.3,0.2,0.6,0.3,0.9l-68.2,16.3l-1.7-9.2v-0.1V157l0,0l29.1-4.4l-0.1-3v-0.1l4.1-0.6
			l-0.2-4.7l0,0l33.4,0.4c-0.1-0.7-0.1-1.4-0.2-2c-0.1-2.7,0.5-5.5,1.5-8l3.4,1.1l-1.1,6.1v0.2c0,0.1,0,0.2,0,0.3s0,0.2-0.1,0.4
			l-0.1,0.5c-0.1,1-0.2,2-0.2,3.1c0,0.2,0,0.3,0,0.5s0,0.6,0.1,0.9c0.1,0.3,0,0.4,0.1,0.6l0,0C165.7,148.6,165.8,148.9,165.8,149.2z
			"/>
		<path class="st7" d="M144.1,190.3l3.1-2.6c0,0-2-1.5-3.9-3.2c-1.3-1.1-2.4-2.3-3.2-3.8L114,201.5c2,2.7,4.1,5.2,6.4,7.7l21.7-21.5
			L144.1,190.3z"/>
		<path class="st22" d="M161.3,235.3l8.2-29.8c2.2,0.9,4.6,1.5,7,1.5l-5,30.9C168,237.2,164.6,236.3,161.3,235.3z"/>
		<path class="st22" d="M180.9,239.3l1.2-31.2c2.7,0.3,5.5,0.3,8.2,0l-0.7,31.6C189.7,239.7,184.5,239.7,180.9,239.3z"/>
		<path class="st7" d="M220.2,234.6l-11.3-29.3c2.3-0.5,4.5-1.5,6.4-2.8l14.4,28.3C226.7,232.3,223.5,233.6,220.2,234.6z"/>
		<path class="st11" d="M246.1,221l-19.9-25.1l5.6-4.5l22,23.2C251.4,216.9,248.8,219.1,246.1,221z"/>
		<path class="st7" d="M260.6,207.6l-25.1-20.7c1.8-1.5,3.5-3.2,5.1-5.1l26.6,17.4C265.2,202.2,263,205,260.6,207.6z"/>
		<path class="st19" d="M272.3,191.1l-28.7-14.8c1.4-2,2.6-4.2,3.7-6.4l29.2,12.6C275.2,185.5,273.8,188.3,272.3,191.1z"/>
		<path class="st4" d="M212.2,204.2l-2-3.9c-1.2,0.9-2.6,1.7-4,2.2c-1.5,0.7-3.1,1.2-4.7,1.6l9.2,33.1c0,0,6.6-1.7,9.5-2.7
			l-11.3-29.2C208.9,205.3,209.1,205.9,212.2,204.2z"/>
		<path class="st4" d="M206.3,202.6l-1.2-4c-1.6,0.7-3.2,1.3-4.8,1.8c-1.7,0.5-3.4,0.9-5.1,1.2l5,37.6c0,0,7.2-0.9,10.6-1.8
			l-9.2-33.1C203.2,203.9,204.8,203.3,206.3,202.6z"/>
		<path class="st12" d="M200.3,200.3l-0.9-3.6c-4.4,1.6-9.1,2.2-13.7,1.7v9.8l4.7-0.3l-0.7,31.6c3.5,0.2,7,0,10.4-0.6l-5-37.6
			C195.2,201.5,199.6,200.6,200.3,200.3z"/>
		<path class="st22" d="M172.7,206.6l3.8-12.9c2.8,0.6,5.7,1,8.6,1.2c2.4,0.2,4.7,0.1,7.1-0.1v3.8c0,0-4.1,0.1-6.5,0.1v9.8l-3.5-0.3
			l-1.3,31.1c0,0-6-0.6-9.5-1.4l5-30.9C175.2,207,173.9,206.9,172.7,206.6z"/>
		<path class="st3" d="M185.1,194.8l0.6-3.5c0,0-3.4-0.2-7-0.9c-3.1-0.6-6.4-1.4-8.1-2.8l-19,43.9c3.2,1.4,6.4,2.6,9.7,3.7l8.2-29.8
			c1,0.5,2.1,0.8,3.2,1l3.8-12.9C176.5,193.6,182.3,194.7,185.1,194.8z"/>
		<path class="st3" d="M178.6,190.5l0.7-3.3c0,0-9-1.3-12.1-4.9l-24.3,44.9c2.8,1.6,5.7,3.1,8.7,4.4l18.9-43.9
			C170.6,187.7,175.8,190.1,178.6,190.5z"/>
		<path class="st23" d="M172.7,185.6l1.2-3.2c0,0-5.4-2.1-8.2-5.4l-31.4,44.8c2.7,2,5.5,3.9,8.5,5.5l24.4-44.9
			C168.8,183.8,170.7,184.9,172.7,185.6z"/>
		<path class="st11" d="M229,193.7l-2.3-2.6c-2,2.4-4.5,4.3-7.3,5.7l18.6,29.7c2.9-1.6,5.6-3.4,8.1-5.4L226.2,196L229,193.7z"/>
		<path class="st9" d="M245.5,173.1l-3.6-1.3c0,0,1.1-2.4,2.2-4.8c0.8-1.7,1.6-3.4,2-4.2l33.8,10.3c0,0-1.8,5.8-3.5,9.4l-29.2-12.6
			L245.5,173.1z"/>
		<path class="st23" d="M243.1,160.9l-43.4-12.2c0,0-1.6,3.8-7,7.7l1,3.1c2.5-1.2,4.8-2.8,6.9-4.7l38,29.4l2.1-2.4l26.6,17.4
			c0,0,3.4-5,5.1-8.1l-28.7-14.8c0.8-1,1.4-2.1,2-3.2l-3.7-1.3c0,0,1.1-2.4,2.2-4.8l-2.8-1.1C242,164.3,242.6,162.7,243.1,160.9z"/>
		<path class="st18" d="M133.4,168.1l37.9-14.8c0,0-2.8-6.2-1.5-11.5h-3.9c0,0-1.2,5.6,0.2,8.2l-68.2,16.4c0.6,3.1,1.5,6.2,2.5,9.2
			l30.4-11.7L133.4,168.1z"/>
		<path class="st23" d="M143.3,184.5l31.6-26.2c0,0-2.8-3-3.5-5l-38,14.9l2.5,3.6l-3.5,2.8l1.8,3l-25.4,16.2c0,0,2.8,4.7,5.2,7.8
			l26.1-20.8C141,182.1,142,183.4,143.3,184.5z"/>
		<path class="st23" d="M169.2,179.9L180,162c-2.1-0.7-3.8-2-5.2-3.7l-31.5,26.2l3.9,3.2l-3.1,2.6l2.5,2.4l-19.3,23.2
			c0,0,3.8,3.4,7.2,5.8l31.4-44.8L169.2,179.9z"/>
		<path class="st8" d="M244.1,122.8h-0.2l-3.2,0.8c0,0-12.6-9.9-28.9-10.9l1.9-2.8l3.5,2.8l2.2-2.4l0,0l3.5,3.2l2.2-2l3,3.2l2.6-1.7
			l0.1,0.1l3.1,4l2.7-1.7l2.9,4.4l2.2-1.1L244.1,122.8z"/>
		<path class="st16" d="M222.8,194.7l-32.4-33.8c3.6-1.6,7-3.6,10.1-6.2l38,29.4l-2.9,2.7l25.1,20.7c-2,2.5-4.3,4.8-6.8,6.9
			l-22-23.2l-2.9,2.3l-2.3-2.6C225.7,192.5,224.3,193.7,222.8,194.7z"/>
		<path class="st24" d="M261.5,100.5l-0.2-0.1c0,0,0-0.1-0.1-0.1L261.5,100.5L261.5,100.5z"/>
		<path class="st24" d="M279.8,138.4c-1.5,0.7-3.6-1.1-4.6-3.9c-0.3-0.7-0.4-1.4-0.5-2.2c0-0.1,0-0.2,0-0.3
			c-0.1-1.7,0.3-3.2,1.2-3.7l0.1-0.1c0.3-0.1,0.7-0.2,1.1-0.1l0.3,0.1c1.1,0.5,2,1.4,2.6,2.5c0.3,0.5,0.5,1,0.7,1.5
			C281.7,134.9,281.3,137.7,279.8,138.4z"/>
		<path class="st4" d="M279.8,130.3c-0.6-1.1-1.6-2-2.9-2.5l-0.3-0.1c0.1-1.6-0.1-3.2-0.6-4.7c-0.1-0.2-0.1-0.3-0.2-0.5
			c-0.3-0.7-0.6-1.3-0.9-1.9c0,0,0,0,0.1,0c0.2-0.2,0.4-0.3,0.6-0.4c1.2-0.5,2.8,0.4,4,2.1c0.4,0.6,0.7,1.2,1,1.8
			C281.6,126.9,281.3,129.6,279.8,130.3z"/>
		<path class="st13" d="M276.7,127.8c-0.4-0.1-0.8-0.1-1.1,0.1c-0.1,0-0.1,0.1-0.2,0.1c-1,0.5-1.5,2-1.4,3.7c-1.4,0.4-3-0.3-4.4-1.8
			c-1-1.1-1.7-2.3-2.2-3.6c-0.3-0.6-0.5-1.3-0.6-2c-0.6-2.5-0.2-4.8,0.9-6.2c0.3-0.4,0.7-0.7,1.2-0.9c0.5-0.2,1.1-0.3,1.7-0.2
			c0.6,0.1,1.1,0.3,1.6,0.6l0,0c0.2,0.1,0.4,0.2,0.6,0.4c0.3,0.2,0.6,0.5,0.9,0.8l0.1,0.1c0.5,0.5,0.9,1,1.2,1.6
			c0.4,0.6,0.7,1.2,0.9,1.9c0.1,0.2,0.1,0.3,0.2,0.5C276.6,124.6,276.8,126.2,276.7,127.8z"/>
		<path class="st25" d="M272.4,117.9c-0.2-0.2-0.4-0.3-0.6-0.4l0,0c-1-0.3-2-0.3-3-0.2c-0.5,0.2-0.9,0.5-1.2,0.9
			c-1.1,1.3-1.4,3.6-0.9,6.2c0.1,0.7,0.4,1.4,0.6,2c0.5,1.3,1.3,2.5,2.2,3.6c-1.1-1.1-1.9-2.4-2.5-3.9c-0.3-0.6-0.5-1.3-0.6-2
			c-1.4-0.8-2.5-1.9-3.3-3.2l0,0c-0.2-0.3-0.4-0.6-0.5-0.9c-0.3-0.5-0.5-1-0.8-1.5c-0.8-1.9-1.1-4-0.9-6c0-0.4,0.1-0.7,0.2-1.1
			c0.3-1.2,1.1-2.3,2.3-2.9c0.9-0.3,2-0.3,2.9,0.1h0.1c0.1,0,0.3,0.1,0.4,0.2c1.9,1.1,3.3,2.7,4.2,4.7l0,0c0,0.1,0.1,0.2,0.1,0.3
			s0.2,0.4,0.3,0.7c0.3,0.6,0.5,1.3,0.6,2C272.3,117,272.3,117.4,272.4,117.9z"/>
		<path class="st25" d="M280.5,119.5c0,0.2,0,0.3-0.1,0.5c-0.1,0.8-0.4,1.6-0.9,2.3c-1.2-1.7-2.8-2.6-4-2.1
			c-0.2,0.1-0.4,0.2-0.6,0.4c-0.4-0.6-0.8-1.1-1.2-1.6l-0.1-0.1c-0.4-0.4-0.8-0.7-1.2-1.1c-0.1-0.5-0.1-0.9-0.2-1.4
			c-0.1-0.7-0.4-1.4-0.6-2c-0.1-0.2-0.2-0.4-0.3-0.7c-0.1-0.3-0.1-0.2-0.1-0.3l0,0c0-2.5,0.8-4.5,2.4-5c0.4-0.1,0.9-0.2,1.4-0.1l0,0
			c0.6,0.1,1.3,0.4,1.8,0.8c0.2,0.1,0.4,0.3,0.5,0.5l0,0c0,0,0,0,0.1,0c1.3,1.3,2.3,3,2.8,4.8C280.5,116.1,280.7,117.8,280.5,119.5z
			"/>
		<path class="st26" d="M274.9,108.5c-0.4-0.1-0.9-0.1-1.3,0c-1.6,0.5-2.4,2.5-2.4,5c-0.9-1.9-2.4-3.6-4.3-4.6
			c-0.1-0.1-0.3-0.1-0.4-0.2h-0.1c-0.2-1.4-0.3-2.7-0.3-4.1c0.3-0.7,0.7-1.3,1.3-1.8c0.2-0.1,0.5-0.3,0.7-0.3l0,0
			c1.4-0.4,3.1,0.2,4.7,1.5c0.4,0.3,0.8,0.6,1.2,1c0.2,0.2,0.3,0.4,0.5,0.6c0.9,1.2,1.6,2.5,2.1,4
			C276.1,109,275.5,108.7,274.9,108.5z"/>
		<path class="st12" d="M263.1,120.8L263.1,120.8c-1.3,0.8-2.8,1-4.2,0.5c-2-0.7-3.8-1.9-5.2-3.4c-0.6-0.6-1.1-1.2-1.5-1.9
			c-0.3-0.5-0.6-1-0.8-1.5c-1.2-2.6-1.2-5.1,0.3-6.5c0.7-0.6,1.6-1,2.6-0.9c0.2,0,0.4,0,0.6,0c0.2,0,0.4,0.1,0.6,0.1h0.1
			c0.2,0,0.3,0.1,0.5,0.1l0.4,0.2h0.1c0.3,0.1,0.5,0.2,0.8,0.3c0.1,0,0.2,0.1,0.3,0.1c0.2,0.1,0.4,0.2,0.6,0.3
			c0.2,0.1,0.4,0.2,0.6,0.4h0.1l0.7,0.5c0.6,0.5,1.1,1,1.6,1.5l0.1,0.1c-0.1,0.1-0.1,0.3-0.1,0.5c-0.1,0.4-0.2,0.7-0.2,1.1
			c-0.2,2,0.1,4.1,0.9,6c0.2,0.5,0.5,1,0.8,1.5C262.8,120.3,263,120.6,263.1,120.8z"/>
		<path class="st3" d="M266.4,108.7c-0.9-0.4-1.9-0.5-2.9-0.2c-1,0.5-1.8,1.3-2.1,2.4l-0.1-0.1c-0.5-0.5-1-1-1.6-1.5l-0.7-0.5h-0.1
			c-0.2-0.1-0.4-0.3-0.6-0.4s-0.4-0.2-0.6-0.3c-0.1-0.1-0.2-0.1-0.3-0.1c-0.3-0.1-0.5-0.2-0.8-0.3c0-0.1-0.1-0.2-0.1-0.2
			c-0.3-0.8-0.5-1.6-0.6-2.5c0,0,0,0,0-0.1c-0.3-1.4,0.2-2.9,1.2-4l0,0l0.2-0.1l0.2-0.2l0,0c0.1-0.1,0.3-0.2,0.5-0.2
			c0.1,0,0.2-0.1,0.2-0.1c0.6-0.2,1.2-0.2,1.8-0.1c0.4,0.1,0.9,0.2,1.3,0.4l0,0c0,0,0,0.1,0.1,0.1l0.2,0.1c0.3,0.1,0.5,0.2,0.7,0.4
			c0.2,0.1,0.5,0.3,0.7,0.5l0.1,0.1l0.4,0.3c0.7,0.7,1.3,1.6,1.7,2.4l0.2,0.3l0,0c0,0.4,0,0.9,0.1,1.3
			C265.5,106.8,265.9,107.8,266.4,108.7z"/>
		<path class="st15" d="M273.6,101.3c-0.1,0.5-0.3,1-0.4,1.5c0,0.1-0.1,0.3-0.2,0.4c0,0-3.5-1.8-4.9-1.3l0,0
			c-0.3,0.1-0.6,0.2-0.8,0.4c-0.6,0.4-1.1,1-1.4,1.7c0,0.1-0.1,0.2-0.1,0.2c-0.2-0.2-0.5-0.4-0.6-0.6c-0.4-0.7-1.5-2.5-2.2-2.7
			c-0.3-0.2-0.6-0.4-0.8-0.6c-0.2-0.1-0.4-0.3-0.7-0.4c-0.3-2-1-3.9-2-5.6l0,0c-0.1-0.1-0.2-0.3-0.2-0.4c0.1-0.3,0.4-2.2,0.6-2.7
			c0.3-0.8,0.9-1.5,1.6-2c0.5-0.3,1-0.5,1.6-0.5l0,0c0.1,0,0.3,0,0.4,0h0.1c0.3,0,0.5,0,0.8,0c0.4,0,0.9,0.1,1.3,0.3l0,0
			c1.6,0.6,3,1.6,4.1,2.8c0.7,0.7,1.3,1.4,1.8,2.2c0.3,0.4,0.5,0.8,0.7,1.2C273.2,97,273.7,99.2,273.6,101.3z"/>
		<path class="st3" d="M261.1,100.2l-0.3-0.1l0,0c-0.4-0.2-0.8-0.3-1.3-0.4c-0.6-0.1-1.2-0.1-1.8,0.1c-0.1,0-0.2,0.1-0.2,0.1
			c-0.2,0.1-0.3,0.1-0.5,0.2l0,0l-0.2,0.2l-0.2,0.1l0,0c-1,1.1-1.4,2.6-1.2,4c0,0,0,0,0,0.1c0.1,0.9,0.3,1.7,0.6,2.5
			c-1.2-0.1-2.3-0.4-3.4-0.9c-2.4-1.2-4.4-2.9-6-5c-0.1-0.1-0.2-0.3-0.3-0.4c-0.9-1.3-1.7-2.7-2.2-4.2c-0.1-0.2-0.2-0.4-0.2-0.6
			c-0.3-0.9-0.5-1.8-0.6-2.7l0,0c-0.2-2.3,0.4-4.3,1.9-5.4c0.1-0.1,0.2-0.2,0.3-0.3c0.7-0.5,1.6-0.7,2.4-0.7h0.1c0.2,0,0.3,0,0.5,0
			c0.4,0,0.8,0.1,1.2,0.2c2.3,0.6,4.3,1.8,6,3.5c0.8,0.8,1.6,1.7,2.3,2.6c0.3,0.5,0.6,0.9,0.9,1.4l0,0
			C260.1,96.3,260.8,98.2,261.1,100.2z"/>
		<path class="st27" d="M265.1,87.8c0-0.1-0.1-0.1-0.1-0.2l0,0l-0.1-0.1l-0.1-0.1l-0.2-0.3c-0.7-1.6-1.5-3.2-2.4-4.8
			c-0.6-0.9-1.3-1.7-2-2.4c-1.8-1.9-4.1-3.1-6.6-3.4h-0.4h-0.3c-0.8,0-1.6,0.2-2.3,0.6c-0.1,0.1-0.2,0.1-0.3,0.2
			c-1.9,1.3-2.4,4-1.5,7.1c0,0.1,0.1,0.3,0.1,0.4v0.1c0.2,0.7,0.5,1.4,0.9,2.1c2.4,0.6,4.6,1.8,6.4,3.4c0.9,0.8,1.7,1.7,2.4,2.6
			c0.2,0.3,0.5,0.6,0.7,0.9c0-0.3,0.1-0.6,0.3-0.9c0-0.6,0.2-1.2,0.4-1.8c0.3-0.7,0.8-1.4,1.4-1.8c0.1-0.1,0.2-0.1,0.3-0.2
			c0.5-0.3,1.1-0.5,1.7-0.5l0,0c0.1,0,0.3,0,0.4,0h0.1c0.8,0,1.5,0.1,2.3,0.3C265.8,88.6,265.4,88.2,265.1,87.8z"/>
		<path class="st7" d="M176.9,160.3l2.4-2.7c0,0,3.2,4,11.1,3.4l32.4,33.8c-1,0.8-2.2,1.5-3.4,2l18.6,29.7c0,0-5.3,3-8.1,4.3
			l-14.5-28.3l-2.9,1.6l-2.2-3.8l-4,2.2l-1.2-4l-4.8,1.8l-0.9-3.6c-2.3,0.9-4.7,1.4-7.2,1.7v-3.7c0,0-5.5,0.2-7.1,0.1l0.6-3.5
			c0,0-6.5-0.8-7-0.9l0.7-3.3c0,0-5.3-1.2-6.6-1.7l1.2-3.2c-1.7-0.7-3.3-1.5-4.8-2.5l10.8-17.9C179,161.6,177.9,161,176.9,160.3
			l2.4-2.7"/>
	</g>
</g>
<path class="st0" d="M374.4,332.4H13.6c-3.4,0-6.2-2.8-6.2-6.2v-29.2c0-3.4,2.8-6.2,6.2-6.2h360.8c3.4,0,6.2,2.8,6.2,6.2v29.2
	C380.7,329.6,377.8,332.4,374.4,332.4z"/>
<g>
	<circle class="st28" cx="366.7" cy="303.7" r="1.4"/>
	<circle class="st29" cx="366.7" cy="303.7" r="2.5"/>
</g>
</svg>
