<?xml version="1.0" encoding="utf-8"?>
<!-- Generator: Adobe Illustrator 25.0.1, SVG Export Plug-In . SVG Version: 6.00 Build 0)  -->
<svg version="1.1" id="Layer_1" xmlns="http://www.w3.org/2000/svg" xmlns:xlink="http://www.w3.org/1999/xlink" x="0px" y="0px"
	 viewBox="0 0 1366 768" style="enable-background:new 0 0 1366 768;" xml:space="preserve">
<style type="text/css">
	.st0{fill:none;stroke:#7351A3;stroke-width:5;stroke-miterlimit:10;}
	.st1{fill:#7351A3;}
</style>
<image style="overflow:visible;" width="2556" height="1442" xlink:href="../../../../Dropbox (Personal)/Screenshots/pango-designation-repo.png"  transform="matrix(0.5 0 0 0.5 44 23.5)">
</image>
<path class="st0" d="M267.5,197.5h-85c-6.6,0-12-5.4-12-12v-27c0-6.6,5.4-12,12-12h85c6.6,0,12,5.4,12,12v27
	C279.5,192.1,274.1,197.5,267.5,197.5z"/>
<path class="st0" d="M1286.5,564.5h-284c-6.6,0-12-5.4-12-12v-131c0-6.6,5.4-12,12-12h284c6.6,0,12,5.4,12,12v131
	C1298.5,559.1,1293.1,564.5,1286.5,564.5z"/>
<g>
	<g>
		<line class="st0" x1="38.5" y1="267.5" x2="126" y2="219.9"/>
		<g>
			<path class="st1" d="M152.5,205.5c-10,11.4-21.1,27.7-26.2,41.3l-3.8-25L103.6,205C117.7,208.2,137.5,207.7,152.5,205.5z"/>
		</g>
	</g>
</g>
<g>
	<g>
		<line class="st0" x1="1322" y1="666" x2="1256.9" y2="603.6"/>
		<g>
			<path class="st1" d="M1235.2,582.7c13.9,6,32.8,11.7,47.3,12.4l-22.7,11.2l-10.2,23.1C1248.3,615,1241.8,596.3,1235.2,582.7z"/>
		</g>
	</g>
</g>
</svg>
