<?xml version="1.0" encoding="utf-8"?>
<!-- Generator: Adobe Illustrator 25.0.1, SVG Export Plug-In . SVG Version: 6.00 Build 0)  -->
<svg version="1.1" id="Layer_1" xmlns="http://www.w3.org/2000/svg" xmlns:xlink="http://www.w3.org/1999/xlink" x="0px" y="0px"
	 viewBox="0 0 388 388" style="enable-background:new 0 0 388 388;" xml:space="preserve">
<style type="text/css">
	.st0{fill:none;stroke:#1D1D1B;stroke-miterlimit:10;}
	.st1{fill:#77748B;stroke:#1D1D1B;stroke-miterlimit:10;}
	.st2{fill:#74625E;stroke:#1D1D1B;stroke-miterlimit:10;}
	.st3{fill:#C69D97;stroke:#1D1D1B;stroke-miterlimit:10;}
	.st4{fill:#82534E;stroke:#1D1D1B;stroke-miterlimit:10;}
	.st5{fill:#924242;stroke:#1D1D1B;stroke-miterlimit:10;}
	.st6{fill:#906964;stroke:#1D1D1B;stroke-miterlimit:10;}
	.st7{fill:#917774;stroke:#1D1D1B;stroke-miterlimit:10;}
	.st8{fill:#C4C0D1;stroke:#1D1D1B;stroke-miterlimit:10;}
	.st9{fill:#6E6C78;stroke:#1D1D1B;stroke-miterlimit:10;}
	.st10{fill:#6F6D92;stroke:#1D1D1B;stroke-miterlimit:10;}
	.st11{fill:#A7A3BB;stroke:#1D1D1B;stroke-miterlimit:10;}
	.st12{fill:#BEC1E0;stroke:#1D1D1B;stroke-miterlimit:10;}
	.st13{fill:#7C7F8E;stroke:#1D1D1B;stroke-miterlimit:10;}
	.st14{fill:#F7C5BA;stroke:#1D1D1B;stroke-miterlimit:10;}
	.st15{fill:#DE7A7A;stroke:#1D1D1B;stroke-miterlimit:10;}
	.st16{fill:#CFADA7;stroke:#1D1D1B;stroke-miterlimit:10;}
	.st17{fill:#F9D0D0;stroke:#1D1D1B;stroke-miterlimit:10;}
	.st18{fill:#A5635E;stroke:#1D1D1B;stroke-miterlimit:10;}
	.st19{fill:#E1DFE8;stroke:#1D1D1B;stroke-miterlimit:10;}
	.st20{fill:#595A5E;stroke:#1D1D1B;stroke-miterlimit:10;}
	.st21{fill:#B98781;stroke:#1D1D1B;stroke-miterlimit:10;}
	.st22{fill:#FBE3DD;stroke:#1D1D1B;stroke-miterlimit:10;}
	.st23{fill:#C0B8DC;stroke:#1D1D1B;stroke-miterlimit:10;}
	.st24{fill:#8B87A6;stroke:#1D1D1B;stroke-miterlimit:10;}
	.st25{fill:#929AC9;stroke:#1D1D1B;stroke-miterlimit:10;}
	.st26{fill:#504A48;stroke:#1D1D1B;stroke-miterlimit:10;}
</style>
<g id="Layer_2_1_">
	<g id="Layer_1-2">
		<path class="st0" d="M11.4,167.3c0.1-0.7,0.2-1.3,0.3-1.9s0.1-0.8,0.2-1.1c0,0.2,0,0.4,0,0.6C11.7,165.6,11.5,166.4,11.4,167.3z
			 M348.1,234.9c-6.5-4.1-12.8-8.5-18.7-13.3c-9.1-7.1-18-14.8-24.4-20.6c-5.4-3.5-10.1-8.1-13.8-13.4c-6.9-9.6-10-21.3-8.8-33.1
			l6.2-1.7l-4.1-8l-4.3-8.2l24.8-15.4c-4.5-2.2-8.3-5.4-11.2-9.4c-0.2-0.2-0.4-0.5-0.6-0.8c-1.7-2.4-3.1-5-4.1-7.8
			c-0.2-0.4-0.3-0.7-0.4-1.1c-0.5-1.6-0.9-3.3-1-5.1l0,0c-0.4-4.3,0.7-8,3.5-10.1c0.2-0.2,0.4-0.4,0.6-0.5c1.4-0.8,2.9-1.3,4.6-1.3
			h0.2c0-0.3,0.1-0.6,0.2-0.9V84c0.1-0.2,0.1-0.4,0.2-0.5c0.2-0.5,0.4-1.1,0.7-1.5c0.1-0.2,0.3-0.4,0.4-0.7c0.1-0.2-0.1-0.5-0.2-0.7
			c-1.6-5.6-0.7-10.9,2.7-13.3c0.2-0.2,0.3-0.3,0.5-0.4c1.2-0.7,2.7-1.1,4.1-1h0.3c0.3-0.4,0.6-0.8,1-1.1l0,0
			c-1.4-1.3-2.8-2.5-4.2-3.7c-0.8-0.7-1.4-1.3-1.9-1.6l0,0l0,0l-1.9-1.8c-2.4-2-4.8-3.9-7.3-5.6c-1.1-0.9-2.2-1.7-3.3-2.4l-0.8-0.6
			l-1.4-1l-0.1-0.1l-0.3-0.2l-1.7-1.1c-2.9-2-5.8-3.7-8.8-5.5c-0.9-0.6-1.9-1.1-2.6-1.5l-0.7-0.4l-0.9-0.5h-0.2
			c-3.7-2.1-7.7-3.9-11.6-5.6l-3.4-1.7l-1-0.4l-1-0.4c-5.6-2.3-11.4-4.3-17.2-6l0,0c-6.2-1.8-12.4-3.2-18.7-4.3c0,0-2.4-0.4-5.6-0.9
			l-2.1-0.3c-1.9-0.3-4-0.5-5.9-0.7c-1,0-1.9-0.2-2.8-0.2h-1.3h-0.5h-0.5h-0.9h-0.5h-0.8h-0.8h-1.6h-0.9h-1.9c-1.5,0-3,0-4.6,0
			c-1.5,0-3.1,0-4.6,0l-0.9-0.6h-0.4c-4.6,0.1-9.2,0.5-13.7,1l-1.2,0.1l-1.1,0.1l-0.9,0.1c-6.6,0.8-13.1,2.1-19.5,3.7l0,0h-0.4
			l-2.1,0.6c-5.2,1.4-10.4,3-15.4,4.8l0,0l-1.2,0.4l-2.6,1c-1.3,0.5-2.7,1.1-4.1,1.7c-1.3,0.6-2.7,1.1-3.7,1.6
			c-0.4,0.1-0.7,0.3-1.1,0.5l-3.7,1.6c-5.3,2.5-10.4,5.4-15.4,8.4l0,0c-5.3,3.3-10.5,6.8-15.5,10.6l-0.3,0.3l0,0
			c-4.6,3.6-9,7.3-13.3,11.3c-4,3.7-7.8,7.7-11.5,11.8c-0.8,1-1.3,1.5-1.3,1.5c-4,4.6-7.7,9.5-11.2,14.5l0,0
			c-0.1,0.1-0.1,0.1-0.1,0.2c-3.5,5-6.6,10.1-9.5,15.4c-0.1,0.2-0.2,0.3-0.3,0.5l0,0c-2.9,5.3-5.5,10.7-7.9,16.3l-1.5,3.6
			c-0.4,1-0.8,2.1-1.2,3.1c-1.2,3.2-2.4,6.4-3.4,9.6c-0.2,0.7-0.3,1.1-0.3,1.1c-1.7,5.7-3.2,11.5-4.3,17.4L126,181.9
			c3.9-11.2,10.1-21.5,18.2-30.2c0.5-0.5,0.8-0.8,0.8-0.8l5.2,5.8c-5.6,4.6-10,10.5-12.7,17.2c-2,4.7-2.9,9.9-2.8,15
			c0,1.3,0.1,2.5,0.3,3.7l-62.5-0.7v-0.2l0.3-9l-62.6-4.5c-0.5,5.2-0.7,10.4-0.7,15.7c0,0.7,0,1.3,0,2c0.1,6.7,0.5,13.3,1.3,19.9
			c0,0,0,0.1,0,0.2v0.2c1.1,9,3,17.8,5.5,26.5c0.3,1.2,0.7,2.5,1.1,3.7c0.4,1.2,0.9,2.8,1.3,4.1l0,0c1.9,5.7,4.2,11.4,6.7,16.9
			l0.1,0.2c1.3,2.9,2.7,5.7,4.2,8.5c0.3,0.6,0.7,1.3,1,1.9v0.1l0.7,1.2c0.7,1.2,1.3,2.2,1.7,3.1l0.4,0.7c0.1,0.1,0.1,0.2,0.2,0.3
			c0.1,0.3,0.3,0.5,0.5,0.8l0,0l0.3,0.6c0.2,0.4,0.6,0.9,1,1.6l0.5,0.9l1.3,2c2.1,3.2,4.3,6.4,6.6,9.5l0,0c0.1,0.1,0.7,1,1.6,2.2
			c0.2,0.3,0.4,0.6,0.7,0.9c0.5,0.6,1,1.3,1.6,2c0.6,0.7,1.1,1.4,1.7,2.1c0,0.1,0.1,0.1,0.1,0.1c2,2.4,4,4.8,6.2,7
			c4.1,4.5,8.4,8.7,13,12.7l0.3,0.3l0.6,0.5l0.8,0.7l2.2,1.9l0.7,0.5l0.7,0.6c0.9,0.7,1.8,1.4,2.7,2.2c0.9,0.7,2.2,1.7,3.4,2.6
			c0.7,0.5,1.3,1,2,1.5l0,0c5.2,3.8,10.5,7.4,16.1,10.6l0,0c67.1,38.4,151.4,28.8,208.1-23.8c4.5-4.1,8.7-8.4,12.7-13
			c4.4-5,8.6-10.3,12.4-15.7v-0.1l0.2-0.3c0-0.1,0.1-0.2,0.1-0.2c0.1-0.2,0.2-0.4,0.4-0.6l0.2-0.3c1.9-2.8,3.8-5.7,5.5-8.6
			c0.6-1,1.1-1.9,1.7-2.8s0.9-1.5,1.3-2.2c2.2-4,4.3-8.1,6.2-12.3c0.1-0.2,0.2-0.5,0.3-0.7c0-0.2,0.2-0.5,0.3-0.7
			c0.3-0.7,0.7-1.5,1-2.3l0,0l0.4-0.9l1.6-4c0.9-2.2,1.7-4.5,2.4-6.4c0.2-0.6,0.5-1.3,0.7-1.9c0.2-0.4,0.3-0.8,0.4-1.1
			c0.6-1.8,1-3,1-3.2l0,0l0,0c0.7-2.2,1.3-4.4,1.9-6.6C353.9,238.2,350.9,236.7,348.1,234.9z M305.9,142.5c-1-1.1-2-2.3-2.8-3.6
			l-11.3,5.6l2.5,5.3l2.8,5.9l18.7-6.8C312,147.7,308.6,145.5,305.9,142.5z"/>
		<path class="st1" d="M357.2,239.7c-0.6,2-1.3,4.1-2,6.4l0,0l-63.4-18.7l-0.6,1.2c-0.1,0.1-0.1,0.3-0.2,0.4
			c-0.2,0.3-0.3,0.7-0.6,1.1c-0.2,0.4-0.5,1.1-0.9,1.8l-0.9,2l-0.6,1.2l-5.3-2.1l0,0l0,0c0,0,0-0.2,0.2-0.4c0.2-0.2,0.2-0.4,0.3-0.7
			c0.1-0.3,0.4-0.8,0.6-1.4c0.9-2.2,1.6-4.4,2.3-6.6c0.8-2.7,1.4-5.5,1.9-8.3l41.2,6.8c6,4.7,12.2,9,18.7,13c2.9,1.8,5.9,3.2,9,4.4
			L357.2,239.7z"/>
		<path class="st2" d="M305.9,142.5c-1-1.1-2-2.3-2.8-3.6l-11.3,5.6l2.5,5.3l2.8,5.9l18.7-6.8C312,147.7,308.6,145.5,305.9,142.5z"
			/>
		<path class="st3" d="M362.3,161.6c-0.1-0.4-0.2-0.8-0.3-1.1c-1-3.7-2.4-7.2-4.2-10.5c-0.3-0.6-0.7-1.3-1.1-1.9s-0.4-0.7-0.7-1.1
			c-0.2,1.6-0.8,3-1.7,4.3c0.8,1.1,1.4,2.2,1.9,3.4c2.1,5.1,1.4,10.2-1.4,11.6c0.6,0.9,1,1.8,1.4,2.8c2.1,5.3,1.4,10.5-1.7,11.8
			c-3,1.2-7.3-2.1-9.4-7.3c-0.5-1.3-0.9-2.7-1.1-4.1c-2.7,0.5-5.8-1-8.4-3.9c-2-2.1-3.6-4.5-4.6-7.2c-0.5-1.2-0.9-2.5-1.2-3.7
			c-2.5-1.5-4.7-3.5-6.2-6c-2.4,1.6-5.3,1.9-8,0.9l-18.7,6.8l-2.7-5.8c-3.7,1.3-7.9,4.5-11.8,4.7c-1.3,11.7,1.8,23.5,8.8,33.1
			c3.7,5.3,8.4,9.9,13.8,13.4c6.4,5.7,15.4,13.5,24.4,20.6c6,4.8,12.2,9.2,18.7,13.3c2.9,1.8,5.9,3.3,9,4.6h0.2
			c0.9,0.3,1.8,0.6,2.7,0.8c1.1,0.3,2.2,0.3,3.3,0.1c13.7-3.1,15.3-10.7,15.3-10.7S380.8,214.1,362.3,161.6z M358.5,234.2
			L358.5,234.2c0,0,0-0.2-0.1-0.3c-0.3-0.7-0.4-1.4-0.4-2.1l0.8,0.2h0.1l9.4,2.6C361.9,237.8,359.5,236.1,358.5,234.2L358.5,234.2z"
			/>
		<path class="st0" d="M313.1,181.9c0,0,11.2,7.2,20.3,2.1"/>
		<path class="st0" d="M291.1,161c0,0-7.8,1.7,0,10.7"/>
		<path class="st4" d="M349.5,161.2c0,0.1,0,0.2,0,0.4c-0.7-0.2-1.5-0.1-2.1,0.2c-0.1,0-0.2,0.1-0.3,0.2c-1.9,1-2.8,3.7-2.5,6.9
			h-0.4c-2.7,0.5-5.8-1-8.4-3.7c2.7,2.7,5.6,4,8.3,3.3c-0.3-3.2,0.6-5.9,2.5-6.9c0.1-0.1,0.2-0.1,0.3-0.2c0.7-0.3,1.4-0.3,2.1-0.2
			c0.3-3-0.2-6-1.2-8.9c-0.1-0.3-0.2-0.7-0.4-1c-0.5-1.2-1.2-2.4-1.9-3.5c-0.6-1.1-1.4-2.1-2.2-3c0.9,0.9,1.7,1.9,2.4,2.9
			c0.1,0.2,0.3,0.4,0.4,0.6c0.7,1.1,1.3,2.3,1.9,3.5c0.1,0.3,0.3,0.7,0.4,1C349.4,155.4,349.8,158.3,349.5,161.2z"/>
		<path class="st5" d="M345.8,147.6C345.8,147.6,345.7,147.6,345.8,147.6c-0.7-1.1-1.5-2.1-2.3-3
			C344.4,145.6,345.1,146.6,345.8,147.6z"/>
		<path class="st6" d="M368.4,234.7c-6.5,3.2-8.9,1.4-9.8-0.4l0,0c0,0,0-0.2-0.1-0.3c-0.3-0.7-0.4-1.4-0.4-2.1l0.8,0.2h0.1
			L368.4,234.7z"/>
		<path class="st7" d="M333.2,113.5c-0.5,0.1-0.9,0.4-1.3,0.6c-1.1,0.8-2,1.9-2.5,3.2c-0.1,0.2-0.1,0.4-0.2,0.6l-0.2-0.1l0.2-0.4
			c0.5-1.3,1.4-2.5,2.6-3.2C332.1,113.9,332.6,113.6,333.2,113.5z"/>
		<path class="st0" d="M315.8,148.9l-18.7,6.8l-2.7-5.8l-2.5-5.3l11.3-5.6c0.8,1.3,1.8,2.5,2.8,3.6
			C308.6,145.5,312,147.7,315.8,148.9z"/>
		<path class="st1" d="M323.4,111.5c-0.4-0.3-0.9-0.6-1.3-0.9c-0.4-0.3-0.9-0.5-1.4-0.7l-0.4-0.2c0-0.1-0.1-0.1-0.1-0.2l0.5,0.3
			C321.7,110.2,322.6,110.8,323.4,111.5L323.4,111.5z"/>
		<path class="st5" d="M311.5,123.1h-0.2l-0.8-0.3c-0.3-0.1-0.6-0.2-1-0.2h-0.2c-0.4-0.1-0.8-0.2-1.2-0.2c-0.4,0-0.8,0-1.2,0
			c-1.8-0.1-3.5,0.6-4.8,1.7c-2.7,2.5-2.8,7.3-0.5,12.1c0.4,1,0.9,1.9,1.5,2.7l-11.3,5.6l2.5,5.3l-5.4,2.9l-0.3,0.1l0,0l-4.1-8
			l-4.3-8.4l24.8-15.4c2,1,4.1,1.5,6.3,1.6C311.4,122.9,311.4,123,311.5,123.1z"/>
		<path class="st1" d="M323.4,111.5c-0.4-0.3-0.9-0.6-1.3-0.9c-0.4-0.3-0.9-0.5-1.4-0.7l-0.4-0.2c0-0.1-0.1-0.1-0.1-0.2l0.5,0.3
			C321.7,110.2,322.6,110.8,323.4,111.5L323.4,111.5z"/>
		<path class="st1" d="M333.2,113.5c-0.5,0.1-0.9,0.4-1.3,0.6c-1.1,0.8-2,1.9-2.5,3.2c-0.1,0.2-0.1,0.4-0.2,0.6l-0.2-0.1l0.2-0.4
			c0.5-1.3,1.4-2.5,2.6-3.2C332.1,113.9,332.6,113.6,333.2,113.5z"/>
		<path class="st8" d="M280.2,136.6l4.3,8.3l-4.3,2.1c-1.9-3.1-3.7-6.3-5.6-8.9l-0.7-1c-1.1-1.7-2.1-3.2-2.9-4.3l-0.7-1l-0.4-0.5
			l-0.6-0.8l24.4-18.7c2.9,4,6.8,7.2,11.2,9.4L280.2,136.6z"/>
		<path class="st9" d="M274,137.1l0.7,1l-5.2,3.3c-1.9-2.7-4-5.6-6-8.1l-0.2-0.2c-2.2-2.9-4.3-5.3-5.3-6.6l-0.7-0.8l30.3-28.8
			c0.2,1.7,0.5,3.4,1,5.1c0.1,0.4,0.2,0.7,0.4,1.1c1,2.8,2.4,5.4,4.1,7.8c0.2,0.3,0.4,0.5,0.6,0.8l-24.4,18.7l0.6,0.8l0.4,0.5l0.7,1
			L274,137.1z"/>
		<path class="st10" d="M306.4,64.5c-0.4,0.3-0.7,0.7-1,1.1h-0.3c-1.4,0-2.8,0.3-4.1,1c-0.2,0.1-0.4,0.3-0.5,0.4
			c-3.4,2.4-4.3,7.5-2.7,13.3c0,0.2,0.1,0.5,0.2,0.7c-0.2,0.2-0.3,0.4-0.4,0.7c-0.3,0.5-0.5,1-0.7,1.5c-0.1,0.2-0.1,0.3-0.2,0.5v0.3
			c-0.1,0.3-0.2,0.6-0.2,0.9h-0.2c-1.6,0-3.2,0.5-4.6,1.3c-0.2,0.1-0.4,0.3-0.6,0.5c-2.7,2.1-3.9,5.8-3.5,10.1l0,0l-30.3,28.8
			l0.7,0.8l5.3,6.6l-4.9,3.5c-1.8-2.3-3.7-4.4-5.7-6.5c-2.8-2.9-5.5-5.4-6.5-6.3l-0.4-0.4L300.4,59c0.4,0.4,1.1,0.9,1.9,1.6
			C303.5,61.7,304.9,63.1,306.4,64.5z"/>
		<path class="st11" d="M285.6,47.7l-51,74.6c5,3.6,9.7,7.6,14,12.1l4.1-4.3l-6.9-6.6L300.4,59C300.4,59,290.2,50.8,285.6,47.7z"/>
		<path class="st2" d="M270.4,38.4l-46,83.9c0,0,9.6,6.9,13.1,10.3l4.1-4.8l-7.1-5.6l51-74.6C285.5,47.6,274.7,40.7,270.4,38.4z"/>
		<path class="st12" d="M253.1,30.3l-39.6,94.2c4.8,2.4,9.3,5.1,13.6,8.2l3.6-5.6l-6.4-4.8l46-83.9C270.4,38.4,258,32.2,253.1,30.3z
			"/>
		<path class="st13" d="M235.8,24.2L220,79.6c0,0-7.4-3.4-12.9-2.7l10-57C223.4,20.8,229.7,22.2,235.8,24.2z"/>
		<path class="st5" d="M199.2,17.6l-4.5,63.8c0,0,13,0.4,17.6,2.6l1.3-6.6l-6.4-0.5l10-57C217.1,19.9,206,18.1,199.2,17.6z"/>
		<path class="st14" d="M180.8,17.2l1.5,70.5c0,0,18.3-0.8,21,1l0.8-6.6l-9.4-0.7l4.5-63.7C193.2,17.2,187,17.1,180.8,17.2z"/>
		<path class="st7" d="M163.5,18.6l9.1,75.6c0,0,15.3-1.9,19.8-0.7v-5.9l-10.2,0.2l-1.4-70.5C180.8,17.2,168.1,18.1,163.5,18.6z"/>
		<path class="st15" d="M144,22.2l20.1,79c0,0,13.9-1.5,20.2,0l-1.3-7.9l-10.4,0.9l-9.1-75.6C156.9,19.2,150.4,20.4,144,22.2z"/>
		<path class="st10" d="M126,27.7l21,53.1c-1.9-0.3-10.8,3.5-12.1,4.8l-25.2-50.9C109.6,34.6,119.8,29.8,126,27.7z"/>
		<path class="st7" d="M140.9,82.5l11.5,29.7c6.9-2.6,14.1-4.1,21.4-4.3v-7.3l-9.7,0.6l-20.1-79c-6.1,1.5-12.1,3.3-18,5.5l21,53.1
			L140.9,82.5z"/>
		<path class="st12" d="M94,43.1l30.3,48l-10.8,7.1L78.4,53.8C83.3,49.9,88.6,46.3,94,43.1z"/>
		<path class="st2" d="M65,65.2l42.5,45.6l7.5-5.2l8.2-5.6l-3.6-5.9l-6,4L78.4,53.8C73.6,57.3,69.2,61.1,65,65.2z"/>
		<path class="st11" d="M115,105.7l19.5,24.6c4.2-4,9-7.3,14.3-9.7c4.9-2.3,10.1-4,15.4-5.2l-0.6-6.5l-11.1,3.1l-11.5-29.6l-6,3
			l-25.2-50.9L94,43.1l30.3,48l-4.8,3.1l3.6,5.9L115,105.7z"/>
		<path class="st16" d="M148.8,120.7l3,6.1c0,0-23.4,13.5-34.1,31.7l-26.5-15.6c0,0,5.6-11.4,8.7-12.6L94,126l6.4-6.6L52.2,78.6
			c4-4.7,8.3-9.2,12.8-13.4l42.5,45.6l7.5-5.2l19.5,24.6C134.5,130.3,142.8,123.1,148.8,120.7z"/>
		<path class="st17" d="M40.8,93.3l46.1,31.2c0,0-1.5,1.7-3.5,4.6c-1.2,1.6-2.5,3.7-3.9,5.9l-48.2-26.2
			C34.1,103.5,37.3,98.3,40.8,93.3z"/>
		<path class="st15" d="M83.4,129.1l5,4.4c1.5-2.8,3.4-5.3,5.6-7.5l6.4-6.6L52.2,78.6L40.8,93.3l46.1,31.2L83.4,129.1z"/>
		<path class="st5" d="M23.1,125.5L75.1,146c-2.3,4-3.8,8.5-4.4,13.1l-53.8-16.3C16.9,142.9,20.4,131.7,23.1,125.5z"/>
		<path class="st15" d="M9.4,196h55.9c-0.3,3.8-0.3,7.7,0,11.6l-54.6,8.3C9.7,209.3,9.3,202.6,9.4,196z"/>
		<path class="st15" d="M25.5,267.8l50.1-24.4c0,0,3.6,6.4,6.5,10.8l-47.7,30.4C31.2,279.2,28.2,273.6,25.5,267.8z"/>
		<path class="st14" d="M56.1,313.7l40.8-40.3c2.4,3.5,5.3,6.7,8.4,9.5L69,326.4C69,326.4,61,319.3,56.1,313.7z"/>
		<path class="st18" d="M72.4,151.8l12.4,4c1.8-4.5,3.9-8.8,6.3-12.9l8.7-12.6L94,126l-5.6,7.5l-5.1-4.4l-3.9,5.9l-48.2-26.2
			l-8.1,16.9L75.1,146L72.4,151.8z"/>
		<path class="st5" d="M72.4,192c0,2.8,0,5.8,0.3,8.7l-7.6,1.1v-0.2l0.3-5.6H9.4c-0.2-5.9,0-11.8,0.7-17.7l0,0l62.6,4.4
			c0,0-0.3,4-0.3,9L72.4,192z"/>
		<path class="st19" d="M220,128l-3.7,7.4c-12.2-5.6-25.7-7.9-39-6.5c-13.8,1.5-26.9,7-37.6,15.9l-6.1-4.6l18.2-13.3l-3-6.1
			c4.9-2.3,10.1-4,15.4-5.2l-0.6-6.5c3.4-0.8,6.8-1.2,10.3-1.2v-7.3c3.5-0.6,7.1-0.3,10.5,0.6l-1.3-7.9c3.1-0.5,6.3-0.4,9.4,0.2
			v-5.9c0,0,7.6-0.2,10.8,1.2l0.8-6.6c2.8,0.1,5.6,0.7,8.2,1.9l1.3-6.6l6.4,2.2l15.8-55.4c6,1.4,11.8,3.5,17.3,6.1l-39.6,94.2
			L220,128z"/>
		<path class="st16" d="M177.3,128.8v7.2c0,0-16.3-1.1-32.4,15c0,0-0.3,0.3-0.8,0.8c-8.1,8.7-14.3,19-18.2,30.2L12.6,160.3l0,0
			c0.9-5.9,2.4-11.7,4.3-17.4l0,0l53.7,16.2c0.3-2.5,0.9-4.9,1.7-7.3l12.4,4l0.2-0.5c0,0,0-0.2,0.1-0.3s0.2-0.4,0.2-0.6
			s0.2-0.4,0.3-0.6l0,0c1.5-3.8,3.3-7.4,5.4-10.8l26.5,15.6l0.1-0.2c3.8-5.2,7.8-10.1,12.1-14.9l0.2-0.2c1-1.1,2.2-2.1,3.4-3.1h0.1
			l0,0l6.1,4.4l0.2-0.2l0.2-0.1c7.5-5.3,15.7-9.6,24.2-12.9h0.1C168.5,129.9,172.9,129,177.3,128.8z"/>
		<path class="st20" d="M150.1,156.8c-5.6,4.6-10,10.5-12.7,17.2c-2,4.7-2.9,9.9-2.8,15c0,1.3,0.1,2.5,0.3,3.7l-62.5-0.7v-0.2l0.3-9
			l-62.6-4.5c0.1-2,0.4-4,0.6-6c0.4-3,0-0.1,0-0.2c0-0.4,0.1-0.9,0.2-1.3c0.1-0.4,0.1-1,0.2-1.5c0.1-0.5,0.2-1.3,0.3-2
			c0.1-0.6,0.2-1.3,0.3-1.9s0.1-0.8,0.2-1.1c0.1-0.4,0.1-0.8,0.2-1.2c0.1-0.4,0.2-1,0.2-1.4c0.1-0.4,0.1-0.7,0.2-0.9
			c0-0.2,0-0.3,0-0.5L126,181.9c3.9-11.2,10.1-21.5,18.2-30.2c0.5-0.5,0.8-0.8,0.8-0.8L150.1,156.8z"/>
		<path class="st0" d="M11.8,164.8c0-0.2,0-0.4,0-0.6c0,0.3-0.1,0.7-0.2,1.1C11.8,165.2,11.8,165,11.8,164.8z"/>
		<path class="st16" d="M10.7,172.3c-0.3,2-0.5,4-0.6,6l0,0C10.3,176.4,10.4,174.3,10.7,172.3z"/>
		<path class="st16" d="M12.6,160.3c0,0.2,0,0.3,0,0.5C12.6,160.4,12.6,160.3,12.6,160.3z"/>
		<path class="st16" d="M144.2,151.7c-8.1,8.7-14.3,19-18.2,30.2C129.2,167.7,141,154.9,144.2,151.7z"/>
		<path class="st7" d="M18.7,250.7l56.9-21.9c0,0,2.2,3.6,5.1,7.9c1.4,2.2,3.1,4.6,4.6,6.8l-6.6,5.2l-3-5.2l-50.1,24.4
			C22.7,262.4,20.5,256.6,18.7,250.7z"/>
		<path class="st6" d="M141.3,201.2c0.1,0.6,0.3,1.1,0.6,1.6L14,233.5l-3.3-17.2v-0.2v-0.2l0,0l54.6-8.3l-0.3-5.6v-0.2l7.6-1.1
			l-0.3-8.7l0,0l62.5,0.7c-0.1-1.4-0.3-2.6-0.3-3.7c-0.1-5.1,0.9-10.2,2.8-15l6.3,2.1l-2.1,11.4v0.4c0,0.1,0,0.3,0,0.5
			s0,0.4-0.1,0.7l-0.2,0.9c-0.3,1.9-0.4,3.8-0.4,5.7c0,0.3,0,0.6,0,0.9c0,0.3,0,1.1,0.1,1.7c0.1,0.6,0,0.7,0.1,1.1l0,0
			C141.2,200.1,141.2,200.6,141.3,201.2z"/>
		<path class="st5" d="M100.6,278.3l5.8-4.9c0,0-3.7-2.8-7.3-6c-2.4-2-4.4-4.4-6-7.1l-48.9,39c3.7,5,7.7,9.8,11.9,14.4l40.8-40.3
			L100.6,278.3z"/>
		<path class="st21" d="M132.9,362.6l15.3-55.9c4.2,1.8,8.6,2.7,13.1,2.8l-9.4,57.8C145.5,366.1,139.1,364.5,132.9,362.6z"/>
		<path class="st21" d="M169.6,370l2.3-58.5c5.1,0.7,10.3,0.7,15.4,0l-1.2,59.2C186.1,370.8,176.4,370.8,169.6,370z"/>
		<path class="st5" d="M243.3,361.4l-21.3-55.1c4.3-1,8.4-2.8,12.1-5.3l27,53.1C255.4,356.9,249.4,359.3,243.3,361.4z"/>
		<path class="st9" d="M291.8,335.8l-37.2-47.1l10.6-8.5l41.2,43.4C301.8,328.1,297,332.2,291.8,335.8z"/>
		<path class="st5" d="M319,310.7l-47.1-38.8c3.4-2.9,6.6-6.1,9.5-9.5l49.9,32.6C327.6,300.5,323.5,305.7,319,310.7z"/>
		<path class="st17" d="M340.9,279.7L287,252.1c2.6-3.8,4.9-7.8,7-12l54.8,23.6C346.4,269.2,343.8,274.5,340.9,279.7z"/>
		<path class="st2" d="M228.4,304.3l-3.7-7.3c-2.3,1.7-4.8,3.1-7.5,4.2c-2.9,1.2-5.8,2.3-8.8,3.1l17.3,62.1c0,0,12.4-3.2,17.7-5
			l-21.2-55.1C222.1,306.3,222.5,307.5,228.4,304.3z"/>
		<path class="st2" d="M217.2,301.2l-2.2-7.5c-2.9,1.3-5.9,2.4-9,3.3c-3.2,1-6.4,1.7-9.6,2.3l9.4,70.4c0,0,13.5-1.6,19.9-3.3
			l-17.3-62.1C211.4,303.6,214.4,302.6,217.2,301.2z"/>
		<path class="st10" d="M206,297l-1.7-6.7c-8.2,3-17,4.1-25.8,3.3V312l8.9-0.5l-1.2,59.2c6.5,0.3,13.1-0.1,19.6-1.1l-9.4-70.4
			C196.4,299.2,204.7,297.5,206,297z"/>
		<path class="st21" d="M154.1,308.7l7.2-24.2c5.3,1.1,10.7,1.8,16.2,2.2c4.4,0.3,8.9,0.3,13.3-0.2v7.1c0,0-7.7,0.1-12.3,0.1v18.4
			l-6.6-0.5l-2.4,58.4c0,0-11.2-1.2-17.7-2.6l9.4-57.8C158.8,309.6,156.5,309.3,154.1,308.7z"/>
		<path class="st1" d="M177.5,286.7l1.1-6.5c0,0-6.3-0.4-13.1-1.6c-5.8-1-12.1-2.7-15.2-5.2l-35.6,82.3c5.9,2.6,12,4.9,18.2,6.9
			l15.3-55.9c1.9,0.9,3.9,1.5,6,1.9l7.2-24.2C161.3,284.4,172.2,286.5,177.5,286.7z"/>
		<path class="st1" d="M165.4,278.6l1.3-6.1c0,0-16.9-2.5-22.6-9.1l-45.6,84.1c5.3,3,10.8,5.8,16.4,8.3l35.5-82.3
			C150.2,273.4,160,277.8,165.4,278.6z"/>
		<path class="st22" d="M154.3,269.4l2.3-6c0,0-10.2-4-15.4-10.1l-58.8,83.9c5.1,3.8,10.4,7.2,15.9,10.3l45.7-84.1
			C147,266.1,150.5,268.2,154.3,269.4z"/>
		<path class="st9" d="M259.8,284.6l-4.3-4.8c-3.8,4.5-8.5,8.1-13.8,10.6l34.8,55.6c5.3-3,10.4-6.4,15.2-10.2l-37.2-47.1
			L259.8,284.6z"/>
		<path class="st7" d="M290.8,246.1l-6.8-2.5c0,0,2-4.5,4.1-8.9c1.5-3.2,3-6.4,3.7-7.9l63.4,19.3c0,0-3.4,10.9-6.5,17.6l-54.8-23.6
			L290.8,246.1z"/>
		<path class="st22" d="M286.1,223.2l-81.4-22.9c0,0-2.9,7-13.1,14.4l1.9,5.8c4.7-2.3,9-5.2,12.9-8.8l71.2,55.1l4-4.5l49.9,32.6
			c0,0,6.4-9.4,9.5-15.2l-53.9-27.6c1.4-1.9,2.7-3.9,3.7-6l-7-2.5c0,0,2.1-4.6,4.1-8.9l-5.3-2.1
			C284.2,229.6,285.3,226.4,286.1,223.2z"/>
		<path class="st16" d="M80.6,236.7l71.1-27.8c0,0-5.3-11.6-2.8-21.5h-7.3c0,0-2.3,10.6,0.3,15.4L14,233.5
			c1.2,5.8,2.7,11.5,4.6,17.2l56.9-21.9L80.6,236.7z"/>
		<path class="st22" d="M99,267.4l59.3-49.2c0,0-5.2-5.6-6.5-9.4l-71.2,27.9l4.6,6.8l-6.6,5.2l3.4,5.6l-47.7,30.3
			c0,0,5.2,8.8,9.7,14.6l48.9-39C94.7,262.9,96.7,265.3,99,267.4z"/>
		<path class="st22" d="M147.7,258.7l20.3-33.5c-3.8-1.4-7.2-3.8-9.7-7L99,267.4l7.3,6l-5.8,4.9l4.6,4.6L69,326.4
			c0,0,7.1,6.4,13.4,10.8l58.8-83.9L147.7,258.7z"/>
		<path class="st6" d="M288.1,151.7h-0.3l-6,1.6c0,0-23.7-18.5-54.1-20.4l3.5-5.2l6.6,5.2l4-4.5l0,0l6.6,6l4.2-3.8l5.6,6.1l4.8-3.3
			l0.2,0.2l5.9,7.5l5.1-3.1l5.4,8.3l4.2-2L288.1,151.7z"/>
		<path class="st14" d="M248.2,286.5l-60.8-63.3c6.8-2.9,13.2-6.8,18.9-11.5l71.2,55.1l-5.5,5.1l47.1,38.8c-3.8,4.7-8,9.1-12.7,13
			l-41.2-43.4l-5.4,4.3l-4.3-4.8C253.5,282.4,251,284.7,248.2,286.5z"/>
		<path class="st23" d="M320.7,109.9l-0.4-0.2c0-0.1-0.1-0.1-0.1-0.2l0.5,0.3C320.7,109.8,320.7,109.9,320.7,109.9z"/>
		<path class="st23" d="M355,180.9c-2.8,1.2-6.7-2.1-8.7-7.3c-0.5-1.3-0.8-2.7-1-4.1c0-0.2,0-0.4,0-0.6c-0.3-3.2,0.6-5.9,2.3-6.9
			c0.1-0.1,0.2-0.1,0.3-0.2c0.6-0.3,1.3-0.3,2-0.2l0.5,0.1c2.1,0.9,3.8,2.6,4.8,4.6c0.5,0.9,1,1.8,1.3,2.8
			C358.5,174.4,357.8,179.7,355,180.9z"/>
		<path class="st2" d="M354.9,165.8c-1.2-2.1-3.1-3.8-5.3-4.6l-0.5-0.1c0.3-3-0.1-6-1.2-8.9c-0.1-0.3-0.2-0.7-0.4-1
			c-0.5-1.2-1.1-2.4-1.8-3.5c0,0,0.1,0,0.1,0c0.3-0.3,0.7-0.6,1.1-0.7c2.3-0.9,5.3,0.7,7.5,3.9c0.8,1.1,1.4,2.2,1.9,3.4
			C358.3,159.4,357.7,164.5,354.9,165.8z"/>
		<path class="st11" d="M349.1,161.1c-0.7-0.2-1.5-0.1-2.1,0.2c-0.1,0-0.2,0.1-0.3,0.2c-1.9,1-2.8,3.7-2.5,6.9
			c-2.6,0.7-5.6-0.6-8.3-3.3c-1.8-2-3.2-4.3-4.2-6.7c-0.5-1.2-0.9-2.5-1.2-3.7c-1-4.7-0.4-9.1,1.6-11.5c0.6-0.7,1.4-1.3,2.2-1.6
			c1-0.4,2.1-0.5,3.1-0.3c1.1,0.2,2.1,0.6,3,1.1l0,0c0.4,0.2,0.8,0.5,1.1,0.7c0.6,0.5,1.2,1,1.7,1.5l0.2,0.2c0.8,0.9,1.6,1.9,2.3,3
			c0.7,1.1,1.3,2.3,1.8,3.5c0.1,0.3,0.3,0.7,0.4,1C349,155.1,349.4,158.1,349.1,161.1z"/>
		<path class="st24" d="M341.1,142.5c-0.4-0.3-0.7-0.5-1.1-0.7l0,0c-1.8-0.5-3.7-0.6-5.6-0.4c-0.9,0.4-1.6,0.9-2.2,1.6
			c-2.1,2.4-2.7,6.8-1.6,11.5c0.3,1.3,0.7,2.5,1.2,3.7c1,2.5,2.4,4.8,4.2,6.7c-2-2.1-3.6-4.5-4.6-7.2c-0.5-1.2-0.9-2.5-1.2-3.7
			c-2.5-1.5-4.7-3.5-6.2-6l0,0c-0.3-0.5-0.7-1.1-1-1.6c-0.5-0.9-1-1.9-1.4-2.9c-1.5-3.5-2.1-7.4-1.6-11.2c0.1-0.7,0.2-1.4,0.4-2
			c0.6-2.3,2.1-4.2,4.2-5.4c1.8-0.7,3.7-0.6,5.4,0.2l0.2,0.1c0.2,0,0.5,0.2,0.7,0.4c3.5,2.1,6.3,5.1,7.9,8.8l0,0
			c0,0.2,0.2,0.3,0.2,0.5c0.1,0.2,0.4,0.8,0.5,1.2c0.5,1.2,0.9,2.5,1.2,3.7C340.9,140.7,341,141.6,341.1,142.5z"/>
		<path class="st24" d="M356.3,145.5c0,0.3-0.1,0.6-0.1,0.9c-0.2,1.6-0.8,3-1.7,4.3c-2.2-3.1-5.2-4.8-7.5-3.9
			c-0.4,0.2-0.8,0.4-1.1,0.7c-0.7-1-1.4-2-2.3-2.9l-0.2-0.2c-0.7-0.7-1.4-1.4-2.2-2c-0.1-0.9-0.3-1.7-0.5-2.6
			c-0.3-1.3-0.7-2.5-1.2-3.7c-0.2-0.4-0.4-0.8-0.5-1.2c-0.2-0.4-0.1-0.3-0.2-0.5l0,0c0-4.7,1.6-8.5,4.5-9.4c0.8-0.3,1.7-0.3,2.6-0.1
			l0,0c1.2,0.2,2.3,0.8,3.3,1.6c0.3,0.3,0.7,0.5,1,0.8l0,0c0,0,0.1,0,0.1,0c2.4,2.5,4.2,5.6,5.2,8.9
			C356.4,139.2,356.7,142.4,356.3,145.5z"/>
		<path class="st25" d="M345.8,124.9c-0.8-0.2-1.7-0.2-2.5,0c-3,0.9-4.6,4.7-4.5,9.4c-1.7-3.6-4.5-6.7-8-8.6
			c-0.3-0.1-0.5-0.3-0.7-0.4l-0.2-0.1c-0.4-2.6-0.6-5.1-0.5-7.7c0.5-1.3,1.4-2.5,2.5-3.3c0.4-0.3,0.9-0.5,1.3-0.6l0,0
			c2.6-0.7,5.7,0.4,8.8,2.8c0.8,0.5,1.6,1.2,2.3,1.9c0.3,0.3,0.6,0.7,0.9,1c1.7,2.2,3,4.7,3.8,7.4
			C348.1,125.8,347,125.2,345.8,124.9z"/>
		<path class="st10" d="M323.7,148L323.7,148c-2.4,1.6-5.3,1.9-8,0.9c-3.8-1.2-7.2-3.5-9.8-6.5c-1-1.1-2-2.3-2.8-3.6
			c-0.6-0.9-1.1-1.8-1.5-2.7c-2.2-4.9-2.2-9.6,0.5-12.1c1.3-1.2,3.1-1.8,4.8-1.7c0.4,0,0.8,0,1.2,0c0.4,0,0.8,0.1,1.2,0.2h0.2
			c0.3,0.1,0.6,0.1,1,0.2l0.8,0.3h0.2c0.5,0.2,1,0.4,1.5,0.6c0.2,0.1,0.4,0.2,0.5,0.3c0.4,0.2,0.8,0.4,1.2,0.7
			c0.4,0.2,0.7,0.4,1.1,0.7l0.1,0.1l1.3,1c1.1,0.9,2.1,1.8,3,2.8l0.1,0.2c-0.1,0.3-0.2,0.6-0.3,0.8c-0.2,0.7-0.3,1.3-0.4,2
			c-0.4,3.8,0.1,7.7,1.6,11.2c0.4,1,0.9,2,1.4,2.9C323.1,147,323.4,147.5,323.7,148z"/>
		<path class="st1" d="M329.8,125.2c-1.7-0.8-3.6-0.9-5.4-0.3c-1.9,0.9-3.3,2.5-4,4.4l-0.1-0.2c-0.9-1-2-2-3-2.8l-1.3-1l-0.1-0.1
			c-0.4-0.2-0.7-0.5-1.1-0.7c-0.4-0.2-0.8-0.5-1.2-0.7c-0.2-0.1-0.4-0.2-0.5-0.3c-0.5-0.2-1-0.4-1.5-0.6c-0.1-0.2-0.1-0.3-0.2-0.5
			c-0.6-1.5-1-3-1.2-4.6c0,0,0-0.1,0-0.1c-0.5-2.7,0.3-5.5,2.2-7.5l0,0l0.3-0.2l0.5-0.4l0,0c0.3-0.2,0.6-0.3,0.9-0.4
			c0.1-0.1,0.3-0.2,0.5-0.2c1.1-0.3,2.2-0.4,3.3-0.2c0.8,0.1,1.6,0.3,2.4,0.7l0,0c0,0.1,0.1,0.1,0.1,0.2l0.4,0.2
			c0.5,0.2,0.9,0.4,1.4,0.7c0.4,0.3,0.9,0.5,1.3,0.9l0.1,0.1l0.7,0.5c1.3,1.4,2.4,2.9,3.3,4.6l0.3,0.7l0,0c0,0.8,0,1.7,0.2,2.5
			C328.2,121.7,328.9,123.5,329.8,125.2z"/>
		<path class="st13" d="M343.3,111.5c-0.2,1-0.5,1.9-0.8,2.8c-0.1,0.3-0.2,0.5-0.3,0.7c0,0-6.5-3.3-9.1-2.5l0,0
			c-0.5,0.1-1.1,0.4-1.5,0.7c-1.2,0.8-2.1,1.9-2.6,3.3c0,0.1-0.1,0.3-0.2,0.4c-0.5-0.3-0.9-0.7-1.2-1.2c-0.7-1.3-2.8-4.7-4.2-5.1
			c-0.5-0.4-1-0.8-1.6-1.1c-0.4-0.2-0.8-0.5-1.3-0.7c-0.5-3.7-1.8-7.3-3.7-10.5l0,0c-0.1-0.3-0.3-0.5-0.5-0.8
			c0.1-0.6,0.8-4.1,1.2-5.1c0.6-1.5,1.6-2.9,3-3.7c0.9-0.6,2-0.9,3-1l0,0c0.2,0,0.5,0,0.7,0h0.1c0.5,0,1,0,1.4,0.1
			c0.8,0.1,1.6,0.3,2.4,0.5l0,0c3,1.1,5.6,2.9,7.8,5.2c1.2,1.3,2.3,2.7,3.3,4.1c0.5,0.7,0.9,1.5,1.3,2.3
			C342.6,103.4,343.6,107.4,343.3,111.5z"/>
		<path class="st1" d="M319.9,109.4l-0.5-0.3l0,0c-0.8-0.3-1.5-0.6-2.4-0.7c-1.1-0.2-2.2-0.1-3.3,0.2c-0.2,0-0.3,0.1-0.5,0.2
			c-0.3,0.1-0.6,0.3-0.9,0.4l0,0l-0.5,0.4l-0.3,0.2l0,0c-1.9,2-2.7,4.8-2.2,7.5c0,0,0,0.1,0,0.1c0.2,1.6,0.6,3.2,1.2,4.6
			c-2.2-0.1-4.3-0.7-6.3-1.6c-4.5-2.2-8.3-5.4-11.2-9.4c-0.2-0.2-0.4-0.5-0.6-0.8c-1.7-2.4-3.1-5-4.1-7.8c-0.2-0.4-0.3-0.7-0.4-1.1
			c-0.5-1.6-0.9-3.3-1-5.1l0,0c-0.4-4.3,0.7-8,3.5-10.1c0.2-0.2,0.4-0.4,0.6-0.5c1.4-0.8,2.9-1.3,4.6-1.3h0.2c0.3,0,0.6,0,1,0
			c0.8,0,1.5,0.1,2.3,0.3c4.3,1.1,8.1,3.4,11.2,6.5c1.6,1.5,3,3.1,4.3,4.9c0.5,0.9,1.1,1.7,1.6,2.6l0,0
			C318.1,102,319.4,105.6,319.9,109.4z"/>
		<path class="st26" d="M327.4,86.1c-0.1-0.1-0.2-0.2-0.2-0.3l0,0l-0.1-0.2l-0.2-0.2l-0.4-0.5c-1.3-3.1-2.9-6-4.6-8.9
			c-1.1-1.6-2.4-3.1-3.7-4.5c-3.3-3.5-7.7-5.7-12.4-6.4H305h-0.5c-1.5,0-3,0.3-4.3,1c-0.2,0.1-0.4,0.3-0.6,0.4
			c-3.6,2.4-4.5,7.5-2.8,13.3c0,0.2,0.1,0.5,0.2,0.7c0,0.1,0,0.2,0,0.3c0.5,1.3,1,2.7,1.7,3.9c4.5,1.1,8.6,3.3,12,6.4
			c1.6,1.5,3.1,3.1,4.5,4.9c0.4,0.6,0.9,1.2,1.3,1.8c0.1-0.6,0.3-1.2,0.6-1.7c0.1-1.2,0.3-2.3,0.7-3.4c0.5-1.4,1.4-2.6,2.6-3.4
			c0.2-0.2,0.3-0.3,0.5-0.4c1-0.6,2.1-0.9,3.2-1l0,0c0.2,0,0.5,0,0.7,0h0.1c1.5,0,2.9,0.2,4.3,0.6C328.7,87.7,328.1,86.9,327.4,86.1
			z"/>
		<path class="st5" d="M162.1,222l4.5-5.1c0,0,5.9,7.5,20.8,6.4l60.8,63.3c-1.9,1.6-4.1,2.8-6.4,3.7l34.8,55.6c0,0-9.9,5.6-15.3,8.1
			l-27-52.9l-5.5,3.1l-4.1-7.1l-7.5,4.2l-2.2-7.5l-9,3.3l-1.7-6.7c-4.3,1.6-8.9,2.7-13.5,3.2v-7c0,0-10.3,0.4-13.3,0.2l1.1-6.5
			c0,0-12.2-1.5-13.1-1.6l1.3-6.1c0,0-9.9-2.2-12.4-3.1l2.3-6c-3.1-1.2-6.1-2.8-8.9-4.6l20.3-33.5C166,224.4,164,223.3,162.1,222
			l4.5-5.1"/>
	</g>
</g>
</svg>
