<?xml version="1.0" encoding="utf-8" standalone="no"?>
<!DOCTYPE svg PUBLIC "-//W3C//DTD SVG 1.1//EN"
  "http://www.w3.org/Graphics/SVG/1.1/DTD/svg11.dtd">
<svg height="298.620937pt" version="1.1" viewBox="0 0 1166.98125 298.620937" width="1166.98125pt" xmlns="http://www.w3.org/2000/svg" xmlns:xlink="http://www.w3.org/1999/xlink">
 <metadata>
  <rdf:RDF xmlns:cc="http://creativecommons.org/ns#" xmlns:dc="http://purl.org/dc/elements/1.1/" xmlns:rdf="http://www.w3.org/1999/02/22-rdf-syntax-ns#">
   <cc:Work>
    <dc:type rdf:resource="http://purl.org/dc/dcmitype/StillImage"/>
    <dc:date>2021-12-07T14:49:25.774782</dc:date>
    <dc:format>image/svg+xml</dc:format>
    <dc:creator>
     <cc:Agent>
      <dc:title>Matplotlib v3.4.2, https://matplotlib.org/</dc:title>
     </cc:Agent>
    </dc:creator>
   </cc:Work>
  </rdf:RDF>
 </metadata>
 <defs>
  <style type="text/css">*{stroke-linecap:butt;stroke-linejoin:round;}</style>
 </defs>
 <g id="figure_1">
  <g id="patch_1">
   <path d="M 0 298.620937 
L 1166.98125 298.620937 
L 1166.98125 0 
L 0 0 
z
" style="fill:#ffffff;"/>
  </g>
  <g id="axes_1">
   <g id="patch_2">
    <path d="M 43.78125 228.96 
L 1159.78125 228.96 
L 1159.78125 7.2 
L 43.78125 7.2 
z
" style="fill:#ffffff;"/>
   </g>
   <g id="matplotlib.axis_1">
    <g id="xtick_1">
     <g id="line2d_1">
      <defs>
       <path d="M 0 0 
L 0 3.5 
" id="mad920b29fd" style="stroke:#000000;stroke-width:0.8;"/>
      </defs>
      <g>
       <use style="stroke:#000000;stroke-width:0.8;" x="80.546888" xlink:href="#mad920b29fd" y="228.96"/>
      </g>
     </g>
     <g id="text_1">
      <!-- 2020-09 -->
      <g transform="translate(83.306263 277.742812)rotate(-90)scale(0.1 -0.1)">
       <defs>
        <path d="M 1228 531 
L 3431 531 
L 3431 0 
L 469 0 
L 469 531 
Q 828 903 1448 1529 
Q 2069 2156 2228 2338 
Q 2531 2678 2651 2914 
Q 2772 3150 2772 3378 
Q 2772 3750 2511 3984 
Q 2250 4219 1831 4219 
Q 1534 4219 1204 4116 
Q 875 4013 500 3803 
L 500 4441 
Q 881 4594 1212 4672 
Q 1544 4750 1819 4750 
Q 2544 4750 2975 4387 
Q 3406 4025 3406 3419 
Q 3406 3131 3298 2873 
Q 3191 2616 2906 2266 
Q 2828 2175 2409 1742 
Q 1991 1309 1228 531 
z
" id="DejaVuSans-32" transform="scale(0.015625)"/>
        <path d="M 2034 4250 
Q 1547 4250 1301 3770 
Q 1056 3291 1056 2328 
Q 1056 1369 1301 889 
Q 1547 409 2034 409 
Q 2525 409 2770 889 
Q 3016 1369 3016 2328 
Q 3016 3291 2770 3770 
Q 2525 4250 2034 4250 
z
M 2034 4750 
Q 2819 4750 3233 4129 
Q 3647 3509 3647 2328 
Q 3647 1150 3233 529 
Q 2819 -91 2034 -91 
Q 1250 -91 836 529 
Q 422 1150 422 2328 
Q 422 3509 836 4129 
Q 1250 4750 2034 4750 
z
" id="DejaVuSans-30" transform="scale(0.015625)"/>
        <path d="M 313 2009 
L 1997 2009 
L 1997 1497 
L 313 1497 
L 313 2009 
z
" id="DejaVuSans-2d" transform="scale(0.015625)"/>
        <path d="M 703 97 
L 703 672 
Q 941 559 1184 500 
Q 1428 441 1663 441 
Q 2288 441 2617 861 
Q 2947 1281 2994 2138 
Q 2813 1869 2534 1725 
Q 2256 1581 1919 1581 
Q 1219 1581 811 2004 
Q 403 2428 403 3163 
Q 403 3881 828 4315 
Q 1253 4750 1959 4750 
Q 2769 4750 3195 4129 
Q 3622 3509 3622 2328 
Q 3622 1225 3098 567 
Q 2575 -91 1691 -91 
Q 1453 -91 1209 -44 
Q 966 3 703 97 
z
M 1959 2075 
Q 2384 2075 2632 2365 
Q 2881 2656 2881 3163 
Q 2881 3666 2632 3958 
Q 2384 4250 1959 4250 
Q 1534 4250 1286 3958 
Q 1038 3666 1038 3163 
Q 1038 2656 1286 2365 
Q 1534 2075 1959 2075 
z
" id="DejaVuSans-39" transform="scale(0.015625)"/>
       </defs>
       <use xlink:href="#DejaVuSans-32"/>
       <use x="63.623047" xlink:href="#DejaVuSans-30"/>
       <use x="127.246094" xlink:href="#DejaVuSans-32"/>
       <use x="190.869141" xlink:href="#DejaVuSans-30"/>
       <use x="254.492188" xlink:href="#DejaVuSans-2d"/>
       <use x="290.576172" xlink:href="#DejaVuSans-30"/>
       <use x="354.199219" xlink:href="#DejaVuSans-39"/>
      </g>
     </g>
    </g>
    <g id="xtick_2">
     <g id="line2d_2">
      <g>
       <use style="stroke:#000000;stroke-width:0.8;" x="222.490174" xlink:href="#mad920b29fd" y="228.96"/>
      </g>
     </g>
     <g id="text_2">
      <!-- 2020-11 -->
      <g transform="translate(225.249549 277.742812)rotate(-90)scale(0.1 -0.1)">
       <defs>
        <path d="M 794 531 
L 1825 531 
L 1825 4091 
L 703 3866 
L 703 4441 
L 1819 4666 
L 2450 4666 
L 2450 531 
L 3481 531 
L 3481 0 
L 794 0 
L 794 531 
z
" id="DejaVuSans-31" transform="scale(0.015625)"/>
       </defs>
       <use xlink:href="#DejaVuSans-32"/>
       <use x="63.623047" xlink:href="#DejaVuSans-30"/>
       <use x="127.246094" xlink:href="#DejaVuSans-32"/>
       <use x="190.869141" xlink:href="#DejaVuSans-30"/>
       <use x="254.492188" xlink:href="#DejaVuSans-2d"/>
       <use x="290.576172" xlink:href="#DejaVuSans-31"/>
       <use x="354.199219" xlink:href="#DejaVuSans-31"/>
      </g>
     </g>
    </g>
    <g id="xtick_3">
     <g id="line2d_3">
      <g>
       <use style="stroke:#000000;stroke-width:0.8;" x="364.43346" xlink:href="#mad920b29fd" y="228.96"/>
      </g>
     </g>
     <g id="text_3">
      <!-- 2021-01 -->
      <g transform="translate(367.192835 277.742812)rotate(-90)scale(0.1 -0.1)">
       <use xlink:href="#DejaVuSans-32"/>
       <use x="63.623047" xlink:href="#DejaVuSans-30"/>
       <use x="127.246094" xlink:href="#DejaVuSans-32"/>
       <use x="190.869141" xlink:href="#DejaVuSans-31"/>
       <use x="254.492188" xlink:href="#DejaVuSans-2d"/>
       <use x="290.576172" xlink:href="#DejaVuSans-30"/>
       <use x="354.199219" xlink:href="#DejaVuSans-31"/>
      </g>
     </g>
    </g>
    <g id="xtick_4">
     <g id="line2d_4">
      <g>
       <use style="stroke:#000000;stroke-width:0.8;" x="501.722868" xlink:href="#mad920b29fd" y="228.96"/>
      </g>
     </g>
     <g id="text_4">
      <!-- 2021-03 -->
      <g transform="translate(504.482243 277.742812)rotate(-90)scale(0.1 -0.1)">
       <defs>
        <path d="M 2597 2516 
Q 3050 2419 3304 2112 
Q 3559 1806 3559 1356 
Q 3559 666 3084 287 
Q 2609 -91 1734 -91 
Q 1441 -91 1130 -33 
Q 819 25 488 141 
L 488 750 
Q 750 597 1062 519 
Q 1375 441 1716 441 
Q 2309 441 2620 675 
Q 2931 909 2931 1356 
Q 2931 1769 2642 2001 
Q 2353 2234 1838 2234 
L 1294 2234 
L 1294 2753 
L 1863 2753 
Q 2328 2753 2575 2939 
Q 2822 3125 2822 3475 
Q 2822 3834 2567 4026 
Q 2313 4219 1838 4219 
Q 1578 4219 1281 4162 
Q 984 4106 628 3988 
L 628 4550 
Q 988 4650 1302 4700 
Q 1616 4750 1894 4750 
Q 2613 4750 3031 4423 
Q 3450 4097 3450 3541 
Q 3450 3153 3228 2886 
Q 3006 2619 2597 2516 
z
" id="DejaVuSans-33" transform="scale(0.015625)"/>
       </defs>
       <use xlink:href="#DejaVuSans-32"/>
       <use x="63.623047" xlink:href="#DejaVuSans-30"/>
       <use x="127.246094" xlink:href="#DejaVuSans-32"/>
       <use x="190.869141" xlink:href="#DejaVuSans-31"/>
       <use x="254.492188" xlink:href="#DejaVuSans-2d"/>
       <use x="290.576172" xlink:href="#DejaVuSans-30"/>
       <use x="354.199219" xlink:href="#DejaVuSans-33"/>
      </g>
     </g>
    </g>
    <g id="xtick_5">
     <g id="line2d_5">
      <g>
       <use style="stroke:#000000;stroke-width:0.8;" x="643.666154" xlink:href="#mad920b29fd" y="228.96"/>
      </g>
     </g>
     <g id="text_5">
      <!-- 2021-05 -->
      <g transform="translate(646.425529 277.742812)rotate(-90)scale(0.1 -0.1)">
       <defs>
        <path d="M 691 4666 
L 3169 4666 
L 3169 4134 
L 1269 4134 
L 1269 2991 
Q 1406 3038 1543 3061 
Q 1681 3084 1819 3084 
Q 2600 3084 3056 2656 
Q 3513 2228 3513 1497 
Q 3513 744 3044 326 
Q 2575 -91 1722 -91 
Q 1428 -91 1123 -41 
Q 819 9 494 109 
L 494 744 
Q 775 591 1075 516 
Q 1375 441 1709 441 
Q 2250 441 2565 725 
Q 2881 1009 2881 1497 
Q 2881 1984 2565 2268 
Q 2250 2553 1709 2553 
Q 1456 2553 1204 2497 
Q 953 2441 691 2322 
L 691 4666 
z
" id="DejaVuSans-35" transform="scale(0.015625)"/>
       </defs>
       <use xlink:href="#DejaVuSans-32"/>
       <use x="63.623047" xlink:href="#DejaVuSans-30"/>
       <use x="127.246094" xlink:href="#DejaVuSans-32"/>
       <use x="190.869141" xlink:href="#DejaVuSans-31"/>
       <use x="254.492188" xlink:href="#DejaVuSans-2d"/>
       <use x="290.576172" xlink:href="#DejaVuSans-30"/>
       <use x="354.199219" xlink:href="#DejaVuSans-35"/>
      </g>
     </g>
    </g>
    <g id="xtick_6">
     <g id="line2d_6">
      <g>
       <use style="stroke:#000000;stroke-width:0.8;" x="785.60944" xlink:href="#mad920b29fd" y="228.96"/>
      </g>
     </g>
     <g id="text_6">
      <!-- 2021-07 -->
      <g transform="translate(788.368815 277.742812)rotate(-90)scale(0.1 -0.1)">
       <defs>
        <path d="M 525 4666 
L 3525 4666 
L 3525 4397 
L 1831 0 
L 1172 0 
L 2766 4134 
L 525 4134 
L 525 4666 
z
" id="DejaVuSans-37" transform="scale(0.015625)"/>
       </defs>
       <use xlink:href="#DejaVuSans-32"/>
       <use x="63.623047" xlink:href="#DejaVuSans-30"/>
       <use x="127.246094" xlink:href="#DejaVuSans-32"/>
       <use x="190.869141" xlink:href="#DejaVuSans-31"/>
       <use x="254.492188" xlink:href="#DejaVuSans-2d"/>
       <use x="290.576172" xlink:href="#DejaVuSans-30"/>
       <use x="354.199219" xlink:href="#DejaVuSans-37"/>
      </g>
     </g>
    </g>
    <g id="xtick_7">
     <g id="line2d_7">
      <g>
       <use style="stroke:#000000;stroke-width:0.8;" x="929.879665" xlink:href="#mad920b29fd" y="228.96"/>
      </g>
     </g>
     <g id="text_7">
      <!-- 2021-09 -->
      <g transform="translate(932.63904 277.742812)rotate(-90)scale(0.1 -0.1)">
       <use xlink:href="#DejaVuSans-32"/>
       <use x="63.623047" xlink:href="#DejaVuSans-30"/>
       <use x="127.246094" xlink:href="#DejaVuSans-32"/>
       <use x="190.869141" xlink:href="#DejaVuSans-31"/>
       <use x="254.492188" xlink:href="#DejaVuSans-2d"/>
       <use x="290.576172" xlink:href="#DejaVuSans-30"/>
       <use x="354.199219" xlink:href="#DejaVuSans-39"/>
      </g>
     </g>
    </g>
    <g id="xtick_8">
     <g id="line2d_8">
      <g>
       <use style="stroke:#000000;stroke-width:0.8;" x="1071.822951" xlink:href="#mad920b29fd" y="228.96"/>
      </g>
     </g>
     <g id="text_8">
      <!-- 2021-11 -->
      <g transform="translate(1074.582326 277.742812)rotate(-90)scale(0.1 -0.1)">
       <use xlink:href="#DejaVuSans-32"/>
       <use x="63.623047" xlink:href="#DejaVuSans-30"/>
       <use x="127.246094" xlink:href="#DejaVuSans-32"/>
       <use x="190.869141" xlink:href="#DejaVuSans-31"/>
       <use x="254.492188" xlink:href="#DejaVuSans-2d"/>
       <use x="290.576172" xlink:href="#DejaVuSans-31"/>
       <use x="354.199219" xlink:href="#DejaVuSans-31"/>
      </g>
     </g>
    </g>
    <g id="text_9">
     <!-- Date -->
     <g transform="translate(589.830469 289.34125)scale(0.1 -0.1)">
      <defs>
       <path d="M 1259 4147 
L 1259 519 
L 2022 519 
Q 2988 519 3436 956 
Q 3884 1394 3884 2338 
Q 3884 3275 3436 3711 
Q 2988 4147 2022 4147 
L 1259 4147 
z
M 628 4666 
L 1925 4666 
Q 3281 4666 3915 4102 
Q 4550 3538 4550 2338 
Q 4550 1131 3912 565 
Q 3275 0 1925 0 
L 628 0 
L 628 4666 
z
" id="DejaVuSans-44" transform="scale(0.015625)"/>
       <path d="M 2194 1759 
Q 1497 1759 1228 1600 
Q 959 1441 959 1056 
Q 959 750 1161 570 
Q 1363 391 1709 391 
Q 2188 391 2477 730 
Q 2766 1069 2766 1631 
L 2766 1759 
L 2194 1759 
z
M 3341 1997 
L 3341 0 
L 2766 0 
L 2766 531 
Q 2569 213 2275 61 
Q 1981 -91 1556 -91 
Q 1019 -91 701 211 
Q 384 513 384 1019 
Q 384 1609 779 1909 
Q 1175 2209 1959 2209 
L 2766 2209 
L 2766 2266 
Q 2766 2663 2505 2880 
Q 2244 3097 1772 3097 
Q 1472 3097 1187 3025 
Q 903 2953 641 2809 
L 641 3341 
Q 956 3463 1253 3523 
Q 1550 3584 1831 3584 
Q 2591 3584 2966 3190 
Q 3341 2797 3341 1997 
z
" id="DejaVuSans-61" transform="scale(0.015625)"/>
       <path d="M 1172 4494 
L 1172 3500 
L 2356 3500 
L 2356 3053 
L 1172 3053 
L 1172 1153 
Q 1172 725 1289 603 
Q 1406 481 1766 481 
L 2356 481 
L 2356 0 
L 1766 0 
Q 1100 0 847 248 
Q 594 497 594 1153 
L 594 3053 
L 172 3053 
L 172 3500 
L 594 3500 
L 594 4494 
L 1172 4494 
z
" id="DejaVuSans-74" transform="scale(0.015625)"/>
       <path d="M 3597 1894 
L 3597 1613 
L 953 1613 
Q 991 1019 1311 708 
Q 1631 397 2203 397 
Q 2534 397 2845 478 
Q 3156 559 3463 722 
L 3463 178 
Q 3153 47 2828 -22 
Q 2503 -91 2169 -91 
Q 1331 -91 842 396 
Q 353 884 353 1716 
Q 353 2575 817 3079 
Q 1281 3584 2069 3584 
Q 2775 3584 3186 3129 
Q 3597 2675 3597 1894 
z
M 3022 2063 
Q 3016 2534 2758 2815 
Q 2500 3097 2075 3097 
Q 1594 3097 1305 2825 
Q 1016 2553 972 2059 
L 3022 2063 
z
" id="DejaVuSans-65" transform="scale(0.015625)"/>
      </defs>
      <use xlink:href="#DejaVuSans-44"/>
      <use x="77.001953" xlink:href="#DejaVuSans-61"/>
      <use x="138.28125" xlink:href="#DejaVuSans-74"/>
      <use x="177.490234" xlink:href="#DejaVuSans-65"/>
     </g>
    </g>
   </g>
   <g id="matplotlib.axis_2">
    <g id="ytick_1">
     <g id="line2d_9">
      <defs>
       <path d="M 0 0 
L -3.5 0 
" id="mcb0b26d252" style="stroke:#000000;stroke-width:0.8;"/>
      </defs>
      <g>
       <use style="stroke:#000000;stroke-width:0.8;" x="43.78125" xlink:href="#mcb0b26d252" y="228.96"/>
      </g>
     </g>
     <g id="text_10">
      <!-- 0.0 -->
      <g transform="translate(20.878125 232.759219)scale(0.1 -0.1)">
       <defs>
        <path d="M 684 794 
L 1344 794 
L 1344 0 
L 684 0 
L 684 794 
z
" id="DejaVuSans-2e" transform="scale(0.015625)"/>
       </defs>
       <use xlink:href="#DejaVuSans-30"/>
       <use x="63.623047" xlink:href="#DejaVuSans-2e"/>
       <use x="95.410156" xlink:href="#DejaVuSans-30"/>
      </g>
     </g>
    </g>
    <g id="ytick_2">
     <g id="line2d_10">
      <g>
       <use style="stroke:#000000;stroke-width:0.8;" x="43.78125" xlink:href="#mcb0b26d252" y="186.00267"/>
      </g>
     </g>
     <g id="text_11">
      <!-- 0.2 -->
      <g transform="translate(20.878125 189.801889)scale(0.1 -0.1)">
       <use xlink:href="#DejaVuSans-30"/>
       <use x="63.623047" xlink:href="#DejaVuSans-2e"/>
       <use x="95.410156" xlink:href="#DejaVuSans-32"/>
      </g>
     </g>
    </g>
    <g id="ytick_3">
     <g id="line2d_11">
      <g>
       <use style="stroke:#000000;stroke-width:0.8;" x="43.78125" xlink:href="#mcb0b26d252" y="143.04534"/>
      </g>
     </g>
     <g id="text_12">
      <!-- 0.4 -->
      <g transform="translate(20.878125 146.844559)scale(0.1 -0.1)">
       <defs>
        <path d="M 2419 4116 
L 825 1625 
L 2419 1625 
L 2419 4116 
z
M 2253 4666 
L 3047 4666 
L 3047 1625 
L 3713 1625 
L 3713 1100 
L 3047 1100 
L 3047 0 
L 2419 0 
L 2419 1100 
L 313 1100 
L 313 1709 
L 2253 4666 
z
" id="DejaVuSans-34" transform="scale(0.015625)"/>
       </defs>
       <use xlink:href="#DejaVuSans-30"/>
       <use x="63.623047" xlink:href="#DejaVuSans-2e"/>
       <use x="95.410156" xlink:href="#DejaVuSans-34"/>
      </g>
     </g>
    </g>
    <g id="ytick_4">
     <g id="line2d_12">
      <g>
       <use style="stroke:#000000;stroke-width:0.8;" x="43.78125" xlink:href="#mcb0b26d252" y="100.08801"/>
      </g>
     </g>
     <g id="text_13">
      <!-- 0.6 -->
      <g transform="translate(20.878125 103.887229)scale(0.1 -0.1)">
       <defs>
        <path d="M 2113 2584 
Q 1688 2584 1439 2293 
Q 1191 2003 1191 1497 
Q 1191 994 1439 701 
Q 1688 409 2113 409 
Q 2538 409 2786 701 
Q 3034 994 3034 1497 
Q 3034 2003 2786 2293 
Q 2538 2584 2113 2584 
z
M 3366 4563 
L 3366 3988 
Q 3128 4100 2886 4159 
Q 2644 4219 2406 4219 
Q 1781 4219 1451 3797 
Q 1122 3375 1075 2522 
Q 1259 2794 1537 2939 
Q 1816 3084 2150 3084 
Q 2853 3084 3261 2657 
Q 3669 2231 3669 1497 
Q 3669 778 3244 343 
Q 2819 -91 2113 -91 
Q 1303 -91 875 529 
Q 447 1150 447 2328 
Q 447 3434 972 4092 
Q 1497 4750 2381 4750 
Q 2619 4750 2861 4703 
Q 3103 4656 3366 4563 
z
" id="DejaVuSans-36" transform="scale(0.015625)"/>
       </defs>
       <use xlink:href="#DejaVuSans-30"/>
       <use x="63.623047" xlink:href="#DejaVuSans-2e"/>
       <use x="95.410156" xlink:href="#DejaVuSans-36"/>
      </g>
     </g>
    </g>
    <g id="ytick_5">
     <g id="line2d_13">
      <g>
       <use style="stroke:#000000;stroke-width:0.8;" x="43.78125" xlink:href="#mcb0b26d252" y="57.13068"/>
      </g>
     </g>
     <g id="text_14">
      <!-- 0.8 -->
      <g transform="translate(20.878125 60.929899)scale(0.1 -0.1)">
       <defs>
        <path d="M 2034 2216 
Q 1584 2216 1326 1975 
Q 1069 1734 1069 1313 
Q 1069 891 1326 650 
Q 1584 409 2034 409 
Q 2484 409 2743 651 
Q 3003 894 3003 1313 
Q 3003 1734 2745 1975 
Q 2488 2216 2034 2216 
z
M 1403 2484 
Q 997 2584 770 2862 
Q 544 3141 544 3541 
Q 544 4100 942 4425 
Q 1341 4750 2034 4750 
Q 2731 4750 3128 4425 
Q 3525 4100 3525 3541 
Q 3525 3141 3298 2862 
Q 3072 2584 2669 2484 
Q 3125 2378 3379 2068 
Q 3634 1759 3634 1313 
Q 3634 634 3220 271 
Q 2806 -91 2034 -91 
Q 1263 -91 848 271 
Q 434 634 434 1313 
Q 434 1759 690 2068 
Q 947 2378 1403 2484 
z
M 1172 3481 
Q 1172 3119 1398 2916 
Q 1625 2713 2034 2713 
Q 2441 2713 2670 2916 
Q 2900 3119 2900 3481 
Q 2900 3844 2670 4047 
Q 2441 4250 2034 4250 
Q 1625 4250 1398 4047 
Q 1172 3844 1172 3481 
z
" id="DejaVuSans-38" transform="scale(0.015625)"/>
       </defs>
       <use xlink:href="#DejaVuSans-30"/>
       <use x="63.623047" xlink:href="#DejaVuSans-2e"/>
       <use x="95.410156" xlink:href="#DejaVuSans-38"/>
      </g>
     </g>
    </g>
    <g id="ytick_6">
     <g id="line2d_14">
      <g>
       <use style="stroke:#000000;stroke-width:0.8;" x="43.78125" xlink:href="#mcb0b26d252" y="14.17335"/>
      </g>
     </g>
     <g id="text_15">
      <!-- 1.0 -->
      <g transform="translate(20.878125 17.972569)scale(0.1 -0.1)">
       <use xlink:href="#DejaVuSans-31"/>
       <use x="63.623047" xlink:href="#DejaVuSans-2e"/>
       <use x="95.410156" xlink:href="#DejaVuSans-30"/>
      </g>
     </g>
    </g>
    <g id="text_16">
     <!-- Frequency (7 day rolling average) -->
     <g transform="translate(14.798437 202.529219)rotate(-90)scale(0.1 -0.1)">
      <defs>
       <path d="M 628 4666 
L 3309 4666 
L 3309 4134 
L 1259 4134 
L 1259 2759 
L 3109 2759 
L 3109 2228 
L 1259 2228 
L 1259 0 
L 628 0 
L 628 4666 
z
" id="DejaVuSans-46" transform="scale(0.015625)"/>
       <path d="M 2631 2963 
Q 2534 3019 2420 3045 
Q 2306 3072 2169 3072 
Q 1681 3072 1420 2755 
Q 1159 2438 1159 1844 
L 1159 0 
L 581 0 
L 581 3500 
L 1159 3500 
L 1159 2956 
Q 1341 3275 1631 3429 
Q 1922 3584 2338 3584 
Q 2397 3584 2469 3576 
Q 2541 3569 2628 3553 
L 2631 2963 
z
" id="DejaVuSans-72" transform="scale(0.015625)"/>
       <path d="M 947 1747 
Q 947 1113 1208 752 
Q 1469 391 1925 391 
Q 2381 391 2643 752 
Q 2906 1113 2906 1747 
Q 2906 2381 2643 2742 
Q 2381 3103 1925 3103 
Q 1469 3103 1208 2742 
Q 947 2381 947 1747 
z
M 2906 525 
Q 2725 213 2448 61 
Q 2172 -91 1784 -91 
Q 1150 -91 751 415 
Q 353 922 353 1747 
Q 353 2572 751 3078 
Q 1150 3584 1784 3584 
Q 2172 3584 2448 3432 
Q 2725 3281 2906 2969 
L 2906 3500 
L 3481 3500 
L 3481 -1331 
L 2906 -1331 
L 2906 525 
z
" id="DejaVuSans-71" transform="scale(0.015625)"/>
       <path d="M 544 1381 
L 544 3500 
L 1119 3500 
L 1119 1403 
Q 1119 906 1312 657 
Q 1506 409 1894 409 
Q 2359 409 2629 706 
Q 2900 1003 2900 1516 
L 2900 3500 
L 3475 3500 
L 3475 0 
L 2900 0 
L 2900 538 
Q 2691 219 2414 64 
Q 2138 -91 1772 -91 
Q 1169 -91 856 284 
Q 544 659 544 1381 
z
M 1991 3584 
L 1991 3584 
z
" id="DejaVuSans-75" transform="scale(0.015625)"/>
       <path d="M 3513 2113 
L 3513 0 
L 2938 0 
L 2938 2094 
Q 2938 2591 2744 2837 
Q 2550 3084 2163 3084 
Q 1697 3084 1428 2787 
Q 1159 2491 1159 1978 
L 1159 0 
L 581 0 
L 581 3500 
L 1159 3500 
L 1159 2956 
Q 1366 3272 1645 3428 
Q 1925 3584 2291 3584 
Q 2894 3584 3203 3211 
Q 3513 2838 3513 2113 
z
" id="DejaVuSans-6e" transform="scale(0.015625)"/>
       <path d="M 3122 3366 
L 3122 2828 
Q 2878 2963 2633 3030 
Q 2388 3097 2138 3097 
Q 1578 3097 1268 2742 
Q 959 2388 959 1747 
Q 959 1106 1268 751 
Q 1578 397 2138 397 
Q 2388 397 2633 464 
Q 2878 531 3122 666 
L 3122 134 
Q 2881 22 2623 -34 
Q 2366 -91 2075 -91 
Q 1284 -91 818 406 
Q 353 903 353 1747 
Q 353 2603 823 3093 
Q 1294 3584 2113 3584 
Q 2378 3584 2631 3529 
Q 2884 3475 3122 3366 
z
" id="DejaVuSans-63" transform="scale(0.015625)"/>
       <path d="M 2059 -325 
Q 1816 -950 1584 -1140 
Q 1353 -1331 966 -1331 
L 506 -1331 
L 506 -850 
L 844 -850 
Q 1081 -850 1212 -737 
Q 1344 -625 1503 -206 
L 1606 56 
L 191 3500 
L 800 3500 
L 1894 763 
L 2988 3500 
L 3597 3500 
L 2059 -325 
z
" id="DejaVuSans-79" transform="scale(0.015625)"/>
       <path id="DejaVuSans-20" transform="scale(0.015625)"/>
       <path d="M 1984 4856 
Q 1566 4138 1362 3434 
Q 1159 2731 1159 2009 
Q 1159 1288 1364 580 
Q 1569 -128 1984 -844 
L 1484 -844 
Q 1016 -109 783 600 
Q 550 1309 550 2009 
Q 550 2706 781 3412 
Q 1013 4119 1484 4856 
L 1984 4856 
z
" id="DejaVuSans-28" transform="scale(0.015625)"/>
       <path d="M 2906 2969 
L 2906 4863 
L 3481 4863 
L 3481 0 
L 2906 0 
L 2906 525 
Q 2725 213 2448 61 
Q 2172 -91 1784 -91 
Q 1150 -91 751 415 
Q 353 922 353 1747 
Q 353 2572 751 3078 
Q 1150 3584 1784 3584 
Q 2172 3584 2448 3432 
Q 2725 3281 2906 2969 
z
M 947 1747 
Q 947 1113 1208 752 
Q 1469 391 1925 391 
Q 2381 391 2643 752 
Q 2906 1113 2906 1747 
Q 2906 2381 2643 2742 
Q 2381 3103 1925 3103 
Q 1469 3103 1208 2742 
Q 947 2381 947 1747 
z
" id="DejaVuSans-64" transform="scale(0.015625)"/>
       <path d="M 1959 3097 
Q 1497 3097 1228 2736 
Q 959 2375 959 1747 
Q 959 1119 1226 758 
Q 1494 397 1959 397 
Q 2419 397 2687 759 
Q 2956 1122 2956 1747 
Q 2956 2369 2687 2733 
Q 2419 3097 1959 3097 
z
M 1959 3584 
Q 2709 3584 3137 3096 
Q 3566 2609 3566 1747 
Q 3566 888 3137 398 
Q 2709 -91 1959 -91 
Q 1206 -91 779 398 
Q 353 888 353 1747 
Q 353 2609 779 3096 
Q 1206 3584 1959 3584 
z
" id="DejaVuSans-6f" transform="scale(0.015625)"/>
       <path d="M 603 4863 
L 1178 4863 
L 1178 0 
L 603 0 
L 603 4863 
z
" id="DejaVuSans-6c" transform="scale(0.015625)"/>
       <path d="M 603 3500 
L 1178 3500 
L 1178 0 
L 603 0 
L 603 3500 
z
M 603 4863 
L 1178 4863 
L 1178 4134 
L 603 4134 
L 603 4863 
z
" id="DejaVuSans-69" transform="scale(0.015625)"/>
       <path d="M 2906 1791 
Q 2906 2416 2648 2759 
Q 2391 3103 1925 3103 
Q 1463 3103 1205 2759 
Q 947 2416 947 1791 
Q 947 1169 1205 825 
Q 1463 481 1925 481 
Q 2391 481 2648 825 
Q 2906 1169 2906 1791 
z
M 3481 434 
Q 3481 -459 3084 -895 
Q 2688 -1331 1869 -1331 
Q 1566 -1331 1297 -1286 
Q 1028 -1241 775 -1147 
L 775 -588 
Q 1028 -725 1275 -790 
Q 1522 -856 1778 -856 
Q 2344 -856 2625 -561 
Q 2906 -266 2906 331 
L 2906 616 
Q 2728 306 2450 153 
Q 2172 0 1784 0 
Q 1141 0 747 490 
Q 353 981 353 1791 
Q 353 2603 747 3093 
Q 1141 3584 1784 3584 
Q 2172 3584 2450 3431 
Q 2728 3278 2906 2969 
L 2906 3500 
L 3481 3500 
L 3481 434 
z
" id="DejaVuSans-67" transform="scale(0.015625)"/>
       <path d="M 191 3500 
L 800 3500 
L 1894 563 
L 2988 3500 
L 3597 3500 
L 2284 0 
L 1503 0 
L 191 3500 
z
" id="DejaVuSans-76" transform="scale(0.015625)"/>
       <path d="M 513 4856 
L 1013 4856 
Q 1481 4119 1714 3412 
Q 1947 2706 1947 2009 
Q 1947 1309 1714 600 
Q 1481 -109 1013 -844 
L 513 -844 
Q 928 -128 1133 580 
Q 1338 1288 1338 2009 
Q 1338 2731 1133 3434 
Q 928 4138 513 4856 
z
" id="DejaVuSans-29" transform="scale(0.015625)"/>
      </defs>
      <use xlink:href="#DejaVuSans-46"/>
      <use x="50.269531" xlink:href="#DejaVuSans-72"/>
      <use x="89.132812" xlink:href="#DejaVuSans-65"/>
      <use x="150.65625" xlink:href="#DejaVuSans-71"/>
      <use x="214.132812" xlink:href="#DejaVuSans-75"/>
      <use x="277.511719" xlink:href="#DejaVuSans-65"/>
      <use x="339.035156" xlink:href="#DejaVuSans-6e"/>
      <use x="402.414062" xlink:href="#DejaVuSans-63"/>
      <use x="457.394531" xlink:href="#DejaVuSans-79"/>
      <use x="516.574219" xlink:href="#DejaVuSans-20"/>
      <use x="548.361328" xlink:href="#DejaVuSans-28"/>
      <use x="587.375" xlink:href="#DejaVuSans-37"/>
      <use x="650.998047" xlink:href="#DejaVuSans-20"/>
      <use x="682.785156" xlink:href="#DejaVuSans-64"/>
      <use x="746.261719" xlink:href="#DejaVuSans-61"/>
      <use x="807.541016" xlink:href="#DejaVuSans-79"/>
      <use x="866.720703" xlink:href="#DejaVuSans-20"/>
      <use x="898.507812" xlink:href="#DejaVuSans-72"/>
      <use x="937.371094" xlink:href="#DejaVuSans-6f"/>
      <use x="998.552734" xlink:href="#DejaVuSans-6c"/>
      <use x="1026.335938" xlink:href="#DejaVuSans-6c"/>
      <use x="1054.119141" xlink:href="#DejaVuSans-69"/>
      <use x="1081.902344" xlink:href="#DejaVuSans-6e"/>
      <use x="1145.28125" xlink:href="#DejaVuSans-67"/>
      <use x="1208.757812" xlink:href="#DejaVuSans-20"/>
      <use x="1240.544922" xlink:href="#DejaVuSans-61"/>
      <use x="1301.824219" xlink:href="#DejaVuSans-76"/>
      <use x="1361.003906" xlink:href="#DejaVuSans-65"/>
      <use x="1422.527344" xlink:href="#DejaVuSans-72"/>
      <use x="1463.640625" xlink:href="#DejaVuSans-61"/>
      <use x="1524.919922" xlink:href="#DejaVuSans-67"/>
      <use x="1588.396484" xlink:href="#DejaVuSans-65"/>
      <use x="1649.919922" xlink:href="#DejaVuSans-29"/>
     </g>
    </g>
   </g>
   <g id="line2d_15">
    <path clip-path="url(#p637f429f1b)" d="M 145.701183 228.026145 
L 148.028122 228.96 
L 203.874661 228.96 
L 206.2016 228.717303 
L 213.182418 228.717303 
L 215.509357 228.594743 
L 217.836296 228.83744 
L 224.817113 228.83744 
L 227.144052 228.96 
L 248.086504 228.775178 
L 250.413443 228.919815 
L 271.355896 228.815707 
L 276.009774 228.760576 
L 278.336713 228.7112 
L 282.990591 228.812276 
L 289.971408 228.96 
L 301.606104 228.935675 
L 310.913861 228.96 
L 327.202434 228.713188 
L 329.529373 228.528821 
L 334.183252 228.456158 
L 338.83713 228.257369 
L 341.164069 228.406057 
L 345.817947 228.37581 
L 348.144886 228.599546 
L 350.471825 228.23096 
L 357.452643 227.692147 
L 362.106521 226.894385 
L 369.087338 226.460859 
L 371.414278 226.598891 
L 373.741217 226.947736 
L 378.395095 226.627431 
L 380.722034 226.764788 
L 383.048973 226.597873 
L 385.375912 226.569898 
L 387.702851 226.362324 
L 392.35673 226.525736 
L 394.683669 226.25708 
L 397.010608 226.365619 
L 401.664486 225.975 
L 403.991425 225.594107 
L 406.318364 225.748076 
L 408.645303 224.919083 
L 410.972242 224.728392 
L 413.299182 224.380468 
L 415.626121 223.447431 
L 417.95306 222.908946 
L 420.279999 222.849205 
L 422.606938 222.312545 
L 424.933877 221.529655 
L 427.260816 221.569291 
L 429.587755 220.764985 
L 431.914695 220.383227 
L 434.241634 220.381906 
L 436.568573 219.856325 
L 438.895512 219.737487 
L 441.222451 219.392204 
L 445.876329 217.338944 
L 448.203268 217.287701 
L 450.530207 215.887294 
L 455.184086 214.838996 
L 457.511025 213.807147 
L 459.837964 213.005594 
L 462.164903 211.900056 
L 464.491842 210.096097 
L 466.818781 208.475066 
L 469.14572 207.501101 
L 471.47266 205.412485 
L 473.799599 205.237698 
L 476.126538 205.318202 
L 478.453477 204.275919 
L 480.780416 203.667882 
L 485.434294 199.400209 
L 487.761233 195.643985 
L 490.088172 193.975524 
L 492.415112 190.909007 
L 494.742051 189.143277 
L 497.06899 185.511084 
L 499.395929 183.585507 
L 501.722868 182.299163 
L 506.376746 182.307975 
L 508.703685 182.743688 
L 511.030624 181.638102 
L 513.357564 179.472344 
L 515.684503 174.449796 
L 518.011442 170.77854 
L 520.338381 168.336122 
L 522.66532 166.735513 
L 524.992259 164.341762 
L 527.319198 164.379657 
L 529.646137 162.857403 
L 531.973077 158.57469 
L 534.300016 156.215014 
L 536.626955 153.290569 
L 541.280833 147.014794 
L 543.607772 145.919676 
L 545.934711 143.857691 
L 550.588589 140.16651 
L 552.915529 137.367837 
L 555.242468 134.92397 
L 557.569407 133.570441 
L 559.896346 132.783785 
L 562.223285 131.271312 
L 564.550224 129.550762 
L 566.877163 129.724191 
L 569.204102 126.749621 
L 573.857981 121.46712 
L 576.18492 122.509607 
L 578.511859 120.791558 
L 580.838798 119.846444 
L 583.165737 118.725002 
L 585.492676 117.268162 
L 587.819615 115.15704 
L 590.146554 112.767951 
L 592.473494 111.395565 
L 594.800433 110.308848 
L 597.127372 109.727913 
L 599.454311 108.636058 
L 601.78125 108.055427 
L 604.108189 108.09205 
L 606.435128 107.016006 
L 608.762067 106.582806 
L 611.089006 107.501007 
L 613.415946 107.376167 
L 615.742885 106.38545 
L 618.069824 105.246714 
L 620.396763 104.713842 
L 622.723702 102.702298 
L 625.050641 102.082938 
L 627.37758 102.079988 
L 629.704519 101.304264 
L 634.358398 100.747311 
L 636.685337 99.845637 
L 639.012276 99.337253 
L 641.339215 100.225281 
L 643.666154 100.252193 
L 645.993093 99.167068 
L 648.320032 98.979577 
L 650.646971 98.283427 
L 652.973911 98.243041 
L 655.30085 97.536896 
L 657.627789 97.565932 
L 659.954728 97.409252 
L 662.281667 97.084928 
L 664.608606 96.971416 
L 666.935545 96.530705 
L 669.262484 97.495718 
L 671.589423 98.129098 
L 673.916363 99.003868 
L 676.243302 100.040277 
L 678.570241 101.368251 
L 683.224119 102.513341 
L 685.551058 102.276468 
L 687.877997 102.402747 
L 690.204936 104.483402 
L 692.531876 105.658298 
L 694.858815 107.45576 
L 697.185754 108.628907 
L 699.512693 108.182059 
L 701.839632 107.427838 
L 704.166571 108.468711 
L 706.49351 109.720905 
L 708.820449 111.316745 
L 711.147388 115.348895 
L 713.474328 118.973292 
L 715.801267 120.660008 
L 718.128206 122.811597 
L 720.455145 126.389067 
L 722.782084 128.316862 
L 725.109023 128.929566 
L 727.435962 130.441079 
L 729.762901 131.646898 
L 732.08984 132.988139 
L 734.41678 134.612901 
L 736.743719 134.948892 
L 739.070658 136.165115 
L 741.397597 137.59697 
L 746.051475 141.773773 
L 748.378414 144.861817 
L 750.705353 148.244762 
L 753.032293 151.077623 
L 755.359232 151.873702 
L 757.686171 155.064214 
L 760.01311 158.794971 
L 762.340049 162.12875 
L 764.666988 164.605647 
L 766.993927 167.823099 
L 769.320866 171.474506 
L 771.647805 175.481048 
L 773.974745 179.086102 
L 776.301684 183.000053 
L 778.628623 187.948946 
L 783.282501 193.604094 
L 785.60944 196.078733 
L 787.936379 198.277456 
L 790.263318 201.187939 
L 794.917197 203.547349 
L 797.244136 206.07297 
L 799.571075 208.795581 
L 801.898014 209.957288 
L 806.551892 213.907913 
L 811.20577 215.352739 
L 813.53271 216.451758 
L 815.859649 217.831958 
L 820.513527 219.545301 
L 822.840466 220.896125 
L 825.167405 221.743675 
L 827.494344 222.186449 
L 829.821283 222.812488 
L 832.148222 223.617151 
L 836.802101 224.396312 
L 839.12904 225.020944 
L 841.455979 225.487023 
L 843.782918 225.653392 
L 848.436796 226.207241 
L 853.090675 226.372864 
L 857.744553 226.861028 
L 867.052309 227.601606 
L 876.360066 227.900511 
L 885.667822 228.195534 
L 890.3217 228.177096 
L 894.975579 228.292413 
L 897.302518 228.31114 
L 901.956396 228.499179 
L 908.937213 228.619209 
L 922.898848 228.789536 
L 929.879665 228.770355 
L 936.860483 228.759258 
L 964.783752 228.912471 
L 969.43763 228.818944 
L 976.418448 228.829352 
L 981.072326 228.938332 
L 1067.169073 228.95449 
L 1090.438464 228.952985 
L 1090.438464 228.952985 
" style="fill:none;stroke:#947383;stroke-linecap:square;stroke-width:2;"/>
   </g>
   <g id="line2d_16">
    <path clip-path="url(#p637f429f1b)" d="M 94.508523 227.783087 
L 96.835462 228.96 
L 141.047305 228.96 
L 143.374244 226.914413 
L 152.682001 226.914413 
L 155.00894 228.96 
L 164.316696 228.96 
L 166.643635 227.766741 
L 168.970574 226.940638 
L 171.297514 226.940638 
L 173.624453 225.072928 
L 175.951392 225.072928 
L 178.278331 226.266188 
L 180.60527 226.410428 
L 182.932209 226.410428 
L 185.259148 228.278138 
L 189.913026 228.278138 
L 192.239966 228.394772 
L 201.547722 228.394772 
L 203.874661 228.192905 
L 208.528539 228.192905 
L 210.855479 227.452261 
L 213.182418 227.452261 
L 215.509357 228.219356 
L 220.163235 228.219356 
L 222.490174 228.96 
L 224.817113 228.96 
L 227.144052 228.171792 
L 229.470991 227.819683 
L 231.797931 227.819683 
L 234.12487 225.991711 
L 236.451809 225.991711 
L 238.778748 219.851318 
L 243.432626 219.79673 
L 245.759565 221.624702 
L 248.086504 221.348745 
L 250.413443 227.968301 
L 252.740383 228.374997 
L 259.7212 228.425871 
L 262.048139 228.734917 
L 264.375078 228.191153 
L 269.028956 228.232658 
L 271.355896 228.416236 
L 273.682835 228.345612 
L 276.009774 228.482197 
L 278.336713 228.107569 
L 285.31753 228.178194 
L 289.971408 228.511737 
L 292.298348 228.416064 
L 294.625287 228.183022 
L 301.606104 228.238664 
L 306.259982 228.405004 
L 310.913861 228.302035 
L 313.2408 227.469729 
L 315.567739 227.235416 
L 317.894678 226.701186 
L 320.221617 225.718651 
L 322.548556 225.557857 
L 324.875495 225.765971 
L 327.202434 225.407769 
L 329.529373 225.316648 
L 331.856313 225.101861 
L 334.183252 223.879448 
L 336.510191 221.548822 
L 338.83713 220.751164 
L 341.164069 217.90081 
L 343.491008 216.332058 
L 345.817947 215.210278 
L 348.144886 216.153602 
L 350.471825 214.008825 
L 352.798765 214.83135 
L 355.125704 215.934962 
L 357.452643 213.038485 
L 359.779582 209.77539 
L 362.106521 207.328028 
L 364.43346 205.909596 
L 366.760399 202.803059 
L 369.087338 202.049199 
L 371.414278 204.92038 
L 373.741217 204.096196 
L 376.068156 201.374292 
L 378.395095 196.212587 
L 380.722034 194.064915 
L 383.048973 189.619556 
L 385.375912 185.538795 
L 390.02979 190.880833 
L 392.35673 190.842006 
L 394.683669 189.839532 
L 397.010608 191.502983 
L 399.337547 185.311105 
L 401.664486 182.292116 
L 403.991425 184.351137 
L 406.318364 182.211895 
L 408.645303 181.580912 
L 410.972242 182.547747 
L 413.299182 181.701201 
L 415.626121 176.339521 
L 417.95306 173.825334 
L 420.279999 174.402245 
L 422.606938 172.714894 
L 424.933877 171.948314 
L 427.260816 172.25702 
L 429.587755 171.906488 
L 431.914695 166.621253 
L 434.241634 161.914694 
L 436.568573 160.31967 
L 438.895512 155.528931 
L 441.222451 149.628226 
L 443.54939 147.085066 
L 445.876329 145.17924 
L 448.203268 140.909766 
L 450.530207 134.830932 
L 452.857147 133.264605 
L 455.184086 130.497713 
L 457.511025 129.239876 
L 459.837964 125.848807 
L 462.164903 126.727591 
L 464.491842 126.02417 
L 466.818781 123.807403 
L 469.14572 118.104688 
L 471.47266 117.698886 
L 473.799599 116.609399 
L 476.126538 114.280501 
L 478.453477 113.848881 
L 480.780416 117.217174 
L 483.107355 112.963305 
L 485.434294 108.127577 
L 487.761233 106.202999 
L 490.088172 101.042796 
L 492.415112 96.715927 
L 494.742051 94.675056 
L 497.06899 95.538363 
L 499.395929 90.380694 
L 501.722868 86.461126 
L 504.049807 83.422848 
L 506.376746 80.096178 
L 508.703685 75.924521 
L 511.030624 76.206793 
L 513.357564 74.833552 
L 515.684503 71.397176 
L 518.011442 67.757768 
L 520.338381 65.634615 
L 522.66532 61.754175 
L 527.319198 59.030483 
L 529.646137 59.811904 
L 531.973077 59.213366 
L 534.300016 58.162701 
L 536.626955 59.649989 
L 538.953894 58.671376 
L 541.280833 58.418147 
L 543.607772 57.448685 
L 545.934711 58.238645 
L 548.26165 56.212208 
L 550.588589 53.098439 
L 552.915529 51.200286 
L 555.242468 49.817894 
L 559.896346 45.009561 
L 562.223285 46.607736 
L 564.550224 46.769147 
L 566.877163 45.07923 
L 569.204102 45.961056 
L 571.531041 46.422307 
L 573.857981 45.675664 
L 576.18492 45.19864 
L 578.511859 47.076238 
L 580.838798 47.447474 
L 583.165737 45.704858 
L 585.492676 45.503787 
L 587.819615 44.643792 
L 590.146554 41.854779 
L 592.473494 39.90173 
L 594.800433 40.667457 
L 597.127372 40.075889 
L 599.454311 38.888437 
L 601.78125 39.442812 
L 604.108189 39.170601 
L 606.435128 38.686108 
L 608.762067 37.817291 
L 611.089006 38.01866 
L 613.415946 37.081402 
L 615.742885 35.963426 
L 618.069824 37.188025 
L 620.396763 37.650481 
L 622.723702 37.446678 
L 627.37758 39.155194 
L 629.704519 39.756513 
L 632.031459 38.93745 
L 636.685337 39.923322 
L 639.012276 39.430903 
L 641.339215 36.695964 
L 643.666154 37.422707 
L 645.993093 38.350051 
L 648.320032 36.782538 
L 650.646971 37.314776 
L 652.973911 38.488168 
L 655.30085 38.295673 
L 657.627789 36.996741 
L 659.954728 38.919295 
L 662.281667 39.439988 
L 664.608606 38.358945 
L 666.935545 38.835633 
L 669.262484 40.225144 
L 673.916363 40.574017 
L 676.243302 41.356879 
L 678.570241 42.563617 
L 680.89718 40.212079 
L 685.551058 41.920319 
L 687.877997 43.697183 
L 690.204936 43.933026 
L 692.531876 46.061443 
L 694.858815 46.153312 
L 697.185754 43.229181 
L 699.512693 43.388719 
L 701.839632 43.223106 
L 704.166571 45.193229 
L 706.49351 45.812968 
L 711.147388 52.230055 
L 713.474328 51.002294 
L 715.801267 51.641935 
L 718.128206 53.057459 
L 720.455145 57.088945 
L 722.782084 59.438526 
L 725.109023 63.953962 
L 727.435962 70.5893 
L 729.762901 69.217062 
L 732.08984 70.750894 
L 734.41678 72.84002 
L 736.743719 77.619598 
L 739.070658 77.834976 
L 741.397597 91.233575 
L 743.724536 99.925236 
L 746.051475 99.936168 
L 750.705353 107.990548 
L 755.359232 104.459396 
L 757.686171 112.058649 
L 760.01311 116.864244 
L 762.340049 119.421514 
L 764.666988 123.399722 
L 766.993927 127.921162 
L 769.320866 131.574954 
L 771.647805 135.801833 
L 773.974745 144.614175 
L 776.301684 150.638871 
L 778.628623 157.494279 
L 780.955562 163.710546 
L 783.282501 169.139553 
L 785.60944 172.120015 
L 790.263318 180.356373 
L 792.590258 183.641022 
L 794.917197 185.923397 
L 797.244136 188.869836 
L 801.898014 194.169372 
L 804.224953 197.285971 
L 811.20577 208.728889 
L 813.53271 211.350408 
L 815.859649 214.150013 
L 818.186588 215.707933 
L 820.513527 216.561885 
L 825.167405 219.538636 
L 832.148222 221.681074 
L 841.455979 223.94702 
L 843.782918 224.183377 
L 848.436796 225.092437 
L 850.763735 225.134067 
L 853.090675 225.43473 
L 855.417614 225.472352 
L 857.744553 225.701849 
L 860.071492 225.754297 
L 862.398431 226.147813 
L 867.052309 226.714903 
L 869.379248 226.873407 
L 871.706187 227.15059 
L 881.013944 227.694519 
L 885.667822 227.892681 
L 894.975579 228.426188 
L 911.264152 228.551707 
L 913.591092 228.699613 
L 920.571909 228.666601 
L 941.514361 228.881278 
L 1027.611108 228.849038 
L 1029.938047 228.765356 
L 1032.264986 228.531469 
L 1034.591926 228.421171 
L 1039.245804 228.43885 
L 1048.55356 228.951717 
L 1069.496012 228.96 
L 1102.07316 228.931812 
L 1104.400099 228.790467 
L 1106.727038 228.407085 
L 1109.053977 228.140557 
L 1109.053977 228.140557 
" style="fill:none;stroke:#96c6ad;stroke-linecap:square;stroke-width:2;"/>
   </g>
   <g id="line2d_17">
    <path clip-path="url(#p637f429f1b)" d="M 348.144886 226.156949 
L 350.471825 227.478713 
L 352.798765 227.09229 
L 355.125704 227.09229 
L 357.452643 226.410428 
L 362.106521 218.642544 
L 364.43346 220.510254 
L 366.760399 219.596269 
L 369.087338 218.976394 
L 371.414278 221.611508 
L 373.741217 224.52518 
L 376.068156 220.619968 
L 378.395095 220.035443 
L 380.722034 218.852045 
L 383.048973 218.509861 
L 385.375912 219.386541 
L 387.702851 222.087341 
L 390.02979 219.968394 
L 392.35673 221.812374 
L 394.683669 221.48335 
L 397.010608 219.765057 
L 399.337547 220.969468 
L 401.664486 223.83329 
L 403.991425 224.153868 
L 408.645303 225.177146 
L 410.972242 222.151982 
L 413.299182 220.757753 
L 415.626121 219.97686 
L 417.95306 221.458147 
L 420.279999 221.874984 
L 422.606938 224.483086 
L 424.933877 224.789924 
L 427.260816 224.753452 
L 429.587755 224.188224 
L 431.914695 224.99874 
L 434.241634 224.368061 
L 436.568573 224.930598 
L 438.895512 225.638967 
L 441.222451 224.84047 
L 443.54939 223.264054 
L 445.876329 223.56471 
L 448.203268 224.843202 
L 450.530207 225.272775 
L 452.857147 224.223167 
L 455.184086 224.879069 
L 457.511025 224.080925 
L 459.837964 223.697377 
L 462.164903 222.241197 
L 464.491842 224.65453 
L 466.818781 224.715897 
L 469.14572 225.067866 
L 471.47266 221.995077 
L 473.799599 221.324657 
L 476.126538 216.028548 
L 478.453477 209.395137 
L 480.780416 209.026311 
L 483.107355 207.642386 
L 485.434294 207.45392 
L 487.761233 210.503895 
L 490.088172 216.754911 
L 492.415112 213.574953 
L 494.742051 215.755952 
L 497.06899 213.698116 
L 499.395929 211.103988 
L 501.722868 207.523788 
L 504.049807 209.983075 
L 506.376746 208.960281 
L 508.703685 211.031897 
L 511.030624 209.453248 
L 513.357564 210.468644 
L 515.684503 206.533892 
L 518.011442 205.341358 
L 520.338381 204.674683 
L 522.66532 205.833513 
L 524.992259 206.667968 
L 527.319198 211.245884 
L 529.646137 213.66577 
L 531.973077 212.03116 
L 534.300016 214.38336 
L 536.626955 213.132949 
L 541.280833 207.861742 
L 543.607772 210.019587 
L 545.934711 207.751886 
L 550.588589 208.60097 
L 552.915529 210.040719 
L 555.242468 210.059283 
L 557.569407 209.41281 
L 559.896346 210.893342 
L 562.223285 208.277404 
L 564.550224 210.470574 
L 566.877163 205.944703 
L 569.204102 205.57997 
L 571.531041 205.069441 
L 573.857981 209.003114 
L 576.18492 206.682508 
L 578.511859 209.064611 
L 580.838798 211.957126 
L 583.165737 211.420181 
L 585.492676 209.442558 
L 587.819615 211.706858 
L 590.146554 214.302644 
L 592.473494 215.070016 
L 594.800433 211.182505 
L 597.127372 210.954191 
L 599.454311 209.330381 
L 601.78125 206.373197 
L 604.108189 206.355929 
L 606.435128 210.992193 
L 608.762067 211.935946 
L 611.089006 210.601512 
L 613.415946 212.158547 
L 615.742885 211.990394 
L 618.069824 210.879128 
L 620.396763 211.913103 
L 622.723702 214.393566 
L 625.050641 214.744468 
L 627.37758 213.997141 
L 629.704519 215.949746 
L 634.358398 217.202075 
L 639.012276 219.602399 
L 641.339215 219.1438 
L 643.666154 219.451396 
L 645.993093 219.379756 
L 648.320032 217.983306 
L 650.646971 218.394119 
L 652.973911 219.089724 
L 655.30085 217.554537 
L 657.627789 215.640325 
L 659.954728 216.873945 
L 662.281667 215.29918 
L 664.608606 215.143998 
L 666.935545 216.852964 
L 669.262484 217.105837 
L 671.589423 217.984515 
L 673.916363 220.659928 
L 676.243302 219.474383 
L 678.570241 218.159762 
L 680.89718 219.822948 
L 683.224119 219.168577 
L 685.551058 217.47661 
L 687.877997 217.811621 
L 690.204936 219.30377 
L 692.531876 218.563437 
L 694.858815 219.296585 
L 697.185754 220.574051 
L 699.512693 219.397316 
L 701.839632 219.77979 
L 704.166571 220.869365 
L 706.49351 220.498129 
L 708.820449 220.459678 
L 711.147388 223.026634 
L 715.801267 223.277951 
L 720.455145 224.92917 
L 722.782084 225.536875 
L 725.109023 225.749136 
L 727.435962 225.155063 
L 729.762901 224.678051 
L 732.08984 224.396936 
L 734.41678 223.747569 
L 736.743719 223.268457 
L 739.070658 224.214675 
L 741.397597 224.240569 
L 743.724536 223.959916 
L 746.051475 223.966664 
L 748.378414 224.265308 
L 750.705353 223.715961 
L 753.032293 222.779789 
L 755.359232 222.648893 
L 757.686171 222.706656 
L 760.01311 222.384011 
L 762.340049 222.617102 
L 764.666988 223.836584 
L 766.993927 224.07034 
L 769.320866 224.155486 
L 771.647805 225.327059 
L 776.301684 225.707687 
L 778.628623 225.652109 
L 780.955562 226.069403 
L 783.282501 225.781345 
L 790.263318 226.25651 
L 794.917197 226.380134 
L 797.244136 226.734732 
L 799.571075 226.638215 
L 801.898014 227.312801 
L 804.224953 227.683903 
L 808.878831 226.874746 
L 811.20577 226.846391 
L 813.53271 226.568694 
L 815.859649 226.41684 
L 818.186588 226.576439 
L 820.513527 226.401564 
L 822.840466 226.5801 
L 825.167405 225.670977 
L 827.494344 225.289628 
L 829.821283 225.035583 
L 832.148222 224.968234 
L 834.475162 224.20808 
L 836.802101 225.037279 
L 839.12904 225.274481 
L 843.782918 226.214858 
L 846.109857 227.041708 
L 853.090675 227.680698 
L 855.417614 227.392604 
L 857.744553 227.252943 
L 864.72537 227.4377 
L 867.052309 227.960733 
L 869.379248 228.148221 
L 871.706187 228.22243 
L 874.033127 228.429204 
L 876.360066 228.289416 
L 881.013944 228.449962 
L 883.340883 228.369532 
L 885.667822 227.901587 
L 892.648639 227.931447 
L 894.975579 227.907354 
L 897.302518 228.283509 
L 899.629457 228.233405 
L 901.956396 228.05771 
L 904.283335 228.118013 
L 906.610274 227.861663 
L 908.937213 227.77936 
L 913.591092 227.958184 
L 915.918031 227.898029 
L 918.24497 228.29176 
L 922.898848 228.589293 
L 925.225787 228.597452 
L 927.552726 228.79227 
L 934.533544 228.686245 
L 936.860483 228.766841 
L 939.187422 228.645149 
L 941.514361 228.767186 
L 948.495178 228.766473 
L 950.822117 228.888165 
L 955.475996 228.692297 
L 962.456813 228.589704 
L 969.43763 228.895693 
L 974.091509 228.96 
L 1018.303352 228.96 
L 1020.630291 228.74083 
L 1027.611108 228.74083 
L 1029.938047 228.599986 
L 1032.264986 228.819156 
L 1039.245804 228.747561 
L 1039.245804 228.747561 
" style="fill:none;stroke:#525886;stroke-linecap:square;stroke-width:2;"/>
   </g>
   <g id="line2d_18">
    <path clip-path="url(#p637f429f1b)" d="M 134.066488 228.744333 
L 138.720366 228.881896 
L 148.028122 228.797897 
L 157.335879 228.768872 
L 159.662818 228.930975 
L 166.643635 228.911185 
L 171.297514 228.911185 
L 173.624453 228.718263 
L 182.932209 228.691002 
L 185.259148 228.883924 
L 194.566905 228.96 
L 196.893844 228.695182 
L 199.220783 228.548211 
L 203.874661 228.000178 
L 206.2016 227.890313 
L 213.182418 228.566465 
L 215.509357 228.053091 
L 220.163235 227.589565 
L 224.817113 225.784406 
L 227.144052 226.209421 
L 229.470991 226.37654 
L 231.797931 224.371869 
L 234.12487 224.129425 
L 236.451809 224.992165 
L 238.778748 222.9966 
L 241.105687 221.709003 
L 243.432626 223.191741 
L 245.759565 223.069912 
L 248.086504 219.633157 
L 250.413443 217.707056 
L 252.740383 216.509705 
L 255.067322 213.350119 
L 257.394261 212.877432 
L 259.7212 211.808967 
L 262.048139 213.739031 
L 264.375078 210.426955 
L 266.702017 212.652466 
L 269.028956 208.122606 
L 271.355896 204.226073 
L 273.682835 204.523256 
L 276.009774 207.128727 
L 278.336713 206.94742 
L 280.663652 206.337185 
L 282.990591 209.23939 
L 285.31753 201.929236 
L 287.644469 197.638531 
L 289.971408 195.240596 
L 292.298348 198.11517 
L 294.625287 197.73291 
L 296.952226 202.755963 
L 299.279165 197.499025 
L 301.606104 193.287157 
L 303.933043 193.399374 
L 306.259982 187.467048 
L 308.586921 179.579403 
L 310.913861 182.140024 
L 313.2408 172.153863 
L 315.567739 164.614566 
L 317.894678 163.07957 
L 320.221617 156.764265 
L 322.548556 150.945082 
L 324.875495 150.238852 
L 329.529373 132.754048 
L 331.856313 127.656451 
L 334.183252 124.870118 
L 336.510191 126.443794 
L 338.83713 127.199586 
L 341.164069 129.822724 
L 343.491008 130.371015 
L 345.817947 126.587204 
L 350.471825 109.176174 
L 352.798765 104.387416 
L 355.125704 101.163981 
L 357.452643 94.541241 
L 359.779582 91.382131 
L 362.106521 89.19984 
L 366.760399 72.522535 
L 369.087338 70.265257 
L 371.414278 69.049576 
L 373.741217 68.784309 
L 376.068156 71.978919 
L 378.395095 72.152497 
L 385.375912 62.21228 
L 387.702851 57.470678 
L 390.02979 57.76041 
L 392.35673 58.946598 
L 394.683669 58.295345 
L 397.010608 56.7303 
L 399.337547 55.333154 
L 401.664486 53.785017 
L 403.991425 51.019967 
L 406.318364 48.872134 
L 408.645303 48.074126 
L 410.972242 46.692766 
L 413.299182 44.232258 
L 415.626121 43.053405 
L 417.95306 41.6472 
L 420.279999 39.213452 
L 422.606938 37.189095 
L 424.933877 35.626301 
L 427.260816 33.215095 
L 429.587755 31.384624 
L 431.914695 30.120512 
L 434.241634 29.645219 
L 436.568573 29.626368 
L 438.895512 30.586433 
L 441.222451 31.747895 
L 443.54939 30.799671 
L 445.876329 29.61644 
L 448.203268 28.778963 
L 450.530207 27.57779 
L 452.857147 25.966454 
L 455.184086 25.747655 
L 457.511025 26.199938 
L 459.837964 25.423601 
L 462.164903 24.403117 
L 466.818781 23.862512 
L 469.14572 22.759655 
L 471.47266 22.607372 
L 473.799599 22.716019 
L 478.453477 21.864883 
L 480.780416 21.821438 
L 485.434294 21.157202 
L 487.761233 21.149278 
L 490.088172 20.843733 
L 492.415112 20.242271 
L 494.742051 20.285445 
L 497.06899 20.188123 
L 499.395929 19.902449 
L 501.722868 19.900455 
L 504.049807 20.095639 
L 506.376746 20.028319 
L 508.703685 20.072314 
L 511.030624 19.902344 
L 513.357564 20.040846 
L 515.684503 20.548627 
L 518.011442 20.380253 
L 520.338381 19.93163 
L 524.992259 19.412457 
L 529.646137 18.646042 
L 531.973077 18.538091 
L 534.300016 18.590642 
L 536.626955 18.178457 
L 538.953894 18.115417 
L 545.934711 18.389524 
L 548.26165 18.338807 
L 550.588589 18.0729 
L 552.915529 17.943853 
L 555.242468 17.979728 
L 557.569407 17.789024 
L 569.204102 17.912295 
L 571.531041 18.210273 
L 576.18492 18.640309 
L 580.838798 19.728578 
L 583.165737 19.818155 
L 587.819615 21.772648 
L 592.473494 22.006438 
L 594.800433 23.083984 
L 599.454311 22.332575 
L 601.78125 22.680521 
L 604.108189 23.74774 
L 606.435128 25.423546 
L 608.762067 27.334092 
L 611.089006 29.497505 
L 615.742885 31.963473 
L 618.069824 32.797414 
L 620.396763 33.004081 
L 622.723702 32.720647 
L 625.050641 34.252875 
L 627.37758 37.055577 
L 629.704519 39.392528 
L 632.031459 40.645644 
L 636.685337 44.51175 
L 639.012276 43.938526 
L 641.339215 44.677095 
L 643.666154 49.255294 
L 645.993093 55.186909 
L 650.646971 60.386802 
L 652.973911 63.900073 
L 655.30085 65.839785 
L 657.627789 68.627643 
L 659.954728 74.957801 
L 662.281667 83.684742 
L 664.608606 90.44691 
L 666.935545 96.49411 
L 669.262484 101.362517 
L 671.589423 101.929916 
L 673.916363 104.50819 
L 678.570241 114.431704 
L 680.89718 120.993448 
L 683.224119 133.568566 
L 685.551058 140.831662 
L 687.877997 146.041509 
L 690.204936 152.947405 
L 692.531876 157.469395 
L 694.858815 160.674436 
L 697.185754 165.988368 
L 699.512693 172.141182 
L 701.839632 175.547468 
L 704.166571 176.962536 
L 706.49351 179.265291 
L 708.820449 183.535447 
L 711.147388 186.205955 
L 713.474328 190.641444 
L 715.801267 196.173567 
L 718.128206 200.16496 
L 720.455145 201.766871 
L 725.109023 204.485429 
L 727.435962 206.800292 
L 729.762901 208.528976 
L 732.08984 210.696678 
L 734.41678 212.024414 
L 736.743719 213.808381 
L 739.070658 214.227087 
L 741.397597 214.84124 
L 743.724536 215.989078 
L 746.051475 218.157679 
L 753.032293 223.234681 
L 755.359232 223.541473 
L 766.993927 225.985458 
L 769.320866 226.234441 
L 771.647805 226.244332 
L 780.955562 226.8014 
L 783.282501 227.092935 
L 790.263318 227.55112 
L 792.590258 227.426903 
L 797.244136 227.670299 
L 799.571075 227.58134 
L 806.551892 227.887318 
L 815.859649 228.512295 
L 825.167405 228.707091 
L 841.455979 228.510272 
L 843.782918 228.622462 
L 846.109857 228.361661 
L 848.436796 227.9165 
L 850.763735 227.85288 
L 857.744553 228.198174 
L 860.071492 228.734457 
L 867.052309 228.821419 
L 962.456813 228.914489 
L 990.380082 228.932373 
L 1020.630291 228.920159 
L 1041.572743 228.953675 
L 1062.515195 228.93868 
L 1062.515195 228.93868 
" style="fill:none;stroke:#937252;stroke-linecap:square;stroke-width:2;"/>
   </g>
   <g id="line2d_19">
    <path clip-path="url(#p637f429f1b)" d="M 299.279165 220.368534 
L 301.606104 228.96 
L 308.586921 228.96 
L 310.913861 207.481335 
L 313.2408 207.481335 
L 315.567739 186.00267 
L 320.221617 186.00267 
L 322.548556 207.481335 
L 324.875495 207.481335 
L 327.202434 226.812134 
L 331.856313 226.812134 
L 334.183252 218.220668 
L 336.510191 212.851001 
L 338.83713 214.998868 
L 341.164069 214.998868 
L 343.491008 197.815936 
L 345.817947 206.407402 
L 348.144886 207.481335 
L 350.471825 197.568105 
L 352.798765 193.272372 
L 355.125704 206.550092 
L 357.452643 206.550092 
L 359.779582 208.160992 
L 362.106521 215.54732 
L 364.43346 206.03534 
L 366.760399 197.667029 
L 369.087338 197.667029 
L 371.414278 200.351862 
L 373.741217 192.139431 
L 376.068156 192.381672 
L 378.395095 193.915862 
L 380.722034 175.828566 
L 383.048973 161.509456 
L 385.375912 166.112027 
L 387.702851 163.568501 
L 390.02979 168.938167 
L 392.35673 170.916465 
L 394.683669 166.143428 
L 397.010608 162.172583 
L 399.337547 142.483806 
L 401.664486 139.262007 
L 403.991425 137.472118 
L 406.318364 145.824932 
L 408.645303 121.566675 
L 410.972242 132.817404 
L 413.299182 121.58241 
L 415.626121 102.660729 
L 417.95306 96.21713 
L 420.279999 109.104329 
L 422.606938 125.059908 
L 424.933877 116.248148 
L 427.260816 140.795194 
L 429.587755 115.020796 
L 431.914695 104.281464 
L 434.241634 98.55382 
L 436.568573 105.713375 
L 438.895512 96.508233 
L 441.222451 112.12908 
L 443.54939 144.347077 
L 445.876329 141.483255 
L 448.203268 162.96192 
L 450.530207 170.121475 
L 452.857147 162.311052 
L 455.184086 119.353722 
L 457.511025 136.536654 
L 459.837964 96.106225 
L 462.164903 83.577004 
L 464.491842 75.766581 
L 466.818781 97.245246 
L 469.14572 54.287916 
L 471.47266 73.239679 
L 473.799599 78.609345 
L 476.126538 78.609345 
L 478.453477 71.44979 
L 480.780416 100.08801 
L 483.107355 92.928455 
L 487.761233 121.566675 
L 490.088172 137.931372 
L 492.415112 130.771817 
L 494.742051 116.452707 
L 497.06899 92.928455 
L 499.395929 109.293152 
L 501.722868 95.792277 
L 504.049807 95.792277 
L 506.376746 116.007491 
L 508.703685 116.007491 
L 511.030624 85.323684 
L 513.357564 98.824559 
L 515.684503 94.528826 
L 518.011442 93.839671 
L 520.338381 110.958006 
L 522.66532 110.958006 
L 524.992259 101.752864 
L 527.319198 104.616686 
L 529.646137 97.725135 
L 531.973077 80.606801 
L 534.300016 104.038072 
L 536.626955 114.777404 
L 538.953894 129.096514 
L 541.280833 136.288465 
L 543.607772 152.653162 
L 545.934711 156.070223 
L 550.588589 113.443334 
L 552.915529 115.095539 
L 555.242468 109.88859 
L 557.569407 100.22319 
L 559.896346 121.701855 
L 562.223285 129.029025 
L 564.550224 107.55036 
L 566.877163 98.4382 
L 569.204102 105.120451 
L 571.531041 87.221563 
L 573.857981 82.785752 
L 576.18492 92.331825 
L 578.511859 94.534765 
L 580.838798 102.88758 
L 583.165737 105.09052 
L 585.492676 105.09052 
L 587.819615 122.392778 
L 590.146554 132.719059 
L 592.473494 121.979726 
L 594.800433 123.356564 
L 597.127372 121.566675 
L 599.454311 110.339191 
L 601.78125 103.016919 
L 604.108189 90.12972 
L 606.435128 102.553654 
L 608.762067 104.343542 
L 611.089006 106.89695 
L 613.415946 122.273722 
L 615.742885 144.92395 
L 618.069824 140.170968 
L 620.396763 156.279967 
L 622.723702 162.652758 
L 625.050641 147.796681 
L 627.37758 135.348818 
L 629.704519 138.928596 
L 632.031459 129.841468 
L 634.358398 134.583511 
L 636.685337 151.357326 
L 639.012276 157.621937 
L 641.339215 144.093167 
L 643.666154 154.006397 
L 645.993093 143.127593 
L 648.320032 130.85407 
L 650.646971 128.537743 
L 652.973911 136.348167 
L 655.30085 133.987874 
L 657.627789 147.795587 
L 659.954728 159.046316 
L 662.281667 179.261531 
L 664.608606 187.332302 
L 666.935545 166.194568 
L 669.262484 176.9339 
L 671.589423 148.946549 
L 673.916363 127.467884 
L 676.243302 138.923172 
L 678.570241 172.334429 
L 680.89718 172.334429 
L 683.224119 181.706937 
L 685.551058 196.026047 
L 687.877997 188.866492 
L 690.204936 178.12716 
L 692.531876 174.221948 
L 694.858815 192.185922 
L 699.512693 206.505032 
L 701.839632 205.789077 
L 704.166571 209.694288 
L 706.49351 210.895892 
L 708.820449 196.576782 
L 711.147388 196.576782 
L 713.474328 203.259033 
L 715.801267 177.484635 
L 718.128206 172.37782 
L 720.455145 172.37782 
L 722.782084 165.595084 
L 725.109023 156.04901 
L 727.435962 177.050372 
L 729.762901 183.396341 
L 732.08984 187.802221 
L 734.41678 190.493783 
L 736.743719 194.07356 
L 739.070658 193.889982 
L 741.397597 196.191268 
L 743.724536 206.104498 
L 746.051475 204.05891 
L 748.378414 209.428577 
L 750.705353 213.224183 
L 753.032293 216.292563 
L 755.359232 215.621355 
L 757.686171 220.735323 
L 760.01311 220.377345 
L 762.340049 213.867402 
L 764.666988 211.182569 
L 766.993927 206.250648 
L 769.320866 204.310867 
L 771.647805 208.353909 
L 773.974745 212.028831 
L 776.301684 213.552655 
L 778.628623 216.894873 
L 780.955562 217.172614 
L 783.282501 218.857215 
L 785.60944 219.940884 
L 787.936379 216.192484 
L 790.263318 213.931572 
L 792.590258 211.132491 
L 794.917197 210.655187 
L 797.244136 211.644086 
L 799.571075 214.331564 
L 801.898014 218.853388 
L 804.224953 223.813433 
L 806.551892 222.178081 
L 808.878831 223.743566 
L 811.20577 222.661087 
L 813.53271 221.826964 
L 815.859649 222.350834 
L 818.186588 224.463489 
L 820.513527 224.821467 
L 822.840466 228.125877 
L 825.167405 228.96 
L 827.494344 228.562247 
L 836.802101 228.562247 
L 839.12904 228.675514 
L 841.455979 228.675514 
L 843.782918 227.838683 
L 848.436796 227.838683 
L 850.763735 228.123169 
L 853.090675 228.123169 
L 855.417614 228.729047 
L 862.398431 228.729047 
L 864.72537 227.39851 
L 867.052309 227.629463 
L 874.033127 227.629463 
L 876.360066 228.96 
L 878.687005 228.96 
L 881.013944 228.72526 
L 883.340883 228.72526 
L 885.667822 228.509395 
L 894.975579 228.584441 
L 897.302518 228.800307 
L 899.629457 228.471132 
L 899.629457 228.471132 
" style="fill:none;stroke:#d18cad;stroke-linecap:square;stroke-width:2;"/>
   </g>
   <g id="line2d_20">
    <path clip-path="url(#p637f429f1b)" d="M 159.662818 186.00267 
L 171.297514 186.00267 
L 173.624453 228.96 
L 208.528539 228.96 
L 210.855479 228.117699 
L 220.163235 228.117699 
L 222.490174 228.96 
L 250.413443 228.96 
L 252.740383 223.906196 
L 255.067322 223.906196 
L 257.394261 221.519678 
L 262.048139 221.519678 
L 264.375078 226.573482 
L 266.702017 223.70966 
L 269.028956 226.096178 
L 273.682835 226.096178 
L 276.009774 225.473608 
L 278.336713 228.33743 
L 280.663652 228.33743 
L 282.990591 226.80324 
L 285.31753 226.110379 
L 287.644469 226.732949 
L 289.971408 226.732949 
L 292.298348 226.549371 
L 294.625287 228.083562 
L 296.952226 228.776422 
L 299.279165 228.583788 
L 301.606104 228.583788 
L 303.933043 228.767366 
L 306.259982 228.590587 
L 308.586921 227.939718 
L 310.913861 228.132352 
L 313.2408 227.986239 
L 322.548556 227.957949 
L 324.875495 227.845283 
L 329.529373 227.168203 
L 331.856313 227.373617 
L 334.183252 226.598801 
L 336.510191 225.048851 
L 338.83713 224.303913 
L 343.491008 222.661349 
L 345.817947 217.36803 
L 348.144886 217.209248 
L 350.471825 214.570478 
L 355.125704 210.401617 
L 357.452643 214.395668 
L 362.106521 215.645064 
L 364.43346 215.281251 
L 366.760399 211.691804 
L 369.087338 203.555115 
L 371.414278 197.18796 
L 373.741217 194.021318 
L 376.068156 195.336522 
L 378.395095 196.26043 
L 380.722034 203.902421 
L 383.048973 210.097288 
L 385.375912 213.087755 
L 387.702851 207.92733 
L 390.02979 209.29933 
L 392.35673 209.12619 
L 394.683669 206.461745 
L 397.010608 206.454519 
L 399.337547 210.082176 
L 401.664486 208.302581 
L 403.991425 207.514097 
L 406.318364 204.967156 
L 408.645303 201.823027 
L 410.972242 196.239925 
L 413.299182 197.087945 
L 415.626121 197.550691 
L 417.95306 199.685539 
L 420.279999 202.234809 
L 422.606938 197.169791 
L 424.933877 190.693268 
L 427.260816 180.433562 
L 429.587755 174.452652 
L 431.914695 171.771081 
L 434.241634 167.357772 
L 436.568573 168.678371 
L 438.895512 160.922927 
L 441.222451 163.604331 
L 443.54939 162.496814 
L 445.876329 176.362733 
L 448.203268 177.270743 
L 450.530207 174.965238 
L 452.857147 174.085084 
L 455.184086 172.347895 
L 457.511025 167.804095 
L 459.837964 166.805945 
L 462.164903 180.378206 
L 464.491842 182.072316 
L 466.818781 176.75665 
L 469.14572 178.747326 
L 471.47266 178.816203 
L 473.799599 182.334972 
L 476.126538 180.33331 
L 478.453477 188.371461 
L 480.780416 182.471306 
L 483.107355 174.140925 
L 485.434294 165.174351 
L 487.761233 156.963486 
L 490.088172 151.604554 
L 492.415112 153.542007 
L 494.742051 168.440728 
L 497.06899 169.325933 
L 499.395929 158.033763 
L 501.722868 155.76366 
L 504.049807 146.771509 
L 506.376746 135.986291 
L 508.703685 137.652385 
L 511.030624 154.224984 
L 513.357564 156.20874 
L 515.684503 157.653917 
L 518.011442 164.028879 
L 520.338381 167.251204 
L 522.66532 167.706563 
L 524.992259 170.533309 
L 527.319198 176.737549 
L 529.646137 176.32041 
L 531.973077 164.836651 
L 534.300016 164.066177 
L 536.626955 155.610811 
L 538.953894 153.546873 
L 541.280833 148.931948 
L 543.607772 156.231572 
L 545.934711 155.078472 
L 548.26165 150.043513 
L 550.588589 152.423239 
L 552.915529 153.09164 
L 557.569407 147.462727 
L 559.896346 154.096964 
L 562.223285 146.84849 
L 564.550224 142.707186 
L 566.877163 144.301093 
L 569.204102 150.587367 
L 571.531041 154.401278 
L 573.857981 155.860484 
L 576.18492 153.429011 
L 578.511859 152.983896 
L 580.838798 133.488572 
L 583.165737 129.876483 
L 585.492676 134.769154 
L 587.819615 136.898484 
L 590.146554 135.485262 
L 592.473494 150.768252 
L 594.800433 154.138504 
L 597.127372 152.437087 
L 601.78125 150.660806 
L 604.108189 148.706275 
L 606.435128 144.029021 
L 608.762067 139.689619 
L 611.089006 140.72636 
L 613.415946 140.808831 
L 615.742885 135.306357 
L 618.069824 130.611416 
L 620.396763 128.747557 
L 622.723702 122.148182 
L 625.050641 116.441497 
L 627.37758 115.416377 
L 629.704519 113.769193 
L 632.031459 110.12091 
L 634.358398 108.228859 
L 636.685337 107.807366 
L 639.012276 114.649226 
L 641.339215 114.481549 
L 643.666154 114.01011 
L 645.993093 118.895619 
L 648.320032 119.670485 
L 650.646971 114.510078 
L 652.973911 121.032706 
L 655.30085 119.916945 
L 657.627789 115.381805 
L 659.954728 113.638146 
L 662.281667 111.48268 
L 664.608606 102.545273 
L 666.935545 103.050675 
L 669.262484 101.49915 
L 671.589423 98.795241 
L 673.916363 95.085237 
L 676.243302 97.781761 
L 678.570241 103.370402 
L 680.89718 103.274465 
L 683.224119 107.605688 
L 685.551058 113.46987 
L 687.877997 113.938675 
L 690.204936 110.421958 
L 692.531876 115.138515 
L 694.858815 120.436219 
L 697.185754 117.834332 
L 699.512693 122.194353 
L 701.839632 123.369484 
L 704.166571 122.335459 
L 706.49351 117.777809 
L 708.820449 122.264223 
L 711.147388 125.231389 
L 713.474328 129.686597 
L 715.801267 135.008882 
L 720.455145 142.680571 
L 722.782084 136.45625 
L 725.109023 139.149633 
L 727.435962 142.647534 
L 729.762901 137.10008 
L 732.08984 132.896187 
L 734.41678 133.15728 
L 736.743719 124.90995 
L 739.070658 117.366926 
L 741.397597 124.780787 
L 743.724536 134.368445 
L 746.051475 134.538964 
L 748.378414 142.34182 
L 750.705353 152.681811 
L 753.032293 153.194521 
L 755.359232 146.189185 
L 757.686171 150.642952 
L 760.01311 155.868609 
L 762.340049 151.797265 
L 764.666988 153.19665 
L 766.993927 155.618347 
L 769.320866 156.063119 
L 771.647805 152.881405 
L 773.974745 152.252779 
L 776.301684 161.125271 
L 778.628623 163.648648 
L 780.955562 167.032237 
L 783.282501 173.423882 
L 785.60944 176.276613 
L 787.936379 169.400621 
L 790.263318 167.169793 
L 792.590258 174.640554 
L 794.917197 167.679292 
L 797.244136 165.374337 
L 799.571075 172.017067 
L 801.898014 175.5301 
L 804.224953 171.257008 
L 806.551892 172.921728 
L 808.878831 176.593451 
L 811.20577 169.630134 
L 813.53271 164.718836 
L 815.859649 163.513624 
L 818.186588 169.093541 
L 820.513527 169.17467 
L 822.840466 170.947505 
L 825.167405 180.323587 
L 827.494344 180.310143 
L 829.821283 177.491771 
L 832.148222 179.596022 
L 834.475162 185.920208 
L 836.802101 185.610801 
L 839.12904 188.773172 
L 841.455979 194.951046 
L 843.782918 198.371825 
L 846.109857 195.920397 
L 848.436796 197.290447 
L 850.763735 199.570047 
L 853.090675 198.166529 
L 855.417614 198.754267 
L 857.744553 203.250509 
L 860.071492 204.74668 
L 862.398431 207.346213 
L 864.72537 211.049407 
L 867.052309 215.818946 
L 869.379248 217.206314 
L 871.706187 219.831773 
L 874.033127 211.168214 
L 876.360066 210.989185 
L 878.687005 209.3918 
L 881.013944 208.745336 
L 883.340883 206.951808 
L 885.667822 214.447332 
L 887.994761 215.871721 
L 890.3217 218.032699 
L 892.648639 219.282514 
L 894.975579 221.290631 
L 897.302518 225.490636 
L 899.629457 226.022132 
L 901.956396 225.912339 
L 904.283335 226.156524 
L 906.610274 226.082634 
L 908.937213 225.46404 
L 911.264152 224.998324 
L 918.24497 225.278914 
L 920.571909 225.669088 
L 922.898848 225.700555 
L 927.552726 226.125652 
L 929.879665 226.424812 
L 932.206604 226.599649 
L 934.533544 226.963673 
L 946.168239 227.629664 
L 950.822117 227.569428 
L 953.149057 227.449154 
L 957.802935 227.586795 
L 964.783752 227.200573 
L 978.745387 227.809755 
L 981.072326 227.444328 
L 985.726204 227.581898 
L 990.380082 227.468536 
L 992.707021 227.814147 
L 995.033961 228.024722 
L 997.3609 228.356439 
L 1002.014778 228.541402 
L 1006.668656 228.316209 
L 1008.995595 227.775379 
L 1011.322534 227.825398 
L 1013.649474 227.700131 
L 1015.976413 227.725545 
L 1018.303352 227.56229 
L 1029.938047 227.791782 
L 1032.264986 228.01098 
L 1034.591926 227.98856 
L 1036.918865 227.630918 
L 1039.245804 227.795282 
L 1041.572743 227.822555 
L 1048.55356 228.638284 
L 1057.861317 228.609468 
L 1062.515195 228.87161 
L 1064.842134 228.96 
L 1067.169073 228.788171 
L 1069.496012 228.788171 
L 1071.822951 228.667504 
L 1076.47683 228.667504 
L 1078.803769 228.839333 
L 1081.130708 228.839333 
L 1083.457647 228.96 
L 1085.784586 228.733909 
L 1085.784586 228.733909 
" style="fill:none;stroke:#a4a86f;stroke-linecap:square;stroke-width:2;"/>
   </g>
   <g id="line2d_21">
    <path clip-path="url(#p637f429f1b)" d="M 287.644469 207.481335 
L 289.971408 228.96 
L 292.298348 218.220668 
L 301.606104 218.220668 
L 303.933043 228.96 
L 310.913861 228.96 
L 313.2408 214.64089 
L 315.567739 207.481335 
L 322.548556 207.481335 
L 324.875495 221.800445 
L 327.202434 228.96 
L 334.183252 228.96 
L 336.510191 214.64089 
L 338.83713 209.867853 
L 341.164069 209.867853 
L 343.491008 206.799473 
L 345.817947 206.799473 
L 348.144886 221.118583 
L 350.471825 225.891619 
L 352.798765 220.521953 
L 355.125704 212.851001 
L 357.452643 205.691446 
L 359.779582 200.91841 
L 362.106521 200.91841 
L 364.43346 190.667229 
L 366.760399 190.667229 
L 369.087338 186.111148 
L 371.414278 183.72463 
L 373.741217 182.145316 
L 376.068156 190.476435 
L 378.395095 186.741015 
L 380.722034 186.574836 
L 383.048973 185.629234 
L 385.375912 178.617082 
L 387.702851 179.892784 
L 390.02979 189.381418 
L 394.683669 199.548266 
L 397.010608 195.739678 
L 399.337547 192.465633 
L 401.664486 193.156018 
L 403.991425 193.997847 
L 406.318364 195.167524 
L 408.645303 206.437122 
L 410.972242 215.319936 
L 413.299182 217.284651 
L 415.626121 221.634546 
L 420.279999 220.141003 
L 422.606938 216.16286 
L 424.933877 216.180791 
L 427.260816 208.342145 
L 429.587755 207.74667 
L 431.914695 206.771082 
L 434.241634 202.403916 
L 436.568573 199.775009 
L 438.895512 199.999525 
L 441.222451 196.516224 
L 443.54939 191.669756 
L 445.876329 191.704343 
L 448.203268 195.165049 
L 450.530207 197.587455 
L 452.857147 197.749397 
L 455.184086 190.835916 
L 457.511025 194.276434 
L 459.837964 190.565077 
L 462.164903 187.479237 
L 464.491842 193.000539 
L 466.818781 203.719099 
L 469.14572 194.958997 
L 471.47266 197.829624 
L 473.799599 202.28341 
L 476.126538 197.554774 
L 478.453477 189.697859 
L 480.780416 200.226702 
L 485.434294 192.783099 
L 487.761233 193.832222 
L 490.088172 196.518856 
L 492.415112 186.422422 
L 494.742051 172.451497 
L 497.06899 162.701314 
L 499.395929 143.099605 
L 501.722868 139.775043 
L 504.049807 139.589425 
L 508.703685 153.805844 
L 511.030624 164.705922 
L 513.357564 166.87804 
L 515.684503 173.637431 
L 518.011442 178.4903 
L 520.338381 174.207591 
L 524.992259 180.137449 
L 527.319198 172.274956 
L 529.646137 169.621709 
L 531.973077 173.800266 
L 534.300016 170.430783 
L 536.626955 168.939617 
L 538.953894 168.210644 
L 541.280833 162.009058 
L 543.607772 153.587358 
L 545.934711 155.462479 
L 548.26165 144.667585 
L 550.588589 152.007501 
L 552.915529 158.774315 
L 555.242468 167.150438 
L 557.569407 166.14964 
L 559.896346 177.817651 
L 562.223285 181.62386 
L 564.550224 178.373799 
L 566.877163 185.030976 
L 569.204102 193.699099 
L 571.531041 189.991712 
L 573.857981 176.93283 
L 576.18492 179.389166 
L 578.511859 172.695274 
L 580.838798 166.688135 
L 583.165737 164.829405 
L 585.492676 169.237158 
L 587.819615 171.504768 
L 590.146554 177.300598 
L 592.473494 177.109038 
L 594.800433 186.742851 
L 597.127372 183.104866 
L 599.454311 181.198337 
L 601.78125 182.562061 
L 604.108189 185.048237 
L 606.435128 175.170348 
L 608.762067 179.299675 
L 611.089006 184.254143 
L 613.415946 184.583318 
L 615.742885 181.821775 
L 618.069824 187.909311 
L 620.396763 194.595882 
L 622.723702 194.369791 
L 625.050641 191.995029 
L 627.37758 191.209224 
L 629.704519 197.137724 
L 632.031459 196.592113 
L 634.358398 198.357548 
L 636.685337 195.710998 
L 639.012276 202.182331 
L 641.339215 199.312712 
L 643.666154 200.436596 
L 645.993093 203.339466 
L 648.320032 207.750837 
L 650.646971 206.40674 
L 652.973911 206.284529 
L 655.30085 205.926551 
L 657.627789 203.70003 
L 659.954728 204.562875 
L 662.281667 197.743135 
L 664.608606 194.765709 
L 666.935545 195.18402 
L 669.262484 194.285463 
L 671.589423 190.5863 
L 673.916363 199.360078 
L 676.243302 203.67713 
L 678.570241 208.986463 
L 680.89718 209.306903 
L 683.224119 210.230971 
L 685.551058 210.055765 
L 687.877997 208.422551 
L 690.204936 196.489959 
L 692.531876 195.548048 
L 694.858815 202.514101 
L 697.185754 202.794045 
L 699.512693 204.6075 
L 701.839632 209.559525 
L 704.166571 210.571079 
L 706.49351 204.329416 
L 708.820449 207.077528 
L 711.147388 206.296486 
L 713.474328 211.01614 
L 715.801267 212.795285 
L 718.128206 212.900187 
L 720.455145 210.693866 
L 722.782084 211.44045 
L 725.109023 210.988268 
L 729.762901 214.347443 
L 732.08984 215.795547 
L 734.41678 217.726822 
L 736.743719 218.487311 
L 739.070658 215.093496 
L 741.397597 216.840768 
L 746.051475 214.800213 
L 748.378414 213.856819 
L 750.705353 212.219149 
L 753.032293 212.439218 
L 755.359232 213.985792 
L 757.686171 214.649476 
L 760.01311 213.965698 
L 762.340049 218.564462 
L 764.666988 220.666718 
L 769.320866 222.394085 
L 771.647805 224.959122 
L 773.974745 223.118968 
L 776.301684 222.888962 
L 778.628623 223.268249 
L 780.955562 222.446778 
L 783.282501 222.994591 
L 785.60944 224.677392 
L 787.936379 224.795241 
L 790.263318 225.358001 
L 792.590258 226.522832 
L 794.917197 226.823258 
L 797.244136 227.288323 
L 799.571075 227.271112 
L 801.898014 226.6545 
L 804.224953 226.671785 
L 808.878831 227.107534 
L 811.20577 227.008933 
L 815.859649 227.848396 
L 818.186588 227.638848 
L 820.513527 228.006004 
L 822.840466 227.982807 
L 827.494344 227.066048 
L 832.148222 225.078497 
L 834.475162 224.597718 
L 836.802101 224.963505 
L 839.12904 224.74221 
L 841.455979 222.66977 
L 843.782918 223.109623 
L 846.109857 223.751895 
L 848.436796 223.712557 
L 850.763735 223.852029 
L 853.090675 227.073828 
L 855.417614 227.681715 
L 857.744553 225.530423 
L 860.071492 225.845129 
L 864.72537 225.443474 
L 867.052309 225.443474 
L 869.379248 227.415223 
L 871.706187 226.927072 
L 874.033127 225.443192 
L 876.360066 224.918387 
L 878.687005 224.611549 
L 881.013944 225.243275 
L 883.340883 225.731426 
L 885.667822 227.915697 
L 887.994761 228.653162 
L 890.3217 228.96 
L 892.648639 228.96 
L 894.975579 228.624396 
L 897.302518 228.624396 
L 901.956396 228.157963 
L 904.283335 228.157963 
L 906.610274 228.493567 
L 911.264152 228.54818 
L 913.591092 228.790877 
L 920.571909 228.790877 
L 922.898848 228.96 
L 925.225787 228.96 
L 927.552726 228.683747 
L 929.879665 228.683747 
L 932.206604 228.37019 
L 936.860483 228.37019 
L 939.187422 228.646443 
L 941.514361 228.646443 
L 943.8413 228.96 
L 995.033961 228.96 
L 997.3609 227.617583 
L 1006.668656 227.617583 
L 1008.995595 228.96 
L 1011.322534 228.96 
L 1013.649474 227.937206 
L 1013.649474 227.937206 
" style="fill:none;stroke:#d3d3d3;stroke-linecap:square;stroke-width:2;"/>
   </g>
   <g id="patch_3">
    <path d="M 43.78125 228.96 
L 43.78125 7.2 
" style="fill:none;stroke:#000000;stroke-linecap:square;stroke-linejoin:miter;stroke-width:0.8;"/>
   </g>
   <g id="patch_4">
    <path d="M 43.78125 228.96 
L 1159.78125 228.96 
" style="fill:none;stroke:#000000;stroke-linecap:square;stroke-linejoin:miter;stroke-width:0.8;"/>
   </g>
   <g id="legend_1">
    <g id="line2d_22">
     <path d="M 1065.97 17.67875 
L 1081.97 17.67875 
" style="fill:none;stroke:#947383;stroke-linecap:square;stroke-width:2;"/>
    </g>
    <g id="line2d_23"/>
    <g id="text_17">
     <!-- North America -->
     <g transform="translate(1088.37 20.47875)scale(0.08 -0.08)">
      <defs>
       <path d="M 628 4666 
L 1478 4666 
L 3547 763 
L 3547 4666 
L 4159 4666 
L 4159 0 
L 3309 0 
L 1241 3903 
L 1241 0 
L 628 0 
L 628 4666 
z
" id="DejaVuSans-4e" transform="scale(0.015625)"/>
       <path d="M 3513 2113 
L 3513 0 
L 2938 0 
L 2938 2094 
Q 2938 2591 2744 2837 
Q 2550 3084 2163 3084 
Q 1697 3084 1428 2787 
Q 1159 2491 1159 1978 
L 1159 0 
L 581 0 
L 581 4863 
L 1159 4863 
L 1159 2956 
Q 1366 3272 1645 3428 
Q 1925 3584 2291 3584 
Q 2894 3584 3203 3211 
Q 3513 2838 3513 2113 
z
" id="DejaVuSans-68" transform="scale(0.015625)"/>
       <path d="M 2188 4044 
L 1331 1722 
L 3047 1722 
L 2188 4044 
z
M 1831 4666 
L 2547 4666 
L 4325 0 
L 3669 0 
L 3244 1197 
L 1141 1197 
L 716 0 
L 50 0 
L 1831 4666 
z
" id="DejaVuSans-41" transform="scale(0.015625)"/>
       <path d="M 3328 2828 
Q 3544 3216 3844 3400 
Q 4144 3584 4550 3584 
Q 5097 3584 5394 3201 
Q 5691 2819 5691 2113 
L 5691 0 
L 5113 0 
L 5113 2094 
Q 5113 2597 4934 2840 
Q 4756 3084 4391 3084 
Q 3944 3084 3684 2787 
Q 3425 2491 3425 1978 
L 3425 0 
L 2847 0 
L 2847 2094 
Q 2847 2600 2669 2842 
Q 2491 3084 2119 3084 
Q 1678 3084 1418 2786 
Q 1159 2488 1159 1978 
L 1159 0 
L 581 0 
L 581 3500 
L 1159 3500 
L 1159 2956 
Q 1356 3278 1631 3431 
Q 1906 3584 2284 3584 
Q 2666 3584 2933 3390 
Q 3200 3197 3328 2828 
z
" id="DejaVuSans-6d" transform="scale(0.015625)"/>
      </defs>
      <use xlink:href="#DejaVuSans-4e"/>
      <use x="74.804688" xlink:href="#DejaVuSans-6f"/>
      <use x="135.986328" xlink:href="#DejaVuSans-72"/>
      <use x="177.099609" xlink:href="#DejaVuSans-74"/>
      <use x="216.308594" xlink:href="#DejaVuSans-68"/>
      <use x="279.6875" xlink:href="#DejaVuSans-20"/>
      <use x="311.474609" xlink:href="#DejaVuSans-41"/>
      <use x="379.882812" xlink:href="#DejaVuSans-6d"/>
      <use x="477.294922" xlink:href="#DejaVuSans-65"/>
      <use x="538.818359" xlink:href="#DejaVuSans-72"/>
      <use x="579.931641" xlink:href="#DejaVuSans-69"/>
      <use x="607.714844" xlink:href="#DejaVuSans-63"/>
      <use x="662.695312" xlink:href="#DejaVuSans-61"/>
     </g>
    </g>
    <g id="line2d_24">
     <path d="M 1065.97 29.42125 
L 1081.97 29.42125 
" style="fill:none;stroke:#96c6ad;stroke-linecap:square;stroke-width:2;"/>
    </g>
    <g id="line2d_25"/>
    <g id="text_18">
     <!-- Europe -->
     <g transform="translate(1088.37 32.22125)scale(0.08 -0.08)">
      <defs>
       <path d="M 628 4666 
L 3578 4666 
L 3578 4134 
L 1259 4134 
L 1259 2753 
L 3481 2753 
L 3481 2222 
L 1259 2222 
L 1259 531 
L 3634 531 
L 3634 0 
L 628 0 
L 628 4666 
z
" id="DejaVuSans-45" transform="scale(0.015625)"/>
       <path d="M 1159 525 
L 1159 -1331 
L 581 -1331 
L 581 3500 
L 1159 3500 
L 1159 2969 
Q 1341 3281 1617 3432 
Q 1894 3584 2278 3584 
Q 2916 3584 3314 3078 
Q 3713 2572 3713 1747 
Q 3713 922 3314 415 
Q 2916 -91 2278 -91 
Q 1894 -91 1617 61 
Q 1341 213 1159 525 
z
M 3116 1747 
Q 3116 2381 2855 2742 
Q 2594 3103 2138 3103 
Q 1681 3103 1420 2742 
Q 1159 2381 1159 1747 
Q 1159 1113 1420 752 
Q 1681 391 2138 391 
Q 2594 391 2855 752 
Q 3116 1113 3116 1747 
z
" id="DejaVuSans-70" transform="scale(0.015625)"/>
      </defs>
      <use xlink:href="#DejaVuSans-45"/>
      <use x="63.183594" xlink:href="#DejaVuSans-75"/>
      <use x="126.5625" xlink:href="#DejaVuSans-72"/>
      <use x="165.425781" xlink:href="#DejaVuSans-6f"/>
      <use x="226.607422" xlink:href="#DejaVuSans-70"/>
      <use x="290.083984" xlink:href="#DejaVuSans-65"/>
     </g>
    </g>
    <g id="line2d_26">
     <path d="M 1065.97 41.16375 
L 1081.97 41.16375 
" style="fill:none;stroke:#525886;stroke-linecap:square;stroke-width:2;"/>
    </g>
    <g id="line2d_27"/>
    <g id="text_19">
     <!-- South America -->
     <g transform="translate(1088.37 43.96375)scale(0.08 -0.08)">
      <defs>
       <path d="M 3425 4513 
L 3425 3897 
Q 3066 4069 2747 4153 
Q 2428 4238 2131 4238 
Q 1616 4238 1336 4038 
Q 1056 3838 1056 3469 
Q 1056 3159 1242 3001 
Q 1428 2844 1947 2747 
L 2328 2669 
Q 3034 2534 3370 2195 
Q 3706 1856 3706 1288 
Q 3706 609 3251 259 
Q 2797 -91 1919 -91 
Q 1588 -91 1214 -16 
Q 841 59 441 206 
L 441 856 
Q 825 641 1194 531 
Q 1563 422 1919 422 
Q 2459 422 2753 634 
Q 3047 847 3047 1241 
Q 3047 1584 2836 1778 
Q 2625 1972 2144 2069 
L 1759 2144 
Q 1053 2284 737 2584 
Q 422 2884 422 3419 
Q 422 4038 858 4394 
Q 1294 4750 2059 4750 
Q 2388 4750 2728 4690 
Q 3069 4631 3425 4513 
z
" id="DejaVuSans-53" transform="scale(0.015625)"/>
      </defs>
      <use xlink:href="#DejaVuSans-53"/>
      <use x="63.476562" xlink:href="#DejaVuSans-6f"/>
      <use x="124.658203" xlink:href="#DejaVuSans-75"/>
      <use x="188.037109" xlink:href="#DejaVuSans-74"/>
      <use x="227.246094" xlink:href="#DejaVuSans-68"/>
      <use x="290.625" xlink:href="#DejaVuSans-20"/>
      <use x="322.412109" xlink:href="#DejaVuSans-41"/>
      <use x="390.820312" xlink:href="#DejaVuSans-6d"/>
      <use x="488.232422" xlink:href="#DejaVuSans-65"/>
      <use x="549.755859" xlink:href="#DejaVuSans-72"/>
      <use x="590.869141" xlink:href="#DejaVuSans-69"/>
      <use x="618.652344" xlink:href="#DejaVuSans-63"/>
      <use x="673.632812" xlink:href="#DejaVuSans-61"/>
     </g>
    </g>
    <g id="line2d_28">
     <path d="M 1065.97 52.90625 
L 1081.97 52.90625 
" style="fill:none;stroke:#937252;stroke-linecap:square;stroke-width:2;"/>
    </g>
    <g id="line2d_29"/>
    <g id="text_20">
     <!-- United Kingdom -->
     <g transform="translate(1088.37 55.70625)scale(0.08 -0.08)">
      <defs>
       <path d="M 556 4666 
L 1191 4666 
L 1191 1831 
Q 1191 1081 1462 751 
Q 1734 422 2344 422 
Q 2950 422 3222 751 
Q 3494 1081 3494 1831 
L 3494 4666 
L 4128 4666 
L 4128 1753 
Q 4128 841 3676 375 
Q 3225 -91 2344 -91 
Q 1459 -91 1007 375 
Q 556 841 556 1753 
L 556 4666 
z
" id="DejaVuSans-55" transform="scale(0.015625)"/>
       <path d="M 628 4666 
L 1259 4666 
L 1259 2694 
L 3353 4666 
L 4166 4666 
L 1850 2491 
L 4331 0 
L 3500 0 
L 1259 2247 
L 1259 0 
L 628 0 
L 628 4666 
z
" id="DejaVuSans-4b" transform="scale(0.015625)"/>
      </defs>
      <use xlink:href="#DejaVuSans-55"/>
      <use x="73.193359" xlink:href="#DejaVuSans-6e"/>
      <use x="136.572266" xlink:href="#DejaVuSans-69"/>
      <use x="164.355469" xlink:href="#DejaVuSans-74"/>
      <use x="203.564453" xlink:href="#DejaVuSans-65"/>
      <use x="265.087891" xlink:href="#DejaVuSans-64"/>
      <use x="328.564453" xlink:href="#DejaVuSans-20"/>
      <use x="360.351562" xlink:href="#DejaVuSans-4b"/>
      <use x="425.927734" xlink:href="#DejaVuSans-69"/>
      <use x="453.710938" xlink:href="#DejaVuSans-6e"/>
      <use x="517.089844" xlink:href="#DejaVuSans-67"/>
      <use x="580.566406" xlink:href="#DejaVuSans-64"/>
      <use x="644.042969" xlink:href="#DejaVuSans-6f"/>
      <use x="705.224609" xlink:href="#DejaVuSans-6d"/>
     </g>
    </g>
    <g id="line2d_30">
     <path d="M 1065.97 64.64875 
L 1081.97 64.64875 
" style="fill:none;stroke:#d18cad;stroke-linecap:square;stroke-width:2;"/>
    </g>
    <g id="line2d_31"/>
    <g id="text_21">
     <!-- Oceania -->
     <g transform="translate(1088.37 67.44875)scale(0.08 -0.08)">
      <defs>
       <path d="M 2522 4238 
Q 1834 4238 1429 3725 
Q 1025 3213 1025 2328 
Q 1025 1447 1429 934 
Q 1834 422 2522 422 
Q 3209 422 3611 934 
Q 4013 1447 4013 2328 
Q 4013 3213 3611 3725 
Q 3209 4238 2522 4238 
z
M 2522 4750 
Q 3503 4750 4090 4092 
Q 4678 3434 4678 2328 
Q 4678 1225 4090 567 
Q 3503 -91 2522 -91 
Q 1538 -91 948 565 
Q 359 1222 359 2328 
Q 359 3434 948 4092 
Q 1538 4750 2522 4750 
z
" id="DejaVuSans-4f" transform="scale(0.015625)"/>
      </defs>
      <use xlink:href="#DejaVuSans-4f"/>
      <use x="78.710938" xlink:href="#DejaVuSans-63"/>
      <use x="133.691406" xlink:href="#DejaVuSans-65"/>
      <use x="195.214844" xlink:href="#DejaVuSans-61"/>
      <use x="256.494141" xlink:href="#DejaVuSans-6e"/>
      <use x="319.873047" xlink:href="#DejaVuSans-69"/>
      <use x="347.65625" xlink:href="#DejaVuSans-61"/>
     </g>
    </g>
    <g id="line2d_32">
     <path d="M 1065.97 76.39125 
L 1081.97 76.39125 
" style="fill:none;stroke:#a4a86f;stroke-linecap:square;stroke-width:2;"/>
    </g>
    <g id="line2d_33"/>
    <g id="text_22">
     <!-- Asia -->
     <g transform="translate(1088.37 79.19125)scale(0.08 -0.08)">
      <defs>
       <path d="M 2834 3397 
L 2834 2853 
Q 2591 2978 2328 3040 
Q 2066 3103 1784 3103 
Q 1356 3103 1142 2972 
Q 928 2841 928 2578 
Q 928 2378 1081 2264 
Q 1234 2150 1697 2047 
L 1894 2003 
Q 2506 1872 2764 1633 
Q 3022 1394 3022 966 
Q 3022 478 2636 193 
Q 2250 -91 1575 -91 
Q 1294 -91 989 -36 
Q 684 19 347 128 
L 347 722 
Q 666 556 975 473 
Q 1284 391 1588 391 
Q 1994 391 2212 530 
Q 2431 669 2431 922 
Q 2431 1156 2273 1281 
Q 2116 1406 1581 1522 
L 1381 1569 
Q 847 1681 609 1914 
Q 372 2147 372 2553 
Q 372 3047 722 3315 
Q 1072 3584 1716 3584 
Q 2034 3584 2315 3537 
Q 2597 3491 2834 3397 
z
" id="DejaVuSans-73" transform="scale(0.015625)"/>
      </defs>
      <use xlink:href="#DejaVuSans-41"/>
      <use x="68.408203" xlink:href="#DejaVuSans-73"/>
      <use x="120.507812" xlink:href="#DejaVuSans-69"/>
      <use x="148.291016" xlink:href="#DejaVuSans-61"/>
     </g>
    </g>
    <g id="line2d_34">
     <path d="M 1065.97 88.13375 
L 1081.97 88.13375 
" style="fill:none;stroke:#d3d3d3;stroke-linecap:square;stroke-width:2;"/>
    </g>
    <g id="line2d_35"/>
    <g id="text_23">
     <!-- Africa -->
     <g transform="translate(1088.37 90.93375)scale(0.08 -0.08)">
      <defs>
       <path d="M 2375 4863 
L 2375 4384 
L 1825 4384 
Q 1516 4384 1395 4259 
Q 1275 4134 1275 3809 
L 1275 3500 
L 2222 3500 
L 2222 3053 
L 1275 3053 
L 1275 0 
L 697 0 
L 697 3053 
L 147 3053 
L 147 3500 
L 697 3500 
L 697 3744 
Q 697 4328 969 4595 
Q 1241 4863 1831 4863 
L 2375 4863 
z
" id="DejaVuSans-66" transform="scale(0.015625)"/>
      </defs>
      <use xlink:href="#DejaVuSans-41"/>
      <use x="64.783203" xlink:href="#DejaVuSans-66"/>
      <use x="99.988281" xlink:href="#DejaVuSans-72"/>
      <use x="141.101562" xlink:href="#DejaVuSans-69"/>
      <use x="168.884766" xlink:href="#DejaVuSans-63"/>
      <use x="223.865234" xlink:href="#DejaVuSans-61"/>
     </g>
    </g>
   </g>
  </g>
 </g>
 <defs>
  <clipPath id="p637f429f1b">
   <rect height="221.76" width="1116" x="43.78125" y="7.2"/>
  </clipPath>
 </defs>
</svg>
