<?xml version="1.0" encoding="utf-8" standalone="no"?>
<!DOCTYPE svg PUBLIC "-//W3C//DTD SVG 1.1//EN"
  "http://www.w3.org/Graphics/SVG/1.1/DTD/svg11.dtd">
<svg height="298.620937pt" version="1.1" viewBox="0 0 1166.98125 298.620937" width="1166.98125pt" xmlns="http://www.w3.org/2000/svg" xmlns:xlink="http://www.w3.org/1999/xlink">
 <metadata>
  <rdf:RDF xmlns:cc="http://creativecommons.org/ns#" xmlns:dc="http://purl.org/dc/elements/1.1/" xmlns:rdf="http://www.w3.org/1999/02/22-rdf-syntax-ns#">
   <cc:Work>
    <dc:type rdf:resource="http://purl.org/dc/dcmitype/StillImage"/>
    <dc:date>2022-02-10T01:50:04.934309</dc:date>
    <dc:format>image/svg+xml</dc:format>
    <dc:creator>
     <cc:Agent>
      <dc:title>Matplotlib v3.4.2, https://matplotlib.org/</dc:title>
     </cc:Agent>
    </dc:creator>
   </cc:Work>
  </rdf:RDF>
 </metadata>
 <defs>
  <style type="text/css">*{stroke-linecap:butt;stroke-linejoin:round;}</style>
 </defs>
 <g id="figure_1">
  <g id="patch_1">
   <path d="M 0 298.620937 
L 1166.98125 298.620937 
L 1166.98125 0 
L 0 0 
z
" style="fill:#ffffff;"/>
  </g>
  <g id="axes_1">
   <g id="patch_2">
    <path d="M 43.78125 228.96 
L 1159.78125 228.96 
L 1159.78125 7.2 
L 43.78125 7.2 
z
" style="fill:#ffffff;"/>
   </g>
   <g id="matplotlib.axis_1">
    <g id="xtick_1">
     <g id="line2d_1">
      <defs>
       <path d="M 0 0 
L 0 3.5 
" id="mb212c73016" style="stroke:#000000;stroke-width:0.8;"/>
      </defs>
      <g>
       <use style="stroke:#000000;stroke-width:0.8;" x="81.98327" xlink:href="#mb212c73016" y="228.96"/>
      </g>
     </g>
     <g id="text_1">
      <!-- 2020-09 -->
      <g transform="translate(84.742645 277.742812)rotate(-90)scale(0.1 -0.1)">
       <defs>
        <path d="M 1228 531 
L 3431 531 
L 3431 0 
L 469 0 
L 469 531 
Q 828 903 1448 1529 
Q 2069 2156 2228 2338 
Q 2531 2678 2651 2914 
Q 2772 3150 2772 3378 
Q 2772 3750 2511 3984 
Q 2250 4219 1831 4219 
Q 1534 4219 1204 4116 
Q 875 4013 500 3803 
L 500 4441 
Q 881 4594 1212 4672 
Q 1544 4750 1819 4750 
Q 2544 4750 2975 4387 
Q 3406 4025 3406 3419 
Q 3406 3131 3298 2873 
Q 3191 2616 2906 2266 
Q 2828 2175 2409 1742 
Q 1991 1309 1228 531 
z
" id="DejaVuSans-32" transform="scale(0.015625)"/>
        <path d="M 2034 4250 
Q 1547 4250 1301 3770 
Q 1056 3291 1056 2328 
Q 1056 1369 1301 889 
Q 1547 409 2034 409 
Q 2525 409 2770 889 
Q 3016 1369 3016 2328 
Q 3016 3291 2770 3770 
Q 2525 4250 2034 4250 
z
M 2034 4750 
Q 2819 4750 3233 4129 
Q 3647 3509 3647 2328 
Q 3647 1150 3233 529 
Q 2819 -91 2034 -91 
Q 1250 -91 836 529 
Q 422 1150 422 2328 
Q 422 3509 836 4129 
Q 1250 4750 2034 4750 
z
" id="DejaVuSans-30" transform="scale(0.015625)"/>
        <path d="M 313 2009 
L 1997 2009 
L 1997 1497 
L 313 1497 
L 313 2009 
z
" id="DejaVuSans-2d" transform="scale(0.015625)"/>
        <path d="M 703 97 
L 703 672 
Q 941 559 1184 500 
Q 1428 441 1663 441 
Q 2288 441 2617 861 
Q 2947 1281 2994 2138 
Q 2813 1869 2534 1725 
Q 2256 1581 1919 1581 
Q 1219 1581 811 2004 
Q 403 2428 403 3163 
Q 403 3881 828 4315 
Q 1253 4750 1959 4750 
Q 2769 4750 3195 4129 
Q 3622 3509 3622 2328 
Q 3622 1225 3098 567 
Q 2575 -91 1691 -91 
Q 1453 -91 1209 -44 
Q 966 3 703 97 
z
M 1959 2075 
Q 2384 2075 2632 2365 
Q 2881 2656 2881 3163 
Q 2881 3666 2632 3958 
Q 2384 4250 1959 4250 
Q 1534 4250 1286 3958 
Q 1038 3666 1038 3163 
Q 1038 2656 1286 2365 
Q 1534 2075 1959 2075 
z
" id="DejaVuSans-39" transform="scale(0.015625)"/>
       </defs>
       <use xlink:href="#DejaVuSans-32"/>
       <use x="63.623047" xlink:href="#DejaVuSans-30"/>
       <use x="127.246094" xlink:href="#DejaVuSans-32"/>
       <use x="190.869141" xlink:href="#DejaVuSans-30"/>
       <use x="254.492188" xlink:href="#DejaVuSans-2d"/>
       <use x="290.576172" xlink:href="#DejaVuSans-30"/>
       <use x="354.199219" xlink:href="#DejaVuSans-39"/>
      </g>
     </g>
    </g>
    <g id="xtick_2">
     <g id="line2d_2">
      <g>
       <use style="stroke:#000000;stroke-width:0.8;" x="209.323338" xlink:href="#mb212c73016" y="228.96"/>
      </g>
     </g>
     <g id="text_2">
      <!-- 2020-11 -->
      <g transform="translate(212.082713 277.742812)rotate(-90)scale(0.1 -0.1)">
       <defs>
        <path d="M 794 531 
L 1825 531 
L 1825 4091 
L 703 3866 
L 703 4441 
L 1819 4666 
L 2450 4666 
L 2450 531 
L 3481 531 
L 3481 0 
L 794 0 
L 794 531 
z
" id="DejaVuSans-31" transform="scale(0.015625)"/>
       </defs>
       <use xlink:href="#DejaVuSans-32"/>
       <use x="63.623047" xlink:href="#DejaVuSans-30"/>
       <use x="127.246094" xlink:href="#DejaVuSans-32"/>
       <use x="190.869141" xlink:href="#DejaVuSans-30"/>
       <use x="254.492188" xlink:href="#DejaVuSans-2d"/>
       <use x="290.576172" xlink:href="#DejaVuSans-31"/>
       <use x="354.199219" xlink:href="#DejaVuSans-31"/>
      </g>
     </g>
    </g>
    <g id="xtick_3">
     <g id="line2d_3">
      <g>
       <use style="stroke:#000000;stroke-width:0.8;" x="336.663405" xlink:href="#mb212c73016" y="228.96"/>
      </g>
     </g>
     <g id="text_3">
      <!-- 2021-01 -->
      <g transform="translate(339.42278 277.742812)rotate(-90)scale(0.1 -0.1)">
       <use xlink:href="#DejaVuSans-32"/>
       <use x="63.623047" xlink:href="#DejaVuSans-30"/>
       <use x="127.246094" xlink:href="#DejaVuSans-32"/>
       <use x="190.869141" xlink:href="#DejaVuSans-31"/>
       <use x="254.492188" xlink:href="#DejaVuSans-2d"/>
       <use x="290.576172" xlink:href="#DejaVuSans-30"/>
       <use x="354.199219" xlink:href="#DejaVuSans-31"/>
      </g>
     </g>
    </g>
    <g id="xtick_4">
     <g id="line2d_4">
      <g>
       <use style="stroke:#000000;stroke-width:0.8;" x="459.828388" xlink:href="#mb212c73016" y="228.96"/>
      </g>
     </g>
     <g id="text_4">
      <!-- 2021-03 -->
      <g transform="translate(462.587763 277.742812)rotate(-90)scale(0.1 -0.1)">
       <defs>
        <path d="M 2597 2516 
Q 3050 2419 3304 2112 
Q 3559 1806 3559 1356 
Q 3559 666 3084 287 
Q 2609 -91 1734 -91 
Q 1441 -91 1130 -33 
Q 819 25 488 141 
L 488 750 
Q 750 597 1062 519 
Q 1375 441 1716 441 
Q 2309 441 2620 675 
Q 2931 909 2931 1356 
Q 2931 1769 2642 2001 
Q 2353 2234 1838 2234 
L 1294 2234 
L 1294 2753 
L 1863 2753 
Q 2328 2753 2575 2939 
Q 2822 3125 2822 3475 
Q 2822 3834 2567 4026 
Q 2313 4219 1838 4219 
Q 1578 4219 1281 4162 
Q 984 4106 628 3988 
L 628 4550 
Q 988 4650 1302 4700 
Q 1616 4750 1894 4750 
Q 2613 4750 3031 4423 
Q 3450 4097 3450 3541 
Q 3450 3153 3228 2886 
Q 3006 2619 2597 2516 
z
" id="DejaVuSans-33" transform="scale(0.015625)"/>
       </defs>
       <use xlink:href="#DejaVuSans-32"/>
       <use x="63.623047" xlink:href="#DejaVuSans-30"/>
       <use x="127.246094" xlink:href="#DejaVuSans-32"/>
       <use x="190.869141" xlink:href="#DejaVuSans-31"/>
       <use x="254.492188" xlink:href="#DejaVuSans-2d"/>
       <use x="290.576172" xlink:href="#DejaVuSans-30"/>
       <use x="354.199219" xlink:href="#DejaVuSans-33"/>
      </g>
     </g>
    </g>
    <g id="xtick_5">
     <g id="line2d_5">
      <g>
       <use style="stroke:#000000;stroke-width:0.8;" x="587.168455" xlink:href="#mb212c73016" y="228.96"/>
      </g>
     </g>
     <g id="text_5">
      <!-- 2021-05 -->
      <g transform="translate(589.92783 277.742812)rotate(-90)scale(0.1 -0.1)">
       <defs>
        <path d="M 691 4666 
L 3169 4666 
L 3169 4134 
L 1269 4134 
L 1269 2991 
Q 1406 3038 1543 3061 
Q 1681 3084 1819 3084 
Q 2600 3084 3056 2656 
Q 3513 2228 3513 1497 
Q 3513 744 3044 326 
Q 2575 -91 1722 -91 
Q 1428 -91 1123 -41 
Q 819 9 494 109 
L 494 744 
Q 775 591 1075 516 
Q 1375 441 1709 441 
Q 2250 441 2565 725 
Q 2881 1009 2881 1497 
Q 2881 1984 2565 2268 
Q 2250 2553 1709 2553 
Q 1456 2553 1204 2497 
Q 953 2441 691 2322 
L 691 4666 
z
" id="DejaVuSans-35" transform="scale(0.015625)"/>
       </defs>
       <use xlink:href="#DejaVuSans-32"/>
       <use x="63.623047" xlink:href="#DejaVuSans-30"/>
       <use x="127.246094" xlink:href="#DejaVuSans-32"/>
       <use x="190.869141" xlink:href="#DejaVuSans-31"/>
       <use x="254.492188" xlink:href="#DejaVuSans-2d"/>
       <use x="290.576172" xlink:href="#DejaVuSans-30"/>
       <use x="354.199219" xlink:href="#DejaVuSans-35"/>
      </g>
     </g>
    </g>
    <g id="xtick_6">
     <g id="line2d_6">
      <g>
       <use style="stroke:#000000;stroke-width:0.8;" x="714.508523" xlink:href="#mb212c73016" y="228.96"/>
      </g>
     </g>
     <g id="text_6">
      <!-- 2021-07 -->
      <g transform="translate(717.267898 277.742812)rotate(-90)scale(0.1 -0.1)">
       <defs>
        <path d="M 525 4666 
L 3525 4666 
L 3525 4397 
L 1831 0 
L 1172 0 
L 2766 4134 
L 525 4134 
L 525 4666 
z
" id="DejaVuSans-37" transform="scale(0.015625)"/>
       </defs>
       <use xlink:href="#DejaVuSans-32"/>
       <use x="63.623047" xlink:href="#DejaVuSans-30"/>
       <use x="127.246094" xlink:href="#DejaVuSans-32"/>
       <use x="190.869141" xlink:href="#DejaVuSans-31"/>
       <use x="254.492188" xlink:href="#DejaVuSans-2d"/>
       <use x="290.576172" xlink:href="#DejaVuSans-30"/>
       <use x="354.199219" xlink:href="#DejaVuSans-37"/>
      </g>
     </g>
    </g>
    <g id="xtick_7">
     <g id="line2d_7">
      <g>
       <use style="stroke:#000000;stroke-width:0.8;" x="843.936132" xlink:href="#mb212c73016" y="228.96"/>
      </g>
     </g>
     <g id="text_7">
      <!-- 2021-09 -->
      <g transform="translate(846.695507 277.742812)rotate(-90)scale(0.1 -0.1)">
       <use xlink:href="#DejaVuSans-32"/>
       <use x="63.623047" xlink:href="#DejaVuSans-30"/>
       <use x="127.246094" xlink:href="#DejaVuSans-32"/>
       <use x="190.869141" xlink:href="#DejaVuSans-31"/>
       <use x="254.492188" xlink:href="#DejaVuSans-2d"/>
       <use x="290.576172" xlink:href="#DejaVuSans-30"/>
       <use x="354.199219" xlink:href="#DejaVuSans-39"/>
      </g>
     </g>
    </g>
    <g id="xtick_8">
     <g id="line2d_8">
      <g>
       <use style="stroke:#000000;stroke-width:0.8;" x="971.276199" xlink:href="#mb212c73016" y="228.96"/>
      </g>
     </g>
     <g id="text_8">
      <!-- 2021-11 -->
      <g transform="translate(974.035574 277.742812)rotate(-90)scale(0.1 -0.1)">
       <use xlink:href="#DejaVuSans-32"/>
       <use x="63.623047" xlink:href="#DejaVuSans-30"/>
       <use x="127.246094" xlink:href="#DejaVuSans-32"/>
       <use x="190.869141" xlink:href="#DejaVuSans-31"/>
       <use x="254.492188" xlink:href="#DejaVuSans-2d"/>
       <use x="290.576172" xlink:href="#DejaVuSans-31"/>
       <use x="354.199219" xlink:href="#DejaVuSans-31"/>
      </g>
     </g>
    </g>
    <g id="xtick_9">
     <g id="line2d_9">
      <g>
       <use style="stroke:#000000;stroke-width:0.8;" x="1098.616267" xlink:href="#mb212c73016" y="228.96"/>
      </g>
     </g>
     <g id="text_9">
      <!-- 2022-01 -->
      <g transform="translate(1101.375642 277.742812)rotate(-90)scale(0.1 -0.1)">
       <use xlink:href="#DejaVuSans-32"/>
       <use x="63.623047" xlink:href="#DejaVuSans-30"/>
       <use x="127.246094" xlink:href="#DejaVuSans-32"/>
       <use x="190.869141" xlink:href="#DejaVuSans-32"/>
       <use x="254.492188" xlink:href="#DejaVuSans-2d"/>
       <use x="290.576172" xlink:href="#DejaVuSans-30"/>
       <use x="354.199219" xlink:href="#DejaVuSans-31"/>
      </g>
     </g>
    </g>
    <g id="text_10">
     <!-- Date -->
     <g transform="translate(589.830469 289.34125)scale(0.1 -0.1)">
      <defs>
       <path d="M 1259 4147 
L 1259 519 
L 2022 519 
Q 2988 519 3436 956 
Q 3884 1394 3884 2338 
Q 3884 3275 3436 3711 
Q 2988 4147 2022 4147 
L 1259 4147 
z
M 628 4666 
L 1925 4666 
Q 3281 4666 3915 4102 
Q 4550 3538 4550 2338 
Q 4550 1131 3912 565 
Q 3275 0 1925 0 
L 628 0 
L 628 4666 
z
" id="DejaVuSans-44" transform="scale(0.015625)"/>
       <path d="M 2194 1759 
Q 1497 1759 1228 1600 
Q 959 1441 959 1056 
Q 959 750 1161 570 
Q 1363 391 1709 391 
Q 2188 391 2477 730 
Q 2766 1069 2766 1631 
L 2766 1759 
L 2194 1759 
z
M 3341 1997 
L 3341 0 
L 2766 0 
L 2766 531 
Q 2569 213 2275 61 
Q 1981 -91 1556 -91 
Q 1019 -91 701 211 
Q 384 513 384 1019 
Q 384 1609 779 1909 
Q 1175 2209 1959 2209 
L 2766 2209 
L 2766 2266 
Q 2766 2663 2505 2880 
Q 2244 3097 1772 3097 
Q 1472 3097 1187 3025 
Q 903 2953 641 2809 
L 641 3341 
Q 956 3463 1253 3523 
Q 1550 3584 1831 3584 
Q 2591 3584 2966 3190 
Q 3341 2797 3341 1997 
z
" id="DejaVuSans-61" transform="scale(0.015625)"/>
       <path d="M 1172 4494 
L 1172 3500 
L 2356 3500 
L 2356 3053 
L 1172 3053 
L 1172 1153 
Q 1172 725 1289 603 
Q 1406 481 1766 481 
L 2356 481 
L 2356 0 
L 1766 0 
Q 1100 0 847 248 
Q 594 497 594 1153 
L 594 3053 
L 172 3053 
L 172 3500 
L 594 3500 
L 594 4494 
L 1172 4494 
z
" id="DejaVuSans-74" transform="scale(0.015625)"/>
       <path d="M 3597 1894 
L 3597 1613 
L 953 1613 
Q 991 1019 1311 708 
Q 1631 397 2203 397 
Q 2534 397 2845 478 
Q 3156 559 3463 722 
L 3463 178 
Q 3153 47 2828 -22 
Q 2503 -91 2169 -91 
Q 1331 -91 842 396 
Q 353 884 353 1716 
Q 353 2575 817 3079 
Q 1281 3584 2069 3584 
Q 2775 3584 3186 3129 
Q 3597 2675 3597 1894 
z
M 3022 2063 
Q 3016 2534 2758 2815 
Q 2500 3097 2075 3097 
Q 1594 3097 1305 2825 
Q 1016 2553 972 2059 
L 3022 2063 
z
" id="DejaVuSans-65" transform="scale(0.015625)"/>
      </defs>
      <use xlink:href="#DejaVuSans-44"/>
      <use x="77.001953" xlink:href="#DejaVuSans-61"/>
      <use x="138.28125" xlink:href="#DejaVuSans-74"/>
      <use x="177.490234" xlink:href="#DejaVuSans-65"/>
     </g>
    </g>
   </g>
   <g id="matplotlib.axis_2">
    <g id="ytick_1">
     <g id="line2d_10">
      <defs>
       <path d="M 0 0 
L -3.5 0 
" id="m8d34ddd70c" style="stroke:#000000;stroke-width:0.8;"/>
      </defs>
      <g>
       <use style="stroke:#000000;stroke-width:0.8;" x="43.78125" xlink:href="#m8d34ddd70c" y="228.96"/>
      </g>
     </g>
     <g id="text_11">
      <!-- 0.0 -->
      <g transform="translate(20.878125 232.759219)scale(0.1 -0.1)">
       <defs>
        <path d="M 684 794 
L 1344 794 
L 1344 0 
L 684 0 
L 684 794 
z
" id="DejaVuSans-2e" transform="scale(0.015625)"/>
       </defs>
       <use xlink:href="#DejaVuSans-30"/>
       <use x="63.623047" xlink:href="#DejaVuSans-2e"/>
       <use x="95.410156" xlink:href="#DejaVuSans-30"/>
      </g>
     </g>
    </g>
    <g id="ytick_2">
     <g id="line2d_11">
      <g>
       <use style="stroke:#000000;stroke-width:0.8;" x="43.78125" xlink:href="#m8d34ddd70c" y="185.942174"/>
      </g>
     </g>
     <g id="text_12">
      <!-- 0.2 -->
      <g transform="translate(20.878125 189.741393)scale(0.1 -0.1)">
       <use xlink:href="#DejaVuSans-30"/>
       <use x="63.623047" xlink:href="#DejaVuSans-2e"/>
       <use x="95.410156" xlink:href="#DejaVuSans-32"/>
      </g>
     </g>
    </g>
    <g id="ytick_3">
     <g id="line2d_12">
      <g>
       <use style="stroke:#000000;stroke-width:0.8;" x="43.78125" xlink:href="#m8d34ddd70c" y="142.924348"/>
      </g>
     </g>
     <g id="text_13">
      <!-- 0.4 -->
      <g transform="translate(20.878125 146.723567)scale(0.1 -0.1)">
       <defs>
        <path d="M 2419 4116 
L 825 1625 
L 2419 1625 
L 2419 4116 
z
M 2253 4666 
L 3047 4666 
L 3047 1625 
L 3713 1625 
L 3713 1100 
L 3047 1100 
L 3047 0 
L 2419 0 
L 2419 1100 
L 313 1100 
L 313 1709 
L 2253 4666 
z
" id="DejaVuSans-34" transform="scale(0.015625)"/>
       </defs>
       <use xlink:href="#DejaVuSans-30"/>
       <use x="63.623047" xlink:href="#DejaVuSans-2e"/>
       <use x="95.410156" xlink:href="#DejaVuSans-34"/>
      </g>
     </g>
    </g>
    <g id="ytick_4">
     <g id="line2d_13">
      <g>
       <use style="stroke:#000000;stroke-width:0.8;" x="43.78125" xlink:href="#m8d34ddd70c" y="99.906523"/>
      </g>
     </g>
     <g id="text_14">
      <!-- 0.6 -->
      <g transform="translate(20.878125 103.705741)scale(0.1 -0.1)">
       <defs>
        <path d="M 2113 2584 
Q 1688 2584 1439 2293 
Q 1191 2003 1191 1497 
Q 1191 994 1439 701 
Q 1688 409 2113 409 
Q 2538 409 2786 701 
Q 3034 994 3034 1497 
Q 3034 2003 2786 2293 
Q 2538 2584 2113 2584 
z
M 3366 4563 
L 3366 3988 
Q 3128 4100 2886 4159 
Q 2644 4219 2406 4219 
Q 1781 4219 1451 3797 
Q 1122 3375 1075 2522 
Q 1259 2794 1537 2939 
Q 1816 3084 2150 3084 
Q 2853 3084 3261 2657 
Q 3669 2231 3669 1497 
Q 3669 778 3244 343 
Q 2819 -91 2113 -91 
Q 1303 -91 875 529 
Q 447 1150 447 2328 
Q 447 3434 972 4092 
Q 1497 4750 2381 4750 
Q 2619 4750 2861 4703 
Q 3103 4656 3366 4563 
z
" id="DejaVuSans-36" transform="scale(0.015625)"/>
       </defs>
       <use xlink:href="#DejaVuSans-30"/>
       <use x="63.623047" xlink:href="#DejaVuSans-2e"/>
       <use x="95.410156" xlink:href="#DejaVuSans-36"/>
      </g>
     </g>
    </g>
    <g id="ytick_5">
     <g id="line2d_14">
      <g>
       <use style="stroke:#000000;stroke-width:0.8;" x="43.78125" xlink:href="#m8d34ddd70c" y="56.888697"/>
      </g>
     </g>
     <g id="text_15">
      <!-- 0.8 -->
      <g transform="translate(20.878125 60.687915)scale(0.1 -0.1)">
       <defs>
        <path d="M 2034 2216 
Q 1584 2216 1326 1975 
Q 1069 1734 1069 1313 
Q 1069 891 1326 650 
Q 1584 409 2034 409 
Q 2484 409 2743 651 
Q 3003 894 3003 1313 
Q 3003 1734 2745 1975 
Q 2488 2216 2034 2216 
z
M 1403 2484 
Q 997 2584 770 2862 
Q 544 3141 544 3541 
Q 544 4100 942 4425 
Q 1341 4750 2034 4750 
Q 2731 4750 3128 4425 
Q 3525 4100 3525 3541 
Q 3525 3141 3298 2862 
Q 3072 2584 2669 2484 
Q 3125 2378 3379 2068 
Q 3634 1759 3634 1313 
Q 3634 634 3220 271 
Q 2806 -91 2034 -91 
Q 1263 -91 848 271 
Q 434 634 434 1313 
Q 434 1759 690 2068 
Q 947 2378 1403 2484 
z
M 1172 3481 
Q 1172 3119 1398 2916 
Q 1625 2713 2034 2713 
Q 2441 2713 2670 2916 
Q 2900 3119 2900 3481 
Q 2900 3844 2670 4047 
Q 2441 4250 2034 4250 
Q 1625 4250 1398 4047 
Q 1172 3844 1172 3481 
z
" id="DejaVuSans-38" transform="scale(0.015625)"/>
       </defs>
       <use xlink:href="#DejaVuSans-30"/>
       <use x="63.623047" xlink:href="#DejaVuSans-2e"/>
       <use x="95.410156" xlink:href="#DejaVuSans-38"/>
      </g>
     </g>
    </g>
    <g id="ytick_6">
     <g id="line2d_15">
      <g>
       <use style="stroke:#000000;stroke-width:0.8;" x="43.78125" xlink:href="#m8d34ddd70c" y="13.870871"/>
      </g>
     </g>
     <g id="text_16">
      <!-- 1.0 -->
      <g transform="translate(20.878125 17.67009)scale(0.1 -0.1)">
       <use xlink:href="#DejaVuSans-31"/>
       <use x="63.623047" xlink:href="#DejaVuSans-2e"/>
       <use x="95.410156" xlink:href="#DejaVuSans-30"/>
      </g>
     </g>
    </g>
    <g id="text_17">
     <!-- Frequency (7 day rolling average) -->
     <g transform="translate(14.798437 202.529219)rotate(-90)scale(0.1 -0.1)">
      <defs>
       <path d="M 628 4666 
L 3309 4666 
L 3309 4134 
L 1259 4134 
L 1259 2759 
L 3109 2759 
L 3109 2228 
L 1259 2228 
L 1259 0 
L 628 0 
L 628 4666 
z
" id="DejaVuSans-46" transform="scale(0.015625)"/>
       <path d="M 2631 2963 
Q 2534 3019 2420 3045 
Q 2306 3072 2169 3072 
Q 1681 3072 1420 2755 
Q 1159 2438 1159 1844 
L 1159 0 
L 581 0 
L 581 3500 
L 1159 3500 
L 1159 2956 
Q 1341 3275 1631 3429 
Q 1922 3584 2338 3584 
Q 2397 3584 2469 3576 
Q 2541 3569 2628 3553 
L 2631 2963 
z
" id="DejaVuSans-72" transform="scale(0.015625)"/>
       <path d="M 947 1747 
Q 947 1113 1208 752 
Q 1469 391 1925 391 
Q 2381 391 2643 752 
Q 2906 1113 2906 1747 
Q 2906 2381 2643 2742 
Q 2381 3103 1925 3103 
Q 1469 3103 1208 2742 
Q 947 2381 947 1747 
z
M 2906 525 
Q 2725 213 2448 61 
Q 2172 -91 1784 -91 
Q 1150 -91 751 415 
Q 353 922 353 1747 
Q 353 2572 751 3078 
Q 1150 3584 1784 3584 
Q 2172 3584 2448 3432 
Q 2725 3281 2906 2969 
L 2906 3500 
L 3481 3500 
L 3481 -1331 
L 2906 -1331 
L 2906 525 
z
" id="DejaVuSans-71" transform="scale(0.015625)"/>
       <path d="M 544 1381 
L 544 3500 
L 1119 3500 
L 1119 1403 
Q 1119 906 1312 657 
Q 1506 409 1894 409 
Q 2359 409 2629 706 
Q 2900 1003 2900 1516 
L 2900 3500 
L 3475 3500 
L 3475 0 
L 2900 0 
L 2900 538 
Q 2691 219 2414 64 
Q 2138 -91 1772 -91 
Q 1169 -91 856 284 
Q 544 659 544 1381 
z
M 1991 3584 
L 1991 3584 
z
" id="DejaVuSans-75" transform="scale(0.015625)"/>
       <path d="M 3513 2113 
L 3513 0 
L 2938 0 
L 2938 2094 
Q 2938 2591 2744 2837 
Q 2550 3084 2163 3084 
Q 1697 3084 1428 2787 
Q 1159 2491 1159 1978 
L 1159 0 
L 581 0 
L 581 3500 
L 1159 3500 
L 1159 2956 
Q 1366 3272 1645 3428 
Q 1925 3584 2291 3584 
Q 2894 3584 3203 3211 
Q 3513 2838 3513 2113 
z
" id="DejaVuSans-6e" transform="scale(0.015625)"/>
       <path d="M 3122 3366 
L 3122 2828 
Q 2878 2963 2633 3030 
Q 2388 3097 2138 3097 
Q 1578 3097 1268 2742 
Q 959 2388 959 1747 
Q 959 1106 1268 751 
Q 1578 397 2138 397 
Q 2388 397 2633 464 
Q 2878 531 3122 666 
L 3122 134 
Q 2881 22 2623 -34 
Q 2366 -91 2075 -91 
Q 1284 -91 818 406 
Q 353 903 353 1747 
Q 353 2603 823 3093 
Q 1294 3584 2113 3584 
Q 2378 3584 2631 3529 
Q 2884 3475 3122 3366 
z
" id="DejaVuSans-63" transform="scale(0.015625)"/>
       <path d="M 2059 -325 
Q 1816 -950 1584 -1140 
Q 1353 -1331 966 -1331 
L 506 -1331 
L 506 -850 
L 844 -850 
Q 1081 -850 1212 -737 
Q 1344 -625 1503 -206 
L 1606 56 
L 191 3500 
L 800 3500 
L 1894 763 
L 2988 3500 
L 3597 3500 
L 2059 -325 
z
" id="DejaVuSans-79" transform="scale(0.015625)"/>
       <path id="DejaVuSans-20" transform="scale(0.015625)"/>
       <path d="M 1984 4856 
Q 1566 4138 1362 3434 
Q 1159 2731 1159 2009 
Q 1159 1288 1364 580 
Q 1569 -128 1984 -844 
L 1484 -844 
Q 1016 -109 783 600 
Q 550 1309 550 2009 
Q 550 2706 781 3412 
Q 1013 4119 1484 4856 
L 1984 4856 
z
" id="DejaVuSans-28" transform="scale(0.015625)"/>
       <path d="M 2906 2969 
L 2906 4863 
L 3481 4863 
L 3481 0 
L 2906 0 
L 2906 525 
Q 2725 213 2448 61 
Q 2172 -91 1784 -91 
Q 1150 -91 751 415 
Q 353 922 353 1747 
Q 353 2572 751 3078 
Q 1150 3584 1784 3584 
Q 2172 3584 2448 3432 
Q 2725 3281 2906 2969 
z
M 947 1747 
Q 947 1113 1208 752 
Q 1469 391 1925 391 
Q 2381 391 2643 752 
Q 2906 1113 2906 1747 
Q 2906 2381 2643 2742 
Q 2381 3103 1925 3103 
Q 1469 3103 1208 2742 
Q 947 2381 947 1747 
z
" id="DejaVuSans-64" transform="scale(0.015625)"/>
       <path d="M 1959 3097 
Q 1497 3097 1228 2736 
Q 959 2375 959 1747 
Q 959 1119 1226 758 
Q 1494 397 1959 397 
Q 2419 397 2687 759 
Q 2956 1122 2956 1747 
Q 2956 2369 2687 2733 
Q 2419 3097 1959 3097 
z
M 1959 3584 
Q 2709 3584 3137 3096 
Q 3566 2609 3566 1747 
Q 3566 888 3137 398 
Q 2709 -91 1959 -91 
Q 1206 -91 779 398 
Q 353 888 353 1747 
Q 353 2609 779 3096 
Q 1206 3584 1959 3584 
z
" id="DejaVuSans-6f" transform="scale(0.015625)"/>
       <path d="M 603 4863 
L 1178 4863 
L 1178 0 
L 603 0 
L 603 4863 
z
" id="DejaVuSans-6c" transform="scale(0.015625)"/>
       <path d="M 603 3500 
L 1178 3500 
L 1178 0 
L 603 0 
L 603 3500 
z
M 603 4863 
L 1178 4863 
L 1178 4134 
L 603 4134 
L 603 4863 
z
" id="DejaVuSans-69" transform="scale(0.015625)"/>
       <path d="M 2906 1791 
Q 2906 2416 2648 2759 
Q 2391 3103 1925 3103 
Q 1463 3103 1205 2759 
Q 947 2416 947 1791 
Q 947 1169 1205 825 
Q 1463 481 1925 481 
Q 2391 481 2648 825 
Q 2906 1169 2906 1791 
z
M 3481 434 
Q 3481 -459 3084 -895 
Q 2688 -1331 1869 -1331 
Q 1566 -1331 1297 -1286 
Q 1028 -1241 775 -1147 
L 775 -588 
Q 1028 -725 1275 -790 
Q 1522 -856 1778 -856 
Q 2344 -856 2625 -561 
Q 2906 -266 2906 331 
L 2906 616 
Q 2728 306 2450 153 
Q 2172 0 1784 0 
Q 1141 0 747 490 
Q 353 981 353 1791 
Q 353 2603 747 3093 
Q 1141 3584 1784 3584 
Q 2172 3584 2450 3431 
Q 2728 3278 2906 2969 
L 2906 3500 
L 3481 3500 
L 3481 434 
z
" id="DejaVuSans-67" transform="scale(0.015625)"/>
       <path d="M 191 3500 
L 800 3500 
L 1894 563 
L 2988 3500 
L 3597 3500 
L 2284 0 
L 1503 0 
L 191 3500 
z
" id="DejaVuSans-76" transform="scale(0.015625)"/>
       <path d="M 513 4856 
L 1013 4856 
Q 1481 4119 1714 3412 
Q 1947 2706 1947 2009 
Q 1947 1309 1714 600 
Q 1481 -109 1013 -844 
L 513 -844 
Q 928 -128 1133 580 
Q 1338 1288 1338 2009 
Q 1338 2731 1133 3434 
Q 928 4138 513 4856 
z
" id="DejaVuSans-29" transform="scale(0.015625)"/>
      </defs>
      <use xlink:href="#DejaVuSans-46"/>
      <use x="50.269531" xlink:href="#DejaVuSans-72"/>
      <use x="89.132812" xlink:href="#DejaVuSans-65"/>
      <use x="150.65625" xlink:href="#DejaVuSans-71"/>
      <use x="214.132812" xlink:href="#DejaVuSans-75"/>
      <use x="277.511719" xlink:href="#DejaVuSans-65"/>
      <use x="339.035156" xlink:href="#DejaVuSans-6e"/>
      <use x="402.414062" xlink:href="#DejaVuSans-63"/>
      <use x="457.394531" xlink:href="#DejaVuSans-79"/>
      <use x="516.574219" xlink:href="#DejaVuSans-20"/>
      <use x="548.361328" xlink:href="#DejaVuSans-28"/>
      <use x="587.375" xlink:href="#DejaVuSans-37"/>
      <use x="650.998047" xlink:href="#DejaVuSans-20"/>
      <use x="682.785156" xlink:href="#DejaVuSans-64"/>
      <use x="746.261719" xlink:href="#DejaVuSans-61"/>
      <use x="807.541016" xlink:href="#DejaVuSans-79"/>
      <use x="866.720703" xlink:href="#DejaVuSans-20"/>
      <use x="898.507812" xlink:href="#DejaVuSans-72"/>
      <use x="937.371094" xlink:href="#DejaVuSans-6f"/>
      <use x="998.552734" xlink:href="#DejaVuSans-6c"/>
      <use x="1026.335938" xlink:href="#DejaVuSans-6c"/>
      <use x="1054.119141" xlink:href="#DejaVuSans-69"/>
      <use x="1081.902344" xlink:href="#DejaVuSans-6e"/>
      <use x="1145.28125" xlink:href="#DejaVuSans-67"/>
      <use x="1208.757812" xlink:href="#DejaVuSans-20"/>
      <use x="1240.544922" xlink:href="#DejaVuSans-61"/>
      <use x="1301.824219" xlink:href="#DejaVuSans-76"/>
      <use x="1361.003906" xlink:href="#DejaVuSans-65"/>
      <use x="1422.527344" xlink:href="#DejaVuSans-72"/>
      <use x="1463.640625" xlink:href="#DejaVuSans-61"/>
      <use x="1524.919922" xlink:href="#DejaVuSans-67"/>
      <use x="1588.396484" xlink:href="#DejaVuSans-65"/>
      <use x="1649.919922" xlink:href="#DejaVuSans-29"/>
     </g>
    </g>
   </g>
   <g id="line2d_16">
    <path clip-path="url(#p0b567c84e8)" d="M 94.508523 227.781429 
L 96.596065 228.96 
L 136.259364 228.96 
L 138.346907 226.911532 
L 146.697075 226.911532 
L 148.784617 228.96 
L 157.134785 228.96 
L 159.222327 227.76506 
L 161.30987 226.953403 
L 163.397412 226.953403 
L 165.484954 223.511977 
L 167.572496 223.511977 
L 169.660038 224.706917 
L 171.74758 224.876517 
L 173.835122 224.876517 
L 175.922664 228.317943 
L 196.798085 228.243036 
L 198.885627 227.526072 
L 200.973169 227.526072 
L 203.060711 228.243036 
L 207.235795 228.243036 
L 209.323338 228.96 
L 211.41088 228.96 
L 213.498422 228.298187 
L 215.585964 227.990917 
L 217.673506 227.990917 
L 219.761048 226.336385 
L 221.84859 226.336385 
L 223.936132 220.480346 
L 228.111216 220.382265 
L 230.198758 222.036797 
L 232.286301 221.772884 
L 234.373843 227.990961 
L 236.461385 228.396311 
L 242.724011 228.450243 
L 244.811553 228.750019 
L 246.899095 228.252703 
L 251.074179 228.293987 
L 253.161721 228.462684 
L 255.249263 228.392365 
L 257.336806 228.493203 
L 259.424348 228.132718 
L 265.686974 228.203038 
L 269.862058 228.520717 
L 271.9496 228.429384 
L 274.037142 228.200159 
L 280.299769 228.259086 
L 284.474853 228.417414 
L 288.649937 228.314396 
L 290.737479 227.517243 
L 292.825021 227.286791 
L 294.912563 226.771574 
L 297.000105 225.80351 
L 299.087647 225.639836 
L 301.175189 225.826031 
L 303.262731 225.47041 
L 305.350274 225.375081 
L 307.437816 225.153902 
L 309.525358 223.963508 
L 311.6129 221.654389 
L 313.700442 220.841028 
L 315.787984 217.971351 
L 317.875526 216.400245 
L 319.963068 215.298167 
L 322.05061 216.229196 
L 324.138152 214.050157 
L 326.225694 214.909571 
L 328.313237 215.986346 
L 330.400779 212.98667 
L 332.488321 209.774417 
L 334.575863 207.463973 
L 336.663405 206.195232 
L 338.750947 203.17189 
L 340.838489 202.712078 
L 342.926031 205.500491 
L 345.013573 204.6098 
L 347.101115 201.748834 
L 349.188657 196.471428 
L 351.276199 194.15567 
L 353.363742 189.791964 
L 355.451284 185.890476 
L 357.538826 188.469798 
L 359.626368 191.279501 
L 361.71391 191.198069 
L 363.801452 190.106259 
L 365.888994 191.617494 
L 367.976536 185.417842 
L 370.064078 182.615366 
L 372.15162 184.636492 
L 374.239162 182.541723 
L 376.326705 181.875851 
L 378.414247 182.81246 
L 380.501789 181.801337 
L 382.589331 176.394306 
L 384.676873 173.89873 
L 386.764415 174.449175 
L 388.851957 172.782851 
L 390.939499 171.925606 
L 393.027041 172.342015 
L 395.114583 171.926959 
L 397.202125 166.681271 
L 399.289668 161.86615 
L 401.37721 160.240085 
L 403.464752 155.366372 
L 405.552294 149.430531 
L 407.639836 146.853595 
L 409.727378 145.089551 
L 411.81492 140.846975 
L 413.902462 134.809959 
L 415.990004 133.227058 
L 418.077546 130.474339 
L 420.165088 129.222953 
L 422.25263 125.98996 
L 424.340173 126.856483 
L 426.427715 126.20116 
L 428.515257 123.923963 
L 430.602799 118.179597 
L 432.690341 117.622719 
L 434.777883 116.537414 
L 436.865425 114.268075 
L 438.952967 113.947278 
L 441.040509 117.649541 
L 443.128051 114.396154 
L 445.215593 109.751742 
L 447.303136 108.129653 
L 449.390678 103.033592 
L 451.47822 98.518787 
L 453.565762 95.747568 
L 455.653304 96.360633 
L 457.740846 91.089075 
L 459.828388 87.172772 
L 461.91593 84.144473 
L 464.003472 80.726909 
L 466.091014 76.776996 
L 468.178556 76.940745 
L 470.266098 75.588997 
L 474.441183 68.402322 
L 476.528725 66.219773 
L 478.616267 62.456468 
L 480.703809 61.02348 
L 482.791351 59.775687 
L 484.878893 60.615704 
L 486.966435 60.023967 
L 489.053977 58.955489 
L 491.141519 60.481702 
L 493.229061 59.435836 
L 495.316604 59.183789 
L 497.404146 58.323919 
L 499.491688 59.024709 
L 501.57923 57.151619 
L 503.666772 54.103491 
L 505.754314 52.172281 
L 507.841856 51.044017 
L 512.01694 46.253058 
L 514.104482 47.678942 
L 516.192024 47.933297 
L 518.279566 45.85765 
L 520.367109 46.828037 
L 522.454651 47.225655 
L 526.629735 46.130404 
L 528.717277 47.9795 
L 530.804819 48.183688 
L 532.892361 46.146422 
L 534.979903 45.893646 
L 537.067445 45.023571 
L 539.154987 42.273661 
L 541.242529 40.335157 
L 543.330072 41.270364 
L 545.417614 40.892334 
L 547.505156 39.639716 
L 549.592698 40.278678 
L 551.68024 40.164456 
L 553.767782 39.700282 
L 555.855324 38.656642 
L 557.942866 39.003612 
L 560.030408 37.994519 
L 562.11795 36.614929 
L 564.205492 37.865189 
L 566.293035 38.253477 
L 568.380577 38.109403 
L 572.555661 40.079014 
L 574.643203 40.805267 
L 576.730745 39.862632 
L 580.905829 40.62362 
L 582.993371 40.179687 
L 585.080913 37.347309 
L 589.255997 39.033203 
L 591.34354 36.91882 
L 593.431082 37.509365 
L 595.518624 38.673437 
L 597.606166 38.612475 
L 599.693708 37.481744 
L 601.78125 39.943467 
L 603.868792 40.241195 
L 605.956334 38.670714 
L 608.043876 39.127175 
L 610.131418 40.397462 
L 612.21896 40.559966 
L 614.306503 40.9344 
L 618.481587 43.253675 
L 620.569129 40.421015 
L 624.744213 42.126672 
L 626.831755 44.02865 
L 628.919297 44.45794 
L 631.006839 47.167502 
L 633.094381 47.239179 
L 635.181923 43.79009 
L 637.269465 43.788333 
L 639.357008 43.643908 
L 641.44455 45.495313 
L 643.532092 45.98375 
L 645.619634 49.92324 
L 647.707176 53.366971 
L 649.794718 51.289906 
L 651.88226 52.258824 
L 653.969802 53.787054 
L 656.057344 57.660223 
L 658.144886 59.685706 
L 660.232428 64.932791 
L 662.319971 71.311651 
L 664.407513 69.913784 
L 666.495055 71.705346 
L 668.582597 74.120216 
L 670.670139 79.075271 
L 672.757681 79.240789 
L 674.845223 92.410812 
L 676.932765 100.969619 
L 679.020307 100.599007 
L 681.107849 104.274098 
L 683.195391 108.229318 
L 685.282934 106.601462 
L 687.370476 104.552173 
L 689.458018 112.29504 
L 691.54556 117.116766 
L 693.633102 119.697394 
L 695.720644 123.840135 
L 697.808186 128.44597 
L 699.895728 132.183018 
L 701.98327 136.59574 
L 704.070812 145.509919 
L 706.158354 151.520476 
L 708.245896 158.275841 
L 710.333439 164.398169 
L 712.420981 169.682216 
L 714.508523 172.516873 
L 718.683607 180.778851 
L 720.771149 183.972858 
L 722.858691 186.295444 
L 727.033775 191.904683 
L 729.121317 194.417933 
L 731.208859 197.567208 
L 737.471486 208.919574 
L 741.64657 214.254128 
L 743.734112 215.789173 
L 745.821654 216.657725 
L 749.996738 219.582842 
L 756.259364 221.688345 
L 764.609533 223.975544 
L 766.697075 224.196231 
L 768.784617 224.573574 
L 770.872159 225.089933 
L 772.959701 225.123554 
L 775.047243 225.415009 
L 777.134785 225.486332 
L 779.222327 225.71584 
L 781.30987 225.763782 
L 783.397412 226.160802 
L 787.572496 226.713 
L 795.922664 227.330841 
L 798.010206 227.649547 
L 802.18529 227.719042 
L 808.447917 228.035407 
L 812.623001 228.312463 
L 816.798085 228.483138 
L 818.885627 228.364248 
L 833.498422 228.633934 
L 889.862058 228.931981 
L 904.474853 228.830631 
L 912.825021 228.892211 
L 921.175189 228.919568 
L 929.525358 228.843689 
L 933.700442 228.904651 
L 935.787984 228.687075 
L 937.875526 228.582277 
L 944.138152 228.599032 
L 948.313237 228.952379 
L 1109.053977 228.951699 
L 1109.053977 228.951699 
" style="fill:none;stroke:#947383;stroke-linecap:square;stroke-width:2;"/>
   </g>
   <g id="line2d_17">
    <path clip-path="url(#p0b567c84e8)" d="M 203.060711 228.561512 
L 205.148253 228.837267 
L 211.41088 228.837267 
L 213.498422 228.96 
L 232.286301 228.779756 
L 234.373843 228.922199 
L 253.161721 228.820527 
L 257.336806 228.768338 
L 259.424348 228.723246 
L 263.599432 228.819916 
L 269.862058 228.96 
L 280.299769 228.936872 
L 288.649937 228.96 
L 303.262731 228.799161 
L 305.350274 228.637683 
L 309.525358 228.540923 
L 313.700442 228.333323 
L 315.787984 228.461634 
L 319.963068 228.390628 
L 322.05061 228.592117 
L 324.138152 228.250524 
L 330.400779 227.697487 
L 334.575863 226.889661 
L 338.750947 226.709798 
L 340.838489 226.497952 
L 342.926031 226.676529 
L 345.013573 227.016623 
L 349.188657 226.704923 
L 351.276199 226.829001 
L 353.363742 226.657714 
L 355.451284 226.632972 
L 357.538826 226.437083 
L 361.71391 226.604957 
L 363.801452 226.369956 
L 365.888994 226.467734 
L 370.064078 226.083756 
L 372.15162 225.719705 
L 374.239162 225.838674 
L 376.326705 224.989188 
L 378.414247 224.809224 
L 380.501789 224.477211 
L 382.589331 223.617247 
L 384.676873 223.075748 
L 386.764415 223.04634 
L 388.851957 222.487795 
L 390.939499 221.700218 
L 393.027041 221.657617 
L 395.114583 220.877936 
L 397.202125 220.497128 
L 399.289668 220.473538 
L 401.37721 219.988717 
L 403.464752 219.855519 
L 405.552294 219.528838 
L 409.727378 217.543 
L 411.81492 217.547491 
L 413.902462 216.20888 
L 418.077546 215.343853 
L 420.165088 214.596312 
L 422.25263 214.016435 
L 424.340173 213.234001 
L 428.515257 210.22961 
L 430.602799 209.254848 
L 432.690341 207.201695 
L 436.865425 206.431831 
L 441.040509 205.198207 
L 443.128051 202.896348 
L 445.215593 200.816771 
L 447.303136 197.331554 
L 449.390678 195.382463 
L 451.47822 192.579562 
L 453.565762 191.164646 
L 455.653304 188.246387 
L 457.740846 186.422408 
L 459.828388 185.185895 
L 461.91593 185.00499 
L 464.003472 184.546481 
L 466.091014 184.432544 
L 468.178556 183.272976 
L 470.266098 181.032288 
L 472.353641 175.844303 
L 474.441183 172.1195 
L 476.528725 169.640364 
L 478.616267 168.021054 
L 480.703809 165.689986 
L 482.791351 165.792514 
L 484.878893 164.324701 
L 486.966435 159.898416 
L 489.053977 157.352157 
L 493.229061 151.043701 
L 495.316604 147.846738 
L 497.404146 146.75989 
L 501.57923 142.722622 
L 503.666772 140.857893 
L 505.754314 138.035061 
L 507.841856 135.488496 
L 509.929398 133.921912 
L 512.01694 133.158323 
L 514.104482 131.582909 
L 516.192024 129.753984 
L 518.279566 129.930724 
L 522.454651 124.069707 
L 524.542193 121.362997 
L 526.629735 122.31977 
L 528.717277 120.606668 
L 530.804819 119.624102 
L 532.892361 118.441006 
L 534.979903 116.965826 
L 537.067445 114.834952 
L 539.154987 112.291207 
L 541.242529 110.992895 
L 543.330072 110.019714 
L 545.417614 109.575822 
L 547.505156 108.465761 
L 549.592698 108.007642 
L 551.68024 108.013692 
L 553.767782 106.939013 
L 555.855324 106.435337 
L 557.942866 107.393912 
L 560.030408 107.061608 
L 564.205492 105.006339 
L 566.293035 104.431376 
L 568.380577 102.547486 
L 570.468119 101.98854 
L 572.555661 101.696646 
L 574.643203 100.634509 
L 576.730745 100.300256 
L 578.818287 99.748066 
L 580.905829 98.884546 
L 582.993371 98.637583 
L 585.080913 99.678952 
L 587.168455 99.860371 
L 589.255997 98.90613 
L 591.34354 98.780786 
L 593.431082 98.067913 
L 595.518624 98.099721 
L 597.606166 97.478647 
L 599.693708 97.616682 
L 603.868792 97.212619 
L 605.956334 97.022196 
L 608.043876 96.424159 
L 610.131418 97.235921 
L 612.21896 97.869708 
L 614.306503 98.706493 
L 616.394045 99.694999 
L 618.481587 101.009348 
L 622.656671 102.39166 
L 624.744213 102.306325 
L 626.831755 102.56106 
L 628.919297 104.67624 
L 631.006839 105.859933 
L 633.094381 107.375699 
L 635.181923 108.472346 
L 639.357008 107.366205 
L 641.44455 108.327879 
L 645.619634 111.372933 
L 647.707176 115.661522 
L 649.794718 119.15655 
L 653.969802 123.068801 
L 656.057344 126.517551 
L 658.144886 128.265058 
L 660.232428 128.789213 
L 664.407513 131.549366 
L 668.582597 135.095969 
L 670.670139 135.75139 
L 674.845223 138.619401 
L 679.020307 142.787199 
L 681.107849 145.750305 
L 683.195391 149.062608 
L 685.282934 152.109122 
L 687.370476 152.907675 
L 689.458018 156.097942 
L 691.54556 160.036716 
L 693.633102 163.371961 
L 695.720644 165.804836 
L 697.808186 168.918511 
L 699.895728 172.45784 
L 701.98327 176.234698 
L 704.070812 179.640437 
L 706.158354 183.384978 
L 708.245896 188.223979 
L 710.333439 190.957561 
L 712.420981 193.888511 
L 714.508523 196.474034 
L 716.596065 198.733023 
L 718.683607 201.811507 
L 722.858691 204.086155 
L 724.946233 206.551497 
L 727.033775 209.201374 
L 729.121317 210.283902 
L 733.296402 214.378066 
L 737.471486 215.913137 
L 739.559028 217.014595 
L 741.64657 218.331452 
L 743.734112 219.096686 
L 745.821654 220.005946 
L 747.909196 221.336884 
L 749.996738 222.080141 
L 754.171822 223.070201 
L 756.259364 223.708451 
L 760.434449 224.328267 
L 764.609533 225.329825 
L 766.697075 225.523622 
L 768.784617 225.890228 
L 770.872159 226.140047 
L 775.047243 226.269248 
L 777.134785 226.543824 
L 789.660038 227.492782 
L 793.835122 227.649004 
L 802.18529 228.039228 
L 829.323338 228.655137 
L 833.498422 228.715323 
L 839.761048 228.692466 
L 856.461385 228.726911 
L 862.724011 228.80171 
L 873.161721 228.889186 
L 877.336806 228.803093 
L 887.774516 228.917219 
L 908.649937 228.951482 
L 960.838489 228.951281 
L 1069.390678 228.950988 
L 1069.390678 228.950988 
" style="fill:none;stroke:#96c6ad;stroke-linecap:square;stroke-width:2;"/>
   </g>
   <g id="line2d_18">
    <path clip-path="url(#p0b567c84e8)" d="M 129.996738 228.74403 
L 134.171822 228.881786 
L 142.521991 228.797669 
L 150.872159 228.768602 
L 152.959701 228.930934 
L 159.222327 228.911116 
L 163.397412 228.911116 
L 165.484954 228.717922 
L 173.835122 228.690623 
L 175.922664 228.883817 
L 184.272832 228.96 
L 186.360375 228.694809 
L 188.447917 228.547631 
L 192.623001 227.999064 
L 194.710543 227.889044 
L 200.973169 228.566149 
L 203.060711 228.051814 
L 207.235795 227.587635 
L 211.41088 225.779934 
L 213.498422 226.205547 
L 215.585964 226.372901 
L 217.673506 224.365408 
L 219.761048 224.122622 
L 221.84859 224.986577 
L 223.936132 222.988202 
L 226.023674 221.698792 
L 228.111216 223.183617 
L 230.198758 223.061617 
L 232.286301 219.620022 
L 234.373843 217.693481 
L 236.461385 216.494444 
L 238.548927 213.330408 
L 240.636469 212.857055 
L 242.724011 211.787086 
L 244.811553 213.717595 
L 246.899095 210.400855 
L 248.986637 212.629501 
L 251.074179 208.093261 
L 253.161721 204.191241 
L 255.249263 204.488843 
L 257.336806 207.097982 
L 259.424348 206.91642 
L 261.51189 206.305326 
L 263.599432 209.211618 
L 265.686974 201.891169 
L 267.774516 197.594422 
L 269.862058 195.19311 
L 271.9496 198.071732 
L 274.037142 197.688934 
L 276.124684 202.719061 
L 278.212226 197.454719 
L 280.299769 193.236919 
L 282.387311 193.349295 
L 284.474853 187.408615 
L 286.562395 179.509861 
L 288.649937 182.074088 
L 290.737479 172.073864 
L 292.825021 164.52395 
L 294.912563 162.986793 
L 297.000105 156.62998 
L 299.087647 150.802602 
L 301.175189 150.095376 
L 305.350274 132.585949 
L 307.437816 127.513788 
L 309.525358 124.723531 
L 311.6129 126.299423 
L 313.700442 127.068018 
L 315.787984 129.733571 
L 317.875526 130.282633 
L 319.963068 126.52067 
L 324.138152 109.073382 
L 326.225694 104.23916 
L 328.313237 100.993941 
L 330.400779 94.334699 
L 332.488321 91.139108 
L 334.575863 88.953744 
L 338.750947 72.270197 
L 340.838489 70.009739 
L 342.926031 68.824377 
L 345.013573 68.558737 
L 347.101115 71.757846 
L 349.188657 71.931669 
L 355.451284 61.977453 
L 357.538826 57.229174 
L 359.626368 57.519313 
L 361.71391 58.707172 
L 363.801452 58.055002 
L 365.888994 56.484596 
L 367.976536 55.085483 
L 370.064078 53.514171 
L 372.15162 50.745227 
L 374.239162 48.594369 
L 376.326705 47.798394 
L 378.414247 46.415088 
L 380.501789 43.97211 
L 382.589331 42.791597 
L 384.676873 41.383411 
L 386.764415 38.946236 
L 388.851957 36.919029 
L 390.939499 35.366893 
L 393.027041 32.951212 
L 395.114583 31.118163 
L 397.202125 29.852271 
L 399.289668 29.399753 
L 401.37721 29.368017 
L 403.464752 30.330512 
L 405.552294 31.49361 
L 407.639836 30.544051 
L 409.727378 29.361513 
L 411.81492 28.522857 
L 413.902462 27.319992 
L 415.990004 25.706387 
L 418.077546 25.48728 
L 420.165088 25.914396 
L 422.25263 25.136966 
L 424.340173 24.115045 
L 428.515257 23.573678 
L 430.602799 22.495229 
L 432.690341 22.342731 
L 434.777883 22.451532 
L 438.952967 21.579446 
L 441.040509 21.531222 
L 445.215593 20.949079 
L 447.303136 21.040082 
L 449.390678 20.795161 
L 451.47822 20.231976 
L 455.653304 20.278194 
L 457.740846 19.916013 
L 459.828388 19.941432 
L 461.91593 20.130976 
L 470.266098 20.05442 
L 472.353641 20.508464 
L 474.441183 20.321229 
L 476.528725 19.812369 
L 478.616267 19.734475 
L 482.791351 19.033015 
L 484.878893 18.66827 
L 489.053977 18.659513 
L 491.141519 18.266825 
L 493.229061 18.20822 
L 497.404146 18.230874 
L 501.57923 18.261912 
L 503.666772 18.034996 
L 509.929398 17.878731 
L 514.104482 17.76 
L 516.192024 17.998887 
L 520.367109 17.891666 
L 522.454651 18.245601 
L 526.629735 18.619537 
L 528.717277 19.275887 
L 530.804819 19.774164 
L 532.892361 19.771702 
L 537.067445 21.744194 
L 539.154987 21.670539 
L 541.242529 21.775864 
L 543.330072 22.854927 
L 545.417614 22.388622 
L 547.505156 22.074552 
L 549.592698 22.541136 
L 551.68024 23.745561 
L 553.767782 25.385826 
L 555.855324 27.338706 
L 557.942866 29.48339 
L 560.030408 30.793654 
L 562.11795 31.956008 
L 564.205492 32.83937 
L 566.293035 32.911603 
L 568.380577 32.515611 
L 570.468119 33.972238 
L 572.555661 37.019001 
L 574.643203 39.348899 
L 576.730745 40.685594 
L 578.818287 42.733615 
L 580.905829 44.530852 
L 582.993371 43.87212 
L 585.080913 44.611729 
L 587.168455 49.222345 
L 589.255997 55.310906 
L 593.431082 60.393278 
L 595.518624 63.984346 
L 597.606166 65.867781 
L 599.693708 68.539437 
L 601.78125 74.878509 
L 603.868792 83.581469 
L 605.956334 90.344515 
L 608.043876 96.400232 
L 610.131418 101.24703 
L 612.21896 101.815229 
L 614.306503 104.445359 
L 618.481587 114.372618 
L 620.569129 120.943602 
L 622.656671 133.601804 
L 624.744213 140.826903 
L 626.831755 145.990111 
L 628.919297 152.905733 
L 631.006839 157.493673 
L 633.094381 160.637852 
L 635.181923 165.959268 
L 637.269465 172.075345 
L 639.357008 175.465777 
L 641.44455 176.823256 
L 643.532092 179.129253 
L 645.619634 183.405424 
L 647.707176 186.125094 
L 649.794718 190.58748 
L 651.88226 196.127395 
L 653.969802 200.124408 
L 656.057344 201.728576 
L 660.232428 204.450962 
L 662.319971 206.769085 
L 664.407513 208.500204 
L 666.495055 210.670958 
L 668.582597 212.000564 
L 670.670139 213.787043 
L 672.757681 214.206339 
L 674.845223 214.821356 
L 676.932765 216.02247 
L 679.020307 218.220066 
L 685.282934 223.304601 
L 687.370476 223.561012 
L 691.54556 224.477266 
L 693.633102 225.10592 
L 695.720644 225.474532 
L 697.808186 225.982999 
L 699.895728 226.232864 
L 704.070812 226.360118 
L 710.333439 226.788794 
L 712.420981 227.080865 
L 718.683607 227.549946 
L 720.771149 227.425622 
L 724.946233 227.672672 
L 727.033775 227.58402 
L 733.296402 227.890215 
L 741.64657 228.513137 
L 749.996738 228.709583 
L 764.609533 228.515095 
L 766.697075 228.626755 
L 768.784617 228.367188 
L 770.872159 227.923267 
L 772.959701 227.859774 
L 779.222327 228.202871 
L 781.30987 228.736319 
L 787.572496 228.822148 
L 873.161721 228.91452 
L 898.212226 228.932448 
L 925.350274 228.920223 
L 946.225694 228.947416 
L 1015.114583 228.95131 
L 1015.114583 228.95131 
" style="fill:none;stroke:#525886;stroke-linecap:square;stroke-width:2;"/>
   </g>
   <g id="line2d_19">
    <path clip-path="url(#p0b567c84e8)" d="M 152.959701 185.942174 
L 163.397412 185.942174 
L 165.484954 228.96 
L 196.798085 228.96 
L 198.885627 228.116513 
L 207.235795 228.116513 
L 209.323338 228.96 
L 234.373843 228.96 
L 236.461385 223.899079 
L 238.548927 223.899079 
L 240.636469 222.10667 
L 244.811553 222.10667 
L 246.899095 227.167591 
L 248.986637 224.299736 
L 251.074179 226.092145 
L 255.249263 226.092145 
L 257.336806 225.468698 
L 259.424348 228.336553 
L 261.51189 228.336553 
L 263.599432 226.827156 
L 265.686974 226.13332 
L 267.774516 226.756767 
L 269.862058 226.756767 
L 271.9496 226.592577 
L 274.037142 228.101974 
L 276.124684 228.79581 
L 278.212226 228.616569 
L 280.299769 228.616569 
L 282.387311 228.780759 
L 284.474853 228.618428 
L 286.562395 228.029142 
L 288.649937 228.208383 
L 290.737479 228.070062 
L 299.087647 228.035749 
L 301.175189 227.938356 
L 305.350274 227.344948 
L 307.437816 227.562381 
L 309.525358 226.867323 
L 311.6129 225.373677 
L 313.700442 224.666901 
L 317.875526 222.903878 
L 319.963068 217.860529 
L 322.05061 217.351043 
L 324.138152 214.838726 
L 326.225694 212.81478 
L 328.313237 210.972598 
L 330.400779 214.749622 
L 332.488321 215.837139 
L 334.575863 216.616525 
L 336.663405 216.632602 
L 338.750947 213.399864 
L 340.838489 205.299537 
L 342.926031 199.030152 
L 345.013573 196.12134 
L 347.101115 197.129453 
L 349.188657 197.778041 
L 351.276199 205.531732 
L 353.363742 211.57114 
L 355.451284 214.111281 
L 357.538826 209.14493 
L 359.626368 210.509878 
L 361.71391 210.338842 
L 363.801452 207.781353 
L 365.888994 207.806948 
L 367.976536 211.264365 
L 370.064078 209.612418 
L 372.15162 208.616231 
L 374.239162 206.172165 
L 376.326705 203.005855 
L 378.414247 197.578625 
L 380.501789 198.594893 
L 382.589331 199.121762 
L 384.676873 201.0236 
L 386.764415 203.366049 
L 388.851957 198.078552 
L 390.939499 191.070325 
L 393.027041 180.83092 
L 395.114583 175.07388 
L 397.202125 173.665747 
L 399.289668 169.298339 
L 401.37721 171.623997 
L 403.464752 165.290858 
L 405.552294 168.534931 
L 407.639836 166.984105 
L 409.727378 180.792741 
L 411.81492 180.976953 
L 413.902462 177.111466 
L 415.990004 175.363866 
L 418.077546 172.970461 
L 420.165088 168.43796 
L 422.25263 167.036323 
L 424.340173 180.714409 
L 426.427715 182.932805 
L 428.515257 177.825666 
L 430.602799 179.71942 
L 432.690341 179.952571 
L 434.777883 183.393417 
L 436.865425 181.117511 
L 438.952967 188.811756 
L 441.040509 183.486065 
L 443.128051 175.762177 
L 445.215593 166.852784 
L 447.303136 158.591684 
L 449.390678 153.882829 
L 451.47822 155.160325 
L 453.565762 169.454425 
L 455.653304 170.319126 
L 457.740846 158.958561 
L 459.828388 156.316215 
L 461.91593 147.867825 
L 464.003472 137.04676 
L 466.091014 138.776918 
L 468.178556 155.539921 
L 470.266098 157.511892 
L 472.353641 158.658958 
L 474.441183 165.096759 
L 476.528725 168.358143 
L 478.616267 168.948212 
L 480.703809 171.609384 
L 482.791351 178.006695 
L 484.878893 177.514069 
L 486.966435 165.954579 
L 489.053977 164.817214 
L 491.141519 156.656414 
L 493.229061 154.535828 
L 495.316604 150.227352 
L 497.404146 157.819125 
L 499.491688 156.266229 
L 501.57923 150.805865 
L 503.666772 152.959329 
L 505.754314 153.532097 
L 507.841856 150.881841 
L 509.929398 148.481879 
L 512.01694 155.381755 
L 514.104482 147.885579 
L 516.192024 143.557699 
L 518.279566 144.682092 
L 520.367109 150.64691 
L 522.454651 154.229833 
L 524.542193 155.924659 
L 526.629735 153.605949 
L 528.717277 152.887446 
L 530.804819 133.995035 
L 532.892361 130.403244 
L 534.979903 135.166923 
L 537.067445 137.862211 
L 539.154987 136.884578 
L 541.242529 151.705807 
L 543.330072 154.888887 
L 547.505156 151.942507 
L 549.592698 150.879723 
L 551.68024 149.271114 
L 555.855324 141.114116 
L 557.942866 142.114354 
L 560.030408 142.53463 
L 562.11795 136.913763 
L 564.205492 131.82399 
L 566.293035 129.41165 
L 570.468119 117.018013 
L 572.555661 115.617666 
L 574.643203 113.377264 
L 576.730745 109.896495 
L 578.818287 107.838239 
L 580.905829 107.412999 
L 582.993371 114.987673 
L 585.080913 115.833723 
L 587.168455 116.390173 
L 589.255997 121.610583 
L 591.34354 122.879444 
L 593.431082 117.427732 
L 595.518624 124.309907 
L 597.606166 123.03945 
L 599.693708 118.655037 
L 601.78125 117.194186 
L 603.868792 115.309999 
L 605.956334 105.868476 
L 608.043876 107.780473 
L 610.131418 106.655788 
L 612.21896 103.947402 
L 614.306503 100.698854 
L 616.394045 103.052014 
L 618.481587 106.354632 
L 620.569129 105.995605 
L 622.656671 110.124426 
L 624.744213 115.470809 
L 626.831755 117.350357 
L 628.919297 114.434368 
L 631.006839 118.812311 
L 633.094381 124.321314 
L 635.181923 121.994545 
L 637.269465 125.586482 
L 639.357008 127.42086 
L 641.44455 127.403539 
L 643.532092 122.558504 
L 645.619634 127.06555 
L 647.707176 130.096912 
L 649.794718 133.525553 
L 651.88226 137.428563 
L 653.969802 139.508193 
L 656.057344 142.625706 
L 658.144886 135.712673 
L 660.232428 138.46003 
L 662.319971 141.792164 
L 664.407513 137.682015 
L 666.495055 134.331168 
L 668.582597 135.744655 
L 670.670139 127.994309 
L 672.757681 121.918734 
L 674.845223 130.41936 
L 676.932765 139.470392 
L 679.020307 139.522495 
L 681.107849 147.32345 
L 683.195391 156.665782 
L 685.282934 156.362936 
L 687.370476 149.665186 
L 691.54556 158.821953 
L 693.633102 154.681616 
L 695.720644 156.077827 
L 697.808186 158.397566 
L 699.895728 158.040679 
L 701.98327 154.779812 
L 704.070812 154.23234 
L 706.158354 162.646049 
L 708.245896 165.045992 
L 710.333439 168.727468 
L 712.420981 175.325744 
L 714.508523 178.774689 
L 716.596065 172.288114 
L 718.683607 170.063845 
L 720.771149 177.175367 
L 722.858691 169.734692 
L 724.946233 166.940741 
L 727.033775 173.072134 
L 729.121317 176.223694 
L 731.208859 171.624737 
L 733.296402 173.507196 
L 735.383944 177.260992 
L 737.471486 170.292814 
L 739.559028 165.767207 
L 741.64657 163.903769 
L 743.734112 168.67688 
L 745.821654 168.241629 
L 747.909196 170.217879 
L 749.996738 179.399336 
L 752.08428 179.733264 
L 754.171822 177.68395 
L 756.259364 179.665154 
L 758.346907 185.871625 
L 760.434449 185.326973 
L 762.521991 189.153019 
L 764.609533 195.064172 
L 766.697075 198.553167 
L 768.784617 195.899165 
L 770.872159 197.048514 
L 772.959701 198.880284 
L 775.047243 197.606679 
L 777.134785 198.160208 
L 779.222327 202.773159 
L 781.30987 204.414747 
L 783.397412 206.829985 
L 785.484954 210.306416 
L 787.572496 214.916756 
L 789.660038 216.232425 
L 791.74758 218.859425 
L 793.835122 210.581424 
L 795.922664 210.417911 
L 798.010206 208.994713 
L 800.097748 208.327211 
L 802.18529 206.669239 
L 804.272832 214.20736 
L 806.360375 215.848904 
L 808.447917 217.956534 
L 810.535459 219.366493 
L 812.623001 221.361981 
L 814.710543 225.435768 
L 816.798085 225.957355 
L 818.885627 225.854274 
L 820.973169 226.057435 
L 823.060711 225.921091 
L 827.235795 224.830782 
L 829.323338 224.924102 
L 831.41088 225.137932 
L 833.498422 225.221801 
L 835.585964 225.623836 
L 839.761048 225.895864 
L 841.84859 226.106613 
L 843.936132 226.472701 
L 846.023674 226.608054 
L 848.111216 226.949676 
L 854.373843 227.418821 
L 862.724011 227.596638 
L 864.811553 227.466104 
L 868.986637 227.637043 
L 873.161721 227.360429 
L 887.774516 227.905424 
L 889.862058 227.576196 
L 894.037142 227.705722 
L 898.212226 227.592072 
L 902.387311 228.101398 
L 904.474853 228.395035 
L 906.562395 228.389897 
L 908.649937 228.498419 
L 912.825021 228.364611 
L 914.912563 227.970984 
L 917.000105 228.127768 
L 919.087647 227.981635 
L 921.175189 227.989606 
L 923.262731 227.877849 
L 937.875526 228.2173 
L 939.963068 227.963791 
L 948.313237 228.501315 
L 950.400779 228.722525 
L 958.750947 228.707164 
L 962.926031 228.836108 
L 965.013573 228.903323 
L 969.188657 228.808778 
L 971.276199 228.751726 
L 981.71391 228.96 
L 985.888994 228.870751 
L 1027.639836 228.850956 
L 1029.727378 228.632591 
L 1038.077546 228.451537 
L 1040.165088 228.669902 
L 1042.25263 228.706954 
L 1044.340173 228.96 
L 1050.602799 228.907603 
L 1100.703809 228.878061 
L 1100.703809 228.878061 
" style="fill:none;stroke:#937252;stroke-linecap:square;stroke-width:2;"/>
   </g>
   <g id="line2d_20">
    <path clip-path="url(#p0b567c84e8)" d="M 278.212226 220.356435 
L 280.299769 228.96 
L 286.562395 228.96 
L 288.649937 207.451087 
L 290.737479 207.451087 
L 292.825021 185.942174 
L 297.000105 185.942174 
L 299.087647 207.451087 
L 301.175189 207.451087 
L 303.262731 226.911532 
L 307.437816 226.911532 
L 309.525358 218.307967 
L 311.6129 212.930739 
L 313.700442 214.979207 
L 315.787984 214.979207 
L 317.875526 197.772076 
L 319.963068 206.375641 
L 322.05061 207.451087 
L 324.138152 197.523897 
L 326.225694 193.222114 
L 328.313237 206.518533 
L 330.400779 206.518533 
L 332.488321 208.131701 
L 334.575863 215.528432 
L 336.663405 206.479854 
L 338.750947 198.919146 
L 340.838489 198.919146 
L 342.926031 201.60776 
L 345.013573 193.383764 
L 347.101115 193.149547 
L 349.188657 193.866511 
L 351.276199 175.753742 
L 353.363742 161.414466 
L 355.451284 166.023519 
L 357.538826 163.476411 
L 359.626368 168.853639 
L 361.71391 170.834723 
L 363.801452 166.054965 
L 365.888994 162.078527 
L 367.976536 142.362024 
L 370.064078 139.135687 
L 372.15162 137.343278 
L 374.239162 145.707855 
L 376.326705 121.415435 
L 378.414247 132.682009 
L 380.501789 121.431193 
L 382.589331 102.482865 
L 384.676873 96.030191 
L 386.764415 108.935539 
L 388.851957 124.913588 
L 390.939499 116.089419 
L 393.027041 140.671034 
L 395.114583 114.860338 
L 397.202125 104.105882 
L 399.289668 98.370172 
L 401.37721 105.539809 
L 403.464752 96.321704 
L 405.552294 111.964549 
L 407.639836 144.227919 
L 409.727378 141.360064 
L 411.81492 162.868977 
L 413.902462 170.038614 
L 415.990004 162.217191 
L 418.077546 119.199366 
L 420.165088 136.406496 
L 422.25263 95.919131 
L 424.340173 83.372265 
L 426.427715 75.550842 
L 428.515257 97.059755 
L 430.602799 54.041929 
L 432.690341 73.020381 
L 434.777883 78.39761 
L 436.865425 78.39761 
L 438.952967 71.227972 
L 441.040509 99.906523 
L 443.128051 92.736885 
L 447.303136 121.415435 
L 449.390678 137.803179 
L 451.47822 130.633541 
L 453.565762 116.294266 
L 455.653304 92.736885 
L 457.740846 109.124628 
L 459.828388 95.60474 
L 461.91593 95.60474 
L 464.003472 115.848423 
L 466.091014 115.848423 
L 468.178556 85.121404 
L 470.266098 98.641292 
L 472.353641 94.33951 
L 474.441183 93.649384 
L 476.528725 110.791826 
L 478.616267 110.791826 
L 480.703809 101.573721 
L 482.791351 104.441576 
L 484.878893 97.54032 
L 486.966435 80.397878 
L 489.053977 103.862147 
L 491.141519 114.616603 
L 493.229061 128.955879 
L 495.316604 136.157958 
L 497.404146 152.545701 
L 499.491688 155.967574 
L 503.666772 113.280654 
L 505.754314 114.935186 
L 507.841856 109.720904 
L 509.929398 100.041893 
L 512.01694 121.550806 
L 514.104482 128.888295 
L 516.192024 118.133838 
L 518.279566 109.008845 
L 520.367109 115.700507 
L 522.454651 97.776413 
L 524.542193 93.334355 
L 526.629735 96.919174 
L 528.717277 99.125216 
L 530.804819 107.489793 
L 532.892361 109.695835 
L 534.979903 109.695835 
L 537.067445 122.242701 
L 539.154987 132.583525 
L 541.242529 121.829068 
L 543.330072 123.207845 
L 545.417614 121.415435 
L 547.505156 110.17214 
L 549.592698 102.839556 
L 551.68024 89.934208 
L 553.767782 102.375638 
L 555.855324 104.168048 
L 557.942866 106.725051 
L 560.030408 122.123478 
L 562.11795 144.805604 
L 564.205492 140.045929 
L 566.293035 156.177613 
L 568.380577 162.559379 
L 570.468119 147.682381 
L 572.555661 135.216988 
L 574.643203 138.801807 
L 576.730745 129.701882 
L 578.818287 134.450603 
L 580.905829 151.24804 
L 582.993371 157.521473 
L 585.080913 143.973651 
L 587.168455 153.900842 
L 589.255997 143.006717 
L 591.34354 130.715909 
L 593.431082 128.396321 
L 595.518624 137.847207 
L 597.606166 136.302977 
L 599.693708 150.130135 
L 601.78125 161.396709 
L 603.868792 181.640392 
L 605.956334 188.093065 
L 608.043876 166.106177 
L 610.131418 176.860633 
L 612.21896 148.833868 
L 614.306503 127.324955 
L 616.394045 138.796375 
L 618.481587 172.254684 
L 620.569129 172.254684 
L 622.656671 181.640392 
L 624.744213 195.979667 
L 626.831755 188.810029 
L 628.919297 178.055573 
L 631.006839 174.144861 
L 633.094381 192.134134 
L 637.269465 206.473409 
L 639.357008 205.756445 
L 641.44455 209.667157 
L 643.532092 210.870453 
L 645.619634 196.531177 
L 647.707176 196.531177 
L 649.794718 203.222839 
L 651.88226 177.412144 
L 653.969802 172.298137 
L 656.057344 172.298137 
L 658.144886 165.505848 
L 660.232428 155.946331 
L 662.319971 176.977268 
L 664.407513 183.547264 
L 666.495055 189.282974 
L 668.582597 191.978326 
L 670.670139 195.563145 
L 672.757681 195.379308 
L 674.845223 197.468745 
L 676.932765 199.926907 
L 679.020307 198.646615 
L 681.107849 204.023843 
L 683.195391 207.840296 
L 685.282934 210.912998 
L 687.370476 216.396589 
L 689.458018 220.749583 
L 691.54556 220.391101 
L 693.633102 213.856489 
L 695.720644 211.326028 
L 697.808186 206.37682 
L 699.895728 204.434308 
L 701.98327 208.546704 
L 704.070812 212.2268 
L 706.158354 213.594616 
L 708.245896 216.941541 
L 710.333439 217.219673 
L 712.420981 218.842988 
L 714.508523 219.928183 
L 716.596065 216.174504 
L 718.683607 213.910408 
L 720.771149 211.107385 
L 722.858691 210.629409 
L 724.946233 211.6197 
L 727.033775 214.310963 
L 729.121317 218.839156 
L 731.208859 223.806185 
L 733.296402 222.16853 
L 735.383944 223.73622 
L 737.471486 222.652216 
L 739.559028 221.816919 
L 741.64657 222.341526 
L 743.734112 224.457157 
L 745.821654 224.815639 
L 747.909196 228.124702 
L 749.996738 228.96 
L 752.08428 228.561687 
L 760.434449 228.561687 
L 762.521991 228.675114 
L 764.609533 228.675114 
L 766.697075 227.837104 
L 770.872159 227.837104 
L 772.959701 228.12199 
L 775.047243 228.12199 
L 777.134785 228.728721 
L 783.397412 228.728721 
L 785.484954 227.396311 
L 787.572496 227.627589 
L 793.835122 227.627589 
L 795.922664 228.96 
L 798.010206 228.96 
L 800.097748 228.72493 
L 802.18529 228.72493 
L 804.272832 228.50876 
L 812.623001 228.583912 
L 814.710543 228.800082 
L 816.798085 228.470444 
L 816.798085 228.470444 
" style="fill:none;stroke:#d18cad;stroke-linecap:square;stroke-width:2;"/>
   </g>
   <g id="line2d_21">
    <path clip-path="url(#p0b567c84e8)" d="M 134.171822 220.356435 
L 136.259364 228.96 
L 257.336806 228.96 
L 259.424348 218.205544 
L 267.774516 218.205544 
L 269.862058 228.96 
L 271.9496 222.814596 
L 280.299769 222.814596 
L 282.387311 228.96 
L 288.649937 228.96 
L 290.737479 220.356435 
L 292.825021 216.445723 
L 299.087647 216.445723 
L 301.175189 225.049289 
L 303.262731 228.96 
L 309.525358 228.96 
L 311.6129 224.658217 
L 313.700442 222.559787 
L 315.787984 222.559787 
L 317.875526 220.029327 
L 319.963068 220.029327 
L 322.05061 224.331109 
L 324.138152 226.42954 
L 326.225694 222.844721 
L 328.313237 217.18131 
L 330.400779 210.389021 
L 332.488321 208.433666 
L 334.575863 208.433666 
L 336.663405 197.679209 
L 338.750947 197.807238 
L 342.926031 187.65311 
L 345.013573 186.169737 
L 347.101115 193.339375 
L 349.188657 187.218487 
L 351.276199 187.052074 
L 353.363742 186.400289 
L 355.451284 181.123718 
L 357.538826 182.415143 
L 359.626368 191.696332 
L 361.71391 196.802591 
L 363.801452 201.582349 
L 365.888994 197.189524 
L 367.976536 194.011352 
L 370.064078 194.615111 
L 372.15162 195.642123 
L 374.239162 196.906192 
L 376.326705 206.95594 
L 378.414247 215.610289 
L 380.501789 217.613409 
L 382.589331 221.074158 
L 386.764415 219.341622 
L 388.851957 215.093082 
L 390.939499 214.823516 
L 393.027041 207.836192 
L 395.114583 205.382412 
L 397.202125 204.657134 
L 399.289668 199.665784 
L 401.37721 197.08658 
L 403.464752 197.699395 
L 405.552294 196.747071 
L 407.639836 189.094749 
L 409.727378 189.761733 
L 411.81492 193.521493 
L 413.902462 195.747855 
L 415.990004 195.231608 
L 418.077546 191.275946 
L 420.165088 193.179464 
L 424.340173 185.63142 
L 426.427715 191.183234 
L 428.515257 201.698703 
L 430.602799 194.840544 
L 432.690341 197.756369 
L 434.777883 201.750234 
L 436.865425 195.935624 
L 438.952967 187.397987 
L 441.040509 197.953621 
L 443.128051 194.371686 
L 445.215593 189.289736 
L 447.303136 189.824886 
L 449.390678 193.224283 
L 451.47822 186.671039 
L 453.565762 172.983549 
L 455.653304 166.01008 
L 457.740846 147.952795 
L 459.828388 144.262541 
L 461.91593 140.279775 
L 464.003472 144.73133 
L 466.091014 149.79337 
L 468.178556 158.521625 
L 470.266098 160.931587 
L 472.353641 167.802262 
L 474.441183 169.539503 
L 476.528725 166.09389 
L 478.616267 169.850157 
L 480.703809 170.939768 
L 482.791351 161.079188 
L 484.878893 162.711815 
L 486.966435 166.856328 
L 489.053977 165.780883 
L 491.141519 166.195616 
L 493.229061 166.793984 
L 495.316604 160.745417 
L 497.404146 153.042422 
L 499.491688 153.814537 
L 501.57923 144.116322 
L 503.666772 150.490623 
L 505.754314 157.426495 
L 507.841856 164.894953 
L 509.929398 162.972857 
L 512.01694 173.634762 
L 514.104482 178.829992 
L 516.192024 175.628185 
L 518.279566 182.278662 
L 520.367109 191.587197 
L 522.454651 187.531601 
L 524.542193 175.226799 
L 526.629735 176.982628 
L 528.717277 168.716458 
L 530.804819 163.176381 
L 532.892361 162.353982 
L 534.979903 165.60298 
L 537.067445 167.389434 
L 539.154987 175.662093 
L 541.242529 175.981419 
L 543.330072 185.048902 
L 545.417614 182.361755 
L 547.505156 182.227291 
L 549.592698 183.056954 
L 551.68024 184.08573 
L 553.767782 172.981535 
L 555.855324 178.701991 
L 557.942866 184.764444 
L 560.030408 184.450709 
L 562.11795 180.548336 
L 564.205492 186.811178 
L 566.293035 190.575238 
L 568.380577 188.563286 
L 570.468119 186.843355 
L 572.555661 188.417924 
L 574.643203 195.410168 
L 576.730745 195.536018 
L 578.818287 197.574372 
L 580.905829 195.434841 
L 582.993371 202.32672 
L 585.080913 199.849936 
L 587.168455 201.71241 
L 589.255997 204.494516 
L 591.34354 209.076134 
L 593.431082 207.177396 
L 597.606166 204.285001 
L 599.693708 202.980155 
L 601.78125 203.028928 
L 603.868792 198.547904 
L 605.956334 197.629841 
L 608.043876 199.046006 
L 610.131418 197.590516 
L 612.21896 194.253703 
L 614.306503 198.635149 
L 616.394045 202.323299 
L 618.481587 207.335085 
L 620.569129 208.016154 
L 622.656671 209.129823 
L 624.744213 211.366505 
L 626.831755 209.797158 
L 628.919297 198.942193 
L 631.006839 198.487533 
L 633.094381 204.414989 
L 635.181923 204.530961 
L 637.269465 205.723553 
L 639.357008 210.499913 
L 641.44455 210.755464 
L 643.532092 205.685506 
L 645.619634 207.480804 
L 647.707176 205.936507 
L 649.794718 209.874923 
L 651.88226 211.707001 
L 653.969802 211.662789 
L 656.057344 210.078979 
L 658.144886 211.431359 
L 660.232428 211.089752 
L 662.319971 212.820558 
L 664.407513 215.179819 
L 666.495055 216.774536 
L 668.582597 218.516421 
L 670.670139 217.657029 
L 672.757681 214.065002 
L 674.845223 214.732281 
L 676.932765 213.873732 
L 679.020307 213.209229 
L 681.107849 213.819129 
L 683.195391 211.558543 
L 685.282934 212.411936 
L 687.370476 213.773702 
L 689.458018 214.461712 
L 691.54556 213.691552 
L 693.633102 219.184024 
L 695.720644 221.146788 
L 697.808186 221.976211 
L 699.895728 222.512285 
L 701.98327 225.050651 
L 704.070812 223.384764 
L 706.158354 222.899079 
L 708.245896 223.2745 
L 710.333439 222.636501 
L 712.420981 223.154574 
L 714.508523 224.421555 
L 718.683607 225.332212 
L 720.771149 226.521116 
L 722.858691 226.825546 
L 724.946233 227.488574 
L 727.033775 227.479142 
L 729.121317 226.94142 
L 731.208859 226.948554 
L 735.383944 227.324358 
L 737.471486 227.237219 
L 741.64657 227.951581 
L 743.734112 227.790466 
L 745.821654 228.134609 
L 747.909196 228.220259 
L 749.996738 227.865469 
L 752.08428 227.362337 
L 756.259364 225.588556 
L 758.346907 224.941204 
L 760.434449 225.196674 
L 762.521991 225.269629 
L 764.609533 224.222764 
L 766.697075 224.532629 
L 768.784617 225.216902 
L 770.872159 224.928064 
L 772.959701 224.764893 
L 775.047243 226.713788 
L 777.134785 226.902379 
L 779.222327 225.303586 
L 781.30987 225.831412 
L 783.397412 225.670063 
L 785.484954 225.678645 
L 787.572496 225.901963 
L 789.660038 227.42125 
L 791.74758 227.085173 
L 793.835122 225.942026 
L 795.922664 225.014557 
L 798.010206 224.882566 
L 800.097748 224.904844 
L 802.18529 224.724707 
L 804.272832 226.274229 
L 806.360375 226.982503 
L 808.447917 226.597037 
L 810.535459 227.056302 
L 816.798085 227.624516 
L 818.885627 228.08809 
L 820.973169 228.08809 
L 823.060711 228.400947 
L 827.235795 228.44518 
L 829.323338 227.866924 
L 831.41088 226.586631 
L 833.498422 226.586631 
L 835.585964 226.749577 
L 837.673506 225.853997 
L 839.761048 226.630492 
L 841.84859 227.653962 
L 843.936132 227.653962 
L 846.023674 227.248133 
L 848.111216 228.297349 
L 850.198758 228.297349 
L 852.286301 228.554171 
L 854.373843 228.554171 
L 856.461385 228.96 
L 889.862058 228.96 
L 891.9496 228.525477 
L 900.299769 228.525477 
L 902.387311 228.96 
L 904.474853 228.218313 
L 917.000105 228.25479 
L 919.087647 227.648905 
L 923.262731 227.648905 
L 925.350274 228.354115 
L 927.437816 228.354115 
L 929.525358 228.96 
L 933.700442 228.96 
L 935.787984 228.266164 
L 944.138152 228.266164 
L 946.225694 228.96 
L 950.400779 228.96 
L 952.488321 228.063795 
L 954.575863 225.533335 
L 960.838489 225.533335 
L 962.926031 226.42954 
L 965.013573 228.96 
L 1021.37721 228.96 
L 1023.464752 228.604481 
L 1031.81492 228.604481 
L 1033.902462 228.96 
L 1054.777883 228.96 
L 1056.865425 228.287846 
L 1056.865425 228.287846 
" style="fill:none;stroke:#a4a86f;stroke-linecap:square;stroke-width:2;"/>
   </g>
   <g id="line2d_22">
    <path clip-path="url(#p0b567c84e8)" d="M 322.05061 226.347461 
L 324.138152 227.594355 
L 326.225694 227.167591 
L 328.313237 227.167591 
L 330.400779 226.61608 
L 334.575863 219.543329 
L 336.663405 221.335739 
L 338.750947 220.492252 
L 340.838489 219.778532 
L 342.926031 222.200707 
L 345.013573 224.899321 
L 347.101115 221.826619 
L 349.188657 221.311648 
L 351.276199 220.260534 
L 353.363742 219.768646 
L 355.451284 220.557964 
L 357.538826 222.622436 
L 359.626368 221.039504 
L 361.71391 222.758378 
L 363.801452 222.758378 
L 365.888994 221.454808 
L 367.976536 222.463038 
L 370.064078 224.649729 
L 374.239162 225.270543 
L 376.326705 225.442066 
L 378.414247 222.819028 
L 380.501789 221.525258 
L 382.589331 220.741585 
L 384.676873 222.107231 
L 386.764415 222.51629 
L 388.851957 224.748257 
L 390.939499 225.098653 
L 393.027041 225.044847 
L 395.114583 224.577262 
L 397.202125 225.300251 
L 399.289668 224.667088 
L 401.37721 225.214951 
L 403.464752 225.926901 
L 405.552294 225.100716 
L 407.639836 223.577962 
L 409.727378 223.896985 
L 411.81492 223.944173 
L 413.902462 224.335244 
L 415.990004 223.265397 
L 418.077546 223.950142 
L 420.165088 223.267681 
L 422.25263 224.006144 
L 424.340173 222.629574 
L 426.427715 224.99319 
L 428.515257 225.003934 
L 430.602799 225.247515 
L 432.690341 222.303009 
L 434.777883 221.354292 
L 436.865425 216.390696 
L 438.952967 210.048325 
L 441.040509 209.734184 
L 443.128051 208.392672 
L 445.215593 208.505615 
L 447.303136 211.318319 
L 449.390678 217.349919 
L 451.47822 214.40271 
L 453.565762 216.742411 
L 455.653304 214.627519 
L 457.740846 212.064128 
L 459.828388 208.562989 
L 461.91593 210.715114 
L 464.003472 209.519101 
L 466.091014 211.719083 
L 468.178556 210.387616 
L 470.266098 211.398784 
L 472.353641 207.662275 
L 474.441183 206.595839 
L 476.528725 205.980347 
L 478.616267 206.925168 
L 480.703809 207.586431 
L 482.791351 212.028851 
L 484.878893 214.212295 
L 486.966435 212.400214 
L 489.053977 214.667632 
L 491.141519 213.511837 
L 493.229061 211.108624 
L 495.316604 209.134376 
L 497.404146 211.407957 
L 499.491688 208.674453 
L 501.57923 208.948755 
L 503.666772 209.097103 
L 505.754314 209.940198 
L 507.841856 209.877526 
L 509.929398 209.698476 
L 512.01694 211.321656 
L 514.104482 208.729383 
L 516.192024 210.741018 
L 518.279566 206.23887 
L 520.367109 205.937335 
L 522.454651 205.283249 
L 524.542193 209.254251 
L 526.629735 207.111192 
L 530.804819 212.575516 
L 532.892361 212.230843 
L 534.979903 210.317194 
L 537.067445 212.361508 
L 539.154987 214.651476 
L 541.242529 215.477575 
L 543.330072 211.603452 
L 545.417614 211.216139 
L 547.505156 209.613996 
L 549.592698 206.68664 
L 551.68024 206.647065 
L 553.767782 210.969662 
L 555.855324 212.252737 
L 557.942866 211.125091 
L 560.030408 212.633645 
L 562.11795 212.260943 
L 564.205492 211.399887 
L 566.293035 212.06597 
L 568.380577 214.417135 
L 570.468119 214.786224 
L 572.555661 214.215552 
L 574.643203 216.141015 
L 578.818287 217.459581 
L 582.993371 219.987387 
L 585.080913 219.506333 
L 587.168455 219.815369 
L 589.255997 219.699237 
L 591.34354 218.254544 
L 593.431082 218.626503 
L 595.518624 219.390168 
L 597.606166 217.909482 
L 599.693708 216.230997 
L 601.78125 217.39958 
L 603.868792 215.894149 
L 605.956334 215.741422 
L 608.043876 217.393243 
L 610.131418 217.375903 
L 612.21896 218.273415 
L 614.306503 220.855675 
L 618.481587 218.422927 
L 620.569129 220.109872 
L 622.656671 219.389762 
L 624.744213 217.741343 
L 626.831755 218.109292 
L 628.919297 219.610877 
L 631.006839 218.779327 
L 633.094381 219.332491 
L 635.181923 220.414128 
L 637.269465 219.222054 
L 641.44455 218.73194 
L 643.532092 217.451998 
L 645.619634 215.766685 
L 647.707176 217.3358 
L 649.794718 217.21723 
L 651.88226 217.75164 
L 653.969802 219.212386 
L 656.057344 221.294708 
L 658.144886 222.463909 
L 662.319971 222.679092 
L 666.495055 222.171971 
L 670.670139 221.170545 
L 672.757681 222.002834 
L 674.845223 222.107867 
L 676.932765 221.820616 
L 679.020307 221.820005 
L 681.107849 223.019376 
L 683.195391 222.953331 
L 685.282934 222.29069 
L 687.370476 222.697806 
L 689.458018 222.96043 
L 691.54556 222.687796 
L 693.633102 222.863155 
L 695.720644 223.971264 
L 697.808186 224.17778 
L 699.895728 224.241318 
L 701.98327 225.234758 
L 704.070812 224.961951 
L 708.245896 224.665004 
L 710.333439 225.071228 
L 712.420981 224.547064 
L 716.596065 225.443617 
L 718.683607 225.573672 
L 720.771149 225.401492 
L 722.858691 225.827249 
L 724.946233 226.382605 
L 727.033775 226.369756 
L 731.208859 227.631646 
L 735.383944 226.903501 
L 737.471486 226.837336 
L 741.64657 226.469975 
L 743.734112 226.593589 
L 745.821654 226.419189 
L 747.909196 226.616476 
L 749.996738 225.828604 
L 752.08428 225.457248 
L 754.171822 225.213674 
L 756.259364 225.14668 
L 758.346907 224.425988 
L 760.434449 225.201634 
L 762.521991 225.438498 
L 766.697075 226.311978 
L 768.784617 227.104622 
L 775.047243 227.722689 
L 777.134785 227.471042 
L 779.222327 227.335375 
L 785.484954 227.506488 
L 787.572496 227.991607 
L 793.835122 228.478491 
L 795.922664 228.340554 
L 798.010206 228.473066 
L 802.18529 228.386824 
L 804.272832 227.951421 
L 808.447917 228.056302 
L 812.623001 227.944583 
L 814.710543 228.295305 
L 816.798085 228.242625 
L 818.885627 228.077806 
L 820.973169 228.180053 
L 823.060711 227.925051 
L 825.148253 227.845855 
L 829.323338 228.009651 
L 831.41088 227.951029 
L 833.498422 228.324002 
L 837.673506 228.606713 
L 839.761048 228.609887 
L 841.84859 228.796921 
L 852.286301 228.661732 
L 854.373843 228.775536 
L 860.636469 228.775021 
L 862.724011 228.893202 
L 866.899095 228.71218 
L 873.161721 228.620916 
L 877.336806 228.768228 
L 887.774516 228.885056 
L 891.9496 228.804948 
L 898.212226 228.879892 
L 902.387311 228.96 
L 908.649937 228.96 
L 910.737479 228.819419 
L 919.087647 228.819419 
L 921.175189 228.96 
L 923.262731 228.96 
L 925.350274 228.811663 
L 944.138152 228.844435 
L 946.225694 228.613156 
L 948.313237 228.613156 
L 950.400779 228.325732 
L 958.750947 228.55568 
L 960.838489 228.843104 
L 965.013573 228.843104 
L 967.101115 228.96 
L 969.188657 228.96 
L 971.276199 228.756446 
L 979.626368 228.756446 
L 981.71391 228.96 
L 1044.340173 228.96 
L 1046.427715 228.848843 
L 1046.427715 228.848843 
" style="fill:none;stroke:#d3d3d3;stroke-linecap:square;stroke-width:2;"/>
   </g>
   <g id="patch_3">
    <path d="M 43.78125 228.96 
L 43.78125 7.2 
" style="fill:none;stroke:#000000;stroke-linecap:square;stroke-linejoin:miter;stroke-width:0.8;"/>
   </g>
   <g id="patch_4">
    <path d="M 43.78125 228.96 
L 1159.78125 228.96 
" style="fill:none;stroke:#000000;stroke-linecap:square;stroke-linejoin:miter;stroke-width:0.8;"/>
   </g>
   <g id="legend_1">
    <g id="line2d_23">
     <path d="M 1065.97 17.67875 
L 1081.97 17.67875 
" style="fill:none;stroke:#947383;stroke-linecap:square;stroke-width:2;"/>
    </g>
    <g id="line2d_24"/>
    <g id="text_18">
     <!-- Europe -->
     <g transform="translate(1088.37 20.47875)scale(0.08 -0.08)">
      <defs>
       <path d="M 628 4666 
L 3578 4666 
L 3578 4134 
L 1259 4134 
L 1259 2753 
L 3481 2753 
L 3481 2222 
L 1259 2222 
L 1259 531 
L 3634 531 
L 3634 0 
L 628 0 
L 628 4666 
z
" id="DejaVuSans-45" transform="scale(0.015625)"/>
       <path d="M 1159 525 
L 1159 -1331 
L 581 -1331 
L 581 3500 
L 1159 3500 
L 1159 2969 
Q 1341 3281 1617 3432 
Q 1894 3584 2278 3584 
Q 2916 3584 3314 3078 
Q 3713 2572 3713 1747 
Q 3713 922 3314 415 
Q 2916 -91 2278 -91 
Q 1894 -91 1617 61 
Q 1341 213 1159 525 
z
M 3116 1747 
Q 3116 2381 2855 2742 
Q 2594 3103 2138 3103 
Q 1681 3103 1420 2742 
Q 1159 2381 1159 1747 
Q 1159 1113 1420 752 
Q 1681 391 2138 391 
Q 2594 391 2855 752 
Q 3116 1113 3116 1747 
z
" id="DejaVuSans-70" transform="scale(0.015625)"/>
      </defs>
      <use xlink:href="#DejaVuSans-45"/>
      <use x="63.183594" xlink:href="#DejaVuSans-75"/>
      <use x="126.5625" xlink:href="#DejaVuSans-72"/>
      <use x="165.425781" xlink:href="#DejaVuSans-6f"/>
      <use x="226.607422" xlink:href="#DejaVuSans-70"/>
      <use x="290.083984" xlink:href="#DejaVuSans-65"/>
     </g>
    </g>
    <g id="line2d_25">
     <path d="M 1065.97 29.42125 
L 1081.97 29.42125 
" style="fill:none;stroke:#96c6ad;stroke-linecap:square;stroke-width:2;"/>
    </g>
    <g id="line2d_26"/>
    <g id="text_19">
     <!-- North America -->
     <g transform="translate(1088.37 32.22125)scale(0.08 -0.08)">
      <defs>
       <path d="M 628 4666 
L 1478 4666 
L 3547 763 
L 3547 4666 
L 4159 4666 
L 4159 0 
L 3309 0 
L 1241 3903 
L 1241 0 
L 628 0 
L 628 4666 
z
" id="DejaVuSans-4e" transform="scale(0.015625)"/>
       <path d="M 3513 2113 
L 3513 0 
L 2938 0 
L 2938 2094 
Q 2938 2591 2744 2837 
Q 2550 3084 2163 3084 
Q 1697 3084 1428 2787 
Q 1159 2491 1159 1978 
L 1159 0 
L 581 0 
L 581 4863 
L 1159 4863 
L 1159 2956 
Q 1366 3272 1645 3428 
Q 1925 3584 2291 3584 
Q 2894 3584 3203 3211 
Q 3513 2838 3513 2113 
z
" id="DejaVuSans-68" transform="scale(0.015625)"/>
       <path d="M 2188 4044 
L 1331 1722 
L 3047 1722 
L 2188 4044 
z
M 1831 4666 
L 2547 4666 
L 4325 0 
L 3669 0 
L 3244 1197 
L 1141 1197 
L 716 0 
L 50 0 
L 1831 4666 
z
" id="DejaVuSans-41" transform="scale(0.015625)"/>
       <path d="M 3328 2828 
Q 3544 3216 3844 3400 
Q 4144 3584 4550 3584 
Q 5097 3584 5394 3201 
Q 5691 2819 5691 2113 
L 5691 0 
L 5113 0 
L 5113 2094 
Q 5113 2597 4934 2840 
Q 4756 3084 4391 3084 
Q 3944 3084 3684 2787 
Q 3425 2491 3425 1978 
L 3425 0 
L 2847 0 
L 2847 2094 
Q 2847 2600 2669 2842 
Q 2491 3084 2119 3084 
Q 1678 3084 1418 2786 
Q 1159 2488 1159 1978 
L 1159 0 
L 581 0 
L 581 3500 
L 1159 3500 
L 1159 2956 
Q 1356 3278 1631 3431 
Q 1906 3584 2284 3584 
Q 2666 3584 2933 3390 
Q 3200 3197 3328 2828 
z
" id="DejaVuSans-6d" transform="scale(0.015625)"/>
      </defs>
      <use xlink:href="#DejaVuSans-4e"/>
      <use x="74.804688" xlink:href="#DejaVuSans-6f"/>
      <use x="135.986328" xlink:href="#DejaVuSans-72"/>
      <use x="177.099609" xlink:href="#DejaVuSans-74"/>
      <use x="216.308594" xlink:href="#DejaVuSans-68"/>
      <use x="279.6875" xlink:href="#DejaVuSans-20"/>
      <use x="311.474609" xlink:href="#DejaVuSans-41"/>
      <use x="379.882812" xlink:href="#DejaVuSans-6d"/>
      <use x="477.294922" xlink:href="#DejaVuSans-65"/>
      <use x="538.818359" xlink:href="#DejaVuSans-72"/>
      <use x="579.931641" xlink:href="#DejaVuSans-69"/>
      <use x="607.714844" xlink:href="#DejaVuSans-63"/>
      <use x="662.695312" xlink:href="#DejaVuSans-61"/>
     </g>
    </g>
    <g id="line2d_27">
     <path d="M 1065.97 41.16375 
L 1081.97 41.16375 
" style="fill:none;stroke:#525886;stroke-linecap:square;stroke-width:2;"/>
    </g>
    <g id="line2d_28"/>
    <g id="text_20">
     <!-- United Kingdom -->
     <g transform="translate(1088.37 43.96375)scale(0.08 -0.08)">
      <defs>
       <path d="M 556 4666 
L 1191 4666 
L 1191 1831 
Q 1191 1081 1462 751 
Q 1734 422 2344 422 
Q 2950 422 3222 751 
Q 3494 1081 3494 1831 
L 3494 4666 
L 4128 4666 
L 4128 1753 
Q 4128 841 3676 375 
Q 3225 -91 2344 -91 
Q 1459 -91 1007 375 
Q 556 841 556 1753 
L 556 4666 
z
" id="DejaVuSans-55" transform="scale(0.015625)"/>
       <path d="M 628 4666 
L 1259 4666 
L 1259 2694 
L 3353 4666 
L 4166 4666 
L 1850 2491 
L 4331 0 
L 3500 0 
L 1259 2247 
L 1259 0 
L 628 0 
L 628 4666 
z
" id="DejaVuSans-4b" transform="scale(0.015625)"/>
      </defs>
      <use xlink:href="#DejaVuSans-55"/>
      <use x="73.193359" xlink:href="#DejaVuSans-6e"/>
      <use x="136.572266" xlink:href="#DejaVuSans-69"/>
      <use x="164.355469" xlink:href="#DejaVuSans-74"/>
      <use x="203.564453" xlink:href="#DejaVuSans-65"/>
      <use x="265.087891" xlink:href="#DejaVuSans-64"/>
      <use x="328.564453" xlink:href="#DejaVuSans-20"/>
      <use x="360.351562" xlink:href="#DejaVuSans-4b"/>
      <use x="425.927734" xlink:href="#DejaVuSans-69"/>
      <use x="453.710938" xlink:href="#DejaVuSans-6e"/>
      <use x="517.089844" xlink:href="#DejaVuSans-67"/>
      <use x="580.566406" xlink:href="#DejaVuSans-64"/>
      <use x="644.042969" xlink:href="#DejaVuSans-6f"/>
      <use x="705.224609" xlink:href="#DejaVuSans-6d"/>
     </g>
    </g>
    <g id="line2d_29">
     <path d="M 1065.97 52.90625 
L 1081.97 52.90625 
" style="fill:none;stroke:#937252;stroke-linecap:square;stroke-width:2;"/>
    </g>
    <g id="line2d_30"/>
    <g id="text_21">
     <!-- Asia -->
     <g transform="translate(1088.37 55.70625)scale(0.08 -0.08)">
      <defs>
       <path d="M 2834 3397 
L 2834 2853 
Q 2591 2978 2328 3040 
Q 2066 3103 1784 3103 
Q 1356 3103 1142 2972 
Q 928 2841 928 2578 
Q 928 2378 1081 2264 
Q 1234 2150 1697 2047 
L 1894 2003 
Q 2506 1872 2764 1633 
Q 3022 1394 3022 966 
Q 3022 478 2636 193 
Q 2250 -91 1575 -91 
Q 1294 -91 989 -36 
Q 684 19 347 128 
L 347 722 
Q 666 556 975 473 
Q 1284 391 1588 391 
Q 1994 391 2212 530 
Q 2431 669 2431 922 
Q 2431 1156 2273 1281 
Q 2116 1406 1581 1522 
L 1381 1569 
Q 847 1681 609 1914 
Q 372 2147 372 2553 
Q 372 3047 722 3315 
Q 1072 3584 1716 3584 
Q 2034 3584 2315 3537 
Q 2597 3491 2834 3397 
z
" id="DejaVuSans-73" transform="scale(0.015625)"/>
      </defs>
      <use xlink:href="#DejaVuSans-41"/>
      <use x="68.408203" xlink:href="#DejaVuSans-73"/>
      <use x="120.507812" xlink:href="#DejaVuSans-69"/>
      <use x="148.291016" xlink:href="#DejaVuSans-61"/>
     </g>
    </g>
    <g id="line2d_31">
     <path d="M 1065.97 64.64875 
L 1081.97 64.64875 
" style="fill:none;stroke:#d18cad;stroke-linecap:square;stroke-width:2;"/>
    </g>
    <g id="line2d_32"/>
    <g id="text_22">
     <!-- Oceania -->
     <g transform="translate(1088.37 67.44875)scale(0.08 -0.08)">
      <defs>
       <path d="M 2522 4238 
Q 1834 4238 1429 3725 
Q 1025 3213 1025 2328 
Q 1025 1447 1429 934 
Q 1834 422 2522 422 
Q 3209 422 3611 934 
Q 4013 1447 4013 2328 
Q 4013 3213 3611 3725 
Q 3209 4238 2522 4238 
z
M 2522 4750 
Q 3503 4750 4090 4092 
Q 4678 3434 4678 2328 
Q 4678 1225 4090 567 
Q 3503 -91 2522 -91 
Q 1538 -91 948 565 
Q 359 1222 359 2328 
Q 359 3434 948 4092 
Q 1538 4750 2522 4750 
z
" id="DejaVuSans-4f" transform="scale(0.015625)"/>
      </defs>
      <use xlink:href="#DejaVuSans-4f"/>
      <use x="78.710938" xlink:href="#DejaVuSans-63"/>
      <use x="133.691406" xlink:href="#DejaVuSans-65"/>
      <use x="195.214844" xlink:href="#DejaVuSans-61"/>
      <use x="256.494141" xlink:href="#DejaVuSans-6e"/>
      <use x="319.873047" xlink:href="#DejaVuSans-69"/>
      <use x="347.65625" xlink:href="#DejaVuSans-61"/>
     </g>
    </g>
    <g id="line2d_33">
     <path d="M 1065.97 76.39125 
L 1081.97 76.39125 
" style="fill:none;stroke:#a4a86f;stroke-linecap:square;stroke-width:2;"/>
    </g>
    <g id="line2d_34"/>
    <g id="text_23">
     <!-- Africa -->
     <g transform="translate(1088.37 79.19125)scale(0.08 -0.08)">
      <defs>
       <path d="M 2375 4863 
L 2375 4384 
L 1825 4384 
Q 1516 4384 1395 4259 
Q 1275 4134 1275 3809 
L 1275 3500 
L 2222 3500 
L 2222 3053 
L 1275 3053 
L 1275 0 
L 697 0 
L 697 3053 
L 147 3053 
L 147 3500 
L 697 3500 
L 697 3744 
Q 697 4328 969 4595 
Q 1241 4863 1831 4863 
L 2375 4863 
z
" id="DejaVuSans-66" transform="scale(0.015625)"/>
      </defs>
      <use xlink:href="#DejaVuSans-41"/>
      <use x="64.783203" xlink:href="#DejaVuSans-66"/>
      <use x="99.988281" xlink:href="#DejaVuSans-72"/>
      <use x="141.101562" xlink:href="#DejaVuSans-69"/>
      <use x="168.884766" xlink:href="#DejaVuSans-63"/>
      <use x="223.865234" xlink:href="#DejaVuSans-61"/>
     </g>
    </g>
    <g id="line2d_35">
     <path d="M 1065.97 88.13375 
L 1081.97 88.13375 
" style="fill:none;stroke:#d3d3d3;stroke-linecap:square;stroke-width:2;"/>
    </g>
    <g id="line2d_36"/>
    <g id="text_24">
     <!-- South America -->
     <g transform="translate(1088.37 90.93375)scale(0.08 -0.08)">
      <defs>
       <path d="M 3425 4513 
L 3425 3897 
Q 3066 4069 2747 4153 
Q 2428 4238 2131 4238 
Q 1616 4238 1336 4038 
Q 1056 3838 1056 3469 
Q 1056 3159 1242 3001 
Q 1428 2844 1947 2747 
L 2328 2669 
Q 3034 2534 3370 2195 
Q 3706 1856 3706 1288 
Q 3706 609 3251 259 
Q 2797 -91 1919 -91 
Q 1588 -91 1214 -16 
Q 841 59 441 206 
L 441 856 
Q 825 641 1194 531 
Q 1563 422 1919 422 
Q 2459 422 2753 634 
Q 3047 847 3047 1241 
Q 3047 1584 2836 1778 
Q 2625 1972 2144 2069 
L 1759 2144 
Q 1053 2284 737 2584 
Q 422 2884 422 3419 
Q 422 4038 858 4394 
Q 1294 4750 2059 4750 
Q 2388 4750 2728 4690 
Q 3069 4631 3425 4513 
z
" id="DejaVuSans-53" transform="scale(0.015625)"/>
      </defs>
      <use xlink:href="#DejaVuSans-53"/>
      <use x="63.476562" xlink:href="#DejaVuSans-6f"/>
      <use x="124.658203" xlink:href="#DejaVuSans-75"/>
      <use x="188.037109" xlink:href="#DejaVuSans-74"/>
      <use x="227.246094" xlink:href="#DejaVuSans-68"/>
      <use x="290.625" xlink:href="#DejaVuSans-20"/>
      <use x="322.412109" xlink:href="#DejaVuSans-41"/>
      <use x="390.820312" xlink:href="#DejaVuSans-6d"/>
      <use x="488.232422" xlink:href="#DejaVuSans-65"/>
      <use x="549.755859" xlink:href="#DejaVuSans-72"/>
      <use x="590.869141" xlink:href="#DejaVuSans-69"/>
      <use x="618.652344" xlink:href="#DejaVuSans-63"/>
      <use x="673.632812" xlink:href="#DejaVuSans-61"/>
     </g>
    </g>
   </g>
  </g>
 </g>
 <defs>
  <clipPath id="p0b567c84e8">
   <rect height="221.76" width="1116" x="43.78125" y="7.2"/>
  </clipPath>
 </defs>
</svg>
