<?xml version="1.0" encoding="utf-8" standalone="no"?>
<!DOCTYPE svg PUBLIC "-//W3C//DTD SVG 1.1//EN"
  "http://www.w3.org/Graphics/SVG/1.1/DTD/svg11.dtd">
<svg height="298.620937pt" version="1.1" viewBox="0 0 1166.98125 298.620937" width="1166.98125pt" xmlns="http://www.w3.org/2000/svg" xmlns:xlink="http://www.w3.org/1999/xlink">
 <metadata>
  <rdf:RDF xmlns:cc="http://creativecommons.org/ns#" xmlns:dc="http://purl.org/dc/elements/1.1/" xmlns:rdf="http://www.w3.org/1999/02/22-rdf-syntax-ns#">
   <cc:Work>
    <dc:type rdf:resource="http://purl.org/dc/dcmitype/StillImage"/>
    <dc:date>2021-11-08T15:00:00.089908</dc:date>
    <dc:format>image/svg+xml</dc:format>
    <dc:creator>
     <cc:Agent>
      <dc:title>Matplotlib v3.4.2, https://matplotlib.org/</dc:title>
     </cc:Agent>
    </dc:creator>
   </cc:Work>
  </rdf:RDF>
 </metadata>
 <defs>
  <style type="text/css">*{stroke-linecap:butt;stroke-linejoin:round;}</style>
 </defs>
 <g id="figure_1">
  <g id="patch_1">
   <path d="M 0 298.620937 
L 1166.98125 298.620937 
L 1166.98125 0 
L 0 0 
z
" style="fill:#ffffff;"/>
  </g>
  <g id="axes_1">
   <g id="patch_2">
    <path d="M 43.78125 228.96 
L 1159.78125 228.96 
L 1159.78125 7.2 
L 43.78125 7.2 
z
" style="fill:#ffffff;"/>
   </g>
   <g id="matplotlib.axis_1">
    <g id="xtick_1">
     <g id="line2d_1">
      <defs>
       <path d="M 0 0 
L 0 3.5 
" id="mff92255f42" style="stroke:#000000;stroke-width:0.8;"/>
      </defs>
      <g>
       <use style="stroke:#000000;stroke-width:0.8;" x="185.137893" xlink:href="#mff92255f42" y="228.96"/>
      </g>
     </g>
     <g id="text_1">
      <!-- 2020-11 -->
      <g transform="translate(187.897268 277.742812)rotate(-90)scale(0.1 -0.1)">
       <defs>
        <path d="M 1228 531 
L 3431 531 
L 3431 0 
L 469 0 
L 469 531 
Q 828 903 1448 1529 
Q 2069 2156 2228 2338 
Q 2531 2678 2651 2914 
Q 2772 3150 2772 3378 
Q 2772 3750 2511 3984 
Q 2250 4219 1831 4219 
Q 1534 4219 1204 4116 
Q 875 4013 500 3803 
L 500 4441 
Q 881 4594 1212 4672 
Q 1544 4750 1819 4750 
Q 2544 4750 2975 4387 
Q 3406 4025 3406 3419 
Q 3406 3131 3298 2873 
Q 3191 2616 2906 2266 
Q 2828 2175 2409 1742 
Q 1991 1309 1228 531 
z
" id="DejaVuSans-32" transform="scale(0.015625)"/>
        <path d="M 2034 4250 
Q 1547 4250 1301 3770 
Q 1056 3291 1056 2328 
Q 1056 1369 1301 889 
Q 1547 409 2034 409 
Q 2525 409 2770 889 
Q 3016 1369 3016 2328 
Q 3016 3291 2770 3770 
Q 2525 4250 2034 4250 
z
M 2034 4750 
Q 2819 4750 3233 4129 
Q 3647 3509 3647 2328 
Q 3647 1150 3233 529 
Q 2819 -91 2034 -91 
Q 1250 -91 836 529 
Q 422 1150 422 2328 
Q 422 3509 836 4129 
Q 1250 4750 2034 4750 
z
" id="DejaVuSans-30" transform="scale(0.015625)"/>
        <path d="M 313 2009 
L 1997 2009 
L 1997 1497 
L 313 1497 
L 313 2009 
z
" id="DejaVuSans-2d" transform="scale(0.015625)"/>
        <path d="M 794 531 
L 1825 531 
L 1825 4091 
L 703 3866 
L 703 4441 
L 1819 4666 
L 2450 4666 
L 2450 531 
L 3481 531 
L 3481 0 
L 794 0 
L 794 531 
z
" id="DejaVuSans-31" transform="scale(0.015625)"/>
       </defs>
       <use xlink:href="#DejaVuSans-32"/>
       <use x="63.623047" xlink:href="#DejaVuSans-30"/>
       <use x="127.246094" xlink:href="#DejaVuSans-32"/>
       <use x="190.869141" xlink:href="#DejaVuSans-30"/>
       <use x="254.492188" xlink:href="#DejaVuSans-2d"/>
       <use x="290.576172" xlink:href="#DejaVuSans-31"/>
       <use x="354.199219" xlink:href="#DejaVuSans-31"/>
      </g>
     </g>
    </g>
    <g id="xtick_2">
     <g id="line2d_2">
      <g>
       <use style="stroke:#000000;stroke-width:0.8;" x="338.704327" xlink:href="#mff92255f42" y="228.96"/>
      </g>
     </g>
     <g id="text_2">
      <!-- 2021-01 -->
      <g transform="translate(341.463702 277.742812)rotate(-90)scale(0.1 -0.1)">
       <use xlink:href="#DejaVuSans-32"/>
       <use x="63.623047" xlink:href="#DejaVuSans-30"/>
       <use x="127.246094" xlink:href="#DejaVuSans-32"/>
       <use x="190.869141" xlink:href="#DejaVuSans-31"/>
       <use x="254.492188" xlink:href="#DejaVuSans-2d"/>
       <use x="290.576172" xlink:href="#DejaVuSans-30"/>
       <use x="354.199219" xlink:href="#DejaVuSans-31"/>
      </g>
     </g>
    </g>
    <g id="xtick_3">
     <g id="line2d_3">
      <g>
       <use style="stroke:#000000;stroke-width:0.8;" x="487.235795" xlink:href="#mff92255f42" y="228.96"/>
      </g>
     </g>
     <g id="text_3">
      <!-- 2021-03 -->
      <g transform="translate(489.99517 277.742812)rotate(-90)scale(0.1 -0.1)">
       <defs>
        <path d="M 2597 2516 
Q 3050 2419 3304 2112 
Q 3559 1806 3559 1356 
Q 3559 666 3084 287 
Q 2609 -91 1734 -91 
Q 1441 -91 1130 -33 
Q 819 25 488 141 
L 488 750 
Q 750 597 1062 519 
Q 1375 441 1716 441 
Q 2309 441 2620 675 
Q 2931 909 2931 1356 
Q 2931 1769 2642 2001 
Q 2353 2234 1838 2234 
L 1294 2234 
L 1294 2753 
L 1863 2753 
Q 2328 2753 2575 2939 
Q 2822 3125 2822 3475 
Q 2822 3834 2567 4026 
Q 2313 4219 1838 4219 
Q 1578 4219 1281 4162 
Q 984 4106 628 3988 
L 628 4550 
Q 988 4650 1302 4700 
Q 1616 4750 1894 4750 
Q 2613 4750 3031 4423 
Q 3450 4097 3450 3541 
Q 3450 3153 3228 2886 
Q 3006 2619 2597 2516 
z
" id="DejaVuSans-33" transform="scale(0.015625)"/>
       </defs>
       <use xlink:href="#DejaVuSans-32"/>
       <use x="63.623047" xlink:href="#DejaVuSans-30"/>
       <use x="127.246094" xlink:href="#DejaVuSans-32"/>
       <use x="190.869141" xlink:href="#DejaVuSans-31"/>
       <use x="254.492188" xlink:href="#DejaVuSans-2d"/>
       <use x="290.576172" xlink:href="#DejaVuSans-30"/>
       <use x="354.199219" xlink:href="#DejaVuSans-33"/>
      </g>
     </g>
    </g>
    <g id="xtick_4">
     <g id="line2d_4">
      <g>
       <use style="stroke:#000000;stroke-width:0.8;" x="640.802229" xlink:href="#mff92255f42" y="228.96"/>
      </g>
     </g>
     <g id="text_4">
      <!-- 2021-05 -->
      <g transform="translate(643.561604 277.742812)rotate(-90)scale(0.1 -0.1)">
       <defs>
        <path d="M 691 4666 
L 3169 4666 
L 3169 4134 
L 1269 4134 
L 1269 2991 
Q 1406 3038 1543 3061 
Q 1681 3084 1819 3084 
Q 2600 3084 3056 2656 
Q 3513 2228 3513 1497 
Q 3513 744 3044 326 
Q 2575 -91 1722 -91 
Q 1428 -91 1123 -41 
Q 819 9 494 109 
L 494 744 
Q 775 591 1075 516 
Q 1375 441 1709 441 
Q 2250 441 2565 725 
Q 2881 1009 2881 1497 
Q 2881 1984 2565 2268 
Q 2250 2553 1709 2553 
Q 1456 2553 1204 2497 
Q 953 2441 691 2322 
L 691 4666 
z
" id="DejaVuSans-35" transform="scale(0.015625)"/>
       </defs>
       <use xlink:href="#DejaVuSans-32"/>
       <use x="63.623047" xlink:href="#DejaVuSans-30"/>
       <use x="127.246094" xlink:href="#DejaVuSans-32"/>
       <use x="190.869141" xlink:href="#DejaVuSans-31"/>
       <use x="254.492188" xlink:href="#DejaVuSans-2d"/>
       <use x="290.576172" xlink:href="#DejaVuSans-30"/>
       <use x="354.199219" xlink:href="#DejaVuSans-35"/>
      </g>
     </g>
    </g>
    <g id="xtick_5">
     <g id="line2d_5">
      <g>
       <use style="stroke:#000000;stroke-width:0.8;" x="794.368663" xlink:href="#mff92255f42" y="228.96"/>
      </g>
     </g>
     <g id="text_5">
      <!-- 2021-07 -->
      <g transform="translate(797.128038 277.742812)rotate(-90)scale(0.1 -0.1)">
       <defs>
        <path d="M 525 4666 
L 3525 4666 
L 3525 4397 
L 1831 0 
L 1172 0 
L 2766 4134 
L 525 4134 
L 525 4666 
z
" id="DejaVuSans-37" transform="scale(0.015625)"/>
       </defs>
       <use xlink:href="#DejaVuSans-32"/>
       <use x="63.623047" xlink:href="#DejaVuSans-30"/>
       <use x="127.246094" xlink:href="#DejaVuSans-32"/>
       <use x="190.869141" xlink:href="#DejaVuSans-31"/>
       <use x="254.492188" xlink:href="#DejaVuSans-2d"/>
       <use x="290.576172" xlink:href="#DejaVuSans-30"/>
       <use x="354.199219" xlink:href="#DejaVuSans-37"/>
      </g>
     </g>
    </g>
    <g id="xtick_6">
     <g id="line2d_6">
      <g>
       <use style="stroke:#000000;stroke-width:0.8;" x="950.452579" xlink:href="#mff92255f42" y="228.96"/>
      </g>
     </g>
     <g id="text_6">
      <!-- 2021-09 -->
      <g transform="translate(953.211954 277.742812)rotate(-90)scale(0.1 -0.1)">
       <defs>
        <path d="M 703 97 
L 703 672 
Q 941 559 1184 500 
Q 1428 441 1663 441 
Q 2288 441 2617 861 
Q 2947 1281 2994 2138 
Q 2813 1869 2534 1725 
Q 2256 1581 1919 1581 
Q 1219 1581 811 2004 
Q 403 2428 403 3163 
Q 403 3881 828 4315 
Q 1253 4750 1959 4750 
Q 2769 4750 3195 4129 
Q 3622 3509 3622 2328 
Q 3622 1225 3098 567 
Q 2575 -91 1691 -91 
Q 1453 -91 1209 -44 
Q 966 3 703 97 
z
M 1959 2075 
Q 2384 2075 2632 2365 
Q 2881 2656 2881 3163 
Q 2881 3666 2632 3958 
Q 2384 4250 1959 4250 
Q 1534 4250 1286 3958 
Q 1038 3666 1038 3163 
Q 1038 2656 1286 2365 
Q 1534 2075 1959 2075 
z
" id="DejaVuSans-39" transform="scale(0.015625)"/>
       </defs>
       <use xlink:href="#DejaVuSans-32"/>
       <use x="63.623047" xlink:href="#DejaVuSans-30"/>
       <use x="127.246094" xlink:href="#DejaVuSans-32"/>
       <use x="190.869141" xlink:href="#DejaVuSans-31"/>
       <use x="254.492188" xlink:href="#DejaVuSans-2d"/>
       <use x="290.576172" xlink:href="#DejaVuSans-30"/>
       <use x="354.199219" xlink:href="#DejaVuSans-39"/>
      </g>
     </g>
    </g>
    <g id="xtick_7">
     <g id="line2d_7">
      <g>
       <use style="stroke:#000000;stroke-width:0.8;" x="1104.019012" xlink:href="#mff92255f42" y="228.96"/>
      </g>
     </g>
     <g id="text_7">
      <!-- 2021-11 -->
      <g transform="translate(1106.778387 277.742812)rotate(-90)scale(0.1 -0.1)">
       <use xlink:href="#DejaVuSans-32"/>
       <use x="63.623047" xlink:href="#DejaVuSans-30"/>
       <use x="127.246094" xlink:href="#DejaVuSans-32"/>
       <use x="190.869141" xlink:href="#DejaVuSans-31"/>
       <use x="254.492188" xlink:href="#DejaVuSans-2d"/>
       <use x="290.576172" xlink:href="#DejaVuSans-31"/>
       <use x="354.199219" xlink:href="#DejaVuSans-31"/>
      </g>
     </g>
    </g>
    <g id="text_8">
     <!-- Date -->
     <g transform="translate(589.830469 289.34125)scale(0.1 -0.1)">
      <defs>
       <path d="M 1259 4147 
L 1259 519 
L 2022 519 
Q 2988 519 3436 956 
Q 3884 1394 3884 2338 
Q 3884 3275 3436 3711 
Q 2988 4147 2022 4147 
L 1259 4147 
z
M 628 4666 
L 1925 4666 
Q 3281 4666 3915 4102 
Q 4550 3538 4550 2338 
Q 4550 1131 3912 565 
Q 3275 0 1925 0 
L 628 0 
L 628 4666 
z
" id="DejaVuSans-44" transform="scale(0.015625)"/>
       <path d="M 2194 1759 
Q 1497 1759 1228 1600 
Q 959 1441 959 1056 
Q 959 750 1161 570 
Q 1363 391 1709 391 
Q 2188 391 2477 730 
Q 2766 1069 2766 1631 
L 2766 1759 
L 2194 1759 
z
M 3341 1997 
L 3341 0 
L 2766 0 
L 2766 531 
Q 2569 213 2275 61 
Q 1981 -91 1556 -91 
Q 1019 -91 701 211 
Q 384 513 384 1019 
Q 384 1609 779 1909 
Q 1175 2209 1959 2209 
L 2766 2209 
L 2766 2266 
Q 2766 2663 2505 2880 
Q 2244 3097 1772 3097 
Q 1472 3097 1187 3025 
Q 903 2953 641 2809 
L 641 3341 
Q 956 3463 1253 3523 
Q 1550 3584 1831 3584 
Q 2591 3584 2966 3190 
Q 3341 2797 3341 1997 
z
" id="DejaVuSans-61" transform="scale(0.015625)"/>
       <path d="M 1172 4494 
L 1172 3500 
L 2356 3500 
L 2356 3053 
L 1172 3053 
L 1172 1153 
Q 1172 725 1289 603 
Q 1406 481 1766 481 
L 2356 481 
L 2356 0 
L 1766 0 
Q 1100 0 847 248 
Q 594 497 594 1153 
L 594 3053 
L 172 3053 
L 172 3500 
L 594 3500 
L 594 4494 
L 1172 4494 
z
" id="DejaVuSans-74" transform="scale(0.015625)"/>
       <path d="M 3597 1894 
L 3597 1613 
L 953 1613 
Q 991 1019 1311 708 
Q 1631 397 2203 397 
Q 2534 397 2845 478 
Q 3156 559 3463 722 
L 3463 178 
Q 3153 47 2828 -22 
Q 2503 -91 2169 -91 
Q 1331 -91 842 396 
Q 353 884 353 1716 
Q 353 2575 817 3079 
Q 1281 3584 2069 3584 
Q 2775 3584 3186 3129 
Q 3597 2675 3597 1894 
z
M 3022 2063 
Q 3016 2534 2758 2815 
Q 2500 3097 2075 3097 
Q 1594 3097 1305 2825 
Q 1016 2553 972 2059 
L 3022 2063 
z
" id="DejaVuSans-65" transform="scale(0.015625)"/>
      </defs>
      <use xlink:href="#DejaVuSans-44"/>
      <use x="77.001953" xlink:href="#DejaVuSans-61"/>
      <use x="138.28125" xlink:href="#DejaVuSans-74"/>
      <use x="177.490234" xlink:href="#DejaVuSans-65"/>
     </g>
    </g>
   </g>
   <g id="matplotlib.axis_2">
    <g id="ytick_1">
     <g id="line2d_8">
      <defs>
       <path d="M 0 0 
L -3.5 0 
" id="me30fae0cca" style="stroke:#000000;stroke-width:0.8;"/>
      </defs>
      <g>
       <use style="stroke:#000000;stroke-width:0.8;" x="43.78125" xlink:href="#me30fae0cca" y="228.96"/>
      </g>
     </g>
     <g id="text_9">
      <!-- 0.0 -->
      <g transform="translate(20.878125 232.759219)scale(0.1 -0.1)">
       <defs>
        <path d="M 684 794 
L 1344 794 
L 1344 0 
L 684 0 
L 684 794 
z
" id="DejaVuSans-2e" transform="scale(0.015625)"/>
       </defs>
       <use xlink:href="#DejaVuSans-30"/>
       <use x="63.623047" xlink:href="#DejaVuSans-2e"/>
       <use x="95.410156" xlink:href="#DejaVuSans-30"/>
      </g>
     </g>
    </g>
    <g id="ytick_2">
     <g id="line2d_9">
      <g>
       <use style="stroke:#000000;stroke-width:0.8;" x="43.78125" xlink:href="#me30fae0cca" y="200.562429"/>
      </g>
     </g>
     <g id="text_10">
      <!-- 0.1 -->
      <g transform="translate(20.878125 204.361648)scale(0.1 -0.1)">
       <use xlink:href="#DejaVuSans-30"/>
       <use x="63.623047" xlink:href="#DejaVuSans-2e"/>
       <use x="95.410156" xlink:href="#DejaVuSans-31"/>
      </g>
     </g>
    </g>
    <g id="ytick_3">
     <g id="line2d_10">
      <g>
       <use style="stroke:#000000;stroke-width:0.8;" x="43.78125" xlink:href="#me30fae0cca" y="172.164858"/>
      </g>
     </g>
     <g id="text_11">
      <!-- 0.2 -->
      <g transform="translate(20.878125 175.964076)scale(0.1 -0.1)">
       <use xlink:href="#DejaVuSans-30"/>
       <use x="63.623047" xlink:href="#DejaVuSans-2e"/>
       <use x="95.410156" xlink:href="#DejaVuSans-32"/>
      </g>
     </g>
    </g>
    <g id="ytick_4">
     <g id="line2d_11">
      <g>
       <use style="stroke:#000000;stroke-width:0.8;" x="43.78125" xlink:href="#me30fae0cca" y="143.767286"/>
      </g>
     </g>
     <g id="text_12">
      <!-- 0.3 -->
      <g transform="translate(20.878125 147.566505)scale(0.1 -0.1)">
       <use xlink:href="#DejaVuSans-30"/>
       <use x="63.623047" xlink:href="#DejaVuSans-2e"/>
       <use x="95.410156" xlink:href="#DejaVuSans-33"/>
      </g>
     </g>
    </g>
    <g id="ytick_5">
     <g id="line2d_12">
      <g>
       <use style="stroke:#000000;stroke-width:0.8;" x="43.78125" xlink:href="#me30fae0cca" y="115.369715"/>
      </g>
     </g>
     <g id="text_13">
      <!-- 0.4 -->
      <g transform="translate(20.878125 119.168934)scale(0.1 -0.1)">
       <defs>
        <path d="M 2419 4116 
L 825 1625 
L 2419 1625 
L 2419 4116 
z
M 2253 4666 
L 3047 4666 
L 3047 1625 
L 3713 1625 
L 3713 1100 
L 3047 1100 
L 3047 0 
L 2419 0 
L 2419 1100 
L 313 1100 
L 313 1709 
L 2253 4666 
z
" id="DejaVuSans-34" transform="scale(0.015625)"/>
       </defs>
       <use xlink:href="#DejaVuSans-30"/>
       <use x="63.623047" xlink:href="#DejaVuSans-2e"/>
       <use x="95.410156" xlink:href="#DejaVuSans-34"/>
      </g>
     </g>
    </g>
    <g id="ytick_6">
     <g id="line2d_13">
      <g>
       <use style="stroke:#000000;stroke-width:0.8;" x="43.78125" xlink:href="#me30fae0cca" y="86.972144"/>
      </g>
     </g>
     <g id="text_14">
      <!-- 0.5 -->
      <g transform="translate(20.878125 90.771363)scale(0.1 -0.1)">
       <use xlink:href="#DejaVuSans-30"/>
       <use x="63.623047" xlink:href="#DejaVuSans-2e"/>
       <use x="95.410156" xlink:href="#DejaVuSans-35"/>
      </g>
     </g>
    </g>
    <g id="ytick_7">
     <g id="line2d_14">
      <g>
       <use style="stroke:#000000;stroke-width:0.8;" x="43.78125" xlink:href="#me30fae0cca" y="58.574573"/>
      </g>
     </g>
     <g id="text_15">
      <!-- 0.6 -->
      <g transform="translate(20.878125 62.373792)scale(0.1 -0.1)">
       <defs>
        <path d="M 2113 2584 
Q 1688 2584 1439 2293 
Q 1191 2003 1191 1497 
Q 1191 994 1439 701 
Q 1688 409 2113 409 
Q 2538 409 2786 701 
Q 3034 994 3034 1497 
Q 3034 2003 2786 2293 
Q 2538 2584 2113 2584 
z
M 3366 4563 
L 3366 3988 
Q 3128 4100 2886 4159 
Q 2644 4219 2406 4219 
Q 1781 4219 1451 3797 
Q 1122 3375 1075 2522 
Q 1259 2794 1537 2939 
Q 1816 3084 2150 3084 
Q 2853 3084 3261 2657 
Q 3669 2231 3669 1497 
Q 3669 778 3244 343 
Q 2819 -91 2113 -91 
Q 1303 -91 875 529 
Q 447 1150 447 2328 
Q 447 3434 972 4092 
Q 1497 4750 2381 4750 
Q 2619 4750 2861 4703 
Q 3103 4656 3366 4563 
z
" id="DejaVuSans-36" transform="scale(0.015625)"/>
       </defs>
       <use xlink:href="#DejaVuSans-30"/>
       <use x="63.623047" xlink:href="#DejaVuSans-2e"/>
       <use x="95.410156" xlink:href="#DejaVuSans-36"/>
      </g>
     </g>
    </g>
    <g id="ytick_8">
     <g id="line2d_15">
      <g>
       <use style="stroke:#000000;stroke-width:0.8;" x="43.78125" xlink:href="#me30fae0cca" y="30.177002"/>
      </g>
     </g>
     <g id="text_16">
      <!-- 0.7 -->
      <g transform="translate(20.878125 33.97622)scale(0.1 -0.1)">
       <use xlink:href="#DejaVuSans-30"/>
       <use x="63.623047" xlink:href="#DejaVuSans-2e"/>
       <use x="95.410156" xlink:href="#DejaVuSans-37"/>
      </g>
     </g>
    </g>
    <g id="text_17">
     <!-- Frequency (7 day rolling average) -->
     <g transform="translate(14.798437 202.529219)rotate(-90)scale(0.1 -0.1)">
      <defs>
       <path d="M 628 4666 
L 3309 4666 
L 3309 4134 
L 1259 4134 
L 1259 2759 
L 3109 2759 
L 3109 2228 
L 1259 2228 
L 1259 0 
L 628 0 
L 628 4666 
z
" id="DejaVuSans-46" transform="scale(0.015625)"/>
       <path d="M 2631 2963 
Q 2534 3019 2420 3045 
Q 2306 3072 2169 3072 
Q 1681 3072 1420 2755 
Q 1159 2438 1159 1844 
L 1159 0 
L 581 0 
L 581 3500 
L 1159 3500 
L 1159 2956 
Q 1341 3275 1631 3429 
Q 1922 3584 2338 3584 
Q 2397 3584 2469 3576 
Q 2541 3569 2628 3553 
L 2631 2963 
z
" id="DejaVuSans-72" transform="scale(0.015625)"/>
       <path d="M 947 1747 
Q 947 1113 1208 752 
Q 1469 391 1925 391 
Q 2381 391 2643 752 
Q 2906 1113 2906 1747 
Q 2906 2381 2643 2742 
Q 2381 3103 1925 3103 
Q 1469 3103 1208 2742 
Q 947 2381 947 1747 
z
M 2906 525 
Q 2725 213 2448 61 
Q 2172 -91 1784 -91 
Q 1150 -91 751 415 
Q 353 922 353 1747 
Q 353 2572 751 3078 
Q 1150 3584 1784 3584 
Q 2172 3584 2448 3432 
Q 2725 3281 2906 2969 
L 2906 3500 
L 3481 3500 
L 3481 -1331 
L 2906 -1331 
L 2906 525 
z
" id="DejaVuSans-71" transform="scale(0.015625)"/>
       <path d="M 544 1381 
L 544 3500 
L 1119 3500 
L 1119 1403 
Q 1119 906 1312 657 
Q 1506 409 1894 409 
Q 2359 409 2629 706 
Q 2900 1003 2900 1516 
L 2900 3500 
L 3475 3500 
L 3475 0 
L 2900 0 
L 2900 538 
Q 2691 219 2414 64 
Q 2138 -91 1772 -91 
Q 1169 -91 856 284 
Q 544 659 544 1381 
z
M 1991 3584 
L 1991 3584 
z
" id="DejaVuSans-75" transform="scale(0.015625)"/>
       <path d="M 3513 2113 
L 3513 0 
L 2938 0 
L 2938 2094 
Q 2938 2591 2744 2837 
Q 2550 3084 2163 3084 
Q 1697 3084 1428 2787 
Q 1159 2491 1159 1978 
L 1159 0 
L 581 0 
L 581 3500 
L 1159 3500 
L 1159 2956 
Q 1366 3272 1645 3428 
Q 1925 3584 2291 3584 
Q 2894 3584 3203 3211 
Q 3513 2838 3513 2113 
z
" id="DejaVuSans-6e" transform="scale(0.015625)"/>
       <path d="M 3122 3366 
L 3122 2828 
Q 2878 2963 2633 3030 
Q 2388 3097 2138 3097 
Q 1578 3097 1268 2742 
Q 959 2388 959 1747 
Q 959 1106 1268 751 
Q 1578 397 2138 397 
Q 2388 397 2633 464 
Q 2878 531 3122 666 
L 3122 134 
Q 2881 22 2623 -34 
Q 2366 -91 2075 -91 
Q 1284 -91 818 406 
Q 353 903 353 1747 
Q 353 2603 823 3093 
Q 1294 3584 2113 3584 
Q 2378 3584 2631 3529 
Q 2884 3475 3122 3366 
z
" id="DejaVuSans-63" transform="scale(0.015625)"/>
       <path d="M 2059 -325 
Q 1816 -950 1584 -1140 
Q 1353 -1331 966 -1331 
L 506 -1331 
L 506 -850 
L 844 -850 
Q 1081 -850 1212 -737 
Q 1344 -625 1503 -206 
L 1606 56 
L 191 3500 
L 800 3500 
L 1894 763 
L 2988 3500 
L 3597 3500 
L 2059 -325 
z
" id="DejaVuSans-79" transform="scale(0.015625)"/>
       <path id="DejaVuSans-20" transform="scale(0.015625)"/>
       <path d="M 1984 4856 
Q 1566 4138 1362 3434 
Q 1159 2731 1159 2009 
Q 1159 1288 1364 580 
Q 1569 -128 1984 -844 
L 1484 -844 
Q 1016 -109 783 600 
Q 550 1309 550 2009 
Q 550 2706 781 3412 
Q 1013 4119 1484 4856 
L 1984 4856 
z
" id="DejaVuSans-28" transform="scale(0.015625)"/>
       <path d="M 2906 2969 
L 2906 4863 
L 3481 4863 
L 3481 0 
L 2906 0 
L 2906 525 
Q 2725 213 2448 61 
Q 2172 -91 1784 -91 
Q 1150 -91 751 415 
Q 353 922 353 1747 
Q 353 2572 751 3078 
Q 1150 3584 1784 3584 
Q 2172 3584 2448 3432 
Q 2725 3281 2906 2969 
z
M 947 1747 
Q 947 1113 1208 752 
Q 1469 391 1925 391 
Q 2381 391 2643 752 
Q 2906 1113 2906 1747 
Q 2906 2381 2643 2742 
Q 2381 3103 1925 3103 
Q 1469 3103 1208 2742 
Q 947 2381 947 1747 
z
" id="DejaVuSans-64" transform="scale(0.015625)"/>
       <path d="M 1959 3097 
Q 1497 3097 1228 2736 
Q 959 2375 959 1747 
Q 959 1119 1226 758 
Q 1494 397 1959 397 
Q 2419 397 2687 759 
Q 2956 1122 2956 1747 
Q 2956 2369 2687 2733 
Q 2419 3097 1959 3097 
z
M 1959 3584 
Q 2709 3584 3137 3096 
Q 3566 2609 3566 1747 
Q 3566 888 3137 398 
Q 2709 -91 1959 -91 
Q 1206 -91 779 398 
Q 353 888 353 1747 
Q 353 2609 779 3096 
Q 1206 3584 1959 3584 
z
" id="DejaVuSans-6f" transform="scale(0.015625)"/>
       <path d="M 603 4863 
L 1178 4863 
L 1178 0 
L 603 0 
L 603 4863 
z
" id="DejaVuSans-6c" transform="scale(0.015625)"/>
       <path d="M 603 3500 
L 1178 3500 
L 1178 0 
L 603 0 
L 603 3500 
z
M 603 4863 
L 1178 4863 
L 1178 4134 
L 603 4134 
L 603 4863 
z
" id="DejaVuSans-69" transform="scale(0.015625)"/>
       <path d="M 2906 1791 
Q 2906 2416 2648 2759 
Q 2391 3103 1925 3103 
Q 1463 3103 1205 2759 
Q 947 2416 947 1791 
Q 947 1169 1205 825 
Q 1463 481 1925 481 
Q 2391 481 2648 825 
Q 2906 1169 2906 1791 
z
M 3481 434 
Q 3481 -459 3084 -895 
Q 2688 -1331 1869 -1331 
Q 1566 -1331 1297 -1286 
Q 1028 -1241 775 -1147 
L 775 -588 
Q 1028 -725 1275 -790 
Q 1522 -856 1778 -856 
Q 2344 -856 2625 -561 
Q 2906 -266 2906 331 
L 2906 616 
Q 2728 306 2450 153 
Q 2172 0 1784 0 
Q 1141 0 747 490 
Q 353 981 353 1791 
Q 353 2603 747 3093 
Q 1141 3584 1784 3584 
Q 2172 3584 2450 3431 
Q 2728 3278 2906 2969 
L 2906 3500 
L 3481 3500 
L 3481 434 
z
" id="DejaVuSans-67" transform="scale(0.015625)"/>
       <path d="M 191 3500 
L 800 3500 
L 1894 563 
L 2988 3500 
L 3597 3500 
L 2284 0 
L 1503 0 
L 191 3500 
z
" id="DejaVuSans-76" transform="scale(0.015625)"/>
       <path d="M 513 4856 
L 1013 4856 
Q 1481 4119 1714 3412 
Q 1947 2706 1947 2009 
Q 1947 1309 1714 600 
Q 1481 -109 1013 -844 
L 513 -844 
Q 928 -128 1133 580 
Q 1338 1288 1338 2009 
Q 1338 2731 1133 3434 
Q 928 4138 513 4856 
z
" id="DejaVuSans-29" transform="scale(0.015625)"/>
      </defs>
      <use xlink:href="#DejaVuSans-46"/>
      <use x="50.269531" xlink:href="#DejaVuSans-72"/>
      <use x="89.132812" xlink:href="#DejaVuSans-65"/>
      <use x="150.65625" xlink:href="#DejaVuSans-71"/>
      <use x="214.132812" xlink:href="#DejaVuSans-75"/>
      <use x="277.511719" xlink:href="#DejaVuSans-65"/>
      <use x="339.035156" xlink:href="#DejaVuSans-6e"/>
      <use x="402.414062" xlink:href="#DejaVuSans-63"/>
      <use x="457.394531" xlink:href="#DejaVuSans-79"/>
      <use x="516.574219" xlink:href="#DejaVuSans-20"/>
      <use x="548.361328" xlink:href="#DejaVuSans-28"/>
      <use x="587.375" xlink:href="#DejaVuSans-37"/>
      <use x="650.998047" xlink:href="#DejaVuSans-20"/>
      <use x="682.785156" xlink:href="#DejaVuSans-64"/>
      <use x="746.261719" xlink:href="#DejaVuSans-61"/>
      <use x="807.541016" xlink:href="#DejaVuSans-79"/>
      <use x="866.720703" xlink:href="#DejaVuSans-20"/>
      <use x="898.507812" xlink:href="#DejaVuSans-72"/>
      <use x="937.371094" xlink:href="#DejaVuSans-6f"/>
      <use x="998.552734" xlink:href="#DejaVuSans-6c"/>
      <use x="1026.335938" xlink:href="#DejaVuSans-6c"/>
      <use x="1054.119141" xlink:href="#DejaVuSans-69"/>
      <use x="1081.902344" xlink:href="#DejaVuSans-6e"/>
      <use x="1145.28125" xlink:href="#DejaVuSans-67"/>
      <use x="1208.757812" xlink:href="#DejaVuSans-20"/>
      <use x="1240.544922" xlink:href="#DejaVuSans-61"/>
      <use x="1301.824219" xlink:href="#DejaVuSans-76"/>
      <use x="1361.003906" xlink:href="#DejaVuSans-65"/>
      <use x="1422.527344" xlink:href="#DejaVuSans-72"/>
      <use x="1463.640625" xlink:href="#DejaVuSans-61"/>
      <use x="1524.919922" xlink:href="#DejaVuSans-67"/>
      <use x="1588.396484" xlink:href="#DejaVuSans-65"/>
      <use x="1649.919922" xlink:href="#DejaVuSans-29"/>
     </g>
    </g>
   </g>
   <g id="line2d_16">
    <path clip-path="url(#p3f17e0bcbc)" d="M 414.228802 228.941458 
L 429.333698 228.96 
L 557.725306 228.928896 
L 565.277753 228.697863 
L 567.795236 228.652113 
L 570.312719 228.415631 
L 572.830201 228.383452 
L 575.347684 228.200842 
L 580.382649 227.191501 
L 582.900131 226.875502 
L 585.417614 226.856382 
L 587.935096 226.657404 
L 592.970061 226.626629 
L 595.487544 226.625463 
L 598.005026 225.882835 
L 600.522509 224.817559 
L 603.039991 224.012598 
L 605.557474 221.97692 
L 608.074956 221.421289 
L 610.592439 219.956352 
L 613.109921 218.951591 
L 615.627404 218.527476 
L 618.144886 219.038143 
L 620.662369 218.05717 
L 623.179851 217.816266 
L 625.697334 216.318696 
L 628.214816 216.345279 
L 630.732299 216.134746 
L 633.249781 215.11734 
L 635.767264 214.849464 
L 638.284747 215.735898 
L 640.802229 214.804511 
L 643.319712 212.339987 
L 645.837194 212.035924 
L 650.872159 211.834749 
L 653.389642 211.451507 
L 655.907124 213.105194 
L 658.424607 213.171839 
L 660.942089 212.627653 
L 663.459572 211.958841 
L 665.977054 211.029137 
L 668.494537 208.27856 
L 671.012019 207.106526 
L 673.529502 206.180997 
L 676.046984 205.913059 
L 678.564467 206.723959 
L 681.081949 207.059231 
L 683.599432 205.845117 
L 686.116914 205.357914 
L 688.634397 204.616645 
L 691.151879 202.201302 
L 693.669362 203.40549 
L 696.186844 203.960326 
L 698.704327 204.310126 
L 701.221809 204.193303 
L 703.739292 204.872605 
L 706.256774 203.936529 
L 708.774257 203.610725 
L 711.29174 201.97683 
L 713.809222 201.752462 
L 716.326705 201.655944 
L 718.844187 200.730507 
L 721.36167 199.374151 
L 723.879152 199.70551 
L 726.396635 199.399357 
L 728.914117 199.582239 
L 731.4316 200.712629 
L 733.949082 202.28488 
L 736.466565 201.922941 
L 738.984047 200.600921 
L 741.50153 198.55855 
L 744.019012 197.718653 
L 746.536495 197.199922 
L 749.053977 198.623559 
L 751.57146 200.599365 
L 754.088942 202.297268 
L 756.606425 203.003433 
L 759.123907 203.964728 
L 761.64139 202.608503 
L 764.158872 202.844787 
L 766.676355 203.862601 
L 769.193837 203.470062 
L 771.71132 203.462213 
L 774.228802 204.699055 
L 776.746285 204.244096 
L 779.263767 202.015249 
L 781.78125 201.973499 
L 784.298733 201.31858 
L 786.816215 200.023008 
L 789.333698 200.40913 
L 791.85118 201.982268 
L 794.368663 201.244836 
L 796.886145 200.625119 
L 799.403628 200.734993 
L 801.92111 200.260341 
L 804.438593 199.915804 
L 806.956075 200.85464 
L 809.473558 201.432637 
L 811.99104 202.474925 
L 814.508523 202.055728 
L 817.026005 200.647217 
L 819.543488 199.712126 
L 822.06097 197.970469 
L 824.578453 194.8476 
L 829.613418 193.855028 
L 832.1309 194.214837 
L 834.648383 195.059062 
L 837.165865 197.293981 
L 839.683348 198.435929 
L 842.20083 200.703263 
L 844.718313 200.47281 
L 847.235795 201.992585 
L 849.753278 203.345056 
L 852.27076 203.495698 
L 854.788243 203.4372 
L 857.305726 204.086747 
L 859.823208 204.260057 
L 862.340691 204.179167 
L 864.858173 204.83689 
L 867.375656 204.736084 
L 869.893138 205.250914 
L 872.410621 204.896518 
L 874.928103 205.450568 
L 877.445586 205.027786 
L 879.963068 205.199121 
L 882.480551 205.143229 
L 884.998033 204.759216 
L 887.515516 203.44887 
L 890.032998 202.858945 
L 892.550481 202.80175 
L 895.067963 203.223433 
L 897.585446 203.96141 
L 900.102928 204.853412 
L 902.620411 204.895764 
L 905.137893 205.114735 
L 907.655376 204.660196 
L 910.172858 203.980841 
L 912.690341 203.099443 
L 915.207823 202.686575 
L 917.725306 201.978458 
L 920.242788 202.040252 
L 925.277753 203.008435 
L 930.312719 204.688474 
L 932.830201 204.901591 
L 937.865166 204.851376 
L 940.382649 204.737387 
L 945.417614 205.108057 
L 947.935096 205.244314 
L 950.452579 205.62548 
L 952.970061 205.775405 
L 955.487544 204.999467 
L 960.522509 205.041541 
L 963.039991 204.733614 
L 965.557474 205.10203 
L 968.074956 205.912965 
L 973.109921 205.252926 
L 975.627404 205.008434 
L 980.662369 203.219519 
L 983.179851 202.985751 
L 985.697334 203.356552 
L 988.214816 202.974593 
L 990.732299 203.058025 
L 993.249781 202.702562 
L 995.767264 202.026523 
L 998.284747 201.209784 
L 1000.802229 201.952277 
L 1005.837194 202.0945 
L 1008.354677 202.766202 
L 1010.872159 202.389351 
L 1013.389642 201.236458 
L 1015.907124 201.031091 
L 1018.424607 201.399648 
L 1020.942089 201.653919 
L 1023.459572 202.529933 
L 1025.977054 202.569291 
L 1028.494537 202.09174 
L 1031.012019 201.986122 
L 1038.564467 200.537397 
L 1043.599432 200.572674 
L 1046.116914 201.146206 
L 1048.634397 200.785034 
L 1051.151879 201.645563 
L 1053.669362 202.042378 
L 1056.186844 201.745048 
L 1058.704327 200.72195 
L 1061.221809 201.083447 
L 1063.739292 200.615202 
L 1066.256774 199.820828 
L 1068.774257 198.144669 
L 1071.29174 197.989906 
L 1073.809222 197.50746 
L 1076.326705 197.506756 
L 1078.844187 197.285446 
L 1081.36167 198.481671 
L 1083.879152 199.378553 
L 1088.914117 199.596238 
L 1091.4316 200.372872 
L 1093.949082 200.746995 
L 1096.466565 200.259929 
L 1096.466565 200.259929 
" style="fill:none;stroke:#947383;stroke-linecap:square;stroke-width:2;"/>
   </g>
   <g id="line2d_17">
    <path clip-path="url(#p3f17e0bcbc)" d="M 94.508523 222.649429 
L 97.026005 228.96 
L 358.844187 228.906344 
L 363.879152 228.844543 
L 368.914117 228.898199 
L 371.4316 228.821267 
L 378.984047 228.863743 
L 474.648383 228.941181 
L 477.165865 228.695403 
L 487.235795 228.714222 
L 489.753278 228.96 
L 562.760271 228.853328 
L 570.312719 228.808863 
L 582.900131 228.707357 
L 587.935096 228.601531 
L 592.970061 228.329885 
L 610.592439 227.516651 
L 630.732299 226.287991 
L 635.767264 226.159865 
L 638.284747 226.392364 
L 643.319712 225.838714 
L 645.837194 225.76729 
L 650.872159 224.98046 
L 655.907124 224.571407 
L 658.424607 224.146237 
L 663.459572 224.215087 
L 665.977054 224.008298 
L 668.494537 223.262606 
L 671.012019 223.170998 
L 673.529502 222.702447 
L 678.564467 221.443146 
L 681.081949 221.740729 
L 683.599432 221.55474 
L 686.116914 220.954765 
L 688.634397 220.638285 
L 691.151879 220.440377 
L 693.669362 219.338222 
L 696.186844 217.80969 
L 698.704327 217.125547 
L 701.221809 216.573342 
L 703.739292 215.721606 
L 706.256774 215.665674 
L 708.774257 216.017439 
L 711.29174 215.400785 
L 713.809222 214.41954 
L 716.326705 214.31462 
L 718.844187 213.927632 
L 721.36167 212.930197 
L 726.396635 213.104036 
L 728.914117 211.372259 
L 731.4316 210.192398 
L 733.949082 210.047289 
L 738.984047 206.809105 
L 741.50153 206.706572 
L 744.019012 205.295262 
L 746.536495 201.344567 
L 749.053977 198.183934 
L 751.57146 195.831643 
L 754.088942 192.468597 
L 756.606425 190.805801 
L 759.123907 190.116277 
L 761.64139 190.612944 
L 764.158872 188.366571 
L 766.676355 187.853396 
L 771.71132 186.209179 
L 774.228802 186.079718 
L 776.746285 184.694784 
L 779.263767 183.17767 
L 781.78125 179.947586 
L 784.298733 177.058734 
L 786.816215 173.543598 
L 789.333698 171.883256 
L 791.85118 169.23337 
L 794.368663 167.635371 
L 796.886145 166.761461 
L 799.403628 162.252622 
L 801.92111 164.318409 
L 806.956075 161.398057 
L 809.473558 159.324561 
L 811.99104 160.39434 
L 814.508523 155.392008 
L 817.026005 152.836666 
L 822.06097 150.49711 
L 824.578453 149.434455 
L 827.095935 149.213149 
L 829.613418 149.795965 
L 832.1309 149.557815 
L 834.648383 147.831535 
L 837.165865 146.515008 
L 839.683348 145.034793 
L 842.20083 143.700075 
L 844.718313 142.079285 
L 847.235795 142.617152 
L 849.753278 142.138058 
L 852.27076 142.007601 
L 854.788243 142.023198 
L 857.305726 141.15346 
L 859.823208 140.828423 
L 862.340691 140.149172 
L 864.858173 139.021967 
L 867.375656 138.387389 
L 869.893138 139.452549 
L 872.410621 139.278913 
L 879.963068 140.386131 
L 882.480551 140.088375 
L 884.998033 139.64881 
L 887.515516 138.894089 
L 890.032998 140.151519 
L 892.550481 138.813764 
L 895.067963 137.709067 
L 897.585446 137.37871 
L 900.102928 137.867435 
L 902.620411 136.307203 
L 905.137893 137.40432 
L 907.655376 138.727721 
L 910.172858 138.878839 
L 912.690341 138.825172 
L 915.207823 138.546514 
L 917.725306 139.298396 
L 920.242788 139.175036 
L 922.760271 139.908028 
L 927.795236 141.653216 
L 930.312719 141.393671 
L 932.830201 140.95689 
L 935.347684 141.042282 
L 937.865166 141.515462 
L 940.382649 141.629202 
L 942.900131 143.355015 
L 947.935096 143.079458 
L 950.452579 142.090375 
L 952.970061 141.984724 
L 955.487544 140.310542 
L 958.005026 139.457263 
L 963.039991 138.830472 
L 965.557474 139.036716 
L 968.074956 137.928036 
L 970.592439 138.271586 
L 973.109921 138.117796 
L 975.627404 137.845076 
L 978.144886 138.111269 
L 980.662369 138.118209 
L 983.179851 137.671206 
L 990.732299 134.065003 
L 993.249781 133.854356 
L 1000.802229 136.254502 
L 1003.319712 136.210073 
L 1005.837194 136.719701 
L 1008.354677 136.058398 
L 1010.872159 136.067499 
L 1013.389642 135.85979 
L 1015.907124 135.534284 
L 1018.424607 134.486708 
L 1020.942089 134.331738 
L 1023.459572 132.584109 
L 1025.977054 131.070033 
L 1028.494537 131.361604 
L 1031.012019 131.925592 
L 1033.529502 130.508239 
L 1036.046984 131.058085 
L 1038.564467 130.503855 
L 1041.081949 127.821566 
L 1043.599432 124.589964 
L 1046.116914 123.193078 
L 1048.634397 123.359676 
L 1051.151879 123.708182 
L 1053.669362 124.336432 
L 1056.186844 124.740433 
L 1058.704327 126.06154 
L 1061.221809 124.599461 
L 1063.739292 123.706633 
L 1066.256774 123.370802 
L 1068.774257 124.082644 
L 1071.29174 123.450189 
L 1073.809222 124.135686 
L 1076.326705 124.498767 
L 1078.844187 124.647679 
L 1081.36167 122.530649 
L 1083.879152 122.94682 
L 1086.396635 121.566013 
L 1088.914117 120.349088 
L 1091.4316 119.696147 
L 1093.949082 122.011111 
L 1096.466565 123.757927 
L 1098.984047 117.181992 
L 1101.50153 128.09137 
L 1104.019012 122.879419 
L 1106.536495 120.110598 
L 1106.536495 120.110598 
" style="fill:none;stroke:#96c6ad;stroke-linecap:square;stroke-width:2;"/>
   </g>
   <g id="line2d_18">
    <path clip-path="url(#p3f17e0bcbc)" d="M 147.375656 195.176946 
L 149.893138 196.633231 
L 154.928103 212.698143 
L 157.445586 215.853429 
L 159.963068 228.96 
L 212.830201 228.96 
L 215.347684 227.669201 
L 225.417614 227.669201 
L 227.935096 228.96 
L 230.452579 227.867786 
L 240.522509 227.867786 
L 243.039991 228.96 
L 343.739292 228.96 
L 346.256774 228.794898 
L 351.29174 228.794898 
L 353.809222 228.260774 
L 356.326705 228.159895 
L 358.844187 227.935099 
L 363.879152 227.935099 
L 366.396635 228.469223 
L 368.914117 228.570102 
L 371.4316 228.96 
L 373.949082 228.96 
L 376.466565 228.83092 
L 386.536495 228.83092 
L 389.053977 228.96 
L 429.333698 228.935677 
L 431.85118 228.623615 
L 434.368663 228.647939 
L 441.92111 228.368134 
L 444.438593 228.656794 
L 446.956075 228.656794 
L 454.508523 228.936599 
L 467.095935 228.96 
L 499.823208 228.96 
L 502.340691 228.581366 
L 512.410621 228.551854 
L 514.928103 228.930488 
L 522.480551 228.96 
L 524.998033 228.136417 
L 535.067963 228.123827 
L 537.585446 228.94741 
L 565.277753 228.874794 
L 567.795236 228.735795 
L 582.900131 228.699361 
L 585.417614 228.54835 
L 587.935096 228.598351 
L 590.452579 228.495071 
L 603.039991 228.614817 
L 615.627404 227.63746 
L 620.662369 227.353656 
L 625.697334 226.397324 
L 630.732299 226.418895 
L 633.249781 226.135633 
L 635.767264 226.322377 
L 638.284747 226.654307 
L 643.319712 225.535788 
L 645.837194 225.61202 
L 650.872159 224.739889 
L 655.907124 224.945595 
L 658.424607 224.627498 
L 660.942089 224.558607 
L 663.459572 224.930955 
L 665.977054 225.073754 
L 668.494537 225.037406 
L 671.012019 224.815852 
L 673.529502 224.810387 
L 676.046984 224.447945 
L 678.564467 223.160749 
L 681.081949 223.38075 
L 683.599432 223.308686 
L 686.116914 222.998881 
L 688.634397 221.784054 
L 691.151879 221.918791 
L 693.669362 220.935753 
L 696.186844 221.058352 
L 698.704327 221.321606 
L 701.221809 221.284519 
L 703.739292 220.769504 
L 708.774257 217.886133 
L 711.29174 216.716361 
L 713.809222 214.98335 
L 716.326705 215.601423 
L 718.844187 214.998731 
L 721.36167 214.1127 
L 723.879152 211.775336 
L 726.396635 210.341579 
L 728.914117 208.006273 
L 731.4316 203.769944 
L 733.949082 203.140731 
L 736.466565 201.826846 
L 738.984047 200.842198 
L 741.50153 196.816072 
L 744.019012 196.682738 
L 746.536495 189.991686 
L 749.053977 182.018574 
L 751.57146 180.250986 
L 756.606425 171.833909 
L 759.123907 172.397181 
L 761.64139 174.846165 
L 764.158872 169.368443 
L 766.676355 167.455835 
L 769.193837 167.516908 
L 771.71132 165.966531 
L 776.746285 163.339868 
L 779.263767 162.147412 
L 781.78125 158.689406 
L 784.298733 153.951775 
L 786.816215 148.955895 
L 789.333698 148.159964 
L 791.85118 147.202336 
L 794.368663 148.684043 
L 796.886145 151.385405 
L 799.403628 155.534078 
L 801.92111 155.892576 
L 804.438593 155.259796 
L 806.956075 152.066615 
L 809.473558 150.512837 
L 811.99104 149.167059 
L 814.508523 149.6284 
L 817.026005 151.82152 
L 819.543488 155.224075 
L 822.06097 156.333169 
L 824.578453 157.990973 
L 827.095935 159.496708 
L 829.613418 161.193487 
L 832.1309 161.081408 
L 834.648383 161.993095 
L 837.165865 161.340668 
L 839.683348 159.499855 
L 842.20083 158.174404 
L 844.718313 159.986388 
L 847.235795 160.779235 
L 849.753278 162.057399 
L 852.27076 163.129816 
L 854.788243 164.372065 
L 859.823208 161.051709 
L 862.340691 161.276532 
L 867.375656 160.896815 
L 869.893138 160.17671 
L 872.410621 160.407024 
L 874.928103 158.424419 
L 879.963068 158.971301 
L 882.480551 159.752749 
L 884.998033 159.466762 
L 887.515516 159.942719 
L 890.032998 158.475255 
L 892.550481 155.934269 
L 895.067963 156.200971 
L 897.585446 155.175845 
L 900.102928 153.490778 
L 902.620411 154.218844 
L 905.137893 152.926913 
L 907.655376 150.536231 
L 910.172858 149.866957 
L 912.690341 151.346867 
L 915.207823 151.153709 
L 917.725306 153.705 
L 920.242788 156.063985 
L 922.760271 155.390296 
L 925.277753 153.764628 
L 927.795236 152.966695 
L 930.312719 151.826823 
L 932.830201 150.445852 
L 935.347684 152.949555 
L 937.865166 154.470725 
L 940.382649 156.262375 
L 942.900131 155.208303 
L 945.417614 155.149328 
L 950.452579 155.383197 
L 952.970061 154.356612 
L 955.487544 155.397318 
L 958.005026 155.882003 
L 963.039991 153.166411 
L 965.557474 153.71329 
L 968.074956 154.957846 
L 970.592439 155.35833 
L 973.109921 156.14855 
L 975.627404 157.811527 
L 978.144886 155.022643 
L 980.662369 153.547508 
L 983.179851 154.641311 
L 988.214816 153.417658 
L 990.732299 157.568491 
L 993.249781 159.353563 
L 995.767264 155.339787 
L 998.284747 154.933274 
L 1000.802229 154.840006 
L 1003.319712 152.524842 
L 1005.837194 151.759901 
L 1008.354677 155.647653 
L 1010.872159 157.236055 
L 1013.389642 155.642642 
L 1015.907124 154.831237 
L 1018.424607 155.087329 
L 1020.942089 154.764511 
L 1023.459572 155.946938 
L 1025.977054 159.064915 
L 1028.494537 160.200206 
L 1031.012019 158.876056 
L 1033.529502 156.347896 
L 1036.046984 154.169293 
L 1038.564467 153.322103 
L 1041.081949 154.383992 
L 1043.599432 156.138289 
L 1046.116914 155.722304 
L 1048.634397 152.22223 
L 1051.151879 150.332713 
L 1053.669362 148.951451 
L 1056.186844 148.483657 
L 1058.704327 149.890154 
L 1061.221809 153.750677 
L 1063.739292 154.73004 
L 1066.256774 152.967415 
L 1068.774257 150.969206 
L 1071.29174 151.37613 
L 1073.809222 151.312519 
L 1076.326705 151.604091 
L 1078.844187 154.730991 
L 1081.36167 156.626809 
L 1083.879152 155.393593 
L 1086.396635 152.873006 
L 1088.914117 150.527222 
L 1093.949082 146.972315 
L 1096.466565 148.002836 
L 1098.984047 156.2086 
L 1101.50153 146.548145 
L 1104.019012 126.81355 
L 1106.536495 130.484241 
L 1109.053977 131.787588 
L 1109.053977 131.787588 
" style="fill:none;stroke:#525886;stroke-linecap:square;stroke-width:2;"/>
   </g>
   <g id="line2d_19">
    <path clip-path="url(#p3f17e0bcbc)" d="M 192.690341 217.600972 
L 195.207823 228.96 
L 232.970061 228.96 
L 235.487544 226.120243 
L 245.557474 226.120243 
L 248.074956 228.96 
L 336.186844 228.96 
L 338.704327 227.540121 
L 341.221809 226.404219 
L 346.256774 226.404219 
L 348.774257 223.248933 
L 351.29174 218.843669 
L 353.809222 219.494143 
L 356.326705 217.077328 
L 358.844187 202.878543 
L 361.36167 204.108569 
L 363.879152 209.933712 
L 366.396635 210.166718 
L 368.914117 212.583532 
L 371.4316 226.782318 
L 373.949082 227.806067 
L 376.466565 227.077924 
L 378.984047 227.330347 
L 381.50153 226.990256 
L 384.019012 226.990256 
L 386.536495 227.891766 
L 389.053977 228.619909 
L 391.57146 228.619909 
L 394.088942 228.96 
L 404.158872 228.96 
L 406.676355 228.749648 
L 409.193837 228.338089 
L 411.71132 227.341683 
L 414.228802 227.341683 
L 416.746285 226.597641 
L 419.263767 226.717699 
L 421.78125 227.129258 
L 424.298733 225.941236 
L 426.816215 221.572379 
L 429.333698 220.905361 
L 431.85118 220.995655 
L 434.368663 219.874698 
L 436.886145 206.156487 
L 439.403628 208.887023 
L 441.92111 210.298082 
L 444.438593 210.298082 
L 446.956075 210.86763 
L 449.473558 226.770269 
L 451.99104 228.408591 
L 454.508523 228.408591 
L 457.026005 228.022229 
L 459.543488 228.573638 
L 464.578453 228.573638 
L 467.095935 228.211886 
L 469.613418 228.598248 
L 477.165865 228.598248 
L 479.683348 228.96 
L 482.20083 228.3493 
L 484.718313 228.187028 
L 487.235795 227.051125 
L 492.27076 227.051125 
L 497.305726 220.976637 
L 499.823208 218.845563 
L 502.340691 217.542922 
L 504.858173 214.079804 
L 507.375656 209.208661 
L 509.893138 211.550533 
L 512.410621 212.658631 
L 514.928103 213.333701 
L 517.445586 215.162427 
L 519.963068 222.983967 
L 522.480551 219.515411 
L 524.998033 220.167481 
L 527.515516 216.752692 
L 530.032998 213.654157 
L 532.550481 212.87593 
L 535.067963 214.818071 
L 537.585446 211.605514 
L 542.620411 210.91269 
L 545.137893 209.168494 
L 547.655376 205.112772 
L 550.172858 204.220643 
L 552.690341 203.824807 
L 555.207823 202.742277 
L 557.725306 201.887187 
L 560.242788 205.840488 
L 562.760271 207.141427 
L 565.277753 205.528858 
L 567.795236 206.045842 
L 570.312719 202.655094 
L 572.830201 201.547209 
L 575.347684 196.817133 
L 580.382649 186.716279 
L 582.900131 185.061649 
L 587.935096 169.38579 
L 590.452579 168.016943 
L 592.970061 171.418969 
L 595.487544 166.839729 
L 598.005026 165.269724 
L 600.522509 169.329312 
L 603.039991 170.499314 
L 605.557474 163.203779 
L 608.074956 157.811076 
L 610.592439 161.489477 
L 613.109921 162.451362 
L 615.627404 162.29833 
L 618.144886 166.153043 
L 620.662369 171.094254 
L 623.179851 168.240004 
L 625.697334 170.467106 
L 628.214816 173.679586 
L 630.732299 175.374478 
L 633.249781 178.75416 
L 635.767264 173.146938 
L 638.284747 171.340648 
L 640.802229 170.488903 
L 643.319712 165.781235 
L 645.837194 165.390972 
L 648.354677 170.568281 
L 650.872159 166.681305 
L 653.389642 167.357467 
L 655.907124 171.84907 
L 658.424607 171.179807 
L 660.942089 169.970198 
L 663.459572 174.273816 
L 665.977054 172.371827 
L 668.494537 171.325671 
L 671.012019 173.334174 
L 673.529502 174.517838 
L 676.046984 170.418394 
L 678.564467 163.470822 
L 681.081949 162.311297 
L 683.599432 158.930595 
L 686.116914 155.917283 
L 688.634397 156.431917 
L 691.151879 160.617708 
L 693.669362 156.639301 
L 696.186844 151.594645 
L 698.704327 155.003091 
L 701.221809 159.595105 
L 703.739292 161.777997 
L 706.256774 164.817652 
L 708.774257 167.552642 
L 711.29174 164.331028 
L 713.809222 155.199561 
L 716.326705 152.039142 
L 718.844187 148.154597 
L 721.36167 143.945229 
L 723.879152 144.036523 
L 726.396635 150.742322 
L 728.914117 146.304514 
L 731.4316 143.2801 
L 733.949082 152.957258 
L 736.466565 153.307596 
L 738.984047 152.015404 
L 741.50153 158.535717 
L 744.019012 164.226623 
L 746.536495 152.385662 
L 749.053977 146.046029 
L 751.57146 149.090346 
L 754.088942 146.076612 
L 756.606425 143.319183 
L 759.123907 149.464184 
L 761.64139 158.456833 
L 764.158872 152.791108 
L 766.676355 154.904484 
L 769.193837 157.567088 
L 771.71132 163.365879 
L 774.228802 162.732057 
L 776.746285 168.270912 
L 779.263767 168.386227 
L 781.78125 165.041692 
L 784.298733 159.350213 
L 786.816215 162.375538 
L 789.333698 160.599425 
L 791.85118 151.619745 
L 794.368663 155.824007 
L 796.886145 151.364392 
L 799.403628 149.573121 
L 801.92111 143.712065 
L 804.438593 150.732928 
L 806.956075 152.681761 
L 809.473558 134.126268 
L 814.508523 114.225246 
L 817.026005 116.069297 
L 819.543488 114.715136 
L 822.06097 145.865044 
L 824.578453 157.004152 
L 827.095935 171.099859 
L 829.613418 175.891209 
L 832.1309 176.975736 
L 834.648383 173.05469 
L 837.165865 165.650535 
L 839.683348 171.201084 
L 842.20083 169.569245 
L 844.718313 172.727233 
L 847.235795 167.903711 
L 849.753278 174.739525 
L 852.27076 174.923614 
L 854.788243 173.974567 
L 857.305726 164.605594 
L 859.823208 171.68159 
L 862.340691 167.39822 
L 864.858173 169.89185 
L 867.375656 168.412019 
L 869.893138 176.666634 
L 872.410621 169.128836 
L 874.928103 168.80649 
L 877.445586 164.121273 
L 879.963068 152.692382 
L 882.480551 149.352071 
L 884.998033 159.055465 
L 887.515516 172.277522 
L 890.032998 179.187706 
L 892.550481 191.355859 
L 895.067963 186.103192 
L 897.585446 185.561158 
L 900.102928 175.676799 
L 902.620411 168.290718 
L 905.137893 167.761802 
L 907.655376 169.33367 
L 910.172858 164.705667 
L 912.690341 157.128706 
L 915.207823 154.614646 
L 917.725306 157.836664 
L 920.242788 162.58281 
L 922.760271 166.050942 
L 925.277753 171.559073 
L 927.795236 174.792927 
L 930.312719 176.415321 
L 932.830201 179.76012 
L 935.347684 175.978088 
L 937.865166 182.41464 
L 940.382649 187.323793 
L 942.900131 181.744756 
L 945.417614 182.514639 
L 947.935096 185.348927 
L 950.452579 182.324785 
L 952.970061 175.955785 
L 955.487544 176.806862 
L 958.005026 169.525224 
L 960.522509 156.324016 
L 963.039991 155.004982 
L 965.557474 153.26387 
L 968.074956 146.161465 
L 970.592439 141.016307 
L 973.109921 144.626889 
L 975.627404 142.030442 
L 978.144886 134.477188 
L 980.662369 137.576094 
L 983.179851 149.208827 
L 985.697334 154.858174 
L 988.214816 154.320506 
L 990.732299 159.44413 
L 993.249781 159.40273 
L 995.767264 140.790207 
L 998.284747 128.80823 
L 1003.319712 132.525853 
L 1005.837194 129.412512 
L 1008.354677 129.749021 
L 1010.872159 133.40613 
L 1015.907124 100.485181 
L 1018.424607 95.306648 
L 1020.942089 96.865073 
L 1023.459572 92.732228 
L 1025.977054 95.39052 
L 1028.494537 102.801839 
L 1031.012019 102.365911 
L 1033.529502 101.277609 
L 1036.046984 108.914641 
L 1038.564467 108.442573 
L 1041.081949 107.490002 
L 1043.599432 105.447116 
L 1046.116914 101.756862 
L 1048.634397 104.005003 
L 1051.151879 102.319717 
L 1053.669362 96.089725 
L 1056.186844 79.822172 
L 1058.704327 78.078655 
L 1061.221809 76.06561 
L 1063.739292 90.133585 
L 1066.256774 115.098153 
L 1068.774257 149.331516 
L 1071.29174 172.006424 
L 1073.809222 182.482228 
L 1076.326705 172.679009 
L 1078.844187 148.607486 
L 1081.36167 142.927971 
L 1083.879152 133.874436 
L 1086.396635 126.921098 
L 1088.914117 126.014375 
L 1091.4316 138.570605 
L 1093.949082 137.527429 
L 1096.466565 142.283727 
L 1098.984047 143.267427 
L 1101.50153 157.385077 
L 1101.50153 157.385077 
" style="fill:none;stroke:#937252;stroke-linecap:square;stroke-width:2;"/>
   </g>
   <g id="line2d_20">
    <path clip-path="url(#p3f17e0bcbc)" d="M 419.263767 214.761214 
L 421.78125 228.96 
L 472.1309 228.96 
L 474.648383 210.028286 
L 484.718313 210.028286 
L 487.235795 228.96 
L 524.998033 228.96 
L 530.032998 191.096572 
L 537.585446 191.096572 
L 542.620411 228.96 
L 575.347684 228.96 
L 577.865166 210.028286 
L 585.417614 210.028286 
L 587.935096 201.914694 
L 590.452579 220.846408 
L 592.970061 212.732816 
L 598.005026 212.732816 
L 600.522509 220.846408 
L 603.039991 220.846408 
L 605.557474 228.96 
L 608.074956 214.761214 
L 610.592439 214.761214 
L 613.109921 204.243595 
L 615.627404 194.777738 
L 618.144886 184.451349 
L 620.662369 198.650134 
L 623.179851 196.691681 
L 625.697334 204.50477 
L 628.214816 210.72519 
L 630.732299 218.582225 
L 633.249781 214.32259 
L 635.767264 207.969559 
L 638.284747 209.254211 
L 640.802229 210.133183 
L 643.319712 207.869609 
L 645.837194 209.336041 
L 648.354677 214.942994 
L 653.389642 211.150003 
L 655.907124 214.995507 
L 658.424607 215.95661 
L 660.942089 218.66114 
L 663.459572 216.743222 
L 665.977054 220.981665 
L 668.494537 220.721713 
L 671.012019 219.004118 
L 673.529502 219.004118 
L 676.046984 224.262927 
L 678.564467 224.262927 
L 681.081949 222.570546 
L 683.599432 223.686165 
L 686.116914 220.773594 
L 688.634397 217.085598 
L 691.151879 214.135201 
L 693.669362 216.974958 
L 696.186844 212.000973 
L 698.704327 208.67232 
L 701.221809 207.991459 
L 703.739292 206.398245 
L 706.256774 183.740608 
L 708.774257 186.664843 
L 711.29174 185.404823 
L 713.809222 189.77368 
L 716.326705 188.637777 
L 718.844187 203.315931 
L 721.36167 205.372615 
L 723.879152 200.288573 
L 726.396635 189.722035 
L 728.914117 182.780406 
L 731.4316 183.495394 
L 733.949082 178.878178 
L 736.466565 182.944194 
L 738.984047 189.325827 
L 741.50153 194.509511 
L 744.019012 197.306972 
L 746.536495 199.369301 
L 749.053977 207.888572 
L 751.57146 201.655433 
L 754.088942 204.487881 
L 756.606425 202.555462 
L 759.123907 200.37844 
L 761.64139 189.820369 
L 764.158872 187.508467 
L 766.676355 179.574291 
L 769.193837 180.690475 
L 771.71132 180.441465 
L 776.746285 187.873076 
L 779.263767 193.630754 
L 781.78125 188.197959 
L 784.298733 179.829592 
L 786.816215 174.719587 
L 789.333698 178.833064 
L 791.85118 172.706586 
L 794.368663 174.270827 
L 796.886145 183.462312 
L 799.403628 187.51526 
L 801.92111 183.144784 
L 804.438593 180.343476 
L 806.956075 182.096699 
L 809.473558 179.713989 
L 811.99104 182.316542 
L 814.508523 183.553819 
L 817.026005 193.618876 
L 819.543488 190.218401 
L 822.06097 192.850342 
L 824.578453 192.388357 
L 827.095935 191.314702 
L 829.613418 185.976454 
L 832.1309 183.511994 
L 834.648383 184.261299 
L 837.165865 178.935791 
L 839.683348 180.226589 
L 842.20083 186.735485 
L 844.718313 181.402382 
L 847.235795 172.790004 
L 849.753278 174.844407 
L 852.27076 175.734613 
L 854.788243 157.183145 
L 857.305726 163.42022 
L 859.823208 162.31909 
L 862.340691 148.395818 
L 864.858173 140.290969 
L 867.375656 142.530176 
L 869.893138 143.139021 
L 872.410621 151.030875 
L 874.928103 167.680968 
L 877.445586 178.271546 
L 879.963068 195.740892 
L 882.480551 202.730342 
L 884.998033 204.248537 
L 887.515516 202.50991 
L 890.032998 199.779375 
L 892.550481 196.883911 
L 895.067963 193.597912 
L 897.585446 190.920914 
L 900.102928 193.661992 
L 902.620411 189.192004 
L 905.137893 192.564215 
L 907.655376 198.029886 
L 910.172858 201.3207 
L 912.690341 200.233102 
L 915.207823 202.734351 
L 917.725306 199.445136 
L 920.242788 193.977028 
L 922.760271 187.602794 
L 925.277753 190.620775 
L 927.795236 192.326574 
L 930.312719 191.205102 
L 932.830201 185.928573 
L 935.347684 188.892543 
L 937.865166 189.179387 
L 940.382649 193.471712 
L 942.900131 188.101013 
L 945.417614 197.994575 
L 947.935096 201.537179 
L 950.452579 199.059889 
L 952.970061 193.211651 
L 955.487544 201.334169 
L 958.005026 196.65325 
L 960.522509 190.437933 
L 963.039991 190.163814 
L 965.557474 194.438432 
L 968.074956 191.900491 
L 970.592439 191.742945 
L 973.109921 198.302384 
L 975.627404 195.471365 
L 978.144886 183.887809 
L 980.662369 180.525265 
L 983.179851 180.68281 
L 985.697334 176.631209 
L 988.214816 181.518405 
L 990.732299 184.382026 
L 993.249781 184.263517 
L 995.767264 181.914846 
L 998.284747 190.766037 
L 1000.802229 187.890815 
L 1003.319712 193.579358 
L 1005.837194 188.320549 
L 1008.354677 179.851098 
L 1010.872159 165.652312 
L 1013.389642 172.378053 
L 1015.907124 175.846024 
L 1018.424607 177.423667 
L 1020.942089 188.782696 
L 1023.459572 202.981481 
L 1025.977054 197.818286 
L 1028.494537 202.025334 
L 1033.529502 173.762989 
L 1036.046984 163.885573 
L 1038.564467 164.679911 
L 1041.081949 141.445534 
L 1043.599432 157.221963 
L 1046.116914 178.858208 
L 1048.634397 169.80391 
L 1051.151879 167.073374 
L 1053.669362 174.818166 
L 1056.186844 180.623892 
L 1058.704327 177.634674 
L 1061.221809 196.566388 
L 1063.739292 203.665781 
L 1066.256774 200.223651 
L 1068.774257 207.039068 
L 1071.29174 200.562429 
L 1073.809222 186.363643 
L 1073.809222 186.363643 
" style="fill:none;stroke:#d18cad;stroke-linecap:square;stroke-width:2;"/>
   </g>
   <g id="line2d_21">
    <path clip-path="url(#p3f17e0bcbc)" d="M 394.088942 219.494143 
L 396.606425 228.96 
L 436.886145 228.96 
L 439.403628 223.796805 
L 449.473558 223.796805 
L 451.99104 228.96 
L 585.417614 228.96 
L 587.935096 227.465391 
L 598.005026 227.465391 
L 600.522509 228.96 
L 603.039991 227.289555 
L 608.074956 227.289555 
L 610.592439 226.579615 
L 613.109921 226.579615 
L 615.627404 228.250061 
L 618.144886 227.362637 
L 620.662369 227.362637 
L 623.179851 227.156525 
L 625.697334 227.156525 
L 628.214816 226.981502 
L 630.732299 227.868926 
L 633.249781 227.868926 
L 635.767264 228.538041 
L 638.284747 228.538041 
L 640.802229 228.713065 
L 645.837194 228.713065 
L 648.354677 228.96 
L 660.942089 228.96 
L 663.459572 228.569655 
L 673.529502 228.569655 
L 676.046984 227.551856 
L 686.116914 227.551856 
L 688.634397 228.96 
L 691.151879 228.96 
L 693.669362 228.443681 
L 703.739292 228.33985 
L 706.256774 228.85617 
L 723.879152 228.78977 
L 726.396635 228.678625 
L 728.914117 228.766543 
L 733.949082 228.503216 
L 738.984047 228.424802 
L 741.50153 227.862474 
L 746.536495 228.069588 
L 749.053977 227.781778 
L 751.57146 227.758857 
L 754.088942 228.126681 
L 756.606425 227.729403 
L 759.123907 226.562379 
L 761.64139 226.93359 
L 764.158872 226.689017 
L 769.193837 227.141597 
L 771.71132 228.123921 
L 774.228802 227.731328 
L 776.746285 227.649404 
L 779.263767 225.613736 
L 781.78125 222.941066 
L 784.298733 222.267833 
L 786.816215 220.548669 
L 789.333698 219.81551 
L 791.85118 220.213841 
L 794.368663 222.299964 
L 796.886145 221.554808 
L 799.403628 220.325674 
L 801.92111 221.289032 
L 804.438593 221.513847 
L 806.956075 220.623215 
L 809.473558 217.733382 
L 811.99104 215.992602 
L 814.508523 213.152333 
L 817.026005 210.97557 
L 819.543488 209.823638 
L 822.06097 212.159148 
L 824.578453 213.47417 
L 827.095935 211.11353 
L 829.613418 210.534363 
L 832.1309 210.244938 
L 834.648383 209.714883 
L 837.165865 210.543851 
L 839.683348 213.22906 
L 842.20083 214.149811 
L 844.718313 213.089479 
L 847.235795 211.846926 
L 849.753278 208.653312 
L 852.27076 204.075428 
L 854.788243 201.625234 
L 859.823208 197.654946 
L 862.340691 196.571722 
L 864.858173 197.454973 
L 867.375656 194.527437 
L 869.893138 192.664319 
L 872.410621 194.167658 
L 874.928103 195.937636 
L 877.445586 194.095512 
L 879.963068 194.648055 
L 882.480551 193.067993 
L 884.998033 187.38761 
L 890.032998 172.094587 
L 892.550481 163.971985 
L 895.067963 156.713596 
L 897.585446 150.340144 
L 900.102928 141.605666 
L 902.620411 140.710804 
L 905.137893 143.447729 
L 907.655376 141.789137 
L 910.172858 141.358381 
L 912.690341 146.111837 
L 915.207823 146.761676 
L 917.725306 142.303792 
L 920.242788 139.789687 
L 922.760271 140.117457 
L 925.277753 133.481091 
L 930.312719 124.316049 
L 932.830201 126.276666 
L 935.347684 121.353113 
L 937.865166 125.358494 
L 940.382649 128.466793 
L 942.900131 125.338008 
L 945.417614 119.475981 
L 947.935096 117.681993 
L 950.452579 115.180335 
L 952.970061 110.820945 
L 955.487544 112.668896 
L 958.005026 111.58847 
L 960.522509 108.833911 
L 963.039991 106.62717 
L 965.557474 107.003438 
L 968.074956 101.798094 
L 970.592439 101.066522 
L 973.109921 104.560563 
L 975.627404 110.928359 
L 978.144886 110.189809 
L 980.662369 116.191832 
L 983.179851 121.570915 
L 985.697334 123.461185 
L 988.214816 118.852487 
L 990.732299 114.625519 
L 993.249781 116.732934 
L 995.767264 119.294519 
L 998.284747 119.594987 
L 1000.802229 122.019621 
L 1003.319712 132.830434 
L 1005.837194 138.376264 
L 1008.354677 140.25238 
L 1010.872159 141.121996 
L 1013.389642 141.361149 
L 1015.907124 134.300131 
L 1018.424607 127.762338 
L 1020.942089 123.127329 
L 1023.459572 122.748093 
L 1028.494537 127.586036 
L 1031.012019 128.440812 
L 1033.529502 127.005253 
L 1036.046984 122.075362 
L 1038.564467 115.313423 
L 1041.081949 120.372403 
L 1043.599432 125.872328 
L 1046.116914 136.147038 
L 1048.634397 150.051038 
L 1051.151879 161.908909 
L 1053.669362 170.5533 
L 1056.186844 172.995351 
L 1061.221809 178.559053 
L 1063.739292 177.196651 
L 1066.256774 184.067031 
L 1068.774257 189.925305 
L 1071.29174 186.496496 
L 1073.809222 182.653216 
L 1076.326705 189.262995 
L 1081.36167 175.438051 
L 1083.879152 188.889532 
L 1086.396635 189.487376 
L 1088.914117 183.064116 
L 1091.4316 170.947819 
L 1093.949082 179.46709 
L 1093.949082 179.46709 
" style="fill:none;stroke:#a4a86f;stroke-linecap:square;stroke-width:2;"/>
   </g>
   <g id="line2d_22">
    <path clip-path="url(#p3f17e0bcbc)" d="M 540.102928 223.280486 
L 542.620411 228.96 
L 557.725306 228.96 
L 560.242788 222.649429 
L 567.795236 222.649429 
L 570.312719 218.280572 
L 572.830201 210.392357 
L 577.865166 210.392357 
L 580.382649 203.292964 
L 582.900131 207.661822 
L 585.417614 202.928893 
L 590.452579 202.928893 
L 592.970061 198.669257 
L 595.487544 185.76127 
L 598.005026 193.333956 
L 600.522509 183.311284 
L 603.039991 171.952255 
L 605.557474 171.478963 
L 608.074956 155.989378 
L 610.592439 167.348407 
L 613.109921 156.27574 
L 615.627404 142.392483 
L 618.144886 145.48709 
L 620.662369 157.657478 
L 623.179851 136.3593 
L 625.697334 121.105747 
L 628.214816 122.319319 
L 630.732299 102.659462 
L 633.249781 86.432278 
L 635.767264 102.997528 
L 638.284747 134.183224 
L 640.802229 149.474224 
L 645.837194 157.587816 
L 648.354677 138.934509 
L 650.872159 123.444925 
L 653.389642 95.671476 
L 655.907124 86.881752 
L 658.424607 67.950038 
L 660.942089 34.541131 
L 663.459572 36.262195 
L 665.977054 60.152216 
L 668.494537 93.282715 
L 673.529502 187.941286 
L 676.046984 187.941286 
L 678.564467 172.164858 
L 681.081949 136.667894 
L 683.599432 125.308865 
L 688.634397 87.445437 
L 691.151879 101.644222 
L 693.669362 90.672434 
L 696.186844 76.215488 
L 698.704327 95.147202 
L 701.221809 130.429033 
L 703.739292 129.482448 
L 706.256774 175.9512 
L 708.774257 188.660603 
L 711.29174 198.12646 
L 713.809222 200.708057 
L 716.326705 190.611143 
L 718.844187 173.5726 
L 721.36167 181.515977 
L 723.879152 162.584263 
L 726.396635 141.659737 
L 728.914117 151.756651 
L 731.4316 143.552908 
L 733.949082 108.48621 
L 736.466565 101.204782 
L 738.984047 86.97041 
L 741.50153 73.71821 
L 744.019012 64.009639 
L 746.536495 67.728369 
L 749.053977 54.184912 
L 754.088942 75.652123 
L 756.606425 63.017861 
L 759.123907 56.502401 
L 761.64139 43.013554 
L 764.158872 22.729575 
L 766.676355 17.76 
L 769.193837 36.947548 
L 771.71132 76.424475 
L 774.228802 127.200567 
L 776.746285 171.825321 
L 779.263767 181.179815 
L 781.78125 199.010849 
L 784.298733 181.070491 
L 786.816215 179.056018 
L 789.333698 177.28117 
L 791.85118 185.103743 
L 794.368663 187.969245 
L 796.886145 202.130894 
L 799.403628 203.625503 
L 801.92111 189.691056 
L 804.438593 160.523903 
L 806.956075 149.293225 
L 809.473558 136.69351 
L 811.99104 133.807369 
L 814.508523 143.206092 
L 817.026005 176.506091 
L 819.543488 194.450063 
L 822.06097 213.821368 
L 824.578453 217.992874 
L 827.095935 221.692174 
L 829.613418 220.981096 
L 832.1309 221.030075 
L 834.648383 219.848264 
L 837.165865 218.002421 
L 839.683348 220.072786 
L 842.20083 220.072786 
L 844.718313 219.790148 
L 847.235795 220.25248 
L 849.753278 222.580775 
L 852.27076 222.745554 
L 854.788243 224.864776 
L 857.305726 225.333923 
L 859.823208 221.852511 
L 862.340691 222.692736 
L 864.858173 223.068863 
L 867.375656 222.512048 
L 869.893138 222.653601 
L 872.410621 226.509799 
L 874.928103 226.890974 
L 877.445586 226.650317 
L 879.963068 226.671329 
L 882.480551 226.458911 
L 884.998033 224.993957 
L 887.515516 222.6639 
L 890.032998 222.35845 
L 892.550481 222.894253 
L 895.067963 222.564171 
L 900.102928 226.670644 
L 902.620411 227.216751 
L 905.137893 226.270166 
L 907.655376 227.136522 
L 910.172858 226.78659 
L 912.690341 223.900476 
L 917.725306 221.364632 
L 920.242788 220.355769 
L 922.760271 220.789932 
L 925.277753 223.311814 
L 927.795236 224.081611 
L 930.312719 225.503286 
L 932.830201 226.474449 
L 935.347684 226.711095 
L 940.382649 227.641156 
L 942.900131 228.42274 
L 945.417614 228.48064 
L 947.935096 228.198077 
L 950.452579 228.230491 
L 952.970061 228.009498 
L 955.487544 227.376095 
L 958.005026 227.441338 
L 963.039991 227.904203 
L 965.557474 227.519381 
L 968.074956 228.152784 
L 975.627404 227.91676 
L 978.144886 228.522574 
L 980.662369 228.273473 
L 983.179851 227.709116 
L 985.697334 226.756153 
L 988.214816 224.389689 
L 990.732299 223.318082 
L 993.249781 218.158123 
L 995.767264 219.01005 
L 998.284747 218.792051 
L 1000.802229 220.6017 
L 1003.319712 220.884485 
L 1005.837194 225.949333 
L 1008.354677 223.871462 
L 1010.872159 225.192279 
L 1013.389642 224.697333 
L 1015.907124 225.486154 
L 1018.424607 224.778605 
L 1020.942089 226.856476 
L 1023.459572 226.472725 
L 1025.977054 227.524487 
L 1028.494537 222.980876 
L 1031.012019 223.545126 
L 1033.529502 223.055512 
L 1036.046984 223.439263 
L 1038.564467 223.224942 
L 1041.081949 227.768553 
L 1043.599432 227.94228 
L 1046.116914 227.852351 
L 1048.634397 227.564051 
L 1051.151879 227.778372 
L 1058.704327 227.708956 
L 1061.221809 227.650944 
L 1063.739292 226.219134 
L 1066.256774 224.401689 
L 1068.774257 223.777946 
L 1071.29174 223.676543 
L 1073.809222 223.377456 
L 1076.326705 223.944365 
L 1078.844187 225.76181 
L 1081.36167 226.668115 
L 1083.879152 226.928644 
L 1086.396635 227.574043 
L 1088.914117 228.049936 
L 1091.4316 228.049936 
L 1093.949082 227.087306 
L 1093.949082 227.087306 
" style="fill:none;stroke:#d3d3d3;stroke-linecap:square;stroke-width:2;"/>
   </g>
   <g id="patch_3">
    <path d="M 43.78125 228.96 
L 43.78125 7.2 
" style="fill:none;stroke:#000000;stroke-linecap:square;stroke-linejoin:miter;stroke-width:0.8;"/>
   </g>
   <g id="patch_4">
    <path d="M 43.78125 228.96 
L 1159.78125 228.96 
" style="fill:none;stroke:#000000;stroke-linecap:square;stroke-linejoin:miter;stroke-width:0.8;"/>
   </g>
   <g id="legend_1">
    <g id="line2d_23">
     <path d="M 50.98125 17.67875 
L 66.98125 17.67875 
" style="fill:none;stroke:#947383;stroke-linecap:square;stroke-width:2;"/>
    </g>
    <g id="line2d_24"/>
    <g id="text_18">
     <!-- United Kingdom -->
     <g transform="translate(73.38125 20.47875)scale(0.08 -0.08)">
      <defs>
       <path d="M 556 4666 
L 1191 4666 
L 1191 1831 
Q 1191 1081 1462 751 
Q 1734 422 2344 422 
Q 2950 422 3222 751 
Q 3494 1081 3494 1831 
L 3494 4666 
L 4128 4666 
L 4128 1753 
Q 4128 841 3676 375 
Q 3225 -91 2344 -91 
Q 1459 -91 1007 375 
Q 556 841 556 1753 
L 556 4666 
z
" id="DejaVuSans-55" transform="scale(0.015625)"/>
       <path d="M 628 4666 
L 1259 4666 
L 1259 2694 
L 3353 4666 
L 4166 4666 
L 1850 2491 
L 4331 0 
L 3500 0 
L 1259 2247 
L 1259 0 
L 628 0 
L 628 4666 
z
" id="DejaVuSans-4b" transform="scale(0.015625)"/>
       <path d="M 3328 2828 
Q 3544 3216 3844 3400 
Q 4144 3584 4550 3584 
Q 5097 3584 5394 3201 
Q 5691 2819 5691 2113 
L 5691 0 
L 5113 0 
L 5113 2094 
Q 5113 2597 4934 2840 
Q 4756 3084 4391 3084 
Q 3944 3084 3684 2787 
Q 3425 2491 3425 1978 
L 3425 0 
L 2847 0 
L 2847 2094 
Q 2847 2600 2669 2842 
Q 2491 3084 2119 3084 
Q 1678 3084 1418 2786 
Q 1159 2488 1159 1978 
L 1159 0 
L 581 0 
L 581 3500 
L 1159 3500 
L 1159 2956 
Q 1356 3278 1631 3431 
Q 1906 3584 2284 3584 
Q 2666 3584 2933 3390 
Q 3200 3197 3328 2828 
z
" id="DejaVuSans-6d" transform="scale(0.015625)"/>
      </defs>
      <use xlink:href="#DejaVuSans-55"/>
      <use x="73.193359" xlink:href="#DejaVuSans-6e"/>
      <use x="136.572266" xlink:href="#DejaVuSans-69"/>
      <use x="164.355469" xlink:href="#DejaVuSans-74"/>
      <use x="203.564453" xlink:href="#DejaVuSans-65"/>
      <use x="265.087891" xlink:href="#DejaVuSans-64"/>
      <use x="328.564453" xlink:href="#DejaVuSans-20"/>
      <use x="360.351562" xlink:href="#DejaVuSans-4b"/>
      <use x="425.927734" xlink:href="#DejaVuSans-69"/>
      <use x="453.710938" xlink:href="#DejaVuSans-6e"/>
      <use x="517.089844" xlink:href="#DejaVuSans-67"/>
      <use x="580.566406" xlink:href="#DejaVuSans-64"/>
      <use x="644.042969" xlink:href="#DejaVuSans-6f"/>
      <use x="705.224609" xlink:href="#DejaVuSans-6d"/>
     </g>
    </g>
    <g id="line2d_25">
     <path d="M 50.98125 29.42125 
L 66.98125 29.42125 
" style="fill:none;stroke:#96c6ad;stroke-linecap:square;stroke-width:2;"/>
    </g>
    <g id="line2d_26"/>
    <g id="text_19">
     <!-- North America -->
     <g transform="translate(73.38125 32.22125)scale(0.08 -0.08)">
      <defs>
       <path d="M 628 4666 
L 1478 4666 
L 3547 763 
L 3547 4666 
L 4159 4666 
L 4159 0 
L 3309 0 
L 1241 3903 
L 1241 0 
L 628 0 
L 628 4666 
z
" id="DejaVuSans-4e" transform="scale(0.015625)"/>
       <path d="M 3513 2113 
L 3513 0 
L 2938 0 
L 2938 2094 
Q 2938 2591 2744 2837 
Q 2550 3084 2163 3084 
Q 1697 3084 1428 2787 
Q 1159 2491 1159 1978 
L 1159 0 
L 581 0 
L 581 4863 
L 1159 4863 
L 1159 2956 
Q 1366 3272 1645 3428 
Q 1925 3584 2291 3584 
Q 2894 3584 3203 3211 
Q 3513 2838 3513 2113 
z
" id="DejaVuSans-68" transform="scale(0.015625)"/>
       <path d="M 2188 4044 
L 1331 1722 
L 3047 1722 
L 2188 4044 
z
M 1831 4666 
L 2547 4666 
L 4325 0 
L 3669 0 
L 3244 1197 
L 1141 1197 
L 716 0 
L 50 0 
L 1831 4666 
z
" id="DejaVuSans-41" transform="scale(0.015625)"/>
      </defs>
      <use xlink:href="#DejaVuSans-4e"/>
      <use x="74.804688" xlink:href="#DejaVuSans-6f"/>
      <use x="135.986328" xlink:href="#DejaVuSans-72"/>
      <use x="177.099609" xlink:href="#DejaVuSans-74"/>
      <use x="216.308594" xlink:href="#DejaVuSans-68"/>
      <use x="279.6875" xlink:href="#DejaVuSans-20"/>
      <use x="311.474609" xlink:href="#DejaVuSans-41"/>
      <use x="379.882812" xlink:href="#DejaVuSans-6d"/>
      <use x="477.294922" xlink:href="#DejaVuSans-65"/>
      <use x="538.818359" xlink:href="#DejaVuSans-72"/>
      <use x="579.931641" xlink:href="#DejaVuSans-69"/>
      <use x="607.714844" xlink:href="#DejaVuSans-63"/>
      <use x="662.695312" xlink:href="#DejaVuSans-61"/>
     </g>
    </g>
    <g id="line2d_27">
     <path d="M 50.98125 41.16375 
L 66.98125 41.16375 
" style="fill:none;stroke:#525886;stroke-linecap:square;stroke-width:2;"/>
    </g>
    <g id="line2d_28"/>
    <g id="text_20">
     <!-- Europe -->
     <g transform="translate(73.38125 43.96375)scale(0.08 -0.08)">
      <defs>
       <path d="M 628 4666 
L 3578 4666 
L 3578 4134 
L 1259 4134 
L 1259 2753 
L 3481 2753 
L 3481 2222 
L 1259 2222 
L 1259 531 
L 3634 531 
L 3634 0 
L 628 0 
L 628 4666 
z
" id="DejaVuSans-45" transform="scale(0.015625)"/>
       <path d="M 1159 525 
L 1159 -1331 
L 581 -1331 
L 581 3500 
L 1159 3500 
L 1159 2969 
Q 1341 3281 1617 3432 
Q 1894 3584 2278 3584 
Q 2916 3584 3314 3078 
Q 3713 2572 3713 1747 
Q 3713 922 3314 415 
Q 2916 -91 2278 -91 
Q 1894 -91 1617 61 
Q 1341 213 1159 525 
z
M 3116 1747 
Q 3116 2381 2855 2742 
Q 2594 3103 2138 3103 
Q 1681 3103 1420 2742 
Q 1159 2381 1159 1747 
Q 1159 1113 1420 752 
Q 1681 391 2138 391 
Q 2594 391 2855 752 
Q 3116 1113 3116 1747 
z
" id="DejaVuSans-70" transform="scale(0.015625)"/>
      </defs>
      <use xlink:href="#DejaVuSans-45"/>
      <use x="63.183594" xlink:href="#DejaVuSans-75"/>
      <use x="126.5625" xlink:href="#DejaVuSans-72"/>
      <use x="165.425781" xlink:href="#DejaVuSans-6f"/>
      <use x="226.607422" xlink:href="#DejaVuSans-70"/>
      <use x="290.083984" xlink:href="#DejaVuSans-65"/>
     </g>
    </g>
    <g id="line2d_29">
     <path d="M 50.98125 52.90625 
L 66.98125 52.90625 
" style="fill:none;stroke:#937252;stroke-linecap:square;stroke-width:2;"/>
    </g>
    <g id="line2d_30"/>
    <g id="text_21">
     <!-- Asia -->
     <g transform="translate(73.38125 55.70625)scale(0.08 -0.08)">
      <defs>
       <path d="M 2834 3397 
L 2834 2853 
Q 2591 2978 2328 3040 
Q 2066 3103 1784 3103 
Q 1356 3103 1142 2972 
Q 928 2841 928 2578 
Q 928 2378 1081 2264 
Q 1234 2150 1697 2047 
L 1894 2003 
Q 2506 1872 2764 1633 
Q 3022 1394 3022 966 
Q 3022 478 2636 193 
Q 2250 -91 1575 -91 
Q 1294 -91 989 -36 
Q 684 19 347 128 
L 347 722 
Q 666 556 975 473 
Q 1284 391 1588 391 
Q 1994 391 2212 530 
Q 2431 669 2431 922 
Q 2431 1156 2273 1281 
Q 2116 1406 1581 1522 
L 1381 1569 
Q 847 1681 609 1914 
Q 372 2147 372 2553 
Q 372 3047 722 3315 
Q 1072 3584 1716 3584 
Q 2034 3584 2315 3537 
Q 2597 3491 2834 3397 
z
" id="DejaVuSans-73" transform="scale(0.015625)"/>
      </defs>
      <use xlink:href="#DejaVuSans-41"/>
      <use x="68.408203" xlink:href="#DejaVuSans-73"/>
      <use x="120.507812" xlink:href="#DejaVuSans-69"/>
      <use x="148.291016" xlink:href="#DejaVuSans-61"/>
     </g>
    </g>
    <g id="line2d_31">
     <path d="M 50.98125 64.64875 
L 66.98125 64.64875 
" style="fill:none;stroke:#d18cad;stroke-linecap:square;stroke-width:2;"/>
    </g>
    <g id="line2d_32"/>
    <g id="text_22">
     <!-- Africa -->
     <g transform="translate(73.38125 67.44875)scale(0.08 -0.08)">
      <defs>
       <path d="M 2375 4863 
L 2375 4384 
L 1825 4384 
Q 1516 4384 1395 4259 
Q 1275 4134 1275 3809 
L 1275 3500 
L 2222 3500 
L 2222 3053 
L 1275 3053 
L 1275 0 
L 697 0 
L 697 3053 
L 147 3053 
L 147 3500 
L 697 3500 
L 697 3744 
Q 697 4328 969 4595 
Q 1241 4863 1831 4863 
L 2375 4863 
z
" id="DejaVuSans-66" transform="scale(0.015625)"/>
      </defs>
      <use xlink:href="#DejaVuSans-41"/>
      <use x="64.783203" xlink:href="#DejaVuSans-66"/>
      <use x="99.988281" xlink:href="#DejaVuSans-72"/>
      <use x="141.101562" xlink:href="#DejaVuSans-69"/>
      <use x="168.884766" xlink:href="#DejaVuSans-63"/>
      <use x="223.865234" xlink:href="#DejaVuSans-61"/>
     </g>
    </g>
    <g id="line2d_33">
     <path d="M 50.98125 76.39125 
L 66.98125 76.39125 
" style="fill:none;stroke:#a4a86f;stroke-linecap:square;stroke-width:2;"/>
    </g>
    <g id="line2d_34"/>
    <g id="text_23">
     <!-- South America -->
     <g transform="translate(73.38125 79.19125)scale(0.08 -0.08)">
      <defs>
       <path d="M 3425 4513 
L 3425 3897 
Q 3066 4069 2747 4153 
Q 2428 4238 2131 4238 
Q 1616 4238 1336 4038 
Q 1056 3838 1056 3469 
Q 1056 3159 1242 3001 
Q 1428 2844 1947 2747 
L 2328 2669 
Q 3034 2534 3370 2195 
Q 3706 1856 3706 1288 
Q 3706 609 3251 259 
Q 2797 -91 1919 -91 
Q 1588 -91 1214 -16 
Q 841 59 441 206 
L 441 856 
Q 825 641 1194 531 
Q 1563 422 1919 422 
Q 2459 422 2753 634 
Q 3047 847 3047 1241 
Q 3047 1584 2836 1778 
Q 2625 1972 2144 2069 
L 1759 2144 
Q 1053 2284 737 2584 
Q 422 2884 422 3419 
Q 422 4038 858 4394 
Q 1294 4750 2059 4750 
Q 2388 4750 2728 4690 
Q 3069 4631 3425 4513 
z
" id="DejaVuSans-53" transform="scale(0.015625)"/>
      </defs>
      <use xlink:href="#DejaVuSans-53"/>
      <use x="63.476562" xlink:href="#DejaVuSans-6f"/>
      <use x="124.658203" xlink:href="#DejaVuSans-75"/>
      <use x="188.037109" xlink:href="#DejaVuSans-74"/>
      <use x="227.246094" xlink:href="#DejaVuSans-68"/>
      <use x="290.625" xlink:href="#DejaVuSans-20"/>
      <use x="322.412109" xlink:href="#DejaVuSans-41"/>
      <use x="390.820312" xlink:href="#DejaVuSans-6d"/>
      <use x="488.232422" xlink:href="#DejaVuSans-65"/>
      <use x="549.755859" xlink:href="#DejaVuSans-72"/>
      <use x="590.869141" xlink:href="#DejaVuSans-69"/>
      <use x="618.652344" xlink:href="#DejaVuSans-63"/>
      <use x="673.632812" xlink:href="#DejaVuSans-61"/>
     </g>
    </g>
    <g id="line2d_35">
     <path d="M 50.98125 88.13375 
L 66.98125 88.13375 
" style="fill:none;stroke:#d3d3d3;stroke-linecap:square;stroke-width:2;"/>
    </g>
    <g id="line2d_36"/>
    <g id="text_24">
     <!-- Oceania -->
     <g transform="translate(73.38125 90.93375)scale(0.08 -0.08)">
      <defs>
       <path d="M 2522 4238 
Q 1834 4238 1429 3725 
Q 1025 3213 1025 2328 
Q 1025 1447 1429 934 
Q 1834 422 2522 422 
Q 3209 422 3611 934 
Q 4013 1447 4013 2328 
Q 4013 3213 3611 3725 
Q 3209 4238 2522 4238 
z
M 2522 4750 
Q 3503 4750 4090 4092 
Q 4678 3434 4678 2328 
Q 4678 1225 4090 567 
Q 3503 -91 2522 -91 
Q 1538 -91 948 565 
Q 359 1222 359 2328 
Q 359 3434 948 4092 
Q 1538 4750 2522 4750 
z
" id="DejaVuSans-4f" transform="scale(0.015625)"/>
      </defs>
      <use xlink:href="#DejaVuSans-4f"/>
      <use x="78.710938" xlink:href="#DejaVuSans-63"/>
      <use x="133.691406" xlink:href="#DejaVuSans-65"/>
      <use x="195.214844" xlink:href="#DejaVuSans-61"/>
      <use x="256.494141" xlink:href="#DejaVuSans-6e"/>
      <use x="319.873047" xlink:href="#DejaVuSans-69"/>
      <use x="347.65625" xlink:href="#DejaVuSans-61"/>
     </g>
    </g>
   </g>
  </g>
 </g>
 <defs>
  <clipPath id="p3f17e0bcbc">
   <rect height="221.76" width="1116" x="43.78125" y="7.2"/>
  </clipPath>
 </defs>
</svg>
