<?xml version="1.0" encoding="utf-8" standalone="no"?>
<!DOCTYPE svg PUBLIC "-//W3C//DTD SVG 1.1//EN"
  "http://www.w3.org/Graphics/SVG/1.1/DTD/svg11.dtd">
<svg height="298.620937pt" version="1.1" viewBox="0 0 1166.98125 298.620937" width="1166.98125pt" xmlns="http://www.w3.org/2000/svg" xmlns:xlink="http://www.w3.org/1999/xlink">
 <metadata>
  <rdf:RDF xmlns:cc="http://creativecommons.org/ns#" xmlns:dc="http://purl.org/dc/elements/1.1/" xmlns:rdf="http://www.w3.org/1999/02/22-rdf-syntax-ns#">
   <cc:Work>
    <dc:type rdf:resource="http://purl.org/dc/dcmitype/StillImage"/>
    <dc:date>2021-08-13T08:51:46.167344</dc:date>
    <dc:format>image/svg+xml</dc:format>
    <dc:creator>
     <cc:Agent>
      <dc:title>Matplotlib v3.4.2, https://matplotlib.org/</dc:title>
     </cc:Agent>
    </dc:creator>
   </cc:Work>
  </rdf:RDF>
 </metadata>
 <defs>
  <style type="text/css">*{stroke-linecap:butt;stroke-linejoin:round;}</style>
 </defs>
 <g id="figure_1">
  <g id="patch_1">
   <path d="M 0 298.620937 
L 1166.98125 298.620937 
L 1166.98125 0 
L 0 0 
z
" style="fill:#ffffff;"/>
  </g>
  <g id="axes_1">
   <g id="patch_2">
    <path d="M 43.78125 228.96 
L 1159.78125 228.96 
L 1159.78125 7.2 
L 43.78125 7.2 
z
" style="fill:#ffffff;"/>
   </g>
   <g id="matplotlib.axis_1">
    <g id="xtick_1">
     <g id="line2d_1">
      <defs>
       <path d="M 0 0 
L 0 3.5 
" id="m4493832fd6" style="stroke:#000000;stroke-width:0.8;"/>
      </defs>
      <g>
       <use style="stroke:#000000;stroke-width:0.8;" x="116.982631" xlink:href="#m4493832fd6" y="228.96"/>
      </g>
     </g>
     <g id="text_1">
      <!-- 2020-10 -->
      <g transform="translate(119.742006 277.742812)rotate(-90)scale(0.1 -0.1)">
       <defs>
        <path d="M 1228 531 
L 3431 531 
L 3431 0 
L 469 0 
L 469 531 
Q 828 903 1448 1529 
Q 2069 2156 2228 2338 
Q 2531 2678 2651 2914 
Q 2772 3150 2772 3378 
Q 2772 3750 2511 3984 
Q 2250 4219 1831 4219 
Q 1534 4219 1204 4116 
Q 875 4013 500 3803 
L 500 4441 
Q 881 4594 1212 4672 
Q 1544 4750 1819 4750 
Q 2544 4750 2975 4387 
Q 3406 4025 3406 3419 
Q 3406 3131 3298 2873 
Q 3191 2616 2906 2266 
Q 2828 2175 2409 1742 
Q 1991 1309 1228 531 
z
" id="DejaVuSans-32" transform="scale(0.015625)"/>
        <path d="M 2034 4250 
Q 1547 4250 1301 3770 
Q 1056 3291 1056 2328 
Q 1056 1369 1301 889 
Q 1547 409 2034 409 
Q 2525 409 2770 889 
Q 3016 1369 3016 2328 
Q 3016 3291 2770 3770 
Q 2525 4250 2034 4250 
z
M 2034 4750 
Q 2819 4750 3233 4129 
Q 3647 3509 3647 2328 
Q 3647 1150 3233 529 
Q 2819 -91 2034 -91 
Q 1250 -91 836 529 
Q 422 1150 422 2328 
Q 422 3509 836 4129 
Q 1250 4750 2034 4750 
z
" id="DejaVuSans-30" transform="scale(0.015625)"/>
        <path d="M 313 2009 
L 1997 2009 
L 1997 1497 
L 313 1497 
L 313 2009 
z
" id="DejaVuSans-2d" transform="scale(0.015625)"/>
        <path d="M 794 531 
L 1825 531 
L 1825 4091 
L 703 3866 
L 703 4441 
L 1819 4666 
L 2450 4666 
L 2450 531 
L 3481 531 
L 3481 0 
L 794 0 
L 794 531 
z
" id="DejaVuSans-31" transform="scale(0.015625)"/>
       </defs>
       <use xlink:href="#DejaVuSans-32"/>
       <use x="63.623047" xlink:href="#DejaVuSans-30"/>
       <use x="127.246094" xlink:href="#DejaVuSans-32"/>
       <use x="190.869141" xlink:href="#DejaVuSans-30"/>
       <use x="254.492188" xlink:href="#DejaVuSans-2d"/>
       <use x="290.576172" xlink:href="#DejaVuSans-31"/>
       <use x="354.199219" xlink:href="#DejaVuSans-30"/>
      </g>
     </g>
    </g>
    <g id="xtick_2">
     <g id="line2d_2">
      <g>
       <use style="stroke:#000000;stroke-width:0.8;" x="216.510824" xlink:href="#m4493832fd6" y="228.96"/>
      </g>
     </g>
     <g id="text_2">
      <!-- 2020-11 -->
      <g transform="translate(219.270199 277.742812)rotate(-90)scale(0.1 -0.1)">
       <use xlink:href="#DejaVuSans-32"/>
       <use x="63.623047" xlink:href="#DejaVuSans-30"/>
       <use x="127.246094" xlink:href="#DejaVuSans-32"/>
       <use x="190.869141" xlink:href="#DejaVuSans-30"/>
       <use x="254.492188" xlink:href="#DejaVuSans-2d"/>
       <use x="290.576172" xlink:href="#DejaVuSans-31"/>
       <use x="354.199219" xlink:href="#DejaVuSans-31"/>
      </g>
     </g>
    </g>
    <g id="xtick_3">
     <g id="line2d_3">
      <g>
       <use style="stroke:#000000;stroke-width:0.8;" x="312.828431" xlink:href="#m4493832fd6" y="228.96"/>
      </g>
     </g>
     <g id="text_3">
      <!-- 2020-12 -->
      <g transform="translate(315.587806 277.742812)rotate(-90)scale(0.1 -0.1)">
       <use xlink:href="#DejaVuSans-32"/>
       <use x="63.623047" xlink:href="#DejaVuSans-30"/>
       <use x="127.246094" xlink:href="#DejaVuSans-32"/>
       <use x="190.869141" xlink:href="#DejaVuSans-30"/>
       <use x="254.492188" xlink:href="#DejaVuSans-2d"/>
       <use x="290.576172" xlink:href="#DejaVuSans-31"/>
       <use x="354.199219" xlink:href="#DejaVuSans-32"/>
      </g>
     </g>
    </g>
    <g id="xtick_4">
     <g id="line2d_4">
      <g>
       <use style="stroke:#000000;stroke-width:0.8;" x="412.356624" xlink:href="#m4493832fd6" y="228.96"/>
      </g>
     </g>
     <g id="text_4">
      <!-- 2021-01 -->
      <g transform="translate(415.115999 277.742812)rotate(-90)scale(0.1 -0.1)">
       <use xlink:href="#DejaVuSans-32"/>
       <use x="63.623047" xlink:href="#DejaVuSans-30"/>
       <use x="127.246094" xlink:href="#DejaVuSans-32"/>
       <use x="190.869141" xlink:href="#DejaVuSans-31"/>
       <use x="254.492188" xlink:href="#DejaVuSans-2d"/>
       <use x="290.576172" xlink:href="#DejaVuSans-30"/>
       <use x="354.199219" xlink:href="#DejaVuSans-31"/>
      </g>
     </g>
    </g>
    <g id="xtick_5">
     <g id="line2d_5">
      <g>
       <use style="stroke:#000000;stroke-width:0.8;" x="511.884817" xlink:href="#m4493832fd6" y="228.96"/>
      </g>
     </g>
     <g id="text_5">
      <!-- 2021-02 -->
      <g transform="translate(514.644192 277.742812)rotate(-90)scale(0.1 -0.1)">
       <use xlink:href="#DejaVuSans-32"/>
       <use x="63.623047" xlink:href="#DejaVuSans-30"/>
       <use x="127.246094" xlink:href="#DejaVuSans-32"/>
       <use x="190.869141" xlink:href="#DejaVuSans-31"/>
       <use x="254.492188" xlink:href="#DejaVuSans-2d"/>
       <use x="290.576172" xlink:href="#DejaVuSans-30"/>
       <use x="354.199219" xlink:href="#DejaVuSans-32"/>
      </g>
     </g>
    </g>
    <g id="xtick_6">
     <g id="line2d_6">
      <g>
       <use style="stroke:#000000;stroke-width:0.8;" x="601.78125" xlink:href="#m4493832fd6" y="228.96"/>
      </g>
     </g>
     <g id="text_6">
      <!-- 2021-03 -->
      <g transform="translate(604.540625 277.742812)rotate(-90)scale(0.1 -0.1)">
       <defs>
        <path d="M 2597 2516 
Q 3050 2419 3304 2112 
Q 3559 1806 3559 1356 
Q 3559 666 3084 287 
Q 2609 -91 1734 -91 
Q 1441 -91 1130 -33 
Q 819 25 488 141 
L 488 750 
Q 750 597 1062 519 
Q 1375 441 1716 441 
Q 2309 441 2620 675 
Q 2931 909 2931 1356 
Q 2931 1769 2642 2001 
Q 2353 2234 1838 2234 
L 1294 2234 
L 1294 2753 
L 1863 2753 
Q 2328 2753 2575 2939 
Q 2822 3125 2822 3475 
Q 2822 3834 2567 4026 
Q 2313 4219 1838 4219 
Q 1578 4219 1281 4162 
Q 984 4106 628 3988 
L 628 4550 
Q 988 4650 1302 4700 
Q 1616 4750 1894 4750 
Q 2613 4750 3031 4423 
Q 3450 4097 3450 3541 
Q 3450 3153 3228 2886 
Q 3006 2619 2597 2516 
z
" id="DejaVuSans-33" transform="scale(0.015625)"/>
       </defs>
       <use xlink:href="#DejaVuSans-32"/>
       <use x="63.623047" xlink:href="#DejaVuSans-30"/>
       <use x="127.246094" xlink:href="#DejaVuSans-32"/>
       <use x="190.869141" xlink:href="#DejaVuSans-31"/>
       <use x="254.492188" xlink:href="#DejaVuSans-2d"/>
       <use x="290.576172" xlink:href="#DejaVuSans-30"/>
       <use x="354.199219" xlink:href="#DejaVuSans-33"/>
      </g>
     </g>
    </g>
    <g id="xtick_7">
     <g id="line2d_7">
      <g>
       <use style="stroke:#000000;stroke-width:0.8;" x="701.309443" xlink:href="#m4493832fd6" y="228.96"/>
      </g>
     </g>
     <g id="text_7">
      <!-- 2021-04 -->
      <g transform="translate(704.068818 277.742812)rotate(-90)scale(0.1 -0.1)">
       <defs>
        <path d="M 2419 4116 
L 825 1625 
L 2419 1625 
L 2419 4116 
z
M 2253 4666 
L 3047 4666 
L 3047 1625 
L 3713 1625 
L 3713 1100 
L 3047 1100 
L 3047 0 
L 2419 0 
L 2419 1100 
L 313 1100 
L 313 1709 
L 2253 4666 
z
" id="DejaVuSans-34" transform="scale(0.015625)"/>
       </defs>
       <use xlink:href="#DejaVuSans-32"/>
       <use x="63.623047" xlink:href="#DejaVuSans-30"/>
       <use x="127.246094" xlink:href="#DejaVuSans-32"/>
       <use x="190.869141" xlink:href="#DejaVuSans-31"/>
       <use x="254.492188" xlink:href="#DejaVuSans-2d"/>
       <use x="290.576172" xlink:href="#DejaVuSans-30"/>
       <use x="354.199219" xlink:href="#DejaVuSans-34"/>
      </g>
     </g>
    </g>
    <g id="xtick_8">
     <g id="line2d_8">
      <g>
       <use style="stroke:#000000;stroke-width:0.8;" x="797.62705" xlink:href="#m4493832fd6" y="228.96"/>
      </g>
     </g>
     <g id="text_8">
      <!-- 2021-05 -->
      <g transform="translate(800.386425 277.742812)rotate(-90)scale(0.1 -0.1)">
       <defs>
        <path d="M 691 4666 
L 3169 4666 
L 3169 4134 
L 1269 4134 
L 1269 2991 
Q 1406 3038 1543 3061 
Q 1681 3084 1819 3084 
Q 2600 3084 3056 2656 
Q 3513 2228 3513 1497 
Q 3513 744 3044 326 
Q 2575 -91 1722 -91 
Q 1428 -91 1123 -41 
Q 819 9 494 109 
L 494 744 
Q 775 591 1075 516 
Q 1375 441 1709 441 
Q 2250 441 2565 725 
Q 2881 1009 2881 1497 
Q 2881 1984 2565 2268 
Q 2250 2553 1709 2553 
Q 1456 2553 1204 2497 
Q 953 2441 691 2322 
L 691 4666 
z
" id="DejaVuSans-35" transform="scale(0.015625)"/>
       </defs>
       <use xlink:href="#DejaVuSans-32"/>
       <use x="63.623047" xlink:href="#DejaVuSans-30"/>
       <use x="127.246094" xlink:href="#DejaVuSans-32"/>
       <use x="190.869141" xlink:href="#DejaVuSans-31"/>
       <use x="254.492188" xlink:href="#DejaVuSans-2d"/>
       <use x="290.576172" xlink:href="#DejaVuSans-30"/>
       <use x="354.199219" xlink:href="#DejaVuSans-35"/>
      </g>
     </g>
    </g>
    <g id="xtick_9">
     <g id="line2d_9">
      <g>
       <use style="stroke:#000000;stroke-width:0.8;" x="897.155243" xlink:href="#m4493832fd6" y="228.96"/>
      </g>
     </g>
     <g id="text_9">
      <!-- 2021-06 -->
      <g transform="translate(899.914618 277.742812)rotate(-90)scale(0.1 -0.1)">
       <defs>
        <path d="M 2113 2584 
Q 1688 2584 1439 2293 
Q 1191 2003 1191 1497 
Q 1191 994 1439 701 
Q 1688 409 2113 409 
Q 2538 409 2786 701 
Q 3034 994 3034 1497 
Q 3034 2003 2786 2293 
Q 2538 2584 2113 2584 
z
M 3366 4563 
L 3366 3988 
Q 3128 4100 2886 4159 
Q 2644 4219 2406 4219 
Q 1781 4219 1451 3797 
Q 1122 3375 1075 2522 
Q 1259 2794 1537 2939 
Q 1816 3084 2150 3084 
Q 2853 3084 3261 2657 
Q 3669 2231 3669 1497 
Q 3669 778 3244 343 
Q 2819 -91 2113 -91 
Q 1303 -91 875 529 
Q 447 1150 447 2328 
Q 447 3434 972 4092 
Q 1497 4750 2381 4750 
Q 2619 4750 2861 4703 
Q 3103 4656 3366 4563 
z
" id="DejaVuSans-36" transform="scale(0.015625)"/>
       </defs>
       <use xlink:href="#DejaVuSans-32"/>
       <use x="63.623047" xlink:href="#DejaVuSans-30"/>
       <use x="127.246094" xlink:href="#DejaVuSans-32"/>
       <use x="190.869141" xlink:href="#DejaVuSans-31"/>
       <use x="254.492188" xlink:href="#DejaVuSans-2d"/>
       <use x="290.576172" xlink:href="#DejaVuSans-30"/>
       <use x="354.199219" xlink:href="#DejaVuSans-36"/>
      </g>
     </g>
    </g>
    <g id="xtick_10">
     <g id="line2d_10">
      <g>
       <use style="stroke:#000000;stroke-width:0.8;" x="993.47285" xlink:href="#m4493832fd6" y="228.96"/>
      </g>
     </g>
     <g id="text_10">
      <!-- 2021-07 -->
      <g transform="translate(996.232225 277.742812)rotate(-90)scale(0.1 -0.1)">
       <defs>
        <path d="M 525 4666 
L 3525 4666 
L 3525 4397 
L 1831 0 
L 1172 0 
L 2766 4134 
L 525 4134 
L 525 4666 
z
" id="DejaVuSans-37" transform="scale(0.015625)"/>
       </defs>
       <use xlink:href="#DejaVuSans-32"/>
       <use x="63.623047" xlink:href="#DejaVuSans-30"/>
       <use x="127.246094" xlink:href="#DejaVuSans-32"/>
       <use x="190.869141" xlink:href="#DejaVuSans-31"/>
       <use x="254.492188" xlink:href="#DejaVuSans-2d"/>
       <use x="290.576172" xlink:href="#DejaVuSans-30"/>
       <use x="354.199219" xlink:href="#DejaVuSans-37"/>
      </g>
     </g>
    </g>
    <g id="xtick_11">
     <g id="line2d_11">
      <g>
       <use style="stroke:#000000;stroke-width:0.8;" x="1093.001043" xlink:href="#m4493832fd6" y="228.96"/>
      </g>
     </g>
     <g id="text_11">
      <!-- 2021-08 -->
      <g transform="translate(1095.760418 277.742812)rotate(-90)scale(0.1 -0.1)">
       <defs>
        <path d="M 2034 2216 
Q 1584 2216 1326 1975 
Q 1069 1734 1069 1313 
Q 1069 891 1326 650 
Q 1584 409 2034 409 
Q 2484 409 2743 651 
Q 3003 894 3003 1313 
Q 3003 1734 2745 1975 
Q 2488 2216 2034 2216 
z
M 1403 2484 
Q 997 2584 770 2862 
Q 544 3141 544 3541 
Q 544 4100 942 4425 
Q 1341 4750 2034 4750 
Q 2731 4750 3128 4425 
Q 3525 4100 3525 3541 
Q 3525 3141 3298 2862 
Q 3072 2584 2669 2484 
Q 3125 2378 3379 2068 
Q 3634 1759 3634 1313 
Q 3634 634 3220 271 
Q 2806 -91 2034 -91 
Q 1263 -91 848 271 
Q 434 634 434 1313 
Q 434 1759 690 2068 
Q 947 2378 1403 2484 
z
M 1172 3481 
Q 1172 3119 1398 2916 
Q 1625 2713 2034 2713 
Q 2441 2713 2670 2916 
Q 2900 3119 2900 3481 
Q 2900 3844 2670 4047 
Q 2441 4250 2034 4250 
Q 1625 4250 1398 4047 
Q 1172 3844 1172 3481 
z
" id="DejaVuSans-38" transform="scale(0.015625)"/>
       </defs>
       <use xlink:href="#DejaVuSans-32"/>
       <use x="63.623047" xlink:href="#DejaVuSans-30"/>
       <use x="127.246094" xlink:href="#DejaVuSans-32"/>
       <use x="190.869141" xlink:href="#DejaVuSans-31"/>
       <use x="254.492188" xlink:href="#DejaVuSans-2d"/>
       <use x="290.576172" xlink:href="#DejaVuSans-30"/>
       <use x="354.199219" xlink:href="#DejaVuSans-38"/>
      </g>
     </g>
    </g>
    <g id="text_12">
     <!-- Date -->
     <g transform="translate(589.830469 289.34125)scale(0.1 -0.1)">
      <defs>
       <path d="M 1259 4147 
L 1259 519 
L 2022 519 
Q 2988 519 3436 956 
Q 3884 1394 3884 2338 
Q 3884 3275 3436 3711 
Q 2988 4147 2022 4147 
L 1259 4147 
z
M 628 4666 
L 1925 4666 
Q 3281 4666 3915 4102 
Q 4550 3538 4550 2338 
Q 4550 1131 3912 565 
Q 3275 0 1925 0 
L 628 0 
L 628 4666 
z
" id="DejaVuSans-44" transform="scale(0.015625)"/>
       <path d="M 2194 1759 
Q 1497 1759 1228 1600 
Q 959 1441 959 1056 
Q 959 750 1161 570 
Q 1363 391 1709 391 
Q 2188 391 2477 730 
Q 2766 1069 2766 1631 
L 2766 1759 
L 2194 1759 
z
M 3341 1997 
L 3341 0 
L 2766 0 
L 2766 531 
Q 2569 213 2275 61 
Q 1981 -91 1556 -91 
Q 1019 -91 701 211 
Q 384 513 384 1019 
Q 384 1609 779 1909 
Q 1175 2209 1959 2209 
L 2766 2209 
L 2766 2266 
Q 2766 2663 2505 2880 
Q 2244 3097 1772 3097 
Q 1472 3097 1187 3025 
Q 903 2953 641 2809 
L 641 3341 
Q 956 3463 1253 3523 
Q 1550 3584 1831 3584 
Q 2591 3584 2966 3190 
Q 3341 2797 3341 1997 
z
" id="DejaVuSans-61" transform="scale(0.015625)"/>
       <path d="M 1172 4494 
L 1172 3500 
L 2356 3500 
L 2356 3053 
L 1172 3053 
L 1172 1153 
Q 1172 725 1289 603 
Q 1406 481 1766 481 
L 2356 481 
L 2356 0 
L 1766 0 
Q 1100 0 847 248 
Q 594 497 594 1153 
L 594 3053 
L 172 3053 
L 172 3500 
L 594 3500 
L 594 4494 
L 1172 4494 
z
" id="DejaVuSans-74" transform="scale(0.015625)"/>
       <path d="M 3597 1894 
L 3597 1613 
L 953 1613 
Q 991 1019 1311 708 
Q 1631 397 2203 397 
Q 2534 397 2845 478 
Q 3156 559 3463 722 
L 3463 178 
Q 3153 47 2828 -22 
Q 2503 -91 2169 -91 
Q 1331 -91 842 396 
Q 353 884 353 1716 
Q 353 2575 817 3079 
Q 1281 3584 2069 3584 
Q 2775 3584 3186 3129 
Q 3597 2675 3597 1894 
z
M 3022 2063 
Q 3016 2534 2758 2815 
Q 2500 3097 2075 3097 
Q 1594 3097 1305 2825 
Q 1016 2553 972 2059 
L 3022 2063 
z
" id="DejaVuSans-65" transform="scale(0.015625)"/>
      </defs>
      <use xlink:href="#DejaVuSans-44"/>
      <use x="77.001953" xlink:href="#DejaVuSans-61"/>
      <use x="138.28125" xlink:href="#DejaVuSans-74"/>
      <use x="177.490234" xlink:href="#DejaVuSans-65"/>
     </g>
    </g>
   </g>
   <g id="matplotlib.axis_2">
    <g id="ytick_1">
     <g id="line2d_12">
      <defs>
       <path d="M 0 0 
L -3.5 0 
" id="m739d450f4d" style="stroke:#000000;stroke-width:0.8;"/>
      </defs>
      <g>
       <use style="stroke:#000000;stroke-width:0.8;" x="43.78125" xlink:href="#m739d450f4d" y="228.96"/>
      </g>
     </g>
     <g id="text_13">
      <!-- 0.0 -->
      <g transform="translate(20.878125 232.759219)scale(0.1 -0.1)">
       <defs>
        <path d="M 684 794 
L 1344 794 
L 1344 0 
L 684 0 
L 684 794 
z
" id="DejaVuSans-2e" transform="scale(0.015625)"/>
       </defs>
       <use xlink:href="#DejaVuSans-30"/>
       <use x="63.623047" xlink:href="#DejaVuSans-2e"/>
       <use x="95.410156" xlink:href="#DejaVuSans-30"/>
      </g>
     </g>
    </g>
    <g id="ytick_2">
     <g id="line2d_13">
      <g>
       <use style="stroke:#000000;stroke-width:0.8;" x="43.78125" xlink:href="#m739d450f4d" y="186.145258"/>
      </g>
     </g>
     <g id="text_14">
      <!-- 0.2 -->
      <g transform="translate(20.878125 189.944477)scale(0.1 -0.1)">
       <use xlink:href="#DejaVuSans-30"/>
       <use x="63.623047" xlink:href="#DejaVuSans-2e"/>
       <use x="95.410156" xlink:href="#DejaVuSans-32"/>
      </g>
     </g>
    </g>
    <g id="ytick_3">
     <g id="line2d_14">
      <g>
       <use style="stroke:#000000;stroke-width:0.8;" x="43.78125" xlink:href="#m739d450f4d" y="143.330517"/>
      </g>
     </g>
     <g id="text_15">
      <!-- 0.4 -->
      <g transform="translate(20.878125 147.129735)scale(0.1 -0.1)">
       <use xlink:href="#DejaVuSans-30"/>
       <use x="63.623047" xlink:href="#DejaVuSans-2e"/>
       <use x="95.410156" xlink:href="#DejaVuSans-34"/>
      </g>
     </g>
    </g>
    <g id="ytick_4">
     <g id="line2d_15">
      <g>
       <use style="stroke:#000000;stroke-width:0.8;" x="43.78125" xlink:href="#m739d450f4d" y="100.515775"/>
      </g>
     </g>
     <g id="text_16">
      <!-- 0.6 -->
      <g transform="translate(20.878125 104.314994)scale(0.1 -0.1)">
       <use xlink:href="#DejaVuSans-30"/>
       <use x="63.623047" xlink:href="#DejaVuSans-2e"/>
       <use x="95.410156" xlink:href="#DejaVuSans-36"/>
      </g>
     </g>
    </g>
    <g id="ytick_5">
     <g id="line2d_16">
      <g>
       <use style="stroke:#000000;stroke-width:0.8;" x="43.78125" xlink:href="#m739d450f4d" y="57.701033"/>
      </g>
     </g>
     <g id="text_17">
      <!-- 0.8 -->
      <g transform="translate(20.878125 61.500252)scale(0.1 -0.1)">
       <use xlink:href="#DejaVuSans-30"/>
       <use x="63.623047" xlink:href="#DejaVuSans-2e"/>
       <use x="95.410156" xlink:href="#DejaVuSans-38"/>
      </g>
     </g>
    </g>
    <g id="ytick_6">
     <g id="line2d_17">
      <g>
       <use style="stroke:#000000;stroke-width:0.8;" x="43.78125" xlink:href="#m739d450f4d" y="14.886291"/>
      </g>
     </g>
     <g id="text_18">
      <!-- 1.0 -->
      <g transform="translate(20.878125 18.68551)scale(0.1 -0.1)">
       <use xlink:href="#DejaVuSans-31"/>
       <use x="63.623047" xlink:href="#DejaVuSans-2e"/>
       <use x="95.410156" xlink:href="#DejaVuSans-30"/>
      </g>
     </g>
    </g>
    <g id="text_19">
     <!-- Frequency (7 day rolling average) -->
     <g transform="translate(14.798437 202.529219)rotate(-90)scale(0.1 -0.1)">
      <defs>
       <path d="M 628 4666 
L 3309 4666 
L 3309 4134 
L 1259 4134 
L 1259 2759 
L 3109 2759 
L 3109 2228 
L 1259 2228 
L 1259 0 
L 628 0 
L 628 4666 
z
" id="DejaVuSans-46" transform="scale(0.015625)"/>
       <path d="M 2631 2963 
Q 2534 3019 2420 3045 
Q 2306 3072 2169 3072 
Q 1681 3072 1420 2755 
Q 1159 2438 1159 1844 
L 1159 0 
L 581 0 
L 581 3500 
L 1159 3500 
L 1159 2956 
Q 1341 3275 1631 3429 
Q 1922 3584 2338 3584 
Q 2397 3584 2469 3576 
Q 2541 3569 2628 3553 
L 2631 2963 
z
" id="DejaVuSans-72" transform="scale(0.015625)"/>
       <path d="M 947 1747 
Q 947 1113 1208 752 
Q 1469 391 1925 391 
Q 2381 391 2643 752 
Q 2906 1113 2906 1747 
Q 2906 2381 2643 2742 
Q 2381 3103 1925 3103 
Q 1469 3103 1208 2742 
Q 947 2381 947 1747 
z
M 2906 525 
Q 2725 213 2448 61 
Q 2172 -91 1784 -91 
Q 1150 -91 751 415 
Q 353 922 353 1747 
Q 353 2572 751 3078 
Q 1150 3584 1784 3584 
Q 2172 3584 2448 3432 
Q 2725 3281 2906 2969 
L 2906 3500 
L 3481 3500 
L 3481 -1331 
L 2906 -1331 
L 2906 525 
z
" id="DejaVuSans-71" transform="scale(0.015625)"/>
       <path d="M 544 1381 
L 544 3500 
L 1119 3500 
L 1119 1403 
Q 1119 906 1312 657 
Q 1506 409 1894 409 
Q 2359 409 2629 706 
Q 2900 1003 2900 1516 
L 2900 3500 
L 3475 3500 
L 3475 0 
L 2900 0 
L 2900 538 
Q 2691 219 2414 64 
Q 2138 -91 1772 -91 
Q 1169 -91 856 284 
Q 544 659 544 1381 
z
M 1991 3584 
L 1991 3584 
z
" id="DejaVuSans-75" transform="scale(0.015625)"/>
       <path d="M 3513 2113 
L 3513 0 
L 2938 0 
L 2938 2094 
Q 2938 2591 2744 2837 
Q 2550 3084 2163 3084 
Q 1697 3084 1428 2787 
Q 1159 2491 1159 1978 
L 1159 0 
L 581 0 
L 581 3500 
L 1159 3500 
L 1159 2956 
Q 1366 3272 1645 3428 
Q 1925 3584 2291 3584 
Q 2894 3584 3203 3211 
Q 3513 2838 3513 2113 
z
" id="DejaVuSans-6e" transform="scale(0.015625)"/>
       <path d="M 3122 3366 
L 3122 2828 
Q 2878 2963 2633 3030 
Q 2388 3097 2138 3097 
Q 1578 3097 1268 2742 
Q 959 2388 959 1747 
Q 959 1106 1268 751 
Q 1578 397 2138 397 
Q 2388 397 2633 464 
Q 2878 531 3122 666 
L 3122 134 
Q 2881 22 2623 -34 
Q 2366 -91 2075 -91 
Q 1284 -91 818 406 
Q 353 903 353 1747 
Q 353 2603 823 3093 
Q 1294 3584 2113 3584 
Q 2378 3584 2631 3529 
Q 2884 3475 3122 3366 
z
" id="DejaVuSans-63" transform="scale(0.015625)"/>
       <path d="M 2059 -325 
Q 1816 -950 1584 -1140 
Q 1353 -1331 966 -1331 
L 506 -1331 
L 506 -850 
L 844 -850 
Q 1081 -850 1212 -737 
Q 1344 -625 1503 -206 
L 1606 56 
L 191 3500 
L 800 3500 
L 1894 763 
L 2988 3500 
L 3597 3500 
L 2059 -325 
z
" id="DejaVuSans-79" transform="scale(0.015625)"/>
       <path id="DejaVuSans-20" transform="scale(0.015625)"/>
       <path d="M 1984 4856 
Q 1566 4138 1362 3434 
Q 1159 2731 1159 2009 
Q 1159 1288 1364 580 
Q 1569 -128 1984 -844 
L 1484 -844 
Q 1016 -109 783 600 
Q 550 1309 550 2009 
Q 550 2706 781 3412 
Q 1013 4119 1484 4856 
L 1984 4856 
z
" id="DejaVuSans-28" transform="scale(0.015625)"/>
       <path d="M 2906 2969 
L 2906 4863 
L 3481 4863 
L 3481 0 
L 2906 0 
L 2906 525 
Q 2725 213 2448 61 
Q 2172 -91 1784 -91 
Q 1150 -91 751 415 
Q 353 922 353 1747 
Q 353 2572 751 3078 
Q 1150 3584 1784 3584 
Q 2172 3584 2448 3432 
Q 2725 3281 2906 2969 
z
M 947 1747 
Q 947 1113 1208 752 
Q 1469 391 1925 391 
Q 2381 391 2643 752 
Q 2906 1113 2906 1747 
Q 2906 2381 2643 2742 
Q 2381 3103 1925 3103 
Q 1469 3103 1208 2742 
Q 947 2381 947 1747 
z
" id="DejaVuSans-64" transform="scale(0.015625)"/>
       <path d="M 1959 3097 
Q 1497 3097 1228 2736 
Q 959 2375 959 1747 
Q 959 1119 1226 758 
Q 1494 397 1959 397 
Q 2419 397 2687 759 
Q 2956 1122 2956 1747 
Q 2956 2369 2687 2733 
Q 2419 3097 1959 3097 
z
M 1959 3584 
Q 2709 3584 3137 3096 
Q 3566 2609 3566 1747 
Q 3566 888 3137 398 
Q 2709 -91 1959 -91 
Q 1206 -91 779 398 
Q 353 888 353 1747 
Q 353 2609 779 3096 
Q 1206 3584 1959 3584 
z
" id="DejaVuSans-6f" transform="scale(0.015625)"/>
       <path d="M 603 4863 
L 1178 4863 
L 1178 0 
L 603 0 
L 603 4863 
z
" id="DejaVuSans-6c" transform="scale(0.015625)"/>
       <path d="M 603 3500 
L 1178 3500 
L 1178 0 
L 603 0 
L 603 3500 
z
M 603 4863 
L 1178 4863 
L 1178 4134 
L 603 4134 
L 603 4863 
z
" id="DejaVuSans-69" transform="scale(0.015625)"/>
       <path d="M 2906 1791 
Q 2906 2416 2648 2759 
Q 2391 3103 1925 3103 
Q 1463 3103 1205 2759 
Q 947 2416 947 1791 
Q 947 1169 1205 825 
Q 1463 481 1925 481 
Q 2391 481 2648 825 
Q 2906 1169 2906 1791 
z
M 3481 434 
Q 3481 -459 3084 -895 
Q 2688 -1331 1869 -1331 
Q 1566 -1331 1297 -1286 
Q 1028 -1241 775 -1147 
L 775 -588 
Q 1028 -725 1275 -790 
Q 1522 -856 1778 -856 
Q 2344 -856 2625 -561 
Q 2906 -266 2906 331 
L 2906 616 
Q 2728 306 2450 153 
Q 2172 0 1784 0 
Q 1141 0 747 490 
Q 353 981 353 1791 
Q 353 2603 747 3093 
Q 1141 3584 1784 3584 
Q 2172 3584 2450 3431 
Q 2728 3278 2906 2969 
L 2906 3500 
L 3481 3500 
L 3481 434 
z
" id="DejaVuSans-67" transform="scale(0.015625)"/>
       <path d="M 191 3500 
L 800 3500 
L 1894 563 
L 2988 3500 
L 3597 3500 
L 2284 0 
L 1503 0 
L 191 3500 
z
" id="DejaVuSans-76" transform="scale(0.015625)"/>
       <path d="M 513 4856 
L 1013 4856 
Q 1481 4119 1714 3412 
Q 1947 2706 1947 2009 
Q 1947 1309 1714 600 
Q 1481 -109 1013 -844 
L 513 -844 
Q 928 -128 1133 580 
Q 1338 1288 1338 2009 
Q 1338 2731 1133 3434 
Q 928 4138 513 4856 
z
" id="DejaVuSans-29" transform="scale(0.015625)"/>
      </defs>
      <use xlink:href="#DejaVuSans-46"/>
      <use x="50.269531" xlink:href="#DejaVuSans-72"/>
      <use x="89.132812" xlink:href="#DejaVuSans-65"/>
      <use x="150.65625" xlink:href="#DejaVuSans-71"/>
      <use x="214.132812" xlink:href="#DejaVuSans-75"/>
      <use x="277.511719" xlink:href="#DejaVuSans-65"/>
      <use x="339.035156" xlink:href="#DejaVuSans-6e"/>
      <use x="402.414062" xlink:href="#DejaVuSans-63"/>
      <use x="457.394531" xlink:href="#DejaVuSans-79"/>
      <use x="516.574219" xlink:href="#DejaVuSans-20"/>
      <use x="548.361328" xlink:href="#DejaVuSans-28"/>
      <use x="587.375" xlink:href="#DejaVuSans-37"/>
      <use x="650.998047" xlink:href="#DejaVuSans-20"/>
      <use x="682.785156" xlink:href="#DejaVuSans-64"/>
      <use x="746.261719" xlink:href="#DejaVuSans-61"/>
      <use x="807.541016" xlink:href="#DejaVuSans-79"/>
      <use x="866.720703" xlink:href="#DejaVuSans-20"/>
      <use x="898.507812" xlink:href="#DejaVuSans-72"/>
      <use x="937.371094" xlink:href="#DejaVuSans-6f"/>
      <use x="998.552734" xlink:href="#DejaVuSans-6c"/>
      <use x="1026.335938" xlink:href="#DejaVuSans-6c"/>
      <use x="1054.119141" xlink:href="#DejaVuSans-69"/>
      <use x="1081.902344" xlink:href="#DejaVuSans-6e"/>
      <use x="1145.28125" xlink:href="#DejaVuSans-67"/>
      <use x="1208.757812" xlink:href="#DejaVuSans-20"/>
      <use x="1240.544922" xlink:href="#DejaVuSans-61"/>
      <use x="1301.824219" xlink:href="#DejaVuSans-76"/>
      <use x="1361.003906" xlink:href="#DejaVuSans-65"/>
      <use x="1422.527344" xlink:href="#DejaVuSans-72"/>
      <use x="1463.640625" xlink:href="#DejaVuSans-61"/>
      <use x="1524.919922" xlink:href="#DejaVuSans-67"/>
      <use x="1588.396484" xlink:href="#DejaVuSans-65"/>
      <use x="1649.919922" xlink:href="#DejaVuSans-29"/>
     </g>
    </g>
   </g>
   <g id="line2d_18">
    <path clip-path="url(#p4f4c014e57)" d="M 120.193218 207.552629 
L 123.403805 228.96 
L 136.246152 228.96 
L 139.456739 218.256315 
L 142.667326 213.499121 
L 152.299087 213.499121 
L 155.509673 224.202806 
L 158.72026 225.666558 
L 171.562608 225.666558 
L 174.773195 227.313279 
L 187.615542 227.313279 
L 190.826129 220.397052 
L 197.247303 220.397052 
L 200.45789 217.72113 
L 203.668477 217.72113 
L 206.879064 226.284079 
L 213.300237 226.284079 
L 216.510824 228.96 
L 219.721411 228.96 
L 222.931998 227.098489 
L 226.142585 226.187538 
L 229.353172 226.187538 
L 232.563759 218.403039 
L 235.774346 218.403039 
L 238.984932 208.371566 
L 242.195519 208.855172 
L 245.406106 208.855172 
L 248.616693 216.63967 
L 251.82728 216.300767 
L 255.037867 227.787924 
L 258.248454 228.21527 
L 267.880214 228.243464 
L 271.090801 228.649291 
L 274.301388 228.024259 
L 280.722562 228.067375 
L 283.933149 228.334967 
L 287.143736 228.264199 
L 290.354322 228.42637 
L 293.564909 227.893406 
L 303.19667 227.964174 
L 306.407257 228.11452 
L 309.617844 228.435004 
L 312.828431 228.297777 
L 316.039018 227.955259 
L 325.670778 227.974876 
L 332.091952 228.288601 
L 335.302539 228.157267 
L 338.513126 228.168713 
L 341.723713 227.093056 
L 344.934299 226.820351 
L 348.144886 226.313183 
L 351.355473 225.226211 
L 354.56606 225.105755 
L 357.776647 225.612919 
L 360.987234 225.208175 
L 367.408408 224.984258 
L 370.618995 223.719525 
L 373.829581 221.321226 
L 377.040168 220.603083 
L 380.250755 217.734506 
L 383.461342 216.07925 
L 386.671929 214.969066 
L 389.882516 215.890101 
L 393.093103 213.576693 
L 396.30369 214.344281 
L 399.514276 215.529692 
L 402.724863 212.488805 
L 405.93545 208.973089 
L 409.146037 206.342061 
L 412.356624 204.898495 
L 415.567211 201.205364 
L 418.777798 200.974389 
L 421.988385 204.159702 
L 425.198972 202.619215 
L 428.409558 198.822993 
L 431.620145 192.714182 
L 434.830732 189.536215 
L 438.041319 184.092383 
L 441.251906 181.549584 
L 444.462493 185.273969 
L 447.67308 189.205778 
L 450.883667 189.637364 
L 454.094253 189.445195 
L 457.30484 190.584354 
L 460.515427 184.411507 
L 463.726014 181.333575 
L 466.936601 183.610733 
L 470.147188 181.513482 
L 473.357775 181.010107 
L 476.568362 181.94993 
L 479.778949 181.684682 
L 482.989535 176.978905 
L 486.200122 174.698255 
L 489.410709 175.261312 
L 492.621296 173.790656 
L 495.831883 173.476709 
L 499.04247 173.301828 
L 502.253057 172.843925 
L 505.463644 167.646587 
L 508.67423 163.166283 
L 511.884817 160.887412 
L 515.095404 155.874683 
L 518.305991 149.946726 
L 521.516578 147.177429 
L 524.727165 144.892666 
L 527.937752 140.924256 
L 531.148339 134.805048 
L 534.358925 133.224819 
L 537.569512 130.202638 
L 540.780099 128.816611 
L 543.990686 125.104772 
L 547.201273 125.837537 
L 550.41186 125.190297 
L 553.622447 123.397726 
L 556.833034 117.754761 
L 560.043621 117.316081 
L 563.254207 116.532529 
L 566.464794 114.345422 
L 569.675381 114.26302 
L 572.885968 117.725622 
L 576.096555 113.468346 
L 579.307142 108.589142 
L 582.517729 106.870557 
L 585.728316 101.340054 
L 588.938902 97.220636 
L 592.149489 95.430445 
L 595.360076 96.628885 
L 598.570663 91.120209 
L 601.78125 87.095604 
L 608.202424 80.409348 
L 611.413011 76.048781 
L 614.623598 76.439133 
L 617.834184 75.143508 
L 621.044771 72.101117 
L 624.255358 68.282639 
L 627.465945 65.850699 
L 630.676532 62.219865 
L 637.097706 59.429424 
L 640.308293 60.18523 
L 643.518879 59.71833 
L 646.729466 58.296591 
L 649.940053 58.600748 
L 653.15064 57.44746 
L 656.361227 57.242078 
L 659.571814 56.31704 
L 662.782401 57.156869 
L 665.992988 56.716184 
L 669.203575 53.633257 
L 672.414161 51.612357 
L 675.624748 50.263394 
L 678.835335 47.806952 
L 682.045922 44.828847 
L 685.256509 46.313203 
L 688.467096 46.525033 
L 691.677683 44.660945 
L 694.88827 45.161377 
L 698.098856 45.945269 
L 704.52003 44.732293 
L 707.730617 46.563416 
L 710.941204 47.663273 
L 714.151791 45.676865 
L 717.362378 45.303078 
L 720.572965 44.725536 
L 723.783551 42.195197 
L 726.994138 39.942598 
L 730.204725 40.703512 
L 733.415312 40.753636 
L 736.625899 39.541798 
L 739.836486 39.7111 
L 743.047073 39.635623 
L 746.25766 39.723138 
L 749.468247 38.646941 
L 752.678833 38.873244 
L 755.88942 38.707302 
L 759.100007 37.468437 
L 762.310594 38.095833 
L 765.521181 38.406685 
L 768.731768 38.870067 
L 771.942355 39.060586 
L 775.152942 39.783559 
L 778.363528 40.964303 
L 781.574115 39.94 
L 784.784702 39.694054 
L 787.995289 40.714915 
L 791.205876 40.400151 
L 794.416463 37.314285 
L 797.62705 38.359773 
L 800.837637 39.79353 
L 804.048224 37.530686 
L 807.25881 38.089829 
L 810.469397 39.311394 
L 813.679984 39.104548 
L 816.890571 37.627901 
L 820.101158 40.04857 
L 823.311745 40.565107 
L 826.522332 39.000625 
L 829.732919 39.04501 
L 832.943505 40.374996 
L 836.154092 40.765868 
L 839.364679 40.892521 
L 842.575266 42.058948 
L 845.785853 43.501428 
L 848.99644 40.67448 
L 852.207027 41.223422 
L 855.417614 41.908035 
L 858.628201 43.681474 
L 861.838787 43.993547 
L 865.049374 46.216546 
L 868.259961 46.25219 
L 871.470548 43.029957 
L 874.681135 42.455767 
L 877.891722 42.419101 
L 881.102309 44.850366 
L 884.312896 45.401266 
L 890.734069 52.932581 
L 893.944656 50.745926 
L 897.155243 51.233113 
L 900.36583 52.580823 
L 903.576417 56.858424 
L 906.787004 59.196972 
L 909.997591 64.854285 
L 913.208178 72.288548 
L 916.418764 70.486294 
L 919.629351 71.198318 
L 922.839938 73.175233 
L 926.050525 78.340161 
L 929.261112 77.956649 
L 932.471699 92.868324 
L 935.682286 102.620197 
L 938.892873 103.274382 
L 942.103459 106.845825 
L 945.314046 111.149788 
L 951.73522 107.614024 
L 954.945807 115.264154 
L 958.156394 120.802079 
L 964.577568 126.680771 
L 967.788154 131.343161 
L 970.998741 134.105963 
L 974.209328 136.561648 
L 977.419915 144.678862 
L 980.630502 150.479025 
L 983.841089 156.552062 
L 990.262263 169.592856 
L 993.47285 171.260845 
L 996.683436 175.405989 
L 999.894023 180.151276 
L 1003.10461 183.481036 
L 1006.315197 185.509963 
L 1012.736371 192.510057 
L 1015.946958 194.900408 
L 1019.157545 198.394636 
L 1022.368131 202.870321 
L 1025.578718 207.675632 
L 1028.789305 210.919707 
L 1035.210479 216.21124 
L 1038.421066 217.314934 
L 1041.631653 217.983381 
L 1044.84224 219.712783 
L 1048.052827 221.289424 
L 1054.474 222.244707 
L 1057.684587 222.913348 
L 1060.895174 223.465706 
L 1064.105761 223.815802 
L 1067.316348 224.551819 
L 1070.526935 225.436877 
L 1073.737522 225.780252 
L 1089.790456 226.588952 
L 1093.001043 226.714427 
L 1099.422217 227.396519 
L 1102.632804 227.422389 
L 1109.053977 227.124427 
L 1109.053977 227.124427 
" style="fill:none;stroke:#947383;stroke-linecap:square;stroke-width:2;"/>
   </g>
   <g id="line2d_19">
    <path clip-path="url(#p4f4c014e57)" d="M 110.561457 227.862186 
L 113.772044 228.96 
L 235.774346 228.892353 
L 238.984932 228.728312 
L 271.090801 228.96 
L 293.564909 228.685112 
L 299.986083 228.795176 
L 309.617844 228.96 
L 322.460191 228.925748 
L 348.144886 228.92393 
L 354.56606 228.723524 
L 377.040168 228.264486 
L 380.250755 228.396041 
L 386.671929 228.340758 
L 389.882516 228.576327 
L 393.093103 228.190389 
L 402.724863 227.604061 
L 409.146037 226.755811 
L 415.567211 226.559447 
L 418.777798 226.31527 
L 421.988385 226.480137 
L 425.198972 226.812154 
L 431.620145 226.477641 
L 434.830732 226.660858 
L 444.462493 226.281093 
L 450.883667 226.445917 
L 454.094253 226.059816 
L 457.30484 226.220248 
L 463.726014 225.871562 
L 466.936601 225.530031 
L 470.147188 225.752283 
L 473.357775 224.862087 
L 479.778949 224.233414 
L 482.989535 223.068317 
L 486.200122 222.445077 
L 489.410709 222.479194 
L 492.621296 222.049185 
L 495.831883 221.288956 
L 499.04247 221.521929 
L 502.253057 220.890519 
L 505.463644 220.373776 
L 508.67423 220.330095 
L 511.884817 219.771403 
L 515.095404 219.760202 
L 518.305991 219.587695 
L 524.727165 217.730481 
L 527.937752 217.694952 
L 531.148339 216.154136 
L 534.358925 215.324731 
L 537.569512 214.800287 
L 540.780099 213.806818 
L 543.990686 213.00421 
L 547.201273 211.759446 
L 550.41186 209.887625 
L 553.622447 208.17575 
L 556.833034 206.973795 
L 560.043621 204.785254 
L 566.464794 204.957144 
L 569.675381 203.786208 
L 572.885968 203.281824 
L 576.096555 200.715655 
L 579.307142 198.50764 
L 582.517729 194.743042 
L 585.728316 192.822793 
L 588.938902 189.691427 
L 592.149489 188.189928 
L 595.360076 184.630806 
L 598.570663 182.423486 
L 601.78125 181.367111 
L 608.202424 181.441665 
L 611.413011 181.702245 
L 614.623598 180.648436 
L 617.834184 178.55909 
L 621.044771 173.204156 
L 624.255358 169.18869 
L 627.465945 166.870427 
L 630.676532 165.182648 
L 633.887119 162.230892 
L 637.097706 162.053566 
L 640.308293 160.434413 
L 643.518879 155.923638 
L 646.729466 153.748622 
L 649.940053 151.310771 
L 653.15064 149.140236 
L 656.361227 146.216455 
L 659.571814 144.781096 
L 662.782401 142.630668 
L 665.992988 141.193896 
L 669.203575 139.060006 
L 675.624748 134.164845 
L 682.045922 130.595836 
L 685.256509 128.117221 
L 688.467096 125.933528 
L 691.677683 126.159768 
L 694.88827 123.439547 
L 698.098856 120.346929 
L 701.309443 117.901284 
L 704.52003 118.06974 
L 707.730617 116.311792 
L 710.941204 114.929914 
L 714.151791 114.761802 
L 717.362378 113.428414 
L 720.572965 111.549977 
L 723.783551 108.749543 
L 730.204725 105.99151 
L 733.415312 105.637429 
L 736.625899 105.155564 
L 739.836486 104.946738 
L 743.047073 104.984032 
L 746.25766 103.800885 
L 749.468247 103.599269 
L 752.678833 104.007539 
L 755.88942 104.008052 
L 759.100007 103.56975 
L 762.310594 102.395071 
L 765.521181 101.636485 
L 768.731768 99.652407 
L 771.942355 98.856284 
L 775.152942 98.538699 
L 778.363528 97.431967 
L 784.784702 96.408153 
L 787.995289 95.30395 
L 791.205876 94.514602 
L 794.416463 95.200515 
L 797.62705 95.50366 
L 800.837637 94.852556 
L 804.048224 95.213987 
L 807.25881 94.870023 
L 810.469397 95.287805 
L 813.679984 94.874237 
L 816.890571 94.913427 
L 820.101158 94.566916 
L 823.311745 93.941931 
L 826.522332 93.744672 
L 829.732919 92.976654 
L 832.943505 93.591548 
L 836.154092 94.048087 
L 839.364679 95.555915 
L 842.575266 96.683321 
L 848.99644 98.606636 
L 852.207027 99.264672 
L 855.417614 98.636768 
L 858.628201 98.138845 
L 861.838787 100.282361 
L 865.049374 101.069034 
L 868.259961 102.807239 
L 871.470548 103.999212 
L 874.681135 104.21888 
L 877.891722 103.755369 
L 881.102309 104.544514 
L 884.312896 106.437259 
L 887.523482 107.953812 
L 890.734069 110.610524 
L 893.944656 115.673128 
L 897.155243 118.475215 
L 900.36583 120.355329 
L 903.576417 124.43352 
L 906.787004 128.266184 
L 909.997591 127.360885 
L 913.208178 129.402742 
L 916.418764 131.238144 
L 919.629351 133.388012 
L 922.839938 134.677498 
L 926.050525 135.46331 
L 929.261112 135.286769 
L 932.471699 137.511323 
L 935.682286 139.092336 
L 942.103459 146.49585 
L 945.314046 151.152541 
L 948.524633 153.285201 
L 951.73522 154.064665 
L 954.945807 155.978 
L 958.156394 159.769217 
L 961.366981 162.644901 
L 964.577568 164.584449 
L 967.788154 167.486489 
L 974.209328 174.401562 
L 977.419915 178.261202 
L 980.630502 182.857002 
L 983.841089 188.305329 
L 987.051676 191.31067 
L 990.262263 194.477923 
L 993.47285 197.061678 
L 996.683436 199.084137 
L 999.894023 201.934272 
L 1003.10461 204.158837 
L 1006.315197 205.762425 
L 1009.525784 208.266908 
L 1012.736371 211.013369 
L 1015.946958 212.4619 
L 1019.157545 213.549755 
L 1022.368131 215.273269 
L 1025.578718 215.746479 
L 1028.789305 216.427048 
L 1031.999892 217.316696 
L 1035.210479 218.612184 
L 1038.421066 219.550553 
L 1041.631653 220.914115 
L 1044.84224 222.073858 
L 1048.052827 222.835668 
L 1051.263413 223.24129 
L 1057.684587 224.354096 
L 1060.895174 224.650347 
L 1070.526935 226.042098 
L 1073.737522 225.822865 
L 1076.948108 225.921335 
L 1080.158695 225.723328 
L 1086.579869 225.062569 
L 1089.790456 225.662927 
L 1093.001043 226.414613 
L 1096.21163 226.859137 
L 1099.422217 226.827742 
L 1099.422217 226.827742 
" style="fill:none;stroke:#96c6ad;stroke-linecap:square;stroke-width:2;"/>
   </g>
   <g id="line2d_20">
    <path clip-path="url(#p4f4c014e57)" d="M 306.407257 207.552629 
L 309.617844 228.96 
L 338.513126 228.96 
L 341.723713 214.688419 
L 344.934299 203.984734 
L 354.56606 203.984734 
L 357.776647 218.256315 
L 360.987234 228.96 
L 373.829581 228.96 
L 377.040168 211.834103 
L 380.250755 211.834103 
L 383.461342 207.552629 
L 389.882516 207.552629 
L 393.093103 224.678526 
L 396.30369 219.326683 
L 399.514276 204.579383 
L 402.724863 195.404796 
L 405.93545 190.052953 
L 409.146037 190.052953 
L 412.356624 178.278899 
L 415.567211 186.603988 
L 418.777798 184.511538 
L 421.988385 174.294384 
L 425.198972 160.022803 
L 428.409558 169.019318 
L 431.620145 163.922325 
L 434.830732 162.015596 
L 438.041319 168.827032 
L 441.251906 173.864061 
L 444.462493 175.671802 
L 447.67308 186.625529 
L 454.094253 198.157299 
L 457.30484 194.688576 
L 460.515427 192.151993 
L 463.726014 196.998945 
L 466.936601 199.133371 
L 470.147188 200.164693 
L 473.357775 211.177913 
L 476.568362 220.036135 
L 479.778949 217.638509 
L 482.989535 221.02997 
L 486.200122 220.41245 
L 489.410709 221.314504 
L 492.621296 219.22598 
L 495.831883 218.636531 
L 499.04247 214.68242 
L 502.253057 214.953019 
L 505.463644 214.094299 
L 508.67423 205.803492 
L 511.884817 204.033374 
L 515.095404 204.419589 
L 518.305991 200.096881 
L 521.516578 192.075757 
L 524.727165 196.635609 
L 527.937752 199.746081 
L 531.148339 205.097924 
L 534.358925 206.885792 
L 537.569512 203.546627 
L 540.780099 203.816047 
L 543.990686 201.181294 
L 547.201273 190.987308 
L 550.41186 194.857102 
L 553.622447 207.864112 
L 556.833034 199.749892 
L 560.043621 202.247418 
L 563.254207 208.549155 
L 566.464794 206.517006 
L 569.675381 195.373443 
L 572.885968 207.091598 
L 576.096555 204.368731 
L 579.307142 204.296652 
L 582.517729 206.660984 
L 585.728316 207.469954 
L 588.938902 200.658518 
L 592.149489 188.320189 
L 595.360076 179.440094 
L 598.570663 157.343751 
L 601.78125 156.057199 
L 604.991837 154.298859 
L 608.202424 161.379237 
L 611.413011 159.060105 
L 614.623598 167.074147 
L 617.834184 167.428254 
L 621.044771 169.916391 
L 624.255358 171.118208 
L 627.465945 169.680128 
L 630.676532 176.031766 
L 633.887119 179.306718 
L 637.097706 174.984076 
L 640.308293 175.31342 
L 643.518879 177.02297 
L 646.729466 173.568728 
L 649.940053 174.758471 
L 653.15064 168.945047 
L 656.361227 159.256201 
L 659.571814 159.163126 
L 662.782401 156.322514 
L 665.992988 147.069328 
L 669.203575 156.255874 
L 672.414161 160.620322 
L 675.624748 162.498928 
L 678.835335 159.043593 
L 682.045922 162.15513 
L 685.256509 165.498895 
L 688.467096 158.442392 
L 691.677683 165.206021 
L 694.88827 174.61026 
L 698.098856 168.287618 
L 701.309443 151.657471 
L 704.52003 164.244212 
L 707.730617 153.46124 
L 710.941204 156.329548 
L 714.151791 166.081795 
L 717.362378 173.394281 
L 720.572965 173.223477 
L 723.783551 182.856794 
L 726.994138 176.672442 
L 730.204725 182.618934 
L 733.415312 182.279135 
L 736.625899 179.118689 
L 739.836486 182.023975 
L 743.047073 182.985756 
L 746.25766 171.699557 
L 749.468247 173.610929 
L 752.678833 177.041286 
L 755.88942 177.347106 
L 759.100007 174.244588 
L 762.310594 181.688439 
L 765.521181 190.397347 
L 768.731768 193.229009 
L 771.942355 193.527717 
L 775.152942 196.382033 
L 778.363528 203.792277 
L 781.574115 200.342939 
L 784.784702 201.048676 
L 787.995289 195.41997 
L 791.205876 201.858776 
L 794.416463 194.888935 
L 797.62705 203.008972 
L 800.837637 206.019107 
L 804.048224 211.123764 
L 807.25881 210.468704 
L 810.469397 212.443493 
L 813.679984 206.422669 
L 816.890571 204.572489 
L 820.101158 205.409469 
L 823.311745 197.191159 
L 826.522332 193.952608 
L 829.732919 195.582176 
L 832.943505 195.113438 
L 836.154092 187.805134 
L 839.364679 196.716799 
L 845.785853 205.44941 
L 848.99644 204.961051 
L 852.207027 207.652465 
L 855.417614 209.49011 
L 858.628201 209.171074 
L 861.838787 196.93829 
L 865.049374 196.369495 
L 868.259961 204.65622 
L 871.470548 204.287271 
L 874.681135 205.923235 
L 877.891722 210.035981 
L 881.102309 211.499733 
L 884.312896 208.132281 
L 887.523482 210.533378 
L 890.734069 211.162576 
L 893.944656 215.989172 
L 897.155243 217.735093 
L 900.36583 215.393912 
L 903.576417 213.585979 
L 906.787004 211.250629 
L 909.997591 212.165474 
L 913.208178 212.693596 
L 916.418764 213.94236 
L 919.629351 215.036714 
L 922.839938 218.697685 
L 926.050525 219.292334 
L 929.261112 216.743837 
L 935.682286 220.225412 
L 938.892873 218.757392 
L 942.103459 218.469658 
L 945.314046 220.699593 
L 948.524633 222.06266 
L 951.73522 221.043261 
L 954.945807 223.131785 
L 958.156394 221.635571 
L 961.366981 222.000469 
L 964.577568 223.10437 
L 967.788154 223.354641 
L 970.998741 223.083662 
L 974.209328 225.700118 
L 977.419915 223.154161 
L 980.630502 222.993959 
L 983.841089 223.763086 
L 987.051676 223.044129 
L 990.262263 223.995568 
L 993.47285 226.563149 
L 996.683436 227.018625 
L 999.894023 227.018625 
L 1003.10461 227.429984 
L 1006.315197 227.429984 
L 1009.525784 228.106969 
L 1015.946958 227.008617 
L 1019.157545 227.587194 
L 1022.368131 227.587194 
L 1025.578718 227.861648 
L 1031.999892 228.96 
L 1054.474 228.96 
L 1057.684587 227.622039 
L 1057.684587 227.622039 
" style="fill:none;stroke:#525886;stroke-linecap:square;stroke-width:2;"/>
   </g>
   <g id="line2d_21">
    <path clip-path="url(#p4f4c014e57)" d="M 94.508523 228.744829 
L 100.929696 228.882013 
L 113.772044 228.795644 
L 126.614392 228.766558 
L 129.824978 228.930914 
L 139.456739 228.911013 
L 145.877913 228.911013 
L 149.0885 228.718154 
L 161.930847 228.691003 
L 165.141434 228.883862 
L 177.983782 228.96 
L 181.194369 228.695128 
L 184.404955 228.548502 
L 190.826129 228.001079 
L 194.036716 227.890446 
L 203.668477 228.566367 
L 206.879064 228.054697 
L 213.300237 227.593396 
L 219.721411 225.78683 
L 222.931998 226.206122 
L 226.142585 226.37307 
L 229.353172 224.394668 
L 232.563759 224.133416 
L 235.774346 224.998387 
L 238.984932 223.029096 
L 242.195519 221.738405 
L 245.406106 223.188335 
L 248.616693 223.082768 
L 251.82728 219.648121 
L 255.037867 217.701733 
L 258.248454 216.507554 
L 261.459041 213.34178 
L 264.669627 213.023098 
L 267.880214 211.979264 
L 271.090801 213.950514 
L 274.301388 210.672119 
L 277.511975 212.948338 
L 280.722562 208.26443 
L 283.933149 204.376867 
L 287.143736 204.801235 
L 290.354322 207.466367 
L 293.564909 207.363295 
L 296.775496 206.704934 
L 299.986083 209.601274 
L 303.19667 202.141245 
L 306.407257 197.744771 
L 309.617844 195.374652 
L 312.828431 198.356711 
L 316.039018 198.12917 
L 319.249604 203.329637 
L 322.460191 198.22667 
L 325.670778 193.881487 
L 328.881365 193.996891 
L 332.091952 188.08673 
L 335.302539 180.266329 
L 338.513126 182.943594 
L 341.723713 173.019612 
L 344.934299 165.43404 
L 348.144886 163.800369 
L 351.355473 157.238564 
L 354.56606 151.257108 
L 357.776647 150.749005 
L 360.987234 142.581333 
L 364.197821 134.026418 
L 367.408408 129.074552 
L 370.618995 126.385095 
L 373.829581 127.745096 
L 377.040168 128.38994 
L 380.250755 131.740424 
L 383.461342 132.902023 
L 386.671929 129.144241 
L 389.882516 120.560931 
L 393.093103 111.631469 
L 396.30369 106.066989 
L 399.514276 102.656909 
L 402.724863 95.946907 
L 405.93545 92.891084 
L 409.146037 90.721689 
L 415.567211 73.588469 
L 418.777798 71.371263 
L 421.988385 69.985118 
L 425.198972 69.711925 
L 428.409558 72.967713 
L 431.620145 73.551511 
L 434.830732 70.520114 
L 438.041319 67.055933 
L 441.251906 64.000079 
L 444.462493 59.309998 
L 447.67308 59.376585 
L 450.883667 60.391581 
L 454.094253 59.696383 
L 463.726014 54.812345 
L 466.936601 52.052282 
L 470.147188 50.042347 
L 473.357775 49.247331 
L 476.568362 47.766563 
L 479.778949 45.347065 
L 482.989535 44.06828 
L 486.200122 42.48289 
L 489.410709 39.956049 
L 492.621296 37.974135 
L 495.831883 36.407759 
L 499.04247 33.924507 
L 502.253057 32.138986 
L 505.463644 30.904919 
L 508.67423 30.397862 
L 511.884817 30.475884 
L 518.305991 32.889209 
L 521.516578 31.898726 
L 524.727165 30.733825 
L 527.937752 29.79036 
L 531.148339 28.416082 
L 534.358925 26.719459 
L 537.569512 26.511142 
L 540.780099 26.911155 
L 543.990686 26.106635 
L 547.201273 25.078378 
L 550.41186 24.736312 
L 553.622447 24.548254 
L 556.833034 23.485796 
L 560.043621 23.336774 
L 563.254207 23.438735 
L 569.675381 22.532194 
L 572.885968 22.480792 
L 579.307142 21.839745 
L 582.517729 21.857876 
L 585.728316 21.617243 
L 588.938902 21.029671 
L 595.360076 21.01931 
L 598.570663 20.759281 
L 601.78125 20.649096 
L 604.991837 20.839985 
L 611.413011 20.712202 
L 614.623598 20.512152 
L 617.834184 20.687861 
L 621.044771 21.203895 
L 624.255358 21.016615 
L 627.465945 20.580346 
L 633.887119 20.104281 
L 637.097706 19.604784 
L 640.308293 19.272321 
L 646.729466 19.312719 
L 649.940053 18.930531 
L 665.992988 19.110246 
L 669.203575 18.757067 
L 675.624748 18.716494 
L 691.677683 17.76 
L 694.88827 17.860994 
L 698.098856 18.307458 
L 701.309443 18.623119 
L 704.52003 19.242437 
L 707.730617 19.988583 
L 710.941204 20.424852 
L 714.151791 20.329299 
L 717.362378 21.383772 
L 720.572965 22.086595 
L 726.994138 22.468872 
L 730.204725 23.236488 
L 733.415312 22.805022 
L 736.625899 22.584613 
L 739.836486 22.733786 
L 743.047073 23.63909 
L 746.25766 25.250937 
L 749.468247 27.130584 
L 752.678833 29.225077 
L 759.100007 31.839236 
L 762.310594 32.999952 
L 765.521181 33.166696 
L 768.731768 32.975723 
L 771.942355 34.421507 
L 775.152942 37.24888 
L 778.363528 39.510318 
L 781.574115 40.648452 
L 784.784702 42.512994 
L 787.995289 44.194139 
L 791.205876 43.664414 
L 794.416463 44.670421 
L 797.62705 49.391244 
L 800.837637 55.445533 
L 804.048224 58.299472 
L 807.25881 60.894679 
L 810.469397 64.262682 
L 813.679984 66.275888 
L 816.890571 69.074566 
L 820.101158 75.472079 
L 823.311745 84.191884 
L 826.522332 91.029725 
L 829.732919 97.019225 
L 832.943505 101.901941 
L 836.154092 102.407873 
L 839.364679 104.999837 
L 845.785853 114.624427 
L 848.99644 121.118779 
L 852.207027 133.659782 
L 855.417614 140.883729 
L 858.628201 146.103776 
L 861.838787 153.107536 
L 865.049374 157.643802 
L 868.259961 160.861414 
L 871.470548 166.123551 
L 874.681135 172.311574 
L 877.891722 175.667785 
L 881.102309 177.066155 
L 884.312896 179.374126 
L 887.523482 183.682887 
L 890.734069 186.358065 
L 893.944656 190.806887 
L 897.155243 196.363267 
L 900.36583 200.436851 
L 903.576417 202.079686 
L 906.787004 203.52996 
L 909.997591 204.834103 
L 913.208178 207.105286 
L 916.418764 208.725804 
L 919.629351 210.897632 
L 922.839938 212.192328 
L 929.261112 215.679458 
L 932.471699 216.458356 
L 935.682286 217.617511 
L 938.892873 219.747817 
L 942.103459 221.431696 
L 945.314046 221.855651 
L 948.524633 223.417477 
L 951.73522 223.679184 
L 964.577568 225.544967 
L 967.788154 226.000112 
L 970.998741 226.247155 
L 977.419915 226.393894 
L 983.841089 226.578406 
L 999.894023 227.704022 
L 1003.10461 227.567869 
L 1009.525784 227.755924 
L 1015.946958 227.732015 
L 1019.157545 227.932249 
L 1022.368131 227.977932 
L 1028.789305 228.317592 
L 1048.052827 228.764254 
L 1064.105761 228.671741 
L 1073.737522 228.793138 
L 1080.158695 228.123163 
L 1089.790456 228.07203 
L 1093.001043 228.360105 
L 1096.21163 228.807613 
L 1105.84339 228.815523 
L 1109.053977 228.175976 
L 1109.053977 228.175976 
" style="fill:none;stroke:#937252;stroke-linecap:square;stroke-width:2;"/>
   </g>
   <g id="line2d_22">
    <path clip-path="url(#p4f4c014e57)" d="M 389.882516 226.02198 
L 393.093103 227.4031 
L 396.30369 227.098489 
L 399.514276 227.098489 
L 402.724863 226.347354 
L 405.93545 223.053912 
L 409.146037 219.161663 
L 412.356624 221.023173 
L 415.567211 219.925359 
L 418.777798 219.338535 
L 421.988385 221.188783 
L 425.198972 224.160285 
L 428.409558 219.572991 
L 431.620145 219.104412 
L 434.830732 217.836258 
L 438.041319 217.457547 
L 441.251906 218.378295 
L 444.462493 221.681146 
L 447.67308 219.217916 
L 450.883667 221.098358 
L 454.094253 220.743241 
L 457.30484 218.959293 
L 460.515427 220.243735 
L 463.726014 223.480492 
L 466.936601 223.866367 
L 473.357775 224.821416 
L 476.568362 221.577875 
L 479.778949 219.888726 
L 482.989535 218.93111 
L 486.200122 220.57783 
L 489.410709 220.996045 
L 492.621296 223.798197 
L 495.831883 224.026804 
L 499.04247 224.109618 
L 502.253057 223.470592 
L 505.463644 224.411575 
L 508.67423 223.629686 
L 515.095404 225.092748 
L 518.305991 224.131223 
L 521.516578 222.228346 
L 524.727165 222.530877 
L 527.937752 224.007247 
L 531.148339 224.535824 
L 534.358925 223.374134 
L 537.569512 224.249458 
L 543.990686 223.289665 
L 547.201273 221.559776 
L 550.41186 224.322018 
L 556.833034 224.45507 
L 560.043621 220.213597 
L 563.254207 219.424971 
L 566.464794 213.496776 
L 569.675381 206.414215 
L 572.885968 205.968228 
L 576.096555 205.381583 
L 579.307142 205.260833 
L 582.517729 208.554274 
L 585.728316 215.26026 
L 588.938902 211.445357 
L 592.149489 213.800771 
L 595.360076 211.537585 
L 598.570663 208.163252 
L 601.78125 203.788574 
L 604.991837 206.600666 
L 608.202424 204.5363 
L 611.413011 206.783574 
L 614.623598 204.841351 
L 617.834184 206.159185 
L 621.044771 201.700372 
L 624.255358 200.676764 
L 627.465945 200.152629 
L 630.676532 201.480663 
L 633.887119 202.341879 
L 637.097706 207.586762 
L 640.308293 210.636088 
L 643.518879 209.342218 
L 646.729466 211.907224 
L 649.940053 209.766487 
L 656.361227 202.769934 
L 659.571814 204.420166 
L 662.782401 202.088175 
L 665.992988 203.971435 
L 669.203575 204.919408 
L 672.414161 207.454616 
L 675.624748 207.977601 
L 682.045922 211.861208 
L 685.256509 209.930905 
L 688.467096 212.429452 
L 691.677683 207.016468 
L 694.88827 203.678925 
L 698.098856 202.348411 
L 701.309443 205.650926 
L 704.52003 202.305207 
L 707.730617 204.666314 
L 710.941204 208.76861 
L 714.151791 208.415483 
L 717.362378 205.882121 
L 720.572965 208.760297 
L 723.783551 212.198632 
L 726.994138 212.588478 
L 730.204725 206.799001 
L 733.415312 205.317992 
L 736.625899 203.326087 
L 739.836486 198.652711 
L 743.047073 198.536932 
L 746.25766 204.761045 
L 749.468247 206.99974 
L 752.678833 205.860426 
L 755.88942 208.519351 
L 759.100007 208.982537 
L 762.310594 207.476939 
L 765.521181 208.479518 
L 768.731768 210.561058 
L 771.942355 211.155081 
L 775.152942 209.02874 
L 778.363528 211.559136 
L 781.574115 212.828434 
L 784.784702 213.642821 
L 787.995289 214.723349 
L 791.205876 217.117128 
L 794.416463 216.244788 
L 797.62705 216.158126 
L 800.837637 216.32631 
L 804.048224 214.607216 
L 807.25881 215.362161 
L 810.469397 216.345018 
L 813.679984 214.936998 
L 816.890571 211.94296 
L 820.101158 212.579248 
L 823.311745 210.977802 
L 826.522332 211.36951 
L 829.732919 212.912003 
L 832.943505 214.578867 
L 836.154092 216.511319 
L 839.364679 218.970806 
L 842.575266 217.071017 
L 845.785853 216.907115 
L 848.99644 218.732268 
L 852.207027 218.114222 
L 855.417614 216.14265 
L 858.628201 217.02413 
L 861.838787 218.131089 
L 865.049374 217.507553 
L 868.259961 218.231944 
L 871.470548 220.238814 
L 874.681135 218.79985 
L 877.891722 219.448827 
L 881.102309 220.397498 
L 884.312896 219.962526 
L 887.523482 220.11518 
L 890.734069 222.813401 
L 893.944656 222.984574 
L 897.155243 223.31103 
L 903.576417 224.287572 
L 909.997591 225.01252 
L 913.208178 224.140967 
L 916.418764 224.286176 
L 919.629351 223.716805 
L 922.839938 223.337332 
L 926.050525 222.755358 
L 929.261112 223.325651 
L 932.471699 222.92735 
L 935.682286 222.856776 
L 938.892873 223.796266 
L 942.103459 223.473686 
L 945.314046 222.887774 
L 948.524633 222.022713 
L 951.73522 220.988002 
L 954.945807 219.314684 
L 961.366981 220.26934 
L 964.577568 221.610427 
L 970.998741 223.527042 
L 974.209328 224.141195 
L 977.419915 224.05226 
L 983.841089 225.305343 
L 987.051676 226.176902 
L 990.262263 226.05541 
L 993.47285 226.738261 
L 996.683436 227.072751 
L 1003.10461 225.504917 
L 1006.315197 225.141585 
L 1009.525784 225.185287 
L 1012.736371 224.223158 
L 1015.946958 224.7786 
L 1019.157545 225.494366 
L 1022.368131 225.343891 
L 1025.578718 225.311729 
L 1028.789305 225.800767 
L 1035.210479 225.805828 
L 1038.421066 225.578659 
L 1041.631653 223.951749 
L 1044.84224 224.42484 
L 1048.052827 224.050646 
L 1051.263413 223.451 
L 1054.474 222.576937 
L 1057.684587 224.806872 
L 1060.895174 224.806872 
L 1067.316348 226.896639 
L 1070.526935 228.96 
L 1080.158695 228.96 
L 1083.369282 222.843608 
L 1083.369282 222.843608 
" style="fill:none;stroke:#d18cad;stroke-linecap:square;stroke-width:2;"/>
   </g>
   <g id="line2d_23">
    <path clip-path="url(#p4f4c014e57)" d="M 322.460191 220.397052 
L 325.670778 228.96 
L 335.302539 228.96 
L 338.513126 207.552629 
L 341.723713 207.552629 
L 344.934299 186.145258 
L 351.355473 186.145258 
L 354.56606 207.552629 
L 357.776647 207.552629 
L 360.987234 226.819263 
L 367.408408 226.819263 
L 370.618995 218.256315 
L 373.829581 212.139923 
L 377.040168 214.28066 
L 380.250755 214.28066 
L 383.461342 197.154763 
L 386.671929 205.717712 
L 389.882516 207.552629 
L 393.093103 195.875881 
L 396.30369 191.118688 
L 399.514276 206.103847 
L 402.724863 206.103847 
L 405.93545 207.327126 
L 409.146037 215.945678 
L 412.356624 206.431291 
L 415.567211 196.339244 
L 418.777798 196.339244 
L 421.988385 199.39744 
L 425.198972 181.048265 
L 428.409558 181.048265 
L 431.620145 182.577363 
L 434.830732 162.429249 
L 438.041319 149.255483 
L 441.251906 164.546462 
L 444.462493 162.762514 
L 447.67308 168.114357 
L 450.883667 172.206943 
L 454.094253 166.351935 
L 457.30484 161.764641 
L 460.515427 142.141218 
L 463.726014 138.930112 
L 466.936601 137.146165 
L 470.147188 145.471254 
L 473.357775 121.923146 
L 476.568362 133.13653 
L 479.778949 121.938829 
L 482.989535 103.079954 
L 486.200122 96.657743 
L 489.410709 109.502166 
L 492.621296 125.404784 
L 495.831883 119.476589 
L 499.04247 143.942156 
L 502.253057 118.253311 
L 505.463644 96.84594 
L 508.67423 91.137308 
L 511.884817 95.418782 
L 515.095404 93.379984 
L 518.305991 102.894372 
L 521.516578 145.709113 
L 524.727165 142.854797 
L 527.937752 164.262168 
L 531.148339 172.417357 
L 534.358925 180.028867 
L 537.569512 137.214125 
L 540.780099 154.340022 
L 543.990686 117.641671 
L 547.201273 96.99885 
L 550.41186 79.872953 
L 553.622447 79.872953 
L 556.833034 37.058211 
L 560.043621 48.067716 
L 563.254207 60.555349 
L 566.464794 60.555349 
L 569.675381 77.681246 
L 572.885968 106.224407 
L 576.096555 99.802196 
L 579.307142 105.510828 
L 582.517729 119.782409 
L 585.728316 133.23847 
L 588.938902 126.10268 
L 592.149489 115.398995 
L 595.360076 93.379984 
L 598.570663 114.787355 
L 601.78125 105.612768 
L 604.991837 105.612768 
L 608.202424 128.447297 
L 611.413011 128.447297 
L 614.623598 92.768345 
L 617.834184 101.942933 
L 621.044771 91.239247 
L 624.255358 89.812089 
L 627.465945 107.014441 
L 630.676532 107.014441 
L 633.887119 97.839853 
L 637.097706 103.603376 
L 640.308293 95.575612 
L 643.518879 78.373261 
L 646.729466 106.916422 
L 649.940053 116.091009 
L 653.15064 137.0867 
L 656.361227 143.467743 
L 659.571814 159.778121 
L 662.782401 157.994173 
L 665.992988 138.115901 
L 669.203575 116.221998 
L 672.414161 117.868719 
L 675.624748 110.732929 
L 678.835335 101.099612 
L 682.045922 122.506983 
L 685.256509 128.345357 
L 688.467096 106.937986 
L 691.677683 99.802196 
L 694.88827 106.462267 
L 698.098856 88.622791 
L 701.309443 83.270948 
L 704.52003 92.785335 
L 707.730617 94.980963 
L 710.941204 103.306052 
L 714.151791 105.50168 
L 717.362378 105.50168 
L 720.572965 122.746506 
L 723.783551 133.038511 
L 726.994138 126.6163 
L 730.204725 127.988567 
L 733.415312 127.502036 
L 736.625899 117.868719 
L 739.836486 111.497478 
L 743.047073 85.808633 
L 746.25766 97.404292 
L 749.468247 97.126274 
L 752.678833 97.515499 
L 755.88942 108.265521 
L 759.100007 142.517314 
L 762.310594 137.234085 
L 765.521181 152.165277 
L 768.731768 157.704247 
L 771.942355 152.255098 
L 775.152942 135.129201 
L 778.363528 137.736509 
L 781.574115 128.921709 
L 784.784702 135.059487 
L 787.995289 145.049593 
L 791.205876 153.612542 
L 794.416463 139.697751 
L 797.62705 150.401436 
L 800.837637 139.558742 
L 804.048224 126.933882 
L 807.25881 122.652408 
L 810.469397 131.215356 
L 813.679984 124.793145 
L 816.890571 137.581964 
L 820.101158 135.935243 
L 823.311745 157.342614 
L 826.522332 159.721211 
L 829.732919 134.032366 
L 832.943505 145.709113 
L 836.154092 141.427639 
L 839.364679 105.748688 
L 842.575266 114.073776 
L 845.785853 156.888518 
L 848.99644 156.888518 
L 852.207027 168.305783 
L 855.417614 203.984734 
L 858.628201 214.688419 
L 861.838787 171.873678 
L 865.049374 150.466307 
L 868.259961 157.602097 
L 874.681135 157.602097 
L 877.891722 191.85389 
L 881.102309 213.261261 
L 884.312896 216.504802 
L 887.523482 202.233222 
L 890.734069 202.233222 
L 893.944656 203.66038 
L 897.155243 189.388799 
L 900.36583 181.048265 
L 903.576417 181.048265 
L 906.787004 174.931874 
L 909.997591 169.83488 
L 913.208178 176.970671 
L 916.418764 180.028867 
L 919.629351 194.300447 
L 922.839938 200.416839 
L 926.050525 212.649622 
L 929.261112 212.649622 
L 932.471699 214.688419 
L 935.682286 214.688419 
L 938.892873 207.552629 
L 942.103459 203.66038 
L 945.314046 207.228275 
L 948.524633 214.364065 
L 951.73522 207.228275 
L 954.945807 211.305869 
L 958.156394 205.683732 
L 961.366981 209.251627 
L 964.577568 206.397311 
L 967.788154 209.251627 
L 970.998741 210.663102 
L 974.209328 218.036752 
L 977.419915 215.441919 
L 980.630502 216.649514 
L 983.841089 218.076672 
L 987.051676 216.551931 
L 990.262263 218.692668 
L 993.47285 217.929482 
L 996.683436 216.008307 
L 999.894023 213.396912 
L 1003.10461 209.012832 
L 1006.315197 207.715415 
L 1009.525784 209.646276 
L 1012.736371 209.920729 
L 1015.946958 215.386441 
L 1019.157545 222.941984 
L 1022.368131 224.2394 
L 1025.578718 225.206185 
L 1028.789305 227.887987 
L 1038.421066 227.887987 
L 1041.631653 228.348361 
L 1044.84224 228.96 
L 1070.526935 228.96 
L 1073.737522 228.559862 
L 1089.790456 228.518611 
L 1089.790456 228.518611 
" style="fill:none;stroke:#a4a86f;stroke-linecap:square;stroke-width:2;"/>
   </g>
   <g id="line2d_24">
    <path clip-path="url(#p4f4c014e57)" d="M 213.300237 227.802845 
L 216.510824 228.96 
L 261.459041 228.96 
L 264.669627 226.441486 
L 274.301388 226.441486 
L 277.511975 222.549237 
L 280.722562 225.067751 
L 287.143736 225.067751 
L 290.354322 224.438122 
L 293.564909 228.330371 
L 296.775496 228.330371 
L 299.986083 226.773472 
L 303.19667 225.965646 
L 306.407257 226.595275 
L 309.617844 226.595275 
L 312.828431 226.404987 
L 316.039018 227.961887 
L 319.249604 228.769712 
L 322.460191 228.567756 
L 325.670778 228.567756 
L 328.881365 228.758044 
L 332.091952 228.57108 
L 335.302539 228.2258 
L 338.513126 228.427756 
L 341.723713 228.274846 
L 344.934299 228.274846 
L 348.144886 228.46181 
L 354.56606 228.138003 
L 360.987234 227.856982 
L 364.197821 227.274468 
L 367.408408 227.488003 
L 370.618995 226.652168 
L 373.829581 225.232506 
L 380.250755 223.404848 
L 383.461342 222.74054 
L 386.671929 217.331782 
L 389.882516 216.994282 
L 393.093103 214.112364 
L 399.514276 209.872737 
L 402.724863 214.00485 
L 405.93545 214.928311 
L 409.146037 215.663361 
L 412.356624 215.457851 
L 415.567211 212.041847 
L 418.777798 203.943867 
L 421.988385 197.183478 
L 425.198972 194.384123 
L 428.409558 195.567067 
L 431.620145 196.110971 
L 434.830732 203.741568 
L 438.041319 210.438011 
L 441.251906 214.807482 
L 444.462493 209.980548 
L 447.67308 211.57511 
L 450.883667 211.973712 
L 454.094253 209.187271 
L 457.30484 207.62196 
L 460.515427 211.091956 
L 463.726014 209.274189 
L 466.936601 208.085442 
L 470.147188 204.721627 
L 473.357775 200.732995 
L 476.568362 194.738236 
L 479.778949 195.432067 
L 482.989535 195.940604 
L 486.200122 198.462225 
L 489.410709 201.551865 
L 492.621296 195.861767 
L 495.831883 189.26162 
L 499.04247 178.619646 
L 502.253057 173.392633 
L 505.463644 172.774164 
L 508.67423 171.150908 
L 511.884817 172.79257 
L 515.095404 165.247582 
L 518.305991 167.239516 
L 521.516578 163.466729 
L 524.727165 176.347361 
L 527.937752 183.034301 
L 531.148339 180.866466 
L 534.358925 179.909713 
L 537.569512 176.589073 
L 540.780099 170.184035 
L 543.990686 163.206214 
L 547.201273 177.121316 
L 550.41186 178.846285 
L 553.622447 175.489458 
L 556.833034 178.295042 
L 560.043621 178.364648 
L 563.254207 181.150124 
L 566.464794 179.099038 
L 569.675381 186.889288 
L 572.885968 180.899599 
L 576.096555 172.497554 
L 579.307142 163.530761 
L 582.517729 155.149562 
L 585.728316 150.279403 
L 588.938902 151.803258 
L 592.149489 166.887949 
L 595.360076 167.350615 
L 598.570663 156.342042 
L 601.78125 153.942874 
L 604.991837 144.95067 
L 608.202424 133.979442 
L 611.413011 136.024977 
L 614.623598 152.732578 
L 617.834184 155.13254 
L 621.044771 156.997416 
L 624.255358 163.867219 
L 627.465945 162.104123 
L 630.676532 161.74603 
L 633.887119 164.416731 
L 637.097706 170.392019 
L 640.308293 168.811178 
L 643.518879 162.566403 
L 646.729466 161.957287 
L 649.940053 153.146948 
L 653.15064 151.354351 
L 656.361227 147.470731 
L 659.571814 154.798459 
L 662.782401 154.288853 
L 665.992988 149.375809 
L 669.203575 151.30091 
L 672.414161 151.899197 
L 678.835335 145.839524 
L 682.045922 151.987848 
L 685.256509 144.067951 
L 688.467096 139.037196 
L 691.677683 139.553002 
L 694.88827 146.057974 
L 698.098856 150.696635 
L 701.309443 153.188544 
L 704.52003 151.293651 
L 707.730617 151.427115 
L 710.941204 131.61215 
L 714.151791 127.590981 
L 717.362378 132.46323 
L 720.572965 134.585274 
L 723.783551 133.067298 
L 726.994138 147.953809 
L 730.204725 150.833854 
L 733.415312 147.940771 
L 736.625899 146.630288 
L 739.836486 146.486876 
L 743.047073 145.837212 
L 746.25766 141.718752 
L 749.468247 137.908395 
L 752.678833 138.724562 
L 755.88942 138.512216 
L 759.100007 132.169669 
L 762.310594 126.97181 
L 765.521181 123.555578 
L 768.731768 116.248886 
L 771.942355 108.297118 
L 775.152942 105.209534 
L 778.363528 101.696343 
L 781.574115 99.357501 
L 784.784702 97.970185 
L 787.995289 98.779827 
L 791.205876 105.551877 
L 794.416463 103.988065 
L 797.62705 101.618851 
L 800.837637 105.832626 
L 804.048224 104.839689 
L 807.25881 99.520525 
L 810.469397 108.556535 
L 813.679984 107.650089 
L 816.890571 104.427636 
L 820.101158 102.809927 
L 823.311745 99.483884 
L 826.522332 89.773996 
L 829.732919 92.363869 
L 832.943505 89.770164 
L 836.154092 89.567996 
L 839.364679 91.095077 
L 842.575266 96.743806 
L 845.785853 100.792125 
L 848.99644 101.042735 
L 852.207027 105.144432 
L 855.417614 105.602479 
L 858.628201 104.345611 
L 861.838787 101.084371 
L 865.049374 104.310531 
L 868.259961 108.202393 
L 871.470548 108.362445 
L 874.681135 113.859393 
L 877.891722 116.014552 
L 881.102309 117.812062 
L 884.312896 115.825487 
L 887.523482 119.606657 
L 890.734069 116.555123 
L 893.944656 119.819788 
L 897.155243 124.1228 
L 900.36583 126.12648 
L 903.576417 131.542136 
L 906.787004 129.000484 
L 909.997591 133.327715 
L 913.208178 138.207349 
L 916.418764 135.82595 
L 919.629351 137.241086 
L 922.839938 140.223369 
L 926.050525 133.998953 
L 929.261112 128.284978 
L 932.471699 135.739759 
L 935.682286 141.018368 
L 938.892873 145.032367 
L 945.314046 166.827387 
L 948.524633 167.112252 
L 951.73522 160.242729 
L 954.945807 160.747456 
L 958.156394 162.602517 
L 961.366981 160.286338 
L 964.577568 165.02119 
L 967.788154 170.722099 
L 970.998741 173.217437 
L 974.209328 172.13022 
L 977.419915 168.004546 
L 980.630502 173.05109 
L 983.841089 175.268145 
L 987.051676 180.961601 
L 990.262263 179.508665 
L 993.47285 181.696865 
L 996.683436 173.135993 
L 999.894023 171.737147 
L 1003.10461 179.109262 
L 1006.315197 189.456978 
L 1012.736371 209.327157 
L 1015.946958 215.485939 
L 1019.157545 210.2534 
L 1022.368131 209.629679 
L 1025.578718 209.808936 
L 1028.789305 210.757475 
L 1031.999892 207.673589 
L 1035.210479 212.003796 
L 1038.421066 213.849447 
L 1041.631653 212.367133 
L 1044.84224 211.27664 
L 1048.052827 216.061754 
L 1051.263413 213.933991 
L 1054.474 212.210815 
L 1057.684587 214.502399 
L 1060.895174 217.83705 
L 1064.105761 213.912205 
L 1067.316348 218.323421 
L 1070.526935 219.579022 
L 1073.737522 221.080617 
L 1076.948108 219.360913 
L 1080.158695 224.34309 
L 1083.369282 222.886806 
L 1086.579869 223.900064 
L 1086.579869 223.900064 
" style="fill:none;stroke:#d3d3d3;stroke-linecap:square;stroke-width:2;"/>
   </g>
   <g id="patch_3">
    <path d="M 43.78125 228.96 
L 43.78125 7.2 
" style="fill:none;stroke:#000000;stroke-linecap:square;stroke-linejoin:miter;stroke-width:0.8;"/>
   </g>
   <g id="patch_4">
    <path d="M 43.78125 228.96 
L 1159.78125 228.96 
" style="fill:none;stroke:#000000;stroke-linecap:square;stroke-linejoin:miter;stroke-width:0.8;"/>
   </g>
   <g id="legend_1">
    <g id="line2d_25">
     <path d="M 1065.97 17.67875 
L 1081.97 17.67875 
" style="fill:none;stroke:#947383;stroke-linecap:square;stroke-width:2;"/>
    </g>
    <g id="line2d_26"/>
    <g id="text_20">
     <!-- Europe -->
     <g transform="translate(1088.37 20.47875)scale(0.08 -0.08)">
      <defs>
       <path d="M 628 4666 
L 3578 4666 
L 3578 4134 
L 1259 4134 
L 1259 2753 
L 3481 2753 
L 3481 2222 
L 1259 2222 
L 1259 531 
L 3634 531 
L 3634 0 
L 628 0 
L 628 4666 
z
" id="DejaVuSans-45" transform="scale(0.015625)"/>
       <path d="M 1159 525 
L 1159 -1331 
L 581 -1331 
L 581 3500 
L 1159 3500 
L 1159 2969 
Q 1341 3281 1617 3432 
Q 1894 3584 2278 3584 
Q 2916 3584 3314 3078 
Q 3713 2572 3713 1747 
Q 3713 922 3314 415 
Q 2916 -91 2278 -91 
Q 1894 -91 1617 61 
Q 1341 213 1159 525 
z
M 3116 1747 
Q 3116 2381 2855 2742 
Q 2594 3103 2138 3103 
Q 1681 3103 1420 2742 
Q 1159 2381 1159 1747 
Q 1159 1113 1420 752 
Q 1681 391 2138 391 
Q 2594 391 2855 752 
Q 3116 1113 3116 1747 
z
" id="DejaVuSans-70" transform="scale(0.015625)"/>
      </defs>
      <use xlink:href="#DejaVuSans-45"/>
      <use x="63.183594" xlink:href="#DejaVuSans-75"/>
      <use x="126.5625" xlink:href="#DejaVuSans-72"/>
      <use x="165.425781" xlink:href="#DejaVuSans-6f"/>
      <use x="226.607422" xlink:href="#DejaVuSans-70"/>
      <use x="290.083984" xlink:href="#DejaVuSans-65"/>
     </g>
    </g>
    <g id="line2d_27">
     <path d="M 1065.97 29.42125 
L 1081.97 29.42125 
" style="fill:none;stroke:#96c6ad;stroke-linecap:square;stroke-width:2;"/>
    </g>
    <g id="line2d_28"/>
    <g id="text_21">
     <!-- North America -->
     <g transform="translate(1088.37 32.22125)scale(0.08 -0.08)">
      <defs>
       <path d="M 628 4666 
L 1478 4666 
L 3547 763 
L 3547 4666 
L 4159 4666 
L 4159 0 
L 3309 0 
L 1241 3903 
L 1241 0 
L 628 0 
L 628 4666 
z
" id="DejaVuSans-4e" transform="scale(0.015625)"/>
       <path d="M 3513 2113 
L 3513 0 
L 2938 0 
L 2938 2094 
Q 2938 2591 2744 2837 
Q 2550 3084 2163 3084 
Q 1697 3084 1428 2787 
Q 1159 2491 1159 1978 
L 1159 0 
L 581 0 
L 581 4863 
L 1159 4863 
L 1159 2956 
Q 1366 3272 1645 3428 
Q 1925 3584 2291 3584 
Q 2894 3584 3203 3211 
Q 3513 2838 3513 2113 
z
" id="DejaVuSans-68" transform="scale(0.015625)"/>
       <path d="M 2188 4044 
L 1331 1722 
L 3047 1722 
L 2188 4044 
z
M 1831 4666 
L 2547 4666 
L 4325 0 
L 3669 0 
L 3244 1197 
L 1141 1197 
L 716 0 
L 50 0 
L 1831 4666 
z
" id="DejaVuSans-41" transform="scale(0.015625)"/>
       <path d="M 3328 2828 
Q 3544 3216 3844 3400 
Q 4144 3584 4550 3584 
Q 5097 3584 5394 3201 
Q 5691 2819 5691 2113 
L 5691 0 
L 5113 0 
L 5113 2094 
Q 5113 2597 4934 2840 
Q 4756 3084 4391 3084 
Q 3944 3084 3684 2787 
Q 3425 2491 3425 1978 
L 3425 0 
L 2847 0 
L 2847 2094 
Q 2847 2600 2669 2842 
Q 2491 3084 2119 3084 
Q 1678 3084 1418 2786 
Q 1159 2488 1159 1978 
L 1159 0 
L 581 0 
L 581 3500 
L 1159 3500 
L 1159 2956 
Q 1356 3278 1631 3431 
Q 1906 3584 2284 3584 
Q 2666 3584 2933 3390 
Q 3200 3197 3328 2828 
z
" id="DejaVuSans-6d" transform="scale(0.015625)"/>
      </defs>
      <use xlink:href="#DejaVuSans-4e"/>
      <use x="74.804688" xlink:href="#DejaVuSans-6f"/>
      <use x="135.986328" xlink:href="#DejaVuSans-72"/>
      <use x="177.099609" xlink:href="#DejaVuSans-74"/>
      <use x="216.308594" xlink:href="#DejaVuSans-68"/>
      <use x="279.6875" xlink:href="#DejaVuSans-20"/>
      <use x="311.474609" xlink:href="#DejaVuSans-41"/>
      <use x="379.882812" xlink:href="#DejaVuSans-6d"/>
      <use x="477.294922" xlink:href="#DejaVuSans-65"/>
      <use x="538.818359" xlink:href="#DejaVuSans-72"/>
      <use x="579.931641" xlink:href="#DejaVuSans-69"/>
      <use x="607.714844" xlink:href="#DejaVuSans-63"/>
      <use x="662.695312" xlink:href="#DejaVuSans-61"/>
     </g>
    </g>
    <g id="line2d_29">
     <path d="M 1065.97 41.16375 
L 1081.97 41.16375 
" style="fill:none;stroke:#525886;stroke-linecap:square;stroke-width:2;"/>
    </g>
    <g id="line2d_30"/>
    <g id="text_22">
     <!-- Africa -->
     <g transform="translate(1088.37 43.96375)scale(0.08 -0.08)">
      <defs>
       <path d="M 2375 4863 
L 2375 4384 
L 1825 4384 
Q 1516 4384 1395 4259 
Q 1275 4134 1275 3809 
L 1275 3500 
L 2222 3500 
L 2222 3053 
L 1275 3053 
L 1275 0 
L 697 0 
L 697 3053 
L 147 3053 
L 147 3500 
L 697 3500 
L 697 3744 
Q 697 4328 969 4595 
Q 1241 4863 1831 4863 
L 2375 4863 
z
" id="DejaVuSans-66" transform="scale(0.015625)"/>
      </defs>
      <use xlink:href="#DejaVuSans-41"/>
      <use x="64.783203" xlink:href="#DejaVuSans-66"/>
      <use x="99.988281" xlink:href="#DejaVuSans-72"/>
      <use x="141.101562" xlink:href="#DejaVuSans-69"/>
      <use x="168.884766" xlink:href="#DejaVuSans-63"/>
      <use x="223.865234" xlink:href="#DejaVuSans-61"/>
     </g>
    </g>
    <g id="line2d_31">
     <path d="M 1065.97 52.90625 
L 1081.97 52.90625 
" style="fill:none;stroke:#937252;stroke-linecap:square;stroke-width:2;"/>
    </g>
    <g id="line2d_32"/>
    <g id="text_23">
     <!-- United Kingdom -->
     <g transform="translate(1088.37 55.70625)scale(0.08 -0.08)">
      <defs>
       <path d="M 556 4666 
L 1191 4666 
L 1191 1831 
Q 1191 1081 1462 751 
Q 1734 422 2344 422 
Q 2950 422 3222 751 
Q 3494 1081 3494 1831 
L 3494 4666 
L 4128 4666 
L 4128 1753 
Q 4128 841 3676 375 
Q 3225 -91 2344 -91 
Q 1459 -91 1007 375 
Q 556 841 556 1753 
L 556 4666 
z
" id="DejaVuSans-55" transform="scale(0.015625)"/>
       <path d="M 628 4666 
L 1259 4666 
L 1259 2694 
L 3353 4666 
L 4166 4666 
L 1850 2491 
L 4331 0 
L 3500 0 
L 1259 2247 
L 1259 0 
L 628 0 
L 628 4666 
z
" id="DejaVuSans-4b" transform="scale(0.015625)"/>
      </defs>
      <use xlink:href="#DejaVuSans-55"/>
      <use x="73.193359" xlink:href="#DejaVuSans-6e"/>
      <use x="136.572266" xlink:href="#DejaVuSans-69"/>
      <use x="164.355469" xlink:href="#DejaVuSans-74"/>
      <use x="203.564453" xlink:href="#DejaVuSans-65"/>
      <use x="265.087891" xlink:href="#DejaVuSans-64"/>
      <use x="328.564453" xlink:href="#DejaVuSans-20"/>
      <use x="360.351562" xlink:href="#DejaVuSans-4b"/>
      <use x="425.927734" xlink:href="#DejaVuSans-69"/>
      <use x="453.710938" xlink:href="#DejaVuSans-6e"/>
      <use x="517.089844" xlink:href="#DejaVuSans-67"/>
      <use x="580.566406" xlink:href="#DejaVuSans-64"/>
      <use x="644.042969" xlink:href="#DejaVuSans-6f"/>
      <use x="705.224609" xlink:href="#DejaVuSans-6d"/>
     </g>
    </g>
    <g id="line2d_33">
     <path d="M 1065.97 64.64875 
L 1081.97 64.64875 
" style="fill:none;stroke:#d18cad;stroke-linecap:square;stroke-width:2;"/>
    </g>
    <g id="line2d_34"/>
    <g id="text_24">
     <!-- South America -->
     <g transform="translate(1088.37 67.44875)scale(0.08 -0.08)">
      <defs>
       <path d="M 3425 4513 
L 3425 3897 
Q 3066 4069 2747 4153 
Q 2428 4238 2131 4238 
Q 1616 4238 1336 4038 
Q 1056 3838 1056 3469 
Q 1056 3159 1242 3001 
Q 1428 2844 1947 2747 
L 2328 2669 
Q 3034 2534 3370 2195 
Q 3706 1856 3706 1288 
Q 3706 609 3251 259 
Q 2797 -91 1919 -91 
Q 1588 -91 1214 -16 
Q 841 59 441 206 
L 441 856 
Q 825 641 1194 531 
Q 1563 422 1919 422 
Q 2459 422 2753 634 
Q 3047 847 3047 1241 
Q 3047 1584 2836 1778 
Q 2625 1972 2144 2069 
L 1759 2144 
Q 1053 2284 737 2584 
Q 422 2884 422 3419 
Q 422 4038 858 4394 
Q 1294 4750 2059 4750 
Q 2388 4750 2728 4690 
Q 3069 4631 3425 4513 
z
" id="DejaVuSans-53" transform="scale(0.015625)"/>
      </defs>
      <use xlink:href="#DejaVuSans-53"/>
      <use x="63.476562" xlink:href="#DejaVuSans-6f"/>
      <use x="124.658203" xlink:href="#DejaVuSans-75"/>
      <use x="188.037109" xlink:href="#DejaVuSans-74"/>
      <use x="227.246094" xlink:href="#DejaVuSans-68"/>
      <use x="290.625" xlink:href="#DejaVuSans-20"/>
      <use x="322.412109" xlink:href="#DejaVuSans-41"/>
      <use x="390.820312" xlink:href="#DejaVuSans-6d"/>
      <use x="488.232422" xlink:href="#DejaVuSans-65"/>
      <use x="549.755859" xlink:href="#DejaVuSans-72"/>
      <use x="590.869141" xlink:href="#DejaVuSans-69"/>
      <use x="618.652344" xlink:href="#DejaVuSans-63"/>
      <use x="673.632812" xlink:href="#DejaVuSans-61"/>
     </g>
    </g>
    <g id="line2d_35">
     <path d="M 1065.97 76.39125 
L 1081.97 76.39125 
" style="fill:none;stroke:#a4a86f;stroke-linecap:square;stroke-width:2;"/>
    </g>
    <g id="line2d_36"/>
    <g id="text_25">
     <!-- Oceania -->
     <g transform="translate(1088.37 79.19125)scale(0.08 -0.08)">
      <defs>
       <path d="M 2522 4238 
Q 1834 4238 1429 3725 
Q 1025 3213 1025 2328 
Q 1025 1447 1429 934 
Q 1834 422 2522 422 
Q 3209 422 3611 934 
Q 4013 1447 4013 2328 
Q 4013 3213 3611 3725 
Q 3209 4238 2522 4238 
z
M 2522 4750 
Q 3503 4750 4090 4092 
Q 4678 3434 4678 2328 
Q 4678 1225 4090 567 
Q 3503 -91 2522 -91 
Q 1538 -91 948 565 
Q 359 1222 359 2328 
Q 359 3434 948 4092 
Q 1538 4750 2522 4750 
z
" id="DejaVuSans-4f" transform="scale(0.015625)"/>
      </defs>
      <use xlink:href="#DejaVuSans-4f"/>
      <use x="78.710938" xlink:href="#DejaVuSans-63"/>
      <use x="133.691406" xlink:href="#DejaVuSans-65"/>
      <use x="195.214844" xlink:href="#DejaVuSans-61"/>
      <use x="256.494141" xlink:href="#DejaVuSans-6e"/>
      <use x="319.873047" xlink:href="#DejaVuSans-69"/>
      <use x="347.65625" xlink:href="#DejaVuSans-61"/>
     </g>
    </g>
    <g id="line2d_37">
     <path d="M 1065.97 88.13375 
L 1081.97 88.13375 
" style="fill:none;stroke:#d3d3d3;stroke-linecap:square;stroke-width:2;"/>
    </g>
    <g id="line2d_38"/>
    <g id="text_26">
     <!-- Asia -->
     <g transform="translate(1088.37 90.93375)scale(0.08 -0.08)">
      <defs>
       <path d="M 2834 3397 
L 2834 2853 
Q 2591 2978 2328 3040 
Q 2066 3103 1784 3103 
Q 1356 3103 1142 2972 
Q 928 2841 928 2578 
Q 928 2378 1081 2264 
Q 1234 2150 1697 2047 
L 1894 2003 
Q 2506 1872 2764 1633 
Q 3022 1394 3022 966 
Q 3022 478 2636 193 
Q 2250 -91 1575 -91 
Q 1294 -91 989 -36 
Q 684 19 347 128 
L 347 722 
Q 666 556 975 473 
Q 1284 391 1588 391 
Q 1994 391 2212 530 
Q 2431 669 2431 922 
Q 2431 1156 2273 1281 
Q 2116 1406 1581 1522 
L 1381 1569 
Q 847 1681 609 1914 
Q 372 2147 372 2553 
Q 372 3047 722 3315 
Q 1072 3584 1716 3584 
Q 2034 3584 2315 3537 
Q 2597 3491 2834 3397 
z
" id="DejaVuSans-73" transform="scale(0.015625)"/>
      </defs>
      <use xlink:href="#DejaVuSans-41"/>
      <use x="68.408203" xlink:href="#DejaVuSans-73"/>
      <use x="120.507812" xlink:href="#DejaVuSans-69"/>
      <use x="148.291016" xlink:href="#DejaVuSans-61"/>
     </g>
    </g>
   </g>
  </g>
 </g>
 <defs>
  <clipPath id="p4f4c014e57">
   <rect height="221.76" width="1116" x="43.78125" y="7.2"/>
  </clipPath>
 </defs>
</svg>
