<?xml version="1.0" encoding="utf-8" standalone="no"?>
<!DOCTYPE svg PUBLIC "-//W3C//DTD SVG 1.1//EN"
  "http://www.w3.org/Graphics/SVG/1.1/DTD/svg11.dtd">
<svg xmlns:xlink="http://www.w3.org/1999/xlink" width="1166.98125pt" height="298.620937pt" viewBox="0 0 1166.98125 298.620937" xmlns="http://www.w3.org/2000/svg" version="1.1">
 <metadata>
  <rdf:RDF xmlns:dc="http://purl.org/dc/elements/1.1/" xmlns:cc="http://creativecommons.org/ns#" xmlns:rdf="http://www.w3.org/1999/02/22-rdf-syntax-ns#">
   <cc:Work>
    <dc:type rdf:resource="http://purl.org/dc/dcmitype/StillImage"/>
    <dc:date>2024-07-05T06:48:48.596144</dc:date>
    <dc:format>image/svg+xml</dc:format>
    <dc:creator>
     <cc:Agent>
      <dc:title>Matplotlib v3.5.3, https://matplotlib.org/</dc:title>
     </cc:Agent>
    </dc:creator>
   </cc:Work>
  </rdf:RDF>
 </metadata>
 <defs>
  <style type="text/css">*{stroke-linejoin: round; stroke-linecap: butt}</style>
 </defs>
 <g id="figure_1">
  <g id="patch_1">
   <path d="M 0 298.620937 
L 1166.98125 298.620937 
L 1166.98125 0 
L 0 0 
z
" style="fill: #ffffff"/>
  </g>
  <g id="axes_1">
   <g id="patch_2">
    <path d="M 43.78125 228.96 
L 1159.78125 228.96 
L 1159.78125 7.2 
L 43.78125 7.2 
z
" style="fill: #ffffff"/>
   </g>
   <g id="matplotlib.axis_1">
    <g id="xtick_1">
     <g id="line2d_1">
      <defs>
       <path id="md6a71d68e6" d="M 0 0 
L 0 3.5 
" style="stroke: #000000; stroke-width: 0.8"/>
      </defs>
      <g>
       <use xlink:href="#md6a71d68e6" x="99.922319" y="228.96" style="stroke: #000000; stroke-width: 0.8"/>
      </g>
     </g>
     <g id="text_1">
      <!-- 2020-10 -->
      <g transform="translate(102.681694 277.742812)rotate(-90)scale(0.1 -0.1)">
       <defs>
        <path id="DejaVuSans-32" d="M 1228 531 
L 3431 531 
L 3431 0 
L 469 0 
L 469 531 
Q 828 903 1448 1529 
Q 2069 2156 2228 2338 
Q 2531 2678 2651 2914 
Q 2772 3150 2772 3378 
Q 2772 3750 2511 3984 
Q 2250 4219 1831 4219 
Q 1534 4219 1204 4116 
Q 875 4013 500 3803 
L 500 4441 
Q 881 4594 1212 4672 
Q 1544 4750 1819 4750 
Q 2544 4750 2975 4387 
Q 3406 4025 3406 3419 
Q 3406 3131 3298 2873 
Q 3191 2616 2906 2266 
Q 2828 2175 2409 1742 
Q 1991 1309 1228 531 
z
" transform="scale(0.015625)"/>
        <path id="DejaVuSans-30" d="M 2034 4250 
Q 1547 4250 1301 3770 
Q 1056 3291 1056 2328 
Q 1056 1369 1301 889 
Q 1547 409 2034 409 
Q 2525 409 2770 889 
Q 3016 1369 3016 2328 
Q 3016 3291 2770 3770 
Q 2525 4250 2034 4250 
z
M 2034 4750 
Q 2819 4750 3233 4129 
Q 3647 3509 3647 2328 
Q 3647 1150 3233 529 
Q 2819 -91 2034 -91 
Q 1250 -91 836 529 
Q 422 1150 422 2328 
Q 422 3509 836 4129 
Q 1250 4750 2034 4750 
z
" transform="scale(0.015625)"/>
        <path id="DejaVuSans-2d" d="M 313 2009 
L 1997 2009 
L 1997 1497 
L 313 1497 
L 313 2009 
z
" transform="scale(0.015625)"/>
        <path id="DejaVuSans-31" d="M 794 531 
L 1825 531 
L 1825 4091 
L 703 3866 
L 703 4441 
L 1819 4666 
L 2450 4666 
L 2450 531 
L 3481 531 
L 3481 0 
L 794 0 
L 794 531 
z
" transform="scale(0.015625)"/>
       </defs>
       <use xlink:href="#DejaVuSans-32"/>
       <use xlink:href="#DejaVuSans-30" x="63.623047"/>
       <use xlink:href="#DejaVuSans-32" x="127.246094"/>
       <use xlink:href="#DejaVuSans-30" x="190.869141"/>
       <use xlink:href="#DejaVuSans-2d" x="254.492188"/>
       <use xlink:href="#DejaVuSans-31" x="290.576172"/>
       <use xlink:href="#DejaVuSans-30" x="354.199219"/>
      </g>
     </g>
    </g>
    <g id="xtick_2">
     <g id="line2d_2">
      <g>
       <use xlink:href="#md6a71d68e6" x="199.536174" y="228.96" style="stroke: #000000; stroke-width: 0.8"/>
      </g>
     </g>
     <g id="text_2">
      <!-- 2021-01 -->
      <g transform="translate(202.295549 277.742812)rotate(-90)scale(0.1 -0.1)">
       <use xlink:href="#DejaVuSans-32"/>
       <use xlink:href="#DejaVuSans-30" x="63.623047"/>
       <use xlink:href="#DejaVuSans-32" x="127.246094"/>
       <use xlink:href="#DejaVuSans-31" x="190.869141"/>
       <use xlink:href="#DejaVuSans-2d" x="254.492188"/>
       <use xlink:href="#DejaVuSans-30" x="290.576172"/>
       <use xlink:href="#DejaVuSans-31" x="354.199219"/>
      </g>
     </g>
    </g>
    <g id="xtick_3">
     <g id="line2d_3">
      <g>
       <use xlink:href="#md6a71d68e6" x="296.98451" y="228.96" style="stroke: #000000; stroke-width: 0.8"/>
      </g>
     </g>
     <g id="text_3">
      <!-- 2021-04 -->
      <g transform="translate(299.743885 277.742812)rotate(-90)scale(0.1 -0.1)">
       <defs>
        <path id="DejaVuSans-34" d="M 2419 4116 
L 825 1625 
L 2419 1625 
L 2419 4116 
z
M 2253 4666 
L 3047 4666 
L 3047 1625 
L 3713 1625 
L 3713 1100 
L 3047 1100 
L 3047 0 
L 2419 0 
L 2419 1100 
L 313 1100 
L 313 1709 
L 2253 4666 
z
" transform="scale(0.015625)"/>
       </defs>
       <use xlink:href="#DejaVuSans-32"/>
       <use xlink:href="#DejaVuSans-30" x="63.623047"/>
       <use xlink:href="#DejaVuSans-32" x="127.246094"/>
       <use xlink:href="#DejaVuSans-31" x="190.869141"/>
       <use xlink:href="#DejaVuSans-2d" x="254.492188"/>
       <use xlink:href="#DejaVuSans-30" x="290.576172"/>
       <use xlink:href="#DejaVuSans-34" x="354.199219"/>
      </g>
     </g>
    </g>
    <g id="xtick_4">
     <g id="line2d_4">
      <g>
       <use xlink:href="#md6a71d68e6" x="395.515605" y="228.96" style="stroke: #000000; stroke-width: 0.8"/>
      </g>
     </g>
     <g id="text_4">
      <!-- 2021-07 -->
      <g transform="translate(398.27498 277.742812)rotate(-90)scale(0.1 -0.1)">
       <defs>
        <path id="DejaVuSans-37" d="M 525 4666 
L 3525 4666 
L 3525 4397 
L 1831 0 
L 1172 0 
L 2766 4134 
L 525 4134 
L 525 4666 
z
" transform="scale(0.015625)"/>
       </defs>
       <use xlink:href="#DejaVuSans-32"/>
       <use xlink:href="#DejaVuSans-30" x="63.623047"/>
       <use xlink:href="#DejaVuSans-32" x="127.246094"/>
       <use xlink:href="#DejaVuSans-31" x="190.869141"/>
       <use xlink:href="#DejaVuSans-2d" x="254.492188"/>
       <use xlink:href="#DejaVuSans-30" x="290.576172"/>
       <use xlink:href="#DejaVuSans-37" x="354.199219"/>
      </g>
     </g>
    </g>
    <g id="xtick_5">
     <g id="line2d_5">
      <g>
       <use xlink:href="#md6a71d68e6" x="495.12946" y="228.96" style="stroke: #000000; stroke-width: 0.8"/>
      </g>
     </g>
     <g id="text_5">
      <!-- 2021-10 -->
      <g transform="translate(497.888835 277.742812)rotate(-90)scale(0.1 -0.1)">
       <use xlink:href="#DejaVuSans-32"/>
       <use xlink:href="#DejaVuSans-30" x="63.623047"/>
       <use xlink:href="#DejaVuSans-32" x="127.246094"/>
       <use xlink:href="#DejaVuSans-31" x="190.869141"/>
       <use xlink:href="#DejaVuSans-2d" x="254.492188"/>
       <use xlink:href="#DejaVuSans-31" x="290.576172"/>
       <use xlink:href="#DejaVuSans-30" x="354.199219"/>
      </g>
     </g>
    </g>
    <g id="xtick_6">
     <g id="line2d_6">
      <g>
       <use xlink:href="#md6a71d68e6" x="594.743315" y="228.96" style="stroke: #000000; stroke-width: 0.8"/>
      </g>
     </g>
     <g id="text_6">
      <!-- 2022-01 -->
      <g transform="translate(597.50269 277.742812)rotate(-90)scale(0.1 -0.1)">
       <use xlink:href="#DejaVuSans-32"/>
       <use xlink:href="#DejaVuSans-30" x="63.623047"/>
       <use xlink:href="#DejaVuSans-32" x="127.246094"/>
       <use xlink:href="#DejaVuSans-32" x="190.869141"/>
       <use xlink:href="#DejaVuSans-2d" x="254.492188"/>
       <use xlink:href="#DejaVuSans-30" x="290.576172"/>
       <use xlink:href="#DejaVuSans-31" x="354.199219"/>
      </g>
     </g>
    </g>
    <g id="xtick_7">
     <g id="line2d_7">
      <g>
       <use xlink:href="#md6a71d68e6" x="692.191651" y="228.96" style="stroke: #000000; stroke-width: 0.8"/>
      </g>
     </g>
     <g id="text_7">
      <!-- 2022-04 -->
      <g transform="translate(694.951026 277.742812)rotate(-90)scale(0.1 -0.1)">
       <use xlink:href="#DejaVuSans-32"/>
       <use xlink:href="#DejaVuSans-30" x="63.623047"/>
       <use xlink:href="#DejaVuSans-32" x="127.246094"/>
       <use xlink:href="#DejaVuSans-32" x="190.869141"/>
       <use xlink:href="#DejaVuSans-2d" x="254.492188"/>
       <use xlink:href="#DejaVuSans-30" x="290.576172"/>
       <use xlink:href="#DejaVuSans-34" x="354.199219"/>
      </g>
     </g>
    </g>
    <g id="xtick_8">
     <g id="line2d_8">
      <g>
       <use xlink:href="#md6a71d68e6" x="790.722746" y="228.96" style="stroke: #000000; stroke-width: 0.8"/>
      </g>
     </g>
     <g id="text_8">
      <!-- 2022-07 -->
      <g transform="translate(793.482121 277.742812)rotate(-90)scale(0.1 -0.1)">
       <use xlink:href="#DejaVuSans-32"/>
       <use xlink:href="#DejaVuSans-30" x="63.623047"/>
       <use xlink:href="#DejaVuSans-32" x="127.246094"/>
       <use xlink:href="#DejaVuSans-32" x="190.869141"/>
       <use xlink:href="#DejaVuSans-2d" x="254.492188"/>
       <use xlink:href="#DejaVuSans-30" x="290.576172"/>
       <use xlink:href="#DejaVuSans-37" x="354.199219"/>
      </g>
     </g>
    </g>
    <g id="xtick_9">
     <g id="line2d_9">
      <g>
       <use xlink:href="#md6a71d68e6" x="890.336601" y="228.96" style="stroke: #000000; stroke-width: 0.8"/>
      </g>
     </g>
     <g id="text_9">
      <!-- 2022-10 -->
      <g transform="translate(893.095976 277.742812)rotate(-90)scale(0.1 -0.1)">
       <use xlink:href="#DejaVuSans-32"/>
       <use xlink:href="#DejaVuSans-30" x="63.623047"/>
       <use xlink:href="#DejaVuSans-32" x="127.246094"/>
       <use xlink:href="#DejaVuSans-32" x="190.869141"/>
       <use xlink:href="#DejaVuSans-2d" x="254.492188"/>
       <use xlink:href="#DejaVuSans-31" x="290.576172"/>
       <use xlink:href="#DejaVuSans-30" x="354.199219"/>
      </g>
     </g>
    </g>
    <g id="xtick_10">
     <g id="line2d_10">
      <g>
       <use xlink:href="#md6a71d68e6" x="989.950455" y="228.96" style="stroke: #000000; stroke-width: 0.8"/>
      </g>
     </g>
     <g id="text_10">
      <!-- 2023-01 -->
      <g transform="translate(992.70983 277.742812)rotate(-90)scale(0.1 -0.1)">
       <defs>
        <path id="DejaVuSans-33" d="M 2597 2516 
Q 3050 2419 3304 2112 
Q 3559 1806 3559 1356 
Q 3559 666 3084 287 
Q 2609 -91 1734 -91 
Q 1441 -91 1130 -33 
Q 819 25 488 141 
L 488 750 
Q 750 597 1062 519 
Q 1375 441 1716 441 
Q 2309 441 2620 675 
Q 2931 909 2931 1356 
Q 2931 1769 2642 2001 
Q 2353 2234 1838 2234 
L 1294 2234 
L 1294 2753 
L 1863 2753 
Q 2328 2753 2575 2939 
Q 2822 3125 2822 3475 
Q 2822 3834 2567 4026 
Q 2313 4219 1838 4219 
Q 1578 4219 1281 4162 
Q 984 4106 628 3988 
L 628 4550 
Q 988 4650 1302 4700 
Q 1616 4750 1894 4750 
Q 2613 4750 3031 4423 
Q 3450 4097 3450 3541 
Q 3450 3153 3228 2886 
Q 3006 2619 2597 2516 
z
" transform="scale(0.015625)"/>
       </defs>
       <use xlink:href="#DejaVuSans-32"/>
       <use xlink:href="#DejaVuSans-30" x="63.623047"/>
       <use xlink:href="#DejaVuSans-32" x="127.246094"/>
       <use xlink:href="#DejaVuSans-33" x="190.869141"/>
       <use xlink:href="#DejaVuSans-2d" x="254.492188"/>
       <use xlink:href="#DejaVuSans-30" x="290.576172"/>
       <use xlink:href="#DejaVuSans-31" x="354.199219"/>
      </g>
     </g>
    </g>
    <g id="xtick_11">
     <g id="line2d_11">
      <g>
       <use xlink:href="#md6a71d68e6" x="1087.398791" y="228.96" style="stroke: #000000; stroke-width: 0.8"/>
      </g>
     </g>
     <g id="text_11">
      <!-- 2023-04 -->
      <g transform="translate(1090.158166 277.742812)rotate(-90)scale(0.1 -0.1)">
       <use xlink:href="#DejaVuSans-32"/>
       <use xlink:href="#DejaVuSans-30" x="63.623047"/>
       <use xlink:href="#DejaVuSans-32" x="127.246094"/>
       <use xlink:href="#DejaVuSans-33" x="190.869141"/>
       <use xlink:href="#DejaVuSans-2d" x="254.492188"/>
       <use xlink:href="#DejaVuSans-30" x="290.576172"/>
       <use xlink:href="#DejaVuSans-34" x="354.199219"/>
      </g>
     </g>
    </g>
    <g id="text_12">
     <!-- Date -->
     <g transform="translate(589.830469 289.34125)scale(0.1 -0.1)">
      <defs>
       <path id="DejaVuSans-44" d="M 1259 4147 
L 1259 519 
L 2022 519 
Q 2988 519 3436 956 
Q 3884 1394 3884 2338 
Q 3884 3275 3436 3711 
Q 2988 4147 2022 4147 
L 1259 4147 
z
M 628 4666 
L 1925 4666 
Q 3281 4666 3915 4102 
Q 4550 3538 4550 2338 
Q 4550 1131 3912 565 
Q 3275 0 1925 0 
L 628 0 
L 628 4666 
z
" transform="scale(0.015625)"/>
       <path id="DejaVuSans-61" d="M 2194 1759 
Q 1497 1759 1228 1600 
Q 959 1441 959 1056 
Q 959 750 1161 570 
Q 1363 391 1709 391 
Q 2188 391 2477 730 
Q 2766 1069 2766 1631 
L 2766 1759 
L 2194 1759 
z
M 3341 1997 
L 3341 0 
L 2766 0 
L 2766 531 
Q 2569 213 2275 61 
Q 1981 -91 1556 -91 
Q 1019 -91 701 211 
Q 384 513 384 1019 
Q 384 1609 779 1909 
Q 1175 2209 1959 2209 
L 2766 2209 
L 2766 2266 
Q 2766 2663 2505 2880 
Q 2244 3097 1772 3097 
Q 1472 3097 1187 3025 
Q 903 2953 641 2809 
L 641 3341 
Q 956 3463 1253 3523 
Q 1550 3584 1831 3584 
Q 2591 3584 2966 3190 
Q 3341 2797 3341 1997 
z
" transform="scale(0.015625)"/>
       <path id="DejaVuSans-74" d="M 1172 4494 
L 1172 3500 
L 2356 3500 
L 2356 3053 
L 1172 3053 
L 1172 1153 
Q 1172 725 1289 603 
Q 1406 481 1766 481 
L 2356 481 
L 2356 0 
L 1766 0 
Q 1100 0 847 248 
Q 594 497 594 1153 
L 594 3053 
L 172 3053 
L 172 3500 
L 594 3500 
L 594 4494 
L 1172 4494 
z
" transform="scale(0.015625)"/>
       <path id="DejaVuSans-65" d="M 3597 1894 
L 3597 1613 
L 953 1613 
Q 991 1019 1311 708 
Q 1631 397 2203 397 
Q 2534 397 2845 478 
Q 3156 559 3463 722 
L 3463 178 
Q 3153 47 2828 -22 
Q 2503 -91 2169 -91 
Q 1331 -91 842 396 
Q 353 884 353 1716 
Q 353 2575 817 3079 
Q 1281 3584 2069 3584 
Q 2775 3584 3186 3129 
Q 3597 2675 3597 1894 
z
M 3022 2063 
Q 3016 2534 2758 2815 
Q 2500 3097 2075 3097 
Q 1594 3097 1305 2825 
Q 1016 2553 972 2059 
L 3022 2063 
z
" transform="scale(0.015625)"/>
      </defs>
      <use xlink:href="#DejaVuSans-44"/>
      <use xlink:href="#DejaVuSans-61" x="77.001953"/>
      <use xlink:href="#DejaVuSans-74" x="138.28125"/>
      <use xlink:href="#DejaVuSans-65" x="177.490234"/>
     </g>
    </g>
   </g>
   <g id="matplotlib.axis_2">
    <g id="ytick_1">
     <g id="line2d_12">
      <defs>
       <path id="m7e96e93e73" d="M 0 0 
L -3.5 0 
" style="stroke: #000000; stroke-width: 0.8"/>
      </defs>
      <g>
       <use xlink:href="#m7e96e93e73" x="43.78125" y="228.96" style="stroke: #000000; stroke-width: 0.8"/>
      </g>
     </g>
     <g id="text_13">
      <!-- 0.0 -->
      <g transform="translate(20.878125 232.759219)scale(0.1 -0.1)">
       <defs>
        <path id="DejaVuSans-2e" d="M 684 794 
L 1344 794 
L 1344 0 
L 684 0 
L 684 794 
z
" transform="scale(0.015625)"/>
       </defs>
       <use xlink:href="#DejaVuSans-30"/>
       <use xlink:href="#DejaVuSans-2e" x="63.623047"/>
       <use xlink:href="#DejaVuSans-30" x="95.410156"/>
      </g>
     </g>
    </g>
    <g id="ytick_2">
     <g id="line2d_13">
      <g>
       <use xlink:href="#m7e96e93e73" x="43.78125" y="204.186813" style="stroke: #000000; stroke-width: 0.8"/>
      </g>
     </g>
     <g id="text_14">
      <!-- 0.1 -->
      <g transform="translate(20.878125 207.986032)scale(0.1 -0.1)">
       <use xlink:href="#DejaVuSans-30"/>
       <use xlink:href="#DejaVuSans-2e" x="63.623047"/>
       <use xlink:href="#DejaVuSans-31" x="95.410156"/>
      </g>
     </g>
    </g>
    <g id="ytick_3">
     <g id="line2d_14">
      <g>
       <use xlink:href="#m7e96e93e73" x="43.78125" y="179.413626" style="stroke: #000000; stroke-width: 0.8"/>
      </g>
     </g>
     <g id="text_15">
      <!-- 0.2 -->
      <g transform="translate(20.878125 183.212845)scale(0.1 -0.1)">
       <use xlink:href="#DejaVuSans-30"/>
       <use xlink:href="#DejaVuSans-2e" x="63.623047"/>
       <use xlink:href="#DejaVuSans-32" x="95.410156"/>
      </g>
     </g>
    </g>
    <g id="ytick_4">
     <g id="line2d_15">
      <g>
       <use xlink:href="#m7e96e93e73" x="43.78125" y="154.640439" style="stroke: #000000; stroke-width: 0.8"/>
      </g>
     </g>
     <g id="text_16">
      <!-- 0.3 -->
      <g transform="translate(20.878125 158.439658)scale(0.1 -0.1)">
       <use xlink:href="#DejaVuSans-30"/>
       <use xlink:href="#DejaVuSans-2e" x="63.623047"/>
       <use xlink:href="#DejaVuSans-33" x="95.410156"/>
      </g>
     </g>
    </g>
    <g id="ytick_5">
     <g id="line2d_16">
      <g>
       <use xlink:href="#m7e96e93e73" x="43.78125" y="129.867253" style="stroke: #000000; stroke-width: 0.8"/>
      </g>
     </g>
     <g id="text_17">
      <!-- 0.4 -->
      <g transform="translate(20.878125 133.666471)scale(0.1 -0.1)">
       <use xlink:href="#DejaVuSans-30"/>
       <use xlink:href="#DejaVuSans-2e" x="63.623047"/>
       <use xlink:href="#DejaVuSans-34" x="95.410156"/>
      </g>
     </g>
    </g>
    <g id="ytick_6">
     <g id="line2d_17">
      <g>
       <use xlink:href="#m7e96e93e73" x="43.78125" y="105.094066" style="stroke: #000000; stroke-width: 0.8"/>
      </g>
     </g>
     <g id="text_18">
      <!-- 0.5 -->
      <g transform="translate(20.878125 108.893284)scale(0.1 -0.1)">
       <defs>
        <path id="DejaVuSans-35" d="M 691 4666 
L 3169 4666 
L 3169 4134 
L 1269 4134 
L 1269 2991 
Q 1406 3038 1543 3061 
Q 1681 3084 1819 3084 
Q 2600 3084 3056 2656 
Q 3513 2228 3513 1497 
Q 3513 744 3044 326 
Q 2575 -91 1722 -91 
Q 1428 -91 1123 -41 
Q 819 9 494 109 
L 494 744 
Q 775 591 1075 516 
Q 1375 441 1709 441 
Q 2250 441 2565 725 
Q 2881 1009 2881 1497 
Q 2881 1984 2565 2268 
Q 2250 2553 1709 2553 
Q 1456 2553 1204 2497 
Q 953 2441 691 2322 
L 691 4666 
z
" transform="scale(0.015625)"/>
       </defs>
       <use xlink:href="#DejaVuSans-30"/>
       <use xlink:href="#DejaVuSans-2e" x="63.623047"/>
       <use xlink:href="#DejaVuSans-35" x="95.410156"/>
      </g>
     </g>
    </g>
    <g id="ytick_7">
     <g id="line2d_18">
      <g>
       <use xlink:href="#m7e96e93e73" x="43.78125" y="80.320879" style="stroke: #000000; stroke-width: 0.8"/>
      </g>
     </g>
     <g id="text_19">
      <!-- 0.6 -->
      <g transform="translate(20.878125 84.120098)scale(0.1 -0.1)">
       <defs>
        <path id="DejaVuSans-36" d="M 2113 2584 
Q 1688 2584 1439 2293 
Q 1191 2003 1191 1497 
Q 1191 994 1439 701 
Q 1688 409 2113 409 
Q 2538 409 2786 701 
Q 3034 994 3034 1497 
Q 3034 2003 2786 2293 
Q 2538 2584 2113 2584 
z
M 3366 4563 
L 3366 3988 
Q 3128 4100 2886 4159 
Q 2644 4219 2406 4219 
Q 1781 4219 1451 3797 
Q 1122 3375 1075 2522 
Q 1259 2794 1537 2939 
Q 1816 3084 2150 3084 
Q 2853 3084 3261 2657 
Q 3669 2231 3669 1497 
Q 3669 778 3244 343 
Q 2819 -91 2113 -91 
Q 1303 -91 875 529 
Q 447 1150 447 2328 
Q 447 3434 972 4092 
Q 1497 4750 2381 4750 
Q 2619 4750 2861 4703 
Q 3103 4656 3366 4563 
z
" transform="scale(0.015625)"/>
       </defs>
       <use xlink:href="#DejaVuSans-30"/>
       <use xlink:href="#DejaVuSans-2e" x="63.623047"/>
       <use xlink:href="#DejaVuSans-36" x="95.410156"/>
      </g>
     </g>
    </g>
    <g id="ytick_8">
     <g id="line2d_19">
      <g>
       <use xlink:href="#m7e96e93e73" x="43.78125" y="55.547692" style="stroke: #000000; stroke-width: 0.8"/>
      </g>
     </g>
     <g id="text_20">
      <!-- 0.7 -->
      <g transform="translate(20.878125 59.346911)scale(0.1 -0.1)">
       <use xlink:href="#DejaVuSans-30"/>
       <use xlink:href="#DejaVuSans-2e" x="63.623047"/>
       <use xlink:href="#DejaVuSans-37" x="95.410156"/>
      </g>
     </g>
    </g>
    <g id="ytick_9">
     <g id="line2d_20">
      <g>
       <use xlink:href="#m7e96e93e73" x="43.78125" y="30.774505" style="stroke: #000000; stroke-width: 0.8"/>
      </g>
     </g>
     <g id="text_21">
      <!-- 0.8 -->
      <g transform="translate(20.878125 34.573724)scale(0.1 -0.1)">
       <defs>
        <path id="DejaVuSans-38" d="M 2034 2216 
Q 1584 2216 1326 1975 
Q 1069 1734 1069 1313 
Q 1069 891 1326 650 
Q 1584 409 2034 409 
Q 2484 409 2743 651 
Q 3003 894 3003 1313 
Q 3003 1734 2745 1975 
Q 2488 2216 2034 2216 
z
M 1403 2484 
Q 997 2584 770 2862 
Q 544 3141 544 3541 
Q 544 4100 942 4425 
Q 1341 4750 2034 4750 
Q 2731 4750 3128 4425 
Q 3525 4100 3525 3541 
Q 3525 3141 3298 2862 
Q 3072 2584 2669 2484 
Q 3125 2378 3379 2068 
Q 3634 1759 3634 1313 
Q 3634 634 3220 271 
Q 2806 -91 2034 -91 
Q 1263 -91 848 271 
Q 434 634 434 1313 
Q 434 1759 690 2068 
Q 947 2378 1403 2484 
z
M 1172 3481 
Q 1172 3119 1398 2916 
Q 1625 2713 2034 2713 
Q 2441 2713 2670 2916 
Q 2900 3119 2900 3481 
Q 2900 3844 2670 4047 
Q 2441 4250 2034 4250 
Q 1625 4250 1398 4047 
Q 1172 3844 1172 3481 
z
" transform="scale(0.015625)"/>
       </defs>
       <use xlink:href="#DejaVuSans-30"/>
       <use xlink:href="#DejaVuSans-2e" x="63.623047"/>
       <use xlink:href="#DejaVuSans-38" x="95.410156"/>
      </g>
     </g>
    </g>
    <g id="text_22">
     <!-- Frequency (7 day rolling average) -->
     <g transform="translate(14.798437 202.529219)rotate(-90)scale(0.1 -0.1)">
      <defs>
       <path id="DejaVuSans-46" d="M 628 4666 
L 3309 4666 
L 3309 4134 
L 1259 4134 
L 1259 2759 
L 3109 2759 
L 3109 2228 
L 1259 2228 
L 1259 0 
L 628 0 
L 628 4666 
z
" transform="scale(0.015625)"/>
       <path id="DejaVuSans-72" d="M 2631 2963 
Q 2534 3019 2420 3045 
Q 2306 3072 2169 3072 
Q 1681 3072 1420 2755 
Q 1159 2438 1159 1844 
L 1159 0 
L 581 0 
L 581 3500 
L 1159 3500 
L 1159 2956 
Q 1341 3275 1631 3429 
Q 1922 3584 2338 3584 
Q 2397 3584 2469 3576 
Q 2541 3569 2628 3553 
L 2631 2963 
z
" transform="scale(0.015625)"/>
       <path id="DejaVuSans-71" d="M 947 1747 
Q 947 1113 1208 752 
Q 1469 391 1925 391 
Q 2381 391 2643 752 
Q 2906 1113 2906 1747 
Q 2906 2381 2643 2742 
Q 2381 3103 1925 3103 
Q 1469 3103 1208 2742 
Q 947 2381 947 1747 
z
M 2906 525 
Q 2725 213 2448 61 
Q 2172 -91 1784 -91 
Q 1150 -91 751 415 
Q 353 922 353 1747 
Q 353 2572 751 3078 
Q 1150 3584 1784 3584 
Q 2172 3584 2448 3432 
Q 2725 3281 2906 2969 
L 2906 3500 
L 3481 3500 
L 3481 -1331 
L 2906 -1331 
L 2906 525 
z
" transform="scale(0.015625)"/>
       <path id="DejaVuSans-75" d="M 544 1381 
L 544 3500 
L 1119 3500 
L 1119 1403 
Q 1119 906 1312 657 
Q 1506 409 1894 409 
Q 2359 409 2629 706 
Q 2900 1003 2900 1516 
L 2900 3500 
L 3475 3500 
L 3475 0 
L 2900 0 
L 2900 538 
Q 2691 219 2414 64 
Q 2138 -91 1772 -91 
Q 1169 -91 856 284 
Q 544 659 544 1381 
z
M 1991 3584 
L 1991 3584 
z
" transform="scale(0.015625)"/>
       <path id="DejaVuSans-6e" d="M 3513 2113 
L 3513 0 
L 2938 0 
L 2938 2094 
Q 2938 2591 2744 2837 
Q 2550 3084 2163 3084 
Q 1697 3084 1428 2787 
Q 1159 2491 1159 1978 
L 1159 0 
L 581 0 
L 581 3500 
L 1159 3500 
L 1159 2956 
Q 1366 3272 1645 3428 
Q 1925 3584 2291 3584 
Q 2894 3584 3203 3211 
Q 3513 2838 3513 2113 
z
" transform="scale(0.015625)"/>
       <path id="DejaVuSans-63" d="M 3122 3366 
L 3122 2828 
Q 2878 2963 2633 3030 
Q 2388 3097 2138 3097 
Q 1578 3097 1268 2742 
Q 959 2388 959 1747 
Q 959 1106 1268 751 
Q 1578 397 2138 397 
Q 2388 397 2633 464 
Q 2878 531 3122 666 
L 3122 134 
Q 2881 22 2623 -34 
Q 2366 -91 2075 -91 
Q 1284 -91 818 406 
Q 353 903 353 1747 
Q 353 2603 823 3093 
Q 1294 3584 2113 3584 
Q 2378 3584 2631 3529 
Q 2884 3475 3122 3366 
z
" transform="scale(0.015625)"/>
       <path id="DejaVuSans-79" d="M 2059 -325 
Q 1816 -950 1584 -1140 
Q 1353 -1331 966 -1331 
L 506 -1331 
L 506 -850 
L 844 -850 
Q 1081 -850 1212 -737 
Q 1344 -625 1503 -206 
L 1606 56 
L 191 3500 
L 800 3500 
L 1894 763 
L 2988 3500 
L 3597 3500 
L 2059 -325 
z
" transform="scale(0.015625)"/>
       <path id="DejaVuSans-20" transform="scale(0.015625)"/>
       <path id="DejaVuSans-28" d="M 1984 4856 
Q 1566 4138 1362 3434 
Q 1159 2731 1159 2009 
Q 1159 1288 1364 580 
Q 1569 -128 1984 -844 
L 1484 -844 
Q 1016 -109 783 600 
Q 550 1309 550 2009 
Q 550 2706 781 3412 
Q 1013 4119 1484 4856 
L 1984 4856 
z
" transform="scale(0.015625)"/>
       <path id="DejaVuSans-64" d="M 2906 2969 
L 2906 4863 
L 3481 4863 
L 3481 0 
L 2906 0 
L 2906 525 
Q 2725 213 2448 61 
Q 2172 -91 1784 -91 
Q 1150 -91 751 415 
Q 353 922 353 1747 
Q 353 2572 751 3078 
Q 1150 3584 1784 3584 
Q 2172 3584 2448 3432 
Q 2725 3281 2906 2969 
z
M 947 1747 
Q 947 1113 1208 752 
Q 1469 391 1925 391 
Q 2381 391 2643 752 
Q 2906 1113 2906 1747 
Q 2906 2381 2643 2742 
Q 2381 3103 1925 3103 
Q 1469 3103 1208 2742 
Q 947 2381 947 1747 
z
" transform="scale(0.015625)"/>
       <path id="DejaVuSans-6f" d="M 1959 3097 
Q 1497 3097 1228 2736 
Q 959 2375 959 1747 
Q 959 1119 1226 758 
Q 1494 397 1959 397 
Q 2419 397 2687 759 
Q 2956 1122 2956 1747 
Q 2956 2369 2687 2733 
Q 2419 3097 1959 3097 
z
M 1959 3584 
Q 2709 3584 3137 3096 
Q 3566 2609 3566 1747 
Q 3566 888 3137 398 
Q 2709 -91 1959 -91 
Q 1206 -91 779 398 
Q 353 888 353 1747 
Q 353 2609 779 3096 
Q 1206 3584 1959 3584 
z
" transform="scale(0.015625)"/>
       <path id="DejaVuSans-6c" d="M 603 4863 
L 1178 4863 
L 1178 0 
L 603 0 
L 603 4863 
z
" transform="scale(0.015625)"/>
       <path id="DejaVuSans-69" d="M 603 3500 
L 1178 3500 
L 1178 0 
L 603 0 
L 603 3500 
z
M 603 4863 
L 1178 4863 
L 1178 4134 
L 603 4134 
L 603 4863 
z
" transform="scale(0.015625)"/>
       <path id="DejaVuSans-67" d="M 2906 1791 
Q 2906 2416 2648 2759 
Q 2391 3103 1925 3103 
Q 1463 3103 1205 2759 
Q 947 2416 947 1791 
Q 947 1169 1205 825 
Q 1463 481 1925 481 
Q 2391 481 2648 825 
Q 2906 1169 2906 1791 
z
M 3481 434 
Q 3481 -459 3084 -895 
Q 2688 -1331 1869 -1331 
Q 1566 -1331 1297 -1286 
Q 1028 -1241 775 -1147 
L 775 -588 
Q 1028 -725 1275 -790 
Q 1522 -856 1778 -856 
Q 2344 -856 2625 -561 
Q 2906 -266 2906 331 
L 2906 616 
Q 2728 306 2450 153 
Q 2172 0 1784 0 
Q 1141 0 747 490 
Q 353 981 353 1791 
Q 353 2603 747 3093 
Q 1141 3584 1784 3584 
Q 2172 3584 2450 3431 
Q 2728 3278 2906 2969 
L 2906 3500 
L 3481 3500 
L 3481 434 
z
" transform="scale(0.015625)"/>
       <path id="DejaVuSans-76" d="M 191 3500 
L 800 3500 
L 1894 563 
L 2988 3500 
L 3597 3500 
L 2284 0 
L 1503 0 
L 191 3500 
z
" transform="scale(0.015625)"/>
       <path id="DejaVuSans-29" d="M 513 4856 
L 1013 4856 
Q 1481 4119 1714 3412 
Q 1947 2706 1947 2009 
Q 1947 1309 1714 600 
Q 1481 -109 1013 -844 
L 513 -844 
Q 928 -128 1133 580 
Q 1338 1288 1338 2009 
Q 1338 2731 1133 3434 
Q 928 4138 513 4856 
z
" transform="scale(0.015625)"/>
      </defs>
      <use xlink:href="#DejaVuSans-46"/>
      <use xlink:href="#DejaVuSans-72" x="50.269531"/>
      <use xlink:href="#DejaVuSans-65" x="89.132812"/>
      <use xlink:href="#DejaVuSans-71" x="150.65625"/>
      <use xlink:href="#DejaVuSans-75" x="214.132812"/>
      <use xlink:href="#DejaVuSans-65" x="277.511719"/>
      <use xlink:href="#DejaVuSans-6e" x="339.035156"/>
      <use xlink:href="#DejaVuSans-63" x="402.414062"/>
      <use xlink:href="#DejaVuSans-79" x="457.394531"/>
      <use xlink:href="#DejaVuSans-20" x="516.574219"/>
      <use xlink:href="#DejaVuSans-28" x="548.361328"/>
      <use xlink:href="#DejaVuSans-37" x="587.375"/>
      <use xlink:href="#DejaVuSans-20" x="650.998047"/>
      <use xlink:href="#DejaVuSans-64" x="682.785156"/>
      <use xlink:href="#DejaVuSans-61" x="746.261719"/>
      <use xlink:href="#DejaVuSans-79" x="807.541016"/>
      <use xlink:href="#DejaVuSans-20" x="866.720703"/>
      <use xlink:href="#DejaVuSans-72" x="898.507812"/>
      <use xlink:href="#DejaVuSans-6f" x="937.371094"/>
      <use xlink:href="#DejaVuSans-6c" x="998.552734"/>
      <use xlink:href="#DejaVuSans-6c" x="1026.335938"/>
      <use xlink:href="#DejaVuSans-69" x="1054.119141"/>
      <use xlink:href="#DejaVuSans-6e" x="1081.902344"/>
      <use xlink:href="#DejaVuSans-67" x="1145.28125"/>
      <use xlink:href="#DejaVuSans-20" x="1208.757812"/>
      <use xlink:href="#DejaVuSans-61" x="1240.544922"/>
      <use xlink:href="#DejaVuSans-76" x="1301.824219"/>
      <use xlink:href="#DejaVuSans-65" x="1361.003906"/>
      <use xlink:href="#DejaVuSans-72" x="1422.527344"/>
      <use xlink:href="#DejaVuSans-61" x="1463.640625"/>
      <use xlink:href="#DejaVuSans-67" x="1524.919922"/>
      <use xlink:href="#DejaVuSans-65" x="1588.396484"/>
      <use xlink:href="#DejaVuSans-29" x="1649.919922"/>
     </g>
    </g>
   </g>
   <g id="line2d_21">
    <path d="M 94.508523 226.978145 
L 95.591282 228.96 
L 98.83956 228.96 
L 99.922319 227.411676 
L 104.253356 227.411676 
L 105.336116 228.96 
L 112.915431 228.96 
L 113.99819 227.721341 
L 118.329227 227.721341 
L 119.411986 228.96 
L 120.494746 227.221531 
L 121.577505 227.221531 
L 122.660264 225.38648 
L 124.825783 225.38648 
L 125.908542 227.124949 
L 126.991301 225.526679 
L 128.074061 227.36173 
L 129.15682 227.36173 
L 130.239579 225.526679 
L 131.322339 225.526679 
L 132.405098 227.124949 
L 134.570616 227.124949 
L 135.653376 228.363056 
L 139.984413 228.363056 
L 141.067172 228.96 
L 150.812006 228.96 
L 151.894765 227.458595 
L 152.977524 227.458595 
L 154.060284 226.672144 
L 156.225802 226.672144 
L 157.308562 228.17355 
L 158.391321 228.17355 
L 159.47408 228.96 
L 163.805117 228.96 
L 164.887877 228.090765 
L 165.970636 228.090765 
L 167.053395 227.119268 
L 168.136154 226.307032 
L 169.218914 224.505346 
L 170.301673 225.374581 
L 171.384432 221.245716 
L 172.467192 220.347539 
L 173.549951 221.159775 
L 174.63271 222.961461 
L 175.715469 222.961461 
L 176.798229 227.090326 
L 177.880988 228.96 
L 178.963747 225.656908 
L 181.129266 225.656908 
L 182.212025 221.093427 
L 183.294784 215.051186 
L 184.377544 214.856886 
L 186.543062 214.856886 
L 187.625822 209.399753 
L 188.708581 211.31313 
L 189.79134 204.148643 
L 190.8741 201.540939 
L 191.956859 196.822237 
L 193.039618 201.212582 
L 194.122377 197.599825 
L 195.205137 200.350938 
L 196.287896 196.475938 
L 197.370655 192.186209 
L 198.453415 191.46438 
L 199.536174 196.919245 
L 200.618933 197.489807 
L 201.701692 197.366327 
L 202.784452 198.926611 
L 203.867211 198.506184 
L 204.94997 196.625488 
L 207.115489 200.700135 
L 208.198248 206.550012 
L 209.281007 209.60656 
L 210.363767 207.759713 
L 211.446526 207.657831 
L 212.529285 203.748512 
L 214.694804 192.934876 
L 215.777563 194.304203 
L 216.860322 190.701737 
L 217.943082 192.265543 
L 219.025841 181.035854 
L 220.1086 179.169646 
L 221.19136 175.071141 
L 222.274119 174.779918 
L 223.356878 166.031715 
L 224.439638 171.286633 
L 225.522397 171.7226 
L 226.605156 170.054159 
L 227.687915 164.68725 
L 228.770675 168.059454 
L 229.853434 172.362262 
L 230.936193 166.306142 
L 233.101712 173.585543 
L 234.184471 171.011705 
L 235.26723 164.689051 
L 236.34999 168.151639 
L 237.432749 155.618064 
L 239.598268 145.942381 
L 240.681027 146.261987 
L 241.763786 141.114637 
L 242.846545 146.006522 
L 243.929305 137.694522 
L 245.012064 136.251536 
L 246.094823 132.13383 
L 247.177583 129.411502 
L 248.260342 119.75239 
L 249.343101 120.287705 
L 250.42586 116.778443 
L 251.50862 105.630509 
L 252.591379 106.702941 
L 254.756898 102.570063 
L 255.839657 99.702197 
L 256.922416 102.080422 
L 258.005175 90.876099 
L 259.087935 89.245417 
L 260.170694 87.893768 
L 261.253453 87.521239 
L 262.336213 82.493999 
L 263.418972 86.851688 
L 264.501731 82.852317 
L 265.584491 82.641295 
L 266.66725 74.119278 
L 267.750009 71.281338 
L 268.832768 67.618135 
L 269.915528 70.153419 
L 270.998287 68.077645 
L 272.081046 70.032801 
L 273.163806 75.392713 
L 274.246565 72.356499 
L 275.329324 64.281222 
L 276.412083 59.430877 
L 277.494843 63.166517 
L 278.577602 63.293559 
L 279.660361 60.075266 
L 280.743121 63.415933 
L 281.82588 60.652836 
L 282.908639 56.107615 
L 283.991398 47.849886 
L 285.074158 46.239889 
L 286.156917 42.098945 
L 287.239676 40.48888 
L 288.322436 40.494337 
L 289.405195 43.234074 
L 290.487954 42.955835 
L 291.570713 46.293854 
L 292.653473 51.975171 
L 293.736232 52.504037 
L 294.818991 51.085537 
L 295.901751 54.984615 
L 296.98451 50.450158 
L 298.067269 53.441147 
L 299.150029 56.788875 
L 300.232788 56.258715 
L 301.315547 55.306018 
L 302.398306 64.865514 
L 304.563825 52.747996 
L 305.646584 55.593096 
L 306.729344 67.818563 
L 307.812103 64.038283 
L 308.894862 63.861419 
L 309.977621 69.952327 
L 311.060381 67.045153 
L 312.14314 53.555056 
L 313.225899 51.079949 
L 314.308659 59.218728 
L 315.391418 53.942372 
L 316.474177 53.402117 
L 317.556936 51.89171 
L 318.639696 51.847319 
L 319.722455 39.702143 
L 320.805214 38.90153 
L 321.887974 43.577662 
L 322.970733 41.530988 
L 324.053492 36.596748 
L 325.136251 34.918671 
L 326.219011 36.920291 
L 327.30177 30.864762 
L 328.384529 33.681257 
L 329.467289 45.691391 
L 330.550048 51.7106 
L 331.632807 48.481556 
L 332.715566 49.36254 
L 333.798326 47.07881 
L 334.881085 37.518961 
L 335.963844 35.328496 
L 337.046604 40.286156 
L 339.212122 41.270175 
L 340.294882 43.324151 
L 341.377641 44.20712 
L 342.4604 41.376576 
L 343.543159 40.583541 
L 344.625919 47.645952 
L 345.708678 47.891424 
L 346.791437 41.907007 
L 347.874197 37.8859 
L 348.956956 36.617793 
L 350.039715 27.276667 
L 351.122474 22.649443 
L 352.205234 27.450221 
L 353.287993 29.673687 
L 354.370752 27.118835 
L 355.453512 27.143878 
L 356.536271 24.762592 
L 357.61903 21.932679 
L 358.701789 17.76 
L 359.784549 25.991087 
L 360.867308 28.705656 
L 361.950067 29.994494 
L 363.032827 32.256717 
L 364.115586 35.463636 
L 365.198345 35.191355 
L 366.281104 37.109937 
L 367.363864 44.917767 
L 368.446623 44.340423 
L 369.529382 40.724979 
L 370.612142 36.076158 
L 371.694901 35.120593 
L 372.77766 31.814215 
L 373.860419 33.720904 
L 374.943179 39.034061 
L 376.025938 36.973645 
L 378.191457 29.168475 
L 379.274216 26.485366 
L 380.356975 26.361169 
L 381.439735 31.031679 
L 382.522494 38.429275 
L 383.605253 38.165084 
L 384.688012 35.81378 
L 385.770772 31.741613 
L 386.853531 28.14671 
L 387.93629 22.855189 
L 389.01905 25.724841 
L 390.101809 36.498832 
L 391.184568 37.637754 
L 392.267327 35.822389 
L 393.350087 31.916892 
L 394.432846 29.348604 
L 395.515605 23.554433 
L 396.598365 26.653537 
L 397.681124 35.458457 
L 398.763883 41.172151 
L 399.846642 41.767573 
L 400.929402 40.745729 
L 402.012161 43.629011 
L 403.09492 40.798594 
L 404.17768 46.742983 
L 405.260439 57.289739 
L 406.343198 61.943579 
L 407.425957 56.943714 
L 408.508717 56.746402 
L 409.591476 55.713249 
L 410.674235 55.565577 
L 411.756995 62.51682 
L 412.839754 71.652474 
L 413.922513 75.795107 
L 415.005273 72.226832 
L 416.088032 66.795105 
L 417.170791 63.897352 
L 418.25355 65.419881 
L 419.33631 64.369677 
L 420.419069 75.911944 
L 421.501828 74.612794 
L 422.584588 69.154336 
L 423.667347 66.606958 
L 424.750106 69.130845 
L 425.832865 69.442604 
L 427.998384 93.725793 
L 429.081143 96.194074 
L 430.163903 95.338922 
L 431.246662 92.949113 
L 432.329421 93.162509 
L 433.41218 93.955912 
L 434.49494 102.490879 
L 436.660458 128.318226 
L 437.743218 130.492219 
L 438.825977 132.947089 
L 439.908736 133.972445 
L 440.991495 135.972312 
L 442.074255 136.427579 
L 443.157014 143.219324 
L 444.239773 145.574641 
L 445.322533 146.77179 
L 446.405292 147.511549 
L 447.488051 145.591577 
L 448.57081 146.391222 
L 450.736329 154.529961 
L 451.819088 157.338016 
L 452.901848 158.849153 
L 453.984607 160.613519 
L 455.067366 159.66982 
L 456.150126 160.257438 
L 457.232885 160.494883 
L 458.315644 164.383627 
L 461.563922 178.278428 
L 462.646681 180.475419 
L 463.729441 182.983893 
L 464.8122 182.12718 
L 465.894959 185.071121 
L 466.977718 186.604609 
L 468.060478 190.122938 
L 469.143237 191.607328 
L 470.225996 195.275792 
L 471.308756 196.139719 
L 472.391515 196.136435 
L 473.474274 196.393398 
L 474.557033 198.248378 
L 475.639793 198.065353 
L 476.722552 198.873089 
L 477.805311 200.268929 
L 478.888071 200.499254 
L 481.053589 204.337953 
L 483.219108 207.24418 
L 484.301867 209.699016 
L 485.384626 209.62379 
L 486.467386 208.780477 
L 487.550145 209.561702 
L 488.632904 211.016541 
L 489.715664 213.051188 
L 490.798423 213.944803 
L 491.881182 216.935591 
L 492.963941 217.03171 
L 494.046701 217.860257 
L 495.12946 217.556083 
L 496.212219 217.993028 
L 497.294979 218.869888 
L 498.377738 220.15158 
L 499.460497 220.778032 
L 501.626016 220.520374 
L 502.708775 219.081147 
L 503.791534 219.015934 
L 504.874294 218.74343 
L 505.957053 219.564662 
L 507.039812 220.163732 
L 508.122571 221.629957 
L 509.205331 221.640324 
L 510.28809 222.177921 
L 511.370849 221.109834 
L 512.453609 222.178063 
L 513.536368 221.988704 
L 514.619127 222.275985 
L 515.701886 223.049775 
L 516.784646 223.317723 
L 517.867405 222.883972 
L 518.950164 223.481182 
L 520.032924 222.684164 
L 521.115683 222.567065 
L 522.198442 223.399983 
L 523.281201 223.142291 
L 524.363961 222.295752 
L 525.44672 222.611345 
L 526.529479 223.528871 
L 528.694998 224.366243 
L 529.777757 225.071031 
L 530.860517 226.12134 
L 531.943276 225.380736 
L 533.026035 225.287604 
L 536.274313 226.669181 
L 537.357072 226.835148 
L 538.439832 227.187701 
L 539.522591 227.375003 
L 540.60535 227.08554 
L 541.688109 227.31925 
L 542.770869 227.122736 
L 543.853628 226.387935 
L 544.936387 226.276433 
L 546.019147 226.464625 
L 547.101906 226.189876 
L 548.184665 226.961025 
L 549.267424 227.9952 
L 551.432943 228.465696 
L 552.515702 228.508196 
L 554.681221 228.246683 
L 555.76398 228.246683 
L 559.012258 227.605864 
L 560.095017 227.619849 
L 561.177777 227.170109 
L 562.260536 227.031999 
L 563.343295 227.249712 
L 564.426055 227.346994 
L 565.508814 226.906828 
L 573.088129 228.380135 
L 574.170888 228.318448 
L 578.501925 228.783887 
L 579.584685 228.590251 
L 580.667444 226.192846 
L 581.750203 226.192846 
L 582.832962 225.804754 
L 583.915722 225.582573 
L 584.998481 225.796271 
L 586.08124 228.193676 
L 587.164 227.98103 
L 588.246759 228.369122 
L 589.329518 228.160881 
L 590.412277 227.777934 
L 591.495037 227.593918 
L 593.660555 227.627696 
L 595.826074 228.597116 
L 597.991592 228.930508 
L 632.63989 228.96 
L 633.722649 228.680077 
L 638.053686 228.680077 
L 639.136445 228.96 
L 647.79852 228.96 
L 648.881279 228.721796 
L 653.212316 228.721796 
L 654.295076 228.96 
L 780.977912 228.96 
L 782.060672 228.79621 
L 786.391709 228.79621 
L 787.474468 228.96 
L 788.557227 228.96 
L 789.639987 228.847522 
L 793.971024 228.847522 
L 795.053783 228.96 
L 813.460691 228.96 
L 814.54345 228.687767 
L 814.54345 228.687767 
" clip-path="url(#pd7e1a50a53)" style="fill: none; stroke: #947383; stroke-width: 2; stroke-linecap: square"/>
   </g>
   <g id="line2d_22">
    <path d="M 173.549951 228.670255 
L 174.63271 228.96 
L 187.625822 228.96 
L 188.708581 228.661528 
L 193.039618 228.661528 
L 194.122377 228.96 
L 202.784452 228.96 
L 203.867211 228.837718 
L 214.694804 228.932881 
L 217.943082 228.906696 
L 222.274119 228.923254 
L 238.515508 228.826599 
L 242.846545 228.812657 
L 251.50862 228.807878 
L 255.839657 228.697325 
L 262.336213 228.40846 
L 263.418972 228.461512 
L 265.584491 228.115212 
L 266.66725 227.994722 
L 267.750009 227.757802 
L 270.998287 227.57677 
L 272.081046 227.342022 
L 273.163806 227.33246 
L 275.329324 226.312481 
L 276.412083 225.788877 
L 277.494843 225.700677 
L 278.577602 225.4549 
L 279.660361 225.369238 
L 280.743121 225.483744 
L 281.82588 225.411703 
L 282.908639 224.754726 
L 285.074158 222.307491 
L 288.322436 219.763709 
L 290.487954 218.856891 
L 292.653473 216.489621 
L 293.736232 216.42961 
L 295.901751 216.114494 
L 296.98451 216.204346 
L 298.067269 215.891667 
L 299.150029 214.735796 
L 300.232788 212.793633 
L 302.398306 211.987579 
L 303.481066 211.804782 
L 304.563825 211.817014 
L 305.646584 212.785499 
L 306.729344 212.341187 
L 307.812103 211.446919 
L 308.894862 211.326628 
L 309.977621 211.350782 
L 311.060381 210.892189 
L 312.14314 210.686407 
L 313.225899 210.669297 
L 314.308659 209.200639 
L 315.391418 207.39125 
L 316.474177 207.073609 
L 317.556936 207.202017 
L 318.639696 206.957566 
L 320.805214 208.875796 
L 321.887974 208.082591 
L 322.970733 206.444367 
L 324.053492 205.204227 
L 326.219011 203.138732 
L 327.30177 202.870707 
L 328.384529 202.783096 
L 329.467289 202.220669 
L 330.550048 201.288286 
L 332.715566 200.881086 
L 333.798326 200.909995 
L 334.881085 201.665438 
L 335.963844 202.157607 
L 337.046604 201.131753 
L 338.129363 200.538424 
L 340.294882 200.126819 
L 341.377641 199.233124 
L 342.4604 199.553258 
L 343.543159 199.315165 
L 344.625919 197.761582 
L 345.708678 195.709493 
L 348.956956 194.690166 
L 350.039715 194.920766 
L 351.122474 194.764435 
L 352.205234 194.072536 
L 353.287993 192.810386 
L 354.370752 192.705448 
L 355.453512 193.083301 
L 356.536271 192.883265 
L 358.701789 191.641922 
L 359.784549 190.671796 
L 361.950067 185.80554 
L 363.032827 186.054564 
L 364.115586 185.975873 
L 365.198345 184.921751 
L 366.281104 185.450076 
L 367.363864 188.54219 
L 368.446623 187.327023 
L 369.529382 187.688185 
L 371.694901 190.399699 
L 372.77766 191.481899 
L 373.860419 194.111081 
L 374.943179 195.507166 
L 376.025938 197.258112 
L 377.108697 198.463072 
L 378.191457 198.661909 
L 380.356975 200.253184 
L 381.439735 200.975168 
L 382.522494 201.983064 
L 384.688012 202.696394 
L 385.770772 203.996874 
L 386.853531 203.840349 
L 387.93629 204.249051 
L 389.01905 204.885735 
L 390.101809 206.093679 
L 391.184568 206.431162 
L 392.267327 208.139388 
L 393.350087 209.195396 
L 394.432846 210.706789 
L 395.515605 211.282484 
L 396.598365 212.638647 
L 397.681124 212.937876 
L 398.763883 212.30679 
L 399.846642 213.649571 
L 402.012161 215.703028 
L 403.09492 216.401415 
L 404.17768 218.395777 
L 407.425957 219.810038 
L 409.591476 221.503291 
L 410.674235 222.01301 
L 411.756995 222.668353 
L 412.839754 223.156125 
L 416.088032 224.136284 
L 418.25355 224.749794 
L 421.501828 225.898028 
L 423.667347 226.406738 
L 426.915625 226.705177 
L 433.41218 227.381347 
L 437.743218 227.503242 
L 439.908736 227.724389 
L 443.157014 228.171862 
L 446.405292 228.117329 
L 450.736329 228.363739 
L 455.067366 228.412065 
L 460.481163 228.647483 
L 462.646681 228.746395 
L 468.060478 228.599364 
L 491.881182 228.915395 
L 614.232982 228.96 
L 751.743412 228.931414 
L 751.743412 228.931414 
" clip-path="url(#pd7e1a50a53)" style="fill: none; stroke: #96c6ad; stroke-width: 2; stroke-linecap: square"/>
   </g>
   <g id="line2d_23">
    <path d="M 207.115489 225.287539 
L 209.281007 227.251504 
L 210.363767 227.251504 
L 211.446526 228.363056 
L 212.529285 227.139688 
L 213.612045 226.701225 
L 214.694804 225.562228 
L 215.777563 225.562228 
L 216.860322 226.159172 
L 220.1086 225.99473 
L 221.19136 224.976654 
L 222.274119 224.228784 
L 223.356878 224.70369 
L 224.439638 224.719992 
L 225.522397 225.425725 
L 226.605156 226.345495 
L 229.853434 227.799353 
L 230.936193 227.945682 
L 233.101712 227.849879 
L 235.26723 227.921921 
L 236.34999 228.165629 
L 237.432749 228.109571 
L 238.515508 227.558492 
L 239.598268 227.313048 
L 241.763786 227.099931 
L 242.846545 225.344884 
L 243.929305 225.722349 
L 246.094823 225.877344 
L 247.177583 225.633164 
L 248.260342 227.533508 
L 249.343101 227.605734 
L 250.42586 227.48436 
L 251.50862 227.170533 
L 252.591379 227.292063 
L 253.674138 226.667824 
L 254.756898 226.174855 
L 256.922416 226.624504 
L 258.005175 226.596433 
L 260.170694 227.58647 
L 261.253453 227.139953 
L 263.418972 227.386615 
L 264.501731 227.020413 
L 265.584491 226.978989 
L 266.66725 227.182509 
L 267.750009 227.046263 
L 268.832768 226.693154 
L 275.329324 227.310964 
L 277.494843 226.300735 
L 278.577602 226.259334 
L 279.660361 226.08161 
L 281.82588 226.326836 
L 282.908639 226.623267 
L 283.991398 225.802248 
L 285.074158 225.69167 
L 286.156917 225.889388 
L 288.322436 226.029323 
L 289.405195 226.619411 
L 290.487954 226.821611 
L 292.653473 225.719713 
L 293.736232 225.931627 
L 298.067269 226.23196 
L 299.150029 225.68987 
L 300.232788 225.606445 
L 301.315547 225.75396 
L 303.481066 225.16017 
L 304.563825 225.285652 
L 305.646584 224.93136 
L 306.729344 224.220901 
L 307.812103 224.661633 
L 308.894862 225.488119 
L 309.977621 225.690247 
L 311.060381 225.715138 
L 312.14314 225.973819 
L 313.225899 225.720367 
L 315.391418 224.966336 
L 316.474177 225.182227 
L 317.556936 224.966745 
L 318.639696 224.876825 
L 320.805214 224.939631 
L 321.887974 224.837469 
L 322.970733 225.032116 
L 324.053492 225.480641 
L 328.384529 225.442755 
L 329.467289 224.771961 
L 330.550048 224.649221 
L 331.632807 224.870851 
L 332.715566 224.897474 
L 333.798326 224.796681 
L 334.881085 225.166595 
L 335.963844 225.251395 
L 338.129363 223.890877 
L 339.212122 224.29033 
L 340.294882 224.321937 
L 341.377641 223.818891 
L 342.4604 223.951603 
L 343.543159 224.292519 
L 344.625919 223.969817 
L 345.708678 223.144206 
L 346.791437 223.749375 
L 348.956956 223.265556 
L 350.039715 222.90029 
L 351.122474 222.899086 
L 352.205234 221.982568 
L 353.287993 221.956134 
L 354.370752 222.611353 
L 355.453512 222.887356 
L 356.536271 223.534695 
L 357.61903 223.886466 
L 358.701789 223.803803 
L 359.784549 223.086301 
L 360.867308 221.774532 
L 363.032827 222.047931 
L 364.115586 222.374654 
L 365.198345 222.242054 
L 366.281104 222.49073 
L 367.363864 221.773425 
L 368.446623 220.857958 
L 369.529382 221.23105 
L 370.612142 221.743518 
L 371.694901 222.820818 
L 372.77766 223.154798 
L 373.860419 223.995945 
L 374.943179 223.615053 
L 378.191457 223.370894 
L 380.356975 223.37066 
L 381.439735 223.026836 
L 382.522494 222.475522 
L 383.605253 222.968122 
L 384.688012 222.400169 
L 385.770772 221.048646 
L 386.853531 220.896786 
L 387.93629 221.270286 
L 389.01905 220.767398 
L 390.101809 220.778658 
L 391.184568 222.235125 
L 392.267327 222.464648 
L 395.515605 220.643214 
L 396.598365 219.832422 
L 397.681124 220.02609 
L 398.763883 221.462356 
L 399.846642 221.668943 
L 400.929402 222.742675 
L 402.012161 223.380393 
L 403.09492 223.119766 
L 404.17768 222.566347 
L 405.260439 222.962715 
L 406.343198 223.849027 
L 407.425957 224.515795 
L 408.508717 224.960933 
L 410.674235 225.513591 
L 411.756995 225.145015 
L 412.839754 225.334374 
L 413.922513 226.128241 
L 415.005273 226.576208 
L 416.088032 227.161847 
L 418.25355 227.763845 
L 419.33631 227.700321 
L 422.584588 227.924541 
L 424.750106 228.015136 
L 426.915625 228.012486 
L 427.998384 228.157262 
L 430.163903 228.276235 
L 432.329421 228.451962 
L 435.577699 228.639342 
L 439.908736 228.744787 
L 469.143237 228.850249 
L 473.474274 228.897146 
L 481.053589 228.934861 
L 482.136348 228.80585 
L 486.467386 228.793503 
L 487.550145 228.936618 
L 1109.053977 228.89385 
L 1109.053977 228.89385 
" clip-path="url(#pd7e1a50a53)" style="fill: none; stroke: #525886; stroke-width: 2; stroke-linecap: square"/>
   </g>
   <g id="line2d_24">
    <path d="M 240.681027 228.906291 
L 243.929305 228.96 
L 270.998287 228.858709 
L 281.82588 228.81194 
L 287.239676 228.932071 
L 292.653473 228.910563 
L 295.901751 228.885041 
L 302.398306 228.619744 
L 303.481066 228.680175 
L 305.646584 228.527086 
L 311.060381 228.645611 
L 312.14314 228.297685 
L 316.474177 227.943456 
L 317.556936 228.266758 
L 324.053492 228.500287 
L 325.136251 228.12541 
L 326.219011 228.283559 
L 329.467289 228.012504 
L 330.550048 228.345467 
L 333.798326 228.360624 
L 334.881085 228.50557 
L 335.963844 228.353916 
L 337.046604 228.352158 
L 338.129363 228.087659 
L 339.212122 228.059278 
L 341.377641 228.369561 
L 342.4604 228.277402 
L 343.543159 228.607569 
L 345.708678 228.71567 
L 346.791437 228.657616 
L 347.874197 228.807454 
L 353.287993 228.857934 
L 354.370752 228.918504 
L 356.536271 228.673247 
L 373.860419 228.8846 
L 376.025938 228.832845 
L 379.274216 228.893938 
L 381.439735 228.946347 
L 708.43304 228.939793 
L 708.43304 228.939793 
" clip-path="url(#pd7e1a50a53)" style="fill: none; stroke: #937252; stroke-width: 2; stroke-linecap: square"/>
   </g>
   <g id="line2d_25">
    <path d="M 204.94997 228.025163 
L 206.03273 228.96 
L 208.198248 228.96 
L 209.281007 228.726291 
L 213.612045 228.726291 
L 214.694804 228.96 
L 227.687915 228.96 
L 228.770675 228.122597 
L 233.101712 228.122597 
L 234.184471 228.96 
L 235.26723 228.678487 
L 239.598268 228.678487 
L 240.681027 228.96 
L 241.763786 228.303757 
L 243.929305 228.303757 
L 245.012064 228.045703 
L 246.094823 227.489002 
L 247.177583 228.145245 
L 249.343101 228.145245 
L 251.50862 228.625227 
L 253.674138 228.625227 
L 254.756898 227.973301 
L 255.839657 227.629229 
L 256.922416 227.964002 
L 258.005175 226.966424 
L 259.087935 226.966424 
L 260.170694 227.51017 
L 261.253453 227.854242 
L 262.336213 227.202316 
L 263.418972 228.026655 
L 266.66725 227.917526 
L 267.750009 228.238038 
L 268.832768 228.107312 
L 269.915528 228.107312 
L 272.081046 227.496249 
L 274.246565 225.931653 
L 275.329324 225.531008 
L 276.412083 224.636795 
L 277.494843 224.247966 
L 280.743121 225.739395 
L 281.82588 226.767576 
L 282.908639 226.789685 
L 283.991398 227.452513 
L 285.074158 227.112426 
L 286.156917 227.016033 
L 287.239676 226.775622 
L 288.322436 227.526377 
L 289.405195 227.254642 
L 290.487954 227.889806 
L 291.570713 227.902365 
L 292.653473 228.308482 
L 296.98451 228.633619 
L 298.067269 228.633619 
L 299.150029 227.846336 
L 300.232788 227.929939 
L 302.398306 227.84149 
L 303.481066 227.690126 
L 304.563825 228.475148 
L 306.729344 228.53291 
L 307.812103 228.163172 
L 308.894862 228.314535 
L 309.977621 228.276586 
L 311.060381 228.39181 
L 312.14314 228.349318 
L 313.225899 228.783625 
L 314.308659 228.621709 
L 316.474177 228.714405 
L 319.722455 228.79742 
L 320.805214 228.766021 
L 321.887974 228.568231 
L 329.467289 228.590113 
L 330.550048 228.730782 
L 335.963844 228.643809 
L 338.129363 228.81457 
L 341.377641 228.96 
L 344.625919 228.878126 
L 345.708678 228.742196 
L 352.205234 228.812086 
L 357.61903 228.914335 
L 364.115586 228.904764 
L 365.198345 228.171162 
L 368.446623 228.226398 
L 369.529382 228.014661 
L 370.612142 228.248426 
L 371.694901 228.248426 
L 373.860419 227.976685 
L 374.943179 228.188422 
L 376.025938 228.539917 
L 377.108697 228.539917 
L 378.191457 228.673645 
L 379.274216 228.513954 
L 380.356975 228.513954 
L 381.439735 228.024111 
L 383.605253 228.024111 
L 384.688012 228.321815 
L 385.770772 228.088765 
L 386.853531 228.503265 
L 387.93629 228.503265 
L 389.01905 227.897698 
L 390.101809 227.897698 
L 392.267327 228.354433 
L 393.350087 228.271022 
L 394.432846 228.876589 
L 395.515605 228.876589 
L 397.681124 228.469436 
L 400.929402 228.36271 
L 403.09492 228.754108 
L 406.343198 228.944246 
L 409.591476 228.925133 
L 410.674235 228.754185 
L 415.005273 228.654744 
L 416.088032 228.825692 
L 417.170791 228.809848 
L 419.33631 228.908842 
L 422.584588 228.934262 
L 424.750106 228.852394 
L 425.832865 228.811042 
L 427.998384 228.482505 
L 430.163903 228.564373 
L 431.246662 228.631464 
L 432.329421 228.812687 
L 433.41218 228.595391 
L 437.743218 228.544624 
L 438.825977 228.869006 
L 453.984607 228.933117 
L 757.157208 228.96 
L 758.239967 228.830467 
L 759.322727 228.830467 
L 760.405486 228.648177 
L 762.571005 228.648177 
L 763.653764 228.77771 
L 764.736523 228.77771 
L 765.819282 228.96 
L 767.984801 228.856725 
L 767.984801 228.856725 
" clip-path="url(#pd7e1a50a53)" style="fill: none; stroke: #d18cad; stroke-width: 2; stroke-linecap: square"/>
   </g>
   <g id="line2d_26">
    <path d="M 267.750009 212.444542 
L 268.832768 221.881947 
L 269.915528 221.881947 
L 270.998287 221.881947 
L 272.081046 219.900092 
L 273.163806 219.900092 
L 274.246565 226.978145 
L 275.329324 226.978145 
L 276.412083 226.978145 
L 277.494843 228.96 
L 278.577602 228.96 
L 279.660361 228.96 
L 280.743121 228.96 
L 281.82588 226.045507 
L 282.908639 226.045507 
L 283.991398 226.045507 
L 285.074158 226.045507 
L 286.156917 226.045507 
L 287.239676 228.96 
L 288.322436 228.96 
L 289.405195 228.96 
L 290.487954 228.96 
L 291.570713 224.455784 
L 292.653473 224.455784 
L 293.736232 224.455784 
L 294.818991 224.455784 
L 295.901751 224.455784 
L 296.98451 228.96 
L 298.067269 228.96 
L 299.150029 228.96 
L 300.232788 228.96 
L 301.315547 224.455784 
L 302.398306 224.455784 
L 303.481066 224.455784 
L 304.563825 217.377731 
L 305.646584 217.377731 
L 306.729344 221.881947 
L 307.812103 221.881947 
L 308.894862 221.881947 
L 309.977621 226.707892 
L 311.060381 226.707892 
L 312.14314 226.707892 
L 313.225899 226.707892 
L 314.308659 226.707892 
L 315.391418 228.96 
L 316.474177 228.96 
L 317.556936 228.96 
L 318.639696 228.96 
L 319.722455 224.831136 
L 320.805214 224.831136 
L 321.887974 224.831136 
L 322.970733 224.831136 
L 324.053492 224.831136 
L 325.136251 228.96 
L 326.219011 228.96 
L 327.30177 228.96 
L 328.384529 224.005363 
L 329.467289 224.005363 
L 330.550048 224.005363 
L 331.632807 224.005363 
L 332.715566 224.005363 
L 333.798326 228.96 
L 334.881085 228.96 
L 335.963844 228.96 
L 337.046604 228.96 
L 338.129363 228.96 
L 339.212122 228.96 
L 340.294882 228.96 
L 341.377641 228.96 
L 342.4604 224.455784 
L 343.543159 224.455784 
L 344.625919 224.455784 
L 345.708678 224.455784 
L 346.791437 224.455784 
L 347.874197 228.96 
L 348.956956 228.96 
L 350.039715 228.96 
L 351.122474 228.96 
L 352.205234 228.96 
L 353.287993 228.96 
L 354.370752 228.96 
L 355.453512 228.96 
L 356.536271 228.96 
L 357.61903 228.96 
L 358.701789 228.96 
L 359.784549 228.96 
L 360.867308 228.96 
L 361.950067 223.454847 
" clip-path="url(#pd7e1a50a53)" style="fill: none; stroke: #a4a86f; stroke-width: 2; stroke-linecap: square"/>
   </g>
   <g id="line2d_27">
    <path clip-path="url(#pd7e1a50a53)" style="fill: none; stroke: #d3d3d3; stroke-width: 2; stroke-linecap: square"/>
   </g>
   <g id="patch_3">
    <path d="M 43.78125 228.96 
L 43.78125 7.2 
" style="fill: none; stroke: #000000; stroke-width: 0.8; stroke-linejoin: miter; stroke-linecap: square"/>
   </g>
   <g id="patch_4">
    <path d="M 43.78125 228.96 
L 1159.78125 228.96 
" style="fill: none; stroke: #000000; stroke-width: 0.8; stroke-linejoin: miter; stroke-linecap: square"/>
   </g>
   <g id="legend_1">
    <g id="line2d_28">
     <path d="M 1065.97 17.67875 
L 1073.97 17.67875 
L 1081.97 17.67875 
" style="fill: none; stroke: #947383; stroke-width: 2; stroke-linecap: square"/>
    </g>
    <g id="text_23">
     <!-- South America -->
     <g transform="translate(1088.37 20.47875)scale(0.08 -0.08)">
      <defs>
       <path id="DejaVuSans-53" d="M 3425 4513 
L 3425 3897 
Q 3066 4069 2747 4153 
Q 2428 4238 2131 4238 
Q 1616 4238 1336 4038 
Q 1056 3838 1056 3469 
Q 1056 3159 1242 3001 
Q 1428 2844 1947 2747 
L 2328 2669 
Q 3034 2534 3370 2195 
Q 3706 1856 3706 1288 
Q 3706 609 3251 259 
Q 2797 -91 1919 -91 
Q 1588 -91 1214 -16 
Q 841 59 441 206 
L 441 856 
Q 825 641 1194 531 
Q 1563 422 1919 422 
Q 2459 422 2753 634 
Q 3047 847 3047 1241 
Q 3047 1584 2836 1778 
Q 2625 1972 2144 2069 
L 1759 2144 
Q 1053 2284 737 2584 
Q 422 2884 422 3419 
Q 422 4038 858 4394 
Q 1294 4750 2059 4750 
Q 2388 4750 2728 4690 
Q 3069 4631 3425 4513 
z
" transform="scale(0.015625)"/>
       <path id="DejaVuSans-68" d="M 3513 2113 
L 3513 0 
L 2938 0 
L 2938 2094 
Q 2938 2591 2744 2837 
Q 2550 3084 2163 3084 
Q 1697 3084 1428 2787 
Q 1159 2491 1159 1978 
L 1159 0 
L 581 0 
L 581 4863 
L 1159 4863 
L 1159 2956 
Q 1366 3272 1645 3428 
Q 1925 3584 2291 3584 
Q 2894 3584 3203 3211 
Q 3513 2838 3513 2113 
z
" transform="scale(0.015625)"/>
       <path id="DejaVuSans-41" d="M 2188 4044 
L 1331 1722 
L 3047 1722 
L 2188 4044 
z
M 1831 4666 
L 2547 4666 
L 4325 0 
L 3669 0 
L 3244 1197 
L 1141 1197 
L 716 0 
L 50 0 
L 1831 4666 
z
" transform="scale(0.015625)"/>
       <path id="DejaVuSans-6d" d="M 3328 2828 
Q 3544 3216 3844 3400 
Q 4144 3584 4550 3584 
Q 5097 3584 5394 3201 
Q 5691 2819 5691 2113 
L 5691 0 
L 5113 0 
L 5113 2094 
Q 5113 2597 4934 2840 
Q 4756 3084 4391 3084 
Q 3944 3084 3684 2787 
Q 3425 2491 3425 1978 
L 3425 0 
L 2847 0 
L 2847 2094 
Q 2847 2600 2669 2842 
Q 2491 3084 2119 3084 
Q 1678 3084 1418 2786 
Q 1159 2488 1159 1978 
L 1159 0 
L 581 0 
L 581 3500 
L 1159 3500 
L 1159 2956 
Q 1356 3278 1631 3431 
Q 1906 3584 2284 3584 
Q 2666 3584 2933 3390 
Q 3200 3197 3328 2828 
z
" transform="scale(0.015625)"/>
      </defs>
      <use xlink:href="#DejaVuSans-53"/>
      <use xlink:href="#DejaVuSans-6f" x="63.476562"/>
      <use xlink:href="#DejaVuSans-75" x="124.658203"/>
      <use xlink:href="#DejaVuSans-74" x="188.037109"/>
      <use xlink:href="#DejaVuSans-68" x="227.246094"/>
      <use xlink:href="#DejaVuSans-20" x="290.625"/>
      <use xlink:href="#DejaVuSans-41" x="322.412109"/>
      <use xlink:href="#DejaVuSans-6d" x="390.820312"/>
      <use xlink:href="#DejaVuSans-65" x="488.232422"/>
      <use xlink:href="#DejaVuSans-72" x="549.755859"/>
      <use xlink:href="#DejaVuSans-69" x="590.869141"/>
      <use xlink:href="#DejaVuSans-63" x="618.652344"/>
      <use xlink:href="#DejaVuSans-61" x="673.632812"/>
     </g>
    </g>
    <g id="line2d_29">
     <path d="M 1065.97 29.42125 
L 1073.97 29.42125 
L 1081.97 29.42125 
" style="fill: none; stroke: #96c6ad; stroke-width: 2; stroke-linecap: square"/>
    </g>
    <g id="text_24">
     <!-- North America -->
     <g transform="translate(1088.37 32.22125)scale(0.08 -0.08)">
      <defs>
       <path id="DejaVuSans-4e" d="M 628 4666 
L 1478 4666 
L 3547 763 
L 3547 4666 
L 4159 4666 
L 4159 0 
L 3309 0 
L 1241 3903 
L 1241 0 
L 628 0 
L 628 4666 
z
" transform="scale(0.015625)"/>
      </defs>
      <use xlink:href="#DejaVuSans-4e"/>
      <use xlink:href="#DejaVuSans-6f" x="74.804688"/>
      <use xlink:href="#DejaVuSans-72" x="135.986328"/>
      <use xlink:href="#DejaVuSans-74" x="177.099609"/>
      <use xlink:href="#DejaVuSans-68" x="216.308594"/>
      <use xlink:href="#DejaVuSans-20" x="279.6875"/>
      <use xlink:href="#DejaVuSans-41" x="311.474609"/>
      <use xlink:href="#DejaVuSans-6d" x="379.882812"/>
      <use xlink:href="#DejaVuSans-65" x="477.294922"/>
      <use xlink:href="#DejaVuSans-72" x="538.818359"/>
      <use xlink:href="#DejaVuSans-69" x="579.931641"/>
      <use xlink:href="#DejaVuSans-63" x="607.714844"/>
      <use xlink:href="#DejaVuSans-61" x="662.695312"/>
     </g>
    </g>
    <g id="line2d_30">
     <path d="M 1065.97 41.16375 
L 1073.97 41.16375 
L 1081.97 41.16375 
" style="fill: none; stroke: #525886; stroke-width: 2; stroke-linecap: square"/>
    </g>
    <g id="text_25">
     <!-- Europe -->
     <g transform="translate(1088.37 43.96375)scale(0.08 -0.08)">
      <defs>
       <path id="DejaVuSans-45" d="M 628 4666 
L 3578 4666 
L 3578 4134 
L 1259 4134 
L 1259 2753 
L 3481 2753 
L 3481 2222 
L 1259 2222 
L 1259 531 
L 3634 531 
L 3634 0 
L 628 0 
L 628 4666 
z
" transform="scale(0.015625)"/>
       <path id="DejaVuSans-70" d="M 1159 525 
L 1159 -1331 
L 581 -1331 
L 581 3500 
L 1159 3500 
L 1159 2969 
Q 1341 3281 1617 3432 
Q 1894 3584 2278 3584 
Q 2916 3584 3314 3078 
Q 3713 2572 3713 1747 
Q 3713 922 3314 415 
Q 2916 -91 2278 -91 
Q 1894 -91 1617 61 
Q 1341 213 1159 525 
z
M 3116 1747 
Q 3116 2381 2855 2742 
Q 2594 3103 2138 3103 
Q 1681 3103 1420 2742 
Q 1159 2381 1159 1747 
Q 1159 1113 1420 752 
Q 1681 391 2138 391 
Q 2594 391 2855 752 
Q 3116 1113 3116 1747 
z
" transform="scale(0.015625)"/>
      </defs>
      <use xlink:href="#DejaVuSans-45"/>
      <use xlink:href="#DejaVuSans-75" x="63.183594"/>
      <use xlink:href="#DejaVuSans-72" x="126.5625"/>
      <use xlink:href="#DejaVuSans-6f" x="165.425781"/>
      <use xlink:href="#DejaVuSans-70" x="226.607422"/>
      <use xlink:href="#DejaVuSans-65" x="290.083984"/>
     </g>
    </g>
    <g id="line2d_31">
     <path d="M 1065.97 52.90625 
L 1073.97 52.90625 
L 1081.97 52.90625 
" style="fill: none; stroke: #937252; stroke-width: 2; stroke-linecap: square"/>
    </g>
    <g id="text_26">
     <!-- United Kingdom -->
     <g transform="translate(1088.37 55.70625)scale(0.08 -0.08)">
      <defs>
       <path id="DejaVuSans-55" d="M 556 4666 
L 1191 4666 
L 1191 1831 
Q 1191 1081 1462 751 
Q 1734 422 2344 422 
Q 2950 422 3222 751 
Q 3494 1081 3494 1831 
L 3494 4666 
L 4128 4666 
L 4128 1753 
Q 4128 841 3676 375 
Q 3225 -91 2344 -91 
Q 1459 -91 1007 375 
Q 556 841 556 1753 
L 556 4666 
z
" transform="scale(0.015625)"/>
       <path id="DejaVuSans-4b" d="M 628 4666 
L 1259 4666 
L 1259 2694 
L 3353 4666 
L 4166 4666 
L 1850 2491 
L 4331 0 
L 3500 0 
L 1259 2247 
L 1259 0 
L 628 0 
L 628 4666 
z
" transform="scale(0.015625)"/>
      </defs>
      <use xlink:href="#DejaVuSans-55"/>
      <use xlink:href="#DejaVuSans-6e" x="73.193359"/>
      <use xlink:href="#DejaVuSans-69" x="136.572266"/>
      <use xlink:href="#DejaVuSans-74" x="164.355469"/>
      <use xlink:href="#DejaVuSans-65" x="203.564453"/>
      <use xlink:href="#DejaVuSans-64" x="265.087891"/>
      <use xlink:href="#DejaVuSans-20" x="328.564453"/>
      <use xlink:href="#DejaVuSans-4b" x="360.351562"/>
      <use xlink:href="#DejaVuSans-69" x="425.927734"/>
      <use xlink:href="#DejaVuSans-6e" x="453.710938"/>
      <use xlink:href="#DejaVuSans-67" x="517.089844"/>
      <use xlink:href="#DejaVuSans-64" x="580.566406"/>
      <use xlink:href="#DejaVuSans-6f" x="644.042969"/>
      <use xlink:href="#DejaVuSans-6d" x="705.224609"/>
     </g>
    </g>
    <g id="line2d_32">
     <path d="M 1065.97 64.64875 
L 1073.97 64.64875 
L 1081.97 64.64875 
" style="fill: none; stroke: #d18cad; stroke-width: 2; stroke-linecap: square"/>
    </g>
    <g id="text_27">
     <!-- Asia -->
     <g transform="translate(1088.37 67.44875)scale(0.08 -0.08)">
      <defs>
       <path id="DejaVuSans-73" d="M 2834 3397 
L 2834 2853 
Q 2591 2978 2328 3040 
Q 2066 3103 1784 3103 
Q 1356 3103 1142 2972 
Q 928 2841 928 2578 
Q 928 2378 1081 2264 
Q 1234 2150 1697 2047 
L 1894 2003 
Q 2506 1872 2764 1633 
Q 3022 1394 3022 966 
Q 3022 478 2636 193 
Q 2250 -91 1575 -91 
Q 1294 -91 989 -36 
Q 684 19 347 128 
L 347 722 
Q 666 556 975 473 
Q 1284 391 1588 391 
Q 1994 391 2212 530 
Q 2431 669 2431 922 
Q 2431 1156 2273 1281 
Q 2116 1406 1581 1522 
L 1381 1569 
Q 847 1681 609 1914 
Q 372 2147 372 2553 
Q 372 3047 722 3315 
Q 1072 3584 1716 3584 
Q 2034 3584 2315 3537 
Q 2597 3491 2834 3397 
z
" transform="scale(0.015625)"/>
      </defs>
      <use xlink:href="#DejaVuSans-41"/>
      <use xlink:href="#DejaVuSans-73" x="68.408203"/>
      <use xlink:href="#DejaVuSans-69" x="120.507812"/>
      <use xlink:href="#DejaVuSans-61" x="148.291016"/>
     </g>
    </g>
    <g id="line2d_33">
     <path d="M 1065.97 76.39125 
L 1073.97 76.39125 
L 1081.97 76.39125 
" style="fill: none; stroke: #a4a86f; stroke-width: 2; stroke-linecap: square"/>
    </g>
    <g id="text_28">
     <!-- Oceania -->
     <g transform="translate(1088.37 79.19125)scale(0.08 -0.08)">
      <defs>
       <path id="DejaVuSans-4f" d="M 2522 4238 
Q 1834 4238 1429 3725 
Q 1025 3213 1025 2328 
Q 1025 1447 1429 934 
Q 1834 422 2522 422 
Q 3209 422 3611 934 
Q 4013 1447 4013 2328 
Q 4013 3213 3611 3725 
Q 3209 4238 2522 4238 
z
M 2522 4750 
Q 3503 4750 4090 4092 
Q 4678 3434 4678 2328 
Q 4678 1225 4090 567 
Q 3503 -91 2522 -91 
Q 1538 -91 948 565 
Q 359 1222 359 2328 
Q 359 3434 948 4092 
Q 1538 4750 2522 4750 
z
" transform="scale(0.015625)"/>
      </defs>
      <use xlink:href="#DejaVuSans-4f"/>
      <use xlink:href="#DejaVuSans-63" x="78.710938"/>
      <use xlink:href="#DejaVuSans-65" x="133.691406"/>
      <use xlink:href="#DejaVuSans-61" x="195.214844"/>
      <use xlink:href="#DejaVuSans-6e" x="256.494141"/>
      <use xlink:href="#DejaVuSans-69" x="319.873047"/>
      <use xlink:href="#DejaVuSans-61" x="347.65625"/>
     </g>
    </g>
    <g id="line2d_34">
     <path d="M 1065.97 88.13375 
L 1073.97 88.13375 
L 1081.97 88.13375 
" style="fill: none; stroke: #d3d3d3; stroke-width: 2; stroke-linecap: square"/>
    </g>
    <g id="text_29">
     <!-- Africa -->
     <g transform="translate(1088.37 90.93375)scale(0.08 -0.08)">
      <defs>
       <path id="DejaVuSans-66" d="M 2375 4863 
L 2375 4384 
L 1825 4384 
Q 1516 4384 1395 4259 
Q 1275 4134 1275 3809 
L 1275 3500 
L 2222 3500 
L 2222 3053 
L 1275 3053 
L 1275 0 
L 697 0 
L 697 3053 
L 147 3053 
L 147 3500 
L 697 3500 
L 697 3744 
Q 697 4328 969 4595 
Q 1241 4863 1831 4863 
L 2375 4863 
z
" transform="scale(0.015625)"/>
      </defs>
      <use xlink:href="#DejaVuSans-41"/>
      <use xlink:href="#DejaVuSans-66" x="64.783203"/>
      <use xlink:href="#DejaVuSans-72" x="99.988281"/>
      <use xlink:href="#DejaVuSans-69" x="141.101562"/>
      <use xlink:href="#DejaVuSans-63" x="168.884766"/>
      <use xlink:href="#DejaVuSans-61" x="223.865234"/>
     </g>
    </g>
   </g>
  </g>
 </g>
 <defs>
  <clipPath id="pd7e1a50a53">
   <rect x="43.78125" y="7.2" width="1116" height="221.76"/>
  </clipPath>
 </defs>
</svg>
