<?xml version="1.0" encoding="utf-8" standalone="no"?>
<!DOCTYPE svg PUBLIC "-//W3C//DTD SVG 1.1//EN"
  "http://www.w3.org/Graphics/SVG/1.1/DTD/svg11.dtd">
<svg height="298.620937pt" version="1.1" viewBox="0 0 1166.98125 298.620937" width="1166.98125pt" xmlns="http://www.w3.org/2000/svg" xmlns:xlink="http://www.w3.org/1999/xlink">
 <metadata>
  <rdf:RDF xmlns:cc="http://creativecommons.org/ns#" xmlns:dc="http://purl.org/dc/elements/1.1/" xmlns:rdf="http://www.w3.org/1999/02/22-rdf-syntax-ns#">
   <cc:Work>
    <dc:type rdf:resource="http://purl.org/dc/dcmitype/StillImage"/>
    <dc:date>2021-07-09T16:08:36.642829</dc:date>
    <dc:format>image/svg+xml</dc:format>
    <dc:creator>
     <cc:Agent>
      <dc:title>Matplotlib v3.4.2, https://matplotlib.org/</dc:title>
     </cc:Agent>
    </dc:creator>
   </cc:Work>
  </rdf:RDF>
 </metadata>
 <defs>
  <style type="text/css">*{stroke-linecap:butt;stroke-linejoin:round;}</style>
 </defs>
 <g id="figure_1">
  <g id="patch_1">
   <path d="M 0 298.620937 
L 1166.98125 298.620937 
L 1166.98125 0 
L 0 0 
z
" style="fill:#ffffff;"/>
  </g>
  <g id="axes_1">
   <g id="patch_2">
    <path d="M 43.78125 228.96 
L 1159.78125 228.96 
L 1159.78125 7.2 
L 43.78125 7.2 
z
" style="fill:#ffffff;"/>
   </g>
   <g id="matplotlib.axis_1">
    <g id="xtick_1">
     <g id="line2d_1">
      <defs>
       <path d="M 0 0 
L 0 3.5 
" id="mce096b031e" style="stroke:#000000;stroke-width:0.8;"/>
      </defs>
      <g>
       <use style="stroke:#000000;stroke-width:0.8;" x="79.422345" xlink:href="#mce096b031e" y="228.96"/>
      </g>
     </g>
     <g id="text_1">
      <!-- 2020-10 -->
      <g transform="translate(82.18172 277.742812)rotate(-90)scale(0.1 -0.1)">
       <defs>
        <path d="M 1228 531 
L 3431 531 
L 3431 0 
L 469 0 
L 469 531 
Q 828 903 1448 1529 
Q 2069 2156 2228 2338 
Q 2531 2678 2651 2914 
Q 2772 3150 2772 3378 
Q 2772 3750 2511 3984 
Q 2250 4219 1831 4219 
Q 1534 4219 1204 4116 
Q 875 4013 500 3803 
L 500 4441 
Q 881 4594 1212 4672 
Q 1544 4750 1819 4750 
Q 2544 4750 2975 4387 
Q 3406 4025 3406 3419 
Q 3406 3131 3298 2873 
Q 3191 2616 2906 2266 
Q 2828 2175 2409 1742 
Q 1991 1309 1228 531 
z
" id="DejaVuSans-32" transform="scale(0.015625)"/>
        <path d="M 2034 4250 
Q 1547 4250 1301 3770 
Q 1056 3291 1056 2328 
Q 1056 1369 1301 889 
Q 1547 409 2034 409 
Q 2525 409 2770 889 
Q 3016 1369 3016 2328 
Q 3016 3291 2770 3770 
Q 2525 4250 2034 4250 
z
M 2034 4750 
Q 2819 4750 3233 4129 
Q 3647 3509 3647 2328 
Q 3647 1150 3233 529 
Q 2819 -91 2034 -91 
Q 1250 -91 836 529 
Q 422 1150 422 2328 
Q 422 3509 836 4129 
Q 1250 4750 2034 4750 
z
" id="DejaVuSans-30" transform="scale(0.015625)"/>
        <path d="M 313 2009 
L 1997 2009 
L 1997 1497 
L 313 1497 
L 313 2009 
z
" id="DejaVuSans-2d" transform="scale(0.015625)"/>
        <path d="M 794 531 
L 1825 531 
L 1825 4091 
L 703 3866 
L 703 4441 
L 1819 4666 
L 2450 4666 
L 2450 531 
L 3481 531 
L 3481 0 
L 794 0 
L 794 531 
z
" id="DejaVuSans-31" transform="scale(0.015625)"/>
       </defs>
       <use xlink:href="#DejaVuSans-32"/>
       <use x="63.623047" xlink:href="#DejaVuSans-30"/>
       <use x="127.246094" xlink:href="#DejaVuSans-32"/>
       <use x="190.869141" xlink:href="#DejaVuSans-30"/>
       <use x="254.492188" xlink:href="#DejaVuSans-2d"/>
       <use x="290.576172" xlink:href="#DejaVuSans-31"/>
       <use x="354.199219" xlink:href="#DejaVuSans-30"/>
      </g>
     </g>
    </g>
    <g id="xtick_2">
     <g id="line2d_2">
      <g>
       <use style="stroke:#000000;stroke-width:0.8;" x="196.340223" xlink:href="#mce096b031e" y="228.96"/>
      </g>
     </g>
     <g id="text_2">
      <!-- 2020-11 -->
      <g transform="translate(199.099598 277.742812)rotate(-90)scale(0.1 -0.1)">
       <use xlink:href="#DejaVuSans-32"/>
       <use x="63.623047" xlink:href="#DejaVuSans-30"/>
       <use x="127.246094" xlink:href="#DejaVuSans-32"/>
       <use x="190.869141" xlink:href="#DejaVuSans-30"/>
       <use x="254.492188" xlink:href="#DejaVuSans-2d"/>
       <use x="290.576172" xlink:href="#DejaVuSans-31"/>
       <use x="354.199219" xlink:href="#DejaVuSans-31"/>
      </g>
     </g>
    </g>
    <g id="xtick_3">
     <g id="line2d_3">
      <g>
       <use style="stroke:#000000;stroke-width:0.8;" x="309.486556" xlink:href="#mce096b031e" y="228.96"/>
      </g>
     </g>
     <g id="text_3">
      <!-- 2020-12 -->
      <g transform="translate(312.245931 277.742812)rotate(-90)scale(0.1 -0.1)">
       <use xlink:href="#DejaVuSans-32"/>
       <use x="63.623047" xlink:href="#DejaVuSans-30"/>
       <use x="127.246094" xlink:href="#DejaVuSans-32"/>
       <use x="190.869141" xlink:href="#DejaVuSans-30"/>
       <use x="254.492188" xlink:href="#DejaVuSans-2d"/>
       <use x="290.576172" xlink:href="#DejaVuSans-31"/>
       <use x="354.199219" xlink:href="#DejaVuSans-32"/>
      </g>
     </g>
    </g>
    <g id="xtick_4">
     <g id="line2d_4">
      <g>
       <use style="stroke:#000000;stroke-width:0.8;" x="426.404434" xlink:href="#mce096b031e" y="228.96"/>
      </g>
     </g>
     <g id="text_4">
      <!-- 2021-01 -->
      <g transform="translate(429.163809 277.742812)rotate(-90)scale(0.1 -0.1)">
       <use xlink:href="#DejaVuSans-32"/>
       <use x="63.623047" xlink:href="#DejaVuSans-30"/>
       <use x="127.246094" xlink:href="#DejaVuSans-32"/>
       <use x="190.869141" xlink:href="#DejaVuSans-31"/>
       <use x="254.492188" xlink:href="#DejaVuSans-2d"/>
       <use x="290.576172" xlink:href="#DejaVuSans-30"/>
       <use x="354.199219" xlink:href="#DejaVuSans-31"/>
      </g>
     </g>
    </g>
    <g id="xtick_5">
     <g id="line2d_5">
      <g>
       <use style="stroke:#000000;stroke-width:0.8;" x="543.322311" xlink:href="#mce096b031e" y="228.96"/>
      </g>
     </g>
     <g id="text_5">
      <!-- 2021-02 -->
      <g transform="translate(546.081686 277.742812)rotate(-90)scale(0.1 -0.1)">
       <use xlink:href="#DejaVuSans-32"/>
       <use x="63.623047" xlink:href="#DejaVuSans-30"/>
       <use x="127.246094" xlink:href="#DejaVuSans-32"/>
       <use x="190.869141" xlink:href="#DejaVuSans-31"/>
       <use x="254.492188" xlink:href="#DejaVuSans-2d"/>
       <use x="290.576172" xlink:href="#DejaVuSans-30"/>
       <use x="354.199219" xlink:href="#DejaVuSans-32"/>
      </g>
     </g>
    </g>
    <g id="xtick_6">
     <g id="line2d_6">
      <g>
       <use style="stroke:#000000;stroke-width:0.8;" x="648.925556" xlink:href="#mce096b031e" y="228.96"/>
      </g>
     </g>
     <g id="text_6">
      <!-- 2021-03 -->
      <g transform="translate(651.684931 277.742812)rotate(-90)scale(0.1 -0.1)">
       <defs>
        <path d="M 2597 2516 
Q 3050 2419 3304 2112 
Q 3559 1806 3559 1356 
Q 3559 666 3084 287 
Q 2609 -91 1734 -91 
Q 1441 -91 1130 -33 
Q 819 25 488 141 
L 488 750 
Q 750 597 1062 519 
Q 1375 441 1716 441 
Q 2309 441 2620 675 
Q 2931 909 2931 1356 
Q 2931 1769 2642 2001 
Q 2353 2234 1838 2234 
L 1294 2234 
L 1294 2753 
L 1863 2753 
Q 2328 2753 2575 2939 
Q 2822 3125 2822 3475 
Q 2822 3834 2567 4026 
Q 2313 4219 1838 4219 
Q 1578 4219 1281 4162 
Q 984 4106 628 3988 
L 628 4550 
Q 988 4650 1302 4700 
Q 1616 4750 1894 4750 
Q 2613 4750 3031 4423 
Q 3450 4097 3450 3541 
Q 3450 3153 3228 2886 
Q 3006 2619 2597 2516 
z
" id="DejaVuSans-33" transform="scale(0.015625)"/>
       </defs>
       <use xlink:href="#DejaVuSans-32"/>
       <use x="63.623047" xlink:href="#DejaVuSans-30"/>
       <use x="127.246094" xlink:href="#DejaVuSans-32"/>
       <use x="190.869141" xlink:href="#DejaVuSans-31"/>
       <use x="254.492188" xlink:href="#DejaVuSans-2d"/>
       <use x="290.576172" xlink:href="#DejaVuSans-30"/>
       <use x="354.199219" xlink:href="#DejaVuSans-33"/>
      </g>
     </g>
    </g>
    <g id="xtick_7">
     <g id="line2d_7">
      <g>
       <use style="stroke:#000000;stroke-width:0.8;" x="765.843433" xlink:href="#mce096b031e" y="228.96"/>
      </g>
     </g>
     <g id="text_7">
      <!-- 2021-04 -->
      <g transform="translate(768.602808 277.742812)rotate(-90)scale(0.1 -0.1)">
       <defs>
        <path d="M 2419 4116 
L 825 1625 
L 2419 1625 
L 2419 4116 
z
M 2253 4666 
L 3047 4666 
L 3047 1625 
L 3713 1625 
L 3713 1100 
L 3047 1100 
L 3047 0 
L 2419 0 
L 2419 1100 
L 313 1100 
L 313 1709 
L 2253 4666 
z
" id="DejaVuSans-34" transform="scale(0.015625)"/>
       </defs>
       <use xlink:href="#DejaVuSans-32"/>
       <use x="63.623047" xlink:href="#DejaVuSans-30"/>
       <use x="127.246094" xlink:href="#DejaVuSans-32"/>
       <use x="190.869141" xlink:href="#DejaVuSans-31"/>
       <use x="254.492188" xlink:href="#DejaVuSans-2d"/>
       <use x="290.576172" xlink:href="#DejaVuSans-30"/>
       <use x="354.199219" xlink:href="#DejaVuSans-34"/>
      </g>
     </g>
    </g>
    <g id="xtick_8">
     <g id="line2d_8">
      <g>
       <use style="stroke:#000000;stroke-width:0.8;" x="878.989766" xlink:href="#mce096b031e" y="228.96"/>
      </g>
     </g>
     <g id="text_8">
      <!-- 2021-05 -->
      <g transform="translate(881.749141 277.742812)rotate(-90)scale(0.1 -0.1)">
       <defs>
        <path d="M 691 4666 
L 3169 4666 
L 3169 4134 
L 1269 4134 
L 1269 2991 
Q 1406 3038 1543 3061 
Q 1681 3084 1819 3084 
Q 2600 3084 3056 2656 
Q 3513 2228 3513 1497 
Q 3513 744 3044 326 
Q 2575 -91 1722 -91 
Q 1428 -91 1123 -41 
Q 819 9 494 109 
L 494 744 
Q 775 591 1075 516 
Q 1375 441 1709 441 
Q 2250 441 2565 725 
Q 2881 1009 2881 1497 
Q 2881 1984 2565 2268 
Q 2250 2553 1709 2553 
Q 1456 2553 1204 2497 
Q 953 2441 691 2322 
L 691 4666 
z
" id="DejaVuSans-35" transform="scale(0.015625)"/>
       </defs>
       <use xlink:href="#DejaVuSans-32"/>
       <use x="63.623047" xlink:href="#DejaVuSans-30"/>
       <use x="127.246094" xlink:href="#DejaVuSans-32"/>
       <use x="190.869141" xlink:href="#DejaVuSans-31"/>
       <use x="254.492188" xlink:href="#DejaVuSans-2d"/>
       <use x="290.576172" xlink:href="#DejaVuSans-30"/>
       <use x="354.199219" xlink:href="#DejaVuSans-35"/>
      </g>
     </g>
    </g>
    <g id="xtick_9">
     <g id="line2d_9">
      <g>
       <use style="stroke:#000000;stroke-width:0.8;" x="995.907644" xlink:href="#mce096b031e" y="228.96"/>
      </g>
     </g>
     <g id="text_9">
      <!-- 2021-06 -->
      <g transform="translate(998.667019 277.742812)rotate(-90)scale(0.1 -0.1)">
       <defs>
        <path d="M 2113 2584 
Q 1688 2584 1439 2293 
Q 1191 2003 1191 1497 
Q 1191 994 1439 701 
Q 1688 409 2113 409 
Q 2538 409 2786 701 
Q 3034 994 3034 1497 
Q 3034 2003 2786 2293 
Q 2538 2584 2113 2584 
z
M 3366 4563 
L 3366 3988 
Q 3128 4100 2886 4159 
Q 2644 4219 2406 4219 
Q 1781 4219 1451 3797 
Q 1122 3375 1075 2522 
Q 1259 2794 1537 2939 
Q 1816 3084 2150 3084 
Q 2853 3084 3261 2657 
Q 3669 2231 3669 1497 
Q 3669 778 3244 343 
Q 2819 -91 2113 -91 
Q 1303 -91 875 529 
Q 447 1150 447 2328 
Q 447 3434 972 4092 
Q 1497 4750 2381 4750 
Q 2619 4750 2861 4703 
Q 3103 4656 3366 4563 
z
" id="DejaVuSans-36" transform="scale(0.015625)"/>
       </defs>
       <use xlink:href="#DejaVuSans-32"/>
       <use x="63.623047" xlink:href="#DejaVuSans-30"/>
       <use x="127.246094" xlink:href="#DejaVuSans-32"/>
       <use x="190.869141" xlink:href="#DejaVuSans-31"/>
       <use x="254.492188" xlink:href="#DejaVuSans-2d"/>
       <use x="290.576172" xlink:href="#DejaVuSans-30"/>
       <use x="354.199219" xlink:href="#DejaVuSans-36"/>
      </g>
     </g>
    </g>
    <g id="xtick_10">
     <g id="line2d_10">
      <g>
       <use style="stroke:#000000;stroke-width:0.8;" x="1109.053977" xlink:href="#mce096b031e" y="228.96"/>
      </g>
     </g>
     <g id="text_10">
      <!-- 2021-07 -->
      <g transform="translate(1111.813352 277.742812)rotate(-90)scale(0.1 -0.1)">
       <defs>
        <path d="M 525 4666 
L 3525 4666 
L 3525 4397 
L 1831 0 
L 1172 0 
L 2766 4134 
L 525 4134 
L 525 4666 
z
" id="DejaVuSans-37" transform="scale(0.015625)"/>
       </defs>
       <use xlink:href="#DejaVuSans-32"/>
       <use x="63.623047" xlink:href="#DejaVuSans-30"/>
       <use x="127.246094" xlink:href="#DejaVuSans-32"/>
       <use x="190.869141" xlink:href="#DejaVuSans-31"/>
       <use x="254.492188" xlink:href="#DejaVuSans-2d"/>
       <use x="290.576172" xlink:href="#DejaVuSans-30"/>
       <use x="354.199219" xlink:href="#DejaVuSans-37"/>
      </g>
     </g>
    </g>
    <g id="text_11">
     <!-- Date -->
     <g transform="translate(589.830469 289.34125)scale(0.1 -0.1)">
      <defs>
       <path d="M 1259 4147 
L 1259 519 
L 2022 519 
Q 2988 519 3436 956 
Q 3884 1394 3884 2338 
Q 3884 3275 3436 3711 
Q 2988 4147 2022 4147 
L 1259 4147 
z
M 628 4666 
L 1925 4666 
Q 3281 4666 3915 4102 
Q 4550 3538 4550 2338 
Q 4550 1131 3912 565 
Q 3275 0 1925 0 
L 628 0 
L 628 4666 
z
" id="DejaVuSans-44" transform="scale(0.015625)"/>
       <path d="M 2194 1759 
Q 1497 1759 1228 1600 
Q 959 1441 959 1056 
Q 959 750 1161 570 
Q 1363 391 1709 391 
Q 2188 391 2477 730 
Q 2766 1069 2766 1631 
L 2766 1759 
L 2194 1759 
z
M 3341 1997 
L 3341 0 
L 2766 0 
L 2766 531 
Q 2569 213 2275 61 
Q 1981 -91 1556 -91 
Q 1019 -91 701 211 
Q 384 513 384 1019 
Q 384 1609 779 1909 
Q 1175 2209 1959 2209 
L 2766 2209 
L 2766 2266 
Q 2766 2663 2505 2880 
Q 2244 3097 1772 3097 
Q 1472 3097 1187 3025 
Q 903 2953 641 2809 
L 641 3341 
Q 956 3463 1253 3523 
Q 1550 3584 1831 3584 
Q 2591 3584 2966 3190 
Q 3341 2797 3341 1997 
z
" id="DejaVuSans-61" transform="scale(0.015625)"/>
       <path d="M 1172 4494 
L 1172 3500 
L 2356 3500 
L 2356 3053 
L 1172 3053 
L 1172 1153 
Q 1172 725 1289 603 
Q 1406 481 1766 481 
L 2356 481 
L 2356 0 
L 1766 0 
Q 1100 0 847 248 
Q 594 497 594 1153 
L 594 3053 
L 172 3053 
L 172 3500 
L 594 3500 
L 594 4494 
L 1172 4494 
z
" id="DejaVuSans-74" transform="scale(0.015625)"/>
       <path d="M 3597 1894 
L 3597 1613 
L 953 1613 
Q 991 1019 1311 708 
Q 1631 397 2203 397 
Q 2534 397 2845 478 
Q 3156 559 3463 722 
L 3463 178 
Q 3153 47 2828 -22 
Q 2503 -91 2169 -91 
Q 1331 -91 842 396 
Q 353 884 353 1716 
Q 353 2575 817 3079 
Q 1281 3584 2069 3584 
Q 2775 3584 3186 3129 
Q 3597 2675 3597 1894 
z
M 3022 2063 
Q 3016 2534 2758 2815 
Q 2500 3097 2075 3097 
Q 1594 3097 1305 2825 
Q 1016 2553 972 2059 
L 3022 2063 
z
" id="DejaVuSans-65" transform="scale(0.015625)"/>
      </defs>
      <use xlink:href="#DejaVuSans-44"/>
      <use x="77.001953" xlink:href="#DejaVuSans-61"/>
      <use x="138.28125" xlink:href="#DejaVuSans-74"/>
      <use x="177.490234" xlink:href="#DejaVuSans-65"/>
     </g>
    </g>
   </g>
   <g id="matplotlib.axis_2">
    <g id="ytick_1">
     <g id="line2d_11">
      <defs>
       <path d="M 0 0 
L -3.5 0 
" id="mb8adb30715" style="stroke:#000000;stroke-width:0.8;"/>
      </defs>
      <g>
       <use style="stroke:#000000;stroke-width:0.8;" x="43.78125" xlink:href="#mb8adb30715" y="228.96"/>
      </g>
     </g>
     <g id="text_12">
      <!-- 0.0 -->
      <g transform="translate(20.878125 232.759219)scale(0.1 -0.1)">
       <defs>
        <path d="M 684 794 
L 1344 794 
L 1344 0 
L 684 0 
L 684 794 
z
" id="DejaVuSans-2e" transform="scale(0.015625)"/>
       </defs>
       <use xlink:href="#DejaVuSans-30"/>
       <use x="63.623047" xlink:href="#DejaVuSans-2e"/>
       <use x="95.410156" xlink:href="#DejaVuSans-30"/>
      </g>
     </g>
    </g>
    <g id="ytick_2">
     <g id="line2d_12">
      <g>
       <use style="stroke:#000000;stroke-width:0.8;" x="43.78125" xlink:href="#mb8adb30715" y="181.8501"/>
      </g>
     </g>
     <g id="text_13">
      <!-- 0.2 -->
      <g transform="translate(20.878125 185.649319)scale(0.1 -0.1)">
       <use xlink:href="#DejaVuSans-30"/>
       <use x="63.623047" xlink:href="#DejaVuSans-2e"/>
       <use x="95.410156" xlink:href="#DejaVuSans-32"/>
      </g>
     </g>
    </g>
    <g id="ytick_3">
     <g id="line2d_13">
      <g>
       <use style="stroke:#000000;stroke-width:0.8;" x="43.78125" xlink:href="#mb8adb30715" y="134.7402"/>
      </g>
     </g>
     <g id="text_14">
      <!-- 0.4 -->
      <g transform="translate(20.878125 138.539418)scale(0.1 -0.1)">
       <use xlink:href="#DejaVuSans-30"/>
       <use x="63.623047" xlink:href="#DejaVuSans-2e"/>
       <use x="95.410156" xlink:href="#DejaVuSans-34"/>
      </g>
     </g>
    </g>
    <g id="ytick_4">
     <g id="line2d_14">
      <g>
       <use style="stroke:#000000;stroke-width:0.8;" x="43.78125" xlink:href="#mb8adb30715" y="87.630299"/>
      </g>
     </g>
     <g id="text_15">
      <!-- 0.6 -->
      <g transform="translate(20.878125 91.429518)scale(0.1 -0.1)">
       <use xlink:href="#DejaVuSans-30"/>
       <use x="63.623047" xlink:href="#DejaVuSans-2e"/>
       <use x="95.410156" xlink:href="#DejaVuSans-36"/>
      </g>
     </g>
    </g>
    <g id="ytick_5">
     <g id="line2d_15">
      <g>
       <use style="stroke:#000000;stroke-width:0.8;" x="43.78125" xlink:href="#mb8adb30715" y="40.520399"/>
      </g>
     </g>
     <g id="text_16">
      <!-- 0.8 -->
      <g transform="translate(20.878125 44.319618)scale(0.1 -0.1)">
       <defs>
        <path d="M 2034 2216 
Q 1584 2216 1326 1975 
Q 1069 1734 1069 1313 
Q 1069 891 1326 650 
Q 1584 409 2034 409 
Q 2484 409 2743 651 
Q 3003 894 3003 1313 
Q 3003 1734 2745 1975 
Q 2488 2216 2034 2216 
z
M 1403 2484 
Q 997 2584 770 2862 
Q 544 3141 544 3541 
Q 544 4100 942 4425 
Q 1341 4750 2034 4750 
Q 2731 4750 3128 4425 
Q 3525 4100 3525 3541 
Q 3525 3141 3298 2862 
Q 3072 2584 2669 2484 
Q 3125 2378 3379 2068 
Q 3634 1759 3634 1313 
Q 3634 634 3220 271 
Q 2806 -91 2034 -91 
Q 1263 -91 848 271 
Q 434 634 434 1313 
Q 434 1759 690 2068 
Q 947 2378 1403 2484 
z
M 1172 3481 
Q 1172 3119 1398 2916 
Q 1625 2713 2034 2713 
Q 2441 2713 2670 2916 
Q 2900 3119 2900 3481 
Q 2900 3844 2670 4047 
Q 2441 4250 2034 4250 
Q 1625 4250 1398 4047 
Q 1172 3844 1172 3481 
z
" id="DejaVuSans-38" transform="scale(0.015625)"/>
       </defs>
       <use xlink:href="#DejaVuSans-30"/>
       <use x="63.623047" xlink:href="#DejaVuSans-2e"/>
       <use x="95.410156" xlink:href="#DejaVuSans-38"/>
      </g>
     </g>
    </g>
    <g id="text_17">
     <!-- Frequency (7 day rolling average) -->
     <g transform="translate(14.798437 202.529219)rotate(-90)scale(0.1 -0.1)">
      <defs>
       <path d="M 628 4666 
L 3309 4666 
L 3309 4134 
L 1259 4134 
L 1259 2759 
L 3109 2759 
L 3109 2228 
L 1259 2228 
L 1259 0 
L 628 0 
L 628 4666 
z
" id="DejaVuSans-46" transform="scale(0.015625)"/>
       <path d="M 2631 2963 
Q 2534 3019 2420 3045 
Q 2306 3072 2169 3072 
Q 1681 3072 1420 2755 
Q 1159 2438 1159 1844 
L 1159 0 
L 581 0 
L 581 3500 
L 1159 3500 
L 1159 2956 
Q 1341 3275 1631 3429 
Q 1922 3584 2338 3584 
Q 2397 3584 2469 3576 
Q 2541 3569 2628 3553 
L 2631 2963 
z
" id="DejaVuSans-72" transform="scale(0.015625)"/>
       <path d="M 947 1747 
Q 947 1113 1208 752 
Q 1469 391 1925 391 
Q 2381 391 2643 752 
Q 2906 1113 2906 1747 
Q 2906 2381 2643 2742 
Q 2381 3103 1925 3103 
Q 1469 3103 1208 2742 
Q 947 2381 947 1747 
z
M 2906 525 
Q 2725 213 2448 61 
Q 2172 -91 1784 -91 
Q 1150 -91 751 415 
Q 353 922 353 1747 
Q 353 2572 751 3078 
Q 1150 3584 1784 3584 
Q 2172 3584 2448 3432 
Q 2725 3281 2906 2969 
L 2906 3500 
L 3481 3500 
L 3481 -1331 
L 2906 -1331 
L 2906 525 
z
" id="DejaVuSans-71" transform="scale(0.015625)"/>
       <path d="M 544 1381 
L 544 3500 
L 1119 3500 
L 1119 1403 
Q 1119 906 1312 657 
Q 1506 409 1894 409 
Q 2359 409 2629 706 
Q 2900 1003 2900 1516 
L 2900 3500 
L 3475 3500 
L 3475 0 
L 2900 0 
L 2900 538 
Q 2691 219 2414 64 
Q 2138 -91 1772 -91 
Q 1169 -91 856 284 
Q 544 659 544 1381 
z
M 1991 3584 
L 1991 3584 
z
" id="DejaVuSans-75" transform="scale(0.015625)"/>
       <path d="M 3513 2113 
L 3513 0 
L 2938 0 
L 2938 2094 
Q 2938 2591 2744 2837 
Q 2550 3084 2163 3084 
Q 1697 3084 1428 2787 
Q 1159 2491 1159 1978 
L 1159 0 
L 581 0 
L 581 3500 
L 1159 3500 
L 1159 2956 
Q 1366 3272 1645 3428 
Q 1925 3584 2291 3584 
Q 2894 3584 3203 3211 
Q 3513 2838 3513 2113 
z
" id="DejaVuSans-6e" transform="scale(0.015625)"/>
       <path d="M 3122 3366 
L 3122 2828 
Q 2878 2963 2633 3030 
Q 2388 3097 2138 3097 
Q 1578 3097 1268 2742 
Q 959 2388 959 1747 
Q 959 1106 1268 751 
Q 1578 397 2138 397 
Q 2388 397 2633 464 
Q 2878 531 3122 666 
L 3122 134 
Q 2881 22 2623 -34 
Q 2366 -91 2075 -91 
Q 1284 -91 818 406 
Q 353 903 353 1747 
Q 353 2603 823 3093 
Q 1294 3584 2113 3584 
Q 2378 3584 2631 3529 
Q 2884 3475 3122 3366 
z
" id="DejaVuSans-63" transform="scale(0.015625)"/>
       <path d="M 2059 -325 
Q 1816 -950 1584 -1140 
Q 1353 -1331 966 -1331 
L 506 -1331 
L 506 -850 
L 844 -850 
Q 1081 -850 1212 -737 
Q 1344 -625 1503 -206 
L 1606 56 
L 191 3500 
L 800 3500 
L 1894 763 
L 2988 3500 
L 3597 3500 
L 2059 -325 
z
" id="DejaVuSans-79" transform="scale(0.015625)"/>
       <path id="DejaVuSans-20" transform="scale(0.015625)"/>
       <path d="M 1984 4856 
Q 1566 4138 1362 3434 
Q 1159 2731 1159 2009 
Q 1159 1288 1364 580 
Q 1569 -128 1984 -844 
L 1484 -844 
Q 1016 -109 783 600 
Q 550 1309 550 2009 
Q 550 2706 781 3412 
Q 1013 4119 1484 4856 
L 1984 4856 
z
" id="DejaVuSans-28" transform="scale(0.015625)"/>
       <path d="M 2906 2969 
L 2906 4863 
L 3481 4863 
L 3481 0 
L 2906 0 
L 2906 525 
Q 2725 213 2448 61 
Q 2172 -91 1784 -91 
Q 1150 -91 751 415 
Q 353 922 353 1747 
Q 353 2572 751 3078 
Q 1150 3584 1784 3584 
Q 2172 3584 2448 3432 
Q 2725 3281 2906 2969 
z
M 947 1747 
Q 947 1113 1208 752 
Q 1469 391 1925 391 
Q 2381 391 2643 752 
Q 2906 1113 2906 1747 
Q 2906 2381 2643 2742 
Q 2381 3103 1925 3103 
Q 1469 3103 1208 2742 
Q 947 2381 947 1747 
z
" id="DejaVuSans-64" transform="scale(0.015625)"/>
       <path d="M 1959 3097 
Q 1497 3097 1228 2736 
Q 959 2375 959 1747 
Q 959 1119 1226 758 
Q 1494 397 1959 397 
Q 2419 397 2687 759 
Q 2956 1122 2956 1747 
Q 2956 2369 2687 2733 
Q 2419 3097 1959 3097 
z
M 1959 3584 
Q 2709 3584 3137 3096 
Q 3566 2609 3566 1747 
Q 3566 888 3137 398 
Q 2709 -91 1959 -91 
Q 1206 -91 779 398 
Q 353 888 353 1747 
Q 353 2609 779 3096 
Q 1206 3584 1959 3584 
z
" id="DejaVuSans-6f" transform="scale(0.015625)"/>
       <path d="M 603 4863 
L 1178 4863 
L 1178 0 
L 603 0 
L 603 4863 
z
" id="DejaVuSans-6c" transform="scale(0.015625)"/>
       <path d="M 603 3500 
L 1178 3500 
L 1178 0 
L 603 0 
L 603 3500 
z
M 603 4863 
L 1178 4863 
L 1178 4134 
L 603 4134 
L 603 4863 
z
" id="DejaVuSans-69" transform="scale(0.015625)"/>
       <path d="M 2906 1791 
Q 2906 2416 2648 2759 
Q 2391 3103 1925 3103 
Q 1463 3103 1205 2759 
Q 947 2416 947 1791 
Q 947 1169 1205 825 
Q 1463 481 1925 481 
Q 2391 481 2648 825 
Q 2906 1169 2906 1791 
z
M 3481 434 
Q 3481 -459 3084 -895 
Q 2688 -1331 1869 -1331 
Q 1566 -1331 1297 -1286 
Q 1028 -1241 775 -1147 
L 775 -588 
Q 1028 -725 1275 -790 
Q 1522 -856 1778 -856 
Q 2344 -856 2625 -561 
Q 2906 -266 2906 331 
L 2906 616 
Q 2728 306 2450 153 
Q 2172 0 1784 0 
Q 1141 0 747 490 
Q 353 981 353 1791 
Q 353 2603 747 3093 
Q 1141 3584 1784 3584 
Q 2172 3584 2450 3431 
Q 2728 3278 2906 2969 
L 2906 3500 
L 3481 3500 
L 3481 434 
z
" id="DejaVuSans-67" transform="scale(0.015625)"/>
       <path d="M 191 3500 
L 800 3500 
L 1894 563 
L 2988 3500 
L 3597 3500 
L 2284 0 
L 1503 0 
L 191 3500 
z
" id="DejaVuSans-76" transform="scale(0.015625)"/>
       <path d="M 513 4856 
L 1013 4856 
Q 1481 4119 1714 3412 
Q 1947 2706 1947 2009 
Q 1947 1309 1714 600 
Q 1481 -109 1013 -844 
L 513 -844 
Q 928 -128 1133 580 
Q 1338 1288 1338 2009 
Q 1338 2731 1133 3434 
Q 928 4138 513 4856 
z
" id="DejaVuSans-29" transform="scale(0.015625)"/>
      </defs>
      <use xlink:href="#DejaVuSans-46"/>
      <use x="50.269531" xlink:href="#DejaVuSans-72"/>
      <use x="89.132812" xlink:href="#DejaVuSans-65"/>
      <use x="150.65625" xlink:href="#DejaVuSans-71"/>
      <use x="214.132812" xlink:href="#DejaVuSans-75"/>
      <use x="277.511719" xlink:href="#DejaVuSans-65"/>
      <use x="339.035156" xlink:href="#DejaVuSans-6e"/>
      <use x="402.414062" xlink:href="#DejaVuSans-63"/>
      <use x="457.394531" xlink:href="#DejaVuSans-79"/>
      <use x="516.574219" xlink:href="#DejaVuSans-20"/>
      <use x="548.361328" xlink:href="#DejaVuSans-28"/>
      <use x="587.375" xlink:href="#DejaVuSans-37"/>
      <use x="650.998047" xlink:href="#DejaVuSans-20"/>
      <use x="682.785156" xlink:href="#DejaVuSans-64"/>
      <use x="746.261719" xlink:href="#DejaVuSans-61"/>
      <use x="807.541016" xlink:href="#DejaVuSans-79"/>
      <use x="866.720703" xlink:href="#DejaVuSans-20"/>
      <use x="898.507812" xlink:href="#DejaVuSans-72"/>
      <use x="937.371094" xlink:href="#DejaVuSans-6f"/>
      <use x="998.552734" xlink:href="#DejaVuSans-6c"/>
      <use x="1026.335938" xlink:href="#DejaVuSans-6c"/>
      <use x="1054.119141" xlink:href="#DejaVuSans-69"/>
      <use x="1081.902344" xlink:href="#DejaVuSans-6e"/>
      <use x="1145.28125" xlink:href="#DejaVuSans-67"/>
      <use x="1208.757812" xlink:href="#DejaVuSans-20"/>
      <use x="1240.544922" xlink:href="#DejaVuSans-61"/>
      <use x="1301.824219" xlink:href="#DejaVuSans-76"/>
      <use x="1361.003906" xlink:href="#DejaVuSans-65"/>
      <use x="1422.527344" xlink:href="#DejaVuSans-72"/>
      <use x="1463.640625" xlink:href="#DejaVuSans-61"/>
      <use x="1524.919922" xlink:href="#DejaVuSans-67"/>
      <use x="1588.396484" xlink:href="#DejaVuSans-65"/>
      <use x="1649.919922" xlink:href="#DejaVuSans-29"/>
     </g>
    </g>
   </g>
   <g id="line2d_16">
    <path clip-path="url(#pbe3faa55fc)" d="M 471.662967 228.877354 
L 482.9776 228.96 
L 490.520689 228.883523 
L 501.835322 228.821991 
L 509.378411 228.898468 
L 520.693045 228.96 
L 543.322311 228.940072 
L 558.408489 228.917593 
L 577.266211 228.814983 
L 592.352389 228.89371 
L 603.667022 228.759105 
L 618.7532 228.828072 
L 645.154011 228.315513 
L 648.925556 228.33368 
L 656.468644 227.940556 
L 660.240189 227.863558 
L 664.011733 227.61357 
L 667.783278 227.489434 
L 671.554822 227.520103 
L 682.869455 227.317951 
L 686.641 226.856435 
L 694.184089 225.626679 
L 705.498722 225.168305 
L 713.041811 225.330212 
L 716.813355 224.686279 
L 720.5849 223.491003 
L 724.356444 222.126276 
L 731.899533 220.564712 
L 735.671078 219.550783 
L 739.442622 219.187814 
L 743.214167 218.61363 
L 746.985711 217.311372 
L 750.757255 216.129372 
L 758.300344 216.49125 
L 765.843433 217.424007 
L 769.614978 217.626424 
L 773.386522 216.907605 
L 777.158066 215.487647 
L 780.929611 215.040503 
L 784.701155 215.208223 
L 788.4727 215.025229 
L 792.244244 215.117664 
L 796.015789 215.903359 
L 799.787333 215.622555 
L 803.558878 214.414593 
L 811.101966 213.984862 
L 818.645055 212.520175 
L 822.4166 212.085198 
L 826.188144 210.616513 
L 829.959689 208.689736 
L 833.731233 208.085588 
L 837.502778 208.327039 
L 841.274322 208.368061 
L 845.045866 209.146736 
L 848.817411 210.168214 
L 852.588955 209.625073 
L 856.3605 208.844995 
L 860.132044 207.588982 
L 867.675133 206.779484 
L 871.446678 207.22613 
L 875.218222 207.171872 
L 878.989766 207.441455 
L 882.761311 205.934745 
L 886.532855 205.103596 
L 894.075944 203.677133 
L 897.847489 204.108302 
L 901.619033 204.91111 
L 909.162122 205.434565 
L 912.933666 205.857557 
L 916.705211 205.576999 
L 920.476755 205.752686 
L 928.019844 205.723005 
L 931.791389 205.185824 
L 935.562933 204.11571 
L 939.334477 203.650973 
L 943.106022 203.05101 
L 946.877566 202.298277 
L 950.649111 201.35927 
L 954.420655 201.098875 
L 958.1922 201.007098 
L 961.963744 200.103146 
L 965.735289 200.054823 
L 969.506833 200.552887 
L 973.278377 200.050636 
L 977.049922 198.515568 
L 980.821466 198.201759 
L 984.593011 197.621925 
L 988.364555 196.311594 
L 992.1361 194.453901 
L 995.907644 193.466816 
L 999.679188 192.753957 
L 1003.450733 190.520813 
L 1007.222277 189.182114 
L 1010.993822 190.28162 
L 1014.765366 188.476633 
L 1018.536911 187.229807 
L 1022.308455 187.899006 
L 1026.08 190.412115 
L 1029.851544 192.348681 
L 1033.623088 195.29454 
L 1041.166177 198.662005 
L 1044.937722 198.68347 
L 1048.709266 199.616837 
L 1052.480811 202.601304 
L 1056.252355 203.79303 
L 1060.0239 205.937213 
L 1063.795444 206.715755 
L 1067.566988 207.069131 
L 1071.338533 205.994163 
L 1075.110077 207.574741 
L 1078.881622 207.641239 
L 1082.653166 208.730698 
L 1086.424711 206.105754 
L 1090.196255 208.828729 
L 1093.9678 209.27509 
L 1097.739344 210.65511 
L 1101.510888 213.742429 
L 1105.282433 219.039099 
L 1105.282433 219.039099 
" style="fill:none;stroke:#947383;stroke-linecap:square;stroke-width:2;"/>
   </g>
   <g id="line2d_17">
    <path clip-path="url(#pbe3faa55fc)" d="M 482.9776 181.295866 
L 486.749145 228.405766 
L 490.520689 226.852692 
L 494.292233 226.761585 
L 498.063778 225.726203 
L 501.835322 224.853797 
L 505.606867 224.117705 
L 509.378411 225.670779 
L 513.149956 225.474872 
L 516.9215 225.999116 
L 520.693045 226.871521 
L 524.464589 227.3962 
L 528.236133 227.341989 
L 532.007678 227.990821 
L 535.779222 228.228064 
L 539.550767 228.011467 
L 543.322311 228.181337 
L 547.093856 228.163478 
L 558.408489 228.599828 
L 562.180033 228.411567 
L 565.951578 228.483637 
L 573.494667 228.35401 
L 588.580844 228.220408 
L 592.352389 227.855464 
L 599.895478 228.108143 
L 607.438567 228.141499 
L 611.210111 228.464631 
L 614.981656 228.327143 
L 618.7532 228.053503 
L 622.524744 228.135183 
L 633.839378 227.959311 
L 637.610922 228.186669 
L 641.382467 227.885294 
L 645.154011 227.840331 
L 648.925556 227.979903 
L 652.6971 227.742846 
L 656.468644 227.667879 
L 660.240189 227.848877 
L 664.011733 227.901443 
L 667.783278 227.548209 
L 679.097911 227.716902 
L 682.869455 227.704851 
L 686.641 227.927566 
L 690.412544 228.019865 
L 697.955633 227.267323 
L 701.727178 227.291609 
L 709.270267 227.058111 
L 713.041811 227.362699 
L 716.813355 227.408564 
L 720.5849 226.939498 
L 724.356444 226.676875 
L 728.127989 226.724288 
L 731.899533 226.607084 
L 735.671078 226.690158 
L 743.214167 227.207795 
L 746.985711 227.011397 
L 750.757255 226.437762 
L 758.300344 226.759408 
L 765.843433 226.627502 
L 769.614978 226.863853 
L 773.386522 226.340833 
L 777.158066 226.164228 
L 780.929611 226.322396 
L 788.4727 225.620807 
L 792.244244 225.702883 
L 796.015789 225.464004 
L 799.787333 224.815763 
L 803.558878 225.269662 
L 807.330422 226.009329 
L 811.101966 226.316373 
L 814.873511 226.280879 
L 818.645055 226.486966 
L 826.188144 225.9225 
L 829.959689 225.820127 
L 833.731233 226.12709 
L 837.502778 226.162656 
L 841.274322 226.328311 
L 845.045866 226.357479 
L 852.588955 226.094129 
L 856.3605 226.150597 
L 860.132044 226.426202 
L 875.218222 226.797133 
L 878.989766 226.153461 
L 882.761311 225.865945 
L 886.532855 226.146658 
L 890.3044 226.150109 
L 894.075944 225.837759 
L 897.847489 226.167573 
L 901.619033 226.371214 
L 905.390577 225.782277 
L 909.162122 224.861465 
L 912.933666 225.195615 
L 916.705211 225.308523 
L 920.476755 224.94476 
L 924.2483 224.839836 
L 928.019844 225.474339 
L 931.791389 225.161767 
L 935.562933 224.594908 
L 939.334477 225.027561 
L 943.106022 225.200951 
L 950.649111 224.704904 
L 954.420655 224.304245 
L 958.1922 223.599623 
L 961.963744 223.119279 
L 965.735289 223.470481 
L 969.506833 223.608682 
L 973.278377 224.348141 
L 980.821466 224.637381 
L 984.593011 224.649152 
L 988.364555 224.100014 
L 999.679188 224.446823 
L 1003.450733 223.734431 
L 1007.222277 223.449187 
L 1014.765366 222.214857 
L 1018.536911 222.808922 
L 1022.308455 223.19731 
L 1026.08 224.177761 
L 1029.851544 224.260511 
L 1033.623088 224.706281 
L 1037.394633 224.140443 
L 1041.166177 224.305677 
L 1044.937722 224.204979 
L 1052.480811 224.179967 
L 1056.252355 223.42865 
L 1060.0239 222.992988 
L 1063.795444 223.047349 
L 1067.566988 223.462444 
L 1071.338533 223.601612 
L 1075.110077 224.241999 
L 1078.881622 224.109562 
L 1086.424711 222.991584 
L 1090.196255 222.045327 
L 1093.9678 222.350041 
L 1097.739344 222.05867 
L 1101.510888 222.876116 
L 1105.282433 223.17486 
L 1109.053977 224.758925 
L 1109.053977 224.758925 
" style="fill:none;stroke:#96c6ad;stroke-linecap:square;stroke-width:2;"/>
   </g>
   <g id="line2d_18">
    <path clip-path="url(#pbe3faa55fc)" d="M 94.508523 226.604505 
L 98.280067 228.96 
L 169.939412 228.96 
L 173.710956 226.188829 
L 188.797134 226.188829 
L 192.568678 228.96 
L 200.111767 228.96 
L 203.883312 227.38967 
L 218.969489 227.38967 
L 222.741034 228.96 
L 256.684934 228.96 
L 260.456478 223.071262 
L 264.228023 223.071262 
L 267.999567 221.023006 
L 275.542656 221.023006 
L 279.3142 226.911743 
L 283.085745 226.911743 
L 286.857289 228.96 
L 301.943467 228.96 
L 305.715011 225.595007 
L 313.2581 225.595007 
L 317.029645 224.075333 
L 320.801189 219.588676 
L 324.572734 222.953669 
L 328.344278 218.242679 
L 332.115822 213.756021 
L 335.887367 215.275696 
L 339.658911 219.762353 
L 343.430456 219.762353 
L 347.202 224.473343 
L 350.973545 228.96 
L 362.288178 228.96 
L 366.059722 220.646488 
L 369.831267 211.224508 
L 373.602811 206.317227 
L 381.1459 206.317227 
L 384.917445 199.229425 
L 388.688989 202.637375 
L 392.460534 192.76508 
L 396.232078 187.530647 
L 400.003622 180.800661 
L 403.775167 193.061315 
L 407.546711 191.636939 
L 411.318256 194.800376 
L 415.0898 190.453135 
L 418.861345 183.723149 
L 422.632889 184.900896 
L 426.404434 189.394933 
L 430.175978 196.052136 
L 433.947522 199.745073 
L 437.719067 201.874815 
L 441.490611 194.071041 
L 445.262156 188.822384 
L 449.0337 186.160601 
L 452.805245 185.768019 
L 456.576789 193.849289 
L 460.348333 199.519463 
L 464.119878 199.42943 
L 467.891422 200.768829 
L 471.662967 193.017413 
L 475.434511 186.488845 
L 479.206056 175.754463 
L 482.9776 181.138452 
L 486.749145 177.997792 
L 490.520689 181.650381 
L 494.292233 168.110886 
L 498.063778 169.911382 
L 501.835322 162.817444 
L 505.606867 160.632637 
L 509.378411 151.61459 
L 513.149956 164.293892 
L 516.9215 163.70215 
L 520.693045 160.801924 
L 524.464589 152.708207 
L 528.236133 155.617936 
L 532.007678 152.795684 
L 535.779222 145.48009 
L 539.550767 149.80789 
L 543.322311 154.974488 
L 547.093856 158.37687 
L 550.8654 157.658134 
L 554.636944 165.956625 
L 558.408489 155.569803 
L 562.180033 148.511671 
L 565.951578 146.455286 
L 569.723122 141.510173 
L 573.494667 135.996976 
L 577.266211 139.402968 
L 581.037756 134.528769 
L 584.8093 128.047021 
L 588.580844 131.891955 
L 592.352389 128.059774 
L 596.123933 117.937185 
L 599.895478 122.530967 
L 603.667022 120.9143 
L 607.438567 105.390559 
L 611.210111 110.415615 
L 614.981656 112.028352 
L 618.7532 111.341135 
L 622.524744 106.040985 
L 626.296289 112.684688 
L 630.067833 103.749407 
L 633.839378 103.149877 
L 637.610922 102.154598 
L 641.382467 107.888458 
L 645.154011 104.335675 
L 648.925556 107.834011 
L 652.6971 99.757457 
L 656.468644 98.885051 
L 660.240189 83.495009 
L 664.011733 79.253913 
L 667.783278 77.153274 
L 671.554822 84.585717 
L 675.326367 80.223689 
L 679.097911 86.661422 
L 682.869455 92.269872 
L 686.641 84.626621 
L 690.412544 78.141389 
L 694.184089 74.158668 
L 697.955633 78.998208 
L 701.727178 76.712234 
L 705.498722 75.441357 
L 709.270267 76.88438 
L 713.041811 77.689052 
L 716.813355 72.155508 
L 720.5849 67.808904 
L 724.356444 64.633111 
L 728.127989 60.026108 
L 731.899533 56.022927 
L 735.671078 53.943365 
L 739.442622 51.173586 
L 743.214167 49.113613 
L 746.985711 55.937272 
L 750.757255 60.677727 
L 754.5288 65.030996 
L 762.071889 72.521152 
L 765.843433 70.002161 
L 769.614978 73.639378 
L 773.386522 78.032686 
L 777.158066 76.723355 
L 780.929611 79.170573 
L 784.701155 84.211671 
L 788.4727 77.799226 
L 792.244244 69.672246 
L 796.015789 69.252175 
L 799.787333 79.144684 
L 803.558878 78.366346 
L 807.330422 80.138642 
L 811.101966 88.624575 
L 814.873511 89.680471 
L 818.645055 79.658644 
L 822.4166 73.372739 
L 826.188144 78.231157 
L 829.959689 71.64224 
L 833.731233 68.734068 
L 837.502778 68.698305 
L 841.274322 70.110147 
L 845.045866 64.977249 
L 848.817411 62.888082 
L 852.588955 70.850369 
L 856.3605 67.111488 
L 860.132044 61.220385 
L 863.903589 57.139265 
L 867.675133 63.154494 
L 871.446678 55.778188 
L 875.218222 57.906217 
L 878.989766 67.34122 
L 882.761311 72.906317 
L 886.532855 68.162519 
L 890.3044 65.342258 
L 894.075944 64.805884 
L 897.847489 60.04031 
L 901.619033 59.071359 
L 905.390577 68.350582 
L 909.162122 76.13209 
L 912.933666 73.661093 
L 916.705211 74.493844 
L 920.476755 71.756905 
L 924.2483 60.248322 
L 928.019844 50.830733 
L 931.791389 55.562412 
L 935.562933 52.424865 
L 939.334477 43.685792 
L 943.106022 38.243617 
L 946.877566 38.396789 
L 950.649111 31.323206 
L 954.420655 23.827167 
L 958.1922 29.800087 
L 961.963744 41.142524 
L 965.735289 37.632627 
L 969.506833 37.892679 
L 973.278377 39.558812 
L 977.049922 37.363428 
L 980.821466 29.215659 
L 984.593011 34.354921 
L 988.364555 49.366995 
L 992.1361 53.681186 
L 995.907644 61.965604 
L 999.679188 64.205942 
L 1003.450733 74.413087 
L 1007.222277 64.23347 
L 1010.993822 74.696801 
L 1014.765366 79.36535 
L 1018.536911 86.170113 
L 1026.08 77.601747 
L 1029.851544 65.361084 
L 1033.623088 48.613073 
L 1037.394633 36.135316 
L 1041.166177 29.870005 
L 1044.937722 24.43928 
L 1048.709266 17.76 
L 1052.480811 22.814301 
L 1056.252355 25.566144 
L 1060.0239 21.740981 
L 1063.795444 18.796612 
L 1067.566988 36.631074 
L 1071.338533 69.174097 
L 1075.110077 69.478032 
L 1075.110077 69.478032 
" style="fill:none;stroke:#525886;stroke-linecap:square;stroke-width:2;"/>
   </g>
   <g id="line2d_19">
    <path clip-path="url(#pbe3faa55fc)" d="M 569.723122 228.907945 
L 581.037756 228.96 
L 682.869455 228.868561 
L 701.727178 228.82091 
L 731.899533 228.932972 
L 746.985711 228.938109 
L 765.843433 228.87833 
L 769.614978 228.74935 
L 777.158066 228.673244 
L 784.701155 228.625749 
L 788.4727 228.686205 
L 796.015789 228.538836 
L 814.873511 228.654504 
L 818.645055 228.325014 
L 822.4166 228.23184 
L 826.188144 228.255586 
L 833.731233 228.016615 
L 837.502778 228.277609 
L 860.132044 228.541277 
L 863.903589 228.2017 
L 867.675133 228.355152 
L 875.218222 228.317933 
L 878.989766 228.094451 
L 882.761311 228.391029 
L 894.075944 228.402817 
L 897.847489 228.623245 
L 912.933666 228.183772 
L 924.2483 228.278313 
L 928.019844 228.609429 
L 935.562933 228.715136 
L 939.334477 228.658396 
L 943.106022 228.8102 
L 961.963744 228.858805 
L 965.735289 228.918856 
L 973.278377 228.680873 
L 1060.0239 228.946532 
L 1078.881622 228.944968 
L 1078.881622 228.944968 
" style="fill:none;stroke:#937252;stroke-linecap:square;stroke-width:2;"/>
   </g>
   <g id="line2d_20">
    <path clip-path="url(#pbe3faa55fc)" d="M 664.011733 205.40505 
L 667.783278 222.230014 
L 671.554822 222.230014 
L 675.326367 222.230014 
L 679.097911 219.285645 
L 682.869455 219.285645 
L 686.641 226.015631 
L 690.412544 226.015631 
L 694.184089 226.015631 
L 697.955633 228.96 
L 701.727178 228.96 
L 705.498722 228.96 
L 709.270267 228.96 
L 713.041811 225.336162 
L 716.813355 225.336162 
L 720.5849 225.336162 
L 724.356444 225.336162 
L 728.127989 225.336162 
L 731.899533 228.96 
L 735.671078 228.96 
L 739.442622 228.96 
L 743.214167 228.96 
L 746.985711 226.716671 
L 750.757255 226.716671 
L 754.5288 226.716671 
L 758.300344 226.716671 
L 762.071889 226.716671 
L 765.843433 228.96 
L 769.614978 228.96 
L 773.386522 228.96 
L 777.158066 228.96 
L 780.929611 224.677282 
L 784.701155 224.677282 
L 788.4727 224.677282 
L 792.244244 217.947296 
L 796.015789 217.947296 
L 799.787333 222.230014 
L 803.558878 222.230014 
L 807.330422 222.230014 
L 811.101966 226.716671 
L 814.873511 226.716671 
L 818.645055 226.716671 
L 822.4166 226.716671 
L 826.188144 226.716671 
L 829.959689 228.96 
L 833.731233 228.96 
L 837.502778 228.96 
L 841.274322 228.96 
L 845.045866 225.034175 
L 848.817411 225.034175 
L 852.588955 225.034175 
L 856.3605 225.034175 
L 860.132044 225.034175 
L 863.903589 228.96 
L 867.675133 228.96 
L 871.446678 228.96 
L 875.218222 223.725567 
L 878.989766 223.725567 
L 882.761311 223.725567 
L 886.532855 223.725567 
L 890.3044 223.725567 
L 894.075944 228.96 
L 897.847489 228.96 
L 901.619033 228.96 
L 905.390577 228.96 
L 909.162122 228.96 
L 912.933666 228.96 
L 916.705211 228.96 
L 920.476755 228.96 
L 924.2483 219.53802 
L 928.019844 219.53802 
L 931.791389 219.53802 
L 935.562933 219.53802 
L 939.334477 219.53802 
L 943.106022 228.96 
L 946.877566 228.96 
L 950.649111 228.96 
L 954.420655 228.96 
L 958.1922 228.96 
L 961.963744 228.96 
L 965.735289 228.96 
L 969.506833 228.96 
L 973.278377 228.96 
L 977.049922 228.96 
L 980.821466 228.96 
L 984.593011 228.96 
L 988.364555 228.96 
L 992.1361 221.10835 
" style="fill:none;stroke:#d18cad;stroke-linecap:square;stroke-width:2;"/>
   </g>
   <g id="line2d_21">
    <path clip-path="url(#pbe3faa55fc)" d="M 445.262156 227.941408 
L 449.0337 228.96 
L 456.576789 228.96 
L 460.348333 228.708075 
L 475.434511 228.708075 
L 479.206056 228.96 
L 524.464589 228.96 
L 528.236133 228.166904 
L 543.322311 228.166904 
L 547.093856 228.96 
L 550.8654 228.679584 
L 565.951578 228.679584 
L 569.723122 228.96 
L 573.494667 228.25158 
L 581.037756 228.25158 
L 584.8093 227.980834 
L 588.580844 227.406323 
L 592.352389 228.114742 
L 599.895478 228.114742 
L 607.438567 228.613604 
L 614.981656 228.613604 
L 618.7532 227.888836 
L 622.524744 227.53727 
L 626.296289 227.883666 
L 630.067833 226.884869 
L 633.839378 226.884869 
L 637.610922 227.504715 
L 641.382467 227.856282 
L 645.154011 227.219661 
L 648.925556 228.218458 
L 660.240189 228.32338 
L 664.011733 228.63398 
L 671.554822 228.63398 
L 675.326367 228.434362 
L 679.097911 227.384141 
L 682.869455 226.618812 
L 686.641 225.7227 
L 690.412544 225.459516 
L 694.184089 224.4194 
L 697.955633 224.569432 
L 705.498722 225.446595 
L 709.270267 225.709779 
L 713.041811 226.778825 
L 716.813355 226.817248 
L 720.5849 227.483112 
L 728.127989 227.326562 
L 731.899533 227.106837 
L 735.671078 227.968603 
L 739.442622 227.565955 
L 743.214167 227.775367 
L 746.985711 227.872501 
L 750.757255 228.262914 
L 754.5288 228.186685 
L 762.071889 228.822983 
L 769.614978 228.716641 
L 773.386522 227.388217 
L 784.701155 227.015329 
L 788.4727 226.801678 
L 792.244244 228.099506 
L 796.015789 228.028321 
L 799.787333 228.100465 
L 803.558878 227.489605 
L 807.330422 227.703255 
L 811.101966 227.608325 
L 814.873511 227.838129 
L 818.645055 227.744098 
L 822.4166 228.579483 
L 826.188144 228.227916 
L 829.959689 228.429672 
L 837.502778 228.523704 
L 848.817411 228.692024 
L 852.588955 228.347317 
L 860.132044 228.287457 
L 863.903589 228.029333 
L 867.675133 227.919027 
L 871.446678 228.136753 
L 875.218222 228.065482 
L 878.989766 228.125342 
L 882.761311 228.456235 
L 894.075944 228.30664 
L 901.619033 228.35653 
L 905.390577 228.627276 
L 920.476755 228.96 
L 931.791389 228.864442 
L 935.562933 228.696193 
L 939.334477 228.696193 
L 943.106022 228.583219 
L 946.877566 228.678777 
L 950.649111 228.560707 
L 969.506833 228.834374 
L 973.278377 228.96 
L 1018.536911 228.96 
L 1022.308455 228.103456 
L 1029.851544 228.103456 
L 1033.623088 223.392466 
L 1037.394633 223.392466 
L 1041.166177 223.202123 
L 1048.709266 223.202123 
L 1052.480811 227.913113 
L 1056.252355 227.913113 
L 1060.0239 227.075604 
L 1075.110077 227.075604 
L 1078.881622 228.96 
L 1082.653166 228.96 
L 1086.424711 227.752054 
L 1086.424711 227.752054 
" style="fill:none;stroke:#a4a86f;stroke-linecap:square;stroke-width:2;"/>
   </g>
   <g id="patch_3">
    <path d="M 43.78125 228.96 
L 43.78125 7.2 
" style="fill:none;stroke:#000000;stroke-linecap:square;stroke-linejoin:miter;stroke-width:0.8;"/>
   </g>
   <g id="patch_4">
    <path d="M 43.78125 228.96 
L 1159.78125 228.96 
" style="fill:none;stroke:#000000;stroke-linecap:square;stroke-linejoin:miter;stroke-width:0.8;"/>
   </g>
   <g id="legend_1">
    <g id="line2d_22">
     <path d="M 50.98125 17.67875 
L 66.98125 17.67875 
" style="fill:none;stroke:#947383;stroke-linecap:square;stroke-width:2;"/>
    </g>
    <g id="line2d_23"/>
    <g id="text_18">
     <!-- North America -->
     <g transform="translate(73.38125 20.47875)scale(0.08 -0.08)">
      <defs>
       <path d="M 628 4666 
L 1478 4666 
L 3547 763 
L 3547 4666 
L 4159 4666 
L 4159 0 
L 3309 0 
L 1241 3903 
L 1241 0 
L 628 0 
L 628 4666 
z
" id="DejaVuSans-4e" transform="scale(0.015625)"/>
       <path d="M 3513 2113 
L 3513 0 
L 2938 0 
L 2938 2094 
Q 2938 2591 2744 2837 
Q 2550 3084 2163 3084 
Q 1697 3084 1428 2787 
Q 1159 2491 1159 1978 
L 1159 0 
L 581 0 
L 581 4863 
L 1159 4863 
L 1159 2956 
Q 1366 3272 1645 3428 
Q 1925 3584 2291 3584 
Q 2894 3584 3203 3211 
Q 3513 2838 3513 2113 
z
" id="DejaVuSans-68" transform="scale(0.015625)"/>
       <path d="M 2188 4044 
L 1331 1722 
L 3047 1722 
L 2188 4044 
z
M 1831 4666 
L 2547 4666 
L 4325 0 
L 3669 0 
L 3244 1197 
L 1141 1197 
L 716 0 
L 50 0 
L 1831 4666 
z
" id="DejaVuSans-41" transform="scale(0.015625)"/>
       <path d="M 3328 2828 
Q 3544 3216 3844 3400 
Q 4144 3584 4550 3584 
Q 5097 3584 5394 3201 
Q 5691 2819 5691 2113 
L 5691 0 
L 5113 0 
L 5113 2094 
Q 5113 2597 4934 2840 
Q 4756 3084 4391 3084 
Q 3944 3084 3684 2787 
Q 3425 2491 3425 1978 
L 3425 0 
L 2847 0 
L 2847 2094 
Q 2847 2600 2669 2842 
Q 2491 3084 2119 3084 
Q 1678 3084 1418 2786 
Q 1159 2488 1159 1978 
L 1159 0 
L 581 0 
L 581 3500 
L 1159 3500 
L 1159 2956 
Q 1356 3278 1631 3431 
Q 1906 3584 2284 3584 
Q 2666 3584 2933 3390 
Q 3200 3197 3328 2828 
z
" id="DejaVuSans-6d" transform="scale(0.015625)"/>
      </defs>
      <use xlink:href="#DejaVuSans-4e"/>
      <use x="74.804688" xlink:href="#DejaVuSans-6f"/>
      <use x="135.986328" xlink:href="#DejaVuSans-72"/>
      <use x="177.099609" xlink:href="#DejaVuSans-74"/>
      <use x="216.308594" xlink:href="#DejaVuSans-68"/>
      <use x="279.6875" xlink:href="#DejaVuSans-20"/>
      <use x="311.474609" xlink:href="#DejaVuSans-41"/>
      <use x="379.882812" xlink:href="#DejaVuSans-6d"/>
      <use x="477.294922" xlink:href="#DejaVuSans-65"/>
      <use x="538.818359" xlink:href="#DejaVuSans-72"/>
      <use x="579.931641" xlink:href="#DejaVuSans-69"/>
      <use x="607.714844" xlink:href="#DejaVuSans-63"/>
      <use x="662.695312" xlink:href="#DejaVuSans-61"/>
     </g>
    </g>
    <g id="line2d_24">
     <path d="M 50.98125 29.42125 
L 66.98125 29.42125 
" style="fill:none;stroke:#96c6ad;stroke-linecap:square;stroke-width:2;"/>
    </g>
    <g id="line2d_25"/>
    <g id="text_19">
     <!-- Europe -->
     <g transform="translate(73.38125 32.22125)scale(0.08 -0.08)">
      <defs>
       <path d="M 628 4666 
L 3578 4666 
L 3578 4134 
L 1259 4134 
L 1259 2753 
L 3481 2753 
L 3481 2222 
L 1259 2222 
L 1259 531 
L 3634 531 
L 3634 0 
L 628 0 
L 628 4666 
z
" id="DejaVuSans-45" transform="scale(0.015625)"/>
       <path d="M 1159 525 
L 1159 -1331 
L 581 -1331 
L 581 3500 
L 1159 3500 
L 1159 2969 
Q 1341 3281 1617 3432 
Q 1894 3584 2278 3584 
Q 2916 3584 3314 3078 
Q 3713 2572 3713 1747 
Q 3713 922 3314 415 
Q 2916 -91 2278 -91 
Q 1894 -91 1617 61 
Q 1341 213 1159 525 
z
M 3116 1747 
Q 3116 2381 2855 2742 
Q 2594 3103 2138 3103 
Q 1681 3103 1420 2742 
Q 1159 2381 1159 1747 
Q 1159 1113 1420 752 
Q 1681 391 2138 391 
Q 2594 391 2855 752 
Q 3116 1113 3116 1747 
z
" id="DejaVuSans-70" transform="scale(0.015625)"/>
      </defs>
      <use xlink:href="#DejaVuSans-45"/>
      <use x="63.183594" xlink:href="#DejaVuSans-75"/>
      <use x="126.5625" xlink:href="#DejaVuSans-72"/>
      <use x="165.425781" xlink:href="#DejaVuSans-6f"/>
      <use x="226.607422" xlink:href="#DejaVuSans-70"/>
      <use x="290.083984" xlink:href="#DejaVuSans-65"/>
     </g>
    </g>
    <g id="line2d_26">
     <path d="M 50.98125 41.16375 
L 66.98125 41.16375 
" style="fill:none;stroke:#525886;stroke-linecap:square;stroke-width:2;"/>
    </g>
    <g id="line2d_27"/>
    <g id="text_20">
     <!-- South America -->
     <g transform="translate(73.38125 43.96375)scale(0.08 -0.08)">
      <defs>
       <path d="M 3425 4513 
L 3425 3897 
Q 3066 4069 2747 4153 
Q 2428 4238 2131 4238 
Q 1616 4238 1336 4038 
Q 1056 3838 1056 3469 
Q 1056 3159 1242 3001 
Q 1428 2844 1947 2747 
L 2328 2669 
Q 3034 2534 3370 2195 
Q 3706 1856 3706 1288 
Q 3706 609 3251 259 
Q 2797 -91 1919 -91 
Q 1588 -91 1214 -16 
Q 841 59 441 206 
L 441 856 
Q 825 641 1194 531 
Q 1563 422 1919 422 
Q 2459 422 2753 634 
Q 3047 847 3047 1241 
Q 3047 1584 2836 1778 
Q 2625 1972 2144 2069 
L 1759 2144 
Q 1053 2284 737 2584 
Q 422 2884 422 3419 
Q 422 4038 858 4394 
Q 1294 4750 2059 4750 
Q 2388 4750 2728 4690 
Q 3069 4631 3425 4513 
z
" id="DejaVuSans-53" transform="scale(0.015625)"/>
      </defs>
      <use xlink:href="#DejaVuSans-53"/>
      <use x="63.476562" xlink:href="#DejaVuSans-6f"/>
      <use x="124.658203" xlink:href="#DejaVuSans-75"/>
      <use x="188.037109" xlink:href="#DejaVuSans-74"/>
      <use x="227.246094" xlink:href="#DejaVuSans-68"/>
      <use x="290.625" xlink:href="#DejaVuSans-20"/>
      <use x="322.412109" xlink:href="#DejaVuSans-41"/>
      <use x="390.820312" xlink:href="#DejaVuSans-6d"/>
      <use x="488.232422" xlink:href="#DejaVuSans-65"/>
      <use x="549.755859" xlink:href="#DejaVuSans-72"/>
      <use x="590.869141" xlink:href="#DejaVuSans-69"/>
      <use x="618.652344" xlink:href="#DejaVuSans-63"/>
      <use x="673.632812" xlink:href="#DejaVuSans-61"/>
     </g>
    </g>
    <g id="line2d_28">
     <path d="M 50.98125 52.90625 
L 66.98125 52.90625 
" style="fill:none;stroke:#937252;stroke-linecap:square;stroke-width:2;"/>
    </g>
    <g id="line2d_29"/>
    <g id="text_21">
     <!-- United Kingdom -->
     <g transform="translate(73.38125 55.70625)scale(0.08 -0.08)">
      <defs>
       <path d="M 556 4666 
L 1191 4666 
L 1191 1831 
Q 1191 1081 1462 751 
Q 1734 422 2344 422 
Q 2950 422 3222 751 
Q 3494 1081 3494 1831 
L 3494 4666 
L 4128 4666 
L 4128 1753 
Q 4128 841 3676 375 
Q 3225 -91 2344 -91 
Q 1459 -91 1007 375 
Q 556 841 556 1753 
L 556 4666 
z
" id="DejaVuSans-55" transform="scale(0.015625)"/>
       <path d="M 628 4666 
L 1259 4666 
L 1259 2694 
L 3353 4666 
L 4166 4666 
L 1850 2491 
L 4331 0 
L 3500 0 
L 1259 2247 
L 1259 0 
L 628 0 
L 628 4666 
z
" id="DejaVuSans-4b" transform="scale(0.015625)"/>
      </defs>
      <use xlink:href="#DejaVuSans-55"/>
      <use x="73.193359" xlink:href="#DejaVuSans-6e"/>
      <use x="136.572266" xlink:href="#DejaVuSans-69"/>
      <use x="164.355469" xlink:href="#DejaVuSans-74"/>
      <use x="203.564453" xlink:href="#DejaVuSans-65"/>
      <use x="265.087891" xlink:href="#DejaVuSans-64"/>
      <use x="328.564453" xlink:href="#DejaVuSans-20"/>
      <use x="360.351562" xlink:href="#DejaVuSans-4b"/>
      <use x="425.927734" xlink:href="#DejaVuSans-69"/>
      <use x="453.710938" xlink:href="#DejaVuSans-6e"/>
      <use x="517.089844" xlink:href="#DejaVuSans-67"/>
      <use x="580.566406" xlink:href="#DejaVuSans-64"/>
      <use x="644.042969" xlink:href="#DejaVuSans-6f"/>
      <use x="705.224609" xlink:href="#DejaVuSans-6d"/>
     </g>
    </g>
    <g id="line2d_30">
     <path d="M 50.98125 64.64875 
L 66.98125 64.64875 
" style="fill:none;stroke:#d18cad;stroke-linecap:square;stroke-width:2;"/>
    </g>
    <g id="line2d_31"/>
    <g id="text_22">
     <!-- Oceania -->
     <g transform="translate(73.38125 67.44875)scale(0.08 -0.08)">
      <defs>
       <path d="M 2522 4238 
Q 1834 4238 1429 3725 
Q 1025 3213 1025 2328 
Q 1025 1447 1429 934 
Q 1834 422 2522 422 
Q 3209 422 3611 934 
Q 4013 1447 4013 2328 
Q 4013 3213 3611 3725 
Q 3209 4238 2522 4238 
z
M 2522 4750 
Q 3503 4750 4090 4092 
Q 4678 3434 4678 2328 
Q 4678 1225 4090 567 
Q 3503 -91 2522 -91 
Q 1538 -91 948 565 
Q 359 1222 359 2328 
Q 359 3434 948 4092 
Q 1538 4750 2522 4750 
z
" id="DejaVuSans-4f" transform="scale(0.015625)"/>
      </defs>
      <use xlink:href="#DejaVuSans-4f"/>
      <use x="78.710938" xlink:href="#DejaVuSans-63"/>
      <use x="133.691406" xlink:href="#DejaVuSans-65"/>
      <use x="195.214844" xlink:href="#DejaVuSans-61"/>
      <use x="256.494141" xlink:href="#DejaVuSans-6e"/>
      <use x="319.873047" xlink:href="#DejaVuSans-69"/>
      <use x="347.65625" xlink:href="#DejaVuSans-61"/>
     </g>
    </g>
    <g id="line2d_32">
     <path d="M 50.98125 76.39125 
L 66.98125 76.39125 
" style="fill:none;stroke:#a4a86f;stroke-linecap:square;stroke-width:2;"/>
    </g>
    <g id="line2d_33"/>
    <g id="text_23">
     <!-- Asia -->
     <g transform="translate(73.38125 79.19125)scale(0.08 -0.08)">
      <defs>
       <path d="M 2834 3397 
L 2834 2853 
Q 2591 2978 2328 3040 
Q 2066 3103 1784 3103 
Q 1356 3103 1142 2972 
Q 928 2841 928 2578 
Q 928 2378 1081 2264 
Q 1234 2150 1697 2047 
L 1894 2003 
Q 2506 1872 2764 1633 
Q 3022 1394 3022 966 
Q 3022 478 2636 193 
Q 2250 -91 1575 -91 
Q 1294 -91 989 -36 
Q 684 19 347 128 
L 347 722 
Q 666 556 975 473 
Q 1284 391 1588 391 
Q 1994 391 2212 530 
Q 2431 669 2431 922 
Q 2431 1156 2273 1281 
Q 2116 1406 1581 1522 
L 1381 1569 
Q 847 1681 609 1914 
Q 372 2147 372 2553 
Q 372 3047 722 3315 
Q 1072 3584 1716 3584 
Q 2034 3584 2315 3537 
Q 2597 3491 2834 3397 
z
" id="DejaVuSans-73" transform="scale(0.015625)"/>
      </defs>
      <use xlink:href="#DejaVuSans-41"/>
      <use x="68.408203" xlink:href="#DejaVuSans-73"/>
      <use x="120.507812" xlink:href="#DejaVuSans-69"/>
      <use x="148.291016" xlink:href="#DejaVuSans-61"/>
     </g>
    </g>
   </g>
  </g>
 </g>
 <defs>
  <clipPath id="pbe3faa55fc">
   <rect height="221.76" width="1116" x="43.78125" y="7.2"/>
  </clipPath>
 </defs>
</svg>
