<?xml version="1.0" encoding="utf-8" standalone="no"?>
<!DOCTYPE svg PUBLIC "-//W3C//DTD SVG 1.1//EN"
  "http://www.w3.org/Graphics/SVG/1.1/DTD/svg11.dtd">
<svg height="298.620937pt" version="1.1" viewBox="0 0 1166.98125 298.620937" width="1166.98125pt" xmlns="http://www.w3.org/2000/svg" xmlns:xlink="http://www.w3.org/1999/xlink">
 <metadata>
  <rdf:RDF xmlns:cc="http://creativecommons.org/ns#" xmlns:dc="http://purl.org/dc/elements/1.1/" xmlns:rdf="http://www.w3.org/1999/02/22-rdf-syntax-ns#">
   <cc:Work>
    <dc:type rdf:resource="http://purl.org/dc/dcmitype/StillImage"/>
    <dc:date>2021-09-30T11:51:23.564978</dc:date>
    <dc:format>image/svg+xml</dc:format>
    <dc:creator>
     <cc:Agent>
      <dc:title>Matplotlib v3.4.2, https://matplotlib.org/</dc:title>
     </cc:Agent>
    </dc:creator>
   </cc:Work>
  </rdf:RDF>
 </metadata>
 <defs>
  <style type="text/css">*{stroke-linecap:butt;stroke-linejoin:round;}</style>
 </defs>
 <g id="figure_1">
  <g id="patch_1">
   <path d="M 0 298.620937 
L 1166.98125 298.620937 
L 1166.98125 0 
L 0 0 
z
" style="fill:#ffffff;"/>
  </g>
  <g id="axes_1">
   <g id="patch_2">
    <path d="M 43.78125 228.96 
L 1159.78125 228.96 
L 1159.78125 7.2 
L 43.78125 7.2 
z
" style="fill:#ffffff;"/>
   </g>
   <g id="matplotlib.axis_1">
    <g id="xtick_1">
     <g id="line2d_1">
      <defs>
       <path d="M 0 0 
L 0 3.5 
" id="m171e01f8a9" style="stroke:#000000;stroke-width:0.8;"/>
      </defs>
      <g>
       <use style="stroke:#000000;stroke-width:0.8;" x="100.713694" xlink:href="#m171e01f8a9" y="228.96"/>
      </g>
     </g>
     <g id="text_1">
      <!-- 2020-11 -->
      <g transform="translate(103.473069 277.742812)rotate(-90)scale(0.1 -0.1)">
       <defs>
        <path d="M 1228 531 
L 3431 531 
L 3431 0 
L 469 0 
L 469 531 
Q 828 903 1448 1529 
Q 2069 2156 2228 2338 
Q 2531 2678 2651 2914 
Q 2772 3150 2772 3378 
Q 2772 3750 2511 3984 
Q 2250 4219 1831 4219 
Q 1534 4219 1204 4116 
Q 875 4013 500 3803 
L 500 4441 
Q 881 4594 1212 4672 
Q 1544 4750 1819 4750 
Q 2544 4750 2975 4387 
Q 3406 4025 3406 3419 
Q 3406 3131 3298 2873 
Q 3191 2616 2906 2266 
Q 2828 2175 2409 1742 
Q 1991 1309 1228 531 
z
" id="DejaVuSans-32" transform="scale(0.015625)"/>
        <path d="M 2034 4250 
Q 1547 4250 1301 3770 
Q 1056 3291 1056 2328 
Q 1056 1369 1301 889 
Q 1547 409 2034 409 
Q 2525 409 2770 889 
Q 3016 1369 3016 2328 
Q 3016 3291 2770 3770 
Q 2525 4250 2034 4250 
z
M 2034 4750 
Q 2819 4750 3233 4129 
Q 3647 3509 3647 2328 
Q 3647 1150 3233 529 
Q 2819 -91 2034 -91 
Q 1250 -91 836 529 
Q 422 1150 422 2328 
Q 422 3509 836 4129 
Q 1250 4750 2034 4750 
z
" id="DejaVuSans-30" transform="scale(0.015625)"/>
        <path d="M 313 2009 
L 1997 2009 
L 1997 1497 
L 313 1497 
L 313 2009 
z
" id="DejaVuSans-2d" transform="scale(0.015625)"/>
        <path d="M 794 531 
L 1825 531 
L 1825 4091 
L 703 3866 
L 703 4441 
L 1819 4666 
L 2450 4666 
L 2450 531 
L 3481 531 
L 3481 0 
L 794 0 
L 794 531 
z
" id="DejaVuSans-31" transform="scale(0.015625)"/>
       </defs>
       <use xlink:href="#DejaVuSans-32"/>
       <use x="63.623047" xlink:href="#DejaVuSans-30"/>
       <use x="127.246094" xlink:href="#DejaVuSans-32"/>
       <use x="190.869141" xlink:href="#DejaVuSans-30"/>
       <use x="254.492188" xlink:href="#DejaVuSans-2d"/>
       <use x="290.576172" xlink:href="#DejaVuSans-31"/>
       <use x="354.199219" xlink:href="#DejaVuSans-31"/>
      </g>
     </g>
    </g>
    <g id="xtick_2">
     <g id="line2d_2">
      <g>
       <use style="stroke:#000000;stroke-width:0.8;" x="193.791258" xlink:href="#m171e01f8a9" y="228.96"/>
      </g>
     </g>
     <g id="text_2">
      <!-- 2020-12 -->
      <g transform="translate(196.550633 277.742812)rotate(-90)scale(0.1 -0.1)">
       <use xlink:href="#DejaVuSans-32"/>
       <use x="63.623047" xlink:href="#DejaVuSans-30"/>
       <use x="127.246094" xlink:href="#DejaVuSans-32"/>
       <use x="190.869141" xlink:href="#DejaVuSans-30"/>
       <use x="254.492188" xlink:href="#DejaVuSans-2d"/>
       <use x="290.576172" xlink:href="#DejaVuSans-31"/>
       <use x="354.199219" xlink:href="#DejaVuSans-32"/>
      </g>
     </g>
    </g>
    <g id="xtick_3">
     <g id="line2d_3">
      <g>
       <use style="stroke:#000000;stroke-width:0.8;" x="289.971408" xlink:href="#m171e01f8a9" y="228.96"/>
      </g>
     </g>
     <g id="text_3">
      <!-- 2021-01 -->
      <g transform="translate(292.730783 277.742812)rotate(-90)scale(0.1 -0.1)">
       <use xlink:href="#DejaVuSans-32"/>
       <use x="63.623047" xlink:href="#DejaVuSans-30"/>
       <use x="127.246094" xlink:href="#DejaVuSans-32"/>
       <use x="190.869141" xlink:href="#DejaVuSans-31"/>
       <use x="254.492188" xlink:href="#DejaVuSans-2d"/>
       <use x="290.576172" xlink:href="#DejaVuSans-30"/>
       <use x="354.199219" xlink:href="#DejaVuSans-31"/>
      </g>
     </g>
    </g>
    <g id="xtick_4">
     <g id="line2d_4">
      <g>
       <use style="stroke:#000000;stroke-width:0.8;" x="386.151559" xlink:href="#m171e01f8a9" y="228.96"/>
      </g>
     </g>
     <g id="text_4">
      <!-- 2021-02 -->
      <g transform="translate(388.910934 277.742812)rotate(-90)scale(0.1 -0.1)">
       <use xlink:href="#DejaVuSans-32"/>
       <use x="63.623047" xlink:href="#DejaVuSans-30"/>
       <use x="127.246094" xlink:href="#DejaVuSans-32"/>
       <use x="190.869141" xlink:href="#DejaVuSans-31"/>
       <use x="254.492188" xlink:href="#DejaVuSans-2d"/>
       <use x="290.576172" xlink:href="#DejaVuSans-30"/>
       <use x="354.199219" xlink:href="#DejaVuSans-32"/>
      </g>
     </g>
    </g>
    <g id="xtick_5">
     <g id="line2d_5">
      <g>
       <use style="stroke:#000000;stroke-width:0.8;" x="473.023952" xlink:href="#m171e01f8a9" y="228.96"/>
      </g>
     </g>
     <g id="text_5">
      <!-- 2021-03 -->
      <g transform="translate(475.783327 277.742812)rotate(-90)scale(0.1 -0.1)">
       <defs>
        <path d="M 2597 2516 
Q 3050 2419 3304 2112 
Q 3559 1806 3559 1356 
Q 3559 666 3084 287 
Q 2609 -91 1734 -91 
Q 1441 -91 1130 -33 
Q 819 25 488 141 
L 488 750 
Q 750 597 1062 519 
Q 1375 441 1716 441 
Q 2309 441 2620 675 
Q 2931 909 2931 1356 
Q 2931 1769 2642 2001 
Q 2353 2234 1838 2234 
L 1294 2234 
L 1294 2753 
L 1863 2753 
Q 2328 2753 2575 2939 
Q 2822 3125 2822 3475 
Q 2822 3834 2567 4026 
Q 2313 4219 1838 4219 
Q 1578 4219 1281 4162 
Q 984 4106 628 3988 
L 628 4550 
Q 988 4650 1302 4700 
Q 1616 4750 1894 4750 
Q 2613 4750 3031 4423 
Q 3450 4097 3450 3541 
Q 3450 3153 3228 2886 
Q 3006 2619 2597 2516 
z
" id="DejaVuSans-33" transform="scale(0.015625)"/>
       </defs>
       <use xlink:href="#DejaVuSans-32"/>
       <use x="63.623047" xlink:href="#DejaVuSans-30"/>
       <use x="127.246094" xlink:href="#DejaVuSans-32"/>
       <use x="190.869141" xlink:href="#DejaVuSans-31"/>
       <use x="254.492188" xlink:href="#DejaVuSans-2d"/>
       <use x="290.576172" xlink:href="#DejaVuSans-30"/>
       <use x="354.199219" xlink:href="#DejaVuSans-33"/>
      </g>
     </g>
    </g>
    <g id="xtick_6">
     <g id="line2d_6">
      <g>
       <use style="stroke:#000000;stroke-width:0.8;" x="569.204102" xlink:href="#m171e01f8a9" y="228.96"/>
      </g>
     </g>
     <g id="text_6">
      <!-- 2021-04 -->
      <g transform="translate(571.963477 277.742812)rotate(-90)scale(0.1 -0.1)">
       <defs>
        <path d="M 2419 4116 
L 825 1625 
L 2419 1625 
L 2419 4116 
z
M 2253 4666 
L 3047 4666 
L 3047 1625 
L 3713 1625 
L 3713 1100 
L 3047 1100 
L 3047 0 
L 2419 0 
L 2419 1100 
L 313 1100 
L 313 1709 
L 2253 4666 
z
" id="DejaVuSans-34" transform="scale(0.015625)"/>
       </defs>
       <use xlink:href="#DejaVuSans-32"/>
       <use x="63.623047" xlink:href="#DejaVuSans-30"/>
       <use x="127.246094" xlink:href="#DejaVuSans-32"/>
       <use x="190.869141" xlink:href="#DejaVuSans-31"/>
       <use x="254.492188" xlink:href="#DejaVuSans-2d"/>
       <use x="290.576172" xlink:href="#DejaVuSans-30"/>
       <use x="354.199219" xlink:href="#DejaVuSans-34"/>
      </g>
     </g>
    </g>
    <g id="xtick_7">
     <g id="line2d_7">
      <g>
       <use style="stroke:#000000;stroke-width:0.8;" x="662.281667" xlink:href="#m171e01f8a9" y="228.96"/>
      </g>
     </g>
     <g id="text_7">
      <!-- 2021-05 -->
      <g transform="translate(665.041042 277.742812)rotate(-90)scale(0.1 -0.1)">
       <defs>
        <path d="M 691 4666 
L 3169 4666 
L 3169 4134 
L 1269 4134 
L 1269 2991 
Q 1406 3038 1543 3061 
Q 1681 3084 1819 3084 
Q 2600 3084 3056 2656 
Q 3513 2228 3513 1497 
Q 3513 744 3044 326 
Q 2575 -91 1722 -91 
Q 1428 -91 1123 -41 
Q 819 9 494 109 
L 494 744 
Q 775 591 1075 516 
Q 1375 441 1709 441 
Q 2250 441 2565 725 
Q 2881 1009 2881 1497 
Q 2881 1984 2565 2268 
Q 2250 2553 1709 2553 
Q 1456 2553 1204 2497 
Q 953 2441 691 2322 
L 691 4666 
z
" id="DejaVuSans-35" transform="scale(0.015625)"/>
       </defs>
       <use xlink:href="#DejaVuSans-32"/>
       <use x="63.623047" xlink:href="#DejaVuSans-30"/>
       <use x="127.246094" xlink:href="#DejaVuSans-32"/>
       <use x="190.869141" xlink:href="#DejaVuSans-31"/>
       <use x="254.492188" xlink:href="#DejaVuSans-2d"/>
       <use x="290.576172" xlink:href="#DejaVuSans-30"/>
       <use x="354.199219" xlink:href="#DejaVuSans-35"/>
      </g>
     </g>
    </g>
    <g id="xtick_8">
     <g id="line2d_8">
      <g>
       <use style="stroke:#000000;stroke-width:0.8;" x="758.461817" xlink:href="#m171e01f8a9" y="228.96"/>
      </g>
     </g>
     <g id="text_8">
      <!-- 2021-06 -->
      <g transform="translate(761.221192 277.742812)rotate(-90)scale(0.1 -0.1)">
       <defs>
        <path d="M 2113 2584 
Q 1688 2584 1439 2293 
Q 1191 2003 1191 1497 
Q 1191 994 1439 701 
Q 1688 409 2113 409 
Q 2538 409 2786 701 
Q 3034 994 3034 1497 
Q 3034 2003 2786 2293 
Q 2538 2584 2113 2584 
z
M 3366 4563 
L 3366 3988 
Q 3128 4100 2886 4159 
Q 2644 4219 2406 4219 
Q 1781 4219 1451 3797 
Q 1122 3375 1075 2522 
Q 1259 2794 1537 2939 
Q 1816 3084 2150 3084 
Q 2853 3084 3261 2657 
Q 3669 2231 3669 1497 
Q 3669 778 3244 343 
Q 2819 -91 2113 -91 
Q 1303 -91 875 529 
Q 447 1150 447 2328 
Q 447 3434 972 4092 
Q 1497 4750 2381 4750 
Q 2619 4750 2861 4703 
Q 3103 4656 3366 4563 
z
" id="DejaVuSans-36" transform="scale(0.015625)"/>
       </defs>
       <use xlink:href="#DejaVuSans-32"/>
       <use x="63.623047" xlink:href="#DejaVuSans-30"/>
       <use x="127.246094" xlink:href="#DejaVuSans-32"/>
       <use x="190.869141" xlink:href="#DejaVuSans-31"/>
       <use x="254.492188" xlink:href="#DejaVuSans-2d"/>
       <use x="290.576172" xlink:href="#DejaVuSans-30"/>
       <use x="354.199219" xlink:href="#DejaVuSans-36"/>
      </g>
     </g>
    </g>
    <g id="xtick_9">
     <g id="line2d_9">
      <g>
       <use style="stroke:#000000;stroke-width:0.8;" x="851.539382" xlink:href="#m171e01f8a9" y="228.96"/>
      </g>
     </g>
     <g id="text_9">
      <!-- 2021-07 -->
      <g transform="translate(854.298757 277.742812)rotate(-90)scale(0.1 -0.1)">
       <defs>
        <path d="M 525 4666 
L 3525 4666 
L 3525 4397 
L 1831 0 
L 1172 0 
L 2766 4134 
L 525 4134 
L 525 4666 
z
" id="DejaVuSans-37" transform="scale(0.015625)"/>
       </defs>
       <use xlink:href="#DejaVuSans-32"/>
       <use x="63.623047" xlink:href="#DejaVuSans-30"/>
       <use x="127.246094" xlink:href="#DejaVuSans-32"/>
       <use x="190.869141" xlink:href="#DejaVuSans-31"/>
       <use x="254.492188" xlink:href="#DejaVuSans-2d"/>
       <use x="290.576172" xlink:href="#DejaVuSans-30"/>
       <use x="354.199219" xlink:href="#DejaVuSans-37"/>
      </g>
     </g>
    </g>
    <g id="xtick_10">
     <g id="line2d_10">
      <g>
       <use style="stroke:#000000;stroke-width:0.8;" x="947.719532" xlink:href="#m171e01f8a9" y="228.96"/>
      </g>
     </g>
     <g id="text_10">
      <!-- 2021-08 -->
      <g transform="translate(950.478907 277.742812)rotate(-90)scale(0.1 -0.1)">
       <defs>
        <path d="M 2034 2216 
Q 1584 2216 1326 1975 
Q 1069 1734 1069 1313 
Q 1069 891 1326 650 
Q 1584 409 2034 409 
Q 2484 409 2743 651 
Q 3003 894 3003 1313 
Q 3003 1734 2745 1975 
Q 2488 2216 2034 2216 
z
M 1403 2484 
Q 997 2584 770 2862 
Q 544 3141 544 3541 
Q 544 4100 942 4425 
Q 1341 4750 2034 4750 
Q 2731 4750 3128 4425 
Q 3525 4100 3525 3541 
Q 3525 3141 3298 2862 
Q 3072 2584 2669 2484 
Q 3125 2378 3379 2068 
Q 3634 1759 3634 1313 
Q 3634 634 3220 271 
Q 2806 -91 2034 -91 
Q 1263 -91 848 271 
Q 434 634 434 1313 
Q 434 1759 690 2068 
Q 947 2378 1403 2484 
z
M 1172 3481 
Q 1172 3119 1398 2916 
Q 1625 2713 2034 2713 
Q 2441 2713 2670 2916 
Q 2900 3119 2900 3481 
Q 2900 3844 2670 4047 
Q 2441 4250 2034 4250 
Q 1625 4250 1398 4047 
Q 1172 3844 1172 3481 
z
" id="DejaVuSans-38" transform="scale(0.015625)"/>
       </defs>
       <use xlink:href="#DejaVuSans-32"/>
       <use x="63.623047" xlink:href="#DejaVuSans-30"/>
       <use x="127.246094" xlink:href="#DejaVuSans-32"/>
       <use x="190.869141" xlink:href="#DejaVuSans-31"/>
       <use x="254.492188" xlink:href="#DejaVuSans-2d"/>
       <use x="290.576172" xlink:href="#DejaVuSans-30"/>
       <use x="354.199219" xlink:href="#DejaVuSans-38"/>
      </g>
     </g>
    </g>
    <g id="xtick_11">
     <g id="line2d_11">
      <g>
       <use style="stroke:#000000;stroke-width:0.8;" x="1043.899682" xlink:href="#m171e01f8a9" y="228.96"/>
      </g>
     </g>
     <g id="text_11">
      <!-- 2021-09 -->
      <g transform="translate(1046.659057 277.742812)rotate(-90)scale(0.1 -0.1)">
       <defs>
        <path d="M 703 97 
L 703 672 
Q 941 559 1184 500 
Q 1428 441 1663 441 
Q 2288 441 2617 861 
Q 2947 1281 2994 2138 
Q 2813 1869 2534 1725 
Q 2256 1581 1919 1581 
Q 1219 1581 811 2004 
Q 403 2428 403 3163 
Q 403 3881 828 4315 
Q 1253 4750 1959 4750 
Q 2769 4750 3195 4129 
Q 3622 3509 3622 2328 
Q 3622 1225 3098 567 
Q 2575 -91 1691 -91 
Q 1453 -91 1209 -44 
Q 966 3 703 97 
z
M 1959 2075 
Q 2384 2075 2632 2365 
Q 2881 2656 2881 3163 
Q 2881 3666 2632 3958 
Q 2384 4250 1959 4250 
Q 1534 4250 1286 3958 
Q 1038 3666 1038 3163 
Q 1038 2656 1286 2365 
Q 1534 2075 1959 2075 
z
" id="DejaVuSans-39" transform="scale(0.015625)"/>
       </defs>
       <use xlink:href="#DejaVuSans-32"/>
       <use x="63.623047" xlink:href="#DejaVuSans-30"/>
       <use x="127.246094" xlink:href="#DejaVuSans-32"/>
       <use x="190.869141" xlink:href="#DejaVuSans-31"/>
       <use x="254.492188" xlink:href="#DejaVuSans-2d"/>
       <use x="290.576172" xlink:href="#DejaVuSans-30"/>
       <use x="354.199219" xlink:href="#DejaVuSans-39"/>
      </g>
     </g>
    </g>
    <g id="xtick_12">
     <g id="line2d_12">
      <g>
       <use style="stroke:#000000;stroke-width:0.8;" x="1136.977247" xlink:href="#m171e01f8a9" y="228.96"/>
      </g>
     </g>
     <g id="text_12">
      <!-- 2021-10 -->
      <g transform="translate(1139.736622 277.742812)rotate(-90)scale(0.1 -0.1)">
       <use xlink:href="#DejaVuSans-32"/>
       <use x="63.623047" xlink:href="#DejaVuSans-30"/>
       <use x="127.246094" xlink:href="#DejaVuSans-32"/>
       <use x="190.869141" xlink:href="#DejaVuSans-31"/>
       <use x="254.492188" xlink:href="#DejaVuSans-2d"/>
       <use x="290.576172" xlink:href="#DejaVuSans-31"/>
       <use x="354.199219" xlink:href="#DejaVuSans-30"/>
      </g>
     </g>
    </g>
    <g id="text_13">
     <!-- Date -->
     <g transform="translate(589.830469 289.34125)scale(0.1 -0.1)">
      <defs>
       <path d="M 1259 4147 
L 1259 519 
L 2022 519 
Q 2988 519 3436 956 
Q 3884 1394 3884 2338 
Q 3884 3275 3436 3711 
Q 2988 4147 2022 4147 
L 1259 4147 
z
M 628 4666 
L 1925 4666 
Q 3281 4666 3915 4102 
Q 4550 3538 4550 2338 
Q 4550 1131 3912 565 
Q 3275 0 1925 0 
L 628 0 
L 628 4666 
z
" id="DejaVuSans-44" transform="scale(0.015625)"/>
       <path d="M 2194 1759 
Q 1497 1759 1228 1600 
Q 959 1441 959 1056 
Q 959 750 1161 570 
Q 1363 391 1709 391 
Q 2188 391 2477 730 
Q 2766 1069 2766 1631 
L 2766 1759 
L 2194 1759 
z
M 3341 1997 
L 3341 0 
L 2766 0 
L 2766 531 
Q 2569 213 2275 61 
Q 1981 -91 1556 -91 
Q 1019 -91 701 211 
Q 384 513 384 1019 
Q 384 1609 779 1909 
Q 1175 2209 1959 2209 
L 2766 2209 
L 2766 2266 
Q 2766 2663 2505 2880 
Q 2244 3097 1772 3097 
Q 1472 3097 1187 3025 
Q 903 2953 641 2809 
L 641 3341 
Q 956 3463 1253 3523 
Q 1550 3584 1831 3584 
Q 2591 3584 2966 3190 
Q 3341 2797 3341 1997 
z
" id="DejaVuSans-61" transform="scale(0.015625)"/>
       <path d="M 1172 4494 
L 1172 3500 
L 2356 3500 
L 2356 3053 
L 1172 3053 
L 1172 1153 
Q 1172 725 1289 603 
Q 1406 481 1766 481 
L 2356 481 
L 2356 0 
L 1766 0 
Q 1100 0 847 248 
Q 594 497 594 1153 
L 594 3053 
L 172 3053 
L 172 3500 
L 594 3500 
L 594 4494 
L 1172 4494 
z
" id="DejaVuSans-74" transform="scale(0.015625)"/>
       <path d="M 3597 1894 
L 3597 1613 
L 953 1613 
Q 991 1019 1311 708 
Q 1631 397 2203 397 
Q 2534 397 2845 478 
Q 3156 559 3463 722 
L 3463 178 
Q 3153 47 2828 -22 
Q 2503 -91 2169 -91 
Q 1331 -91 842 396 
Q 353 884 353 1716 
Q 353 2575 817 3079 
Q 1281 3584 2069 3584 
Q 2775 3584 3186 3129 
Q 3597 2675 3597 1894 
z
M 3022 2063 
Q 3016 2534 2758 2815 
Q 2500 3097 2075 3097 
Q 1594 3097 1305 2825 
Q 1016 2553 972 2059 
L 3022 2063 
z
" id="DejaVuSans-65" transform="scale(0.015625)"/>
      </defs>
      <use xlink:href="#DejaVuSans-44"/>
      <use x="77.001953" xlink:href="#DejaVuSans-61"/>
      <use x="138.28125" xlink:href="#DejaVuSans-74"/>
      <use x="177.490234" xlink:href="#DejaVuSans-65"/>
     </g>
    </g>
   </g>
   <g id="matplotlib.axis_2">
    <g id="ytick_1">
     <g id="line2d_13">
      <defs>
       <path d="M 0 0 
L -3.5 0 
" id="mbde1fbc100" style="stroke:#000000;stroke-width:0.8;"/>
      </defs>
      <g>
       <use style="stroke:#000000;stroke-width:0.8;" x="43.78125" xlink:href="#mbde1fbc100" y="228.96"/>
      </g>
     </g>
     <g id="text_14">
      <!-- 0.0 -->
      <g transform="translate(20.878125 232.759219)scale(0.1 -0.1)">
       <defs>
        <path d="M 684 794 
L 1344 794 
L 1344 0 
L 684 0 
L 684 794 
z
" id="DejaVuSans-2e" transform="scale(0.015625)"/>
       </defs>
       <use xlink:href="#DejaVuSans-30"/>
       <use x="63.623047" xlink:href="#DejaVuSans-2e"/>
       <use x="95.410156" xlink:href="#DejaVuSans-30"/>
      </g>
     </g>
    </g>
    <g id="ytick_2">
     <g id="line2d_14">
      <g>
       <use style="stroke:#000000;stroke-width:0.8;" x="43.78125" xlink:href="#mbde1fbc100" y="198.099542"/>
      </g>
     </g>
     <g id="text_15">
      <!-- 0.1 -->
      <g transform="translate(20.878125 201.898761)scale(0.1 -0.1)">
       <use xlink:href="#DejaVuSans-30"/>
       <use x="63.623047" xlink:href="#DejaVuSans-2e"/>
       <use x="95.410156" xlink:href="#DejaVuSans-31"/>
      </g>
     </g>
    </g>
    <g id="ytick_3">
     <g id="line2d_15">
      <g>
       <use style="stroke:#000000;stroke-width:0.8;" x="43.78125" xlink:href="#mbde1fbc100" y="167.239084"/>
      </g>
     </g>
     <g id="text_16">
      <!-- 0.2 -->
      <g transform="translate(20.878125 171.038303)scale(0.1 -0.1)">
       <use xlink:href="#DejaVuSans-30"/>
       <use x="63.623047" xlink:href="#DejaVuSans-2e"/>
       <use x="95.410156" xlink:href="#DejaVuSans-32"/>
      </g>
     </g>
    </g>
    <g id="ytick_4">
     <g id="line2d_16">
      <g>
       <use style="stroke:#000000;stroke-width:0.8;" x="43.78125" xlink:href="#mbde1fbc100" y="136.378626"/>
      </g>
     </g>
     <g id="text_17">
      <!-- 0.3 -->
      <g transform="translate(20.878125 140.177845)scale(0.1 -0.1)">
       <use xlink:href="#DejaVuSans-30"/>
       <use x="63.623047" xlink:href="#DejaVuSans-2e"/>
       <use x="95.410156" xlink:href="#DejaVuSans-33"/>
      </g>
     </g>
    </g>
    <g id="ytick_5">
     <g id="line2d_17">
      <g>
       <use style="stroke:#000000;stroke-width:0.8;" x="43.78125" xlink:href="#mbde1fbc100" y="105.518168"/>
      </g>
     </g>
     <g id="text_18">
      <!-- 0.4 -->
      <g transform="translate(20.878125 109.317387)scale(0.1 -0.1)">
       <use xlink:href="#DejaVuSans-30"/>
       <use x="63.623047" xlink:href="#DejaVuSans-2e"/>
       <use x="95.410156" xlink:href="#DejaVuSans-34"/>
      </g>
     </g>
    </g>
    <g id="ytick_6">
     <g id="line2d_18">
      <g>
       <use style="stroke:#000000;stroke-width:0.8;" x="43.78125" xlink:href="#mbde1fbc100" y="74.657711"/>
      </g>
     </g>
     <g id="text_19">
      <!-- 0.5 -->
      <g transform="translate(20.878125 78.456929)scale(0.1 -0.1)">
       <use xlink:href="#DejaVuSans-30"/>
       <use x="63.623047" xlink:href="#DejaVuSans-2e"/>
       <use x="95.410156" xlink:href="#DejaVuSans-35"/>
      </g>
     </g>
    </g>
    <g id="ytick_7">
     <g id="line2d_19">
      <g>
       <use style="stroke:#000000;stroke-width:0.8;" x="43.78125" xlink:href="#mbde1fbc100" y="43.797253"/>
      </g>
     </g>
     <g id="text_20">
      <!-- 0.6 -->
      <g transform="translate(20.878125 47.596471)scale(0.1 -0.1)">
       <use xlink:href="#DejaVuSans-30"/>
       <use x="63.623047" xlink:href="#DejaVuSans-2e"/>
       <use x="95.410156" xlink:href="#DejaVuSans-36"/>
      </g>
     </g>
    </g>
    <g id="ytick_8">
     <g id="line2d_20">
      <g>
       <use style="stroke:#000000;stroke-width:0.8;" x="43.78125" xlink:href="#mbde1fbc100" y="12.936795"/>
      </g>
     </g>
     <g id="text_21">
      <!-- 0.7 -->
      <g transform="translate(20.878125 16.736014)scale(0.1 -0.1)">
       <use xlink:href="#DejaVuSans-30"/>
       <use x="63.623047" xlink:href="#DejaVuSans-2e"/>
       <use x="95.410156" xlink:href="#DejaVuSans-37"/>
      </g>
     </g>
    </g>
    <g id="text_22">
     <!-- Frequency (7 day rolling average) -->
     <g transform="translate(14.798437 202.529219)rotate(-90)scale(0.1 -0.1)">
      <defs>
       <path d="M 628 4666 
L 3309 4666 
L 3309 4134 
L 1259 4134 
L 1259 2759 
L 3109 2759 
L 3109 2228 
L 1259 2228 
L 1259 0 
L 628 0 
L 628 4666 
z
" id="DejaVuSans-46" transform="scale(0.015625)"/>
       <path d="M 2631 2963 
Q 2534 3019 2420 3045 
Q 2306 3072 2169 3072 
Q 1681 3072 1420 2755 
Q 1159 2438 1159 1844 
L 1159 0 
L 581 0 
L 581 3500 
L 1159 3500 
L 1159 2956 
Q 1341 3275 1631 3429 
Q 1922 3584 2338 3584 
Q 2397 3584 2469 3576 
Q 2541 3569 2628 3553 
L 2631 2963 
z
" id="DejaVuSans-72" transform="scale(0.015625)"/>
       <path d="M 947 1747 
Q 947 1113 1208 752 
Q 1469 391 1925 391 
Q 2381 391 2643 752 
Q 2906 1113 2906 1747 
Q 2906 2381 2643 2742 
Q 2381 3103 1925 3103 
Q 1469 3103 1208 2742 
Q 947 2381 947 1747 
z
M 2906 525 
Q 2725 213 2448 61 
Q 2172 -91 1784 -91 
Q 1150 -91 751 415 
Q 353 922 353 1747 
Q 353 2572 751 3078 
Q 1150 3584 1784 3584 
Q 2172 3584 2448 3432 
Q 2725 3281 2906 2969 
L 2906 3500 
L 3481 3500 
L 3481 -1331 
L 2906 -1331 
L 2906 525 
z
" id="DejaVuSans-71" transform="scale(0.015625)"/>
       <path d="M 544 1381 
L 544 3500 
L 1119 3500 
L 1119 1403 
Q 1119 906 1312 657 
Q 1506 409 1894 409 
Q 2359 409 2629 706 
Q 2900 1003 2900 1516 
L 2900 3500 
L 3475 3500 
L 3475 0 
L 2900 0 
L 2900 538 
Q 2691 219 2414 64 
Q 2138 -91 1772 -91 
Q 1169 -91 856 284 
Q 544 659 544 1381 
z
M 1991 3584 
L 1991 3584 
z
" id="DejaVuSans-75" transform="scale(0.015625)"/>
       <path d="M 3513 2113 
L 3513 0 
L 2938 0 
L 2938 2094 
Q 2938 2591 2744 2837 
Q 2550 3084 2163 3084 
Q 1697 3084 1428 2787 
Q 1159 2491 1159 1978 
L 1159 0 
L 581 0 
L 581 3500 
L 1159 3500 
L 1159 2956 
Q 1366 3272 1645 3428 
Q 1925 3584 2291 3584 
Q 2894 3584 3203 3211 
Q 3513 2838 3513 2113 
z
" id="DejaVuSans-6e" transform="scale(0.015625)"/>
       <path d="M 3122 3366 
L 3122 2828 
Q 2878 2963 2633 3030 
Q 2388 3097 2138 3097 
Q 1578 3097 1268 2742 
Q 959 2388 959 1747 
Q 959 1106 1268 751 
Q 1578 397 2138 397 
Q 2388 397 2633 464 
Q 2878 531 3122 666 
L 3122 134 
Q 2881 22 2623 -34 
Q 2366 -91 2075 -91 
Q 1284 -91 818 406 
Q 353 903 353 1747 
Q 353 2603 823 3093 
Q 1294 3584 2113 3584 
Q 2378 3584 2631 3529 
Q 2884 3475 3122 3366 
z
" id="DejaVuSans-63" transform="scale(0.015625)"/>
       <path d="M 2059 -325 
Q 1816 -950 1584 -1140 
Q 1353 -1331 966 -1331 
L 506 -1331 
L 506 -850 
L 844 -850 
Q 1081 -850 1212 -737 
Q 1344 -625 1503 -206 
L 1606 56 
L 191 3500 
L 800 3500 
L 1894 763 
L 2988 3500 
L 3597 3500 
L 2059 -325 
z
" id="DejaVuSans-79" transform="scale(0.015625)"/>
       <path id="DejaVuSans-20" transform="scale(0.015625)"/>
       <path d="M 1984 4856 
Q 1566 4138 1362 3434 
Q 1159 2731 1159 2009 
Q 1159 1288 1364 580 
Q 1569 -128 1984 -844 
L 1484 -844 
Q 1016 -109 783 600 
Q 550 1309 550 2009 
Q 550 2706 781 3412 
Q 1013 4119 1484 4856 
L 1984 4856 
z
" id="DejaVuSans-28" transform="scale(0.015625)"/>
       <path d="M 2906 2969 
L 2906 4863 
L 3481 4863 
L 3481 0 
L 2906 0 
L 2906 525 
Q 2725 213 2448 61 
Q 2172 -91 1784 -91 
Q 1150 -91 751 415 
Q 353 922 353 1747 
Q 353 2572 751 3078 
Q 1150 3584 1784 3584 
Q 2172 3584 2448 3432 
Q 2725 3281 2906 2969 
z
M 947 1747 
Q 947 1113 1208 752 
Q 1469 391 1925 391 
Q 2381 391 2643 752 
Q 2906 1113 2906 1747 
Q 2906 2381 2643 2742 
Q 2381 3103 1925 3103 
Q 1469 3103 1208 2742 
Q 947 2381 947 1747 
z
" id="DejaVuSans-64" transform="scale(0.015625)"/>
       <path d="M 1959 3097 
Q 1497 3097 1228 2736 
Q 959 2375 959 1747 
Q 959 1119 1226 758 
Q 1494 397 1959 397 
Q 2419 397 2687 759 
Q 2956 1122 2956 1747 
Q 2956 2369 2687 2733 
Q 2419 3097 1959 3097 
z
M 1959 3584 
Q 2709 3584 3137 3096 
Q 3566 2609 3566 1747 
Q 3566 888 3137 398 
Q 2709 -91 1959 -91 
Q 1206 -91 779 398 
Q 353 888 353 1747 
Q 353 2609 779 3096 
Q 1206 3584 1959 3584 
z
" id="DejaVuSans-6f" transform="scale(0.015625)"/>
       <path d="M 603 4863 
L 1178 4863 
L 1178 0 
L 603 0 
L 603 4863 
z
" id="DejaVuSans-6c" transform="scale(0.015625)"/>
       <path d="M 603 3500 
L 1178 3500 
L 1178 0 
L 603 0 
L 603 3500 
z
M 603 4863 
L 1178 4863 
L 1178 4134 
L 603 4134 
L 603 4863 
z
" id="DejaVuSans-69" transform="scale(0.015625)"/>
       <path d="M 2906 1791 
Q 2906 2416 2648 2759 
Q 2391 3103 1925 3103 
Q 1463 3103 1205 2759 
Q 947 2416 947 1791 
Q 947 1169 1205 825 
Q 1463 481 1925 481 
Q 2391 481 2648 825 
Q 2906 1169 2906 1791 
z
M 3481 434 
Q 3481 -459 3084 -895 
Q 2688 -1331 1869 -1331 
Q 1566 -1331 1297 -1286 
Q 1028 -1241 775 -1147 
L 775 -588 
Q 1028 -725 1275 -790 
Q 1522 -856 1778 -856 
Q 2344 -856 2625 -561 
Q 2906 -266 2906 331 
L 2906 616 
Q 2728 306 2450 153 
Q 2172 0 1784 0 
Q 1141 0 747 490 
Q 353 981 353 1791 
Q 353 2603 747 3093 
Q 1141 3584 1784 3584 
Q 2172 3584 2450 3431 
Q 2728 3278 2906 2969 
L 2906 3500 
L 3481 3500 
L 3481 434 
z
" id="DejaVuSans-67" transform="scale(0.015625)"/>
       <path d="M 191 3500 
L 800 3500 
L 1894 563 
L 2988 3500 
L 3597 3500 
L 2284 0 
L 1503 0 
L 191 3500 
z
" id="DejaVuSans-76" transform="scale(0.015625)"/>
       <path d="M 513 4856 
L 1013 4856 
Q 1481 4119 1714 3412 
Q 1947 2706 1947 2009 
Q 1947 1309 1714 600 
Q 1481 -109 1013 -844 
L 513 -844 
Q 928 -128 1133 580 
Q 1338 1288 1338 2009 
Q 1338 2731 1133 3434 
Q 928 4138 513 4856 
z
" id="DejaVuSans-29" transform="scale(0.015625)"/>
      </defs>
      <use xlink:href="#DejaVuSans-46"/>
      <use x="50.269531" xlink:href="#DejaVuSans-72"/>
      <use x="89.132812" xlink:href="#DejaVuSans-65"/>
      <use x="150.65625" xlink:href="#DejaVuSans-71"/>
      <use x="214.132812" xlink:href="#DejaVuSans-75"/>
      <use x="277.511719" xlink:href="#DejaVuSans-65"/>
      <use x="339.035156" xlink:href="#DejaVuSans-6e"/>
      <use x="402.414062" xlink:href="#DejaVuSans-63"/>
      <use x="457.394531" xlink:href="#DejaVuSans-79"/>
      <use x="516.574219" xlink:href="#DejaVuSans-20"/>
      <use x="548.361328" xlink:href="#DejaVuSans-28"/>
      <use x="587.375" xlink:href="#DejaVuSans-37"/>
      <use x="650.998047" xlink:href="#DejaVuSans-20"/>
      <use x="682.785156" xlink:href="#DejaVuSans-64"/>
      <use x="746.261719" xlink:href="#DejaVuSans-61"/>
      <use x="807.541016" xlink:href="#DejaVuSans-79"/>
      <use x="866.720703" xlink:href="#DejaVuSans-20"/>
      <use x="898.507812" xlink:href="#DejaVuSans-72"/>
      <use x="937.371094" xlink:href="#DejaVuSans-6f"/>
      <use x="998.552734" xlink:href="#DejaVuSans-6c"/>
      <use x="1026.335938" xlink:href="#DejaVuSans-6c"/>
      <use x="1054.119141" xlink:href="#DejaVuSans-69"/>
      <use x="1081.902344" xlink:href="#DejaVuSans-6e"/>
      <use x="1145.28125" xlink:href="#DejaVuSans-67"/>
      <use x="1208.757812" xlink:href="#DejaVuSans-20"/>
      <use x="1240.544922" xlink:href="#DejaVuSans-61"/>
      <use x="1301.824219" xlink:href="#DejaVuSans-76"/>
      <use x="1361.003906" xlink:href="#DejaVuSans-65"/>
      <use x="1422.527344" xlink:href="#DejaVuSans-72"/>
      <use x="1463.640625" xlink:href="#DejaVuSans-61"/>
      <use x="1524.919922" xlink:href="#DejaVuSans-67"/>
      <use x="1588.396484" xlink:href="#DejaVuSans-65"/>
      <use x="1649.919922" xlink:href="#DejaVuSans-29"/>
     </g>
    </g>
   </g>
   <g id="line2d_21">
    <path clip-path="url(#p5056130d75)" d="M 327.202434 228.875195 
L 336.510191 228.96 
L 342.715362 228.867047 
L 352.023118 228.806249 
L 358.228289 228.899202 
L 370.638631 228.935862 
L 383.048973 228.911505 
L 398.561901 228.937216 
L 404.767072 228.887482 
L 410.972242 228.814157 
L 454.408439 228.767077 
L 460.61361 228.489688 
L 466.818781 228.450453 
L 469.921367 228.296246 
L 473.023952 228.312156 
L 479.229123 227.856422 
L 488.53688 227.375478 
L 494.742051 227.381852 
L 497.844636 227.248973 
L 500.947222 227.27625 
L 510.254978 225.487714 
L 516.460149 225.118302 
L 519.562735 225.180086 
L 525.767906 225.095412 
L 528.870491 224.360274 
L 531.973077 222.88954 
L 535.075662 221.676197 
L 541.280833 219.802846 
L 544.383418 218.578897 
L 547.486004 218.208376 
L 550.588589 217.422719 
L 556.79376 214.658 
L 566.101517 215.276752 
L 569.204102 215.731407 
L 572.306688 215.851353 
L 575.409273 214.792718 
L 578.511859 212.548435 
L 581.614444 211.793796 
L 587.819615 211.040387 
L 590.922201 211.029708 
L 594.024786 211.96224 
L 597.127372 211.576059 
L 600.229957 210.06501 
L 603.332543 209.792467 
L 606.435128 209.669551 
L 612.640299 208.927222 
L 615.742885 209.213661 
L 618.84547 207.830125 
L 621.948056 205.565282 
L 625.050641 205.110742 
L 631.255812 205.482601 
L 634.358398 206.545587 
L 637.460983 208.010034 
L 640.563569 207.295216 
L 646.76874 203.950779 
L 652.973911 201.711387 
L 656.076496 201.215055 
L 662.281667 200.538293 
L 665.384253 199.256861 
L 668.486838 199.023297 
L 671.589423 199.165252 
L 674.692009 199.549319 
L 680.89718 201.11465 
L 683.999765 199.591558 
L 687.102351 198.598298 
L 693.307522 198.261928 
L 696.410107 197.62628 
L 699.512693 198.421249 
L 702.615278 198.658562 
L 705.717864 196.783984 
L 708.820449 194.078538 
L 711.923035 193.366861 
L 718.128206 192.36743 
L 721.230791 192.459451 
L 724.333377 192.662864 
L 727.435962 191.393221 
L 730.538548 189.571284 
L 733.641133 189.139417 
L 736.743719 189.309986 
L 739.846304 189.118613 
L 742.94889 189.570661 
L 746.051475 189.868175 
L 749.154061 190.599167 
L 752.256646 188.719259 
L 755.359232 185.464777 
L 761.564403 186.120388 
L 764.666988 183.522049 
L 767.769574 184.362752 
L 770.872159 189.17313 
L 773.974745 189.012138 
L 777.07733 189.128478 
L 780.179916 191.846506 
L 783.282501 194.021144 
L 786.385087 194.770959 
L 792.590258 197.454362 
L 795.692843 198.29014 
L 798.795428 199.003541 
L 801.898014 197.957308 
L 805.000599 198.685156 
L 808.103185 198.790326 
L 811.20577 198.662844 
L 814.308356 198.664752 
L 817.410941 199.507483 
L 820.513527 199.852836 
L 823.616112 201.682308 
L 826.718698 202.828478 
L 829.821283 204.3807 
L 832.923869 204.700778 
L 836.026454 205.659816 
L 839.12904 205.611354 
L 842.231625 206.842115 
L 845.334211 207.381739 
L 848.436796 209.717016 
L 851.539382 210.367852 
L 854.641967 212.146713 
L 857.744553 211.957454 
L 860.847138 211.178934 
L 863.949724 212.363492 
L 867.052309 213.744173 
L 873.25748 215.701285 
L 876.360066 217.640503 
L 879.462651 218.360592 
L 882.565237 218.965393 
L 885.667822 219.693952 
L 891.872993 221.60818 
L 894.975579 222.158085 
L 898.078164 222.897733 
L 901.18075 223.21198 
L 904.283335 223.822417 
L 916.693677 225.176972 
L 919.796263 225.3997 
L 922.898848 225.86626 
L 938.411775 226.832538 
L 944.616946 227.019833 
L 957.027288 227.515589 
L 966.335045 227.758364 
L 978.745387 227.950293 
L 994.258314 228.440366 
L 1065.61778 228.900212 
L 1081.130708 228.911985 
L 1090.438464 228.930982 
L 1093.54105 227.773715 
L 1093.54105 227.773715 
" style="fill:none;stroke:#947383;stroke-linecap:square;stroke-width:2;"/>
   </g>
   <g id="line2d_22">
    <path clip-path="url(#p5056130d75)" d="M 94.508523 225.53106 
L 97.611108 228.96 
L 103.816279 228.96 
L 106.918865 226.902636 
L 119.329207 226.902636 
L 122.431792 228.96 
L 150.355062 228.96 
L 153.457647 224.38808 
L 156.560232 224.38808 
L 159.662818 222.719947 
L 165.867989 222.719947 
L 168.970574 227.291867 
L 172.07316 227.291867 
L 175.175745 228.96 
L 187.586087 228.96 
L 190.688673 225.102443 
L 196.893844 225.102443 
L 199.996429 223.338988 
L 203.099015 218.195578 
L 206.2016 222.053136 
L 209.304186 215.881044 
L 212.406771 210.514008 
L 215.509357 212.277463 
L 218.611942 217.420872 
L 221.714528 217.420872 
L 224.817113 223.592964 
L 227.919699 228.96 
L 237.227455 228.96 
L 240.330041 219.214592 
L 243.432626 207.84495 
L 246.535212 202.13005 
L 252.740383 202.13005 
L 255.842968 194.091465 
L 258.945554 198.603228 
L 262.048139 186.514017 
L 265.150725 180.903025 
L 268.25331 172.67357 
L 271.355896 187.209093 
L 274.458481 185.650484 
L 277.561067 188.976849 
L 280.663652 183.979559 
L 283.766237 174.378527 
L 286.868823 175.15816 
L 289.971408 178.636975 
L 293.073994 186.256841 
L 296.176579 192.293204 
L 299.279165 196.327251 
L 302.38175 186.595441 
L 305.484336 182.037589 
L 308.586921 178.749565 
L 311.689507 176.29634 
L 314.792092 187.672351 
L 317.894678 194.582633 
L 320.997263 195.176104 
L 324.099849 196.600574 
L 327.202434 187.383373 
L 330.30502 180.727195 
L 333.407605 169.875166 
L 336.510191 174.870834 
L 339.612776 170.650786 
L 342.715362 174.456828 
L 345.817947 156.334386 
L 348.920533 157.04655 
L 352.023118 146.17469 
L 355.125704 143.685943 
L 358.228289 137.772786 
L 361.330875 151.470383 
L 364.43346 149.720563 
L 367.536046 150.581349 
L 370.638631 145.745009 
L 373.741217 144.378067 
L 376.843802 141.362652 
L 379.946388 136.758848 
L 383.048973 141.180784 
L 389.254144 153.648175 
L 392.35673 154.605145 
L 395.459315 160.085359 
L 398.561901 147.383011 
L 401.664486 144.982103 
L 404.767072 139.162702 
L 407.869657 135.350339 
L 410.972242 130.633085 
L 414.074828 136.176108 
L 417.177413 123.400358 
L 420.279999 117.383866 
L 423.382584 120.754405 
L 426.48517 117.08693 
L 429.587755 106.461818 
L 432.690341 107.381953 
L 435.792926 103.631619 
L 438.895512 83.825784 
L 441.998097 87.692636 
L 445.100683 88.520778 
L 448.203268 89.879102 
L 451.305854 84.304836 
L 454.408439 89.459049 
L 457.511025 76.387574 
L 460.61361 71.556192 
L 463.716196 69.469011 
L 466.818781 76.874557 
L 469.921367 73.00603 
L 473.023952 81.372466 
L 476.126538 77.532718 
L 479.229123 80.467326 
L 482.331709 67.195009 
L 485.434294 64.844641 
L 488.53688 63.315449 
L 491.639465 69.393264 
L 494.742051 66.624682 
L 497.844636 72.215798 
L 500.947222 81.151198 
L 504.049807 74.868637 
L 507.152393 69.40838 
L 510.254978 62.628431 
L 513.357564 66.37125 
L 516.460149 65.765212 
L 519.562735 63.15617 
L 522.66532 64.985785 
L 528.870491 60.389829 
L 531.973077 53.533942 
L 535.075662 48.815669 
L 538.178247 39.758925 
L 541.280833 34.553611 
L 544.383418 28.218332 
L 547.486004 22.562908 
L 550.588589 22.081251 
L 553.691175 28.54468 
L 556.79376 35.905615 
L 559.896346 42.571542 
L 562.998931 48.626893 
L 566.101517 53.592944 
L 569.204102 47.822476 
L 572.306688 52.594712 
L 575.409273 61.287993 
L 578.511859 60.632511 
L 581.614444 64.200448 
L 584.71703 78.411985 
L 587.819615 77.359004 
L 590.922201 67.959702 
L 594.024786 69.500463 
L 597.127372 79.880949 
L 600.229957 73.296147 
L 603.332543 69.583337 
L 606.435128 78.414447 
L 609.537714 75.824144 
L 612.640299 64.489431 
L 615.742885 62.880839 
L 618.84547 71.46745 
L 621.948056 64.564755 
L 625.050641 65.022132 
L 628.153227 62.436499 
L 631.255812 64.632562 
L 634.358398 53.380755 
L 637.460983 46.958762 
L 640.563569 53.408939 
L 643.666154 49.884356 
L 646.76874 40.221586 
L 649.871325 36.265561 
L 652.973911 42.23667 
L 656.076496 38.552289 
L 659.179082 39.519096 
L 662.281667 51.345863 
L 665.384253 57.39897 
L 668.486838 51.989617 
L 671.589423 45.135965 
L 674.692009 44.364842 
L 677.794594 36.073445 
L 680.89718 36.884698 
L 683.999765 45.836706 
L 687.102351 49.889153 
L 690.204936 47.489151 
L 693.307522 46.430965 
L 696.410107 44.360702 
L 699.512693 35.264353 
L 702.615278 31.908957 
L 705.717864 42.407491 
L 708.820449 44.549823 
L 711.923035 35.753223 
L 715.02562 33.117373 
L 718.128206 35.435035 
L 721.230791 28.095556 
L 724.333377 25.803296 
L 727.435962 37.371993 
L 730.538548 41.85883 
L 733.641133 36.878343 
L 736.743719 33.874522 
L 739.846304 30.166064 
L 742.94889 23.266934 
L 746.051475 17.76 
L 749.154061 27.229836 
L 752.256646 36.249842 
L 755.359232 41.178529 
L 758.461817 45.161787 
L 761.564403 53.038173 
L 764.666988 55.475572 
L 767.769574 52.087365 
L 770.872159 58.991912 
L 773.974745 64.693016 
L 780.179916 52.983741 
L 783.282501 53.5177 
L 786.385087 48.990861 
L 789.487672 45.182072 
L 792.590258 49.507527 
L 795.692843 44.388239 
L 798.795428 41.768996 
L 801.898014 40.57878 
L 805.000599 40.051539 
L 808.103185 42.708272 
L 811.20577 57.085128 
L 814.308356 66.364365 
L 817.410941 64.552824 
L 820.513527 64.958389 
L 823.616112 60.169718 
L 826.718698 53.30873 
L 829.821283 44.948648 
L 832.923869 52.82626 
L 836.026454 56.488348 
L 839.12904 57.061431 
L 842.231625 53.946451 
L 845.334211 56.188637 
L 848.436796 54.340683 
L 851.539382 53.330112 
L 854.641967 61.519557 
L 857.744553 65.004851 
L 860.847138 64.567114 
L 863.949724 66.947778 
L 867.052309 70.502568 
L 870.154895 71.426171 
L 873.25748 77.677233 
L 876.360066 83.416451 
L 879.462651 83.070102 
L 882.565237 81.505 
L 885.667822 80.700582 
L 888.770408 82.190665 
L 891.872993 86.684298 
L 894.975579 94.918491 
L 898.078164 106.55884 
L 901.18075 114.878587 
L 904.283335 112.452942 
L 907.385921 116.260372 
L 910.488506 116.960185 
L 913.591092 118.217463 
L 916.693677 117.843397 
L 919.796263 121.951238 
L 922.898848 124.410514 
L 926.001433 123.780101 
L 929.104019 121.711621 
L 932.206604 126.105991 
L 935.30919 129.272474 
L 938.411775 129.214583 
L 941.514361 136.58583 
L 944.616946 141.712152 
L 947.719532 132.98649 
L 950.822117 135.789953 
L 953.924703 138.207762 
L 957.027288 138.329499 
L 960.129874 141.318595 
L 963.232459 150.706121 
L 969.43763 160.727071 
L 972.540216 164.846053 
L 975.642801 166.859436 
L 978.745387 170.60114 
L 981.847972 172.272023 
L 984.950558 171.986763 
L 988.053143 174.687848 
L 991.155729 177.861387 
L 994.258314 183.681561 
L 997.3609 188.612905 
L 1000.463485 195.969446 
L 1006.668656 206.449631 
L 1009.771242 209.851189 
L 1012.873827 214.695361 
L 1015.976413 216.854049 
L 1019.078998 218.731802 
L 1022.181584 216.954821 
L 1028.386755 214.418304 
L 1031.48934 212.451974 
L 1034.591926 212.886594 
L 1037.694511 215.558635 
L 1040.797097 219.005634 
L 1043.899682 219.083111 
L 1047.002268 218.643311 
L 1050.104853 212.289688 
L 1053.207438 210.092423 
L 1056.310024 207.259081 
L 1059.412609 203.170502 
L 1062.515195 205.606043 
L 1065.61778 210.947276 
L 1068.720366 207.420366 
L 1071.822951 205.139578 
L 1074.925537 206.542326 
L 1078.028122 202.744116 
L 1081.130708 202.649161 
L 1084.233293 207.593983 
L 1087.335879 212.182712 
L 1090.438464 194.648361 
L 1093.54105 200.820452 
L 1096.643635 203.289289 
L 1099.746221 204.957422 
L 1102.848806 205.814657 
L 1105.951392 228.96 
L 1109.053977 227.335765 
L 1109.053977 227.335765 
" style="fill:none;stroke:#96c6ad;stroke-linecap:square;stroke-width:2;"/>
   </g>
   <g id="line2d_23">
    <path clip-path="url(#p5056130d75)" d="M 336.510191 167.239084 
L 339.612776 228.96 
L 342.715362 227.229507 
L 348.920533 227.229507 
L 352.023118 226.768903 
L 355.125704 226.031203 
L 358.228289 227.761696 
L 364.43346 226.482695 
L 370.638631 227.421303 
L 373.741217 227.356606 
L 376.843802 227.772585 
L 379.946388 228.052086 
L 383.048973 227.795983 
L 386.151559 228.002812 
L 389.254144 227.975663 
L 398.561901 228.472312 
L 401.664486 228.22958 
L 404.767072 228.321427 
L 410.972242 228.200197 
L 417.177413 228.308465 
L 420.279999 228.211266 
L 423.382584 228.232273 
L 426.48517 227.755023 
L 432.690341 227.993189 
L 438.895512 227.9199 
L 441.998097 228.347229 
L 448.203268 227.97083 
L 451.305854 228.073626 
L 460.61361 227.859977 
L 463.716196 227.986926 
L 466.818781 227.602675 
L 469.921367 227.525631 
L 473.023952 227.716155 
L 479.229123 227.615314 
L 482.331709 227.848105 
L 485.434294 227.914601 
L 488.53688 227.429994 
L 491.639465 227.297586 
L 497.844636 227.494102 
L 500.947222 227.496831 
L 504.049807 227.793722 
L 507.152393 227.886644 
L 510.254978 227.531909 
L 522.66532 227.183767 
L 525.767906 227.540572 
L 528.870491 227.208739 
L 531.973077 226.690326 
L 535.075662 226.399794 
L 538.178247 226.452287 
L 541.280833 226.220975 
L 544.383418 226.335095 
L 547.486004 226.568784 
L 550.588589 226.928354 
L 553.691175 226.687976 
L 556.79376 225.951397 
L 562.998931 226.321018 
L 569.204102 226.229328 
L 572.306688 226.483418 
L 575.409273 226.075953 
L 578.511859 225.849809 
L 581.614444 225.982774 
L 584.71703 225.566811 
L 587.819615 225.308975 
L 590.922201 225.264067 
L 594.024786 225.060378 
L 597.127372 224.349705 
L 600.229957 224.951422 
L 603.332543 225.773692 
L 606.435128 226.068339 
L 609.537714 225.923418 
L 612.640299 226.235505 
L 618.84547 225.447735 
L 621.948056 225.367993 
L 625.050641 225.787722 
L 628.153227 225.798823 
L 634.358398 226.135988 
L 637.460983 225.986835 
L 643.666154 226.048317 
L 646.76874 226.345701 
L 652.973911 226.322809 
L 656.076496 226.169445 
L 659.179082 226.222408 
L 662.281667 225.580066 
L 665.384253 225.360098 
L 668.486838 225.73831 
L 671.589423 225.871267 
L 674.692009 225.633742 
L 677.794594 225.935744 
L 680.89718 225.968199 
L 683.999765 225.678523 
L 687.102351 224.843265 
L 690.204936 225.287286 
L 693.307522 225.442525 
L 696.410107 225.188057 
L 699.512693 224.720635 
L 702.615278 225.212772 
L 708.820449 224.331415 
L 715.02562 225.242689 
L 718.128206 225.274168 
L 724.333377 224.756219 
L 730.538548 223.246617 
L 733.641133 223.548123 
L 736.743719 223.655773 
L 739.846304 224.276489 
L 742.94889 224.528772 
L 746.051475 224.970965 
L 749.154061 224.839595 
L 752.256646 224.095408 
L 755.359232 223.96312 
L 758.461817 224.040939 
L 761.564403 223.835802 
L 764.666988 223.266311 
L 767.769574 223.51779 
L 770.872159 223.564571 
L 773.974745 223.024671 
L 777.07733 223.631704 
L 780.179916 224.061009 
L 783.282501 224.776693 
L 786.385087 224.496853 
L 789.487672 225.075848 
L 795.692843 225.190782 
L 798.795428 224.924873 
L 805.000599 225.18558 
L 808.103185 224.536201 
L 814.308356 224.447178 
L 817.410941 225.042127 
L 823.616112 224.288449 
L 826.718698 224.081945 
L 829.821283 224.366959 
L 832.923869 223.927351 
L 836.026454 224.02073 
L 839.12904 224.63909 
L 842.231625 224.201065 
L 845.334211 223.168806 
L 848.436796 221.684013 
L 851.539382 220.045096 
L 854.641967 218.966688 
L 857.744553 219.356364 
L 860.847138 220.712593 
L 863.949724 221.026118 
L 867.052309 222.535865 
L 870.154895 223.285494 
L 873.25748 223.286378 
L 876.360066 222.767894 
L 882.565237 224.551481 
L 885.667822 225.146333 
L 888.770408 225.216766 
L 894.975579 225.905129 
L 898.078164 225.574273 
L 901.18075 225.807462 
L 904.283335 226.556107 
L 907.385921 226.846266 
L 913.591092 227.750653 
L 926.001433 228.251007 
L 929.104019 228.012289 
L 932.206604 228.084312 
L 938.411775 227.794136 
L 941.514361 227.895285 
L 944.616946 228.165819 
L 947.719532 228.133657 
L 953.924703 228.447642 
L 957.027288 228.464511 
L 963.232459 228.76757 
L 981.847972 228.862268 
L 1025.284169 228.905412 
L 1025.284169 228.905412 
" style="fill:none;stroke:#525886;stroke-linecap:square;stroke-width:2;"/>
   </g>
   <g id="line2d_24">
    <path clip-path="url(#p5056130d75)" d="M 485.434294 198.099542 
L 488.53688 228.96 
L 491.639465 228.96 
L 494.742051 228.96 
L 497.844636 225.53106 
L 500.947222 225.53106 
L 504.049807 225.53106 
L 507.152393 225.53106 
L 510.254978 225.53106 
L 513.357564 228.96 
L 516.460149 228.96 
L 519.562735 228.96 
L 522.66532 228.96 
L 525.767906 228.96 
L 528.870491 228.96 
L 531.973077 228.96 
L 535.075662 228.96 
L 538.178247 228.96 
L 541.280833 228.96 
L 544.383418 228.96 
L 547.486004 228.96 
L 550.588589 228.96 
L 553.691175 226.020909 
L 556.79376 226.020909 
L 559.896346 226.020909 
L 562.998931 226.020909 
L 566.101517 226.020909 
L 569.204102 228.96 
L 572.306688 228.96 
L 575.409273 228.96 
L 578.511859 228.96 
L 581.614444 223.349008 
L 584.71703 223.349008 
L 587.819615 223.349008 
L 590.922201 214.531734 
L 594.024786 214.531734 
L 597.127372 220.142726 
L 600.229957 220.142726 
L 603.332543 220.142726 
L 606.435128 226.020909 
L 609.537714 226.020909 
L 612.640299 226.020909 
L 615.742885 226.020909 
L 618.84547 226.020909 
L 621.948056 228.96 
L 625.050641 228.96 
L 628.153227 228.96 
L 631.255812 228.96 
L 634.358398 223.81659 
L 637.460983 223.81659 
L 640.563569 223.81659 
L 643.666154 223.81659 
L 646.76874 223.81659 
L 649.871325 228.96 
L 652.973911 228.96 
L 656.076496 228.96 
L 659.179082 228.96 
L 662.281667 228.96 
L 665.384253 228.96 
L 668.486838 228.96 
L 671.589423 228.96 
L 674.692009 228.96 
L 677.794594 228.96 
L 680.89718 228.96 
L 683.999765 228.96 
L 687.102351 228.96 
L 690.204936 228.96 
L 693.307522 228.96 
L 696.410107 228.96 
L 699.512693 216.615817 
L 702.615278 216.615817 
L 705.717864 216.615817 
L 708.820449 216.615817 
L 711.923035 216.615817 
L 715.02562 228.96 
L 718.128206 228.96 
L 721.230791 228.96 
L 724.333377 228.96 
L 727.435962 228.96 
L 730.538548 228.96 
L 733.641133 228.96 
L 736.743719 228.96 
L 739.846304 228.96 
L 742.94889 228.96 
L 746.051475 228.96 
L 749.154061 228.96 
L 752.256646 228.96 
L 755.359232 220.142726 
" style="fill:none;stroke:#937252;stroke-linecap:square;stroke-width:2;"/>
   </g>
   <g id="line2d_25">
    <path clip-path="url(#p5056130d75)" d="M 305.484336 227.68081 
L 308.586921 228.96 
L 314.792092 228.96 
L 317.894678 228.652931 
L 330.30502 228.652931 
L 333.407605 228.96 
L 370.638631 228.96 
L 373.741217 228.038792 
L 386.151559 228.038792 
L 389.254144 228.96 
L 392.35673 228.596936 
L 404.767072 228.596936 
L 407.869657 228.96 
L 410.972242 228.078273 
L 417.177413 228.078273 
L 420.279999 227.739147 
L 423.382584 226.995521 
L 426.48517 227.877249 
L 432.690341 227.877249 
L 438.895512 228.525346 
L 445.100683 228.525346 
L 448.203268 227.575793 
L 451.305854 227.130155 
L 454.408439 227.564809 
L 457.511025 226.283406 
L 460.61361 226.283406 
L 463.716196 227.097009 
L 466.818781 227.542648 
L 469.921367 226.719702 
L 473.023952 227.770803 
L 476.126538 227.770803 
L 479.229123 227.906753 
L 482.331709 227.622324 
L 485.434294 228.019608 
L 488.53688 227.854263 
L 491.639465 227.854263 
L 497.844636 227.083898 
L 504.049807 225.589835 
L 507.152393 225.250709 
L 510.254978 224.09264 
L 513.357564 223.605212 
L 516.460149 223.914057 
L 519.562735 224.50474 
L 522.66532 224.843866 
L 525.767906 226.171834 
L 528.870491 226.217012 
L 531.973077 227.068335 
L 541.280833 226.679106 
L 544.383418 227.791194 
L 547.486004 227.263665 
L 550.588589 227.543961 
L 553.691175 227.313659 
L 556.79376 227.822348 
L 559.896346 227.730364 
L 566.101517 228.414088 
L 572.306688 228.507232 
L 575.409273 226.775643 
L 578.511859 226.795571 
L 584.71703 226.575864 
L 587.819615 226.299707 
L 590.922201 227.98551 
L 594.024786 227.8953 
L 597.127372 227.987835 
L 600.229957 227.309861 
L 603.332543 227.586017 
L 606.435128 227.464455 
L 609.537714 227.758364 
L 612.640299 227.638285 
L 615.742885 228.471734 
L 618.84547 228.021216 
L 621.948056 228.280548 
L 625.050641 228.280548 
L 634.358398 228.706352 
L 637.460983 228.635975 
L 640.563569 228.250821 
L 646.76874 228.200723 
L 652.973911 228.015793 
L 656.076496 228.267062 
L 662.281667 228.203576 
L 665.384253 228.439354 
L 668.486838 228.341562 
L 671.589423 228.378401 
L 674.692009 228.242419 
L 680.89718 228.285208 
L 683.999765 228.541666 
L 699.512693 228.96 
L 708.820449 228.735568 
L 721.230791 228.722405 
L 724.333377 228.601146 
L 733.641133 228.706293 
L 755.359232 228.96 
L 758.461817 228.795411 
L 761.564403 228.795411 
L 764.666988 227.329039 
L 770.872159 227.329039 
L 773.974745 227.493628 
L 777.07733 227.058974 
L 780.179916 227.456585 
L 783.282501 227.456585 
L 789.487672 226.84214 
L 795.692843 227.818025 
L 798.795428 227.818025 
L 801.898014 228.108476 
L 808.103185 228.01768 
L 811.20577 227.355981 
L 817.410941 227.355981 
L 820.513527 227.770772 
L 823.616112 227.213892 
L 826.718698 227.996615 
L 829.821283 227.996615 
L 832.923869 226.872373 
L 836.026454 226.872373 
L 839.12904 227.429253 
L 842.231625 227.758023 
L 845.334211 227.595813 
L 848.436796 228.720056 
L 851.539382 228.720056 
L 854.641967 228.301609 
L 857.744553 228.254654 
L 860.847138 228.416864 
L 867.052309 228.321909 
L 870.154895 228.740356 
L 873.25748 228.865045 
L 891.872993 228.96 
L 894.975579 228.643212 
L 898.078164 228.643212 
L 901.18075 228.427026 
L 907.385921 228.427026 
L 910.488506 228.743815 
L 913.591092 228.657128 
L 916.693677 228.873313 
L 935.30919 228.788315 
L 938.411775 228.622398 
L 944.616946 227.718429 
L 947.719532 227.718429 
L 953.924703 228.056031 
L 957.027288 228.487646 
L 972.540216 228.312476 
L 975.642801 228.69014 
L 978.745387 228.814203 
L 988.053143 228.814203 
L 991.155729 228.96 
L 1006.668656 228.923726 
L 1006.668656 228.923726 
" style="fill:none;stroke:#d18cad;stroke-linecap:square;stroke-width:2;"/>
   </g>
   <g id="line2d_26">
    <path clip-path="url(#p5056130d75)" d="M 407.869657 228.892286 
L 414.074828 228.96 
L 473.023952 228.86894 
L 488.53688 228.83319 
L 500.947222 228.841886 
L 522.66532 228.813806 
L 531.973077 228.886585 
L 541.280833 228.92508 
L 550.588589 228.896703 
L 562.998931 228.92618 
L 569.204102 228.821246 
L 572.306688 228.688027 
L 578.511859 228.589194 
L 584.71703 228.526087 
L 587.819615 228.604764 
L 597.127372 228.482745 
L 609.537714 228.563412 
L 612.640299 228.205937 
L 615.742885 228.08687 
L 618.84547 228.118195 
L 621.948056 227.896333 
L 625.050641 227.805062 
L 628.153227 228.072142 
L 643.666154 228.312626 
L 646.76874 228.412961 
L 649.871325 227.921294 
L 652.973911 228.122561 
L 659.179082 228.073311 
L 662.281667 227.781626 
L 665.384253 228.216914 
L 674.692009 228.180577 
L 677.794594 228.417601 
L 680.89718 228.2783 
L 683.999765 228.350998 
L 687.102351 228.004909 
L 690.204936 227.971236 
L 696.410107 228.266666 
L 699.512693 228.070311 
L 702.615278 228.503516 
L 705.717864 228.6418 
L 711.923035 228.609882 
L 715.02562 228.806237 
L 724.333377 228.796883 
L 733.641133 228.96 
L 749.154061 228.718264 
L 764.666988 228.941831 
L 783.282501 228.921054 
L 805.000599 228.96 
L 1093.54105 228.946565 
L 1093.54105 228.946565 
" style="fill:none;stroke:#a4a86f;stroke-linecap:square;stroke-width:2;"/>
   </g>
   <g id="patch_3">
    <path d="M 43.78125 228.96 
L 43.78125 7.2 
" style="fill:none;stroke:#000000;stroke-linecap:square;stroke-linejoin:miter;stroke-width:0.8;"/>
   </g>
   <g id="patch_4">
    <path d="M 43.78125 228.96 
L 1159.78125 228.96 
" style="fill:none;stroke:#000000;stroke-linecap:square;stroke-linejoin:miter;stroke-width:0.8;"/>
   </g>
   <g id="legend_1">
    <g id="line2d_27">
     <path d="M 1065.97 17.67875 
L 1081.97 17.67875 
" style="fill:none;stroke:#947383;stroke-linecap:square;stroke-width:2;"/>
    </g>
    <g id="line2d_28"/>
    <g id="text_23">
     <!-- North America -->
     <g transform="translate(1088.37 20.47875)scale(0.08 -0.08)">
      <defs>
       <path d="M 628 4666 
L 1478 4666 
L 3547 763 
L 3547 4666 
L 4159 4666 
L 4159 0 
L 3309 0 
L 1241 3903 
L 1241 0 
L 628 0 
L 628 4666 
z
" id="DejaVuSans-4e" transform="scale(0.015625)"/>
       <path d="M 3513 2113 
L 3513 0 
L 2938 0 
L 2938 2094 
Q 2938 2591 2744 2837 
Q 2550 3084 2163 3084 
Q 1697 3084 1428 2787 
Q 1159 2491 1159 1978 
L 1159 0 
L 581 0 
L 581 4863 
L 1159 4863 
L 1159 2956 
Q 1366 3272 1645 3428 
Q 1925 3584 2291 3584 
Q 2894 3584 3203 3211 
Q 3513 2838 3513 2113 
z
" id="DejaVuSans-68" transform="scale(0.015625)"/>
       <path d="M 2188 4044 
L 1331 1722 
L 3047 1722 
L 2188 4044 
z
M 1831 4666 
L 2547 4666 
L 4325 0 
L 3669 0 
L 3244 1197 
L 1141 1197 
L 716 0 
L 50 0 
L 1831 4666 
z
" id="DejaVuSans-41" transform="scale(0.015625)"/>
       <path d="M 3328 2828 
Q 3544 3216 3844 3400 
Q 4144 3584 4550 3584 
Q 5097 3584 5394 3201 
Q 5691 2819 5691 2113 
L 5691 0 
L 5113 0 
L 5113 2094 
Q 5113 2597 4934 2840 
Q 4756 3084 4391 3084 
Q 3944 3084 3684 2787 
Q 3425 2491 3425 1978 
L 3425 0 
L 2847 0 
L 2847 2094 
Q 2847 2600 2669 2842 
Q 2491 3084 2119 3084 
Q 1678 3084 1418 2786 
Q 1159 2488 1159 1978 
L 1159 0 
L 581 0 
L 581 3500 
L 1159 3500 
L 1159 2956 
Q 1356 3278 1631 3431 
Q 1906 3584 2284 3584 
Q 2666 3584 2933 3390 
Q 3200 3197 3328 2828 
z
" id="DejaVuSans-6d" transform="scale(0.015625)"/>
      </defs>
      <use xlink:href="#DejaVuSans-4e"/>
      <use x="74.804688" xlink:href="#DejaVuSans-6f"/>
      <use x="135.986328" xlink:href="#DejaVuSans-72"/>
      <use x="177.099609" xlink:href="#DejaVuSans-74"/>
      <use x="216.308594" xlink:href="#DejaVuSans-68"/>
      <use x="279.6875" xlink:href="#DejaVuSans-20"/>
      <use x="311.474609" xlink:href="#DejaVuSans-41"/>
      <use x="379.882812" xlink:href="#DejaVuSans-6d"/>
      <use x="477.294922" xlink:href="#DejaVuSans-65"/>
      <use x="538.818359" xlink:href="#DejaVuSans-72"/>
      <use x="579.931641" xlink:href="#DejaVuSans-69"/>
      <use x="607.714844" xlink:href="#DejaVuSans-63"/>
      <use x="662.695312" xlink:href="#DejaVuSans-61"/>
     </g>
    </g>
    <g id="line2d_29">
     <path d="M 1065.97 29.42125 
L 1081.97 29.42125 
" style="fill:none;stroke:#96c6ad;stroke-linecap:square;stroke-width:2;"/>
    </g>
    <g id="line2d_30"/>
    <g id="text_24">
     <!-- South America -->
     <g transform="translate(1088.37 32.22125)scale(0.08 -0.08)">
      <defs>
       <path d="M 3425 4513 
L 3425 3897 
Q 3066 4069 2747 4153 
Q 2428 4238 2131 4238 
Q 1616 4238 1336 4038 
Q 1056 3838 1056 3469 
Q 1056 3159 1242 3001 
Q 1428 2844 1947 2747 
L 2328 2669 
Q 3034 2534 3370 2195 
Q 3706 1856 3706 1288 
Q 3706 609 3251 259 
Q 2797 -91 1919 -91 
Q 1588 -91 1214 -16 
Q 841 59 441 206 
L 441 856 
Q 825 641 1194 531 
Q 1563 422 1919 422 
Q 2459 422 2753 634 
Q 3047 847 3047 1241 
Q 3047 1584 2836 1778 
Q 2625 1972 2144 2069 
L 1759 2144 
Q 1053 2284 737 2584 
Q 422 2884 422 3419 
Q 422 4038 858 4394 
Q 1294 4750 2059 4750 
Q 2388 4750 2728 4690 
Q 3069 4631 3425 4513 
z
" id="DejaVuSans-53" transform="scale(0.015625)"/>
      </defs>
      <use xlink:href="#DejaVuSans-53"/>
      <use x="63.476562" xlink:href="#DejaVuSans-6f"/>
      <use x="124.658203" xlink:href="#DejaVuSans-75"/>
      <use x="188.037109" xlink:href="#DejaVuSans-74"/>
      <use x="227.246094" xlink:href="#DejaVuSans-68"/>
      <use x="290.625" xlink:href="#DejaVuSans-20"/>
      <use x="322.412109" xlink:href="#DejaVuSans-41"/>
      <use x="390.820312" xlink:href="#DejaVuSans-6d"/>
      <use x="488.232422" xlink:href="#DejaVuSans-65"/>
      <use x="549.755859" xlink:href="#DejaVuSans-72"/>
      <use x="590.869141" xlink:href="#DejaVuSans-69"/>
      <use x="618.652344" xlink:href="#DejaVuSans-63"/>
      <use x="673.632812" xlink:href="#DejaVuSans-61"/>
     </g>
    </g>
    <g id="line2d_31">
     <path d="M 1065.97 41.16375 
L 1081.97 41.16375 
" style="fill:none;stroke:#525886;stroke-linecap:square;stroke-width:2;"/>
    </g>
    <g id="line2d_32"/>
    <g id="text_25">
     <!-- Europe -->
     <g transform="translate(1088.37 43.96375)scale(0.08 -0.08)">
      <defs>
       <path d="M 628 4666 
L 3578 4666 
L 3578 4134 
L 1259 4134 
L 1259 2753 
L 3481 2753 
L 3481 2222 
L 1259 2222 
L 1259 531 
L 3634 531 
L 3634 0 
L 628 0 
L 628 4666 
z
" id="DejaVuSans-45" transform="scale(0.015625)"/>
       <path d="M 1159 525 
L 1159 -1331 
L 581 -1331 
L 581 3500 
L 1159 3500 
L 1159 2969 
Q 1341 3281 1617 3432 
Q 1894 3584 2278 3584 
Q 2916 3584 3314 3078 
Q 3713 2572 3713 1747 
Q 3713 922 3314 415 
Q 2916 -91 2278 -91 
Q 1894 -91 1617 61 
Q 1341 213 1159 525 
z
M 3116 1747 
Q 3116 2381 2855 2742 
Q 2594 3103 2138 3103 
Q 1681 3103 1420 2742 
Q 1159 2381 1159 1747 
Q 1159 1113 1420 752 
Q 1681 391 2138 391 
Q 2594 391 2855 752 
Q 3116 1113 3116 1747 
z
" id="DejaVuSans-70" transform="scale(0.015625)"/>
      </defs>
      <use xlink:href="#DejaVuSans-45"/>
      <use x="63.183594" xlink:href="#DejaVuSans-75"/>
      <use x="126.5625" xlink:href="#DejaVuSans-72"/>
      <use x="165.425781" xlink:href="#DejaVuSans-6f"/>
      <use x="226.607422" xlink:href="#DejaVuSans-70"/>
      <use x="290.083984" xlink:href="#DejaVuSans-65"/>
     </g>
    </g>
    <g id="line2d_33">
     <path d="M 1065.97 52.90625 
L 1081.97 52.90625 
" style="fill:none;stroke:#937252;stroke-linecap:square;stroke-width:2;"/>
    </g>
    <g id="line2d_34"/>
    <g id="text_26">
     <!-- Oceania -->
     <g transform="translate(1088.37 55.70625)scale(0.08 -0.08)">
      <defs>
       <path d="M 2522 4238 
Q 1834 4238 1429 3725 
Q 1025 3213 1025 2328 
Q 1025 1447 1429 934 
Q 1834 422 2522 422 
Q 3209 422 3611 934 
Q 4013 1447 4013 2328 
Q 4013 3213 3611 3725 
Q 3209 4238 2522 4238 
z
M 2522 4750 
Q 3503 4750 4090 4092 
Q 4678 3434 4678 2328 
Q 4678 1225 4090 567 
Q 3503 -91 2522 -91 
Q 1538 -91 948 565 
Q 359 1222 359 2328 
Q 359 3434 948 4092 
Q 1538 4750 2522 4750 
z
" id="DejaVuSans-4f" transform="scale(0.015625)"/>
      </defs>
      <use xlink:href="#DejaVuSans-4f"/>
      <use x="78.710938" xlink:href="#DejaVuSans-63"/>
      <use x="133.691406" xlink:href="#DejaVuSans-65"/>
      <use x="195.214844" xlink:href="#DejaVuSans-61"/>
      <use x="256.494141" xlink:href="#DejaVuSans-6e"/>
      <use x="319.873047" xlink:href="#DejaVuSans-69"/>
      <use x="347.65625" xlink:href="#DejaVuSans-61"/>
     </g>
    </g>
    <g id="line2d_35">
     <path d="M 1065.97 64.64875 
L 1081.97 64.64875 
" style="fill:none;stroke:#d18cad;stroke-linecap:square;stroke-width:2;"/>
    </g>
    <g id="line2d_36"/>
    <g id="text_27">
     <!-- Asia -->
     <g transform="translate(1088.37 67.44875)scale(0.08 -0.08)">
      <defs>
       <path d="M 2834 3397 
L 2834 2853 
Q 2591 2978 2328 3040 
Q 2066 3103 1784 3103 
Q 1356 3103 1142 2972 
Q 928 2841 928 2578 
Q 928 2378 1081 2264 
Q 1234 2150 1697 2047 
L 1894 2003 
Q 2506 1872 2764 1633 
Q 3022 1394 3022 966 
Q 3022 478 2636 193 
Q 2250 -91 1575 -91 
Q 1294 -91 989 -36 
Q 684 19 347 128 
L 347 722 
Q 666 556 975 473 
Q 1284 391 1588 391 
Q 1994 391 2212 530 
Q 2431 669 2431 922 
Q 2431 1156 2273 1281 
Q 2116 1406 1581 1522 
L 1381 1569 
Q 847 1681 609 1914 
Q 372 2147 372 2553 
Q 372 3047 722 3315 
Q 1072 3584 1716 3584 
Q 2034 3584 2315 3537 
Q 2597 3491 2834 3397 
z
" id="DejaVuSans-73" transform="scale(0.015625)"/>
      </defs>
      <use xlink:href="#DejaVuSans-41"/>
      <use x="68.408203" xlink:href="#DejaVuSans-73"/>
      <use x="120.507812" xlink:href="#DejaVuSans-69"/>
      <use x="148.291016" xlink:href="#DejaVuSans-61"/>
     </g>
    </g>
    <g id="line2d_37">
     <path d="M 1065.97 76.39125 
L 1081.97 76.39125 
" style="fill:none;stroke:#a4a86f;stroke-linecap:square;stroke-width:2;"/>
    </g>
    <g id="line2d_38"/>
    <g id="text_28">
     <!-- United Kingdom -->
     <g transform="translate(1088.37 79.19125)scale(0.08 -0.08)">
      <defs>
       <path d="M 556 4666 
L 1191 4666 
L 1191 1831 
Q 1191 1081 1462 751 
Q 1734 422 2344 422 
Q 2950 422 3222 751 
Q 3494 1081 3494 1831 
L 3494 4666 
L 4128 4666 
L 4128 1753 
Q 4128 841 3676 375 
Q 3225 -91 2344 -91 
Q 1459 -91 1007 375 
Q 556 841 556 1753 
L 556 4666 
z
" id="DejaVuSans-55" transform="scale(0.015625)"/>
       <path d="M 628 4666 
L 1259 4666 
L 1259 2694 
L 3353 4666 
L 4166 4666 
L 1850 2491 
L 4331 0 
L 3500 0 
L 1259 2247 
L 1259 0 
L 628 0 
L 628 4666 
z
" id="DejaVuSans-4b" transform="scale(0.015625)"/>
      </defs>
      <use xlink:href="#DejaVuSans-55"/>
      <use x="73.193359" xlink:href="#DejaVuSans-6e"/>
      <use x="136.572266" xlink:href="#DejaVuSans-69"/>
      <use x="164.355469" xlink:href="#DejaVuSans-74"/>
      <use x="203.564453" xlink:href="#DejaVuSans-65"/>
      <use x="265.087891" xlink:href="#DejaVuSans-64"/>
      <use x="328.564453" xlink:href="#DejaVuSans-20"/>
      <use x="360.351562" xlink:href="#DejaVuSans-4b"/>
      <use x="425.927734" xlink:href="#DejaVuSans-69"/>
      <use x="453.710938" xlink:href="#DejaVuSans-6e"/>
      <use x="517.089844" xlink:href="#DejaVuSans-67"/>
      <use x="580.566406" xlink:href="#DejaVuSans-64"/>
      <use x="644.042969" xlink:href="#DejaVuSans-6f"/>
      <use x="705.224609" xlink:href="#DejaVuSans-6d"/>
     </g>
    </g>
   </g>
  </g>
 </g>
 <defs>
  <clipPath id="p5056130d75">
   <rect height="221.76" width="1116" x="43.78125" y="7.2"/>
  </clipPath>
 </defs>
</svg>
