<?xml version="1.0" encoding="utf-8" standalone="no"?>
<!DOCTYPE svg PUBLIC "-//W3C//DTD SVG 1.1//EN"
  "http://www.w3.org/Graphics/SVG/1.1/DTD/svg11.dtd">
<svg height="298.620937pt" version="1.1" viewBox="0 0 1166.98125 298.620937" width="1166.98125pt" xmlns="http://www.w3.org/2000/svg" xmlns:xlink="http://www.w3.org/1999/xlink">
 <metadata>
  <rdf:RDF xmlns:cc="http://creativecommons.org/ns#" xmlns:dc="http://purl.org/dc/elements/1.1/" xmlns:rdf="http://www.w3.org/1999/02/22-rdf-syntax-ns#">
   <cc:Work>
    <dc:type rdf:resource="http://purl.org/dc/dcmitype/StillImage"/>
    <dc:date>2021-11-02T14:12:43.106356</dc:date>
    <dc:format>image/svg+xml</dc:format>
    <dc:creator>
     <cc:Agent>
      <dc:title>Matplotlib v3.4.2, https://matplotlib.org/</dc:title>
     </cc:Agent>
    </dc:creator>
   </cc:Work>
  </rdf:RDF>
 </metadata>
 <defs>
  <style type="text/css">*{stroke-linecap:butt;stroke-linejoin:round;}</style>
 </defs>
 <g id="figure_1">
  <g id="patch_1">
   <path d="M 0 298.620937 
L 1166.98125 298.620937 
L 1166.98125 0 
L 0 0 
z
" style="fill:#ffffff;"/>
  </g>
  <g id="axes_1">
   <g id="patch_2">
    <path d="M 43.78125 228.96 
L 1159.78125 228.96 
L 1159.78125 7.2 
L 43.78125 7.2 
z
" style="fill:#ffffff;"/>
   </g>
   <g id="matplotlib.axis_1">
    <g id="xtick_1">
     <g id="line2d_1">
      <defs>
       <path d="M 0 0 
L 0 3.5 
" id="m5074f9ce2e" style="stroke:#000000;stroke-width:0.8;"/>
      </defs>
      <g>
       <use style="stroke:#000000;stroke-width:0.8;" x="186.507607" xlink:href="#m5074f9ce2e" y="228.96"/>
      </g>
     </g>
     <g id="text_1">
      <!-- 2020-11 -->
      <g transform="translate(189.266982 277.742812)rotate(-90)scale(0.1 -0.1)">
       <defs>
        <path d="M 1228 531 
L 3431 531 
L 3431 0 
L 469 0 
L 469 531 
Q 828 903 1448 1529 
Q 2069 2156 2228 2338 
Q 2531 2678 2651 2914 
Q 2772 3150 2772 3378 
Q 2772 3750 2511 3984 
Q 2250 4219 1831 4219 
Q 1534 4219 1204 4116 
Q 875 4013 500 3803 
L 500 4441 
Q 881 4594 1212 4672 
Q 1544 4750 1819 4750 
Q 2544 4750 2975 4387 
Q 3406 4025 3406 3419 
Q 3406 3131 3298 2873 
Q 3191 2616 2906 2266 
Q 2828 2175 2409 1742 
Q 1991 1309 1228 531 
z
" id="DejaVuSans-32" transform="scale(0.015625)"/>
        <path d="M 2034 4250 
Q 1547 4250 1301 3770 
Q 1056 3291 1056 2328 
Q 1056 1369 1301 889 
Q 1547 409 2034 409 
Q 2525 409 2770 889 
Q 3016 1369 3016 2328 
Q 3016 3291 2770 3770 
Q 2525 4250 2034 4250 
z
M 2034 4750 
Q 2819 4750 3233 4129 
Q 3647 3509 3647 2328 
Q 3647 1150 3233 529 
Q 2819 -91 2034 -91 
Q 1250 -91 836 529 
Q 422 1150 422 2328 
Q 422 3509 836 4129 
Q 1250 4750 2034 4750 
z
" id="DejaVuSans-30" transform="scale(0.015625)"/>
        <path d="M 313 2009 
L 1997 2009 
L 1997 1497 
L 313 1497 
L 313 2009 
z
" id="DejaVuSans-2d" transform="scale(0.015625)"/>
        <path d="M 794 531 
L 1825 531 
L 1825 4091 
L 703 3866 
L 703 4441 
L 1819 4666 
L 2450 4666 
L 2450 531 
L 3481 531 
L 3481 0 
L 794 0 
L 794 531 
z
" id="DejaVuSans-31" transform="scale(0.015625)"/>
       </defs>
       <use xlink:href="#DejaVuSans-32"/>
       <use x="63.623047" xlink:href="#DejaVuSans-30"/>
       <use x="127.246094" xlink:href="#DejaVuSans-32"/>
       <use x="190.869141" xlink:href="#DejaVuSans-30"/>
       <use x="254.492188" xlink:href="#DejaVuSans-2d"/>
       <use x="290.576172" xlink:href="#DejaVuSans-31"/>
       <use x="354.199219" xlink:href="#DejaVuSans-31"/>
      </g>
     </g>
    </g>
    <g id="xtick_2">
     <g id="line2d_2">
      <g>
       <use style="stroke:#000000;stroke-width:0.8;" x="342.394944" xlink:href="#m5074f9ce2e" y="228.96"/>
      </g>
     </g>
     <g id="text_2">
      <!-- 2021-01 -->
      <g transform="translate(345.154319 277.742812)rotate(-90)scale(0.1 -0.1)">
       <use xlink:href="#DejaVuSans-32"/>
       <use x="63.623047" xlink:href="#DejaVuSans-30"/>
       <use x="127.246094" xlink:href="#DejaVuSans-32"/>
       <use x="190.869141" xlink:href="#DejaVuSans-31"/>
       <use x="254.492188" xlink:href="#DejaVuSans-2d"/>
       <use x="290.576172" xlink:href="#DejaVuSans-30"/>
       <use x="354.199219" xlink:href="#DejaVuSans-31"/>
      </g>
     </g>
    </g>
    <g id="xtick_3">
     <g id="line2d_3">
      <g>
       <use style="stroke:#000000;stroke-width:0.8;" x="493.17122" xlink:href="#m5074f9ce2e" y="228.96"/>
      </g>
     </g>
     <g id="text_3">
      <!-- 2021-03 -->
      <g transform="translate(495.930595 277.742812)rotate(-90)scale(0.1 -0.1)">
       <defs>
        <path d="M 2597 2516 
Q 3050 2419 3304 2112 
Q 3559 1806 3559 1356 
Q 3559 666 3084 287 
Q 2609 -91 1734 -91 
Q 1441 -91 1130 -33 
Q 819 25 488 141 
L 488 750 
Q 750 597 1062 519 
Q 1375 441 1716 441 
Q 2309 441 2620 675 
Q 2931 909 2931 1356 
Q 2931 1769 2642 2001 
Q 2353 2234 1838 2234 
L 1294 2234 
L 1294 2753 
L 1863 2753 
Q 2328 2753 2575 2939 
Q 2822 3125 2822 3475 
Q 2822 3834 2567 4026 
Q 2313 4219 1838 4219 
Q 1578 4219 1281 4162 
Q 984 4106 628 3988 
L 628 4550 
Q 988 4650 1302 4700 
Q 1616 4750 1894 4750 
Q 2613 4750 3031 4423 
Q 3450 4097 3450 3541 
Q 3450 3153 3228 2886 
Q 3006 2619 2597 2516 
z
" id="DejaVuSans-33" transform="scale(0.015625)"/>
       </defs>
       <use xlink:href="#DejaVuSans-32"/>
       <use x="63.623047" xlink:href="#DejaVuSans-30"/>
       <use x="127.246094" xlink:href="#DejaVuSans-32"/>
       <use x="190.869141" xlink:href="#DejaVuSans-31"/>
       <use x="254.492188" xlink:href="#DejaVuSans-2d"/>
       <use x="290.576172" xlink:href="#DejaVuSans-30"/>
       <use x="354.199219" xlink:href="#DejaVuSans-33"/>
      </g>
     </g>
    </g>
    <g id="xtick_4">
     <g id="line2d_4">
      <g>
       <use style="stroke:#000000;stroke-width:0.8;" x="649.058557" xlink:href="#m5074f9ce2e" y="228.96"/>
      </g>
     </g>
     <g id="text_4">
      <!-- 2021-05 -->
      <g transform="translate(651.817932 277.742812)rotate(-90)scale(0.1 -0.1)">
       <defs>
        <path d="M 691 4666 
L 3169 4666 
L 3169 4134 
L 1269 4134 
L 1269 2991 
Q 1406 3038 1543 3061 
Q 1681 3084 1819 3084 
Q 2600 3084 3056 2656 
Q 3513 2228 3513 1497 
Q 3513 744 3044 326 
Q 2575 -91 1722 -91 
Q 1428 -91 1123 -41 
Q 819 9 494 109 
L 494 744 
Q 775 591 1075 516 
Q 1375 441 1709 441 
Q 2250 441 2565 725 
Q 2881 1009 2881 1497 
Q 2881 1984 2565 2268 
Q 2250 2553 1709 2553 
Q 1456 2553 1204 2497 
Q 953 2441 691 2322 
L 691 4666 
z
" id="DejaVuSans-35" transform="scale(0.015625)"/>
       </defs>
       <use xlink:href="#DejaVuSans-32"/>
       <use x="63.623047" xlink:href="#DejaVuSans-30"/>
       <use x="127.246094" xlink:href="#DejaVuSans-32"/>
       <use x="190.869141" xlink:href="#DejaVuSans-31"/>
       <use x="254.492188" xlink:href="#DejaVuSans-2d"/>
       <use x="290.576172" xlink:href="#DejaVuSans-30"/>
       <use x="354.199219" xlink:href="#DejaVuSans-35"/>
      </g>
     </g>
    </g>
    <g id="xtick_5">
     <g id="line2d_5">
      <g>
       <use style="stroke:#000000;stroke-width:0.8;" x="804.945894" xlink:href="#m5074f9ce2e" y="228.96"/>
      </g>
     </g>
     <g id="text_5">
      <!-- 2021-07 -->
      <g transform="translate(807.705269 277.742812)rotate(-90)scale(0.1 -0.1)">
       <defs>
        <path d="M 525 4666 
L 3525 4666 
L 3525 4397 
L 1831 0 
L 1172 0 
L 2766 4134 
L 525 4134 
L 525 4666 
z
" id="DejaVuSans-37" transform="scale(0.015625)"/>
       </defs>
       <use xlink:href="#DejaVuSans-32"/>
       <use x="63.623047" xlink:href="#DejaVuSans-30"/>
       <use x="127.246094" xlink:href="#DejaVuSans-32"/>
       <use x="190.869141" xlink:href="#DejaVuSans-31"/>
       <use x="254.492188" xlink:href="#DejaVuSans-2d"/>
       <use x="290.576172" xlink:href="#DejaVuSans-30"/>
       <use x="354.199219" xlink:href="#DejaVuSans-37"/>
      </g>
     </g>
    </g>
    <g id="xtick_6">
     <g id="line2d_6">
      <g>
       <use style="stroke:#000000;stroke-width:0.8;" x="963.388761" xlink:href="#m5074f9ce2e" y="228.96"/>
      </g>
     </g>
     <g id="text_6">
      <!-- 2021-09 -->
      <g transform="translate(966.148136 277.742812)rotate(-90)scale(0.1 -0.1)">
       <defs>
        <path d="M 703 97 
L 703 672 
Q 941 559 1184 500 
Q 1428 441 1663 441 
Q 2288 441 2617 861 
Q 2947 1281 2994 2138 
Q 2813 1869 2534 1725 
Q 2256 1581 1919 1581 
Q 1219 1581 811 2004 
Q 403 2428 403 3163 
Q 403 3881 828 4315 
Q 1253 4750 1959 4750 
Q 2769 4750 3195 4129 
Q 3622 3509 3622 2328 
Q 3622 1225 3098 567 
Q 2575 -91 1691 -91 
Q 1453 -91 1209 -44 
Q 966 3 703 97 
z
M 1959 2075 
Q 2384 2075 2632 2365 
Q 2881 2656 2881 3163 
Q 2881 3666 2632 3958 
Q 2384 4250 1959 4250 
Q 1534 4250 1286 3958 
Q 1038 3666 1038 3163 
Q 1038 2656 1286 2365 
Q 1534 2075 1959 2075 
z
" id="DejaVuSans-39" transform="scale(0.015625)"/>
       </defs>
       <use xlink:href="#DejaVuSans-32"/>
       <use x="63.623047" xlink:href="#DejaVuSans-30"/>
       <use x="127.246094" xlink:href="#DejaVuSans-32"/>
       <use x="190.869141" xlink:href="#DejaVuSans-31"/>
       <use x="254.492188" xlink:href="#DejaVuSans-2d"/>
       <use x="290.576172" xlink:href="#DejaVuSans-30"/>
       <use x="354.199219" xlink:href="#DejaVuSans-39"/>
      </g>
     </g>
    </g>
    <g id="xtick_7">
     <g id="line2d_7">
      <g>
       <use style="stroke:#000000;stroke-width:0.8;" x="1119.276098" xlink:href="#m5074f9ce2e" y="228.96"/>
      </g>
     </g>
     <g id="text_7">
      <!-- 2021-11 -->
      <g transform="translate(1122.035473 277.742812)rotate(-90)scale(0.1 -0.1)">
       <use xlink:href="#DejaVuSans-32"/>
       <use x="63.623047" xlink:href="#DejaVuSans-30"/>
       <use x="127.246094" xlink:href="#DejaVuSans-32"/>
       <use x="190.869141" xlink:href="#DejaVuSans-31"/>
       <use x="254.492188" xlink:href="#DejaVuSans-2d"/>
       <use x="290.576172" xlink:href="#DejaVuSans-31"/>
       <use x="354.199219" xlink:href="#DejaVuSans-31"/>
      </g>
     </g>
    </g>
    <g id="text_8">
     <!-- Date -->
     <g transform="translate(589.830469 289.34125)scale(0.1 -0.1)">
      <defs>
       <path d="M 1259 4147 
L 1259 519 
L 2022 519 
Q 2988 519 3436 956 
Q 3884 1394 3884 2338 
Q 3884 3275 3436 3711 
Q 2988 4147 2022 4147 
L 1259 4147 
z
M 628 4666 
L 1925 4666 
Q 3281 4666 3915 4102 
Q 4550 3538 4550 2338 
Q 4550 1131 3912 565 
Q 3275 0 1925 0 
L 628 0 
L 628 4666 
z
" id="DejaVuSans-44" transform="scale(0.015625)"/>
       <path d="M 2194 1759 
Q 1497 1759 1228 1600 
Q 959 1441 959 1056 
Q 959 750 1161 570 
Q 1363 391 1709 391 
Q 2188 391 2477 730 
Q 2766 1069 2766 1631 
L 2766 1759 
L 2194 1759 
z
M 3341 1997 
L 3341 0 
L 2766 0 
L 2766 531 
Q 2569 213 2275 61 
Q 1981 -91 1556 -91 
Q 1019 -91 701 211 
Q 384 513 384 1019 
Q 384 1609 779 1909 
Q 1175 2209 1959 2209 
L 2766 2209 
L 2766 2266 
Q 2766 2663 2505 2880 
Q 2244 3097 1772 3097 
Q 1472 3097 1187 3025 
Q 903 2953 641 2809 
L 641 3341 
Q 956 3463 1253 3523 
Q 1550 3584 1831 3584 
Q 2591 3584 2966 3190 
Q 3341 2797 3341 1997 
z
" id="DejaVuSans-61" transform="scale(0.015625)"/>
       <path d="M 1172 4494 
L 1172 3500 
L 2356 3500 
L 2356 3053 
L 1172 3053 
L 1172 1153 
Q 1172 725 1289 603 
Q 1406 481 1766 481 
L 2356 481 
L 2356 0 
L 1766 0 
Q 1100 0 847 248 
Q 594 497 594 1153 
L 594 3053 
L 172 3053 
L 172 3500 
L 594 3500 
L 594 4494 
L 1172 4494 
z
" id="DejaVuSans-74" transform="scale(0.015625)"/>
       <path d="M 3597 1894 
L 3597 1613 
L 953 1613 
Q 991 1019 1311 708 
Q 1631 397 2203 397 
Q 2534 397 2845 478 
Q 3156 559 3463 722 
L 3463 178 
Q 3153 47 2828 -22 
Q 2503 -91 2169 -91 
Q 1331 -91 842 396 
Q 353 884 353 1716 
Q 353 2575 817 3079 
Q 1281 3584 2069 3584 
Q 2775 3584 3186 3129 
Q 3597 2675 3597 1894 
z
M 3022 2063 
Q 3016 2534 2758 2815 
Q 2500 3097 2075 3097 
Q 1594 3097 1305 2825 
Q 1016 2553 972 2059 
L 3022 2063 
z
" id="DejaVuSans-65" transform="scale(0.015625)"/>
      </defs>
      <use xlink:href="#DejaVuSans-44"/>
      <use x="77.001953" xlink:href="#DejaVuSans-61"/>
      <use x="138.28125" xlink:href="#DejaVuSans-74"/>
      <use x="177.490234" xlink:href="#DejaVuSans-65"/>
     </g>
    </g>
   </g>
   <g id="matplotlib.axis_2">
    <g id="ytick_1">
     <g id="line2d_8">
      <defs>
       <path d="M 0 0 
L -3.5 0 
" id="m7409abd9dc" style="stroke:#000000;stroke-width:0.8;"/>
      </defs>
      <g>
       <use style="stroke:#000000;stroke-width:0.8;" x="43.78125" xlink:href="#m7409abd9dc" y="228.96"/>
      </g>
     </g>
     <g id="text_9">
      <!-- 0.0 -->
      <g transform="translate(20.878125 232.759219)scale(0.1 -0.1)">
       <defs>
        <path d="M 684 794 
L 1344 794 
L 1344 0 
L 684 0 
L 684 794 
z
" id="DejaVuSans-2e" transform="scale(0.015625)"/>
       </defs>
       <use xlink:href="#DejaVuSans-30"/>
       <use x="63.623047" xlink:href="#DejaVuSans-2e"/>
       <use x="95.410156" xlink:href="#DejaVuSans-30"/>
      </g>
     </g>
    </g>
    <g id="ytick_2">
     <g id="line2d_9">
      <g>
       <use style="stroke:#000000;stroke-width:0.8;" x="43.78125" xlink:href="#m7409abd9dc" y="200.562429"/>
      </g>
     </g>
     <g id="text_10">
      <!-- 0.1 -->
      <g transform="translate(20.878125 204.361648)scale(0.1 -0.1)">
       <use xlink:href="#DejaVuSans-30"/>
       <use x="63.623047" xlink:href="#DejaVuSans-2e"/>
       <use x="95.410156" xlink:href="#DejaVuSans-31"/>
      </g>
     </g>
    </g>
    <g id="ytick_3">
     <g id="line2d_10">
      <g>
       <use style="stroke:#000000;stroke-width:0.8;" x="43.78125" xlink:href="#m7409abd9dc" y="172.164858"/>
      </g>
     </g>
     <g id="text_11">
      <!-- 0.2 -->
      <g transform="translate(20.878125 175.964076)scale(0.1 -0.1)">
       <use xlink:href="#DejaVuSans-30"/>
       <use x="63.623047" xlink:href="#DejaVuSans-2e"/>
       <use x="95.410156" xlink:href="#DejaVuSans-32"/>
      </g>
     </g>
    </g>
    <g id="ytick_4">
     <g id="line2d_11">
      <g>
       <use style="stroke:#000000;stroke-width:0.8;" x="43.78125" xlink:href="#m7409abd9dc" y="143.767286"/>
      </g>
     </g>
     <g id="text_12">
      <!-- 0.3 -->
      <g transform="translate(20.878125 147.566505)scale(0.1 -0.1)">
       <use xlink:href="#DejaVuSans-30"/>
       <use x="63.623047" xlink:href="#DejaVuSans-2e"/>
       <use x="95.410156" xlink:href="#DejaVuSans-33"/>
      </g>
     </g>
    </g>
    <g id="ytick_5">
     <g id="line2d_12">
      <g>
       <use style="stroke:#000000;stroke-width:0.8;" x="43.78125" xlink:href="#m7409abd9dc" y="115.369715"/>
      </g>
     </g>
     <g id="text_13">
      <!-- 0.4 -->
      <g transform="translate(20.878125 119.168934)scale(0.1 -0.1)">
       <defs>
        <path d="M 2419 4116 
L 825 1625 
L 2419 1625 
L 2419 4116 
z
M 2253 4666 
L 3047 4666 
L 3047 1625 
L 3713 1625 
L 3713 1100 
L 3047 1100 
L 3047 0 
L 2419 0 
L 2419 1100 
L 313 1100 
L 313 1709 
L 2253 4666 
z
" id="DejaVuSans-34" transform="scale(0.015625)"/>
       </defs>
       <use xlink:href="#DejaVuSans-30"/>
       <use x="63.623047" xlink:href="#DejaVuSans-2e"/>
       <use x="95.410156" xlink:href="#DejaVuSans-34"/>
      </g>
     </g>
    </g>
    <g id="ytick_6">
     <g id="line2d_13">
      <g>
       <use style="stroke:#000000;stroke-width:0.8;" x="43.78125" xlink:href="#m7409abd9dc" y="86.972144"/>
      </g>
     </g>
     <g id="text_14">
      <!-- 0.5 -->
      <g transform="translate(20.878125 90.771363)scale(0.1 -0.1)">
       <use xlink:href="#DejaVuSans-30"/>
       <use x="63.623047" xlink:href="#DejaVuSans-2e"/>
       <use x="95.410156" xlink:href="#DejaVuSans-35"/>
      </g>
     </g>
    </g>
    <g id="ytick_7">
     <g id="line2d_14">
      <g>
       <use style="stroke:#000000;stroke-width:0.8;" x="43.78125" xlink:href="#m7409abd9dc" y="58.574573"/>
      </g>
     </g>
     <g id="text_15">
      <!-- 0.6 -->
      <g transform="translate(20.878125 62.373792)scale(0.1 -0.1)">
       <defs>
        <path d="M 2113 2584 
Q 1688 2584 1439 2293 
Q 1191 2003 1191 1497 
Q 1191 994 1439 701 
Q 1688 409 2113 409 
Q 2538 409 2786 701 
Q 3034 994 3034 1497 
Q 3034 2003 2786 2293 
Q 2538 2584 2113 2584 
z
M 3366 4563 
L 3366 3988 
Q 3128 4100 2886 4159 
Q 2644 4219 2406 4219 
Q 1781 4219 1451 3797 
Q 1122 3375 1075 2522 
Q 1259 2794 1537 2939 
Q 1816 3084 2150 3084 
Q 2853 3084 3261 2657 
Q 3669 2231 3669 1497 
Q 3669 778 3244 343 
Q 2819 -91 2113 -91 
Q 1303 -91 875 529 
Q 447 1150 447 2328 
Q 447 3434 972 4092 
Q 1497 4750 2381 4750 
Q 2619 4750 2861 4703 
Q 3103 4656 3366 4563 
z
" id="DejaVuSans-36" transform="scale(0.015625)"/>
       </defs>
       <use xlink:href="#DejaVuSans-30"/>
       <use x="63.623047" xlink:href="#DejaVuSans-2e"/>
       <use x="95.410156" xlink:href="#DejaVuSans-36"/>
      </g>
     </g>
    </g>
    <g id="ytick_8">
     <g id="line2d_15">
      <g>
       <use style="stroke:#000000;stroke-width:0.8;" x="43.78125" xlink:href="#m7409abd9dc" y="30.177002"/>
      </g>
     </g>
     <g id="text_16">
      <!-- 0.7 -->
      <g transform="translate(20.878125 33.97622)scale(0.1 -0.1)">
       <use xlink:href="#DejaVuSans-30"/>
       <use x="63.623047" xlink:href="#DejaVuSans-2e"/>
       <use x="95.410156" xlink:href="#DejaVuSans-37"/>
      </g>
     </g>
    </g>
    <g id="text_17">
     <!-- Frequency (7 day rolling average) -->
     <g transform="translate(14.798437 202.529219)rotate(-90)scale(0.1 -0.1)">
      <defs>
       <path d="M 628 4666 
L 3309 4666 
L 3309 4134 
L 1259 4134 
L 1259 2759 
L 3109 2759 
L 3109 2228 
L 1259 2228 
L 1259 0 
L 628 0 
L 628 4666 
z
" id="DejaVuSans-46" transform="scale(0.015625)"/>
       <path d="M 2631 2963 
Q 2534 3019 2420 3045 
Q 2306 3072 2169 3072 
Q 1681 3072 1420 2755 
Q 1159 2438 1159 1844 
L 1159 0 
L 581 0 
L 581 3500 
L 1159 3500 
L 1159 2956 
Q 1341 3275 1631 3429 
Q 1922 3584 2338 3584 
Q 2397 3584 2469 3576 
Q 2541 3569 2628 3553 
L 2631 2963 
z
" id="DejaVuSans-72" transform="scale(0.015625)"/>
       <path d="M 947 1747 
Q 947 1113 1208 752 
Q 1469 391 1925 391 
Q 2381 391 2643 752 
Q 2906 1113 2906 1747 
Q 2906 2381 2643 2742 
Q 2381 3103 1925 3103 
Q 1469 3103 1208 2742 
Q 947 2381 947 1747 
z
M 2906 525 
Q 2725 213 2448 61 
Q 2172 -91 1784 -91 
Q 1150 -91 751 415 
Q 353 922 353 1747 
Q 353 2572 751 3078 
Q 1150 3584 1784 3584 
Q 2172 3584 2448 3432 
Q 2725 3281 2906 2969 
L 2906 3500 
L 3481 3500 
L 3481 -1331 
L 2906 -1331 
L 2906 525 
z
" id="DejaVuSans-71" transform="scale(0.015625)"/>
       <path d="M 544 1381 
L 544 3500 
L 1119 3500 
L 1119 1403 
Q 1119 906 1312 657 
Q 1506 409 1894 409 
Q 2359 409 2629 706 
Q 2900 1003 2900 1516 
L 2900 3500 
L 3475 3500 
L 3475 0 
L 2900 0 
L 2900 538 
Q 2691 219 2414 64 
Q 2138 -91 1772 -91 
Q 1169 -91 856 284 
Q 544 659 544 1381 
z
M 1991 3584 
L 1991 3584 
z
" id="DejaVuSans-75" transform="scale(0.015625)"/>
       <path d="M 3513 2113 
L 3513 0 
L 2938 0 
L 2938 2094 
Q 2938 2591 2744 2837 
Q 2550 3084 2163 3084 
Q 1697 3084 1428 2787 
Q 1159 2491 1159 1978 
L 1159 0 
L 581 0 
L 581 3500 
L 1159 3500 
L 1159 2956 
Q 1366 3272 1645 3428 
Q 1925 3584 2291 3584 
Q 2894 3584 3203 3211 
Q 3513 2838 3513 2113 
z
" id="DejaVuSans-6e" transform="scale(0.015625)"/>
       <path d="M 3122 3366 
L 3122 2828 
Q 2878 2963 2633 3030 
Q 2388 3097 2138 3097 
Q 1578 3097 1268 2742 
Q 959 2388 959 1747 
Q 959 1106 1268 751 
Q 1578 397 2138 397 
Q 2388 397 2633 464 
Q 2878 531 3122 666 
L 3122 134 
Q 2881 22 2623 -34 
Q 2366 -91 2075 -91 
Q 1284 -91 818 406 
Q 353 903 353 1747 
Q 353 2603 823 3093 
Q 1294 3584 2113 3584 
Q 2378 3584 2631 3529 
Q 2884 3475 3122 3366 
z
" id="DejaVuSans-63" transform="scale(0.015625)"/>
       <path d="M 2059 -325 
Q 1816 -950 1584 -1140 
Q 1353 -1331 966 -1331 
L 506 -1331 
L 506 -850 
L 844 -850 
Q 1081 -850 1212 -737 
Q 1344 -625 1503 -206 
L 1606 56 
L 191 3500 
L 800 3500 
L 1894 763 
L 2988 3500 
L 3597 3500 
L 2059 -325 
z
" id="DejaVuSans-79" transform="scale(0.015625)"/>
       <path id="DejaVuSans-20" transform="scale(0.015625)"/>
       <path d="M 1984 4856 
Q 1566 4138 1362 3434 
Q 1159 2731 1159 2009 
Q 1159 1288 1364 580 
Q 1569 -128 1984 -844 
L 1484 -844 
Q 1016 -109 783 600 
Q 550 1309 550 2009 
Q 550 2706 781 3412 
Q 1013 4119 1484 4856 
L 1984 4856 
z
" id="DejaVuSans-28" transform="scale(0.015625)"/>
       <path d="M 2906 2969 
L 2906 4863 
L 3481 4863 
L 3481 0 
L 2906 0 
L 2906 525 
Q 2725 213 2448 61 
Q 2172 -91 1784 -91 
Q 1150 -91 751 415 
Q 353 922 353 1747 
Q 353 2572 751 3078 
Q 1150 3584 1784 3584 
Q 2172 3584 2448 3432 
Q 2725 3281 2906 2969 
z
M 947 1747 
Q 947 1113 1208 752 
Q 1469 391 1925 391 
Q 2381 391 2643 752 
Q 2906 1113 2906 1747 
Q 2906 2381 2643 2742 
Q 2381 3103 1925 3103 
Q 1469 3103 1208 2742 
Q 947 2381 947 1747 
z
" id="DejaVuSans-64" transform="scale(0.015625)"/>
       <path d="M 1959 3097 
Q 1497 3097 1228 2736 
Q 959 2375 959 1747 
Q 959 1119 1226 758 
Q 1494 397 1959 397 
Q 2419 397 2687 759 
Q 2956 1122 2956 1747 
Q 2956 2369 2687 2733 
Q 2419 3097 1959 3097 
z
M 1959 3584 
Q 2709 3584 3137 3096 
Q 3566 2609 3566 1747 
Q 3566 888 3137 398 
Q 2709 -91 1959 -91 
Q 1206 -91 779 398 
Q 353 888 353 1747 
Q 353 2609 779 3096 
Q 1206 3584 1959 3584 
z
" id="DejaVuSans-6f" transform="scale(0.015625)"/>
       <path d="M 603 4863 
L 1178 4863 
L 1178 0 
L 603 0 
L 603 4863 
z
" id="DejaVuSans-6c" transform="scale(0.015625)"/>
       <path d="M 603 3500 
L 1178 3500 
L 1178 0 
L 603 0 
L 603 3500 
z
M 603 4863 
L 1178 4863 
L 1178 4134 
L 603 4134 
L 603 4863 
z
" id="DejaVuSans-69" transform="scale(0.015625)"/>
       <path d="M 2906 1791 
Q 2906 2416 2648 2759 
Q 2391 3103 1925 3103 
Q 1463 3103 1205 2759 
Q 947 2416 947 1791 
Q 947 1169 1205 825 
Q 1463 481 1925 481 
Q 2391 481 2648 825 
Q 2906 1169 2906 1791 
z
M 3481 434 
Q 3481 -459 3084 -895 
Q 2688 -1331 1869 -1331 
Q 1566 -1331 1297 -1286 
Q 1028 -1241 775 -1147 
L 775 -588 
Q 1028 -725 1275 -790 
Q 1522 -856 1778 -856 
Q 2344 -856 2625 -561 
Q 2906 -266 2906 331 
L 2906 616 
Q 2728 306 2450 153 
Q 2172 0 1784 0 
Q 1141 0 747 490 
Q 353 981 353 1791 
Q 353 2603 747 3093 
Q 1141 3584 1784 3584 
Q 2172 3584 2450 3431 
Q 2728 3278 2906 2969 
L 2906 3500 
L 3481 3500 
L 3481 434 
z
" id="DejaVuSans-67" transform="scale(0.015625)"/>
       <path d="M 191 3500 
L 800 3500 
L 1894 563 
L 2988 3500 
L 3597 3500 
L 2284 0 
L 1503 0 
L 191 3500 
z
" id="DejaVuSans-76" transform="scale(0.015625)"/>
       <path d="M 513 4856 
L 1013 4856 
Q 1481 4119 1714 3412 
Q 1947 2706 1947 2009 
Q 1947 1309 1714 600 
Q 1481 -109 1013 -844 
L 513 -844 
Q 928 -128 1133 580 
Q 1338 1288 1338 2009 
Q 1338 2731 1133 3434 
Q 928 4138 513 4856 
z
" id="DejaVuSans-29" transform="scale(0.015625)"/>
      </defs>
      <use xlink:href="#DejaVuSans-46"/>
      <use x="50.269531" xlink:href="#DejaVuSans-72"/>
      <use x="89.132812" xlink:href="#DejaVuSans-65"/>
      <use x="150.65625" xlink:href="#DejaVuSans-71"/>
      <use x="214.132812" xlink:href="#DejaVuSans-75"/>
      <use x="277.511719" xlink:href="#DejaVuSans-65"/>
      <use x="339.035156" xlink:href="#DejaVuSans-6e"/>
      <use x="402.414062" xlink:href="#DejaVuSans-63"/>
      <use x="457.394531" xlink:href="#DejaVuSans-79"/>
      <use x="516.574219" xlink:href="#DejaVuSans-20"/>
      <use x="548.361328" xlink:href="#DejaVuSans-28"/>
      <use x="587.375" xlink:href="#DejaVuSans-37"/>
      <use x="650.998047" xlink:href="#DejaVuSans-20"/>
      <use x="682.785156" xlink:href="#DejaVuSans-64"/>
      <use x="746.261719" xlink:href="#DejaVuSans-61"/>
      <use x="807.541016" xlink:href="#DejaVuSans-79"/>
      <use x="866.720703" xlink:href="#DejaVuSans-20"/>
      <use x="898.507812" xlink:href="#DejaVuSans-72"/>
      <use x="937.371094" xlink:href="#DejaVuSans-6f"/>
      <use x="998.552734" xlink:href="#DejaVuSans-6c"/>
      <use x="1026.335938" xlink:href="#DejaVuSans-6c"/>
      <use x="1054.119141" xlink:href="#DejaVuSans-69"/>
      <use x="1081.902344" xlink:href="#DejaVuSans-6e"/>
      <use x="1145.28125" xlink:href="#DejaVuSans-67"/>
      <use x="1208.757812" xlink:href="#DejaVuSans-20"/>
      <use x="1240.544922" xlink:href="#DejaVuSans-61"/>
      <use x="1301.824219" xlink:href="#DejaVuSans-76"/>
      <use x="1361.003906" xlink:href="#DejaVuSans-65"/>
      <use x="1422.527344" xlink:href="#DejaVuSans-72"/>
      <use x="1463.640625" xlink:href="#DejaVuSans-61"/>
      <use x="1524.919922" xlink:href="#DejaVuSans-67"/>
      <use x="1588.396484" xlink:href="#DejaVuSans-65"/>
      <use x="1649.919922" xlink:href="#DejaVuSans-29"/>
     </g>
    </g>
   </g>
   <g id="line2d_16">
    <path clip-path="url(#pd7530221a8)" d="M 94.508523 222.649429 
L 97.064053 228.96 
L 362.839185 228.906012 
L 367.950245 228.843873 
L 373.061305 228.897861 
L 375.616835 228.820851 
L 383.283425 228.863652 
L 480.39357 228.940973 
L 482.9491 228.692869 
L 493.17122 228.711896 
L 495.72675 228.96 
L 569.837124 228.861296 
L 574.948184 228.836155 
L 590.281364 228.712761 
L 595.392425 228.59563 
L 600.503485 228.315246 
L 618.392196 227.516266 
L 631.169846 226.758355 
L 633.725376 226.422602 
L 641.391967 226.234993 
L 643.947497 226.152804 
L 646.503027 226.385066 
L 651.614087 225.822405 
L 654.169617 225.750779 
L 659.280678 224.967586 
L 664.391738 224.56749 
L 666.947268 224.142283 
L 672.058328 224.209816 
L 674.613858 224.001593 
L 677.169388 223.253288 
L 679.724918 223.156656 
L 682.280449 222.685909 
L 687.391509 221.454608 
L 689.947039 221.752335 
L 692.502569 221.584248 
L 695.058099 220.979454 
L 700.169159 220.437805 
L 702.724689 219.299958 
L 705.28022 217.764033 
L 712.94681 215.699918 
L 715.50234 215.671272 
L 718.05787 216.01258 
L 720.6134 215.42785 
L 723.16893 214.526081 
L 725.72446 214.404672 
L 728.279991 214.038287 
L 730.835521 213.060755 
L 735.946581 213.091865 
L 738.502111 211.336109 
L 741.057641 210.108473 
L 743.613171 209.884115 
L 748.724231 206.908504 
L 751.279762 206.815542 
L 753.835292 205.54339 
L 756.390822 201.600553 
L 758.946352 198.168708 
L 761.501882 195.696613 
L 764.057412 192.224165 
L 766.612942 190.341906 
L 769.168472 189.658655 
L 771.724002 190.308992 
L 774.279533 188.076276 
L 776.835063 187.662109 
L 781.946123 186.218274 
L 784.501653 186.052063 
L 787.057183 184.813909 
L 789.612713 183.255433 
L 797.279304 173.668943 
L 799.834834 171.891108 
L 802.390364 169.264234 
L 804.945894 167.681802 
L 807.501424 166.825312 
L 810.056954 162.250204 
L 812.612484 164.349066 
L 817.723544 161.341755 
L 820.279075 159.254342 
L 822.834605 160.401463 
L 825.390135 155.35528 
L 827.945665 152.858529 
L 833.056725 150.514787 
L 835.612255 149.456409 
L 838.167785 149.267811 
L 840.723315 149.90546 
L 843.278846 149.745654 
L 845.834376 148.153973 
L 848.389906 146.869715 
L 853.500966 143.935991 
L 856.056496 142.229576 
L 858.612026 142.661648 
L 861.167556 142.084406 
L 863.723087 141.929907 
L 866.278617 141.947363 
L 868.834147 141.098739 
L 871.389677 140.736532 
L 873.945207 140.083398 
L 876.500737 138.914395 
L 879.056267 138.294093 
L 881.611797 139.333259 
L 884.167327 139.110552 
L 891.833918 140.205653 
L 896.944978 139.559452 
L 899.500508 138.798287 
L 902.056038 140.092737 
L 904.611568 138.772675 
L 907.167098 137.631055 
L 909.722629 137.248417 
L 912.278159 137.730679 
L 914.833689 136.062321 
L 917.389219 137.104297 
L 919.944749 138.463044 
L 922.500279 138.675469 
L 925.055809 138.650444 
L 927.611339 138.496345 
L 930.166869 139.303764 
L 932.7224 139.197393 
L 935.27793 139.54833 
L 940.38899 141.270913 
L 945.50005 140.600665 
L 950.61111 141.713262 
L 953.16664 141.675216 
L 955.722171 143.354543 
L 960.833231 142.900177 
L 963.388761 141.589134 
L 965.944291 141.623026 
L 968.499821 139.995516 
L 971.055351 139.147061 
L 976.166411 138.832957 
L 978.721942 138.974023 
L 981.277472 137.803572 
L 983.833002 138.189588 
L 986.388532 137.984318 
L 988.944062 137.649041 
L 991.499592 137.998026 
L 994.055122 137.942258 
L 996.610652 137.472798 
L 1001.721713 135.250971 
L 1004.277243 134.138599 
L 1006.832773 134.136085 
L 1009.388303 134.869729 
L 1011.943833 135.472214 
L 1014.499363 136.254516 
L 1017.054893 136.098432 
L 1019.610423 136.489786 
L 1022.165953 135.806138 
L 1024.721484 135.976161 
L 1027.277014 135.643994 
L 1029.832544 135.12273 
L 1032.388074 134.119893 
L 1034.943604 133.90179 
L 1037.499134 131.898381 
L 1040.054664 130.537696 
L 1042.610194 130.967404 
L 1045.165724 131.852568 
L 1047.721255 130.560238 
L 1050.276785 130.957254 
L 1052.832315 130.070881 
L 1055.387845 126.954866 
L 1057.943375 122.854538 
L 1060.498905 121.316004 
L 1063.054435 122.391029 
L 1065.609965 123.061534 
L 1068.165495 124.300603 
L 1070.721026 126.215594 
L 1073.276556 128.54637 
L 1075.832086 127.188821 
L 1078.387616 126.644698 
L 1080.943146 122.944052 
L 1083.498676 122.456826 
L 1086.054206 121.127391 
L 1088.609736 119.597053 
L 1091.165266 119.157126 
L 1093.720797 122.947028 
L 1096.276327 123.054214 
L 1098.831857 115.598231 
L 1101.387387 117.445702 
L 1103.942917 138.96195 
L 1106.498447 102.717682 
L 1106.498447 102.717682 
" style="fill:none;stroke:#947383;stroke-linecap:square;stroke-width:2;"/>
   </g>
   <g id="line2d_17">
    <path clip-path="url(#pd7530221a8)" d="M 148.174655 194.084731 
L 150.730185 195.541017 
L 155.841245 211.605929 
L 158.396776 214.761214 
L 160.952306 228.96 
L 214.618438 228.96 
L 217.173968 227.669201 
L 227.396089 227.669201 
L 229.951619 228.96 
L 232.507149 227.867786 
L 242.729269 227.867786 
L 245.284799 228.96 
L 347.506004 228.96 
L 350.061534 228.794416 
L 355.172594 228.794416 
L 357.728124 228.063932 
L 360.283654 227.961599 
L 362.839185 227.735492 
L 367.950245 227.735492 
L 370.505775 228.465976 
L 373.061305 228.568309 
L 375.616835 228.96 
L 378.172365 228.96 
L 380.727895 228.830626 
L 390.950016 228.830626 
L 393.505546 228.96 
L 434.394028 228.935477 
L 436.949558 228.617 
L 439.505088 228.641523 
L 447.171678 228.360403 
L 449.727208 228.655402 
L 452.282738 228.655402 
L 459.949329 228.936521 
L 472.726979 228.96 
L 505.948871 228.96 
L 508.504401 228.577541 
L 518.726521 228.547983 
L 521.282051 228.930442 
L 528.948642 228.96 
L 531.504172 228.13533 
L 541.726292 228.122731 
L 544.281822 228.947401 
L 572.392654 228.874648 
L 574.948184 228.734965 
L 580.059244 228.768418 
L 585.170304 228.718335 
L 590.281364 228.696506 
L 592.836895 228.545011 
L 595.392425 228.596508 
L 597.947955 228.493512 
L 610.725605 228.614448 
L 623.503256 227.634436 
L 628.614316 227.352018 
L 633.725376 226.394594 
L 638.836437 226.416358 
L 641.391967 226.145281 
L 643.947497 226.332895 
L 646.503027 226.665346 
L 651.614087 225.541643 
L 654.169617 225.605662 
L 659.280678 224.72937 
L 664.391738 224.94883 
L 666.947268 224.630851 
L 669.502798 224.562629 
L 672.058328 224.938323 
L 674.613858 225.071198 
L 677.169388 225.036078 
L 679.724918 224.814523 
L 682.280449 224.80937 
L 684.835979 224.445888 
L 687.391509 223.158168 
L 689.947039 223.378105 
L 692.502569 223.306041 
L 695.058099 222.996129 
L 697.613629 221.782399 
L 700.169159 221.918358 
L 702.724689 220.935385 
L 705.28022 221.056015 
L 707.83575 221.319638 
L 710.39128 221.281513 
L 712.94681 220.765854 
L 718.05787 217.883363 
L 720.6134 216.712245 
L 723.16893 214.977031 
L 725.72446 215.595747 
L 728.279991 214.991526 
L 730.835521 214.104047 
L 733.391051 211.768029 
L 735.946581 210.33506 
L 738.502111 207.996891 
L 741.057641 203.754229 
L 743.613171 203.12385 
L 746.168701 201.80021 
L 748.724231 200.810088 
L 751.279762 196.765025 
L 753.835292 196.629622 
L 756.390822 189.941185 
L 758.946352 181.922328 
L 761.501882 180.162764 
L 766.612942 171.766215 
L 769.168472 172.216049 
L 771.724002 174.698485 
L 774.279533 169.18254 
L 776.835063 167.244375 
L 779.390593 167.221519 
L 784.501653 164.318789 
L 787.057183 163.063563 
L 789.612713 161.975301 
L 792.168243 158.587759 
L 794.723773 154.019041 
L 797.279304 149.082661 
L 799.834834 148.379815 
L 802.390364 147.344931 
L 804.945894 148.810561 
L 807.501424 151.422737 
L 810.056954 155.604435 
L 812.612484 155.933154 
L 815.168014 155.290831 
L 817.723544 152.116024 
L 820.279075 150.54751 
L 822.834605 149.171028 
L 825.390135 149.709455 
L 827.945665 152.011851 
L 830.501195 155.428074 
L 833.056725 156.565199 
L 835.612255 158.206944 
L 838.167785 159.598709 
L 840.723315 161.223218 
L 843.278846 161.088807 
L 845.834376 161.986357 
L 848.389906 161.33393 
L 850.945436 159.494182 
L 853.500966 158.163905 
L 856.056496 159.960043 
L 858.612026 160.73144 
L 861.167556 161.980554 
L 863.723087 163.006303 
L 866.278617 164.248188 
L 871.389677 160.966037 
L 873.945207 161.217365 
L 879.056267 160.888981 
L 881.611797 160.186954 
L 884.167327 160.433703 
L 886.722858 158.450873 
L 891.833918 159.002454 
L 894.389448 159.765404 
L 896.944978 159.472639 
L 899.500508 159.951368 
L 902.056038 158.485745 
L 904.611568 155.947646 
L 907.167098 156.220648 
L 909.722629 155.267104 
L 912.278159 153.602579 
L 914.833689 154.442174 
L 917.389219 153.225832 
L 919.944749 150.875299 
L 922.500279 150.147582 
L 925.055809 151.61215 
L 927.611339 151.309659 
L 932.7224 156.142298 
L 935.27793 155.489119 
L 937.83346 153.85611 
L 940.38899 153.04057 
L 942.94452 151.893957 
L 945.50005 150.513681 
L 948.05558 152.971543 
L 950.61111 154.500525 
L 953.16664 156.327297 
L 955.722171 155.272235 
L 958.277701 155.235303 
L 963.388761 155.542974 
L 965.944291 154.491288 
L 968.499821 155.556405 
L 971.055351 156.034125 
L 976.166411 153.347336 
L 978.721942 153.983571 
L 981.277472 155.278175 
L 983.833002 155.668435 
L 986.388532 156.522499 
L 988.944062 158.09462 
L 991.499592 155.172341 
L 994.055122 153.641216 
L 996.610652 154.703451 
L 999.166182 153.980664 
L 1001.721713 153.374224 
L 1004.277243 157.572736 
L 1006.832773 159.222374 
L 1009.388303 155.557578 
L 1011.943833 155.147341 
L 1014.499363 155.16382 
L 1017.054893 152.928713 
L 1019.610423 152.303971 
L 1022.165953 155.916911 
L 1024.721484 157.588305 
L 1027.277014 155.925827 
L 1029.832544 155.100537 
L 1032.388074 155.325755 
L 1034.943604 155.23771 
L 1037.499134 155.734227 
L 1040.054664 159.104741 
L 1042.610194 160.888648 
L 1045.165724 160.36418 
L 1047.721255 157.397255 
L 1050.276785 155.416774 
L 1052.832315 154.125205 
L 1055.387845 153.725931 
L 1057.943375 155.102259 
L 1060.498905 154.456148 
L 1063.054435 150.914152 
L 1065.609965 149.545231 
L 1068.165495 149.792215 
L 1070.721026 149.567322 
L 1073.276556 151.842651 
L 1075.832086 156.768341 
L 1078.387616 158.189771 
L 1080.943146 155.375385 
L 1083.498676 151.64759 
L 1086.054206 150.619743 
L 1088.609736 148.434579 
L 1091.165266 147.150229 
L 1093.720797 148.848148 
L 1096.276327 150.083119 
L 1098.831857 150.957721 
L 1101.387387 149.474569 
L 1103.942917 147.839742 
L 1106.498447 158.051666 
L 1109.053977 155.402963 
L 1109.053977 155.402963 
" style="fill:none;stroke:#96c6ad;stroke-linecap:square;stroke-width:2;"/>
   </g>
   <g id="line2d_18">
    <path clip-path="url(#pd7530221a8)" d="M 194.174197 217.600972 
L 196.729727 228.96 
L 235.062679 228.96 
L 237.618209 226.120243 
L 247.840329 226.120243 
L 250.39586 228.96 
L 342.394944 228.96 
L 344.950474 227.824097 
L 350.061534 227.824097 
L 352.617064 224.668811 
L 355.172594 218.843669 
L 357.728124 219.494143 
L 360.283654 217.077328 
L 362.839185 202.576441 
L 365.394715 203.806468 
L 367.950245 209.63161 
L 370.505775 209.864616 
L 373.061305 212.281431 
L 375.616835 226.782318 
L 378.172365 227.806067 
L 380.727895 227.077924 
L 383.283425 227.330347 
L 385.838956 226.990256 
L 388.394486 226.990256 
L 390.950016 227.891766 
L 393.505546 228.619909 
L 396.061076 228.619909 
L 398.616606 228.96 
L 408.838727 228.96 
L 411.394257 228.749648 
L 413.949787 228.338089 
L 416.505317 227.341683 
L 419.060847 227.341683 
L 421.616377 226.594378 
L 424.171907 226.714436 
L 426.727437 227.125995 
L 429.282967 225.937973 
L 431.838498 221.569115 
L 434.394028 220.905361 
L 436.949558 220.995655 
L 439.505088 219.874698 
L 442.060618 206.156487 
L 444.616148 208.887023 
L 447.171678 210.298082 
L 449.727208 210.298082 
L 452.282738 210.86763 
L 454.838269 226.770269 
L 457.393799 228.408591 
L 459.949329 228.408591 
L 462.504859 228.022229 
L 465.060389 228.573638 
L 470.171449 228.573638 
L 472.726979 228.211886 
L 475.282509 228.598248 
L 482.9491 228.598248 
L 485.50463 228.96 
L 488.06016 228.3493 
L 490.61569 228.187028 
L 493.17122 227.051125 
L 498.28228 227.051125 
L 503.393341 220.976637 
L 505.948871 218.845563 
L 508.504401 217.542922 
L 511.059931 214.079804 
L 513.615461 209.248956 
L 516.170991 211.733075 
L 518.726521 212.928497 
L 521.282051 213.596555 
L 523.837582 215.425281 
L 526.393112 223.206526 
L 528.948642 219.577947 
L 531.504172 220.142693 
L 534.059702 216.734916 
L 536.615232 213.601833 
L 539.170762 212.823607 
L 541.726292 214.783524 
L 544.281822 211.680874 
L 546.837353 211.752751 
L 549.392883 211.983874 
L 551.948413 210.239677 
L 554.503943 206.183955 
L 557.059473 206.045834 
L 559.615003 205.23558 
L 562.170533 203.916764 
L 564.726063 204.4884 
L 567.281593 208.431885 
L 569.837124 208.861707 
L 572.392654 207.265181 
L 574.948184 207.45555 
L 577.503714 202.638076 
L 580.059244 201.529209 
L 582.614774 196.797498 
L 587.725834 186.657639 
L 590.281364 185.003009 
L 595.392425 169.295876 
L 597.947955 167.859915 
L 600.503485 171.280285 
L 603.059015 166.687295 
L 605.614545 165.146404 
L 608.170075 169.227788 
L 610.725605 170.479031 
L 613.281136 163.190029 
L 615.836666 157.811076 
L 618.392196 161.489477 
L 620.947726 162.451362 
L 623.503256 162.29833 
L 626.058786 166.153043 
L 628.614316 171.094254 
L 631.169846 168.240004 
L 633.725376 170.467106 
L 636.280907 173.679586 
L 638.836437 175.374478 
L 641.391967 178.75416 
L 643.947497 173.146938 
L 646.503027 171.340648 
L 649.058557 170.482176 
L 651.614087 165.760332 
L 654.169617 165.391697 
L 656.725147 170.640529 
L 659.280678 166.834315 
L 661.836208 167.534216 
L 664.391738 172.018695 
L 666.947268 171.324277 
L 669.502798 170.063868 
L 672.058328 174.310376 
L 674.613858 172.391374 
L 677.169388 171.346785 
L 679.724918 173.351133 
L 682.280449 174.537928 
L 684.835979 170.452906 
L 687.391509 163.456927 
L 689.947039 162.292872 
L 692.502569 158.911976 
L 695.058099 155.895588 
L 697.613629 156.354031 
L 700.169159 160.621511 
L 702.724689 156.636163 
L 705.28022 151.339129 
L 707.83575 154.712364 
L 710.39128 159.322496 
L 712.94681 161.327049 
L 718.05787 167.499457 
L 720.6134 164.265493 
L 723.16893 155.78273 
L 725.72446 153.10337 
L 728.279991 150.630845 
L 730.835521 147.703218 
L 733.391051 148.551639 
L 735.946581 156.015887 
L 738.502111 151.932473 
L 741.057641 148.537392 
L 743.613171 157.810766 
L 746.168701 158.228666 
L 748.724231 156.880765 
L 751.279762 163.813598 
L 753.835292 169.089175 
L 756.390822 157.647204 
L 758.946352 152.265829 
L 761.501882 155.114524 
L 764.057412 151.313726 
L 766.612942 148.466083 
L 769.168472 154.156333 
L 771.724002 161.990217 
L 774.279533 156.136704 
L 776.835063 159.135633 
L 779.390593 161.79821 
L 781.946123 167.199097 
L 784.501653 166.550339 
L 787.057183 172.037365 
L 789.612713 171.366645 
L 792.168243 168.327847 
L 794.723773 163.400877 
L 797.279304 167.30185 
L 799.834834 165.334947 
L 802.390364 156.321679 
L 804.945894 160.093788 
L 807.501424 154.552858 
L 810.056954 151.781226 
L 812.612484 145.309049 
L 815.168014 152.179897 
L 817.723544 154.359906 
L 820.279075 135.718567 
L 825.390135 115.694956 
L 827.945665 117.516403 
L 830.501195 115.878341 
L 833.056725 147.237644 
L 835.612255 158.227277 
L 838.167785 172.492086 
L 840.723315 177.443683 
L 843.278846 178.26401 
L 845.834376 174.740566 
L 848.389906 167.276157 
L 850.945436 172.859199 
L 853.500966 170.918909 
L 856.056496 173.982391 
L 858.612026 168.632149 
L 861.167556 175.507466 
L 863.723087 175.482082 
L 866.278617 174.919973 
L 868.834147 165.691418 
L 871.389677 172.875494 
L 873.945207 168.66811 
L 876.500737 171.09614 
L 879.056267 169.202783 
L 881.611797 177.479925 
L 884.167327 169.819159 
L 886.722858 169.379782 
L 889.278388 164.838186 
L 891.833918 153.416789 
L 894.389448 149.956987 
L 896.944978 159.611877 
L 899.500508 172.88329 
L 902.056038 179.801539 
L 904.611568 192.114139 
L 907.167098 186.927441 
L 909.722629 186.459696 
L 912.278159 176.515357 
L 914.833689 168.943108 
L 917.389219 168.285022 
L 919.944749 169.601101 
L 922.500279 164.737394 
L 925.055809 156.802021 
L 927.611339 154.238038 
L 930.166869 157.397883 
L 932.7224 162.207665 
L 935.27793 165.816169 
L 937.83346 171.796834 
L 940.38899 175.188064 
L 942.94452 177.058407 
L 945.50005 180.479084 
L 948.05558 176.42033 
L 950.61111 182.830129 
L 953.16664 187.493138 
L 955.722171 180.98362 
L 958.277701 182.544727 
L 960.833231 185.706372 
L 963.388761 183.46914 
L 965.944291 179.480706 
L 968.499821 181.198425 
L 971.055351 173.091642 
L 973.610881 159.979816 
L 976.166411 158.102134 
L 978.721942 154.183555 
L 981.277472 147.007912 
L 983.833002 141.849267 
L 986.388532 144.771126 
L 988.944062 141.563876 
L 991.499592 132.304163 
L 994.055122 130.791175 
L 996.610652 141.233266 
L 999.166182 147.791898 
L 1001.721713 148.602143 
L 1004.277243 156.259387 
L 1006.832773 160.747098 
L 1009.388303 143.338687 
L 1011.943833 130.856362 
L 1017.054893 133.055363 
L 1019.610423 131.004049 
L 1022.165953 131.164686 
L 1024.721484 136.061125 
L 1027.277014 117.823035 
L 1029.832544 100.428296 
L 1032.388074 93.85302 
L 1034.943604 95.599919 
L 1037.499134 90.572579 
L 1040.054664 94.730106 
L 1042.610194 107.489328 
L 1045.165724 115.432554 
L 1047.721255 115.703761 
L 1050.276785 126.369721 
L 1055.387845 131.330661 
L 1057.943375 127.96858 
L 1060.498905 126.914096 
L 1063.054435 127.522579 
L 1065.609965 122.279951 
L 1068.165495 131.745808 
L 1070.721026 137.210875 
L 1073.276556 141.044466 
L 1075.832086 136.563587 
L 1078.387616 150.015695 
L 1080.943146 152.474359 
L 1083.498676 162.608144 
L 1086.054206 182.823986 
L 1088.609736 199.231472 
L 1091.165266 195.305293 
L 1093.720797 170.432368 
L 1096.276327 170.492152 
L 1096.276327 170.492152 
" style="fill:none;stroke:#525886;stroke-linecap:square;stroke-width:2;"/>
   </g>
   <g id="line2d_19">
    <path clip-path="url(#pd7530221a8)" d="M 424.171907 214.761214 
L 426.727437 228.96 
L 477.83804 228.96 
L 480.39357 210.028286 
L 490.61569 210.028286 
L 493.17122 228.96 
L 531.504172 228.96 
L 536.615232 191.096572 
L 544.281822 191.096572 
L 549.392883 228.96 
L 582.614774 228.96 
L 585.170304 210.028286 
L 592.836895 210.028286 
L 595.392425 201.914694 
L 597.947955 220.846408 
L 600.503485 212.732816 
L 605.614545 212.732816 
L 608.170075 220.846408 
L 610.725605 220.846408 
L 613.281136 228.96 
L 615.836666 214.761214 
L 618.392196 214.761214 
L 620.947726 204.243595 
L 623.503256 194.777738 
L 626.058786 184.451349 
L 628.614316 198.650134 
L 631.169846 196.691681 
L 633.725376 204.50477 
L 636.280907 210.72519 
L 638.836437 218.582225 
L 641.391967 214.32259 
L 643.947497 207.761772 
L 646.503027 209.046424 
L 649.058557 209.925396 
L 651.614087 207.661822 
L 654.169617 209.128254 
L 656.725147 215.594688 
L 659.280678 213.519481 
L 661.836208 211.647502 
L 664.391738 215.46438 
L 666.947268 216.425482 
L 669.502798 218.478319 
L 672.058328 216.714595 
L 674.613858 220.953038 
L 677.169388 220.710005 
L 679.724918 218.99241 
L 682.280449 218.99241 
L 684.835979 224.251219 
L 687.391509 224.251219 
L 689.947039 222.570546 
L 692.502569 223.650889 
L 700.169159 214.760877 
L 702.724689 217.600634 
L 705.28022 212.325196 
L 707.83575 208.894116 
L 710.39128 207.514477 
L 712.94681 205.859863 
L 715.50234 183.018338 
L 718.05787 186.279303 
L 720.6134 184.378155 
L 723.16893 188.747012 
L 725.72446 187.451229 
L 728.279991 202.313271 
L 730.835521 204.349032 
L 733.391051 199.974454 
L 735.946581 189.407915 
L 738.502111 183.138322 
L 741.057641 183.767845 
L 743.613171 179.116519 
L 746.168701 183.218805 
L 748.724231 189.600438 
L 751.279762 194.243758 
L 753.835292 197.075923 
L 756.390822 199.193285 
L 758.946352 207.748202 
L 761.501882 201.730387 
L 764.057412 204.652443 
L 766.612942 202.408912 
L 769.168472 200.490597 
L 771.724002 189.987386 
L 774.279533 187.236828 
L 776.835063 178.968274 
L 779.390593 179.775271 
L 781.946123 179.2897 
L 784.501653 182.87872 
L 787.057183 186.784984 
L 789.612713 192.77429 
L 792.168243 188.012555 
L 794.723773 179.622042 
L 797.279304 174.971612 
L 799.834834 179.382287 
L 802.390364 173.260026 
L 804.945894 174.824267 
L 807.501424 184.133921 
L 810.056954 187.656753 
L 812.612484 183.093878 
L 815.168014 180.323971 
L 817.723544 182.239348 
L 820.279075 179.702014 
L 822.834605 182.375109 
L 825.390135 184.272089 
L 827.945665 194.333283 
L 830.501195 190.770654 
L 833.056725 193.439048 
L 835.612255 193.14999 
L 838.167785 191.375373 
L 840.723315 185.85993 
L 843.278846 183.253941 
L 845.834376 183.91014 
L 848.389906 178.411705 
L 850.945436 179.662452 
L 853.500966 186.539496 
L 856.056496 181.181879 
L 858.612026 172.321837 
L 861.167556 174.317519 
L 863.723087 175.168779 
L 866.278617 156.497356 
L 868.834147 162.69062 
L 871.389677 161.546162 
L 873.945207 147.320434 
L 876.500737 139.063852 
L 879.056267 140.409043 
L 881.611797 140.951253 
L 884.167327 149.227205 
L 886.722858 166.172754 
L 889.278388 176.967058 
L 891.833918 195.124745 
L 894.389448 202.151122 
L 896.944978 203.625363 
L 899.500508 201.651954 
L 902.056038 198.681012 
L 907.167098 192.363822 
L 909.722629 189.662124 
L 912.278159 192.63011 
L 914.833689 188.751958 
L 917.389219 192.092849 
L 919.944749 197.181259 
L 922.500279 200.796213 
L 925.055809 199.782211 
L 927.611339 201.923445 
L 930.166869 199.000166 
L 932.7224 193.956582 
L 935.27793 187.020274 
L 937.83346 190.038256 
L 940.38899 191.48841 
L 942.94452 190.471152 
L 945.50005 185.258509 
L 948.05558 188.529065 
L 950.61111 188.780457 
L 953.16664 193.405275 
L 955.722171 188.065561 
L 958.277701 197.959122 
L 960.833231 201.697376 
L 963.388761 199.255538 
L 965.944291 193.332982 
L 968.499821 201.455499 
L 971.055351 195.191441 
L 973.610881 188.388784 
L 976.166411 188.018621 
L 978.721942 193.594936 
L 981.277472 190.710193 
L 983.833002 192.135787 
L 986.388532 198.87517 
L 988.944062 196.764317 
L 991.499592 181.248852 
L 994.055122 178.839955 
L 996.610652 178.624462 
L 999.166182 172.864305 
L 1004.277243 181.797058 
L 1006.832773 183.475732 
L 1009.388303 178.855791 
L 1011.943833 189.627283 
L 1014.499363 187.590572 
L 1017.054893 197.609818 
L 1019.610423 189.749776 
L 1022.165953 178.515572 
L 1024.721484 164.316786 
L 1027.277014 169.903194 
L 1029.832544 171.865208 
L 1032.388074 172.488803 
L 1034.943604 185.47055 
L 1037.499134 199.669336 
L 1040.054664 199.669336 
L 1042.610194 202.250933 
L 1045.165724 175.004615 
L 1047.721255 161.515768 
L 1050.276785 149.558896 
L 1052.832315 140.093039 
L 1055.387845 110.025023 
L 1057.943375 136.394196 
L 1060.498905 161.242071 
L 1063.054435 154.267229 
L 1065.609965 155.619494 
L 1068.165495 159.474368 
L 1070.721026 166.235694 
L 1073.276556 161.866837 
L 1075.832086 180.798551 
L 1078.387616 188.912143 
L 1080.943146 186.727715 
L 1083.498676 196.193572 
L 1086.054206 191.096572 
L 1088.609736 176.897786 
L 1088.609736 176.897786 
" style="fill:none;stroke:#937252;stroke-linecap:square;stroke-width:2;"/>
   </g>
   <g id="line2d_20">
    <path clip-path="url(#pd7530221a8)" d="M 398.616606 219.494143 
L 401.172136 228.96 
L 442.060618 228.96 
L 444.616148 223.796805 
L 454.838269 223.796805 
L 457.393799 228.96 
L 592.836895 228.96 
L 595.392425 227.465391 
L 605.614545 227.465391 
L 608.170075 228.96 
L 610.725605 227.289555 
L 615.836666 227.289555 
L 618.392196 226.579615 
L 620.947726 226.579615 
L 623.503256 228.250061 
L 626.058786 227.362637 
L 628.614316 227.362637 
L 631.169846 227.156525 
L 633.725376 227.156525 
L 636.280907 226.934235 
L 638.836437 227.821659 
L 641.391967 227.821659 
L 643.947497 228.438788 
L 646.503027 228.438788 
L 649.058557 228.661078 
L 654.169617 228.661078 
L 656.725147 228.96 
L 669.502798 228.96 
L 672.058328 228.568984 
L 682.280449 228.568984 
L 684.835979 227.551856 
L 695.058099 227.551856 
L 697.613629 228.96 
L 700.169159 228.96 
L 702.724689 228.434119 
L 712.94681 228.329331 
L 715.50234 228.855212 
L 733.391051 228.788826 
L 735.946581 228.677025 
L 738.502111 228.765767 
L 743.613171 228.498679 
L 748.724231 228.419595 
L 751.279762 227.855871 
L 756.390822 228.066528 
L 758.946352 227.776398 
L 761.501882 227.754239 
L 764.057412 228.122791 
L 766.612942 227.722033 
L 769.168472 226.542895 
L 771.724002 226.916547 
L 774.279533 226.669942 
L 779.390593 227.124956 
L 781.946123 228.118185 
L 784.501653 227.721017 
L 787.057183 227.640346 
L 789.612713 225.597355 
L 792.168243 222.887916 
L 794.723773 222.208045 
L 797.279304 220.489317 
L 799.834834 219.753217 
L 802.390364 220.140976 
L 804.945894 222.258339 
L 807.501424 221.52103 
L 810.056954 220.296037 
L 812.612484 221.263556 
L 815.168014 221.506266 
L 817.723544 220.61579 
L 820.279075 217.698449 
L 822.834605 215.957669 
L 825.390135 213.108665 
L 827.945665 210.931903 
L 830.501195 209.787397 
L 833.056725 212.150414 
L 835.612255 213.450685 
L 838.167785 211.163604 
L 840.723315 210.576775 
L 843.278846 210.266459 
L 845.834376 209.727899 
L 848.389906 210.546074 
L 850.945436 213.158497 
L 853.500966 214.082375 
L 856.056496 213.024625 
L 858.612026 211.772953 
L 861.167556 208.569848 
L 863.723087 203.923686 
L 866.278617 201.440907 
L 868.834147 199.418197 
L 871.389677 197.557248 
L 873.945207 196.509059 
L 876.500737 197.394788 
L 879.056267 194.463877 
L 881.611797 192.579139 
L 884.167327 193.962138 
L 886.722858 195.778533 
L 889.278388 193.998984 
L 891.833918 194.564932 
L 894.389448 192.900139 
L 896.944978 187.236378 
L 899.500508 179.66277 
L 904.611568 163.522966 
L 907.167098 156.331567 
L 909.722629 149.941504 
L 912.278159 141.377529 
L 914.833689 140.490443 
L 917.389219 143.204709 
L 919.944749 141.598382 
L 922.500279 141.107923 
L 925.055809 145.743049 
L 927.611339 146.280056 
L 930.166869 141.678116 
L 932.7224 138.971429 
L 935.27793 139.040331 
L 937.83346 132.002461 
L 942.94452 123.091198 
L 945.50005 125.062422 
L 948.05558 120.607187 
L 950.61111 124.755443 
L 953.16664 128.135262 
L 955.722171 125.113093 
L 958.277701 119.294662 
L 960.833231 117.375806 
L 963.388761 114.826577 
L 965.944291 109.794805 
L 968.499821 111.143073 
L 971.055351 109.682893 
L 973.610881 106.775802 
L 976.166411 104.606118 
L 978.721942 105.378414 
L 981.277472 99.725142 
L 983.833002 98.883281 
L 986.388532 102.095658 
L 988.944062 108.259432 
L 991.499592 107.283507 
L 994.055122 114.193066 
L 996.610652 120.075075 
L 999.166182 122.298444 
L 1001.721713 117.964489 
L 1004.277243 113.400828 
L 1009.388303 117.753091 
L 1011.943833 118.04994 
L 1014.499363 120.803487 
L 1017.054893 132.708863 
L 1019.610423 138.179895 
L 1022.165953 141.346017 
L 1024.721484 142.31512 
L 1027.277014 142.063641 
L 1029.832544 134.089082 
L 1032.388074 127.036603 
L 1034.943604 120.598587 
L 1037.499134 119.18272 
L 1040.054664 121.275917 
L 1042.610194 125.326958 
L 1045.165724 134.741439 
L 1047.721255 131.512476 
L 1050.276785 135.748894 
L 1052.832315 130.641569 
L 1055.387845 137.735761 
L 1057.943375 140.321031 
L 1060.498905 157.604384 
L 1063.054435 161.405015 
L 1065.609965 172.808694 
L 1068.165495 178.302863 
L 1070.721026 179.555103 
L 1073.276556 182.722465 
L 1075.832086 189.271171 
L 1078.387616 189.22652 
L 1083.498676 202.954339 
L 1086.054206 194.251857 
L 1088.609736 200.562429 
L 1091.165266 183.997179 
L 1093.720797 165.065465 
L 1093.720797 165.065465 
" style="fill:none;stroke:#d18cad;stroke-linecap:square;stroke-width:2;"/>
   </g>
   <g id="line2d_21">
    <path clip-path="url(#pd7530221a8)" d="M 419.060847 228.941458 
L 434.394028 228.96 
L 564.726063 228.928896 
L 572.392654 228.697863 
L 574.948184 228.652113 
L 577.503714 228.415631 
L 580.059244 228.383452 
L 582.614774 228.200842 
L 587.725834 227.191501 
L 590.281364 226.875502 
L 592.836895 226.856382 
L 595.392425 226.656828 
L 600.503485 226.626054 
L 603.059015 226.624887 
L 605.614545 225.88226 
L 608.170075 224.817559 
L 610.725605 224.012598 
L 613.281136 221.97692 
L 615.836666 221.421289 
L 618.392196 219.956352 
L 620.947726 218.951591 
L 623.503256 218.527476 
L 626.058786 219.038143 
L 628.614316 218.05717 
L 631.169846 217.816266 
L 633.725376 216.318696 
L 636.280907 216.345279 
L 638.836437 216.134746 
L 641.391967 215.11734 
L 643.947497 214.849464 
L 646.503027 215.735898 
L 649.058557 214.804511 
L 651.614087 212.339987 
L 654.169617 212.035924 
L 659.280678 211.834749 
L 661.836208 211.451507 
L 664.391738 213.105194 
L 666.947268 213.171839 
L 669.502798 212.627653 
L 672.058328 211.958841 
L 674.613858 211.029137 
L 677.169388 208.27856 
L 679.724918 207.106526 
L 682.280449 206.180997 
L 684.835979 205.913059 
L 687.391509 206.723959 
L 689.947039 207.059231 
L 692.502569 205.845117 
L 695.058099 205.357914 
L 697.613629 204.616645 
L 700.169159 202.201302 
L 702.724689 203.40549 
L 705.28022 203.960326 
L 707.83575 204.310126 
L 710.39128 204.193303 
L 712.94681 204.872605 
L 715.50234 203.936529 
L 718.05787 203.610725 
L 720.6134 201.97683 
L 723.16893 201.752462 
L 725.72446 201.655944 
L 728.279991 200.730507 
L 730.835521 199.374151 
L 733.391051 199.70551 
L 735.946581 199.399357 
L 738.502111 199.582239 
L 741.057641 200.712629 
L 743.613171 202.28488 
L 746.168701 201.922941 
L 748.724231 200.600921 
L 751.279762 198.55855 
L 753.835292 197.718653 
L 756.390822 197.199922 
L 758.946352 198.623559 
L 761.501882 200.599365 
L 764.057412 202.297268 
L 766.612942 203.003433 
L 769.168472 203.964728 
L 771.724002 202.608503 
L 774.279533 202.844787 
L 776.835063 203.862601 
L 779.390593 203.470062 
L 781.946123 203.462213 
L 784.501653 204.530788 
L 787.057183 204.075828 
L 789.612713 201.846982 
L 792.168243 201.805231 
L 794.723773 201.150312 
L 797.279304 200.023008 
L 799.834834 200.40913 
L 802.390364 201.982268 
L 804.945894 201.244836 
L 807.501424 200.625119 
L 810.056954 200.734993 
L 812.612484 200.260341 
L 815.168014 199.915804 
L 817.723544 200.85464 
L 820.279075 201.432637 
L 822.834605 202.474925 
L 825.390135 202.055728 
L 827.945665 200.647217 
L 830.501195 199.712126 
L 833.056725 197.970469 
L 835.612255 194.8476 
L 840.723315 193.855028 
L 843.278846 194.214837 
L 845.834376 195.059062 
L 848.389906 197.293981 
L 850.945436 198.435929 
L 853.500966 200.703263 
L 856.056496 200.47281 
L 858.612026 201.992585 
L 861.167556 203.345056 
L 863.723087 203.495698 
L 866.278617 203.4372 
L 868.834147 204.086747 
L 871.389677 204.260057 
L 873.945207 204.179167 
L 876.500737 204.83689 
L 879.056267 204.736084 
L 881.611797 205.250914 
L 884.167327 204.896518 
L 886.722858 205.450568 
L 889.278388 205.027786 
L 891.833918 205.199121 
L 894.389448 205.143229 
L 896.944978 204.759216 
L 899.500508 203.447526 
L 902.056038 202.857601 
L 904.611568 202.805236 
L 907.167098 203.220783 
L 909.722629 203.958759 
L 912.278159 204.852106 
L 914.833689 204.894458 
L 917.389219 205.108598 
L 919.944749 204.660196 
L 922.500279 203.980841 
L 925.055809 203.099443 
L 927.611339 202.686575 
L 930.166869 201.978458 
L 932.7224 202.040252 
L 937.83346 203.008435 
L 942.94452 204.688474 
L 945.50005 204.901591 
L 950.61111 204.851376 
L 953.16664 204.737387 
L 958.277701 205.108057 
L 960.833231 205.244314 
L 963.388761 205.62307 
L 965.944291 205.770613 
L 968.499821 204.990597 
L 973.610881 205.024249 
L 976.166411 204.715844 
L 978.721942 205.08044 
L 981.277472 205.897029 
L 986.388532 205.242803 
L 988.944062 205.001198 
L 994.055122 203.216911 
L 996.610652 202.985751 
L 999.166182 203.355702 
L 1001.721713 202.973742 
L 1004.277243 203.057174 
L 1006.832773 202.701712 
L 1009.388303 202.025672 
L 1011.943833 201.209784 
L 1014.499363 201.951522 
L 1019.610423 202.093746 
L 1022.165953 202.765447 
L 1024.721484 202.388597 
L 1027.277014 201.236458 
L 1029.832544 201.031091 
L 1032.388074 201.399648 
L 1034.943604 201.653207 
L 1037.499134 202.528278 
L 1040.054664 202.558355 
L 1042.610194 202.095079 
L 1045.165724 201.998887 
L 1052.832315 200.614012 
L 1057.943375 200.631216 
L 1060.498905 201.22746 
L 1063.054435 200.940552 
L 1065.609965 202.078502 
L 1068.165495 202.860052 
L 1070.721026 202.815544 
L 1073.276556 202.267964 
L 1075.832086 203.063203 
L 1078.387616 203.085792 
L 1080.943146 202.347071 
L 1083.498676 201.171269 
L 1086.054206 201.029243 
L 1088.609736 200.553278 
L 1091.165266 199.67807 
L 1093.720797 199.758705 
L 1093.720797 199.758705 
" style="fill:none;stroke:#a4a86f;stroke-linecap:square;stroke-width:2;"/>
   </g>
   <g id="line2d_22">
    <path clip-path="url(#pd7530221a8)" d="M 546.837353 223.280486 
L 549.392883 228.96 
L 564.726063 228.96 
L 567.281593 222.649429 
L 574.948184 222.649429 
L 577.503714 218.280572 
L 580.059244 210.392357 
L 585.170304 210.392357 
L 587.725834 203.292964 
L 590.281364 207.661822 
L 592.836895 202.928893 
L 597.947955 202.928893 
L 600.503485 198.669257 
L 603.059015 185.76127 
L 605.614545 193.333956 
L 608.170075 183.311284 
L 610.725605 171.952255 
L 613.281136 171.478963 
L 615.836666 155.989378 
L 618.392196 167.348407 
L 620.947726 156.27574 
L 623.503256 142.392483 
L 626.058786 145.48709 
L 628.614316 157.657478 
L 631.169846 136.3593 
L 633.725376 121.105747 
L 636.280907 122.319319 
L 638.836437 102.659462 
L 641.391967 86.432278 
L 643.947497 102.997528 
L 646.503027 134.183224 
L 649.058557 149.474224 
L 654.169617 157.587816 
L 656.725147 138.934509 
L 659.280678 123.444925 
L 661.836208 95.671476 
L 664.391738 86.881752 
L 666.947268 67.950038 
L 669.502798 34.541131 
L 672.058328 36.262195 
L 674.613858 60.152216 
L 677.169388 93.282715 
L 682.280449 187.941286 
L 684.835979 187.941286 
L 687.391509 172.164858 
L 689.947039 136.667894 
L 692.502569 125.308865 
L 697.613629 87.445437 
L 700.169159 101.644222 
L 702.724689 90.672434 
L 705.28022 76.215488 
L 707.83575 95.147202 
L 710.39128 130.429033 
L 712.94681 129.482448 
L 715.50234 175.9512 
L 718.05787 188.660603 
L 720.6134 198.12646 
L 723.16893 200.708057 
L 725.72446 190.611143 
L 728.279991 173.5726 
L 730.835521 181.515977 
L 733.391051 162.584263 
L 735.946581 141.659737 
L 738.502111 151.756651 
L 741.057641 143.552908 
L 743.613171 108.48621 
L 746.168701 101.204782 
L 748.724231 86.97041 
L 751.279762 73.71821 
L 753.835292 64.009639 
L 756.390822 67.728369 
L 758.946352 54.184912 
L 764.057412 75.652123 
L 766.612942 63.017861 
L 769.168472 56.502401 
L 771.724002 43.013554 
L 774.279533 22.729575 
L 776.835063 17.76 
L 779.390593 36.947548 
L 781.946123 76.424475 
L 784.501653 127.200567 
L 787.057183 171.825321 
L 789.612713 181.179815 
L 792.168243 199.010849 
L 794.723773 181.070491 
L 797.279304 179.056018 
L 799.834834 177.28117 
L 802.390364 185.103743 
L 804.945894 187.969245 
L 807.501424 202.130894 
L 810.056954 203.625503 
L 812.612484 189.691056 
L 815.168014 160.523903 
L 817.723544 149.293225 
L 820.279075 136.69351 
L 822.834605 133.807369 
L 825.390135 143.206092 
L 827.945665 176.506091 
L 830.501195 194.450063 
L 833.056725 213.821368 
L 835.612255 217.992874 
L 838.167785 221.692174 
L 840.723315 220.981096 
L 843.278846 221.030075 
L 845.834376 219.848264 
L 848.389906 218.002421 
L 850.945436 220.072786 
L 853.500966 220.072786 
L 856.056496 219.790148 
L 858.612026 220.25248 
L 861.167556 222.580775 
L 863.723087 222.745554 
L 866.278617 224.864776 
L 868.834147 225.333923 
L 871.389677 221.852511 
L 873.945207 222.692736 
L 876.500737 223.068863 
L 879.056267 222.512048 
L 881.611797 222.653601 
L 884.167327 226.509799 
L 886.722858 226.890974 
L 889.278388 226.650317 
L 891.833918 226.671329 
L 894.389448 226.458911 
L 896.944978 224.993957 
L 899.500508 222.6639 
L 902.056038 222.35845 
L 904.611568 222.894253 
L 907.167098 222.558287 
L 912.278159 226.664761 
L 914.833689 227.210868 
L 917.389219 226.264282 
L 919.944749 227.136522 
L 922.500279 226.78659 
L 925.055809 223.900476 
L 930.166869 221.364632 
L 932.7224 220.350824 
L 935.27793 220.784986 
L 937.83346 223.306869 
L 940.38899 224.076665 
L 942.94452 225.49834 
L 945.50005 226.474449 
L 948.05558 226.711095 
L 953.16664 227.641156 
L 955.722171 228.42274 
L 958.277701 228.479382 
L 960.833231 228.19682 
L 963.388761 228.226914 
L 965.944291 228.005922 
L 968.499821 227.372519 
L 971.055351 227.43758 
L 976.166411 227.902764 
L 978.721942 227.499635 
L 981.277472 228.133038 
L 988.944062 227.896988 
L 991.499592 228.521111 
L 994.055122 228.272009 
L 996.610652 227.696143 
L 999.166182 226.74318 
L 1001.721713 224.343385 
L 1004.277243 224.343385 
L 1006.832773 218.61405 
L 1009.388303 219.478951 
L 1011.943833 219.229504 
L 1014.499363 221.072484 
L 1017.054893 220.278146 
L 1019.610423 225.912369 
L 1022.165953 223.782551 
L 1024.721484 225.134816 
L 1027.277014 224.599417 
L 1029.832544 225.393755 
L 1032.388074 224.645754 
L 1034.943604 226.775571 
L 1037.499134 226.38921 
L 1040.054664 227.481424 
L 1042.610194 221.80191 
L 1045.165724 222.358321 
L 1047.721255 221.690143 
L 1050.276785 222.076504 
L 1052.832315 221.818345 
L 1055.387845 227.497859 
L 1057.943375 227.606631 
L 1063.054435 226.882707 
L 1065.609965 227.140867 
L 1073.276556 227.218508 
L 1075.832086 227.577971 
L 1078.387616 226.901838 
L 1080.943146 226.901838 
L 1083.498676 226.687302 
L 1086.054206 227.208504 
L 1088.609736 227.208504 
L 1091.165266 227.327821 
L 1093.720797 227.327821 
L 1096.276327 227.94516 
L 1098.831857 171.608042 
L 1098.831857 171.608042 
" style="fill:none;stroke:#d3d3d3;stroke-linecap:square;stroke-width:2;"/>
   </g>
   <g id="patch_3">
    <path d="M 43.78125 228.96 
L 43.78125 7.2 
" style="fill:none;stroke:#000000;stroke-linecap:square;stroke-linejoin:miter;stroke-width:0.8;"/>
   </g>
   <g id="patch_4">
    <path d="M 43.78125 228.96 
L 1159.78125 228.96 
" style="fill:none;stroke:#000000;stroke-linecap:square;stroke-linejoin:miter;stroke-width:0.8;"/>
   </g>
   <g id="legend_1">
    <g id="line2d_23">
     <path d="M 1065.97 17.67875 
L 1081.97 17.67875 
" style="fill:none;stroke:#947383;stroke-linecap:square;stroke-width:2;"/>
    </g>
    <g id="line2d_24"/>
    <g id="text_18">
     <!-- North America -->
     <g transform="translate(1088.37 20.47875)scale(0.08 -0.08)">
      <defs>
       <path d="M 628 4666 
L 1478 4666 
L 3547 763 
L 3547 4666 
L 4159 4666 
L 4159 0 
L 3309 0 
L 1241 3903 
L 1241 0 
L 628 0 
L 628 4666 
z
" id="DejaVuSans-4e" transform="scale(0.015625)"/>
       <path d="M 3513 2113 
L 3513 0 
L 2938 0 
L 2938 2094 
Q 2938 2591 2744 2837 
Q 2550 3084 2163 3084 
Q 1697 3084 1428 2787 
Q 1159 2491 1159 1978 
L 1159 0 
L 581 0 
L 581 4863 
L 1159 4863 
L 1159 2956 
Q 1366 3272 1645 3428 
Q 1925 3584 2291 3584 
Q 2894 3584 3203 3211 
Q 3513 2838 3513 2113 
z
" id="DejaVuSans-68" transform="scale(0.015625)"/>
       <path d="M 2188 4044 
L 1331 1722 
L 3047 1722 
L 2188 4044 
z
M 1831 4666 
L 2547 4666 
L 4325 0 
L 3669 0 
L 3244 1197 
L 1141 1197 
L 716 0 
L 50 0 
L 1831 4666 
z
" id="DejaVuSans-41" transform="scale(0.015625)"/>
       <path d="M 3328 2828 
Q 3544 3216 3844 3400 
Q 4144 3584 4550 3584 
Q 5097 3584 5394 3201 
Q 5691 2819 5691 2113 
L 5691 0 
L 5113 0 
L 5113 2094 
Q 5113 2597 4934 2840 
Q 4756 3084 4391 3084 
Q 3944 3084 3684 2787 
Q 3425 2491 3425 1978 
L 3425 0 
L 2847 0 
L 2847 2094 
Q 2847 2600 2669 2842 
Q 2491 3084 2119 3084 
Q 1678 3084 1418 2786 
Q 1159 2488 1159 1978 
L 1159 0 
L 581 0 
L 581 3500 
L 1159 3500 
L 1159 2956 
Q 1356 3278 1631 3431 
Q 1906 3584 2284 3584 
Q 2666 3584 2933 3390 
Q 3200 3197 3328 2828 
z
" id="DejaVuSans-6d" transform="scale(0.015625)"/>
      </defs>
      <use xlink:href="#DejaVuSans-4e"/>
      <use x="74.804688" xlink:href="#DejaVuSans-6f"/>
      <use x="135.986328" xlink:href="#DejaVuSans-72"/>
      <use x="177.099609" xlink:href="#DejaVuSans-74"/>
      <use x="216.308594" xlink:href="#DejaVuSans-68"/>
      <use x="279.6875" xlink:href="#DejaVuSans-20"/>
      <use x="311.474609" xlink:href="#DejaVuSans-41"/>
      <use x="379.882812" xlink:href="#DejaVuSans-6d"/>
      <use x="477.294922" xlink:href="#DejaVuSans-65"/>
      <use x="538.818359" xlink:href="#DejaVuSans-72"/>
      <use x="579.931641" xlink:href="#DejaVuSans-69"/>
      <use x="607.714844" xlink:href="#DejaVuSans-63"/>
      <use x="662.695312" xlink:href="#DejaVuSans-61"/>
     </g>
    </g>
    <g id="line2d_25">
     <path d="M 1065.97 29.42125 
L 1081.97 29.42125 
" style="fill:none;stroke:#96c6ad;stroke-linecap:square;stroke-width:2;"/>
    </g>
    <g id="line2d_26"/>
    <g id="text_19">
     <!-- Europe -->
     <g transform="translate(1088.37 32.22125)scale(0.08 -0.08)">
      <defs>
       <path d="M 628 4666 
L 3578 4666 
L 3578 4134 
L 1259 4134 
L 1259 2753 
L 3481 2753 
L 3481 2222 
L 1259 2222 
L 1259 531 
L 3634 531 
L 3634 0 
L 628 0 
L 628 4666 
z
" id="DejaVuSans-45" transform="scale(0.015625)"/>
       <path d="M 1159 525 
L 1159 -1331 
L 581 -1331 
L 581 3500 
L 1159 3500 
L 1159 2969 
Q 1341 3281 1617 3432 
Q 1894 3584 2278 3584 
Q 2916 3584 3314 3078 
Q 3713 2572 3713 1747 
Q 3713 922 3314 415 
Q 2916 -91 2278 -91 
Q 1894 -91 1617 61 
Q 1341 213 1159 525 
z
M 3116 1747 
Q 3116 2381 2855 2742 
Q 2594 3103 2138 3103 
Q 1681 3103 1420 2742 
Q 1159 2381 1159 1747 
Q 1159 1113 1420 752 
Q 1681 391 2138 391 
Q 2594 391 2855 752 
Q 3116 1113 3116 1747 
z
" id="DejaVuSans-70" transform="scale(0.015625)"/>
      </defs>
      <use xlink:href="#DejaVuSans-45"/>
      <use x="63.183594" xlink:href="#DejaVuSans-75"/>
      <use x="126.5625" xlink:href="#DejaVuSans-72"/>
      <use x="165.425781" xlink:href="#DejaVuSans-6f"/>
      <use x="226.607422" xlink:href="#DejaVuSans-70"/>
      <use x="290.083984" xlink:href="#DejaVuSans-65"/>
     </g>
    </g>
    <g id="line2d_27">
     <path d="M 1065.97 41.16375 
L 1081.97 41.16375 
" style="fill:none;stroke:#525886;stroke-linecap:square;stroke-width:2;"/>
    </g>
    <g id="line2d_28"/>
    <g id="text_20">
     <!-- Asia -->
     <g transform="translate(1088.37 43.96375)scale(0.08 -0.08)">
      <defs>
       <path d="M 2834 3397 
L 2834 2853 
Q 2591 2978 2328 3040 
Q 2066 3103 1784 3103 
Q 1356 3103 1142 2972 
Q 928 2841 928 2578 
Q 928 2378 1081 2264 
Q 1234 2150 1697 2047 
L 1894 2003 
Q 2506 1872 2764 1633 
Q 3022 1394 3022 966 
Q 3022 478 2636 193 
Q 2250 -91 1575 -91 
Q 1294 -91 989 -36 
Q 684 19 347 128 
L 347 722 
Q 666 556 975 473 
Q 1284 391 1588 391 
Q 1994 391 2212 530 
Q 2431 669 2431 922 
Q 2431 1156 2273 1281 
Q 2116 1406 1581 1522 
L 1381 1569 
Q 847 1681 609 1914 
Q 372 2147 372 2553 
Q 372 3047 722 3315 
Q 1072 3584 1716 3584 
Q 2034 3584 2315 3537 
Q 2597 3491 2834 3397 
z
" id="DejaVuSans-73" transform="scale(0.015625)"/>
      </defs>
      <use xlink:href="#DejaVuSans-41"/>
      <use x="68.408203" xlink:href="#DejaVuSans-73"/>
      <use x="120.507812" xlink:href="#DejaVuSans-69"/>
      <use x="148.291016" xlink:href="#DejaVuSans-61"/>
     </g>
    </g>
    <g id="line2d_29">
     <path d="M 1065.97 52.90625 
L 1081.97 52.90625 
" style="fill:none;stroke:#937252;stroke-linecap:square;stroke-width:2;"/>
    </g>
    <g id="line2d_30"/>
    <g id="text_21">
     <!-- Africa -->
     <g transform="translate(1088.37 55.70625)scale(0.08 -0.08)">
      <defs>
       <path d="M 2375 4863 
L 2375 4384 
L 1825 4384 
Q 1516 4384 1395 4259 
Q 1275 4134 1275 3809 
L 1275 3500 
L 2222 3500 
L 2222 3053 
L 1275 3053 
L 1275 0 
L 697 0 
L 697 3053 
L 147 3053 
L 147 3500 
L 697 3500 
L 697 3744 
Q 697 4328 969 4595 
Q 1241 4863 1831 4863 
L 2375 4863 
z
" id="DejaVuSans-66" transform="scale(0.015625)"/>
      </defs>
      <use xlink:href="#DejaVuSans-41"/>
      <use x="64.783203" xlink:href="#DejaVuSans-66"/>
      <use x="99.988281" xlink:href="#DejaVuSans-72"/>
      <use x="141.101562" xlink:href="#DejaVuSans-69"/>
      <use x="168.884766" xlink:href="#DejaVuSans-63"/>
      <use x="223.865234" xlink:href="#DejaVuSans-61"/>
     </g>
    </g>
    <g id="line2d_31">
     <path d="M 1065.97 64.64875 
L 1081.97 64.64875 
" style="fill:none;stroke:#d18cad;stroke-linecap:square;stroke-width:2;"/>
    </g>
    <g id="line2d_32"/>
    <g id="text_22">
     <!-- South America -->
     <g transform="translate(1088.37 67.44875)scale(0.08 -0.08)">
      <defs>
       <path d="M 3425 4513 
L 3425 3897 
Q 3066 4069 2747 4153 
Q 2428 4238 2131 4238 
Q 1616 4238 1336 4038 
Q 1056 3838 1056 3469 
Q 1056 3159 1242 3001 
Q 1428 2844 1947 2747 
L 2328 2669 
Q 3034 2534 3370 2195 
Q 3706 1856 3706 1288 
Q 3706 609 3251 259 
Q 2797 -91 1919 -91 
Q 1588 -91 1214 -16 
Q 841 59 441 206 
L 441 856 
Q 825 641 1194 531 
Q 1563 422 1919 422 
Q 2459 422 2753 634 
Q 3047 847 3047 1241 
Q 3047 1584 2836 1778 
Q 2625 1972 2144 2069 
L 1759 2144 
Q 1053 2284 737 2584 
Q 422 2884 422 3419 
Q 422 4038 858 4394 
Q 1294 4750 2059 4750 
Q 2388 4750 2728 4690 
Q 3069 4631 3425 4513 
z
" id="DejaVuSans-53" transform="scale(0.015625)"/>
      </defs>
      <use xlink:href="#DejaVuSans-53"/>
      <use x="63.476562" xlink:href="#DejaVuSans-6f"/>
      <use x="124.658203" xlink:href="#DejaVuSans-75"/>
      <use x="188.037109" xlink:href="#DejaVuSans-74"/>
      <use x="227.246094" xlink:href="#DejaVuSans-68"/>
      <use x="290.625" xlink:href="#DejaVuSans-20"/>
      <use x="322.412109" xlink:href="#DejaVuSans-41"/>
      <use x="390.820312" xlink:href="#DejaVuSans-6d"/>
      <use x="488.232422" xlink:href="#DejaVuSans-65"/>
      <use x="549.755859" xlink:href="#DejaVuSans-72"/>
      <use x="590.869141" xlink:href="#DejaVuSans-69"/>
      <use x="618.652344" xlink:href="#DejaVuSans-63"/>
      <use x="673.632812" xlink:href="#DejaVuSans-61"/>
     </g>
    </g>
    <g id="line2d_33">
     <path d="M 1065.97 76.39125 
L 1081.97 76.39125 
" style="fill:none;stroke:#a4a86f;stroke-linecap:square;stroke-width:2;"/>
    </g>
    <g id="line2d_34"/>
    <g id="text_23">
     <!-- United Kingdom -->
     <g transform="translate(1088.37 79.19125)scale(0.08 -0.08)">
      <defs>
       <path d="M 556 4666 
L 1191 4666 
L 1191 1831 
Q 1191 1081 1462 751 
Q 1734 422 2344 422 
Q 2950 422 3222 751 
Q 3494 1081 3494 1831 
L 3494 4666 
L 4128 4666 
L 4128 1753 
Q 4128 841 3676 375 
Q 3225 -91 2344 -91 
Q 1459 -91 1007 375 
Q 556 841 556 1753 
L 556 4666 
z
" id="DejaVuSans-55" transform="scale(0.015625)"/>
       <path d="M 628 4666 
L 1259 4666 
L 1259 2694 
L 3353 4666 
L 4166 4666 
L 1850 2491 
L 4331 0 
L 3500 0 
L 1259 2247 
L 1259 0 
L 628 0 
L 628 4666 
z
" id="DejaVuSans-4b" transform="scale(0.015625)"/>
      </defs>
      <use xlink:href="#DejaVuSans-55"/>
      <use x="73.193359" xlink:href="#DejaVuSans-6e"/>
      <use x="136.572266" xlink:href="#DejaVuSans-69"/>
      <use x="164.355469" xlink:href="#DejaVuSans-74"/>
      <use x="203.564453" xlink:href="#DejaVuSans-65"/>
      <use x="265.087891" xlink:href="#DejaVuSans-64"/>
      <use x="328.564453" xlink:href="#DejaVuSans-20"/>
      <use x="360.351562" xlink:href="#DejaVuSans-4b"/>
      <use x="425.927734" xlink:href="#DejaVuSans-69"/>
      <use x="453.710938" xlink:href="#DejaVuSans-6e"/>
      <use x="517.089844" xlink:href="#DejaVuSans-67"/>
      <use x="580.566406" xlink:href="#DejaVuSans-64"/>
      <use x="644.042969" xlink:href="#DejaVuSans-6f"/>
      <use x="705.224609" xlink:href="#DejaVuSans-6d"/>
     </g>
    </g>
    <g id="line2d_35">
     <path d="M 1065.97 88.13375 
L 1081.97 88.13375 
" style="fill:none;stroke:#d3d3d3;stroke-linecap:square;stroke-width:2;"/>
    </g>
    <g id="line2d_36"/>
    <g id="text_24">
     <!-- Oceania -->
     <g transform="translate(1088.37 90.93375)scale(0.08 -0.08)">
      <defs>
       <path d="M 2522 4238 
Q 1834 4238 1429 3725 
Q 1025 3213 1025 2328 
Q 1025 1447 1429 934 
Q 1834 422 2522 422 
Q 3209 422 3611 934 
Q 4013 1447 4013 2328 
Q 4013 3213 3611 3725 
Q 3209 4238 2522 4238 
z
M 2522 4750 
Q 3503 4750 4090 4092 
Q 4678 3434 4678 2328 
Q 4678 1225 4090 567 
Q 3503 -91 2522 -91 
Q 1538 -91 948 565 
Q 359 1222 359 2328 
Q 359 3434 948 4092 
Q 1538 4750 2522 4750 
z
" id="DejaVuSans-4f" transform="scale(0.015625)"/>
      </defs>
      <use xlink:href="#DejaVuSans-4f"/>
      <use x="78.710938" xlink:href="#DejaVuSans-63"/>
      <use x="133.691406" xlink:href="#DejaVuSans-65"/>
      <use x="195.214844" xlink:href="#DejaVuSans-61"/>
      <use x="256.494141" xlink:href="#DejaVuSans-6e"/>
      <use x="319.873047" xlink:href="#DejaVuSans-69"/>
      <use x="347.65625" xlink:href="#DejaVuSans-61"/>
     </g>
    </g>
   </g>
  </g>
 </g>
 <defs>
  <clipPath id="pd7530221a8">
   <rect height="221.76" width="1116" x="43.78125" y="7.2"/>
  </clipPath>
 </defs>
</svg>
