<?xml version="1.0" encoding="utf-8" standalone="no"?>
<!DOCTYPE svg PUBLIC "-//W3C//DTD SVG 1.1//EN"
  "http://www.w3.org/Graphics/SVG/1.1/DTD/svg11.dtd">
<svg height="298.620937pt" version="1.1" viewBox="0 0 1173.34375 298.620937" width="1173.34375pt" xmlns="http://www.w3.org/2000/svg" xmlns:xlink="http://www.w3.org/1999/xlink">
 <metadata>
  <rdf:RDF xmlns:cc="http://creativecommons.org/ns#" xmlns:dc="http://purl.org/dc/elements/1.1/" xmlns:rdf="http://www.w3.org/1999/02/22-rdf-syntax-ns#">
   <cc:Work>
    <dc:type rdf:resource="http://purl.org/dc/dcmitype/StillImage"/>
    <dc:date>2021-12-29T18:27:49.554111</dc:date>
    <dc:format>image/svg+xml</dc:format>
    <dc:creator>
     <cc:Agent>
      <dc:title>Matplotlib v3.4.2, https://matplotlib.org/</dc:title>
     </cc:Agent>
    </dc:creator>
   </cc:Work>
  </rdf:RDF>
 </metadata>
 <defs>
  <style type="text/css">*{stroke-linecap:butt;stroke-linejoin:round;}</style>
 </defs>
 <g id="figure_1">
  <g id="patch_1">
   <path d="M 0 298.620937 
L 1173.34375 298.620937 
L 1173.34375 0 
L 0 0 
z
" style="fill:#ffffff;"/>
  </g>
  <g id="axes_1">
   <g id="patch_2">
    <path d="M 50.14375 228.96 
L 1166.14375 228.96 
L 1166.14375 7.2 
L 50.14375 7.2 
z
" style="fill:#ffffff;"/>
   </g>
   <g id="matplotlib.axis_1">
    <g id="xtick_1">
     <g id="line2d_1">
      <defs>
       <path d="M 0 0 
L 0 3.5 
" id="md9e4d8d59e" style="stroke:#000000;stroke-width:0.8;"/>
      </defs>
      <g>
       <use style="stroke:#000000;stroke-width:0.8;" x="87.067683" xlink:href="#md9e4d8d59e" y="228.96"/>
      </g>
     </g>
     <g id="text_1">
      <!-- 2021-03 -->
      <g transform="translate(89.827058 277.742812)rotate(-90)scale(0.1 -0.1)">
       <defs>
        <path d="M 1228 531 
L 3431 531 
L 3431 0 
L 469 0 
L 469 531 
Q 828 903 1448 1529 
Q 2069 2156 2228 2338 
Q 2531 2678 2651 2914 
Q 2772 3150 2772 3378 
Q 2772 3750 2511 3984 
Q 2250 4219 1831 4219 
Q 1534 4219 1204 4116 
Q 875 4013 500 3803 
L 500 4441 
Q 881 4594 1212 4672 
Q 1544 4750 1819 4750 
Q 2544 4750 2975 4387 
Q 3406 4025 3406 3419 
Q 3406 3131 3298 2873 
Q 3191 2616 2906 2266 
Q 2828 2175 2409 1742 
Q 1991 1309 1228 531 
z
" id="DejaVuSans-32" transform="scale(0.015625)"/>
        <path d="M 2034 4250 
Q 1547 4250 1301 3770 
Q 1056 3291 1056 2328 
Q 1056 1369 1301 889 
Q 1547 409 2034 409 
Q 2525 409 2770 889 
Q 3016 1369 3016 2328 
Q 3016 3291 2770 3770 
Q 2525 4250 2034 4250 
z
M 2034 4750 
Q 2819 4750 3233 4129 
Q 3647 3509 3647 2328 
Q 3647 1150 3233 529 
Q 2819 -91 2034 -91 
Q 1250 -91 836 529 
Q 422 1150 422 2328 
Q 422 3509 836 4129 
Q 1250 4750 2034 4750 
z
" id="DejaVuSans-30" transform="scale(0.015625)"/>
        <path d="M 794 531 
L 1825 531 
L 1825 4091 
L 703 3866 
L 703 4441 
L 1819 4666 
L 2450 4666 
L 2450 531 
L 3481 531 
L 3481 0 
L 794 0 
L 794 531 
z
" id="DejaVuSans-31" transform="scale(0.015625)"/>
        <path d="M 313 2009 
L 1997 2009 
L 1997 1497 
L 313 1497 
L 313 2009 
z
" id="DejaVuSans-2d" transform="scale(0.015625)"/>
        <path d="M 2597 2516 
Q 3050 2419 3304 2112 
Q 3559 1806 3559 1356 
Q 3559 666 3084 287 
Q 2609 -91 1734 -91 
Q 1441 -91 1130 -33 
Q 819 25 488 141 
L 488 750 
Q 750 597 1062 519 
Q 1375 441 1716 441 
Q 2309 441 2620 675 
Q 2931 909 2931 1356 
Q 2931 1769 2642 2001 
Q 2353 2234 1838 2234 
L 1294 2234 
L 1294 2753 
L 1863 2753 
Q 2328 2753 2575 2939 
Q 2822 3125 2822 3475 
Q 2822 3834 2567 4026 
Q 2313 4219 1838 4219 
Q 1578 4219 1281 4162 
Q 984 4106 628 3988 
L 628 4550 
Q 988 4650 1302 4700 
Q 1616 4750 1894 4750 
Q 2613 4750 3031 4423 
Q 3450 4097 3450 3541 
Q 3450 3153 3228 2886 
Q 3006 2619 2597 2516 
z
" id="DejaVuSans-33" transform="scale(0.015625)"/>
       </defs>
       <use xlink:href="#DejaVuSans-32"/>
       <use x="63.623047" xlink:href="#DejaVuSans-30"/>
       <use x="127.246094" xlink:href="#DejaVuSans-32"/>
       <use x="190.869141" xlink:href="#DejaVuSans-31"/>
       <use x="254.492188" xlink:href="#DejaVuSans-2d"/>
       <use x="290.576172" xlink:href="#DejaVuSans-30"/>
       <use x="354.199219" xlink:href="#DejaVuSans-33"/>
      </g>
     </g>
    </g>
    <g id="xtick_2">
     <g id="line2d_2">
      <g>
       <use style="stroke:#000000;stroke-width:0.8;" x="194.043564" xlink:href="#md9e4d8d59e" y="228.96"/>
      </g>
     </g>
     <g id="text_2">
      <!-- 2021-04 -->
      <g transform="translate(196.802939 277.742812)rotate(-90)scale(0.1 -0.1)">
       <defs>
        <path d="M 2419 4116 
L 825 1625 
L 2419 1625 
L 2419 4116 
z
M 2253 4666 
L 3047 4666 
L 3047 1625 
L 3713 1625 
L 3713 1100 
L 3047 1100 
L 3047 0 
L 2419 0 
L 2419 1100 
L 313 1100 
L 313 1709 
L 2253 4666 
z
" id="DejaVuSans-34" transform="scale(0.015625)"/>
       </defs>
       <use xlink:href="#DejaVuSans-32"/>
       <use x="63.623047" xlink:href="#DejaVuSans-30"/>
       <use x="127.246094" xlink:href="#DejaVuSans-32"/>
       <use x="190.869141" xlink:href="#DejaVuSans-31"/>
       <use x="254.492188" xlink:href="#DejaVuSans-2d"/>
       <use x="290.576172" xlink:href="#DejaVuSans-30"/>
       <use x="354.199219" xlink:href="#DejaVuSans-34"/>
      </g>
     </g>
    </g>
    <g id="xtick_3">
     <g id="line2d_3">
      <g>
       <use style="stroke:#000000;stroke-width:0.8;" x="297.568611" xlink:href="#md9e4d8d59e" y="228.96"/>
      </g>
     </g>
     <g id="text_3">
      <!-- 2021-05 -->
      <g transform="translate(300.327986 277.742812)rotate(-90)scale(0.1 -0.1)">
       <defs>
        <path d="M 691 4666 
L 3169 4666 
L 3169 4134 
L 1269 4134 
L 1269 2991 
Q 1406 3038 1543 3061 
Q 1681 3084 1819 3084 
Q 2600 3084 3056 2656 
Q 3513 2228 3513 1497 
Q 3513 744 3044 326 
Q 2575 -91 1722 -91 
Q 1428 -91 1123 -41 
Q 819 9 494 109 
L 494 744 
Q 775 591 1075 516 
Q 1375 441 1709 441 
Q 2250 441 2565 725 
Q 2881 1009 2881 1497 
Q 2881 1984 2565 2268 
Q 2250 2553 1709 2553 
Q 1456 2553 1204 2497 
Q 953 2441 691 2322 
L 691 4666 
z
" id="DejaVuSans-35" transform="scale(0.015625)"/>
       </defs>
       <use xlink:href="#DejaVuSans-32"/>
       <use x="63.623047" xlink:href="#DejaVuSans-30"/>
       <use x="127.246094" xlink:href="#DejaVuSans-32"/>
       <use x="190.869141" xlink:href="#DejaVuSans-31"/>
       <use x="254.492188" xlink:href="#DejaVuSans-2d"/>
       <use x="290.576172" xlink:href="#DejaVuSans-30"/>
       <use x="354.199219" xlink:href="#DejaVuSans-35"/>
      </g>
     </g>
    </g>
    <g id="xtick_4">
     <g id="line2d_4">
      <g>
       <use style="stroke:#000000;stroke-width:0.8;" x="404.544492" xlink:href="#md9e4d8d59e" y="228.96"/>
      </g>
     </g>
     <g id="text_4">
      <!-- 2021-06 -->
      <g transform="translate(407.303867 277.742812)rotate(-90)scale(0.1 -0.1)">
       <defs>
        <path d="M 2113 2584 
Q 1688 2584 1439 2293 
Q 1191 2003 1191 1497 
Q 1191 994 1439 701 
Q 1688 409 2113 409 
Q 2538 409 2786 701 
Q 3034 994 3034 1497 
Q 3034 2003 2786 2293 
Q 2538 2584 2113 2584 
z
M 3366 4563 
L 3366 3988 
Q 3128 4100 2886 4159 
Q 2644 4219 2406 4219 
Q 1781 4219 1451 3797 
Q 1122 3375 1075 2522 
Q 1259 2794 1537 2939 
Q 1816 3084 2150 3084 
Q 2853 3084 3261 2657 
Q 3669 2231 3669 1497 
Q 3669 778 3244 343 
Q 2819 -91 2113 -91 
Q 1303 -91 875 529 
Q 447 1150 447 2328 
Q 447 3434 972 4092 
Q 1497 4750 2381 4750 
Q 2619 4750 2861 4703 
Q 3103 4656 3366 4563 
z
" id="DejaVuSans-36" transform="scale(0.015625)"/>
       </defs>
       <use xlink:href="#DejaVuSans-32"/>
       <use x="63.623047" xlink:href="#DejaVuSans-30"/>
       <use x="127.246094" xlink:href="#DejaVuSans-32"/>
       <use x="190.869141" xlink:href="#DejaVuSans-31"/>
       <use x="254.492188" xlink:href="#DejaVuSans-2d"/>
       <use x="290.576172" xlink:href="#DejaVuSans-30"/>
       <use x="354.199219" xlink:href="#DejaVuSans-36"/>
      </g>
     </g>
    </g>
    <g id="xtick_5">
     <g id="line2d_5">
      <g>
       <use style="stroke:#000000;stroke-width:0.8;" x="508.069538" xlink:href="#md9e4d8d59e" y="228.96"/>
      </g>
     </g>
     <g id="text_5">
      <!-- 2021-07 -->
      <g transform="translate(510.828913 277.742812)rotate(-90)scale(0.1 -0.1)">
       <defs>
        <path d="M 525 4666 
L 3525 4666 
L 3525 4397 
L 1831 0 
L 1172 0 
L 2766 4134 
L 525 4134 
L 525 4666 
z
" id="DejaVuSans-37" transform="scale(0.015625)"/>
       </defs>
       <use xlink:href="#DejaVuSans-32"/>
       <use x="63.623047" xlink:href="#DejaVuSans-30"/>
       <use x="127.246094" xlink:href="#DejaVuSans-32"/>
       <use x="190.869141" xlink:href="#DejaVuSans-31"/>
       <use x="254.492188" xlink:href="#DejaVuSans-2d"/>
       <use x="290.576172" xlink:href="#DejaVuSans-30"/>
       <use x="354.199219" xlink:href="#DejaVuSans-37"/>
      </g>
     </g>
    </g>
    <g id="xtick_6">
     <g id="line2d_6">
      <g>
       <use style="stroke:#000000;stroke-width:0.8;" x="615.04542" xlink:href="#md9e4d8d59e" y="228.96"/>
      </g>
     </g>
     <g id="text_6">
      <!-- 2021-08 -->
      <g transform="translate(617.804795 277.742812)rotate(-90)scale(0.1 -0.1)">
       <defs>
        <path d="M 2034 2216 
Q 1584 2216 1326 1975 
Q 1069 1734 1069 1313 
Q 1069 891 1326 650 
Q 1584 409 2034 409 
Q 2484 409 2743 651 
Q 3003 894 3003 1313 
Q 3003 1734 2745 1975 
Q 2488 2216 2034 2216 
z
M 1403 2484 
Q 997 2584 770 2862 
Q 544 3141 544 3541 
Q 544 4100 942 4425 
Q 1341 4750 2034 4750 
Q 2731 4750 3128 4425 
Q 3525 4100 3525 3541 
Q 3525 3141 3298 2862 
Q 3072 2584 2669 2484 
Q 3125 2378 3379 2068 
Q 3634 1759 3634 1313 
Q 3634 634 3220 271 
Q 2806 -91 2034 -91 
Q 1263 -91 848 271 
Q 434 634 434 1313 
Q 434 1759 690 2068 
Q 947 2378 1403 2484 
z
M 1172 3481 
Q 1172 3119 1398 2916 
Q 1625 2713 2034 2713 
Q 2441 2713 2670 2916 
Q 2900 3119 2900 3481 
Q 2900 3844 2670 4047 
Q 2441 4250 2034 4250 
Q 1625 4250 1398 4047 
Q 1172 3844 1172 3481 
z
" id="DejaVuSans-38" transform="scale(0.015625)"/>
       </defs>
       <use xlink:href="#DejaVuSans-32"/>
       <use x="63.623047" xlink:href="#DejaVuSans-30"/>
       <use x="127.246094" xlink:href="#DejaVuSans-32"/>
       <use x="190.869141" xlink:href="#DejaVuSans-31"/>
       <use x="254.492188" xlink:href="#DejaVuSans-2d"/>
       <use x="290.576172" xlink:href="#DejaVuSans-30"/>
       <use x="354.199219" xlink:href="#DejaVuSans-38"/>
      </g>
     </g>
    </g>
    <g id="xtick_7">
     <g id="line2d_7">
      <g>
       <use style="stroke:#000000;stroke-width:0.8;" x="722.021301" xlink:href="#md9e4d8d59e" y="228.96"/>
      </g>
     </g>
     <g id="text_7">
      <!-- 2021-09 -->
      <g transform="translate(724.780676 277.742812)rotate(-90)scale(0.1 -0.1)">
       <defs>
        <path d="M 703 97 
L 703 672 
Q 941 559 1184 500 
Q 1428 441 1663 441 
Q 2288 441 2617 861 
Q 2947 1281 2994 2138 
Q 2813 1869 2534 1725 
Q 2256 1581 1919 1581 
Q 1219 1581 811 2004 
Q 403 2428 403 3163 
Q 403 3881 828 4315 
Q 1253 4750 1959 4750 
Q 2769 4750 3195 4129 
Q 3622 3509 3622 2328 
Q 3622 1225 3098 567 
Q 2575 -91 1691 -91 
Q 1453 -91 1209 -44 
Q 966 3 703 97 
z
M 1959 2075 
Q 2384 2075 2632 2365 
Q 2881 2656 2881 3163 
Q 2881 3666 2632 3958 
Q 2384 4250 1959 4250 
Q 1534 4250 1286 3958 
Q 1038 3666 1038 3163 
Q 1038 2656 1286 2365 
Q 1534 2075 1959 2075 
z
" id="DejaVuSans-39" transform="scale(0.015625)"/>
       </defs>
       <use xlink:href="#DejaVuSans-32"/>
       <use x="63.623047" xlink:href="#DejaVuSans-30"/>
       <use x="127.246094" xlink:href="#DejaVuSans-32"/>
       <use x="190.869141" xlink:href="#DejaVuSans-31"/>
       <use x="254.492188" xlink:href="#DejaVuSans-2d"/>
       <use x="290.576172" xlink:href="#DejaVuSans-30"/>
       <use x="354.199219" xlink:href="#DejaVuSans-39"/>
      </g>
     </g>
    </g>
    <g id="xtick_8">
     <g id="line2d_8">
      <g>
       <use style="stroke:#000000;stroke-width:0.8;" x="825.546347" xlink:href="#md9e4d8d59e" y="228.96"/>
      </g>
     </g>
     <g id="text_8">
      <!-- 2021-10 -->
      <g transform="translate(828.305722 277.742812)rotate(-90)scale(0.1 -0.1)">
       <use xlink:href="#DejaVuSans-32"/>
       <use x="63.623047" xlink:href="#DejaVuSans-30"/>
       <use x="127.246094" xlink:href="#DejaVuSans-32"/>
       <use x="190.869141" xlink:href="#DejaVuSans-31"/>
       <use x="254.492188" xlink:href="#DejaVuSans-2d"/>
       <use x="290.576172" xlink:href="#DejaVuSans-31"/>
       <use x="354.199219" xlink:href="#DejaVuSans-30"/>
      </g>
     </g>
    </g>
    <g id="xtick_9">
     <g id="line2d_9">
      <g>
       <use style="stroke:#000000;stroke-width:0.8;" x="932.522229" xlink:href="#md9e4d8d59e" y="228.96"/>
      </g>
     </g>
     <g id="text_9">
      <!-- 2021-11 -->
      <g transform="translate(935.281604 277.742812)rotate(-90)scale(0.1 -0.1)">
       <use xlink:href="#DejaVuSans-32"/>
       <use x="63.623047" xlink:href="#DejaVuSans-30"/>
       <use x="127.246094" xlink:href="#DejaVuSans-32"/>
       <use x="190.869141" xlink:href="#DejaVuSans-31"/>
       <use x="254.492188" xlink:href="#DejaVuSans-2d"/>
       <use x="290.576172" xlink:href="#DejaVuSans-31"/>
       <use x="354.199219" xlink:href="#DejaVuSans-31"/>
      </g>
     </g>
    </g>
    <g id="xtick_10">
     <g id="line2d_10">
      <g>
       <use style="stroke:#000000;stroke-width:0.8;" x="1036.047275" xlink:href="#md9e4d8d59e" y="228.96"/>
      </g>
     </g>
     <g id="text_10">
      <!-- 2021-12 -->
      <g transform="translate(1038.80665 277.742812)rotate(-90)scale(0.1 -0.1)">
       <use xlink:href="#DejaVuSans-32"/>
       <use x="63.623047" xlink:href="#DejaVuSans-30"/>
       <use x="127.246094" xlink:href="#DejaVuSans-32"/>
       <use x="190.869141" xlink:href="#DejaVuSans-31"/>
       <use x="254.492188" xlink:href="#DejaVuSans-2d"/>
       <use x="290.576172" xlink:href="#DejaVuSans-31"/>
       <use x="354.199219" xlink:href="#DejaVuSans-32"/>
      </g>
     </g>
    </g>
    <g id="xtick_11">
     <g id="line2d_11">
      <g>
       <use style="stroke:#000000;stroke-width:0.8;" x="1143.023156" xlink:href="#md9e4d8d59e" y="228.96"/>
      </g>
     </g>
     <g id="text_11">
      <!-- 2022-01 -->
      <g transform="translate(1145.782531 277.742812)rotate(-90)scale(0.1 -0.1)">
       <use xlink:href="#DejaVuSans-32"/>
       <use x="63.623047" xlink:href="#DejaVuSans-30"/>
       <use x="127.246094" xlink:href="#DejaVuSans-32"/>
       <use x="190.869141" xlink:href="#DejaVuSans-32"/>
       <use x="254.492188" xlink:href="#DejaVuSans-2d"/>
       <use x="290.576172" xlink:href="#DejaVuSans-30"/>
       <use x="354.199219" xlink:href="#DejaVuSans-31"/>
      </g>
     </g>
    </g>
    <g id="text_12">
     <!-- Date -->
     <g transform="translate(596.192969 289.34125)scale(0.1 -0.1)">
      <defs>
       <path d="M 1259 4147 
L 1259 519 
L 2022 519 
Q 2988 519 3436 956 
Q 3884 1394 3884 2338 
Q 3884 3275 3436 3711 
Q 2988 4147 2022 4147 
L 1259 4147 
z
M 628 4666 
L 1925 4666 
Q 3281 4666 3915 4102 
Q 4550 3538 4550 2338 
Q 4550 1131 3912 565 
Q 3275 0 1925 0 
L 628 0 
L 628 4666 
z
" id="DejaVuSans-44" transform="scale(0.015625)"/>
       <path d="M 2194 1759 
Q 1497 1759 1228 1600 
Q 959 1441 959 1056 
Q 959 750 1161 570 
Q 1363 391 1709 391 
Q 2188 391 2477 730 
Q 2766 1069 2766 1631 
L 2766 1759 
L 2194 1759 
z
M 3341 1997 
L 3341 0 
L 2766 0 
L 2766 531 
Q 2569 213 2275 61 
Q 1981 -91 1556 -91 
Q 1019 -91 701 211 
Q 384 513 384 1019 
Q 384 1609 779 1909 
Q 1175 2209 1959 2209 
L 2766 2209 
L 2766 2266 
Q 2766 2663 2505 2880 
Q 2244 3097 1772 3097 
Q 1472 3097 1187 3025 
Q 903 2953 641 2809 
L 641 3341 
Q 956 3463 1253 3523 
Q 1550 3584 1831 3584 
Q 2591 3584 2966 3190 
Q 3341 2797 3341 1997 
z
" id="DejaVuSans-61" transform="scale(0.015625)"/>
       <path d="M 1172 4494 
L 1172 3500 
L 2356 3500 
L 2356 3053 
L 1172 3053 
L 1172 1153 
Q 1172 725 1289 603 
Q 1406 481 1766 481 
L 2356 481 
L 2356 0 
L 1766 0 
Q 1100 0 847 248 
Q 594 497 594 1153 
L 594 3053 
L 172 3053 
L 172 3500 
L 594 3500 
L 594 4494 
L 1172 4494 
z
" id="DejaVuSans-74" transform="scale(0.015625)"/>
       <path d="M 3597 1894 
L 3597 1613 
L 953 1613 
Q 991 1019 1311 708 
Q 1631 397 2203 397 
Q 2534 397 2845 478 
Q 3156 559 3463 722 
L 3463 178 
Q 3153 47 2828 -22 
Q 2503 -91 2169 -91 
Q 1331 -91 842 396 
Q 353 884 353 1716 
Q 353 2575 817 3079 
Q 1281 3584 2069 3584 
Q 2775 3584 3186 3129 
Q 3597 2675 3597 1894 
z
M 3022 2063 
Q 3016 2534 2758 2815 
Q 2500 3097 2075 3097 
Q 1594 3097 1305 2825 
Q 1016 2553 972 2059 
L 3022 2063 
z
" id="DejaVuSans-65" transform="scale(0.015625)"/>
      </defs>
      <use xlink:href="#DejaVuSans-44"/>
      <use x="77.001953" xlink:href="#DejaVuSans-61"/>
      <use x="138.28125" xlink:href="#DejaVuSans-74"/>
      <use x="177.490234" xlink:href="#DejaVuSans-65"/>
     </g>
    </g>
   </g>
   <g id="matplotlib.axis_2">
    <g id="ytick_1">
     <g id="line2d_12">
      <defs>
       <path d="M 0 0 
L -3.5 0 
" id="ma5ecc7add1" style="stroke:#000000;stroke-width:0.8;"/>
      </defs>
      <g>
       <use style="stroke:#000000;stroke-width:0.8;" x="50.14375" xlink:href="#ma5ecc7add1" y="228.96"/>
      </g>
     </g>
     <g id="text_13">
      <!-- 0.00 -->
      <g transform="translate(20.878125 232.759219)scale(0.1 -0.1)">
       <defs>
        <path d="M 684 794 
L 1344 794 
L 1344 0 
L 684 0 
L 684 794 
z
" id="DejaVuSans-2e" transform="scale(0.015625)"/>
       </defs>
       <use xlink:href="#DejaVuSans-30"/>
       <use x="63.623047" xlink:href="#DejaVuSans-2e"/>
       <use x="95.410156" xlink:href="#DejaVuSans-30"/>
       <use x="159.033203" xlink:href="#DejaVuSans-30"/>
      </g>
     </g>
    </g>
    <g id="ytick_2">
     <g id="line2d_13">
      <g>
       <use style="stroke:#000000;stroke-width:0.8;" x="50.14375" xlink:href="#ma5ecc7add1" y="202.42316"/>
      </g>
     </g>
     <g id="text_14">
      <!-- 0.05 -->
      <g transform="translate(20.878125 206.222379)scale(0.1 -0.1)">
       <use xlink:href="#DejaVuSans-30"/>
       <use x="63.623047" xlink:href="#DejaVuSans-2e"/>
       <use x="95.410156" xlink:href="#DejaVuSans-30"/>
       <use x="159.033203" xlink:href="#DejaVuSans-35"/>
      </g>
     </g>
    </g>
    <g id="ytick_3">
     <g id="line2d_14">
      <g>
       <use style="stroke:#000000;stroke-width:0.8;" x="50.14375" xlink:href="#ma5ecc7add1" y="175.88632"/>
      </g>
     </g>
     <g id="text_15">
      <!-- 0.10 -->
      <g transform="translate(20.878125 179.685539)scale(0.1 -0.1)">
       <use xlink:href="#DejaVuSans-30"/>
       <use x="63.623047" xlink:href="#DejaVuSans-2e"/>
       <use x="95.410156" xlink:href="#DejaVuSans-31"/>
       <use x="159.033203" xlink:href="#DejaVuSans-30"/>
      </g>
     </g>
    </g>
    <g id="ytick_4">
     <g id="line2d_15">
      <g>
       <use style="stroke:#000000;stroke-width:0.8;" x="50.14375" xlink:href="#ma5ecc7add1" y="149.34948"/>
      </g>
     </g>
     <g id="text_16">
      <!-- 0.15 -->
      <g transform="translate(20.878125 153.148698)scale(0.1 -0.1)">
       <use xlink:href="#DejaVuSans-30"/>
       <use x="63.623047" xlink:href="#DejaVuSans-2e"/>
       <use x="95.410156" xlink:href="#DejaVuSans-31"/>
       <use x="159.033203" xlink:href="#DejaVuSans-35"/>
      </g>
     </g>
    </g>
    <g id="ytick_5">
     <g id="line2d_16">
      <g>
       <use style="stroke:#000000;stroke-width:0.8;" x="50.14375" xlink:href="#ma5ecc7add1" y="122.81264"/>
      </g>
     </g>
     <g id="text_17">
      <!-- 0.20 -->
      <g transform="translate(20.878125 126.611858)scale(0.1 -0.1)">
       <use xlink:href="#DejaVuSans-30"/>
       <use x="63.623047" xlink:href="#DejaVuSans-2e"/>
       <use x="95.410156" xlink:href="#DejaVuSans-32"/>
       <use x="159.033203" xlink:href="#DejaVuSans-30"/>
      </g>
     </g>
    </g>
    <g id="ytick_6">
     <g id="line2d_17">
      <g>
       <use style="stroke:#000000;stroke-width:0.8;" x="50.14375" xlink:href="#ma5ecc7add1" y="96.2758"/>
      </g>
     </g>
     <g id="text_18">
      <!-- 0.25 -->
      <g transform="translate(20.878125 100.075018)scale(0.1 -0.1)">
       <use xlink:href="#DejaVuSans-30"/>
       <use x="63.623047" xlink:href="#DejaVuSans-2e"/>
       <use x="95.410156" xlink:href="#DejaVuSans-32"/>
       <use x="159.033203" xlink:href="#DejaVuSans-35"/>
      </g>
     </g>
    </g>
    <g id="ytick_7">
     <g id="line2d_18">
      <g>
       <use style="stroke:#000000;stroke-width:0.8;" x="50.14375" xlink:href="#ma5ecc7add1" y="69.738959"/>
      </g>
     </g>
     <g id="text_19">
      <!-- 0.30 -->
      <g transform="translate(20.878125 73.538178)scale(0.1 -0.1)">
       <use xlink:href="#DejaVuSans-30"/>
       <use x="63.623047" xlink:href="#DejaVuSans-2e"/>
       <use x="95.410156" xlink:href="#DejaVuSans-33"/>
       <use x="159.033203" xlink:href="#DejaVuSans-30"/>
      </g>
     </g>
    </g>
    <g id="ytick_8">
     <g id="line2d_19">
      <g>
       <use style="stroke:#000000;stroke-width:0.8;" x="50.14375" xlink:href="#ma5ecc7add1" y="43.202119"/>
      </g>
     </g>
     <g id="text_20">
      <!-- 0.35 -->
      <g transform="translate(20.878125 47.001338)scale(0.1 -0.1)">
       <use xlink:href="#DejaVuSans-30"/>
       <use x="63.623047" xlink:href="#DejaVuSans-2e"/>
       <use x="95.410156" xlink:href="#DejaVuSans-33"/>
       <use x="159.033203" xlink:href="#DejaVuSans-35"/>
      </g>
     </g>
    </g>
    <g id="ytick_9">
     <g id="line2d_20">
      <g>
       <use style="stroke:#000000;stroke-width:0.8;" x="50.14375" xlink:href="#ma5ecc7add1" y="16.665279"/>
      </g>
     </g>
     <g id="text_21">
      <!-- 0.40 -->
      <g transform="translate(20.878125 20.464498)scale(0.1 -0.1)">
       <use xlink:href="#DejaVuSans-30"/>
       <use x="63.623047" xlink:href="#DejaVuSans-2e"/>
       <use x="95.410156" xlink:href="#DejaVuSans-34"/>
       <use x="159.033203" xlink:href="#DejaVuSans-30"/>
      </g>
     </g>
    </g>
    <g id="text_22">
     <!-- Frequency (7 day rolling average) -->
     <g transform="translate(14.798438 202.529219)rotate(-90)scale(0.1 -0.1)">
      <defs>
       <path d="M 628 4666 
L 3309 4666 
L 3309 4134 
L 1259 4134 
L 1259 2759 
L 3109 2759 
L 3109 2228 
L 1259 2228 
L 1259 0 
L 628 0 
L 628 4666 
z
" id="DejaVuSans-46" transform="scale(0.015625)"/>
       <path d="M 2631 2963 
Q 2534 3019 2420 3045 
Q 2306 3072 2169 3072 
Q 1681 3072 1420 2755 
Q 1159 2438 1159 1844 
L 1159 0 
L 581 0 
L 581 3500 
L 1159 3500 
L 1159 2956 
Q 1341 3275 1631 3429 
Q 1922 3584 2338 3584 
Q 2397 3584 2469 3576 
Q 2541 3569 2628 3553 
L 2631 2963 
z
" id="DejaVuSans-72" transform="scale(0.015625)"/>
       <path d="M 947 1747 
Q 947 1113 1208 752 
Q 1469 391 1925 391 
Q 2381 391 2643 752 
Q 2906 1113 2906 1747 
Q 2906 2381 2643 2742 
Q 2381 3103 1925 3103 
Q 1469 3103 1208 2742 
Q 947 2381 947 1747 
z
M 2906 525 
Q 2725 213 2448 61 
Q 2172 -91 1784 -91 
Q 1150 -91 751 415 
Q 353 922 353 1747 
Q 353 2572 751 3078 
Q 1150 3584 1784 3584 
Q 2172 3584 2448 3432 
Q 2725 3281 2906 2969 
L 2906 3500 
L 3481 3500 
L 3481 -1331 
L 2906 -1331 
L 2906 525 
z
" id="DejaVuSans-71" transform="scale(0.015625)"/>
       <path d="M 544 1381 
L 544 3500 
L 1119 3500 
L 1119 1403 
Q 1119 906 1312 657 
Q 1506 409 1894 409 
Q 2359 409 2629 706 
Q 2900 1003 2900 1516 
L 2900 3500 
L 3475 3500 
L 3475 0 
L 2900 0 
L 2900 538 
Q 2691 219 2414 64 
Q 2138 -91 1772 -91 
Q 1169 -91 856 284 
Q 544 659 544 1381 
z
M 1991 3584 
L 1991 3584 
z
" id="DejaVuSans-75" transform="scale(0.015625)"/>
       <path d="M 3513 2113 
L 3513 0 
L 2938 0 
L 2938 2094 
Q 2938 2591 2744 2837 
Q 2550 3084 2163 3084 
Q 1697 3084 1428 2787 
Q 1159 2491 1159 1978 
L 1159 0 
L 581 0 
L 581 3500 
L 1159 3500 
L 1159 2956 
Q 1366 3272 1645 3428 
Q 1925 3584 2291 3584 
Q 2894 3584 3203 3211 
Q 3513 2838 3513 2113 
z
" id="DejaVuSans-6e" transform="scale(0.015625)"/>
       <path d="M 3122 3366 
L 3122 2828 
Q 2878 2963 2633 3030 
Q 2388 3097 2138 3097 
Q 1578 3097 1268 2742 
Q 959 2388 959 1747 
Q 959 1106 1268 751 
Q 1578 397 2138 397 
Q 2388 397 2633 464 
Q 2878 531 3122 666 
L 3122 134 
Q 2881 22 2623 -34 
Q 2366 -91 2075 -91 
Q 1284 -91 818 406 
Q 353 903 353 1747 
Q 353 2603 823 3093 
Q 1294 3584 2113 3584 
Q 2378 3584 2631 3529 
Q 2884 3475 3122 3366 
z
" id="DejaVuSans-63" transform="scale(0.015625)"/>
       <path d="M 2059 -325 
Q 1816 -950 1584 -1140 
Q 1353 -1331 966 -1331 
L 506 -1331 
L 506 -850 
L 844 -850 
Q 1081 -850 1212 -737 
Q 1344 -625 1503 -206 
L 1606 56 
L 191 3500 
L 800 3500 
L 1894 763 
L 2988 3500 
L 3597 3500 
L 2059 -325 
z
" id="DejaVuSans-79" transform="scale(0.015625)"/>
       <path id="DejaVuSans-20" transform="scale(0.015625)"/>
       <path d="M 1984 4856 
Q 1566 4138 1362 3434 
Q 1159 2731 1159 2009 
Q 1159 1288 1364 580 
Q 1569 -128 1984 -844 
L 1484 -844 
Q 1016 -109 783 600 
Q 550 1309 550 2009 
Q 550 2706 781 3412 
Q 1013 4119 1484 4856 
L 1984 4856 
z
" id="DejaVuSans-28" transform="scale(0.015625)"/>
       <path d="M 2906 2969 
L 2906 4863 
L 3481 4863 
L 3481 0 
L 2906 0 
L 2906 525 
Q 2725 213 2448 61 
Q 2172 -91 1784 -91 
Q 1150 -91 751 415 
Q 353 922 353 1747 
Q 353 2572 751 3078 
Q 1150 3584 1784 3584 
Q 2172 3584 2448 3432 
Q 2725 3281 2906 2969 
z
M 947 1747 
Q 947 1113 1208 752 
Q 1469 391 1925 391 
Q 2381 391 2643 752 
Q 2906 1113 2906 1747 
Q 2906 2381 2643 2742 
Q 2381 3103 1925 3103 
Q 1469 3103 1208 2742 
Q 947 2381 947 1747 
z
" id="DejaVuSans-64" transform="scale(0.015625)"/>
       <path d="M 1959 3097 
Q 1497 3097 1228 2736 
Q 959 2375 959 1747 
Q 959 1119 1226 758 
Q 1494 397 1959 397 
Q 2419 397 2687 759 
Q 2956 1122 2956 1747 
Q 2956 2369 2687 2733 
Q 2419 3097 1959 3097 
z
M 1959 3584 
Q 2709 3584 3137 3096 
Q 3566 2609 3566 1747 
Q 3566 888 3137 398 
Q 2709 -91 1959 -91 
Q 1206 -91 779 398 
Q 353 888 353 1747 
Q 353 2609 779 3096 
Q 1206 3584 1959 3584 
z
" id="DejaVuSans-6f" transform="scale(0.015625)"/>
       <path d="M 603 4863 
L 1178 4863 
L 1178 0 
L 603 0 
L 603 4863 
z
" id="DejaVuSans-6c" transform="scale(0.015625)"/>
       <path d="M 603 3500 
L 1178 3500 
L 1178 0 
L 603 0 
L 603 3500 
z
M 603 4863 
L 1178 4863 
L 1178 4134 
L 603 4134 
L 603 4863 
z
" id="DejaVuSans-69" transform="scale(0.015625)"/>
       <path d="M 2906 1791 
Q 2906 2416 2648 2759 
Q 2391 3103 1925 3103 
Q 1463 3103 1205 2759 
Q 947 2416 947 1791 
Q 947 1169 1205 825 
Q 1463 481 1925 481 
Q 2391 481 2648 825 
Q 2906 1169 2906 1791 
z
M 3481 434 
Q 3481 -459 3084 -895 
Q 2688 -1331 1869 -1331 
Q 1566 -1331 1297 -1286 
Q 1028 -1241 775 -1147 
L 775 -588 
Q 1028 -725 1275 -790 
Q 1522 -856 1778 -856 
Q 2344 -856 2625 -561 
Q 2906 -266 2906 331 
L 2906 616 
Q 2728 306 2450 153 
Q 2172 0 1784 0 
Q 1141 0 747 490 
Q 353 981 353 1791 
Q 353 2603 747 3093 
Q 1141 3584 1784 3584 
Q 2172 3584 2450 3431 
Q 2728 3278 2906 2969 
L 2906 3500 
L 3481 3500 
L 3481 434 
z
" id="DejaVuSans-67" transform="scale(0.015625)"/>
       <path d="M 191 3500 
L 800 3500 
L 1894 563 
L 2988 3500 
L 3597 3500 
L 2284 0 
L 1503 0 
L 191 3500 
z
" id="DejaVuSans-76" transform="scale(0.015625)"/>
       <path d="M 513 4856 
L 1013 4856 
Q 1481 4119 1714 3412 
Q 1947 2706 1947 2009 
Q 1947 1309 1714 600 
Q 1481 -109 1013 -844 
L 513 -844 
Q 928 -128 1133 580 
Q 1338 1288 1338 2009 
Q 1338 2731 1133 3434 
Q 928 4138 513 4856 
z
" id="DejaVuSans-29" transform="scale(0.015625)"/>
      </defs>
      <use xlink:href="#DejaVuSans-46"/>
      <use x="50.269531" xlink:href="#DejaVuSans-72"/>
      <use x="89.132812" xlink:href="#DejaVuSans-65"/>
      <use x="150.65625" xlink:href="#DejaVuSans-71"/>
      <use x="214.132812" xlink:href="#DejaVuSans-75"/>
      <use x="277.511719" xlink:href="#DejaVuSans-65"/>
      <use x="339.035156" xlink:href="#DejaVuSans-6e"/>
      <use x="402.414062" xlink:href="#DejaVuSans-63"/>
      <use x="457.394531" xlink:href="#DejaVuSans-79"/>
      <use x="516.574219" xlink:href="#DejaVuSans-20"/>
      <use x="548.361328" xlink:href="#DejaVuSans-28"/>
      <use x="587.375" xlink:href="#DejaVuSans-37"/>
      <use x="650.998047" xlink:href="#DejaVuSans-20"/>
      <use x="682.785156" xlink:href="#DejaVuSans-64"/>
      <use x="746.261719" xlink:href="#DejaVuSans-61"/>
      <use x="807.541016" xlink:href="#DejaVuSans-79"/>
      <use x="866.720703" xlink:href="#DejaVuSans-20"/>
      <use x="898.507812" xlink:href="#DejaVuSans-72"/>
      <use x="937.371094" xlink:href="#DejaVuSans-6f"/>
      <use x="998.552734" xlink:href="#DejaVuSans-6c"/>
      <use x="1026.335938" xlink:href="#DejaVuSans-6c"/>
      <use x="1054.119141" xlink:href="#DejaVuSans-69"/>
      <use x="1081.902344" xlink:href="#DejaVuSans-6e"/>
      <use x="1145.28125" xlink:href="#DejaVuSans-67"/>
      <use x="1208.757812" xlink:href="#DejaVuSans-20"/>
      <use x="1240.544922" xlink:href="#DejaVuSans-61"/>
      <use x="1301.824219" xlink:href="#DejaVuSans-76"/>
      <use x="1361.003906" xlink:href="#DejaVuSans-65"/>
      <use x="1422.527344" xlink:href="#DejaVuSans-72"/>
      <use x="1463.640625" xlink:href="#DejaVuSans-61"/>
      <use x="1524.919922" xlink:href="#DejaVuSans-67"/>
      <use x="1588.396484" xlink:href="#DejaVuSans-65"/>
      <use x="1649.919922" xlink:href="#DejaVuSans-29"/>
     </g>
    </g>
   </g>
   <g id="line2d_21">
    <path clip-path="url(#p22455d4f1f)" d="M 152.633546 228.856616 
L 162.986051 228.900126 
L 180.240225 228.84206 
L 218.199409 228.63286 
L 225.101078 228.390723 
L 228.551913 228.135174 
L 245.806088 227.462245 
L 252.707757 226.788854 
L 263.060262 226.219337 
L 266.511097 226.199922 
L 273.412767 225.744467 
L 276.863602 225.150427 
L 283.765271 225.058404 
L 290.666941 224.82035 
L 294.117776 225.29945 
L 301.019446 224.267985 
L 304.470281 224.223506 
L 307.921115 223.777303 
L 311.37195 223.216703 
L 314.822785 223.066162 
L 318.27362 223.180261 
L 321.724455 222.931776 
L 328.626125 223.061484 
L 332.07696 222.827814 
L 335.527795 221.989722 
L 338.978629 221.89974 
L 342.429464 221.681618 
L 345.880299 221.212687 
L 349.331134 220.364512 
L 352.781969 220.852144 
L 363.134474 220.100804 
L 366.585308 220.646751 
L 370.036143 220.193444 
L 373.486978 218.292491 
L 376.937813 217.992694 
L 380.388648 217.824365 
L 383.839483 217.205415 
L 387.290318 217.151498 
L 390.741153 219.227815 
L 394.191987 219.595766 
L 397.642822 218.056301 
L 404.544492 217.92099 
L 407.995327 216.885415 
L 411.446162 216.141674 
L 414.896997 217.062097 
L 418.347832 216.161027 
L 421.798667 216.489247 
L 425.249501 217.138167 
L 428.700336 217.034349 
L 432.151171 217.264998 
L 435.602006 217.91904 
L 439.052841 217.244774 
L 442.503676 215.214693 
L 445.954511 214.344972 
L 449.405346 213.599461 
L 456.307015 210.357554 
L 459.75785 210.694157 
L 463.208685 211.455872 
L 466.65952 210.99001 
L 470.110355 211.730495 
L 473.56119 211.942766 
L 477.012025 211.239307 
L 480.462859 210.331695 
L 483.913694 209.928469 
L 487.364529 209.763475 
L 490.815364 209.946756 
L 494.266199 209.229088 
L 497.717034 208.767243 
L 501.167869 207.919114 
L 504.618704 207.609695 
L 508.069538 206.814631 
L 511.520373 206.720066 
L 514.971208 204.229547 
L 518.422043 205.740506 
L 521.872878 205.317387 
L 525.323713 205.224781 
L 528.774548 205.416783 
L 532.225383 207.084575 
L 535.676218 205.3022 
L 539.127052 204.241249 
L 542.577887 204.485943 
L 546.028722 204.421444 
L 552.930392 205.626697 
L 556.381227 206.508459 
L 559.832062 206.286272 
L 563.282897 205.608442 
L 566.733731 205.536284 
L 570.184566 205.279534 
L 573.635401 205.206826 
L 577.086236 204.705685 
L 580.537071 205.031178 
L 583.987906 204.647528 
L 587.438741 204.590364 
L 590.889576 204.2694 
L 594.34041 203.608662 
L 597.791245 204.407831 
L 601.24208 204.120035 
L 604.692915 204.024066 
L 608.14375 204.052726 
L 611.594585 204.885787 
L 615.04542 203.749609 
L 618.496255 203.537095 
L 621.94709 203.561058 
L 625.397924 203.928978 
L 628.848759 203.104765 
L 635.750429 202.692416 
L 639.201264 202.752808 
L 642.652099 201.21222 
L 646.102934 201.329518 
L 649.553769 201.1405 
L 653.004603 200.338827 
L 656.455438 198.93155 
L 659.906273 198.97788 
L 666.807943 197.525986 
L 670.258778 197.819816 
L 677.160448 197.520779 
L 680.611282 198.035369 
L 684.062117 197.48042 
L 687.512952 197.943612 
L 694.414622 199.415655 
L 697.865457 199.555414 
L 701.316292 201.064367 
L 704.767127 201.534511 
L 708.217962 201.249583 
L 711.668796 202.288446 
L 715.119631 201.971874 
L 718.570466 201.818777 
L 722.021301 201.385676 
L 725.472136 202.678032 
L 728.922971 202.254596 
L 732.373806 201.650396 
L 735.824641 202.095433 
L 746.177145 201.424838 
L 749.62798 202.961428 
L 753.078815 203.992689 
L 756.52965 205.326412 
L 763.43132 206.601557 
L 766.882154 206.673873 
L 773.783824 203.874098 
L 777.234659 203.018285 
L 780.685494 202.7465 
L 784.136329 203.335186 
L 791.037999 204.758146 
L 794.488833 204.729844 
L 797.939668 205.008933 
L 801.390503 204.122267 
L 804.841338 204.509624 
L 808.292173 204.662276 
L 811.743008 205.193089 
L 815.193843 204.996218 
L 818.644678 205.574711 
L 822.095513 205.226642 
L 825.546347 204.630293 
L 828.997182 204.64584 
L 832.448017 205.374279 
L 835.898852 205.076438 
L 839.349687 204.169435 
L 842.800522 204.751935 
L 846.251357 204.439175 
L 853.153026 203.515005 
L 860.054696 204.50892 
L 863.505531 203.922197 
L 866.956366 203.555484 
L 873.858036 203.966693 
L 877.308871 203.783347 
L 880.759705 204.892856 
L 887.661375 206.205618 
L 891.11221 206.277895 
L 894.563045 205.364707 
L 898.01388 204.008359 
L 901.464715 203.277224 
L 904.91555 203.047597 
L 908.366385 203.400297 
L 911.817219 204.074888 
L 915.268054 204.273077 
L 918.718889 203.309229 
L 922.169724 203.07652 
L 925.620559 202.552382 
L 932.522229 203.109058 
L 935.973064 203.87259 
L 939.423898 202.903242 
L 942.874733 202.495096 
L 946.325568 200.662235 
L 949.776403 198.989274 
L 953.227238 197.106854 
L 956.678073 196.686652 
L 960.128908 196.454077 
L 963.579743 195.983185 
L 967.030577 196.646292 
L 970.481412 197.461267 
L 973.932247 196.966626 
L 977.383082 195.115706 
L 980.833917 195.446367 
L 984.284752 194.687913 
L 991.186422 192.935153 
L 994.637256 193.725357 
L 998.088091 192.824577 
L 1001.538926 192.053216 
L 1004.989761 191.66367 
L 1008.440596 191.413506 
L 1011.891431 190.343422 
L 1015.342266 191.204331 
L 1018.793101 191.088442 
L 1022.243936 191.538789 
L 1025.69477 191.582804 
L 1029.145605 192.533106 
L 1032.59644 191.739614 
L 1036.047275 192.726453 
L 1039.49811 192.885817 
L 1042.948945 194.103137 
L 1046.39978 194.359102 
L 1049.850615 194.377394 
L 1053.301449 195.093431 
L 1056.752284 194.14434 
L 1060.203119 193.85871 
L 1063.653954 193.714987 
L 1067.104789 195.578805 
L 1070.555624 195.522302 
L 1074.006459 198.232464 
L 1077.457294 199.135034 
L 1080.908128 200.661893 
L 1084.358963 201.780342 
L 1087.809798 204.064666 
L 1091.260633 205.657375 
L 1094.711468 208.759026 
L 1098.162303 212.479825 
L 1101.613138 216.000263 
L 1105.063973 219.933589 
L 1108.514808 223.5957 
L 1111.965642 226.482908 
L 1115.416477 192.696656 
L 1115.416477 192.696656 
" style="fill:none;stroke:#947383;stroke-linecap:square;stroke-width:2;"/>
   </g>
   <g id="line2d_22">
    <path clip-path="url(#p22455d4f1f)" d="M 152.633546 226.961238 
L 156.084381 228.918874 
L 190.59273 228.816218 
L 200.945234 228.607285 
L 204.396069 228.607285 
L 207.846904 228.495339 
L 218.199409 228.520635 
L 221.650244 228.445726 
L 225.101078 228.557672 
L 228.551913 228.358753 
L 235.453583 228.394367 
L 242.355253 228.22182 
L 245.806088 228.387589 
L 259.609427 227.42593 
L 263.060262 226.894205 
L 269.961932 226.355935 
L 273.412767 225.764234 
L 276.863602 224.883558 
L 283.765271 225.130121 
L 287.216106 224.575491 
L 290.666941 224.845689 
L 294.117776 225.519312 
L 297.568611 225.061977 
L 301.019446 224.456507 
L 304.470281 225.094391 
L 307.921115 224.502453 
L 311.37195 223.785962 
L 318.27362 223.981536 
L 321.724455 223.661377 
L 325.17529 224.082872 
L 328.626125 224.633013 
L 335.527795 225.25386 
L 345.880299 224.998087 
L 349.331134 222.951734 
L 352.781969 223.143903 
L 356.232804 222.974671 
L 359.683639 222.631634 
L 363.134474 221.918113 
L 366.585308 222.862915 
L 370.036143 221.994021 
L 373.486978 222.028415 
L 380.388648 222.876748 
L 383.839483 222.829316 
L 390.741153 221.608222 
L 394.191987 221.426251 
L 397.642822 220.354798 
L 401.093657 220.835702 
L 404.544492 220.711111 
L 407.995327 219.718882 
L 411.446162 217.892419 
L 414.896997 216.253241 
L 418.347832 213.672157 
L 421.798667 211.524865 
L 425.249501 211.697394 
L 428.700336 211.141161 
L 432.151171 211.914645 
L 435.602006 211.182202 
L 439.052841 211.081103 
L 442.503676 208.063699 
L 445.954511 202.299912 
L 449.405346 201.180283 
L 452.85618 199.623871 
L 456.307015 197.306916 
L 459.75785 197.45118 
L 463.208685 202.116051 
L 466.65952 199.044663 
L 470.110355 198.846372 
L 473.56119 198.163821 
L 477.012025 198.210485 
L 480.462859 196.079877 
L 483.913694 196.482332 
L 487.364529 196.403852 
L 490.815364 198.913378 
L 494.266199 200.217696 
L 497.717034 199.583724 
L 501.167869 200.063504 
L 504.618704 201.10519 
L 508.069538 201.043156 
L 511.520373 199.642378 
L 514.971208 203.024821 
L 518.422043 205.343111 
L 521.872878 205.657783 
L 525.323713 205.301772 
L 528.774548 204.463875 
L 532.225383 203.013839 
L 535.676218 202.151402 
L 539.127052 201.437002 
L 542.577887 201.380498 
L 549.479557 202.538047 
L 552.930392 202.480559 
L 556.381227 204.480038 
L 559.832062 205.441181 
L 566.733731 208.882215 
L 570.184566 209.180424 
L 573.635401 208.682717 
L 577.086236 209.220333 
L 580.537071 209.90178 
L 583.987906 208.339569 
L 587.438741 209.202992 
L 590.889576 209.496727 
L 594.34041 208.934403 
L 597.791245 208.157324 
L 601.24208 208.897529 
L 604.692915 208.335439 
L 608.14375 208.247489 
L 611.594585 207.736295 
L 615.04542 207.865179 
L 618.496255 207.549705 
L 621.94709 208.414556 
L 625.397924 207.8794 
L 628.848759 209.023287 
L 632.299594 208.488087 
L 635.750429 207.393416 
L 639.201264 205.850897 
L 642.652099 205.279708 
L 646.102934 205.384192 
L 649.553769 204.089931 
L 653.004603 204.208354 
L 656.455438 204.135407 
L 659.906273 203.243582 
L 663.357108 202.141351 
L 666.807943 202.433722 
L 670.258778 203.124302 
L 673.709613 202.978987 
L 677.160448 204.103442 
L 684.062117 204.963468 
L 687.512952 204.683452 
L 690.963787 204.568774 
L 694.414622 204.627986 
L 697.865457 203.076613 
L 701.316292 202.775153 
L 704.767127 202.707241 
L 708.217962 203.214075 
L 715.119631 204.527133 
L 718.570466 204.805833 
L 722.021301 204.807649 
L 725.472136 204.173991 
L 728.922971 204.2392 
L 732.373806 204.560791 
L 735.824641 204.408723 
L 739.275475 204.04252 
L 742.72631 205.043281 
L 746.177145 203.973202 
L 756.52965 205.319518 
L 763.43132 204.856279 
L 766.882154 205.659771 
L 770.332989 205.714473 
L 773.783824 205.595192 
L 777.234659 206.170776 
L 780.685494 207.149013 
L 784.136329 205.814633 
L 787.587164 205.837739 
L 791.037999 205.588112 
L 794.488833 204.854423 
L 797.939668 204.301226 
L 801.390503 205.39786 
L 804.841338 205.373072 
L 808.292173 205.560619 
L 811.743008 205.347926 
L 815.193843 206.536405 
L 818.644678 205.972443 
L 822.095513 206.55246 
L 825.546347 206.81462 
L 828.997182 206.776619 
L 832.448017 206.022298 
L 835.898852 205.646481 
L 842.800522 203.343627 
L 846.251357 204.030651 
L 849.702192 203.679838 
L 853.153026 204.161772 
L 856.603861 205.28076 
L 860.054696 205.012226 
L 863.505531 205.113025 
L 866.956366 204.933987 
L 873.858036 203.475521 
L 877.308871 204.846576 
L 880.759705 204.297644 
L 884.21054 203.898021 
L 887.661375 204.292262 
L 891.11221 204.248385 
L 894.563045 203.839628 
L 898.01388 204.417902 
L 901.464715 205.110229 
L 904.91555 205.013978 
L 908.366385 204.641559 
L 911.817219 204.082765 
L 915.268054 203.846882 
L 918.718889 203.817975 
L 922.169724 204.508423 
L 929.071394 206.127976 
L 932.522229 205.914753 
L 935.973064 206.065689 
L 939.423898 205.25701 
L 942.874733 205.263502 
L 946.325568 205.778074 
L 949.776403 206.165091 
L 953.227238 205.687263 
L 956.678073 206.065996 
L 960.128908 206.00969 
L 963.579743 205.329298 
L 970.481412 205.097901 
L 977.383082 204.23079 
L 980.833917 204.700832 
L 984.284752 204.95615 
L 987.735587 205.403562 
L 991.186422 205.257228 
L 994.637256 206.174378 
L 998.088091 206.388092 
L 1001.538926 206.339969 
L 1004.989761 206.589143 
L 1008.440596 207.486393 
L 1011.891431 207.273569 
L 1015.342266 207.728356 
L 1018.793101 208.759739 
L 1022.243936 209.050954 
L 1025.69477 209.490894 
L 1029.145605 209.350376 
L 1032.59644 208.880533 
L 1036.047275 208.071275 
L 1039.49811 208.918392 
L 1042.948945 208.959631 
L 1046.39978 209.85703 
L 1049.850615 209.693674 
L 1053.301449 209.652624 
L 1056.752284 209.32703 
L 1060.203119 208.526884 
L 1063.653954 209.63505 
L 1067.104789 211.032754 
L 1074.006459 212.781883 
L 1077.457294 213.393237 
L 1080.908128 210.542644 
L 1087.809798 210.361554 
L 1091.260633 209.76195 
L 1094.711468 210.877412 
L 1098.162303 215.043385 
L 1101.613138 214.272366 
L 1108.514808 221.063403 
L 1111.965642 219.743994 
L 1111.965642 219.743994 
" style="fill:none;stroke:#96c6ad;stroke-linecap:square;stroke-width:2;"/>
   </g>
   <g id="line2d_23">
    <path clip-path="url(#p22455d4f1f)" d="M 100.871023 212.524727 
L 104.321858 210.43193 
L 107.772692 205.417094 
L 111.223527 200.196732 
L 114.674362 204.962891 
L 118.125197 207.798585 
L 121.576032 209.01005 
L 125.026867 212.92681 
L 128.477702 215.297578 
L 131.928537 215.357498 
L 135.379372 212.472887 
L 138.830206 211.364156 
L 142.281041 204.547736 
L 145.731876 199.610457 
L 149.182711 198.004552 
L 152.633546 198.50998 
L 156.084381 195.219182 
L 162.986051 198.440174 
L 166.436885 197.903925 
L 169.88772 195.559216 
L 173.338555 197.434418 
L 176.78939 196.422487 
L 180.240225 190.93868 
L 183.69106 191.581625 
L 187.141895 196.2768 
L 190.59273 196.33763 
L 194.043564 193.742784 
L 197.494399 196.609654 
L 200.945234 187.486801 
L 204.396069 178.972296 
L 211.297739 166.651153 
L 214.748574 159.639777 
L 221.650244 149.660026 
L 225.101078 138.889394 
L 228.551913 138.437219 
L 232.002748 142.380317 
L 235.453583 137.961145 
L 238.904418 137.206624 
L 242.355253 141.766062 
L 245.806088 141.442729 
L 249.256923 134.785785 
L 252.707757 128.437213 
L 256.158592 133.477399 
L 259.609427 137.409642 
L 263.060262 136.811321 
L 266.511097 139.54803 
L 269.961932 148.500556 
L 273.412767 146.844056 
L 276.863602 147.745157 
L 280.314436 153.08877 
L 283.765271 156.787918 
L 287.216106 158.439706 
L 290.666941 145.182882 
L 294.117776 141.988813 
L 297.568611 139.168972 
L 301.019446 129.696974 
L 304.470281 132.013338 
L 307.921115 142.084755 
L 311.37195 141.156475 
L 314.822785 144.088144 
L 318.27362 151.289043 
L 321.724455 148.199959 
L 325.17529 148.988349 
L 328.626125 152.604735 
L 332.07696 147.611787 
L 335.527795 148.314778 
L 338.978629 152.740132 
L 342.429464 150.639356 
L 345.880299 147.566785 
L 349.331134 143.612579 
L 352.781969 145.645778 
L 356.232804 142.584367 
L 359.683639 144.124249 
L 363.134474 142.895669 
L 366.585308 147.845374 
L 370.036143 138.634153 
L 373.486978 132.699942 
L 376.937813 132.976513 
L 380.388648 137.978259 
L 383.839483 137.740256 
L 387.290318 141.197128 
L 390.741153 145.059974 
L 394.191987 142.382403 
L 397.642822 134.754105 
L 401.093657 133.942212 
L 404.544492 131.083608 
L 407.995327 125.939826 
L 411.446162 126.727994 
L 414.896997 134.545172 
L 418.347832 126.347515 
L 421.798667 125.092098 
L 425.249501 137.01781 
L 428.700336 139.21182 
L 432.151171 135.743591 
L 435.602006 147.872818 
L 439.052841 155.159673 
L 442.503676 142.764302 
L 445.954511 131.034504 
L 449.405346 134.810556 
L 452.85618 128.16356 
L 456.307015 122.980314 
L 459.75785 129.278787 
L 463.208685 141.51276 
L 466.65952 131.945807 
L 470.110355 135.139585 
L 473.56119 138.07325 
L 477.012025 143.897339 
L 480.462859 144.738239 
L 483.913694 154.17834 
L 487.364529 154.552721 
L 490.815364 152.854222 
L 494.266199 150.040781 
L 497.717034 155.58838 
L 501.167869 155.301132 
L 504.618704 161.21834 
L 508.069538 167.437521 
L 511.520373 166.835379 
L 514.971208 162.028033 
L 518.422043 162.020865 
L 521.872878 159.504085 
L 525.323713 160.099446 
L 528.774548 172.165302 
L 532.225383 174.885402 
L 535.676218 182.853541 
L 539.127052 183.458245 
L 542.577887 186.57903 
L 546.028722 182.15738 
L 549.479557 186.321382 
L 552.930392 179.253558 
L 556.381227 185.642933 
L 559.832062 184.373676 
L 563.282897 180.454848 
L 566.733731 170.031435 
L 570.184566 174.837695 
L 573.635401 172.279958 
L 577.086236 175.403843 
L 580.537071 173.057046 
L 583.987906 183.990454 
L 587.438741 186.080358 
L 590.889576 186.543135 
L 594.34041 179.679593 
L 597.791245 188.101617 
L 601.24208 185.548542 
L 604.692915 188.041401 
L 608.14375 188.208921 
L 611.594585 196.287222 
L 615.04542 191.497336 
L 618.496255 191.581057 
L 621.94709 187.823826 
L 625.397924 178.465058 
L 628.848759 172.36202 
L 632.299594 177.942649 
L 635.750429 186.071911 
L 639.201264 191.466304 
L 642.652099 202.57143 
L 646.102934 204.912402 
L 649.553769 207.009509 
L 653.004603 202.196411 
L 656.455438 197.914876 
L 659.906273 201.525276 
L 663.357108 209.486931 
L 666.807943 210.04985 
L 673.709613 218.520556 
L 677.160448 219.87431 
L 680.611282 216.511287 
L 684.062117 213.96681 
L 687.512952 211.260418 
L 690.963787 207.9067 
L 694.414622 204.003294 
L 697.865457 202.209611 
L 701.316292 202.655429 
L 704.767127 202.978718 
L 708.217962 204.162326 
L 711.668796 202.687395 
L 715.119631 205.44034 
L 718.570466 204.196416 
L 722.021301 203.686784 
L 725.472136 202.527286 
L 728.922971 202.094315 
L 732.373806 200.659558 
L 735.824641 198.845722 
L 739.275475 196.73306 
L 742.72631 194.085258 
L 746.177145 193.550738 
L 749.62798 190.709668 
L 753.078815 193.045046 
L 756.52965 192.158567 
L 759.980485 194.548029 
L 763.43132 195.14513 
L 766.882154 194.112885 
L 770.332989 191.09851 
L 773.783824 186.526913 
L 777.234659 181.698496 
L 780.685494 175.228388 
L 784.136329 163.783346 
L 787.587164 158.756028 
L 791.037999 161.160316 
L 794.488833 159.232926 
L 797.939668 159.565164 
L 801.390503 168.929845 
L 804.841338 168.873338 
L 808.292173 171.929159 
L 811.743008 169.181963 
L 815.193843 168.237642 
L 818.644678 170.289327 
L 822.095513 179.056259 
L 825.546347 173.598898 
L 828.997182 179.42217 
L 832.448017 183.099156 
L 835.898852 176.633958 
L 839.349687 174.219378 
L 842.800522 175.309261 
L 846.251357 168.841966 
L 849.702192 169.111323 
L 853.153026 173.745983 
L 856.603861 170.100006 
L 860.054696 170.189754 
L 863.505531 173.606883 
L 866.956366 150.277109 
L 870.407201 137.918409 
L 873.858036 140.29611 
L 877.308871 141.126875 
L 880.759705 145.664421 
L 884.21054 168.176359 
L 887.661375 181.697637 
L 891.11221 180.183151 
L 894.563045 181.918987 
L 898.01388 177.132453 
L 901.464715 174.727716 
L 904.91555 173.604631 
L 908.366385 173.399063 
L 911.817219 169.091758 
L 915.268054 169.978322 
L 918.718889 172.787385 
L 922.169724 173.900204 
L 925.620559 173.416404 
L 929.071394 178.319021 
L 932.522229 178.504779 
L 935.973064 177.15562 
L 939.423898 176.031774 
L 942.874733 183.391146 
L 946.325568 184.063212 
L 949.776403 185.617947 
L 953.227238 188.851005 
L 956.678073 187.414983 
L 960.128908 178.794708 
L 963.579743 174.784693 
L 967.030577 175.706952 
L 970.481412 175.289913 
L 973.932247 179.386249 
L 977.383082 182.19435 
L 980.833917 178.630744 
L 984.284752 180.09652 
L 987.735587 181.819988 
L 991.186422 184.357989 
L 994.637256 189.353526 
L 998.088091 191.738472 
L 1001.538926 190.649465 
L 1004.989761 192.266787 
L 1008.440596 188.421651 
L 1011.891431 184.146789 
L 1015.342266 192.359438 
L 1018.793101 192.719923 
L 1022.243936 190.583789 
L 1025.69477 189.86002 
L 1029.145605 192.49429 
L 1032.59644 191.84518 
L 1036.047275 193.47034 
L 1039.49811 194.17642 
L 1042.948945 193.508085 
L 1046.39978 190.979631 
L 1049.850615 189.879604 
L 1053.301449 187.220007 
L 1056.752284 186.98589 
L 1060.203119 182.668264 
L 1063.653954 178.853113 
L 1067.104789 181.311206 
L 1070.555624 184.754159 
L 1074.006459 185.879175 
L 1077.457294 193.448041 
L 1080.908128 199.943371 
L 1084.358963 201.839861 
L 1087.809798 206.669203 
L 1091.260633 206.307737 
L 1094.711468 201.852007 
L 1098.162303 205.83349 
L 1101.613138 208.197096 
L 1105.063973 206.740406 
L 1105.063973 206.740406 
" style="fill:none;stroke:#525886;stroke-linecap:square;stroke-width:2;"/>
   </g>
   <g id="line2d_24">
    <path clip-path="url(#p22455d4f1f)" d="M 159.535216 228.858521 
L 166.436885 228.920378 
L 183.69106 228.901996 
L 194.043564 228.414609 
L 197.494399 228.329267 
L 200.945234 227.888212 
L 204.396069 227.828084 
L 207.846904 227.545027 
L 211.297739 226.506291 
L 214.748574 225.670278 
L 218.199409 225.186526 
L 221.650244 225.150772 
L 225.101078 224.782607 
L 232.002748 224.918329 
L 235.453583 224.72489 
L 238.904418 223.423847 
L 245.806088 220.305629 
L 249.256923 216.770572 
L 252.707757 216.368479 
L 256.158592 213.790085 
L 259.609427 212.41324 
L 263.060262 212.440215 
L 266.511097 213.478074 
L 269.961932 211.434179 
L 273.412767 211.357214 
L 276.863602 208.019419 
L 280.314436 207.382421 
L 283.765271 206.931711 
L 287.216106 205.693803 
L 290.666941 205.566585 
L 294.117776 208.37377 
L 297.568611 207.703442 
L 301.019446 204.181186 
L 304.470281 203.238883 
L 307.921115 203.763482 
L 311.37195 203.428787 
L 314.822785 202.459716 
L 318.27362 205.466782 
L 321.724455 207.225719 
L 325.17529 205.169155 
L 328.626125 204.77315 
L 332.07696 203.767154 
L 335.527795 200.504832 
L 338.978629 198.97473 
L 345.880299 199.561954 
L 349.331134 201.486163 
L 352.781969 202.404107 
L 356.232804 201.595704 
L 359.683639 201.715764 
L 363.134474 201.018697 
L 366.585308 198.927113 
L 370.036143 200.600228 
L 373.486978 201.318503 
L 376.937813 202.862047 
L 380.388648 203.984599 
L 383.839483 206.134592 
L 387.290318 206.128743 
L 390.741153 207.301525 
L 394.191987 205.573033 
L 397.642822 205.763531 
L 401.093657 206.393137 
L 404.544492 207.212706 
L 407.995327 206.763807 
L 411.446162 209.303349 
L 418.347832 210.975696 
L 421.798667 212.622339 
L 425.249501 214.608381 
L 428.700336 212.950063 
L 435.602006 211.663622 
L 439.052841 210.448845 
L 442.503676 209.11626 
L 445.954511 211.789738 
L 449.405346 214.222591 
L 452.85618 215.358343 
L 456.307015 217.408275 
L 459.75785 219.242371 
L 463.208685 218.705341 
L 470.110355 216.664937 
L 473.56119 216.022609 
L 477.012025 216.696531 
L 480.462859 217.234787 
L 483.913694 218.022756 
L 487.364529 217.224444 
L 490.815364 217.662362 
L 494.266199 217.613101 
L 497.717034 216.509824 
L 501.167869 216.69418 
L 504.618704 218.911773 
L 508.069538 218.319891 
L 511.520373 217.170479 
L 518.422043 217.772204 
L 521.872878 217.239711 
L 528.774548 217.797462 
L 532.225383 218.340572 
L 535.676218 217.447155 
L 539.127052 215.84348 
L 542.577887 214.562545 
L 546.028722 211.75193 
L 549.479557 208.44645 
L 552.930392 207.28812 
L 556.381227 206.978983 
L 559.832062 207.605722 
L 563.282897 208.848694 
L 566.733731 211.918372 
L 570.184566 213.059775 
L 573.635401 215.2452 
L 577.086236 214.152882 
L 580.537071 216.795947 
L 583.987906 217.533759 
L 587.438741 217.891395 
L 590.889576 218.060393 
L 594.34041 219.941751 
L 601.24208 220.462882 
L 604.692915 221.040835 
L 608.14375 220.719249 
L 611.594585 221.230967 
L 615.04542 220.795363 
L 618.496255 221.125621 
L 621.94709 221.235909 
L 625.397924 221.641078 
L 628.848759 221.58028 
L 632.299594 221.82873 
L 639.201264 221.696316 
L 642.652099 221.750809 
L 646.102934 222.370932 
L 649.553769 222.506765 
L 653.004603 222.447108 
L 656.455438 222.06058 
L 663.357108 222.294223 
L 666.807943 221.528384 
L 670.258778 220.113391 
L 673.709613 218.465475 
L 677.160448 217.828102 
L 680.611282 216.586801 
L 684.062117 217.253777 
L 687.512952 218.874578 
L 690.963787 220.720669 
L 697.865457 222.397022 
L 701.316292 222.303071 
L 704.767127 222.427187 
L 711.668796 223.309028 
L 715.119631 223.668841 
L 718.570466 224.171429 
L 725.472136 224.267504 
L 728.922971 223.643069 
L 732.373806 223.634515 
L 735.824641 223.47625 
L 739.275475 223.053248 
L 742.72631 222.96703 
L 746.177145 223.622989 
L 749.62798 223.332141 
L 753.078815 223.337285 
L 756.52965 223.674073 
L 759.980485 223.67538 
L 763.43132 222.513913 
L 766.882154 221.98081 
L 773.783824 221.173151 
L 777.234659 220.674688 
L 784.136329 219.956178 
L 787.587164 219.107064 
L 794.488833 219.416516 
L 797.939668 220.276155 
L 801.390503 220.849969 
L 804.841338 220.630594 
L 808.292173 219.600496 
L 811.743008 219.098594 
L 815.193843 218.904185 
L 818.644678 219.686932 
L 822.095513 220.647548 
L 825.546347 220.699979 
L 828.997182 221.426298 
L 832.448017 221.772942 
L 835.898852 221.130164 
L 839.349687 220.942558 
L 842.800522 221.439503 
L 846.251357 220.697444 
L 849.702192 220.311655 
L 853.153026 220.163099 
L 856.603861 219.669858 
L 860.054696 219.501104 
L 863.505531 219.934331 
L 866.956366 220.185726 
L 870.407201 220.133457 
L 873.858036 220.318974 
L 877.308871 219.30721 
L 880.759705 218.801857 
L 884.21054 217.67566 
L 887.661375 217.306219 
L 891.11221 217.599072 
L 894.563045 218.008366 
L 898.01388 217.913654 
L 901.464715 219.019729 
L 904.91555 219.970291 
L 908.366385 220.170872 
L 911.817219 221.350526 
L 915.268054 222.29106 
L 918.718889 222.038754 
L 922.169724 221.116177 
L 925.620559 220.818391 
L 929.071394 220.787434 
L 932.522229 220.402789 
L 935.973064 220.176535 
L 939.423898 220.816433 
L 942.874733 221.271401 
L 949.776403 221.4334 
L 953.227238 222.211576 
L 956.678073 222.651189 
L 960.128908 222.850216 
L 963.579743 223.500241 
L 967.030577 223.914982 
L 970.481412 223.359526 
L 973.932247 222.972897 
L 977.383082 223.466469 
L 984.284752 222.250672 
L 987.735587 222.677526 
L 991.186422 222.753765 
L 994.637256 222.056062 
L 1001.538926 221.95938 
L 1004.989761 221.414382 
L 1008.440596 220.552059 
L 1011.891431 220.308367 
L 1015.342266 220.216561 
L 1018.793101 219.894213 
L 1022.243936 219.442042 
L 1025.69477 219.88156 
L 1029.145605 219.380792 
L 1036.047275 218.99199 
L 1039.49811 219.318265 
L 1042.948945 218.706695 
L 1046.39978 219.142689 
L 1049.850615 219.445405 
L 1053.301449 220.090388 
L 1056.752284 220.092504 
L 1060.203119 220.714947 
L 1063.653954 220.499831 
L 1067.104789 220.548801 
L 1070.555624 220.820296 
L 1074.006459 221.405566 
L 1077.457294 222.127487 
L 1080.908128 223.750515 
L 1084.358963 224.930369 
L 1087.809798 225.733532 
L 1091.260633 226.77263 
L 1094.711468 227.338581 
L 1101.613138 227.687577 
L 1101.613138 227.687577 
" style="fill:none;stroke:#937252;stroke-linecap:square;stroke-width:2;"/>
   </g>
   <g id="line2d_25">
    <path clip-path="url(#p22455d4f1f)" d="M 259.609427 208.615089 
L 263.060262 221.883509 
L 266.511097 216.296806 
L 269.961932 216.296806 
L 273.412767 219.290706 
L 276.863602 219.290706 
L 280.314436 218.91025 
L 283.765271 224.496953 
L 287.216106 224.496953 
L 290.666941 228.066754 
L 294.117776 228.066754 
L 297.568611 228.447211 
L 304.470281 228.447211 
L 307.921115 228.96 
L 325.17529 228.96 
L 328.626125 228.753889 
L 342.429464 228.753889 
L 345.880299 228.96 
L 366.585308 228.96 
L 370.036143 227.75378 
L 373.486978 227.75378 
L 376.937813 227.525014 
L 383.839483 227.525014 
L 387.290318 228.731234 
L 390.741153 228.731234 
L 394.191987 228.96 
L 418.347832 228.96 
L 421.798667 228.40133 
L 435.602006 228.40133 
L 439.052841 228.96 
L 501.167869 228.96 
L 504.618704 228.57471 
L 508.069538 228.57471 
L 511.520373 228.085552 
L 514.971208 225.684028 
L 518.422043 225.684028 
L 521.872878 226.069318 
L 525.323713 226.069318 
L 528.774548 226.305141 
L 532.225383 228.706665 
L 542.577887 228.706665 
L 546.028722 228.96 
L 549.479557 228.799171 
L 552.930392 228.419395 
L 559.832062 227.89691 
L 563.282897 227.89691 
L 566.733731 227.579598 
L 570.184566 227.959374 
L 573.635401 228.188634 
L 577.086236 228.214485 
L 580.537071 227.949117 
L 583.987906 228.427258 
L 587.438741 228.427258 
L 590.889576 228.076937 
L 597.791245 228.315814 
L 601.24208 228.315814 
L 604.692915 227.698678 
L 608.14375 227.511545 
L 611.594585 227.119729 
L 615.04542 226.866691 
L 618.496255 226.274241 
L 621.94709 225.80962 
L 625.397924 225.154408 
L 628.848759 224.773834 
L 632.299594 224.570204 
L 635.750429 224.115147 
L 639.201264 223.86451 
L 642.652099 224.218068 
L 646.102934 223.73348 
L 649.553769 222.964439 
L 653.004603 222.967873 
L 656.455438 223.088539 
L 659.906273 222.688574 
L 663.357108 222.155212 
L 666.807943 222.919763 
L 673.709613 222.641603 
L 677.160448 222.077202 
L 680.611282 223.770998 
L 684.062117 223.101911 
L 690.963787 225.430756 
L 694.414622 226.329565 
L 697.865457 225.897738 
L 701.316292 226.736433 
L 704.767127 226.319351 
L 708.217962 226.179832 
L 711.668796 226.71593 
L 715.119631 227.058944 
L 728.922971 227.725881 
L 735.824641 227.760264 
L 739.275475 227.523256 
L 742.72631 225.198283 
L 746.177145 224.278606 
L 756.52965 224.038381 
L 759.980485 226.534008 
L 763.43132 227.265743 
L 766.882154 226.398564 
L 770.332989 225.257209 
L 773.783824 224.952723 
L 777.234659 224.402737 
L 780.685494 224.029375 
L 784.136329 223.964993 
L 787.587164 224.4913 
L 791.037999 224.101794 
L 794.488833 224.259369 
L 797.939668 224.159962 
L 801.390503 223.939402 
L 804.841338 224.280394 
L 808.292173 225.262101 
L 811.743008 225.086373 
L 815.193843 225.425966 
L 818.644678 226.123168 
L 822.095513 226.391609 
L 825.546347 226.032685 
L 828.997182 225.181742 
L 832.448017 225.311407 
L 835.898852 225.790308 
L 842.800522 225.681456 
L 846.251357 226.579356 
L 853.153026 225.644896 
L 860.054696 225.699122 
L 863.505531 225.352022 
L 866.956366 226.227464 
L 870.407201 226.540671 
L 873.858036 226.085586 
L 877.308871 225.071259 
L 880.759705 225.485919 
L 884.21054 223.918643 
L 887.661375 223.807856 
L 891.11221 223.173292 
L 894.563045 223.646737 
L 898.01388 222.746438 
L 904.91555 222.693774 
L 911.817219 224.538435 
L 915.268054 225.380802 
L 918.718889 226.369213 
L 922.169724 226.290993 
L 925.620559 225.723639 
L 929.071394 225.555172 
L 932.522229 225.82926 
L 935.973064 225.986467 
L 939.423898 226.402921 
L 942.874733 227.256214 
L 946.325568 226.96634 
L 949.776403 225.950097 
L 953.227238 224.003166 
L 956.678073 221.895018 
L 960.128908 221.022585 
L 963.579743 221.01381 
L 967.030577 221.226858 
L 970.481412 222.010282 
L 973.932247 223.756909 
L 977.383082 222.043797 
L 980.833917 220.583606 
L 984.284752 221.211242 
L 987.735587 216.209907 
L 991.186422 216.77754 
L 994.637256 219.239734 
L 998.088091 221.540142 
L 1001.538926 221.953166 
L 1004.989761 228.040534 
L 1008.440596 225.336143 
L 1015.342266 225.340338 
L 1018.793101 222.17176 
L 1022.243936 222.703827 
L 1025.69477 225.408219 
L 1029.145605 225.046528 
L 1032.59644 224.260252 
L 1036.047275 224.683639 
L 1039.49811 220.809648 
L 1042.948945 220.809648 
L 1046.39978 219.24699 
L 1049.850615 217.444307 
L 1053.301449 219.509066 
L 1056.752284 222.483503 
L 1056.752284 222.483503 
" style="fill:none;stroke:#d18cad;stroke-linecap:square;stroke-width:2;"/>
   </g>
   <g id="line2d_26">
    <path clip-path="url(#p22455d4f1f)" d="M 225.101078 69.738959 
L 228.551913 175.88632 
L 238.904418 175.88632 
L 242.355253 228.96 
L 249.256923 228.96 
L 252.707757 175.88632 
L 256.158592 175.88632 
L 259.609427 145.558503 
L 263.060262 92.484822 
L 266.511097 71.25535 
L 269.961932 124.329031 
L 273.412767 119.504151 
L 276.863602 143.934892 
L 280.314436 190.160356 
L 283.765271 206.335191 
L 287.216106 206.335191 
L 290.666941 200.887746 
L 294.117776 206.784822 
L 297.568611 208.808159 
L 301.019446 209.037915 
L 304.470281 207.238807 
L 307.921115 213.579748 
L 311.37195 211.921196 
L 314.822785 208.941123 
L 318.27362 213.766003 
L 321.724455 212.026865 
L 325.17529 215.958249 
L 328.626125 213.534211 
L 332.07696 221.339164 
L 335.527795 219.172891 
L 338.978629 222.711137 
L 342.429464 222.711137 
L 345.880299 226.793727 
L 349.331134 226.793727 
L 352.781969 228.96 
L 356.232804 227.421632 
L 359.683639 227.421632 
L 363.134474 222.114264 
L 366.585308 220.770627 
L 370.036143 215.715991 
L 373.486978 213.322975 
L 376.937813 208.853612 
L 380.388648 209.487826 
L 383.839483 208.144188 
L 387.290318 196.438715 
L 390.741153 197.648372 
L 394.191987 194.397926 
L 397.642822 199.07108 
L 401.093657 199.523674 
L 404.544492 209.087352 
L 407.995327 210.097025 
L 411.446162 213.800447 
L 414.896997 210.58386 
L 418.347832 210.485632 
L 421.798667 212.566528 
L 425.249501 212.593704 
L 428.700336 213.266866 
L 432.151171 211.428817 
L 435.602006 207.661303 
L 439.052841 207.839752 
L 442.503676 204.469994 
L 445.954511 207.813218 
L 449.405346 206.302038 
L 452.85618 206.706749 
L 456.307015 206.235053 
L 459.75785 206.705252 
L 463.208685 199.081408 
L 466.65952 198.06527 
L 470.110355 197.366563 
L 473.56119 196.429579 
L 477.012025 197.505013 
L 480.462859 202.108403 
L 483.913694 202.896927 
L 487.364529 199.042635 
L 490.815364 193.004543 
L 494.266199 192.377935 
L 497.717034 186.110494 
L 501.167869 190.425777 
L 504.618704 196.910397 
L 508.069538 201.582695 
L 511.520373 199.954649 
L 514.971208 204.503821 
L 518.422043 204.657575 
L 521.872878 201.073002 
L 525.323713 202.95229 
L 528.774548 202.496376 
L 532.225383 205.153777 
L 535.676218 199.436705 
L 539.127052 201.263251 
L 542.577887 197.121946 
L 546.028722 198.354729 
L 549.479557 196.395839 
L 552.930392 201.404524 
L 556.381227 200.109838 
L 559.832062 205.159054 
L 563.282897 205.899948 
L 566.733731 203.603003 
L 570.184566 203.189442 
L 573.635401 208.294191 
L 577.086236 206.635771 
L 580.537071 208.354347 
L 583.987906 214.08146 
L 587.438741 214.537737 
L 590.889576 208.23867 
L 594.34041 210.040039 
L 597.791245 207.725548 
L 601.24208 199.489977 
L 604.692915 198.627921 
L 608.14375 202.743727 
L 611.594585 206.484479 
L 615.04542 204.692078 
L 618.496255 211.519681 
L 621.94709 213.641139 
L 625.397924 217.000358 
L 628.848759 213.816248 
L 632.299594 216.790204 
L 635.750429 212.911139 
L 639.201264 214.641802 
L 642.652099 207.46634 
L 646.102934 210.237037 
L 649.553769 209.949662 
L 653.004603 214.769099 
L 656.455438 211.900251 
L 659.906273 217.054044 
L 663.357108 212.718261 
L 666.807943 211.562652 
L 670.258778 210.200121 
L 673.709613 205.359942 
L 677.160448 205.181953 
L 680.611282 204.375081 
L 684.062117 198.497558 
L 687.512952 195.040652 
L 690.963787 200.7563 
L 694.414622 197.785209 
L 697.865457 196.104392 
L 701.316292 202.7746 
L 704.767127 202.911742 
L 708.217962 196.739938 
L 711.668796 198.786531 
L 715.119631 203.116449 
L 718.570466 202.497557 
L 722.021301 205.898661 
L 725.472136 210.173625 
L 728.922971 207.936804 
L 732.373806 199.847103 
L 735.824641 193.238791 
L 739.275475 189.578956 
L 742.72631 186.729659 
L 746.177145 182.440876 
L 749.62798 190.342594 
L 753.078815 196.625531 
L 756.52965 188.251334 
L 759.980485 189.404145 
L 766.882154 186.47994 
L 770.332989 185.273616 
L 773.783824 189.746164 
L 777.234659 189.291961 
L 780.685494 195.736014 
L 784.136329 191.924395 
L 787.587164 198.385538 
L 791.037999 207.390789 
L 794.488833 204.677274 
L 797.939668 202.181891 
L 801.390503 203.575745 
L 804.841338 198.397825 
L 808.292173 184.838249 
L 815.193843 195.259185 
L 818.644678 203.300651 
L 822.095513 208.478571 
L 825.546347 222.953211 
L 828.997182 217.261251 
L 832.448017 219.729795 
L 839.349687 207.332362 
L 842.800522 205.533254 
L 846.251357 211.339351 
L 849.702192 203.864185 
L 853.153026 210.108147 
L 856.603861 210.95425 
L 860.054696 211.145064 
L 863.505531 207.197828 
L 866.956366 213.156603 
L 870.407201 210.898149 
L 873.858036 208.040335 
L 877.308871 191.957402 
L 880.759705 199.328746 
L 884.21054 184.923033 
L 887.661375 175.119288 
L 891.11221 174.677926 
L 894.563045 179.371517 
L 898.01388 164.510887 
L 901.464715 154.811214 
L 904.91555 166.873414 
L 908.366385 164.306551 
L 911.817219 165.17306 
L 915.268054 180.03369 
L 918.718889 198.334959 
L 922.169724 198.334959 
L 925.620559 209.508365 
L 929.071394 221.639492 
L 932.522229 221.639492 
L 935.973064 221.097233 
L 939.423898 217.975251 
L 942.874733 215.386291 
L 946.325568 211.454908 
L 949.776403 211.454908 
L 953.227238 219.317675 
L 956.678073 217.463999 
L 960.128908 216.62885 
L 963.579743 214.316272 
L 967.030577 211.194291 
L 970.481412 200.987814 
L 973.932247 200.066396 
L 977.383082 203.490504 
L 980.833917 201.193874 
L 984.284752 202.900557 
L 987.735587 210.158496 
L 991.186422 210.658248 
L 994.637256 207.408839 
L 998.088091 206.299672 
L 1001.538926 196.541563 
L 1004.989761 195.732673 
L 1008.440596 199.145933 
L 1011.891431 200.696984 
L 1015.342266 209.599228 
L 1018.793101 220.772634 
L 1022.243936 221.808336 
L 1025.69477 220.254153 
L 1029.145605 221.240112 
L 1032.59644 220.660787 
L 1036.047275 219.084341 
L 1039.49811 220.983221 
L 1042.948945 224.521466 
L 1046.39978 225.233864 
L 1049.850615 223.243601 
L 1053.301449 221.468025 
L 1053.301449 221.468025 
" style="fill:none;stroke:#a4a86f;stroke-linecap:square;stroke-width:2;"/>
   </g>
   <g id="line2d_27">
    <path clip-path="url(#p22455d4f1f)" d="M 159.535216 218.345264 
L 162.986051 228.96 
L 183.69106 228.96 
L 187.141895 217.165849 
L 197.494399 217.165849 
L 200.945234 209.000667 
L 204.396069 194.257978 
L 211.297739 194.257978 
L 214.748574 180.989558 
L 218.199409 189.15474 
L 221.650244 180.309127 
L 228.551913 180.309127 
L 232.002748 172.348074 
L 235.453583 148.223674 
L 238.904418 162.376656 
L 242.355253 143.644769 
L 245.806088 122.415297 
L 249.256923 134.799155 
L 252.707757 105.849875 
L 256.158592 127.079347 
L 259.609427 109.417854 
L 263.060262 89.367797 
L 266.511097 90.048229 
L 269.961932 120.376046 
L 273.412767 87.204996 
L 276.863602 85.385327 
L 280.314436 94.004129 
L 283.765271 63.570271 
L 287.216106 25.660499 
L 290.666941 58.831549 
L 294.117776 97.044599 
L 297.568611 121.540144 
L 301.019446 114.647458 
L 304.470281 129.811367 
L 307.921115 86.10363 
L 311.37195 47.50459 
L 314.822785 25.341954 
L 318.27362 17.76 
L 321.724455 27.869272 
L 325.17529 29.118065 
L 328.626125 60.640614 
L 332.07696 90.968432 
L 335.527795 144.042112 
L 338.978629 179.424565 
L 342.429464 221.883509 
L 345.880299 211.268773 
L 349.331134 158.195093 
L 352.781969 131.658253 
L 356.232804 110.428781 
L 359.683639 110.428781 
L 363.134474 128.120008 
L 366.585308 181.193688 
L 370.036143 207.730528 
L 373.486978 228.96 
L 376.937813 211.268773 
L 380.388648 206.443893 
L 383.839483 199.367403 
L 387.290318 199.367403 
L 390.741153 183.037039 
L 394.191987 200.728266 
L 397.642822 205.553146 
L 401.093657 200.835486 
L 404.544492 200.835486 
L 407.995327 217.165849 
L 411.446162 199.474622 
L 414.896997 182.714513 
L 418.347832 194.508664 
L 421.798667 170.920361 
L 425.249501 166.497555 
L 428.700336 184.188781 
L 432.151171 180.730346 
L 435.602006 180.730346 
L 439.052841 187.988285 
L 442.503676 184.829138 
L 445.954511 174.214402 
L 449.405346 194.432947 
L 452.85618 181.164526 
L 456.307015 191.757194 
L 459.75785 199.339149 
L 463.208685 208.295332 
L 466.65952 195.658742 
L 470.110355 208.927162 
L 473.56119 195.709971 
L 477.012025 189.075761 
L 480.462859 186.119211 
L 483.913694 198.755802 
L 487.364529 192.511839 
L 490.815364 204.061095 
L 494.266199 199.219915 
L 497.717034 195.454963 
L 501.167869 195.454963 
L 504.618704 199.109965 
L 508.069538 204.716487 
L 511.520373 213.159096 
L 514.971208 219.676916 
L 518.422043 219.676916 
L 521.872878 222.265876 
L 525.323713 224.064984 
L 528.774548 225.267639 
L 532.225383 225.36075 
L 535.676218 224.06627 
L 539.127052 222.32615 
L 542.577887 221.441588 
L 546.028722 223.271715 
L 549.479557 224.010281 
L 552.930392 221.766516 
L 556.381227 221.934083 
L 559.832062 222.818644 
L 563.282897 219.634223 
L 566.733731 220.66478 
L 570.184566 224.203026 
L 573.635401 225.775579 
L 577.086236 225.775579 
L 580.537071 228.003717 
L 583.987906 226.909415 
L 587.438741 226.206452 
L 594.34041 226.206452 
L 597.791245 227.162735 
L 601.24208 228.257037 
L 604.692915 228.37355 
L 611.594585 228.37355 
L 615.04542 227.811924 
L 618.496255 227.811924 
L 621.94709 227.96688 
L 625.397924 227.96688 
L 628.848759 227.463812 
L 632.299594 227.303348 
L 635.750429 226.262687 
L 639.201264 226.694181 
L 642.652099 225.1255 
L 646.102934 225.628569 
L 649.553769 225.770619 
L 653.004603 226.81128 
L 656.455438 226.81128 
L 659.906273 228.37996 
L 663.357108 227.843862 
L 666.807943 227.634703 
L 670.258778 225.913394 
L 673.709613 225.070955 
L 677.160448 225.070955 
L 680.611282 225.269003 
L 684.062117 225.695925 
L 687.512952 227.417234 
L 690.963787 228.259673 
L 694.414622 227.371411 
L 701.316292 228.071738 
L 708.217962 228.071738 
L 711.668796 228.96 
L 718.570466 228.96 
L 722.021301 228.015068 
L 725.472136 228.015068 
L 732.373806 227.26072 
L 735.824641 227.26072 
L 739.275475 228.205652 
L 742.72631 227.125272 
L 746.177145 227.508475 
L 749.62798 227.364341 
L 753.078815 227.085006 
L 756.52965 227.085006 
L 759.980485 228.165386 
L 763.43132 228.165386 
L 766.882154 227.803414 
L 770.332989 227.307951 
L 773.783824 224.12353 
L 777.234659 222.796688 
L 780.685494 222.796688 
L 784.136329 223.673939 
L 787.587164 223.242517 
L 791.037999 225.657754 
L 794.488833 225.855369 
L 797.939668 225.329887 
L 801.390503 222.297105 
L 804.841338 223.503325 
L 808.292173 223.00885 
L 811.743008 223.357582 
L 815.193843 222.44864 
L 818.644678 224.950685 
L 822.095513 224.437896 
L 825.546347 225.701555 
L 828.997182 220.584975 
L 832.448017 221.624799 
L 835.898852 221.613967 
L 839.349687 222.126756 
L 842.800522 222.126756 
L 846.251357 227.459218 
L 849.702192 227.366904 
L 853.153026 227.908472 
L 856.603861 227.456781 
L 860.054696 227.456781 
L 866.956366 228.508309 
L 870.407201 227.993031 
L 873.858036 228.444722 
L 877.308871 227.746384 
L 880.759705 227.746384 
L 884.21054 227.270387 
L 887.661375 226.946555 
L 891.11221 226.946555 
L 894.563045 227.250293 
L 898.01388 226.513159 
L 901.464715 226.989156 
L 904.91555 227.828266 
L 908.366385 227.828266 
L 911.817219 228.222866 
L 915.268054 228.96 
L 932.522229 228.96 
L 935.973064 228.296579 
L 953.227238 228.201805 
L 956.678073 227.673708 
L 967.030577 227.673708 
L 970.481412 227.895806 
L 973.932247 228.423902 
L 991.186422 228.339255 
L 994.637256 225.851426 
L 1008.440596 225.944075 
L 1011.891431 228.431904 
L 1018.793101 228.431904 
L 1022.243936 226.011462 
L 1025.69477 225.111908 
L 1029.145605 223.24147 
L 1036.047275 222.125332 
L 1039.49811 225.07387 
L 1042.948945 224.539 
L 1046.39978 224.733427 
L 1053.301449 223.79898 
L 1056.752284 222.338237 
L 1060.203119 223.77266 
L 1067.104789 224.346994 
L 1070.555624 220.061431 
L 1074.006459 221.522175 
L 1077.457294 221.522175 
L 1080.908128 222.392863 
L 1080.908128 222.392863 
" style="fill:none;stroke:#d3d3d3;stroke-linecap:square;stroke-width:2;"/>
   </g>
   <g id="patch_3">
    <path d="M 50.14375 228.96 
L 50.14375 7.2 
" style="fill:none;stroke:#000000;stroke-linecap:square;stroke-linejoin:miter;stroke-width:0.8;"/>
   </g>
   <g id="patch_4">
    <path d="M 50.14375 228.96 
L 1166.14375 228.96 
" style="fill:none;stroke:#000000;stroke-linecap:square;stroke-linejoin:miter;stroke-width:0.8;"/>
   </g>
   <g id="legend_1">
    <g id="line2d_28">
     <path d="M 1072.3325 17.67875 
L 1088.3325 17.67875 
" style="fill:none;stroke:#947383;stroke-linecap:square;stroke-width:2;"/>
    </g>
    <g id="line2d_29"/>
    <g id="text_23">
     <!-- North America -->
     <g transform="translate(1094.7325 20.47875)scale(0.08 -0.08)">
      <defs>
       <path d="M 628 4666 
L 1478 4666 
L 3547 763 
L 3547 4666 
L 4159 4666 
L 4159 0 
L 3309 0 
L 1241 3903 
L 1241 0 
L 628 0 
L 628 4666 
z
" id="DejaVuSans-4e" transform="scale(0.015625)"/>
       <path d="M 3513 2113 
L 3513 0 
L 2938 0 
L 2938 2094 
Q 2938 2591 2744 2837 
Q 2550 3084 2163 3084 
Q 1697 3084 1428 2787 
Q 1159 2491 1159 1978 
L 1159 0 
L 581 0 
L 581 4863 
L 1159 4863 
L 1159 2956 
Q 1366 3272 1645 3428 
Q 1925 3584 2291 3584 
Q 2894 3584 3203 3211 
Q 3513 2838 3513 2113 
z
" id="DejaVuSans-68" transform="scale(0.015625)"/>
       <path d="M 2188 4044 
L 1331 1722 
L 3047 1722 
L 2188 4044 
z
M 1831 4666 
L 2547 4666 
L 4325 0 
L 3669 0 
L 3244 1197 
L 1141 1197 
L 716 0 
L 50 0 
L 1831 4666 
z
" id="DejaVuSans-41" transform="scale(0.015625)"/>
       <path d="M 3328 2828 
Q 3544 3216 3844 3400 
Q 4144 3584 4550 3584 
Q 5097 3584 5394 3201 
Q 5691 2819 5691 2113 
L 5691 0 
L 5113 0 
L 5113 2094 
Q 5113 2597 4934 2840 
Q 4756 3084 4391 3084 
Q 3944 3084 3684 2787 
Q 3425 2491 3425 1978 
L 3425 0 
L 2847 0 
L 2847 2094 
Q 2847 2600 2669 2842 
Q 2491 3084 2119 3084 
Q 1678 3084 1418 2786 
Q 1159 2488 1159 1978 
L 1159 0 
L 581 0 
L 581 3500 
L 1159 3500 
L 1159 2956 
Q 1356 3278 1631 3431 
Q 1906 3584 2284 3584 
Q 2666 3584 2933 3390 
Q 3200 3197 3328 2828 
z
" id="DejaVuSans-6d" transform="scale(0.015625)"/>
      </defs>
      <use xlink:href="#DejaVuSans-4e"/>
      <use x="74.804688" xlink:href="#DejaVuSans-6f"/>
      <use x="135.986328" xlink:href="#DejaVuSans-72"/>
      <use x="177.099609" xlink:href="#DejaVuSans-74"/>
      <use x="216.308594" xlink:href="#DejaVuSans-68"/>
      <use x="279.6875" xlink:href="#DejaVuSans-20"/>
      <use x="311.474609" xlink:href="#DejaVuSans-41"/>
      <use x="379.882812" xlink:href="#DejaVuSans-6d"/>
      <use x="477.294922" xlink:href="#DejaVuSans-65"/>
      <use x="538.818359" xlink:href="#DejaVuSans-72"/>
      <use x="579.931641" xlink:href="#DejaVuSans-69"/>
      <use x="607.714844" xlink:href="#DejaVuSans-63"/>
      <use x="662.695312" xlink:href="#DejaVuSans-61"/>
     </g>
    </g>
    <g id="line2d_30">
     <path d="M 1072.3325 29.42125 
L 1088.3325 29.42125 
" style="fill:none;stroke:#96c6ad;stroke-linecap:square;stroke-width:2;"/>
    </g>
    <g id="line2d_31"/>
    <g id="text_24">
     <!-- Europe -->
     <g transform="translate(1094.7325 32.22125)scale(0.08 -0.08)">
      <defs>
       <path d="M 628 4666 
L 3578 4666 
L 3578 4134 
L 1259 4134 
L 1259 2753 
L 3481 2753 
L 3481 2222 
L 1259 2222 
L 1259 531 
L 3634 531 
L 3634 0 
L 628 0 
L 628 4666 
z
" id="DejaVuSans-45" transform="scale(0.015625)"/>
       <path d="M 1159 525 
L 1159 -1331 
L 581 -1331 
L 581 3500 
L 1159 3500 
L 1159 2969 
Q 1341 3281 1617 3432 
Q 1894 3584 2278 3584 
Q 2916 3584 3314 3078 
Q 3713 2572 3713 1747 
Q 3713 922 3314 415 
Q 2916 -91 2278 -91 
Q 1894 -91 1617 61 
Q 1341 213 1159 525 
z
M 3116 1747 
Q 3116 2381 2855 2742 
Q 2594 3103 2138 3103 
Q 1681 3103 1420 2742 
Q 1159 2381 1159 1747 
Q 1159 1113 1420 752 
Q 1681 391 2138 391 
Q 2594 391 2855 752 
Q 3116 1113 3116 1747 
z
" id="DejaVuSans-70" transform="scale(0.015625)"/>
      </defs>
      <use xlink:href="#DejaVuSans-45"/>
      <use x="63.183594" xlink:href="#DejaVuSans-75"/>
      <use x="126.5625" xlink:href="#DejaVuSans-72"/>
      <use x="165.425781" xlink:href="#DejaVuSans-6f"/>
      <use x="226.607422" xlink:href="#DejaVuSans-70"/>
      <use x="290.083984" xlink:href="#DejaVuSans-65"/>
     </g>
    </g>
    <g id="line2d_32">
     <path d="M 1072.3325 41.16375 
L 1088.3325 41.16375 
" style="fill:none;stroke:#525886;stroke-linecap:square;stroke-width:2;"/>
    </g>
    <g id="line2d_33"/>
    <g id="text_25">
     <!-- Asia -->
     <g transform="translate(1094.7325 43.96375)scale(0.08 -0.08)">
      <defs>
       <path d="M 2834 3397 
L 2834 2853 
Q 2591 2978 2328 3040 
Q 2066 3103 1784 3103 
Q 1356 3103 1142 2972 
Q 928 2841 928 2578 
Q 928 2378 1081 2264 
Q 1234 2150 1697 2047 
L 1894 2003 
Q 2506 1872 2764 1633 
Q 3022 1394 3022 966 
Q 3022 478 2636 193 
Q 2250 -91 1575 -91 
Q 1294 -91 989 -36 
Q 684 19 347 128 
L 347 722 
Q 666 556 975 473 
Q 1284 391 1588 391 
Q 1994 391 2212 530 
Q 2431 669 2431 922 
Q 2431 1156 2273 1281 
Q 2116 1406 1581 1522 
L 1381 1569 
Q 847 1681 609 1914 
Q 372 2147 372 2553 
Q 372 3047 722 3315 
Q 1072 3584 1716 3584 
Q 2034 3584 2315 3537 
Q 2597 3491 2834 3397 
z
" id="DejaVuSans-73" transform="scale(0.015625)"/>
      </defs>
      <use xlink:href="#DejaVuSans-41"/>
      <use x="68.408203" xlink:href="#DejaVuSans-73"/>
      <use x="120.507812" xlink:href="#DejaVuSans-69"/>
      <use x="148.291016" xlink:href="#DejaVuSans-61"/>
     </g>
    </g>
    <g id="line2d_34">
     <path d="M 1072.3325 52.90625 
L 1088.3325 52.90625 
" style="fill:none;stroke:#937252;stroke-linecap:square;stroke-width:2;"/>
    </g>
    <g id="line2d_35"/>
    <g id="text_26">
     <!-- United Kingdom -->
     <g transform="translate(1094.7325 55.70625)scale(0.08 -0.08)">
      <defs>
       <path d="M 556 4666 
L 1191 4666 
L 1191 1831 
Q 1191 1081 1462 751 
Q 1734 422 2344 422 
Q 2950 422 3222 751 
Q 3494 1081 3494 1831 
L 3494 4666 
L 4128 4666 
L 4128 1753 
Q 4128 841 3676 375 
Q 3225 -91 2344 -91 
Q 1459 -91 1007 375 
Q 556 841 556 1753 
L 556 4666 
z
" id="DejaVuSans-55" transform="scale(0.015625)"/>
       <path d="M 628 4666 
L 1259 4666 
L 1259 2694 
L 3353 4666 
L 4166 4666 
L 1850 2491 
L 4331 0 
L 3500 0 
L 1259 2247 
L 1259 0 
L 628 0 
L 628 4666 
z
" id="DejaVuSans-4b" transform="scale(0.015625)"/>
      </defs>
      <use xlink:href="#DejaVuSans-55"/>
      <use x="73.193359" xlink:href="#DejaVuSans-6e"/>
      <use x="136.572266" xlink:href="#DejaVuSans-69"/>
      <use x="164.355469" xlink:href="#DejaVuSans-74"/>
      <use x="203.564453" xlink:href="#DejaVuSans-65"/>
      <use x="265.087891" xlink:href="#DejaVuSans-64"/>
      <use x="328.564453" xlink:href="#DejaVuSans-20"/>
      <use x="360.351562" xlink:href="#DejaVuSans-4b"/>
      <use x="425.927734" xlink:href="#DejaVuSans-69"/>
      <use x="453.710938" xlink:href="#DejaVuSans-6e"/>
      <use x="517.089844" xlink:href="#DejaVuSans-67"/>
      <use x="580.566406" xlink:href="#DejaVuSans-64"/>
      <use x="644.042969" xlink:href="#DejaVuSans-6f"/>
      <use x="705.224609" xlink:href="#DejaVuSans-6d"/>
     </g>
    </g>
    <g id="line2d_36">
     <path d="M 1072.3325 64.64875 
L 1088.3325 64.64875 
" style="fill:none;stroke:#d18cad;stroke-linecap:square;stroke-width:2;"/>
    </g>
    <g id="line2d_37"/>
    <g id="text_27">
     <!-- South America -->
     <g transform="translate(1094.7325 67.44875)scale(0.08 -0.08)">
      <defs>
       <path d="M 3425 4513 
L 3425 3897 
Q 3066 4069 2747 4153 
Q 2428 4238 2131 4238 
Q 1616 4238 1336 4038 
Q 1056 3838 1056 3469 
Q 1056 3159 1242 3001 
Q 1428 2844 1947 2747 
L 2328 2669 
Q 3034 2534 3370 2195 
Q 3706 1856 3706 1288 
Q 3706 609 3251 259 
Q 2797 -91 1919 -91 
Q 1588 -91 1214 -16 
Q 841 59 441 206 
L 441 856 
Q 825 641 1194 531 
Q 1563 422 1919 422 
Q 2459 422 2753 634 
Q 3047 847 3047 1241 
Q 3047 1584 2836 1778 
Q 2625 1972 2144 2069 
L 1759 2144 
Q 1053 2284 737 2584 
Q 422 2884 422 3419 
Q 422 4038 858 4394 
Q 1294 4750 2059 4750 
Q 2388 4750 2728 4690 
Q 3069 4631 3425 4513 
z
" id="DejaVuSans-53" transform="scale(0.015625)"/>
      </defs>
      <use xlink:href="#DejaVuSans-53"/>
      <use x="63.476562" xlink:href="#DejaVuSans-6f"/>
      <use x="124.658203" xlink:href="#DejaVuSans-75"/>
      <use x="188.037109" xlink:href="#DejaVuSans-74"/>
      <use x="227.246094" xlink:href="#DejaVuSans-68"/>
      <use x="290.625" xlink:href="#DejaVuSans-20"/>
      <use x="322.412109" xlink:href="#DejaVuSans-41"/>
      <use x="390.820312" xlink:href="#DejaVuSans-6d"/>
      <use x="488.232422" xlink:href="#DejaVuSans-65"/>
      <use x="549.755859" xlink:href="#DejaVuSans-72"/>
      <use x="590.869141" xlink:href="#DejaVuSans-69"/>
      <use x="618.652344" xlink:href="#DejaVuSans-63"/>
      <use x="673.632812" xlink:href="#DejaVuSans-61"/>
     </g>
    </g>
    <g id="line2d_38">
     <path d="M 1072.3325 76.39125 
L 1088.3325 76.39125 
" style="fill:none;stroke:#a4a86f;stroke-linecap:square;stroke-width:2;"/>
    </g>
    <g id="line2d_39"/>
    <g id="text_28">
     <!-- Africa -->
     <g transform="translate(1094.7325 79.19125)scale(0.08 -0.08)">
      <defs>
       <path d="M 2375 4863 
L 2375 4384 
L 1825 4384 
Q 1516 4384 1395 4259 
Q 1275 4134 1275 3809 
L 1275 3500 
L 2222 3500 
L 2222 3053 
L 1275 3053 
L 1275 0 
L 697 0 
L 697 3053 
L 147 3053 
L 147 3500 
L 697 3500 
L 697 3744 
Q 697 4328 969 4595 
Q 1241 4863 1831 4863 
L 2375 4863 
z
" id="DejaVuSans-66" transform="scale(0.015625)"/>
      </defs>
      <use xlink:href="#DejaVuSans-41"/>
      <use x="64.783203" xlink:href="#DejaVuSans-66"/>
      <use x="99.988281" xlink:href="#DejaVuSans-72"/>
      <use x="141.101562" xlink:href="#DejaVuSans-69"/>
      <use x="168.884766" xlink:href="#DejaVuSans-63"/>
      <use x="223.865234" xlink:href="#DejaVuSans-61"/>
     </g>
    </g>
    <g id="line2d_40">
     <path d="M 1072.3325 88.13375 
L 1088.3325 88.13375 
" style="fill:none;stroke:#d3d3d3;stroke-linecap:square;stroke-width:2;"/>
    </g>
    <g id="line2d_41"/>
    <g id="text_29">
     <!-- Oceania -->
     <g transform="translate(1094.7325 90.93375)scale(0.08 -0.08)">
      <defs>
       <path d="M 2522 4238 
Q 1834 4238 1429 3725 
Q 1025 3213 1025 2328 
Q 1025 1447 1429 934 
Q 1834 422 2522 422 
Q 3209 422 3611 934 
Q 4013 1447 4013 2328 
Q 4013 3213 3611 3725 
Q 3209 4238 2522 4238 
z
M 2522 4750 
Q 3503 4750 4090 4092 
Q 4678 3434 4678 2328 
Q 4678 1225 4090 567 
Q 3503 -91 2522 -91 
Q 1538 -91 948 565 
Q 359 1222 359 2328 
Q 359 3434 948 4092 
Q 1538 4750 2522 4750 
z
" id="DejaVuSans-4f" transform="scale(0.015625)"/>
      </defs>
      <use xlink:href="#DejaVuSans-4f"/>
      <use x="78.710938" xlink:href="#DejaVuSans-63"/>
      <use x="133.691406" xlink:href="#DejaVuSans-65"/>
      <use x="195.214844" xlink:href="#DejaVuSans-61"/>
      <use x="256.494141" xlink:href="#DejaVuSans-6e"/>
      <use x="319.873047" xlink:href="#DejaVuSans-69"/>
      <use x="347.65625" xlink:href="#DejaVuSans-61"/>
     </g>
    </g>
   </g>
  </g>
 </g>
 <defs>
  <clipPath id="p22455d4f1f">
   <rect height="221.76" width="1116" x="50.14375" y="7.2"/>
  </clipPath>
 </defs>
</svg>
