<?xml version="1.0" encoding="utf-8" standalone="no"?>
<!DOCTYPE svg PUBLIC "-//W3C//DTD SVG 1.1//EN"
  "http://www.w3.org/Graphics/SVG/1.1/DTD/svg11.dtd">
<svg height="298.620937pt" version="1.1" viewBox="0 0 1166.98125 298.620937" width="1166.98125pt" xmlns="http://www.w3.org/2000/svg" xmlns:xlink="http://www.w3.org/1999/xlink">
 <metadata>
  <rdf:RDF xmlns:cc="http://creativecommons.org/ns#" xmlns:dc="http://purl.org/dc/elements/1.1/" xmlns:rdf="http://www.w3.org/1999/02/22-rdf-syntax-ns#">
   <cc:Work>
    <dc:type rdf:resource="http://purl.org/dc/dcmitype/StillImage"/>
    <dc:date>2021-07-23T08:34:08.763299</dc:date>
    <dc:format>image/svg+xml</dc:format>
    <dc:creator>
     <cc:Agent>
      <dc:title>Matplotlib v3.4.2, https://matplotlib.org/</dc:title>
     </cc:Agent>
    </dc:creator>
   </cc:Work>
  </rdf:RDF>
 </metadata>
 <defs>
  <style type="text/css">*{stroke-linecap:butt;stroke-linejoin:round;}</style>
 </defs>
 <g id="figure_1">
  <g id="patch_1">
   <path d="M 0 298.620937 
L 1166.98125 298.620937 
L 1166.98125 0 
L 0 0 
z
" style="fill:#ffffff;"/>
  </g>
  <g id="axes_1">
   <g id="patch_2">
    <path d="M 43.78125 228.96 
L 1159.78125 228.96 
L 1159.78125 7.2 
L 43.78125 7.2 
z
" style="fill:#ffffff;"/>
   </g>
   <g id="matplotlib.axis_1">
    <g id="xtick_1">
     <g id="line2d_1">
      <defs>
       <path d="M 0 0 
L 0 3.5 
" id="m624c0c3f89" style="stroke:#000000;stroke-width:0.8;"/>
      </defs>
      <g>
       <use style="stroke:#000000;stroke-width:0.8;" x="61.78125" xlink:href="#m624c0c3f89" y="228.96"/>
      </g>
     </g>
     <g id="text_1">
      <!-- 2020-09 -->
      <g transform="translate(64.540625 277.742812)rotate(-90)scale(0.1 -0.1)">
       <defs>
        <path d="M 1228 531 
L 3431 531 
L 3431 0 
L 469 0 
L 469 531 
Q 828 903 1448 1529 
Q 2069 2156 2228 2338 
Q 2531 2678 2651 2914 
Q 2772 3150 2772 3378 
Q 2772 3750 2511 3984 
Q 2250 4219 1831 4219 
Q 1534 4219 1204 4116 
Q 875 4013 500 3803 
L 500 4441 
Q 881 4594 1212 4672 
Q 1544 4750 1819 4750 
Q 2544 4750 2975 4387 
Q 3406 4025 3406 3419 
Q 3406 3131 3298 2873 
Q 3191 2616 2906 2266 
Q 2828 2175 2409 1742 
Q 1991 1309 1228 531 
z
" id="DejaVuSans-32" transform="scale(0.015625)"/>
        <path d="M 2034 4250 
Q 1547 4250 1301 3770 
Q 1056 3291 1056 2328 
Q 1056 1369 1301 889 
Q 1547 409 2034 409 
Q 2525 409 2770 889 
Q 3016 1369 3016 2328 
Q 3016 3291 2770 3770 
Q 2525 4250 2034 4250 
z
M 2034 4750 
Q 2819 4750 3233 4129 
Q 3647 3509 3647 2328 
Q 3647 1150 3233 529 
Q 2819 -91 2034 -91 
Q 1250 -91 836 529 
Q 422 1150 422 2328 
Q 422 3509 836 4129 
Q 1250 4750 2034 4750 
z
" id="DejaVuSans-30" transform="scale(0.015625)"/>
        <path d="M 313 2009 
L 1997 2009 
L 1997 1497 
L 313 1497 
L 313 2009 
z
" id="DejaVuSans-2d" transform="scale(0.015625)"/>
        <path d="M 703 97 
L 703 672 
Q 941 559 1184 500 
Q 1428 441 1663 441 
Q 2288 441 2617 861 
Q 2947 1281 2994 2138 
Q 2813 1869 2534 1725 
Q 2256 1581 1919 1581 
Q 1219 1581 811 2004 
Q 403 2428 403 3163 
Q 403 3881 828 4315 
Q 1253 4750 1959 4750 
Q 2769 4750 3195 4129 
Q 3622 3509 3622 2328 
Q 3622 1225 3098 567 
Q 2575 -91 1691 -91 
Q 1453 -91 1209 -44 
Q 966 3 703 97 
z
M 1959 2075 
Q 2384 2075 2632 2365 
Q 2881 2656 2881 3163 
Q 2881 3666 2632 3958 
Q 2384 4250 1959 4250 
Q 1534 4250 1286 3958 
Q 1038 3666 1038 3163 
Q 1038 2656 1286 2365 
Q 1534 2075 1959 2075 
z
" id="DejaVuSans-39" transform="scale(0.015625)"/>
       </defs>
       <use xlink:href="#DejaVuSans-32"/>
       <use x="63.623047" xlink:href="#DejaVuSans-30"/>
       <use x="127.246094" xlink:href="#DejaVuSans-32"/>
       <use x="190.869141" xlink:href="#DejaVuSans-30"/>
       <use x="254.492188" xlink:href="#DejaVuSans-2d"/>
       <use x="290.576172" xlink:href="#DejaVuSans-30"/>
       <use x="354.199219" xlink:href="#DejaVuSans-39"/>
      </g>
     </g>
    </g>
    <g id="xtick_2">
     <g id="line2d_2">
      <g>
       <use style="stroke:#000000;stroke-width:0.8;" x="159.963068" xlink:href="#m624c0c3f89" y="228.96"/>
      </g>
     </g>
     <g id="text_2">
      <!-- 2020-10 -->
      <g transform="translate(162.722443 277.742812)rotate(-90)scale(0.1 -0.1)">
       <defs>
        <path d="M 794 531 
L 1825 531 
L 1825 4091 
L 703 3866 
L 703 4441 
L 1819 4666 
L 2450 4666 
L 2450 531 
L 3481 531 
L 3481 0 
L 794 0 
L 794 531 
z
" id="DejaVuSans-31" transform="scale(0.015625)"/>
       </defs>
       <use xlink:href="#DejaVuSans-32"/>
       <use x="63.623047" xlink:href="#DejaVuSans-30"/>
       <use x="127.246094" xlink:href="#DejaVuSans-32"/>
       <use x="190.869141" xlink:href="#DejaVuSans-30"/>
       <use x="254.492188" xlink:href="#DejaVuSans-2d"/>
       <use x="290.576172" xlink:href="#DejaVuSans-31"/>
       <use x="354.199219" xlink:href="#DejaVuSans-30"/>
      </g>
     </g>
    </g>
    <g id="xtick_3">
     <g id="line2d_3">
      <g>
       <use style="stroke:#000000;stroke-width:0.8;" x="261.417614" xlink:href="#m624c0c3f89" y="228.96"/>
      </g>
     </g>
     <g id="text_3">
      <!-- 2020-11 -->
      <g transform="translate(264.176989 277.742812)rotate(-90)scale(0.1 -0.1)">
       <use xlink:href="#DejaVuSans-32"/>
       <use x="63.623047" xlink:href="#DejaVuSans-30"/>
       <use x="127.246094" xlink:href="#DejaVuSans-32"/>
       <use x="190.869141" xlink:href="#DejaVuSans-30"/>
       <use x="254.492188" xlink:href="#DejaVuSans-2d"/>
       <use x="290.576172" xlink:href="#DejaVuSans-31"/>
       <use x="354.199219" xlink:href="#DejaVuSans-31"/>
      </g>
     </g>
    </g>
    <g id="xtick_4">
     <g id="line2d_4">
      <g>
       <use style="stroke:#000000;stroke-width:0.8;" x="359.599432" xlink:href="#m624c0c3f89" y="228.96"/>
      </g>
     </g>
     <g id="text_4">
      <!-- 2020-12 -->
      <g transform="translate(362.358807 277.742812)rotate(-90)scale(0.1 -0.1)">
       <use xlink:href="#DejaVuSans-32"/>
       <use x="63.623047" xlink:href="#DejaVuSans-30"/>
       <use x="127.246094" xlink:href="#DejaVuSans-32"/>
       <use x="190.869141" xlink:href="#DejaVuSans-30"/>
       <use x="254.492188" xlink:href="#DejaVuSans-2d"/>
       <use x="290.576172" xlink:href="#DejaVuSans-31"/>
       <use x="354.199219" xlink:href="#DejaVuSans-32"/>
      </g>
     </g>
    </g>
    <g id="xtick_5">
     <g id="line2d_5">
      <g>
       <use style="stroke:#000000;stroke-width:0.8;" x="461.053977" xlink:href="#m624c0c3f89" y="228.96"/>
      </g>
     </g>
     <g id="text_5">
      <!-- 2021-01 -->
      <g transform="translate(463.813352 277.742812)rotate(-90)scale(0.1 -0.1)">
       <use xlink:href="#DejaVuSans-32"/>
       <use x="63.623047" xlink:href="#DejaVuSans-30"/>
       <use x="127.246094" xlink:href="#DejaVuSans-32"/>
       <use x="190.869141" xlink:href="#DejaVuSans-31"/>
       <use x="254.492188" xlink:href="#DejaVuSans-2d"/>
       <use x="290.576172" xlink:href="#DejaVuSans-30"/>
       <use x="354.199219" xlink:href="#DejaVuSans-31"/>
      </g>
     </g>
    </g>
    <g id="xtick_6">
     <g id="line2d_6">
      <g>
       <use style="stroke:#000000;stroke-width:0.8;" x="562.508523" xlink:href="#m624c0c3f89" y="228.96"/>
      </g>
     </g>
     <g id="text_6">
      <!-- 2021-02 -->
      <g transform="translate(565.267898 277.742812)rotate(-90)scale(0.1 -0.1)">
       <use xlink:href="#DejaVuSans-32"/>
       <use x="63.623047" xlink:href="#DejaVuSans-30"/>
       <use x="127.246094" xlink:href="#DejaVuSans-32"/>
       <use x="190.869141" xlink:href="#DejaVuSans-31"/>
       <use x="254.492188" xlink:href="#DejaVuSans-2d"/>
       <use x="290.576172" xlink:href="#DejaVuSans-30"/>
       <use x="354.199219" xlink:href="#DejaVuSans-32"/>
      </g>
     </g>
    </g>
    <g id="xtick_7">
     <g id="line2d_7">
      <g>
       <use style="stroke:#000000;stroke-width:0.8;" x="654.144886" xlink:href="#m624c0c3f89" y="228.96"/>
      </g>
     </g>
     <g id="text_7">
      <!-- 2021-03 -->
      <g transform="translate(656.904261 277.742812)rotate(-90)scale(0.1 -0.1)">
       <defs>
        <path d="M 2597 2516 
Q 3050 2419 3304 2112 
Q 3559 1806 3559 1356 
Q 3559 666 3084 287 
Q 2609 -91 1734 -91 
Q 1441 -91 1130 -33 
Q 819 25 488 141 
L 488 750 
Q 750 597 1062 519 
Q 1375 441 1716 441 
Q 2309 441 2620 675 
Q 2931 909 2931 1356 
Q 2931 1769 2642 2001 
Q 2353 2234 1838 2234 
L 1294 2234 
L 1294 2753 
L 1863 2753 
Q 2328 2753 2575 2939 
Q 2822 3125 2822 3475 
Q 2822 3834 2567 4026 
Q 2313 4219 1838 4219 
Q 1578 4219 1281 4162 
Q 984 4106 628 3988 
L 628 4550 
Q 988 4650 1302 4700 
Q 1616 4750 1894 4750 
Q 2613 4750 3031 4423 
Q 3450 4097 3450 3541 
Q 3450 3153 3228 2886 
Q 3006 2619 2597 2516 
z
" id="DejaVuSans-33" transform="scale(0.015625)"/>
       </defs>
       <use xlink:href="#DejaVuSans-32"/>
       <use x="63.623047" xlink:href="#DejaVuSans-30"/>
       <use x="127.246094" xlink:href="#DejaVuSans-32"/>
       <use x="190.869141" xlink:href="#DejaVuSans-31"/>
       <use x="254.492188" xlink:href="#DejaVuSans-2d"/>
       <use x="290.576172" xlink:href="#DejaVuSans-30"/>
       <use x="354.199219" xlink:href="#DejaVuSans-33"/>
      </g>
     </g>
    </g>
    <g id="xtick_8">
     <g id="line2d_8">
      <g>
       <use style="stroke:#000000;stroke-width:0.8;" x="755.599432" xlink:href="#m624c0c3f89" y="228.96"/>
      </g>
     </g>
     <g id="text_8">
      <!-- 2021-04 -->
      <g transform="translate(758.358807 277.742812)rotate(-90)scale(0.1 -0.1)">
       <defs>
        <path d="M 2419 4116 
L 825 1625 
L 2419 1625 
L 2419 4116 
z
M 2253 4666 
L 3047 4666 
L 3047 1625 
L 3713 1625 
L 3713 1100 
L 3047 1100 
L 3047 0 
L 2419 0 
L 2419 1100 
L 313 1100 
L 313 1709 
L 2253 4666 
z
" id="DejaVuSans-34" transform="scale(0.015625)"/>
       </defs>
       <use xlink:href="#DejaVuSans-32"/>
       <use x="63.623047" xlink:href="#DejaVuSans-30"/>
       <use x="127.246094" xlink:href="#DejaVuSans-32"/>
       <use x="190.869141" xlink:href="#DejaVuSans-31"/>
       <use x="254.492188" xlink:href="#DejaVuSans-2d"/>
       <use x="290.576172" xlink:href="#DejaVuSans-30"/>
       <use x="354.199219" xlink:href="#DejaVuSans-34"/>
      </g>
     </g>
    </g>
    <g id="xtick_9">
     <g id="line2d_9">
      <g>
       <use style="stroke:#000000;stroke-width:0.8;" x="853.78125" xlink:href="#m624c0c3f89" y="228.96"/>
      </g>
     </g>
     <g id="text_9">
      <!-- 2021-05 -->
      <g transform="translate(856.540625 277.742812)rotate(-90)scale(0.1 -0.1)">
       <defs>
        <path d="M 691 4666 
L 3169 4666 
L 3169 4134 
L 1269 4134 
L 1269 2991 
Q 1406 3038 1543 3061 
Q 1681 3084 1819 3084 
Q 2600 3084 3056 2656 
Q 3513 2228 3513 1497 
Q 3513 744 3044 326 
Q 2575 -91 1722 -91 
Q 1428 -91 1123 -41 
Q 819 9 494 109 
L 494 744 
Q 775 591 1075 516 
Q 1375 441 1709 441 
Q 2250 441 2565 725 
Q 2881 1009 2881 1497 
Q 2881 1984 2565 2268 
Q 2250 2553 1709 2553 
Q 1456 2553 1204 2497 
Q 953 2441 691 2322 
L 691 4666 
z
" id="DejaVuSans-35" transform="scale(0.015625)"/>
       </defs>
       <use xlink:href="#DejaVuSans-32"/>
       <use x="63.623047" xlink:href="#DejaVuSans-30"/>
       <use x="127.246094" xlink:href="#DejaVuSans-32"/>
       <use x="190.869141" xlink:href="#DejaVuSans-31"/>
       <use x="254.492188" xlink:href="#DejaVuSans-2d"/>
       <use x="290.576172" xlink:href="#DejaVuSans-30"/>
       <use x="354.199219" xlink:href="#DejaVuSans-35"/>
      </g>
     </g>
    </g>
    <g id="xtick_10">
     <g id="line2d_10">
      <g>
       <use style="stroke:#000000;stroke-width:0.8;" x="955.235795" xlink:href="#m624c0c3f89" y="228.96"/>
      </g>
     </g>
     <g id="text_10">
      <!-- 2021-06 -->
      <g transform="translate(957.99517 277.742812)rotate(-90)scale(0.1 -0.1)">
       <defs>
        <path d="M 2113 2584 
Q 1688 2584 1439 2293 
Q 1191 2003 1191 1497 
Q 1191 994 1439 701 
Q 1688 409 2113 409 
Q 2538 409 2786 701 
Q 3034 994 3034 1497 
Q 3034 2003 2786 2293 
Q 2538 2584 2113 2584 
z
M 3366 4563 
L 3366 3988 
Q 3128 4100 2886 4159 
Q 2644 4219 2406 4219 
Q 1781 4219 1451 3797 
Q 1122 3375 1075 2522 
Q 1259 2794 1537 2939 
Q 1816 3084 2150 3084 
Q 2853 3084 3261 2657 
Q 3669 2231 3669 1497 
Q 3669 778 3244 343 
Q 2819 -91 2113 -91 
Q 1303 -91 875 529 
Q 447 1150 447 2328 
Q 447 3434 972 4092 
Q 1497 4750 2381 4750 
Q 2619 4750 2861 4703 
Q 3103 4656 3366 4563 
z
" id="DejaVuSans-36" transform="scale(0.015625)"/>
       </defs>
       <use xlink:href="#DejaVuSans-32"/>
       <use x="63.623047" xlink:href="#DejaVuSans-30"/>
       <use x="127.246094" xlink:href="#DejaVuSans-32"/>
       <use x="190.869141" xlink:href="#DejaVuSans-31"/>
       <use x="254.492188" xlink:href="#DejaVuSans-2d"/>
       <use x="290.576172" xlink:href="#DejaVuSans-30"/>
       <use x="354.199219" xlink:href="#DejaVuSans-36"/>
      </g>
     </g>
    </g>
    <g id="xtick_11">
     <g id="line2d_11">
      <g>
       <use style="stroke:#000000;stroke-width:0.8;" x="1053.417614" xlink:href="#m624c0c3f89" y="228.96"/>
      </g>
     </g>
     <g id="text_11">
      <!-- 2021-07 -->
      <g transform="translate(1056.176989 277.742812)rotate(-90)scale(0.1 -0.1)">
       <defs>
        <path d="M 525 4666 
L 3525 4666 
L 3525 4397 
L 1831 0 
L 1172 0 
L 2766 4134 
L 525 4134 
L 525 4666 
z
" id="DejaVuSans-37" transform="scale(0.015625)"/>
       </defs>
       <use xlink:href="#DejaVuSans-32"/>
       <use x="63.623047" xlink:href="#DejaVuSans-30"/>
       <use x="127.246094" xlink:href="#DejaVuSans-32"/>
       <use x="190.869141" xlink:href="#DejaVuSans-31"/>
       <use x="254.492188" xlink:href="#DejaVuSans-2d"/>
       <use x="290.576172" xlink:href="#DejaVuSans-30"/>
       <use x="354.199219" xlink:href="#DejaVuSans-37"/>
      </g>
     </g>
    </g>
    <g id="xtick_12">
     <g id="line2d_12">
      <g>
       <use style="stroke:#000000;stroke-width:0.8;" x="1154.872159" xlink:href="#m624c0c3f89" y="228.96"/>
      </g>
     </g>
     <g id="text_12">
      <!-- 2021-08 -->
      <g transform="translate(1157.631534 277.742812)rotate(-90)scale(0.1 -0.1)">
       <defs>
        <path d="M 2034 2216 
Q 1584 2216 1326 1975 
Q 1069 1734 1069 1313 
Q 1069 891 1326 650 
Q 1584 409 2034 409 
Q 2484 409 2743 651 
Q 3003 894 3003 1313 
Q 3003 1734 2745 1975 
Q 2488 2216 2034 2216 
z
M 1403 2484 
Q 997 2584 770 2862 
Q 544 3141 544 3541 
Q 544 4100 942 4425 
Q 1341 4750 2034 4750 
Q 2731 4750 3128 4425 
Q 3525 4100 3525 3541 
Q 3525 3141 3298 2862 
Q 3072 2584 2669 2484 
Q 3125 2378 3379 2068 
Q 3634 1759 3634 1313 
Q 3634 634 3220 271 
Q 2806 -91 2034 -91 
Q 1263 -91 848 271 
Q 434 634 434 1313 
Q 434 1759 690 2068 
Q 947 2378 1403 2484 
z
M 1172 3481 
Q 1172 3119 1398 2916 
Q 1625 2713 2034 2713 
Q 2441 2713 2670 2916 
Q 2900 3119 2900 3481 
Q 2900 3844 2670 4047 
Q 2441 4250 2034 4250 
Q 1625 4250 1398 4047 
Q 1172 3844 1172 3481 
z
" id="DejaVuSans-38" transform="scale(0.015625)"/>
       </defs>
       <use xlink:href="#DejaVuSans-32"/>
       <use x="63.623047" xlink:href="#DejaVuSans-30"/>
       <use x="127.246094" xlink:href="#DejaVuSans-32"/>
       <use x="190.869141" xlink:href="#DejaVuSans-31"/>
       <use x="254.492188" xlink:href="#DejaVuSans-2d"/>
       <use x="290.576172" xlink:href="#DejaVuSans-30"/>
       <use x="354.199219" xlink:href="#DejaVuSans-38"/>
      </g>
     </g>
    </g>
    <g id="text_13">
     <!-- Date -->
     <g transform="translate(589.830469 289.34125)scale(0.1 -0.1)">
      <defs>
       <path d="M 1259 4147 
L 1259 519 
L 2022 519 
Q 2988 519 3436 956 
Q 3884 1394 3884 2338 
Q 3884 3275 3436 3711 
Q 2988 4147 2022 4147 
L 1259 4147 
z
M 628 4666 
L 1925 4666 
Q 3281 4666 3915 4102 
Q 4550 3538 4550 2338 
Q 4550 1131 3912 565 
Q 3275 0 1925 0 
L 628 0 
L 628 4666 
z
" id="DejaVuSans-44" transform="scale(0.015625)"/>
       <path d="M 2194 1759 
Q 1497 1759 1228 1600 
Q 959 1441 959 1056 
Q 959 750 1161 570 
Q 1363 391 1709 391 
Q 2188 391 2477 730 
Q 2766 1069 2766 1631 
L 2766 1759 
L 2194 1759 
z
M 3341 1997 
L 3341 0 
L 2766 0 
L 2766 531 
Q 2569 213 2275 61 
Q 1981 -91 1556 -91 
Q 1019 -91 701 211 
Q 384 513 384 1019 
Q 384 1609 779 1909 
Q 1175 2209 1959 2209 
L 2766 2209 
L 2766 2266 
Q 2766 2663 2505 2880 
Q 2244 3097 1772 3097 
Q 1472 3097 1187 3025 
Q 903 2953 641 2809 
L 641 3341 
Q 956 3463 1253 3523 
Q 1550 3584 1831 3584 
Q 2591 3584 2966 3190 
Q 3341 2797 3341 1997 
z
" id="DejaVuSans-61" transform="scale(0.015625)"/>
       <path d="M 1172 4494 
L 1172 3500 
L 2356 3500 
L 2356 3053 
L 1172 3053 
L 1172 1153 
Q 1172 725 1289 603 
Q 1406 481 1766 481 
L 2356 481 
L 2356 0 
L 1766 0 
Q 1100 0 847 248 
Q 594 497 594 1153 
L 594 3053 
L 172 3053 
L 172 3500 
L 594 3500 
L 594 4494 
L 1172 4494 
z
" id="DejaVuSans-74" transform="scale(0.015625)"/>
       <path d="M 3597 1894 
L 3597 1613 
L 953 1613 
Q 991 1019 1311 708 
Q 1631 397 2203 397 
Q 2534 397 2845 478 
Q 3156 559 3463 722 
L 3463 178 
Q 3153 47 2828 -22 
Q 2503 -91 2169 -91 
Q 1331 -91 842 396 
Q 353 884 353 1716 
Q 353 2575 817 3079 
Q 1281 3584 2069 3584 
Q 2775 3584 3186 3129 
Q 3597 2675 3597 1894 
z
M 3022 2063 
Q 3016 2534 2758 2815 
Q 2500 3097 2075 3097 
Q 1594 3097 1305 2825 
Q 1016 2553 972 2059 
L 3022 2063 
z
" id="DejaVuSans-65" transform="scale(0.015625)"/>
      </defs>
      <use xlink:href="#DejaVuSans-44"/>
      <use x="77.001953" xlink:href="#DejaVuSans-61"/>
      <use x="138.28125" xlink:href="#DejaVuSans-74"/>
      <use x="177.490234" xlink:href="#DejaVuSans-65"/>
     </g>
    </g>
   </g>
   <g id="matplotlib.axis_2">
    <g id="ytick_1">
     <g id="line2d_13">
      <defs>
       <path d="M 0 0 
L -3.5 0 
" id="mcbdb99d30d" style="stroke:#000000;stroke-width:0.8;"/>
      </defs>
      <g>
       <use style="stroke:#000000;stroke-width:0.8;" x="43.78125" xlink:href="#mcbdb99d30d" y="228.96"/>
      </g>
     </g>
     <g id="text_14">
      <!-- 0.0 -->
      <g transform="translate(20.878125 232.759219)scale(0.1 -0.1)">
       <defs>
        <path d="M 684 794 
L 1344 794 
L 1344 0 
L 684 0 
L 684 794 
z
" id="DejaVuSans-2e" transform="scale(0.015625)"/>
       </defs>
       <use xlink:href="#DejaVuSans-30"/>
       <use x="63.623047" xlink:href="#DejaVuSans-2e"/>
       <use x="95.410156" xlink:href="#DejaVuSans-30"/>
      </g>
     </g>
    </g>
    <g id="ytick_2">
     <g id="line2d_14">
      <g>
       <use style="stroke:#000000;stroke-width:0.8;" x="43.78125" xlink:href="#mcbdb99d30d" y="186.72"/>
      </g>
     </g>
     <g id="text_15">
      <!-- 0.2 -->
      <g transform="translate(20.878125 190.519219)scale(0.1 -0.1)">
       <use xlink:href="#DejaVuSans-30"/>
       <use x="63.623047" xlink:href="#DejaVuSans-2e"/>
       <use x="95.410156" xlink:href="#DejaVuSans-32"/>
      </g>
     </g>
    </g>
    <g id="ytick_3">
     <g id="line2d_15">
      <g>
       <use style="stroke:#000000;stroke-width:0.8;" x="43.78125" xlink:href="#mcbdb99d30d" y="144.48"/>
      </g>
     </g>
     <g id="text_16">
      <!-- 0.4 -->
      <g transform="translate(20.878125 148.279219)scale(0.1 -0.1)">
       <use xlink:href="#DejaVuSans-30"/>
       <use x="63.623047" xlink:href="#DejaVuSans-2e"/>
       <use x="95.410156" xlink:href="#DejaVuSans-34"/>
      </g>
     </g>
    </g>
    <g id="ytick_4">
     <g id="line2d_16">
      <g>
       <use style="stroke:#000000;stroke-width:0.8;" x="43.78125" xlink:href="#mcbdb99d30d" y="102.24"/>
      </g>
     </g>
     <g id="text_17">
      <!-- 0.6 -->
      <g transform="translate(20.878125 106.039219)scale(0.1 -0.1)">
       <use xlink:href="#DejaVuSans-30"/>
       <use x="63.623047" xlink:href="#DejaVuSans-2e"/>
       <use x="95.410156" xlink:href="#DejaVuSans-36"/>
      </g>
     </g>
    </g>
    <g id="ytick_5">
     <g id="line2d_17">
      <g>
       <use style="stroke:#000000;stroke-width:0.8;" x="43.78125" xlink:href="#mcbdb99d30d" y="60"/>
      </g>
     </g>
     <g id="text_18">
      <!-- 0.8 -->
      <g transform="translate(20.878125 63.799219)scale(0.1 -0.1)">
       <use xlink:href="#DejaVuSans-30"/>
       <use x="63.623047" xlink:href="#DejaVuSans-2e"/>
       <use x="95.410156" xlink:href="#DejaVuSans-38"/>
      </g>
     </g>
    </g>
    <g id="ytick_6">
     <g id="line2d_18">
      <g>
       <use style="stroke:#000000;stroke-width:0.8;" x="43.78125" xlink:href="#mcbdb99d30d" y="17.76"/>
      </g>
     </g>
     <g id="text_19">
      <!-- 1.0 -->
      <g transform="translate(20.878125 21.559219)scale(0.1 -0.1)">
       <use xlink:href="#DejaVuSans-31"/>
       <use x="63.623047" xlink:href="#DejaVuSans-2e"/>
       <use x="95.410156" xlink:href="#DejaVuSans-30"/>
      </g>
     </g>
    </g>
    <g id="text_20">
     <!-- Frequency (7 day rolling average) -->
     <g transform="translate(14.798437 202.529219)rotate(-90)scale(0.1 -0.1)">
      <defs>
       <path d="M 628 4666 
L 3309 4666 
L 3309 4134 
L 1259 4134 
L 1259 2759 
L 3109 2759 
L 3109 2228 
L 1259 2228 
L 1259 0 
L 628 0 
L 628 4666 
z
" id="DejaVuSans-46" transform="scale(0.015625)"/>
       <path d="M 2631 2963 
Q 2534 3019 2420 3045 
Q 2306 3072 2169 3072 
Q 1681 3072 1420 2755 
Q 1159 2438 1159 1844 
L 1159 0 
L 581 0 
L 581 3500 
L 1159 3500 
L 1159 2956 
Q 1341 3275 1631 3429 
Q 1922 3584 2338 3584 
Q 2397 3584 2469 3576 
Q 2541 3569 2628 3553 
L 2631 2963 
z
" id="DejaVuSans-72" transform="scale(0.015625)"/>
       <path d="M 947 1747 
Q 947 1113 1208 752 
Q 1469 391 1925 391 
Q 2381 391 2643 752 
Q 2906 1113 2906 1747 
Q 2906 2381 2643 2742 
Q 2381 3103 1925 3103 
Q 1469 3103 1208 2742 
Q 947 2381 947 1747 
z
M 2906 525 
Q 2725 213 2448 61 
Q 2172 -91 1784 -91 
Q 1150 -91 751 415 
Q 353 922 353 1747 
Q 353 2572 751 3078 
Q 1150 3584 1784 3584 
Q 2172 3584 2448 3432 
Q 2725 3281 2906 2969 
L 2906 3500 
L 3481 3500 
L 3481 -1331 
L 2906 -1331 
L 2906 525 
z
" id="DejaVuSans-71" transform="scale(0.015625)"/>
       <path d="M 544 1381 
L 544 3500 
L 1119 3500 
L 1119 1403 
Q 1119 906 1312 657 
Q 1506 409 1894 409 
Q 2359 409 2629 706 
Q 2900 1003 2900 1516 
L 2900 3500 
L 3475 3500 
L 3475 0 
L 2900 0 
L 2900 538 
Q 2691 219 2414 64 
Q 2138 -91 1772 -91 
Q 1169 -91 856 284 
Q 544 659 544 1381 
z
M 1991 3584 
L 1991 3584 
z
" id="DejaVuSans-75" transform="scale(0.015625)"/>
       <path d="M 3513 2113 
L 3513 0 
L 2938 0 
L 2938 2094 
Q 2938 2591 2744 2837 
Q 2550 3084 2163 3084 
Q 1697 3084 1428 2787 
Q 1159 2491 1159 1978 
L 1159 0 
L 581 0 
L 581 3500 
L 1159 3500 
L 1159 2956 
Q 1366 3272 1645 3428 
Q 1925 3584 2291 3584 
Q 2894 3584 3203 3211 
Q 3513 2838 3513 2113 
z
" id="DejaVuSans-6e" transform="scale(0.015625)"/>
       <path d="M 3122 3366 
L 3122 2828 
Q 2878 2963 2633 3030 
Q 2388 3097 2138 3097 
Q 1578 3097 1268 2742 
Q 959 2388 959 1747 
Q 959 1106 1268 751 
Q 1578 397 2138 397 
Q 2388 397 2633 464 
Q 2878 531 3122 666 
L 3122 134 
Q 2881 22 2623 -34 
Q 2366 -91 2075 -91 
Q 1284 -91 818 406 
Q 353 903 353 1747 
Q 353 2603 823 3093 
Q 1294 3584 2113 3584 
Q 2378 3584 2631 3529 
Q 2884 3475 3122 3366 
z
" id="DejaVuSans-63" transform="scale(0.015625)"/>
       <path d="M 2059 -325 
Q 1816 -950 1584 -1140 
Q 1353 -1331 966 -1331 
L 506 -1331 
L 506 -850 
L 844 -850 
Q 1081 -850 1212 -737 
Q 1344 -625 1503 -206 
L 1606 56 
L 191 3500 
L 800 3500 
L 1894 763 
L 2988 3500 
L 3597 3500 
L 2059 -325 
z
" id="DejaVuSans-79" transform="scale(0.015625)"/>
       <path id="DejaVuSans-20" transform="scale(0.015625)"/>
       <path d="M 1984 4856 
Q 1566 4138 1362 3434 
Q 1159 2731 1159 2009 
Q 1159 1288 1364 580 
Q 1569 -128 1984 -844 
L 1484 -844 
Q 1016 -109 783 600 
Q 550 1309 550 2009 
Q 550 2706 781 3412 
Q 1013 4119 1484 4856 
L 1984 4856 
z
" id="DejaVuSans-28" transform="scale(0.015625)"/>
       <path d="M 2906 2969 
L 2906 4863 
L 3481 4863 
L 3481 0 
L 2906 0 
L 2906 525 
Q 2725 213 2448 61 
Q 2172 -91 1784 -91 
Q 1150 -91 751 415 
Q 353 922 353 1747 
Q 353 2572 751 3078 
Q 1150 3584 1784 3584 
Q 2172 3584 2448 3432 
Q 2725 3281 2906 2969 
z
M 947 1747 
Q 947 1113 1208 752 
Q 1469 391 1925 391 
Q 2381 391 2643 752 
Q 2906 1113 2906 1747 
Q 2906 2381 2643 2742 
Q 2381 3103 1925 3103 
Q 1469 3103 1208 2742 
Q 947 2381 947 1747 
z
" id="DejaVuSans-64" transform="scale(0.015625)"/>
       <path d="M 1959 3097 
Q 1497 3097 1228 2736 
Q 959 2375 959 1747 
Q 959 1119 1226 758 
Q 1494 397 1959 397 
Q 2419 397 2687 759 
Q 2956 1122 2956 1747 
Q 2956 2369 2687 2733 
Q 2419 3097 1959 3097 
z
M 1959 3584 
Q 2709 3584 3137 3096 
Q 3566 2609 3566 1747 
Q 3566 888 3137 398 
Q 2709 -91 1959 -91 
Q 1206 -91 779 398 
Q 353 888 353 1747 
Q 353 2609 779 3096 
Q 1206 3584 1959 3584 
z
" id="DejaVuSans-6f" transform="scale(0.015625)"/>
       <path d="M 603 4863 
L 1178 4863 
L 1178 0 
L 603 0 
L 603 4863 
z
" id="DejaVuSans-6c" transform="scale(0.015625)"/>
       <path d="M 603 3500 
L 1178 3500 
L 1178 0 
L 603 0 
L 603 3500 
z
M 603 4863 
L 1178 4863 
L 1178 4134 
L 603 4134 
L 603 4863 
z
" id="DejaVuSans-69" transform="scale(0.015625)"/>
       <path d="M 2906 1791 
Q 2906 2416 2648 2759 
Q 2391 3103 1925 3103 
Q 1463 3103 1205 2759 
Q 947 2416 947 1791 
Q 947 1169 1205 825 
Q 1463 481 1925 481 
Q 2391 481 2648 825 
Q 2906 1169 2906 1791 
z
M 3481 434 
Q 3481 -459 3084 -895 
Q 2688 -1331 1869 -1331 
Q 1566 -1331 1297 -1286 
Q 1028 -1241 775 -1147 
L 775 -588 
Q 1028 -725 1275 -790 
Q 1522 -856 1778 -856 
Q 2344 -856 2625 -561 
Q 2906 -266 2906 331 
L 2906 616 
Q 2728 306 2450 153 
Q 2172 0 1784 0 
Q 1141 0 747 490 
Q 353 981 353 1791 
Q 353 2603 747 3093 
Q 1141 3584 1784 3584 
Q 2172 3584 2450 3431 
Q 2728 3278 2906 2969 
L 2906 3500 
L 3481 3500 
L 3481 434 
z
" id="DejaVuSans-67" transform="scale(0.015625)"/>
       <path d="M 191 3500 
L 800 3500 
L 1894 563 
L 2988 3500 
L 3597 3500 
L 2284 0 
L 1503 0 
L 191 3500 
z
" id="DejaVuSans-76" transform="scale(0.015625)"/>
       <path d="M 513 4856 
L 1013 4856 
Q 1481 4119 1714 3412 
Q 1947 2706 1947 2009 
Q 1947 1309 1714 600 
Q 1481 -109 1013 -844 
L 513 -844 
Q 928 -128 1133 580 
Q 1338 1288 1338 2009 
Q 1338 2731 1133 3434 
Q 928 4138 513 4856 
z
" id="DejaVuSans-29" transform="scale(0.015625)"/>
      </defs>
      <use xlink:href="#DejaVuSans-46"/>
      <use x="50.269531" xlink:href="#DejaVuSans-72"/>
      <use x="89.132812" xlink:href="#DejaVuSans-65"/>
      <use x="150.65625" xlink:href="#DejaVuSans-71"/>
      <use x="214.132812" xlink:href="#DejaVuSans-75"/>
      <use x="277.511719" xlink:href="#DejaVuSans-65"/>
      <use x="339.035156" xlink:href="#DejaVuSans-6e"/>
      <use x="402.414062" xlink:href="#DejaVuSans-63"/>
      <use x="457.394531" xlink:href="#DejaVuSans-79"/>
      <use x="516.574219" xlink:href="#DejaVuSans-20"/>
      <use x="548.361328" xlink:href="#DejaVuSans-28"/>
      <use x="587.375" xlink:href="#DejaVuSans-37"/>
      <use x="650.998047" xlink:href="#DejaVuSans-20"/>
      <use x="682.785156" xlink:href="#DejaVuSans-64"/>
      <use x="746.261719" xlink:href="#DejaVuSans-61"/>
      <use x="807.541016" xlink:href="#DejaVuSans-79"/>
      <use x="866.720703" xlink:href="#DejaVuSans-20"/>
      <use x="898.507812" xlink:href="#DejaVuSans-72"/>
      <use x="937.371094" xlink:href="#DejaVuSans-6f"/>
      <use x="998.552734" xlink:href="#DejaVuSans-6c"/>
      <use x="1026.335938" xlink:href="#DejaVuSans-6c"/>
      <use x="1054.119141" xlink:href="#DejaVuSans-69"/>
      <use x="1081.902344" xlink:href="#DejaVuSans-6e"/>
      <use x="1145.28125" xlink:href="#DejaVuSans-67"/>
      <use x="1208.757812" xlink:href="#DejaVuSans-20"/>
      <use x="1240.544922" xlink:href="#DejaVuSans-61"/>
      <use x="1301.824219" xlink:href="#DejaVuSans-76"/>
      <use x="1361.003906" xlink:href="#DejaVuSans-65"/>
      <use x="1422.527344" xlink:href="#DejaVuSans-72"/>
      <use x="1463.640625" xlink:href="#DejaVuSans-61"/>
      <use x="1524.919922" xlink:href="#DejaVuSans-67"/>
      <use x="1588.396484" xlink:href="#DejaVuSans-65"/>
      <use x="1649.919922" xlink:href="#DejaVuSans-29"/>
     </g>
    </g>
   </g>
   <g id="line2d_19">
    <path clip-path="url(#pe39f311e90)" d="M 143.599432 214.88 
L 146.872159 228.96 
L 752.326705 228.859829 
L 762.144886 228.849767 
L 781.78125 228.671245 
L 788.326705 228.454618 
L 801.417614 228.059028 
L 807.963068 227.879234 
L 821.053977 227.105325 
L 830.872159 226.747118 
L 834.144886 226.513317 
L 847.235795 226.128285 
L 850.508523 226.317423 
L 863.599432 225.315856 
L 866.872159 224.902577 
L 870.144886 224.654466 
L 873.417614 224.578108 
L 876.690341 224.177224 
L 879.963068 224.084072 
L 883.235795 224.173124 
L 886.508523 224.001353 
L 889.78125 223.48088 
L 893.053977 223.202795 
L 896.326705 222.429815 
L 902.872159 220.491046 
L 906.144886 219.943795 
L 909.417614 219.799813 
L 912.690341 219.230409 
L 915.963068 219.054086 
L 919.235795 219.145236 
L 922.508523 218.214924 
L 925.78125 216.47263 
L 929.053977 215.88295 
L 932.326705 214.39904 
L 935.599432 212.736523 
L 942.144886 210.300379 
L 945.417614 208.61209 
L 951.963068 206.643374 
L 955.235795 204.72001 
L 958.508523 202.176236 
L 961.78125 200.506598 
L 968.326705 195.593741 
L 971.599432 193.536317 
L 974.872159 192.509737 
L 978.144886 188.258285 
L 981.417614 185.471303 
L 984.690341 184.26716 
L 987.963068 184.650626 
L 991.235795 180.161413 
L 994.508523 176.705311 
L 997.78125 172.88883 
L 1001.053977 167.032872 
L 1004.326705 159.497989 
L 1007.599432 157.083332 
L 1010.872159 155.410115 
L 1014.144886 150.801946 
L 1020.690341 142.743037 
L 1023.963068 136.893666 
L 1027.235795 133.153525 
L 1030.508523 127.982698 
L 1033.78125 123.377332 
L 1037.053977 118.258138 
L 1040.326705 113.547116 
L 1043.599432 105.767257 
L 1046.872159 100.515658 
L 1050.144886 95.737867 
L 1056.690341 84.819741 
L 1059.963068 80.330556 
L 1063.235795 77.464364 
L 1066.508523 75.379855 
L 1069.78125 74.352018 
L 1073.053977 73.034303 
L 1076.326705 72.519325 
L 1079.599432 73.9908 
L 1082.872159 72.945916 
L 1086.144886 73.995848 
L 1089.417614 76.015583 
L 1092.690341 78.401184 
L 1095.963068 82.054293 
L 1099.235795 81.209493 
L 1102.508523 68.651655 
L 1102.508523 68.651655 
" style="fill:none;stroke:#947383;stroke-linecap:square;stroke-width:2;"/>
   </g>
   <g id="line2d_20">
    <path clip-path="url(#pe39f311e90)" d="M 284.326705 228.930482 
L 297.417614 228.96 
L 749.053977 228.857112 
L 768.690341 228.357575 
L 771.963068 227.912598 
L 775.235795 227.599914 
L 778.508523 227.404191 
L 788.326705 227.263634 
L 794.872159 227.239592 
L 798.144886 226.632214 
L 804.690341 224.644729 
L 807.963068 223.258371 
L 811.235795 222.570557 
L 814.508523 221.191239 
L 817.78125 220.090616 
L 821.053977 219.560762 
L 824.326705 218.866482 
L 830.872159 215.653958 
L 834.144886 213.272985 
L 837.417614 212.164829 
L 840.690341 211.196137 
L 843.963068 209.452772 
L 847.235795 209.09095 
L 850.508523 207.558895 
L 853.78125 203.321355 
L 857.053977 197.233482 
L 866.872159 187.57038 
L 870.144886 185.032976 
L 873.417614 181.957803 
L 876.690341 176.394374 
L 879.963068 168.365336 
L 883.235795 161.777767 
L 886.508523 155.786646 
L 889.78125 150.316893 
L 893.053977 148.851258 
L 896.326705 145.560222 
L 899.599432 140.155604 
L 902.872159 135.04247 
L 906.144886 128.611377 
L 909.417614 115.745442 
L 912.690341 107.946313 
L 915.963068 102.612185 
L 919.235795 95.652662 
L 922.508523 91.075519 
L 925.78125 87.76203 
L 929.053977 82.590695 
L 932.326705 76.577014 
L 935.599432 72.76807 
L 938.872159 70.905855 
L 942.144886 68.543485 
L 945.417614 64.202023 
L 948.690341 61.326124 
L 951.963068 56.84287 
L 955.235795 51.312685 
L 958.508523 47.207173 
L 961.78125 45.458948 
L 968.326705 42.655194 
L 971.599432 40.450374 
L 974.872159 38.801995 
L 978.144886 36.669865 
L 981.417614 35.260212 
L 984.690341 33.609327 
L 987.963068 32.159896 
L 991.235795 31.750112 
L 994.508523 30.741622 
L 997.78125 28.826377 
L 1001.053977 27.092519 
L 1004.326705 26.448677 
L 1007.599432 24.730833 
L 1010.872159 24.308039 
L 1017.417614 23.166345 
L 1020.690341 22.401622 
L 1023.963068 21.78379 
L 1030.508523 20.848332 
L 1033.78125 20.813684 
L 1046.872159 20.134073 
L 1053.417614 19.62551 
L 1059.963068 19.212455 
L 1063.235795 19.32983 
L 1069.78125 19.189124 
L 1073.053977 19.193207 
L 1076.326705 19.061666 
L 1079.599432 18.815856 
L 1082.872159 18.684425 
L 1086.144886 18.414229 
L 1099.235795 18.029948 
L 1099.235795 18.029948 
" style="fill:none;stroke:#96c6ad;stroke-linecap:square;stroke-width:2;"/>
   </g>
   <g id="line2d_21">
    <path clip-path="url(#pe39f311e90)" d="M 493.78125 223.68 
L 497.053977 228.96 
L 578.872159 228.96 
L 582.144886 228.214588 
L 595.235795 228.214588 
L 598.508523 228.96 
L 670.508523 228.96 
L 673.78125 228.553846 
L 686.872159 228.529901 
L 690.144886 228.936054 
L 742.508523 228.854155 
L 752.326705 228.803882 
L 758.872159 228.812388 
L 765.417614 228.906296 
L 781.78125 228.643714 
L 791.599432 228.671467 
L 798.144886 228.604799 
L 807.963068 228.435814 
L 811.235795 228.194692 
L 817.78125 227.981582 
L 824.326705 227.600103 
L 827.599432 227.574004 
L 834.144886 226.947314 
L 840.690341 226.970604 
L 843.963068 226.515086 
L 850.508523 226.544472 
L 857.053977 225.348661 
L 860.326705 225.572674 
L 863.599432 225.372702 
L 866.872159 224.949723 
L 873.417614 225.243021 
L 876.690341 224.917635 
L 879.963068 224.931498 
L 883.235795 225.341379 
L 886.508523 225.48844 
L 889.78125 225.182321 
L 896.326705 224.297741 
L 899.599432 223.689297 
L 902.872159 222.608718 
L 906.144886 223.045365 
L 909.417614 223.150483 
L 912.690341 222.840307 
L 915.963068 221.795834 
L 919.235795 221.333021 
L 922.508523 220.182942 
L 925.78125 220.115276 
L 932.326705 221.022699 
L 935.599432 220.883984 
L 938.872159 219.353268 
L 942.144886 217.502385 
L 945.417614 216.187836 
L 948.690341 213.362417 
L 951.963068 213.518521 
L 955.235795 213.1474 
L 958.508523 212.250299 
L 961.78125 208.797707 
L 965.053977 206.873713 
L 968.326705 203.471922 
L 971.599432 197.496325 
L 974.872159 196.663262 
L 978.144886 195.10867 
L 981.417614 192.178724 
L 984.690341 186.96583 
L 987.963068 184.847893 
L 991.235795 171.486471 
L 994.508523 161.089313 
L 997.78125 158.5889 
L 1001.053977 155.08156 
L 1004.326705 151.951896 
L 1007.599432 154.186599 
L 1010.872159 156.778597 
L 1014.144886 150.177155 
L 1017.417614 143.312873 
L 1020.690341 140.57848 
L 1023.963068 139.57691 
L 1027.235795 135.174547 
L 1030.508523 132.549098 
L 1033.78125 131.400413 
L 1037.053977 122.772943 
L 1040.326705 111.540815 
L 1043.599432 103.685184 
L 1046.872159 97.050948 
L 1050.144886 89.488576 
L 1053.417614 93.071406 
L 1056.690341 88.739229 
L 1059.963068 80.434706 
L 1063.235795 71.220349 
L 1066.508523 65.764121 
L 1069.78125 53.169337 
L 1073.053977 48.971208 
L 1076.326705 51.414262 
L 1079.599432 51.289143 
L 1082.872159 47.633073 
L 1086.144886 42.255119 
L 1089.417614 38.978536 
L 1092.690341 32.315192 
L 1095.963068 28.524178 
L 1099.235795 26.53244 
L 1102.508523 25.698455 
L 1105.78125 65.725513 
L 1109.053977 63.378847 
L 1109.053977 63.378847 
" style="fill:none;stroke:#525886;stroke-linecap:square;stroke-width:2;"/>
   </g>
   <g id="line2d_22">
    <path clip-path="url(#pe39f311e90)" d="M 94.508523 220.512 
L 97.78125 228.96 
L 323.599432 228.96 
L 326.872159 225.942857 
L 336.690341 225.942857 
L 339.963068 225.421376 
L 343.235795 228.438519 
L 346.508523 228.438519 
L 349.78125 227.641537 
L 353.053977 227.641537 
L 356.326705 228.163019 
L 362.872159 228.163019 
L 366.144886 228.96 
L 369.417614 228.96 
L 372.690341 228.021333 
L 385.78125 228.021333 
L 389.053977 228.147692 
L 392.326705 227.141978 
L 395.599432 226.279937 
L 402.144886 226.279937 
L 405.417614 227.092245 
L 408.690341 228.097959 
L 411.963068 228.96 
L 461.053977 228.96 
L 464.326705 228.041739 
L 474.144886 228.041739 
L 477.417614 226.721739 
L 480.690341 227.027826 
L 483.963068 226.35735 
L 490.508523 226.35735 
L 493.78125 227.67735 
L 497.053977 227.733734 
L 500.326705 228.404211 
L 503.599432 228.404211 
L 506.872159 227.848421 
L 510.144886 227.848421 
L 513.417614 226.714611 
L 519.963068 226.714611 
L 523.235795 227.2704 
L 526.508523 227.2704 
L 529.78125 228.96 
L 546.144886 228.96 
L 549.417614 227.64 
L 559.235795 227.64 
L 562.508523 222.550843 
L 565.78125 223.870843 
L 569.053977 223.870843 
L 572.326705 217.836558 
L 575.599432 212.807986 
L 578.872159 216.366708 
L 585.417614 216.366708 
L 588.690341 222.400994 
L 591.963068 227.429565 
L 595.235795 228.96 
L 598.508523 228.96 
L 601.78125 227.890633 
L 608.326705 227.890633 
L 614.872159 227.158093 
L 618.144886 228.22746 
L 621.417614 226.560092 
L 624.690341 226.560092 
L 627.963068 226.002534 
L 631.235795 226.412632 
L 634.508523 226.412632 
L 637.78125 228.08 
L 641.053977 228.08 
L 644.326705 228.96 
L 647.599432 228.177778 
L 650.872159 227.517778 
L 654.144886 225.490258 
L 657.417614 225.490258 
L 660.690341 224.571997 
L 663.963068 221.021911 
L 667.235795 217.659054 
L 670.508523 215.981311 
L 677.053977 212.250311 
L 680.326705 215.922619 
L 683.599432 219.104879 
L 686.872159 219.538029 
L 693.417614 221.148034 
L 696.690341 220.214072 
L 699.963068 215.393638 
L 703.235795 215.356626 
L 706.508523 211.510762 
L 709.78125 208.189112 
L 713.053977 207.143074 
L 716.326705 206.728489 
L 719.599432 201.411134 
L 722.872159 199.97335 
L 726.144886 200.833245 
L 729.417614 198.894783 
L 732.690341 196.148121 
L 735.963068 199.932861 
L 739.235795 200.704553 
L 742.508523 199.830019 
L 745.78125 201.424986 
L 749.053977 204.92229 
L 752.326705 203.933719 
L 755.599432 203.465502 
L 758.872159 203.117987 
L 762.144886 198.153095 
L 765.417614 194.549289 
L 768.690341 191.849931 
L 771.963068 187.180442 
L 775.235795 183.663782 
L 778.508523 182.633618 
L 781.78125 179.762815 
L 785.053977 171.819523 
L 788.326705 169.452681 
L 791.599432 171.300897 
L 794.872159 166.756747 
L 798.144886 165.262754 
L 801.417614 170.230041 
L 804.690341 173.391616 
L 807.963068 170.10683 
L 811.235795 167.57979 
L 814.508523 172.441351 
L 817.78125 173.877893 
L 821.053977 174.959037 
L 824.326705 174.982152 
L 827.599432 177.899171 
L 830.872159 172.644116 
L 834.144886 172.759148 
L 837.417614 171.310478 
L 840.690341 171.068906 
L 843.963068 171.024022 
L 847.235795 165.026431 
L 850.508523 161.881293 
L 853.78125 158.378482 
L 857.053977 152.601095 
L 860.326705 154.83599 
L 863.599432 161.566231 
L 866.872159 160.926113 
L 870.144886 167.331426 
L 873.417614 176.215245 
L 876.690341 177.087176 
L 879.963068 180.205927 
L 883.235795 184.364676 
L 886.508523 179.100247 
L 889.78125 177.306365 
L 893.053977 177.420207 
L 896.326705 172.498486 
L 899.599432 163.700331 
L 902.872159 162.367201 
L 906.144886 160.765488 
L 909.417614 156.31949 
L 912.690341 160.671919 
L 915.963068 167.991221 
L 919.235795 170.576867 
L 925.78125 162.553289 
L 929.053977 158.38047 
L 932.326705 159.036606 
L 935.599432 155.477353 
L 938.872159 154.522413 
L 942.144886 155.446746 
L 945.417614 153.048321 
L 948.690341 149.250265 
L 951.963068 144.407797 
L 955.235795 141.549332 
L 958.508523 139.689058 
L 961.78125 136.684084 
L 965.053977 133.456925 
L 968.326705 126.767284 
L 971.599432 117.150963 
L 974.872159 108.24413 
L 978.144886 104.17478 
L 981.417614 95.867689 
L 984.690341 96.546559 
L 987.963068 94.001639 
L 991.235795 90.004414 
L 994.508523 84.721607 
L 997.78125 83.975163 
L 1001.053977 82.387493 
L 1004.326705 92.207412 
L 1007.599432 91.106753 
L 1010.872159 93.617686 
L 1014.144886 85.330779 
L 1017.417614 79.650547 
L 1020.690341 71.391259 
L 1023.963068 75.358081 
L 1027.235795 70.538061 
L 1030.508523 74.632755 
L 1033.78125 76.832971 
L 1037.053977 76.797673 
L 1040.326705 69.00764 
L 1043.599432 66.734085 
L 1046.872159 61.176646 
L 1050.144886 58.34306 
L 1053.417614 58.447356 
L 1056.690341 66.790174 
L 1059.963068 65.405578 
L 1063.235795 63.704125 
L 1066.508523 61.734829 
L 1069.78125 64.534533 
L 1073.053977 63.619115 
L 1076.326705 66.683897 
L 1079.599432 79.585962 
L 1082.872159 88.179029 
L 1086.144886 88.247473 
L 1089.417614 80.517277 
L 1092.690341 73.892267 
L 1095.963068 57.944273 
L 1099.235795 46.577873 
L 1099.235795 46.577873 
" style="fill:none;stroke:#937252;stroke-linecap:square;stroke-width:2;"/>
   </g>
   <g id="line2d_23">
    <path clip-path="url(#pe39f311e90)" d="M 392.326705 225.44 
L 395.599432 228.96 
L 546.144886 228.96 
L 549.417614 218.4 
L 562.508523 218.4 
L 565.78125 228.96 
L 582.144886 228.96 
L 585.417614 222.925714 
L 598.508523 222.925714 
L 601.78125 228.96 
L 637.78125 228.96 
L 641.053977 207.84 
L 644.326705 204 
L 654.144886 204 
L 657.417614 225.12 
L 660.690341 228.96 
L 667.235795 228.96 
L 670.508523 214.88 
L 680.326705 214.88 
L 683.599432 206.432 
L 686.872159 211.125333 
L 699.963068 211.125333 
L 703.235795 220.512 
L 713.053977 220.512 
L 716.326705 228.96 
L 726.144886 228.96 
L 729.417614 214.88 
L 732.690341 214.88 
L 735.963068 207.84 
L 742.508523 207.84 
L 745.78125 221.92 
L 749.053977 221.92 
L 752.326705 228.96 
L 762.144886 228.96 
L 765.417614 186.72 
L 771.963068 186.72 
L 775.235795 174.048 
L 778.508523 174.048 
L 781.78125 212.448 
L 788.326705 212.448 
L 791.599432 225.12 
L 794.872159 225.12 
L 798.144886 228.96 
L 807.963068 228.96 
L 811.235795 200.8 
L 814.508523 200.8 
L 817.78125 191.413333 
L 821.053977 185.379048 
L 824.326705 177.699048 
L 827.599432 205.859048 
L 830.872159 204.234432 
L 834.144886 211.274432 
L 837.417614 216.101861 
L 840.690341 222.539508 
L 843.963068 218.784841 
L 847.235795 210.134862 
L 850.508523 210.134862 
L 853.78125 208.525719 
L 857.053977 206.750929 
L 860.326705 205.536184 
L 863.599432 212.561548 
L 866.872159 207.597445 
L 870.144886 204.653445 
L 873.417614 207.670588 
L 876.690341 209.622857 
L 879.963068 210.056088 
L 883.235795 213.437555 
L 886.508523 217.361033 
L 889.78125 212.51382 
L 893.053977 212.362963 
L 896.326705 212.694257 
L 899.599432 212.783559 
L 902.872159 209.926748 
L 906.144886 207.625653 
L 909.417614 203.897327 
L 912.690341 200.989692 
L 915.963068 196.565344 
L 919.235795 199.634062 
L 922.508523 196.22237 
L 925.78125 187.278696 
L 929.053977 176.981894 
L 932.326705 176.666242 
L 935.599432 163.037524 
L 938.872159 145.966847 
L 942.144886 149.738276 
L 945.417614 150.80588 
L 948.690341 144.02588 
L 951.963068 140.29059 
L 955.235795 155.9746 
L 958.508523 156.955171 
L 961.78125 154.273577 
L 965.053977 156.29463 
L 968.326705 164.531253 
L 971.599432 161.489533 
L 974.872159 155.789841 
L 978.144886 158.916535 
L 981.417614 149.626911 
L 984.690341 134.385065 
L 987.963068 127.73833 
L 991.235795 120.65124 
L 994.508523 125.227678 
L 997.78125 118.931032 
L 1001.053977 114.658421 
L 1004.326705 107.630686 
L 1007.599432 98.141991 
L 1010.872159 77.496065 
L 1014.144886 77.178205 
L 1017.417614 74.38727 
L 1020.690341 71.170882 
L 1023.963068 91.936466 
L 1027.235795 84.88537 
L 1030.508523 76.816447 
L 1033.78125 76.313291 
L 1037.053977 76.680155 
L 1040.326705 52.31805 
L 1043.599432 75.535071 
L 1046.872159 79.346381 
L 1050.144886 78.013016 
L 1053.417614 71.978731 
L 1056.690341 74.301931 
L 1059.963068 58.813931 
L 1063.235795 50.07462 
L 1066.508523 46.952533 
L 1069.78125 49.2992 
L 1073.053977 41.696 
L 1076.326705 71.264 
L 1079.599432 71.264 
L 1079.599432 71.264 
" style="fill:none;stroke:#d18cad;stroke-linecap:square;stroke-width:2;"/>
   </g>
   <g id="line2d_24">
    <path clip-path="url(#pe39f311e90)" d="M 595.235795 198.788571 
L 598.508523 228.96 
L 670.508523 228.96 
L 673.78125 218.4 
L 686.872159 218.4 
L 690.144886 228.96 
L 706.508523 228.96 
L 709.78125 224.736 
L 722.872159 224.736 
L 726.144886 228.96 
L 745.78125 228.96 
L 749.053977 224.266667 
L 758.872159 224.266667 
L 762.144886 221.017436 
L 765.417614 209.870769 
L 768.690341 209.870769 
L 775.235795 199.310769 
L 778.508523 202.56 
L 781.78125 201.504 
L 785.053977 201.504 
L 788.326705 206.784 
L 791.599432 203.616 
L 794.872159 193.558857 
L 798.144886 210.454857 
L 801.417614 199.894857 
L 804.690341 186.897934 
L 807.963068 186.897934 
L 811.235795 173.915077 
L 814.508523 173.915077 
L 817.78125 165.995077 
L 821.053977 164.912 
L 824.326705 169.84 
L 827.599432 178.8 
L 830.872159 164.72 
L 834.144886 159.062857 
L 837.417614 158.358857 
L 840.690341 138.838857 
L 843.963068 131.798857 
L 847.235795 137.430857 
L 850.508523 157.344 
L 853.78125 165.088 
L 857.053977 170.025143 
L 860.326705 171.649758 
L 866.872159 146.305758 
L 870.144886 132.225758 
L 873.417614 123.448615 
L 876.690341 121.824 
L 879.963068 100.704 
L 883.235795 112.906667 
L 886.508523 134.026667 
L 889.78125 139.786667 
L 893.053977 160.906667 
L 896.326705 203.146667 
L 899.599432 197.28 
L 902.872159 176.16 
L 906.144886 165.6 
L 909.417614 151.52 
L 912.690341 109.28 
L 915.963068 98.72 
L 919.235795 119.84 
L 922.508523 151.52 
L 925.78125 151.52 
L 929.053977 185.312 
L 932.326705 201.462588 
L 935.599432 193.014588 
L 938.872159 193.014588 
L 942.144886 195.574588 
L 945.417614 204.022588 
L 948.690341 208.992 
L 951.963068 203.36 
L 955.235795 182.24 
L 958.508523 175.657143 
L 961.78125 158.761143 
L 965.053977 143.675429 
L 968.326705 144.758505 
L 971.599432 151.798505 
L 974.872159 148.781363 
L 978.144886 155.117363 
L 981.417614 144.859077 
L 984.690341 115.616 
L 987.963068 101.536 
L 991.235795 115.616 
L 994.508523 98.016 
L 997.78125 102.24 
L 1001.053977 117.6 
L 1004.326705 117.6 
L 1007.599432 99.296 
L 1010.872159 99.296 
L 1014.144886 87.227429 
L 1017.417614 81.254095 
L 1020.690341 70.423326 
L 1023.963068 56.343326 
L 1027.235795 48.9328 
L 1030.508523 45.161371 
L 1033.78125 39.998704 
L 1040.326705 41.152674 
L 1043.599432 38.7072 
L 1046.872159 36.8064 
L 1050.144886 32.5824 
L 1053.417614 32.5824 
L 1059.963068 38.823748 
L 1063.235795 45.582148 
L 1066.508523 47.694148 
L 1069.78125 46.494148 
L 1073.053977 49.382354 
L 1076.326705 44.382933 
L 1079.599432 34.245333 
L 1082.872159 32.133333 
L 1086.144886 31.978039 
L 1089.417614 24.511373 
L 1092.690341 22.164706 
L 1099.235795 22.164706 
L 1102.508523 19.68 
L 1105.78125 17.76 
L 1105.78125 17.76 
" style="fill:none;stroke:#a4a86f;stroke-linecap:square;stroke-width:2;"/>
   </g>
   <g id="line2d_25">
    <path clip-path="url(#pe39f311e90)" d="M 817.78125 220.864 
L 821.053977 226.144 
L 824.326705 223.920842 
L 827.599432 223.920842 
L 830.872159 224.624842 
L 834.144886 224.624842 
L 837.417614 224.361665 
L 840.690341 226.412414 
L 843.963068 225.637368 
L 847.235795 227.39441 
L 850.508523 227.39441 
L 853.78125 227.657588 
L 857.053977 227.829996 
L 860.326705 228.605042 
L 863.599432 228.96 
L 866.872159 228.96 
L 870.144886 228.96 
L 873.417614 228.96 
L 876.690341 228.96 
L 879.963068 228.96 
L 883.235795 228.96 
L 886.508523 228.96 
L 889.78125 228.96 
L 893.053977 228.96 
L 896.326705 228.96 
L 899.599432 227.848421 
L 902.872159 225.91745 
L 906.144886 225.91745 
L 909.417614 225.91745 
L 912.690341 225.91745 
L 915.963068 227.029029 
L 919.235795 228.96 
L 922.508523 226.205217 
L 925.78125 226.205217 
L 929.053977 226.076043 
L 932.326705 226.076043 
L 935.599432 226.076043 
L 938.872159 228.830826 
L 942.144886 228.830826 
L 945.417614 228.96 
L 948.690341 228.96 
L 951.963068 228.96 
L 955.235795 228.96 
L 958.508523 228.96 
L 961.78125 228.96 
L 965.053977 228.96 
L 968.326705 228.96 
L 971.599432 228.96 
L 974.872159 228.96 
L 978.144886 228.96 
L 981.417614 228.96 
L 984.690341 228.3968 
L 987.963068 227.81817 
L 991.235795 227.81817 
L 994.508523 227.391503 
L 997.78125 227.391503 
L 1001.053977 227.954703 
L 1004.326705 226.568682 
L 1007.599432 224.524811 
L 1010.872159 224.951478 
L 1014.144886 224.951478 
L 1017.417614 224.951478 
L 1020.690341 226.095935 
L 1023.963068 226.707941 
L 1027.235795 225.518082 
L 1030.508523 224.344749 
L 1033.78125 221.931035 
L 1037.053977 213.6998 
L 1040.326705 211.752465 
L 1043.599432 203.392411 
L 1046.872159 186.731077 
L 1050.144886 178.584792 
L 1053.417614 181.87622 
L 1056.690341 185.25542 
L 1059.963068 194.805333 
L 1063.235795 191.52 
L 1066.508523 196.8 
L 1069.78125 185.664 
L 1073.053977 143.424 
L 1076.326705 122.304 
L 1079.599432 101.184 
L 1082.872159 64.224 
" style="fill:none;stroke:#d3d3d3;stroke-linecap:square;stroke-width:2;"/>
   </g>
   <g id="patch_3">
    <path d="M 43.78125 228.96 
L 43.78125 7.2 
" style="fill:none;stroke:#000000;stroke-linecap:square;stroke-linejoin:miter;stroke-width:0.8;"/>
   </g>
   <g id="patch_4">
    <path d="M 43.78125 228.96 
L 1159.78125 228.96 
" style="fill:none;stroke:#000000;stroke-linecap:square;stroke-linejoin:miter;stroke-width:0.8;"/>
   </g>
   <g id="legend_1">
    <g id="line2d_26">
     <path d="M 50.98125 17.67875 
L 66.98125 17.67875 
" style="fill:none;stroke:#947383;stroke-linecap:square;stroke-width:2;"/>
    </g>
    <g id="line2d_27"/>
    <g id="text_21">
     <!-- North America -->
     <g transform="translate(73.38125 20.47875)scale(0.08 -0.08)">
      <defs>
       <path d="M 628 4666 
L 1478 4666 
L 3547 763 
L 3547 4666 
L 4159 4666 
L 4159 0 
L 3309 0 
L 1241 3903 
L 1241 0 
L 628 0 
L 628 4666 
z
" id="DejaVuSans-4e" transform="scale(0.015625)"/>
       <path d="M 3513 2113 
L 3513 0 
L 2938 0 
L 2938 2094 
Q 2938 2591 2744 2837 
Q 2550 3084 2163 3084 
Q 1697 3084 1428 2787 
Q 1159 2491 1159 1978 
L 1159 0 
L 581 0 
L 581 4863 
L 1159 4863 
L 1159 2956 
Q 1366 3272 1645 3428 
Q 1925 3584 2291 3584 
Q 2894 3584 3203 3211 
Q 3513 2838 3513 2113 
z
" id="DejaVuSans-68" transform="scale(0.015625)"/>
       <path d="M 2188 4044 
L 1331 1722 
L 3047 1722 
L 2188 4044 
z
M 1831 4666 
L 2547 4666 
L 4325 0 
L 3669 0 
L 3244 1197 
L 1141 1197 
L 716 0 
L 50 0 
L 1831 4666 
z
" id="DejaVuSans-41" transform="scale(0.015625)"/>
       <path d="M 3328 2828 
Q 3544 3216 3844 3400 
Q 4144 3584 4550 3584 
Q 5097 3584 5394 3201 
Q 5691 2819 5691 2113 
L 5691 0 
L 5113 0 
L 5113 2094 
Q 5113 2597 4934 2840 
Q 4756 3084 4391 3084 
Q 3944 3084 3684 2787 
Q 3425 2491 3425 1978 
L 3425 0 
L 2847 0 
L 2847 2094 
Q 2847 2600 2669 2842 
Q 2491 3084 2119 3084 
Q 1678 3084 1418 2786 
Q 1159 2488 1159 1978 
L 1159 0 
L 581 0 
L 581 3500 
L 1159 3500 
L 1159 2956 
Q 1356 3278 1631 3431 
Q 1906 3584 2284 3584 
Q 2666 3584 2933 3390 
Q 3200 3197 3328 2828 
z
" id="DejaVuSans-6d" transform="scale(0.015625)"/>
      </defs>
      <use xlink:href="#DejaVuSans-4e"/>
      <use x="74.804688" xlink:href="#DejaVuSans-6f"/>
      <use x="135.986328" xlink:href="#DejaVuSans-72"/>
      <use x="177.099609" xlink:href="#DejaVuSans-74"/>
      <use x="216.308594" xlink:href="#DejaVuSans-68"/>
      <use x="279.6875" xlink:href="#DejaVuSans-20"/>
      <use x="311.474609" xlink:href="#DejaVuSans-41"/>
      <use x="379.882812" xlink:href="#DejaVuSans-6d"/>
      <use x="477.294922" xlink:href="#DejaVuSans-65"/>
      <use x="538.818359" xlink:href="#DejaVuSans-72"/>
      <use x="579.931641" xlink:href="#DejaVuSans-69"/>
      <use x="607.714844" xlink:href="#DejaVuSans-63"/>
      <use x="662.695312" xlink:href="#DejaVuSans-61"/>
     </g>
    </g>
    <g id="line2d_28">
     <path d="M 50.98125 29.42125 
L 66.98125 29.42125 
" style="fill:none;stroke:#96c6ad;stroke-linecap:square;stroke-width:2;"/>
    </g>
    <g id="line2d_29"/>
    <g id="text_22">
     <!-- United Kingdom -->
     <g transform="translate(73.38125 32.22125)scale(0.08 -0.08)">
      <defs>
       <path d="M 556 4666 
L 1191 4666 
L 1191 1831 
Q 1191 1081 1462 751 
Q 1734 422 2344 422 
Q 2950 422 3222 751 
Q 3494 1081 3494 1831 
L 3494 4666 
L 4128 4666 
L 4128 1753 
Q 4128 841 3676 375 
Q 3225 -91 2344 -91 
Q 1459 -91 1007 375 
Q 556 841 556 1753 
L 556 4666 
z
" id="DejaVuSans-55" transform="scale(0.015625)"/>
       <path d="M 628 4666 
L 1259 4666 
L 1259 2694 
L 3353 4666 
L 4166 4666 
L 1850 2491 
L 4331 0 
L 3500 0 
L 1259 2247 
L 1259 0 
L 628 0 
L 628 4666 
z
" id="DejaVuSans-4b" transform="scale(0.015625)"/>
      </defs>
      <use xlink:href="#DejaVuSans-55"/>
      <use x="73.193359" xlink:href="#DejaVuSans-6e"/>
      <use x="136.572266" xlink:href="#DejaVuSans-69"/>
      <use x="164.355469" xlink:href="#DejaVuSans-74"/>
      <use x="203.564453" xlink:href="#DejaVuSans-65"/>
      <use x="265.087891" xlink:href="#DejaVuSans-64"/>
      <use x="328.564453" xlink:href="#DejaVuSans-20"/>
      <use x="360.351562" xlink:href="#DejaVuSans-4b"/>
      <use x="425.927734" xlink:href="#DejaVuSans-69"/>
      <use x="453.710938" xlink:href="#DejaVuSans-6e"/>
      <use x="517.089844" xlink:href="#DejaVuSans-67"/>
      <use x="580.566406" xlink:href="#DejaVuSans-64"/>
      <use x="644.042969" xlink:href="#DejaVuSans-6f"/>
      <use x="705.224609" xlink:href="#DejaVuSans-6d"/>
     </g>
    </g>
    <g id="line2d_30">
     <path d="M 50.98125 41.16375 
L 66.98125 41.16375 
" style="fill:none;stroke:#525886;stroke-linecap:square;stroke-width:2;"/>
    </g>
    <g id="line2d_31"/>
    <g id="text_23">
     <!-- Europe -->
     <g transform="translate(73.38125 43.96375)scale(0.08 -0.08)">
      <defs>
       <path d="M 628 4666 
L 3578 4666 
L 3578 4134 
L 1259 4134 
L 1259 2753 
L 3481 2753 
L 3481 2222 
L 1259 2222 
L 1259 531 
L 3634 531 
L 3634 0 
L 628 0 
L 628 4666 
z
" id="DejaVuSans-45" transform="scale(0.015625)"/>
       <path d="M 1159 525 
L 1159 -1331 
L 581 -1331 
L 581 3500 
L 1159 3500 
L 1159 2969 
Q 1341 3281 1617 3432 
Q 1894 3584 2278 3584 
Q 2916 3584 3314 3078 
Q 3713 2572 3713 1747 
Q 3713 922 3314 415 
Q 2916 -91 2278 -91 
Q 1894 -91 1617 61 
Q 1341 213 1159 525 
z
M 3116 1747 
Q 3116 2381 2855 2742 
Q 2594 3103 2138 3103 
Q 1681 3103 1420 2742 
Q 1159 2381 1159 1747 
Q 1159 1113 1420 752 
Q 1681 391 2138 391 
Q 2594 391 2855 752 
Q 3116 1113 3116 1747 
z
" id="DejaVuSans-70" transform="scale(0.015625)"/>
      </defs>
      <use xlink:href="#DejaVuSans-45"/>
      <use x="63.183594" xlink:href="#DejaVuSans-75"/>
      <use x="126.5625" xlink:href="#DejaVuSans-72"/>
      <use x="165.425781" xlink:href="#DejaVuSans-6f"/>
      <use x="226.607422" xlink:href="#DejaVuSans-70"/>
      <use x="290.083984" xlink:href="#DejaVuSans-65"/>
     </g>
    </g>
    <g id="line2d_32">
     <path d="M 50.98125 52.90625 
L 66.98125 52.90625 
" style="fill:none;stroke:#937252;stroke-linecap:square;stroke-width:2;"/>
    </g>
    <g id="line2d_33"/>
    <g id="text_24">
     <!-- Asia -->
     <g transform="translate(73.38125 55.70625)scale(0.08 -0.08)">
      <defs>
       <path d="M 2834 3397 
L 2834 2853 
Q 2591 2978 2328 3040 
Q 2066 3103 1784 3103 
Q 1356 3103 1142 2972 
Q 928 2841 928 2578 
Q 928 2378 1081 2264 
Q 1234 2150 1697 2047 
L 1894 2003 
Q 2506 1872 2764 1633 
Q 3022 1394 3022 966 
Q 3022 478 2636 193 
Q 2250 -91 1575 -91 
Q 1294 -91 989 -36 
Q 684 19 347 128 
L 347 722 
Q 666 556 975 473 
Q 1284 391 1588 391 
Q 1994 391 2212 530 
Q 2431 669 2431 922 
Q 2431 1156 2273 1281 
Q 2116 1406 1581 1522 
L 1381 1569 
Q 847 1681 609 1914 
Q 372 2147 372 2553 
Q 372 3047 722 3315 
Q 1072 3584 1716 3584 
Q 2034 3584 2315 3537 
Q 2597 3491 2834 3397 
z
" id="DejaVuSans-73" transform="scale(0.015625)"/>
      </defs>
      <use xlink:href="#DejaVuSans-41"/>
      <use x="68.408203" xlink:href="#DejaVuSans-73"/>
      <use x="120.507812" xlink:href="#DejaVuSans-69"/>
      <use x="148.291016" xlink:href="#DejaVuSans-61"/>
     </g>
    </g>
    <g id="line2d_34">
     <path d="M 50.98125 64.64875 
L 66.98125 64.64875 
" style="fill:none;stroke:#d18cad;stroke-linecap:square;stroke-width:2;"/>
    </g>
    <g id="line2d_35"/>
    <g id="text_25">
     <!-- Africa -->
     <g transform="translate(73.38125 67.44875)scale(0.08 -0.08)">
      <defs>
       <path d="M 2375 4863 
L 2375 4384 
L 1825 4384 
Q 1516 4384 1395 4259 
Q 1275 4134 1275 3809 
L 1275 3500 
L 2222 3500 
L 2222 3053 
L 1275 3053 
L 1275 0 
L 697 0 
L 697 3053 
L 147 3053 
L 147 3500 
L 697 3500 
L 697 3744 
Q 697 4328 969 4595 
Q 1241 4863 1831 4863 
L 2375 4863 
z
" id="DejaVuSans-66" transform="scale(0.015625)"/>
      </defs>
      <use xlink:href="#DejaVuSans-41"/>
      <use x="64.783203" xlink:href="#DejaVuSans-66"/>
      <use x="99.988281" xlink:href="#DejaVuSans-72"/>
      <use x="141.101562" xlink:href="#DejaVuSans-69"/>
      <use x="168.884766" xlink:href="#DejaVuSans-63"/>
      <use x="223.865234" xlink:href="#DejaVuSans-61"/>
     </g>
    </g>
    <g id="line2d_36">
     <path d="M 50.98125 76.39125 
L 66.98125 76.39125 
" style="fill:none;stroke:#a4a86f;stroke-linecap:square;stroke-width:2;"/>
    </g>
    <g id="line2d_37"/>
    <g id="text_26">
     <!-- Oceania -->
     <g transform="translate(73.38125 79.19125)scale(0.08 -0.08)">
      <defs>
       <path d="M 2522 4238 
Q 1834 4238 1429 3725 
Q 1025 3213 1025 2328 
Q 1025 1447 1429 934 
Q 1834 422 2522 422 
Q 3209 422 3611 934 
Q 4013 1447 4013 2328 
Q 4013 3213 3611 3725 
Q 3209 4238 2522 4238 
z
M 2522 4750 
Q 3503 4750 4090 4092 
Q 4678 3434 4678 2328 
Q 4678 1225 4090 567 
Q 3503 -91 2522 -91 
Q 1538 -91 948 565 
Q 359 1222 359 2328 
Q 359 3434 948 4092 
Q 1538 4750 2522 4750 
z
" id="DejaVuSans-4f" transform="scale(0.015625)"/>
      </defs>
      <use xlink:href="#DejaVuSans-4f"/>
      <use x="78.710938" xlink:href="#DejaVuSans-63"/>
      <use x="133.691406" xlink:href="#DejaVuSans-65"/>
      <use x="195.214844" xlink:href="#DejaVuSans-61"/>
      <use x="256.494141" xlink:href="#DejaVuSans-6e"/>
      <use x="319.873047" xlink:href="#DejaVuSans-69"/>
      <use x="347.65625" xlink:href="#DejaVuSans-61"/>
     </g>
    </g>
    <g id="line2d_38">
     <path d="M 50.98125 88.13375 
L 66.98125 88.13375 
" style="fill:none;stroke:#d3d3d3;stroke-linecap:square;stroke-width:2;"/>
    </g>
    <g id="line2d_39"/>
    <g id="text_27">
     <!-- South America -->
     <g transform="translate(73.38125 90.93375)scale(0.08 -0.08)">
      <defs>
       <path d="M 3425 4513 
L 3425 3897 
Q 3066 4069 2747 4153 
Q 2428 4238 2131 4238 
Q 1616 4238 1336 4038 
Q 1056 3838 1056 3469 
Q 1056 3159 1242 3001 
Q 1428 2844 1947 2747 
L 2328 2669 
Q 3034 2534 3370 2195 
Q 3706 1856 3706 1288 
Q 3706 609 3251 259 
Q 2797 -91 1919 -91 
Q 1588 -91 1214 -16 
Q 841 59 441 206 
L 441 856 
Q 825 641 1194 531 
Q 1563 422 1919 422 
Q 2459 422 2753 634 
Q 3047 847 3047 1241 
Q 3047 1584 2836 1778 
Q 2625 1972 2144 2069 
L 1759 2144 
Q 1053 2284 737 2584 
Q 422 2884 422 3419 
Q 422 4038 858 4394 
Q 1294 4750 2059 4750 
Q 2388 4750 2728 4690 
Q 3069 4631 3425 4513 
z
" id="DejaVuSans-53" transform="scale(0.015625)"/>
      </defs>
      <use xlink:href="#DejaVuSans-53"/>
      <use x="63.476562" xlink:href="#DejaVuSans-6f"/>
      <use x="124.658203" xlink:href="#DejaVuSans-75"/>
      <use x="188.037109" xlink:href="#DejaVuSans-74"/>
      <use x="227.246094" xlink:href="#DejaVuSans-68"/>
      <use x="290.625" xlink:href="#DejaVuSans-20"/>
      <use x="322.412109" xlink:href="#DejaVuSans-41"/>
      <use x="390.820312" xlink:href="#DejaVuSans-6d"/>
      <use x="488.232422" xlink:href="#DejaVuSans-65"/>
      <use x="549.755859" xlink:href="#DejaVuSans-72"/>
      <use x="590.869141" xlink:href="#DejaVuSans-69"/>
      <use x="618.652344" xlink:href="#DejaVuSans-63"/>
      <use x="673.632812" xlink:href="#DejaVuSans-61"/>
     </g>
    </g>
   </g>
  </g>
 </g>
 <defs>
  <clipPath id="pe39f311e90">
   <rect height="221.76" width="1116" x="43.78125" y="7.2"/>
  </clipPath>
 </defs>
</svg>
