<?xml version="1.0" encoding="utf-8" standalone="no"?>
<!DOCTYPE svg PUBLIC "-//W3C//DTD SVG 1.1//EN"
  "http://www.w3.org/Graphics/SVG/1.1/DTD/svg11.dtd">
<svg height="298.620937pt" version="1.1" viewBox="0 0 1166.98125 298.620937" width="1166.98125pt" xmlns="http://www.w3.org/2000/svg" xmlns:xlink="http://www.w3.org/1999/xlink">
 <metadata>
  <rdf:RDF xmlns:cc="http://creativecommons.org/ns#" xmlns:dc="http://purl.org/dc/elements/1.1/" xmlns:rdf="http://www.w3.org/1999/02/22-rdf-syntax-ns#">
   <cc:Work>
    <dc:type rdf:resource="http://purl.org/dc/dcmitype/StillImage"/>
    <dc:date>2021-07-16T07:51:44.236120</dc:date>
    <dc:format>image/svg+xml</dc:format>
    <dc:creator>
     <cc:Agent>
      <dc:title>Matplotlib v3.4.2, https://matplotlib.org/</dc:title>
     </cc:Agent>
    </dc:creator>
   </cc:Work>
  </rdf:RDF>
 </metadata>
 <defs>
  <style type="text/css">*{stroke-linecap:butt;stroke-linejoin:round;}</style>
 </defs>
 <g id="figure_1">
  <g id="patch_1">
   <path d="M 0 298.620937 
L 1166.98125 298.620937 
L 1166.98125 0 
L 0 0 
z
" style="fill:#ffffff;"/>
  </g>
  <g id="axes_1">
   <g id="patch_2">
    <path d="M 43.78125 228.96 
L 1159.78125 228.96 
L 1159.78125 7.2 
L 43.78125 7.2 
z
" style="fill:#ffffff;"/>
   </g>
   <g id="matplotlib.axis_1">
    <g id="xtick_1">
     <g id="line2d_1">
      <defs>
       <path d="M 0 0 
L 0 3.5 
" id="m0a4ebcb35c" style="stroke:#000000;stroke-width:0.8;"/>
      </defs>
      <g>
       <use style="stroke:#000000;stroke-width:0.8;" x="79.804965" xlink:href="#m0a4ebcb35c" y="228.96"/>
      </g>
     </g>
     <g id="text_1">
      <!-- 2020-10 -->
      <g transform="translate(82.56434 277.742812)rotate(-90)scale(0.1 -0.1)">
       <defs>
        <path d="M 1228 531 
L 3431 531 
L 3431 0 
L 469 0 
L 469 531 
Q 828 903 1448 1529 
Q 2069 2156 2228 2338 
Q 2531 2678 2651 2914 
Q 2772 3150 2772 3378 
Q 2772 3750 2511 3984 
Q 2250 4219 1831 4219 
Q 1534 4219 1204 4116 
Q 875 4013 500 3803 
L 500 4441 
Q 881 4594 1212 4672 
Q 1544 4750 1819 4750 
Q 2544 4750 2975 4387 
Q 3406 4025 3406 3419 
Q 3406 3131 3298 2873 
Q 3191 2616 2906 2266 
Q 2828 2175 2409 1742 
Q 1991 1309 1228 531 
z
" id="DejaVuSans-32" transform="scale(0.015625)"/>
        <path d="M 2034 4250 
Q 1547 4250 1301 3770 
Q 1056 3291 1056 2328 
Q 1056 1369 1301 889 
Q 1547 409 2034 409 
Q 2525 409 2770 889 
Q 3016 1369 3016 2328 
Q 3016 3291 2770 3770 
Q 2525 4250 2034 4250 
z
M 2034 4750 
Q 2819 4750 3233 4129 
Q 3647 3509 3647 2328 
Q 3647 1150 3233 529 
Q 2819 -91 2034 -91 
Q 1250 -91 836 529 
Q 422 1150 422 2328 
Q 422 3509 836 4129 
Q 1250 4750 2034 4750 
z
" id="DejaVuSans-30" transform="scale(0.015625)"/>
        <path d="M 313 2009 
L 1997 2009 
L 1997 1497 
L 313 1497 
L 313 2009 
z
" id="DejaVuSans-2d" transform="scale(0.015625)"/>
        <path d="M 794 531 
L 1825 531 
L 1825 4091 
L 703 3866 
L 703 4441 
L 1819 4666 
L 2450 4666 
L 2450 531 
L 3481 531 
L 3481 0 
L 794 0 
L 794 531 
z
" id="DejaVuSans-31" transform="scale(0.015625)"/>
       </defs>
       <use xlink:href="#DejaVuSans-32"/>
       <use x="63.623047" xlink:href="#DejaVuSans-30"/>
       <use x="127.246094" xlink:href="#DejaVuSans-32"/>
       <use x="190.869141" xlink:href="#DejaVuSans-30"/>
       <use x="254.492188" xlink:href="#DejaVuSans-2d"/>
       <use x="290.576172" xlink:href="#DejaVuSans-31"/>
       <use x="354.199219" xlink:href="#DejaVuSans-30"/>
      </g>
     </g>
    </g>
    <g id="xtick_2">
     <g id="line2d_2">
      <g>
       <use style="stroke:#000000;stroke-width:0.8;" x="193.757535" xlink:href="#m0a4ebcb35c" y="228.96"/>
      </g>
     </g>
     <g id="text_2">
      <!-- 2020-11 -->
      <g transform="translate(196.51691 277.742812)rotate(-90)scale(0.1 -0.1)">
       <use xlink:href="#DejaVuSans-32"/>
       <use x="63.623047" xlink:href="#DejaVuSans-30"/>
       <use x="127.246094" xlink:href="#DejaVuSans-32"/>
       <use x="190.869141" xlink:href="#DejaVuSans-30"/>
       <use x="254.492188" xlink:href="#DejaVuSans-2d"/>
       <use x="290.576172" xlink:href="#DejaVuSans-31"/>
       <use x="354.199219" xlink:href="#DejaVuSans-31"/>
      </g>
     </g>
    </g>
    <g id="xtick_3">
     <g id="line2d_3">
      <g>
       <use style="stroke:#000000;stroke-width:0.8;" x="304.034214" xlink:href="#m0a4ebcb35c" y="228.96"/>
      </g>
     </g>
     <g id="text_3">
      <!-- 2020-12 -->
      <g transform="translate(306.793589 277.742812)rotate(-90)scale(0.1 -0.1)">
       <use xlink:href="#DejaVuSans-32"/>
       <use x="63.623047" xlink:href="#DejaVuSans-30"/>
       <use x="127.246094" xlink:href="#DejaVuSans-32"/>
       <use x="190.869141" xlink:href="#DejaVuSans-30"/>
       <use x="254.492188" xlink:href="#DejaVuSans-2d"/>
       <use x="290.576172" xlink:href="#DejaVuSans-31"/>
       <use x="354.199219" xlink:href="#DejaVuSans-32"/>
      </g>
     </g>
    </g>
    <g id="xtick_4">
     <g id="line2d_4">
      <g>
       <use style="stroke:#000000;stroke-width:0.8;" x="417.986784" xlink:href="#m0a4ebcb35c" y="228.96"/>
      </g>
     </g>
     <g id="text_4">
      <!-- 2021-01 -->
      <g transform="translate(420.746159 277.742812)rotate(-90)scale(0.1 -0.1)">
       <use xlink:href="#DejaVuSans-32"/>
       <use x="63.623047" xlink:href="#DejaVuSans-30"/>
       <use x="127.246094" xlink:href="#DejaVuSans-32"/>
       <use x="190.869141" xlink:href="#DejaVuSans-31"/>
       <use x="254.492188" xlink:href="#DejaVuSans-2d"/>
       <use x="290.576172" xlink:href="#DejaVuSans-30"/>
       <use x="354.199219" xlink:href="#DejaVuSans-31"/>
      </g>
     </g>
    </g>
    <g id="xtick_5">
     <g id="line2d_5">
      <g>
       <use style="stroke:#000000;stroke-width:0.8;" x="531.939353" xlink:href="#m0a4ebcb35c" y="228.96"/>
      </g>
     </g>
     <g id="text_5">
      <!-- 2021-02 -->
      <g transform="translate(534.698728 277.742812)rotate(-90)scale(0.1 -0.1)">
       <use xlink:href="#DejaVuSans-32"/>
       <use x="63.623047" xlink:href="#DejaVuSans-30"/>
       <use x="127.246094" xlink:href="#DejaVuSans-32"/>
       <use x="190.869141" xlink:href="#DejaVuSans-31"/>
       <use x="254.492188" xlink:href="#DejaVuSans-2d"/>
       <use x="290.576172" xlink:href="#DejaVuSans-30"/>
       <use x="354.199219" xlink:href="#DejaVuSans-32"/>
      </g>
     </g>
    </g>
    <g id="xtick_6">
     <g id="line2d_6">
      <g>
       <use style="stroke:#000000;stroke-width:0.8;" x="634.864254" xlink:href="#m0a4ebcb35c" y="228.96"/>
      </g>
     </g>
     <g id="text_6">
      <!-- 2021-03 -->
      <g transform="translate(637.623629 277.742812)rotate(-90)scale(0.1 -0.1)">
       <defs>
        <path d="M 2597 2516 
Q 3050 2419 3304 2112 
Q 3559 1806 3559 1356 
Q 3559 666 3084 287 
Q 2609 -91 1734 -91 
Q 1441 -91 1130 -33 
Q 819 25 488 141 
L 488 750 
Q 750 597 1062 519 
Q 1375 441 1716 441 
Q 2309 441 2620 675 
Q 2931 909 2931 1356 
Q 2931 1769 2642 2001 
Q 2353 2234 1838 2234 
L 1294 2234 
L 1294 2753 
L 1863 2753 
Q 2328 2753 2575 2939 
Q 2822 3125 2822 3475 
Q 2822 3834 2567 4026 
Q 2313 4219 1838 4219 
Q 1578 4219 1281 4162 
Q 984 4106 628 3988 
L 628 4550 
Q 988 4650 1302 4700 
Q 1616 4750 1894 4750 
Q 2613 4750 3031 4423 
Q 3450 4097 3450 3541 
Q 3450 3153 3228 2886 
Q 3006 2619 2597 2516 
z
" id="DejaVuSans-33" transform="scale(0.015625)"/>
       </defs>
       <use xlink:href="#DejaVuSans-32"/>
       <use x="63.623047" xlink:href="#DejaVuSans-30"/>
       <use x="127.246094" xlink:href="#DejaVuSans-32"/>
       <use x="190.869141" xlink:href="#DejaVuSans-31"/>
       <use x="254.492188" xlink:href="#DejaVuSans-2d"/>
       <use x="290.576172" xlink:href="#DejaVuSans-30"/>
       <use x="354.199219" xlink:href="#DejaVuSans-33"/>
      </g>
     </g>
    </g>
    <g id="xtick_7">
     <g id="line2d_7">
      <g>
       <use style="stroke:#000000;stroke-width:0.8;" x="748.816823" xlink:href="#m0a4ebcb35c" y="228.96"/>
      </g>
     </g>
     <g id="text_7">
      <!-- 2021-04 -->
      <g transform="translate(751.576198 277.742812)rotate(-90)scale(0.1 -0.1)">
       <defs>
        <path d="M 2419 4116 
L 825 1625 
L 2419 1625 
L 2419 4116 
z
M 2253 4666 
L 3047 4666 
L 3047 1625 
L 3713 1625 
L 3713 1100 
L 3047 1100 
L 3047 0 
L 2419 0 
L 2419 1100 
L 313 1100 
L 313 1709 
L 2253 4666 
z
" id="DejaVuSans-34" transform="scale(0.015625)"/>
       </defs>
       <use xlink:href="#DejaVuSans-32"/>
       <use x="63.623047" xlink:href="#DejaVuSans-30"/>
       <use x="127.246094" xlink:href="#DejaVuSans-32"/>
       <use x="190.869141" xlink:href="#DejaVuSans-31"/>
       <use x="254.492188" xlink:href="#DejaVuSans-2d"/>
       <use x="290.576172" xlink:href="#DejaVuSans-30"/>
       <use x="354.199219" xlink:href="#DejaVuSans-34"/>
      </g>
     </g>
    </g>
    <g id="xtick_8">
     <g id="line2d_8">
      <g>
       <use style="stroke:#000000;stroke-width:0.8;" x="859.093503" xlink:href="#m0a4ebcb35c" y="228.96"/>
      </g>
     </g>
     <g id="text_8">
      <!-- 2021-05 -->
      <g transform="translate(861.852878 277.742812)rotate(-90)scale(0.1 -0.1)">
       <defs>
        <path d="M 691 4666 
L 3169 4666 
L 3169 4134 
L 1269 4134 
L 1269 2991 
Q 1406 3038 1543 3061 
Q 1681 3084 1819 3084 
Q 2600 3084 3056 2656 
Q 3513 2228 3513 1497 
Q 3513 744 3044 326 
Q 2575 -91 1722 -91 
Q 1428 -91 1123 -41 
Q 819 9 494 109 
L 494 744 
Q 775 591 1075 516 
Q 1375 441 1709 441 
Q 2250 441 2565 725 
Q 2881 1009 2881 1497 
Q 2881 1984 2565 2268 
Q 2250 2553 1709 2553 
Q 1456 2553 1204 2497 
Q 953 2441 691 2322 
L 691 4666 
z
" id="DejaVuSans-35" transform="scale(0.015625)"/>
       </defs>
       <use xlink:href="#DejaVuSans-32"/>
       <use x="63.623047" xlink:href="#DejaVuSans-30"/>
       <use x="127.246094" xlink:href="#DejaVuSans-32"/>
       <use x="190.869141" xlink:href="#DejaVuSans-31"/>
       <use x="254.492188" xlink:href="#DejaVuSans-2d"/>
       <use x="290.576172" xlink:href="#DejaVuSans-30"/>
       <use x="354.199219" xlink:href="#DejaVuSans-35"/>
      </g>
     </g>
    </g>
    <g id="xtick_9">
     <g id="line2d_9">
      <g>
       <use style="stroke:#000000;stroke-width:0.8;" x="973.046072" xlink:href="#m0a4ebcb35c" y="228.96"/>
      </g>
     </g>
     <g id="text_9">
      <!-- 2021-06 -->
      <g transform="translate(975.805447 277.742812)rotate(-90)scale(0.1 -0.1)">
       <defs>
        <path d="M 2113 2584 
Q 1688 2584 1439 2293 
Q 1191 2003 1191 1497 
Q 1191 994 1439 701 
Q 1688 409 2113 409 
Q 2538 409 2786 701 
Q 3034 994 3034 1497 
Q 3034 2003 2786 2293 
Q 2538 2584 2113 2584 
z
M 3366 4563 
L 3366 3988 
Q 3128 4100 2886 4159 
Q 2644 4219 2406 4219 
Q 1781 4219 1451 3797 
Q 1122 3375 1075 2522 
Q 1259 2794 1537 2939 
Q 1816 3084 2150 3084 
Q 2853 3084 3261 2657 
Q 3669 2231 3669 1497 
Q 3669 778 3244 343 
Q 2819 -91 2113 -91 
Q 1303 -91 875 529 
Q 447 1150 447 2328 
Q 447 3434 972 4092 
Q 1497 4750 2381 4750 
Q 2619 4750 2861 4703 
Q 3103 4656 3366 4563 
z
" id="DejaVuSans-36" transform="scale(0.015625)"/>
       </defs>
       <use xlink:href="#DejaVuSans-32"/>
       <use x="63.623047" xlink:href="#DejaVuSans-30"/>
       <use x="127.246094" xlink:href="#DejaVuSans-32"/>
       <use x="190.869141" xlink:href="#DejaVuSans-31"/>
       <use x="254.492188" xlink:href="#DejaVuSans-2d"/>
       <use x="290.576172" xlink:href="#DejaVuSans-30"/>
       <use x="354.199219" xlink:href="#DejaVuSans-36"/>
      </g>
     </g>
    </g>
    <g id="xtick_10">
     <g id="line2d_10">
      <g>
       <use style="stroke:#000000;stroke-width:0.8;" x="1083.322752" xlink:href="#m0a4ebcb35c" y="228.96"/>
      </g>
     </g>
     <g id="text_10">
      <!-- 2021-07 -->
      <g transform="translate(1086.082127 277.742812)rotate(-90)scale(0.1 -0.1)">
       <defs>
        <path d="M 525 4666 
L 3525 4666 
L 3525 4397 
L 1831 0 
L 1172 0 
L 2766 4134 
L 525 4134 
L 525 4666 
z
" id="DejaVuSans-37" transform="scale(0.015625)"/>
       </defs>
       <use xlink:href="#DejaVuSans-32"/>
       <use x="63.623047" xlink:href="#DejaVuSans-30"/>
       <use x="127.246094" xlink:href="#DejaVuSans-32"/>
       <use x="190.869141" xlink:href="#DejaVuSans-31"/>
       <use x="254.492188" xlink:href="#DejaVuSans-2d"/>
       <use x="290.576172" xlink:href="#DejaVuSans-30"/>
       <use x="354.199219" xlink:href="#DejaVuSans-37"/>
      </g>
     </g>
    </g>
    <g id="text_11">
     <!-- Date -->
     <g transform="translate(589.830469 289.34125)scale(0.1 -0.1)">
      <defs>
       <path d="M 1259 4147 
L 1259 519 
L 2022 519 
Q 2988 519 3436 956 
Q 3884 1394 3884 2338 
Q 3884 3275 3436 3711 
Q 2988 4147 2022 4147 
L 1259 4147 
z
M 628 4666 
L 1925 4666 
Q 3281 4666 3915 4102 
Q 4550 3538 4550 2338 
Q 4550 1131 3912 565 
Q 3275 0 1925 0 
L 628 0 
L 628 4666 
z
" id="DejaVuSans-44" transform="scale(0.015625)"/>
       <path d="M 2194 1759 
Q 1497 1759 1228 1600 
Q 959 1441 959 1056 
Q 959 750 1161 570 
Q 1363 391 1709 391 
Q 2188 391 2477 730 
Q 2766 1069 2766 1631 
L 2766 1759 
L 2194 1759 
z
M 3341 1997 
L 3341 0 
L 2766 0 
L 2766 531 
Q 2569 213 2275 61 
Q 1981 -91 1556 -91 
Q 1019 -91 701 211 
Q 384 513 384 1019 
Q 384 1609 779 1909 
Q 1175 2209 1959 2209 
L 2766 2209 
L 2766 2266 
Q 2766 2663 2505 2880 
Q 2244 3097 1772 3097 
Q 1472 3097 1187 3025 
Q 903 2953 641 2809 
L 641 3341 
Q 956 3463 1253 3523 
Q 1550 3584 1831 3584 
Q 2591 3584 2966 3190 
Q 3341 2797 3341 1997 
z
" id="DejaVuSans-61" transform="scale(0.015625)"/>
       <path d="M 1172 4494 
L 1172 3500 
L 2356 3500 
L 2356 3053 
L 1172 3053 
L 1172 1153 
Q 1172 725 1289 603 
Q 1406 481 1766 481 
L 2356 481 
L 2356 0 
L 1766 0 
Q 1100 0 847 248 
Q 594 497 594 1153 
L 594 3053 
L 172 3053 
L 172 3500 
L 594 3500 
L 594 4494 
L 1172 4494 
z
" id="DejaVuSans-74" transform="scale(0.015625)"/>
       <path d="M 3597 1894 
L 3597 1613 
L 953 1613 
Q 991 1019 1311 708 
Q 1631 397 2203 397 
Q 2534 397 2845 478 
Q 3156 559 3463 722 
L 3463 178 
Q 3153 47 2828 -22 
Q 2503 -91 2169 -91 
Q 1331 -91 842 396 
Q 353 884 353 1716 
Q 353 2575 817 3079 
Q 1281 3584 2069 3584 
Q 2775 3584 3186 3129 
Q 3597 2675 3597 1894 
z
M 3022 2063 
Q 3016 2534 2758 2815 
Q 2500 3097 2075 3097 
Q 1594 3097 1305 2825 
Q 1016 2553 972 2059 
L 3022 2063 
z
" id="DejaVuSans-65" transform="scale(0.015625)"/>
      </defs>
      <use xlink:href="#DejaVuSans-44"/>
      <use x="77.001953" xlink:href="#DejaVuSans-61"/>
      <use x="138.28125" xlink:href="#DejaVuSans-74"/>
      <use x="177.490234" xlink:href="#DejaVuSans-65"/>
     </g>
    </g>
   </g>
   <g id="matplotlib.axis_2">
    <g id="ytick_1">
     <g id="line2d_11">
      <defs>
       <path d="M 0 0 
L -3.5 0 
" id="m71cfeadf8b" style="stroke:#000000;stroke-width:0.8;"/>
      </defs>
      <g>
       <use style="stroke:#000000;stroke-width:0.8;" x="43.78125" xlink:href="#m71cfeadf8b" y="228.96"/>
      </g>
     </g>
     <g id="text_12">
      <!-- 0.0 -->
      <g transform="translate(20.878125 232.759219)scale(0.1 -0.1)">
       <defs>
        <path d="M 684 794 
L 1344 794 
L 1344 0 
L 684 0 
L 684 794 
z
" id="DejaVuSans-2e" transform="scale(0.015625)"/>
       </defs>
       <use xlink:href="#DejaVuSans-30"/>
       <use x="63.623047" xlink:href="#DejaVuSans-2e"/>
       <use x="95.410156" xlink:href="#DejaVuSans-30"/>
      </g>
     </g>
    </g>
    <g id="ytick_2">
     <g id="line2d_12">
      <g>
       <use style="stroke:#000000;stroke-width:0.8;" x="43.78125" xlink:href="#m71cfeadf8b" y="203.919957"/>
      </g>
     </g>
     <g id="text_13">
      <!-- 0.1 -->
      <g transform="translate(20.878125 207.719175)scale(0.1 -0.1)">
       <use xlink:href="#DejaVuSans-30"/>
       <use x="63.623047" xlink:href="#DejaVuSans-2e"/>
       <use x="95.410156" xlink:href="#DejaVuSans-31"/>
      </g>
     </g>
    </g>
    <g id="ytick_3">
     <g id="line2d_13">
      <g>
       <use style="stroke:#000000;stroke-width:0.8;" x="43.78125" xlink:href="#m71cfeadf8b" y="178.879913"/>
      </g>
     </g>
     <g id="text_14">
      <!-- 0.2 -->
      <g transform="translate(20.878125 182.679132)scale(0.1 -0.1)">
       <use xlink:href="#DejaVuSans-30"/>
       <use x="63.623047" xlink:href="#DejaVuSans-2e"/>
       <use x="95.410156" xlink:href="#DejaVuSans-32"/>
      </g>
     </g>
    </g>
    <g id="ytick_4">
     <g id="line2d_14">
      <g>
       <use style="stroke:#000000;stroke-width:0.8;" x="43.78125" xlink:href="#m71cfeadf8b" y="153.83987"/>
      </g>
     </g>
     <g id="text_15">
      <!-- 0.3 -->
      <g transform="translate(20.878125 157.639089)scale(0.1 -0.1)">
       <use xlink:href="#DejaVuSans-30"/>
       <use x="63.623047" xlink:href="#DejaVuSans-2e"/>
       <use x="95.410156" xlink:href="#DejaVuSans-33"/>
      </g>
     </g>
    </g>
    <g id="ytick_5">
     <g id="line2d_15">
      <g>
       <use style="stroke:#000000;stroke-width:0.8;" x="43.78125" xlink:href="#m71cfeadf8b" y="128.799827"/>
      </g>
     </g>
     <g id="text_16">
      <!-- 0.4 -->
      <g transform="translate(20.878125 132.599045)scale(0.1 -0.1)">
       <use xlink:href="#DejaVuSans-30"/>
       <use x="63.623047" xlink:href="#DejaVuSans-2e"/>
       <use x="95.410156" xlink:href="#DejaVuSans-34"/>
      </g>
     </g>
    </g>
    <g id="ytick_6">
     <g id="line2d_16">
      <g>
       <use style="stroke:#000000;stroke-width:0.8;" x="43.78125" xlink:href="#m71cfeadf8b" y="103.759783"/>
      </g>
     </g>
     <g id="text_17">
      <!-- 0.5 -->
      <g transform="translate(20.878125 107.559002)scale(0.1 -0.1)">
       <use xlink:href="#DejaVuSans-30"/>
       <use x="63.623047" xlink:href="#DejaVuSans-2e"/>
       <use x="95.410156" xlink:href="#DejaVuSans-35"/>
      </g>
     </g>
    </g>
    <g id="ytick_7">
     <g id="line2d_17">
      <g>
       <use style="stroke:#000000;stroke-width:0.8;" x="43.78125" xlink:href="#m71cfeadf8b" y="78.71974"/>
      </g>
     </g>
     <g id="text_18">
      <!-- 0.6 -->
      <g transform="translate(20.878125 82.518959)scale(0.1 -0.1)">
       <use xlink:href="#DejaVuSans-30"/>
       <use x="63.623047" xlink:href="#DejaVuSans-2e"/>
       <use x="95.410156" xlink:href="#DejaVuSans-36"/>
      </g>
     </g>
    </g>
    <g id="ytick_8">
     <g id="line2d_18">
      <g>
       <use style="stroke:#000000;stroke-width:0.8;" x="43.78125" xlink:href="#m71cfeadf8b" y="53.679697"/>
      </g>
     </g>
     <g id="text_19">
      <!-- 0.7 -->
      <g transform="translate(20.878125 57.478915)scale(0.1 -0.1)">
       <use xlink:href="#DejaVuSans-30"/>
       <use x="63.623047" xlink:href="#DejaVuSans-2e"/>
       <use x="95.410156" xlink:href="#DejaVuSans-37"/>
      </g>
     </g>
    </g>
    <g id="ytick_9">
     <g id="line2d_19">
      <g>
       <use style="stroke:#000000;stroke-width:0.8;" x="43.78125" xlink:href="#m71cfeadf8b" y="28.639653"/>
      </g>
     </g>
     <g id="text_20">
      <!-- 0.8 -->
      <g transform="translate(20.878125 32.438872)scale(0.1 -0.1)">
       <defs>
        <path d="M 2034 2216 
Q 1584 2216 1326 1975 
Q 1069 1734 1069 1313 
Q 1069 891 1326 650 
Q 1584 409 2034 409 
Q 2484 409 2743 651 
Q 3003 894 3003 1313 
Q 3003 1734 2745 1975 
Q 2488 2216 2034 2216 
z
M 1403 2484 
Q 997 2584 770 2862 
Q 544 3141 544 3541 
Q 544 4100 942 4425 
Q 1341 4750 2034 4750 
Q 2731 4750 3128 4425 
Q 3525 4100 3525 3541 
Q 3525 3141 3298 2862 
Q 3072 2584 2669 2484 
Q 3125 2378 3379 2068 
Q 3634 1759 3634 1313 
Q 3634 634 3220 271 
Q 2806 -91 2034 -91 
Q 1263 -91 848 271 
Q 434 634 434 1313 
Q 434 1759 690 2068 
Q 947 2378 1403 2484 
z
M 1172 3481 
Q 1172 3119 1398 2916 
Q 1625 2713 2034 2713 
Q 2441 2713 2670 2916 
Q 2900 3119 2900 3481 
Q 2900 3844 2670 4047 
Q 2441 4250 2034 4250 
Q 1625 4250 1398 4047 
Q 1172 3844 1172 3481 
z
" id="DejaVuSans-38" transform="scale(0.015625)"/>
       </defs>
       <use xlink:href="#DejaVuSans-30"/>
       <use x="63.623047" xlink:href="#DejaVuSans-2e"/>
       <use x="95.410156" xlink:href="#DejaVuSans-38"/>
      </g>
     </g>
    </g>
    <g id="text_21">
     <!-- Frequency (7 day rolling average) -->
     <g transform="translate(14.798437 202.529219)rotate(-90)scale(0.1 -0.1)">
      <defs>
       <path d="M 628 4666 
L 3309 4666 
L 3309 4134 
L 1259 4134 
L 1259 2759 
L 3109 2759 
L 3109 2228 
L 1259 2228 
L 1259 0 
L 628 0 
L 628 4666 
z
" id="DejaVuSans-46" transform="scale(0.015625)"/>
       <path d="M 2631 2963 
Q 2534 3019 2420 3045 
Q 2306 3072 2169 3072 
Q 1681 3072 1420 2755 
Q 1159 2438 1159 1844 
L 1159 0 
L 581 0 
L 581 3500 
L 1159 3500 
L 1159 2956 
Q 1341 3275 1631 3429 
Q 1922 3584 2338 3584 
Q 2397 3584 2469 3576 
Q 2541 3569 2628 3553 
L 2631 2963 
z
" id="DejaVuSans-72" transform="scale(0.015625)"/>
       <path d="M 947 1747 
Q 947 1113 1208 752 
Q 1469 391 1925 391 
Q 2381 391 2643 752 
Q 2906 1113 2906 1747 
Q 2906 2381 2643 2742 
Q 2381 3103 1925 3103 
Q 1469 3103 1208 2742 
Q 947 2381 947 1747 
z
M 2906 525 
Q 2725 213 2448 61 
Q 2172 -91 1784 -91 
Q 1150 -91 751 415 
Q 353 922 353 1747 
Q 353 2572 751 3078 
Q 1150 3584 1784 3584 
Q 2172 3584 2448 3432 
Q 2725 3281 2906 2969 
L 2906 3500 
L 3481 3500 
L 3481 -1331 
L 2906 -1331 
L 2906 525 
z
" id="DejaVuSans-71" transform="scale(0.015625)"/>
       <path d="M 544 1381 
L 544 3500 
L 1119 3500 
L 1119 1403 
Q 1119 906 1312 657 
Q 1506 409 1894 409 
Q 2359 409 2629 706 
Q 2900 1003 2900 1516 
L 2900 3500 
L 3475 3500 
L 3475 0 
L 2900 0 
L 2900 538 
Q 2691 219 2414 64 
Q 2138 -91 1772 -91 
Q 1169 -91 856 284 
Q 544 659 544 1381 
z
M 1991 3584 
L 1991 3584 
z
" id="DejaVuSans-75" transform="scale(0.015625)"/>
       <path d="M 3513 2113 
L 3513 0 
L 2938 0 
L 2938 2094 
Q 2938 2591 2744 2837 
Q 2550 3084 2163 3084 
Q 1697 3084 1428 2787 
Q 1159 2491 1159 1978 
L 1159 0 
L 581 0 
L 581 3500 
L 1159 3500 
L 1159 2956 
Q 1366 3272 1645 3428 
Q 1925 3584 2291 3584 
Q 2894 3584 3203 3211 
Q 3513 2838 3513 2113 
z
" id="DejaVuSans-6e" transform="scale(0.015625)"/>
       <path d="M 3122 3366 
L 3122 2828 
Q 2878 2963 2633 3030 
Q 2388 3097 2138 3097 
Q 1578 3097 1268 2742 
Q 959 2388 959 1747 
Q 959 1106 1268 751 
Q 1578 397 2138 397 
Q 2388 397 2633 464 
Q 2878 531 3122 666 
L 3122 134 
Q 2881 22 2623 -34 
Q 2366 -91 2075 -91 
Q 1284 -91 818 406 
Q 353 903 353 1747 
Q 353 2603 823 3093 
Q 1294 3584 2113 3584 
Q 2378 3584 2631 3529 
Q 2884 3475 3122 3366 
z
" id="DejaVuSans-63" transform="scale(0.015625)"/>
       <path d="M 2059 -325 
Q 1816 -950 1584 -1140 
Q 1353 -1331 966 -1331 
L 506 -1331 
L 506 -850 
L 844 -850 
Q 1081 -850 1212 -737 
Q 1344 -625 1503 -206 
L 1606 56 
L 191 3500 
L 800 3500 
L 1894 763 
L 2988 3500 
L 3597 3500 
L 2059 -325 
z
" id="DejaVuSans-79" transform="scale(0.015625)"/>
       <path id="DejaVuSans-20" transform="scale(0.015625)"/>
       <path d="M 1984 4856 
Q 1566 4138 1362 3434 
Q 1159 2731 1159 2009 
Q 1159 1288 1364 580 
Q 1569 -128 1984 -844 
L 1484 -844 
Q 1016 -109 783 600 
Q 550 1309 550 2009 
Q 550 2706 781 3412 
Q 1013 4119 1484 4856 
L 1984 4856 
z
" id="DejaVuSans-28" transform="scale(0.015625)"/>
       <path d="M 2906 2969 
L 2906 4863 
L 3481 4863 
L 3481 0 
L 2906 0 
L 2906 525 
Q 2725 213 2448 61 
Q 2172 -91 1784 -91 
Q 1150 -91 751 415 
Q 353 922 353 1747 
Q 353 2572 751 3078 
Q 1150 3584 1784 3584 
Q 2172 3584 2448 3432 
Q 2725 3281 2906 2969 
z
M 947 1747 
Q 947 1113 1208 752 
Q 1469 391 1925 391 
Q 2381 391 2643 752 
Q 2906 1113 2906 1747 
Q 2906 2381 2643 2742 
Q 2381 3103 1925 3103 
Q 1469 3103 1208 2742 
Q 947 2381 947 1747 
z
" id="DejaVuSans-64" transform="scale(0.015625)"/>
       <path d="M 1959 3097 
Q 1497 3097 1228 2736 
Q 959 2375 959 1747 
Q 959 1119 1226 758 
Q 1494 397 1959 397 
Q 2419 397 2687 759 
Q 2956 1122 2956 1747 
Q 2956 2369 2687 2733 
Q 2419 3097 1959 3097 
z
M 1959 3584 
Q 2709 3584 3137 3096 
Q 3566 2609 3566 1747 
Q 3566 888 3137 398 
Q 2709 -91 1959 -91 
Q 1206 -91 779 398 
Q 353 888 353 1747 
Q 353 2609 779 3096 
Q 1206 3584 1959 3584 
z
" id="DejaVuSans-6f" transform="scale(0.015625)"/>
       <path d="M 603 4863 
L 1178 4863 
L 1178 0 
L 603 0 
L 603 4863 
z
" id="DejaVuSans-6c" transform="scale(0.015625)"/>
       <path d="M 603 3500 
L 1178 3500 
L 1178 0 
L 603 0 
L 603 3500 
z
M 603 4863 
L 1178 4863 
L 1178 4134 
L 603 4134 
L 603 4863 
z
" id="DejaVuSans-69" transform="scale(0.015625)"/>
       <path d="M 2906 1791 
Q 2906 2416 2648 2759 
Q 2391 3103 1925 3103 
Q 1463 3103 1205 2759 
Q 947 2416 947 1791 
Q 947 1169 1205 825 
Q 1463 481 1925 481 
Q 2391 481 2648 825 
Q 2906 1169 2906 1791 
z
M 3481 434 
Q 3481 -459 3084 -895 
Q 2688 -1331 1869 -1331 
Q 1566 -1331 1297 -1286 
Q 1028 -1241 775 -1147 
L 775 -588 
Q 1028 -725 1275 -790 
Q 1522 -856 1778 -856 
Q 2344 -856 2625 -561 
Q 2906 -266 2906 331 
L 2906 616 
Q 2728 306 2450 153 
Q 2172 0 1784 0 
Q 1141 0 747 490 
Q 353 981 353 1791 
Q 353 2603 747 3093 
Q 1141 3584 1784 3584 
Q 2172 3584 2450 3431 
Q 2728 3278 2906 2969 
L 2906 3500 
L 3481 3500 
L 3481 434 
z
" id="DejaVuSans-67" transform="scale(0.015625)"/>
       <path d="M 191 3500 
L 800 3500 
L 1894 563 
L 2988 3500 
L 3597 3500 
L 2284 0 
L 1503 0 
L 191 3500 
z
" id="DejaVuSans-76" transform="scale(0.015625)"/>
       <path d="M 513 4856 
L 1013 4856 
Q 1481 4119 1714 3412 
Q 1947 2706 1947 2009 
Q 1947 1309 1714 600 
Q 1481 -109 1013 -844 
L 513 -844 
Q 928 -128 1133 580 
Q 1338 1288 1338 2009 
Q 1338 2731 1133 3434 
Q 928 4138 513 4856 
z
" id="DejaVuSans-29" transform="scale(0.015625)"/>
      </defs>
      <use xlink:href="#DejaVuSans-46"/>
      <use x="50.269531" xlink:href="#DejaVuSans-72"/>
      <use x="89.132812" xlink:href="#DejaVuSans-65"/>
      <use x="150.65625" xlink:href="#DejaVuSans-71"/>
      <use x="214.132812" xlink:href="#DejaVuSans-75"/>
      <use x="277.511719" xlink:href="#DejaVuSans-65"/>
      <use x="339.035156" xlink:href="#DejaVuSans-6e"/>
      <use x="402.414062" xlink:href="#DejaVuSans-63"/>
      <use x="457.394531" xlink:href="#DejaVuSans-79"/>
      <use x="516.574219" xlink:href="#DejaVuSans-20"/>
      <use x="548.361328" xlink:href="#DejaVuSans-28"/>
      <use x="587.375" xlink:href="#DejaVuSans-37"/>
      <use x="650.998047" xlink:href="#DejaVuSans-20"/>
      <use x="682.785156" xlink:href="#DejaVuSans-64"/>
      <use x="746.261719" xlink:href="#DejaVuSans-61"/>
      <use x="807.541016" xlink:href="#DejaVuSans-79"/>
      <use x="866.720703" xlink:href="#DejaVuSans-20"/>
      <use x="898.507812" xlink:href="#DejaVuSans-72"/>
      <use x="937.371094" xlink:href="#DejaVuSans-6f"/>
      <use x="998.552734" xlink:href="#DejaVuSans-6c"/>
      <use x="1026.335938" xlink:href="#DejaVuSans-6c"/>
      <use x="1054.119141" xlink:href="#DejaVuSans-69"/>
      <use x="1081.902344" xlink:href="#DejaVuSans-6e"/>
      <use x="1145.28125" xlink:href="#DejaVuSans-67"/>
      <use x="1208.757812" xlink:href="#DejaVuSans-20"/>
      <use x="1240.544922" xlink:href="#DejaVuSans-61"/>
      <use x="1301.824219" xlink:href="#DejaVuSans-76"/>
      <use x="1361.003906" xlink:href="#DejaVuSans-65"/>
      <use x="1422.527344" xlink:href="#DejaVuSans-72"/>
      <use x="1463.640625" xlink:href="#DejaVuSans-61"/>
      <use x="1524.919922" xlink:href="#DejaVuSans-67"/>
      <use x="1588.396484" xlink:href="#DejaVuSans-65"/>
      <use x="1649.919922" xlink:href="#DejaVuSans-29"/>
     </g>
    </g>
   </g>
   <g id="line2d_20">
    <path clip-path="url(#pf69749de2a)" d="M 473.125124 178.30428 
L 476.801013 228.384367 
L 480.476902 226.733375 
L 484.152792 226.62298 
L 487.828681 225.522318 
L 491.50457 224.603418 
L 495.180459 223.820916 
L 498.856349 225.471908 
L 502.532238 225.263649 
L 506.208127 225.827738 
L 509.884017 226.746639 
L 513.559906 227.304734 
L 517.235795 227.247302 
L 520.911685 227.937736 
L 524.587574 228.184409 
L 528.263463 227.954684 
L 531.939353 228.135045 
L 535.615242 228.115862 
L 546.64291 228.577237 
L 550.318799 228.376989 
L 553.994689 228.453604 
L 561.346467 228.315895 
L 576.050025 228.131205 
L 579.725914 227.743161 
L 587.077693 228.054435 
L 594.429471 228.072123 
L 598.105361 228.416025 
L 601.78125 228.269868 
L 605.457139 227.978976 
L 609.133029 228.083638 
L 616.484807 227.889691 
L 620.160697 227.911052 
L 623.836586 228.171345 
L 627.512475 227.852931 
L 631.188365 227.805178 
L 634.864254 227.939119 
L 638.540143 227.687305 
L 642.216033 227.594887 
L 645.891922 227.775552 
L 649.567811 227.822838 
L 653.243701 227.42435 
L 664.271369 227.66434 
L 667.947258 227.654306 
L 671.623147 227.918498 
L 675.299037 227.997775 
L 682.650815 227.116752 
L 686.326705 227.14616 
L 693.678483 226.872517 
L 697.354373 227.214035 
L 701.030262 227.309876 
L 704.706151 226.827885 
L 708.382041 226.538803 
L 712.05793 226.601029 
L 715.733819 226.478307 
L 719.409708 226.53566 
L 726.761487 227.091058 
L 730.437376 226.873565 
L 734.113266 226.253944 
L 741.465044 226.5952 
L 748.816823 226.50087 
L 752.492712 226.763158 
L 756.168602 226.200301 
L 759.844491 226.000671 
L 763.52038 226.13499 
L 770.872159 225.400219 
L 774.548048 225.516349 
L 778.223938 225.277927 
L 781.899827 224.590634 
L 785.575716 225.062765 
L 789.251606 225.848212 
L 792.927495 226.153382 
L 796.603384 226.119728 
L 800.279274 226.327271 
L 807.631052 225.727934 
L 811.306942 225.674317 
L 814.982831 225.993744 
L 818.65872 226.050741 
L 826.010499 226.309637 
L 833.362278 226.085003 
L 837.038167 226.092902 
L 840.714056 226.385155 
L 851.741724 226.495088 
L 855.417614 226.702516 
L 859.093503 226.02895 
L 862.769392 225.70945 
L 866.445282 225.99599 
L 870.121171 225.996728 
L 873.79706 225.679001 
L 877.47295 226.008581 
L 881.148839 226.223985 
L 884.824728 225.589586 
L 888.500618 224.601887 
L 892.176507 224.995561 
L 895.852396 225.149113 
L 899.528286 224.748658 
L 903.204175 224.683815 
L 906.880064 225.419846 
L 910.555954 225.037905 
L 914.231843 224.445533 
L 917.907732 224.929437 
L 921.583622 225.1376 
L 928.9354 224.568226 
L 932.61129 224.115726 
L 936.287179 223.424647 
L 939.963068 222.910132 
L 943.638958 223.231893 
L 947.314847 223.398625 
L 950.990736 224.245062 
L 962.018404 224.76928 
L 965.694293 224.19049 
L 973.046072 224.166378 
L 976.721961 223.948546 
L 980.397851 223.052477 
L 987.749629 222.525676 
L 991.425519 221.867592 
L 998.777297 223.165908 
L 1002.453187 224.21184 
L 1006.129076 224.239901 
L 1009.804965 224.881637 
L 1013.480855 224.577989 
L 1017.156744 224.747724 
L 1020.832633 224.491551 
L 1024.508523 224.592382 
L 1028.184412 224.942426 
L 1035.536191 224.495048 
L 1039.21208 224.661361 
L 1042.887969 224.967553 
L 1053.915637 222.364215 
L 1057.591527 222.391709 
L 1061.267416 221.992051 
L 1064.943305 222.484746 
L 1068.619195 223.981973 
L 1072.295084 224.913545 
L 1075.970973 224.315701 
L 1079.646863 224.507749 
L 1083.322752 224.831809 
L 1086.998641 224.819692 
L 1090.674531 225.279156 
L 1094.35042 226.294834 
L 1098.026309 226.704079 
L 1101.702199 226.929935 
L 1105.378088 226.221532 
L 1109.053977 225.868936 
L 1109.053977 225.868936 
" style="fill:none;stroke:#947383;stroke-linecap:square;stroke-width:2;"/>
   </g>
   <g id="line2d_21">
    <path clip-path="url(#pf69749de2a)" d="M 436.36623 227.894466 
L 440.04212 228.96 
L 447.393898 228.96 
L 451.069788 228.693617 
L 465.773345 228.693617 
L 469.449234 228.96 
L 513.559906 228.96 
L 517.235795 228.128105 
L 531.939353 228.128105 
L 535.615242 228.96 
L 539.291131 228.661904 
L 553.994689 228.661904 
L 557.670578 228.96 
L 561.346467 228.206916 
L 568.698246 228.206916 
L 572.374135 227.919099 
L 576.050025 227.308367 
L 579.725914 228.061451 
L 587.077693 228.061451 
L 594.429471 228.594452 
L 601.78125 228.594452 
L 605.457139 227.823989 
L 609.133029 227.450257 
L 612.808918 227.815805 
L 616.484807 226.754037 
L 620.160697 226.754037 
L 623.836586 227.412962 
L 627.512475 227.786694 
L 631.188365 227.109937 
L 634.864254 228.171705 
L 638.540143 228.171705 
L 642.216033 228.283242 
L 645.891922 228.283242 
L 649.567811 228.613425 
L 656.91959 228.613425 
L 660.595479 228.401221 
L 664.271369 227.284786 
L 667.947258 226.664564 
L 671.623147 225.711954 
L 675.299037 225.432956 
L 678.974926 224.335877 
L 686.326705 224.766356 
L 690.002594 225.247993 
L 693.678483 225.526991 
L 697.354373 226.654825 
L 701.030262 226.686417 
L 704.706151 227.394263 
L 712.05793 227.226362 
L 715.733819 226.993927 
L 719.409708 227.907241 
L 723.085598 227.479206 
L 726.761487 227.701822 
L 730.437376 227.80508 
L 734.113266 228.218965 
L 737.789155 228.137929 
L 741.465044 228.333033 
L 745.140934 228.646034 
L 748.816823 228.532986 
L 752.492712 228.532986 
L 756.168602 227.120808 
L 759.844491 227.185119 
L 763.52038 227.108427 
L 770.872159 226.6656 
L 774.548048 228.045254 
L 778.223938 227.96958 
L 781.899827 228.046273 
L 785.575716 227.396899 
L 789.251606 227.62402 
L 792.927495 227.525825 
L 796.603384 227.770118 
L 800.279274 227.670753 
L 803.955163 228.558808 
L 807.631052 228.186003 
L 811.306942 228.397758 
L 818.65872 228.497123 
L 829.686388 228.675128 
L 833.362278 228.308689 
L 840.714056 228.245376 
L 844.389946 227.972748 
L 848.065835 227.856045 
L 851.741724 228.087498 
L 855.417614 228.011962 
L 859.093503 228.075275 
L 862.769392 228.425831 
L 873.79706 228.269842 
L 881.148839 228.324041 
L 884.824728 228.609669 
L 899.528286 228.96 
L 910.555954 228.862568 
L 914.231843 228.68623 
L 917.907732 228.68623 
L 921.583622 228.568946 
L 925.259511 228.666378 
L 928.9354 228.544529 
L 969.370183 228.96 
L 995.101408 228.96 
L 998.777297 228.065713 
L 1006.129076 228.065713 
L 1009.804965 224.059306 
L 1013.480855 224.059306 
L 1017.156744 223.840702 
L 1024.508523 223.840702 
L 1028.184412 227.847109 
L 1031.860301 227.847109 
L 1035.536191 227.2331 
L 1050.239748 227.2331 
L 1053.915637 228.96 
L 1083.322752 228.96 
L 1086.998641 225.829995 
L 1086.998641 225.829995 
" style="fill:none;stroke:#96c6ad;stroke-linecap:square;stroke-width:2;"/>
   </g>
   <g id="line2d_22">
    <path clip-path="url(#pf69749de2a)" d="M 462.097456 228.873562 
L 473.125124 228.96 
L 480.476902 228.878701 
L 491.50457 228.81424 
L 498.856349 228.895539 
L 509.884017 228.96 
L 531.939353 228.939237 
L 546.64291 228.916401 
L 565.022357 228.817428 
L 579.725914 228.891674 
L 590.753582 228.751643 
L 605.457139 228.825226 
L 634.864254 228.298799 
L 642.216033 227.897794 
L 645.891922 227.804017 
L 649.567811 227.555718 
L 653.243701 227.436164 
L 656.91959 227.467611 
L 667.947258 227.270892 
L 671.623147 226.775206 
L 678.974926 225.487878 
L 690.002594 225.005 
L 697.354373 225.154582 
L 701.030262 224.449901 
L 704.706151 223.188834 
L 708.382041 221.733568 
L 715.733819 220.12071 
L 719.409708 219.073916 
L 723.085598 218.726047 
L 726.761487 218.142629 
L 730.437376 216.772576 
L 734.113266 215.582785 
L 737.789155 215.797712 
L 741.465044 215.897923 
L 748.816823 216.865289 
L 752.492712 217.00869 
L 756.168602 216.248196 
L 759.844491 214.770095 
L 763.52038 214.284974 
L 767.19627 214.466752 
L 770.872159 214.320775 
L 774.548048 214.417877 
L 778.223938 215.239668 
L 781.899827 214.935904 
L 785.575716 213.559024 
L 792.927495 213.031766 
L 800.279274 211.450453 
L 803.955163 211.058937 
L 807.631052 209.545887 
L 811.306942 207.607826 
L 814.982831 206.977017 
L 818.65872 207.239984 
L 822.33461 207.30249 
L 826.010499 208.094088 
L 829.686388 209.067497 
L 833.362278 208.49021 
L 837.038167 207.675655 
L 840.714056 206.319289 
L 848.065835 205.414841 
L 851.741724 205.772436 
L 855.417614 205.820542 
L 859.093503 206.013509 
L 862.769392 204.380899 
L 866.445282 203.577813 
L 870.121171 202.969743 
L 873.79706 201.990913 
L 877.47295 202.638697 
L 881.148839 203.595742 
L 892.176507 204.763037 
L 895.852396 204.452942 
L 899.528286 204.636436 
L 903.204175 204.679084 
L 906.880064 204.506236 
L 910.555954 204.054545 
L 914.231843 203.078378 
L 917.907732 202.564097 
L 925.259511 201.139644 
L 928.9354 200.31263 
L 936.287179 199.675694 
L 939.963068 198.52174 
L 943.638958 198.50157 
L 947.314847 199.033139 
L 950.990736 198.649849 
L 954.666625 197.186069 
L 958.342515 197.276267 
L 962.018404 197.163625 
L 965.694293 196.315953 
L 969.370183 193.982833 
L 973.046072 193.834551 
L 976.721961 193.31542 
L 980.397851 191.144463 
L 984.07374 189.81189 
L 987.749629 192.87654 
L 991.425519 192.975416 
L 995.101408 192.500009 
L 998.777297 193.417791 
L 1002.453187 193.70871 
L 1006.129076 193.407957 
L 1009.804965 193.825292 
L 1013.480855 194.972968 
L 1020.832633 198.904397 
L 1024.508523 198.299695 
L 1028.184412 199.817362 
L 1035.536191 200.77366 
L 1039.21208 201.396949 
L 1042.887969 203.496907 
L 1046.563859 203.949983 
L 1050.239748 205.925252 
L 1057.591527 207.273522 
L 1061.267416 206.333115 
L 1068.619195 208.292071 
L 1072.295084 210.370813 
L 1075.970973 212.778546 
L 1079.646863 213.554638 
L 1083.322752 213.17 
L 1086.998641 214.775592 
L 1090.674531 212.444239 
L 1098.026309 216.160175 
L 1101.702199 217.070375 
L 1105.378088 217.740647 
L 1105.378088 217.740647 
" style="fill:none;stroke:#525886;stroke-linecap:square;stroke-width:2;"/>
   </g>
   <g id="line2d_23">
    <path clip-path="url(#pf69749de2a)" d="M 557.670578 228.904663 
L 568.698246 228.96 
L 686.326705 228.859912 
L 701.030262 228.884772 
L 741.465044 228.96 
L 748.816823 228.873181 
L 752.492712 228.736069 
L 759.844491 228.655164 
L 767.19627 228.604675 
L 770.872159 228.668943 
L 778.223938 228.512282 
L 796.603384 228.635243 
L 800.279274 228.28498 
L 803.955163 228.185931 
L 807.631052 228.211174 
L 814.982831 227.957137 
L 818.65872 228.234716 
L 840.714056 228.514878 
L 844.389946 228.243239 
L 848.065835 228.406367 
L 855.417614 228.366801 
L 859.093503 228.129229 
L 862.769392 228.355156 
L 873.79706 228.367688 
L 877.47295 228.602013 
L 892.176507 228.134832 
L 895.852396 228.17681 
L 899.528286 228.333874 
L 903.204175 228.235334 
L 906.880064 228.587326 
L 910.555954 228.699697 
L 932.61129 228.793188 
L 943.638958 228.916262 
L 950.990736 228.663274 
L 1009.804965 228.880122 
L 1017.156744 228.825598 
L 1028.184412 228.890637 
L 1035.536191 228.945712 
L 1094.35042 228.928283 
L 1094.35042 228.928283 
" style="fill:none;stroke:#937252;stroke-linecap:square;stroke-width:2;"/>
   </g>
   <g id="line2d_24">
    <path clip-path="url(#pf69749de2a)" d="M 94.508523 226.455996 
L 98.184412 228.96 
L 168.026309 228.96 
L 171.702199 226.014113 
L 186.405756 226.014113 
L 190.081645 228.96 
L 197.433424 228.96 
L 201.109313 227.290664 
L 215.812871 227.290664 
L 219.48876 228.96 
L 252.571764 228.96 
L 256.247653 222.699989 
L 259.923542 222.699989 
L 263.599432 220.522594 
L 270.95121 220.522594 
L 274.6271 226.782605 
L 278.302989 226.782605 
L 281.978878 228.96 
L 296.682436 228.96 
L 300.358325 225.382851 
L 307.710104 225.382851 
L 311.385993 223.767364 
L 315.061882 218.997832 
L 318.737772 222.574981 
L 322.413661 217.566973 
L 326.08955 212.797441 
L 329.76544 214.412927 
L 333.441329 219.182459 
L 337.117218 219.182459 
L 340.793108 224.190468 
L 344.468997 228.96 
L 355.496665 228.96 
L 359.172554 220.122338 
L 362.848444 210.384543 
L 366.524333 205.167867 
L 373.876112 205.167867 
L 377.552001 197.633194 
L 381.22789 200.977786 
L 384.90378 190.483062 
L 388.579669 184.918608 
L 392.255558 177.76431 
L 395.931448 190.797973 
L 399.607337 189.283794 
L 403.283226 192.646679 
L 406.959116 188.025352 
L 410.635005 180.871054 
L 414.310894 182.123057 
L 417.986784 186.900433 
L 421.662673 193.97736 
L 425.338562 197.903129 
L 429.014452 200.801073 
L 432.690341 192.505286 
L 436.36623 186.925711 
L 440.04212 184.096109 
L 443.718009 183.678775 
L 447.393898 191.635628 
L 451.069788 197.663295 
L 454.745677 197.567585 
L 458.421566 198.991431 
L 462.097456 190.751303 
L 465.773345 184.756029 
L 469.449234 173.344866 
L 473.125124 179.068305 
L 476.801013 175.729632 
L 480.476902 179.61251 
L 484.152792 164.274469 
L 487.828681 166.188483 
L 491.50457 158.647286 
L 495.180459 156.324731 
L 498.856349 146.738115 
L 502.532238 160.216822 
L 506.208127 159.587771 
L 509.884017 156.504691 
L 513.559906 148.811229 
L 517.235795 151.90441 
L 520.911685 148.904221 
L 524.587574 141.127394 
L 531.939353 150.309847 
L 535.615242 153.926743 
L 539.291131 153.648906 
L 542.967021 162.470601 
L 546.64291 152.004543 
L 550.318799 144.50141 
L 553.994689 140.5268 
L 557.670578 136.946927 
L 561.346467 132.172107 
L 565.022357 136.719609 
L 572.374135 126.436267 
L 576.050025 128.360382 
L 579.725914 123.200616 
L 583.401803 115.110756 
L 587.077693 121.782741 
L 590.753582 121.399615 
L 594.429471 106.341751 
L 598.105361 112.017494 
L 601.78125 110.624104 
L 605.457139 108.104985 
L 609.133029 102.597394 
L 612.808918 109.499457 
L 616.484807 100.993581 
L 623.836586 98.566823 
L 627.512475 103.597461 
L 631.188365 100.500502 
L 634.864254 103.680657 
L 638.540143 95.60244 
L 642.216033 95.047168 
L 645.891922 79.099045 
L 649.567811 75.239506 
L 653.243701 73.220147 
L 656.91959 80.145604 
L 660.595479 75.716097 
L 664.271369 81.468675 
L 667.947258 84.673573 
L 671.623147 76.014866 
L 675.299037 69.333306 
L 678.974926 64.653711 
L 682.650815 70.079724 
L 686.326705 68.347274 
L 690.002594 66.173054 
L 693.678483 69.028078 
L 697.354373 69.883483 
L 701.030262 64.930508 
L 704.706151 61.425824 
L 708.382041 59.354155 
L 712.05793 54.630742 
L 715.733819 50.562612 
L 719.409708 48.782131 
L 723.085598 45.109591 
L 726.761487 43.170089 
L 730.437376 49.463804 
L 734.113266 56.003785 
L 737.789155 60.416929 
L 745.140934 68.76324 
L 748.816823 67.023815 
L 752.492712 70.490032 
L 756.168602 75.896513 
L 759.844491 73.509555 
L 763.52038 76.893923 
L 767.19627 81.518664 
L 770.872159 76.837912 
L 774.548048 68.210264 
L 778.223938 71.240776 
L 781.899827 81.59266 
L 785.575716 81.836434 
L 789.251606 82.410027 
L 792.927495 92.757035 
L 796.603384 91.724456 
L 800.279274 81.463148 
L 803.955163 74.215167 
L 807.631052 81.327132 
L 811.306942 72.071561 
L 814.982831 70.795771 
L 818.65872 70.807984 
L 822.33461 71.315298 
L 826.010499 62.724919 
L 829.686388 62.064748 
L 833.362278 67.561431 
L 840.714056 56.167514 
L 844.389946 51.287507 
L 848.065835 57.569893 
L 851.741724 53.876625 
L 855.417614 57.228258 
L 859.093503 67.296807 
L 862.769392 73.497503 
L 866.445282 67.070173 
L 870.121171 62.624624 
L 873.79706 64.52204 
L 877.47295 59.469814 
L 881.148839 58.88022 
L 884.824728 65.660064 
L 888.500618 71.118031 
L 892.176507 65.20999 
L 895.852396 65.330086 
L 899.528286 62.530432 
L 903.204175 53.263423 
L 906.880064 45.937586 
L 910.555954 50.561757 
L 914.231843 48.011382 
L 917.907732 39.399502 
L 921.583622 33.561907 
L 925.259511 32.49826 
L 928.9354 26.056074 
L 932.61129 17.76 
L 936.287179 23.233242 
L 939.963068 35.731696 
L 943.638958 31.031443 
L 947.314847 30.20863 
L 950.990736 32.365383 
L 954.666625 31.101278 
L 958.342515 23.047253 
L 962.018404 28.749109 
L 965.694293 44.144164 
L 969.370183 52.331803 
L 973.046072 54.762665 
L 976.721961 53.857033 
L 980.397851 61.387594 
L 984.07374 49.941237 
L 987.749629 54.713688 
L 991.425519 63.929955 
L 995.101408 66.314043 
L 998.777297 61.842427 
L 1002.453187 60.726592 
L 1006.129076 53.863053 
L 1009.804965 37.916747 
L 1013.480855 34.126902 
L 1017.156744 35.074363 
L 1020.832633 35.183605 
L 1024.508523 30.622451 
L 1028.184412 39.573404 
L 1031.860301 45.977087 
L 1035.536191 49.164001 
L 1039.21208 50.84251 
L 1042.887969 59.280913 
L 1046.563859 61.509418 
L 1050.239748 56.736249 
L 1053.915637 55.53364 
L 1057.591527 62.537848 
L 1061.267416 62.088411 
L 1064.943305 60.253794 
L 1068.619195 62.583101 
L 1072.295084 66.503761 
L 1075.970973 62.709815 
L 1079.646863 61.875147 
L 1079.646863 61.875147 
" style="fill:none;stroke:#d18cad;stroke-linecap:square;stroke-width:2;"/>
   </g>
   <g id="line2d_25">
    <path clip-path="url(#pf69749de2a)" d="M 649.567811 203.919957 
L 653.243701 221.805702 
L 656.91959 221.805702 
L 660.595479 221.805702 
L 664.271369 218.675696 
L 667.947258 218.675696 
L 671.623147 225.829995 
L 675.299037 225.829995 
L 678.974926 225.829995 
L 682.650815 228.96 
L 686.326705 228.96 
L 690.002594 228.96 
L 693.678483 228.96 
L 697.354373 225.107686 
L 701.030262 225.107686 
L 704.706151 225.107686 
L 708.382041 225.107686 
L 712.05793 225.107686 
L 715.733819 228.96 
L 719.409708 228.96 
L 723.085598 228.96 
L 726.761487 228.96 
L 730.437376 226.575234 
L 734.113266 226.575234 
L 737.789155 226.575234 
L 741.465044 226.575234 
L 745.140934 226.575234 
L 748.816823 228.96 
L 752.492712 228.96 
L 756.168602 228.96 
L 759.844491 228.96 
L 763.52038 224.407265 
L 767.19627 224.407265 
L 770.872159 224.407265 
L 774.548048 217.252967 
L 778.223938 217.252967 
L 781.899827 221.805702 
L 785.575716 221.805702 
L 789.251606 221.805702 
L 792.927495 226.575234 
L 796.603384 226.575234 
L 800.279274 226.575234 
L 803.955163 226.575234 
L 807.631052 226.575234 
L 811.306942 228.96 
L 814.982831 228.96 
L 818.65872 228.96 
L 822.33461 228.96 
L 826.010499 224.786659 
L 829.686388 224.786659 
L 833.362278 224.786659 
L 837.038167 224.786659 
L 840.714056 224.786659 
L 844.389946 228.96 
L 848.065835 228.96 
L 851.741724 228.96 
L 855.417614 223.951991 
L 859.093503 223.951991 
L 862.769392 223.951991 
L 866.445282 223.951991 
L 870.121171 223.951991 
L 873.79706 228.96 
L 877.47295 228.96 
L 881.148839 228.96 
L 884.824728 228.96 
L 888.500618 228.96 
L 892.176507 228.96 
L 895.852396 228.96 
L 899.528286 228.96 
L 903.204175 218.943983 
L 906.880064 218.943983 
L 910.555954 218.943983 
L 914.231843 218.943983 
L 917.907732 218.943983 
L 921.583622 228.96 
L 925.259511 228.96 
L 928.9354 228.96 
L 932.61129 228.96 
L 936.287179 228.96 
L 939.963068 228.96 
L 943.638958 228.96 
L 947.314847 228.96 
L 950.990736 228.96 
L 954.666625 228.96 
L 958.342515 228.96 
L 962.018404 228.96 
L 965.694293 228.96 
L 969.370183 220.613319 
" style="fill:none;stroke:#a4a86f;stroke-linecap:square;stroke-width:2;"/>
   </g>
   <g id="line2d_26">
    <path clip-path="url(#pf69749de2a)" style="fill:none;stroke:#d3d3d3;stroke-linecap:square;stroke-width:2;"/>
   </g>
   <g id="patch_3">
    <path d="M 43.78125 228.96 
L 43.78125 7.2 
" style="fill:none;stroke:#000000;stroke-linecap:square;stroke-linejoin:miter;stroke-width:0.8;"/>
   </g>
   <g id="patch_4">
    <path d="M 43.78125 228.96 
L 1159.78125 228.96 
" style="fill:none;stroke:#000000;stroke-linecap:square;stroke-linejoin:miter;stroke-width:0.8;"/>
   </g>
   <g id="legend_1">
    <g id="line2d_27">
     <path d="M 50.98125 17.67875 
L 66.98125 17.67875 
" style="fill:none;stroke:#947383;stroke-linecap:square;stroke-width:2;"/>
    </g>
    <g id="line2d_28"/>
    <g id="text_22">
     <!-- Europe -->
     <g transform="translate(73.38125 20.47875)scale(0.08 -0.08)">
      <defs>
       <path d="M 628 4666 
L 3578 4666 
L 3578 4134 
L 1259 4134 
L 1259 2753 
L 3481 2753 
L 3481 2222 
L 1259 2222 
L 1259 531 
L 3634 531 
L 3634 0 
L 628 0 
L 628 4666 
z
" id="DejaVuSans-45" transform="scale(0.015625)"/>
       <path d="M 1159 525 
L 1159 -1331 
L 581 -1331 
L 581 3500 
L 1159 3500 
L 1159 2969 
Q 1341 3281 1617 3432 
Q 1894 3584 2278 3584 
Q 2916 3584 3314 3078 
Q 3713 2572 3713 1747 
Q 3713 922 3314 415 
Q 2916 -91 2278 -91 
Q 1894 -91 1617 61 
Q 1341 213 1159 525 
z
M 3116 1747 
Q 3116 2381 2855 2742 
Q 2594 3103 2138 3103 
Q 1681 3103 1420 2742 
Q 1159 2381 1159 1747 
Q 1159 1113 1420 752 
Q 1681 391 2138 391 
Q 2594 391 2855 752 
Q 3116 1113 3116 1747 
z
" id="DejaVuSans-70" transform="scale(0.015625)"/>
      </defs>
      <use xlink:href="#DejaVuSans-45"/>
      <use x="63.183594" xlink:href="#DejaVuSans-75"/>
      <use x="126.5625" xlink:href="#DejaVuSans-72"/>
      <use x="165.425781" xlink:href="#DejaVuSans-6f"/>
      <use x="226.607422" xlink:href="#DejaVuSans-70"/>
      <use x="290.083984" xlink:href="#DejaVuSans-65"/>
     </g>
    </g>
    <g id="line2d_29">
     <path d="M 50.98125 29.42125 
L 66.98125 29.42125 
" style="fill:none;stroke:#96c6ad;stroke-linecap:square;stroke-width:2;"/>
    </g>
    <g id="line2d_30"/>
    <g id="text_23">
     <!-- Asia -->
     <g transform="translate(73.38125 32.22125)scale(0.08 -0.08)">
      <defs>
       <path d="M 2188 4044 
L 1331 1722 
L 3047 1722 
L 2188 4044 
z
M 1831 4666 
L 2547 4666 
L 4325 0 
L 3669 0 
L 3244 1197 
L 1141 1197 
L 716 0 
L 50 0 
L 1831 4666 
z
" id="DejaVuSans-41" transform="scale(0.015625)"/>
       <path d="M 2834 3397 
L 2834 2853 
Q 2591 2978 2328 3040 
Q 2066 3103 1784 3103 
Q 1356 3103 1142 2972 
Q 928 2841 928 2578 
Q 928 2378 1081 2264 
Q 1234 2150 1697 2047 
L 1894 2003 
Q 2506 1872 2764 1633 
Q 3022 1394 3022 966 
Q 3022 478 2636 193 
Q 2250 -91 1575 -91 
Q 1294 -91 989 -36 
Q 684 19 347 128 
L 347 722 
Q 666 556 975 473 
Q 1284 391 1588 391 
Q 1994 391 2212 530 
Q 2431 669 2431 922 
Q 2431 1156 2273 1281 
Q 2116 1406 1581 1522 
L 1381 1569 
Q 847 1681 609 1914 
Q 372 2147 372 2553 
Q 372 3047 722 3315 
Q 1072 3584 1716 3584 
Q 2034 3584 2315 3537 
Q 2597 3491 2834 3397 
z
" id="DejaVuSans-73" transform="scale(0.015625)"/>
      </defs>
      <use xlink:href="#DejaVuSans-41"/>
      <use x="68.408203" xlink:href="#DejaVuSans-73"/>
      <use x="120.507812" xlink:href="#DejaVuSans-69"/>
      <use x="148.291016" xlink:href="#DejaVuSans-61"/>
     </g>
    </g>
    <g id="line2d_31">
     <path d="M 50.98125 41.16375 
L 66.98125 41.16375 
" style="fill:none;stroke:#525886;stroke-linecap:square;stroke-width:2;"/>
    </g>
    <g id="line2d_32"/>
    <g id="text_24">
     <!-- North America -->
     <g transform="translate(73.38125 43.96375)scale(0.08 -0.08)">
      <defs>
       <path d="M 628 4666 
L 1478 4666 
L 3547 763 
L 3547 4666 
L 4159 4666 
L 4159 0 
L 3309 0 
L 1241 3903 
L 1241 0 
L 628 0 
L 628 4666 
z
" id="DejaVuSans-4e" transform="scale(0.015625)"/>
       <path d="M 3513 2113 
L 3513 0 
L 2938 0 
L 2938 2094 
Q 2938 2591 2744 2837 
Q 2550 3084 2163 3084 
Q 1697 3084 1428 2787 
Q 1159 2491 1159 1978 
L 1159 0 
L 581 0 
L 581 4863 
L 1159 4863 
L 1159 2956 
Q 1366 3272 1645 3428 
Q 1925 3584 2291 3584 
Q 2894 3584 3203 3211 
Q 3513 2838 3513 2113 
z
" id="DejaVuSans-68" transform="scale(0.015625)"/>
       <path d="M 3328 2828 
Q 3544 3216 3844 3400 
Q 4144 3584 4550 3584 
Q 5097 3584 5394 3201 
Q 5691 2819 5691 2113 
L 5691 0 
L 5113 0 
L 5113 2094 
Q 5113 2597 4934 2840 
Q 4756 3084 4391 3084 
Q 3944 3084 3684 2787 
Q 3425 2491 3425 1978 
L 3425 0 
L 2847 0 
L 2847 2094 
Q 2847 2600 2669 2842 
Q 2491 3084 2119 3084 
Q 1678 3084 1418 2786 
Q 1159 2488 1159 1978 
L 1159 0 
L 581 0 
L 581 3500 
L 1159 3500 
L 1159 2956 
Q 1356 3278 1631 3431 
Q 1906 3584 2284 3584 
Q 2666 3584 2933 3390 
Q 3200 3197 3328 2828 
z
" id="DejaVuSans-6d" transform="scale(0.015625)"/>
      </defs>
      <use xlink:href="#DejaVuSans-4e"/>
      <use x="74.804688" xlink:href="#DejaVuSans-6f"/>
      <use x="135.986328" xlink:href="#DejaVuSans-72"/>
      <use x="177.099609" xlink:href="#DejaVuSans-74"/>
      <use x="216.308594" xlink:href="#DejaVuSans-68"/>
      <use x="279.6875" xlink:href="#DejaVuSans-20"/>
      <use x="311.474609" xlink:href="#DejaVuSans-41"/>
      <use x="379.882812" xlink:href="#DejaVuSans-6d"/>
      <use x="477.294922" xlink:href="#DejaVuSans-65"/>
      <use x="538.818359" xlink:href="#DejaVuSans-72"/>
      <use x="579.931641" xlink:href="#DejaVuSans-69"/>
      <use x="607.714844" xlink:href="#DejaVuSans-63"/>
      <use x="662.695312" xlink:href="#DejaVuSans-61"/>
     </g>
    </g>
    <g id="line2d_33">
     <path d="M 50.98125 52.90625 
L 66.98125 52.90625 
" style="fill:none;stroke:#937252;stroke-linecap:square;stroke-width:2;"/>
    </g>
    <g id="line2d_34"/>
    <g id="text_25">
     <!-- United Kingdom -->
     <g transform="translate(73.38125 55.70625)scale(0.08 -0.08)">
      <defs>
       <path d="M 556 4666 
L 1191 4666 
L 1191 1831 
Q 1191 1081 1462 751 
Q 1734 422 2344 422 
Q 2950 422 3222 751 
Q 3494 1081 3494 1831 
L 3494 4666 
L 4128 4666 
L 4128 1753 
Q 4128 841 3676 375 
Q 3225 -91 2344 -91 
Q 1459 -91 1007 375 
Q 556 841 556 1753 
L 556 4666 
z
" id="DejaVuSans-55" transform="scale(0.015625)"/>
       <path d="M 628 4666 
L 1259 4666 
L 1259 2694 
L 3353 4666 
L 4166 4666 
L 1850 2491 
L 4331 0 
L 3500 0 
L 1259 2247 
L 1259 0 
L 628 0 
L 628 4666 
z
" id="DejaVuSans-4b" transform="scale(0.015625)"/>
      </defs>
      <use xlink:href="#DejaVuSans-55"/>
      <use x="73.193359" xlink:href="#DejaVuSans-6e"/>
      <use x="136.572266" xlink:href="#DejaVuSans-69"/>
      <use x="164.355469" xlink:href="#DejaVuSans-74"/>
      <use x="203.564453" xlink:href="#DejaVuSans-65"/>
      <use x="265.087891" xlink:href="#DejaVuSans-64"/>
      <use x="328.564453" xlink:href="#DejaVuSans-20"/>
      <use x="360.351562" xlink:href="#DejaVuSans-4b"/>
      <use x="425.927734" xlink:href="#DejaVuSans-69"/>
      <use x="453.710938" xlink:href="#DejaVuSans-6e"/>
      <use x="517.089844" xlink:href="#DejaVuSans-67"/>
      <use x="580.566406" xlink:href="#DejaVuSans-64"/>
      <use x="644.042969" xlink:href="#DejaVuSans-6f"/>
      <use x="705.224609" xlink:href="#DejaVuSans-6d"/>
     </g>
    </g>
    <g id="line2d_35">
     <path d="M 50.98125 64.64875 
L 66.98125 64.64875 
" style="fill:none;stroke:#d18cad;stroke-linecap:square;stroke-width:2;"/>
    </g>
    <g id="line2d_36"/>
    <g id="text_26">
     <!-- South America -->
     <g transform="translate(73.38125 67.44875)scale(0.08 -0.08)">
      <defs>
       <path d="M 3425 4513 
L 3425 3897 
Q 3066 4069 2747 4153 
Q 2428 4238 2131 4238 
Q 1616 4238 1336 4038 
Q 1056 3838 1056 3469 
Q 1056 3159 1242 3001 
Q 1428 2844 1947 2747 
L 2328 2669 
Q 3034 2534 3370 2195 
Q 3706 1856 3706 1288 
Q 3706 609 3251 259 
Q 2797 -91 1919 -91 
Q 1588 -91 1214 -16 
Q 841 59 441 206 
L 441 856 
Q 825 641 1194 531 
Q 1563 422 1919 422 
Q 2459 422 2753 634 
Q 3047 847 3047 1241 
Q 3047 1584 2836 1778 
Q 2625 1972 2144 2069 
L 1759 2144 
Q 1053 2284 737 2584 
Q 422 2884 422 3419 
Q 422 4038 858 4394 
Q 1294 4750 2059 4750 
Q 2388 4750 2728 4690 
Q 3069 4631 3425 4513 
z
" id="DejaVuSans-53" transform="scale(0.015625)"/>
      </defs>
      <use xlink:href="#DejaVuSans-53"/>
      <use x="63.476562" xlink:href="#DejaVuSans-6f"/>
      <use x="124.658203" xlink:href="#DejaVuSans-75"/>
      <use x="188.037109" xlink:href="#DejaVuSans-74"/>
      <use x="227.246094" xlink:href="#DejaVuSans-68"/>
      <use x="290.625" xlink:href="#DejaVuSans-20"/>
      <use x="322.412109" xlink:href="#DejaVuSans-41"/>
      <use x="390.820312" xlink:href="#DejaVuSans-6d"/>
      <use x="488.232422" xlink:href="#DejaVuSans-65"/>
      <use x="549.755859" xlink:href="#DejaVuSans-72"/>
      <use x="590.869141" xlink:href="#DejaVuSans-69"/>
      <use x="618.652344" xlink:href="#DejaVuSans-63"/>
      <use x="673.632812" xlink:href="#DejaVuSans-61"/>
     </g>
    </g>
    <g id="line2d_37">
     <path d="M 50.98125 76.39125 
L 66.98125 76.39125 
" style="fill:none;stroke:#a4a86f;stroke-linecap:square;stroke-width:2;"/>
    </g>
    <g id="line2d_38"/>
    <g id="text_27">
     <!-- Oceania -->
     <g transform="translate(73.38125 79.19125)scale(0.08 -0.08)">
      <defs>
       <path d="M 2522 4238 
Q 1834 4238 1429 3725 
Q 1025 3213 1025 2328 
Q 1025 1447 1429 934 
Q 1834 422 2522 422 
Q 3209 422 3611 934 
Q 4013 1447 4013 2328 
Q 4013 3213 3611 3725 
Q 3209 4238 2522 4238 
z
M 2522 4750 
Q 3503 4750 4090 4092 
Q 4678 3434 4678 2328 
Q 4678 1225 4090 567 
Q 3503 -91 2522 -91 
Q 1538 -91 948 565 
Q 359 1222 359 2328 
Q 359 3434 948 4092 
Q 1538 4750 2522 4750 
z
" id="DejaVuSans-4f" transform="scale(0.015625)"/>
      </defs>
      <use xlink:href="#DejaVuSans-4f"/>
      <use x="78.710938" xlink:href="#DejaVuSans-63"/>
      <use x="133.691406" xlink:href="#DejaVuSans-65"/>
      <use x="195.214844" xlink:href="#DejaVuSans-61"/>
      <use x="256.494141" xlink:href="#DejaVuSans-6e"/>
      <use x="319.873047" xlink:href="#DejaVuSans-69"/>
      <use x="347.65625" xlink:href="#DejaVuSans-61"/>
     </g>
    </g>
    <g id="line2d_39">
     <path d="M 50.98125 88.13375 
L 66.98125 88.13375 
" style="fill:none;stroke:#d3d3d3;stroke-linecap:square;stroke-width:2;"/>
    </g>
    <g id="line2d_40"/>
    <g id="text_28">
     <!-- Africa -->
     <g transform="translate(73.38125 90.93375)scale(0.08 -0.08)">
      <defs>
       <path d="M 2375 4863 
L 2375 4384 
L 1825 4384 
Q 1516 4384 1395 4259 
Q 1275 4134 1275 3809 
L 1275 3500 
L 2222 3500 
L 2222 3053 
L 1275 3053 
L 1275 0 
L 697 0 
L 697 3053 
L 147 3053 
L 147 3500 
L 697 3500 
L 697 3744 
Q 697 4328 969 4595 
Q 1241 4863 1831 4863 
L 2375 4863 
z
" id="DejaVuSans-66" transform="scale(0.015625)"/>
      </defs>
      <use xlink:href="#DejaVuSans-41"/>
      <use x="64.783203" xlink:href="#DejaVuSans-66"/>
      <use x="99.988281" xlink:href="#DejaVuSans-72"/>
      <use x="141.101562" xlink:href="#DejaVuSans-69"/>
      <use x="168.884766" xlink:href="#DejaVuSans-63"/>
      <use x="223.865234" xlink:href="#DejaVuSans-61"/>
     </g>
    </g>
   </g>
  </g>
 </g>
 <defs>
  <clipPath id="pf69749de2a">
   <rect height="221.76" width="1116" x="43.78125" y="7.2"/>
  </clipPath>
 </defs>
</svg>
