<?xml version="1.0" encoding="utf-8" standalone="no"?>
<!DOCTYPE svg PUBLIC "-//W3C//DTD SVG 1.1//EN"
  "http://www.w3.org/Graphics/SVG/1.1/DTD/svg11.dtd">
<svg xmlns:xlink="http://www.w3.org/1999/xlink" width="1166.98125pt" height="298.620937pt" viewBox="0 0 1166.98125 298.620937" xmlns="http://www.w3.org/2000/svg" version="1.1">
 <metadata>
  <rdf:RDF xmlns:dc="http://purl.org/dc/elements/1.1/" xmlns:cc="http://creativecommons.org/ns#" xmlns:rdf="http://www.w3.org/1999/02/22-rdf-syntax-ns#">
   <cc:Work>
    <dc:type rdf:resource="http://purl.org/dc/dcmitype/StillImage"/>
    <dc:date>2022-04-27T17:10:47.757905</dc:date>
    <dc:format>image/svg+xml</dc:format>
    <dc:creator>
     <cc:Agent>
      <dc:title>Matplotlib v3.5.1, https://matplotlib.org/</dc:title>
     </cc:Agent>
    </dc:creator>
   </cc:Work>
  </rdf:RDF>
 </metadata>
 <defs>
  <style type="text/css">*{stroke-linejoin: round; stroke-linecap: butt}</style>
 </defs>
 <g id="figure_1">
  <g id="patch_1">
   <path d="M 0 298.620937 
L 1166.98125 298.620937 
L 1166.98125 0 
L 0 0 
z
" style="fill: #ffffff"/>
  </g>
  <g id="axes_1">
   <g id="patch_2">
    <path d="M 43.78125 228.96 
L 1159.78125 228.96 
L 1159.78125 7.2 
L 43.78125 7.2 
z
" style="fill: #ffffff"/>
   </g>
   <g id="matplotlib.axis_1">
    <g id="xtick_1">
     <g id="line2d_1">
      <defs>
       <path id="m45440ef067" d="M 0 0 
L 0 3.5 
" style="stroke: #000000; stroke-width: 0.8"/>
      </defs>
      <g>
       <use xlink:href="#m45440ef067" x="87.287559" y="228.96" style="stroke: #000000; stroke-width: 0.8"/>
      </g>
     </g>
     <g id="text_1">
      <!-- 2020-09 -->
      <g transform="translate(90.046934 277.742812)rotate(-90)scale(0.1 -0.1)">
       <defs>
        <path id="DejaVuSans-32" d="M 1228 531 
L 3431 531 
L 3431 0 
L 469 0 
L 469 531 
Q 828 903 1448 1529 
Q 2069 2156 2228 2338 
Q 2531 2678 2651 2914 
Q 2772 3150 2772 3378 
Q 2772 3750 2511 3984 
Q 2250 4219 1831 4219 
Q 1534 4219 1204 4116 
Q 875 4013 500 3803 
L 500 4441 
Q 881 4594 1212 4672 
Q 1544 4750 1819 4750 
Q 2544 4750 2975 4387 
Q 3406 4025 3406 3419 
Q 3406 3131 3298 2873 
Q 3191 2616 2906 2266 
Q 2828 2175 2409 1742 
Q 1991 1309 1228 531 
z
" transform="scale(0.015625)"/>
        <path id="DejaVuSans-30" d="M 2034 4250 
Q 1547 4250 1301 3770 
Q 1056 3291 1056 2328 
Q 1056 1369 1301 889 
Q 1547 409 2034 409 
Q 2525 409 2770 889 
Q 3016 1369 3016 2328 
Q 3016 3291 2770 3770 
Q 2525 4250 2034 4250 
z
M 2034 4750 
Q 2819 4750 3233 4129 
Q 3647 3509 3647 2328 
Q 3647 1150 3233 529 
Q 2819 -91 2034 -91 
Q 1250 -91 836 529 
Q 422 1150 422 2328 
Q 422 3509 836 4129 
Q 1250 4750 2034 4750 
z
" transform="scale(0.015625)"/>
        <path id="DejaVuSans-2d" d="M 313 2009 
L 1997 2009 
L 1997 1497 
L 313 1497 
L 313 2009 
z
" transform="scale(0.015625)"/>
        <path id="DejaVuSans-39" d="M 703 97 
L 703 672 
Q 941 559 1184 500 
Q 1428 441 1663 441 
Q 2288 441 2617 861 
Q 2947 1281 2994 2138 
Q 2813 1869 2534 1725 
Q 2256 1581 1919 1581 
Q 1219 1581 811 2004 
Q 403 2428 403 3163 
Q 403 3881 828 4315 
Q 1253 4750 1959 4750 
Q 2769 4750 3195 4129 
Q 3622 3509 3622 2328 
Q 3622 1225 3098 567 
Q 2575 -91 1691 -91 
Q 1453 -91 1209 -44 
Q 966 3 703 97 
z
M 1959 2075 
Q 2384 2075 2632 2365 
Q 2881 2656 2881 3163 
Q 2881 3666 2632 3958 
Q 2384 4250 1959 4250 
Q 1534 4250 1286 3958 
Q 1038 3666 1038 3163 
Q 1038 2656 1286 2365 
Q 1534 2075 1959 2075 
z
" transform="scale(0.015625)"/>
       </defs>
       <use xlink:href="#DejaVuSans-32"/>
       <use xlink:href="#DejaVuSans-30" x="63.623047"/>
       <use xlink:href="#DejaVuSans-32" x="127.246094"/>
       <use xlink:href="#DejaVuSans-30" x="190.869141"/>
       <use xlink:href="#DejaVuSans-2d" x="254.492188"/>
       <use xlink:href="#DejaVuSans-30" x="290.576172"/>
       <use xlink:href="#DejaVuSans-39" x="354.199219"/>
      </g>
     </g>
    </g>
    <g id="xtick_2">
     <g id="line2d_2">
      <g>
       <use xlink:href="#m45440ef067" x="197.407261" y="228.96" style="stroke: #000000; stroke-width: 0.8"/>
      </g>
     </g>
     <g id="text_2">
      <!-- 2020-11 -->
      <g transform="translate(200.166636 277.742812)rotate(-90)scale(0.1 -0.1)">
       <defs>
        <path id="DejaVuSans-31" d="M 794 531 
L 1825 531 
L 1825 4091 
L 703 3866 
L 703 4441 
L 1819 4666 
L 2450 4666 
L 2450 531 
L 3481 531 
L 3481 0 
L 794 0 
L 794 531 
z
" transform="scale(0.015625)"/>
       </defs>
       <use xlink:href="#DejaVuSans-32"/>
       <use xlink:href="#DejaVuSans-30" x="63.623047"/>
       <use xlink:href="#DejaVuSans-32" x="127.246094"/>
       <use xlink:href="#DejaVuSans-30" x="190.869141"/>
       <use xlink:href="#DejaVuSans-2d" x="254.492188"/>
       <use xlink:href="#DejaVuSans-31" x="290.576172"/>
       <use xlink:href="#DejaVuSans-31" x="354.199219"/>
      </g>
     </g>
    </g>
    <g id="xtick_3">
     <g id="line2d_3">
      <g>
       <use xlink:href="#m45440ef067" x="307.526963" y="228.96" style="stroke: #000000; stroke-width: 0.8"/>
      </g>
     </g>
     <g id="text_3">
      <!-- 2021-01 -->
      <g transform="translate(310.286338 277.742812)rotate(-90)scale(0.1 -0.1)">
       <use xlink:href="#DejaVuSans-32"/>
       <use xlink:href="#DejaVuSans-30" x="63.623047"/>
       <use xlink:href="#DejaVuSans-32" x="127.246094"/>
       <use xlink:href="#DejaVuSans-31" x="190.869141"/>
       <use xlink:href="#DejaVuSans-2d" x="254.492188"/>
       <use xlink:href="#DejaVuSans-30" x="290.576172"/>
       <use xlink:href="#DejaVuSans-31" x="354.199219"/>
      </g>
     </g>
    </g>
    <g id="xtick_4">
     <g id="line2d_4">
      <g>
       <use xlink:href="#m45440ef067" x="414.036184" y="228.96" style="stroke: #000000; stroke-width: 0.8"/>
      </g>
     </g>
     <g id="text_4">
      <!-- 2021-03 -->
      <g transform="translate(416.795559 277.742812)rotate(-90)scale(0.1 -0.1)">
       <defs>
        <path id="DejaVuSans-33" d="M 2597 2516 
Q 3050 2419 3304 2112 
Q 3559 1806 3559 1356 
Q 3559 666 3084 287 
Q 2609 -91 1734 -91 
Q 1441 -91 1130 -33 
Q 819 25 488 141 
L 488 750 
Q 750 597 1062 519 
Q 1375 441 1716 441 
Q 2309 441 2620 675 
Q 2931 909 2931 1356 
Q 2931 1769 2642 2001 
Q 2353 2234 1838 2234 
L 1294 2234 
L 1294 2753 
L 1863 2753 
Q 2328 2753 2575 2939 
Q 2822 3125 2822 3475 
Q 2822 3834 2567 4026 
Q 2313 4219 1838 4219 
Q 1578 4219 1281 4162 
Q 984 4106 628 3988 
L 628 4550 
Q 988 4650 1302 4700 
Q 1616 4750 1894 4750 
Q 2613 4750 3031 4423 
Q 3450 4097 3450 3541 
Q 3450 3153 3228 2886 
Q 3006 2619 2597 2516 
z
" transform="scale(0.015625)"/>
       </defs>
       <use xlink:href="#DejaVuSans-32"/>
       <use xlink:href="#DejaVuSans-30" x="63.623047"/>
       <use xlink:href="#DejaVuSans-32" x="127.246094"/>
       <use xlink:href="#DejaVuSans-31" x="190.869141"/>
       <use xlink:href="#DejaVuSans-2d" x="254.492188"/>
       <use xlink:href="#DejaVuSans-30" x="290.576172"/>
       <use xlink:href="#DejaVuSans-33" x="354.199219"/>
      </g>
     </g>
    </g>
    <g id="xtick_5">
     <g id="line2d_5">
      <g>
       <use xlink:href="#m45440ef067" x="524.155886" y="228.96" style="stroke: #000000; stroke-width: 0.8"/>
      </g>
     </g>
     <g id="text_5">
      <!-- 2021-05 -->
      <g transform="translate(526.915261 277.742812)rotate(-90)scale(0.1 -0.1)">
       <defs>
        <path id="DejaVuSans-35" d="M 691 4666 
L 3169 4666 
L 3169 4134 
L 1269 4134 
L 1269 2991 
Q 1406 3038 1543 3061 
Q 1681 3084 1819 3084 
Q 2600 3084 3056 2656 
Q 3513 2228 3513 1497 
Q 3513 744 3044 326 
Q 2575 -91 1722 -91 
Q 1428 -91 1123 -41 
Q 819 9 494 109 
L 494 744 
Q 775 591 1075 516 
Q 1375 441 1709 441 
Q 2250 441 2565 725 
Q 2881 1009 2881 1497 
Q 2881 1984 2565 2268 
Q 2250 2553 1709 2553 
Q 1456 2553 1204 2497 
Q 953 2441 691 2322 
L 691 4666 
z
" transform="scale(0.015625)"/>
       </defs>
       <use xlink:href="#DejaVuSans-32"/>
       <use xlink:href="#DejaVuSans-30" x="63.623047"/>
       <use xlink:href="#DejaVuSans-32" x="127.246094"/>
       <use xlink:href="#DejaVuSans-31" x="190.869141"/>
       <use xlink:href="#DejaVuSans-2d" x="254.492188"/>
       <use xlink:href="#DejaVuSans-30" x="290.576172"/>
       <use xlink:href="#DejaVuSans-35" x="354.199219"/>
      </g>
     </g>
    </g>
    <g id="xtick_6">
     <g id="line2d_6">
      <g>
       <use xlink:href="#m45440ef067" x="634.275588" y="228.96" style="stroke: #000000; stroke-width: 0.8"/>
      </g>
     </g>
     <g id="text_6">
      <!-- 2021-07 -->
      <g transform="translate(637.034963 277.742812)rotate(-90)scale(0.1 -0.1)">
       <defs>
        <path id="DejaVuSans-37" d="M 525 4666 
L 3525 4666 
L 3525 4397 
L 1831 0 
L 1172 0 
L 2766 4134 
L 525 4134 
L 525 4666 
z
" transform="scale(0.015625)"/>
       </defs>
       <use xlink:href="#DejaVuSans-32"/>
       <use xlink:href="#DejaVuSans-30" x="63.623047"/>
       <use xlink:href="#DejaVuSans-32" x="127.246094"/>
       <use xlink:href="#DejaVuSans-31" x="190.869141"/>
       <use xlink:href="#DejaVuSans-2d" x="254.492188"/>
       <use xlink:href="#DejaVuSans-30" x="290.576172"/>
       <use xlink:href="#DejaVuSans-37" x="354.199219"/>
      </g>
     </g>
    </g>
    <g id="xtick_7">
     <g id="line2d_7">
      <g>
       <use xlink:href="#m45440ef067" x="746.200532" y="228.96" style="stroke: #000000; stroke-width: 0.8"/>
      </g>
     </g>
     <g id="text_7">
      <!-- 2021-09 -->
      <g transform="translate(748.959907 277.742812)rotate(-90)scale(0.1 -0.1)">
       <use xlink:href="#DejaVuSans-32"/>
       <use xlink:href="#DejaVuSans-30" x="63.623047"/>
       <use xlink:href="#DejaVuSans-32" x="127.246094"/>
       <use xlink:href="#DejaVuSans-31" x="190.869141"/>
       <use xlink:href="#DejaVuSans-2d" x="254.492188"/>
       <use xlink:href="#DejaVuSans-30" x="290.576172"/>
       <use xlink:href="#DejaVuSans-39" x="354.199219"/>
      </g>
     </g>
    </g>
    <g id="xtick_8">
     <g id="line2d_8">
      <g>
       <use xlink:href="#m45440ef067" x="856.320234" y="228.96" style="stroke: #000000; stroke-width: 0.8"/>
      </g>
     </g>
     <g id="text_8">
      <!-- 2021-11 -->
      <g transform="translate(859.079609 277.742812)rotate(-90)scale(0.1 -0.1)">
       <use xlink:href="#DejaVuSans-32"/>
       <use xlink:href="#DejaVuSans-30" x="63.623047"/>
       <use xlink:href="#DejaVuSans-32" x="127.246094"/>
       <use xlink:href="#DejaVuSans-31" x="190.869141"/>
       <use xlink:href="#DejaVuSans-2d" x="254.492188"/>
       <use xlink:href="#DejaVuSans-31" x="290.576172"/>
       <use xlink:href="#DejaVuSans-31" x="354.199219"/>
      </g>
     </g>
    </g>
    <g id="xtick_9">
     <g id="line2d_9">
      <g>
       <use xlink:href="#m45440ef067" x="966.439937" y="228.96" style="stroke: #000000; stroke-width: 0.8"/>
      </g>
     </g>
     <g id="text_9">
      <!-- 2022-01 -->
      <g transform="translate(969.199312 277.742812)rotate(-90)scale(0.1 -0.1)">
       <use xlink:href="#DejaVuSans-32"/>
       <use xlink:href="#DejaVuSans-30" x="63.623047"/>
       <use xlink:href="#DejaVuSans-32" x="127.246094"/>
       <use xlink:href="#DejaVuSans-32" x="190.869141"/>
       <use xlink:href="#DejaVuSans-2d" x="254.492188"/>
       <use xlink:href="#DejaVuSans-30" x="290.576172"/>
       <use xlink:href="#DejaVuSans-31" x="354.199219"/>
      </g>
     </g>
    </g>
    <g id="xtick_10">
     <g id="line2d_10">
      <g>
       <use xlink:href="#m45440ef067" x="1072.949157" y="228.96" style="stroke: #000000; stroke-width: 0.8"/>
      </g>
     </g>
     <g id="text_10">
      <!-- 2022-03 -->
      <g transform="translate(1075.708532 277.742812)rotate(-90)scale(0.1 -0.1)">
       <use xlink:href="#DejaVuSans-32"/>
       <use xlink:href="#DejaVuSans-30" x="63.623047"/>
       <use xlink:href="#DejaVuSans-32" x="127.246094"/>
       <use xlink:href="#DejaVuSans-32" x="190.869141"/>
       <use xlink:href="#DejaVuSans-2d" x="254.492188"/>
       <use xlink:href="#DejaVuSans-30" x="290.576172"/>
       <use xlink:href="#DejaVuSans-33" x="354.199219"/>
      </g>
     </g>
    </g>
    <g id="text_11">
     <!-- Date -->
     <g transform="translate(589.830469 289.34125)scale(0.1 -0.1)">
      <defs>
       <path id="DejaVuSans-44" d="M 1259 4147 
L 1259 519 
L 2022 519 
Q 2988 519 3436 956 
Q 3884 1394 3884 2338 
Q 3884 3275 3436 3711 
Q 2988 4147 2022 4147 
L 1259 4147 
z
M 628 4666 
L 1925 4666 
Q 3281 4666 3915 4102 
Q 4550 3538 4550 2338 
Q 4550 1131 3912 565 
Q 3275 0 1925 0 
L 628 0 
L 628 4666 
z
" transform="scale(0.015625)"/>
       <path id="DejaVuSans-61" d="M 2194 1759 
Q 1497 1759 1228 1600 
Q 959 1441 959 1056 
Q 959 750 1161 570 
Q 1363 391 1709 391 
Q 2188 391 2477 730 
Q 2766 1069 2766 1631 
L 2766 1759 
L 2194 1759 
z
M 3341 1997 
L 3341 0 
L 2766 0 
L 2766 531 
Q 2569 213 2275 61 
Q 1981 -91 1556 -91 
Q 1019 -91 701 211 
Q 384 513 384 1019 
Q 384 1609 779 1909 
Q 1175 2209 1959 2209 
L 2766 2209 
L 2766 2266 
Q 2766 2663 2505 2880 
Q 2244 3097 1772 3097 
Q 1472 3097 1187 3025 
Q 903 2953 641 2809 
L 641 3341 
Q 956 3463 1253 3523 
Q 1550 3584 1831 3584 
Q 2591 3584 2966 3190 
Q 3341 2797 3341 1997 
z
" transform="scale(0.015625)"/>
       <path id="DejaVuSans-74" d="M 1172 4494 
L 1172 3500 
L 2356 3500 
L 2356 3053 
L 1172 3053 
L 1172 1153 
Q 1172 725 1289 603 
Q 1406 481 1766 481 
L 2356 481 
L 2356 0 
L 1766 0 
Q 1100 0 847 248 
Q 594 497 594 1153 
L 594 3053 
L 172 3053 
L 172 3500 
L 594 3500 
L 594 4494 
L 1172 4494 
z
" transform="scale(0.015625)"/>
       <path id="DejaVuSans-65" d="M 3597 1894 
L 3597 1613 
L 953 1613 
Q 991 1019 1311 708 
Q 1631 397 2203 397 
Q 2534 397 2845 478 
Q 3156 559 3463 722 
L 3463 178 
Q 3153 47 2828 -22 
Q 2503 -91 2169 -91 
Q 1331 -91 842 396 
Q 353 884 353 1716 
Q 353 2575 817 3079 
Q 1281 3584 2069 3584 
Q 2775 3584 3186 3129 
Q 3597 2675 3597 1894 
z
M 3022 2063 
Q 3016 2534 2758 2815 
Q 2500 3097 2075 3097 
Q 1594 3097 1305 2825 
Q 1016 2553 972 2059 
L 3022 2063 
z
" transform="scale(0.015625)"/>
      </defs>
      <use xlink:href="#DejaVuSans-44"/>
      <use xlink:href="#DejaVuSans-61" x="77.001953"/>
      <use xlink:href="#DejaVuSans-74" x="138.28125"/>
      <use xlink:href="#DejaVuSans-65" x="177.490234"/>
     </g>
    </g>
   </g>
   <g id="matplotlib.axis_2">
    <g id="ytick_1">
     <g id="line2d_11">
      <defs>
       <path id="mfda5ab4a97" d="M 0 0 
L -3.5 0 
" style="stroke: #000000; stroke-width: 0.8"/>
      </defs>
      <g>
       <use xlink:href="#mfda5ab4a97" x="43.78125" y="228.96" style="stroke: #000000; stroke-width: 0.8"/>
      </g>
     </g>
     <g id="text_12">
      <!-- 0.0 -->
      <g transform="translate(20.878125 232.759219)scale(0.1 -0.1)">
       <defs>
        <path id="DejaVuSans-2e" d="M 684 794 
L 1344 794 
L 1344 0 
L 684 0 
L 684 794 
z
" transform="scale(0.015625)"/>
       </defs>
       <use xlink:href="#DejaVuSans-30"/>
       <use xlink:href="#DejaVuSans-2e" x="63.623047"/>
       <use xlink:href="#DejaVuSans-30" x="95.410156"/>
      </g>
     </g>
    </g>
    <g id="ytick_2">
     <g id="line2d_12">
      <g>
       <use xlink:href="#mfda5ab4a97" x="43.78125" y="182.489713" style="stroke: #000000; stroke-width: 0.8"/>
      </g>
     </g>
     <g id="text_13">
      <!-- 0.2 -->
      <g transform="translate(20.878125 186.288932)scale(0.1 -0.1)">
       <use xlink:href="#DejaVuSans-30"/>
       <use xlink:href="#DejaVuSans-2e" x="63.623047"/>
       <use xlink:href="#DejaVuSans-32" x="95.410156"/>
      </g>
     </g>
    </g>
    <g id="ytick_3">
     <g id="line2d_13">
      <g>
       <use xlink:href="#mfda5ab4a97" x="43.78125" y="136.019426" style="stroke: #000000; stroke-width: 0.8"/>
      </g>
     </g>
     <g id="text_14">
      <!-- 0.4 -->
      <g transform="translate(20.878125 139.818644)scale(0.1 -0.1)">
       <defs>
        <path id="DejaVuSans-34" d="M 2419 4116 
L 825 1625 
L 2419 1625 
L 2419 4116 
z
M 2253 4666 
L 3047 4666 
L 3047 1625 
L 3713 1625 
L 3713 1100 
L 3047 1100 
L 3047 0 
L 2419 0 
L 2419 1100 
L 313 1100 
L 313 1709 
L 2253 4666 
z
" transform="scale(0.015625)"/>
       </defs>
       <use xlink:href="#DejaVuSans-30"/>
       <use xlink:href="#DejaVuSans-2e" x="63.623047"/>
       <use xlink:href="#DejaVuSans-34" x="95.410156"/>
      </g>
     </g>
    </g>
    <g id="ytick_4">
     <g id="line2d_14">
      <g>
       <use xlink:href="#mfda5ab4a97" x="43.78125" y="89.549138" style="stroke: #000000; stroke-width: 0.8"/>
      </g>
     </g>
     <g id="text_15">
      <!-- 0.6 -->
      <g transform="translate(20.878125 93.348357)scale(0.1 -0.1)">
       <defs>
        <path id="DejaVuSans-36" d="M 2113 2584 
Q 1688 2584 1439 2293 
Q 1191 2003 1191 1497 
Q 1191 994 1439 701 
Q 1688 409 2113 409 
Q 2538 409 2786 701 
Q 3034 994 3034 1497 
Q 3034 2003 2786 2293 
Q 2538 2584 2113 2584 
z
M 3366 4563 
L 3366 3988 
Q 3128 4100 2886 4159 
Q 2644 4219 2406 4219 
Q 1781 4219 1451 3797 
Q 1122 3375 1075 2522 
Q 1259 2794 1537 2939 
Q 1816 3084 2150 3084 
Q 2853 3084 3261 2657 
Q 3669 2231 3669 1497 
Q 3669 778 3244 343 
Q 2819 -91 2113 -91 
Q 1303 -91 875 529 
Q 447 1150 447 2328 
Q 447 3434 972 4092 
Q 1497 4750 2381 4750 
Q 2619 4750 2861 4703 
Q 3103 4656 3366 4563 
z
" transform="scale(0.015625)"/>
       </defs>
       <use xlink:href="#DejaVuSans-30"/>
       <use xlink:href="#DejaVuSans-2e" x="63.623047"/>
       <use xlink:href="#DejaVuSans-36" x="95.410156"/>
      </g>
     </g>
    </g>
    <g id="ytick_5">
     <g id="line2d_15">
      <g>
       <use xlink:href="#mfda5ab4a97" x="43.78125" y="43.078851" style="stroke: #000000; stroke-width: 0.8"/>
      </g>
     </g>
     <g id="text_16">
      <!-- 0.8 -->
      <g transform="translate(20.878125 46.87807)scale(0.1 -0.1)">
       <defs>
        <path id="DejaVuSans-38" d="M 2034 2216 
Q 1584 2216 1326 1975 
Q 1069 1734 1069 1313 
Q 1069 891 1326 650 
Q 1584 409 2034 409 
Q 2484 409 2743 651 
Q 3003 894 3003 1313 
Q 3003 1734 2745 1975 
Q 2488 2216 2034 2216 
z
M 1403 2484 
Q 997 2584 770 2862 
Q 544 3141 544 3541 
Q 544 4100 942 4425 
Q 1341 4750 2034 4750 
Q 2731 4750 3128 4425 
Q 3525 4100 3525 3541 
Q 3525 3141 3298 2862 
Q 3072 2584 2669 2484 
Q 3125 2378 3379 2068 
Q 3634 1759 3634 1313 
Q 3634 634 3220 271 
Q 2806 -91 2034 -91 
Q 1263 -91 848 271 
Q 434 634 434 1313 
Q 434 1759 690 2068 
Q 947 2378 1403 2484 
z
M 1172 3481 
Q 1172 3119 1398 2916 
Q 1625 2713 2034 2713 
Q 2441 2713 2670 2916 
Q 2900 3119 2900 3481 
Q 2900 3844 2670 4047 
Q 2441 4250 2034 4250 
Q 1625 4250 1398 4047 
Q 1172 3844 1172 3481 
z
" transform="scale(0.015625)"/>
       </defs>
       <use xlink:href="#DejaVuSans-30"/>
       <use xlink:href="#DejaVuSans-2e" x="63.623047"/>
       <use xlink:href="#DejaVuSans-38" x="95.410156"/>
      </g>
     </g>
    </g>
    <g id="text_17">
     <!-- Frequency (7 day rolling average) -->
     <g transform="translate(14.798437 202.529219)rotate(-90)scale(0.1 -0.1)">
      <defs>
       <path id="DejaVuSans-46" d="M 628 4666 
L 3309 4666 
L 3309 4134 
L 1259 4134 
L 1259 2759 
L 3109 2759 
L 3109 2228 
L 1259 2228 
L 1259 0 
L 628 0 
L 628 4666 
z
" transform="scale(0.015625)"/>
       <path id="DejaVuSans-72" d="M 2631 2963 
Q 2534 3019 2420 3045 
Q 2306 3072 2169 3072 
Q 1681 3072 1420 2755 
Q 1159 2438 1159 1844 
L 1159 0 
L 581 0 
L 581 3500 
L 1159 3500 
L 1159 2956 
Q 1341 3275 1631 3429 
Q 1922 3584 2338 3584 
Q 2397 3584 2469 3576 
Q 2541 3569 2628 3553 
L 2631 2963 
z
" transform="scale(0.015625)"/>
       <path id="DejaVuSans-71" d="M 947 1747 
Q 947 1113 1208 752 
Q 1469 391 1925 391 
Q 2381 391 2643 752 
Q 2906 1113 2906 1747 
Q 2906 2381 2643 2742 
Q 2381 3103 1925 3103 
Q 1469 3103 1208 2742 
Q 947 2381 947 1747 
z
M 2906 525 
Q 2725 213 2448 61 
Q 2172 -91 1784 -91 
Q 1150 -91 751 415 
Q 353 922 353 1747 
Q 353 2572 751 3078 
Q 1150 3584 1784 3584 
Q 2172 3584 2448 3432 
Q 2725 3281 2906 2969 
L 2906 3500 
L 3481 3500 
L 3481 -1331 
L 2906 -1331 
L 2906 525 
z
" transform="scale(0.015625)"/>
       <path id="DejaVuSans-75" d="M 544 1381 
L 544 3500 
L 1119 3500 
L 1119 1403 
Q 1119 906 1312 657 
Q 1506 409 1894 409 
Q 2359 409 2629 706 
Q 2900 1003 2900 1516 
L 2900 3500 
L 3475 3500 
L 3475 0 
L 2900 0 
L 2900 538 
Q 2691 219 2414 64 
Q 2138 -91 1772 -91 
Q 1169 -91 856 284 
Q 544 659 544 1381 
z
M 1991 3584 
L 1991 3584 
z
" transform="scale(0.015625)"/>
       <path id="DejaVuSans-6e" d="M 3513 2113 
L 3513 0 
L 2938 0 
L 2938 2094 
Q 2938 2591 2744 2837 
Q 2550 3084 2163 3084 
Q 1697 3084 1428 2787 
Q 1159 2491 1159 1978 
L 1159 0 
L 581 0 
L 581 3500 
L 1159 3500 
L 1159 2956 
Q 1366 3272 1645 3428 
Q 1925 3584 2291 3584 
Q 2894 3584 3203 3211 
Q 3513 2838 3513 2113 
z
" transform="scale(0.015625)"/>
       <path id="DejaVuSans-63" d="M 3122 3366 
L 3122 2828 
Q 2878 2963 2633 3030 
Q 2388 3097 2138 3097 
Q 1578 3097 1268 2742 
Q 959 2388 959 1747 
Q 959 1106 1268 751 
Q 1578 397 2138 397 
Q 2388 397 2633 464 
Q 2878 531 3122 666 
L 3122 134 
Q 2881 22 2623 -34 
Q 2366 -91 2075 -91 
Q 1284 -91 818 406 
Q 353 903 353 1747 
Q 353 2603 823 3093 
Q 1294 3584 2113 3584 
Q 2378 3584 2631 3529 
Q 2884 3475 3122 3366 
z
" transform="scale(0.015625)"/>
       <path id="DejaVuSans-79" d="M 2059 -325 
Q 1816 -950 1584 -1140 
Q 1353 -1331 966 -1331 
L 506 -1331 
L 506 -850 
L 844 -850 
Q 1081 -850 1212 -737 
Q 1344 -625 1503 -206 
L 1606 56 
L 191 3500 
L 800 3500 
L 1894 763 
L 2988 3500 
L 3597 3500 
L 2059 -325 
z
" transform="scale(0.015625)"/>
       <path id="DejaVuSans-20" transform="scale(0.015625)"/>
       <path id="DejaVuSans-28" d="M 1984 4856 
Q 1566 4138 1362 3434 
Q 1159 2731 1159 2009 
Q 1159 1288 1364 580 
Q 1569 -128 1984 -844 
L 1484 -844 
Q 1016 -109 783 600 
Q 550 1309 550 2009 
Q 550 2706 781 3412 
Q 1013 4119 1484 4856 
L 1984 4856 
z
" transform="scale(0.015625)"/>
       <path id="DejaVuSans-64" d="M 2906 2969 
L 2906 4863 
L 3481 4863 
L 3481 0 
L 2906 0 
L 2906 525 
Q 2725 213 2448 61 
Q 2172 -91 1784 -91 
Q 1150 -91 751 415 
Q 353 922 353 1747 
Q 353 2572 751 3078 
Q 1150 3584 1784 3584 
Q 2172 3584 2448 3432 
Q 2725 3281 2906 2969 
z
M 947 1747 
Q 947 1113 1208 752 
Q 1469 391 1925 391 
Q 2381 391 2643 752 
Q 2906 1113 2906 1747 
Q 2906 2381 2643 2742 
Q 2381 3103 1925 3103 
Q 1469 3103 1208 2742 
Q 947 2381 947 1747 
z
" transform="scale(0.015625)"/>
       <path id="DejaVuSans-6f" d="M 1959 3097 
Q 1497 3097 1228 2736 
Q 959 2375 959 1747 
Q 959 1119 1226 758 
Q 1494 397 1959 397 
Q 2419 397 2687 759 
Q 2956 1122 2956 1747 
Q 2956 2369 2687 2733 
Q 2419 3097 1959 3097 
z
M 1959 3584 
Q 2709 3584 3137 3096 
Q 3566 2609 3566 1747 
Q 3566 888 3137 398 
Q 2709 -91 1959 -91 
Q 1206 -91 779 398 
Q 353 888 353 1747 
Q 353 2609 779 3096 
Q 1206 3584 1959 3584 
z
" transform="scale(0.015625)"/>
       <path id="DejaVuSans-6c" d="M 603 4863 
L 1178 4863 
L 1178 0 
L 603 0 
L 603 4863 
z
" transform="scale(0.015625)"/>
       <path id="DejaVuSans-69" d="M 603 3500 
L 1178 3500 
L 1178 0 
L 603 0 
L 603 3500 
z
M 603 4863 
L 1178 4863 
L 1178 4134 
L 603 4134 
L 603 4863 
z
" transform="scale(0.015625)"/>
       <path id="DejaVuSans-67" d="M 2906 1791 
Q 2906 2416 2648 2759 
Q 2391 3103 1925 3103 
Q 1463 3103 1205 2759 
Q 947 2416 947 1791 
Q 947 1169 1205 825 
Q 1463 481 1925 481 
Q 2391 481 2648 825 
Q 2906 1169 2906 1791 
z
M 3481 434 
Q 3481 -459 3084 -895 
Q 2688 -1331 1869 -1331 
Q 1566 -1331 1297 -1286 
Q 1028 -1241 775 -1147 
L 775 -588 
Q 1028 -725 1275 -790 
Q 1522 -856 1778 -856 
Q 2344 -856 2625 -561 
Q 2906 -266 2906 331 
L 2906 616 
Q 2728 306 2450 153 
Q 2172 0 1784 0 
Q 1141 0 747 490 
Q 353 981 353 1791 
Q 353 2603 747 3093 
Q 1141 3584 1784 3584 
Q 2172 3584 2450 3431 
Q 2728 3278 2906 2969 
L 2906 3500 
L 3481 3500 
L 3481 434 
z
" transform="scale(0.015625)"/>
       <path id="DejaVuSans-76" d="M 191 3500 
L 800 3500 
L 1894 563 
L 2988 3500 
L 3597 3500 
L 2284 0 
L 1503 0 
L 191 3500 
z
" transform="scale(0.015625)"/>
       <path id="DejaVuSans-29" d="M 513 4856 
L 1013 4856 
Q 1481 4119 1714 3412 
Q 1947 2706 1947 2009 
Q 1947 1309 1714 600 
Q 1481 -109 1013 -844 
L 513 -844 
Q 928 -128 1133 580 
Q 1338 1288 1338 2009 
Q 1338 2731 1133 3434 
Q 928 4138 513 4856 
z
" transform="scale(0.015625)"/>
      </defs>
      <use xlink:href="#DejaVuSans-46"/>
      <use xlink:href="#DejaVuSans-72" x="50.269531"/>
      <use xlink:href="#DejaVuSans-65" x="89.132812"/>
      <use xlink:href="#DejaVuSans-71" x="150.65625"/>
      <use xlink:href="#DejaVuSans-75" x="214.132812"/>
      <use xlink:href="#DejaVuSans-65" x="277.511719"/>
      <use xlink:href="#DejaVuSans-6e" x="339.035156"/>
      <use xlink:href="#DejaVuSans-63" x="402.414062"/>
      <use xlink:href="#DejaVuSans-79" x="457.394531"/>
      <use xlink:href="#DejaVuSans-20" x="516.574219"/>
      <use xlink:href="#DejaVuSans-28" x="548.361328"/>
      <use xlink:href="#DejaVuSans-37" x="587.375"/>
      <use xlink:href="#DejaVuSans-20" x="650.998047"/>
      <use xlink:href="#DejaVuSans-64" x="682.785156"/>
      <use xlink:href="#DejaVuSans-61" x="746.261719"/>
      <use xlink:href="#DejaVuSans-79" x="807.541016"/>
      <use xlink:href="#DejaVuSans-20" x="866.720703"/>
      <use xlink:href="#DejaVuSans-72" x="898.507812"/>
      <use xlink:href="#DejaVuSans-6f" x="937.371094"/>
      <use xlink:href="#DejaVuSans-6c" x="998.552734"/>
      <use xlink:href="#DejaVuSans-6c" x="1026.335938"/>
      <use xlink:href="#DejaVuSans-69" x="1054.119141"/>
      <use xlink:href="#DejaVuSans-6e" x="1081.902344"/>
      <use xlink:href="#DejaVuSans-67" x="1145.28125"/>
      <use xlink:href="#DejaVuSans-20" x="1208.757812"/>
      <use xlink:href="#DejaVuSans-61" x="1240.544922"/>
      <use xlink:href="#DejaVuSans-76" x="1301.824219"/>
      <use xlink:href="#DejaVuSans-65" x="1361.003906"/>
      <use xlink:href="#DejaVuSans-72" x="1422.527344"/>
      <use xlink:href="#DejaVuSans-61" x="1463.640625"/>
      <use xlink:href="#DejaVuSans-67" x="1524.919922"/>
      <use xlink:href="#DejaVuSans-65" x="1588.396484"/>
      <use xlink:href="#DejaVuSans-29" x="1649.919922"/>
     </g>
    </g>
   </g>
   <g id="line2d_16">
    <path d="M 217.264912 199.086244 
L 219.070153 222.321388 
L 224.485876 222.321388 
L 226.291117 228.96 
L 273.227384 228.96 
L 278.643107 228.55605 
L 284.05883 228.527515 
L 289.474553 227.313516 
L 293.085035 227.10525 
L 294.890276 227.755184 
L 298.500758 228.116369 
L 302.11124 227.725659 
L 303.916481 227.596035 
L 307.526963 227.90586 
L 309.332204 227.6863 
L 314.747927 227.591968 
L 316.553168 227.155365 
L 320.163651 227.756906 
L 323.774133 227.050014 
L 325.579374 227.512473 
L 327.384615 227.188535 
L 329.189856 226.004305 
L 330.995097 225.298 
L 332.800338 225.296921 
L 334.605579 224.372203 
L 336.41082 224.239177 
L 338.216061 225.347666 
L 340.021302 225.66156 
L 341.826543 224.946683 
L 343.631784 225.493714 
L 345.437025 225.440773 
L 347.242266 225.14996 
L 349.047507 225.429833 
L 350.852748 226.217786 
L 352.657989 225.984084 
L 354.46323 225.468042 
L 356.268471 225.419713 
L 358.073712 224.898122 
L 359.878953 223.795463 
L 361.684194 223.585437 
L 363.489435 224.508667 
L 367.099917 224.186296 
L 368.905158 224.462087 
L 370.710399 223.883305 
L 372.51564 222.804809 
L 374.320881 222.721958 
L 376.126122 223.156143 
L 377.931363 222.965864 
L 379.736604 223.279 
L 381.541845 223.204237 
L 385.152327 221.946581 
L 386.957568 222.61444 
L 394.178532 223.317429 
L 395.983773 222.776486 
L 399.594255 222.301419 
L 403.204738 222.55922 
L 408.620461 221.702626 
L 412.230943 220.870302 
L 414.036184 221.120019 
L 415.841425 220.857761 
L 417.646666 221.218323 
L 419.451907 221.416325 
L 421.257148 221.495462 
L 423.062389 221.894401 
L 426.672871 222.354048 
L 428.478112 222.026353 
L 430.283353 222.174578 
L 432.088594 221.655922 
L 433.893835 221.432247 
L 435.699076 220.715101 
L 437.504317 220.766204 
L 439.309558 220.972908 
L 441.114799 220.469232 
L 442.92004 220.574936 
L 444.725281 221.236484 
L 446.530522 220.905982 
L 448.335763 220.403663 
L 450.141004 220.727 
L 451.946245 221.328403 
L 453.751486 220.911488 
L 455.556727 221.300321 
L 457.361968 221.461325 
L 459.167209 221.787285 
L 460.97245 221.291111 
L 464.582932 221.792207 
L 468.193414 221.100752 
L 469.998655 221.327997 
L 473.609137 220.651724 
L 475.414378 220.926865 
L 477.219619 221.662444 
L 479.02486 221.639198 
L 484.440584 223.467333 
L 486.245825 223.315781 
L 489.856307 223.827575 
L 491.661548 223.427298 
L 498.882512 223.630653 
L 500.687753 224.385405 
L 504.298235 224.759206 
L 506.103476 224.706613 
L 507.908717 225.062609 
L 509.713958 224.936256 
L 511.519199 224.936141 
L 513.32444 224.529599 
L 515.129681 224.781955 
L 516.934922 224.443605 
L 520.545404 224.204489 
L 522.350645 224.761215 
L 524.155886 224.742213 
L 527.766368 225.272959 
L 531.37685 224.934407 
L 534.987332 225.113556 
L 536.792573 224.989824 
L 540.403055 225.657727 
L 542.208296 224.932901 
L 545.818778 224.904594 
L 547.624019 225.044421 
L 549.42926 224.781541 
L 551.234501 225.598826 
L 553.039742 226.057032 
L 556.650224 226.276969 
L 558.455465 226.664223 
L 560.260706 226.638889 
L 562.065948 226.313955 
L 565.67643 226.782056 
L 567.481671 226.32754 
L 569.286912 226.287803 
L 571.092153 226.455015 
L 572.897394 226.43961 
L 574.702635 226.210687 
L 578.313117 226.912789 
L 590.949804 227.465167 
L 592.755045 227.180606 
L 594.560286 227.221144 
L 596.365527 227.108464 
L 598.170768 226.83642 
L 599.976009 226.704837 
L 601.78125 227.114534 
L 605.391732 227.213399 
L 609.002214 227.560557 
L 612.612696 227.297142 
L 614.417937 227.347238 
L 618.028419 226.506078 
L 619.83366 225.728448 
L 621.638901 225.410632 
L 623.444142 224.613611 
L 625.249383 224.578745 
L 627.054624 224.832138 
L 628.859865 225.512227 
L 636.080829 225.052584 
L 637.88607 219.761165 
L 639.691311 219.121668 
L 641.496552 219.363484 
L 643.301794 219.274769 
L 645.107035 219.367414 
L 646.912276 224.474933 
L 648.717517 225.258958 
L 650.522758 225.814698 
L 652.327999 226.523809 
L 655.938481 226.844935 
L 657.743722 227.382068 
L 659.548963 227.78861 
L 661.354204 227.799529 
L 663.159445 228.016535 
L 664.964686 228.018223 
L 666.769927 227.726549 
L 668.575168 227.64715 
L 670.380409 227.692667 
L 672.18565 227.541664 
L 673.990891 227.639968 
L 675.796132 227.955054 
L 681.211855 228.223371 
L 683.017096 228.43387 
L 708.29047 228.8673 
L 726.342881 228.949229 
L 762.447701 228.952959 
L 791.331557 228.96 
L 1109.053977 228.956504 
L 1109.053977 228.956504 
" clip-path="url(#pc75d184e4d)" style="fill: none; stroke: #947383; stroke-width: 2; stroke-linecap: square"/>
   </g>
   <g id="line2d_17">
    <path d="M 204.628225 182.489713 
L 206.433466 205.724856 
L 210.043948 205.724856 
L 211.849189 228.96 
L 249.759251 228.96 
L 251.564492 205.724856 
L 258.785456 205.724856 
L 260.590697 228.96 
L 278.643107 228.96 
L 280.448348 226.747129 
L 282.253589 226.747129 
L 285.864071 225.98906 
L 287.669312 225.98906 
L 289.474553 228.20193 
L 291.279794 228.20193 
L 294.890276 228.96 
L 298.500758 228.051305 
L 300.305999 227.94273 
L 302.11124 227.542813 
L 303.916481 227.307521 
L 305.721722 227.504195 
L 309.332204 227.303322 
L 311.137445 227.412799 
L 312.942686 227.384804 
L 314.747927 227.615958 
L 316.553168 228.100023 
L 318.358409 227.655762 
L 320.163651 227.520649 
L 323.774133 227.743834 
L 325.579374 227.272533 
L 327.384615 227.808938 
L 329.189856 227.066475 
L 330.995097 227.189413 
L 332.800338 226.47291 
L 334.605579 226.622246 
L 336.41082 226.603129 
L 338.216061 227.617013 
L 340.021302 226.714677 
L 341.826543 226.675565 
L 343.631784 226.915572 
L 347.242266 226.8666 
L 349.047507 227.540018 
L 350.852748 228.054019 
L 354.46323 227.29257 
L 356.268471 226.015413 
L 358.073712 224.394226 
L 359.878953 223.9344 
L 361.684194 223.758323 
L 363.489435 223.469071 
L 365.294676 222.851671 
L 367.099917 223.952255 
L 368.905158 224.287785 
L 370.710399 224.094732 
L 372.51564 224.118051 
L 374.320881 224.947078 
L 376.126122 220.512414 
L 377.931363 220.198269 
L 379.736604 219.699953 
L 381.541845 213.819352 
L 383.347086 214.099633 
L 385.152327 218.896566 
L 386.957568 219.131928 
L 388.762809 218.344029 
L 390.56805 223.552624 
L 392.373291 222.517788 
L 394.178532 221.846223 
L 395.983773 220.859057 
L 397.789014 221.670963 
L 399.594255 219.807008 
L 401.399497 219.200312 
L 403.204738 218.214436 
L 405.009979 217.97813 
L 406.81522 217.269617 
L 408.620461 218.895194 
L 410.425702 219.241193 
L 412.230943 220.444794 
L 414.036184 220.129005 
L 415.841425 220.16794 
L 417.646666 213.522334 
L 419.451907 213.786032 
L 421.257148 212.854012 
L 423.062389 211.59845 
L 424.86763 211.926202 
L 426.672871 216.976793 
L 428.478112 216.281711 
L 430.283353 213.963584 
L 432.088594 213.67371 
L 433.893835 210.791993 
L 435.699076 208.846231 
L 437.504317 206.537895 
L 439.309558 207.66602 
L 441.114799 205.625725 
L 442.92004 207.829994 
L 444.725281 207.882065 
L 446.530522 208.271587 
L 448.335763 206.514242 
L 450.141004 208.861533 
L 451.946245 206.422288 
L 453.751486 204.823385 
L 457.361968 203.851855 
L 459.167209 204.682395 
L 460.97245 207.509254 
L 462.777691 211.704216 
L 464.582932 211.684812 
L 466.388173 212.767694 
L 468.193414 212.290147 
L 469.998655 211.065711 
L 471.803896 211.343039 
L 473.609137 211.981145 
L 475.414378 213.398637 
L 477.219619 213.133137 
L 479.02486 212.262193 
L 480.830102 212.799512 
L 482.635343 215.687636 
L 484.440584 216.659318 
L 488.051066 220.488888 
L 489.856307 220.674967 
L 491.661548 220.554891 
L 493.466789 220.816667 
L 495.27203 220.170905 
L 497.077271 221.260062 
L 498.882512 220.387129 
L 502.492994 220.899902 
L 504.298235 221.692668 
L 506.103476 221.55675 
L 507.908717 222.631382 
L 509.713958 222.768118 
L 511.519199 221.926598 
L 513.32444 220.376912 
L 516.934922 219.431736 
L 518.740163 219.737223 
L 520.545404 220.883128 
L 522.350645 222.850496 
L 524.155886 223.924406 
L 525.961127 224.811229 
L 529.571609 224.274808 
L 531.37685 223.289856 
L 533.182091 222.787177 
L 536.792573 222.923165 
L 538.597814 222.951931 
L 540.403055 223.764991 
L 542.208296 224.334423 
L 544.013537 224.312931 
L 549.42926 225.552117 
L 551.234501 224.895322 
L 553.039742 225.006582 
L 554.844983 224.581207 
L 556.650224 224.424382 
L 558.455465 223.824078 
L 560.260706 224.29613 
L 562.065948 224.493942 
L 563.871189 224.440483 
L 565.67643 223.961215 
L 567.481671 224.393811 
L 569.286912 223.876567 
L 571.092153 223.132666 
L 572.897394 221.927963 
L 574.702635 221.627146 
L 576.507876 221.671476 
L 580.118358 220.989356 
L 581.923599 222.653785 
L 583.72884 221.801317 
L 585.534081 220.536785 
L 587.339322 220.19807 
L 589.144563 220.56105 
L 590.949804 219.173954 
L 592.755045 220.146512 
L 594.560286 221.249388 
L 596.365527 221.806549 
L 598.170768 221.927779 
L 599.976009 223.444001 
L 601.78125 223.257526 
L 603.586491 221.740886 
L 607.196973 221.541578 
L 610.807455 220.356101 
L 612.612696 221.713927 
L 614.417937 221.970393 
L 618.028419 220.750866 
L 619.83366 221.769115 
L 623.444142 220.343772 
L 625.249383 221.322143 
L 627.054624 220.878277 
L 628.859865 221.043888 
L 630.665106 221.625244 
L 632.470347 222.567971 
L 634.275588 222.57539 
L 636.080829 224.457865 
L 637.88607 224.103839 
L 639.691311 224.663075 
L 641.496552 224.549729 
L 643.301794 224.977859 
L 645.107035 224.998483 
L 646.912276 225.321535 
L 650.522758 225.033582 
L 652.327999 223.657999 
L 654.13324 223.399312 
L 655.938481 222.951749 
L 657.743722 222.668465 
L 659.548963 223.480114 
L 661.354204 224.473522 
L 663.159445 224.892655 
L 664.964686 226.107757 
L 666.769927 226.471929 
L 668.575168 226.432321 
L 670.380409 226.920907 
L 672.18565 226.808681 
L 673.990891 226.275915 
L 675.796132 226.726338 
L 677.601373 226.38579 
L 679.406614 226.487111 
L 681.211855 226.795873 
L 683.017096 227.350006 
L 686.627578 226.996811 
L 688.432819 227.232765 
L 693.848542 227.57336 
L 695.653783 228.361334 
L 699.264265 228.253149 
L 701.069506 228.4562 
L 710.095711 228.653674 
L 715.511434 228.732642 
L 722.732398 228.85147 
L 735.369086 228.897863 
L 742.59005 228.96 
L 764.252942 228.800508 
L 767.863424 228.873766 
L 773.279147 228.925906 
L 863.541198 228.901399 
L 863.541198 228.901399 
" clip-path="url(#pc75d184e4d)" style="fill: none; stroke: #96c6ad; stroke-width: 2; stroke-linecap: square"/>
   </g>
   <g id="line2d_18">
    <path d="M 291.279794 227.813235 
L 293.085035 227.512701 
L 294.890276 226.97856 
L 296.695517 227.457635 
L 298.500758 227.775925 
L 300.305999 227.597878 
L 303.916481 228.781953 
L 320.163651 228.684125 
L 323.774133 228.461511 
L 332.800338 228.636022 
L 336.41082 228.653857 
L 340.021302 228.837492 
L 343.631784 228.711978 
L 349.047507 228.688536 
L 352.657989 228.717809 
L 359.878953 228.559593 
L 361.684194 228.660688 
L 374.320881 228.533777 
L 377.931363 228.539053 
L 381.541845 228.34361 
L 383.347086 228.081157 
L 385.152327 227.958553 
L 390.56805 227.960251 
L 392.373291 228.238794 
L 394.178532 228.374641 
L 401.399497 227.804349 
L 403.204738 227.658433 
L 408.620461 227.834385 
L 412.230943 227.761963 
L 414.036184 227.565486 
L 415.841425 227.529494 
L 421.257148 227.741705 
L 426.672871 227.64386 
L 428.478112 227.519605 
L 433.893835 227.676908 
L 435.699076 227.637738 
L 437.504317 227.792455 
L 446.530522 227.440507 
L 448.335763 227.266066 
L 450.141004 227.307891 
L 451.946245 227.210716 
L 459.167209 227.457271 
L 460.97245 227.411353 
L 464.582932 227.02659 
L 466.388173 226.90324 
L 477.219619 227.046744 
L 479.02486 227.156633 
L 489.856307 226.589059 
L 491.661548 226.713515 
L 495.27203 226.662055 
L 497.077271 226.918628 
L 498.882512 226.757805 
L 500.687753 226.903258 
L 504.298235 226.926591 
L 506.103476 226.79516 
L 507.908717 227.003462 
L 509.713958 226.901936 
L 511.519199 227.06434 
L 513.32444 227.026624 
L 515.129681 227.122381 
L 518.740163 227.085689 
L 520.545404 226.951838 
L 522.350645 226.930075 
L 524.155886 226.748403 
L 529.571609 226.687366 
L 533.182091 227.0477 
L 534.987332 227.049672 
L 538.597814 227.290499 
L 540.403055 227.351105 
L 544.013537 227.661419 
L 547.624019 227.648058 
L 549.42926 227.517049 
L 551.234501 227.262045 
L 558.455465 227.302088 
L 560.260706 227.349419 
L 563.871189 227.150491 
L 567.481671 227.309855 
L 571.092153 227.779243 
L 572.897394 227.854431 
L 574.702635 227.749798 
L 576.507876 227.939097 
L 578.313117 227.812872 
L 581.923599 227.977637 
L 583.72884 228.305272 
L 585.534081 228.041834 
L 590.949804 228.046751 
L 592.755045 227.980527 
L 594.560286 228.22372 
L 601.78125 228.426744 
L 607.196973 228.504297 
L 614.417937 228.787876 
L 616.223178 228.603913 
L 623.444142 228.532009 
L 625.249383 228.759566 
L 628.859865 228.811791 
L 632.470347 228.850841 
L 636.080829 228.641795 
L 650.522758 228.87976 
L 657.743722 228.859422 
L 715.511434 228.96 
L 924.919393 228.955387 
L 924.919393 228.955387 
" clip-path="url(#pc75d184e4d)" style="fill: none; stroke: #525886; stroke-width: 2; stroke-linecap: square"/>
   </g>
   <g id="line2d_19">
    <path d="M 94.508523 200.322306 
L 96.313764 209.035485 
L 98.119005 211.352049 
L 99.924246 199.992646 
L 101.729487 191.214925 
L 103.534728 185.406139 
L 105.339969 174.682227 
L 107.14521 172.669389 
L 108.950451 193.32285 
L 110.755692 204.297748 
L 112.560933 183.552084 
L 114.366174 175.141172 
L 116.171415 145.451822 
L 119.781897 90.102356 
L 121.587138 116.656806 
L 123.392379 118.365272 
L 125.19762 139.940763 
L 127.002861 155.658654 
L 128.808102 186.638846 
L 130.613343 177.702252 
L 132.418584 186.927971 
L 134.223825 184.7151 
L 136.029066 183.055447 
L 137.834307 166.969578 
L 139.639548 168.161124 
L 141.444789 160.871667 
L 143.25003 148.47959 
L 145.055271 161.756815 
L 146.860512 173.195655 
L 148.665753 175.578747 
L 150.470994 191.068843 
L 152.276235 216.838729 
L 154.081476 202.540179 
L 155.886717 204.974337 
L 157.691959 202.591246 
L 159.4972 202.591246 
L 161.302441 196.502892 
L 163.107682 198.409366 
L 164.912923 190.060808 
L 166.718164 186.652987 
L 168.523405 180.014374 
L 170.328646 188.215013 
L 172.133887 195.443724 
L 173.939128 197.444837 
L 175.744369 198.740373 
L 177.54961 176.980476 
L 179.354851 153.041237 
L 181.160092 122.887184 
L 182.965333 111.531663 
L 184.770574 121.388997 
L 186.575815 133.889776 
L 188.381056 144.920601 
L 190.186297 152.355847 
L 191.991538 144.389512 
L 193.796779 128.899417 
L 195.60202 111.604084 
L 197.407261 115.21844 
L 199.212502 115.397172 
L 201.017743 120.748296 
L 202.822984 108.356219 
L 204.628225 118.314138 
L 206.433466 99.726023 
L 208.238707 105.743329 
L 210.043948 118.98032 
L 211.849189 138.413349 
L 213.65443 136.301064 
L 215.459671 127.007006 
L 217.264912 107.689946 
L 219.070153 82.131288 
L 220.875394 90.580431 
L 222.680635 97.339745 
L 224.485876 115.92786 
L 226.291117 131.908592 
L 228.096358 137.717378 
L 229.901599 99.611743 
L 235.317322 34.166088 
L 237.122563 27.745851 
L 238.927805 26.196842 
L 240.733046 34.696535 
L 242.538287 51.112669 
L 244.343528 61.070588 
L 246.148769 57.809515 
L 247.95401 64.271098 
L 249.759251 58.373991 
L 251.564492 41.681248 
L 253.369733 40.328939 
L 255.174974 39.468378 
L 256.980215 31.170112 
L 258.785456 32.393014 
L 260.590697 34.010112 
L 262.395938 37.022075 
L 264.201179 38.850767 
L 266.00642 43.165865 
L 267.811661 45.553436 
L 269.616902 47.698219 
L 271.422143 46.407378 
L 273.227384 48.628384 
L 275.032625 45.053747 
L 276.837866 36.650818 
L 278.643107 36.208244 
L 280.448348 32.970201 
L 282.253589 26.992847 
L 284.05883 31.600157 
L 285.864071 27.832296 
L 287.669312 23.358449 
L 289.474553 20.037622 
L 291.279794 22.698871 
L 293.085035 17.76 
L 294.890276 23.121956 
L 298.500758 43.066004 
L 300.305999 41.668356 
L 302.11124 42.404488 
L 303.916481 39.107878 
L 305.721722 30.494851 
L 307.526963 26.121177 
L 309.332204 23.694237 
L 311.137445 28.787212 
L 312.942686 33.108777 
L 314.747927 34.60664 
L 316.553168 43.999048 
L 318.358409 64.93974 
L 320.163651 72.310889 
L 321.968892 85.941947 
L 323.774133 100.888675 
L 325.579374 97.898841 
L 327.384615 91.372312 
L 329.189856 93.016159 
L 330.995097 92.18317 
L 332.800338 94.40651 
L 334.605579 95.168106 
L 336.41082 99.185369 
L 338.216061 99.417387 
L 340.021302 101.104654 
L 341.826543 101.563214 
L 343.631784 95.648666 
L 345.437025 88.799944 
L 347.242266 96.653795 
L 349.047507 83.526596 
L 350.852748 74.93252 
L 352.657989 79.09886 
L 354.46323 78.327609 
L 356.268471 66.210429 
L 358.073712 82.881972 
L 359.878953 79.930516 
L 361.684194 83.292276 
L 363.489435 83.747143 
L 365.294676 79.555668 
L 367.099917 78.654162 
L 368.905158 88.499562 
L 370.710399 94.063533 
L 372.51564 111.658514 
L 374.320881 119.565176 
L 376.126122 118.424674 
L 377.931363 120.625898 
L 379.736604 127.660538 
L 381.541845 122.186475 
L 383.347086 133.064202 
L 385.152327 127.690944 
L 386.957568 117.357419 
L 388.762809 111.568758 
L 390.56805 103.784318 
L 392.373291 99.718763 
L 394.178532 104.942358 
L 395.983773 115.052117 
L 397.789014 110.617315 
L 399.594255 115.908361 
L 401.399497 112.670828 
L 403.204738 109.984551 
L 405.009979 105.273546 
L 406.81522 110.742741 
L 408.620461 117.739688 
L 412.230943 115.732616 
L 414.036184 126.754723 
L 415.841425 127.076926 
L 417.646666 127.018252 
L 419.451907 136.756057 
L 421.257148 150.048721 
L 423.062389 144.790832 
L 424.86763 145.754626 
L 426.672871 137.134106 
L 428.478112 130.844554 
L 430.283353 119.488153 
L 432.088594 109.881498 
L 435.699076 106.838677 
L 437.504317 105.643832 
L 439.309558 110.108194 
L 441.114799 110.149294 
L 442.92004 108.512786 
L 444.725281 113.795657 
L 446.530522 117.20663 
L 448.335763 114.230132 
L 450.141004 120.765016 
L 451.946245 121.747585 
L 453.751486 120.188294 
L 455.556727 116.8339 
L 457.361968 128.438463 
L 459.167209 134.17891 
L 460.97245 134.543421 
L 462.777691 142.288469 
L 464.582932 131.802479 
L 466.388173 126.304639 
L 468.193414 114.88449 
L 469.998655 126.721261 
L 471.803896 118.307323 
L 473.609137 135.688738 
L 475.414378 143.31615 
L 477.219619 147.629078 
L 479.02486 133.910114 
L 480.830102 134.04245 
L 482.635343 126.219128 
L 484.440584 116.95582 
L 486.245825 111.683981 
L 488.051066 114.278572 
L 489.856307 116.076361 
L 491.661548 109.061135 
L 493.466789 100.9367 
L 495.27203 114.624176 
L 497.077271 117.796667 
L 498.882512 115.609394 
L 500.687753 120.591545 
L 502.492994 125.149767 
L 504.298235 122.039063 
L 506.103476 114.712978 
L 507.908717 113.982696 
L 509.713958 112.646675 
L 511.519199 113.531676 
L 513.32444 106.689123 
L 515.129681 108.783238 
L 516.934922 103.672227 
L 518.740163 108.247763 
L 520.545404 117.738055 
L 524.155886 121.03106 
L 525.961127 123.458494 
L 527.766368 114.700632 
L 529.571609 100.325594 
L 531.37685 101.053476 
L 533.182091 96.815115 
L 534.987332 96.346991 
L 536.792573 101.205248 
L 538.597814 106.629719 
L 540.403055 108.087196 
L 542.208296 102.976178 
L 544.013537 105.299076 
L 545.818778 106.61015 
L 547.624019 101.835008 
L 549.42926 92.607336 
L 551.234501 99.467236 
L 553.039742 100.582808 
L 554.844983 100.277585 
L 556.650224 96.359306 
L 558.455465 103.047215 
L 560.260706 111.950401 
L 562.065948 110.523129 
L 563.871189 113.329697 
L 565.67643 126.345455 
L 567.481671 122.399581 
L 569.286912 122.180237 
L 571.092153 132.012784 
L 572.897394 129.597724 
L 574.702635 120.296428 
L 576.507876 132.877237 
L 578.313117 131.871962 
L 580.118358 131.721875 
L 581.923599 133.899154 
L 583.72884 144.108535 
L 585.534081 141.308529 
L 587.339322 139.899763 
L 589.144563 137.504605 
L 590.949804 141.782701 
L 592.755045 137.037291 
L 594.560286 139.424346 
L 596.365527 148.275829 
L 598.170768 152.106043 
L 599.976009 157.478056 
L 601.78125 163.355046 
L 603.586491 170.52698 
L 605.391732 168.713096 
L 607.196973 171.275531 
L 609.002214 176.523912 
L 610.807455 183.977124 
L 612.612696 182.211742 
L 616.223178 187.912703 
L 618.028419 178.556575 
L 619.83366 180.518013 
L 621.638901 185.258284 
L 623.444142 182.629787 
L 625.249383 183.79257 
L 627.054624 194.977656 
L 628.859865 194.079026 
L 630.665106 183.95919 
L 632.470347 188.000745 
L 634.275588 189.074047 
L 637.88607 191.569875 
L 639.691311 206.496815 
L 641.496552 209.473474 
L 643.301794 201.74842 
L 645.107035 202.188844 
L 646.912276 201.206871 
L 648.717517 197.22467 
L 650.522758 192.834954 
L 652.327999 200.539339 
L 654.13324 197.633275 
L 655.938481 189.387211 
L 657.743722 192.030135 
L 659.548963 190.057712 
L 661.354204 185.911459 
L 663.159445 184.414517 
L 664.964686 189.582395 
L 666.769927 190.570816 
L 668.575168 188.77126 
L 670.380409 196.550256 
L 672.18565 199.472915 
L 673.990891 206.082877 
L 675.796132 205.063212 
L 677.601373 213.190361 
L 679.406614 213.336117 
L 681.211855 216.293957 
L 683.017096 217.180206 
L 684.822337 218.540669 
L 686.627578 218.266514 
L 688.432819 214.953317 
L 690.23806 216.817865 
L 692.043301 217.06142 
L 693.848542 211.509724 
L 695.653783 210.333542 
L 697.459024 212.041245 
L 699.264265 209.960486 
L 701.069506 209.675291 
L 702.874747 215.022706 
L 704.679988 215.606209 
L 706.485229 215.13626 
L 708.29047 216.768753 
L 710.095711 218.059594 
L 711.900952 218.149305 
L 713.706193 219.154251 
L 715.511434 219.414855 
L 717.316675 218.721745 
L 719.121916 216.207349 
L 720.927157 216.64367 
L 722.732398 218.052498 
L 724.53764 220.264476 
L 726.342881 219.983292 
L 728.148122 222.985256 
L 729.953363 223.056284 
L 731.758604 222.54224 
L 733.563845 222.474673 
L 735.369086 223.193137 
L 737.174327 221.277441 
L 738.979568 222.075149 
L 740.784809 222.315839 
L 742.59005 223.466608 
L 744.395291 222.925963 
L 746.200532 225.035121 
L 748.005773 224.948204 
L 749.811014 225.882696 
L 751.616255 224.318241 
L 753.421496 225.562981 
L 755.226737 225.732043 
L 757.031978 226.093972 
L 758.837219 225.639416 
L 760.64246 226.918788 
L 762.447701 226.598303 
L 764.252942 227.080694 
L 767.863424 227.466752 
L 769.668665 227.924588 
L 773.279147 227.937322 
L 775.084388 226.562462 
L 776.889629 227.277389 
L 778.69487 227.277389 
L 780.500111 227.585139 
L 782.305352 226.603373 
L 784.110593 227.978233 
L 785.915834 226.559293 
L 787.721075 226.136836 
L 789.526316 225.260038 
L 791.331557 225.018903 
L 793.136798 225.018903 
L 794.942039 226.437843 
L 796.74728 226.8603 
L 798.552521 227.737098 
L 800.357762 228.96 
L 803.968245 226.265504 
L 805.773486 219.193939 
L 807.578727 217.007102 
L 809.383968 212.739422 
L 811.189209 212.638713 
L 812.99445 212.107624 
L 814.799691 216.445643 
L 816.604932 217.499058 
L 818.410173 221.766738 
L 820.215414 222.645989 
L 822.020655 223.958091 
L 823.825896 226.691638 
L 825.631137 225.888797 
L 827.436378 225.888797 
L 831.04686 227.023738 
L 836.462583 227.125647 
L 838.267824 226.363839 
L 841.878306 226.363839 
L 843.683547 228.198192 
L 845.488788 227.448671 
L 847.294029 228.210479 
L 852.709752 228.210479 
L 854.514993 228.96 
L 858.125475 228.96 
L 859.930716 228.371769 
L 861.735957 227.964134 
L 867.15168 227.964134 
L 868.956921 228.552366 
L 870.762162 228.96 
L 876.177885 228.96 
L 877.983126 228.172368 
L 879.788367 228.172368 
L 881.593608 227.864618 
L 885.204091 227.864618 
L 887.009332 228.65225 
L 888.814573 228.65225 
L 890.619814 228.96 
L 906.866983 228.96 
L 908.672224 228.805614 
L 910.477465 228.805614 
L 912.282706 228.662187 
L 915.893188 228.662187 
L 917.698429 228.816573 
L 919.50367 228.816573 
L 921.308911 228.96 
L 975.466142 228.96 
L 977.271383 228.746834 
L 984.492347 228.746834 
L 986.297588 228.96 
L 1044.0653 228.96 
L 1045.870541 228.35649 
L 1053.091506 228.35649 
L 1054.896747 228.96 
L 1056.701988 226.939553 
L 1063.922952 226.939553 
L 1065.728193 228.96 
L 1069.338675 228.96 
L 1071.143916 227.357576 
L 1071.143916 227.357576 
" clip-path="url(#pc75d184e4d)" style="fill: none; stroke: #937252; stroke-width: 2; stroke-linecap: square"/>
   </g>
   <g id="line2d_20">
    <path d="M 414.036184 220.698616 
L 415.841425 223.796635 
L 417.646666 228.96 
L 423.062389 228.96 
L 424.86763 226.378317 
L 426.672871 226.378317 
L 428.478112 226.19169 
L 430.283353 225.736099 
L 432.088594 225.736099 
L 433.893835 228.317781 
L 435.699076 228.317781 
L 437.504317 228.504409 
L 439.309558 228.96 
L 444.725281 228.96 
L 446.530522 228.314579 
L 448.335763 227.469665 
L 450.141004 227.469665 
L 451.946245 227.287785 
L 453.751486 227.287785 
L 455.556727 227.933206 
L 457.361968 228.77812 
L 459.167209 228.77812 
L 460.97245 228.96 
L 466.388173 228.96 
L 468.193414 228.703258 
L 477.219619 228.742849 
L 479.02486 228.477305 
L 484.440584 228.477305 
L 486.245825 227.900092 
L 488.051066 228.165636 
L 493.466789 228.165636 
L 495.27203 228.96 
L 509.713958 228.96 
L 511.519199 228.591188 
L 518.740163 228.591188 
L 520.545404 228.96 
L 560.260706 228.96 
L 562.065948 228.525698 
L 569.286912 228.525698 
L 571.092153 228.96 
L 710.095711 228.881635 
L 710.095711 228.881635 
" clip-path="url(#pc75d184e4d)" style="fill: none; stroke: #d18cad; stroke-width: 2; stroke-linecap: square"/>
   </g>
   <g id="line2d_21">
    <path d="M 303.916481 220.959621 
L 305.721722 223.082062 
L 309.332204 223.082062 
L 311.137445 227.507804 
L 312.942686 212.017708 
L 314.747927 213.469904 
L 316.553168 206.13249 
L 318.358409 206.13249 
L 320.163651 201.240881 
L 321.968892 213.632958 
L 323.774133 213.632958 
L 325.579374 215.161586 
L 327.384615 203.544014 
L 329.189856 208.435623 
L 330.995097 201.206912 
L 332.800338 195.739819 
L 334.605579 201.548605 
L 336.41082 194.578062 
L 338.216061 190.705538 
L 340.021302 201.032269 
L 341.826543 206.499361 
L 343.631784 206.499361 
L 345.437025 221.512839 
L 347.242266 225.385363 
L 349.047507 216.091305 
L 350.852748 192.856161 
L 352.657989 174.268047 
L 354.46323 170.097636 
L 356.268471 163.459024 
L 358.073712 172.753081 
L 359.878953 195.988225 
L 361.684194 214.57634 
L 363.489435 222.321388 
L 365.294676 228.96 
L 367.099917 224.735428 
L 368.905158 224.735428 
L 370.710399 215.441371 
L 372.51564 215.441371 
L 374.320881 199.951275 
L 376.126122 204.175847 
L 377.931363 204.175847 
L 379.736604 197.979809 
L 381.541845 197.979809 
L 383.347086 213.469904 
L 386.957568 213.469904 
L 388.762809 228.96 
L 395.983773 228.96 
L 397.789014 213.469904 
L 399.594255 213.469904 
L 401.399497 205.724856 
L 405.009979 205.724856 
L 406.81522 221.214952 
L 408.620461 221.214952 
L 410.425702 228.96 
L 414.036184 228.96 
L 415.841425 221.214952 
L 417.646666 215.74786 
L 421.257148 215.74786 
L 423.062389 209.109247 
L 424.86763 216.854295 
L 426.672871 218.096816 
L 428.478112 212.933451 
L 430.283353 212.933451 
L 432.088594 219.572063 
L 433.893835 219.572063 
L 435.699076 223.796635 
L 437.504317 228.96 
L 439.309558 224.735428 
L 441.114799 224.735428 
L 442.92004 220.0884 
L 444.725281 216.513762 
L 446.530522 206.187032 
L 448.335763 210.411603 
L 450.141004 210.411603 
L 451.946245 215.058632 
L 453.751486 207.015698 
L 455.556727 213.117857 
L 457.361968 213.117857 
L 459.167209 197.627761 
L 460.97245 193.403189 
L 462.777691 205.020761 
L 464.582932 202.908475 
L 466.388173 202.908475 
L 468.193414 210.653523 
L 469.998655 214.878095 
L 471.803896 214.878095 
L 473.609137 217.640315 
L 475.414378 206.022743 
L 477.219619 210.193153 
L 479.02486 204.384367 
L 480.830102 204.384367 
L 482.635343 207.959005 
L 484.440584 211.831529 
L 486.245825 207.661118 
L 488.051066 201.852332 
L 489.856307 201.852332 
L 491.661548 193.403189 
L 493.466789 201.148237 
L 495.27203 200.692646 
L 497.077271 212.310218 
L 498.882512 208.592595 
L 500.687753 210.403126 
L 502.492994 210.403126 
L 504.298235 217.470343 
L 506.103476 215.146829 
L 507.908717 218.864452 
L 511.519199 218.864452 
L 513.32444 218.061611 
L 515.129681 218.364678 
L 516.934922 216.252393 
L 520.545404 216.252393 
L 522.350645 218.188654 
L 524.155886 216.336578 
L 525.961127 218.448864 
L 527.766368 225.087476 
L 531.37685 225.087476 
L 533.182091 228.96 
L 538.597814 228.96 
L 540.403055 218.63327 
L 547.624019 218.63327 
L 549.42926 228.96 
L 551.234501 228.96 
L 553.039742 217.342428 
L 554.844983 208.048371 
L 556.650224 208.048371 
L 558.455465 192.558275 
L 560.260706 192.558275 
L 562.065948 204.175847 
L 563.871189 206.831292 
L 565.67643 206.831292 
L 567.481671 222.321388 
L 571.092153 222.321388 
L 572.897394 225.385363 
L 580.118358 225.385363 
L 581.923599 228.96 
L 585.534081 228.96 
L 587.339322 225.861981 
L 589.144563 225.861981 
L 590.949804 222.763962 
L 592.755045 212.437231 
L 594.560286 212.437231 
L 596.365527 200.045155 
L 598.170768 200.045155 
L 599.976009 195.398126 
L 601.78125 196.430799 
L 603.586491 196.430799 
L 605.391732 208.346257 
L 607.196973 202.150219 
L 609.002214 200.601209 
L 610.807455 209.895267 
L 612.612696 209.895267 
L 614.417937 213.469904 
L 616.223178 219.665943 
L 618.028419 228.96 
L 619.83366 228.96 
L 621.638901 227.357576 
L 623.444142 226.301433 
L 625.249383 226.301433 
L 627.054624 224.514115 
L 628.859865 220.845408 
L 630.665106 222.447831 
L 632.470347 222.281072 
L 632.470347 222.281072 
" clip-path="url(#pc75d184e4d)" style="fill: none; stroke: #a4a86f; stroke-width: 2; stroke-linecap: square"/>
   </g>
   <g id="line2d_22">
    <path d="M 275.032625 228.771562 
L 284.05883 228.671605 
L 287.669312 228.777142 
L 302.11124 228.19374 
L 305.721722 228.365784 
L 307.526963 228.042461 
L 309.332204 228.286894 
L 311.137445 228.343127 
L 314.747927 228.168091 
L 316.553168 228.524605 
L 321.968892 228.567229 
L 323.774133 228.684056 
L 329.189856 228.478528 
L 334.605579 228.365303 
L 347.242266 228.501843 
L 354.46323 228.649792 
L 365.294676 228.757514 
L 368.905158 228.570374 
L 370.710399 228.480515 
L 372.51564 228.573409 
L 374.320881 228.45972 
L 376.126122 228.56425 
L 383.347086 228.494065 
L 388.762809 228.665975 
L 392.373291 228.685105 
L 403.204738 228.666434 
L 406.81522 228.548053 
L 415.841425 228.560519 
L 419.451907 228.295679 
L 424.86763 228.298211 
L 426.672871 228.575249 
L 430.283353 228.671946 
L 433.893835 228.489508 
L 439.309558 228.074774 
L 441.114799 228.173459 
L 451.946245 227.981296 
L 453.751486 228.081628 
L 455.556727 227.947205 
L 460.97245 228.060793 
L 462.777691 227.929477 
L 464.582932 228.052753 
L 468.193414 228.015343 
L 469.998655 227.90338 
L 471.803896 227.911975 
L 475.414378 227.689411 
L 479.02486 227.572783 
L 480.830102 227.231122 
L 482.635343 227.054568 
L 484.440584 227.003415 
L 486.245825 226.813572 
L 491.661548 227.401197 
L 493.466789 227.384843 
L 495.27203 227.569282 
L 497.077271 226.956074 
L 498.882512 227.048391 
L 502.492994 227.02269 
L 504.298235 226.797881 
L 506.103476 227.242255 
L 507.908717 227.342323 
L 509.713958 227.326869 
L 513.32444 227.463982 
L 515.129681 227.336044 
L 516.934922 226.819266 
L 518.740163 226.99814 
L 520.545404 227.007446 
L 522.350645 227.182248 
L 524.155886 227.094739 
L 525.961127 227.299815 
L 527.766368 227.286744 
L 534.987332 227.912474 
L 536.792573 227.684471 
L 538.597814 227.616903 
L 540.403055 227.707639 
L 544.013537 227.706076 
L 545.818778 228.150936 
L 554.844983 228.702852 
L 565.67643 228.651767 
L 567.481671 228.497953 
L 574.702635 228.6523 
L 576.507876 228.869903 
L 594.560286 228.833284 
L 599.976009 228.697065 
L 605.391732 228.845822 
L 607.196973 228.96 
L 623.444142 228.899696 
L 645.107035 228.96 
L 901.45126 228.955193 
L 901.45126 228.955193 
" clip-path="url(#pc75d184e4d)" style="fill: none; stroke: #d3d3d3; stroke-width: 2; stroke-linecap: square"/>
   </g>
   <g id="patch_3">
    <path d="M 43.78125 228.96 
L 43.78125 7.2 
" style="fill: none; stroke: #000000; stroke-width: 0.8; stroke-linejoin: miter; stroke-linecap: square"/>
   </g>
   <g id="patch_4">
    <path d="M 43.78125 228.96 
L 1159.78125 228.96 
" style="fill: none; stroke: #000000; stroke-width: 0.8; stroke-linejoin: miter; stroke-linecap: square"/>
   </g>
   <g id="legend_1">
    <g id="line2d_23">
     <path d="M 1065.97 17.67875 
L 1073.97 17.67875 
L 1081.97 17.67875 
" style="fill: none; stroke: #947383; stroke-width: 2; stroke-linecap: square"/>
    </g>
    <g id="text_18">
     <!-- Europe -->
     <g transform="translate(1088.37 20.47875)scale(0.08 -0.08)">
      <defs>
       <path id="DejaVuSans-45" d="M 628 4666 
L 3578 4666 
L 3578 4134 
L 1259 4134 
L 1259 2753 
L 3481 2753 
L 3481 2222 
L 1259 2222 
L 1259 531 
L 3634 531 
L 3634 0 
L 628 0 
L 628 4666 
z
" transform="scale(0.015625)"/>
       <path id="DejaVuSans-70" d="M 1159 525 
L 1159 -1331 
L 581 -1331 
L 581 3500 
L 1159 3500 
L 1159 2969 
Q 1341 3281 1617 3432 
Q 1894 3584 2278 3584 
Q 2916 3584 3314 3078 
Q 3713 2572 3713 1747 
Q 3713 922 3314 415 
Q 2916 -91 2278 -91 
Q 1894 -91 1617 61 
Q 1341 213 1159 525 
z
M 3116 1747 
Q 3116 2381 2855 2742 
Q 2594 3103 2138 3103 
Q 1681 3103 1420 2742 
Q 1159 2381 1159 1747 
Q 1159 1113 1420 752 
Q 1681 391 2138 391 
Q 2594 391 2855 752 
Q 3116 1113 3116 1747 
z
" transform="scale(0.015625)"/>
      </defs>
      <use xlink:href="#DejaVuSans-45"/>
      <use xlink:href="#DejaVuSans-75" x="63.183594"/>
      <use xlink:href="#DejaVuSans-72" x="126.5625"/>
      <use xlink:href="#DejaVuSans-6f" x="165.425781"/>
      <use xlink:href="#DejaVuSans-70" x="226.607422"/>
      <use xlink:href="#DejaVuSans-65" x="290.083984"/>
     </g>
    </g>
    <g id="line2d_24">
     <path d="M 1065.97 29.42125 
L 1073.97 29.42125 
L 1081.97 29.42125 
" style="fill: none; stroke: #96c6ad; stroke-width: 2; stroke-linecap: square"/>
    </g>
    <g id="text_19">
     <!-- Asia -->
     <g transform="translate(1088.37 32.22125)scale(0.08 -0.08)">
      <defs>
       <path id="DejaVuSans-41" d="M 2188 4044 
L 1331 1722 
L 3047 1722 
L 2188 4044 
z
M 1831 4666 
L 2547 4666 
L 4325 0 
L 3669 0 
L 3244 1197 
L 1141 1197 
L 716 0 
L 50 0 
L 1831 4666 
z
" transform="scale(0.015625)"/>
       <path id="DejaVuSans-73" d="M 2834 3397 
L 2834 2853 
Q 2591 2978 2328 3040 
Q 2066 3103 1784 3103 
Q 1356 3103 1142 2972 
Q 928 2841 928 2578 
Q 928 2378 1081 2264 
Q 1234 2150 1697 2047 
L 1894 2003 
Q 2506 1872 2764 1633 
Q 3022 1394 3022 966 
Q 3022 478 2636 193 
Q 2250 -91 1575 -91 
Q 1294 -91 989 -36 
Q 684 19 347 128 
L 347 722 
Q 666 556 975 473 
Q 1284 391 1588 391 
Q 1994 391 2212 530 
Q 2431 669 2431 922 
Q 2431 1156 2273 1281 
Q 2116 1406 1581 1522 
L 1381 1569 
Q 847 1681 609 1914 
Q 372 2147 372 2553 
Q 372 3047 722 3315 
Q 1072 3584 1716 3584 
Q 2034 3584 2315 3537 
Q 2597 3491 2834 3397 
z
" transform="scale(0.015625)"/>
      </defs>
      <use xlink:href="#DejaVuSans-41"/>
      <use xlink:href="#DejaVuSans-73" x="68.408203"/>
      <use xlink:href="#DejaVuSans-69" x="120.507812"/>
      <use xlink:href="#DejaVuSans-61" x="148.291016"/>
     </g>
    </g>
    <g id="line2d_25">
     <path d="M 1065.97 41.16375 
L 1073.97 41.16375 
L 1081.97 41.16375 
" style="fill: none; stroke: #525886; stroke-width: 2; stroke-linecap: square"/>
    </g>
    <g id="text_20">
     <!-- North America -->
     <g transform="translate(1088.37 43.96375)scale(0.08 -0.08)">
      <defs>
       <path id="DejaVuSans-4e" d="M 628 4666 
L 1478 4666 
L 3547 763 
L 3547 4666 
L 4159 4666 
L 4159 0 
L 3309 0 
L 1241 3903 
L 1241 0 
L 628 0 
L 628 4666 
z
" transform="scale(0.015625)"/>
       <path id="DejaVuSans-68" d="M 3513 2113 
L 3513 0 
L 2938 0 
L 2938 2094 
Q 2938 2591 2744 2837 
Q 2550 3084 2163 3084 
Q 1697 3084 1428 2787 
Q 1159 2491 1159 1978 
L 1159 0 
L 581 0 
L 581 4863 
L 1159 4863 
L 1159 2956 
Q 1366 3272 1645 3428 
Q 1925 3584 2291 3584 
Q 2894 3584 3203 3211 
Q 3513 2838 3513 2113 
z
" transform="scale(0.015625)"/>
       <path id="DejaVuSans-6d" d="M 3328 2828 
Q 3544 3216 3844 3400 
Q 4144 3584 4550 3584 
Q 5097 3584 5394 3201 
Q 5691 2819 5691 2113 
L 5691 0 
L 5113 0 
L 5113 2094 
Q 5113 2597 4934 2840 
Q 4756 3084 4391 3084 
Q 3944 3084 3684 2787 
Q 3425 2491 3425 1978 
L 3425 0 
L 2847 0 
L 2847 2094 
Q 2847 2600 2669 2842 
Q 2491 3084 2119 3084 
Q 1678 3084 1418 2786 
Q 1159 2488 1159 1978 
L 1159 0 
L 581 0 
L 581 3500 
L 1159 3500 
L 1159 2956 
Q 1356 3278 1631 3431 
Q 1906 3584 2284 3584 
Q 2666 3584 2933 3390 
Q 3200 3197 3328 2828 
z
" transform="scale(0.015625)"/>
      </defs>
      <use xlink:href="#DejaVuSans-4e"/>
      <use xlink:href="#DejaVuSans-6f" x="74.804688"/>
      <use xlink:href="#DejaVuSans-72" x="135.986328"/>
      <use xlink:href="#DejaVuSans-74" x="177.099609"/>
      <use xlink:href="#DejaVuSans-68" x="216.308594"/>
      <use xlink:href="#DejaVuSans-20" x="279.6875"/>
      <use xlink:href="#DejaVuSans-41" x="311.474609"/>
      <use xlink:href="#DejaVuSans-6d" x="379.882812"/>
      <use xlink:href="#DejaVuSans-65" x="477.294922"/>
      <use xlink:href="#DejaVuSans-72" x="538.818359"/>
      <use xlink:href="#DejaVuSans-69" x="579.931641"/>
      <use xlink:href="#DejaVuSans-63" x="607.714844"/>
      <use xlink:href="#DejaVuSans-61" x="662.695312"/>
     </g>
    </g>
    <g id="line2d_26">
     <path d="M 1065.97 52.90625 
L 1073.97 52.90625 
L 1081.97 52.90625 
" style="fill: none; stroke: #937252; stroke-width: 2; stroke-linecap: square"/>
    </g>
    <g id="text_21">
     <!-- Africa -->
     <g transform="translate(1088.37 55.70625)scale(0.08 -0.08)">
      <defs>
       <path id="DejaVuSans-66" d="M 2375 4863 
L 2375 4384 
L 1825 4384 
Q 1516 4384 1395 4259 
Q 1275 4134 1275 3809 
L 1275 3500 
L 2222 3500 
L 2222 3053 
L 1275 3053 
L 1275 0 
L 697 0 
L 697 3053 
L 147 3053 
L 147 3500 
L 697 3500 
L 697 3744 
Q 697 4328 969 4595 
Q 1241 4863 1831 4863 
L 2375 4863 
z
" transform="scale(0.015625)"/>
      </defs>
      <use xlink:href="#DejaVuSans-41"/>
      <use xlink:href="#DejaVuSans-66" x="64.783203"/>
      <use xlink:href="#DejaVuSans-72" x="99.988281"/>
      <use xlink:href="#DejaVuSans-69" x="141.101562"/>
      <use xlink:href="#DejaVuSans-63" x="168.884766"/>
      <use xlink:href="#DejaVuSans-61" x="223.865234"/>
     </g>
    </g>
    <g id="line2d_27">
     <path d="M 1065.97 64.64875 
L 1073.97 64.64875 
L 1081.97 64.64875 
" style="fill: none; stroke: #d18cad; stroke-width: 2; stroke-linecap: square"/>
    </g>
    <g id="text_22">
     <!-- South America -->
     <g transform="translate(1088.37 67.44875)scale(0.08 -0.08)">
      <defs>
       <path id="DejaVuSans-53" d="M 3425 4513 
L 3425 3897 
Q 3066 4069 2747 4153 
Q 2428 4238 2131 4238 
Q 1616 4238 1336 4038 
Q 1056 3838 1056 3469 
Q 1056 3159 1242 3001 
Q 1428 2844 1947 2747 
L 2328 2669 
Q 3034 2534 3370 2195 
Q 3706 1856 3706 1288 
Q 3706 609 3251 259 
Q 2797 -91 1919 -91 
Q 1588 -91 1214 -16 
Q 841 59 441 206 
L 441 856 
Q 825 641 1194 531 
Q 1563 422 1919 422 
Q 2459 422 2753 634 
Q 3047 847 3047 1241 
Q 3047 1584 2836 1778 
Q 2625 1972 2144 2069 
L 1759 2144 
Q 1053 2284 737 2584 
Q 422 2884 422 3419 
Q 422 4038 858 4394 
Q 1294 4750 2059 4750 
Q 2388 4750 2728 4690 
Q 3069 4631 3425 4513 
z
" transform="scale(0.015625)"/>
      </defs>
      <use xlink:href="#DejaVuSans-53"/>
      <use xlink:href="#DejaVuSans-6f" x="63.476562"/>
      <use xlink:href="#DejaVuSans-75" x="124.658203"/>
      <use xlink:href="#DejaVuSans-74" x="188.037109"/>
      <use xlink:href="#DejaVuSans-68" x="227.246094"/>
      <use xlink:href="#DejaVuSans-20" x="290.625"/>
      <use xlink:href="#DejaVuSans-41" x="322.412109"/>
      <use xlink:href="#DejaVuSans-6d" x="390.820312"/>
      <use xlink:href="#DejaVuSans-65" x="488.232422"/>
      <use xlink:href="#DejaVuSans-72" x="549.755859"/>
      <use xlink:href="#DejaVuSans-69" x="590.869141"/>
      <use xlink:href="#DejaVuSans-63" x="618.652344"/>
      <use xlink:href="#DejaVuSans-61" x="673.632812"/>
     </g>
    </g>
    <g id="line2d_28">
     <path d="M 1065.97 76.39125 
L 1073.97 76.39125 
L 1081.97 76.39125 
" style="fill: none; stroke: #a4a86f; stroke-width: 2; stroke-linecap: square"/>
    </g>
    <g id="text_23">
     <!-- Oceania -->
     <g transform="translate(1088.37 79.19125)scale(0.08 -0.08)">
      <defs>
       <path id="DejaVuSans-4f" d="M 2522 4238 
Q 1834 4238 1429 3725 
Q 1025 3213 1025 2328 
Q 1025 1447 1429 934 
Q 1834 422 2522 422 
Q 3209 422 3611 934 
Q 4013 1447 4013 2328 
Q 4013 3213 3611 3725 
Q 3209 4238 2522 4238 
z
M 2522 4750 
Q 3503 4750 4090 4092 
Q 4678 3434 4678 2328 
Q 4678 1225 4090 567 
Q 3503 -91 2522 -91 
Q 1538 -91 948 565 
Q 359 1222 359 2328 
Q 359 3434 948 4092 
Q 1538 4750 2522 4750 
z
" transform="scale(0.015625)"/>
      </defs>
      <use xlink:href="#DejaVuSans-4f"/>
      <use xlink:href="#DejaVuSans-63" x="78.710938"/>
      <use xlink:href="#DejaVuSans-65" x="133.691406"/>
      <use xlink:href="#DejaVuSans-61" x="195.214844"/>
      <use xlink:href="#DejaVuSans-6e" x="256.494141"/>
      <use xlink:href="#DejaVuSans-69" x="319.873047"/>
      <use xlink:href="#DejaVuSans-61" x="347.65625"/>
     </g>
    </g>
    <g id="line2d_29">
     <path d="M 1065.97 88.13375 
L 1073.97 88.13375 
L 1081.97 88.13375 
" style="fill: none; stroke: #d3d3d3; stroke-width: 2; stroke-linecap: square"/>
    </g>
    <g id="text_24">
     <!-- United Kingdom -->
     <g transform="translate(1088.37 90.93375)scale(0.08 -0.08)">
      <defs>
       <path id="DejaVuSans-55" d="M 556 4666 
L 1191 4666 
L 1191 1831 
Q 1191 1081 1462 751 
Q 1734 422 2344 422 
Q 2950 422 3222 751 
Q 3494 1081 3494 1831 
L 3494 4666 
L 4128 4666 
L 4128 1753 
Q 4128 841 3676 375 
Q 3225 -91 2344 -91 
Q 1459 -91 1007 375 
Q 556 841 556 1753 
L 556 4666 
z
" transform="scale(0.015625)"/>
       <path id="DejaVuSans-4b" d="M 628 4666 
L 1259 4666 
L 1259 2694 
L 3353 4666 
L 4166 4666 
L 1850 2491 
L 4331 0 
L 3500 0 
L 1259 2247 
L 1259 0 
L 628 0 
L 628 4666 
z
" transform="scale(0.015625)"/>
      </defs>
      <use xlink:href="#DejaVuSans-55"/>
      <use xlink:href="#DejaVuSans-6e" x="73.193359"/>
      <use xlink:href="#DejaVuSans-69" x="136.572266"/>
      <use xlink:href="#DejaVuSans-74" x="164.355469"/>
      <use xlink:href="#DejaVuSans-65" x="203.564453"/>
      <use xlink:href="#DejaVuSans-64" x="265.087891"/>
      <use xlink:href="#DejaVuSans-20" x="328.564453"/>
      <use xlink:href="#DejaVuSans-4b" x="360.351562"/>
      <use xlink:href="#DejaVuSans-69" x="425.927734"/>
      <use xlink:href="#DejaVuSans-6e" x="453.710938"/>
      <use xlink:href="#DejaVuSans-67" x="517.089844"/>
      <use xlink:href="#DejaVuSans-64" x="580.566406"/>
      <use xlink:href="#DejaVuSans-6f" x="644.042969"/>
      <use xlink:href="#DejaVuSans-6d" x="705.224609"/>
     </g>
    </g>
   </g>
  </g>
 </g>
 <defs>
  <clipPath id="pc75d184e4d">
   <rect x="43.78125" y="7.2" width="1116" height="221.76"/>
  </clipPath>
 </defs>
</svg>
