<?xml version="1.0" encoding="utf-8" standalone="no"?>
<!DOCTYPE svg PUBLIC "-//W3C//DTD SVG 1.1//EN"
  "http://www.w3.org/Graphics/SVG/1.1/DTD/svg11.dtd">
<svg height="299.811871pt" version="1.1" viewBox="0 0 1166.98125 299.811871" width="1166.98125pt" xmlns="http://www.w3.org/2000/svg" xmlns:xlink="http://www.w3.org/1999/xlink">
 <metadata>
  <rdf:RDF xmlns:cc="http://creativecommons.org/ns#" xmlns:dc="http://purl.org/dc/elements/1.1/" xmlns:rdf="http://www.w3.org/1999/02/22-rdf-syntax-ns#">
   <cc:Work>
    <dc:type rdf:resource="http://purl.org/dc/dcmitype/StillImage"/>
    <dc:date>2021-09-08T10:34:54.230227</dc:date>
    <dc:format>image/svg+xml</dc:format>
    <dc:creator>
     <cc:Agent>
      <dc:title>Matplotlib v3.4.2, https://matplotlib.org/</dc:title>
     </cc:Agent>
    </dc:creator>
   </cc:Work>
  </rdf:RDF>
 </metadata>
 <defs>
  <style type="text/css">*{stroke-linecap:butt;stroke-linejoin:round;}</style>
 </defs>
 <g id="figure_1">
  <g id="patch_1">
   <path d="M 0 299.811871 
L 1166.98125 299.811871 
L 1166.98125 0 
L 0 0 
z
" style="fill:#ffffff;"/>
  </g>
  <g id="axes_1">
   <g id="patch_2">
    <path d="M 43.78125 230.150934 
L 1159.78125 230.150934 
L 1159.78125 8.390934 
L 43.78125 8.390934 
z
" style="fill:#ffffff;"/>
   </g>
   <g id="matplotlib.axis_1">
    <g id="xtick_1">
     <g id="line2d_1">
      <defs>
       <path d="M 0 0 
L 0 3.5 
" id="md6683aa95d" style="stroke:#000000;stroke-width:0.8;"/>
      </defs>
      <g>
       <use style="stroke:#000000;stroke-width:0.8;" x="82.098181" xlink:href="#md6683aa95d" y="230.150934"/>
      </g>
     </g>
     <g id="text_1">
      <!-- 2020-10 -->
      <g transform="translate(84.857556 278.933746)rotate(-90)scale(0.1 -0.1)">
       <defs>
        <path d="M 1228 531 
L 3431 531 
L 3431 0 
L 469 0 
L 469 531 
Q 828 903 1448 1529 
Q 2069 2156 2228 2338 
Q 2531 2678 2651 2914 
Q 2772 3150 2772 3378 
Q 2772 3750 2511 3984 
Q 2250 4219 1831 4219 
Q 1534 4219 1204 4116 
Q 875 4013 500 3803 
L 500 4441 
Q 881 4594 1212 4672 
Q 1544 4750 1819 4750 
Q 2544 4750 2975 4387 
Q 3406 4025 3406 3419 
Q 3406 3131 3298 2873 
Q 3191 2616 2906 2266 
Q 2828 2175 2409 1742 
Q 1991 1309 1228 531 
z
" id="DejaVuSans-32" transform="scale(0.015625)"/>
        <path d="M 2034 4250 
Q 1547 4250 1301 3770 
Q 1056 3291 1056 2328 
Q 1056 1369 1301 889 
Q 1547 409 2034 409 
Q 2525 409 2770 889 
Q 3016 1369 3016 2328 
Q 3016 3291 2770 3770 
Q 2525 4250 2034 4250 
z
M 2034 4750 
Q 2819 4750 3233 4129 
Q 3647 3509 3647 2328 
Q 3647 1150 3233 529 
Q 2819 -91 2034 -91 
Q 1250 -91 836 529 
Q 422 1150 422 2328 
Q 422 3509 836 4129 
Q 1250 4750 2034 4750 
z
" id="DejaVuSans-30" transform="scale(0.015625)"/>
        <path d="M 313 2009 
L 1997 2009 
L 1997 1497 
L 313 1497 
L 313 2009 
z
" id="DejaVuSans-2d" transform="scale(0.015625)"/>
        <path d="M 794 531 
L 1825 531 
L 1825 4091 
L 703 3866 
L 703 4441 
L 1819 4666 
L 2450 4666 
L 2450 531 
L 3481 531 
L 3481 0 
L 794 0 
L 794 531 
z
" id="DejaVuSans-31" transform="scale(0.015625)"/>
       </defs>
       <use xlink:href="#DejaVuSans-32"/>
       <use x="63.623047" xlink:href="#DejaVuSans-30"/>
       <use x="127.246094" xlink:href="#DejaVuSans-32"/>
       <use x="190.869141" xlink:href="#DejaVuSans-30"/>
       <use x="254.492188" xlink:href="#DejaVuSans-2d"/>
       <use x="290.576172" xlink:href="#DejaVuSans-31"/>
       <use x="354.199219" xlink:href="#DejaVuSans-30"/>
      </g>
     </g>
    </g>
    <g id="xtick_2">
     <g id="line2d_2">
      <g>
       <use style="stroke:#000000;stroke-width:0.8;" x="178.278331" xlink:href="#md6683aa95d" y="230.150934"/>
      </g>
     </g>
     <g id="text_2">
      <!-- 2020-11 -->
      <g transform="translate(181.037706 278.933746)rotate(-90)scale(0.1 -0.1)">
       <use xlink:href="#DejaVuSans-32"/>
       <use x="63.623047" xlink:href="#DejaVuSans-30"/>
       <use x="127.246094" xlink:href="#DejaVuSans-32"/>
       <use x="190.869141" xlink:href="#DejaVuSans-30"/>
       <use x="254.492188" xlink:href="#DejaVuSans-2d"/>
       <use x="290.576172" xlink:href="#DejaVuSans-31"/>
       <use x="354.199219" xlink:href="#DejaVuSans-31"/>
      </g>
     </g>
    </g>
    <g id="xtick_3">
     <g id="line2d_3">
      <g>
       <use style="stroke:#000000;stroke-width:0.8;" x="271.355896" xlink:href="#md6683aa95d" y="230.150934"/>
      </g>
     </g>
     <g id="text_3">
      <!-- 2020-12 -->
      <g transform="translate(274.115271 278.933746)rotate(-90)scale(0.1 -0.1)">
       <use xlink:href="#DejaVuSans-32"/>
       <use x="63.623047" xlink:href="#DejaVuSans-30"/>
       <use x="127.246094" xlink:href="#DejaVuSans-32"/>
       <use x="190.869141" xlink:href="#DejaVuSans-30"/>
       <use x="254.492188" xlink:href="#DejaVuSans-2d"/>
       <use x="290.576172" xlink:href="#DejaVuSans-31"/>
       <use x="354.199219" xlink:href="#DejaVuSans-32"/>
      </g>
     </g>
    </g>
    <g id="xtick_4">
     <g id="line2d_4">
      <g>
       <use style="stroke:#000000;stroke-width:0.8;" x="367.536046" xlink:href="#md6683aa95d" y="230.150934"/>
      </g>
     </g>
     <g id="text_4">
      <!-- 2021-01 -->
      <g transform="translate(370.295421 278.933746)rotate(-90)scale(0.1 -0.1)">
       <use xlink:href="#DejaVuSans-32"/>
       <use x="63.623047" xlink:href="#DejaVuSans-30"/>
       <use x="127.246094" xlink:href="#DejaVuSans-32"/>
       <use x="190.869141" xlink:href="#DejaVuSans-31"/>
       <use x="254.492188" xlink:href="#DejaVuSans-2d"/>
       <use x="290.576172" xlink:href="#DejaVuSans-30"/>
       <use x="354.199219" xlink:href="#DejaVuSans-31"/>
      </g>
     </g>
    </g>
    <g id="xtick_5">
     <g id="line2d_5">
      <g>
       <use style="stroke:#000000;stroke-width:0.8;" x="463.716196" xlink:href="#md6683aa95d" y="230.150934"/>
      </g>
     </g>
     <g id="text_5">
      <!-- 2021-02 -->
      <g transform="translate(466.475571 278.933746)rotate(-90)scale(0.1 -0.1)">
       <use xlink:href="#DejaVuSans-32"/>
       <use x="63.623047" xlink:href="#DejaVuSans-30"/>
       <use x="127.246094" xlink:href="#DejaVuSans-32"/>
       <use x="190.869141" xlink:href="#DejaVuSans-31"/>
       <use x="254.492188" xlink:href="#DejaVuSans-2d"/>
       <use x="290.576172" xlink:href="#DejaVuSans-30"/>
       <use x="354.199219" xlink:href="#DejaVuSans-32"/>
      </g>
     </g>
    </g>
    <g id="xtick_6">
     <g id="line2d_6">
      <g>
       <use style="stroke:#000000;stroke-width:0.8;" x="550.588589" xlink:href="#md6683aa95d" y="230.150934"/>
      </g>
     </g>
     <g id="text_6">
      <!-- 2021-03 -->
      <g transform="translate(553.347964 278.933746)rotate(-90)scale(0.1 -0.1)">
       <defs>
        <path d="M 2597 2516 
Q 3050 2419 3304 2112 
Q 3559 1806 3559 1356 
Q 3559 666 3084 287 
Q 2609 -91 1734 -91 
Q 1441 -91 1130 -33 
Q 819 25 488 141 
L 488 750 
Q 750 597 1062 519 
Q 1375 441 1716 441 
Q 2309 441 2620 675 
Q 2931 909 2931 1356 
Q 2931 1769 2642 2001 
Q 2353 2234 1838 2234 
L 1294 2234 
L 1294 2753 
L 1863 2753 
Q 2328 2753 2575 2939 
Q 2822 3125 2822 3475 
Q 2822 3834 2567 4026 
Q 2313 4219 1838 4219 
Q 1578 4219 1281 4162 
Q 984 4106 628 3988 
L 628 4550 
Q 988 4650 1302 4700 
Q 1616 4750 1894 4750 
Q 2613 4750 3031 4423 
Q 3450 4097 3450 3541 
Q 3450 3153 3228 2886 
Q 3006 2619 2597 2516 
z
" id="DejaVuSans-33" transform="scale(0.015625)"/>
       </defs>
       <use xlink:href="#DejaVuSans-32"/>
       <use x="63.623047" xlink:href="#DejaVuSans-30"/>
       <use x="127.246094" xlink:href="#DejaVuSans-32"/>
       <use x="190.869141" xlink:href="#DejaVuSans-31"/>
       <use x="254.492188" xlink:href="#DejaVuSans-2d"/>
       <use x="290.576172" xlink:href="#DejaVuSans-30"/>
       <use x="354.199219" xlink:href="#DejaVuSans-33"/>
      </g>
     </g>
    </g>
    <g id="xtick_7">
     <g id="line2d_7">
      <g>
       <use style="stroke:#000000;stroke-width:0.8;" x="646.76874" xlink:href="#md6683aa95d" y="230.150934"/>
      </g>
     </g>
     <g id="text_7">
      <!-- 2021-04 -->
      <g transform="translate(649.528115 278.933746)rotate(-90)scale(0.1 -0.1)">
       <defs>
        <path d="M 2419 4116 
L 825 1625 
L 2419 1625 
L 2419 4116 
z
M 2253 4666 
L 3047 4666 
L 3047 1625 
L 3713 1625 
L 3713 1100 
L 3047 1100 
L 3047 0 
L 2419 0 
L 2419 1100 
L 313 1100 
L 313 1709 
L 2253 4666 
z
" id="DejaVuSans-34" transform="scale(0.015625)"/>
       </defs>
       <use xlink:href="#DejaVuSans-32"/>
       <use x="63.623047" xlink:href="#DejaVuSans-30"/>
       <use x="127.246094" xlink:href="#DejaVuSans-32"/>
       <use x="190.869141" xlink:href="#DejaVuSans-31"/>
       <use x="254.492188" xlink:href="#DejaVuSans-2d"/>
       <use x="290.576172" xlink:href="#DejaVuSans-30"/>
       <use x="354.199219" xlink:href="#DejaVuSans-34"/>
      </g>
     </g>
    </g>
    <g id="xtick_8">
     <g id="line2d_8">
      <g>
       <use style="stroke:#000000;stroke-width:0.8;" x="739.846304" xlink:href="#md6683aa95d" y="230.150934"/>
      </g>
     </g>
     <g id="text_8">
      <!-- 2021-05 -->
      <g transform="translate(742.605679 278.933746)rotate(-90)scale(0.1 -0.1)">
       <defs>
        <path d="M 691 4666 
L 3169 4666 
L 3169 4134 
L 1269 4134 
L 1269 2991 
Q 1406 3038 1543 3061 
Q 1681 3084 1819 3084 
Q 2600 3084 3056 2656 
Q 3513 2228 3513 1497 
Q 3513 744 3044 326 
Q 2575 -91 1722 -91 
Q 1428 -91 1123 -41 
Q 819 9 494 109 
L 494 744 
Q 775 591 1075 516 
Q 1375 441 1709 441 
Q 2250 441 2565 725 
Q 2881 1009 2881 1497 
Q 2881 1984 2565 2268 
Q 2250 2553 1709 2553 
Q 1456 2553 1204 2497 
Q 953 2441 691 2322 
L 691 4666 
z
" id="DejaVuSans-35" transform="scale(0.015625)"/>
       </defs>
       <use xlink:href="#DejaVuSans-32"/>
       <use x="63.623047" xlink:href="#DejaVuSans-30"/>
       <use x="127.246094" xlink:href="#DejaVuSans-32"/>
       <use x="190.869141" xlink:href="#DejaVuSans-31"/>
       <use x="254.492188" xlink:href="#DejaVuSans-2d"/>
       <use x="290.576172" xlink:href="#DejaVuSans-30"/>
       <use x="354.199219" xlink:href="#DejaVuSans-35"/>
      </g>
     </g>
    </g>
    <g id="xtick_9">
     <g id="line2d_9">
      <g>
       <use style="stroke:#000000;stroke-width:0.8;" x="836.026454" xlink:href="#md6683aa95d" y="230.150934"/>
      </g>
     </g>
     <g id="text_9">
      <!-- 2021-06 -->
      <g transform="translate(838.785829 278.933746)rotate(-90)scale(0.1 -0.1)">
       <defs>
        <path d="M 2113 2584 
Q 1688 2584 1439 2293 
Q 1191 2003 1191 1497 
Q 1191 994 1439 701 
Q 1688 409 2113 409 
Q 2538 409 2786 701 
Q 3034 994 3034 1497 
Q 3034 2003 2786 2293 
Q 2538 2584 2113 2584 
z
M 3366 4563 
L 3366 3988 
Q 3128 4100 2886 4159 
Q 2644 4219 2406 4219 
Q 1781 4219 1451 3797 
Q 1122 3375 1075 2522 
Q 1259 2794 1537 2939 
Q 1816 3084 2150 3084 
Q 2853 3084 3261 2657 
Q 3669 2231 3669 1497 
Q 3669 778 3244 343 
Q 2819 -91 2113 -91 
Q 1303 -91 875 529 
Q 447 1150 447 2328 
Q 447 3434 972 4092 
Q 1497 4750 2381 4750 
Q 2619 4750 2861 4703 
Q 3103 4656 3366 4563 
z
" id="DejaVuSans-36" transform="scale(0.015625)"/>
       </defs>
       <use xlink:href="#DejaVuSans-32"/>
       <use x="63.623047" xlink:href="#DejaVuSans-30"/>
       <use x="127.246094" xlink:href="#DejaVuSans-32"/>
       <use x="190.869141" xlink:href="#DejaVuSans-31"/>
       <use x="254.492188" xlink:href="#DejaVuSans-2d"/>
       <use x="290.576172" xlink:href="#DejaVuSans-30"/>
       <use x="354.199219" xlink:href="#DejaVuSans-36"/>
      </g>
     </g>
    </g>
    <g id="xtick_10">
     <g id="line2d_10">
      <g>
       <use style="stroke:#000000;stroke-width:0.8;" x="929.104019" xlink:href="#md6683aa95d" y="230.150934"/>
      </g>
     </g>
     <g id="text_10">
      <!-- 2021-07 -->
      <g transform="translate(931.863394 278.933746)rotate(-90)scale(0.1 -0.1)">
       <defs>
        <path d="M 525 4666 
L 3525 4666 
L 3525 4397 
L 1831 0 
L 1172 0 
L 2766 4134 
L 525 4134 
L 525 4666 
z
" id="DejaVuSans-37" transform="scale(0.015625)"/>
       </defs>
       <use xlink:href="#DejaVuSans-32"/>
       <use x="63.623047" xlink:href="#DejaVuSans-30"/>
       <use x="127.246094" xlink:href="#DejaVuSans-32"/>
       <use x="190.869141" xlink:href="#DejaVuSans-31"/>
       <use x="254.492188" xlink:href="#DejaVuSans-2d"/>
       <use x="290.576172" xlink:href="#DejaVuSans-30"/>
       <use x="354.199219" xlink:href="#DejaVuSans-37"/>
      </g>
     </g>
    </g>
    <g id="xtick_11">
     <g id="line2d_11">
      <g>
       <use style="stroke:#000000;stroke-width:0.8;" x="1025.284169" xlink:href="#md6683aa95d" y="230.150934"/>
      </g>
     </g>
     <g id="text_11">
      <!-- 2021-08 -->
      <g transform="translate(1028.043544 278.933746)rotate(-90)scale(0.1 -0.1)">
       <defs>
        <path d="M 2034 2216 
Q 1584 2216 1326 1975 
Q 1069 1734 1069 1313 
Q 1069 891 1326 650 
Q 1584 409 2034 409 
Q 2484 409 2743 651 
Q 3003 894 3003 1313 
Q 3003 1734 2745 1975 
Q 2488 2216 2034 2216 
z
M 1403 2484 
Q 997 2584 770 2862 
Q 544 3141 544 3541 
Q 544 4100 942 4425 
Q 1341 4750 2034 4750 
Q 2731 4750 3128 4425 
Q 3525 4100 3525 3541 
Q 3525 3141 3298 2862 
Q 3072 2584 2669 2484 
Q 3125 2378 3379 2068 
Q 3634 1759 3634 1313 
Q 3634 634 3220 271 
Q 2806 -91 2034 -91 
Q 1263 -91 848 271 
Q 434 634 434 1313 
Q 434 1759 690 2068 
Q 947 2378 1403 2484 
z
M 1172 3481 
Q 1172 3119 1398 2916 
Q 1625 2713 2034 2713 
Q 2441 2713 2670 2916 
Q 2900 3119 2900 3481 
Q 2900 3844 2670 4047 
Q 2441 4250 2034 4250 
Q 1625 4250 1398 4047 
Q 1172 3844 1172 3481 
z
" id="DejaVuSans-38" transform="scale(0.015625)"/>
       </defs>
       <use xlink:href="#DejaVuSans-32"/>
       <use x="63.623047" xlink:href="#DejaVuSans-30"/>
       <use x="127.246094" xlink:href="#DejaVuSans-32"/>
       <use x="190.869141" xlink:href="#DejaVuSans-31"/>
       <use x="254.492188" xlink:href="#DejaVuSans-2d"/>
       <use x="290.576172" xlink:href="#DejaVuSans-30"/>
       <use x="354.199219" xlink:href="#DejaVuSans-38"/>
      </g>
     </g>
    </g>
    <g id="xtick_12">
     <g id="line2d_12">
      <g>
       <use style="stroke:#000000;stroke-width:0.8;" x="1121.464319" xlink:href="#md6683aa95d" y="230.150934"/>
      </g>
     </g>
     <g id="text_12">
      <!-- 2021-09 -->
      <g transform="translate(1124.223694 278.933746)rotate(-90)scale(0.1 -0.1)">
       <defs>
        <path d="M 703 97 
L 703 672 
Q 941 559 1184 500 
Q 1428 441 1663 441 
Q 2288 441 2617 861 
Q 2947 1281 2994 2138 
Q 2813 1869 2534 1725 
Q 2256 1581 1919 1581 
Q 1219 1581 811 2004 
Q 403 2428 403 3163 
Q 403 3881 828 4315 
Q 1253 4750 1959 4750 
Q 2769 4750 3195 4129 
Q 3622 3509 3622 2328 
Q 3622 1225 3098 567 
Q 2575 -91 1691 -91 
Q 1453 -91 1209 -44 
Q 966 3 703 97 
z
M 1959 2075 
Q 2384 2075 2632 2365 
Q 2881 2656 2881 3163 
Q 2881 3666 2632 3958 
Q 2384 4250 1959 4250 
Q 1534 4250 1286 3958 
Q 1038 3666 1038 3163 
Q 1038 2656 1286 2365 
Q 1534 2075 1959 2075 
z
" id="DejaVuSans-39" transform="scale(0.015625)"/>
       </defs>
       <use xlink:href="#DejaVuSans-32"/>
       <use x="63.623047" xlink:href="#DejaVuSans-30"/>
       <use x="127.246094" xlink:href="#DejaVuSans-32"/>
       <use x="190.869141" xlink:href="#DejaVuSans-31"/>
       <use x="254.492188" xlink:href="#DejaVuSans-2d"/>
       <use x="290.576172" xlink:href="#DejaVuSans-30"/>
       <use x="354.199219" xlink:href="#DejaVuSans-39"/>
      </g>
     </g>
    </g>
    <g id="text_13">
     <!-- Date -->
     <g transform="translate(589.830469 290.532184)scale(0.1 -0.1)">
      <defs>
       <path d="M 1259 4147 
L 1259 519 
L 2022 519 
Q 2988 519 3436 956 
Q 3884 1394 3884 2338 
Q 3884 3275 3436 3711 
Q 2988 4147 2022 4147 
L 1259 4147 
z
M 628 4666 
L 1925 4666 
Q 3281 4666 3915 4102 
Q 4550 3538 4550 2338 
Q 4550 1131 3912 565 
Q 3275 0 1925 0 
L 628 0 
L 628 4666 
z
" id="DejaVuSans-44" transform="scale(0.015625)"/>
       <path d="M 2194 1759 
Q 1497 1759 1228 1600 
Q 959 1441 959 1056 
Q 959 750 1161 570 
Q 1363 391 1709 391 
Q 2188 391 2477 730 
Q 2766 1069 2766 1631 
L 2766 1759 
L 2194 1759 
z
M 3341 1997 
L 3341 0 
L 2766 0 
L 2766 531 
Q 2569 213 2275 61 
Q 1981 -91 1556 -91 
Q 1019 -91 701 211 
Q 384 513 384 1019 
Q 384 1609 779 1909 
Q 1175 2209 1959 2209 
L 2766 2209 
L 2766 2266 
Q 2766 2663 2505 2880 
Q 2244 3097 1772 3097 
Q 1472 3097 1187 3025 
Q 903 2953 641 2809 
L 641 3341 
Q 956 3463 1253 3523 
Q 1550 3584 1831 3584 
Q 2591 3584 2966 3190 
Q 3341 2797 3341 1997 
z
" id="DejaVuSans-61" transform="scale(0.015625)"/>
       <path d="M 1172 4494 
L 1172 3500 
L 2356 3500 
L 2356 3053 
L 1172 3053 
L 1172 1153 
Q 1172 725 1289 603 
Q 1406 481 1766 481 
L 2356 481 
L 2356 0 
L 1766 0 
Q 1100 0 847 248 
Q 594 497 594 1153 
L 594 3053 
L 172 3053 
L 172 3500 
L 594 3500 
L 594 4494 
L 1172 4494 
z
" id="DejaVuSans-74" transform="scale(0.015625)"/>
       <path d="M 3597 1894 
L 3597 1613 
L 953 1613 
Q 991 1019 1311 708 
Q 1631 397 2203 397 
Q 2534 397 2845 478 
Q 3156 559 3463 722 
L 3463 178 
Q 3153 47 2828 -22 
Q 2503 -91 2169 -91 
Q 1331 -91 842 396 
Q 353 884 353 1716 
Q 353 2575 817 3079 
Q 1281 3584 2069 3584 
Q 2775 3584 3186 3129 
Q 3597 2675 3597 1894 
z
M 3022 2063 
Q 3016 2534 2758 2815 
Q 2500 3097 2075 3097 
Q 1594 3097 1305 2825 
Q 1016 2553 972 2059 
L 3022 2063 
z
" id="DejaVuSans-65" transform="scale(0.015625)"/>
      </defs>
      <use xlink:href="#DejaVuSans-44"/>
      <use x="77.001953" xlink:href="#DejaVuSans-61"/>
      <use x="138.28125" xlink:href="#DejaVuSans-74"/>
      <use x="177.490234" xlink:href="#DejaVuSans-65"/>
     </g>
    </g>
   </g>
   <g id="matplotlib.axis_2">
    <g id="ytick_1">
     <g id="line2d_13">
      <defs>
       <path d="M 0 0 
L -3.5 0 
" id="m48616a98f5" style="stroke:#000000;stroke-width:0.8;"/>
      </defs>
      <g>
       <use style="stroke:#000000;stroke-width:0.8;" x="43.78125" xlink:href="#m48616a98f5" y="230.150934"/>
      </g>
     </g>
     <g id="text_14">
      <!-- 0.0 -->
      <g transform="translate(20.878125 233.950152)scale(0.1 -0.1)">
       <defs>
        <path d="M 684 794 
L 1344 794 
L 1344 0 
L 684 0 
L 684 794 
z
" id="DejaVuSans-2e" transform="scale(0.015625)"/>
       </defs>
       <use xlink:href="#DejaVuSans-30"/>
       <use x="63.623047" xlink:href="#DejaVuSans-2e"/>
       <use x="95.410156" xlink:href="#DejaVuSans-30"/>
      </g>
     </g>
    </g>
    <g id="ytick_2">
     <g id="line2d_14">
      <g>
       <use style="stroke:#000000;stroke-width:0.8;" x="43.78125" xlink:href="#m48616a98f5" y="202.756969"/>
      </g>
     </g>
     <g id="text_15">
      <!-- 0.1 -->
      <g transform="translate(20.878125 206.556188)scale(0.1 -0.1)">
       <use xlink:href="#DejaVuSans-30"/>
       <use x="63.623047" xlink:href="#DejaVuSans-2e"/>
       <use x="95.410156" xlink:href="#DejaVuSans-31"/>
      </g>
     </g>
    </g>
    <g id="ytick_3">
     <g id="line2d_15">
      <g>
       <use style="stroke:#000000;stroke-width:0.8;" x="43.78125" xlink:href="#m48616a98f5" y="175.363005"/>
      </g>
     </g>
     <g id="text_16">
      <!-- 0.2 -->
      <g transform="translate(20.878125 179.162224)scale(0.1 -0.1)">
       <use xlink:href="#DejaVuSans-30"/>
       <use x="63.623047" xlink:href="#DejaVuSans-2e"/>
       <use x="95.410156" xlink:href="#DejaVuSans-32"/>
      </g>
     </g>
    </g>
    <g id="ytick_4">
     <g id="line2d_16">
      <g>
       <use style="stroke:#000000;stroke-width:0.8;" x="43.78125" xlink:href="#m48616a98f5" y="147.969041"/>
      </g>
     </g>
     <g id="text_17">
      <!-- 0.3 -->
      <g transform="translate(20.878125 151.768259)scale(0.1 -0.1)">
       <use xlink:href="#DejaVuSans-30"/>
       <use x="63.623047" xlink:href="#DejaVuSans-2e"/>
       <use x="95.410156" xlink:href="#DejaVuSans-33"/>
      </g>
     </g>
    </g>
    <g id="ytick_5">
     <g id="line2d_17">
      <g>
       <use style="stroke:#000000;stroke-width:0.8;" x="43.78125" xlink:href="#m48616a98f5" y="120.575076"/>
      </g>
     </g>
     <g id="text_18">
      <!-- 0.4 -->
      <g transform="translate(20.878125 124.374295)scale(0.1 -0.1)">
       <use xlink:href="#DejaVuSans-30"/>
       <use x="63.623047" xlink:href="#DejaVuSans-2e"/>
       <use x="95.410156" xlink:href="#DejaVuSans-34"/>
      </g>
     </g>
    </g>
    <g id="ytick_6">
     <g id="line2d_18">
      <g>
       <use style="stroke:#000000;stroke-width:0.8;" x="43.78125" xlink:href="#m48616a98f5" y="93.181112"/>
      </g>
     </g>
     <g id="text_19">
      <!-- 0.5 -->
      <g transform="translate(20.878125 96.980331)scale(0.1 -0.1)">
       <use xlink:href="#DejaVuSans-30"/>
       <use x="63.623047" xlink:href="#DejaVuSans-2e"/>
       <use x="95.410156" xlink:href="#DejaVuSans-35"/>
      </g>
     </g>
    </g>
    <g id="ytick_7">
     <g id="line2d_19">
      <g>
       <use style="stroke:#000000;stroke-width:0.8;" x="43.78125" xlink:href="#m48616a98f5" y="65.787147"/>
      </g>
     </g>
     <g id="text_20">
      <!-- 0.6 -->
      <g transform="translate(20.878125 69.586366)scale(0.1 -0.1)">
       <use xlink:href="#DejaVuSans-30"/>
       <use x="63.623047" xlink:href="#DejaVuSans-2e"/>
       <use x="95.410156" xlink:href="#DejaVuSans-36"/>
      </g>
     </g>
    </g>
    <g id="ytick_8">
     <g id="line2d_20">
      <g>
       <use style="stroke:#000000;stroke-width:0.8;" x="43.78125" xlink:href="#m48616a98f5" y="38.393183"/>
      </g>
     </g>
     <g id="text_21">
      <!-- 0.7 -->
      <g transform="translate(20.878125 42.192402)scale(0.1 -0.1)">
       <use xlink:href="#DejaVuSans-30"/>
       <use x="63.623047" xlink:href="#DejaVuSans-2e"/>
       <use x="95.410156" xlink:href="#DejaVuSans-37"/>
      </g>
     </g>
    </g>
    <g id="ytick_9">
     <g id="line2d_21">
      <g>
       <use style="stroke:#000000;stroke-width:0.8;" x="43.78125" xlink:href="#m48616a98f5" y="10.999219"/>
      </g>
     </g>
     <g id="text_22">
      <!-- 0.8 -->
      <g transform="translate(20.878125 14.798437)scale(0.1 -0.1)">
       <use xlink:href="#DejaVuSans-30"/>
       <use x="63.623047" xlink:href="#DejaVuSans-2e"/>
       <use x="95.410156" xlink:href="#DejaVuSans-38"/>
      </g>
     </g>
    </g>
    <g id="text_23">
     <!-- Frequency (7 day rolling average) -->
     <g transform="translate(14.798437 203.720152)rotate(-90)scale(0.1 -0.1)">
      <defs>
       <path d="M 628 4666 
L 3309 4666 
L 3309 4134 
L 1259 4134 
L 1259 2759 
L 3109 2759 
L 3109 2228 
L 1259 2228 
L 1259 0 
L 628 0 
L 628 4666 
z
" id="DejaVuSans-46" transform="scale(0.015625)"/>
       <path d="M 2631 2963 
Q 2534 3019 2420 3045 
Q 2306 3072 2169 3072 
Q 1681 3072 1420 2755 
Q 1159 2438 1159 1844 
L 1159 0 
L 581 0 
L 581 3500 
L 1159 3500 
L 1159 2956 
Q 1341 3275 1631 3429 
Q 1922 3584 2338 3584 
Q 2397 3584 2469 3576 
Q 2541 3569 2628 3553 
L 2631 2963 
z
" id="DejaVuSans-72" transform="scale(0.015625)"/>
       <path d="M 947 1747 
Q 947 1113 1208 752 
Q 1469 391 1925 391 
Q 2381 391 2643 752 
Q 2906 1113 2906 1747 
Q 2906 2381 2643 2742 
Q 2381 3103 1925 3103 
Q 1469 3103 1208 2742 
Q 947 2381 947 1747 
z
M 2906 525 
Q 2725 213 2448 61 
Q 2172 -91 1784 -91 
Q 1150 -91 751 415 
Q 353 922 353 1747 
Q 353 2572 751 3078 
Q 1150 3584 1784 3584 
Q 2172 3584 2448 3432 
Q 2725 3281 2906 2969 
L 2906 3500 
L 3481 3500 
L 3481 -1331 
L 2906 -1331 
L 2906 525 
z
" id="DejaVuSans-71" transform="scale(0.015625)"/>
       <path d="M 544 1381 
L 544 3500 
L 1119 3500 
L 1119 1403 
Q 1119 906 1312 657 
Q 1506 409 1894 409 
Q 2359 409 2629 706 
Q 2900 1003 2900 1516 
L 2900 3500 
L 3475 3500 
L 3475 0 
L 2900 0 
L 2900 538 
Q 2691 219 2414 64 
Q 2138 -91 1772 -91 
Q 1169 -91 856 284 
Q 544 659 544 1381 
z
M 1991 3584 
L 1991 3584 
z
" id="DejaVuSans-75" transform="scale(0.015625)"/>
       <path d="M 3513 2113 
L 3513 0 
L 2938 0 
L 2938 2094 
Q 2938 2591 2744 2837 
Q 2550 3084 2163 3084 
Q 1697 3084 1428 2787 
Q 1159 2491 1159 1978 
L 1159 0 
L 581 0 
L 581 3500 
L 1159 3500 
L 1159 2956 
Q 1366 3272 1645 3428 
Q 1925 3584 2291 3584 
Q 2894 3584 3203 3211 
Q 3513 2838 3513 2113 
z
" id="DejaVuSans-6e" transform="scale(0.015625)"/>
       <path d="M 3122 3366 
L 3122 2828 
Q 2878 2963 2633 3030 
Q 2388 3097 2138 3097 
Q 1578 3097 1268 2742 
Q 959 2388 959 1747 
Q 959 1106 1268 751 
Q 1578 397 2138 397 
Q 2388 397 2633 464 
Q 2878 531 3122 666 
L 3122 134 
Q 2881 22 2623 -34 
Q 2366 -91 2075 -91 
Q 1284 -91 818 406 
Q 353 903 353 1747 
Q 353 2603 823 3093 
Q 1294 3584 2113 3584 
Q 2378 3584 2631 3529 
Q 2884 3475 3122 3366 
z
" id="DejaVuSans-63" transform="scale(0.015625)"/>
       <path d="M 2059 -325 
Q 1816 -950 1584 -1140 
Q 1353 -1331 966 -1331 
L 506 -1331 
L 506 -850 
L 844 -850 
Q 1081 -850 1212 -737 
Q 1344 -625 1503 -206 
L 1606 56 
L 191 3500 
L 800 3500 
L 1894 763 
L 2988 3500 
L 3597 3500 
L 2059 -325 
z
" id="DejaVuSans-79" transform="scale(0.015625)"/>
       <path id="DejaVuSans-20" transform="scale(0.015625)"/>
       <path d="M 1984 4856 
Q 1566 4138 1362 3434 
Q 1159 2731 1159 2009 
Q 1159 1288 1364 580 
Q 1569 -128 1984 -844 
L 1484 -844 
Q 1016 -109 783 600 
Q 550 1309 550 2009 
Q 550 2706 781 3412 
Q 1013 4119 1484 4856 
L 1984 4856 
z
" id="DejaVuSans-28" transform="scale(0.015625)"/>
       <path d="M 2906 2969 
L 2906 4863 
L 3481 4863 
L 3481 0 
L 2906 0 
L 2906 525 
Q 2725 213 2448 61 
Q 2172 -91 1784 -91 
Q 1150 -91 751 415 
Q 353 922 353 1747 
Q 353 2572 751 3078 
Q 1150 3584 1784 3584 
Q 2172 3584 2448 3432 
Q 2725 3281 2906 2969 
z
M 947 1747 
Q 947 1113 1208 752 
Q 1469 391 1925 391 
Q 2381 391 2643 752 
Q 2906 1113 2906 1747 
Q 2906 2381 2643 2742 
Q 2381 3103 1925 3103 
Q 1469 3103 1208 2742 
Q 947 2381 947 1747 
z
" id="DejaVuSans-64" transform="scale(0.015625)"/>
       <path d="M 1959 3097 
Q 1497 3097 1228 2736 
Q 959 2375 959 1747 
Q 959 1119 1226 758 
Q 1494 397 1959 397 
Q 2419 397 2687 759 
Q 2956 1122 2956 1747 
Q 2956 2369 2687 2733 
Q 2419 3097 1959 3097 
z
M 1959 3584 
Q 2709 3584 3137 3096 
Q 3566 2609 3566 1747 
Q 3566 888 3137 398 
Q 2709 -91 1959 -91 
Q 1206 -91 779 398 
Q 353 888 353 1747 
Q 353 2609 779 3096 
Q 1206 3584 1959 3584 
z
" id="DejaVuSans-6f" transform="scale(0.015625)"/>
       <path d="M 603 4863 
L 1178 4863 
L 1178 0 
L 603 0 
L 603 4863 
z
" id="DejaVuSans-6c" transform="scale(0.015625)"/>
       <path d="M 603 3500 
L 1178 3500 
L 1178 0 
L 603 0 
L 603 3500 
z
M 603 4863 
L 1178 4863 
L 1178 4134 
L 603 4134 
L 603 4863 
z
" id="DejaVuSans-69" transform="scale(0.015625)"/>
       <path d="M 2906 1791 
Q 2906 2416 2648 2759 
Q 2391 3103 1925 3103 
Q 1463 3103 1205 2759 
Q 947 2416 947 1791 
Q 947 1169 1205 825 
Q 1463 481 1925 481 
Q 2391 481 2648 825 
Q 2906 1169 2906 1791 
z
M 3481 434 
Q 3481 -459 3084 -895 
Q 2688 -1331 1869 -1331 
Q 1566 -1331 1297 -1286 
Q 1028 -1241 775 -1147 
L 775 -588 
Q 1028 -725 1275 -790 
Q 1522 -856 1778 -856 
Q 2344 -856 2625 -561 
Q 2906 -266 2906 331 
L 2906 616 
Q 2728 306 2450 153 
Q 2172 0 1784 0 
Q 1141 0 747 490 
Q 353 981 353 1791 
Q 353 2603 747 3093 
Q 1141 3584 1784 3584 
Q 2172 3584 2450 3431 
Q 2728 3278 2906 2969 
L 2906 3500 
L 3481 3500 
L 3481 434 
z
" id="DejaVuSans-67" transform="scale(0.015625)"/>
       <path d="M 191 3500 
L 800 3500 
L 1894 563 
L 2988 3500 
L 3597 3500 
L 2284 0 
L 1503 0 
L 191 3500 
z
" id="DejaVuSans-76" transform="scale(0.015625)"/>
       <path d="M 513 4856 
L 1013 4856 
Q 1481 4119 1714 3412 
Q 1947 2706 1947 2009 
Q 1947 1309 1714 600 
Q 1481 -109 1013 -844 
L 513 -844 
Q 928 -128 1133 580 
Q 1338 1288 1338 2009 
Q 1338 2731 1133 3434 
Q 928 4138 513 4856 
z
" id="DejaVuSans-29" transform="scale(0.015625)"/>
      </defs>
      <use xlink:href="#DejaVuSans-46"/>
      <use x="50.269531" xlink:href="#DejaVuSans-72"/>
      <use x="89.132812" xlink:href="#DejaVuSans-65"/>
      <use x="150.65625" xlink:href="#DejaVuSans-71"/>
      <use x="214.132812" xlink:href="#DejaVuSans-75"/>
      <use x="277.511719" xlink:href="#DejaVuSans-65"/>
      <use x="339.035156" xlink:href="#DejaVuSans-6e"/>
      <use x="402.414062" xlink:href="#DejaVuSans-63"/>
      <use x="457.394531" xlink:href="#DejaVuSans-79"/>
      <use x="516.574219" xlink:href="#DejaVuSans-20"/>
      <use x="548.361328" xlink:href="#DejaVuSans-28"/>
      <use x="587.375" xlink:href="#DejaVuSans-37"/>
      <use x="650.998047" xlink:href="#DejaVuSans-20"/>
      <use x="682.785156" xlink:href="#DejaVuSans-64"/>
      <use x="746.261719" xlink:href="#DejaVuSans-61"/>
      <use x="807.541016" xlink:href="#DejaVuSans-79"/>
      <use x="866.720703" xlink:href="#DejaVuSans-20"/>
      <use x="898.507812" xlink:href="#DejaVuSans-72"/>
      <use x="937.371094" xlink:href="#DejaVuSans-6f"/>
      <use x="998.552734" xlink:href="#DejaVuSans-6c"/>
      <use x="1026.335938" xlink:href="#DejaVuSans-6c"/>
      <use x="1054.119141" xlink:href="#DejaVuSans-69"/>
      <use x="1081.902344" xlink:href="#DejaVuSans-6e"/>
      <use x="1145.28125" xlink:href="#DejaVuSans-67"/>
      <use x="1208.757812" xlink:href="#DejaVuSans-20"/>
      <use x="1240.544922" xlink:href="#DejaVuSans-61"/>
      <use x="1301.824219" xlink:href="#DejaVuSans-76"/>
      <use x="1361.003906" xlink:href="#DejaVuSans-65"/>
      <use x="1422.527344" xlink:href="#DejaVuSans-72"/>
      <use x="1463.640625" xlink:href="#DejaVuSans-61"/>
      <use x="1524.919922" xlink:href="#DejaVuSans-67"/>
      <use x="1588.396484" xlink:href="#DejaVuSans-65"/>
      <use x="1649.919922" xlink:href="#DejaVuSans-29"/>
     </g>
    </g>
   </g>
   <g id="line2d_22">
    <path clip-path="url(#pc1883163e8)" d="M 404.767072 230.075637 
L 414.074828 230.150934 
L 420.279999 230.068359 
L 429.587755 230.014416 
L 435.792926 230.09699 
L 448.203268 230.12949 
L 463.716196 230.129287 
L 476.126538 230.105083 
L 494.742051 229.964909 
L 504.049807 230.060985 
L 513.357564 230.012235 
L 525.767906 230.119062 
L 541.280833 229.66872 
L 550.588589 229.539545 
L 556.79376 229.084064 
L 566.101517 228.688143 
L 569.204102 228.758587 
L 578.511859 228.592709 
L 584.71703 227.488383 
L 587.819615 226.849235 
L 597.127372 226.513179 
L 603.332543 226.527561 
L 606.435128 225.808111 
L 609.537714 224.398336 
L 612.640299 222.863936 
L 615.742885 221.951628 
L 618.84547 221.188909 
L 621.948056 220.105635 
L 628.153227 219.42839 
L 634.358398 216.697833 
L 643.666154 216.786737 
L 646.76874 217.152643 
L 649.871325 217.05765 
L 652.973911 216.034178 
L 656.076496 214.062368 
L 659.179082 213.227361 
L 662.281667 212.849034 
L 665.384253 212.587047 
L 668.486838 212.679213 
L 671.589423 213.564965 
L 674.692009 213.318009 
L 677.794594 212.004492 
L 680.89718 211.754296 
L 683.999765 211.734355 
L 690.204936 211.316286 
L 693.307522 211.542807 
L 696.410107 210.536471 
L 699.512693 208.222048 
L 702.615278 207.644924 
L 705.717864 207.609454 
L 708.820449 208.016662 
L 711.923035 208.831542 
L 715.02562 210.385791 
L 718.128206 209.631788 
L 724.333377 206.473356 
L 727.435962 205.617322 
L 730.538548 204.556406 
L 733.641133 204.524558 
L 736.743719 204.683588 
L 739.846304 204.137825 
L 742.94889 202.885393 
L 749.154061 202.553295 
L 752.256646 202.653139 
L 758.461817 204.201685 
L 761.564403 202.544979 
L 764.666988 201.496058 
L 770.872159 200.892703 
L 773.974745 199.803908 
L 777.07733 200.52766 
L 780.179916 200.368294 
L 783.282501 198.978253 
L 786.385087 196.205075 
L 789.487672 195.755796 
L 792.590258 195.089836 
L 795.692843 194.943759 
L 798.795428 194.352095 
L 801.898014 194.329996 
L 808.103185 190.930233 
L 811.20577 190.493622 
L 814.308356 191.100601 
L 817.410941 191.216891 
L 820.513527 191.668266 
L 823.616112 191.781301 
L 826.718698 192.057665 
L 829.821283 189.721517 
L 832.923869 186.082978 
L 836.026454 186.011253 
L 839.12904 185.326254 
L 842.231625 182.040487 
L 845.334211 182.526626 
L 848.436796 186.602434 
L 851.539382 184.695506 
L 854.641967 185.063676 
L 857.744553 187.283371 
L 863.949724 189.619687 
L 867.052309 192.9095 
L 870.154895 193.797778 
L 873.25748 195.296755 
L 876.360066 196.482593 
L 879.462651 196.115751 
L 882.565237 196.135512 
L 885.667822 197.663626 
L 888.770408 198.173469 
L 891.872993 198.872987 
L 894.975579 199.422198 
L 901.18075 202.534965 
L 904.283335 202.597832 
L 907.385921 203.823631 
L 913.591092 205.290084 
L 916.693677 205.801527 
L 919.796263 208.323222 
L 922.898848 209.409906 
L 926.001433 211.419538 
L 929.104019 211.994251 
L 932.206604 213.349915 
L 935.30919 213.125854 
L 938.411775 212.342346 
L 941.514361 213.621722 
L 944.616946 215.107634 
L 950.822117 217.002947 
L 953.924703 218.838303 
L 957.027288 219.53979 
L 960.129874 219.957541 
L 963.232459 220.619428 
L 966.335045 221.75522 
L 969.43763 223.030105 
L 972.540216 223.581162 
L 975.642801 224.508189 
L 978.745387 225.187893 
L 981.847972 225.576748 
L 984.950558 225.691211 
L 988.053143 226.005821 
L 994.258314 226.348087 
L 997.3609 226.615504 
L 1000.463485 227.128152 
L 1006.668656 227.712156 
L 1009.771242 227.821555 
L 1012.873827 228.047155 
L 1047.002268 228.885326 
L 1056.310024 229.123727 
L 1065.61778 229.676867 
L 1081.130708 229.739201 
L 1090.438464 229.424578 
L 1093.54105 229.134865 
L 1096.643635 229.217191 
L 1099.746221 229.515763 
L 1102.848806 229.568989 
L 1102.848806 229.568989 
" style="fill:none;stroke:#947383;stroke-linecap:square;stroke-width:2;"/>
   </g>
   <g id="line2d_23">
    <path clip-path="url(#pc1883163e8)" d="M 389.254144 226.217441 
L 392.35673 228.043706 
L 395.459315 230.150934 
L 398.561901 230.150934 
L 401.664486 229.267257 
L 404.767072 229.267257 
L 407.869657 228.665192 
L 410.972242 227.944298 
L 414.074828 227.944298 
L 417.177413 228.827975 
L 420.279999 227.115852 
L 423.382584 226.97754 
L 426.48517 227.121718 
L 429.587755 226.641122 
L 432.690341 225.917053 
L 435.792926 227.629176 
L 441.998097 227.752034 
L 445.100683 228.115811 
L 448.203268 228.600109 
L 451.305854 228.541386 
L 454.408439 228.963741 
L 457.511025 229.216106 
L 460.61361 229.104641 
L 463.716196 229.297121 
L 466.818781 229.246867 
L 476.126538 229.687602 
L 479.229123 229.469962 
L 482.331709 229.578938 
L 488.53688 229.40675 
L 500.947222 229.274556 
L 504.049807 228.870268 
L 507.152393 229.056808 
L 516.460149 229.075373 
L 519.562735 229.453136 
L 525.767906 229.139149 
L 528.870491 229.212728 
L 538.178247 229.009791 
L 541.280833 229.155383 
L 544.383418 228.852095 
L 547.486004 228.804691 
L 550.588589 228.968138 
L 556.79376 228.872418 
L 559.896346 229.027995 
L 562.998931 229.023021 
L 566.101517 228.59806 
L 569.204102 228.463718 
L 575.409273 228.604667 
L 578.511859 228.64283 
L 581.614444 228.896472 
L 584.71703 228.852732 
L 587.819615 228.413733 
L 590.922201 228.271223 
L 594.024786 228.255245 
L 597.127372 228.044694 
L 600.229957 228.030946 
L 603.332543 228.343804 
L 606.435128 228.10031 
L 609.537714 227.25869 
L 612.640299 227.05511 
L 615.742885 227.190981 
L 618.84547 227.053182 
L 621.948056 227.100009 
L 625.050641 227.6451 
L 628.153227 227.926541 
L 631.255812 227.599104 
L 634.358398 227.150089 
L 637.460983 227.405523 
L 640.563569 227.533906 
L 649.871325 227.35538 
L 652.973911 226.9288 
L 656.076496 226.781117 
L 659.179082 226.944049 
L 662.281667 226.536077 
L 668.486838 226.292791 
L 671.589423 225.914203 
L 674.692009 225.115225 
L 677.794594 225.737819 
L 680.89718 226.561745 
L 683.999765 226.886769 
L 687.102351 226.970162 
L 690.204936 227.38645 
L 696.410107 226.588626 
L 699.512693 226.482182 
L 702.615278 226.823853 
L 705.717864 226.744584 
L 711.923035 226.983896 
L 718.128206 226.817545 
L 721.230791 227.017465 
L 724.333377 227.393998 
L 730.538548 227.45705 
L 736.743719 227.374018 
L 739.846304 226.550819 
L 742.94889 226.355824 
L 746.051475 226.702057 
L 749.154061 226.850859 
L 752.256646 226.667411 
L 755.359232 227.128436 
L 758.461817 227.310765 
L 761.564403 226.885708 
L 764.666988 226.094726 
L 767.769574 226.458359 
L 770.872159 226.607432 
L 777.07733 225.756462 
L 780.179916 226.190632 
L 783.282501 225.920573 
L 786.385087 225.410335 
L 792.590258 226.367856 
L 795.692843 226.323219 
L 798.795428 226.047632 
L 801.898014 225.973644 
L 805.000599 225.14571 
L 808.103185 224.734209 
L 811.20577 225.094645 
L 814.308356 225.177866 
L 817.410941 225.769563 
L 820.513527 226.017475 
L 826.718698 225.776138 
L 829.821283 224.722958 
L 832.923869 224.589486 
L 839.12904 224.823925 
L 842.231625 224.315234 
L 845.334211 224.708628 
L 848.436796 224.375674 
L 851.539382 223.862719 
L 854.641967 224.50889 
L 857.744553 224.848034 
L 860.847138 225.522876 
L 863.949724 225.480409 
L 867.052309 225.916739 
L 870.154895 225.702557 
L 873.25748 225.755238 
L 876.360066 225.623229 
L 882.565237 225.791798 
L 885.667822 225.380532 
L 888.770408 225.179539 
L 891.872993 225.115017 
L 894.975579 225.81434 
L 898.078164 225.490235 
L 901.18075 224.669895 
L 907.385921 224.576036 
L 910.488506 223.884901 
L 913.591092 223.863795 
L 916.693677 224.933989 
L 919.796263 224.655623 
L 922.898848 223.828216 
L 926.001433 222.691817 
L 929.104019 221.185786 
L 932.206604 220.231793 
L 935.30919 220.672498 
L 938.411775 222.332258 
L 941.514361 222.634139 
L 944.616946 224.10746 
L 947.719532 224.803649 
L 950.822117 224.732783 
L 953.924703 223.959564 
L 957.027288 224.656626 
L 960.129874 225.667004 
L 963.232459 226.224984 
L 966.335045 226.205559 
L 969.43763 226.461915 
L 972.540216 226.87078 
L 975.642801 226.451716 
L 978.745387 226.647987 
L 981.847972 227.538304 
L 991.155729 228.826135 
L 994.258314 228.999276 
L 997.3609 228.959405 
L 1000.463485 229.182931 
L 1003.566071 229.279133 
L 1006.668656 229.11412 
L 1009.771242 229.186405 
L 1019.078998 229.101222 
L 1022.181584 229.318252 
L 1025.284169 229.3109 
L 1031.48934 229.612237 
L 1037.694511 229.866314 
L 1040.797097 230.012763 
L 1074.925537 230.115948 
L 1087.335879 230.064707 
L 1087.335879 230.064707 
" style="fill:none;stroke:#96c6ad;stroke-linecap:square;stroke-width:2;"/>
   </g>
   <g id="line2d_24">
    <path clip-path="url(#pc1883163e8)" d="M 383.048973 229.015432 
L 386.151559 230.150934 
L 392.35673 230.150934 
L 395.459315 229.878357 
L 407.869657 229.878357 
L 410.972242 230.150934 
L 448.203268 230.150934 
L 451.305854 229.315752 
L 463.716196 229.315752 
L 466.818781 230.150934 
L 469.921367 229.828652 
L 482.331709 229.828652 
L 485.434294 230.150934 
L 488.53688 229.368249 
L 494.742051 229.368249 
L 497.844636 229.067216 
L 500.947222 228.407121 
L 504.049807 229.189805 
L 510.254978 229.189805 
L 516.460149 229.765103 
L 522.66532 229.765103 
L 525.767906 228.922212 
L 528.870491 228.525198 
L 531.973077 228.911028 
L 535.075662 227.773563 
L 538.178247 227.773563 
L 541.280833 228.495509 
L 544.383418 228.892523 
L 547.486004 228.162018 
L 550.588589 229.299483 
L 553.691175 229.299483 
L 556.79376 229.420428 
L 559.896346 229.420428 
L 562.998931 229.773086 
L 569.204102 229.773086 
L 572.306688 229.543848 
L 575.409273 228.326338 
L 578.511859 227.444693 
L 581.614444 226.263282 
L 584.71703 225.96225 
L 587.819615 224.82179 
L 590.922201 225.012026 
L 594.024786 225.510575 
L 597.127372 226.181539 
L 600.229957 226.482572 
L 603.332543 227.655191 
L 606.435128 227.854852 
L 609.537714 228.615796 
L 612.640299 228.247292 
L 615.742885 228.134791 
L 618.84547 227.879077 
L 621.948056 228.534129 
L 625.050641 228.212478 
L 628.153227 228.89919 
L 631.255812 228.907926 
L 634.358398 229.360719 
L 643.666154 229.840431 
L 649.871325 229.872201 
L 652.973911 228.829385 
L 659.179082 228.867967 
L 665.384253 228.678277 
L 668.486838 229.651565 
L 674.692009 229.666253 
L 677.794594 229.279369 
L 680.89718 229.411071 
L 683.999765 229.354359 
L 687.102351 229.507827 
L 690.204936 229.441976 
L 693.307522 229.891619 
L 696.410107 229.620838 
L 699.512693 229.747078 
L 705.717864 229.812929 
L 715.02562 229.934912 
L 718.128206 229.684166 
L 727.435962 229.5846 
L 730.538548 229.52023 
L 733.641133 229.710901 
L 739.846304 229.668832 
L 742.94889 229.841453 
L 755.359232 229.678859 
L 758.461817 229.693722 
L 761.564403 229.869889 
L 777.07733 230.150934 
L 795.692843 229.888446 
L 805.000599 229.91277 
L 811.20577 229.980914 
L 836.026454 230.050035 
L 839.12904 230.050035 
L 842.231625 229.112761 
L 851.539382 229.21366 
L 854.641967 228.886078 
L 857.744553 229.077939 
L 860.847138 229.077939 
L 867.052309 228.639263 
L 870.154895 228.966845 
L 873.25748 229.432728 
L 876.360066 229.432728 
L 879.462651 229.642644 
L 882.565237 229.514091 
L 885.667822 229.514091 
L 888.770408 228.797477 
L 894.975579 228.797477 
L 898.078164 229.154789 
L 901.18075 228.800404 
L 904.283335 229.476775 
L 907.385921 229.476775 
L 910.488506 228.652896 
L 913.591092 228.652896 
L 919.796263 229.265357 
L 922.898848 229.137646 
L 926.001433 229.961525 
L 929.104019 229.961525 
L 935.30919 229.530179 
L 938.411775 229.65789 
L 944.616946 229.584546 
L 950.822117 230.07759 
L 969.43763 230.150934 
L 972.540216 229.886683 
L 984.950558 229.643284 
L 988.053143 229.907534 
L 991.155729 229.903496 
L 994.258314 230.07798 
L 1012.873827 229.997681 
L 1015.976413 229.804935 
L 1022.181584 229.009139 
L 1025.284169 229.009139 
L 1031.48934 229.355137 
L 1034.591926 229.735873 
L 1050.104853 229.583039 
L 1053.207438 229.912969 
L 1056.310024 229.751622 
L 1056.310024 229.751622 
" style="fill:none;stroke:#525886;stroke-linecap:square;stroke-width:2;"/>
   </g>
   <g id="line2d_25">
    <path clip-path="url(#pc1883163e8)" d="M 485.434294 230.090826 
L 491.639465 230.150934 
L 562.998931 230.05168 
L 594.024786 229.990751 
L 615.742885 230.093299 
L 631.255812 230.125592 
L 646.76874 230.056417 
L 649.871325 229.907029 
L 656.076496 229.818945 
L 662.281667 229.763955 
L 665.384253 229.833709 
L 674.692009 229.721736 
L 687.102351 229.796258 
L 690.204936 229.477579 
L 693.307522 229.371016 
L 696.410107 229.398632 
L 699.512693 229.201975 
L 702.615278 229.120458 
L 705.717864 229.359329 
L 724.333377 229.664446 
L 727.435962 229.270332 
L 730.538548 229.448844 
L 736.743719 229.354461 
L 739.846304 229.094972 
L 742.94889 229.438877 
L 752.256646 229.503836 
L 755.359232 229.669748 
L 758.461817 229.546258 
L 761.564403 229.542286 
L 764.666988 229.235425 
L 767.769574 229.159262 
L 773.974745 229.466823 
L 777.07733 229.360996 
L 780.179916 229.74554 
L 783.282501 229.868292 
L 801.898014 229.968595 
L 811.20577 230.103084 
L 817.410941 229.826594 
L 823.616112 229.845082 
L 826.718698 229.767406 
L 832.923869 229.993914 
L 867.052309 230.063612 
L 873.25748 230.004153 
L 882.565237 230.07526 
L 888.770408 230.135356 
L 1099.746221 230.107022 
L 1099.746221 230.107022 
" style="fill:none;stroke:#937252;stroke-linecap:square;stroke-width:2;"/>
   </g>
   <g id="line2d_26">
    <path clip-path="url(#pc1883163e8)" d="M 94.508523 227.660573 
L 97.611108 230.150934 
L 156.560232 230.150934 
L 159.662818 227.10716 
L 172.07316 227.10716 
L 175.175745 230.150934 
L 181.380916 230.150934 
L 184.483502 228.324669 
L 196.893844 228.324669 
L 199.996429 230.150934 
L 227.919699 230.150934 
L 231.022284 226.092568 
L 234.12487 226.092568 
L 237.227455 224.611814 
L 243.432626 224.611814 
L 246.535212 228.670179 
L 249.637797 228.670179 
L 252.740383 230.150934 
L 258.945554 230.150934 
L 262.048139 222.324087 
L 265.150725 222.324087 
L 268.25331 218.899841 
L 274.458481 218.899841 
L 277.561067 225.161319 
L 280.663652 220.595658 
L 283.766237 224.019903 
L 286.868823 218.541111 
L 289.971408 213.776943 
L 293.073994 215.342312 
L 296.176579 219.907973 
L 299.279165 219.907973 
L 302.38175 225.386766 
L 305.484336 230.150934 
L 314.792092 230.150934 
L 317.894678 221.500208 
L 320.997263 211.407695 
L 324.099849 206.334738 
L 330.30502 206.334738 
L 333.407605 199.199112 
L 336.510191 203.204077 
L 339.612776 191.419209 
L 342.715362 186.438489 
L 345.817947 179.133431 
L 348.920533 192.036209 
L 352.023118 190.652675 
L 355.125704 194.65901 
L 358.228289 189.366994 
L 361.330875 180.844427 
L 364.43346 181.536485 
L 370.638631 187.735945 
L 373.741217 191.921134 
L 376.843802 195.502045 
L 379.946388 186.226321 
L 383.048973 182.180443 
L 386.151559 182.914285 
L 389.254144 181.874947 
L 392.35673 191.973114 
L 395.459315 198.744247 
L 398.561901 198.662413 
L 401.664486 199.926875 
L 407.869657 186.642571 
L 410.972242 176.166638 
L 414.074828 181.867747 
L 417.177413 178.831566 
L 420.279999 180.994247 
L 423.382584 165.713167 
L 426.48517 166.209871 
L 429.587755 155.901272 
L 432.690341 152.017667 
L 435.792926 144.302155 
L 438.895512 156.461128 
L 445.100683 154.579574 
L 448.203268 149.318249 
L 451.305854 150.305419 
L 454.408439 147.419269 
L 457.511025 142.042249 
L 460.61361 146.053559 
L 463.716196 152.16436 
L 466.818781 150.658162 
L 469.921367 150.462491 
L 473.023952 155.833857 
L 476.126538 145.195802 
L 479.229123 142.893788 
L 482.331709 142.739746 
L 485.434294 140.610215 
L 488.53688 135.791669 
L 491.639465 140.486745 
L 494.742051 129.723744 
L 497.844636 124.861612 
L 500.947222 123.795181 
L 504.049807 121.713588 
L 507.152393 108.671687 
L 510.254978 108.15482 
L 513.357564 105.846903 
L 516.460149 89.129561 
L 519.562735 92.111569 
L 525.767906 96.351306 
L 528.870491 91.055794 
L 531.973077 97.35485 
L 535.075662 86.270632 
L 538.178247 84.073 
L 541.280833 81.702368 
L 544.383418 87.479533 
L 547.486004 85.516366 
L 550.588589 90.252312 
L 553.691175 84.282122 
L 556.79376 86.37179 
L 559.896346 76.709682 
L 562.998931 73.456211 
L 566.101517 68.77487 
L 569.204102 77.299316 
L 572.306688 73.550668 
L 575.409273 74.357474 
L 578.511859 81.437792 
L 581.614444 79.407349 
L 584.71703 70.967261 
L 587.819615 67.908923 
L 590.922201 73.760409 
L 594.024786 73.766544 
L 597.127372 70.327295 
L 600.229957 70.056038 
L 606.435128 60.271332 
L 609.537714 48.649123 
L 612.640299 42.357532 
L 615.742885 38.67806 
L 618.84547 35.636324 
L 621.948056 31.695935 
L 625.050641 30.532528 
L 628.153227 31.357378 
L 631.255812 36.987281 
L 637.460983 45.742532 
L 640.563569 50.4933 
L 643.666154 56.989274 
L 646.76874 56.144564 
L 649.871325 60.536531 
L 652.973911 65.300112 
L 656.076496 62.068464 
L 659.179082 62.962995 
L 662.281667 70.777506 
L 665.384253 66.575775 
L 668.486838 58.859338 
L 671.589423 62.714577 
L 674.692009 72.161418 
L 677.794594 66.845295 
L 680.89718 66.803353 
L 683.999765 77.233597 
L 687.102351 74.589325 
L 690.204936 64.547296 
L 693.307522 61.63989 
L 696.410107 69.187137 
L 699.512693 60.465211 
L 702.615278 61.659124 
L 705.717864 59.293765 
L 708.820449 59.762918 
L 711.923035 49.78627 
L 715.02562 47.884162 
L 718.128206 53.769281 
L 721.230791 48.988617 
L 724.333377 41.435898 
L 727.435962 37.058749 
L 730.538548 42.573852 
L 733.641133 37.548301 
L 736.743719 43.092076 
L 739.846304 55.533635 
L 742.94889 62.569892 
L 746.051475 57.076029 
L 749.154061 52.351511 
L 752.256646 49.824656 
L 755.359232 41.159433 
L 758.461817 41.895143 
L 761.564403 45.241744 
L 764.666988 47.112723 
L 767.769574 43.818226 
L 770.872159 42.188848 
L 773.974745 39.784719 
L 777.07733 36.601246 
L 780.179916 35.176019 
L 783.282501 47.436454 
L 786.385087 48.463946 
L 789.487672 40.737183 
L 792.590258 36.261915 
L 795.692843 37.494768 
L 798.795428 29.632765 
L 801.898014 27.322404 
L 805.000599 36.231222 
L 808.103185 44.151778 
L 811.20577 38.716895 
L 814.308356 36.302574 
L 817.410941 33.369405 
L 820.513527 26.541224 
L 823.616112 18.950934 
L 826.718698 26.15443 
L 829.821283 34.59332 
L 832.923869 40.584331 
L 836.026454 48.240813 
L 839.12904 60.849908 
L 842.231625 71.457611 
L 845.334211 73.60467 
L 848.436796 88.153983 
L 851.539382 90.623293 
L 854.641967 84.005862 
L 857.744553 76.22452 
L 860.847138 71.691073 
L 863.949724 61.424785 
L 867.052309 61.759592 
L 870.154895 64.773706 
L 873.25748 59.14514 
L 879.462651 53.642601 
L 882.565237 48.598181 
L 885.667822 48.398278 
L 888.770408 58.843365 
L 891.872993 68.041901 
L 894.975579 64.574213 
L 898.078164 66.577484 
L 901.18075 61.468623 
L 904.283335 56.84601 
L 907.385921 47.643126 
L 910.488506 52.877415 
L 913.591092 56.833907 
L 916.693677 57.208886 
L 919.796263 52.17432 
L 922.898848 53.215285 
L 926.001433 52.197989 
L 929.104019 46.37621 
L 932.206604 52.862428 
L 935.30919 58.423979 
L 938.411775 61.013413 
L 941.514361 61.151768 
L 944.616946 64.025352 
L 947.719532 63.313821 
L 950.822117 68.013981 
L 953.924703 68.189761 
L 957.027288 71.080678 
L 960.129874 74.51033 
L 963.232459 73.705904 
L 966.335045 72.030556 
L 969.43763 75.90445 
L 975.642801 90.178555 
L 978.745387 93.540268 
L 981.847972 93.080362 
L 984.950558 93.69574 
L 988.053143 94.025362 
L 991.155729 92.554494 
L 994.258314 96.876856 
L 997.3609 99.033162 
L 1000.463485 102.25116 
L 1003.566071 104.39362 
L 1006.668656 108.317114 
L 1009.771242 116.09362 
L 1012.873827 122.167735 
L 1015.976413 131.976715 
L 1019.078998 138.754162 
L 1022.181584 144.181342 
L 1025.284169 138.621253 
L 1028.386755 146.628109 
L 1031.48934 150.670754 
L 1034.591926 155.958282 
L 1037.694511 162.012239 
L 1040.797097 172.048466 
L 1043.899682 179.05327 
L 1047.002268 186.81761 
L 1053.207438 193.480021 
L 1056.310024 195.289832 
L 1059.412609 191.775408 
L 1062.515195 185.606595 
L 1065.61778 182.974455 
L 1068.720366 184.360459 
L 1071.822951 185.237331 
L 1074.925537 182.636486 
L 1078.028122 189.031649 
L 1081.130708 196.046823 
L 1084.233293 199.813493 
L 1087.335879 206.562509 
L 1090.438464 216.191179 
L 1093.54105 208.730695 
L 1096.643635 194.428911 
L 1099.746221 173.883438 
L 1102.848806 176.622834 
L 1105.951392 161.583011 
L 1109.053977 136.015311 
L 1109.053977 136.015311 
" style="fill:none;stroke:#d18cad;stroke-linecap:square;stroke-width:2;"/>
   </g>
   <g id="line2d_27">
    <path clip-path="url(#pc1883163e8)" d="M 562.998931 202.756969 
L 566.101517 222.324087 
L 569.204102 222.324087 
L 572.306688 222.324087 
L 575.409273 219.280313 
L 578.511859 219.280313 
L 581.614444 227.10716 
L 584.71703 227.10716 
L 587.819615 227.10716 
L 590.922201 230.150934 
L 594.024786 230.150934 
L 597.127372 230.150934 
L 600.229957 230.150934 
L 603.332543 225.936478 
L 606.435128 225.936478 
L 609.537714 225.936478 
L 612.640299 225.936478 
L 615.742885 225.936478 
L 618.84547 230.150934 
L 621.948056 230.150934 
L 625.050641 230.150934 
L 628.153227 230.150934 
L 631.255812 227.541985 
L 634.358398 227.541985 
L 637.460983 227.541985 
L 640.563569 227.541985 
L 643.666154 227.541985 
L 646.76874 230.150934 
L 649.871325 230.150934 
L 652.973911 230.150934 
L 656.076496 230.150934 
L 659.179082 225.170213 
L 662.281667 225.170213 
L 665.384253 225.170213 
L 668.486838 217.343366 
L 671.589423 217.343366 
L 674.692009 222.324087 
L 677.794594 222.324087 
L 680.89718 222.324087 
L 683.999765 227.541985 
L 687.102351 227.541985 
L 690.204936 227.541985 
L 693.307522 227.541985 
L 696.410107 227.541985 
L 699.512693 230.150934 
L 702.615278 230.150934 
L 705.717864 230.150934 
L 708.820449 230.150934 
L 711.923035 225.585273 
L 715.02562 225.585273 
L 718.128206 225.585273 
L 721.230791 225.585273 
L 724.333377 225.585273 
L 727.435962 230.150934 
L 730.538548 230.150934 
L 733.641133 230.150934 
L 736.743719 230.150934 
L 739.846304 230.150934 
L 742.94889 230.150934 
L 746.051475 230.150934 
L 749.154061 230.150934 
L 752.256646 230.150934 
L 755.359232 230.150934 
L 758.461817 230.150934 
L 761.564403 230.150934 
L 764.666988 230.150934 
L 767.769574 230.150934 
L 770.872159 230.150934 
L 773.974745 230.150934 
L 777.07733 219.193348 
L 780.179916 219.193348 
L 783.282501 219.193348 
L 786.385087 219.193348 
L 789.487672 219.193348 
L 792.590258 230.150934 
L 795.692843 230.150934 
L 798.795428 230.150934 
L 801.898014 230.150934 
L 805.000599 230.150934 
L 808.103185 230.150934 
L 811.20577 230.150934 
L 814.308356 230.150934 
L 817.410941 230.150934 
L 820.513527 230.150934 
L 823.616112 230.150934 
L 826.718698 230.150934 
L 829.821283 230.150934 
L 832.923869 222.324087 
" style="fill:none;stroke:#a4a86f;stroke-linecap:square;stroke-width:2;"/>
   </g>
   <g id="line2d_28">
    <path clip-path="url(#pc1883163e8)" style="fill:none;stroke:#d3d3d3;stroke-linecap:square;stroke-width:2;"/>
   </g>
   <g id="patch_3">
    <path d="M 43.78125 230.150934 
L 43.78125 8.390934 
" style="fill:none;stroke:#000000;stroke-linecap:square;stroke-linejoin:miter;stroke-width:0.8;"/>
   </g>
   <g id="patch_4">
    <path d="M 43.78125 230.150934 
L 1159.78125 230.150934 
" style="fill:none;stroke:#000000;stroke-linecap:square;stroke-linejoin:miter;stroke-width:0.8;"/>
   </g>
   <g id="legend_1">
    <g id="line2d_29">
     <path d="M 1065.97 18.869684 
L 1081.97 18.869684 
" style="fill:none;stroke:#947383;stroke-linecap:square;stroke-width:2;"/>
    </g>
    <g id="line2d_30"/>
    <g id="text_24">
     <!-- North America -->
     <g transform="translate(1088.37 21.669684)scale(0.08 -0.08)">
      <defs>
       <path d="M 628 4666 
L 1478 4666 
L 3547 763 
L 3547 4666 
L 4159 4666 
L 4159 0 
L 3309 0 
L 1241 3903 
L 1241 0 
L 628 0 
L 628 4666 
z
" id="DejaVuSans-4e" transform="scale(0.015625)"/>
       <path d="M 3513 2113 
L 3513 0 
L 2938 0 
L 2938 2094 
Q 2938 2591 2744 2837 
Q 2550 3084 2163 3084 
Q 1697 3084 1428 2787 
Q 1159 2491 1159 1978 
L 1159 0 
L 581 0 
L 581 4863 
L 1159 4863 
L 1159 2956 
Q 1366 3272 1645 3428 
Q 1925 3584 2291 3584 
Q 2894 3584 3203 3211 
Q 3513 2838 3513 2113 
z
" id="DejaVuSans-68" transform="scale(0.015625)"/>
       <path d="M 2188 4044 
L 1331 1722 
L 3047 1722 
L 2188 4044 
z
M 1831 4666 
L 2547 4666 
L 4325 0 
L 3669 0 
L 3244 1197 
L 1141 1197 
L 716 0 
L 50 0 
L 1831 4666 
z
" id="DejaVuSans-41" transform="scale(0.015625)"/>
       <path d="M 3328 2828 
Q 3544 3216 3844 3400 
Q 4144 3584 4550 3584 
Q 5097 3584 5394 3201 
Q 5691 2819 5691 2113 
L 5691 0 
L 5113 0 
L 5113 2094 
Q 5113 2597 4934 2840 
Q 4756 3084 4391 3084 
Q 3944 3084 3684 2787 
Q 3425 2491 3425 1978 
L 3425 0 
L 2847 0 
L 2847 2094 
Q 2847 2600 2669 2842 
Q 2491 3084 2119 3084 
Q 1678 3084 1418 2786 
Q 1159 2488 1159 1978 
L 1159 0 
L 581 0 
L 581 3500 
L 1159 3500 
L 1159 2956 
Q 1356 3278 1631 3431 
Q 1906 3584 2284 3584 
Q 2666 3584 2933 3390 
Q 3200 3197 3328 2828 
z
" id="DejaVuSans-6d" transform="scale(0.015625)"/>
      </defs>
      <use xlink:href="#DejaVuSans-4e"/>
      <use x="74.804688" xlink:href="#DejaVuSans-6f"/>
      <use x="135.986328" xlink:href="#DejaVuSans-72"/>
      <use x="177.099609" xlink:href="#DejaVuSans-74"/>
      <use x="216.308594" xlink:href="#DejaVuSans-68"/>
      <use x="279.6875" xlink:href="#DejaVuSans-20"/>
      <use x="311.474609" xlink:href="#DejaVuSans-41"/>
      <use x="379.882812" xlink:href="#DejaVuSans-6d"/>
      <use x="477.294922" xlink:href="#DejaVuSans-65"/>
      <use x="538.818359" xlink:href="#DejaVuSans-72"/>
      <use x="579.931641" xlink:href="#DejaVuSans-69"/>
      <use x="607.714844" xlink:href="#DejaVuSans-63"/>
      <use x="662.695312" xlink:href="#DejaVuSans-61"/>
     </g>
    </g>
    <g id="line2d_31">
     <path d="M 1065.97 30.612184 
L 1081.97 30.612184 
" style="fill:none;stroke:#96c6ad;stroke-linecap:square;stroke-width:2;"/>
    </g>
    <g id="line2d_32"/>
    <g id="text_25">
     <!-- Europe -->
     <g transform="translate(1088.37 33.412184)scale(0.08 -0.08)">
      <defs>
       <path d="M 628 4666 
L 3578 4666 
L 3578 4134 
L 1259 4134 
L 1259 2753 
L 3481 2753 
L 3481 2222 
L 1259 2222 
L 1259 531 
L 3634 531 
L 3634 0 
L 628 0 
L 628 4666 
z
" id="DejaVuSans-45" transform="scale(0.015625)"/>
       <path d="M 1159 525 
L 1159 -1331 
L 581 -1331 
L 581 3500 
L 1159 3500 
L 1159 2969 
Q 1341 3281 1617 3432 
Q 1894 3584 2278 3584 
Q 2916 3584 3314 3078 
Q 3713 2572 3713 1747 
Q 3713 922 3314 415 
Q 2916 -91 2278 -91 
Q 1894 -91 1617 61 
Q 1341 213 1159 525 
z
M 3116 1747 
Q 3116 2381 2855 2742 
Q 2594 3103 2138 3103 
Q 1681 3103 1420 2742 
Q 1159 2381 1159 1747 
Q 1159 1113 1420 752 
Q 1681 391 2138 391 
Q 2594 391 2855 752 
Q 3116 1113 3116 1747 
z
" id="DejaVuSans-70" transform="scale(0.015625)"/>
      </defs>
      <use xlink:href="#DejaVuSans-45"/>
      <use x="63.183594" xlink:href="#DejaVuSans-75"/>
      <use x="126.5625" xlink:href="#DejaVuSans-72"/>
      <use x="165.425781" xlink:href="#DejaVuSans-6f"/>
      <use x="226.607422" xlink:href="#DejaVuSans-70"/>
      <use x="290.083984" xlink:href="#DejaVuSans-65"/>
     </g>
    </g>
    <g id="line2d_33">
     <path d="M 1065.97 42.354684 
L 1081.97 42.354684 
" style="fill:none;stroke:#525886;stroke-linecap:square;stroke-width:2;"/>
    </g>
    <g id="line2d_34"/>
    <g id="text_26">
     <!-- Asia -->
     <g transform="translate(1088.37 45.154684)scale(0.08 -0.08)">
      <defs>
       <path d="M 2834 3397 
L 2834 2853 
Q 2591 2978 2328 3040 
Q 2066 3103 1784 3103 
Q 1356 3103 1142 2972 
Q 928 2841 928 2578 
Q 928 2378 1081 2264 
Q 1234 2150 1697 2047 
L 1894 2003 
Q 2506 1872 2764 1633 
Q 3022 1394 3022 966 
Q 3022 478 2636 193 
Q 2250 -91 1575 -91 
Q 1294 -91 989 -36 
Q 684 19 347 128 
L 347 722 
Q 666 556 975 473 
Q 1284 391 1588 391 
Q 1994 391 2212 530 
Q 2431 669 2431 922 
Q 2431 1156 2273 1281 
Q 2116 1406 1581 1522 
L 1381 1569 
Q 847 1681 609 1914 
Q 372 2147 372 2553 
Q 372 3047 722 3315 
Q 1072 3584 1716 3584 
Q 2034 3584 2315 3537 
Q 2597 3491 2834 3397 
z
" id="DejaVuSans-73" transform="scale(0.015625)"/>
      </defs>
      <use xlink:href="#DejaVuSans-41"/>
      <use x="68.408203" xlink:href="#DejaVuSans-73"/>
      <use x="120.507812" xlink:href="#DejaVuSans-69"/>
      <use x="148.291016" xlink:href="#DejaVuSans-61"/>
     </g>
    </g>
    <g id="line2d_35">
     <path d="M 1065.97 54.097184 
L 1081.97 54.097184 
" style="fill:none;stroke:#937252;stroke-linecap:square;stroke-width:2;"/>
    </g>
    <g id="line2d_36"/>
    <g id="text_27">
     <!-- United Kingdom -->
     <g transform="translate(1088.37 56.897184)scale(0.08 -0.08)">
      <defs>
       <path d="M 556 4666 
L 1191 4666 
L 1191 1831 
Q 1191 1081 1462 751 
Q 1734 422 2344 422 
Q 2950 422 3222 751 
Q 3494 1081 3494 1831 
L 3494 4666 
L 4128 4666 
L 4128 1753 
Q 4128 841 3676 375 
Q 3225 -91 2344 -91 
Q 1459 -91 1007 375 
Q 556 841 556 1753 
L 556 4666 
z
" id="DejaVuSans-55" transform="scale(0.015625)"/>
       <path d="M 628 4666 
L 1259 4666 
L 1259 2694 
L 3353 4666 
L 4166 4666 
L 1850 2491 
L 4331 0 
L 3500 0 
L 1259 2247 
L 1259 0 
L 628 0 
L 628 4666 
z
" id="DejaVuSans-4b" transform="scale(0.015625)"/>
      </defs>
      <use xlink:href="#DejaVuSans-55"/>
      <use x="73.193359" xlink:href="#DejaVuSans-6e"/>
      <use x="136.572266" xlink:href="#DejaVuSans-69"/>
      <use x="164.355469" xlink:href="#DejaVuSans-74"/>
      <use x="203.564453" xlink:href="#DejaVuSans-65"/>
      <use x="265.087891" xlink:href="#DejaVuSans-64"/>
      <use x="328.564453" xlink:href="#DejaVuSans-20"/>
      <use x="360.351562" xlink:href="#DejaVuSans-4b"/>
      <use x="425.927734" xlink:href="#DejaVuSans-69"/>
      <use x="453.710938" xlink:href="#DejaVuSans-6e"/>
      <use x="517.089844" xlink:href="#DejaVuSans-67"/>
      <use x="580.566406" xlink:href="#DejaVuSans-64"/>
      <use x="644.042969" xlink:href="#DejaVuSans-6f"/>
      <use x="705.224609" xlink:href="#DejaVuSans-6d"/>
     </g>
    </g>
    <g id="line2d_37">
     <path d="M 1065.97 65.839684 
L 1081.97 65.839684 
" style="fill:none;stroke:#d18cad;stroke-linecap:square;stroke-width:2;"/>
    </g>
    <g id="line2d_38"/>
    <g id="text_28">
     <!-- South America -->
     <g transform="translate(1088.37 68.639684)scale(0.08 -0.08)">
      <defs>
       <path d="M 3425 4513 
L 3425 3897 
Q 3066 4069 2747 4153 
Q 2428 4238 2131 4238 
Q 1616 4238 1336 4038 
Q 1056 3838 1056 3469 
Q 1056 3159 1242 3001 
Q 1428 2844 1947 2747 
L 2328 2669 
Q 3034 2534 3370 2195 
Q 3706 1856 3706 1288 
Q 3706 609 3251 259 
Q 2797 -91 1919 -91 
Q 1588 -91 1214 -16 
Q 841 59 441 206 
L 441 856 
Q 825 641 1194 531 
Q 1563 422 1919 422 
Q 2459 422 2753 634 
Q 3047 847 3047 1241 
Q 3047 1584 2836 1778 
Q 2625 1972 2144 2069 
L 1759 2144 
Q 1053 2284 737 2584 
Q 422 2884 422 3419 
Q 422 4038 858 4394 
Q 1294 4750 2059 4750 
Q 2388 4750 2728 4690 
Q 3069 4631 3425 4513 
z
" id="DejaVuSans-53" transform="scale(0.015625)"/>
      </defs>
      <use xlink:href="#DejaVuSans-53"/>
      <use x="63.476562" xlink:href="#DejaVuSans-6f"/>
      <use x="124.658203" xlink:href="#DejaVuSans-75"/>
      <use x="188.037109" xlink:href="#DejaVuSans-74"/>
      <use x="227.246094" xlink:href="#DejaVuSans-68"/>
      <use x="290.625" xlink:href="#DejaVuSans-20"/>
      <use x="322.412109" xlink:href="#DejaVuSans-41"/>
      <use x="390.820312" xlink:href="#DejaVuSans-6d"/>
      <use x="488.232422" xlink:href="#DejaVuSans-65"/>
      <use x="549.755859" xlink:href="#DejaVuSans-72"/>
      <use x="590.869141" xlink:href="#DejaVuSans-69"/>
      <use x="618.652344" xlink:href="#DejaVuSans-63"/>
      <use x="673.632812" xlink:href="#DejaVuSans-61"/>
     </g>
    </g>
    <g id="line2d_39">
     <path d="M 1065.97 77.582184 
L 1081.97 77.582184 
" style="fill:none;stroke:#a4a86f;stroke-linecap:square;stroke-width:2;"/>
    </g>
    <g id="line2d_40"/>
    <g id="text_29">
     <!-- Oceania -->
     <g transform="translate(1088.37 80.382184)scale(0.08 -0.08)">
      <defs>
       <path d="M 2522 4238 
Q 1834 4238 1429 3725 
Q 1025 3213 1025 2328 
Q 1025 1447 1429 934 
Q 1834 422 2522 422 
Q 3209 422 3611 934 
Q 4013 1447 4013 2328 
Q 4013 3213 3611 3725 
Q 3209 4238 2522 4238 
z
M 2522 4750 
Q 3503 4750 4090 4092 
Q 4678 3434 4678 2328 
Q 4678 1225 4090 567 
Q 3503 -91 2522 -91 
Q 1538 -91 948 565 
Q 359 1222 359 2328 
Q 359 3434 948 4092 
Q 1538 4750 2522 4750 
z
" id="DejaVuSans-4f" transform="scale(0.015625)"/>
      </defs>
      <use xlink:href="#DejaVuSans-4f"/>
      <use x="78.710938" xlink:href="#DejaVuSans-63"/>
      <use x="133.691406" xlink:href="#DejaVuSans-65"/>
      <use x="195.214844" xlink:href="#DejaVuSans-61"/>
      <use x="256.494141" xlink:href="#DejaVuSans-6e"/>
      <use x="319.873047" xlink:href="#DejaVuSans-69"/>
      <use x="347.65625" xlink:href="#DejaVuSans-61"/>
     </g>
    </g>
    <g id="line2d_41">
     <path d="M 1065.97 89.324684 
L 1081.97 89.324684 
" style="fill:none;stroke:#d3d3d3;stroke-linecap:square;stroke-width:2;"/>
    </g>
    <g id="line2d_42"/>
    <g id="text_30">
     <!-- Africa -->
     <g transform="translate(1088.37 92.124684)scale(0.08 -0.08)">
      <defs>
       <path d="M 2375 4863 
L 2375 4384 
L 1825 4384 
Q 1516 4384 1395 4259 
Q 1275 4134 1275 3809 
L 1275 3500 
L 2222 3500 
L 2222 3053 
L 1275 3053 
L 1275 0 
L 697 0 
L 697 3053 
L 147 3053 
L 147 3500 
L 697 3500 
L 697 3744 
Q 697 4328 969 4595 
Q 1241 4863 1831 4863 
L 2375 4863 
z
" id="DejaVuSans-66" transform="scale(0.015625)"/>
      </defs>
      <use xlink:href="#DejaVuSans-41"/>
      <use x="64.783203" xlink:href="#DejaVuSans-66"/>
      <use x="99.988281" xlink:href="#DejaVuSans-72"/>
      <use x="141.101562" xlink:href="#DejaVuSans-69"/>
      <use x="168.884766" xlink:href="#DejaVuSans-63"/>
      <use x="223.865234" xlink:href="#DejaVuSans-61"/>
     </g>
    </g>
   </g>
  </g>
 </g>
 <defs>
  <clipPath id="pc1883163e8">
   <rect height="221.76" width="1116" x="43.78125" y="8.390934"/>
  </clipPath>
 </defs>
</svg>
