<?xml version="1.0" encoding="utf-8" standalone="no"?>
<!DOCTYPE svg PUBLIC "-//W3C//DTD SVG 1.1//EN"
  "http://www.w3.org/Graphics/SVG/1.1/DTD/svg11.dtd">
<svg height="298.620937pt" version="1.1" viewBox="0 0 1166.98125 298.620937" width="1166.98125pt" xmlns="http://www.w3.org/2000/svg" xmlns:xlink="http://www.w3.org/1999/xlink">
 <metadata>
  <rdf:RDF xmlns:cc="http://creativecommons.org/ns#" xmlns:dc="http://purl.org/dc/elements/1.1/" xmlns:rdf="http://www.w3.org/1999/02/22-rdf-syntax-ns#">
   <cc:Work>
    <dc:type rdf:resource="http://purl.org/dc/dcmitype/StillImage"/>
    <dc:date>2021-11-08T14:56:44.695831</dc:date>
    <dc:format>image/svg+xml</dc:format>
    <dc:creator>
     <cc:Agent>
      <dc:title>Matplotlib v3.4.2, https://matplotlib.org/</dc:title>
     </cc:Agent>
    </dc:creator>
   </cc:Work>
  </rdf:RDF>
 </metadata>
 <defs>
  <style type="text/css">*{stroke-linecap:butt;stroke-linejoin:round;}</style>
 </defs>
 <g id="figure_1">
  <g id="patch_1">
   <path d="M 0 298.620937 
L 1166.98125 298.620937 
L 1166.98125 0 
L 0 0 
z
" style="fill:#ffffff;"/>
  </g>
  <g id="axes_1">
   <g id="patch_2">
    <path d="M 43.78125 228.96 
L 1159.78125 228.96 
L 1159.78125 7.2 
L 43.78125 7.2 
z
" style="fill:#ffffff;"/>
   </g>
   <g id="matplotlib.axis_1">
    <g id="xtick_1">
     <g id="line2d_1">
      <defs>
       <path d="M 0 0 
L 0 3.5 
" id="m5c232ed1e3" style="stroke:#000000;stroke-width:0.8;"/>
      </defs>
      <g>
       <use style="stroke:#000000;stroke-width:0.8;" x="166.030004" xlink:href="#m5c232ed1e3" y="228.96"/>
      </g>
     </g>
     <g id="text_1">
      <!-- 2020-11 -->
      <g transform="translate(168.789379 277.742812)rotate(-90)scale(0.1 -0.1)">
       <defs>
        <path d="M 1228 531 
L 3431 531 
L 3431 0 
L 469 0 
L 469 531 
Q 828 903 1448 1529 
Q 2069 2156 2228 2338 
Q 2531 2678 2651 2914 
Q 2772 3150 2772 3378 
Q 2772 3750 2511 3984 
Q 2250 4219 1831 4219 
Q 1534 4219 1204 4116 
Q 875 4013 500 3803 
L 500 4441 
Q 881 4594 1212 4672 
Q 1544 4750 1819 4750 
Q 2544 4750 2975 4387 
Q 3406 4025 3406 3419 
Q 3406 3131 3298 2873 
Q 3191 2616 2906 2266 
Q 2828 2175 2409 1742 
Q 1991 1309 1228 531 
z
" id="DejaVuSans-32" transform="scale(0.015625)"/>
        <path d="M 2034 4250 
Q 1547 4250 1301 3770 
Q 1056 3291 1056 2328 
Q 1056 1369 1301 889 
Q 1547 409 2034 409 
Q 2525 409 2770 889 
Q 3016 1369 3016 2328 
Q 3016 3291 2770 3770 
Q 2525 4250 2034 4250 
z
M 2034 4750 
Q 2819 4750 3233 4129 
Q 3647 3509 3647 2328 
Q 3647 1150 3233 529 
Q 2819 -91 2034 -91 
Q 1250 -91 836 529 
Q 422 1150 422 2328 
Q 422 3509 836 4129 
Q 1250 4750 2034 4750 
z
" id="DejaVuSans-30" transform="scale(0.015625)"/>
        <path d="M 313 2009 
L 1997 2009 
L 1997 1497 
L 313 1497 
L 313 2009 
z
" id="DejaVuSans-2d" transform="scale(0.015625)"/>
        <path d="M 794 531 
L 1825 531 
L 1825 4091 
L 703 3866 
L 703 4441 
L 1819 4666 
L 2450 4666 
L 2450 531 
L 3481 531 
L 3481 0 
L 794 0 
L 794 531 
z
" id="DejaVuSans-31" transform="scale(0.015625)"/>
       </defs>
       <use xlink:href="#DejaVuSans-32"/>
       <use x="63.623047" xlink:href="#DejaVuSans-30"/>
       <use x="127.246094" xlink:href="#DejaVuSans-32"/>
       <use x="190.869141" xlink:href="#DejaVuSans-30"/>
       <use x="254.492188" xlink:href="#DejaVuSans-2d"/>
       <use x="290.576172" xlink:href="#DejaVuSans-31"/>
       <use x="354.199219" xlink:href="#DejaVuSans-31"/>
      </g>
     </g>
    </g>
    <g id="xtick_2">
     <g id="line2d_2">
      <g>
       <use style="stroke:#000000;stroke-width:0.8;" x="327.615572" xlink:href="#m5c232ed1e3" y="228.96"/>
      </g>
     </g>
     <g id="text_2">
      <!-- 2021-01 -->
      <g transform="translate(330.374947 277.742812)rotate(-90)scale(0.1 -0.1)">
       <use xlink:href="#DejaVuSans-32"/>
       <use x="63.623047" xlink:href="#DejaVuSans-30"/>
       <use x="127.246094" xlink:href="#DejaVuSans-32"/>
       <use x="190.869141" xlink:href="#DejaVuSans-31"/>
       <use x="254.492188" xlink:href="#DejaVuSans-2d"/>
       <use x="290.576172" xlink:href="#DejaVuSans-30"/>
       <use x="354.199219" xlink:href="#DejaVuSans-31"/>
      </g>
     </g>
    </g>
    <g id="xtick_3">
     <g id="line2d_3">
      <g>
       <use style="stroke:#000000;stroke-width:0.8;" x="483.903253" xlink:href="#m5c232ed1e3" y="228.96"/>
      </g>
     </g>
     <g id="text_3">
      <!-- 2021-03 -->
      <g transform="translate(486.662628 277.742812)rotate(-90)scale(0.1 -0.1)">
       <defs>
        <path d="M 2597 2516 
Q 3050 2419 3304 2112 
Q 3559 1806 3559 1356 
Q 3559 666 3084 287 
Q 2609 -91 1734 -91 
Q 1441 -91 1130 -33 
Q 819 25 488 141 
L 488 750 
Q 750 597 1062 519 
Q 1375 441 1716 441 
Q 2309 441 2620 675 
Q 2931 909 2931 1356 
Q 2931 1769 2642 2001 
Q 2353 2234 1838 2234 
L 1294 2234 
L 1294 2753 
L 1863 2753 
Q 2328 2753 2575 2939 
Q 2822 3125 2822 3475 
Q 2822 3834 2567 4026 
Q 2313 4219 1838 4219 
Q 1578 4219 1281 4162 
Q 984 4106 628 3988 
L 628 4550 
Q 988 4650 1302 4700 
Q 1616 4750 1894 4750 
Q 2613 4750 3031 4423 
Q 3450 4097 3450 3541 
Q 3450 3153 3228 2886 
Q 3006 2619 2597 2516 
z
" id="DejaVuSans-33" transform="scale(0.015625)"/>
       </defs>
       <use xlink:href="#DejaVuSans-32"/>
       <use x="63.623047" xlink:href="#DejaVuSans-30"/>
       <use x="127.246094" xlink:href="#DejaVuSans-32"/>
       <use x="190.869141" xlink:href="#DejaVuSans-31"/>
       <use x="254.492188" xlink:href="#DejaVuSans-2d"/>
       <use x="290.576172" xlink:href="#DejaVuSans-30"/>
       <use x="354.199219" xlink:href="#DejaVuSans-33"/>
      </g>
     </g>
    </g>
    <g id="xtick_4">
     <g id="line2d_4">
      <g>
       <use style="stroke:#000000;stroke-width:0.8;" x="645.488822" xlink:href="#m5c232ed1e3" y="228.96"/>
      </g>
     </g>
     <g id="text_4">
      <!-- 2021-05 -->
      <g transform="translate(648.248197 277.742812)rotate(-90)scale(0.1 -0.1)">
       <defs>
        <path d="M 691 4666 
L 3169 4666 
L 3169 4134 
L 1269 4134 
L 1269 2991 
Q 1406 3038 1543 3061 
Q 1681 3084 1819 3084 
Q 2600 3084 3056 2656 
Q 3513 2228 3513 1497 
Q 3513 744 3044 326 
Q 2575 -91 1722 -91 
Q 1428 -91 1123 -41 
Q 819 9 494 109 
L 494 744 
Q 775 591 1075 516 
Q 1375 441 1709 441 
Q 2250 441 2565 725 
Q 2881 1009 2881 1497 
Q 2881 1984 2565 2268 
Q 2250 2553 1709 2553 
Q 1456 2553 1204 2497 
Q 953 2441 691 2322 
L 691 4666 
z
" id="DejaVuSans-35" transform="scale(0.015625)"/>
       </defs>
       <use xlink:href="#DejaVuSans-32"/>
       <use x="63.623047" xlink:href="#DejaVuSans-30"/>
       <use x="127.246094" xlink:href="#DejaVuSans-32"/>
       <use x="190.869141" xlink:href="#DejaVuSans-31"/>
       <use x="254.492188" xlink:href="#DejaVuSans-2d"/>
       <use x="290.576172" xlink:href="#DejaVuSans-30"/>
       <use x="354.199219" xlink:href="#DejaVuSans-35"/>
      </g>
     </g>
    </g>
    <g id="xtick_5">
     <g id="line2d_5">
      <g>
       <use style="stroke:#000000;stroke-width:0.8;" x="807.07439" xlink:href="#m5c232ed1e3" y="228.96"/>
      </g>
     </g>
     <g id="text_5">
      <!-- 2021-07 -->
      <g transform="translate(809.833765 277.742812)rotate(-90)scale(0.1 -0.1)">
       <defs>
        <path d="M 525 4666 
L 3525 4666 
L 3525 4397 
L 1831 0 
L 1172 0 
L 2766 4134 
L 525 4134 
L 525 4666 
z
" id="DejaVuSans-37" transform="scale(0.015625)"/>
       </defs>
       <use xlink:href="#DejaVuSans-32"/>
       <use x="63.623047" xlink:href="#DejaVuSans-30"/>
       <use x="127.246094" xlink:href="#DejaVuSans-32"/>
       <use x="190.869141" xlink:href="#DejaVuSans-31"/>
       <use x="254.492188" xlink:href="#DejaVuSans-2d"/>
       <use x="290.576172" xlink:href="#DejaVuSans-30"/>
       <use x="354.199219" xlink:href="#DejaVuSans-37"/>
      </g>
     </g>
    </g>
    <g id="xtick_6">
     <g id="line2d_6">
      <g>
       <use style="stroke:#000000;stroke-width:0.8;" x="971.308903" xlink:href="#m5c232ed1e3" y="228.96"/>
      </g>
     </g>
     <g id="text_6">
      <!-- 2021-09 -->
      <g transform="translate(974.068278 277.742812)rotate(-90)scale(0.1 -0.1)">
       <defs>
        <path d="M 703 97 
L 703 672 
Q 941 559 1184 500 
Q 1428 441 1663 441 
Q 2288 441 2617 861 
Q 2947 1281 2994 2138 
Q 2813 1869 2534 1725 
Q 2256 1581 1919 1581 
Q 1219 1581 811 2004 
Q 403 2428 403 3163 
Q 403 3881 828 4315 
Q 1253 4750 1959 4750 
Q 2769 4750 3195 4129 
Q 3622 3509 3622 2328 
Q 3622 1225 3098 567 
Q 2575 -91 1691 -91 
Q 1453 -91 1209 -44 
Q 966 3 703 97 
z
M 1959 2075 
Q 2384 2075 2632 2365 
Q 2881 2656 2881 3163 
Q 2881 3666 2632 3958 
Q 2384 4250 1959 4250 
Q 1534 4250 1286 3958 
Q 1038 3666 1038 3163 
Q 1038 2656 1286 2365 
Q 1534 2075 1959 2075 
z
" id="DejaVuSans-39" transform="scale(0.015625)"/>
       </defs>
       <use xlink:href="#DejaVuSans-32"/>
       <use x="63.623047" xlink:href="#DejaVuSans-30"/>
       <use x="127.246094" xlink:href="#DejaVuSans-32"/>
       <use x="190.869141" xlink:href="#DejaVuSans-31"/>
       <use x="254.492188" xlink:href="#DejaVuSans-2d"/>
       <use x="290.576172" xlink:href="#DejaVuSans-30"/>
       <use x="354.199219" xlink:href="#DejaVuSans-39"/>
      </g>
     </g>
    </g>
    <g id="xtick_7">
     <g id="line2d_7">
      <g>
       <use style="stroke:#000000;stroke-width:0.8;" x="1132.894471" xlink:href="#m5c232ed1e3" y="228.96"/>
      </g>
     </g>
     <g id="text_7">
      <!-- 2021-11 -->
      <g transform="translate(1135.653846 277.742812)rotate(-90)scale(0.1 -0.1)">
       <use xlink:href="#DejaVuSans-32"/>
       <use x="63.623047" xlink:href="#DejaVuSans-30"/>
       <use x="127.246094" xlink:href="#DejaVuSans-32"/>
       <use x="190.869141" xlink:href="#DejaVuSans-31"/>
       <use x="254.492188" xlink:href="#DejaVuSans-2d"/>
       <use x="290.576172" xlink:href="#DejaVuSans-31"/>
       <use x="354.199219" xlink:href="#DejaVuSans-31"/>
      </g>
     </g>
    </g>
    <g id="text_8">
     <!-- Date -->
     <g transform="translate(589.830469 289.34125)scale(0.1 -0.1)">
      <defs>
       <path d="M 1259 4147 
L 1259 519 
L 2022 519 
Q 2988 519 3436 956 
Q 3884 1394 3884 2338 
Q 3884 3275 3436 3711 
Q 2988 4147 2022 4147 
L 1259 4147 
z
M 628 4666 
L 1925 4666 
Q 3281 4666 3915 4102 
Q 4550 3538 4550 2338 
Q 4550 1131 3912 565 
Q 3275 0 1925 0 
L 628 0 
L 628 4666 
z
" id="DejaVuSans-44" transform="scale(0.015625)"/>
       <path d="M 2194 1759 
Q 1497 1759 1228 1600 
Q 959 1441 959 1056 
Q 959 750 1161 570 
Q 1363 391 1709 391 
Q 2188 391 2477 730 
Q 2766 1069 2766 1631 
L 2766 1759 
L 2194 1759 
z
M 3341 1997 
L 3341 0 
L 2766 0 
L 2766 531 
Q 2569 213 2275 61 
Q 1981 -91 1556 -91 
Q 1019 -91 701 211 
Q 384 513 384 1019 
Q 384 1609 779 1909 
Q 1175 2209 1959 2209 
L 2766 2209 
L 2766 2266 
Q 2766 2663 2505 2880 
Q 2244 3097 1772 3097 
Q 1472 3097 1187 3025 
Q 903 2953 641 2809 
L 641 3341 
Q 956 3463 1253 3523 
Q 1550 3584 1831 3584 
Q 2591 3584 2966 3190 
Q 3341 2797 3341 1997 
z
" id="DejaVuSans-61" transform="scale(0.015625)"/>
       <path d="M 1172 4494 
L 1172 3500 
L 2356 3500 
L 2356 3053 
L 1172 3053 
L 1172 1153 
Q 1172 725 1289 603 
Q 1406 481 1766 481 
L 2356 481 
L 2356 0 
L 1766 0 
Q 1100 0 847 248 
Q 594 497 594 1153 
L 594 3053 
L 172 3053 
L 172 3500 
L 594 3500 
L 594 4494 
L 1172 4494 
z
" id="DejaVuSans-74" transform="scale(0.015625)"/>
       <path d="M 3597 1894 
L 3597 1613 
L 953 1613 
Q 991 1019 1311 708 
Q 1631 397 2203 397 
Q 2534 397 2845 478 
Q 3156 559 3463 722 
L 3463 178 
Q 3153 47 2828 -22 
Q 2503 -91 2169 -91 
Q 1331 -91 842 396 
Q 353 884 353 1716 
Q 353 2575 817 3079 
Q 1281 3584 2069 3584 
Q 2775 3584 3186 3129 
Q 3597 2675 3597 1894 
z
M 3022 2063 
Q 3016 2534 2758 2815 
Q 2500 3097 2075 3097 
Q 1594 3097 1305 2825 
Q 1016 2553 972 2059 
L 3022 2063 
z
" id="DejaVuSans-65" transform="scale(0.015625)"/>
      </defs>
      <use xlink:href="#DejaVuSans-44"/>
      <use x="77.001953" xlink:href="#DejaVuSans-61"/>
      <use x="138.28125" xlink:href="#DejaVuSans-74"/>
      <use x="177.490234" xlink:href="#DejaVuSans-65"/>
     </g>
    </g>
   </g>
   <g id="matplotlib.axis_2">
    <g id="ytick_1">
     <g id="line2d_8">
      <defs>
       <path d="M 0 0 
L -3.5 0 
" id="m5a61b6e50f" style="stroke:#000000;stroke-width:0.8;"/>
      </defs>
      <g>
       <use style="stroke:#000000;stroke-width:0.8;" x="43.78125" xlink:href="#m5a61b6e50f" y="228.96"/>
      </g>
     </g>
     <g id="text_9">
      <!-- 0.0 -->
      <g transform="translate(20.878125 232.759219)scale(0.1 -0.1)">
       <defs>
        <path d="M 684 794 
L 1344 794 
L 1344 0 
L 684 0 
L 684 794 
z
" id="DejaVuSans-2e" transform="scale(0.015625)"/>
       </defs>
       <use xlink:href="#DejaVuSans-30"/>
       <use x="63.623047" xlink:href="#DejaVuSans-2e"/>
       <use x="95.410156" xlink:href="#DejaVuSans-30"/>
      </g>
     </g>
    </g>
    <g id="ytick_2">
     <g id="line2d_9">
      <g>
       <use style="stroke:#000000;stroke-width:0.8;" x="43.78125" xlink:href="#m5a61b6e50f" y="196.898843"/>
      </g>
     </g>
     <g id="text_10">
      <!-- 0.1 -->
      <g transform="translate(20.878125 200.698062)scale(0.1 -0.1)">
       <use xlink:href="#DejaVuSans-30"/>
       <use x="63.623047" xlink:href="#DejaVuSans-2e"/>
       <use x="95.410156" xlink:href="#DejaVuSans-31"/>
      </g>
     </g>
    </g>
    <g id="ytick_3">
     <g id="line2d_10">
      <g>
       <use style="stroke:#000000;stroke-width:0.8;" x="43.78125" xlink:href="#m5a61b6e50f" y="164.837686"/>
      </g>
     </g>
     <g id="text_11">
      <!-- 0.2 -->
      <g transform="translate(20.878125 168.636905)scale(0.1 -0.1)">
       <use xlink:href="#DejaVuSans-30"/>
       <use x="63.623047" xlink:href="#DejaVuSans-2e"/>
       <use x="95.410156" xlink:href="#DejaVuSans-32"/>
      </g>
     </g>
    </g>
    <g id="ytick_4">
     <g id="line2d_11">
      <g>
       <use style="stroke:#000000;stroke-width:0.8;" x="43.78125" xlink:href="#m5a61b6e50f" y="132.776529"/>
      </g>
     </g>
     <g id="text_12">
      <!-- 0.3 -->
      <g transform="translate(20.878125 136.575748)scale(0.1 -0.1)">
       <use xlink:href="#DejaVuSans-30"/>
       <use x="63.623047" xlink:href="#DejaVuSans-2e"/>
       <use x="95.410156" xlink:href="#DejaVuSans-33"/>
      </g>
     </g>
    </g>
    <g id="ytick_5">
     <g id="line2d_12">
      <g>
       <use style="stroke:#000000;stroke-width:0.8;" x="43.78125" xlink:href="#m5a61b6e50f" y="100.715372"/>
      </g>
     </g>
     <g id="text_13">
      <!-- 0.4 -->
      <g transform="translate(20.878125 104.514591)scale(0.1 -0.1)">
       <defs>
        <path d="M 2419 4116 
L 825 1625 
L 2419 1625 
L 2419 4116 
z
M 2253 4666 
L 3047 4666 
L 3047 1625 
L 3713 1625 
L 3713 1100 
L 3047 1100 
L 3047 0 
L 2419 0 
L 2419 1100 
L 313 1100 
L 313 1709 
L 2253 4666 
z
" id="DejaVuSans-34" transform="scale(0.015625)"/>
       </defs>
       <use xlink:href="#DejaVuSans-30"/>
       <use x="63.623047" xlink:href="#DejaVuSans-2e"/>
       <use x="95.410156" xlink:href="#DejaVuSans-34"/>
      </g>
     </g>
    </g>
    <g id="ytick_6">
     <g id="line2d_13">
      <g>
       <use style="stroke:#000000;stroke-width:0.8;" x="43.78125" xlink:href="#m5a61b6e50f" y="68.654215"/>
      </g>
     </g>
     <g id="text_14">
      <!-- 0.5 -->
      <g transform="translate(20.878125 72.453434)scale(0.1 -0.1)">
       <use xlink:href="#DejaVuSans-30"/>
       <use x="63.623047" xlink:href="#DejaVuSans-2e"/>
       <use x="95.410156" xlink:href="#DejaVuSans-35"/>
      </g>
     </g>
    </g>
    <g id="ytick_7">
     <g id="line2d_14">
      <g>
       <use style="stroke:#000000;stroke-width:0.8;" x="43.78125" xlink:href="#m5a61b6e50f" y="36.593058"/>
      </g>
     </g>
     <g id="text_15">
      <!-- 0.6 -->
      <g transform="translate(20.878125 40.392277)scale(0.1 -0.1)">
       <defs>
        <path d="M 2113 2584 
Q 1688 2584 1439 2293 
Q 1191 2003 1191 1497 
Q 1191 994 1439 701 
Q 1688 409 2113 409 
Q 2538 409 2786 701 
Q 3034 994 3034 1497 
Q 3034 2003 2786 2293 
Q 2538 2584 2113 2584 
z
M 3366 4563 
L 3366 3988 
Q 3128 4100 2886 4159 
Q 2644 4219 2406 4219 
Q 1781 4219 1451 3797 
Q 1122 3375 1075 2522 
Q 1259 2794 1537 2939 
Q 1816 3084 2150 3084 
Q 2853 3084 3261 2657 
Q 3669 2231 3669 1497 
Q 3669 778 3244 343 
Q 2819 -91 2113 -91 
Q 1303 -91 875 529 
Q 447 1150 447 2328 
Q 447 3434 972 4092 
Q 1497 4750 2381 4750 
Q 2619 4750 2861 4703 
Q 3103 4656 3366 4563 
z
" id="DejaVuSans-36" transform="scale(0.015625)"/>
       </defs>
       <use xlink:href="#DejaVuSans-30"/>
       <use x="63.623047" xlink:href="#DejaVuSans-2e"/>
       <use x="95.410156" xlink:href="#DejaVuSans-36"/>
      </g>
     </g>
    </g>
    <g id="text_16">
     <!-- Frequency (7 day rolling average) -->
     <g transform="translate(14.798437 202.529219)rotate(-90)scale(0.1 -0.1)">
      <defs>
       <path d="M 628 4666 
L 3309 4666 
L 3309 4134 
L 1259 4134 
L 1259 2759 
L 3109 2759 
L 3109 2228 
L 1259 2228 
L 1259 0 
L 628 0 
L 628 4666 
z
" id="DejaVuSans-46" transform="scale(0.015625)"/>
       <path d="M 2631 2963 
Q 2534 3019 2420 3045 
Q 2306 3072 2169 3072 
Q 1681 3072 1420 2755 
Q 1159 2438 1159 1844 
L 1159 0 
L 581 0 
L 581 3500 
L 1159 3500 
L 1159 2956 
Q 1341 3275 1631 3429 
Q 1922 3584 2338 3584 
Q 2397 3584 2469 3576 
Q 2541 3569 2628 3553 
L 2631 2963 
z
" id="DejaVuSans-72" transform="scale(0.015625)"/>
       <path d="M 947 1747 
Q 947 1113 1208 752 
Q 1469 391 1925 391 
Q 2381 391 2643 752 
Q 2906 1113 2906 1747 
Q 2906 2381 2643 2742 
Q 2381 3103 1925 3103 
Q 1469 3103 1208 2742 
Q 947 2381 947 1747 
z
M 2906 525 
Q 2725 213 2448 61 
Q 2172 -91 1784 -91 
Q 1150 -91 751 415 
Q 353 922 353 1747 
Q 353 2572 751 3078 
Q 1150 3584 1784 3584 
Q 2172 3584 2448 3432 
Q 2725 3281 2906 2969 
L 2906 3500 
L 3481 3500 
L 3481 -1331 
L 2906 -1331 
L 2906 525 
z
" id="DejaVuSans-71" transform="scale(0.015625)"/>
       <path d="M 544 1381 
L 544 3500 
L 1119 3500 
L 1119 1403 
Q 1119 906 1312 657 
Q 1506 409 1894 409 
Q 2359 409 2629 706 
Q 2900 1003 2900 1516 
L 2900 3500 
L 3475 3500 
L 3475 0 
L 2900 0 
L 2900 538 
Q 2691 219 2414 64 
Q 2138 -91 1772 -91 
Q 1169 -91 856 284 
Q 544 659 544 1381 
z
M 1991 3584 
L 1991 3584 
z
" id="DejaVuSans-75" transform="scale(0.015625)"/>
       <path d="M 3513 2113 
L 3513 0 
L 2938 0 
L 2938 2094 
Q 2938 2591 2744 2837 
Q 2550 3084 2163 3084 
Q 1697 3084 1428 2787 
Q 1159 2491 1159 1978 
L 1159 0 
L 581 0 
L 581 3500 
L 1159 3500 
L 1159 2956 
Q 1366 3272 1645 3428 
Q 1925 3584 2291 3584 
Q 2894 3584 3203 3211 
Q 3513 2838 3513 2113 
z
" id="DejaVuSans-6e" transform="scale(0.015625)"/>
       <path d="M 3122 3366 
L 3122 2828 
Q 2878 2963 2633 3030 
Q 2388 3097 2138 3097 
Q 1578 3097 1268 2742 
Q 959 2388 959 1747 
Q 959 1106 1268 751 
Q 1578 397 2138 397 
Q 2388 397 2633 464 
Q 2878 531 3122 666 
L 3122 134 
Q 2881 22 2623 -34 
Q 2366 -91 2075 -91 
Q 1284 -91 818 406 
Q 353 903 353 1747 
Q 353 2603 823 3093 
Q 1294 3584 2113 3584 
Q 2378 3584 2631 3529 
Q 2884 3475 3122 3366 
z
" id="DejaVuSans-63" transform="scale(0.015625)"/>
       <path d="M 2059 -325 
Q 1816 -950 1584 -1140 
Q 1353 -1331 966 -1331 
L 506 -1331 
L 506 -850 
L 844 -850 
Q 1081 -850 1212 -737 
Q 1344 -625 1503 -206 
L 1606 56 
L 191 3500 
L 800 3500 
L 1894 763 
L 2988 3500 
L 3597 3500 
L 2059 -325 
z
" id="DejaVuSans-79" transform="scale(0.015625)"/>
       <path id="DejaVuSans-20" transform="scale(0.015625)"/>
       <path d="M 1984 4856 
Q 1566 4138 1362 3434 
Q 1159 2731 1159 2009 
Q 1159 1288 1364 580 
Q 1569 -128 1984 -844 
L 1484 -844 
Q 1016 -109 783 600 
Q 550 1309 550 2009 
Q 550 2706 781 3412 
Q 1013 4119 1484 4856 
L 1984 4856 
z
" id="DejaVuSans-28" transform="scale(0.015625)"/>
       <path d="M 2906 2969 
L 2906 4863 
L 3481 4863 
L 3481 0 
L 2906 0 
L 2906 525 
Q 2725 213 2448 61 
Q 2172 -91 1784 -91 
Q 1150 -91 751 415 
Q 353 922 353 1747 
Q 353 2572 751 3078 
Q 1150 3584 1784 3584 
Q 2172 3584 2448 3432 
Q 2725 3281 2906 2969 
z
M 947 1747 
Q 947 1113 1208 752 
Q 1469 391 1925 391 
Q 2381 391 2643 752 
Q 2906 1113 2906 1747 
Q 2906 2381 2643 2742 
Q 2381 3103 1925 3103 
Q 1469 3103 1208 2742 
Q 947 2381 947 1747 
z
" id="DejaVuSans-64" transform="scale(0.015625)"/>
       <path d="M 1959 3097 
Q 1497 3097 1228 2736 
Q 959 2375 959 1747 
Q 959 1119 1226 758 
Q 1494 397 1959 397 
Q 2419 397 2687 759 
Q 2956 1122 2956 1747 
Q 2956 2369 2687 2733 
Q 2419 3097 1959 3097 
z
M 1959 3584 
Q 2709 3584 3137 3096 
Q 3566 2609 3566 1747 
Q 3566 888 3137 398 
Q 2709 -91 1959 -91 
Q 1206 -91 779 398 
Q 353 888 353 1747 
Q 353 2609 779 3096 
Q 1206 3584 1959 3584 
z
" id="DejaVuSans-6f" transform="scale(0.015625)"/>
       <path d="M 603 4863 
L 1178 4863 
L 1178 0 
L 603 0 
L 603 4863 
z
" id="DejaVuSans-6c" transform="scale(0.015625)"/>
       <path d="M 603 3500 
L 1178 3500 
L 1178 0 
L 603 0 
L 603 3500 
z
M 603 4863 
L 1178 4863 
L 1178 4134 
L 603 4134 
L 603 4863 
z
" id="DejaVuSans-69" transform="scale(0.015625)"/>
       <path d="M 2906 1791 
Q 2906 2416 2648 2759 
Q 2391 3103 1925 3103 
Q 1463 3103 1205 2759 
Q 947 2416 947 1791 
Q 947 1169 1205 825 
Q 1463 481 1925 481 
Q 2391 481 2648 825 
Q 2906 1169 2906 1791 
z
M 3481 434 
Q 3481 -459 3084 -895 
Q 2688 -1331 1869 -1331 
Q 1566 -1331 1297 -1286 
Q 1028 -1241 775 -1147 
L 775 -588 
Q 1028 -725 1275 -790 
Q 1522 -856 1778 -856 
Q 2344 -856 2625 -561 
Q 2906 -266 2906 331 
L 2906 616 
Q 2728 306 2450 153 
Q 2172 0 1784 0 
Q 1141 0 747 490 
Q 353 981 353 1791 
Q 353 2603 747 3093 
Q 1141 3584 1784 3584 
Q 2172 3584 2450 3431 
Q 2728 3278 2906 2969 
L 2906 3500 
L 3481 3500 
L 3481 434 
z
" id="DejaVuSans-67" transform="scale(0.015625)"/>
       <path d="M 191 3500 
L 800 3500 
L 1894 563 
L 2988 3500 
L 3597 3500 
L 2284 0 
L 1503 0 
L 191 3500 
z
" id="DejaVuSans-76" transform="scale(0.015625)"/>
       <path d="M 513 4856 
L 1013 4856 
Q 1481 4119 1714 3412 
Q 1947 2706 1947 2009 
Q 1947 1309 1714 600 
Q 1481 -109 1013 -844 
L 513 -844 
Q 928 -128 1133 580 
Q 1338 1288 1338 2009 
Q 1338 2731 1133 3434 
Q 928 4138 513 4856 
z
" id="DejaVuSans-29" transform="scale(0.015625)"/>
      </defs>
      <use xlink:href="#DejaVuSans-46"/>
      <use x="50.269531" xlink:href="#DejaVuSans-72"/>
      <use x="89.132812" xlink:href="#DejaVuSans-65"/>
      <use x="150.65625" xlink:href="#DejaVuSans-71"/>
      <use x="214.132812" xlink:href="#DejaVuSans-75"/>
      <use x="277.511719" xlink:href="#DejaVuSans-65"/>
      <use x="339.035156" xlink:href="#DejaVuSans-6e"/>
      <use x="402.414062" xlink:href="#DejaVuSans-63"/>
      <use x="457.394531" xlink:href="#DejaVuSans-79"/>
      <use x="516.574219" xlink:href="#DejaVuSans-20"/>
      <use x="548.361328" xlink:href="#DejaVuSans-28"/>
      <use x="587.375" xlink:href="#DejaVuSans-37"/>
      <use x="650.998047" xlink:href="#DejaVuSans-20"/>
      <use x="682.785156" xlink:href="#DejaVuSans-64"/>
      <use x="746.261719" xlink:href="#DejaVuSans-61"/>
      <use x="807.541016" xlink:href="#DejaVuSans-79"/>
      <use x="866.720703" xlink:href="#DejaVuSans-20"/>
      <use x="898.507812" xlink:href="#DejaVuSans-72"/>
      <use x="937.371094" xlink:href="#DejaVuSans-6f"/>
      <use x="998.552734" xlink:href="#DejaVuSans-6c"/>
      <use x="1026.335938" xlink:href="#DejaVuSans-6c"/>
      <use x="1054.119141" xlink:href="#DejaVuSans-69"/>
      <use x="1081.902344" xlink:href="#DejaVuSans-6e"/>
      <use x="1145.28125" xlink:href="#DejaVuSans-67"/>
      <use x="1208.757812" xlink:href="#DejaVuSans-20"/>
      <use x="1240.544922" xlink:href="#DejaVuSans-61"/>
      <use x="1301.824219" xlink:href="#DejaVuSans-76"/>
      <use x="1361.003906" xlink:href="#DejaVuSans-65"/>
      <use x="1422.527344" xlink:href="#DejaVuSans-72"/>
      <use x="1463.640625" xlink:href="#DejaVuSans-61"/>
      <use x="1524.919922" xlink:href="#DejaVuSans-67"/>
      <use x="1588.396484" xlink:href="#DejaVuSans-65"/>
      <use x="1649.919922" xlink:href="#DejaVuSans-29"/>
     </g>
    </g>
   </g>
   <g id="line2d_15">
    <path clip-path="url(#p3cf83c5810)" d="M 359.402897 228.873549 
L 367.349729 228.96 
L 372.647616 228.865841 
L 380.594447 228.805756 
L 385.892335 228.899915 
L 396.48811 228.935545 
L 407.083885 228.910844 
L 417.67966 228.937213 
L 438.87121 228.808047 
L 444.169097 228.847483 
L 449.466985 228.811408 
L 468.009591 228.725533 
L 473.307478 228.498526 
L 478.605366 228.436351 
L 481.25431 228.310859 
L 483.903253 228.361182 
L 489.201141 227.970826 
L 497.147972 227.95419 
L 502.44586 228.152019 
L 505.094803 228.013904 
L 507.743747 228.013607 
L 513.041635 227.432019 
L 515.690578 227.013694 
L 518.339522 227.07926 
L 523.63741 226.726726 
L 528.935297 227.036149 
L 531.584241 226.507675 
L 539.531072 225.661848 
L 544.828959 225.155484 
L 547.477903 224.99645 
L 550.126847 224.975016 
L 555.424734 224.61049 
L 560.722622 224.133347 
L 563.371566 223.59157 
L 568.669453 221.936434 
L 576.616284 221.0366 
L 579.265228 221.190172 
L 584.563116 220.623013 
L 587.212059 219.990057 
L 589.861003 219.670019 
L 592.509947 219.063553 
L 595.158891 218.845676 
L 597.807834 218.844491 
L 603.105722 218.31213 
L 605.754666 217.75904 
L 608.403609 217.588068 
L 611.052553 216.814136 
L 613.701497 216.484137 
L 618.999384 216.840046 
L 624.297272 216.47063 
L 629.595159 215.75843 
L 632.244103 214.696583 
L 634.893047 214.293216 
L 637.541991 213.729762 
L 640.190934 213.432707 
L 642.839878 212.703481 
L 645.488822 212.5919 
L 648.137766 212.068847 
L 650.786709 211.25228 
L 653.435653 210.983517 
L 656.084597 210.405271 
L 658.733541 210.801004 
L 661.382484 210.682526 
L 664.031428 211.278191 
L 666.680372 211.488388 
L 669.329316 211.413024 
L 671.978259 211.054343 
L 674.627203 210.900671 
L 677.276147 210.427911 
L 679.92509 209.610047 
L 682.574034 209.384582 
L 685.222978 208.4584 
L 687.871922 208.068754 
L 690.520865 207.873437 
L 693.169809 208.020258 
L 695.818753 207.641755 
L 701.11664 208.907546 
L 703.765584 209.645539 
L 706.414528 209.350991 
L 709.063472 210.490044 
L 711.712415 210.041183 
L 714.361359 208.672221 
L 717.010303 207.528573 
L 719.659247 207.901636 
L 722.30819 208.091666 
L 724.957134 208.134802 
L 730.255022 208.508297 
L 732.903965 207.972984 
L 735.552909 206.863416 
L 738.201853 207.993827 
L 740.850797 208.805153 
L 743.49974 208.752708 
L 746.148684 209.150274 
L 748.797628 209.665992 
L 754.095515 208.765363 
L 756.744459 209.322292 
L 759.393403 210.238736 
L 762.042347 210.050615 
L 764.69129 209.503417 
L 767.340234 210.470627 
L 775.287065 211.739396 
L 777.936009 212.547153 
L 780.584953 212.937759 
L 783.233897 214.36407 
L 785.88284 214.282129 
L 788.531784 214.785221 
L 791.180728 214.775774 
L 793.829672 215.491046 
L 796.478615 215.01786 
L 801.776503 216.576278 
L 804.425447 217.532387 
L 807.07439 216.92319 
L 809.723334 217.805637 
L 815.021222 218.373882 
L 820.319109 221.286234 
L 822.968053 221.665404 
L 825.616996 221.795509 
L 828.26594 222.35069 
L 833.563828 222.616878 
L 836.212771 223.052119 
L 838.861715 223.761542 
L 841.510659 224.304002 
L 844.159603 224.659618 
L 846.808546 225.289631 
L 865.351153 227.035061 
L 868.000096 227.384297 
L 878.595871 227.511227 
L 881.244815 227.488268 
L 897.138478 228.057166 
L 910.383196 228.127327 
L 928.925803 228.556999 
L 1011.043059 228.914164 
L 1018.98989 228.885828 
L 1109.053977 228.899507 
L 1109.053977 228.899507 
" style="fill:none;stroke:#947383;stroke-linecap:square;stroke-width:2;"/>
   </g>
   <g id="line2d_16">
    <path clip-path="url(#p3cf83c5810)" d="M 330.264516 227.272571 
L 332.91346 228.96 
L 354.10501 228.96 
L 356.753954 164.837686 
L 367.349729 164.837686 
L 369.998672 228.96 
L 372.647616 227.433278 
L 377.945504 227.433278 
L 380.594447 226.994084 
L 383.243391 226.304597 
L 385.892335 227.831319 
L 391.190222 226.581128 
L 396.48811 227.440576 
L 399.137053 227.373642 
L 401.785997 227.752951 
L 404.434941 228.018751 
L 407.083885 227.887083 
L 409.732828 228.101534 
L 412.381772 228.071849 
L 417.67966 228.545563 
L 430.924378 228.464164 
L 436.222266 228.5124 
L 438.87121 228.410699 
L 441.520153 228.552759 
L 444.169097 228.108223 
L 449.466985 228.201977 
L 454.764872 228.16696 
L 457.413816 228.631406 
L 460.06276 228.472255 
L 481.25431 228.182495 
L 486.552197 228.26941 
L 494.499028 228.276024 
L 497.147972 227.901965 
L 502.44586 227.899318 
L 505.094803 228.037997 
L 507.743747 228.008356 
L 510.392691 228.306734 
L 513.041635 228.300658 
L 518.339522 228.006695 
L 520.988466 227.994459 
L 523.63741 227.853702 
L 528.935297 228.132229 
L 531.584241 228.013433 
L 534.233184 227.590632 
L 539.531072 227.412521 
L 544.828959 227.375225 
L 550.126847 227.966392 
L 552.775791 227.798003 
L 555.424734 227.298942 
L 560.722622 227.59504 
L 566.020509 227.479179 
L 568.669453 227.759675 
L 571.318397 227.666219 
L 576.616284 227.753969 
L 581.914172 227.260438 
L 589.861003 226.380494 
L 592.509947 226.605445 
L 595.158891 226.976524 
L 597.807834 227.231435 
L 600.456778 227.127908 
L 603.105722 227.226756 
L 608.403609 227.180988 
L 611.052553 227.275402 
L 613.701497 227.58518 
L 621.648328 227.627285 
L 624.297272 227.33551 
L 626.946216 227.324031 
L 632.244103 227.593943 
L 634.893047 227.471244 
L 637.541991 227.597201 
L 640.190934 227.420601 
L 642.839878 227.385775 
L 648.137766 227.078962 
L 653.435653 227.40548 
L 656.084597 227.204669 
L 658.733541 227.201027 
L 661.382484 227.472053 
L 664.031428 227.361858 
L 666.680372 227.007777 
L 671.978259 227.482607 
L 674.627203 227.319706 
L 677.276147 226.940671 
L 679.92509 227.243975 
L 682.574034 227.195709 
L 685.222978 226.704699 
L 687.871922 226.852357 
L 690.520865 227.222466 
L 695.818753 227.014563 
L 698.467697 227.133417 
L 703.765584 226.747186 
L 709.063472 226.800782 
L 711.712415 227.162795 
L 719.659247 227.008206 
L 722.30819 226.550626 
L 724.957134 226.360971 
L 735.552909 226.45268 
L 738.201853 226.377727 
L 746.148684 226.633904 
L 748.797628 227.027306 
L 751.446572 227.079468 
L 756.744459 226.744945 
L 759.393403 226.971398 
L 762.042347 226.920179 
L 764.69129 226.752667 
L 767.340234 226.384198 
L 769.989178 226.206353 
L 772.638122 225.624889 
L 775.287065 225.46672 
L 777.936009 225.889178 
L 780.584953 225.414863 
L 783.233897 224.394372 
L 785.88284 224.172299 
L 788.531784 224.300223 
L 791.180728 224.06255 
L 793.829672 224.739558 
L 796.478615 225.637566 
L 799.127559 226.344691 
L 801.776503 226.172449 
L 807.07439 226.432163 
L 809.723334 226.930052 
L 812.372278 227.066149 
L 815.021222 227.681139 
L 817.670165 227.775818 
L 822.968053 228.200057 
L 825.616996 228.069894 
L 828.26594 228.114119 
L 830.914884 228.018137 
L 836.212771 228.224255 
L 841.510659 228.220289 
L 846.808546 228.369318 
L 849.45749 228.366087 
L 852.106434 228.536902 
L 865.351153 228.55471 
L 870.64904 228.673783 
L 873.297984 228.57429 
L 878.595871 228.558711 
L 883.893759 228.505955 
L 886.542703 228.540564 
L 889.191646 228.420092 
L 894.489534 228.545533 
L 899.787421 228.686404 
L 902.436365 228.847912 
L 907.734253 228.863847 
L 918.330028 228.896706 
L 1040.18144 228.945632 
L 1040.18144 228.945632 
" style="fill:none;stroke:#96c6ad;stroke-linecap:square;stroke-width:2;"/>
   </g>
   <g id="line2d_17">
    <path clip-path="url(#p3cf83c5810)" d="M 94.508523 226.045349 
L 97.157466 228.96 
L 147.487398 228.96 
L 150.136341 225.397649 
L 160.732116 225.397649 
L 163.38106 228.96 
L 208.413104 228.96 
L 211.062048 224.210199 
L 213.710991 224.210199 
L 216.359935 222.477163 
L 221.657823 222.477163 
L 224.306766 227.226964 
L 226.95571 227.226964 
L 229.604654 228.96 
L 240.200429 228.96 
L 242.849372 225.188099 
L 248.14726 225.188099 
L 250.796204 223.356033 
L 253.445147 218.226248 
L 256.094091 221.998149 
L 258.743035 215.585917 
L 261.391979 210.456132 
L 264.040922 212.288198 
L 266.689866 217.417984 
L 269.33881 217.417984 
L 271.987754 223.830215 
L 274.636697 228.96 
L 282.583529 228.96 
L 285.232472 219.409868 
L 287.881416 208.188463 
L 290.53036 202.251212 
L 295.828247 202.251212 
L 298.477191 194.412242 
L 301.126135 198.508945 
L 303.775079 185.949375 
L 306.424022 180.120074 
L 309.072966 171.570432 
L 311.72191 185.584675 
L 314.370854 183.965425 
L 317.019797 187.604637 
L 319.668741 183.21154 
L 322.317685 173.639659 
L 324.966629 174.449625 
L 327.615572 179.346238 
L 330.264516 183.05214 
L 332.91346 186.149837 
L 335.562404 189.938137 
L 338.211347 180.115765 
L 340.860291 176.564375 
L 343.509235 177.175427 
L 346.158179 176.480334 
L 348.807122 189.556257 
L 351.456066 197.011037 
L 354.10501 197.011037 
L 356.753954 198.588357 
L 362.051841 182.486359 
L 364.700785 172.621388 
L 367.349729 176.773417 
L 369.998672 173.325981 
L 372.647616 176.633678 
L 375.29656 158.043595 
L 377.945504 156.810474 
L 380.594447 145.12458 
L 383.243391 143.000959 
L 385.892335 135.19345 
L 388.541278 149.186529 
L 391.190222 148.075499 
L 393.839166 146.663189 
L 396.48811 136.10624 
L 399.137053 135.871874 
L 401.785997 134.301311 
L 404.434941 129.458126 
L 407.083885 133.589256 
L 409.732828 142.149062 
L 412.381772 143.586347 
L 415.030716 144.036663 
L 417.67966 149.990878 
L 420.328603 139.186386 
L 422.977547 138.843627 
L 428.275435 130.423776 
L 430.924378 123.095512 
L 433.573322 131.316321 
L 436.222266 121.520271 
L 438.87121 118.01796 
L 441.520153 118.010063 
L 444.169097 116.018224 
L 446.818041 100.681698 
L 449.466985 98.273317 
L 452.115928 95.486988 
L 454.764872 77.509004 
L 457.413816 82.125525 
L 460.06276 82.202174 
L 462.711703 81.94835 
L 465.360647 75.768761 
L 468.009591 83.426599 
L 470.658535 70.674664 
L 473.307478 67.259344 
L 475.956422 67.679598 
L 478.605366 76.461207 
L 481.25431 80.420013 
L 483.903253 85.051069 
L 486.552197 82.11256 
L 489.201141 80.557898 
L 491.850085 63.386848 
L 494.499028 52.235378 
L 497.147972 52.591613 
L 499.796916 63.175733 
L 502.44586 72.112569 
L 505.094803 84.064361 
L 507.743747 91.44796 
L 510.392691 84.088893 
L 513.041635 72.922293 
L 515.690578 63.30729 
L 518.339522 75.754562 
L 520.988466 80.78737 
L 523.63741 82.866524 
L 526.286353 87.615803 
L 528.935297 80.056467 
L 531.584241 63.498789 
L 534.233184 48.201079 
L 536.882128 45.338476 
L 539.531072 38.827595 
L 542.180016 36.774147 
L 547.477903 30.636243 
L 550.126847 24.327713 
L 552.775791 29.240626 
L 555.424734 36.249947 
L 558.073678 42.567224 
L 560.722622 48.582451 
L 563.371566 52.85123 
L 566.020509 42.787151 
L 568.669453 48.321919 
L 571.318397 56.6477 
L 573.967341 59.967046 
L 576.616284 68.249964 
L 579.265228 83.301335 
L 581.914172 76.834213 
L 584.563116 61.801674 
L 587.212059 56.628145 
L 589.861003 62.829199 
L 592.509947 57.737133 
L 595.158891 56.522913 
L 597.807834 65.760441 
L 600.456778 66.521695 
L 603.105722 53.568565 
L 605.754666 50.533501 
L 608.403609 60.89848 
L 611.052553 55.673179 
L 613.701497 57.180637 
L 616.350441 54.358515 
L 618.999384 57.372209 
L 621.648328 43.995193 
L 624.297272 44.945673 
L 626.946216 52.691263 
L 629.595159 58.136214 
L 632.244103 49.675024 
L 634.893047 48.409205 
L 637.541991 51.044659 
L 640.190934 43.901159 
L 642.839878 40.709551 
L 645.488822 56.782195 
L 648.137766 64.521249 
L 650.786709 61.26595 
L 653.435653 60.840202 
L 656.084597 59.403669 
L 658.733541 49.801906 
L 661.382484 48.317886 
L 664.031428 50.585374 
L 666.680372 54.499507 
L 669.329316 57.892521 
L 671.978259 54.48399 
L 674.627203 52.158924 
L 677.276147 48.940609 
L 679.92509 43.977277 
L 682.574034 53.307704 
L 685.222978 60.363388 
L 687.871922 55.314302 
L 690.520865 54.893297 
L 693.169809 52.997485 
L 695.818753 42.435941 
L 698.467697 35.942162 
L 701.11664 47.159228 
L 703.765584 54.883052 
L 706.414528 53.696373 
L 709.063472 52.272507 
L 711.712415 45.500785 
L 714.361359 32.307477 
L 717.010303 17.76 
L 719.659247 25.578996 
L 722.30819 28.524586 
L 724.957134 32.490433 
L 727.606078 35.625996 
L 730.255022 42.790808 
L 732.903965 46.085448 
L 735.552909 42.96184 
L 738.201853 55.315799 
L 740.850797 59.62319 
L 743.49974 57.247094 
L 746.148684 50.220399 
L 748.797628 52.125617 
L 751.446572 46.093148 
L 754.095515 45.801945 
L 756.744459 51.270397 
L 759.393403 50.929795 
L 762.042347 47.721775 
L 764.69129 42.37218 
L 767.340234 40.752455 
L 769.989178 44.141699 
L 772.638122 51.670125 
L 775.287065 67.624045 
L 777.936009 72.256293 
L 780.584953 68.628369 
L 783.233897 59.688229 
L 785.88284 54.377634 
L 788.531784 42.898974 
L 791.180728 44.648993 
L 793.829672 56.902524 
L 796.478615 57.586141 
L 799.127559 50.100996 
L 801.776503 43.931213 
L 804.425447 39.362993 
L 807.07439 35.329002 
L 809.723334 38.043824 
L 812.372278 52.82335 
L 815.021222 57.318618 
L 817.670165 59.766249 
L 820.319109 56.308204 
L 822.968053 60.775485 
L 825.616996 57.836692 
L 828.26594 64.759069 
L 830.914884 72.847528 
L 833.563828 80.371584 
L 836.212771 75.678687 
L 838.861715 72.749648 
L 841.510659 71.067909 
L 844.159603 74.270921 
L 846.808546 79.06089 
L 849.45749 89.379002 
L 852.106434 94.883815 
L 854.755378 93.441721 
L 857.404321 87.93018 
L 860.053265 86.817162 
L 862.702209 88.910256 
L 865.351153 86.51945 
L 868.000096 101.035186 
L 870.64904 103.682218 
L 873.297984 98.836395 
L 875.946928 94.32035 
L 878.595871 97.141426 
L 881.244815 95.152713 
L 883.893759 101.72936 
L 886.542703 115.811668 
L 889.191646 119.325557 
L 891.84059 118.609981 
L 894.489534 117.345354 
L 897.138478 121.026847 
L 899.787421 122.326409 
L 902.436365 131.143214 
L 905.085309 144.861889 
L 907.734253 156.968086 
L 910.383196 162.721256 
L 913.03214 166.47376 
L 915.681084 170.734787 
L 918.330028 173.897059 
L 920.978971 173.140453 
L 923.627915 178.698053 
L 926.276859 185.601225 
L 928.925803 187.068915 
L 931.574746 187.532665 
L 934.22369 190.52504 
L 936.872634 190.02941 
L 939.521578 188.424447 
L 942.170521 192.631902 
L 944.819465 199.562202 
L 947.468409 202.901132 
L 950.117353 205.040502 
L 952.766296 206.33986 
L 955.41524 205.732425 
L 958.064184 203.902388 
L 960.713128 202.875606 
L 963.362071 205.511337 
L 966.011015 207.538876 
L 968.659959 210.103956 
L 971.308903 212.489609 
L 973.957846 213.363539 
L 976.60679 210.847682 
L 979.255734 211.637195 
L 981.904677 211.654206 
L 984.553621 212.298406 
L 987.202565 213.985624 
L 989.851509 216.374434 
L 992.500452 215.777099 
L 995.149396 214.84293 
L 997.79834 212.380853 
L 1000.447284 212.320333 
L 1003.096227 211.214785 
L 1005.745171 210.934987 
L 1008.394115 211.838211 
L 1011.043059 215.056709 
L 1013.692002 215.877536 
L 1016.340946 218.283194 
L 1018.98989 218.885937 
L 1021.638834 220.193734 
L 1024.287777 220.405847 
L 1026.936721 221.253797 
L 1029.585665 220.136649 
L 1032.234609 221.724524 
L 1034.883552 223.545575 
L 1037.532496 224.473681 
L 1040.18144 224.733637 
L 1042.830384 225.817657 
L 1045.479327 224.108329 
L 1048.128271 223.139868 
L 1050.777215 222.732013 
L 1053.426159 223.030873 
L 1056.075102 223.644818 
L 1058.724046 224.971334 
L 1061.37299 226.037224 
L 1064.021934 226.567507 
L 1066.670877 226.596233 
L 1069.319821 226.167483 
L 1074.617709 226.658779 
L 1077.266652 226.159821 
L 1079.915596 226.785405 
L 1082.56454 227.562645 
L 1085.213484 228.030691 
L 1087.862427 228.030691 
L 1090.511371 226.748886 
L 1090.511371 226.748886 
" style="fill:none;stroke:#525886;stroke-linecap:square;stroke-width:2;"/>
   </g>
   <g id="line2d_18">
    <path clip-path="url(#p3cf83c5810)" d="M 340.860291 227.63104 
L 343.509235 228.96 
L 348.807122 228.96 
L 351.456066 228.642563 
L 362.051841 228.642563 
L 364.700785 228.96 
L 396.48811 228.96 
L 399.137053 227.814959 
L 409.732828 227.814959 
L 412.381772 228.96 
L 415.030716 228.58281 
L 425.626491 228.58281 
L 428.275435 228.96 
L 430.924378 228.043967 
L 436.222266 228.043967 
L 438.87121 227.691647 
L 441.520153 226.919089 
L 444.169097 227.835122 
L 449.466985 227.835122 
L 452.115928 228.187442 
L 454.764872 228.96 
L 460.06276 228.96 
L 462.711703 227.958089 
L 473.307478 227.958089 
L 475.956422 228.96 
L 481.25431 228.96 
L 483.903253 228.721627 
L 489.201141 228.721627 
L 491.850085 228.426133 
L 494.499028 228.426133 
L 497.147972 228.250813 
L 499.796916 228.250813 
L 502.44586 227.848372 
L 505.094803 227.943797 
L 507.743747 227.706307 
L 513.041635 227.77618 
L 515.690578 227.780346 
L 518.339522 227.417939 
L 523.63741 227.999248 
L 526.286353 227.999248 
L 528.935297 228.397524 
L 531.584241 228.96 
L 534.233184 228.96 
L 536.882128 227.891295 
L 539.531072 227.891295 
L 542.180016 227.355454 
L 547.477903 226.908907 
L 550.126847 227.872148 
L 552.775791 227.872148 
L 555.424734 228.407989 
L 558.073678 228.607436 
L 568.669453 228.772645 
L 571.318397 228.772645 
L 573.967341 228.96 
L 589.861003 228.96 
L 592.509947 228.417739 
L 603.105722 228.417739 
L 605.754666 228.96 
L 618.999384 228.96 
L 626.946216 228.657608 
L 632.244103 228.657608 
L 634.893047 228.775588 
L 637.541991 228.737743 
L 640.190934 228.878055 
L 682.574034 228.96 
L 685.222978 228.736577 
L 709.063472 228.807489 
L 714.361359 228.891639 
L 730.255022 228.96 
L 732.903965 228.048701 
L 740.850797 228.048701 
L 743.49974 227.73087 
L 746.148684 228.072193 
L 748.797628 228.072193 
L 754.095515 227.64981 
L 759.393403 228.296555 
L 762.042347 228.296555 
L 764.69129 228.503401 
L 767.340234 228.273645 
L 769.989178 228.273645 
L 772.638122 227.612845 
L 777.936009 227.612845 
L 780.584953 227.987906 
L 783.233897 227.504225 
L 785.88284 228.029845 
L 788.531784 228.029845 
L 791.180728 227.162261 
L 793.829672 227.232494 
L 796.478615 227.716175 
L 799.127559 227.970279 
L 801.776503 227.834138 
L 804.425447 228.701721 
L 807.07439 228.701721 
L 809.723334 228.352598 
L 812.372278 228.303971 
L 815.021222 228.440112 
L 820.319109 228.366661 
L 822.968053 228.694382 
L 825.616996 228.865147 
L 841.510659 228.90757 
L 844.159603 228.527147 
L 854.755378 228.363961 
L 857.404321 228.744384 
L 870.64904 228.96 
L 875.946928 228.96 
L 881.244815 228.749885 
L 886.542703 228.122316 
L 889.191646 228.122316 
L 894.489534 228.332432 
L 897.138478 228.660563 
L 899.787421 228.448537 
L 902.436365 228.062903 
L 910.383196 227.862207 
L 915.681084 228.672443 
L 926.276859 228.931116 
L 936.872634 228.96 
L 968.659959 228.794151 
L 968.659959 228.794151 
" style="fill:none;stroke:#937252;stroke-linecap:square;stroke-width:2;"/>
   </g>
   <g id="line2d_19">
    <path clip-path="url(#p3cf83c5810)" d="M 428.275435 228.889767 
L 433.573322 228.96 
L 449.466985 228.876072 
L 457.413816 228.880389 
L 566.020509 228.853184 
L 568.669453 228.714763 
L 579.265228 228.694793 
L 581.914172 228.868331 
L 587.212059 228.747503 
L 592.509947 228.839172 
L 595.158891 228.786997 
L 600.456778 228.907826 
L 603.105722 228.85108 
L 605.754666 228.658328 
L 608.403609 228.638697 
L 611.052553 228.304726 
L 616.350441 228.312968 
L 618.999384 228.454545 
L 621.648328 228.474176 
L 624.297272 228.74072 
L 632.244103 228.643242 
L 634.893047 228.413932 
L 642.839878 228.618475 
L 645.488822 228.442315 
L 648.137766 228.7238 
L 656.084597 228.59986 
L 661.382484 228.670033 
L 664.031428 228.665206 
L 666.680372 228.284296 
L 677.276147 228.524978 
L 679.92509 228.96 
L 709.063472 228.926145 
L 714.361359 228.833749 
L 730.255022 228.929739 
L 740.850797 228.96 
L 1077.266652 228.947308 
L 1077.266652 228.947308 
" style="fill:none;stroke:#d18cad;stroke-linecap:square;stroke-width:2;"/>
   </g>
   <g id="line2d_20">
    <path clip-path="url(#p3cf83c5810)" d="M 494.499028 196.898843 
L 497.147972 219.799669 
L 499.796916 219.799669 
L 502.44586 219.799669 
L 505.094803 216.237319 
L 507.743747 216.237319 
L 510.392691 225.397649 
L 513.041635 225.397649 
L 515.690578 225.397649 
L 518.339522 228.96 
L 520.988466 228.96 
L 523.63741 228.96 
L 526.286353 228.96 
L 528.935297 224.027514 
L 531.584241 224.027514 
L 534.233184 224.027514 
L 536.882128 224.027514 
L 539.531072 224.027514 
L 542.180016 228.96 
L 544.828959 228.96 
L 547.477903 228.96 
L 550.126847 228.96 
L 552.775791 228.96 
L 555.424734 228.96 
L 558.073678 228.96 
L 560.722622 228.96 
L 563.371566 228.96 
L 566.020509 228.96 
L 568.669453 228.96 
L 571.318397 228.96 
L 573.967341 228.96 
L 576.616284 223.130699 
L 579.265228 223.130699 
L 581.914172 223.130699 
L 584.563116 223.130699 
L 587.212059 223.130699 
L 589.861003 228.96 
L 592.509947 228.96 
L 595.158891 228.96 
L 597.807834 228.96 
L 600.456778 228.96 
L 603.105722 228.96 
L 605.754666 228.96 
L 608.403609 228.96 
L 611.052553 228.96 
L 613.701497 228.96 
L 616.350441 228.96 
L 618.999384 228.96 
L 621.648328 223.616474 
L 624.297272 223.616474 
L 626.946216 223.616474 
L 629.595159 223.616474 
L 632.244103 223.616474 
L 634.893047 228.96 
L 637.541991 228.96 
L 640.190934 228.96 
L 642.839878 228.96 
L 645.488822 228.96 
L 648.137766 228.96 
L 650.786709 228.96 
L 653.435653 228.96 
L 656.084597 228.96 
L 658.733541 228.96 
L 661.382484 228.96 
L 664.031428 228.96 
L 666.680372 228.96 
L 669.329316 228.96 
L 671.978259 228.96 
L 674.627203 228.96 
L 677.276147 216.135537 
L 679.92509 216.135537 
L 682.574034 216.135537 
L 685.222978 216.135537 
L 687.871922 216.135537 
L 690.520865 228.96 
L 693.169809 228.96 
L 695.818753 228.96 
L 698.467697 228.96 
L 701.11664 228.96 
L 703.765584 228.96 
L 706.414528 228.96 
L 709.063472 228.96 
L 711.712415 228.96 
L 714.361359 228.96 
L 717.010303 228.96 
L 719.659247 228.96 
L 722.30819 228.96 
L 724.957134 221.835298 
" style="fill:none;stroke:#a4a86f;stroke-linecap:square;stroke-width:2;"/>
   </g>
   <g id="line2d_21">
    <path clip-path="url(#p3cf83c5810)" d="M 279.934585 226.82259 
L 282.583529 228.96 
L 285.232472 228.96 
L 287.881416 228.96 
L 290.53036 228.96 
L 293.179304 228.96 
L 295.828247 228.96 
L 298.477191 228.96 
L 301.126135 228.96 
L 303.775079 228.96 
L 306.424022 228.96 
L 309.072966 228.96 
L 311.72191 228.96 
L 314.370854 228.96 
L 317.019797 228.96 
L 319.668741 228.96 
L 322.317685 228.96 
L 324.966629 228.96 
L 327.615572 228.96 
L 330.264516 228.96 
L 332.91346 228.96 
L 335.562404 228.96 
L 338.211347 228.96 
L 340.860291 228.96 
L 343.509235 228.96 
L 346.158179 228.96 
L 348.807122 228.96 
L 351.456066 228.96 
L 354.10501 228.96 
L 356.753954 228.96 
L 359.402897 228.96 
L 362.051841 228.96 
L 364.700785 228.96 
L 367.349729 228.96 
L 369.998672 228.96 
L 372.647616 228.96 
L 375.29656 228.96 
L 377.945504 228.96 
L 380.594447 228.96 
L 383.243391 228.96 
L 385.892335 228.96 
L 388.541278 228.96 
L 391.190222 228.96 
L 393.839166 228.96 
L 396.48811 228.96 
L 399.137053 228.96 
L 401.785997 228.96 
L 404.434941 228.96 
L 407.083885 228.96 
L 409.732828 228.96 
L 412.381772 228.96 
L 415.030716 228.96 
L 417.67966 228.96 
L 420.328603 228.96 
L 422.977547 228.96 
L 425.626491 228.96 
L 428.275435 228.96 
L 430.924378 228.96 
L 433.573322 228.96 
L 436.222266 228.96 
L 438.87121 228.96 
L 441.520153 228.96 
L 444.169097 228.96 
L 446.818041 228.96 
L 449.466985 228.96 
L 452.115928 228.96 
L 454.764872 228.96 
L 457.413816 228.96 
L 460.06276 228.96 
L 462.711703 228.96 
L 465.360647 228.96 
L 468.009591 228.96 
L 470.658535 228.96 
L 473.307478 228.96 
L 475.956422 228.96 
L 478.605366 228.96 
L 481.25431 228.96 
L 483.903253 228.96 
L 486.552197 228.96 
L 489.201141 228.96 
L 491.850085 228.96 
L 494.499028 228.96 
L 497.147972 228.96 
L 499.796916 228.96 
L 502.44586 228.96 
L 505.094803 228.96 
L 507.743747 228.96 
L 510.392691 228.96 
L 513.041635 228.96 
L 515.690578 228.96 
L 518.339522 228.96 
L 520.988466 228.96 
L 523.63741 228.96 
L 526.286353 228.96 
L 528.935297 228.96 
L 531.584241 228.96 
L 534.233184 228.96 
L 536.882128 228.96 
L 539.531072 226.172073 
" style="fill:none;stroke:#d3d3d3;stroke-linecap:square;stroke-width:2;"/>
   </g>
   <g id="patch_3">
    <path d="M 43.78125 228.96 
L 43.78125 7.2 
" style="fill:none;stroke:#000000;stroke-linecap:square;stroke-linejoin:miter;stroke-width:0.8;"/>
   </g>
   <g id="patch_4">
    <path d="M 43.78125 228.96 
L 1159.78125 228.96 
" style="fill:none;stroke:#000000;stroke-linecap:square;stroke-linejoin:miter;stroke-width:0.8;"/>
   </g>
   <g id="legend_1">
    <g id="line2d_22">
     <path d="M 1065.97 17.67875 
L 1081.97 17.67875 
" style="fill:none;stroke:#947383;stroke-linecap:square;stroke-width:2;"/>
    </g>
    <g id="line2d_23"/>
    <g id="text_17">
     <!-- North America -->
     <g transform="translate(1088.37 20.47875)scale(0.08 -0.08)">
      <defs>
       <path d="M 628 4666 
L 1478 4666 
L 3547 763 
L 3547 4666 
L 4159 4666 
L 4159 0 
L 3309 0 
L 1241 3903 
L 1241 0 
L 628 0 
L 628 4666 
z
" id="DejaVuSans-4e" transform="scale(0.015625)"/>
       <path d="M 3513 2113 
L 3513 0 
L 2938 0 
L 2938 2094 
Q 2938 2591 2744 2837 
Q 2550 3084 2163 3084 
Q 1697 3084 1428 2787 
Q 1159 2491 1159 1978 
L 1159 0 
L 581 0 
L 581 4863 
L 1159 4863 
L 1159 2956 
Q 1366 3272 1645 3428 
Q 1925 3584 2291 3584 
Q 2894 3584 3203 3211 
Q 3513 2838 3513 2113 
z
" id="DejaVuSans-68" transform="scale(0.015625)"/>
       <path d="M 2188 4044 
L 1331 1722 
L 3047 1722 
L 2188 4044 
z
M 1831 4666 
L 2547 4666 
L 4325 0 
L 3669 0 
L 3244 1197 
L 1141 1197 
L 716 0 
L 50 0 
L 1831 4666 
z
" id="DejaVuSans-41" transform="scale(0.015625)"/>
       <path d="M 3328 2828 
Q 3544 3216 3844 3400 
Q 4144 3584 4550 3584 
Q 5097 3584 5394 3201 
Q 5691 2819 5691 2113 
L 5691 0 
L 5113 0 
L 5113 2094 
Q 5113 2597 4934 2840 
Q 4756 3084 4391 3084 
Q 3944 3084 3684 2787 
Q 3425 2491 3425 1978 
L 3425 0 
L 2847 0 
L 2847 2094 
Q 2847 2600 2669 2842 
Q 2491 3084 2119 3084 
Q 1678 3084 1418 2786 
Q 1159 2488 1159 1978 
L 1159 0 
L 581 0 
L 581 3500 
L 1159 3500 
L 1159 2956 
Q 1356 3278 1631 3431 
Q 1906 3584 2284 3584 
Q 2666 3584 2933 3390 
Q 3200 3197 3328 2828 
z
" id="DejaVuSans-6d" transform="scale(0.015625)"/>
      </defs>
      <use xlink:href="#DejaVuSans-4e"/>
      <use x="74.804688" xlink:href="#DejaVuSans-6f"/>
      <use x="135.986328" xlink:href="#DejaVuSans-72"/>
      <use x="177.099609" xlink:href="#DejaVuSans-74"/>
      <use x="216.308594" xlink:href="#DejaVuSans-68"/>
      <use x="279.6875" xlink:href="#DejaVuSans-20"/>
      <use x="311.474609" xlink:href="#DejaVuSans-41"/>
      <use x="379.882812" xlink:href="#DejaVuSans-6d"/>
      <use x="477.294922" xlink:href="#DejaVuSans-65"/>
      <use x="538.818359" xlink:href="#DejaVuSans-72"/>
      <use x="579.931641" xlink:href="#DejaVuSans-69"/>
      <use x="607.714844" xlink:href="#DejaVuSans-63"/>
      <use x="662.695312" xlink:href="#DejaVuSans-61"/>
     </g>
    </g>
    <g id="line2d_24">
     <path d="M 1065.97 29.42125 
L 1081.97 29.42125 
" style="fill:none;stroke:#96c6ad;stroke-linecap:square;stroke-width:2;"/>
    </g>
    <g id="line2d_25"/>
    <g id="text_18">
     <!-- Europe -->
     <g transform="translate(1088.37 32.22125)scale(0.08 -0.08)">
      <defs>
       <path d="M 628 4666 
L 3578 4666 
L 3578 4134 
L 1259 4134 
L 1259 2753 
L 3481 2753 
L 3481 2222 
L 1259 2222 
L 1259 531 
L 3634 531 
L 3634 0 
L 628 0 
L 628 4666 
z
" id="DejaVuSans-45" transform="scale(0.015625)"/>
       <path d="M 1159 525 
L 1159 -1331 
L 581 -1331 
L 581 3500 
L 1159 3500 
L 1159 2969 
Q 1341 3281 1617 3432 
Q 1894 3584 2278 3584 
Q 2916 3584 3314 3078 
Q 3713 2572 3713 1747 
Q 3713 922 3314 415 
Q 2916 -91 2278 -91 
Q 1894 -91 1617 61 
Q 1341 213 1159 525 
z
M 3116 1747 
Q 3116 2381 2855 2742 
Q 2594 3103 2138 3103 
Q 1681 3103 1420 2742 
Q 1159 2381 1159 1747 
Q 1159 1113 1420 752 
Q 1681 391 2138 391 
Q 2594 391 2855 752 
Q 3116 1113 3116 1747 
z
" id="DejaVuSans-70" transform="scale(0.015625)"/>
      </defs>
      <use xlink:href="#DejaVuSans-45"/>
      <use x="63.183594" xlink:href="#DejaVuSans-75"/>
      <use x="126.5625" xlink:href="#DejaVuSans-72"/>
      <use x="165.425781" xlink:href="#DejaVuSans-6f"/>
      <use x="226.607422" xlink:href="#DejaVuSans-70"/>
      <use x="290.083984" xlink:href="#DejaVuSans-65"/>
     </g>
    </g>
    <g id="line2d_26">
     <path d="M 1065.97 41.16375 
L 1081.97 41.16375 
" style="fill:none;stroke:#525886;stroke-linecap:square;stroke-width:2;"/>
    </g>
    <g id="line2d_27"/>
    <g id="text_19">
     <!-- South America -->
     <g transform="translate(1088.37 43.96375)scale(0.08 -0.08)">
      <defs>
       <path d="M 3425 4513 
L 3425 3897 
Q 3066 4069 2747 4153 
Q 2428 4238 2131 4238 
Q 1616 4238 1336 4038 
Q 1056 3838 1056 3469 
Q 1056 3159 1242 3001 
Q 1428 2844 1947 2747 
L 2328 2669 
Q 3034 2534 3370 2195 
Q 3706 1856 3706 1288 
Q 3706 609 3251 259 
Q 2797 -91 1919 -91 
Q 1588 -91 1214 -16 
Q 841 59 441 206 
L 441 856 
Q 825 641 1194 531 
Q 1563 422 1919 422 
Q 2459 422 2753 634 
Q 3047 847 3047 1241 
Q 3047 1584 2836 1778 
Q 2625 1972 2144 2069 
L 1759 2144 
Q 1053 2284 737 2584 
Q 422 2884 422 3419 
Q 422 4038 858 4394 
Q 1294 4750 2059 4750 
Q 2388 4750 2728 4690 
Q 3069 4631 3425 4513 
z
" id="DejaVuSans-53" transform="scale(0.015625)"/>
      </defs>
      <use xlink:href="#DejaVuSans-53"/>
      <use x="63.476562" xlink:href="#DejaVuSans-6f"/>
      <use x="124.658203" xlink:href="#DejaVuSans-75"/>
      <use x="188.037109" xlink:href="#DejaVuSans-74"/>
      <use x="227.246094" xlink:href="#DejaVuSans-68"/>
      <use x="290.625" xlink:href="#DejaVuSans-20"/>
      <use x="322.412109" xlink:href="#DejaVuSans-41"/>
      <use x="390.820312" xlink:href="#DejaVuSans-6d"/>
      <use x="488.232422" xlink:href="#DejaVuSans-65"/>
      <use x="549.755859" xlink:href="#DejaVuSans-72"/>
      <use x="590.869141" xlink:href="#DejaVuSans-69"/>
      <use x="618.652344" xlink:href="#DejaVuSans-63"/>
      <use x="673.632812" xlink:href="#DejaVuSans-61"/>
     </g>
    </g>
    <g id="line2d_28">
     <path d="M 1065.97 52.90625 
L 1081.97 52.90625 
" style="fill:none;stroke:#937252;stroke-linecap:square;stroke-width:2;"/>
    </g>
    <g id="line2d_29"/>
    <g id="text_20">
     <!-- Asia -->
     <g transform="translate(1088.37 55.70625)scale(0.08 -0.08)">
      <defs>
       <path d="M 2834 3397 
L 2834 2853 
Q 2591 2978 2328 3040 
Q 2066 3103 1784 3103 
Q 1356 3103 1142 2972 
Q 928 2841 928 2578 
Q 928 2378 1081 2264 
Q 1234 2150 1697 2047 
L 1894 2003 
Q 2506 1872 2764 1633 
Q 3022 1394 3022 966 
Q 3022 478 2636 193 
Q 2250 -91 1575 -91 
Q 1294 -91 989 -36 
Q 684 19 347 128 
L 347 722 
Q 666 556 975 473 
Q 1284 391 1588 391 
Q 1994 391 2212 530 
Q 2431 669 2431 922 
Q 2431 1156 2273 1281 
Q 2116 1406 1581 1522 
L 1381 1569 
Q 847 1681 609 1914 
Q 372 2147 372 2553 
Q 372 3047 722 3315 
Q 1072 3584 1716 3584 
Q 2034 3584 2315 3537 
Q 2597 3491 2834 3397 
z
" id="DejaVuSans-73" transform="scale(0.015625)"/>
      </defs>
      <use xlink:href="#DejaVuSans-41"/>
      <use x="68.408203" xlink:href="#DejaVuSans-73"/>
      <use x="120.507812" xlink:href="#DejaVuSans-69"/>
      <use x="148.291016" xlink:href="#DejaVuSans-61"/>
     </g>
    </g>
    <g id="line2d_30">
     <path d="M 1065.97 64.64875 
L 1081.97 64.64875 
" style="fill:none;stroke:#d18cad;stroke-linecap:square;stroke-width:2;"/>
    </g>
    <g id="line2d_31"/>
    <g id="text_21">
     <!-- United Kingdom -->
     <g transform="translate(1088.37 67.44875)scale(0.08 -0.08)">
      <defs>
       <path d="M 556 4666 
L 1191 4666 
L 1191 1831 
Q 1191 1081 1462 751 
Q 1734 422 2344 422 
Q 2950 422 3222 751 
Q 3494 1081 3494 1831 
L 3494 4666 
L 4128 4666 
L 4128 1753 
Q 4128 841 3676 375 
Q 3225 -91 2344 -91 
Q 1459 -91 1007 375 
Q 556 841 556 1753 
L 556 4666 
z
" id="DejaVuSans-55" transform="scale(0.015625)"/>
       <path d="M 628 4666 
L 1259 4666 
L 1259 2694 
L 3353 4666 
L 4166 4666 
L 1850 2491 
L 4331 0 
L 3500 0 
L 1259 2247 
L 1259 0 
L 628 0 
L 628 4666 
z
" id="DejaVuSans-4b" transform="scale(0.015625)"/>
      </defs>
      <use xlink:href="#DejaVuSans-55"/>
      <use x="73.193359" xlink:href="#DejaVuSans-6e"/>
      <use x="136.572266" xlink:href="#DejaVuSans-69"/>
      <use x="164.355469" xlink:href="#DejaVuSans-74"/>
      <use x="203.564453" xlink:href="#DejaVuSans-65"/>
      <use x="265.087891" xlink:href="#DejaVuSans-64"/>
      <use x="328.564453" xlink:href="#DejaVuSans-20"/>
      <use x="360.351562" xlink:href="#DejaVuSans-4b"/>
      <use x="425.927734" xlink:href="#DejaVuSans-69"/>
      <use x="453.710938" xlink:href="#DejaVuSans-6e"/>
      <use x="517.089844" xlink:href="#DejaVuSans-67"/>
      <use x="580.566406" xlink:href="#DejaVuSans-64"/>
      <use x="644.042969" xlink:href="#DejaVuSans-6f"/>
      <use x="705.224609" xlink:href="#DejaVuSans-6d"/>
     </g>
    </g>
    <g id="line2d_32">
     <path d="M 1065.97 76.39125 
L 1081.97 76.39125 
" style="fill:none;stroke:#a4a86f;stroke-linecap:square;stroke-width:2;"/>
    </g>
    <g id="line2d_33"/>
    <g id="text_22">
     <!-- Oceania -->
     <g transform="translate(1088.37 79.19125)scale(0.08 -0.08)">
      <defs>
       <path d="M 2522 4238 
Q 1834 4238 1429 3725 
Q 1025 3213 1025 2328 
Q 1025 1447 1429 934 
Q 1834 422 2522 422 
Q 3209 422 3611 934 
Q 4013 1447 4013 2328 
Q 4013 3213 3611 3725 
Q 3209 4238 2522 4238 
z
M 2522 4750 
Q 3503 4750 4090 4092 
Q 4678 3434 4678 2328 
Q 4678 1225 4090 567 
Q 3503 -91 2522 -91 
Q 1538 -91 948 565 
Q 359 1222 359 2328 
Q 359 3434 948 4092 
Q 1538 4750 2522 4750 
z
" id="DejaVuSans-4f" transform="scale(0.015625)"/>
      </defs>
      <use xlink:href="#DejaVuSans-4f"/>
      <use x="78.710938" xlink:href="#DejaVuSans-63"/>
      <use x="133.691406" xlink:href="#DejaVuSans-65"/>
      <use x="195.214844" xlink:href="#DejaVuSans-61"/>
      <use x="256.494141" xlink:href="#DejaVuSans-6e"/>
      <use x="319.873047" xlink:href="#DejaVuSans-69"/>
      <use x="347.65625" xlink:href="#DejaVuSans-61"/>
     </g>
    </g>
    <g id="line2d_34">
     <path d="M 1065.97 88.13375 
L 1081.97 88.13375 
" style="fill:none;stroke:#d3d3d3;stroke-linecap:square;stroke-width:2;"/>
    </g>
    <g id="line2d_35"/>
    <g id="text_23">
     <!-- Africa -->
     <g transform="translate(1088.37 90.93375)scale(0.08 -0.08)">
      <defs>
       <path d="M 2375 4863 
L 2375 4384 
L 1825 4384 
Q 1516 4384 1395 4259 
Q 1275 4134 1275 3809 
L 1275 3500 
L 2222 3500 
L 2222 3053 
L 1275 3053 
L 1275 0 
L 697 0 
L 697 3053 
L 147 3053 
L 147 3500 
L 697 3500 
L 697 3744 
Q 697 4328 969 4595 
Q 1241 4863 1831 4863 
L 2375 4863 
z
" id="DejaVuSans-66" transform="scale(0.015625)"/>
      </defs>
      <use xlink:href="#DejaVuSans-41"/>
      <use x="64.783203" xlink:href="#DejaVuSans-66"/>
      <use x="99.988281" xlink:href="#DejaVuSans-72"/>
      <use x="141.101562" xlink:href="#DejaVuSans-69"/>
      <use x="168.884766" xlink:href="#DejaVuSans-63"/>
      <use x="223.865234" xlink:href="#DejaVuSans-61"/>
     </g>
    </g>
   </g>
  </g>
 </g>
 <defs>
  <clipPath id="p3cf83c5810">
   <rect height="221.76" width="1116" x="43.78125" y="7.2"/>
  </clipPath>
 </defs>
</svg>
