<?xml version="1.0" encoding="utf-8" standalone="no"?>
<!DOCTYPE svg PUBLIC "-//W3C//DTD SVG 1.1//EN"
  "http://www.w3.org/Graphics/SVG/1.1/DTD/svg11.dtd">
<svg xmlns:xlink="http://www.w3.org/1999/xlink" width="1166.98125pt" height="298.620937pt" viewBox="0 0 1166.98125 298.620937" xmlns="http://www.w3.org/2000/svg" version="1.1">
 <metadata>
  <rdf:RDF xmlns:dc="http://purl.org/dc/elements/1.1/" xmlns:cc="http://creativecommons.org/ns#" xmlns:rdf="http://www.w3.org/1999/02/22-rdf-syntax-ns#">
   <cc:Work>
    <dc:type rdf:resource="http://purl.org/dc/dcmitype/StillImage"/>
    <dc:date>2022-03-13T02:30:09.137887</dc:date>
    <dc:format>image/svg+xml</dc:format>
    <dc:creator>
     <cc:Agent>
      <dc:title>Matplotlib v3.5.1, https://matplotlib.org/</dc:title>
     </cc:Agent>
    </dc:creator>
   </cc:Work>
  </rdf:RDF>
 </metadata>
 <defs>
  <style type="text/css">*{stroke-linejoin: round; stroke-linecap: butt}</style>
 </defs>
 <g id="figure_1">
  <g id="patch_1">
   <path d="M 0 298.620937 
L 1166.98125 298.620937 
L 1166.98125 0 
L 0 0 
z
" style="fill: #ffffff"/>
  </g>
  <g id="axes_1">
   <g id="patch_2">
    <path d="M 43.78125 228.96 
L 1159.78125 228.96 
L 1159.78125 7.2 
L 43.78125 7.2 
z
" style="fill: #ffffff"/>
   </g>
   <g id="matplotlib.axis_1">
    <g id="xtick_1">
     <g id="line2d_1">
      <defs>
       <path id="mbc556b4512" d="M 0 0 
L 0 3.5 
" style="stroke: #000000; stroke-width: 0.8"/>
      </defs>
      <g>
       <use xlink:href="#mbc556b4512" x="181.469562" y="228.96" style="stroke: #000000; stroke-width: 0.8"/>
      </g>
     </g>
     <g id="text_1">
      <!-- 2021-10 -->
      <g transform="translate(184.228937 277.742812)rotate(-90)scale(0.1 -0.1)">
       <defs>
        <path id="DejaVuSans-32" d="M 1228 531 
L 3431 531 
L 3431 0 
L 469 0 
L 469 531 
Q 828 903 1448 1529 
Q 2069 2156 2228 2338 
Q 2531 2678 2651 2914 
Q 2772 3150 2772 3378 
Q 2772 3750 2511 3984 
Q 2250 4219 1831 4219 
Q 1534 4219 1204 4116 
Q 875 4013 500 3803 
L 500 4441 
Q 881 4594 1212 4672 
Q 1544 4750 1819 4750 
Q 2544 4750 2975 4387 
Q 3406 4025 3406 3419 
Q 3406 3131 3298 2873 
Q 3191 2616 2906 2266 
Q 2828 2175 2409 1742 
Q 1991 1309 1228 531 
z
" transform="scale(0.015625)"/>
        <path id="DejaVuSans-30" d="M 2034 4250 
Q 1547 4250 1301 3770 
Q 1056 3291 1056 2328 
Q 1056 1369 1301 889 
Q 1547 409 2034 409 
Q 2525 409 2770 889 
Q 3016 1369 3016 2328 
Q 3016 3291 2770 3770 
Q 2525 4250 2034 4250 
z
M 2034 4750 
Q 2819 4750 3233 4129 
Q 3647 3509 3647 2328 
Q 3647 1150 3233 529 
Q 2819 -91 2034 -91 
Q 1250 -91 836 529 
Q 422 1150 422 2328 
Q 422 3509 836 4129 
Q 1250 4750 2034 4750 
z
" transform="scale(0.015625)"/>
        <path id="DejaVuSans-31" d="M 794 531 
L 1825 531 
L 1825 4091 
L 703 3866 
L 703 4441 
L 1819 4666 
L 2450 4666 
L 2450 531 
L 3481 531 
L 3481 0 
L 794 0 
L 794 531 
z
" transform="scale(0.015625)"/>
        <path id="DejaVuSans-2d" d="M 313 2009 
L 1997 2009 
L 1997 1497 
L 313 1497 
L 313 2009 
z
" transform="scale(0.015625)"/>
       </defs>
       <use xlink:href="#DejaVuSans-32"/>
       <use xlink:href="#DejaVuSans-30" x="63.623047"/>
       <use xlink:href="#DejaVuSans-32" x="127.246094"/>
       <use xlink:href="#DejaVuSans-31" x="190.869141"/>
       <use xlink:href="#DejaVuSans-2d" x="254.492188"/>
       <use xlink:href="#DejaVuSans-31" x="290.576172"/>
       <use xlink:href="#DejaVuSans-30" x="354.199219"/>
      </g>
     </g>
    </g>
    <g id="xtick_2">
     <g id="line2d_2">
      <g>
       <use xlink:href="#mbc556b4512" x="361.189042" y="228.96" style="stroke: #000000; stroke-width: 0.8"/>
      </g>
     </g>
     <g id="text_2">
      <!-- 2021-11 -->
      <g transform="translate(363.948417 277.742812)rotate(-90)scale(0.1 -0.1)">
       <use xlink:href="#DejaVuSans-32"/>
       <use xlink:href="#DejaVuSans-30" x="63.623047"/>
       <use xlink:href="#DejaVuSans-32" x="127.246094"/>
       <use xlink:href="#DejaVuSans-31" x="190.869141"/>
       <use xlink:href="#DejaVuSans-2d" x="254.492188"/>
       <use xlink:href="#DejaVuSans-31" x="290.576172"/>
       <use xlink:href="#DejaVuSans-31" x="354.199219"/>
      </g>
     </g>
    </g>
    <g id="xtick_3">
     <g id="line2d_3">
      <g>
       <use xlink:href="#mbc556b4512" x="535.11112" y="228.96" style="stroke: #000000; stroke-width: 0.8"/>
      </g>
     </g>
     <g id="text_3">
      <!-- 2021-12 -->
      <g transform="translate(537.870495 277.742812)rotate(-90)scale(0.1 -0.1)">
       <use xlink:href="#DejaVuSans-32"/>
       <use xlink:href="#DejaVuSans-30" x="63.623047"/>
       <use xlink:href="#DejaVuSans-32" x="127.246094"/>
       <use xlink:href="#DejaVuSans-31" x="190.869141"/>
       <use xlink:href="#DejaVuSans-2d" x="254.492188"/>
       <use xlink:href="#DejaVuSans-31" x="290.576172"/>
       <use xlink:href="#DejaVuSans-32" x="354.199219"/>
      </g>
     </g>
    </g>
    <g id="xtick_4">
     <g id="line2d_4">
      <g>
       <use xlink:href="#mbc556b4512" x="714.830601" y="228.96" style="stroke: #000000; stroke-width: 0.8"/>
      </g>
     </g>
     <g id="text_4">
      <!-- 2022-01 -->
      <g transform="translate(717.589976 277.742812)rotate(-90)scale(0.1 -0.1)">
       <use xlink:href="#DejaVuSans-32"/>
       <use xlink:href="#DejaVuSans-30" x="63.623047"/>
       <use xlink:href="#DejaVuSans-32" x="127.246094"/>
       <use xlink:href="#DejaVuSans-32" x="190.869141"/>
       <use xlink:href="#DejaVuSans-2d" x="254.492188"/>
       <use xlink:href="#DejaVuSans-30" x="290.576172"/>
       <use xlink:href="#DejaVuSans-31" x="354.199219"/>
      </g>
     </g>
    </g>
    <g id="xtick_5">
     <g id="line2d_5">
      <g>
       <use xlink:href="#mbc556b4512" x="894.550081" y="228.96" style="stroke: #000000; stroke-width: 0.8"/>
      </g>
     </g>
     <g id="text_5">
      <!-- 2022-02 -->
      <g transform="translate(897.309456 277.742812)rotate(-90)scale(0.1 -0.1)">
       <use xlink:href="#DejaVuSans-32"/>
       <use xlink:href="#DejaVuSans-30" x="63.623047"/>
       <use xlink:href="#DejaVuSans-32" x="127.246094"/>
       <use xlink:href="#DejaVuSans-32" x="190.869141"/>
       <use xlink:href="#DejaVuSans-2d" x="254.492188"/>
       <use xlink:href="#DejaVuSans-30" x="290.576172"/>
       <use xlink:href="#DejaVuSans-32" x="354.199219"/>
      </g>
     </g>
    </g>
    <g id="xtick_6">
     <g id="line2d_6">
      <g>
       <use xlink:href="#mbc556b4512" x="1056.877354" y="228.96" style="stroke: #000000; stroke-width: 0.8"/>
      </g>
     </g>
     <g id="text_6">
      <!-- 2022-03 -->
      <g transform="translate(1059.636729 277.742812)rotate(-90)scale(0.1 -0.1)">
       <defs>
        <path id="DejaVuSans-33" d="M 2597 2516 
Q 3050 2419 3304 2112 
Q 3559 1806 3559 1356 
Q 3559 666 3084 287 
Q 2609 -91 1734 -91 
Q 1441 -91 1130 -33 
Q 819 25 488 141 
L 488 750 
Q 750 597 1062 519 
Q 1375 441 1716 441 
Q 2309 441 2620 675 
Q 2931 909 2931 1356 
Q 2931 1769 2642 2001 
Q 2353 2234 1838 2234 
L 1294 2234 
L 1294 2753 
L 1863 2753 
Q 2328 2753 2575 2939 
Q 2822 3125 2822 3475 
Q 2822 3834 2567 4026 
Q 2313 4219 1838 4219 
Q 1578 4219 1281 4162 
Q 984 4106 628 3988 
L 628 4550 
Q 988 4650 1302 4700 
Q 1616 4750 1894 4750 
Q 2613 4750 3031 4423 
Q 3450 4097 3450 3541 
Q 3450 3153 3228 2886 
Q 3006 2619 2597 2516 
z
" transform="scale(0.015625)"/>
       </defs>
       <use xlink:href="#DejaVuSans-32"/>
       <use xlink:href="#DejaVuSans-30" x="63.623047"/>
       <use xlink:href="#DejaVuSans-32" x="127.246094"/>
       <use xlink:href="#DejaVuSans-32" x="190.869141"/>
       <use xlink:href="#DejaVuSans-2d" x="254.492188"/>
       <use xlink:href="#DejaVuSans-30" x="290.576172"/>
       <use xlink:href="#DejaVuSans-33" x="354.199219"/>
      </g>
     </g>
    </g>
    <g id="text_7">
     <!-- Date -->
     <g transform="translate(589.830469 289.34125)scale(0.1 -0.1)">
      <defs>
       <path id="DejaVuSans-44" d="M 1259 4147 
L 1259 519 
L 2022 519 
Q 2988 519 3436 956 
Q 3884 1394 3884 2338 
Q 3884 3275 3436 3711 
Q 2988 4147 2022 4147 
L 1259 4147 
z
M 628 4666 
L 1925 4666 
Q 3281 4666 3915 4102 
Q 4550 3538 4550 2338 
Q 4550 1131 3912 565 
Q 3275 0 1925 0 
L 628 0 
L 628 4666 
z
" transform="scale(0.015625)"/>
       <path id="DejaVuSans-61" d="M 2194 1759 
Q 1497 1759 1228 1600 
Q 959 1441 959 1056 
Q 959 750 1161 570 
Q 1363 391 1709 391 
Q 2188 391 2477 730 
Q 2766 1069 2766 1631 
L 2766 1759 
L 2194 1759 
z
M 3341 1997 
L 3341 0 
L 2766 0 
L 2766 531 
Q 2569 213 2275 61 
Q 1981 -91 1556 -91 
Q 1019 -91 701 211 
Q 384 513 384 1019 
Q 384 1609 779 1909 
Q 1175 2209 1959 2209 
L 2766 2209 
L 2766 2266 
Q 2766 2663 2505 2880 
Q 2244 3097 1772 3097 
Q 1472 3097 1187 3025 
Q 903 2953 641 2809 
L 641 3341 
Q 956 3463 1253 3523 
Q 1550 3584 1831 3584 
Q 2591 3584 2966 3190 
Q 3341 2797 3341 1997 
z
" transform="scale(0.015625)"/>
       <path id="DejaVuSans-74" d="M 1172 4494 
L 1172 3500 
L 2356 3500 
L 2356 3053 
L 1172 3053 
L 1172 1153 
Q 1172 725 1289 603 
Q 1406 481 1766 481 
L 2356 481 
L 2356 0 
L 1766 0 
Q 1100 0 847 248 
Q 594 497 594 1153 
L 594 3053 
L 172 3053 
L 172 3500 
L 594 3500 
L 594 4494 
L 1172 4494 
z
" transform="scale(0.015625)"/>
       <path id="DejaVuSans-65" d="M 3597 1894 
L 3597 1613 
L 953 1613 
Q 991 1019 1311 708 
Q 1631 397 2203 397 
Q 2534 397 2845 478 
Q 3156 559 3463 722 
L 3463 178 
Q 3153 47 2828 -22 
Q 2503 -91 2169 -91 
Q 1331 -91 842 396 
Q 353 884 353 1716 
Q 353 2575 817 3079 
Q 1281 3584 2069 3584 
Q 2775 3584 3186 3129 
Q 3597 2675 3597 1894 
z
M 3022 2063 
Q 3016 2534 2758 2815 
Q 2500 3097 2075 3097 
Q 1594 3097 1305 2825 
Q 1016 2553 972 2059 
L 3022 2063 
z
" transform="scale(0.015625)"/>
      </defs>
      <use xlink:href="#DejaVuSans-44"/>
      <use xlink:href="#DejaVuSans-61" x="77.001953"/>
      <use xlink:href="#DejaVuSans-74" x="138.28125"/>
      <use xlink:href="#DejaVuSans-65" x="177.490234"/>
     </g>
    </g>
   </g>
   <g id="matplotlib.axis_2">
    <g id="ytick_1">
     <g id="line2d_7">
      <defs>
       <path id="mb4a4c66b0f" d="M 0 0 
L -3.5 0 
" style="stroke: #000000; stroke-width: 0.8"/>
      </defs>
      <g>
       <use xlink:href="#mb4a4c66b0f" x="43.78125" y="228.96" style="stroke: #000000; stroke-width: 0.8"/>
      </g>
     </g>
     <g id="text_8">
      <!-- 0.0 -->
      <g transform="translate(20.878125 232.759219)scale(0.1 -0.1)">
       <defs>
        <path id="DejaVuSans-2e" d="M 684 794 
L 1344 794 
L 1344 0 
L 684 0 
L 684 794 
z
" transform="scale(0.015625)"/>
       </defs>
       <use xlink:href="#DejaVuSans-30"/>
       <use xlink:href="#DejaVuSans-2e" x="63.623047"/>
       <use xlink:href="#DejaVuSans-30" x="95.410156"/>
      </g>
     </g>
    </g>
    <g id="ytick_2">
     <g id="line2d_8">
      <g>
       <use xlink:href="#mb4a4c66b0f" x="43.78125" y="186.72" style="stroke: #000000; stroke-width: 0.8"/>
      </g>
     </g>
     <g id="text_9">
      <!-- 0.2 -->
      <g transform="translate(20.878125 190.519219)scale(0.1 -0.1)">
       <use xlink:href="#DejaVuSans-30"/>
       <use xlink:href="#DejaVuSans-2e" x="63.623047"/>
       <use xlink:href="#DejaVuSans-32" x="95.410156"/>
      </g>
     </g>
    </g>
    <g id="ytick_3">
     <g id="line2d_9">
      <g>
       <use xlink:href="#mb4a4c66b0f" x="43.78125" y="144.48" style="stroke: #000000; stroke-width: 0.8"/>
      </g>
     </g>
     <g id="text_10">
      <!-- 0.4 -->
      <g transform="translate(20.878125 148.279219)scale(0.1 -0.1)">
       <defs>
        <path id="DejaVuSans-34" d="M 2419 4116 
L 825 1625 
L 2419 1625 
L 2419 4116 
z
M 2253 4666 
L 3047 4666 
L 3047 1625 
L 3713 1625 
L 3713 1100 
L 3047 1100 
L 3047 0 
L 2419 0 
L 2419 1100 
L 313 1100 
L 313 1709 
L 2253 4666 
z
" transform="scale(0.015625)"/>
       </defs>
       <use xlink:href="#DejaVuSans-30"/>
       <use xlink:href="#DejaVuSans-2e" x="63.623047"/>
       <use xlink:href="#DejaVuSans-34" x="95.410156"/>
      </g>
     </g>
    </g>
    <g id="ytick_4">
     <g id="line2d_10">
      <g>
       <use xlink:href="#mb4a4c66b0f" x="43.78125" y="102.24" style="stroke: #000000; stroke-width: 0.8"/>
      </g>
     </g>
     <g id="text_11">
      <!-- 0.6 -->
      <g transform="translate(20.878125 106.039219)scale(0.1 -0.1)">
       <defs>
        <path id="DejaVuSans-36" d="M 2113 2584 
Q 1688 2584 1439 2293 
Q 1191 2003 1191 1497 
Q 1191 994 1439 701 
Q 1688 409 2113 409 
Q 2538 409 2786 701 
Q 3034 994 3034 1497 
Q 3034 2003 2786 2293 
Q 2538 2584 2113 2584 
z
M 3366 4563 
L 3366 3988 
Q 3128 4100 2886 4159 
Q 2644 4219 2406 4219 
Q 1781 4219 1451 3797 
Q 1122 3375 1075 2522 
Q 1259 2794 1537 2939 
Q 1816 3084 2150 3084 
Q 2853 3084 3261 2657 
Q 3669 2231 3669 1497 
Q 3669 778 3244 343 
Q 2819 -91 2113 -91 
Q 1303 -91 875 529 
Q 447 1150 447 2328 
Q 447 3434 972 4092 
Q 1497 4750 2381 4750 
Q 2619 4750 2861 4703 
Q 3103 4656 3366 4563 
z
" transform="scale(0.015625)"/>
       </defs>
       <use xlink:href="#DejaVuSans-30"/>
       <use xlink:href="#DejaVuSans-2e" x="63.623047"/>
       <use xlink:href="#DejaVuSans-36" x="95.410156"/>
      </g>
     </g>
    </g>
    <g id="ytick_5">
     <g id="line2d_11">
      <g>
       <use xlink:href="#mb4a4c66b0f" x="43.78125" y="60" style="stroke: #000000; stroke-width: 0.8"/>
      </g>
     </g>
     <g id="text_12">
      <!-- 0.8 -->
      <g transform="translate(20.878125 63.799219)scale(0.1 -0.1)">
       <defs>
        <path id="DejaVuSans-38" d="M 2034 2216 
Q 1584 2216 1326 1975 
Q 1069 1734 1069 1313 
Q 1069 891 1326 650 
Q 1584 409 2034 409 
Q 2484 409 2743 651 
Q 3003 894 3003 1313 
Q 3003 1734 2745 1975 
Q 2488 2216 2034 2216 
z
M 1403 2484 
Q 997 2584 770 2862 
Q 544 3141 544 3541 
Q 544 4100 942 4425 
Q 1341 4750 2034 4750 
Q 2731 4750 3128 4425 
Q 3525 4100 3525 3541 
Q 3525 3141 3298 2862 
Q 3072 2584 2669 2484 
Q 3125 2378 3379 2068 
Q 3634 1759 3634 1313 
Q 3634 634 3220 271 
Q 2806 -91 2034 -91 
Q 1263 -91 848 271 
Q 434 634 434 1313 
Q 434 1759 690 2068 
Q 947 2378 1403 2484 
z
M 1172 3481 
Q 1172 3119 1398 2916 
Q 1625 2713 2034 2713 
Q 2441 2713 2670 2916 
Q 2900 3119 2900 3481 
Q 2900 3844 2670 4047 
Q 2441 4250 2034 4250 
Q 1625 4250 1398 4047 
Q 1172 3844 1172 3481 
z
" transform="scale(0.015625)"/>
       </defs>
       <use xlink:href="#DejaVuSans-30"/>
       <use xlink:href="#DejaVuSans-2e" x="63.623047"/>
       <use xlink:href="#DejaVuSans-38" x="95.410156"/>
      </g>
     </g>
    </g>
    <g id="ytick_6">
     <g id="line2d_12">
      <g>
       <use xlink:href="#mb4a4c66b0f" x="43.78125" y="17.76" style="stroke: #000000; stroke-width: 0.8"/>
      </g>
     </g>
     <g id="text_13">
      <!-- 1.0 -->
      <g transform="translate(20.878125 21.559219)scale(0.1 -0.1)">
       <use xlink:href="#DejaVuSans-31"/>
       <use xlink:href="#DejaVuSans-2e" x="63.623047"/>
       <use xlink:href="#DejaVuSans-30" x="95.410156"/>
      </g>
     </g>
    </g>
    <g id="text_14">
     <!-- Frequency (7 day rolling average) -->
     <g transform="translate(14.798437 202.529219)rotate(-90)scale(0.1 -0.1)">
      <defs>
       <path id="DejaVuSans-46" d="M 628 4666 
L 3309 4666 
L 3309 4134 
L 1259 4134 
L 1259 2759 
L 3109 2759 
L 3109 2228 
L 1259 2228 
L 1259 0 
L 628 0 
L 628 4666 
z
" transform="scale(0.015625)"/>
       <path id="DejaVuSans-72" d="M 2631 2963 
Q 2534 3019 2420 3045 
Q 2306 3072 2169 3072 
Q 1681 3072 1420 2755 
Q 1159 2438 1159 1844 
L 1159 0 
L 581 0 
L 581 3500 
L 1159 3500 
L 1159 2956 
Q 1341 3275 1631 3429 
Q 1922 3584 2338 3584 
Q 2397 3584 2469 3576 
Q 2541 3569 2628 3553 
L 2631 2963 
z
" transform="scale(0.015625)"/>
       <path id="DejaVuSans-71" d="M 947 1747 
Q 947 1113 1208 752 
Q 1469 391 1925 391 
Q 2381 391 2643 752 
Q 2906 1113 2906 1747 
Q 2906 2381 2643 2742 
Q 2381 3103 1925 3103 
Q 1469 3103 1208 2742 
Q 947 2381 947 1747 
z
M 2906 525 
Q 2725 213 2448 61 
Q 2172 -91 1784 -91 
Q 1150 -91 751 415 
Q 353 922 353 1747 
Q 353 2572 751 3078 
Q 1150 3584 1784 3584 
Q 2172 3584 2448 3432 
Q 2725 3281 2906 2969 
L 2906 3500 
L 3481 3500 
L 3481 -1331 
L 2906 -1331 
L 2906 525 
z
" transform="scale(0.015625)"/>
       <path id="DejaVuSans-75" d="M 544 1381 
L 544 3500 
L 1119 3500 
L 1119 1403 
Q 1119 906 1312 657 
Q 1506 409 1894 409 
Q 2359 409 2629 706 
Q 2900 1003 2900 1516 
L 2900 3500 
L 3475 3500 
L 3475 0 
L 2900 0 
L 2900 538 
Q 2691 219 2414 64 
Q 2138 -91 1772 -91 
Q 1169 -91 856 284 
Q 544 659 544 1381 
z
M 1991 3584 
L 1991 3584 
z
" transform="scale(0.015625)"/>
       <path id="DejaVuSans-6e" d="M 3513 2113 
L 3513 0 
L 2938 0 
L 2938 2094 
Q 2938 2591 2744 2837 
Q 2550 3084 2163 3084 
Q 1697 3084 1428 2787 
Q 1159 2491 1159 1978 
L 1159 0 
L 581 0 
L 581 3500 
L 1159 3500 
L 1159 2956 
Q 1366 3272 1645 3428 
Q 1925 3584 2291 3584 
Q 2894 3584 3203 3211 
Q 3513 2838 3513 2113 
z
" transform="scale(0.015625)"/>
       <path id="DejaVuSans-63" d="M 3122 3366 
L 3122 2828 
Q 2878 2963 2633 3030 
Q 2388 3097 2138 3097 
Q 1578 3097 1268 2742 
Q 959 2388 959 1747 
Q 959 1106 1268 751 
Q 1578 397 2138 397 
Q 2388 397 2633 464 
Q 2878 531 3122 666 
L 3122 134 
Q 2881 22 2623 -34 
Q 2366 -91 2075 -91 
Q 1284 -91 818 406 
Q 353 903 353 1747 
Q 353 2603 823 3093 
Q 1294 3584 2113 3584 
Q 2378 3584 2631 3529 
Q 2884 3475 3122 3366 
z
" transform="scale(0.015625)"/>
       <path id="DejaVuSans-79" d="M 2059 -325 
Q 1816 -950 1584 -1140 
Q 1353 -1331 966 -1331 
L 506 -1331 
L 506 -850 
L 844 -850 
Q 1081 -850 1212 -737 
Q 1344 -625 1503 -206 
L 1606 56 
L 191 3500 
L 800 3500 
L 1894 763 
L 2988 3500 
L 3597 3500 
L 2059 -325 
z
" transform="scale(0.015625)"/>
       <path id="DejaVuSans-20" transform="scale(0.015625)"/>
       <path id="DejaVuSans-28" d="M 1984 4856 
Q 1566 4138 1362 3434 
Q 1159 2731 1159 2009 
Q 1159 1288 1364 580 
Q 1569 -128 1984 -844 
L 1484 -844 
Q 1016 -109 783 600 
Q 550 1309 550 2009 
Q 550 2706 781 3412 
Q 1013 4119 1484 4856 
L 1984 4856 
z
" transform="scale(0.015625)"/>
       <path id="DejaVuSans-37" d="M 525 4666 
L 3525 4666 
L 3525 4397 
L 1831 0 
L 1172 0 
L 2766 4134 
L 525 4134 
L 525 4666 
z
" transform="scale(0.015625)"/>
       <path id="DejaVuSans-64" d="M 2906 2969 
L 2906 4863 
L 3481 4863 
L 3481 0 
L 2906 0 
L 2906 525 
Q 2725 213 2448 61 
Q 2172 -91 1784 -91 
Q 1150 -91 751 415 
Q 353 922 353 1747 
Q 353 2572 751 3078 
Q 1150 3584 1784 3584 
Q 2172 3584 2448 3432 
Q 2725 3281 2906 2969 
z
M 947 1747 
Q 947 1113 1208 752 
Q 1469 391 1925 391 
Q 2381 391 2643 752 
Q 2906 1113 2906 1747 
Q 2906 2381 2643 2742 
Q 2381 3103 1925 3103 
Q 1469 3103 1208 2742 
Q 947 2381 947 1747 
z
" transform="scale(0.015625)"/>
       <path id="DejaVuSans-6f" d="M 1959 3097 
Q 1497 3097 1228 2736 
Q 959 2375 959 1747 
Q 959 1119 1226 758 
Q 1494 397 1959 397 
Q 2419 397 2687 759 
Q 2956 1122 2956 1747 
Q 2956 2369 2687 2733 
Q 2419 3097 1959 3097 
z
M 1959 3584 
Q 2709 3584 3137 3096 
Q 3566 2609 3566 1747 
Q 3566 888 3137 398 
Q 2709 -91 1959 -91 
Q 1206 -91 779 398 
Q 353 888 353 1747 
Q 353 2609 779 3096 
Q 1206 3584 1959 3584 
z
" transform="scale(0.015625)"/>
       <path id="DejaVuSans-6c" d="M 603 4863 
L 1178 4863 
L 1178 0 
L 603 0 
L 603 4863 
z
" transform="scale(0.015625)"/>
       <path id="DejaVuSans-69" d="M 603 3500 
L 1178 3500 
L 1178 0 
L 603 0 
L 603 3500 
z
M 603 4863 
L 1178 4863 
L 1178 4134 
L 603 4134 
L 603 4863 
z
" transform="scale(0.015625)"/>
       <path id="DejaVuSans-67" d="M 2906 1791 
Q 2906 2416 2648 2759 
Q 2391 3103 1925 3103 
Q 1463 3103 1205 2759 
Q 947 2416 947 1791 
Q 947 1169 1205 825 
Q 1463 481 1925 481 
Q 2391 481 2648 825 
Q 2906 1169 2906 1791 
z
M 3481 434 
Q 3481 -459 3084 -895 
Q 2688 -1331 1869 -1331 
Q 1566 -1331 1297 -1286 
Q 1028 -1241 775 -1147 
L 775 -588 
Q 1028 -725 1275 -790 
Q 1522 -856 1778 -856 
Q 2344 -856 2625 -561 
Q 2906 -266 2906 331 
L 2906 616 
Q 2728 306 2450 153 
Q 2172 0 1784 0 
Q 1141 0 747 490 
Q 353 981 353 1791 
Q 353 2603 747 3093 
Q 1141 3584 1784 3584 
Q 2172 3584 2450 3431 
Q 2728 3278 2906 2969 
L 2906 3500 
L 3481 3500 
L 3481 434 
z
" transform="scale(0.015625)"/>
       <path id="DejaVuSans-76" d="M 191 3500 
L 800 3500 
L 1894 563 
L 2988 3500 
L 3597 3500 
L 2284 0 
L 1503 0 
L 191 3500 
z
" transform="scale(0.015625)"/>
       <path id="DejaVuSans-29" d="M 513 4856 
L 1013 4856 
Q 1481 4119 1714 3412 
Q 1947 2706 1947 2009 
Q 1947 1309 1714 600 
Q 1481 -109 1013 -844 
L 513 -844 
Q 928 -128 1133 580 
Q 1338 1288 1338 2009 
Q 1338 2731 1133 3434 
Q 928 4138 513 4856 
z
" transform="scale(0.015625)"/>
      </defs>
      <use xlink:href="#DejaVuSans-46"/>
      <use xlink:href="#DejaVuSans-72" x="50.269531"/>
      <use xlink:href="#DejaVuSans-65" x="89.132812"/>
      <use xlink:href="#DejaVuSans-71" x="150.65625"/>
      <use xlink:href="#DejaVuSans-75" x="214.132812"/>
      <use xlink:href="#DejaVuSans-65" x="277.511719"/>
      <use xlink:href="#DejaVuSans-6e" x="339.035156"/>
      <use xlink:href="#DejaVuSans-63" x="402.414062"/>
      <use xlink:href="#DejaVuSans-79" x="457.394531"/>
      <use xlink:href="#DejaVuSans-20" x="516.574219"/>
      <use xlink:href="#DejaVuSans-28" x="548.361328"/>
      <use xlink:href="#DejaVuSans-37" x="587.375"/>
      <use xlink:href="#DejaVuSans-20" x="650.998047"/>
      <use xlink:href="#DejaVuSans-64" x="682.785156"/>
      <use xlink:href="#DejaVuSans-61" x="746.261719"/>
      <use xlink:href="#DejaVuSans-79" x="807.541016"/>
      <use xlink:href="#DejaVuSans-20" x="866.720703"/>
      <use xlink:href="#DejaVuSans-72" x="898.507812"/>
      <use xlink:href="#DejaVuSans-6f" x="937.371094"/>
      <use xlink:href="#DejaVuSans-6c" x="998.552734"/>
      <use xlink:href="#DejaVuSans-6c" x="1026.335938"/>
      <use xlink:href="#DejaVuSans-69" x="1054.119141"/>
      <use xlink:href="#DejaVuSans-6e" x="1081.902344"/>
      <use xlink:href="#DejaVuSans-67" x="1145.28125"/>
      <use xlink:href="#DejaVuSans-20" x="1208.757812"/>
      <use xlink:href="#DejaVuSans-61" x="1240.544922"/>
      <use xlink:href="#DejaVuSans-76" x="1301.824219"/>
      <use xlink:href="#DejaVuSans-65" x="1361.003906"/>
      <use xlink:href="#DejaVuSans-72" x="1422.527344"/>
      <use xlink:href="#DejaVuSans-61" x="1463.640625"/>
      <use xlink:href="#DejaVuSans-67" x="1524.919922"/>
      <use xlink:href="#DejaVuSans-65" x="1588.396484"/>
      <use xlink:href="#DejaVuSans-29" x="1649.919922"/>
     </g>
    </g>
   </g>
   <g id="line2d_13">
    <path d="M 239.443588 228.953733 
L 337.999432 228.953541 
L 494.529302 228.848449 
L 506.124107 228.568983 
L 511.92151 228.11445 
L 523.516315 227.74897 
L 535.11112 227.08262 
L 540.908523 226.743534 
L 546.705925 225.833863 
L 552.503328 224.503854 
L 558.300731 223.293548 
L 564.098133 221.198232 
L 569.895536 218.447075 
L 575.692938 215.050159 
L 581.490341 210.210413 
L 587.287744 201.4722 
L 593.085146 193.75879 
L 598.882549 182.369838 
L 604.679951 168.596248 
L 616.274756 137.31469 
L 622.072159 123.417581 
L 627.869562 111.571776 
L 633.666964 98.946376 
L 639.464367 88.966173 
L 645.261769 81.815384 
L 651.059172 71.548765 
L 656.856575 62.663471 
L 662.653977 58.321338 
L 668.45138 52.68447 
L 680.046185 43.874678 
L 685.843588 40.671671 
L 691.64099 35.807846 
L 697.438393 33.54958 
L 703.235795 30.533429 
L 714.830601 26.724657 
L 720.628003 25.87032 
L 726.425406 24.842662 
L 732.222808 24.08149 
L 743.817614 22.894721 
L 749.615016 22.638117 
L 755.412419 22.200047 
L 767.007224 21.604846 
L 772.804627 21.11387 
L 778.602029 20.443169 
L 813.386445 19.180218 
L 848.17086 18.549071 
L 853.968263 18.582497 
L 871.360471 18.440814 
L 888.752679 18.29831 
L 906.144886 18.272386 
L 940.929302 18.582831 
L 964.118912 18.545039 
L 975.713718 18.49197 
L 998.903328 18.507129 
L 1004.700731 18.432929 
L 1045.282549 18.756838 
L 1056.877354 18.777441 
L 1074.269562 18.7338 
L 1080.066964 18.577491 
L 1085.864367 18.290041 
L 1085.864367 18.290041 
" clip-path="url(#p109e87bf4e)" style="fill: none; stroke: #947383; stroke-width: 2; stroke-linecap: square"/>
   </g>
   <g id="line2d_14">
    <path d="M 193.064367 228.857002 
L 326.404627 228.96 
L 401.77086 228.941697 
L 500.326705 228.793706 
L 535.11112 227.948106 
L 540.908523 227.656234 
L 552.503328 226.828257 
L 564.098133 225.553794 
L 569.895536 224.119131 
L 575.692938 221.542796 
L 581.490341 218.344989 
L 587.287744 214.175669 
L 593.085146 208.649905 
L 598.882549 202.632047 
L 604.679951 196.243855 
L 610.477354 186.394057 
L 616.274756 173.443785 
L 622.072159 159.936962 
L 627.869562 147.118502 
L 633.666964 131.962041 
L 639.464367 120.241731 
L 645.261769 110.48107 
L 651.059172 99.014566 
L 656.856575 86.004697 
L 668.45138 66.63912 
L 674.248782 59.613592 
L 680.046185 55.571009 
L 685.843588 52.642483 
L 691.64099 49.471251 
L 697.438393 45.846697 
L 703.235795 41.896051 
L 709.033198 38.248723 
L 714.830601 36.135278 
L 720.628003 34.167176 
L 726.425406 32.801416 
L 732.222808 31.314926 
L 738.020211 30.155962 
L 743.817614 28.491559 
L 749.615016 27.285214 
L 755.412419 26.40731 
L 767.007224 25.238201 
L 772.804627 24.323984 
L 778.602029 23.657748 
L 784.399432 23.205873 
L 795.994237 21.776604 
L 801.79164 21.282271 
L 813.386445 20.468742 
L 819.183847 20.035175 
L 865.563068 19.188807 
L 877.157873 18.850799 
L 888.752679 18.647931 
L 917.739692 18.453017 
L 929.334497 18.283157 
L 998.903328 18.115041 
L 1004.700731 18.077284 
L 1010.498133 18.22924 
L 1051.079951 18.236546 
L 1056.877354 18.153479 
L 1062.674756 19.97731 
L 1068.472159 19.75429 
L 1085.864367 19.637333 
L 1091.661769 17.76 
L 1091.661769 17.76 
" clip-path="url(#p109e87bf4e)" style="fill: none; stroke: #96c6ad; stroke-width: 2; stroke-linecap: square"/>
   </g>
   <g id="line2d_15">
    <path d="M 169.874756 226.613333 
L 175.672159 228.96 
L 210.456575 228.96 
L 216.253977 228.787592 
L 239.443588 228.787592 
L 245.24099 228.96 
L 285.822808 228.96 
L 291.620211 228.804706 
L 326.404627 228.859667 
L 337.999432 228.96 
L 372.783847 228.96 
L 378.58125 228.785093 
L 424.960471 228.721655 
L 430.757873 228.65657 
L 442.352679 228.735671 
L 471.339692 228.821155 
L 500.326705 228.613408 
L 517.718912 227.209419 
L 523.516315 226.959402 
L 540.908523 225.485143 
L 546.705925 224.432867 
L 552.503328 223.672083 
L 558.300731 222.666553 
L 564.098133 222.290294 
L 569.895536 220.410213 
L 575.692938 218.165679 
L 581.490341 215.771208 
L 587.287744 213.688395 
L 593.085146 209.808273 
L 598.882549 205.75835 
L 604.679951 204.186908 
L 610.477354 198.010336 
L 616.274756 190.583012 
L 622.072159 184.265307 
L 627.869562 178.476413 
L 633.666964 169.548358 
L 639.464367 159.490241 
L 645.261769 156.67094 
L 651.059172 151.453814 
L 656.856575 147.04187 
L 662.653977 143.765994 
L 668.45138 145.437238 
L 674.248782 136.489019 
L 680.046185 130.731931 
L 685.843588 121.452608 
L 691.64099 111.561523 
L 697.438393 103.079207 
L 703.235795 98.072959 
L 709.033198 92.034632 
L 714.830601 87.900569 
L 720.628003 80.686169 
L 732.222808 69.279 
L 738.020211 63.875298 
L 743.817614 61.364375 
L 749.615016 61.569933 
L 755.412419 58.395232 
L 767.007224 52.723274 
L 772.804627 48.117651 
L 778.602029 44.535616 
L 784.399432 41.703884 
L 790.196834 39.226879 
L 795.994237 36.085995 
L 801.79164 33.432121 
L 807.589042 31.568081 
L 813.386445 30.160599 
L 819.183847 28.406549 
L 830.778653 26.635515 
L 836.576055 25.618367 
L 842.373458 24.209018 
L 848.17086 23.479636 
L 853.968263 22.927971 
L 859.765666 22.703597 
L 865.563068 22.035992 
L 871.360471 21.637255 
L 882.955276 20.577924 
L 888.752679 20.289577 
L 894.550081 20.306973 
L 900.347484 19.965373 
L 906.144886 19.866382 
L 911.942289 19.93992 
L 917.739692 19.672611 
L 923.537094 19.260248 
L 940.929302 18.946756 
L 946.726705 18.972082 
L 958.32151 19.212081 
L 964.118912 19.097337 
L 969.916315 19.096069 
L 975.713718 19.229718 
L 987.308523 18.884274 
L 998.903328 19.111798 
L 1010.498133 18.929014 
L 1022.092938 19.060499 
L 1027.890341 18.930337 
L 1033.687744 18.672494 
L 1056.877354 18.275686 
L 1062.674756 19.653785 
L 1080.066964 19.44613 
L 1085.864367 19.297266 
L 1091.661769 17.890961 
L 1097.459172 17.890961 
L 1097.459172 17.890961 
" clip-path="url(#p109e87bf4e)" style="fill: none; stroke: #525886; stroke-width: 2; stroke-linecap: square"/>
   </g>
   <g id="line2d_16">
    <path d="M 94.508523 226.144 
L 100.305925 228.96 
L 407.568263 228.96 
L 413.365666 228.814845 
L 419.163068 228.814845 
L 430.757873 228.443498 
L 436.555276 227.653965 
L 442.352679 227.483896 
L 448.150081 227.483896 
L 453.947484 227.650195 
L 459.744886 227.445146 
L 465.542289 227.977118 
L 471.339692 227.937384 
L 482.934497 227.392605 
L 488.731899 227.495129 
L 494.529302 227.208827 
L 500.326705 227.282654 
L 506.124107 227.173846 
L 523.516315 226.017468 
L 529.313718 225.988391 
L 535.11112 225.086223 
L 540.908523 225.13235 
L 546.705925 225.024882 
L 552.503328 224.212431 
L 558.300731 222.718212 
L 569.895536 220.74717 
L 575.692938 219.458829 
L 581.490341 218.680249 
L 587.287744 218.57104 
L 593.085146 217.008129 
L 598.882549 212.009206 
L 604.679951 209.587286 
L 610.477354 206.380709 
L 616.274756 199.951506 
L 622.072159 196.118412 
L 627.869562 193.420773 
L 633.666964 184.494927 
L 639.464367 173.031884 
L 645.261769 172.082508 
L 651.059172 161.382919 
L 656.856575 151.271233 
L 662.653977 147.407269 
L 668.45138 141.82567 
L 674.248782 128.691291 
L 680.046185 119.534013 
L 685.843588 111.991064 
L 691.64099 101.697571 
L 697.438393 93.165365 
L 703.235795 91.635698 
L 709.033198 94.342937 
L 714.830601 87.314362 
L 720.628003 82.303252 
L 726.425406 79.533533 
L 732.222808 69.025314 
L 738.020211 57.773789 
L 743.817614 55.918914 
L 749.615016 52.395368 
L 755.412419 48.738662 
L 761.209821 45.498182 
L 767.007224 43.179482 
L 772.804627 40.137235 
L 778.602029 36.818086 
L 784.399432 35.039721 
L 790.196834 32.292496 
L 795.994237 30.757688 
L 801.79164 29.57973 
L 807.589042 27.992715 
L 813.386445 26.211203 
L 819.183847 25.722849 
L 824.98125 24.468774 
L 830.778653 24.557859 
L 836.576055 25.014837 
L 842.373458 25.194201 
L 848.17086 24.70049 
L 853.968263 24.525593 
L 859.765666 23.20282 
L 865.563068 22.159316 
L 871.360471 21.723954 
L 877.157873 21.467219 
L 882.955276 21.003088 
L 888.752679 20.406617 
L 894.550081 20.522663 
L 911.942289 20.624366 
L 917.739692 21.05158 
L 923.537094 21.349029 
L 929.334497 21.331737 
L 935.131899 21.770382 
L 940.929302 21.917913 
L 946.726705 21.914027 
L 952.524107 21.158989 
L 958.32151 20.734328 
L 964.118912 19.884008 
L 969.916315 21.455553 
L 975.713718 21.575483 
L 981.51112 22.275394 
L 987.308523 25.427571 
L 993.105925 25.892738 
L 998.903328 23.632123 
L 1004.700731 22.703771 
L 1010.498133 22.263422 
L 1016.295536 19.503912 
L 1022.092938 19.320981 
L 1027.890341 19.420839 
L 1033.687744 19.830936 
L 1039.485146 19.385131 
L 1045.282549 18.669199 
L 1051.079951 18.269955 
L 1056.877354 18.170097 
L 1062.674756 17.76 
L 1091.661769 228.96 
L 1103.256575 228.96 
L 1109.053977 186.72 
L 1109.053977 186.72 
" clip-path="url(#p109e87bf4e)" style="fill: none; stroke: #937252; stroke-width: 2; stroke-linecap: square"/>
   </g>
   <g id="line2d_17">
    <path d="M 349.594237 228.651679 
L 355.39164 228.96 
L 361.189042 228.96 
L 366.986445 228.96 
L 372.783847 228.96 
L 378.58125 228.96 
L 384.378653 228.96 
L 390.176055 228.96 
L 395.973458 228.96 
L 401.77086 228.96 
L 407.568263 228.96 
L 413.365666 228.96 
L 419.163068 228.96 
L 424.960471 228.96 
L 430.757873 228.96 
L 436.555276 228.96 
L 442.352679 228.96 
L 448.150081 228.96 
L 453.947484 228.96 
L 459.744886 228.96 
L 465.542289 228.96 
L 471.339692 228.96 
L 477.137094 228.96 
L 482.934497 228.96 
L 488.731899 228.96 
L 494.529302 228.96 
L 500.326705 228.294803 
L 506.124107 228.085694 
L 511.92151 227.557694 
L 517.718912 227.225096 
L 523.516315 227.225096 
L 529.313718 227.890293 
L 535.11112 227.711879 
L 540.908523 228.015794 
L 546.705925 228.089251 
L 552.503328 227.381318 
L 558.300731 227.381318 
L 564.098133 227.106253 
L 569.895536 225.617905 
L 575.692938 223.641503 
L 581.490341 219.972234 
L 587.287744 217.844274 
L 593.085146 212.516463 
L 598.882549 206.571351 
L 604.679951 200.24237 
L 610.477354 195.5452 
L 616.274756 188.004893 
L 622.072159 179.764704 
L 627.869562 173.688478 
L 633.666964 163.053002 
L 639.464367 157.535375 
L 645.261769 148.559779 
L 651.059172 139.534637 
L 656.856575 127.576815 
L 662.653977 118.980712 
L 668.45138 101.536757 
L 674.248782 86.672927 
L 680.046185 77.059306 
L 685.843588 69.832461 
L 691.64099 64.316921 
L 697.438393 59.563198 
L 703.235795 57.553437 
L 709.033198 56.9922 
L 714.830601 55.655027 
L 720.628003 51.393413 
L 726.425406 50.772642 
L 732.222808 47.435314 
L 738.020211 41.282997 
L 743.817614 35.954976 
L 749.615016 34.05447 
L 755.412419 30.967832 
L 761.209821 29.805771 
L 767.007224 28.142558 
L 772.804627 27.600901 
L 778.602029 27.380494 
L 784.399432 26.817817 
L 790.196834 25.260438 
L 795.994237 27.18558 
L 801.79164 25.570751 
L 807.589042 24.233937 
L 813.386445 23.545682 
L 819.183847 23.29565 
L 824.98125 21.583483 
L 830.778653 22.149595 
L 836.576055 21.503779 
L 842.373458 21.331799 
L 848.17086 21.104622 
L 853.968263 20.122446 
L 859.765666 19.389051 
L 865.563068 19.516423 
L 871.360471 19.899358 
L 877.157873 19.710786 
L 882.955276 19.89521 
L 888.752679 19.928326 
L 894.550081 19.684265 
L 900.347484 19.291159 
L 906.144886 19.648117 
L 911.942289 19.743371 
L 917.739692 19.867869 
L 923.537094 19.688699 
L 929.334497 19.512541 
L 935.131899 19.555016 
L 940.929302 19.452944 
L 946.726705 19.35204 
L 952.524107 19.084698 
L 958.32151 18.951027 
L 964.118912 18.551594 
L 969.916315 20.199794 
L 975.713718 19.810485 
L 981.51112 19.810485 
L 987.308523 19.810485 
L 993.105925 19.810485 
L 998.903328 17.76 
L 1004.700731 17.76 
L 1010.498133 17.76 
L 1016.295536 17.76 
L 1022.092938 17.76 
L 1027.890341 17.76 
L 1033.687744 17.76 
L 1039.485146 19.4496 
L 1045.282549 19.4496 
L 1051.079951 19.4496 
" clip-path="url(#p109e87bf4e)" style="fill: none; stroke: #d18cad; stroke-width: 2; stroke-linecap: square"/>
   </g>
   <g id="line2d_18">
    <path d="M 94.508523 186.72 
L 100.305925 228.96 
L 239.443588 228.96 
L 245.24099 226.736842 
L 268.430601 226.736842 
L 274.228003 223.68 
L 297.417614 223.68 
L 303.215016 228.96 
L 309.012419 228.96 
L 314.809821 224.736 
L 320.607224 224.736 
L 326.404627 221.718857 
L 337.999432 221.718857 
L 343.796834 225.942857 
L 349.594237 225.942857 
L 355.39164 228.96 
L 361.189042 228.96 
L 366.986445 225.942857 
L 378.58125 225.942857 
L 384.378653 223.931429 
L 390.176055 223.931429 
L 395.973458 226.948571 
L 401.77086 223.931429 
L 407.568263 218.299429 
L 413.365666 203.88419 
L 419.163068 192.36419 
L 424.960471 185.865729 
L 430.757873 182.848586 
L 436.555276 171.584586 
L 442.352679 169.908396 
L 448.150081 149.748396 
L 453.947484 120.950419 
L 459.744886 101.953593 
L 465.542289 86.666736 
L 471.339692 66.369593 
L 477.137094 73.288214 
L 482.934497 83.580515 
L 488.731899 80.077158 
L 494.529302 77.962579 
L 500.326705 93.749245 
L 506.124107 92.036259 
L 511.92151 86.928713 
L 517.718912 79.997521 
L 523.516315 85.58922 
L 529.313718 72.808347 
L 535.11112 69.237989 
L 540.908523 62.863728 
L 546.705925 63.403028 
L 552.503328 62.909301 
L 558.300731 67.835311 
L 564.098133 71.102893 
L 569.895536 68.439569 
L 575.692938 65.615204 
L 581.490341 60.156206 
L 587.287744 55.228847 
L 593.085146 49.809067 
L 598.882549 54.370509 
L 604.679951 63.591403 
L 610.477354 61.563913 
L 616.274756 57.874323 
L 622.072159 49.151246 
L 627.869562 49.786667 
L 633.666964 38.537081 
L 639.464367 35.278684 
L 645.261769 34.380929 
L 651.059172 38.473592 
L 656.856575 33.88443 
L 662.653977 38.102109 
L 668.45138 47.113123 
L 674.248782 45.736024 
L 680.046185 43.795142 
L 685.843588 54.935329 
L 691.64099 49.848301 
L 697.438393 39.592381 
L 703.235795 39.611104 
L 709.033198 37.260739 
L 714.830601 24.433547 
L 720.628003 23.576923 
L 726.425406 33.821996 
L 732.222808 34.298528 
L 738.020211 34.558795 
L 743.817614 34.607854 
L 749.615016 35.534369 
L 755.412419 25.232432 
L 761.209821 24.639398 
L 767.007224 28.131562 
L 772.804627 27.220462 
L 778.602029 27.725492 
L 784.399432 28.529057 
L 790.196834 31.706835 
L 795.994237 28.397433 
L 801.79164 29.442331 
L 807.589042 27.943124 
L 813.386445 26.990478 
L 819.183847 23.565161 
L 824.98125 23.746171 
L 830.778653 23.11633 
L 836.576055 23.479626 
L 842.373458 23.496867 
L 848.17086 23.914966 
L 853.968263 22.76028 
L 859.765666 21.195836 
L 865.563068 21.002028 
L 871.360471 22.486653 
L 877.157873 21.533872 
L 882.955276 20.943102 
L 888.752679 21.412436 
L 894.550081 20.576 
L 900.347484 18.229333 
L 906.144886 20.289821 
L 911.942289 20.289821 
L 917.739692 21.302593 
L 923.537094 21.302593 
L 929.334497 23.10004 
L 935.131899 21.039552 
L 940.929302 21.039552 
L 946.726705 20.563161 
L 952.524107 21.843161 
L 958.32151 20.045714 
L 969.916315 20.045714 
L 975.713718 19.04 
L 981.51112 20.244706 
L 1004.700731 20.244706 
L 1010.498133 17.76 
L 1027.890341 17.76 
L 1039.485146 102.24 
L 1056.877354 102.24 
L 1068.472159 17.76 
L 1080.066964 17.76 
L 1080.066964 17.76 
" clip-path="url(#p109e87bf4e)" style="fill: none; stroke: #a4a86f; stroke-width: 2; stroke-linecap: square"/>
   </g>
   <g id="line2d_19">
    <path d="M 529.313718 225.375335 
L 535.11112 225.103411 
L 540.908523 224.352878 
L 546.705925 224.121726 
L 552.503328 222.504883 
L 558.300731 221.075019 
L 564.098133 220.804315 
L 569.895536 220.505743 
L 575.692938 218.605885 
L 581.490341 216.983081 
L 587.287744 213.707193 
L 593.085146 208.02366 
L 598.882549 193.972344 
L 604.679951 183.154783 
L 610.477354 167.147138 
L 616.274756 153.466005 
L 622.072159 142.407483 
L 627.869562 140.195182 
L 633.666964 130.8397 
L 639.464367 130.929816 
L 645.261769 129.889408 
L 651.059172 123.794998 
L 656.856575 113.130147 
L 662.653977 106.285146 
L 668.45138 94.52694 
L 674.248782 81.746538 
L 680.046185 70.202286 
L 685.843588 67.704881 
L 691.64099 62.64169 
L 697.438393 57.694893 
L 703.235795 53.672036 
L 709.033198 55.676133 
L 714.830601 48.926673 
L 720.628003 47.029163 
L 726.425406 44.112347 
L 732.222808 40.027745 
L 738.020211 34.551691 
L 743.817614 33.101025 
L 749.615016 31.568054 
L 755.412419 32.171379 
L 761.209821 33.712707 
L 767.007224 33.645412 
L 772.804627 34.030201 
L 778.602029 33.204354 
L 784.399432 31.231114 
L 790.196834 31.953904 
L 795.994237 30.549597 
L 801.79164 29.131185 
L 807.589042 29.257997 
L 813.386445 28.514993 
L 819.183847 26.407932 
L 824.98125 27.094192 
L 830.778653 27.536249 
L 836.576055 27.190838 
L 842.373458 27.194433 
L 848.17086 27.308796 
L 853.968263 26.279818 
L 859.765666 27.601198 
L 865.563068 25.684657 
L 871.360471 25.621655 
L 877.157873 25.153176 
L 882.955276 24.308332 
L 888.752679 21.835227 
L 894.550081 21.504194 
L 900.347484 22.262388 
L 906.144886 21.262806 
L 911.942289 21.390908 
L 917.739692 22.1102 
L 923.537094 22.108781 
L 929.334497 21.286257 
L 935.131899 21.349243 
L 940.929302 21.070091 
L 946.726705 19.997149 
L 952.524107 20.459929 
L 958.32151 19.235581 
L 964.118912 19.176359 
L 969.916315 19.065154 
L 975.713718 19.115657 
L 981.51112 18.480469 
L 987.308523 18.480469 
L 993.105925 19.076616 
L 998.903328 19.354712 
L 1004.700731 19.732339 
L 1010.498133 19.732339 
L 1016.295536 20.090305 
L 1022.092938 19.26207 
L 1027.890341 18.753154 
L 1033.687744 18.117966 
L 1039.485146 18.117966 
L 1045.282549 18.452459 
L 1051.079951 18.452459 
L 1056.877354 18.452459 
L 1062.674756 18.452459 
L 1068.472159 18.452459 
L 1074.269562 17.76 
L 1080.066964 17.76 
L 1085.864367 17.76 
" clip-path="url(#p109e87bf4e)" style="fill: none; stroke: #d3d3d3; stroke-width: 2; stroke-linecap: square"/>
   </g>
   <g id="patch_3">
    <path d="M 43.78125 228.96 
L 43.78125 7.2 
" style="fill: none; stroke: #000000; stroke-width: 0.8; stroke-linejoin: miter; stroke-linecap: square"/>
   </g>
   <g id="patch_4">
    <path d="M 43.78125 228.96 
L 1159.78125 228.96 
" style="fill: none; stroke: #000000; stroke-width: 0.8; stroke-linejoin: miter; stroke-linecap: square"/>
   </g>
   <g id="legend_1">
    <g id="line2d_20">
     <path d="M 50.98125 17.67875 
L 58.98125 17.67875 
L 66.98125 17.67875 
" style="fill: none; stroke: #947383; stroke-width: 2; stroke-linecap: square"/>
    </g>
    <g id="text_15">
     <!-- United Kingdom -->
     <g transform="translate(73.38125 20.47875)scale(0.08 -0.08)">
      <defs>
       <path id="DejaVuSans-55" d="M 556 4666 
L 1191 4666 
L 1191 1831 
Q 1191 1081 1462 751 
Q 1734 422 2344 422 
Q 2950 422 3222 751 
Q 3494 1081 3494 1831 
L 3494 4666 
L 4128 4666 
L 4128 1753 
Q 4128 841 3676 375 
Q 3225 -91 2344 -91 
Q 1459 -91 1007 375 
Q 556 841 556 1753 
L 556 4666 
z
" transform="scale(0.015625)"/>
       <path id="DejaVuSans-4b" d="M 628 4666 
L 1259 4666 
L 1259 2694 
L 3353 4666 
L 4166 4666 
L 1850 2491 
L 4331 0 
L 3500 0 
L 1259 2247 
L 1259 0 
L 628 0 
L 628 4666 
z
" transform="scale(0.015625)"/>
       <path id="DejaVuSans-6d" d="M 3328 2828 
Q 3544 3216 3844 3400 
Q 4144 3584 4550 3584 
Q 5097 3584 5394 3201 
Q 5691 2819 5691 2113 
L 5691 0 
L 5113 0 
L 5113 2094 
Q 5113 2597 4934 2840 
Q 4756 3084 4391 3084 
Q 3944 3084 3684 2787 
Q 3425 2491 3425 1978 
L 3425 0 
L 2847 0 
L 2847 2094 
Q 2847 2600 2669 2842 
Q 2491 3084 2119 3084 
Q 1678 3084 1418 2786 
Q 1159 2488 1159 1978 
L 1159 0 
L 581 0 
L 581 3500 
L 1159 3500 
L 1159 2956 
Q 1356 3278 1631 3431 
Q 1906 3584 2284 3584 
Q 2666 3584 2933 3390 
Q 3200 3197 3328 2828 
z
" transform="scale(0.015625)"/>
      </defs>
      <use xlink:href="#DejaVuSans-55"/>
      <use xlink:href="#DejaVuSans-6e" x="73.193359"/>
      <use xlink:href="#DejaVuSans-69" x="136.572266"/>
      <use xlink:href="#DejaVuSans-74" x="164.355469"/>
      <use xlink:href="#DejaVuSans-65" x="203.564453"/>
      <use xlink:href="#DejaVuSans-64" x="265.087891"/>
      <use xlink:href="#DejaVuSans-20" x="328.564453"/>
      <use xlink:href="#DejaVuSans-4b" x="360.351562"/>
      <use xlink:href="#DejaVuSans-69" x="425.927734"/>
      <use xlink:href="#DejaVuSans-6e" x="453.710938"/>
      <use xlink:href="#DejaVuSans-67" x="517.089844"/>
      <use xlink:href="#DejaVuSans-64" x="580.566406"/>
      <use xlink:href="#DejaVuSans-6f" x="644.042969"/>
      <use xlink:href="#DejaVuSans-6d" x="705.224609"/>
     </g>
    </g>
    <g id="line2d_21">
     <path d="M 50.98125 29.42125 
L 58.98125 29.42125 
L 66.98125 29.42125 
" style="fill: none; stroke: #96c6ad; stroke-width: 2; stroke-linecap: square"/>
    </g>
    <g id="text_16">
     <!-- North America -->
     <g transform="translate(73.38125 32.22125)scale(0.08 -0.08)">
      <defs>
       <path id="DejaVuSans-4e" d="M 628 4666 
L 1478 4666 
L 3547 763 
L 3547 4666 
L 4159 4666 
L 4159 0 
L 3309 0 
L 1241 3903 
L 1241 0 
L 628 0 
L 628 4666 
z
" transform="scale(0.015625)"/>
       <path id="DejaVuSans-68" d="M 3513 2113 
L 3513 0 
L 2938 0 
L 2938 2094 
Q 2938 2591 2744 2837 
Q 2550 3084 2163 3084 
Q 1697 3084 1428 2787 
Q 1159 2491 1159 1978 
L 1159 0 
L 581 0 
L 581 4863 
L 1159 4863 
L 1159 2956 
Q 1366 3272 1645 3428 
Q 1925 3584 2291 3584 
Q 2894 3584 3203 3211 
Q 3513 2838 3513 2113 
z
" transform="scale(0.015625)"/>
       <path id="DejaVuSans-41" d="M 2188 4044 
L 1331 1722 
L 3047 1722 
L 2188 4044 
z
M 1831 4666 
L 2547 4666 
L 4325 0 
L 3669 0 
L 3244 1197 
L 1141 1197 
L 716 0 
L 50 0 
L 1831 4666 
z
" transform="scale(0.015625)"/>
      </defs>
      <use xlink:href="#DejaVuSans-4e"/>
      <use xlink:href="#DejaVuSans-6f" x="74.804688"/>
      <use xlink:href="#DejaVuSans-72" x="135.986328"/>
      <use xlink:href="#DejaVuSans-74" x="177.099609"/>
      <use xlink:href="#DejaVuSans-68" x="216.308594"/>
      <use xlink:href="#DejaVuSans-20" x="279.6875"/>
      <use xlink:href="#DejaVuSans-41" x="311.474609"/>
      <use xlink:href="#DejaVuSans-6d" x="379.882812"/>
      <use xlink:href="#DejaVuSans-65" x="477.294922"/>
      <use xlink:href="#DejaVuSans-72" x="538.818359"/>
      <use xlink:href="#DejaVuSans-69" x="579.931641"/>
      <use xlink:href="#DejaVuSans-63" x="607.714844"/>
      <use xlink:href="#DejaVuSans-61" x="662.695312"/>
     </g>
    </g>
    <g id="line2d_22">
     <path d="M 50.98125 41.16375 
L 58.98125 41.16375 
L 66.98125 41.16375 
" style="fill: none; stroke: #525886; stroke-width: 2; stroke-linecap: square"/>
    </g>
    <g id="text_17">
     <!-- Europe -->
     <g transform="translate(73.38125 43.96375)scale(0.08 -0.08)">
      <defs>
       <path id="DejaVuSans-45" d="M 628 4666 
L 3578 4666 
L 3578 4134 
L 1259 4134 
L 1259 2753 
L 3481 2753 
L 3481 2222 
L 1259 2222 
L 1259 531 
L 3634 531 
L 3634 0 
L 628 0 
L 628 4666 
z
" transform="scale(0.015625)"/>
       <path id="DejaVuSans-70" d="M 1159 525 
L 1159 -1331 
L 581 -1331 
L 581 3500 
L 1159 3500 
L 1159 2969 
Q 1341 3281 1617 3432 
Q 1894 3584 2278 3584 
Q 2916 3584 3314 3078 
Q 3713 2572 3713 1747 
Q 3713 922 3314 415 
Q 2916 -91 2278 -91 
Q 1894 -91 1617 61 
Q 1341 213 1159 525 
z
M 3116 1747 
Q 3116 2381 2855 2742 
Q 2594 3103 2138 3103 
Q 1681 3103 1420 2742 
Q 1159 2381 1159 1747 
Q 1159 1113 1420 752 
Q 1681 391 2138 391 
Q 2594 391 2855 752 
Q 3116 1113 3116 1747 
z
" transform="scale(0.015625)"/>
      </defs>
      <use xlink:href="#DejaVuSans-45"/>
      <use xlink:href="#DejaVuSans-75" x="63.183594"/>
      <use xlink:href="#DejaVuSans-72" x="126.5625"/>
      <use xlink:href="#DejaVuSans-6f" x="165.425781"/>
      <use xlink:href="#DejaVuSans-70" x="226.607422"/>
      <use xlink:href="#DejaVuSans-65" x="290.083984"/>
     </g>
    </g>
    <g id="line2d_23">
     <path d="M 50.98125 52.90625 
L 58.98125 52.90625 
L 66.98125 52.90625 
" style="fill: none; stroke: #937252; stroke-width: 2; stroke-linecap: square"/>
    </g>
    <g id="text_18">
     <!-- Asia -->
     <g transform="translate(73.38125 55.70625)scale(0.08 -0.08)">
      <defs>
       <path id="DejaVuSans-73" d="M 2834 3397 
L 2834 2853 
Q 2591 2978 2328 3040 
Q 2066 3103 1784 3103 
Q 1356 3103 1142 2972 
Q 928 2841 928 2578 
Q 928 2378 1081 2264 
Q 1234 2150 1697 2047 
L 1894 2003 
Q 2506 1872 2764 1633 
Q 3022 1394 3022 966 
Q 3022 478 2636 193 
Q 2250 -91 1575 -91 
Q 1294 -91 989 -36 
Q 684 19 347 128 
L 347 722 
Q 666 556 975 473 
Q 1284 391 1588 391 
Q 1994 391 2212 530 
Q 2431 669 2431 922 
Q 2431 1156 2273 1281 
Q 2116 1406 1581 1522 
L 1381 1569 
Q 847 1681 609 1914 
Q 372 2147 372 2553 
Q 372 3047 722 3315 
Q 1072 3584 1716 3584 
Q 2034 3584 2315 3537 
Q 2597 3491 2834 3397 
z
" transform="scale(0.015625)"/>
      </defs>
      <use xlink:href="#DejaVuSans-41"/>
      <use xlink:href="#DejaVuSans-73" x="68.408203"/>
      <use xlink:href="#DejaVuSans-69" x="120.507812"/>
      <use xlink:href="#DejaVuSans-61" x="148.291016"/>
     </g>
    </g>
    <g id="line2d_24">
     <path d="M 50.98125 64.64875 
L 58.98125 64.64875 
L 66.98125 64.64875 
" style="fill: none; stroke: #d18cad; stroke-width: 2; stroke-linecap: square"/>
    </g>
    <g id="text_19">
     <!-- South America -->
     <g transform="translate(73.38125 67.44875)scale(0.08 -0.08)">
      <defs>
       <path id="DejaVuSans-53" d="M 3425 4513 
L 3425 3897 
Q 3066 4069 2747 4153 
Q 2428 4238 2131 4238 
Q 1616 4238 1336 4038 
Q 1056 3838 1056 3469 
Q 1056 3159 1242 3001 
Q 1428 2844 1947 2747 
L 2328 2669 
Q 3034 2534 3370 2195 
Q 3706 1856 3706 1288 
Q 3706 609 3251 259 
Q 2797 -91 1919 -91 
Q 1588 -91 1214 -16 
Q 841 59 441 206 
L 441 856 
Q 825 641 1194 531 
Q 1563 422 1919 422 
Q 2459 422 2753 634 
Q 3047 847 3047 1241 
Q 3047 1584 2836 1778 
Q 2625 1972 2144 2069 
L 1759 2144 
Q 1053 2284 737 2584 
Q 422 2884 422 3419 
Q 422 4038 858 4394 
Q 1294 4750 2059 4750 
Q 2388 4750 2728 4690 
Q 3069 4631 3425 4513 
z
" transform="scale(0.015625)"/>
      </defs>
      <use xlink:href="#DejaVuSans-53"/>
      <use xlink:href="#DejaVuSans-6f" x="63.476562"/>
      <use xlink:href="#DejaVuSans-75" x="124.658203"/>
      <use xlink:href="#DejaVuSans-74" x="188.037109"/>
      <use xlink:href="#DejaVuSans-68" x="227.246094"/>
      <use xlink:href="#DejaVuSans-20" x="290.625"/>
      <use xlink:href="#DejaVuSans-41" x="322.412109"/>
      <use xlink:href="#DejaVuSans-6d" x="390.820312"/>
      <use xlink:href="#DejaVuSans-65" x="488.232422"/>
      <use xlink:href="#DejaVuSans-72" x="549.755859"/>
      <use xlink:href="#DejaVuSans-69" x="590.869141"/>
      <use xlink:href="#DejaVuSans-63" x="618.652344"/>
      <use xlink:href="#DejaVuSans-61" x="673.632812"/>
     </g>
    </g>
    <g id="line2d_25">
     <path d="M 50.98125 76.39125 
L 58.98125 76.39125 
L 66.98125 76.39125 
" style="fill: none; stroke: #a4a86f; stroke-width: 2; stroke-linecap: square"/>
    </g>
    <g id="text_20">
     <!-- Africa -->
     <g transform="translate(73.38125 79.19125)scale(0.08 -0.08)">
      <defs>
       <path id="DejaVuSans-66" d="M 2375 4863 
L 2375 4384 
L 1825 4384 
Q 1516 4384 1395 4259 
Q 1275 4134 1275 3809 
L 1275 3500 
L 2222 3500 
L 2222 3053 
L 1275 3053 
L 1275 0 
L 697 0 
L 697 3053 
L 147 3053 
L 147 3500 
L 697 3500 
L 697 3744 
Q 697 4328 969 4595 
Q 1241 4863 1831 4863 
L 2375 4863 
z
" transform="scale(0.015625)"/>
      </defs>
      <use xlink:href="#DejaVuSans-41"/>
      <use xlink:href="#DejaVuSans-66" x="64.783203"/>
      <use xlink:href="#DejaVuSans-72" x="99.988281"/>
      <use xlink:href="#DejaVuSans-69" x="141.101562"/>
      <use xlink:href="#DejaVuSans-63" x="168.884766"/>
      <use xlink:href="#DejaVuSans-61" x="223.865234"/>
     </g>
    </g>
    <g id="line2d_26">
     <path d="M 50.98125 88.13375 
L 58.98125 88.13375 
L 66.98125 88.13375 
" style="fill: none; stroke: #d3d3d3; stroke-width: 2; stroke-linecap: square"/>
    </g>
    <g id="text_21">
     <!-- Oceania -->
     <g transform="translate(73.38125 90.93375)scale(0.08 -0.08)">
      <defs>
       <path id="DejaVuSans-4f" d="M 2522 4238 
Q 1834 4238 1429 3725 
Q 1025 3213 1025 2328 
Q 1025 1447 1429 934 
Q 1834 422 2522 422 
Q 3209 422 3611 934 
Q 4013 1447 4013 2328 
Q 4013 3213 3611 3725 
Q 3209 4238 2522 4238 
z
M 2522 4750 
Q 3503 4750 4090 4092 
Q 4678 3434 4678 2328 
Q 4678 1225 4090 567 
Q 3503 -91 2522 -91 
Q 1538 -91 948 565 
Q 359 1222 359 2328 
Q 359 3434 948 4092 
Q 1538 4750 2522 4750 
z
" transform="scale(0.015625)"/>
      </defs>
      <use xlink:href="#DejaVuSans-4f"/>
      <use xlink:href="#DejaVuSans-63" x="78.710938"/>
      <use xlink:href="#DejaVuSans-65" x="133.691406"/>
      <use xlink:href="#DejaVuSans-61" x="195.214844"/>
      <use xlink:href="#DejaVuSans-6e" x="256.494141"/>
      <use xlink:href="#DejaVuSans-69" x="319.873047"/>
      <use xlink:href="#DejaVuSans-61" x="347.65625"/>
     </g>
    </g>
   </g>
  </g>
 </g>
 <defs>
  <clipPath id="p109e87bf4e">
   <rect x="43.78125" y="7.2" width="1116" height="221.76"/>
  </clipPath>
 </defs>
</svg>
