<?xml version="1.0" encoding="utf-8" standalone="no"?>
<!DOCTYPE svg PUBLIC "-//W3C//DTD SVG 1.1//EN"
  "http://www.w3.org/Graphics/SVG/1.1/DTD/svg11.dtd">
<svg height="298.620937pt" version="1.1" viewBox="0 0 1173.34375 298.620937" width="1173.34375pt" xmlns="http://www.w3.org/2000/svg" xmlns:xlink="http://www.w3.org/1999/xlink">
 <metadata>
  <rdf:RDF xmlns:cc="http://creativecommons.org/ns#" xmlns:dc="http://purl.org/dc/elements/1.1/" xmlns:rdf="http://www.w3.org/1999/02/22-rdf-syntax-ns#">
   <cc:Work>
    <dc:type rdf:resource="http://purl.org/dc/dcmitype/StillImage"/>
    <dc:date>2021-10-15T12:54:31.213676</dc:date>
    <dc:format>image/svg+xml</dc:format>
    <dc:creator>
     <cc:Agent>
      <dc:title>Matplotlib v3.4.2, https://matplotlib.org/</dc:title>
     </cc:Agent>
    </dc:creator>
   </cc:Work>
  </rdf:RDF>
 </metadata>
 <defs>
  <style type="text/css">*{stroke-linecap:butt;stroke-linejoin:round;}</style>
 </defs>
 <g id="figure_1">
  <g id="patch_1">
   <path d="M 0 298.620937 
L 1173.34375 298.620937 
L 1173.34375 0 
L 0 0 
z
" style="fill:#ffffff;"/>
  </g>
  <g id="axes_1">
   <g id="patch_2">
    <path d="M 50.14375 228.96 
L 1166.14375 228.96 
L 1166.14375 7.2 
L 50.14375 7.2 
z
" style="fill:#ffffff;"/>
   </g>
   <g id="matplotlib.axis_1">
    <g id="xtick_1">
     <g id="line2d_1">
      <defs>
       <path d="M 0 0 
L 0 3.5 
" id="m70eda31e6c" style="stroke:#000000;stroke-width:0.8;"/>
      </defs>
      <g>
       <use style="stroke:#000000;stroke-width:0.8;" x="171.041314" xlink:href="#m70eda31e6c" y="228.96"/>
      </g>
     </g>
     <g id="text_1">
      <!-- 2020-11 -->
      <g transform="translate(173.800689 277.742812)rotate(-90)scale(0.1 -0.1)">
       <defs>
        <path d="M 1228 531 
L 3431 531 
L 3431 0 
L 469 0 
L 469 531 
Q 828 903 1448 1529 
Q 2069 2156 2228 2338 
Q 2531 2678 2651 2914 
Q 2772 3150 2772 3378 
Q 2772 3750 2511 3984 
Q 2250 4219 1831 4219 
Q 1534 4219 1204 4116 
Q 875 4013 500 3803 
L 500 4441 
Q 881 4594 1212 4672 
Q 1544 4750 1819 4750 
Q 2544 4750 2975 4387 
Q 3406 4025 3406 3419 
Q 3406 3131 3298 2873 
Q 3191 2616 2906 2266 
Q 2828 2175 2409 1742 
Q 1991 1309 1228 531 
z
" id="DejaVuSans-32" transform="scale(0.015625)"/>
        <path d="M 2034 4250 
Q 1547 4250 1301 3770 
Q 1056 3291 1056 2328 
Q 1056 1369 1301 889 
Q 1547 409 2034 409 
Q 2525 409 2770 889 
Q 3016 1369 3016 2328 
Q 3016 3291 2770 3770 
Q 2525 4250 2034 4250 
z
M 2034 4750 
Q 2819 4750 3233 4129 
Q 3647 3509 3647 2328 
Q 3647 1150 3233 529 
Q 2819 -91 2034 -91 
Q 1250 -91 836 529 
Q 422 1150 422 2328 
Q 422 3509 836 4129 
Q 1250 4750 2034 4750 
z
" id="DejaVuSans-30" transform="scale(0.015625)"/>
        <path d="M 313 2009 
L 1997 2009 
L 1997 1497 
L 313 1497 
L 313 2009 
z
" id="DejaVuSans-2d" transform="scale(0.015625)"/>
        <path d="M 794 531 
L 1825 531 
L 1825 4091 
L 703 3866 
L 703 4441 
L 1819 4666 
L 2450 4666 
L 2450 531 
L 3481 531 
L 3481 0 
L 794 0 
L 794 531 
z
" id="DejaVuSans-31" transform="scale(0.015625)"/>
       </defs>
       <use xlink:href="#DejaVuSans-32"/>
       <use x="63.623047" xlink:href="#DejaVuSans-30"/>
       <use x="127.246094" xlink:href="#DejaVuSans-32"/>
       <use x="190.869141" xlink:href="#DejaVuSans-30"/>
       <use x="254.492188" xlink:href="#DejaVuSans-2d"/>
       <use x="290.576172" xlink:href="#DejaVuSans-31"/>
       <use x="354.199219" xlink:href="#DejaVuSans-31"/>
      </g>
     </g>
    </g>
    <g id="xtick_2">
     <g id="line2d_2">
      <g>
       <use style="stroke:#000000;stroke-width:0.8;" x="349.390803" xlink:href="#m70eda31e6c" y="228.96"/>
      </g>
     </g>
     <g id="text_2">
      <!-- 2021-01 -->
      <g transform="translate(352.150178 277.742812)rotate(-90)scale(0.1 -0.1)">
       <use xlink:href="#DejaVuSans-32"/>
       <use x="63.623047" xlink:href="#DejaVuSans-30"/>
       <use x="127.246094" xlink:href="#DejaVuSans-32"/>
       <use x="190.869141" xlink:href="#DejaVuSans-31"/>
       <use x="254.492188" xlink:href="#DejaVuSans-2d"/>
       <use x="290.576172" xlink:href="#DejaVuSans-30"/>
       <use x="354.199219" xlink:href="#DejaVuSans-31"/>
      </g>
     </g>
    </g>
    <g id="xtick_3">
     <g id="line2d_3">
      <g>
       <use style="stroke:#000000;stroke-width:0.8;" x="521.892768" xlink:href="#m70eda31e6c" y="228.96"/>
      </g>
     </g>
     <g id="text_3">
      <!-- 2021-03 -->
      <g transform="translate(524.652143 277.742812)rotate(-90)scale(0.1 -0.1)">
       <defs>
        <path d="M 2597 2516 
Q 3050 2419 3304 2112 
Q 3559 1806 3559 1356 
Q 3559 666 3084 287 
Q 2609 -91 1734 -91 
Q 1441 -91 1130 -33 
Q 819 25 488 141 
L 488 750 
Q 750 597 1062 519 
Q 1375 441 1716 441 
Q 2309 441 2620 675 
Q 2931 909 2931 1356 
Q 2931 1769 2642 2001 
Q 2353 2234 1838 2234 
L 1294 2234 
L 1294 2753 
L 1863 2753 
Q 2328 2753 2575 2939 
Q 2822 3125 2822 3475 
Q 2822 3834 2567 4026 
Q 2313 4219 1838 4219 
Q 1578 4219 1281 4162 
Q 984 4106 628 3988 
L 628 4550 
Q 988 4650 1302 4700 
Q 1616 4750 1894 4750 
Q 2613 4750 3031 4423 
Q 3450 4097 3450 3541 
Q 3450 3153 3228 2886 
Q 3006 2619 2597 2516 
z
" id="DejaVuSans-33" transform="scale(0.015625)"/>
       </defs>
       <use xlink:href="#DejaVuSans-32"/>
       <use x="63.623047" xlink:href="#DejaVuSans-30"/>
       <use x="127.246094" xlink:href="#DejaVuSans-32"/>
       <use x="190.869141" xlink:href="#DejaVuSans-31"/>
       <use x="254.492188" xlink:href="#DejaVuSans-2d"/>
       <use x="290.576172" xlink:href="#DejaVuSans-30"/>
       <use x="354.199219" xlink:href="#DejaVuSans-33"/>
      </g>
     </g>
    </g>
    <g id="xtick_4">
     <g id="line2d_4">
      <g>
       <use style="stroke:#000000;stroke-width:0.8;" x="700.242257" xlink:href="#m70eda31e6c" y="228.96"/>
      </g>
     </g>
     <g id="text_4">
      <!-- 2021-05 -->
      <g transform="translate(703.001632 277.742812)rotate(-90)scale(0.1 -0.1)">
       <defs>
        <path d="M 691 4666 
L 3169 4666 
L 3169 4134 
L 1269 4134 
L 1269 2991 
Q 1406 3038 1543 3061 
Q 1681 3084 1819 3084 
Q 2600 3084 3056 2656 
Q 3513 2228 3513 1497 
Q 3513 744 3044 326 
Q 2575 -91 1722 -91 
Q 1428 -91 1123 -41 
Q 819 9 494 109 
L 494 744 
Q 775 591 1075 516 
Q 1375 441 1709 441 
Q 2250 441 2565 725 
Q 2881 1009 2881 1497 
Q 2881 1984 2565 2268 
Q 2250 2553 1709 2553 
Q 1456 2553 1204 2497 
Q 953 2441 691 2322 
L 691 4666 
z
" id="DejaVuSans-35" transform="scale(0.015625)"/>
       </defs>
       <use xlink:href="#DejaVuSans-32"/>
       <use x="63.623047" xlink:href="#DejaVuSans-30"/>
       <use x="127.246094" xlink:href="#DejaVuSans-32"/>
       <use x="190.869141" xlink:href="#DejaVuSans-31"/>
       <use x="254.492188" xlink:href="#DejaVuSans-2d"/>
       <use x="290.576172" xlink:href="#DejaVuSans-30"/>
       <use x="354.199219" xlink:href="#DejaVuSans-35"/>
      </g>
     </g>
    </g>
    <g id="xtick_5">
     <g id="line2d_5">
      <g>
       <use style="stroke:#000000;stroke-width:0.8;" x="878.591746" xlink:href="#m70eda31e6c" y="228.96"/>
      </g>
     </g>
     <g id="text_5">
      <!-- 2021-07 -->
      <g transform="translate(881.351121 277.742812)rotate(-90)scale(0.1 -0.1)">
       <defs>
        <path d="M 525 4666 
L 3525 4666 
L 3525 4397 
L 1831 0 
L 1172 0 
L 2766 4134 
L 525 4134 
L 525 4666 
z
" id="DejaVuSans-37" transform="scale(0.015625)"/>
       </defs>
       <use xlink:href="#DejaVuSans-32"/>
       <use x="63.623047" xlink:href="#DejaVuSans-30"/>
       <use x="127.246094" xlink:href="#DejaVuSans-32"/>
       <use x="190.869141" xlink:href="#DejaVuSans-31"/>
       <use x="254.492188" xlink:href="#DejaVuSans-2d"/>
       <use x="290.576172" xlink:href="#DejaVuSans-30"/>
       <use x="354.199219" xlink:href="#DejaVuSans-37"/>
      </g>
     </g>
    </g>
    <g id="xtick_6">
     <g id="line2d_6">
      <g>
       <use style="stroke:#000000;stroke-width:0.8;" x="1059.864997" xlink:href="#m70eda31e6c" y="228.96"/>
      </g>
     </g>
     <g id="text_6">
      <!-- 2021-09 -->
      <g transform="translate(1062.624372 277.742812)rotate(-90)scale(0.1 -0.1)">
       <defs>
        <path d="M 703 97 
L 703 672 
Q 941 559 1184 500 
Q 1428 441 1663 441 
Q 2288 441 2617 861 
Q 2947 1281 2994 2138 
Q 2813 1869 2534 1725 
Q 2256 1581 1919 1581 
Q 1219 1581 811 2004 
Q 403 2428 403 3163 
Q 403 3881 828 4315 
Q 1253 4750 1959 4750 
Q 2769 4750 3195 4129 
Q 3622 3509 3622 2328 
Q 3622 1225 3098 567 
Q 2575 -91 1691 -91 
Q 1453 -91 1209 -44 
Q 966 3 703 97 
z
M 1959 2075 
Q 2384 2075 2632 2365 
Q 2881 2656 2881 3163 
Q 2881 3666 2632 3958 
Q 2384 4250 1959 4250 
Q 1534 4250 1286 3958 
Q 1038 3666 1038 3163 
Q 1038 2656 1286 2365 
Q 1534 2075 1959 2075 
z
" id="DejaVuSans-39" transform="scale(0.015625)"/>
       </defs>
       <use xlink:href="#DejaVuSans-32"/>
       <use x="63.623047" xlink:href="#DejaVuSans-30"/>
       <use x="127.246094" xlink:href="#DejaVuSans-32"/>
       <use x="190.869141" xlink:href="#DejaVuSans-31"/>
       <use x="254.492188" xlink:href="#DejaVuSans-2d"/>
       <use x="290.576172" xlink:href="#DejaVuSans-30"/>
       <use x="354.199219" xlink:href="#DejaVuSans-39"/>
      </g>
     </g>
    </g>
    <g id="text_7">
     <!-- Date -->
     <g transform="translate(596.192969 289.34125)scale(0.1 -0.1)">
      <defs>
       <path d="M 1259 4147 
L 1259 519 
L 2022 519 
Q 2988 519 3436 956 
Q 3884 1394 3884 2338 
Q 3884 3275 3436 3711 
Q 2988 4147 2022 4147 
L 1259 4147 
z
M 628 4666 
L 1925 4666 
Q 3281 4666 3915 4102 
Q 4550 3538 4550 2338 
Q 4550 1131 3912 565 
Q 3275 0 1925 0 
L 628 0 
L 628 4666 
z
" id="DejaVuSans-44" transform="scale(0.015625)"/>
       <path d="M 2194 1759 
Q 1497 1759 1228 1600 
Q 959 1441 959 1056 
Q 959 750 1161 570 
Q 1363 391 1709 391 
Q 2188 391 2477 730 
Q 2766 1069 2766 1631 
L 2766 1759 
L 2194 1759 
z
M 3341 1997 
L 3341 0 
L 2766 0 
L 2766 531 
Q 2569 213 2275 61 
Q 1981 -91 1556 -91 
Q 1019 -91 701 211 
Q 384 513 384 1019 
Q 384 1609 779 1909 
Q 1175 2209 1959 2209 
L 2766 2209 
L 2766 2266 
Q 2766 2663 2505 2880 
Q 2244 3097 1772 3097 
Q 1472 3097 1187 3025 
Q 903 2953 641 2809 
L 641 3341 
Q 956 3463 1253 3523 
Q 1550 3584 1831 3584 
Q 2591 3584 2966 3190 
Q 3341 2797 3341 1997 
z
" id="DejaVuSans-61" transform="scale(0.015625)"/>
       <path d="M 1172 4494 
L 1172 3500 
L 2356 3500 
L 2356 3053 
L 1172 3053 
L 1172 1153 
Q 1172 725 1289 603 
Q 1406 481 1766 481 
L 2356 481 
L 2356 0 
L 1766 0 
Q 1100 0 847 248 
Q 594 497 594 1153 
L 594 3053 
L 172 3053 
L 172 3500 
L 594 3500 
L 594 4494 
L 1172 4494 
z
" id="DejaVuSans-74" transform="scale(0.015625)"/>
       <path d="M 3597 1894 
L 3597 1613 
L 953 1613 
Q 991 1019 1311 708 
Q 1631 397 2203 397 
Q 2534 397 2845 478 
Q 3156 559 3463 722 
L 3463 178 
Q 3153 47 2828 -22 
Q 2503 -91 2169 -91 
Q 1331 -91 842 396 
Q 353 884 353 1716 
Q 353 2575 817 3079 
Q 1281 3584 2069 3584 
Q 2775 3584 3186 3129 
Q 3597 2675 3597 1894 
z
M 3022 2063 
Q 3016 2534 2758 2815 
Q 2500 3097 2075 3097 
Q 1594 3097 1305 2825 
Q 1016 2553 972 2059 
L 3022 2063 
z
" id="DejaVuSans-65" transform="scale(0.015625)"/>
      </defs>
      <use xlink:href="#DejaVuSans-44"/>
      <use x="77.001953" xlink:href="#DejaVuSans-61"/>
      <use x="138.28125" xlink:href="#DejaVuSans-74"/>
      <use x="177.490234" xlink:href="#DejaVuSans-65"/>
     </g>
    </g>
   </g>
   <g id="matplotlib.axis_2">
    <g id="ytick_1">
     <g id="line2d_7">
      <defs>
       <path d="M 0 0 
L -3.5 0 
" id="m530d93a054" style="stroke:#000000;stroke-width:0.8;"/>
      </defs>
      <g>
       <use style="stroke:#000000;stroke-width:0.8;" x="50.14375" xlink:href="#m530d93a054" y="228.96"/>
      </g>
     </g>
     <g id="text_8">
      <!-- 0.00 -->
      <g transform="translate(20.878125 232.759219)scale(0.1 -0.1)">
       <defs>
        <path d="M 684 794 
L 1344 794 
L 1344 0 
L 684 0 
L 684 794 
z
" id="DejaVuSans-2e" transform="scale(0.015625)"/>
       </defs>
       <use xlink:href="#DejaVuSans-30"/>
       <use x="63.623047" xlink:href="#DejaVuSans-2e"/>
       <use x="95.410156" xlink:href="#DejaVuSans-30"/>
       <use x="159.033203" xlink:href="#DejaVuSans-30"/>
      </g>
     </g>
    </g>
    <g id="ytick_2">
     <g id="line2d_8">
      <g>
       <use style="stroke:#000000;stroke-width:0.8;" x="50.14375" xlink:href="#m530d93a054" y="199.80053"/>
      </g>
     </g>
     <g id="text_9">
      <!-- 0.05 -->
      <g transform="translate(20.878125 203.599749)scale(0.1 -0.1)">
       <use xlink:href="#DejaVuSans-30"/>
       <use x="63.623047" xlink:href="#DejaVuSans-2e"/>
       <use x="95.410156" xlink:href="#DejaVuSans-30"/>
       <use x="159.033203" xlink:href="#DejaVuSans-35"/>
      </g>
     </g>
    </g>
    <g id="ytick_3">
     <g id="line2d_9">
      <g>
       <use style="stroke:#000000;stroke-width:0.8;" x="50.14375" xlink:href="#m530d93a054" y="170.64106"/>
      </g>
     </g>
     <g id="text_10">
      <!-- 0.10 -->
      <g transform="translate(20.878125 174.440278)scale(0.1 -0.1)">
       <use xlink:href="#DejaVuSans-30"/>
       <use x="63.623047" xlink:href="#DejaVuSans-2e"/>
       <use x="95.410156" xlink:href="#DejaVuSans-31"/>
       <use x="159.033203" xlink:href="#DejaVuSans-30"/>
      </g>
     </g>
    </g>
    <g id="ytick_4">
     <g id="line2d_10">
      <g>
       <use style="stroke:#000000;stroke-width:0.8;" x="50.14375" xlink:href="#m530d93a054" y="141.481589"/>
      </g>
     </g>
     <g id="text_11">
      <!-- 0.15 -->
      <g transform="translate(20.878125 145.280808)scale(0.1 -0.1)">
       <use xlink:href="#DejaVuSans-30"/>
       <use x="63.623047" xlink:href="#DejaVuSans-2e"/>
       <use x="95.410156" xlink:href="#DejaVuSans-31"/>
       <use x="159.033203" xlink:href="#DejaVuSans-35"/>
      </g>
     </g>
    </g>
    <g id="ytick_5">
     <g id="line2d_11">
      <g>
       <use style="stroke:#000000;stroke-width:0.8;" x="50.14375" xlink:href="#m530d93a054" y="112.322119"/>
      </g>
     </g>
     <g id="text_12">
      <!-- 0.20 -->
      <g transform="translate(20.878125 116.121338)scale(0.1 -0.1)">
       <use xlink:href="#DejaVuSans-30"/>
       <use x="63.623047" xlink:href="#DejaVuSans-2e"/>
       <use x="95.410156" xlink:href="#DejaVuSans-32"/>
       <use x="159.033203" xlink:href="#DejaVuSans-30"/>
      </g>
     </g>
    </g>
    <g id="ytick_6">
     <g id="line2d_12">
      <g>
       <use style="stroke:#000000;stroke-width:0.8;" x="50.14375" xlink:href="#m530d93a054" y="83.162649"/>
      </g>
     </g>
     <g id="text_13">
      <!-- 0.25 -->
      <g transform="translate(20.878125 86.961868)scale(0.1 -0.1)">
       <use xlink:href="#DejaVuSans-30"/>
       <use x="63.623047" xlink:href="#DejaVuSans-2e"/>
       <use x="95.410156" xlink:href="#DejaVuSans-32"/>
       <use x="159.033203" xlink:href="#DejaVuSans-35"/>
      </g>
     </g>
    </g>
    <g id="ytick_7">
     <g id="line2d_13">
      <g>
       <use style="stroke:#000000;stroke-width:0.8;" x="50.14375" xlink:href="#m530d93a054" y="54.003179"/>
      </g>
     </g>
     <g id="text_14">
      <!-- 0.30 -->
      <g transform="translate(20.878125 57.802398)scale(0.1 -0.1)">
       <use xlink:href="#DejaVuSans-30"/>
       <use x="63.623047" xlink:href="#DejaVuSans-2e"/>
       <use x="95.410156" xlink:href="#DejaVuSans-33"/>
       <use x="159.033203" xlink:href="#DejaVuSans-30"/>
      </g>
     </g>
    </g>
    <g id="ytick_8">
     <g id="line2d_14">
      <g>
       <use style="stroke:#000000;stroke-width:0.8;" x="50.14375" xlink:href="#m530d93a054" y="24.843709"/>
      </g>
     </g>
     <g id="text_15">
      <!-- 0.35 -->
      <g transform="translate(20.878125 28.642927)scale(0.1 -0.1)">
       <use xlink:href="#DejaVuSans-30"/>
       <use x="63.623047" xlink:href="#DejaVuSans-2e"/>
       <use x="95.410156" xlink:href="#DejaVuSans-33"/>
       <use x="159.033203" xlink:href="#DejaVuSans-35"/>
      </g>
     </g>
    </g>
    <g id="text_16">
     <!-- Frequency (7 day rolling average) -->
     <g transform="translate(14.798438 202.529219)rotate(-90)scale(0.1 -0.1)">
      <defs>
       <path d="M 628 4666 
L 3309 4666 
L 3309 4134 
L 1259 4134 
L 1259 2759 
L 3109 2759 
L 3109 2228 
L 1259 2228 
L 1259 0 
L 628 0 
L 628 4666 
z
" id="DejaVuSans-46" transform="scale(0.015625)"/>
       <path d="M 2631 2963 
Q 2534 3019 2420 3045 
Q 2306 3072 2169 3072 
Q 1681 3072 1420 2755 
Q 1159 2438 1159 1844 
L 1159 0 
L 581 0 
L 581 3500 
L 1159 3500 
L 1159 2956 
Q 1341 3275 1631 3429 
Q 1922 3584 2338 3584 
Q 2397 3584 2469 3576 
Q 2541 3569 2628 3553 
L 2631 2963 
z
" id="DejaVuSans-72" transform="scale(0.015625)"/>
       <path d="M 947 1747 
Q 947 1113 1208 752 
Q 1469 391 1925 391 
Q 2381 391 2643 752 
Q 2906 1113 2906 1747 
Q 2906 2381 2643 2742 
Q 2381 3103 1925 3103 
Q 1469 3103 1208 2742 
Q 947 2381 947 1747 
z
M 2906 525 
Q 2725 213 2448 61 
Q 2172 -91 1784 -91 
Q 1150 -91 751 415 
Q 353 922 353 1747 
Q 353 2572 751 3078 
Q 1150 3584 1784 3584 
Q 2172 3584 2448 3432 
Q 2725 3281 2906 2969 
L 2906 3500 
L 3481 3500 
L 3481 -1331 
L 2906 -1331 
L 2906 525 
z
" id="DejaVuSans-71" transform="scale(0.015625)"/>
       <path d="M 544 1381 
L 544 3500 
L 1119 3500 
L 1119 1403 
Q 1119 906 1312 657 
Q 1506 409 1894 409 
Q 2359 409 2629 706 
Q 2900 1003 2900 1516 
L 2900 3500 
L 3475 3500 
L 3475 0 
L 2900 0 
L 2900 538 
Q 2691 219 2414 64 
Q 2138 -91 1772 -91 
Q 1169 -91 856 284 
Q 544 659 544 1381 
z
M 1991 3584 
L 1991 3584 
z
" id="DejaVuSans-75" transform="scale(0.015625)"/>
       <path d="M 3513 2113 
L 3513 0 
L 2938 0 
L 2938 2094 
Q 2938 2591 2744 2837 
Q 2550 3084 2163 3084 
Q 1697 3084 1428 2787 
Q 1159 2491 1159 1978 
L 1159 0 
L 581 0 
L 581 3500 
L 1159 3500 
L 1159 2956 
Q 1366 3272 1645 3428 
Q 1925 3584 2291 3584 
Q 2894 3584 3203 3211 
Q 3513 2838 3513 2113 
z
" id="DejaVuSans-6e" transform="scale(0.015625)"/>
       <path d="M 3122 3366 
L 3122 2828 
Q 2878 2963 2633 3030 
Q 2388 3097 2138 3097 
Q 1578 3097 1268 2742 
Q 959 2388 959 1747 
Q 959 1106 1268 751 
Q 1578 397 2138 397 
Q 2388 397 2633 464 
Q 2878 531 3122 666 
L 3122 134 
Q 2881 22 2623 -34 
Q 2366 -91 2075 -91 
Q 1284 -91 818 406 
Q 353 903 353 1747 
Q 353 2603 823 3093 
Q 1294 3584 2113 3584 
Q 2378 3584 2631 3529 
Q 2884 3475 3122 3366 
z
" id="DejaVuSans-63" transform="scale(0.015625)"/>
       <path d="M 2059 -325 
Q 1816 -950 1584 -1140 
Q 1353 -1331 966 -1331 
L 506 -1331 
L 506 -850 
L 844 -850 
Q 1081 -850 1212 -737 
Q 1344 -625 1503 -206 
L 1606 56 
L 191 3500 
L 800 3500 
L 1894 763 
L 2988 3500 
L 3597 3500 
L 2059 -325 
z
" id="DejaVuSans-79" transform="scale(0.015625)"/>
       <path id="DejaVuSans-20" transform="scale(0.015625)"/>
       <path d="M 1984 4856 
Q 1566 4138 1362 3434 
Q 1159 2731 1159 2009 
Q 1159 1288 1364 580 
Q 1569 -128 1984 -844 
L 1484 -844 
Q 1016 -109 783 600 
Q 550 1309 550 2009 
Q 550 2706 781 3412 
Q 1013 4119 1484 4856 
L 1984 4856 
z
" id="DejaVuSans-28" transform="scale(0.015625)"/>
       <path d="M 2906 2969 
L 2906 4863 
L 3481 4863 
L 3481 0 
L 2906 0 
L 2906 525 
Q 2725 213 2448 61 
Q 2172 -91 1784 -91 
Q 1150 -91 751 415 
Q 353 922 353 1747 
Q 353 2572 751 3078 
Q 1150 3584 1784 3584 
Q 2172 3584 2448 3432 
Q 2725 3281 2906 2969 
z
M 947 1747 
Q 947 1113 1208 752 
Q 1469 391 1925 391 
Q 2381 391 2643 752 
Q 2906 1113 2906 1747 
Q 2906 2381 2643 2742 
Q 2381 3103 1925 3103 
Q 1469 3103 1208 2742 
Q 947 2381 947 1747 
z
" id="DejaVuSans-64" transform="scale(0.015625)"/>
       <path d="M 1959 3097 
Q 1497 3097 1228 2736 
Q 959 2375 959 1747 
Q 959 1119 1226 758 
Q 1494 397 1959 397 
Q 2419 397 2687 759 
Q 2956 1122 2956 1747 
Q 2956 2369 2687 2733 
Q 2419 3097 1959 3097 
z
M 1959 3584 
Q 2709 3584 3137 3096 
Q 3566 2609 3566 1747 
Q 3566 888 3137 398 
Q 2709 -91 1959 -91 
Q 1206 -91 779 398 
Q 353 888 353 1747 
Q 353 2609 779 3096 
Q 1206 3584 1959 3584 
z
" id="DejaVuSans-6f" transform="scale(0.015625)"/>
       <path d="M 603 4863 
L 1178 4863 
L 1178 0 
L 603 0 
L 603 4863 
z
" id="DejaVuSans-6c" transform="scale(0.015625)"/>
       <path d="M 603 3500 
L 1178 3500 
L 1178 0 
L 603 0 
L 603 3500 
z
M 603 4863 
L 1178 4863 
L 1178 4134 
L 603 4134 
L 603 4863 
z
" id="DejaVuSans-69" transform="scale(0.015625)"/>
       <path d="M 2906 1791 
Q 2906 2416 2648 2759 
Q 2391 3103 1925 3103 
Q 1463 3103 1205 2759 
Q 947 2416 947 1791 
Q 947 1169 1205 825 
Q 1463 481 1925 481 
Q 2391 481 2648 825 
Q 2906 1169 2906 1791 
z
M 3481 434 
Q 3481 -459 3084 -895 
Q 2688 -1331 1869 -1331 
Q 1566 -1331 1297 -1286 
Q 1028 -1241 775 -1147 
L 775 -588 
Q 1028 -725 1275 -790 
Q 1522 -856 1778 -856 
Q 2344 -856 2625 -561 
Q 2906 -266 2906 331 
L 2906 616 
Q 2728 306 2450 153 
Q 2172 0 1784 0 
Q 1141 0 747 490 
Q 353 981 353 1791 
Q 353 2603 747 3093 
Q 1141 3584 1784 3584 
Q 2172 3584 2450 3431 
Q 2728 3278 2906 2969 
L 2906 3500 
L 3481 3500 
L 3481 434 
z
" id="DejaVuSans-67" transform="scale(0.015625)"/>
       <path d="M 191 3500 
L 800 3500 
L 1894 563 
L 2988 3500 
L 3597 3500 
L 2284 0 
L 1503 0 
L 191 3500 
z
" id="DejaVuSans-76" transform="scale(0.015625)"/>
       <path d="M 513 4856 
L 1013 4856 
Q 1481 4119 1714 3412 
Q 1947 2706 1947 2009 
Q 1947 1309 1714 600 
Q 1481 -109 1013 -844 
L 513 -844 
Q 928 -128 1133 580 
Q 1338 1288 1338 2009 
Q 1338 2731 1133 3434 
Q 928 4138 513 4856 
z
" id="DejaVuSans-29" transform="scale(0.015625)"/>
      </defs>
      <use xlink:href="#DejaVuSans-46"/>
      <use x="50.269531" xlink:href="#DejaVuSans-72"/>
      <use x="89.132812" xlink:href="#DejaVuSans-65"/>
      <use x="150.65625" xlink:href="#DejaVuSans-71"/>
      <use x="214.132812" xlink:href="#DejaVuSans-75"/>
      <use x="277.511719" xlink:href="#DejaVuSans-65"/>
      <use x="339.035156" xlink:href="#DejaVuSans-6e"/>
      <use x="402.414062" xlink:href="#DejaVuSans-63"/>
      <use x="457.394531" xlink:href="#DejaVuSans-79"/>
      <use x="516.574219" xlink:href="#DejaVuSans-20"/>
      <use x="548.361328" xlink:href="#DejaVuSans-28"/>
      <use x="587.375" xlink:href="#DejaVuSans-37"/>
      <use x="650.998047" xlink:href="#DejaVuSans-20"/>
      <use x="682.785156" xlink:href="#DejaVuSans-64"/>
      <use x="746.261719" xlink:href="#DejaVuSans-61"/>
      <use x="807.541016" xlink:href="#DejaVuSans-79"/>
      <use x="866.720703" xlink:href="#DejaVuSans-20"/>
      <use x="898.507812" xlink:href="#DejaVuSans-72"/>
      <use x="937.371094" xlink:href="#DejaVuSans-6f"/>
      <use x="998.552734" xlink:href="#DejaVuSans-6c"/>
      <use x="1026.335938" xlink:href="#DejaVuSans-6c"/>
      <use x="1054.119141" xlink:href="#DejaVuSans-69"/>
      <use x="1081.902344" xlink:href="#DejaVuSans-6e"/>
      <use x="1145.28125" xlink:href="#DejaVuSans-67"/>
      <use x="1208.757812" xlink:href="#DejaVuSans-20"/>
      <use x="1240.544922" xlink:href="#DejaVuSans-61"/>
      <use x="1301.824219" xlink:href="#DejaVuSans-76"/>
      <use x="1361.003906" xlink:href="#DejaVuSans-65"/>
      <use x="1422.527344" xlink:href="#DejaVuSans-72"/>
      <use x="1463.640625" xlink:href="#DejaVuSans-61"/>
      <use x="1524.919922" xlink:href="#DejaVuSans-67"/>
      <use x="1588.396484" xlink:href="#DejaVuSans-65"/>
      <use x="1649.919922" xlink:href="#DejaVuSans-29"/>
     </g>
    </g>
   </g>
   <g id="line2d_15">
    <path clip-path="url(#p6a16bcb586)" d="M 378.628424 174.926824 
L 381.552186 221.581976 
L 384.475948 221.581976 
L 387.39971 226.247491 
L 390.323472 228.644762 
L 402.018521 228.644762 
L 404.942283 228.136674 
L 407.866045 228.136674 
L 410.789807 227.79761 
L 416.637331 227.79761 
L 419.561093 228.620936 
L 422.484856 228.620936 
L 425.408618 228.96 
L 428.33238 228.96 
L 431.256142 228.592057 
L 437.103666 225.756728 
L 440.027428 225.756728 
L 445.874953 225.53559 
L 448.798715 226.569135 
L 451.722477 227.937322 
L 454.646239 227.937322 
L 457.570001 228.084592 
L 463.417525 228.96 
L 469.265049 227.901793 
L 472.188812 225.658757 
L 475.112574 225.092554 
L 478.036336 225.092554 
L 483.88386 226.150761 
L 486.807622 227.950307 
L 489.731384 228.51651 
L 492.655146 228.086112 
L 495.578909 226.249295 
L 498.502671 225.757152 
L 501.426433 226.200642 
L 507.273957 225.257256 
L 510.197719 226.831375 
L 513.121481 226.23683 
L 516.045243 226.23683 
L 518.969005 224.809657 
L 521.892768 225.067857 
L 524.81653 224.262931 
L 527.740292 224.203864 
L 530.664054 222.590297 
L 533.587816 224.114415 
L 536.511578 224.119274 
L 539.43534 224.475691 
L 542.359102 223.530008 
L 545.282864 224.892201 
L 548.206627 224.812728 
L 551.130389 223.969625 
L 554.054151 223.922211 
L 556.977913 226.013649 
L 559.901675 222.987145 
L 562.825437 222.83765 
L 565.749199 223.228533 
L 568.672961 221.753662 
L 571.596724 220.92202 
L 574.520486 223.165875 
L 577.444248 223.232882 
L 580.36801 223.635912 
L 583.291772 225.725049 
L 586.215534 223.879757 
L 589.139296 222.26668 
L 592.063058 222.413584 
L 594.98682 221.940805 
L 597.910583 221.877986 
L 600.834345 224.209839 
L 603.758107 225.821309 
L 606.681869 225.569461 
L 609.605631 226.163713 
L 612.529393 226.228121 
L 615.453155 225.73609 
L 618.376917 226.465182 
L 621.30068 226.925126 
L 624.224442 227.055501 
L 627.148204 226.686133 
L 630.071966 227.13999 
L 632.995728 226.822797 
L 638.843252 227.290379 
L 641.767014 227.566878 
L 644.690776 227.547936 
L 647.614539 228.058647 
L 650.538301 227.830616 
L 653.462063 227.981116 
L 656.385825 227.965914 
L 659.309587 228.368114 
L 665.157111 228.343779 
L 668.080873 228.343779 
L 671.004636 228.594613 
L 673.928398 228.594613 
L 679.775922 228.839755 
L 682.699684 228.839755 
L 685.623446 228.635246 
L 694.394732 228.404662 
L 700.242257 228.354503 
L 706.089781 227.78102 
L 711.937305 227.447639 
L 714.861067 227.702306 
L 720.708591 228.50904 
L 723.632354 228.404889 
L 726.556116 228.625794 
L 729.479878 228.625794 
L 732.40364 228.388725 
L 735.327402 228.279718 
L 738.251164 228.613924 
L 741.174926 228.613924 
L 744.098688 228.439577 
L 747.022451 228.676646 
L 761.641261 228.606613 
L 764.565023 228.42254 
L 767.488785 228.523263 
L 770.412547 228.175437 
L 773.33631 228.318375 
L 779.183834 228.081745 
L 782.107596 228.081745 
L 785.031358 227.369227 
L 790.878882 227.087391 
L 793.802644 227.138762 
L 796.726407 226.850767 
L 799.650169 227.591117 
L 802.573931 227.543358 
L 814.268979 228.6014 
L 817.192741 228.800441 
L 823.040266 228.800441 
L 825.964028 228.96 
L 828.88779 228.96 
L 831.811552 228.801525 
L 834.735314 227.969882 
L 846.430363 227.875347 
L 849.354125 228.706989 
L 858.125411 228.413806 
L 861.049173 228.539622 
L 866.896697 228.648834 
L 869.820459 228.832805 
L 872.744222 228.716284 
L 875.667984 228.843479 
L 884.43927 228.843479 
L 887.363032 228.725787 
L 890.286794 228.725787 
L 893.210556 228.600505 
L 899.058081 228.511807 
L 901.981843 228.74602 
L 904.905605 228.74602 
L 907.829367 228.871302 
L 954.609561 228.96 
L 957.533323 228.551818 
L 960.457085 228.40535 
L 969.228371 228.324182 
L 972.152134 228.732364 
L 975.075896 228.878832 
L 989.694706 228.777918 
L 989.694706 228.777918 
" style="fill:none;stroke:#947383;stroke-linecap:square;stroke-width:2;"/>
   </g>
   <g id="line2d_16">
    <path clip-path="url(#p6a16bcb586)" d="M 308.458133 226.072924 
L 311.381895 228.96 
L 372.7809 228.902373 
L 381.552186 228.647394 
L 413.713569 228.359176 
L 419.561093 228.538766 
L 422.484856 228.398632 
L 428.33238 228.560037 
L 431.256142 228.301187 
L 437.103666 228.534334 
L 442.95119 228.332151 
L 448.798715 228.210752 
L 457.570001 227.808424 
L 460.493763 227.948277 
L 466.341287 227.954259 
L 469.265049 228.147236 
L 475.112574 227.660242 
L 478.036336 227.675673 
L 483.88386 227.239301 
L 489.731384 227.491767 
L 504.350195 226.382447 
L 510.197719 225.821769 
L 513.121481 225.343138 
L 518.969005 225.086737 
L 521.892768 224.355419 
L 524.81653 224.387488 
L 527.740292 224.953644 
L 530.664054 225.089451 
L 533.587816 224.902499 
L 536.511578 225.450385 
L 542.359102 224.463919 
L 545.282864 224.558992 
L 548.206627 224.354347 
L 551.130389 223.994704 
L 556.977913 224.926564 
L 559.901675 224.74724 
L 568.672961 226.184794 
L 571.596724 226.225141 
L 574.520486 226.531521 
L 577.444248 226.592581 
L 580.36801 226.129748 
L 583.291772 225.210246 
L 586.215534 224.447278 
L 589.139296 224.094495 
L 592.063058 223.107614 
L 594.98682 222.949955 
L 597.910583 223.034301 
L 600.834345 223.512205 
L 603.758107 223.178056 
L 606.681869 223.552887 
L 609.605631 223.740513 
L 612.529393 224.124779 
L 615.453155 223.909568 
L 618.376917 223.915045 
L 621.30068 223.434077 
L 624.224442 223.237012 
L 630.071966 223.171394 
L 632.995728 223.448362 
L 635.91949 224.366997 
L 638.843252 224.618622 
L 641.767014 224.313548 
L 644.690776 224.409465 
L 647.614539 224.778977 
L 650.538301 224.7899 
L 659.309587 225.957069 
L 662.233349 225.517974 
L 665.157111 225.656099 
L 668.080873 225.326222 
L 673.928398 225.500244 
L 676.85216 226.13289 
L 679.775922 226.25127 
L 682.699684 226.827709 
L 685.623446 227.280472 
L 688.547208 227.250959 
L 691.47097 227.085929 
L 694.394732 226.599205 
L 697.318495 226.368544 
L 700.242257 225.875282 
L 703.166019 225.717771 
L 706.089781 225.733534 
L 709.013543 225.961265 
L 711.937305 225.901881 
L 714.861067 226.133227 
L 720.708591 226.270834 
L 723.632354 226.555822 
L 726.556116 226.633803 
L 729.479878 226.561028 
L 732.40364 226.78718 
L 735.327402 226.83626 
L 741.174926 226.516553 
L 744.098688 226.818172 
L 749.946213 226.976184 
L 758.717499 227.432122 
L 764.565023 227.228617 
L 767.488785 227.215323 
L 770.412547 227.637273 
L 773.33631 227.582697 
L 779.183834 227.834154 
L 782.107596 227.705184 
L 793.802644 227.682802 
L 796.726407 228.167783 
L 805.497693 227.984143 
L 808.421455 228.172481 
L 811.345217 227.83596 
L 814.268979 227.918055 
L 817.192741 227.243635 
L 820.116503 226.794831 
L 823.040266 226.741479 
L 828.88779 226.869029 
L 831.811552 227.723443 
L 834.735314 228.365264 
L 837.659076 226.274363 
L 840.582838 225.444787 
L 846.430363 225.625299 
L 849.354125 223.850992 
L 852.277887 226.054152 
L 855.201649 227.116306 
L 861.049173 227.116306 
L 863.972935 228.96 
L 866.896697 228.737621 
L 872.744222 228.644534 
L 878.591746 228.589594 
L 881.515508 228.811973 
L 887.363032 228.90506 
L 896.134319 228.96 
L 904.905605 228.866089 
L 910.753129 228.73645 
L 919.524415 228.830362 
L 925.37194 228.96 
L 928.295702 228.922448 
L 928.295702 228.922448 
" style="fill:none;stroke:#96c6ad;stroke-linecap:square;stroke-width:2;"/>
   </g>
   <g id="line2d_17">
    <path clip-path="url(#p6a16bcb586)" d="M 100.871023 112.322119 
L 103.794785 228.96 
L 285.068036 228.96 
L 287.991798 199.80053 
L 299.686847 199.80053 
L 302.610609 228.96 
L 308.458133 228.96 
L 311.381895 212.297446 
L 314.305657 183.137975 
L 317.229419 183.137975 
L 320.153181 176.276924 
L 323.076944 137.39763 
L 326.000706 154.060184 
L 328.924468 183.219655 
L 331.84823 183.219655 
L 334.771992 179.477263 
L 337.695754 205.396792 
L 340.619516 174.702613 
L 346.467041 174.702613 
L 349.390803 185.306056 
L 352.314565 166.45549 
L 355.238327 163.82456 
L 358.162089 140.496984 
L 361.085851 105.50562 
L 364.009613 95.945138 
L 366.933375 105.634491 
L 369.857137 107.717311 
L 372.7809 131.044887 
L 375.704662 151.456516 
L 378.628424 151.559873 
L 381.552186 165.636858 
L 384.475948 156.055889 
L 387.39971 125.628616 
L 390.323472 133.728469 
L 393.247234 121.978707 
L 396.170997 71.703758 
L 399.094759 101.923573 
L 402.018521 93.471553 
L 404.942283 90.231612 
L 407.866045 72.559205 
L 410.789807 105.884314 
L 413.713569 84.088347 
L 416.637331 122.96764 
L 419.561093 90.568229 
L 422.484856 89.227563 
L 425.408618 63.509273 
L 428.33238 70.248351 
L 431.256142 68.127662 
L 434.179904 104.415003 
L 437.103666 122.418222 
L 440.027428 138.13898 
L 442.95119 117.144161 
L 445.874953 80.385557 
L 448.798715 41.356727 
L 451.722477 39.850508 
L 454.646239 31.102667 
L 457.570001 34.018614 
L 460.493763 17.76 
L 463.417525 34.995962 
L 466.341287 26.90859 
L 469.265049 28.658158 
L 472.188812 40.587032 
L 475.112574 56.845646 
L 478.036336 22.263537 
L 480.960098 32.204266 
L 483.88386 57.91885 
L 486.807622 81.495919 
L 489.731384 108.711424 
L 492.655146 165.695702 
L 495.578909 175.901517 
L 498.502671 192.17657 
L 501.426433 187.450068 
L 504.350195 187.678769 
L 507.273957 182.533549 
L 510.197719 166.426414 
L 513.121481 163.093903 
L 516.045243 176.053667 
L 518.969005 187.488754 
L 521.892768 172.156693 
L 524.81653 178.441692 
L 527.740292 152.042978 
L 530.664054 127.049146 
L 533.587816 107.135362 
L 536.511578 107.479173 
L 539.43534 87.308712 
L 542.359102 86.49192 
L 545.282864 83.037488 
L 548.206627 93.879438 
L 551.130389 110.263354 
L 554.054151 146.536453 
L 556.977913 158.271908 
L 559.901675 181.64896 
L 562.825437 181.442782 
L 565.749199 185.430402 
L 568.672961 187.61813 
L 571.596724 193.046017 
L 574.520486 194.964854 
L 577.444248 192.95533 
L 580.36801 197.939855 
L 583.291772 192.163268 
L 586.215534 198.686892 
L 589.139296 192.691198 
L 592.063058 192.975161 
L 594.98682 183.048533 
L 597.910583 173.877007 
L 600.834345 149.634624 
L 603.758107 149.810548 
L 606.681869 154.832692 
L 609.605631 152.035188 
L 612.529393 146.110724 
L 615.453155 167.494336 
L 618.376917 167.826637 
L 621.30068 108.199259 
L 624.224442 112.592114 
L 627.148204 134.61397 
L 630.071966 123.59817 
L 632.995728 127.054107 
L 635.91949 182.778349 
L 638.843252 191.109626 
L 641.767014 187.854183 
L 644.690776 196.926018 
L 647.614539 198.17831 
L 650.538301 200.921781 
L 653.462063 196.161052 
L 656.385825 189.499914 
L 659.309587 186.113653 
L 662.233349 184.974055 
L 665.157111 184.339291 
L 668.080873 182.031058 
L 671.004636 191.947639 
L 673.928398 204.796973 
L 676.85216 207.43823 
L 679.775922 211.569155 
L 682.699684 218.638117 
L 685.623446 215.216995 
L 688.547208 204.295948 
L 691.47097 204.013395 
L 694.394732 196.808293 
L 697.318495 186.20485 
L 700.242257 187.784321 
L 703.166019 191.575052 
L 706.089781 194.287561 
L 709.013543 203.697623 
L 711.937305 205.188732 
L 714.861067 209.076661 
L 717.784829 214.385696 
L 720.708591 214.385696 
L 723.632354 212.291188 
L 726.556116 219.070765 
L 729.479878 217.594336 
L 732.40364 210.681531 
L 735.327402 208.089578 
L 738.251164 204.017241 
L 741.174926 206.349999 
L 744.098688 207.826427 
L 747.022451 213.85016 
L 749.946213 216.442113 
L 752.869975 224.048931 
L 755.793737 221.019376 
L 758.717499 221.019376 
L 761.641261 225.930445 
L 764.565023 220.37626 
L 767.488785 220.37626 
L 770.412547 221.690552 
L 773.33631 212.578218 
L 776.260072 210.291201 
L 779.183834 215.845385 
L 782.107596 210.155733 
L 785.031358 207.983066 
L 787.95512 217.095401 
L 790.878882 216.818948 
L 793.802644 216.818948 
L 796.726407 222.508601 
L 799.650169 225.306456 
L 802.573931 222.196113 
L 805.497693 224.759583 
L 808.421455 223.811307 
L 811.345217 223.304186 
L 814.268979 224.39426 
L 817.192741 227.504603 
L 820.116503 227.504603 
L 823.040266 228.452879 
L 825.964028 228.96 
L 831.811552 228.96 
L 834.735314 227.664024 
L 837.659076 227.664024 
L 840.582838 226.723395 
L 846.430363 226.723395 
L 849.354125 228.019372 
L 852.277887 228.019372 
L 855.201649 228.96 
L 858.125411 228.96 
L 861.049173 226.819855 
L 872.744222 226.819855 
L 875.667984 228.96 
L 878.591746 228.37092 
L 881.515508 227.608581 
L 890.286794 227.608581 
L 893.210556 228.197661 
L 896.134319 228.385429 
L 907.829367 228.385429 
L 910.753129 228.96 
L 948.762037 228.96 
L 951.685799 227.474167 
L 957.533323 227.474167 
L 960.457085 226.771529 
L 963.380847 226.771529 
L 966.304609 224.971788 
L 969.228371 218.832952 
L 972.152134 218.126056 
L 975.075896 218.828694 
L 977.999658 218.828694 
L 980.92342 222.114268 
L 983.847182 228.253104 
L 986.770944 228.96 
L 1051.093711 228.96 
L 1054.017473 228.108629 
L 1065.712521 228.108629 
L 1068.636283 228.96 
L 1074.483808 228.96 
L 1077.40757 227.757548 
L 1089.102618 227.757548 
L 1092.02638 228.96 
L 1103.721429 228.96 
L 1106.645191 223.658278 
L 1106.645191 223.658278 
" style="fill:none;stroke:#525886;stroke-linecap:square;stroke-width:2;"/>
   </g>
   <g id="line2d_18">
    <path clip-path="url(#p6a16bcb586)" d="M 311.381895 228.822861 
L 320.153181 228.96 
L 334.771992 228.96 
L 337.695754 228.836704 
L 349.390803 228.836704 
L 352.314565 228.96 
L 355.238327 228.96 
L 358.162089 228.737196 
L 369.857137 228.737196 
L 372.7809 228.906789 
L 381.552186 228.855655 
L 387.39971 228.631959 
L 390.323472 228.536472 
L 396.170997 228.530036 
L 404.942283 228.476176 
L 410.789807 228.313096 
L 416.637331 228.513854 
L 419.561093 228.73935 
L 425.408618 228.61622 
L 434.179904 228.244743 
L 437.103666 228.398063 
L 445.874953 228.192276 
L 448.798715 228.441325 
L 451.722477 228.292552 
L 454.646239 228.452546 
L 460.493763 228.39833 
L 463.417525 228.223635 
L 480.960098 228.582353 
L 483.88386 228.689458 
L 486.807622 228.452785 
L 495.578909 228.224347 
L 498.502671 227.996717 
L 501.426433 228.012538 
L 504.350195 227.638233 
L 507.273957 227.517922 
L 513.121481 227.623333 
L 516.045243 227.121006 
L 518.969005 227.302839 
L 521.892768 227.256 
L 524.81653 226.941726 
L 527.740292 226.461456 
L 530.664054 226.911189 
L 533.587816 226.768795 
L 536.511578 226.344807 
L 539.43534 226.402499 
L 542.359102 226.654011 
L 545.282864 226.590787 
L 548.206627 226.833931 
L 551.130389 227.21754 
L 554.054151 227.424847 
L 559.901675 227.632986 
L 562.825437 227.576407 
L 565.749199 227.779546 
L 568.672961 227.556209 
L 571.596724 227.743659 
L 577.444248 226.945004 
L 580.36801 226.959901 
L 583.291772 227.200723 
L 586.215534 227.281531 
L 589.139296 227.752324 
L 592.063058 228.027165 
L 600.834345 227.635718 
L 606.681869 227.549862 
L 609.605631 227.660653 
L 615.453155 227.140133 
L 624.224442 227.6053 
L 627.148204 227.997107 
L 632.995728 228.101458 
L 638.843252 227.913952 
L 641.767014 227.938688 
L 644.690776 228.166337 
L 647.614539 228.090099 
L 650.538301 227.749524 
L 656.385825 227.483248 
L 662.233349 226.883606 
L 665.157111 227.348601 
L 671.004636 226.782075 
L 673.928398 226.735101 
L 676.85216 227.191907 
L 679.775922 226.611723 
L 682.699684 226.682155 
L 688.547208 227.332905 
L 691.47097 226.892346 
L 694.394732 227.233124 
L 697.318495 227.691057 
L 700.242257 227.870362 
L 703.166019 227.269381 
L 706.089781 226.885643 
L 709.013543 226.917743 
L 711.937305 226.836689 
L 714.861067 226.547265 
L 720.708591 227.79884 
L 741.174926 227.59606 
L 752.869975 228.650682 
L 755.793737 228.797212 
L 761.641261 228.589311 
L 767.488785 228.691976 
L 770.412547 228.63036 
L 776.260072 228.838262 
L 779.183834 228.784685 
L 787.95512 228.856061 
L 951.685799 228.933309 
L 951.685799 228.933309 
" style="fill:none;stroke:#937252;stroke-linecap:square;stroke-width:2;"/>
   </g>
   <g id="line2d_19">
    <path clip-path="url(#p6a16bcb586)" d="M 314.305657 226.044053 
L 317.229419 228.96 
L 361.085851 228.96 
L 364.009613 226.555095 
L 369.857137 225.542476 
L 375.704662 225.542476 
L 378.628424 227.896358 
L 381.552186 228.390587 
L 384.475948 228.325788 
L 387.39971 227.445502 
L 390.323472 227.028938 
L 396.170997 227.079961 
L 399.094759 227.431668 
L 402.018521 226.9557 
L 404.942283 226.622984 
L 407.866045 226.622984 
L 413.713569 226.091959 
L 416.637331 227.143676 
L 419.561093 227.450401 
L 425.408618 227.089425 
L 428.33238 227.082216 
L 434.179904 227.462587 
L 437.103666 227.321074 
L 440.027428 226.509259 
L 442.95119 226.793825 
L 445.874953 226.536624 
L 448.798715 226.56956 
L 451.722477 226.36135 
L 454.646239 227.511201 
L 457.570001 227.570831 
L 460.493763 227.186513 
L 463.417525 226.995033 
L 466.341287 227.085993 
L 472.188812 226.858167 
L 475.112574 227.221753 
L 478.036336 226.845157 
L 480.960098 226.230747 
L 483.88386 226.009419 
L 486.807622 225.62463 
L 489.731384 225.666287 
L 492.655146 226.105759 
L 495.578909 226.783566 
L 501.426433 225.519061 
L 504.350195 225.573449 
L 507.273957 225.33297 
L 510.197719 225.27358 
L 513.121481 226.386043 
L 516.045243 227.047204 
L 518.969005 227.169891 
L 521.892768 226.684899 
L 524.81653 226.878008 
L 533.587816 225.45437 
L 536.511578 225.399116 
L 539.43534 224.686985 
L 542.359102 224.352587 
L 545.282864 224.86874 
L 548.206627 225.189429 
L 551.130389 225.906931 
L 556.977913 226.274421 
L 559.901675 225.769054 
L 562.825437 224.189081 
L 565.749199 223.658222 
L 568.672961 223.863922 
L 571.596724 223.772048 
L 574.520486 224.148798 
L 577.444248 225.152355 
L 580.36801 224.882217 
L 583.291772 224.004967 
L 586.215534 223.823785 
L 589.139296 223.362586 
L 592.063058 223.790007 
L 594.98682 224.618088 
L 597.910583 224.958756 
L 600.834345 225.152447 
L 603.758107 224.961392 
L 606.681869 224.604944 
L 609.605631 223.967768 
L 612.529393 224.324942 
L 615.453155 224.021049 
L 624.224442 224.585217 
L 627.148204 224.535495 
L 630.071966 225.007944 
L 632.995728 225.305274 
L 635.91949 225.058724 
L 638.843252 225.073834 
L 650.538301 224.374623 
L 653.462063 224.271604 
L 659.309587 225.075923 
L 662.233349 225.102153 
L 665.157111 225.621248 
L 668.080873 225.477398 
L 673.928398 224.601972 
L 676.85216 224.632087 
L 682.699684 225.170877 
L 685.623446 225.630149 
L 688.547208 225.599084 
L 694.394732 225.118666 
L 697.318495 225.169106 
L 700.242257 224.799559 
L 703.166019 225.174991 
L 706.089781 225.728279 
L 709.013543 225.387874 
L 711.937305 225.849391 
L 714.861067 226.442103 
L 717.784829 225.905221 
L 720.708591 225.59384 
L 723.632354 226.300041 
L 726.556116 226.393772 
L 729.479878 226.067451 
L 732.40364 226.430742 
L 735.327402 226.599481 
L 741.174926 225.836307 
L 744.098688 226.07116 
L 747.022451 226.529107 
L 752.869975 226.403848 
L 755.793737 226.58725 
L 761.641261 226.738224 
L 767.488785 227.678334 
L 770.412547 227.246098 
L 773.33631 227.233716 
L 785.031358 226.435254 
L 787.95512 226.746389 
L 790.878882 226.608591 
L 793.802644 226.846318 
L 796.726407 226.945439 
L 799.650169 227.403456 
L 802.573931 227.248248 
L 805.497693 227.610479 
L 811.345217 227.29706 
L 814.268979 227.356751 
L 817.192741 226.715633 
L 823.040266 226.445953 
L 825.964028 224.547556 
L 828.88779 224.890883 
L 831.811552 225.506394 
L 834.735314 225.560041 
L 837.659076 225.274224 
L 840.582838 227.393913 
L 846.430363 226.954796 
L 855.201649 226.985323 
L 858.125411 227.094543 
L 861.049173 227.480454 
L 863.972935 227.596818 
L 866.896697 228.219526 
L 869.820459 228.391455 
L 872.744222 228.222124 
L 878.591746 228.357964 
L 881.515508 228.184395 
L 884.43927 228.197088 
L 887.363032 228.603649 
L 893.210556 228.520563 
L 899.058081 228.714707 
L 901.981843 228.638968 
L 916.600653 228.870099 
L 931.219464 228.80976 
L 937.066988 228.849524 
L 945.838274 228.892532 
L 960.457085 228.827853 
L 975.075896 228.96 
L 1115.416477 228.929806 
L 1115.416477 228.929806 
" style="fill:none;stroke:#d18cad;stroke-linecap:square;stroke-width:2;"/>
   </g>
   <g id="line2d_20">
    <path clip-path="url(#p6a16bcb586)" d="M 375.704662 219.240177 
L 378.628424 228.96 
L 437.103666 228.96 
L 440.027428 112.322119 
L 451.722477 112.322119 
L 454.646239 228.96 
L 463.417525 228.96 
L 466.341287 190.080706 
L 478.036336 190.080706 
L 480.960098 228.96 
L 527.740292 228.96 
L 530.664054 112.322119 
L 542.359102 112.322119 
L 545.282864 228.96 
L 551.130389 228.96 
L 554.054151 220.628723 
L 565.749199 220.628723 
L 568.672961 228.96 
L 586.215534 228.96 
L 589.139296 216.000235 
L 600.834345 216.000235 
L 603.758107 223.128106 
L 615.453155 223.128106 
L 618.376917 228.96 
L 630.071966 228.96 
L 632.995728 170.64106 
L 635.91949 170.64106 
L 638.843252 160.037616 
L 644.690776 160.037616 
L 647.614539 218.356556 
L 650.538301 218.356556 
L 653.462063 228.96 
L 714.861067 228.96 
L 717.784829 216.000235 
L 729.479878 216.000235 
L 732.40364 151.201413 
L 735.327402 151.201413 
L 738.251164 131.761766 
L 744.098688 131.761766 
L 747.022451 209.520353 
L 749.946213 209.520353 
L 752.869975 228.96 
L 773.33631 228.96 
L 776.260072 209.520353 
L 785.031358 209.520353 
L 787.95512 190.080706 
L 787.95512 190.080706 
" style="fill:none;stroke:#a4a86f;stroke-linecap:square;stroke-width:2;"/>
   </g>
   <g id="line2d_21">
    <path clip-path="url(#p6a16bcb586)" d="M 492.655146 228.155601 
L 495.578909 228.96 
L 498.502671 228.96 
L 501.426433 228.96 
L 504.350195 228.96 
L 507.273957 228.96 
L 510.197719 228.96 
L 513.121481 228.96 
L 516.045243 228.96 
L 518.969005 228.96 
L 521.892768 228.96 
L 524.81653 228.96 
L 527.740292 228.96 
L 530.664054 228.96 
L 533.587816 228.96 
L 536.511578 228.96 
L 539.43534 228.96 
L 542.359102 228.96 
L 545.282864 228.96 
L 548.206627 228.96 
L 551.130389 228.96 
L 554.054151 228.96 
L 556.977913 228.96 
L 559.901675 228.96 
L 562.825437 228.96 
L 565.749199 228.96 
L 568.672961 228.96 
L 571.596724 228.96 
L 574.520486 228.96 
L 577.444248 228.96 
L 580.36801 228.96 
L 583.291772 228.96 
L 586.215534 228.96 
L 589.139296 228.96 
L 592.063058 228.96 
L 594.98682 228.96 
L 597.910583 228.96 
L 600.834345 228.96 
L 603.758107 228.96 
L 606.681869 228.96 
L 609.605631 228.96 
L 612.529393 228.96 
L 615.453155 228.96 
L 618.376917 228.96 
L 621.30068 228.96 
L 624.224442 228.96 
L 627.148204 228.96 
L 630.071966 228.96 
L 632.995728 228.96 
L 635.91949 228.96 
L 638.843252 228.96 
L 641.767014 228.96 
L 644.690776 228.96 
L 647.614539 228.96 
L 650.538301 228.96 
L 653.462063 228.96 
L 656.385825 228.96 
L 659.309587 228.96 
L 662.233349 228.96 
L 665.157111 228.96 
L 668.080873 228.96 
L 671.004636 228.96 
L 673.928398 228.96 
L 676.85216 228.96 
L 679.775922 228.96 
L 682.699684 228.96 
L 685.623446 228.96 
L 688.547208 228.96 
L 691.47097 228.96 
L 694.394732 228.96 
L 697.318495 228.96 
L 700.242257 228.96 
L 703.166019 228.96 
L 706.089781 228.96 
L 709.013543 228.455074 
" style="fill:none;stroke:#d3d3d3;stroke-linecap:square;stroke-width:2;"/>
   </g>
   <g id="patch_3">
    <path d="M 50.14375 228.96 
L 50.14375 7.2 
" style="fill:none;stroke:#000000;stroke-linecap:square;stroke-linejoin:miter;stroke-width:0.8;"/>
   </g>
   <g id="patch_4">
    <path d="M 50.14375 228.96 
L 1166.14375 228.96 
" style="fill:none;stroke:#000000;stroke-linecap:square;stroke-linejoin:miter;stroke-width:0.8;"/>
   </g>
   <g id="legend_1">
    <g id="line2d_22">
     <path d="M 1072.3325 17.67875 
L 1088.3325 17.67875 
" style="fill:none;stroke:#947383;stroke-linecap:square;stroke-width:2;"/>
    </g>
    <g id="line2d_23"/>
    <g id="text_17">
     <!-- Asia -->
     <g transform="translate(1094.7325 20.47875)scale(0.08 -0.08)">
      <defs>
       <path d="M 2188 4044 
L 1331 1722 
L 3047 1722 
L 2188 4044 
z
M 1831 4666 
L 2547 4666 
L 4325 0 
L 3669 0 
L 3244 1197 
L 1141 1197 
L 716 0 
L 50 0 
L 1831 4666 
z
" id="DejaVuSans-41" transform="scale(0.015625)"/>
       <path d="M 2834 3397 
L 2834 2853 
Q 2591 2978 2328 3040 
Q 2066 3103 1784 3103 
Q 1356 3103 1142 2972 
Q 928 2841 928 2578 
Q 928 2378 1081 2264 
Q 1234 2150 1697 2047 
L 1894 2003 
Q 2506 1872 2764 1633 
Q 3022 1394 3022 966 
Q 3022 478 2636 193 
Q 2250 -91 1575 -91 
Q 1294 -91 989 -36 
Q 684 19 347 128 
L 347 722 
Q 666 556 975 473 
Q 1284 391 1588 391 
Q 1994 391 2212 530 
Q 2431 669 2431 922 
Q 2431 1156 2273 1281 
Q 2116 1406 1581 1522 
L 1381 1569 
Q 847 1681 609 1914 
Q 372 2147 372 2553 
Q 372 3047 722 3315 
Q 1072 3584 1716 3584 
Q 2034 3584 2315 3537 
Q 2597 3491 2834 3397 
z
" id="DejaVuSans-73" transform="scale(0.015625)"/>
      </defs>
      <use xlink:href="#DejaVuSans-41"/>
      <use x="68.408203" xlink:href="#DejaVuSans-73"/>
      <use x="120.507812" xlink:href="#DejaVuSans-69"/>
      <use x="148.291016" xlink:href="#DejaVuSans-61"/>
     </g>
    </g>
    <g id="line2d_24">
     <path d="M 1072.3325 29.42125 
L 1088.3325 29.42125 
" style="fill:none;stroke:#96c6ad;stroke-linecap:square;stroke-width:2;"/>
    </g>
    <g id="line2d_25"/>
    <g id="text_18">
     <!-- North America -->
     <g transform="translate(1094.7325 32.22125)scale(0.08 -0.08)">
      <defs>
       <path d="M 628 4666 
L 1478 4666 
L 3547 763 
L 3547 4666 
L 4159 4666 
L 4159 0 
L 3309 0 
L 1241 3903 
L 1241 0 
L 628 0 
L 628 4666 
z
" id="DejaVuSans-4e" transform="scale(0.015625)"/>
       <path d="M 3513 2113 
L 3513 0 
L 2938 0 
L 2938 2094 
Q 2938 2591 2744 2837 
Q 2550 3084 2163 3084 
Q 1697 3084 1428 2787 
Q 1159 2491 1159 1978 
L 1159 0 
L 581 0 
L 581 4863 
L 1159 4863 
L 1159 2956 
Q 1366 3272 1645 3428 
Q 1925 3584 2291 3584 
Q 2894 3584 3203 3211 
Q 3513 2838 3513 2113 
z
" id="DejaVuSans-68" transform="scale(0.015625)"/>
       <path d="M 3328 2828 
Q 3544 3216 3844 3400 
Q 4144 3584 4550 3584 
Q 5097 3584 5394 3201 
Q 5691 2819 5691 2113 
L 5691 0 
L 5113 0 
L 5113 2094 
Q 5113 2597 4934 2840 
Q 4756 3084 4391 3084 
Q 3944 3084 3684 2787 
Q 3425 2491 3425 1978 
L 3425 0 
L 2847 0 
L 2847 2094 
Q 2847 2600 2669 2842 
Q 2491 3084 2119 3084 
Q 1678 3084 1418 2786 
Q 1159 2488 1159 1978 
L 1159 0 
L 581 0 
L 581 3500 
L 1159 3500 
L 1159 2956 
Q 1356 3278 1631 3431 
Q 1906 3584 2284 3584 
Q 2666 3584 2933 3390 
Q 3200 3197 3328 2828 
z
" id="DejaVuSans-6d" transform="scale(0.015625)"/>
      </defs>
      <use xlink:href="#DejaVuSans-4e"/>
      <use x="74.804688" xlink:href="#DejaVuSans-6f"/>
      <use x="135.986328" xlink:href="#DejaVuSans-72"/>
      <use x="177.099609" xlink:href="#DejaVuSans-74"/>
      <use x="216.308594" xlink:href="#DejaVuSans-68"/>
      <use x="279.6875" xlink:href="#DejaVuSans-20"/>
      <use x="311.474609" xlink:href="#DejaVuSans-41"/>
      <use x="379.882812" xlink:href="#DejaVuSans-6d"/>
      <use x="477.294922" xlink:href="#DejaVuSans-65"/>
      <use x="538.818359" xlink:href="#DejaVuSans-72"/>
      <use x="579.931641" xlink:href="#DejaVuSans-69"/>
      <use x="607.714844" xlink:href="#DejaVuSans-63"/>
      <use x="662.695312" xlink:href="#DejaVuSans-61"/>
     </g>
    </g>
    <g id="line2d_26">
     <path d="M 1072.3325 41.16375 
L 1088.3325 41.16375 
" style="fill:none;stroke:#525886;stroke-linecap:square;stroke-width:2;"/>
    </g>
    <g id="line2d_27"/>
    <g id="text_19">
     <!-- Africa -->
     <g transform="translate(1094.7325 43.96375)scale(0.08 -0.08)">
      <defs>
       <path d="M 2375 4863 
L 2375 4384 
L 1825 4384 
Q 1516 4384 1395 4259 
Q 1275 4134 1275 3809 
L 1275 3500 
L 2222 3500 
L 2222 3053 
L 1275 3053 
L 1275 0 
L 697 0 
L 697 3053 
L 147 3053 
L 147 3500 
L 697 3500 
L 697 3744 
Q 697 4328 969 4595 
Q 1241 4863 1831 4863 
L 2375 4863 
z
" id="DejaVuSans-66" transform="scale(0.015625)"/>
      </defs>
      <use xlink:href="#DejaVuSans-41"/>
      <use x="64.783203" xlink:href="#DejaVuSans-66"/>
      <use x="99.988281" xlink:href="#DejaVuSans-72"/>
      <use x="141.101562" xlink:href="#DejaVuSans-69"/>
      <use x="168.884766" xlink:href="#DejaVuSans-63"/>
      <use x="223.865234" xlink:href="#DejaVuSans-61"/>
     </g>
    </g>
    <g id="line2d_28">
     <path d="M 1072.3325 52.90625 
L 1088.3325 52.90625 
" style="fill:none;stroke:#937252;stroke-linecap:square;stroke-width:2;"/>
    </g>
    <g id="line2d_29"/>
    <g id="text_20">
     <!-- United Kingdom -->
     <g transform="translate(1094.7325 55.70625)scale(0.08 -0.08)">
      <defs>
       <path d="M 556 4666 
L 1191 4666 
L 1191 1831 
Q 1191 1081 1462 751 
Q 1734 422 2344 422 
Q 2950 422 3222 751 
Q 3494 1081 3494 1831 
L 3494 4666 
L 4128 4666 
L 4128 1753 
Q 4128 841 3676 375 
Q 3225 -91 2344 -91 
Q 1459 -91 1007 375 
Q 556 841 556 1753 
L 556 4666 
z
" id="DejaVuSans-55" transform="scale(0.015625)"/>
       <path d="M 628 4666 
L 1259 4666 
L 1259 2694 
L 3353 4666 
L 4166 4666 
L 1850 2491 
L 4331 0 
L 3500 0 
L 1259 2247 
L 1259 0 
L 628 0 
L 628 4666 
z
" id="DejaVuSans-4b" transform="scale(0.015625)"/>
      </defs>
      <use xlink:href="#DejaVuSans-55"/>
      <use x="73.193359" xlink:href="#DejaVuSans-6e"/>
      <use x="136.572266" xlink:href="#DejaVuSans-69"/>
      <use x="164.355469" xlink:href="#DejaVuSans-74"/>
      <use x="203.564453" xlink:href="#DejaVuSans-65"/>
      <use x="265.087891" xlink:href="#DejaVuSans-64"/>
      <use x="328.564453" xlink:href="#DejaVuSans-20"/>
      <use x="360.351562" xlink:href="#DejaVuSans-4b"/>
      <use x="425.927734" xlink:href="#DejaVuSans-69"/>
      <use x="453.710938" xlink:href="#DejaVuSans-6e"/>
      <use x="517.089844" xlink:href="#DejaVuSans-67"/>
      <use x="580.566406" xlink:href="#DejaVuSans-64"/>
      <use x="644.042969" xlink:href="#DejaVuSans-6f"/>
      <use x="705.224609" xlink:href="#DejaVuSans-6d"/>
     </g>
    </g>
    <g id="line2d_30">
     <path d="M 1072.3325 64.64875 
L 1088.3325 64.64875 
" style="fill:none;stroke:#d18cad;stroke-linecap:square;stroke-width:2;"/>
    </g>
    <g id="line2d_31"/>
    <g id="text_21">
     <!-- Europe -->
     <g transform="translate(1094.7325 67.44875)scale(0.08 -0.08)">
      <defs>
       <path d="M 628 4666 
L 3578 4666 
L 3578 4134 
L 1259 4134 
L 1259 2753 
L 3481 2753 
L 3481 2222 
L 1259 2222 
L 1259 531 
L 3634 531 
L 3634 0 
L 628 0 
L 628 4666 
z
" id="DejaVuSans-45" transform="scale(0.015625)"/>
       <path d="M 1159 525 
L 1159 -1331 
L 581 -1331 
L 581 3500 
L 1159 3500 
L 1159 2969 
Q 1341 3281 1617 3432 
Q 1894 3584 2278 3584 
Q 2916 3584 3314 3078 
Q 3713 2572 3713 1747 
Q 3713 922 3314 415 
Q 2916 -91 2278 -91 
Q 1894 -91 1617 61 
Q 1341 213 1159 525 
z
M 3116 1747 
Q 3116 2381 2855 2742 
Q 2594 3103 2138 3103 
Q 1681 3103 1420 2742 
Q 1159 2381 1159 1747 
Q 1159 1113 1420 752 
Q 1681 391 2138 391 
Q 2594 391 2855 752 
Q 3116 1113 3116 1747 
z
" id="DejaVuSans-70" transform="scale(0.015625)"/>
      </defs>
      <use xlink:href="#DejaVuSans-45"/>
      <use x="63.183594" xlink:href="#DejaVuSans-75"/>
      <use x="126.5625" xlink:href="#DejaVuSans-72"/>
      <use x="165.425781" xlink:href="#DejaVuSans-6f"/>
      <use x="226.607422" xlink:href="#DejaVuSans-70"/>
      <use x="290.083984" xlink:href="#DejaVuSans-65"/>
     </g>
    </g>
    <g id="line2d_32">
     <path d="M 1072.3325 76.39125 
L 1088.3325 76.39125 
" style="fill:none;stroke:#a4a86f;stroke-linecap:square;stroke-width:2;"/>
    </g>
    <g id="line2d_33"/>
    <g id="text_22">
     <!-- Oceania -->
     <g transform="translate(1094.7325 79.19125)scale(0.08 -0.08)">
      <defs>
       <path d="M 2522 4238 
Q 1834 4238 1429 3725 
Q 1025 3213 1025 2328 
Q 1025 1447 1429 934 
Q 1834 422 2522 422 
Q 3209 422 3611 934 
Q 4013 1447 4013 2328 
Q 4013 3213 3611 3725 
Q 3209 4238 2522 4238 
z
M 2522 4750 
Q 3503 4750 4090 4092 
Q 4678 3434 4678 2328 
Q 4678 1225 4090 567 
Q 3503 -91 2522 -91 
Q 1538 -91 948 565 
Q 359 1222 359 2328 
Q 359 3434 948 4092 
Q 1538 4750 2522 4750 
z
" id="DejaVuSans-4f" transform="scale(0.015625)"/>
      </defs>
      <use xlink:href="#DejaVuSans-4f"/>
      <use x="78.710938" xlink:href="#DejaVuSans-63"/>
      <use x="133.691406" xlink:href="#DejaVuSans-65"/>
      <use x="195.214844" xlink:href="#DejaVuSans-61"/>
      <use x="256.494141" xlink:href="#DejaVuSans-6e"/>
      <use x="319.873047" xlink:href="#DejaVuSans-69"/>
      <use x="347.65625" xlink:href="#DejaVuSans-61"/>
     </g>
    </g>
    <g id="line2d_34">
     <path d="M 1072.3325 88.13375 
L 1088.3325 88.13375 
" style="fill:none;stroke:#d3d3d3;stroke-linecap:square;stroke-width:2;"/>
    </g>
    <g id="line2d_35"/>
    <g id="text_23">
     <!-- South America -->
     <g transform="translate(1094.7325 90.93375)scale(0.08 -0.08)">
      <defs>
       <path d="M 3425 4513 
L 3425 3897 
Q 3066 4069 2747 4153 
Q 2428 4238 2131 4238 
Q 1616 4238 1336 4038 
Q 1056 3838 1056 3469 
Q 1056 3159 1242 3001 
Q 1428 2844 1947 2747 
L 2328 2669 
Q 3034 2534 3370 2195 
Q 3706 1856 3706 1288 
Q 3706 609 3251 259 
Q 2797 -91 1919 -91 
Q 1588 -91 1214 -16 
Q 841 59 441 206 
L 441 856 
Q 825 641 1194 531 
Q 1563 422 1919 422 
Q 2459 422 2753 634 
Q 3047 847 3047 1241 
Q 3047 1584 2836 1778 
Q 2625 1972 2144 2069 
L 1759 2144 
Q 1053 2284 737 2584 
Q 422 2884 422 3419 
Q 422 4038 858 4394 
Q 1294 4750 2059 4750 
Q 2388 4750 2728 4690 
Q 3069 4631 3425 4513 
z
" id="DejaVuSans-53" transform="scale(0.015625)"/>
      </defs>
      <use xlink:href="#DejaVuSans-53"/>
      <use x="63.476562" xlink:href="#DejaVuSans-6f"/>
      <use x="124.658203" xlink:href="#DejaVuSans-75"/>
      <use x="188.037109" xlink:href="#DejaVuSans-74"/>
      <use x="227.246094" xlink:href="#DejaVuSans-68"/>
      <use x="290.625" xlink:href="#DejaVuSans-20"/>
      <use x="322.412109" xlink:href="#DejaVuSans-41"/>
      <use x="390.820312" xlink:href="#DejaVuSans-6d"/>
      <use x="488.232422" xlink:href="#DejaVuSans-65"/>
      <use x="549.755859" xlink:href="#DejaVuSans-72"/>
      <use x="590.869141" xlink:href="#DejaVuSans-69"/>
      <use x="618.652344" xlink:href="#DejaVuSans-63"/>
      <use x="673.632812" xlink:href="#DejaVuSans-61"/>
     </g>
    </g>
   </g>
  </g>
 </g>
 <defs>
  <clipPath id="p6a16bcb586">
   <rect height="221.76" width="1116" x="50.14375" y="7.2"/>
  </clipPath>
 </defs>
</svg>
