<?xml version="1.0" encoding="utf-8" standalone="no"?>
<!DOCTYPE svg PUBLIC "-//W3C//DTD SVG 1.1//EN"
  "http://www.w3.org/Graphics/SVG/1.1/DTD/svg11.dtd">
<svg height="298.620937pt" version="1.1" viewBox="0 0 1166.98125 298.620937" width="1166.98125pt" xmlns="http://www.w3.org/2000/svg" xmlns:xlink="http://www.w3.org/1999/xlink">
 <metadata>
  <rdf:RDF xmlns:cc="http://creativecommons.org/ns#" xmlns:dc="http://purl.org/dc/elements/1.1/" xmlns:rdf="http://www.w3.org/1999/02/22-rdf-syntax-ns#">
   <cc:Work>
    <dc:type rdf:resource="http://purl.org/dc/dcmitype/StillImage"/>
    <dc:date>2021-10-17T13:15:45.895785</dc:date>
    <dc:format>image/svg+xml</dc:format>
    <dc:creator>
     <cc:Agent>
      <dc:title>Matplotlib v3.4.2, https://matplotlib.org/</dc:title>
     </cc:Agent>
    </dc:creator>
   </cc:Work>
  </rdf:RDF>
 </metadata>
 <defs>
  <style type="text/css">*{stroke-linecap:butt;stroke-linejoin:round;}</style>
 </defs>
 <g id="figure_1">
  <g id="patch_1">
   <path d="M 0 298.620937 
L 1166.98125 298.620937 
L 1166.98125 0 
L 0 0 
z
" style="fill:#ffffff;"/>
  </g>
  <g id="axes_1">
   <g id="patch_2">
    <path d="M 43.78125 228.96 
L 1159.78125 228.96 
L 1159.78125 7.2 
L 43.78125 7.2 
z
" style="fill:#ffffff;"/>
   </g>
   <g id="matplotlib.axis_1">
    <g id="xtick_1">
     <g id="line2d_1">
      <defs>
       <path d="M 0 0 
L 0 3.5 
" id="m53edd4ee5d" style="stroke:#000000;stroke-width:0.8;"/>
      </defs>
      <g>
       <use style="stroke:#000000;stroke-width:0.8;" x="100.583645" xlink:href="#m53edd4ee5d" y="228.96"/>
      </g>
     </g>
     <g id="text_1">
      <!-- 2020-11 -->
      <g transform="translate(103.34302 277.742812)rotate(-90)scale(0.1 -0.1)">
       <defs>
        <path d="M 1228 531 
L 3431 531 
L 3431 0 
L 469 0 
L 469 531 
Q 828 903 1448 1529 
Q 2069 2156 2228 2338 
Q 2531 2678 2651 2914 
Q 2772 3150 2772 3378 
Q 2772 3750 2511 3984 
Q 2250 4219 1831 4219 
Q 1534 4219 1204 4116 
Q 875 4013 500 3803 
L 500 4441 
Q 881 4594 1212 4672 
Q 1544 4750 1819 4750 
Q 2544 4750 2975 4387 
Q 3406 4025 3406 3419 
Q 3406 3131 3298 2873 
Q 3191 2616 2906 2266 
Q 2828 2175 2409 1742 
Q 1991 1309 1228 531 
z
" id="DejaVuSans-32" transform="scale(0.015625)"/>
        <path d="M 2034 4250 
Q 1547 4250 1301 3770 
Q 1056 3291 1056 2328 
Q 1056 1369 1301 889 
Q 1547 409 2034 409 
Q 2525 409 2770 889 
Q 3016 1369 3016 2328 
Q 3016 3291 2770 3770 
Q 2525 4250 2034 4250 
z
M 2034 4750 
Q 2819 4750 3233 4129 
Q 3647 3509 3647 2328 
Q 3647 1150 3233 529 
Q 2819 -91 2034 -91 
Q 1250 -91 836 529 
Q 422 1150 422 2328 
Q 422 3509 836 4129 
Q 1250 4750 2034 4750 
z
" id="DejaVuSans-30" transform="scale(0.015625)"/>
        <path d="M 313 2009 
L 1997 2009 
L 1997 1497 
L 313 1497 
L 313 2009 
z
" id="DejaVuSans-2d" transform="scale(0.015625)"/>
        <path d="M 794 531 
L 1825 531 
L 1825 4091 
L 703 3866 
L 703 4441 
L 1819 4666 
L 2450 4666 
L 2450 531 
L 3481 531 
L 3481 0 
L 794 0 
L 794 531 
z
" id="DejaVuSans-31" transform="scale(0.015625)"/>
       </defs>
       <use xlink:href="#DejaVuSans-32"/>
       <use x="63.623047" xlink:href="#DejaVuSans-30"/>
       <use x="127.246094" xlink:href="#DejaVuSans-32"/>
       <use x="190.869141" xlink:href="#DejaVuSans-30"/>
       <use x="254.492188" xlink:href="#DejaVuSans-2d"/>
       <use x="290.576172" xlink:href="#DejaVuSans-31"/>
       <use x="354.199219" xlink:href="#DejaVuSans-31"/>
      </g>
     </g>
    </g>
    <g id="xtick_2">
     <g id="line2d_2">
      <g>
       <use style="stroke:#000000;stroke-width:0.8;" x="285.874881" xlink:href="#m53edd4ee5d" y="228.96"/>
      </g>
     </g>
     <g id="text_2">
      <!-- 2021-01 -->
      <g transform="translate(288.634256 277.742812)rotate(-90)scale(0.1 -0.1)">
       <use xlink:href="#DejaVuSans-32"/>
       <use x="63.623047" xlink:href="#DejaVuSans-30"/>
       <use x="127.246094" xlink:href="#DejaVuSans-32"/>
       <use x="190.869141" xlink:href="#DejaVuSans-31"/>
       <use x="254.492188" xlink:href="#DejaVuSans-2d"/>
       <use x="290.576172" xlink:href="#DejaVuSans-30"/>
       <use x="354.199219" xlink:href="#DejaVuSans-31"/>
      </g>
     </g>
    </g>
    <g id="xtick_3">
     <g id="line2d_3">
      <g>
       <use style="stroke:#000000;stroke-width:0.8;" x="465.090994" xlink:href="#m53edd4ee5d" y="228.96"/>
      </g>
     </g>
     <g id="text_3">
      <!-- 2021-03 -->
      <g transform="translate(467.850369 277.742812)rotate(-90)scale(0.1 -0.1)">
       <defs>
        <path d="M 2597 2516 
Q 3050 2419 3304 2112 
Q 3559 1806 3559 1356 
Q 3559 666 3084 287 
Q 2609 -91 1734 -91 
Q 1441 -91 1130 -33 
Q 819 25 488 141 
L 488 750 
Q 750 597 1062 519 
Q 1375 441 1716 441 
Q 2309 441 2620 675 
Q 2931 909 2931 1356 
Q 2931 1769 2642 2001 
Q 2353 2234 1838 2234 
L 1294 2234 
L 1294 2753 
L 1863 2753 
Q 2328 2753 2575 2939 
Q 2822 3125 2822 3475 
Q 2822 3834 2567 4026 
Q 2313 4219 1838 4219 
Q 1578 4219 1281 4162 
Q 984 4106 628 3988 
L 628 4550 
Q 988 4650 1302 4700 
Q 1616 4750 1894 4750 
Q 2613 4750 3031 4423 
Q 3450 4097 3450 3541 
Q 3450 3153 3228 2886 
Q 3006 2619 2597 2516 
z
" id="DejaVuSans-33" transform="scale(0.015625)"/>
       </defs>
       <use xlink:href="#DejaVuSans-32"/>
       <use x="63.623047" xlink:href="#DejaVuSans-30"/>
       <use x="127.246094" xlink:href="#DejaVuSans-32"/>
       <use x="190.869141" xlink:href="#DejaVuSans-31"/>
       <use x="254.492188" xlink:href="#DejaVuSans-2d"/>
       <use x="290.576172" xlink:href="#DejaVuSans-30"/>
       <use x="354.199219" xlink:href="#DejaVuSans-33"/>
      </g>
     </g>
    </g>
    <g id="xtick_4">
     <g id="line2d_4">
      <g>
       <use style="stroke:#000000;stroke-width:0.8;" x="650.38223" xlink:href="#m53edd4ee5d" y="228.96"/>
      </g>
     </g>
     <g id="text_4">
      <!-- 2021-05 -->
      <g transform="translate(653.141605 277.742812)rotate(-90)scale(0.1 -0.1)">
       <defs>
        <path d="M 691 4666 
L 3169 4666 
L 3169 4134 
L 1269 4134 
L 1269 2991 
Q 1406 3038 1543 3061 
Q 1681 3084 1819 3084 
Q 2600 3084 3056 2656 
Q 3513 2228 3513 1497 
Q 3513 744 3044 326 
Q 2575 -91 1722 -91 
Q 1428 -91 1123 -41 
Q 819 9 494 109 
L 494 744 
Q 775 591 1075 516 
Q 1375 441 1709 441 
Q 2250 441 2565 725 
Q 2881 1009 2881 1497 
Q 2881 1984 2565 2268 
Q 2250 2553 1709 2553 
Q 1456 2553 1204 2497 
Q 953 2441 691 2322 
L 691 4666 
z
" id="DejaVuSans-35" transform="scale(0.015625)"/>
       </defs>
       <use xlink:href="#DejaVuSans-32"/>
       <use x="63.623047" xlink:href="#DejaVuSans-30"/>
       <use x="127.246094" xlink:href="#DejaVuSans-32"/>
       <use x="190.869141" xlink:href="#DejaVuSans-31"/>
       <use x="254.492188" xlink:href="#DejaVuSans-2d"/>
       <use x="290.576172" xlink:href="#DejaVuSans-30"/>
       <use x="354.199219" xlink:href="#DejaVuSans-35"/>
      </g>
     </g>
    </g>
    <g id="xtick_5">
     <g id="line2d_5">
      <g>
       <use style="stroke:#000000;stroke-width:0.8;" x="835.673466" xlink:href="#m53edd4ee5d" y="228.96"/>
      </g>
     </g>
     <g id="text_5">
      <!-- 2021-07 -->
      <g transform="translate(838.432841 277.742812)rotate(-90)scale(0.1 -0.1)">
       <defs>
        <path d="M 525 4666 
L 3525 4666 
L 3525 4397 
L 1831 0 
L 1172 0 
L 2766 4134 
L 525 4134 
L 525 4666 
z
" id="DejaVuSans-37" transform="scale(0.015625)"/>
       </defs>
       <use xlink:href="#DejaVuSans-32"/>
       <use x="63.623047" xlink:href="#DejaVuSans-30"/>
       <use x="127.246094" xlink:href="#DejaVuSans-32"/>
       <use x="190.869141" xlink:href="#DejaVuSans-31"/>
       <use x="254.492188" xlink:href="#DejaVuSans-2d"/>
       <use x="290.576172" xlink:href="#DejaVuSans-30"/>
       <use x="354.199219" xlink:href="#DejaVuSans-37"/>
      </g>
     </g>
    </g>
    <g id="xtick_6">
     <g id="line2d_6">
      <g>
       <use style="stroke:#000000;stroke-width:0.8;" x="1024.002263" xlink:href="#m53edd4ee5d" y="228.96"/>
      </g>
     </g>
     <g id="text_6">
      <!-- 2021-09 -->
      <g transform="translate(1026.761638 277.742812)rotate(-90)scale(0.1 -0.1)">
       <defs>
        <path d="M 703 97 
L 703 672 
Q 941 559 1184 500 
Q 1428 441 1663 441 
Q 2288 441 2617 861 
Q 2947 1281 2994 2138 
Q 2813 1869 2534 1725 
Q 2256 1581 1919 1581 
Q 1219 1581 811 2004 
Q 403 2428 403 3163 
Q 403 3881 828 4315 
Q 1253 4750 1959 4750 
Q 2769 4750 3195 4129 
Q 3622 3509 3622 2328 
Q 3622 1225 3098 567 
Q 2575 -91 1691 -91 
Q 1453 -91 1209 -44 
Q 966 3 703 97 
z
M 1959 2075 
Q 2384 2075 2632 2365 
Q 2881 2656 2881 3163 
Q 2881 3666 2632 3958 
Q 2384 4250 1959 4250 
Q 1534 4250 1286 3958 
Q 1038 3666 1038 3163 
Q 1038 2656 1286 2365 
Q 1534 2075 1959 2075 
z
" id="DejaVuSans-39" transform="scale(0.015625)"/>
       </defs>
       <use xlink:href="#DejaVuSans-32"/>
       <use x="63.623047" xlink:href="#DejaVuSans-30"/>
       <use x="127.246094" xlink:href="#DejaVuSans-32"/>
       <use x="190.869141" xlink:href="#DejaVuSans-31"/>
       <use x="254.492188" xlink:href="#DejaVuSans-2d"/>
       <use x="290.576172" xlink:href="#DejaVuSans-30"/>
       <use x="354.199219" xlink:href="#DejaVuSans-39"/>
      </g>
     </g>
    </g>
    <g id="text_7">
     <!-- Date -->
     <g transform="translate(589.830469 289.34125)scale(0.1 -0.1)">
      <defs>
       <path d="M 1259 4147 
L 1259 519 
L 2022 519 
Q 2988 519 3436 956 
Q 3884 1394 3884 2338 
Q 3884 3275 3436 3711 
Q 2988 4147 2022 4147 
L 1259 4147 
z
M 628 4666 
L 1925 4666 
Q 3281 4666 3915 4102 
Q 4550 3538 4550 2338 
Q 4550 1131 3912 565 
Q 3275 0 1925 0 
L 628 0 
L 628 4666 
z
" id="DejaVuSans-44" transform="scale(0.015625)"/>
       <path d="M 2194 1759 
Q 1497 1759 1228 1600 
Q 959 1441 959 1056 
Q 959 750 1161 570 
Q 1363 391 1709 391 
Q 2188 391 2477 730 
Q 2766 1069 2766 1631 
L 2766 1759 
L 2194 1759 
z
M 3341 1997 
L 3341 0 
L 2766 0 
L 2766 531 
Q 2569 213 2275 61 
Q 1981 -91 1556 -91 
Q 1019 -91 701 211 
Q 384 513 384 1019 
Q 384 1609 779 1909 
Q 1175 2209 1959 2209 
L 2766 2209 
L 2766 2266 
Q 2766 2663 2505 2880 
Q 2244 3097 1772 3097 
Q 1472 3097 1187 3025 
Q 903 2953 641 2809 
L 641 3341 
Q 956 3463 1253 3523 
Q 1550 3584 1831 3584 
Q 2591 3584 2966 3190 
Q 3341 2797 3341 1997 
z
" id="DejaVuSans-61" transform="scale(0.015625)"/>
       <path d="M 1172 4494 
L 1172 3500 
L 2356 3500 
L 2356 3053 
L 1172 3053 
L 1172 1153 
Q 1172 725 1289 603 
Q 1406 481 1766 481 
L 2356 481 
L 2356 0 
L 1766 0 
Q 1100 0 847 248 
Q 594 497 594 1153 
L 594 3053 
L 172 3053 
L 172 3500 
L 594 3500 
L 594 4494 
L 1172 4494 
z
" id="DejaVuSans-74" transform="scale(0.015625)"/>
       <path d="M 3597 1894 
L 3597 1613 
L 953 1613 
Q 991 1019 1311 708 
Q 1631 397 2203 397 
Q 2534 397 2845 478 
Q 3156 559 3463 722 
L 3463 178 
Q 3153 47 2828 -22 
Q 2503 -91 2169 -91 
Q 1331 -91 842 396 
Q 353 884 353 1716 
Q 353 2575 817 3079 
Q 1281 3584 2069 3584 
Q 2775 3584 3186 3129 
Q 3597 2675 3597 1894 
z
M 3022 2063 
Q 3016 2534 2758 2815 
Q 2500 3097 2075 3097 
Q 1594 3097 1305 2825 
Q 1016 2553 972 2059 
L 3022 2063 
z
" id="DejaVuSans-65" transform="scale(0.015625)"/>
      </defs>
      <use xlink:href="#DejaVuSans-44"/>
      <use x="77.001953" xlink:href="#DejaVuSans-61"/>
      <use x="138.28125" xlink:href="#DejaVuSans-74"/>
      <use x="177.490234" xlink:href="#DejaVuSans-65"/>
     </g>
    </g>
   </g>
   <g id="matplotlib.axis_2">
    <g id="ytick_1">
     <g id="line2d_7">
      <defs>
       <path d="M 0 0 
L -3.5 0 
" id="m006f5a1a3f" style="stroke:#000000;stroke-width:0.8;"/>
      </defs>
      <g>
       <use style="stroke:#000000;stroke-width:0.8;" x="43.78125" xlink:href="#m006f5a1a3f" y="228.96"/>
      </g>
     </g>
     <g id="text_8">
      <!-- 0.0 -->
      <g transform="translate(20.878125 232.759219)scale(0.1 -0.1)">
       <defs>
        <path d="M 684 794 
L 1344 794 
L 1344 0 
L 684 0 
L 684 794 
z
" id="DejaVuSans-2e" transform="scale(0.015625)"/>
       </defs>
       <use xlink:href="#DejaVuSans-30"/>
       <use x="63.623047" xlink:href="#DejaVuSans-2e"/>
       <use x="95.410156" xlink:href="#DejaVuSans-30"/>
      </g>
     </g>
    </g>
    <g id="ytick_2">
     <g id="line2d_8">
      <g>
       <use style="stroke:#000000;stroke-width:0.8;" x="43.78125" xlink:href="#m006f5a1a3f" y="197.990035"/>
      </g>
     </g>
     <g id="text_9">
      <!-- 0.1 -->
      <g transform="translate(20.878125 201.789254)scale(0.1 -0.1)">
       <use xlink:href="#DejaVuSans-30"/>
       <use x="63.623047" xlink:href="#DejaVuSans-2e"/>
       <use x="95.410156" xlink:href="#DejaVuSans-31"/>
      </g>
     </g>
    </g>
    <g id="ytick_3">
     <g id="line2d_9">
      <g>
       <use style="stroke:#000000;stroke-width:0.8;" x="43.78125" xlink:href="#m006f5a1a3f" y="167.020071"/>
      </g>
     </g>
     <g id="text_10">
      <!-- 0.2 -->
      <g transform="translate(20.878125 170.819289)scale(0.1 -0.1)">
       <use xlink:href="#DejaVuSans-30"/>
       <use x="63.623047" xlink:href="#DejaVuSans-2e"/>
       <use x="95.410156" xlink:href="#DejaVuSans-32"/>
      </g>
     </g>
    </g>
    <g id="ytick_4">
     <g id="line2d_10">
      <g>
       <use style="stroke:#000000;stroke-width:0.8;" x="43.78125" xlink:href="#m006f5a1a3f" y="136.050106"/>
      </g>
     </g>
     <g id="text_11">
      <!-- 0.3 -->
      <g transform="translate(20.878125 139.849325)scale(0.1 -0.1)">
       <use xlink:href="#DejaVuSans-30"/>
       <use x="63.623047" xlink:href="#DejaVuSans-2e"/>
       <use x="95.410156" xlink:href="#DejaVuSans-33"/>
      </g>
     </g>
    </g>
    <g id="ytick_5">
     <g id="line2d_11">
      <g>
       <use style="stroke:#000000;stroke-width:0.8;" x="43.78125" xlink:href="#m006f5a1a3f" y="105.080141"/>
      </g>
     </g>
     <g id="text_12">
      <!-- 0.4 -->
      <g transform="translate(20.878125 108.87936)scale(0.1 -0.1)">
       <defs>
        <path d="M 2419 4116 
L 825 1625 
L 2419 1625 
L 2419 4116 
z
M 2253 4666 
L 3047 4666 
L 3047 1625 
L 3713 1625 
L 3713 1100 
L 3047 1100 
L 3047 0 
L 2419 0 
L 2419 1100 
L 313 1100 
L 313 1709 
L 2253 4666 
z
" id="DejaVuSans-34" transform="scale(0.015625)"/>
       </defs>
       <use xlink:href="#DejaVuSans-30"/>
       <use x="63.623047" xlink:href="#DejaVuSans-2e"/>
       <use x="95.410156" xlink:href="#DejaVuSans-34"/>
      </g>
     </g>
    </g>
    <g id="ytick_6">
     <g id="line2d_12">
      <g>
       <use style="stroke:#000000;stroke-width:0.8;" x="43.78125" xlink:href="#m006f5a1a3f" y="74.110176"/>
      </g>
     </g>
     <g id="text_13">
      <!-- 0.5 -->
      <g transform="translate(20.878125 77.909395)scale(0.1 -0.1)">
       <use xlink:href="#DejaVuSans-30"/>
       <use x="63.623047" xlink:href="#DejaVuSans-2e"/>
       <use x="95.410156" xlink:href="#DejaVuSans-35"/>
      </g>
     </g>
    </g>
    <g id="ytick_7">
     <g id="line2d_13">
      <g>
       <use style="stroke:#000000;stroke-width:0.8;" x="43.78125" xlink:href="#m006f5a1a3f" y="43.140212"/>
      </g>
     </g>
     <g id="text_14">
      <!-- 0.6 -->
      <g transform="translate(20.878125 46.93943)scale(0.1 -0.1)">
       <defs>
        <path d="M 2113 2584 
Q 1688 2584 1439 2293 
Q 1191 2003 1191 1497 
Q 1191 994 1439 701 
Q 1688 409 2113 409 
Q 2538 409 2786 701 
Q 3034 994 3034 1497 
Q 3034 2003 2786 2293 
Q 2538 2584 2113 2584 
z
M 3366 4563 
L 3366 3988 
Q 3128 4100 2886 4159 
Q 2644 4219 2406 4219 
Q 1781 4219 1451 3797 
Q 1122 3375 1075 2522 
Q 1259 2794 1537 2939 
Q 1816 3084 2150 3084 
Q 2853 3084 3261 2657 
Q 3669 2231 3669 1497 
Q 3669 778 3244 343 
Q 2819 -91 2113 -91 
Q 1303 -91 875 529 
Q 447 1150 447 2328 
Q 447 3434 972 4092 
Q 1497 4750 2381 4750 
Q 2619 4750 2861 4703 
Q 3103 4656 3366 4563 
z
" id="DejaVuSans-36" transform="scale(0.015625)"/>
       </defs>
       <use xlink:href="#DejaVuSans-30"/>
       <use x="63.623047" xlink:href="#DejaVuSans-2e"/>
       <use x="95.410156" xlink:href="#DejaVuSans-36"/>
      </g>
     </g>
    </g>
    <g id="ytick_8">
     <g id="line2d_14">
      <g>
       <use style="stroke:#000000;stroke-width:0.8;" x="43.78125" xlink:href="#m006f5a1a3f" y="12.170247"/>
      </g>
     </g>
     <g id="text_15">
      <!-- 0.7 -->
      <g transform="translate(20.878125 15.969466)scale(0.1 -0.1)">
       <use xlink:href="#DejaVuSans-30"/>
       <use x="63.623047" xlink:href="#DejaVuSans-2e"/>
       <use x="95.410156" xlink:href="#DejaVuSans-37"/>
      </g>
     </g>
    </g>
    <g id="text_16">
     <!-- Frequency (7 day rolling average) -->
     <g transform="translate(14.798437 202.529219)rotate(-90)scale(0.1 -0.1)">
      <defs>
       <path d="M 628 4666 
L 3309 4666 
L 3309 4134 
L 1259 4134 
L 1259 2759 
L 3109 2759 
L 3109 2228 
L 1259 2228 
L 1259 0 
L 628 0 
L 628 4666 
z
" id="DejaVuSans-46" transform="scale(0.015625)"/>
       <path d="M 2631 2963 
Q 2534 3019 2420 3045 
Q 2306 3072 2169 3072 
Q 1681 3072 1420 2755 
Q 1159 2438 1159 1844 
L 1159 0 
L 581 0 
L 581 3500 
L 1159 3500 
L 1159 2956 
Q 1341 3275 1631 3429 
Q 1922 3584 2338 3584 
Q 2397 3584 2469 3576 
Q 2541 3569 2628 3553 
L 2631 2963 
z
" id="DejaVuSans-72" transform="scale(0.015625)"/>
       <path d="M 947 1747 
Q 947 1113 1208 752 
Q 1469 391 1925 391 
Q 2381 391 2643 752 
Q 2906 1113 2906 1747 
Q 2906 2381 2643 2742 
Q 2381 3103 1925 3103 
Q 1469 3103 1208 2742 
Q 947 2381 947 1747 
z
M 2906 525 
Q 2725 213 2448 61 
Q 2172 -91 1784 -91 
Q 1150 -91 751 415 
Q 353 922 353 1747 
Q 353 2572 751 3078 
Q 1150 3584 1784 3584 
Q 2172 3584 2448 3432 
Q 2725 3281 2906 2969 
L 2906 3500 
L 3481 3500 
L 3481 -1331 
L 2906 -1331 
L 2906 525 
z
" id="DejaVuSans-71" transform="scale(0.015625)"/>
       <path d="M 544 1381 
L 544 3500 
L 1119 3500 
L 1119 1403 
Q 1119 906 1312 657 
Q 1506 409 1894 409 
Q 2359 409 2629 706 
Q 2900 1003 2900 1516 
L 2900 3500 
L 3475 3500 
L 3475 0 
L 2900 0 
L 2900 538 
Q 2691 219 2414 64 
Q 2138 -91 1772 -91 
Q 1169 -91 856 284 
Q 544 659 544 1381 
z
M 1991 3584 
L 1991 3584 
z
" id="DejaVuSans-75" transform="scale(0.015625)"/>
       <path d="M 3513 2113 
L 3513 0 
L 2938 0 
L 2938 2094 
Q 2938 2591 2744 2837 
Q 2550 3084 2163 3084 
Q 1697 3084 1428 2787 
Q 1159 2491 1159 1978 
L 1159 0 
L 581 0 
L 581 3500 
L 1159 3500 
L 1159 2956 
Q 1366 3272 1645 3428 
Q 1925 3584 2291 3584 
Q 2894 3584 3203 3211 
Q 3513 2838 3513 2113 
z
" id="DejaVuSans-6e" transform="scale(0.015625)"/>
       <path d="M 3122 3366 
L 3122 2828 
Q 2878 2963 2633 3030 
Q 2388 3097 2138 3097 
Q 1578 3097 1268 2742 
Q 959 2388 959 1747 
Q 959 1106 1268 751 
Q 1578 397 2138 397 
Q 2388 397 2633 464 
Q 2878 531 3122 666 
L 3122 134 
Q 2881 22 2623 -34 
Q 2366 -91 2075 -91 
Q 1284 -91 818 406 
Q 353 903 353 1747 
Q 353 2603 823 3093 
Q 1294 3584 2113 3584 
Q 2378 3584 2631 3529 
Q 2884 3475 3122 3366 
z
" id="DejaVuSans-63" transform="scale(0.015625)"/>
       <path d="M 2059 -325 
Q 1816 -950 1584 -1140 
Q 1353 -1331 966 -1331 
L 506 -1331 
L 506 -850 
L 844 -850 
Q 1081 -850 1212 -737 
Q 1344 -625 1503 -206 
L 1606 56 
L 191 3500 
L 800 3500 
L 1894 763 
L 2988 3500 
L 3597 3500 
L 2059 -325 
z
" id="DejaVuSans-79" transform="scale(0.015625)"/>
       <path id="DejaVuSans-20" transform="scale(0.015625)"/>
       <path d="M 1984 4856 
Q 1566 4138 1362 3434 
Q 1159 2731 1159 2009 
Q 1159 1288 1364 580 
Q 1569 -128 1984 -844 
L 1484 -844 
Q 1016 -109 783 600 
Q 550 1309 550 2009 
Q 550 2706 781 3412 
Q 1013 4119 1484 4856 
L 1984 4856 
z
" id="DejaVuSans-28" transform="scale(0.015625)"/>
       <path d="M 2906 2969 
L 2906 4863 
L 3481 4863 
L 3481 0 
L 2906 0 
L 2906 525 
Q 2725 213 2448 61 
Q 2172 -91 1784 -91 
Q 1150 -91 751 415 
Q 353 922 353 1747 
Q 353 2572 751 3078 
Q 1150 3584 1784 3584 
Q 2172 3584 2448 3432 
Q 2725 3281 2906 2969 
z
M 947 1747 
Q 947 1113 1208 752 
Q 1469 391 1925 391 
Q 2381 391 2643 752 
Q 2906 1113 2906 1747 
Q 2906 2381 2643 2742 
Q 2381 3103 1925 3103 
Q 1469 3103 1208 2742 
Q 947 2381 947 1747 
z
" id="DejaVuSans-64" transform="scale(0.015625)"/>
       <path d="M 1959 3097 
Q 1497 3097 1228 2736 
Q 959 2375 959 1747 
Q 959 1119 1226 758 
Q 1494 397 1959 397 
Q 2419 397 2687 759 
Q 2956 1122 2956 1747 
Q 2956 2369 2687 2733 
Q 2419 3097 1959 3097 
z
M 1959 3584 
Q 2709 3584 3137 3096 
Q 3566 2609 3566 1747 
Q 3566 888 3137 398 
Q 2709 -91 1959 -91 
Q 1206 -91 779 398 
Q 353 888 353 1747 
Q 353 2609 779 3096 
Q 1206 3584 1959 3584 
z
" id="DejaVuSans-6f" transform="scale(0.015625)"/>
       <path d="M 603 4863 
L 1178 4863 
L 1178 0 
L 603 0 
L 603 4863 
z
" id="DejaVuSans-6c" transform="scale(0.015625)"/>
       <path d="M 603 3500 
L 1178 3500 
L 1178 0 
L 603 0 
L 603 3500 
z
M 603 4863 
L 1178 4863 
L 1178 4134 
L 603 4134 
L 603 4863 
z
" id="DejaVuSans-69" transform="scale(0.015625)"/>
       <path d="M 2906 1791 
Q 2906 2416 2648 2759 
Q 2391 3103 1925 3103 
Q 1463 3103 1205 2759 
Q 947 2416 947 1791 
Q 947 1169 1205 825 
Q 1463 481 1925 481 
Q 2391 481 2648 825 
Q 2906 1169 2906 1791 
z
M 3481 434 
Q 3481 -459 3084 -895 
Q 2688 -1331 1869 -1331 
Q 1566 -1331 1297 -1286 
Q 1028 -1241 775 -1147 
L 775 -588 
Q 1028 -725 1275 -790 
Q 1522 -856 1778 -856 
Q 2344 -856 2625 -561 
Q 2906 -266 2906 331 
L 2906 616 
Q 2728 306 2450 153 
Q 2172 0 1784 0 
Q 1141 0 747 490 
Q 353 981 353 1791 
Q 353 2603 747 3093 
Q 1141 3584 1784 3584 
Q 2172 3584 2450 3431 
Q 2728 3278 2906 2969 
L 2906 3500 
L 3481 3500 
L 3481 434 
z
" id="DejaVuSans-67" transform="scale(0.015625)"/>
       <path d="M 191 3500 
L 800 3500 
L 1894 563 
L 2988 3500 
L 3597 3500 
L 2284 0 
L 1503 0 
L 191 3500 
z
" id="DejaVuSans-76" transform="scale(0.015625)"/>
       <path d="M 513 4856 
L 1013 4856 
Q 1481 4119 1714 3412 
Q 1947 2706 1947 2009 
Q 1947 1309 1714 600 
Q 1481 -109 1013 -844 
L 513 -844 
Q 928 -128 1133 580 
Q 1338 1288 1338 2009 
Q 1338 2731 1133 3434 
Q 928 4138 513 4856 
z
" id="DejaVuSans-29" transform="scale(0.015625)"/>
      </defs>
      <use xlink:href="#DejaVuSans-46"/>
      <use x="50.269531" xlink:href="#DejaVuSans-72"/>
      <use x="89.132812" xlink:href="#DejaVuSans-65"/>
      <use x="150.65625" xlink:href="#DejaVuSans-71"/>
      <use x="214.132812" xlink:href="#DejaVuSans-75"/>
      <use x="277.511719" xlink:href="#DejaVuSans-65"/>
      <use x="339.035156" xlink:href="#DejaVuSans-6e"/>
      <use x="402.414062" xlink:href="#DejaVuSans-63"/>
      <use x="457.394531" xlink:href="#DejaVuSans-79"/>
      <use x="516.574219" xlink:href="#DejaVuSans-20"/>
      <use x="548.361328" xlink:href="#DejaVuSans-28"/>
      <use x="587.375" xlink:href="#DejaVuSans-37"/>
      <use x="650.998047" xlink:href="#DejaVuSans-20"/>
      <use x="682.785156" xlink:href="#DejaVuSans-64"/>
      <use x="746.261719" xlink:href="#DejaVuSans-61"/>
      <use x="807.541016" xlink:href="#DejaVuSans-79"/>
      <use x="866.720703" xlink:href="#DejaVuSans-20"/>
      <use x="898.507812" xlink:href="#DejaVuSans-72"/>
      <use x="937.371094" xlink:href="#DejaVuSans-6f"/>
      <use x="998.552734" xlink:href="#DejaVuSans-6c"/>
      <use x="1026.335938" xlink:href="#DejaVuSans-6c"/>
      <use x="1054.119141" xlink:href="#DejaVuSans-69"/>
      <use x="1081.902344" xlink:href="#DejaVuSans-6e"/>
      <use x="1145.28125" xlink:href="#DejaVuSans-67"/>
      <use x="1208.757812" xlink:href="#DejaVuSans-20"/>
      <use x="1240.544922" xlink:href="#DejaVuSans-61"/>
      <use x="1301.824219" xlink:href="#DejaVuSans-76"/>
      <use x="1361.003906" xlink:href="#DejaVuSans-65"/>
      <use x="1422.527344" xlink:href="#DejaVuSans-72"/>
      <use x="1463.640625" xlink:href="#DejaVuSans-61"/>
      <use x="1524.919922" xlink:href="#DejaVuSans-67"/>
      <use x="1588.396484" xlink:href="#DejaVuSans-65"/>
      <use x="1649.919922" xlink:href="#DejaVuSans-29"/>
     </g>
    </g>
   </g>
   <g id="line2d_15">
    <path clip-path="url(#p2ec84a2422)" d="M 322.325616 228.875501 
L 331.4383 228.96 
L 337.513422 228.867759 
L 346.626106 228.807242 
L 352.701228 228.899483 
L 364.851473 228.936085 
L 377.001718 228.911842 
L 392.189524 228.937574 
L 398.264647 228.889522 
L 404.339769 228.817238 
L 446.865627 228.770054 
L 452.940749 228.498632 
L 459.015872 228.460537 
L 462.053433 228.308685 
L 465.090994 228.323088 
L 471.166117 227.875182 
L 480.2788 227.408424 
L 486.353923 227.417491 
L 489.391484 227.287331 
L 492.429045 227.315314 
L 501.541729 225.572891 
L 507.616852 225.209929 
L 510.654413 225.255403 
L 516.729535 225.119232 
L 519.767096 224.368721 
L 522.804658 222.893135 
L 525.842219 221.684976 
L 531.917341 219.830477 
L 534.954903 218.601904 
L 537.992464 218.234383 
L 541.030025 217.46386 
L 547.105148 214.710821 
L 553.18027 215.080729 
L 556.217831 215.294355 
L 559.255393 215.738454 
L 562.292954 215.8731 
L 565.330515 214.8018 
L 568.368076 212.587415 
L 571.405638 211.848411 
L 577.48076 211.07656 
L 580.518321 211.059614 
L 583.555883 212.008778 
L 586.593444 211.616195 
L 589.631005 210.120401 
L 592.668566 209.827965 
L 595.706128 209.713877 
L 598.743689 209.261374 
L 601.78125 208.942694 
L 604.818811 209.234248 
L 607.856372 207.863902 
L 610.893934 205.569579 
L 613.931495 205.127689 
L 620.006617 205.467907 
L 623.044179 206.528644 
L 626.08174 208.050541 
L 629.119301 207.370321 
L 635.194424 204.045542 
L 641.269546 201.773153 
L 644.307107 201.24881 
L 650.38223 200.54381 
L 653.419791 199.279355 
L 656.457352 199.05674 
L 659.494914 199.225235 
L 662.532475 199.628866 
L 668.607597 201.238697 
L 671.645159 199.716343 
L 674.68272 198.680114 
L 680.757842 198.384888 
L 683.795404 197.738362 
L 686.832965 198.574979 
L 689.870526 198.860676 
L 692.908087 196.999729 
L 695.945648 194.282124 
L 698.98321 193.564136 
L 705.058332 192.456241 
L 711.133455 192.7587 
L 714.171016 191.543186 
L 717.208577 189.753628 
L 720.246138 189.383565 
L 723.2837 189.533674 
L 726.321261 189.35645 
L 729.358822 189.806588 
L 732.396383 190.018004 
L 735.433945 190.661123 
L 738.471506 188.851888 
L 741.509067 185.526075 
L 744.546628 185.766657 
L 747.58419 186.150353 
L 750.621751 183.630983 
L 753.659312 184.336519 
L 756.696873 189.246059 
L 759.734435 189.119868 
L 762.771996 189.275195 
L 765.809557 191.932341 
L 768.847118 194.095344 
L 771.88468 194.770292 
L 777.959802 197.410134 
L 780.997363 198.304551 
L 784.034924 198.877216 
L 787.072486 197.756671 
L 790.110047 198.493636 
L 793.147608 198.557582 
L 796.185169 198.469922 
L 799.222731 198.507791 
L 802.260292 199.424049 
L 805.297853 199.763032 
L 808.335414 201.670944 
L 811.372976 202.815984 
L 814.410537 204.417145 
L 817.448098 204.794912 
L 820.485659 205.669181 
L 823.523221 205.579763 
L 826.560782 206.776889 
L 829.598343 207.384202 
L 832.635904 209.641631 
L 835.673466 210.357198 
L 838.711027 212.170409 
L 841.748588 212.003738 
L 844.786149 211.303058 
L 847.823711 212.525787 
L 850.861272 213.916585 
L 853.898833 214.779016 
L 856.936394 215.777641 
L 859.973955 217.633473 
L 869.086639 219.697203 
L 875.161762 221.642329 
L 878.199323 222.219483 
L 881.236884 222.919546 
L 884.274445 223.234002 
L 887.312007 223.842282 
L 899.462252 225.185785 
L 902.499813 225.403544 
L 905.537374 225.849219 
L 920.72518 226.811734 
L 926.800303 227.027389 
L 938.950548 227.538642 
L 948.063231 227.721387 
L 960.213476 227.940082 
L 972.363721 228.347783 
L 984.513966 228.405134 
L 993.62665 228.477331 
L 996.664211 228.431619 
L 1014.889579 228.783161 
L 1033.114946 228.773079 
L 1069.565681 228.920051 
L 1072.603242 228.780782 
L 1090.82861 228.915279 
L 1090.82861 228.915279 
" style="fill:none;stroke:#947383;stroke-linecap:square;stroke-width:2;"/>
   </g>
   <g id="line2d_16">
    <path clip-path="url(#p2ec84a2422)" d="M 94.508523 225.518893 
L 97.546084 228.96 
L 103.621206 228.96 
L 106.658768 226.895336 
L 118.809013 226.895336 
L 121.846574 228.96 
L 149.184625 228.96 
L 152.222186 224.371857 
L 155.259748 224.371857 
L 158.297309 222.697805 
L 164.372431 222.697805 
L 167.409993 227.285948 
L 170.447554 227.285948 
L 173.485115 228.96 
L 185.63536 228.96 
L 188.672921 225.316475 
L 194.748044 225.316475 
L 197.785605 223.546762 
L 200.823166 218.591568 
L 203.860727 222.235093 
L 206.898289 216.0411 
L 209.93585 211.085906 
L 212.973411 212.855618 
L 216.010972 217.810813 
L 219.048534 217.810813 
L 222.086095 224.004806 
L 225.123656 228.96 
L 234.23634 228.96 
L 237.273901 219.180011 
L 240.311462 208.340523 
L 243.349024 202.605345 
L 249.424146 202.605345 
L 252.461707 194.538235 
L 255.499269 198.495509 
L 258.53683 186.3634 
L 261.574391 180.732497 
L 264.611952 172.47384 
L 267.649513 187.060942 
L 270.687075 185.496802 
L 273.724636 189.012155 
L 276.762197 184.768576 
L 279.799758 174.17595 
L 282.83732 174.95835 
L 285.874881 178.449509 
L 288.912442 186.068843 
L 291.950003 191.355182 
L 294.987565 196.361069 
L 298.025126 186.872998 
L 301.062687 182.298972 
L 304.100248 178.849667 
L 307.13781 176.387736 
L 310.175371 187.804116 
L 313.212932 195.005174 
L 316.250493 195.60075 
L 319.288055 197.030275 
L 322.325616 187.780367 
L 325.363177 181.10057 
L 328.400738 169.665507 
L 331.4383 174.678902 
L 334.475861 170.443878 
L 337.513422 174.263426 
L 340.550983 156.076677 
L 343.588545 157.063035 
L 346.626106 146.358578 
L 349.663667 144.4804 
L 352.701228 137.400856 
L 355.738789 151.147058 
L 358.776351 149.017194 
L 361.813912 149.675053 
L 364.851473 142.996312 
L 367.889034 142.769924 
L 370.926596 139.974024 
L 373.964157 136.080657 
L 377.001718 139.724182 
L 380.039279 147.124742 
L 383.076841 153.284324 
L 386.114402 154.998104 
L 389.151963 160.176151 
L 392.189524 148.072946 
L 395.227086 145.916728 
L 398.264647 140.076678 
L 404.339769 130.194089 
L 407.377331 136.420942 
L 410.414892 122.897994 
L 413.452453 117.310476 
L 416.490014 121.454344 
L 419.527576 117.910182 
L 422.565137 107.032291 
L 425.602698 109.486414 
L 428.640259 104.888674 
L 431.67782 84.127327 
L 434.715382 87.84493 
L 440.790504 87.885732 
L 443.828065 83.237757 
L 446.865627 88.71922 
L 449.903188 75.511021 
L 452.940749 71.016219 
L 455.97831 69.575829 
L 459.015872 76.395507 
L 462.053433 71.195252 
L 465.090994 79.869 
L 468.128555 76.068276 
L 471.166117 78.672039 
L 474.203678 65.391961 
L 477.241239 64.193123 
L 480.2788 62.346101 
L 483.316362 69.42495 
L 486.353923 65.093981 
L 489.391484 70.627951 
L 492.429045 79.204249 
L 495.466607 73.616322 
L 498.504168 67.303883 
L 501.541729 62.648219 
L 504.57929 66.491822 
L 507.616852 66.548097 
L 510.654413 63.21287 
L 513.691974 65.26191 
L 519.767096 60.500426 
L 522.804658 53.507439 
L 525.842219 48.772423 
L 528.87978 39.470609 
L 531.917341 34.229415 
L 534.954903 28.095176 
L 537.992464 22.511432 
L 541.030025 22.245399 
L 544.067586 28.731762 
L 547.105148 35.753172 
L 550.142709 42.236491 
L 553.18027 48.284268 
L 556.217831 53.278709 
L 559.255393 47.914555 
L 562.292954 52.703725 
L 565.330515 61.121753 
L 568.368076 60.074928 
L 571.405638 63.383429 
L 574.443199 77.26842 
L 577.48076 76.544447 
L 580.518321 66.509572 
L 583.555883 68.479387 
L 586.593444 78.311683 
L 589.631005 71.441697 
L 592.668566 67.586152 
L 595.706128 76.845277 
L 598.743689 73.963133 
L 601.78125 63.060381 
L 604.818811 61.749859 
L 607.856372 70.419751 
L 610.893934 64.263141 
L 613.931495 64.982953 
L 616.969056 62.37219 
L 620.006617 64.850292 
L 623.044179 53.236142 
L 626.08174 46.515167 
L 629.119301 53.168385 
L 632.156862 49.804088 
L 635.194424 39.788349 
L 638.231985 35.841768 
L 641.269546 41.848748 
L 644.307107 37.500272 
L 647.344669 38.309822 
L 650.38223 51.277931 
L 653.419791 57.618294 
L 656.457352 52.279294 
L 659.494914 45.910974 
L 662.532475 45.22718 
L 665.570036 36.469044 
L 668.607597 37.137264 
L 671.645159 44.340332 
L 674.68272 48.292955 
L 677.720281 45.887571 
L 680.757842 44.613559 
L 683.795404 42.488961 
L 686.832965 35.689295 
L 689.870526 32.683611 
L 692.908087 44.779613 
L 695.945648 46.732639 
L 698.98321 37.83403 
L 702.020771 34.533157 
L 705.058332 36.43878 
L 708.095893 28.599214 
L 711.133455 26.061894 
L 714.171016 38.040842 
L 717.208577 43.214301 
L 720.246138 38.421342 
L 726.321261 30.551792 
L 729.358822 23.787175 
L 732.396383 17.76 
L 735.433945 27.116883 
L 738.471506 35.898842 
L 741.509067 41.199598 
L 744.546628 44.847345 
L 747.58419 52.575161 
L 750.621751 55.690569 
L 753.659312 52.800039 
L 756.696873 59.811502 
L 759.734435 66.032199 
L 762.771996 60.480341 
L 765.809557 53.195029 
L 768.847118 53.591873 
L 771.88468 48.479066 
L 774.922241 44.381364 
L 777.959802 48.651867 
L 780.997363 44.581682 
L 784.034924 41.993116 
L 787.072486 40.846686 
L 790.110047 40.542673 
L 793.147608 42.977919 
L 796.185169 57.01979 
L 799.222731 66.54901 
L 802.260292 64.702377 
L 805.297853 64.40136 
L 808.335414 60.30874 
L 811.372976 53.465032 
L 814.410537 45.199543 
L 817.448098 53.010762 
L 820.485659 57.697188 
L 823.523221 57.783529 
L 826.560782 54.648295 
L 829.598343 56.350178 
L 832.635904 54.590648 
L 835.673466 53.548313 
L 838.711027 62.480851 
L 841.748588 67.018994 
L 844.786149 67.17822 
L 847.823711 70.253407 
L 850.861272 72.996236 
L 853.898833 72.872401 
L 856.936394 77.677823 
L 859.973955 83.148783 
L 863.011517 82.736305 
L 866.049078 81.454324 
L 869.086639 81.010464 
L 872.1242 82.245147 
L 875.161762 86.361687 
L 878.199323 95.698854 
L 881.236884 107.676188 
L 884.274445 116.625172 
L 887.312007 117.090886 
L 890.349568 121.06473 
L 893.387129 120.86887 
L 896.42469 121.402581 
L 899.462252 120.535113 
L 902.499813 122.939203 
L 905.537374 125.684107 
L 908.574935 125.368697 
L 911.612497 122.756463 
L 914.650058 126.028773 
L 917.687619 128.572207 
L 920.72518 129.369208 
L 923.762742 136.819852 
L 926.800303 142.329742 
L 929.837864 137.205374 
L 932.875425 140.784447 
L 935.912987 143.253043 
L 938.950548 142.466061 
L 941.988109 145.370034 
L 945.02567 152.830218 
L 948.063231 157.488248 
L 954.138354 164.843799 
L 957.175915 167.375257 
L 960.213476 170.142371 
L 963.251038 172.198227 
L 966.288599 172.901757 
L 969.32616 176.938089 
L 972.363721 179.737692 
L 975.401283 183.720177 
L 978.438844 185.65327 
L 981.476405 191.89997 
L 984.513966 194.913656 
L 987.551528 196.13313 
L 990.589089 197.964201 
L 993.62665 201.182236 
L 996.664211 200.428959 
L 999.701773 200.875117 
L 1002.739334 201.100334 
L 1005.776895 201.788556 
L 1008.814456 203.076812 
L 1011.852018 201.661646 
L 1014.889579 202.299437 
L 1017.92714 204.672061 
L 1020.964701 206.886907 
L 1024.002263 206.264855 
L 1027.039824 208.627065 
L 1030.077385 205.149505 
L 1033.114946 203.737956 
L 1036.152507 203.225553 
L 1039.190069 205.62911 
L 1042.22763 207.633064 
L 1045.265191 212.53008 
L 1048.302752 214.819107 
L 1051.340314 213.760257 
L 1054.377875 212.899084 
L 1057.415436 212.303178 
L 1060.452997 212.802705 
L 1063.490559 213.804142 
L 1066.52812 216.049141 
L 1069.565681 216.835871 
L 1072.603242 220.06752 
L 1075.640804 220.793248 
L 1078.678365 218.917212 
L 1084.753487 219.398783 
L 1087.791049 218.878279 
L 1090.82861 220.104812 
L 1093.866171 223.610846 
L 1096.903732 220.311016 
L 1099.941294 222.808594 
L 1102.978855 220.748267 
L 1106.016416 218.055227 
L 1109.053977 216.506728 
L 1109.053977 216.506728 
" style="fill:none;stroke:#96c6ad;stroke-linecap:square;stroke-width:2;"/>
   </g>
   <g id="line2d_17">
    <path clip-path="url(#p2ec84a2422)" d="M 331.4383 167.020071 
L 334.475861 228.96 
L 337.513422 227.223366 
L 343.588545 227.223366 
L 346.626106 226.764552 
L 349.663667 226.024234 
L 352.701228 227.760868 
L 358.776351 226.478376 
L 364.851473 227.416891 
L 367.889034 227.351965 
L 370.926596 227.769889 
L 373.964157 228.049335 
L 377.001718 227.792322 
L 380.039279 227.999886 
L 383.076841 227.97264 
L 392.189524 228.470846 
L 395.227086 228.227537 
L 398.264647 228.319709 
L 404.339769 228.198267 
L 410.414892 228.306752 
L 413.452453 228.209285 
L 416.490014 228.230685 
L 419.527576 227.757869 
L 425.602698 227.996865 
L 431.67782 227.923894 
L 434.715382 228.346527 
L 440.790504 227.971325 
L 443.828065 228.073789 
L 452.940749 227.858802 
L 455.97831 227.983724 
L 459.015872 227.598848 
L 462.053433 227.521531 
L 465.090994 227.712654 
L 471.166117 227.611998 
L 474.203678 227.844986 
L 477.241239 227.911905 
L 480.2788 227.426563 
L 483.316362 227.294782 
L 489.391484 227.492078 
L 492.429045 227.494889 
L 495.466607 227.792316 
L 498.504168 227.884825 
L 501.541729 227.529266 
L 513.691974 227.19823 
L 516.729535 227.555883 
L 519.767096 227.222687 
L 522.804658 226.700052 
L 525.842219 226.393927 
L 528.87978 226.446251 
L 531.917341 226.214226 
L 534.954903 226.328719 
L 537.992464 226.562912 
L 541.030025 226.923835 
L 544.067586 226.683116 
L 547.105148 225.945293 
L 553.18027 226.315317 
L 559.255393 226.222982 
L 562.292954 226.476773 
L 565.330515 226.068006 
L 568.368076 225.840719 
L 571.405638 225.973842 
L 574.443199 225.555636 
L 577.48076 225.301949 
L 580.518321 225.256495 
L 583.555883 225.052268 
L 586.593444 224.338924 
L 589.631005 224.943043 
L 592.668566 225.762901 
L 595.706128 226.039199 
L 598.743689 225.893772 
L 601.78125 226.20727 
L 607.856372 225.416546 
L 610.893934 225.355916 
L 613.931495 225.777162 
L 616.969056 225.788351 
L 623.044179 226.126672 
L 626.08174 225.964339 
L 632.156862 226.025835 
L 635.194424 226.317867 
L 641.269546 226.30771 
L 644.307107 226.154061 
L 647.344669 226.207098 
L 650.38223 225.569228 
L 653.419791 225.348312 
L 656.457352 225.727997 
L 659.494914 225.861369 
L 662.532475 225.623115 
L 665.570036 225.926026 
L 668.607597 225.961891 
L 671.645159 225.673165 
L 674.68272 224.834742 
L 677.720281 225.281469 
L 680.757842 225.439964 
L 683.795404 225.18206 
L 686.832965 224.710871 
L 689.870526 225.204984 
L 695.945648 224.315982 
L 702.020771 225.233 
L 705.058332 225.265326 
L 711.133455 224.752788 
L 717.208577 223.251303 
L 720.246138 223.554423 
L 723.2837 223.665125 
L 726.321261 224.285214 
L 729.358822 224.542285 
L 732.396383 224.983817 
L 735.433945 224.858244 
L 738.471506 224.072267 
L 741.509067 223.921782 
L 744.546628 223.99649 
L 747.58419 223.789678 
L 750.621751 223.218639 
L 753.659312 223.509581 
L 756.696873 223.576107 
L 759.734435 223.039811 
L 762.771996 223.629931 
L 765.809557 224.011988 
L 768.847118 224.698086 
L 771.88468 224.424793 
L 774.922241 224.99922 
L 780.997363 225.108223 
L 784.034924 224.873078 
L 790.110047 225.067563 
L 793.147608 224.451217 
L 799.222731 224.24374 
L 802.260292 224.815617 
L 805.297853 224.365823 
L 808.335414 224.056838 
L 811.372976 223.966485 
L 814.410537 224.249491 
L 817.448098 223.891857 
L 820.485659 224.031299 
L 823.523221 224.651627 
L 826.560782 224.172454 
L 829.598343 223.143682 
L 832.635904 221.653865 
L 835.673466 220.006752 
L 838.711027 218.914361 
L 841.748588 219.350579 
L 844.786149 220.704887 
L 847.823711 221.008891 
L 850.861272 222.482339 
L 853.898833 223.233543 
L 856.936394 223.236667 
L 859.973955 222.72533 
L 866.049078 224.558602 
L 869.086639 225.170039 
L 872.1242 225.23541 
L 878.199323 225.88348 
L 881.236884 225.554771 
L 884.274445 225.786263 
L 887.312007 226.535841 
L 890.349568 226.820161 
L 896.42469 227.74854 
L 908.574935 228.253869 
L 911.612497 228.01827 
L 914.650058 228.093396 
L 920.72518 227.807637 
L 923.762742 227.908367 
L 926.800303 228.175786 
L 929.837864 228.139609 
L 935.912987 228.45219 
L 938.950548 228.46932 
L 945.02567 228.771914 
L 966.288599 228.874508 
L 1020.964701 228.96 
L 1042.22763 228.935684 
L 1042.22763 228.935684 
" style="fill:none;stroke:#525886;stroke-linecap:square;stroke-width:2;"/>
   </g>
   <g id="line2d_18">
    <path clip-path="url(#p2ec84a2422)" d="M 301.062687 227.676271 
L 304.100248 228.96 
L 310.175371 228.96 
L 313.212932 228.653367 
L 325.363177 228.653367 
L 328.400738 228.96 
L 364.851473 228.96 
L 367.889034 228.035523 
L 380.039279 228.035523 
L 383.076841 228.96 
L 386.114402 228.595647 
L 398.264647 228.595647 
L 401.302208 228.96 
L 404.339769 228.075144 
L 410.414892 228.075144 
L 413.452453 227.734815 
L 416.490014 226.98855 
L 419.527576 227.873407 
L 425.602698 227.873407 
L 431.67782 228.523803 
L 437.752943 228.523803 
L 440.790504 227.58532 
L 443.828065 227.139709 
L 446.865627 227.575905 
L 449.903188 226.294389 
L 452.940749 226.294389 
L 455.97831 227.096742 
L 459.015872 227.542353 
L 462.053433 226.716487 
L 465.090994 227.768595 
L 468.128555 227.768595 
L 471.166117 227.904727 
L 474.203678 227.61929 
L 477.241239 228.019451 
L 480.2788 227.851808 
L 483.316362 227.851808 
L 489.391484 227.078709 
L 495.466607 225.610419 
L 498.504168 225.271949 
L 501.541729 224.128888 
L 504.57929 223.646944 
L 507.616852 223.939636 
L 510.654413 224.522256 
L 513.691974 224.860726 
L 516.729535 226.175782 
L 519.767096 226.217249 
L 522.804658 227.071593 
L 531.917341 226.677877 
L 534.954903 227.790571 
L 537.992464 227.26117 
L 541.030025 227.546973 
L 544.067586 227.317566 
L 547.105148 227.82806 
L 550.142709 227.73575 
L 556.217831 228.413863 
L 562.292954 228.505931 
L 565.330515 226.776478 
L 568.368076 226.79848 
L 574.443199 226.585706 
L 577.48076 226.314039 
L 580.518321 227.999069 
L 583.555883 227.918009 
L 586.593444 228.009501 
L 589.631005 227.347083 
L 592.668566 227.618749 
L 595.706128 227.503181 
L 598.743689 227.786659 
L 601.78125 227.668227 
L 604.818811 228.482289 
L 607.856372 228.042999 
L 610.893934 228.2953 
L 613.931495 228.2953 
L 623.044179 228.707527 
L 626.08174 228.637539 
L 629.119301 228.25401 
L 635.194424 228.203856 
L 641.269546 228.020941 
L 644.307107 228.27069 
L 650.38223 228.206983 
L 653.419791 228.439333 
L 656.457352 228.342339 
L 659.494914 228.379338 
L 662.532475 228.243596 
L 668.607597 228.288207 
L 671.645159 228.544157 
L 686.832965 228.96 
L 695.945648 228.739312 
L 708.095893 228.72547 
L 711.133455 228.606811 
L 720.246138 228.71039 
L 741.509067 228.96 
L 744.546628 228.812172 
L 747.58419 228.812172 
L 750.621751 227.489183 
L 756.696873 227.489183 
L 759.734435 227.637011 
L 762.771996 227.236106 
L 765.809557 227.520269 
L 768.847118 227.520269 
L 774.922241 226.938856 
L 777.959802 227.339762 
L 780.997363 227.887 
L 784.034924 227.887 
L 787.072486 228.169187 
L 793.147608 228.070342 
L 796.185169 227.437792 
L 802.260292 227.437792 
L 805.297853 227.835863 
L 808.335414 227.328159 
L 811.372976 228.074229 
L 814.410537 228.074229 
L 817.448098 227.043614 
L 820.485659 227.043614 
L 823.523221 227.551319 
L 826.560782 227.85591 
L 829.598343 227.698502 
L 832.635904 228.729117 
L 835.673466 228.729117 
L 838.711027 228.322953 
L 841.748588 228.277542 
L 844.786149 228.43495 
L 850.861272 228.341947 
L 853.898833 228.725305 
L 856.936394 228.844192 
L 866.049078 228.937194 
L 875.161762 228.96 
L 878.199323 228.663163 
L 881.236884 228.663163 
L 884.274445 228.471399 
L 890.349568 228.471399 
L 893.387129 228.768236 
L 896.42469 228.721769 
L 899.462252 228.913533 
L 917.687619 228.843681 
L 920.72518 228.758638 
L 926.800303 228.164169 
L 929.837864 228.164169 
L 935.912987 228.365532 
L 938.950548 228.665048 
L 945.02567 228.394936 
L 954.138354 228.394936 
L 957.175915 228.797833 
L 963.251038 228.893493 
L 1002.739334 228.799787 
L 1011.852018 228.409908 
L 1020.964701 228.333047 
L 1020.964701 228.333047 
" style="fill:none;stroke:#937252;stroke-linecap:square;stroke-width:2;"/>
   </g>
   <g id="line2d_19">
    <path clip-path="url(#p2ec84a2422)" d="M 401.302208 228.892083 
L 407.377331 228.96 
L 465.090994 228.868617 
L 480.2788 228.83274 
L 492.429045 228.841467 
L 513.691974 228.813287 
L 522.804658 228.886325 
L 531.917341 228.924956 
L 541.030025 228.896478 
L 553.18027 228.92606 
L 559.255393 228.820754 
L 562.292954 228.687062 
L 568.368076 228.587879 
L 574.443199 228.524547 
L 577.48076 228.603503 
L 586.593444 228.481052 
L 598.743689 228.562005 
L 601.78125 228.20365 
L 604.818811 228.084161 
L 607.856372 228.115597 
L 610.893934 227.892948 
L 613.931495 227.801353 
L 616.969056 228.068991 
L 632.156862 228.310329 
L 635.194424 228.41102 
L 638.231985 227.917609 
L 641.269546 228.119645 
L 647.344669 228.070219 
L 650.38223 227.7775 
L 653.419791 228.214332 
L 662.532475 228.177812 
L 665.570036 228.415676 
L 668.607597 228.275881 
L 671.645159 228.348837 
L 674.68272 228.00152 
L 677.720281 227.967728 
L 683.795404 228.264205 
L 686.832965 228.067154 
L 689.870526 228.501896 
L 692.908087 228.640671 
L 698.98321 228.60864 
L 702.020771 228.805692 
L 711.133455 228.796304 
L 720.246138 228.96 
L 735.433945 228.717447 
L 750.621751 228.941766 
L 768.847118 228.920916 
L 790.110047 228.96 
L 1072.603242 228.948854 
L 1072.603242 228.948854 
" style="fill:none;stroke:#d18cad;stroke-linecap:square;stroke-width:2;"/>
   </g>
   <g id="line2d_20">
    <path clip-path="url(#p2ec84a2422)" d="M 477.241239 197.990035 
L 480.2788 228.96 
L 483.316362 228.96 
L 486.353923 228.96 
L 489.391484 225.518893 
L 492.429045 225.518893 
L 495.466607 225.518893 
L 498.504168 225.518893 
L 501.541729 225.518893 
L 504.57929 228.96 
L 507.616852 228.96 
L 510.654413 228.96 
L 513.691974 228.96 
L 516.729535 228.96 
L 519.767096 228.96 
L 522.804658 228.96 
L 525.842219 228.96 
L 528.87978 228.96 
L 531.917341 228.96 
L 534.954903 228.96 
L 537.992464 228.96 
L 541.030025 228.96 
L 544.067586 226.01048 
L 547.105148 226.01048 
L 550.142709 226.01048 
L 553.18027 226.01048 
L 556.217831 226.01048 
L 559.255393 228.96 
L 562.292954 228.96 
L 565.330515 228.96 
L 568.368076 228.96 
L 571.405638 223.329097 
L 574.443199 223.329097 
L 577.48076 223.329097 
L 580.518321 214.480536 
L 583.555883 214.480536 
L 586.593444 220.111439 
L 589.631005 220.111439 
L 592.668566 220.111439 
L 595.706128 226.01048 
L 598.743689 226.01048 
L 601.78125 226.01048 
L 604.818811 226.01048 
L 607.856372 226.01048 
L 610.893934 228.96 
L 613.931495 228.96 
L 616.969056 228.96 
L 620.006617 228.96 
L 623.044179 223.798339 
L 626.08174 223.798339 
L 629.119301 223.798339 
L 632.156862 223.798339 
L 635.194424 223.798339 
L 638.231985 228.96 
L 641.269546 228.96 
L 644.307107 228.96 
L 647.344669 228.96 
L 650.38223 228.96 
L 653.419791 228.96 
L 656.457352 228.96 
L 659.494914 228.96 
L 662.532475 228.96 
L 665.570036 228.96 
L 668.607597 228.96 
L 671.645159 228.96 
L 674.68272 228.96 
L 677.720281 228.96 
L 680.757842 228.96 
L 683.795404 228.96 
L 686.832965 216.572014 
L 689.870526 216.572014 
L 692.908087 216.572014 
L 695.945648 216.572014 
L 698.98321 216.572014 
L 702.020771 228.96 
L 705.058332 228.96 
L 708.095893 228.96 
L 711.133455 228.96 
L 714.171016 228.96 
L 717.208577 228.96 
L 720.246138 228.96 
L 723.2837 228.96 
L 726.321261 228.96 
L 729.358822 228.96 
L 732.396383 228.96 
L 735.433945 228.96 
L 738.471506 228.96 
L 741.509067 220.111439 
" style="fill:none;stroke:#a4a86f;stroke-linecap:square;stroke-width:2;"/>
   </g>
   <g id="patch_3">
    <path d="M 43.78125 228.96 
L 43.78125 7.2 
" style="fill:none;stroke:#000000;stroke-linecap:square;stroke-linejoin:miter;stroke-width:0.8;"/>
   </g>
   <g id="patch_4">
    <path d="M 43.78125 228.96 
L 1159.78125 228.96 
" style="fill:none;stroke:#000000;stroke-linecap:square;stroke-linejoin:miter;stroke-width:0.8;"/>
   </g>
   <g id="legend_1">
    <g id="line2d_21">
     <path d="M 1065.97 17.67875 
L 1081.97 17.67875 
" style="fill:none;stroke:#947383;stroke-linecap:square;stroke-width:2;"/>
    </g>
    <g id="line2d_22"/>
    <g id="text_17">
     <!-- North America -->
     <g transform="translate(1088.37 20.47875)scale(0.08 -0.08)">
      <defs>
       <path d="M 628 4666 
L 1478 4666 
L 3547 763 
L 3547 4666 
L 4159 4666 
L 4159 0 
L 3309 0 
L 1241 3903 
L 1241 0 
L 628 0 
L 628 4666 
z
" id="DejaVuSans-4e" transform="scale(0.015625)"/>
       <path d="M 3513 2113 
L 3513 0 
L 2938 0 
L 2938 2094 
Q 2938 2591 2744 2837 
Q 2550 3084 2163 3084 
Q 1697 3084 1428 2787 
Q 1159 2491 1159 1978 
L 1159 0 
L 581 0 
L 581 4863 
L 1159 4863 
L 1159 2956 
Q 1366 3272 1645 3428 
Q 1925 3584 2291 3584 
Q 2894 3584 3203 3211 
Q 3513 2838 3513 2113 
z
" id="DejaVuSans-68" transform="scale(0.015625)"/>
       <path d="M 2188 4044 
L 1331 1722 
L 3047 1722 
L 2188 4044 
z
M 1831 4666 
L 2547 4666 
L 4325 0 
L 3669 0 
L 3244 1197 
L 1141 1197 
L 716 0 
L 50 0 
L 1831 4666 
z
" id="DejaVuSans-41" transform="scale(0.015625)"/>
       <path d="M 3328 2828 
Q 3544 3216 3844 3400 
Q 4144 3584 4550 3584 
Q 5097 3584 5394 3201 
Q 5691 2819 5691 2113 
L 5691 0 
L 5113 0 
L 5113 2094 
Q 5113 2597 4934 2840 
Q 4756 3084 4391 3084 
Q 3944 3084 3684 2787 
Q 3425 2491 3425 1978 
L 3425 0 
L 2847 0 
L 2847 2094 
Q 2847 2600 2669 2842 
Q 2491 3084 2119 3084 
Q 1678 3084 1418 2786 
Q 1159 2488 1159 1978 
L 1159 0 
L 581 0 
L 581 3500 
L 1159 3500 
L 1159 2956 
Q 1356 3278 1631 3431 
Q 1906 3584 2284 3584 
Q 2666 3584 2933 3390 
Q 3200 3197 3328 2828 
z
" id="DejaVuSans-6d" transform="scale(0.015625)"/>
      </defs>
      <use xlink:href="#DejaVuSans-4e"/>
      <use x="74.804688" xlink:href="#DejaVuSans-6f"/>
      <use x="135.986328" xlink:href="#DejaVuSans-72"/>
      <use x="177.099609" xlink:href="#DejaVuSans-74"/>
      <use x="216.308594" xlink:href="#DejaVuSans-68"/>
      <use x="279.6875" xlink:href="#DejaVuSans-20"/>
      <use x="311.474609" xlink:href="#DejaVuSans-41"/>
      <use x="379.882812" xlink:href="#DejaVuSans-6d"/>
      <use x="477.294922" xlink:href="#DejaVuSans-65"/>
      <use x="538.818359" xlink:href="#DejaVuSans-72"/>
      <use x="579.931641" xlink:href="#DejaVuSans-69"/>
      <use x="607.714844" xlink:href="#DejaVuSans-63"/>
      <use x="662.695312" xlink:href="#DejaVuSans-61"/>
     </g>
    </g>
    <g id="line2d_23">
     <path d="M 1065.97 29.42125 
L 1081.97 29.42125 
" style="fill:none;stroke:#96c6ad;stroke-linecap:square;stroke-width:2;"/>
    </g>
    <g id="line2d_24"/>
    <g id="text_18">
     <!-- South America -->
     <g transform="translate(1088.37 32.22125)scale(0.08 -0.08)">
      <defs>
       <path d="M 3425 4513 
L 3425 3897 
Q 3066 4069 2747 4153 
Q 2428 4238 2131 4238 
Q 1616 4238 1336 4038 
Q 1056 3838 1056 3469 
Q 1056 3159 1242 3001 
Q 1428 2844 1947 2747 
L 2328 2669 
Q 3034 2534 3370 2195 
Q 3706 1856 3706 1288 
Q 3706 609 3251 259 
Q 2797 -91 1919 -91 
Q 1588 -91 1214 -16 
Q 841 59 441 206 
L 441 856 
Q 825 641 1194 531 
Q 1563 422 1919 422 
Q 2459 422 2753 634 
Q 3047 847 3047 1241 
Q 3047 1584 2836 1778 
Q 2625 1972 2144 2069 
L 1759 2144 
Q 1053 2284 737 2584 
Q 422 2884 422 3419 
Q 422 4038 858 4394 
Q 1294 4750 2059 4750 
Q 2388 4750 2728 4690 
Q 3069 4631 3425 4513 
z
" id="DejaVuSans-53" transform="scale(0.015625)"/>
      </defs>
      <use xlink:href="#DejaVuSans-53"/>
      <use x="63.476562" xlink:href="#DejaVuSans-6f"/>
      <use x="124.658203" xlink:href="#DejaVuSans-75"/>
      <use x="188.037109" xlink:href="#DejaVuSans-74"/>
      <use x="227.246094" xlink:href="#DejaVuSans-68"/>
      <use x="290.625" xlink:href="#DejaVuSans-20"/>
      <use x="322.412109" xlink:href="#DejaVuSans-41"/>
      <use x="390.820312" xlink:href="#DejaVuSans-6d"/>
      <use x="488.232422" xlink:href="#DejaVuSans-65"/>
      <use x="549.755859" xlink:href="#DejaVuSans-72"/>
      <use x="590.869141" xlink:href="#DejaVuSans-69"/>
      <use x="618.652344" xlink:href="#DejaVuSans-63"/>
      <use x="673.632812" xlink:href="#DejaVuSans-61"/>
     </g>
    </g>
    <g id="line2d_25">
     <path d="M 1065.97 41.16375 
L 1081.97 41.16375 
" style="fill:none;stroke:#525886;stroke-linecap:square;stroke-width:2;"/>
    </g>
    <g id="line2d_26"/>
    <g id="text_19">
     <!-- Europe -->
     <g transform="translate(1088.37 43.96375)scale(0.08 -0.08)">
      <defs>
       <path d="M 628 4666 
L 3578 4666 
L 3578 4134 
L 1259 4134 
L 1259 2753 
L 3481 2753 
L 3481 2222 
L 1259 2222 
L 1259 531 
L 3634 531 
L 3634 0 
L 628 0 
L 628 4666 
z
" id="DejaVuSans-45" transform="scale(0.015625)"/>
       <path d="M 1159 525 
L 1159 -1331 
L 581 -1331 
L 581 3500 
L 1159 3500 
L 1159 2969 
Q 1341 3281 1617 3432 
Q 1894 3584 2278 3584 
Q 2916 3584 3314 3078 
Q 3713 2572 3713 1747 
Q 3713 922 3314 415 
Q 2916 -91 2278 -91 
Q 1894 -91 1617 61 
Q 1341 213 1159 525 
z
M 3116 1747 
Q 3116 2381 2855 2742 
Q 2594 3103 2138 3103 
Q 1681 3103 1420 2742 
Q 1159 2381 1159 1747 
Q 1159 1113 1420 752 
Q 1681 391 2138 391 
Q 2594 391 2855 752 
Q 3116 1113 3116 1747 
z
" id="DejaVuSans-70" transform="scale(0.015625)"/>
      </defs>
      <use xlink:href="#DejaVuSans-45"/>
      <use x="63.183594" xlink:href="#DejaVuSans-75"/>
      <use x="126.5625" xlink:href="#DejaVuSans-72"/>
      <use x="165.425781" xlink:href="#DejaVuSans-6f"/>
      <use x="226.607422" xlink:href="#DejaVuSans-70"/>
      <use x="290.083984" xlink:href="#DejaVuSans-65"/>
     </g>
    </g>
    <g id="line2d_27">
     <path d="M 1065.97 52.90625 
L 1081.97 52.90625 
" style="fill:none;stroke:#937252;stroke-linecap:square;stroke-width:2;"/>
    </g>
    <g id="line2d_28"/>
    <g id="text_20">
     <!-- Asia -->
     <g transform="translate(1088.37 55.70625)scale(0.08 -0.08)">
      <defs>
       <path d="M 2834 3397 
L 2834 2853 
Q 2591 2978 2328 3040 
Q 2066 3103 1784 3103 
Q 1356 3103 1142 2972 
Q 928 2841 928 2578 
Q 928 2378 1081 2264 
Q 1234 2150 1697 2047 
L 1894 2003 
Q 2506 1872 2764 1633 
Q 3022 1394 3022 966 
Q 3022 478 2636 193 
Q 2250 -91 1575 -91 
Q 1294 -91 989 -36 
Q 684 19 347 128 
L 347 722 
Q 666 556 975 473 
Q 1284 391 1588 391 
Q 1994 391 2212 530 
Q 2431 669 2431 922 
Q 2431 1156 2273 1281 
Q 2116 1406 1581 1522 
L 1381 1569 
Q 847 1681 609 1914 
Q 372 2147 372 2553 
Q 372 3047 722 3315 
Q 1072 3584 1716 3584 
Q 2034 3584 2315 3537 
Q 2597 3491 2834 3397 
z
" id="DejaVuSans-73" transform="scale(0.015625)"/>
      </defs>
      <use xlink:href="#DejaVuSans-41"/>
      <use x="68.408203" xlink:href="#DejaVuSans-73"/>
      <use x="120.507812" xlink:href="#DejaVuSans-69"/>
      <use x="148.291016" xlink:href="#DejaVuSans-61"/>
     </g>
    </g>
    <g id="line2d_29">
     <path d="M 1065.97 64.64875 
L 1081.97 64.64875 
" style="fill:none;stroke:#d18cad;stroke-linecap:square;stroke-width:2;"/>
    </g>
    <g id="line2d_30"/>
    <g id="text_21">
     <!-- United Kingdom -->
     <g transform="translate(1088.37 67.44875)scale(0.08 -0.08)">
      <defs>
       <path d="M 556 4666 
L 1191 4666 
L 1191 1831 
Q 1191 1081 1462 751 
Q 1734 422 2344 422 
Q 2950 422 3222 751 
Q 3494 1081 3494 1831 
L 3494 4666 
L 4128 4666 
L 4128 1753 
Q 4128 841 3676 375 
Q 3225 -91 2344 -91 
Q 1459 -91 1007 375 
Q 556 841 556 1753 
L 556 4666 
z
" id="DejaVuSans-55" transform="scale(0.015625)"/>
       <path d="M 628 4666 
L 1259 4666 
L 1259 2694 
L 3353 4666 
L 4166 4666 
L 1850 2491 
L 4331 0 
L 3500 0 
L 1259 2247 
L 1259 0 
L 628 0 
L 628 4666 
z
" id="DejaVuSans-4b" transform="scale(0.015625)"/>
      </defs>
      <use xlink:href="#DejaVuSans-55"/>
      <use x="73.193359" xlink:href="#DejaVuSans-6e"/>
      <use x="136.572266" xlink:href="#DejaVuSans-69"/>
      <use x="164.355469" xlink:href="#DejaVuSans-74"/>
      <use x="203.564453" xlink:href="#DejaVuSans-65"/>
      <use x="265.087891" xlink:href="#DejaVuSans-64"/>
      <use x="328.564453" xlink:href="#DejaVuSans-20"/>
      <use x="360.351562" xlink:href="#DejaVuSans-4b"/>
      <use x="425.927734" xlink:href="#DejaVuSans-69"/>
      <use x="453.710938" xlink:href="#DejaVuSans-6e"/>
      <use x="517.089844" xlink:href="#DejaVuSans-67"/>
      <use x="580.566406" xlink:href="#DejaVuSans-64"/>
      <use x="644.042969" xlink:href="#DejaVuSans-6f"/>
      <use x="705.224609" xlink:href="#DejaVuSans-6d"/>
     </g>
    </g>
    <g id="line2d_31">
     <path d="M 1065.97 76.39125 
L 1081.97 76.39125 
" style="fill:none;stroke:#a4a86f;stroke-linecap:square;stroke-width:2;"/>
    </g>
    <g id="line2d_32"/>
    <g id="text_22">
     <!-- Oceania -->
     <g transform="translate(1088.37 79.19125)scale(0.08 -0.08)">
      <defs>
       <path d="M 2522 4238 
Q 1834 4238 1429 3725 
Q 1025 3213 1025 2328 
Q 1025 1447 1429 934 
Q 1834 422 2522 422 
Q 3209 422 3611 934 
Q 4013 1447 4013 2328 
Q 4013 3213 3611 3725 
Q 3209 4238 2522 4238 
z
M 2522 4750 
Q 3503 4750 4090 4092 
Q 4678 3434 4678 2328 
Q 4678 1225 4090 567 
Q 3503 -91 2522 -91 
Q 1538 -91 948 565 
Q 359 1222 359 2328 
Q 359 3434 948 4092 
Q 1538 4750 2522 4750 
z
" id="DejaVuSans-4f" transform="scale(0.015625)"/>
      </defs>
      <use xlink:href="#DejaVuSans-4f"/>
      <use x="78.710938" xlink:href="#DejaVuSans-63"/>
      <use x="133.691406" xlink:href="#DejaVuSans-65"/>
      <use x="195.214844" xlink:href="#DejaVuSans-61"/>
      <use x="256.494141" xlink:href="#DejaVuSans-6e"/>
      <use x="319.873047" xlink:href="#DejaVuSans-69"/>
      <use x="347.65625" xlink:href="#DejaVuSans-61"/>
     </g>
    </g>
   </g>
  </g>
 </g>
 <defs>
  <clipPath id="p2ec84a2422">
   <rect height="221.76" width="1116" x="43.78125" y="7.2"/>
  </clipPath>
 </defs>
</svg>
