<?xml version="1.0" encoding="utf-8" standalone="no"?>
<!DOCTYPE svg PUBLIC "-//W3C//DTD SVG 1.1//EN"
  "http://www.w3.org/Graphics/SVG/1.1/DTD/svg11.dtd">
<svg xmlns:xlink="http://www.w3.org/1999/xlink" width="1166.98125pt" height="298.620937pt" viewBox="0 0 1166.98125 298.620937" xmlns="http://www.w3.org/2000/svg" version="1.1">
 <metadata>
  <rdf:RDF xmlns:dc="http://purl.org/dc/elements/1.1/" xmlns:cc="http://creativecommons.org/ns#" xmlns:rdf="http://www.w3.org/1999/02/22-rdf-syntax-ns#">
   <cc:Work>
    <dc:type rdf:resource="http://purl.org/dc/dcmitype/StillImage"/>
    <dc:date>2022-03-29T05:45:00.182956</dc:date>
    <dc:format>image/svg+xml</dc:format>
    <dc:creator>
     <cc:Agent>
      <dc:title>Matplotlib v3.5.1, https://matplotlib.org/</dc:title>
     </cc:Agent>
    </dc:creator>
   </cc:Work>
  </rdf:RDF>
 </metadata>
 <defs>
  <style type="text/css">*{stroke-linejoin: round; stroke-linecap: butt}</style>
 </defs>
 <g id="figure_1">
  <g id="patch_1">
   <path d="M 0 298.620937 
L 1166.98125 298.620937 
L 1166.98125 0 
L 0 0 
z
" style="fill: #ffffff"/>
  </g>
  <g id="axes_1">
   <g id="patch_2">
    <path d="M 43.78125 228.96 
L 1159.78125 228.96 
L 1159.78125 7.2 
L 43.78125 7.2 
z
" style="fill: #ffffff"/>
   </g>
   <g id="matplotlib.axis_1">
    <g id="xtick_1">
     <g id="line2d_1">
      <defs>
       <path id="ma315f9b668" d="M 0 0 
L 0 3.5 
" style="stroke: #000000; stroke-width: 0.8"/>
      </defs>
      <g>
       <use xlink:href="#ma315f9b668" x="86.807988" y="228.96" style="stroke: #000000; stroke-width: 0.8"/>
      </g>
     </g>
     <g id="text_1">
      <!-- 2020-09 -->
      <g transform="translate(89.567363 277.742812)rotate(-90)scale(0.1 -0.1)">
       <defs>
        <path id="DejaVuSans-32" d="M 1228 531 
L 3431 531 
L 3431 0 
L 469 0 
L 469 531 
Q 828 903 1448 1529 
Q 2069 2156 2228 2338 
Q 2531 2678 2651 2914 
Q 2772 3150 2772 3378 
Q 2772 3750 2511 3984 
Q 2250 4219 1831 4219 
Q 1534 4219 1204 4116 
Q 875 4013 500 3803 
L 500 4441 
Q 881 4594 1212 4672 
Q 1544 4750 1819 4750 
Q 2544 4750 2975 4387 
Q 3406 4025 3406 3419 
Q 3406 3131 3298 2873 
Q 3191 2616 2906 2266 
Q 2828 2175 2409 1742 
Q 1991 1309 1228 531 
z
" transform="scale(0.015625)"/>
        <path id="DejaVuSans-30" d="M 2034 4250 
Q 1547 4250 1301 3770 
Q 1056 3291 1056 2328 
Q 1056 1369 1301 889 
Q 1547 409 2034 409 
Q 2525 409 2770 889 
Q 3016 1369 3016 2328 
Q 3016 3291 2770 3770 
Q 2525 4250 2034 4250 
z
M 2034 4750 
Q 2819 4750 3233 4129 
Q 3647 3509 3647 2328 
Q 3647 1150 3233 529 
Q 2819 -91 2034 -91 
Q 1250 -91 836 529 
Q 422 1150 422 2328 
Q 422 3509 836 4129 
Q 1250 4750 2034 4750 
z
" transform="scale(0.015625)"/>
        <path id="DejaVuSans-2d" d="M 313 2009 
L 1997 2009 
L 1997 1497 
L 313 1497 
L 313 2009 
z
" transform="scale(0.015625)"/>
        <path id="DejaVuSans-39" d="M 703 97 
L 703 672 
Q 941 559 1184 500 
Q 1428 441 1663 441 
Q 2288 441 2617 861 
Q 2947 1281 2994 2138 
Q 2813 1869 2534 1725 
Q 2256 1581 1919 1581 
Q 1219 1581 811 2004 
Q 403 2428 403 3163 
Q 403 3881 828 4315 
Q 1253 4750 1959 4750 
Q 2769 4750 3195 4129 
Q 3622 3509 3622 2328 
Q 3622 1225 3098 567 
Q 2575 -91 1691 -91 
Q 1453 -91 1209 -44 
Q 966 3 703 97 
z
M 1959 2075 
Q 2384 2075 2632 2365 
Q 2881 2656 2881 3163 
Q 2881 3666 2632 3958 
Q 2384 4250 1959 4250 
Q 1534 4250 1286 3958 
Q 1038 3666 1038 3163 
Q 1038 2656 1286 2365 
Q 1534 2075 1959 2075 
z
" transform="scale(0.015625)"/>
       </defs>
       <use xlink:href="#DejaVuSans-32"/>
       <use xlink:href="#DejaVuSans-30" x="63.623047"/>
       <use xlink:href="#DejaVuSans-32" x="127.246094"/>
       <use xlink:href="#DejaVuSans-30" x="190.869141"/>
       <use xlink:href="#DejaVuSans-2d" x="254.492188"/>
       <use xlink:href="#DejaVuSans-30" x="290.576172"/>
       <use xlink:href="#DejaVuSans-39" x="354.199219"/>
      </g>
     </g>
    </g>
    <g id="xtick_2">
     <g id="line2d_2">
      <g>
       <use xlink:href="#ma315f9b668" x="204.241143" y="228.96" style="stroke: #000000; stroke-width: 0.8"/>
      </g>
     </g>
     <g id="text_2">
      <!-- 2020-11 -->
      <g transform="translate(207.000518 277.742812)rotate(-90)scale(0.1 -0.1)">
       <defs>
        <path id="DejaVuSans-31" d="M 794 531 
L 1825 531 
L 1825 4091 
L 703 3866 
L 703 4441 
L 1819 4666 
L 2450 4666 
L 2450 531 
L 3481 531 
L 3481 0 
L 794 0 
L 794 531 
z
" transform="scale(0.015625)"/>
       </defs>
       <use xlink:href="#DejaVuSans-32"/>
       <use xlink:href="#DejaVuSans-30" x="63.623047"/>
       <use xlink:href="#DejaVuSans-32" x="127.246094"/>
       <use xlink:href="#DejaVuSans-30" x="190.869141"/>
       <use xlink:href="#DejaVuSans-2d" x="254.492188"/>
       <use xlink:href="#DejaVuSans-31" x="290.576172"/>
       <use xlink:href="#DejaVuSans-31" x="354.199219"/>
      </g>
     </g>
    </g>
    <g id="xtick_3">
     <g id="line2d_3">
      <g>
       <use xlink:href="#ma315f9b668" x="321.674298" y="228.96" style="stroke: #000000; stroke-width: 0.8"/>
      </g>
     </g>
     <g id="text_3">
      <!-- 2021-01 -->
      <g transform="translate(324.433673 277.742812)rotate(-90)scale(0.1 -0.1)">
       <use xlink:href="#DejaVuSans-32"/>
       <use xlink:href="#DejaVuSans-30" x="63.623047"/>
       <use xlink:href="#DejaVuSans-32" x="127.246094"/>
       <use xlink:href="#DejaVuSans-31" x="190.869141"/>
       <use xlink:href="#DejaVuSans-2d" x="254.492188"/>
       <use xlink:href="#DejaVuSans-30" x="290.576172"/>
       <use xlink:href="#DejaVuSans-31" x="354.199219"/>
      </g>
     </g>
    </g>
    <g id="xtick_4">
     <g id="line2d_4">
      <g>
       <use xlink:href="#ma315f9b668" x="435.257186" y="228.96" style="stroke: #000000; stroke-width: 0.8"/>
      </g>
     </g>
     <g id="text_4">
      <!-- 2021-03 -->
      <g transform="translate(438.016561 277.742812)rotate(-90)scale(0.1 -0.1)">
       <defs>
        <path id="DejaVuSans-33" d="M 2597 2516 
Q 3050 2419 3304 2112 
Q 3559 1806 3559 1356 
Q 3559 666 3084 287 
Q 2609 -91 1734 -91 
Q 1441 -91 1130 -33 
Q 819 25 488 141 
L 488 750 
Q 750 597 1062 519 
Q 1375 441 1716 441 
Q 2309 441 2620 675 
Q 2931 909 2931 1356 
Q 2931 1769 2642 2001 
Q 2353 2234 1838 2234 
L 1294 2234 
L 1294 2753 
L 1863 2753 
Q 2328 2753 2575 2939 
Q 2822 3125 2822 3475 
Q 2822 3834 2567 4026 
Q 2313 4219 1838 4219 
Q 1578 4219 1281 4162 
Q 984 4106 628 3988 
L 628 4550 
Q 988 4650 1302 4700 
Q 1616 4750 1894 4750 
Q 2613 4750 3031 4423 
Q 3450 4097 3450 3541 
Q 3450 3153 3228 2886 
Q 3006 2619 2597 2516 
z
" transform="scale(0.015625)"/>
       </defs>
       <use xlink:href="#DejaVuSans-32"/>
       <use xlink:href="#DejaVuSans-30" x="63.623047"/>
       <use xlink:href="#DejaVuSans-32" x="127.246094"/>
       <use xlink:href="#DejaVuSans-31" x="190.869141"/>
       <use xlink:href="#DejaVuSans-2d" x="254.492188"/>
       <use xlink:href="#DejaVuSans-30" x="290.576172"/>
       <use xlink:href="#DejaVuSans-33" x="354.199219"/>
      </g>
     </g>
    </g>
    <g id="xtick_5">
     <g id="line2d_5">
      <g>
       <use xlink:href="#ma315f9b668" x="552.690341" y="228.96" style="stroke: #000000; stroke-width: 0.8"/>
      </g>
     </g>
     <g id="text_5">
      <!-- 2021-05 -->
      <g transform="translate(555.449716 277.742812)rotate(-90)scale(0.1 -0.1)">
       <defs>
        <path id="DejaVuSans-35" d="M 691 4666 
L 3169 4666 
L 3169 4134 
L 1269 4134 
L 1269 2991 
Q 1406 3038 1543 3061 
Q 1681 3084 1819 3084 
Q 2600 3084 3056 2656 
Q 3513 2228 3513 1497 
Q 3513 744 3044 326 
Q 2575 -91 1722 -91 
Q 1428 -91 1123 -41 
Q 819 9 494 109 
L 494 744 
Q 775 591 1075 516 
Q 1375 441 1709 441 
Q 2250 441 2565 725 
Q 2881 1009 2881 1497 
Q 2881 1984 2565 2268 
Q 2250 2553 1709 2553 
Q 1456 2553 1204 2497 
Q 953 2441 691 2322 
L 691 4666 
z
" transform="scale(0.015625)"/>
       </defs>
       <use xlink:href="#DejaVuSans-32"/>
       <use xlink:href="#DejaVuSans-30" x="63.623047"/>
       <use xlink:href="#DejaVuSans-32" x="127.246094"/>
       <use xlink:href="#DejaVuSans-31" x="190.869141"/>
       <use xlink:href="#DejaVuSans-2d" x="254.492188"/>
       <use xlink:href="#DejaVuSans-30" x="290.576172"/>
       <use xlink:href="#DejaVuSans-35" x="354.199219"/>
      </g>
     </g>
    </g>
    <g id="xtick_6">
     <g id="line2d_6">
      <g>
       <use xlink:href="#ma315f9b668" x="670.123496" y="228.96" style="stroke: #000000; stroke-width: 0.8"/>
      </g>
     </g>
     <g id="text_6">
      <!-- 2021-07 -->
      <g transform="translate(672.882871 277.742812)rotate(-90)scale(0.1 -0.1)">
       <defs>
        <path id="DejaVuSans-37" d="M 525 4666 
L 3525 4666 
L 3525 4397 
L 1831 0 
L 1172 0 
L 2766 4134 
L 525 4134 
L 525 4666 
z
" transform="scale(0.015625)"/>
       </defs>
       <use xlink:href="#DejaVuSans-32"/>
       <use xlink:href="#DejaVuSans-30" x="63.623047"/>
       <use xlink:href="#DejaVuSans-32" x="127.246094"/>
       <use xlink:href="#DejaVuSans-31" x="190.869141"/>
       <use xlink:href="#DejaVuSans-2d" x="254.492188"/>
       <use xlink:href="#DejaVuSans-30" x="290.576172"/>
       <use xlink:href="#DejaVuSans-37" x="354.199219"/>
      </g>
     </g>
    </g>
    <g id="xtick_7">
     <g id="line2d_7">
      <g>
       <use xlink:href="#ma315f9b668" x="789.481785" y="228.96" style="stroke: #000000; stroke-width: 0.8"/>
      </g>
     </g>
     <g id="text_7">
      <!-- 2021-09 -->
      <g transform="translate(792.24116 277.742812)rotate(-90)scale(0.1 -0.1)">
       <use xlink:href="#DejaVuSans-32"/>
       <use xlink:href="#DejaVuSans-30" x="63.623047"/>
       <use xlink:href="#DejaVuSans-32" x="127.246094"/>
       <use xlink:href="#DejaVuSans-31" x="190.869141"/>
       <use xlink:href="#DejaVuSans-2d" x="254.492188"/>
       <use xlink:href="#DejaVuSans-30" x="290.576172"/>
       <use xlink:href="#DejaVuSans-39" x="354.199219"/>
      </g>
     </g>
    </g>
    <g id="xtick_8">
     <g id="line2d_8">
      <g>
       <use xlink:href="#ma315f9b668" x="906.91494" y="228.96" style="stroke: #000000; stroke-width: 0.8"/>
      </g>
     </g>
     <g id="text_8">
      <!-- 2021-11 -->
      <g transform="translate(909.674315 277.742812)rotate(-90)scale(0.1 -0.1)">
       <use xlink:href="#DejaVuSans-32"/>
       <use xlink:href="#DejaVuSans-30" x="63.623047"/>
       <use xlink:href="#DejaVuSans-32" x="127.246094"/>
       <use xlink:href="#DejaVuSans-31" x="190.869141"/>
       <use xlink:href="#DejaVuSans-2d" x="254.492188"/>
       <use xlink:href="#DejaVuSans-31" x="290.576172"/>
       <use xlink:href="#DejaVuSans-31" x="354.199219"/>
      </g>
     </g>
    </g>
    <g id="xtick_9">
     <g id="line2d_9">
      <g>
       <use xlink:href="#ma315f9b668" x="1024.348095" y="228.96" style="stroke: #000000; stroke-width: 0.8"/>
      </g>
     </g>
     <g id="text_9">
      <!-- 2022-01 -->
      <g transform="translate(1027.10747 277.742812)rotate(-90)scale(0.1 -0.1)">
       <use xlink:href="#DejaVuSans-32"/>
       <use xlink:href="#DejaVuSans-30" x="63.623047"/>
       <use xlink:href="#DejaVuSans-32" x="127.246094"/>
       <use xlink:href="#DejaVuSans-32" x="190.869141"/>
       <use xlink:href="#DejaVuSans-2d" x="254.492188"/>
       <use xlink:href="#DejaVuSans-30" x="290.576172"/>
       <use xlink:href="#DejaVuSans-31" x="354.199219"/>
      </g>
     </g>
    </g>
    <g id="xtick_10">
     <g id="line2d_10">
      <g>
       <use xlink:href="#ma315f9b668" x="1137.930983" y="228.96" style="stroke: #000000; stroke-width: 0.8"/>
      </g>
     </g>
     <g id="text_10">
      <!-- 2022-03 -->
      <g transform="translate(1140.690358 277.742812)rotate(-90)scale(0.1 -0.1)">
       <use xlink:href="#DejaVuSans-32"/>
       <use xlink:href="#DejaVuSans-30" x="63.623047"/>
       <use xlink:href="#DejaVuSans-32" x="127.246094"/>
       <use xlink:href="#DejaVuSans-32" x="190.869141"/>
       <use xlink:href="#DejaVuSans-2d" x="254.492188"/>
       <use xlink:href="#DejaVuSans-30" x="290.576172"/>
       <use xlink:href="#DejaVuSans-33" x="354.199219"/>
      </g>
     </g>
    </g>
    <g id="text_11">
     <!-- Date -->
     <g transform="translate(589.830469 289.34125)scale(0.1 -0.1)">
      <defs>
       <path id="DejaVuSans-44" d="M 1259 4147 
L 1259 519 
L 2022 519 
Q 2988 519 3436 956 
Q 3884 1394 3884 2338 
Q 3884 3275 3436 3711 
Q 2988 4147 2022 4147 
L 1259 4147 
z
M 628 4666 
L 1925 4666 
Q 3281 4666 3915 4102 
Q 4550 3538 4550 2338 
Q 4550 1131 3912 565 
Q 3275 0 1925 0 
L 628 0 
L 628 4666 
z
" transform="scale(0.015625)"/>
       <path id="DejaVuSans-61" d="M 2194 1759 
Q 1497 1759 1228 1600 
Q 959 1441 959 1056 
Q 959 750 1161 570 
Q 1363 391 1709 391 
Q 2188 391 2477 730 
Q 2766 1069 2766 1631 
L 2766 1759 
L 2194 1759 
z
M 3341 1997 
L 3341 0 
L 2766 0 
L 2766 531 
Q 2569 213 2275 61 
Q 1981 -91 1556 -91 
Q 1019 -91 701 211 
Q 384 513 384 1019 
Q 384 1609 779 1909 
Q 1175 2209 1959 2209 
L 2766 2209 
L 2766 2266 
Q 2766 2663 2505 2880 
Q 2244 3097 1772 3097 
Q 1472 3097 1187 3025 
Q 903 2953 641 2809 
L 641 3341 
Q 956 3463 1253 3523 
Q 1550 3584 1831 3584 
Q 2591 3584 2966 3190 
Q 3341 2797 3341 1997 
z
" transform="scale(0.015625)"/>
       <path id="DejaVuSans-74" d="M 1172 4494 
L 1172 3500 
L 2356 3500 
L 2356 3053 
L 1172 3053 
L 1172 1153 
Q 1172 725 1289 603 
Q 1406 481 1766 481 
L 2356 481 
L 2356 0 
L 1766 0 
Q 1100 0 847 248 
Q 594 497 594 1153 
L 594 3053 
L 172 3053 
L 172 3500 
L 594 3500 
L 594 4494 
L 1172 4494 
z
" transform="scale(0.015625)"/>
       <path id="DejaVuSans-65" d="M 3597 1894 
L 3597 1613 
L 953 1613 
Q 991 1019 1311 708 
Q 1631 397 2203 397 
Q 2534 397 2845 478 
Q 3156 559 3463 722 
L 3463 178 
Q 3153 47 2828 -22 
Q 2503 -91 2169 -91 
Q 1331 -91 842 396 
Q 353 884 353 1716 
Q 353 2575 817 3079 
Q 1281 3584 2069 3584 
Q 2775 3584 3186 3129 
Q 3597 2675 3597 1894 
z
M 3022 2063 
Q 3016 2534 2758 2815 
Q 2500 3097 2075 3097 
Q 1594 3097 1305 2825 
Q 1016 2553 972 2059 
L 3022 2063 
z
" transform="scale(0.015625)"/>
      </defs>
      <use xlink:href="#DejaVuSans-44"/>
      <use xlink:href="#DejaVuSans-61" x="77.001953"/>
      <use xlink:href="#DejaVuSans-74" x="138.28125"/>
      <use xlink:href="#DejaVuSans-65" x="177.490234"/>
     </g>
    </g>
   </g>
   <g id="matplotlib.axis_2">
    <g id="ytick_1">
     <g id="line2d_11">
      <defs>
       <path id="m19c84c1d84" d="M 0 0 
L -3.5 0 
" style="stroke: #000000; stroke-width: 0.8"/>
      </defs>
      <g>
       <use xlink:href="#m19c84c1d84" x="43.78125" y="228.96" style="stroke: #000000; stroke-width: 0.8"/>
      </g>
     </g>
     <g id="text_12">
      <!-- 0.0 -->
      <g transform="translate(20.878125 232.759219)scale(0.1 -0.1)">
       <defs>
        <path id="DejaVuSans-2e" d="M 684 794 
L 1344 794 
L 1344 0 
L 684 0 
L 684 794 
z
" transform="scale(0.015625)"/>
       </defs>
       <use xlink:href="#DejaVuSans-30"/>
       <use xlink:href="#DejaVuSans-2e" x="63.623047"/>
       <use xlink:href="#DejaVuSans-30" x="95.410156"/>
      </g>
     </g>
    </g>
    <g id="ytick_2">
     <g id="line2d_12">
      <g>
       <use xlink:href="#m19c84c1d84" x="43.78125" y="182.436588" style="stroke: #000000; stroke-width: 0.8"/>
      </g>
     </g>
     <g id="text_13">
      <!-- 0.2 -->
      <g transform="translate(20.878125 186.235806)scale(0.1 -0.1)">
       <use xlink:href="#DejaVuSans-30"/>
       <use xlink:href="#DejaVuSans-2e" x="63.623047"/>
       <use xlink:href="#DejaVuSans-32" x="95.410156"/>
      </g>
     </g>
    </g>
    <g id="ytick_3">
     <g id="line2d_13">
      <g>
       <use xlink:href="#m19c84c1d84" x="43.78125" y="135.913175" style="stroke: #000000; stroke-width: 0.8"/>
      </g>
     </g>
     <g id="text_14">
      <!-- 0.4 -->
      <g transform="translate(20.878125 139.712394)scale(0.1 -0.1)">
       <defs>
        <path id="DejaVuSans-34" d="M 2419 4116 
L 825 1625 
L 2419 1625 
L 2419 4116 
z
M 2253 4666 
L 3047 4666 
L 3047 1625 
L 3713 1625 
L 3713 1100 
L 3047 1100 
L 3047 0 
L 2419 0 
L 2419 1100 
L 313 1100 
L 313 1709 
L 2253 4666 
z
" transform="scale(0.015625)"/>
       </defs>
       <use xlink:href="#DejaVuSans-30"/>
       <use xlink:href="#DejaVuSans-2e" x="63.623047"/>
       <use xlink:href="#DejaVuSans-34" x="95.410156"/>
      </g>
     </g>
    </g>
    <g id="ytick_4">
     <g id="line2d_14">
      <g>
       <use xlink:href="#m19c84c1d84" x="43.78125" y="89.389763" style="stroke: #000000; stroke-width: 0.8"/>
      </g>
     </g>
     <g id="text_15">
      <!-- 0.6 -->
      <g transform="translate(20.878125 93.188982)scale(0.1 -0.1)">
       <defs>
        <path id="DejaVuSans-36" d="M 2113 2584 
Q 1688 2584 1439 2293 
Q 1191 2003 1191 1497 
Q 1191 994 1439 701 
Q 1688 409 2113 409 
Q 2538 409 2786 701 
Q 3034 994 3034 1497 
Q 3034 2003 2786 2293 
Q 2538 2584 2113 2584 
z
M 3366 4563 
L 3366 3988 
Q 3128 4100 2886 4159 
Q 2644 4219 2406 4219 
Q 1781 4219 1451 3797 
Q 1122 3375 1075 2522 
Q 1259 2794 1537 2939 
Q 1816 3084 2150 3084 
Q 2853 3084 3261 2657 
Q 3669 2231 3669 1497 
Q 3669 778 3244 343 
Q 2819 -91 2113 -91 
Q 1303 -91 875 529 
Q 447 1150 447 2328 
Q 447 3434 972 4092 
Q 1497 4750 2381 4750 
Q 2619 4750 2861 4703 
Q 3103 4656 3366 4563 
z
" transform="scale(0.015625)"/>
       </defs>
       <use xlink:href="#DejaVuSans-30"/>
       <use xlink:href="#DejaVuSans-2e" x="63.623047"/>
       <use xlink:href="#DejaVuSans-36" x="95.410156"/>
      </g>
     </g>
    </g>
    <g id="ytick_5">
     <g id="line2d_15">
      <g>
       <use xlink:href="#m19c84c1d84" x="43.78125" y="42.866351" style="stroke: #000000; stroke-width: 0.8"/>
      </g>
     </g>
     <g id="text_16">
      <!-- 0.8 -->
      <g transform="translate(20.878125 46.66557)scale(0.1 -0.1)">
       <defs>
        <path id="DejaVuSans-38" d="M 2034 2216 
Q 1584 2216 1326 1975 
Q 1069 1734 1069 1313 
Q 1069 891 1326 650 
Q 1584 409 2034 409 
Q 2484 409 2743 651 
Q 3003 894 3003 1313 
Q 3003 1734 2745 1975 
Q 2488 2216 2034 2216 
z
M 1403 2484 
Q 997 2584 770 2862 
Q 544 3141 544 3541 
Q 544 4100 942 4425 
Q 1341 4750 2034 4750 
Q 2731 4750 3128 4425 
Q 3525 4100 3525 3541 
Q 3525 3141 3298 2862 
Q 3072 2584 2669 2484 
Q 3125 2378 3379 2068 
Q 3634 1759 3634 1313 
Q 3634 634 3220 271 
Q 2806 -91 2034 -91 
Q 1263 -91 848 271 
Q 434 634 434 1313 
Q 434 1759 690 2068 
Q 947 2378 1403 2484 
z
M 1172 3481 
Q 1172 3119 1398 2916 
Q 1625 2713 2034 2713 
Q 2441 2713 2670 2916 
Q 2900 3119 2900 3481 
Q 2900 3844 2670 4047 
Q 2441 4250 2034 4250 
Q 1625 4250 1398 4047 
Q 1172 3844 1172 3481 
z
" transform="scale(0.015625)"/>
       </defs>
       <use xlink:href="#DejaVuSans-30"/>
       <use xlink:href="#DejaVuSans-2e" x="63.623047"/>
       <use xlink:href="#DejaVuSans-38" x="95.410156"/>
      </g>
     </g>
    </g>
    <g id="text_17">
     <!-- Frequency (7 day rolling average) -->
     <g transform="translate(14.798437 202.529219)rotate(-90)scale(0.1 -0.1)">
      <defs>
       <path id="DejaVuSans-46" d="M 628 4666 
L 3309 4666 
L 3309 4134 
L 1259 4134 
L 1259 2759 
L 3109 2759 
L 3109 2228 
L 1259 2228 
L 1259 0 
L 628 0 
L 628 4666 
z
" transform="scale(0.015625)"/>
       <path id="DejaVuSans-72" d="M 2631 2963 
Q 2534 3019 2420 3045 
Q 2306 3072 2169 3072 
Q 1681 3072 1420 2755 
Q 1159 2438 1159 1844 
L 1159 0 
L 581 0 
L 581 3500 
L 1159 3500 
L 1159 2956 
Q 1341 3275 1631 3429 
Q 1922 3584 2338 3584 
Q 2397 3584 2469 3576 
Q 2541 3569 2628 3553 
L 2631 2963 
z
" transform="scale(0.015625)"/>
       <path id="DejaVuSans-71" d="M 947 1747 
Q 947 1113 1208 752 
Q 1469 391 1925 391 
Q 2381 391 2643 752 
Q 2906 1113 2906 1747 
Q 2906 2381 2643 2742 
Q 2381 3103 1925 3103 
Q 1469 3103 1208 2742 
Q 947 2381 947 1747 
z
M 2906 525 
Q 2725 213 2448 61 
Q 2172 -91 1784 -91 
Q 1150 -91 751 415 
Q 353 922 353 1747 
Q 353 2572 751 3078 
Q 1150 3584 1784 3584 
Q 2172 3584 2448 3432 
Q 2725 3281 2906 2969 
L 2906 3500 
L 3481 3500 
L 3481 -1331 
L 2906 -1331 
L 2906 525 
z
" transform="scale(0.015625)"/>
       <path id="DejaVuSans-75" d="M 544 1381 
L 544 3500 
L 1119 3500 
L 1119 1403 
Q 1119 906 1312 657 
Q 1506 409 1894 409 
Q 2359 409 2629 706 
Q 2900 1003 2900 1516 
L 2900 3500 
L 3475 3500 
L 3475 0 
L 2900 0 
L 2900 538 
Q 2691 219 2414 64 
Q 2138 -91 1772 -91 
Q 1169 -91 856 284 
Q 544 659 544 1381 
z
M 1991 3584 
L 1991 3584 
z
" transform="scale(0.015625)"/>
       <path id="DejaVuSans-6e" d="M 3513 2113 
L 3513 0 
L 2938 0 
L 2938 2094 
Q 2938 2591 2744 2837 
Q 2550 3084 2163 3084 
Q 1697 3084 1428 2787 
Q 1159 2491 1159 1978 
L 1159 0 
L 581 0 
L 581 3500 
L 1159 3500 
L 1159 2956 
Q 1366 3272 1645 3428 
Q 1925 3584 2291 3584 
Q 2894 3584 3203 3211 
Q 3513 2838 3513 2113 
z
" transform="scale(0.015625)"/>
       <path id="DejaVuSans-63" d="M 3122 3366 
L 3122 2828 
Q 2878 2963 2633 3030 
Q 2388 3097 2138 3097 
Q 1578 3097 1268 2742 
Q 959 2388 959 1747 
Q 959 1106 1268 751 
Q 1578 397 2138 397 
Q 2388 397 2633 464 
Q 2878 531 3122 666 
L 3122 134 
Q 2881 22 2623 -34 
Q 2366 -91 2075 -91 
Q 1284 -91 818 406 
Q 353 903 353 1747 
Q 353 2603 823 3093 
Q 1294 3584 2113 3584 
Q 2378 3584 2631 3529 
Q 2884 3475 3122 3366 
z
" transform="scale(0.015625)"/>
       <path id="DejaVuSans-79" d="M 2059 -325 
Q 1816 -950 1584 -1140 
Q 1353 -1331 966 -1331 
L 506 -1331 
L 506 -850 
L 844 -850 
Q 1081 -850 1212 -737 
Q 1344 -625 1503 -206 
L 1606 56 
L 191 3500 
L 800 3500 
L 1894 763 
L 2988 3500 
L 3597 3500 
L 2059 -325 
z
" transform="scale(0.015625)"/>
       <path id="DejaVuSans-20" transform="scale(0.015625)"/>
       <path id="DejaVuSans-28" d="M 1984 4856 
Q 1566 4138 1362 3434 
Q 1159 2731 1159 2009 
Q 1159 1288 1364 580 
Q 1569 -128 1984 -844 
L 1484 -844 
Q 1016 -109 783 600 
Q 550 1309 550 2009 
Q 550 2706 781 3412 
Q 1013 4119 1484 4856 
L 1984 4856 
z
" transform="scale(0.015625)"/>
       <path id="DejaVuSans-64" d="M 2906 2969 
L 2906 4863 
L 3481 4863 
L 3481 0 
L 2906 0 
L 2906 525 
Q 2725 213 2448 61 
Q 2172 -91 1784 -91 
Q 1150 -91 751 415 
Q 353 922 353 1747 
Q 353 2572 751 3078 
Q 1150 3584 1784 3584 
Q 2172 3584 2448 3432 
Q 2725 3281 2906 2969 
z
M 947 1747 
Q 947 1113 1208 752 
Q 1469 391 1925 391 
Q 2381 391 2643 752 
Q 2906 1113 2906 1747 
Q 2906 2381 2643 2742 
Q 2381 3103 1925 3103 
Q 1469 3103 1208 2742 
Q 947 2381 947 1747 
z
" transform="scale(0.015625)"/>
       <path id="DejaVuSans-6f" d="M 1959 3097 
Q 1497 3097 1228 2736 
Q 959 2375 959 1747 
Q 959 1119 1226 758 
Q 1494 397 1959 397 
Q 2419 397 2687 759 
Q 2956 1122 2956 1747 
Q 2956 2369 2687 2733 
Q 2419 3097 1959 3097 
z
M 1959 3584 
Q 2709 3584 3137 3096 
Q 3566 2609 3566 1747 
Q 3566 888 3137 398 
Q 2709 -91 1959 -91 
Q 1206 -91 779 398 
Q 353 888 353 1747 
Q 353 2609 779 3096 
Q 1206 3584 1959 3584 
z
" transform="scale(0.015625)"/>
       <path id="DejaVuSans-6c" d="M 603 4863 
L 1178 4863 
L 1178 0 
L 603 0 
L 603 4863 
z
" transform="scale(0.015625)"/>
       <path id="DejaVuSans-69" d="M 603 3500 
L 1178 3500 
L 1178 0 
L 603 0 
L 603 3500 
z
M 603 4863 
L 1178 4863 
L 1178 4134 
L 603 4134 
L 603 4863 
z
" transform="scale(0.015625)"/>
       <path id="DejaVuSans-67" d="M 2906 1791 
Q 2906 2416 2648 2759 
Q 2391 3103 1925 3103 
Q 1463 3103 1205 2759 
Q 947 2416 947 1791 
Q 947 1169 1205 825 
Q 1463 481 1925 481 
Q 2391 481 2648 825 
Q 2906 1169 2906 1791 
z
M 3481 434 
Q 3481 -459 3084 -895 
Q 2688 -1331 1869 -1331 
Q 1566 -1331 1297 -1286 
Q 1028 -1241 775 -1147 
L 775 -588 
Q 1028 -725 1275 -790 
Q 1522 -856 1778 -856 
Q 2344 -856 2625 -561 
Q 2906 -266 2906 331 
L 2906 616 
Q 2728 306 2450 153 
Q 2172 0 1784 0 
Q 1141 0 747 490 
Q 353 981 353 1791 
Q 353 2603 747 3093 
Q 1141 3584 1784 3584 
Q 2172 3584 2450 3431 
Q 2728 3278 2906 2969 
L 2906 3500 
L 3481 3500 
L 3481 434 
z
" transform="scale(0.015625)"/>
       <path id="DejaVuSans-76" d="M 191 3500 
L 800 3500 
L 1894 563 
L 2988 3500 
L 3597 3500 
L 2284 0 
L 1503 0 
L 191 3500 
z
" transform="scale(0.015625)"/>
       <path id="DejaVuSans-29" d="M 513 4856 
L 1013 4856 
Q 1481 4119 1714 3412 
Q 1947 2706 1947 2009 
Q 1947 1309 1714 600 
Q 1481 -109 1013 -844 
L 513 -844 
Q 928 -128 1133 580 
Q 1338 1288 1338 2009 
Q 1338 2731 1133 3434 
Q 928 4138 513 4856 
z
" transform="scale(0.015625)"/>
      </defs>
      <use xlink:href="#DejaVuSans-46"/>
      <use xlink:href="#DejaVuSans-72" x="50.269531"/>
      <use xlink:href="#DejaVuSans-65" x="89.132812"/>
      <use xlink:href="#DejaVuSans-71" x="150.65625"/>
      <use xlink:href="#DejaVuSans-75" x="214.132812"/>
      <use xlink:href="#DejaVuSans-65" x="277.511719"/>
      <use xlink:href="#DejaVuSans-6e" x="339.035156"/>
      <use xlink:href="#DejaVuSans-63" x="402.414062"/>
      <use xlink:href="#DejaVuSans-79" x="457.394531"/>
      <use xlink:href="#DejaVuSans-20" x="516.574219"/>
      <use xlink:href="#DejaVuSans-28" x="548.361328"/>
      <use xlink:href="#DejaVuSans-37" x="587.375"/>
      <use xlink:href="#DejaVuSans-20" x="650.998047"/>
      <use xlink:href="#DejaVuSans-64" x="682.785156"/>
      <use xlink:href="#DejaVuSans-61" x="746.261719"/>
      <use xlink:href="#DejaVuSans-79" x="807.541016"/>
      <use xlink:href="#DejaVuSans-20" x="866.720703"/>
      <use xlink:href="#DejaVuSans-72" x="898.507812"/>
      <use xlink:href="#DejaVuSans-6f" x="937.371094"/>
      <use xlink:href="#DejaVuSans-6c" x="998.552734"/>
      <use xlink:href="#DejaVuSans-6c" x="1026.335938"/>
      <use xlink:href="#DejaVuSans-69" x="1054.119141"/>
      <use xlink:href="#DejaVuSans-6e" x="1081.902344"/>
      <use xlink:href="#DejaVuSans-67" x="1145.28125"/>
      <use xlink:href="#DejaVuSans-20" x="1208.757812"/>
      <use xlink:href="#DejaVuSans-61" x="1240.544922"/>
      <use xlink:href="#DejaVuSans-76" x="1301.824219"/>
      <use xlink:href="#DejaVuSans-65" x="1361.003906"/>
      <use xlink:href="#DejaVuSans-72" x="1422.527344"/>
      <use xlink:href="#DejaVuSans-61" x="1463.640625"/>
      <use xlink:href="#DejaVuSans-67" x="1524.919922"/>
      <use xlink:href="#DejaVuSans-65" x="1588.396484"/>
      <use xlink:href="#DejaVuSans-29" x="1649.919922"/>
     </g>
    </g>
   </g>
   <g id="line2d_16">
    <path d="M 304.348095 227.811924 
L 306.273229 227.511047 
L 308.198362 226.976295 
L 310.123496 227.455918 
L 312.04863 227.774571 
L 313.973763 227.59632 
L 317.824031 228.781749 
L 335.150234 228.678261 
L 339.000501 228.454367 
L 348.62617 228.629549 
L 352.476437 228.650468 
L 356.326705 228.836897 
L 360.176972 228.71047 
L 365.952373 228.686965 
L 369.80264 228.716061 
L 377.503175 228.55754 
L 379.428309 228.659268 
L 392.904245 228.531854 
L 396.754512 228.536634 
L 400.604779 228.340587 
L 402.529913 228.093305 
L 404.455047 227.970613 
L 410.230448 227.971449 
L 412.155582 228.234778 
L 414.080715 228.370814 
L 421.78125 227.800568 
L 423.706384 227.654317 
L 429.481785 227.8306 
L 433.332052 227.758489 
L 435.257186 227.561149 
L 437.18232 227.52542 
L 441.032587 227.709309 
L 444.882854 227.746934 
L 448.733122 227.639464 
L 450.658255 227.514807 
L 454.508523 227.641856 
L 462.209057 227.737022 
L 466.059325 227.670039 
L 467.984459 227.64744 
L 471.834726 227.271883 
L 473.75986 227.313176 
L 475.684993 227.214718 
L 483.385528 227.449272 
L 485.310662 227.404308 
L 489.160929 227.026899 
L 491.086063 226.903704 
L 502.636865 227.046308 
L 504.561999 227.156354 
L 506.487132 227.040718 
L 510.3374 226.931394 
L 512.262533 226.801261 
L 514.187667 226.548173 
L 521.888202 226.666742 
L 523.813336 226.924439 
L 525.738469 226.764526 
L 527.663603 226.911019 
L 531.51387 226.916218 
L 533.439004 226.785139 
L 535.364138 226.994616 
L 537.289271 226.893166 
L 539.214405 227.055719 
L 541.139539 227.019079 
L 543.064672 227.114739 
L 550.765207 226.934004 
L 552.690341 226.752671 
L 558.465742 226.682469 
L 562.316009 227.049939 
L 564.241143 227.051972 
L 568.09141 227.289191 
L 570.016544 227.341542 
L 573.866811 227.654048 
L 577.717079 227.637127 
L 579.642213 227.507624 
L 581.567346 227.249287 
L 593.118148 227.193741 
L 596.968416 227.209111 
L 598.893549 227.3064 
L 602.743817 227.778474 
L 604.668951 227.853749 
L 606.594084 227.733672 
L 608.519218 227.923403 
L 610.444352 227.798096 
L 614.294619 227.965442 
L 616.219753 228.297649 
L 618.144886 228.033232 
L 623.920287 228.059033 
L 625.845421 227.991791 
L 627.770555 228.237847 
L 633.545956 228.389772 
L 647.021892 228.672803 
L 648.947025 228.786275 
L 650.872159 228.599913 
L 658.572694 228.526788 
L 660.497828 228.757102 
L 664.348095 228.809984 
L 668.198362 228.849399 
L 672.04863 228.638557 
L 687.449699 228.879098 
L 695.150234 228.858845 
L 756.754512 228.96 
L 980.07002 228.955379 
L 980.07002 228.955379 
" clip-path="url(#p03dd4e5379)" style="fill: none; stroke: #947383; stroke-width: 2; stroke-linecap: square"/>
   </g>
   <g id="line2d_17">
    <path d="M 94.508523 202.961623 
L 96.433656 218.469427 
L 98.35879 219.629033 
L 100.283924 213.942838 
L 102.209057 210.065887 
L 104.134191 204.250461 
L 106.059325 195.303651 
L 107.984459 191.711447 
L 109.909592 202.049984 
L 111.834726 206.058916 
L 113.75986 191.935737 
L 115.684993 181.725848 
L 119.535261 133.187942 
L 121.460394 105.141913 
L 123.385528 125.080518 
L 125.310662 125.627852 
L 127.235795 141.412582 
L 129.160929 154.41177 
L 131.086063 185.427378 
L 133.011197 176.480568 
L 134.93633 186.879919 
L 136.861464 200.172323 
L 138.786598 200.856491 
L 140.711731 185.968999 
L 142.636865 187.161907 
L 144.561999 187.618019 
L 146.487132 169.008654 
L 148.412266 179.955339 
L 150.3374 190.19049 
L 152.262533 192.576306 
L 154.187667 200.330208 
L 156.112801 216.824872 
L 158.037934 206.0887 
L 159.963068 208.471607 
L 161.888202 203.87039 
L 163.813336 203.87039 
L 165.738469 200.511748 
L 167.663603 200.511748 
L 169.588737 194.32238 
L 171.51387 196.847937 
L 173.439004 196.847937 
L 177.289271 207.888184 
L 179.214405 211.177718 
L 181.139539 212.806037 
L 183.064672 192.128965 
L 184.989806 174.682686 
L 186.91494 151.937906 
L 188.840074 147.137872 
L 192.690341 158.541696 
L 194.615475 165.64944 
L 196.540608 171.852561 
L 198.465742 160.966541 
L 200.390876 148.904916 
L 202.316009 130.762581 
L 204.241143 131.796435 
L 206.166277 127.561611 
L 208.09141 128.907116 
L 210.016544 114.970364 
L 211.941678 128.08314 
L 213.866811 114.790737 
L 217.717079 135.433818 
L 219.642213 156.779854 
L 221.567346 156.221014 
L 223.49248 149.043116 
L 225.417614 127.605858 
L 227.342747 103.893925 
L 229.267881 108.546266 
L 231.193015 110.613973 
L 233.118148 123.640529 
L 235.043282 139.113247 
L 236.968416 146.375831 
L 238.893549 111.018037 
L 240.818683 89.390938 
L 242.743817 77.062233 
L 244.668951 52.011165 
L 246.594084 32.792565 
L 248.519218 26.213761 
L 250.444352 31.557667 
L 252.369485 36.265393 
L 254.294619 49.557797 
L 256.219753 55.760918 
L 258.144886 64.466506 
L 260.07002 61.63738 
L 261.995154 46.129576 
L 263.920287 38.419982 
L 265.845421 34.711594 
L 267.770555 24.997914 
L 269.695689 24.406202 
L 271.620822 17.76 
L 273.545956 27.064682 
L 275.47109 33.524455 
L 277.396223 43.821135 
L 279.321357 46.347293 
L 281.246491 56.316595 
L 283.171624 51.76764 
L 285.096758 52.209038 
L 288.947025 37.963659 
L 290.872159 36.855959 
L 292.797293 34.130345 
L 294.722426 28.282116 
L 296.64756 32.078297 
L 298.572694 28.254455 
L 300.497828 24.826244 
L 302.422961 22.768356 
L 304.348095 25.296689 
L 306.273229 22.007155 
L 308.198362 27.589964 
L 312.04863 46.091531 
L 313.973763 45.536301 
L 315.898897 45.186671 
L 317.824031 41.694801 
L 319.749164 34.673276 
L 321.674298 28.926267 
L 323.599432 25.652538 
L 327.449699 34.959757 
L 329.374833 35.198733 
L 331.299967 45.615932 
L 333.2251 67.749184 
L 335.150234 75.5517 
L 337.075368 92.672593 
L 339.000501 107.950918 
L 340.925635 105.127675 
L 342.850769 97.425064 
L 344.775902 100.039069 
L 346.701036 96.051154 
L 348.62617 97.810273 
L 350.551303 97.388677 
L 352.476437 101.410533 
L 354.401571 101.069337 
L 356.326705 102.540962 
L 358.251838 103.435643 
L 360.176972 97.694773 
L 362.102106 90.95225 
L 364.027239 98.447343 
L 365.952373 84.728901 
L 367.877507 76.105362 
L 369.80264 80.765428 
L 371.727774 80.044134 
L 373.652908 67.463098 
L 375.578041 83.77303 
L 377.503175 80.213743 
L 379.428309 82.909944 
L 381.353443 82.885669 
L 383.278576 78.297351 
L 385.20371 78.076766 
L 387.128844 88.280611 
L 389.053977 92.603999 
L 390.979111 110.53389 
L 392.904245 118.841642 
L 394.829378 117.398555 
L 396.754512 118.602145 
L 398.679646 127.366904 
L 400.604779 122.409888 
L 402.529913 133.683192 
L 404.455047 127.566225 
L 406.38018 118.261542 
L 408.305314 111.46823 
L 410.230448 103.256337 
L 412.155582 98.979034 
L 414.080715 104.946168 
L 416.005849 114.951202 
L 417.930983 111.034231 
L 419.856116 108.957293 
L 421.78125 105.540015 
L 423.706384 104.436693 
L 425.631517 99.448889 
L 427.556651 104.924337 
L 429.481785 119.395282 
L 431.406918 118.337531 
L 433.332052 118.126061 
L 435.257186 129.91669 
L 437.18232 131.693796 
L 439.107453 130.564124 
L 441.032587 140.731354 
L 442.957721 153.876923 
L 444.882854 149.879858 
L 446.807988 151.76281 
L 448.733122 145.915644 
L 450.658255 139.611292 
L 452.583389 126.017562 
L 454.508523 114.314468 
L 456.433656 112.331936 
L 458.35879 116.634838 
L 460.283924 118.82673 
L 462.209057 125.249957 
L 464.134191 126.871631 
L 466.059325 124.265661 
L 467.984459 123.822581 
L 469.909592 123.769613 
L 471.834726 125.017919 
L 473.75986 130.042448 
L 475.684993 132.20736 
L 477.610127 128.640189 
L 479.535261 125.326598 
L 481.460394 130.767933 
L 483.385528 138.521835 
L 485.310662 138.551424 
L 487.235795 146.27247 
L 489.160929 135.524784 
L 491.086063 130.025931 
L 493.011197 115.977685 
L 494.93633 125.519374 
L 496.861464 115.826996 
L 498.786598 131.604241 
L 500.711731 137.889721 
L 502.636865 142.815729 
L 504.561999 128.99631 
L 506.487132 130.432218 
L 510.3374 112.313405 
L 512.262533 105.111638 
L 514.187667 106.990048 
L 516.112801 108.192066 
L 518.037934 103.227821 
L 519.963068 96.595641 
L 521.888202 112.384893 
L 523.813336 117.633689 
L 525.738469 116.007142 
L 527.663603 124.815574 
L 529.588737 129.559984 
L 531.51387 125.35624 
L 533.439004 115.787413 
L 535.364138 115.343394 
L 537.289271 112.836653 
L 539.214405 114.211099 
L 541.139539 111.195693 
L 543.064672 114.412284 
L 544.989806 110.390216 
L 546.91494 113.232261 
L 548.840074 122.103688 
L 550.765207 120.165212 
L 552.690341 121.912373 
L 554.615475 122.960698 
L 556.540608 113.478955 
L 558.465742 99.139271 
L 560.390876 99.995806 
L 562.316009 95.394922 
L 564.241143 95.585905 
L 566.166277 99.210054 
L 568.09141 104.083935 
L 570.016544 106.096343 
L 571.941678 101.661048 
L 573.866811 101.871129 
L 575.791945 105.011865 
L 577.717079 100.492448 
L 579.642213 94.577328 
L 581.567346 101.419006 
L 583.49248 103.812021 
L 585.417614 103.241489 
L 587.342747 98.056488 
L 589.267881 101.866306 
L 591.193015 111.083208 
L 593.118148 109.833968 
L 595.043282 114.072069 
L 596.968416 128.650368 
L 598.893549 124.457116 
L 600.818683 125.769196 
L 602.743817 135.773402 
L 604.668951 131.828908 
L 606.594084 123.521156 
L 608.519218 137.00379 
L 610.444352 133.885617 
L 612.369485 133.434143 
L 614.294619 135.871084 
L 616.219753 144.585184 
L 618.144886 140.938115 
L 620.07002 139.390013 
L 621.995154 137.089404 
L 623.920287 141.471122 
L 625.845421 135.828229 
L 627.770555 137.274742 
L 629.695689 145.999885 
L 631.620822 150.066404 
L 633.545956 155.118325 
L 635.47109 161.56327 
L 637.396223 169.278382 
L 639.321357 167.589204 
L 641.246491 169.529064 
L 643.171624 175.098872 
L 645.096758 182.447457 
L 647.021892 180.449204 
L 648.947025 183.73259 
L 650.872159 186.776593 
L 652.797293 176.37336 
L 654.722426 178.524419 
L 656.64756 183.485249 
L 658.572694 180.451113 
L 660.497828 181.572488 
L 662.422961 193.765525 
L 664.348095 192.81176 
L 666.273229 182.578813 
L 668.198362 186.954711 
L 670.123496 188.103921 
L 672.04863 189.491247 
L 673.973763 191.285948 
L 675.898897 206.517418 
L 677.824031 209.621905 
L 679.749164 200.701574 
L 681.674298 201.06113 
L 683.599432 199.695483 
L 685.524566 195.611509 
L 687.449699 191.203528 
L 689.374833 200.16467 
L 691.299967 197.194826 
L 693.2251 188.882589 
L 695.150234 191.614881 
L 697.075368 189.582547 
L 699.000501 185.466365 
L 700.925635 183.987516 
L 702.850769 189.30713 
L 704.775902 190.283828 
L 706.701036 188.308232 
L 708.62617 196.085153 
L 710.551303 199.052297 
L 712.476437 205.652456 
L 714.401571 204.626639 
L 716.326705 212.939278 
L 718.251838 213.11972 
L 720.176972 216.121142 
L 722.102106 217.002892 
L 724.027239 218.383432 
L 725.952373 218.161017 
L 727.877507 213.798374 
L 729.80264 215.670834 
L 731.727774 215.915247 
L 733.652908 210.273859 
L 735.578041 208.938477 
L 737.503175 211.329703 
L 739.428309 209.238763 
L 741.353443 208.91042 
L 743.278576 214.249707 
L 745.20371 214.976885 
L 747.128844 214.793907 
L 749.053977 216.410118 
L 750.979111 217.748147 
L 752.904245 217.938775 
L 754.829378 218.858391 
L 756.754512 218.988622 
L 758.679646 218.308514 
L 760.604779 215.772005 
L 762.529913 215.920255 
L 764.455047 217.433211 
L 766.38018 219.868156 
L 768.305314 219.584124 
L 770.230448 222.612497 
L 772.155582 222.967136 
L 774.080715 222.461605 
L 776.005849 222.254971 
L 777.930983 222.934274 
L 779.856116 221.102358 
L 781.78125 222.402701 
L 783.706384 222.674614 
L 785.631517 223.965688 
L 787.556651 223.471629 
L 789.481785 225.512893 
L 791.406918 224.933763 
L 793.332052 225.869323 
L 795.257186 224.123781 
L 797.18232 225.377406 
L 799.107453 225.516477 
L 801.032587 225.870856 
L 802.957721 225.391408 
L 804.882854 226.81497 
L 806.807988 226.480269 
L 808.733122 226.993395 
L 812.583389 227.346267 
L 814.508523 227.841197 
L 818.35879 227.852818 
L 820.283924 226.459902 
L 822.209057 227.244004 
L 824.134191 227.244004 
L 826.059325 227.567083 
L 827.984459 226.562981 
L 829.909592 227.955898 
L 831.834726 226.490593 
L 833.75986 226.051693 
L 835.684993 225.173893 
L 837.610127 224.953695 
L 839.535261 224.953695 
L 841.460394 226.418999 
L 843.385528 226.857899 
L 845.310662 227.7357 
L 847.235795 228.96 
L 851.086063 226.262424 
L 853.011197 219.182774 
L 854.93633 216.993437 
L 856.861464 212.676832 
L 858.786598 212.576007 
L 860.711731 212.025514 
L 862.636865 216.160644 
L 864.561999 217.215263 
L 866.487132 221.531869 
L 868.412266 222.388879 
L 870.3374 223.70809 
L 872.262533 226.652609 
L 874.187667 225.848851 
L 876.112801 225.848851 
L 879.963068 227.021524 
L 885.738469 227.099064 
L 887.663603 226.336385 
L 891.51387 226.336385 
L 893.439004 228.197321 
L 895.364138 227.446943 
L 897.289271 228.209622 
L 903.064672 228.209622 
L 904.989806 228.96 
L 908.840074 228.96 
L 910.765207 228.363546 
L 912.690341 227.955446 
L 918.465742 227.955446 
L 920.390876 228.5519 
L 922.316009 228.96 
L 928.09141 228.96 
L 930.016544 228.171468 
L 931.941678 228.171468 
L 933.866811 227.861312 
L 937.717079 227.861312 
L 939.642213 228.649844 
L 941.567346 228.649844 
L 943.49248 228.96 
L 960.818683 228.96 
L 962.743817 228.804403 
L 964.668951 228.804403 
L 966.594084 228.660368 
L 970.444352 228.660368 
L 972.369485 228.815965 
L 974.294619 228.815965 
L 976.219753 228.96 
L 1033.973763 228.96 
L 1035.898897 228.734158 
L 1043.599432 228.734158 
L 1045.524566 228.96 
L 1107.128844 228.96 
L 1109.053977 228.209622 
L 1109.053977 228.209622 
" clip-path="url(#p03dd4e5379)" style="fill: none; stroke: #96c6ad; stroke-width: 2; stroke-linecap: square"/>
   </g>
   <g id="line2d_18">
    <path d="M 225.417614 199.052092 
L 227.342747 222.313798 
L 233.118148 222.313798 
L 235.043282 228.96 
L 285.096758 228.96 
L 290.872159 228.555588 
L 296.64756 228.527021 
L 302.422961 227.311633 
L 306.273229 227.10313 
L 308.198362 227.753807 
L 312.04863 228.115405 
L 315.898897 227.723938 
L 317.824031 227.594166 
L 321.674298 227.903554 
L 323.599432 227.684053 
L 329.374833 227.588889 
L 331.299967 227.152578 
L 335.150234 227.754518 
L 339.000501 227.047542 
L 340.925635 227.510511 
L 342.850769 227.185159 
L 344.775902 225.998378 
L 346.701036 225.322148 
L 348.62617 225.320092 
L 350.551303 224.393054 
L 352.476437 224.260185 
L 354.401571 225.370965 
L 356.326705 225.711621 
L 358.251838 224.996207 
L 360.176972 225.544505 
L 362.102106 225.492526 
L 364.027239 225.201554 
L 365.952373 225.423763 
L 367.877507 226.221879 
L 369.80264 225.987337 
L 371.727774 225.487489 
L 373.652908 225.438316 
L 375.578041 224.935885 
L 377.503175 223.823399 
L 379.428309 223.614345 
L 381.353443 224.529893 
L 385.20371 224.187529 
L 387.128844 224.479805 
L 389.053977 223.898395 
L 390.979111 222.810621 
L 392.904245 222.726309 
L 394.829378 223.161869 
L 396.754512 222.9681 
L 398.679646 223.282826 
L 400.604779 223.206881 
L 404.455047 221.949168 
L 406.38018 222.604894 
L 414.080715 223.310978 
L 416.005849 222.769033 
L 419.856116 222.29201 
L 423.706384 222.6086 
L 429.481785 221.799658 
L 433.332052 220.937692 
L 435.257186 221.176956 
L 437.18232 220.889874 
L 439.107453 221.256562 
L 441.032587 221.448469 
L 442.957721 221.526594 
L 446.807988 222.243235 
L 448.733122 222.451066 
L 450.658255 222.11593 
L 452.583389 222.299973 
L 454.508523 221.78858 
L 456.433656 221.522016 
L 458.35879 220.829701 
L 460.283924 220.864446 
L 462.209057 221.036508 
L 464.134191 220.544193 
L 466.059325 220.647451 
L 467.984459 221.262358 
L 469.909592 220.940845 
L 471.834726 220.457508 
L 473.75986 220.746802 
L 475.684993 221.345516 
L 477.610127 220.928342 
L 479.535261 221.31631 
L 481.460394 221.457986 
L 483.385528 221.798682 
L 485.310662 221.296873 
L 489.160929 221.84233 
L 491.086063 221.455031 
L 493.011197 221.196514 
L 494.93633 221.424702 
L 498.786598 220.707316 
L 500.711731 221.027156 
L 502.636865 221.731116 
L 504.561999 221.715908 
L 510.3374 223.492646 
L 512.262533 223.333244 
L 516.112801 223.877091 
L 518.037934 223.481469 
L 523.813336 223.828796 
L 525.738469 223.68927 
L 527.663603 224.4313 
L 531.51387 224.851118 
L 533.439004 224.825634 
L 535.364138 225.165961 
L 539.214405 225.119563 
L 541.139539 224.66814 
L 543.064672 224.871744 
L 546.91494 224.297074 
L 548.840074 224.210811 
L 550.765207 224.768173 
L 552.690341 224.744467 
L 556.540608 225.268744 
L 560.390876 224.93937 
L 564.241143 225.118723 
L 566.166277 224.99485 
L 570.016544 225.688981 
L 571.941678 224.963326 
L 575.791945 224.962548 
L 577.717079 225.07693 
L 579.642213 224.804324 
L 581.567346 225.622544 
L 583.49248 226.074272 
L 587.342747 226.287612 
L 589.267881 226.675195 
L 591.193015 226.663175 
L 593.118148 226.333212 
L 596.968416 226.838871 
L 598.893549 226.383756 
L 600.818683 226.342799 
L 602.743817 226.510041 
L 604.668951 226.454719 
L 606.594084 226.21936 
L 610.444352 226.91025 
L 623.920287 227.483992 
L 625.845421 227.214039 
L 627.770555 227.233906 
L 629.695689 227.121098 
L 631.620822 226.848542 
L 633.545956 226.716878 
L 635.47109 227.112111 
L 639.321357 227.232244 
L 643.171624 227.580164 
L 647.021892 227.316534 
L 648.947025 227.345202 
L 652.797293 226.519776 
L 654.722426 225.740139 
L 656.64756 225.421528 
L 658.572694 224.623952 
L 660.497828 224.589347 
L 662.422961 224.825362 
L 664.348095 225.507347 
L 672.04863 225.065391 
L 673.973763 219.789362 
L 675.898897 219.149418 
L 677.824031 219.391448 
L 679.749164 219.284091 
L 681.674298 219.37326 
L 683.599432 224.464446 
L 685.524566 225.328086 
L 687.449699 225.881794 
L 689.374833 226.590882 
L 693.2251 226.93571 
L 697.075368 227.800974 
L 699.000501 227.831935 
L 700.925635 228.053369 
L 702.850769 228.036623 
L 704.775902 227.721838 
L 710.551303 227.508579 
L 712.476437 227.576837 
L 714.401571 227.906279 
L 720.176972 228.17105 
L 722.102106 228.421241 
L 737.503175 228.725332 
L 741.353443 228.742906 
L 747.128844 228.875963 
L 756.754512 228.874164 
L 764.455047 228.948937 
L 1053.2251 228.944248 
L 1053.2251 228.944248 
" clip-path="url(#p03dd4e5379)" style="fill: none; stroke: #525886; stroke-width: 2; stroke-linecap: square"/>
   </g>
   <g id="line2d_19">
    <path d="M 211.941678 182.436588 
L 213.866811 205.698294 
L 217.717079 205.698294 
L 219.642213 228.96 
L 260.07002 228.96 
L 261.995154 205.698294 
L 269.695689 205.698294 
L 271.620822 228.96 
L 290.872159 228.96 
L 292.797293 226.744599 
L 294.722426 226.744599 
L 298.572694 225.985663 
L 300.497828 225.985663 
L 302.422961 228.201064 
L 304.348095 228.201064 
L 308.198362 228.96 
L 312.04863 228.050266 
L 313.973763 227.941567 
L 315.898897 227.541193 
L 317.824031 227.305631 
L 319.749164 227.50253 
L 321.674298 227.577939 
L 323.599432 227.462968 
L 325.524566 227.57257 
L 327.449699 227.544169 
L 331.299967 228.098666 
L 333.2251 227.653897 
L 335.150234 227.496466 
L 339.000501 227.72028 
L 340.925635 227.24844 
L 342.850769 227.785458 
L 344.775902 227.064311 
L 346.701036 227.187388 
L 348.62617 226.470067 
L 350.551303 226.619574 
L 352.476437 226.600435 
L 354.401571 227.615478 
L 356.326705 226.710353 
L 358.251838 226.671196 
L 360.176972 226.911477 
L 364.027239 226.862449 
L 365.952373 227.538394 
L 367.877507 228.052983 
L 371.727774 227.364511 
L 373.652908 226.514453 
L 375.578041 225.000367 
L 377.503175 224.540016 
L 379.428309 224.363737 
L 381.353443 224.000308 
L 383.278576 222.953642 
L 385.20371 224.053727 
L 387.128844 224.388677 
L 389.053977 224.189553 
L 390.979111 224.210637 
L 392.904245 225.040612 
L 394.829378 224.015367 
L 396.754512 223.698489 
L 398.679646 223.205454 
L 400.604779 222.378642 
L 402.529913 222.656516 
L 404.455047 223.937246 
L 406.38018 224.176214 
L 408.305314 223.488863 
L 410.230448 224.183168 
L 412.155582 223.266185 
L 414.080715 222.706839 
L 416.005849 221.848862 
L 417.930983 222.560247 
L 419.856116 220.156156 
L 421.78125 219.506305 
L 423.706384 218.588681 
L 425.631517 218.218927 
L 427.556651 217.601203 
L 429.481785 219.296655 
L 431.406918 219.729077 
L 433.332052 220.75169 
L 435.257186 220.514793 
L 437.18232 220.462173 
L 439.107453 217.977945 
L 441.032587 218.07842 
L 444.882854 216.325183 
L 448.733122 218.27259 
L 450.658255 217.915152 
L 452.583389 216.389642 
L 454.508523 215.728058 
L 456.433656 212.628148 
L 458.35879 210.458535 
L 460.283924 207.901917 
L 462.209057 208.231443 
L 464.134191 206.252747 
L 466.059325 208.057476 
L 467.984459 208.139372 
L 469.909592 208.42504 
L 471.834726 206.975385 
L 473.75986 209.113671 
L 475.684993 206.68055 
L 477.610127 205.128339 
L 479.535261 204.598917 
L 481.460394 203.850425 
L 483.385528 204.893062 
L 485.310662 207.723153 
L 487.235795 211.87439 
L 489.160929 212.23606 
L 491.086063 214.202394 
L 493.011197 213.834345 
L 494.93633 212.56065 
L 498.786598 213.091784 
L 500.711731 213.637369 
L 502.636865 213.010786 
L 504.561999 212.186706 
L 506.487132 212.778843 
L 508.412266 215.701418 
L 510.3374 216.723758 
L 514.187667 220.594827 
L 516.112801 220.737828 
L 518.037934 220.584916 
L 519.963068 220.797446 
L 521.888202 220.27841 
L 523.813336 221.368812 
L 525.738469 220.494882 
L 529.588737 221.010632 
L 531.51387 221.683133 
L 533.439004 221.583961 
L 535.364138 222.971169 
L 537.289271 223.222595 
L 539.214405 222.895925 
L 541.139539 221.409578 
L 543.064672 220.92595 
L 544.989806 220.149629 
L 546.91494 220.368329 
L 548.840074 220.998887 
L 550.765207 222.906738 
L 552.690341 224.009952 
L 554.615475 224.862248 
L 558.465742 224.309072 
L 560.390876 223.316529 
L 562.316009 222.784515 
L 564.241143 222.938934 
L 568.09141 223.063675 
L 570.016544 223.882858 
L 571.941678 224.452934 
L 573.866811 224.401099 
L 577.717079 225.269185 
L 579.642213 225.579808 
L 581.567346 224.920075 
L 583.49248 225.091628 
L 585.417614 224.671171 
L 587.342747 224.515229 
L 589.267881 223.914239 
L 591.193015 224.389064 
L 593.118148 224.526936 
L 595.043282 224.43243 
L 596.968416 223.991877 
L 598.893549 224.549806 
L 600.818683 224.032614 
L 602.743817 223.333605 
L 604.668951 222.130377 
L 606.594084 221.789345 
L 608.519218 221.708887 
L 610.444352 221.495181 
L 612.369485 221.056526 
L 614.294619 222.712003 
L 616.219753 221.933062 
L 618.144886 220.721533 
L 620.07002 220.257624 
L 621.995154 220.600403 
L 623.920287 219.256681 
L 625.845421 220.145729 
L 627.770555 221.191497 
L 629.695689 221.775323 
L 631.620822 221.925339 
L 633.545956 223.402397 
L 635.47109 223.330807 
L 637.396223 221.857924 
L 641.246491 221.807537 
L 645.096758 220.500813 
L 647.021892 221.876304 
L 648.947025 222.127338 
L 650.872159 221.281464 
L 652.797293 220.659519 
L 654.722426 221.719645 
L 658.572694 220.278095 
L 660.497828 221.371444 
L 662.422961 220.852719 
L 664.348095 220.983963 
L 666.273229 221.538098 
L 668.198362 222.492107 
L 670.123496 222.512454 
L 672.04863 224.451538 
L 673.973763 224.088836 
L 675.898897 224.692715 
L 677.824031 224.601171 
L 679.749164 225.019671 
L 681.674298 225.040473 
L 683.599432 225.365179 
L 687.449699 224.966345 
L 689.374833 223.445704 
L 691.299967 223.177444 
L 693.2251 222.704608 
L 695.150234 222.398011 
L 697.075368 223.250622 
L 699.000501 224.38411 
L 700.925635 224.851783 
L 702.850769 226.099047 
L 704.775902 226.486196 
L 706.701036 226.422842 
L 708.62617 226.927531 
L 710.551303 226.77206 
L 712.476437 226.22328 
L 714.401571 226.685182 
L 716.326705 226.34047 
L 718.251838 226.443342 
L 720.176972 226.78352 
L 722.102106 227.376838 
L 724.027239 227.167467 
L 725.952373 227.168383 
L 727.877507 227.403547 
L 733.652908 227.702778 
L 735.578041 228.353209 
L 739.428309 228.247759 
L 741.353443 228.452756 
L 750.979111 228.667477 
L 756.754512 228.758945 
L 766.38018 228.845176 
L 789.481785 228.96 
L 804.882854 228.836385 
L 806.807988 228.889252 
L 808.733122 228.817952 
L 812.583389 228.869218 
L 818.35879 228.924914 
L 914.615475 228.899344 
L 914.615475 228.899344 
" clip-path="url(#p03dd4e5379)" style="fill: none; stroke: #937252; stroke-width: 2; stroke-linecap: square"/>
   </g>
   <g id="line2d_20">
    <path d="M 287.021892 228.771347 
L 296.64756 228.671275 
L 300.497828 228.776933 
L 315.898897 228.192864 
L 319.749164 228.365105 
L 321.674298 228.041412 
L 323.599432 228.286125 
L 325.524566 228.342421 
L 329.374833 228.167186 
L 331.299967 228.524108 
L 337.075368 228.56678 
L 339.000501 228.683741 
L 344.775902 228.477978 
L 350.551303 228.364624 
L 364.027239 228.501319 
L 371.727774 228.649438 
L 383.278576 228.757283 
L 387.128844 228.569929 
L 389.053977 228.479967 
L 390.979111 228.572967 
L 392.904245 228.459149 
L 394.829378 228.563797 
L 402.529913 228.493532 
L 408.305314 228.665639 
L 412.155582 228.684791 
L 423.706384 228.666098 
L 427.556651 228.547582 
L 437.18232 228.560062 
L 441.032587 228.29492 
L 446.807988 228.297455 
L 448.733122 228.574809 
L 452.583389 228.671617 
L 456.433656 228.48897 
L 462.209057 228.073762 
L 464.134191 228.17256 
L 475.684993 227.980177 
L 477.610127 228.080624 
L 479.535261 227.946047 
L 485.310662 228.059765 
L 487.235795 227.928299 
L 489.160929 228.051716 
L 493.011197 228.014263 
L 494.93633 227.902172 
L 496.861464 227.910776 
L 500.711731 227.687958 
L 504.561999 227.571197 
L 506.487132 227.229146 
L 508.412266 227.05239 
L 510.3374 227.001178 
L 512.262533 226.811118 
L 518.037934 227.399415 
L 519.963068 227.383042 
L 521.888202 227.567692 
L 523.813336 226.953783 
L 525.738469 227.046206 
L 529.588737 227.020475 
L 531.51387 226.795409 
L 533.439004 227.240291 
L 535.364138 227.340473 
L 537.289271 227.325002 
L 541.139539 227.461913 
L 543.064672 227.333829 
L 544.989806 226.81646 
L 546.91494 226.995538 
L 548.840074 227.005213 
L 550.765207 227.179959 
L 552.690341 227.09235 
L 554.615475 227.297661 
L 556.540608 227.284575 
L 564.241143 227.911277 
L 566.166277 227.683013 
L 568.09141 227.615368 
L 570.016544 227.706207 
L 573.866811 227.704642 
L 575.791945 228.150011 
L 585.417614 228.702558 
L 596.968416 228.651414 
L 598.893549 228.497425 
L 606.594084 228.651948 
L 608.519218 228.8698 
L 627.770555 228.833139 
L 633.545956 228.696765 
L 639.321357 228.845692 
L 641.246491 228.96 
L 658.572694 228.899627 
L 681.674298 228.96 
L 955.043282 228.955187 
L 955.043282 228.955187 
" clip-path="url(#p03dd4e5379)" style="fill: none; stroke: #d18cad; stroke-width: 2; stroke-linecap: square"/>
   </g>
   <g id="line2d_21">
    <path d="M 317.824031 220.950475 
L 319.749164 223.075342 
L 323.599432 223.075342 
L 325.524566 227.506143 
L 327.449699 211.998339 
L 329.374833 213.452196 
L 331.299967 206.106394 
L 333.2251 206.106394 
L 335.150234 201.209193 
L 337.075368 213.615436 
L 339.000501 213.615436 
L 340.925635 215.145811 
L 342.850769 203.514958 
L 344.775902 208.41216 
L 346.701036 201.175184 
L 348.62617 195.701842 
L 350.551303 201.517268 
L 352.476437 194.538756 
L 354.401571 190.661805 
L 356.326705 201.000341 
L 358.251838 206.473684 
L 360.176972 206.473684 
L 362.102106 221.504325 
L 364.027239 225.381276 
L 365.952373 216.076594 
L 367.877507 192.814887 
L 369.80264 174.205522 
L 371.727774 170.030344 
L 373.652908 163.384143 
L 375.578041 172.688825 
L 377.503175 195.950531 
L 379.428309 214.559896 
L 381.353443 222.313798 
L 383.278576 228.96 
L 385.20371 224.730599 
L 387.128844 224.730599 
L 389.053977 215.425916 
L 390.979111 215.425916 
L 392.904245 199.918112 
L 394.829378 204.147513 
L 396.754512 204.147513 
L 398.679646 197.944392 
L 400.604779 197.944392 
L 402.529913 213.452196 
L 406.38018 213.452196 
L 408.305314 228.96 
L 416.005849 228.96 
L 417.930983 213.452196 
L 419.856116 213.452196 
L 421.78125 205.698294 
L 425.631517 205.698294 
L 427.556651 221.206098 
L 429.481785 221.206098 
L 431.406918 228.96 
L 435.257186 228.96 
L 437.18232 221.206098 
L 439.107453 215.732755 
L 442.957721 215.732755 
L 444.882854 209.086554 
L 446.807988 216.840456 
L 448.733122 218.084397 
L 450.658255 212.915129 
L 452.583389 212.915129 
L 454.508523 219.561331 
L 456.433656 219.561331 
L 458.35879 223.790732 
L 460.283924 228.96 
L 462.209057 224.730599 
L 464.134191 224.730599 
L 466.059325 220.078258 
L 467.984459 216.499534 
L 469.909592 206.160998 
L 471.834726 210.390399 
L 473.75986 210.390399 
L 475.684993 215.04274 
L 477.610127 206.990611 
L 479.535261 213.099746 
L 481.460394 213.099746 
L 483.385528 197.591942 
L 485.310662 193.362541 
L 487.235795 204.993394 
L 489.160929 202.878693 
L 491.086063 202.878693 
L 493.011197 210.632595 
L 494.93633 214.861996 
L 496.861464 214.861996 
L 498.786598 217.627374 
L 500.711731 205.996521 
L 502.636865 210.171699 
L 504.561999 204.356272 
L 506.487132 204.356272 
L 508.412266 207.934996 
L 510.3374 211.811947 
L 512.262533 207.636769 
L 514.187667 201.821343 
L 516.112801 201.821343 
L 518.037934 193.362541 
L 519.963068 201.116443 
L 521.888202 200.660331 
L 523.813336 212.291184 
L 525.738469 208.569311 
L 527.663603 210.381911 
L 529.588737 210.381911 
L 531.51387 217.457208 
L 533.439004 215.131037 
L 535.364138 218.85291 
L 539.214405 218.85291 
L 541.139539 218.049152 
L 543.064672 218.352566 
L 544.989806 216.237865 
L 548.840074 216.237865 
L 550.765207 218.176341 
L 552.690341 216.322147 
L 554.615475 218.436847 
L 556.540608 225.083049 
L 560.390876 225.083049 
L 562.316009 228.96 
L 568.09141 228.96 
L 570.016544 218.621464 
L 577.717079 218.621464 
L 579.642213 228.96 
L 581.567346 228.96 
L 583.49248 217.329147 
L 585.417614 208.024464 
L 587.342747 208.024464 
L 589.267881 192.51666 
L 591.193015 192.51666 
L 593.118148 204.147513 
L 595.043282 206.805994 
L 596.968416 206.805994 
L 598.893549 222.313798 
L 602.743817 222.313798 
L 604.668951 225.381276 
L 612.369485 225.381276 
L 614.294619 228.96 
L 618.144886 228.96 
L 620.07002 225.858439 
L 621.995154 225.858439 
L 623.920287 222.756878 
L 625.845421 212.418342 
L 627.770555 212.418342 
L 629.695689 200.012099 
L 631.620822 200.012099 
L 633.545956 195.359758 
L 635.47109 196.393611 
L 637.396223 196.393611 
L 639.321357 208.322691 
L 641.246491 202.11957 
L 643.171624 200.568789 
L 645.096758 209.873472 
L 647.021892 209.873472 
L 648.947025 213.452196 
L 650.872159 219.655318 
L 652.797293 228.96 
L 654.722426 228.96 
L 656.64756 227.355744 
L 658.572694 226.298394 
L 660.497828 226.298394 
L 662.422961 224.509032 
L 664.348095 220.836131 
L 666.273229 222.440387 
L 668.198362 222.273437 
L 668.198362 222.273437 
" clip-path="url(#p03dd4e5379)" style="fill: none; stroke: #a4a86f; stroke-width: 2; stroke-linecap: square"/>
   </g>
   <g id="line2d_22">
    <path d="M 435.257186 220.689171 
L 437.18232 223.790732 
L 439.107453 228.96 
L 444.882854 228.96 
L 446.807988 226.375366 
L 448.733122 226.375366 
L 450.658255 226.187772 
L 452.583389 225.727144 
L 454.508523 225.727144 
L 456.433656 228.311778 
L 458.35879 228.311778 
L 460.283924 228.499372 
L 462.209057 228.96 
L 467.984459 228.96 
L 469.909592 228.313841 
L 471.834726 227.467961 
L 473.75986 227.467961 
L 475.684993 227.284437 
L 477.610127 227.284437 
L 479.535261 227.930595 
L 481.460394 228.776476 
L 483.385528 228.776476 
L 485.310662 228.96 
L 491.086063 228.96 
L 493.011197 228.698633 
L 502.636865 228.74158 
L 504.561999 228.472659 
L 510.3374 228.472659 
L 512.262533 227.888951 
L 514.187667 228.157872 
L 519.963068 228.157872 
L 521.888202 228.96 
L 537.289271 228.96 
L 539.214405 228.587813 
L 546.91494 228.587813 
L 548.840074 228.96 
L 591.193015 228.96 
L 593.118148 228.512659 
L 600.818683 228.512659 
L 602.743817 228.96 
L 750.979111 228.88128 
L 750.979111 228.88128 
" clip-path="url(#p03dd4e5379)" style="fill: none; stroke: #d3d3d3; stroke-width: 2; stroke-linecap: square"/>
   </g>
   <g id="patch_3">
    <path d="M 43.78125 228.96 
L 43.78125 7.2 
" style="fill: none; stroke: #000000; stroke-width: 0.8; stroke-linejoin: miter; stroke-linecap: square"/>
   </g>
   <g id="patch_4">
    <path d="M 43.78125 228.96 
L 1159.78125 228.96 
" style="fill: none; stroke: #000000; stroke-width: 0.8; stroke-linejoin: miter; stroke-linecap: square"/>
   </g>
   <g id="legend_1">
    <g id="line2d_23">
     <path d="M 1065.97 17.67875 
L 1073.97 17.67875 
L 1081.97 17.67875 
" style="fill: none; stroke: #947383; stroke-width: 2; stroke-linecap: square"/>
    </g>
    <g id="text_18">
     <!-- North America -->
     <g transform="translate(1088.37 20.47875)scale(0.08 -0.08)">
      <defs>
       <path id="DejaVuSans-4e" d="M 628 4666 
L 1478 4666 
L 3547 763 
L 3547 4666 
L 4159 4666 
L 4159 0 
L 3309 0 
L 1241 3903 
L 1241 0 
L 628 0 
L 628 4666 
z
" transform="scale(0.015625)"/>
       <path id="DejaVuSans-68" d="M 3513 2113 
L 3513 0 
L 2938 0 
L 2938 2094 
Q 2938 2591 2744 2837 
Q 2550 3084 2163 3084 
Q 1697 3084 1428 2787 
Q 1159 2491 1159 1978 
L 1159 0 
L 581 0 
L 581 4863 
L 1159 4863 
L 1159 2956 
Q 1366 3272 1645 3428 
Q 1925 3584 2291 3584 
Q 2894 3584 3203 3211 
Q 3513 2838 3513 2113 
z
" transform="scale(0.015625)"/>
       <path id="DejaVuSans-41" d="M 2188 4044 
L 1331 1722 
L 3047 1722 
L 2188 4044 
z
M 1831 4666 
L 2547 4666 
L 4325 0 
L 3669 0 
L 3244 1197 
L 1141 1197 
L 716 0 
L 50 0 
L 1831 4666 
z
" transform="scale(0.015625)"/>
       <path id="DejaVuSans-6d" d="M 3328 2828 
Q 3544 3216 3844 3400 
Q 4144 3584 4550 3584 
Q 5097 3584 5394 3201 
Q 5691 2819 5691 2113 
L 5691 0 
L 5113 0 
L 5113 2094 
Q 5113 2597 4934 2840 
Q 4756 3084 4391 3084 
Q 3944 3084 3684 2787 
Q 3425 2491 3425 1978 
L 3425 0 
L 2847 0 
L 2847 2094 
Q 2847 2600 2669 2842 
Q 2491 3084 2119 3084 
Q 1678 3084 1418 2786 
Q 1159 2488 1159 1978 
L 1159 0 
L 581 0 
L 581 3500 
L 1159 3500 
L 1159 2956 
Q 1356 3278 1631 3431 
Q 1906 3584 2284 3584 
Q 2666 3584 2933 3390 
Q 3200 3197 3328 2828 
z
" transform="scale(0.015625)"/>
      </defs>
      <use xlink:href="#DejaVuSans-4e"/>
      <use xlink:href="#DejaVuSans-6f" x="74.804688"/>
      <use xlink:href="#DejaVuSans-72" x="135.986328"/>
      <use xlink:href="#DejaVuSans-74" x="177.099609"/>
      <use xlink:href="#DejaVuSans-68" x="216.308594"/>
      <use xlink:href="#DejaVuSans-20" x="279.6875"/>
      <use xlink:href="#DejaVuSans-41" x="311.474609"/>
      <use xlink:href="#DejaVuSans-6d" x="379.882812"/>
      <use xlink:href="#DejaVuSans-65" x="477.294922"/>
      <use xlink:href="#DejaVuSans-72" x="538.818359"/>
      <use xlink:href="#DejaVuSans-69" x="579.931641"/>
      <use xlink:href="#DejaVuSans-63" x="607.714844"/>
      <use xlink:href="#DejaVuSans-61" x="662.695312"/>
     </g>
    </g>
    <g id="line2d_24">
     <path d="M 1065.97 29.42125 
L 1073.97 29.42125 
L 1081.97 29.42125 
" style="fill: none; stroke: #96c6ad; stroke-width: 2; stroke-linecap: square"/>
    </g>
    <g id="text_19">
     <!-- Africa -->
     <g transform="translate(1088.37 32.22125)scale(0.08 -0.08)">
      <defs>
       <path id="DejaVuSans-66" d="M 2375 4863 
L 2375 4384 
L 1825 4384 
Q 1516 4384 1395 4259 
Q 1275 4134 1275 3809 
L 1275 3500 
L 2222 3500 
L 2222 3053 
L 1275 3053 
L 1275 0 
L 697 0 
L 697 3053 
L 147 3053 
L 147 3500 
L 697 3500 
L 697 3744 
Q 697 4328 969 4595 
Q 1241 4863 1831 4863 
L 2375 4863 
z
" transform="scale(0.015625)"/>
      </defs>
      <use xlink:href="#DejaVuSans-41"/>
      <use xlink:href="#DejaVuSans-66" x="64.783203"/>
      <use xlink:href="#DejaVuSans-72" x="99.988281"/>
      <use xlink:href="#DejaVuSans-69" x="141.101562"/>
      <use xlink:href="#DejaVuSans-63" x="168.884766"/>
      <use xlink:href="#DejaVuSans-61" x="223.865234"/>
     </g>
    </g>
    <g id="line2d_25">
     <path d="M 1065.97 41.16375 
L 1073.97 41.16375 
L 1081.97 41.16375 
" style="fill: none; stroke: #525886; stroke-width: 2; stroke-linecap: square"/>
    </g>
    <g id="text_20">
     <!-- Europe -->
     <g transform="translate(1088.37 43.96375)scale(0.08 -0.08)">
      <defs>
       <path id="DejaVuSans-45" d="M 628 4666 
L 3578 4666 
L 3578 4134 
L 1259 4134 
L 1259 2753 
L 3481 2753 
L 3481 2222 
L 1259 2222 
L 1259 531 
L 3634 531 
L 3634 0 
L 628 0 
L 628 4666 
z
" transform="scale(0.015625)"/>
       <path id="DejaVuSans-70" d="M 1159 525 
L 1159 -1331 
L 581 -1331 
L 581 3500 
L 1159 3500 
L 1159 2969 
Q 1341 3281 1617 3432 
Q 1894 3584 2278 3584 
Q 2916 3584 3314 3078 
Q 3713 2572 3713 1747 
Q 3713 922 3314 415 
Q 2916 -91 2278 -91 
Q 1894 -91 1617 61 
Q 1341 213 1159 525 
z
M 3116 1747 
Q 3116 2381 2855 2742 
Q 2594 3103 2138 3103 
Q 1681 3103 1420 2742 
Q 1159 2381 1159 1747 
Q 1159 1113 1420 752 
Q 1681 391 2138 391 
Q 2594 391 2855 752 
Q 3116 1113 3116 1747 
z
" transform="scale(0.015625)"/>
      </defs>
      <use xlink:href="#DejaVuSans-45"/>
      <use xlink:href="#DejaVuSans-75" x="63.183594"/>
      <use xlink:href="#DejaVuSans-72" x="126.5625"/>
      <use xlink:href="#DejaVuSans-6f" x="165.425781"/>
      <use xlink:href="#DejaVuSans-70" x="226.607422"/>
      <use xlink:href="#DejaVuSans-65" x="290.083984"/>
     </g>
    </g>
    <g id="line2d_26">
     <path d="M 1065.97 52.90625 
L 1073.97 52.90625 
L 1081.97 52.90625 
" style="fill: none; stroke: #937252; stroke-width: 2; stroke-linecap: square"/>
    </g>
    <g id="text_21">
     <!-- Asia -->
     <g transform="translate(1088.37 55.70625)scale(0.08 -0.08)">
      <defs>
       <path id="DejaVuSans-73" d="M 2834 3397 
L 2834 2853 
Q 2591 2978 2328 3040 
Q 2066 3103 1784 3103 
Q 1356 3103 1142 2972 
Q 928 2841 928 2578 
Q 928 2378 1081 2264 
Q 1234 2150 1697 2047 
L 1894 2003 
Q 2506 1872 2764 1633 
Q 3022 1394 3022 966 
Q 3022 478 2636 193 
Q 2250 -91 1575 -91 
Q 1294 -91 989 -36 
Q 684 19 347 128 
L 347 722 
Q 666 556 975 473 
Q 1284 391 1588 391 
Q 1994 391 2212 530 
Q 2431 669 2431 922 
Q 2431 1156 2273 1281 
Q 2116 1406 1581 1522 
L 1381 1569 
Q 847 1681 609 1914 
Q 372 2147 372 2553 
Q 372 3047 722 3315 
Q 1072 3584 1716 3584 
Q 2034 3584 2315 3537 
Q 2597 3491 2834 3397 
z
" transform="scale(0.015625)"/>
      </defs>
      <use xlink:href="#DejaVuSans-41"/>
      <use xlink:href="#DejaVuSans-73" x="68.408203"/>
      <use xlink:href="#DejaVuSans-69" x="120.507812"/>
      <use xlink:href="#DejaVuSans-61" x="148.291016"/>
     </g>
    </g>
    <g id="line2d_27">
     <path d="M 1065.97 64.64875 
L 1073.97 64.64875 
L 1081.97 64.64875 
" style="fill: none; stroke: #d18cad; stroke-width: 2; stroke-linecap: square"/>
    </g>
    <g id="text_22">
     <!-- United Kingdom -->
     <g transform="translate(1088.37 67.44875)scale(0.08 -0.08)">
      <defs>
       <path id="DejaVuSans-55" d="M 556 4666 
L 1191 4666 
L 1191 1831 
Q 1191 1081 1462 751 
Q 1734 422 2344 422 
Q 2950 422 3222 751 
Q 3494 1081 3494 1831 
L 3494 4666 
L 4128 4666 
L 4128 1753 
Q 4128 841 3676 375 
Q 3225 -91 2344 -91 
Q 1459 -91 1007 375 
Q 556 841 556 1753 
L 556 4666 
z
" transform="scale(0.015625)"/>
       <path id="DejaVuSans-4b" d="M 628 4666 
L 1259 4666 
L 1259 2694 
L 3353 4666 
L 4166 4666 
L 1850 2491 
L 4331 0 
L 3500 0 
L 1259 2247 
L 1259 0 
L 628 0 
L 628 4666 
z
" transform="scale(0.015625)"/>
      </defs>
      <use xlink:href="#DejaVuSans-55"/>
      <use xlink:href="#DejaVuSans-6e" x="73.193359"/>
      <use xlink:href="#DejaVuSans-69" x="136.572266"/>
      <use xlink:href="#DejaVuSans-74" x="164.355469"/>
      <use xlink:href="#DejaVuSans-65" x="203.564453"/>
      <use xlink:href="#DejaVuSans-64" x="265.087891"/>
      <use xlink:href="#DejaVuSans-20" x="328.564453"/>
      <use xlink:href="#DejaVuSans-4b" x="360.351562"/>
      <use xlink:href="#DejaVuSans-69" x="425.927734"/>
      <use xlink:href="#DejaVuSans-6e" x="453.710938"/>
      <use xlink:href="#DejaVuSans-67" x="517.089844"/>
      <use xlink:href="#DejaVuSans-64" x="580.566406"/>
      <use xlink:href="#DejaVuSans-6f" x="644.042969"/>
      <use xlink:href="#DejaVuSans-6d" x="705.224609"/>
     </g>
    </g>
    <g id="line2d_28">
     <path d="M 1065.97 76.39125 
L 1073.97 76.39125 
L 1081.97 76.39125 
" style="fill: none; stroke: #a4a86f; stroke-width: 2; stroke-linecap: square"/>
    </g>
    <g id="text_23">
     <!-- Oceania -->
     <g transform="translate(1088.37 79.19125)scale(0.08 -0.08)">
      <defs>
       <path id="DejaVuSans-4f" d="M 2522 4238 
Q 1834 4238 1429 3725 
Q 1025 3213 1025 2328 
Q 1025 1447 1429 934 
Q 1834 422 2522 422 
Q 3209 422 3611 934 
Q 4013 1447 4013 2328 
Q 4013 3213 3611 3725 
Q 3209 4238 2522 4238 
z
M 2522 4750 
Q 3503 4750 4090 4092 
Q 4678 3434 4678 2328 
Q 4678 1225 4090 567 
Q 3503 -91 2522 -91 
Q 1538 -91 948 565 
Q 359 1222 359 2328 
Q 359 3434 948 4092 
Q 1538 4750 2522 4750 
z
" transform="scale(0.015625)"/>
      </defs>
      <use xlink:href="#DejaVuSans-4f"/>
      <use xlink:href="#DejaVuSans-63" x="78.710938"/>
      <use xlink:href="#DejaVuSans-65" x="133.691406"/>
      <use xlink:href="#DejaVuSans-61" x="195.214844"/>
      <use xlink:href="#DejaVuSans-6e" x="256.494141"/>
      <use xlink:href="#DejaVuSans-69" x="319.873047"/>
      <use xlink:href="#DejaVuSans-61" x="347.65625"/>
     </g>
    </g>
    <g id="line2d_29">
     <path d="M 1065.97 88.13375 
L 1073.97 88.13375 
L 1081.97 88.13375 
" style="fill: none; stroke: #d3d3d3; stroke-width: 2; stroke-linecap: square"/>
    </g>
    <g id="text_24">
     <!-- South America -->
     <g transform="translate(1088.37 90.93375)scale(0.08 -0.08)">
      <defs>
       <path id="DejaVuSans-53" d="M 3425 4513 
L 3425 3897 
Q 3066 4069 2747 4153 
Q 2428 4238 2131 4238 
Q 1616 4238 1336 4038 
Q 1056 3838 1056 3469 
Q 1056 3159 1242 3001 
Q 1428 2844 1947 2747 
L 2328 2669 
Q 3034 2534 3370 2195 
Q 3706 1856 3706 1288 
Q 3706 609 3251 259 
Q 2797 -91 1919 -91 
Q 1588 -91 1214 -16 
Q 841 59 441 206 
L 441 856 
Q 825 641 1194 531 
Q 1563 422 1919 422 
Q 2459 422 2753 634 
Q 3047 847 3047 1241 
Q 3047 1584 2836 1778 
Q 2625 1972 2144 2069 
L 1759 2144 
Q 1053 2284 737 2584 
Q 422 2884 422 3419 
Q 422 4038 858 4394 
Q 1294 4750 2059 4750 
Q 2388 4750 2728 4690 
Q 3069 4631 3425 4513 
z
" transform="scale(0.015625)"/>
      </defs>
      <use xlink:href="#DejaVuSans-53"/>
      <use xlink:href="#DejaVuSans-6f" x="63.476562"/>
      <use xlink:href="#DejaVuSans-75" x="124.658203"/>
      <use xlink:href="#DejaVuSans-74" x="188.037109"/>
      <use xlink:href="#DejaVuSans-68" x="227.246094"/>
      <use xlink:href="#DejaVuSans-20" x="290.625"/>
      <use xlink:href="#DejaVuSans-41" x="322.412109"/>
      <use xlink:href="#DejaVuSans-6d" x="390.820312"/>
      <use xlink:href="#DejaVuSans-65" x="488.232422"/>
      <use xlink:href="#DejaVuSans-72" x="549.755859"/>
      <use xlink:href="#DejaVuSans-69" x="590.869141"/>
      <use xlink:href="#DejaVuSans-63" x="618.652344"/>
      <use xlink:href="#DejaVuSans-61" x="673.632812"/>
     </g>
    </g>
   </g>
  </g>
 </g>
 <defs>
  <clipPath id="p03dd4e5379">
   <rect x="43.78125" y="7.2" width="1116" height="221.76"/>
  </clipPath>
 </defs>
</svg>
