<?xml version="1.0" encoding="utf-8" standalone="no"?>
<!DOCTYPE svg PUBLIC "-//W3C//DTD SVG 1.1//EN"
  "http://www.w3.org/Graphics/SVG/1.1/DTD/svg11.dtd">
<svg height="298.620937pt" version="1.1" viewBox="0 0 1166.98125 298.620937" width="1166.98125pt" xmlns="http://www.w3.org/2000/svg" xmlns:xlink="http://www.w3.org/1999/xlink">
 <metadata>
  <rdf:RDF xmlns:cc="http://creativecommons.org/ns#" xmlns:dc="http://purl.org/dc/elements/1.1/" xmlns:rdf="http://www.w3.org/1999/02/22-rdf-syntax-ns#">
   <cc:Work>
    <dc:type rdf:resource="http://purl.org/dc/dcmitype/StillImage"/>
    <dc:date>2021-09-24T10:59:46.441832</dc:date>
    <dc:format>image/svg+xml</dc:format>
    <dc:creator>
     <cc:Agent>
      <dc:title>Matplotlib v3.4.2, https://matplotlib.org/</dc:title>
     </cc:Agent>
    </dc:creator>
   </cc:Work>
  </rdf:RDF>
 </metadata>
 <defs>
  <style type="text/css">*{stroke-linecap:butt;stroke-linejoin:round;}</style>
 </defs>
 <g id="figure_1">
  <g id="patch_1">
   <path d="M 0 298.620937 
L 1166.98125 298.620937 
L 1166.98125 0 
L 0 0 
z
" style="fill:#ffffff;"/>
  </g>
  <g id="axes_1">
   <g id="patch_2">
    <path d="M 43.78125 228.96 
L 1159.78125 228.96 
L 1159.78125 7.2 
L 43.78125 7.2 
z
" style="fill:#ffffff;"/>
   </g>
   <g id="matplotlib.axis_1">
    <g id="xtick_1">
     <g id="line2d_1">
      <defs>
       <path d="M 0 0 
L 0 3.5 
" id="m77fc94d424" style="stroke:#000000;stroke-width:0.8;"/>
      </defs>
      <g>
       <use style="stroke:#000000;stroke-width:0.8;" x="83.51074" xlink:href="#m77fc94d424" y="228.96"/>
      </g>
     </g>
     <g id="text_1">
      <!-- 2020-09 -->
      <g transform="translate(86.270115 277.742812)rotate(-90)scale(0.1 -0.1)">
       <defs>
        <path d="M 1228 531 
L 3431 531 
L 3431 0 
L 469 0 
L 469 531 
Q 828 903 1448 1529 
Q 2069 2156 2228 2338 
Q 2531 2678 2651 2914 
Q 2772 3150 2772 3378 
Q 2772 3750 2511 3984 
Q 2250 4219 1831 4219 
Q 1534 4219 1204 4116 
Q 875 4013 500 3803 
L 500 4441 
Q 881 4594 1212 4672 
Q 1544 4750 1819 4750 
Q 2544 4750 2975 4387 
Q 3406 4025 3406 3419 
Q 3406 3131 3298 2873 
Q 3191 2616 2906 2266 
Q 2828 2175 2409 1742 
Q 1991 1309 1228 531 
z
" id="DejaVuSans-32" transform="scale(0.015625)"/>
        <path d="M 2034 4250 
Q 1547 4250 1301 3770 
Q 1056 3291 1056 2328 
Q 1056 1369 1301 889 
Q 1547 409 2034 409 
Q 2525 409 2770 889 
Q 3016 1369 3016 2328 
Q 3016 3291 2770 3770 
Q 2525 4250 2034 4250 
z
M 2034 4750 
Q 2819 4750 3233 4129 
Q 3647 3509 3647 2328 
Q 3647 1150 3233 529 
Q 2819 -91 2034 -91 
Q 1250 -91 836 529 
Q 422 1150 422 2328 
Q 422 3509 836 4129 
Q 1250 4750 2034 4750 
z
" id="DejaVuSans-30" transform="scale(0.015625)"/>
        <path d="M 313 2009 
L 1997 2009 
L 1997 1497 
L 313 1497 
L 313 2009 
z
" id="DejaVuSans-2d" transform="scale(0.015625)"/>
        <path d="M 703 97 
L 703 672 
Q 941 559 1184 500 
Q 1428 441 1663 441 
Q 2288 441 2617 861 
Q 2947 1281 2994 2138 
Q 2813 1869 2534 1725 
Q 2256 1581 1919 1581 
Q 1219 1581 811 2004 
Q 403 2428 403 3163 
Q 403 3881 828 4315 
Q 1253 4750 1959 4750 
Q 2769 4750 3195 4129 
Q 3622 3509 3622 2328 
Q 3622 1225 3098 567 
Q 2575 -91 1691 -91 
Q 1453 -91 1209 -44 
Q 966 3 703 97 
z
M 1959 2075 
Q 2384 2075 2632 2365 
Q 2881 2656 2881 3163 
Q 2881 3666 2632 3958 
Q 2384 4250 1959 4250 
Q 1534 4250 1286 3958 
Q 1038 3666 1038 3163 
Q 1038 2656 1286 2365 
Q 1534 2075 1959 2075 
z
" id="DejaVuSans-39" transform="scale(0.015625)"/>
       </defs>
       <use xlink:href="#DejaVuSans-32"/>
       <use x="63.623047" xlink:href="#DejaVuSans-30"/>
       <use x="127.246094" xlink:href="#DejaVuSans-32"/>
       <use x="190.869141" xlink:href="#DejaVuSans-30"/>
       <use x="254.492188" xlink:href="#DejaVuSans-2d"/>
       <use x="290.576172" xlink:href="#DejaVuSans-30"/>
       <use x="354.199219" xlink:href="#DejaVuSans-39"/>
      </g>
     </g>
    </g>
    <g id="xtick_2">
     <g id="line2d_2">
      <g>
       <use style="stroke:#000000;stroke-width:0.8;" x="251.226926" xlink:href="#m77fc94d424" y="228.96"/>
      </g>
     </g>
     <g id="text_2">
      <!-- 2020-11 -->
      <g transform="translate(253.986301 277.742812)rotate(-90)scale(0.1 -0.1)">
       <defs>
        <path d="M 794 531 
L 1825 531 
L 1825 4091 
L 703 3866 
L 703 4441 
L 1819 4666 
L 2450 4666 
L 2450 531 
L 3481 531 
L 3481 0 
L 794 0 
L 794 531 
z
" id="DejaVuSans-31" transform="scale(0.015625)"/>
       </defs>
       <use xlink:href="#DejaVuSans-32"/>
       <use x="63.623047" xlink:href="#DejaVuSans-30"/>
       <use x="127.246094" xlink:href="#DejaVuSans-32"/>
       <use x="190.869141" xlink:href="#DejaVuSans-30"/>
       <use x="254.492188" xlink:href="#DejaVuSans-2d"/>
       <use x="290.576172" xlink:href="#DejaVuSans-31"/>
       <use x="354.199219" xlink:href="#DejaVuSans-31"/>
      </g>
     </g>
    </g>
    <g id="xtick_3">
     <g id="line2d_3">
      <g>
       <use style="stroke:#000000;stroke-width:0.8;" x="418.943113" xlink:href="#m77fc94d424" y="228.96"/>
      </g>
     </g>
     <g id="text_3">
      <!-- 2021-01 -->
      <g transform="translate(421.702488 277.742812)rotate(-90)scale(0.1 -0.1)">
       <use xlink:href="#DejaVuSans-32"/>
       <use x="63.623047" xlink:href="#DejaVuSans-30"/>
       <use x="127.246094" xlink:href="#DejaVuSans-32"/>
       <use x="190.869141" xlink:href="#DejaVuSans-31"/>
       <use x="254.492188" xlink:href="#DejaVuSans-2d"/>
       <use x="290.576172" xlink:href="#DejaVuSans-30"/>
       <use x="354.199219" xlink:href="#DejaVuSans-31"/>
      </g>
     </g>
    </g>
    <g id="xtick_4">
     <g id="line2d_4">
      <g>
       <use style="stroke:#000000;stroke-width:0.8;" x="581.160407" xlink:href="#m77fc94d424" y="228.96"/>
      </g>
     </g>
     <g id="text_4">
      <!-- 2021-03 -->
      <g transform="translate(583.919782 277.742812)rotate(-90)scale(0.1 -0.1)">
       <defs>
        <path d="M 2597 2516 
Q 3050 2419 3304 2112 
Q 3559 1806 3559 1356 
Q 3559 666 3084 287 
Q 2609 -91 1734 -91 
Q 1441 -91 1130 -33 
Q 819 25 488 141 
L 488 750 
Q 750 597 1062 519 
Q 1375 441 1716 441 
Q 2309 441 2620 675 
Q 2931 909 2931 1356 
Q 2931 1769 2642 2001 
Q 2353 2234 1838 2234 
L 1294 2234 
L 1294 2753 
L 1863 2753 
Q 2328 2753 2575 2939 
Q 2822 3125 2822 3475 
Q 2822 3834 2567 4026 
Q 2313 4219 1838 4219 
Q 1578 4219 1281 4162 
Q 984 4106 628 3988 
L 628 4550 
Q 988 4650 1302 4700 
Q 1616 4750 1894 4750 
Q 2613 4750 3031 4423 
Q 3450 4097 3450 3541 
Q 3450 3153 3228 2886 
Q 3006 2619 2597 2516 
z
" id="DejaVuSans-33" transform="scale(0.015625)"/>
       </defs>
       <use xlink:href="#DejaVuSans-32"/>
       <use x="63.623047" xlink:href="#DejaVuSans-30"/>
       <use x="127.246094" xlink:href="#DejaVuSans-32"/>
       <use x="190.869141" xlink:href="#DejaVuSans-31"/>
       <use x="254.492188" xlink:href="#DejaVuSans-2d"/>
       <use x="290.576172" xlink:href="#DejaVuSans-30"/>
       <use x="354.199219" xlink:href="#DejaVuSans-33"/>
      </g>
     </g>
    </g>
    <g id="xtick_5">
     <g id="line2d_5">
      <g>
       <use style="stroke:#000000;stroke-width:0.8;" x="748.876594" xlink:href="#m77fc94d424" y="228.96"/>
      </g>
     </g>
     <g id="text_5">
      <!-- 2021-05 -->
      <g transform="translate(751.635969 277.742812)rotate(-90)scale(0.1 -0.1)">
       <defs>
        <path d="M 691 4666 
L 3169 4666 
L 3169 4134 
L 1269 4134 
L 1269 2991 
Q 1406 3038 1543 3061 
Q 1681 3084 1819 3084 
Q 2600 3084 3056 2656 
Q 3513 2228 3513 1497 
Q 3513 744 3044 326 
Q 2575 -91 1722 -91 
Q 1428 -91 1123 -41 
Q 819 9 494 109 
L 494 744 
Q 775 591 1075 516 
Q 1375 441 1709 441 
Q 2250 441 2565 725 
Q 2881 1009 2881 1497 
Q 2881 1984 2565 2268 
Q 2250 2553 1709 2553 
Q 1456 2553 1204 2497 
Q 953 2441 691 2322 
L 691 4666 
z
" id="DejaVuSans-35" transform="scale(0.015625)"/>
       </defs>
       <use xlink:href="#DejaVuSans-32"/>
       <use x="63.623047" xlink:href="#DejaVuSans-30"/>
       <use x="127.246094" xlink:href="#DejaVuSans-32"/>
       <use x="190.869141" xlink:href="#DejaVuSans-31"/>
       <use x="254.492188" xlink:href="#DejaVuSans-2d"/>
       <use x="290.576172" xlink:href="#DejaVuSans-30"/>
       <use x="354.199219" xlink:href="#DejaVuSans-35"/>
      </g>
     </g>
    </g>
    <g id="xtick_6">
     <g id="line2d_6">
      <g>
       <use style="stroke:#000000;stroke-width:0.8;" x="916.59278" xlink:href="#m77fc94d424" y="228.96"/>
      </g>
     </g>
     <g id="text_6">
      <!-- 2021-07 -->
      <g transform="translate(919.352155 277.742812)rotate(-90)scale(0.1 -0.1)">
       <defs>
        <path d="M 525 4666 
L 3525 4666 
L 3525 4397 
L 1831 0 
L 1172 0 
L 2766 4134 
L 525 4134 
L 525 4666 
z
" id="DejaVuSans-37" transform="scale(0.015625)"/>
       </defs>
       <use xlink:href="#DejaVuSans-32"/>
       <use x="63.623047" xlink:href="#DejaVuSans-30"/>
       <use x="127.246094" xlink:href="#DejaVuSans-32"/>
       <use x="190.869141" xlink:href="#DejaVuSans-31"/>
       <use x="254.492188" xlink:href="#DejaVuSans-2d"/>
       <use x="290.576172" xlink:href="#DejaVuSans-30"/>
       <use x="354.199219" xlink:href="#DejaVuSans-37"/>
      </g>
     </g>
    </g>
    <g id="xtick_7">
     <g id="line2d_7">
      <g>
       <use style="stroke:#000000;stroke-width:0.8;" x="1087.058412" xlink:href="#m77fc94d424" y="228.96"/>
      </g>
     </g>
     <g id="text_7">
      <!-- 2021-09 -->
      <g transform="translate(1089.817787 277.742812)rotate(-90)scale(0.1 -0.1)">
       <use xlink:href="#DejaVuSans-32"/>
       <use x="63.623047" xlink:href="#DejaVuSans-30"/>
       <use x="127.246094" xlink:href="#DejaVuSans-32"/>
       <use x="190.869141" xlink:href="#DejaVuSans-31"/>
       <use x="254.492188" xlink:href="#DejaVuSans-2d"/>
       <use x="290.576172" xlink:href="#DejaVuSans-30"/>
       <use x="354.199219" xlink:href="#DejaVuSans-39"/>
      </g>
     </g>
    </g>
    <g id="text_8">
     <!-- Date -->
     <g transform="translate(589.830469 289.34125)scale(0.1 -0.1)">
      <defs>
       <path d="M 1259 4147 
L 1259 519 
L 2022 519 
Q 2988 519 3436 956 
Q 3884 1394 3884 2338 
Q 3884 3275 3436 3711 
Q 2988 4147 2022 4147 
L 1259 4147 
z
M 628 4666 
L 1925 4666 
Q 3281 4666 3915 4102 
Q 4550 3538 4550 2338 
Q 4550 1131 3912 565 
Q 3275 0 1925 0 
L 628 0 
L 628 4666 
z
" id="DejaVuSans-44" transform="scale(0.015625)"/>
       <path d="M 2194 1759 
Q 1497 1759 1228 1600 
Q 959 1441 959 1056 
Q 959 750 1161 570 
Q 1363 391 1709 391 
Q 2188 391 2477 730 
Q 2766 1069 2766 1631 
L 2766 1759 
L 2194 1759 
z
M 3341 1997 
L 3341 0 
L 2766 0 
L 2766 531 
Q 2569 213 2275 61 
Q 1981 -91 1556 -91 
Q 1019 -91 701 211 
Q 384 513 384 1019 
Q 384 1609 779 1909 
Q 1175 2209 1959 2209 
L 2766 2209 
L 2766 2266 
Q 2766 2663 2505 2880 
Q 2244 3097 1772 3097 
Q 1472 3097 1187 3025 
Q 903 2953 641 2809 
L 641 3341 
Q 956 3463 1253 3523 
Q 1550 3584 1831 3584 
Q 2591 3584 2966 3190 
Q 3341 2797 3341 1997 
z
" id="DejaVuSans-61" transform="scale(0.015625)"/>
       <path d="M 1172 4494 
L 1172 3500 
L 2356 3500 
L 2356 3053 
L 1172 3053 
L 1172 1153 
Q 1172 725 1289 603 
Q 1406 481 1766 481 
L 2356 481 
L 2356 0 
L 1766 0 
Q 1100 0 847 248 
Q 594 497 594 1153 
L 594 3053 
L 172 3053 
L 172 3500 
L 594 3500 
L 594 4494 
L 1172 4494 
z
" id="DejaVuSans-74" transform="scale(0.015625)"/>
       <path d="M 3597 1894 
L 3597 1613 
L 953 1613 
Q 991 1019 1311 708 
Q 1631 397 2203 397 
Q 2534 397 2845 478 
Q 3156 559 3463 722 
L 3463 178 
Q 3153 47 2828 -22 
Q 2503 -91 2169 -91 
Q 1331 -91 842 396 
Q 353 884 353 1716 
Q 353 2575 817 3079 
Q 1281 3584 2069 3584 
Q 2775 3584 3186 3129 
Q 3597 2675 3597 1894 
z
M 3022 2063 
Q 3016 2534 2758 2815 
Q 2500 3097 2075 3097 
Q 1594 3097 1305 2825 
Q 1016 2553 972 2059 
L 3022 2063 
z
" id="DejaVuSans-65" transform="scale(0.015625)"/>
      </defs>
      <use xlink:href="#DejaVuSans-44"/>
      <use x="77.001953" xlink:href="#DejaVuSans-61"/>
      <use x="138.28125" xlink:href="#DejaVuSans-74"/>
      <use x="177.490234" xlink:href="#DejaVuSans-65"/>
     </g>
    </g>
   </g>
   <g id="matplotlib.axis_2">
    <g id="ytick_1">
     <g id="line2d_8">
      <defs>
       <path d="M 0 0 
L -3.5 0 
" id="mf691e468de" style="stroke:#000000;stroke-width:0.8;"/>
      </defs>
      <g>
       <use style="stroke:#000000;stroke-width:0.8;" x="43.78125" xlink:href="#mf691e468de" y="228.96"/>
      </g>
     </g>
     <g id="text_9">
      <!-- 0.0 -->
      <g transform="translate(20.878125 232.759219)scale(0.1 -0.1)">
       <defs>
        <path d="M 684 794 
L 1344 794 
L 1344 0 
L 684 0 
L 684 794 
z
" id="DejaVuSans-2e" transform="scale(0.015625)"/>
       </defs>
       <use xlink:href="#DejaVuSans-30"/>
       <use x="63.623047" xlink:href="#DejaVuSans-2e"/>
       <use x="95.410156" xlink:href="#DejaVuSans-30"/>
      </g>
     </g>
    </g>
    <g id="ytick_2">
     <g id="line2d_9">
      <g>
       <use style="stroke:#000000;stroke-width:0.8;" x="43.78125" xlink:href="#mf691e468de" y="182.220088"/>
      </g>
     </g>
     <g id="text_10">
      <!-- 0.2 -->
      <g transform="translate(20.878125 186.019307)scale(0.1 -0.1)">
       <use xlink:href="#DejaVuSans-30"/>
       <use x="63.623047" xlink:href="#DejaVuSans-2e"/>
       <use x="95.410156" xlink:href="#DejaVuSans-32"/>
      </g>
     </g>
    </g>
    <g id="ytick_3">
     <g id="line2d_10">
      <g>
       <use style="stroke:#000000;stroke-width:0.8;" x="43.78125" xlink:href="#mf691e468de" y="135.480176"/>
      </g>
     </g>
     <g id="text_11">
      <!-- 0.4 -->
      <g transform="translate(20.878125 139.279395)scale(0.1 -0.1)">
       <defs>
        <path d="M 2419 4116 
L 825 1625 
L 2419 1625 
L 2419 4116 
z
M 2253 4666 
L 3047 4666 
L 3047 1625 
L 3713 1625 
L 3713 1100 
L 3047 1100 
L 3047 0 
L 2419 0 
L 2419 1100 
L 313 1100 
L 313 1709 
L 2253 4666 
z
" id="DejaVuSans-34" transform="scale(0.015625)"/>
       </defs>
       <use xlink:href="#DejaVuSans-30"/>
       <use x="63.623047" xlink:href="#DejaVuSans-2e"/>
       <use x="95.410156" xlink:href="#DejaVuSans-34"/>
      </g>
     </g>
    </g>
    <g id="ytick_4">
     <g id="line2d_11">
      <g>
       <use style="stroke:#000000;stroke-width:0.8;" x="43.78125" xlink:href="#mf691e468de" y="88.740265"/>
      </g>
     </g>
     <g id="text_12">
      <!-- 0.6 -->
      <g transform="translate(20.878125 92.539483)scale(0.1 -0.1)">
       <defs>
        <path d="M 2113 2584 
Q 1688 2584 1439 2293 
Q 1191 2003 1191 1497 
Q 1191 994 1439 701 
Q 1688 409 2113 409 
Q 2538 409 2786 701 
Q 3034 994 3034 1497 
Q 3034 2003 2786 2293 
Q 2538 2584 2113 2584 
z
M 3366 4563 
L 3366 3988 
Q 3128 4100 2886 4159 
Q 2644 4219 2406 4219 
Q 1781 4219 1451 3797 
Q 1122 3375 1075 2522 
Q 1259 2794 1537 2939 
Q 1816 3084 2150 3084 
Q 2853 3084 3261 2657 
Q 3669 2231 3669 1497 
Q 3669 778 3244 343 
Q 2819 -91 2113 -91 
Q 1303 -91 875 529 
Q 447 1150 447 2328 
Q 447 3434 972 4092 
Q 1497 4750 2381 4750 
Q 2619 4750 2861 4703 
Q 3103 4656 3366 4563 
z
" id="DejaVuSans-36" transform="scale(0.015625)"/>
       </defs>
       <use xlink:href="#DejaVuSans-30"/>
       <use x="63.623047" xlink:href="#DejaVuSans-2e"/>
       <use x="95.410156" xlink:href="#DejaVuSans-36"/>
      </g>
     </g>
    </g>
    <g id="ytick_5">
     <g id="line2d_12">
      <g>
       <use style="stroke:#000000;stroke-width:0.8;" x="43.78125" xlink:href="#mf691e468de" y="42.000353"/>
      </g>
     </g>
     <g id="text_13">
      <!-- 0.8 -->
      <g transform="translate(20.878125 45.799572)scale(0.1 -0.1)">
       <defs>
        <path d="M 2034 2216 
Q 1584 2216 1326 1975 
Q 1069 1734 1069 1313 
Q 1069 891 1326 650 
Q 1584 409 2034 409 
Q 2484 409 2743 651 
Q 3003 894 3003 1313 
Q 3003 1734 2745 1975 
Q 2488 2216 2034 2216 
z
M 1403 2484 
Q 997 2584 770 2862 
Q 544 3141 544 3541 
Q 544 4100 942 4425 
Q 1341 4750 2034 4750 
Q 2731 4750 3128 4425 
Q 3525 4100 3525 3541 
Q 3525 3141 3298 2862 
Q 3072 2584 2669 2484 
Q 3125 2378 3379 2068 
Q 3634 1759 3634 1313 
Q 3634 634 3220 271 
Q 2806 -91 2034 -91 
Q 1263 -91 848 271 
Q 434 634 434 1313 
Q 434 1759 690 2068 
Q 947 2378 1403 2484 
z
M 1172 3481 
Q 1172 3119 1398 2916 
Q 1625 2713 2034 2713 
Q 2441 2713 2670 2916 
Q 2900 3119 2900 3481 
Q 2900 3844 2670 4047 
Q 2441 4250 2034 4250 
Q 1625 4250 1398 4047 
Q 1172 3844 1172 3481 
z
" id="DejaVuSans-38" transform="scale(0.015625)"/>
       </defs>
       <use xlink:href="#DejaVuSans-30"/>
       <use x="63.623047" xlink:href="#DejaVuSans-2e"/>
       <use x="95.410156" xlink:href="#DejaVuSans-38"/>
      </g>
     </g>
    </g>
    <g id="text_14">
     <!-- Frequency (7 day rolling average) -->
     <g transform="translate(14.798437 202.529219)rotate(-90)scale(0.1 -0.1)">
      <defs>
       <path d="M 628 4666 
L 3309 4666 
L 3309 4134 
L 1259 4134 
L 1259 2759 
L 3109 2759 
L 3109 2228 
L 1259 2228 
L 1259 0 
L 628 0 
L 628 4666 
z
" id="DejaVuSans-46" transform="scale(0.015625)"/>
       <path d="M 2631 2963 
Q 2534 3019 2420 3045 
Q 2306 3072 2169 3072 
Q 1681 3072 1420 2755 
Q 1159 2438 1159 1844 
L 1159 0 
L 581 0 
L 581 3500 
L 1159 3500 
L 1159 2956 
Q 1341 3275 1631 3429 
Q 1922 3584 2338 3584 
Q 2397 3584 2469 3576 
Q 2541 3569 2628 3553 
L 2631 2963 
z
" id="DejaVuSans-72" transform="scale(0.015625)"/>
       <path d="M 947 1747 
Q 947 1113 1208 752 
Q 1469 391 1925 391 
Q 2381 391 2643 752 
Q 2906 1113 2906 1747 
Q 2906 2381 2643 2742 
Q 2381 3103 1925 3103 
Q 1469 3103 1208 2742 
Q 947 2381 947 1747 
z
M 2906 525 
Q 2725 213 2448 61 
Q 2172 -91 1784 -91 
Q 1150 -91 751 415 
Q 353 922 353 1747 
Q 353 2572 751 3078 
Q 1150 3584 1784 3584 
Q 2172 3584 2448 3432 
Q 2725 3281 2906 2969 
L 2906 3500 
L 3481 3500 
L 3481 -1331 
L 2906 -1331 
L 2906 525 
z
" id="DejaVuSans-71" transform="scale(0.015625)"/>
       <path d="M 544 1381 
L 544 3500 
L 1119 3500 
L 1119 1403 
Q 1119 906 1312 657 
Q 1506 409 1894 409 
Q 2359 409 2629 706 
Q 2900 1003 2900 1516 
L 2900 3500 
L 3475 3500 
L 3475 0 
L 2900 0 
L 2900 538 
Q 2691 219 2414 64 
Q 2138 -91 1772 -91 
Q 1169 -91 856 284 
Q 544 659 544 1381 
z
M 1991 3584 
L 1991 3584 
z
" id="DejaVuSans-75" transform="scale(0.015625)"/>
       <path d="M 3513 2113 
L 3513 0 
L 2938 0 
L 2938 2094 
Q 2938 2591 2744 2837 
Q 2550 3084 2163 3084 
Q 1697 3084 1428 2787 
Q 1159 2491 1159 1978 
L 1159 0 
L 581 0 
L 581 3500 
L 1159 3500 
L 1159 2956 
Q 1366 3272 1645 3428 
Q 1925 3584 2291 3584 
Q 2894 3584 3203 3211 
Q 3513 2838 3513 2113 
z
" id="DejaVuSans-6e" transform="scale(0.015625)"/>
       <path d="M 3122 3366 
L 3122 2828 
Q 2878 2963 2633 3030 
Q 2388 3097 2138 3097 
Q 1578 3097 1268 2742 
Q 959 2388 959 1747 
Q 959 1106 1268 751 
Q 1578 397 2138 397 
Q 2388 397 2633 464 
Q 2878 531 3122 666 
L 3122 134 
Q 2881 22 2623 -34 
Q 2366 -91 2075 -91 
Q 1284 -91 818 406 
Q 353 903 353 1747 
Q 353 2603 823 3093 
Q 1294 3584 2113 3584 
Q 2378 3584 2631 3529 
Q 2884 3475 3122 3366 
z
" id="DejaVuSans-63" transform="scale(0.015625)"/>
       <path d="M 2059 -325 
Q 1816 -950 1584 -1140 
Q 1353 -1331 966 -1331 
L 506 -1331 
L 506 -850 
L 844 -850 
Q 1081 -850 1212 -737 
Q 1344 -625 1503 -206 
L 1606 56 
L 191 3500 
L 800 3500 
L 1894 763 
L 2988 3500 
L 3597 3500 
L 2059 -325 
z
" id="DejaVuSans-79" transform="scale(0.015625)"/>
       <path id="DejaVuSans-20" transform="scale(0.015625)"/>
       <path d="M 1984 4856 
Q 1566 4138 1362 3434 
Q 1159 2731 1159 2009 
Q 1159 1288 1364 580 
Q 1569 -128 1984 -844 
L 1484 -844 
Q 1016 -109 783 600 
Q 550 1309 550 2009 
Q 550 2706 781 3412 
Q 1013 4119 1484 4856 
L 1984 4856 
z
" id="DejaVuSans-28" transform="scale(0.015625)"/>
       <path d="M 2906 2969 
L 2906 4863 
L 3481 4863 
L 3481 0 
L 2906 0 
L 2906 525 
Q 2725 213 2448 61 
Q 2172 -91 1784 -91 
Q 1150 -91 751 415 
Q 353 922 353 1747 
Q 353 2572 751 3078 
Q 1150 3584 1784 3584 
Q 2172 3584 2448 3432 
Q 2725 3281 2906 2969 
z
M 947 1747 
Q 947 1113 1208 752 
Q 1469 391 1925 391 
Q 2381 391 2643 752 
Q 2906 1113 2906 1747 
Q 2906 2381 2643 2742 
Q 2381 3103 1925 3103 
Q 1469 3103 1208 2742 
Q 947 2381 947 1747 
z
" id="DejaVuSans-64" transform="scale(0.015625)"/>
       <path d="M 1959 3097 
Q 1497 3097 1228 2736 
Q 959 2375 959 1747 
Q 959 1119 1226 758 
Q 1494 397 1959 397 
Q 2419 397 2687 759 
Q 2956 1122 2956 1747 
Q 2956 2369 2687 2733 
Q 2419 3097 1959 3097 
z
M 1959 3584 
Q 2709 3584 3137 3096 
Q 3566 2609 3566 1747 
Q 3566 888 3137 398 
Q 2709 -91 1959 -91 
Q 1206 -91 779 398 
Q 353 888 353 1747 
Q 353 2609 779 3096 
Q 1206 3584 1959 3584 
z
" id="DejaVuSans-6f" transform="scale(0.015625)"/>
       <path d="M 603 4863 
L 1178 4863 
L 1178 0 
L 603 0 
L 603 4863 
z
" id="DejaVuSans-6c" transform="scale(0.015625)"/>
       <path d="M 603 3500 
L 1178 3500 
L 1178 0 
L 603 0 
L 603 3500 
z
M 603 4863 
L 1178 4863 
L 1178 4134 
L 603 4134 
L 603 4863 
z
" id="DejaVuSans-69" transform="scale(0.015625)"/>
       <path d="M 2906 1791 
Q 2906 2416 2648 2759 
Q 2391 3103 1925 3103 
Q 1463 3103 1205 2759 
Q 947 2416 947 1791 
Q 947 1169 1205 825 
Q 1463 481 1925 481 
Q 2391 481 2648 825 
Q 2906 1169 2906 1791 
z
M 3481 434 
Q 3481 -459 3084 -895 
Q 2688 -1331 1869 -1331 
Q 1566 -1331 1297 -1286 
Q 1028 -1241 775 -1147 
L 775 -588 
Q 1028 -725 1275 -790 
Q 1522 -856 1778 -856 
Q 2344 -856 2625 -561 
Q 2906 -266 2906 331 
L 2906 616 
Q 2728 306 2450 153 
Q 2172 0 1784 0 
Q 1141 0 747 490 
Q 353 981 353 1791 
Q 353 2603 747 3093 
Q 1141 3584 1784 3584 
Q 2172 3584 2450 3431 
Q 2728 3278 2906 2969 
L 2906 3500 
L 3481 3500 
L 3481 434 
z
" id="DejaVuSans-67" transform="scale(0.015625)"/>
       <path d="M 191 3500 
L 800 3500 
L 1894 563 
L 2988 3500 
L 3597 3500 
L 2284 0 
L 1503 0 
L 191 3500 
z
" id="DejaVuSans-76" transform="scale(0.015625)"/>
       <path d="M 513 4856 
L 1013 4856 
Q 1481 4119 1714 3412 
Q 1947 2706 1947 2009 
Q 1947 1309 1714 600 
Q 1481 -109 1013 -844 
L 513 -844 
Q 928 -128 1133 580 
Q 1338 1288 1338 2009 
Q 1338 2731 1133 3434 
Q 928 4138 513 4856 
z
" id="DejaVuSans-29" transform="scale(0.015625)"/>
      </defs>
      <use xlink:href="#DejaVuSans-46"/>
      <use x="50.269531" xlink:href="#DejaVuSans-72"/>
      <use x="89.132812" xlink:href="#DejaVuSans-65"/>
      <use x="150.65625" xlink:href="#DejaVuSans-71"/>
      <use x="214.132812" xlink:href="#DejaVuSans-75"/>
      <use x="277.511719" xlink:href="#DejaVuSans-65"/>
      <use x="339.035156" xlink:href="#DejaVuSans-6e"/>
      <use x="402.414062" xlink:href="#DejaVuSans-63"/>
      <use x="457.394531" xlink:href="#DejaVuSans-79"/>
      <use x="516.574219" xlink:href="#DejaVuSans-20"/>
      <use x="548.361328" xlink:href="#DejaVuSans-28"/>
      <use x="587.375" xlink:href="#DejaVuSans-37"/>
      <use x="650.998047" xlink:href="#DejaVuSans-20"/>
      <use x="682.785156" xlink:href="#DejaVuSans-64"/>
      <use x="746.261719" xlink:href="#DejaVuSans-61"/>
      <use x="807.541016" xlink:href="#DejaVuSans-79"/>
      <use x="866.720703" xlink:href="#DejaVuSans-20"/>
      <use x="898.507812" xlink:href="#DejaVuSans-72"/>
      <use x="937.371094" xlink:href="#DejaVuSans-6f"/>
      <use x="998.552734" xlink:href="#DejaVuSans-6c"/>
      <use x="1026.335938" xlink:href="#DejaVuSans-6c"/>
      <use x="1054.119141" xlink:href="#DejaVuSans-69"/>
      <use x="1081.902344" xlink:href="#DejaVuSans-6e"/>
      <use x="1145.28125" xlink:href="#DejaVuSans-67"/>
      <use x="1208.757812" xlink:href="#DejaVuSans-20"/>
      <use x="1240.544922" xlink:href="#DejaVuSans-61"/>
      <use x="1301.824219" xlink:href="#DejaVuSans-76"/>
      <use x="1361.003906" xlink:href="#DejaVuSans-65"/>
      <use x="1422.527344" xlink:href="#DejaVuSans-72"/>
      <use x="1463.640625" xlink:href="#DejaVuSans-61"/>
      <use x="1524.919922" xlink:href="#DejaVuSans-67"/>
      <use x="1588.396484" xlink:href="#DejaVuSans-65"/>
      <use x="1649.919922" xlink:href="#DejaVuSans-29"/>
     </g>
    </g>
   </g>
   <g id="line2d_13">
    <path clip-path="url(#p536b3b7b3d)" d="M 281.470829 198.912914 
L 284.220274 222.28287 
L 292.468611 222.28287 
L 295.218057 228.96 
L 366.703645 228.96 
L 374.951982 228.552432 
L 383.200319 228.523731 
L 391.448656 227.273962 
L 396.947547 227.055859 
L 399.696993 227.723572 
L 405.195884 228.0994 
L 410.694775 227.704824 
L 413.444221 227.57279 
L 418.943113 227.882095 
L 421.692558 227.651924 
L 429.940895 227.55927 
L 432.690341 227.111394 
L 438.189232 227.722918 
L 443.688124 227.01434 
L 446.437569 227.493468 
L 449.187015 227.204599 
L 451.936461 226.002918 
L 454.685906 225.346522 
L 457.435352 225.393894 
L 460.184798 224.508566 
L 462.934243 224.314717 
L 465.683689 225.464544 
L 468.433135 226.024288 
L 471.18258 225.470171 
L 473.932026 226.026422 
L 476.681472 226.034059 
L 479.430917 225.751318 
L 482.180363 225.792457 
L 484.929809 226.387209 
L 490.4287 225.734232 
L 493.178146 225.742341 
L 495.927591 225.22518 
L 498.677037 224.157105 
L 501.426483 223.982266 
L 504.175928 224.744044 
L 509.67482 224.329181 
L 512.424266 224.640302 
L 515.173711 224.098853 
L 517.923157 223.000559 
L 520.672603 222.85151 
L 523.422048 223.292845 
L 526.171494 223.000646 
L 528.92094 223.244176 
L 531.670385 223.219691 
L 534.419831 222.668534 
L 537.169277 221.993262 
L 539.918722 222.66829 
L 550.916505 223.455208 
L 553.665951 222.974947 
L 559.164842 222.559569 
L 564.663733 222.879097 
L 572.91207 222.048016 
L 578.410962 221.277382 
L 581.160407 221.471695 
L 583.909853 221.282517 
L 586.659299 221.596155 
L 592.15819 221.924678 
L 594.907636 222.336984 
L 597.657081 222.448308 
L 600.406527 222.688031 
L 603.155973 222.344787 
L 605.905419 222.473555 
L 608.654864 221.961331 
L 611.40431 221.681161 
L 614.153756 221.013153 
L 616.903201 220.994216 
L 619.652647 221.210851 
L 622.402093 220.87891 
L 625.151538 221.089378 
L 627.900984 221.755671 
L 630.65043 221.504569 
L 633.399875 220.916493 
L 636.149321 221.014147 
L 638.898767 221.596713 
L 641.648212 221.164556 
L 649.896549 222.140156 
L 652.645995 221.764348 
L 655.395441 221.977234 
L 658.144886 222.369234 
L 663.643778 222.021332 
L 666.393223 222.187746 
L 669.142669 221.946179 
L 671.892115 221.494053 
L 674.64156 221.705843 
L 677.391006 222.376991 
L 680.140452 222.330754 
L 685.639343 223.709918 
L 688.388789 224.05715 
L 691.138234 223.893137 
L 693.88768 224.241082 
L 696.637126 224.46173 
L 699.386572 224.085853 
L 707.634909 224.367871 
L 710.384354 224.256196 
L 713.1338 224.933703 
L 718.632691 225.238696 
L 721.382137 225.249104 
L 724.131583 225.493875 
L 729.630474 225.463768 
L 732.37992 225.056581 
L 735.129365 225.219242 
L 740.628257 224.821378 
L 743.377702 224.763365 
L 746.127148 225.28387 
L 748.876594 225.304315 
L 754.375485 225.741316 
L 759.874376 225.226028 
L 765.373268 225.349592 
L 768.122713 225.192693 
L 773.621605 226.041099 
L 776.37105 225.408484 
L 779.120496 225.337884 
L 784.619387 225.486565 
L 787.368833 225.150079 
L 790.118279 225.924872 
L 792.867725 226.373195 
L 798.366616 226.540078 
L 801.116062 226.980911 
L 806.614953 226.869716 
L 812.113844 227.333036 
L 814.86329 226.889152 
L 825.861073 226.513505 
L 831.359964 227.13783 
L 847.856638 227.766854 
L 850.606084 227.722097 
L 853.355529 227.463889 
L 858.854421 227.36913 
L 864.353312 227.098187 
L 867.102758 227.384762 
L 875.351095 227.553257 
L 878.10054 227.722811 
L 886.348877 227.43696 
L 891.847769 226.682856 
L 894.597215 225.89822 
L 897.34666 225.753089 
L 900.096106 225.106985 
L 902.845552 224.937172 
L 905.594997 225.089124 
L 908.344443 225.786249 
L 916.59278 225.119453 
L 919.342226 225.164049 
L 922.091671 219.525095 
L 924.841117 218.721367 
L 930.340008 219.142218 
L 933.089454 219.166132 
L 935.8389 224.614642 
L 938.588345 225.550087 
L 944.087237 226.673932 
L 946.836682 226.845193 
L 949.586128 227.139228 
L 955.085019 228.001316 
L 957.834465 227.950249 
L 960.583911 228.164585 
L 963.333356 227.993428 
L 966.082802 227.670887 
L 968.832248 227.596807 
L 971.581693 227.681112 
L 974.331139 227.495344 
L 977.080585 227.577315 
L 979.83003 227.914133 
L 988.078368 228.190308 
L 990.827813 228.44741 
L 996.326705 228.542695 
L 1001.825596 228.654764 
L 1007.324487 228.706551 
L 1015.572824 228.706681 
L 1032.069498 228.882029 
L 1040.317835 228.872689 
L 1051.315618 228.94733 
L 1092.557303 228.919411 
L 1092.557303 228.919411 
" style="fill:none;stroke:#947383;stroke-linecap:square;stroke-width:2;"/>
   </g>
   <g id="line2d_14">
    <path clip-path="url(#p536b3b7b3d)" d="M 394.198101 227.357092 
L 396.947547 226.785191 
L 399.696993 225.97933 
L 405.195884 227.079659 
L 407.94533 226.831042 
L 410.694775 227.905523 
L 413.444221 228.711383 
L 416.193667 228.711383 
L 418.943113 228.599432 
L 421.692558 228.816847 
L 429.940895 228.784855 
L 435.439787 228.834645 
L 443.688124 228.405329 
L 457.435352 228.602069 
L 462.934243 228.62541 
L 468.433135 228.827663 
L 473.932026 228.710333 
L 482.180363 228.680996 
L 484.929809 228.739332 
L 498.677037 228.52291 
L 501.426483 228.637563 
L 515.173711 228.522906 
L 520.672603 228.605172 
L 526.171494 228.595521 
L 528.92094 228.524027 
L 537.169277 227.95403 
L 545.417614 227.960132 
L 548.167059 228.259228 
L 550.916505 228.350893 
L 556.415396 228.117045 
L 559.164842 228.122575 
L 564.663733 227.82314 
L 567.413179 227.957039 
L 583.909853 227.800119 
L 589.408744 228.00789 
L 594.907636 228.061624 
L 600.406527 227.883152 
L 603.155973 227.706243 
L 614.153756 227.795632 
L 616.903201 227.962141 
L 627.900984 227.86857 
L 633.399875 227.56411 
L 638.898767 227.433026 
L 644.397658 227.639802 
L 647.147104 227.689583 
L 655.395441 227.380809 
L 660.894332 227.139973 
L 671.892115 227.244767 
L 674.64156 227.428926 
L 680.140452 227.577048 
L 685.639343 227.402734 
L 693.88768 227.008981 
L 702.136017 227.156874 
L 713.1338 227.181636 
L 721.382137 227.099149 
L 724.131583 227.28228 
L 726.881028 227.223177 
L 729.630474 227.372072 
L 732.37992 227.263261 
L 737.878811 227.329217 
L 743.377702 227.239743 
L 746.127148 227.214981 
L 748.876594 227.047076 
L 751.626039 227.087837 
L 757.124931 227.009005 
L 762.623822 227.304638 
L 765.373268 227.170261 
L 768.122713 227.294104 
L 773.621605 227.340279 
L 779.120496 227.733926 
L 784.619387 227.745644 
L 792.867725 227.502146 
L 798.366616 227.52712 
L 803.865507 227.40137 
L 806.614953 227.199902 
L 812.113844 227.247729 
L 814.86329 227.334506 
L 820.362181 227.922695 
L 823.111627 228.01066 
L 825.861073 227.904437 
L 828.610518 228.168108 
L 831.359964 228.022868 
L 836.858855 227.999139 
L 839.608301 228.345944 
L 842.357747 228.199577 
L 845.107192 228.275679 
L 847.856638 228.212865 
L 869.852203 228.591963 
L 878.10054 228.600881 
L 891.847769 228.770193 
L 902.845552 228.732664 
L 908.344443 228.775769 
L 913.843334 228.826819 
L 919.342226 228.565302 
L 941.337791 228.876328 
L 955.085019 228.884641 
L 963.333356 228.922475 
L 977.080585 228.880337 
L 988.078368 228.954878 
L 1015.572824 228.951076 
L 1073.311183 228.947857 
L 1073.311183 228.947857 
" style="fill:none;stroke:#96c6ad;stroke-linecap:square;stroke-width:2;"/>
   </g>
   <g id="line2d_15">
    <path clip-path="url(#p536b3b7b3d)" d="M 262.224709 205.590044 
L 264.974155 228.96 
L 374.951982 228.96 
L 377.701427 219.612018 
L 380.450873 219.612018 
L 383.200319 219.232018 
L 388.69921 219.232018 
L 391.448656 228.580001 
L 394.198101 228.580001 
L 396.947547 228.96 
L 399.696993 228.96 
L 402.446438 228.382964 
L 405.195884 227.974755 
L 407.94533 227.860477 
L 410.694775 227.438636 
L 413.444221 227.143747 
L 416.193667 227.330199 
L 421.692558 227.253746 
L 427.19145 227.434918 
L 429.940895 227.728732 
L 432.690341 228.182518 
L 435.439787 227.571363 
L 438.189232 227.319196 
L 443.688124 227.485087 
L 446.437569 226.917856 
L 449.187015 227.598041 
L 451.936461 226.975597 
L 454.685906 227.128342 
L 457.435352 226.355781 
L 460.184798 226.522385 
L 462.934243 226.420791 
L 465.683689 227.520065 
L 468.433135 227.178898 
L 471.18258 227.18523 
L 473.932026 227.487665 
L 476.681472 227.41205 
L 479.430917 227.501079 
L 482.180363 227.842246 
L 484.929809 228.324053 
L 487.679254 227.916037 
L 490.4287 227.767133 
L 493.178146 226.992011 
L 495.927591 225.153924 
L 498.677037 224.904175 
L 501.426483 225.117343 
L 504.175928 224.468171 
L 506.925374 222.833442 
L 509.67482 223.898968 
L 512.424266 224.135432 
L 515.173711 223.597541 
L 517.923157 223.776936 
L 520.672603 224.977997 
L 523.422048 224.296133 
L 526.171494 224.218921 
L 528.92094 223.872948 
L 531.670385 223.09919 
L 534.419831 223.28873 
L 537.169277 224.308365 
L 539.918722 224.220513 
L 542.668168 223.278227 
L 545.417614 224.000285 
L 548.167059 223.666538 
L 553.665951 222.463793 
L 556.415396 223.516673 
L 559.164842 220.930275 
L 561.914288 220.042847 
L 564.663733 219.288702 
L 567.413179 218.725011 
L 570.162625 217.82659 
L 572.91207 219.702936 
L 575.661516 220.408109 
L 578.410962 221.421715 
L 583.909853 221.451387 
L 586.659299 218.794575 
L 589.408744 218.217808 
L 592.15819 217.124567 
L 594.907636 215.887741 
L 597.657081 217.112765 
L 600.406527 218.151317 
L 603.155973 218.028165 
L 605.905419 216.154233 
L 608.654864 216.036956 
L 611.40431 212.426261 
L 614.153756 210.127923 
L 616.903201 210.196344 
L 619.652647 211.230247 
L 622.402093 210.954345 
L 625.151538 213.528906 
L 627.900984 214.519279 
L 630.65043 212.384303 
L 633.399875 211.305666 
L 636.149321 212.259271 
L 638.898767 209.405617 
L 641.648212 207.743737 
L 644.397658 206.976487 
L 647.147104 205.796239 
L 649.896549 206.311975 
L 652.645995 209.479342 
L 655.395441 213.92455 
L 658.144886 214.829614 
L 660.894332 216.883814 
L 663.643778 216.907738 
L 666.393223 216.197037 
L 669.142669 216.178169 
L 671.892115 216.477758 
L 674.64156 217.203381 
L 677.391006 216.724343 
L 682.889897 218.78214 
L 685.639343 221.551385 
L 691.138234 224.267254 
L 693.88768 224.260921 
L 699.386572 223.655064 
L 702.136017 223.426249 
L 704.885463 223.040346 
L 707.634909 223.678468 
L 710.384354 222.23273 
L 715.883246 222.765824 
L 718.632691 223.314376 
L 721.382137 223.009477 
L 724.131583 224.736451 
L 726.881028 224.814516 
L 729.630474 224.300557 
L 732.37992 222.788823 
L 735.129365 222.053025 
L 737.878811 221.118035 
L 740.628257 221.324466 
L 743.377702 221.951633 
L 746.127148 223.544755 
L 748.876594 224.646363 
L 751.626039 225.346679 
L 754.375485 224.730619 
L 757.124931 224.417083 
L 759.874376 223.635108 
L 762.623822 223.39438 
L 768.122713 224.575019 
L 770.872159 224.617454 
L 773.621605 225.767712 
L 776.37105 226.26356 
L 779.120496 226.157949 
L 781.869942 226.381824 
L 784.619387 227.102705 
L 787.368833 227.143869 
L 790.118279 226.293642 
L 792.867725 226.589495 
L 795.61717 226.417705 
L 801.116062 225.671597 
L 803.865507 226.488195 
L 806.614953 226.507256 
L 809.364399 226.877755 
L 812.113844 227.04358 
L 814.86329 227.409386 
L 817.612736 227.051294 
L 820.362181 226.808112 
L 828.610518 226.603777 
L 831.359964 226.756259 
L 834.10941 226.444265 
L 836.858855 226.855457 
L 839.608301 226.675274 
L 842.357747 226.781655 
L 845.107192 226.40756 
L 847.856638 227.294225 
L 850.606084 227.008155 
L 853.355529 227.323972 
L 856.104975 227.467315 
L 858.854421 227.936226 
L 861.603866 227.85437 
L 864.353312 228.219526 
L 867.102758 227.979054 
L 869.852203 227.923775 
L 872.601649 227.659532 
L 875.351095 226.92059 
L 878.10054 226.834829 
L 880.849986 226.600415 
L 886.348877 226.870009 
L 889.098323 227.369202 
L 891.847769 227.260214 
L 894.597215 228.000104 
L 897.34666 227.933046 
L 902.845552 228.31457 
L 905.594997 227.83193 
L 908.344443 227.913146 
L 911.093889 227.882931 
L 916.59278 228.049157 
L 919.342226 228.638938 
L 922.091671 228.57264 
L 930.340008 228.753576 
L 935.8389 228.853025 
L 938.588345 228.819008 
L 941.337791 228.662425 
L 949.586128 228.708856 
L 968.832248 228.861393 
L 974.331139 228.574371 
L 977.080585 228.513983 
L 985.328922 228.700935 
L 988.078368 228.788478 
L 993.577259 228.515641 
L 996.326705 227.821184 
L 999.07615 227.73158 
L 1001.825596 227.772797 
L 1007.324487 228.106022 
L 1010.073933 228.800478 
L 1015.572824 228.856326 
L 1023.821161 228.842058 
L 1029.320053 228.945733 
L 1048.566172 228.945636 
L 1092.557303 228.96 
L 1098.056195 227.412236 
L 1098.056195 227.412236 
" style="fill:none;stroke:#525886;stroke-linecap:square;stroke-width:2;"/>
   </g>
   <g id="line2d_16">
    <path clip-path="url(#p536b3b7b3d)" d="M 94.508523 202.840638 
L 97.257968 218.420608 
L 100.007414 219.585611 
L 102.75686 213.872955 
L 105.506305 209.198964 
L 108.255751 203.356475 
L 111.005197 194.36803 
L 113.754642 190.759111 
L 116.504088 201.145758 
L 119.253534 205.819749 
L 122.002979 190.089971 
L 124.752425 180.382451 
L 130.251317 131.61867 
L 133.000762 103.574723 
L 135.750208 125.14699 
L 138.499654 118.348457 
L 141.249099 131.980932 
L 143.998545 143.37133 
L 146.747991 174.531272 
L 149.497436 165.183289 
L 152.246882 182.429567 
L 154.996328 198.009537 
L 157.745773 200.03291 
L 160.495219 185.076138 
L 163.244665 186.175901 
L 165.99411 186.634135 
L 168.743556 165.860841 
L 171.493002 177.191729 
L 174.242447 187.47451 
L 176.991893 190.329663 
L 179.741339 198.119648 
L 182.490784 216.667232 
L 185.24023 205.881098 
L 187.989676 208.275094 
L 190.739121 202.882027 
L 193.488567 202.882027 
L 196.238013 199.442293 
L 198.987458 199.84178 
L 201.736904 193.218935 
L 204.48635 195.876388 
L 207.235795 195.876388 
L 209.985241 201.541832 
L 212.734687 206.429666 
L 215.484132 210.139183 
L 218.233578 212.035875 
L 220.983024 191.262581 
L 223.73247 172.566616 
L 226.481915 148.852984 
L 229.231361 143.260175 
L 231.980807 149.492163 
L 234.730252 155.106567 
L 237.479698 162.804905 
L 240.229144 167.78184 
L 242.978589 157.615599 
L 245.728035 143.983125 
L 248.477481 120.192089 
L 251.226926 121.841733 
L 253.976372 119.499646 
L 256.725818 121.111367 
L 259.475263 108.624479 
L 262.224709 127.362551 
L 264.974155 111.078969 
L 267.7236 122.076595 
L 270.473046 132.069266 
L 273.222492 148.840646 
L 275.971937 142.343979 
L 278.721383 135.460822 
L 281.470829 111.603992 
L 284.220274 86.676039 
L 286.96972 96.024022 
L 289.719166 104.036578 
L 292.468611 118.745619 
L 295.218057 134.812463 
L 297.967503 140.677864 
L 300.716948 105.155531 
L 303.466394 83.603238 
L 306.21584 72.196474 
L 308.965285 48.826518 
L 311.714731 30.497141 
L 314.464177 22.666512 
L 317.213623 26.960992 
L 319.963068 29.113487 
L 322.712514 39.899621 
L 325.46196 47.689606 
L 328.211405 57.656917 
L 330.960851 55.959099 
L 333.710297 40.953128 
L 336.459742 34.061987 
L 339.209188 30.336342 
L 341.958634 20.721274 
L 344.708079 19.881178 
L 347.457525 19.456269 
L 350.206971 29.193751 
L 352.956416 31.806541 
L 355.705862 42.007322 
L 358.455308 44.545236 
L 361.204753 50.6828 
L 363.954199 50.404586 
L 366.703645 60.723787 
L 369.45309 53.015802 
L 372.202536 44.291723 
L 374.951982 41.285062 
L 377.701427 34.027312 
L 380.450873 20.862121 
L 383.200319 26.31511 
L 385.949764 24.253056 
L 388.69921 23.909185 
L 391.448656 22.486666 
L 394.198101 25.710607 
L 396.947547 21.962595 
L 399.696993 26.026935 
L 402.446438 29.776953 
L 405.195884 39.266571 
L 407.94533 38.703145 
L 410.694775 34.293719 
L 413.444221 32.386606 
L 416.193667 29.800457 
L 418.943113 21.13566 
L 421.692558 17.76 
L 424.442004 19.841249 
L 427.19145 23.039637 
L 429.940895 21.071641 
L 432.690341 35.252791 
L 435.439787 51.756019 
L 438.189232 61.207867 
L 440.938678 76.173953 
L 443.688124 82.870026 
L 446.437569 82.605103 
L 449.187015 84.145165 
L 451.936461 95.89657 
L 454.685906 99.732576 
L 457.435352 116.718059 
L 460.184798 113.292988 
L 462.934243 105.487965 
L 465.683689 96.404854 
L 468.433135 101.401745 
L 471.18258 102.648143 
L 473.932026 104.92923 
L 476.681472 113.882654 
L 479.430917 125.366167 
L 482.180363 102.755156 
L 484.929809 96.623684 
L 487.679254 106.690999 
L 490.4287 111.152536 
L 493.178146 107.906709 
L 495.927591 134.134784 
L 498.677037 136.80404 
L 501.426483 140.12819 
L 506.925374 111.110138 
L 509.67482 98.018438 
L 512.424266 99.299458 
L 515.173711 93.928137 
L 517.923157 116.050085 
L 520.672603 126.077921 
L 523.422048 132.364576 
L 526.171494 130.094351 
L 528.92094 129.769769 
L 531.670385 122.039068 
L 534.419831 133.437401 
L 537.169277 126.945747 
L 539.918722 122.939469 
L 542.668168 125.201907 
L 545.417614 125.236704 
L 548.167059 118.608568 
L 550.916505 122.164865 
L 553.665951 131.411423 
L 556.415396 134.704633 
L 559.164842 124.137349 
L 561.914288 121.066785 
L 564.663733 125.131125 
L 567.413179 110.820027 
L 570.162625 99.551723 
L 572.91207 109.901275 
L 575.661516 102.536198 
L 578.410962 96.213891 
L 581.160407 102.530393 
L 583.909853 115.461769 
L 586.659299 119.913189 
L 589.408744 131.598167 
L 592.15819 145.879807 
L 594.907636 147.420099 
L 597.657081 146.017902 
L 600.406527 136.046721 
L 603.155973 134.413337 
L 605.905419 123.247691 
L 608.654864 114.084006 
L 611.40431 108.66697 
L 614.153756 118.638152 
L 616.903201 121.456968 
L 619.652647 126.915997 
L 622.402093 142.943585 
L 625.151538 142.868681 
L 627.900984 136.013494 
L 630.65043 136.045246 
L 633.399875 137.411729 
L 636.149321 125.084719 
L 638.898767 131.251791 
L 641.648212 126.422 
L 644.397658 123.514535 
L 647.147104 120.293802 
L 649.896549 129.924278 
L 652.645995 134.535591 
L 655.395441 147.29505 
L 660.894332 146.424271 
L 663.643778 135.695026 
L 666.393223 133.680375 
L 669.142669 129.267329 
L 671.892115 133.110664 
L 674.64156 136.323825 
L 677.391006 140.761159 
L 680.140452 134.188359 
L 682.889897 136.414069 
L 685.639343 132.442328 
L 688.388789 133.817031 
L 691.138234 125.524466 
L 693.88768 118.517427 
L 696.637126 120.069154 
L 699.386572 124.409289 
L 702.136017 120.542936 
L 704.885463 142.405153 
L 707.634909 150.396524 
L 710.384354 148.659321 
L 713.1338 145.246565 
L 715.883246 143.582135 
L 718.632691 130.012484 
L 721.382137 118.875395 
L 724.131583 108.644547 
L 726.881028 97.669977 
L 729.630474 94.198671 
L 732.37992 91.394276 
L 735.129365 97.992852 
L 737.878811 106.406036 
L 740.628257 113.949303 
L 743.377702 127.203382 
L 746.127148 126.112784 
L 748.876594 120.525484 
L 751.626039 111.9565 
L 754.375485 108.11715 
L 757.124931 91.064352 
L 759.874376 91.064352 
L 762.623822 94.385475 
L 765.373268 102.608237 
L 768.122713 97.481924 
L 770.872159 104.783919 
L 773.621605 109.544466 
L 776.37105 119.840321 
L 779.120496 116.068979 
L 781.869942 122.530718 
L 784.619387 122.377973 
L 787.368833 129.302404 
L 790.118279 124.388721 
L 792.867725 124.340336 
L 795.61717 128.828243 
L 801.116062 116.501376 
L 803.865507 124.161528 
L 806.614953 137.675459 
L 809.364399 136.526117 
L 812.113844 144.741011 
L 814.86329 149.914229 
L 817.612736 150.395868 
L 820.362181 149.357203 
L 823.111627 156.702046 
L 825.861073 160.180365 
L 828.610518 162.494781 
L 831.359964 155.398918 
L 834.10941 144.345239 
L 836.858855 139.124937 
L 839.608301 140.751545 
L 842.357747 135.308084 
L 845.107192 135.070006 
L 847.856638 140.013893 
L 850.606084 147.119502 
L 853.355529 145.819949 
L 856.104975 150.502319 
L 858.854421 162.293923 
L 861.603866 168.106954 
L 864.353312 170.782253 
L 867.102758 168.794543 
L 869.852203 176.308697 
L 872.601649 173.882047 
L 875.351095 175.294729 
L 878.10054 180.343953 
L 880.849986 190.081435 
L 883.599432 188.590028 
L 886.348877 193.585648 
L 889.098323 193.933301 
L 891.847769 192.289977 
L 894.597215 194.588374 
L 897.34666 200.316814 
L 900.096106 195.011615 
L 905.594997 204.447533 
L 908.344443 203.870836 
L 911.093889 198.102661 
L 913.843334 203.791459 
L 916.59278 204.00547 
L 919.342226 205.421043 
L 922.091671 208.614453 
L 924.841117 216.603792 
L 927.590563 218.470685 
L 930.340008 214.541376 
L 933.089454 214.901752 
L 935.8389 213.323051 
L 938.588345 210.931215 
L 941.337791 210.323588 
L 944.087237 215.315168 
L 946.836682 213.522289 
L 949.586128 210.923973 
L 952.335574 213.199896 
L 955.085019 214.489157 
L 957.834465 216.529677 
L 960.583911 219.983365 
L 963.333356 226.386093 
L 966.082802 227.145537 
L 968.832248 223.137776 
L 971.581693 223.929978 
L 974.331139 222.803715 
L 977.080585 222.420601 
L 979.83003 222.84745 
L 982.579476 227.450623 
L 985.328922 226.722587 
L 988.078368 226.214587 
L 990.827813 225.553234 
L 996.326705 225.553234 
L 999.07615 226.28127 
L 1001.825596 227.915533 
L 1004.575042 228.306295 
L 1007.324487 222.440894 
L 1010.073933 220.7515 
L 1012.823379 220.36522 
L 1015.572824 220.36522 
L 1018.32227 221.018925 
L 1021.071716 226.884325 
L 1023.821161 226.416493 
L 1026.570607 225.238257 
L 1034.818944 225.238257 
L 1037.56839 227.395484 
L 1040.317835 228.96 
L 1043.067281 228.96 
L 1045.816727 223.64001 
L 1056.814509 223.64001 
L 1059.563955 228.96 
L 1062.313401 228.96 
L 1065.062846 226.210593 
L 1070.561738 226.210593 
L 1073.311183 223.873598 
L 1073.311183 223.873598 
" style="fill:none;stroke:#937252;stroke-linecap:square;stroke-width:2;"/>
   </g>
   <g id="line2d_17">
    <path clip-path="url(#p536b3b7b3d)" d="M 369.45309 228.769656 
L 383.200319 228.665883 
L 388.69921 228.773882 
L 402.446438 228.329714 
L 405.195884 228.385874 
L 407.94533 228.142661 
L 416.193667 228.350828 
L 418.943113 228.005033 
L 421.692558 228.257552 
L 424.442004 228.3145 
L 429.940895 228.134916 
L 432.690341 228.514281 
L 440.938678 228.558279 
L 443.688124 228.677617 
L 451.936461 228.464627 
L 460.184798 228.351094 
L 501.426483 228.732647 
L 504.175928 228.683729 
L 506.925374 228.754094 
L 515.173711 228.556165 
L 517.923157 228.650876 
L 520.672603 228.535824 
L 528.92094 228.538627 
L 531.670385 228.452787 
L 548.167059 228.696065 
L 570.162625 228.616253 
L 575.661516 228.500705 
L 581.160407 228.588462 
L 583.909853 228.555378 
L 589.408744 228.287618 
L 597.657081 228.290459 
L 600.406527 228.571007 
L 603.155973 228.687878 
L 611.40431 228.613951 
L 619.652647 228.272531 
L 622.402093 228.372285 
L 636.149321 228.148772 
L 641.648212 228.24393 
L 644.397658 228.123363 
L 647.147104 228.254865 
L 655.395441 228.235546 
L 660.894332 228.39279 
L 666.393223 228.377177 
L 669.142669 228.3411 
L 674.64156 228.032136 
L 680.140452 228.058732 
L 682.889897 227.713157 
L 688.388789 227.650407 
L 691.138234 227.352594 
L 693.88768 227.443175 
L 696.637126 227.8644 
L 702.136017 227.99332 
L 704.885463 228.316564 
L 707.634909 227.707117 
L 713.1338 227.450937 
L 715.883246 227.601917 
L 718.632691 227.427962 
L 721.382137 227.8882 
L 726.881028 228.240916 
L 729.630474 228.11074 
L 732.37992 228.249382 
L 735.129365 228.183035 
L 737.878811 227.728635 
L 740.628257 227.88602 
L 746.127148 227.760853 
L 751.626039 228.001012 
L 754.375485 227.869156 
L 757.124931 228.01331 
L 762.623822 227.865043 
L 765.373268 228.129008 
L 768.122713 227.880649 
L 770.872159 227.808821 
L 776.37105 227.979791 
L 779.120496 228.000014 
L 781.869942 228.418967 
L 790.118279 228.738487 
L 798.366616 228.898238 
L 812.113844 228.831147 
L 814.86329 228.707693 
L 825.861073 228.789408 
L 828.610518 228.912863 
L 853.355529 228.838447 
L 869.852203 228.857531 
L 878.10054 228.96 
L 1109.053977 228.95044 
L 1109.053977 228.95044 
" style="fill:none;stroke:#d18cad;stroke-linecap:square;stroke-width:2;"/>
   </g>
   <g id="line2d_18">
    <path clip-path="url(#p536b3b7b3d)" d="M 413.444221 220.913202 
L 416.193667 222.710891 
L 421.692558 222.710891 
L 424.442004 227.162311 
L 427.19145 211.58234 
L 429.940895 213.380029 
L 432.690341 206.000043 
L 435.439787 206.000043 
L 438.189232 200.80672 
L 440.938678 213.048125 
L 443.688124 213.048125 
L 446.437569 214.585622 
L 449.187015 202.900644 
L 451.936461 208.093968 
L 454.685906 201.045886 
L 457.435352 195.547073 
L 460.184798 201.389562 
L 462.934243 194.378575 
L 465.683689 190.483582 
L 468.433135 200.870229 
L 471.18258 206.369043 
L 473.932026 206.369043 
L 476.681472 221.46963 
L 479.430917 225.364622 
L 482.180363 216.01664 
L 484.929809 192.646684 
L 487.679254 173.950719 
L 490.4287 168.198115 
L 493.178146 161.520984 
L 495.927591 170.868967 
L 498.677037 194.238923 
L 501.426483 212.934887 
L 504.175928 222.28287 
L 506.925374 228.96 
L 509.67482 223.766676 
L 512.424266 223.766676 
L 515.173711 214.418694 
L 517.923157 214.418694 
L 520.672603 207.741564 
L 523.422048 212.934887 
L 526.171494 212.934887 
L 528.92094 206.702899 
L 531.670385 206.702899 
L 534.419831 213.380029 
L 539.918722 213.380029 
L 542.668168 228.96 
L 553.665951 228.96 
L 556.415396 213.380029 
L 559.164842 213.380029 
L 561.914288 205.590044 
L 567.413179 205.590044 
L 570.162625 221.170015 
L 572.91207 221.170015 
L 575.661516 228.96 
L 581.160407 228.96 
L 583.909853 221.170015 
L 586.659299 215.671202 
L 592.15819 215.671202 
L 594.907636 208.994071 
L 597.657081 216.784057 
L 600.406527 218.033787 
L 603.155973 212.840463 
L 605.905419 212.840463 
L 608.654864 219.517594 
L 611.40431 219.517594 
L 614.153756 223.766676 
L 616.903201 228.96 
L 619.652647 224.710917 
L 625.151538 224.710917 
L 627.900984 221.115539 
L 630.65043 210.728892 
L 633.399875 214.977975 
L 638.898767 214.977975 
L 641.648212 206.888375 
L 644.397658 213.025939 
L 647.147104 213.025939 
L 649.896549 197.445969 
L 652.645995 195.220258 
L 655.395441 206.905236 
L 658.144886 211.154319 
L 660.894332 211.154319 
L 663.643778 226.73429 
L 666.393223 228.96 
L 671.892115 228.96 
L 674.64156 223.117511 
L 677.391006 219.522133 
L 680.140452 213.679644 
L 685.639343 213.679644 
L 688.388789 211.732148 
L 691.138234 211.432533 
L 693.88768 213.380029 
L 696.637126 213.380029 
L 699.386572 211.154319 
L 702.136017 218.944305 
L 707.634909 226.73429 
L 713.1338 222.586376 
L 715.883246 222.586376 
L 718.632691 221.387916 
L 721.382137 218.63851 
L 724.131583 220.763051 
L 726.881028 216.513968 
L 729.630474 216.513968 
L 732.37992 215.764931 
L 735.129365 216.389796 
L 737.878811 214.265255 
L 740.628257 216.086291 
L 743.377702 216.086291 
L 746.127148 218.033787 
L 748.876594 216.263336 
L 751.626039 218.387877 
L 754.375485 225.065007 
L 759.874376 225.065007 
L 762.623822 228.96 
L 770.872159 228.96 
L 773.621605 218.573353 
L 784.619387 218.573353 
L 787.368833 228.96 
L 790.118279 228.96 
L 792.867725 217.275022 
L 795.61717 207.92704 
L 798.366616 207.92704 
L 801.116062 192.347069 
L 803.865507 192.347069 
L 806.614953 204.032047 
L 809.364399 206.702899 
L 812.113844 206.702899 
L 814.86329 222.28287 
L 820.362181 222.28287 
L 823.111627 225.065007 
L 834.10941 225.065007 
L 836.858855 228.96 
L 842.357747 228.96 
L 845.107192 225.844006 
L 847.856638 225.844006 
L 850.606084 222.505441 
L 853.355529 209.15118 
L 856.104975 209.15118 
L 858.854421 196.687204 
L 861.603866 196.687204 
L 864.353312 192.235784 
L 867.102758 197.800059 
L 869.852203 197.800059 
L 872.601649 209.485037 
L 875.351095 202.807906 
L 878.10054 201.249909 
L 880.849986 209.039895 
L 883.599432 209.039895 
L 886.348877 212.934887 
L 889.098323 219.612018 
L 891.847769 228.96 
L 894.597215 228.96 
L 897.34666 227.348279 
L 900.096106 226.179781 
L 902.845552 226.179781 
L 905.594997 224.382092 
L 908.344443 220.692099 
L 911.093889 222.30382 
L 913.843334 222.24232 
L 913.843334 222.24232 
" style="fill:none;stroke:#a4a86f;stroke-linecap:square;stroke-width:2;"/>
   </g>
   <g id="line2d_19">
    <path clip-path="url(#p536b3b7b3d)" d="M 581.160407 220.650682 
L 583.909853 223.766676 
L 586.659299 228.96 
L 594.907636 228.96 
L 597.657081 227.986252 
L 600.406527 227.986252 
L 605.905419 227.386066 
L 608.654864 227.386066 
L 611.40431 228.359815 
L 614.153756 228.359815 
L 619.652647 228.96 
L 627.900984 228.96 
L 630.65043 228.140002 
L 633.399875 227.166253 
L 636.149321 227.166253 
L 638.898767 226.928391 
L 641.648212 226.928391 
L 644.397658 227.74839 
L 647.147104 228.722138 
L 649.896549 228.722138 
L 652.645995 228.96 
L 660.894332 228.96 
L 663.643778 228.603207 
L 677.391006 228.70871 
L 680.140452 228.32716 
L 688.388789 228.32716 
L 691.138234 227.551199 
L 693.88768 227.932749 
L 702.136017 227.932749 
L 704.885463 228.96 
L 726.881028 228.96 
L 729.630474 228.434832 
L 740.628257 228.434832 
L 743.377702 228.96 
L 803.865507 228.96 
L 806.614953 228.375751 
L 817.612736 228.375751 
L 820.362181 228.96 
L 891.847769 228.96 
L 894.597215 228.747546 
L 905.594997 228.747546 
L 908.344443 228.96 
L 1029.320053 228.96 
L 1032.069498 228.840154 
L 1032.069498 228.840154 
" style="fill:none;stroke:#d3d3d3;stroke-linecap:square;stroke-width:2;"/>
   </g>
   <g id="patch_3">
    <path d="M 43.78125 228.96 
L 43.78125 7.2 
" style="fill:none;stroke:#000000;stroke-linecap:square;stroke-linejoin:miter;stroke-width:0.8;"/>
   </g>
   <g id="patch_4">
    <path d="M 43.78125 228.96 
L 1159.78125 228.96 
" style="fill:none;stroke:#000000;stroke-linecap:square;stroke-linejoin:miter;stroke-width:0.8;"/>
   </g>
   <g id="legend_1">
    <g id="line2d_20">
     <path d="M 1065.97 17.67875 
L 1081.97 17.67875 
" style="fill:none;stroke:#947383;stroke-linecap:square;stroke-width:2;"/>
    </g>
    <g id="line2d_21"/>
    <g id="text_15">
     <!-- Europe -->
     <g transform="translate(1088.37 20.47875)scale(0.08 -0.08)">
      <defs>
       <path d="M 628 4666 
L 3578 4666 
L 3578 4134 
L 1259 4134 
L 1259 2753 
L 3481 2753 
L 3481 2222 
L 1259 2222 
L 1259 531 
L 3634 531 
L 3634 0 
L 628 0 
L 628 4666 
z
" id="DejaVuSans-45" transform="scale(0.015625)"/>
       <path d="M 1159 525 
L 1159 -1331 
L 581 -1331 
L 581 3500 
L 1159 3500 
L 1159 2969 
Q 1341 3281 1617 3432 
Q 1894 3584 2278 3584 
Q 2916 3584 3314 3078 
Q 3713 2572 3713 1747 
Q 3713 922 3314 415 
Q 2916 -91 2278 -91 
Q 1894 -91 1617 61 
Q 1341 213 1159 525 
z
M 3116 1747 
Q 3116 2381 2855 2742 
Q 2594 3103 2138 3103 
Q 1681 3103 1420 2742 
Q 1159 2381 1159 1747 
Q 1159 1113 1420 752 
Q 1681 391 2138 391 
Q 2594 391 2855 752 
Q 3116 1113 3116 1747 
z
" id="DejaVuSans-70" transform="scale(0.015625)"/>
      </defs>
      <use xlink:href="#DejaVuSans-45"/>
      <use x="63.183594" xlink:href="#DejaVuSans-75"/>
      <use x="126.5625" xlink:href="#DejaVuSans-72"/>
      <use x="165.425781" xlink:href="#DejaVuSans-6f"/>
      <use x="226.607422" xlink:href="#DejaVuSans-70"/>
      <use x="290.083984" xlink:href="#DejaVuSans-65"/>
     </g>
    </g>
    <g id="line2d_22">
     <path d="M 1065.97 29.42125 
L 1081.97 29.42125 
" style="fill:none;stroke:#96c6ad;stroke-linecap:square;stroke-width:2;"/>
    </g>
    <g id="line2d_23"/>
    <g id="text_16">
     <!-- North America -->
     <g transform="translate(1088.37 32.22125)scale(0.08 -0.08)">
      <defs>
       <path d="M 628 4666 
L 1478 4666 
L 3547 763 
L 3547 4666 
L 4159 4666 
L 4159 0 
L 3309 0 
L 1241 3903 
L 1241 0 
L 628 0 
L 628 4666 
z
" id="DejaVuSans-4e" transform="scale(0.015625)"/>
       <path d="M 3513 2113 
L 3513 0 
L 2938 0 
L 2938 2094 
Q 2938 2591 2744 2837 
Q 2550 3084 2163 3084 
Q 1697 3084 1428 2787 
Q 1159 2491 1159 1978 
L 1159 0 
L 581 0 
L 581 4863 
L 1159 4863 
L 1159 2956 
Q 1366 3272 1645 3428 
Q 1925 3584 2291 3584 
Q 2894 3584 3203 3211 
Q 3513 2838 3513 2113 
z
" id="DejaVuSans-68" transform="scale(0.015625)"/>
       <path d="M 2188 4044 
L 1331 1722 
L 3047 1722 
L 2188 4044 
z
M 1831 4666 
L 2547 4666 
L 4325 0 
L 3669 0 
L 3244 1197 
L 1141 1197 
L 716 0 
L 50 0 
L 1831 4666 
z
" id="DejaVuSans-41" transform="scale(0.015625)"/>
       <path d="M 3328 2828 
Q 3544 3216 3844 3400 
Q 4144 3584 4550 3584 
Q 5097 3584 5394 3201 
Q 5691 2819 5691 2113 
L 5691 0 
L 5113 0 
L 5113 2094 
Q 5113 2597 4934 2840 
Q 4756 3084 4391 3084 
Q 3944 3084 3684 2787 
Q 3425 2491 3425 1978 
L 3425 0 
L 2847 0 
L 2847 2094 
Q 2847 2600 2669 2842 
Q 2491 3084 2119 3084 
Q 1678 3084 1418 2786 
Q 1159 2488 1159 1978 
L 1159 0 
L 581 0 
L 581 3500 
L 1159 3500 
L 1159 2956 
Q 1356 3278 1631 3431 
Q 1906 3584 2284 3584 
Q 2666 3584 2933 3390 
Q 3200 3197 3328 2828 
z
" id="DejaVuSans-6d" transform="scale(0.015625)"/>
      </defs>
      <use xlink:href="#DejaVuSans-4e"/>
      <use x="74.804688" xlink:href="#DejaVuSans-6f"/>
      <use x="135.986328" xlink:href="#DejaVuSans-72"/>
      <use x="177.099609" xlink:href="#DejaVuSans-74"/>
      <use x="216.308594" xlink:href="#DejaVuSans-68"/>
      <use x="279.6875" xlink:href="#DejaVuSans-20"/>
      <use x="311.474609" xlink:href="#DejaVuSans-41"/>
      <use x="379.882812" xlink:href="#DejaVuSans-6d"/>
      <use x="477.294922" xlink:href="#DejaVuSans-65"/>
      <use x="538.818359" xlink:href="#DejaVuSans-72"/>
      <use x="579.931641" xlink:href="#DejaVuSans-69"/>
      <use x="607.714844" xlink:href="#DejaVuSans-63"/>
      <use x="662.695312" xlink:href="#DejaVuSans-61"/>
     </g>
    </g>
    <g id="line2d_24">
     <path d="M 1065.97 41.16375 
L 1081.97 41.16375 
" style="fill:none;stroke:#525886;stroke-linecap:square;stroke-width:2;"/>
    </g>
    <g id="line2d_25"/>
    <g id="text_17">
     <!-- Asia -->
     <g transform="translate(1088.37 43.96375)scale(0.08 -0.08)">
      <defs>
       <path d="M 2834 3397 
L 2834 2853 
Q 2591 2978 2328 3040 
Q 2066 3103 1784 3103 
Q 1356 3103 1142 2972 
Q 928 2841 928 2578 
Q 928 2378 1081 2264 
Q 1234 2150 1697 2047 
L 1894 2003 
Q 2506 1872 2764 1633 
Q 3022 1394 3022 966 
Q 3022 478 2636 193 
Q 2250 -91 1575 -91 
Q 1294 -91 989 -36 
Q 684 19 347 128 
L 347 722 
Q 666 556 975 473 
Q 1284 391 1588 391 
Q 1994 391 2212 530 
Q 2431 669 2431 922 
Q 2431 1156 2273 1281 
Q 2116 1406 1581 1522 
L 1381 1569 
Q 847 1681 609 1914 
Q 372 2147 372 2553 
Q 372 3047 722 3315 
Q 1072 3584 1716 3584 
Q 2034 3584 2315 3537 
Q 2597 3491 2834 3397 
z
" id="DejaVuSans-73" transform="scale(0.015625)"/>
      </defs>
      <use xlink:href="#DejaVuSans-41"/>
      <use x="68.408203" xlink:href="#DejaVuSans-73"/>
      <use x="120.507812" xlink:href="#DejaVuSans-69"/>
      <use x="148.291016" xlink:href="#DejaVuSans-61"/>
     </g>
    </g>
    <g id="line2d_26">
     <path d="M 1065.97 52.90625 
L 1081.97 52.90625 
" style="fill:none;stroke:#937252;stroke-linecap:square;stroke-width:2;"/>
    </g>
    <g id="line2d_27"/>
    <g id="text_18">
     <!-- Africa -->
     <g transform="translate(1088.37 55.70625)scale(0.08 -0.08)">
      <defs>
       <path d="M 2375 4863 
L 2375 4384 
L 1825 4384 
Q 1516 4384 1395 4259 
Q 1275 4134 1275 3809 
L 1275 3500 
L 2222 3500 
L 2222 3053 
L 1275 3053 
L 1275 0 
L 697 0 
L 697 3053 
L 147 3053 
L 147 3500 
L 697 3500 
L 697 3744 
Q 697 4328 969 4595 
Q 1241 4863 1831 4863 
L 2375 4863 
z
" id="DejaVuSans-66" transform="scale(0.015625)"/>
      </defs>
      <use xlink:href="#DejaVuSans-41"/>
      <use x="64.783203" xlink:href="#DejaVuSans-66"/>
      <use x="99.988281" xlink:href="#DejaVuSans-72"/>
      <use x="141.101562" xlink:href="#DejaVuSans-69"/>
      <use x="168.884766" xlink:href="#DejaVuSans-63"/>
      <use x="223.865234" xlink:href="#DejaVuSans-61"/>
     </g>
    </g>
    <g id="line2d_28">
     <path d="M 1065.97 64.64875 
L 1081.97 64.64875 
" style="fill:none;stroke:#d18cad;stroke-linecap:square;stroke-width:2;"/>
    </g>
    <g id="line2d_29"/>
    <g id="text_19">
     <!-- United Kingdom -->
     <g transform="translate(1088.37 67.44875)scale(0.08 -0.08)">
      <defs>
       <path d="M 556 4666 
L 1191 4666 
L 1191 1831 
Q 1191 1081 1462 751 
Q 1734 422 2344 422 
Q 2950 422 3222 751 
Q 3494 1081 3494 1831 
L 3494 4666 
L 4128 4666 
L 4128 1753 
Q 4128 841 3676 375 
Q 3225 -91 2344 -91 
Q 1459 -91 1007 375 
Q 556 841 556 1753 
L 556 4666 
z
" id="DejaVuSans-55" transform="scale(0.015625)"/>
       <path d="M 628 4666 
L 1259 4666 
L 1259 2694 
L 3353 4666 
L 4166 4666 
L 1850 2491 
L 4331 0 
L 3500 0 
L 1259 2247 
L 1259 0 
L 628 0 
L 628 4666 
z
" id="DejaVuSans-4b" transform="scale(0.015625)"/>
      </defs>
      <use xlink:href="#DejaVuSans-55"/>
      <use x="73.193359" xlink:href="#DejaVuSans-6e"/>
      <use x="136.572266" xlink:href="#DejaVuSans-69"/>
      <use x="164.355469" xlink:href="#DejaVuSans-74"/>
      <use x="203.564453" xlink:href="#DejaVuSans-65"/>
      <use x="265.087891" xlink:href="#DejaVuSans-64"/>
      <use x="328.564453" xlink:href="#DejaVuSans-20"/>
      <use x="360.351562" xlink:href="#DejaVuSans-4b"/>
      <use x="425.927734" xlink:href="#DejaVuSans-69"/>
      <use x="453.710938" xlink:href="#DejaVuSans-6e"/>
      <use x="517.089844" xlink:href="#DejaVuSans-67"/>
      <use x="580.566406" xlink:href="#DejaVuSans-64"/>
      <use x="644.042969" xlink:href="#DejaVuSans-6f"/>
      <use x="705.224609" xlink:href="#DejaVuSans-6d"/>
     </g>
    </g>
    <g id="line2d_30">
     <path d="M 1065.97 76.39125 
L 1081.97 76.39125 
" style="fill:none;stroke:#a4a86f;stroke-linecap:square;stroke-width:2;"/>
    </g>
    <g id="line2d_31"/>
    <g id="text_20">
     <!-- Oceania -->
     <g transform="translate(1088.37 79.19125)scale(0.08 -0.08)">
      <defs>
       <path d="M 2522 4238 
Q 1834 4238 1429 3725 
Q 1025 3213 1025 2328 
Q 1025 1447 1429 934 
Q 1834 422 2522 422 
Q 3209 422 3611 934 
Q 4013 1447 4013 2328 
Q 4013 3213 3611 3725 
Q 3209 4238 2522 4238 
z
M 2522 4750 
Q 3503 4750 4090 4092 
Q 4678 3434 4678 2328 
Q 4678 1225 4090 567 
Q 3503 -91 2522 -91 
Q 1538 -91 948 565 
Q 359 1222 359 2328 
Q 359 3434 948 4092 
Q 1538 4750 2522 4750 
z
" id="DejaVuSans-4f" transform="scale(0.015625)"/>
      </defs>
      <use xlink:href="#DejaVuSans-4f"/>
      <use x="78.710938" xlink:href="#DejaVuSans-63"/>
      <use x="133.691406" xlink:href="#DejaVuSans-65"/>
      <use x="195.214844" xlink:href="#DejaVuSans-61"/>
      <use x="256.494141" xlink:href="#DejaVuSans-6e"/>
      <use x="319.873047" xlink:href="#DejaVuSans-69"/>
      <use x="347.65625" xlink:href="#DejaVuSans-61"/>
     </g>
    </g>
    <g id="line2d_32">
     <path d="M 1065.97 88.13375 
L 1081.97 88.13375 
" style="fill:none;stroke:#d3d3d3;stroke-linecap:square;stroke-width:2;"/>
    </g>
    <g id="line2d_33"/>
    <g id="text_21">
     <!-- South America -->
     <g transform="translate(1088.37 90.93375)scale(0.08 -0.08)">
      <defs>
       <path d="M 3425 4513 
L 3425 3897 
Q 3066 4069 2747 4153 
Q 2428 4238 2131 4238 
Q 1616 4238 1336 4038 
Q 1056 3838 1056 3469 
Q 1056 3159 1242 3001 
Q 1428 2844 1947 2747 
L 2328 2669 
Q 3034 2534 3370 2195 
Q 3706 1856 3706 1288 
Q 3706 609 3251 259 
Q 2797 -91 1919 -91 
Q 1588 -91 1214 -16 
Q 841 59 441 206 
L 441 856 
Q 825 641 1194 531 
Q 1563 422 1919 422 
Q 2459 422 2753 634 
Q 3047 847 3047 1241 
Q 3047 1584 2836 1778 
Q 2625 1972 2144 2069 
L 1759 2144 
Q 1053 2284 737 2584 
Q 422 2884 422 3419 
Q 422 4038 858 4394 
Q 1294 4750 2059 4750 
Q 2388 4750 2728 4690 
Q 3069 4631 3425 4513 
z
" id="DejaVuSans-53" transform="scale(0.015625)"/>
      </defs>
      <use xlink:href="#DejaVuSans-53"/>
      <use x="63.476562" xlink:href="#DejaVuSans-6f"/>
      <use x="124.658203" xlink:href="#DejaVuSans-75"/>
      <use x="188.037109" xlink:href="#DejaVuSans-74"/>
      <use x="227.246094" xlink:href="#DejaVuSans-68"/>
      <use x="290.625" xlink:href="#DejaVuSans-20"/>
      <use x="322.412109" xlink:href="#DejaVuSans-41"/>
      <use x="390.820312" xlink:href="#DejaVuSans-6d"/>
      <use x="488.232422" xlink:href="#DejaVuSans-65"/>
      <use x="549.755859" xlink:href="#DejaVuSans-72"/>
      <use x="590.869141" xlink:href="#DejaVuSans-69"/>
      <use x="618.652344" xlink:href="#DejaVuSans-63"/>
      <use x="673.632812" xlink:href="#DejaVuSans-61"/>
     </g>
    </g>
   </g>
  </g>
 </g>
 <defs>
  <clipPath id="p536b3b7b3d">
   <rect height="221.76" width="1116" x="43.78125" y="7.2"/>
  </clipPath>
 </defs>
</svg>
