<?xml version="1.0" encoding="utf-8" standalone="no"?>
<!DOCTYPE svg PUBLIC "-//W3C//DTD SVG 1.1//EN"
  "http://www.w3.org/Graphics/SVG/1.1/DTD/svg11.dtd">
<svg height="298.620937pt" version="1.1" viewBox="0 0 1166.98125 298.620937" width="1166.98125pt" xmlns="http://www.w3.org/2000/svg" xmlns:xlink="http://www.w3.org/1999/xlink">
 <metadata>
  <rdf:RDF xmlns:cc="http://creativecommons.org/ns#" xmlns:dc="http://purl.org/dc/elements/1.1/" xmlns:rdf="http://www.w3.org/1999/02/22-rdf-syntax-ns#">
   <cc:Work>
    <dc:type rdf:resource="http://purl.org/dc/dcmitype/StillImage"/>
    <dc:date>2022-01-10T21:52:12.274170</dc:date>
    <dc:format>image/svg+xml</dc:format>
    <dc:creator>
     <cc:Agent>
      <dc:title>Matplotlib v3.4.2, https://matplotlib.org/</dc:title>
     </cc:Agent>
    </dc:creator>
   </cc:Work>
  </rdf:RDF>
 </metadata>
 <defs>
  <style type="text/css">*{stroke-linecap:butt;stroke-linejoin:round;}</style>
 </defs>
 <g id="figure_1">
  <g id="patch_1">
   <path d="M 0 298.620937 
L 1166.98125 298.620937 
L 1166.98125 0 
L 0 0 
z
" style="fill:#ffffff;"/>
  </g>
  <g id="axes_1">
   <g id="patch_2">
    <path d="M 43.78125 228.96 
L 1159.78125 228.96 
L 1159.78125 7.2 
L 43.78125 7.2 
z
" style="fill:#ffffff;"/>
   </g>
   <g id="matplotlib.axis_1">
    <g id="xtick_1">
     <g id="line2d_1">
      <defs>
       <path d="M 0 0 
L 0 3.5 
" id="m427764552c" style="stroke:#000000;stroke-width:0.8;"/>
      </defs>
      <g>
       <use style="stroke:#000000;stroke-width:0.8;" x="81.473677" xlink:href="#m427764552c" y="228.96"/>
      </g>
     </g>
     <g id="text_1">
      <!-- 2020-09 -->
      <g transform="translate(84.233052 277.742812)rotate(-90)scale(0.1 -0.1)">
       <defs>
        <path d="M 1228 531 
L 3431 531 
L 3431 0 
L 469 0 
L 469 531 
Q 828 903 1448 1529 
Q 2069 2156 2228 2338 
Q 2531 2678 2651 2914 
Q 2772 3150 2772 3378 
Q 2772 3750 2511 3984 
Q 2250 4219 1831 4219 
Q 1534 4219 1204 4116 
Q 875 4013 500 3803 
L 500 4441 
Q 881 4594 1212 4672 
Q 1544 4750 1819 4750 
Q 2544 4750 2975 4387 
Q 3406 4025 3406 3419 
Q 3406 3131 3298 2873 
Q 3191 2616 2906 2266 
Q 2828 2175 2409 1742 
Q 1991 1309 1228 531 
z
" id="DejaVuSans-32" transform="scale(0.015625)"/>
        <path d="M 2034 4250 
Q 1547 4250 1301 3770 
Q 1056 3291 1056 2328 
Q 1056 1369 1301 889 
Q 1547 409 2034 409 
Q 2525 409 2770 889 
Q 3016 1369 3016 2328 
Q 3016 3291 2770 3770 
Q 2525 4250 2034 4250 
z
M 2034 4750 
Q 2819 4750 3233 4129 
Q 3647 3509 3647 2328 
Q 3647 1150 3233 529 
Q 2819 -91 2034 -91 
Q 1250 -91 836 529 
Q 422 1150 422 2328 
Q 422 3509 836 4129 
Q 1250 4750 2034 4750 
z
" id="DejaVuSans-30" transform="scale(0.015625)"/>
        <path d="M 313 2009 
L 1997 2009 
L 1997 1497 
L 313 1497 
L 313 2009 
z
" id="DejaVuSans-2d" transform="scale(0.015625)"/>
        <path d="M 703 97 
L 703 672 
Q 941 559 1184 500 
Q 1428 441 1663 441 
Q 2288 441 2617 861 
Q 2947 1281 2994 2138 
Q 2813 1869 2534 1725 
Q 2256 1581 1919 1581 
Q 1219 1581 811 2004 
Q 403 2428 403 3163 
Q 403 3881 828 4315 
Q 1253 4750 1959 4750 
Q 2769 4750 3195 4129 
Q 3622 3509 3622 2328 
Q 3622 1225 3098 567 
Q 2575 -91 1691 -91 
Q 1453 -91 1209 -44 
Q 966 3 703 97 
z
M 1959 2075 
Q 2384 2075 2632 2365 
Q 2881 2656 2881 3163 
Q 2881 3666 2632 3958 
Q 2384 4250 1959 4250 
Q 1534 4250 1286 3958 
Q 1038 3666 1038 3163 
Q 1038 2656 1286 2365 
Q 1534 2075 1959 2075 
z
" id="DejaVuSans-39" transform="scale(0.015625)"/>
       </defs>
       <use xlink:href="#DejaVuSans-32"/>
       <use x="63.623047" xlink:href="#DejaVuSans-30"/>
       <use x="127.246094" xlink:href="#DejaVuSans-32"/>
       <use x="190.869141" xlink:href="#DejaVuSans-30"/>
       <use x="254.492188" xlink:href="#DejaVuSans-2d"/>
       <use x="290.576172" xlink:href="#DejaVuSans-30"/>
       <use x="354.199219" xlink:href="#DejaVuSans-39"/>
      </g>
     </g>
    </g>
    <g id="xtick_2">
     <g id="line2d_2">
      <g>
       <use style="stroke:#000000;stroke-width:0.8;" x="213.994604" xlink:href="#m427764552c" y="228.96"/>
      </g>
     </g>
     <g id="text_2">
      <!-- 2020-11 -->
      <g transform="translate(216.753979 277.742812)rotate(-90)scale(0.1 -0.1)">
       <defs>
        <path d="M 794 531 
L 1825 531 
L 1825 4091 
L 703 3866 
L 703 4441 
L 1819 4666 
L 2450 4666 
L 2450 531 
L 3481 531 
L 3481 0 
L 794 0 
L 794 531 
z
" id="DejaVuSans-31" transform="scale(0.015625)"/>
       </defs>
       <use xlink:href="#DejaVuSans-32"/>
       <use x="63.623047" xlink:href="#DejaVuSans-30"/>
       <use x="127.246094" xlink:href="#DejaVuSans-32"/>
       <use x="190.869141" xlink:href="#DejaVuSans-30"/>
       <use x="254.492188" xlink:href="#DejaVuSans-2d"/>
       <use x="290.576172" xlink:href="#DejaVuSans-31"/>
       <use x="354.199219" xlink:href="#DejaVuSans-31"/>
      </g>
     </g>
    </g>
    <g id="xtick_3">
     <g id="line2d_3">
      <g>
       <use style="stroke:#000000;stroke-width:0.8;" x="346.515531" xlink:href="#m427764552c" y="228.96"/>
      </g>
     </g>
     <g id="text_3">
      <!-- 2021-01 -->
      <g transform="translate(349.274906 277.742812)rotate(-90)scale(0.1 -0.1)">
       <use xlink:href="#DejaVuSans-32"/>
       <use x="63.623047" xlink:href="#DejaVuSans-30"/>
       <use x="127.246094" xlink:href="#DejaVuSans-32"/>
       <use x="190.869141" xlink:href="#DejaVuSans-31"/>
       <use x="254.492188" xlink:href="#DejaVuSans-2d"/>
       <use x="290.576172" xlink:href="#DejaVuSans-30"/>
       <use x="354.199219" xlink:href="#DejaVuSans-31"/>
      </g>
     </g>
    </g>
    <g id="xtick_4">
     <g id="line2d_4">
      <g>
       <use style="stroke:#000000;stroke-width:0.8;" x="474.691509" xlink:href="#m427764552c" y="228.96"/>
      </g>
     </g>
     <g id="text_4">
      <!-- 2021-03 -->
      <g transform="translate(477.450884 277.742812)rotate(-90)scale(0.1 -0.1)">
       <defs>
        <path d="M 2597 2516 
Q 3050 2419 3304 2112 
Q 3559 1806 3559 1356 
Q 3559 666 3084 287 
Q 2609 -91 1734 -91 
Q 1441 -91 1130 -33 
Q 819 25 488 141 
L 488 750 
Q 750 597 1062 519 
Q 1375 441 1716 441 
Q 2309 441 2620 675 
Q 2931 909 2931 1356 
Q 2931 1769 2642 2001 
Q 2353 2234 1838 2234 
L 1294 2234 
L 1294 2753 
L 1863 2753 
Q 2328 2753 2575 2939 
Q 2822 3125 2822 3475 
Q 2822 3834 2567 4026 
Q 2313 4219 1838 4219 
Q 1578 4219 1281 4162 
Q 984 4106 628 3988 
L 628 4550 
Q 988 4650 1302 4700 
Q 1616 4750 1894 4750 
Q 2613 4750 3031 4423 
Q 3450 4097 3450 3541 
Q 3450 3153 3228 2886 
Q 3006 2619 2597 2516 
z
" id="DejaVuSans-33" transform="scale(0.015625)"/>
       </defs>
       <use xlink:href="#DejaVuSans-32"/>
       <use x="63.623047" xlink:href="#DejaVuSans-30"/>
       <use x="127.246094" xlink:href="#DejaVuSans-32"/>
       <use x="190.869141" xlink:href="#DejaVuSans-31"/>
       <use x="254.492188" xlink:href="#DejaVuSans-2d"/>
       <use x="290.576172" xlink:href="#DejaVuSans-30"/>
       <use x="354.199219" xlink:href="#DejaVuSans-33"/>
      </g>
     </g>
    </g>
    <g id="xtick_5">
     <g id="line2d_5">
      <g>
       <use style="stroke:#000000;stroke-width:0.8;" x="607.212436" xlink:href="#m427764552c" y="228.96"/>
      </g>
     </g>
     <g id="text_5">
      <!-- 2021-05 -->
      <g transform="translate(609.971811 277.742812)rotate(-90)scale(0.1 -0.1)">
       <defs>
        <path d="M 691 4666 
L 3169 4666 
L 3169 4134 
L 1269 4134 
L 1269 2991 
Q 1406 3038 1543 3061 
Q 1681 3084 1819 3084 
Q 2600 3084 3056 2656 
Q 3513 2228 3513 1497 
Q 3513 744 3044 326 
Q 2575 -91 1722 -91 
Q 1428 -91 1123 -41 
Q 819 9 494 109 
L 494 744 
Q 775 591 1075 516 
Q 1375 441 1709 441 
Q 2250 441 2565 725 
Q 2881 1009 2881 1497 
Q 2881 1984 2565 2268 
Q 2250 2553 1709 2553 
Q 1456 2553 1204 2497 
Q 953 2441 691 2322 
L 691 4666 
z
" id="DejaVuSans-35" transform="scale(0.015625)"/>
       </defs>
       <use xlink:href="#DejaVuSans-32"/>
       <use x="63.623047" xlink:href="#DejaVuSans-30"/>
       <use x="127.246094" xlink:href="#DejaVuSans-32"/>
       <use x="190.869141" xlink:href="#DejaVuSans-31"/>
       <use x="254.492188" xlink:href="#DejaVuSans-2d"/>
       <use x="290.576172" xlink:href="#DejaVuSans-30"/>
       <use x="354.199219" xlink:href="#DejaVuSans-35"/>
      </g>
     </g>
    </g>
    <g id="xtick_6">
     <g id="line2d_6">
      <g>
       <use style="stroke:#000000;stroke-width:0.8;" x="739.733362" xlink:href="#m427764552c" y="228.96"/>
      </g>
     </g>
     <g id="text_6">
      <!-- 2021-07 -->
      <g transform="translate(742.492737 277.742812)rotate(-90)scale(0.1 -0.1)">
       <defs>
        <path d="M 525 4666 
L 3525 4666 
L 3525 4397 
L 1831 0 
L 1172 0 
L 2766 4134 
L 525 4134 
L 525 4666 
z
" id="DejaVuSans-37" transform="scale(0.015625)"/>
       </defs>
       <use xlink:href="#DejaVuSans-32"/>
       <use x="63.623047" xlink:href="#DejaVuSans-30"/>
       <use x="127.246094" xlink:href="#DejaVuSans-32"/>
       <use x="190.869141" xlink:href="#DejaVuSans-31"/>
       <use x="254.492188" xlink:href="#DejaVuSans-2d"/>
       <use x="290.576172" xlink:href="#DejaVuSans-30"/>
       <use x="354.199219" xlink:href="#DejaVuSans-37"/>
      </g>
     </g>
    </g>
    <g id="xtick_7">
     <g id="line2d_7">
      <g>
       <use style="stroke:#000000;stroke-width:0.8;" x="874.426763" xlink:href="#m427764552c" y="228.96"/>
      </g>
     </g>
     <g id="text_7">
      <!-- 2021-09 -->
      <g transform="translate(877.186138 277.742812)rotate(-90)scale(0.1 -0.1)">
       <use xlink:href="#DejaVuSans-32"/>
       <use x="63.623047" xlink:href="#DejaVuSans-30"/>
       <use x="127.246094" xlink:href="#DejaVuSans-32"/>
       <use x="190.869141" xlink:href="#DejaVuSans-31"/>
       <use x="254.492188" xlink:href="#DejaVuSans-2d"/>
       <use x="290.576172" xlink:href="#DejaVuSans-30"/>
       <use x="354.199219" xlink:href="#DejaVuSans-39"/>
      </g>
     </g>
    </g>
    <g id="xtick_8">
     <g id="line2d_8">
      <g>
       <use style="stroke:#000000;stroke-width:0.8;" x="1006.94769" xlink:href="#m427764552c" y="228.96"/>
      </g>
     </g>
     <g id="text_8">
      <!-- 2021-11 -->
      <g transform="translate(1009.707065 277.742812)rotate(-90)scale(0.1 -0.1)">
       <use xlink:href="#DejaVuSans-32"/>
       <use x="63.623047" xlink:href="#DejaVuSans-30"/>
       <use x="127.246094" xlink:href="#DejaVuSans-32"/>
       <use x="190.869141" xlink:href="#DejaVuSans-31"/>
       <use x="254.492188" xlink:href="#DejaVuSans-2d"/>
       <use x="290.576172" xlink:href="#DejaVuSans-31"/>
       <use x="354.199219" xlink:href="#DejaVuSans-31"/>
      </g>
     </g>
    </g>
    <g id="xtick_9">
     <g id="line2d_9">
      <g>
       <use style="stroke:#000000;stroke-width:0.8;" x="1139.468616" xlink:href="#m427764552c" y="228.96"/>
      </g>
     </g>
     <g id="text_9">
      <!-- 2022-01 -->
      <g transform="translate(1142.227991 277.742812)rotate(-90)scale(0.1 -0.1)">
       <use xlink:href="#DejaVuSans-32"/>
       <use x="63.623047" xlink:href="#DejaVuSans-30"/>
       <use x="127.246094" xlink:href="#DejaVuSans-32"/>
       <use x="190.869141" xlink:href="#DejaVuSans-32"/>
       <use x="254.492188" xlink:href="#DejaVuSans-2d"/>
       <use x="290.576172" xlink:href="#DejaVuSans-30"/>
       <use x="354.199219" xlink:href="#DejaVuSans-31"/>
      </g>
     </g>
    </g>
    <g id="text_10">
     <!-- Date -->
     <g transform="translate(589.830469 289.34125)scale(0.1 -0.1)">
      <defs>
       <path d="M 1259 4147 
L 1259 519 
L 2022 519 
Q 2988 519 3436 956 
Q 3884 1394 3884 2338 
Q 3884 3275 3436 3711 
Q 2988 4147 2022 4147 
L 1259 4147 
z
M 628 4666 
L 1925 4666 
Q 3281 4666 3915 4102 
Q 4550 3538 4550 2338 
Q 4550 1131 3912 565 
Q 3275 0 1925 0 
L 628 0 
L 628 4666 
z
" id="DejaVuSans-44" transform="scale(0.015625)"/>
       <path d="M 2194 1759 
Q 1497 1759 1228 1600 
Q 959 1441 959 1056 
Q 959 750 1161 570 
Q 1363 391 1709 391 
Q 2188 391 2477 730 
Q 2766 1069 2766 1631 
L 2766 1759 
L 2194 1759 
z
M 3341 1997 
L 3341 0 
L 2766 0 
L 2766 531 
Q 2569 213 2275 61 
Q 1981 -91 1556 -91 
Q 1019 -91 701 211 
Q 384 513 384 1019 
Q 384 1609 779 1909 
Q 1175 2209 1959 2209 
L 2766 2209 
L 2766 2266 
Q 2766 2663 2505 2880 
Q 2244 3097 1772 3097 
Q 1472 3097 1187 3025 
Q 903 2953 641 2809 
L 641 3341 
Q 956 3463 1253 3523 
Q 1550 3584 1831 3584 
Q 2591 3584 2966 3190 
Q 3341 2797 3341 1997 
z
" id="DejaVuSans-61" transform="scale(0.015625)"/>
       <path d="M 1172 4494 
L 1172 3500 
L 2356 3500 
L 2356 3053 
L 1172 3053 
L 1172 1153 
Q 1172 725 1289 603 
Q 1406 481 1766 481 
L 2356 481 
L 2356 0 
L 1766 0 
Q 1100 0 847 248 
Q 594 497 594 1153 
L 594 3053 
L 172 3053 
L 172 3500 
L 594 3500 
L 594 4494 
L 1172 4494 
z
" id="DejaVuSans-74" transform="scale(0.015625)"/>
       <path d="M 3597 1894 
L 3597 1613 
L 953 1613 
Q 991 1019 1311 708 
Q 1631 397 2203 397 
Q 2534 397 2845 478 
Q 3156 559 3463 722 
L 3463 178 
Q 3153 47 2828 -22 
Q 2503 -91 2169 -91 
Q 1331 -91 842 396 
Q 353 884 353 1716 
Q 353 2575 817 3079 
Q 1281 3584 2069 3584 
Q 2775 3584 3186 3129 
Q 3597 2675 3597 1894 
z
M 3022 2063 
Q 3016 2534 2758 2815 
Q 2500 3097 2075 3097 
Q 1594 3097 1305 2825 
Q 1016 2553 972 2059 
L 3022 2063 
z
" id="DejaVuSans-65" transform="scale(0.015625)"/>
      </defs>
      <use xlink:href="#DejaVuSans-44"/>
      <use x="77.001953" xlink:href="#DejaVuSans-61"/>
      <use x="138.28125" xlink:href="#DejaVuSans-74"/>
      <use x="177.490234" xlink:href="#DejaVuSans-65"/>
     </g>
    </g>
   </g>
   <g id="matplotlib.axis_2">
    <g id="ytick_1">
     <g id="line2d_10">
      <defs>
       <path d="M 0 0 
L -3.5 0 
" id="mb7b37532e0" style="stroke:#000000;stroke-width:0.8;"/>
      </defs>
      <g>
       <use style="stroke:#000000;stroke-width:0.8;" x="43.78125" xlink:href="#mb7b37532e0" y="228.96"/>
      </g>
     </g>
     <g id="text_11">
      <!-- 0.0 -->
      <g transform="translate(20.878125 232.759219)scale(0.1 -0.1)">
       <defs>
        <path d="M 684 794 
L 1344 794 
L 1344 0 
L 684 0 
L 684 794 
z
" id="DejaVuSans-2e" transform="scale(0.015625)"/>
       </defs>
       <use xlink:href="#DejaVuSans-30"/>
       <use x="63.623047" xlink:href="#DejaVuSans-2e"/>
       <use x="95.410156" xlink:href="#DejaVuSans-30"/>
      </g>
     </g>
    </g>
    <g id="ytick_2">
     <g id="line2d_11">
      <g>
       <use style="stroke:#000000;stroke-width:0.8;" x="43.78125" xlink:href="#mb7b37532e0" y="185.966452"/>
      </g>
     </g>
     <g id="text_12">
      <!-- 0.2 -->
      <g transform="translate(20.878125 189.76567)scale(0.1 -0.1)">
       <use xlink:href="#DejaVuSans-30"/>
       <use x="63.623047" xlink:href="#DejaVuSans-2e"/>
       <use x="95.410156" xlink:href="#DejaVuSans-32"/>
      </g>
     </g>
    </g>
    <g id="ytick_3">
     <g id="line2d_12">
      <g>
       <use style="stroke:#000000;stroke-width:0.8;" x="43.78125" xlink:href="#mb7b37532e0" y="142.972903"/>
      </g>
     </g>
     <g id="text_13">
      <!-- 0.4 -->
      <g transform="translate(20.878125 146.772122)scale(0.1 -0.1)">
       <defs>
        <path d="M 2419 4116 
L 825 1625 
L 2419 1625 
L 2419 4116 
z
M 2253 4666 
L 3047 4666 
L 3047 1625 
L 3713 1625 
L 3713 1100 
L 3047 1100 
L 3047 0 
L 2419 0 
L 2419 1100 
L 313 1100 
L 313 1709 
L 2253 4666 
z
" id="DejaVuSans-34" transform="scale(0.015625)"/>
       </defs>
       <use xlink:href="#DejaVuSans-30"/>
       <use x="63.623047" xlink:href="#DejaVuSans-2e"/>
       <use x="95.410156" xlink:href="#DejaVuSans-34"/>
      </g>
     </g>
    </g>
    <g id="ytick_4">
     <g id="line2d_13">
      <g>
       <use style="stroke:#000000;stroke-width:0.8;" x="43.78125" xlink:href="#mb7b37532e0" y="99.979355"/>
      </g>
     </g>
     <g id="text_14">
      <!-- 0.6 -->
      <g transform="translate(20.878125 103.778574)scale(0.1 -0.1)">
       <defs>
        <path d="M 2113 2584 
Q 1688 2584 1439 2293 
Q 1191 2003 1191 1497 
Q 1191 994 1439 701 
Q 1688 409 2113 409 
Q 2538 409 2786 701 
Q 3034 994 3034 1497 
Q 3034 2003 2786 2293 
Q 2538 2584 2113 2584 
z
M 3366 4563 
L 3366 3988 
Q 3128 4100 2886 4159 
Q 2644 4219 2406 4219 
Q 1781 4219 1451 3797 
Q 1122 3375 1075 2522 
Q 1259 2794 1537 2939 
Q 1816 3084 2150 3084 
Q 2853 3084 3261 2657 
Q 3669 2231 3669 1497 
Q 3669 778 3244 343 
Q 2819 -91 2113 -91 
Q 1303 -91 875 529 
Q 447 1150 447 2328 
Q 447 3434 972 4092 
Q 1497 4750 2381 4750 
Q 2619 4750 2861 4703 
Q 3103 4656 3366 4563 
z
" id="DejaVuSans-36" transform="scale(0.015625)"/>
       </defs>
       <use xlink:href="#DejaVuSans-30"/>
       <use x="63.623047" xlink:href="#DejaVuSans-2e"/>
       <use x="95.410156" xlink:href="#DejaVuSans-36"/>
      </g>
     </g>
    </g>
    <g id="ytick_5">
     <g id="line2d_14">
      <g>
       <use style="stroke:#000000;stroke-width:0.8;" x="43.78125" xlink:href="#mb7b37532e0" y="56.985807"/>
      </g>
     </g>
     <g id="text_15">
      <!-- 0.8 -->
      <g transform="translate(20.878125 60.785025)scale(0.1 -0.1)">
       <defs>
        <path d="M 2034 2216 
Q 1584 2216 1326 1975 
Q 1069 1734 1069 1313 
Q 1069 891 1326 650 
Q 1584 409 2034 409 
Q 2484 409 2743 651 
Q 3003 894 3003 1313 
Q 3003 1734 2745 1975 
Q 2488 2216 2034 2216 
z
M 1403 2484 
Q 997 2584 770 2862 
Q 544 3141 544 3541 
Q 544 4100 942 4425 
Q 1341 4750 2034 4750 
Q 2731 4750 3128 4425 
Q 3525 4100 3525 3541 
Q 3525 3141 3298 2862 
Q 3072 2584 2669 2484 
Q 3125 2378 3379 2068 
Q 3634 1759 3634 1313 
Q 3634 634 3220 271 
Q 2806 -91 2034 -91 
Q 1263 -91 848 271 
Q 434 634 434 1313 
Q 434 1759 690 2068 
Q 947 2378 1403 2484 
z
M 1172 3481 
Q 1172 3119 1398 2916 
Q 1625 2713 2034 2713 
Q 2441 2713 2670 2916 
Q 2900 3119 2900 3481 
Q 2900 3844 2670 4047 
Q 2441 4250 2034 4250 
Q 1625 4250 1398 4047 
Q 1172 3844 1172 3481 
z
" id="DejaVuSans-38" transform="scale(0.015625)"/>
       </defs>
       <use xlink:href="#DejaVuSans-30"/>
       <use x="63.623047" xlink:href="#DejaVuSans-2e"/>
       <use x="95.410156" xlink:href="#DejaVuSans-38"/>
      </g>
     </g>
    </g>
    <g id="ytick_6">
     <g id="line2d_15">
      <g>
       <use style="stroke:#000000;stroke-width:0.8;" x="43.78125" xlink:href="#mb7b37532e0" y="13.992258"/>
      </g>
     </g>
     <g id="text_16">
      <!-- 1.0 -->
      <g transform="translate(20.878125 17.791477)scale(0.1 -0.1)">
       <use xlink:href="#DejaVuSans-31"/>
       <use x="63.623047" xlink:href="#DejaVuSans-2e"/>
       <use x="95.410156" xlink:href="#DejaVuSans-30"/>
      </g>
     </g>
    </g>
    <g id="text_17">
     <!-- Frequency (7 day rolling average) -->
     <g transform="translate(14.798437 202.529219)rotate(-90)scale(0.1 -0.1)">
      <defs>
       <path d="M 628 4666 
L 3309 4666 
L 3309 4134 
L 1259 4134 
L 1259 2759 
L 3109 2759 
L 3109 2228 
L 1259 2228 
L 1259 0 
L 628 0 
L 628 4666 
z
" id="DejaVuSans-46" transform="scale(0.015625)"/>
       <path d="M 2631 2963 
Q 2534 3019 2420 3045 
Q 2306 3072 2169 3072 
Q 1681 3072 1420 2755 
Q 1159 2438 1159 1844 
L 1159 0 
L 581 0 
L 581 3500 
L 1159 3500 
L 1159 2956 
Q 1341 3275 1631 3429 
Q 1922 3584 2338 3584 
Q 2397 3584 2469 3576 
Q 2541 3569 2628 3553 
L 2631 2963 
z
" id="DejaVuSans-72" transform="scale(0.015625)"/>
       <path d="M 947 1747 
Q 947 1113 1208 752 
Q 1469 391 1925 391 
Q 2381 391 2643 752 
Q 2906 1113 2906 1747 
Q 2906 2381 2643 2742 
Q 2381 3103 1925 3103 
Q 1469 3103 1208 2742 
Q 947 2381 947 1747 
z
M 2906 525 
Q 2725 213 2448 61 
Q 2172 -91 1784 -91 
Q 1150 -91 751 415 
Q 353 922 353 1747 
Q 353 2572 751 3078 
Q 1150 3584 1784 3584 
Q 2172 3584 2448 3432 
Q 2725 3281 2906 2969 
L 2906 3500 
L 3481 3500 
L 3481 -1331 
L 2906 -1331 
L 2906 525 
z
" id="DejaVuSans-71" transform="scale(0.015625)"/>
       <path d="M 544 1381 
L 544 3500 
L 1119 3500 
L 1119 1403 
Q 1119 906 1312 657 
Q 1506 409 1894 409 
Q 2359 409 2629 706 
Q 2900 1003 2900 1516 
L 2900 3500 
L 3475 3500 
L 3475 0 
L 2900 0 
L 2900 538 
Q 2691 219 2414 64 
Q 2138 -91 1772 -91 
Q 1169 -91 856 284 
Q 544 659 544 1381 
z
M 1991 3584 
L 1991 3584 
z
" id="DejaVuSans-75" transform="scale(0.015625)"/>
       <path d="M 3513 2113 
L 3513 0 
L 2938 0 
L 2938 2094 
Q 2938 2591 2744 2837 
Q 2550 3084 2163 3084 
Q 1697 3084 1428 2787 
Q 1159 2491 1159 1978 
L 1159 0 
L 581 0 
L 581 3500 
L 1159 3500 
L 1159 2956 
Q 1366 3272 1645 3428 
Q 1925 3584 2291 3584 
Q 2894 3584 3203 3211 
Q 3513 2838 3513 2113 
z
" id="DejaVuSans-6e" transform="scale(0.015625)"/>
       <path d="M 3122 3366 
L 3122 2828 
Q 2878 2963 2633 3030 
Q 2388 3097 2138 3097 
Q 1578 3097 1268 2742 
Q 959 2388 959 1747 
Q 959 1106 1268 751 
Q 1578 397 2138 397 
Q 2388 397 2633 464 
Q 2878 531 3122 666 
L 3122 134 
Q 2881 22 2623 -34 
Q 2366 -91 2075 -91 
Q 1284 -91 818 406 
Q 353 903 353 1747 
Q 353 2603 823 3093 
Q 1294 3584 2113 3584 
Q 2378 3584 2631 3529 
Q 2884 3475 3122 3366 
z
" id="DejaVuSans-63" transform="scale(0.015625)"/>
       <path d="M 2059 -325 
Q 1816 -950 1584 -1140 
Q 1353 -1331 966 -1331 
L 506 -1331 
L 506 -850 
L 844 -850 
Q 1081 -850 1212 -737 
Q 1344 -625 1503 -206 
L 1606 56 
L 191 3500 
L 800 3500 
L 1894 763 
L 2988 3500 
L 3597 3500 
L 2059 -325 
z
" id="DejaVuSans-79" transform="scale(0.015625)"/>
       <path id="DejaVuSans-20" transform="scale(0.015625)"/>
       <path d="M 1984 4856 
Q 1566 4138 1362 3434 
Q 1159 2731 1159 2009 
Q 1159 1288 1364 580 
Q 1569 -128 1984 -844 
L 1484 -844 
Q 1016 -109 783 600 
Q 550 1309 550 2009 
Q 550 2706 781 3412 
Q 1013 4119 1484 4856 
L 1984 4856 
z
" id="DejaVuSans-28" transform="scale(0.015625)"/>
       <path d="M 2906 2969 
L 2906 4863 
L 3481 4863 
L 3481 0 
L 2906 0 
L 2906 525 
Q 2725 213 2448 61 
Q 2172 -91 1784 -91 
Q 1150 -91 751 415 
Q 353 922 353 1747 
Q 353 2572 751 3078 
Q 1150 3584 1784 3584 
Q 2172 3584 2448 3432 
Q 2725 3281 2906 2969 
z
M 947 1747 
Q 947 1113 1208 752 
Q 1469 391 1925 391 
Q 2381 391 2643 752 
Q 2906 1113 2906 1747 
Q 2906 2381 2643 2742 
Q 2381 3103 1925 3103 
Q 1469 3103 1208 2742 
Q 947 2381 947 1747 
z
" id="DejaVuSans-64" transform="scale(0.015625)"/>
       <path d="M 1959 3097 
Q 1497 3097 1228 2736 
Q 959 2375 959 1747 
Q 959 1119 1226 758 
Q 1494 397 1959 397 
Q 2419 397 2687 759 
Q 2956 1122 2956 1747 
Q 2956 2369 2687 2733 
Q 2419 3097 1959 3097 
z
M 1959 3584 
Q 2709 3584 3137 3096 
Q 3566 2609 3566 1747 
Q 3566 888 3137 398 
Q 2709 -91 1959 -91 
Q 1206 -91 779 398 
Q 353 888 353 1747 
Q 353 2609 779 3096 
Q 1206 3584 1959 3584 
z
" id="DejaVuSans-6f" transform="scale(0.015625)"/>
       <path d="M 603 4863 
L 1178 4863 
L 1178 0 
L 603 0 
L 603 4863 
z
" id="DejaVuSans-6c" transform="scale(0.015625)"/>
       <path d="M 603 3500 
L 1178 3500 
L 1178 0 
L 603 0 
L 603 3500 
z
M 603 4863 
L 1178 4863 
L 1178 4134 
L 603 4134 
L 603 4863 
z
" id="DejaVuSans-69" transform="scale(0.015625)"/>
       <path d="M 2906 1791 
Q 2906 2416 2648 2759 
Q 2391 3103 1925 3103 
Q 1463 3103 1205 2759 
Q 947 2416 947 1791 
Q 947 1169 1205 825 
Q 1463 481 1925 481 
Q 2391 481 2648 825 
Q 2906 1169 2906 1791 
z
M 3481 434 
Q 3481 -459 3084 -895 
Q 2688 -1331 1869 -1331 
Q 1566 -1331 1297 -1286 
Q 1028 -1241 775 -1147 
L 775 -588 
Q 1028 -725 1275 -790 
Q 1522 -856 1778 -856 
Q 2344 -856 2625 -561 
Q 2906 -266 2906 331 
L 2906 616 
Q 2728 306 2450 153 
Q 2172 0 1784 0 
Q 1141 0 747 490 
Q 353 981 353 1791 
Q 353 2603 747 3093 
Q 1141 3584 1784 3584 
Q 2172 3584 2450 3431 
Q 2728 3278 2906 2969 
L 2906 3500 
L 3481 3500 
L 3481 434 
z
" id="DejaVuSans-67" transform="scale(0.015625)"/>
       <path d="M 191 3500 
L 800 3500 
L 1894 563 
L 2988 3500 
L 3597 3500 
L 2284 0 
L 1503 0 
L 191 3500 
z
" id="DejaVuSans-76" transform="scale(0.015625)"/>
       <path d="M 513 4856 
L 1013 4856 
Q 1481 4119 1714 3412 
Q 1947 2706 1947 2009 
Q 1947 1309 1714 600 
Q 1481 -109 1013 -844 
L 513 -844 
Q 928 -128 1133 580 
Q 1338 1288 1338 2009 
Q 1338 2731 1133 3434 
Q 928 4138 513 4856 
z
" id="DejaVuSans-29" transform="scale(0.015625)"/>
      </defs>
      <use xlink:href="#DejaVuSans-46"/>
      <use x="50.269531" xlink:href="#DejaVuSans-72"/>
      <use x="89.132812" xlink:href="#DejaVuSans-65"/>
      <use x="150.65625" xlink:href="#DejaVuSans-71"/>
      <use x="214.132812" xlink:href="#DejaVuSans-75"/>
      <use x="277.511719" xlink:href="#DejaVuSans-65"/>
      <use x="339.035156" xlink:href="#DejaVuSans-6e"/>
      <use x="402.414062" xlink:href="#DejaVuSans-63"/>
      <use x="457.394531" xlink:href="#DejaVuSans-79"/>
      <use x="516.574219" xlink:href="#DejaVuSans-20"/>
      <use x="548.361328" xlink:href="#DejaVuSans-28"/>
      <use x="587.375" xlink:href="#DejaVuSans-37"/>
      <use x="650.998047" xlink:href="#DejaVuSans-20"/>
      <use x="682.785156" xlink:href="#DejaVuSans-64"/>
      <use x="746.261719" xlink:href="#DejaVuSans-61"/>
      <use x="807.541016" xlink:href="#DejaVuSans-79"/>
      <use x="866.720703" xlink:href="#DejaVuSans-20"/>
      <use x="898.507812" xlink:href="#DejaVuSans-72"/>
      <use x="937.371094" xlink:href="#DejaVuSans-6f"/>
      <use x="998.552734" xlink:href="#DejaVuSans-6c"/>
      <use x="1026.335938" xlink:href="#DejaVuSans-6c"/>
      <use x="1054.119141" xlink:href="#DejaVuSans-69"/>
      <use x="1081.902344" xlink:href="#DejaVuSans-6e"/>
      <use x="1145.28125" xlink:href="#DejaVuSans-67"/>
      <use x="1208.757812" xlink:href="#DejaVuSans-20"/>
      <use x="1240.544922" xlink:href="#DejaVuSans-61"/>
      <use x="1301.824219" xlink:href="#DejaVuSans-76"/>
      <use x="1361.003906" xlink:href="#DejaVuSans-65"/>
      <use x="1422.527344" xlink:href="#DejaVuSans-72"/>
      <use x="1463.640625" xlink:href="#DejaVuSans-61"/>
      <use x="1524.919922" xlink:href="#DejaVuSans-67"/>
      <use x="1588.396484" xlink:href="#DejaVuSans-65"/>
      <use x="1649.919922" xlink:href="#DejaVuSans-29"/>
     </g>
    </g>
   </g>
   <g id="line2d_16">
    <path clip-path="url(#pcaea13aba7)" d="M 94.508523 227.782095 
L 96.680997 228.96 
L 137.958007 228.96 
L 140.130481 226.912688 
L 148.820378 226.912688 
L 150.992852 228.96 
L 159.682749 228.96 
L 161.855223 227.765735 
L 164.027697 226.954536 
L 166.200172 226.954536 
L 168.372646 223.515052 
L 170.54512 223.515052 
L 172.717594 224.709317 
L 174.890068 224.878821 
L 177.062543 224.878821 
L 179.235017 228.318305 
L 200.959759 228.243441 
L 203.132233 227.526882 
L 205.304707 227.526882 
L 207.477181 228.243441 
L 211.82213 228.243441 
L 213.994604 228.96 
L 216.167078 228.96 
L 218.339553 228.293433 
L 220.512027 227.981886 
L 222.684501 227.981886 
L 224.856975 226.328288 
L 227.029449 226.328288 
L 229.201924 220.480681 
L 233.546872 220.387106 
L 235.719346 222.040704 
L 237.89182 221.7764 
L 240.064295 227.990967 
L 242.236769 228.396089 
L 248.754191 228.450451 
L 250.926666 228.750058 
L 253.09914 228.253023 
L 257.444088 228.294363 
L 259.616562 228.462965 
L 261.789037 228.392656 
L 263.961511 228.493438 
L 266.133985 228.129086 
L 272.651408 228.199394 
L 276.996356 228.520778 
L 279.16883 228.429303 
L 281.341305 228.199391 
L 287.858727 228.255931 
L 292.203676 228.415147 
L 296.548624 228.312187 
L 298.721098 227.506958 
L 300.893572 227.276635 
L 303.066047 226.761743 
L 305.238521 225.794225 
L 307.410995 225.630644 
L 309.583469 225.8278 
L 311.755943 225.47238 
L 313.928418 225.376178 
L 316.100892 225.155124 
L 318.273366 223.965402 
L 320.44584 221.657586 
L 322.618314 220.844684 
L 324.790789 217.969732 
L 326.963263 216.396367 
L 329.135737 215.294911 
L 331.308211 216.22019 
L 333.480685 214.036039 
L 335.65316 214.902788 
L 337.825634 215.98956 
L 339.998108 212.986219 
L 342.170582 209.763799 
L 344.343057 207.399154 
L 346.515531 206.028327 
L 348.688005 202.983468 
L 350.860479 202.331378 
L 353.032953 205.134933 
L 355.205428 204.330182 
L 357.377902 201.566123 
L 359.550376 196.307461 
L 361.72285 194.190905 
L 366.067799 185.645535 
L 368.240273 188.228138 
L 370.412747 191.050847 
L 372.585221 190.950456 
L 374.757695 189.875422 
L 376.93017 191.621306 
L 379.102644 185.369876 
L 381.275118 182.366855 
L 383.447592 184.40957 
L 385.620066 182.289021 
L 387.792541 181.598764 
L 389.965015 182.592892 
L 392.137489 181.745246 
L 394.309963 176.325689 
L 396.482437 173.838432 
L 398.654912 174.408278 
L 400.827386 172.769077 
L 402.99986 171.942125 
L 405.172334 172.35233 
L 407.344808 171.96394 
L 409.517283 166.713306 
L 411.689757 161.854609 
L 413.862231 160.218077 
L 416.034705 155.346504 
L 418.20718 149.435275 
L 420.379654 146.858722 
L 422.552128 145.113311 
L 424.724602 140.879333 
L 426.897076 134.864158 
L 429.069551 133.274886 
L 431.242025 130.501926 
L 433.414499 129.191484 
L 435.586973 125.908492 
L 437.759447 126.761187 
L 439.931922 126.095934 
L 442.104396 123.812629 
L 444.27687 118.092166 
L 446.449344 117.543174 
L 448.621818 116.43014 
L 450.794293 114.079608 
L 452.966767 113.720879 
L 455.139241 117.145499 
L 457.311715 112.981521 
L 459.484189 108.192932 
L 461.656664 106.351135 
L 463.829138 101.235742 
L 466.001612 96.937247 
L 468.174086 94.964967 
L 470.34656 95.766166 
L 472.519035 90.731126 
L 474.691509 86.813237 
L 476.863983 83.741658 
L 479.036457 80.321008 
L 481.208932 76.211081 
L 483.381406 76.334043 
L 485.55388 74.884136 
L 487.726354 71.473476 
L 489.898828 67.792515 
L 492.071303 65.625366 
L 494.243777 61.756844 
L 498.588725 59.16682 
L 500.761199 60.02094 
L 502.933674 59.484997 
L 505.106148 58.447424 
L 507.278622 59.959611 
L 509.451096 58.85836 
L 511.62357 58.57378 
L 513.796045 57.627598 
L 515.968519 58.373373 
L 518.140993 56.368943 
L 520.313467 53.255931 
L 522.485941 51.320438 
L 524.658416 50.114823 
L 529.003364 45.368091 
L 531.175838 46.925627 
L 533.348312 47.074832 
L 535.520787 45.1233 
L 537.693261 45.988102 
L 539.865735 46.448222 
L 542.038209 45.88522 
L 544.210684 45.501343 
L 546.383158 47.378168 
L 548.555632 47.679385 
L 550.728106 45.638373 
L 552.90058 45.292475 
L 555.073055 44.403773 
L 557.245529 41.687773 
L 559.418003 39.754013 
L 561.590477 40.835773 
L 563.762951 40.520243 
L 565.935426 39.239511 
L 568.1079 39.852054 
L 570.280374 39.627136 
L 572.452848 39.09464 
L 574.625322 38.018183 
L 576.797797 38.378095 
L 578.970271 37.426346 
L 581.142745 36.131825 
L 583.315219 37.331163 
L 585.487693 37.686892 
L 587.660168 37.43602 
L 592.005116 39.253556 
L 594.17759 39.899038 
L 596.350064 39.069819 
L 598.522539 39.58932 
L 600.695013 39.983027 
L 602.867487 39.518853 
L 605.039961 36.752333 
L 609.38491 38.426002 
L 611.557384 36.435629 
L 613.729858 37.009467 
L 615.902332 38.168329 
L 618.074807 37.994093 
L 620.247281 36.758325 
L 622.419755 39.153823 
L 624.592229 39.527132 
L 626.764703 38.140663 
L 628.937178 38.616232 
L 631.109652 39.901395 
L 633.282126 39.952752 
L 635.4546 40.201183 
L 639.799549 42.240177 
L 641.972023 39.578249 
L 644.144497 40.499683 
L 646.316971 41.296124 
L 648.489445 43.169815 
L 650.66192 43.562779 
L 652.834394 46.127518 
L 655.006868 46.199244 
L 657.179342 42.943403 
L 659.351816 43.003047 
L 661.524291 42.819331 
L 663.696765 44.570584 
L 665.869239 45.114047 
L 668.041713 48.897463 
L 670.214188 52.222166 
L 672.386662 50.358862 
L 674.559136 51.434787 
L 676.73161 52.977008 
L 678.904084 56.83802 
L 681.076559 58.969667 
L 683.249033 64.20277 
L 685.421507 70.420606 
L 687.593981 68.790359 
L 689.766455 70.397711 
L 691.93893 72.570622 
L 694.111404 77.297372 
L 696.283878 77.58379 
L 698.456352 91.14467 
L 700.628826 99.73351 
L 702.801301 99.670223 
L 707.146249 107.648426 
L 711.491197 104.10285 
L 713.663672 111.626696 
L 715.836146 116.378979 
L 718.00862 118.922712 
L 720.181094 122.89967 
L 722.353568 127.414586 
L 724.526043 131.243068 
L 726.698517 135.573582 
L 728.870991 144.517282 
L 731.043465 150.677333 
L 733.21594 157.554665 
L 735.388414 163.785106 
L 737.560888 169.085635 
L 739.733362 171.849495 
L 741.905836 175.799101 
L 744.078311 179.989601 
L 746.250785 183.26863 
L 748.423259 185.717665 
L 750.595733 188.799588 
L 752.768207 191.598813 
L 754.940682 194.189354 
L 757.113156 197.268265 
L 763.630578 208.650966 
L 765.803053 211.249422 
L 767.975527 214.063038 
L 770.148001 215.649966 
L 772.320475 216.563365 
L 776.665424 219.493049 
L 783.182846 221.629127 
L 791.872743 223.93576 
L 794.045217 224.171051 
L 798.390166 225.077988 
L 800.56264 225.118753 
L 802.735114 225.420236 
L 804.907588 225.474808 
L 807.080063 225.716305 
L 809.252537 225.780954 
L 813.597485 226.446049 
L 817.942434 226.885291 
L 822.287382 227.276276 
L 824.459856 227.323867 
L 826.63233 227.645591 
L 833.149753 227.797211 
L 846.184598 228.48721 
L 848.357072 228.367321 
L 863.564392 228.631612 
L 922.221195 228.938666 
L 935.256041 228.866891 
L 941.773463 228.865194 
L 959.153257 228.888271 
L 965.67068 228.853582 
L 967.843154 228.904143 
L 970.015628 228.684628 
L 972.188102 228.579408 
L 978.705525 228.596272 
L 983.050473 228.952239 
L 1104.709029 228.890343 
L 1104.709029 228.890343 
" style="fill:none;stroke:#947383;stroke-linecap:square;stroke-width:2;"/>
   </g>
   <g id="line2d_17">
    <path clip-path="url(#pcaea13aba7)" d="M 331.308211 226.348936 
L 333.480685 227.595125 
L 335.65316 227.090715 
L 337.825634 227.090715 
L 339.998108 226.476522 
L 344.343057 219.208565 
L 346.515531 221.077849 
L 348.688005 220.20043 
L 350.860479 219.511789 
L 353.032953 221.79175 
L 355.205428 224.61704 
L 357.377902 220.983782 
L 359.550376 220.428084 
L 361.72285 219.361195 
L 363.895324 219.010432 
L 366.067799 219.870303 
L 368.240273 222.320252 
L 370.412747 220.446174 
L 372.585221 222.174203 
L 374.757695 221.873548 
L 376.93017 220.240882 
L 379.102644 221.424191 
L 381.275118 223.977114 
L 383.447592 224.309503 
L 387.792541 225.269038 
L 389.965015 222.440515 
L 392.137489 221.097541 
L 394.309963 220.358224 
L 396.482437 221.791342 
L 398.654912 222.18199 
L 400.827386 224.608704 
L 402.99986 224.889321 
L 405.172334 224.799043 
L 407.344808 224.240685 
L 409.517283 225.044303 
L 411.689757 224.422456 
L 413.862231 224.996496 
L 416.034705 225.717985 
L 418.20718 224.94321 
L 420.379654 223.407726 
L 422.552128 223.714823 
L 424.724602 223.855012 
L 426.897076 224.272425 
L 429.069551 223.203684 
L 431.242025 223.849646 
L 433.414499 223.073374 
L 435.586973 223.798636 
L 437.759447 222.411748 
L 439.931922 224.813622 
L 442.104396 224.876344 
L 444.27687 225.200873 
L 446.449344 222.270813 
L 448.621818 221.246849 
L 450.794293 216.087623 
L 452.966767 209.748831 
L 455.139241 209.459725 
L 457.311715 208.11897 
L 459.484189 208.318726 
L 461.656664 211.301064 
L 463.829138 217.304667 
L 466.001612 214.106723 
L 468.174086 216.202546 
L 470.34656 214.088848 
L 472.519035 211.554115 
L 474.691509 208.010341 
L 476.863983 210.391996 
L 479.036457 209.361329 
L 481.208932 211.512293 
L 483.381406 210.081979 
L 485.55388 211.161779 
L 487.726354 207.449032 
L 489.898828 206.187485 
L 492.071303 205.474823 
L 494.243777 206.436813 
L 496.416251 207.196538 
L 498.588725 211.625244 
L 500.761199 214.047416 
L 502.933674 212.327457 
L 505.106148 214.658433 
L 507.278622 213.404454 
L 509.451096 210.756301 
L 511.62357 208.284898 
L 513.796045 210.611389 
L 515.968519 207.896488 
L 518.140993 208.145901 
L 520.313467 208.545071 
L 522.485941 209.829698 
L 524.658416 209.744318 
L 526.83089 209.523603 
L 529.003364 211.160974 
L 531.175838 208.576761 
L 533.348312 210.677163 
L 535.520787 206.151194 
L 537.693261 205.859359 
L 539.865735 205.352165 
L 542.038209 209.320926 
L 544.210684 207.179076 
L 548.555632 212.694288 
L 550.728106 212.197752 
L 552.90058 210.194117 
L 555.073055 212.234267 
L 557.245529 214.540194 
L 559.418003 215.365826 
L 561.590477 211.509052 
L 563.762951 211.213024 
L 565.935426 209.614795 
L 568.1079 206.675026 
L 570.280374 206.635473 
L 572.452848 211.042312 
L 574.625322 212.296925 
L 576.797797 211.169915 
L 578.970271 212.701802 
L 581.142745 212.32931 
L 583.315219 211.362344 
L 585.487693 212.017998 
L 587.660168 214.363841 
L 589.832642 214.715778 
L 592.005116 214.145429 
L 594.17759 216.089521 
L 598.522539 217.43393 
L 602.867487 219.939057 
L 605.039961 219.451274 
L 607.212436 219.764606 
L 609.38491 219.64854 
L 611.557384 218.189771 
L 613.729858 218.563021 
L 615.902332 219.32484 
L 618.074807 217.819769 
L 620.247281 216.131308 
L 622.419755 217.329853 
L 624.592229 215.804904 
L 626.764703 215.660676 
L 628.937178 217.347513 
L 631.109652 217.334672 
L 633.282126 218.223432 
L 635.4546 220.840402 
L 639.799549 218.398213 
L 641.972023 220.087057 
L 644.144497 219.371813 
L 646.316971 217.709436 
L 648.489445 218.071191 
L 650.66192 219.557904 
L 652.834394 218.676559 
L 655.006868 219.477313 
L 657.179342 220.578396 
L 659.351816 219.39298 
L 661.524291 219.637463 
L 663.696765 220.913834 
L 665.869239 220.455355 
L 668.041713 220.630753 
L 670.214188 223.145779 
L 674.559136 223.338236 
L 676.73161 224.248168 
L 678.904084 224.93784 
L 681.076559 225.451398 
L 683.249033 225.562272 
L 687.593981 224.597067 
L 689.766455 224.319885 
L 691.93893 223.75305 
L 694.111404 223.456635 
L 696.283878 224.255183 
L 698.456352 224.268464 
L 700.628826 223.982157 
L 702.801301 223.878563 
L 704.973775 224.172481 
L 707.146249 223.732455 
L 709.318723 222.894424 
L 711.491197 222.796585 
L 713.663672 222.964092 
L 715.836146 222.641094 
L 718.00862 222.816354 
L 720.181094 223.94525 
L 722.353568 224.157347 
L 724.526043 224.234673 
L 726.698517 225.366663 
L 733.21594 225.245486 
L 735.388414 225.647808 
L 737.560888 225.308943 
L 741.905836 226.096102 
L 748.423259 226.177471 
L 750.595733 226.582508 
L 752.768207 226.495053 
L 754.940682 227.151819 
L 757.113156 227.625383 
L 761.458104 226.883632 
L 765.803053 226.736 
L 767.975527 226.587209 
L 770.148001 226.708319 
L 772.320475 226.534448 
L 774.492949 226.699033 
L 776.665424 225.807126 
L 778.837898 225.435621 
L 781.010372 225.196163 
L 783.182846 225.138967 
L 785.35532 224.415374 
L 787.527795 225.184796 
L 789.700269 225.423839 
L 794.045217 226.303136 
L 796.217692 227.098582 
L 802.735114 227.718899 
L 804.907588 227.462516 
L 807.080063 227.327815 
L 813.597485 227.500341 
L 815.769959 227.98966 
L 822.287382 228.445266 
L 824.459856 228.307178 
L 828.804805 228.464531 
L 830.977279 228.386188 
L 833.149753 227.945681 
L 837.494701 228.047135 
L 841.83965 227.920626 
L 844.012124 228.272488 
L 846.184598 228.215702 
L 848.357072 228.0471 
L 850.529547 228.1525 
L 852.702021 227.898607 
L 854.874495 227.821415 
L 859.219443 227.991114 
L 861.391918 227.934437 
L 863.564392 228.314588 
L 867.90934 228.602221 
L 870.081815 228.607824 
L 872.254289 228.79598 
L 878.771711 228.695145 
L 880.944186 228.775357 
L 883.11666 228.655597 
L 885.289134 228.772428 
L 891.806557 228.770333 
L 893.979031 228.890092 
L 898.323979 228.701183 
L 904.841402 228.605858 
L 909.18635 228.75904 
L 920.048721 228.883226 
L 924.39367 228.801644 
L 930.911092 228.878418 
L 935.256041 228.96 
L 941.773463 228.96 
L 943.945938 228.814259 
L 952.635834 228.814259 
L 954.808309 228.96 
L 956.980783 228.96 
L 959.153257 228.803089 
L 978.705525 228.905231 
L 980.877999 228.659085 
L 983.050473 228.659085 
L 985.222947 228.344498 
L 993.912844 228.512512 
L 996.085319 228.827099 
L 1000.430267 228.827099 
L 1002.602741 228.96 
L 1004.775215 228.96 
L 1006.94769 228.684988 
L 1006.94769 228.684988 
" style="fill:none;stroke:#96c6ad;stroke-linecap:square;stroke-width:2;"/>
   </g>
   <g id="line2d_18">
    <path clip-path="url(#pcaea13aba7)" d="M 155.337801 185.966452 
L 166.200172 185.966452 
L 168.372646 228.96 
L 200.959759 228.96 
L 203.132233 228.116989 
L 211.82213 228.116989 
L 213.994604 228.96 
L 240.064295 228.96 
L 242.236769 223.901935 
L 244.409243 223.901935 
L 246.581717 222.110538 
L 250.926666 222.110538 
L 253.09914 227.168602 
L 255.271614 224.302366 
L 257.444088 226.093763 
L 261.789037 226.093763 
L 263.961511 225.470669 
L 266.133985 228.336905 
L 268.306459 228.336905 
L 270.478933 226.82836 
L 272.651408 226.134915 
L 274.823882 226.75801 
L 276.996356 226.75801 
L 279.16883 226.593284 
L 281.341305 228.101829 
L 283.513779 228.795274 
L 285.686253 228.615384 
L 287.858727 228.615384 
L 290.031201 228.780111 
L 292.203676 228.617871 
L 294.37615 228.028918 
L 296.548624 228.208807 
L 298.721098 228.070565 
L 307.410995 228.034512 
L 309.583469 227.936527 
L 313.928418 227.344852 
L 316.100892 227.562162 
L 318.273366 226.867857 
L 320.44584 225.375701 
L 322.618314 224.669324 
L 324.790789 223.73531 
L 326.963263 223.026653 
L 329.135737 217.98615 
L 331.308211 217.468602 
L 333.480685 214.957703 
L 337.825634 210.974401 
L 339.998108 214.749292 
L 342.170582 215.844545 
L 344.343057 216.617371 
L 346.515531 216.621475 
L 348.688005 213.390562 
L 350.860479 205.294807 
L 353.032953 199.00967 
L 355.205428 196.092613 
L 357.377902 197.096815 
L 359.550376 197.702983 
L 361.72285 205.345712 
L 363.895324 211.401 
L 366.067799 213.946866 
L 368.240273 208.946949 
L 370.412747 210.28413 
L 372.585221 209.964526 
L 374.757695 207.238927 
L 376.93017 207.273357 
L 379.102644 210.771909 
L 381.275118 209.154838 
L 383.447592 208.399598 
L 385.620066 206.08678 
L 387.792541 202.911132 
L 389.965015 197.46594 
L 392.137489 198.464439 
L 394.309963 198.987488 
L 396.482437 200.909199 
L 398.654912 203.255305 
L 400.827386 197.936465 
L 402.99986 190.933417 
L 405.172334 180.699092 
L 407.344808 174.852689 
L 409.517283 173.398292 
L 411.689757 169.057189 
L 413.862231 171.432611 
L 416.034705 165.122134 
L 418.20718 168.475728 
L 420.379654 166.908154 
L 422.552128 180.731018 
L 424.724602 180.915126 
L 426.897076 177.05182 
L 429.069551 175.281783 
L 431.242025 172.875516 
L 433.414499 168.276975 
L 435.586973 166.876129 
L 437.759447 180.585436 
L 439.931922 182.622245 
L 442.104396 177.603029 
L 444.27687 179.582392 
L 446.449344 179.815411 
L 448.621818 183.215375 
L 450.794293 181.144511 
L 452.966767 188.834414 
L 455.139241 183.511729 
L 457.311715 175.792199 
L 459.484189 166.86394 
L 461.656664 158.607503 
L 463.829138 153.901305 
L 466.001612 155.154204 
L 468.174086 169.371692 
L 470.34656 170.2598 
L 472.519035 158.905646 
L 474.691509 156.242446 
L 476.863983 147.822699 
L 479.036457 137.12574 
L 481.208932 138.854921 
L 483.381406 155.58997 
L 485.55388 157.479574 
L 487.726354 158.625993 
L 489.898828 164.956286 
L 492.071303 168.174608 
L 494.243777 168.71327 
L 496.416251 171.462273 
L 498.588725 177.714455 
L 500.761199 177.276528 
L 502.933674 165.764783 
L 505.106148 164.630972 
L 507.278622 156.293794 
L 509.451096 154.212687 
L 511.62357 149.728045 
L 513.796045 157.22024 
L 515.968519 155.669162 
L 518.140993 150.329522 
L 520.313467 152.535929 
L 522.485941 153.206198 
L 524.658416 150.611567 
L 526.83089 148.278675 
L 529.003364 155.165524 
L 531.175838 147.653537 
L 533.348312 143.408873 
L 535.520787 144.445456 
L 537.693261 150.370357 
L 539.865735 154.02868 
L 542.038209 155.693735 
L 544.210684 153.376334 
L 546.383158 152.78178 
L 548.555632 133.912297 
L 550.728106 130.237853 
L 552.90058 135.096778 
L 555.073055 137.717646 
L 557.245529 136.680982 
L 559.418003 151.473254 
L 561.590477 154.796681 
L 563.762951 153.079682 
L 565.935426 151.565801 
L 568.1079 150.552229 
L 570.280374 148.874451 
L 574.625322 140.942313 
L 576.797797 142.026061 
L 578.970271 142.403528 
L 581.142745 136.90081 
L 583.315219 131.774067 
L 585.487693 129.671829 
L 589.832642 117.51129 
L 592.005116 116.410845 
L 594.17759 114.177754 
L 596.350064 110.459589 
L 598.522539 108.207861 
L 600.695013 107.686062 
L 602.867487 114.8951 
L 605.039961 115.798049 
L 607.212436 116.330865 
L 609.38491 121.580067 
L 611.557384 122.860702 
L 613.729858 117.475593 
L 615.902332 124.327334 
L 618.074807 123.096274 
L 620.247281 118.825134 
L 622.419755 117.619995 
L 624.592229 115.761432 
L 626.764703 106.230293 
L 628.937178 108.087207 
L 631.109652 106.904081 
L 633.282126 103.850312 
L 635.4546 100.521539 
L 637.627074 103.03715 
L 639.799549 106.27271 
L 641.972023 105.89274 
L 644.144497 110.180701 
L 646.316971 115.581771 
L 648.489445 117.356786 
L 650.66192 114.566284 
L 652.834394 118.970228 
L 655.006868 124.443097 
L 657.179342 122.039772 
L 659.351816 125.569162 
L 661.524291 127.159822 
L 663.696765 127.049352 
L 665.869239 122.541198 
L 668.041713 127.092631 
L 670.214188 130.160981 
L 672.386662 133.723398 
L 674.559136 137.768543 
L 676.73161 139.494202 
L 678.904084 142.653489 
L 681.076559 135.662262 
L 683.249033 138.248662 
L 685.421507 141.415188 
L 687.593981 137.275935 
L 689.766455 133.795688 
L 691.93893 135.190636 
L 694.111404 127.60629 
L 696.283878 121.352264 
L 698.456352 129.790431 
L 700.628826 138.837389 
L 702.801301 138.745633 
L 704.973775 146.538485 
L 707.146249 156.091007 
L 709.318723 155.873907 
L 711.491197 149.082487 
L 715.836146 158.450639 
L 718.00862 154.193229 
L 720.181094 155.491683 
L 722.353568 157.818944 
L 724.526043 157.424787 
L 726.698517 154.160515 
L 728.870991 153.851896 
L 731.043465 162.42643 
L 733.21594 164.946055 
L 735.388414 168.656891 
L 737.560888 175.202133 
L 739.733362 178.303204 
L 741.905836 171.62883 
L 744.078311 169.14255 
L 746.250785 176.222944 
L 748.423259 168.618914 
L 750.595733 165.862222 
L 752.768207 172.097306 
L 754.940682 175.286935 
L 757.113156 170.757692 
L 759.28563 172.772584 
L 761.458104 176.371371 
L 763.630578 169.164052 
L 765.803053 164.597841 
L 767.975527 162.697759 
L 770.148001 167.607599 
L 772.320475 167.394497 
L 774.492949 169.361592 
L 776.665424 178.888185 
L 778.837898 179.349919 
L 781.010372 177.25206 
L 783.182846 179.477313 
L 785.35532 186.061749 
L 787.527795 185.552826 
L 789.700269 189.359633 
L 791.872743 195.511685 
L 794.045217 199.03043 
L 796.217692 196.405923 
L 798.390166 197.615601 
L 800.56264 199.439789 
L 802.735114 197.912326 
L 804.907588 198.453911 
L 807.080063 203.041493 
L 809.252537 204.656517 
L 811.425011 207.183404 
L 813.597485 210.759871 
L 815.769959 215.371911 
L 817.942434 216.637018 
L 820.114908 219.213803 
L 822.287382 210.754228 
L 824.459856 210.604282 
L 826.63233 209.122528 
L 828.804805 208.381528 
L 830.977279 206.708508 
L 833.149753 214.297933 
L 835.322227 215.860123 
L 837.494701 217.975674 
L 839.667176 219.418166 
L 841.83965 221.416395 
L 844.012124 225.48218 
L 846.184598 225.998177 
L 848.357072 225.88765 
L 850.529547 226.108325 
L 852.702021 225.986554 
L 854.874495 225.402691 
L 857.046969 224.945452 
L 863.564392 225.287539 
L 865.736866 225.633336 
L 867.90934 225.667355 
L 872.254289 226.093143 
L 874.426763 226.41175 
L 876.599237 226.592802 
L 878.771711 226.98224 
L 889.634082 227.665368 
L 893.979031 227.579914 
L 896.151505 227.449854 
L 900.496453 227.620904 
L 904.841402 227.332736 
L 920.048721 227.878205 
L 922.221195 227.540588 
L 926.566144 227.676825 
L 930.911092 227.562413 
L 933.083567 227.880375 
L 939.600989 228.483517 
L 941.773463 228.571827 
L 946.118412 228.386553 
L 948.290886 227.902703 
L 950.46336 227.946174 
L 952.635834 227.779028 
L 954.808309 227.799858 
L 956.980783 227.665998 
L 967.843154 227.932348 
L 970.015628 228.109567 
L 972.188102 228.104161 
L 974.360576 227.799451 
L 976.533051 227.941553 
L 978.705525 227.971654 
L 985.222947 228.686 
L 993.912844 228.671804 
L 996.085319 228.806369 
L 1004.775215 228.779726 
L 1006.94769 228.714286 
L 1017.810061 228.96 
L 1022.155009 228.855647 
L 1065.604493 228.836099 
L 1067.776967 228.575137 
L 1069.949442 228.529976 
L 1069.949442 228.529976 
" style="fill:none;stroke:#525886;stroke-linecap:square;stroke-width:2;"/>
   </g>
   <g id="line2d_19">
    <path clip-path="url(#pcaea13aba7)" d="M 131.440584 228.744152 
L 135.785533 228.88183 
L 144.475429 228.79776 
L 153.165326 228.768711 
L 155.337801 228.93095 
L 161.855223 228.911144 
L 166.200172 228.911144 
L 168.372646 228.718059 
L 177.062543 228.690776 
L 179.235017 228.88386 
L 187.924914 228.96 
L 190.097388 228.694958 
L 192.269862 228.547864 
L 196.61481 227.999606 
L 198.787285 227.889648 
L 205.304707 228.566371 
L 207.477181 228.052327 
L 211.82213 227.588409 
L 216.167078 225.781729 
L 218.339553 226.207102 
L 220.512027 226.374361 
L 222.684501 224.368001 
L 224.856975 224.125352 
L 227.029449 224.98882 
L 229.201924 222.991572 
L 231.374398 221.70289 
L 233.546872 223.186877 
L 235.719346 223.064946 
L 237.89182 219.625293 
L 240.064295 217.699839 
L 242.236769 216.501479 
L 244.409243 213.339229 
L 246.581717 212.866143 
L 248.754191 211.796777 
L 250.926666 213.726197 
L 253.09914 210.411329 
L 255.271614 212.638717 
L 257.444088 208.105037 
L 259.616562 204.20522 
L 261.789037 204.502653 
L 263.961511 207.11032 
L 266.133985 206.928861 
L 268.306459 206.318111 
L 270.478933 209.222763 
L 272.651408 201.906446 
L 274.823882 197.612123 
L 276.996356 195.212166 
L 279.16883 198.089164 
L 281.341305 197.706582 
L 283.513779 202.73387 
L 285.686253 197.472499 
L 287.858727 193.25708 
L 290.031201 193.369392 
L 292.203676 187.432064 
L 294.37615 179.537769 
L 296.548624 182.100549 
L 298.721098 172.105968 
L 300.893572 164.560315 
L 303.066047 163.024025 
L 305.238521 156.703395 
L 307.410995 150.879306 
L 309.583469 150.17248 
L 313.928418 132.672934 
L 316.100892 127.57104 
L 318.273366 124.782358 
L 320.44584 126.35736 
L 322.618314 127.125522 
L 324.790789 129.750872 
L 326.963263 130.299625 
L 329.135737 126.539784 
L 333.480685 109.102343 
L 335.65316 104.309547 
L 337.825634 101.06616 
L 339.998108 94.410675 
L 342.170582 91.248902 
L 344.343057 89.064771 
L 348.688005 72.390639 
L 350.860479 70.131457 
L 353.032953 68.914751 
L 355.205428 68.649261 
L 357.377902 71.846564 
L 359.550376 72.020289 
L 366.067799 62.071691 
L 368.240273 57.326092 
L 370.412747 57.616067 
L 372.585221 58.803256 
L 374.757695 58.151454 
L 376.93017 56.581934 
L 379.102644 55.183611 
L 381.275118 53.634168 
L 383.447592 50.866787 
L 385.620066 48.717143 
L 387.792541 47.921617 
L 389.965015 46.539092 
L 392.137489 44.076509 
L 394.309963 42.896662 
L 396.482437 41.489272 
L 398.654912 39.053472 
L 400.827386 37.027409 
L 402.99986 35.463297 
L 405.172334 33.048979 
L 407.344808 31.216965 
L 409.517283 29.951787 
L 411.689757 29.476094 
L 413.862231 29.457227 
L 416.034705 30.419179 
L 418.20718 31.581621 
L 420.379654 30.632597 
L 422.552128 29.448368 
L 424.724602 28.610186 
L 426.897076 27.408 
L 429.069551 25.795305 
L 431.242025 25.576322 
L 433.414499 26.028986 
L 435.586973 25.251995 
L 437.759447 24.230651 
L 442.104396 23.68959 
L 444.27687 22.611749 
L 446.449344 22.459337 
L 448.621818 22.568077 
L 452.966767 21.696483 
L 455.139241 21.669518 
L 459.484189 21.054766 
L 461.656664 21.125941 
L 463.829138 20.839878 
L 466.001612 20.207513 
L 468.174086 20.23738 
L 470.34656 20.149116 
L 472.519035 19.784096 
L 474.691509 19.850781 
L 476.863983 20.052202 
L 481.208932 20.164173 
L 483.381406 19.994059 
L 485.55388 20.091646 
L 487.726354 20.581715 
L 489.898828 20.339864 
L 492.071303 19.837297 
L 494.243777 19.780058 
L 500.761199 18.73891 
L 505.106148 18.675469 
L 507.278622 18.296527 
L 511.62357 18.319606 
L 518.140993 18.325867 
L 520.313467 18.074837 
L 522.485941 17.940896 
L 529.003364 17.814715 
L 531.175838 17.76 
L 533.348312 17.929429 
L 537.693261 17.8177 
L 539.865735 18.143682 
L 544.210684 18.58497 
L 548.555632 19.73671 
L 550.728106 19.780306 
L 555.073055 21.66034 
L 557.245529 21.646275 
L 559.418003 21.75154 
L 561.590477 22.829994 
L 565.935426 22.121401 
L 568.1079 22.587722 
L 570.280374 23.757561 
L 572.452848 25.3969 
L 574.625322 27.305728 
L 576.797797 29.470964 
L 581.142745 31.970394 
L 583.315219 32.803366 
L 585.487693 33.001542 
L 587.660168 32.648074 
L 589.832642 33.833195 
L 592.005116 36.699679 
L 594.17759 38.866363 
L 596.350064 39.954165 
L 598.522539 41.893933 
L 600.695013 43.677186 
L 602.867487 43.001803 
L 605.039961 43.867056 
L 607.212436 48.5812 
L 609.38491 54.705013 
L 611.557384 57.549066 
L 613.729858 60.146367 
L 615.902332 63.74833 
L 618.074807 65.689678 
L 620.247281 68.43408 
L 622.419755 74.820156 
L 624.592229 83.590705 
L 626.764703 90.358575 
L 628.937178 96.376698 
L 631.109652 101.22076 
L 633.282126 101.788638 
L 635.4546 104.369086 
L 639.799549 114.335143 
L 641.972023 120.902418 
L 644.144497 133.553477 
L 646.316971 140.822697 
L 648.489445 146.036936 
L 650.66192 152.948655 
L 652.834394 157.496522 
L 655.006868 160.638927 
L 657.179342 165.95734 
L 659.351816 172.069965 
L 661.524291 175.458483 
L 663.696765 176.85268 
L 665.869239 179.157376 
L 668.041713 183.431133 
L 670.214188 186.149268 
L 672.386662 190.609136 
L 674.559136 196.145924 
L 676.73161 200.140682 
L 678.904084 201.743944 
L 683.249033 204.464794 
L 685.421507 206.781609 
L 687.593981 208.51175 
L 689.766455 210.68128 
L 691.93893 212.010135 
L 694.111404 213.795606 
L 696.283878 214.214666 
L 698.456352 214.829336 
L 700.628826 215.929553 
L 702.801301 218.125909 
L 709.318723 223.207574 
L 713.663672 224.028101 
L 715.836146 224.479796 
L 718.00862 225.108095 
L 720.181094 225.476499 
L 722.353568 225.984679 
L 724.526043 226.234403 
L 728.870991 226.351426 
L 733.21594 226.538954 
L 741.905836 227.422253 
L 744.078311 227.541477 
L 746.250785 227.417223 
L 750.595733 227.673332 
L 752.768207 227.584797 
L 759.28563 227.890819 
L 767.975527 228.513296 
L 776.665424 228.709725 
L 791.872743 228.515346 
L 794.045217 228.626943 
L 796.217692 228.367522 
L 798.390166 227.923853 
L 800.56264 227.860395 
L 807.080063 228.203299 
L 809.252537 228.736445 
L 815.769959 228.822226 
L 907.013876 228.907526 
L 1052.569648 228.951314 
L 1052.569648 228.951314 
" style="fill:none;stroke:#937252;stroke-linecap:square;stroke-width:2;"/>
   </g>
   <g id="line2d_20">
    <path clip-path="url(#pcaea13aba7)" d="M 207.477181 228.532215 
L 209.649656 228.828722 
L 216.167078 228.828722 
L 218.339553 228.96 
L 237.89182 228.779083 
L 240.064295 228.921919 
L 259.616562 228.819558 
L 263.961511 228.766147 
L 266.133985 228.718002 
L 270.478933 228.815493 
L 276.996356 228.96 
L 287.858727 228.936835 
L 296.548624 228.96 
L 316.100892 228.617007 
L 324.790789 228.484002 
L 329.135737 228.41204 
L 331.308211 228.613415 
L 333.480685 228.249311 
L 339.998108 227.722343 
L 344.343057 226.9138 
L 348.688005 226.706448 
L 350.860479 226.492753 
L 353.032953 226.671449 
L 355.205428 227.010812 
L 359.550376 226.697491 
L 361.72285 226.822981 
L 363.895324 226.652254 
L 366.067799 226.627126 
L 368.240273 226.426246 
L 372.585221 226.596421 
L 374.757695 226.36177 
L 376.93017 226.460502 
L 381.275118 226.08335 
L 383.447592 225.716687 
L 385.620066 225.834213 
L 387.792541 224.985245 
L 389.965015 224.804654 
L 392.137489 224.470525 
L 394.309963 223.610674 
L 396.482437 223.068416 
L 398.654912 223.03803 
L 400.827386 222.479723 
L 402.99986 221.690393 
L 405.172334 221.645754 
L 407.344808 220.868166 
L 409.517283 220.485046 
L 411.689757 220.459989 
L 413.862231 219.975499 
L 416.034705 219.859115 
L 418.20718 219.51487 
L 420.379654 218.457437 
L 422.552128 217.526459 
L 424.724602 217.484086 
L 426.897076 216.092264 
L 431.242025 215.185915 
L 433.414499 214.295576 
L 435.586973 213.61428 
L 437.759447 212.688956 
L 442.104396 209.412433 
L 444.27687 208.38723 
L 446.449344 206.301402 
L 448.621818 206.057681 
L 450.794293 205.977027 
L 452.966767 205.256462 
L 455.139241 204.697976 
L 459.484189 200.249556 
L 461.656664 196.600511 
L 463.829138 194.789998 
L 466.001612 191.939427 
L 468.174086 190.373718 
L 470.34656 187.121859 
L 472.519035 185.226913 
L 474.691509 183.821363 
L 479.036457 183.416736 
L 481.208932 183.630808 
L 483.381406 182.520841 
L 485.55388 180.391221 
L 487.726354 175.322668 
L 489.898828 171.665221 
L 492.071303 169.065011 
L 494.243777 167.423582 
L 496.416251 165.106372 
L 498.588725 165.133457 
L 500.761199 163.655918 
L 502.933674 159.365789 
L 505.106148 156.894588 
L 511.62357 147.350827 
L 513.796045 146.298311 
L 518.140993 142.440362 
L 520.313467 140.625195 
L 522.485941 137.796316 
L 524.658416 135.296832 
L 526.83089 133.829775 
L 529.003364 133.097314 
L 533.348312 129.819297 
L 535.520787 129.962683 
L 539.865735 124.04612 
L 542.038209 121.401297 
L 544.210684 122.32248 
L 546.383158 120.659365 
L 548.555632 119.723634 
L 550.728106 118.55011 
L 552.90058 117.034766 
L 555.073055 114.904695 
L 557.245529 112.350748 
L 559.418003 110.97433 
L 561.590477 110.001214 
L 563.762951 109.551578 
L 565.935426 108.400171 
L 568.1079 107.937686 
L 570.280374 108.008204 
L 572.452848 106.929388 
L 574.625322 106.476167 
L 576.797797 107.450545 
L 578.970271 107.210638 
L 581.142745 106.234733 
L 583.315219 105.08427 
L 585.487693 104.474572 
L 587.660168 102.503554 
L 589.832642 101.853109 
L 592.005116 101.603482 
L 594.17759 100.692817 
L 598.522539 99.857387 
L 600.695013 98.972577 
L 602.867487 98.619152 
L 605.039961 99.537266 
L 607.212436 99.683155 
L 609.38491 98.62237 
L 611.557384 98.46861 
L 613.729858 97.685564 
L 615.902332 97.707428 
L 618.074807 97.049868 
L 620.247281 97.214115 
L 622.419755 97.001288 
L 624.592229 96.56245 
L 626.764703 96.39287 
L 628.937178 95.840109 
L 635.4546 98.313616 
L 637.627074 99.30592 
L 639.799549 100.624835 
L 644.144497 101.957432 
L 646.316971 101.787733 
L 648.489445 101.93334 
L 650.66192 104.12977 
L 652.834394 105.266272 
L 655.006868 106.783663 
L 657.179342 108.009721 
L 659.351816 107.590278 
L 661.524291 106.839121 
L 663.696765 107.799937 
L 668.041713 110.989629 
L 670.214188 114.989573 
L 672.386662 118.64851 
L 676.73161 122.578477 
L 678.904084 126.043461 
L 681.076559 127.99366 
L 683.249033 128.369423 
L 691.93893 134.262624 
L 694.111404 134.826573 
L 696.283878 136.077598 
L 698.456352 137.519764 
L 702.801301 141.789022 
L 704.973775 144.916831 
L 707.146249 148.327104 
L 709.318723 151.263424 
L 711.491197 152.068251 
L 713.663672 155.38782 
L 715.836146 159.029261 
L 718.00862 162.416932 
L 720.181094 164.81989 
L 722.353568 167.932257 
L 724.526043 171.522338 
L 726.698517 175.516705 
L 728.870991 178.884099 
L 731.043465 182.825694 
L 733.21594 187.710225 
L 735.388414 190.472061 
L 737.560888 193.414427 
L 739.733362 196.080835 
L 741.905836 198.186494 
L 744.078311 201.195296 
L 748.423259 203.501957 
L 750.595733 206.015375 
L 752.768207 208.780258 
L 754.940682 209.962451 
L 757.113156 211.930781 
L 759.28563 214.066 
L 763.630578 215.520759 
L 765.803053 216.653168 
L 767.975527 218.007365 
L 770.148001 218.78456 
L 772.320475 219.692369 
L 774.492949 221.054045 
L 776.665424 221.80957 
L 778.837898 222.262118 
L 783.182846 223.538876 
L 787.527795 224.206094 
L 789.700269 224.7831 
L 791.872743 225.238368 
L 794.045217 225.447641 
L 796.217692 225.812631 
L 798.390166 226.052396 
L 802.735114 226.188416 
L 804.907588 226.497712 
L 811.425011 227.054434 
L 813.597485 227.268869 
L 833.149753 228.084472 
L 837.494701 228.065433 
L 841.83965 228.181308 
L 844.012124 228.203929 
L 848.357072 228.395852 
L 852.702021 228.449543 
L 861.391918 228.72227 
L 889.634082 228.714105 
L 893.979031 228.800871 
L 902.668928 228.888467 
L 1109.053977 228.947944 
L 1109.053977 228.947944 
" style="fill:none;stroke:#d18cad;stroke-linecap:square;stroke-width:2;"/>
   </g>
   <g id="line2d_21">
    <path clip-path="url(#pcaea13aba7)" d="M 274.823882 207.463226 
L 276.996356 228.96 
L 279.16883 218.211613 
L 287.858727 218.211613 
L 290.031201 228.96 
L 296.548624 228.96 
L 298.721098 214.628817 
L 300.893572 207.463226 
L 307.410995 207.463226 
L 309.583469 221.794409 
L 311.755943 228.96 
L 318.273366 228.96 
L 320.44584 214.628817 
L 322.618314 209.851756 
L 324.790789 209.851756 
L 326.963263 206.780789 
L 329.135737 206.780789 
L 331.308211 221.111971 
L 333.480685 225.889032 
L 335.65316 220.514839 
L 337.825634 212.837419 
L 339.998108 205.671828 
L 342.170582 200.894767 
L 344.343057 200.894767 
L 346.515531 190.634943 
L 348.688005 190.634943 
L 350.860479 186.075021 
L 353.032953 183.686491 
L 355.205428 182.161897 
L 357.377902 190.50004 
L 359.550376 186.76147 
L 361.72285 186.595151 
L 363.895324 185.798974 
L 366.067799 178.724858 
L 368.240273 180.001636 
L 370.412747 189.49827 
L 374.757695 199.523468 
L 376.93017 195.711669 
L 379.102644 192.679492 
L 381.275118 193.37046 
L 383.447592 194.212999 
L 385.620066 195.383662 
L 387.792541 206.691772 
L 389.965015 215.341237 
L 392.137489 217.325554 
L 394.309963 221.679117 
L 398.654912 220.165631 
L 400.827386 215.919489 
L 402.99986 215.608966 
L 405.172334 207.763711 
L 407.344808 205.937056 
L 409.517283 204.950319 
L 411.689757 200.840325 
L 413.862231 198.563113 
L 416.034705 198.787818 
L 418.20718 196.532257 
L 420.379654 188.776558 
L 422.552128 188.564626 
L 424.724602 191.984863 
L 426.897076 194.409311 
L 429.069551 194.452739 
L 431.242025 190.448003 
L 433.414499 192.903706 
L 435.586973 189.18922 
L 437.759447 186.232471 
L 439.931922 191.877078 
L 442.104396 202.595245 
L 444.27687 195.062022 
L 446.449344 197.955819 
L 448.621818 201.409284 
L 450.794293 195.936987 
L 452.966767 188.073448 
L 455.139241 198.681361 
L 459.484189 191.044068 
L 461.656664 192.408071 
L 463.829138 195.09697 
L 466.001612 188.982332 
L 468.174086 174.971041 
L 470.34656 166.251687 
L 472.519035 147.05913 
L 474.691509 143.731765 
L 476.863983 139.215271 
L 481.208932 152.536984 
L 483.381406 163.188939 
L 485.55388 165.362889 
L 487.726354 172.398197 
L 489.898828 177.000955 
L 492.071303 173.400054 
L 494.243777 176.20358 
L 496.416251 178.796842 
L 498.588725 170.398568 
L 500.761199 168.545398 
L 502.933674 172.429225 
L 505.106148 169.577385 
L 507.278622 168.552628 
L 509.451096 168.352192 
L 511.62357 161.783734 
L 513.796045 152.855933 
L 515.968519 154.933115 
L 518.140993 142.104395 
L 520.313467 149.4505 
L 522.485941 156.110825 
L 524.658416 165.173401 
L 526.83089 163.848985 
L 529.003364 177.481086 
L 531.175838 181.336674 
L 533.348312 177.954485 
L 535.520787 184.436882 
L 537.693261 193.112314 
L 539.865735 189.401801 
L 542.038209 176.462995 
L 544.210684 179.524628 
L 546.383158 171.985878 
L 548.555632 165.973675 
L 550.728106 164.113378 
L 552.90058 168.347591 
L 555.073055 170.617113 
L 557.245529 177.257043 
L 559.418003 177.197889 
L 561.590477 186.839824 
L 563.762951 183.598247 
L 565.935426 181.69011 
L 568.1079 183.054985 
L 570.280374 185.410689 
L 572.452848 175.524472 
L 574.625322 179.257805 
L 576.797797 184.361503 
L 578.970271 184.690955 
L 581.142745 181.927084 
L 583.315219 188.019753 
L 585.487693 194.711961 
L 587.660168 194.340627 
L 589.832642 191.963863 
L 592.005116 191.177396 
L 594.17759 197.110894 
L 596.350064 196.564822 
L 598.522539 198.375077 
L 600.695013 196.03689 
L 602.867487 202.51368 
L 605.039961 199.066349 
L 607.212436 200.19118 
L 609.38491 203.053167 
L 611.557384 206.901917 
L 613.729858 205.62409 
L 615.902332 206.077069 
L 618.074807 205.309327 
L 620.247281 203.213217 
L 622.419755 204.332533 
L 624.592229 198.942912 
L 626.764703 196.636024 
L 628.937178 197.902403 
L 631.109652 196.8708 
L 633.282126 193.168518 
L 635.4546 199.793102 
L 637.627074 203.440745 
L 639.799549 208.316302 
L 641.972023 208.850362 
L 646.316971 210.295377 
L 648.489445 209.076936 
L 650.66192 197.134284 
L 652.834394 195.978229 
L 655.006868 203.14382 
L 657.179342 203.436293 
L 659.351816 204.927091 
L 661.524291 210.053693 
L 663.696765 211.086143 
L 665.869239 204.892157 
L 668.041713 206.683555 
L 670.214188 204.941333 
L 672.386662 209.574969 
L 674.559136 211.487991 
L 676.73161 212.144929 
L 678.904084 210.58101 
L 681.076559 212.26501 
L 683.249033 211.867811 
L 685.421507 213.371306 
L 687.593981 214.641818 
L 691.93893 217.728731 
L 694.111404 217.946061 
L 696.283878 214.593301 
L 698.456352 216.214079 
L 700.628826 215.313538 
L 702.801301 214.658058 
L 704.973775 214.261397 
L 707.146249 212.080018 
L 709.318723 212.613811 
L 711.491197 214.036202 
L 713.663672 214.677598 
L 715.836146 213.853746 
L 718.00862 218.980066 
L 720.181094 220.739624 
L 722.353568 221.615163 
L 724.526043 222.271528 
L 726.698517 224.846663 
L 728.870991 223.030358 
L 731.043465 222.505344 
L 733.21594 222.885401 
L 735.388414 222.24467 
L 737.560888 222.793326 
L 739.733362 224.42688 
L 741.905836 224.829233 
L 744.078311 225.375761 
L 746.250785 226.532678 
L 748.423259 226.825042 
L 750.595733 227.295183 
L 752.768207 227.288979 
L 754.940682 226.686265 
L 757.113156 226.733168 
L 761.458104 227.170777 
L 763.630578 227.067102 
L 767.975527 227.863436 
L 770.148001 227.661589 
L 772.320475 228.022879 
L 774.492949 228.034578 
L 778.837898 227.182406 
L 781.010372 226.274742 
L 785.35532 224.176969 
L 787.527795 224.482363 
L 789.700269 224.27161 
L 791.872743 222.156605 
L 794.045217 222.599685 
L 796.217692 223.76952 
L 798.390166 223.732439 
L 800.56264 223.852869 
L 802.735114 227.077385 
L 804.907588 227.682928 
L 807.080063 225.529822 
L 809.252537 225.842502 
L 813.597485 225.463532 
L 815.769959 225.463532 
L 817.942434 227.452069 
L 820.114908 227.008837 
L 822.287382 225.508791 
L 824.459856 224.987893 
L 826.63233 224.683693 
L 828.804805 225.300826 
L 830.977279 225.744058 
L 833.149753 227.930171 
L 835.322227 228.6558 
L 837.494701 228.96 
L 839.667176 228.96 
L 841.83965 228.628003 
L 844.012124 228.628003 
L 848.357072 228.171499 
L 850.529547 228.171499 
L 852.702021 228.503495 
L 857.046969 228.558636 
L 859.219443 228.800173 
L 865.736866 228.800173 
L 867.90934 227.765735 
L 870.081815 227.765735 
L 872.254289 227.504376 
L 874.426763 227.504376 
L 876.599237 227.248462 
L 878.771711 228.442727 
L 880.944186 228.442727 
L 883.11666 228.704086 
L 885.289134 228.704086 
L 887.461608 228.96 
L 935.256041 228.96 
L 937.428515 227.828591 
L 946.118412 227.828591 
L 948.290886 228.255188 
L 950.46336 228.255188 
L 952.635834 227.459011 
L 956.980783 227.459011 
L 959.153257 228.163823 
L 961.325731 228.163823 
L 963.498205 228.96 
L 1059.087071 228.96 
L 1061.259545 228.429215 
L 1061.259545 228.429215 
" style="fill:none;stroke:#a4a86f;stroke-linecap:square;stroke-width:2;"/>
   </g>
   <g id="line2d_22">
    <path clip-path="url(#pcaea13aba7)" d="M 285.686253 220.36129 
L 287.858727 228.96 
L 294.37615 228.96 
L 296.548624 207.463226 
L 298.721098 207.463226 
L 300.893572 185.966452 
L 305.238521 185.966452 
L 307.410995 207.463226 
L 309.583469 207.463226 
L 311.755943 226.810323 
L 316.100892 226.810323 
L 318.273366 218.211613 
L 320.44584 212.837419 
L 322.618314 214.987097 
L 324.790789 214.987097 
L 326.963263 197.789677 
L 329.135737 206.388387 
L 331.308211 207.463226 
L 333.480685 197.541638 
L 335.65316 193.242283 
L 337.825634 206.531198 
L 339.998108 206.531198 
L 342.170582 208.143456 
L 344.343057 215.536012 
L 346.515531 206.016012 
L 348.688005 197.640645 
L 350.860479 197.640645 
L 353.032953 200.327742 
L 355.205428 192.108387 
L 357.377902 192.350832 
L 359.550376 193.886316 
L 361.72285 175.783769 
L 363.895324 161.452586 
L 366.067799 166.059038 
L 368.240273 163.513367 
L 370.412747 168.887561 
L 372.585221 170.867527 
L 374.757695 166.090466 
L 376.93017 162.116272 
L 379.102644 142.410896 
L 381.275118 139.18638 
L 383.447592 137.394982 
L 385.620066 145.754839 
L 387.792541 121.476129 
L 389.965015 132.736344 
L 392.137489 121.491878 
L 394.309963 102.554243 
L 396.482437 96.105211 
L 398.654912 109.003276 
L 400.827386 124.972308 
L 402.99986 116.153118 
L 405.172334 140.72086 
L 407.344808 114.924731 
L 409.517283 104.176344 
L 411.689757 98.443871 
L 413.862231 105.609462 
L 416.034705 96.396559 
L 418.20718 112.030577 
L 420.379654 144.275738 
L 422.552128 141.409502 
L 424.724602 162.906276 
L 426.897076 170.071867 
L 429.069551 162.254858 
L 431.242025 119.26131 
L 433.414499 136.458729 
L 435.586973 95.994213 
L 437.759447 83.454428 
L 439.931922 75.637419 
L 442.104396 97.134194 
L 444.27687 54.140645 
L 446.449344 73.108387 
L 448.621818 78.482581 
L 450.794293 78.482581 
L 452.966767 71.316989 
L 455.139241 99.979355 
L 457.311715 92.813764 
L 461.656664 121.476129 
L 463.829138 137.854624 
L 466.001612 130.689032 
L 468.174086 116.35785 
L 470.34656 92.813764 
L 472.519035 109.192258 
L 474.691509 95.68 
L 476.863983 95.68 
L 479.036457 115.912258 
L 481.208932 115.912258 
L 483.381406 85.202581 
L 485.55388 98.714839 
L 487.726354 94.415484 
L 489.898828 93.725748 
L 492.071303 110.858515 
L 494.243777 110.858515 
L 496.416251 101.645612 
L 498.588725 104.511849 
L 500.761199 97.614488 
L 502.933674 80.481721 
L 505.106148 103.932747 
L 507.278622 114.681134 
L 509.451096 129.012317 
L 511.62357 136.210332 
L 513.796045 152.588826 
L 515.968519 156.008768 
L 520.313467 113.345939 
L 522.485941 114.999537 
L 524.658416 109.788198 
L 526.83089 100.114649 
L 529.003364 121.611423 
L 531.175838 128.944771 
L 533.348312 118.196384 
L 535.520787 109.076541 
L 537.693261 115.764426 
L 539.865735 97.850447 
L 542.038209 93.410896 
L 544.210684 92.216631 
L 546.383158 94.421428 
L 548.555632 102.781285 
L 550.728106 104.986082 
L 552.90058 104.986082 
L 555.073055 122.302928 
L 557.245529 132.637916 
L 559.418003 121.889529 
L 561.590477 123.267527 
L 563.762951 121.476129 
L 565.935426 110.239179 
L 568.1079 102.910733 
L 570.280374 90.012669 
L 572.452848 102.447077 
L 574.625322 104.238475 
L 576.797797 106.794036 
L 578.970271 122.183772 
L 581.142745 144.853097 
L 583.315219 140.096108 
L 585.487693 156.218689 
L 587.660168 162.596852 
L 589.832642 147.72825 
L 592.005116 135.269893 
L 594.17759 138.852688 
L 596.350064 129.757899 
L 598.522539 134.50394 
L 600.695013 151.291897 
L 602.867487 157.56179 
L 605.039961 144.021614 
L 607.212436 153.943202 
L 609.38491 143.055225 
L 611.557384 130.771354 
L 613.729858 128.453075 
L 615.902332 136.270084 
L 618.074807 133.907801 
L 620.247281 147.727155 
L 622.419755 158.987371 
L 624.592229 179.219629 
L 626.764703 187.297204 
L 628.937178 166.141649 
L 631.109652 176.890036 
L 633.282126 148.879088 
L 635.4546 127.382314 
L 637.627074 138.84726 
L 639.799549 172.286686 
L 641.972023 172.286686 
L 644.144497 181.667097 
L 646.316971 195.99828 
L 648.489445 188.832688 
L 650.66192 178.084301 
L 652.834394 174.175797 
L 655.006868 192.154917 
L 659.351816 206.4861 
L 661.524291 205.769541 
L 663.696765 209.678045 
L 665.869239 210.880662 
L 668.041713 196.549479 
L 670.214188 196.549479 
L 672.386662 203.237364 
L 674.559136 177.441235 
L 676.73161 172.330114 
L 678.904084 172.330114 
L 681.076559 165.541659 
L 683.249033 155.987537 
L 685.421507 177.006605 
L 687.593981 183.357925 
L 689.766455 187.76752 
L 691.93893 190.461351 
L 694.111404 194.044147 
L 696.283878 193.860414 
L 698.456352 196.163639 
L 700.628826 206.085227 
L 702.801301 204.037916 
L 704.973775 209.412109 
L 707.146249 213.210915 
L 709.318723 216.281883 
L 711.491197 215.610109 
L 713.663672 220.728389 
L 715.836146 220.370109 
L 718.00862 213.854677 
L 720.181094 211.167581 
L 722.353568 206.231501 
L 724.526043 204.290084 
L 726.698517 208.336536 
L 728.870991 212.014555 
L 731.043465 213.539664 
L 733.21594 216.8847 
L 735.388414 217.162676 
L 737.560888 218.848697 
L 739.733362 219.93328 
L 741.905836 216.18172 
L 744.078311 213.918901 
L 746.250785 211.11746 
L 748.423259 210.639754 
L 750.595733 211.629487 
L 752.768207 214.319231 
L 754.940682 218.844867 
L 757.113156 223.809094 
L 759.28563 222.172363 
L 761.458104 223.739168 
L 763.630578 222.655776 
L 765.803053 221.82095 
L 767.975527 222.345261 
L 770.148001 224.459698 
L 772.320475 224.817978 
L 774.492949 228.125174 
L 776.665424 228.96 
L 778.837898 228.561912 
L 787.527795 228.561912 
L 789.700269 228.675275 
L 791.872743 228.675275 
L 794.045217 227.837738 
L 798.390166 227.837738 
L 800.56264 228.122463 
L 802.735114 228.122463 
L 804.907588 228.728852 
L 811.425011 228.728852 
L 813.597485 227.397193 
L 815.769959 227.628341 
L 822.287382 227.628341 
L 824.459856 228.96 
L 826.63233 228.96 
L 828.804805 228.725063 
L 830.977279 228.725063 
L 833.149753 228.509015 
L 841.83965 228.584125 
L 844.012124 228.800173 
L 846.184598 228.47072 
L 846.184598 228.47072 
" style="fill:none;stroke:#d3d3d3;stroke-linecap:square;stroke-width:2;"/>
   </g>
   <g id="patch_3">
    <path d="M 43.78125 228.96 
L 43.78125 7.2 
" style="fill:none;stroke:#000000;stroke-linecap:square;stroke-linejoin:miter;stroke-width:0.8;"/>
   </g>
   <g id="patch_4">
    <path d="M 43.78125 228.96 
L 1159.78125 228.96 
" style="fill:none;stroke:#000000;stroke-linecap:square;stroke-linejoin:miter;stroke-width:0.8;"/>
   </g>
   <g id="legend_1">
    <g id="line2d_23">
     <path d="M 1065.97 17.67875 
L 1081.97 17.67875 
" style="fill:none;stroke:#947383;stroke-linecap:square;stroke-width:2;"/>
    </g>
    <g id="line2d_24"/>
    <g id="text_18">
     <!-- Europe -->
     <g transform="translate(1088.37 20.47875)scale(0.08 -0.08)">
      <defs>
       <path d="M 628 4666 
L 3578 4666 
L 3578 4134 
L 1259 4134 
L 1259 2753 
L 3481 2753 
L 3481 2222 
L 1259 2222 
L 1259 531 
L 3634 531 
L 3634 0 
L 628 0 
L 628 4666 
z
" id="DejaVuSans-45" transform="scale(0.015625)"/>
       <path d="M 1159 525 
L 1159 -1331 
L 581 -1331 
L 581 3500 
L 1159 3500 
L 1159 2969 
Q 1341 3281 1617 3432 
Q 1894 3584 2278 3584 
Q 2916 3584 3314 3078 
Q 3713 2572 3713 1747 
Q 3713 922 3314 415 
Q 2916 -91 2278 -91 
Q 1894 -91 1617 61 
Q 1341 213 1159 525 
z
M 3116 1747 
Q 3116 2381 2855 2742 
Q 2594 3103 2138 3103 
Q 1681 3103 1420 2742 
Q 1159 2381 1159 1747 
Q 1159 1113 1420 752 
Q 1681 391 2138 391 
Q 2594 391 2855 752 
Q 3116 1113 3116 1747 
z
" id="DejaVuSans-70" transform="scale(0.015625)"/>
      </defs>
      <use xlink:href="#DejaVuSans-45"/>
      <use x="63.183594" xlink:href="#DejaVuSans-75"/>
      <use x="126.5625" xlink:href="#DejaVuSans-72"/>
      <use x="165.425781" xlink:href="#DejaVuSans-6f"/>
      <use x="226.607422" xlink:href="#DejaVuSans-70"/>
      <use x="290.083984" xlink:href="#DejaVuSans-65"/>
     </g>
    </g>
    <g id="line2d_25">
     <path d="M 1065.97 29.42125 
L 1081.97 29.42125 
" style="fill:none;stroke:#96c6ad;stroke-linecap:square;stroke-width:2;"/>
    </g>
    <g id="line2d_26"/>
    <g id="text_19">
     <!-- South America -->
     <g transform="translate(1088.37 32.22125)scale(0.08 -0.08)">
      <defs>
       <path d="M 3425 4513 
L 3425 3897 
Q 3066 4069 2747 4153 
Q 2428 4238 2131 4238 
Q 1616 4238 1336 4038 
Q 1056 3838 1056 3469 
Q 1056 3159 1242 3001 
Q 1428 2844 1947 2747 
L 2328 2669 
Q 3034 2534 3370 2195 
Q 3706 1856 3706 1288 
Q 3706 609 3251 259 
Q 2797 -91 1919 -91 
Q 1588 -91 1214 -16 
Q 841 59 441 206 
L 441 856 
Q 825 641 1194 531 
Q 1563 422 1919 422 
Q 2459 422 2753 634 
Q 3047 847 3047 1241 
Q 3047 1584 2836 1778 
Q 2625 1972 2144 2069 
L 1759 2144 
Q 1053 2284 737 2584 
Q 422 2884 422 3419 
Q 422 4038 858 4394 
Q 1294 4750 2059 4750 
Q 2388 4750 2728 4690 
Q 3069 4631 3425 4513 
z
" id="DejaVuSans-53" transform="scale(0.015625)"/>
       <path d="M 3513 2113 
L 3513 0 
L 2938 0 
L 2938 2094 
Q 2938 2591 2744 2837 
Q 2550 3084 2163 3084 
Q 1697 3084 1428 2787 
Q 1159 2491 1159 1978 
L 1159 0 
L 581 0 
L 581 4863 
L 1159 4863 
L 1159 2956 
Q 1366 3272 1645 3428 
Q 1925 3584 2291 3584 
Q 2894 3584 3203 3211 
Q 3513 2838 3513 2113 
z
" id="DejaVuSans-68" transform="scale(0.015625)"/>
       <path d="M 2188 4044 
L 1331 1722 
L 3047 1722 
L 2188 4044 
z
M 1831 4666 
L 2547 4666 
L 4325 0 
L 3669 0 
L 3244 1197 
L 1141 1197 
L 716 0 
L 50 0 
L 1831 4666 
z
" id="DejaVuSans-41" transform="scale(0.015625)"/>
       <path d="M 3328 2828 
Q 3544 3216 3844 3400 
Q 4144 3584 4550 3584 
Q 5097 3584 5394 3201 
Q 5691 2819 5691 2113 
L 5691 0 
L 5113 0 
L 5113 2094 
Q 5113 2597 4934 2840 
Q 4756 3084 4391 3084 
Q 3944 3084 3684 2787 
Q 3425 2491 3425 1978 
L 3425 0 
L 2847 0 
L 2847 2094 
Q 2847 2600 2669 2842 
Q 2491 3084 2119 3084 
Q 1678 3084 1418 2786 
Q 1159 2488 1159 1978 
L 1159 0 
L 581 0 
L 581 3500 
L 1159 3500 
L 1159 2956 
Q 1356 3278 1631 3431 
Q 1906 3584 2284 3584 
Q 2666 3584 2933 3390 
Q 3200 3197 3328 2828 
z
" id="DejaVuSans-6d" transform="scale(0.015625)"/>
      </defs>
      <use xlink:href="#DejaVuSans-53"/>
      <use x="63.476562" xlink:href="#DejaVuSans-6f"/>
      <use x="124.658203" xlink:href="#DejaVuSans-75"/>
      <use x="188.037109" xlink:href="#DejaVuSans-74"/>
      <use x="227.246094" xlink:href="#DejaVuSans-68"/>
      <use x="290.625" xlink:href="#DejaVuSans-20"/>
      <use x="322.412109" xlink:href="#DejaVuSans-41"/>
      <use x="390.820312" xlink:href="#DejaVuSans-6d"/>
      <use x="488.232422" xlink:href="#DejaVuSans-65"/>
      <use x="549.755859" xlink:href="#DejaVuSans-72"/>
      <use x="590.869141" xlink:href="#DejaVuSans-69"/>
      <use x="618.652344" xlink:href="#DejaVuSans-63"/>
      <use x="673.632812" xlink:href="#DejaVuSans-61"/>
     </g>
    </g>
    <g id="line2d_27">
     <path d="M 1065.97 41.16375 
L 1081.97 41.16375 
" style="fill:none;stroke:#525886;stroke-linecap:square;stroke-width:2;"/>
    </g>
    <g id="line2d_28"/>
    <g id="text_20">
     <!-- Asia -->
     <g transform="translate(1088.37 43.96375)scale(0.08 -0.08)">
      <defs>
       <path d="M 2834 3397 
L 2834 2853 
Q 2591 2978 2328 3040 
Q 2066 3103 1784 3103 
Q 1356 3103 1142 2972 
Q 928 2841 928 2578 
Q 928 2378 1081 2264 
Q 1234 2150 1697 2047 
L 1894 2003 
Q 2506 1872 2764 1633 
Q 3022 1394 3022 966 
Q 3022 478 2636 193 
Q 2250 -91 1575 -91 
Q 1294 -91 989 -36 
Q 684 19 347 128 
L 347 722 
Q 666 556 975 473 
Q 1284 391 1588 391 
Q 1994 391 2212 530 
Q 2431 669 2431 922 
Q 2431 1156 2273 1281 
Q 2116 1406 1581 1522 
L 1381 1569 
Q 847 1681 609 1914 
Q 372 2147 372 2553 
Q 372 3047 722 3315 
Q 1072 3584 1716 3584 
Q 2034 3584 2315 3537 
Q 2597 3491 2834 3397 
z
" id="DejaVuSans-73" transform="scale(0.015625)"/>
      </defs>
      <use xlink:href="#DejaVuSans-41"/>
      <use x="68.408203" xlink:href="#DejaVuSans-73"/>
      <use x="120.507812" xlink:href="#DejaVuSans-69"/>
      <use x="148.291016" xlink:href="#DejaVuSans-61"/>
     </g>
    </g>
    <g id="line2d_29">
     <path d="M 1065.97 52.90625 
L 1081.97 52.90625 
" style="fill:none;stroke:#937252;stroke-linecap:square;stroke-width:2;"/>
    </g>
    <g id="line2d_30"/>
    <g id="text_21">
     <!-- United Kingdom -->
     <g transform="translate(1088.37 55.70625)scale(0.08 -0.08)">
      <defs>
       <path d="M 556 4666 
L 1191 4666 
L 1191 1831 
Q 1191 1081 1462 751 
Q 1734 422 2344 422 
Q 2950 422 3222 751 
Q 3494 1081 3494 1831 
L 3494 4666 
L 4128 4666 
L 4128 1753 
Q 4128 841 3676 375 
Q 3225 -91 2344 -91 
Q 1459 -91 1007 375 
Q 556 841 556 1753 
L 556 4666 
z
" id="DejaVuSans-55" transform="scale(0.015625)"/>
       <path d="M 628 4666 
L 1259 4666 
L 1259 2694 
L 3353 4666 
L 4166 4666 
L 1850 2491 
L 4331 0 
L 3500 0 
L 1259 2247 
L 1259 0 
L 628 0 
L 628 4666 
z
" id="DejaVuSans-4b" transform="scale(0.015625)"/>
      </defs>
      <use xlink:href="#DejaVuSans-55"/>
      <use x="73.193359" xlink:href="#DejaVuSans-6e"/>
      <use x="136.572266" xlink:href="#DejaVuSans-69"/>
      <use x="164.355469" xlink:href="#DejaVuSans-74"/>
      <use x="203.564453" xlink:href="#DejaVuSans-65"/>
      <use x="265.087891" xlink:href="#DejaVuSans-64"/>
      <use x="328.564453" xlink:href="#DejaVuSans-20"/>
      <use x="360.351562" xlink:href="#DejaVuSans-4b"/>
      <use x="425.927734" xlink:href="#DejaVuSans-69"/>
      <use x="453.710938" xlink:href="#DejaVuSans-6e"/>
      <use x="517.089844" xlink:href="#DejaVuSans-67"/>
      <use x="580.566406" xlink:href="#DejaVuSans-64"/>
      <use x="644.042969" xlink:href="#DejaVuSans-6f"/>
      <use x="705.224609" xlink:href="#DejaVuSans-6d"/>
     </g>
    </g>
    <g id="line2d_31">
     <path d="M 1065.97 64.64875 
L 1081.97 64.64875 
" style="fill:none;stroke:#d18cad;stroke-linecap:square;stroke-width:2;"/>
    </g>
    <g id="line2d_32"/>
    <g id="text_22">
     <!-- North America -->
     <g transform="translate(1088.37 67.44875)scale(0.08 -0.08)">
      <defs>
       <path d="M 628 4666 
L 1478 4666 
L 3547 763 
L 3547 4666 
L 4159 4666 
L 4159 0 
L 3309 0 
L 1241 3903 
L 1241 0 
L 628 0 
L 628 4666 
z
" id="DejaVuSans-4e" transform="scale(0.015625)"/>
      </defs>
      <use xlink:href="#DejaVuSans-4e"/>
      <use x="74.804688" xlink:href="#DejaVuSans-6f"/>
      <use x="135.986328" xlink:href="#DejaVuSans-72"/>
      <use x="177.099609" xlink:href="#DejaVuSans-74"/>
      <use x="216.308594" xlink:href="#DejaVuSans-68"/>
      <use x="279.6875" xlink:href="#DejaVuSans-20"/>
      <use x="311.474609" xlink:href="#DejaVuSans-41"/>
      <use x="379.882812" xlink:href="#DejaVuSans-6d"/>
      <use x="477.294922" xlink:href="#DejaVuSans-65"/>
      <use x="538.818359" xlink:href="#DejaVuSans-72"/>
      <use x="579.931641" xlink:href="#DejaVuSans-69"/>
      <use x="607.714844" xlink:href="#DejaVuSans-63"/>
      <use x="662.695312" xlink:href="#DejaVuSans-61"/>
     </g>
    </g>
    <g id="line2d_33">
     <path d="M 1065.97 76.39125 
L 1081.97 76.39125 
" style="fill:none;stroke:#a4a86f;stroke-linecap:square;stroke-width:2;"/>
    </g>
    <g id="line2d_34"/>
    <g id="text_23">
     <!-- Africa -->
     <g transform="translate(1088.37 79.19125)scale(0.08 -0.08)">
      <defs>
       <path d="M 2375 4863 
L 2375 4384 
L 1825 4384 
Q 1516 4384 1395 4259 
Q 1275 4134 1275 3809 
L 1275 3500 
L 2222 3500 
L 2222 3053 
L 1275 3053 
L 1275 0 
L 697 0 
L 697 3053 
L 147 3053 
L 147 3500 
L 697 3500 
L 697 3744 
Q 697 4328 969 4595 
Q 1241 4863 1831 4863 
L 2375 4863 
z
" id="DejaVuSans-66" transform="scale(0.015625)"/>
      </defs>
      <use xlink:href="#DejaVuSans-41"/>
      <use x="64.783203" xlink:href="#DejaVuSans-66"/>
      <use x="99.988281" xlink:href="#DejaVuSans-72"/>
      <use x="141.101562" xlink:href="#DejaVuSans-69"/>
      <use x="168.884766" xlink:href="#DejaVuSans-63"/>
      <use x="223.865234" xlink:href="#DejaVuSans-61"/>
     </g>
    </g>
    <g id="line2d_35">
     <path d="M 1065.97 88.13375 
L 1081.97 88.13375 
" style="fill:none;stroke:#d3d3d3;stroke-linecap:square;stroke-width:2;"/>
    </g>
    <g id="line2d_36"/>
    <g id="text_24">
     <!-- Oceania -->
     <g transform="translate(1088.37 90.93375)scale(0.08 -0.08)">
      <defs>
       <path d="M 2522 4238 
Q 1834 4238 1429 3725 
Q 1025 3213 1025 2328 
Q 1025 1447 1429 934 
Q 1834 422 2522 422 
Q 3209 422 3611 934 
Q 4013 1447 4013 2328 
Q 4013 3213 3611 3725 
Q 3209 4238 2522 4238 
z
M 2522 4750 
Q 3503 4750 4090 4092 
Q 4678 3434 4678 2328 
Q 4678 1225 4090 567 
Q 3503 -91 2522 -91 
Q 1538 -91 948 565 
Q 359 1222 359 2328 
Q 359 3434 948 4092 
Q 1538 4750 2522 4750 
z
" id="DejaVuSans-4f" transform="scale(0.015625)"/>
      </defs>
      <use xlink:href="#DejaVuSans-4f"/>
      <use x="78.710938" xlink:href="#DejaVuSans-63"/>
      <use x="133.691406" xlink:href="#DejaVuSans-65"/>
      <use x="195.214844" xlink:href="#DejaVuSans-61"/>
      <use x="256.494141" xlink:href="#DejaVuSans-6e"/>
      <use x="319.873047" xlink:href="#DejaVuSans-69"/>
      <use x="347.65625" xlink:href="#DejaVuSans-61"/>
     </g>
    </g>
   </g>
  </g>
 </g>
 <defs>
  <clipPath id="pcaea13aba7">
   <rect height="221.76" width="1116" x="43.78125" y="7.2"/>
  </clipPath>
 </defs>
</svg>
