<?xml version="1.0" encoding="utf-8" standalone="no"?>
<!DOCTYPE svg PUBLIC "-//W3C//DTD SVG 1.1//EN"
  "http://www.w3.org/Graphics/SVG/1.1/DTD/svg11.dtd">
<svg height="298.620937pt" version="1.1" viewBox="0 0 1166.98125 298.620937" width="1166.98125pt" xmlns="http://www.w3.org/2000/svg" xmlns:xlink="http://www.w3.org/1999/xlink">
 <metadata>
  <rdf:RDF xmlns:cc="http://creativecommons.org/ns#" xmlns:dc="http://purl.org/dc/elements/1.1/" xmlns:rdf="http://www.w3.org/1999/02/22-rdf-syntax-ns#">
   <cc:Work>
    <dc:type rdf:resource="http://purl.org/dc/dcmitype/StillImage"/>
    <dc:date>2021-11-11T14:16:12.013275</dc:date>
    <dc:format>image/svg+xml</dc:format>
    <dc:creator>
     <cc:Agent>
      <dc:title>Matplotlib v3.4.2, https://matplotlib.org/</dc:title>
     </cc:Agent>
    </dc:creator>
   </cc:Work>
  </rdf:RDF>
 </metadata>
 <defs>
  <style type="text/css">*{stroke-linecap:butt;stroke-linejoin:round;}</style>
 </defs>
 <g id="figure_1">
  <g id="patch_1">
   <path d="M 0 298.620937 
L 1166.98125 298.620937 
L 1166.98125 0 
L 0 0 
z
" style="fill:#ffffff;"/>
  </g>
  <g id="axes_1">
   <g id="patch_2">
    <path d="M 43.78125 228.96 
L 1159.78125 228.96 
L 1159.78125 7.2 
L 43.78125 7.2 
z
" style="fill:#ffffff;"/>
   </g>
   <g id="matplotlib.axis_1">
    <g id="xtick_1">
     <g id="line2d_1">
      <defs>
       <path d="M 0 0 
L 0 3.5 
" id="mfe47d276eb" style="stroke:#000000;stroke-width:0.8;"/>
      </defs>
      <g>
       <use style="stroke:#000000;stroke-width:0.8;" x="79.875656" xlink:href="#mfe47d276eb" y="228.96"/>
      </g>
     </g>
     <g id="text_1">
      <!-- 2020-09 -->
      <g transform="translate(82.635031 277.742812)rotate(-90)scale(0.1 -0.1)">
       <defs>
        <path d="M 1228 531 
L 3431 531 
L 3431 0 
L 469 0 
L 469 531 
Q 828 903 1448 1529 
Q 2069 2156 2228 2338 
Q 2531 2678 2651 2914 
Q 2772 3150 2772 3378 
Q 2772 3750 2511 3984 
Q 2250 4219 1831 4219 
Q 1534 4219 1204 4116 
Q 875 4013 500 3803 
L 500 4441 
Q 881 4594 1212 4672 
Q 1544 4750 1819 4750 
Q 2544 4750 2975 4387 
Q 3406 4025 3406 3419 
Q 3406 3131 3298 2873 
Q 3191 2616 2906 2266 
Q 2828 2175 2409 1742 
Q 1991 1309 1228 531 
z
" id="DejaVuSans-32" transform="scale(0.015625)"/>
        <path d="M 2034 4250 
Q 1547 4250 1301 3770 
Q 1056 3291 1056 2328 
Q 1056 1369 1301 889 
Q 1547 409 2034 409 
Q 2525 409 2770 889 
Q 3016 1369 3016 2328 
Q 3016 3291 2770 3770 
Q 2525 4250 2034 4250 
z
M 2034 4750 
Q 2819 4750 3233 4129 
Q 3647 3509 3647 2328 
Q 3647 1150 3233 529 
Q 2819 -91 2034 -91 
Q 1250 -91 836 529 
Q 422 1150 422 2328 
Q 422 3509 836 4129 
Q 1250 4750 2034 4750 
z
" id="DejaVuSans-30" transform="scale(0.015625)"/>
        <path d="M 313 2009 
L 1997 2009 
L 1997 1497 
L 313 1497 
L 313 2009 
z
" id="DejaVuSans-2d" transform="scale(0.015625)"/>
        <path d="M 703 97 
L 703 672 
Q 941 559 1184 500 
Q 1428 441 1663 441 
Q 2288 441 2617 861 
Q 2947 1281 2994 2138 
Q 2813 1869 2534 1725 
Q 2256 1581 1919 1581 
Q 1219 1581 811 2004 
Q 403 2428 403 3163 
Q 403 3881 828 4315 
Q 1253 4750 1959 4750 
Q 2769 4750 3195 4129 
Q 3622 3509 3622 2328 
Q 3622 1225 3098 567 
Q 2575 -91 1691 -91 
Q 1453 -91 1209 -44 
Q 966 3 703 97 
z
M 1959 2075 
Q 2384 2075 2632 2365 
Q 2881 2656 2881 3163 
Q 2881 3666 2632 3958 
Q 2384 4250 1959 4250 
Q 1534 4250 1286 3958 
Q 1038 3666 1038 3163 
Q 1038 2656 1286 2365 
Q 1534 2075 1959 2075 
z
" id="DejaVuSans-39" transform="scale(0.015625)"/>
       </defs>
       <use xlink:href="#DejaVuSans-32"/>
       <use x="63.623047" xlink:href="#DejaVuSans-30"/>
       <use x="127.246094" xlink:href="#DejaVuSans-32"/>
       <use x="190.869141" xlink:href="#DejaVuSans-30"/>
       <use x="254.492188" xlink:href="#DejaVuSans-2d"/>
       <use x="290.576172" xlink:href="#DejaVuSans-30"/>
       <use x="354.199219" xlink:href="#DejaVuSans-39"/>
      </g>
     </g>
    </g>
    <g id="xtick_2">
     <g id="line2d_2">
      <g>
       <use style="stroke:#000000;stroke-width:0.8;" x="228.643138" xlink:href="#mfe47d276eb" y="228.96"/>
      </g>
     </g>
     <g id="text_2">
      <!-- 2020-11 -->
      <g transform="translate(231.402513 277.742812)rotate(-90)scale(0.1 -0.1)">
       <defs>
        <path d="M 794 531 
L 1825 531 
L 1825 4091 
L 703 3866 
L 703 4441 
L 1819 4666 
L 2450 4666 
L 2450 531 
L 3481 531 
L 3481 0 
L 794 0 
L 794 531 
z
" id="DejaVuSans-31" transform="scale(0.015625)"/>
       </defs>
       <use xlink:href="#DejaVuSans-32"/>
       <use x="63.623047" xlink:href="#DejaVuSans-30"/>
       <use x="127.246094" xlink:href="#DejaVuSans-32"/>
       <use x="190.869141" xlink:href="#DejaVuSans-30"/>
       <use x="254.492188" xlink:href="#DejaVuSans-2d"/>
       <use x="290.576172" xlink:href="#DejaVuSans-31"/>
       <use x="354.199219" xlink:href="#DejaVuSans-31"/>
      </g>
     </g>
    </g>
    <g id="xtick_3">
     <g id="line2d_3">
      <g>
       <use style="stroke:#000000;stroke-width:0.8;" x="377.410621" xlink:href="#mfe47d276eb" y="228.96"/>
      </g>
     </g>
     <g id="text_3">
      <!-- 2021-01 -->
      <g transform="translate(380.169996 277.742812)rotate(-90)scale(0.1 -0.1)">
       <use xlink:href="#DejaVuSans-32"/>
       <use x="63.623047" xlink:href="#DejaVuSans-30"/>
       <use x="127.246094" xlink:href="#DejaVuSans-32"/>
       <use x="190.869141" xlink:href="#DejaVuSans-31"/>
       <use x="254.492188" xlink:href="#DejaVuSans-2d"/>
       <use x="290.576172" xlink:href="#DejaVuSans-30"/>
       <use x="354.199219" xlink:href="#DejaVuSans-31"/>
      </g>
     </g>
    </g>
    <g id="xtick_4">
     <g id="line2d_4">
      <g>
       <use style="stroke:#000000;stroke-width:0.8;" x="521.300481" xlink:href="#mfe47d276eb" y="228.96"/>
      </g>
     </g>
     <g id="text_4">
      <!-- 2021-03 -->
      <g transform="translate(524.059856 277.742812)rotate(-90)scale(0.1 -0.1)">
       <defs>
        <path d="M 2597 2516 
Q 3050 2419 3304 2112 
Q 3559 1806 3559 1356 
Q 3559 666 3084 287 
Q 2609 -91 1734 -91 
Q 1441 -91 1130 -33 
Q 819 25 488 141 
L 488 750 
Q 750 597 1062 519 
Q 1375 441 1716 441 
Q 2309 441 2620 675 
Q 2931 909 2931 1356 
Q 2931 1769 2642 2001 
Q 2353 2234 1838 2234 
L 1294 2234 
L 1294 2753 
L 1863 2753 
Q 2328 2753 2575 2939 
Q 2822 3125 2822 3475 
Q 2822 3834 2567 4026 
Q 2313 4219 1838 4219 
Q 1578 4219 1281 4162 
Q 984 4106 628 3988 
L 628 4550 
Q 988 4650 1302 4700 
Q 1616 4750 1894 4750 
Q 2613 4750 3031 4423 
Q 3450 4097 3450 3541 
Q 3450 3153 3228 2886 
Q 3006 2619 2597 2516 
z
" id="DejaVuSans-33" transform="scale(0.015625)"/>
       </defs>
       <use xlink:href="#DejaVuSans-32"/>
       <use x="63.623047" xlink:href="#DejaVuSans-30"/>
       <use x="127.246094" xlink:href="#DejaVuSans-32"/>
       <use x="190.869141" xlink:href="#DejaVuSans-31"/>
       <use x="254.492188" xlink:href="#DejaVuSans-2d"/>
       <use x="290.576172" xlink:href="#DejaVuSans-30"/>
       <use x="354.199219" xlink:href="#DejaVuSans-33"/>
      </g>
     </g>
    </g>
    <g id="xtick_5">
     <g id="line2d_5">
      <g>
       <use style="stroke:#000000;stroke-width:0.8;" x="670.067963" xlink:href="#mfe47d276eb" y="228.96"/>
      </g>
     </g>
     <g id="text_5">
      <!-- 2021-05 -->
      <g transform="translate(672.827338 277.742812)rotate(-90)scale(0.1 -0.1)">
       <defs>
        <path d="M 691 4666 
L 3169 4666 
L 3169 4134 
L 1269 4134 
L 1269 2991 
Q 1406 3038 1543 3061 
Q 1681 3084 1819 3084 
Q 2600 3084 3056 2656 
Q 3513 2228 3513 1497 
Q 3513 744 3044 326 
Q 2575 -91 1722 -91 
Q 1428 -91 1123 -41 
Q 819 9 494 109 
L 494 744 
Q 775 591 1075 516 
Q 1375 441 1709 441 
Q 2250 441 2565 725 
Q 2881 1009 2881 1497 
Q 2881 1984 2565 2268 
Q 2250 2553 1709 2553 
Q 1456 2553 1204 2497 
Q 953 2441 691 2322 
L 691 4666 
z
" id="DejaVuSans-35" transform="scale(0.015625)"/>
       </defs>
       <use xlink:href="#DejaVuSans-32"/>
       <use x="63.623047" xlink:href="#DejaVuSans-30"/>
       <use x="127.246094" xlink:href="#DejaVuSans-32"/>
       <use x="190.869141" xlink:href="#DejaVuSans-31"/>
       <use x="254.492188" xlink:href="#DejaVuSans-2d"/>
       <use x="290.576172" xlink:href="#DejaVuSans-30"/>
       <use x="354.199219" xlink:href="#DejaVuSans-35"/>
      </g>
     </g>
    </g>
    <g id="xtick_6">
     <g id="line2d_6">
      <g>
       <use style="stroke:#000000;stroke-width:0.8;" x="818.835446" xlink:href="#mfe47d276eb" y="228.96"/>
      </g>
     </g>
     <g id="text_6">
      <!-- 2021-07 -->
      <g transform="translate(821.594821 277.742812)rotate(-90)scale(0.1 -0.1)">
       <defs>
        <path d="M 525 4666 
L 3525 4666 
L 3525 4397 
L 1831 0 
L 1172 0 
L 2766 4134 
L 525 4134 
L 525 4666 
z
" id="DejaVuSans-37" transform="scale(0.015625)"/>
       </defs>
       <use xlink:href="#DejaVuSans-32"/>
       <use x="63.623047" xlink:href="#DejaVuSans-30"/>
       <use x="127.246094" xlink:href="#DejaVuSans-32"/>
       <use x="190.869141" xlink:href="#DejaVuSans-31"/>
       <use x="254.492188" xlink:href="#DejaVuSans-2d"/>
       <use x="290.576172" xlink:href="#DejaVuSans-30"/>
       <use x="354.199219" xlink:href="#DejaVuSans-37"/>
      </g>
     </g>
    </g>
    <g id="xtick_7">
     <g id="line2d_7">
      <g>
       <use style="stroke:#000000;stroke-width:0.8;" x="970.04174" xlink:href="#mfe47d276eb" y="228.96"/>
      </g>
     </g>
     <g id="text_7">
      <!-- 2021-09 -->
      <g transform="translate(972.801115 277.742812)rotate(-90)scale(0.1 -0.1)">
       <use xlink:href="#DejaVuSans-32"/>
       <use x="63.623047" xlink:href="#DejaVuSans-30"/>
       <use x="127.246094" xlink:href="#DejaVuSans-32"/>
       <use x="190.869141" xlink:href="#DejaVuSans-31"/>
       <use x="254.492188" xlink:href="#DejaVuSans-2d"/>
       <use x="290.576172" xlink:href="#DejaVuSans-30"/>
       <use x="354.199219" xlink:href="#DejaVuSans-39"/>
      </g>
     </g>
    </g>
    <g id="xtick_8">
     <g id="line2d_8">
      <g>
       <use style="stroke:#000000;stroke-width:0.8;" x="1118.809222" xlink:href="#mfe47d276eb" y="228.96"/>
      </g>
     </g>
     <g id="text_8">
      <!-- 2021-11 -->
      <g transform="translate(1121.568597 277.742812)rotate(-90)scale(0.1 -0.1)">
       <use xlink:href="#DejaVuSans-32"/>
       <use x="63.623047" xlink:href="#DejaVuSans-30"/>
       <use x="127.246094" xlink:href="#DejaVuSans-32"/>
       <use x="190.869141" xlink:href="#DejaVuSans-31"/>
       <use x="254.492188" xlink:href="#DejaVuSans-2d"/>
       <use x="290.576172" xlink:href="#DejaVuSans-31"/>
       <use x="354.199219" xlink:href="#DejaVuSans-31"/>
      </g>
     </g>
    </g>
    <g id="text_9">
     <!-- Date -->
     <g transform="translate(589.830469 289.34125)scale(0.1 -0.1)">
      <defs>
       <path d="M 1259 4147 
L 1259 519 
L 2022 519 
Q 2988 519 3436 956 
Q 3884 1394 3884 2338 
Q 3884 3275 3436 3711 
Q 2988 4147 2022 4147 
L 1259 4147 
z
M 628 4666 
L 1925 4666 
Q 3281 4666 3915 4102 
Q 4550 3538 4550 2338 
Q 4550 1131 3912 565 
Q 3275 0 1925 0 
L 628 0 
L 628 4666 
z
" id="DejaVuSans-44" transform="scale(0.015625)"/>
       <path d="M 2194 1759 
Q 1497 1759 1228 1600 
Q 959 1441 959 1056 
Q 959 750 1161 570 
Q 1363 391 1709 391 
Q 2188 391 2477 730 
Q 2766 1069 2766 1631 
L 2766 1759 
L 2194 1759 
z
M 3341 1997 
L 3341 0 
L 2766 0 
L 2766 531 
Q 2569 213 2275 61 
Q 1981 -91 1556 -91 
Q 1019 -91 701 211 
Q 384 513 384 1019 
Q 384 1609 779 1909 
Q 1175 2209 1959 2209 
L 2766 2209 
L 2766 2266 
Q 2766 2663 2505 2880 
Q 2244 3097 1772 3097 
Q 1472 3097 1187 3025 
Q 903 2953 641 2809 
L 641 3341 
Q 956 3463 1253 3523 
Q 1550 3584 1831 3584 
Q 2591 3584 2966 3190 
Q 3341 2797 3341 1997 
z
" id="DejaVuSans-61" transform="scale(0.015625)"/>
       <path d="M 1172 4494 
L 1172 3500 
L 2356 3500 
L 2356 3053 
L 1172 3053 
L 1172 1153 
Q 1172 725 1289 603 
Q 1406 481 1766 481 
L 2356 481 
L 2356 0 
L 1766 0 
Q 1100 0 847 248 
Q 594 497 594 1153 
L 594 3053 
L 172 3053 
L 172 3500 
L 594 3500 
L 594 4494 
L 1172 4494 
z
" id="DejaVuSans-74" transform="scale(0.015625)"/>
       <path d="M 3597 1894 
L 3597 1613 
L 953 1613 
Q 991 1019 1311 708 
Q 1631 397 2203 397 
Q 2534 397 2845 478 
Q 3156 559 3463 722 
L 3463 178 
Q 3153 47 2828 -22 
Q 2503 -91 2169 -91 
Q 1331 -91 842 396 
Q 353 884 353 1716 
Q 353 2575 817 3079 
Q 1281 3584 2069 3584 
Q 2775 3584 3186 3129 
Q 3597 2675 3597 1894 
z
M 3022 2063 
Q 3016 2534 2758 2815 
Q 2500 3097 2075 3097 
Q 1594 3097 1305 2825 
Q 1016 2553 972 2059 
L 3022 2063 
z
" id="DejaVuSans-65" transform="scale(0.015625)"/>
      </defs>
      <use xlink:href="#DejaVuSans-44"/>
      <use x="77.001953" xlink:href="#DejaVuSans-61"/>
      <use x="138.28125" xlink:href="#DejaVuSans-74"/>
      <use x="177.490234" xlink:href="#DejaVuSans-65"/>
     </g>
    </g>
   </g>
   <g id="matplotlib.axis_2">
    <g id="ytick_1">
     <g id="line2d_9">
      <defs>
       <path d="M 0 0 
L -3.5 0 
" id="m418469e763" style="stroke:#000000;stroke-width:0.8;"/>
      </defs>
      <g>
       <use style="stroke:#000000;stroke-width:0.8;" x="43.78125" xlink:href="#m418469e763" y="228.96"/>
      </g>
     </g>
     <g id="text_10">
      <!-- 0.0 -->
      <g transform="translate(20.878125 232.759219)scale(0.1 -0.1)">
       <defs>
        <path d="M 684 794 
L 1344 794 
L 1344 0 
L 684 0 
L 684 794 
z
" id="DejaVuSans-2e" transform="scale(0.015625)"/>
       </defs>
       <use xlink:href="#DejaVuSans-30"/>
       <use x="63.623047" xlink:href="#DejaVuSans-2e"/>
       <use x="95.410156" xlink:href="#DejaVuSans-30"/>
      </g>
     </g>
    </g>
    <g id="ytick_2">
     <g id="line2d_10">
      <g>
       <use style="stroke:#000000;stroke-width:0.8;" x="43.78125" xlink:href="#m418469e763" y="185.93941"/>
      </g>
     </g>
     <g id="text_11">
      <!-- 0.2 -->
      <g transform="translate(20.878125 189.738629)scale(0.1 -0.1)">
       <use xlink:href="#DejaVuSans-30"/>
       <use x="63.623047" xlink:href="#DejaVuSans-2e"/>
       <use x="95.410156" xlink:href="#DejaVuSans-32"/>
      </g>
     </g>
    </g>
    <g id="ytick_3">
     <g id="line2d_11">
      <g>
       <use style="stroke:#000000;stroke-width:0.8;" x="43.78125" xlink:href="#m418469e763" y="142.91882"/>
      </g>
     </g>
     <g id="text_12">
      <!-- 0.4 -->
      <g transform="translate(20.878125 146.718039)scale(0.1 -0.1)">
       <defs>
        <path d="M 2419 4116 
L 825 1625 
L 2419 1625 
L 2419 4116 
z
M 2253 4666 
L 3047 4666 
L 3047 1625 
L 3713 1625 
L 3713 1100 
L 3047 1100 
L 3047 0 
L 2419 0 
L 2419 1100 
L 313 1100 
L 313 1709 
L 2253 4666 
z
" id="DejaVuSans-34" transform="scale(0.015625)"/>
       </defs>
       <use xlink:href="#DejaVuSans-30"/>
       <use x="63.623047" xlink:href="#DejaVuSans-2e"/>
       <use x="95.410156" xlink:href="#DejaVuSans-34"/>
      </g>
     </g>
    </g>
    <g id="ytick_4">
     <g id="line2d_12">
      <g>
       <use style="stroke:#000000;stroke-width:0.8;" x="43.78125" xlink:href="#m418469e763" y="99.89823"/>
      </g>
     </g>
     <g id="text_13">
      <!-- 0.6 -->
      <g transform="translate(20.878125 103.697449)scale(0.1 -0.1)">
       <defs>
        <path d="M 2113 2584 
Q 1688 2584 1439 2293 
Q 1191 2003 1191 1497 
Q 1191 994 1439 701 
Q 1688 409 2113 409 
Q 2538 409 2786 701 
Q 3034 994 3034 1497 
Q 3034 2003 2786 2293 
Q 2538 2584 2113 2584 
z
M 3366 4563 
L 3366 3988 
Q 3128 4100 2886 4159 
Q 2644 4219 2406 4219 
Q 1781 4219 1451 3797 
Q 1122 3375 1075 2522 
Q 1259 2794 1537 2939 
Q 1816 3084 2150 3084 
Q 2853 3084 3261 2657 
Q 3669 2231 3669 1497 
Q 3669 778 3244 343 
Q 2819 -91 2113 -91 
Q 1303 -91 875 529 
Q 447 1150 447 2328 
Q 447 3434 972 4092 
Q 1497 4750 2381 4750 
Q 2619 4750 2861 4703 
Q 3103 4656 3366 4563 
z
" id="DejaVuSans-36" transform="scale(0.015625)"/>
       </defs>
       <use xlink:href="#DejaVuSans-30"/>
       <use x="63.623047" xlink:href="#DejaVuSans-2e"/>
       <use x="95.410156" xlink:href="#DejaVuSans-36"/>
      </g>
     </g>
    </g>
    <g id="ytick_5">
     <g id="line2d_13">
      <g>
       <use style="stroke:#000000;stroke-width:0.8;" x="43.78125" xlink:href="#m418469e763" y="56.87764"/>
      </g>
     </g>
     <g id="text_14">
      <!-- 0.8 -->
      <g transform="translate(20.878125 60.676858)scale(0.1 -0.1)">
       <defs>
        <path d="M 2034 2216 
Q 1584 2216 1326 1975 
Q 1069 1734 1069 1313 
Q 1069 891 1326 650 
Q 1584 409 2034 409 
Q 2484 409 2743 651 
Q 3003 894 3003 1313 
Q 3003 1734 2745 1975 
Q 2488 2216 2034 2216 
z
M 1403 2484 
Q 997 2584 770 2862 
Q 544 3141 544 3541 
Q 544 4100 942 4425 
Q 1341 4750 2034 4750 
Q 2731 4750 3128 4425 
Q 3525 4100 3525 3541 
Q 3525 3141 3298 2862 
Q 3072 2584 2669 2484 
Q 3125 2378 3379 2068 
Q 3634 1759 3634 1313 
Q 3634 634 3220 271 
Q 2806 -91 2034 -91 
Q 1263 -91 848 271 
Q 434 634 434 1313 
Q 434 1759 690 2068 
Q 947 2378 1403 2484 
z
M 1172 3481 
Q 1172 3119 1398 2916 
Q 1625 2713 2034 2713 
Q 2441 2713 2670 2916 
Q 2900 3119 2900 3481 
Q 2900 3844 2670 4047 
Q 2441 4250 2034 4250 
Q 1625 4250 1398 4047 
Q 1172 3844 1172 3481 
z
" id="DejaVuSans-38" transform="scale(0.015625)"/>
       </defs>
       <use xlink:href="#DejaVuSans-30"/>
       <use x="63.623047" xlink:href="#DejaVuSans-2e"/>
       <use x="95.410156" xlink:href="#DejaVuSans-38"/>
      </g>
     </g>
    </g>
    <g id="ytick_6">
     <g id="line2d_14">
      <g>
       <use style="stroke:#000000;stroke-width:0.8;" x="43.78125" xlink:href="#m418469e763" y="13.85705"/>
      </g>
     </g>
     <g id="text_15">
      <!-- 1.0 -->
      <g transform="translate(20.878125 17.656268)scale(0.1 -0.1)">
       <use xlink:href="#DejaVuSans-31"/>
       <use x="63.623047" xlink:href="#DejaVuSans-2e"/>
       <use x="95.410156" xlink:href="#DejaVuSans-30"/>
      </g>
     </g>
    </g>
    <g id="text_16">
     <!-- Frequency (7 day rolling average) -->
     <g transform="translate(14.798437 202.529219)rotate(-90)scale(0.1 -0.1)">
      <defs>
       <path d="M 628 4666 
L 3309 4666 
L 3309 4134 
L 1259 4134 
L 1259 2759 
L 3109 2759 
L 3109 2228 
L 1259 2228 
L 1259 0 
L 628 0 
L 628 4666 
z
" id="DejaVuSans-46" transform="scale(0.015625)"/>
       <path d="M 2631 2963 
Q 2534 3019 2420 3045 
Q 2306 3072 2169 3072 
Q 1681 3072 1420 2755 
Q 1159 2438 1159 1844 
L 1159 0 
L 581 0 
L 581 3500 
L 1159 3500 
L 1159 2956 
Q 1341 3275 1631 3429 
Q 1922 3584 2338 3584 
Q 2397 3584 2469 3576 
Q 2541 3569 2628 3553 
L 2631 2963 
z
" id="DejaVuSans-72" transform="scale(0.015625)"/>
       <path d="M 947 1747 
Q 947 1113 1208 752 
Q 1469 391 1925 391 
Q 2381 391 2643 752 
Q 2906 1113 2906 1747 
Q 2906 2381 2643 2742 
Q 2381 3103 1925 3103 
Q 1469 3103 1208 2742 
Q 947 2381 947 1747 
z
M 2906 525 
Q 2725 213 2448 61 
Q 2172 -91 1784 -91 
Q 1150 -91 751 415 
Q 353 922 353 1747 
Q 353 2572 751 3078 
Q 1150 3584 1784 3584 
Q 2172 3584 2448 3432 
Q 2725 3281 2906 2969 
L 2906 3500 
L 3481 3500 
L 3481 -1331 
L 2906 -1331 
L 2906 525 
z
" id="DejaVuSans-71" transform="scale(0.015625)"/>
       <path d="M 544 1381 
L 544 3500 
L 1119 3500 
L 1119 1403 
Q 1119 906 1312 657 
Q 1506 409 1894 409 
Q 2359 409 2629 706 
Q 2900 1003 2900 1516 
L 2900 3500 
L 3475 3500 
L 3475 0 
L 2900 0 
L 2900 538 
Q 2691 219 2414 64 
Q 2138 -91 1772 -91 
Q 1169 -91 856 284 
Q 544 659 544 1381 
z
M 1991 3584 
L 1991 3584 
z
" id="DejaVuSans-75" transform="scale(0.015625)"/>
       <path d="M 3513 2113 
L 3513 0 
L 2938 0 
L 2938 2094 
Q 2938 2591 2744 2837 
Q 2550 3084 2163 3084 
Q 1697 3084 1428 2787 
Q 1159 2491 1159 1978 
L 1159 0 
L 581 0 
L 581 3500 
L 1159 3500 
L 1159 2956 
Q 1366 3272 1645 3428 
Q 1925 3584 2291 3584 
Q 2894 3584 3203 3211 
Q 3513 2838 3513 2113 
z
" id="DejaVuSans-6e" transform="scale(0.015625)"/>
       <path d="M 3122 3366 
L 3122 2828 
Q 2878 2963 2633 3030 
Q 2388 3097 2138 3097 
Q 1578 3097 1268 2742 
Q 959 2388 959 1747 
Q 959 1106 1268 751 
Q 1578 397 2138 397 
Q 2388 397 2633 464 
Q 2878 531 3122 666 
L 3122 134 
Q 2881 22 2623 -34 
Q 2366 -91 2075 -91 
Q 1284 -91 818 406 
Q 353 903 353 1747 
Q 353 2603 823 3093 
Q 1294 3584 2113 3584 
Q 2378 3584 2631 3529 
Q 2884 3475 3122 3366 
z
" id="DejaVuSans-63" transform="scale(0.015625)"/>
       <path d="M 2059 -325 
Q 1816 -950 1584 -1140 
Q 1353 -1331 966 -1331 
L 506 -1331 
L 506 -850 
L 844 -850 
Q 1081 -850 1212 -737 
Q 1344 -625 1503 -206 
L 1606 56 
L 191 3500 
L 800 3500 
L 1894 763 
L 2988 3500 
L 3597 3500 
L 2059 -325 
z
" id="DejaVuSans-79" transform="scale(0.015625)"/>
       <path id="DejaVuSans-20" transform="scale(0.015625)"/>
       <path d="M 1984 4856 
Q 1566 4138 1362 3434 
Q 1159 2731 1159 2009 
Q 1159 1288 1364 580 
Q 1569 -128 1984 -844 
L 1484 -844 
Q 1016 -109 783 600 
Q 550 1309 550 2009 
Q 550 2706 781 3412 
Q 1013 4119 1484 4856 
L 1984 4856 
z
" id="DejaVuSans-28" transform="scale(0.015625)"/>
       <path d="M 2906 2969 
L 2906 4863 
L 3481 4863 
L 3481 0 
L 2906 0 
L 2906 525 
Q 2725 213 2448 61 
Q 2172 -91 1784 -91 
Q 1150 -91 751 415 
Q 353 922 353 1747 
Q 353 2572 751 3078 
Q 1150 3584 1784 3584 
Q 2172 3584 2448 3432 
Q 2725 3281 2906 2969 
z
M 947 1747 
Q 947 1113 1208 752 
Q 1469 391 1925 391 
Q 2381 391 2643 752 
Q 2906 1113 2906 1747 
Q 2906 2381 2643 2742 
Q 2381 3103 1925 3103 
Q 1469 3103 1208 2742 
Q 947 2381 947 1747 
z
" id="DejaVuSans-64" transform="scale(0.015625)"/>
       <path d="M 1959 3097 
Q 1497 3097 1228 2736 
Q 959 2375 959 1747 
Q 959 1119 1226 758 
Q 1494 397 1959 397 
Q 2419 397 2687 759 
Q 2956 1122 2956 1747 
Q 2956 2369 2687 2733 
Q 2419 3097 1959 3097 
z
M 1959 3584 
Q 2709 3584 3137 3096 
Q 3566 2609 3566 1747 
Q 3566 888 3137 398 
Q 2709 -91 1959 -91 
Q 1206 -91 779 398 
Q 353 888 353 1747 
Q 353 2609 779 3096 
Q 1206 3584 1959 3584 
z
" id="DejaVuSans-6f" transform="scale(0.015625)"/>
       <path d="M 603 4863 
L 1178 4863 
L 1178 0 
L 603 0 
L 603 4863 
z
" id="DejaVuSans-6c" transform="scale(0.015625)"/>
       <path d="M 603 3500 
L 1178 3500 
L 1178 0 
L 603 0 
L 603 3500 
z
M 603 4863 
L 1178 4863 
L 1178 4134 
L 603 4134 
L 603 4863 
z
" id="DejaVuSans-69" transform="scale(0.015625)"/>
       <path d="M 2906 1791 
Q 2906 2416 2648 2759 
Q 2391 3103 1925 3103 
Q 1463 3103 1205 2759 
Q 947 2416 947 1791 
Q 947 1169 1205 825 
Q 1463 481 1925 481 
Q 2391 481 2648 825 
Q 2906 1169 2906 1791 
z
M 3481 434 
Q 3481 -459 3084 -895 
Q 2688 -1331 1869 -1331 
Q 1566 -1331 1297 -1286 
Q 1028 -1241 775 -1147 
L 775 -588 
Q 1028 -725 1275 -790 
Q 1522 -856 1778 -856 
Q 2344 -856 2625 -561 
Q 2906 -266 2906 331 
L 2906 616 
Q 2728 306 2450 153 
Q 2172 0 1784 0 
Q 1141 0 747 490 
Q 353 981 353 1791 
Q 353 2603 747 3093 
Q 1141 3584 1784 3584 
Q 2172 3584 2450 3431 
Q 2728 3278 2906 2969 
L 2906 3500 
L 3481 3500 
L 3481 434 
z
" id="DejaVuSans-67" transform="scale(0.015625)"/>
       <path d="M 191 3500 
L 800 3500 
L 1894 563 
L 2988 3500 
L 3597 3500 
L 2284 0 
L 1503 0 
L 191 3500 
z
" id="DejaVuSans-76" transform="scale(0.015625)"/>
       <path d="M 513 4856 
L 1013 4856 
Q 1481 4119 1714 3412 
Q 1947 2706 1947 2009 
Q 1947 1309 1714 600 
Q 1481 -109 1013 -844 
L 513 -844 
Q 928 -128 1133 580 
Q 1338 1288 1338 2009 
Q 1338 2731 1133 3434 
Q 928 4138 513 4856 
z
" id="DejaVuSans-29" transform="scale(0.015625)"/>
      </defs>
      <use xlink:href="#DejaVuSans-46"/>
      <use x="50.269531" xlink:href="#DejaVuSans-72"/>
      <use x="89.132812" xlink:href="#DejaVuSans-65"/>
      <use x="150.65625" xlink:href="#DejaVuSans-71"/>
      <use x="214.132812" xlink:href="#DejaVuSans-75"/>
      <use x="277.511719" xlink:href="#DejaVuSans-65"/>
      <use x="339.035156" xlink:href="#DejaVuSans-6e"/>
      <use x="402.414062" xlink:href="#DejaVuSans-63"/>
      <use x="457.394531" xlink:href="#DejaVuSans-79"/>
      <use x="516.574219" xlink:href="#DejaVuSans-20"/>
      <use x="548.361328" xlink:href="#DejaVuSans-28"/>
      <use x="587.375" xlink:href="#DejaVuSans-37"/>
      <use x="650.998047" xlink:href="#DejaVuSans-20"/>
      <use x="682.785156" xlink:href="#DejaVuSans-64"/>
      <use x="746.261719" xlink:href="#DejaVuSans-61"/>
      <use x="807.541016" xlink:href="#DejaVuSans-79"/>
      <use x="866.720703" xlink:href="#DejaVuSans-20"/>
      <use x="898.507812" xlink:href="#DejaVuSans-72"/>
      <use x="937.371094" xlink:href="#DejaVuSans-6f"/>
      <use x="998.552734" xlink:href="#DejaVuSans-6c"/>
      <use x="1026.335938" xlink:href="#DejaVuSans-6c"/>
      <use x="1054.119141" xlink:href="#DejaVuSans-69"/>
      <use x="1081.902344" xlink:href="#DejaVuSans-6e"/>
      <use x="1145.28125" xlink:href="#DejaVuSans-67"/>
      <use x="1208.757812" xlink:href="#DejaVuSans-20"/>
      <use x="1240.544922" xlink:href="#DejaVuSans-61"/>
      <use x="1301.824219" xlink:href="#DejaVuSans-76"/>
      <use x="1361.003906" xlink:href="#DejaVuSans-65"/>
      <use x="1422.527344" xlink:href="#DejaVuSans-72"/>
      <use x="1463.640625" xlink:href="#DejaVuSans-61"/>
      <use x="1524.919922" xlink:href="#DejaVuSans-67"/>
      <use x="1588.396484" xlink:href="#DejaVuSans-65"/>
      <use x="1649.919922" xlink:href="#DejaVuSans-29"/>
     </g>
    </g>
   </g>
   <g id="line2d_15">
    <path clip-path="url(#p3b7c5cd2ca)" d="M 162.795236 185.93941 
L 174.989292 185.93941 
L 177.428103 228.96 
L 214.010271 228.96 
L 216.449082 228.116459 
L 226.204327 228.116459 
L 228.643138 228.96 
L 257.908872 228.96 
L 260.347684 222.341448 
L 262.786495 222.341448 
L 265.225306 219.951415 
L 270.102928 219.951415 
L 272.54174 226.569967 
L 274.980551 222.659004 
L 277.419362 225.049037 
L 282.296984 225.049037 
L 284.735795 224.42555 
L 287.174607 228.336513 
L 289.613418 228.336513 
L 292.052229 226.031839 
L 294.49104 225.314829 
L 296.929851 225.938316 
L 299.368663 225.938316 
L 301.807474 225.747959 
L 304.246285 228.052634 
L 306.685096 228.769643 
L 309.123907 228.576726 
L 314.00153 228.5294 
L 316.440341 228.351629 
L 318.879152 228.018136 
L 321.317963 228.211053 
L 323.756774 227.914359 
L 326.195586 228.152042 
L 328.634397 228.123973 
L 333.512019 227.802572 
L 335.95083 227.834524 
L 340.828453 227.154515 
L 343.267264 227.361092 
L 345.706075 226.572492 
L 348.144886 224.986886 
L 350.583698 224.23826 
L 353.022509 223.253227 
L 355.46132 222.475841 
L 357.900131 217.176424 
L 360.338942 216.727962 
L 362.777753 213.842853 
L 367.655376 209.681115 
L 370.094187 213.623263 
L 372.532998 214.618419 
L 374.971809 215.447944 
L 377.410621 215.072693 
L 379.849432 211.01634 
L 382.288243 202.936834 
L 384.727054 196.321863 
L 387.165865 193.107907 
L 392.043488 195.77792 
L 394.482299 203.41095 
L 396.92111 209.808646 
L 399.359921 212.825927 
L 401.798733 207.425775 
L 404.237544 208.838861 
L 406.676355 208.628039 
L 409.115166 205.996402 
L 411.553977 205.989862 
L 413.992788 209.769411 
L 416.4316 208.065314 
L 418.870411 207.128199 
L 421.309222 204.472793 
L 423.748033 200.96125 
L 426.186844 194.562461 
L 431.064467 195.60578 
L 433.503278 197.837093 
L 435.942089 200.6018 
L 438.3809 196.135957 
L 440.819712 189.619749 
L 443.258523 179.162906 
L 445.697334 172.868271 
L 448.136145 170.504611 
L 450.574956 166.314777 
L 453.013767 167.666008 
L 455.452579 160.111849 
L 457.89139 162.882574 
L 460.330201 161.290256 
L 462.769012 174.790265 
L 465.207823 175.316002 
L 467.646635 173.148297 
L 470.085446 171.901613 
L 472.524257 170.245757 
L 474.963068 165.55147 
L 477.401879 164.832898 
L 479.840691 178.051532 
L 482.279502 179.916944 
L 484.718313 174.916183 
L 487.157124 177.271662 
L 489.595935 177.806336 
L 492.034747 181.04611 
L 494.473558 179.170689 
L 496.912369 186.87612 
L 499.35118 180.472648 
L 501.789991 171.668936 
L 506.667614 155.339966 
L 509.106425 150.158352 
L 511.545236 152.29055 
L 513.984047 167.364289 
L 516.422858 167.288991 
L 518.86167 155.692324 
L 521.300481 153.192335 
L 523.739292 144.263533 
L 526.178103 133.433853 
L 528.616914 135.507567 
L 531.055726 152.413822 
L 533.494537 154.571888 
L 535.933348 156.129834 
L 538.372159 162.13828 
L 540.81097 165.510431 
L 543.249781 165.136304 
L 545.688593 167.796379 
L 548.127404 173.790011 
L 550.566215 172.944759 
L 553.005026 161.342236 
L 555.443837 160.744126 
L 557.882649 152.17032 
L 560.32146 150.364858 
L 562.760271 146.387435 
L 565.199082 153.921497 
L 567.637893 153.150669 
L 570.076705 148.561291 
L 572.515516 150.859863 
L 574.954327 151.789062 
L 577.393138 148.181947 
L 579.831949 145.202373 
L 582.27076 151.434942 
L 584.709572 143.51413 
L 587.148383 138.56631 
L 589.587194 140.723767 
L 592.026005 147.554696 
L 594.464816 151.588671 
L 596.903628 153.942911 
L 599.342439 152.216293 
L 601.78125 152.096474 
L 604.220061 132.66088 
L 606.658872 129.177006 
L 609.097684 134.001746 
L 611.536495 136.322011 
L 613.975306 134.826811 
L 616.414117 149.704494 
L 618.852928 152.936633 
L 621.29174 150.986222 
L 623.730551 150.002328 
L 626.169362 149.445748 
L 628.608173 148.732584 
L 631.046984 144.959315 
L 633.485795 141.980763 
L 635.924607 144.274374 
L 638.363418 145.291665 
L 640.802229 139.53703 
L 643.24104 134.519866 
L 645.679851 132.066271 
L 648.118663 124.251028 
L 650.557474 117.294295 
L 652.996285 115.647392 
L 655.435096 113.438811 
L 657.873907 109.219946 
L 660.312719 107.130552 
L 662.75153 106.473172 
L 665.190341 112.210764 
L 667.629152 110.648668 
L 670.067963 108.126933 
L 672.506774 112.558118 
L 674.945586 112.348022 
L 677.384397 107.618351 
L 679.823208 115.686312 
L 682.262019 116.013769 
L 684.70083 112.757708 
L 687.139642 111.963806 
L 689.578453 110.818081 
L 692.017264 101.582455 
L 694.456075 103.069024 
L 696.894886 100.718233 
L 699.333698 97.337613 
L 701.772509 93.071095 
L 704.21132 96.015174 
L 706.650131 101.333675 
L 709.088942 101.571528 
L 711.527753 107.105067 
L 713.966565 113.237088 
L 716.405376 113.585943 
L 718.844187 110.111743 
L 721.282998 114.617743 
L 723.721809 119.729492 
L 726.160621 116.994619 
L 728.599432 121.481427 
L 731.038243 122.802698 
L 733.477054 122.041387 
L 735.915865 117.604322 
L 738.354677 121.938912 
L 740.793488 124.086839 
L 743.232299 127.77976 
L 745.67111 132.724667 
L 748.109921 136.20698 
L 750.548733 139.220298 
L 752.987544 133.4789 
L 755.426355 136.331215 
L 757.865166 140.037504 
L 760.303977 134.396203 
L 762.742788 130.823097 
L 765.1816 130.762895 
L 770.059222 113.886662 
L 772.498033 121.069345 
L 774.936844 131.137002 
L 777.375656 132.137316 
L 779.814467 140.433032 
L 782.253278 151.500863 
L 784.692089 152.25143 
L 787.1309 144.883819 
L 789.569712 148.797361 
L 792.008523 154.28515 
L 794.447334 150.340107 
L 796.886145 152.066151 
L 799.324956 154.850551 
L 801.763767 155.631108 
L 804.202579 152.481282 
L 806.64139 151.5465 
L 809.080201 160.354155 
L 811.519012 162.740603 
L 813.957823 166.177113 
L 816.396635 172.726988 
L 818.835446 175.754409 
L 821.274257 168.939998 
L 823.713068 166.809549 
L 826.151879 174.301329 
L 828.590691 167.114369 
L 831.029502 164.707474 
L 833.468313 171.312523 
L 835.907124 174.76729 
L 838.345935 170.421141 
L 840.784747 172.11584 
L 843.223558 176.025065 
L 845.662369 168.990595 
L 848.10118 163.985408 
L 850.539991 162.916563 
L 852.978802 168.711493 
L 855.417614 168.411337 
L 857.856425 169.803809 
L 860.295236 179.294321 
L 862.734047 179.073635 
L 865.172858 177.090201 
L 867.61167 180.072746 
L 870.050481 187.374563 
L 872.489292 187.006072 
L 874.928103 190.261936 
L 877.366914 195.546949 
L 879.805726 198.420477 
L 882.244537 194.241377 
L 884.683348 196.081217 
L 887.122159 198.607763 
L 889.56097 197.395329 
L 891.999781 197.819043 
L 894.438593 203.572061 
L 896.877404 204.920239 
L 899.316215 207.299492 
L 901.755026 210.885148 
L 904.193837 215.777157 
L 906.632649 217.26662 
L 909.07146 219.755984 
L 911.510271 211.07318 
L 913.949082 210.817691 
L 916.387893 209.233977 
L 918.826705 208.495898 
L 921.265516 206.675787 
L 923.704327 214.162356 
L 926.143138 215.724708 
L 928.581949 217.947421 
L 931.02076 219.397624 
L 933.459572 221.628468 
L 935.898383 225.913365 
L 938.337194 226.390169 
L 940.776005 226.275367 
L 943.214816 226.434569 
L 945.653628 226.347861 
L 948.092439 225.645007 
L 950.53125 225.128536 
L 957.847684 225.168038 
L 960.286495 225.58338 
L 962.725306 225.549129 
L 972.480551 226.3555 
L 974.919362 226.803575 
L 987.113418 227.785851 
L 991.99104 227.633623 
L 994.429851 227.362902 
L 999.307474 227.411682 
L 1004.185096 226.764784 
L 1006.623907 226.702772 
L 1009.062719 226.874612 
L 1011.50153 226.930525 
L 1021.256774 227.603739 
L 1023.695586 227.171042 
L 1026.134397 227.302449 
L 1028.573208 227.278848 
L 1033.45083 227.013282 
L 1035.889642 227.416235 
L 1038.328453 227.649409 
L 1040.767264 228.111996 
L 1043.206075 228.327326 
L 1045.644886 228.375294 
L 1050.522509 227.614033 
L 1052.96132 226.464628 
L 1057.838942 226.005005 
L 1060.277753 226.115017 
L 1062.716565 225.936527 
L 1065.155376 226.19891 
L 1067.594187 226.300572 
L 1070.032998 226.55673 
L 1072.471809 226.64271 
L 1077.349432 227.282842 
L 1079.788243 227.270259 
L 1082.227054 226.045582 
L 1084.665865 226.041559 
L 1087.104677 225.729365 
L 1089.543488 226.339586 
L 1091.982299 226.686526 
L 1094.42111 227.621672 
L 1096.859921 227.995764 
L 1099.298733 227.972484 
L 1099.298733 227.972484 
" style="fill:none;stroke:#947383;stroke-linecap:square;stroke-width:2;"/>
   </g>
   <g id="line2d_16">
    <path clip-path="url(#p3b7c5cd2ca)" d="M 148.162369 228.02477 
L 150.60118 228.96 
L 209.132649 228.96 
L 211.57146 228.714168 
L 218.887893 228.714168 
L 221.326705 228.589831 
L 223.765516 228.835663 
L 231.081949 228.835663 
L 233.52076 228.96 
L 240.837194 228.870417 
L 243.276005 228.870417 
L 245.714816 228.725323 
L 250.592439 228.782991 
L 255.470061 228.774472 
L 257.908872 228.919567 
L 274.980551 228.869708 
L 279.858173 228.766542 
L 284.735795 228.710908 
L 292.052229 228.810241 
L 299.368663 228.96 
L 306.685096 228.877906 
L 331.073208 228.814915 
L 345.706075 228.426544 
L 350.583698 228.253867 
L 353.022509 228.403391 
L 357.900131 228.372021 
L 360.338942 228.596965 
L 362.777753 228.227202 
L 370.094187 227.662952 
L 374.971809 226.850527 
L 382.288243 226.429021 
L 384.727054 226.57537 
L 387.165865 226.909753 
L 392.043488 226.599271 
L 394.482299 226.720561 
L 396.92111 226.542862 
L 399.359921 226.514064 
L 401.798733 226.291839 
L 406.676355 226.451931 
L 409.115166 226.191638 
L 411.553977 226.319703 
L 418.870411 225.505495 
L 421.309222 225.654564 
L 423.748033 224.790521 
L 426.186844 224.594437 
L 428.625656 224.263659 
L 431.064467 223.322102 
L 433.503278 222.787002 
L 435.942089 222.778506 
L 438.3809 222.302353 
L 440.819712 221.531743 
L 443.258523 221.543833 
L 445.697334 220.730243 
L 448.136145 220.331239 
L 450.574956 220.310574 
L 453.013767 219.768956 
L 455.452579 219.646306 
L 457.89139 219.286948 
L 460.330201 218.226459 
L 462.769012 217.328883 
L 465.207823 217.329615 
L 467.646635 215.861691 
L 472.524257 214.78018 
L 474.963068 213.686107 
L 477.401879 212.843067 
L 479.840691 211.795334 
L 482.279502 209.940195 
L 484.718313 208.228669 
L 487.157124 207.187395 
L 489.595935 204.951279 
L 492.034747 204.734997 
L 494.473558 204.819423 
L 496.912369 203.739305 
L 499.35118 203.185869 
L 504.228802 199.086351 
L 506.667614 195.356031 
L 509.106425 193.679595 
L 511.545236 190.537083 
L 513.984047 188.703436 
L 516.422858 185.153547 
L 518.86167 183.186462 
L 521.300481 181.972648 
L 526.178103 182.090691 
L 528.616914 182.411605 
L 531.055726 181.209365 
L 533.494537 179.067817 
L 535.933348 173.979574 
L 538.372159 170.387241 
L 540.81097 167.859362 
L 543.249781 166.162567 
L 545.688593 163.62067 
L 548.127404 163.179778 
L 550.566215 161.399062 
L 553.005026 157.125287 
L 555.443837 155.000955 
L 562.760271 146.296641 
L 565.199082 145.29627 
L 567.637893 143.155907 
L 572.515516 139.613904 
L 574.954327 136.785833 
L 577.393138 134.337093 
L 579.831949 133.044688 
L 582.27076 132.265086 
L 587.148383 129.110563 
L 589.587194 129.285925 
L 592.026005 126.307947 
L 596.903628 121.11252 
L 599.342439 122.068269 
L 601.78125 120.393154 
L 604.220061 119.437958 
L 606.658872 118.304772 
L 609.097684 116.829672 
L 611.536495 114.699637 
L 613.975306 112.262944 
L 616.414117 110.900248 
L 618.852928 109.75994 
L 621.29174 109.158562 
L 623.730551 108.18937 
L 626.169362 107.554182 
L 628.608173 107.490422 
L 631.046984 106.422395 
L 633.485795 106.121931 
L 635.924607 107.026148 
L 638.363418 106.929991 
L 640.802229 106.018462 
L 643.24104 104.965027 
L 645.679851 104.315971 
L 648.118663 102.225164 
L 650.557474 101.492091 
L 652.996285 101.400641 
L 655.435096 100.431835 
L 660.312719 99.745811 
L 662.75153 98.871632 
L 665.190341 98.336 
L 667.629152 99.264778 
L 670.067963 99.376141 
L 672.506774 98.269361 
L 674.945586 98.093298 
L 677.384397 97.475564 
L 679.823208 97.493899 
L 682.262019 96.791618 
L 684.70083 96.87089 
L 687.139642 96.800754 
L 689.578453 96.280195 
L 692.017264 96.047822 
L 694.456075 95.485508 
L 696.894886 96.324068 
L 699.333698 96.81412 
L 701.772509 97.734548 
L 704.21132 98.794625 
L 706.650131 100.137786 
L 711.527753 101.251205 
L 716.405376 101.196958 
L 718.844187 103.207375 
L 721.282998 104.563769 
L 723.721809 106.472816 
L 726.160621 107.639513 
L 728.599432 107.313672 
L 731.038243 106.715467 
L 733.477054 107.785875 
L 735.915865 109.032609 
L 738.354677 110.487258 
L 743.232299 118.801429 
L 745.67111 120.740195 
L 748.109921 123.09951 
L 750.548733 127.056322 
L 752.987544 129.068205 
L 755.426355 129.390836 
L 757.865166 130.984089 
L 760.303977 132.030234 
L 762.742788 133.372099 
L 765.1816 135.088087 
L 767.620411 135.255719 
L 770.059222 136.177879 
L 772.498033 137.82027 
L 777.375656 141.756173 
L 779.814467 144.863786 
L 782.253278 148.391774 
L 784.692089 150.900227 
L 787.1309 151.689718 
L 789.569712 155.030045 
L 792.008523 158.761656 
L 794.447334 161.885444 
L 799.324956 167.63186 
L 801.763767 171.305142 
L 804.202579 175.213834 
L 806.64139 179.395003 
L 809.080201 183.012031 
L 811.519012 188.286076 
L 816.396635 193.745087 
L 818.835446 195.738207 
L 821.274257 197.995401 
L 823.713068 201.078065 
L 826.151879 202.188367 
L 828.590691 203.631083 
L 833.468313 208.970392 
L 835.907124 209.942065 
L 840.784747 213.896067 
L 843.223558 214.490225 
L 845.662369 215.21072 
L 848.10118 216.294539 
L 850.539991 217.612592 
L 855.417614 219.353208 
L 857.856425 220.712883 
L 860.295236 221.554913 
L 862.734047 222.037301 
L 865.172858 222.73196 
L 867.61167 223.576685 
L 872.489292 224.443765 
L 874.928103 225.11059 
L 877.366914 225.585058 
L 879.805726 225.72824 
L 882.244537 226.049595 
L 884.683348 226.250183 
L 889.56097 226.323726 
L 891.999781 226.641163 
L 906.632649 227.666174 
L 911.510271 227.777066 
L 921.265516 228.129201 
L 923.704327 228.187219 
L 928.581949 228.149002 
L 933.459572 228.253523 
L 935.898383 228.273318 
L 938.337194 228.442082 
L 960.286495 228.766482 
L 979.796984 228.772067 
L 987.113418 228.782879 
L 1001.746285 228.911617 
L 1028.573208 228.943989 
L 1089.543488 228.947108 
L 1089.543488 228.947108 
" style="fill:none;stroke:#96c6ad;stroke-linecap:square;stroke-width:2;"/>
   </g>
   <g id="line2d_17">
    <path clip-path="url(#p3b7c5cd2ca)" d="M 94.508523 227.781354 
L 96.947334 228.96 
L 143.284747 228.96 
L 145.723558 226.80897 
L 155.478802 226.80897 
L 157.917614 228.96 
L 167.672858 228.96 
L 170.11167 227.73084 
L 172.550481 226.852869 
L 179.866914 226.852869 
L 182.305726 228.082029 
L 184.744537 228.277133 
L 201.816215 228.24299 
L 204.255026 227.97242 
L 214.010271 227.921205 
L 218.887893 227.842014 
L 221.326705 228.610239 
L 226.204327 228.610239 
L 228.643138 228.96 
L 231.081949 228.96 
L 233.52076 228.667343 
L 235.959572 228.524891 
L 238.398383 228.524891 
L 240.837194 226.373861 
L 243.276005 226.373861 
L 245.714816 219.49642 
L 248.153628 219.231094 
L 250.592439 219.231094 
L 253.03125 221.382124 
L 255.470061 221.097847 
L 257.908872 227.958444 
L 260.347684 228.366222 
L 267.664117 228.417529 
L 270.102928 228.72703 
L 272.54174 228.178997 
L 277.419362 228.220764 
L 279.858173 228.411967 
L 282.296984 228.34118 
L 284.735795 228.473555 
L 287.174607 228.095075 
L 292.052229 228.095075 
L 294.49104 227.959032 
L 299.368663 228.276451 
L 301.807474 228.178898 
L 304.246285 227.940337 
L 306.685096 228.147167 
L 309.123907 228.239385 
L 311.562719 228.195985 
L 316.440341 228.351302 
L 321.317963 228.243148 
L 323.756774 227.511128 
L 326.195586 227.275184 
L 328.634397 226.748793 
L 331.073208 225.766098 
L 333.512019 225.605389 
L 335.95083 225.732609 
L 338.389642 225.252538 
L 340.828453 225.169874 
L 343.267264 224.940633 
L 345.706075 223.684908 
L 348.144886 221.34168 
L 350.583698 220.66163 
L 353.022509 217.716728 
L 355.46132 216.111981 
L 357.900131 215.07148 
L 360.338942 215.997896 
L 362.777753 213.708771 
L 365.216565 214.570013 
L 367.655376 215.688779 
L 370.094187 212.608837 
L 372.532998 209.244008 
L 374.971809 206.77293 
L 377.410621 205.236382 
L 379.849432 201.960956 
L 382.288243 201.033076 
L 384.727054 204.035199 
L 387.165865 203.12892 
L 389.604677 200.320761 
L 392.043488 195.202703 
L 394.482299 193.333994 
L 396.92111 188.767869 
L 399.359921 184.881884 
L 401.798733 187.719725 
L 404.237544 190.340759 
L 406.676355 190.025851 
L 409.115166 189.068213 
L 411.553977 190.734185 
L 413.992788 184.621737 
L 416.4316 181.838395 
L 418.870411 184.18576 
L 421.309222 181.87839 
L 423.748033 181.19089 
L 426.186844 181.989615 
L 428.625656 180.926875 
L 431.064467 175.497737 
L 433.503278 173.310424 
L 435.942089 173.890164 
L 438.3809 172.186477 
L 440.819712 171.594941 
L 443.258523 171.898805 
L 445.697334 171.369373 
L 448.136145 166.212042 
L 450.574956 161.554032 
L 453.013767 159.857554 
L 455.452579 155.00499 
L 457.89139 149.095798 
L 460.330201 146.400841 
L 462.769012 144.351646 
L 465.207823 140.031068 
L 467.646635 134.028658 
L 470.085446 132.382388 
L 472.524257 129.628016 
L 474.963068 128.920454 
L 477.401879 125.638191 
L 479.840691 126.257881 
L 482.279502 125.55855 
L 484.718313 124.002212 
L 487.157124 117.864039 
L 489.595935 117.499632 
L 492.034747 116.49863 
L 494.473558 114.021337 
L 496.912369 112.893483 
L 499.35118 116.16365 
L 504.228802 107.013625 
L 506.667614 105.289082 
L 509.106425 100.248551 
L 511.545236 96.116758 
L 513.984047 94.406293 
L 516.422858 95.302358 
L 518.86167 90.32701 
L 521.300481 86.46099 
L 523.739292 83.406811 
L 526.178103 80.055619 
L 528.616914 75.978 
L 531.055726 76.175555 
L 533.494537 74.684089 
L 538.372159 67.183164 
L 540.81097 64.908998 
L 543.249781 61.016152 
L 548.127404 58.384185 
L 550.566215 59.101411 
L 553.005026 58.70604 
L 555.443837 57.73397 
L 557.882649 59.276764 
L 560.32146 58.49202 
L 562.760271 58.458738 
L 565.199082 57.391854 
L 567.637893 58.287337 
L 570.076705 56.380783 
L 572.515516 53.376499 
L 574.954327 51.464007 
L 577.393138 50.322095 
L 582.27076 45.344439 
L 584.709572 46.640729 
L 587.148383 46.849817 
L 589.587194 44.934285 
L 592.026005 45.834698 
L 594.464816 46.429328 
L 596.903628 46.013544 
L 599.342439 45.391622 
L 601.78125 47.219486 
L 604.220061 47.35707 
L 606.658872 45.211875 
L 609.097684 44.96009 
L 611.536495 44.219414 
L 613.975306 41.623505 
L 616.414117 39.746284 
L 618.852928 40.779444 
L 621.29174 40.414922 
L 623.730551 38.969142 
L 626.169362 39.411621 
L 628.608173 39.3852 
L 631.046984 38.916379 
L 633.485795 37.773585 
L 635.924607 38.250262 
L 638.363418 37.252799 
L 640.802229 35.868241 
L 643.24104 37.087803 
L 645.679851 37.45734 
L 648.118663 37.253479 
L 652.996285 39.147609 
L 655.435096 39.578119 
L 657.873907 38.77768 
L 660.312719 39.180272 
L 662.75153 39.723943 
L 665.190341 39.348117 
L 667.629152 36.831783 
L 672.506774 38.447019 
L 674.945586 36.310967 
L 677.384397 36.756935 
L 679.823208 37.870458 
L 682.262019 37.824269 
L 684.70083 36.681976 
L 687.139642 38.813131 
L 689.578453 39.287374 
L 692.017264 37.858659 
L 694.456075 38.110442 
L 696.894886 39.57126 
L 699.333698 40.092759 
L 701.772509 40.438362 
L 704.21132 41.367698 
L 706.650131 42.472873 
L 709.088942 39.74705 
L 711.527753 40.600817 
L 713.966565 41.291561 
L 716.405376 43.193197 
L 718.844187 43.709508 
L 721.282998 46.273947 
L 723.721809 46.217904 
L 726.160621 43.00888 
L 728.599432 43.148725 
L 731.038243 42.802775 
L 733.477054 44.552054 
L 735.915865 45.021013 
L 738.354677 48.697871 
L 740.793488 51.866743 
L 743.232299 50.110486 
L 745.67111 50.924481 
L 748.109921 52.398131 
L 750.548733 56.238091 
L 752.987544 58.461898 
L 755.426355 63.621164 
L 757.865166 70.110853 
L 760.303977 68.637042 
L 762.742788 70.288204 
L 765.1816 72.647355 
L 767.620411 77.240896 
L 770.059222 77.478891 
L 772.498033 90.869811 
L 774.936844 99.369178 
L 777.375656 99.370539 
L 782.253278 107.535266 
L 787.1309 104.411814 
L 789.569712 111.823338 
L 792.008523 116.761767 
L 794.447334 119.335068 
L 796.886145 123.304284 
L 799.324956 128.039087 
L 801.763767 131.752739 
L 804.202579 135.8978 
L 806.64139 144.656619 
L 809.080201 150.689272 
L 811.519012 157.306142 
L 813.957823 163.528137 
L 816.396635 169.276419 
L 818.835446 171.303711 
L 823.713068 179.500221 
L 826.151879 182.885288 
L 828.590691 185.115713 
L 831.029502 189.027677 
L 833.468313 191.811307 
L 835.907124 194.388281 
L 838.345935 197.432086 
L 840.784747 201.102552 
L 843.223558 205.014625 
L 845.662369 208.611884 
L 850.539991 214.065034 
L 852.978802 215.676966 
L 855.417614 216.571402 
L 860.295236 219.60342 
L 870.050481 222.103898 
L 872.489292 222.544034 
L 877.366914 223.752467 
L 879.805726 224.03705 
L 884.683348 225.002287 
L 887.122159 225.055214 
L 889.56097 225.377647 
L 891.999781 225.431456 
L 894.438593 225.634309 
L 896.877404 225.706137 
L 899.316215 226.109579 
L 904.193837 226.671869 
L 916.387893 227.670459 
L 921.265516 227.72036 
L 933.459572 228.429956 
L 950.53125 228.554532 
L 952.970061 228.703282 
L 962.725306 228.695523 
L 974.919362 228.771798 
L 987.113418 228.89973 
L 994.429851 228.811791 
L 1018.817963 228.96 
L 1050.522509 228.902073 
L 1060.277753 228.933982 
L 1067.594187 228.819604 
L 1077.349432 228.881179 
L 1077.349432 228.881179 
" style="fill:none;stroke:#525886;stroke-linecap:square;stroke-width:2;"/>
   </g>
   <g id="line2d_18">
    <path clip-path="url(#p3b7c5cd2ca)" d="M 296.929851 207.449705 
L 299.368663 228.96 
L 321.317963 228.96 
L 323.756774 214.619803 
L 326.195586 207.449705 
L 333.512019 207.449705 
L 335.95083 221.789902 
L 338.389642 228.96 
L 345.706075 228.96 
L 348.144886 214.619803 
L 350.583698 205.059672 
L 353.022509 205.059672 
L 355.46132 201.474623 
L 357.900131 201.474623 
L 360.338942 215.81482 
L 362.777753 225.374951 
L 365.216565 219.997377 
L 367.655376 204.462164 
L 370.094187 195.243466 
L 372.532998 189.865892 
L 374.971809 189.865892 
L 377.410621 178.03523 
L 379.849432 186.400345 
L 382.288243 182.712866 
L 384.727054 176.357551 
L 387.165865 174.650385 
L 389.604677 184.282668 
L 392.043488 180.053116 
L 394.482299 180.8013 
L 396.92111 183.571565 
L 399.359921 176.178222 
L 401.798733 177.649902 
L 404.237544 187.456198 
L 406.676355 192.386731 
L 409.115166 198.244775 
L 413.992788 191.399578 
L 416.4316 196.577982 
L 418.870411 199.455045 
L 421.309222 200.672755 
L 423.748033 212.030483 
L 426.186844 221.18476 
L 428.625656 218.850309 
L 431.064467 221.513624 
L 435.942089 219.9318 
L 438.3809 215.887248 
L 440.819712 215.869011 
L 443.258523 208.035142 
L 445.697334 207.48582 
L 448.136145 206.529807 
L 450.574956 202.051411 
L 453.013767 199.365652 
L 455.452579 199.414179 
L 457.89139 195.48219 
L 460.330201 190.211198 
L 462.769012 189.874027 
L 465.207823 193.376025 
L 467.646635 197.787202 
L 470.085446 198.185541 
L 472.524257 191.521788 
L 474.963068 195.410187 
L 477.401879 191.569063 
L 479.840691 186.611816 
L 482.279502 192.334293 
L 484.718313 203.039877 
L 487.157124 194.832001 
L 489.595935 197.797206 
L 492.034747 202.952502 
L 494.473558 198.755371 
L 496.912369 191.167966 
L 499.35118 202.841389 
L 501.789991 200.725275 
L 504.228802 199.167489 
L 506.667614 203.129706 
L 509.106425 205.182835 
L 511.545236 197.941544 
L 516.422858 175.430552 
L 518.86167 152.398763 
L 521.300481 150.942457 
L 523.739292 147.337944 
L 526.178103 151.140269 
L 528.616914 154.725318 
L 531.055726 164.936192 
L 533.494537 165.780976 
L 535.933348 172.045132 
L 538.372159 174.966574 
L 540.81097 172.917975 
L 543.249781 176.681598 
L 545.688593 179.14979 
L 548.127404 169.889445 
L 550.566215 167.945744 
L 553.005026 169.994343 
L 555.443837 166.507785 
L 557.882649 165.394038 
L 560.32146 165.783561 
L 562.760271 159.457003 
L 565.199082 152.787145 
L 567.637893 152.696765 
L 570.076705 142.030503 
L 572.515516 148.790882 
L 574.954327 152.635482 
L 577.393138 162.036807 
L 579.831949 160.249303 
L 582.27076 169.237656 
L 584.709572 173.360463 
L 587.148383 170.051187 
L 589.587194 176.348733 
L 592.026005 184.884565 
L 594.464816 183.718137 
L 596.903628 168.644635 
L 599.342439 175.630885 
L 601.78125 167.905526 
L 606.658872 162.690909 
L 609.097684 168.915399 
L 611.536495 169.418564 
L 613.975306 175.789945 
L 616.414117 174.536431 
L 618.852928 185.080693 
L 621.29174 181.622494 
L 623.730551 179.788172 
L 626.169362 181.673268 
L 628.608173 184.479664 
L 631.046984 174.587229 
L 633.485795 178.722637 
L 635.924607 183.953322 
L 638.363418 184.282981 
L 640.802229 181.322152 
L 643.24104 187.754037 
L 645.679851 195.029578 
L 648.118663 194.740526 
L 650.557474 193.454853 
L 652.996285 192.809544 
L 655.435096 198.411391 
L 657.873907 197.285852 
L 660.312719 199.072226 
L 662.75153 195.329191 
L 665.190341 201.892026 
L 667.629152 197.755431 
L 670.067963 197.805455 
L 672.506774 200.75689 
L 674.945586 205.57112 
L 677.384397 204.483633 
L 679.823208 205.560281 
L 682.262019 206.120138 
L 684.70083 203.746936 
L 687.139642 202.598226 
L 689.578453 195.808361 
L 692.017264 191.918828 
L 694.456075 193.20271 
L 696.894886 192.729213 
L 699.333698 190.476446 
L 701.772509 199.093143 
L 704.21132 202.53479 
L 706.650131 207.144139 
L 709.088942 206.33243 
L 711.527753 207.422479 
L 716.405376 207.436812 
L 718.844187 195.221089 
L 721.282998 193.29862 
L 723.721809 200.274932 
L 726.160621 201.168727 
L 728.599432 203.083722 
L 731.038243 208.129346 
L 733.477054 211.112956 
L 735.915865 205.074979 
L 738.354677 207.924596 
L 740.793488 207.09792 
L 743.232299 211.399979 
L 745.67111 212.446303 
L 748.109921 211.314183 
L 750.548733 208.438413 
L 752.987544 208.940052 
L 755.426355 209.032569 
L 757.865166 211.28321 
L 760.303977 213.979167 
L 762.742788 215.374565 
L 765.1816 217.132061 
L 767.620411 217.906626 
L 770.059222 214.321576 
L 772.498033 215.82878 
L 774.936844 214.324927 
L 777.375656 213.583148 
L 779.814467 212.492805 
L 782.253278 210.498593 
L 784.692089 210.823916 
L 787.1309 212.664369 
L 789.569712 213.268166 
L 792.008523 212.498644 
L 794.447334 217.617838 
L 796.886145 219.888586 
L 799.324956 220.870751 
L 801.763767 222.014553 
L 804.202579 224.790822 
L 806.64139 222.626121 
L 809.080201 222.36895 
L 811.519012 222.75024 
L 813.957823 221.911887 
L 816.396635 222.50195 
L 818.835446 224.427021 
L 821.274257 224.545939 
L 823.713068 225.137965 
L 826.151879 226.346205 
L 831.029502 227.385556 
L 833.468313 227.543487 
L 835.907124 226.89166 
L 840.784747 226.861933 
L 843.223558 227.528919 
L 845.662369 227.210526 
L 850.539991 228.128687 
L 857.856425 228.136413 
L 860.295236 227.52992 
L 862.734047 227.046543 
L 865.172858 225.875914 
L 870.050481 224.462737 
L 872.489292 225.230962 
L 874.928103 225.71434 
L 877.366914 226.884968 
L 879.805726 227.080334 
L 882.244537 228.232208 
L 884.683348 228.067378 
L 887.122159 227.686665 
L 891.999781 227.752486 
L 894.438593 226.320862 
L 896.877404 226.485692 
L 899.316215 226.095887 
L 901.755026 226.095887 
L 904.193837 226.596127 
L 906.632649 227.875463 
L 909.07146 227.875463 
L 911.510271 228.645981 
L 916.387893 227.980838 
L 918.826705 228.294857 
L 923.704327 228.294857 
L 928.581949 228.96 
L 931.02076 228.96 
L 933.459572 228.593867 
L 935.898383 228.593867 
L 938.337194 228.328308 
L 943.214816 228.328308 
L 945.653628 228.694441 
L 960.286495 228.764452 
L 962.725306 228.96 
L 965.164117 228.96 
L 967.602928 228.649382 
L 977.358173 228.649382 
L 979.796984 228.96 
L 1038.328453 228.96 
L 1040.767264 226.271213 
L 1040.767264 226.271213 
" style="fill:none;stroke:#937252;stroke-linecap:square;stroke-width:2;"/>
   </g>
   <g id="line2d_19">
    <path clip-path="url(#p3b7c5cd2ca)" d="M 360.338942 226.152821 
L 362.777753 227.476531 
L 365.216565 227.08954 
L 367.655376 227.08954 
L 370.094187 226.406673 
L 374.971809 218.627351 
L 377.410621 220.497811 
L 379.849432 219.582479 
L 382.288243 218.961692 
L 384.727054 221.586535 
L 387.165865 224.504498 
L 389.604677 220.471318 
L 392.043488 219.868275 
L 394.482299 218.662395 
L 396.92111 218.333858 
L 399.359921 219.21183 
L 401.798733 222.027446 
L 404.237544 219.923033 
L 406.676355 221.790469 
L 409.115166 221.428952 
L 411.553977 219.708128 
L 413.992788 220.925692 
L 416.4316 223.793731 
L 418.870411 224.112367 
L 423.748033 225.169161 
L 426.186844 222.139542 
L 428.625656 220.74326 
L 431.064467 219.963631 
L 433.503278 221.4471 
L 435.942089 221.86455 
L 438.3809 224.476494 
L 440.819712 224.757063 
L 443.258523 224.70524 
L 445.697334 224.131632 
L 448.136145 224.943341 
L 450.574956 224.311734 
L 453.013767 224.90182 
L 455.452579 225.626529 
L 457.89139 224.834404 
L 460.330201 223.241049 
L 462.769012 223.542147 
L 465.207823 224.822522 
L 467.646635 225.252728 
L 470.085446 224.201574 
L 472.524257 224.873059 
L 474.963068 224.09569 
L 477.401879 223.711578 
L 479.840691 222.253253 
L 482.279502 224.67014 
L 484.718313 224.731598 
L 487.157124 225.062134 
L 489.595935 221.49033 
L 492.034747 220.392977 
L 494.473558 215.089068 
L 496.912369 208.445889 
L 499.35118 208.07652 
L 501.789991 207.185046 
L 504.228802 207.42225 
L 506.667614 210.446922 
L 509.106425 216.699914 
L 511.545236 213.235919 
L 513.984047 215.394522 
L 516.422858 213.333656 
L 518.86167 210.765502 
L 521.300481 207.079312 
L 523.739292 209.74156 
L 526.178103 208.678551 
L 528.616914 210.711315 
L 531.055726 208.979086 
L 533.494537 210.103924 
L 535.933348 206.160369 
L 538.372159 204.495904 
L 540.81097 203.848374 
L 543.249781 205.005231 
L 545.688593 205.764108 
L 548.127404 210.393302 
L 550.566215 213.278941 
L 553.005026 211.663699 
L 555.443837 213.993479 
L 557.882649 212.706756 
L 560.32146 209.962273 
L 562.760271 207.017548 
L 565.199082 208.864107 
L 567.637893 206.370001 
L 572.515516 207.351664 
L 574.954327 209.071246 
L 577.393138 209.512781 
L 579.831949 211.044651 
L 582.27076 213.009292 
L 584.709572 210.223642 
L 587.148383 212.456555 
L 589.587194 207.747616 
L 592.026005 205.355608 
L 594.464816 204.412589 
L 596.903628 208.191342 
L 599.342439 205.763324 
L 601.78125 208.151008 
L 604.220061 211.401659 
L 606.658872 210.855104 
L 609.097684 208.84747 
L 611.536495 211.214249 
L 613.975306 213.857661 
L 616.414117 214.611093 
L 618.852928 210.663999 
L 621.29174 210.845075 
L 623.730551 209.187889 
L 626.169362 206.132348 
L 628.608173 205.780652 
L 631.046984 210.470814 
L 633.485795 211.332155 
L 635.924607 209.922558 
L 638.363418 211.337992 
L 640.802229 211.328747 
L 643.24104 210.254275 
L 645.679851 211.429483 
L 648.118663 213.997256 
L 650.557474 214.445021 
L 652.996285 213.784362 
L 655.435096 215.728256 
L 660.312719 216.922196 
L 665.190341 219.370807 
L 667.629152 218.858728 
L 670.067963 219.179694 
L 672.506774 219.159891 
L 674.945586 217.745561 
L 677.384397 218.027781 
L 679.823208 218.70462 
L 684.70083 214.849904 
L 687.139642 216.110366 
L 689.578453 214.685309 
L 692.017264 214.562521 
L 694.456075 216.558663 
L 696.894886 216.773513 
L 699.333698 217.521626 
L 701.772509 220.201847 
L 704.21132 218.925086 
L 706.650131 217.798301 
L 709.088942 219.578604 
L 711.527753 219.035415 
L 713.966565 217.352489 
L 716.405376 217.707957 
L 718.844187 219.033316 
L 721.282998 218.242039 
L 723.721809 218.755353 
L 726.160621 219.970545 
L 728.599432 218.821619 
L 731.038243 219.193228 
L 733.477054 220.240189 
L 735.915865 220.121297 
L 738.354677 220.179829 
L 740.793488 222.825808 
L 745.67111 223.148279 
L 750.548733 224.82124 
L 752.987544 225.514612 
L 755.426355 225.579247 
L 760.303977 224.561863 
L 762.742788 224.274 
L 765.1816 223.610122 
L 767.620411 223.28182 
L 770.059222 224.233325 
L 772.498033 224.253994 
L 774.936844 223.956245 
L 777.375656 223.787026 
L 779.814467 224.089615 
L 782.253278 223.518887 
L 784.692089 222.589769 
L 787.1309 222.577234 
L 789.569712 222.730922 
L 792.008523 222.414383 
L 794.447334 222.670424 
L 796.886145 223.891093 
L 801.763767 224.032488 
L 804.202579 225.208868 
L 811.519012 225.613176 
L 813.957823 226.02206 
L 816.396635 225.72664 
L 826.151879 226.456077 
L 828.590691 226.456684 
L 831.029502 226.753693 
L 833.468313 226.646917 
L 835.907124 227.176396 
L 838.345935 227.548492 
L 843.223558 226.834518 
L 845.662369 226.815823 
L 850.539991 226.440141 
L 852.978802 226.601775 
L 855.417614 226.244461 
L 857.856425 226.427137 
L 860.295236 225.278459 
L 862.734047 224.888065 
L 865.172858 224.624708 
L 867.61167 224.727796 
L 870.050481 223.958307 
L 872.489292 224.96772 
L 874.928103 225.204065 
L 879.805726 226.126636 
L 882.244537 227.028365 
L 889.56097 227.66867 
L 894.438593 227.193792 
L 899.316215 227.176845 
L 904.193837 227.507491 
L 911.510271 228.281521 
L 913.949082 228.129687 
L 916.387893 228.584917 
L 918.826705 228.596527 
L 921.265516 228.437486 
L 923.704327 227.871425 
L 926.143138 228.095199 
L 928.581949 228.16098 
L 933.459572 228.073235 
L 935.898383 228.532012 
L 948.092439 228.535956 
L 950.53125 228.394673 
L 952.970061 228.500115 
L 955.408872 228.385699 
L 960.286495 228.604946 
L 962.725306 228.746229 
L 965.164117 228.698534 
L 970.04174 228.817962 
L 989.552229 228.808519 
L 991.99104 228.96 
L 994.429851 228.776934 
L 1004.185096 228.776934 
L 1006.623907 228.96 
L 1043.206075 228.96 
L 1045.644886 228.744897 
L 1045.644886 228.744897 
" style="fill:none;stroke:#d18cad;stroke-linecap:square;stroke-width:2;"/>
   </g>
   <g id="line2d_20">
    <path clip-path="url(#p3b7c5cd2ca)" d="M 135.968313 228.743873 
L 140.845935 228.881638 
L 150.60118 228.795485 
L 160.356425 228.766339 
L 162.795236 228.930853 
L 170.11167 228.910777 
L 174.989292 228.910777 
L 177.428103 228.717281 
L 187.183348 228.690181 
L 189.622159 228.883677 
L 199.377404 228.96 
L 201.816215 228.694089 
L 204.255026 228.546902 
L 209.132649 227.997253 
L 211.57146 227.886944 
L 218.887893 228.565447 
L 221.326705 228.051317 
L 226.204327 227.587307 
L 231.081949 225.777766 
L 233.52076 226.200755 
L 235.959572 226.368192 
L 238.398383 224.383216 
L 240.837194 224.130094 
L 243.276005 224.994728 
L 245.714816 223.019138 
L 248.153628 221.725401 
L 250.592439 223.184577 
L 253.03125 223.072215 
L 255.470061 219.602555 
L 257.908872 217.648805 
L 260.347684 216.450448 
L 262.786495 213.289307 
L 265.225306 212.903865 
L 267.664117 211.8872 
L 270.102928 213.845292 
L 272.54174 210.557505 
L 274.980551 212.821332 
L 277.419362 208.1761 
L 279.858173 204.171627 
L 282.296984 204.571718 
L 284.735795 207.238405 
L 287.174607 207.133105 
L 289.613418 206.502948 
L 292.052229 209.571697 
L 294.49104 202.142888 
L 296.929851 197.820144 
L 299.368663 195.363113 
L 301.807474 198.32814 
L 304.246285 197.965999 
L 306.685096 203.16649 
L 309.123907 197.944121 
L 311.562719 193.670303 
L 314.00153 193.791531 
L 316.440341 187.878468 
L 318.879152 179.976976 
L 321.317963 182.675433 
L 323.756774 172.705815 
L 326.195586 165.101738 
L 328.634397 163.391024 
L 331.073208 156.841162 
L 333.512019 150.788377 
L 335.95083 150.256137 
L 340.828453 133.555706 
L 343.267264 128.529019 
L 345.706075 125.786703 
L 348.144886 127.188313 
L 350.583698 127.800353 
L 353.022509 130.954326 
L 355.46132 132.135492 
L 357.900131 128.357175 
L 362.777753 110.667175 
L 365.216565 105.19766 
L 367.655376 101.517626 
L 370.094187 94.762937 
L 372.532998 91.716199 
L 374.971809 89.502406 
L 379.849432 72.489741 
L 382.288243 70.308244 
L 384.727054 68.847099 
L 387.165865 68.550645 
L 389.604677 71.705179 
L 392.043488 72.022103 
L 399.359921 62.132068 
L 401.798733 57.44876 
L 404.237544 57.762071 
L 406.676355 58.989566 
L 409.115166 58.301119 
L 413.992788 55.398175 
L 416.4316 53.701428 
L 418.870411 50.842674 
L 421.309222 48.768933 
L 423.748033 47.901095 
L 426.186844 46.489314 
L 428.625656 44.043404 
L 431.064467 42.87196 
L 433.503278 41.40148 
L 435.942089 38.96002 
L 438.3809 36.91591 
L 440.819712 35.364202 
L 443.258523 32.8904 
L 445.697334 31.068799 
L 448.136145 29.806879 
L 450.574956 29.30484 
L 453.013767 29.319447 
L 455.452579 30.333126 
L 457.89139 31.514322 
L 460.330201 30.591445 
L 462.769012 29.445918 
L 465.207823 28.59113 
L 467.646635 27.385466 
L 470.085446 25.780986 
L 472.524257 25.57537 
L 474.963068 25.997381 
L 477.401879 25.207984 
L 479.840691 24.181608 
L 482.279502 23.815451 
L 484.718313 23.562904 
L 487.157124 22.498225 
L 489.595935 22.329964 
L 492.034747 22.437956 
L 496.912369 21.617872 
L 499.35118 21.587096 
L 504.228802 20.928392 
L 506.667614 21.024273 
L 509.106425 20.702111 
L 511.545236 20.070136 
L 513.984047 20.15728 
L 516.422858 20.062749 
L 518.86167 19.702676 
L 521.300481 19.771721 
L 523.739292 20.00068 
L 533.494537 20.005462 
L 535.933348 20.523242 
L 538.372159 20.315795 
L 540.81097 19.81688 
L 543.249781 19.725087 
L 545.688593 19.413067 
L 548.127404 18.942117 
L 550.566215 18.591663 
L 555.443837 18.568158 
L 557.882649 18.185882 
L 562.760271 18.168908 
L 570.076705 18.140572 
L 572.515516 17.93286 
L 579.831949 17.778033 
L 592.026005 17.7803 
L 594.464816 18.088356 
L 599.342439 18.508185 
L 601.78125 19.184073 
L 604.220061 19.668541 
L 606.658872 19.744321 
L 611.536495 21.620897 
L 613.975306 21.551023 
L 616.414117 21.690428 
L 618.852928 22.69263 
L 621.29174 22.243051 
L 623.730551 21.942643 
L 626.169362 22.37201 
L 628.608173 23.544849 
L 631.046984 25.091929 
L 633.485795 26.970939 
L 635.924607 29.017902 
L 640.802229 31.259701 
L 643.24104 32.158324 
L 645.679851 32.444178 
L 648.118663 32.042429 
L 650.557474 33.325858 
L 652.996285 36.33418 
L 655.435096 38.573283 
L 657.873907 39.432295 
L 662.75153 43.249712 
L 665.190341 42.533533 
L 667.629152 43.421849 
L 670.067963 48.412834 
L 672.506774 54.379789 
L 674.945586 57.129084 
L 677.384397 59.622353 
L 679.823208 63.213478 
L 682.262019 65.029087 
L 684.70083 68.015432 
L 687.139642 74.461643 
L 689.578453 83.303094 
L 692.017264 89.90528 
L 694.456075 96.062395 
L 696.894886 100.90961 
L 699.333698 101.512458 
L 701.772509 104.094529 
L 704.21132 109.34215 
L 706.650131 114.260539 
L 709.088942 120.830059 
L 711.527753 133.423424 
L 713.966565 140.7246 
L 716.405376 145.774853 
L 718.844187 152.773319 
L 721.282998 157.435884 
L 723.721809 160.682561 
L 726.160621 165.988262 
L 728.599432 172.15326 
L 731.038243 175.580296 
L 733.477054 176.922303 
L 735.915865 179.148193 
L 738.354677 183.410371 
L 740.793488 186.129894 
L 743.232299 190.535118 
L 745.67111 196.086794 
L 748.109921 200.119977 
L 750.548733 201.794983 
L 752.987544 203.251899 
L 755.426355 204.573449 
L 757.865166 206.879237 
L 760.303977 208.598439 
L 762.742788 210.708431 
L 765.1816 211.995595 
L 770.059222 215.516005 
L 772.498033 216.314684 
L 774.936844 217.457319 
L 777.375656 219.640126 
L 779.814467 221.333765 
L 782.253278 221.741128 
L 784.692089 223.278117 
L 787.1309 223.593893 
L 792.008523 224.472288 
L 794.447334 225.099276 
L 796.886145 225.459281 
L 799.324956 225.969835 
L 801.763767 226.242855 
L 806.64139 226.374835 
L 811.519012 226.541992 
L 821.274257 227.412841 
L 823.713068 227.54712 
L 826.151879 227.430699 
L 831.029502 227.683902 
L 835.907124 227.721171 
L 838.345935 227.911994 
L 840.784747 227.967474 
L 845.662369 228.308567 
L 857.856425 228.737039 
L 865.172858 228.641791 
L 870.050481 228.55533 
L 877.366914 228.524648 
L 879.805726 228.63705 
L 882.244537 228.375244 
L 884.683348 227.946185 
L 887.122159 227.882514 
L 891.999781 227.961584 
L 894.438593 228.21314 
L 896.877404 228.733918 
L 904.193837 228.821025 
L 1004.185096 228.914396 
L 1033.45083 228.932195 
L 1065.155376 228.919614 
L 1087.104677 228.953044 
L 1109.053977 228.950308 
L 1109.053977 228.950308 
" style="fill:none;stroke:#a4a86f;stroke-linecap:square;stroke-width:2;"/>
   </g>
   <g id="line2d_21">
    <path clip-path="url(#p3b7c5cd2ca)" d="M 309.123907 220.355882 
L 311.562719 228.96 
L 318.879152 228.96 
L 321.317963 207.449705 
L 323.756774 207.449705 
L 326.195586 185.93941 
L 331.073208 185.93941 
L 333.512019 207.449705 
L 335.95083 207.449705 
L 338.389642 226.80897 
L 343.267264 226.80897 
L 345.706075 218.204852 
L 348.144886 212.468774 
L 350.583698 214.619803 
L 353.022509 214.619803 
L 355.46132 197.411567 
L 357.900131 206.015685 
L 360.338942 207.449705 
L 362.777753 197.521876 
L 365.216565 193.219817 
L 367.655376 206.517091 
L 370.094187 206.517091 
L 372.532998 208.130363 
L 374.971809 215.527568 
L 377.410621 206.001581 
L 379.849432 197.620946 
L 382.288243 197.620946 
L 384.727054 200.309733 
L 387.165865 192.085209 
L 389.604677 192.327806 
L 392.043488 193.864255 
L 394.482299 175.750323 
L 396.92111 161.410126 
L 399.359921 166.019475 
L 401.798733 163.472203 
L 404.237544 168.849777 
L 406.676355 170.830988 
L 409.115166 166.050923 
L 411.553977 162.07423 
L 413.992788 142.356459 
L 416.4316 139.129915 
L 418.870411 137.33739 
L 421.309222 145.702505 
L 423.748033 121.408525 
L 426.186844 132.675822 
L 428.625656 121.424283 
L 431.064467 102.474738 
L 433.503278 96.021649 
L 435.942089 108.927826 
L 438.3809 124.906902 
L 440.819712 116.082166 
L 443.258523 140.66536 
L 445.697334 114.853006 
L 448.136145 104.097859 
L 450.574956 98.36178 
L 453.013767 105.531878 
L 455.452579 96.313181 
L 457.89139 111.957032 
L 460.330201 144.222474 
L 462.769012 141.354435 
L 465.207823 162.86473 
L 467.646635 178.229226 
L 470.085446 170.407301 
L 472.524257 127.386711 
L 474.963068 144.594947 
L 477.401879 104.10498 
L 479.840691 83.362909 
L 482.279502 75.540984 
L 484.718313 97.051279 
L 487.157124 54.030689 
L 489.595935 73.010361 
L 492.034747 78.387935 
L 494.473558 78.387935 
L 496.912369 71.217836 
L 499.35118 99.89823 
L 501.789991 92.728131 
L 506.667614 121.408525 
L 509.106425 137.797321 
L 511.545236 130.627223 
L 513.984047 116.287026 
L 516.422858 92.728131 
L 518.86167 109.116928 
L 521.300481 99.89823 
L 523.739292 99.89823 
L 526.178103 120.143213 
L 528.616914 120.143213 
L 531.055726 89.41422 
L 533.494537 98.632918 
L 535.933348 94.330859 
L 538.372159 93.640689 
L 540.81097 110.784233 
L 543.249781 110.784233 
L 545.688593 101.565535 
L 548.127404 104.433574 
L 550.566215 97.531875 
L 553.005026 80.388332 
L 555.443837 103.854108 
L 557.882649 114.609256 
L 560.32146 128.949453 
L 562.760271 136.151995 
L 565.199082 152.540791 
L 567.637893 155.962883 
L 572.515516 113.273221 
L 574.954327 114.927859 
L 577.393138 109.713242 
L 579.831949 100.033609 
L 582.27076 121.543904 
L 584.709572 128.881864 
L 587.148383 107.371569 
L 589.587194 98.24599 
L 592.026005 104.938082 
L 594.464816 87.012836 
L 596.903628 82.570492 
L 599.342439 96.910689 
L 601.78125 99.116873 
L 604.220061 107.481988 
L 606.658872 109.688172 
L 609.097684 115.065746 
L 611.536495 127.613418 
L 613.975306 137.954906 
L 616.414117 127.199758 
L 618.852928 128.578623 
L 621.29174 121.408525 
L 623.730551 110.164507 
L 626.169362 102.831452 
L 628.608173 89.925275 
L 631.046984 102.367504 
L 633.485795 104.160029 
L 635.924607 106.717197 
L 638.363418 122.116613 
L 640.802229 144.800196 
L 643.24104 140.040215 
L 645.679851 156.172936 
L 648.118663 162.555112 
L 650.557474 147.677158 
L 652.996285 135.210964 
L 655.435096 138.796013 
L 657.873907 129.695504 
L 660.312719 134.44453 
L 662.75153 151.243046 
L 665.190341 157.516882 
L 667.629152 143.96819 
L 670.067963 153.896018 
L 672.506774 143.001194 
L 674.945586 130.709596 
L 677.384397 128.389859 
L 679.823208 136.211784 
L 682.262019 136.920915 
L 684.70083 150.748962 
L 687.139642 162.016259 
L 689.578453 182.261243 
L 692.017264 193.211938 
L 694.456075 178.530308 
L 696.894886 189.285456 
L 699.333698 165.167852 
L 701.772509 143.657557 
L 704.21132 152.261675 
L 706.650131 176.162003 
L 709.088942 176.162003 
L 711.527753 181.637351 
L 713.966565 195.977548 
L 716.405376 188.807449 
L 718.844187 178.052302 
L 721.282998 174.141339 
L 723.721809 192.131768 
L 728.599432 206.471964 
L 731.038243 205.754954 
L 733.477054 209.665917 
L 735.915865 210.86929 
L 738.354677 196.529094 
L 740.793488 196.529094 
L 743.232299 203.221185 
L 745.67111 177.408831 
L 748.109921 172.294495 
L 750.548733 172.294495 
L 752.987544 165.501771 
L 755.426355 155.94164 
L 757.865166 176.973928 
L 760.303977 183.329243 
L 762.742788 187.741611 
L 765.1816 190.437136 
L 767.620411 194.022186 
L 770.059222 193.838337 
L 772.498033 196.143011 
L 774.936844 206.07084 
L 777.375656 204.02224 
L 779.814467 209.399814 
L 782.253278 213.20101 
L 784.692089 216.273909 
L 787.1309 215.601712 
L 789.569712 220.723211 
L 792.008523 220.364706 
L 794.447334 213.845177 
L 796.886145 211.15639 
L 799.324956 206.217205 
L 801.763767 204.274568 
L 804.202579 208.323564 
L 806.64139 212.003897 
L 809.080201 213.529965 
L 811.519012 216.877105 
L 813.957823 217.155256 
L 816.396635 218.842338 
L 818.835446 219.927603 
L 821.274257 215.539277 
L 823.713068 213.275036 
L 826.151879 210.471833 
L 828.590691 209.993826 
L 831.029502 210.954995 
L 833.468313 214.241797 
L 835.907124 218.77028 
L 838.345935 223.731152 
L 840.784747 222.075906 
L 843.223558 223.657296 
L 845.662369 222.547373 
L 848.10118 221.686961 
L 850.539991 222.21808 
L 852.978802 224.351332 
L 855.417614 224.725424 
L 857.856425 228.099588 
L 860.295236 228.96 
L 862.734047 228.55028 
L 872.489292 228.55028 
L 874.928103 228.675095 
L 877.366914 228.675095 
L 879.805726 228.390191 
L 884.683348 228.390191 
L 887.122159 228.675095 
L 899.316215 228.728707 
L 901.755026 228.525779 
L 904.193837 228.757073 
L 911.510271 228.757073 
L 913.949082 228.96 
L 916.387893 228.96 
L 918.826705 228.716946 
L 921.265516 228.716946 
L 923.704327 228.500762 
L 931.02076 228.574444 
L 931.02076 228.574444 
" style="fill:none;stroke:#d3d3d3;stroke-linecap:square;stroke-width:2;"/>
   </g>
   <g id="patch_3">
    <path d="M 43.78125 228.96 
L 43.78125 7.2 
" style="fill:none;stroke:#000000;stroke-linecap:square;stroke-linejoin:miter;stroke-width:0.8;"/>
   </g>
   <g id="patch_4">
    <path d="M 43.78125 228.96 
L 1159.78125 228.96 
" style="fill:none;stroke:#000000;stroke-linecap:square;stroke-linejoin:miter;stroke-width:0.8;"/>
   </g>
   <g id="legend_1">
    <g id="line2d_22">
     <path d="M 1065.97 17.67875 
L 1081.97 17.67875 
" style="fill:none;stroke:#947383;stroke-linecap:square;stroke-width:2;"/>
    </g>
    <g id="line2d_23"/>
    <g id="text_17">
     <!-- Asia -->
     <g transform="translate(1088.37 20.47875)scale(0.08 -0.08)">
      <defs>
       <path d="M 2188 4044 
L 1331 1722 
L 3047 1722 
L 2188 4044 
z
M 1831 4666 
L 2547 4666 
L 4325 0 
L 3669 0 
L 3244 1197 
L 1141 1197 
L 716 0 
L 50 0 
L 1831 4666 
z
" id="DejaVuSans-41" transform="scale(0.015625)"/>
       <path d="M 2834 3397 
L 2834 2853 
Q 2591 2978 2328 3040 
Q 2066 3103 1784 3103 
Q 1356 3103 1142 2972 
Q 928 2841 928 2578 
Q 928 2378 1081 2264 
Q 1234 2150 1697 2047 
L 1894 2003 
Q 2506 1872 2764 1633 
Q 3022 1394 3022 966 
Q 3022 478 2636 193 
Q 2250 -91 1575 -91 
Q 1294 -91 989 -36 
Q 684 19 347 128 
L 347 722 
Q 666 556 975 473 
Q 1284 391 1588 391 
Q 1994 391 2212 530 
Q 2431 669 2431 922 
Q 2431 1156 2273 1281 
Q 2116 1406 1581 1522 
L 1381 1569 
Q 847 1681 609 1914 
Q 372 2147 372 2553 
Q 372 3047 722 3315 
Q 1072 3584 1716 3584 
Q 2034 3584 2315 3537 
Q 2597 3491 2834 3397 
z
" id="DejaVuSans-73" transform="scale(0.015625)"/>
      </defs>
      <use xlink:href="#DejaVuSans-41"/>
      <use x="68.408203" xlink:href="#DejaVuSans-73"/>
      <use x="120.507812" xlink:href="#DejaVuSans-69"/>
      <use x="148.291016" xlink:href="#DejaVuSans-61"/>
     </g>
    </g>
    <g id="line2d_24">
     <path d="M 1065.97 29.42125 
L 1081.97 29.42125 
" style="fill:none;stroke:#96c6ad;stroke-linecap:square;stroke-width:2;"/>
    </g>
    <g id="line2d_25"/>
    <g id="text_18">
     <!-- North America -->
     <g transform="translate(1088.37 32.22125)scale(0.08 -0.08)">
      <defs>
       <path d="M 628 4666 
L 1478 4666 
L 3547 763 
L 3547 4666 
L 4159 4666 
L 4159 0 
L 3309 0 
L 1241 3903 
L 1241 0 
L 628 0 
L 628 4666 
z
" id="DejaVuSans-4e" transform="scale(0.015625)"/>
       <path d="M 3513 2113 
L 3513 0 
L 2938 0 
L 2938 2094 
Q 2938 2591 2744 2837 
Q 2550 3084 2163 3084 
Q 1697 3084 1428 2787 
Q 1159 2491 1159 1978 
L 1159 0 
L 581 0 
L 581 4863 
L 1159 4863 
L 1159 2956 
Q 1366 3272 1645 3428 
Q 1925 3584 2291 3584 
Q 2894 3584 3203 3211 
Q 3513 2838 3513 2113 
z
" id="DejaVuSans-68" transform="scale(0.015625)"/>
       <path d="M 3328 2828 
Q 3544 3216 3844 3400 
Q 4144 3584 4550 3584 
Q 5097 3584 5394 3201 
Q 5691 2819 5691 2113 
L 5691 0 
L 5113 0 
L 5113 2094 
Q 5113 2597 4934 2840 
Q 4756 3084 4391 3084 
Q 3944 3084 3684 2787 
Q 3425 2491 3425 1978 
L 3425 0 
L 2847 0 
L 2847 2094 
Q 2847 2600 2669 2842 
Q 2491 3084 2119 3084 
Q 1678 3084 1418 2786 
Q 1159 2488 1159 1978 
L 1159 0 
L 581 0 
L 581 3500 
L 1159 3500 
L 1159 2956 
Q 1356 3278 1631 3431 
Q 1906 3584 2284 3584 
Q 2666 3584 2933 3390 
Q 3200 3197 3328 2828 
z
" id="DejaVuSans-6d" transform="scale(0.015625)"/>
      </defs>
      <use xlink:href="#DejaVuSans-4e"/>
      <use x="74.804688" xlink:href="#DejaVuSans-6f"/>
      <use x="135.986328" xlink:href="#DejaVuSans-72"/>
      <use x="177.099609" xlink:href="#DejaVuSans-74"/>
      <use x="216.308594" xlink:href="#DejaVuSans-68"/>
      <use x="279.6875" xlink:href="#DejaVuSans-20"/>
      <use x="311.474609" xlink:href="#DejaVuSans-41"/>
      <use x="379.882812" xlink:href="#DejaVuSans-6d"/>
      <use x="477.294922" xlink:href="#DejaVuSans-65"/>
      <use x="538.818359" xlink:href="#DejaVuSans-72"/>
      <use x="579.931641" xlink:href="#DejaVuSans-69"/>
      <use x="607.714844" xlink:href="#DejaVuSans-63"/>
      <use x="662.695312" xlink:href="#DejaVuSans-61"/>
     </g>
    </g>
    <g id="line2d_26">
     <path d="M 1065.97 41.16375 
L 1081.97 41.16375 
" style="fill:none;stroke:#525886;stroke-linecap:square;stroke-width:2;"/>
    </g>
    <g id="line2d_27"/>
    <g id="text_19">
     <!-- Europe -->
     <g transform="translate(1088.37 43.96375)scale(0.08 -0.08)">
      <defs>
       <path d="M 628 4666 
L 3578 4666 
L 3578 4134 
L 1259 4134 
L 1259 2753 
L 3481 2753 
L 3481 2222 
L 1259 2222 
L 1259 531 
L 3634 531 
L 3634 0 
L 628 0 
L 628 4666 
z
" id="DejaVuSans-45" transform="scale(0.015625)"/>
       <path d="M 1159 525 
L 1159 -1331 
L 581 -1331 
L 581 3500 
L 1159 3500 
L 1159 2969 
Q 1341 3281 1617 3432 
Q 1894 3584 2278 3584 
Q 2916 3584 3314 3078 
Q 3713 2572 3713 1747 
Q 3713 922 3314 415 
Q 2916 -91 2278 -91 
Q 1894 -91 1617 61 
Q 1341 213 1159 525 
z
M 3116 1747 
Q 3116 2381 2855 2742 
Q 2594 3103 2138 3103 
Q 1681 3103 1420 2742 
Q 1159 2381 1159 1747 
Q 1159 1113 1420 752 
Q 1681 391 2138 391 
Q 2594 391 2855 752 
Q 3116 1113 3116 1747 
z
" id="DejaVuSans-70" transform="scale(0.015625)"/>
      </defs>
      <use xlink:href="#DejaVuSans-45"/>
      <use x="63.183594" xlink:href="#DejaVuSans-75"/>
      <use x="126.5625" xlink:href="#DejaVuSans-72"/>
      <use x="165.425781" xlink:href="#DejaVuSans-6f"/>
      <use x="226.607422" xlink:href="#DejaVuSans-70"/>
      <use x="290.083984" xlink:href="#DejaVuSans-65"/>
     </g>
    </g>
    <g id="line2d_28">
     <path d="M 1065.97 52.90625 
L 1081.97 52.90625 
" style="fill:none;stroke:#937252;stroke-linecap:square;stroke-width:2;"/>
    </g>
    <g id="line2d_29"/>
    <g id="text_20">
     <!-- Africa -->
     <g transform="translate(1088.37 55.70625)scale(0.08 -0.08)">
      <defs>
       <path d="M 2375 4863 
L 2375 4384 
L 1825 4384 
Q 1516 4384 1395 4259 
Q 1275 4134 1275 3809 
L 1275 3500 
L 2222 3500 
L 2222 3053 
L 1275 3053 
L 1275 0 
L 697 0 
L 697 3053 
L 147 3053 
L 147 3500 
L 697 3500 
L 697 3744 
Q 697 4328 969 4595 
Q 1241 4863 1831 4863 
L 2375 4863 
z
" id="DejaVuSans-66" transform="scale(0.015625)"/>
      </defs>
      <use xlink:href="#DejaVuSans-41"/>
      <use x="64.783203" xlink:href="#DejaVuSans-66"/>
      <use x="99.988281" xlink:href="#DejaVuSans-72"/>
      <use x="141.101562" xlink:href="#DejaVuSans-69"/>
      <use x="168.884766" xlink:href="#DejaVuSans-63"/>
      <use x="223.865234" xlink:href="#DejaVuSans-61"/>
     </g>
    </g>
    <g id="line2d_30">
     <path d="M 1065.97 64.64875 
L 1081.97 64.64875 
" style="fill:none;stroke:#d18cad;stroke-linecap:square;stroke-width:2;"/>
    </g>
    <g id="line2d_31"/>
    <g id="text_21">
     <!-- South America -->
     <g transform="translate(1088.37 67.44875)scale(0.08 -0.08)">
      <defs>
       <path d="M 3425 4513 
L 3425 3897 
Q 3066 4069 2747 4153 
Q 2428 4238 2131 4238 
Q 1616 4238 1336 4038 
Q 1056 3838 1056 3469 
Q 1056 3159 1242 3001 
Q 1428 2844 1947 2747 
L 2328 2669 
Q 3034 2534 3370 2195 
Q 3706 1856 3706 1288 
Q 3706 609 3251 259 
Q 2797 -91 1919 -91 
Q 1588 -91 1214 -16 
Q 841 59 441 206 
L 441 856 
Q 825 641 1194 531 
Q 1563 422 1919 422 
Q 2459 422 2753 634 
Q 3047 847 3047 1241 
Q 3047 1584 2836 1778 
Q 2625 1972 2144 2069 
L 1759 2144 
Q 1053 2284 737 2584 
Q 422 2884 422 3419 
Q 422 4038 858 4394 
Q 1294 4750 2059 4750 
Q 2388 4750 2728 4690 
Q 3069 4631 3425 4513 
z
" id="DejaVuSans-53" transform="scale(0.015625)"/>
      </defs>
      <use xlink:href="#DejaVuSans-53"/>
      <use x="63.476562" xlink:href="#DejaVuSans-6f"/>
      <use x="124.658203" xlink:href="#DejaVuSans-75"/>
      <use x="188.037109" xlink:href="#DejaVuSans-74"/>
      <use x="227.246094" xlink:href="#DejaVuSans-68"/>
      <use x="290.625" xlink:href="#DejaVuSans-20"/>
      <use x="322.412109" xlink:href="#DejaVuSans-41"/>
      <use x="390.820312" xlink:href="#DejaVuSans-6d"/>
      <use x="488.232422" xlink:href="#DejaVuSans-65"/>
      <use x="549.755859" xlink:href="#DejaVuSans-72"/>
      <use x="590.869141" xlink:href="#DejaVuSans-69"/>
      <use x="618.652344" xlink:href="#DejaVuSans-63"/>
      <use x="673.632812" xlink:href="#DejaVuSans-61"/>
     </g>
    </g>
    <g id="line2d_32">
     <path d="M 1065.97 76.39125 
L 1081.97 76.39125 
" style="fill:none;stroke:#a4a86f;stroke-linecap:square;stroke-width:2;"/>
    </g>
    <g id="line2d_33"/>
    <g id="text_22">
     <!-- United Kingdom -->
     <g transform="translate(1088.37 79.19125)scale(0.08 -0.08)">
      <defs>
       <path d="M 556 4666 
L 1191 4666 
L 1191 1831 
Q 1191 1081 1462 751 
Q 1734 422 2344 422 
Q 2950 422 3222 751 
Q 3494 1081 3494 1831 
L 3494 4666 
L 4128 4666 
L 4128 1753 
Q 4128 841 3676 375 
Q 3225 -91 2344 -91 
Q 1459 -91 1007 375 
Q 556 841 556 1753 
L 556 4666 
z
" id="DejaVuSans-55" transform="scale(0.015625)"/>
       <path d="M 628 4666 
L 1259 4666 
L 1259 2694 
L 3353 4666 
L 4166 4666 
L 1850 2491 
L 4331 0 
L 3500 0 
L 1259 2247 
L 1259 0 
L 628 0 
L 628 4666 
z
" id="DejaVuSans-4b" transform="scale(0.015625)"/>
      </defs>
      <use xlink:href="#DejaVuSans-55"/>
      <use x="73.193359" xlink:href="#DejaVuSans-6e"/>
      <use x="136.572266" xlink:href="#DejaVuSans-69"/>
      <use x="164.355469" xlink:href="#DejaVuSans-74"/>
      <use x="203.564453" xlink:href="#DejaVuSans-65"/>
      <use x="265.087891" xlink:href="#DejaVuSans-64"/>
      <use x="328.564453" xlink:href="#DejaVuSans-20"/>
      <use x="360.351562" xlink:href="#DejaVuSans-4b"/>
      <use x="425.927734" xlink:href="#DejaVuSans-69"/>
      <use x="453.710938" xlink:href="#DejaVuSans-6e"/>
      <use x="517.089844" xlink:href="#DejaVuSans-67"/>
      <use x="580.566406" xlink:href="#DejaVuSans-64"/>
      <use x="644.042969" xlink:href="#DejaVuSans-6f"/>
      <use x="705.224609" xlink:href="#DejaVuSans-6d"/>
     </g>
    </g>
    <g id="line2d_34">
     <path d="M 1065.97 88.13375 
L 1081.97 88.13375 
" style="fill:none;stroke:#d3d3d3;stroke-linecap:square;stroke-width:2;"/>
    </g>
    <g id="line2d_35"/>
    <g id="text_23">
     <!-- Oceania -->
     <g transform="translate(1088.37 90.93375)scale(0.08 -0.08)">
      <defs>
       <path d="M 2522 4238 
Q 1834 4238 1429 3725 
Q 1025 3213 1025 2328 
Q 1025 1447 1429 934 
Q 1834 422 2522 422 
Q 3209 422 3611 934 
Q 4013 1447 4013 2328 
Q 4013 3213 3611 3725 
Q 3209 4238 2522 4238 
z
M 2522 4750 
Q 3503 4750 4090 4092 
Q 4678 3434 4678 2328 
Q 4678 1225 4090 567 
Q 3503 -91 2522 -91 
Q 1538 -91 948 565 
Q 359 1222 359 2328 
Q 359 3434 948 4092 
Q 1538 4750 2522 4750 
z
" id="DejaVuSans-4f" transform="scale(0.015625)"/>
      </defs>
      <use xlink:href="#DejaVuSans-4f"/>
      <use x="78.710938" xlink:href="#DejaVuSans-63"/>
      <use x="133.691406" xlink:href="#DejaVuSans-65"/>
      <use x="195.214844" xlink:href="#DejaVuSans-61"/>
      <use x="256.494141" xlink:href="#DejaVuSans-6e"/>
      <use x="319.873047" xlink:href="#DejaVuSans-69"/>
      <use x="347.65625" xlink:href="#DejaVuSans-61"/>
     </g>
    </g>
   </g>
  </g>
 </g>
 <defs>
  <clipPath id="p3b7c5cd2ca">
   <rect height="221.76" width="1116" x="43.78125" y="7.2"/>
  </clipPath>
 </defs>
</svg>
