<?xml version="1.0" encoding="utf-8" standalone="no"?>
<!DOCTYPE svg PUBLIC "-//W3C//DTD SVG 1.1//EN"
  "http://www.w3.org/Graphics/SVG/1.1/DTD/svg11.dtd">
<svg height="298.620937pt" version="1.1" viewBox="0 0 1173.34375 298.620937" width="1173.34375pt" xmlns="http://www.w3.org/2000/svg" xmlns:xlink="http://www.w3.org/1999/xlink">
 <metadata>
  <rdf:RDF xmlns:cc="http://creativecommons.org/ns#" xmlns:dc="http://purl.org/dc/elements/1.1/" xmlns:rdf="http://www.w3.org/1999/02/22-rdf-syntax-ns#">
   <cc:Work>
    <dc:type rdf:resource="http://purl.org/dc/dcmitype/StillImage"/>
    <dc:date>2021-11-27T13:13:36.162609</dc:date>
    <dc:format>image/svg+xml</dc:format>
    <dc:creator>
     <cc:Agent>
      <dc:title>Matplotlib v3.4.2, https://matplotlib.org/</dc:title>
     </cc:Agent>
    </dc:creator>
   </cc:Work>
  </rdf:RDF>
 </metadata>
 <defs>
  <style type="text/css">*{stroke-linecap:butt;stroke-linejoin:round;}</style>
 </defs>
 <g id="figure_1">
  <g id="patch_1">
   <path d="M 0 298.620937 
L 1173.34375 298.620937 
L 1173.34375 0 
L 0 0 
z
" style="fill:#ffffff;"/>
  </g>
  <g id="axes_1">
   <g id="patch_2">
    <path d="M 50.14375 228.96 
L 1166.14375 228.96 
L 1166.14375 7.2 
L 50.14375 7.2 
z
" style="fill:#ffffff;"/>
   </g>
   <g id="matplotlib.axis_1">
    <g id="xtick_1">
     <g id="line2d_1">
      <defs>
       <path d="M 0 0 
L 0 3.5 
" id="m59ade753ba" style="stroke:#000000;stroke-width:0.8;"/>
      </defs>
      <g>
       <use style="stroke:#000000;stroke-width:0.8;" x="165.116645" xlink:href="#m59ade753ba" y="228.96"/>
      </g>
     </g>
     <g id="text_1">
      <!-- 2020-11 -->
      <g transform="translate(167.87602 277.742812)rotate(-90)scale(0.1 -0.1)">
       <defs>
        <path d="M 1228 531 
L 3431 531 
L 3431 0 
L 469 0 
L 469 531 
Q 828 903 1448 1529 
Q 2069 2156 2228 2338 
Q 2531 2678 2651 2914 
Q 2772 3150 2772 3378 
Q 2772 3750 2511 3984 
Q 2250 4219 1831 4219 
Q 1534 4219 1204 4116 
Q 875 4013 500 3803 
L 500 4441 
Q 881 4594 1212 4672 
Q 1544 4750 1819 4750 
Q 2544 4750 2975 4387 
Q 3406 4025 3406 3419 
Q 3406 3131 3298 2873 
Q 3191 2616 2906 2266 
Q 2828 2175 2409 1742 
Q 1991 1309 1228 531 
z
" id="DejaVuSans-32" transform="scale(0.015625)"/>
        <path d="M 2034 4250 
Q 1547 4250 1301 3770 
Q 1056 3291 1056 2328 
Q 1056 1369 1301 889 
Q 1547 409 2034 409 
Q 2525 409 2770 889 
Q 3016 1369 3016 2328 
Q 3016 3291 2770 3770 
Q 2525 4250 2034 4250 
z
M 2034 4750 
Q 2819 4750 3233 4129 
Q 3647 3509 3647 2328 
Q 3647 1150 3233 529 
Q 2819 -91 2034 -91 
Q 1250 -91 836 529 
Q 422 1150 422 2328 
Q 422 3509 836 4129 
Q 1250 4750 2034 4750 
z
" id="DejaVuSans-30" transform="scale(0.015625)"/>
        <path d="M 313 2009 
L 1997 2009 
L 1997 1497 
L 313 1497 
L 313 2009 
z
" id="DejaVuSans-2d" transform="scale(0.015625)"/>
        <path d="M 794 531 
L 1825 531 
L 1825 4091 
L 703 3866 
L 703 4441 
L 1819 4666 
L 2450 4666 
L 2450 531 
L 3481 531 
L 3481 0 
L 794 0 
L 794 531 
z
" id="DejaVuSans-31" transform="scale(0.015625)"/>
       </defs>
       <use xlink:href="#DejaVuSans-32"/>
       <use x="63.623047" xlink:href="#DejaVuSans-30"/>
       <use x="127.246094" xlink:href="#DejaVuSans-32"/>
       <use x="190.869141" xlink:href="#DejaVuSans-30"/>
       <use x="254.492188" xlink:href="#DejaVuSans-2d"/>
       <use x="290.576172" xlink:href="#DejaVuSans-31"/>
       <use x="354.199219" xlink:href="#DejaVuSans-31"/>
      </g>
     </g>
    </g>
    <g id="xtick_2">
     <g id="line2d_2">
      <g>
       <use style="stroke:#000000;stroke-width:0.8;" x="328.407602" xlink:href="#m59ade753ba" y="228.96"/>
      </g>
     </g>
     <g id="text_2">
      <!-- 2021-01 -->
      <g transform="translate(331.166977 277.742812)rotate(-90)scale(0.1 -0.1)">
       <use xlink:href="#DejaVuSans-32"/>
       <use x="63.623047" xlink:href="#DejaVuSans-30"/>
       <use x="127.246094" xlink:href="#DejaVuSans-32"/>
       <use x="190.869141" xlink:href="#DejaVuSans-31"/>
       <use x="254.492188" xlink:href="#DejaVuSans-2d"/>
       <use x="290.576172" xlink:href="#DejaVuSans-30"/>
       <use x="354.199219" xlink:href="#DejaVuSans-31"/>
      </g>
     </g>
    </g>
    <g id="xtick_3">
     <g id="line2d_3">
      <g>
       <use style="stroke:#000000;stroke-width:0.8;" x="486.344757" xlink:href="#m59ade753ba" y="228.96"/>
      </g>
     </g>
     <g id="text_3">
      <!-- 2021-03 -->
      <g transform="translate(489.104132 277.742812)rotate(-90)scale(0.1 -0.1)">
       <defs>
        <path d="M 2597 2516 
Q 3050 2419 3304 2112 
Q 3559 1806 3559 1356 
Q 3559 666 3084 287 
Q 2609 -91 1734 -91 
Q 1441 -91 1130 -33 
Q 819 25 488 141 
L 488 750 
Q 750 597 1062 519 
Q 1375 441 1716 441 
Q 2309 441 2620 675 
Q 2931 909 2931 1356 
Q 2931 1769 2642 2001 
Q 2353 2234 1838 2234 
L 1294 2234 
L 1294 2753 
L 1863 2753 
Q 2328 2753 2575 2939 
Q 2822 3125 2822 3475 
Q 2822 3834 2567 4026 
Q 2313 4219 1838 4219 
Q 1578 4219 1281 4162 
Q 984 4106 628 3988 
L 628 4550 
Q 988 4650 1302 4700 
Q 1616 4750 1894 4750 
Q 2613 4750 3031 4423 
Q 3450 4097 3450 3541 
Q 3450 3153 3228 2886 
Q 3006 2619 2597 2516 
z
" id="DejaVuSans-33" transform="scale(0.015625)"/>
       </defs>
       <use xlink:href="#DejaVuSans-32"/>
       <use x="63.623047" xlink:href="#DejaVuSans-30"/>
       <use x="127.246094" xlink:href="#DejaVuSans-32"/>
       <use x="190.869141" xlink:href="#DejaVuSans-31"/>
       <use x="254.492188" xlink:href="#DejaVuSans-2d"/>
       <use x="290.576172" xlink:href="#DejaVuSans-30"/>
       <use x="354.199219" xlink:href="#DejaVuSans-33"/>
      </g>
     </g>
    </g>
    <g id="xtick_4">
     <g id="line2d_4">
      <g>
       <use style="stroke:#000000;stroke-width:0.8;" x="649.635714" xlink:href="#m59ade753ba" y="228.96"/>
      </g>
     </g>
     <g id="text_4">
      <!-- 2021-05 -->
      <g transform="translate(652.395089 277.742812)rotate(-90)scale(0.1 -0.1)">
       <defs>
        <path d="M 691 4666 
L 3169 4666 
L 3169 4134 
L 1269 4134 
L 1269 2991 
Q 1406 3038 1543 3061 
Q 1681 3084 1819 3084 
Q 2600 3084 3056 2656 
Q 3513 2228 3513 1497 
Q 3513 744 3044 326 
Q 2575 -91 1722 -91 
Q 1428 -91 1123 -41 
Q 819 9 494 109 
L 494 744 
Q 775 591 1075 516 
Q 1375 441 1709 441 
Q 2250 441 2565 725 
Q 2881 1009 2881 1497 
Q 2881 1984 2565 2268 
Q 2250 2553 1709 2553 
Q 1456 2553 1204 2497 
Q 953 2441 691 2322 
L 691 4666 
z
" id="DejaVuSans-35" transform="scale(0.015625)"/>
       </defs>
       <use xlink:href="#DejaVuSans-32"/>
       <use x="63.623047" xlink:href="#DejaVuSans-30"/>
       <use x="127.246094" xlink:href="#DejaVuSans-32"/>
       <use x="190.869141" xlink:href="#DejaVuSans-31"/>
       <use x="254.492188" xlink:href="#DejaVuSans-2d"/>
       <use x="290.576172" xlink:href="#DejaVuSans-30"/>
       <use x="354.199219" xlink:href="#DejaVuSans-35"/>
      </g>
     </g>
    </g>
    <g id="xtick_5">
     <g id="line2d_5">
      <g>
       <use style="stroke:#000000;stroke-width:0.8;" x="812.926672" xlink:href="#m59ade753ba" y="228.96"/>
      </g>
     </g>
     <g id="text_5">
      <!-- 2021-07 -->
      <g transform="translate(815.686047 277.742812)rotate(-90)scale(0.1 -0.1)">
       <defs>
        <path d="M 525 4666 
L 3525 4666 
L 3525 4397 
L 1831 0 
L 1172 0 
L 2766 4134 
L 525 4134 
L 525 4666 
z
" id="DejaVuSans-37" transform="scale(0.015625)"/>
       </defs>
       <use xlink:href="#DejaVuSans-32"/>
       <use x="63.623047" xlink:href="#DejaVuSans-30"/>
       <use x="127.246094" xlink:href="#DejaVuSans-32"/>
       <use x="190.869141" xlink:href="#DejaVuSans-31"/>
       <use x="254.492188" xlink:href="#DejaVuSans-2d"/>
       <use x="290.576172" xlink:href="#DejaVuSans-30"/>
       <use x="354.199219" xlink:href="#DejaVuSans-37"/>
      </g>
     </g>
    </g>
    <g id="xtick_6">
     <g id="line2d_6">
      <g>
       <use style="stroke:#000000;stroke-width:0.8;" x="978.89453" xlink:href="#m59ade753ba" y="228.96"/>
      </g>
     </g>
     <g id="text_6">
      <!-- 2021-09 -->
      <g transform="translate(981.653905 277.742812)rotate(-90)scale(0.1 -0.1)">
       <defs>
        <path d="M 703 97 
L 703 672 
Q 941 559 1184 500 
Q 1428 441 1663 441 
Q 2288 441 2617 861 
Q 2947 1281 2994 2138 
Q 2813 1869 2534 1725 
Q 2256 1581 1919 1581 
Q 1219 1581 811 2004 
Q 403 2428 403 3163 
Q 403 3881 828 4315 
Q 1253 4750 1959 4750 
Q 2769 4750 3195 4129 
Q 3622 3509 3622 2328 
Q 3622 1225 3098 567 
Q 2575 -91 1691 -91 
Q 1453 -91 1209 -44 
Q 966 3 703 97 
z
M 1959 2075 
Q 2384 2075 2632 2365 
Q 2881 2656 2881 3163 
Q 2881 3666 2632 3958 
Q 2384 4250 1959 4250 
Q 1534 4250 1286 3958 
Q 1038 3666 1038 3163 
Q 1038 2656 1286 2365 
Q 1534 2075 1959 2075 
z
" id="DejaVuSans-39" transform="scale(0.015625)"/>
       </defs>
       <use xlink:href="#DejaVuSans-32"/>
       <use x="63.623047" xlink:href="#DejaVuSans-30"/>
       <use x="127.246094" xlink:href="#DejaVuSans-32"/>
       <use x="190.869141" xlink:href="#DejaVuSans-31"/>
       <use x="254.492188" xlink:href="#DejaVuSans-2d"/>
       <use x="290.576172" xlink:href="#DejaVuSans-30"/>
       <use x="354.199219" xlink:href="#DejaVuSans-39"/>
      </g>
     </g>
    </g>
    <g id="xtick_7">
     <g id="line2d_7">
      <g>
       <use style="stroke:#000000;stroke-width:0.8;" x="1142.185487" xlink:href="#m59ade753ba" y="228.96"/>
      </g>
     </g>
     <g id="text_7">
      <!-- 2021-11 -->
      <g transform="translate(1144.944862 277.742812)rotate(-90)scale(0.1 -0.1)">
       <use xlink:href="#DejaVuSans-32"/>
       <use x="63.623047" xlink:href="#DejaVuSans-30"/>
       <use x="127.246094" xlink:href="#DejaVuSans-32"/>
       <use x="190.869141" xlink:href="#DejaVuSans-31"/>
       <use x="254.492188" xlink:href="#DejaVuSans-2d"/>
       <use x="290.576172" xlink:href="#DejaVuSans-31"/>
       <use x="354.199219" xlink:href="#DejaVuSans-31"/>
      </g>
     </g>
    </g>
    <g id="text_8">
     <!-- Date -->
     <g transform="translate(596.192969 289.34125)scale(0.1 -0.1)">
      <defs>
       <path d="M 1259 4147 
L 1259 519 
L 2022 519 
Q 2988 519 3436 956 
Q 3884 1394 3884 2338 
Q 3884 3275 3436 3711 
Q 2988 4147 2022 4147 
L 1259 4147 
z
M 628 4666 
L 1925 4666 
Q 3281 4666 3915 4102 
Q 4550 3538 4550 2338 
Q 4550 1131 3912 565 
Q 3275 0 1925 0 
L 628 0 
L 628 4666 
z
" id="DejaVuSans-44" transform="scale(0.015625)"/>
       <path d="M 2194 1759 
Q 1497 1759 1228 1600 
Q 959 1441 959 1056 
Q 959 750 1161 570 
Q 1363 391 1709 391 
Q 2188 391 2477 730 
Q 2766 1069 2766 1631 
L 2766 1759 
L 2194 1759 
z
M 3341 1997 
L 3341 0 
L 2766 0 
L 2766 531 
Q 2569 213 2275 61 
Q 1981 -91 1556 -91 
Q 1019 -91 701 211 
Q 384 513 384 1019 
Q 384 1609 779 1909 
Q 1175 2209 1959 2209 
L 2766 2209 
L 2766 2266 
Q 2766 2663 2505 2880 
Q 2244 3097 1772 3097 
Q 1472 3097 1187 3025 
Q 903 2953 641 2809 
L 641 3341 
Q 956 3463 1253 3523 
Q 1550 3584 1831 3584 
Q 2591 3584 2966 3190 
Q 3341 2797 3341 1997 
z
" id="DejaVuSans-61" transform="scale(0.015625)"/>
       <path d="M 1172 4494 
L 1172 3500 
L 2356 3500 
L 2356 3053 
L 1172 3053 
L 1172 1153 
Q 1172 725 1289 603 
Q 1406 481 1766 481 
L 2356 481 
L 2356 0 
L 1766 0 
Q 1100 0 847 248 
Q 594 497 594 1153 
L 594 3053 
L 172 3053 
L 172 3500 
L 594 3500 
L 594 4494 
L 1172 4494 
z
" id="DejaVuSans-74" transform="scale(0.015625)"/>
       <path d="M 3597 1894 
L 3597 1613 
L 953 1613 
Q 991 1019 1311 708 
Q 1631 397 2203 397 
Q 2534 397 2845 478 
Q 3156 559 3463 722 
L 3463 178 
Q 3153 47 2828 -22 
Q 2503 -91 2169 -91 
Q 1331 -91 842 396 
Q 353 884 353 1716 
Q 353 2575 817 3079 
Q 1281 3584 2069 3584 
Q 2775 3584 3186 3129 
Q 3597 2675 3597 1894 
z
M 3022 2063 
Q 3016 2534 2758 2815 
Q 2500 3097 2075 3097 
Q 1594 3097 1305 2825 
Q 1016 2553 972 2059 
L 3022 2063 
z
" id="DejaVuSans-65" transform="scale(0.015625)"/>
      </defs>
      <use xlink:href="#DejaVuSans-44"/>
      <use x="77.001953" xlink:href="#DejaVuSans-61"/>
      <use x="138.28125" xlink:href="#DejaVuSans-74"/>
      <use x="177.490234" xlink:href="#DejaVuSans-65"/>
     </g>
    </g>
   </g>
   <g id="matplotlib.axis_2">
    <g id="ytick_1">
     <g id="line2d_8">
      <defs>
       <path d="M 0 0 
L -3.5 0 
" id="mc07419eeb2" style="stroke:#000000;stroke-width:0.8;"/>
      </defs>
      <g>
       <use style="stroke:#000000;stroke-width:0.8;" x="50.14375" xlink:href="#mc07419eeb2" y="228.96"/>
      </g>
     </g>
     <g id="text_9">
      <!-- 0.00 -->
      <g transform="translate(20.878125 232.759219)scale(0.1 -0.1)">
       <defs>
        <path d="M 684 794 
L 1344 794 
L 1344 0 
L 684 0 
L 684 794 
z
" id="DejaVuSans-2e" transform="scale(0.015625)"/>
       </defs>
       <use xlink:href="#DejaVuSans-30"/>
       <use x="63.623047" xlink:href="#DejaVuSans-2e"/>
       <use x="95.410156" xlink:href="#DejaVuSans-30"/>
       <use x="159.033203" xlink:href="#DejaVuSans-30"/>
      </g>
     </g>
    </g>
    <g id="ytick_2">
     <g id="line2d_9">
      <g>
       <use style="stroke:#000000;stroke-width:0.8;" x="50.14375" xlink:href="#mc07419eeb2" y="200.362117"/>
      </g>
     </g>
     <g id="text_10">
      <!-- 0.05 -->
      <g transform="translate(20.878125 204.161335)scale(0.1 -0.1)">
       <use xlink:href="#DejaVuSans-30"/>
       <use x="63.623047" xlink:href="#DejaVuSans-2e"/>
       <use x="95.410156" xlink:href="#DejaVuSans-30"/>
       <use x="159.033203" xlink:href="#DejaVuSans-35"/>
      </g>
     </g>
    </g>
    <g id="ytick_3">
     <g id="line2d_10">
      <g>
       <use style="stroke:#000000;stroke-width:0.8;" x="50.14375" xlink:href="#mc07419eeb2" y="171.764233"/>
      </g>
     </g>
     <g id="text_11">
      <!-- 0.10 -->
      <g transform="translate(20.878125 175.563452)scale(0.1 -0.1)">
       <use xlink:href="#DejaVuSans-30"/>
       <use x="63.623047" xlink:href="#DejaVuSans-2e"/>
       <use x="95.410156" xlink:href="#DejaVuSans-31"/>
       <use x="159.033203" xlink:href="#DejaVuSans-30"/>
      </g>
     </g>
    </g>
    <g id="ytick_4">
     <g id="line2d_11">
      <g>
       <use style="stroke:#000000;stroke-width:0.8;" x="50.14375" xlink:href="#mc07419eeb2" y="143.16635"/>
      </g>
     </g>
     <g id="text_12">
      <!-- 0.15 -->
      <g transform="translate(20.878125 146.965569)scale(0.1 -0.1)">
       <use xlink:href="#DejaVuSans-30"/>
       <use x="63.623047" xlink:href="#DejaVuSans-2e"/>
       <use x="95.410156" xlink:href="#DejaVuSans-31"/>
       <use x="159.033203" xlink:href="#DejaVuSans-35"/>
      </g>
     </g>
    </g>
    <g id="ytick_5">
     <g id="line2d_12">
      <g>
       <use style="stroke:#000000;stroke-width:0.8;" x="50.14375" xlink:href="#mc07419eeb2" y="114.568467"/>
      </g>
     </g>
     <g id="text_13">
      <!-- 0.20 -->
      <g transform="translate(20.878125 118.367686)scale(0.1 -0.1)">
       <use xlink:href="#DejaVuSans-30"/>
       <use x="63.623047" xlink:href="#DejaVuSans-2e"/>
       <use x="95.410156" xlink:href="#DejaVuSans-32"/>
       <use x="159.033203" xlink:href="#DejaVuSans-30"/>
      </g>
     </g>
    </g>
    <g id="ytick_6">
     <g id="line2d_13">
      <g>
       <use style="stroke:#000000;stroke-width:0.8;" x="50.14375" xlink:href="#mc07419eeb2" y="85.970584"/>
      </g>
     </g>
     <g id="text_14">
      <!-- 0.25 -->
      <g transform="translate(20.878125 89.769802)scale(0.1 -0.1)">
       <use xlink:href="#DejaVuSans-30"/>
       <use x="63.623047" xlink:href="#DejaVuSans-2e"/>
       <use x="95.410156" xlink:href="#DejaVuSans-32"/>
       <use x="159.033203" xlink:href="#DejaVuSans-35"/>
      </g>
     </g>
    </g>
    <g id="ytick_7">
     <g id="line2d_14">
      <g>
       <use style="stroke:#000000;stroke-width:0.8;" x="50.14375" xlink:href="#mc07419eeb2" y="57.3727"/>
      </g>
     </g>
     <g id="text_15">
      <!-- 0.30 -->
      <g transform="translate(20.878125 61.171919)scale(0.1 -0.1)">
       <use xlink:href="#DejaVuSans-30"/>
       <use x="63.623047" xlink:href="#DejaVuSans-2e"/>
       <use x="95.410156" xlink:href="#DejaVuSans-33"/>
       <use x="159.033203" xlink:href="#DejaVuSans-30"/>
      </g>
     </g>
    </g>
    <g id="ytick_8">
     <g id="line2d_15">
      <g>
       <use style="stroke:#000000;stroke-width:0.8;" x="50.14375" xlink:href="#mc07419eeb2" y="28.774817"/>
      </g>
     </g>
     <g id="text_16">
      <!-- 0.35 -->
      <g transform="translate(20.878125 32.574036)scale(0.1 -0.1)">
       <use xlink:href="#DejaVuSans-30"/>
       <use x="63.623047" xlink:href="#DejaVuSans-2e"/>
       <use x="95.410156" xlink:href="#DejaVuSans-33"/>
       <use x="159.033203" xlink:href="#DejaVuSans-35"/>
      </g>
     </g>
    </g>
    <g id="text_17">
     <!-- Frequency (7 day rolling average) -->
     <g transform="translate(14.798438 202.529219)rotate(-90)scale(0.1 -0.1)">
      <defs>
       <path d="M 628 4666 
L 3309 4666 
L 3309 4134 
L 1259 4134 
L 1259 2759 
L 3109 2759 
L 3109 2228 
L 1259 2228 
L 1259 0 
L 628 0 
L 628 4666 
z
" id="DejaVuSans-46" transform="scale(0.015625)"/>
       <path d="M 2631 2963 
Q 2534 3019 2420 3045 
Q 2306 3072 2169 3072 
Q 1681 3072 1420 2755 
Q 1159 2438 1159 1844 
L 1159 0 
L 581 0 
L 581 3500 
L 1159 3500 
L 1159 2956 
Q 1341 3275 1631 3429 
Q 1922 3584 2338 3584 
Q 2397 3584 2469 3576 
Q 2541 3569 2628 3553 
L 2631 2963 
z
" id="DejaVuSans-72" transform="scale(0.015625)"/>
       <path d="M 947 1747 
Q 947 1113 1208 752 
Q 1469 391 1925 391 
Q 2381 391 2643 752 
Q 2906 1113 2906 1747 
Q 2906 2381 2643 2742 
Q 2381 3103 1925 3103 
Q 1469 3103 1208 2742 
Q 947 2381 947 1747 
z
M 2906 525 
Q 2725 213 2448 61 
Q 2172 -91 1784 -91 
Q 1150 -91 751 415 
Q 353 922 353 1747 
Q 353 2572 751 3078 
Q 1150 3584 1784 3584 
Q 2172 3584 2448 3432 
Q 2725 3281 2906 2969 
L 2906 3500 
L 3481 3500 
L 3481 -1331 
L 2906 -1331 
L 2906 525 
z
" id="DejaVuSans-71" transform="scale(0.015625)"/>
       <path d="M 544 1381 
L 544 3500 
L 1119 3500 
L 1119 1403 
Q 1119 906 1312 657 
Q 1506 409 1894 409 
Q 2359 409 2629 706 
Q 2900 1003 2900 1516 
L 2900 3500 
L 3475 3500 
L 3475 0 
L 2900 0 
L 2900 538 
Q 2691 219 2414 64 
Q 2138 -91 1772 -91 
Q 1169 -91 856 284 
Q 544 659 544 1381 
z
M 1991 3584 
L 1991 3584 
z
" id="DejaVuSans-75" transform="scale(0.015625)"/>
       <path d="M 3513 2113 
L 3513 0 
L 2938 0 
L 2938 2094 
Q 2938 2591 2744 2837 
Q 2550 3084 2163 3084 
Q 1697 3084 1428 2787 
Q 1159 2491 1159 1978 
L 1159 0 
L 581 0 
L 581 3500 
L 1159 3500 
L 1159 2956 
Q 1366 3272 1645 3428 
Q 1925 3584 2291 3584 
Q 2894 3584 3203 3211 
Q 3513 2838 3513 2113 
z
" id="DejaVuSans-6e" transform="scale(0.015625)"/>
       <path d="M 3122 3366 
L 3122 2828 
Q 2878 2963 2633 3030 
Q 2388 3097 2138 3097 
Q 1578 3097 1268 2742 
Q 959 2388 959 1747 
Q 959 1106 1268 751 
Q 1578 397 2138 397 
Q 2388 397 2633 464 
Q 2878 531 3122 666 
L 3122 134 
Q 2881 22 2623 -34 
Q 2366 -91 2075 -91 
Q 1284 -91 818 406 
Q 353 903 353 1747 
Q 353 2603 823 3093 
Q 1294 3584 2113 3584 
Q 2378 3584 2631 3529 
Q 2884 3475 3122 3366 
z
" id="DejaVuSans-63" transform="scale(0.015625)"/>
       <path d="M 2059 -325 
Q 1816 -950 1584 -1140 
Q 1353 -1331 966 -1331 
L 506 -1331 
L 506 -850 
L 844 -850 
Q 1081 -850 1212 -737 
Q 1344 -625 1503 -206 
L 1606 56 
L 191 3500 
L 800 3500 
L 1894 763 
L 2988 3500 
L 3597 3500 
L 2059 -325 
z
" id="DejaVuSans-79" transform="scale(0.015625)"/>
       <path id="DejaVuSans-20" transform="scale(0.015625)"/>
       <path d="M 1984 4856 
Q 1566 4138 1362 3434 
Q 1159 2731 1159 2009 
Q 1159 1288 1364 580 
Q 1569 -128 1984 -844 
L 1484 -844 
Q 1016 -109 783 600 
Q 550 1309 550 2009 
Q 550 2706 781 3412 
Q 1013 4119 1484 4856 
L 1984 4856 
z
" id="DejaVuSans-28" transform="scale(0.015625)"/>
       <path d="M 2906 2969 
L 2906 4863 
L 3481 4863 
L 3481 0 
L 2906 0 
L 2906 525 
Q 2725 213 2448 61 
Q 2172 -91 1784 -91 
Q 1150 -91 751 415 
Q 353 922 353 1747 
Q 353 2572 751 3078 
Q 1150 3584 1784 3584 
Q 2172 3584 2448 3432 
Q 2725 3281 2906 2969 
z
M 947 1747 
Q 947 1113 1208 752 
Q 1469 391 1925 391 
Q 2381 391 2643 752 
Q 2906 1113 2906 1747 
Q 2906 2381 2643 2742 
Q 2381 3103 1925 3103 
Q 1469 3103 1208 2742 
Q 947 2381 947 1747 
z
" id="DejaVuSans-64" transform="scale(0.015625)"/>
       <path d="M 1959 3097 
Q 1497 3097 1228 2736 
Q 959 2375 959 1747 
Q 959 1119 1226 758 
Q 1494 397 1959 397 
Q 2419 397 2687 759 
Q 2956 1122 2956 1747 
Q 2956 2369 2687 2733 
Q 2419 3097 1959 3097 
z
M 1959 3584 
Q 2709 3584 3137 3096 
Q 3566 2609 3566 1747 
Q 3566 888 3137 398 
Q 2709 -91 1959 -91 
Q 1206 -91 779 398 
Q 353 888 353 1747 
Q 353 2609 779 3096 
Q 1206 3584 1959 3584 
z
" id="DejaVuSans-6f" transform="scale(0.015625)"/>
       <path d="M 603 4863 
L 1178 4863 
L 1178 0 
L 603 0 
L 603 4863 
z
" id="DejaVuSans-6c" transform="scale(0.015625)"/>
       <path d="M 603 3500 
L 1178 3500 
L 1178 0 
L 603 0 
L 603 3500 
z
M 603 4863 
L 1178 4863 
L 1178 4134 
L 603 4134 
L 603 4863 
z
" id="DejaVuSans-69" transform="scale(0.015625)"/>
       <path d="M 2906 1791 
Q 2906 2416 2648 2759 
Q 2391 3103 1925 3103 
Q 1463 3103 1205 2759 
Q 947 2416 947 1791 
Q 947 1169 1205 825 
Q 1463 481 1925 481 
Q 2391 481 2648 825 
Q 2906 1169 2906 1791 
z
M 3481 434 
Q 3481 -459 3084 -895 
Q 2688 -1331 1869 -1331 
Q 1566 -1331 1297 -1286 
Q 1028 -1241 775 -1147 
L 775 -588 
Q 1028 -725 1275 -790 
Q 1522 -856 1778 -856 
Q 2344 -856 2625 -561 
Q 2906 -266 2906 331 
L 2906 616 
Q 2728 306 2450 153 
Q 2172 0 1784 0 
Q 1141 0 747 490 
Q 353 981 353 1791 
Q 353 2603 747 3093 
Q 1141 3584 1784 3584 
Q 2172 3584 2450 3431 
Q 2728 3278 2906 2969 
L 2906 3500 
L 3481 3500 
L 3481 434 
z
" id="DejaVuSans-67" transform="scale(0.015625)"/>
       <path d="M 191 3500 
L 800 3500 
L 1894 563 
L 2988 3500 
L 3597 3500 
L 2284 0 
L 1503 0 
L 191 3500 
z
" id="DejaVuSans-76" transform="scale(0.015625)"/>
       <path d="M 513 4856 
L 1013 4856 
Q 1481 4119 1714 3412 
Q 1947 2706 1947 2009 
Q 1947 1309 1714 600 
Q 1481 -109 1013 -844 
L 513 -844 
Q 928 -128 1133 580 
Q 1338 1288 1338 2009 
Q 1338 2731 1133 3434 
Q 928 4138 513 4856 
z
" id="DejaVuSans-29" transform="scale(0.015625)"/>
      </defs>
      <use xlink:href="#DejaVuSans-46"/>
      <use x="50.269531" xlink:href="#DejaVuSans-72"/>
      <use x="89.132812" xlink:href="#DejaVuSans-65"/>
      <use x="150.65625" xlink:href="#DejaVuSans-71"/>
      <use x="214.132812" xlink:href="#DejaVuSans-75"/>
      <use x="277.511719" xlink:href="#DejaVuSans-65"/>
      <use x="339.035156" xlink:href="#DejaVuSans-6e"/>
      <use x="402.414062" xlink:href="#DejaVuSans-63"/>
      <use x="457.394531" xlink:href="#DejaVuSans-79"/>
      <use x="516.574219" xlink:href="#DejaVuSans-20"/>
      <use x="548.361328" xlink:href="#DejaVuSans-28"/>
      <use x="587.375" xlink:href="#DejaVuSans-37"/>
      <use x="650.998047" xlink:href="#DejaVuSans-20"/>
      <use x="682.785156" xlink:href="#DejaVuSans-64"/>
      <use x="746.261719" xlink:href="#DejaVuSans-61"/>
      <use x="807.541016" xlink:href="#DejaVuSans-79"/>
      <use x="866.720703" xlink:href="#DejaVuSans-20"/>
      <use x="898.507812" xlink:href="#DejaVuSans-72"/>
      <use x="937.371094" xlink:href="#DejaVuSans-6f"/>
      <use x="998.552734" xlink:href="#DejaVuSans-6c"/>
      <use x="1026.335938" xlink:href="#DejaVuSans-6c"/>
      <use x="1054.119141" xlink:href="#DejaVuSans-69"/>
      <use x="1081.902344" xlink:href="#DejaVuSans-6e"/>
      <use x="1145.28125" xlink:href="#DejaVuSans-67"/>
      <use x="1208.757812" xlink:href="#DejaVuSans-20"/>
      <use x="1240.544922" xlink:href="#DejaVuSans-61"/>
      <use x="1301.824219" xlink:href="#DejaVuSans-76"/>
      <use x="1361.003906" xlink:href="#DejaVuSans-65"/>
      <use x="1422.527344" xlink:href="#DejaVuSans-72"/>
      <use x="1463.640625" xlink:href="#DejaVuSans-61"/>
      <use x="1524.919922" xlink:href="#DejaVuSans-67"/>
      <use x="1588.396484" xlink:href="#DejaVuSans-65"/>
      <use x="1649.919922" xlink:href="#DejaVuSans-29"/>
     </g>
    </g>
   </g>
   <g id="line2d_16">
    <path clip-path="url(#p5e3ea51680)" d="M 293.60789 228.827841 
L 301.638593 228.96 
L 315.023098 228.96 
L 317.699999 228.841827 
L 328.407602 228.841827 
L 331.084503 228.96 
L 333.761404 228.96 
L 336.438305 228.746284 
L 347.145909 228.746284 
L 349.82281 228.908542 
L 360.530413 228.797693 
L 365.884215 228.549855 
L 368.561116 228.598971 
L 371.238017 228.487315 
L 379.26872 228.434844 
L 381.945621 228.312304 
L 387.299423 228.378888 
L 395.330126 228.717791 
L 406.037729 228.264607 
L 408.71463 228.414041 
L 416.745333 228.214158 
L 419.422234 228.455405 
L 422.099135 228.310971 
L 424.776036 228.466029 
L 430.129838 228.413696 
L 432.806739 228.24347 
L 451.545045 228.65284 
L 454.221946 228.422291 
L 462.252649 228.198323 
L 464.92955 228.018352 
L 467.606451 228.033174 
L 470.283352 227.668304 
L 472.960253 227.551284 
L 478.314055 227.657243 
L 480.990956 227.169259 
L 483.667857 227.347333 
L 486.344757 227.302132 
L 489.021658 226.996155 
L 491.698559 226.5286 
L 494.37546 226.964828 
L 497.052361 226.823833 
L 499.729262 226.407981 
L 502.406163 226.46516 
L 505.083064 226.710138 
L 507.759965 226.648176 
L 510.436866 226.886179 
L 513.113767 227.261981 
L 518.467569 227.550421 
L 521.14447 227.663198 
L 523.821371 227.608196 
L 526.498271 227.806118 
L 529.175172 227.53171 
L 531.852073 227.715062 
L 537.205875 226.939191 
L 539.882776 226.954197 
L 542.559677 227.245534 
L 545.236578 227.324144 
L 547.913479 227.729682 
L 550.59038 227.99703 
L 558.621083 227.614553 
L 563.974885 227.581972 
L 566.651786 227.690349 
L 572.005587 227.179664 
L 580.03629 227.634375 
L 582.713191 228.018186 
L 588.066993 228.12339 
L 593.420795 227.940237 
L 596.097696 227.96442 
L 598.774597 228.184349 
L 601.451498 228.109687 
L 604.128399 227.776386 
L 609.4822 227.516402 
L 614.836002 226.92857 
L 617.512903 227.383457 
L 622.866705 226.826845 
L 625.543606 226.781683 
L 628.220507 227.228525 
L 630.897408 226.661257 
L 633.574309 226.729168 
L 638.928111 227.366777 
L 641.605012 226.935518 
L 644.281913 227.267859 
L 646.958814 227.717315 
L 649.635714 227.893031 
L 652.312615 227.303097 
L 654.989516 226.926887 
L 657.666417 226.958857 
L 660.343318 226.879186 
L 663.020219 226.596272 
L 668.374021 227.823198 
L 687.112328 227.624278 
L 697.819931 228.657063 
L 700.496832 228.800591 
L 705.850634 228.596788 
L 711.204436 228.697384 
L 713.881337 228.637019 
L 719.235139 228.840822 
L 721.91204 228.788325 
L 729.942743 228.858196 
L 879.849195 228.933895 
L 879.849195 228.933895 
" style="fill:none;stroke:#947383;stroke-linecap:square;stroke-width:2;"/>
   </g>
   <g id="line2d_17">
    <path clip-path="url(#p5e3ea51680)" d="M 296.284791 226.360192 
L 298.961692 228.96 
L 339.115206 228.96 
L 341.792107 226.760163 
L 347.145909 225.806751 
L 352.499711 225.806751 
L 355.176612 227.956777 
L 357.853513 228.427524 
L 360.530413 228.341077 
L 363.207314 227.490582 
L 365.884215 227.093389 
L 371.238017 227.1432 
L 373.914918 227.485739 
L 376.591819 227.030394 
L 379.26872 226.692737 
L 381.945621 226.692737 
L 387.299423 226.175371 
L 389.976324 227.183316 
L 392.653225 227.487042 
L 398.007027 227.13679 
L 400.683928 227.130782 
L 406.037729 227.501451 
L 408.71463 227.361917 
L 411.391531 226.573269 
L 414.068432 226.851919 
L 416.745333 226.606567 
L 419.422234 226.641586 
L 422.099135 226.443194 
L 424.776036 227.562318 
L 427.452937 227.619285 
L 430.129838 227.238286 
L 432.806739 227.002863 
L 435.48364 226.995471 
L 440.837442 226.776202 
L 443.514342 227.134229 
L 448.868144 226.16028 
L 451.545045 225.944041 
L 454.221946 225.522674 
L 456.898847 225.562223 
L 462.252649 226.803491 
L 464.92955 226.148821 
L 467.606451 225.623961 
L 470.283352 225.595373 
L 472.960253 225.362168 
L 475.637154 225.303874 
L 478.314055 226.376665 
L 480.990956 227.020694 
L 483.667857 227.302071 
L 486.344757 226.563844 
L 489.021658 226.642518 
L 494.37546 225.385539 
L 497.052361 224.496136 
L 499.729262 224.47465 
L 502.406163 223.533058 
L 505.083064 223.145111 
L 507.759965 223.769631 
L 510.436866 224.201818 
L 513.113767 224.960998 
L 518.467569 225.598315 
L 521.14447 225.150057 
L 523.821371 223.232632 
L 526.498271 222.69721 
L 529.175172 222.957926 
L 531.852073 222.773168 
L 534.528974 223.154709 
L 537.205875 224.666426 
L 539.882776 224.549231 
L 542.559677 223.811061 
L 545.236578 223.820421 
L 547.913479 223.427147 
L 550.59038 223.833501 
L 553.267281 224.658452 
L 555.944182 224.968323 
L 558.621083 225.165365 
L 561.297984 224.979321 
L 563.974885 224.595433 
L 566.651786 224.0058 
L 569.328686 224.37291 
L 572.005587 223.948944 
L 577.359389 224.468576 
L 580.03629 224.564644 
L 582.713191 224.549024 
L 585.390092 225.133173 
L 588.066993 225.435402 
L 590.743894 225.147706 
L 593.420795 225.168563 
L 596.097696 225.04867 
L 598.774597 224.779466 
L 606.8053 224.466612 
L 612.159101 225.176222 
L 614.836002 225.230734 
L 617.512903 225.723369 
L 620.189804 225.604525 
L 625.543606 224.723182 
L 628.220507 224.725706 
L 633.574309 225.264065 
L 636.25121 225.700249 
L 638.928111 225.69795 
L 644.281913 225.221552 
L 646.958814 225.259209 
L 649.635714 224.946491 
L 652.312615 225.312137 
L 654.989516 225.795384 
L 657.666417 225.48633 
L 663.020219 226.49276 
L 665.69712 225.981097 
L 668.374021 225.68142 
L 671.050922 226.367293 
L 673.727823 226.427535 
L 676.404724 226.112065 
L 679.081625 226.461206 
L 681.758526 226.697039 
L 687.112328 225.984541 
L 689.789229 226.201878 
L 692.466129 226.640061 
L 697.819931 226.444789 
L 700.496832 226.632374 
L 705.850634 226.709358 
L 711.204436 227.662288 
L 713.881337 227.232224 
L 716.558238 227.220643 
L 721.91204 226.944199 
L 724.588941 226.584994 
L 727.265842 226.519478 
L 729.942743 226.821336 
L 732.619643 226.679751 
L 735.296544 226.330389 
L 737.973445 226.435566 
L 740.650346 226.821629 
L 743.327247 226.668744 
L 748.681049 227.435013 
L 751.35795 227.247806 
L 754.034851 227.369817 
L 756.711752 226.776326 
L 762.065554 226.564708 
L 764.742455 224.731845 
L 767.419356 225.058663 
L 770.096257 225.573059 
L 772.773158 225.625933 
L 775.450058 225.24138 
L 778.126959 227.289867 
L 780.80386 227.031914 
L 786.157662 226.920584 
L 788.834563 227.021172 
L 791.511464 226.96423 
L 794.188365 227.069239 
L 796.865266 227.444492 
L 799.542167 227.557553 
L 802.219068 228.194578 
L 804.895969 228.420045 
L 807.57287 228.258345 
L 812.926672 228.338551 
L 815.603572 228.172766 
L 818.280473 228.183922 
L 820.957374 228.478693 
L 826.311176 228.447794 
L 831.664978 228.599323 
L 845.049483 228.800836 
L 850.403285 228.846794 
L 901.264402 228.933745 
L 911.972006 228.936721 
L 1115.416477 228.939041 
L 1115.416477 228.939041 
" style="fill:none;stroke:#96c6ad;stroke-linecap:square;stroke-width:2;"/>
   </g>
   <g id="line2d_18">
    <path clip-path="url(#p5e3ea51680)" d="M 290.930989 226.142475 
L 293.60789 228.96 
L 349.82281 228.904308 
L 360.530413 228.640839 
L 368.561116 228.511366 
L 379.26872 228.47727 
L 384.622522 228.519008 
L 387.299423 228.364848 
L 392.653225 228.530562 
L 395.330126 228.356365 
L 400.683928 228.495395 
L 403.360828 228.245741 
L 406.037729 228.334589 
L 408.71463 228.551486 
L 414.068432 228.326676 
L 419.422234 228.212377 
L 427.452937 227.856574 
L 430.129838 227.991194 
L 435.48364 227.992768 
L 438.160541 228.179744 
L 443.514342 227.730223 
L 446.191243 227.745603 
L 451.545045 227.322737 
L 456.898847 227.543838 
L 470.283352 226.495569 
L 475.637154 225.971677 
L 478.314055 225.525081 
L 480.990956 225.272977 
L 483.667857 225.174794 
L 486.344757 224.481747 
L 489.021658 224.52864 
L 491.698559 224.998159 
L 494.37546 225.240656 
L 497.052361 225.063636 
L 499.729262 225.588925 
L 505.083064 224.701879 
L 507.759965 224.799639 
L 510.436866 224.598544 
L 513.113767 224.261549 
L 518.467569 225.046559 
L 521.14447 224.822614 
L 529.175172 226.256851 
L 531.852073 226.268045 
L 534.528974 226.579828 
L 537.205875 226.639814 
L 539.882776 226.207471 
L 542.559677 225.320393 
L 545.236578 224.564329 
L 547.913479 224.245955 
L 550.59038 223.294032 
L 553.267281 223.106648 
L 555.944182 223.202753 
L 558.621083 223.669417 
L 561.297984 223.341849 
L 563.974885 223.673559 
L 566.651786 223.8852 
L 569.328686 224.219105 
L 574.682488 223.880658 
L 577.359389 223.424131 
L 580.03629 223.243405 
L 585.390092 223.194783 
L 588.066993 223.552845 
L 590.743894 224.383864 
L 593.420795 224.517572 
L 596.097696 224.131414 
L 598.774597 224.205331 
L 601.451498 224.558467 
L 604.128399 224.562638 
L 606.8053 225.027554 
L 609.4822 225.341337 
L 612.159101 225.77603 
L 614.836002 225.450207 
L 617.512903 225.603788 
L 620.189804 225.314184 
L 625.543606 225.361258 
L 628.220507 225.800608 
L 630.897408 225.877349 
L 636.25121 226.949661 
L 641.605012 226.755584 
L 644.281913 226.205187 
L 646.958814 225.921676 
L 649.635714 225.457672 
L 652.312615 225.177783 
L 654.989516 225.222578 
L 657.666417 225.612706 
L 660.343318 225.637522 
L 671.050922 226.472343 
L 676.404724 226.49696 
L 679.081625 226.820308 
L 684.435427 226.526681 
L 687.112328 226.371386 
L 689.789229 226.597766 
L 692.466129 226.638124 
L 697.819931 226.941519 
L 700.496832 226.98513 
L 703.173733 227.204461 
L 705.850634 226.978375 
L 711.204436 227.036328 
L 713.881337 227.504857 
L 716.558238 227.541018 
L 719.235139 227.794618 
L 721.91204 227.89802 
L 724.588941 227.77579 
L 727.265842 227.780791 
L 729.942743 227.508717 
L 732.619643 227.537592 
L 735.296544 227.440417 
L 737.973445 227.77577 
L 740.650346 227.57521 
L 748.681049 227.879732 
L 751.35795 227.629334 
L 754.034851 227.831674 
L 759.388653 226.89522 
L 762.065554 226.845759 
L 764.742455 227.002943 
L 767.419356 227.024214 
L 770.096257 227.746472 
L 772.773158 228.345932 
L 775.450058 226.347772 
L 778.126959 225.608444 
L 783.480761 225.839009 
L 786.157662 224.224584 
L 788.834563 226.326266 
L 791.511464 227.28102 
L 796.865266 227.21902 
L 799.542167 228.897999 
L 804.895969 228.589307 
L 812.926672 228.601788 
L 818.280473 228.91048 
L 837.01878 228.87638 
L 842.372582 228.759932 
L 850.403285 228.843551 
L 855.757087 228.96 
L 858.433987 228.925659 
L 858.433987 228.925659 
" style="fill:none;stroke:#525886;stroke-linecap:square;stroke-width:2;"/>
   </g>
   <g id="line2d_19">
    <path clip-path="url(#p5e3ea51680)" d="M 341.792107 222.231086 
L 344.469008 206.081693 
L 347.145909 206.081693 
L 349.82281 203.421425 
L 352.499711 201.739197 
L 355.176612 201.739197 
L 357.853513 224.617503 
L 360.530413 224.617503 
L 363.207314 226.177853 
L 365.884215 227.555037 
L 373.914918 227.555037 
L 376.591819 228.654956 
L 379.26872 228.15819 
L 381.945621 228.15819 
L 384.622522 227.833214 
L 389.976324 227.833214 
L 392.653225 228.40393 
L 395.330126 228.40393 
L 398.007027 228.728906 
L 400.683928 228.728906 
L 403.360828 228.389465 
L 406.037729 226.703383 
L 408.71463 225.304953 
L 411.391531 225.304953 
L 414.068432 225.164939 
L 416.745333 224.556384 
L 419.422234 226.116087 
L 422.099135 227.514516 
L 424.776036 226.555928 
L 427.452937 226.455624 
L 430.129838 227.40362 
L 432.806739 227.761093 
L 435.48364 227.351088 
L 438.160541 227.939477 
L 440.837442 225.618791 
L 446.191243 224.501074 
L 451.545045 225.281278 
L 454.221946 227.415449 
L 456.898847 227.952498 
L 459.575748 228.121686 
L 462.252649 225.896169 
L 464.92955 225.419538 
L 467.606451 225.846372 
L 470.283352 225.360633 
L 472.960253 224.703034 
L 475.637154 226.42793 
L 478.314055 225.517998 
L 480.990956 225.517998 
L 483.667857 224.128466 
L 486.344757 224.59968 
L 489.021658 224.069745 
L 491.698559 224.350008 
L 494.37546 222.33922 
L 497.052361 223.824076 
L 499.729262 223.827699 
L 502.406163 224.160744 
L 505.083064 223.09112 
L 507.759965 224.860321 
L 510.436866 224.365695 
L 513.113767 223.18183 
L 515.790668 222.982854 
L 518.467569 225.15878 
L 521.14447 222.200604 
L 523.821371 222.499021 
L 526.498271 223.106882 
L 529.175172 221.845037 
L 531.852073 221.061533 
L 534.528974 223.248982 
L 537.205875 223.288277 
L 539.882776 223.814668 
L 542.559677 225.836003 
L 545.236578 224.073432 
L 547.913479 222.561243 
L 550.59038 222.701484 
L 553.267281 222.272918 
L 555.944182 222.218303 
L 558.621083 224.439403 
L 561.297984 225.677293 
L 563.974885 225.268464 
L 566.651786 225.462975 
L 569.328686 225.516765 
L 572.005587 225.029493 
L 574.682488 226.018985 
L 577.359389 226.631358 
L 580.03629 227.013636 
L 582.713191 226.659979 
L 585.390092 227.097173 
L 588.066993 226.790963 
L 590.743894 226.994506 
L 596.097696 227.608122 
L 598.774597 227.50173 
L 601.451498 227.995804 
L 604.128399 227.775397 
L 606.8053 227.920564 
L 609.4822 227.914241 
L 612.159101 228.395687 
L 617.512903 228.37586 
L 620.189804 228.37586 
L 622.866705 228.61051 
L 625.543606 228.61051 
L 630.897408 228.845264 
L 633.574309 228.845264 
L 638.928111 228.562529 
L 641.605012 228.426833 
L 649.635714 228.40161 
L 654.989516 227.880244 
L 660.343318 227.560785 
L 663.020219 227.706576 
L 668.374021 228.44971 
L 671.050922 228.347918 
L 673.727823 228.55292 
L 676.404724 228.638224 
L 679.081625 228.420542 
L 681.758526 228.332684 
L 684.435427 228.566263 
L 687.112328 228.566263 
L 689.789229 228.402847 
L 692.466129 228.620528 
L 711.204436 228.553474 
L 713.881337 228.226641 
L 716.558238 228.35619 
L 721.91204 228.156743 
L 724.588941 228.156743 
L 727.265842 227.505871 
L 732.619643 227.265228 
L 735.296544 227.310728 
L 737.973445 226.770508 
L 740.650346 227.456026 
L 743.327247 227.408725 
L 756.711752 228.665556 
L 762.065554 228.665556 
L 764.742455 228.96 
L 767.419356 228.96 
L 770.096257 228.812398 
L 772.773158 227.832179 
L 783.480761 227.746329 
L 786.157662 228.726548 
L 794.188365 228.454261 
L 796.865266 228.570268 
L 799.542167 228.417746 
L 804.895969 228.690033 
L 807.57287 228.586323 
L 815.603572 228.856291 
L 818.280473 228.856291 
L 820.957374 228.742111 
L 823.634275 228.742111 
L 826.311176 228.628062 
L 831.664978 228.546876 
L 834.341879 228.764764 
L 837.01878 228.764764 
L 839.695681 228.878814 
L 882.526096 228.96 
L 885.202997 228.601967 
L 887.879898 228.426453 
L 895.910601 228.309054 
L 898.587501 228.667087 
L 901.264402 228.842602 
L 903.941303 228.888505 
L 906.618204 228.770033 
L 917.325808 228.711903 
L 920.002709 228.901869 
L 992.279034 228.896378 
L 992.279034 228.896378 
" style="fill:none;stroke:#937252;stroke-linecap:square;stroke-width:2;"/>
   </g>
   <g id="line2d_20">
    <path clip-path="url(#p5e3ea51680)" d="M 100.871023 114.568467 
L 103.547924 228.96 
L 269.515782 228.96 
L 272.192683 200.362117 
L 282.900286 200.362117 
L 285.577187 228.96 
L 290.930989 228.96 
L 293.60789 212.618352 
L 296.284791 184.020469 
L 298.961692 184.020469 
L 301.638593 177.291555 
L 304.315494 139.161044 
L 306.992395 155.502692 
L 309.669296 184.100575 
L 312.346197 184.100575 
L 315.023098 180.430259 
L 317.699999 205.850599 
L 320.376899 175.747564 
L 325.730701 175.747564 
L 328.407602 186.146795 
L 331.084503 167.659274 
L 333.761404 165.079014 
L 336.438305 142.200707 
L 339.115206 96.444094 
L 341.792107 86.911466 
L 344.469008 96.781922 
L 347.145909 97.355313 
L 349.82281 120.23362 
L 352.499711 152.263249 
L 355.176612 152.520888 
L 357.853513 166.222021 
L 360.530413 158.294888 
L 363.207314 128.453618 
L 365.884215 135.825517 
L 368.561116 124.302046 
L 371.238017 74.732381 
L 373.914918 104.370188 
L 376.591819 96.080946 
L 379.26872 92.903404 
L 381.945621 81.018569 
L 384.622522 115.336029 
L 387.299423 93.959833 
L 389.976324 132.090345 
L 392.653225 100.314919 
L 395.330126 94.867703 
L 398.007027 68.01056 
L 400.683928 74.619849 
L 403.360828 72.540003 
L 406.037729 108.12848 
L 408.71463 124.470127 
L 411.391531 137.93509 
L 414.068432 117.344614 
L 416.745333 79.737602 
L 419.422234 37.79404 
L 422.099135 35.91569 
L 424.776036 29.289351 
L 427.452937 32.149139 
L 430.129838 17.76 
L 432.806739 39.025093 
L 435.48364 31.494616 
L 438.160541 34.946084 
L 440.837442 46.645218 
L 443.514342 62.590705 
L 446.191243 31.792984 
L 448.868144 42.803934 
L 451.545045 66.287681 
L 454.221946 88.281455 
L 456.898847 113.701796 
L 459.575748 164.360904 
L 462.252649 173.387495 
L 464.92955 189.349105 
L 467.606451 183.949847 
L 470.283352 186.260787 
L 472.960253 181.358292 
L 475.637154 171.070029 
L 478.314055 169.06316 
L 480.990956 183.666335 
L 483.667857 194.065565 
L 486.344757 181.900116 
L 489.021658 184.283273 
L 491.698559 159.252144 
L 497.052361 119.535141 
L 499.729262 118.272018 
L 502.406163 92.273942 
L 505.083064 87.388723 
L 507.759965 77.615777 
L 510.436866 88.248919 
L 513.113767 101.818714 
L 515.790668 141.682431 
L 518.467569 155.155402 
L 521.14447 167.516392 
L 523.821371 167.614162 
L 526.498271 174.023564 
L 529.175172 176.172739 
L 531.852073 181.707813 
L 534.528974 196.256069 
L 537.205875 193.98527 
L 539.882776 198.873797 
L 542.559677 193.124889 
L 545.236578 199.311148 
L 547.913479 194.042205 
L 550.59038 192.402183 
L 553.267281 181.187327 
L 555.944182 172.579268 
L 558.621083 148.803773 
L 561.297984 148.489834 
L 563.974885 155.333772 
L 566.651786 154.069552 
L 569.328686 149.607989 
L 572.005587 171.081488 
L 574.682488 171.241364 
L 577.359389 115.009336 
L 580.03629 113.18947 
L 582.713191 131.180761 
L 585.390092 118.30691 
L 588.066993 122.543633 
L 590.743894 175.563201 
L 593.420795 189.862143 
L 596.097696 189.16416 
L 598.774597 200.17449 
L 604.128399 201.043533 
L 609.4822 188.125251 
L 612.159101 184.259485 
L 614.836002 183.306222 
L 617.512903 184.313443 
L 620.189804 184.892347 
L 622.866705 192.155302 
L 625.543606 204.908631 
L 628.220507 203.546827 
L 630.897408 207.995386 
L 633.574309 214.015993 
L 636.25121 212.367861 
L 638.928111 202.675596 
L 641.605012 206.369852 
L 644.281913 200.014767 
L 646.958814 181.338598 
L 649.635714 182.928158 
L 652.312615 185.827943 
L 654.989516 188.261805 
L 657.666417 195.134165 
L 660.343318 205.399191 
L 663.020219 209.089241 
L 665.69712 214.36885 
L 668.374021 214.36885 
L 671.050922 213.664662 
L 673.727823 219.875966 
L 676.404724 218.463725 
L 679.081625 212.084198 
L 681.758526 209.701041 
L 684.435427 205.916027 
L 687.112328 208.115864 
L 689.789229 209.528105 
L 692.466129 213.819944 
L 695.14303 216.203101 
L 697.819931 223.352572 
L 703.173733 217.806112 
L 705.850634 223.41354 
L 708.527535 219.013866 
L 711.204436 217.699021 
L 713.881337 218.844295 
L 716.558238 212.834983 
L 719.235139 210.828114 
L 721.91204 215.227789 
L 724.588941 211.095418 
L 727.265842 209.131831 
L 729.942743 217.93118 
L 732.619643 217.650218 
L 735.296544 217.650218 
L 737.973445 223.097434 
L 740.650346 225.632246 
L 743.327247 222.69913 
L 746.004148 224.986961 
L 748.681049 224.064448 
L 751.35795 223.587817 
L 754.034851 224.62774 
L 756.711752 227.560856 
L 759.388653 227.560856 
L 762.065554 228.483369 
L 764.742455 228.96 
L 767.419356 228.306334 
L 770.096257 228.306334 
L 772.773158 227.184848 
L 775.450058 227.184848 
L 778.126959 226.343734 
L 780.80386 226.9974 
L 783.480761 226.9974 
L 786.157662 228.118886 
L 788.834563 228.118886 
L 791.511464 228.96 
L 794.188365 228.96 
L 796.865266 226.953131 
L 807.57287 226.953131 
L 810.249771 228.498744 
L 812.926672 227.932449 
L 815.603572 227.19917 
L 820.957374 227.19917 
L 826.311176 228.226721 
L 828.988077 228.427946 
L 839.695681 228.427946 
L 842.372582 228.96 
L 877.172294 228.96 
L 879.849195 227.798665 
L 885.202997 227.798665 
L 887.879898 227.205962 
L 890.556799 227.205962 
L 893.2337 225.675732 
L 895.910601 221.59032 
L 898.587501 221.012585 
L 901.264402 221.605288 
L 903.941303 221.605288 
L 906.618204 224.296853 
L 909.295105 228.382265 
L 911.972006 228.96 
L 944.094817 228.96 
L 946.771718 228.207424 
L 957.479322 228.207424 
L 960.156223 228.96 
L 970.863827 228.96 
L 973.540728 228.466933 
L 984.248331 228.466933 
L 986.925232 228.96 
L 992.279034 228.96 
L 994.955935 228.283127 
L 1005.663539 228.283127 
L 1008.34044 228.96 
L 1019.048044 228.96 
L 1021.724945 227.493442 
L 1021.724945 227.493442 
" style="fill:none;stroke:#d18cad;stroke-linecap:square;stroke-width:2;"/>
   </g>
   <g id="line2d_21">
    <path clip-path="url(#p5e3ea51680)" d="M 352.499711 219.427372 
L 355.176612 228.96 
L 408.71463 228.96 
L 411.391531 114.568467 
L 422.099135 114.568467 
L 424.776036 228.96 
L 432.806739 228.96 
L 435.48364 190.829489 
L 446.191243 190.829489 
L 448.868144 228.96 
L 491.698559 228.96 
L 494.37546 114.568467 
L 505.083064 114.568467 
L 507.759965 228.96 
L 513.113767 228.96 
L 515.790668 220.789176 
L 526.498271 220.789176 
L 529.175172 228.96 
L 545.236578 228.96 
L 547.913479 216.24983 
L 558.621083 216.24983 
L 561.297984 223.240423 
L 572.005587 223.240423 
L 574.682488 228.96 
L 585.390092 228.96 
L 588.066993 171.764233 
L 590.743894 171.764233 
L 593.420795 161.365003 
L 598.774597 161.365003 
L 601.451498 218.56077 
L 604.128399 218.56077 
L 606.8053 228.96 
L 663.020219 228.96 
L 665.69712 216.24983 
L 676.404724 216.24983 
L 679.081625 152.698978 
L 681.758526 152.698978 
L 684.435427 136.35733 
L 687.112328 107.759447 
L 689.789229 107.759447 
L 692.466129 184.020469 
L 695.14303 184.020469 
L 697.819931 200.362117 
L 700.496832 228.96 
L 716.558238 228.96 
L 719.235139 219.427372 
L 727.265842 219.427372 
L 729.942743 205.128431 
L 729.942743 205.128431 
" style="fill:none;stroke:#a4a86f;stroke-linecap:square;stroke-width:2;"/>
   </g>
   <g id="line2d_22">
    <path clip-path="url(#p5e3ea51680)" d="M 459.575748 228.171093 
L 462.252649 228.96 
L 464.92955 228.96 
L 467.606451 228.96 
L 470.283352 228.96 
L 472.960253 228.96 
L 475.637154 228.96 
L 478.314055 228.96 
L 480.990956 228.96 
L 483.667857 228.96 
L 486.344757 228.96 
L 489.021658 228.96 
L 491.698559 228.96 
L 494.37546 228.96 
L 497.052361 228.96 
L 499.729262 228.96 
L 502.406163 228.96 
L 505.083064 228.96 
L 507.759965 228.96 
L 510.436866 228.96 
L 513.113767 228.96 
L 515.790668 228.96 
L 518.467569 228.96 
L 521.14447 228.96 
L 523.821371 228.96 
L 526.498271 228.96 
L 529.175172 228.96 
L 531.852073 228.96 
L 534.528974 228.96 
L 537.205875 228.96 
L 539.882776 228.96 
L 542.559677 228.96 
L 545.236578 228.96 
L 547.913479 228.96 
L 550.59038 228.96 
L 553.267281 228.96 
L 555.944182 228.96 
L 558.621083 228.96 
L 561.297984 228.96 
L 563.974885 228.96 
L 566.651786 228.96 
L 569.328686 228.96 
L 572.005587 228.96 
L 574.682488 228.96 
L 577.359389 228.96 
L 580.03629 228.96 
L 582.713191 228.96 
L 585.390092 228.96 
L 588.066993 228.96 
L 590.743894 228.96 
L 593.420795 228.96 
L 596.097696 228.96 
L 598.774597 228.96 
L 601.451498 228.96 
L 604.128399 228.96 
L 606.8053 228.96 
L 609.4822 228.96 
L 612.159101 228.96 
L 614.836002 228.96 
L 617.512903 228.96 
L 620.189804 228.96 
L 622.866705 228.96 
L 625.543606 228.96 
L 628.220507 228.96 
L 630.897408 228.96 
L 633.574309 228.96 
L 636.25121 228.96 
L 638.928111 228.96 
L 641.605012 228.96 
L 644.281913 228.96 
L 646.958814 228.96 
L 649.635714 228.96 
L 652.312615 228.96 
L 654.989516 228.96 
L 657.666417 228.554356 
" style="fill:none;stroke:#d3d3d3;stroke-linecap:square;stroke-width:2;"/>
   </g>
   <g id="patch_3">
    <path d="M 50.14375 228.96 
L 50.14375 7.2 
" style="fill:none;stroke:#000000;stroke-linecap:square;stroke-linejoin:miter;stroke-width:0.8;"/>
   </g>
   <g id="patch_4">
    <path d="M 50.14375 228.96 
L 1166.14375 228.96 
" style="fill:none;stroke:#000000;stroke-linecap:square;stroke-linejoin:miter;stroke-width:0.8;"/>
   </g>
   <g id="legend_1">
    <g id="line2d_23">
     <path d="M 1072.3325 17.67875 
L 1088.3325 17.67875 
" style="fill:none;stroke:#947383;stroke-linecap:square;stroke-width:2;"/>
    </g>
    <g id="line2d_24"/>
    <g id="text_18">
     <!-- United Kingdom -->
     <g transform="translate(1094.7325 20.47875)scale(0.08 -0.08)">
      <defs>
       <path d="M 556 4666 
L 1191 4666 
L 1191 1831 
Q 1191 1081 1462 751 
Q 1734 422 2344 422 
Q 2950 422 3222 751 
Q 3494 1081 3494 1831 
L 3494 4666 
L 4128 4666 
L 4128 1753 
Q 4128 841 3676 375 
Q 3225 -91 2344 -91 
Q 1459 -91 1007 375 
Q 556 841 556 1753 
L 556 4666 
z
" id="DejaVuSans-55" transform="scale(0.015625)"/>
       <path d="M 628 4666 
L 1259 4666 
L 1259 2694 
L 3353 4666 
L 4166 4666 
L 1850 2491 
L 4331 0 
L 3500 0 
L 1259 2247 
L 1259 0 
L 628 0 
L 628 4666 
z
" id="DejaVuSans-4b" transform="scale(0.015625)"/>
       <path d="M 3328 2828 
Q 3544 3216 3844 3400 
Q 4144 3584 4550 3584 
Q 5097 3584 5394 3201 
Q 5691 2819 5691 2113 
L 5691 0 
L 5113 0 
L 5113 2094 
Q 5113 2597 4934 2840 
Q 4756 3084 4391 3084 
Q 3944 3084 3684 2787 
Q 3425 2491 3425 1978 
L 3425 0 
L 2847 0 
L 2847 2094 
Q 2847 2600 2669 2842 
Q 2491 3084 2119 3084 
Q 1678 3084 1418 2786 
Q 1159 2488 1159 1978 
L 1159 0 
L 581 0 
L 581 3500 
L 1159 3500 
L 1159 2956 
Q 1356 3278 1631 3431 
Q 1906 3584 2284 3584 
Q 2666 3584 2933 3390 
Q 3200 3197 3328 2828 
z
" id="DejaVuSans-6d" transform="scale(0.015625)"/>
      </defs>
      <use xlink:href="#DejaVuSans-55"/>
      <use x="73.193359" xlink:href="#DejaVuSans-6e"/>
      <use x="136.572266" xlink:href="#DejaVuSans-69"/>
      <use x="164.355469" xlink:href="#DejaVuSans-74"/>
      <use x="203.564453" xlink:href="#DejaVuSans-65"/>
      <use x="265.087891" xlink:href="#DejaVuSans-64"/>
      <use x="328.564453" xlink:href="#DejaVuSans-20"/>
      <use x="360.351562" xlink:href="#DejaVuSans-4b"/>
      <use x="425.927734" xlink:href="#DejaVuSans-69"/>
      <use x="453.710938" xlink:href="#DejaVuSans-6e"/>
      <use x="517.089844" xlink:href="#DejaVuSans-67"/>
      <use x="580.566406" xlink:href="#DejaVuSans-64"/>
      <use x="644.042969" xlink:href="#DejaVuSans-6f"/>
      <use x="705.224609" xlink:href="#DejaVuSans-6d"/>
     </g>
    </g>
    <g id="line2d_25">
     <path d="M 1072.3325 29.42125 
L 1088.3325 29.42125 
" style="fill:none;stroke:#96c6ad;stroke-linecap:square;stroke-width:2;"/>
    </g>
    <g id="line2d_26"/>
    <g id="text_19">
     <!-- Europe -->
     <g transform="translate(1094.7325 32.22125)scale(0.08 -0.08)">
      <defs>
       <path d="M 628 4666 
L 3578 4666 
L 3578 4134 
L 1259 4134 
L 1259 2753 
L 3481 2753 
L 3481 2222 
L 1259 2222 
L 1259 531 
L 3634 531 
L 3634 0 
L 628 0 
L 628 4666 
z
" id="DejaVuSans-45" transform="scale(0.015625)"/>
       <path d="M 1159 525 
L 1159 -1331 
L 581 -1331 
L 581 3500 
L 1159 3500 
L 1159 2969 
Q 1341 3281 1617 3432 
Q 1894 3584 2278 3584 
Q 2916 3584 3314 3078 
Q 3713 2572 3713 1747 
Q 3713 922 3314 415 
Q 2916 -91 2278 -91 
Q 1894 -91 1617 61 
Q 1341 213 1159 525 
z
M 3116 1747 
Q 3116 2381 2855 2742 
Q 2594 3103 2138 3103 
Q 1681 3103 1420 2742 
Q 1159 2381 1159 1747 
Q 1159 1113 1420 752 
Q 1681 391 2138 391 
Q 2594 391 2855 752 
Q 3116 1113 3116 1747 
z
" id="DejaVuSans-70" transform="scale(0.015625)"/>
      </defs>
      <use xlink:href="#DejaVuSans-45"/>
      <use x="63.183594" xlink:href="#DejaVuSans-75"/>
      <use x="126.5625" xlink:href="#DejaVuSans-72"/>
      <use x="165.425781" xlink:href="#DejaVuSans-6f"/>
      <use x="226.607422" xlink:href="#DejaVuSans-70"/>
      <use x="290.083984" xlink:href="#DejaVuSans-65"/>
     </g>
    </g>
    <g id="line2d_27">
     <path d="M 1072.3325 41.16375 
L 1088.3325 41.16375 
" style="fill:none;stroke:#525886;stroke-linecap:square;stroke-width:2;"/>
    </g>
    <g id="line2d_28"/>
    <g id="text_20">
     <!-- North America -->
     <g transform="translate(1094.7325 43.96375)scale(0.08 -0.08)">
      <defs>
       <path d="M 628 4666 
L 1478 4666 
L 3547 763 
L 3547 4666 
L 4159 4666 
L 4159 0 
L 3309 0 
L 1241 3903 
L 1241 0 
L 628 0 
L 628 4666 
z
" id="DejaVuSans-4e" transform="scale(0.015625)"/>
       <path d="M 3513 2113 
L 3513 0 
L 2938 0 
L 2938 2094 
Q 2938 2591 2744 2837 
Q 2550 3084 2163 3084 
Q 1697 3084 1428 2787 
Q 1159 2491 1159 1978 
L 1159 0 
L 581 0 
L 581 4863 
L 1159 4863 
L 1159 2956 
Q 1366 3272 1645 3428 
Q 1925 3584 2291 3584 
Q 2894 3584 3203 3211 
Q 3513 2838 3513 2113 
z
" id="DejaVuSans-68" transform="scale(0.015625)"/>
       <path d="M 2188 4044 
L 1331 1722 
L 3047 1722 
L 2188 4044 
z
M 1831 4666 
L 2547 4666 
L 4325 0 
L 3669 0 
L 3244 1197 
L 1141 1197 
L 716 0 
L 50 0 
L 1831 4666 
z
" id="DejaVuSans-41" transform="scale(0.015625)"/>
      </defs>
      <use xlink:href="#DejaVuSans-4e"/>
      <use x="74.804688" xlink:href="#DejaVuSans-6f"/>
      <use x="135.986328" xlink:href="#DejaVuSans-72"/>
      <use x="177.099609" xlink:href="#DejaVuSans-74"/>
      <use x="216.308594" xlink:href="#DejaVuSans-68"/>
      <use x="279.6875" xlink:href="#DejaVuSans-20"/>
      <use x="311.474609" xlink:href="#DejaVuSans-41"/>
      <use x="379.882812" xlink:href="#DejaVuSans-6d"/>
      <use x="477.294922" xlink:href="#DejaVuSans-65"/>
      <use x="538.818359" xlink:href="#DejaVuSans-72"/>
      <use x="579.931641" xlink:href="#DejaVuSans-69"/>
      <use x="607.714844" xlink:href="#DejaVuSans-63"/>
      <use x="662.695312" xlink:href="#DejaVuSans-61"/>
     </g>
    </g>
    <g id="line2d_29">
     <path d="M 1072.3325 52.90625 
L 1088.3325 52.90625 
" style="fill:none;stroke:#937252;stroke-linecap:square;stroke-width:2;"/>
    </g>
    <g id="line2d_30"/>
    <g id="text_21">
     <!-- Asia -->
     <g transform="translate(1094.7325 55.70625)scale(0.08 -0.08)">
      <defs>
       <path d="M 2834 3397 
L 2834 2853 
Q 2591 2978 2328 3040 
Q 2066 3103 1784 3103 
Q 1356 3103 1142 2972 
Q 928 2841 928 2578 
Q 928 2378 1081 2264 
Q 1234 2150 1697 2047 
L 1894 2003 
Q 2506 1872 2764 1633 
Q 3022 1394 3022 966 
Q 3022 478 2636 193 
Q 2250 -91 1575 -91 
Q 1294 -91 989 -36 
Q 684 19 347 128 
L 347 722 
Q 666 556 975 473 
Q 1284 391 1588 391 
Q 1994 391 2212 530 
Q 2431 669 2431 922 
Q 2431 1156 2273 1281 
Q 2116 1406 1581 1522 
L 1381 1569 
Q 847 1681 609 1914 
Q 372 2147 372 2553 
Q 372 3047 722 3315 
Q 1072 3584 1716 3584 
Q 2034 3584 2315 3537 
Q 2597 3491 2834 3397 
z
" id="DejaVuSans-73" transform="scale(0.015625)"/>
      </defs>
      <use xlink:href="#DejaVuSans-41"/>
      <use x="68.408203" xlink:href="#DejaVuSans-73"/>
      <use x="120.507812" xlink:href="#DejaVuSans-69"/>
      <use x="148.291016" xlink:href="#DejaVuSans-61"/>
     </g>
    </g>
    <g id="line2d_31">
     <path d="M 1072.3325 64.64875 
L 1088.3325 64.64875 
" style="fill:none;stroke:#d18cad;stroke-linecap:square;stroke-width:2;"/>
    </g>
    <g id="line2d_32"/>
    <g id="text_22">
     <!-- Africa -->
     <g transform="translate(1094.7325 67.44875)scale(0.08 -0.08)">
      <defs>
       <path d="M 2375 4863 
L 2375 4384 
L 1825 4384 
Q 1516 4384 1395 4259 
Q 1275 4134 1275 3809 
L 1275 3500 
L 2222 3500 
L 2222 3053 
L 1275 3053 
L 1275 0 
L 697 0 
L 697 3053 
L 147 3053 
L 147 3500 
L 697 3500 
L 697 3744 
Q 697 4328 969 4595 
Q 1241 4863 1831 4863 
L 2375 4863 
z
" id="DejaVuSans-66" transform="scale(0.015625)"/>
      </defs>
      <use xlink:href="#DejaVuSans-41"/>
      <use x="64.783203" xlink:href="#DejaVuSans-66"/>
      <use x="99.988281" xlink:href="#DejaVuSans-72"/>
      <use x="141.101562" xlink:href="#DejaVuSans-69"/>
      <use x="168.884766" xlink:href="#DejaVuSans-63"/>
      <use x="223.865234" xlink:href="#DejaVuSans-61"/>
     </g>
    </g>
    <g id="line2d_33">
     <path d="M 1072.3325 76.39125 
L 1088.3325 76.39125 
" style="fill:none;stroke:#a4a86f;stroke-linecap:square;stroke-width:2;"/>
    </g>
    <g id="line2d_34"/>
    <g id="text_23">
     <!-- Oceania -->
     <g transform="translate(1094.7325 79.19125)scale(0.08 -0.08)">
      <defs>
       <path d="M 2522 4238 
Q 1834 4238 1429 3725 
Q 1025 3213 1025 2328 
Q 1025 1447 1429 934 
Q 1834 422 2522 422 
Q 3209 422 3611 934 
Q 4013 1447 4013 2328 
Q 4013 3213 3611 3725 
Q 3209 4238 2522 4238 
z
M 2522 4750 
Q 3503 4750 4090 4092 
Q 4678 3434 4678 2328 
Q 4678 1225 4090 567 
Q 3503 -91 2522 -91 
Q 1538 -91 948 565 
Q 359 1222 359 2328 
Q 359 3434 948 4092 
Q 1538 4750 2522 4750 
z
" id="DejaVuSans-4f" transform="scale(0.015625)"/>
      </defs>
      <use xlink:href="#DejaVuSans-4f"/>
      <use x="78.710938" xlink:href="#DejaVuSans-63"/>
      <use x="133.691406" xlink:href="#DejaVuSans-65"/>
      <use x="195.214844" xlink:href="#DejaVuSans-61"/>
      <use x="256.494141" xlink:href="#DejaVuSans-6e"/>
      <use x="319.873047" xlink:href="#DejaVuSans-69"/>
      <use x="347.65625" xlink:href="#DejaVuSans-61"/>
     </g>
    </g>
    <g id="line2d_35">
     <path d="M 1072.3325 88.13375 
L 1088.3325 88.13375 
" style="fill:none;stroke:#d3d3d3;stroke-linecap:square;stroke-width:2;"/>
    </g>
    <g id="line2d_36"/>
    <g id="text_24">
     <!-- South America -->
     <g transform="translate(1094.7325 90.93375)scale(0.08 -0.08)">
      <defs>
       <path d="M 3425 4513 
L 3425 3897 
Q 3066 4069 2747 4153 
Q 2428 4238 2131 4238 
Q 1616 4238 1336 4038 
Q 1056 3838 1056 3469 
Q 1056 3159 1242 3001 
Q 1428 2844 1947 2747 
L 2328 2669 
Q 3034 2534 3370 2195 
Q 3706 1856 3706 1288 
Q 3706 609 3251 259 
Q 2797 -91 1919 -91 
Q 1588 -91 1214 -16 
Q 841 59 441 206 
L 441 856 
Q 825 641 1194 531 
Q 1563 422 1919 422 
Q 2459 422 2753 634 
Q 3047 847 3047 1241 
Q 3047 1584 2836 1778 
Q 2625 1972 2144 2069 
L 1759 2144 
Q 1053 2284 737 2584 
Q 422 2884 422 3419 
Q 422 4038 858 4394 
Q 1294 4750 2059 4750 
Q 2388 4750 2728 4690 
Q 3069 4631 3425 4513 
z
" id="DejaVuSans-53" transform="scale(0.015625)"/>
      </defs>
      <use xlink:href="#DejaVuSans-53"/>
      <use x="63.476562" xlink:href="#DejaVuSans-6f"/>
      <use x="124.658203" xlink:href="#DejaVuSans-75"/>
      <use x="188.037109" xlink:href="#DejaVuSans-74"/>
      <use x="227.246094" xlink:href="#DejaVuSans-68"/>
      <use x="290.625" xlink:href="#DejaVuSans-20"/>
      <use x="322.412109" xlink:href="#DejaVuSans-41"/>
      <use x="390.820312" xlink:href="#DejaVuSans-6d"/>
      <use x="488.232422" xlink:href="#DejaVuSans-65"/>
      <use x="549.755859" xlink:href="#DejaVuSans-72"/>
      <use x="590.869141" xlink:href="#DejaVuSans-69"/>
      <use x="618.652344" xlink:href="#DejaVuSans-63"/>
      <use x="673.632812" xlink:href="#DejaVuSans-61"/>
     </g>
    </g>
   </g>
  </g>
 </g>
 <defs>
  <clipPath id="p5e3ea51680">
   <rect height="221.76" width="1116" x="50.14375" y="7.2"/>
  </clipPath>
 </defs>
</svg>
