<?xml version="1.0" encoding="utf-8" standalone="no"?>
<!DOCTYPE svg PUBLIC "-//W3C//DTD SVG 1.1//EN"
  "http://www.w3.org/Graphics/SVG/1.1/DTD/svg11.dtd">
<svg height="298.620937pt" version="1.1" viewBox="0 0 1166.98125 298.620937" width="1166.98125pt" xmlns="http://www.w3.org/2000/svg" xmlns:xlink="http://www.w3.org/1999/xlink">
 <metadata>
  <rdf:RDF xmlns:cc="http://creativecommons.org/ns#" xmlns:dc="http://purl.org/dc/elements/1.1/" xmlns:rdf="http://www.w3.org/1999/02/22-rdf-syntax-ns#">
   <cc:Work>
    <dc:type rdf:resource="http://purl.org/dc/dcmitype/StillImage"/>
    <dc:date>2021-11-27T12:55:10.400801</dc:date>
    <dc:format>image/svg+xml</dc:format>
    <dc:creator>
     <cc:Agent>
      <dc:title>Matplotlib v3.4.2, https://matplotlib.org/</dc:title>
     </cc:Agent>
    </dc:creator>
   </cc:Work>
  </rdf:RDF>
 </metadata>
 <defs>
  <style type="text/css">*{stroke-linecap:butt;stroke-linejoin:round;}</style>
 </defs>
 <g id="figure_1">
  <g id="patch_1">
   <path d="M 0 298.620937 
L 1166.98125 298.620937 
L 1166.98125 0 
L 0 0 
z
" style="fill:#ffffff;"/>
  </g>
  <g id="axes_1">
   <g id="patch_2">
    <path d="M 43.78125 228.96 
L 1159.78125 228.96 
L 1159.78125 7.2 
L 43.78125 7.2 
z
" style="fill:#ffffff;"/>
   </g>
   <g id="matplotlib.axis_1">
    <g id="xtick_1">
     <g id="line2d_1">
      <defs>
       <path d="M 0 0 
L 0 3.5 
" id="mbb74b263a9" style="stroke:#000000;stroke-width:0.8;"/>
      </defs>
      <g>
       <use style="stroke:#000000;stroke-width:0.8;" x="84.753278" xlink:href="#mbb74b263a9" y="228.96"/>
      </g>
     </g>
     <g id="text_1">
      <!-- 2020-09 -->
      <g transform="translate(87.512653 277.742812)rotate(-90)scale(0.1 -0.1)">
       <defs>
        <path d="M 1228 531 
L 3431 531 
L 3431 0 
L 469 0 
L 469 531 
Q 828 903 1448 1529 
Q 2069 2156 2228 2338 
Q 2531 2678 2651 2914 
Q 2772 3150 2772 3378 
Q 2772 3750 2511 3984 
Q 2250 4219 1831 4219 
Q 1534 4219 1204 4116 
Q 875 4013 500 3803 
L 500 4441 
Q 881 4594 1212 4672 
Q 1544 4750 1819 4750 
Q 2544 4750 2975 4387 
Q 3406 4025 3406 3419 
Q 3406 3131 3298 2873 
Q 3191 2616 2906 2266 
Q 2828 2175 2409 1742 
Q 1991 1309 1228 531 
z
" id="DejaVuSans-32" transform="scale(0.015625)"/>
        <path d="M 2034 4250 
Q 1547 4250 1301 3770 
Q 1056 3291 1056 2328 
Q 1056 1369 1301 889 
Q 1547 409 2034 409 
Q 2525 409 2770 889 
Q 3016 1369 3016 2328 
Q 3016 3291 2770 3770 
Q 2525 4250 2034 4250 
z
M 2034 4750 
Q 2819 4750 3233 4129 
Q 3647 3509 3647 2328 
Q 3647 1150 3233 529 
Q 2819 -91 2034 -91 
Q 1250 -91 836 529 
Q 422 1150 422 2328 
Q 422 3509 836 4129 
Q 1250 4750 2034 4750 
z
" id="DejaVuSans-30" transform="scale(0.015625)"/>
        <path d="M 313 2009 
L 1997 2009 
L 1997 1497 
L 313 1497 
L 313 2009 
z
" id="DejaVuSans-2d" transform="scale(0.015625)"/>
        <path d="M 703 97 
L 703 672 
Q 941 559 1184 500 
Q 1428 441 1663 441 
Q 2288 441 2617 861 
Q 2947 1281 2994 2138 
Q 2813 1869 2534 1725 
Q 2256 1581 1919 1581 
Q 1219 1581 811 2004 
Q 403 2428 403 3163 
Q 403 3881 828 4315 
Q 1253 4750 1959 4750 
Q 2769 4750 3195 4129 
Q 3622 3509 3622 2328 
Q 3622 1225 3098 567 
Q 2575 -91 1691 -91 
Q 1453 -91 1209 -44 
Q 966 3 703 97 
z
M 1959 2075 
Q 2384 2075 2632 2365 
Q 2881 2656 2881 3163 
Q 2881 3666 2632 3958 
Q 2384 4250 1959 4250 
Q 1534 4250 1286 3958 
Q 1038 3666 1038 3163 
Q 1038 2656 1286 2365 
Q 1534 2075 1959 2075 
z
" id="DejaVuSans-39" transform="scale(0.015625)"/>
       </defs>
       <use xlink:href="#DejaVuSans-32"/>
       <use x="63.623047" xlink:href="#DejaVuSans-30"/>
       <use x="127.246094" xlink:href="#DejaVuSans-32"/>
       <use x="190.869141" xlink:href="#DejaVuSans-30"/>
       <use x="254.492188" xlink:href="#DejaVuSans-2d"/>
       <use x="290.576172" xlink:href="#DejaVuSans-30"/>
       <use x="354.199219" xlink:href="#DejaVuSans-39"/>
      </g>
     </g>
    </g>
    <g id="xtick_2">
     <g id="line2d_2">
      <g>
       <use style="stroke:#000000;stroke-width:0.8;" x="233.52076" xlink:href="#mbb74b263a9" y="228.96"/>
      </g>
     </g>
     <g id="text_2">
      <!-- 2020-11 -->
      <g transform="translate(236.280135 277.742812)rotate(-90)scale(0.1 -0.1)">
       <defs>
        <path d="M 794 531 
L 1825 531 
L 1825 4091 
L 703 3866 
L 703 4441 
L 1819 4666 
L 2450 4666 
L 2450 531 
L 3481 531 
L 3481 0 
L 794 0 
L 794 531 
z
" id="DejaVuSans-31" transform="scale(0.015625)"/>
       </defs>
       <use xlink:href="#DejaVuSans-32"/>
       <use x="63.623047" xlink:href="#DejaVuSans-30"/>
       <use x="127.246094" xlink:href="#DejaVuSans-32"/>
       <use x="190.869141" xlink:href="#DejaVuSans-30"/>
       <use x="254.492188" xlink:href="#DejaVuSans-2d"/>
       <use x="290.576172" xlink:href="#DejaVuSans-31"/>
       <use x="354.199219" xlink:href="#DejaVuSans-31"/>
      </g>
     </g>
    </g>
    <g id="xtick_3">
     <g id="line2d_3">
      <g>
       <use style="stroke:#000000;stroke-width:0.8;" x="382.288243" xlink:href="#mbb74b263a9" y="228.96"/>
      </g>
     </g>
     <g id="text_3">
      <!-- 2021-01 -->
      <g transform="translate(385.047618 277.742812)rotate(-90)scale(0.1 -0.1)">
       <use xlink:href="#DejaVuSans-32"/>
       <use x="63.623047" xlink:href="#DejaVuSans-30"/>
       <use x="127.246094" xlink:href="#DejaVuSans-32"/>
       <use x="190.869141" xlink:href="#DejaVuSans-31"/>
       <use x="254.492188" xlink:href="#DejaVuSans-2d"/>
       <use x="290.576172" xlink:href="#DejaVuSans-30"/>
       <use x="354.199219" xlink:href="#DejaVuSans-31"/>
      </g>
     </g>
    </g>
    <g id="xtick_4">
     <g id="line2d_4">
      <g>
       <use style="stroke:#000000;stroke-width:0.8;" x="526.178103" xlink:href="#mbb74b263a9" y="228.96"/>
      </g>
     </g>
     <g id="text_4">
      <!-- 2021-03 -->
      <g transform="translate(528.937478 277.742812)rotate(-90)scale(0.1 -0.1)">
       <defs>
        <path d="M 2597 2516 
Q 3050 2419 3304 2112 
Q 3559 1806 3559 1356 
Q 3559 666 3084 287 
Q 2609 -91 1734 -91 
Q 1441 -91 1130 -33 
Q 819 25 488 141 
L 488 750 
Q 750 597 1062 519 
Q 1375 441 1716 441 
Q 2309 441 2620 675 
Q 2931 909 2931 1356 
Q 2931 1769 2642 2001 
Q 2353 2234 1838 2234 
L 1294 2234 
L 1294 2753 
L 1863 2753 
Q 2328 2753 2575 2939 
Q 2822 3125 2822 3475 
Q 2822 3834 2567 4026 
Q 2313 4219 1838 4219 
Q 1578 4219 1281 4162 
Q 984 4106 628 3988 
L 628 4550 
Q 988 4650 1302 4700 
Q 1616 4750 1894 4750 
Q 2613 4750 3031 4423 
Q 3450 4097 3450 3541 
Q 3450 3153 3228 2886 
Q 3006 2619 2597 2516 
z
" id="DejaVuSans-33" transform="scale(0.015625)"/>
       </defs>
       <use xlink:href="#DejaVuSans-32"/>
       <use x="63.623047" xlink:href="#DejaVuSans-30"/>
       <use x="127.246094" xlink:href="#DejaVuSans-32"/>
       <use x="190.869141" xlink:href="#DejaVuSans-31"/>
       <use x="254.492188" xlink:href="#DejaVuSans-2d"/>
       <use x="290.576172" xlink:href="#DejaVuSans-30"/>
       <use x="354.199219" xlink:href="#DejaVuSans-33"/>
      </g>
     </g>
    </g>
    <g id="xtick_5">
     <g id="line2d_5">
      <g>
       <use style="stroke:#000000;stroke-width:0.8;" x="674.945586" xlink:href="#mbb74b263a9" y="228.96"/>
      </g>
     </g>
     <g id="text_5">
      <!-- 2021-05 -->
      <g transform="translate(677.704961 277.742812)rotate(-90)scale(0.1 -0.1)">
       <defs>
        <path d="M 691 4666 
L 3169 4666 
L 3169 4134 
L 1269 4134 
L 1269 2991 
Q 1406 3038 1543 3061 
Q 1681 3084 1819 3084 
Q 2600 3084 3056 2656 
Q 3513 2228 3513 1497 
Q 3513 744 3044 326 
Q 2575 -91 1722 -91 
Q 1428 -91 1123 -41 
Q 819 9 494 109 
L 494 744 
Q 775 591 1075 516 
Q 1375 441 1709 441 
Q 2250 441 2565 725 
Q 2881 1009 2881 1497 
Q 2881 1984 2565 2268 
Q 2250 2553 1709 2553 
Q 1456 2553 1204 2497 
Q 953 2441 691 2322 
L 691 4666 
z
" id="DejaVuSans-35" transform="scale(0.015625)"/>
       </defs>
       <use xlink:href="#DejaVuSans-32"/>
       <use x="63.623047" xlink:href="#DejaVuSans-30"/>
       <use x="127.246094" xlink:href="#DejaVuSans-32"/>
       <use x="190.869141" xlink:href="#DejaVuSans-31"/>
       <use x="254.492188" xlink:href="#DejaVuSans-2d"/>
       <use x="290.576172" xlink:href="#DejaVuSans-30"/>
       <use x="354.199219" xlink:href="#DejaVuSans-35"/>
      </g>
     </g>
    </g>
    <g id="xtick_6">
     <g id="line2d_6">
      <g>
       <use style="stroke:#000000;stroke-width:0.8;" x="823.713068" xlink:href="#mbb74b263a9" y="228.96"/>
      </g>
     </g>
     <g id="text_6">
      <!-- 2021-07 -->
      <g transform="translate(826.472443 277.742812)rotate(-90)scale(0.1 -0.1)">
       <defs>
        <path d="M 525 4666 
L 3525 4666 
L 3525 4397 
L 1831 0 
L 1172 0 
L 2766 4134 
L 525 4134 
L 525 4666 
z
" id="DejaVuSans-37" transform="scale(0.015625)"/>
       </defs>
       <use xlink:href="#DejaVuSans-32"/>
       <use x="63.623047" xlink:href="#DejaVuSans-30"/>
       <use x="127.246094" xlink:href="#DejaVuSans-32"/>
       <use x="190.869141" xlink:href="#DejaVuSans-31"/>
       <use x="254.492188" xlink:href="#DejaVuSans-2d"/>
       <use x="290.576172" xlink:href="#DejaVuSans-30"/>
       <use x="354.199219" xlink:href="#DejaVuSans-37"/>
      </g>
     </g>
    </g>
    <g id="xtick_7">
     <g id="line2d_7">
      <g>
       <use style="stroke:#000000;stroke-width:0.8;" x="974.919362" xlink:href="#mbb74b263a9" y="228.96"/>
      </g>
     </g>
     <g id="text_7">
      <!-- 2021-09 -->
      <g transform="translate(977.678737 277.742812)rotate(-90)scale(0.1 -0.1)">
       <use xlink:href="#DejaVuSans-32"/>
       <use x="63.623047" xlink:href="#DejaVuSans-30"/>
       <use x="127.246094" xlink:href="#DejaVuSans-32"/>
       <use x="190.869141" xlink:href="#DejaVuSans-31"/>
       <use x="254.492188" xlink:href="#DejaVuSans-2d"/>
       <use x="290.576172" xlink:href="#DejaVuSans-30"/>
       <use x="354.199219" xlink:href="#DejaVuSans-39"/>
      </g>
     </g>
    </g>
    <g id="xtick_8">
     <g id="line2d_8">
      <g>
       <use style="stroke:#000000;stroke-width:0.8;" x="1123.686844" xlink:href="#mbb74b263a9" y="228.96"/>
      </g>
     </g>
     <g id="text_8">
      <!-- 2021-11 -->
      <g transform="translate(1126.446219 277.742812)rotate(-90)scale(0.1 -0.1)">
       <use xlink:href="#DejaVuSans-32"/>
       <use x="63.623047" xlink:href="#DejaVuSans-30"/>
       <use x="127.246094" xlink:href="#DejaVuSans-32"/>
       <use x="190.869141" xlink:href="#DejaVuSans-31"/>
       <use x="254.492188" xlink:href="#DejaVuSans-2d"/>
       <use x="290.576172" xlink:href="#DejaVuSans-31"/>
       <use x="354.199219" xlink:href="#DejaVuSans-31"/>
      </g>
     </g>
    </g>
    <g id="text_9">
     <!-- Date -->
     <g transform="translate(589.830469 289.34125)scale(0.1 -0.1)">
      <defs>
       <path d="M 1259 4147 
L 1259 519 
L 2022 519 
Q 2988 519 3436 956 
Q 3884 1394 3884 2338 
Q 3884 3275 3436 3711 
Q 2988 4147 2022 4147 
L 1259 4147 
z
M 628 4666 
L 1925 4666 
Q 3281 4666 3915 4102 
Q 4550 3538 4550 2338 
Q 4550 1131 3912 565 
Q 3275 0 1925 0 
L 628 0 
L 628 4666 
z
" id="DejaVuSans-44" transform="scale(0.015625)"/>
       <path d="M 2194 1759 
Q 1497 1759 1228 1600 
Q 959 1441 959 1056 
Q 959 750 1161 570 
Q 1363 391 1709 391 
Q 2188 391 2477 730 
Q 2766 1069 2766 1631 
L 2766 1759 
L 2194 1759 
z
M 3341 1997 
L 3341 0 
L 2766 0 
L 2766 531 
Q 2569 213 2275 61 
Q 1981 -91 1556 -91 
Q 1019 -91 701 211 
Q 384 513 384 1019 
Q 384 1609 779 1909 
Q 1175 2209 1959 2209 
L 2766 2209 
L 2766 2266 
Q 2766 2663 2505 2880 
Q 2244 3097 1772 3097 
Q 1472 3097 1187 3025 
Q 903 2953 641 2809 
L 641 3341 
Q 956 3463 1253 3523 
Q 1550 3584 1831 3584 
Q 2591 3584 2966 3190 
Q 3341 2797 3341 1997 
z
" id="DejaVuSans-61" transform="scale(0.015625)"/>
       <path d="M 1172 4494 
L 1172 3500 
L 2356 3500 
L 2356 3053 
L 1172 3053 
L 1172 1153 
Q 1172 725 1289 603 
Q 1406 481 1766 481 
L 2356 481 
L 2356 0 
L 1766 0 
Q 1100 0 847 248 
Q 594 497 594 1153 
L 594 3053 
L 172 3053 
L 172 3500 
L 594 3500 
L 594 4494 
L 1172 4494 
z
" id="DejaVuSans-74" transform="scale(0.015625)"/>
       <path d="M 3597 1894 
L 3597 1613 
L 953 1613 
Q 991 1019 1311 708 
Q 1631 397 2203 397 
Q 2534 397 2845 478 
Q 3156 559 3463 722 
L 3463 178 
Q 3153 47 2828 -22 
Q 2503 -91 2169 -91 
Q 1331 -91 842 396 
Q 353 884 353 1716 
Q 353 2575 817 3079 
Q 1281 3584 2069 3584 
Q 2775 3584 3186 3129 
Q 3597 2675 3597 1894 
z
M 3022 2063 
Q 3016 2534 2758 2815 
Q 2500 3097 2075 3097 
Q 1594 3097 1305 2825 
Q 1016 2553 972 2059 
L 3022 2063 
z
" id="DejaVuSans-65" transform="scale(0.015625)"/>
      </defs>
      <use xlink:href="#DejaVuSans-44"/>
      <use x="77.001953" xlink:href="#DejaVuSans-61"/>
      <use x="138.28125" xlink:href="#DejaVuSans-74"/>
      <use x="177.490234" xlink:href="#DejaVuSans-65"/>
     </g>
    </g>
   </g>
   <g id="matplotlib.axis_2">
    <g id="ytick_1">
     <g id="line2d_9">
      <defs>
       <path d="M 0 0 
L -3.5 0 
" id="m4dad190823" style="stroke:#000000;stroke-width:0.8;"/>
      </defs>
      <g>
       <use style="stroke:#000000;stroke-width:0.8;" x="43.78125" xlink:href="#m4dad190823" y="228.96"/>
      </g>
     </g>
     <g id="text_10">
      <!-- 0.0 -->
      <g transform="translate(20.878125 232.759219)scale(0.1 -0.1)">
       <defs>
        <path d="M 684 794 
L 1344 794 
L 1344 0 
L 684 0 
L 684 794 
z
" id="DejaVuSans-2e" transform="scale(0.015625)"/>
       </defs>
       <use xlink:href="#DejaVuSans-30"/>
       <use x="63.623047" xlink:href="#DejaVuSans-2e"/>
       <use x="95.410156" xlink:href="#DejaVuSans-30"/>
      </g>
     </g>
    </g>
    <g id="ytick_2">
     <g id="line2d_10">
      <g>
       <use style="stroke:#000000;stroke-width:0.8;" x="43.78125" xlink:href="#m4dad190823" y="182.525589"/>
      </g>
     </g>
     <g id="text_11">
      <!-- 0.2 -->
      <g transform="translate(20.878125 186.324808)scale(0.1 -0.1)">
       <use xlink:href="#DejaVuSans-30"/>
       <use x="63.623047" xlink:href="#DejaVuSans-2e"/>
       <use x="95.410156" xlink:href="#DejaVuSans-32"/>
      </g>
     </g>
    </g>
    <g id="ytick_3">
     <g id="line2d_11">
      <g>
       <use style="stroke:#000000;stroke-width:0.8;" x="43.78125" xlink:href="#m4dad190823" y="136.091179"/>
      </g>
     </g>
     <g id="text_12">
      <!-- 0.4 -->
      <g transform="translate(20.878125 139.890398)scale(0.1 -0.1)">
       <defs>
        <path d="M 2419 4116 
L 825 1625 
L 2419 1625 
L 2419 4116 
z
M 2253 4666 
L 3047 4666 
L 3047 1625 
L 3713 1625 
L 3713 1100 
L 3047 1100 
L 3047 0 
L 2419 0 
L 2419 1100 
L 313 1100 
L 313 1709 
L 2253 4666 
z
" id="DejaVuSans-34" transform="scale(0.015625)"/>
       </defs>
       <use xlink:href="#DejaVuSans-30"/>
       <use x="63.623047" xlink:href="#DejaVuSans-2e"/>
       <use x="95.410156" xlink:href="#DejaVuSans-34"/>
      </g>
     </g>
    </g>
    <g id="ytick_4">
     <g id="line2d_12">
      <g>
       <use style="stroke:#000000;stroke-width:0.8;" x="43.78125" xlink:href="#m4dad190823" y="89.656768"/>
      </g>
     </g>
     <g id="text_13">
      <!-- 0.6 -->
      <g transform="translate(20.878125 93.455987)scale(0.1 -0.1)">
       <defs>
        <path d="M 2113 2584 
Q 1688 2584 1439 2293 
Q 1191 2003 1191 1497 
Q 1191 994 1439 701 
Q 1688 409 2113 409 
Q 2538 409 2786 701 
Q 3034 994 3034 1497 
Q 3034 2003 2786 2293 
Q 2538 2584 2113 2584 
z
M 3366 4563 
L 3366 3988 
Q 3128 4100 2886 4159 
Q 2644 4219 2406 4219 
Q 1781 4219 1451 3797 
Q 1122 3375 1075 2522 
Q 1259 2794 1537 2939 
Q 1816 3084 2150 3084 
Q 2853 3084 3261 2657 
Q 3669 2231 3669 1497 
Q 3669 778 3244 343 
Q 2819 -91 2113 -91 
Q 1303 -91 875 529 
Q 447 1150 447 2328 
Q 447 3434 972 4092 
Q 1497 4750 2381 4750 
Q 2619 4750 2861 4703 
Q 3103 4656 3366 4563 
z
" id="DejaVuSans-36" transform="scale(0.015625)"/>
       </defs>
       <use xlink:href="#DejaVuSans-30"/>
       <use x="63.623047" xlink:href="#DejaVuSans-2e"/>
       <use x="95.410156" xlink:href="#DejaVuSans-36"/>
      </g>
     </g>
    </g>
    <g id="ytick_5">
     <g id="line2d_13">
      <g>
       <use style="stroke:#000000;stroke-width:0.8;" x="43.78125" xlink:href="#m4dad190823" y="43.222358"/>
      </g>
     </g>
     <g id="text_14">
      <!-- 0.8 -->
      <g transform="translate(20.878125 47.021576)scale(0.1 -0.1)">
       <defs>
        <path d="M 2034 2216 
Q 1584 2216 1326 1975 
Q 1069 1734 1069 1313 
Q 1069 891 1326 650 
Q 1584 409 2034 409 
Q 2484 409 2743 651 
Q 3003 894 3003 1313 
Q 3003 1734 2745 1975 
Q 2488 2216 2034 2216 
z
M 1403 2484 
Q 997 2584 770 2862 
Q 544 3141 544 3541 
Q 544 4100 942 4425 
Q 1341 4750 2034 4750 
Q 2731 4750 3128 4425 
Q 3525 4100 3525 3541 
Q 3525 3141 3298 2862 
Q 3072 2584 2669 2484 
Q 3125 2378 3379 2068 
Q 3634 1759 3634 1313 
Q 3634 634 3220 271 
Q 2806 -91 2034 -91 
Q 1263 -91 848 271 
Q 434 634 434 1313 
Q 434 1759 690 2068 
Q 947 2378 1403 2484 
z
M 1172 3481 
Q 1172 3119 1398 2916 
Q 1625 2713 2034 2713 
Q 2441 2713 2670 2916 
Q 2900 3119 2900 3481 
Q 2900 3844 2670 4047 
Q 2441 4250 2034 4250 
Q 1625 4250 1398 4047 
Q 1172 3844 1172 3481 
z
" id="DejaVuSans-38" transform="scale(0.015625)"/>
       </defs>
       <use xlink:href="#DejaVuSans-30"/>
       <use x="63.623047" xlink:href="#DejaVuSans-2e"/>
       <use x="95.410156" xlink:href="#DejaVuSans-38"/>
      </g>
     </g>
    </g>
    <g id="text_15">
     <!-- Frequency (7 day rolling average) -->
     <g transform="translate(14.798437 202.529219)rotate(-90)scale(0.1 -0.1)">
      <defs>
       <path d="M 628 4666 
L 3309 4666 
L 3309 4134 
L 1259 4134 
L 1259 2759 
L 3109 2759 
L 3109 2228 
L 1259 2228 
L 1259 0 
L 628 0 
L 628 4666 
z
" id="DejaVuSans-46" transform="scale(0.015625)"/>
       <path d="M 2631 2963 
Q 2534 3019 2420 3045 
Q 2306 3072 2169 3072 
Q 1681 3072 1420 2755 
Q 1159 2438 1159 1844 
L 1159 0 
L 581 0 
L 581 3500 
L 1159 3500 
L 1159 2956 
Q 1341 3275 1631 3429 
Q 1922 3584 2338 3584 
Q 2397 3584 2469 3576 
Q 2541 3569 2628 3553 
L 2631 2963 
z
" id="DejaVuSans-72" transform="scale(0.015625)"/>
       <path d="M 947 1747 
Q 947 1113 1208 752 
Q 1469 391 1925 391 
Q 2381 391 2643 752 
Q 2906 1113 2906 1747 
Q 2906 2381 2643 2742 
Q 2381 3103 1925 3103 
Q 1469 3103 1208 2742 
Q 947 2381 947 1747 
z
M 2906 525 
Q 2725 213 2448 61 
Q 2172 -91 1784 -91 
Q 1150 -91 751 415 
Q 353 922 353 1747 
Q 353 2572 751 3078 
Q 1150 3584 1784 3584 
Q 2172 3584 2448 3432 
Q 2725 3281 2906 2969 
L 2906 3500 
L 3481 3500 
L 3481 -1331 
L 2906 -1331 
L 2906 525 
z
" id="DejaVuSans-71" transform="scale(0.015625)"/>
       <path d="M 544 1381 
L 544 3500 
L 1119 3500 
L 1119 1403 
Q 1119 906 1312 657 
Q 1506 409 1894 409 
Q 2359 409 2629 706 
Q 2900 1003 2900 1516 
L 2900 3500 
L 3475 3500 
L 3475 0 
L 2900 0 
L 2900 538 
Q 2691 219 2414 64 
Q 2138 -91 1772 -91 
Q 1169 -91 856 284 
Q 544 659 544 1381 
z
M 1991 3584 
L 1991 3584 
z
" id="DejaVuSans-75" transform="scale(0.015625)"/>
       <path d="M 3513 2113 
L 3513 0 
L 2938 0 
L 2938 2094 
Q 2938 2591 2744 2837 
Q 2550 3084 2163 3084 
Q 1697 3084 1428 2787 
Q 1159 2491 1159 1978 
L 1159 0 
L 581 0 
L 581 3500 
L 1159 3500 
L 1159 2956 
Q 1366 3272 1645 3428 
Q 1925 3584 2291 3584 
Q 2894 3584 3203 3211 
Q 3513 2838 3513 2113 
z
" id="DejaVuSans-6e" transform="scale(0.015625)"/>
       <path d="M 3122 3366 
L 3122 2828 
Q 2878 2963 2633 3030 
Q 2388 3097 2138 3097 
Q 1578 3097 1268 2742 
Q 959 2388 959 1747 
Q 959 1106 1268 751 
Q 1578 397 2138 397 
Q 2388 397 2633 464 
Q 2878 531 3122 666 
L 3122 134 
Q 2881 22 2623 -34 
Q 2366 -91 2075 -91 
Q 1284 -91 818 406 
Q 353 903 353 1747 
Q 353 2603 823 3093 
Q 1294 3584 2113 3584 
Q 2378 3584 2631 3529 
Q 2884 3475 3122 3366 
z
" id="DejaVuSans-63" transform="scale(0.015625)"/>
       <path d="M 2059 -325 
Q 1816 -950 1584 -1140 
Q 1353 -1331 966 -1331 
L 506 -1331 
L 506 -850 
L 844 -850 
Q 1081 -850 1212 -737 
Q 1344 -625 1503 -206 
L 1606 56 
L 191 3500 
L 800 3500 
L 1894 763 
L 2988 3500 
L 3597 3500 
L 2059 -325 
z
" id="DejaVuSans-79" transform="scale(0.015625)"/>
       <path id="DejaVuSans-20" transform="scale(0.015625)"/>
       <path d="M 1984 4856 
Q 1566 4138 1362 3434 
Q 1159 2731 1159 2009 
Q 1159 1288 1364 580 
Q 1569 -128 1984 -844 
L 1484 -844 
Q 1016 -109 783 600 
Q 550 1309 550 2009 
Q 550 2706 781 3412 
Q 1013 4119 1484 4856 
L 1984 4856 
z
" id="DejaVuSans-28" transform="scale(0.015625)"/>
       <path d="M 2906 2969 
L 2906 4863 
L 3481 4863 
L 3481 0 
L 2906 0 
L 2906 525 
Q 2725 213 2448 61 
Q 2172 -91 1784 -91 
Q 1150 -91 751 415 
Q 353 922 353 1747 
Q 353 2572 751 3078 
Q 1150 3584 1784 3584 
Q 2172 3584 2448 3432 
Q 2725 3281 2906 2969 
z
M 947 1747 
Q 947 1113 1208 752 
Q 1469 391 1925 391 
Q 2381 391 2643 752 
Q 2906 1113 2906 1747 
Q 2906 2381 2643 2742 
Q 2381 3103 1925 3103 
Q 1469 3103 1208 2742 
Q 947 2381 947 1747 
z
" id="DejaVuSans-64" transform="scale(0.015625)"/>
       <path d="M 1959 3097 
Q 1497 3097 1228 2736 
Q 959 2375 959 1747 
Q 959 1119 1226 758 
Q 1494 397 1959 397 
Q 2419 397 2687 759 
Q 2956 1122 2956 1747 
Q 2956 2369 2687 2733 
Q 2419 3097 1959 3097 
z
M 1959 3584 
Q 2709 3584 3137 3096 
Q 3566 2609 3566 1747 
Q 3566 888 3137 398 
Q 2709 -91 1959 -91 
Q 1206 -91 779 398 
Q 353 888 353 1747 
Q 353 2609 779 3096 
Q 1206 3584 1959 3584 
z
" id="DejaVuSans-6f" transform="scale(0.015625)"/>
       <path d="M 603 4863 
L 1178 4863 
L 1178 0 
L 603 0 
L 603 4863 
z
" id="DejaVuSans-6c" transform="scale(0.015625)"/>
       <path d="M 603 3500 
L 1178 3500 
L 1178 0 
L 603 0 
L 603 3500 
z
M 603 4863 
L 1178 4863 
L 1178 4134 
L 603 4134 
L 603 4863 
z
" id="DejaVuSans-69" transform="scale(0.015625)"/>
       <path d="M 2906 1791 
Q 2906 2416 2648 2759 
Q 2391 3103 1925 3103 
Q 1463 3103 1205 2759 
Q 947 2416 947 1791 
Q 947 1169 1205 825 
Q 1463 481 1925 481 
Q 2391 481 2648 825 
Q 2906 1169 2906 1791 
z
M 3481 434 
Q 3481 -459 3084 -895 
Q 2688 -1331 1869 -1331 
Q 1566 -1331 1297 -1286 
Q 1028 -1241 775 -1147 
L 775 -588 
Q 1028 -725 1275 -790 
Q 1522 -856 1778 -856 
Q 2344 -856 2625 -561 
Q 2906 -266 2906 331 
L 2906 616 
Q 2728 306 2450 153 
Q 2172 0 1784 0 
Q 1141 0 747 490 
Q 353 981 353 1791 
Q 353 2603 747 3093 
Q 1141 3584 1784 3584 
Q 2172 3584 2450 3431 
Q 2728 3278 2906 2969 
L 2906 3500 
L 3481 3500 
L 3481 434 
z
" id="DejaVuSans-67" transform="scale(0.015625)"/>
       <path d="M 191 3500 
L 800 3500 
L 1894 563 
L 2988 3500 
L 3597 3500 
L 2284 0 
L 1503 0 
L 191 3500 
z
" id="DejaVuSans-76" transform="scale(0.015625)"/>
       <path d="M 513 4856 
L 1013 4856 
Q 1481 4119 1714 3412 
Q 1947 2706 1947 2009 
Q 1947 1309 1714 600 
Q 1481 -109 1013 -844 
L 513 -844 
Q 928 -128 1133 580 
Q 1338 1288 1338 2009 
Q 1338 2731 1133 3434 
Q 928 4138 513 4856 
z
" id="DejaVuSans-29" transform="scale(0.015625)"/>
      </defs>
      <use xlink:href="#DejaVuSans-46"/>
      <use x="50.269531" xlink:href="#DejaVuSans-72"/>
      <use x="89.132812" xlink:href="#DejaVuSans-65"/>
      <use x="150.65625" xlink:href="#DejaVuSans-71"/>
      <use x="214.132812" xlink:href="#DejaVuSans-75"/>
      <use x="277.511719" xlink:href="#DejaVuSans-65"/>
      <use x="339.035156" xlink:href="#DejaVuSans-6e"/>
      <use x="402.414062" xlink:href="#DejaVuSans-63"/>
      <use x="457.394531" xlink:href="#DejaVuSans-79"/>
      <use x="516.574219" xlink:href="#DejaVuSans-20"/>
      <use x="548.361328" xlink:href="#DejaVuSans-28"/>
      <use x="587.375" xlink:href="#DejaVuSans-37"/>
      <use x="650.998047" xlink:href="#DejaVuSans-20"/>
      <use x="682.785156" xlink:href="#DejaVuSans-64"/>
      <use x="746.261719" xlink:href="#DejaVuSans-61"/>
      <use x="807.541016" xlink:href="#DejaVuSans-79"/>
      <use x="866.720703" xlink:href="#DejaVuSans-20"/>
      <use x="898.507812" xlink:href="#DejaVuSans-72"/>
      <use x="937.371094" xlink:href="#DejaVuSans-6f"/>
      <use x="998.552734" xlink:href="#DejaVuSans-6c"/>
      <use x="1026.335938" xlink:href="#DejaVuSans-6c"/>
      <use x="1054.119141" xlink:href="#DejaVuSans-69"/>
      <use x="1081.902344" xlink:href="#DejaVuSans-6e"/>
      <use x="1145.28125" xlink:href="#DejaVuSans-67"/>
      <use x="1208.757812" xlink:href="#DejaVuSans-20"/>
      <use x="1240.544922" xlink:href="#DejaVuSans-61"/>
      <use x="1301.824219" xlink:href="#DejaVuSans-76"/>
      <use x="1361.003906" xlink:href="#DejaVuSans-65"/>
      <use x="1422.527344" xlink:href="#DejaVuSans-72"/>
      <use x="1463.640625" xlink:href="#DejaVuSans-61"/>
      <use x="1524.919922" xlink:href="#DejaVuSans-67"/>
      <use x="1588.396484" xlink:href="#DejaVuSans-65"/>
      <use x="1649.919922" xlink:href="#DejaVuSans-29"/>
     </g>
    </g>
   </g>
   <g id="line2d_14">
    <path clip-path="url(#pbb1a04b09d)" d="M 338.389642 228.771707 
L 350.583698 228.671827 
L 355.46132 228.777266 
L 374.971809 228.242004 
L 379.849432 228.413915 
L 382.288243 228.074096 
L 384.727054 228.270668 
L 387.165865 228.326774 
L 392.043488 228.151874 
L 394.482299 228.524859 
L 401.798733 228.567533 
L 404.237544 228.684237 
L 411.553977 228.478474 
L 418.870411 228.365622 
L 435.942089 228.501868 
L 448.136145 228.680936 
L 453.013767 228.672491 
L 455.452579 228.736053 
L 457.89139 228.688255 
L 460.330201 228.757406 
L 467.646635 228.562618 
L 470.085446 228.655673 
L 472.524257 228.542072 
L 479.840691 228.544873 
L 482.279502 228.459984 
L 496.912369 228.699127 
L 516.422858 228.620329 
L 521.300481 228.506477 
L 526.178103 228.593503 
L 528.616914 228.56079 
L 533.494537 228.296154 
L 540.81097 228.298722 
L 543.249781 228.575537 
L 545.688593 228.691243 
L 553.005026 228.61755 
L 560.32146 228.279585 
L 562.760271 228.378183 
L 574.954327 228.158663 
L 579.831949 228.252323 
L 582.27076 228.133572 
L 584.709572 228.263166 
L 592.026005 228.269228 
L 596.903628 228.423676 
L 601.78125 228.407989 
L 606.658872 228.194186 
L 609.097684 228.041059 
L 613.975306 228.067626 
L 616.414117 227.728458 
L 621.29174 227.666717 
L 623.730551 227.372906 
L 626.169362 227.462605 
L 628.608173 227.914391 
L 633.485795 228.115664 
L 635.924607 228.434709 
L 638.363418 227.831665 
L 643.24104 227.50172 
L 645.679851 227.614679 
L 648.118663 227.442 
L 650.557474 227.896928 
L 655.435096 228.246808 
L 657.873907 228.117946 
L 660.312719 228.255289 
L 662.75153 228.189422 
L 665.190341 227.739215 
L 667.629152 227.895308 
L 672.506774 227.770806 
L 677.384397 228.008032 
L 679.823208 227.877047 
L 682.262019 228.020458 
L 687.139642 227.873329 
L 689.578453 228.135707 
L 692.017264 227.889296 
L 694.456075 227.817739 
L 699.333698 227.987412 
L 701.772509 228.007466 
L 704.21132 228.42315 
L 711.527753 228.740146 
L 718.844187 228.898725 
L 731.038243 228.832146 
L 735.915865 228.734132 
L 743.232299 228.815211 
L 745.67111 228.913226 
L 767.620411 228.839447 
L 782.253278 228.859744 
L 789.569712 228.96 
L 1055.400131 228.952731 
L 1055.400131 228.952731 
" style="fill:none;stroke:#947383;stroke-linecap:square;stroke-width:2;"/>
   </g>
   <g id="line2d_15">
    <path clip-path="url(#pbb1a04b09d)" d="M 360.338942 227.560676 
L 362.777753 227.194762 
L 365.216565 226.457708 
L 367.655376 226.994522 
L 370.094187 227.363049 
L 372.532998 227.147075 
L 374.971809 228.006972 
L 377.410621 228.744026 
L 399.359921 228.666258 
L 404.237544 228.433479 
L 416.4316 228.614085 
L 421.309222 228.636752 
L 426.186844 228.831759 
L 431.064467 228.732224 
L 438.3809 228.707818 
L 443.258523 228.706634 
L 453.013767 228.547341 
L 455.452579 228.652874 
L 467.646635 228.517155 
L 472.524257 228.593731 
L 477.401879 228.58873 
L 479.840691 228.519532 
L 487.157124 227.898302 
L 494.473558 227.899748 
L 496.912369 228.192558 
L 499.35118 228.360636 
L 506.667614 227.938433 
L 511.545236 227.609587 
L 513.984047 227.720107 
L 516.422858 227.712787 
L 521.300481 227.921005 
L 531.055726 227.899487 
L 538.372159 227.885602 
L 548.127404 227.611714 
L 565.199082 227.727889 
L 567.637893 227.708252 
L 570.076705 227.510336 
L 572.515516 227.434003 
L 574.954327 227.470436 
L 577.393138 227.395245 
L 584.709572 227.593433 
L 592.026005 227.303932 
L 596.903628 227.012861 
L 609.097684 227.172134 
L 613.975306 227.337338 
L 616.414117 227.197227 
L 621.29174 227.116322 
L 626.169362 226.764659 
L 643.24104 227.201154 
L 650.557474 226.98736 
L 652.996285 227.152659 
L 655.435096 227.048909 
L 657.873907 227.228063 
L 662.75153 227.256958 
L 667.629152 227.215631 
L 674.945586 226.903752 
L 684.70083 226.993304 
L 687.139642 227.13024 
L 689.578453 227.046488 
L 694.456075 227.228517 
L 696.894886 227.291121 
L 701.772509 227.652189 
L 706.650131 227.66993 
L 709.088942 227.58069 
L 711.527753 227.331831 
L 713.966565 227.267248 
L 718.844187 227.315563 
L 721.282998 227.273147 
L 723.721809 227.359689 
L 728.599432 227.238263 
L 733.477054 227.462358 
L 738.354677 227.832829 
L 740.793488 227.872069 
L 743.232299 227.733988 
L 745.67111 227.895557 
L 748.109921 227.818318 
L 752.987544 227.993313 
L 755.426355 228.355472 
L 757.865166 228.113377 
L 765.1816 228.196317 
L 767.620411 228.081645 
L 770.059222 228.305378 
L 777.375656 228.340395 
L 784.692089 228.530646 
L 789.569712 228.629887 
L 792.008523 228.557017 
L 796.886145 228.752288 
L 799.324956 228.57895 
L 801.763767 228.563232 
L 804.202579 228.658706 
L 809.080201 228.547199 
L 811.519012 228.767992 
L 816.396635 228.802984 
L 821.274257 228.844131 
L 826.151879 228.656432 
L 843.223558 228.886631 
L 1026.134397 228.94938 
L 1026.134397 228.94938 
" style="fill:none;stroke:#96c6ad;stroke-linecap:square;stroke-width:2;"/>
   </g>
   <g id="line2d_16">
    <path clip-path="url(#pbb1a04b09d)" d="M 260.347684 199.109307 
L 262.786495 222.326513 
L 270.102928 222.326513 
L 272.54174 228.96 
L 335.95083 228.96 
L 343.267264 228.555096 
L 350.583698 228.526583 
L 357.900131 227.30539 
L 362.777753 227.091784 
L 365.216565 227.74579 
L 370.094187 228.109816 
L 374.971809 227.718142 
L 377.410621 227.587525 
L 382.288243 227.894772 
L 384.727054 227.564376 
L 392.043488 227.47043 
L 394.482299 227.033141 
L 396.92111 227.44898 
L 399.359921 227.746236 
L 404.237544 227.0478 
L 406.676355 227.51458 
L 409.115166 227.225854 
L 411.553977 226.032682 
L 413.992788 225.35005 
L 416.4316 225.364615 
L 418.870411 224.493546 
L 421.309222 224.308461 
L 423.748033 225.448981 
L 426.186844 226.041313 
L 428.625656 225.537773 
L 431.064467 226.090126 
L 433.503278 226.11356 
L 435.942089 225.799701 
L 438.3809 225.837685 
L 440.819712 226.413638 
L 445.697334 225.754607 
L 448.136145 225.801574 
L 450.574956 225.278318 
L 453.013767 224.224032 
L 455.452579 224.057689 
L 457.89139 224.803814 
L 462.769012 224.430012 
L 465.207823 224.729263 
L 467.646635 224.175532 
L 470.085446 223.111442 
L 472.524257 222.970395 
L 474.963068 223.382364 
L 477.401879 223.13504 
L 479.840691 223.401676 
L 482.279502 223.364234 
L 487.157124 222.190098 
L 489.595935 222.844821 
L 494.473558 223.228426 
L 496.912369 223.453642 
L 499.35118 223.49128 
L 501.789991 223.019297 
L 504.228802 222.86023 
L 506.667614 222.543385 
L 511.545236 222.867371 
L 523.739292 221.421721 
L 526.178103 221.603429 
L 528.616914 221.434318 
L 531.055726 221.716419 
L 535.933348 221.977867 
L 538.372159 222.421504 
L 540.81097 222.471498 
L 543.249781 222.665711 
L 545.688593 222.337252 
L 548.127404 222.416003 
L 550.566215 221.893218 
L 553.005026 221.701321 
L 555.443837 220.986848 
L 557.882649 220.990166 
L 560.32146 221.217501 
L 562.760271 220.890694 
L 565.199082 221.047076 
L 567.637893 221.823755 
L 570.076705 221.520397 
L 572.515516 220.979175 
L 574.954327 221.076836 
L 577.393138 221.677924 
L 579.831949 221.199791 
L 582.27076 221.566723 
L 584.709572 221.77953 
L 587.148383 222.212501 
L 589.587194 221.85082 
L 594.464816 222.504827 
L 599.342439 222.020034 
L 601.78125 222.188982 
L 604.220061 221.911119 
L 606.658872 221.483678 
L 609.097684 221.655374 
L 611.536495 222.351151 
L 613.975306 222.294549 
L 618.852928 223.635956 
L 621.29174 224.105606 
L 623.730551 223.968105 
L 628.608173 224.438083 
L 631.046984 224.073464 
L 635.924607 224.229302 
L 638.363418 224.357364 
L 640.802229 224.310793 
L 643.24104 224.983047 
L 648.118663 225.275252 
L 650.557474 225.292367 
L 652.996285 225.49769 
L 655.435096 225.368064 
L 657.873907 225.409651 
L 660.312719 225.001777 
L 662.75153 225.172854 
L 667.629152 224.849202 
L 670.067963 224.79786 
L 672.506774 225.35799 
L 674.945586 225.416468 
L 679.823208 225.897112 
L 684.70083 225.38542 
L 689.578453 225.514293 
L 692.017264 225.365081 
L 696.894886 226.133811 
L 699.333698 225.473817 
L 704.21132 225.43948 
L 706.650131 225.531985 
L 709.088942 225.266225 
L 711.527753 226.009968 
L 713.966565 226.406034 
L 718.844187 226.584506 
L 721.282998 226.969007 
L 726.160621 226.823563 
L 731.038243 227.288218 
L 733.477054 226.870758 
L 738.354677 226.804892 
L 743.232299 226.66444 
L 748.109921 227.198808 
L 762.742788 227.77923 
L 765.1816 227.712932 
L 767.620411 227.474648 
L 772.498033 227.47643 
L 777.375656 227.239259 
L 779.814467 227.56172 
L 784.692089 227.612064 
L 789.569712 227.865419 
L 792.008523 227.689648 
L 794.447334 227.631806 
L 796.886145 227.751999 
L 799.324956 227.666666 
L 801.763767 227.384345 
L 804.202579 227.235341 
L 806.64139 227.30335 
L 809.080201 226.719229 
L 811.519012 226.565637 
L 813.957823 226.898537 
L 816.396635 227.067164 
L 818.835446 226.85155 
L 821.274257 227.302619 
L 823.713068 227.604164 
L 826.151879 227.576615 
L 828.590691 227.75596 
L 831.029502 228.131708 
L 833.468313 228.316955 
L 835.907124 228.266013 
L 838.345935 228.453014 
L 845.662369 228.484867 
L 848.10118 228.662342 
L 852.978802 228.597959 
L 865.172858 228.878981 
L 872.489292 228.82552 
L 967.602928 228.96 
L 1072.471809 228.950695 
L 1072.471809 228.950695 
" style="fill:none;stroke:#525886;stroke-linecap:square;stroke-width:2;"/>
   </g>
   <g id="line2d_17">
    <path clip-path="url(#pbb1a04b09d)" d="M 377.410621 220.965797 
L 379.849432 223.0866 
L 384.727054 223.0866 
L 387.165865 227.508925 
L 389.604677 212.030788 
L 392.043488 213.481863 
L 394.482299 206.150114 
L 396.92111 206.150114 
L 399.359921 201.262281 
L 401.798733 213.644791 
L 404.237544 213.644791 
L 406.676355 215.172239 
L 409.115166 203.563636 
L 411.553977 208.451469 
L 413.992788 201.228338 
L 416.4316 195.765466 
L 418.870411 201.569768 
L 421.309222 194.604606 
L 423.748033 190.735072 
L 426.186844 201.05383 
L 428.625656 206.516702 
L 431.064467 206.516702 
L 433.503278 221.518588 
L 435.942089 225.388122 
L 438.3809 216.10124 
L 440.819712 192.884035 
L 443.258523 174.310271 
L 445.697334 170.14308 
L 448.136145 163.509593 
L 450.574956 172.796475 
L 453.013767 196.01368 
L 455.452579 214.587444 
L 457.89139 222.326513 
L 460.330201 228.96 
L 462.769012 224.73869 
L 465.207823 224.73869 
L 467.646635 215.451808 
L 470.085446 215.451808 
L 472.524257 208.818321 
L 474.963068 213.039631 
L 477.401879 213.039631 
L 479.840691 206.848376 
L 482.279502 206.848376 
L 484.718313 213.481863 
L 489.595935 213.481863 
L 492.034747 228.96 
L 501.789991 228.96 
L 504.228802 213.481863 
L 506.667614 213.481863 
L 509.106425 205.742795 
L 513.984047 205.742795 
L 516.422858 221.220932 
L 518.86167 221.220932 
L 521.300481 228.96 
L 526.178103 228.96 
L 528.616914 221.220932 
L 531.055726 215.75806 
L 535.933348 215.75806 
L 538.372159 209.124573 
L 540.81097 216.863641 
L 543.249781 218.105203 
L 545.688593 212.945824 
L 548.127404 212.945824 
L 550.566215 219.579311 
L 553.005026 219.579311 
L 555.443837 223.800621 
L 557.882649 228.96 
L 560.32146 224.73869 
L 565.199082 224.73869 
L 567.637893 221.166812 
L 570.076705 210.848054 
L 572.515516 215.069364 
L 577.393138 215.069364 
L 579.831949 207.032639 
L 582.27076 213.130087 
L 584.709572 213.130087 
L 587.148383 197.65195 
L 589.587194 195.541295 
L 592.026005 207.149898 
L 594.464816 211.371208 
L 596.903628 211.371208 
L 599.342439 226.849345 
L 601.78125 228.96 
L 606.658872 228.96 
L 609.097684 223.155699 
L 611.536495 219.583821 
L 613.975306 213.77952 
L 618.852928 213.77952 
L 621.29174 219.583821 
L 623.730551 219.286164 
L 626.169362 221.220932 
L 628.608173 221.220932 
L 631.046984 219.110277 
L 633.485795 219.110277 
L 638.363418 226.849345 
L 640.802229 224.991969 
L 643.24104 220.469136 
L 645.679851 220.469136 
L 648.118663 219.33659 
L 650.557474 217.014869 
L 652.996285 218.872246 
L 657.873907 218.872246 
L 660.312719 218.070025 
L 662.75153 218.372858 
L 665.190341 216.262203 
L 670.067963 216.262203 
L 672.506774 218.19697 
L 674.945586 216.346324 
L 677.384397 218.456979 
L 679.823208 225.090466 
L 684.70083 225.090466 
L 687.139642 228.96 
L 694.456075 228.96 
L 696.894886 218.641242 
L 706.650131 218.641242 
L 709.088942 228.96 
L 711.527753 228.96 
L 713.966565 217.351397 
L 716.405376 208.064515 
L 718.844187 208.064515 
L 721.282998 192.586378 
L 723.721809 192.586378 
L 726.160621 204.194981 
L 728.599432 206.848376 
L 731.038243 206.848376 
L 733.477054 222.326513 
L 738.354677 222.326513 
L 740.793488 225.388122 
L 750.548733 225.388122 
L 752.987544 228.96 
L 757.865166 228.96 
L 760.303977 225.864373 
L 762.742788 225.864373 
L 765.1816 222.547629 
L 767.620411 209.280655 
L 770.059222 209.280655 
L 772.498033 196.898145 
L 774.936844 196.898145 
L 777.375656 192.47582 
L 779.814467 198.003726 
L 782.253278 198.003726 
L 784.692089 209.909985 
L 787.1309 203.276498 
L 789.569712 201.728684 
L 792.008523 209.467753 
L 794.447334 209.467753 
L 796.886145 213.039631 
L 799.324956 219.673118 
L 801.763767 228.96 
L 804.202579 228.96 
L 806.64139 227.358813 
L 809.080201 226.253232 
L 811.519012 226.253232 
L 813.957823 224.467293 
L 816.396635 220.801419 
L 818.835446 222.402605 
L 821.274257 222.286228 
L 821.274257 222.286228 
" style="fill:none;stroke:#937252;stroke-linecap:square;stroke-width:2;"/>
   </g>
   <g id="line2d_18">
    <path clip-path="url(#pbb1a04b09d)" d="M 243.276005 205.742795 
L 245.714816 228.96 
L 304.246285 228.96 
L 306.685096 205.742795 
L 316.440341 205.742795 
L 318.879152 228.96 
L 343.267264 228.96 
L 345.706075 226.748838 
L 348.144886 226.748838 
L 353.022509 225.923466 
L 355.46132 225.923466 
L 357.900131 228.134628 
L 360.338942 228.134628 
L 365.216565 228.96 
L 370.094187 227.918613 
L 372.532998 227.806453 
L 374.971809 227.396979 
L 377.410621 227.120583 
L 379.849432 227.285038 
L 384.727054 227.016164 
L 387.165865 227.122805 
L 389.604677 227.113889 
L 392.043488 227.396501 
L 394.482299 228.012887 
L 396.92111 227.562406 
L 399.359921 227.342329 
L 404.237544 227.583938 
L 406.676355 227.058662 
L 409.115166 227.701886 
L 411.553977 226.95758 
L 413.992788 227.094152 
L 416.4316 226.279513 
L 418.870411 226.437235 
L 421.309222 226.347089 
L 423.748033 227.448171 
L 426.186844 226.438728 
L 428.625656 226.403308 
L 431.064467 226.679096 
L 433.503278 226.486323 
L 435.942089 226.652457 
L 438.3809 227.6619 
L 440.819712 228.243033 
L 443.258523 227.864182 
L 445.697334 227.684085 
L 448.136145 226.191017 
L 450.574956 224.300557 
L 453.013767 223.659004 
L 455.452579 223.48619 
L 457.89139 223.014803 
L 460.330201 222.26441 
L 462.769012 223.413895 
L 465.207823 223.889051 
L 467.646635 223.742111 
L 470.085446 223.836833 
L 472.524257 224.84836 
L 474.963068 220.581702 
L 477.401879 220.413981 
L 479.840691 220.106243 
L 482.279502 213.82612 
L 484.718313 213.79166 
L 487.157124 218.38284 
L 489.595935 218.528403 
L 492.034747 217.316344 
L 494.473558 222.867422 
L 496.912369 222.930851 
L 499.35118 222.226902 
L 501.789991 221.357686 
L 504.228802 222.281754 
L 506.667614 220.490941 
L 509.106425 219.345672 
L 511.545236 218.535329 
L 513.984047 218.14858 
L 516.422858 217.645487 
L 518.86167 219.289796 
L 521.300481 220.014448 
L 523.739292 221.201393 
L 526.178103 221.073475 
L 528.616914 221.121657 
L 531.055726 215.038504 
L 533.494537 214.531251 
L 535.933348 213.330562 
L 538.372159 212.321733 
L 540.81097 213.345717 
L 543.249781 217.860751 
L 545.688593 217.643508 
L 548.127404 215.564799 
L 550.566215 215.032354 
L 553.005026 211.331064 
L 555.443837 209.528389 
L 557.882649 209.636209 
L 560.32146 211.155591 
L 562.760271 210.908741 
L 565.199082 213.488446 
L 567.637893 213.89711 
L 570.076705 211.799203 
L 572.515516 210.237334 
L 574.954327 211.472415 
L 577.393138 208.975666 
L 579.831949 207.76035 
L 584.709572 206.353108 
L 587.148383 206.597775 
L 589.587194 209.739063 
L 592.026005 214.148634 
L 594.464816 215.008875 
L 596.903628 216.437039 
L 599.342439 216.464872 
L 601.78125 215.426117 
L 604.220061 215.015944 
L 606.658872 215.119138 
L 609.097684 216.274822 
L 611.536495 215.571671 
L 616.414117 217.314128 
L 618.852928 220.05043 
L 621.29174 221.046355 
L 623.730551 222.896128 
L 626.169362 222.797589 
L 628.608173 222.372926 
L 631.046984 222.12216 
L 633.485795 222.026966 
L 635.924607 221.444703 
L 638.363418 222.280198 
L 640.802229 221.583278 
L 645.679851 222.244091 
L 648.118663 222.889278 
L 650.557474 222.730339 
L 652.996285 223.971406 
L 655.435096 224.077008 
L 657.873907 223.507089 
L 660.312719 221.850739 
L 662.75153 221.178307 
L 665.190341 220.228457 
L 667.629152 220.418305 
L 670.067963 221.261435 
L 672.506774 223.153464 
L 674.945586 224.227103 
L 677.384397 225.080302 
L 682.262019 224.331097 
L 684.70083 223.207679 
L 687.139642 222.802721 
L 692.017264 222.921341 
L 694.456075 223.061554 
L 696.894886 224.073562 
L 699.333698 224.509604 
L 701.772509 224.579791 
L 706.650131 225.334651 
L 709.088942 225.569953 
L 711.527753 225.004602 
L 718.844187 225.047252 
L 721.282998 224.557743 
L 723.721809 225.071114 
L 726.160621 225.289967 
L 731.038243 224.96601 
L 733.477054 225.482637 
L 735.915865 225.046796 
L 738.354677 224.327393 
L 740.793488 222.594385 
L 743.232299 221.793387 
L 745.67111 221.668718 
L 748.109921 221.143807 
L 750.548733 220.854194 
L 752.987544 222.523504 
L 755.426355 221.760759 
L 757.865166 220.508539 
L 760.303977 220.073238 
L 762.742788 220.287341 
L 765.1816 218.928758 
L 767.620411 220.124777 
L 770.059222 221.164017 
L 772.498033 221.92461 
L 774.936844 222.017479 
L 777.375656 223.495698 
L 779.814467 223.007417 
L 782.253278 221.478821 
L 784.692089 221.192388 
L 787.1309 221.124474 
L 789.569712 220.474195 
L 792.008523 219.988482 
L 794.447334 221.282289 
L 796.886145 221.704955 
L 801.763767 220.420248 
L 804.202579 221.46611 
L 806.64139 220.911751 
L 809.080201 220.078902 
L 811.519012 221.100865 
L 813.957823 220.52046 
L 816.396635 220.631446 
L 818.835446 221.152355 
L 821.274257 222.108319 
L 823.713068 222.050928 
L 826.151879 224.116899 
L 828.590691 223.745796 
L 831.029502 224.354643 
L 833.468313 224.272003 
L 835.907124 224.771371 
L 838.345935 224.856282 
L 840.784747 225.217406 
L 845.662369 224.884547 
L 848.10118 223.202042 
L 850.539991 222.897329 
L 852.978802 222.402616 
L 855.417614 222.036937 
L 857.856425 222.888977 
L 860.295236 224.173443 
L 862.734047 224.673656 
L 865.172858 225.958385 
L 867.61167 226.380248 
L 870.050481 226.306207 
L 872.489292 226.821139 
L 874.928103 226.604913 
L 877.366914 226.039956 
L 879.805726 226.530692 
L 882.244537 226.178422 
L 884.683348 226.284084 
L 887.122159 226.621932 
L 889.56097 227.195071 
L 894.438593 226.850243 
L 896.877404 227.094711 
L 904.193837 227.471703 
L 906.632649 228.276727 
L 911.510271 228.186173 
L 913.949082 228.416776 
L 926.143138 228.645985 
L 948.092439 228.869818 
L 952.970061 228.858821 
L 974.919362 228.96 
L 991.99104 228.851521 
L 1004.185096 228.843822 
L 1006.623907 228.827277 
L 1006.623907 228.827277 
" style="fill:none;stroke:#d18cad;stroke-linecap:square;stroke-width:2;"/>
   </g>
   <g id="line2d_19">
    <path clip-path="url(#pbb1a04b09d)" d="M 94.508523 200.344415 
L 96.947334 209.050867 
L 99.386145 211.365643 
L 101.824956 205.174389 
L 104.263767 194.855631 
L 106.702579 189.051329 
L 109.14139 178.335696 
L 111.580201 176.324413 
L 114.019012 191.80255 
L 116.457823 204.316788 
L 118.896635 183.58714 
L 121.335446 175.182722 
L 123.774257 145.516293 
L 128.651879 90.209559 
L 131.090691 116.743508 
L 133.529502 117.289795 
L 135.968313 138.848628 
L 138.407124 153.780478 
L 140.845935 184.736752 
L 143.284747 175.44987 
L 145.723558 185.829326 
L 148.162369 183.618164 
L 150.60118 182.343494 
L 153.039991 166.270044 
L 155.478802 167.362618 
L 157.917614 163.948323 
L 160.356425 148.470186 
L 162.795236 162.127366 
L 165.234047 173.557375 
L 167.672858 176.393866 
L 170.11167 188.002469 
L 172.550481 216.74758 
L 174.989292 202.460069 
L 177.428103 204.838417 
L 179.866914 202.457165 
L 182.305726 202.457165 
L 184.744537 199.039914 
L 187.183348 197.849288 
L 189.622159 189.058569 
L 192.06097 187.510756 
L 194.499781 177.560525 
L 196.938593 183.188938 
L 199.377404 193.204203 
L 201.816215 195.231102 
L 204.255026 193.683288 
L 206.693837 177.836624 
L 209.132649 154.619419 
L 211.57146 125.256483 
L 214.010271 112.85413 
L 216.449082 123.688826 
L 221.326705 142.730953 
L 223.765516 149.36444 
L 226.204327 143.575535 
L 228.643138 126.859147 
L 231.081949 104.478598 
L 233.52076 108.848895 
L 235.959572 109.359164 
L 238.398383 114.111072 
L 240.837194 102.966814 
L 243.276005 118.444951 
L 245.714816 99.051756 
L 248.153628 105.064416 
L 250.592439 118.245797 
L 253.03125 130.628307 
L 255.470061 122.889239 
L 257.908872 111.191567 
L 260.347684 89.328699 
L 262.786495 59.920239 
L 265.225306 75.398376 
L 267.664117 87.780885 
L 270.102928 108.258172 
L 272.54174 126.787288 
L 274.980551 137.290309 
L 277.419362 100.142781 
L 279.858173 77.302071 
L 284.735795 35.141157 
L 287.174607 25.92798 
L 289.613418 22.365888 
L 292.052229 31.06521 
L 294.49104 45.16137 
L 296.929851 52.305125 
L 299.368663 51.015281 
L 301.807474 58.557465 
L 304.246285 53.86712 
L 306.685096 37.449239 
L 309.123907 37.449239 
L 311.562719 37.139677 
L 314.00153 29.032081 
L 316.440341 29.778833 
L 318.879152 37.011886 
L 321.317963 39.541966 
L 323.756774 35.429204 
L 326.195586 36.786935 
L 328.634397 37.459012 
L 331.073208 36.69361 
L 333.512019 38.628377 
L 335.95083 52.196873 
L 338.389642 51.097111 
L 340.828453 42.697946 
L 343.267264 40.079464 
L 345.706075 34.527523 
L 348.144886 21.386994 
L 350.583698 27.578248 
L 353.022509 25.529671 
L 355.46132 24.002224 
L 357.900131 21.517439 
L 360.338942 24.289839 
L 362.777753 17.76 
L 365.216565 21.629534 
L 367.655376 27.863784 
L 370.094187 37.949086 
L 372.532998 37.78198 
L 374.971809 38.894471 
L 377.410621 37.716787 
L 379.849432 32.082982 
L 382.288243 28.201468 
L 384.727054 26.898682 
L 387.165865 29.306392 
L 389.604677 33.381366 
L 392.043488 33.973586 
L 394.482299 43.365613 
L 396.92111 59.13382 
L 399.359921 65.67651 
L 401.798733 76.432106 
L 404.237544 82.436775 
L 406.676355 81.748082 
L 409.115166 82.1242 
L 411.553977 92.891599 
L 413.992788 98.84152 
L 416.4316 117.238391 
L 418.870411 115.011435 
L 421.309222 115.815139 
L 423.748033 108.580792 
L 426.186844 113.960902 
L 428.625656 113.722329 
L 431.064467 116.295047 
L 433.503278 116.109901 
L 435.942089 127.424083 
L 438.3809 106.001139 
L 440.819712 99.249037 
L 443.258523 108.577423 
L 445.697334 113.540314 
L 448.136145 109.864257 
L 450.574956 135.677568 
L 453.013767 138.786424 
L 455.452579 141.10586 
L 457.89139 126.751371 
L 460.330201 111.582797 
L 462.769012 94.986279 
L 465.207823 94.55633 
L 467.646635 89.54778 
L 470.085446 111.525135 
L 472.524257 123.598081 
L 474.963068 132.748678 
L 477.401879 133.401976 
L 479.840691 132.015046 
L 482.279502 123.622456 
L 484.718313 132.835633 
L 487.157124 125.863499 
L 489.595935 122.004016 
L 492.034747 127.60664 
L 494.473558 127.784474 
L 496.912369 121.637721 
L 499.35118 125.703162 
L 501.789991 135.487556 
L 504.228802 137.467655 
L 506.667614 127.538595 
L 509.106425 126.375221 
L 511.545236 127.365573 
L 513.984047 111.223044 
L 516.422858 103.375737 
L 518.86167 116.486629 
L 521.300481 114.58358 
L 523.739292 108.760852 
L 526.178103 115.888799 
L 528.616914 123.999938 
L 531.055726 126.177356 
L 533.494537 132.810844 
L 535.933348 146.293372 
L 538.372159 144.156659 
L 540.81097 142.747043 
L 543.249781 129.403958 
L 545.688593 125.017297 
L 548.127404 116.694148 
L 550.566215 107.771053 
L 553.005026 100.172695 
L 555.443837 107.594411 
L 560.32146 114.878105 
L 562.760271 132.243819 
L 565.199082 131.412795 
L 567.637893 129.606328 
L 570.076705 132.017345 
L 572.515516 128.291127 
L 574.954327 117.235315 
L 577.393138 125.270274 
L 579.831949 122.021566 
L 582.27076 117.521 
L 584.709572 121.785385 
L 587.148383 127.888193 
L 589.587194 130.164676 
L 592.026005 143.136829 
L 594.464816 135.880468 
L 596.903628 133.574161 
L 599.342439 137.908039 
L 601.78125 142.790269 
L 604.220061 139.436672 
L 606.658872 156.908603 
L 609.097684 173.008352 
L 611.536495 172.521896 
L 613.975306 168.618299 
L 616.414117 167.140841 
L 618.852928 155.889426 
L 621.29174 143.074194 
L 623.730551 131.465592 
L 626.169362 122.530022 
L 628.608173 124.319354 
L 631.046984 123.616378 
L 633.485795 118.795914 
L 635.924607 136.474783 
L 638.363418 142.991894 
L 640.802229 138.116639 
L 643.24104 134.354768 
L 645.679851 132.965253 
L 650.557474 107.26759 
L 655.435096 98.136348 
L 657.873907 101.683421 
L 660.312719 98.391269 
L 662.75153 108.590255 
L 665.190341 115.344351 
L 667.629152 121.000155 
L 670.067963 129.564724 
L 672.506774 131.870209 
L 674.945586 128.636384 
L 677.384397 119.693461 
L 679.823208 116.62185 
L 682.262019 102.713638 
L 684.70083 101.989985 
L 687.139642 100.980948 
L 689.578453 112.346536 
L 692.017264 105.613814 
L 694.456075 111.69451 
L 696.894886 114.106688 
L 699.333698 120.291483 
L 701.772509 113.446493 
L 704.21132 121.213704 
L 706.650131 119.831727 
L 709.088942 119.409596 
L 711.527753 122.194023 
L 713.966565 121.499086 
L 716.405376 123.304142 
L 718.844187 116.846543 
L 721.282998 116.183194 
L 723.721809 119.070712 
L 726.160621 123.765843 
L 728.599432 125.606748 
L 731.038243 135.750588 
L 733.477054 144.439637 
L 735.915865 143.651324 
L 740.793488 159.106927 
L 743.232299 159.058049 
L 745.67111 159.586056 
L 748.109921 156.731553 
L 750.548733 149.954722 
L 752.987544 144.250071 
L 755.426355 150.740512 
L 757.865166 147.991106 
L 760.303977 146.535242 
L 762.742788 148.004921 
L 765.1816 153.95805 
L 767.620411 150.589989 
L 770.059222 153.16303 
L 772.498033 161.781538 
L 774.936844 168.570639 
L 777.375656 170.785203 
L 779.814467 168.200485 
L 782.253278 176.518661 
L 784.692089 175.112479 
L 787.1309 177.196583 
L 789.569712 183.103965 
L 792.008523 192.894442 
L 794.447334 190.129246 
L 796.886145 194.729183 
L 799.324956 195.481319 
L 801.763767 193.130529 
L 804.202579 194.859924 
L 806.64139 200.787721 
L 809.080201 196.436143 
L 811.519012 197.622972 
L 813.957823 203.237177 
L 816.396635 203.804784 
L 818.835446 198.704158 
L 821.274257 203.367033 
L 823.713068 204.771011 
L 826.151879 205.229245 
L 828.590691 207.422739 
L 831.029502 214.247435 
L 833.468313 216.39068 
L 835.907124 213.43547 
L 838.345935 214.173633 
L 840.784747 213.596506 
L 843.223558 211.99191 
L 845.662369 211.428679 
L 848.10118 216.125005 
L 850.539991 215.343201 
L 852.978802 211.486117 
L 855.417614 213.481948 
L 857.856425 214.743424 
L 860.295236 216.610661 
L 862.734047 219.098218 
L 865.172858 226.358872 
L 867.61167 227.242694 
L 870.050481 223.696829 
L 872.489292 224.541091 
L 877.366914 223.325822 
L 879.805726 223.685779 
L 882.244537 226.664861 
L 884.683348 226.117285 
L 889.56097 225.758282 
L 891.999781 225.557268 
L 894.438593 226.637138 
L 896.877404 227.184713 
L 899.316215 228.04461 
L 901.755026 228.344392 
L 904.193837 224.096601 
L 906.632649 222.997562 
L 909.07146 222.227931 
L 911.510271 222.227931 
L 913.949082 222.642524 
L 916.387893 227.09133 
L 918.826705 227.437378 
L 921.265516 226.727482 
L 928.581949 226.727482 
L 931.02076 227.480472 
L 933.459572 228.96 
L 935.898383 228.96 
L 938.337194 226.338703 
L 943.214816 226.338703 
L 945.653628 226.03119 
L 948.092439 225.138221 
L 950.53125 227.759518 
L 952.970061 227.511206 
L 955.408872 225.826086 
L 957.847684 226.133598 
L 960.286495 227.026568 
L 962.725306 226.629693 
L 965.164117 226.878005 
L 967.602928 228.563125 
L 970.04174 228.362976 
L 972.480551 227.581252 
L 974.919362 227.978128 
L 977.358173 227.664382 
L 979.796984 227.664382 
L 982.235795 227.86453 
L 984.674607 228.646254 
L 989.552229 228.70059 
L 991.99104 228.419169 
L 999.307474 228.419169 
L 1004.185096 228.96 
L 1011.50153 228.96 
L 1013.940341 228.420065 
L 1021.256774 228.420065 
L 1023.695586 227.5356 
L 1026.134397 228.075535 
L 1028.573208 228.075535 
L 1031.012019 227.182566 
L 1033.45083 225.775462 
L 1035.889642 226.659927 
L 1040.767264 226.659927 
L 1043.206075 227.552897 
L 1045.644886 228.96 
L 1057.838942 228.96 
L 1060.277753 227.705016 
L 1067.594187 227.705016 
L 1070.032998 222.545637 
L 1072.471809 223.800621 
L 1074.910621 222.971435 
L 1079.788243 222.971435 
L 1082.227054 224.558936 
L 1084.665865 224.558936 
L 1087.104677 225.388122 
L 1091.982299 225.388122 
L 1094.42111 226.849345 
L 1104.176355 226.849345 
L 1106.615166 228.96 
L 1109.053977 227.552897 
L 1109.053977 227.552897 
" style="fill:none;stroke:#a4a86f;stroke-linecap:square;stroke-width:2;"/>
   </g>
   <g id="line2d_20">
    <path clip-path="url(#pbb1a04b09d)" d="M 526.178103 220.704994 
L 528.616914 223.800621 
L 531.055726 228.96 
L 538.372159 228.96 
L 540.81097 226.228564 
L 543.249781 226.228564 
L 545.688593 226.024904 
L 548.127404 225.543719 
L 550.566215 225.543719 
L 553.005026 228.275155 
L 555.443837 228.275155 
L 557.882649 228.478814 
L 560.32146 228.96 
L 567.637893 228.96 
L 570.076705 228.256448 
L 572.515516 227.396552 
L 574.954327 227.396552 
L 577.393138 227.209316 
L 579.831949 227.209316 
L 582.27076 227.912868 
L 584.709572 228.772764 
L 587.148383 228.772764 
L 589.587194 228.96 
L 596.903628 228.96 
L 599.342439 228.694661 
L 611.536495 228.736399 
L 613.975306 228.455829 
L 621.29174 228.455829 
L 623.730551 227.857582 
L 626.169362 228.138152 
L 633.485795 228.138152 
L 635.924607 228.96 
L 655.435096 228.96 
L 657.873907 228.576245 
L 667.629152 228.576245 
L 670.067963 228.96 
L 723.721809 228.96 
L 726.160621 228.438265 
L 735.915865 228.438265 
L 738.354677 228.96 
L 801.763767 228.96 
L 804.202579 228.84563 
L 813.957823 228.84563 
L 816.396635 228.96 
L 926.143138 228.866003 
L 926.143138 228.866003 
" style="fill:none;stroke:#d3d3d3;stroke-linecap:square;stroke-width:2;"/>
   </g>
   <g id="patch_3">
    <path d="M 43.78125 228.96 
L 43.78125 7.2 
" style="fill:none;stroke:#000000;stroke-linecap:square;stroke-linejoin:miter;stroke-width:0.8;"/>
   </g>
   <g id="patch_4">
    <path d="M 43.78125 228.96 
L 1159.78125 228.96 
" style="fill:none;stroke:#000000;stroke-linecap:square;stroke-linejoin:miter;stroke-width:0.8;"/>
   </g>
   <g id="legend_1">
    <g id="line2d_21">
     <path d="M 1065.97 17.67875 
L 1081.97 17.67875 
" style="fill:none;stroke:#947383;stroke-linecap:square;stroke-width:2;"/>
    </g>
    <g id="line2d_22"/>
    <g id="text_16">
     <!-- United Kingdom -->
     <g transform="translate(1088.37 20.47875)scale(0.08 -0.08)">
      <defs>
       <path d="M 556 4666 
L 1191 4666 
L 1191 1831 
Q 1191 1081 1462 751 
Q 1734 422 2344 422 
Q 2950 422 3222 751 
Q 3494 1081 3494 1831 
L 3494 4666 
L 4128 4666 
L 4128 1753 
Q 4128 841 3676 375 
Q 3225 -91 2344 -91 
Q 1459 -91 1007 375 
Q 556 841 556 1753 
L 556 4666 
z
" id="DejaVuSans-55" transform="scale(0.015625)"/>
       <path d="M 628 4666 
L 1259 4666 
L 1259 2694 
L 3353 4666 
L 4166 4666 
L 1850 2491 
L 4331 0 
L 3500 0 
L 1259 2247 
L 1259 0 
L 628 0 
L 628 4666 
z
" id="DejaVuSans-4b" transform="scale(0.015625)"/>
       <path d="M 3328 2828 
Q 3544 3216 3844 3400 
Q 4144 3584 4550 3584 
Q 5097 3584 5394 3201 
Q 5691 2819 5691 2113 
L 5691 0 
L 5113 0 
L 5113 2094 
Q 5113 2597 4934 2840 
Q 4756 3084 4391 3084 
Q 3944 3084 3684 2787 
Q 3425 2491 3425 1978 
L 3425 0 
L 2847 0 
L 2847 2094 
Q 2847 2600 2669 2842 
Q 2491 3084 2119 3084 
Q 1678 3084 1418 2786 
Q 1159 2488 1159 1978 
L 1159 0 
L 581 0 
L 581 3500 
L 1159 3500 
L 1159 2956 
Q 1356 3278 1631 3431 
Q 1906 3584 2284 3584 
Q 2666 3584 2933 3390 
Q 3200 3197 3328 2828 
z
" id="DejaVuSans-6d" transform="scale(0.015625)"/>
      </defs>
      <use xlink:href="#DejaVuSans-55"/>
      <use x="73.193359" xlink:href="#DejaVuSans-6e"/>
      <use x="136.572266" xlink:href="#DejaVuSans-69"/>
      <use x="164.355469" xlink:href="#DejaVuSans-74"/>
      <use x="203.564453" xlink:href="#DejaVuSans-65"/>
      <use x="265.087891" xlink:href="#DejaVuSans-64"/>
      <use x="328.564453" xlink:href="#DejaVuSans-20"/>
      <use x="360.351562" xlink:href="#DejaVuSans-4b"/>
      <use x="425.927734" xlink:href="#DejaVuSans-69"/>
      <use x="453.710938" xlink:href="#DejaVuSans-6e"/>
      <use x="517.089844" xlink:href="#DejaVuSans-67"/>
      <use x="580.566406" xlink:href="#DejaVuSans-64"/>
      <use x="644.042969" xlink:href="#DejaVuSans-6f"/>
      <use x="705.224609" xlink:href="#DejaVuSans-6d"/>
     </g>
    </g>
    <g id="line2d_23">
     <path d="M 1065.97 29.42125 
L 1081.97 29.42125 
" style="fill:none;stroke:#96c6ad;stroke-linecap:square;stroke-width:2;"/>
    </g>
    <g id="line2d_24"/>
    <g id="text_17">
     <!-- North America -->
     <g transform="translate(1088.37 32.22125)scale(0.08 -0.08)">
      <defs>
       <path d="M 628 4666 
L 1478 4666 
L 3547 763 
L 3547 4666 
L 4159 4666 
L 4159 0 
L 3309 0 
L 1241 3903 
L 1241 0 
L 628 0 
L 628 4666 
z
" id="DejaVuSans-4e" transform="scale(0.015625)"/>
       <path d="M 3513 2113 
L 3513 0 
L 2938 0 
L 2938 2094 
Q 2938 2591 2744 2837 
Q 2550 3084 2163 3084 
Q 1697 3084 1428 2787 
Q 1159 2491 1159 1978 
L 1159 0 
L 581 0 
L 581 4863 
L 1159 4863 
L 1159 2956 
Q 1366 3272 1645 3428 
Q 1925 3584 2291 3584 
Q 2894 3584 3203 3211 
Q 3513 2838 3513 2113 
z
" id="DejaVuSans-68" transform="scale(0.015625)"/>
       <path d="M 2188 4044 
L 1331 1722 
L 3047 1722 
L 2188 4044 
z
M 1831 4666 
L 2547 4666 
L 4325 0 
L 3669 0 
L 3244 1197 
L 1141 1197 
L 716 0 
L 50 0 
L 1831 4666 
z
" id="DejaVuSans-41" transform="scale(0.015625)"/>
      </defs>
      <use xlink:href="#DejaVuSans-4e"/>
      <use x="74.804688" xlink:href="#DejaVuSans-6f"/>
      <use x="135.986328" xlink:href="#DejaVuSans-72"/>
      <use x="177.099609" xlink:href="#DejaVuSans-74"/>
      <use x="216.308594" xlink:href="#DejaVuSans-68"/>
      <use x="279.6875" xlink:href="#DejaVuSans-20"/>
      <use x="311.474609" xlink:href="#DejaVuSans-41"/>
      <use x="379.882812" xlink:href="#DejaVuSans-6d"/>
      <use x="477.294922" xlink:href="#DejaVuSans-65"/>
      <use x="538.818359" xlink:href="#DejaVuSans-72"/>
      <use x="579.931641" xlink:href="#DejaVuSans-69"/>
      <use x="607.714844" xlink:href="#DejaVuSans-63"/>
      <use x="662.695312" xlink:href="#DejaVuSans-61"/>
     </g>
    </g>
    <g id="line2d_25">
     <path d="M 1065.97 41.16375 
L 1081.97 41.16375 
" style="fill:none;stroke:#525886;stroke-linecap:square;stroke-width:2;"/>
    </g>
    <g id="line2d_26"/>
    <g id="text_18">
     <!-- Europe -->
     <g transform="translate(1088.37 43.96375)scale(0.08 -0.08)">
      <defs>
       <path d="M 628 4666 
L 3578 4666 
L 3578 4134 
L 1259 4134 
L 1259 2753 
L 3481 2753 
L 3481 2222 
L 1259 2222 
L 1259 531 
L 3634 531 
L 3634 0 
L 628 0 
L 628 4666 
z
" id="DejaVuSans-45" transform="scale(0.015625)"/>
       <path d="M 1159 525 
L 1159 -1331 
L 581 -1331 
L 581 3500 
L 1159 3500 
L 1159 2969 
Q 1341 3281 1617 3432 
Q 1894 3584 2278 3584 
Q 2916 3584 3314 3078 
Q 3713 2572 3713 1747 
Q 3713 922 3314 415 
Q 2916 -91 2278 -91 
Q 1894 -91 1617 61 
Q 1341 213 1159 525 
z
M 3116 1747 
Q 3116 2381 2855 2742 
Q 2594 3103 2138 3103 
Q 1681 3103 1420 2742 
Q 1159 2381 1159 1747 
Q 1159 1113 1420 752 
Q 1681 391 2138 391 
Q 2594 391 2855 752 
Q 3116 1113 3116 1747 
z
" id="DejaVuSans-70" transform="scale(0.015625)"/>
      </defs>
      <use xlink:href="#DejaVuSans-45"/>
      <use x="63.183594" xlink:href="#DejaVuSans-75"/>
      <use x="126.5625" xlink:href="#DejaVuSans-72"/>
      <use x="165.425781" xlink:href="#DejaVuSans-6f"/>
      <use x="226.607422" xlink:href="#DejaVuSans-70"/>
      <use x="290.083984" xlink:href="#DejaVuSans-65"/>
     </g>
    </g>
    <g id="line2d_27">
     <path d="M 1065.97 52.90625 
L 1081.97 52.90625 
" style="fill:none;stroke:#937252;stroke-linecap:square;stroke-width:2;"/>
    </g>
    <g id="line2d_28"/>
    <g id="text_19">
     <!-- Oceania -->
     <g transform="translate(1088.37 55.70625)scale(0.08 -0.08)">
      <defs>
       <path d="M 2522 4238 
Q 1834 4238 1429 3725 
Q 1025 3213 1025 2328 
Q 1025 1447 1429 934 
Q 1834 422 2522 422 
Q 3209 422 3611 934 
Q 4013 1447 4013 2328 
Q 4013 3213 3611 3725 
Q 3209 4238 2522 4238 
z
M 2522 4750 
Q 3503 4750 4090 4092 
Q 4678 3434 4678 2328 
Q 4678 1225 4090 567 
Q 3503 -91 2522 -91 
Q 1538 -91 948 565 
Q 359 1222 359 2328 
Q 359 3434 948 4092 
Q 1538 4750 2522 4750 
z
" id="DejaVuSans-4f" transform="scale(0.015625)"/>
      </defs>
      <use xlink:href="#DejaVuSans-4f"/>
      <use x="78.710938" xlink:href="#DejaVuSans-63"/>
      <use x="133.691406" xlink:href="#DejaVuSans-65"/>
      <use x="195.214844" xlink:href="#DejaVuSans-61"/>
      <use x="256.494141" xlink:href="#DejaVuSans-6e"/>
      <use x="319.873047" xlink:href="#DejaVuSans-69"/>
      <use x="347.65625" xlink:href="#DejaVuSans-61"/>
     </g>
    </g>
    <g id="line2d_29">
     <path d="M 1065.97 64.64875 
L 1081.97 64.64875 
" style="fill:none;stroke:#d18cad;stroke-linecap:square;stroke-width:2;"/>
    </g>
    <g id="line2d_30"/>
    <g id="text_20">
     <!-- Asia -->
     <g transform="translate(1088.37 67.44875)scale(0.08 -0.08)">
      <defs>
       <path d="M 2834 3397 
L 2834 2853 
Q 2591 2978 2328 3040 
Q 2066 3103 1784 3103 
Q 1356 3103 1142 2972 
Q 928 2841 928 2578 
Q 928 2378 1081 2264 
Q 1234 2150 1697 2047 
L 1894 2003 
Q 2506 1872 2764 1633 
Q 3022 1394 3022 966 
Q 3022 478 2636 193 
Q 2250 -91 1575 -91 
Q 1294 -91 989 -36 
Q 684 19 347 128 
L 347 722 
Q 666 556 975 473 
Q 1284 391 1588 391 
Q 1994 391 2212 530 
Q 2431 669 2431 922 
Q 2431 1156 2273 1281 
Q 2116 1406 1581 1522 
L 1381 1569 
Q 847 1681 609 1914 
Q 372 2147 372 2553 
Q 372 3047 722 3315 
Q 1072 3584 1716 3584 
Q 2034 3584 2315 3537 
Q 2597 3491 2834 3397 
z
" id="DejaVuSans-73" transform="scale(0.015625)"/>
      </defs>
      <use xlink:href="#DejaVuSans-41"/>
      <use x="68.408203" xlink:href="#DejaVuSans-73"/>
      <use x="120.507812" xlink:href="#DejaVuSans-69"/>
      <use x="148.291016" xlink:href="#DejaVuSans-61"/>
     </g>
    </g>
    <g id="line2d_31">
     <path d="M 1065.97 76.39125 
L 1081.97 76.39125 
" style="fill:none;stroke:#a4a86f;stroke-linecap:square;stroke-width:2;"/>
    </g>
    <g id="line2d_32"/>
    <g id="text_21">
     <!-- Africa -->
     <g transform="translate(1088.37 79.19125)scale(0.08 -0.08)">
      <defs>
       <path d="M 2375 4863 
L 2375 4384 
L 1825 4384 
Q 1516 4384 1395 4259 
Q 1275 4134 1275 3809 
L 1275 3500 
L 2222 3500 
L 2222 3053 
L 1275 3053 
L 1275 0 
L 697 0 
L 697 3053 
L 147 3053 
L 147 3500 
L 697 3500 
L 697 3744 
Q 697 4328 969 4595 
Q 1241 4863 1831 4863 
L 2375 4863 
z
" id="DejaVuSans-66" transform="scale(0.015625)"/>
      </defs>
      <use xlink:href="#DejaVuSans-41"/>
      <use x="64.783203" xlink:href="#DejaVuSans-66"/>
      <use x="99.988281" xlink:href="#DejaVuSans-72"/>
      <use x="141.101562" xlink:href="#DejaVuSans-69"/>
      <use x="168.884766" xlink:href="#DejaVuSans-63"/>
      <use x="223.865234" xlink:href="#DejaVuSans-61"/>
     </g>
    </g>
    <g id="line2d_33">
     <path d="M 1065.97 88.13375 
L 1081.97 88.13375 
" style="fill:none;stroke:#d3d3d3;stroke-linecap:square;stroke-width:2;"/>
    </g>
    <g id="line2d_34"/>
    <g id="text_22">
     <!-- South America -->
     <g transform="translate(1088.37 90.93375)scale(0.08 -0.08)">
      <defs>
       <path d="M 3425 4513 
L 3425 3897 
Q 3066 4069 2747 4153 
Q 2428 4238 2131 4238 
Q 1616 4238 1336 4038 
Q 1056 3838 1056 3469 
Q 1056 3159 1242 3001 
Q 1428 2844 1947 2747 
L 2328 2669 
Q 3034 2534 3370 2195 
Q 3706 1856 3706 1288 
Q 3706 609 3251 259 
Q 2797 -91 1919 -91 
Q 1588 -91 1214 -16 
Q 841 59 441 206 
L 441 856 
Q 825 641 1194 531 
Q 1563 422 1919 422 
Q 2459 422 2753 634 
Q 3047 847 3047 1241 
Q 3047 1584 2836 1778 
Q 2625 1972 2144 2069 
L 1759 2144 
Q 1053 2284 737 2584 
Q 422 2884 422 3419 
Q 422 4038 858 4394 
Q 1294 4750 2059 4750 
Q 2388 4750 2728 4690 
Q 3069 4631 3425 4513 
z
" id="DejaVuSans-53" transform="scale(0.015625)"/>
      </defs>
      <use xlink:href="#DejaVuSans-53"/>
      <use x="63.476562" xlink:href="#DejaVuSans-6f"/>
      <use x="124.658203" xlink:href="#DejaVuSans-75"/>
      <use x="188.037109" xlink:href="#DejaVuSans-74"/>
      <use x="227.246094" xlink:href="#DejaVuSans-68"/>
      <use x="290.625" xlink:href="#DejaVuSans-20"/>
      <use x="322.412109" xlink:href="#DejaVuSans-41"/>
      <use x="390.820312" xlink:href="#DejaVuSans-6d"/>
      <use x="488.232422" xlink:href="#DejaVuSans-65"/>
      <use x="549.755859" xlink:href="#DejaVuSans-72"/>
      <use x="590.869141" xlink:href="#DejaVuSans-69"/>
      <use x="618.652344" xlink:href="#DejaVuSans-63"/>
      <use x="673.632812" xlink:href="#DejaVuSans-61"/>
     </g>
    </g>
   </g>
  </g>
 </g>
 <defs>
  <clipPath id="pbb1a04b09d">
   <rect height="221.76" width="1116" x="43.78125" y="7.2"/>
  </clipPath>
 </defs>
</svg>
