<?xml version="1.0" encoding="utf-8" standalone="no"?>
<!DOCTYPE svg PUBLIC "-//W3C//DTD SVG 1.1//EN"
  "http://www.w3.org/Graphics/SVG/1.1/DTD/svg11.dtd">
<svg height="298.620937pt" version="1.1" viewBox="0 0 1166.98125 298.620937" width="1166.98125pt" xmlns="http://www.w3.org/2000/svg" xmlns:xlink="http://www.w3.org/1999/xlink">
 <metadata>
  <rdf:RDF xmlns:cc="http://creativecommons.org/ns#" xmlns:dc="http://purl.org/dc/elements/1.1/" xmlns:rdf="http://www.w3.org/1999/02/22-rdf-syntax-ns#">
   <cc:Work>
    <dc:type rdf:resource="http://purl.org/dc/dcmitype/StillImage"/>
    <dc:date>2021-11-29T13:30:59.134032</dc:date>
    <dc:format>image/svg+xml</dc:format>
    <dc:creator>
     <cc:Agent>
      <dc:title>Matplotlib v3.4.2, https://matplotlib.org/</dc:title>
     </cc:Agent>
    </dc:creator>
   </cc:Work>
  </rdf:RDF>
 </metadata>
 <defs>
  <style type="text/css">*{stroke-linecap:butt;stroke-linejoin:round;}</style>
 </defs>
 <g id="figure_1">
  <g id="patch_1">
   <path d="M 0 298.620937 
L 1166.98125 298.620937 
L 1166.98125 0 
L 0 0 
z
" style="fill:#ffffff;"/>
  </g>
  <g id="axes_1">
   <g id="patch_2">
    <path d="M 43.78125 228.96 
L 1159.78125 228.96 
L 1159.78125 7.2 
L 43.78125 7.2 
z
" style="fill:#ffffff;"/>
   </g>
   <g id="matplotlib.axis_1">
    <g id="xtick_1">
     <g id="line2d_1">
      <defs>
       <path d="M 0 0 
L 0 3.5 
" id="m0c3a82ff3e" style="stroke:#000000;stroke-width:0.8;"/>
      </defs>
      <g>
       <use style="stroke:#000000;stroke-width:0.8;" x="80.285923" xlink:href="#m0c3a82ff3e" y="228.96"/>
      </g>
     </g>
     <g id="text_1">
      <!-- 2020-09 -->
      <g transform="translate(83.045298 277.742812)rotate(-90)scale(0.1 -0.1)">
       <defs>
        <path d="M 1228 531 
L 3431 531 
L 3431 0 
L 469 0 
L 469 531 
Q 828 903 1448 1529 
Q 2069 2156 2228 2338 
Q 2531 2678 2651 2914 
Q 2772 3150 2772 3378 
Q 2772 3750 2511 3984 
Q 2250 4219 1831 4219 
Q 1534 4219 1204 4116 
Q 875 4013 500 3803 
L 500 4441 
Q 881 4594 1212 4672 
Q 1544 4750 1819 4750 
Q 2544 4750 2975 4387 
Q 3406 4025 3406 3419 
Q 3406 3131 3298 2873 
Q 3191 2616 2906 2266 
Q 2828 2175 2409 1742 
Q 1991 1309 1228 531 
z
" id="DejaVuSans-32" transform="scale(0.015625)"/>
        <path d="M 2034 4250 
Q 1547 4250 1301 3770 
Q 1056 3291 1056 2328 
Q 1056 1369 1301 889 
Q 1547 409 2034 409 
Q 2525 409 2770 889 
Q 3016 1369 3016 2328 
Q 3016 3291 2770 3770 
Q 2525 4250 2034 4250 
z
M 2034 4750 
Q 2819 4750 3233 4129 
Q 3647 3509 3647 2328 
Q 3647 1150 3233 529 
Q 2819 -91 2034 -91 
Q 1250 -91 836 529 
Q 422 1150 422 2328 
Q 422 3509 836 4129 
Q 1250 4750 2034 4750 
z
" id="DejaVuSans-30" transform="scale(0.015625)"/>
        <path d="M 313 2009 
L 1997 2009 
L 1997 1497 
L 313 1497 
L 313 2009 
z
" id="DejaVuSans-2d" transform="scale(0.015625)"/>
        <path d="M 703 97 
L 703 672 
Q 941 559 1184 500 
Q 1428 441 1663 441 
Q 2288 441 2617 861 
Q 2947 1281 2994 2138 
Q 2813 1869 2534 1725 
Q 2256 1581 1919 1581 
Q 1219 1581 811 2004 
Q 403 2428 403 3163 
Q 403 3881 828 4315 
Q 1253 4750 1959 4750 
Q 2769 4750 3195 4129 
Q 3622 3509 3622 2328 
Q 3622 1225 3098 567 
Q 2575 -91 1691 -91 
Q 1453 -91 1209 -44 
Q 966 3 703 97 
z
M 1959 2075 
Q 2384 2075 2632 2365 
Q 2881 2656 2881 3163 
Q 2881 3666 2632 3958 
Q 2384 4250 1959 4250 
Q 1534 4250 1286 3958 
Q 1038 3666 1038 3163 
Q 1038 2656 1286 2365 
Q 1534 2075 1959 2075 
z
" id="DejaVuSans-39" transform="scale(0.015625)"/>
       </defs>
       <use xlink:href="#DejaVuSans-32"/>
       <use x="63.623047" xlink:href="#DejaVuSans-30"/>
       <use x="127.246094" xlink:href="#DejaVuSans-32"/>
       <use x="190.869141" xlink:href="#DejaVuSans-30"/>
       <use x="254.492188" xlink:href="#DejaVuSans-2d"/>
       <use x="290.576172" xlink:href="#DejaVuSans-30"/>
       <use x="354.199219" xlink:href="#DejaVuSans-39"/>
      </g>
     </g>
    </g>
    <g id="xtick_2">
     <g id="line2d_2">
      <g>
       <use style="stroke:#000000;stroke-width:0.8;" x="224.882355" xlink:href="#m0c3a82ff3e" y="228.96"/>
      </g>
     </g>
     <g id="text_2">
      <!-- 2020-11 -->
      <g transform="translate(227.64173 277.742812)rotate(-90)scale(0.1 -0.1)">
       <defs>
        <path d="M 794 531 
L 1825 531 
L 1825 4091 
L 703 3866 
L 703 4441 
L 1819 4666 
L 2450 4666 
L 2450 531 
L 3481 531 
L 3481 0 
L 794 0 
L 794 531 
z
" id="DejaVuSans-31" transform="scale(0.015625)"/>
       </defs>
       <use xlink:href="#DejaVuSans-32"/>
       <use x="63.623047" xlink:href="#DejaVuSans-30"/>
       <use x="127.246094" xlink:href="#DejaVuSans-32"/>
       <use x="190.869141" xlink:href="#DejaVuSans-30"/>
       <use x="254.492188" xlink:href="#DejaVuSans-2d"/>
       <use x="290.576172" xlink:href="#DejaVuSans-31"/>
       <use x="354.199219" xlink:href="#DejaVuSans-31"/>
      </g>
     </g>
    </g>
    <g id="xtick_3">
     <g id="line2d_3">
      <g>
       <use style="stroke:#000000;stroke-width:0.8;" x="369.478786" xlink:href="#m0c3a82ff3e" y="228.96"/>
      </g>
     </g>
     <g id="text_3">
      <!-- 2021-01 -->
      <g transform="translate(372.238161 277.742812)rotate(-90)scale(0.1 -0.1)">
       <use xlink:href="#DejaVuSans-32"/>
       <use x="63.623047" xlink:href="#DejaVuSans-30"/>
       <use x="127.246094" xlink:href="#DejaVuSans-32"/>
       <use x="190.869141" xlink:href="#DejaVuSans-31"/>
       <use x="254.492188" xlink:href="#DejaVuSans-2d"/>
       <use x="290.576172" xlink:href="#DejaVuSans-30"/>
       <use x="354.199219" xlink:href="#DejaVuSans-31"/>
      </g>
     </g>
    </g>
    <g id="xtick_4">
     <g id="line2d_4">
      <g>
       <use style="stroke:#000000;stroke-width:0.8;" x="509.334351" xlink:href="#m0c3a82ff3e" y="228.96"/>
      </g>
     </g>
     <g id="text_4">
      <!-- 2021-03 -->
      <g transform="translate(512.093726 277.742812)rotate(-90)scale(0.1 -0.1)">
       <defs>
        <path d="M 2597 2516 
Q 3050 2419 3304 2112 
Q 3559 1806 3559 1356 
Q 3559 666 3084 287 
Q 2609 -91 1734 -91 
Q 1441 -91 1130 -33 
Q 819 25 488 141 
L 488 750 
Q 750 597 1062 519 
Q 1375 441 1716 441 
Q 2309 441 2620 675 
Q 2931 909 2931 1356 
Q 2931 1769 2642 2001 
Q 2353 2234 1838 2234 
L 1294 2234 
L 1294 2753 
L 1863 2753 
Q 2328 2753 2575 2939 
Q 2822 3125 2822 3475 
Q 2822 3834 2567 4026 
Q 2313 4219 1838 4219 
Q 1578 4219 1281 4162 
Q 984 4106 628 3988 
L 628 4550 
Q 988 4650 1302 4700 
Q 1616 4750 1894 4750 
Q 2613 4750 3031 4423 
Q 3450 4097 3450 3541 
Q 3450 3153 3228 2886 
Q 3006 2619 2597 2516 
z
" id="DejaVuSans-33" transform="scale(0.015625)"/>
       </defs>
       <use xlink:href="#DejaVuSans-32"/>
       <use x="63.623047" xlink:href="#DejaVuSans-30"/>
       <use x="127.246094" xlink:href="#DejaVuSans-32"/>
       <use x="190.869141" xlink:href="#DejaVuSans-31"/>
       <use x="254.492188" xlink:href="#DejaVuSans-2d"/>
       <use x="290.576172" xlink:href="#DejaVuSans-30"/>
       <use x="354.199219" xlink:href="#DejaVuSans-33"/>
      </g>
     </g>
    </g>
    <g id="xtick_5">
     <g id="line2d_5">
      <g>
       <use style="stroke:#000000;stroke-width:0.8;" x="653.930783" xlink:href="#m0c3a82ff3e" y="228.96"/>
      </g>
     </g>
     <g id="text_5">
      <!-- 2021-05 -->
      <g transform="translate(656.690158 277.742812)rotate(-90)scale(0.1 -0.1)">
       <defs>
        <path d="M 691 4666 
L 3169 4666 
L 3169 4134 
L 1269 4134 
L 1269 2991 
Q 1406 3038 1543 3061 
Q 1681 3084 1819 3084 
Q 2600 3084 3056 2656 
Q 3513 2228 3513 1497 
Q 3513 744 3044 326 
Q 2575 -91 1722 -91 
Q 1428 -91 1123 -41 
Q 819 9 494 109 
L 494 744 
Q 775 591 1075 516 
Q 1375 441 1709 441 
Q 2250 441 2565 725 
Q 2881 1009 2881 1497 
Q 2881 1984 2565 2268 
Q 2250 2553 1709 2553 
Q 1456 2553 1204 2497 
Q 953 2441 691 2322 
L 691 4666 
z
" id="DejaVuSans-35" transform="scale(0.015625)"/>
       </defs>
       <use xlink:href="#DejaVuSans-32"/>
       <use x="63.623047" xlink:href="#DejaVuSans-30"/>
       <use x="127.246094" xlink:href="#DejaVuSans-32"/>
       <use x="190.869141" xlink:href="#DejaVuSans-31"/>
       <use x="254.492188" xlink:href="#DejaVuSans-2d"/>
       <use x="290.576172" xlink:href="#DejaVuSans-30"/>
       <use x="354.199219" xlink:href="#DejaVuSans-35"/>
      </g>
     </g>
    </g>
    <g id="xtick_6">
     <g id="line2d_6">
      <g>
       <use style="stroke:#000000;stroke-width:0.8;" x="798.527214" xlink:href="#m0c3a82ff3e" y="228.96"/>
      </g>
     </g>
     <g id="text_6">
      <!-- 2021-07 -->
      <g transform="translate(801.286589 277.742812)rotate(-90)scale(0.1 -0.1)">
       <defs>
        <path d="M 525 4666 
L 3525 4666 
L 3525 4397 
L 1831 0 
L 1172 0 
L 2766 4134 
L 525 4134 
L 525 4666 
z
" id="DejaVuSans-37" transform="scale(0.015625)"/>
       </defs>
       <use xlink:href="#DejaVuSans-32"/>
       <use x="63.623047" xlink:href="#DejaVuSans-30"/>
       <use x="127.246094" xlink:href="#DejaVuSans-32"/>
       <use x="190.869141" xlink:href="#DejaVuSans-31"/>
       <use x="254.492188" xlink:href="#DejaVuSans-2d"/>
       <use x="290.576172" xlink:href="#DejaVuSans-30"/>
       <use x="354.199219" xlink:href="#DejaVuSans-37"/>
      </g>
     </g>
    </g>
    <g id="xtick_7">
     <g id="line2d_7">
      <g>
       <use style="stroke:#000000;stroke-width:0.8;" x="945.494079" xlink:href="#m0c3a82ff3e" y="228.96"/>
      </g>
     </g>
     <g id="text_7">
      <!-- 2021-09 -->
      <g transform="translate(948.253454 277.742812)rotate(-90)scale(0.1 -0.1)">
       <use xlink:href="#DejaVuSans-32"/>
       <use x="63.623047" xlink:href="#DejaVuSans-30"/>
       <use x="127.246094" xlink:href="#DejaVuSans-32"/>
       <use x="190.869141" xlink:href="#DejaVuSans-31"/>
       <use x="254.492188" xlink:href="#DejaVuSans-2d"/>
       <use x="290.576172" xlink:href="#DejaVuSans-30"/>
       <use x="354.199219" xlink:href="#DejaVuSans-39"/>
      </g>
     </g>
    </g>
    <g id="xtick_8">
     <g id="line2d_8">
      <g>
       <use style="stroke:#000000;stroke-width:0.8;" x="1090.090511" xlink:href="#m0c3a82ff3e" y="228.96"/>
      </g>
     </g>
     <g id="text_8">
      <!-- 2021-11 -->
      <g transform="translate(1092.849886 277.742812)rotate(-90)scale(0.1 -0.1)">
       <use xlink:href="#DejaVuSans-32"/>
       <use x="63.623047" xlink:href="#DejaVuSans-30"/>
       <use x="127.246094" xlink:href="#DejaVuSans-32"/>
       <use x="190.869141" xlink:href="#DejaVuSans-31"/>
       <use x="254.492188" xlink:href="#DejaVuSans-2d"/>
       <use x="290.576172" xlink:href="#DejaVuSans-31"/>
       <use x="354.199219" xlink:href="#DejaVuSans-31"/>
      </g>
     </g>
    </g>
    <g id="text_9">
     <!-- Date -->
     <g transform="translate(589.830469 289.34125)scale(0.1 -0.1)">
      <defs>
       <path d="M 1259 4147 
L 1259 519 
L 2022 519 
Q 2988 519 3436 956 
Q 3884 1394 3884 2338 
Q 3884 3275 3436 3711 
Q 2988 4147 2022 4147 
L 1259 4147 
z
M 628 4666 
L 1925 4666 
Q 3281 4666 3915 4102 
Q 4550 3538 4550 2338 
Q 4550 1131 3912 565 
Q 3275 0 1925 0 
L 628 0 
L 628 4666 
z
" id="DejaVuSans-44" transform="scale(0.015625)"/>
       <path d="M 2194 1759 
Q 1497 1759 1228 1600 
Q 959 1441 959 1056 
Q 959 750 1161 570 
Q 1363 391 1709 391 
Q 2188 391 2477 730 
Q 2766 1069 2766 1631 
L 2766 1759 
L 2194 1759 
z
M 3341 1997 
L 3341 0 
L 2766 0 
L 2766 531 
Q 2569 213 2275 61 
Q 1981 -91 1556 -91 
Q 1019 -91 701 211 
Q 384 513 384 1019 
Q 384 1609 779 1909 
Q 1175 2209 1959 2209 
L 2766 2209 
L 2766 2266 
Q 2766 2663 2505 2880 
Q 2244 3097 1772 3097 
Q 1472 3097 1187 3025 
Q 903 2953 641 2809 
L 641 3341 
Q 956 3463 1253 3523 
Q 1550 3584 1831 3584 
Q 2591 3584 2966 3190 
Q 3341 2797 3341 1997 
z
" id="DejaVuSans-61" transform="scale(0.015625)"/>
       <path d="M 1172 4494 
L 1172 3500 
L 2356 3500 
L 2356 3053 
L 1172 3053 
L 1172 1153 
Q 1172 725 1289 603 
Q 1406 481 1766 481 
L 2356 481 
L 2356 0 
L 1766 0 
Q 1100 0 847 248 
Q 594 497 594 1153 
L 594 3053 
L 172 3053 
L 172 3500 
L 594 3500 
L 594 4494 
L 1172 4494 
z
" id="DejaVuSans-74" transform="scale(0.015625)"/>
       <path d="M 3597 1894 
L 3597 1613 
L 953 1613 
Q 991 1019 1311 708 
Q 1631 397 2203 397 
Q 2534 397 2845 478 
Q 3156 559 3463 722 
L 3463 178 
Q 3153 47 2828 -22 
Q 2503 -91 2169 -91 
Q 1331 -91 842 396 
Q 353 884 353 1716 
Q 353 2575 817 3079 
Q 1281 3584 2069 3584 
Q 2775 3584 3186 3129 
Q 3597 2675 3597 1894 
z
M 3022 2063 
Q 3016 2534 2758 2815 
Q 2500 3097 2075 3097 
Q 1594 3097 1305 2825 
Q 1016 2553 972 2059 
L 3022 2063 
z
" id="DejaVuSans-65" transform="scale(0.015625)"/>
      </defs>
      <use xlink:href="#DejaVuSans-44"/>
      <use x="77.001953" xlink:href="#DejaVuSans-61"/>
      <use x="138.28125" xlink:href="#DejaVuSans-74"/>
      <use x="177.490234" xlink:href="#DejaVuSans-65"/>
     </g>
    </g>
   </g>
   <g id="matplotlib.axis_2">
    <g id="ytick_1">
     <g id="line2d_9">
      <defs>
       <path d="M 0 0 
L -3.5 0 
" id="m14aba195c3" style="stroke:#000000;stroke-width:0.8;"/>
      </defs>
      <g>
       <use style="stroke:#000000;stroke-width:0.8;" x="43.78125" xlink:href="#m14aba195c3" y="228.96"/>
      </g>
     </g>
     <g id="text_10">
      <!-- 0.0 -->
      <g transform="translate(20.878125 232.759219)scale(0.1 -0.1)">
       <defs>
        <path d="M 684 794 
L 1344 794 
L 1344 0 
L 684 0 
L 684 794 
z
" id="DejaVuSans-2e" transform="scale(0.015625)"/>
       </defs>
       <use xlink:href="#DejaVuSans-30"/>
       <use x="63.623047" xlink:href="#DejaVuSans-2e"/>
       <use x="95.410156" xlink:href="#DejaVuSans-30"/>
      </g>
     </g>
    </g>
    <g id="ytick_2">
     <g id="line2d_10">
      <g>
       <use style="stroke:#000000;stroke-width:0.8;" x="43.78125" xlink:href="#m14aba195c3" y="185.971508"/>
      </g>
     </g>
     <g id="text_11">
      <!-- 0.2 -->
      <g transform="translate(20.878125 189.770727)scale(0.1 -0.1)">
       <use xlink:href="#DejaVuSans-30"/>
       <use x="63.623047" xlink:href="#DejaVuSans-2e"/>
       <use x="95.410156" xlink:href="#DejaVuSans-32"/>
      </g>
     </g>
    </g>
    <g id="ytick_3">
     <g id="line2d_11">
      <g>
       <use style="stroke:#000000;stroke-width:0.8;" x="43.78125" xlink:href="#m14aba195c3" y="142.983016"/>
      </g>
     </g>
     <g id="text_12">
      <!-- 0.4 -->
      <g transform="translate(20.878125 146.782235)scale(0.1 -0.1)">
       <defs>
        <path d="M 2419 4116 
L 825 1625 
L 2419 1625 
L 2419 4116 
z
M 2253 4666 
L 3047 4666 
L 3047 1625 
L 3713 1625 
L 3713 1100 
L 3047 1100 
L 3047 0 
L 2419 0 
L 2419 1100 
L 313 1100 
L 313 1709 
L 2253 4666 
z
" id="DejaVuSans-34" transform="scale(0.015625)"/>
       </defs>
       <use xlink:href="#DejaVuSans-30"/>
       <use x="63.623047" xlink:href="#DejaVuSans-2e"/>
       <use x="95.410156" xlink:href="#DejaVuSans-34"/>
      </g>
     </g>
    </g>
    <g id="ytick_4">
     <g id="line2d_12">
      <g>
       <use style="stroke:#000000;stroke-width:0.8;" x="43.78125" xlink:href="#m14aba195c3" y="99.994524"/>
      </g>
     </g>
     <g id="text_13">
      <!-- 0.6 -->
      <g transform="translate(20.878125 103.793743)scale(0.1 -0.1)">
       <defs>
        <path d="M 2113 2584 
Q 1688 2584 1439 2293 
Q 1191 2003 1191 1497 
Q 1191 994 1439 701 
Q 1688 409 2113 409 
Q 2538 409 2786 701 
Q 3034 994 3034 1497 
Q 3034 2003 2786 2293 
Q 2538 2584 2113 2584 
z
M 3366 4563 
L 3366 3988 
Q 3128 4100 2886 4159 
Q 2644 4219 2406 4219 
Q 1781 4219 1451 3797 
Q 1122 3375 1075 2522 
Q 1259 2794 1537 2939 
Q 1816 3084 2150 3084 
Q 2853 3084 3261 2657 
Q 3669 2231 3669 1497 
Q 3669 778 3244 343 
Q 2819 -91 2113 -91 
Q 1303 -91 875 529 
Q 447 1150 447 2328 
Q 447 3434 972 4092 
Q 1497 4750 2381 4750 
Q 2619 4750 2861 4703 
Q 3103 4656 3366 4563 
z
" id="DejaVuSans-36" transform="scale(0.015625)"/>
       </defs>
       <use xlink:href="#DejaVuSans-30"/>
       <use x="63.623047" xlink:href="#DejaVuSans-2e"/>
       <use x="95.410156" xlink:href="#DejaVuSans-36"/>
      </g>
     </g>
    </g>
    <g id="ytick_5">
     <g id="line2d_13">
      <g>
       <use style="stroke:#000000;stroke-width:0.8;" x="43.78125" xlink:href="#m14aba195c3" y="57.006032"/>
      </g>
     </g>
     <g id="text_14">
      <!-- 0.8 -->
      <g transform="translate(20.878125 60.805251)scale(0.1 -0.1)">
       <defs>
        <path d="M 2034 2216 
Q 1584 2216 1326 1975 
Q 1069 1734 1069 1313 
Q 1069 891 1326 650 
Q 1584 409 2034 409 
Q 2484 409 2743 651 
Q 3003 894 3003 1313 
Q 3003 1734 2745 1975 
Q 2488 2216 2034 2216 
z
M 1403 2484 
Q 997 2584 770 2862 
Q 544 3141 544 3541 
Q 544 4100 942 4425 
Q 1341 4750 2034 4750 
Q 2731 4750 3128 4425 
Q 3525 4100 3525 3541 
Q 3525 3141 3298 2862 
Q 3072 2584 2669 2484 
Q 3125 2378 3379 2068 
Q 3634 1759 3634 1313 
Q 3634 634 3220 271 
Q 2806 -91 2034 -91 
Q 1263 -91 848 271 
Q 434 634 434 1313 
Q 434 1759 690 2068 
Q 947 2378 1403 2484 
z
M 1172 3481 
Q 1172 3119 1398 2916 
Q 1625 2713 2034 2713 
Q 2441 2713 2670 2916 
Q 2900 3119 2900 3481 
Q 2900 3844 2670 4047 
Q 2441 4250 2034 4250 
Q 1625 4250 1398 4047 
Q 1172 3844 1172 3481 
z
" id="DejaVuSans-38" transform="scale(0.015625)"/>
       </defs>
       <use xlink:href="#DejaVuSans-30"/>
       <use x="63.623047" xlink:href="#DejaVuSans-2e"/>
       <use x="95.410156" xlink:href="#DejaVuSans-38"/>
      </g>
     </g>
    </g>
    <g id="ytick_6">
     <g id="line2d_14">
      <g>
       <use style="stroke:#000000;stroke-width:0.8;" x="43.78125" xlink:href="#m14aba195c3" y="14.01754"/>
      </g>
     </g>
     <g id="text_15">
      <!-- 1.0 -->
      <g transform="translate(20.878125 17.816759)scale(0.1 -0.1)">
       <use xlink:href="#DejaVuSans-31"/>
       <use x="63.623047" xlink:href="#DejaVuSans-2e"/>
       <use x="95.410156" xlink:href="#DejaVuSans-30"/>
      </g>
     </g>
    </g>
    <g id="text_16">
     <!-- Frequency (7 day rolling average) -->
     <g transform="translate(14.798437 202.529219)rotate(-90)scale(0.1 -0.1)">
      <defs>
       <path d="M 628 4666 
L 3309 4666 
L 3309 4134 
L 1259 4134 
L 1259 2759 
L 3109 2759 
L 3109 2228 
L 1259 2228 
L 1259 0 
L 628 0 
L 628 4666 
z
" id="DejaVuSans-46" transform="scale(0.015625)"/>
       <path d="M 2631 2963 
Q 2534 3019 2420 3045 
Q 2306 3072 2169 3072 
Q 1681 3072 1420 2755 
Q 1159 2438 1159 1844 
L 1159 0 
L 581 0 
L 581 3500 
L 1159 3500 
L 1159 2956 
Q 1341 3275 1631 3429 
Q 1922 3584 2338 3584 
Q 2397 3584 2469 3576 
Q 2541 3569 2628 3553 
L 2631 2963 
z
" id="DejaVuSans-72" transform="scale(0.015625)"/>
       <path d="M 947 1747 
Q 947 1113 1208 752 
Q 1469 391 1925 391 
Q 2381 391 2643 752 
Q 2906 1113 2906 1747 
Q 2906 2381 2643 2742 
Q 2381 3103 1925 3103 
Q 1469 3103 1208 2742 
Q 947 2381 947 1747 
z
M 2906 525 
Q 2725 213 2448 61 
Q 2172 -91 1784 -91 
Q 1150 -91 751 415 
Q 353 922 353 1747 
Q 353 2572 751 3078 
Q 1150 3584 1784 3584 
Q 2172 3584 2448 3432 
Q 2725 3281 2906 2969 
L 2906 3500 
L 3481 3500 
L 3481 -1331 
L 2906 -1331 
L 2906 525 
z
" id="DejaVuSans-71" transform="scale(0.015625)"/>
       <path d="M 544 1381 
L 544 3500 
L 1119 3500 
L 1119 1403 
Q 1119 906 1312 657 
Q 1506 409 1894 409 
Q 2359 409 2629 706 
Q 2900 1003 2900 1516 
L 2900 3500 
L 3475 3500 
L 3475 0 
L 2900 0 
L 2900 538 
Q 2691 219 2414 64 
Q 2138 -91 1772 -91 
Q 1169 -91 856 284 
Q 544 659 544 1381 
z
M 1991 3584 
L 1991 3584 
z
" id="DejaVuSans-75" transform="scale(0.015625)"/>
       <path d="M 3513 2113 
L 3513 0 
L 2938 0 
L 2938 2094 
Q 2938 2591 2744 2837 
Q 2550 3084 2163 3084 
Q 1697 3084 1428 2787 
Q 1159 2491 1159 1978 
L 1159 0 
L 581 0 
L 581 3500 
L 1159 3500 
L 1159 2956 
Q 1366 3272 1645 3428 
Q 1925 3584 2291 3584 
Q 2894 3584 3203 3211 
Q 3513 2838 3513 2113 
z
" id="DejaVuSans-6e" transform="scale(0.015625)"/>
       <path d="M 3122 3366 
L 3122 2828 
Q 2878 2963 2633 3030 
Q 2388 3097 2138 3097 
Q 1578 3097 1268 2742 
Q 959 2388 959 1747 
Q 959 1106 1268 751 
Q 1578 397 2138 397 
Q 2388 397 2633 464 
Q 2878 531 3122 666 
L 3122 134 
Q 2881 22 2623 -34 
Q 2366 -91 2075 -91 
Q 1284 -91 818 406 
Q 353 903 353 1747 
Q 353 2603 823 3093 
Q 1294 3584 2113 3584 
Q 2378 3584 2631 3529 
Q 2884 3475 3122 3366 
z
" id="DejaVuSans-63" transform="scale(0.015625)"/>
       <path d="M 2059 -325 
Q 1816 -950 1584 -1140 
Q 1353 -1331 966 -1331 
L 506 -1331 
L 506 -850 
L 844 -850 
Q 1081 -850 1212 -737 
Q 1344 -625 1503 -206 
L 1606 56 
L 191 3500 
L 800 3500 
L 1894 763 
L 2988 3500 
L 3597 3500 
L 2059 -325 
z
" id="DejaVuSans-79" transform="scale(0.015625)"/>
       <path id="DejaVuSans-20" transform="scale(0.015625)"/>
       <path d="M 1984 4856 
Q 1566 4138 1362 3434 
Q 1159 2731 1159 2009 
Q 1159 1288 1364 580 
Q 1569 -128 1984 -844 
L 1484 -844 
Q 1016 -109 783 600 
Q 550 1309 550 2009 
Q 550 2706 781 3412 
Q 1013 4119 1484 4856 
L 1984 4856 
z
" id="DejaVuSans-28" transform="scale(0.015625)"/>
       <path d="M 2906 2969 
L 2906 4863 
L 3481 4863 
L 3481 0 
L 2906 0 
L 2906 525 
Q 2725 213 2448 61 
Q 2172 -91 1784 -91 
Q 1150 -91 751 415 
Q 353 922 353 1747 
Q 353 2572 751 3078 
Q 1150 3584 1784 3584 
Q 2172 3584 2448 3432 
Q 2725 3281 2906 2969 
z
M 947 1747 
Q 947 1113 1208 752 
Q 1469 391 1925 391 
Q 2381 391 2643 752 
Q 2906 1113 2906 1747 
Q 2906 2381 2643 2742 
Q 2381 3103 1925 3103 
Q 1469 3103 1208 2742 
Q 947 2381 947 1747 
z
" id="DejaVuSans-64" transform="scale(0.015625)"/>
       <path d="M 1959 3097 
Q 1497 3097 1228 2736 
Q 959 2375 959 1747 
Q 959 1119 1226 758 
Q 1494 397 1959 397 
Q 2419 397 2687 759 
Q 2956 1122 2956 1747 
Q 2956 2369 2687 2733 
Q 2419 3097 1959 3097 
z
M 1959 3584 
Q 2709 3584 3137 3096 
Q 3566 2609 3566 1747 
Q 3566 888 3137 398 
Q 2709 -91 1959 -91 
Q 1206 -91 779 398 
Q 353 888 353 1747 
Q 353 2609 779 3096 
Q 1206 3584 1959 3584 
z
" id="DejaVuSans-6f" transform="scale(0.015625)"/>
       <path d="M 603 4863 
L 1178 4863 
L 1178 0 
L 603 0 
L 603 4863 
z
" id="DejaVuSans-6c" transform="scale(0.015625)"/>
       <path d="M 603 3500 
L 1178 3500 
L 1178 0 
L 603 0 
L 603 3500 
z
M 603 4863 
L 1178 4863 
L 1178 4134 
L 603 4134 
L 603 4863 
z
" id="DejaVuSans-69" transform="scale(0.015625)"/>
       <path d="M 2906 1791 
Q 2906 2416 2648 2759 
Q 2391 3103 1925 3103 
Q 1463 3103 1205 2759 
Q 947 2416 947 1791 
Q 947 1169 1205 825 
Q 1463 481 1925 481 
Q 2391 481 2648 825 
Q 2906 1169 2906 1791 
z
M 3481 434 
Q 3481 -459 3084 -895 
Q 2688 -1331 1869 -1331 
Q 1566 -1331 1297 -1286 
Q 1028 -1241 775 -1147 
L 775 -588 
Q 1028 -725 1275 -790 
Q 1522 -856 1778 -856 
Q 2344 -856 2625 -561 
Q 2906 -266 2906 331 
L 2906 616 
Q 2728 306 2450 153 
Q 2172 0 1784 0 
Q 1141 0 747 490 
Q 353 981 353 1791 
Q 353 2603 747 3093 
Q 1141 3584 1784 3584 
Q 2172 3584 2450 3431 
Q 2728 3278 2906 2969 
L 2906 3500 
L 3481 3500 
L 3481 434 
z
" id="DejaVuSans-67" transform="scale(0.015625)"/>
       <path d="M 191 3500 
L 800 3500 
L 1894 563 
L 2988 3500 
L 3597 3500 
L 2284 0 
L 1503 0 
L 191 3500 
z
" id="DejaVuSans-76" transform="scale(0.015625)"/>
       <path d="M 513 4856 
L 1013 4856 
Q 1481 4119 1714 3412 
Q 1947 2706 1947 2009 
Q 1947 1309 1714 600 
Q 1481 -109 1013 -844 
L 513 -844 
Q 928 -128 1133 580 
Q 1338 1288 1338 2009 
Q 1338 2731 1133 3434 
Q 928 4138 513 4856 
z
" id="DejaVuSans-29" transform="scale(0.015625)"/>
      </defs>
      <use xlink:href="#DejaVuSans-46"/>
      <use x="50.269531" xlink:href="#DejaVuSans-72"/>
      <use x="89.132812" xlink:href="#DejaVuSans-65"/>
      <use x="150.65625" xlink:href="#DejaVuSans-71"/>
      <use x="214.132812" xlink:href="#DejaVuSans-75"/>
      <use x="277.511719" xlink:href="#DejaVuSans-65"/>
      <use x="339.035156" xlink:href="#DejaVuSans-6e"/>
      <use x="402.414062" xlink:href="#DejaVuSans-63"/>
      <use x="457.394531" xlink:href="#DejaVuSans-79"/>
      <use x="516.574219" xlink:href="#DejaVuSans-20"/>
      <use x="548.361328" xlink:href="#DejaVuSans-28"/>
      <use x="587.375" xlink:href="#DejaVuSans-37"/>
      <use x="650.998047" xlink:href="#DejaVuSans-20"/>
      <use x="682.785156" xlink:href="#DejaVuSans-64"/>
      <use x="746.261719" xlink:href="#DejaVuSans-61"/>
      <use x="807.541016" xlink:href="#DejaVuSans-79"/>
      <use x="866.720703" xlink:href="#DejaVuSans-20"/>
      <use x="898.507812" xlink:href="#DejaVuSans-72"/>
      <use x="937.371094" xlink:href="#DejaVuSans-6f"/>
      <use x="998.552734" xlink:href="#DejaVuSans-6c"/>
      <use x="1026.335938" xlink:href="#DejaVuSans-6c"/>
      <use x="1054.119141" xlink:href="#DejaVuSans-69"/>
      <use x="1081.902344" xlink:href="#DejaVuSans-6e"/>
      <use x="1145.28125" xlink:href="#DejaVuSans-67"/>
      <use x="1208.757812" xlink:href="#DejaVuSans-20"/>
      <use x="1240.544922" xlink:href="#DejaVuSans-61"/>
      <use x="1301.824219" xlink:href="#DejaVuSans-76"/>
      <use x="1361.003906" xlink:href="#DejaVuSans-65"/>
      <use x="1422.527344" xlink:href="#DejaVuSans-72"/>
      <use x="1463.640625" xlink:href="#DejaVuSans-61"/>
      <use x="1524.919922" xlink:href="#DejaVuSans-67"/>
      <use x="1588.396484" xlink:href="#DejaVuSans-65"/>
      <use x="1649.919922" xlink:href="#DejaVuSans-29"/>
     </g>
    </g>
   </g>
   <g id="line2d_15">
    <path clip-path="url(#pf3954d53a4)" d="M 94.508523 227.782233 
L 96.878956 228.96 
L 141.917189 228.96 
L 144.287622 226.810575 
L 153.769355 226.810575 
L 156.139789 228.96 
L 165.621522 228.96 
L 167.991955 227.731757 
L 170.362388 226.871988 
L 172.732822 226.871988 
L 175.103255 225.002923 
L 177.473688 225.002923 
L 179.844122 226.231165 
L 182.214555 226.408578 
L 184.584988 226.408578 
L 186.955422 228.277643 
L 189.325855 227.799993 
L 198.807588 227.90917 
L 201.178021 228.38682 
L 203.548455 228.38682 
L 205.918888 228.231381 
L 210.659755 228.231381 
L 213.030188 227.543566 
L 215.400621 226.977928 
L 217.771055 227.706546 
L 222.511921 227.706546 
L 224.882355 228.394362 
L 227.252788 228.96 
L 229.623221 228.674362 
L 231.993654 228.534335 
L 234.364088 228.534335 
L 236.734521 226.942168 
L 239.104954 226.942168 
L 241.475388 220.714398 
L 243.845821 220.452899 
L 246.216254 220.452899 
L 248.586688 222.045065 
L 250.957121 221.769498 
L 253.327554 227.98017 
L 255.697987 228.381697 
L 262.809287 228.437414 
L 265.179721 228.74015 
L 267.550154 228.222216 
L 272.291021 228.263691 
L 274.661454 228.442066 
L 277.031887 228.372308 
L 279.402321 228.506416 
L 281.772754 228.134758 
L 291.254487 228.180187 
L 293.62492 228.33039 
L 295.995354 228.236733 
L 298.365787 228.004363 
L 303.106654 228.258436 
L 307.84752 228.334724 
L 310.217953 228.39561 
L 314.95882 228.292761 
L 317.329253 227.45985 
L 319.699687 227.22748 
L 322.07012 226.703733 
L 324.440553 225.727914 
L 326.810987 225.560615 
L 329.18142 225.782296 
L 331.551853 225.259463 
L 333.922287 225.166397 
L 336.29272 224.943832 
L 338.663153 223.72692 
L 341.033586 221.381188 
L 343.40402 220.735021 
L 345.774453 217.831916 
L 348.144886 216.252483 
L 350.51532 215.187668 
L 352.885753 216.131677 
L 355.256186 213.995532 
L 357.62662 214.869337 
L 359.997053 215.957788 
L 362.367486 212.959855 
L 364.737919 209.636491 
L 367.108353 207.146903 
L 369.478786 205.63917 
L 371.849219 202.555884 
L 374.219653 201.843052 
L 376.590086 204.766255 
L 378.960519 203.947171 
L 381.330953 201.256855 
L 383.701386 196.005839 
L 386.071819 193.815668 
L 388.442253 189.375048 
L 390.812686 185.326079 
L 395.553552 190.59627 
L 397.923986 190.429964 
L 400.294419 189.357414 
L 402.664852 190.932287 
L 405.035286 184.755062 
L 407.405719 181.942276 
L 409.776152 184.135245 
L 412.146586 181.925563 
L 414.517019 181.34718 
L 416.887452 182.154807 
L 419.257886 181.229188 
L 421.628319 175.781703 
L 423.998752 173.367803 
L 426.369185 173.913925 
L 428.739619 172.277549 
L 431.110052 171.573419 
L 433.480485 171.932796 
L 435.850919 171.516426 
L 438.221352 166.179629 
L 440.591785 161.51148 
L 442.962219 159.843023 
L 445.332652 154.970722 
L 447.703085 149.058116 
L 450.073518 146.475295 
L 452.443952 144.449804 
L 454.814385 140.145886 
L 457.184818 134.100262 
L 459.555252 132.467144 
L 461.925685 129.624995 
L 464.296118 128.33132 
L 466.666552 124.890457 
L 469.036985 125.595286 
L 471.407418 124.75172 
L 473.777852 122.549139 
L 476.148285 116.919323 
L 478.518718 116.502444 
L 480.889151 115.489123 
L 483.259585 113.02464 
L 485.630018 112.634728 
L 488.000451 115.980239 
L 490.370885 111.770029 
L 492.741318 107.014477 
L 495.111751 105.171307 
L 497.482185 100.095926 
L 499.852618 95.774643 
L 502.223051 93.815946 
L 504.593484 94.670802 
L 506.963918 89.699519 
L 509.334351 85.814061 
L 511.704784 82.858175 
L 514.075218 79.458305 
L 516.445651 75.36638 
L 518.816084 75.769015 
L 521.186518 74.221853 
L 523.556951 70.893495 
L 525.927384 67.371573 
L 528.297818 65.13788 
L 530.668251 61.311659 
L 533.038684 60.087455 
L 535.409117 58.518931 
L 537.779551 59.11005 
L 540.149984 58.689902 
L 542.520417 57.608915 
L 544.890851 59.180819 
L 547.261284 58.276964 
L 549.631717 57.824798 
L 552.002151 56.738515 
L 554.372584 57.52035 
L 556.743017 55.702413 
L 559.113451 52.743821 
L 561.483884 51.201718 
L 563.854317 49.96467 
L 566.22475 47.586179 
L 568.595184 44.899145 
L 570.965617 46.35886 
L 573.33605 46.457212 
L 575.706484 44.718817 
L 578.076917 45.578586 
L 580.44735 45.766171 
L 582.817784 45.028424 
L 585.188217 44.512901 
L 587.55865 46.280302 
L 589.929083 46.515826 
L 592.299517 44.860475 
L 594.66995 44.651303 
L 597.040383 43.941024 
L 599.410817 41.252438 
L 601.78125 39.304157 
L 604.151683 40.235729 
L 606.522117 39.838694 
L 608.89255 38.412365 
L 611.262983 39.0151 
L 613.633417 38.877879 
L 616.00385 38.447119 
L 618.374283 37.406285 
L 620.744716 37.811562 
L 623.11515 36.897854 
L 625.485583 35.669796 
L 627.856016 35.981333 
L 630.22645 36.452943 
L 632.596883 36.306051 
L 637.33775 37.980138 
L 639.708183 39.370754 
L 642.078616 38.510429 
L 646.819483 39.508462 
L 649.189916 39.134097 
L 651.560349 36.58941 
L 656.301216 38.048048 
L 658.671649 36.095891 
L 661.042083 36.59297 
L 663.412516 37.567447 
L 665.782949 37.416387 
L 668.153383 36.186193 
L 670.523816 38.351772 
L 672.894249 38.805671 
L 675.264682 37.511361 
L 677.635116 37.946186 
L 680.005549 39.378693 
L 684.746416 39.898759 
L 687.116849 40.880844 
L 689.487282 42.080559 
L 691.857716 39.430036 
L 694.228149 39.346835 
L 696.598582 40.029963 
L 698.969016 41.943406 
L 701.339449 42.259022 
L 703.709882 44.705305 
L 706.080315 45.740937 
L 708.450749 42.579213 
L 710.821182 42.675952 
L 713.191615 42.453147 
L 715.562049 44.329642 
L 717.932482 44.785994 
L 720.302915 48.362552 
L 722.673349 51.539502 
L 725.043782 49.666661 
L 727.414215 50.366521 
L 729.784648 51.913442 
L 732.155082 55.786478 
L 734.525515 58.041233 
L 736.895948 63.229421 
L 739.266382 69.826774 
L 741.636815 68.118224 
L 744.007248 69.623726 
L 746.377682 71.693078 
L 748.748115 76.221682 
L 751.118548 76.268213 
L 753.488982 89.952465 
L 755.859415 98.890362 
L 758.229848 98.886167 
L 762.970715 107.332524 
L 767.711581 103.737223 
L 770.082015 111.315003 
L 772.452448 116.174795 
L 774.822881 118.62062 
L 777.193315 122.234859 
L 779.563748 126.915549 
L 781.934181 130.640938 
L 784.304614 134.815352 
L 786.675048 143.384433 
L 793.786348 162.578768 
L 796.156781 168.082997 
L 798.527214 171.253804 
L 803.268081 179.424657 
L 805.638514 182.828403 
L 808.008948 184.959831 
L 810.379381 188.078848 
L 812.749814 190.955859 
L 815.120247 193.619395 
L 817.490681 196.798618 
L 822.231547 204.787655 
L 824.601981 208.476959 
L 826.972414 211.112222 
L 829.342847 213.938764 
L 831.713281 215.539373 
L 834.083714 216.452811 
L 838.824581 219.459262 
L 848.306314 222.169076 
L 853.04718 223.29913 
L 855.417614 223.912799 
L 857.788047 224.109847 
L 860.15848 224.492275 
L 862.528914 225.002509 
L 864.899347 225.020508 
L 867.26978 225.314665 
L 869.640213 225.397612 
L 872.010647 225.649161 
L 874.38108 225.712036 
L 879.121947 226.41661 
L 881.49238 226.694914 
L 883.862813 226.857693 
L 886.233247 227.135763 
L 895.71498 227.681293 
L 900.455846 227.870552 
L 909.93758 228.434126 
L 914.678446 228.518641 
L 917.04888 228.369895 
L 938.382779 228.697419 
L 950.234946 228.775998 
L 962.087112 228.901603 
L 969.198412 228.816039 
L 992.902745 228.96 
L 1023.718378 228.89853 
L 1033.200112 228.937789 
L 1042.681845 228.834847 
L 1045.052278 228.857058 
L 1047.422711 228.767572 
L 1049.793145 228.52483 
L 1052.163578 228.41231 
L 1056.904445 228.419269 
L 1066.386178 228.951336 
L 1085.349644 228.96 
L 1109.053977 228.951321 
L 1109.053977 228.951321 
" style="fill:none;stroke:#947383;stroke-linecap:square;stroke-width:2;"/>
   </g>
   <g id="line2d_16">
    <path clip-path="url(#pf3954d53a4)" d="M 160.880655 185.971508 
L 172.732822 185.971508 
L 175.103255 228.96 
L 210.659755 228.96 
L 213.030188 228.117088 
L 222.511921 228.117088 
L 224.882355 228.96 
L 253.327554 228.96 
L 255.697987 223.90253 
L 258.068421 223.90253 
L 260.438854 221.514281 
L 265.179721 221.514281 
L 267.550154 226.57175 
L 269.920587 223.705851 
L 272.291021 226.094101 
L 277.031887 226.094101 
L 279.402321 225.471079 
L 281.772754 228.336978 
L 284.143187 228.336978 
L 286.51362 226.034023 
L 288.884054 225.340661 
L 291.254487 225.963682 
L 293.62492 225.963682 
L 295.995354 225.779971 
L 298.365787 228.082926 
L 300.73622 228.776288 
L 303.106654 228.583515 
L 307.84752 228.529721 
L 310.217953 228.352083 
L 312.588387 227.700742 
L 314.95882 227.893515 
L 317.329253 227.597043 
L 319.699687 227.834548 
L 322.07012 227.8065 
L 324.440553 227.939907 
L 326.810987 227.666965 
L 329.18142 227.703688 
L 333.922287 227.024186 
L 336.29272 227.23285 
L 338.663153 226.591144 
L 341.033586 225.040852 
L 343.40402 224.295373 
L 345.774453 223.329751 
L 348.144886 222.550704 
L 350.51532 217.256778 
L 352.885753 216.769724 
L 355.256186 213.961117 
L 359.997053 209.804876 
L 362.367486 213.732712 
L 364.737919 214.727125 
L 367.108353 215.376315 
L 369.478786 214.986427 
L 371.849219 210.985517 
L 374.219653 202.91204 
L 376.590086 196.312859 
L 378.960519 193.224671 
L 381.330953 194.622344 
L 383.701386 195.862481 
L 386.071819 203.499954 
L 388.442253 209.88585 
L 390.812686 212.890431 
L 393.183119 207.407551 
L 395.553552 208.814044 
L 397.923986 208.612696 
L 400.294419 205.979194 
L 402.664852 205.969051 
L 405.035286 209.827976 
L 407.405719 208.106893 
L 409.776152 207.213506 
L 412.146586 204.378245 
L 414.517019 200.711728 
L 416.887452 194.24308 
L 421.628319 195.067818 
L 423.998752 197.479304 
L 426.369185 200.406652 
L 428.739619 195.850634 
L 431.110052 189.461498 
L 433.480485 179.000437 
L 435.850919 172.757222 
L 438.221352 170.230577 
L 440.591785 166.11956 
L 442.962219 167.43061 
L 445.332652 159.834481 
L 447.703085 162.686068 
L 450.073518 161.118856 
L 452.443952 174.723758 
L 454.814385 175.387847 
L 457.184818 173.269366 
L 459.555252 171.89396 
L 461.925685 170.333301 
L 464.296118 165.362568 
L 466.666552 164.426764 
L 469.036985 177.696495 
L 471.407418 179.68348 
L 473.777852 174.163165 
L 476.148285 176.793677 
L 478.518718 177.296159 
L 480.889151 180.506834 
L 483.259585 178.583664 
L 485.630018 186.855645 
L 488.000451 180.249997 
L 495.111751 154.935524 
L 497.482185 149.784441 
L 499.852618 152.358023 
L 502.223051 167.085915 
L 504.593484 167.594311 
L 506.963918 156.061365 
L 509.334351 153.546611 
L 511.704784 144.589186 
L 514.075218 133.928002 
L 516.445651 135.611438 
L 518.816084 152.746885 
L 521.186518 154.800677 
L 523.556951 156.137367 
L 525.927384 162.608658 
L 528.297818 166.096103 
L 530.668251 165.900925 
L 533.038684 168.780921 
L 535.409117 174.842011 
L 537.779551 174.185472 
L 540.149984 162.541648 
L 542.520417 162.025344 
L 544.890851 153.624997 
L 547.261284 151.756297 
L 549.631717 147.162372 
L 552.002151 154.737642 
L 554.372584 153.852502 
L 556.743017 148.719937 
L 559.113451 151.056187 
L 561.483884 151.996641 
L 566.22475 146.045784 
L 568.595184 152.684898 
L 570.965617 145.662331 
L 573.33605 141.104374 
L 575.706484 142.977076 
L 578.076917 149.535302 
L 580.44735 153.378642 
L 582.817784 154.72992 
L 585.188217 152.575484 
L 587.55865 152.001768 
L 589.929083 132.399152 
L 592.299517 128.991828 
L 594.66995 133.902408 
L 597.040383 136.009096 
L 599.410817 134.775836 
L 601.78125 149.898335 
L 604.151683 153.070625 
L 606.522117 151.124121 
L 611.262983 149.58929 
L 613.633417 148.8358 
L 616.00385 145.234146 
L 618.374283 142.250737 
L 620.744716 144.563717 
L 623.11515 145.241097 
L 625.485583 139.784817 
L 627.856016 134.707679 
L 630.22645 132.306844 
L 632.596883 124.453982 
L 634.967316 117.922325 
L 637.33775 115.914171 
L 639.708183 113.670181 
L 642.078616 109.41347 
L 644.449049 107.35929 
L 646.819483 106.949611 
L 649.189916 113.750806 
L 651.560349 113.587893 
L 653.930783 112.667992 
L 656.301216 117.59898 
L 658.671649 118.294529 
L 661.042083 112.703698 
L 663.412516 119.384451 
L 665.782949 119.129367 
L 668.153383 115.281923 
L 670.523816 113.276269 
L 672.894249 112.113194 
L 675.264682 102.872579 
L 677.635116 103.411535 
L 680.005549 101.26047 
L 682.375982 98.914426 
L 684.746416 94.748326 
L 687.116849 97.658487 
L 689.487282 102.865561 
L 691.857716 102.966757 
L 694.228149 107.419833 
L 696.598582 113.252553 
L 698.969016 113.700585 
L 701.339449 110.323983 
L 703.709882 114.832863 
L 706.080315 120.285595 
L 708.450749 117.539608 
L 710.821182 121.897741 
L 713.191615 122.812363 
L 715.562049 121.852485 
L 717.932482 116.998588 
L 720.302915 121.448178 
L 722.673349 123.312816 
L 725.043782 127.23523 
L 727.414215 132.563858 
L 729.784648 136.213691 
L 732.155082 139.102452 
L 734.525515 133.55085 
L 736.895948 136.560856 
L 739.266382 139.806679 
L 741.636815 134.177837 
L 744.007248 130.630737 
L 746.377682 130.662895 
L 748.748115 122.112391 
L 751.118548 114.073746 
L 753.488982 121.475431 
L 755.859415 131.673405 
L 758.229848 132.51342 
L 760.600281 140.613134 
L 762.970715 151.60105 
L 765.341148 152.002831 
L 767.711581 144.608159 
L 770.082015 148.847677 
L 772.452448 154.516937 
L 774.822881 150.37131 
L 777.193315 152.242551 
L 779.563748 154.922792 
L 781.934181 155.463438 
L 784.304614 152.290497 
L 786.675048 151.816222 
L 789.045481 160.552838 
L 791.415914 163.094928 
L 793.786348 166.591249 
L 796.156781 173.079557 
L 798.527214 175.992544 
L 800.897648 169.242251 
L 803.268081 167.018642 
L 805.638514 174.495339 
L 808.008948 167.398499 
L 810.379381 165.007104 
L 812.749814 171.530922 
L 815.120247 174.938698 
L 817.490681 170.549607 
L 819.861114 172.106943 
L 822.231547 175.851668 
L 824.601981 168.809951 
L 826.972414 163.994334 
L 829.342847 163.138823 
L 831.713281 168.927013 
L 834.083714 168.97819 
L 836.454147 170.752166 
L 838.824581 180.227109 
L 841.195014 179.950745 
L 843.565447 178.259783 
L 845.93588 181.112845 
L 848.306314 188.071055 
L 850.676747 187.662232 
L 853.04718 190.865965 
L 855.417614 195.994258 
L 857.788047 198.765197 
L 860.15848 195.719853 
L 862.528914 197.490767 
L 864.899347 200.038847 
L 867.26978 198.770676 
L 869.640213 199.205527 
L 872.010647 203.785311 
L 874.38108 205.126291 
L 876.751513 207.462702 
L 879.121947 211.021182 
L 881.49238 215.894148 
L 883.862813 217.409655 
L 886.233247 219.89151 
L 888.60368 211.223559 
L 890.974113 211.029908 
L 893.344547 209.433994 
L 895.71498 208.724107 
L 898.085413 206.978665 
L 900.455846 214.458262 
L 902.82628 215.95569 
L 905.196713 218.163927 
L 907.567146 219.599252 
L 909.93758 221.750387 
L 912.308013 225.980241 
L 914.678446 226.444444 
L 917.04888 226.343735 
L 919.419313 226.519253 
L 921.789746 226.437528 
L 924.160179 225.837552 
L 926.530613 225.360041 
L 928.901046 225.421902 
L 933.641913 225.385549 
L 936.012346 225.726107 
L 940.753213 225.984079 
L 943.123646 226.337287 
L 952.605379 227.183523 
L 959.716679 227.710432 
L 962.087112 227.866848 
L 966.827979 227.746773 
L 969.198412 227.502695 
L 973.939279 227.587454 
L 978.680145 227.105411 
L 992.902745 227.664524 
L 995.273179 227.714303 
L 997.643612 227.312078 
L 1002.384479 227.444737 
L 1007.125345 227.208311 
L 1009.495778 227.585838 
L 1011.866212 227.80498 
L 1014.236645 228.189665 
L 1016.607078 228.454523 
L 1018.977512 228.545764 
L 1023.718378 228.268239 
L 1026.088812 227.556845 
L 1028.459245 227.54427 
L 1030.829678 227.397431 
L 1033.200112 227.402122 
L 1035.570545 227.16728 
L 1037.940978 227.293796 
L 1040.311411 227.217222 
L 1042.681845 227.347994 
L 1045.052278 227.348569 
L 1049.793145 227.813008 
L 1052.163578 227.729568 
L 1054.534011 227.32132 
L 1056.904445 227.495028 
L 1059.274878 227.520807 
L 1066.386178 228.559792 
L 1068.756611 228.658164 
L 1073.497478 228.601888 
L 1075.867911 228.601888 
L 1078.238344 228.801371 
L 1080.608778 228.801371 
L 1082.979211 228.96 
L 1085.349644 228.731338 
L 1087.720078 228.731338 
L 1090.090511 228.577257 
L 1090.090511 228.577257 
" style="fill:none;stroke:#96c6ad;stroke-linecap:square;stroke-width:2;"/>
   </g>
   <g id="line2d_17">
    <path clip-path="url(#pf3954d53a4)" d="M 134.805889 228.744177 
L 139.546756 228.881839 
L 149.028489 228.797779 
L 158.510222 228.768733 
L 160.880655 228.930954 
L 167.991955 228.911149 
L 172.732822 228.911149 
L 175.103255 228.718087 
L 184.584988 228.690807 
L 186.955422 228.883869 
L 196.437155 228.96 
L 198.807588 228.694989 
L 201.178021 228.547913 
L 205.918888 227.999482 
L 208.289321 227.889537 
L 215.400621 228.56618 
L 217.771055 228.052433 
L 222.511921 227.588571 
L 227.252788 225.782102 
L 229.623221 226.207426 
L 231.993654 226.374666 
L 234.364088 224.368541 
L 236.734521 224.125921 
L 239.104954 224.989287 
L 241.475388 222.992274 
L 243.845821 221.703743 
L 246.216254 223.187556 
L 248.586688 223.065639 
L 250.957121 219.602335 
L 253.327554 217.674837 
L 255.697987 216.476618 
L 258.068421 213.314739 
L 260.438854 212.841709 
L 262.809287 211.796526 
L 265.179721 213.727989 
L 267.550154 210.413511 
L 269.920587 212.640637 
L 272.291021 208.10749 
L 274.661454 204.144065 
L 277.031887 204.441463 
L 279.402321 207.048823 
L 281.772754 206.867385 
L 284.143187 206.256708 
L 286.51362 209.225085 
L 288.884054 201.909628 
L 291.254487 197.61581 
L 293.62492 195.216135 
L 295.995354 198.092794 
L 298.365787 197.710258 
L 300.73622 202.736954 
L 303.106654 197.476203 
L 305.477087 193.261279 
L 307.84752 193.373578 
L 310.217953 187.436948 
L 312.588387 179.543581 
L 314.95882 182.10606 
L 317.329253 172.112655 
L 319.699687 164.567889 
L 322.07012 162.98988 
L 324.440553 156.637402 
L 326.810987 150.813998 
L 329.18142 150.107255 
L 333.922287 132.651666 
L 336.29272 127.582964 
L 338.663153 124.79461 
L 341.033586 126.369427 
L 343.40402 127.125767 
L 345.774453 129.712115 
L 348.144886 130.213924 
L 350.51532 126.375884 
L 355.256186 108.952225 
L 357.62662 104.198686 
L 359.997053 100.975382 
L 362.367486 94.378939 
L 364.737919 91.217537 
L 367.108353 89.003001 
L 369.478786 80.4361 
L 371.849219 72.316097 
L 374.219653 70.077564 
L 376.590086 68.861001 
L 378.960519 68.603965 
L 381.330953 71.842802 
L 383.701386 72.016507 
L 390.812686 62.091318 
L 393.183119 57.346277 
L 395.553552 57.636218 
L 397.923986 58.823267 
L 400.294419 58.171542 
L 402.664852 56.605361 
L 405.035286 55.207202 
L 407.405719 53.657942 
L 409.776152 50.855032 
L 412.146586 48.68727 
L 414.517019 47.868095 
L 416.887452 46.485732 
L 419.257886 44.023439 
L 421.628319 42.879585 
L 423.998752 41.462053 
L 426.369185 39.047128 
L 428.739619 37.007264 
L 431.110052 35.443336 
L 433.480485 33.03038 
L 435.850919 31.21459 
L 438.221352 29.934451 
L 440.591785 29.472852 
L 442.962219 29.475525 
L 445.332652 30.436286 
L 447.703085 31.611261 
L 450.073518 30.677459 
L 452.443952 29.49337 
L 454.814385 28.633748 
L 457.184818 27.431704 
L 459.555252 25.819199 
L 461.925685 25.600241 
L 464.296118 26.089299 
L 466.666552 25.312399 
L 469.036985 24.291174 
L 471.407418 23.969799 
L 473.777852 23.76854 
L 476.148285 22.628437 
L 478.518718 22.476043 
L 480.889151 22.626771 
L 485.630018 21.736916 
L 488.000451 21.714669 
L 492.741318 20.991215 
L 495.111751 20.983286 
L 497.482185 20.738533 
L 499.852618 20.115405 
L 502.223051 20.19547 
L 504.593484 20.072367 
L 506.963918 19.786485 
L 509.334351 19.743215 
L 511.704784 19.938539 
L 514.075218 19.869346 
L 516.445651 19.915307 
L 518.816084 19.745214 
L 521.186518 19.883816 
L 523.556951 20.391966 
L 525.927384 20.205169 
L 528.297818 19.779997 
L 533.038684 19.260447 
L 537.779551 18.459996 
L 540.149984 18.371924 
L 542.520417 18.424513 
L 544.890851 18.057665 
L 552.002151 18.243792 
L 554.372584 18.389265 
L 556.743017 18.348084 
L 559.113451 18.030323 
L 570.965617 17.76 
L 578.076917 17.909193 
L 580.44735 18.262887 
L 582.817784 18.426043 
L 585.188217 18.781532 
L 589.929083 19.790233 
L 592.299517 19.757155 
L 597.040383 21.628814 
L 601.78125 21.867601 
L 604.151683 22.979127 
L 608.89255 22.17807 
L 611.262983 22.491432 
L 613.633417 23.520345 
L 616.00385 25.156911 
L 618.374283 27.115117 
L 620.744716 29.280099 
L 625.485583 31.782692 
L 627.856016 32.576018 
L 630.22645 32.817116 
L 632.596883 32.431688 
L 634.967316 33.784593 
L 637.33775 36.527916 
L 639.708183 38.733893 
L 642.078616 39.821567 
L 646.819483 43.579026 
L 649.189916 42.986296 
L 651.560349 44.065746 
L 653.930783 48.779336 
L 656.301216 54.865826 
L 661.042083 60.342521 
L 663.412516 63.69336 
L 665.782949 65.66992 
L 668.153383 68.502575 
L 670.523816 74.887899 
L 672.894249 83.621171 
L 675.264682 90.392563 
L 677.635116 96.374539 
L 680.005549 101.203702 
L 682.375982 101.771513 
L 684.746416 104.351657 
L 689.487282 114.293011 
L 691.857716 120.859514 
L 694.228149 133.443755 
L 696.598582 140.71212 
L 698.969016 145.925746 
L 701.339449 152.892264 
L 703.709882 157.417535 
L 706.080315 160.6249 
L 708.450749 165.942688 
L 710.821182 172.099964 
L 713.191615 175.488084 
L 715.562049 176.904179 
L 717.932482 179.188875 
L 720.302915 183.462129 
L 722.673349 186.134575 
L 725.043782 190.593918 
L 727.414215 196.130055 
L 729.784648 200.144071 
L 732.155082 201.747145 
L 736.895948 204.467674 
L 739.266382 206.784217 
L 741.636815 208.5043 
L 744.007248 210.672852 
L 746.377682 212.000241 
L 748.748115 213.785502 
L 751.118548 214.204512 
L 753.488982 214.828965 
L 755.859415 215.978358 
L 758.229848 218.149843 
L 765.341148 223.230137 
L 767.711581 223.536022 
L 779.563748 225.988492 
L 781.934181 226.238529 
L 786.675048 226.355668 
L 791.415914 226.524671 
L 800.897648 227.407874 
L 803.268081 227.535917 
L 805.638514 227.410981 
L 810.379381 227.664307 
L 812.749814 227.596257 
L 815.120247 227.673753 
L 817.490681 227.873546 
L 819.861114 227.928923 
L 829.342847 228.511847 
L 838.824581 228.706719 
L 855.417614 228.509836 
L 857.788047 228.622081 
L 860.15848 228.360898 
L 862.528914 227.914222 
L 864.899347 227.850562 
L 872.010647 228.196372 
L 874.38108 228.734246 
L 881.49238 228.821279 
L 978.680145 228.91445 
L 1007.125345 228.932236 
L 1037.940978 228.919985 
L 1059.274878 228.953629 
L 1080.608778 228.945458 
L 1080.608778 228.945458 
" style="fill:none;stroke:#525886;stroke-linecap:square;stroke-width:2;"/>
   </g>
   <g id="line2d_18">
    <path clip-path="url(#pf3954d53a4)" d="M 291.254487 207.465754 
L 293.62492 228.96 
L 295.995354 218.212877 
L 305.477087 218.212877 
L 307.84752 228.96 
L 314.95882 228.96 
L 317.329253 214.630503 
L 319.699687 207.465754 
L 326.810987 207.465754 
L 329.18142 221.795251 
L 331.551853 228.96 
L 338.663153 228.96 
L 341.033586 214.630503 
L 343.40402 209.573033 
L 345.774453 209.573033 
L 348.144886 206.502426 
L 350.51532 206.502426 
L 352.885753 220.831924 
L 355.256186 225.889393 
L 357.62662 220.515832 
L 359.997053 212.839315 
L 362.367486 204.778973 
L 364.737919 200.002474 
L 367.108353 200.002474 
L 369.478786 189.743857 
L 371.849219 189.743857 
L 374.219653 186.080065 
L 376.590086 183.270359 
L 378.960519 181.678193 
L 381.330953 189.970873 
L 383.701386 186.232744 
L 388.442253 185.283124 
L 390.812686 178.277592 
L 393.183119 179.55831 
L 395.553552 188.869022 
L 400.294419 199.250312 
L 402.664852 195.3097 
L 405.035286 191.815482 
L 409.776152 193.585035 
L 412.146586 194.755561 
L 414.517019 206.162595 
L 416.887452 215.310041 
L 419.257886 217.276181 
L 421.628319 221.535575 
L 426.369185 219.949092 
L 428.739619 215.938017 
L 431.110052 215.919793 
L 433.480485 208.169118 
L 435.850919 207.620206 
L 438.221352 206.65435 
L 440.591785 202.314061 
L 442.962219 199.675259 
L 445.332652 199.73245 
L 447.703085 196.050454 
L 450.073518 190.997421 
L 452.443952 190.565956 
L 454.814385 194.020388 
L 457.184818 196.234947 
L 459.555252 196.385928 
L 461.925685 189.513122 
L 464.296118 193.32794 
L 466.666552 189.666832 
L 469.036985 186.955846 
L 471.407418 192.699018 
L 473.777852 203.582712 
L 476.148285 194.626777 
L 478.518718 197.434938 
L 480.889151 201.891955 
L 483.259585 197.053424 
L 485.630018 188.379471 
L 488.000451 199.126594 
L 490.370885 196.989739 
L 492.741318 192.855458 
L 495.111751 196.90111 
L 497.482185 200.401032 
L 499.852618 190.868273 
L 502.223051 175.516978 
L 504.593484 166.262511 
L 506.963918 143.781083 
L 509.334351 140.519928 
L 511.704784 139.48695 
L 514.075218 146.257102 
L 516.445651 147.020015 
L 518.816084 157.670718 
L 521.186518 159.778593 
L 523.556951 166.892224 
L 525.927384 171.400773 
L 528.297818 173.572652 
L 530.668251 176.675445 
L 533.038684 179.583216 
L 535.409117 171.306727 
L 537.779551 169.157302 
L 540.149984 173.171082 
L 542.520417 169.513874 
L 544.890851 168.103959 
L 547.261284 167.60307 
L 549.631717 161.396985 
L 552.002151 152.502814 
L 554.372584 153.1937 
L 556.743017 142.390975 
L 559.113451 149.915896 
L 561.483884 153.972556 
L 563.854317 163.125552 
L 566.22475 160.763547 
L 568.595184 169.927238 
L 570.965617 173.736209 
L 573.33605 170.098721 
L 575.706484 176.391569 
L 578.076917 185.183785 
L 580.44735 183.836184 
L 582.817784 167.894618 
L 585.188217 173.452868 
L 587.55865 165.733274 
L 589.929083 162.305433 
L 592.299517 160.595664 
L 594.66995 167.879825 
L 597.040383 169.922936 
L 599.410817 176.808539 
L 601.78125 176.294147 
L 604.151683 185.934948 
L 606.522117 182.294324 
L 608.89255 180.479874 
L 611.262983 181.844588 
L 613.633417 184.016707 
L 616.00385 174.131653 
L 620.744716 182.223442 
L 623.11515 182.552855 
L 625.485583 180.445576 
L 627.856016 185.935449 
L 630.22645 192.62687 
L 632.596883 193.46931 
L 634.967316 191.67613 
L 637.33775 191.100483 
L 639.708183 197.635364 
L 642.078616 197.089356 
L 644.449049 198.874397 
L 646.819483 195.642621 
L 649.189916 202.0175 
L 651.560349 198.391615 
L 653.930783 198.441601 
L 656.301216 201.390835 
L 658.671649 205.745198 
L 661.042083 204.141582 
L 665.782949 205.348821 
L 668.153383 203.074211 
L 670.523816 202.382633 
L 672.894249 196.364505 
L 675.264682 191.761399 
L 677.635116 192.964745 
L 680.005549 192.030921 
L 682.375982 189.779834 
L 684.746416 198.113112 
L 687.116849 204.120478 
L 689.487282 208.726388 
L 691.857716 208.726388 
L 694.228149 209.815623 
L 696.598582 209.815623 
L 698.969016 208.06496 
L 701.339449 195.927033 
L 703.709882 194.205198 
L 706.080315 201.176305 
L 708.450749 201.593219 
L 710.821182 203.485892 
L 713.191615 208.549763 
L 715.562049 210.943262 
L 717.932482 205.013814 
L 720.302915 208.232882 
L 722.673349 207.489634 
L 725.043782 212.26484 
L 727.414215 213.418421 
L 729.784648 212.704193 
L 732.155082 209.872204 
L 734.525515 210.251342 
L 736.895948 209.776741 
L 741.636815 214.067462 
L 744.007248 215.429532 
L 746.377682 217.655757 
L 748.748115 218.429743 
L 751.118548 214.988546 
L 753.488982 216.459143 
L 755.859415 215.055437 
L 760.600281 213.081651 
L 762.970715 211.396781 
L 765.341148 212.003486 
L 767.711581 213.78366 
L 770.082015 214.502703 
L 772.452448 213.885052 
L 774.822881 218.567587 
L 777.193315 220.558183 
L 781.934181 222.347712 
L 784.304614 224.906551 
L 786.675048 223.022988 
L 789.045481 222.789174 
L 791.415914 223.172999 
L 793.786348 222.347876 
L 796.156781 222.890197 
L 798.527214 224.561951 
L 800.897648 224.671892 
L 803.268081 225.24763 
L 805.638514 226.42599 
L 810.379381 227.435079 
L 812.749814 227.412569 
L 815.120247 226.78347 
L 819.861114 226.779818 
L 822.231547 227.051629 
L 824.601981 226.966293 
L 829.342847 227.838799 
L 831.713281 227.627033 
L 834.083714 227.994456 
L 836.454147 227.979478 
L 841.195014 227.055322 
L 848.306314 224.304862 
L 850.676747 224.669136 
L 853.04718 224.444945 
L 855.417614 222.288332 
L 857.788047 222.833658 
L 860.15848 223.745394 
L 862.528914 223.706648 
L 864.899347 223.845881 
L 867.26978 227.152689 
L 869.640213 227.664456 
L 872.010647 225.435 
L 874.38108 225.751092 
L 879.121947 225.334831 
L 881.49238 225.334831 
L 883.862813 227.370271 
L 886.233247 226.881765 
L 888.60368 225.162944 
L 893.344547 224.467332 
L 895.71498 225.118673 
L 898.085413 225.607178 
L 900.455846 228.040489 
L 902.82628 228.643132 
L 905.196713 228.96 
L 907.567146 228.96 
L 909.93758 228.618821 
L 912.308013 228.618821 
L 917.04888 228.131226 
L 919.419313 228.131226 
L 921.789746 228.472405 
L 926.530613 228.528737 
L 928.901046 228.780132 
L 936.012346 228.780132 
L 938.382779 228.96 
L 940.753213 228.96 
L 943.123646 228.678108 
L 945.494079 228.678108 
L 947.864513 228.359675 
L 952.605379 228.359675 
L 954.975812 228.641567 
L 957.346246 228.641567 
L 959.716679 228.96 
L 1011.866212 228.96 
L 1014.236645 227.573274 
L 1014.236645 227.573274 
" style="fill:none;stroke:#937252;stroke-linecap:square;stroke-width:2;"/>
   </g>
   <g id="line2d_19">
    <path clip-path="url(#pf3954d53a4)" d="M 303.106654 220.362302 
L 305.477087 228.96 
L 312.588387 228.96 
L 314.95882 207.465754 
L 317.329253 207.465754 
L 319.699687 185.971508 
L 324.440553 185.971508 
L 326.810987 207.465754 
L 329.18142 207.465754 
L 331.551853 226.810575 
L 336.29272 226.810575 
L 338.663153 218.212877 
L 341.033586 212.839315 
L 343.40402 214.98874 
L 345.774453 214.98874 
L 348.144886 197.793343 
L 350.51532 206.391042 
L 352.885753 207.465754 
L 355.256186 197.545333 
L 357.62662 193.246484 
L 359.997053 206.533836 
L 362.367486 206.533836 
L 364.737919 208.145904 
L 367.108353 215.53759 
L 369.478786 206.01871 
L 371.849219 197.644329 
L 374.219653 197.644329 
L 376.590086 200.331109 
L 378.960519 192.112721 
L 381.330953 192.355137 
L 383.701386 193.890441 
L 386.071819 175.790023 
L 388.442253 161.460526 
L 390.812686 166.066436 
L 393.183119 163.521064 
L 395.553552 168.894626 
L 397.923986 170.874359 
L 400.294419 166.09786 
L 402.664852 162.124134 
L 405.035286 142.421075 
L 407.405719 139.196938 
L 409.776152 137.405751 
L 412.146586 145.764624 
L 414.517019 121.48877 
L 416.887452 132.747661 
L 419.257886 121.504517 
L 421.628319 102.569109 
L 423.998752 96.120836 
L 426.369185 109.017383 
L 428.739619 124.984537 
L 431.110052 116.166385 
L 433.480485 140.731238 
L 435.850919 114.938143 
L 438.221352 104.19102 
L 440.591785 98.459221 
L 442.962219 105.623969 
L 445.332652 96.41215 
L 447.703085 112.044329 
L 450.073518 144.285698 
L 452.443952 141.419798 
L 454.814385 162.914044 
L 457.184818 178.267077 
L 459.555252 170.450987 
L 461.925685 127.462495 
L 464.296118 144.657892 
L 466.666552 104.198135 
L 469.036985 83.471541 
L 471.407418 75.655451 
L 473.777852 97.149697 
L 476.148285 54.161205 
L 478.518718 73.126716 
L 480.889151 78.500278 
L 483.259585 78.500278 
L 485.630018 71.335529 
L 488.000451 99.994524 
L 490.370885 92.829775 
L 495.111751 121.48877 
L 497.482185 137.865338 
L 499.852618 130.70059 
L 502.223051 116.371092 
L 504.593484 92.829775 
L 506.963918 109.206344 
L 509.334351 95.695675 
L 511.704784 95.695675 
L 514.075218 115.925553 
L 516.445651 115.925553 
L 518.816084 85.219488 
L 521.186518 98.730157 
L 523.556951 94.431307 
L 525.927384 93.741652 
L 528.297818 110.872405 
L 530.668251 110.872405 
L 533.038684 101.660585 
L 535.409117 104.526485 
L 537.779551 97.629935 
L 540.149984 80.499183 
L 542.520417 103.947451 
L 544.890851 114.694574 
L 547.261284 129.024071 
L 549.631717 136.22124 
L 552.002151 152.597808 
L 554.372584 156.017347 
L 559.113451 113.359536 
L 561.483884 115.012939 
L 563.854317 109.802213 
L 566.22475 100.129802 
L 568.595184 121.624048 
L 570.965617 128.956534 
L 573.33605 107.462288 
L 575.706484 98.343517 
L 578.076917 105.030615 
L 580.44735 87.118744 
L 582.817784 82.679715 
L 585.188217 92.232713 
L 587.55865 94.437251 
L 589.929083 102.796124 
L 592.299517 105.000662 
L 594.66995 105.000662 
L 597.040383 122.315472 
L 599.410817 132.649244 
L 601.78125 121.902121 
L 604.151683 123.279957 
L 606.522117 121.48877 
L 608.89255 110.253141 
L 611.262983 102.925557 
L 613.633417 90.02901 
L 616.00385 102.461956 
L 618.374283 104.253143 
L 620.744716 106.808403 
L 623.11515 122.196329 
L 625.485583 144.862989 
L 627.856016 140.106559 
L 630.22645 156.227244 
L 632.596883 162.604657 
L 634.967316 147.737804 
L 637.33775 135.280911 
L 639.708183 138.863285 
L 642.078616 129.769566 
L 644.449049 134.515049 
L 646.819483 151.301031 
L 649.189916 157.570187 
L 651.560349 144.031603 
L 653.930783 153.952024 
L 656.301216 143.065328 
L 658.671649 130.782902 
L 661.042083 128.464895 
L 663.412516 136.280984 
L 665.782949 133.918979 
L 668.153383 147.736709 
L 670.523816 158.9956 
L 672.894249 179.225478 
L 675.264682 187.302104 
L 677.635116 166.149037 
L 680.005549 176.89616 
L 682.375982 148.888506 
L 684.746416 127.39426 
L 687.116849 138.857858 
L 689.487282 172.293351 
L 691.857716 172.293351 
L 694.228149 181.672659 
L 696.598582 196.002156 
L 698.969016 188.837407 
L 701.339449 178.090284 
L 703.709882 174.18224 
L 706.080315 192.159245 
L 710.821182 206.488743 
L 713.191615 205.772268 
L 715.562049 209.680313 
L 717.932482 210.882788 
L 720.302915 196.553291 
L 722.673349 196.553291 
L 725.043782 203.240389 
L 727.414215 177.447294 
L 729.784648 172.336774 
L 732.155082 172.336774 
L 734.525515 165.549118 
L 736.895948 155.996119 
L 739.266382 177.012715 
L 741.636815 183.363288 
L 744.007248 187.772364 
L 746.377682 190.465879 
L 748.748115 194.048253 
L 751.118548 193.864542 
L 753.488982 196.167496 
L 755.859415 206.087918 
L 758.229848 204.040847 
L 760.600281 209.414408 
L 762.970715 213.212768 
L 765.341148 216.283374 
L 767.711581 215.611679 
L 770.082015 220.729357 
L 772.452448 220.371119 
L 774.822881 213.856454 
L 777.193315 211.169673 
L 779.563748 206.234174 
L 781.934181 204.292986 
L 784.304614 208.338961 
L 786.675048 212.016548 
L 789.045481 213.541478 
L 791.415914 216.88612 
L 793.786348 217.164063 
L 796.156781 218.849886 
L 798.527214 219.934342 
L 800.897648 215.549291 
L 803.268081 213.286739 
L 805.638514 210.485627 
L 808.008948 210.007977 
L 810.379381 210.997593 
L 812.749814 214.320953 
L 815.120247 218.846057 
L 817.490681 223.8097 
L 819.861114 222.173161 
L 822.231547 223.739782 
L 824.601981 222.656517 
L 826.972414 221.821789 
L 829.342847 222.346039 
L 831.713281 224.460227 
L 834.083714 224.818465 
L 836.454147 228.125272 
L 838.824581 228.96 
L 841.195014 228.561958 
L 850.676747 228.561958 
L 853.04718 228.675308 
L 855.417614 228.675308 
L 857.788047 228.390616 
L 862.528914 228.390616 
L 864.899347 228.675308 
L 876.751513 228.728879 
L 879.121947 228.526103 
L 881.49238 228.757224 
L 888.60368 228.757224 
L 890.974113 228.96 
L 893.344547 228.96 
L 895.71498 228.717127 
L 898.085413 228.717127 
L 900.455846 228.501105 
L 907.567146 228.584169 
L 907.567146 228.584169 
" style="fill:none;stroke:#d18cad;stroke-linecap:square;stroke-width:2;"/>
   </g>
   <g id="line2d_20">
    <path clip-path="url(#pf3954d53a4)" d="M 146.658055 228.025468 
L 149.028489 228.96 
L 205.918888 228.96 
L 208.289321 228.715747 
L 215.400621 228.715747 
L 217.771055 228.591682 
L 220.141488 228.835935 
L 227.252788 228.835935 
L 229.623221 228.96 
L 250.957121 228.775194 
L 253.327554 228.919936 
L 269.920587 228.870922 
L 274.661454 228.769773 
L 279.402321 228.714457 
L 286.51362 228.811216 
L 293.62492 228.96 
L 305.477087 228.935616 
L 314.95882 228.96 
L 331.551853 228.713008 
L 333.922287 228.528509 
L 338.663153 228.455793 
L 343.40402 228.25686 
L 345.774453 228.405625 
L 350.51532 228.375356 
L 352.885753 228.599254 
L 355.256186 228.230401 
L 362.367486 227.691227 
L 367.108353 226.892666 
L 374.219653 226.458437 
L 376.590086 226.596789 
L 378.960519 226.945887 
L 383.701386 226.62519 
L 386.071819 226.7419 
L 388.442253 226.574863 
L 390.812686 226.546478 
L 393.183119 226.338712 
L 397.923986 226.521092 
L 400.294419 226.251798 
L 402.664852 226.360124 
L 407.405719 225.920169 
L 409.776152 225.539029 
L 412.146586 225.686924 
L 414.517019 224.830344 
L 416.887452 224.649272 
L 419.257886 224.325603 
L 421.628319 223.391217 
L 423.998752 222.85897 
L 426.369185 222.776549 
L 428.739619 222.230164 
L 431.110052 221.453927 
L 433.480485 221.465846 
L 435.850919 220.624056 
L 438.221352 220.292325 
L 440.591785 220.308273 
L 442.962219 219.73737 
L 445.332652 219.621354 
L 447.703085 219.283928 
L 450.073518 218.174757 
L 452.443952 217.202718 
L 454.814385 217.143535 
L 457.184818 215.737903 
L 459.555252 215.140723 
L 461.925685 214.679181 
L 464.296118 213.650755 
L 466.666552 212.885357 
L 469.036985 211.809078 
L 473.777852 208.461083 
L 476.148285 207.466773 
L 478.518718 205.374033 
L 480.889151 205.177648 
L 483.259585 205.189845 
L 485.630018 204.03896 
L 488.000451 203.474609 
L 492.741318 199.180326 
L 495.111751 195.439983 
L 497.482185 193.820043 
L 499.852618 190.651885 
L 502.223051 188.838676 
L 504.593484 185.202872 
L 506.963918 183.252375 
L 509.334351 181.957108 
L 511.704784 182.050293 
L 514.075218 181.980915 
L 516.445651 182.378536 
L 518.816084 181.19852 
L 521.186518 179.021156 
L 523.556951 173.957726 
L 525.927384 170.357456 
L 528.297818 167.869823 
L 530.668251 166.245505 
L 533.038684 163.818949 
L 535.409117 163.761763 
L 537.779551 162.091257 
L 540.149984 157.854066 
L 542.520417 155.611488 
L 544.890851 152.703154 
L 549.631717 146.553551 
L 552.002151 145.427766 
L 554.372584 143.31845 
L 559.113451 139.755848 
L 561.483884 136.894193 
L 563.854317 134.520694 
L 566.22475 133.230764 
L 568.595184 132.45532 
L 570.965617 130.943622 
L 573.33605 129.242425 
L 575.706484 129.383879 
L 578.076917 126.387033 
L 580.44735 123.635428 
L 582.817784 121.127922 
L 585.188217 122.19424 
L 587.55865 120.47639 
L 592.299517 118.472218 
L 594.66995 116.959916 
L 597.040383 114.76979 
L 599.410817 112.374771 
L 601.78125 110.971163 
L 604.151683 109.766028 
L 606.522117 109.205905 
L 608.89255 108.142318 
L 611.262983 107.505866 
L 613.633417 107.440338 
L 616.00385 106.323903 
L 618.374283 105.821717 
L 620.744716 106.723418 
L 623.11515 106.612298 
L 625.485583 105.733785 
L 627.856016 104.611144 
L 630.22645 104.055349 
L 632.596883 102.034445 
L 634.967316 101.347117 
L 637.33775 101.304841 
L 639.708183 100.549978 
L 644.449049 99.983468 
L 646.819483 99.115318 
L 649.189916 98.579873 
L 651.560349 99.462596 
L 653.930783 99.532883 
L 656.301216 98.365977 
L 658.671649 98.179196 
L 661.042083 97.432153 
L 663.412516 97.377134 
L 665.782949 96.644638 
L 668.153383 96.702232 
L 670.523816 96.60993 
L 672.894249 96.302454 
L 675.264682 96.171037 
L 677.635116 95.700158 
L 680.005549 96.724573 
L 682.375982 97.2368 
L 684.746416 98.101684 
L 687.116849 99.133053 
L 689.487282 100.505665 
L 694.228149 101.590808 
L 696.598582 101.331564 
L 698.969016 101.43407 
L 701.339449 103.545765 
L 703.709882 104.729706 
L 706.080315 106.479332 
L 708.450749 107.768299 
L 710.821182 107.292958 
L 713.191615 106.483162 
L 715.562049 107.581677 
L 717.932482 108.959927 
L 720.302915 110.514259 
L 725.043782 118.127841 
L 727.414215 119.847878 
L 729.784648 122.043811 
L 732.155082 125.588833 
L 734.525515 127.67621 
L 736.895948 128.238201 
L 739.266382 129.653051 
L 741.636815 130.894429 
L 744.007248 132.288071 
L 746.377682 133.921981 
L 748.748115 134.286121 
L 751.118548 135.344811 
L 753.488982 136.718482 
L 758.229848 140.955884 
L 760.600281 144.013749 
L 762.970715 147.638502 
L 765.341148 150.418675 
L 767.711581 151.327794 
L 770.082015 154.553947 
L 772.452448 158.188311 
L 774.822881 161.565048 
L 777.193315 164.16261 
L 779.563748 167.271287 
L 781.934181 170.928873 
L 784.304614 174.997261 
L 786.675048 178.477998 
L 789.045481 182.327498 
L 791.415914 187.34217 
L 798.527214 195.610918 
L 800.897648 197.858004 
L 803.268081 200.808234 
L 808.008948 203.125001 
L 810.379381 205.669558 
L 812.749814 208.395627 
L 815.120247 209.56656 
L 819.861114 213.660736 
L 824.601981 215.107012 
L 826.972414 216.193212 
L 829.342847 217.559927 
L 831.713281 218.389401 
L 834.083714 219.343594 
L 836.454147 220.720062 
L 838.824581 221.578882 
L 841.195014 222.031665 
L 843.565447 222.686288 
L 845.93588 223.512185 
L 850.676747 224.321317 
L 853.04718 224.975153 
L 855.417614 225.453605 
L 857.788047 225.618119 
L 862.528914 226.162145 
L 867.26978 226.315343 
L 869.640213 226.633391 
L 881.49238 227.560345 
L 893.344547 227.974696 
L 931.271479 228.762527 
L 947.864513 228.74105 
L 1045.052278 228.948683 
L 1078.238344 228.949104 
L 1078.238344 228.949104 
" style="fill:none;stroke:#a4a86f;stroke-linecap:square;stroke-width:2;"/>
   </g>
   <g id="line2d_21">
    <path clip-path="url(#pf3954d53a4)" d="M 352.885753 226.154915 
L 355.256186 227.477638 
L 357.62662 227.090935 
L 359.997053 227.090935 
L 362.367486 226.408578 
L 367.108353 218.63506 
L 369.478786 220.504125 
L 371.849219 219.589476 
L 374.219653 218.969151 
L 376.590086 221.606177 
L 378.960519 224.521963 
L 381.330953 220.491792 
L 383.701386 219.906842 
L 386.071819 218.722586 
L 388.442253 218.380153 
L 390.812686 219.25747 
L 393.183119 222.082356 
L 395.553552 219.961871 
L 397.923986 221.807189 
L 400.294419 221.445941 
L 402.664852 219.726402 
L 405.035286 220.931686 
L 407.405719 223.797586 
L 409.776152 224.118396 
L 414.517019 225.174402 
L 416.887452 222.147043 
L 419.257886 220.751803 
L 421.628319 219.970343 
L 423.998752 221.452705 
L 426.369185 221.869844 
L 428.739619 224.479839 
L 431.110052 224.760198 
L 433.480485 224.716108 
L 435.850919 224.142928 
L 438.221352 224.954031 
L 440.591785 224.322896 
L 442.962219 224.912541 
L 445.332652 225.629016 
L 447.703085 224.837482 
L 450.073518 223.259922 
L 452.443952 223.560796 
L 454.814385 224.840216 
L 457.184818 225.270101 
L 459.555252 224.219731 
L 461.925685 224.876108 
L 464.296118 224.077386 
L 466.666552 223.69356 
L 469.036985 222.236323 
L 471.407418 224.651407 
L 473.777852 224.712819 
L 476.148285 225.065043 
L 478.518718 221.495904 
L 480.889151 220.399369 
L 483.259585 215.099418 
L 485.630018 208.461195 
L 488.000451 208.092102 
L 490.370885 207.201293 
L 492.741318 207.438319 
L 495.111751 210.490506 
L 497.482185 216.746057 
L 499.852618 213.284646 
L 502.223051 215.467227 
L 504.593484 213.407898 
L 506.963918 210.811889 
L 509.334351 207.229092 
L 511.704784 209.969308 
L 514.075218 208.903175 
L 516.445651 210.962504 
L 518.816084 209.38271 
L 521.186518 210.398842 
L 523.556951 206.461236 
L 525.927384 204.815 
L 528.297818 204.150791 
L 530.668251 205.310462 
L 533.038684 206.126699 
L 535.409117 210.707936 
L 537.779551 213.589411 
L 540.149984 211.964455 
L 542.520417 214.244923 
L 544.890851 212.957554 
L 547.261284 210.275471 
L 549.631717 207.345585 
L 552.002151 209.311851 
L 554.372584 206.712358 
L 559.113451 207.661195 
L 561.483884 209.366116 
L 563.854317 209.577839 
L 566.22475 209.334481 
L 568.595184 211.013568 
L 570.965617 208.409372 
L 573.33605 210.618054 
L 575.706484 206.072055 
L 580.44735 204.801632 
L 582.817784 208.314627 
L 585.188217 205.992337 
L 587.55865 208.393013 
L 589.929083 211.52126 
L 592.299517 210.979936 
L 594.66995 208.991638 
L 597.040383 211.245498 
L 599.410817 213.824841 
L 601.78125 214.574038 
L 604.151683 210.613838 
L 606.522117 210.818131 
L 608.89255 209.110579 
L 611.262983 206.053612 
L 613.633417 205.808323 
L 616.00385 210.508467 
L 618.374283 211.313297 
L 620.744716 209.950242 
L 623.11515 211.364621 
L 625.485583 211.36018 
L 627.856016 210.200337 
L 630.22645 211.374669 
L 632.596883 213.850023 
L 634.967316 214.179705 
L 637.33775 213.514741 
L 639.708183 215.529876 
L 644.449049 216.821746 
L 646.819483 218.234145 
L 649.189916 219.442227 
L 651.560349 218.667554 
L 653.930783 218.98504 
L 656.301216 218.985882 
L 658.671649 217.566776 
L 661.042083 217.841844 
L 663.412516 218.841569 
L 665.782949 217.075546 
L 668.153383 215.090593 
L 670.523816 216.357036 
L 672.894249 214.942218 
L 675.264682 214.777985 
L 677.635116 216.700145 
L 680.005549 216.964515 
L 682.375982 217.73355 
L 684.746416 220.379752 
L 689.487282 217.89584 
L 691.857716 219.617358 
L 694.228149 219.084349 
L 696.598582 217.405988 
L 698.969016 217.728823 
L 701.339449 219.2124 
L 703.709882 218.461814 
L 706.080315 218.946053 
L 708.450749 220.154667 
L 710.821182 218.994561 
L 713.191615 219.359637 
L 715.562049 220.373547 
L 717.932482 220.252929 
L 720.302915 220.300547 
L 722.673349 222.880376 
L 725.043782 222.93031 
L 727.414215 223.114972 
L 732.155082 224.778567 
L 734.525515 225.390473 
L 736.895948 225.510356 
L 741.636815 224.486124 
L 744.007248 224.201287 
L 746.377682 223.548339 
L 748.748115 223.223339 
L 751.118548 224.074949 
L 753.488982 224.098666 
L 755.859415 223.819492 
L 758.229848 223.723667 
L 760.600281 224.026328 
L 762.970715 223.560639 
L 765.341148 222.627222 
L 767.711581 222.468274 
L 770.082015 222.625939 
L 772.452448 222.311349 
L 774.822881 222.564002 
L 777.193315 223.788451 
L 781.934181 224.0522 
L 784.304614 225.223635 
L 791.415914 225.641707 
L 793.786348 226.056115 
L 796.156781 225.760672 
L 803.268081 226.23146 
L 808.008948 226.319199 
L 810.379381 226.615716 
L 812.749814 226.509775 
L 815.120247 227.188636 
L 817.490681 227.559917 
L 822.231547 226.844115 
L 824.601981 226.824798 
L 826.972414 226.546879 
L 829.342847 226.396862 
L 831.713281 226.561176 
L 834.083714 226.20854 
L 836.454147 226.389948 
L 838.824581 225.296874 
L 841.195014 224.907145 
L 843.565447 224.64805 
L 845.93588 224.758326 
L 848.306314 223.995372 
L 850.676747 225.010467 
L 853.04718 225.253947 
L 857.788047 226.207337 
L 860.15848 227.036075 
L 867.26978 227.667608 
L 869.640213 227.380589 
L 872.010647 227.229049 
L 876.751513 227.213607 
L 886.233247 227.800748 
L 888.60368 228.025524 
L 890.974113 227.879315 
L 893.344547 228.38933 
L 895.71498 228.41378 
L 898.085413 228.314312 
L 900.455846 227.780956 
L 909.93758 227.80633 
L 912.308013 228.245206 
L 914.678446 228.209713 
L 917.04888 228.026002 
L 919.419313 228.092626 
L 924.160179 227.910639 
L 928.901046 228.095573 
L 931.271479 228.028789 
L 936.012346 228.446065 
L 938.382779 228.574773 
L 940.753213 228.581307 
L 943.123646 228.784562 
L 950.234946 228.632622 
L 952.605379 228.717747 
L 954.975812 228.581276 
L 957.346246 228.732644 
L 969.198412 228.718385 
L 978.680145 228.51816 
L 983.421012 228.833517 
L 995.273179 228.96 
L 1000.014045 228.860948 
L 1035.570545 228.96 
L 1037.940978 228.736102 
L 1045.052278 228.736102 
L 1047.422711 228.578056 
L 1049.793145 228.801954 
L 1056.904445 228.726668 
L 1056.904445 228.726668 
" style="fill:none;stroke:#d3d3d3;stroke-linecap:square;stroke-width:2;"/>
   </g>
   <g id="patch_3">
    <path d="M 43.78125 228.96 
L 43.78125 7.2 
" style="fill:none;stroke:#000000;stroke-linecap:square;stroke-linejoin:miter;stroke-width:0.8;"/>
   </g>
   <g id="patch_4">
    <path d="M 43.78125 228.96 
L 1159.78125 228.96 
" style="fill:none;stroke:#000000;stroke-linecap:square;stroke-linejoin:miter;stroke-width:0.8;"/>
   </g>
   <g id="legend_1">
    <g id="line2d_22">
     <path d="M 1065.97 17.67875 
L 1081.97 17.67875 
" style="fill:none;stroke:#947383;stroke-linecap:square;stroke-width:2;"/>
    </g>
    <g id="line2d_23"/>
    <g id="text_17">
     <!-- Europe -->
     <g transform="translate(1088.37 20.47875)scale(0.08 -0.08)">
      <defs>
       <path d="M 628 4666 
L 3578 4666 
L 3578 4134 
L 1259 4134 
L 1259 2753 
L 3481 2753 
L 3481 2222 
L 1259 2222 
L 1259 531 
L 3634 531 
L 3634 0 
L 628 0 
L 628 4666 
z
" id="DejaVuSans-45" transform="scale(0.015625)"/>
       <path d="M 1159 525 
L 1159 -1331 
L 581 -1331 
L 581 3500 
L 1159 3500 
L 1159 2969 
Q 1341 3281 1617 3432 
Q 1894 3584 2278 3584 
Q 2916 3584 3314 3078 
Q 3713 2572 3713 1747 
Q 3713 922 3314 415 
Q 2916 -91 2278 -91 
Q 1894 -91 1617 61 
Q 1341 213 1159 525 
z
M 3116 1747 
Q 3116 2381 2855 2742 
Q 2594 3103 2138 3103 
Q 1681 3103 1420 2742 
Q 1159 2381 1159 1747 
Q 1159 1113 1420 752 
Q 1681 391 2138 391 
Q 2594 391 2855 752 
Q 3116 1113 3116 1747 
z
" id="DejaVuSans-70" transform="scale(0.015625)"/>
      </defs>
      <use xlink:href="#DejaVuSans-45"/>
      <use x="63.183594" xlink:href="#DejaVuSans-75"/>
      <use x="126.5625" xlink:href="#DejaVuSans-72"/>
      <use x="165.425781" xlink:href="#DejaVuSans-6f"/>
      <use x="226.607422" xlink:href="#DejaVuSans-70"/>
      <use x="290.083984" xlink:href="#DejaVuSans-65"/>
     </g>
    </g>
    <g id="line2d_24">
     <path d="M 1065.97 29.42125 
L 1081.97 29.42125 
" style="fill:none;stroke:#96c6ad;stroke-linecap:square;stroke-width:2;"/>
    </g>
    <g id="line2d_25"/>
    <g id="text_18">
     <!-- Asia -->
     <g transform="translate(1088.37 32.22125)scale(0.08 -0.08)">
      <defs>
       <path d="M 2188 4044 
L 1331 1722 
L 3047 1722 
L 2188 4044 
z
M 1831 4666 
L 2547 4666 
L 4325 0 
L 3669 0 
L 3244 1197 
L 1141 1197 
L 716 0 
L 50 0 
L 1831 4666 
z
" id="DejaVuSans-41" transform="scale(0.015625)"/>
       <path d="M 2834 3397 
L 2834 2853 
Q 2591 2978 2328 3040 
Q 2066 3103 1784 3103 
Q 1356 3103 1142 2972 
Q 928 2841 928 2578 
Q 928 2378 1081 2264 
Q 1234 2150 1697 2047 
L 1894 2003 
Q 2506 1872 2764 1633 
Q 3022 1394 3022 966 
Q 3022 478 2636 193 
Q 2250 -91 1575 -91 
Q 1294 -91 989 -36 
Q 684 19 347 128 
L 347 722 
Q 666 556 975 473 
Q 1284 391 1588 391 
Q 1994 391 2212 530 
Q 2431 669 2431 922 
Q 2431 1156 2273 1281 
Q 2116 1406 1581 1522 
L 1381 1569 
Q 847 1681 609 1914 
Q 372 2147 372 2553 
Q 372 3047 722 3315 
Q 1072 3584 1716 3584 
Q 2034 3584 2315 3537 
Q 2597 3491 2834 3397 
z
" id="DejaVuSans-73" transform="scale(0.015625)"/>
      </defs>
      <use xlink:href="#DejaVuSans-41"/>
      <use x="68.408203" xlink:href="#DejaVuSans-73"/>
      <use x="120.507812" xlink:href="#DejaVuSans-69"/>
      <use x="148.291016" xlink:href="#DejaVuSans-61"/>
     </g>
    </g>
    <g id="line2d_26">
     <path d="M 1065.97 41.16375 
L 1081.97 41.16375 
" style="fill:none;stroke:#525886;stroke-linecap:square;stroke-width:2;"/>
    </g>
    <g id="line2d_27"/>
    <g id="text_19">
     <!-- United Kingdom -->
     <g transform="translate(1088.37 43.96375)scale(0.08 -0.08)">
      <defs>
       <path d="M 556 4666 
L 1191 4666 
L 1191 1831 
Q 1191 1081 1462 751 
Q 1734 422 2344 422 
Q 2950 422 3222 751 
Q 3494 1081 3494 1831 
L 3494 4666 
L 4128 4666 
L 4128 1753 
Q 4128 841 3676 375 
Q 3225 -91 2344 -91 
Q 1459 -91 1007 375 
Q 556 841 556 1753 
L 556 4666 
z
" id="DejaVuSans-55" transform="scale(0.015625)"/>
       <path d="M 628 4666 
L 1259 4666 
L 1259 2694 
L 3353 4666 
L 4166 4666 
L 1850 2491 
L 4331 0 
L 3500 0 
L 1259 2247 
L 1259 0 
L 628 0 
L 628 4666 
z
" id="DejaVuSans-4b" transform="scale(0.015625)"/>
       <path d="M 3328 2828 
Q 3544 3216 3844 3400 
Q 4144 3584 4550 3584 
Q 5097 3584 5394 3201 
Q 5691 2819 5691 2113 
L 5691 0 
L 5113 0 
L 5113 2094 
Q 5113 2597 4934 2840 
Q 4756 3084 4391 3084 
Q 3944 3084 3684 2787 
Q 3425 2491 3425 1978 
L 3425 0 
L 2847 0 
L 2847 2094 
Q 2847 2600 2669 2842 
Q 2491 3084 2119 3084 
Q 1678 3084 1418 2786 
Q 1159 2488 1159 1978 
L 1159 0 
L 581 0 
L 581 3500 
L 1159 3500 
L 1159 2956 
Q 1356 3278 1631 3431 
Q 1906 3584 2284 3584 
Q 2666 3584 2933 3390 
Q 3200 3197 3328 2828 
z
" id="DejaVuSans-6d" transform="scale(0.015625)"/>
      </defs>
      <use xlink:href="#DejaVuSans-55"/>
      <use x="73.193359" xlink:href="#DejaVuSans-6e"/>
      <use x="136.572266" xlink:href="#DejaVuSans-69"/>
      <use x="164.355469" xlink:href="#DejaVuSans-74"/>
      <use x="203.564453" xlink:href="#DejaVuSans-65"/>
      <use x="265.087891" xlink:href="#DejaVuSans-64"/>
      <use x="328.564453" xlink:href="#DejaVuSans-20"/>
      <use x="360.351562" xlink:href="#DejaVuSans-4b"/>
      <use x="425.927734" xlink:href="#DejaVuSans-69"/>
      <use x="453.710938" xlink:href="#DejaVuSans-6e"/>
      <use x="517.089844" xlink:href="#DejaVuSans-67"/>
      <use x="580.566406" xlink:href="#DejaVuSans-64"/>
      <use x="644.042969" xlink:href="#DejaVuSans-6f"/>
      <use x="705.224609" xlink:href="#DejaVuSans-6d"/>
     </g>
    </g>
    <g id="line2d_28">
     <path d="M 1065.97 52.90625 
L 1081.97 52.90625 
" style="fill:none;stroke:#937252;stroke-linecap:square;stroke-width:2;"/>
    </g>
    <g id="line2d_29"/>
    <g id="text_20">
     <!-- Africa -->
     <g transform="translate(1088.37 55.70625)scale(0.08 -0.08)">
      <defs>
       <path d="M 2375 4863 
L 2375 4384 
L 1825 4384 
Q 1516 4384 1395 4259 
Q 1275 4134 1275 3809 
L 1275 3500 
L 2222 3500 
L 2222 3053 
L 1275 3053 
L 1275 0 
L 697 0 
L 697 3053 
L 147 3053 
L 147 3500 
L 697 3500 
L 697 3744 
Q 697 4328 969 4595 
Q 1241 4863 1831 4863 
L 2375 4863 
z
" id="DejaVuSans-66" transform="scale(0.015625)"/>
      </defs>
      <use xlink:href="#DejaVuSans-41"/>
      <use x="64.783203" xlink:href="#DejaVuSans-66"/>
      <use x="99.988281" xlink:href="#DejaVuSans-72"/>
      <use x="141.101562" xlink:href="#DejaVuSans-69"/>
      <use x="168.884766" xlink:href="#DejaVuSans-63"/>
      <use x="223.865234" xlink:href="#DejaVuSans-61"/>
     </g>
    </g>
    <g id="line2d_30">
     <path d="M 1065.97 64.64875 
L 1081.97 64.64875 
" style="fill:none;stroke:#d18cad;stroke-linecap:square;stroke-width:2;"/>
    </g>
    <g id="line2d_31"/>
    <g id="text_21">
     <!-- Oceania -->
     <g transform="translate(1088.37 67.44875)scale(0.08 -0.08)">
      <defs>
       <path d="M 2522 4238 
Q 1834 4238 1429 3725 
Q 1025 3213 1025 2328 
Q 1025 1447 1429 934 
Q 1834 422 2522 422 
Q 3209 422 3611 934 
Q 4013 1447 4013 2328 
Q 4013 3213 3611 3725 
Q 3209 4238 2522 4238 
z
M 2522 4750 
Q 3503 4750 4090 4092 
Q 4678 3434 4678 2328 
Q 4678 1225 4090 567 
Q 3503 -91 2522 -91 
Q 1538 -91 948 565 
Q 359 1222 359 2328 
Q 359 3434 948 4092 
Q 1538 4750 2522 4750 
z
" id="DejaVuSans-4f" transform="scale(0.015625)"/>
      </defs>
      <use xlink:href="#DejaVuSans-4f"/>
      <use x="78.710938" xlink:href="#DejaVuSans-63"/>
      <use x="133.691406" xlink:href="#DejaVuSans-65"/>
      <use x="195.214844" xlink:href="#DejaVuSans-61"/>
      <use x="256.494141" xlink:href="#DejaVuSans-6e"/>
      <use x="319.873047" xlink:href="#DejaVuSans-69"/>
      <use x="347.65625" xlink:href="#DejaVuSans-61"/>
     </g>
    </g>
    <g id="line2d_32">
     <path d="M 1065.97 76.39125 
L 1081.97 76.39125 
" style="fill:none;stroke:#a4a86f;stroke-linecap:square;stroke-width:2;"/>
    </g>
    <g id="line2d_33"/>
    <g id="text_22">
     <!-- North America -->
     <g transform="translate(1088.37 79.19125)scale(0.08 -0.08)">
      <defs>
       <path d="M 628 4666 
L 1478 4666 
L 3547 763 
L 3547 4666 
L 4159 4666 
L 4159 0 
L 3309 0 
L 1241 3903 
L 1241 0 
L 628 0 
L 628 4666 
z
" id="DejaVuSans-4e" transform="scale(0.015625)"/>
       <path d="M 3513 2113 
L 3513 0 
L 2938 0 
L 2938 2094 
Q 2938 2591 2744 2837 
Q 2550 3084 2163 3084 
Q 1697 3084 1428 2787 
Q 1159 2491 1159 1978 
L 1159 0 
L 581 0 
L 581 4863 
L 1159 4863 
L 1159 2956 
Q 1366 3272 1645 3428 
Q 1925 3584 2291 3584 
Q 2894 3584 3203 3211 
Q 3513 2838 3513 2113 
z
" id="DejaVuSans-68" transform="scale(0.015625)"/>
      </defs>
      <use xlink:href="#DejaVuSans-4e"/>
      <use x="74.804688" xlink:href="#DejaVuSans-6f"/>
      <use x="135.986328" xlink:href="#DejaVuSans-72"/>
      <use x="177.099609" xlink:href="#DejaVuSans-74"/>
      <use x="216.308594" xlink:href="#DejaVuSans-68"/>
      <use x="279.6875" xlink:href="#DejaVuSans-20"/>
      <use x="311.474609" xlink:href="#DejaVuSans-41"/>
      <use x="379.882812" xlink:href="#DejaVuSans-6d"/>
      <use x="477.294922" xlink:href="#DejaVuSans-65"/>
      <use x="538.818359" xlink:href="#DejaVuSans-72"/>
      <use x="579.931641" xlink:href="#DejaVuSans-69"/>
      <use x="607.714844" xlink:href="#DejaVuSans-63"/>
      <use x="662.695312" xlink:href="#DejaVuSans-61"/>
     </g>
    </g>
    <g id="line2d_34">
     <path d="M 1065.97 88.13375 
L 1081.97 88.13375 
" style="fill:none;stroke:#d3d3d3;stroke-linecap:square;stroke-width:2;"/>
    </g>
    <g id="line2d_35"/>
    <g id="text_23">
     <!-- South America -->
     <g transform="translate(1088.37 90.93375)scale(0.08 -0.08)">
      <defs>
       <path d="M 3425 4513 
L 3425 3897 
Q 3066 4069 2747 4153 
Q 2428 4238 2131 4238 
Q 1616 4238 1336 4038 
Q 1056 3838 1056 3469 
Q 1056 3159 1242 3001 
Q 1428 2844 1947 2747 
L 2328 2669 
Q 3034 2534 3370 2195 
Q 3706 1856 3706 1288 
Q 3706 609 3251 259 
Q 2797 -91 1919 -91 
Q 1588 -91 1214 -16 
Q 841 59 441 206 
L 441 856 
Q 825 641 1194 531 
Q 1563 422 1919 422 
Q 2459 422 2753 634 
Q 3047 847 3047 1241 
Q 3047 1584 2836 1778 
Q 2625 1972 2144 2069 
L 1759 2144 
Q 1053 2284 737 2584 
Q 422 2884 422 3419 
Q 422 4038 858 4394 
Q 1294 4750 2059 4750 
Q 2388 4750 2728 4690 
Q 3069 4631 3425 4513 
z
" id="DejaVuSans-53" transform="scale(0.015625)"/>
      </defs>
      <use xlink:href="#DejaVuSans-53"/>
      <use x="63.476562" xlink:href="#DejaVuSans-6f"/>
      <use x="124.658203" xlink:href="#DejaVuSans-75"/>
      <use x="188.037109" xlink:href="#DejaVuSans-74"/>
      <use x="227.246094" xlink:href="#DejaVuSans-68"/>
      <use x="290.625" xlink:href="#DejaVuSans-20"/>
      <use x="322.412109" xlink:href="#DejaVuSans-41"/>
      <use x="390.820312" xlink:href="#DejaVuSans-6d"/>
      <use x="488.232422" xlink:href="#DejaVuSans-65"/>
      <use x="549.755859" xlink:href="#DejaVuSans-72"/>
      <use x="590.869141" xlink:href="#DejaVuSans-69"/>
      <use x="618.652344" xlink:href="#DejaVuSans-63"/>
      <use x="673.632812" xlink:href="#DejaVuSans-61"/>
     </g>
    </g>
   </g>
  </g>
 </g>
 <defs>
  <clipPath id="pf3954d53a4">
   <rect height="221.76" width="1116" x="43.78125" y="7.2"/>
  </clipPath>
 </defs>
</svg>
