<?xml version="1.0" encoding="utf-8" standalone="no"?>
<!DOCTYPE svg PUBLIC "-//W3C//DTD SVG 1.1//EN"
  "http://www.w3.org/Graphics/SVG/1.1/DTD/svg11.dtd">
<svg height="298.620937pt" version="1.1" viewBox="0 0 1166.98125 298.620937" width="1166.98125pt" xmlns="http://www.w3.org/2000/svg" xmlns:xlink="http://www.w3.org/1999/xlink">
 <metadata>
  <rdf:RDF xmlns:cc="http://creativecommons.org/ns#" xmlns:dc="http://purl.org/dc/elements/1.1/" xmlns:rdf="http://www.w3.org/1999/02/22-rdf-syntax-ns#">
   <cc:Work>
    <dc:type rdf:resource="http://purl.org/dc/dcmitype/StillImage"/>
    <dc:date>2021-09-07T10:39:43.927484</dc:date>
    <dc:format>image/svg+xml</dc:format>
    <dc:creator>
     <cc:Agent>
      <dc:title>Matplotlib v3.4.2, https://matplotlib.org/</dc:title>
     </cc:Agent>
    </dc:creator>
   </cc:Work>
  </rdf:RDF>
 </metadata>
 <defs>
  <style type="text/css">*{stroke-linecap:butt;stroke-linejoin:round;}</style>
 </defs>
 <g id="figure_1">
  <g id="patch_1">
   <path d="M 0 298.620937 
L 1166.98125 298.620937 
L 1166.98125 0 
L 0 0 
z
" style="fill:#ffffff;"/>
  </g>
  <g id="axes_1">
   <g id="patch_2">
    <path d="M 43.78125 228.96 
L 1159.78125 228.96 
L 1159.78125 7.2 
L 43.78125 7.2 
z
" style="fill:#ffffff;"/>
   </g>
   <g id="matplotlib.axis_1">
    <g id="xtick_1">
     <g id="line2d_1">
      <defs>
       <path d="M 0 0 
L 0 3.5 
" id="mc115421ba3" style="stroke:#000000;stroke-width:0.8;"/>
      </defs>
      <g>
       <use style="stroke:#000000;stroke-width:0.8;" x="77.552331" xlink:href="#mc115421ba3" y="228.96"/>
      </g>
     </g>
     <g id="text_1">
      <!-- 2020-09 -->
      <g transform="translate(80.311706 277.742812)rotate(-90)scale(0.1 -0.1)">
       <defs>
        <path d="M 1228 531 
L 3431 531 
L 3431 0 
L 469 0 
L 469 531 
Q 828 903 1448 1529 
Q 2069 2156 2228 2338 
Q 2531 2678 2651 2914 
Q 2772 3150 2772 3378 
Q 2772 3750 2511 3984 
Q 2250 4219 1831 4219 
Q 1534 4219 1204 4116 
Q 875 4013 500 3803 
L 500 4441 
Q 881 4594 1212 4672 
Q 1544 4750 1819 4750 
Q 2544 4750 2975 4387 
Q 3406 4025 3406 3419 
Q 3406 3131 3298 2873 
Q 3191 2616 2906 2266 
Q 2828 2175 2409 1742 
Q 1991 1309 1228 531 
z
" id="DejaVuSans-32" transform="scale(0.015625)"/>
        <path d="M 2034 4250 
Q 1547 4250 1301 3770 
Q 1056 3291 1056 2328 
Q 1056 1369 1301 889 
Q 1547 409 2034 409 
Q 2525 409 2770 889 
Q 3016 1369 3016 2328 
Q 3016 3291 2770 3770 
Q 2525 4250 2034 4250 
z
M 2034 4750 
Q 2819 4750 3233 4129 
Q 3647 3509 3647 2328 
Q 3647 1150 3233 529 
Q 2819 -91 2034 -91 
Q 1250 -91 836 529 
Q 422 1150 422 2328 
Q 422 3509 836 4129 
Q 1250 4750 2034 4750 
z
" id="DejaVuSans-30" transform="scale(0.015625)"/>
        <path d="M 313 2009 
L 1997 2009 
L 1997 1497 
L 313 1497 
L 313 2009 
z
" id="DejaVuSans-2d" transform="scale(0.015625)"/>
        <path d="M 703 97 
L 703 672 
Q 941 559 1184 500 
Q 1428 441 1663 441 
Q 2288 441 2617 861 
Q 2947 1281 2994 2138 
Q 2813 1869 2534 1725 
Q 2256 1581 1919 1581 
Q 1219 1581 811 2004 
Q 403 2428 403 3163 
Q 403 3881 828 4315 
Q 1253 4750 1959 4750 
Q 2769 4750 3195 4129 
Q 3622 3509 3622 2328 
Q 3622 1225 3098 567 
Q 2575 -91 1691 -91 
Q 1453 -91 1209 -44 
Q 966 3 703 97 
z
M 1959 2075 
Q 2384 2075 2632 2365 
Q 2881 2656 2881 3163 
Q 2881 3666 2632 3958 
Q 2384 4250 1959 4250 
Q 1534 4250 1286 3958 
Q 1038 3666 1038 3163 
Q 1038 2656 1286 2365 
Q 1534 2075 1959 2075 
z
" id="DejaVuSans-39" transform="scale(0.015625)"/>
       </defs>
       <use xlink:href="#DejaVuSans-32"/>
       <use x="63.623047" xlink:href="#DejaVuSans-30"/>
       <use x="127.246094" xlink:href="#DejaVuSans-32"/>
       <use x="190.869141" xlink:href="#DejaVuSans-30"/>
       <use x="254.492188" xlink:href="#DejaVuSans-2d"/>
       <use x="290.576172" xlink:href="#DejaVuSans-30"/>
       <use x="354.199219" xlink:href="#DejaVuSans-39"/>
      </g>
     </g>
    </g>
    <g id="xtick_2">
     <g id="line2d_2">
      <g>
       <use style="stroke:#000000;stroke-width:0.8;" x="249.940278" xlink:href="#mc115421ba3" y="228.96"/>
      </g>
     </g>
     <g id="text_2">
      <!-- 2020-11 -->
      <g transform="translate(252.699653 277.742812)rotate(-90)scale(0.1 -0.1)">
       <defs>
        <path d="M 794 531 
L 1825 531 
L 1825 4091 
L 703 3866 
L 703 4441 
L 1819 4666 
L 2450 4666 
L 2450 531 
L 3481 531 
L 3481 0 
L 794 0 
L 794 531 
z
" id="DejaVuSans-31" transform="scale(0.015625)"/>
       </defs>
       <use xlink:href="#DejaVuSans-32"/>
       <use x="63.623047" xlink:href="#DejaVuSans-30"/>
       <use x="127.246094" xlink:href="#DejaVuSans-32"/>
       <use x="190.869141" xlink:href="#DejaVuSans-30"/>
       <use x="254.492188" xlink:href="#DejaVuSans-2d"/>
       <use x="290.576172" xlink:href="#DejaVuSans-31"/>
       <use x="354.199219" xlink:href="#DejaVuSans-31"/>
      </g>
     </g>
    </g>
    <g id="xtick_3">
     <g id="line2d_3">
      <g>
       <use style="stroke:#000000;stroke-width:0.8;" x="422.328224" xlink:href="#mc115421ba3" y="228.96"/>
      </g>
     </g>
     <g id="text_3">
      <!-- 2021-01 -->
      <g transform="translate(425.087599 277.742812)rotate(-90)scale(0.1 -0.1)">
       <use xlink:href="#DejaVuSans-32"/>
       <use x="63.623047" xlink:href="#DejaVuSans-30"/>
       <use x="127.246094" xlink:href="#DejaVuSans-32"/>
       <use x="190.869141" xlink:href="#DejaVuSans-31"/>
       <use x="254.492188" xlink:href="#DejaVuSans-2d"/>
       <use x="290.576172" xlink:href="#DejaVuSans-30"/>
       <use x="354.199219" xlink:href="#DejaVuSans-31"/>
      </g>
     </g>
    </g>
    <g id="xtick_4">
     <g id="line2d_4">
      <g>
       <use style="stroke:#000000;stroke-width:0.8;" x="589.064106" xlink:href="#mc115421ba3" y="228.96"/>
      </g>
     </g>
     <g id="text_4">
      <!-- 2021-03 -->
      <g transform="translate(591.823481 277.742812)rotate(-90)scale(0.1 -0.1)">
       <defs>
        <path d="M 2597 2516 
Q 3050 2419 3304 2112 
Q 3559 1806 3559 1356 
Q 3559 666 3084 287 
Q 2609 -91 1734 -91 
Q 1441 -91 1130 -33 
Q 819 25 488 141 
L 488 750 
Q 750 597 1062 519 
Q 1375 441 1716 441 
Q 2309 441 2620 675 
Q 2931 909 2931 1356 
Q 2931 1769 2642 2001 
Q 2353 2234 1838 2234 
L 1294 2234 
L 1294 2753 
L 1863 2753 
Q 2328 2753 2575 2939 
Q 2822 3125 2822 3475 
Q 2822 3834 2567 4026 
Q 2313 4219 1838 4219 
Q 1578 4219 1281 4162 
Q 984 4106 628 3988 
L 628 4550 
Q 988 4650 1302 4700 
Q 1616 4750 1894 4750 
Q 2613 4750 3031 4423 
Q 3450 4097 3450 3541 
Q 3450 3153 3228 2886 
Q 3006 2619 2597 2516 
z
" id="DejaVuSans-33" transform="scale(0.015625)"/>
       </defs>
       <use xlink:href="#DejaVuSans-32"/>
       <use x="63.623047" xlink:href="#DejaVuSans-30"/>
       <use x="127.246094" xlink:href="#DejaVuSans-32"/>
       <use x="190.869141" xlink:href="#DejaVuSans-31"/>
       <use x="254.492188" xlink:href="#DejaVuSans-2d"/>
       <use x="290.576172" xlink:href="#DejaVuSans-30"/>
       <use x="354.199219" xlink:href="#DejaVuSans-33"/>
      </g>
     </g>
    </g>
    <g id="xtick_5">
     <g id="line2d_5">
      <g>
       <use style="stroke:#000000;stroke-width:0.8;" x="761.452053" xlink:href="#mc115421ba3" y="228.96"/>
      </g>
     </g>
     <g id="text_5">
      <!-- 2021-05 -->
      <g transform="translate(764.211428 277.742812)rotate(-90)scale(0.1 -0.1)">
       <defs>
        <path d="M 691 4666 
L 3169 4666 
L 3169 4134 
L 1269 4134 
L 1269 2991 
Q 1406 3038 1543 3061 
Q 1681 3084 1819 3084 
Q 2600 3084 3056 2656 
Q 3513 2228 3513 1497 
Q 3513 744 3044 326 
Q 2575 -91 1722 -91 
Q 1428 -91 1123 -41 
Q 819 9 494 109 
L 494 744 
Q 775 591 1075 516 
Q 1375 441 1709 441 
Q 2250 441 2565 725 
Q 2881 1009 2881 1497 
Q 2881 1984 2565 2268 
Q 2250 2553 1709 2553 
Q 1456 2553 1204 2497 
Q 953 2441 691 2322 
L 691 4666 
z
" id="DejaVuSans-35" transform="scale(0.015625)"/>
       </defs>
       <use xlink:href="#DejaVuSans-32"/>
       <use x="63.623047" xlink:href="#DejaVuSans-30"/>
       <use x="127.246094" xlink:href="#DejaVuSans-32"/>
       <use x="190.869141" xlink:href="#DejaVuSans-31"/>
       <use x="254.492188" xlink:href="#DejaVuSans-2d"/>
       <use x="290.576172" xlink:href="#DejaVuSans-30"/>
       <use x="354.199219" xlink:href="#DejaVuSans-35"/>
      </g>
     </g>
    </g>
    <g id="xtick_6">
     <g id="line2d_6">
      <g>
       <use style="stroke:#000000;stroke-width:0.8;" x="933.839999" xlink:href="#mc115421ba3" y="228.96"/>
      </g>
     </g>
     <g id="text_6">
      <!-- 2021-07 -->
      <g transform="translate(936.599374 277.742812)rotate(-90)scale(0.1 -0.1)">
       <defs>
        <path d="M 525 4666 
L 3525 4666 
L 3525 4397 
L 1831 0 
L 1172 0 
L 2766 4134 
L 525 4134 
L 525 4666 
z
" id="DejaVuSans-37" transform="scale(0.015625)"/>
       </defs>
       <use xlink:href="#DejaVuSans-32"/>
       <use x="63.623047" xlink:href="#DejaVuSans-30"/>
       <use x="127.246094" xlink:href="#DejaVuSans-32"/>
       <use x="190.869141" xlink:href="#DejaVuSans-31"/>
       <use x="254.492188" xlink:href="#DejaVuSans-2d"/>
       <use x="290.576172" xlink:href="#DejaVuSans-30"/>
       <use x="354.199219" xlink:href="#DejaVuSans-37"/>
      </g>
     </g>
    </g>
    <g id="xtick_7">
     <g id="line2d_7">
      <g>
       <use style="stroke:#000000;stroke-width:0.8;" x="1109.053977" xlink:href="#mc115421ba3" y="228.96"/>
      </g>
     </g>
     <g id="text_7">
      <!-- 2021-09 -->
      <g transform="translate(1111.813352 277.742812)rotate(-90)scale(0.1 -0.1)">
       <use xlink:href="#DejaVuSans-32"/>
       <use x="63.623047" xlink:href="#DejaVuSans-30"/>
       <use x="127.246094" xlink:href="#DejaVuSans-32"/>
       <use x="190.869141" xlink:href="#DejaVuSans-31"/>
       <use x="254.492188" xlink:href="#DejaVuSans-2d"/>
       <use x="290.576172" xlink:href="#DejaVuSans-30"/>
       <use x="354.199219" xlink:href="#DejaVuSans-39"/>
      </g>
     </g>
    </g>
    <g id="text_8">
     <!-- Date -->
     <g transform="translate(589.830469 289.34125)scale(0.1 -0.1)">
      <defs>
       <path d="M 1259 4147 
L 1259 519 
L 2022 519 
Q 2988 519 3436 956 
Q 3884 1394 3884 2338 
Q 3884 3275 3436 3711 
Q 2988 4147 2022 4147 
L 1259 4147 
z
M 628 4666 
L 1925 4666 
Q 3281 4666 3915 4102 
Q 4550 3538 4550 2338 
Q 4550 1131 3912 565 
Q 3275 0 1925 0 
L 628 0 
L 628 4666 
z
" id="DejaVuSans-44" transform="scale(0.015625)"/>
       <path d="M 2194 1759 
Q 1497 1759 1228 1600 
Q 959 1441 959 1056 
Q 959 750 1161 570 
Q 1363 391 1709 391 
Q 2188 391 2477 730 
Q 2766 1069 2766 1631 
L 2766 1759 
L 2194 1759 
z
M 3341 1997 
L 3341 0 
L 2766 0 
L 2766 531 
Q 2569 213 2275 61 
Q 1981 -91 1556 -91 
Q 1019 -91 701 211 
Q 384 513 384 1019 
Q 384 1609 779 1909 
Q 1175 2209 1959 2209 
L 2766 2209 
L 2766 2266 
Q 2766 2663 2505 2880 
Q 2244 3097 1772 3097 
Q 1472 3097 1187 3025 
Q 903 2953 641 2809 
L 641 3341 
Q 956 3463 1253 3523 
Q 1550 3584 1831 3584 
Q 2591 3584 2966 3190 
Q 3341 2797 3341 1997 
z
" id="DejaVuSans-61" transform="scale(0.015625)"/>
       <path d="M 1172 4494 
L 1172 3500 
L 2356 3500 
L 2356 3053 
L 1172 3053 
L 1172 1153 
Q 1172 725 1289 603 
Q 1406 481 1766 481 
L 2356 481 
L 2356 0 
L 1766 0 
Q 1100 0 847 248 
Q 594 497 594 1153 
L 594 3053 
L 172 3053 
L 172 3500 
L 594 3500 
L 594 4494 
L 1172 4494 
z
" id="DejaVuSans-74" transform="scale(0.015625)"/>
       <path d="M 3597 1894 
L 3597 1613 
L 953 1613 
Q 991 1019 1311 708 
Q 1631 397 2203 397 
Q 2534 397 2845 478 
Q 3156 559 3463 722 
L 3463 178 
Q 3153 47 2828 -22 
Q 2503 -91 2169 -91 
Q 1331 -91 842 396 
Q 353 884 353 1716 
Q 353 2575 817 3079 
Q 1281 3584 2069 3584 
Q 2775 3584 3186 3129 
Q 3597 2675 3597 1894 
z
M 3022 2063 
Q 3016 2534 2758 2815 
Q 2500 3097 2075 3097 
Q 1594 3097 1305 2825 
Q 1016 2553 972 2059 
L 3022 2063 
z
" id="DejaVuSans-65" transform="scale(0.015625)"/>
      </defs>
      <use xlink:href="#DejaVuSans-44"/>
      <use x="77.001953" xlink:href="#DejaVuSans-61"/>
      <use x="138.28125" xlink:href="#DejaVuSans-74"/>
      <use x="177.490234" xlink:href="#DejaVuSans-65"/>
     </g>
    </g>
   </g>
   <g id="matplotlib.axis_2">
    <g id="ytick_1">
     <g id="line2d_8">
      <defs>
       <path d="M 0 0 
L -3.5 0 
" id="m05511542e4" style="stroke:#000000;stroke-width:0.8;"/>
      </defs>
      <g>
       <use style="stroke:#000000;stroke-width:0.8;" x="43.78125" xlink:href="#m05511542e4" y="228.96"/>
      </g>
     </g>
     <g id="text_9">
      <!-- 0.0 -->
      <g transform="translate(20.878125 232.759219)scale(0.1 -0.1)">
       <defs>
        <path d="M 684 794 
L 1344 794 
L 1344 0 
L 684 0 
L 684 794 
z
" id="DejaVuSans-2e" transform="scale(0.015625)"/>
       </defs>
       <use xlink:href="#DejaVuSans-30"/>
       <use x="63.623047" xlink:href="#DejaVuSans-2e"/>
       <use x="95.410156" xlink:href="#DejaVuSans-30"/>
      </g>
     </g>
    </g>
    <g id="ytick_2">
     <g id="line2d_9">
      <g>
       <use style="stroke:#000000;stroke-width:0.8;" x="43.78125" xlink:href="#m05511542e4" y="186.174638"/>
      </g>
     </g>
     <g id="text_10">
      <!-- 0.2 -->
      <g transform="translate(20.878125 189.973857)scale(0.1 -0.1)">
       <use xlink:href="#DejaVuSans-30"/>
       <use x="63.623047" xlink:href="#DejaVuSans-2e"/>
       <use x="95.410156" xlink:href="#DejaVuSans-32"/>
      </g>
     </g>
    </g>
    <g id="ytick_3">
     <g id="line2d_10">
      <g>
       <use style="stroke:#000000;stroke-width:0.8;" x="43.78125" xlink:href="#m05511542e4" y="143.389277"/>
      </g>
     </g>
     <g id="text_11">
      <!-- 0.4 -->
      <g transform="translate(20.878125 147.188496)scale(0.1 -0.1)">
       <defs>
        <path d="M 2419 4116 
L 825 1625 
L 2419 1625 
L 2419 4116 
z
M 2253 4666 
L 3047 4666 
L 3047 1625 
L 3713 1625 
L 3713 1100 
L 3047 1100 
L 3047 0 
L 2419 0 
L 2419 1100 
L 313 1100 
L 313 1709 
L 2253 4666 
z
" id="DejaVuSans-34" transform="scale(0.015625)"/>
       </defs>
       <use xlink:href="#DejaVuSans-30"/>
       <use x="63.623047" xlink:href="#DejaVuSans-2e"/>
       <use x="95.410156" xlink:href="#DejaVuSans-34"/>
      </g>
     </g>
    </g>
    <g id="ytick_4">
     <g id="line2d_11">
      <g>
       <use style="stroke:#000000;stroke-width:0.8;" x="43.78125" xlink:href="#m05511542e4" y="100.603915"/>
      </g>
     </g>
     <g id="text_12">
      <!-- 0.6 -->
      <g transform="translate(20.878125 104.403134)scale(0.1 -0.1)">
       <defs>
        <path d="M 2113 2584 
Q 1688 2584 1439 2293 
Q 1191 2003 1191 1497 
Q 1191 994 1439 701 
Q 1688 409 2113 409 
Q 2538 409 2786 701 
Q 3034 994 3034 1497 
Q 3034 2003 2786 2293 
Q 2538 2584 2113 2584 
z
M 3366 4563 
L 3366 3988 
Q 3128 4100 2886 4159 
Q 2644 4219 2406 4219 
Q 1781 4219 1451 3797 
Q 1122 3375 1075 2522 
Q 1259 2794 1537 2939 
Q 1816 3084 2150 3084 
Q 2853 3084 3261 2657 
Q 3669 2231 3669 1497 
Q 3669 778 3244 343 
Q 2819 -91 2113 -91 
Q 1303 -91 875 529 
Q 447 1150 447 2328 
Q 447 3434 972 4092 
Q 1497 4750 2381 4750 
Q 2619 4750 2861 4703 
Q 3103 4656 3366 4563 
z
" id="DejaVuSans-36" transform="scale(0.015625)"/>
       </defs>
       <use xlink:href="#DejaVuSans-30"/>
       <use x="63.623047" xlink:href="#DejaVuSans-2e"/>
       <use x="95.410156" xlink:href="#DejaVuSans-36"/>
      </g>
     </g>
    </g>
    <g id="ytick_5">
     <g id="line2d_12">
      <g>
       <use style="stroke:#000000;stroke-width:0.8;" x="43.78125" xlink:href="#m05511542e4" y="57.818554"/>
      </g>
     </g>
     <g id="text_13">
      <!-- 0.8 -->
      <g transform="translate(20.878125 61.617772)scale(0.1 -0.1)">
       <defs>
        <path d="M 2034 2216 
Q 1584 2216 1326 1975 
Q 1069 1734 1069 1313 
Q 1069 891 1326 650 
Q 1584 409 2034 409 
Q 2484 409 2743 651 
Q 3003 894 3003 1313 
Q 3003 1734 2745 1975 
Q 2488 2216 2034 2216 
z
M 1403 2484 
Q 997 2584 770 2862 
Q 544 3141 544 3541 
Q 544 4100 942 4425 
Q 1341 4750 2034 4750 
Q 2731 4750 3128 4425 
Q 3525 4100 3525 3541 
Q 3525 3141 3298 2862 
Q 3072 2584 2669 2484 
Q 3125 2378 3379 2068 
Q 3634 1759 3634 1313 
Q 3634 634 3220 271 
Q 2806 -91 2034 -91 
Q 1263 -91 848 271 
Q 434 634 434 1313 
Q 434 1759 690 2068 
Q 947 2378 1403 2484 
z
M 1172 3481 
Q 1172 3119 1398 2916 
Q 1625 2713 2034 2713 
Q 2441 2713 2670 2916 
Q 2900 3119 2900 3481 
Q 2900 3844 2670 4047 
Q 2441 4250 2034 4250 
Q 1625 4250 1398 4047 
Q 1172 3844 1172 3481 
z
" id="DejaVuSans-38" transform="scale(0.015625)"/>
       </defs>
       <use xlink:href="#DejaVuSans-30"/>
       <use x="63.623047" xlink:href="#DejaVuSans-2e"/>
       <use x="95.410156" xlink:href="#DejaVuSans-38"/>
      </g>
     </g>
    </g>
    <g id="ytick_6">
     <g id="line2d_13">
      <g>
       <use style="stroke:#000000;stroke-width:0.8;" x="43.78125" xlink:href="#m05511542e4" y="15.033192"/>
      </g>
     </g>
     <g id="text_14">
      <!-- 1.0 -->
      <g transform="translate(20.878125 18.832411)scale(0.1 -0.1)">
       <use xlink:href="#DejaVuSans-31"/>
       <use x="63.623047" xlink:href="#DejaVuSans-2e"/>
       <use x="95.410156" xlink:href="#DejaVuSans-30"/>
      </g>
     </g>
    </g>
    <g id="text_15">
     <!-- Frequency (7 day rolling average) -->
     <g transform="translate(14.798437 202.529219)rotate(-90)scale(0.1 -0.1)">
      <defs>
       <path d="M 628 4666 
L 3309 4666 
L 3309 4134 
L 1259 4134 
L 1259 2759 
L 3109 2759 
L 3109 2228 
L 1259 2228 
L 1259 0 
L 628 0 
L 628 4666 
z
" id="DejaVuSans-46" transform="scale(0.015625)"/>
       <path d="M 2631 2963 
Q 2534 3019 2420 3045 
Q 2306 3072 2169 3072 
Q 1681 3072 1420 2755 
Q 1159 2438 1159 1844 
L 1159 0 
L 581 0 
L 581 3500 
L 1159 3500 
L 1159 2956 
Q 1341 3275 1631 3429 
Q 1922 3584 2338 3584 
Q 2397 3584 2469 3576 
Q 2541 3569 2628 3553 
L 2631 2963 
z
" id="DejaVuSans-72" transform="scale(0.015625)"/>
       <path d="M 947 1747 
Q 947 1113 1208 752 
Q 1469 391 1925 391 
Q 2381 391 2643 752 
Q 2906 1113 2906 1747 
Q 2906 2381 2643 2742 
Q 2381 3103 1925 3103 
Q 1469 3103 1208 2742 
Q 947 2381 947 1747 
z
M 2906 525 
Q 2725 213 2448 61 
Q 2172 -91 1784 -91 
Q 1150 -91 751 415 
Q 353 922 353 1747 
Q 353 2572 751 3078 
Q 1150 3584 1784 3584 
Q 2172 3584 2448 3432 
Q 2725 3281 2906 2969 
L 2906 3500 
L 3481 3500 
L 3481 -1331 
L 2906 -1331 
L 2906 525 
z
" id="DejaVuSans-71" transform="scale(0.015625)"/>
       <path d="M 544 1381 
L 544 3500 
L 1119 3500 
L 1119 1403 
Q 1119 906 1312 657 
Q 1506 409 1894 409 
Q 2359 409 2629 706 
Q 2900 1003 2900 1516 
L 2900 3500 
L 3475 3500 
L 3475 0 
L 2900 0 
L 2900 538 
Q 2691 219 2414 64 
Q 2138 -91 1772 -91 
Q 1169 -91 856 284 
Q 544 659 544 1381 
z
M 1991 3584 
L 1991 3584 
z
" id="DejaVuSans-75" transform="scale(0.015625)"/>
       <path d="M 3513 2113 
L 3513 0 
L 2938 0 
L 2938 2094 
Q 2938 2591 2744 2837 
Q 2550 3084 2163 3084 
Q 1697 3084 1428 2787 
Q 1159 2491 1159 1978 
L 1159 0 
L 581 0 
L 581 3500 
L 1159 3500 
L 1159 2956 
Q 1366 3272 1645 3428 
Q 1925 3584 2291 3584 
Q 2894 3584 3203 3211 
Q 3513 2838 3513 2113 
z
" id="DejaVuSans-6e" transform="scale(0.015625)"/>
       <path d="M 3122 3366 
L 3122 2828 
Q 2878 2963 2633 3030 
Q 2388 3097 2138 3097 
Q 1578 3097 1268 2742 
Q 959 2388 959 1747 
Q 959 1106 1268 751 
Q 1578 397 2138 397 
Q 2388 397 2633 464 
Q 2878 531 3122 666 
L 3122 134 
Q 2881 22 2623 -34 
Q 2366 -91 2075 -91 
Q 1284 -91 818 406 
Q 353 903 353 1747 
Q 353 2603 823 3093 
Q 1294 3584 2113 3584 
Q 2378 3584 2631 3529 
Q 2884 3475 3122 3366 
z
" id="DejaVuSans-63" transform="scale(0.015625)"/>
       <path d="M 2059 -325 
Q 1816 -950 1584 -1140 
Q 1353 -1331 966 -1331 
L 506 -1331 
L 506 -850 
L 844 -850 
Q 1081 -850 1212 -737 
Q 1344 -625 1503 -206 
L 1606 56 
L 191 3500 
L 800 3500 
L 1894 763 
L 2988 3500 
L 3597 3500 
L 2059 -325 
z
" id="DejaVuSans-79" transform="scale(0.015625)"/>
       <path id="DejaVuSans-20" transform="scale(0.015625)"/>
       <path d="M 1984 4856 
Q 1566 4138 1362 3434 
Q 1159 2731 1159 2009 
Q 1159 1288 1364 580 
Q 1569 -128 1984 -844 
L 1484 -844 
Q 1016 -109 783 600 
Q 550 1309 550 2009 
Q 550 2706 781 3412 
Q 1013 4119 1484 4856 
L 1984 4856 
z
" id="DejaVuSans-28" transform="scale(0.015625)"/>
       <path d="M 2906 2969 
L 2906 4863 
L 3481 4863 
L 3481 0 
L 2906 0 
L 2906 525 
Q 2725 213 2448 61 
Q 2172 -91 1784 -91 
Q 1150 -91 751 415 
Q 353 922 353 1747 
Q 353 2572 751 3078 
Q 1150 3584 1784 3584 
Q 2172 3584 2448 3432 
Q 2725 3281 2906 2969 
z
M 947 1747 
Q 947 1113 1208 752 
Q 1469 391 1925 391 
Q 2381 391 2643 752 
Q 2906 1113 2906 1747 
Q 2906 2381 2643 2742 
Q 2381 3103 1925 3103 
Q 1469 3103 1208 2742 
Q 947 2381 947 1747 
z
" id="DejaVuSans-64" transform="scale(0.015625)"/>
       <path d="M 1959 3097 
Q 1497 3097 1228 2736 
Q 959 2375 959 1747 
Q 959 1119 1226 758 
Q 1494 397 1959 397 
Q 2419 397 2687 759 
Q 2956 1122 2956 1747 
Q 2956 2369 2687 2733 
Q 2419 3097 1959 3097 
z
M 1959 3584 
Q 2709 3584 3137 3096 
Q 3566 2609 3566 1747 
Q 3566 888 3137 398 
Q 2709 -91 1959 -91 
Q 1206 -91 779 398 
Q 353 888 353 1747 
Q 353 2609 779 3096 
Q 1206 3584 1959 3584 
z
" id="DejaVuSans-6f" transform="scale(0.015625)"/>
       <path d="M 603 4863 
L 1178 4863 
L 1178 0 
L 603 0 
L 603 4863 
z
" id="DejaVuSans-6c" transform="scale(0.015625)"/>
       <path d="M 603 3500 
L 1178 3500 
L 1178 0 
L 603 0 
L 603 3500 
z
M 603 4863 
L 1178 4863 
L 1178 4134 
L 603 4134 
L 603 4863 
z
" id="DejaVuSans-69" transform="scale(0.015625)"/>
       <path d="M 2906 1791 
Q 2906 2416 2648 2759 
Q 2391 3103 1925 3103 
Q 1463 3103 1205 2759 
Q 947 2416 947 1791 
Q 947 1169 1205 825 
Q 1463 481 1925 481 
Q 2391 481 2648 825 
Q 2906 1169 2906 1791 
z
M 3481 434 
Q 3481 -459 3084 -895 
Q 2688 -1331 1869 -1331 
Q 1566 -1331 1297 -1286 
Q 1028 -1241 775 -1147 
L 775 -588 
Q 1028 -725 1275 -790 
Q 1522 -856 1778 -856 
Q 2344 -856 2625 -561 
Q 2906 -266 2906 331 
L 2906 616 
Q 2728 306 2450 153 
Q 2172 0 1784 0 
Q 1141 0 747 490 
Q 353 981 353 1791 
Q 353 2603 747 3093 
Q 1141 3584 1784 3584 
Q 2172 3584 2450 3431 
Q 2728 3278 2906 2969 
L 2906 3500 
L 3481 3500 
L 3481 434 
z
" id="DejaVuSans-67" transform="scale(0.015625)"/>
       <path d="M 191 3500 
L 800 3500 
L 1894 563 
L 2988 3500 
L 3597 3500 
L 2284 0 
L 1503 0 
L 191 3500 
z
" id="DejaVuSans-76" transform="scale(0.015625)"/>
       <path d="M 513 4856 
L 1013 4856 
Q 1481 4119 1714 3412 
Q 1947 2706 1947 2009 
Q 1947 1309 1714 600 
Q 1481 -109 1013 -844 
L 513 -844 
Q 928 -128 1133 580 
Q 1338 1288 1338 2009 
Q 1338 2731 1133 3434 
Q 928 4138 513 4856 
z
" id="DejaVuSans-29" transform="scale(0.015625)"/>
      </defs>
      <use xlink:href="#DejaVuSans-46"/>
      <use x="50.269531" xlink:href="#DejaVuSans-72"/>
      <use x="89.132812" xlink:href="#DejaVuSans-65"/>
      <use x="150.65625" xlink:href="#DejaVuSans-71"/>
      <use x="214.132812" xlink:href="#DejaVuSans-75"/>
      <use x="277.511719" xlink:href="#DejaVuSans-65"/>
      <use x="339.035156" xlink:href="#DejaVuSans-6e"/>
      <use x="402.414062" xlink:href="#DejaVuSans-63"/>
      <use x="457.394531" xlink:href="#DejaVuSans-79"/>
      <use x="516.574219" xlink:href="#DejaVuSans-20"/>
      <use x="548.361328" xlink:href="#DejaVuSans-28"/>
      <use x="587.375" xlink:href="#DejaVuSans-37"/>
      <use x="650.998047" xlink:href="#DejaVuSans-20"/>
      <use x="682.785156" xlink:href="#DejaVuSans-64"/>
      <use x="746.261719" xlink:href="#DejaVuSans-61"/>
      <use x="807.541016" xlink:href="#DejaVuSans-79"/>
      <use x="866.720703" xlink:href="#DejaVuSans-20"/>
      <use x="898.507812" xlink:href="#DejaVuSans-72"/>
      <use x="937.371094" xlink:href="#DejaVuSans-6f"/>
      <use x="998.552734" xlink:href="#DejaVuSans-6c"/>
      <use x="1026.335938" xlink:href="#DejaVuSans-6c"/>
      <use x="1054.119141" xlink:href="#DejaVuSans-69"/>
      <use x="1081.902344" xlink:href="#DejaVuSans-6e"/>
      <use x="1145.28125" xlink:href="#DejaVuSans-67"/>
      <use x="1208.757812" xlink:href="#DejaVuSans-20"/>
      <use x="1240.544922" xlink:href="#DejaVuSans-61"/>
      <use x="1301.824219" xlink:href="#DejaVuSans-76"/>
      <use x="1361.003906" xlink:href="#DejaVuSans-65"/>
      <use x="1422.527344" xlink:href="#DejaVuSans-72"/>
      <use x="1463.640625" xlink:href="#DejaVuSans-61"/>
      <use x="1524.919922" xlink:href="#DejaVuSans-67"/>
      <use x="1588.396484" xlink:href="#DejaVuSans-65"/>
      <use x="1649.919922" xlink:href="#DejaVuSans-29"/>
     </g>
    </g>
   </g>
   <g id="line2d_14">
    <path clip-path="url(#p4753eb57fe)" d="M 156.681225 227.862939 
L 159.507257 228.96 
L 266.896469 228.896201 
L 269.722501 228.73321 
L 297.98282 228.96 
L 317.765043 228.697009 
L 323.417107 228.805053 
L 331.895203 228.96 
L 343.199331 228.927088 
L 365.807586 228.931362 
L 371.45965 228.736752 
L 391.241873 228.242165 
L 394.067905 228.369739 
L 399.719969 228.355994 
L 402.546001 228.587266 
L 405.372032 228.210013 
L 413.850128 227.635898 
L 419.502192 226.822352 
L 427.980288 226.428348 
L 430.80632 226.591278 
L 433.632352 226.919226 
L 439.284415 226.596112 
L 442.110447 226.748459 
L 450.588543 226.360724 
L 456.240607 226.50764 
L 459.066639 226.179515 
L 461.892671 226.338332 
L 467.544734 225.969254 
L 470.370766 225.576501 
L 473.196798 225.749292 
L 476.02283 224.819394 
L 481.674894 224.19792 
L 484.500926 223.091242 
L 487.326958 222.43872 
L 490.15299 222.446859 
L 492.979022 221.969732 
L 495.805053 221.245005 
L 498.631085 221.476758 
L 501.457117 220.850394 
L 504.283149 220.43959 
L 507.109181 220.451556 
L 509.935213 219.871225 
L 512.761245 219.771133 
L 515.587277 219.541968 
L 521.239341 217.578438 
L 524.065373 217.506773 
L 526.891404 216.065163 
L 529.717436 215.307755 
L 532.543468 214.823534 
L 535.3695 213.761801 
L 538.195532 212.92377 
L 541.021564 211.685304 
L 543.847596 209.726592 
L 546.673628 207.90334 
L 549.49966 206.783451 
L 552.325692 204.681465 
L 555.151724 204.599599 
L 557.977755 204.817654 
L 560.803787 203.781244 
L 563.629819 203.199753 
L 566.455851 200.72514 
L 569.281883 198.581494 
L 572.107915 194.747992 
L 574.933947 193.004673 
L 577.759979 189.939798 
L 580.586011 188.393696 
L 583.412043 184.85477 
L 586.238075 182.712582 
L 589.064106 181.59131 
L 591.890138 181.454781 
L 594.71617 181.507855 
L 597.542202 181.770651 
L 600.368234 180.642984 
L 603.194266 178.38192 
L 606.020298 173.323206 
L 608.84633 169.282754 
L 611.672362 166.881152 
L 614.498394 165.617151 
L 617.324425 163.021328 
L 620.150457 162.798286 
L 622.976489 161.361398 
L 625.802521 157.172812 
L 628.628553 154.891317 
L 631.454585 152.435018 
L 634.280617 150.374394 
L 637.106649 147.729143 
L 639.932681 146.589081 
L 642.758713 144.686918 
L 645.584745 143.368136 
L 648.410776 141.401178 
L 654.06284 136.355354 
L 656.888872 134.570468 
L 659.714904 133.019433 
L 662.540936 130.820547 
L 665.366968 128.839365 
L 668.193 129.009725 
L 673.845064 123.613889 
L 676.671096 121.357873 
L 679.497127 121.846573 
L 682.323159 120.610621 
L 685.149191 119.512705 
L 687.975223 118.913602 
L 690.801255 117.483326 
L 693.627287 115.521899 
L 696.453319 112.704949 
L 699.279351 111.270547 
L 702.105383 110.039409 
L 704.931415 109.639061 
L 710.583478 108.587795 
L 713.40951 108.628988 
L 716.235542 107.375995 
L 719.061574 106.950746 
L 721.887606 107.198199 
L 724.713638 107.333089 
L 727.53967 106.875067 
L 730.365702 105.712894 
L 733.191734 105.16101 
L 736.017766 103.293951 
L 738.843797 102.344477 
L 741.669829 101.817888 
L 744.495861 100.824428 
L 747.321893 100.270077 
L 750.147925 99.83453 
L 752.973957 98.935414 
L 755.799989 98.400477 
L 758.626021 99.167872 
L 761.452053 99.232059 
L 764.278085 98.403717 
L 767.104117 98.481425 
L 769.930148 97.852224 
L 772.75618 97.863366 
L 775.582212 97.411105 
L 778.408244 97.447831 
L 781.234276 97.366247 
L 784.060308 96.970617 
L 786.88634 97.060725 
L 789.712372 96.611652 
L 792.538404 97.603618 
L 795.364436 97.993894 
L 798.190468 98.963262 
L 801.016499 99.581164 
L 803.842531 100.590819 
L 809.494595 101.672195 
L 812.320627 101.492947 
L 815.146659 101.77411 
L 817.972691 103.800798 
L 820.798723 105.225814 
L 823.624755 107.573619 
L 826.450787 108.739124 
L 829.276818 108.730697 
L 832.10285 108.387332 
L 837.754914 109.842491 
L 840.580946 111.256175 
L 843.406978 114.755302 
L 846.23301 119.051179 
L 849.059042 120.998353 
L 851.885074 123.211214 
L 854.711106 127.137365 
L 857.537138 129.44326 
L 860.363169 128.614238 
L 863.189201 130.478247 
L 871.667297 135.486119 
L 874.493329 136.838048 
L 877.319361 136.806915 
L 882.971425 140.706839 
L 885.797457 143.429503 
L 888.623489 146.417989 
L 891.44952 150.678209 
L 894.275552 152.28645 
L 897.101584 152.442416 
L 899.927616 155.015863 
L 902.753648 158.91384 
L 905.57968 162.187524 
L 908.405712 165.239175 
L 914.057776 172.360365 
L 916.883808 176.147739 
L 919.70984 180.383801 
L 922.535871 184.375442 
L 925.361903 189.930813 
L 928.187935 192.845503 
L 931.013967 195.553649 
L 933.839999 197.637997 
L 936.666031 199.536884 
L 939.492063 202.342093 
L 942.318095 203.838239 
L 945.144127 205.200697 
L 947.970159 207.631915 
L 950.79619 210.387953 
L 953.622222 211.336013 
L 956.448254 212.772595 
L 959.274286 214.486835 
L 962.100318 214.909664 
L 964.92635 215.588029 
L 967.752382 216.724243 
L 970.578414 218.09195 
L 973.404446 219.002496 
L 979.05651 221.694685 
L 981.882541 222.410704 
L 984.708573 222.885015 
L 990.360637 224.162806 
L 996.012701 224.868551 
L 1001.664765 225.935761 
L 1004.490797 225.998009 
L 1010.142861 226.312791 
L 1015.794924 226.440482 
L 1024.27302 227.170315 
L 1029.925084 227.531631 
L 1052.533339 228.401022 
L 1080.793658 228.572713 
L 1092.097786 228.624213 
L 1094.923818 228.706898 
L 1094.923818 228.706898 
" style="fill:none;stroke:#947383;stroke-linecap:square;stroke-width:2;"/>
   </g>
   <g id="line2d_15">
    <path clip-path="url(#p4753eb57fe)" d="M 94.508523 227.787798 
L 97.334555 228.96 
L 151.029161 228.96 
L 153.855193 226.820732 
L 165.15932 226.820732 
L 167.985352 228.96 
L 179.28948 228.96 
L 182.115512 227.737561 
L 184.941544 226.86439 
L 193.419639 226.86439 
L 196.245671 228.086829 
L 207.549799 228.121071 
L 232.984086 228.152729 
L 235.810118 227.774098 
L 238.63615 227.774098 
L 241.462182 228.581368 
L 247.114246 228.581368 
L 249.940278 228.96 
L 252.76631 228.96 
L 255.592341 228.009214 
L 258.418373 227.593822 
L 261.244405 227.593822 
L 264.070437 225.216858 
L 266.896469 225.216858 
L 269.722501 219.03675 
L 275.374565 219.040991 
L 278.200597 221.417956 
L 281.026629 221.128865 
L 283.85266 227.947457 
L 286.678692 228.358608 
L 295.156788 228.406106 
L 297.98282 228.718408 
L 300.808852 228.159122 
L 306.460916 228.200783 
L 309.286948 228.400714 
L 312.11298 228.33017 
L 314.939011 228.455086 
L 317.765043 227.945737 
L 326.243139 228.016281 
L 329.069171 228.145041 
L 331.895203 228.442647 
L 334.721235 228.306388 
L 337.547267 227.975573 
L 346.025362 228.002115 
L 351.677426 228.303568 
L 354.503458 228.173916 
L 357.32949 228.182989 
L 360.155522 227.118465 
L 362.981554 226.850498 
L 365.807586 226.359901 
L 368.633618 225.291564 
L 371.45965 225.17051 
L 374.285682 225.667251 
L 377.111713 225.268779 
L 382.763777 224.927733 
L 385.589809 223.695863 
L 388.415841 221.378975 
L 391.241873 220.652402 
L 394.067905 217.79314 
L 396.893937 216.102985 
L 399.719969 214.986118 
L 402.546001 215.851235 
L 405.372032 213.54476 
L 408.198064 214.362096 
L 411.024096 215.625697 
L 413.850128 212.634358 
L 416.67616 209.098686 
L 419.502192 206.508491 
L 422.328224 205.002017 
L 425.154256 201.341263 
L 427.980288 200.941717 
L 430.80632 204.104965 
L 433.632352 202.531172 
L 436.458383 199.025164 
L 439.284415 193.016819 
L 442.110447 189.834805 
L 444.936479 184.403091 
L 447.762511 180.981151 
L 450.588543 184.49437 
L 453.414575 188.423963 
L 456.240607 188.986132 
L 459.066639 188.904 
L 461.892671 190.963821 
L 464.718703 184.589806 
L 467.544734 181.663957 
L 470.370766 183.944389 
L 473.196798 181.756007 
L 476.02283 181.232186 
L 478.848862 182.412135 
L 481.674894 181.843505 
L 484.500926 176.666051 
L 487.326958 174.307142 
L 490.15299 174.853438 
L 492.979022 173.24572 
L 495.805053 172.862205 
L 498.631085 173.130089 
L 501.457117 172.840837 
L 504.283149 167.651446 
L 507.109181 162.739519 
L 509.935213 160.538788 
L 512.761245 155.657384 
L 515.587277 149.667196 
L 518.413309 146.907477 
L 521.239341 145.233299 
L 524.065373 141.349994 
L 526.891404 135.16048 
L 529.717436 133.597474 
L 532.543468 130.591684 
L 535.3695 129.141429 
L 538.195532 125.35878 
L 541.021564 126.127652 
L 543.847596 125.437597 
L 546.673628 123.568405 
L 549.49966 117.936808 
L 552.325692 117.599195 
L 555.151724 116.632745 
L 557.977755 114.417291 
L 560.803787 114.237566 
L 563.629819 117.623656 
L 566.455851 113.164304 
L 569.281883 108.410816 
L 572.107915 106.705409 
L 574.933947 101.333941 
L 577.759979 97.303957 
L 580.586011 95.755429 
L 583.412043 96.853556 
L 586.238075 91.550904 
L 589.064106 87.705671 
L 594.71617 81.292676 
L 597.542202 77.00748 
L 600.368234 77.296803 
L 603.194266 75.931474 
L 606.020298 72.530968 
L 608.84633 68.615629 
L 611.672362 66.26606 
L 614.498394 62.534237 
L 620.150457 59.863328 
L 622.976489 60.686496 
L 625.802521 60.252381 
L 628.628553 58.985141 
L 631.454585 59.592982 
L 634.280617 58.604111 
L 637.106649 58.515684 
L 639.932681 57.668723 
L 642.758713 58.590098 
L 645.584745 57.668178 
L 648.410776 54.558683 
L 651.236808 52.449926 
L 654.06284 50.984566 
L 656.888872 48.462625 
L 659.714904 45.711661 
L 662.540936 47.271328 
L 665.366968 47.683537 
L 668.193 45.978605 
L 671.019032 46.883325 
L 673.845064 47.508415 
L 679.497127 45.960214 
L 682.323159 47.725277 
L 685.149191 48.433997 
L 687.975223 46.416772 
L 690.801255 46.327108 
L 693.627287 45.697133 
L 696.453319 43.042148 
L 699.279351 40.697245 
L 702.105383 41.555504 
L 704.931415 41.439113 
L 707.757447 40.220312 
L 710.583478 40.783221 
L 716.235542 40.667557 
L 719.061574 39.386954 
L 721.887606 39.633078 
L 724.713638 38.848035 
L 727.53967 37.568852 
L 730.365702 38.354709 
L 738.843797 39.363208 
L 741.669829 40.107028 
L 744.495861 41.279052 
L 747.321893 40.409264 
L 750.147925 40.50607 
L 752.973957 41.554646 
L 755.799989 41.345157 
L 758.626021 38.137311 
L 764.278085 40.323366 
L 767.104117 38.057469 
L 769.930148 38.468745 
L 772.75618 39.834107 
L 775.582212 39.578567 
L 778.408244 38.111888 
L 781.234276 40.466113 
L 784.060308 41.068223 
L 786.88634 39.417973 
L 789.712372 39.889817 
L 792.538404 41.271636 
L 795.364436 41.721512 
L 798.190468 41.9778 
L 803.842531 44.44864 
L 806.668563 41.629084 
L 809.494595 42.282579 
L 812.320627 43.084324 
L 815.146659 44.804815 
L 817.972691 45.112126 
L 820.798723 47.6932 
L 823.624755 47.929245 
L 826.450787 44.426129 
L 829.276818 44.315012 
L 832.10285 44.049627 
L 834.928882 46.125686 
L 837.754914 46.556225 
L 840.580946 50.352301 
L 843.406978 53.904565 
L 846.23301 51.80156 
L 849.059042 52.380227 
L 851.885074 53.663819 
L 854.711106 58.016235 
L 857.537138 60.451785 
L 860.363169 65.942135 
L 863.189201 72.959093 
L 866.015233 71.2499 
L 868.841265 72.519068 
L 871.667297 73.938294 
L 874.493329 78.991825 
L 877.319361 78.610691 
L 880.145393 92.489323 
L 882.971425 100.922997 
L 885.797457 101.320536 
L 888.623489 104.685448 
L 891.44952 108.884232 
L 894.275552 107.380069 
L 897.101584 105.742319 
L 899.927616 113.592201 
L 902.753648 119.252576 
L 905.57968 121.980435 
L 908.405712 125.626713 
L 911.231744 130.385945 
L 914.057776 133.254609 
L 916.883808 135.903217 
L 919.70984 144.445933 
L 922.535871 150.216224 
L 931.013967 169.979407 
L 933.839999 171.802477 
L 939.492063 180.027938 
L 942.318095 183.230297 
L 945.144127 185.264871 
L 947.970159 189.047237 
L 950.79619 191.944457 
L 953.622222 194.371285 
L 956.448254 197.353544 
L 962.100318 205.762771 
L 964.92635 209.400719 
L 967.752382 212.068641 
L 970.578414 214.953515 
L 973.404446 216.199933 
L 976.230478 216.854709 
L 981.882541 219.764593 
L 987.534605 221.089644 
L 993.186669 222.420597 
L 996.012701 222.949916 
L 1001.664765 224.133935 
L 1007.316829 224.662356 
L 1010.142861 225.150128 
L 1012.968892 225.173292 
L 1015.794924 225.521824 
L 1018.620956 225.642114 
L 1021.446988 225.877521 
L 1024.27302 225.925764 
L 1032.751116 226.783054 
L 1035.577148 226.921229 
L 1038.40318 227.220096 
L 1069.489531 228.567481 
L 1072.315562 228.623565 
L 1075.141594 228.410864 
L 1080.793658 228.488925 
L 1083.61969 228.575352 
L 1086.445722 228.540593 
L 1089.271754 228.748691 
L 1092.097786 228.772683 
L 1094.923818 228.600854 
L 1100.575882 228.655347 
L 1106.227945 228.627349 
L 1109.053977 227.780479 
L 1109.053977 227.780479 
" style="fill:none;stroke:#96c6ad;stroke-linecap:square;stroke-width:2;"/>
   </g>
   <g id="line2d_16">
    <path clip-path="url(#p4753eb57fe)" d="M 343.199331 220.402928 
L 346.025362 228.96 
L 354.503458 228.96 
L 357.32949 207.567319 
L 360.155522 207.567319 
L 362.981554 186.174638 
L 368.633618 186.174638 
L 371.45965 207.567319 
L 374.285682 207.567319 
L 377.111713 226.820732 
L 382.763777 226.820732 
L 385.589809 218.26366 
L 388.415841 212.558945 
L 391.241873 214.698213 
L 394.067905 214.698213 
L 396.893937 197.584068 
L 399.719969 206.14114 
L 402.546001 207.567319 
L 405.372032 197.693774 
L 408.198064 193.415238 
L 411.024096 208.491985 
L 413.850128 208.491985 
L 416.67616 209.918163 
L 419.502192 216.735611 
L 425.154256 196.565369 
L 427.980288 196.565369 
L 430.80632 199.417727 
L 433.632352 188.212037 
L 436.458383 188.962657 
L 439.284415 190.490706 
L 442.110447 171.474989 
L 444.936479 158.310263 
L 447.762511 166.459855 
L 450.588543 163.926512 
L 453.414575 169.274682 
L 456.240607 172.245887 
L 459.066639 166.394898 
L 461.892671 161.810752 
L 464.718703 142.200794 
L 467.544734 138.991892 
L 470.370766 137.209169 
L 473.196798 145.528545 
L 476.02283 121.996596 
L 478.848862 133.202286 
L 481.674894 122.012268 
L 484.500926 103.166335 
L 487.326958 96.748531 
L 490.15299 109.584139 
L 492.979022 125.475845 
L 495.805053 119.551718 
L 498.631085 144.000496 
L 501.457117 118.329279 
L 504.283149 96.936598 
L 507.109181 91.231884 
L 509.935213 95.51042 
L 512.761245 93.473022 
L 515.587277 102.98088 
L 518.413309 145.766241 
L 521.239341 142.913884 
L 524.065373 164.306565 
L 526.891404 172.456157 
L 529.717436 180.062444 
L 532.543468 137.277082 
L 535.3695 154.391227 
L 538.195532 117.71806 
L 541.021564 97.089403 
L 543.847596 79.975259 
L 546.673628 101.367939 
L 549.49966 58.582578 
L 552.325692 73.863064 
L 555.151724 79.211234 
L 557.977755 79.211234 
L 560.803787 74.932698 
L 563.629819 103.456273 
L 566.455851 96.325379 
L 569.281883 109.160987 
L 572.107915 123.422775 
L 574.933947 136.869603 
L 577.759979 129.738709 
L 580.586011 115.476922 
L 583.412043 93.473022 
L 586.238075 114.865702 
L 589.064106 105.697411 
L 591.890138 105.697411 
L 594.71617 127.090091 
L 597.542202 127.090091 
L 600.368234 91.435623 
L 603.194266 100.603915 
L 606.020298 96.325379 
L 608.84633 94.38059 
L 611.672362 111.430396 
L 614.498394 111.430396 
L 617.324425 102.262104 
L 620.150457 102.262104 
L 622.976489 96.184638 
L 625.802521 79.134832 
L 628.628553 102.472302 
L 631.454585 111.640594 
L 634.280617 132.557882 
L 637.106649 138.934546 
L 639.932681 155.233731 
L 642.758713 158.637112 
L 645.584745 138.77248 
L 648.410776 115.002835 
L 651.236808 116.648426 
L 654.06284 109.517532 
L 656.888872 99.890826 
L 659.714904 121.283507 
L 662.540936 128.4144 
L 665.366968 107.021719 
L 668.193 99.890826 
L 671.019032 106.546326 
L 673.845064 88.719092 
L 676.671096 83.370922 
L 679.497127 92.87878 
L 682.323159 95.072902 
L 685.149191 103.392277 
L 687.975223 105.586398 
L 690.801255 105.586398 
L 693.627287 122.819391 
L 696.453319 133.104334 
L 699.279351 126.68653 
L 702.105383 128.057856 
L 704.931415 126.275132 
L 707.757447 116.648426 
L 710.583478 110.281556 
L 713.40951 84.610339 
L 716.235542 96.198042 
L 719.061574 97.216741 
L 721.887606 97.605699 
L 724.713638 108.348343 
L 727.53967 142.576633 
L 730.365702 137.297029 
L 733.191734 152.217974 
L 736.017766 157.753143 
L 738.843797 152.307734 
L 741.669829 135.193589 
L 744.495861 137.799108 
L 747.321893 128.990357 
L 750.147925 135.123923 
L 752.973957 146.125873 
L 755.799989 154.682945 
L 758.626021 140.777703 
L 761.452053 151.474043 
L 764.278085 140.638789 
L 767.104117 127.003894 
L 769.930148 122.725358 
L 772.75618 133.227219 
L 775.582212 126.809415 
L 778.408244 139.589458 
L 781.234276 137.943867 
L 784.060308 159.336548 
L 786.88634 159.768723 
L 789.712372 134.097506 
L 792.538404 145.766241 
L 795.364436 132.152717 
L 798.190468 108.383072 
L 801.016499 127.398788 
L 803.842531 170.18415 
L 806.668563 170.18415 
L 809.494595 179.519138 
L 812.320627 192.592443 
L 817.972691 164.068868 
L 820.798723 142.676187 
L 823.624755 156.123015 
L 826.450787 166.819356 
L 829.276818 181.081143 
L 832.10285 183.674195 
L 834.928882 205.066876 
L 837.754914 210.160371 
L 840.580946 195.898584 
L 843.406978 195.898584 
L 846.23301 201.455125 
L 849.059042 175.783908 
L 851.885074 171.246066 
L 854.711106 171.246066 
L 857.537138 162.688994 
L 860.363169 154.539401 
L 863.189201 174.098424 
L 866.015233 176.598867 
L 868.841265 172.524071 
L 871.667297 173.950249 
L 874.493329 173.950249 
L 877.319361 172.93155 
L 880.145393 174.968948 
L 882.971425 193.305532 
L 885.797457 189.740085 
L 888.623489 196.870979 
L 891.44952 197.889678 
L 894.275552 205.020571 
L 897.101584 197.889678 
L 899.927616 205.529921 
L 902.753648 203.152956 
L 905.57968 197.380328 
L 908.405712 194.527971 
L 911.231744 197.584068 
L 914.057776 197.689451 
L 916.883808 205.058041 
L 919.70984 212.053108 
L 922.535871 213.259875 
L 925.361903 214.889793 
L 928.187935 214.889793 
L 931.013967 217.029061 
L 933.839999 218.627635 
L 936.666031 214.371797 
L 939.492063 211.973049 
L 942.318095 207.373405 
L 945.144127 206.115012 
L 947.970159 206.421169 
L 950.79619 208.757151 
L 953.622222 213.600777 
L 956.448254 220.565034 
L 959.274286 219.591147 
L 962.100318 222.19416 
L 964.92635 222.336778 
L 967.752382 221.472428 
L 970.578414 222.058528 
L 973.404446 224.290808 
L 976.230478 224.67282 
L 979.05651 228.095649 
L 981.882541 228.96 
L 984.708573 228.438227 
L 996.012701 228.438227 
L 998.838733 228.658695 
L 1001.664765 228.658695 
L 1004.490797 228.346393 
L 1010.142861 228.346393 
L 1012.968892 228.647698 
L 1027.099052 228.723617 
L 1029.925084 228.507529 
L 1032.751116 228.743912 
L 1041.229212 228.743912 
L 1044.055243 228.96 
L 1052.533339 228.96 
L 1055.359371 228.711248 
L 1055.359371 228.711248 
" style="fill:none;stroke:#525886;stroke-linecap:square;stroke-width:2;"/>
   </g>
   <g id="line2d_17">
    <path clip-path="url(#p4753eb57fe)" d="M 329.069171 207.567319 
L 331.895203 228.96 
L 357.32949 228.96 
L 360.155522 214.698213 
L 362.981554 204.001872 
L 371.45965 204.001872 
L 374.285682 218.26366 
L 377.111713 228.96 
L 388.415841 228.96 
L 391.241873 211.845855 
L 394.067905 211.845855 
L 396.893937 207.567319 
L 402.546001 207.567319 
L 405.372032 224.681464 
L 408.198064 219.333294 
L 411.024096 204.596114 
L 413.850128 195.427822 
L 416.67616 190.079652 
L 419.502192 190.079652 
L 422.328224 178.313677 
L 425.154256 186.633053 
L 427.980288 184.542039 
L 430.80632 177.054601 
L 433.632352 164.830212 
L 436.458383 174.264933 
L 439.284415 169.171437 
L 442.110447 167.931648 
L 444.936479 172.015706 
L 447.762511 175.011879 
L 450.588543 176.579109 
L 453.414575 187.525319 
L 456.240607 192.719595 
L 459.066639 198.383543 
L 461.892671 194.917201 
L 464.718703 192.177251 
L 467.544734 197.020877 
L 470.370766 199.999085 
L 473.196798 201.068511 
L 476.02283 212.622126 
L 478.848862 221.47427 
L 481.674894 220.071471 
L 484.500926 222.615357 
L 487.326958 221.95945 
L 490.15299 222.312932 
L 492.979022 220.559434 
L 495.805053 219.603984 
L 498.631085 215.652587 
L 501.457117 215.895686 
L 504.283149 215.037555 
L 507.109181 206.418845 
L 509.935213 204.765966 
L 512.761245 205.07659 
L 515.587277 202.398876 
L 518.413309 196.067535 
L 521.239341 201.356335 
L 524.065373 203.721872 
L 526.891404 209.145368 
L 529.717436 209.440715 
L 532.543468 204.419562 
L 535.3695 203.956721 
L 538.195532 201.323776 
L 541.021564 190.791994 
L 543.847596 194.535713 
L 546.673628 207.533798 
L 549.49966 199.425146 
L 552.325692 201.585595 
L 555.151724 208.262839 
L 557.977755 206.232085 
L 560.803787 194.668473 
L 563.629819 206.421804 
L 566.455851 204.036169 
L 569.281883 204.888225 
L 572.107915 207.250935 
L 574.933947 208.831295 
L 577.759979 201.431701 
L 583.412043 178.469541 
L 586.238075 160.191504 
L 589.064106 159.727166 
L 591.890138 157.866933 
L 594.71617 163.921051 
L 597.542202 164.63414 
L 600.368234 168.839539 
L 603.194266 168.590787 
L 606.020298 172.264747 
L 608.84633 174.535692 
L 611.672362 172.321362 
L 614.498394 178.295572 
L 617.324425 181.110398 
L 620.150457 176.255906 
L 622.976489 175.909465 
L 625.802521 177.410706 
L 628.628553 172.968598 
L 631.454585 174.177165 
L 634.280617 169.75186 
L 637.106649 162.04017 
L 639.932681 162.350209 
L 642.758713 162.257999 
L 645.584745 154.669158 
L 648.410776 162.755307 
L 651.236808 165.396798 
L 654.06284 167.239482 
L 656.888872 164.763477 
L 659.714904 167.280263 
L 662.540936 170.331698 
L 665.366968 163.765219 
L 668.193 169.972854 
L 671.019032 178.139861 
L 673.845064 177.7517 
L 676.671096 163.538866 
L 679.497127 173.529953 
L 682.323159 165.629653 
L 685.149191 167.527271 
L 687.975223 171.103361 
L 690.801255 177.304138 
L 693.627287 180.651102 
L 696.453319 186.846545 
L 699.279351 181.438333 
L 702.105383 186.939308 
L 704.931415 187.507713 
L 707.757447 183.682996 
L 710.583478 186.863211 
L 713.40951 187.575181 
L 716.235542 176.369491 
L 719.061574 178.47219 
L 721.887606 181.446701 
L 724.713638 182.449944 
L 727.53967 182.741001 
L 730.365702 191.078661 
L 733.191734 197.545544 
L 736.017766 199.947289 
L 738.843797 198.131094 
L 741.669829 197.945876 
L 744.495861 202.158588 
L 747.321893 199.043 
L 750.147925 199.433896 
L 752.973957 194.985668 
L 755.799989 200.382835 
L 758.626021 195.854718 
L 761.452053 199.806712 
L 764.278085 203.113683 
L 767.104117 208.297212 
L 769.930148 207.856386 
L 772.75618 209.341988 
L 775.582212 207.346537 
L 778.408244 205.567614 
L 781.234276 206.40402 
L 784.060308 198.373061 
L 786.88634 195.620786 
L 789.712372 197.005018 
L 792.538404 196.537615 
L 795.364436 189.234326 
L 798.190468 197.744382 
L 801.016499 201.685139 
L 803.842531 205.963675 
L 806.668563 205.433825 
L 809.494595 208.254838 
L 812.320627 210.135513 
L 815.146659 209.093306 
L 817.972691 196.614242 
L 820.798723 196.389056 
L 823.624755 204.538648 
L 826.450787 204.385844 
L 829.276818 206.513187 
L 832.10285 211.4013 
L 834.928882 212.450752 
L 837.754914 206.691184 
L 840.580946 208.830452 
L 843.406978 207.170244 
L 846.23301 211.729162 
L 849.059042 212.706385 
L 851.885074 212.048148 
L 854.711106 209.924845 
L 857.537138 210.245242 
L 860.363169 211.469443 
L 863.189201 212.943389 
L 866.015233 214.962698 
L 868.841265 215.956388 
L 871.667297 218.087614 
L 874.493329 218.53718 
L 877.319361 214.647602 
L 880.145393 214.971301 
L 882.971425 213.030029 
L 885.797457 212.341961 
L 888.623489 210.4319 
L 891.44952 212.079251 
L 894.275552 213.317449 
L 897.101584 215.099719 
L 899.927616 215.389593 
L 902.753648 214.621564 
L 905.57968 216.113659 
L 908.405712 218.733073 
L 911.231744 220.010883 
L 914.057776 221.452968 
L 916.883808 224.682052 
L 919.70984 223.117183 
L 922.535871 222.655235 
L 925.361903 223.278076 
L 928.187935 222.293163 
L 931.013967 223.100434 
L 933.839999 224.95678 
L 936.666031 224.977677 
L 939.492063 225.435274 
L 942.318095 226.61482 
L 945.144127 226.61482 
L 947.970159 227.433973 
L 950.79619 227.821416 
L 953.622222 227.547151 
L 956.448254 227.738218 
L 959.274286 227.738218 
L 962.100318 228.155636 
L 970.578414 228.96 
L 981.882541 228.96 
L 984.708573 228.733622 
L 987.534605 227.677194 
L 990.360637 226.471972 
L 996.012701 226.471972 
L 998.838733 226.69835 
L 1001.664765 227.754779 
L 1004.490797 228.96 
L 1010.142861 228.96 
L 1012.968892 228.556365 
L 1012.968892 228.556365 
" style="fill:none;stroke:#937252;stroke-linecap:square;stroke-width:2;"/>
   </g>
   <g id="line2d_18">
    <path clip-path="url(#p4753eb57fe)" d="M 402.546001 226.115479 
L 405.372032 227.431951 
L 408.198064 227.099767 
L 411.024096 227.099767 
L 413.850128 226.349147 
L 416.67616 223.057965 
L 419.502192 219.282786 
L 422.328224 221.143019 
L 425.154256 220.212902 
L 427.980288 219.666997 
L 430.80632 221.563004 
L 433.632352 224.437438 
L 436.458383 220.229042 
L 439.284415 219.649087 
L 442.110447 218.428827 
L 444.936479 218.07766 
L 447.762511 218.978405 
L 450.588543 221.964362 
L 453.414575 219.671291 
L 456.240607 221.49799 
L 459.066639 221.206933 
L 461.892671 219.472392 
L 464.718703 220.69483 
L 467.544734 223.733949 
L 470.370766 224.094918 
L 476.02283 225.093938 
L 478.848862 221.99355 
L 481.674894 220.347131 
L 484.500926 219.519888 
L 487.326958 221.034414 
L 490.15299 221.4371 
L 492.979022 224.118024 
L 495.805053 224.583678 
L 498.631085 224.591439 
L 501.457117 223.988828 
L 504.283149 224.844535 
L 507.109181 224.107639 
L 512.761245 225.409896 
L 515.587277 224.562155 
L 518.413309 223.303762 
L 521.239341 223.675071 
L 524.065373 225.020522 
L 526.891404 225.466203 
L 529.717436 224.384876 
L 532.543468 224.699475 
L 538.195532 223.794114 
L 541.021564 222.279588 
L 543.847596 224.811266 
L 549.49966 224.909886 
L 552.325692 221.569802 
L 555.151724 220.832467 
L 557.977755 215.331492 
L 560.803787 208.621366 
L 563.629819 208.20866 
L 566.455851 206.918807 
L 569.281883 206.748855 
L 572.107915 209.889258 
L 574.933947 216.22507 
L 577.759979 212.568951 
L 580.586011 214.705598 
L 583.412043 212.373481 
L 586.238075 208.832624 
L 589.064106 204.822104 
L 591.890138 207.506836 
L 594.71617 205.852127 
L 597.542202 208.195613 
L 600.368234 206.477732 
L 603.194266 207.388308 
L 606.020298 203.345518 
L 608.84633 202.388308 
L 611.672362 201.569667 
L 614.498394 203.013771 
L 617.324425 204.080281 
L 620.150457 208.926276 
L 622.976489 211.761036 
L 625.802521 210.887414 
L 628.628553 213.584136 
L 631.454585 211.573831 
L 634.280617 208.187853 
L 637.106649 204.622406 
L 639.932681 206.15799 
L 642.758713 203.52428 
L 645.584745 205.101537 
L 648.410776 205.805679 
L 651.236808 208.419333 
L 654.06284 208.813761 
L 656.888872 210.804429 
L 659.714904 212.48258 
L 662.540936 210.561265 
L 665.366968 212.836026 
L 668.193 207.368477 
L 671.019032 203.710846 
L 673.845064 202.578581 
L 676.671096 205.930033 
L 679.497127 203.002614 
L 682.323159 205.609285 
L 685.149191 209.840387 
L 687.975223 209.673422 
L 690.801255 207.667041 
L 693.627287 210.172703 
L 696.453319 213.380766 
L 699.279351 213.8636 
L 702.105383 208.485923 
L 704.931415 206.808364 
L 707.757447 204.951632 
L 710.583478 200.582627 
L 713.40951 200.315654 
L 716.235542 206.018273 
L 719.061574 208.064671 
L 721.887606 206.455253 
L 724.713638 208.777789 
L 727.53967 209.236338 
L 730.365702 207.812108 
L 733.191734 208.807206 
L 736.017766 211.219569 
L 738.843797 211.709306 
L 741.669829 210.013639 
L 744.495861 212.243139 
L 747.321893 213.315679 
L 750.147925 214.19201 
L 752.973957 215.54651 
L 755.799989 217.664576 
L 758.626021 217.114173 
L 761.452053 217.681102 
L 764.278085 217.964469 
L 767.104117 216.727933 
L 769.930148 217.561862 
L 772.75618 218.642846 
L 775.582212 217.216667 
L 778.408244 214.729711 
L 781.234276 215.761709 
L 784.060308 213.813578 
L 786.88634 214.025298 
L 789.712372 215.550379 
L 795.364436 217.641711 
L 798.190468 220.513341 
L 801.016499 219.180464 
L 803.842531 218.433685 
L 806.668563 220.230306 
L 809.494595 219.464604 
L 812.320627 217.394198 
L 815.146659 217.827595 
L 817.972691 219.002797 
L 820.798723 218.742896 
L 823.624755 219.10017 
L 826.450787 220.867065 
L 829.276818 219.357841 
L 834.928882 220.629507 
L 837.754914 220.791149 
L 840.580946 221.109344 
L 843.406978 223.452886 
L 846.23301 223.421271 
L 851.885074 224.260438 
L 854.711106 224.690818 
L 857.537138 225.540949 
L 860.363169 226.09519 
L 863.189201 224.602609 
L 866.015233 224.622803 
L 874.493329 223.17089 
L 877.319361 224.500761 
L 880.145393 223.944433 
L 882.971425 223.911214 
L 885.797457 224.58669 
L 891.44952 223.727691 
L 894.275552 223.58497 
L 897.101584 223.129958 
L 899.927616 222.450826 
L 902.753648 222.911269 
L 905.57968 223.014782 
L 908.405712 223.734683 
L 922.535871 226.179486 
L 925.361903 226.410758 
L 928.187935 226.955368 
L 931.013967 226.862446 
L 933.839999 227.144317 
L 936.666031 227.219985 
L 942.318095 225.794938 
L 945.144127 225.488174 
L 947.970159 225.618523 
L 950.79619 225.394312 
L 953.622222 226.33039 
L 956.448254 227.002336 
L 962.100318 226.46876 
L 973.404446 226.68552 
L 976.230478 226.031662 
L 979.05651 225.964589 
L 981.882541 224.699316 
L 987.534605 224.47919 
L 990.360637 225.428002 
L 993.186669 225.579101 
L 996.012701 226.525122 
L 998.838733 226.855511 
L 1001.664765 227.32656 
L 1004.490797 227.377582 
L 1007.316829 227.6501 
L 1010.142861 227.66541 
L 1012.968892 227.328517 
L 1015.794924 227.195702 
L 1018.620956 226.06795 
L 1021.446988 225.429363 
L 1024.27302 225.801092 
L 1027.099052 225.944385 
L 1029.925084 226.466158 
L 1032.751116 227.45017 
L 1035.577148 228.088758 
L 1041.229212 228.563839 
L 1044.055243 228.563839 
L 1046.881275 228.96 
L 1049.707307 228.792214 
L 1052.533339 228.792214 
L 1055.359371 227.552059 
L 1055.359371 227.552059 
" style="fill:none;stroke:#d18cad;stroke-linecap:square;stroke-width:2;"/>
   </g>
   <g id="line2d_19">
    <path clip-path="url(#p4753eb57fe)" d="M 247.114246 227.803639 
L 249.940278 228.96 
L 283.85266 228.96 
L 286.678692 225.394553 
L 289.504724 225.394553 
L 292.330756 222.877767 
L 297.98282 222.877767 
L 300.808852 226.443214 
L 303.634884 222.553636 
L 306.460916 225.070422 
L 312.11298 225.070422 
L 314.939011 224.450344 
L 317.765043 228.339922 
L 320.591075 228.339922 
L 323.417107 226.811874 
L 326.243139 226.061253 
L 329.069171 226.681331 
L 331.895203 226.681331 
L 334.721235 226.492015 
L 337.547267 228.020064 
L 340.373299 228.770684 
L 343.199331 228.571683 
L 346.025362 228.571683 
L 348.851394 228.760998 
L 351.677426 228.578933 
L 354.503458 228.23389 
L 357.32949 228.432891 
L 360.155522 228.28117 
L 362.981554 228.28117 
L 365.807586 228.463236 
L 371.45965 228.140089 
L 377.111713 227.863137 
L 379.937745 227.282997 
L 382.763777 227.497563 
L 385.589809 226.672789 
L 388.415841 225.251506 
L 394.067905 223.429855 
L 396.893937 222.777536 
L 399.719969 217.421166 
L 402.546001 217.091887 
L 405.372032 214.239529 
L 411.024096 210.022364 
L 413.850128 214.103059 
L 416.67616 215.02422 
L 419.502192 215.768519 
L 422.328224 215.55045 
L 425.154256 212.169068 
L 427.980288 204.111279 
L 430.80632 197.426831 
L 433.632352 194.668145 
L 436.458383 195.847195 
L 439.284415 196.425865 
L 442.110447 204.005572 
L 444.936479 210.51304 
L 447.762511 214.832102 
L 450.588543 210.039758 
L 453.414575 211.626414 
L 456.240607 212.08582 
L 459.066639 209.521044 
L 461.892671 208.044377 
L 464.718703 211.61746 
L 467.544734 209.775346 
L 470.370766 208.59537 
L 473.196798 205.357729 
L 476.02283 201.850064 
L 478.848862 195.789154 
L 481.674894 196.538134 
L 484.500926 197.067753 
L 487.326958 199.372193 
L 490.15299 201.948737 
L 492.979022 196.330014 
L 495.805053 189.637613 
L 498.631085 178.99509 
L 501.457117 173.720657 
L 504.283149 173.035446 
L 507.109181 171.374173 
L 509.935213 173.014709 
L 512.761245 165.588264 
L 515.587277 167.78628 
L 518.413309 164.409118 
L 521.239341 177.172042 
L 524.065373 183.854394 
L 526.891404 181.687769 
L 529.717436 180.713396 
L 532.543468 177.223657 
L 535.3695 170.965632 
L 538.195532 164.037229 
L 541.021564 176.873986 
L 543.847596 178.504208 
L 546.673628 175.271106 
L 549.49966 178.028958 
L 552.325692 178.092772 
L 555.151724 181.799046 
L 557.977755 179.884136 
L 560.803787 187.785769 
L 563.629819 181.797479 
L 566.455851 173.436449 
L 569.281883 164.626953 
L 572.107915 156.203974 
L 574.933947 150.985118 
L 577.759979 152.466897 
L 580.586011 167.491213 
L 583.412043 167.762387 
L 586.238075 156.64158 
L 589.064106 154.114582 
L 591.890138 145.075478 
L 594.71617 133.9818 
L 597.542202 135.960342 
L 600.368234 152.569829 
L 603.194266 155.015692 
L 606.020298 156.937166 
L 608.84633 163.893868 
L 611.672362 162.344917 
L 614.498394 162.006698 
L 617.324425 164.604686 
L 620.150457 170.559738 
L 622.976489 169.113825 
L 625.802521 162.763621 
L 628.628553 162.13512 
L 631.454585 153.401378 
L 634.280617 151.599338 
L 637.106649 147.689804 
L 639.932681 155.011124 
L 642.758713 154.709512 
L 645.584745 149.888387 
L 648.410776 151.761086 
L 651.236808 152.324077 
L 656.888872 146.26815 
L 659.714904 152.190775 
L 662.540936 144.411415 
L 665.366968 139.905879 
L 668.193 140.609946 
L 671.019032 146.899445 
L 673.845064 151.659194 
L 676.671096 153.999753 
L 679.497127 151.4963 
L 682.323159 151.621757 
L 685.149191 131.935025 
L 687.975223 127.950729 
L 690.801255 133.055181 
L 693.627287 135.222642 
L 696.453319 133.593314 
L 699.279351 148.459502 
L 702.105383 151.371772 
L 704.931415 148.808319 
L 707.757447 147.58588 
L 710.583478 147.423273 
L 713.40951 146.670492 
L 719.061574 138.937715 
L 721.887606 139.791268 
L 724.713638 139.980719 
L 727.53967 133.725559 
L 730.365702 128.543129 
L 733.191734 125.0922 
L 736.017766 117.921134 
L 738.843797 109.643223 
L 741.669829 107.148448 
L 744.495861 103.892702 
L 747.321893 101.388889 
L 750.147925 100.113007 
L 752.973957 101.192111 
L 755.799989 107.992634 
L 758.626021 105.814666 
L 761.452053 103.243463 
L 764.278085 107.184718 
L 767.104117 106.222509 
L 769.930148 100.706604 
L 772.75618 109.975539 
L 775.582212 109.352514 
L 778.408244 106.002438 
L 781.234276 104.167874 
L 784.060308 100.09799 
L 786.88634 90.224279 
L 789.712372 92.619078 
L 792.538404 90.721728 
L 795.364436 90.561935 
L 798.190468 92.270344 
L 801.016499 98.278481 
L 803.842531 101.545699 
L 806.668563 101.312865 
L 809.494595 104.132194 
L 812.320627 104.617322 
L 815.146659 102.696611 
L 817.972691 100.597697 
L 820.798723 104.689784 
L 823.624755 109.752209 
L 826.450787 109.947499 
L 829.276818 115.269747 
L 832.10285 116.636829 
L 834.928882 115.453585 
L 837.754914 112.351001 
L 840.580946 116.063842 
L 843.406978 115.284757 
L 846.23301 118.85191 
L 849.059042 124.143204 
L 851.885074 126.308874 
L 854.711106 130.135412 
L 857.537138 124.259308 
L 860.363169 127.11887 
L 863.189201 129.731987 
L 866.015233 123.098362 
L 868.841265 118.74333 
L 871.667297 119.283376 
L 874.493329 109.068829 
L 877.319361 100.319771 
L 880.145393 108.276319 
L 882.971425 118.434831 
L 885.797457 118.837497 
L 888.623489 128.960316 
L 891.44952 142.991394 
L 894.275552 144.654338 
L 897.101584 137.336477 
L 899.927616 141.417631 
L 902.753648 147.61951 
L 905.57968 143.622555 
L 908.405712 145.969616 
L 911.231744 150.333128 
L 914.057776 152.962441 
L 916.883808 149.18716 
L 919.70984 146.454483 
L 922.535871 155.834375 
L 925.361903 157.165808 
L 928.187935 160.590718 
L 931.013967 168.085182 
L 933.839999 171.678814 
L 936.666031 164.245159 
L 939.492063 160.997354 
L 942.318095 169.395415 
L 945.144127 161.456075 
L 947.970159 158.638083 
L 950.79619 165.785708 
L 953.622222 170.867929 
L 956.448254 167.222292 
L 959.274286 169.125314 
L 962.100318 177.373535 
L 964.92635 172.868554 
L 967.752382 169.212493 
L 970.578414 169.459575 
L 973.404446 177.438616 
L 976.230478 175.777069 
L 979.05651 173.837831 
L 981.882541 182.097002 
L 984.708573 180.150926 
L 987.534605 176.631803 
L 990.360637 180.780393 
L 993.186669 190.337821 
L 996.012701 189.995711 
L 998.838733 194.425586 
L 1001.664765 199.418832 
L 1004.490797 199.717148 
L 1007.316829 194.358339 
L 1010.142861 196.944436 
L 1012.968892 198.288989 
L 1015.794924 198.355936 
L 1018.620956 199.269225 
L 1021.446988 204.903535 
L 1024.27302 205.727201 
L 1027.099052 208.30828 
L 1029.925084 211.879261 
L 1032.751116 217.124113 
L 1035.577148 219.281145 
L 1038.40318 222.365851 
L 1041.229212 208.575503 
L 1046.881275 205.264464 
L 1049.707307 205.071677 
L 1052.533339 202.316058 
L 1055.359371 211.590454 
L 1058.185403 214.458226 
L 1061.011435 216.758317 
L 1063.837467 217.673519 
L 1066.663499 220.764154 
L 1069.489531 228.609139 
L 1075.141594 228.686499 
L 1077.967626 228.674374 
L 1080.793658 226.324484 
L 1083.61969 225.557498 
L 1083.61969 225.557498 
" style="fill:none;stroke:#a4a86f;stroke-linecap:square;stroke-width:2;"/>
   </g>
   <g id="line2d_20">
    <path clip-path="url(#p4753eb57fe)" d="M 142.551065 228.745016 
L 148.203129 228.882067 
L 159.507257 228.796385 
L 170.811384 228.767358 
L 173.637416 228.930973 
L 182.115512 228.911046 
L 187.767576 228.911046 
L 190.593608 228.71832 
L 201.897735 228.691323 
L 204.723767 228.88405 
L 216.027895 228.96 
L 218.853927 228.695543 
L 221.679959 228.549089 
L 227.332022 228.002446 
L 230.158054 227.89274 
L 238.63615 228.567605 
L 241.462182 228.056286 
L 247.114246 227.594334 
L 252.76631 225.793435 
L 255.592341 226.213778 
L 258.418373 226.380611 
L 261.244405 224.403567 
L 264.070437 224.151161 
L 266.896469 225.011745 
L 269.722501 223.043674 
L 272.548533 221.756077 
L 275.374565 223.209164 
L 278.200597 223.095342 
L 281.026629 219.662883 
L 283.85266 217.716623 
L 286.678692 216.521057 
L 289.504724 213.357478 
L 292.330756 212.973422 
L 295.156788 211.944198 
L 297.98282 213.89349 
L 300.808852 210.617344 
L 303.634884 212.889547 
L 306.460916 208.273642 
L 309.286948 204.368011 
L 312.11298 204.812693 
L 314.939011 207.475997 
L 317.765043 207.371273 
L 320.591075 206.723795 
L 323.417107 209.669525 
L 326.243139 202.214616 
L 329.069171 197.872689 
L 331.895203 195.419648 
L 334.721235 198.38923 
L 337.547267 198.047416 
L 340.373299 203.244315 
L 343.199331 198.09332 
L 346.025362 193.835666 
L 348.851394 193.950991 
L 351.677426 188.087889 
L 354.503458 180.202281 
L 357.32949 182.840826 
L 360.155522 172.913263 
L 362.981554 165.320383 
L 365.807586 163.641109 
L 368.633618 157.186892 
L 371.45965 151.246424 
L 374.285682 150.749061 
L 379.937745 134.113367 
L 382.763777 129.112062 
L 385.589809 126.383436 
L 388.415841 127.69656 
L 391.241873 128.281737 
L 394.067905 131.520273 
L 396.893937 132.734598 
L 399.719969 129.020408 
L 402.546001 120.510811 
L 405.372032 111.614284 
L 408.198064 106.097416 
L 411.024096 102.403069 
L 413.850128 95.622058 
L 416.67616 92.494593 
L 419.502192 90.256821 
L 425.154256 73.343401 
L 427.980288 71.13244 
L 430.80632 69.639743 
L 433.632352 69.383261 
L 436.458383 72.507457 
L 439.284415 72.778989 
L 447.762511 62.984469 
L 450.588543 58.323131 
L 453.414575 58.649774 
L 456.240607 59.848876 
L 459.066639 59.174332 
L 464.718703 56.273777 
L 467.544734 54.567394 
L 470.370766 51.766778 
L 473.196798 49.726902 
L 476.02283 48.916834 
L 478.848862 47.473699 
L 481.674894 45.074908 
L 484.500926 43.895583 
L 487.326958 42.401006 
L 490.15299 39.935874 
L 492.979022 37.961172 
L 495.805053 36.426974 
L 498.631085 33.97552 
L 501.457117 32.188425 
L 504.283149 30.95606 
L 507.109181 30.443419 
L 509.935213 30.444594 
L 512.761245 31.455114 
L 515.587277 32.618605 
L 518.413309 31.643863 
L 521.239341 30.529935 
L 524.065373 29.678087 
L 526.891404 28.47663 
L 529.717436 26.864554 
L 532.543468 26.658907 
L 535.3695 27.034077 
L 538.195532 26.210511 
L 541.021564 25.189746 
L 543.847596 24.842747 
L 546.673628 24.670679 
L 549.49966 23.62952 
L 552.325692 23.501272 
L 555.151724 23.609532 
L 557.977755 23.283844 
L 560.803787 22.777867 
L 563.629819 22.727091 
L 569.281883 22.087221 
L 572.107915 22.021281 
L 574.933947 21.842702 
L 577.759979 21.258802 
L 583.412043 21.313571 
L 586.238075 21.076625 
L 589.064106 20.973386 
L 591.890138 21.157954 
L 600.368234 20.742189 
L 603.194266 20.849018 
L 606.020298 21.346461 
L 608.84633 21.159309 
L 611.672362 20.723339 
L 617.324425 20.247601 
L 620.150457 19.765186 
L 622.976489 19.451594 
L 628.628553 19.484627 
L 631.454585 19.07239 
L 639.932681 19.047198 
L 642.758713 19.147473 
L 645.584745 19.105087 
L 648.410776 18.815736 
L 651.236808 18.711222 
L 654.06284 18.720767 
L 656.888872 18.485136 
L 659.714904 18.425821 
L 668.193 17.76 
L 671.019032 17.847253 
L 676.671096 18.487199 
L 679.497127 19.047761 
L 682.323159 19.830607 
L 685.149191 20.31221 
L 687.975223 20.359163 
L 690.801255 21.434576 
L 693.627287 22.224962 
L 696.453319 22.323065 
L 699.279351 22.591709 
L 702.105383 23.435886 
L 704.931415 23.032079 
L 707.757447 22.852018 
L 710.583478 23.085064 
L 713.40951 24.017328 
L 719.061574 27.590778 
L 721.887606 29.613923 
L 724.713638 30.964919 
L 727.53967 32.134645 
L 730.365702 33.024187 
L 733.191734 33.234254 
L 736.017766 33.014282 
L 738.843797 34.459074 
L 741.669829 37.314254 
L 744.495861 39.574141 
L 747.321893 40.715454 
L 750.147925 42.607846 
L 752.973957 44.282066 
L 755.799989 43.747148 
L 758.626021 44.608847 
L 761.452053 49.405529 
L 764.278085 55.509802 
L 767.104117 58.418068 
L 769.930148 60.966381 
L 772.75618 64.439277 
L 775.582212 66.334493 
L 778.408244 69.105494 
L 781.234276 75.448103 
L 784.060308 84.212594 
L 786.88634 91.114109 
L 789.712372 97.170099 
L 792.538404 102.021083 
L 795.364436 102.555304 
L 798.190468 105.145489 
L 803.842531 114.785272 
L 806.668563 121.298611 
L 809.494595 133.834835 
L 812.320627 141.053825 
L 815.146659 146.257479 
L 817.972691 153.22989 
L 820.798723 157.739598 
L 823.624755 160.92254 
L 826.450787 166.181067 
L 829.276818 172.283304 
L 832.10285 175.673595 
L 834.928882 177.077005 
L 837.754914 179.387478 
L 840.580946 183.675978 
L 843.406978 186.38992 
L 846.23301 190.82585 
L 849.059042 196.374144 
L 851.885074 200.358083 
L 854.711106 202.022428 
L 857.537138 203.480173 
L 860.363169 204.78342 
L 863.189201 207.052396 
L 866.015233 208.754565 
L 868.841265 210.897035 
L 871.667297 212.183674 
L 877.319361 215.67177 
L 880.145393 216.450134 
L 882.971425 217.632426 
L 885.797457 219.759974 
L 888.623489 221.444022 
L 891.44952 221.864024 
L 894.275552 223.425501 
L 897.101584 223.673717 
L 908.405712 225.535908 
L 911.231744 226.0028 
L 914.057776 226.249674 
L 919.70984 226.380604 
L 925.361903 226.565032 
L 936.666031 227.51087 
L 939.492063 227.665197 
L 942.318095 227.532874 
L 947.970159 227.744964 
L 953.622222 227.70097 
L 956.448254 227.890655 
L 959.274286 227.945354 
L 967.752382 228.407505 
L 973.404446 228.642377 
L 987.534605 228.696707 
L 993.186669 228.606078 
L 1004.490797 228.668508 
L 1007.316829 228.402149 
L 1010.142861 227.939378 
L 1012.968892 227.872843 
L 1021.446988 228.21547 
L 1024.27302 228.733921 
L 1032.751116 228.811862 
L 1077.967626 228.919283 
L 1080.793658 228.946952 
L 1083.61969 227.098465 
L 1086.445722 224.381469 
L 1089.271754 223.528438 
L 1092.097786 218.19416 
L 1092.097786 218.19416 
" style="fill:none;stroke:#d3d3d3;stroke-linecap:square;stroke-width:2;"/>
   </g>
   <g id="patch_3">
    <path d="M 43.78125 228.96 
L 43.78125 7.2 
" style="fill:none;stroke:#000000;stroke-linecap:square;stroke-linejoin:miter;stroke-width:0.8;"/>
   </g>
   <g id="patch_4">
    <path d="M 43.78125 228.96 
L 1159.78125 228.96 
" style="fill:none;stroke:#000000;stroke-linecap:square;stroke-linejoin:miter;stroke-width:0.8;"/>
   </g>
   <g id="legend_1">
    <g id="line2d_21">
     <path d="M 1065.97 17.67875 
L 1081.97 17.67875 
" style="fill:none;stroke:#947383;stroke-linecap:square;stroke-width:2;"/>
    </g>
    <g id="line2d_22"/>
    <g id="text_16">
     <!-- North America -->
     <g transform="translate(1088.37 20.47875)scale(0.08 -0.08)">
      <defs>
       <path d="M 628 4666 
L 1478 4666 
L 3547 763 
L 3547 4666 
L 4159 4666 
L 4159 0 
L 3309 0 
L 1241 3903 
L 1241 0 
L 628 0 
L 628 4666 
z
" id="DejaVuSans-4e" transform="scale(0.015625)"/>
       <path d="M 3513 2113 
L 3513 0 
L 2938 0 
L 2938 2094 
Q 2938 2591 2744 2837 
Q 2550 3084 2163 3084 
Q 1697 3084 1428 2787 
Q 1159 2491 1159 1978 
L 1159 0 
L 581 0 
L 581 4863 
L 1159 4863 
L 1159 2956 
Q 1366 3272 1645 3428 
Q 1925 3584 2291 3584 
Q 2894 3584 3203 3211 
Q 3513 2838 3513 2113 
z
" id="DejaVuSans-68" transform="scale(0.015625)"/>
       <path d="M 2188 4044 
L 1331 1722 
L 3047 1722 
L 2188 4044 
z
M 1831 4666 
L 2547 4666 
L 4325 0 
L 3669 0 
L 3244 1197 
L 1141 1197 
L 716 0 
L 50 0 
L 1831 4666 
z
" id="DejaVuSans-41" transform="scale(0.015625)"/>
       <path d="M 3328 2828 
Q 3544 3216 3844 3400 
Q 4144 3584 4550 3584 
Q 5097 3584 5394 3201 
Q 5691 2819 5691 2113 
L 5691 0 
L 5113 0 
L 5113 2094 
Q 5113 2597 4934 2840 
Q 4756 3084 4391 3084 
Q 3944 3084 3684 2787 
Q 3425 2491 3425 1978 
L 3425 0 
L 2847 0 
L 2847 2094 
Q 2847 2600 2669 2842 
Q 2491 3084 2119 3084 
Q 1678 3084 1418 2786 
Q 1159 2488 1159 1978 
L 1159 0 
L 581 0 
L 581 3500 
L 1159 3500 
L 1159 2956 
Q 1356 3278 1631 3431 
Q 1906 3584 2284 3584 
Q 2666 3584 2933 3390 
Q 3200 3197 3328 2828 
z
" id="DejaVuSans-6d" transform="scale(0.015625)"/>
      </defs>
      <use xlink:href="#DejaVuSans-4e"/>
      <use x="74.804688" xlink:href="#DejaVuSans-6f"/>
      <use x="135.986328" xlink:href="#DejaVuSans-72"/>
      <use x="177.099609" xlink:href="#DejaVuSans-74"/>
      <use x="216.308594" xlink:href="#DejaVuSans-68"/>
      <use x="279.6875" xlink:href="#DejaVuSans-20"/>
      <use x="311.474609" xlink:href="#DejaVuSans-41"/>
      <use x="379.882812" xlink:href="#DejaVuSans-6d"/>
      <use x="477.294922" xlink:href="#DejaVuSans-65"/>
      <use x="538.818359" xlink:href="#DejaVuSans-72"/>
      <use x="579.931641" xlink:href="#DejaVuSans-69"/>
      <use x="607.714844" xlink:href="#DejaVuSans-63"/>
      <use x="662.695312" xlink:href="#DejaVuSans-61"/>
     </g>
    </g>
    <g id="line2d_23">
     <path d="M 1065.97 29.42125 
L 1081.97 29.42125 
" style="fill:none;stroke:#96c6ad;stroke-linecap:square;stroke-width:2;"/>
    </g>
    <g id="line2d_24"/>
    <g id="text_17">
     <!-- Europe -->
     <g transform="translate(1088.37 32.22125)scale(0.08 -0.08)">
      <defs>
       <path d="M 628 4666 
L 3578 4666 
L 3578 4134 
L 1259 4134 
L 1259 2753 
L 3481 2753 
L 3481 2222 
L 1259 2222 
L 1259 531 
L 3634 531 
L 3634 0 
L 628 0 
L 628 4666 
z
" id="DejaVuSans-45" transform="scale(0.015625)"/>
       <path d="M 1159 525 
L 1159 -1331 
L 581 -1331 
L 581 3500 
L 1159 3500 
L 1159 2969 
Q 1341 3281 1617 3432 
Q 1894 3584 2278 3584 
Q 2916 3584 3314 3078 
Q 3713 2572 3713 1747 
Q 3713 922 3314 415 
Q 2916 -91 2278 -91 
Q 1894 -91 1617 61 
Q 1341 213 1159 525 
z
M 3116 1747 
Q 3116 2381 2855 2742 
Q 2594 3103 2138 3103 
Q 1681 3103 1420 2742 
Q 1159 2381 1159 1747 
Q 1159 1113 1420 752 
Q 1681 391 2138 391 
Q 2594 391 2855 752 
Q 3116 1113 3116 1747 
z
" id="DejaVuSans-70" transform="scale(0.015625)"/>
      </defs>
      <use xlink:href="#DejaVuSans-45"/>
      <use x="63.183594" xlink:href="#DejaVuSans-75"/>
      <use x="126.5625" xlink:href="#DejaVuSans-72"/>
      <use x="165.425781" xlink:href="#DejaVuSans-6f"/>
      <use x="226.607422" xlink:href="#DejaVuSans-70"/>
      <use x="290.083984" xlink:href="#DejaVuSans-65"/>
     </g>
    </g>
    <g id="line2d_25">
     <path d="M 1065.97 41.16375 
L 1081.97 41.16375 
" style="fill:none;stroke:#525886;stroke-linecap:square;stroke-width:2;"/>
    </g>
    <g id="line2d_26"/>
    <g id="text_18">
     <!-- Oceania -->
     <g transform="translate(1088.37 43.96375)scale(0.08 -0.08)">
      <defs>
       <path d="M 2522 4238 
Q 1834 4238 1429 3725 
Q 1025 3213 1025 2328 
Q 1025 1447 1429 934 
Q 1834 422 2522 422 
Q 3209 422 3611 934 
Q 4013 1447 4013 2328 
Q 4013 3213 3611 3725 
Q 3209 4238 2522 4238 
z
M 2522 4750 
Q 3503 4750 4090 4092 
Q 4678 3434 4678 2328 
Q 4678 1225 4090 567 
Q 3503 -91 2522 -91 
Q 1538 -91 948 565 
Q 359 1222 359 2328 
Q 359 3434 948 4092 
Q 1538 4750 2522 4750 
z
" id="DejaVuSans-4f" transform="scale(0.015625)"/>
      </defs>
      <use xlink:href="#DejaVuSans-4f"/>
      <use x="78.710938" xlink:href="#DejaVuSans-63"/>
      <use x="133.691406" xlink:href="#DejaVuSans-65"/>
      <use x="195.214844" xlink:href="#DejaVuSans-61"/>
      <use x="256.494141" xlink:href="#DejaVuSans-6e"/>
      <use x="319.873047" xlink:href="#DejaVuSans-69"/>
      <use x="347.65625" xlink:href="#DejaVuSans-61"/>
     </g>
    </g>
    <g id="line2d_27">
     <path d="M 1065.97 52.90625 
L 1081.97 52.90625 
" style="fill:none;stroke:#937252;stroke-linecap:square;stroke-width:2;"/>
    </g>
    <g id="line2d_28"/>
    <g id="text_19">
     <!-- Africa -->
     <g transform="translate(1088.37 55.70625)scale(0.08 -0.08)">
      <defs>
       <path d="M 2375 4863 
L 2375 4384 
L 1825 4384 
Q 1516 4384 1395 4259 
Q 1275 4134 1275 3809 
L 1275 3500 
L 2222 3500 
L 2222 3053 
L 1275 3053 
L 1275 0 
L 697 0 
L 697 3053 
L 147 3053 
L 147 3500 
L 697 3500 
L 697 3744 
Q 697 4328 969 4595 
Q 1241 4863 1831 4863 
L 2375 4863 
z
" id="DejaVuSans-66" transform="scale(0.015625)"/>
      </defs>
      <use xlink:href="#DejaVuSans-41"/>
      <use x="64.783203" xlink:href="#DejaVuSans-66"/>
      <use x="99.988281" xlink:href="#DejaVuSans-72"/>
      <use x="141.101562" xlink:href="#DejaVuSans-69"/>
      <use x="168.884766" xlink:href="#DejaVuSans-63"/>
      <use x="223.865234" xlink:href="#DejaVuSans-61"/>
     </g>
    </g>
    <g id="line2d_29">
     <path d="M 1065.97 64.64875 
L 1081.97 64.64875 
" style="fill:none;stroke:#d18cad;stroke-linecap:square;stroke-width:2;"/>
    </g>
    <g id="line2d_30"/>
    <g id="text_20">
     <!-- South America -->
     <g transform="translate(1088.37 67.44875)scale(0.08 -0.08)">
      <defs>
       <path d="M 3425 4513 
L 3425 3897 
Q 3066 4069 2747 4153 
Q 2428 4238 2131 4238 
Q 1616 4238 1336 4038 
Q 1056 3838 1056 3469 
Q 1056 3159 1242 3001 
Q 1428 2844 1947 2747 
L 2328 2669 
Q 3034 2534 3370 2195 
Q 3706 1856 3706 1288 
Q 3706 609 3251 259 
Q 2797 -91 1919 -91 
Q 1588 -91 1214 -16 
Q 841 59 441 206 
L 441 856 
Q 825 641 1194 531 
Q 1563 422 1919 422 
Q 2459 422 2753 634 
Q 3047 847 3047 1241 
Q 3047 1584 2836 1778 
Q 2625 1972 2144 2069 
L 1759 2144 
Q 1053 2284 737 2584 
Q 422 2884 422 3419 
Q 422 4038 858 4394 
Q 1294 4750 2059 4750 
Q 2388 4750 2728 4690 
Q 3069 4631 3425 4513 
z
" id="DejaVuSans-53" transform="scale(0.015625)"/>
      </defs>
      <use xlink:href="#DejaVuSans-53"/>
      <use x="63.476562" xlink:href="#DejaVuSans-6f"/>
      <use x="124.658203" xlink:href="#DejaVuSans-75"/>
      <use x="188.037109" xlink:href="#DejaVuSans-74"/>
      <use x="227.246094" xlink:href="#DejaVuSans-68"/>
      <use x="290.625" xlink:href="#DejaVuSans-20"/>
      <use x="322.412109" xlink:href="#DejaVuSans-41"/>
      <use x="390.820312" xlink:href="#DejaVuSans-6d"/>
      <use x="488.232422" xlink:href="#DejaVuSans-65"/>
      <use x="549.755859" xlink:href="#DejaVuSans-72"/>
      <use x="590.869141" xlink:href="#DejaVuSans-69"/>
      <use x="618.652344" xlink:href="#DejaVuSans-63"/>
      <use x="673.632812" xlink:href="#DejaVuSans-61"/>
     </g>
    </g>
    <g id="line2d_31">
     <path d="M 1065.97 76.39125 
L 1081.97 76.39125 
" style="fill:none;stroke:#a4a86f;stroke-linecap:square;stroke-width:2;"/>
    </g>
    <g id="line2d_32"/>
    <g id="text_21">
     <!-- Asia -->
     <g transform="translate(1088.37 79.19125)scale(0.08 -0.08)">
      <defs>
       <path d="M 2834 3397 
L 2834 2853 
Q 2591 2978 2328 3040 
Q 2066 3103 1784 3103 
Q 1356 3103 1142 2972 
Q 928 2841 928 2578 
Q 928 2378 1081 2264 
Q 1234 2150 1697 2047 
L 1894 2003 
Q 2506 1872 2764 1633 
Q 3022 1394 3022 966 
Q 3022 478 2636 193 
Q 2250 -91 1575 -91 
Q 1294 -91 989 -36 
Q 684 19 347 128 
L 347 722 
Q 666 556 975 473 
Q 1284 391 1588 391 
Q 1994 391 2212 530 
Q 2431 669 2431 922 
Q 2431 1156 2273 1281 
Q 2116 1406 1581 1522 
L 1381 1569 
Q 847 1681 609 1914 
Q 372 2147 372 2553 
Q 372 3047 722 3315 
Q 1072 3584 1716 3584 
Q 2034 3584 2315 3537 
Q 2597 3491 2834 3397 
z
" id="DejaVuSans-73" transform="scale(0.015625)"/>
      </defs>
      <use xlink:href="#DejaVuSans-41"/>
      <use x="68.408203" xlink:href="#DejaVuSans-73"/>
      <use x="120.507812" xlink:href="#DejaVuSans-69"/>
      <use x="148.291016" xlink:href="#DejaVuSans-61"/>
     </g>
    </g>
    <g id="line2d_33">
     <path d="M 1065.97 88.13375 
L 1081.97 88.13375 
" style="fill:none;stroke:#d3d3d3;stroke-linecap:square;stroke-width:2;"/>
    </g>
    <g id="line2d_34"/>
    <g id="text_22">
     <!-- United Kingdom -->
     <g transform="translate(1088.37 90.93375)scale(0.08 -0.08)">
      <defs>
       <path d="M 556 4666 
L 1191 4666 
L 1191 1831 
Q 1191 1081 1462 751 
Q 1734 422 2344 422 
Q 2950 422 3222 751 
Q 3494 1081 3494 1831 
L 3494 4666 
L 4128 4666 
L 4128 1753 
Q 4128 841 3676 375 
Q 3225 -91 2344 -91 
Q 1459 -91 1007 375 
Q 556 841 556 1753 
L 556 4666 
z
" id="DejaVuSans-55" transform="scale(0.015625)"/>
       <path d="M 628 4666 
L 1259 4666 
L 1259 2694 
L 3353 4666 
L 4166 4666 
L 1850 2491 
L 4331 0 
L 3500 0 
L 1259 2247 
L 1259 0 
L 628 0 
L 628 4666 
z
" id="DejaVuSans-4b" transform="scale(0.015625)"/>
      </defs>
      <use xlink:href="#DejaVuSans-55"/>
      <use x="73.193359" xlink:href="#DejaVuSans-6e"/>
      <use x="136.572266" xlink:href="#DejaVuSans-69"/>
      <use x="164.355469" xlink:href="#DejaVuSans-74"/>
      <use x="203.564453" xlink:href="#DejaVuSans-65"/>
      <use x="265.087891" xlink:href="#DejaVuSans-64"/>
      <use x="328.564453" xlink:href="#DejaVuSans-20"/>
      <use x="360.351562" xlink:href="#DejaVuSans-4b"/>
      <use x="425.927734" xlink:href="#DejaVuSans-69"/>
      <use x="453.710938" xlink:href="#DejaVuSans-6e"/>
      <use x="517.089844" xlink:href="#DejaVuSans-67"/>
      <use x="580.566406" xlink:href="#DejaVuSans-64"/>
      <use x="644.042969" xlink:href="#DejaVuSans-6f"/>
      <use x="705.224609" xlink:href="#DejaVuSans-6d"/>
     </g>
    </g>
   </g>
  </g>
 </g>
 <defs>
  <clipPath id="p4753eb57fe">
   <rect height="221.76" width="1116" x="43.78125" y="7.2"/>
  </clipPath>
 </defs>
</svg>
