<?xml version="1.0" encoding="utf-8" standalone="no"?>
<!DOCTYPE svg PUBLIC "-//W3C//DTD SVG 1.1//EN"
  "http://www.w3.org/Graphics/SVG/1.1/DTD/svg11.dtd">
<svg height="300.182445pt" version="1.1" viewBox="0 0 1173.34375 300.182445" width="1173.34375pt" xmlns="http://www.w3.org/2000/svg" xmlns:xlink="http://www.w3.org/1999/xlink">
 <metadata>
  <rdf:RDF xmlns:cc="http://creativecommons.org/ns#" xmlns:dc="http://purl.org/dc/elements/1.1/" xmlns:rdf="http://www.w3.org/1999/02/22-rdf-syntax-ns#">
   <cc:Work>
    <dc:type rdf:resource="http://purl.org/dc/dcmitype/StillImage"/>
    <dc:date>2021-09-12T11:42:36.618522</dc:date>
    <dc:format>image/svg+xml</dc:format>
    <dc:creator>
     <cc:Agent>
      <dc:title>Matplotlib v3.4.2, https://matplotlib.org/</dc:title>
     </cc:Agent>
    </dc:creator>
   </cc:Work>
  </rdf:RDF>
 </metadata>
 <defs>
  <style type="text/css">*{stroke-linecap:butt;stroke-linejoin:round;}</style>
 </defs>
 <g id="figure_1">
  <g id="patch_1">
   <path d="M 0 300.182445 
L 1173.34375 300.182445 
L 1173.34375 0 
L 0 0 
z
" style="fill:#ffffff;"/>
  </g>
  <g id="axes_1">
   <g id="patch_2">
    <path d="M 50.14375 230.521508 
L 1166.14375 230.521508 
L 1166.14375 8.761508 
L 50.14375 8.761508 
z
" style="fill:#ffffff;"/>
   </g>
   <g id="matplotlib.axis_1">
    <g id="xtick_1">
     <g id="line2d_1">
      <defs>
       <path d="M 0 0 
L 0 3.5 
" id="m0646c7ea5a" style="stroke:#000000;stroke-width:0.8;"/>
      </defs>
      <g>
       <use style="stroke:#000000;stroke-width:0.8;" x="173.952687" xlink:href="#m0646c7ea5a" y="230.521508"/>
      </g>
     </g>
     <g id="text_1">
      <!-- 2021-01 -->
      <g transform="translate(176.712062 279.30432)rotate(-90)scale(0.1 -0.1)">
       <defs>
        <path d="M 1228 531 
L 3431 531 
L 3431 0 
L 469 0 
L 469 531 
Q 828 903 1448 1529 
Q 2069 2156 2228 2338 
Q 2531 2678 2651 2914 
Q 2772 3150 2772 3378 
Q 2772 3750 2511 3984 
Q 2250 4219 1831 4219 
Q 1534 4219 1204 4116 
Q 875 4013 500 3803 
L 500 4441 
Q 881 4594 1212 4672 
Q 1544 4750 1819 4750 
Q 2544 4750 2975 4387 
Q 3406 4025 3406 3419 
Q 3406 3131 3298 2873 
Q 3191 2616 2906 2266 
Q 2828 2175 2409 1742 
Q 1991 1309 1228 531 
z
" id="DejaVuSans-32" transform="scale(0.015625)"/>
        <path d="M 2034 4250 
Q 1547 4250 1301 3770 
Q 1056 3291 1056 2328 
Q 1056 1369 1301 889 
Q 1547 409 2034 409 
Q 2525 409 2770 889 
Q 3016 1369 3016 2328 
Q 3016 3291 2770 3770 
Q 2525 4250 2034 4250 
z
M 2034 4750 
Q 2819 4750 3233 4129 
Q 3647 3509 3647 2328 
Q 3647 1150 3233 529 
Q 2819 -91 2034 -91 
Q 1250 -91 836 529 
Q 422 1150 422 2328 
Q 422 3509 836 4129 
Q 1250 4750 2034 4750 
z
" id="DejaVuSans-30" transform="scale(0.015625)"/>
        <path d="M 794 531 
L 1825 531 
L 1825 4091 
L 703 3866 
L 703 4441 
L 1819 4666 
L 2450 4666 
L 2450 531 
L 3481 531 
L 3481 0 
L 794 0 
L 794 531 
z
" id="DejaVuSans-31" transform="scale(0.015625)"/>
        <path d="M 313 2009 
L 1997 2009 
L 1997 1497 
L 313 1497 
L 313 2009 
z
" id="DejaVuSans-2d" transform="scale(0.015625)"/>
       </defs>
       <use xlink:href="#DejaVuSans-32"/>
       <use x="63.623047" xlink:href="#DejaVuSans-30"/>
       <use x="127.246094" xlink:href="#DejaVuSans-32"/>
       <use x="190.869141" xlink:href="#DejaVuSans-31"/>
       <use x="254.492188" xlink:href="#DejaVuSans-2d"/>
       <use x="290.576172" xlink:href="#DejaVuSans-30"/>
       <use x="354.199219" xlink:href="#DejaVuSans-31"/>
      </g>
     </g>
    </g>
    <g id="xtick_2">
     <g id="line2d_2">
      <g>
       <use style="stroke:#000000;stroke-width:0.8;" x="307.219251" xlink:href="#m0646c7ea5a" y="230.521508"/>
      </g>
     </g>
     <g id="text_2">
      <!-- 2021-02 -->
      <g transform="translate(309.978626 279.30432)rotate(-90)scale(0.1 -0.1)">
       <use xlink:href="#DejaVuSans-32"/>
       <use x="63.623047" xlink:href="#DejaVuSans-30"/>
       <use x="127.246094" xlink:href="#DejaVuSans-32"/>
       <use x="190.869141" xlink:href="#DejaVuSans-31"/>
       <use x="254.492188" xlink:href="#DejaVuSans-2d"/>
       <use x="290.576172" xlink:href="#DejaVuSans-30"/>
       <use x="354.199219" xlink:href="#DejaVuSans-32"/>
      </g>
     </g>
    </g>
    <g id="xtick_3">
     <g id="line2d_3">
      <g>
       <use style="stroke:#000000;stroke-width:0.8;" x="427.58905" xlink:href="#m0646c7ea5a" y="230.521508"/>
      </g>
     </g>
     <g id="text_3">
      <!-- 2021-03 -->
      <g transform="translate(430.348425 279.30432)rotate(-90)scale(0.1 -0.1)">
       <defs>
        <path d="M 2597 2516 
Q 3050 2419 3304 2112 
Q 3559 1806 3559 1356 
Q 3559 666 3084 287 
Q 2609 -91 1734 -91 
Q 1441 -91 1130 -33 
Q 819 25 488 141 
L 488 750 
Q 750 597 1062 519 
Q 1375 441 1716 441 
Q 2309 441 2620 675 
Q 2931 909 2931 1356 
Q 2931 1769 2642 2001 
Q 2353 2234 1838 2234 
L 1294 2234 
L 1294 2753 
L 1863 2753 
Q 2328 2753 2575 2939 
Q 2822 3125 2822 3475 
Q 2822 3834 2567 4026 
Q 2313 4219 1838 4219 
Q 1578 4219 1281 4162 
Q 984 4106 628 3988 
L 628 4550 
Q 988 4650 1302 4700 
Q 1616 4750 1894 4750 
Q 2613 4750 3031 4423 
Q 3450 4097 3450 3541 
Q 3450 3153 3228 2886 
Q 3006 2619 2597 2516 
z
" id="DejaVuSans-33" transform="scale(0.015625)"/>
       </defs>
       <use xlink:href="#DejaVuSans-32"/>
       <use x="63.623047" xlink:href="#DejaVuSans-30"/>
       <use x="127.246094" xlink:href="#DejaVuSans-32"/>
       <use x="190.869141" xlink:href="#DejaVuSans-31"/>
       <use x="254.492188" xlink:href="#DejaVuSans-2d"/>
       <use x="290.576172" xlink:href="#DejaVuSans-30"/>
       <use x="354.199219" xlink:href="#DejaVuSans-33"/>
      </g>
     </g>
    </g>
    <g id="xtick_4">
     <g id="line2d_4">
      <g>
       <use style="stroke:#000000;stroke-width:0.8;" x="560.855614" xlink:href="#m0646c7ea5a" y="230.521508"/>
      </g>
     </g>
     <g id="text_4">
      <!-- 2021-04 -->
      <g transform="translate(563.614989 279.30432)rotate(-90)scale(0.1 -0.1)">
       <defs>
        <path d="M 2419 4116 
L 825 1625 
L 2419 1625 
L 2419 4116 
z
M 2253 4666 
L 3047 4666 
L 3047 1625 
L 3713 1625 
L 3713 1100 
L 3047 1100 
L 3047 0 
L 2419 0 
L 2419 1100 
L 313 1100 
L 313 1709 
L 2253 4666 
z
" id="DejaVuSans-34" transform="scale(0.015625)"/>
       </defs>
       <use xlink:href="#DejaVuSans-32"/>
       <use x="63.623047" xlink:href="#DejaVuSans-30"/>
       <use x="127.246094" xlink:href="#DejaVuSans-32"/>
       <use x="190.869141" xlink:href="#DejaVuSans-31"/>
       <use x="254.492188" xlink:href="#DejaVuSans-2d"/>
       <use x="290.576172" xlink:href="#DejaVuSans-30"/>
       <use x="354.199219" xlink:href="#DejaVuSans-34"/>
      </g>
     </g>
    </g>
    <g id="xtick_5">
     <g id="line2d_5">
      <g>
       <use style="stroke:#000000;stroke-width:0.8;" x="689.823257" xlink:href="#m0646c7ea5a" y="230.521508"/>
      </g>
     </g>
     <g id="text_5">
      <!-- 2021-05 -->
      <g transform="translate(692.582632 279.30432)rotate(-90)scale(0.1 -0.1)">
       <defs>
        <path d="M 691 4666 
L 3169 4666 
L 3169 4134 
L 1269 4134 
L 1269 2991 
Q 1406 3038 1543 3061 
Q 1681 3084 1819 3084 
Q 2600 3084 3056 2656 
Q 3513 2228 3513 1497 
Q 3513 744 3044 326 
Q 2575 -91 1722 -91 
Q 1428 -91 1123 -41 
Q 819 9 494 109 
L 494 744 
Q 775 591 1075 516 
Q 1375 441 1709 441 
Q 2250 441 2565 725 
Q 2881 1009 2881 1497 
Q 2881 1984 2565 2268 
Q 2250 2553 1709 2553 
Q 1456 2553 1204 2497 
Q 953 2441 691 2322 
L 691 4666 
z
" id="DejaVuSans-35" transform="scale(0.015625)"/>
       </defs>
       <use xlink:href="#DejaVuSans-32"/>
       <use x="63.623047" xlink:href="#DejaVuSans-30"/>
       <use x="127.246094" xlink:href="#DejaVuSans-32"/>
       <use x="190.869141" xlink:href="#DejaVuSans-31"/>
       <use x="254.492188" xlink:href="#DejaVuSans-2d"/>
       <use x="290.576172" xlink:href="#DejaVuSans-30"/>
       <use x="354.199219" xlink:href="#DejaVuSans-35"/>
      </g>
     </g>
    </g>
    <g id="xtick_6">
     <g id="line2d_6">
      <g>
       <use style="stroke:#000000;stroke-width:0.8;" x="823.089821" xlink:href="#m0646c7ea5a" y="230.521508"/>
      </g>
     </g>
     <g id="text_6">
      <!-- 2021-06 -->
      <g transform="translate(825.849196 279.30432)rotate(-90)scale(0.1 -0.1)">
       <defs>
        <path d="M 2113 2584 
Q 1688 2584 1439 2293 
Q 1191 2003 1191 1497 
Q 1191 994 1439 701 
Q 1688 409 2113 409 
Q 2538 409 2786 701 
Q 3034 994 3034 1497 
Q 3034 2003 2786 2293 
Q 2538 2584 2113 2584 
z
M 3366 4563 
L 3366 3988 
Q 3128 4100 2886 4159 
Q 2644 4219 2406 4219 
Q 1781 4219 1451 3797 
Q 1122 3375 1075 2522 
Q 1259 2794 1537 2939 
Q 1816 3084 2150 3084 
Q 2853 3084 3261 2657 
Q 3669 2231 3669 1497 
Q 3669 778 3244 343 
Q 2819 -91 2113 -91 
Q 1303 -91 875 529 
Q 447 1150 447 2328 
Q 447 3434 972 4092 
Q 1497 4750 2381 4750 
Q 2619 4750 2861 4703 
Q 3103 4656 3366 4563 
z
" id="DejaVuSans-36" transform="scale(0.015625)"/>
       </defs>
       <use xlink:href="#DejaVuSans-32"/>
       <use x="63.623047" xlink:href="#DejaVuSans-30"/>
       <use x="127.246094" xlink:href="#DejaVuSans-32"/>
       <use x="190.869141" xlink:href="#DejaVuSans-31"/>
       <use x="254.492188" xlink:href="#DejaVuSans-2d"/>
       <use x="290.576172" xlink:href="#DejaVuSans-30"/>
       <use x="354.199219" xlink:href="#DejaVuSans-36"/>
      </g>
     </g>
    </g>
    <g id="xtick_7">
     <g id="line2d_7">
      <g>
       <use style="stroke:#000000;stroke-width:0.8;" x="952.057463" xlink:href="#m0646c7ea5a" y="230.521508"/>
      </g>
     </g>
     <g id="text_7">
      <!-- 2021-07 -->
      <g transform="translate(954.816838 279.30432)rotate(-90)scale(0.1 -0.1)">
       <defs>
        <path d="M 525 4666 
L 3525 4666 
L 3525 4397 
L 1831 0 
L 1172 0 
L 2766 4134 
L 525 4134 
L 525 4666 
z
" id="DejaVuSans-37" transform="scale(0.015625)"/>
       </defs>
       <use xlink:href="#DejaVuSans-32"/>
       <use x="63.623047" xlink:href="#DejaVuSans-30"/>
       <use x="127.246094" xlink:href="#DejaVuSans-32"/>
       <use x="190.869141" xlink:href="#DejaVuSans-31"/>
       <use x="254.492188" xlink:href="#DejaVuSans-2d"/>
       <use x="290.576172" xlink:href="#DejaVuSans-30"/>
       <use x="354.199219" xlink:href="#DejaVuSans-37"/>
      </g>
     </g>
    </g>
    <g id="xtick_8">
     <g id="line2d_8">
      <g>
       <use style="stroke:#000000;stroke-width:0.8;" x="1085.324027" xlink:href="#m0646c7ea5a" y="230.521508"/>
      </g>
     </g>
     <g id="text_8">
      <!-- 2021-08 -->
      <g transform="translate(1088.083402 279.30432)rotate(-90)scale(0.1 -0.1)">
       <defs>
        <path d="M 2034 2216 
Q 1584 2216 1326 1975 
Q 1069 1734 1069 1313 
Q 1069 891 1326 650 
Q 1584 409 2034 409 
Q 2484 409 2743 651 
Q 3003 894 3003 1313 
Q 3003 1734 2745 1975 
Q 2488 2216 2034 2216 
z
M 1403 2484 
Q 997 2584 770 2862 
Q 544 3141 544 3541 
Q 544 4100 942 4425 
Q 1341 4750 2034 4750 
Q 2731 4750 3128 4425 
Q 3525 4100 3525 3541 
Q 3525 3141 3298 2862 
Q 3072 2584 2669 2484 
Q 3125 2378 3379 2068 
Q 3634 1759 3634 1313 
Q 3634 634 3220 271 
Q 2806 -91 2034 -91 
Q 1263 -91 848 271 
Q 434 634 434 1313 
Q 434 1759 690 2068 
Q 947 2378 1403 2484 
z
M 1172 3481 
Q 1172 3119 1398 2916 
Q 1625 2713 2034 2713 
Q 2441 2713 2670 2916 
Q 2900 3119 2900 3481 
Q 2900 3844 2670 4047 
Q 2441 4250 2034 4250 
Q 1625 4250 1398 4047 
Q 1172 3844 1172 3481 
z
" id="DejaVuSans-38" transform="scale(0.015625)"/>
       </defs>
       <use xlink:href="#DejaVuSans-32"/>
       <use x="63.623047" xlink:href="#DejaVuSans-30"/>
       <use x="127.246094" xlink:href="#DejaVuSans-32"/>
       <use x="190.869141" xlink:href="#DejaVuSans-31"/>
       <use x="254.492188" xlink:href="#DejaVuSans-2d"/>
       <use x="290.576172" xlink:href="#DejaVuSans-30"/>
       <use x="354.199219" xlink:href="#DejaVuSans-38"/>
      </g>
     </g>
    </g>
    <g id="text_9">
     <!-- Date -->
     <g transform="translate(596.192969 290.902758)scale(0.1 -0.1)">
      <defs>
       <path d="M 1259 4147 
L 1259 519 
L 2022 519 
Q 2988 519 3436 956 
Q 3884 1394 3884 2338 
Q 3884 3275 3436 3711 
Q 2988 4147 2022 4147 
L 1259 4147 
z
M 628 4666 
L 1925 4666 
Q 3281 4666 3915 4102 
Q 4550 3538 4550 2338 
Q 4550 1131 3912 565 
Q 3275 0 1925 0 
L 628 0 
L 628 4666 
z
" id="DejaVuSans-44" transform="scale(0.015625)"/>
       <path d="M 2194 1759 
Q 1497 1759 1228 1600 
Q 959 1441 959 1056 
Q 959 750 1161 570 
Q 1363 391 1709 391 
Q 2188 391 2477 730 
Q 2766 1069 2766 1631 
L 2766 1759 
L 2194 1759 
z
M 3341 1997 
L 3341 0 
L 2766 0 
L 2766 531 
Q 2569 213 2275 61 
Q 1981 -91 1556 -91 
Q 1019 -91 701 211 
Q 384 513 384 1019 
Q 384 1609 779 1909 
Q 1175 2209 1959 2209 
L 2766 2209 
L 2766 2266 
Q 2766 2663 2505 2880 
Q 2244 3097 1772 3097 
Q 1472 3097 1187 3025 
Q 903 2953 641 2809 
L 641 3341 
Q 956 3463 1253 3523 
Q 1550 3584 1831 3584 
Q 2591 3584 2966 3190 
Q 3341 2797 3341 1997 
z
" id="DejaVuSans-61" transform="scale(0.015625)"/>
       <path d="M 1172 4494 
L 1172 3500 
L 2356 3500 
L 2356 3053 
L 1172 3053 
L 1172 1153 
Q 1172 725 1289 603 
Q 1406 481 1766 481 
L 2356 481 
L 2356 0 
L 1766 0 
Q 1100 0 847 248 
Q 594 497 594 1153 
L 594 3053 
L 172 3053 
L 172 3500 
L 594 3500 
L 594 4494 
L 1172 4494 
z
" id="DejaVuSans-74" transform="scale(0.015625)"/>
       <path d="M 3597 1894 
L 3597 1613 
L 953 1613 
Q 991 1019 1311 708 
Q 1631 397 2203 397 
Q 2534 397 2845 478 
Q 3156 559 3463 722 
L 3463 178 
Q 3153 47 2828 -22 
Q 2503 -91 2169 -91 
Q 1331 -91 842 396 
Q 353 884 353 1716 
Q 353 2575 817 3079 
Q 1281 3584 2069 3584 
Q 2775 3584 3186 3129 
Q 3597 2675 3597 1894 
z
M 3022 2063 
Q 3016 2534 2758 2815 
Q 2500 3097 2075 3097 
Q 1594 3097 1305 2825 
Q 1016 2553 972 2059 
L 3022 2063 
z
" id="DejaVuSans-65" transform="scale(0.015625)"/>
      </defs>
      <use xlink:href="#DejaVuSans-44"/>
      <use x="77.001953" xlink:href="#DejaVuSans-61"/>
      <use x="138.28125" xlink:href="#DejaVuSans-74"/>
      <use x="177.490234" xlink:href="#DejaVuSans-65"/>
     </g>
    </g>
   </g>
   <g id="matplotlib.axis_2">
    <g id="ytick_1">
     <g id="line2d_9">
      <defs>
       <path d="M 0 0 
L -3.5 0 
" id="m8b47d4de18" style="stroke:#000000;stroke-width:0.8;"/>
      </defs>
      <g>
       <use style="stroke:#000000;stroke-width:0.8;" x="50.14375" xlink:href="#m8b47d4de18" y="230.521508"/>
      </g>
     </g>
     <g id="text_10">
      <!-- 0.00 -->
      <g transform="translate(20.878125 234.320726)scale(0.1 -0.1)">
       <defs>
        <path d="M 684 794 
L 1344 794 
L 1344 0 
L 684 0 
L 684 794 
z
" id="DejaVuSans-2e" transform="scale(0.015625)"/>
       </defs>
       <use xlink:href="#DejaVuSans-30"/>
       <use x="63.623047" xlink:href="#DejaVuSans-2e"/>
       <use x="95.410156" xlink:href="#DejaVuSans-30"/>
       <use x="159.033203" xlink:href="#DejaVuSans-30"/>
      </g>
     </g>
    </g>
    <g id="ytick_2">
     <g id="line2d_10">
      <g>
       <use style="stroke:#000000;stroke-width:0.8;" x="50.14375" xlink:href="#m8b47d4de18" y="199.161181"/>
      </g>
     </g>
     <g id="text_11">
      <!-- 0.05 -->
      <g transform="translate(20.878125 202.960399)scale(0.1 -0.1)">
       <use xlink:href="#DejaVuSans-30"/>
       <use x="63.623047" xlink:href="#DejaVuSans-2e"/>
       <use x="95.410156" xlink:href="#DejaVuSans-30"/>
       <use x="159.033203" xlink:href="#DejaVuSans-35"/>
      </g>
     </g>
    </g>
    <g id="ytick_3">
     <g id="line2d_11">
      <g>
       <use style="stroke:#000000;stroke-width:0.8;" x="50.14375" xlink:href="#m8b47d4de18" y="167.800854"/>
      </g>
     </g>
     <g id="text_12">
      <!-- 0.10 -->
      <g transform="translate(20.878125 171.600072)scale(0.1 -0.1)">
       <use xlink:href="#DejaVuSans-30"/>
       <use x="63.623047" xlink:href="#DejaVuSans-2e"/>
       <use x="95.410156" xlink:href="#DejaVuSans-31"/>
       <use x="159.033203" xlink:href="#DejaVuSans-30"/>
      </g>
     </g>
    </g>
    <g id="ytick_4">
     <g id="line2d_12">
      <g>
       <use style="stroke:#000000;stroke-width:0.8;" x="50.14375" xlink:href="#m8b47d4de18" y="136.440527"/>
      </g>
     </g>
     <g id="text_13">
      <!-- 0.15 -->
      <g transform="translate(20.878125 140.239745)scale(0.1 -0.1)">
       <use xlink:href="#DejaVuSans-30"/>
       <use x="63.623047" xlink:href="#DejaVuSans-2e"/>
       <use x="95.410156" xlink:href="#DejaVuSans-31"/>
       <use x="159.033203" xlink:href="#DejaVuSans-35"/>
      </g>
     </g>
    </g>
    <g id="ytick_5">
     <g id="line2d_13">
      <g>
       <use style="stroke:#000000;stroke-width:0.8;" x="50.14375" xlink:href="#m8b47d4de18" y="105.0802"/>
      </g>
     </g>
     <g id="text_14">
      <!-- 0.20 -->
      <g transform="translate(20.878125 108.879418)scale(0.1 -0.1)">
       <use xlink:href="#DejaVuSans-30"/>
       <use x="63.623047" xlink:href="#DejaVuSans-2e"/>
       <use x="95.410156" xlink:href="#DejaVuSans-32"/>
       <use x="159.033203" xlink:href="#DejaVuSans-30"/>
      </g>
     </g>
    </g>
    <g id="ytick_6">
     <g id="line2d_14">
      <g>
       <use style="stroke:#000000;stroke-width:0.8;" x="50.14375" xlink:href="#m8b47d4de18" y="73.719873"/>
      </g>
     </g>
     <g id="text_15">
      <!-- 0.25 -->
      <g transform="translate(20.878125 77.519091)scale(0.1 -0.1)">
       <use xlink:href="#DejaVuSans-30"/>
       <use x="63.623047" xlink:href="#DejaVuSans-2e"/>
       <use x="95.410156" xlink:href="#DejaVuSans-32"/>
       <use x="159.033203" xlink:href="#DejaVuSans-35"/>
      </g>
     </g>
    </g>
    <g id="ytick_7">
     <g id="line2d_15">
      <g>
       <use style="stroke:#000000;stroke-width:0.8;" x="50.14375" xlink:href="#m8b47d4de18" y="42.359546"/>
      </g>
     </g>
     <g id="text_16">
      <!-- 0.30 -->
      <g transform="translate(20.878125 46.158764)scale(0.1 -0.1)">
       <use xlink:href="#DejaVuSans-30"/>
       <use x="63.623047" xlink:href="#DejaVuSans-2e"/>
       <use x="95.410156" xlink:href="#DejaVuSans-33"/>
       <use x="159.033203" xlink:href="#DejaVuSans-30"/>
      </g>
     </g>
    </g>
    <g id="ytick_8">
     <g id="line2d_16">
      <g>
       <use style="stroke:#000000;stroke-width:0.8;" x="50.14375" xlink:href="#m8b47d4de18" y="10.999219"/>
      </g>
     </g>
     <g id="text_17">
      <!-- 0.35 -->
      <g transform="translate(20.878125 14.798437)scale(0.1 -0.1)">
       <use xlink:href="#DejaVuSans-30"/>
       <use x="63.623047" xlink:href="#DejaVuSans-2e"/>
       <use x="95.410156" xlink:href="#DejaVuSans-33"/>
       <use x="159.033203" xlink:href="#DejaVuSans-35"/>
      </g>
     </g>
    </g>
    <g id="text_18">
     <!-- Frequency (7 day rolling average) -->
     <g transform="translate(14.798438 204.090726)rotate(-90)scale(0.1 -0.1)">
      <defs>
       <path d="M 628 4666 
L 3309 4666 
L 3309 4134 
L 1259 4134 
L 1259 2759 
L 3109 2759 
L 3109 2228 
L 1259 2228 
L 1259 0 
L 628 0 
L 628 4666 
z
" id="DejaVuSans-46" transform="scale(0.015625)"/>
       <path d="M 2631 2963 
Q 2534 3019 2420 3045 
Q 2306 3072 2169 3072 
Q 1681 3072 1420 2755 
Q 1159 2438 1159 1844 
L 1159 0 
L 581 0 
L 581 3500 
L 1159 3500 
L 1159 2956 
Q 1341 3275 1631 3429 
Q 1922 3584 2338 3584 
Q 2397 3584 2469 3576 
Q 2541 3569 2628 3553 
L 2631 2963 
z
" id="DejaVuSans-72" transform="scale(0.015625)"/>
       <path d="M 947 1747 
Q 947 1113 1208 752 
Q 1469 391 1925 391 
Q 2381 391 2643 752 
Q 2906 1113 2906 1747 
Q 2906 2381 2643 2742 
Q 2381 3103 1925 3103 
Q 1469 3103 1208 2742 
Q 947 2381 947 1747 
z
M 2906 525 
Q 2725 213 2448 61 
Q 2172 -91 1784 -91 
Q 1150 -91 751 415 
Q 353 922 353 1747 
Q 353 2572 751 3078 
Q 1150 3584 1784 3584 
Q 2172 3584 2448 3432 
Q 2725 3281 2906 2969 
L 2906 3500 
L 3481 3500 
L 3481 -1331 
L 2906 -1331 
L 2906 525 
z
" id="DejaVuSans-71" transform="scale(0.015625)"/>
       <path d="M 544 1381 
L 544 3500 
L 1119 3500 
L 1119 1403 
Q 1119 906 1312 657 
Q 1506 409 1894 409 
Q 2359 409 2629 706 
Q 2900 1003 2900 1516 
L 2900 3500 
L 3475 3500 
L 3475 0 
L 2900 0 
L 2900 538 
Q 2691 219 2414 64 
Q 2138 -91 1772 -91 
Q 1169 -91 856 284 
Q 544 659 544 1381 
z
M 1991 3584 
L 1991 3584 
z
" id="DejaVuSans-75" transform="scale(0.015625)"/>
       <path d="M 3513 2113 
L 3513 0 
L 2938 0 
L 2938 2094 
Q 2938 2591 2744 2837 
Q 2550 3084 2163 3084 
Q 1697 3084 1428 2787 
Q 1159 2491 1159 1978 
L 1159 0 
L 581 0 
L 581 3500 
L 1159 3500 
L 1159 2956 
Q 1366 3272 1645 3428 
Q 1925 3584 2291 3584 
Q 2894 3584 3203 3211 
Q 3513 2838 3513 2113 
z
" id="DejaVuSans-6e" transform="scale(0.015625)"/>
       <path d="M 3122 3366 
L 3122 2828 
Q 2878 2963 2633 3030 
Q 2388 3097 2138 3097 
Q 1578 3097 1268 2742 
Q 959 2388 959 1747 
Q 959 1106 1268 751 
Q 1578 397 2138 397 
Q 2388 397 2633 464 
Q 2878 531 3122 666 
L 3122 134 
Q 2881 22 2623 -34 
Q 2366 -91 2075 -91 
Q 1284 -91 818 406 
Q 353 903 353 1747 
Q 353 2603 823 3093 
Q 1294 3584 2113 3584 
Q 2378 3584 2631 3529 
Q 2884 3475 3122 3366 
z
" id="DejaVuSans-63" transform="scale(0.015625)"/>
       <path d="M 2059 -325 
Q 1816 -950 1584 -1140 
Q 1353 -1331 966 -1331 
L 506 -1331 
L 506 -850 
L 844 -850 
Q 1081 -850 1212 -737 
Q 1344 -625 1503 -206 
L 1606 56 
L 191 3500 
L 800 3500 
L 1894 763 
L 2988 3500 
L 3597 3500 
L 2059 -325 
z
" id="DejaVuSans-79" transform="scale(0.015625)"/>
       <path id="DejaVuSans-20" transform="scale(0.015625)"/>
       <path d="M 1984 4856 
Q 1566 4138 1362 3434 
Q 1159 2731 1159 2009 
Q 1159 1288 1364 580 
Q 1569 -128 1984 -844 
L 1484 -844 
Q 1016 -109 783 600 
Q 550 1309 550 2009 
Q 550 2706 781 3412 
Q 1013 4119 1484 4856 
L 1984 4856 
z
" id="DejaVuSans-28" transform="scale(0.015625)"/>
       <path d="M 2906 2969 
L 2906 4863 
L 3481 4863 
L 3481 0 
L 2906 0 
L 2906 525 
Q 2725 213 2448 61 
Q 2172 -91 1784 -91 
Q 1150 -91 751 415 
Q 353 922 353 1747 
Q 353 2572 751 3078 
Q 1150 3584 1784 3584 
Q 2172 3584 2448 3432 
Q 2725 3281 2906 2969 
z
M 947 1747 
Q 947 1113 1208 752 
Q 1469 391 1925 391 
Q 2381 391 2643 752 
Q 2906 1113 2906 1747 
Q 2906 2381 2643 2742 
Q 2381 3103 1925 3103 
Q 1469 3103 1208 2742 
Q 947 2381 947 1747 
z
" id="DejaVuSans-64" transform="scale(0.015625)"/>
       <path d="M 1959 3097 
Q 1497 3097 1228 2736 
Q 959 2375 959 1747 
Q 959 1119 1226 758 
Q 1494 397 1959 397 
Q 2419 397 2687 759 
Q 2956 1122 2956 1747 
Q 2956 2369 2687 2733 
Q 2419 3097 1959 3097 
z
M 1959 3584 
Q 2709 3584 3137 3096 
Q 3566 2609 3566 1747 
Q 3566 888 3137 398 
Q 2709 -91 1959 -91 
Q 1206 -91 779 398 
Q 353 888 353 1747 
Q 353 2609 779 3096 
Q 1206 3584 1959 3584 
z
" id="DejaVuSans-6f" transform="scale(0.015625)"/>
       <path d="M 603 4863 
L 1178 4863 
L 1178 0 
L 603 0 
L 603 4863 
z
" id="DejaVuSans-6c" transform="scale(0.015625)"/>
       <path d="M 603 3500 
L 1178 3500 
L 1178 0 
L 603 0 
L 603 3500 
z
M 603 4863 
L 1178 4863 
L 1178 4134 
L 603 4134 
L 603 4863 
z
" id="DejaVuSans-69" transform="scale(0.015625)"/>
       <path d="M 2906 1791 
Q 2906 2416 2648 2759 
Q 2391 3103 1925 3103 
Q 1463 3103 1205 2759 
Q 947 2416 947 1791 
Q 947 1169 1205 825 
Q 1463 481 1925 481 
Q 2391 481 2648 825 
Q 2906 1169 2906 1791 
z
M 3481 434 
Q 3481 -459 3084 -895 
Q 2688 -1331 1869 -1331 
Q 1566 -1331 1297 -1286 
Q 1028 -1241 775 -1147 
L 775 -588 
Q 1028 -725 1275 -790 
Q 1522 -856 1778 -856 
Q 2344 -856 2625 -561 
Q 2906 -266 2906 331 
L 2906 616 
Q 2728 306 2450 153 
Q 2172 0 1784 0 
Q 1141 0 747 490 
Q 353 981 353 1791 
Q 353 2603 747 3093 
Q 1141 3584 1784 3584 
Q 2172 3584 2450 3431 
Q 2728 3278 2906 2969 
L 2906 3500 
L 3481 3500 
L 3481 434 
z
" id="DejaVuSans-67" transform="scale(0.015625)"/>
       <path d="M 191 3500 
L 800 3500 
L 1894 563 
L 2988 3500 
L 3597 3500 
L 2284 0 
L 1503 0 
L 191 3500 
z
" id="DejaVuSans-76" transform="scale(0.015625)"/>
       <path d="M 513 4856 
L 1013 4856 
Q 1481 4119 1714 3412 
Q 1947 2706 1947 2009 
Q 1947 1309 1714 600 
Q 1481 -109 1013 -844 
L 513 -844 
Q 928 -128 1133 580 
Q 1338 1288 1338 2009 
Q 1338 2731 1133 3434 
Q 928 4138 513 4856 
z
" id="DejaVuSans-29" transform="scale(0.015625)"/>
      </defs>
      <use xlink:href="#DejaVuSans-46"/>
      <use x="50.269531" xlink:href="#DejaVuSans-72"/>
      <use x="89.132812" xlink:href="#DejaVuSans-65"/>
      <use x="150.65625" xlink:href="#DejaVuSans-71"/>
      <use x="214.132812" xlink:href="#DejaVuSans-75"/>
      <use x="277.511719" xlink:href="#DejaVuSans-65"/>
      <use x="339.035156" xlink:href="#DejaVuSans-6e"/>
      <use x="402.414062" xlink:href="#DejaVuSans-63"/>
      <use x="457.394531" xlink:href="#DejaVuSans-79"/>
      <use x="516.574219" xlink:href="#DejaVuSans-20"/>
      <use x="548.361328" xlink:href="#DejaVuSans-28"/>
      <use x="587.375" xlink:href="#DejaVuSans-37"/>
      <use x="650.998047" xlink:href="#DejaVuSans-20"/>
      <use x="682.785156" xlink:href="#DejaVuSans-64"/>
      <use x="746.261719" xlink:href="#DejaVuSans-61"/>
      <use x="807.541016" xlink:href="#DejaVuSans-79"/>
      <use x="866.720703" xlink:href="#DejaVuSans-20"/>
      <use x="898.507812" xlink:href="#DejaVuSans-72"/>
      <use x="937.371094" xlink:href="#DejaVuSans-6f"/>
      <use x="998.552734" xlink:href="#DejaVuSans-6c"/>
      <use x="1026.335938" xlink:href="#DejaVuSans-6c"/>
      <use x="1054.119141" xlink:href="#DejaVuSans-69"/>
      <use x="1081.902344" xlink:href="#DejaVuSans-6e"/>
      <use x="1145.28125" xlink:href="#DejaVuSans-67"/>
      <use x="1208.757812" xlink:href="#DejaVuSans-20"/>
      <use x="1240.544922" xlink:href="#DejaVuSans-61"/>
      <use x="1301.824219" xlink:href="#DejaVuSans-76"/>
      <use x="1361.003906" xlink:href="#DejaVuSans-65"/>
      <use x="1422.527344" xlink:href="#DejaVuSans-72"/>
      <use x="1463.640625" xlink:href="#DejaVuSans-61"/>
      <use x="1524.919922" xlink:href="#DejaVuSans-67"/>
      <use x="1588.396484" xlink:href="#DejaVuSans-65"/>
      <use x="1649.919922" xlink:href="#DejaVuSans-29"/>
     </g>
    </g>
   </g>
   <g id="line2d_17">
    <path clip-path="url(#p9755218763)" d="M 100.871023 199.161181 
L 105.169944 230.521508 
L 118.066708 230.521508 
L 122.36563 167.800854 
L 130.963473 167.800854 
L 135.262394 136.440527 
L 139.561315 136.440527 
L 143.860237 199.161181 
L 148.159158 199.161181 
L 152.45808 136.440527 
L 156.757001 125.987084 
L 161.055923 68.968308 
L 169.653765 68.968308 
L 173.952687 131.688962 
L 178.251608 110.782077 
L 182.55053 131.96048 
L 186.849451 100.600153 
L 191.148372 58.786384 
L 195.447294 47.586267 
L 199.746215 85.666664 
L 204.045137 86.66223 
L 208.344058 118.022557 
L 212.64298 141.02013 
L 216.941901 139.676116 
L 221.240822 155.665248 
L 225.539744 146.605598 
L 229.838665 110.765225 
L 234.137587 121.978917 
L 238.436508 109.434786 
L 242.73543 55.365257 
L 247.034351 81.349528 
L 251.333272 68.943245 
L 255.632194 62.607825 
L 259.931115 24.975433 
L 264.230037 56.33576 
L 268.528958 49.167685 
L 272.827879 97.414342 
L 277.126801 82.082627 
L 281.425722 100.002813 
L 285.724644 74.344364 
L 290.023565 71.835538 
L 294.322487 69.512551 
L 298.621408 94.862148 
L 302.920329 127.118485 
L 307.219251 168.457098 
L 311.518172 147.49626 
L 315.817094 114.438365 
L 320.116015 95.958172 
L 324.414936 83.414042 
L 328.713858 57.280436 
L 333.012779 84.931477 
L 337.311701 66.200422 
L 341.610622 61.160369 
L 345.909544 61.160369 
L 350.208465 57.815268 
L 354.507386 42.303708 
L 358.806308 54.601876 
L 363.105229 19.321508 
L 367.404151 20.889524 
L 376.001993 75.586559 
L 380.300915 108.597429 
L 384.599836 169.326951 
L 388.898758 180.303066 
L 393.197679 198.223253 
L 397.496601 191.503183 
L 401.795522 189.630226 
L 406.094443 180.217602 
L 410.393365 162.894755 
L 414.692286 159.205305 
L 418.991208 174.885468 
L 423.290129 185.561324 
L 427.58905 169.089233 
L 431.887972 179.223871 
L 436.186893 157.825059 
L 440.485815 128.115276 
L 444.784736 108.308754 
L 449.083658 108.91475 
L 453.382579 92.806717 
L 457.6815 82.514097 
L 461.980422 79.21301 
L 466.279343 90.978423 
L 470.578265 108.077355 
L 474.877186 138.900077 
L 479.176107 149.192697 
L 483.475029 176.749598 
L 487.77395 173.814593 
L 492.072872 178.178041 
L 496.371793 181.377704 
L 500.670715 188.904182 
L 504.969636 191.057065 
L 509.268557 193.670426 
L 513.567479 199.477894 
L 517.8664 192.33579 
L 522.165322 202.29507 
L 526.464243 202.869172 
L 530.763164 200.778483 
L 535.062086 190.102627 
L 539.361007 194.416747 
L 543.659929 176.930988 
L 547.95885 169.819439 
L 552.257772 173.75645 
L 556.556693 181.705321 
L 560.855614 159.617902 
L 565.154536 173.954052 
L 569.453457 174.143254 
L 573.752379 147.20867 
L 578.0513 149.935655 
L 582.350221 174.429025 
L 586.649143 162.880461 
L 590.948064 166.410704 
L 595.246986 191.210594 
L 599.545907 191.210594 
L 603.844829 187.74874 
L 608.14375 201.089324 
L 612.442671 204.291172 
L 616.741593 205.262217 
L 621.040514 200.142163 
L 625.339436 191.08624 
L 629.638357 182.744084 
L 633.937279 179.959446 
L 638.2362 184.579982 
L 642.535121 181.607048 
L 646.834043 194.084098 
L 651.132964 208.877521 
L 655.431886 211.791814 
L 659.730807 210.669981 
L 664.029728 218.762969 
L 668.32865 214.771655 
L 672.627571 202.989699 
L 676.926493 202.717739 
L 681.225414 194.952325 
L 685.524336 183.283366 
L 689.823257 184.909457 
L 694.122178 187.796484 
L 698.4211 190.856028 
L 702.720021 201.173711 
L 707.018943 204.479916 
L 711.317864 209.125891 
L 715.616785 215.511994 
L 719.915707 215.511994 
L 724.214628 213.33985 
L 728.51355 219.142577 
L 732.812471 217.513469 
L 737.111393 210.292945 
L 741.410314 207.156912 
L 745.709235 202.206445 
L 750.008157 204.766472 
L 754.307078 206.395579 
L 758.606 214.452379 
L 762.904921 217.588412 
L 767.203842 226.340131 
L 771.502764 222.42009 
L 775.801685 222.42009 
L 780.100607 226.601467 
L 788.69845 226.601467 
L 792.997371 228.591641 
L 797.296292 220.365982 
L 801.595214 218.907362 
L 810.193057 218.907362 
L 814.491978 216.655851 
L 818.790899 224.881511 
L 823.089821 226.340131 
L 831.687664 226.340131 
L 835.986585 229.338099 
L 840.285507 225.648649 
L 844.584428 225.648649 
L 848.883349 224.518547 
L 853.182271 224.518547 
L 857.481192 225.701956 
L 861.780114 229.391406 
L 866.079035 229.391406 
L 870.377956 230.521508 
L 883.274721 230.521508 
L 887.573642 229.028159 
L 891.872564 229.028159 
L 896.171485 227.97403 
L 904.769328 227.97403 
L 909.068249 229.467379 
L 913.367171 229.467379 
L 917.666092 230.521508 
L 921.965013 230.521508 
L 926.263935 228.17681 
L 926.263935 228.17681 
" style="fill:none;stroke:#947383;stroke-linecap:square;stroke-width:2;"/>
   </g>
   <g id="line2d_18">
    <path clip-path="url(#p9755218763)" d="M 113.767787 226.977968 
L 118.066708 230.521508 
L 208.344058 230.459561 
L 221.240822 230.18507 
L 255.632194 230.046194 
L 259.931115 230.098223 
L 264.230037 230.262305 
L 268.528958 230.181758 
L 272.827879 230.307703 
L 277.126801 230.296991 
L 285.724644 230.054863 
L 290.023565 230.130447 
L 294.322487 229.958766 
L 302.920329 230.215041 
L 324.414936 229.753083 
L 328.713858 229.77698 
L 333.012779 229.625444 
L 341.610622 229.685141 
L 350.208465 229.71091 
L 358.806308 229.134292 
L 363.105229 229.149295 
L 371.703072 228.613065 
L 380.300915 228.895617 
L 397.496601 227.95519 
L 410.393365 227.042571 
L 414.692286 226.527421 
L 423.290129 226.228725 
L 427.58905 225.431296 
L 431.887972 225.502843 
L 436.186893 226.124647 
L 440.485815 226.317105 
L 444.784736 226.110833 
L 449.083658 226.704484 
L 457.6815 225.603143 
L 461.980422 225.739143 
L 466.279343 225.513486 
L 470.578265 225.111342 
L 479.176107 226.104886 
L 483.475029 225.8897 
L 496.371793 227.560989 
L 500.670715 227.622375 
L 504.969636 227.929812 
L 509.268557 227.966854 
L 513.567479 227.386738 
L 517.8664 226.350488 
L 522.165322 225.465577 
L 526.464243 225.083211 
L 530.763164 224.004382 
L 535.062086 223.90088 
L 539.361007 223.986915 
L 543.659929 224.538905 
L 547.95885 224.160838 
L 552.257772 224.549152 
L 556.556693 224.700658 
L 560.855614 225.182747 
L 569.453457 224.824014 
L 573.752379 224.262449 
L 582.350221 223.964617 
L 586.649143 224.015002 
L 590.948064 224.425799 
L 595.246986 225.526156 
L 599.545907 225.819915 
L 603.844829 225.470247 
L 608.14375 225.547508 
L 612.442671 225.95909 
L 616.741593 225.929617 
L 625.339436 226.752781 
L 629.638357 227.18611 
L 633.937279 226.664213 
L 638.2362 226.903309 
L 642.535121 226.524727 
L 651.132964 226.696525 
L 655.431886 227.512011 
L 659.730807 227.553501 
L 664.029728 228.190386 
L 668.32865 228.711727 
L 672.627571 228.672595 
L 676.926493 228.407597 
L 681.225414 227.861353 
L 685.524336 227.593163 
L 689.823257 227.028939 
L 694.122178 226.852583 
L 698.4211 226.871172 
L 702.720021 227.130219 
L 707.018943 227.112373 
L 711.317864 227.375363 
L 719.915707 227.521312 
L 724.214628 227.836518 
L 728.51355 227.875747 
L 732.812471 227.783341 
L 737.111393 228.038437 
L 741.410314 228.096386 
L 750.008157 227.731232 
L 754.307078 228.079368 
L 762.904921 228.25952 
L 775.801685 228.783369 
L 784.399528 228.537828 
L 788.69845 228.521868 
L 792.997371 229.00178 
L 797.296292 228.938164 
L 805.894135 229.308802 
L 810.193057 229.153119 
L 814.491978 229.14854 
L 818.790899 229.325884 
L 827.388742 229.264529 
L 831.687664 229.824535 
L 835.986585 229.724391 
L 840.285507 229.417688 
L 844.584428 229.382733 
L 848.883349 229.53494 
L 853.182271 229.092622 
L 857.481192 229.267892 
L 861.780114 228.520465 
L 866.079035 227.926423 
L 870.377956 228.00078 
L 874.676878 228.283503 
L 878.975799 227.855885 
L 883.274721 228.910014 
L 887.573642 229.750021 
L 891.872564 226.934837 
L 896.171485 225.66184 
L 900.470406 226.182035 
L 904.769328 226.182035 
L 909.068249 224.120719 
L 913.367171 226.935903 
L 917.666092 228.368495 
L 926.263935 228.368495 
L 930.562856 230.521508 
L 934.861778 230.272863 
L 943.459621 230.167494 
L 952.057463 230.1043 
L 956.356385 230.352944 
L 964.954228 230.458313 
L 973.55207 230.521508 
L 986.448835 230.521508 
L 999.345599 230.2237 
L 1007.943442 230.2237 
L 1020.840206 230.521508 
L 1025.139128 230.476304 
L 1025.139128 230.476304 
" style="fill:none;stroke:#96c6ad;stroke-linecap:square;stroke-width:2;"/>
   </g>
   <g id="line2d_19">
    <path clip-path="url(#p9755218763)" d="M 118.066708 230.373929 
L 130.963473 230.521508 
L 152.45808 230.521508 
L 156.757001 230.388906 
L 173.952687 230.388906 
L 178.251608 230.521508 
L 182.55053 230.521508 
L 186.849451 230.281543 
L 204.045137 230.281543 
L 208.344058 230.46415 
L 221.240822 230.409084 
L 229.838665 230.168427 
L 234.137587 230.065648 
L 238.436508 230.120715 
L 247.034351 230.075229 
L 251.333272 230.140842 
L 264.230037 229.825577 
L 272.827879 230.041487 
L 277.126801 230.28412 
L 285.724644 230.15178 
L 294.322487 230.020101 
L 298.621408 229.75216 
L 302.920329 229.917051 
L 315.817094 229.695518 
L 320.116015 229.96346 
L 324.414936 229.803458 
L 328.713858 229.975658 
L 337.311701 229.917359 
L 341.610622 229.729385 
L 354.507386 229.849008 
L 358.806308 230.056778 
L 371.703072 230.230547 
L 376.001993 229.97601 
L 388.898758 229.730208 
L 393.197679 229.485396 
L 397.496601 229.502411 
L 401.795522 229.099855 
L 406.094443 228.970464 
L 414.692286 229.083953 
L 418.991208 228.543713 
L 423.290129 228.739269 
L 427.58905 228.688895 
L 431.887972 228.350902 
L 436.186893 227.834382 
L 440.485815 228.318059 
L 444.784736 228.164918 
L 449.083658 227.708929 
L 453.382579 227.770976 
L 457.6815 228.041471 
L 461.980422 227.973129 
L 466.279343 228.234625 
L 470.578265 228.647188 
L 474.877186 228.870065 
L 483.475029 229.094258 
L 487.77395 229.033409 
L 492.072872 229.251881 
L 496.371793 229.011764 
L 500.670715 229.213361 
L 509.268557 228.354427 
L 513.567479 228.370448 
L 517.8664 228.629447 
L 522.165322 228.716354 
L 526.464243 229.22268 
L 530.763164 229.518266 
L 543.659929 229.097274 
L 552.257772 229.004937 
L 556.556693 229.124091 
L 565.154536 228.564284 
L 578.0513 229.064439 
L 582.350221 229.485818 
L 590.948064 229.598166 
L 599.545907 229.396507 
L 603.844829 229.42311 
L 608.14375 229.667941 
L 612.442671 229.585949 
L 616.741593 229.21967 
L 625.339436 228.933 
L 633.937279 228.288099 
L 638.2362 228.78819 
L 646.834043 228.1792 
L 651.132964 228.12868 
L 655.431886 228.619965 
L 659.730807 227.995991 
L 664.029728 228.071738 
L 672.627571 228.771605 
L 676.926493 228.297347 
L 681.225414 228.663845 
L 685.524336 229.156341 
L 689.823257 229.349179 
L 694.122178 228.701339 
L 698.4211 228.289086 
L 702.720021 228.323608 
L 707.018943 228.236437 
L 711.317864 227.925168 
L 719.915707 229.272708 
L 741.410314 229.106515 
L 745.709235 229.024564 
L 750.008157 229.05434 
L 767.203842 230.188793 
L 771.502764 230.346382 
L 780.100607 230.122789 
L 788.69845 230.233254 
L 792.997371 230.166953 
L 801.595214 230.390546 
L 805.894135 230.332925 
L 814.491978 230.463886 
L 823.089821 230.4097 
L 831.687664 230.467321 
L 1059.530499 230.492704 
L 1059.530499 230.492704 
" style="fill:none;stroke:#525886;stroke-linecap:square;stroke-width:2;"/>
   </g>
   <g id="line2d_20">
    <path clip-path="url(#p9755218763)" d="M 122.36563 227.385475 
L 126.664551 230.521508 
L 191.148372 230.521508 
L 195.447294 227.908147 
L 204.045137 226.654609 
L 212.64298 226.654609 
L 216.941901 229.212843 
L 221.240822 229.866183 
L 225.539744 229.813041 
L 229.838665 228.817475 
L 234.137587 228.338691 
L 242.73543 228.393818 
L 247.034351 228.797524 
L 251.333272 228.281749 
L 255.632194 227.922394 
L 259.931115 227.922394 
L 264.230037 227.602799 
L 268.528958 227.59164 
L 272.827879 228.767577 
L 277.126801 229.154869 
L 290.023565 228.549354 
L 298.621408 228.937027 
L 302.920329 228.774587 
L 307.219251 227.934232 
L 311.518172 228.184806 
L 315.817094 227.899878 
L 320.116015 227.93313 
L 324.414936 227.708255 
L 328.713858 228.927777 
L 333.012779 228.99183 
L 337.311701 228.576741 
L 341.610622 228.36105 
L 345.909544 228.574518 
L 354.507386 228.525781 
L 358.806308 228.912993 
L 363.105229 228.467741 
L 367.404151 227.685615 
L 376.001993 226.979884 
L 380.300915 227.033957 
L 384.599836 227.610509 
L 388.898758 228.355744 
L 397.496601 226.838171 
L 401.795522 226.89367 
L 406.094443 226.58462 
L 410.393365 226.553872 
L 414.692286 227.763543 
L 418.991208 228.478704 
L 423.290129 228.617361 
L 427.58905 228.0874 
L 431.887972 228.26279 
L 444.784736 226.750246 
L 449.083658 226.691561 
L 453.382579 226.060693 
L 457.6815 225.685645 
L 461.980422 226.257795 
L 466.279343 226.595829 
L 470.578265 227.367664 
L 479.176107 227.626075 
L 483.475029 227.083497 
L 487.77395 225.322163 
L 492.072872 224.71856 
L 496.371793 224.937732 
L 500.670715 224.820671 
L 504.969636 225.218218 
L 509.268557 226.326354 
L 513.567479 226.025418 
L 517.8664 225.076332 
L 522.165322 224.898583 
L 526.464243 224.409021 
L 530.763164 224.88642 
L 535.062086 225.827329 
L 539.361007 226.200439 
L 543.659929 226.407002 
L 547.95885 226.201711 
L 552.257772 225.835184 
L 556.556693 225.141755 
L 560.855614 225.585147 
L 565.154536 225.236605 
L 578.0513 226.031607 
L 582.350221 225.915624 
L 586.649143 226.443359 
L 590.948064 226.700479 
L 595.246986 226.298947 
L 599.545907 226.286918 
L 612.442671 225.655198 
L 621.040514 225.439817 
L 629.638357 226.333914 
L 633.937279 226.415297 
L 638.2362 227.001524 
L 642.535121 226.830476 
L 651.132964 225.872642 
L 655.431886 225.87127 
L 659.730807 226.09042 
L 664.029728 226.471807 
L 668.32865 226.984404 
L 672.627571 226.993433 
L 676.926493 226.646045 
L 681.225414 226.439404 
L 685.524336 226.429689 
L 689.823257 226.073937 
L 694.122178 226.42557 
L 698.4211 227.036123 
L 702.720021 226.65572 
L 707.018943 227.149731 
L 711.317864 227.769315 
L 715.616785 227.190113 
L 719.915707 226.843719 
L 724.214628 227.622315 
L 728.51355 227.730631 
L 732.812471 227.337802 
L 737.111393 227.806573 
L 741.410314 227.987271 
L 750.008157 227.14977 
L 754.307078 227.407554 
L 758.606 227.845417 
L 767.203842 227.715519 
L 771.502764 227.908399 
L 780.100607 228.070441 
L 788.69845 229.09758 
L 792.997371 228.621279 
L 797.296292 228.613968 
L 814.491978 227.733084 
L 818.790899 228.072359 
L 823.089821 227.909725 
L 827.388742 228.169661 
L 831.687664 228.278216 
L 835.986585 228.783708 
L 840.285507 228.609074 
L 844.584428 229.015534 
L 853.182271 228.680529 
L 857.481192 228.752149 
L 861.780114 228.038685 
L 870.377956 227.740509 
L 874.676878 225.600539 
L 878.975799 225.979646 
L 883.274721 226.668644 
L 887.573642 226.725916 
L 891.872564 226.41711 
L 896.171485 228.796916 
L 904.769328 228.302311 
L 917.666092 228.344654 
L 921.965013 228.462767 
L 926.263935 228.888997 
L 930.562856 229.019156 
L 934.861778 229.698913 
L 939.160699 229.885125 
L 943.459621 229.70423 
L 960.655306 229.741874 
L 964.954228 230.190235 
L 973.55207 230.098836 
L 1007.943442 230.422999 
L 1029.438049 230.387788 
L 1033.73697 230.459161 
L 1042.334813 230.44764 
L 1102.519713 230.49174 
L 1102.519713 230.49174 
" style="fill:none;stroke:#937252;stroke-linecap:square;stroke-width:2;"/>
   </g>
   <g id="line2d_21">
    <path clip-path="url(#p9755218763)" d="M 216.941901 172.340634 
L 221.240822 222.517158 
L 225.539744 222.517158 
L 229.838665 227.53481 
L 234.137587 230.180635 
L 251.333272 230.180635 
L 255.632194 229.629745 
L 259.931115 229.629745 
L 264.230037 229.257515 
L 272.827879 229.257515 
L 277.126801 230.149278 
L 281.425722 230.149278 
L 285.724644 230.521508 
L 290.023565 230.521508 
L 294.322487 230.124542 
L 302.920329 227.056543 
L 307.219251 227.056543 
L 315.817094 226.814306 
L 320.116015 227.932353 
L 324.414936 229.412486 
L 328.713858 229.412486 
L 333.012779 229.571072 
L 341.610622 230.521508 
L 350.208465 229.367872 
L 354.507386 226.946225 
L 358.806308 226.334316 
L 363.105229 226.334316 
L 371.703072 227.487952 
L 376.001993 229.909599 
L 380.300915 230.521508 
L 384.599836 230.060326 
L 388.898758 228.069195 
L 393.197679 227.537664 
L 397.496601 227.537664 
L 406.094443 226.515526 
L 410.393365 228.222854 
L 414.692286 227.58386 
L 418.991208 227.58386 
L 423.290129 226.051269 
L 427.58905 226.3157 
L 431.887972 225.427155 
L 436.186893 225.350749 
L 440.485815 223.598076 
L 444.784736 225.229667 
L 449.083658 225.248221 
L 453.382579 225.648623 
L 457.6815 224.633784 
L 461.980422 225.96051 
L 466.279343 225.875025 
L 470.578265 224.931702 
L 474.877186 224.881083 
L 479.176107 227.142854 
L 483.475029 224.018575 
L 487.77395 223.833389 
L 492.072872 224.420203 
L 496.371793 222.745044 
L 500.670715 221.824374 
L 504.969636 224.221646 
L 509.268557 224.310695 
L 513.567479 224.615075 
L 517.8664 226.950522 
L 522.165322 224.914663 
L 526.464243 223.196284 
L 530.763164 223.357789 
L 535.062086 222.79836 
L 539.361007 222.732564 
L 543.659929 225.315756 
L 547.95885 227.065824 
L 552.257772 226.793347 
L 556.556693 227.479774 
L 560.855614 227.551827 
L 565.154536 226.986701 
L 569.453457 227.934941 
L 573.752379 228.439662 
L 578.0513 228.571842 
L 582.350221 228.155072 
L 586.649143 228.661476 
L 590.948064 228.127388 
L 603.844829 228.913845 
L 608.14375 228.889339 
L 612.442671 229.467128 
L 616.741593 229.210076 
L 621.040514 229.389534 
L 625.339436 229.380963 
L 629.638357 229.837528 
L 633.937279 229.759508 
L 642.535121 229.798211 
L 646.834043 230.095818 
L 651.132964 230.095818 
L 655.431886 230.303159 
L 664.029728 230.384563 
L 668.32865 230.153548 
L 681.225414 229.900123 
L 689.823257 229.8484 
L 698.4211 229.181919 
L 702.720021 229.047936 
L 707.018943 228.794263 
L 711.317864 229.077001 
L 719.915707 230.002911 
L 724.214628 229.841888 
L 728.51355 230.095561 
L 732.812471 230.095561 
L 737.111393 229.823454 
L 741.410314 229.698637 
L 745.709235 230.124583 
L 750.008157 230.124583 
L 754.307078 229.898155 
L 758.606 230.170262 
L 780.100607 230.211961 
L 784.399528 229.969854 
L 788.69845 229.969854 
L 792.997371 229.566506 
L 797.296292 229.741459 
L 805.894135 229.461342 
L 810.193057 229.461342 
L 814.491978 228.460496 
L 823.089821 228.085465 
L 827.388742 228.123191 
L 831.687664 227.940065 
L 835.986585 228.9383 
L 840.285507 228.873532 
L 848.883349 229.68154 
L 853.182271 229.67286 
L 857.481192 230.078819 
L 861.780114 230.329701 
L 870.377956 230.329701 
L 874.676878 230.521508 
L 878.975799 230.521508 
L 883.274721 230.322078 
L 887.573642 229.331426 
L 900.470406 229.331426 
L 904.769328 229.530856 
L 909.068249 230.521508 
L 926.263935 229.998181 
L 930.562856 229.998181 
L 939.160699 230.362318 
L 943.459621 230.224167 
L 947.758542 230.383356 
L 960.655306 230.383356 
L 964.954228 230.217038 
L 982.149913 230.108619 
L 986.448835 230.413088 
L 1063.82942 230.521508 
L 1068.128342 229.841148 
L 1072.427263 229.527545 
L 1076.726185 229.527545 
L 1081.025106 229.377316 
L 1085.324027 229.377316 
L 1089.622949 230.057675 
L 1093.92187 230.371279 
L 1115.416477 230.278089 
L 1115.416477 230.278089 
" style="fill:none;stroke:#d18cad;stroke-linecap:square;stroke-width:2;"/>
   </g>
   <g id="line2d_22">
    <path clip-path="url(#p9755218763)" d="M 212.64298 220.068065 
L 216.941901 230.521508 
L 302.920329 230.521508 
L 307.219251 105.0802 
L 324.414936 105.0802 
L 328.713858 230.521508 
L 341.610622 230.521508 
L 345.909544 188.707738 
L 363.105229 188.707738 
L 367.404151 230.521508 
L 436.186893 230.521508 
L 440.485815 105.0802 
L 457.6815 105.0802 
L 461.980422 230.521508 
L 470.578265 230.521508 
L 474.877186 221.561414 
L 492.072872 221.561414 
L 496.371793 230.521508 
L 522.165322 230.521508 
L 526.464243 214.841344 
L 543.659929 214.841344 
L 547.95885 224.249442 
L 565.154536 224.249442 
L 569.453457 230.521508 
L 586.649143 230.521508 
L 590.948064 167.800854 
L 595.246986 167.800854 
L 599.545907 156.397098 
L 608.14375 156.397098 
L 612.442671 219.117752 
L 616.741593 219.117752 
L 621.040514 230.521508 
L 711.317864 230.521508 
L 715.616785 216.583585 
L 732.812471 216.583585 
L 737.111393 146.893969 
L 741.410314 146.893969 
L 745.709235 125.987084 
L 754.307078 125.987084 
L 758.606 209.614623 
L 762.904921 209.614623 
L 767.203842 230.521508 
L 797.296292 230.521508 
L 801.595214 209.614623 
L 814.491978 209.614623 
L 818.790899 188.707738 
L 818.790899 188.707738 
" style="fill:none;stroke:#a4a86f;stroke-linecap:square;stroke-width:2;"/>
   </g>
   <g id="line2d_23">
    <path clip-path="url(#p9755218763)" d="M 384.599836 229.650387 
L 388.898758 230.521508 
L 393.197679 230.521508 
L 397.496601 230.521508 
L 401.795522 230.521508 
L 406.094443 230.521508 
L 410.393365 230.521508 
L 414.692286 230.521508 
L 418.991208 230.521508 
L 423.290129 230.521508 
L 427.58905 230.521508 
L 431.887972 230.521508 
L 436.186893 230.521508 
L 440.485815 230.521508 
L 444.784736 230.521508 
L 449.083658 230.521508 
L 453.382579 230.521508 
L 457.6815 230.521508 
L 461.980422 230.521508 
L 466.279343 230.521508 
L 470.578265 230.521508 
L 474.877186 230.521508 
L 479.176107 230.521508 
L 483.475029 230.521508 
L 487.77395 230.521508 
L 492.072872 230.521508 
L 496.371793 230.521508 
L 500.670715 230.521508 
L 504.969636 230.521508 
L 509.268557 230.521508 
L 513.567479 230.521508 
L 517.8664 230.521508 
L 522.165322 230.521508 
L 526.464243 230.521508 
L 530.763164 230.521508 
L 535.062086 230.521508 
L 539.361007 230.521508 
L 543.659929 230.521508 
L 547.95885 230.521508 
L 552.257772 230.521508 
L 556.556693 230.521508 
L 560.855614 230.521508 
L 565.154536 230.521508 
L 569.453457 230.521508 
L 573.752379 230.521508 
L 578.0513 230.521508 
L 582.350221 230.521508 
L 586.649143 230.521508 
L 590.948064 230.521508 
L 595.246986 230.521508 
L 599.545907 230.521508 
L 603.844829 230.521508 
L 608.14375 230.521508 
L 612.442671 230.521508 
L 616.741593 230.521508 
L 621.040514 230.521508 
L 625.339436 230.521508 
L 629.638357 230.521508 
L 633.937279 230.521508 
L 638.2362 230.521508 
L 642.535121 230.521508 
L 646.834043 230.521508 
L 651.132964 230.521508 
L 655.431886 230.521508 
L 659.730807 230.521508 
L 664.029728 230.521508 
L 668.32865 230.521508 
L 672.627571 230.521508 
L 676.926493 230.521508 
L 681.225414 230.521508 
L 685.524336 230.521508 
L 689.823257 230.521508 
L 694.122178 230.521508 
L 698.4211 230.521508 
L 702.720021 229.878219 
" style="fill:none;stroke:#d3d3d3;stroke-linecap:square;stroke-width:2;"/>
   </g>
   <g id="patch_3">
    <path d="M 50.14375 230.521508 
L 50.14375 8.761508 
" style="fill:none;stroke:#000000;stroke-linecap:square;stroke-linejoin:miter;stroke-width:0.8;"/>
   </g>
   <g id="patch_4">
    <path d="M 50.14375 230.521508 
L 1166.14375 230.521508 
" style="fill:none;stroke:#000000;stroke-linecap:square;stroke-linejoin:miter;stroke-width:0.8;"/>
   </g>
   <g id="legend_1">
    <g id="line2d_24">
     <path d="M 1072.3325 19.240258 
L 1088.3325 19.240258 
" style="fill:none;stroke:#947383;stroke-linecap:square;stroke-width:2;"/>
    </g>
    <g id="line2d_25"/>
    <g id="text_19">
     <!-- Africa -->
     <g transform="translate(1094.7325 22.040258)scale(0.08 -0.08)">
      <defs>
       <path d="M 2188 4044 
L 1331 1722 
L 3047 1722 
L 2188 4044 
z
M 1831 4666 
L 2547 4666 
L 4325 0 
L 3669 0 
L 3244 1197 
L 1141 1197 
L 716 0 
L 50 0 
L 1831 4666 
z
" id="DejaVuSans-41" transform="scale(0.015625)"/>
       <path d="M 2375 4863 
L 2375 4384 
L 1825 4384 
Q 1516 4384 1395 4259 
Q 1275 4134 1275 3809 
L 1275 3500 
L 2222 3500 
L 2222 3053 
L 1275 3053 
L 1275 0 
L 697 0 
L 697 3053 
L 147 3053 
L 147 3500 
L 697 3500 
L 697 3744 
Q 697 4328 969 4595 
Q 1241 4863 1831 4863 
L 2375 4863 
z
" id="DejaVuSans-66" transform="scale(0.015625)"/>
      </defs>
      <use xlink:href="#DejaVuSans-41"/>
      <use x="64.783203" xlink:href="#DejaVuSans-66"/>
      <use x="99.988281" xlink:href="#DejaVuSans-72"/>
      <use x="141.101562" xlink:href="#DejaVuSans-69"/>
      <use x="168.884766" xlink:href="#DejaVuSans-63"/>
      <use x="223.865234" xlink:href="#DejaVuSans-61"/>
     </g>
    </g>
    <g id="line2d_26">
     <path d="M 1072.3325 30.982758 
L 1088.3325 30.982758 
" style="fill:none;stroke:#96c6ad;stroke-linecap:square;stroke-width:2;"/>
    </g>
    <g id="line2d_27"/>
    <g id="text_20">
     <!-- North America -->
     <g transform="translate(1094.7325 33.782758)scale(0.08 -0.08)">
      <defs>
       <path d="M 628 4666 
L 1478 4666 
L 3547 763 
L 3547 4666 
L 4159 4666 
L 4159 0 
L 3309 0 
L 1241 3903 
L 1241 0 
L 628 0 
L 628 4666 
z
" id="DejaVuSans-4e" transform="scale(0.015625)"/>
       <path d="M 3513 2113 
L 3513 0 
L 2938 0 
L 2938 2094 
Q 2938 2591 2744 2837 
Q 2550 3084 2163 3084 
Q 1697 3084 1428 2787 
Q 1159 2491 1159 1978 
L 1159 0 
L 581 0 
L 581 4863 
L 1159 4863 
L 1159 2956 
Q 1366 3272 1645 3428 
Q 1925 3584 2291 3584 
Q 2894 3584 3203 3211 
Q 3513 2838 3513 2113 
z
" id="DejaVuSans-68" transform="scale(0.015625)"/>
       <path d="M 3328 2828 
Q 3544 3216 3844 3400 
Q 4144 3584 4550 3584 
Q 5097 3584 5394 3201 
Q 5691 2819 5691 2113 
L 5691 0 
L 5113 0 
L 5113 2094 
Q 5113 2597 4934 2840 
Q 4756 3084 4391 3084 
Q 3944 3084 3684 2787 
Q 3425 2491 3425 1978 
L 3425 0 
L 2847 0 
L 2847 2094 
Q 2847 2600 2669 2842 
Q 2491 3084 2119 3084 
Q 1678 3084 1418 2786 
Q 1159 2488 1159 1978 
L 1159 0 
L 581 0 
L 581 3500 
L 1159 3500 
L 1159 2956 
Q 1356 3278 1631 3431 
Q 1906 3584 2284 3584 
Q 2666 3584 2933 3390 
Q 3200 3197 3328 2828 
z
" id="DejaVuSans-6d" transform="scale(0.015625)"/>
      </defs>
      <use xlink:href="#DejaVuSans-4e"/>
      <use x="74.804688" xlink:href="#DejaVuSans-6f"/>
      <use x="135.986328" xlink:href="#DejaVuSans-72"/>
      <use x="177.099609" xlink:href="#DejaVuSans-74"/>
      <use x="216.308594" xlink:href="#DejaVuSans-68"/>
      <use x="279.6875" xlink:href="#DejaVuSans-20"/>
      <use x="311.474609" xlink:href="#DejaVuSans-41"/>
      <use x="379.882812" xlink:href="#DejaVuSans-6d"/>
      <use x="477.294922" xlink:href="#DejaVuSans-65"/>
      <use x="538.818359" xlink:href="#DejaVuSans-72"/>
      <use x="579.931641" xlink:href="#DejaVuSans-69"/>
      <use x="607.714844" xlink:href="#DejaVuSans-63"/>
      <use x="662.695312" xlink:href="#DejaVuSans-61"/>
     </g>
    </g>
    <g id="line2d_28">
     <path d="M 1072.3325 42.725258 
L 1088.3325 42.725258 
" style="fill:none;stroke:#525886;stroke-linecap:square;stroke-width:2;"/>
    </g>
    <g id="line2d_29"/>
    <g id="text_21">
     <!-- United Kingdom -->
     <g transform="translate(1094.7325 45.525258)scale(0.08 -0.08)">
      <defs>
       <path d="M 556 4666 
L 1191 4666 
L 1191 1831 
Q 1191 1081 1462 751 
Q 1734 422 2344 422 
Q 2950 422 3222 751 
Q 3494 1081 3494 1831 
L 3494 4666 
L 4128 4666 
L 4128 1753 
Q 4128 841 3676 375 
Q 3225 -91 2344 -91 
Q 1459 -91 1007 375 
Q 556 841 556 1753 
L 556 4666 
z
" id="DejaVuSans-55" transform="scale(0.015625)"/>
       <path d="M 628 4666 
L 1259 4666 
L 1259 2694 
L 3353 4666 
L 4166 4666 
L 1850 2491 
L 4331 0 
L 3500 0 
L 1259 2247 
L 1259 0 
L 628 0 
L 628 4666 
z
" id="DejaVuSans-4b" transform="scale(0.015625)"/>
      </defs>
      <use xlink:href="#DejaVuSans-55"/>
      <use x="73.193359" xlink:href="#DejaVuSans-6e"/>
      <use x="136.572266" xlink:href="#DejaVuSans-69"/>
      <use x="164.355469" xlink:href="#DejaVuSans-74"/>
      <use x="203.564453" xlink:href="#DejaVuSans-65"/>
      <use x="265.087891" xlink:href="#DejaVuSans-64"/>
      <use x="328.564453" xlink:href="#DejaVuSans-20"/>
      <use x="360.351562" xlink:href="#DejaVuSans-4b"/>
      <use x="425.927734" xlink:href="#DejaVuSans-69"/>
      <use x="453.710938" xlink:href="#DejaVuSans-6e"/>
      <use x="517.089844" xlink:href="#DejaVuSans-67"/>
      <use x="580.566406" xlink:href="#DejaVuSans-64"/>
      <use x="644.042969" xlink:href="#DejaVuSans-6f"/>
      <use x="705.224609" xlink:href="#DejaVuSans-6d"/>
     </g>
    </g>
    <g id="line2d_30">
     <path d="M 1072.3325 54.467758 
L 1088.3325 54.467758 
" style="fill:none;stroke:#937252;stroke-linecap:square;stroke-width:2;"/>
    </g>
    <g id="line2d_31"/>
    <g id="text_22">
     <!-- Europe -->
     <g transform="translate(1094.7325 57.267758)scale(0.08 -0.08)">
      <defs>
       <path d="M 628 4666 
L 3578 4666 
L 3578 4134 
L 1259 4134 
L 1259 2753 
L 3481 2753 
L 3481 2222 
L 1259 2222 
L 1259 531 
L 3634 531 
L 3634 0 
L 628 0 
L 628 4666 
z
" id="DejaVuSans-45" transform="scale(0.015625)"/>
       <path d="M 1159 525 
L 1159 -1331 
L 581 -1331 
L 581 3500 
L 1159 3500 
L 1159 2969 
Q 1341 3281 1617 3432 
Q 1894 3584 2278 3584 
Q 2916 3584 3314 3078 
Q 3713 2572 3713 1747 
Q 3713 922 3314 415 
Q 2916 -91 2278 -91 
Q 1894 -91 1617 61 
Q 1341 213 1159 525 
z
M 3116 1747 
Q 3116 2381 2855 2742 
Q 2594 3103 2138 3103 
Q 1681 3103 1420 2742 
Q 1159 2381 1159 1747 
Q 1159 1113 1420 752 
Q 1681 391 2138 391 
Q 2594 391 2855 752 
Q 3116 1113 3116 1747 
z
" id="DejaVuSans-70" transform="scale(0.015625)"/>
      </defs>
      <use xlink:href="#DejaVuSans-45"/>
      <use x="63.183594" xlink:href="#DejaVuSans-75"/>
      <use x="126.5625" xlink:href="#DejaVuSans-72"/>
      <use x="165.425781" xlink:href="#DejaVuSans-6f"/>
      <use x="226.607422" xlink:href="#DejaVuSans-70"/>
      <use x="290.083984" xlink:href="#DejaVuSans-65"/>
     </g>
    </g>
    <g id="line2d_32">
     <path d="M 1072.3325 66.210258 
L 1088.3325 66.210258 
" style="fill:none;stroke:#d18cad;stroke-linecap:square;stroke-width:2;"/>
    </g>
    <g id="line2d_33"/>
    <g id="text_23">
     <!-- Asia -->
     <g transform="translate(1094.7325 69.010258)scale(0.08 -0.08)">
      <defs>
       <path d="M 2834 3397 
L 2834 2853 
Q 2591 2978 2328 3040 
Q 2066 3103 1784 3103 
Q 1356 3103 1142 2972 
Q 928 2841 928 2578 
Q 928 2378 1081 2264 
Q 1234 2150 1697 2047 
L 1894 2003 
Q 2506 1872 2764 1633 
Q 3022 1394 3022 966 
Q 3022 478 2636 193 
Q 2250 -91 1575 -91 
Q 1294 -91 989 -36 
Q 684 19 347 128 
L 347 722 
Q 666 556 975 473 
Q 1284 391 1588 391 
Q 1994 391 2212 530 
Q 2431 669 2431 922 
Q 2431 1156 2273 1281 
Q 2116 1406 1581 1522 
L 1381 1569 
Q 847 1681 609 1914 
Q 372 2147 372 2553 
Q 372 3047 722 3315 
Q 1072 3584 1716 3584 
Q 2034 3584 2315 3537 
Q 2597 3491 2834 3397 
z
" id="DejaVuSans-73" transform="scale(0.015625)"/>
      </defs>
      <use xlink:href="#DejaVuSans-41"/>
      <use x="68.408203" xlink:href="#DejaVuSans-73"/>
      <use x="120.507812" xlink:href="#DejaVuSans-69"/>
      <use x="148.291016" xlink:href="#DejaVuSans-61"/>
     </g>
    </g>
    <g id="line2d_34">
     <path d="M 1072.3325 77.952758 
L 1088.3325 77.952758 
" style="fill:none;stroke:#a4a86f;stroke-linecap:square;stroke-width:2;"/>
    </g>
    <g id="line2d_35"/>
    <g id="text_24">
     <!-- Oceania -->
     <g transform="translate(1094.7325 80.752758)scale(0.08 -0.08)">
      <defs>
       <path d="M 2522 4238 
Q 1834 4238 1429 3725 
Q 1025 3213 1025 2328 
Q 1025 1447 1429 934 
Q 1834 422 2522 422 
Q 3209 422 3611 934 
Q 4013 1447 4013 2328 
Q 4013 3213 3611 3725 
Q 3209 4238 2522 4238 
z
M 2522 4750 
Q 3503 4750 4090 4092 
Q 4678 3434 4678 2328 
Q 4678 1225 4090 567 
Q 3503 -91 2522 -91 
Q 1538 -91 948 565 
Q 359 1222 359 2328 
Q 359 3434 948 4092 
Q 1538 4750 2522 4750 
z
" id="DejaVuSans-4f" transform="scale(0.015625)"/>
      </defs>
      <use xlink:href="#DejaVuSans-4f"/>
      <use x="78.710938" xlink:href="#DejaVuSans-63"/>
      <use x="133.691406" xlink:href="#DejaVuSans-65"/>
      <use x="195.214844" xlink:href="#DejaVuSans-61"/>
      <use x="256.494141" xlink:href="#DejaVuSans-6e"/>
      <use x="319.873047" xlink:href="#DejaVuSans-69"/>
      <use x="347.65625" xlink:href="#DejaVuSans-61"/>
     </g>
    </g>
    <g id="line2d_36">
     <path d="M 1072.3325 89.695258 
L 1088.3325 89.695258 
" style="fill:none;stroke:#d3d3d3;stroke-linecap:square;stroke-width:2;"/>
    </g>
    <g id="line2d_37"/>
    <g id="text_25">
     <!-- South America -->
     <g transform="translate(1094.7325 92.495258)scale(0.08 -0.08)">
      <defs>
       <path d="M 3425 4513 
L 3425 3897 
Q 3066 4069 2747 4153 
Q 2428 4238 2131 4238 
Q 1616 4238 1336 4038 
Q 1056 3838 1056 3469 
Q 1056 3159 1242 3001 
Q 1428 2844 1947 2747 
L 2328 2669 
Q 3034 2534 3370 2195 
Q 3706 1856 3706 1288 
Q 3706 609 3251 259 
Q 2797 -91 1919 -91 
Q 1588 -91 1214 -16 
Q 841 59 441 206 
L 441 856 
Q 825 641 1194 531 
Q 1563 422 1919 422 
Q 2459 422 2753 634 
Q 3047 847 3047 1241 
Q 3047 1584 2836 1778 
Q 2625 1972 2144 2069 
L 1759 2144 
Q 1053 2284 737 2584 
Q 422 2884 422 3419 
Q 422 4038 858 4394 
Q 1294 4750 2059 4750 
Q 2388 4750 2728 4690 
Q 3069 4631 3425 4513 
z
" id="DejaVuSans-53" transform="scale(0.015625)"/>
      </defs>
      <use xlink:href="#DejaVuSans-53"/>
      <use x="63.476562" xlink:href="#DejaVuSans-6f"/>
      <use x="124.658203" xlink:href="#DejaVuSans-75"/>
      <use x="188.037109" xlink:href="#DejaVuSans-74"/>
      <use x="227.246094" xlink:href="#DejaVuSans-68"/>
      <use x="290.625" xlink:href="#DejaVuSans-20"/>
      <use x="322.412109" xlink:href="#DejaVuSans-41"/>
      <use x="390.820312" xlink:href="#DejaVuSans-6d"/>
      <use x="488.232422" xlink:href="#DejaVuSans-65"/>
      <use x="549.755859" xlink:href="#DejaVuSans-72"/>
      <use x="590.869141" xlink:href="#DejaVuSans-69"/>
      <use x="618.652344" xlink:href="#DejaVuSans-63"/>
      <use x="673.632812" xlink:href="#DejaVuSans-61"/>
     </g>
    </g>
   </g>
  </g>
 </g>
 <defs>
  <clipPath id="p9755218763">
   <rect height="221.76" width="1116" x="50.14375" y="8.761508"/>
  </clipPath>
 </defs>
</svg>
