<svg id="Layer_1" data-name="Layer 1" xmlns="http://www.w3.org/2000/svg" viewBox="0 0 118.38 125.9"><defs><style>.cls-1{fill:#2f3553;}.cls-1,.cls-10,.cls-11,.cls-13,.cls-16,.cls-2,.cls-21,.cls-22,.cls-23,.cls-24,.cls-28,.cls-29,.cls-3,.cls-30,.cls-31,.cls-4,.cls-5,.cls-6,.cls-7,.cls-8,.cls-9{stroke:#1d1d1b;}.cls-1,.cls-10,.cls-11,.cls-12,.cls-13,.cls-16,.cls-2,.cls-20,.cls-21,.cls-22,.cls-23,.cls-24,.cls-25,.cls-28,.cls-29,.cls-3,.cls-30,.cls-31,.cls-32,.cls-4,.cls-5,.cls-6,.cls-7,.cls-8,.cls-9{stroke-miterlimit:10;}.cls-1,.cls-10,.cls-11,.cls-12,.cls-13,.cls-14,.cls-15,.cls-16,.cls-17,.cls-18,.cls-19,.cls-2,.cls-20,.cls-21,.cls-22,.cls-23,.cls-24,.cls-25,.cls-26,.cls-28,.cls-29,.cls-3,.cls-31,.cls-32,.cls-4,.cls-5,.cls-6,.cls-7,.cls-8,.cls-9{stroke-width:0.75px;}.cls-12,.cls-14,.cls-2{fill:#5e9299;}.cls-17,.cls-3{fill:#82c0b0;}.cls-4{fill:#5e6ba6;}.cls-5{fill:#cfada7;}.cls-6{fill:#b6ebd3;}.cls-7{fill:#b98781;}.cls-8{fill:#63b09c;}.cls-9{fill:#77748b;}.cls-10{fill:#a2d0c4;}.cls-11{fill:#a2b9d0;}.cls-12,.cls-14,.cls-15,.cls-17,.cls-18,.cls-19,.cls-20,.cls-25,.cls-26,.cls-32{stroke:#000;}.cls-13{fill:#a49ed3;}.cls-14,.cls-15,.cls-17,.cls-18,.cls-19,.cls-26{stroke-linecap:round;stroke-linejoin:round;}.cls-15{fill:#476e73;}.cls-16,.cls-19{fill:#46507c;}.cls-18,.cls-23{fill:#9ea6c9;}.cls-20{fill:#c69d97;}.cls-21{fill:#618c92;}.cls-22{fill:#2f494d;}.cls-24{fill:#c8f0de;}.cls-25{fill:#3d6666;}.cls-26{fill:#638ab0;}.cls-27,.cls-32{fill:none;}.cls-28{fill:#74625e;}.cls-29{fill:#9ec9ae;}.cls-30{fill:#504a48;stroke-width:0.5px;}.cls-31{fill:#b1d4be;}.cls-33{fill:#fff;}</style></defs><path class="cls-1" d="M82.91,98.74c-.28-2.3-1.68-1.18-2.93-.85s-2.81,1.29-2.21,3.52a22.55,22.55,0,0,1,0,2.6c0,2.07,1.54,4.29,3.43,2.16C82.56,104.64,83.28,101.78,82.91,98.74Z" transform="translate(-4.41 -0.65)"/><path class="cls-1" d="M69,101.83c-.38-2.51,2.11-3,3.62-3s2.94.78,2.94,3.31c0,.46.59,3.49.7,3.9.58,2.2-1,3.26-3.79,1.54C70.47,106.3,69.51,105.15,69,101.83Z" transform="translate(-4.41 -0.65)"/><path class="cls-2" d="M114.33,23.7l-.45.39-2.15,1.75c-.43-.51-.85-1-1.29-1.52s-.87-1-1.32-1.48l2-1.89.42-.38C112.54,21.58,113.46,22.62,114.33,23.7Z" transform="translate(-4.41 -0.65)"/><path class="cls-3" d="M108.77,31.12l-2.23,1.66a50.06,50.06,0,0,0-4.27-5,51.19,51.19,0,0,0-4.89-4.42L100.84,19c.74.6,1.46,1.19,2.17,1.82l1.84-2.09c.5.43,1,.88,1.47,1.33l1.91-2,.38-.39c1,.95,2,1.93,3,2.94v0l-.42.38-2,1.89c.45.49.89,1,1.32,1.48L106.24,28C107.12,29,108,30,108.77,31.12Z" transform="translate(-4.41 -0.65)"/><path class="cls-4" d="M117,27.16l-.22.12-.07,0-.08.05-.15.08-.07,0-.34.17-.54.28a9,9,0,0,0-1.7,1.3L112,30.89h0c-.77.65-1.46,1.29-2.07,1.91-.38-.57-.78-1.13-1.19-1.68C108,30,107.12,29,106.24,28l4.2-3.65c.44.5.86,1,1.29,1.52l2.15-1.75.45-.39C115.26,24.81,116.14,26,117,27.16Z" transform="translate(-4.41 -0.65)"/><path class="cls-2" d="M74.62,4.78c-.65-.09-1.3-.17-2-.24s-1.32-.14-2-.19l.23-3.15h0c1.39.11,2.78.26,4.16.46Z" transform="translate(-4.41 -0.65)"/><path class="cls-5" d="M47.23,7.38c-.63.22-1.25.44-1.87.68s-1.23.48-1.84.74L42.3,5.9c1.29-.54,2.57-1,3.89-1.49Z" transform="translate(-4.41 -0.65)"/><path class="cls-6" d="M46.35,10.66c-.88.34-1.75.69-2.62,1.08S42,12.53,41.17,13L38.45,7.68l0,0C39.75,7,41,6.44,42.3,5.9l1.22,2.9c.61-.26,1.22-.51,1.84-.74Z" transform="translate(-4.41 -0.65)"/><path class="cls-7" d="M33.09,14.52c-.54.37-1.08.76-1.61,1.15s-1.06.8-1.57,1.21l-2.06-2.42.09-.07c1.1-.87,2.21-1.68,3.36-2.47Z" transform="translate(-4.41 -0.65)"/><path class="cls-5" d="M33.14,17.92c-.76.56-1.5,1.13-2.24,1.74s-1.44,1.21-2.13,1.85L24.7,17.17l.05-.05h0c1-.93,2-1.8,3.1-2.65l2.06,2.42c.51-.41,1-.82,1.57-1.21Z" transform="translate(-4.41 -0.65)"/><path class="cls-8" d="M24,22.23c-.45.48-.9,1-1.35,1.46s-.87,1-1.29,1.5l-2.45-2s0,0,0,0c.89-1.09,1.82-2.12,2.79-3.11h0Z" transform="translate(-4.41 -0.65)"/><path class="cls-8" d="M24.77,25.54c-.62.71-1.24,1.42-1.83,2.16S21.77,29.19,21.21,30l-4.5-3.27-.31-.22c.81-1.13,1.67-2.23,2.55-3.29l2.45,2c.42-.52.85-1,1.29-1.5Z" transform="translate(-4.41 -0.65)"/><path class="cls-9" d="M108.61,17.61l-.38.39-1.91,2c-.49-.45-1-.9-1.47-1.33s-1-.87-1.52-1.29l1.77-2.15.32-.41h0c1.09.88,2.14,1.8,3.16,2.74C108.6,17.6,108.6,17.61,108.61,17.61Z" transform="translate(-4.41 -0.65)"/><path class="cls-9" d="M104.85,18.7,103,20.79c-.71-.63-1.43-1.22-2.17-1.82s-1.51-1.15-2.27-1.7l3.5-4.94h0c1.15.81,2.25,1.64,3.34,2.51l-2.09,2.56C103.85,17.83,104.35,18.26,104.85,18.7Z" transform="translate(-4.41 -0.65)"/><path class="cls-4" d="M95.89,25.72l-1.74,2.17A43.26,43.26,0,0,0,90,25a44.45,44.45,0,0,0-4.43-2.45l6-12.54c.66.33,1.41.7,1.76.89L94.91,8c1.25.65,2.46,1.33,3.65,2.05l-.23.39L91.05,22.31A46.36,46.36,0,0,1,95.89,25.72Z" transform="translate(-4.41 -0.65)"/><path class="cls-10" d="M65.41,34.83c-.77,0-1.52.09-2.29.17s-1.51.21-2.27.35L54.26,2.22C55.63,2,57,1.73,58.4,1.55l4,30.73c1-.12,2-.2,2.95-.23Z" transform="translate(-4.41 -0.65)"/><path class="cls-11" d="M102.27,27.76l-2,1.94a47.08,47.08,0,0,0-4.38-4,46.36,46.36,0,0,0-4.84-3.41l7.28-11.87.23-.39c1.21.72,2.37,1.48,3.51,2.28l-3.5,4.94c.76.55,1.53,1.12,2.27,1.7l-3.46,4.37A51.19,51.19,0,0,1,102.27,27.76Z" transform="translate(-4.41 -0.65)"/><path class="cls-1" d="M77.82,28.35a35.46,35.46,0,0,0-4.66-1.22,34.41,34.41,0,0,0-4.76-.6L69.53,7.06c1,.07,1.89.13,2.82.25l.31-2.77c.66.07,1.31.15,2,.24l.45-3.13h0c1.37.2,2.73.43,4.09.72L74.45,24.54a39.49,39.49,0,0,1,4.26,1.17Z" transform="translate(-4.41 -0.65)"/><path class="cls-12" d="M90,25l-1.49,2.36A38.92,38.92,0,0,0,84,24.83a40.2,40.2,0,0,0-4.84-1.91l.73-2.26L84.14,7.44,84.28,7h0l1.88.65,1-2.62.13-.36c.64.22,1.27.46,1.91.71s1.33.53,2,.82l-.2.47L89.8,9.17l.89.35a3.23,3.23,0,0,1,.42.2l.54.25-6,12.54A44.45,44.45,0,0,1,90,25Z" transform="translate(-4.41 -0.65)"/><path class="cls-13" d="M68.29,32.1c-1-.06-2-.08-3-.05s-2,.11-2.95.23l-4-30.73c1.38-.18,2.77-.32,4.17-.4l1.7,28.17a31,31,0,0,1,4.2,0Z" transform="translate(-4.41 -0.65)"/><path class="cls-14" d="M72.35,7.31c-.93-.12-1.87-.18-2.82-.25S67.64,7,66.7,7l0-5.95c1.38,0,2.78.06,4.17.17l-.23,3.15c.66.05,1.32.11,2,.19Z" transform="translate(-4.41 -0.65)"/><path class="cls-12" d="M43.3,18.12A51.4,51.4,0,0,0,34.44,24l-3.54-4.3c.74-.61,1.48-1.18,2.24-1.74l-1.66-2.25c.53-.39,1.07-.78,1.61-1.15l-1.79-2.6h0Q33,10.74,34.75,9.72l4.53,7.45c.9-.54,1.82-1.05,2.75-1.52Z" transform="translate(-4.41 -0.65)"/><path class="cls-15" d="M63.44,37.77c-.62.07-1.25.16-1.86.28s-1.23.27-1.84.42L50.19,3.18c1.34-.37,2.7-.68,4.07-1l6.59,33.13c.76-.14,1.52-.26,2.27-.35Z" transform="translate(-4.41 -0.65)"/><path class="cls-16" d="M62.1,40.79A22.13,22.13,0,0,0,57.91,42a22.37,22.37,0,0,0-3.88,2L38.72,20.81a49,49,0,0,1,4.58-2.69L42,15.65c.93-.48,1.88-.94,2.83-1.37l-1.13-2.54c.87-.39,1.74-.74,2.62-1.08l-1-2.6c.62-.24,1.24-.46,1.87-.68l-1-3h0c1.31-.46,2.64-.86,4-1.23l9.55,35.29c.61-.15,1.22-.3,1.84-.42Z" transform="translate(-4.41 -0.65)"/><path class="cls-14" d="M86.16,7.66,84.28,7h0c-.63-.2-1.26-.39-1.9-.57l.91-3c1.33.37,2.65.79,3.95,1.27L87.11,5Z" transform="translate(-4.41 -0.65)"/><path class="cls-17" d="M44.86,14.28c-1,.43-1.9.89-2.83,1.37s-1.85,1-2.75,1.52L34.75,9.72l.07-.05h0C36,9,37.22,8.3,38.45,7.68L41.17,13c.85-.43,1.7-.83,2.56-1.22Z" transform="translate(-4.41 -0.65)"/><path class="cls-18" d="M59,44.6a19.56,19.56,0,0,0-7.85,5.83L22.94,27.7c.59-.74,1.21-1.45,1.83-2.16l-2.08-1.85c.45-.5.9-1,1.35-1.46L21.76,20c.95-1,1.92-2,2.94-2.86l4.07,4.34c.69-.64,1.41-1.26,2.13-1.85L34.44,24a48.54,48.54,0,0,1,4.28-3.15L54,44.06a22.37,22.37,0,0,1,3.88-2Z" transform="translate(-4.41 -0.65)"/><path class="cls-7" d="M72.64,29.86a34.21,34.21,0,0,0-4.17-.54,31,31,0,0,0-4.2,0L62.57,1.15C64,1.06,65.35,1,66.74,1l0,6c.94,0,1.88,0,2.83.08L68.4,26.53a34.41,34.41,0,0,1,4.76.6Z" transform="translate(-4.41 -0.65)"/><path class="cls-19" d="M84,24.83,82.8,27.35a40.09,40.09,0,0,0-4.09-1.64,39.49,39.49,0,0,0-4.26-1.17L79.17,2.37h0c1.36.29,2.72.63,4.07,1h0l-.91,3c.64.18,1.27.37,1.9.57l-.14.42L79.87,20.66l-.73,2.26A40.2,40.2,0,0,1,84,24.83Z" transform="translate(-4.41 -0.65)"/><path class="cls-20" d="M94.91,8l-1.5,2.86c-.35-.19-1.1-.56-1.76-.89h0c-.17-.08-.35-.17-.54-.24a3.23,3.23,0,0,0-.42-.2h0c-.27-.13-.54-.26-.81-.37l1.08-2.46.2-.47L93,7.1l1.77.84h0Z" transform="translate(-4.41 -0.65)"/><path class="cls-13" d="M16.74,31.6c-.35.57-.69,1.13-1,1.71s-.66,1.15-1,1.72L12,33.55c.65-1.24,1.34-2.44,2.08-3.61Z" transform="translate(-4.41 -0.65)"/><path class="cls-16" d="M18.12,34.7c-.47.82-.93,1.65-1.36,2.49s-.84,1.69-1.23,2.55l-5.38-2.43c.56-1.28,1.17-2.54,1.84-3.76L14.75,35c.31-.57.64-1.16,1-1.72Z" transform="translate(-4.41 -0.65)"/><path class="cls-21" d="M19.24,38.46c-.49.94-.93,1.88-1.36,2.84s-.81,1.93-1.18,2.91l-8.13-3c.16-.44.32-.87.5-1.31.34-.86.69-1.71,1.08-2.55l5.38,2.43q.59-1.29,1.23-2.55Z" transform="translate(-4.41 -0.65)"/><path class="cls-21" d="M20.1,52.31,6.22,49.19c.29-1.36.64-2.69,1-4h0l11,3.26c.31-1,.64-2,1-3l2.61,1c-.35,1-.69,2-1,3S20.33,51.29,20.1,52.31Z" transform="translate(-4.41 -0.65)"/><path class="cls-16" d="M5,57.45H5c.1-1.37.26-2.75.47-4.14l3,.47c-.1.65-.19,1.31-.27,2s-.14,1.31-.21,2Z" transform="translate(-4.41 -0.65)"/><path class="cls-4" d="M7.89,65.64l-3,.15c-.08-1.38-.12-2.78-.09-4.18l3,.07c0,.66,0,1.32,0,2S7.85,65,7.89,65.64Z" transform="translate(-4.41 -0.65)"/><path class="cls-4" d="M11,69.27,5.28,70s0-.06,0-.08c-.17-1.38-.3-2.76-.38-4.16l3-.15c0-.66-.06-1.33-.07-2l2.78,0c0,.94.06,1.9.12,2.83S10.87,68.33,11,69.27Z" transform="translate(-4.41 -0.65)"/><path class="cls-22" d="M28,69.9,5.92,74c-.25-1.31-.47-2.62-.64-4L11,69.27c-.12-.94-.2-1.88-.27-2.83l13.89-.94a41,41,0,0,1,0-5.65l2.78.2a38.77,38.77,0,0,0,0,4.94A40.16,40.16,0,0,0,28,69.9Z" transform="translate(-4.41 -0.65)"/><path class="cls-23" d="M10.82,81.19l-2.72.92c-.45-1.31-.86-2.65-1.23-4l2.82-.73c.17.64.34,1.28.53,1.91S10.61,80.57,10.82,81.19Z" transform="translate(-4.41 -0.65)"/><path class="cls-1" d="M13.84,88.53l-2.49,1.32,0-.07c-.62-1.22-1.19-2.47-1.73-3.76l2.62-1.1c.26.6.52,1.21.79,1.81S13.55,87.94,13.84,88.53Z" transform="translate(-4.41 -0.65)"/><path class="cls-1" d="M51.22,69.48l-3.55,3.18-1,.86L36,83.16l-5.85,5.25c-.57-1.1-1.1-2.21-1.61-3.35L13.3,93.45s0,0,0,0c-.69-1.16-1.33-2.36-1.93-3.58l0,0,2.44-1.3h0c-.3-.58-.57-1.19-.85-1.79l21.28-9.61,12.11-5.46.72-.32,1.36-.62.47-.22.48-.21Z" transform="translate(-4.41 -0.65)"/><path class="cls-14" d="M31.94,91.62l-.43.32-.18.13-.58.43-1.54,1.11-.05,0c-.3-.49-.6-1-.88-1.49L28.2,92c-.31-.55-.61-1.11-.91-1.66L16,97.6c-.94-1.35-1.84-2.73-2.66-4.15l15.2-8.39c.51,1.14,1,2.25,1.61,3.35S31.3,90.57,31.94,91.62Z" transform="translate(-4.41 -0.65)"/><path class="cls-5" d="M31.24,96.8,28.59,99h0c-.71-1-1.4-2-2-3.08l-7.62,5.59c-1-1.26-2-2.55-2.95-3.89l11.33-7.24c.3.55.6,1.11.91,1.66l.08.13c.28.5.58,1,.88,1.49h0c.43.69.86,1.37,1.32,2l.21.31C30.87,96.27,31.05,96.54,31.24,96.8Z" transform="translate(-4.41 -0.65)"/><path class="cls-16" d="M30.42,106.82l-3.09,3.08h0c-.59-.49-1.17-1-1.75-1.51-1.19-1.05-2.34-2.16-3.44-3.31l4.11-3.45c.66.91,1.33,1.78,2,2.65.35.44.7.86,1.06,1.28S30.05,106.41,30.42,106.82Z" transform="translate(-4.41 -0.65)"/><path class="cls-24" d="M18.23,48.4l-11-3.26c.39-1.33.83-2.65,1.31-4l8.13,3c.37-1,.77-2,1.18-2.91l2.55,1.12c-.43,1-.83,2-1.19,3S18.54,47.38,18.23,48.4Z" transform="translate(-4.41 -0.65)"/><path class="cls-5" d="M22,57.39,8.22,55.74c.08-.66.17-1.32.27-2l-3-.47c.2-1.37.45-2.74.75-4.1h0L20.1,52.31c.23-1,.48-2,.78-3l2.67.78c-.36,1.19-.66,2.41-.9,3.62S22.2,56.15,22,57.39Z" transform="translate(-4.41 -0.65)"/><path class="cls-25" d="M50.77,56.49a16.64,16.64,0,0,0-.94,9.07l-19.2,3.38a40.93,40.93,0,0,1-.48-4.12L27.37,65a38.77,38.77,0,0,1,0-4.94l-2.78-.2a42.41,42.41,0,0,1,.76-5.59l-2.72-.56c.24-1.21.54-2.43.9-3.62l-2.67-.78c.28-1,.62-2,1-3l-2.61-1c.36-1,.76-2,1.19-3L17.88,41.3c.43-1,.87-1.9,1.36-2.84l-2.48-1.27c.43-.84.89-1.67,1.36-2.49l-2.4-1.39c.33-.58.67-1.14,1-1.71l-2.67-1.66h0c.73-1.2,1.51-2.35,2.33-3.47l.31.22L21.21,30c.56-.76,1.14-1.51,1.73-2.25L51.11,50.43A19.75,19.75,0,0,1,54.66,47l1.67,2.23A16.66,16.66,0,0,0,50.77,56.49Z" transform="translate(-4.41 -0.65)"/><path class="cls-7" d="M24.61,65.5l-13.89.94c-.06-.93-.11-1.89-.12-2.83l-2.78,0c0-.66,0-1.32,0-2l-3-.07c0-1.38.07-2.76.19-4.16l3,.26c.07-.66.13-1.31.21-2L22,57.39c.16-1.24.35-2.47.61-3.69l2.72.56a42.41,42.41,0,0,0-.76,5.59A41,41,0,0,0,24.61,65.5Z" transform="translate(-4.41 -0.65)"/><path class="cls-19" d="M53.61,68.4l-2.39,1.08-1.8.81-.48.21-.48.22L13,86.73c-.27-.6-.53-1.21-.79-1.81L9.59,86h0v0c-.53-1.27-1-2.57-1.47-3.89l2.73-.91c-.22-.62-.41-1.26-.6-1.89L31.58,73a34.48,34.48,0,0,1-.94-4l19.2-3.38a16.63,16.63,0,0,1,.93-9.07l2.59,1a13.83,13.83,0,0,0,.25,10.88Z" transform="translate(-4.41 -0.65)"/><path class="cls-3" d="M31.58,73,10.22,79.3c-.19-.63-.36-1.27-.53-1.91l-2.82.73c-.35-1.33-.66-2.69-.93-4.06,0,0,0,0,0-.07L28,69.9A40.16,40.16,0,0,1,27.37,65l2.78-.17a40.93,40.93,0,0,0,.48,4.12A37.41,37.41,0,0,0,31.58,73Z" transform="translate(-4.41 -0.65)"/><path class="cls-23" d="M40.26,98.53A10.35,10.35,0,0,0,38,101.14a10.91,10.91,0,0,0-1.18,8.16L33,114.05c-1.32-.84-2.57-1.73-3.81-2.66h0c-.64-.48-1.26-1-1.87-1.47h0l3.09-3.08h0c-.37-.41-.74-.83-1.1-1.25s-.71-.84-1.06-1.28l2.54-2.35-1.14-1.46c-.37-.49-.73-1-1.08-1.49l2.65-2.19-.55-.8-.21-.31q-.68-1-1.32-2h0l.05,0,1.54-1.11.58-.43.18-.13.43-.32c-.64-1.05-1.25-2.11-1.83-3.21L36,83.16c.46.52.92,1,1.36,1.48l.83.86.09.09A14,14,0,0,0,39,89a3.64,3.64,0,0,0-.91,1.57s.45,2.33,1.19,4.94c.14.48.28,1,.43,1.45S40.07,98,40.26,98.53Z" transform="translate(-4.41 -0.65)"/><polygon class="cls-23" points="24.17 98.32 26.83 96.14 24.18 98.33 24.17 98.33 24.17 98.32"/><path class="cls-23" d="M47.38,101.4l-3.87,5.4-1.17,1.62-.16-.13c-.85-.66-1.68-1.35-2.48-2.06l-.2-.18-2.64,3.25A10.91,10.91,0,0,1,38,101.14a10.35,10.35,0,0,1,2.22-2.61c-.19-.51-.37-1-.55-1.58.55.29,1.09.55,1.58.78s.82.38,1.18.53c1.32.56,2.18.82,2.18.82l1.65,1.42Z" transform="translate(-4.41 -0.65)"/><path class="cls-23" d="M30.81,101.94l-2.54,2.35c-.7-.87-1.37-1.74-2-2.65l-4.11,3.45c-1.13-1.15-2.2-2.36-3.22-3.6l7.62-5.59c.65,1,1.34,2.07,2,3.08h0c.35.5.72,1,1.09,1.49Z" transform="translate(-4.41 -0.65)"/><path class="cls-25" d="M90.94,76.14a10,10,0,0,1,2.2-1.6.53.53,0,0,1,.1-.06c2.06-1.09-1.62-3.79-4.91-5.77-2.19-1.33-4.21-2.33-4.21-2.33s-2.25-.3-5.76,3.39A6.12,6.12,0,0,0,77,71.67a2.32,2.32,0,0,0,1.48,3.08,9,9,0,0,0,1,1.35h0l.07.09a10,10,0,0,0,5.16,3.27,9.42,9.42,0,0,0,3.71.14A11.19,11.19,0,0,1,90.94,76.14Z" transform="translate(-4.41 -0.65)"/><path class="cls-25" d="M73,68.92a3.57,3.57,0,0,1,2.47-4.06c3.09-1.11,7.16,2,7.16,2s-4.7,3-5.48,6.19Z" transform="translate(-4.41 -0.65)"/><path class="cls-25" d="M99.19,114.68c14.73-5.67,10.07-34,10.07-34-2-7.81-8.87-12.94-15.44-11.47s-10.3,9-8.34,16.81c1.13,4.5,3.41,7.81,6.81,9.78.21.1,1.56,1,1.75,1.08,6.62,4,3.48,14.83,3.48,14.83,1-.57,2.4-3.5,2.4-3.5a13.7,13.7,0,0,0,.94-5.61L100,92.26c5.21,7.69,2.21,16.49-.8,22.42Z" transform="translate(-4.41 -0.65)"/><path class="cls-12" d="M56,112.93l-2.15,3.26c-1.15-.74-2.28-1.53-3.38-2.33l-4.06,5.5h0c-1.55-.82-3.06-1.68-4.51-2.6l7.43-8.83c1,.92,2.14,1.79,3.25,2.62S54.82,112.17,56,112.93Z" transform="translate(-4.41 -0.65)"/><path class="cls-26" d="M57.37,118.32l-2.55,4.81-.31-.12c-1.17-.45-2.32-.92-3.45-1.42h0c-1.6-.69-3.14-1.44-4.65-2.23l4.06-5.5c1.1.8,2.23,1.59,3.38,2.33S56.17,117.65,57.37,118.32Z" transform="translate(-4.41 -0.65)"/><path class="cls-22" d="M67.68,65.83a3.73,3.73,0,0,1-.54,0c-.36,0-.85,0-1.48.08h0a23.53,23.53,0,0,0-3.28.41l-.69.14h0a20.51,20.51,0,0,0-3.83,1.24l-.31.15c-.45.21-.89.45-1.33.7a0,0,0,0,0,0,0,13.77,13.77,0,0,0-3,2.39,2.38,2.38,0,0,0-.34.38,4.64,4.64,0,0,0-.37.42,12.85,12.85,0,0,0-1.8,3c-1.23,2.86-1.75,6.64-1,11.64a1.46,1.46,0,0,0-.13.55,4.36,4.36,0,0,0,0,.88c0,.11,0,.22,0,.35a21.29,21.29,0,0,0,2,6s0,0,0,0c.11.24.24.49.36.75A.33.33,0,0,1,52,95l0,.08a.93.93,0,0,1,.05.1h-.05a4.88,4.88,0,0,1-2.36-.52c-.21-.08-.42-.18-.65-.29a27.06,27.06,0,0,1-5.34-3.63c-.36-.3-.72-.61-1.1-1-.58-.49-1.19-1-1.83-1.66L40.69,88l-.33-.31L39.61,87c-.16-.17-.32-.34-.5-.5s-.23-.24-.36-.36-.33-.36-.51-.55l-.09-.09-.83-.86c-.44-.47-.9-1-1.36-1.48l0,0c-.51-.56-1-1.15-1.59-1.78,0,0,0,0,0,0a7.41,7.41,0,0,1-.26-2.55,10.57,10.57,0,0,1,.2-1.64q.06-.33.15-.69s0,0,0-.07a.11.11,0,0,1,0-.08s0-.07,0-.11A18.72,18.72,0,0,1,36.87,71a26.13,26.13,0,0,1,2.84-3.65c.37-.41.76-.82,1.18-1.23s.82-.78,1.26-1.17a37.6,37.6,0,0,1,3.49-2.75c.87-.62,1.81-1.22,2.81-1.81.44-.27.89-.52,1.35-.77l.06,0h0c.43-.25.88-.48,1.34-.72.64-.33,1.31-.65,2-1l.63-.29a62,62,0,0,1,6-2.34l.66-.32.31-.14s2.08.83,4.15,4.43a18.14,18.14,0,0,1,1,2.07l.18.47c0,.13.11.29.17.47C66.87,63.57,67.69,65.82,67.68,65.83Z" transform="translate(-4.41 -0.65)"/><path class="cls-20" d="M45.7,79.4s7.53,20.14,24.24,25c0,0,1.41,1.3,9.1-.19,0,0,6.25-1.75,9.19-19.7,0,0,1.23-7-1.75-17.22a31.42,31.42,0,0,1-.32-5.65c.22-1.8-1.88,4.69-1.88,4.69s1.33-7.17-.92-9.35c0,0-.6,6.29-1.58,6.72-.78.35-5.84-3.33-14.14-2.14a27.69,27.69,0,0,0-7.11,2.07,49.72,49.72,0,0,1-5.4-4.4c-1.22-1.39.9,5.73,1.41,6.29,0,0-5.42.3-5.79,4.08l-6.39-1.94L47,72.9A12.26,12.26,0,0,0,45.7,79.4Z" transform="translate(-4.41 -0.65)"/><path class="cls-27" d="M82.14,89.4s3,1.48,3.63-1.78" transform="translate(-4.41 -0.65)"/><path class="cls-28" d="M80.35,65a11.15,11.15,0,0,0-1-12.58s0-2.79,6,4S84,67.1,84,67.1,83.26,68.31,80.35,65Z" transform="translate(-4.41 -0.65)"/><path class="cls-14" d="M76.56,66.13A10.3,10.3,0,0,0,75.93,55s0-2.48,5,3.47-1.34,9.5-1.34,9.5S79,69,76.56,66.13Z" transform="translate(-4.41 -0.65)"/><path class="cls-29" d="M81.47,69.9a7,7,0,0,0-.9-8.25s0-1.82,4.24,2.72S84,71.32,84,71.32,83.54,72.1,81.47,69.9Z" transform="translate(-4.41 -0.65)"/><path class="cls-29" d="M64.2,65.92a2.32,2.32,0,0,1-.92.25,11.65,11.65,0,0,1-3.78-.47,12.6,12.6,0,0,0-.6-2.4c-.11-.35-.25-.72-.41-1.1a16.35,16.35,0,0,0-1.62-3.06v0c-.37-.52-.77-1-1.24-1.59a15.72,15.72,0,0,0-7.24-4.67s-2.25-3,9-.2a12.59,12.59,0,0,1,4.89,2.21,7.61,7.61,0,0,1,2.74,4,9.36,9.36,0,0,1,.3,3.43c0,.21-.05.37-.07.48a.82.82,0,0,1,0,.22h0a10.11,10.11,0,0,1-.56,2.19S64.77,65.62,64.2,65.92Z" transform="translate(-4.41 -0.65)"/><path class="cls-28" d="M58.21,68a4.78,4.78,0,0,0-.11-.6,9.53,9.53,0,0,0-.31-1.12,10.73,10.73,0,0,0-1.27-2.46A9.61,9.61,0,0,0,54.82,62a10.87,10.87,0,0,0-4.36-2.19.47.47,0,0,1-.1-.22c-.07-.26,0-.67,1.37-.73a18.62,18.62,0,0,1,3.72.33h0l.26,0L57,59.5c2.8.55,4.26,1.68,5,2.92a4.61,4.61,0,0,1,.39.93,5.56,5.56,0,0,1,.13,2.41c0,.12,0,.24-.05.34a7.19,7.19,0,0,1-.23.85,4.39,4.39,0,0,1-.24.64S62.14,68.82,58.21,68Z" transform="translate(-4.41 -0.65)"/><path class="cls-28" d="M65.06,65.46a9.26,9.26,0,0,0-7.34-7.65S56.25,56,64,57.45,68.67,65,68.67,65,68.79,66.16,65.06,65.46Z" transform="translate(-4.41 -0.65)"/><path class="cls-14" d="M53.35,71.38c-.21,0-.43-.06-.68-.1l-.36-.07-.2,0a10,10,0,0,0-.38-1.7c-.12-.39-.29-.83-.48-1.3-.07-.17-.15-.35-.24-.53a6.49,6.49,0,0,0-.33-.64,12.7,12.7,0,0,0-5.62-5.38,14.78,14.78,0,0,0-2.82-1.06s-1.65-2.07,5.79-.86c.75.13,1.58.28,2.51.47a12.38,12.38,0,0,1,3.81,1.35,7.41,7.41,0,0,1,1.59,1.23,5.86,5.86,0,0,1,1.65,3.48,6.5,6.5,0,0,1,0,1.39,8.48,8.48,0,0,1-.29,1.78,7.56,7.56,0,0,1-.42,1.22S57,71.92,53.35,71.38Z" transform="translate(-4.41 -0.65)"/><path class="cls-3" d="M51,74.66a10.54,10.54,0,0,1-2.85.16,11.77,11.77,0,0,0-9.52-7.92c-.24-.05-.49-.08-.74-.11,0,0-1.13-1,1.9-1.41A31.69,31.69,0,0,1,45,65.29a9.91,9.91,0,0,1,4.43,1.08,5.29,5.29,0,0,1,.87.59,4.64,4.64,0,0,1,.4.36,5.14,5.14,0,0,1,1.18,1.76,5.75,5.75,0,0,1,.39,1.38,3.31,3.31,0,0,1,.06.54,7.76,7.76,0,0,1-.17,2.65S52.4,74.34,51,74.66Z" transform="translate(-4.41 -0.65)"/><path class="cls-25" d="M54.41,74a7.29,7.29,0,0,0-5.91-6s-1.19-1.42,5.08-.31,3.76,6,3.76,6S57.43,74.55,54.41,74Z" transform="translate(-4.41 -0.65)"/><path class="cls-29" d="M63,69.72s-.35-5.33-7-6.66c0,0-1.4-1.57,6.21-.5s4.39,6.65,4.39,6.65S66.64,70.24,63,69.72Z" transform="translate(-4.41 -0.65)"/><path class="cls-25" d="M52.08,95.1v.11l0,.38a9.58,9.58,0,0,1-1,3.34,13.38,13.38,0,0,0-4.55,1.46l-.2.11a11.41,11.41,0,0,0-2.23,1.6l-.1.09c-1.36,1.28-2.67-.87-3.71-3.66-.19-.51-.37-1-.55-1.58s-.29-1-.43-1.45c-.74-2.61-1.19-4.94-1.19-4.94A3.64,3.64,0,0,1,39,89a9.08,9.08,0,0,1,1.36-1.26,17,17,0,0,1,3.23-1.92,7.21,7.21,0,0,1,2.47-.74,3,3,0,0,1,1.25.14,2.7,2.7,0,0,1,1.62,2.29,9.77,9.77,0,0,1,.66.73c.15.18.32.4.5.64,0,0,0,0,0,0l.08.1A10.07,10.07,0,0,1,52.08,95.1Z" transform="translate(-4.41 -0.65)"/><path class="cls-25" d="M47.52,85.58c-2.37-.13-5.13,1.36-6.83,2.46-1,.64-1.61,1.15-1.61,1.15L39,89a14,14,0,0,1-.76-3.4,5.87,5.87,0,0,1,1-4.2,4.21,4.21,0,0,1,5.18-1.23l2.93,5Z" transform="translate(-4.41 -0.65)"/><path class="cls-25" d="M85.61,120.45s0,0,0,0c-9.83,11.86-34.92,1.88-39.37,0l-.05,0-.63-.28A17.31,17.31,0,0,1,37,109.63a2,2,0,0,1-.09-.33A10.91,10.91,0,0,1,38,101.14a10.35,10.35,0,0,1,2.22-2.61,9.8,9.8,0,0,1,1-.8,15.3,15.3,0,0,1,10.76-2.14A19.66,19.66,0,0,1,58,97.43c.32.15.63.32.94.49a20.1,20.1,0,0,1,5.17,4,13.83,13.83,0,0,1,3.26,5.86c0,.24.54,1.86.61,2.09,2.26,7.87,14.95,8,14.95,8-.94.85-4.54,1.33-4.54,1.33a16.64,16.64,0,0,1-6.38-.77l-10.88-4C67.77,122,78.24,121.66,85.61,120.45Z" transform="translate(-4.41 -0.65)"/><path class="cls-30" d="M114.38,47.7s4.9,3.36,4.1,6.9-6.69,2.06-6.69,2.06a4.06,4.06,0,0,0,3.48-3.28c.42-2.9-2.72-5.7-2.72-5.7l-1-.9Z" transform="translate(-4.41 -0.65)"/><path class="cls-30" d="M111.42,46.7s-12.52-6.88-1-15.69c.56-.43,1.18-.87,1.87-1.3.33-.22.68-.44,1.06-.65s.46-.28.72-.42a9.55,9.55,0,0,0-1.57,1.46,10.27,10.27,0,0,0-1.46,2.17l0,0s0,.11-.08.16c-.13.3-.27.61-.39.93a7.46,7.46,0,0,0-.26.84c0,.14-.08.27-.11.41a2.23,2.23,0,0,0-.09.39C109.52,37.85,109.68,41.64,111.42,46.7Z" transform="translate(-4.41 -0.65)"/><path class="cls-31" d="M117.66,55.07,115,53.62c-5.22-8-5.71-14-4.68-18.16,0-.13.07-.26.1-.39l.12-.41c.1-.3.2-.58.3-.86s.27-.65.41-.95c0-.06.06-.11.08-.16l0-.07a13.44,13.44,0,0,1,1.44-2.3,8.7,8.7,0,0,1,.89-1c.19-.21.38-.39.53-.54a9.64,9.64,0,0,1,.84-.69l1-.45.27-.12.06,0,.12-.06.07,0h0l.18-.09h0l0,0s0,0,0,0c6.63,7.77,6.06,15.54,4.28,20.89A24.23,24.23,0,0,1,117.66,55.07Z" transform="translate(-4.41 -0.65)"/><path class="cls-31" d="M91.65,51.24s.48-7.21,8.83-7.33a3.63,3.63,0,0,0,.13,4S96.07,44.41,91.65,51.24Z" transform="translate(-4.41 -0.65)"/><path class="cls-15" d="M113.82,49.45a8.2,8.2,0,0,0-2.24-2.67c-1.94-1.59-5.37-3.23-11.1-2.87,0,0-.74,2.84.13,4s2.29,9.39,11.91,8.74C112.52,56.62,118.6,55.5,113.82,49.45Z" transform="translate(-4.41 -0.65)"/><path class="cls-1" d="M46.19,120.43l-2.36-.9C42.51,119,41,118.4,40.07,118c-1.49-.65-6.54-3.62-6.54-3.62L37,109.63a17.31,17.31,0,0,0,8.61,10.52Z" transform="translate(-4.41 -0.65)"/><path class="cls-32" d="M82.91,100.5" transform="translate(-4.41 -0.65)"/><ellipse class="cls-1" cx="73.31" cy="78.67" rx="3.12" ry="3.35"/><circle class="cls-33" cx="74.95" cy="76.85" r="0.49"/><ellipse class="cls-1" cx="63.83" cy="80.36" rx="3.21" ry="3.45"/><circle class="cls-33" cx="65.24" cy="78.73" r="0.55"/></svg>