<?xml version="1.0" encoding="utf-8"?>
<!-- Generator: Adobe Illustrator 25.0.1, SVG Export Plug-In . SVG Version: 6.00 Build 0)  -->
<svg version="1.1"
	 id="svg2" inkscape:version="0.91 r13725" sodipodi:docname="uk-svg-map.svg" xmlns:cc="http://creativecommons.org/ns#" xmlns:dc="http://purl.org/dc/elements/1.1/" xmlns:inkscape="http://www.inkscape.org/namespaces/inkscape" xmlns:rdf="http://www.w3.org/1999/02/22-rdf-syntax-ns#" xmlns:sodipodi="http://sodipodi.sourceforge.net/DTD/sodipodi-0.dtd" xmlns:svg="http://www.w3.org/2000/svg"
	 xmlns="http://www.w3.org/2000/svg" xmlns:xlink="http://www.w3.org/1999/xlink" x="0px" y="0px" viewBox="0 0 600 600"
	 style="enable-background:new 0 0 600 600;" xml:space="preserve">
<style type="text/css">
	.st0{display:none;}
	.st1{fill:#C5C5D3;stroke:#FFFFFF;stroke-width:2;}
</style>
<sodipodi:namedview  bordercolor="#666666" borderopacity="1" fit-margin-bottom="0" fit-margin-left="0" fit-margin-right="0" fit-margin-top="0" gridtolerance="10" guidetolerance="10" id="namedview1127" inkscape:current-layer="Subunits" inkscape:cx="245.7449" inkscape:cy="304.68038" inkscape:pageopacity="0" inkscape:pageshadow="2" inkscape:window-height="1123" inkscape:window-maximized="1" inkscape:window-width="1920" inkscape:window-x="-9" inkscape:window-y="-9" inkscape:zoom="1.4769576" objecttolerance="10" pagecolor="#ffffff" showgrid="false">
	</sodipodi:namedview>
<g id="layer1" transform="translate(420.7199,4107.559)" inkscape:groupmode="layer" inkscape:label="Projection Data" class="st0">
	<text id="text5" style="display:inline; font-family:'ArialMT'; font-size:12px;">Projection: LATLON2 Hossztartóp: 55 Fi0: 90 Lambda0: 0 FiMin: 49 FiMax: 61 LambdaMin: -12 LambdaMax: 4 Scale: 70</text>
</g>
<path id="path929" inkscape:connector-curvature="0" class="st1" d="M347.6,213c3.4-0.5,2.3,2.3,7.4,3.4c0,3.5,2,5.3,2.2,9.3
	c-1.1,4,1.3,7.6,0.7,11.3c1.1,4,2.1,7.1,2.8,11.1c0.9,4.2,2.8,8.3,5.4,11.9c0.4,5.8,1.5,12.9,5.5,17.5c3.5,0.6,1.1,4.8,1.3,6.7
	c2.4,0.4,1.6-2.1,6,0.2c6.2,3.1,13.3,4.7,18.7,9.5c2.4,3.8,5.7,7.2,6.3,12.1c-0.1,4.2,5,4.5,6.1,8.1c2.9,4.6,11.2,4.6,2.9,9.2
	c-1.9,8.1,4.6,15.8,8.8,22.5c3.1,2.4,6.4,11.9,3.8,11.5c2.1-7.8-8.3-1.1-10.6-5.7c-2.4-6.6-8-5.7-13.2-4c-2.6,0.1-10.5-2.7-9,1.6
	c3.2-3.5,7.4,3,11.6-0.8c6.6-3.7,6.9,5.4,11.4,7.5c4.3,2.2,7.3,7,11.9,9.2c1.7,3.9,4.6,6.9,5.4,12c2.4,5.4,4.2,13.8-2.2,16.7
	c-3.9,3.1-6,7.7-9.6,10.9c3.7-0.7,7.9,4.9,10.3,6.6c5.1,2.8,5.3,1.6,7.2-4.3c-0.3-6,6.5-7.8,9.7-8.5c3.2,0,13.6,4,11.8,1.3
	c2.1,0.3,11.4,1.9,15.4,4.7c6.1,4.6,14,8.8,14.9,17.3c0.1,4.6,1.9,9.8,0.5,14.1c-0.6,6.8-5.8,12.2-4.9,19.1
	c0.3,5.9-4.7,7.9-6.8,10.6c-3.3,7.4-6,5.4-10.4,0.6c-5.4-1,8.4,4.7,0.8,4.6c-7.8-1.8-5.1,2,1.8,1.1c-0.5,1.9-2.6,5.7,1.1,5.5
	c-2,4.5-10.3,9.2-12,2.1c-2-1.4-4,8.2-7.9,6.2c-8,2.1,2.1,4.3,4.8,0c3.5,0.9-0.9,8.4,1.4,8.4c-1.3,5.3-7.4,7.2-12.2,6
	c-3.3,2.4-7.8,0.6-9.8,5.4c1.6-0.3,8.2-4.2,12.5-0.8c2,2.5-11.5,4.1-2.9,5.6c5.1-3.1,2.3,2.3,10.2,2.5c6.2,0.6,12.2-2.7,18.6-2.3
	c8-0.9,0.2,4.4,1.4,7c2.9,5.6-0.4,13-6.8,13.1c-3.9,2.1-10.6,3.8-10,10.1c1.2,7.3-10-3.1-11.8,5.5c-5.1,3.4-13.2,1.8-15.9,8.5
	c-4.3,1.5-8.9-2.2-13.4-3.1c-4.7-2.7-9.2-2.5-13.8-0.1c-5.1-0.9-11.4,1.6-15.1,2.5c-1.3,5.7-6.4-2.3-4.8-4.2c-1.2-1.3-6.6-2.9-6.5,3
	c-1-1.7-4-8.6-2.6-1.5c-1.5,3.6-6.5-3-8.7-4.8c-8.9-5.8-1.5-0.6,1,4.2c-2.9,2.5-6.5,2.3-9.3,5.4c-2.4,0.5-7.9,0-11.6,0.5
	c-3.7,2-5.5,2.5-8.2-0.9c-4.3,4,3.9,2.4,4.3,6.7c-1.7,6.9-8.4,1.1-13.1,1.2c-5.8-3.1-9.9,0.9-7.2,5.9c-0.6,0.4-5.3-8.2-9.6-9.8
	c-4.7-4.2-10.4-3-15.4-2c-3.2,2.9-8.3,1-10.4,5.8c-3.2,5-6.4-6.2-5.5-1.9c2.1,4.6-4.4,8.7-1.3,13.9c-6.5,2.3,2.8,3.4-1.6,7.7
	c-4.4-1.1-4.1,7.2-6.3,9.3c-5.8,2.1-6.9-5.2-11.5-7.3c-3.6,4.3-5.5-2.4-6.4-3.4c-4.9-0.2,0.5-8.7-3-5.5c-2.1,4-2.7,4.1-0.5,5.3
	c1.5,1,1.7,5.1-2.4,0.8c-5.3-1.9-9.7,4.3-15.4,2.8c-1.4-3-4.7,0-4.9,3.4c0.3,4.8-8.4,2.8-8.9,8.9c-1.8-7.2-2-0.2-3.3,2.4
	c-2.9,0.5,4.4,3.9-0.9,6.8c-3.6,3.9-5.4,3.7-6.6-2.6c-1.8-3.4-7.5-6.8-10.8-4.4c2.8,5.5-9.8,6.4-6.2,1.7c-2.6-5.3,4.7-7.5,8.2-9.1
	c3.4,2.8,7.5-4,10.9-7c3.5-3.3,2.9-6.3,7.1-9c-1.5-3.4,3.9-11.8,4.2-5.1c7.6,1.6-2.4-2.8,1.5-4.6c6.5,1.6,4.2-6.2,8.2-7.5
	c3.2-4.2,7.2-8.3,5.5-14.3c0.8-4.3,0.4-11.4,6.4-7.3c5,1.2,9.5-6.1,5.9-10c0.9-2.5,3.6-6.4,9.9-5.4c5.3-1.2,10.3-2.3,15.5-0.4
	c5.8-1,10,5.2,15.7,2c5.1-2.4,8.9,2,9-2.4c-1.7-5.1,1-6.4,1-10.6c4.4-1.3,6.1-7.8,11.2-9c3.8-5.9,5.9-13.2,12.4-16.6
	c0.5-4-5.5,3.4-8.1,5.2c-3.3,6.3-3.6,1.9-3.3-1.7c-1-2.4,0.5-9.2,0.6-8.3c-3.5-1.6-5.3-4.8-8.3-7.5c-2.9,2.2-4.8,0.2-6.5-2.7
	c-1.7-2.8-2.9-6.2-3.6-8.9c0.4-2.4,0.3-2.9,1.5-4.7c-2.5-1,1.5-5.1,2.7-6.7c5.6,0-2.3-2.9,2.1-4.9c-0.9-2.1-7.6-2.5-9.6-6.5
	c-2.2-4.2,4.3-5.8,7.2-5.9c3.3-2,1-7-1.9-3c-1.6,3.2-2.4-1.6-1.8-3c2.6-2,3.1-5.2,4-8.3c3.7-0.7,1.3-4.3-1.7-4.3
	c-2-1.2-5.8-3.5-2.6-6.2c-0.8-3.2,3.6-6.7,6.6-6.7c2.7,0.6,5.8,3.2,8.3,2.7c3.5-1.2,0.1-5.9-2.7-5.5c-2.2-3.5-2.7-8.2-5.5-11.3
	c4.6-2.4-2.3-7.1-5.2-7.6c0.6-3.7-8.1-9.7-1.2-10.8c6.6-5.4,3.9,9.7,10.6,8.7c2.7-0.5,3.9-2.5,6.1-4.4c-3.8,2.4-8.8,2.7-11.3-2.9
	c-1.9-5.6-7.7-11.8-2.2-17.2c4.5-6.2,6.1-5.8-0.5-9.2c0.2-4.9-2.1-12.3,5-12.8c3.6,0.1,4.9-5.1,0.6-4.6c0.1-4.1,7.5-6.6,2.5-11.4
	c2.9-5.2,2.5-4.3-2.3-0.5c-3.2,8.6-5.6-8.3-6,0.4c-3,4.3-2.8,10-7.1,5.3c-1.8-3.8,2.7-8.1,0.3-10.7c0.3,8-6.9,2.8-7.6-2.4
	c0.9-5.3-5-8.7-7.2-13.4c-3.1-3.1,1.7-8.7,1.9-13c2.2-4.5,5.2-7.4,5.4-12.8c1.8-5.7,7.2-0.6,4.7-5.9c2.1-1.6,14.2,0.8,8.1-1.2
	c4.1-0.6,0.5-3.6,3-6.8c3.8,2.3,5.6-4.3,8.3-6.3c3.3-1.1,7.1-4.5,7.4-7.7c1.1-3.1,4.9-8,8.7-7.8c2.9,0.8,4.1-4.8,7.9-4.9
	c2.9-2.8-1.9-6.1-2.2-9.1c0.1-2.4-5.3-6-0.1-5.8c3.1-1.9,4-6.3,7.2-8.2c1.3-6.9,6.3,2.4,8.4,4.7C345.4,210.8,347.1,211.4,347.6,213
	 M458.3,511.6c-4.6,4-12.2-6-4.9-4.7C455.4,507.6,459.2,508.7,458.3,511.6z M383,552.4C376.4,556.2,382.6,544.3,383,552.4z
	 M368.7,553.4c3.6,2.3,8.6,2,9.4,6.2c-5.2,0.6-2.6,7.2-8.1,7c-4.1-0.5-9.7-7.6-11.8-6c3-5.5,6.6-2,9.4-6.9l0.2-0.2L368.7,553.4">
<desc  id="desc5283">England</desc>
</path>
<path id="path959" inkscape:connector-curvature="0" class="st1" d="M172.8,236.3c0.5,1-1.2,4.1-0.7,1.7c0-1.7-2.5-0.9-3.7-1.2
	C169.5,235.3,171.4,235.8,172.8,236.3L172.8,236.3z M162.2,241c1.6,0.7,2.9-1.7,4.5,0.1c1.7,0.9,3.6,2.7,5.5,1.2
	c1.9-0.9,4,0.3,5.1,1.9c1.8,1.5,0.9,4,0.9,6c-0.8,1.5-0.9,3.4,1.4,2.8c2.5,0.4,1.5,3.3,1,4.8c-0.3,1.6,2.6,1,3.2,2.6
	c1.3,1.3,0.9,3.5,2.7,4.5c1.7,1.6,0.3,5,2.8,5.8c1.6,0.8,2.7,3,1.2,0.1c-0.8-1.1-3.5-2.8-1.5-3.7c3.8,1,4.5,6.7,1.8,9.2
	c-2.3,1.1-5.2,1.4-6.5,3.9c-0.8,1.5-1.7,2.6-0.8,4c0.4,2,2-1.2,2.5-1.9c1.1-0.9,2.5-1.6,3.7-2.4c1.4,0.1,2.8,1.1,4.5,0.3
	c1.6-0.4,3.3-0.9,4,1c1,0.9,0.6,3,1.3,4.3c1.1,1.3,1.8,2.6,1.6,4.5c-0.3,1.6,2.1,2.7,1.4,4c0.7,1.7-1.9,2.9-0.8,4.7
	c0.1,1.5-1.8,2.6-0.9,3.6c-1,2.3-2.4,0.5-2.6-1.3c-1.2-0.9-2-3-0.6-4.2c1.2-1.9,0.5-4.7-0.7-6.6c-1.6-1.3-2.8-3.6-5.1-3.4
	c1.1,1.6-1.6,3,0.7,3.4c1.2,0.5,3.6,0.9,0.9,1.3c1,0.5,0.3,2.7,1.5,3.4c-0.1,1.5-0.4,3-1,4.7c0.2,1.1-3.6,3.2-1.5,2.7
	c1.5-0.4,3-2.2,4.6-1.7c1.7,1.4,1.6,4.1,0.7,6c-0.6,1.6-2.4,2.5-3.2,3.3c-0.4,2.7-1.4-0.4-2.9,0c-2.2-0.4-4.2,0.6-6.2,1.2
	c-0.5,2.4,0.1,5-0.8,7.4c-0.2,1.8-1.7,2.7-3.1,3.4c-1.4,1.6-3.7,3.9-5.9,2.4c0.5-1.3,0.9-1.3-1.5-2c-1.7-0.2-1.7-2.6-3.9-2.1
	c-1.3-0.5-2.2-0.1-3.7,0c-1.2-1.9-1.6,1-1.5,2c-0.5,0.8-2.8,1.8-3.2,0.4c-1.7-0.8-3.7,1.8-5.5,0.9c-1,1.3-2,1.1-2.8-0.5
	c-0.9-0.9,0.3-3.1,0-4.2c2-1.8,0.3-4.9-2-5.4c-1.1,2-2.8,0.3-3.8-0.9c-1.4-1.3-0.8-4-3.1-4.5c1.3-0.6,0.8-2.9,0-4.3
	c-1.3-0.7-1.4-2.3-2.7-3.2c-1.3-1.2-3.6-3.2-5-1.2c-1.5,1.4-1.9,4.4-4.2,4.5c-1.7-0.4,0.5,2.4-1.2,2.2c0,1,1.3,2,1.8,3.2
	c0.6,0.8,0.5,3.2-1.4,3.2c-1.3-0.1-3.5,1.7-2.1,2.8c-1.1,0.7-0.1,2.9-1.8,3.5c-0.7-0.8,0.8-4-1.1-2.4c-1.8,0.7,1.8,3.8-0.8,2.8
	c-1.6-0.1-2.1-0.9-3.3-1.3c0.5-2.1-2,0.6-3.2,0.7c-1.6-0.5-3.4-0.5-4.8-1.4c0.1-2-2.1-2.7-3.4-3.9c-2-0.4-4.7,0.7-6.2-1
	c-1.1-1.6,0.3-4.2-1.4-5.5c-2.1,0.2-3.4-1.5-3.9-3.4c-0.2-1.9-2.7-0.7-3.4-2.5c-1-1.6-2.4-2.9-3.3-4.6c-1.6-2,1.3-1.9,2.7-2.6
	c2-0.7,2-3.7,3.8-4.3c2.3,0.7,5.2,1.4,6.9-0.9c1.5-1.3,2.7-3.1,4.6-3.5c0.4-3-2.1,0.5-3.1-1.5c-0.9-2-2.8,0.8-3.1-1.5
	c-2.1-0.4-1.7-2.2-2.4-3.3c0.5-0.5,2.6-2.1,3.7-2.6c1.3,1.5,3.4,2.4,5.1,0.9c1.1-1.5,2.5-2,4.2-1.7c1.4,0,2.9,0.6,2-1.5
	c-0.3-3.4,3.8-4.9,4.2-8.1c0.4-1.6-0.9-4,1.3-4.6c0.6-1.3,0-3,0.4-4.1c0.8-1.5,1.8-3.1,3.7-2.9c1.2,0.1,3.1-3.3,2.3-0.4
	c1.6-0.1,3.3-1,4.7,0.4c1.6,0.6,3.6,0.4,4.3-1.3c1.1-0.9,0.4-3.1,1.7-4.2c1.3-1.3,0.1-3.9,1.3-4.9c1.4,0.3,2.6,2,4.3,1.4
	c2.2,0,4.4-0.1,6.3-1.4c1.5-1.1,3.4-0.9,5-1.3c1.1-1.3,3.1-3.5,4.8-1.7L162.2,241"/>
<path id="path1057" inkscape:connector-curvature="0" sodipodi:nodetypes="ccccccccccccccccccccccccccccccccccccccccccccccccccccccccccccccccccccccccccccccccccccccccccccccccccccccccccccccccccccccccccccccccccccccccccccccccccccccccccccccccccccccccccccccccccccccccccccccccccccccccccccccccccccccccccccccccccccccccccccccccccccccccccccccccccccccccccccccccccccccccccccccccccccccccccccccccccccccccccccccccccccccccc" class="st1" d="
	M286.3,1.9c4-0.1,10.8-0.5,13,1.8c0,3.6-7.3,8.1-2.4,10.3c2.7,1.3-2.2,8.6-4.6,11.2c-4.4,2.7-9.8,4-11.7,9.4
	c-4,4.2-9.7,6.9-13.9,10.6c-1,2.8-7.5,6.8-7.8,5.5c-6.3-1.6,5.6,3.4,0.2,6c-3.6,1.1-7.7-0.2-11.9-0.2c-6.3-5.2,2.5,3.5,5.9,2.2
	c1.2,1.8,9-1.3,9.1,1.8c4.8-1.2,9.5-5.8,3.7,2c-3.7,5.3-5.8,6.8-9,3.8c-4.4,4.2-9.8,2.9-13.1,8.5c-2.4,5.7,5-3.5,7.3-4.2
	c3.6,2,12.6-3.6,5.9,3c-1.9,3.5-3.4,5.7-7.5,5.2c2.3,2.2,1.2,6.4,6.5,1.3c2-4.2,2.9-4.3,10.3-4.1c4.5-3.5,7.8-5.4,10.1-3.5
	c0.5-1,4-5.6,8.3-5.7c6.1-0.7,12.4,7.4,18.1,1.6c5.1-0.9,8.6,0.7,12.9,0.8c3.6,0.8,6.4,1.9,9.7,0.5c3.3-1.1,7.5,0.9,11.5-1.7
	c4.9,0.2,6.5,2.5,10.2,6.4c0.8,4.1,2.3,7.9,2.6,10.2c-3,4.7-7.7,7.9-9.7,13.2c-3.7,4.7-0.7,10.2-3.4,14.2c-3.9,3.6-3.5,8.8-4.8,12.9
	c-1.4,5-7.8,7.1-9.3,11.9c-1.7,4.2-1.1,9.3-6,11.5c-3.8,3.5-5.4,7.1-11.1,6.2c-5.9,0-11.3,2-14.8,7c-8,2.3,6.6-0.5,9.1-3.3
	c3.2-4.7,11.7-2.2,7,3.4c2.1,3.1,8.4,1.8,10.5,6.2c-3.4,4.7-9.2,7.3-14.6,4.8c-3.9,2.7-7.8,6.2-9.6,10.6c-5.4,1.4-10.6,3.8-16.2,0.4
	c-3.6,2.9-13.3-7.9-7.8-2.2c2,4.8,5.4,4.8,10,5.2c5.8,1.3,10.3,2.4,16.3,2.8c2.9,4.3,10.1-1.4,10.3-4c1.2-4.4,12.7-3.4,11.4,1.7
	c4.3-1.2,7.5,3.4,12.1,4.9c5.9-0.3,8,4.2,10.4,8.9c-2.9,1.2-3.5,4.9-6.1,6.8c0.8,4.7-8.4,3.4-5.2,6.6c1.5,3.7,4.2,7.8,4.7,11.6
	c-3.1,1.9-5.8,4.4-8.3,6.5c-3.9-2.1-6.8,4.3-9.3,6.6c0.9,3.4-3.3,6.1-5.8,7.9c-3.7,1.4-5,6.5-8.3,7.7c-3.5-1.7-2.6,8.6-9.4,4.8
	c-4,0.7-10.4-2.4-12.6-0.4c-4.8-3.5,1.8,11-6.7,6.6c-2.5,1.7-6.7,2.6-4.9,0c-1.4,3.2-1.6,6.9-8,8c-3,0.5-1.1-7.9-3.3-1.9
	c-3.1,6-3.9-8.9-7.1-3.1c-4-2.1-7.2-7.7-5.6,0.6c4,1.3,2.3,6.9,1.8,10.1c-5.2,1.3-7-4.9-11-7.3c-4.5-1-7.3-8.6-11.5-3.3
	c-3.7,4.4,3.4,8.7,2.2,13.2c-2.3,3.6-3.3-5-4.7-6c-1.8-5.5-9.2-9.3-7.7-16.4c0-6.4,6-3.3,4.6,2c5.4,5.5,0.8-4.2,0.6-7.1
	c0.3-5.4,3.3-8.7,6.7-12.4c2.6-2.7,0.4-8.3,4.4-10.6c0.3-4.6,11.2-8.3,3.4-12.2c3.2-5.4-5.8-5.6-6.7-8.8c-4.7-3,2-8.4-1.4-13.6
	c-2-6.3,4.9-7.7,8.7-4.9c9.2,1.5,7.1,0.5,0-2c-3-0.6-7.2-10.9-6.6-6.2c6.1,7.1-4.5,4.3-0.7-2.1c2.8-5.3,5.9-12.8,0.8-3.2
	c-2.9-1.1-3.5-5.6-2,3.2c0.6,5.4-3.5,5.7-1.1,8.3c-0.5,6.5-6.7,8.5-6.3,0.2c-6.3-10.1,4,9.4-3.8,1.8c-0.9-5.6-4.2,4.7-1.4,7.1
	c-4.7-0.4-6.3-5.5-5-9.5c-0.1-4.9,4.3-10.6,8.8-12.9c-0.2-3.6,10.9-10.3,5.3-6.9c-4.9,1.4-6.8,7.3-11.4,10.1c-2.6,2.3-5,9.5-7.5,5.4
	c-1.6,4,1.6,7.4,1.7,10.4c2.1,3,5.5,8.2-0.8,10.5c-2.4,3.4-3.2,7.2-1.6,10.5c-2.6,2.7-1.1,8.2-5,10.6c4.2,1.6,2.3,8.7-2.6,8.6
	c-4.7,2.7-8.2-3.8-4.6-7.5c4.1-3.9,0.1-10.1,3.1-14.5c0.5-4.4,2.7-8.6,6.7-11.3c6.3-9.8-2.3,3.7-4.4-0.1c-6.1-2.3,5.6-13.8,0.1-8.6
	c-6.3,3.4,1.5-6.8,2-8.9c-2.1-2.5-4.8,9.6-5,5.4c0.7-3.1,3.3-9.4,6.1-9.7c0,1.1,0.6-5.9,0.7-6.4c-4.7,7.3-1.7-3.8,1.1-4.6
	c-1.7-0.5-6-1.2-1.6-7.1c8.5-0.2-3.5-0.2,2.7-4.3c1.5-6.6,10.8,1.4,13.1-4.9c3.8-6.3,3.5-5.8-0.6-0.5c-3.5,5.9-10.3-1.8-11.3,0.8
	c-2.2-3.9,4.2-2.3,7.8-5.5c0.3-1-8.2,4.1-5.6-0.7c2.9-3.8,2.4-7.3,6.6-8.2c5.7,0.1,13.2-3.8,2.7-0.9c-8.9-0.1,6.6-11.4-0.7-6.6
	c-2.5,2.5-3.3,5.8-6.8,7.2c-3.7,3.8-7.2,7.5-10.9,11.7c-4.2,5.2-5.4-6.3-6.7-2c-3,1.2-13.6-7.2-5.9-7.4c5.6,5.3,1.9-5.7,9.8-2.4
	c8.7,0.7,2.9,0.1-2.4-1.8c-4.6,4.2-9.7,1.5-15,1.3c-4,3.8-6.5-4.3-1.2-4.2c4.6-1.1,9.6-1.7,12.1-0.1c-3.9-4,8.5-0.1,0.1-4.2
	c3.4-2.5,11.4-4.2,2.7-2.9c3.9-5.6-7.9,0.6-3.8-4.3c0.8-2.5,3.3-10.5,6.9-5.9c1.8,5,11.6-1.8,4,1.2c-1.9-3.4-9.3-3.2-5.5-7.7
	c3-4.7,7.4,1.5,11.6-0.3c5.6-1.7-5.6,0.7-7.2-2.7c-3.1-1.3,0.3-10.5,4.4-8.4c7.8,5.3,0,0.7,2.1-2.8c2.7-2.9-6.1,3.7-9.2,1.4
	c-3-5,4.8-4,8-6.1c6.4-8.1-5.1,3.7-4.7-0.7c0.7-6.5-3.9,5.4-7.6,1.9c-0.6-3.8-0.1-5.8-2.4-8.6c0.3-4,1.1-10.7,5.5-4.7
	c3.5,3.7,3.9,0.2,8.8,0.3c-5.4-1.8-7.7-0.1-9.9-6.2c-6.5-4.5,3.8-4.8,2.9-5.7c-4.7-1.6-6.3-5.6-4.2-10.5c5.8-3.7,3.5,4.6,6.7,6.4
	c1.7-0.9,1.4-5.3-1-8.3c2-7.1,4.6,3.9,7.5,2c0.2-8.2,8.7,3.3,9,0c-2.2-1.7-9.5-5.5-4.5-5.3c3.2,2.5,8.5,2.8,11.1,7.2
	c-2.7-4.8-5.8-6.3-6.9-9.5c-3-1.5-5.7-4.3-7.1-5.1c-2.9-7.4,3.6,0.7,5.5-3.1c-0.7-4.6,2.8-3.6-1.2-6.4c-1.8-2.6-5.7-8.2,1.4-4.6
	c4.3-2,8.1-1.8,12.7,0.7c1-0.7,0.6-3.2-4.4-2.5c-3.5-2.5-5-5.9-3-9.2c1.4-0.7,7.6,1.2,2.4-1c-2.5-3.4,7.6-0.7,0.5-4.2
	c-3.7-3.7,4.8-5.1,2.8-10.1c3.8-2.2,10.2,2,7.5,6.5c1.5-5.6,2.5-6.2,6.4-1.6c-4.1,5-4.3,9.2,0.4,2.6c1.4-4.1,6.3-7.1,8.9-1.8
	c-2.3,3.5-2.9,8.5,0.1,2.5c2.9-5.4,7.3-0.4,8.7-3.8c2.9,1.7,6.6-4.6,8-1.4c5.4,1.9,10.3-1.4,15-3.5c4,0.3,5.8,1.5,10.9,1.6
	C285.8,5,281.9-3.6,286.3,1.9 M172,22.6c1.7,1.2-4.6,4.8-4.9,7.3c-4.8,3.8,4.8,2.2,6.7-0.4c-0.2,2.2-2.3,6.7-5.7,4.1
	c-7.5-2.8,0.2,4.9-6.6,5.8c-5.3,1.9-8.7,3.5,0.1,1.5c4.8-2.3,2.3,5.2,3.5,4.7c-5.1,3.2-8.8-1.1-3.8,4.4c-3,2.2-3.8,5-6.6,0.6
	c1.9,7.4-6.8-4.2-1.4-6.2c7.6-2.8-7.8,0.5-2.7,5.5c1.8,1.6,4.2,6.3,0.8,5.5c-7.7-3.1,2.1,4.3-3.2,4.8c-2.4-2-2.7,1.2-4.1,3.7
	c-3.1,5.6-9.1-2.9-8.6-5.1c3.8,2.5,6.9-3.3,7.7-4.9c4.6,0.5,3.3-1.5-0.5-2.8c-3.1-0.4-9.9-2.5-4.9-4.8c5.2-3.1,3-0.7,0.2-2.5
	c2.1-1.8-2.3,0.5-2.7-4.5c-1.2-4.2,2.8-5.5,2.8-5.6c-3.1-5.5,8-1.8,4.5-0.1c2.5,4.8,2.9,7.9,2.3,1.2c2.9-3.9,8.4,3.7,4.9-3.1
	c-2.6-0.4-1.3-3.8-2.7-4.3c3.1-4,6.7-3.9,10.8-6.1c4.3-2.4,8.8-9.6,13-8.9C174.4,16.4,171.1,19.3,172,22.6 M145.2,29.8
	c5.9,2.9-2.2,5-0.8-0.3L145.2,29.8z M139.8,53.5C139.9,57.1,132,54.9,139.8,53.5 M132.8,67.5C128.1,69.8,134.8,63.5,132.8,67.5
	L132.8,67.5z M167.3,68.4c2.7,4.1,7.8,7,6.7,12.8c1.9,5.5-3.4,8.7,0.9,9.2c-1.9,6.3,2.6,4.5,1.9,7.2c2.3-1.1,6.7,3.5,8.4,2
	c3.6-1.7,10.7-2,7.8,3.7c-4.2,2.7-5.4,5.5-8.8,9.3c-3.9,6.2-7.2,0.9-3.9-3.2c3.2-4.9,8.7-4.7,0-3.9c-2.6-6.7-1.1-0.9-3.1,2.3
	c-1.4,2.4-3.2-7.3-3.8-3.2c-8.2,3.4-3.5-0.5-8.7-2.1c3.2-1.6-6.4-3.7-3.4-7.2c4.3-1.4,8.2,3.9,2.2-2.2c-3.8,2.3-1.2-5.5-4.7-2.1
	c-1-6-1.3,7.9-6.9,1.1c-3.6-5.7-2.8-5.7-0.8-10.5c1.6,3.8,6.4,6.3,3.4,1.4c5.3-1.6-1.4-2.5,0-5.8c-0.3-5.2,4,3.5,6.7,4.5
	c1.1,1.6,4-0.6,6,2.8c-2.7-3.7-2-7.3-3.2-9.8C161.5,72.1,166.3,69.9,167.3,68.4 M132.1,71.7c5.6-2,5.2,6.3,0.7,1
	c-5.4,0.8,5.6,3.6,1,5.5c-3.5-0.1-10.1,0.9-2.8,1c7.3-0.7-1.1,5.5-4.1,2.2c-0.2-3.7-3.6-3.8-7.3-4.1c-5.6-2.1,5.7-8.8,3.4-5.1
	c3.7-1.7,3.7-2.4,6.1-0.5C127.7,69.9,135.7,68.2,132.1,71.7 M181.1,80.2c-1.8,3.7,0.6-7.5,0.1-0.7L181.1,80.2 M180.5,82.7
	c-3,3.8,1.3,9.7-2.3,11.7c-2.6-0.5-2.1-9,0.9-9.8C178.4,83.1,179.6,81.1,180.5,82.7L180.5,82.7z M127.9,83.6
	c1.2,0.6,5.8,1.7,1.2,2.5c6.9,3.1-7,4.7-5.6-1.1C124.2,82,126.6,84.1,127.9,83.6 M125.5,89c3,1.7,7.2,6.9,1.6,3.7
	c-4.3-4.3-2.9,0,0.3,1.6c5.9-0.4,4.1,6.3,0.2,6.8c-4.6-3.1,7.6,7.9-1.8,5.6c6.4,0.6,5,5.5-1,3.1c-1.4-4.4-3.8-8.3-1.9-12
	C126.4,94.9,119,89.6,125.5,89 M182.8,97.1C176.7,99.2,180.5,90.6,182.8,97.1z M159.1,114C150,116,159.8,110.1,159.1,114 M169,116.3
	c3.4,4.2-4.7,7.4-6.7,1.3C160.4,114.4,170.6,111.4,169,116.3z M124.3,118.4c-0.3,1.4-8.4,5.6-5.9,0.8c-0.3-1.8,4.9-8.4,4-3.6
	C122.4,116.2,124.7,116.9,124.3,118.4 M157.2,145.7c-5.5,3.7-6.3,1.9-1.7-2.9c2.9-4.4,9-4.1,3.7,0.9
	C158.1,143.5,157.9,145.1,157.2,145.7 M178.5,144.2c1.5,5,4.1,7.9,8.8,7.1c2.3,1.2,7.1,4.2,6.1,6c0.1,3.9-2.7-0.5-4.9,4.1
	c7.1-2.8-0.9,6.7-3.6,3.1c2-4.4-5.7,1.6-7.7,2.8c-3.7-1.4-7.3,2.7-10.5,0.8c-5.5-7.7,3.7-2.8,3.6-3.5c-0.5,0.4,12.4-4.2,6.7-3.5
	c-6.6,3.7-5.3-2.3-1.9-5.1c8.3-2.3,2-2.6-1.2-3c-4.5-3.1-8.9-3.9-6.1-8c3.2,0.8,5.5-5.9,9.6-2C177.1,144.2,177.1,144.4,178.5,144.2
	 M144.4,156.5c-9-2.3-0.3-6.4,4.5-7.3C154.6,151.1,142.4,152.9,144.4,156.5z M173.4,154.7C166.5,156.3,170.2,148.8,173.4,154.7
	 M199.8,158.1C197.8,162.9,193.6,159.5,199.8,158.1 M196.5,164.8C195.6,172.4,191.3,165,196.5,164.8z M195.4,169.1
	C195.4,178.5,190.9,171.3,195.4,169.1z M190.9,176.2C188,173.9,196.4,173.6,190.9,176.2z M188.6,186.1c-2.1,5.5-5.6,9.1-7,14
	c-3,5.7-7.7-4.5-4.2-7.2c7.5-4.7,5.3-1,3.1-6c3-3.7,7.5-8.3,11.6-9.7C193.2,180.7,188.9,182.6,188.6,186.1 M174.5,179.7
	c-0.4,5.7-8.1,8-3.1,1.1C172.7,180.8,173.3,177.1,174.5,179.7 M175.7,199.4c0.6,4.2,3.1,6.3,3.2,10.5c-1.5,3-6.6,2.8-8.2,5.6
	c-7.8,4.2,0.7-5-2-7.2c-2.8-1.6,2.1-9.8-3.6-2.9c-1.5,3.7-6.3,7.4-5.5,1.6c3.4-3.6-0.8-8.7,5.7-10.7c3.1-0.9-0.3,7.8,3.9-0.7
	C175.3,190.1,175,191.1,175.7,199.4L175.7,199.4z M219.6,206.5c-3.3-0.8-5.2-7.2-7.2-10.4c-1.2-6.2,5.3,0.7,6,3.2
	C220.5,201.9,218.2,204.4,219.6,206.5z M215.2,226.8c-4.6,1.6-11.6-2.7-9.2-7.7c-4.3-3.7-1-10.1,2-11.8c4.9-1.3,6.8,6.4,7.1,9.7
	c0.5,4,1.7,4.7,1.1,9.5L215.2,226.8L215.2,226.8"/>
<path id="path1063" inkscape:connector-curvature="0" class="st1" d="M252,376.7c2.1,0.8,2.9-2.1,4.6-0.8c3.3-0.4,0.2,2.4-0.3,4
	c-1.6,1.2-4.1,1.4-5,3.6c0.2,2-2.4,2.7-3.6,4c-1.3,1.5-3.5,0.6-4.2,0.4c0.2-1.5,2-4.9-0.5-2.2c-0.7,1.3-3.1-0.8-2.8-1.9
	c-0.6-1.8-1.9-3.4-2.8-5.1c-0.5-1.6,0.3-3.5,0.1-5.3c0.2-2.1-1.1-4.3,2-4.5c2.2-1,4.4-1.6,6.7-0.8c1.9,0,3.2,1.8,3.1,3.6
	c1.8,0.7,1.2,2.5,2.3,4C251.8,376,251.7,376.4,252,376.7 M290.2,375.7c2.2,1.8,5.2,2.8,6.5,5.5c-0.6-2.6,2.7-1,3.8,0.1
	c1.3,1.2,3.7,2.6,3.1,4.6c-2.7,0.7-1.3,2.7,0.2,3.9c1.7,1.9,1.7,4.7,2.6,6.9c0.8,2.2,3,1.9,4.6,3.2c0.6,1.2,1.3,3.8-0.8,3.9
	c-2.3,2.6-3.2-3.4-5.8-1.9c-1.9,1.4-2.5-2.2-4.4-0.8c-1.4,1.4-3.4,2-4.1,4c-1.7,0.8,0.2,3.2-1.8,4.2c-0.5,1.9,0.9,3.9,2.9,3.6
	c0.7,1.8,3.4,0.9,4,3c2.3,1.5-2.2,1.5-1.9,3.4c0,1.8-0.6,3.1-1.7,4.4c0.6,2.2-2.7,2.3-2.3,4.3c0.7,1.2,0.2,4.2,1.9,1.9
	c1.2-0.9,2.8-3.3,3.8-0.8c0.2,1.5-1.7,3.7-3.1,3.8c-2.2-0.3-3.6,1.4-5.5,2c-1.7,1.7-0.5,4.2,1.4,5c1.5,1,2.6,3,4.3,3.4
	c1.5,0.1,5.7,0,3,2c-1.8,1.3-0.3,3.1,0.9,3.7c-1.5,0.5-2.9,0.9-3.9,2.4c0,1.9-2.9,3.3-1.8,5.1c2.9,0.5-2,1.4-0.7,2.7
	c1.6,0.7-1.7,3.1,0.5,3.9c1.5,1.2,0.4,3.5,1.8,4.9c0.7,1.9,2.7,3,3.1,5c1.2,2.2,2.9,0,4.3-0.4c2.1,1.8,4.3,3.8,5.7,6.2
	c1.4,0.3,4.3,1.1,3.1,2.6c-1.7,1.5-0.1,3.4-0.7,5c-1.1,1.5,1.9,4-0.3,4.9c0.6,1.5,1.3,3.5-0.4,4.6c-1.7,1-3.7,1.6-5.3,3
	c-1.7,0.5-4.3,1.5-5.6,0.1c-1.2-1.5-2.3,2.8-4.1,2.9c-1.8,0.6-2.6,2.4-3.4,3.8c-1.7,0.1,0.8,4-1.6,4c-2.1-0.7-3.8,1.9-6,0.8
	c-2.8-0.5-6-0.1-8.6-1.2c-1.3-1.9-2.6-4.2-4.8-5c-1.6,1-3.3-1.7-2.8-2.9c-0.4-2.1-1.2-4.2-2.9-5.5c-0.4-2.7-3.1-1.7-4.9-1.5
	c-2.5-0.2-2.9,2.3-1.4,3.8c-2,1-2.4-0.9-3.7,0.4c-1.6-1.3-3.1,0.1-4.4,1c-1.2,0.1-2.4,0.3-4.3-0.8c-0.7-0.8,0-3.2,0-4.4
	c2.3-1.2,1.3-2,2.8-0.5c2-0.8,5.6,0.1,5.7-3c-0.1-0.8-2.8,1.4-4-0.4c-1.6-1.6-3.7,0.9-5.7-0.1c-1.2-0.5-4.2-4.2-1.4-3.3
	c3.1-0.6-1.1-0.4-1.1-2.2c1.3-3-0.1-1.7-1.5-0.6c-2.8-2.4,0.2,1.7-1.9,1.8c-2.9,0.5-6.3-1.3-8.7,1.2c-0.5,1.4-0.7,3.9-1.9,4.7
	c-1.3-0.3-3.4,1-5.5,0.5c-1.5,0.7-2,3-3.6,3.3c-1.6-1.1-4.5-1.1-3.9-3.4c-0.7-0.9-5.1-2.8-1.4-2.5c2.1,0.3,1.5-1.1,4.2-0.4
	c1.6-0.8,3.6-2.1,5.2-1.8c-1-1.3-2.4-4.2,0-5c2.5-1.2-2.3,0.6-3.3,0.6c1,0.1,2.1,3,0.7,4.1c-3.1,1.4-6.4,0.5-9.6,0
	c-0.9,1.4-0.7,2.9-1.8,0.4c-2.7-1.9-1.6-0.8,0.1-2.7c1.5-1,4.4-1.4,3.2-4c0.1-2.1-0.6-4-2.1-4.1c-2-0.9-3.3-0.2-5.5,0.2
	c-0.3-0.3,0.4-2.6,0.5-3.7c2.4,0.6,2.9-2.5,5.2-2.3c2.6-0.1,2.8-3,3.6-4c-1.5-2,2.6-1.8,3.5-0.6c2.6,2.1,2.2-2.2,4.3-0.4
	c3.1,1.8,0.2-2.9,2.9-2.5c2.1-0.5,1.9-3.7,3.9-4c2.1,2.9,0.4-3,3.8-1.7c1.7-0.2,4.5,1.1,5.1-1.3c2.8-0.3,3.3-4.3,6.4-4.1
	c3.6-2.5,6.7-5.9,8.4-10c1.4-2.9,0.8-6.3,2.4-9.1c-1-2.5,0.3-3,2.3-2.7c2.8-1.3,2-3.1-0.7-1.5c-2.2,1.3-3-1.9-4.1-3.2
	c-1-2.4,0.8-4.9,2.2-6.6c0-1.3,4.8-3.8,1.6-2.9c-1.9,1.4-2.8-2.5-4.2-3.5c-1.9-2.1,0.2-2.9,0.2-4.8c-1-1.8-0.4-3.8,1.6-4.6
	c1.4-1.1-1.9-0.7-2.5-0.2c-2.1,0.1-4.1-0.6-6.1,0.6c-1.5,1.7-4,0.2-5.5,1.7c-1.5,1.6-2.3,2.7-2.7,4.6c1.2,2.3-1.8,1.9-2.8,0.6
	c-1.5-1.6-2.6,1.7-4.5,0.5c-1.6,0-3.5,2.5-2.9-0.5c1.8-3.1,4.3-5.9,6.7-8.5c2.6-0.4,4.9-2.4,6.3-4.5c1.3-1.6,3.9-2.2,3.4-4.8
	c-0.2-1.8,0.2-4.5,1.2-2.9c0.5-2,2.2-3.4,3.7-4.7c0.7-2.6,3.5-5.4,6.3-4c1.9-0.8,3.4-2.2,5.3-3c1.4-1.3,5.7-0.6,3.2-3
	c-2.5-2.6,1.2-1,2.1-0.3c2.2-1,2.5,3.3,4.9,2.2c4.7,0.6,8.4-2.6,12.4-4.4C287.4,372.5,289.2,374,290.2,375.7 M233.8,375.2
	c2.1-0.5,3,2.1,3.3,3.7c1.8,2.6-1.7,1.8-1.8-0.3c-0.7-1.2-4.3-0.9-2.5-3.2C233.2,375.1,233.3,374.6,233.8,375.2"/>
<path id="path50" inkscape:connector-curvature="0" class="st1" d="M134.5,237.5c7.2,1.2,9.9,5.5,1.3,8.1c-7,6.7-14.3,11.6-14.7,22
	c-2.4,9.4-9.9,9.8-17.8,10.6c-1.6,6.8,14.3,5,3,10.7c-7.2,0.6-19.3,7.1-8,13.6c5.7,5.6,7.1,11.5,15.2,12.9c3.2,4.3,11.1,3,13.1,2.8
	c1.3-4.6,2.1,4.4,2.8-2.4c0.9-3.7,7.7-4.8,1.8-9.5c2.9-7.7,13.6-10.1,14,1.1c0.4,9.3,13.1,4.3,8,15c3.9,4.7,11.6-1.2,15.1-1.8
	c7.1,2,9.5,12.6,0.2,6.5c-7-0.9-3.4,11.1,1.4,11.6c-2.2,9,3.6,15.6,6.7,22.2c-3.6,4.5-3.7,5.8,0.8,11c-6.7-4.4-7.4,4.9-1.5,6.7
	c1.5,11.5,6.7,22.8-1.4,32.7c-3.9,9.3-1,19.8-8.7,27.6c1.6,8.2-8.1-0.8-3.9,6.7c7,1.4,5.2,12.6-1.1,7.7c-3.1,2.8-11.9-0.7-12-2
	c-1.1-4.6-4.1,9.8-5.9,5.9c2.9-4.4-6-14-1.8-3.7c0.2,7.4-6,2.2-6.8,3.6c-5.3,1.8-18.5,1.4-18.7,6c6.3,5.2-9.4,8.9-10.5,8.1
	c-1.9,6-8.2,11.5-15.4,9.5c10-6.7-13.2-8.1-3.5-2.4c4.4,3.7-1.9,10.5-5.6,10.6c-3.3-1.8-0.9,1.4-2.4,5.4c-3.3-3.1-10-2.7-6.6,2.3
	c-7.1-2.3-9.1,5.3-16.5,2.1c-2.3,3.6-14,8.8-9.1,1.2c-3.6,4.4-3.7-5.1-8.8,1.4c-3.5-0.4-13.9,8.7-9.1,0.3c6.1-2.5,11.7-10.3,2.4-4.2
	c-10.2,4,6.3-7.1,9.4-7.4c4.4-1.7-4.3-8.2-3.2-2.6c-7.4,2.7-17.7,8.3-23.7,7.9c5.6-2.3,1.4-5.4,7.8-7.2c-2.5-4.4,8.5-2.6,8.5-8.4
	c4.2-1.1,9.5-5.2,1.5-2.4c-6.4,2.3-19.9,14-19.9,1.1c-5.3,3.7-5.1,3.5-7.5-2.4c9.1-0.6,1-9.9,11.4-10.5c6.4-2.3,8.7-6.8,13.2-8.3
	c-8.3,1.8-17.4,0-24.8,3.2c-6.3-1.1-1.2-7.6,1.1-6.8c1.9-5.7,8.3-7.1,10.4-2.6c3.7-2.9,2.8-7.8,4.9-1c3.6,2.2,14.6-0.3,5-2.3
	c5.8-5.5-9-10.7,3.1-11.1c5.9-2.9,4.5-3.2,5.6-8.9c11.8,1.4,22.9-4.4,34.1-6.8c2.7-2.5-10.7-0.1-6.5-7.2
	c-3.6,3.6-8.9,14.1-13.8,11.4c1.9-4.2-9.7,2.7-10.3-4.1c-0.7,6.2-22,10.3-9.6,3.7c7.1-7.6,13.6-11.6,17.3-21
	c-6.7-1.9,1.4-13.8,5.2-16.2c3.1,3.2,7.3,1.6,5.7-1.5c3.4,1.6,8.5-1.5,6.2-3.7c-8,1.4,4.1-4.9-4.5-3.9c-6.8-0.8-18.8,6.8-21-0.7
	c-4,6.7,1.3-8.1-0.3-7.6c-2.8,8.1-1.7-4.1-5.3,3.3c-3.7,6.3-11.2-1-3.3-3.9c-3.2-1.7-3.2-3.2-6.9,1.3c-5.7-2.3-11-2.8-3.7-5.9
	c-0.6-2.3,2.9,0.2-2.7-3.1c-6.7-7.2,10.8-0.1,4.1-6.3c4.9-1.9,19,1.4,6.4-2c-8.4-10.1,6.8-10.3,11.3-12.9c4.2-10.7-10.3-3-13.9-4.8
	c-0.6-4.4,3-7.8,5.7-2.8c-2.1-4.3-6-8.6-2.6-13.7c-3.3,5.4-6.6,1.9-3-0.6c-0.6-8.7-6.2-4.6-6.7,2.3c-0.8-4.4-0.3-13.7,4.3-13.8
	c3.4,1.2,6.2,3.7,0.5,4.5c4.8,4,4.1-5,8.3-3.3c-7.8-8,11.3-0.9,15.9-2.1c8.8-4.6,7.4,18.9,11.8,4.4c2.6-6.9,12.7-1,17.7-0.7
	c4.8,6.6,5.4,1.4,1.1-1.4c4.8-0.7,6.5-0.6,2.5-2.9c3.2-1.8-9.8-2.2-1.4-5.1c3.3-7.3,15.3-3.8,14.8-12.8c5.7-5.4,2.6-5.5-2.5-3.6
	c-3.2-2.2-8.7,8.4-4.7-0.4c-9,4.6-23.5-6.5-8-10c8.4,3.1-0.6-4,7.1,0.4c-6.5-3.7-5.1-7,2.6-4.9c-1.2-1.7,0.5-3.7,1.1-4.5
	c-5.3,1.2-4.8-2.4-2.8-4.6c-5.6-2.7,3.4-6.2,3.2-6.5c-1.3-11.7,10-2,13.6-11.1c-2.2,3.6,5.1,2.8,4.7,5.2c-0.4-3.1,3-12.4,2.2-3
	c5.6-1.5,4,11.5,5.2,1.5c-0.4-8.3-2.5,3-4.3-4.5c6.3-8.7,9.1,4.7,9.9,8.9c-7.1,3.8,2.8,4.1-5.2,8.7c4.8,0.8,12.4-10.7,4.9-16.5
	c-0.6-8.3,7.6-6.3,11.5-5.1c-8.1-5.5-3.2-9.2,3-3.2C133.5,235.2,133.3,236.9,134.5,237.5"/>
</svg>
